<svg width="1080" height="816" viewBox="0 0 1080 816" fill="none" xmlns="http://www.w3.org/2000/svg">
<path d="M943.969 1155.29C955.885 1152.57 967.592 1149.62 979.484 1147.36C995.691 1144.65 1011.91 1144.02 1027.78 1145.5C1042.99 1146.74 1058.15 1148.91 1073.1 1150.86C1105.38 1155.3 1137.83 1156.46 1168.73 1149.09C1186.81 1144.9 1204.59 1138.29 1221.63 1129.4C1232.84 1123.25 1243.7 1116.22 1254.09 1108.39C1261.69 1102.38 1268.94 1095.85 1275.79 1088.85C1281.51 1083.53 1287.25 1077.75 1292.55 1072C1300.16 1063.75 1307.36 1055.06 1314.99 1046.35C1323.09 1037.13 1330.77 1027.47 1339.72 1018.66C1353.48 1005.06 1368.29 992.556 1385.71 984.297C1399.82 976.982 1415.08 973.779 1429.8 975.044C1441.85 976.452 1452.86 981.563 1461.56 989.784C1470.34 997.551 1478.86 1006.04 1487.63 1013.8C1497.44 1022.89 1508.71 1030.1 1521.03 1035.19C1526.95 1037.57 1533.15 1039.31 1539.53 1040.39C1555.78 1042.88 1572.93 1040.27 1588.98 1032.85C1601.02 1027.76 1612.38 1020.54 1622.55 1011.52C1628.16 1006.83 1633.52 1001.77 1638.57 996.364C1644.59 989.395 1649.76 982.021 1655.13 974.866C1660.05 968.21 1664.75 961.336 1670.31 954.867C1677.97 945.68 1686.06 936.46 1694.13 927.71C1698.65 923.341 1703.45 919.327 1708.48 915.706C1712.35 912.392 1716.45 908.828 1720.33 905.515C1725.1 901.67 1730.1 897.575 1734.67 893.511L1741.52 887.416C1745.18 883.884 1748.64 880.134 1752.52 876.82C1769.4 862.066 1784.43 844.878 1799.45 828.158C1805.92 820.621 1812.06 812.778 1817.85 804.659C1821.13 800.222 1824.61 796.003 1827.68 791.348C1832.13 785.192 1836.81 778.787 1840.85 772.195C1849.24 758.696 1856.45 744.495 1862.38 729.801C1870.67 709.131 1875.17 687.38 1875.61 665.839C1875.84 648.981 1873.26 632.575 1868 617.383C1864.26 605.705 1857.81 595.521 1849.19 587.705C1841.55 580.681 1832.08 576.139 1821.71 574.522C1799.64 570.983 1779.36 575.249 1759.58 582.512C1745.17 587.781 1731.15 594.663 1717.77 603.034C1708.32 609.287 1699.16 616.105 1690.35 623.45C1679.66 631.662 1669.81 641.154 1661.02 651.706C1656.08 657.586 1651.47 663.766 1647.23 670.204C1642.01 677.844 1637.17 685.751 1632.74 693.887C1622.98 712.84 1615.87 732.956 1611.66 753.516C1608.24 769.632 1605.46 785.934 1602.47 802.018C1600.11 814.323 1597.55 826.41 1591.36 836.658C1582.3 852.248 1568.99 860.909 1550.24 860.864C1543.54 860.944 1537.07 859.503 1531.25 856.636C1525.39 853.681 1520.33 849.356 1516.4 843.941C1508.85 832.504 1503.45 819.461 1500.44 805.423C1493.27 778.638 1486.77 751.571 1476.74 725.226C1468.47 703.801 1458.08 683.598 1445.72 664.927C1436.52 651.032 1425.9 638.352 1414.02 627.08C1403.84 617.57 1392.89 609 1381.28 601.443C1365.15 591.4 1347.95 583.185 1329.93 576.916C1316 572.089 1302.04 567.73 1288.05 563.84C1263.33 556.525 1239.07 548.71 1214.93 538.552C1195.93 530.358 1176.74 521.477 1157.48 514C1139.59 506.963 1120.83 502.062 1101.5 499.376C1076.39 495.59 1051.73 495.738 1026.73 494.044C1012.8 493.444 999.273 490.648 986.574 485.744C977.301 481.974 969.062 476.142 962.346 468.592C954.459 459.287 948.634 448.115 945.226 435.759C940.757 419.418 937.952 402.416 936.854 385.025C936.055 374.815 935.487 364.355 935.126 354.113C934.361 330.133 933.803 306.37 933.245 282.608C933.024 269.556 932.597 256.286 932.145 243.483C931.243 217.879 930.34 192.275 929 166.702C927.225 136.727 924.137 106.847 922.57 77.0904C921.124 51.01 923.114 24.4002 928.482 -1.97827C933.306 -25.4129 940.608 -48.4941 950.241 -70.7573C954.948 -82.1514 961.069 -92.9647 968.422 -102.874C972.578 -108.778 977.087 -114.406 981.915 -119.718C989.746 -127.635 998.544 -134.333 1007.99 -139.57C1031.55 -152.707 1057.36 -158.539 1084.49 -160.032C1102.17 -161.373 1119.57 -159.392 1135.89 -154.178C1147.44 -150.235 1157.87 -143.771 1166.57 -135.159C1177.1 -124.141 1185.66 -111.123 1191.91 -96.6188C1199.96 -78.7652 1207.37 -61.0979 1214.75 -42.9627C1223.49 -21.4251 1231.77 0.612062 1242.51 21.3047C1247.68 31.3847 1253.7 40.8648 1260.51 49.641C1274.42 68.2386 1292.36 80.2441 1312.42 89.0623C1336.11 99.365 1360.7 107.65 1386 113.849C1403.84 118.623 1422.1 122.06 1440.67 124.134C1465.14 127.038 1490.27 126.321 1515.38 122.004C1525.93 120.308 1536.33 117.457 1547.14 115.042C1548.68 114.775 1550.22 114.742 1551.72 114.944" stroke="#DFE4E8" stroke-linecap="round" stroke-linejoin="round"/>
<path d="M890.924 1099.39C900.396 1097.54 909.43 1095.72 918.672 1094.12C938.906 1090.79 958.932 1087.24 979.35 1084.6C998.547 1082.17 1017.67 1082.27 1036.27 1084.92C1054.47 1087.34 1072.65 1090.23 1090.87 1092.18C1118.4 1095.56 1145.53 1094.06 1171.07 1084.98C1184.83 1080.17 1198.06 1073.15 1210.28 1064.18C1219.26 1057.82 1227.61 1050.4 1235.16 1042.08C1237.92 1039.08 1241.08 1036.99 1243.64 1033.77C1251.05 1025.3 1258.24 1016.61 1265.67 1007.68C1271.25 1000.74 1277.06 993.551 1282.85 986.832C1291.43 976.644 1300.22 966.675 1309.44 956.674C1315.87 950.142 1322.93 944.265 1329.78 938.17C1335.7 933.075 1341.42 927.761 1347.12 922.916C1352.35 918.571 1357.79 914.444 1362.8 910.348C1366.67 907.035 1370.96 904.158 1374.63 900.626C1382.58 893.626 1390.16 886.141 1397.34 878.216C1418.16 854.309 1430.31 825.196 1430.96 790.379C1431.37 768.859 1427.9 747.957 1420.72 728.811C1415.91 715.354 1409.09 703.02 1400.52 692.233C1396.36 686.455 1391.82 681.014 1386.94 675.946C1374.94 664.212 1361.16 654.671 1346.04 647.631C1322.82 636.474 1298.4 631.938 1273.97 627.401C1249.55 622.865 1224.23 618.861 1200.55 608.204C1190.09 603.592 1179.45 598.293 1169.25 592.963C1149.69 582.708 1130.6 571.953 1110.26 564.322C1095.4 558.577 1079.79 554.696 1063.72 552.749C1047.01 550.923 1029.83 550.064 1013.12 548.237C997.061 546.597 981.209 545.175 965.153 539.101C952.827 534.625 941.777 527.41 932.659 517.886C923.542 508.362 916.543 496.723 912.081 483.663C908.368 472.588 905.586 461.08 903.766 449.26C901.843 438.34 900.65 427.198 900.196 415.914C899.447 400.333 899.551 385.157 899.24 369.545C899.083 363.956 899.133 358.585 898.746 353.245C897.342 320.21 896.376 287.143 894.097 254.171C892.473 227.378 889.128 200.956 884.086 175.085C878.141 145.645 871.757 116.237 866.019 87.0149C860.643 59.9089 860.814 31.1975 866.52 2.73602C871.099 -19.0638 877.405 -40.5218 883.689 -61.5113C891.035 -86.3113 898.151 -110.861 905.912 -135.224C908.955 -145.115 913.328 -154.635 918.883 -163.464C927.177 -176.526 939.189 -186.568 952.8 -191.818C971.529 -199.415 990.752 -204.796 1010.1 -207.858C1037.61 -212.88 1065.13 -217.902 1092.83 -222.237C1109.98 -224.876 1127.31 -226.828 1144.82 -228.093C1160.38 -229.296 1175.62 -227.144 1189.66 -221.765C1197.88 -218.523 1205.38 -213.783 1211.86 -207.734C1224.44 -195.882 1233.98 -180.771 1239.75 -163.544C1248.22 -140.82 1256.24 -118.064 1264.47 -95.0894C1272.72 -72.5833 1283.29 -51.367 1295.99 -31.7929C1305.4 -17.9416 1316.33 -5.42863 1328.59 5.52238C1343 18.6657 1359.37 29.2722 1377.19 37.0151C1393.43 44.5284 1410.54 50.172 1428.26 53.8608C1449.42 58.1852 1471.36 59.4246 1493.52 57.5473C1495.14 57.5542 1496.74 57.7518 1498.29 58.1363" stroke="#DFE4E8" stroke-linecap="round" stroke-linejoin="round"/>
<path d="M924.512 1134.3C948.528 1127.24 972.882 1122.97 997.129 1121.58C1013.81 1120.89 1030.34 1121.8 1046.51 1124.31C1062.31 1126.67 1078.17 1128.09 1093.76 1130.23C1113.56 1132.69 1133.91 1132.25 1154.25 1128.9C1175.5 1125.58 1196.43 1117.8 1215.82 1106.01C1224.83 1100.23 1233.84 1094.44 1242.44 1088.22C1248.12 1083.85 1252.96 1078.6 1258.22 1073.78C1262.11 1070 1266.45 1066.19 1270.14 1062.19C1275.44 1056.44 1280.54 1050.47 1285.43 1044.28C1290.76 1038.06 1296.11 1031.37 1301.02 1024.72C1310.82 1011.8 1321.42 999.572 1332.73 988.123C1338.93 981.84 1345.76 976.214 1352.38 970.368C1368.36 956.146 1386.78 945.481 1404.57 934.161C1413.79 928.594 1422.81 922.808 1431.64 916.337C1445.93 906.269 1456.69 891.115 1461.67 874.029C1466.28 856.814 1468.69 839.284 1468.86 821.938C1469.57 797.562 1467.02 773.623 1461.28 750.844C1455.1 723.121 1443.86 697.561 1428.18 675.527C1423.69 669.318 1419.2 663.108 1414.05 657.18C1408.94 651.058 1403.47 645.298 1397.68 639.927C1389.24 632.99 1380.38 626.618 1371.14 620.842C1352.74 609.564 1332.69 601.201 1311.53 595.979L1252.09 580.671C1231.28 575.067 1211.15 567.545 1191.92 558.182C1174.23 549.893 1156.12 541.167 1138.39 533.814C1119.66 526.039 1099.73 521.122 1079.13 519.193C1061.32 517.679 1043.49 516.634 1025.88 515.339C1012.48 514.725 999.292 512.867 986.461 509.786C971.565 505.918 958.358 497.78 948.159 486.184C942.966 480.136 938.824 473.108 935.893 465.368C929.064 449.151 925.077 431.436 924.111 413.013C923.039 399.556 921.735 386.349 921.307 373.078C920.425 351.44 920.418 329.738 919.974 308.068C919.84 302.01 919.73 295.484 919.389 289.208C919.028 278.966 918.667 268.725 918.076 258.733C917.511 243.839 917.176 228.694 915.967 213.613C914.232 191.57 911.852 169.339 909.68 147.327C907.895 130.654 905.673 114.013 904.326 97.309C903.046 83.6333 901.766 69.9577 901.361 56.2188C900.89 36.7662 902.756 17.0273 906.912 -2.52224C909.757 -15.7958 912.808 -28.851 916.735 -41.9694C923.394 -66.1668 932.779 -89.7368 944.67 -112.128C951.664 -124.782 960.586 -136.255 971.01 -146.001C982.328 -155.99 995.185 -163.593 1008.77 -168.332C1027.34 -175.305 1046.3 -180.272 1065.35 -183.154C1081.59 -185.575 1097.83 -187.06 1114 -187.602C1127.65 -188.016 1141.07 -186.474 1153.91 -183.017C1166.12 -179.714 1177.03 -173.13 1185.67 -163.843C1196.96 -151.847 1205.85 -137.464 1211.9 -121.401C1218.73 -105.326 1224.9 -88.9694 1231.29 -72.8629C1238.8 -52.9129 1247.45 -33.5907 1257.19 -14.9944C1263.77 -2.49274 1271.35 9.29025 1279.86 20.2384C1287.77 29.9678 1296.52 38.8592 1306.02 46.8181C1324.88 62.2573 1345.98 72.1674 1367.59 80.6407C1390.75 89.7958 1415.08 96.0968 1440.16 99.4335C1462.27 102.446 1485.03 102.215 1507.81 98.7463C1514.84 97.7718 1521.89 96.3286 1529.15 95.1041C1530.18 95.0866 1531.2 95.1695 1532.19 95.3512" stroke="#DFE4E8" stroke-linecap="round" stroke-linejoin="round"/>
<path d="M905.451 1114.21C925.063 1110.22 944.444 1106.49 964.264 1102.72C987.454 1098.73 1010.67 1098 1033.3 1100.54C1049.8 1102.14 1066.43 1105.38 1082.91 1107.45C1108.04 1110.77 1132.65 1111.56 1156.69 1106.32C1186.75 1099.61 1215.4 1083.93 1239.22 1061.16C1247.5 1052.62 1255.75 1044.56 1263.62 1035.59C1269.61 1029.09 1274.76 1022.18 1280.34 1015.25C1285.46 1008.81 1290.14 1002.4 1295.68 996.404C1304.95 985.466 1314.43 974.747 1323.88 964.496C1329.62 958.801 1335.64 953.456 1341.91 948.492C1348.53 942.646 1355.35 937.02 1362.18 931.393C1368.08 926.766 1374.42 922.107 1380.12 917.262C1385.81 912.417 1391.92 908.008 1397.41 902.944C1403.59 897.131 1409.79 890.849 1415.56 884.598C1426.16 872.53 1434.08 858.16 1438.59 842.797C1445.54 821.526 1447.12 798.542 1445.23 775.343C1443.24 752.36 1437.23 730.485 1427.51 710.816C1421.83 699.295 1415.14 688.456 1407.53 678.423C1392.07 658.774 1372.57 643.263 1350.26 632.855C1328.1 622.321 1305.46 617.19 1282.58 612.309C1264.88 608.454 1247.19 604.598 1229.75 600.024C1212.24 594.87 1195.42 587.881 1179.53 579.149C1161.24 569.736 1143.42 559.823 1124.36 552.565C1106.69 545.527 1088.03 540.921 1068.77 538.846C1054.88 537.517 1040.96 536.655 1026.84 535.575C1010.55 534.185 994.234 533.264 977.877 528.845C965.676 525.656 954.524 519.723 945.109 511.413C935.695 503.102 928.218 492.59 923.141 480.527C916.948 465.231 912.994 448.772 911.403 431.67C910.605 421.46 908.93 411.313 908.569 401.071C907.64 380.37 907.587 359.605 907.303 339.09L906.878 321.385C905.404 289.755 904.345 258.562 901.995 226.995C899.481 194.65 895.251 162.702 889.325 131.3C884.736 105.262 880.354 79.4422 879.475 53.3696C878.933 35.4226 880.502 17.2013 884.148 -0.87397C886.46 -12.2423 889.419 -23.4235 892.377 -34.6051C899.067 -59.5259 907.072 -84.1812 916.351 -108.445C920.863 -120.578 926.494 -132.325 933.152 -143.496C938.668 -151.985 945.391 -159.573 953.032 -165.934C972.17 -182.252 995.632 -189.081 1019.46 -194.536C1037.35 -198.862 1055.18 -202.251 1073.21 -204.954C1092.98 -207.782 1112.96 -210.392 1133.08 -211.379C1147.69 -212.47 1162.03 -210.576 1175.33 -205.798C1183.15 -203.011 1190.38 -198.89 1196.75 -193.577C1210.18 -182.879 1218.6 -168.086 1225.22 -152.23C1233.76 -130.911 1241.62 -109.31 1249.72 -87.9587C1257.52 -66.7981 1267.02 -46.5681 1278.11 -27.4697C1284.73 -16.7851 1292.01 -6.63452 1299.93 2.92374C1314.37 19.9648 1331.56 34.0839 1350.84 44.7499C1377.07 59.5981 1405.89 69.4933 1436.19 74.0539C1459.79 77.7643 1484.16 77.8888 1508.59 74.4238C1509.47 74.3605 1510.76 74.7342 1511.64 74.6709" stroke="#DFE4E8" stroke-linecap="round" stroke-linejoin="round"/>
<path d="M505.567 -225.316C507.292 -220.54 508.786 -215.514 510.51 -210.738C515.754 -197.815 521.229 -185.143 526.473 -172.22C534.343 -152.713 544.012 -134.27 555.35 -117.134C561.841 -107.335 568.792 -98.0362 575.975 -88.9875C593.171 -66.4273 614.264 -47.6488 633.05 -26.3704C653.081 -3.78162 666.864 21.5918 671.035 51.627C673.625 69.6418 673.382 87.6285 668.184 104.339C666.112 112.056 662.545 119.398 657.729 125.863C653.121 131.818 648.174 137.478 642.924 142.801C636.604 148.661 629.839 153.916 622.726 158.495C604.675 170.534 586.209 182.136 568.157 194.174C560.686 199.821 553.465 205.874 546.529 212.305C543.13 214.889 539.98 217.857 537.144 221.151C527.365 233.525 518.207 246.555 515.613 263.544C514.289 272.028 514.916 280.48 517.438 288.148C519.224 293.3 522.113 297.82 525.896 301.381C529.68 304.942 534.262 307.454 539.313 308.737C549.815 311.716 561.264 311.294 572.312 307.52C589.736 302.314 606.461 293.658 621.573 282.025C630.477 275.492 639 268.324 647.074 260.58C658.304 249.735 668.913 238.234 679.521 226.733C685.286 220.482 690.223 213.358 695.781 206.89C699.811 201.636 704.068 196.577 708.535 191.733C721.149 179.387 735.374 169.726 753.97 168.615C770.17 167.445 784.959 172.677 798.545 184.53C811.826 196.785 822.268 212.153 829.227 229.685C839.602 253.438 844.906 278.258 848.873 303.641C853.208 330.397 854.04 357.406 855.541 384.134C856.744 408.083 856.657 431.658 858.298 455.576C859.436 478.867 863.822 501.432 871.312 522.543C876.791 537.312 884.424 550.841 893.956 562.678C908.736 581.212 927.599 592.217 948.401 599.349C966.623 605.733 985.263 608.12 1004.11 610.726C1028.16 613.888 1052.63 617.487 1075.92 627.239C1090.12 633.356 1103.76 640.639 1116.71 649.028C1134.06 659.91 1151.12 671.978 1169.43 680.923C1186.46 689.225 1204.74 694.889 1223.78 697.766C1243.27 700.558 1262.79 702.882 1282.26 706.142C1295.89 708.238 1308.85 712.739 1320.63 719.471C1338.23 729.635 1350.34 744.861 1354.75 765.778C1357.65 778.166 1356.74 791.686 1352.16 804.469C1348.48 815.523 1342.59 825.84 1334.95 834.65C1331.72 838.15 1329.11 842.305 1325.91 845.337C1319.27 851.651 1312.42 857.746 1305.57 863.842C1298.72 869.937 1291.67 875.814 1284.61 881.691C1279.38 886.036 1273.73 889.945 1268.73 894.04C1264.41 897.385 1260.29 901.417 1256.18 904.98C1250.72 909.576 1245.02 914.421 1239.77 919.234C1236.56 922.266 1233.59 925.049 1230.38 928.08C1225.33 933.113 1220.72 938.113 1215.46 942.926C1208.36 949.74 1201.05 956.335 1193.53 962.712C1185.32 970.001 1176.75 976.777 1167.87 983.002C1160.1 988.164 1151.91 992.436 1143.46 995.734C1126.15 1002.26 1108.23 1005.3 1090.66 1004.68C1075.41 1004.38 1060.38 1003.84 1045.13 1003.54C1022.45 1003 999.526 1004.58 976.62 1008.25C957.262 1011.52 937.649 1015.5 918.107 1018.08C890.891 1021.45 863.491 1024.13 836.091 1026.81C832.151 1027.09 827.98 1027.63 824.039 1027.91" stroke="#DFE4E8" stroke-linecap="round" stroke-linejoin="round"/>
<path d="M495.459 -215.256C499.92 -204.144 504.152 -192.781 508.614 -181.669C519.239 -154.201 530.97 -127.045 547.173 -102.08C553.847 -91.5941 561.191 -81.3898 568.534 -71.1858C574.864 -62.5422 581.655 -54.3986 588.216 -46.005C601.545 -28.9994 614.874 -11.9941 625.021 7.57495C635.743 28.736 640.749 50.7766 638.52 73.5734C637.089 87.6773 632.178 101.569 624.296 113.806C617.658 123.58 609.951 132.531 601.371 140.431C593.373 147.753 585.018 154.591 576.354 160.907L555.258 177.133C550.047 181.01 544.837 184.887 539.834 188.982C538.012 190.514 535.96 192.295 534.138 193.827C526.608 200.81 519.46 208.264 512.738 216.142C502.545 228.098 495.079 242.292 491.047 257.38C486.448 275.214 485.535 293.482 494.646 311.959C498.082 319.171 503.146 325.218 509.437 329.623C515.729 334.029 523.075 336.672 530.896 337.344C547.601 339.17 562.858 335.034 577.748 329.525C591.866 324.214 605.59 317.355 618.687 309.065C630.629 301.435 642.18 292.899 653.5 284.614C660.509 279.674 667.103 274.297 673.698 268.92C678.701 264.825 682.852 260.324 687.855 256.229C694.011 250.884 700.606 245.507 706.97 240.38C714.232 234.722 721.725 228.813 729.403 223.591C739.799 216.331 751.617 212.309 763.353 212.037C775.328 211.881 786.584 215.805 795.513 223.249C807.879 233.323 815.496 246.774 821.983 261.007C830.275 280.69 835.969 301.776 838.918 323.723C842.144 346.314 844.204 369.223 845.088 392.352C846.268 416.769 846.572 441.25 848.189 465.636C849.476 489.038 854.08 511.675 861.849 532.789C869.051 550.742 878.983 567.031 891.284 581.068C899.099 589.148 907.816 596.186 917.284 602.059C936.2 612.819 956.969 620.062 978.815 623.516C995.68 626.498 1012.34 629.262 1028.97 632.494C1053.19 637.396 1076.01 646.625 1096.54 659.816C1113 670.761 1129.47 681.706 1146.4 692.151C1161.52 701.825 1177.92 709.338 1195.23 714.525C1212.92 719.309 1231.04 722.755 1249.47 724.842C1264.88 726.436 1279.86 729.974 1294.09 735.386C1301.7 738.456 1308.63 742.923 1314.59 748.606C1321.84 755.444 1326.63 764.803 1328.3 775.386C1330.02 789.331 1326.38 804.112 1318.18 816.488C1311.74 825.981 1304.35 834.742 1296.15 842.581C1289.66 848.65 1282.89 854.359 1275.89 859.681C1270.42 864.276 1265.16 869.09 1259.49 873.466C1253.82 877.843 1247.92 882.471 1242.22 887.316C1238.12 890.879 1233.78 894.693 1229.68 898.256C1223.52 903.602 1217.6 908.697 1211.65 914.26C1209.14 916.542 1206.85 918.575 1204.34 920.856C1194.77 929.015 1185.41 937.392 1175.84 945.551C1165.91 953.926 1155.14 960.981 1143.82 966.533C1124.86 975.356 1104.88 980.134 1085.09 980.577C1061.91 981.785 1038.57 981.838 1015.78 983.951C995.409 985.656 975.382 989.203 955.586 992.5C926.317 997.649 897.464 1003.23 867.461 1005.63C847.527 1007.31 827.594 1008.98 807.43 1010.91" stroke="#DFE4E8" stroke-linecap="round" stroke-linejoin="round"/>
<path d="M1856.73 436.388C1856.08 440.635 1855.64 445.101 1854.99 449.348C1853.35 460.435 1851.7 471.521 1849.85 482.389C1848.5 491.614 1844.46 500.489 1838.33 507.724C1833.55 512.583 1828.02 516.474 1822.06 519.168C1811.34 524.143 1800.46 527.962 1789.56 532.25C1754.99 544.784 1721.66 562.274 1690.55 584.208C1684.21 588.867 1677.87 593.525 1671.94 598.621C1664.2 605.248 1656.86 612.312 1649.32 619.157C1644.5 623.211 1640.03 627.759 1635.99 632.721C1629.26 640.909 1623.12 650.219 1616.6 658.625C1608.15 670.173 1600.67 682.436 1594.26 695.243C1589.95 703.022 1586.92 711.175 1582.82 719.172C1576.26 732.481 1570.14 745.757 1562.97 758.41C1558.19 766.689 1551.97 773.44 1541.87 774.636C1535.22 775.378 1528.85 773.421 1524.04 769.157C1515.43 762.545 1510.67 753.088 1505.67 743.881C1495.89 725.686 1487.22 707.177 1477.67 688.731C1469.05 671.385 1458.99 655.017 1447.61 639.797C1442.3 632.714 1436.54 625.662 1430.99 618.829C1426.87 613.993 1422.77 608.688 1417.99 604.134C1405.29 591.793 1391.37 580.922 1376.42 571.667C1364.35 564.371 1351.8 558.044 1339.22 552.185C1314.92 540.873 1289.32 533.621 1264.49 524.214C1242.01 515.804 1219.8 506.207 1197.36 496.86C1169.58 485.333 1141.5 475.46 1112.7 471.24C1095.32 468.611 1077.71 467.001 1059.94 466.418C1049.48 466.241 1039.01 466.063 1028.58 465.417C1014.5 464.829 1000.83 462.044 987.981 457.148C974.535 451.656 963.588 441.5 956.711 428.138C949.686 414.668 945.117 399.67 943.218 383.841C938.86 357.553 938.65 331.199 937.333 305.158C936.584 289.577 936.711 273.932 936.4 258.32C936.16 241.302 935.712 224.066 935.702 206.799C935.365 165.519 932.423 123.96 930.565 82.5564C929.076 58.6513 929.998 34.3351 933.316 10.0166C936.97 -16.8344 944.632 -43.3966 956.003 -68.6311C960.388 -78.8376 966.01 -88.5106 972.708 -97.3741C975.96 -101.343 978.59 -105.967 982.049 -109.717C997.098 -125.916 1015.84 -137.436 1035.83 -142.773C1047.56 -146.006 1059.44 -147.726 1071.21 -147.895C1084.87 -148.01 1098.22 -145.907 1110.81 -141.655C1120.47 -138.236 1129.29 -132.95 1136.86 -126.036C1151.69 -112.872 1160.87 -95.8005 1169.36 -77.9785C1179.2 -56.1457 1187.9 -33.6409 1195.44 -10.555C1200.04 2.18082 1204.41 15.1662 1209.22 28.1204C1214.2 42.2028 1220.86 55.3585 1229.07 67.2901C1238.73 80.6725 1251.63 90.8815 1266.63 97.0136C1284.78 104.803 1303.35 108.595 1321.9 112.856C1345.63 118.142 1369.59 123.179 1393.57 127.747C1406.55 130.076 1419.56 131.469 1432.58 132.862C1459.13 135.624 1486.37 134.285 1513.49 128.884C1526.25 126.561 1538.65 122.865 1551.24 119.856C1552.56 119.733 1553.89 119.481 1555.2 119.102" stroke="#DFE4E8" stroke-linecap="round" stroke-linejoin="round"/>
<path d="M486.236 -205.255C490.674 -193.675 494.883 -181.844 499.552 -170.513C507.801 -148.546 517.144 -127.179 527.546 -106.495C535.738 -91.4523 544.829 -76.9411 554.381 -62.9296C567.202 -44.4872 580.253 -26.2949 591.968 -7.53915C604.304 11.8717 612.399 33.2226 612.773 56.298C613.231 71.6402 609.413 87.3366 601.794 101.429C594.571 115.019 584.01 125.583 573.656 136.366C567.619 141.937 561.313 147.147 554.772 151.965C549.769 156.061 544.742 160.624 539.739 164.719C534.735 168.814 529.063 173.191 524.06 177.286C521.703 179.035 519.424 180.914 517.235 182.913C508.705 190.984 500.559 199.52 492.837 208.479C480.05 224.201 471.251 242.952 467.449 262.585C462.821 283.88 464.417 305.392 472.011 324.095C475.611 333.581 481.381 341.736 488.847 347.89C496.314 354.045 505.263 358.022 514.959 359.497C532.054 362.229 547.933 358.748 563.238 353.675C580.151 348.344 596.639 340.883 612.335 331.459C624.692 324.266 636.634 316.636 648.576 309.005C659.181 301.939 669.809 294.403 680.207 287.118C691.734 279.051 703.261 270.984 714.996 263.135C726.206 255.345 738.493 249.856 751.139 246.99C764.252 244.199 777.278 246.67 787.657 253.919C796.438 260.201 803.542 268.699 808.446 278.787C817.885 297.231 824.236 317.582 827.249 339.034C832.48 369.693 833.148 399.981 834.461 430.456C835.114 456.747 837.683 482.698 842.145 508.077C846.501 532.131 855.311 554.478 868.088 573.876C887.937 603.063 916.663 623.679 950.213 632.816C969.151 637.982 988.596 641.711 1007.81 645.69C1033.34 650.37 1057.54 659.408 1079.55 672.477C1092.88 680.615 1105.71 690.189 1118.56 699.295C1127.63 705.407 1136.25 712.019 1145.55 717.88C1157.84 725.554 1170.78 732.11 1184.27 737.486C1201.54 743.726 1219.28 748.757 1237.4 752.549C1248.39 754.55 1258.98 757.935 1268.96 762.637C1278.52 767.78 1286.23 774.924 1287.35 787.445C1288.23 794.961 1286.44 802.899 1282.31 809.744C1277.02 819.673 1269.79 828.423 1261.18 835.306C1257.56 838.349 1254.12 841.639 1250.88 845.152C1244.93 850.716 1238.79 855.593 1232.84 861.157L1225.3 868.002C1219.36 873.566 1213.38 879.598 1207.23 884.943C1201.74 890.007 1196.07 894.383 1190.58 899.447C1185.78 903.761 1180.96 908.543 1175.96 912.638C1169.36 918.015 1162.33 923.424 1155.32 928.364C1140.81 938.358 1125.09 945.807 1108.85 950.39C1094.48 954.052 1079.98 956.427 1065.53 957.487C1038.36 959.917 1010.78 961.91 983.903 967.118C959.682 971.669 935.852 977.124 911.654 981.206C885.912 985.633 859.641 987.53 833.579 989.646C819.568 990.659 805.511 992.608 791.707 993.839" stroke="#DFE4E8" stroke-linecap="round" stroke-linejoin="round"/>
<path d="M530.516 -253.262C534.058 -245.584 537.601 -237.905 540.706 -230.196C549.646 -208.736 560.377 -188.355 572.782 -169.273C577.827 -161.562 583.526 -154.402 589.817 -147.868C600.823 -136.762 612.544 -126.874 626.896 -121.61C643.295 -114.515 662.461 -115.06 680.195 -123.127C693.757 -129.987 706.808 -138.2 719.156 -147.645C740.524 -163.399 763.957 -175.137 788.287 -182.276C802.331 -186.311 816.593 -188.362 830.69 -188.373C837.063 -188.197 843.308 -187.239 849.306 -185.517C854.129 -184.243 858.432 -181.657 861.828 -177.992C865.224 -174.327 867.607 -169.697 868.762 -164.521C871.042 -155.24 871.951 -145.472 871.459 -135.546C870.164 -113.787 866.364 -91.9573 860.142 -70.5542C854.875 -52.4385 848.547 -34.9465 843.487 -16.6123C838.173 2.44028 833.066 21.7115 833.558 42.4449C834.334 61.8497 837.726 80.6989 843.631 98.4229C849.216 117.622 855.469 136.539 861.492 155.706C868.602 179.106 873.885 203.304 877.291 228.072C879.56 243.776 881.368 259.981 882.762 275.749C884.383 295.7 886.004 315.652 886.749 335.667C887.585 358.242 888.213 380.599 888.403 402.988C888.459 425.877 890.471 448.461 894.413 470.461C897.446 487.588 903.445 503.6 912.12 517.72C919.547 529.495 929.294 539.264 940.787 546.453C955.18 555.182 971.341 560.667 988.403 562.614C1001.61 564.694 1014.67 565.15 1028.13 566.512C1049.71 568.015 1070.86 571.802 1091.25 577.819C1105.05 582.31 1118.33 588.063 1130.97 595.019C1148.17 604.277 1165.13 614.253 1182.35 623.043C1200.83 632.355 1220.67 638.846 1241.38 642.348C1262.57 645.951 1283.79 649.085 1304.97 653.156C1324.1 656.735 1342 664.227 1357.74 675.245C1363.7 679.482 1369.37 684.138 1374.71 689.187C1382.06 695.621 1388.29 703.356 1393.2 712.121C1397.87 719.873 1401.91 728.087 1405.28 736.684C1410 749.513 1412.55 763.372 1412.83 777.677C1413.57 797.336 1409.25 817.492 1400.32 835.987C1396.45 844.411 1391.5 852.319 1385.62 859.451C1380.16 866.323 1374.37 872.897 1368.28 879.139C1360.25 886.953 1352.04 894.08 1343.63 900.989C1334.52 908.648 1325 915.87 1316.1 923.747C1309.71 929.342 1303.53 935.156 1297.56 941.188C1285.15 953.752 1272.95 966.535 1260.96 979.536C1248.02 994.005 1235.27 1009.16 1222.33 1023.63C1213.44 1032.96 1203.57 1041.13 1192.98 1047.92C1182.72 1054.88 1171.71 1060.24 1160.34 1063.81C1148.29 1067.71 1136 1069.86 1123.81 1070.19C1102.4 1070.8 1080.95 1067.92 1059.3 1064.81C1028.61 1059.85 996.906 1059.63 965.098 1064.15C941.799 1067.7 918.914 1071.69 895.616 1075.24C887.918 1076.49 880.245 1077.28 872.778 1078.29" stroke="#DFE4E8" stroke-linecap="round" stroke-linejoin="round"/>
<path d="M520.828 -242.759C530.421 -220.816 539.806 -199.091 550.067 -177.43C556.881 -163.145 565.132 -149.823 574.692 -137.671C582.704 -127.749 591.868 -119.077 600.802 -110.155C608.465 -102.863 617.014 -96.6671 626.273 -91.6928C638.406 -84.4301 652.034 -79.9469 666.403 -78.4908C680.003 -77.3483 694.129 -81.5121 706.253 -90.2373C715.521 -96.7408 724.191 -104.368 733.068 -111.777C746.694 -122.562 760.919 -132.224 777.974 -137.424C786.599 -140.105 795.451 -140.584 803.783 -138.822C818.021 -135.65 825.872 -126.883 828.81 -111.46C830.602 -100.597 829.955 -89.1286 826.919 -77.9528C822.711 -59.2135 814.887 -42.3131 806.832 -25.1627C799.746 -9.94923 792.684 4.79588 789.86 22.0351C787.765 36.7231 789.06 51.3007 793.63 64.4672C799.101 81.5738 808.375 96.7719 816.544 112.284C825.311 128.919 834.515 145.522 841.507 162.752C854.032 193.851 862.564 227.035 866.895 261.495C868.636 274.671 870.17 287.628 871.243 301.086C872.476 315.698 873.71 330.31 874.274 345.204C875.067 364.283 874.983 383.424 875.338 402.534C876.26 432.104 876.952 461.924 884.856 491.456C888.61 506.154 894.629 519.821 902.684 531.939C913.148 547.394 927.293 559.425 943.904 566.998C959.066 573.517 975.207 577.764 991.915 579.632C1013.8 582.484 1036.15 584.836 1058.02 588.157C1077.82 591.708 1096.66 598.445 1113.95 608.152C1131.16 617.41 1148.11 627.386 1165.06 637.363C1186.88 649.912 1210.93 658.266 1236.24 662.09C1256.8 665.506 1277.39 667.985 1298.15 671.619C1315.08 674.634 1331.01 680.909 1345.21 690.154C1373.29 708.895 1389.42 735.265 1392.51 769.579C1394.06 786.067 1391.48 803.231 1385 819.36C1382.01 827.647 1377.7 835.467 1372.29 842.448C1366.7 850.125 1360.65 857.425 1354.19 864.291C1347.69 870.816 1340.9 876.993 1333.85 882.796C1327.92 887.891 1322.2 893.205 1316.51 898.05C1310.81 902.895 1304.93 907.054 1299.24 911.899C1294.7 915.494 1290.57 919.526 1286.23 923.34C1260.64 946.658 1238.57 973.689 1214.19 998.786C1200.86 1012.9 1185.58 1024.67 1169.05 1033.55C1150.37 1042.57 1130.52 1047.11 1111.02 1046.84C1092.72 1046.51 1074.58 1045.02 1056.71 1042.37C1028.72 1038.73 999.983 1038.92 971.173 1042.95C949.626 1046.37 928.078 1049.79 906.323 1053C889.408 1055.39 872.102 1056.87 855.21 1058.79C854.772 1058.82 854.104 1059.1 853.666 1059.14" stroke="#DFE4E8" stroke-linecap="round" stroke-linejoin="round"/>
<path d="M1824.2 402.101C1823.47 404.684 1822.62 407.239 1821.63 409.753C1817.92 418.656 1813.97 427.809 1809.84 436.275C1804.68 447.456 1798.97 458.388 1792.72 469.015C1788.37 475.932 1783.29 482.336 1777.59 488.078C1768.3 496.656 1758.64 504.753 1748.67 512.335C1733.94 523.434 1718.79 534.096 1703.85 544.976C1692.53 553.262 1680.77 561.579 1669.45 569.864C1664.24 573.741 1659.22 578.305 1654.21 582.4C1647.39 588.027 1640.79 593.404 1634.18 599.249C1631.43 601.781 1628.48 604.094 1626.18 606.595C1613.75 619.627 1601.09 632.91 1588.66 645.943C1583.35 651.693 1578.65 658.567 1572.93 663.881C1565.82 670.694 1559.16 677.477 1550.22 681.857C1537.93 687.645 1526.46 685.907 1515.61 675.956C1508.93 669.904 1502.49 663.603 1496.5 656.801C1490.51 649.999 1485.45 642.198 1479.69 635.146C1475.39 629.623 1470.62 624.6 1466.55 618.827C1455.88 605.201 1444.35 592.396 1432.04 580.483C1424.05 572.543 1415.61 565.129 1406.75 558.274C1392.98 547.555 1378.27 538.16 1362.79 530.181C1347.91 522.388 1332.57 515.095 1317.66 507.771C1300.62 499.668 1283.55 492.034 1266.71 484.149C1252.64 477.699 1238.56 471.248 1224.72 464.548C1194.15 450.191 1160.99 441.554 1126.53 438.971C1115.45 438.138 1104.16 437.087 1093.05 436.723C1077.15 436.238 1061.2 436.69 1045.54 435.955C1031.33 435.769 1017.54 433.06 1004.71 427.937C996.794 424.865 989.82 419.872 984.283 413.311C979.367 407.027 975.249 400.038 972.017 392.495C965.575 376.514 961.653 359.238 960.396 341.296C958.955 326.465 957.308 311.416 956.95 296.74C956.252 275.788 956.198 255.023 956.145 234.258C955.971 220.269 956.004 206.498 956.037 192.728C955.984 171.963 955.931 151.198 955.67 130.214C955.814 122.97 955.082 115.789 955.225 108.544C954.604 77.3192 953.959 46.5627 958.959 16.3316C962.849 -9.15215 969.965 -33.7022 982.171 -55.3529C986.232 -62.4137 991.145 -69.0694 995.62 -75.6934C1003.22 -86.058 1012.95 -94.4738 1023.89 -100.138C1033.99 -105.435 1044.77 -108.519 1055.53 -109.192C1067.67 -110.22 1079.56 -108.452 1090.39 -104.009C1104.23 -98.2871 1116.12 -88.8075 1125.01 -76.407C1138.66 -58.2218 1148.84 -37.1421 1155.05 -14.1713C1162.43 12.8321 1168.7 40.1489 1175.2 67.2155C1178.23 80.8531 1182.85 93.8409 1188.97 105.892C1192.69 112.89 1197.12 119.372 1202.18 125.239C1211.67 135.904 1224.06 143.166 1238 146.22C1251.2 148.909 1264.84 149.882 1278.65 149.118C1302.56 148.276 1326.34 148.817 1349.89 150.738C1370.74 152.499 1391.94 156.101 1412.77 158.33C1438.6 160.897 1464.27 162.31 1489.5 159.32C1506.07 157.513 1522.63 154.366 1539.05 149.906C1550.55 146.742 1561.87 142.891 1573.37 139.726C1574.54 139.524 1575.71 139.439 1576.87 139.473" stroke="#DFE4E8" stroke-linecap="round" stroke-linejoin="round"/>
<path d="M477.664 -195.065C478.032 -193.691 477.962 -192.286 478.329 -190.912C483.664 -175.429 488.998 -159.946 495.001 -144.745C504.315 -121.615 513.63 -98.4855 526.956 -77.0459C538.463 -58.5085 550.408 -40.0031 561.916 -21.4658C572.41 -4.48879 582.213 13.2386 586.899 32.9689C592.504 56.1331 589.723 76.8695 579.824 96.0201C572.808 109.828 562.246 120.392 551.892 131.175C544.865 137.823 537.561 144.115 530.011 150.024C523.186 155.651 516.177 160.591 509.352 166.218C504.118 170.563 499.299 175.346 494.503 179.659C488.991 185.191 483.065 190.287 478.199 196.005C466.524 209.52 457.535 225.322 451.895 242.244C444.797 264.089 442.466 286.81 445.094 308.542C446.51 324.791 451.17 340.119 458.77 353.526C463.327 361.591 469.562 368.312 477.063 373.241C484.564 378.171 493.158 381.197 502.276 382.119C516.651 383.82 531.541 382.427 546.107 378.019C565.285 372.812 584.064 365.105 602.002 355.079C623.764 343.005 645.318 330.714 666.481 317.517C685.154 306.133 703.436 293.844 723.099 284.49C733.963 278.834 745.63 275.911 757.117 275.965C767.432 276.224 777.056 279.838 784.737 286.337C797.701 297.535 804.81 312.423 809.914 328.156C815.513 345.211 818.938 363.237 820.104 381.792C821.291 397.341 822.708 412.641 823.895 428.19C824.717 437.932 824.225 447.768 825.047 457.51C826.919 481.177 828.998 505.063 835.248 528.414C840.531 549.612 849.124 569.325 860.689 586.783C866.736 596.038 873.691 604.523 881.454 612.118C894.96 625.167 910.556 635.614 927.678 643.082C949.446 652.711 971.679 657.405 994.302 663.005C1007.66 666.24 1020.54 670.443 1033.65 674.397C1049.48 679.87 1064.34 687.579 1077.88 697.338C1088.63 704.728 1098.69 712.869 1108.99 720.76C1129.37 736.322 1149.75 751.885 1171.56 765.01C1181.72 771.277 1191.85 778.013 1201.99 784.748C1216.75 794.883 1220.89 808.118 1214.65 823.737C1211.18 831.724 1206.61 839.222 1201.11 845.951C1196.56 852.267 1191.67 858.311 1186.46 864.044C1177.49 873.327 1168.13 881.704 1158.75 890.55C1150.05 898.76 1140.45 905.739 1130.23 911.279C1117.32 918.803 1103.66 924.352 1089.71 927.741C1063.85 934.51 1036.7 936.471 1010.27 941.648C983.834 946.825 957.815 952.438 931.588 957.834C904.98 963.402 878.271 967.202 851.621 969.212C826.665 971.015 801.962 972.1 777.557 975.963C777.119 975.995 776.451 976.276 776.013 976.308" stroke="#DFE4E8" stroke-linecap="round" stroke-linejoin="round"/>
<path d="M1794.56 370.873C1794.8 371.223 1795 371.599 1795.16 371.996C1785.5 386.463 1778.39 402.144 1770.43 417.421C1763.92 429.793 1757.64 441.914 1750.51 453.63C1745.93 460.823 1740.85 467.669 1735.31 474.098C1731.94 478.862 1728.21 483.348 1724.17 487.504C1717.07 494.317 1709.99 500.663 1702.68 507.258C1698.35 511.072 1694.22 515.104 1689.68 518.699C1684.67 522.794 1679.67 526.889 1674.46 530.766C1668.33 535.643 1662.19 540.52 1655.85 545.179C1651.54 548.524 1647.02 551.65 1642.71 554.996C1636.58 559.872 1630.45 564.749 1624.11 569.408C1616.84 575.066 1609.37 580.507 1601.67 586.197C1593.97 591.887 1586.92 597.764 1579.24 602.986C1569.3 609.771 1559.18 615.87 1546.85 618.161C1533.78 619.969 1521.09 616.746 1511.1 609.076C1503.08 603.595 1495.66 597.256 1488.92 590.143C1481.05 581.844 1472.74 573.577 1464.63 565.528C1456.53 557.48 1447.98 549.463 1439.19 542.164C1420.82 526.378 1401.18 512.272 1380.44 499.97C1362.22 489.152 1343.54 478.834 1325.34 467.547C1307.56 456.697 1290.27 444.878 1272.72 433.778C1258.11 424.799 1243.95 415.788 1229.07 407.995C1214.52 400.672 1198.71 395.987 1182.21 394.112C1159.45 391.323 1137.3 393.623 1115.2 394.986C1099.67 395.875 1084.16 396.296 1068.63 397.184C1054.58 397.896 1040.81 396.051 1027.89 391.726C1016.81 387.906 1007.35 380.665 1000.58 370.831C991.605 358.411 987.721 344.457 984.713 330.439C980.132 309.306 977.86 287.396 977.942 265.122C977.755 238.299 978.674 211.163 979.132 184.527C979.703 159.983 980.251 135.907 981.03 111.582C981.271 89.2428 982.611 66.7909 985.044 44.318C986.93 26.6934 991.262 9.15276 997.895 -7.71614C1002.7 -19.7036 1009.89 -30.6792 1018.91 -39.8041C1032.61 -51.9949 1048.4 -58.0362 1067.84 -49.8732C1074.27 -47.0224 1080.11 -43.0333 1085.13 -38.0549C1094.98 -27.6684 1102.72 -15.1723 1107.94 -1.19834C1116.5 19.6525 1120.01 41.1011 1124.39 62.4866C1127.7 79.2829 1131 96.0795 1135.62 112.781C1140.66 131.233 1148.33 148.45 1158.37 163.876C1166.83 177.235 1178.11 188.12 1191.46 195.789C1203.71 202.568 1217.71 205.804 1232.22 205.213C1247.61 203.878 1263.02 200.968 1278.24 196.521C1300.11 190.973 1321.96 185.894 1345.07 186.091C1363.83 186.136 1382.77 186.868 1401.71 187.6C1414.34 188.088 1427.35 189.481 1439.98 189.969C1464.95 191.173 1490.35 188.946 1515.57 183.341C1531.24 179.642 1546.93 175.474 1562.42 171.088C1572.61 168.018 1582.4 164.044 1592.38 160.756C1593.56 160.553 1594.73 160.469 1595.89 160.503" stroke="#DFE4E8" stroke-linecap="round" stroke-linejoin="round"/>
<path d="M464.094 -181.255C469.429 -165.772 474.763 -150.289 480.304 -134.588C487.97 -111.484 497.439 -89.303 508.62 -68.2594C516.605 -53.4346 525.488 -39.1414 533.934 -24.8167C543.784 -8.02643 553.403 9.01385 558.55 28.2441C563.329 46.1007 562.901 63.3998 556.645 79.4868C552.133 90.7205 545.516 101.068 537.243 109.825C528.466 119.276 518.979 127.93 508.904 135.675C499.382 142.897 489.86 150.119 480.752 157.778C473.317 163.999 466.144 170.593 459.261 177.533C453.96 182.616 448.951 188.046 444.271 193.784C436.877 203.631 430.948 214.553 426.735 226.087C420 246.585 416.651 267.775 416.848 288.642C416.441 311.56 418.912 334.063 424.195 355.552C427.197 368.156 432.379 379.797 439.492 389.917C447.436 400.661 458.671 408.015 471.597 410.933C488.853 414.82 505.561 412.213 521.878 408.7C540.09 404.458 558.044 398.073 575.398 389.666C600.846 378.026 625.305 364.358 649.556 350.471C665.047 341.651 680.745 333.049 696.628 325.134C709.124 318.329 722.321 313.595 735.719 311.109C746.675 308.974 757.572 310.469 766.915 315.389C772.752 318.561 777.858 322.939 781.976 328.302C794.429 345.371 799.576 364.601 802.718 384.677C804.874 398.289 805.923 412.215 807.203 425.89C808.323 438.411 809.005 450.963 809.917 463.265C811.445 487.949 814.902 512.207 820.254 535.792C825.838 559.136 834.984 580.924 847.35 600.342C851.193 606.365 855.499 611.888 859.803 617.411C863.156 622.01 866.882 626.266 870.946 630.14C884.758 643.863 900.476 655.286 917.674 664.102C938.934 675.167 961.097 681.267 983.443 688.053C1003.85 694.279 1024.01 701.224 1043.06 712.916C1052.68 718.659 1061.83 725.172 1070.44 732.407C1076.91 738.24 1083.82 744.041 1090.29 749.875C1100.29 759.42 1110.05 769.216 1119.35 779.512C1127.53 788.131 1133.83 798.622 1137.88 810.377C1139.94 816.667 1140.52 823.575 1139.56 830.537C1138.61 837.5 1136.15 844.321 1132.38 850.445C1128.13 857.998 1122.6 864.743 1116.12 870.288C1109.49 875.875 1102.45 880.838 1095.1 885.108C1083.56 891.804 1071.42 896.919 1059 900.317C1046.6 904.014 1033.81 906.805 1021 910.064C1002.01 914.703 982.808 919.124 964.024 923.981C929.315 933.256 894.215 941.627 857.875 944.252C836.19 946.052 814.322 947.165 792.844 949.184C779.917 950.351 767.149 952.674 754.175 954.778" stroke="#DFE4E8" stroke-linecap="round" stroke-linejoin="round"/>
<path d="M513.678 -235.01C521.316 -217.593 528.515 -200.144 536.152 -182.728C544.242 -164.438 553.728 -147.023 564.524 -130.638C573.591 -116.891 584.075 -104.354 595.811 -93.2278C603.732 -85.8659 611.907 -79.2226 620.29 -72.3607C641.476 -55.4561 664.855 -43.1436 687.011 -28.1759C701.027 -19.3256 711.24 -5.26058 715.991 11.7345C720.059 26.3756 724.334 41.2352 728.609 56.0947C733.517 72.7449 742.566 87.2086 754.868 98.0686C764.263 106.491 775.042 113.413 784.438 121.835C792.906 129.774 800.929 138.23 808.475 147.168C816.747 157.089 823.877 168.075 829.742 179.935C835.666 191.115 840.622 202.936 844.555 215.269C851.504 237.094 856.575 259.761 859.712 283.015C860.995 292.256 862.278 301.498 863.124 310.771C864.22 323.76 865.524 336.967 865.744 350.019C866.443 370.971 866.473 392.205 867.171 413.156C868.441 440.134 869.043 467.394 875.751 494.679C879.704 512.364 886.802 528.706 896.683 542.872C907.703 558.497 922.233 570.775 939.17 578.773C955.721 585.797 973.302 590.408 991.489 592.494C1010.13 594.882 1028.79 596.8 1047.18 599.906C1067.13 603.194 1086.15 609.766 1103.57 619.4C1122.25 629.719 1140.42 641.474 1158.87 652.043C1181.46 665.262 1206.48 673.95 1232.84 677.735C1251.9 680.559 1271.21 682.664 1290.24 685.957C1307.49 688.504 1323.7 694.703 1337.97 704.21C1364.73 723.045 1378.72 748.638 1377.73 781.613C1377.24 799.31 1371.47 817.063 1361.24 832.276C1355.22 841.955 1348.1 850.869 1340.06 858.775C1332.73 865.839 1324.78 872.248 1317.03 878.875C1309.74 885.002 1302.89 891.097 1295.61 897.224C1289.91 902.07 1283.57 906.728 1277.88 911.573C1272.51 916.049 1267.32 920.785 1262.34 925.764C1249.47 938.828 1236.83 951.643 1223.96 964.707C1217.99 970.739 1212.46 976.74 1206.28 982.553C1199.43 988.649 1192.37 994.526 1185.09 1000.65C1176.86 1007.49 1167.91 1013.17 1158.5 1017.51C1142.13 1025.16 1124.82 1029.12 1107.76 1029.11C1095.11 1029.09 1082.04 1028.63 1069.44 1027.68C1058.77 1027.28 1048.17 1025.48 1037.5 1025.08C1013.21 1023.97 988.594 1025.43 963.993 1029.46C931.867 1035.05 899.972 1040.39 867.318 1043.45C858.331 1044.33 848.906 1045.24 839.711 1045.91" stroke="#DFE4E8" stroke-linecap="round" stroke-linejoin="round"/>
<path d="M950.394 1161.57C967.428 1156.75 984.709 1154.25 1001.81 1154.13C1017.57 1154.09 1033.18 1155.23 1048.54 1157.52C1068.04 1160.53 1087.84 1162.3 1107.82 1162.8C1128.02 1162.78 1148.44 1160.13 1168.64 1154.91C1186.08 1150.34 1203.23 1143.78 1219.78 1135.34C1232.13 1129.21 1243.93 1121.63 1254.94 1112.74C1262.23 1106.61 1269.51 1100.48 1276.59 1094.14C1281.62 1089.57 1286.46 1084.32 1291.51 1079.29C1303.48 1066.76 1315.47 1053.76 1327.65 1041.44C1333.39 1035.66 1339.96 1030.75 1346.14 1024.94C1353.8 1018.19 1362.24 1012.62 1371.18 1008.43C1386.83 1000.76 1403.9 999.528 1421.69 1005.94C1432.36 1010.34 1442.32 1016.21 1451.36 1023.4C1468.84 1035.91 1486.57 1047.7 1506.52 1054.42C1522.81 1060.16 1540.52 1061.82 1558.41 1059.31C1571.22 1057.36 1583.99 1054.33 1596.6 1050.25C1610.36 1045.52 1624.14 1040.32 1638.13 1035.35L1677.41 1022.01C1686 1019.81 1694.29 1015.79 1701.77 1010.21C1704.93 1007.26 1707.38 1003.54 1708.85 999.432C1712.67 990.251 1715.98 980.894 1718.76 971.414C1724.02 952.788 1731.6 934.726 1741.29 917.747C1746.78 908.249 1752.5 898.502 1758.41 889.441C1764.06 881.098 1770.13 873.193 1775.98 865.068C1783.02 855.226 1789.82 845.633 1797.07 836.009C1801.06 830.353 1805.9 825.103 1810.12 819.197C1814.81 812.792 1819.28 806.168 1823.76 799.544C1827.28 794.388 1830.79 789.701 1834.11 784.327C1839.84 776.254 1845.2 767.922 1850.19 759.363C1857.39 746.242 1863.95 732.933 1870.09 719.188C1881.11 693.322 1887.45 665.972 1888.72 638.734C1889.72 623.026 1890.08 607.132 1891.08 591.424C1891.08 582.061 1893.6 572.569 1898.34 564.064C1902.61 557.222 1908.65 554.218 1915.33 551.402C1924.67 547.927 1934.48 547.918 1944.32 547.44C1948.91 547.342 1953.49 547.244 1958.05 547.615C1959.57 547.738 1961.07 548.33 1962.8 548.672" stroke="#DFE4E8" stroke-linecap="round" stroke-linejoin="round"/>
<path d="M622.158 -372.146C640.223 -363.962 659.424 -358.296 679.337 -355.275C700.854 -352.624 722.919 -352.886 745.032 -356.054C760.034 -358.342 775.038 -359.348 789.899 -359.062C804.234 -358.702 817.775 -354.29 829.177 -346.265C840.236 -338.399 849.434 -328.035 856.229 -315.783C862.396 -303.86 868.355 -292.156 873.415 -279.92C877.9 -269.276 881.925 -258.133 889.107 -249.084C894.356 -242.423 901.588 -237.898 909.836 -236.113C920.866 -232.963 932.524 -231.835 944.351 -232.773C963.823 -233.947 983.502 -234.902 1003.04 -237.48C1032.47 -241.473 1061.74 -246.621 1091.19 -251.083C1108.34 -253.722 1125.46 -255.893 1142.79 -257.845C1157.67 -259.574 1172.39 -258.423 1186.25 -254.45C1196.88 -251.424 1206.67 -246.281 1215.15 -239.27C1228.14 -228.54 1236.17 -214.652 1242.84 -199.733C1251.68 -180.069 1257.17 -158.997 1264 -138.488C1272 -111.825 1283.12 -86.6936 1297.12 -63.6393C1302.49 -54.854 1308.65 -46.7077 1315.54 -39.3004C1320.72 -33.8408 1325.65 -27.6625 1331.29 -22.7028C1338.87 -16.0449 1346.87 -9.92158 1355.24 -4.36446C1374.52 7.81777 1395.9 16.3577 1418.54 20.9319C1433.35 24.434 1448.74 25.9087 1464.35 25.3232C1465.63 25.4019 1466.87 25.7069 1468.01 26.2256" stroke="#DFE4E8" stroke-linecap="round" stroke-linejoin="round"/>
<path d="M972.986 1185.38C994.283 1181.42 1015.63 1180.82 1036.33 1183.6C1056.28 1185.9 1076.24 1188.19 1096.47 1189.29C1117.93 1190.17 1139.75 1187.97 1161.36 1182.74C1178.64 1178.86 1195.76 1173.48 1212.55 1166.67C1230.16 1159.69 1247.12 1150.38 1263.01 1138.99C1272.54 1131.77 1281.87 1123.86 1290.98 1116.2C1296.91 1111.11 1302.42 1105.57 1308.14 1100.26C1316.14 1092.91 1324.16 1085.1 1332.37 1077.97C1342.64 1068.34 1353.99 1060.2 1366.08 1053.84C1384.2 1044.83 1403.64 1044.12 1423.73 1052.47C1437.83 1058.45 1451.67 1065.15 1465.75 1071.6C1484.02 1080.84 1503.77 1087.04 1524.38 1090C1544.01 1092.14 1564.14 1091.47 1584.24 1088.01C1602.03 1085.56 1619.87 1082.17 1638.35 1083.4C1652.87 1084.15 1666.43 1089.23 1677.54 1098.07C1683.35 1102.97 1688.62 1108.53 1693.28 1114.67C1698.63 1121.29 1703.5 1128.4 1708.38 1135.52" stroke="#DFE4E8" stroke-linecap="round" stroke-linejoin="round"/>
<path d="M441.079 -174.944C442.342 -169.668 443.398 -164.611 445.099 -159.366C451.697 -138.608 458.064 -117.598 465.537 -96.9026C472.644 -78.4675 481.016 -60.7477 490.591 -43.8733C499.174 -27.925 507.987 -12.2271 514.795 4.31617C521.603 20.8594 524.217 38.4058 519.02 55.1164C516.905 63.1497 513.003 70.7308 507.667 77.1727C504.602 81.4532 501.188 85.4513 497.473 89.1103C490.082 95.7698 482.341 101.942 474.301 107.586C455.717 120.175 436.094 130.597 415.818 138.648C408.487 141.956 400.889 144.232 393.231 145.413C384.22 146.764 377.402 143.523 374.461 132.535C371.152 120.172 368.281 107.778 365.617 95.6029C362.284 77.7799 356.597 60.8364 348.719 45.2516C344.183 36.185 338.257 28.1099 331.155 21.3179C322.469 12.8844 312.428 6.12958 301.399 1.29865C295.617 -0.850542 289.835 -2.99984 283.615 -5.1174" stroke="#DFE4E8" stroke-linecap="round" stroke-linejoin="round"/>
<path d="M426.553 -159.187C426.573 -157.692 426.719 -156.219 426.988 -154.784C432.824 -131.87 438.866 -108.738 444.702 -85.8233C449.981 -67.5734 456.767 -50.0298 464.986 -33.3829C470.507 -21.6472 476.236 -9.69286 481.296 2.5429C486.357 14.7787 488.536 27.9225 485.715 40.7277C484.777 45.6895 482.9 50.5115 480.202 54.8853C477.505 59.2592 474.047 63.0883 470.049 66.1285C463.47 71.6581 455.826 75.3544 447.92 76.8283C442.607 77.8859 437.28 77.7681 432.275 76.4827C427.27 75.1973 422.698 72.7727 418.846 69.3616C411.5 63.5916 407.105 55.5083 402.042 47.7066C395.965 38.3445 390.788 28.4504 384.712 19.0883C378.746 10.1682 371.755 2.13898 363.876 -4.84238C350.657 -15.8986 335.827 -24.7235 319.815 -31.0621C316.821 -32.2459 313.572 -32.7114 310.784 -33.6768" stroke="#DFE4E8" stroke-linecap="round" stroke-linejoin="round"/>
<path d="M568.344 220.507C573.301 217.349 578.257 214.19 583.19 211.5C588.526 208.265 594.434 206.624 600.222 206.769C603.372 206.84 606.384 207.658 609.046 209.165C610.617 210.388 611.769 212.116 612.364 214.142C612.959 216.168 612.972 218.407 612.402 220.591C611.692 224.352 610.164 227.983 607.946 231.18C599.701 243.606 587.572 252.617 574.193 256.255C569.498 257.654 564.687 257.428 560.483 255.612C558.531 254.54 556.955 252.879 555.924 250.808C554.716 248.286 554.237 245.364 554.54 242.373C554.844 239.382 555.918 236.441 557.642 233.882C560.917 229.444 564.838 225.194 568.32 220.975" stroke="#DFE4E8" stroke-linecap="round" stroke-linejoin="round"/>
<path d="M1042.36 102.253C1052.38 98.0287 1057.61 102.552 1063.09 110.79C1072.82 125.488 1079.86 141.781 1087.8 157.543C1095.74 173.304 1103.72 188.129 1111.89 203.641C1121.88 222.055 1132.33 239.969 1141.85 258.882C1148.02 270.805 1150.87 283.667 1146.96 296.317C1144.63 304.027 1139.77 310.868 1133.35 315.502C1128.92 319.067 1124.24 322.218 1119.36 324.914C1105.4 332.771 1090.33 337.293 1075.29 338.132C1066.42 338.717 1057.74 337.442 1049.74 334.378C1037.56 329.416 1027.93 319.788 1022.52 307.175C1017.12 294.666 1013.83 281.025 1012.76 266.809C1009.68 232.495 1013.5 199.548 1019.5 166.912C1022.26 149.847 1026.99 132.963 1033.57 116.656C1035.49 111.587 1038.41 106.911 1042.1 102.972" stroke="#DFE4E8" stroke-linecap="round" stroke-linejoin="round"/>
</svg>
