<svg width="32" height="32" viewBox="0 0 32 32" xmlns="http://www.w3.org/2000/svg"><path d="M16 31.3c8.45 0 15.3-6.85 15.3-15.3C31.3 7.55 24.45.7 16 .7 7.55.7.7 7.55.7 16c0 8.45 6.85 15.3 15.3 15.3zm0 .7C7.163 32 0 24.837 0 16S7.163 0 16 0s16 7.163 16 16-7.163 16-16 16z"/><path d="M7.65 7.876l.243-.078c2.376-.766 5.075-1.148 8.097-1.148 3.333 0 6.073.467 8.22 1.407l.21.091V19.33l-.026.13c-1.1 2.732-5.565 6.544-8.282 7.555l-.128.047-.126-.05c-3.84-1.56-6.571-4.192-8.179-7.884l-.029-.14V7.876zm.7 11.039c1.52 3.447 4.063 5.908 7.644 7.395 2.538-1.01 6.679-4.562 7.725-7.05V8.608c-2.018-.837-4.595-1.258-7.729-1.258-2.849 0-5.395.346-7.64 1.038v10.527z"/><path d="M15.65 7.15v19.7h.7V7.15z"/></svg>