<?xml version="1.0" encoding="UTF-8"?>
<svg width="32px" height="32px" viewBox="0 0 32 32" version="1.1" xmlns="http://www.w3.org/2000/svg" xmlns:xlink="http://www.w3.org/1999/xlink">
    <title>Artboard</title>
    <g id="Artboard" stroke="none" stroke-width="1" fill="none" fill-rule="evenodd">
        <g id="icon_menu_blog" transform="translate(0.759912, 1.000000)" fill="#000000" fill-rule="nonzero">
            <path d="M0.574930485,5.27847153 C0.876579562,5.27847153 1.12397015,5.51308338 1.14795509,5.81148255 L1.14986097,5.85910339 L1.14986097,23.1815872 C1.14986097,26.0555574 4.43934334,28.8387363 7.7869896,28.8387363 C11.3992691,28.8387363 14.4241183,25.8962491 14.4241183,22.1700559 C14.4241183,17.9133098 11.8308496,15.3000057 7.58665463,15.3000057 C7.2691293,15.3000057 7.01172414,15.040048 7.01172414,14.7193739 C7.01172414,14.3986998 7.2691293,14.138742 7.58665463,14.138742 C12.465845,14.138742 15.5739792,17.271899 15.5739792,22.1700559 C15.5739792,26.5480287 12.0264517,30 7.7869896,30 C3.86428915,30 0.0765070843,26.7961956 0.00114371277,23.2879868 L0,23.1815872 L0,5.85910339 C0,5.53842925 0.257405144,5.27847153 0.574930485,5.27847153 Z M7.81918631,0 C19.2807223,0 28.8077325,9.50125906 28.9971266,21.1282696 L29,21.4812463 L29,21.7393049 L27.850139,21.7393049 L27.850139,21.4812463 C27.850139,10.4475263 18.9428232,1.34495699 8.14690618,1.16400897 L7.81918631,1.16126373 L7.56366165,1.16126373 L7.56366165,0 L7.81918631,0 Z M7.81918631,6.7447136 C15.6994695,6.7447136 21.9814741,12.9612384 22.1063262,20.8701114 L22.1082202,21.1102876 L22.1082202,21.3683462 L20.9583593,21.3683462 L20.9583593,21.1102876 C20.9583593,13.8041961 15.2612166,8.02262128 8.03851862,7.90772039 L7.81918631,7.90597733 L7.56366165,7.90597733 L7.56366165,6.7447136 L7.81918631,6.7447136 Z" id="Shape"></path>
        </g>
    </g>
</svg>