<svg width="32" height="32" viewBox="0 0 32 32" xmlns="http://www.w3.org/2000/svg"><path d="M16 31.3c8.45 0 15.3-6.85 15.3-15.3C31.3 7.55 24.45.7 16 .7 7.55.7.7 7.55.7 16c0 8.45 6.85 15.3 15.3 15.3zm0 .7C7.163 32 0 24.837 0 16S7.163 0 16 0s16 7.163 16 16-7.163 16-16 16z"/><path d="M10.15 10.1h11.7l2.108 15.628H8.042L10.15 10.1zm.7.8L8.958 24.928h14.084L21.15 10.9h-10.3z"/><path d="M12.9 12.548h-.8l.004-5.014c.256-1.707 1.652-2.586 4.04-2.641 2.426-.057 3.736 1.076 3.756 3.296v4.797h-.8V8.193c-.016-1.749-.938-2.547-2.938-2.5-2.04.047-3.078.7-3.262 1.9v4.955z"/></svg>