<svg xmlns="http://www.w3.org/2000/svg" width="32" height="32" viewBox="0 0 32 32"><g fill="none" fill-rule="evenodd"><path fill="#FFF" fill-opacity=".01" fill-rule="nonzero" d="M16 32c1.285 0 2.534-.151 3.732-.438C26.768 29.882 32 23.552 32 16c0-8.837-7.163-16-16-16S0 7.163 0 16s7.163 16 16 16z"/><path fill="#000" d="M29.25.037V16.5s0 .375-.375.375-.375-.375-.375-.375l-.038-11.213H6.112c-.675 0-1.275-.037-1.875-.375A2.582 2.582 0 013.75 4.5l-.037 23.689v.273c0 1.538.9 2.326 2.662 2.326H28.5v-.675s.038-.3.375-.3.375.3.375.3v1.425H6.375C4.2 31.538 3 30.413 3 28.65V2.663l.005-.172C3.095 1.078 4.294.037 5.7.037h23.55zM18 12.3c.262 0 .488.075.75.225l11.587 6.562c.188.113.375.226.488.375.113.15.188.338.188.526 0 .262-.15.45-.3.6-.188.15-.376.224-.638.3l-1.725.45c-.263.075-.6.187-.9.374l3.45 3.863.105.143c.23.337.34.71.308 1.17 0 .524-.226 1.012-.638 1.387-.338.338-.788.488-1.238.488a1.92 1.92 0 01-1.387-.638l-3.338-3.712c-.262.375-.524.787-.712 1.087l-1.2 2.1c-.113.225-.225.375-.375.487a.896.896 0 01-.525.188c-.262 0-.45-.15-.6-.3-.15-.188-.225-.375-.3-.638L17.287 13.65l-.027-.134a1.765 1.765 0 01-.047-.354c0-.225.037-.412.187-.6.15-.187.375-.262.6-.262zm.037.675H18v.213c.002.07.01.162.037.274L21.75 27.15l.028.1c.028.087.056.144.085.2l.075.075.075-.037c.074-.038.15-.113.224-.263l1.2-2.1.14-.234c.248-.402.56-.866.873-1.303a.316.316 0 01.262-.15c.113 0 .226.037.3.112l3.638 4.05c.225.262.563.375.863.375.262 0 .524-.113.75-.3.224-.225.374-.563.374-.863 0-.262-.112-.524-.3-.75l-3.75-4.2c-.075-.074-.075-.187-.075-.3 0-.112.075-.187.15-.262.488-.3.976-.563 1.463-.675l1.725-.45a1.27 1.27 0 00.3-.113l.075-.075-.038-.074c-.037-.076-.112-.15-.262-.226l-11.513-6.562c-.187-.113-.337-.15-.374-.15zm-3.15 1.2c.188-.038.376.112.413.3.038.188-.112.375-.3.412l-2.175.375c-.187.038-.375-.112-.412-.3-.038-.187.112-.374.3-.412zM20.326 8.4c.075-.188.3-.3.488-.188.187.075.262.3.187.488l-.825 2.063c-.075.187-.3.262-.487.187-.188-.075-.263-.3-.188-.487zm-5.962.188c.15-.15.412-.113.525.037l1.387 1.725c.15.15.113.412-.037.525-.15.15-.375.113-.525-.037l-1.388-1.725c-.15-.15-.112-.413.038-.525zM28.5.788H5.813C4.725.787 3.75 1.5 3.75 2.662v.075c0 .075 0 .225.038.338.187.9 1.012 1.462 1.95 1.462H28.5V.787z"/></g></svg>