<svg xmlns="http://www.w3.org/2000/svg" width="29" height="32" viewBox="0 0 29 32"><path d="M26.353 30.23s-.038-.3-.377-.3c-.338 0-.376.3-.376.3v.678H3.388c-1.77 0-2.673-.79-2.673-2.334L.753 4.518c.15.15.301.3.49.414.602.339 1.204.376 1.882.376h22.437l.038 11.257s0 .376.376.376c.377 0 .377-.376.377-.376V.038H2.71C1.242.038 0 1.168 0 2.673v26.09c0 1.769 1.205 2.898 3.388 2.898h22.965v-1.43zM2.823.79H25.6v3.765H2.748c-.94 0-1.77-.564-1.957-1.468-.038-.113-.038-.263-.038-.339v-.075c0-1.167.979-1.882 2.07-1.882z"/><path d="M28.01 25.675l-3.464-3.877c.301-.189.64-.302.903-.377l1.732-.452c.264-.075.452-.15.64-.3.15-.151.301-.34.301-.603a.9.9 0 00-.188-.527c-.113-.15-.301-.264-.49-.377l-11.632-6.588c-.264-.15-.49-.226-.753-.226-.226 0-.452.076-.603.264-.15.188-.188.376-.188.602 0 .15.038.301.076.49l3.727 13.74c.075.264.15.452.3.64.151.151.34.302.603.302a.9.9 0 00.527-.188c.15-.113.264-.264.377-.49l1.204-2.108c.189-.301.452-.715.716-1.092l3.35 3.727c.377.414.904.64 1.393.64.452 0 .904-.15 1.243-.49.414-.376.64-.865.64-1.392a1.794 1.794 0 00-.415-1.318zm-.64 2.109c-.226.188-.49.3-.754.3-.3 0-.64-.112-.865-.376l-3.652-4.066a.427.427 0 00-.301-.113.317.317 0 00-.264.151 21.472 21.472 0 00-1.016 1.544l-1.205 2.108c-.075.15-.15.226-.226.263l-.075.038-.076-.075a1.274 1.274 0 01-.112-.302l-3.728-13.74c-.037-.151-.037-.264-.037-.34v-.15h.037c.038 0 .189.038.377.15l11.558 6.589c.15.075.225.15.263.226l.038.075-.076.075c-.075.038-.15.075-.3.113l-1.732.452c-.49.113-.98.376-1.469.678-.075.075-.15.15-.15.263 0 .113 0 .226.075.301l3.765 4.217c.188.226.3.49.3.753 0 .3-.15.64-.376.866zM13.29 10.918c.15-.113.188-.377.037-.527l-1.393-1.732c-.113-.15-.376-.188-.527-.038-.15.113-.188.377-.038.527l1.393 1.732c.15.15.377.188.527.038zm-1.243 4.028c.188-.038.339-.226.301-.414-.037-.188-.226-.34-.414-.301l-2.183.376c-.189.038-.34.226-.302.414.038.188.226.339.415.301l2.183-.376zm5.346-6.513l-.828 2.07c-.076.189 0 .415.188.49.188.075.414 0 .49-.188l.828-2.07c.075-.19 0-.415-.189-.49-.188-.113-.414 0-.49.188z"/></svg>