<?xml version="1.0" encoding="UTF-8"?>
<svg width="40px" height="40px" viewBox="0 0 40 40" version="1.1" xmlns="http://www.w3.org/2000/svg" xmlns:xlink="http://www.w3.org/1999/xlink">
    <title>icon_menu_platform_developers_b</title>
    <g id="icon_menu_platform_developers_b" stroke="none" stroke-width="1" fill="none" fill-rule="evenodd">
        <g id="Group-72" transform="translate(4.000000, 4.000000)" fill="#000000" fill-rule="nonzero">
            <path d="M14.1408625,7.3000284 C14.6739971,7.29889895 15.1797914,7.61685886 15.3920803,8.14163163 L15.3920803,8.14163163 L15.506266,8.42465961 C15.6723177,8.41394186 15.8387715,8.39846067 16.0040191,8.39846067 C16.2126894,8.39846067 16.4185453,8.41989617 16.6239991,8.43775908 L16.6239991,8.43775908 L16.745824,8.15354024 C16.9641438,7.63988217 17.4635051,7.33343393 17.9873923,7.33343393 C18.1630935,7.33343393 18.3416091,7.36757194 18.5120835,7.44021447 L18.5120835,7.44021447 L20.271106,8.18728131 C20.7845395,8.40679669 21.0925192,8.90656139 21.0925192,9.43133416 C21.0925192,9.60480292 21.0583439,9.78343208 20.9859727,9.95451912 L20.9859727,9.95451912 L20.8657561,10.2367532 C21.1459935,10.4808797 21.407334,10.7468387 21.6493754,11.0334392 L21.6493754,11.0334392 L21.9320252,10.9199105 C22.0968708,10.8532223 22.2685513,10.8218629 22.4366134,10.8218629 C22.9693459,10.8218629 23.4751402,11.1390289 23.6874291,11.6641986 L23.6874291,11.6641986 L24.4043061,13.4381847 C24.4690382,13.6009357 24.5,13.7712288 24.5,13.9403311 C24.5008011,14.4718521 24.1843781,14.9767772 23.6604909,15.1903382 L23.6604909,15.1903382 L23.3762329,15.3046609 C23.3874906,15.4717784 23.4035731,15.6396898 23.4035731,15.8064104 C23.4035731,16.0136202 23.3826659,16.2188452 23.3649752,16.4240703 L23.3649752,16.4240703 L23.6456146,16.5447442 C24.1602543,16.7626718 24.4674299,17.2620395 24.4674299,17.7876062 C24.4674299,17.961075 24.4340587,18.1389102 24.3620896,18.3103942 L24.3620896,18.3103942 L23.6150579,20.0700899 C23.3955319,20.5825571 22.8953664,20.8905932 22.369871,20.8905932 C22.195376,20.8905932 22.0168604,20.8556613 21.846386,20.7838126 L21.846386,20.7838126 L21.5645403,20.6635357 C21.3200864,20.943785 21.0539212,21.2053775 20.7672508,21.4483131 L20.7672508,21.4483131 L20.8802303,21.7329289 C20.9473747,21.8968708 20.9791376,22.0683548 20.9791376,22.2366631 C20.9791376,22.769375 20.6607043,23.2743001 20.1368172,23.4858764 L20.1368172,23.4858764 L18.3637226,24.2023778 C18.2000832,24.2682721 18.0296088,24.3000284 17.8623509,24.3000284 C17.3292163,24.3000284 16.823422,23.9816715 16.6115352,23.4576927 L16.6115352,23.4576927 L16.4961433,23.1742677 C16.3312978,23.1849855 16.1664523,23.2000697 16.0016067,23.2000697 C15.7925343,23.2000697 15.5858743,23.1782373 15.3784102,23.1607713 L15.3784102,23.1607713 L15.2569874,23.446578 C15.0370593,23.9586482 14.5381001,24.2658904 14.0134088,24.2658904 C13.8389138,24.2658904 13.6599961,24.2309585 13.4907278,24.1591098 L13.4907278,24.1591098 L11.7317054,23.41244 C11.2178698,23.1929246 10.9098901,22.6935568 10.9098901,22.1707688 C10.9098901,21.9937275 10.9460757,21.8147014 11.018849,21.6444082 L11.018849,21.6455991 L11.1374574,21.363762 C10.85722,21.1188416 10.5954774,20.8532795 10.3526318,20.5642973 L10.3526318,20.5642973 L10.0679717,20.6802077 C9.90433238,20.746499 9.73224973,20.7778583 9.56539389,20.7778583 C9.03185725,20.7778583 8.52646498,20.4598984 8.31457816,19.9347287 L8.31457816,19.9347287 L8.31578435,19.9359196 L7.59890732,18.1631244 C7.53176292,17.9991825 7.5,17.8269046 7.5,17.6597871 C7.5,17.1266783 7.81883538,16.6209593 8.34473283,16.4077952 L8.34473283,16.4077952 L8.62698055,16.2938695 C8.61612486,16.1283398 8.59964031,15.9616193 8.59964031,15.7964865 C8.59964031,15.5884828 8.62175374,15.3824638 8.63944448,15.1760479 L8.63944448,15.1760479 L8.35599058,15.0565649 C7.84135087,14.8366525 7.53457736,14.3364909 7.53457736,13.812909 C7.53457736,13.6374554 7.56995884,13.4588263 7.64192798,13.289327 L7.64192798,13.289327 L8.38895968,11.5308222 C8.60607331,11.0155763 9.10784702,10.7087311 9.6313321,10.709525 C9.80622919,10.709525 9.9851469,10.74406 10.1556213,10.8159086 L10.1556213,10.8159086 L10.437467,10.9353917 C10.6819208,10.6559363 10.948086,10.3947408 11.2363647,10.1514081 L11.2363647,10.1514081 L11.1209728,9.86838017 C11.0538284,9.70324743 11.0228696,9.53176344 11.0228696,9.36504289 C11.0228696,8.83193409 11.3409009,8.32581814 11.8651901,8.11305097 L11.8651901,8.11305097 L13.6374806,7.39893128 C13.8011199,7.33144916 13.9728005,7.29889895 14.1408625,7.3000284 Z M14.1079361,7.9500284 C14.0363755,7.9500284 13.9652237,7.96416163 13.8969344,7.99162048 L13.8969344,7.99162048 L13.8952987,7.9928319 L12.0919701,8.72049136 C11.8695187,8.80892501 11.73294,9.02698056 11.73294,9.25553509 C11.73294,9.32700885 11.7456165,9.3972712 11.7746497,9.46793735 L11.7746497,9.46793735 L11.9971011,10.0187295 C12.0641637,10.1830788 12.01264,10.3728679 11.87279,10.4822995 C11.4540579,10.80696 11.0835782,11.1752316 10.754808,11.5798458 C10.6423556,11.7179476 10.4538444,11.7655968 10.2902771,11.6957383 L10.2902771,11.6957383 L9.7439626,11.4639533 C9.66994843,11.433264 9.59634318,11.418727 9.52151117,11.418727 C9.2957884,11.418727 9.08151534,11.5511755 8.9923712,11.7664044 L8.9923712,11.7664044 L8.99196229,11.7676158 L8.23096578,13.5576904 C8.199888,13.6319908 8.18557587,13.7066951 8.18557587,13.7801879 C8.18557587,14.0047043 8.31724749,14.2199332 8.53520081,14.3115973 L8.53520081,14.3115973 L9.0827421,14.5433823 C9.24630932,14.6124332 9.34485857,14.7828396 9.32236808,14.9597069 C9.28761004,15.2355068 9.27002657,15.5161524 9.27002657,15.7976056 C9.27002657,16.0394857 9.28229411,16.2817697 9.30846486,16.523246 C9.32768401,16.6997095 9.22709017,16.869712 9.06188727,16.9359363 L9.06188727,16.9359363 L8.51025681,17.1580299 C8.28780539,17.2472712 8.15081784,17.4645191 8.15,17.6914584 C8.15,17.7629322 8.16390321,17.8335984 8.19089181,17.9022455 L8.19089181,17.9022455 L8.19211856,17.9042645 L8.92121946,19.7088761 C9.00831901,19.9297583 9.22627233,20.0666488 9.45444861,20.0678602 C9.52519144,20.0670526 9.59552534,20.0545346 9.667086,20.0258643 L9.667086,20.0258643 L10.2191254,19.8029631 C10.3843283,19.7355274 10.5740663,19.7872146 10.6828385,19.9277393 C11.0071105,20.3472943 11.3751367,20.719604 11.7799656,21.0430531 C11.9185888,21.1545037 11.9652055,21.3455042 11.8973251,21.5090459 L11.8973251,21.5090459 L11.6658775,22.0562038 C11.6339819,22.1329271 11.6196697,22.2064199 11.6196697,22.2807203 C11.6200787,22.5048329 11.7509324,22.7188504 11.9701125,22.8109183 L11.9701125,22.8109183 L13.759129,23.5704785 C13.8319164,23.6015716 13.9051128,23.6157048 13.9791269,23.6157048 C14.2028051,23.6157048 14.4195317,23.4832563 14.512765,23.2647969 L14.5115383,23.2656045 L14.7438037,22.7184466 C14.8133198,22.5545011 14.9834297,22.4563761 15.1600823,22.4785855 C15.4381466,22.5141205 15.7190733,22.5314842 16.0012268,22.5314842 C16.2416706,22.5314842 16.4825233,22.51937 16.7246028,22.4927187 C16.9016643,22.4741436 17.0693207,22.5746915 17.1355655,22.7390407 L17.1355655,22.7390407 L17.3588347,23.2898329 C17.4475699,23.5119265 17.66675,23.6500284 17.8945174,23.6500284 C17.9644424,23.6500284 18.0355941,23.6367028 18.1067458,23.6080325 L18.1067458,23.6080325 L19.9100745,22.8791616 C20.1325259,22.7911318 20.2674689,22.5746915 20.2682867,22.3473484 C20.2682867,22.2766822 20.2547924,22.203997 20.2257592,22.1321195 L20.2257592,22.1321195 L20.0045346,21.5813273 C19.9382898,21.4157666 19.9885868,21.2279965 20.1304813,21.1185649 C20.5479867,20.792693 20.9221467,20.4240176 21.2439652,20.02223 C21.3555998,19.8829168 21.5469735,19.83446 21.7109496,19.9039147 L21.7109496,19.9039147 L22.2584909,20.1369111 C22.3308694,20.1667928 22.4048836,20.180926 22.4793067,20.180926 C22.7054383,20.180926 22.9209382,20.0484775 23.0129447,19.8320371 L23.0129447,19.8320371 L23.7723056,18.0423664 C23.8017477,17.9712964 23.8164687,17.8965922 23.8164687,17.8214842 C23.8164687,17.5973715 23.6831614,17.3801236 23.4672527,17.2904785 L23.4672527,17.2904785 L23.465617,17.2892671 L22.9205292,17.0562707 C22.7561442,16.986816 22.6588217,16.8172172 22.6813122,16.6403499 C22.7168881,16.3653576 22.7336537,16.0871349 22.7336537,15.8068931 C22.7336537,15.5646092 22.7201594,15.32071 22.6939886,15.0768108 C22.6747695,14.8999435 22.7765901,14.73196 22.9405662,14.6645243 L22.9405662,14.6645243 L23.4921967,14.4416231 C23.7134214,14.3535932 23.85,14.1355377 23.85,13.9081946 C23.85,13.8375284 23.8365057,13.7644394 23.8074725,13.6913504 L23.8074725,13.6913504 L23.8074725,13.6937733 L23.0808251,11.8899692 C22.9937256,11.6702985 22.7741366,11.5321966 22.5463692,11.5321966 C22.4735818,11.5321966 22.4024301,11.5455222 22.3341408,11.5729811 L22.3341408,11.5729811 L22.3320962,11.5741925 L21.7812835,11.7962861 C21.6164896,11.8625104 21.4275694,11.8116308 21.3183883,11.6715099 C20.9941163,11.2527625 20.6256811,10.8796452 20.2224879,10.5553885 C20.0830468,10.4447455 20.0356123,10.2529374 20.1051284,10.0889919 L20.1051284,10.0889919 L20.3369849,9.54344918 C20.3676538,9.47036019 20.3819659,9.39686739 20.3819659,9.32135556 C20.3819659,9.09764671 20.2478408,8.88080258 20.032341,8.78954229 L20.032341,8.78954229 L18.2425066,8.02917449 C18.1693103,7.998889 18.0952961,7.98435196 18.0204641,7.98435196 C17.7959681,7.98435196 17.5812861,8.11639671 17.4905063,8.33202943 L17.4905063,8.33202943 L17.4905063,8.33445227 L17.2570141,8.88120638 C17.1870891,9.04515186 17.0177971,9.14246924 16.8407355,9.12025988 C16.5647158,9.08553252 16.284607,9.06736122 16.0032713,9.06736122 C15.7628275,9.06736122 15.5199302,9.08109064 15.276624,9.10653046 C15.1003803,9.12591317 14.9335417,9.02496153 14.8664791,8.86061225 L14.8664791,8.86061225 L14.642801,8.30901245 C14.5540657,8.08772645 14.3352946,7.9500284 14.1079361,7.9500284 Z M15.9811015,12.1210923 C17.9877943,12.1210923 19.6149404,13.7470146 19.6149404,15.7548064 C19.6149404,17.7614073 17.9877943,19.3885204 15.9811015,19.3885204 C13.9740067,19.3885204 12.3464586,17.7618042 12.3464586,15.7548064 C12.3464586,13.7474116 13.9740067,12.1210923 15.9811015,12.1210923 Z M15.97,12.8500284 C14.3703384,12.8500284 13.07,14.1510724 13.07,15.7500284 C13.07,17.3481771 14.3703384,18.6500284 15.97,18.6500284 C17.5688438,18.6500284 18.87,17.3481771 18.87,15.7500284 C18.87,14.1510724 17.5688438,12.8500284 15.97,12.8500284 Z" id="Combined-Shape"></path>
            <path d="M32.8983816,31.4196127 L24.9054551,23.5545045 C27.2158254,21.0534168 28.6247932,17.7303947 28.6247932,14.0832345 C28.6247932,6.30564707 22.2180963,0 14.3122211,0 C6.40564387,0 0,6.30564707 0,14.0832345 C0,21.8618597 6.40564387,28.1678527 14.3122211,28.1678527 C18.2628771,28.1678527 21.8393529,26.5928246 24.4291299,24.0464197 L32.410122,31.9001122 C32.5452621,32.0332959 32.7635925,32.0332959 32.8983816,31.9001122 C33.0338728,31.7676202 33.0338728,31.5521046 32.8983816,31.4196127 Z M14.3122211,27.4880964 C6.80123599,27.4880964 0.69009238,21.4747618 0.69009238,14.0832345 C0.69009238,6.69239896 6.80088498,0.679756226 14.3122211,0.679756226 C21.8225042,0.679756226 27.9336478,6.69239896 27.9336478,14.0832345 C27.9332968,21.4747618 21.8225042,27.4880964 14.3122211,27.4880964 Z" id="Shape"></path>
        </g>
    </g>
</svg>