<svg width="32" height="32" viewBox="0 0 32 32" xmlns="http://www.w3.org/2000/svg"><path d="M16.784 2.897L3.58 16.102a2.82 2.82 0 000 3.988l8.508 8.508a2.82 2.82 0 003.988 0L29.28 15.393a2.82 2.82 0 00.824-1.871l.386-8.895a2.82 2.82 0 00-2.94-2.94l-8.894.387a2.82 2.82 0 00-1.872.823zM4.377 16.9L17.582 3.695c.3-.3.7-.476 1.123-.494l8.894-.387a1.692 1.692 0 011.764 1.617l.002.074-.388 8.968a1.692 1.692 0 01-.494 1.123L15.278 27.8c-.661.66-1.732.66-2.393 0l-8.508-8.508a1.692 1.692 0 010-2.393z"/><path d="M20.187 6.939a3.572 3.572 0 105.052 5.052 3.572 3.572 0 00-5.052-5.052zm.798.798a2.444 2.444 0 113.456 3.456 2.444 2.444 0 01-3.456-3.456z"/></svg>