<svg xmlns="http://www.w3.org/2000/svg" width="32" height="32" viewBox="0 0 32 32"><g fill="none"><path fill="#FFF" fill-opacity=".01" d="M16 32c1.285 0 2.534-.151 3.732-.438C26.768 29.882 32 23.552 32 16c0-8.837-7.163-16-16-16S0 7.163 0 16s7.163 16 16 16z"/><path fill="#000" d="M27.46 9.05h-5.13V6.73a.51.51 0 00-.5-.5h-11a.5.5 0 00-.5.5v2.32H5.2a1.45 1.45 0 00-1.44 1.45v13.9a1.44 1.44 0 001.44 1.44h22.26a1.44 1.44 0 001.44-1.44V10.5a1.45 1.45 0 00-1.44-1.45zM11.34 7.23h10v1.82h-10V7.23zM27.82 24.4a.36.36 0 01-.36.37H5.2a.36.36 0 01-.36-.37V20h9.67v2.39a.5.5 0 00.5.5h2.65a.5.5 0 00.5-.5V20h9.66v4.4zm-12.31-2.52V20h1.65v1.89l-1.65-.01zm12.31-2.79h-23V10.5a.36.36 0 01.36-.37h22.28a.36.36 0 01.36.37v8.59z"/></g></svg>