<svg xmlns="http://www.w3.org/2000/svg" width="32" height="32" viewBox="0 0 32 32"><g fill="none"><path fill="#FFF" fill-opacity=".01" d="M16 32c1.285 0 2.534-.151 3.732-.438C26.768 29.882 32 23.552 32 16c0-8.837-7.163-16-16-16S0 7.163 0 16s7.163 16 16 16z"/><circle cx="16" cy="15.5" r="14.5"/><path fill="#000" d="M16 22.72l6.36 3.56-1.21-7.54 5.18-5.37-7.16-1.1L16 5.45l-3.17 6.82-7.16 1.1 5.18 5.37-1.21 7.54L16 22.72zm-7.74 5.53l1.47-9.16-6.22-6.45 8.61-1.32L16 3l3.88 8.37 8.61 1.32-6.22 6.45 1.47 9.16L16 23.93l-7.74 4.32z"/></g></svg>