<svg id="Vrstva_1" data-name="Vrstva 1" xmlns="http://www.w3.org/2000/svg" width="40" height="40" viewBox="0 0 40 40"><defs><style>.cls-1{fill:#1d1d1b;}</style></defs><path id="Icon-Docs-_-APIs" data-name="Icon-Docs-&amp;-APIs" class="cls-1" d="M33.531,2l0,11.77a.4219.4219,0,0,1-.8438,0h0l-.0422-5.8641H7.5016a4.0394,4.0394,0,0,1-2.1094-.4218A2.9038,2.9038,0,0,1,4.8438,7.02h0L4.8016,33.9781c0,1.73,1.0125,2.6157,2.9953,2.6157H32.6875v-.7594s.1181-.3375.4219-.3375a.4009.4009,0,0,1,.4219.3375h0v1.6031H7.7969C5.35,37.4375,4,36.1719,4,34.1891H4V4.9531A2.98,2.98,0,0,1,7.0375,2H33.531ZM26.0577,15.4578a1.5057,1.5057,0,0,1,1.34.821l.0606.1331.1278.3208c.1858-.0121.3721-.03.557-.03.1557,0,.31.0108.4638.024l.23.0206.1363-.3222.0611-.1288a1.5077,1.5077,0,0,1,1.3285-.8009,1.4837,1.4837,0,0,1,.4427.0674l.1446.0536,1.9687.8469a1.5387,1.5387,0,0,1,.8529,1.856l-.0528.1461v.0013l-.1345.32a8.1772,8.1772,0,0,1,.67.6639l.2072.2392.3186-.1291a1.4764,1.4764,0,0,1,.5625-.1107,1.5078,1.5078,0,0,1,1.3394.8217l.0606.1332.801,2.0092a1.5478,1.5478,0,0,1,.1084.5711,1.5313,1.5313,0,0,1-.8085,1.3554l-.1311.0616-.3181.13c.0126.1895.0305.38.0305.5688,0,.1566-.01.3122-.0231.4675l-.02.2327.3172.1368A1.5424,1.5424,0,0,1,37.55,27.792l-.0525.1462V27.94l-.836,1.9949a1.5159,1.5159,0,0,1-1.3937.93,1.4822,1.4822,0,0,1-.4413-.0677l-.1446-.0533-.3155-.1364a8.3063,8.3063,0,0,1-.656.6792l-.2363.21.1264.3226A1.5345,1.5345,0,0,1,32.9,33.7455l-.1312.0611-1.9845.8123a1.4855,1.4855,0,0,1-.5612.1107,1.5091,1.5091,0,0,1-1.34-.822l-.06-.1329-.1292-.3213c-.1845.0121-.369.0292-.5534.0292-.156,0-.3109-.011-.4655-.0242l-.2321-.02-.1345.3226a1.5165,1.5165,0,0,1-1.3932.93,1.4791,1.4791,0,0,1-.4411-.0678L25.33,34.57l-1.9688-.8464a1.5323,1.5323,0,0,1-.8512-1.8579l.0534-.1451.1328-.32a8.2065,8.2065,0,0,1-.6706-.6655l-.2079-.2408-.3185.1314a1.485,1.485,0,0,1-.5625.1107,1.5074,1.5074,0,0,1-1.34-.8226l-.06-.1332.0014.0014-.8024-2.01a1.5363,1.5363,0,0,1,.7031-1.9284l.1317-.0615.3158-.1292c-.0121-.1876-.03-.3766-.03-.5638,0-.1572.0109-.3134.0242-.4694l.02-.234-.3172-.1354a1.537,1.537,0,0,1-.852-1.8576l.0528-.1458.837-1.9953.0606-.1288a1.4995,1.4995,0,0,1,1.7711-.7331l.1446.0532.3155.1355a8.299,8.299,0,0,1,.6568-.6781l.2373-.2107-.1291-.3208a1.5408,1.5408,0,0,1,.7017-1.9285l.1312-.0614,1.9859-.8109A1.4406,1.4406,0,0,1,26.0577,15.4578Zm0,.8875a.6042.6042,0,0,0-.1561.0207l-.0761.0256-.0018.0014-1.9845.8109a.6417.6417,0,0,0-.3951.5962.6262.6262,0,0,0,.02.1581l.0261.0786.2448.6138a.4479.4479,0,0,1-.1368.5166,7.5686,7.5686,0,0,0-1.23,1.2231.4345.4345,0,0,1-.4327.1546L21.856,20.52l-.6012-.2583a.6244.6244,0,0,0-.2448-.05.6319.6319,0,0,0-.5393.3019l-.043.0855-.0005.0014L19.59,22.5944a.6478.6478,0,0,0,.2494.7957l.0854.0445.6026.2583a.4444.4444,0,0,1,.2637.4639,7.6759,7.6759,0,0,0-.0154,1.7424.4472.4472,0,0,1-.1979.4215l-.0734.0384-.6071.2475a.645.645,0,0,0-.3964.5945.6338.6338,0,0,0,.02.1577l.0249.0772.0013.0022.8024,2.0111a.6251.6251,0,0,0,.7424.3794l.0784-.0262.6075-.2484a.4337.4337,0,0,1,.51.1391,7.2721,7.2721,0,0,0,1.2073,1.2429.4493.4493,0,0,1,.1536.44l-.0244.08-.2547.61a.6456.6456,0,0,0,.249.7965l.0858.0446,1.9688.8464a.6009.6009,0,0,0,.2421.05.6413.6413,0,0,0,.5426-.3043l.0432-.0858.2556-.61a.4378.4378,0,0,1,.4582-.2673,7.32,7.32,0,0,0,1.7216.0158.4363.4363,0,0,1,.4145.2l.0378.074.2457.6138a.6377.6377,0,0,0,.59.4014.6006.6006,0,0,0,.1553-.02l.0782-.0263,1.9846-.8123a.6413.6413,0,0,0,.3737-.7522l-.0263-.08-.2435-.6138a.4448.4448,0,0,1,.1386-.5157A7.4581,7.4581,0,0,0,33.91,29.7985a.4375.4375,0,0,1,.4351-.1571l.0789.0252.6025.26a.6253.6253,0,0,0,.243.049.64.64,0,0,0,.5432-.3028l.0441-.086.8351-1.9935a.6495.6495,0,0,0-.2505-.7949l-.0847-.0439-.0018-.0013-.6-.26a.4426.4426,0,0,1-.2633-.4635,7.3356,7.3356,0,0,0,.0576-.9288,7.7258,7.7258,0,0,0-.0437-.8136.4476.4476,0,0,1,.1984-.4206l.073-.0388.6071-.2484a.6443.6443,0,0,0,.3732-.7548l-.0263-.0813v.0027l-.8-2.01a.6357.6357,0,0,0-.5882-.3987.6177.6177,0,0,0-.1574.02l-.0762.0254-.0022.0013-.6061.2475a.4352.4352,0,0,1-.5094-.139,7.3992,7.3992,0,0,0-1.2061-1.2438.446.446,0,0,1-.1541-.44l.025-.08.2551-.6079a.6372.6372,0,0,0,.05-.2475.653.653,0,0,0-.3-.5482l-.0846-.0445-1.97-.8473a.6253.6253,0,0,0-.2443-.05.635.635,0,0,0-.54.3018l-.0436.0857v.0027l-.2569.6093a.4372.4372,0,0,1-.4582.2664,7.2968,7.2968,0,0,0-.9216-.059,7.5912,7.5912,0,0,0-.8.0437.4338.4338,0,0,1-.4133-.2l-.0381-.074-.2461-.6147A.6369.6369,0,0,0,26.0572,16.3453Zm2.06,4.5778a4.12,4.12,0,1,1-4.068,4.1193A4.0929,4.0929,0,0,1,28.1173,20.9231Zm0,.8865a3.2331,3.2331,0,1,0,3.1914,3.2328A3.2156,3.2156,0,0,0,28.1173,21.81Zm4.57-18.9658H7.1641a2.1661,2.1661,0,0,0-2.32,2.1093h0v.0844a1.3041,1.3041,0,0,0,.0421.38A2.1507,2.1507,0,0,0,7.08,7.0625H32.6872l0-4.2187Z"/></svg>