<svg xmlns="http://www.w3.org/2000/svg" width="32" height="32" viewBox="0 0 32 32"><g fill="none"><path fill="#FFF" fill-opacity=".01" d="M16 32c8.837 0 16-7.164 16-16 0-8.837-7.163-16-16-16C7.164 0 0 7.163 0 16a15.87 15.87 0 0016 16z"/><path fill="#000" d="M28.698 9.181a.531.531 0 00-.555.112l-2.56 2.509V2.509a.508.508 0 00-.283-.457.491.491 0 00-.534.061L19.363 6.42a.52.52 0 00-.192.396v5.393l-2.167 2.254V9.618a.508.508 0 00-.857-.365l-5.322 5.26V9.618a.488.488 0 00-.303-.457.511.511 0 00-.544.092L4.16 14.696a.52.52 0 00-.161.376v14.42c0 .28.226.508.504.508h23.992a.506.506 0 00.504-.508V9.618a.518.518 0 00-.302-.437zM20.179 7.07l4.396-3.544v9.251l-1.734 1.707V9.618a.518.518 0 00-.313-.467.491.491 0 00-.554.122l-1.795 1.858V7.07zm7.783 21.844H5.008v-13.67l4.809-4.438v4.905a.501.501 0 00.857.366l5.352-5.23v4.864a.498.498 0 00.313.468c.19.077.408.033.554-.112l5.02-5.16v4.804c0 .205.12.391.308.47.187.08.404.04.55-.104l5.19-5.22v18.056z"/><rect width="3" height="3" x="8" y="22" fill="#000" rx=".5"/><rect width="3" height="3" x="16" y="22" fill="#000" rx=".5"/><rect width="3" height="3" x="22" y="22" fill="#000" rx=".5"/></g></svg>