<svg width="32" height="32" viewBox="0 0 32 32" xmlns="http://www.w3.org/2000/svg"><g fill="none" fill-rule="evenodd"><path d="M16 31.3c8.45 0 15.3-6.85 15.3-15.3C31.3 7.55 24.45.7 16 .7 7.55.7.7 7.55.7 16c0 8.45 6.85 15.3 15.3 15.3zm0 .7C7.163 32 0 24.837 0 16S7.163 0 16 0s16 7.163 16 16-7.163 16-16 16z" fill="#000" fill-rule="nonzero"/><g stroke="#000" stroke-width=".7"><path d="M5.578 19.43h20.92m-16.081-1.856h12.154m-10.958-.112v-5.01h1.934v5.053m1.996-.019v-2.134h2.071v2.2m1.96-.075v-3.949h2.033v3.974"/><path d="M15.696 25.492h-3.41c.802.132 1.217-.139 1.244-.813.028-.674.028-1.383 0-2.127h-6.1c-1.298-.039-1.94-.757-1.927-2.155a934.25 934.25 0 000-8.848c.015-1.43.72-2.144 2.113-2.144h16.821c1.44-.068 2.16.647 2.16 2.144v9.013c-.04 1.327-.76 1.99-2.16 1.99h-5.925v1.987c.299.636.636.953 1.011.953h-3.827z"/></g></g></svg>