<svg width="32" height="32" viewBox="0 0 32 32" xmlns="http://www.w3.org/2000/svg"><g fill="none" fill-rule="evenodd"><path stroke="#000" stroke-width=".8" d="M6.382 13.603l10.135-8.307 9.25 8.307zm5.011-.018v9.892m3-9.892v9.892m3-9.892v9.892m3-9.892v9.892m3-9.892v9.892m-15-9.892v9.892m-.664-.266l-.883 2.604h18.39l-.9-2.604z"/><path d="M16 31.3c8.45 0 15.3-6.85 15.3-15.3C31.3 7.55 24.45.7 16 .7 7.55.7.7 7.55.7 16c0 8.45 6.85 15.3 15.3 15.3zm0 .7C7.163 32 0 24.837 0 16S7.163 0 16 0s16 7.163 16 16-7.163 16-16 16z" fill="#000" fill-rule="nonzero"/></g></svg>