<svg width="40" height="40" viewBox="0 0 40 40" xmlns="http://www.w3.org/2000/svg"><path d="M30.34 2a2.912 2.912 0 012.917 2.907 2.913 2.913 0 01-2.917 2.907c-.75 0-1.43-.284-1.947-.747l-2.863 2.37c.192.388.302.823.302 1.284a2.912 2.912 0 01-2.916 2.907A2.912 2.912 0 0120 10.721c0-.04.004-.078.006-.118l-3.752-.515a2.912 2.912 0 01-3.769 2.346l-1.548 2.78h22.32c.821 0 1.783.561 2.222 1.274l.081.145 2.289 4.563c.391.78-.005 1.419-.88 1.419h-1.59v13.742A2.655 2.655 0 0132.727 39H7.273a2.655 2.655 0 01-2.652-2.643V22.615h-1.59c-.875 0-1.271-.639-.88-1.42l2.289-4.562c.392-.78 1.428-1.419 2.303-1.419h3.344l1.725-3.096a2.905 2.905 0 01-1.35-2.25l-.007-.204a2.912 2.912 0 012.917-2.907 2.913 2.913 0 012.897 2.586l3.859.53a2.915 2.915 0 014.99-1.056l2.789-2.31a2.89 2.89 0 01-.482-1.6A2.912 2.912 0 0130.34 2zm4.296 20.615H5.364v13.742c0 1.049.857 1.903 1.909 1.903h25.454a1.909 1.909 0 001.91-1.903V22.615zm-4.03 7.4c.875 0 1.59.713 1.59 1.585v2.643c0 .872-.714 1.586-1.59 1.586h-4.773c-.875 0-1.59-.714-1.59-1.586V31.6c0-.872.715-1.585 1.59-1.585zm0 .74h-4.773a.847.847 0 00-.848.845v2.643c0 .466.38.845.848.845h4.773a.847.847 0 00.848-.845V31.6a.847.847 0 00-.848-.845zm2.652-14.8H6.743c-.592 0-1.374.481-1.639 1.009l-2.289 4.563c-.088.175-.074.27-.067.282.007.01.086.065.283.065h33.938c.197 0 .276-.054.284-.065.006-.012.02-.107-.068-.282l-2.29-4.564c-.264-.527-1.045-1.008-1.637-1.008zm-10.341-7.4a2.173 2.173 0 00-2.175 2.167c0 1.195.976 2.167 2.175 2.167a2.173 2.173 0 002.174-2.167 2.173 2.173 0 00-2.174-2.167zm-9.545-1.057c-1.2 0-2.175.971-2.175 2.166 0 1.195.975 2.167 2.175 2.167a2.173 2.173 0 002.173-2.167 2.172 2.172 0 00-2.173-2.166zM30.34 2.74a2.172 2.172 0 00-2.174 2.167c0 1.195.975 2.167 2.174 2.167a2.173 2.173 0 002.174-2.167A2.173 2.173 0 0030.34 2.74z"/></svg>