<svg xmlns="http://www.w3.org/2000/svg" width="32" height="32" viewBox="0 0 32 32"><g fill="none"><path fill="#FFF" fill-opacity=".01" d="M16 32c1.285 0 2.534-.151 3.732-.438C26.768 29.882 32 23.552 32 16c0-8.837-7.163-16-16-16S0 7.163 0 16s7.163 16 16 16z"/><path d="M5.43 8.57c.06 0 .06.06.12.06l6.18 3.61a1.68 1.68 0 002.1-.25 1.82 1.82 0 00.55-1.37V3.46a1.79 1.79 0 00-3.58 0v4.11L7.34 5.52a1.72 1.72 0 00-2.4.48.36.36 0 00-.07.1 1.76 1.76 0 00.48 2.44l.08.05m6.23 12l-6.17 3.54c-.06 0-.06.07-.12.07a1.76 1.76 0 00-.62 2.4l.06.09a1.73 1.73 0 002.35.64l.12-.08 3.52-2.06v4a1.79 1.79 0 003.58 0V22a1.11 1.11 0 00-.18-.75 1.85 1.85 0 00-2.52-.76m8.59-8.28l6.17-3.61c.06 0 .06-.06.13-.06a1.76 1.76 0 00.61-2.4l-.06-.09a1.73 1.73 0 00-2.35-.64l-.12.08-3.46 2v-4a1.79 1.79 0 00-3.58 0v7a2 2 0 00.19 1.06 1.81 1.81 0 002.47.68m-9.1 4.12a1.75 1.75 0 00-.93-1.62l-6.17-3.61a1.72 1.72 0 00-2.39.44l-.08.12a1.75 1.75 0 00.47 2.43l.09.06c.06 0 .06.06.12.06l3.52 2.06-3.52 2.05a1.84 1.84 0 00-.74 2.49 1.77 1.77 0 002.35.81l.11-.06h.12L10.31 18a1.8 1.8 0 00.86-1.62m18.52 1.96l-3.52-2.05 3.52-2.06c.07 0 .07-.06.13-.06a1.76 1.76 0 00.61-2.4l-.06-.09A1.73 1.73 0 0028 11l-.12.08-6.17 3.61a1.75 1.75 0 00-.93 1.62 1.55 1.55 0 00.87 1.56l6.17 3.61c.06 0 .06.06.13.06a1.82 1.82 0 002.46-.72 1.85 1.85 0 00-.75-2.49m-3.11 5.8c-.07 0-.07-.06-.13-.06l-6.17-3.61a1.82 1.82 0 00-2.47.68 2.15 2.15 0 00-.19 1.06v7a1.79 1.79 0 003.58 0v-4l3.46 2a1.72 1.72 0 002.37-.44l.08-.12a1.75 1.75 0 00-.46-2.43l-.09-.06m-9.43-7.49l-.74.75a.52.52 0 01-.31.12.45.45 0 01-.31-.12l-.74-.75a.45.45 0 01-.12-.31A.5.5 0 0115 16l.74-.75a.45.45 0 01.31-.12.52.52 0 01.31.12l.74.75a.52.52 0 01.12.31.45.45 0 01-.12.31m2.22 0V16a.59.59 0 00-.18-.44l-2.41-2.49a.58.58 0 00-.43-.18h-.62a.55.55 0 00-.43.18l-2.47 2.53a.53.53 0 00-.19.44v.62a.53.53 0 00.19.44l2.47 2.49a.55.55 0 00.43.18h.62a.58.58 0 00.43-.18l2.47-2.49a1.16 1.16 0 00.12-.44" fill="#000"/></g></svg>