<svg id="Vrstva_1" data-name="Vrstva 1" xmlns="http://www.w3.org/2000/svg" width="40" height="40" viewBox="0 0 40 40"><g id="icon_menu_gd-ui_b" data-name="icon menu gd-ui b"><g id="Icon-GoodData.UI"><g id="Shape-3"><path id="Shape" d="M9.22,10.17a.31.31,0,0,1,.19.06l0,0,9.9,9.79v0h0l7.49-7.55.08-.06H27a.35.35,0,0,1,.18-.23h.05l.15,0,.9-.25,2.49-.73.14-.08h.18a.21.21,0,0,1,.12,0l0,0,0,0,1.41-.4a.32.32,0,0,1,.32.09.31.31,0,0,1,.1.27v0l-.4,1.38,0,0a.27.27,0,0,1,0,.22.31.31,0,0,1,0,.19l0,.06,0,0-1,3.59a.33.33,0,0,1-.24.23h0a.08.08,0,0,0,0,0l0,0,0,0L24,24.46l9.26,9.35a.36.36,0,0,1,.07.38l0,.05,0,0L29,38.57a.31.31,0,0,1-.24.1.36.36,0,0,1-.2-.06l0,0-9.26-9.35-8.2,8.27a3.1,3.1,0,0,1-2.24.93,3.14,3.14,0,0,1-2.91-2,3.21,3.21,0,0,1,.58-3.38l.1-.1L14.7,24.8,4.81,15a.33.33,0,0,1,0-.42l0-.05L9,10.27A.29.29,0,0,1,9.22,10.17ZM23.51,24.94l-3.78,3.8.21.21,1.63-1.64a.3.3,0,0,1,.39,0l.05,0a.32.32,0,0,1,0,.39l0,.05-1.63,1.65,2,2,.76-.76a.36.36,0,0,1,.45,0l.05,0a.36.36,0,0,1,.05.45l0,.05-.76.77,2,2,1.64-1.66a.33.33,0,0,1,.39,0l0,0a.32.32,0,0,1,.05.39l0,0-1.63,1.65,2,2,.75-.76a.35.35,0,0,1,.46,0l.05,0a.36.36,0,0,1,0,.46l0,.05L27.9,37l.86.86,3.77-3.8Zm-16,8-.48.49a2.53,2.53,0,0,0,0,3.53,2.49,2.49,0,0,0,3.41.13l.09-.09.49-.49Zm.84-.84L8,32.48l3.54,3.57.35-.36ZM29.09,15.27,10.86,33.66l1.53,1.55L30.63,16.82Zm-2-2L8.85,31.64l1.54,1.55L28.63,14.8ZM33.49,2A2.53,2.53,0,0,1,36,4.29V25.82a2.54,2.54,0,0,1-2.27,2.52h-.24l-4.11,0-.67-.69,0-.1h4.74A1.72,1.72,0,0,0,35.19,26V8.23H3.8V25.82a1.74,1.74,0,0,0,1.41,1.7H10l0,.1-.71.71H5.51A2.53,2.53,0,0,1,3,26.06V4.53A2.54,2.54,0,0,1,5.27,2H33.49ZM9.22,11l-3.71,3.8,1.41,1.39,1.91-1.92a.33.33,0,0,1,.29-.12h.05a.35.35,0,0,1,.26.26.35.35,0,0,1-.07.31L7.42,16.66l1.85,1.83.89-.9a.36.36,0,0,1,.46,0l.05,0a.38.38,0,0,1,0,.47l0,0-.89.9,1.85,1.83L13.49,19a.35.35,0,0,1,.29-.12h.06a.36.36,0,0,1,.18.57l0,0-1.86,1.87L14,23.15l.84-.85a.34.34,0,0,1,.29-.11h.06a.35.35,0,0,1,.25.26.38.38,0,0,1-.05.31l0,0-.84.85.68.67,3.74-3.77h0Zm21.6.92-2.11.62-.88.26-.22.06,1.69,1.69,0,0v0l1.7,1.71L32,13.07l0,0a.18.18,0,0,1,0-.12h0l-.95-1a.41.41,0,0,1-.16,0Zm1.47-.32-.53.15.38.38Zm1.2-8.77h-28a1.72,1.72,0,0,0-1.7,1.52v3.1H35.2V4.53a1.71,1.71,0,0,0-1.61-1.72ZM9.17,4.72a.56.56,0,1,1-.55.55A.55.55,0,0,1,9.17,4.72Zm-2.46,0a.56.56,0,1,1-.54.55A.55.55,0,0,1,6.71,4.72Z"/></g></g></g></svg>