<svg xmlns="http://www.w3.org/2000/svg" width="32" height="32" viewBox="0 0 32 32"><g fill="none" fill-rule="evenodd"><path fill="#FFF" fill-opacity=".01" fill-rule="nonzero" d="M16 32c1.285 0 2.534-.151 3.732-.438C26.768 29.882 32 23.552 32 16c0-8.837-7.163-16-16-16S0 7.163 0 16s7.163 16 16 16z"/><path fill="#000" d="M15.93 1.5c3.334 0 6.037 2.71 6.037 6.054 0 .382-.035.755-.103 1.117l-.236-.137a11.706 11.706 0 015.955 9.39A6.053 6.053 0 0132 23.757c0 3.344-2.703 6.055-6.037 6.055a6 6 0 01-3.643-1.226l.215-.142A11.646 11.646 0 0115.93 30.5c-2.313 0-4.515-.667-6.386-1.902a5.999 5.999 0 01-3.507 1.125C2.703 29.723 0 27.013 0 23.67a6.055 6.055 0 014.278-5.793l-.018.268A11.708 11.708 0 019.994 8.67a6.15 6.15 0 01-.102-1.117c0-3.343 2.703-6.054 6.038-6.054zm5.755 7.886l-.04.123a6.041 6.041 0 01-5.715 4.1 6.042 6.042 0 01-5.756-4.222 10.997 10.997 0 00-5.175 8.318 5.92 5.92 0 011.038-.09c3.335 0 6.038 2.71 6.038 6.054a6.046 6.046 0 01-1.955 4.46 10.835 10.835 0 005.81 1.665 10.92 10.92 0 005.833-1.687 6.044 6.044 0 01-1.838-4.35c0-3.343 2.703-6.054 6.038-6.054.306 0 .607.023.9.067a11 11 0 00-5.178-8.384zm4.278 9.023c-2.946 0-5.334 2.395-5.334 5.348 0 2.954 2.388 5.349 5.334 5.349 2.945 0 5.333-2.395 5.333-5.349 0-2.953-2.388-5.348-5.333-5.348zm-19.926-.088c-2.945 0-5.333 2.395-5.333 5.348 0 2.954 2.388 5.348 5.333 5.348 2.946 0 5.334-2.394 5.334-5.348 0-2.953-2.388-5.348-5.334-5.348zM15.93 2.206c-2.946 0-5.334 2.394-5.334 5.348 0 2.954 2.388 5.348 5.334 5.348 2.945 0 5.333-2.394 5.333-5.348 0-2.954-2.388-5.348-5.333-5.348z"/></g></svg>