<svg xmlns="http://www.w3.org/2000/svg" width="32" height="32" viewBox="0 0 32 32"><g fill="none"><path fill="#FFF" fill-opacity=".01" d="M16 32c1.285 0 2.534-.151 3.732-.438C26.768 29.882 32 23.552 32 16c0-8.837-7.163-16-16-16S0 7.163 0 16s7.163 16 16 16z"/><g fill="#000" opacity=".9"><path d="M30.79 11.68l-2.29 3a13.8 13.8 0 00-4.81-8.78C17.753.93 8.91 1.713 3.94 7.65-1.03 13.587-.247 22.43 5.69 27.4a14.06 14.06 0 0022.88-9.29.3.3 0 00-.27-.34.32.32 0 00-.35.28A13.5 13.5 0 0115.77 30 13.16 13.16 0 011.39 17.91C.794 10.553 6.221 4.083 13.57 3.39 20.711 2.711 27.082 7.873 27.9 15l-3.33-2.25a.3.3 0 00-.43.09.31.31 0 00.08.43l3.83 2.58a.3.3 0 00.42-.07l2.82-3.72a.31.31 0 00-.06-.43.31.31 0 00-.44.05z"/><path d="M14.52 30.85C7.235 30.849 1.168 25.26.57 18A14.26 14.26 0 0123.82 5.78a14 14 0 014.8 8.43l2-2.65a.5.5 0 01.34-.2.47.47 0 01.38.1.5.5 0 01.2.33.59.59 0 01-.1.39l-2.82 3.71a.52.52 0 01-.7.12l-3.82-2.58a.52.52 0 01-.14-.72.52.52 0 01.71-.14l3 2c-1.03-6.788-7.16-11.606-14-11-7.235.687-12.579 7.055-12 14.3a13 13 0 0014.08 11.9 13.31 13.31 0 0012-11.71.51.51 0 01.91-.27.52.52 0 01.11.38 14.32 14.32 0 01-14.25 12.68zm.3-27.94A13.93 13.93 0 001 18a13.57 13.57 0 004.82 9.33 13.86 13.86 0 0022.55-9.16.11.11 0 000-.08.13.13 0 00-.07 0 .11.11 0 00-.13.1 13.7 13.7 0 01-12.39 11.98A13.38 13.38 0 011.19 17.93C.582 10.462 6.09 3.893 13.55 3.19 20.807 2.506 27.277 7.757 28.1 15v.44l-3.69-2.49a.12.12 0 00-.18.11.13.13 0 000 .07l3.83 2.59a.11.11 0 00.15 0L31.03 12a.11.11 0 000-.08.12.12 0 000-.08.15.15 0 00-.08 0 .11.11 0 00-.08.05l-2.59 3.41-.06-.48a13.59 13.59 0 00-13.4-11.91z"/><path d="M20.84 18.75A5.64 5.64 0 0018.31 17l-.31-.15-.73-.28A4.12 4.12 0 0019 13.13a4.29 4.29 0 10-7 3.44c-.69.23-1.36.517-2 .86a5 5 0 00-1.54 1.32 3.11 3.11 0 00-.63 1.85 1.59 1.59 0 001.6 1.58h10.45a1.6 1.6 0 001.6-1.61 3 3 0 00-.64-1.82zm-6.13-8.89a3.27 3.27 0 11-3.27 3.27 3.28 3.28 0 013.27-3.27zm5.51 10.93c-.14.22-.64.32-.64.32h-10a1.23 1.23 0 01-.51-.28.84.84 0 01-.17-.42 1.18 1.18 0 01.28-.72l.06-.1a4.47 4.47 0 012-1.53 9 9 0 013.5-.68 6.89 6.89 0 013.56.87 6.53 6.53 0 011.32.91c.58.65.69 1 .7 1.08a1.27 1.27 0 01-.1.55z"/></g></g></svg>