<svg id="Vrstva_1" data-name="Vrstva 1" xmlns="http://www.w3.org/2000/svg" width="40" height="40" viewBox="0 0 40 40"><path d="M37.5,19.89a3.74,3.74,0,0,1-1.11,2.75c-4.23,3.61-8.57,7.44-13,10.75-2,1.56-4.19,1.88-6,.35l-5.52-4.43C10.05,27.89,5.67,24.36,4,23l-.34-.29-.09-.09a6.52,6.52,0,0,1-1-3l-.88.16A6.66,6.66,0,0,0,3,23.3l.15.14c.43.38,4.35,3.54,4.89,4l8.74,7c2.13,1.73,4.66,1.53,7-.22C28.31,30.86,32.68,27,37,23.31a4.75,4.75,0,0,0,1.41-3.65h-.9Zm0,4.39A3.74,3.74,0,0,1,36.39,27c-4.23,3.61-8.57,7.44-13,10.75-2,1.57-4.19,1.88-6,.35L11.82,33.7c-1.77-1.42-6.15-5-7.85-6.35l-.34-.3L3.54,27a6.57,6.57,0,0,1-1-3l-.88.15A6.59,6.59,0,0,0,3,27.69l.15.14c.43.38,4.35,3.55,4.89,4l8.74,7c2.13,1.73,4.66,1.52,7-.23C28.31,35.25,32.68,31.38,37,27.7a4.72,4.72,0,0,0,1.41-3.64h-.9ZM17.4,30.44l.14.11a4.13,4.13,0,0,0,5.06-.11l6.17-5.06-.89-.21-.29-.07a8.41,8.41,0,0,1-2.4-1.1,9.55,9.55,0,0,1-5,1.42h-.52a9.44,9.44,0,0,1-6.15-2.75l-.18-.19-.17-.18A9.47,9.47,0,0,1,10.8,16v-.3a9.47,9.47,0,0,1,2.75-6.42l.18-.18.18-.17a9.47,9.47,0,0,1,6.37-2.45h.52a9.46,9.46,0,0,1,5.79,2.45l-4.2,4.21-.07-.06L22.15,13a3.44,3.44,0,0,0-1.67-.57h-.39l-.19,0-.19,0a3.63,3.63,0,0,0-1.86.91l-.13.12-.14.15-.12.15-.12.16a3.69,3.69,0,0,0-.63,1.83l0,.65h0l0,.15a3.6,3.6,0,0,0,3.92,3c0-.9,0-2.17,0-3.07h9v8.23l7.32-6,.16-.13A3.81,3.81,0,0,0,37,12.72L22.6.92,22.46.81A4.13,4.13,0,0,0,17.4.92L3,12.72l-.16.14A3.8,3.8,0,0,0,3,18.64Zm-13.81-17L18,1.62l.12-.1a3.23,3.23,0,0,1,3.94.1l14.38,11.8.12.1a2.88,2.88,0,0,1,.23,4.09l-.11.12-.11.11-.13.11-5.85,4.8V15.52H19.8c0,.89,0,2.14,0,3h0l-.17,0a2.63,2.63,0,0,1-2-2.25v-.48l0-.18a2.71,2.71,0,0,1,.53-1.29l.1-.12.1-.11.1-.1.13-.11a2.73,2.73,0,0,1,1.4-.58h.61A2.73,2.73,0,0,1,22,14l.43.41L27.87,8.9l-.52-.5a10.34,10.34,0,0,0-7.06-2.86H20a10.38,10.38,0,0,0-6.9,2.87l-.2.2-.2.2A10.37,10.37,0,0,0,9.9,15.92v.33a10.35,10.35,0,0,0,2.83,6.83l.19.21.21.19a10.32,10.32,0,0,0,6.81,2.83h.91a10.31,10.31,0,0,0,4-1.1l.3-.15.05,0,.29.16a8.69,8.69,0,0,0,1.21.53l.1,0L22,29.74l-.12.1a3.23,3.23,0,0,1-3.94-.1L3.59,18l-.12-.11A2.89,2.89,0,0,1,3.59,13.42Z"/></svg>