<svg id="Vrstva_1" data-name="Vrstva 1" xmlns="http://www.w3.org/2000/svg" width="40" height="40" viewBox="0 0 40 40"><defs><style>.cls-1{fill-rule:evenodd;}</style></defs><path class="cls-1" d="M30.81,36.11H26.07a1.58,1.58,0,0,1-1.58-1.58V31.9a1.58,1.58,0,0,1,1.58-1.58h4.74a1.58,1.58,0,0,1,1.58,1.58v2.63A1.58,1.58,0,0,1,30.81,36.11Zm-4.74-5.05a.84.84,0,0,0-.84.84v2.63a.84.84,0,0,0,.84.85h4.74a.85.85,0,0,0,.84-.85V31.9a.85.85,0,0,0-.84-.84Z"/><path d="M38,21.54,35.73,17a2.8,2.8,0,0,0-2.29-1.41H7.11A2.8,2.8,0,0,0,4.82,17L2.55,21.54A.9.9,0,0,0,3.42,23H5V36.64a2.64,2.64,0,0,0,2.64,2.63H32.91a2.64,2.64,0,0,0,2.64-2.63V23h1.58A.9.9,0,0,0,38,21.54Zm-3.19,15.1a1.9,1.9,0,0,1-1.9,1.9H7.64a1.9,1.9,0,0,1-1.9-1.9V23H34.81Zm2.6-14.49a.47.47,0,0,1-.28.06H3.42a.47.47,0,0,1-.28-.06.46.46,0,0,1,.07-.28l2.27-4.55a2.1,2.1,0,0,1,1.63-1H33.44a2.1,2.1,0,0,1,1.63,1l2.27,4.55A.46.46,0,0,1,37.41,22.15ZM29.07,14.5V13.3H20.39v1.2h.72V14h7.25v.48ZM18.63,13.36a2.17,2.17,0,0,1,.44-1l.08-.1.08-.08.08-.08.1-.09a2.23,2.23,0,0,1,1.13-.47H21a2.12,2.12,0,0,1,1.13.53l.35.33L26.9,8l-.42-.41-.16-.15A8.33,8.33,0,0,0,21,5.25h-.67a8.4,8.4,0,0,0-5.18,2.16L15,7.56l-.16.16-.16.16L14.52,8A8.37,8.37,0,0,0,12.4,13.4v.71c0,.13,0,.26,0,.39h.75a4.5,4.5,0,0,1-.07-.63V13.2a7.71,7.71,0,0,1,2.06-4.82l.15-.15.15-.14L15.64,8l.15-.14A7.68,7.68,0,0,1,20.57,6h.63l.21,0a7.57,7.57,0,0,1,4.41,1.93l.05,0-3.39,3.39-.06,0-.13-.09a3,3,0,0,0-1.35-.46h-.47l-.15,0a2.86,2.86,0,0,0-1.51.73l-.1.1-.11.12-.1.12-.1.13a2.91,2.91,0,0,0-.5,1.48,2.62,2.62,0,0,0,0,.64,3.06,3.06,0,0,0,.1.39h.77a2.51,2.51,0,0,1-.17-.61v-.53Zm-12,1.14a3,3,0,0,1-.16-1,2.23,2.23,0,0,1,.61-1.68l11.85-9.8a2.7,2.7,0,0,1,3.29,0l11.85,9.8a2.23,2.23,0,0,1,.61,1.68,2.9,2.9,0,0,1-.16,1h.76a3.3,3.3,0,0,0-.74-3.22L22.7,1.48a3.46,3.46,0,0,0-4.25,0L6.61,11.28a3.3,3.3,0,0,0-.74,3.22Z"/></svg>