<svg xmlns="http://www.w3.org/2000/svg" width="29" height="32" viewBox="0 0 29 32"><path d="M25.672 0H5.537A2.517 2.517 0 003.02 2.517v.503h-.503A2.517 2.517 0 000 5.537v23.659a2.517 2.517 0 002.517 2.516h20.135a2.517 2.517 0 002.517-2.516v-.504h.503a2.517 2.517 0 002.517-2.517V2.517A2.517 2.517 0 0025.672 0zm-1.208 29.196c0 .992-.805 1.797-1.798 1.797H2.531a1.798 1.798 0 01-1.798-1.797V5.537c0-.993.805-1.798 1.798-1.798h20.135c.993 0 1.798.805 1.798 1.798v23.659zm3.02-3.02c0 .992-.805 1.797-1.798 1.797h-.517V5.537a2.517 2.517 0 00-2.517-2.517H3.725v-.503c0-.993.805-1.798 1.798-1.798h20.135c.992 0 1.797.805 1.797 1.798v23.658h.029z"/><path d="M20.365 21.188a.36.36 0 00-.496.04l-2.82 3.286-2.81-1.826a.36.36 0 00-.425.028l-3.322 2.877-2.83-.942a.36.36 0 00-.33.057l-2.518 2.014a.36.36 0 10.443.55l2.365-1.899 2.837.946a.36.36 0 00.36-.068l3.257-2.844 2.848 1.866a.36.36 0 00.457-.069l3.02-3.523a.36.36 0 00-.036-.493zm-1.258-9.377L16.69 8.575a1.366 1.366 0 00-.485-.388 1.384 1.384 0 00-.6-.155H9.563c-.42.021-.812.218-1.079.543L6.07 11.811a.942.942 0 00-.183.568.96.96 0 00.248.655l5.85 6.31a.816.816 0 001.2 0l5.858-6.31a.96.96 0 00.248-.655.942.942 0 00-.183-.568zm-.684.263h-4.987l2.852-2.852 2.135 2.852zM15.604 8.75c.046.002.09.01.134.022l-3.154 3.157L9.42 8.777a.525.525 0 01.133-.022h6.051v-.004zm-6.72.471l2.852 2.852h-4.99l2.138-2.852zM6.85 12.778h5.394v5.8l-5.394-5.8zm6.088 5.8v-5.8h5.393l-5.393 5.8z"/></svg>