<svg width="32" height="32" viewBox="0 0 32 32" xmlns="http://www.w3.org/2000/svg"><path d="M31.325 1.08l.27.025.405.041-.083.404c-1.518 7.381-4.539 12.962-9.066 16.73l-.083.067v7.871L16.541 32v-8.124L13.67 20.55l-7.965 7.173-.486-.555 8.516-7.67 3.539 4.098v6.716l4.761-4.422v-7.899l.138-.111c4.364-3.537 7.324-8.795 8.878-15.789l.062-.286-.12-.01c-5.715-.426-11.16 1.646-16.35 6.235l-.343.307H6.06l-4.294 3.954 6.16.417 3.557 4.118-4.878 3.952-.457-.58 4.279-3.467-2.853-3.303L0 12.917l5.778-5.32 8.244-.001.134-.12C19.572 2.687 25.301.549 31.325 1.08zM25 5a2 2 0 110 4 2 2 0 010-4zm0 .667a1.333 1.333 0 100 2.666 1.333 1.333 0 000-2.666z"/></svg>