<svg xmlns="http://www.w3.org/2000/svg" width="32" height="32" viewBox="0 0 32 32"><g fill="none" fill-rule="evenodd"><path fill="#FFF" fill-opacity=".01" fill-rule="nonzero" d="M16 32c1.285 0 2.534-.151 3.732-.438C26.768 29.882 32 23.552 32 16c0-8.837-7.163-16-16-16S0 7.163 0 16s7.163 16 16 16z"/><path fill="#000" d="M16.02.5l-.001.001.31.005c2.905.092 5.608 1.335 7.66 3.392 1.987 1.99 3.175 4.575 3.205 7.004v.094l.001 2.548c1.827.17 3.305 1.632 3.305 3.115v3.877l-.02.057c-.61 1.723-1.756 2.653-3.389 2.739-.541 3.659-3.223 6.02-8.24 6.84l.002.033c0 .67-.511 1.222-1.166 1.288l-.133.007H14.25c-.717 0-1.299-.58-1.299-1.295 0-.67.511-1.222 1.166-1.288l.133-.007h3.305c.452 0 .85.23 1.083.58l-.336.051c5.573-.788 8.134-3.375 8.185-7.542v-10.12h-2.139l-.024-.327c-.207-2.884-1.393-5.02-3.296-6.433-1.484-1.102-3.353-1.693-4.956-1.715L16 3.403l-.07.001c-1.504.02-3.24.542-4.674 1.514l-.283.2c-1.903 1.414-3.089 3.55-3.296 6.434l-.024.328-2.14-.001v11.459H5.16c-1.766 0-2.998-.935-3.639-2.745l-.02-.057V16.66c0-1.483 1.478-2.944 3.305-3.115v-2.642c.03-2.429 1.219-5.013 3.206-7.004C10.145 1.758 12.984.5 16.02.5l-.04.001V.5h.04zm1.534 29.116H14.25a.59.59 0 00-.096 1.17l.096.008h3.305a.59.59 0 100-1.178zm9.64-15.362v8.362l.032-.003c1.202-.118 2.034-.81 2.535-2.117l.03-.082V16.66c0-1.082-1.136-2.224-2.568-2.401l-.028-.004zm-22.389 0l-.028.004c-1.432.177-2.569 1.32-2.569 2.401v3.755l.03.082c.502 1.307 1.334 1.999 2.536 2.117l.031.003v-8.362zM16.02 2.697l-.001.001.277.006c1.696.07 3.612.704 5.153 1.848 1.973 1.464 3.237 3.645 3.543 6.523l.01.098h1.483l.001-.177c0-2.26-1.113-4.71-2.999-6.6-1.982-1.986-4.602-3.161-7.404-3.19h-.166c-2.802.029-5.422 1.204-7.404 3.19-1.886 1.89-3 4.34-3 6.6v.177h1.485l.01-.098c.306-2.878 1.57-5.06 3.543-6.523 1.637-1.216 3.698-1.855 5.469-1.855l-.04.001h.04z"/></g></svg>