<svg width="40" height="40" viewBox="0 0 40 40" xmlns="http://www.w3.org/2000/svg"><path d="M19.999 0c.905 0 1.816.29 2.525.892l14.4 12.268c.706.6 1.078 1.42 1.076 2.241.001.786-.342 1.568-.99 2.16.648.592.992 1.374.99 2.16.001.801-.355 1.6-1.029 2.197.674.597 1.03 1.394 1.029 2.197.001.82-.368 1.636-1.071 2.237l-14.41 12.353c-.704.603-1.615.894-2.519.895-.904 0-1.814-.292-2.519-.895L3.071 26.352C2.368 25.75 1.999 24.934 2 24.115c-.001-.803.355-1.6 1.03-2.197C2.355 21.321 2 20.523 2 19.721c-.001-.787.342-1.567.99-2.16-.648-.593-.991-1.374-.99-2.16-.001-.823.37-1.64 1.078-2.241L17.478.89c.705-.6 1.616-.89 2.52-.89zm16.34 22.464L22.519 34.31c-.703.603-1.614.894-2.518.895-.905 0-1.815-.292-2.52-.895L3.664 22.465l-.048.04c-.534.457-.784 1.034-.786 1.61.001.574.25 1.15.782 1.608l14.41 12.353c.532.456 1.252.695 1.98.694.725 0 1.445-.238 1.979-.694l14.41-12.353c.53-.458.78-1.035.781-1.609-.002-.575-.25-1.153-.786-1.61l-.046-.04zm.043-4.357L22.52 29.991c-.704.603-1.615.895-2.519.895-.904 0-1.814-.292-2.519-.895L3.62 18.108c-.539.46-.79 1.037-.79 1.613 0 .573.25 1.15.781 1.608l14.41 12.353c.532.456 1.252.695 1.98.695.725 0 1.445-.239 1.979-.695l14.41-12.353c.53-.458.78-1.035.781-1.609-.002-.574-.25-1.153-.786-1.61l-.003-.003zM20 .828c-.729 0-1.45.238-1.984.693l-14.4 12.27c-.534.457-.785 1.035-.785 1.61 0 .573.25 1.15.782 1.608l14.41 12.353c.532.457 1.252.695 1.979.695.726 0 1.446-.238 1.979-.695L36.39 17.01c.53-.458.78-1.035.781-1.608-.002-.575-.251-1.153-.786-1.61L21.986 1.521C21.452 1.066 20.728.828 20 .828zm2.365 6.33a2.665 2.665 0 012.666 2.665 2.657 2.657 0 01-1.861 2.527l.178 1.88a2.658 2.658 0 01-.39 5.29 2.666 2.666 0 01-2.667-2.666c0-.023.006-.043.007-.067l-2.392-.003a2.668 2.668 0 01-2.089 2.09v2.58l-.008.083a.415.415 0 01-.82-.083v-2.557a2.658 2.658 0 01-2.364-2.634 2.666 2.666 0 012.667-2.665 2.655 2.655 0 012.635 2.356l2.53.004a2.657 2.657 0 012.058-1.723l-.165-1.749a2.665 2.665 0 01.015-5.328zm.593 7.861a1.838 1.838 0 00-1.836 1.835c0 1.013.824 1.837 1.836 1.837a1.839 1.839 0 001.837-1.837 1.838 1.838 0 00-1.837-1.835zm-7.665-.592a1.839 1.839 0 00-1.837 1.835c0 1.013.824 1.836 1.837 1.836a1.839 1.839 0 001.836-1.836 1.838 1.838 0 00-1.836-1.835zm7.072-6.44a1.839 1.839 0 00-1.836 1.836c0 1.012.824 1.835 1.836 1.835A1.837 1.837 0 0024.2 9.823a1.837 1.837 0 00-1.836-1.836z" fill-rule="evenodd"/></svg>