<svg width="40" height="40" viewBox="0 0 40 40" xmlns="http://www.w3.org/2000/svg"><path d="M19.849 4c5.068 0 9.468 4.2 9.468 9.382v2.326h2.09c1.426 0 2.593 1.193 2.593 2.65V34.35c0 1.457-1.167 2.65-2.593 2.65H8.593C7.167 37 6 35.807 6 34.35V18.36c0-1.459 1.167-2.652 2.593-2.652h2.078v-2.326C10.672 8.201 14.78 4 19.849 4zm11.558 12.45H8.592c-1.03 0-1.866.857-1.866 1.909V34.35c0 1.051.837 1.908 1.866 1.908h22.815c1.03 0 1.866-.857 1.866-1.908V18.359c0-1.052-.837-1.908-1.866-1.908zM20 22.606c1.432 0 2.592 1.186 2.592 2.65 0 1.337-.971 2.431-2.23 2.613v2.936c0 .204-.162.37-.362.37a.367.367 0 01-.363-.37v-2.936c-1.258-.182-2.23-1.276-2.23-2.613 0-1.464 1.16-2.65 2.593-2.65zm0 .742c-1.03 0-1.867.856-1.867 1.908s.837 1.908 1.867 1.908c1.029 0 1.866-.856 1.866-1.908s-.837-1.908-1.866-1.908zm-.151-18.605c-2.336 0-4.446.967-5.976 2.53a8.707 8.707 0 00-2.476 6.11v2.326h17.195v-2.326a8.707 8.707 0 00-2.476-6.11c-1.53-1.563-3.933-2.53-6.267-2.53z"/></svg>