<?xml version="1.0" encoding="UTF-8"?>
<svg width="40px" height="40px" viewBox="0 0 40 40" version="1.1" xmlns="http://www.w3.org/2000/svg" xmlns:xlink="http://www.w3.org/1999/xlink">
    <title>icon_menu_gd-cn-community_b</title>
    <defs>
        <filter id="filter-1">
            <feColorMatrix in="SourceGraphic" type="matrix" values="0 0 0 0 0.000000 0 0 0 0 0.000000 0 0 0 0 0.000000 0 0 0 1.000000 0"></feColorMatrix>
        </filter>
        <linearGradient x1="6.8877551%" y1="0%" x2="93.1122449%" y2="100%" id="linearGradient-2">
            <stop stop-color="#1B127D" offset="0%"></stop>
            <stop stop-color="#1B127D" offset="0%"></stop>
        </linearGradient>
    </defs>
    <g id="icon_menu_gd-cn-community_b" stroke="none" stroke-width="1" fill="none" fill-rule="evenodd">
        <g id="Icon-Platform-Tiger-Copy" transform="translate(-2.000000, -2.000000)" filter="url(#filter-1)">
            <g id="Shape-2" transform="translate(4.400000, 2.750000)" fill="url(#linearGradient-2)">
                <path d="M31.0407101,14.85 C31.8556677,14.85 32.8104704,15.4075963 33.2468053,16.116655 L33.3269643,16.2603659 L35.6000533,20.7974119 C35.9691904,21.5345599 35.6328933,22.1443207 34.8533572,22.2034539 L34.7266274,22.2081532 L33.1467873,22.2081532 L33.1467873,35.8722222 C33.1467873,37.2622734 32.0512991,38.4086775 30.6795981,38.4948061 L30.5137206,38.5 L5.23590329,38.5 C3.84341604,38.5 2.69437063,37.4070594 2.60804241,36.0378066 L2.6028365,35.8722222 L2.6028365,22.2081532 L1.02337258,22.2081532 C0.197906148,22.2081532 -0.198121202,21.6352498 0.0974860118,20.9126834 L0.149946717,20.7974119 L2.42303566,16.2603659 C2.78802103,15.5329172 3.71470038,14.9298554 4.54538097,14.8573143 L4.71004223,14.85 L31.0407101,14.85 Z M32.4095286,22.2081532 L3.34047135,22.2081532 L3.34047135,35.8722222 C3.34047135,36.865415 4.11222348,37.6829118 5.08806703,37.7585165 L5.23590329,37.7642222 L30.5140967,37.7642222 C31.5089302,37.7642222 32.3280554,36.9940203 32.4038115,36.0198126 L32.4095286,35.8722222 L32.4095286,22.2081532 Z M28.4076433,29.565931 C29.2282824,29.565931 29.9076682,30.1984526 29.9806227,30.9995685 L29.9871072,31.1425976 L29.9871072,33.7703754 C29.9871072,34.5893661 29.353648,35.2677221 28.5509569,35.3405672 L28.4076433,35.3470421 L23.6673708,35.3470421 C22.8467316,35.3470421 22.1673458,34.7141856 22.0943914,33.9133487 L22.0879069,33.7703754 L22.0879069,31.1425976 C22.0879069,30.3236069 22.7213661,29.6452509 23.5240572,29.5724058 L23.6673708,29.565931 L28.4076433,29.565931 Z M28.4076433,30.3017087 L23.6673708,30.3017087 C23.2389043,30.3017087 22.8841547,30.6225331 22.8321132,31.0368317 L22.8255417,31.1422222 L22.8255417,33.77 C22.8255417,34.1979524 23.1473323,34.552016 23.5619224,34.6039551 L23.6673708,34.6105135 L28.4076433,34.6105135 C28.8361098,34.6105135 29.1908594,34.2893693 29.2429009,33.8753167 L29.2494724,33.77 L29.2494724,31.1422222 C29.2494724,30.6782317 28.8718153,30.3017087 28.4076433,30.3017087 Z M31.0407101,15.5861532 L4.71004223,15.5861532 C4.16376148,15.5861532 3.45563732,15.9988503 3.14674697,16.4779951 L3.08280696,16.5895889 L0.809718023,21.1270103 C0.722074514,21.3004437 0.735992153,21.395419 0.742762896,21.4074317 C0.748718642,21.4158782 0.804305608,21.4550863 0.935427806,21.467921 L1.02337258,21.472 L34.7266274,21.472 C34.9218505,21.472 35.0004664,21.4175675 35.0079894,21.406681 C35.0133182,21.397296 35.0236102,21.3297767 34.9761732,21.2071645 L34.940282,21.1270103 L32.667193,16.5888381 C32.4042625,16.0644087 31.6286363,15.5861532 31.0407101,15.5861532 Z M18.380568,4.48951042 L18.6030921,4.49403616 C20.5743434,4.56080453 22.4564723,5.3265292 23.9210626,6.65496841 L24.0820599,6.80488155 L24.5003682,7.21574781 L20.1060154,11.6398964 L19.7568094,11.3057099 C19.4395424,11.0186151 19.0453148,10.8337029 18.6324108,10.773414 L18.4941644,10.7579641 L18.3839869,10.7513947 L18.2671274,10.7543502 L18.1416492,10.7646862 C17.7256448,10.8105955 17.3319714,10.975427 17.0120551,11.2336279 L16.9082186,11.3231179 L16.8266849,11.4012007 L16.7463369,11.489283 L16.6653431,11.5891947 C16.4304455,11.8963854 16.2817643,12.2608127 16.2341391,12.637095 L16.2210456,12.778668 L16.2175519,12.8833333 L16.2209238,13.0404871 L16.2320878,13.1708539 C16.2551191,13.3715374 16.3058435,13.5667335 16.3815582,13.7508182 L15.6147703,13.7513257 C15.5801505,13.6347481 15.552613,13.515483 15.5324527,13.3941224 L15.5148776,13.2705503 L15.4811294,13.271567 L15.4974491,12.7460545 C15.5282144,12.2168846 15.7022209,11.7074551 16.003375,11.2665764 L16.0975195,11.1364181 L16.197627,11.0135291 L16.3073994,10.8932301 L16.4124295,10.7914363 C16.8314498,10.4057547 17.3522282,10.152483 17.9171642,10.0599612 L18.0722891,10.0387349 L18.2265501,10.0263864 L18.3910617,10.0226247 L18.5396516,10.0301063 C19.0207971,10.0673099 19.482488,10.2256861 19.8867111,10.4904748 L20.0192716,10.5826587 L20.0824481,10.6318338 L23.4664613,7.22456825 L23.4216585,7.18349212 C22.195216,6.07571842 20.6461662,5.39835564 19.0117924,5.24981319 L18.7981488,5.23344516 L18.5836545,5.22312362 L18.377714,5.21877706 L18.1691516,5.22129964 C16.4103164,5.26641311 14.7230427,5.92063551 13.393461,7.06597378 L13.2356465,7.20576418 L13.086964,7.34464859 L12.9413022,7.48851656 L12.7930058,7.64266217 C11.5573074,8.96313173 10.8282626,10.6807856 10.7318901,12.4835927 L10.7235851,12.6919691 L10.7201456,12.8844684 L10.7229474,12.9367288 L10.7260871,13.1515293 C10.7317814,13.3523714 10.7452878,13.552275 10.7664332,13.7508135 L10.0384875,13.750349 C10.0267825,13.6301833 10.0176221,13.5095649 10.0110369,13.3885699 L10.0018852,13.1673599 L9.99928288,12.9645682 L9.99647047,12.9022278 L9.99935163,12.6776774 C10.0515662,10.6886748 10.8037685,8.78511445 12.1205726,7.30193159 L12.2692007,7.13888046 L12.4273285,6.97462915 L12.5866666,6.81727319 L12.7461565,6.66813217 C14.1756775,5.36614946 16.0068384,4.60155077 17.9328822,4.50075519 L18.1555216,4.492078 L18.380568,4.48951042 Z M20.1356787,0.657890847 L20.2508842,0.748533586 L31.8555629,10.3085709 C32.9091944,11.1765619 33.2492596,12.5569084 32.8176612,13.7506372 L32.0295542,13.7509927 C32.4919928,12.8244911 32.2966932,11.6891815 31.4927754,10.9562069 L31.3968504,10.8730683 L19.7921717,1.31303102 C18.8812501,0.562605728 17.5515579,0.535804824 16.6107241,1.23262831 L16.5078283,1.31303102 L4.9031496,10.8730683 C4.80240687,10.9560611 4.70867924,11.0465391 4.62283122,11.1436468 C3.96055549,11.8927861 3.85554933,12.9172797 4.27033993,13.7508979 L3.48270714,13.7504981 C3.11309292,12.7258698 3.30010551,11.5428679 4.08174761,10.6587062 C4.1558985,10.5748298 4.23451625,10.494839 4.31726285,10.419054 L4.44443712,10.3085709 L16.0491158,0.748533586 C17.2227569,-0.218322296 18.9287648,-0.248536542 20.1356787,0.657890847 Z M26.6709807,12.5774697 L26.67,13.75 L25.946,13.75 L25.946102,13.3063661 L18.7044365,13.3063661 L18.702,13.75 L17.977,13.75 L17.978299,13.5738489 L17.9863968,12.5774697 L26.6709807,12.5774697 Z" id="Combined-Shape"></path>
            </g>
        </g>
    </g>
</svg>