<svg xmlns="http://www.w3.org/2000/svg" width="32" height="32" viewBox="0 0 32 32"><g fill="none" fill-rule="evenodd"><path fill="#FFF" fill-opacity=".01" d="M16 32c8.837 0 16-7.164 16-16 0-8.837-7.163-16-16-16C7.164 0 0 7.163 0 16a15.87 15.87 0 0016 16z"/><g fill="#000" opacity=".9" transform="translate(1 3)"><path d="M28.11 7.2V2.57A1.54 1.54 0 0026.57 1H3.43a1.54 1.54 0 00-1.54 1.57V7.2h26.22zm0 1H1.89v15.2A1.54 1.54 0 003.43 25h23.14c.85 0 1.54-.69 1.54-1.54V8.2zM3.43 0h23.14a2.57 2.57 0 012.57 2.57v20.86A2.57 2.57 0 0126.57 26H3.43a2.57 2.57 0 01-2.57-2.57V2.57A2.57 2.57 0 013.43 0z"/><circle cx="5" cy="4.11" r="1.29" fill-rule="nonzero"/><circle cx="8.86" cy="4.11" r="1.29" fill-rule="nonzero"/><circle cx="24.79" cy="4.11" r="1.29" fill-rule="nonzero"/><path fill-rule="nonzero" d="M23 10.8a2.23 2.23 0 00-2.2 2.26 2.32 2.32 0 00.51 1.46l-2 2.12a2.15 2.15 0 00-2.59.22l-2.75-2a2.2 2.2 0 10-4.23-.85 2.3 2.3 0 00.53 1.47L8.11 18A2.1 2.1 0 007 17.67a2.27 2.27 0 000 4.53 2.24 2.24 0 002.2-2.26 2.18 2.18 0 00-.36-1.22l2.21-2.66a2.11 2.11 0 002.28-.37l2.75 2a2.3 2.3 0 00-.17.85A2.2 2.2 0 1020 17.38l2.17-2.24c.267.12.557.186.85.19a2.27 2.27 0 000-4.53H23zM7 21.16a1.22 1.22 0 111.18-1.22A1.2 1.2 0 017 21.16zm4.89-6A1.22 1.22 0 1113.07 14a1.2 1.2 0 01-1.18 1.2v-.04zm6.22 4.58a1.22 1.22 0 111.18-1.22 1.2 1.2 0 01-1.18 1.26v-.04zM23 14.28a1.22 1.22 0 111.18-1.22A1.2 1.2 0 0123 14.28z"/></g></g></svg>