<svg xmlns="http://www.w3.org/2000/svg" width="27" height="32" viewBox="0 0 27 32"><path d="M20.135 17.927h-6.537v-6.853a.36.36 0 10-.719 0v6.853H6.04a.36.36 0 000 .72h6.853v6.522a.36.36 0 00.72 0v-6.537h6.522a.36.36 0 000-.705z"/><path d="M18.625 0H2.517A2.517 2.517 0 000 2.517v26.679a2.517 2.517 0 002.517 2.516h21.141a2.517 2.517 0 002.517-2.516V7.55L18.625 0zm6.831 7.842h-5.465A1.665 1.665 0 0118.33 6.18V.705l7.126 7.137zm-1.798 23.166H2.517A1.798 1.798 0 01.719 29.21V2.517c0-.993.805-1.798 1.798-1.798h15.101v5.465a2.373 2.373 0 002.366 2.366h5.487v20.646a1.798 1.798 0 01-1.813 1.812z"/><circle cx="8.809" cy="14.346" r="1"/><circle cx="9.801" cy="21.379" r="1"/><circle cx="17.352" cy="22.4" r="1"/><circle cx="16.849" cy="14.346" r="1"/></svg>