<svg xmlns="http://www.w3.org/2000/svg" width="32" height="32" viewBox="0 0 32 32"><g fill="none"><path fill="#FFF" fill-opacity=".01" d="M16 32c1.285 0 2.534-.151 3.732-.438C26.768 29.882 32 23.552 32 16c0-8.837-7.163-16-16-16S0 7.163 0 16s7.163 16 16 16z"/><path fill="#000" d="M25.87 2h-14.7a2.29 2.29 0 00-2.3 2.28v.22h-.22a2.3 2.3 0 00-2.3 2.29V7h-.22a2.3 2.3 0 00-2.3 2.29v18.39A2.291 2.291 0 006.13 30h14.7a2.29 2.29 0 002.3-2.28v-.22h.22a2.3 2.3 0 002.3-2.29V25h.22a2.3 2.3 0 002.3-2.29V4.32A2.291 2.291 0 0025.87 2zm0 21.93h-.22V6.83a2.3 2.3 0 00-2.3-2.29H9.86v-.22A1.31 1.31 0 0111.17 3h14.7c.72 0 1.305.58 1.31 1.3v18.37A1.31 1.31 0 0125.87 24v-.07zm-3.73 3.71A1.31 1.31 0 0120.83 29H6.13a1.31 1.31 0 01-1.31-1.3V9.33A1.31 1.31 0 016.13 8h14.7c.72 0 1.305.58 1.31 1.3v18.34zm2.52-2.51a1.31 1.31 0 01-1.31 1.31h-.22V9.33A2.3 2.3 0 0020.83 7H7.34v-.17a1.31 1.31 0 011.31-1.31h14.7c.723 0 1.31.587 1.31 1.31v18.3z" opacity=".9"/></g></svg>