<svg xmlns="http://www.w3.org/2000/svg" width="32" height="32" viewBox="0 0 32 32"><g fill="none" fill-rule="evenodd"><path d="M0 0h32v32H0z"/><path fill="#000" fill-rule="nonzero" d="M16 24c3.71 0 6 2.273 6 6.708V31H10l.002-.508C10.075 26.199 12.352 24 16 24zm0 .583c-3.235 0-5.228 1.867-5.361 5.706l-.004.128h10.73l-.004-.128c-.131-3.77-2.056-5.638-5.189-5.704zM16 .5c8.56 0 15.5 6.99 15.5 15.61 0 4.86-2.219 9.35-5.943 12.292a.456.456 0 01-.643-.079.463.463 0 01.078-.647 14.697 14.697 0 005.592-11.565c0-8.113-6.53-14.689-14.584-14.689-8.055 0-14.584 6.576-14.584 14.689 0 4.553 2.07 8.763 5.55 11.532a.463.463 0 01.076.648.456.456 0 01-.643.076A15.622 15.622 0 01.5 16.11C.5 7.489 7.44.5 16 .5zM16 6c5.523 0 10 4.557 10 10.179 0 2.996-1.28 5.781-3.463 7.703a.47.47 0 01-.671-.05.49.49 0 01.048-.683 9.255 9.255 0 003.134-6.97c0-5.086-4.051-9.21-9.048-9.21s-9.048 4.124-9.048 9.21a9.258 9.258 0 002.914 6.77.49.49 0 01.027.685.47.47 0 01-.673.027A10.235 10.235 0 016 16.179C6 10.557 10.477 6 16 6zm0 6a4 4 0 110 8 4 4 0 010-8zm0 .836a3.164 3.164 0 100 6.328 3.164 3.164 0 000-6.328z"/></g></svg>