<svg width="32" height="32" viewBox="0 0 32 32" xmlns="http://www.w3.org/2000/svg"><path d="M22.486 5H9.514C4.259 5 0 9.925 0 16s4.26 11 9.514 11h12.972C27.741 27 32 22.075 32 16S27.74 5 22.486 5zm-12.94.909h12.908c4.752 0 8.605 4.496 8.605 10.043 0 5.547-3.853 10.044-8.605 10.044H9.546c-4.752 0-8.605-4.497-8.605-10.044 0-5.547 3.853-10.043 8.605-10.043z"/><path d="M6.794 19v-2.695H9.91v-.66H6.794V13.66h3.353V13H6v6h.794zm5.252 0v-2.695h1.02L14.88 19h.973l-1.899-2.763c.523-.073.932-.245 1.228-.517.296-.27.444-.627.444-1.067 0-.373-.079-.669-.236-.886a1.502 1.502 0 00-.614-.496 2.804 2.804 0 00-.855-.22 9.04 9.04 0 00-.959-.051h-1.71v6h.794zm.708-3.356h-.708v-1.983h1.115c.195 0 .388.011.58.034.193.023.366.07.52.14a.93.93 0 01.373.3c.095.13.142.303.142.518 0 .248-.065.439-.194.572a1.15 1.15 0 01-.49.292 2.59 2.59 0 01-.653.11c-.236.011-.464.017-.685.017zM21.398 19v-.661h-3.58v-2.136H21v-.66h-3.183V13.66h3.41V13h-4.204v6h4.374zM27 19v-.661h-3.58v-2.136h3.183v-.66H23.42V13.66h3.41V13h-4.204v6H27z"/></svg>