<svg xmlns="http://www.w3.org/2000/svg" width="32" height="32" viewBox="0 0 32 32"><g fill="none"><path fill="#FFF" fill-opacity=".01" d="M16 32c1.285 0 2.534-.151 3.732-.438C26.768 29.882 32 23.552 32 16c0-8.837-7.163-16-16-16S0 7.163 0 16s7.163 16 16 16z"/><path fill="#000" d="M23.38 8h-2.54v-.75a.51.51 0 00-.51-.48.49.49 0 00-.49.48V8h-7.7v-.76a.49.49 0 00-.48-.48.52.52 0 00-.52.48V8H8.62a1.81 1.81 0 00-1.78 1.86V23.4a1.82 1.82 0 001.78 1.84h14.76a1.82 1.82 0 001.78-1.84V9.86A1.81 1.81 0 0023.38 8zm.67 15.25a.87.87 0 01-.84.88H8.73a.87.87 0 01-.84-.88V12.79h16.16v10.46zm0-11.53H7.89V9.89a.83.83 0 01.84-.82h2.43v1.21a.48.48 0 00.49.46.49.49 0 00.49-.46V9.07h7.69v1.21a.49.49 0 00.5.46.48.48 0 00.48-.46V9.07h2.4a.83.83 0 01.84.82v1.83z"/><path fill="#000" d="M19.82 17.14a.45.45 0 00-.32-.31l-2-.57-1.1-1.75a.48.48 0 00-.78 0l-1.13 1.75-2 .57a.46.46 0 00-.31.31.47.47 0 00.07.43l1.28 1.66-.09 2.11a.45.45 0 00.19.4.43.43 0 00.44.06l1.93-.73 1.92.73a.33.33 0 00.17 0 .47.47 0 00.27-.1.45.45 0 00.19-.4l-.09-2.11 1.28-1.66a.47.47 0 00.08-.39zm-2.23 1.67a.47.47 0 00-.09.31l.06 1.51-1.37-.52a.44.44 0 00-.32 0l-1.37.52.07-1.51a.48.48 0 00-.1-.31l-.92-1.19 1.45-.41a.5.5 0 00.26-.2l.8-1.25.8 1.25a.46.46 0 00.26.2l1.42.41-.95 1.19z"/></g></svg>