<svg xmlns="http://www.w3.org/2000/svg" width="32" height="32" viewBox="0 0 32 32"><g opacity=".9"><path d="M16 31.3c8.45 0 15.3-6.85 15.3-15.3C31.3 7.55 24.45.7 16 .7 7.55.7.7 7.55.7 16c0 8.45 6.85 15.3 15.3 15.3zm0 .7C7.163 32 0 24.837 0 16S7.163 0 16 0s16 7.163 16 16-7.163 16-16 16z"/><path d="M24.7 10c-1.27 0-2.3 1.091-2.3 2.438 0 .674.258 1.284.676 1.726l-2.65 2.807a2.197 2.197 0 00-1.348-.47 2.23 2.23 0 00-1.64.73l-3.466-2.624a2.53 2.53 0 00.25-1.086c0-1.346-1.029-2.437-2.3-2.437-1.27 0-2.3 1.09-2.3 2.437 0 .678.263 1.29.684 1.732l-2.685 3.32a2.192 2.192 0 00-1.321-.448c-1.27 0-2.3 1.091-2.3 2.438C4 21.909 5.03 23 6.3 23c1.27 0 2.3-1.091 2.3-2.437 0-.55-.177-1.051-.467-1.459l2.761-3.413c.311.166.657.268 1.028.268.643 0 1.222-.281 1.64-.731l3.466 2.624c-.154.328-.25.693-.25 1.085 0 1.347 1.03 2.438 2.3 2.438 1.27 0 2.3-1.091 2.3-2.438 0-.536-.168-1.027-.445-1.43l2.738-2.9c.31.165.657.268 1.029.268 1.27 0 2.3-1.09 2.3-2.437C27 11.09 25.97 10 24.7 10zM6.3 22.24c-.874 0-1.584-.752-1.584-1.677 0-.926.71-1.68 1.584-1.68.874 0 1.584.754 1.584 1.68 0 .925-.71 1.678-1.584 1.678zm5.622-7.04c-.873 0-1.584-.753-1.584-1.679s.71-1.679 1.584-1.679c.874 0 1.584.753 1.584 1.68 0 .925-.71 1.678-1.584 1.678zm7.156 5.416c-.874 0-1.584-.753-1.584-1.679s.71-1.679 1.584-1.679c.873 0 1.584.753 1.584 1.68 0 .925-.711 1.678-1.584 1.678zm5.622-6.5c-.874 0-1.584-.753-1.584-1.678 0-.926.71-1.68 1.584-1.68.874 0 1.584.754 1.584 1.68 0 .926-.71 1.678-1.584 1.678z"/></g></svg>