<svg xmlns="http://www.w3.org/2000/svg" width="32" height="32" viewBox="0 0 32 32"><g fill="none"><path fill="#FFF" fill-opacity=".01" d="M16 32c1.285 0 2.534-.151 3.732-.438C26.768 29.882 32 23.552 32 16c0-8.837-7.163-16-16-16S0 7.163 0 16s7.163 16 16 16z"/><path fill="#000" d="M29.5 31.154v.779h-27v-.78h27zm-18.692-19.73v.817h-1.78v16.045h1.78v.818H2.5v-.818h1.805V12.24H2.5v-.817h8.308zm9.346 0v.817h-1.78v16.045h1.78v.818h-8.308v-.818h1.805V12.24h-1.805v-.817h8.308zm9.346 0v.817h-1.78v16.045h1.78v.818h-8.308v-.818h1.805V12.24h-1.805v-.817H29.5zm-21.306.816H5.139v16.046h3.055V12.24zm9.346 0h-3.055v16.046h3.055V12.24zm9.346 0h-3.055v16.046h3.055V12.24zM15.642.117a.8.8 0 01.837.002l12.667 7.864c.646.402.35 1.363-.42 1.363H3.274c-.771 0-1.067-.965-.417-1.364L15.642.117zm.417.624L3.274 8.605h25.452L16.059.741z"/></g></svg>