<svg xmlns="http://www.w3.org/2000/svg" width="32" height="32" viewBox="0 0 32 32"><path d="M9.06 9.029H.308V.38H9.06v8.648zm-7.98-.762h7.21V1.143H1.08v7.124zm19.315.762h-8.752V.38h8.752v8.648zm-7.98-.762h7.21V1.143h-7.21v7.124zm19.392.685h-8.752V.305h8.752v8.647zm-7.98-.762h7.21V1.067h-7.21V8.19zM9.06 20.343H.308v-8.686H9.06v8.686zm-7.98-.762h7.21v-7.162H1.08v7.162zm19.315.762h-8.752v-8.686h8.752v8.686zm-7.98-.762h7.21v-7.162h-7.21v7.162zm19.392.648h-8.752V11.58h8.752v8.648zm-7.98-.762h7.21v-7.124h-7.21v7.124zM9.06 31.695H.308v-8.647H9.06v8.647zm-7.98-.762h7.21V23.81H1.08v7.123zm19.315.762h-8.752v-8.647h8.752v8.647zm-7.98-.762h7.21V23.81h-7.21v7.123zm19.392.686h-8.752v-8.648h8.752v8.648zm-7.98-.762h7.21v-7.124h-7.21v7.124z"/></svg>