<svg xmlns="http://www.w3.org/2000/svg" width="32" height="32" viewBox="0 0 32 32"><g fill="none"><path fill="#FFF" fill-opacity=".01" d="M16 32c1.285 0 2.534-.151 3.732-.438C26.768 29.882 32 23.552 32 16c0-8.837-7.163-16-16-16S0 7.163 0 16s7.163 16 16 16z"/><g fill="#000" opacity=".9"><path d="M25.21 11.94h-1.5v-1.68a7.92 7.92 0 00-7.88-7.76 7.51 7.51 0 00-5.38 2.27 7.78 7.78 0 00-2.25 5.49v1.68H6.69a2.32 2.32 0 00-2.3 2.34v12.88a2.32 2.32 0 002.3 2.34h18.52a2.32 2.32 0 002.3-2.34V14.27a2.31 2.31 0 00-2.3-2.33zm-16-1.68a6.72 6.72 0 016.61-6.76 7.1 7.1 0 014.92 2 6.81 6.81 0 012 4.78v1.68H9.17l.04-1.7zm17.3 17.08a1.31 1.31 0 01-1.29 1.15H6.69a1.32 1.32 0 01-1.3-1.33V14.27a1.32 1.32 0 011.3-1.33h18.52a1.32 1.32 0 011.3 1.33v13.07z"/><path d="M16.08 17.47a2.3 2.3 0 00-2.42 2.11 2.34 2.34 0 001.79 2.52v2.2a.5.5 0 101 0v-2.2a2.35 2.35 0 00-.37-4.63zm-.13 1a1.34 1.34 0 01.92 2.28 1.34 1.34 0 01-.8.38H16a1.33 1.33 0 010-2.66h-.05z"/></g></g></svg>