<?xml version="1.0" encoding="UTF-8"?>
<svg width="40px" height="40px" viewBox="0 0 40 40" version="1.1" xmlns="http://www.w3.org/2000/svg" xmlns:xlink="http://www.w3.org/1999/xlink">
    <title>icon_menu_developers_portal_b</title>
    <g id="icon_menu_developers_portal_b" stroke="none" stroke-width="1" fill="none" fill-rule="evenodd">
        <path d="M32.5,5 C34.4329966,5 36,6.56700338 36,8.5 L36,8.5 L36,32.5 C36,34.4329966 34.4329966,36 32.5,36 L32.5,36 L7.5,36 C5.56700338,36 4,34.4329966 4,32.5 L4,32.5 L4,8.5 C4,6.56700338 5.56700338,5 7.5,5 L7.5,5 Z M35,11.158 L5,11.158 L5,32.5 C5,33.8254834 6.03153594,34.9100387 7.33562431,34.9946823 L7.5,35 L32.5,35 C33.8807119,35 35,33.8807119 35,32.5 L35,32.5 L35,11.158 Z M15.3637863,17.8414487 C15.5363459,18.016016 15.5540724,18.2855474 15.4179516,18.4796315 L15.3596966,18.5485436 L12.176,21.695 L15.3759096,25.1679792 C15.5422331,25.3484981 15.5504844,25.6184857 15.4076324,25.8076704 L15.3469936,25.8744945 C15.1664747,26.0408179 14.896487,26.0490693 14.7073024,25.9062173 L14.6404783,25.8455785 L10.7866783,21.6628626 L14.6566913,17.837359 C14.8530796,17.6432294 15.1696568,17.6450605 15.3637863,17.8414487 Z M23.9310885,17.8414487 C24.1252181,17.6450605 24.4417953,17.6432294 24.6381835,17.837359 L24.6381835,17.837359 L28.5081966,21.6628626 L24.6543965,25.8455785 L24.5875725,25.9062173 C24.3983878,26.0490693 24.1284001,26.0408179 23.9478812,25.8744945 L23.9478812,25.8744945 L23.8872424,25.8076704 C23.7443904,25.6184857 23.7526418,25.3484981 23.9189652,25.1679792 L23.9189652,25.1679792 L27.1188748,21.695 L23.9351783,18.5485436 L23.8769233,18.4796315 C23.7408024,18.2855474 23.758529,18.016016 23.9310885,17.8414487 Z M21.1199427,17.7178931 C21.3531581,17.7944509 21.4919564,18.0261759 21.4594312,18.2609942 L21.4390532,18.348899 L19.0381381,25.6627265 C18.9520105,25.9250939 18.6694996,26.0679646 18.4071321,25.9818371 C18.1739167,25.9052792 18.0351184,25.6735543 18.0676436,25.438736 L18.0880216,25.3508311 L20.4889368,18.0370036 C20.5750643,17.7746362 20.8575753,17.6317656 21.1199427,17.7178931 Z M32.5,6 L7.5,6 C6.11928813,6 5,7.11928813 5,8.5 L5,8.5 L5,10.209 L35,10.209 L35,8.5 C35,7.1745166 33.9684641,6.08996133 32.6643757,6.00531768 L32.5,6 Z M24,7.1 C24.4970563,7.1 24.9,7.50294373 24.9,8 C24.9,8.49705627 24.4970563,8.9 24,8.9 C23.5029437,8.9 23.1,8.49705627 23.1,8 C23.1,7.50294373 23.5029437,7.1 24,7.1 Z M28,7.1 C28.4970563,7.1 28.9,7.50294373 28.9,8 C28.9,8.49705627 28.4970563,8.9 28,8.9 C27.5029437,8.9 27.1,8.49705627 27.1,8 C27.1,7.50294373 27.5029437,7.1 28,7.1 Z M32,7.1 C32.4970563,7.1 32.9,7.50294373 32.9,8 C32.9,8.49705627 32.4970563,8.9 32,8.9 C31.5029437,8.9 31.1,8.49705627 31.1,8 C31.1,7.50294373 31.5029437,7.1 32,7.1 Z M12.8472481,7.29768573 C13.1233905,7.29768573 13.3472481,7.52154336 13.3472481,7.79768573 C13.3472481,8.04314562 13.1703729,8.2472941 12.9371237,8.28963006 L12.8472481,8.29768573 L8.21897125,8.29768573 C7.94282888,8.29768573 7.71897125,8.0738281 7.71897125,7.79768573 C7.71897125,7.55222584 7.89584641,7.34807736 8.12909562,7.3057414 L8.21897125,7.29768573 L12.8472481,7.29768573 Z" id="Combined-Shape" fill="#000000" fill-rule="nonzero"></path>
    </g>
</svg>