<svg xmlns="http://www.w3.org/2000/svg" width="29" height="32" viewBox="0 0 29 32"><path d="M7.04 25.866h7.133a.36.36 0 100-.719H7.04a.36.36 0 000 .72m0-3.539h13.206a.36.36 0 000-.719H7.04a.36.36 0 100 .72"/><path d="M28.523 19.33l-2.344-1.385V2.517A2.517 2.517 0 0023.662 0H2.532A2.517 2.517 0 00.013 2.517v26.679a2.517 2.517 0 002.517 2.516h21.117a2.517 2.517 0 002.516-2.516V18.769l1.985 1.168a.36.36 0 00.5-.126.36.36 0 00-.126-.482zm-3.052 9.866a1.82 1.82 0 01-1.823 1.797H2.53a1.82 1.82 0 01-1.823-1.797V2.516A1.82 1.82 0 012.531.72h21.117a1.82 1.82 0 011.823 1.798v15.011l-5.088-2.995a7.971 7.971 0 00.798-3.455 8.083 8.083 0 10-1.125 4.08l5.418 3.19v10.848h-.003zM13.084 18.409a7.346 7.346 0 117.378-7.331 7.37 7.37 0 01-7.382 7.345l.004-.014z"/><path d="M16.809 12.307a3.153 3.153 0 00-1.417-.996 5.102 5.102 0 00-.593-.183 2.316 2.316 0 00.903-1.83 2.36 2.36 0 10-4.721 0 2.31 2.31 0 00.888 1.816c-.418.098-.82.254-1.194.464a2.743 2.743 0 00-.856.719 1.65 1.65 0 00-.36.985.787.787 0 00.788.784h6.113a.784.784 0 00.787-.784 1.65 1.65 0 00-.338-.975zm-5.116-3.009a1.65 1.65 0 113.3-.014 1.65 1.65 0 01-3.3.014zm4.75 4.009l-.08.08h-6.112l-.08-.08a.946.946 0 01.224-.583 2.46 2.46 0 011.103-.758 5.091 5.091 0 011.82-.317 4.696 4.696 0 012.283.536c.246.133.463.316.636.536.13.162.201.361.205.568v.018z"/></svg>