<svg xmlns="http://www.w3.org/2000/svg" width="32" height="32" viewBox="0 0 32 32"><g fill="none" fill-rule="evenodd"><path d="M0 0h32v32H0z"/><path fill="#000" fill-rule="nonzero" d="M29.549 3H2.383A2.383 2.383 0 000 5.383V23.97a2.383 2.383 0 002.383 2.383h10.485v2.659H9.532a.34.34 0 100 .68H22.4a.34.34 0 000-.68h-3.336v-2.659h10.485a2.383 2.383 0 002.383-2.383V5.383A2.383 2.383 0 0029.549 3zM18.397 29.015h-4.862v-2.662h4.862v2.662zm12.868-5.041c0 .94-.762 1.702-1.702 1.702H2.383c-.94 0-1.702-.762-1.702-1.702V5.383c0-.94.762-1.702 1.702-1.702h27.166c.94 0 1.702.762 1.702 1.702V23.97l.014.004z"/><path fill="#000" fill-rule="nonzero" d="M27.643 6.336H4.289a.957.957 0 00-.953.953v14.775a.957.957 0 00.953.953h23.354a.957.957 0 00.953-.953V7.289a.957.957 0 00-.953-.953zm.286 15.728a.29.29 0 01-.286.286H4.289a.29.29 0 01-.286-.286V7.289a.29.29 0 01.286-.286h23.354a.29.29 0 01.286.286v14.775z"/><path fill="#000" fill-rule="nonzero" d="M18.924 15.936a7.436 7.436 0 00-1.198-.34 3.268 3.268 0 10-3.486 0 6.768 6.768 0 00-2.043.735 3.847 3.847 0 00-1.191 1.021 2.25 2.25 0 00-.487 1.325v.023c0 .534.433.967.967.967h8.926a.967.967 0 00.967-.967v-.023a2.247 2.247 0 00-.463-1.338 4.443 4.443 0 00-1.992-1.403zm-4.766-1.263a2.604 2.604 0 112.043.75H15.7a2.59 2.59 0 01-1.545-.75h.003zm6.553 4.027a.3.3 0 01-.3.3H11.5a.3.3 0 01-.3-.3v-.023a1.58 1.58 0 01.34-.943 3.789 3.789 0 011.703-1.178 7.602 7.602 0 012.723-.477 7.026 7.026 0 013.435.814c.384.21.721.495.99.84.213.27.332.6.34.944v.023h-.02z"/></g></svg>