<svg xmlns="http://www.w3.org/2000/svg" width="32" height="32" viewBox="0 0 32 32"><g fill="none"><path fill="#FFF" fill-opacity=".01" d="M16 32c1.285 0 2.534-.151 3.732-.438C26.768 29.882 32 23.552 32 16c0-8.837-7.163-16-16-16S0 7.163 0 16s7.163 16 16 16z"/><path fill="#000" d="M31 12.104c0-.456-.135-.918-.43-1.299l-2.378-3.041A2.044 2.044 0 0026.582 7c-.36 0-.726.092-1.05.295l-2.318 1.442c-.244.155-.662.262-1.066.259-.313.001-.616-.061-.816-.16l-2.27-1.1a2.734 2.734 0 00-1.185-.249c-.59.003-1.186.148-1.666.48l-.265.186-.901-.45c-.44-.214-.956-.301-1.478-.303-.472.001-.943.074-1.357.249l-1.546.66c-.252.108-.652.18-1.05.178-.397.002-.796-.07-1.048-.179l-1.547-.66a2.252 2.252 0 00-.883-.172c-.344 0-.687.068-1.005.197a2.29 2.29 0 00-.847.584l-2.817 3.155a1.825 1.825 0 00.178 2.614l2.628 2.243-1.246 1.3a1.854 1.854 0 00.063 2.63l.253.24c.239.227.525.37.825.447a1.85 1.85 0 00-.232.884c0 .49.193.983.578 1.347h-.001l.254.24a1.874 1.874 0 002.019.366c.082.332.25.648.517.9l.253.242a1.873 1.873 0 002.327.2c.091.293.247.572.486.798l.253.241a1.877 1.877 0 002.644-.062l1.101-1.15 1.497 1.385c.359.332.818.497 1.273.496a1.868 1.868 0 001.369-.592l.239-.256c.206-.221.34-.483.418-.757l.58.535c.36.331.818.496 1.272.495.5 0 1.004-.199 1.371-.592l.238-.256c.274-.293.429-.656.476-1.027.154.039.309.066.465.066.5 0 1.003-.2 1.37-.593l.239-.256a1.848 1.848 0 00.447-1.683c.414-.055.815-.24 1.12-.567l.24-.256a1.858 1.858 0 00-.097-2.631l-.447-.413 4.033-4.46c.362-.4.53-.918.53-1.426zM3.794 19.465a.838.838 0 01-.262-.612c0-.213.077-.42.233-.583l2.553-2.665a.848.848 0 01.616-.26.85.85 0 01.586.232l.253.24s.26.386.261.613c0 .17-.051.335-.15.478L5.127 19.78a.859.859 0 01-1.08-.075l-.254-.24zm2.264 3.39a.848.848 0 01-.586-.232l-.254-.24v-.001a.838.838 0 01-.262-.613c0-.212.077-.42.233-.583 0 0 3.403-3.543 3.432-3.577a.845.845 0 01.588-.237c.214 0 .422.076.586.231l.254.242a.838.838 0 01.262.612.84.84 0 01-.233.584l-3.405 3.554a.849.849 0 01-.615.26zm2.79 1.507a.847.847 0 01-.587-.232l-.254-.241a.836.836 0 01-.074-1.14l2.37-2.473a.846.846 0 011.154.012l.255.24a.843.843 0 01.029 1.196l-2.279 2.377a.847.847 0 01-.615.26zm3.68.98a.847.847 0 01-.616.26.847.847 0 01-.586-.233l-.253-.24a.841.841 0 01-.262-.613c0-.213.077-.42.233-.583l1.438-1.501a.849.849 0 01.616-.26c.213 0 .422.076.586.232l.254.24a.84.84 0 01.261.613.84.84 0 01-.233.583l-1.438 1.501zm13.706-4.999l-.238.256a.848.848 0 01-.623.268.845.845 0 01-.578-.224l-4.016-3.714-.694.743 4.298 3.982a.845.845 0 01.044 1.196l-.238.256a.85.85 0 01-.623.268.847.847 0 01-.577-.224l-4.017-3.714-.693.744 3.564 3.296c.172.165.26.384.26.609a.835.835 0 01-.225.575l-.238.255a.85.85 0 01-.624.269.849.849 0 01-.578-.224l-3.557-3.285h-.001l-.693.744v.001l.014.013 1.782 1.644a.838.838 0 01.015 1.158l-.238.256a.847.847 0 01-.622.268.845.845 0 01-.577-.225l-1.552-1.436c.135-.265.21-.552.21-.84a1.853 1.853 0 00-.577-1.348l-.254-.241a1.869 1.869 0 00-1.29-.512c-.035 0-.071.008-.106.01l.002-.026c0-.489-.578-1.347-.578-1.347l-.254-.24a1.863 1.863 0 00-.94-.48c.07-.2.11-.408.11-.616 0-.49-.194-.983-.578-1.347l-.254-.241a1.873 1.873 0 00-1.29-.513c-.053 0-.106.01-.16.016a1.852 1.852 0 00-.572-1.29l-.253-.24a1.871 1.871 0 00-1.29-.513 1.87 1.87 0 00-1.353.575l-.603.629-2.67-2.277a.817.817 0 01-.08-1.17l2.818-3.155c.112-.126.277-.24.47-.318.194-.079.414-.122.62-.122.179 0 .347.033.481.09l1.547.66c.436.184.942.26 1.45.262.51-.002 1.016-.078 1.452-.261l1.546-.66c.238-.104.597-.168.955-.167.396-.002.792.08 1.021.197.146.072.285.141.413.206l-1.576 1.108a1.826 1.826 0 00-.416 2.585l.208.28a2.035 2.035 0 001.628.796c.348 0 .703-.088 1.019-.277l.943-.566c.192-.118.482-.192.783-.19.352-.003.708.101.922.259l2.608 1.87c.58.416 1.526 1.187 2.05 1.673l3.02 2.791a.841.841 0 01.043 1.195zm3.48-7.49L25.69 17.3l-1.826-1.688a26.867 26.867 0 00-2.148-1.753l-2.608-1.87c-.442-.313-.984-.449-1.519-.45-.455 0-.914.1-1.31.336l-.942.566a.956.956 0 01-.492.132 1.017 1.017 0 01-.81-.387l-.207-.28h-.001a.81.81 0 01.185-1.15l2.788-1.96c.24-.174.67-.296 1.077-.293.283-.002.553.055.738.147l2.27 1.099c.387.186.824.262 1.263.263.565-.003 1.135-.126 1.605-.414l2.319-1.443a.963.963 0 01.51-.14c.313 0 .627.141.805.373l2.377 3.041c.137.174.216.42.216.675 0 .285-.1.565-.268.748z"/></g></svg>