<svg width="40" height="40" viewBox="0 0 40 40" xmlns="http://www.w3.org/2000/svg"><path d="M11.513 18.598l11.27 10.74-.285.318c-.195.219-.39.43-.584.634l-.291.301-.29.29c-4.446 4.36-8.61 4.882-12.343 1.456l.15.135L3.613 38 3 37.387l5.513-5.514c-2.93-3.038-2.766-6.593.418-10.557l.245-.298c.417-.5.882-1.004 1.394-1.515l.312-.308.324-.309.307-.288zm-.002 1.22l-.147.144-.292.29-.28.288c-.183.19-.359.38-.528.569l-.247.281-.237.28c-3.235 3.896-3.267 7.191-.188 10.018 3.34 3.066 6.998 2.622 11.123-1.44l.28-.28c.139-.142.28-.288.42-.439l.133-.144-10.037-9.567zM37.387 3l.613.613-5.322 5.323c3.126 3.079 3.022 6.7-.229 10.748l-.244.298a23.156 23.156 0 01-1.394 1.515l-.313.308-.324.309-.307.288-2.531-2.413-3.933 3.935-.62-.62 3.918-3.92-8.103-7.723.284-.317c.195-.219.39-.43.585-.634l.29-.301.291-.29c4.305-4.223 8.347-4.845 11.988-1.768L37.386 3zm-5.599 6.312c-3.34-3.066-6.998-2.622-11.123 1.44l-.279.28c-.14.142-.28.288-.42.439l-.134.144 10.037 9.567.148-.144.291-.29.28-.288c.184-.19.36-.38.528-.569l.248-.281.236-.28c3.236-3.896 3.267-7.191.188-10.018zm-10.775 4.72l.628.63-3.556 3.555-.628-.628 3.556-3.556z"/></svg>