<svg xmlns="http://www.w3.org/2000/svg" width="32" height="32" viewBox="0 0 32 32"><g fill="none"><path fill="#FFF" fill-opacity=".01" d="M16 32c1.285 0 2.534-.151 3.732-.438C26.768 29.882 32 23.552 32 16c0-8.837-7.163-16-16-16S0 7.163 0 16s7.163 16 16 16z"/><path fill="#000" d="M24.61 5.52a.47.47 0 00-.47.47v.88l-18.6 6.35h-.13a.46.46 0 01-.22 0l-1.55-.77a4.88 4.88 0 010-.57.48.48 0 00-.52-.5.52.52 0 00-.56.5v9.3a.6.6 0 00.56.52.6.6 0 00.57-.52v-.58l1.52-.77a.81.81 0 01.22 0h.13l3.34 1.1-.44 1.31a2.12 2.12 0 00-.11.66A2.4 2.4 0 0010 25.11l2.52.85a2.5 2.5 0 002.14-.23 2 2 0 00.83-1.06l.51-1.33 8.14 2.78V27a.47.47 0 00.94 0V6a.47.47 0 00-.47-.48zM15.08 23l-.46 1.33a1.08 1.08 0 01-.45.57 1.6 1.6 0 01-1.33.13l-2.51-.86a1.46 1.46 0 01-1-1.31 1 1 0 01.06-.35l.44-1.32L15.08 23zM23.9 8.15V24.9L6 18.82a1.44 1.44 0 00-.43-.06 1.54 1.54 0 00-.63.13l-1.28.63v-6L5 14.1c.196.095.412.143.63.14a1.44 1.44 0 00.37-.06l17.9-6.03zm5.56 8.35a.52.52 0 01-.47.57h-2.32a.59.59 0 010-1.15H29a.52.52 0 01.46.58zm-.72 6.09a.58.58 0 01-.33.25.63.63 0 01-.19 0 .46.46 0 01-.21 0l-1.55-.78a.58.58 0 01-.21-.73.54.54 0 01.33-.26.63.63 0 01.43 0l1.54.77a.61.61 0 01.19.75zm.06-11.83a.43.43 0 01-.21.26L27 11.8a.38.38 0 01-.19 0 .67.67 0 01-.57-.3.6.6 0 01.22-.73l1.59-.77a.55.55 0 01.42 0 .48.48 0 01.31.24.74.74 0 01.02.52z"/></g></svg>