<svg xmlns="http://www.w3.org/2000/svg" width="32" height="32" viewBox="0 0 32 32"><g fill="none"><path fill="#FFF" fill-opacity=".01" d="M16 32c1.285 0 2.534-.151 3.732-.438C26.768 29.882 32 23.552 32 16c0-8.837-7.163-16-16-16S0 7.163 0 16s7.163 16 16 16z"/><path fill="#000" d="M14.52 16.74a6.11 6.11 0 10-5.62 0c-4.31.83-7.7 3.44-7.7 5.58a1.64 1.64 0 00.5 1.2c1.16 1.16 4.17 1.14 8.33 1.12H15c3.35 0 5.77-.12 6.78-1.13a1.64 1.64 0 00.5-1.2c-.05-2.13-3.44-4.74-7.76-5.57zM6.6 11.31a5.12 5.12 0 115.11 5.12 5.11 5.11 0 01-5.11-5.12zM21 22.82c-.86.86-4.14.84-7.62.82H10c-3.47 0-6.76 0-7.62-.82a.65.65 0 01-.21-.5c0-1.62 4.11-4.86 9.51-4.86 5.4 0 9.52 3.24 9.52 4.86a.69.69 0 01-.2.5zm9.27-12.01h-7.12a.5.5 0 110-1h7.12a.5.5 0 110 1zm0 2.95h-7.12a.5.5 0 110-1h7.12a.5.5 0 110 1zm0 3.03h-7.12a.5.5 0 110-1h7.12a.5.5 0 110 1z"/></g></svg>