<svg width="40" height="40" viewBox="0 0 40 40" xmlns="http://www.w3.org/2000/svg"><path d="M8.685 4c.077 0 .15.03.204.086L20.41 15.78a.292.292 0 01.07.108l7.944-7.945a.295.295 0 01.154-.077l-.004.06a.303.303 0 01.26-.327c.01-.001.03-.006.067-.015l.052-.013c.274-.07 1.106-.302 3.588-1.035a.308.308 0 01.26-.074l-.032.007a.279.279 0 01.27.066l1.484-.418c.101-.028.21 0 .284.073a.287.287 0 01.075.282l-.411 1.498.027.034a.28.28 0 01.04.198.309.309 0 01-.07.251l-1.081 3.758a.302.302 0 01-.255.212l.005-.054a.29.29 0 01-.084.204l-7.789 7.788 11.65 11.662c.114.115.114.3 0 .414l-4.464 4.477a.292.292 0 01-.215.086.293.293 0 01-.207-.086l-3.076-3.08a.319.319 0 01-.373-.373l-4.888-4.893a.32.32 0 01-.378-.376l-2.937-2.943-6.899 6.904a.298.298 0 01-.283.283l-1.503 1.502a3.247 3.247 0 01-2.314.955 3.272 3.272 0 01-2.315-5.585l.557-.558-.043-.042a.298.298 0 01.416-.421l.045.045.526-.525a.297.297 0 01.284-.286l6.808-6.808-.924-.937a.316.316 0 01-.178-.18l-2.228-2.263h-.01a.31.31 0 01-.218-.185l-.019-.065-2.17-2.204-.035-.002a.319.319 0 01-.256-.292l-2.128-2.16a.31.31 0 01-.33-.334L4.083 8.966a.3.3 0 010-.414l4.4-4.466A.285.285 0 018.684 4zm16.167 16.774l-4.061 4.062.301.301 1.762-1.761a.274.274 0 01.387.387l-1.757 1.766 2.205 2.208.84-.838a.322.322 0 01.456.453l-.842.84 2.211 2.215 1.766-1.765a.274.274 0 01.387.387l-1.767 1.764 2.214 2.218.834-.833a.317.317 0 11.449.448l-.834.835 1.862 1.864 1.77-1.769a.274.274 0 01.386.388l-1.765 1.773.58.58 4.053-4.057-11.437-11.466zM8.029 29.159l-.557.557a2.697 2.697 0 003.812 3.814l.558-.558-3.813-3.813zm.876-.876l-.458.458 3.814 3.812.453-.453-1.769-1.773-.049-.005a.291.291 0 01-.225-.267l-1.766-1.772zm21.836-17.615L11.439 29.977l1.699 1.698L32.441 12.37l-1.7-1.702zM28.63 8.556L9.325 27.863l1.7 1.699 19.306-19.305-1.701-1.701zM8.685 4.705L4.692 8.759l2.825 2.869 1.906-1.905a.311.311 0 11.438.44L7.952 12.07l1.998 2.028.88-.877a.318.318 0 11.45.45l-.881.882 1.996 2.026 1.944-1.94a.31.31 0 01.535.13.311.311 0 01-.097.307l-1.943 1.949 1.995 2.025.907-.912a.322.322 0 11.458.454l-.915.914.786.798 4.04-4.04a.288.288 0 01-.103-.071L8.685 4.705zM32.57 7.168l-.183.053c-2.294.678-3.053.888-3.322.956l1.85 1.85a.29.29 0 01.058.057l1.857 1.858 1.01-3.519-.017-.028a.287.287 0 01-.025-.142l-1.05-1.043-.01.003a.291.291 0 01-.168-.045zm1.619-.354l-.747.209.54.539.207-.748z"/></svg>