<svg xmlns="http://www.w3.org/2000/svg" width="32" height="32" viewBox="0 0 32 32"><g fill-rule="evenodd"><path fill-rule="nonzero" d="M16 31.3c8.45 0 15.3-6.85 15.3-15.3C31.3 7.55 24.45.7 16 .7 7.55.7.7 7.55.7 16c0 8.45 6.85 15.3 15.3 15.3zm0 .7C7.163 32 0 24.837 0 16S7.163 0 16 0s16 7.163 16 16-7.163 16-16 16z"/><path d="M8.564 11.195v9.49c0 2.017 2.222 3.826 4.435 3.826 2.341 0 4.435-1.876 4.435-4.415 0-2.767-1.757-4.533-4.553-4.533-.104 0-.323.028-.323.245 0 .216.22.263.323.263 2.278 0 3.97 1.465 3.97 4.025 0 2.322-1.71 3.822-3.852 3.822-2.02 0-3.805-1.587-3.805-3.232v-9.938c0-.103-.063-.35-.346-.35-.284 0-.284.247-.284.35v.447zm11.92 8.283h.798c0-4.608-3.672-8.23-8.264-8.23V12c4.132 0 7.466 3.365 7.466 7.478z"/><path d="M13.018 7.992c6.06 0 11.537 5.289 11.537 11.702h.785c0-6.819-5.617-12.375-12.322-12.375v.673z"/></g></svg>