<svg xmlns="http://www.w3.org/2000/svg" width="32" height="32" viewBox="0 0 32 32"><g fill="none"><path fill="#FFF" fill-opacity=".01" d="M16 32c1.285 0 2.534-.151 3.732-.438C26.768 29.882 32 23.552 32 16c0-8.837-7.163-16-16-16S0 7.163 0 16s7.163 16 16 16z"/><path fill="#000" d="M14.243 25.97v-2.192A6.082 6.082 0 0111 22.763l.511-1.471a5.55 5.55 0 003.057.944c1.503 0 2.545-.903 2.545-2.151 0-1.248-.826-1.898-2.398-2.578-2.162-.872-3.499-1.887-3.499-3.794.025-1.853 1.415-3.38 3.204-3.521V8h1.317v2.11a5.39 5.39 0 012.752.761l-.55 1.431a4.99 4.99 0 00-2.634-.75c-1.632 0-2.25 1.014-2.25 1.887 0 1.136.785 1.704 2.633 2.496C17.87 16.868 19 17.964 19 19.993c-.037 1.941-1.48 3.544-3.351 3.724V26l-1.406-.03z"/><path fill="#000" d="M15.5 2C9.055 2 4 4.47 4 7.675v16.6C4 27.49 9.035 30 15.5 30S27 27.49 27 24.275v-16.6C27 4.471 21.945 2 15.5 2zm10.493 8.096v3.453c0 1.727-2.175 3.265-5.317 4.088v.992a10.637 10.637 0 005.317-2.738v3.175c0 1.726-2.175 3.264-5.317 4.088v.992a10.485 10.485 0 005.317-2.748v2.857c0 2.57-4.803 4.733-10.493 4.733S5.007 26.805 5.007 24.275v-2.858a10.485 10.485 0 005.317 2.749v-.992c-3.142-.824-5.317-2.362-5.317-4.088V15.89a10.636 10.636 0 005.317 2.748v-.992c-3.142-.823-5.317-2.361-5.317-4.088v-3.512a10.555 10.555 0 005.317 2.748v-.992c-3.142-.873-5.317-2.401-5.317-4.128 0-2.56 4.783-4.683 10.493-4.683s10.493 2.124 10.493 4.683c0 1.727-2.175 3.265-5.317 4.088v.992a10.558 10.558 0 005.317-2.708v.05z"/></g></svg>