<svg width="40" height="40" viewBox="0 0 40 40" xmlns="http://www.w3.org/2000/svg"><path d="M17.393 5c2.807 0 5.44.759 7.706 2.081l-.005.012c.72.415 1.383.866 2.027 1.395a.366.366 0 01.052.514.36.36 0 01-.51.052 14.675 14.675 0 00-1.577-1.116l-2.739 4.674a9.325 9.325 0 014.308 7.425h5.392a14.787 14.787 0 00-1.42-5.91.366.366 0 01.17-.488.362.362 0 01.483.17 15.509 15.509 0 011.505 6.692C32.785 29.06 25.894 36 17.393 36 8.89 36 2 29.06 2 20.5 2 11.94 8.89 5 17.393 5zm-.266.738a14.567 14.567 0 00-10.105 4.318A14.77 14.77 0 002.726 20.5c0 4.08 1.64 7.77 4.296 10.444a14.563 14.563 0 0010.37 4.325c2.532 0 4.913-.645 6.991-1.781l-2.668-4.726a9.166 9.166 0 01-4.306 1.072c-5.12 0-9.27-4.179-9.27-9.334 0-5.06 4-9.168 8.988-9.32zm14.926 15.03h-5.389a9.326 9.326 0 01-4.323 7.626l2.67 4.73a14.772 14.772 0 007.042-12.356zM17.41 11.897a8.483 8.483 0 00-6.042 2.52A8.603 8.603 0 008.865 20.5c0 2.378.956 4.527 2.502 6.085a8.486 8.486 0 006.042 2.518 8.48 8.48 0 006.04-2.518 8.604 8.604 0 002.504-6.084l-.006.258c-.006-.042-.003-.085 0-.128l.006-.13-.009-.179a8.566 8.566 0 00-2.494-5.905c-.61-.615-1.295-1.093-2.077-1.528l-.218-.114a8.416 8.416 0 00-3.745-.878zm20.228-3.2c.2 0 .362.163.362.365a.364.364 0 01-.362.366h-5.216a1.25 1.25 0 00-.373.073 1.3 1.3 0 00-.342.167l-3.731 2.818a.36.36 0 01-.508-.073.365.365 0 01.073-.511l3.73-2.819c.162-.12.35-.207.55-.275.197-.066.4-.11.601-.11zM17.853 5.752v5.437a9.166 9.166 0 013.868 1.052l2.742-4.676-.373-.2a14.514 14.514 0 00-6.237-1.613zm19.785 5.555c.2 0 .362.163.362.366a.364.364 0 01-.362.365h-4.551a.365.365 0 010-.73zm0-5.264c.2 0 .362.165.362.366a.364.364 0 01-.362.366h-4.551a.365.365 0 010-.731z"/></svg>