<svg xmlns="http://www.w3.org/2000/svg" width="32" height="32" viewBox="0 0 32 32"><g fill="none"><path fill="#FFF" fill-opacity=".01" d="M16 32c8.837 0 16-7.164 16-16 0-8.837-7.163-16-16-16C7.164 0 0 7.163 0 16a15.87 15.87 0 0016 16z"/><path fill="#000" d="M25.78 17.614l-1.589-1.6 5.664-5.667a.513.513 0 000-.715L27.773 7.56a.503.503 0 00-.684 0l-5.674 5.666-2.626-2.637 5.664-5.666a.513.513 0 000-.714L22.35 2.134a.503.503 0 00-.684 0l-5.694 5.667-1.519-1.53a.513.513 0 00-.714 0l-7.324 7.327a4.56 4.56 0 000 6.431l1.428 1.43-1.106 1.106a.513.513 0 000 .715l.644.644-2.234 2.224a.503.503 0 00-.13.483c.048.17.181.304.352.353a.503.503 0 00.482-.131l2.244-2.245.624.624a.492.492 0 00.694 0l1.177-1.097 1.469 1.47a4.556 4.556 0 006.428 0l7.324-7.327a.483.483 0 00-.03-.664zm-8.047 7.316a3.54 3.54 0 01-5.03 0l-1.781-1.801a.493.493 0 00-.694 0L9.08 24.196l-1.278-1.278L8.91 21.81a.503.503 0 000-.684l-1.78-1.812a3.543 3.543 0 010-5.032l6.96-6.975 1.53 1.56c.093.094.22.148.352.151a.513.513 0 00.362-.15L21.998 3.2l1.368 1.369-5.664 5.666a.513.513 0 00-.15.363.513.513 0 00.15.352l3.34 3.341c.096.097.227.15.363.151a.513.513 0 00.352-.15l5.664-5.667 1.368 1.419-5.664 5.666a.513.513 0 00-.151.353c0 .136.055.266.151.362l1.55 1.54-6.942 6.964z"/></g></svg>