<svg width="40" height="40" viewBox="0 0 40 40" xmlns="http://www.w3.org/2000/svg"><path d="M30.337 25.785c.668 0 1.28.262 1.724.688.445.425.728 1.023.728 1.68v1.892h3.124c1.148 0 2.087.955 2.087 2.122v3.712C38 37.045 37.06 38 35.913 38H29.13c-1.147 0-2.087-.955-2.087-2.121v-3.712c0-1.167.94-2.122 2.087-2.122h2.929v-1.892c0-.44-.187-.84-.498-1.139a1.765 1.765 0 00-1.224-.486h-10.07v3.517h3.124c1.148 0 2.088.955 2.088 2.122v3.712c0 1.166-.94 2.121-2.088 2.121H16.61c-1.148 0-2.087-.955-2.087-2.121v-3.712c0-1.167.939-2.122 2.087-2.122h2.928v-3.517H9.467c-.479 0-.912.187-1.224.486-.31.299-.498.7-.498 1.14v1.891h3.125c1.147 0 2.087.955 2.087 2.122v3.712c0 1.166-.94 2.121-2.087 2.121H4.087C2.939 38 2 37.045 2 35.879v-3.712c0-1.167.94-2.122 2.087-2.122h2.928v-1.892c0-.658.283-1.255.728-1.68a2.489 2.489 0 011.724-.688zM10.87 30.788H4.087a1.37 1.37 0 00-1.357 1.379v3.712c0 .76.609 1.379 1.357 1.379h6.783a1.37 1.37 0 001.356-1.38v-3.711c0-.76-.608-1.38-1.356-1.38zm12.52 0h-6.782a1.37 1.37 0 00-1.356 1.379v3.712c0 .76.608 1.379 1.356 1.379h6.783a1.37 1.37 0 001.356-1.38v-3.711c0-.76-.608-1.38-1.356-1.38zm12.523 0H29.13a1.37 1.37 0 00-1.356 1.379v3.712c0 .76.608 1.379 1.356 1.379h6.783a1.37 1.37 0 001.356-1.38v-3.711c0-.76-.608-1.38-1.356-1.38zm-20.449-10.55a.361.361 0 01.517 0l3.916 3.98 3.915-3.98a.36.36 0 01.516 0 .376.376 0 010 .524l-4.174 4.243a.364.364 0 01-.258.109.365.365 0 01-.258-.11l-4.174-4.242a.375.375 0 010-.524zM26 3c1.148 0 2.087.955 2.087 2.121v6.364c0 1.167-.94 2.121-2.087 2.121h-5.739v5.467l3.55-3.609a.36.36 0 01.517 0 .377.377 0 010 .526l-4.174 4.242a.369.369 0 01-.258.109.36.36 0 01-.258-.109l-4.174-4.242a.376.376 0 010-.526.361.361 0 01.517 0l3.55 3.61v-5.468H14c-1.098 0-2.005-.873-2.082-1.97l-.005-.151V5.12c0-1.165.94-2.12 2.087-2.12zm0 .742H14a1.37 1.37 0 00-1.356 1.38v6.363c0 .76.608 1.38 1.356 1.38h12a1.37 1.37 0 001.357-1.38V5.12A1.37 1.37 0 0026 3.742z"/></svg>