<svg xmlns="http://www.w3.org/2000/svg" width="32" height="32" viewBox="0 0 32 32"><g fill="none"><path fill="#FFF" fill-opacity=".01" d="M16 32c1.285 0 2.534-.151 3.732-.438C26.768 29.882 32 23.552 32 16c0-8.837-7.163-16-16-16S0 7.163 0 16s7.163 16 16 16z"/><path fill="#000" d="M16 29.72A13.72 13.72 0 102.28 16c0 7.577 6.143 13.72 13.72 13.72zm0 .63C8.075 30.35 1.65 23.925 1.65 16S8.075 1.65 16 1.65 30.35 8.075 30.35 16c-.006 7.923-6.427 14.344-14.35 14.35z"/><path fill="#000" d="M16 22.91a.5.5 0 01-.5-.5v-9.86a.5.5 0 111 0v9.86a.5.5 0 01-.5.5zm0-11.86a.5.5 0 01-.5-.5V9.27a.5.5 0 111 0v1.28a.5.5 0 01-.5.5z"/></g></svg>