<svg width="29" height="31" fill="none" xmlns="http://www.w3.org/2000/svg"><path d="M21.0059 9.50293H22.5v1.49417h-1.4941V9.50293Zm0 3.00297H22.5V14h-1.4941v-1.4941Zm0 2.9882H22.5v1.5088h-1.4941v-1.5088Zm0 3.003H22.5v1.5088h-1.4941v-1.5088Zm0 6.0058H22.5v1.4942h-1.4941v-1.4942Zm0-3.0029H22.5v1.4941h-1.4941V21.5ZM8.99414 9.50293h1.50876v1.49417H8.99414V9.50293Zm0 3.00297h1.50876V14H8.99414v-1.4941Zm0 2.9882h1.50876v1.5088H8.99414v-1.5088Zm0 3.003h1.50876v1.5088H8.99414v-1.5088Zm0 6.0058h1.50876v1.4942H8.99414v-1.4942Zm0-3.0029h1.50876v1.4941H8.99414V21.5ZM6.00586 9.50293H7.5v1.49417H6.00586V9.50293Zm0 3.00297H7.5V14H6.00586v-1.4941Zm0 2.9882H7.5v1.5088H6.00586v-1.5088Zm0 3.003H7.5v1.5088H6.00586v-1.5088Zm0 6.0058H7.5v1.4942H6.00586v-1.4942Zm0-3.0029H7.5v1.4941H6.00586V21.5ZM11.9971 9.50293h1.5088v1.49417h-1.5088V9.50293Zm0 3.00297h1.5088V14h-1.5088v-1.4941Zm0 2.9882h1.5088v1.5088h-1.5088v-1.5088Zm0 3.003h1.5088v1.5088h-1.5088v-1.5088Zm0 6.0058h1.5088v1.4942h-1.5088v-1.4942Zm0-3.0029h1.5088v1.4941h-1.5088V21.5Zm15.747 7.5h-.747V8.75586c0-.57617-.1856-1.12305-.5567-1.64063-.3711-.51757-.83-.86914-1.3769-1.05468l-7.0606-2.3584V1.25586c0-.12695-.0293-.23926-.0879-.336915-.0488-.107422-.122-.195312-.2197-.263672-.0976-.078125-.2051-.126953-.3223-.146484-.1074-.019531-.2197-.009766-.3369.029297L3.47168 4.5957c-.55664.16602-1.02539.50782-1.40625 1.02539-.38086.50782-.57129 1.04981-.57129 1.62598V29H.74707c-.205078 0-.380859.0732-.527343.2197C.0732422 29.3662 0 29.542 0 29.7471c0 .205.0732422.3808.219727.5273.146484.1465.322265.2197.527343.2197H27.7441c.2149 0 .3955-.0732.542-.2197.1465-.1465.2198-.3223.2198-.5273 0-.2051-.0733-.3809-.2198-.5274-.1465-.1465-.3271-.2197-.542-.2197ZM24.5947 7.48145c.2344.08789.4444.25878.6299.51269.1856.25391.2783.50781.2783.76172V29h-7.5V5.28418l6.5918 2.19727ZM3.00293 7.24707c0-.24414.08789-.48828.26367-.73242.18555-.24414.39551-.40527.62988-.4834l12.59762-3.7793V29H3.00293V7.24707Z" fill="#000"/></svg>