<svg xmlns="http://www.w3.org/2000/svg" width="32" height="32" viewBox="0 0 32 32"><g fill="none" fill-rule="evenodd"><path fill="#000" fill-rule="nonzero" d="M29.385 7.372h-11.08c-.963 0-.963 0-1.441-.836l-.967-1.7A1.84 1.84 0 0014.452 4H2.89a1.84 1.84 0 00-1.445.836l-.967 1.7A4.294 4.294 0 000 8.336v17.823a2.409 2.409 0 002.409 2.409h26.976a2.409 2.409 0 002.409-2.409V9.781a2.409 2.409 0 00-2.41-2.409zm1.72 18.787a1.72 1.72 0 01-1.72 1.72H2.409c-.95 0-1.72-.77-1.72-1.72V8.335c.025-.51.158-1.01.388-1.465l.957-1.7a1.18 1.18 0 01.856-.496h11.562c.344.032.657.213.856.496l.97 1.7c.596 1.032.827 1.176 2.027 1.176h11.08c.95 0 1.72.77 1.72 1.72V26.16z"/><path fill="#000" fill-rule="nonzero" d="M15.897 11.708a6.262 6.262 0 100 12.524 6.262 6.262 0 000-12.524zm0 11.85a5.588 5.588 0 115.588-5.588 5.595 5.595 0 01-5.588 5.588z"/><path fill="#000" fill-rule="nonzero" d="M18.55 17.168l-3.38-2.26a1.067 1.067 0 00-.577-.207c-.372 0-.623.306-.623.85v4.817c0 .544.251.85.623.85.208-.01.41-.082.578-.206l3.375-2.25a.895.895 0 00.004-1.594zm-.375 1.032l-3.376 2.25a.778.778 0 01-.137.076.764.764 0 010-.158v-4.817a.76.76 0 010-.158.73.73 0 01.137.075l3.376 2.25a.246.246 0 110 .493v-.01z"/><path d="M0 0h32v32H0z"/></g></svg>