<svg xmlns="http://www.w3.org/2000/svg" width="32" height="32" viewBox="0 0 32 32"><g fill-rule="evenodd" opacity=".9"><path fill-rule="nonzero" d="M16 31.3c8.45 0 15.3-6.85 15.3-15.3C31.3 7.55 24.45.7 16 .7 7.55.7.7 7.55.7 16c0 8.45 6.85 15.3 15.3 15.3zm0 .7C7.163 32 0 24.837 0 16S7.163 0 16 0s16 7.163 16 16-7.163 16-16 16z"/><path d="M19.991 20.745a7.449 7.449 0 01-12.147 2.41 7.426 7.426 0 01-2.182-5.269 7.449 7.449 0 0114.374-2.746l-3.171-.956a.234.234 0 00-.135.448l3.618 1.09a.237.237 0 00.178-.017.236.236 0 00.114-.139l1.09-3.619a.234.234 0 10-.447-.135l-.892 2.958a7.918 7.918 0 00-15.197 3.116 7.918 7.918 0 0015.368 2.68 7.52 7.52 0 01-.57.18z"/><path d="M17.887 5.195a7.915 7.915 0 00-7.448 5.238c.186-.067.377-.126.57-.18a7.45 7.45 0 116.877 10.308 7.445 7.445 0 01-6.914-4.687l3.114.938a.234.234 0 00.135-.447l-3.619-1.09a.234.234 0 00-.291.156L9.22 19.05a.234.234 0 00.448.135l.913-3.03a7.913 7.913 0 007.306 4.875 7.918 7.918 0 100-15.835z"/></g></svg>