<svg width="3973" height="960" viewBox="0 0 3973 960" fill="none" xmlns="http://www.w3.org/2000/svg">
<g clip-path="url(#clip0_314_2)">
<path fill-rule="evenodd" clip-rule="evenodd" d="M438 0.284997C406.224 2.936 390.213 5 368.959 9.186C292.983 24.149 217.7 59.957 159 109.053C140.661 124.391 124.624 139.319 112.962 151.907C64.498 204.216 33.415 263.059 20.628 326.7C2.504 416.907 25.535 513.565 76.622 561.7C88.317 572.72 99.049 579.008 116.546 585.093C129.579 589.626 156.318 600.164 172.562 607.169C179.616 610.211 185.725 612.7 186.137 612.7C186.549 612.7 184.915 608.255 182.506 602.822C172.379 579.981 166.073 555.023 163.488 527.551C163.144 523.895 163.231 520.688 163.681 520.424C165.025 519.639 192.563 521.441 206 523.194C212.875 524.091 225.25 526.162 233.5 527.796C248.826 530.831 275.588 538.113 277.621 539.801C278.242 540.316 279.322 542.867 280.019 545.469C281.538 551.13 287.974 564.349 292.212 570.509C300.92 583.165 316.425 595.836 330.978 602.189C343.594 607.696 349.971 608.854 370.789 609.417L390.078 609.939L395.64 616.7C404.757 627.782 412.787 640.404 419.496 654.2C431.547 678.978 436.776 700.014 438.513 730.7C439.344 745.37 441.434 750.171 450.674 758.639C460.989 768.09 466.328 768.066 476.531 758.522C485.702 749.943 487.658 745.28 488.422 730.178C490.619 686.757 505.452 647.547 531.4 616.569L536.954 609.938L556.227 609.454C573.423 609.022 576.463 608.681 584.438 606.285C602.567 600.839 618.155 590.64 630.113 576.402C636.43 568.881 644.978 552.989 647.039 544.932L648.387 539.665L656.444 537.116C684.966 528.094 724.024 521.378 753 520.513L763.5 520.2L763.163 527.7C762.706 537.866 758.693 561.198 755.509 572.2C744.239 611.143 725.555 643.021 697.373 671.387C685.922 682.913 683.472 684.775 655.356 703.325C638.935 714.16 614.25 730.451 600.5 739.529C586.75 748.606 565.825 762.408 554 770.2C542.175 777.992 519 793.33 502.5 804.284C486 815.238 471.15 824.728 469.5 825.374C465.487 826.944 460.856 826.973 457.365 825.45C455.789 824.762 444.825 816.953 433 808.097C376.275 765.61 303.863 718.189 253 690.219C246.125 686.439 237.992 681.911 234.928 680.158C225.12 674.549 186.046 655.158 168.957 647.419C126.598 628.238 86.277 614.532 52.5 607.833C30.846 603.539 0 600.367 0 602.435C0 607.378 14.65 650.193 22.668 668.683C47.032 724.864 78.934 772.212 121.961 816.052C185.602 880.895 261.754 924.2 350.852 946.215C387.395 955.244 420.502 959.051 463 959.109C499.721 959.16 521.703 957.164 555.5 950.711C679.411 927.053 792.188 851.966 862.669 746.2C915.855 666.387 943.409 575.424 943.394 479.7C943.384 414.08 931.137 353.672 905.5 292.788C862.282 190.151 780.08 102.245 680.194 51.849C624.83 23.915 572.924 8.618 511.5 2.133C497.533 0.657997 448.353 -0.578003 438 0.284997ZM188.5 212.571C191.843 214.648 194.55 216.864 270.503 279.7C375.082 366.219 369.924 362.196 388.375 371.635C401.368 378.282 417.368 383.718 433.22 386.873C449.386 390.09 477.487 390.068 493.926 386.826C508.543 383.943 523.837 378.853 536.5 372.656C554.951 363.627 554.944 363.632 642.5 291.194C656.25 279.818 673.125 265.875 680 260.209C686.875 254.542 702.4 241.716 714.5 231.706C726.6 221.696 737.81 212.826 739.41 211.995C743.902 209.661 752.936 210.651 757.262 213.95C764.498 219.47 764 209.637 764 347.101V470.7L755.25 470.702C726.628 470.71 680.28 477.105 649 485.361C606.975 496.453 568.127 514.355 538.163 536.436C508.963 557.955 485.415 585.109 468.778 616.447L463.377 626.62L460.59 620.91C443.186 585.255 413.512 552.602 375.5 527.281C364.691 520.08 335.717 505.18 322 499.766C280.408 483.353 228.742 472.883 180.25 471.041L163 470.386V346.944C163 208.667 162.416 219.309 170.319 213.584C173.581 211.221 175.311 210.701 179.9 210.704C183.618 210.706 186.508 211.334 188.5 212.571V212.571ZM3291.64 266.294C3220.87 274.422 3161.82 313.484 3129.27 373.7C3106.8 415.265 3098.37 468.393 3106.44 517.499C3119.08 594.425 3168.93 655.317 3240.46 681.212C3287.77 698.337 3341.31 698.999 3389.24 683.052C3419.71 672.911 3448.51 654.717 3469.95 632.069C3477.96 623.609 3489.69 608.932 3488.89 608.38C3488.48 608.096 3457.97 593.159 3429.5 579.3L3412.5 571.025L3404.41 579.223C3387.17 596.698 3364.78 608.028 3339.15 612.25C3325.64 614.474 3300.59 613.798 3288 610.87C3236.41 598.874 3201.75 562.202 3191.33 508.594C3188.75 495.352 3188.75 464.048 3191.33 450.806C3196.8 422.659 3208.55 399.824 3226.97 381.525C3244.38 364.225 3262.41 354.481 3288 348.53C3300.66 345.588 3325.67 344.923 3339.15 347.172C3358.2 350.351 3375.68 357.326 3389.92 367.441C3397.46 372.795 3410.74 385.839 3414.63 391.712C3416.08 393.905 3417.69 395.7 3418.2 395.7C3418.92 395.7 3476.36 356.142 3485.42 349.408C3487.26 348.04 3487.14 347.736 3482.63 341.866C3467.3 321.947 3444.61 302.839 3420.81 289.816C3384.07 269.714 3336.8 261.106 3291.64 266.294V266.294ZM3738.5 265.349C3736.85 265.542 3731.22 266.183 3726 266.773C3681.6 271.795 3637.02 292.767 3604.34 324.01C3562.58 363.928 3540.02 418.251 3540 478.899C3539.99 516.953 3547.06 547.894 3563.01 579.7C3607.49 668.344 3711.43 712.964 3813.54 687.244C3891.07 667.715 3951.07 605.513 3967.43 527.7C3974.04 496.241 3973.69 458.167 3966.5 427.324C3947.94 347.705 3884.57 286.575 3803 269.609C3784.14 265.686 3753.16 263.64 3738.5 265.349V265.349ZM1226.24 311.95L1226.5 352.2L1322.25 352.455C1374.91 352.595 1418 352.949 1418 353.241C1418 353.533 1409.11 364.96 1398.25 378.633C1387.39 392.306 1358.02 429.252 1333 460.734C1307.98 492.217 1282.78 523.931 1277 531.209C1271.22 538.488 1255.36 558.462 1241.75 575.597L1217 606.751V687.7H1527V606.709L1425.36 606.455L1323.72 606.2L1341.66 583.7C1351.53 571.325 1368.38 550.175 1379.1 536.7C1389.83 523.225 1413.86 493.075 1432.5 469.7C1451.14 446.325 1479.8 410.377 1496.19 389.816L1526 352.432V340.729C1526 334.292 1525.7 316.127 1525.34 300.363L1524.68 271.7H1225.98L1226.24 311.95V311.95ZM1752 272.069C1752 272.554 1724.51 346.457 1723.13 349.7C1722.54 351.075 1706.95 392.7 1688.48 442.2C1670.01 491.7 1652.92 537.375 1650.49 543.7C1642.23 565.273 1597 686.536 1597 687.129C1597 687.454 1617.12 687.603 1641.72 687.46L1686.44 687.2L1704.06 638.7L1721.68 590.2H1890.31L1893.59 599.2C1895.39 604.15 1900.31 617.875 1904.53 629.7C1908.74 641.525 1914.44 657.5 1917.19 665.2C1919.94 672.9 1922.86 681.113 1923.69 683.45L1925.19 687.7H1970.09C1994.79 687.7 2015 687.37 2015 686.967C2015 686.564 2012.11 678.576 2008.57 669.217C2005.04 659.858 1984.98 606.3 1964.01 550.2C1943.03 494.1 1924.39 444.375 1922.59 439.7C1920.79 435.025 1905.91 395.313 1889.52 351.45L1859.71 271.7H1805.86C1776.24 271.7 1752 271.866 1752 272.069V272.069ZM2093 479.7V687.7H2176.99L2177.24 612.95L2177.5 538.2L2201 537.963L2224.5 537.726L2236.08 553.963C2242.45 562.893 2255.75 581.45 2265.64 595.2C2275.52 608.95 2290.55 629.875 2299.02 641.7C2307.49 653.525 2318.32 668.6 2323.09 675.2L2331.75 687.2L2383.88 687.459C2412.54 687.601 2436 687.517 2436 687.27C2436 687.024 2433.37 683.308 2430.15 679.012C2387.14 621.63 2321 532.459 2321 531.859C2321 531.432 2324.49 530.044 2328.75 528.774C2366.89 517.415 2395.92 489.307 2406.81 453.2C2411.62 437.257 2412.48 430.299 2412.48 407.2C2412.49 387.946 2412.2 383.838 2410.16 374.289C2397.3 314.058 2354.96 278.559 2289 272.724C2282.23 272.125 2239.56 271.705 2185.25 271.703L2093 271.7V479.7ZM2485.24 311.95L2485.5 352.2L2545.25 352.458L2605 352.716V687.722L2647.25 687.461L2689.5 687.2L2689.75 519.958L2690.01 352.716L2749.75 352.458L2809.5 352.2L2809.76 311.95L2810.02 271.7H2484.98L2485.24 311.95V311.95ZM2912 479.7V687.7H2997V271.7H2912V479.7V479.7ZM3787 349.021C3823.05 357.67 3850.78 378.19 3868.59 409.406C3880.31 429.94 3886.15 453.335 3886.15 479.7C3886.15 507.694 3879.11 533.938 3866.18 554.132C3845.15 586.989 3813.8 606.941 3774.08 612.749C3762.6 614.427 3737.19 613.418 3726 610.839C3681.84 600.657 3647.5 570.067 3633.13 528.113C3627.08 510.446 3625.68 501.298 3625.68 479.7C3625.68 458.102 3627.08 448.954 3633.13 431.287C3648.33 386.89 3684.74 356.1 3732.5 347.245C3745.31 344.87 3773.53 345.789 3787 349.021V349.021ZM2282.72 354.629C2311.87 360.645 2326.94 379.061 2326.99 408.74C2327.02 433.577 2315.72 450.671 2293.9 458.767C2282.56 462.975 2272.33 463.688 2223.25 463.694L2177 463.7V408.867C2177 378.708 2177.3 353.733 2177.67 353.367C2178.03 353 2199.75 352.706 2225.92 352.713C2268.76 352.725 2274.42 352.916 2282.72 354.629ZM1808.27 364.7C1809.12 367.175 1813.4 379.1 1817.78 391.2C1849.64 479.069 1860 508.032 1859.68 508.351C1859.48 508.553 1834.99 508.601 1805.27 508.459L1751.22 508.2L1769.18 458.7C1779.06 431.475 1790.89 398.85 1795.48 386.2C1800.06 373.55 1804.13 362.142 1804.51 360.849C1805.36 357.945 1806.29 358.892 1808.27 364.7Z" fill="white"/>
</g>
<defs>
<clipPath id="clip0_314_2">
<rect width="3973" height="960" fill="white"/>
</clipPath>
</defs>
</svg>
