<svg width="799" height="773" viewBox="0 0 799 773" fill="none" xmlns="http://www.w3.org/2000/svg">
<g clip-path="url(#clip0_1424_4812)">
<path d="M150.637 -339.427C147.087 -301.943 106.74 -248.914 81.6923 -229.269C75.5779 -224.065 68.886 -219.555 61.7714 -215.844C57.7999 -213.749 53.7138 -211.897 49.5397 -210.301C44.5587 -208.295 39.4883 -206.562 34.3544 -205.108C22.4765 -202.053 10.3553 -200.76 -1.57472 -201.273C-10.9443 -201.602 -20.3199 -202.346 -29.6066 -202.934C-36.7228 -203.337 -43.7501 -203.585 -50.3081 -201.389C-60.234 -198.253 -66.9861 -191.55 -69.7696 -180.287C-70.8164 -176.278 -70.9929 -172.183 -70.2876 -168.268C-69.5411 -164.314 -67.9216 -160.638 -65.5342 -157.476C-60.3784 -151.256 -54.0191 -146.083 -46.7546 -142.2C-33.1068 -133.936 -19.2042 -126.032 -6.22604 -116.118C4.31145 -107.987 13.8593 -98.7624 22.271 -88.5859C28.5293 -81.0061 33.9083 -72.7566 38.3256 -63.9634C42.0271 -56.4437 45.0984 -48.6059 47.513 -40.5183C50.6182 -29.3544 52.5584 -17.8197 53.306 -6.07656C53.8723 3.00181 54.1776 12.0248 54.222 20.9928C54.5415 36.9101 55.2049 52.6247 57.1729 68.6152C58.8315 81.2326 60.8398 94.0616 62.0655 106.725C63.2546 118.503 63.1392 130.489 61.7213 142.486C60.0422 158.118 56.2695 172.894 53.4577 188.148C51.702 196.598 51.2133 205.13 52.007 213.476C52.6907 219.599 54.6628 225.406 57.8062 230.554C61.7399 236.663 67.0079 241.811 73.2887 245.684C81.6004 250.782 90.5249 254.981 99.9188 258.211C105.411 260.201 111.074 262.088 116.649 263.82C129.715 267.825 142.691 271.675 155.667 275.524C162.807 277.586 170.037 279.805 177.005 281.969C190.942 286.298 204.88 290.626 218.734 295.212C234.942 300.71 250.902 306.982 267.022 312.324C281.139 317.048 296.062 319.789 311.364 320.469C324.966 321.039 338.744 320.07 352.422 317.582C359.389 316.442 366.249 314.367 372.796 311.419C376.663 309.798 380.431 307.925 384.073 305.813C389.597 302.284 394.596 297.994 398.889 293.099C409.636 280.902 416.706 266.273 421.587 250.216C424.973 239.798 426.488 229.064 426.066 218.5C425.628 210.984 423.637 203.771 420.206 197.275C415.727 189.325 409.854 182.263 402.818 176.367C394.211 168.895 385.61 161.837 376.748 154.724C366.22 146.293 355.347 138.066 345.583 128.557C340.817 123.966 336.508 118.95 332.704 113.565C324.565 102.47 320.653 89.9267 318.81 76.5813C316.694 60.8405 315.823 44.8545 316.203 28.7563C316.25 17.3447 317.096 5.87408 318.736 -5.57722C320.804 -20.6932 324.96 -35.668 331.092 -50.0973C333.604 -56.181 336.727 -61.998 339.673 -68.128C340.05 -69.0144 340.3 -69.936 340.413 -70.8653" stroke="#F2F4F6" stroke-width="1.25" stroke-linecap="round" stroke-linejoin="round"/>
<path d="M-299.572 180.131C-297.137 174.72 -294.784 169.568 -292.521 164.258C-287.662 152.607 -282.714 141.112 -278.205 129.249C-273.993 118.088 -271.19 106.598 -269.861 95.0431C-268.465 83.7614 -267.33 72.4245 -265.673 61.198C-263.407 44.174 -258.526 28.117 -249.713 14.1328C-245.007 6.58361 -239.169 -0.319033 -232.409 -6.3238C-227.566 -10.7714 -222.237 -14.6878 -216.538 -17.9875C-214.475 -19.2046 -212.851 -20.7903 -210.699 -21.8508C-204.936 -25.0414 -199.084 -28.0753 -193.06 -31.2106C-188.411 -33.5345 -183.591 -35.9598 -179.031 -38.4404C-172.148 -42.0829 -165.353 -45.882 -158.476 -49.9392C-153.922 -52.8345 -149.636 -56.1999 -145.26 -59.4085C-141.573 -62.2114 -137.796 -64.8577 -134.281 -67.5592C-131.109 -70.0578 -128.026 -72.713 -125.026 -75.1102C-122.625 -76.945 -120.402 -79.093 -117.912 -80.7712C-112.874 -84.5087 -107.624 -87.955 -102.195 -91.089C-85.9373 -100.052 -68.1186 -103.034 -48.8858 -98.2743C-36.9968 -95.3402 -26.0289 -90.1644 -16.5797 -83.0291C-9.90556 -78.1466 -4.14648 -72.2336 0.498647 -65.4942C3.05169 -62.1427 5.36237 -58.6153 7.41651 -54.9337C12.069 -45.9969 15.2495 -36.3135 16.8545 -26.1985C19.5103 -10.6136 18.3472 4.71452 17.184 20.0423C16.0207 35.3702 14.4304 51.1587 16.7423 66.9464C17.7112 73.9048 19.03 81.0753 20.4318 87.9875C23.1402 101.24 26.1924 114.29 27.3412 127.627C28.2746 137.393 28.0709 147.333 26.734 157.268C25.237 167.564 23.1354 178.007 21.6384 188.303C20.1354 198.183 18.5434 207.908 19.4778 218.442C20.0926 226.501 22.4035 234.2 26.273 241.081C30.1425 247.961 35.4915 253.883 42.0013 258.492C47.5317 262.359 53.4405 265.73 59.6641 268.57C65.3777 271.339 71.3229 273.703 77.4567 275.644C85.908 278.398 94.2641 280.58 102.798 283.075C105.847 283.996 108.806 284.76 111.682 285.783C129.629 291.511 147.658 296.98 165.438 303.225C179.92 308.161 193.942 314.076 207.405 320.928C222.695 328.85 237.903 337.03 253.104 344.796C267.197 352.031 283.002 356.175 299.499 356.959C312.166 357.435 324.903 356.823 337.38 356.156C352.11 355.415 366.668 354.775 381.22 353.72C387.112 353.357 392.999 352.14 398.683 350.112C407.103 347.066 414.421 341.342 419.344 333.949C426.323 323.832 432.159 313.092 436.739 301.934C443.618 286.163 450.498 270.391 457.028 254.407C461.045 244.507 464.713 234.396 468.03 224.072C471.02 214.913 472.12 205.443 471.265 196.227C470.714 190.814 469.232 185.611 466.878 180.827C462.248 171.52 455.371 163.561 446.767 157.551C435.545 149.111 424.239 140.93 412.845 132.592C401.711 124.313 391.632 114.834 382.776 104.314C376.572 96.6196 371.331 88.2082 367.148 79.23C362.082 68.6386 358.703 57.2473 357.116 45.4071C355.418 34.5473 354.878 23.4439 355.504 12.2639C356.295 -1.07433 358.898 -14.4246 363.247 -27.4442C363.487 -28.4211 363.618 -29.4101 363.638 -30.3937" stroke="#F2F4F6" stroke-width="1.25" stroke-linecap="round" stroke-linejoin="round"/>
<path d="M-313.729 154.805C-306.254 141.435 -300.264 127.45 -295.869 113.103C-292.99 103.193 -291.019 93.1403 -289.978 83.0641C-288.908 73.2295 -287.316 63.5051 -286.157 53.8272C-284.544 41.5797 -281.251 29.437 -276.366 17.7224C-271.36 5.45857 -263.951 -5.95224 -254.572 -15.8417C-250.043 -20.396 -245.514 -24.9503 -240.807 -29.1913C-237.552 -31.948 -233.941 -34.0782 -230.508 -36.5215C-227.846 -38.3011 -225.101 -40.3389 -222.35 -41.9617C-218.396 -44.2947 -214.352 -46.4708 -210.22 -48.4904C-206.004 -50.7681 -201.527 -52.9904 -197.134 -54.9548C-188.568 -58.9284 -180.259 -63.4808 -172.274 -68.5747C-167.892 -71.3686 -163.778 -74.6325 -159.574 -77.7397C-149.365 -85.2265 -140.746 -94.7038 -131.86 -103.711C-127.42 -108.422 -122.89 -112.976 -118.011 -117.319C-110.338 -124.407 -100.399 -128.623 -90.2625 -129.087C-80.112 -129.303 -70.1156 -128.161 -60.5577 -125.694C-47.0537 -122.516 -34.2785 -117.446 -22.6182 -110.635C-8.30716 -102.824 4.05902 -92.3013 13.8203 -79.63C16.5612 -76.0177 19.3022 -72.4053 21.7881 -68.4336C24.3879 -64.4637 26.7353 -60.3317 28.8192 -56.0575C31.3685 -49.9667 33.5444 -43.7083 35.3365 -37.3122C38.7796 -24.5992 40.3736 -11.3276 40.0755 2.14345L39.5896 40.0799C39.5536 53.3997 40.6747 66.5913 42.9411 79.5176C44.8485 91.3607 46.9337 103.517 48.3192 115.249C49.7877 127.641 49.5067 140.328 47.4834 152.974C45.6486 163.887 43.553 174.745 41.6292 185.502C39.96 193.636 39.0063 201.826 38.7788 209.982C38.6747 219.494 41.1702 228.624 46.0161 236.46C48.5623 240.471 51.8051 243.997 55.6201 246.9C63.5107 253.397 72.6499 258.41 82.6306 261.714C89.8662 264.348 96.9297 267.083 104.159 269.302C115.92 273.032 127.846 276.245 139.69 279.717C142.999 280.693 146.569 281.724 149.967 282.857C155.542 284.588 161.117 286.319 166.52 288.152C174.621 290.694 182.895 293.134 191.002 296.091C202.858 300.392 214.719 305.107 226.492 309.666C235.388 313.203 244.201 316.998 253.181 320.277C260.505 323.067 267.83 325.858 275.32 328.133C285.941 331.292 297.069 333.092 308.435 333.488C316.156 333.744 323.788 333.843 331.586 333.427C345.882 333.009 360.242 330.862 374.328 327.037C382.33 324.711 389.971 321.053 396.889 316.238C404.073 310.923 410.177 304.331 414.815 296.878C421.427 286.767 426.996 276.122 431.433 265.112C435.194 255.727 438.441 246.2 441.16 236.574C443.432 228.444 444.594 220.161 444.616 211.946C444.629 204.125 442.644 196.606 438.833 190.049C433.93 181.497 427.357 174.034 419.434 168.026C411.622 161.549 403.555 155.431 395.66 149.212C385.821 141.753 376.496 133.705 367.734 125.108C361.847 119.314 356.506 113.021 351.764 106.292C347.601 100.106 344.024 93.5396 341.072 86.663C335.41 73.0605 333.122 58.9319 331.701 44.7108C330.137 29.4558 330.317 13.9208 332.237 -1.62213C333.892 -15.3399 337.426 -28.9607 342.744 -42.1238C344.332 -46.198 346.181 -50.2169 347.941 -54.3926C348.104 -55.0081 348.211 -55.6313 348.26 -56.2545" stroke="#F2F4F6" stroke-width="1.25" stroke-linecap="round" stroke-linejoin="round"/>
<path d="M-305.541 169.216C-300.415 158.034 -295.461 146.955 -290.424 135.617C-284.758 122.289 -280.879 108.466 -278.886 94.5063C-277.3 84.3674 -276.585 73.9062 -275.26 63.7121C-273.32 48.1352 -270.07 33.2492 -263.592 19.5974C-255.403 2.54985 -242.495 -12.3275 -226.413 -23.2523C-220.484 -26.9591 -214.816 -30.721 -208.709 -34.1144C-204.239 -36.7516 -199.673 -38.8174 -195.025 -41.1413C-190.72 -43.2623 -186.499 -45.1253 -182.372 -47.5596C-174.973 -51.5064 -167.662 -55.6098 -160.613 -59.7685C-156.624 -62.3689 -152.785 -65.1928 -149.117 -68.2234C-144.914 -71.3306 -140.799 -74.5946 -136.685 -77.8585C-133.258 -80.7166 -129.749 -83.8328 -126.233 -86.5342C-122.717 -89.2357 -119.38 -92.2505 -115.775 -94.7953C-111.655 -97.6444 -107.273 -100.438 -102.975 -102.974C-94.7547 -107.552 -85.6719 -110.178 -76.5527 -110.613C-63.8212 -111.639 -50.9521 -109.191 -38.4856 -104.623C-26.1517 -100.03 -15.0284 -93.1904 -5.674 -84.447C-0.19315 -79.331 4.76333 -73.7164 9.13874 -67.6673C17.6215 -55.478 23.2277 -41.4835 25.608 -26.5556C28.0797 -11.6988 27.5091 2.6518 26.7666 17.1039C26.2365 28.2932 25.7066 39.4829 25.6094 50.626C25.8198 61.8991 27.1438 73.0238 29.5636 83.8514C31.9989 96.2197 34.7782 108.385 35.9148 120.892C37.1372 132.538 36.8742 144.422 35.1316 156.285C33.7823 164.82 32.1721 173.3 30.6509 181.936C28.9759 191.918 27.0399 201.845 27.0196 212.316C26.9453 220.11 28.5364 227.68 31.6944 234.56C34.8524 241.439 39.5103 247.481 45.3802 252.312C52.86 258.291 61.3136 263.098 70.4749 266.581C75.9668 268.571 81.2929 271.076 86.8677 272.808C98.1064 276.427 109.511 279.53 120.743 282.734L130.41 285.607C147.574 291.169 164.559 296.418 181.557 302.497C198.957 308.789 215.882 316.053 232.254 324.253C245.877 330.858 259.412 337.306 273.61 341.689C283.392 344.669 293.642 346.422 304.122 346.907C310.716 347.2 317.304 347.078 323.893 346.957C338.591 346.627 353.34 345.469 368.065 343.489C375.409 342.575 382.708 340.932 389.844 338.589C395.336 336.534 400.513 333.621 405.153 329.976C416.986 320.904 424.252 307.832 430.819 294.337C435.874 284.243 440.407 274.039 444.59 263.623C449.105 252.175 453.531 240.569 457.085 228.642C459.873 220.031 460.979 211.145 460.344 202.456C459.984 197.35 458.8 192.404 456.835 187.793C452.965 178.154 446.096 170.911 438.373 164.59C427.934 156.316 417.239 148.402 406.716 140.386C396.255 132.571 386.559 123.881 377.722 114.403C372.841 108.849 368.353 102.974 364.285 96.8116C357.081 85.6221 351.895 73.219 348.92 60.0686C344.685 42.1339 343.562 23.3734 345.593 4.51074C347.087 -10.2013 350.666 -24.841 356.229 -38.9955C356.395 -39.5117 356.383 -40.3412 356.549 -40.8574" stroke="#F2F4F6" stroke-width="1.25" stroke-linecap="round" stroke-linejoin="round"/>
<path d="M-270.307 230.843C-269.561 228.52 -268.642 226.096 -267.896 223.773C-262.321 207.725 -256.746 191.677 -250.821 175.841C-246.478 164.494 -241.352 153.312 -236.659 142.177C-231.209 128.974 -226.91 115.451 -223.81 101.758C-221.69 92.5592 -219.742 83.4618 -217.622 74.2629C-215.33 63.6297 -210.977 53.3222 -204.799 43.8991C-201.721 39.3152 -198.148 35.0323 -194.147 31.1312C-189.396 26.7209 -184.388 22.5792 -179.154 18.7306C-174.523 15.1625 -169.804 11.7507 -164.996 8.49591C-161.563 6.05254 -158.124 4.02388 -154.603 1.73717C-152.457 0.2619 -150.482 -1.11168 -148.336 -2.58695C-144.903 -5.03033 -141.388 -7.73183 -138.044 -10.3319C-135.471 -12.2681 -132.637 -14.1492 -130.153 -16.2421C-127.153 -18.6393 -124.159 -21.451 -120.987 -23.9496C-116.701 -27.3149 -112.415 -30.6803 -108.039 -33.889C-103.664 -37.0976 -99.2887 -40.3062 -94.8244 -43.3582C-92.6781 -44.8334 -90.0041 -45.7836 -87.5969 -47.2036C-81.6105 -50.4889 -75.0594 -52.4943 -68.4327 -53.0705C-60.7214 -53.9283 -53.1556 -52.4713 -46.7807 -48.9011C-35.9446 -43.1619 -29.3889 -33.6431 -26.4378 -21.5791C-24.5017 -13.5122 -23.9682 -5.0681 -24.8581 3.42582C-25.9809 15.5923 -27.6255 27.6482 -29.0093 39.7594C-30.2787 51.6101 -29.9018 63.4177 -27.8889 74.866C-25.7145 87.1791 -21.6368 99.2056 -18.2528 111.223C-15.582 120.242 -13.6207 129.501 -12.3848 138.928C-10.5118 154.347 -12.1972 169.564 -14.0603 184.468C-15.4501 196.164 -16.9287 207.705 -16.148 219.585C-15.3431 233.124 -12.119 246.073 -4.14521 257.684C0.933158 265.155 7.2261 271.737 14.5231 277.209C25.0042 284.827 36.7496 290.796 49.3799 294.924C62.2793 299.446 75.2493 302.88 88.2316 307.143C102.697 311.997 117.417 316.491 131.473 323.049C144.829 329.184 157.676 336.038 169.178 345.777C177.771 352.546 184.654 361.086 189.401 370.869C193.882 380.775 194.543 390.425 191.474 399.975C188.08 410.971 180.64 418.08 171.966 423.824C168.635 425.789 165.218 427.595 161.727 429.237C157.339 431.616 152.685 433.525 148.386 436.061C140.477 440.727 132.568 445.393 124.926 450.529C119.461 454.229 114.246 458.284 109.322 462.662C100.666 470.011 93.4044 478.769 87.9345 488.456C84.2061 494.528 82.2599 501.337 82.3251 508.08C82.2739 511.302 82.9687 514.424 84.3594 517.221C85.75 520.018 87.8016 522.42 90.3656 524.254C94.2024 526.902 98.7536 528.528 103.615 528.988C113.341 529.944 121.873 526.374 130.138 522.335C132.373 521.12 134.476 519.669 136.405 518.011C140.978 514.799 145.385 511.361 149.608 507.712C158.927 498.659 168.068 489.292 177.387 480.239C180.969 476.647 184.87 473.364 189.036 470.438C192.748 468.074 196.599 465.942 200.562 464.057C204.836 462.123 209.406 461.068 213.957 460.965C223.92 460.317 233.842 462.831 243.355 467.05C259.238 473.995 271.119 486.02 280.535 501.381C289.417 515.803 296.58 531.24 306.405 544.896C310.303 550.545 314.372 556.092 318.786 561.437C326.506 570.776 335.195 579.306 344.738 586.914C351.056 591.973 357.201 597.133 363.518 602.191C365.885 603.932 368.423 605.572 370.79 607.313C397.693 625.337 450.463 667.884 462.5 693.884C475 720.884 492.5 792.383 499 801.883" stroke="#F2F4F6" stroke-width="1.25" stroke-linecap="round" stroke-linejoin="round"/>
<path opacity="0.8" d="M-263.447 243.324C-259.371 231.507 -255.467 219.792 -251.563 208.076C-245.751 190.424 -238.361 173.934 -231.15 157.13C-226.374 145.736 -221.426 134.242 -217.439 122.268C-212.865 108.902 -209.341 94.9012 -205.207 81.1671C-202.001 69.3587 -196.384 58.0731 -188.696 48.0004C-183.949 42.0237 -178.459 36.605 -172.37 31.8852C-166.453 27.349 -160.448 22.9692 -154.531 18.4329C-152.901 17.2619 -151.442 16.1927 -149.812 15.0217C-145.863 12.274 -142.176 9.47107 -138.316 6.56674C-135.743 4.63052 -132.998 2.59269 -130.425 0.656471C-126.909 -2.045 -123.483 -4.9029 -120.228 -7.6596C-116.973 -10.4163 -113.541 -12.8598 -110.197 -15.4599C-106.223 -18.8783 -102.072 -22.0949 -97.7645 -25.0946C-92.229 -28.8526 -86.3067 -31.9952 -80.1256 -34.4544C-72.0965 -37.5443 -63.4277 -37.5436 -56.02 -34.452C-50.4544 -31.8829 -46.0281 -27.6223 -43.3552 -22.2614C-41.1245 -17.8418 -39.7064 -13.0245 -39.1581 -8.00419C-38.3149 1.3381 -38.6123 10.8489 -40.0443 20.3377C-41.6564 31.7043 -42.475 43.0885 -42.4944 54.4126C-42.2353 65.5688 -40.5611 76.5214 -37.5085 87.0295C-34.3025 98.7339 -30.7525 110.236 -27.2026 121.737C-23.0258 136.007 -21.3706 151.068 -22.3019 166.327C-23.0161 176.788 -23.9911 187.194 -24.8772 197.757C-26.2492 211.378 -25.378 224.914 -22.2964 237.858C-20.486 244.409 -17.9233 250.681 -14.6526 256.566C-8.77928 266.025 -1.31354 274.394 7.47471 281.372C17.9162 289.157 29.6678 295.268 42.3375 299.501C55.4978 304.078 68.907 307.881 82.1503 312.2C94.7294 316.151 107.012 320.775 118.945 326.052C130.566 331.068 141.302 337.603 150.878 345.491C157.73 351.489 163.982 358.05 167.668 366.961C170.422 373.421 170.893 380.756 169.015 387.92C167.108 394.923 163.128 401.421 157.582 406.587C153.562 410.422 149.193 414.046 144.996 417.568C141.225 420.629 137.283 423.791 133.423 426.696C130.423 429.093 127.328 430.918 124.328 433.316C120.386 436.478 116.444 439.641 112.679 443.116C106.431 448.685 100.01 454.355 94.0286 460.394C87.5116 467.028 81.6868 474.25 76.6544 481.938C71.3971 490.059 66.8396 498.604 65.3426 508.9C64.5407 513.693 64.8935 518.493 66.3728 522.92C67.8521 527.348 70.4176 531.281 73.8665 534.41C82.6576 542.61 92.8342 544.764 103.324 544.642C112.221 544.453 121.14 542.071 129.237 537.722C134.573 534.853 139.74 531.665 144.705 528.178C145.82 527.312 147.106 526.344 148.221 525.477C151.221 523.08 154.132 520.526 157.042 517.972L169.119 507.711C173.887 503.445 178.896 499.442 184.118 495.725C189.744 491.744 195.817 488.442 202.184 485.904C210.089 482.983 218.459 482.09 226.425 483.317C239.288 485.35 250.652 491.615 260.677 501.179C269.913 510.163 277.263 520.677 284.614 531.191C288.245 536.37 291.704 541.65 295.507 546.728C300.016 552.644 304.524 558.56 309.288 564.116C320.583 577.533 333.752 588.589 347.258 599.028C352.697 603.35 358.308 607.569 363.748 611.891C396.164 637.388 461.998 669.384 461.998 721.384C461.998 770.061 465.996 789.55 470.997 805.884" stroke="#F2F4F6" stroke-width="1.25" stroke-linecap="round" stroke-linejoin="round"/>
<path d="M209.409 -301.463C206.978 -301.702 204.457 -302.098 202.026 -302.337C195.686 -302.989 189.347 -303.642 183.096 -304.138C177.824 -304.69 172.342 -303.581 167.448 -300.972C164.062 -298.821 161.094 -296.074 158.722 -292.896C154.383 -287.199 150.655 -281.235 146.665 -275.326C134.602 -256.435 120 -239.02 103.286 -223.589C99.7763 -220.473 96.2667 -217.357 92.5791 -214.554C87.777 -210.884 82.7968 -207.528 77.9056 -204.015C74.9544 -201.718 71.7862 -199.708 68.4549 -198.022C62.9468 -195.191 56.9109 -192.885 51.3138 -190.21C43.7026 -186.851 35.8435 -184.176 27.8451 -182.222C22.9236 -180.783 17.9899 -180.174 12.9794 -178.891C4.68386 -176.926 -3.52877 -175.219 -11.5573 -172.783C-16.8227 -171.141 -21.465 -168.403 -23.6335 -162.522C-25.0372 -158.639 -24.9151 -154.528 -23.2917 -151.01C-20.9474 -144.863 -16.4629 -140.606 -12.1503 -136.248C-3.61415 -127.688 5.25981 -119.745 13.9679 -111.286C22.2104 -103.545 29.7009 -95.0909 36.362 -86.0109C39.4589 -81.772 42.4728 -77.275 45.3978 -72.9347C47.4388 -69.7462 49.7407 -66.5025 51.5268 -62.9545C56.4083 -53.5082 60.2992 -43.5473 63.1474 -33.2059C65.3502 -24.8837 66.9481 -16.4139 68.2851 -7.99939C70.864 8.25832 71.0177 24.6919 72.4699 40.9868C73.7259 55.7241 75.6756 70.4702 77.4535 85.318C79.6298 103.696 80.8514 122.009 78.8587 139.918C77.7016 150.738 75.9493 161.547 73.6093 172.298C72.1406 178.602 70.6721 184.907 69.4645 191.267C67.6807 199.8 67.1643 208.417 67.931 216.854C68.9362 225.736 72.8789 233.807 79.1936 239.911C85.5447 246.119 93.1039 251.079 101.519 254.56C115.315 261.063 129.767 265.087 143.883 269.728C152.334 272.482 160.951 274.719 169.485 277.214C178.802 279.876 188.208 282.693 197.697 285.253C220.334 291.56 242.734 299.471 265.212 306.71C278.127 311.139 291.629 314.181 305.492 315.786C320.796 317.564 336.542 316.894 352.113 313.802C358.38 312.679 364.538 310.736 370.412 308.027C373.08 306.662 376.015 305.767 378.594 304.246C389.75 297.61 398.888 288.064 404.814 276.856C408.347 270.297 411.071 263.421 412.926 256.383C415.034 248.2 415.877 239.876 415.426 231.69C414.993 225.389 413.407 219.316 410.741 213.747C405.727 202.9 397.719 194.865 389.195 187.134C378.668 178.002 367.603 169.45 356.043 161.511C349.732 156.868 343.249 152.326 336.849 147.526C329.855 142.454 323.623 136.506 318.294 129.816C312.385 122.041 308.706 112.789 307.582 102.878C306.018 90.8323 306.714 79.1271 307.149 67.3663C307.797 52.3428 308.616 37.2176 309.696 22.1479C310.358 14.0185 311.541 5.99961 312.725 -2.01931C315.182 -18.3611 319.996 -34.5094 327.024 -49.9871C330.212 -57.3061 334.1 -64.2017 337.638 -71.3088C337.904 -72.0861 338.241 -72.8449 338.646 -73.5761" stroke="#F2F4F6" stroke-width="1.25" stroke-linecap="round" stroke-linejoin="round"/>
<path opacity="0.6" d="M-256.416 255.277C-253.673 247.175 -250.497 239.027 -247.843 230.768C-242.777 215.439 -237.801 199.953 -231.514 185.159C-225.648 171.24 -219.082 157.745 -212.955 143.881C-206.069 128.524 -200.844 112.264 -195.441 96.3179C-192.693 87.7988 -189.219 79.4512 -185.053 71.3652C-180.104 62.2982 -173.657 53.967 -165.99 46.7326C-162.226 43.2568 -158.2 39.8363 -154.258 36.6739C-151.258 34.2768 -147.908 32.0917 -144.819 29.8512C-141.215 27.3063 -137.96 24.5496 -134.355 22.0048C-130.496 19.1004 -126.286 16.4078 -122.338 13.6602L-117.447 10.1472C-113.498 7.39954 -109.899 4.44025 -105.951 1.69259C-103.535 0.266551 -101.211 -1.31416 -98.9965 -3.03753C-93.9244 -7.18652 -88.0327 -10.233 -81.7845 -11.9367C-77.4046 -13.4006 -72.7729 -13.3033 -68.7738 -11.6636C-62.0602 -9.14001 -59.2889 -3.45388 -57.8932 3.04358C-56.8025 9.72578 -56.5277 16.5819 -57.0742 23.477C-57.7026 34.9116 -57.594 46.3038 -56.7489 57.5881C-55.8138 66.4789 -54.1494 75.2182 -51.771 83.7258C-49.9424 90.177 -47.5983 96.3237 -45.5978 102.673C-42.5171 111.733 -39.1754 120.847 -36.6996 130.054C-32.8109 145.192 -31.4672 161.054 -32.7171 177.068C-33.407 189.188 -34.2689 201.41 -34.2649 213.539C-34.2666 235.026 -27.2368 255.315 -14.1671 271.544C-5.41843 282.081 5.54424 290.673 18.1125 296.845C31.3927 303.276 45.2707 308.656 59.6224 312.935C76.175 318.231 92.7214 323.111 108.788 330.784C120.128 335.765 130.362 342.586 139.086 350.979C143.896 355.414 147.503 360.934 149.64 367.133C152.07 374.434 151.479 382.617 147.982 390.074C144.513 397.24 139.656 403.803 133.697 409.378C127.626 415.26 121.466 420.985 115.307 426.711C109.746 431.874 104.014 437.138 98.5418 442.458C92.5603 448.496 86.5789 454.535 80.7754 460.887C73.2457 468.913 66.6768 477.706 61.2146 487.068C56.1353 495.502 51.8448 504.518 50.7868 515.182C50.1453 521.219 50.9917 527.178 53.2563 532.569C55.5209 537.96 59.139 542.629 63.8133 546.193C72.9556 553.516 84.5403 557.655 96.9366 558.027C108.296 558.649 119.919 556.141 130.475 550.792C136.555 547.482 142.466 543.856 148.178 539.93C149.605 538.912 150.979 537.822 152.293 536.666C155.293 534.269 158.547 531.512 161.547 529.115C164.547 526.718 167.808 524.376 170.808 521.979C174.435 518.766 178.243 515.752 182.208 512.953C189.685 508.333 197.072 503.557 205.622 501.232C214.508 498.744 223.707 498.773 232.07 501.317C244.697 504.954 255.219 512.97 264.041 523.244C272.595 533.048 280.639 543.572 288.856 553.994C295.127 561.799 301.741 569.401 308.782 576.542C318.592 585.843 328.937 594.611 339.775 602.81C345.304 607.288 351.176 611.563 356.876 615.94C381.25 630.588 433.098 665.983 445.498 690.383C460.998 720.883 439.498 779.384 453.998 802.884" stroke="#F2F4F6" stroke-width="1.25" stroke-linecap="round" stroke-linejoin="round"/>
<path d="M-290.7 194.136C-289.029 189.803 -287.447 185.315 -285.604 180.881C-280.165 167.423 -274.547 154.278 -269.108 140.82C-261.861 122.399 -257.237 103.337 -255.369 84.1882C-253.831 70.7313 -252.205 57.4311 -248.663 44.6742C-246.657 37.4072 -243.638 30.3466 -239.691 23.6943C-236.023 17.3961 -231.429 11.5833 -226.069 6.45547C-220.752 1.10073 -214.785 -3.61501 -208.325 -7.56802C-198.436 -13.1929 -188.196 -18.606 -178.307 -24.2309C-169.366 -29.5053 -160.514 -34.9365 -151.751 -40.5242C-147.542 -43.2167 -143.421 -46.0659 -139.39 -49.0716C-133.728 -53.2484 -128.333 -57.8948 -122.76 -62.2282C-117.703 -66.2573 -112.557 -70.1299 -107.061 -73.7905C-102.718 -76.5241 -98.2383 -79.0274 -93.6439 -81.2875C-88.844 -83.7616 -83.7558 -85.5644 -78.5475 -86.637C-67.0455 -89.2628 -55.3199 -88.8775 -44.6273 -85.5219C-36.8067 -83.2399 -29.572 -79.6583 -23.2281 -74.9283C-19.0074 -71.6337 -15.0979 -67.9951 -11.5364 -64.0465C-7.45348 -59.8072 -4.13573 -54.9214 -1.69967 -49.5604C0.275246 -45.6065 1.98562 -41.5162 3.42195 -37.3125C7.12093 -26.2362 8.55875 -14.3858 7.6613 -2.3731C6.72865 10.9362 5.27416 24.135 4.08057 37.389C2.90555 50.3318 3.50196 63.2021 5.85423 75.666C8.1055 87.3062 11.0505 98.9552 13.5627 110.651C15.4935 119.265 16.6666 128.087 17.07 137.028C17.3232 150.16 16.2391 163.409 13.8331 176.588C12.5668 184.865 10.8616 192.773 10.0281 201.004C8.54388 211.532 9.13885 222.042 11.7814 231.972C14.0116 239.933 17.9214 247.227 23.2808 253.425C29.7424 260.72 37.6448 266.689 46.6035 271.041C58.1049 276.661 70.216 281.208 82.7874 284.627C95.0638 288.052 107.257 291.735 119.54 295.575C130.428 298.982 141.151 302.906 151.874 306.829C160.331 309.998 168.967 313.479 177.258 317.164C190.361 322.871 202.869 329.62 214.665 337.348C224.298 343.797 233.759 350.347 243.474 356.539C252.331 362.703 262.183 367.527 272.732 370.862C284.053 374.224 295.409 374.009 306.676 373.637C317.51 373.312 328.071 372.101 338.817 371.619C351.511 371.05 364.078 371.997 376.23 374.438C381.76 375.611 386.992 377.601 391.751 380.342C394.424 381.801 396.611 383.915 398.117 386.496C399.623 389.076 400.4 392.041 400.378 395.124C400.427 398.978 400.018 402.868 399.16 406.719C397.044 415.177 393.781 423.433 389.461 431.265C381.895 444.812 371.935 457.139 360.077 467.634C353.038 473.648 346.57 480.266 340.77 487.391C333.681 496.841 330.511 508.262 331.956 519.154C332.7 528.546 336.38 537.042 340.836 545.29C343.485 550.032 346.567 554.511 350.049 558.68C358.68 568.947 368.275 578.401 378.731 586.94C382.503 589.944 386.193 593.205 389.882 596.467C413.253 615.272 462.501 657.152 475.996 670.883C504.498 699.883 544.497 787.383 553.497 801.383" stroke="#F2F4F6" stroke-width="1.25" stroke-linecap="round" stroke-linejoin="round"/>
<path d="M-283.027 208.436C-282.944 208.178 -282.689 207.818 -282.606 207.56C-279.022 197.706 -275.615 187.539 -271.77 177.741C-266.751 165.159 -261.643 152.733 -256.536 140.307C-250.011 123.612 -245.602 106.396 -243.411 89.0587C-242.191 77.9387 -240.298 66.8343 -237.741 55.8029C-234.969 44.0554 -229.498 32.8155 -221.746 22.9408C-214.391 14.3313 -205.634 6.89937 -195.881 0.988297C-178.438 -9.9291 -160.277 -19.1782 -143.629 -31.0908C-140.884 -33.1284 -138.05 -35.0095 -135.394 -37.2039C-131.879 -39.9053 -128.713 -42.8185 -125.197 -45.5199C-121.682 -48.2214 -117.905 -50.8677 -114.217 -53.6706C-109.973 -57.0426 -105.562 -60.2038 -101.002 -63.1399C-96.2602 -66.0061 -91.3421 -68.5579 -86.2864 -70.7754C-81.6394 -72.9905 -76.6968 -74.4183 -71.6938 -74.9913C-61.8601 -76.4911 -52.0392 -75.5056 -43.2108 -72.1327C-24.8135 -65.2067 -12.7355 -51.6244 -6.63896 -32.0035C-3.68457 -22.1109 -2.62134 -11.6218 -3.49793 -1.0176C-4.60858 11.9784 -6.33003 24.7073 -7.52968 37.5466C-9.21769 53.3039 -8.22704 68.9712 -4.59713 83.9247C-1.65205 95.5739 1.29313 107.223 3.80533 118.919C6.55187 130.73 7.43299 143.036 6.42043 155.444C4.97197 169.058 2.91852 182.819 1.20912 196.377C-0.266101 206.681 -0.348414 216.996 0.964125 227.06C2.63971 238.149 7.13407 248.417 14.0615 256.983C19.5156 263.609 26.1262 269.243 33.6421 273.67C48.6896 282.781 64.975 287.606 81.0886 292.532C91.5384 295.571 102.071 298.352 112.438 301.649C120.539 304.191 128.386 307.092 136.232 309.993C143.468 312.627 150.359 315.464 157.34 318.457C175.631 326.153 192.592 336.181 207.809 348.297C216.232 355.041 223.979 363.021 231.809 370.742C239.111 377.939 246.076 385.752 254.658 391.566C261.21 396.256 269.028 399.189 277.415 400.104C287.312 400.958 296.474 398.9 305.896 396.898C316.528 394.6 326.988 392.404 337.917 392.649C344.514 392.48 350.913 393.788 356.616 396.47C364.652 400.514 368.295 406.522 367.907 415.536C367.628 420.797 366.039 426.039 363.274 430.819C357.863 440.286 350.423 447.394 342.455 453.977C337.054 458.209 331.564 462.284 326.602 466.885C319.992 472.871 315.589 480.733 314.18 489.064C312.829 497.903 313.253 506.745 315.428 515.1C316.776 521.393 318.901 527.44 321.761 533.118C325.327 539.799 328.721 546.581 332.975 552.857C338.222 560.392 344.309 567.314 351.14 573.516C361.509 582.877 372.044 591.723 382.667 600.725C403.944 616.611 449.143 653.161 463.498 668.883C494.998 703.384 511.998 775.883 529.998 799.883" stroke="#F2F4F6" stroke-width="1.25" stroke-linecap="round" stroke-linejoin="round"/>
<path d="M223.386 -276.862C221.857 -276.808 220.325 -276.672 218.796 -276.455C213.347 -275.541 207.725 -274.525 202.454 -273.298C195.537 -271.858 188.673 -270.044 181.896 -267.864C177.444 -266.277 173.163 -264.173 169.154 -261.602C163.048 -257.295 157.153 -252.7 151.493 -247.837C143.187 -240.636 135.06 -233.122 126.843 -225.765C120.595 -220.196 114.263 -214.37 108.015 -208.801C105.104 -206.247 101.843 -203.905 98.8432 -201.508C94.7288 -198.244 90.7861 -195.082 86.5827 -191.975C84.7804 -190.702 83.0671 -189.273 81.3478 -188.259C72.324 -182.726 63.1283 -177.092 54.1045 -171.56C50.1499 -169.227 45.6674 -167.419 41.8908 -164.773C37.0826 -161.518 32.3573 -158.521 28.611 -153.801C23.5903 -147.284 22.8277 -140.141 26.6729 -132.16C28.9991 -127.257 31.4972 -122.456 34.3392 -117.857C37.1812 -113.259 40.711 -109.066 43.7249 -104.569C46.1158 -101.169 48.1628 -97.566 50.7256 -94.2671C56.6172 -85.8485 61.9296 -77.0374 66.6328 -67.8836C69.8006 -61.9152 72.6117 -55.7532 75.0535 -49.4247C78.8823 -39.5719 81.8443 -29.3582 83.9108 -18.8829C85.9659 -8.80027 87.6772 1.48536 89.4713 11.5127C91.3726 22.941 93.0131 34.3142 94.8254 45.5858C96.2635 54.9865 97.7016 64.3872 99.3116 73.6865C102.625 94.1574 102.407 115.336 98.6677 136.398C97.4661 143.172 96.3535 150.104 94.8909 156.823C92.777 166.437 90.1412 175.94 88.1993 185.452C86.1756 194.003 85.5994 202.682 86.4938 211.14C86.9969 216.346 88.6969 221.269 91.4736 225.563C94.1917 229.442 97.4162 232.947 101.078 236.003C108.897 242.233 117.805 247.141 127.477 250.549C135.413 253.607 143.437 256.821 151.449 259.206C162.86 262.724 174.265 265.827 185.669 268.93C193.331 271.103 200.905 273.12 208.478 275.136C219.883 278.239 231.287 281.342 242.781 284.602C246.784 285.587 250.621 287.088 254.624 288.073C271.693 293.064 288.5 297.999 305.864 299.469C320.452 300.903 335.01 300.263 348.737 296.14C353.226 294.747 357.619 292.783 361.93 291.076C368.764 288.049 374.846 283.453 379.597 277.726C384.021 272.445 387.33 266.43 389.311 260.073C391.693 252.94 392.501 245.544 391.682 238.385C390.609 229.233 387.178 220.697 381.693 213.53C373.744 202.643 363.682 193.418 351.987 186.293C338.25 177.873 324.176 170.07 310.273 162.166C303.231 158.331 296.786 153.634 291.079 148.18C287.789 144.914 284.889 141.299 282.423 137.39C277.982 130.121 275.846 121.607 276.254 112.792C276.753 104.47 278.261 96.1394 280.747 87.9695C284.79 73.7417 288.054 59.3879 290.523 44.9705C292.678 32.1954 293.871 18.9416 295.765 6.11129C298.221 -9.7699 301.288 -25.384 306.709 -40.0862C310.182 -49.7603 314.391 -59.236 319.301 -68.4312C322.762 -74.8655 326.573 -81.088 330.034 -87.5222C330.321 -88.195 330.543 -88.8865 330.698 -89.5871" stroke="#F2F4F6" stroke-width="1.25" stroke-linecap="round" stroke-linejoin="round"/>
<path opacity="0.4" d="M-249.133 267.289C-249.05 267.031 -248.795 266.671 -248.712 266.413C-242.935 252.337 -238.64 237.672 -233.913 222.961C-228.818 207.264 -222.731 191.797 -215.687 176.651C-208.795 161.709 -201.814 146.923 -195.011 131.824C-188.209 116.725 -183.067 100.723 -175.475 86.2049C-171.522 78.3303 -166.428 70.9548 -160.36 64.3203C-155.786 59.0077 -150.513 54.2769 -144.698 50.2696C-138.431 45.9452 -132.425 41.5659 -125.98 37.5549C-122.05 35.2801 -117.996 33.2379 -113.843 31.4409C-109.321 29.1334 -104.516 27.4988 -99.6068 26.5981C-90.0895 25.1669 -83.4347 29.6075 -80.0749 39.9662C-77.8904 47.0441 -75.7057 54.1223 -73.7821 61.1449C-69.8337 76.1764 -64.332 90.7095 -58.8301 105.243C-56.0347 112.588 -53.0672 119.832 -50.6156 127.38C-47.2792 136.948 -45.2673 147.007 -44.6284 157.314C-44.4182 165.766 -44.0359 174.116 -44.2585 182.614C-44.5682 197.02 -45.3167 211.057 -43.284 225.546C-41.743 236.926 -38.3361 247.831 -33.1864 257.866C-30.1743 263.649 -26.552 269.078 -22.3708 274.075C-14.5076 283.598 -4.95958 291.671 5.89976 297.976C17.7978 305.181 30.6143 309.961 43.3417 314.584C48.5726 316.518 54.0523 317.678 59.2832 319.612C67.6515 322.623 75.848 325.737 84.2163 328.748C94.2396 332.193 103.634 336.914 112.169 342.796C120.052 348.186 127.17 354.654 131.384 364.091C133.805 369.662 134.351 375.972 132.949 382.201C131.259 389.104 127.905 395.673 123.17 401.356C115.085 411.774 105.594 420.928 96.542 430.452C86.1204 441.201 76.1377 452.32 66.2441 463.594C58.0478 472.877 51.0003 483.008 45.2674 493.748C40.664 501.838 37.6691 510.568 36.4518 519.447C35.5934 525.056 35.9697 530.661 37.5561 535.892C39.1425 541.122 41.9024 545.858 45.6531 549.786C51.8836 556.33 59.6102 561.393 68.3285 564.646C79.8795 569.437 92.7157 571.399 105.785 570.369C115.93 569.487 125.96 566.429 135.136 561.421C139.007 559.346 142.695 556.543 146.56 554.054C149.649 551.813 152.999 549.628 156.171 547.129C160.285 543.866 164.05 540.39 168.164 537.126C172.542 533.468 177.094 530.015 181.8 526.781C189.276 522.161 196.664 517.385 205.303 515.217C217.31 512.107 229.124 513.505 241.016 520.295C251.158 526.025 259.433 534.53 267.193 543.339C275.658 552.987 284.04 562.892 292.505 572.54C302.294 583.708 313.611 592.719 324.929 601.73C332.385 607.581 340.096 613.072 347.807 618.563C348.506 618.987 349.289 619.153 349.989 619.576C375.826 634.179 428.999 668.383 434.999 688.383C442.499 713.383 418.998 784.884 434.998 811.384" stroke="#F2F4F6" stroke-width="1.25" stroke-linecap="round" stroke-linejoin="round"/>
<path d="M236.117 -254.469C235.96 -254.661 235.783 -254.836 235.59 -254.994C226.192 -251.332 216.509 -249.385 206.92 -246.866C199.147 -244.79 191.545 -242.816 184.038 -240.27C179.399 -238.585 174.876 -236.546 170.514 -234.174C167.39 -232.853 164.366 -231.279 161.478 -229.471C156.67 -226.216 152.122 -222.906 147.403 -219.495C144.658 -217.457 141.824 -215.576 139.168 -213.382C136.168 -210.985 133.169 -208.587 130.258 -206.034C126.659 -203.074 123.061 -200.114 119.551 -196.998C117.067 -194.905 114.672 -192.656 112.188 -190.563C108.589 -187.603 104.991 -184.644 101.481 -181.527C97.2838 -178.005 93.1754 -174.327 88.8951 -170.547C84.6148 -166.767 80.3284 -163.402 76.3091 -159.566C71.0922 -154.606 66.2253 -149.434 63.1202 -142.374C60.1686 -134.794 60.0408 -126.704 62.76 -119.571C64.5725 -113.951 66.9447 -108.558 69.8457 -103.462C73.2277 -97.509 76.5268 -91.2977 79.7369 -85.2432C82.9471 -79.1886 86.0742 -72.876 88.7685 -66.5171C94.6954 -53.1614 99.5072 -39.2882 103.162 -25.018C106.38 -12.484 109.255 0.252832 112.734 12.842C116.035 25.1179 119.941 37.2461 123.414 49.4205C126.163 59.5122 128.995 69.3457 131.05 79.4283C132.897 89.2412 133.105 99.423 131.664 109.604C129.789 123.679 125.209 136.629 121.151 149.691C118.338 158.881 115.785 168.125 112.971 177.315C110.476 185.642 109.428 194.182 109.872 202.57C110.312 209.787 112.875 216.539 117.267 222.053C122.749 229.277 129.837 233.672 137.09 237.55C148.019 243.425 159.721 248.028 171.975 251.273C186.689 255.352 201.741 258.814 216.449 262.478C230.024 265.765 243.338 268.997 256.824 272.127C269.137 275.286 281.678 277.802 294.393 279.665C304.362 281.14 314.651 281.134 324.915 279.648C332.223 278.536 339.332 275.844 345.697 271.78C354.448 265.363 360.132 256.78 358.557 243.905C357.952 239.625 356.634 235.531 354.651 231.777C350.417 224.331 344.707 217.842 337.809 212.638C327.63 204.419 316.368 199.141 305.271 193.347C296.534 188.879 287.798 184.411 279.31 179.169C269.923 173.415 261.608 166.268 254.634 157.959C248.558 150.91 244.265 142.527 242.049 133.381C240.157 125.025 240.474 116.148 242.971 107.528C246.008 98.4895 249.916 89.6703 254.639 81.1921C260.962 68.886 267.025 56.5246 270.377 42.6248C273.16 31.3611 275.594 19.8857 278.027 8.41011C279.65 0.759741 280.833 -7.25904 282.456 -14.9094C285.532 -30.0735 290.559 -44.9862 297.415 -59.2923C301.794 -68.1508 306.435 -76.954 311.164 -85.6006C314.376 -91.2606 318.027 -96.552 321.329 -102.055C321.615 -102.728 321.837 -103.419 321.992 -104.12" stroke="#F2F4F6" stroke-width="1.25" stroke-linecap="round" stroke-linejoin="round"/>
<path opacity="0.2" d="M-240.573 283.586C-237.474 276.111 -234.286 268.792 -231.709 261.206C-227.384 248.614 -223.498 235.654 -219.262 222.906C-212.378 201.485 -202.523 181.657 -192.229 162.198C-186.747 151.643 -181.443 140.775 -176.05 130.063C-172.34 122.855 -168.891 115.591 -165.003 108.696C-161.276 101.745 -156.647 95.2157 -151.24 89.2816C-147.792 85.5008 -144.01 82.0094 -139.946 78.8543C-135.93 75.7886 -131.395 73.4688 -126.606 72.0303C-122.676 70.6765 -118.559 70.2093 -114.59 70.6663C-110.621 71.1233 -106.911 72.4918 -103.762 74.6604C-97.9079 78.8282 -93.0851 84.1586 -89.5726 90.3435C-85.3066 97.4485 -81.3845 104.756 -77.6343 112.165C-75.3972 116.911 -73.2429 121.916 -71.0057 126.662C-68.3185 132.899 -66.1089 139.354 -64.3933 145.978C-60.8192 159.139 -60.0203 172.263 -59.6543 185.434C-59.2702 199.849 -59.2359 214.052 -56.3374 228.448C-54.0672 240.073 -50.1419 251.196 -44.6681 261.515C-43.1475 264.527 -41.3659 267.393 -39.3402 270.085C-36.9493 273.485 -34.5583 276.886 -31.8235 280.083C-23.0028 290.376 -12.3973 299.087 -0.403625 305.891C11.7577 312.591 24.5724 318.253 37.91 322.821C44.5347 325.188 51.3314 327.453 58.045 329.977C65.3696 332.768 72.866 335.457 80.0246 338.763C90.5877 343.618 100.386 349.551 107.903 359.549C110.234 362.814 111.875 366.525 112.745 370.497C114.05 376.832 113.24 383.593 110.427 389.853C107.055 397.526 102.477 404.747 96.8658 411.24C90.1378 419.601 83.0598 427.751 75.8929 435.743C64.6298 448.244 53.4558 460.902 43.2486 474.454C36.0297 483.626 29.8324 493.456 24.774 503.759C20.4006 513.032 16.4663 522.674 16.0191 533.605C15.6872 541.795 18.0471 549.625 22.7628 555.981C27.2596 561.747 32.8818 566.578 39.3597 570.245C50.3789 576.593 62.3767 581.404 75.0339 584.549C86.4726 587.753 98.6203 588.877 110.894 587.866C117.864 587.043 124.755 585.1 131.274 582.119C135.128 580.159 138.862 577.956 142.45 575.526C147.294 572.421 151.992 569.091 156.525 565.549C162.097 561.216 167.492 556.569 172.887 551.923C178.652 547.021 184.829 542.607 191.337 538.737C197.389 535.068 204.067 532.627 210.916 531.58C220.694 530.204 230.266 532.505 239.365 538.015C249.163 543.948 257.088 552.241 264.842 560.635C271.45 567.822 277.976 575.268 284.928 582.252C294.819 592.075 305.592 601.038 317.143 609.055C324.943 614.703 332.654 620.194 340.364 625.685C360.909 636.585 403.789 661.599 413.998 671.384C441.129 697.384 406.498 747.384 410.998 799.884" stroke="#F2F4F6" stroke-width="1.25" stroke-linecap="round" stroke-linejoin="round"/>
<path d="M-277.845 218.771C-276.103 213.352 -274.189 207.83 -272.359 202.567C-265.788 183.422 -258.079 165.069 -250.198 146.615C-244.301 132.446 -239.809 117.887 -236.787 103.145C-235.407 96.6838 -234.81 90.0569 -233.431 83.5956C-232.069 75.89 -230.364 67.9815 -228.481 60.3864C-225.933 50.1453 -221.166 40.3418 -214.507 31.6446C-210.713 26.6394 -206.254 22.1082 -201.263 18.1846C-196.805 14.7179 -192.519 11.3525 -188.143 8.14386C-184.023 5.29476 -179.896 2.86032 -175.687 0.167881C-166.58 -5.62272 -157.645 -11.3117 -148.539 -17.1023C-145.056 -19.3578 -141.676 -21.7706 -138.413 -24.3312C-134.897 -27.0326 -131.387 -30.1489 -127.872 -32.8504C-123.413 -36.3171 -119.038 -39.5255 -114.58 -42.9922C-109.777 -46.6618 -105.064 -50.4882 -100.084 -53.8445C-94.5359 -57.4977 -88.5702 -60.4539 -82.3502 -62.6328C-72.4575 -66.5222 -61.835 -67.365 -52.0365 -65.0375C-33.7646 -60.7566 -21.7936 -48.575 -15.4483 -29.7284C-12.3601 -19.7572 -11.3801 -9.11159 -12.5622 1.61682C-13.6021 13.5252 -15.3356 25.4247 -16.6363 37.2779C-18.5035 53.6599 -17.4735 69.9584 -13.5906 85.4715C-10.5444 98.1068 -6.8042 110.752 -3.92993 123.488C-1.24363 135.372 -0.478013 147.753 -1.65874 160.217C-2.70465 171.71 -4.44435 183.195 -5.92313 194.735C-7.49948 205.959 -7.59753 217.192 -6.21481 228.164C-4.35524 239.512 0.217426 250.048 7.15562 258.972C13.4618 266.997 21.3804 273.674 30.5087 278.662C44.5003 286.723 59.3921 291.115 74.0291 295.867C85.4397 299.385 97.1053 302.543 108.516 306.061C115.656 308.124 122.72 310.859 129.694 313.438C134.664 315.317 139.551 317.453 144.438 319.59C156.749 324.911 168.448 331.308 179.402 338.706C185.592 342.89 191.347 347.612 196.604 352.821C202.245 358.095 207.215 363.999 211.429 370.43C215.212 376.281 218.658 382.347 221.753 388.603C224.976 395.487 227.166 402.98 230.389 409.864C234.515 418.854 241.11 426.423 249.526 431.832C257.053 436.595 264.58 441.358 272.017 445.964C280.647 451.329 286.848 459.539 289.613 469.259C294.523 484.77 297.789 500.622 303.908 515.837C306.424 521.883 308.852 527.772 311.712 533.614C316.07 542.303 321.39 550.449 327.589 557.924C334.978 566.826 343.129 575.095 351.969 582.655C360.398 589.814 368.91 596.715 377.339 603.875C401.726 623.378 444 656.438 461.5 680.883C493 724.883 500.001 786.883 511.001 799.883" stroke="#F2F4F6" stroke-width="1.25" stroke-linecap="round" stroke-linejoin="round"/>
<path d="M250.184 -229.292C248.937 -229.135 247.695 -228.891 246.466 -228.563C233.28 -223.085 219.179 -220.832 205.44 -217.538C198.093 -215.923 190.663 -214.05 183.412 -211.864C178.175 -210.035 173.049 -207.849 168.073 -205.325C164.084 -203.494 160.203 -201.414 156.457 -199.1C151.904 -196.205 147.618 -192.84 143.243 -189.631C134.257 -182.854 125.967 -175.229 118.515 -166.887C111.858 -159.613 105.468 -151.869 101.445 -142.384C97.6946 -133.256 96.8974 -123.498 99.1649 -114.475C101.06 -107.069 103.542 -99.8635 106.59 -92.9189C111.178 -81.6112 115.766 -70.3032 119.665 -58.5898C123.838 -45.9915 126.973 -33.1997 130.803 -20.3986C133.999 -8.15679 137.967 3.82037 142.686 15.47C145.107 20.9441 147.268 26.363 149.861 31.7357C152.276 36.7951 154.608 42.1128 157.539 46.8678C161.614 53.9699 166.114 60.8115 171.019 67.3621C174.677 72.5167 179.287 76.942 184.651 80.4464C187.147 81.9596 190.006 82.9023 193.033 83.21C196.06 83.5177 199.184 83.1835 202.192 82.2298C208.063 80.4402 212.865 76.7706 217.839 72.9996C225.152 67.1958 231.603 60.4269 236.969 52.9292C243.481 43.8412 248.383 33.8683 251.452 23.4683C254.183 14.5365 256.214 5.18106 258.506 -4.11929C262.018 -18.9501 265.18 -33.9927 270.435 -48.1787C273.971 -57.8097 278.299 -67.2193 283.377 -76.3119C287.354 -83.0505 290.981 -90.0007 295.047 -96.5826C299.788 -104.4 304.791 -112.162 309.704 -120.08C310.193 -121.023 310.557 -122.011 310.789 -123.021" stroke="#F2F4F6" stroke-width="1.25" stroke-linecap="round" stroke-linejoin="round"/>
<path d="M376.639 -7.50817C376.753 -6.74554 376.736 -5.95787 376.587 -5.17619C373.928 4.10428 372.436 13.555 372.142 22.9638C371.266 37.2305 372.76 51.3191 376.568 64.696C378.369 70.5424 380.537 76.2477 383.061 81.7823C384.942 85.9017 387.6 89.7721 389.825 93.6886C392.865 98.9162 396.42 103.82 400.445 108.34C411.02 120.151 423.167 130.543 436.622 139.29C446.872 146.421 457.631 152.833 467.116 161.042C474.317 167.253 480.747 174.126 484.7 183.508C487.283 189.636 488.643 196.275 488.715 203.102C488.824 212.005 487.252 221.011 484.074 229.684C480.407 239.796 476.65 249.751 472.633 259.651C465.771 276.667 458.56 293.471 451.959 310.543C447.616 321.89 444.145 333.559 440.585 345.072C438.299 352.031 437.173 359.194 437.253 366.28C436.999 371.494 438.404 376.504 441.278 380.639C445.176 386.288 450.698 390.351 455.877 394.617C461.844 399.463 467.384 404.771 473.014 410.235C478.731 416.125 483.05 423.178 485.717 430.978C488.42 439.008 488.818 447.787 486.87 456.444C484.802 465.405 482.002 474.261 478.499 482.926C473.447 495.729 469.999 508.933 468.235 522.238C466.914 534.637 467.153 546.998 468.946 559.05C470.711 573.828 474.74 599.885 486.87 618.384C498.999 636.883 512.997 647.46 568.497 690.384C623.997 733.307 638.662 772.947 654.998 800.884" stroke="#F2F4F6" stroke-width="1.25" stroke-linecap="round" stroke-linejoin="round"/>
<path d="M265.389 -202.924C265.128 -202.979 264.861 -203.449 264.689 -203.348C257.176 -201.217 249.753 -198.929 242.234 -197.213C229.959 -194.573 217.673 -192.764 205.309 -190.281C197.829 -188.841 190.411 -186.911 183.109 -184.505C176.459 -182.145 170.131 -178.834 164.35 -174.693C158.366 -170.495 153 -165.495 148.438 -159.869C143.021 -153.375 139.177 -145.871 137.225 -137.985C135.522 -130.663 135.512 -123.224 137.197 -116.215C139.05 -108.105 141.246 -100.197 143.615 -92.3909C147.177 -80.0598 150.134 -67.5814 152.397 -55.1117C155.118 -41.0292 157.495 -26.7435 161.775 -12.7444C163.889 -6.25325 166.473 0.0492597 169.508 6.12017C172.523 12.1106 176.239 17.7033 180.591 22.7997C185.265 28.1995 190.787 32.2626 197.572 33.6986C201.977 34.7296 206.779 34.1284 211.074 32.0082C220.199 27.4619 225.717 19.3954 230.002 9.96543C233.525 1.82102 236.22 -6.566 238.047 -15.0694C242.394 -32.0663 246.741 -49.0632 253.621 -64.8349C258.522 -75.6223 264.224 -86.1173 270.677 -96.2319C278.134 -108.16 285.59 -120.089 292.868 -132.331C295.156 -135.981 296.744 -140.056 298.682 -143.918" stroke="#F2F4F6" stroke-width="1.25" stroke-linecap="round" stroke-linejoin="round"/>
<path d="M571 799.883C539.499 740.384 515.203 696.135 490.499 670.884C467.998 647.884 431.717 620.321 402.575 597.79C402.225 597.578 401.703 597.467 401.353 597.255C392.918 589.682 384.228 582.467 376.048 574.534C369.832 568.665 364.596 561.896 360.493 554.427C358.796 551.303 357.273 548.083 355.93 544.778C352.864 538.17 351.879 530.68 353.088 523.162C354.297 515.644 357.65 508.401 362.765 502.259C369.487 493.483 377.621 486.384 385.399 478.658C394.38 469.682 402.677 460.101 410.213 450.006C415.061 443.59 420.082 437.072 425.281 430.868C428.482 426.728 432.918 423.596 437.897 421.961C442.986 420.427 448.303 420.718 452.823 422.777C458.794 425.087 463.655 429.254 466.697 434.672C470.284 441.231 471.663 448.86 470.66 456.598C469.685 467.004 466.355 476.498 463.897 486.315C461.475 495.316 459.581 504.395 458.225 513.506C456.042 530.272 457.246 547.341 460.009 564.327C460.339 576.679 463.283 605.999 490.499 633.384C571 714.384 604.5 711.384 642.5 792.383" stroke="#F2F4F6" stroke-width="1.25" stroke-linecap="round" stroke-linejoin="round"/>
<path d="M585.999 799.884C568 769.884 529.002 695.884 501 669.384C472.998 642.884 409.599 592.608 409.083 592.273C400.434 586.062 392.414 579.109 385.107 571.487C377.989 564.332 372.401 555.866 368.613 546.495C365.842 539.627 365.457 531.886 367.509 524.348C369.987 516.211 374.675 508.671 381.064 502.546C386.446 497.07 392.268 491.962 398.001 486.698C401.593 483.324 405.358 479.848 409.039 476.63C415.116 471.163 420.931 465.641 427.275 460.643C430.341 457.937 434.086 456.092 438.036 455.341C444.53 454.648 447.697 457.799 449.336 463.107C450.628 467.895 450.938 472.965 450.248 478.048C449.734 484.417 449.048 490.887 448.362 497.357C447.368 507.616 447.199 517.856 447.856 527.985C449.011 541.736 450.599 555.441 451.926 569.091C452.617 580.522 457.5 607.184 471.5 622.384C534.131 690.384 576.498 754.884 620.498 799.884" stroke="#F2F4F6" stroke-width="1.25" stroke-linecap="round" stroke-linejoin="round"/>
<path d="M135.166 503.698C137.644 501.19 140.122 498.683 142.339 496.12C144.916 493.396 146.702 490.093 147.489 486.597C147.922 484.697 147.923 482.768 147.493 480.948C147.056 479.824 146.279 478.877 145.255 478.22C144.23 477.563 143.002 477.224 141.716 477.244C139.543 477.113 137.318 477.494 135.229 478.352C127.165 481.462 120.397 487.409 116.394 494.901C114.923 497.512 114.326 500.432 114.695 503.224C114.992 504.554 115.669 505.746 116.653 506.671C117.858 507.769 119.392 508.488 121.081 508.749C122.771 509.009 124.548 508.799 126.213 508.143C129.142 506.833 132.065 505.109 134.905 503.643" stroke="#F2F4F6" stroke-width="1.25" stroke-linecap="round" stroke-linejoin="round"/>
<path d="M429.114 574.602C432.867 570.297 433.215 564.444 433.302 558.536C433.413 548.211 431.98 538.068 429.046 528.417C428.051 524.295 426.197 520.484 423.593 517.202C421.887 514.966 419.44 513.373 416.598 512.648C413.756 511.923 410.662 512.102 407.752 513.16C400.942 515.913 395.282 521.056 392.006 527.469C390.047 531.055 388.954 534.956 388.815 538.854C388.676 542.752 389.496 546.538 391.207 549.903C393.742 556.063 397.582 561.552 402.502 566.048C407.421 570.544 413.322 573.958 419.858 576.089C421.239 576.668 422.801 576.839 424.363 576.584C425.924 576.329 427.422 575.658 428.681 574.648" stroke="#F2F4F6" stroke-width="1.25" stroke-linecap="round" stroke-linejoin="round"/>
<path d="M271.124 236.71C274.947 231.317 273.244 227.511 269.536 223.005C262.916 214.988 255.015 208.354 247.541 201.26C240.066 194.165 233.114 187.18 225.812 179.984C217.187 171.267 208.905 162.347 199.936 153.834C194.307 148.37 187.664 144.758 180.127 145.23C175.54 145.493 171.053 147.393 167.545 150.561C164.923 152.694 162.489 155.04 160.277 157.568C153.87 164.781 149.128 173.16 146.415 182.061C144.766 187.296 144.167 192.694 144.653 197.951C145.557 205.993 149.406 213.197 155.529 218.308C161.595 223.398 168.599 227.395 176.253 230.136C194.65 237.063 213.33 239.638 232.165 240.868C241.958 241.732 251.945 241.392 261.892 239.856C264.966 239.451 267.973 238.392 270.691 236.756" stroke="#F2F4F6" stroke-width="1.25" stroke-linecap="round" stroke-linejoin="round"/>
</g>
<defs>
<clipPath id="clip0_1424_4812">
<rect width="799" height="773" fill="white"/>
</clipPath>
</defs>
</svg>
