<svg width="20" height="21" viewBox="0 0 20 21" fill="none" xmlns="http://www.w3.org/2000/svg">
<circle cx="10" cy="10.5" r="10" transform="rotate(-90 10 10.5)" fill="#1C0D3F"/>
<path fill-rule="evenodd" clip-rule="evenodd" d="M14.0516 12.427C14.2686 12.644 14.6203 12.644 14.8373 12.427C15.0542 12.2101 15.0542 11.8583 14.8373 11.6414L10.3928 7.19691C10.2301 7.03419 9.99158 6.99351 9.79094 7.07487C9.72407 7.10199 9.6614 7.14267 9.60716 7.19691C9.60705 7.19703 9.60693 7.19715 9.60681 7.19727L5.16272 11.6414C4.94576 11.8583 4.94576 12.2101 5.16272 12.427C5.37968 12.644 5.73143 12.644 5.94839 12.427L10 8.37542L14.0516 12.427Z" fill="white"/>
</svg>
