<svg width="17" height="13" viewBox="0 0 17 13" fill="none" xmlns="http://www.w3.org/2000/svg">
<g clip-path="url(#clip0_2_2)">
<path d="M16.5234 5.86865L11.127 0.45459C11.0332 0.372559 10.9219 0.331543 10.793 0.331543C10.6758 0.331543 10.5703 0.372559 10.4766 0.45459C10.3945 0.54834 10.3535 0.659668 10.3535 0.788574C10.3535 0.905762 10.3945 1.01123 10.4766 1.10498L15.1172 5.72803H0.457031C0.328125 5.72803 0.216797 5.7749 0.123047 5.86865C0.0410156 5.95068 0 6.05615 0 6.18506C0 6.30225 0.0410156 6.40771 0.123047 6.50146C0.216797 6.5835 0.328125 6.62451 0.457031 6.62451H15.1172L10.4766 11.2651C10.3945 11.3472 10.3535 11.4526 10.3535 11.5815C10.3535 11.7104 10.3945 11.8159 10.4766 11.8979C10.5234 11.9448 10.5703 11.98 10.6172 12.0034C10.6758 12.0269 10.7344 12.0386 10.793 12.0386C10.8516 12.0386 10.9102 12.0269 10.9688 12.0034C11.0273 11.98 11.0801 11.9448 11.127 11.8979L16.5234 6.50146C16.6055 6.40771 16.6465 6.30225 16.6465 6.18506C16.6465 6.05615 16.6055 5.95068 16.5234 5.86865Z" fill="#F2F4F6"/>
<path d="M16.5234 5.86865L16.3464 6.04514L16.3467 6.04543L16.5234 5.86865ZM11.127 0.45459L11.304 0.278101L11.298 0.272061L11.2916 0.266446L11.127 0.45459ZM10.4766 0.45459L10.3119 0.266446L10.2994 0.277421L10.2884 0.289964L10.4766 0.45459ZM10.4766 1.10498L10.2884 1.26961L10.2941 1.27605L10.3001 1.28209L10.4766 1.10498ZM15.1172 5.72803V5.97803H15.7224L15.2936 5.55092L15.1172 5.72803ZM0.123047 6.50146L-0.0650973 6.66609L-0.0541222 6.67863L-0.0415793 6.68961L0.123047 6.50146ZM15.1172 6.62451L15.294 6.80129L15.7207 6.37451H15.1172V6.62451ZM10.6172 12.0034L10.5054 12.227L10.5147 12.2317L10.5243 12.2355L10.6172 12.0034ZM16.5234 6.50146L16.7002 6.67824L16.7061 6.67236L16.7116 6.66609L16.5234 6.50146ZM16.7005 5.69216L11.304 0.278101L10.9499 0.631079L16.3464 6.04514L16.7005 5.69216ZM11.2916 0.266446C11.1505 0.143044 10.9801 0.081543 10.793 0.081543V0.581543C10.8636 0.581543 10.9159 0.602073 10.9623 0.642734L11.2916 0.266446ZM10.793 0.081543C10.6112 0.081543 10.4481 0.14727 10.3119 0.266446L10.6412 0.642734C10.6925 0.597847 10.7404 0.581543 10.793 0.581543V0.081543ZM10.2884 0.289964C10.165 0.430994 10.1035 0.601419 10.1035 0.788574H10.6035C10.6035 0.717916 10.624 0.665686 10.6647 0.619216L10.2884 0.289964ZM10.1035 0.788574C10.1035 0.970342 10.1692 1.13341 10.2884 1.26961L10.6647 0.940354C10.6198 0.889055 10.6035 0.841182 10.6035 0.788574H10.1035ZM10.3001 1.28209L14.9407 5.90514L15.2936 5.55092L10.653 0.927869L10.3001 1.28209ZM15.1172 5.47803H0.457031V5.97803H15.1172V5.47803ZM0.457031 5.47803C0.259735 5.47803 0.0854082 5.55274 -0.0537298 5.69188L0.299824 6.04543C0.348186 5.99707 0.396515 5.97803 0.457031 5.97803V5.47803ZM-0.0537298 5.69188C-0.188062 5.82621 -0.25 5.99792 -0.25 6.18506H0.25C0.25 6.11438 0.270093 6.07516 0.299824 6.04543L-0.0537298 5.69188ZM-0.25 6.18506C-0.25 6.36683 -0.184273 6.52989 -0.0650973 6.66609L0.311191 6.33684C0.266304 6.28554 0.25 6.23767 0.25 6.18506H-0.25ZM-0.0415793 6.68961C0.0994506 6.81301 0.269876 6.87451 0.457031 6.87451V6.37451C0.386374 6.37451 0.334143 6.35398 0.287673 6.31332L-0.0415793 6.68961ZM0.457031 6.87451H15.1172V6.37451H0.457031V6.87451ZM14.9404 6.44773L10.2998 11.0884L10.6533 11.4419L15.294 6.80129L14.9404 6.44773ZM10.2998 11.0884C10.1655 11.2227 10.1035 11.3944 10.1035 11.5815H10.6035C10.6035 11.5109 10.6236 11.4716 10.6533 11.4419L10.2998 11.0884ZM10.1035 11.5815C10.1035 11.7687 10.1655 11.9404 10.2998 12.0747L10.6533 11.7212C10.6236 11.6914 10.6035 11.6522 10.6035 11.5815H10.1035ZM10.2998 12.0747C10.3609 12.1358 10.4291 12.1889 10.5054 12.227L10.729 11.7798C10.7115 11.7711 10.686 11.7538 10.6533 11.7212L10.2998 12.0747ZM10.5243 12.2355C10.6102 12.2699 10.7002 12.2886 10.793 12.2886V11.7886C10.7686 11.7886 10.7414 11.7838 10.71 11.7713L10.5243 12.2355ZM10.793 12.2886C10.8857 12.2886 10.9758 12.2699 11.0616 12.2355L10.8759 11.7713C10.8445 11.7838 10.8174 11.7886 10.793 11.7886V12.2886ZM11.0616 12.2355C11.1532 12.1989 11.2341 12.1443 11.3037 12.0747L10.9502 11.7212C10.926 11.7453 10.9015 11.7611 10.8759 11.7713L11.0616 12.2355ZM11.3037 12.0747L16.7002 6.67824L16.3467 6.32469L10.9502 11.7212L11.3037 12.0747ZM16.7116 6.66609C16.8308 6.52989 16.8965 6.36683 16.8965 6.18506H16.3965C16.3965 6.23767 16.3802 6.28554 16.3353 6.33684L16.7116 6.66609ZM16.8965 6.18506C16.8965 5.99792 16.8345 5.82621 16.7002 5.69188L16.3467 6.04543C16.3764 6.07516 16.3965 6.11438 16.3965 6.18506H16.8965Z" fill="#F2F4F6"/>
</g>
<defs>
<clipPath id="clip0_2_2">
<rect width="17" height="13" fill="white"/>
</clipPath>
</defs>
</svg>
