<svg width="20" height="20" viewBox="0 0 20 20" fill="none" xmlns="http://www.w3.org/2000/svg">
<circle cx="10" cy="10" r="9.5" transform="rotate(90 10 10)" fill="white" stroke="#1C0D3F"/>
<path fill-rule="evenodd" clip-rule="evenodd" d="M5.94839 7.94049C5.73144 7.72353 5.37968 7.72353 5.16272 7.94049C4.94576 8.15745 4.94576 8.50921 5.16272 8.72617L9.60716 13.1706C9.76988 13.3333 10.0084 13.374 10.2091 13.2926C10.2759 13.2655 10.3386 13.2248 10.3928 13.1706C10.393 13.1705 10.3931 13.1704 10.3932 13.1703L14.8373 8.72617C15.0542 8.50921 15.0542 8.15745 14.8373 7.94049C14.6203 7.72353 14.2686 7.72353 14.0516 7.94049L10 11.9921L5.94839 7.94049Z" fill="#1C0D3F"/>
</svg>
