<svg width="12" height="8" viewBox="0 0 12 8" fill="none" xmlns="http://www.w3.org/2000/svg">
<path d="M11.6133 3.82751C11.6719 3.88611 11.7012 3.95837 11.7012 4.04431C11.7012 4.12634 11.6719 4.19666 11.6133 4.25525L8.00977 7.85291C7.98242 7.88416 7.94922 7.90759 7.91016 7.92322C7.875 7.93494 7.83789 7.9408 7.79883 7.9408C7.75977 7.9408 7.7207 7.93494 7.68164 7.92322C7.64648 7.90759 7.61523 7.88416 7.58789 7.85291C7.5293 7.79431 7.5 7.724 7.5 7.64197C7.5 7.55994 7.5293 7.48962 7.58789 7.43103L10.6758 4.34314H0.902344C0.816406 4.34314 0.744141 4.31384 0.685547 4.25525C0.626953 4.19666 0.597656 4.12634 0.597656 4.04431C0.597656 3.95837 0.626953 3.88611 0.685547 3.82751C0.744141 3.76892 0.816406 3.73962 0.902344 3.73962H10.6758L7.58789 0.651733C7.5293 0.59314 7.5 0.522827 7.5 0.440796C7.5 0.358765 7.5293 0.288452 7.58789 0.229858C7.64648 0.171265 7.7168 0.141968 7.79883 0.141968C7.88086 0.141968 7.95117 0.171265 8.00977 0.229858L11.6133 3.82751Z" fill="#ED26B7"/>
<path d="M11.6133 3.82751L11.7901 3.65074L11.7899 3.65059L11.6133 3.82751ZM11.6133 4.25525L11.7899 4.43217L11.7901 4.43203L11.6133 4.25525ZM8.00977 7.85291L7.83313 7.67598L7.82717 7.68194L7.82162 7.68828L8.00977 7.85291ZM7.91016 7.92322L7.98921 8.16039L7.99618 8.15807L8.003 8.15534L7.91016 7.92322ZM7.68164 7.92322L7.58011 8.15167L7.59461 8.15811L7.6098 8.16267L7.68164 7.92322ZM7.58789 7.85291L7.77603 7.68828L7.77055 7.68201L7.76467 7.67613L7.58789 7.85291ZM10.6758 4.34314L10.8526 4.51992L11.2793 4.09314H10.6758V4.34314ZM10.6758 3.73962V3.98962H11.2793L10.8526 3.56285L10.6758 3.73962ZM8.00977 0.229858L7.83299 0.406635L7.83313 0.406779L8.00977 0.229858ZM11.4365 4.00429C11.4463 4.01409 11.4512 4.02193 11.4512 4.04431H11.9512C11.9512 3.89482 11.8974 3.75812 11.7901 3.65074L11.4365 4.00429ZM11.4512 4.04431C11.4512 4.05929 11.4487 4.06623 11.4365 4.07847L11.7901 4.43203C11.895 4.32708 11.9512 4.1934 11.9512 4.04431H11.4512ZM11.4366 4.07833L7.83313 7.67598L8.1864 8.02983L11.7899 4.43217L11.4366 4.07833ZM7.82162 7.68828C7.8207 7.68933 7.82026 7.68962 7.82018 7.68968C7.8201 7.68974 7.81934 7.69029 7.81731 7.6911L8.003 8.15534C8.07821 8.12525 8.14422 8.07889 8.19791 8.01753L7.82162 7.68828ZM7.8311 7.68605C7.82279 7.68882 7.81248 7.6908 7.79883 7.6908V8.1908C7.8633 8.1908 7.92721 8.18105 7.98921 8.16039L7.8311 7.68605ZM7.79883 7.6908C7.78515 7.6908 7.77027 7.6888 7.75348 7.68376L7.6098 8.16267C7.67114 8.18108 7.73438 8.1908 7.79883 8.1908V7.6908ZM7.78318 7.69476C7.78303 7.6947 7.78266 7.69454 7.78184 7.69392C7.78096 7.69327 7.77897 7.69164 7.77603 7.68828L7.39975 8.01753C7.44906 8.07389 7.50922 8.12016 7.58011 8.15167L7.78318 7.69476ZM7.76467 7.67613C7.75242 7.66388 7.75 7.65694 7.75 7.64197H7.25C7.25 7.79106 7.30617 7.92474 7.41111 8.02968L7.76467 7.67613ZM7.75 7.64197C7.75 7.62699 7.75242 7.62005 7.76467 7.60781L7.41111 7.25425C7.30617 7.3592 7.25 7.49288 7.25 7.64197H7.75ZM7.76467 7.60781L10.8526 4.51992L10.499 4.16636L7.41111 7.25425L7.76467 7.60781ZM10.6758 4.09314H0.902344V4.59314H10.6758V4.09314ZM0.902344 4.09314C0.879965 4.09314 0.872127 4.08828 0.862324 4.07847L0.50877 4.43203C0.616155 4.53941 0.752848 4.59314 0.902344 4.59314V4.09314ZM0.862324 4.07847C0.850079 4.06623 0.847656 4.05929 0.847656 4.04431H0.347656C0.347656 4.1934 0.403827 4.32708 0.50877 4.43203L0.862324 4.07847ZM0.847656 4.04431C0.847656 4.02193 0.85252 4.01409 0.862324 4.00429L0.50877 3.65074C0.401386 3.75812 0.347656 3.89482 0.347656 4.04431H0.847656ZM0.862324 4.00429C0.872127 3.99449 0.879965 3.98962 0.902344 3.98962V3.48962C0.752848 3.48962 0.616155 3.54335 0.50877 3.65074L0.862324 4.00429ZM0.902344 3.98962H10.6758V3.48962H0.902344V3.98962ZM10.8526 3.56285L7.76467 0.474957L7.41111 0.82851L10.499 3.9164L10.8526 3.56285ZM7.76467 0.474957C7.75242 0.462712 7.75 0.45577 7.75 0.440796H7.25C7.25 0.589884 7.30617 0.723567 7.41111 0.82851L7.76467 0.474957ZM7.75 0.440796C7.75 0.425822 7.75242 0.41888 7.76467 0.406635L7.41111 0.0530817C7.30617 0.158024 7.25 0.291708 7.25 0.440796H7.75ZM7.76467 0.406635C7.77691 0.39439 7.78385 0.391968 7.79883 0.391968V-0.108032C7.64974 -0.108032 7.51606 -0.0518611 7.41111 0.0530817L7.76467 0.406635ZM7.79883 0.391968C7.8138 0.391968 7.82074 0.39439 7.83299 0.406635L8.18654 0.0530817C8.0816 -0.0518611 7.94792 -0.108032 7.79883 -0.108032V0.391968ZM7.83313 0.406779L11.4366 4.00444L11.7899 3.65059L8.1864 0.0529379L7.83313 0.406779Z" fill="#ED26B7"/>
</svg>
