<svg width="15" height="10" viewBox="0 0 15 10" fill="none" xmlns="http://www.w3.org/2000/svg">
<path d="M14.3145 4.85693C14.3877 4.93018 14.4243 5.02051 14.4243 5.12793C14.4243 5.23047 14.3877 5.31836 14.3145 5.3916L9.81006 9.88867C9.77588 9.92773 9.73438 9.95703 9.68555 9.97656C9.6416 9.99121 9.59521 9.99854 9.54639 9.99854C9.49756 9.99854 9.44873 9.99121 9.3999 9.97656C9.35596 9.95703 9.31689 9.92773 9.28271 9.88867C9.20947 9.81543 9.17285 9.72754 9.17285 9.625C9.17285 9.52246 9.20947 9.43457 9.28271 9.36133L13.1426 5.50146H0.925781C0.818359 5.50146 0.728027 5.46484 0.654785 5.3916C0.581543 5.31836 0.544922 5.23047 0.544922 5.12793C0.544922 5.02051 0.581543 4.93018 0.654785 4.85693C0.728027 4.78369 0.818359 4.74707 0.925781 4.74707H13.1426L9.28271 0.887207C9.20947 0.813965 9.17285 0.726074 9.17285 0.623535C9.17285 0.520996 9.20947 0.433105 9.28271 0.359863C9.35596 0.286621 9.44385 0.25 9.54639 0.25C9.64893 0.25 9.73682 0.286621 9.81006 0.359863L14.3145 4.85693Z" fill="#ED26B7"/>
<path d="M14.3145 4.85693L14.4912 4.68016L14.4911 4.68001L14.3145 4.85693ZM14.3145 5.3916L14.4911 5.56852L14.4912 5.56838L14.3145 5.3916ZM9.81006 9.88867L9.63343 9.71175L9.62746 9.7177L9.62191 9.72405L9.81006 9.88867ZM9.68555 9.97656L9.7646 10.2137L9.77157 10.2114L9.77839 10.2087L9.68555 9.97656ZM9.3999 9.97656L9.29837 10.205L9.31287 10.2115L9.32807 10.216L9.3999 9.97656ZM9.28271 9.88867L9.47086 9.72405L9.46538 9.71778L9.45949 9.7119L9.28271 9.88867ZM13.1426 5.50146L13.3194 5.67824L13.7461 5.25146H13.1426V5.50146ZM13.1426 4.74707V4.99707H13.7461L13.3194 4.57029L13.1426 4.74707ZM9.81006 0.359863L9.63328 0.53664L9.63343 0.536784L9.81006 0.359863ZM14.1377 5.03371C14.1621 5.05816 14.1743 5.08407 14.1743 5.12793H14.6743C14.6743 4.95695 14.6133 4.80219 14.4912 4.68016L14.1377 5.03371ZM14.1743 5.12793C14.1743 5.16341 14.1646 5.18793 14.1377 5.21482L14.4912 5.56838C14.6108 5.44879 14.6743 5.29753 14.6743 5.12793H14.1743ZM14.1378 5.21468L9.63343 9.71175L9.98669 10.0656L14.4911 5.56852L14.1378 5.21468ZM9.62191 9.72405C9.61408 9.733 9.60538 9.73937 9.5927 9.74444L9.77839 10.2087C9.86337 10.1747 9.93768 10.1225 9.9982 10.0533L9.62191 9.72405ZM9.60649 9.73939C9.58939 9.74509 9.56981 9.74854 9.54639 9.74854V10.2485C9.62062 10.2485 9.69382 10.2373 9.7646 10.2137L9.60649 9.73939ZM9.54639 9.74854C9.52294 9.74854 9.49829 9.74507 9.47174 9.73711L9.32807 10.216C9.39917 10.2373 9.47217 10.2485 9.54639 10.2485V9.74854ZM9.50144 9.74811C9.49322 9.74446 9.48307 9.738 9.47086 9.72405L9.09457 10.0533C9.15072 10.1175 9.21869 10.1696 9.29837 10.205L9.50144 9.74811ZM9.45949 9.7119C9.4326 9.685 9.42285 9.66048 9.42285 9.625H8.92285C8.92285 9.7946 8.98635 9.94586 9.10594 10.0654L9.45949 9.7119ZM9.42285 9.625C9.42285 9.58952 9.4326 9.565 9.45949 9.5381L9.10594 9.18455C8.98635 9.30414 8.92285 9.4554 8.92285 9.625H9.42285ZM9.45949 9.5381L13.3194 5.67824L12.9658 5.32469L9.10594 9.18455L9.45949 9.5381ZM13.1426 5.25146H0.925781V5.75146H13.1426V5.25146ZM0.925781 5.25146C0.881918 5.25146 0.856013 5.23928 0.831562 5.21482L0.478008 5.56838C0.600041 5.69041 0.754801 5.75146 0.925781 5.75146V5.25146ZM0.831562 5.21482C0.804669 5.18793 0.794922 5.16341 0.794922 5.12793H0.294922C0.294922 5.29753 0.358417 5.44879 0.478008 5.56838L0.831562 5.21482ZM0.794922 5.12793C0.794922 5.08407 0.80711 5.05816 0.831562 5.03371L0.478008 4.68016C0.355976 4.80219 0.294922 4.95695 0.294922 5.12793H0.794922ZM0.831562 5.03371C0.856013 5.00926 0.881918 4.99707 0.925781 4.99707V4.49707C0.754801 4.49707 0.600041 4.55812 0.478008 4.68016L0.831562 5.03371ZM0.925781 4.99707H13.1426V4.49707H0.925781V4.99707ZM13.3194 4.57029L9.45949 0.71043L9.10594 1.06398L12.9658 4.92385L13.3194 4.57029ZM9.45949 0.71043C9.4326 0.683537 9.42285 0.659017 9.42285 0.623535H8.92285C8.92285 0.793131 8.98635 0.944393 9.10594 1.06398L9.45949 0.71043ZM9.42285 0.623535C9.42285 0.588053 9.4326 0.563533 9.45949 0.53664L9.10594 0.183087C8.98635 0.302678 8.92285 0.453939 8.92285 0.623535H9.42285ZM9.45949 0.53664C9.48638 0.509747 9.5109 0.5 9.54639 0.5V0C9.37679 0 9.22553 0.0634954 9.10594 0.183087L9.45949 0.53664ZM9.54639 0.5C9.58187 0.5 9.60639 0.509747 9.63328 0.53664L9.98684 0.183087C9.86724 0.0634954 9.71598 0 9.54639 0V0.5ZM9.63343 0.536784L14.1378 5.03385L14.4911 4.68001L9.98669 0.182943L9.63343 0.536784Z" fill="#ED26B7"/>
</svg>
