<svg width="101" height="101" viewBox="0 0 101 101" fill="none" xmlns="http://www.w3.org/2000/svg"><path fill-rule="evenodd" clip-rule="evenodd" d="M16.6175 27.6826h46.8059v3.007H19.6245v43.1017l7.7668-7.7668h46.5613v-21.733h3.007v24.7401H28.6369l-9.4528 9.4527-2.5666-1.0632V27.6826Z" fill="#1B127D"/><path fill-rule="evenodd" clip-rule="evenodd" d="M47.231 42.8025H27.0493v-3.007H47.231v3.007ZM42.4561 56.3167H27.0493v-3.007h15.4068v3.007ZM70.4647 27.0289c2.4759-2.4759 6.4901-2.4759 8.966 0 2.476 2.476 2.476 6.4902 0 8.9661L60.6753 54.7505 50.1696 56.29l1.5396-10.5056 18.7555-18.7555Zm6.8397 2.1263c-1.3016-1.3016-3.4119-1.3016-4.7135 0L54.54 47.2062l-.8094 5.5229 5.5229-.8094 18.0509-18.051c1.3016-1.3016 1.3016-3.4119 0-4.7135Z" fill="#1B127D"/></svg>