<svg width="23" height="13" viewBox="0 0 23 13" fill="none" xmlns="http://www.w3.org/2000/svg">
<path d="M0 1.40234C0 1.32422 0.0117188 1.25 0.0351562 1.17969C0.0664062 1.10156 0.113281 1.03516 0.175781 0.980469C0.292969 0.863281 0.433594 0.804688 0.597656 0.804688C0.761719 0.804688 0.902344 0.863281 1.01953 0.980469L11.4023 11.3516L21.7734 0.980469C21.8906 0.863281 22.0312 0.804688 22.1953 0.804688C22.3672 0.804688 22.5117 0.863281 22.6289 0.980469C22.7461 1.09766 22.8047 1.23828 22.8047 1.40234C22.8047 1.56641 22.7461 1.70703 22.6289 1.82422L11.8242 12.6289C11.707 12.7461 11.5664 12.8047 11.4023 12.8047C11.2383 12.8047 11.0977 12.7461 10.9805 12.6289L0.175781 1.82422C0.113281 1.76953 0.0664062 1.70703 0.0351562 1.63672C0.0117188 1.55859 0 1.48047 0 1.40234Z" fill="#F2F4F6"/>
</svg>
