<svg xmlns="http://www.w3.org/2000/svg" width="21" height="11" viewBox="0 0 21 11"><path d="M10.452 11.023a.53.53 0 00.387-.161L20.743.957a.527.527 0 00.161-.386c0-.15-.053-.28-.16-.387a.534.534 0 00-.393-.161.534.534 0 00-.392.161l-9.507 9.507L.935.184A.527.527 0 00.548.023a.53.53 0 00-.387.161.431.431 0 00-.123.177.601.601 0 000 .42.431.431 0 00.123.176l9.904 9.905a.527.527 0 00.387.16zm0 0a.53.53 0 00.387-.161L20.743.957a.527.527 0 00.161-.386c0-.15-.053-.28-.16-.387a.534.534 0 00-.393-.161.534.534 0 00-.392.161l-9.507 9.507L.935.184A.527.527 0 00.548.023a.53.53 0 00-.387.161.431.431 0 00-.123.177.601.601 0 000 .42.431.431 0 00.123.176l9.904 9.905a.527.527 0 00.387.16z"/></svg>