<svg width="17" height="10" viewBox="0 0 17 10" fill="none" xmlns="http://www.w3.org/2000/svg">
<g clip-path="url(#clip0_201_4)">
<path d="M1 1.60156C1 1.54948 1.00781 1.5 1.02344 1.45312C1.04427 1.40104 1.07552 1.35677 1.11719 1.32031C1.19531 1.24219 1.28906 1.20312 1.39844 1.20312C1.50781 1.20312 1.60156 1.24219 1.67969 1.32031L8.60156 8.23438L15.5156 1.32031C15.5938 1.24219 15.6875 1.20312 15.7969 1.20312C15.9115 1.20312 16.0078 1.24219 16.0859 1.32031C16.1641 1.39844 16.2031 1.49219 16.2031 1.60156C16.2031 1.71094 16.1641 1.80469 16.0859 1.88281L8.88281 9.08594C8.80469 9.16406 8.71094 9.20312 8.60156 9.20312C8.49219 9.20312 8.39844 9.16406 8.32031 9.08594L1.11719 1.88281C1.07552 1.84635 1.04427 1.80469 1.02344 1.75781C1.00781 1.70573 1 1.65365 1 1.60156Z" fill="#1C0D3F"/>
<path d="M1.02344 1.45312L0.559199 1.26743L0.553742 1.28107L0.549096 1.29501L1.02344 1.45312ZM1.11719 1.32031L1.44644 1.6966L1.45897 1.68564L1.47074 1.67387L1.11719 1.32031ZM1.67969 1.32031L1.32613 1.67387L1.32633 1.67407L1.67969 1.32031ZM8.60156 8.23438L8.24821 8.58813L8.60176 8.94128L8.95512 8.58793L8.60156 8.23438ZM1.11719 1.88281L1.47074 1.52926L1.45897 1.51749L1.44644 1.50652L1.11719 1.88281ZM1.02344 1.75781L0.544524 1.90149L0.553643 1.93188L0.566532 1.96088L1.02344 1.75781ZM1.5 1.60156C1.5 1.6006 1.50007 1.60132 1.49974 1.60337C1.49941 1.60546 1.4988 1.60819 1.49778 1.61124L0.549096 1.29501C0.515576 1.39557 0.5 1.49866 0.5 1.60156H1.5ZM1.48768 1.63882C1.48409 1.64778 1.47867 1.65831 1.47098 1.6692C1.46328 1.68011 1.45476 1.68932 1.44644 1.6966L0.787935 0.944024C0.686049 1.03317 0.608949 1.14305 0.559199 1.26743L1.48768 1.63882ZM1.47074 1.67387C1.46771 1.6769 1.45692 1.68624 1.4384 1.69396C1.41978 1.70172 1.40463 1.70312 1.39844 1.70312V0.703125C1.15495 0.703125 0.934457 0.795936 0.763634 0.966759L1.47074 1.67387ZM1.39844 1.70312C1.39224 1.70312 1.3771 1.70172 1.35847 1.69396C1.33995 1.68624 1.32917 1.6769 1.32613 1.67387L2.03324 0.966759C1.86242 0.795936 1.64193 0.703125 1.39844 0.703125V1.70312ZM1.32633 1.67407L8.24821 8.58813L8.95492 7.88062L2.03304 0.96656L1.32633 1.67407ZM8.95512 8.58793L15.8692 1.67387L15.1621 0.966759L8.24801 7.88082L8.95512 8.58793ZM15.8692 1.67387C15.8661 1.6769 15.8554 1.68624 15.8368 1.69396C15.8182 1.70172 15.8031 1.70312 15.7969 1.70312V0.703125C15.5534 0.703125 15.3329 0.795936 15.1621 0.966759L15.8692 1.67387ZM15.7969 1.70312C15.797 1.70312 15.794 1.70313 15.7883 1.70209C15.7826 1.70103 15.7753 1.69908 15.7672 1.69579C15.7496 1.68863 15.7376 1.67912 15.7324 1.67387L16.4395 0.966759C16.2638 0.791053 16.0386 0.703125 15.7969 0.703125V1.70312ZM15.7324 1.67387C15.7294 1.67083 15.72 1.66005 15.7123 1.64153C15.7045 1.6229 15.7031 1.60776 15.7031 1.60156H16.7031C16.7031 1.35807 16.6103 1.13758 16.4395 0.966759L15.7324 1.67387ZM15.7031 1.60156C15.7031 1.59537 15.7045 1.58022 15.7123 1.5616C15.72 1.54308 15.7294 1.53229 15.7324 1.52926L16.4395 2.23637C16.6103 2.06554 16.7031 1.84505 16.7031 1.60156H15.7031ZM15.7324 1.52926L8.52926 8.73238L9.23637 9.43949L16.4395 2.23637L15.7324 1.52926ZM8.52926 8.73238C8.53229 8.72935 8.54308 8.72001 8.5616 8.71229C8.58022 8.70453 8.59537 8.70312 8.60156 8.70312V9.70312C8.84505 9.70312 9.06554 9.61031 9.23637 9.43949L8.52926 8.73238ZM8.60156 8.70312C8.60776 8.70312 8.6229 8.70453 8.64153 8.71229C8.66005 8.72001 8.67083 8.72935 8.67387 8.73238L7.96676 9.43949C8.13758 9.61031 8.35807 9.70312 8.60156 9.70312V8.70312ZM8.67387 8.73238L1.47074 1.52926L0.763634 2.23637L7.96676 9.43949L8.67387 8.73238ZM1.44644 1.50652C1.45499 1.51401 1.46942 1.53015 1.48034 1.55474L0.566532 1.96088C0.619127 2.07922 0.696051 2.1787 0.787935 2.2591L1.44644 1.50652ZM1.50235 1.61414C1.50009 1.6066 1.5 1.60288 1.5 1.60156H0.5C0.5 1.70442 0.515535 1.80486 0.544524 1.90149L1.50235 1.61414Z" fill="#1C0D3F"/>
</g>
<defs>
<clipPath id="clip0_201_4">
<rect width="17" height="10" fill="white"/>
</clipPath>
</defs>
</svg>
