<svg width="23" height="13" viewBox="0 0 23 13" fill="none" xmlns="http://www.w3.org/2000/svg">
<path d="M0 12.1953C0 12.2734 0.0117188 12.3516 0.0351562 12.4297C0.0664062 12.5 0.113281 12.5664 0.175781 12.6289C0.292969 12.7461 0.433594 12.8047 0.597656 12.8047C0.761719 12.8047 0.902344 12.7461 1.01953 12.6289L11.4023 2.24609L21.7734 12.6289C21.8906 12.7461 22.0312 12.8047 22.1953 12.8047C22.3672 12.8047 22.5117 12.7461 22.6289 12.6289C22.7461 12.5117 22.8047 12.3711 22.8047 12.207C22.8047 12.0352 22.7461 11.8906 22.6289 11.7734L11.8242 0.980469C11.707 0.863281 11.5664 0.804688 11.4023 0.804688C11.2383 0.804688 11.0977 0.863281 10.9805 0.980469L0.175781 11.7734C0.113281 11.8359 0.0664062 11.9062 0.0351562 11.9844C0.0117188 12.0547 0 12.125 0 12.1953Z" fill="#F2F4F6"/>
</svg>
