<svg width="17" height="17" viewBox="0 0 17 17" fill="none" xmlns="http://www.w3.org/2000/svg">
<path d="M8.49963 16.8601C9.58101 16.8601 10.6518 16.6471 11.6509 16.2332C12.6499 15.8194 13.5577 15.2128 14.3223 14.4481C15.0869 13.6834 15.6934 12.7755 16.1071 11.7764C16.5209 10.7773 16.7338 9.7065 16.7336 8.62511C16.7331 6.44148 15.8654 4.34744 14.3214 2.80338C12.7773 1.25932 10.6833 0.391643 8.49963 0.391113C6.316 0.391643 4.22195 1.25932 2.67789 2.80338C1.13383 4.34744 0.266155 6.44148 0.265625 8.62511C0.265625 9.70642 0.478604 10.7771 0.892401 11.7761C1.3062 12.7751 1.91271 13.6828 2.67731 14.4474C4.22148 15.9916 6.31583 16.8591 8.49963 16.8591V16.8601ZM8.49963 15.2661C4.82963 15.2661 1.85962 12.2961 1.85962 8.62511C1.85962 4.95611 4.82963 1.98511 8.49963 1.98511C12.1686 1.98511 15.1396 4.95511 15.1396 8.62511C15.1396 12.2951 12.1706 15.2651 8.49963 15.2651V15.2661ZM9.25763 10.4841C9.47763 10.4841 9.65563 10.3061 9.65563 10.0861V9.87611C9.65563 9.05311 12.0606 9.01911 12.0606 6.79211C12.0606 5.11611 10.3206 3.84411 8.69163 3.84411C7.13663 3.84411 6.13663 4.49111 5.35263 5.64311C5.29506 5.7277 5.2721 5.83114 5.28847 5.93214C5.30484 6.03314 5.35929 6.12403 5.44063 6.18611L6.36462 6.88611C6.53662 7.01811 6.78263 6.98611 6.91763 6.81611C7.41763 6.18611 7.77263 5.82111 8.54263 5.82111C9.13263 5.82111 9.86263 6.20111 9.86263 6.77411C9.86263 7.20711 9.50663 7.42911 8.92263 7.75611C8.24263 8.13711 7.34263 8.61211 7.34263 9.79811V10.0861C7.34315 10.1919 7.38553 10.2931 7.46049 10.3677C7.53544 10.4422 7.63688 10.4841 7.74263 10.4841H9.25763V10.4841ZM8.49963 13.7381C9.26863 13.7381 9.89463 13.1131 9.89463 12.3441C9.88096 11.9833 9.72801 11.6418 9.46789 11.3913C9.20777 11.1409 8.86072 11.0009 8.49963 11.0009C8.13853 11.0009 7.79148 11.1409 7.53136 11.3913C7.27124 11.6418 7.11829 11.9833 7.10463 12.3441C7.10463 13.1131 7.73063 13.7381 8.49963 13.7381Z" fill="#1C0D3F" fill-opacity="0.6"/>
</svg>
