<svg xmlns="http://www.w3.org/2000/svg" width="17" height="17" viewBox="0 0 17 17"><path d="M8.5 16.86a8.234 8.234 0 008.234-8.235A8.236 8.236 0 008.5.391 8.236 8.236 0 00.266 8.625 8.234 8.234 0 008.5 16.859zm0-1.594c-3.67 0-6.64-2.97-6.64-6.641 0-3.669 2.97-6.64 6.64-6.64 3.669 0 6.64 2.97 6.64 6.64 0 3.67-2.969 6.64-6.64 6.64zm.758-4.782c.22 0 .398-.178.398-.398v-.21c0-.823 2.405-.857 2.405-3.084 0-1.676-1.74-2.948-3.369-2.948-1.555 0-2.555.647-3.339 1.799a.4.4 0 00.088.543l.924.7c.172.132.418.1.553-.07.5-.63.855-.995 1.625-.995.59 0 1.32.38 1.32.953 0 .433-.356.655-.94.982-.68.381-1.58.856-1.58 2.042v.288a.4.4 0 00.4.398h1.515zM8.5 13.738c.769 0 1.395-.625 1.395-1.394a1.396 1.396 0 00-2.79 0c0 .769.626 1.394 1.395 1.394z" fill="#14B2E2"/></svg>