<svg width="48" height="49" viewBox="0 0 48 49" fill="none" xmlns="http://www.w3.org/2000/svg">
<path d="M31.1953 16.1487C31.1953 15.9456 31.1484 15.4534 31.0547 14.6721C30.9609 13.8909 30.7266 13.0549 30.3516 12.1643C30.1016 11.5393 29.7969 10.9846 29.4375 10.5002C29.0781 10.0002 28.6719 9.57056 28.2188 9.21118C28.1094 9.11743 27.9922 9.03149 27.8672 8.95337C27.7422 8.85962 27.6172 8.78149 27.4922 8.71899C27.8984 8.28149 28.2188 7.78149 28.4531 7.21899C28.6875 6.65649 28.8047 6.05493 28.8047 5.41431C28.8047 4.75806 28.6797 4.14087 28.4297 3.56274C28.1797 2.96899 27.8359 2.46118 27.3984 2.03931C26.9609 1.60181 26.4453 1.25806 25.8516 1.00806C25.2734 0.742432 24.6562 0.609619 24 0.609619C23.3438 0.609619 22.7188 0.742432 22.125 1.00806C21.5469 1.25806 21.0391 1.60181 20.6016 2.03931C20.1641 2.46118 19.8203 2.96899 19.5703 3.56274C19.3203 4.14087 19.1953 4.75806 19.1953 5.41431C19.1953 6.05493 19.3125 6.65649 19.5469 7.21899C19.7812 7.78149 20.1016 8.28149 20.5078 8.71899C20.3828 8.78149 20.2578 8.85962 20.1328 8.95337C20.0078 9.03149 19.8906 9.11743 19.7812 9.21118C19.3281 9.57056 18.9219 10.0002 18.5625 10.5002C18.2031 10.9846 17.8984 11.5393 17.6484 12.1643C17.2266 13.1643 16.9766 14.0784 16.8984 14.9065C16.8359 15.7346 16.8047 16.1721 16.8047 16.219C16.8047 16.5471 16.9219 16.8284 17.1562 17.0627C17.3906 17.2971 17.6719 17.4143 18 17.4143H30C30.3281 17.4143 30.6094 17.2971 30.8438 17.0627C31.0781 16.8284 31.1953 16.5471 31.1953 16.219C31.1953 16.2034 31.1953 16.1877 31.1953 16.1721C31.1953 16.1565 31.1953 16.1487 31.1953 16.1487ZM21.6094 5.41431C21.6094 4.75806 21.8438 4.19556 22.3125 3.72681C22.7812 3.25806 23.3438 3.02368 24 3.02368C24.6562 3.02368 25.2188 3.25806 25.6875 3.72681C26.1562 4.19556 26.3906 4.75806 26.3906 5.41431C26.3906 6.08618 26.1562 6.65649 25.6875 7.12524C25.2188 7.59399 24.6562 7.82837 24 7.82837C23.3438 7.82837 22.7812 7.59399 22.3125 7.12524C21.8438 6.65649 21.6094 6.08618 21.6094 5.41431ZM19.3125 15.0237C19.3594 14.7424 19.4219 14.4377 19.5 14.1096C19.5938 13.7659 19.7109 13.4221 19.8516 13.0784C20.2578 12.1096 20.7969 11.3909 21.4688 10.9221C22.1562 10.4534 23 10.219 24 10.219C24.8594 10.219 25.5703 10.3909 26.1328 10.7346C26.7109 11.0627 27.1719 11.4768 27.5156 11.9768C27.875 12.4612 28.1406 12.9846 28.3125 13.5471C28.5 14.094 28.625 14.5862 28.6875 15.0237H19.3125ZM14.3906 42.5393C14.3906 42.3362 14.3438 41.8518 14.25 41.0862C14.1562 40.3049 13.9219 39.4612 13.5469 38.5549C13.2969 37.9456 12.9922 37.3909 12.6328 36.8909C12.2734 36.3909 11.8672 35.9612 11.4141 35.6018C11.3047 35.5081 11.1875 35.4221 11.0625 35.344C10.9375 35.2659 10.8125 35.1877 10.6875 35.1096C11.0938 34.6721 11.4141 34.1721 11.6484 33.6096C11.8828 33.0471 12 32.4534 12 31.8284C12 31.1565 11.875 30.5315 11.625 29.9534C11.375 29.3752 11.0312 28.8674 10.5938 28.4299C10.1562 27.9924 9.64844 27.6487 9.07031 27.3987C8.49219 27.1487 7.86719 27.0237 7.19531 27.0237C6.53906 27.0237 5.91406 27.1487 5.32031 27.3987C4.74219 27.6487 4.23438 27.9924 3.79688 28.4299C3.375 28.8674 3.03125 29.3752 2.76562 29.9534C2.51562 30.5315 2.39062 31.1565 2.39062 31.8284C2.39062 32.4534 2.50781 33.0471 2.74219 33.6096C2.97656 34.1721 3.29688 34.6721 3.70312 35.1096C3.57812 35.1877 3.45312 35.2659 3.32812 35.344C3.21875 35.4221 3.10156 35.5081 2.97656 35.6018C2.52344 35.9612 2.11719 36.3909 1.75781 36.8909C1.39844 37.3909 1.09375 37.9456 0.84375 38.5549C0.421875 39.5549 0.171875 40.4768 0.09375 41.3206C0.03125 42.1487 0 42.5784 0 42.6096C0 42.9534 0.117188 43.2424 0.351562 43.4768C0.585938 43.7112 0.867188 43.8284 1.19531 43.8284H13.1953C13.5234 43.8284 13.8047 43.7112 14.0391 43.4768C14.2734 43.2424 14.3906 42.9534 14.3906 42.6096C14.3906 42.6096 14.3906 42.6018 14.3906 42.5862C14.3906 42.5706 14.3906 42.5549 14.3906 42.5393ZM4.80469 31.8284C4.80469 31.1565 5.03906 30.5862 5.50781 30.1174C5.97656 29.6487 6.53906 29.4143 7.19531 29.4143C7.86719 29.4143 8.4375 29.6487 8.90625 30.1174C9.375 30.5862 9.60938 31.1565 9.60938 31.8284C9.60938 32.4846 9.375 33.0471 8.90625 33.5159C8.4375 33.9846 7.86719 34.219 7.19531 34.219C6.53906 34.219 5.97656 33.9846 5.50781 33.5159C5.03906 33.0471 4.80469 32.4846 4.80469 31.8284ZM2.53125 41.4143C2.5625 41.1331 2.61719 40.8284 2.69531 40.5002C2.78906 40.1565 2.90625 39.8127 3.04688 39.469C3.45312 38.5159 4 37.8049 4.6875 37.3362C5.375 36.8518 6.21094 36.6096 7.19531 36.6096C8.05469 36.6096 8.76562 36.7815 9.32812 37.1252C9.90625 37.4534 10.3672 37.8674 10.7109 38.3674C11.0703 38.8518 11.3359 39.3752 11.5078 39.9377C11.6953 40.4846 11.8203 40.9768 11.8828 41.4143H2.53125ZM48 42.5393C48 42.3362 47.9531 41.8518 47.8594 41.0862C47.7656 40.3049 47.5312 39.4612 47.1562 38.5549C46.9062 37.9456 46.6016 37.3909 46.2422 36.8909C45.8828 36.3909 45.4766 35.9612 45.0234 35.6018C44.8984 35.5081 44.7734 35.4221 44.6484 35.344C44.5391 35.2659 44.4219 35.1877 44.2969 35.1096C44.7031 34.6721 45.0234 34.1721 45.2578 33.6096C45.4922 33.0471 45.6094 32.4534 45.6094 31.8284C45.6094 31.1565 45.4766 30.5315 45.2109 29.9534C44.9609 29.3752 44.6172 28.8674 44.1797 28.4299C43.7578 27.9924 43.25 27.6487 42.6562 27.3987C42.0781 27.1487 41.4609 27.0237 40.8047 27.0237C40.1328 27.0237 39.5078 27.1487 38.9297 27.3987C38.3516 27.6487 37.8438 27.9924 37.4062 28.4299C36.9688 28.8674 36.625 29.3752 36.375 29.9534C36.125 30.5315 36 31.1565 36 31.8284C36 32.4534 36.1172 33.0471 36.3516 33.6096C36.5859 34.1721 36.9062 34.6721 37.3125 35.1096C37.1875 35.1877 37.0625 35.2659 36.9375 35.344C36.8125 35.4221 36.6953 35.5081 36.5859 35.6018C36.1328 35.9612 35.7266 36.3909 35.3672 36.8909C35.0078 37.3909 34.7031 37.9456 34.4531 38.5549C34.0312 39.5549 33.7812 40.4768 33.7031 41.3206C33.6406 42.1487 33.6094 42.5784 33.6094 42.6096C33.6094 42.9534 33.7266 43.2424 33.9609 43.4768C34.1953 43.7112 34.4766 43.8284 34.8047 43.8284H46.8047C47.1328 43.8284 47.4141 43.7112 47.6484 43.4768C47.8828 43.2424 48 42.9534 48 42.6096C48 42.6096 48 42.6018 48 42.5862C48 42.5706 48 42.5549 48 42.5393ZM38.3906 31.8284C38.3906 31.1565 38.625 30.5862 39.0938 30.1174C39.5625 29.6487 40.1328 29.4143 40.8047 29.4143C41.4609 29.4143 42.0234 29.6487 42.4922 30.1174C42.9609 30.5862 43.1953 31.1565 43.1953 31.8284C43.1953 32.4846 42.9609 33.0471 42.4922 33.5159C42.0234 33.9846 41.4609 34.219 40.8047 34.219C40.1328 34.219 39.5625 33.9846 39.0938 33.5159C38.625 33.0471 38.3906 32.4846 38.3906 31.8284ZM36.1172 41.4143C36.1641 41.1331 36.2266 40.8284 36.3047 40.5002C36.3984 40.1565 36.5156 39.8127 36.6562 39.469C37.0625 38.5159 37.6016 37.8049 38.2734 37.3362C38.9609 36.8518 39.8047 36.6096 40.8047 36.6096C41.6641 36.6096 42.375 36.7815 42.9375 37.1252C43.5156 37.4534 43.9766 37.8674 44.3203 38.3674C44.6797 38.8518 44.9453 39.3752 45.1172 39.9377C45.2891 40.4846 45.4141 40.9768 45.4922 41.4143H36.1172ZM24 48.6096C23.2188 48.6096 22.4375 48.5627 21.6562 48.469C20.8906 48.3752 20.1328 48.2346 19.3828 48.0471C18.6328 47.8596 17.8906 47.6252 17.1562 47.344C16.4375 47.0784 15.7344 46.7659 15.0469 46.4065C14.75 46.2502 14.5469 46.0159 14.4375 45.7034C14.3438 45.3752 14.375 45.0706 14.5312 44.7893C14.6875 44.4924 14.9219 44.2971 15.2344 44.2034C15.5625 44.094 15.875 44.1174 16.1719 44.2737C16.7656 44.6018 17.375 44.8909 18 45.1409C18.6406 45.3752 19.2891 45.5706 19.9453 45.7268C20.6172 45.8831 21.2891 46.0081 21.9609 46.1018C22.6328 46.1799 23.3125 46.219 24 46.219C24.6875 46.219 25.3672 46.1799 26.0391 46.1018C26.7109 46.0081 27.375 45.8831 28.0312 45.7268C28.7031 45.5706 29.3516 45.3752 29.9766 45.1409C30.6172 44.8909 31.2344 44.6018 31.8281 44.2737C32.125 44.1174 32.4297 44.094 32.7422 44.2034C33.0703 44.2971 33.3125 44.4924 33.4688 44.7893C33.625 45.0706 33.6484 45.3752 33.5391 45.7034C33.4453 46.0159 33.25 46.2502 32.9531 46.4065C32.2656 46.7659 31.5547 47.0784 30.8203 47.344C30.1016 47.6252 29.3672 47.8596 28.6172 48.0471C27.8672 48.2346 27.1016 48.3752 26.3203 48.469C25.5547 48.5627 24.7812 48.6096 24 48.6096ZM41.3438 25.8284C41.0938 25.8284 40.8594 25.7502 40.6406 25.594C40.4219 25.4221 40.2734 25.2034 40.1953 24.9377C39.9141 23.9377 39.5469 22.9768 39.0938 22.0549C38.6406 21.1174 38.1016 20.2346 37.4766 19.4065C36.8672 18.5784 36.1797 17.8127 35.4141 17.1096C34.6641 16.4065 33.8438 15.7737 32.9531 15.2112C32.6719 15.0237 32.4922 14.7737 32.4141 14.4612C32.3516 14.1331 32.4062 13.8284 32.5781 13.5471C32.7656 13.2659 33.0156 13.094 33.3281 13.0315C33.6562 12.9534 33.9609 13.0002 34.2422 13.1721C35.2578 13.8127 36.1953 14.5393 37.0547 15.3518C37.9297 16.1487 38.7188 17.0237 39.4219 17.9768C40.125 18.9143 40.7344 19.9143 41.25 20.9768C41.7656 22.0393 42.1875 23.1487 42.5156 24.3049C42.5938 24.6174 42.5469 24.9221 42.375 25.219C42.2188 25.5002 41.9844 25.6877 41.6719 25.7815C41.625 25.7971 41.5703 25.8127 41.5078 25.8284C41.4609 25.8284 41.4062 25.8284 41.3438 25.8284ZM6.65625 25.8284C6.59375 25.8284 6.53125 25.8284 6.46875 25.8284C6.42188 25.8127 6.375 25.7971 6.32812 25.7815C6.01562 25.6877 5.77344 25.5002 5.60156 25.219C5.44531 24.9221 5.40625 24.6174 5.48438 24.3049C5.8125 23.1487 6.23438 22.0393 6.75 20.9768C7.26562 19.9143 7.875 18.9143 8.57812 17.9768C9.28125 17.0237 10.0625 16.1487 10.9219 15.3518C11.7969 14.5393 12.7422 13.8127 13.7578 13.1721C14.0391 13.0002 14.3359 12.9534 14.6484 13.0315C14.9766 13.094 15.2344 13.2659 15.4219 13.5471C15.5938 13.8284 15.6406 14.1331 15.5625 14.4612C15.5 14.7737 15.3281 15.0237 15.0469 15.2112C14.1562 15.7737 13.3281 16.4065 12.5625 17.1096C11.8125 17.8127 11.125 18.5784 10.5 19.4065C9.89062 20.2346 9.35938 21.1174 8.90625 22.0549C8.45312 22.9768 8.08594 23.9377 7.80469 24.9377C7.72656 25.2034 7.57812 25.4221 7.35938 25.594C7.14062 25.7502 6.90625 25.8284 6.65625 25.8284Z" fill="#1B127D"/>
</svg>
