<svg width="36" height="37" viewBox="0 0 36 37" fill="none" xmlns="http://www.w3.org/2000/svg">
<path d="M34.3828 2.41016C33.8789 1.90625 33.2988 1.51953 32.6426 1.25C31.998 0.980469 31.3184 0.845703 30.6035 0.845703C29.8887 0.845703 29.2031 0.980469 28.5469 1.25C27.9023 1.51953 27.3223 1.90625 26.8066 2.41016L9.26367 19.9707C9.2168 20.0176 9.17578 20.0703 9.14062 20.1289C9.10547 20.1758 9.07617 20.2285 9.05273 20.2871L5.44922 30.2012C5.39062 30.3652 5.37891 30.5352 5.41406 30.7109C5.46094 30.875 5.54297 31.0156 5.66016 31.1328C5.75391 31.2266 5.85352 31.2969 5.95898 31.3438C6.06445 31.3789 6.17578 31.3965 6.29297 31.3965C6.35156 31.3965 6.4043 31.3965 6.45117 31.3965C6.50977 31.3848 6.5625 31.3672 6.60938 31.3438L16.5059 27.7402C16.5645 27.7168 16.623 27.6875 16.6816 27.6523C16.7402 27.6172 16.793 27.5762 16.8398 27.5293L34.3828 9.98633C34.8867 9.48242 35.2734 8.9082 35.543 8.26367C35.8125 7.60742 35.9473 6.92188 35.9473 6.20703C35.9473 5.49219 35.8125 4.80664 35.543 4.15039C35.2734 3.49414 34.8867 2.91406 34.3828 2.41016ZM15.6973 26.123L7.80469 28.9883L10.6699 21.0957L25.207 6.57617L30.2344 11.6035L15.6973 26.123ZM33.1172 8.7207L31.5 10.3203L26.4727 5.29297L28.0898 3.69336C28.418 3.35352 28.7988 3.0957 29.2324 2.91992C29.666 2.73242 30.123 2.63867 30.6035 2.63867C31.0723 2.63867 31.5234 2.73242 31.957 2.91992C32.3906 3.0957 32.7773 3.35352 33.1172 3.69336C33.4453 4.02148 33.6973 4.40234 33.873 4.83594C34.0605 5.26953 34.1543 5.72656 34.1543 6.20703C34.1543 6.67578 34.0605 7.12695 33.873 7.56055C33.6973 7.99414 33.4453 8.38086 33.1172 8.7207ZM31.5 36.793H2.70703C1.95703 36.793 1.31836 36.5293 0.791016 36.002C0.263672 35.4746 0 34.8418 0 34.1035V5.29297C0 4.55469 0.263672 3.92188 0.791016 3.39453C1.31836 2.86719 1.95703 2.60352 2.70703 2.60352H20.707C20.9531 2.60352 21.1641 2.69141 21.3398 2.86719C21.5156 3.04297 21.6035 3.25391 21.6035 3.5C21.6035 3.74609 21.5156 3.95703 21.3398 4.13281C21.1641 4.30859 20.9531 4.39648 20.707 4.39648H2.70703C2.44922 4.39648 2.23242 4.48438 2.05664 4.66016C1.88086 4.83594 1.79297 5.04688 1.79297 5.29297V34.1035C1.79297 34.3496 1.88086 34.5605 2.05664 34.7363C2.23242 34.9121 2.44922 35 2.70703 35H31.5C31.7461 35 31.957 34.9121 32.1328 34.7363C32.3086 34.5605 32.3965 34.3496 32.3965 34.1035V16.1035C32.3965 15.8574 32.4844 15.6465 32.6602 15.4707C32.8359 15.2949 33.0469 15.207 33.293 15.207C33.5508 15.207 33.7676 15.2949 33.9434 15.4707C34.1191 15.6465 34.207 15.8574 34.207 16.1035V34.1035C34.207 34.8418 33.9434 35.4746 33.416 36.002C32.8887 36.5293 32.25 36.793 31.5 36.793Z" fill="#F2F4F6"/>
</svg>
