<svg width="36" height="37" viewBox="0 0 36 37" fill="none" xmlns="http://www.w3.org/2000/svg">
<path d="M31.5 17H29.707C29.4492 17 29.2324 16.9121 29.0566 16.7363C28.8809 16.5605 28.793 16.3496 28.793 16.1035C28.793 15.8574 28.8809 15.6465 29.0566 15.4707C29.2324 15.2949 29.4492 15.207 29.707 15.207H31.5C31.7461 15.207 31.957 15.2949 32.1328 15.4707C32.3086 15.6465 32.3965 15.8574 32.3965 16.1035C32.3965 16.3496 32.3086 16.5605 32.1328 16.7363C31.957 16.9121 31.7461 17 31.5 17ZM31.5 24.207H29.707C29.4492 24.207 29.2324 24.1191 29.0566 23.9434C28.8809 23.7676 28.793 23.5508 28.793 23.293C28.793 23.0469 28.8809 22.8359 29.0566 22.6602C29.2324 22.4844 29.4492 22.3965 29.707 22.3965H31.5C31.7461 22.3965 31.957 22.4844 32.1328 22.6602C32.3086 22.8359 32.3965 23.0469 32.3965 23.293C32.3965 23.5508 32.3086 23.7676 32.1328 23.9434C31.957 24.1191 31.7461 24.207 31.5 24.207ZM31.5 31.3965H29.707C29.4492 31.3965 29.2324 31.3086 29.0566 31.1328C28.8809 30.957 28.793 30.7461 28.793 30.5C28.793 30.2539 28.8809 30.043 29.0566 29.8672C29.2324 29.6914 29.4492 29.6035 29.707 29.6035H31.5C31.7461 29.6035 31.957 29.6914 32.1328 29.8672C32.3086 30.043 32.3965 30.2539 32.3965 30.5C32.3965 30.7461 32.3086 30.957 32.1328 31.1328C31.957 31.3086 31.7461 31.3965 31.5 31.3965ZM36 14.293C36 13.7305 35.9004 13.0801 35.7012 12.3418C35.502 11.6035 35.2559 10.9883 34.9629 10.4961L30.4805 2.79688C30.1523 2.23438 29.6543 1.75977 28.9863 1.37305C28.3184 0.986328 27.6562 0.792969 27 0.792969H9C8.34375 0.792969 7.68164 0.986328 7.01367 1.37305C6.3457 1.75977 5.84766 2.23438 5.51953 2.79688L1.03711 10.4961C0.744141 10.9883 0.498047 11.6035 0.298828 12.3418C0.0996094 13.0801 0 13.7305 0 14.293V17.8965C0 18.248 0.0585938 18.5762 0.175781 18.8809C0.304688 19.1855 0.474609 19.4609 0.685547 19.707C0.474609 19.9414 0.304688 20.2168 0.175781 20.5332C0.0585938 20.8379 0 21.1602 0 21.5V25.1035C0 25.4434 0.0585938 25.7715 0.175781 26.0879C0.304688 26.3926 0.474609 26.6621 0.685547 26.8965C0.474609 27.1426 0.304688 27.418 0.175781 27.7227C0.0585938 28.0273 0 28.3555 0 28.707V34.1035C0 34.8418 0.263672 35.4746 0.791016 36.002C1.31836 36.5293 1.95703 36.793 2.70703 36.793H33.293C34.043 36.793 34.6816 36.5293 35.209 36.002C35.7363 35.4746 36 34.8418 36 34.1035V28.707C36 28.3555 35.9355 28.0273 35.8066 27.7227C35.6895 27.418 35.5254 27.1426 35.3145 26.8965C35.5254 26.6621 35.6895 26.3926 35.8066 26.0879C35.9355 25.7715 36 25.4434 36 25.1035V21.5C36 21.1602 35.9355 20.8379 35.8066 20.5332C35.6895 20.2168 35.5254 19.9414 35.3145 19.707C35.5254 19.4609 35.6895 19.1855 35.8066 18.8809C35.9355 18.5762 36 18.248 36 17.8965V14.293ZM34.207 21.5V25.1035C34.207 25.3496 34.1191 25.5605 33.9434 25.7363C33.7676 25.9121 33.5508 26 33.293 26H2.70703C2.44922 26 2.23242 25.9121 2.05664 25.7363C1.88086 25.5605 1.79297 25.3496 1.79297 25.1035V21.5C1.79297 21.2539 1.88086 21.043 2.05664 20.8672C2.23242 20.6914 2.44922 20.6035 2.70703 20.6035H33.293C33.5508 20.6035 33.7676 20.6914 33.9434 20.8672C34.1191 21.043 34.207 21.2539 34.207 21.5ZM2.70703 18.793C2.44922 18.793 2.23242 18.7051 2.05664 18.5293C1.88086 18.3535 1.79297 18.1426 1.79297 17.8965V14.293C1.79297 14.0469 1.88086 13.8359 2.05664 13.6602C2.23242 13.4844 2.44922 13.3965 2.70703 13.3965H33.293C33.5508 13.3965 33.7676 13.4844 33.9434 13.6602C34.1191 13.8359 34.207 14.0469 34.207 14.293V17.8965C34.207 18.1426 34.1191 18.3535 33.9434 18.5293C33.7676 18.7051 33.5508 18.793 33.293 18.793H2.70703ZM7.06641 3.71094C7.24219 3.41797 7.52344 3.16016 7.91016 2.9375C8.29688 2.71484 8.66016 2.60352 9 2.60352H27C27.3398 2.60352 27.7031 2.71484 28.0898 2.9375C28.4766 3.16016 28.7578 3.41797 28.9336 3.71094L33.416 11.3926C33.4395 11.4277 33.457 11.4629 33.4688 11.498C33.4922 11.5332 33.5098 11.5684 33.5215 11.6035C33.4863 11.6035 33.4512 11.6035 33.416 11.6035C33.3809 11.6035 33.3398 11.6035 33.293 11.6035H2.70703C2.66016 11.6035 2.61914 11.6035 2.58398 11.6035C2.54883 11.6035 2.51367 11.6035 2.47852 11.6035C2.49023 11.5684 2.50195 11.5332 2.51367 11.498C2.53711 11.4629 2.56055 11.4277 2.58398 11.3926L7.06641 3.71094ZM34.207 34.1035C34.207 34.3496 34.1191 34.5605 33.9434 34.7363C33.7676 34.9121 33.5508 35 33.293 35H2.70703C2.44922 35 2.23242 34.9121 2.05664 34.7363C1.88086 34.5605 1.79297 34.3496 1.79297 34.1035V28.707C1.79297 28.4492 1.88086 28.2324 2.05664 28.0566C2.23242 27.8809 2.44922 27.793 2.70703 27.793H33.293C33.5508 27.793 33.7676 27.8809 33.9434 28.0566C34.1191 28.2324 34.207 28.4492 34.207 28.707V34.1035ZM5.39648 23.293C5.39648 23.5508 5.30859 23.7676 5.13281 23.9434C4.95703 24.1191 4.74609 24.207 4.5 24.207C4.25391 24.207 4.04297 24.1191 3.86719 23.9434C3.69141 23.7676 3.60352 23.5508 3.60352 23.293C3.60352 23.0469 3.69141 22.8359 3.86719 22.6602C4.04297 22.4844 4.25391 22.3965 4.5 22.3965C4.74609 22.3965 4.95703 22.4844 5.13281 22.6602C5.30859 22.8359 5.39648 23.0469 5.39648 23.293ZM9 23.293C9 23.5508 8.91211 23.7676 8.73633 23.9434C8.56055 24.1191 8.34961 24.207 8.10352 24.207C7.85742 24.207 7.64648 24.1191 7.4707 23.9434C7.29492 23.7676 7.20703 23.5508 7.20703 23.293C7.20703 23.0469 7.29492 22.8359 7.4707 22.6602C7.64648 22.4844 7.85742 22.3965 8.10352 22.3965C8.34961 22.3965 8.56055 22.4844 8.73633 22.6602C8.91211 22.8359 9 23.0469 9 23.293ZM12.6035 23.293C12.6035 23.5508 12.5156 23.7676 12.3398 23.9434C12.1641 24.1191 11.9531 24.207 11.707 24.207C11.4492 24.207 11.2324 24.1191 11.0566 23.9434C10.8809 23.7676 10.793 23.5508 10.793 23.293C10.793 23.0469 10.8809 22.8359 11.0566 22.6602C11.2324 22.4844 11.4492 22.3965 11.707 22.3965C11.9531 22.3965 12.1641 22.4844 12.3398 22.6602C12.5156 22.8359 12.6035 23.0469 12.6035 23.293ZM16.207 23.293C16.207 23.5508 16.1191 23.7676 15.9434 23.9434C15.7676 24.1191 15.5508 24.207 15.293 24.207C15.0469 24.207 14.8359 24.1191 14.6602 23.9434C14.4844 23.7676 14.3965 23.5508 14.3965 23.293C14.3965 23.0469 14.4844 22.8359 14.6602 22.6602C14.8359 22.4844 15.0469 22.3965 15.293 22.3965C15.5508 22.3965 15.7676 22.4844 15.9434 22.6602C16.1191 22.8359 16.207 23.0469 16.207 23.293ZM27 16.1035C27 16.3496 26.9121 16.5605 26.7363 16.7363C26.5605 16.9121 26.3496 17 26.1035 17C25.8574 17 25.6465 16.9121 25.4707 16.7363C25.2949 16.5605 25.207 16.3496 25.207 16.1035C25.207 15.8574 25.2949 15.6465 25.4707 15.4707C25.6465 15.2949 25.8574 15.207 26.1035 15.207C26.3496 15.207 26.5605 15.2949 26.7363 15.4707C26.9121 15.6465 27 15.8574 27 16.1035ZM27 23.293C27 23.5508 26.9121 23.7676 26.7363 23.9434C26.5605 24.1191 26.3496 24.207 26.1035 24.207C25.8574 24.207 25.6465 24.1191 25.4707 23.9434C25.2949 23.7676 25.207 23.5508 25.207 23.293C25.207 23.0469 25.2949 22.8359 25.4707 22.6602C25.6465 22.4844 25.8574 22.3965 26.1035 22.3965C26.3496 22.3965 26.5605 22.4844 26.7363 22.6602C26.9121 22.8359 27 23.0469 27 23.293ZM27 30.5C27 30.7461 26.9121 30.957 26.7363 31.1328C26.5605 31.3086 26.3496 31.3965 26.1035 31.3965C25.8574 31.3965 25.6465 31.3086 25.4707 31.1328C25.2949 30.957 25.207 30.7461 25.207 30.5C25.207 30.2539 25.2949 30.043 25.4707 29.8672C25.6465 29.6914 25.8574 29.6035 26.1035 29.6035C26.3496 29.6035 26.5605 29.6914 26.7363 29.8672C26.9121 30.043 27 30.2539 27 30.5Z" fill="#F2F4F6"/>
</svg>
