<svg width="100" height="100" viewBox="0 0 100 100" fill="none" xmlns="http://www.w3.org/2000/svg">
<path fill-rule="evenodd" clip-rule="evenodd" d="M84.2 15.609H71.615V11.029C71.615 10.485 71.177 10.044 70.636 10.044C70.095 10.044 69.656 10.485 69.656 11.029V15.609H31.538V10.986C31.538 10.44 31.102 10 30.559 10C30.017 10 29.58 10.44 29.58 10.986V15.609H17C13.149 15.609 10 18.777 10 22.648V82.83C10 86.701 13.149 89.867 17 89.867H84.2C88.051 89.867 91.2 86.701 91.2 82.83V22.648C91.2 18.777 88.05 15.609 84.2 15.609ZM17 17.58H29.58V24.46C29.58 25.004 30.018 25.444 30.559 25.444C31.102 25.444 31.538 25.004 31.538 24.46V17.58H69.655V24.46C69.655 25.004 70.094 25.444 70.635 25.444C71.175 25.444 71.614 25.004 71.614 24.46V17.58H84.2C86.977 17.58 89.238 19.854 89.238 22.648V32.575H88.349H12.749H11.959V22.648C11.959 19.854 14.22 17.58 17 17.58ZM17 87.899H84.2C86.977 87.899 89.238 85.625 89.238 82.831V34.545H88.349H11.959V82.831C11.959 85.626 14.22 87.899 17 87.899Z" fill="#1B127D"/>
</svg>
