<svg width="35" height="26" viewBox="0 0 35 26" fill="none" xmlns="http://www.w3.org/2000/svg">
<path d="M33.293 11.6855L28.6172 2.29883C28.3125 1.71289 27.832 1.2207 27.1758 0.822266C26.5195 0.412109 25.8633 0.207031 25.207 0.207031H20.707C20.4492 0.207031 20.2324 0.294922 20.0566 0.470703C19.8809 0.646484 19.793 0.857422 19.793 1.10352C19.793 1.34961 19.8809 1.56055 20.0566 1.73633C20.2324 1.91211 20.4492 2 20.707 2H25.207C25.5234 2 25.8633 2.11133 26.2266 2.33398C26.6016 2.55664 26.8594 2.81445 27 3.10742L31.6934 12.4941C31.7168 12.541 31.7402 12.5938 31.7637 12.6523C31.7871 12.7109 31.8105 12.7695 31.834 12.8281C31.7754 12.8164 31.7168 12.8105 31.6582 12.8105C31.6113 12.7988 31.5586 12.793 31.5 12.793H22.5C22.2539 12.793 22.043 12.8809 21.8672 13.0566C21.6914 13.2324 21.6035 13.4492 21.6035 13.707C21.6035 14.3281 21.4863 14.9141 21.252 15.4648C21.0176 16.0039 20.6953 16.4785 20.2852 16.8887C19.875 17.2871 19.3945 17.6094 18.8438 17.8555C18.3047 18.0898 17.7246 18.207 17.1035 18.207C16.4824 18.207 15.8965 18.0898 15.3457 17.8555C14.8066 17.6094 14.332 17.2871 13.9219 16.8887C13.5117 16.4785 13.1895 16.0039 12.9551 15.4648C12.7207 14.9141 12.6035 14.3281 12.6035 13.707C12.6035 13.4492 12.5156 13.2324 12.3398 13.0566C12.1641 12.8809 11.9531 12.793 11.707 12.793H2.70703C2.64844 12.793 2.58984 12.7988 2.53125 12.8105C2.47266 12.8105 2.41406 12.8164 2.35547 12.8281C2.39062 12.7695 2.41992 12.7109 2.44336 12.6523C2.4668 12.5938 2.49023 12.541 2.51367 12.4941L7.20703 3.10742C7.34766 2.81445 7.59961 2.55664 7.96289 2.33398C8.32617 2.11133 8.67188 2 9 2H13.5C13.7461 2 13.957 1.91211 14.1328 1.73633C14.3086 1.56055 14.3965 1.34961 14.3965 1.10352C14.3965 0.857422 14.3086 0.646484 14.1328 0.470703C13.957 0.294922 13.7461 0.207031 13.5 0.207031H9C8.34375 0.207031 7.68164 0.412109 7.01367 0.822266C6.35742 1.2207 5.88281 1.71289 5.58984 2.29883L0.896484 11.6855C0.650391 12.1895 0.439453 12.8105 0.263672 13.5488C0.0878906 14.2871 0 14.9375 0 15.5V22.707C0 23.4453 0.263672 24.0781 0.791016 24.6055C1.31836 25.1328 1.95703 25.3965 2.70703 25.3965H31.5C32.25 25.3965 32.8887 25.1328 33.416 24.6055C33.9434 24.0781 34.207 23.4453 34.207 22.707V15.5C34.207 14.9375 34.1191 14.2871 33.9434 13.5488C33.7676 12.8105 33.5508 12.1895 33.293 11.6855ZM32.3965 22.707C32.3965 22.9531 32.3086 23.1641 32.1328 23.3398C31.957 23.5156 31.7461 23.6035 31.5 23.6035H2.70703C2.44922 23.6035 2.23242 23.5156 2.05664 23.3398C1.88086 23.1641 1.79297 22.9531 1.79297 22.707V15.5C1.79297 15.2539 1.88086 15.043 2.05664 14.8672C2.23242 14.6914 2.44922 14.6035 2.70703 14.6035H10.8633C10.9688 15.3652 11.2031 16.0742 11.5664 16.7305C11.9414 17.3867 12.4043 17.9609 12.9551 18.4531C13.5059 18.9336 14.1328 19.3145 14.8359 19.5957C15.5508 19.8652 16.3066 20 17.1035 20C17.8887 20 18.6328 19.8652 19.3359 19.5957C20.0508 19.3145 20.6836 18.9336 21.2344 18.4531C21.7969 17.9609 22.2598 17.3867 22.623 16.7305C22.9863 16.0742 23.2266 15.3652 23.3438 14.6035H31.5C31.7461 14.6035 31.957 14.6914 32.1328 14.8672C32.3086 15.043 32.3965 15.2539 32.3965 15.5V22.707ZM21.3398 4.9707L17.7363 1.36719C17.5605 1.19141 17.3496 1.10352 17.1035 1.10352C16.8574 1.10352 16.6465 1.19141 16.4707 1.36719L12.8672 4.9707C12.6914 5.14648 12.6035 5.35742 12.6035 5.60352C12.6035 5.84961 12.6914 6.06055 12.8672 6.23633C13.043 6.41211 13.2539 6.5 13.5 6.5C13.7461 6.5 13.957 6.41211 14.1328 6.23633L16.207 4.17969V11.8965C16.207 12.1426 16.2949 12.3535 16.4707 12.5293C16.6465 12.7051 16.8574 12.793 17.1035 12.793C17.3496 12.793 17.5605 12.7051 17.7363 12.5293C17.9121 12.3535 18 12.1426 18 11.8965V4.17969L20.0566 6.23633C20.1504 6.33008 20.25 6.40039 20.3555 6.44727C20.4727 6.48242 20.5898 6.5 20.707 6.5C20.8125 6.5 20.918 6.48242 21.0234 6.44727C21.1406 6.40039 21.2461 6.33008 21.3398 6.23633C21.5156 6.06055 21.6035 5.84961 21.6035 5.60352C21.6035 5.35742 21.5156 5.14648 21.3398 4.9707Z" fill="#F2F4F6"/>
</svg>
