<svg width="30" height="20" viewBox="0 0 30 20" fill="none" xmlns="http://www.w3.org/2000/svg">
<path d="M28.8154 7.42707C28.737 7.36172 28.0312 6.82587 26.5152 6.82587C26.1231 6.82587 25.7179 6.86508 25.3258 6.93043C25.0383 4.93078 23.3785 3.96362 23.3131 3.91135L22.908 3.67609L22.6466 4.05511C22.3198 4.56483 22.0715 5.13989 21.9277 5.72802C21.6533 6.86508 21.8232 7.93678 22.3982 8.85166C21.7056 9.24374 20.5816 9.33523 20.3463 9.3483H1.78747C1.30389 9.3483 0.911801 9.74039 0.911801 10.224C0.885662 11.8446 1.16012 13.4652 1.72212 14.9944C2.36253 16.6673 3.31661 17.9089 4.54515 18.6669C5.93053 19.5165 8.19158 20 10.7402 20C11.8903 20 13.0404 19.8955 14.1775 19.6864C15.7589 19.3988 17.275 18.8499 18.6734 18.0527C19.8235 17.3861 20.856 16.5366 21.7317 15.5433C23.2086 13.8835 24.0842 12.0276 24.7246 10.3808C24.8161 10.3808 24.8945 10.3808 24.986 10.3808C26.5936 10.3808 27.5869 9.74039 28.1358 9.19147C28.5018 8.85166 28.7762 8.43343 28.9723 7.96292L29.0899 7.62311L28.8154 7.42707Z" fill="white"/>
<path d="M3.20848 9.03104H5.69171C5.80933 9.03104 5.91389 8.93955 5.91389 8.80885V6.58702C5.91389 6.46939 5.8224 6.36484 5.69171 6.36484H3.20848C3.09085 6.36484 2.9863 6.45632 2.9863 6.58702V8.80885C2.99937 8.93955 3.09085 9.03104 3.20848 9.03104Z" fill="white"/>
<path d="M6.63261 9.03104H9.11584C9.23346 9.03104 9.33802 8.93955 9.33802 8.80885V6.58702C9.33802 6.46939 9.24653 6.36484 9.11584 6.36484H6.63261C6.51499 6.36484 6.41043 6.45632 6.41043 6.58702V8.80885C6.4235 8.93955 6.51499 9.03104 6.63261 9.03104Z" fill="white"/>
<path d="M10.122 9.03104H12.6052C12.7228 9.03104 12.8274 8.93955 12.8274 8.80885V6.58702C12.8274 6.46939 12.7359 6.36484 12.6052 6.36484H10.122C10.0043 6.36484 9.89978 6.45632 9.89978 6.58702V8.80885C9.89978 8.93955 9.99127 9.03104 10.122 9.03104Z" fill="white"/>
<path d="M13.5591 9.03104H16.0424C16.16 9.03104 16.2645 8.93955 16.2645 8.80885V6.58702C16.2645 6.46939 16.1731 6.36484 16.0424 6.36484H13.5591C13.4415 6.36484 13.3369 6.45632 13.3369 6.58702V8.80885C13.3369 8.93955 13.4415 9.03104 13.5591 9.03104Z" fill="white"/>
<path d="M6.63261 5.85518H9.11584C9.23346 5.85518 9.33802 5.75062 9.33802 5.63299V3.41116C9.33802 3.29353 9.24653 3.18897 9.11584 3.18897H6.63261C6.51499 3.18897 6.41043 3.28046 6.41043 3.41116V5.63299C6.4235 5.75062 6.51499 5.85518 6.63261 5.85518Z" fill="white"/>
<path d="M10.122 5.85518H12.6052C12.7228 5.85518 12.8274 5.75062 12.8274 5.63299V3.41116C12.8274 3.29353 12.7359 3.18897 12.6052 3.18897H10.122C10.0043 3.18897 9.89978 3.28046 9.89978 3.41116V5.63299C9.89978 5.75062 9.99127 5.85518 10.122 5.85518Z" fill="white"/>
<path d="M13.5591 5.85518H16.0424C16.16 5.85518 16.2645 5.75062 16.2645 5.63299V3.41116C16.2645 3.29353 16.16 3.18897 16.0424 3.18897H13.5591C13.4415 3.18897 13.3369 3.28046 13.3369 3.41116V5.63299C13.3369 5.75062 13.4415 5.85518 13.5591 5.85518Z" fill="white"/>
<path d="M13.5591 2.6662H16.0424C16.16 2.6662 16.2645 2.57472 16.2645 2.44402V0.222185C16.2645 0.104559 16.16 0 16.0424 0H13.5591C13.4415 0 13.3369 0.0914889 13.3369 0.222185V2.44402C13.3369 2.56165 13.4415 2.6662 13.5591 2.6662Z" fill="white"/>
<path d="M17.0225 9.03104H19.5057C19.6234 9.03104 19.7279 8.93955 19.7279 8.80885V6.58702C19.7279 6.46939 19.6364 6.36484 19.5057 6.36484H17.0225C16.9049 6.36484 16.8003 6.45632 16.8003 6.58702V8.80885C16.8134 8.93955 16.9049 9.03104 17.0225 9.03104Z" fill="white"/>
</svg>
