<svg width="46" height="34" viewBox="0 0 46 34" fill="none" xmlns="http://www.w3.org/2000/svg">
<path d="M45.2578 4.76587C44.7891 4.31274 44.1875 3.85181 43.4531 3.38306C42.7188 2.91431 41.8594 2.49243 40.875 2.11743C39.8906 1.72681 38.7891 1.41431 37.5703 1.17993C36.3516 0.945557 35.0312 0.828369 33.6094 0.828369C32.375 0.828369 31.2109 0.922119 30.1172 1.10962C29.0391 1.28149 28.0469 1.52368 27.1406 1.83618C26.2344 2.13306 25.4141 2.47681 24.6797 2.86743C23.9453 3.24243 23.3203 3.63306 22.8047 4.03931C22.2734 3.63306 21.6406 3.24243 20.9062 2.86743C20.1875 2.47681 19.3672 2.13306 18.4453 1.83618C17.5391 1.52368 16.5469 1.28149 15.4688 1.10962C14.3906 0.922119 13.2344 0.828369 12 0.828369C10.5781 0.828369 9.25781 0.945557 8.03906 1.17993C6.82031 1.41431 5.71875 1.72681 4.73438 2.11743C3.75 2.49243 2.88281 2.91431 2.13281 3.38306C1.39844 3.85181 0.804688 4.31274 0.351562 4.76587C0.242188 4.87524 0.15625 5.00806 0.09375 5.16431C0.03125 5.30493 0 5.45337 0 5.60962V32.0237C0 32.2581 0.0625 32.4768 0.1875 32.6799C0.328125 32.8831 0.515625 33.0315 0.75 33.1252C0.96875 33.219 1.19531 33.2424 1.42969 33.1956C1.66406 33.1487 1.86719 33.0393 2.03906 32.8674C2.35156 32.5706 2.79688 32.2346 3.375 31.8596C3.95312 31.4846 4.65625 31.1331 5.48438 30.8049C6.32812 30.4612 7.28906 30.1799 8.36719 29.9612C9.46094 29.7268 10.6719 29.6096 12 29.6096C13.3281 29.6096 14.5312 29.7268 15.6094 29.9612C16.7031 30.1799 17.6641 30.4612 18.4922 30.8049C19.3359 31.1331 20.0469 31.4846 20.625 31.8596C21.2031 32.2346 21.6484 32.5706 21.9609 32.8674C22.1953 33.1018 22.4766 33.219 22.8047 33.219C23.1328 33.219 23.4141 33.1018 23.6484 32.8674C23.9453 32.5706 24.3828 32.2346 24.9609 31.8596C25.5391 31.4846 26.25 31.1331 27.0938 30.8049C27.9375 30.4612 28.8984 30.1799 29.9766 29.9612C31.0703 29.7268 32.2812 29.6096 33.6094 29.6096C34.9219 29.6096 36.125 29.7268 37.2188 29.9612C38.3125 30.1799 39.2734 30.4612 40.1016 30.8049C40.9453 31.1331 41.6562 31.4846 42.2344 31.8596C42.8125 32.2346 43.25 32.5706 43.5469 32.8674C43.6719 32.9768 43.8047 33.0627 43.9453 33.1252C44.0859 33.1877 44.2344 33.219 44.3906 33.219C44.4688 33.219 44.5469 33.2112 44.625 33.1956C44.7031 33.1799 44.7812 33.1565 44.8594 33.1252C45.0781 33.0315 45.2578 32.8831 45.3984 32.6799C45.5391 32.4768 45.6094 32.2581 45.6094 32.0237V5.60962C45.6094 5.45337 45.5781 5.30493 45.5156 5.16431C45.4531 5.00806 45.3672 4.87524 45.2578 4.76587ZM2.39062 29.6331V6.14868C2.76562 5.85181 3.24219 5.53149 3.82031 5.18774C4.41406 4.84399 5.10938 4.52368 5.90625 4.22681C6.71875 3.92993 7.63281 3.68774 8.64844 3.50024C9.66406 3.31274 10.7812 3.21899 12 3.21899C13.2188 3.21899 14.3359 3.31274 15.3516 3.50024C16.3672 3.68774 17.2734 3.92993 18.0703 4.22681C18.8828 4.52368 19.5781 4.84399 20.1562 5.18774C20.75 5.53149 21.2344 5.85181 21.6094 6.14868V29.6331C21.0469 29.3049 20.4219 29.0002 19.7344 28.719C19.0625 28.4221 18.3203 28.1643 17.5078 27.9456C16.7109 27.7268 15.8516 27.5549 14.9297 27.4299C14.0078 27.2893 13.0312 27.219 12 27.219C10.9688 27.219 9.99219 27.2815 9.07031 27.4065C8.14844 27.5315 7.28125 27.7112 6.46875 27.9456C5.67188 28.1643 4.92969 28.4221 4.24219 28.719C3.57031 29.0002 2.95312 29.3049 2.39062 29.6331ZM43.1953 29.6331C42.6484 29.3049 42.0312 29.0002 41.3438 28.719C40.6562 28.4221 39.9062 28.1643 39.0938 27.9456C38.2969 27.7112 37.4375 27.5315 36.5156 27.4065C35.5938 27.2815 34.625 27.219 33.6094 27.219C32.5781 27.219 31.6016 27.2893 30.6797 27.4299C29.7578 27.5549 28.8906 27.7268 28.0781 27.9456C27.2812 28.1643 26.5391 28.4221 25.8516 28.719C25.1641 29.0002 24.5469 29.3049 24 29.6331V6.14868C24.3594 5.85181 24.8359 5.53149 25.4297 5.18774C26.0234 4.84399 26.7188 4.52368 27.5156 4.22681C28.3281 3.92993 29.2422 3.68774 30.2578 3.50024C31.2734 3.31274 32.3906 3.21899 33.6094 3.21899C34.8125 3.21899 35.9219 3.31274 36.9375 3.50024C37.9531 3.68774 38.8594 3.92993 39.6562 4.22681C40.4688 4.52368 41.1719 4.84399 41.7656 5.18774C42.3594 5.53149 42.8359 5.85181 43.1953 6.14868V29.6331Z" fill="#1B127D"/>
</svg>
