<svg width="19" height="17" viewBox="0 0 19 17" fill="none" xmlns="http://www.w3.org/2000/svg">
<path d="M9.35449 0.612793C9.09733 0.612793 8.86512 0.710487 8.68453 0.891076C8.50394 1.07166 8.40625 1.30387 8.40625 1.56104V10.5229L5.52445 7.64108C5.34386 7.46049 5.11165 7.36279 4.85449 7.36279C4.59733 7.36279 4.36512 7.46049 4.18453 7.64108C3.99906 7.82655 3.90625 8.0638 3.90625 8.31982C3.90625 8.57699 4.00394 8.8092 4.18453 8.98978L8.68453 13.4898C8.77157 13.5768 8.87838 13.6513 8.99302 13.6971C9.10608 13.7424 9.22753 13.7681 9.35449 13.7681C9.47874 13.7681 9.60061 13.7434 9.71567 13.6937C9.82836 13.6475 9.93376 13.5805 10.0245 13.4898L14.5245 8.98978C14.705 8.8092 14.8027 8.57699 14.8027 8.31982C14.8027 8.0638 14.7099 7.82655 14.5245 7.64108C14.3439 7.46049 14.1117 7.36279 13.8545 7.36279C13.5973 7.36279 13.3651 7.46049 13.1845 7.64108L10.3027 10.5229V1.56104C10.3027 1.30387 10.205 1.07166 10.0245 0.891076C9.84386 0.710487 9.61165 0.612793 9.35449 0.612793Z" fill="#1C0D3F"/>
<path d="M1.25098 12.311C0.993816 12.311 0.761606 12.4087 0.581017 12.5893C0.395545 12.7748 0.302734 13.012 0.302734 13.2681V15.061C0.302734 15.5678 0.486653 16.0146 0.844689 16.3726C1.20272 16.7306 1.64949 16.9146 2.15625 16.9146H16.5527C17.0595 16.9146 17.5063 16.7306 17.8643 16.3726C18.2223 16.0146 18.4062 15.5678 18.4062 15.061V13.2681C18.4062 13.012 18.3134 12.7748 18.128 12.5893C17.9425 12.4038 17.7052 12.311 17.4492 12.311C17.1921 12.311 16.9598 12.4087 16.7793 12.5893C16.5938 12.7748 16.501 13.012 16.501 13.2681V15.0181H2.19922V13.2681C2.19922 13.012 2.10641 12.7748 1.92094 12.5893C1.74035 12.4087 1.50814 12.311 1.25098 12.311Z" fill="#1C0D3F"/>
</svg>
