<svg xmlns="http://www.w3.org/2000/svg" width="45" height="45" viewBox="0 0 45 45">
  <g fill="none">
    <path fill="#1C0D3F" d="M43.5655549,41.4285714 C43.5655549,41.9239796 43.4181762,42.3816327 43.1716892,42.775 L29.9964441,27.6918367 L43.0345808,17.0943878 C43.044851,17.0841837 43.0510132,17.0714286 43.0628241,17.0612245 C43.3755545,17.4867347 43.5660684,18.0056122 43.5660684,18.5719388 L43.5660684,41.4285714 L43.5655549,41.4285714 Z M3.59511598,44 C3.04924992,44 2.54497855,43.8295918 2.12800466,43.5428571 L15.3546012,28.3255102 L19.7425838,31.8928571 C20.4604772,32.4739796 21.3771009,32.7510204 22.2865353,32.7515306 C23.1959697,32.7510204 24.1115663,32.4739796 24.8310003,31.8928571 L29.2179559,28.3255102 L42.4851201,43.5112245 C42.0594165,43.8163265 41.5423072,44.0005102 40.9784681,44.0005102 L3.59511598,44.0005102 L3.59511598,44 Z M1.00648869,41.4285714 L1.00648869,18.5714286 C1.00648869,18.005102 1.19802965,17.4862245 1.51076007,17.0607143 C1.52103036,17.0714286 1.52770605,17.0841837 1.53900337,17.0938776 L14.576113,27.6913265 L1.42500312,42.8204082 C1.16208363,42.4183673 1.00648869,41.9423469 1.00648869,41.4285714 L1.00648869,41.4285714 Z M6.47028444,16.0010204 L6.47028444,19.8107143 L2.25330223,16.3836735 C2.64665445,16.1454082 3.10214193,16.0010204 3.59460247,16.0010204 L6.47028444,16.0010204 Z M10.0648869,1 L34.5076702,1 C35.9342138,1 37.0952704,2.15408163 37.0952704,3.57142857 L37.0952704,20.6285714 L24.1932152,31.1178571 C23.6868897,31.5321429 22.9900504,31.752551 22.2860218,31.7510362 C21.5814797,31.752551 20.8846403,31.5316327 20.3793419,31.1178571 L7.47728665,20.6285714 L7.47728665,3.57142857 C7.47728665,2.15408163 8.63731622,1 10.0648869,1 L10.0648869,1 Z M40.9779546,16.0010204 C41.4704152,16.0010204 41.9259026,16.1454082 42.3172008,16.3836735 L38.1022726,19.8107143 L38.1022726,16.0010204 L40.9779546,16.0010204 Z M40.9779546,15 L38.1017591,15 L38.1017591,3.57142857 C38.1017591,1.60663265 36.4847015,1.79536e-13 34.5071567,1.79536e-13 L10.0648869,1.79536e-13 C8.08785555,1.79536e-13 6.47028444,1.60663265 6.47028444,3.57142857 L6.47028444,15 L3.59460247,15 C1.61654408,15 -5.46413913e-14,16.6076531 -5.46413913e-14,18.5714286 L-5.46413913e-14,41.4285714 C-5.46413913e-14,43.3938776 1.61654408,45 3.59460247,45 L40.9779546,45 C42.954986,45 44.5725571,43.3938776 44.5725571,41.4285714 L44.5725571,18.5714286 C44.5725571,16.6076531 42.954986,15 40.9779546,15 L40.9779546,15 Z"/>
    <path fill="#ED26B7" d="M21.9714351,6.18354839 C17.5207901,6.18354839 13.9151481,9.95597212 13.9151481,14.6060303 C13.9151481,19.2564358 17.5206229,23.0285122 21.9714351,23.0285122 C26.4222474,23.0285122 30.0277222,19.2564358 30.0277222,14.6060303 C30.0277222,9.95597212 26.4220802,6.18354839 21.9714351,6.18354839 Z M21.9714351,7.22865099 C25.8610133,7.22865099 29.0167689,10.5303785 29.0167689,14.6060303 C29.0167689,18.6820189 25.861191,21.9834096 21.9714351,21.9834096 C18.0816793,21.9834096 14.9261014,18.6820189 14.9261014,14.6060303 C14.9261014,10.5303785 18.081857,7.22865099 21.9714351,7.22865099 Z"/>
    <path fill="#ED26B7" d="M26.2304148,11.4621868 C26.4272284,11.2613597 26.7482681,11.2594022 26.947477,11.4578146 C27.1313621,11.6409645 27.1471616,11.9308237 26.993705,12.1322896 L26.951814,12.1807016 L21.4939408,17.7498738 C21.3107332,17.9368175 21.0202689,17.951222 20.8205328,17.7930699 L20.7726035,17.7499369 L18.4558976,15.3868086 C18.2590494,15.1860159 18.2609354,14.8623681 18.4601101,14.6639208 C18.6439637,14.4807387 18.9316552,14.4682678 19.1296539,14.6253621 L19.177173,14.6681675 L21.132937,16.6628158 L26.2304148,11.4621868 Z"/>
  </g>
</svg>
