<svg width="46" height="47" viewBox="0 0 46 47" fill="none" xmlns="http://www.w3.org/2000/svg">
<path d="M0 0H46V34L23 47L0 34V0Z" fill="#FF492C"/>
<path d="M33.389 18.5595H27.0488V18.278C27.0488 17.2461 27.2648 16.3924 27.6966 15.7263C28.1284 15.0509 28.8743 14.4599 29.9539 13.9345L30.4447 13.7C31.3181 13.2778 31.5439 12.912 31.5439 12.4804C31.5439 11.9645 31.0728 11.5892 30.3171 11.5892C29.4141 11.5892 28.7369 12.0395 28.2658 12.9495L27.0488 11.7862C27.3138 11.2421 27.7457 10.8106 28.3149 10.4635C28.894 10.1164 29.5319 9.94751 30.2287 9.94751C31.1022 9.94751 31.8579 10.1633 32.4763 10.6136C33.1142 11.0639 33.4283 11.683 33.4283 12.4617C33.4283 13.7094 32.6922 14.4693 31.3181 15.1447L30.5428 15.52C29.7184 15.914 29.316 16.2705 29.1982 16.899H33.389V18.5595ZM32.8296 20.4733H25.8907L22.4262 26.2146H29.3651L32.8394 31.9559L36.3039 26.2146L32.8296 20.4733ZM23.0249 30.0515C18.6084 30.0515 15.0163 26.618 15.0163 22.3964C15.0163 18.1749 18.6084 14.7413 23.0249 14.7413L25.773 9.25329C24.8798 9.08443 23.9671 9 23.0249 9C15.2813 9 9 15.004 9 22.3964C9 29.7982 15.2715 35.8022 23.0249 35.8022C26.1067 35.8022 28.9627 34.8453 31.2789 33.2317L28.2364 28.2034C26.8427 29.3479 25.0172 30.0515 23.0249 30.0515Z" fill="white"/>
</svg>
