<svg width="115" height="73" viewBox="0 0 115 73" fill="none" xmlns="http://www.w3.org/2000/svg">
<path opacity="0.2" d="M19.4869 69.6261L20.2137 70.3255L21.1357 69.9162C24.0052 68.6423 32.5739 63.3829 40.4368 53.6289C48.3296 43.8377 55.542 29.4775 55.542 10.0479V3V1.5H54.042H22.039H20.539V3V8.40337C20.539 25.6038 16.5452 41.7385 3.937 52.3627L2.66351 53.4358L3.86344 54.5906L19.4869 69.6261ZM76.6891 69.6261L77.4159 70.3255L78.3378 69.9162C81.2029 68.6443 89.834 63.3876 97.7611 53.6336C105.718 43.8431 112.996 29.4814 112.996 10.0479V3V1.5H111.496H79.2411H77.7411V3V8.40337C77.7411 25.6038 73.7474 41.7385 61.1391 52.3627L59.8656 53.4358L61.0656 54.5906L76.6891 69.6261Z" stroke="#ED26B7" stroke-width="3"/>
</svg>
