<svg width="28" height="28" viewBox="0 0 28 28" fill="none" xmlns="http://www.w3.org/2000/svg">
<circle cx="13.9603" cy="14.0568" r="13.0568" fill="#1C0D3F" stroke="white" stroke-width="1.5"/>
<path fill-rule="evenodd" clip-rule="evenodd" d="M11.3057 17.3332L18.9092 9.96728C19.0839 9.79803 19.3132 9.70435 19.5633 9.70435C19.8133 9.70435 20.0426 9.79803 20.2173 9.96728C20.3982 10.1425 20.4887 10.369 20.4887 10.6065C20.4887 10.8487 20.392 11.0708 20.2173 11.2401L11.9701 19.2239C11.8801 19.3177 11.7711 19.3894 11.6498 19.4364L11.6325 19.4431L11.6149 19.4488C11.5125 19.4818 11.4083 19.4969 11.3057 19.4969C11.2032 19.4969 11.1037 19.4819 11.009 19.4544L10.9706 19.4432L10.934 19.4274C10.818 19.3775 10.7202 19.3065 10.6408 19.2235L7.70337 16.3778C7.52865 16.2086 7.43195 15.9865 7.43195 15.7442C7.43195 15.502 7.52865 15.2799 7.70337 15.1106C7.87808 14.9414 8.10733 14.8477 8.3574 14.8477C8.60748 14.8477 8.83673 14.9414 9.01144 15.1106L11.3057 17.3332Z" fill="white"/>
</svg>
