<svg width="47" height="50" viewBox="0 0 47 50" fill="none" xmlns="http://www.w3.org/2000/svg"><path fill-rule="evenodd" clip-rule="evenodd" d="M36.5938.722046h-26.2V4.91771H.495895V45.1958H10.3938v4.1958h26.2v-4.1958h9.9292V4.91771h-9.9292V.722046ZM44.0547 42.7275h-7.4609V7.38601h7.4609V42.7275Zm-33.6609 0V7.38601H2.9642V42.7275h7.4296Zm2.4683 4.1958V3.19035h21.2634V46.9233H12.8621Zm8.7264-24.8531c-.4057-.441-.6086-1.0143-.6086-1.7199 0-.2823.0706-.5734.2117-.8733.1411-.3175.3352-.5998.5822-.8467.2469-.247.5292-.4499.8467-.6086.3176-.1765.6527-.2823 1.0056-.3176.635-.0529 1.1554-.0617 1.5612-.0264.4057.0352.7321.097.979.1852.247.0882.4322.1764.5557.2646.1412.0882.2646.1588.3705.2117.0176-.0176.0705-.1059.1588-.2646.0882-.1588.194-.3528.3175-.5822.1235-.2469.2558-.5027.3969-.7673.1411-.2823.2646-.5381.3705-.7674-.4234-.2823-.9703-.494-1.6406-.6351-.6704-.1588-1.3496-.2558-2.0376-.2911v-2.1433h-2.1433v2.2756c-.6351.1235-1.2349.3352-1.7994.6351-.5469.2823-1.0232.6527-1.4289 1.1114-.4057.441-.7321.9614-.9791 1.5612-.2293.5998-.344 1.2613-.344 1.9846 0 .9526.2029 1.7464.6087 2.3815.4057.6351.9173 1.1908 1.5347 1.6671.6174.4586 1.279.8644 1.9846 1.2172.7056.3352 1.3583.6792 1.9581 1.032.6175.3352 1.1291.7144 1.5348 1.1378.4057.4234.6086.935.6086 1.5348 0 .9879-.2911 1.7376-.8732 2.2492-.5645.4939-1.3848.7409-2.4609.7409-.3528 0-.7321-.0353-1.1379-.1058-.4057-.0706-.8114-.1588-1.2172-.2647-.4057-.1234-.8026-.2469-1.1907-.3704-.3705-.1411-.6792-.2823-.9262-.4234l-.5557 2.2757c.5469.4586 1.2261.7938 2.0376 1.0055.8114.2117 1.5965.3352 2.355.3705v2.4873h2.1434v-2.5932c.7585-.1235 1.4289-.3528 2.011-.688.5822-.3528 1.0761-.7674 1.4819-1.2437.4233-.4763.7409-1.0055.9526-1.5876.2293-.5822.344-1.182.344-1.7994 0-1.0408-.2029-1.8876-.6086-2.5403-.4058-.6703-.9174-1.226-1.5348-1.6671-.5998-.441-1.2525-.8114-1.9581-1.1113-.7057-.3176-1.3584-.6351-1.9582-.9526-.5998-.3352-1.1025-.7145-1.5083-1.1379Z" fill="#1B127D"/></svg>