<svg width="28" height="28" viewBox="0 0 28 28" fill="none" xmlns="http://www.w3.org/2000/svg">
<circle cx="13.7942" cy="14.2395" r="13.5286" fill="#1C0D3F" fill-opacity="0.1"/>
<path fill-rule="evenodd" clip-rule="evenodd" d="M13.7939 7.15824C11.099 7.15824 8.91434 9.34288 8.91434 12.0378C8.91434 13.2413 9.34951 14.3421 10.0716 15.193C10.5147 15.7151 10.8834 16.3913 10.8834 17.1617V18.8851H16.7044V17.1617C16.7044 16.3913 17.0731 15.7151 17.5161 15.193C18.2382 14.3421 18.6734 13.2413 18.6734 12.0378C18.6734 9.34288 16.4888 7.15824 13.7939 7.15824ZM8.02344 12.0378C8.02344 8.85085 10.607 6.26733 13.7939 6.26733C16.9808 6.26733 19.5643 8.85085 19.5643 12.0378C19.5643 13.4603 19.049 14.7636 18.1954 15.7695C17.8285 16.2018 17.5953 16.6802 17.5953 17.1617V19.776H9.99245V17.1617C9.99245 16.6802 9.75922 16.2018 9.39232 15.7695C8.53874 14.7636 8.02344 13.4603 8.02344 12.0378Z" fill="#1C0D3F"/>
<path fill-rule="evenodd" clip-rule="evenodd" d="M11.5935 19.1208C11.5935 20.336 12.5786 21.321 13.7937 21.321C15.0089 21.321 15.9939 20.336 15.9939 19.1208H16.8848C16.8848 20.828 15.5009 22.2119 13.7937 22.2119C12.0866 22.2119 10.7026 20.828 10.7026 19.1208H11.5935Z" fill="#1C0D3F"/>
<path fill-rule="evenodd" clip-rule="evenodd" d="M14.2371 16.0691V19.1208H13.3462V16.0691H14.2371Z" fill="#1C0D3F"/>
<path fill-rule="evenodd" clip-rule="evenodd" d="M13.7912 14.105C13.3719 14.105 13.032 14.4449 13.032 14.8642C13.032 15.2835 13.3719 15.6233 13.7912 15.6233C14.2105 15.6233 14.5503 15.2835 14.5503 14.8642C14.5503 14.4449 14.2105 14.105 13.7912 14.105ZM12.1411 14.8642C12.1411 13.9529 12.8799 13.2141 13.7912 13.2141C14.7025 13.2141 15.4412 13.9529 15.4412 14.8642C15.4412 15.7755 14.7025 16.5142 13.7912 16.5142C12.8799 16.5142 12.1411 15.7755 12.1411 14.8642Z" fill="#1C0D3F"/>
</svg>
