<svg width="115" height="73" viewBox="0 0 115 73" fill="none" xmlns="http://www.w3.org/2000/svg">
<path opacity="0.2" d="M95.9125 2.91935L95.1857 2.21989L94.2637 2.62918C91.3942 3.9031 82.8255 9.16246 74.9627 18.9165C67.0698 28.7077 59.8574 43.0679 59.8574 62.4975V69.5454V71.0454H61.3574H93.3604H94.8604V69.5454V64.142C94.8604 46.9416 98.8542 30.807 111.462 20.1827L112.736 19.1096L111.536 17.9548L95.9125 2.91935ZM38.7103 2.91935L37.9835 2.21989L37.0616 2.62918C34.1965 3.90115 25.5654 9.15776 17.6383 18.9118C9.68158 28.7023 2.40333 43.064 2.40333 62.4975V69.5454V71.0454H3.90333H36.1583H37.6583V69.5454V64.142C37.6583 46.9416 41.652 30.807 54.2603 20.1827L55.5338 19.1096L54.3338 17.9548L38.7103 2.91935Z" stroke="#ED26B7" stroke-width="3"/>
</svg>
