<svg width="38" height="38" viewBox="0 0 38 38" fill="none" xmlns="http://www.w3.org/2000/svg">
<circle cx="19.1367" cy="19.2734" r="18.6367" fill="#F2F4F6"/>
<path fill-rule="evenodd" clip-rule="evenodd" d="M16.0458 16.2337V9.92969H17.1408V16.3652C17.1408 16.4516 17.1203 16.5368 17.0811 16.6138L12.0454 26.496C11.6742 27.2245 12.2034 28.0882 13.0211 28.0882H25.2617C26.081 28.0882 26.6101 27.2214 26.2357 26.4927L21.1606 16.6154C21.1208 16.538 21.1 16.4522 21.1 16.3652V9.92969H22.1951V16.2327L27.2097 25.9923C27.9585 27.4497 26.9003 29.1832 25.2617 29.1832H13.0211C11.3857 29.1832 10.3273 27.4559 11.0697 25.9988L16.0458 16.2337Z" fill="#1B127D"/>
<path fill-rule="evenodd" clip-rule="evenodd" d="M14.8281 9.91079C14.8281 9.60841 15.0733 9.36328 15.3756 9.36328H22.9204C23.2228 9.36328 23.4679 9.60841 23.4679 9.91079C23.4679 10.2132 23.2228 10.4583 22.9204 10.4583H15.3756C15.0733 10.4583 14.8281 10.2132 14.8281 9.91079Z" fill="#1B127D"/>
<path d="M19.9445 24.1559C19.9445 25.4199 18.9199 26.4445 17.6559 26.4445C16.3919 26.4445 15.3672 25.4199 15.3672 24.1559C15.3672 22.8919 16.3919 21.8672 17.6559 21.8672C18.9199 21.8672 19.9445 22.8919 19.9445 24.1559Z" fill="#1B127D"/>
<path d="M21.2574 19.9959C21.2574 20.6279 20.7451 21.1402 20.1131 21.1402C19.4811 21.1402 18.9688 20.6279 18.9688 19.9959C18.9688 19.3639 19.4811 18.8516 20.1131 18.8516C20.7451 18.8516 21.2574 19.3639 21.2574 19.9959Z" fill="#1B127D"/>
</svg>
