<svg width="44" height="39" viewBox="0 0 44 39" fill="none" xmlns="http://www.w3.org/2000/svg">
<path fill-rule="evenodd" clip-rule="evenodd" d="M0.155212 0.961975H43.8448V38.258H0.155212V0.961975ZM2.28641 3.09317V6.291H41.7136V3.09317H2.28641ZM2.28641 36.1268V8.4222H41.7136V36.1268H2.28641ZM25.2928 18.0381L21.9979 12.3875L18.7181 18.0381L12.3938 19.2475L16.6645 24.3529L15.792 30.9604L22 28.2013L28.2033 30.9583L27.3464 24.353L31.602 19.2476L25.2928 18.0381ZM20.0732 19.9488L22.0021 16.6256L23.9398 19.9488L27.6502 20.66L25.1131 23.7037L25.6017 27.4698L22 25.8691L18.4029 27.4678L18.8999 23.7037L16.3539 20.66L20.0732 19.9488Z" fill="#1B127D"/>
</svg>
