<svg width="41" height="41" viewBox="0 0 41 41" fill="none" xmlns="http://www.w3.org/2000/svg">
<path fill-rule="evenodd" clip-rule="evenodd" d="M19.8756 0L19.8755 3.8415L21.885 3.84151L21.885 1.21287e-05L19.8756 0ZM9.87444 18.9451C9.87444 13.2499 14.8019 8.63304 20.8803 8.63304C26.9586 8.63304 31.8861 13.2499 31.8861 18.9451C31.8861 21.4886 30.9046 23.8149 29.2759 25.6132C28.4121 26.5669 27.6736 27.764 27.4892 29.1226H21.8793V24.2002C23.4467 23.7894 24.5963 22.4413 24.5963 20.8417C24.5963 18.9158 22.93 17.3545 20.8745 17.3545C18.8191 17.3545 17.1528 18.9158 17.1528 20.8417C17.1528 22.4414 18.3024 23.7895 19.8699 24.2003V29.1226H14.2713C14.0869 27.764 13.3484 26.567 12.4847 25.6132C10.856 23.8149 9.87444 21.4886 9.87444 18.9451ZM14.3156 31.0054V33.4159H27.445V31.0054H14.3156ZM20.8803 6.75026C13.6921 6.75026 7.86499 12.2101 7.86499 18.9451C7.86499 21.9513 9.02725 24.7056 10.9525 26.8314C11.7801 27.7451 12.3061 28.756 12.3061 29.7736V35.2986H14.0651C14.7431 38.2412 17.5368 40.4461 20.8801 40.4461C24.2234 40.4461 27.0171 38.2412 27.695 35.2986H29.4544V29.7736C29.4544 28.756 29.9805 27.7451 30.808 26.8314C32.7333 24.7056 33.8955 21.9513 33.8955 18.9451C33.8955 12.2101 28.0684 6.75026 20.8803 6.75026ZM20.8801 38.5633C18.6542 38.5633 16.7705 37.1902 16.1414 35.2986H25.6187C24.9896 37.1902 23.106 38.5633 20.8801 38.5633ZM20.8745 19.2373C19.9289 19.2373 19.1622 19.9556 19.1622 20.8417C19.1622 21.7277 19.9289 22.446 20.8745 22.446C21.8202 22.446 22.5868 21.7277 22.5868 20.8417C22.5868 19.9556 21.8202 19.2373 20.8745 19.2373ZM35.9644 17.3547L40.0644 17.3547L40.0644 19.2375L35.9644 19.2375L35.9644 17.3547ZM4.78964 17.3547L0.689697 17.3547L0.68971 19.2375L4.78965 19.2375L4.78964 17.3547ZM6.68086 4.24331L9.57998 6.95964L8.15909 8.29097L5.25998 5.57464L6.68086 4.24331ZM35.4935 5.57458L32.5944 8.29091L31.1735 6.95958L34.0726 4.24325L35.4935 5.57458Z" fill="#F5F5F5"/>
</svg>
