<svg width="29" height="28" viewBox="0 0 29 28" fill="none" xmlns="http://www.w3.org/2000/svg">
<circle cx="14.5" cy="14" r="14" fill="#F2F4F6" fill-opacity="0.15"/>
<path fill-rule="evenodd" clip-rule="evenodd" d="M6.51074 13.9983C6.51074 13.1623 6.63915 12.3563 6.87732 11.5989H9.70639C9.56552 12.2646 9.48535 12.9848 9.48535 13.7607C9.48535 14.7077 9.60487 15.5882 9.8083 16.3997H6.87794C6.63937 15.6417 6.51074 14.835 6.51074 13.9983ZM7.26888 17.3997C8.34593 19.6854 10.4749 21.3779 13.0315 21.8529C12.0172 20.8931 10.823 19.3927 10.1115 17.3997H7.26888ZM11.1815 17.3997C12.0599 19.6045 13.5681 21.0998 14.499 21.7854C15.43 21.0998 16.9382 19.6045 17.8166 17.3997H11.1815ZM18.8866 17.3997C18.1749 19.393 16.9805 20.8936 15.9661 21.8533C18.5238 21.379 20.6537 19.6861 21.7311 17.3997H18.8866ZM22.1221 16.3997H19.1897C19.3932 15.5882 19.5127 14.7077 19.5127 13.7607C19.5127 12.9848 19.4325 12.2646 19.2917 11.5989H22.1227C22.3608 12.3563 22.4893 13.1623 22.4893 13.9983C22.4893 14.835 22.3606 15.6417 22.1221 16.3997ZM18.1543 16.3997H10.8438C10.6198 15.5962 10.4854 14.7153 10.4854 13.7607C10.4854 12.977 10.5761 12.257 10.7325 11.5989H18.2656C18.422 12.257 18.5127 12.977 18.5127 13.7607C18.5127 14.7153 18.3783 15.5962 18.1543 16.3997ZM9.97437 10.5989H7.26796C8.34553 8.3104 10.4773 6.61628 13.0373 6.14263C11.9481 7.03248 10.6608 8.49721 9.97437 10.5989ZM11.0348 10.5989H17.9633C17.1109 8.2955 15.4677 6.90944 14.499 6.327C13.5304 6.90944 11.8871 8.2955 11.0348 10.5989ZM19.0237 10.5989H21.732C20.6541 8.30965 18.5212 6.61516 15.9602 6.14216C17.0495 7.03197 18.3371 8.49685 19.0237 10.5989ZM5.51074 13.9983C5.51074 9.03366 9.53537 5.00903 14.5 5.00903C19.4646 5.00903 23.4893 9.03366 23.4893 13.9983C23.4893 18.9629 19.4646 22.9875 14.5 22.9875C9.53537 22.9875 5.51074 18.9629 5.51074 13.9983Z" fill="white"/>
</svg>
