<svg width="32" height="37" viewBox="0 0 32 37" fill="none" xmlns="http://www.w3.org/2000/svg">
<path d="M28.707 36.793H3.5C2.75 36.793 2.11133 36.5293 1.58398 36.002C1.05664 35.4746 0.792969 34.8418 0.792969 34.1035V3.5C0.792969 2.75 1.05664 2.11133 1.58398 1.58398C2.11133 1.05664 2.75 0.792969 3.5 0.792969H28.707C29.4453 0.792969 30.0781 1.05664 30.6055 1.58398C31.1328 2.11133 31.3965 2.75 31.3965 3.5V34.1035C31.3965 34.8418 31.1328 35.4746 30.6055 36.002C30.0781 36.5293 29.4453 36.793 28.707 36.793ZM3.5 2.60352C3.25391 2.60352 3.04297 2.69141 2.86719 2.86719C2.69141 3.04297 2.60352 3.25391 2.60352 3.5V34.1035C2.60352 34.3496 2.69141 34.5605 2.86719 34.7363C3.04297 34.9121 3.25391 35 3.5 35H28.707C28.9531 35 29.1641 34.9121 29.3398 34.7363C29.5156 34.5605 29.6035 34.3496 29.6035 34.1035V3.5C29.6035 3.25391 29.5156 3.04297 29.3398 2.86719C29.1641 2.69141 28.9531 2.60352 28.707 2.60352H3.5ZM26.8965 13.3965H5.29297C5.04688 13.3965 4.83594 13.3086 4.66016 13.1328C4.48438 12.957 4.39648 12.7461 4.39648 12.5V5.29297C4.39648 5.04688 4.48438 4.83594 4.66016 4.66016C4.83594 4.48438 5.04688 4.39648 5.29297 4.39648H26.8965C27.1426 4.39648 27.3535 4.48438 27.5293 4.66016C27.7051 4.83594 27.793 5.04688 27.793 5.29297V12.5C27.793 12.7461 27.7051 12.957 27.5293 13.1328C27.3535 13.3086 27.1426 13.3965 26.8965 13.3965ZM6.20703 11.6035H26V6.20703H6.20703V11.6035ZM26.8965 15.207H5.29297C5.04688 15.207 4.83594 15.2949 4.66016 15.4707C4.48438 15.6465 4.39648 15.8574 4.39648 16.1035V32.293C4.39648 32.5508 4.48438 32.7676 4.66016 32.9434C4.83594 33.1191 5.04688 33.207 5.29297 33.207H26.8965C27.1426 33.207 27.3535 33.1191 27.5293 32.9434C27.7051 32.7676 27.793 32.5508 27.793 32.293V16.1035C27.793 15.8574 27.7051 15.6465 27.5293 15.4707C27.3535 15.2949 27.1426 15.207 26.8965 15.207ZM26 20.6035H22.3965V17H26V20.6035ZM11.6035 22.3965H15.207V26H11.6035V22.3965ZM9.79297 26H6.20703V22.3965H9.79297V26ZM11.6035 20.6035V17H15.207V20.6035H11.6035ZM15.207 27.793V31.3965H11.6035V27.793H15.207ZM17 27.793H20.6035V31.3965H17V27.793ZM20.6035 26H17V22.3965H20.6035V26ZM17 20.6035V17H20.6035V20.6035H17ZM9.79297 17V20.6035H6.20703V17H9.79297ZM6.20703 27.793H9.79297V31.3965H6.20703V27.793ZM22.3965 31.3965V22.3965H26V31.3965H22.3965Z" fill="#F2F4F6"/>
</svg>
