<svg width="13" height="22" fill="none" xmlns="http://www.w3.org/2000/svg"><path d="M6.5 21.0459c-.08203 0-.16064-.0171-.23584-.0513-.06836-.0342-.12646-.082-.17432-.1435-.01367-.0205-.10937-.147-.28711-.3794-.17089-.2256-.39306-.5401-.6665-.9434-.27344-.4033-.58447-.8818-.93311-1.4355-.34179-.5537-.69384-1.169-1.05615-1.8457-.21191-.3965-.41357-.7896-.60498-1.1792-.1914-.3965-.37256-.7896-.54345-1.1792-.16407-.3897-.32129-.7725-.47168-1.1485-.14356-.3828-.27686-.7588-.39991-1.1279-.150388-.4717-.283688-.9331-.399899-1.3843C.61084 9.77002.511719 9.32227.429688 8.88477c-.075196-.44434-.133301-.875-.174317-1.292-.03418-.42382-.051269-.8374-.051269-1.24072 0-.86816.164062-1.68506.492187-2.45068.328121-.76563.775881-1.43213 1.343261-1.99951C2.61377 1.32764 3.28369.876465 4.04932.54834 4.81494.213379 5.63184.0458984 6.5.0458984c.86816 0 1.68506.1674806 2.45068.5024416.76563.328125 1.43212.7793 1.99952 1.35352.5742.56738 1.0254 1.23388 1.3535 1.99951.3281.76562.4922 1.58252.4922 2.45068 0 .40332-.0205.8169-.0615 1.24072-.0342.417-.0923.84766-.1743 1.292-.0752.4375-.1709.88525-.2872 1.34323-.1162.4512-.2495.9126-.3999 1.3843-.123.3691-.2597.7451-.4101 1.1279-.1436.376-.3008.7588-.4717 1.1485-.1641.3896-.3418.7827-.5332 1.1792-.1914.3896-.3931.7827-.60497 1.1792-.36231.6767-.71778 1.292-1.06641 1.8457-.3418.5537-.64941 1.0322-.92285 1.4355-.27344.4033-.49902.7178-.67676.9434-.1709.2324-.26318.3589-.27685.3794-.04786.0615-.10938.1093-.18457.1435-.06836.0342-.14356.0513-.22559.0513Zm0-19.94385c-.72461 0-1.40479.13672-2.04053.41016-.63574.27343-1.19287.64941-1.67138 1.12793-.47168.47168-.84766 1.02881-1.12793 1.67138C1.38672 4.94727 1.25 5.62744 1.25 6.35205c0 .85449.08545 1.7124.25635 2.57373.17773.86133.40332 1.69872.67676 2.51222.27343.8066.57421 1.5791.90234 2.3174.33496.7314.6665 1.3945.99463 1.9892.23242.4444.46484.8648.69726 1.2613.23243.3896.45459.7519.66651 1.0869.21191.3281.40674.6255.58447.8921.18457.2597.3418.4785.47168.6562.12988-.1846.28369-.4067.46143-.6665.18457-.2666.38281-.564.59472-.8921.21192-.3349.43408-.7007.66651-1.0971.23925-.3965.47509-.8135.70752-1.251.32128-.6016.64941-1.2681.98437-1.9995.33495-.7315.63575-1.5005.90235-2.3072.2734-.8134.4956-1.64743.6665-2.50192.1777-.86133.2666-1.71924.2666-2.57373 0-.72461-.1401-1.40478-.4204-2.04053-.2734-.64257-.6494-1.1997-1.1279-1.67138-.47172-.47852-1.02543-.8545-1.66117-1.12793-.63574-.27344-1.31592-.41016-2.04053-.41016ZM6.5 9.5c-.4375 0-.84766-.08203-1.23047-.24609-.37598-.16407-.70752-.38965-.99463-.67676-.28711-.28711-.51269-.62207-.67676-1.00488-.16406-.38282-.24609-.78956-.24609-1.22022 0-.4375.08203-.84766.24609-1.23047.16407-.38281.38965-.71435.67676-.99463.28711-.28711.61865-.51269.99463-.67675.38281-.16407.79297-.2461 1.23047-.2461s.84424.08203 1.22021.2461c.38282.16406.71778.38964 1.00489.67675.28711.28028.51269.61182.67676.99463.16406.38281.24609.79297.24609 1.23047 0 .43066-.08203.8374-.24609 1.22022-.16407.38281-.38965.71777-.67676 1.00488-.28711.28711-.62207.51269-1.00489.67676C7.34424 9.41797 6.9375 9.5 6.5 9.5Zm0-5.25c-.28711 0-.56055.05469-.82031.16406-.25293.10938-.4751.25977-.66651.45117-.1914.19141-.34179.41358-.45117.66651-.10937.25293-.16406.52637-.16406.82031 0 .28711.05469.56055.16406.82031.10938.25293.25977.4751.45117.66651.19141.18457.41358.33496.66651.45117.25976.10937.5332.16406.82031.16406s.55713-.05469.81006-.16406c.25976-.11621.48535-.2666.67676-.45117.1914-.19141.34179-.41358.45117-.66651.10937-.25976.16406-.5332.16406-.82031 0-.29394-.05469-.56738-.16406-.82031-.10938-.25293-.25977-.4751-.45117-.66651-.19141-.1914-.417-.34179-.67676-.45117C7.05713 4.30469 6.78711 4.25 6.5 4.25Z" fill="#1C0D3F"/><path d="m6.26416 20.9946-.11188.2238.00843.0038.10345-.2276Zm-.17432-.1435-.20801.1386.00507.0076.00561.0073.19733-.1535Zm-.28711-.3794-.19927.1509.00069.0009.19858-.1518Zm-1.59961-2.3789-.21274.1313.00119.0019.21155-.1332Zm-1.05615-1.8457-.22048.1178.00008.0002.2204-.118Zm-.60498-1.1792-.22514.1087.00075.0015.22439-.1102Zm-.54345-1.1792-.23044.097.00149.0034.22895-.1004Zm-.47168-1.1485-.23414.0878.00202.0051.23212-.0929Zm-.39991-1.1279-.238203.076.001035.0031.237168-.0791ZM.727051 10.228l-.242323.0615.000225.0009.242098-.0624ZM.429688 8.88477l-.246534.04172.000815.00435.245719-.04607Zm-.174317-1.292-.24922934.0201.00043011.00438.24879923-.02448ZM4.04932.54834l.09848.229792.00172-.000753-.1002-.229039Zm4.90136 0-.1002.229046.00172.00074.09848-.229786Zm1.99952 1.35352-.1778.17572.0021.00211.1757-.17783Zm1.7842 5.69091-.2489-.02408-.0003.00366.2492.02042Zm-.1743 1.292-.2459-.04539-.0005.00304.2464.04235Zm-.2872 1.34323.2421.0624.0003-.0009-.2424-.0615Zm-.3999 1.3843.2372.0791.001-.0032-.2382-.0759Zm-.4101 1.1279-.2327-.0914-.0009.0023.2336.0891Zm-.4717 1.1485-.229-.1005-.0014.0035.2304.097Zm-.5332 1.1792.2244.1102.0007-.0015-.2251-.1087Zm-.60497 1.1792.22037.118.0001-.0002-.22047-.1178Zm-1.06641 1.8457-.21157-.1332-.00116.0019.21273.1313Zm-1.59961 2.3789-.19648-.1548-.00493.0067.20141.1481Zm-.27685.3794.19733.1535.00561-.0073.00507-.0076-.20801-.1386Zm-.18457.1435-.10353-.2277-.00828.0041.11181.2236ZM1.66016 4.31152 1.431 4.21157l-.0005.00118.22966.09877Zm-.15381 4.61426-.24523.04866.00039.00186.24484-.05052Zm.67676 2.51222-.23698.0796.00021.0006.23677-.0802Zm.90234 2.3174-.22847.1015.00117.0026.2273-.1041Zm.99463 1.9892.22158-.1159-.00269-.0048-.21889.1207Zm.69726 1.2613-.21568.1264.00098.0016.2147-.128Zm.66651 1.0869-.21128.1336.00127.002.21001-.1356Zm.58447.8921-.2081.1387.0043.0061.2038-.1448Zm.47168.6562-.20185.1475.20568.2815.20062-.2851L6.5 19.6411Zm.46143-.6665-.20556-.1423-.00077.0011.20633.1412Zm.59472-.8921.21002.1357.00125-.002-.21127-.1337Zm.66651-1.0971-.21407-.1292-.00161.0027.21568.1265Zm.70752-1.251-.22052-.1178-.00026.0005.22078.1173Zm1.88672-4.3067-.237-.0796-.0004.0012.2374.0784Zm.6665-2.50192-.2448-.05052-.0003.00149.2451.04903Zm-.1538-4.61426-.2301.0979.0013.00295.2288-.10085Zm-1.1279-1.67138-.1781.17552.0026.00252.1755-.17804ZM5.26953 9.25391l-.09999.22914.00151.00064.09848-.22978ZM4.2749 4.12695l.17465.17891.00213-.00213-.17678-.17678Zm.99463-.67675-.09848-.2298-.0015.00066.09998.22914Zm2.45068 0-.09998.22913.0015.00065.09848-.22978Zm1.00489.67675-.17679.17679.00215.00211.17464-.1789ZM7.72021 9.25391l-.09848-.2298-.0015.00066.09998.22914ZM5.67969 4.41406l-.09702-.23042-.00221.00096.09923.22946Zm-1.11768 2.7583-.23042.09702.00096.00221.22946-.09923Zm.45117.66651-.1768.1768.00327.00316.17353-.17996Zm.66651.45117-.10443.22729.00741.00312.09702-.23041Zm1.63037 0 .09923.22948.00286-.00128-.10209-.2282Zm.67676-.45117.17356.17999.00321-.00322-.17677-.17677Zm.45117-.66651.22947.09924.00094-.00222-.23041-.09702Zm-1.12793-2.7583-.09923.22948.00221.00093.09702-.23041ZM6.5 20.7959c-.04609 0-.08945-.0093-.13239-.0289l-.2069.4552c.10745.0489.22132.0737.33929.0737v-.5Zm-.12404-.0249c-.03429-.0171-.06338-.0408-.08878-.0734l-.39467.307c.0703.0903.15742.1624.25985.2136l.2236-.4472Zm-.0781-.0586c-.0196-.0294-.12341-.1662-.29654-.3926l-.39717.3037c.08878.1161.15684.2055.20431.2682.02377.0314.0421.0558.05519.0734.01492.02.01912.0261.01818.0246l.41603-.2773Zm-.29585-.3917c-.16704-.2205-.3864-.5308-.65885-.9327l-.41386.2806c.27442.4048.4994.7234.67416.954l.39855-.3019Zm-.65885-.9327c-.27143-.4003-.58087-.8764-.92848-1.4284l-.42311.2664c.34966.5553.66228 1.0363.93773 1.4426l.41386-.2806Zm-.9273-1.4265c-.33868-.5487-.68818-1.1594-1.04848-1.8324l-.44081.236c.36431.6805.71891 1.3002 1.06382 1.859l.42547-.2626Zm-1.0484-1.8323c-.21062-.394-.41097-.7846-.60108-1.1716l-.44878.2205c.19271.3923.39568.7879.60889 1.1868l.44097-.2357Zm-.60033-1.17c-.19013-.3939-.37001-.7842-.53965-1.1709l-.45789.2008c.17216.3925.35458.7883.54726 1.1875l.45028-.2174Zm-.53819-1.1675c-.1635-.3884-.32016-.7698-.46997-1.1443l-.46423.1857c.15097.3774.30877.7616.47339 1.1526l.46081-.194Zm-.468-1.1392c-.14253-.3801-.27479-.7532-.39682-1.1193l-.474338.1582c.124068.3722.258408.7511.402988 1.1366l.46817-.1755Zm-.3958-1.1161c-.14905-.4675-.28103-.9244-.395991-1.3707l-.484196.1247c.117457.456.25208.922.403814 1.3978l.476373-.1518Zm-.395768-1.3699C.854377 9.71333.75641 9.27072.675406 8.83869l-.491437.09215c.083058.44297.183334.89587.30076 1.35866l.484643-.123ZM.676183 8.84305C.601883 8.40401.544578 7.97911.50417 7.5683l-.49759823.04895c.04162403.42317.10052923.8596.17662023 1.30923l.492991-.08343ZM.504562 7.57268c-.03367-.4175-.05046-.82437-.05046-1.22063h-.5000004c0 .41038.0173885.83066.05207869 1.26082L.504562 7.57268Zm-.05046-1.22063c0-.83577.157748-1.61901.471973-2.3522l-.459572-.19696c-.342025.79806-.5124014 1.6486-.5124014 2.54916H.454102Zm.471973-2.3522c.316085-.73753.746215-1.37718 1.290255-1.92122l-.35356-.35355C1.27205 2.31581.80667 3.00916.466503 3.80289l.459572.19696ZM2.21633 2.07863c.55114-.55114 1.19431-.98458 1.93147-1.300504L3.95084.318553c-.79409.340325-1.49077.809237-2.08807 1.406527l.35356.35355ZM4.14952.777379C4.88232.456781 5.66496.295898 6.5.295898v-.5c-.90128 0-1.75243.1740784-2.55089.523403l.20041.458078ZM6.5.295898c.83504 0 1.61768.160883 2.35048.481481l.20041-.458078C8.25243-.0300236 7.40128-.204102 6.5-.204102v.5Zm2.3522.482228c.7369.315814 1.3762.748944 1.9202 1.299444l.3556-.35143C10.5372 1.1282 9.84352.658992 9.04916.318553L8.8522.778126Zm1.9223 1.301564c.5505.54394.9836 1.18326 1.2994 1.92016l.4596-.19696c-.3404-.79436-.8097-1.48805-1.4076-2.07887l-.3514.35567Zm1.2994 1.92016c.3142.73319.472 1.51643.472 2.3522h.5c0-.90056-.1704-1.7511-.5124-2.54916l-.4596.19696Zm.472 2.3522c0 .39485-.0201.80038-.0604 1.21664l.4977.04816c.0418-.43139.0627-.85301.0627-1.2648h-.5Zm-.0607 1.2203c-.0334.40799-.0904.8303-.171 1.26703l.4917.09077c.0834-.45195.1427-.89096.1776-1.31695l-.4983-.04085Zm-.1715 1.27007c-.0741.43067-.1684.87204-.2831 1.32408l.4847.123c.1177-.46392.2148-.91806.2911-1.36239l-.4927-.08469Zm-.2828 1.32328c-.115.4463-.247.9032-.396 1.3707l.4763.1518c.1518-.4758.2864-.9418.4038-1.3978l-.4841-.1247Zm-.395 1.3675c-.1216.3648-.2568.7367-.4057 1.1156l.4654.1828c.1519-.3866.2901-.7667.4146-1.1402l-.4743-.1582Zm-.4066 1.1179c-.142.3719-.2977.751-.467 1.1372l.4579.2008c.1724-.3932.3312-.7797.4762-1.1597l-.4671-.1783Zm-.4685 1.1406c-.1623.3855-.3383.7747-.5279 1.1675l.4502.2174c.1932-.4002.3727-.7972.5385-1.1909l-.4608-.194Zm-.5272 1.1659c-.1901.387-.39044.7776-.60106 1.1716l.44096.2357c.2132-.3989.4162-.7945.6089-1.1868l-.4488-.2205Zm-.60098 1.1715c-.35999.6724-.71253 1.2825-1.05756 1.8305l.42312.2664c.35224-.5595.71064-1.1799 1.07522-1.8609l-.44078-.236Zm-1.05873 1.8324c-.3405.5516-.64614 1.0269-.91705 1.4265l.41386.2806c.27597-.407.58556-.8887.92866-1.4445l-.42547-.2626Zm-.91705 1.4265c-.27204.4013-.49382.7102-.6662.929l.39274.3094c.18309-.2324.41249-.5524.68732-.9578l-.41386-.2806Zm-.67124.9356c-.16773.2281-.26558.362-.28346.3888l.41603.2773c-.00048.0008.00062-.0009.00473-.0067.00364-.0051.00861-.0121.01504-.021.01284-.0178.03067-.0423.05363-.0738.04588-.0629.11146-.1523.19685-.2684l-.40282-.2962Zm-.27278.374c-.02153.0277-.05005.051-.09068.0694l.2069.4552c.10976-.0499.20428-.1223.27845-.2176l-.39467-.307Zm-.09904.0734c-.03113.0156-.06765.0249-.11378.0249v.5c.11793 0 .2318-.0249.33739-.0777l-.22361-.4472ZM6.5.852051c-.75695 0-1.4709.143011-2.13931.430499l.19756.45932c.60308-.25939 1.24948-.38982 1.94175-.38982V.852051Zm-2.13931.430499c-.66418.28567-1.24794.67937-1.74938 1.18081l.35355.35355c.45559-.45559.98609-.81384 1.59339-1.07504l-.19756-.45932ZM2.61131 2.46336c-.4949.4949-.88818 1.07846-1.1803 1.74821l.4583.1999c.26842-.6154.6271-1.1461 1.07555-1.59456l-.35355-.35355ZM1.4305 4.21275C1.14301 4.88115 1 5.5951 1 6.35205h.5c0-.69227.13043-1.33867.38981-1.94175l-.45931-.19755ZM1 6.35205c0 .87127.08714 1.74548.26113 2.62239l.49044-.09731C1.58376 8.03138 1.5 7.18976 1.5 6.35205H1Zm.26151 2.62425c.17971.87095.4079 1.7181.68462 2.5413l.47395-.1593c-.27016-.8037-.49314-1.63133-.66889-2.48304l-.48968.10104Zm.68483 2.5419c.27575.8135.57928 1.5931.91066 2.3387l.4569-.2031c-.32487-.7309-.62291-1.4963-.89403-2.2961l-.47353.1605Zm.91181 2.3413c.3371.7361.67141 1.4048 1.00303 2.0059l.43779-.2415c-.32463-.5884-.6534-1.2458-.98622-1.9726l-.4546.2082Zm1.0004 2.001c.23412.4476.46849.8715.70312 1.2718l.43135-.2529c-.23022-.3927-.46069-.8096-.69142-1.2506l-.44305.2317Zm.70409 1.2734c.23339.3913.4567.7555.66994 1.0925l.42254-.2673c-.2106-.3329-.43161-.6933-.66307-1.0813l-.42941.2561Zm.6712 1.0945c.21243.3289.40793.6273.58647.8951l.41602-.2773c-.17693-.2654-.37108-.5617-.58247-.8891l-.42002.2713Zm.59068.9013c.18496.2603.34288.48.47363.6589l.4037-.295c-.12901-.1765-.28555-.3943-.46973-.6535l-.4076.2896Zm.87993.6553c.13071-.1858.28517-.4089.4633-.6692l-.41265-.2824c-.17734.2592-.33049.4804-.45955.6638l.4089.2878Zm.46252-.6681c.18637-.2692.38611-.5688.59919-.8987l-.42002-.2713c-.21074.3263-.40748.6214-.59026.8854l.41109.2846Zm.60045-.9007c.21364-.3377.43728-.7059.67091-1.1044l-.43135-.2529c-.23121.3944-.45191.7577-.6621 1.09l.42254.2673Zm.66928-1.1017c.24177-.4006.47984-.8216.71425-1.2628l-.44155-.2346c-.23044.4337-.46404.8468-.70079 1.2391l.42809.2583Zm.71399-1.2623c.32407-.6068.65444-1.278.99121-2.0132l-.45465-.2082c-.3332.7276-.65908 1.3894-.97759 1.9858l.44103.2356Zm.99121-2.0132c.3389-.7403.643-1.5179.9124-2.3328l-.4748-.1569c-.2639.7984-.5613 1.5588-.89225 2.2815l.45465.2082Zm.912-2.3316c.2768-.8237.5017-1.66789.6746-2.53259l-.4902-.09806c-.1689.84428-.3884 1.66805-.6584 2.47135l.474.1593Zm.6743-2.5311C11.9093 8.09884 12 7.224 12 6.35205h-.5c0 .83703-.087 1.67802-.2614 2.52321l.4896.10104ZM12 6.35205c0-.75781-.1468-1.47249-.4417-2.14138l-.4575.2017c.2657.6026.3992 1.24827.3992 1.93968h.5Zm-.4404-2.13842c-.2857-.67139-.6798-1.25605-1.1824-1.75154l-.351.35609c.4543.44788.8122.97747 1.0734 1.59123l.46-.19578Zm-1.1799-1.74899c-.49503-.50222-1.07589-.89628-1.74039-1.18209l-.19756.45932c.60698.26106 1.13355.61895 1.58185 1.07377l.3561-.351ZM8.63931 1.28255C7.9709.995062 7.25695.852051 6.5.852051v.499999c.69227 0 1.33867.13043 1.94175.38982l.19756-.45932ZM6.5 9.25c-.40538 0-.78186-.07582-1.13199-.22588l-.19696.45957C5.58654 9.66176 6.03038 9.75 6.5 9.75v-.5Zm-1.13048-.22523c-.34764-.15169-.65306-.35962-.91784-.6244l-.35355.35356c.30944.30943.6671.55268 1.07142.72911l.19997-.45827Zm-.91784-.6244c-.26404-.26403-.47189-.57224-.62375-.92658l-.45957.19696c.17626.41127.41958.77299.72977 1.08318l.35355-.35356Zm-.62375-.92658c-.15027-.35063-.22588-.72375-.22588-1.12174h-.5c0 .46334.08845.9037.26631 1.3187l.45957-.19696Zm-.22588-1.12174c0-.40538.07582-.78185.22588-1.13199l-.45957-.19696c-.17807.41549-.26631.85933-.26631 1.32895h.5Zm.22588-1.13199c.15164-.35382.35887-.65774.62161-.91421l-.34927-.35779c-.31149.30407-.55542.66323-.73191 1.07504l.45957.19696Zm.62375-.91633c.26478-.26478.5702-.4727.91784-.6244l-.19997-.45827c-.40432.17643-.76198.41968-1.07142.72912l.35355.35355Zm.91633-.62375c.35013-.15006.72661-.22588 1.13199-.22588v-.5c-.46962 0-.91346.08824-1.32895.26631l.19696.45957ZM6.5 3.4541c.40541 0 .77785.07583 1.12023.22523l.19997-.45827C7.41062 3.04234 6.96959 2.9541 6.5 2.9541v.5Zm1.12173.22588c.35435.15187.66255.35971.92659.62375l.35355-.35355c-.31018-.31019-.6719-.55351-1.08317-.72977l-.19697.45957Zm.92873.62587c.26274.25647.46997.56039.62161.91421l.45957-.19696c-.17649-.41181-.42042-.77097-.73191-1.07504l-.34927.35779Zm.62161.91421c.15006.35014.22588.72661.22588 1.13199h.5c0-.46962-.08824-.91346-.26631-1.32895l-.45957.19696Zm.22588 1.13199c0 .39799-.07561.77111-.22588 1.12174l.45957.19696c.17786-.415.26631-.85536.26631-1.3187h-.5Zm-.22588 1.12174c-.15186.35434-.35971.66255-.62375.92658l.35355.35356c.31019-.31019.55351-.67191.72977-1.08318l-.45957-.19696Zm-.62375.92658c-.26404.26404-.57224.47189-.92659.62375l.19697.45957c.41127-.17626.77299-.41958 1.08317-.72976l-.35355-.35356Zm-.92809.6244C7.27785 9.17417 6.90541 9.25 6.5 9.25v.5c.46959 0 .91062-.08823 1.3202-.26696l-.19997-.45827ZM6.5 4c-.31979 0-.62627.0611-.91733.18365l.19403.46082C6.00518 4.54827 6.24557 4.5 6.5 4.5V4Zm-.91954.1846c-.28134.12166-.52994.28975-.74405.50386l.35355.35355c.1687-.1687.36443-.30139.58896-.39848l-.19846-.45893Zm-.74405.50386c-.21411.21411-.3822.46271-.50386.74405l.45893.19846c.09709-.22453.22978-.42026.39848-.58896l-.35355-.35355Zm-.50386.74405c-.12381.28631-.1846.59377-.1846.91954h.5c0-.26212.04859-.50153.14353-.72108l-.45893-.19846Zm-.1846.91954c0 .31979.0611.62627.18365.91733l.46082-.19403c-.0962-.22847-.14447-.46887-.14447-.7233h-.5Zm.1846.91954c.12166.28134.28975.52994.50386.74405l.35355-.35355c-.1687-.1687-.30139-.36443-.39848-.58895l-.45893.19845Zm.5071.74724c.21258.20498.4584.37099.73566.49838l.20875-.45434c-.22859-.10503-.42711-.23981-.59734-.40396l-.34707.35992Zm.74302.50162c.29106.12255.59754.18365.91733.18365v-.5c-.25443 0-.49482-.04827-.7233-.14447l-.19403.46082ZM6.5 8.7041c.31978 0 .62372-.06111.90929-.1846l-.19846-.45893c-.22029.09527-.45639.14353-.71083.14353v.5Zm.91215-.18586c.28433-.1272.53453-.29337.7482-.49941l-.34707-.35992c-.16914.1631-.37011.2977-.60531.40292l.20418.45641Zm.75144-.5026c.21411-.21411.3822-.46271.50386-.74405l-.45893-.19845c-.09709.22452-.22978.42025-.39848.58895l.35355.35355Zm.50481-.74626c.12255-.29106.18365-.59754.18365-.91733h-.5c0 .25443-.04827.49483-.14447.7233l.46082.19403Zm.18365-.91733c0-.32577-.06079-.63323-.1846-.91954l-.45893.19846c.09494.21955.14353.45896.14353.72108h.5Zm-.1846-.91954c-.12166-.28134-.28975-.52994-.50386-.74405l-.35355.35355c.1687.1687.30139.36443.39848.58896l.45893-.19846Zm-.50386-.74405c-.21521-.21522-.4682-.38341-.75652-.50481l-.19403.46082c.23121.09735.4294.22994.597.39754l.35355-.35355Zm-.7543-.50386C7.12372 4.06111 6.81978 4 6.5 4v.5c.25444 0 .49054.04827.71083.14353l.19846-.45893Z" fill="#1C0D3F"/></svg>