<svg xmlns="http://www.w3.org/2000/svg" width="21" height="23" viewBox="0 0 21 23"><path d="M20.346 22.096c.071 0 .14-.011.204-.033a.435.435 0 00.172-.107.502.502 0 00.177-.381.535.535 0 00-.145-.392l-6.531-7.133c.365-.387.689-.8.972-1.24a8.181 8.181 0 001.155-2.885 8.416 8.416 0 00-.005-3.201 7.849 7.849 0 00-.468-1.537 8.277 8.277 0 00-.763-1.412 8.827 8.827 0 00-1.031-1.262A8.23 8.23 0 009.873.257 8.144 8.144 0 008.25.096c-.551 0-1.092.053-1.622.16a8.183 8.183 0 00-4.21 2.256 8.806 8.806 0 00-1.032 1.263 8.234 8.234 0 00-.763 1.413 7.849 7.849 0 00-.467 1.536A8.416 8.416 0 000 8.346c0 .551.052 1.092.156 1.622.104.53.26 1.042.467 1.536.208.494.462.967.763 1.418.3.451.644.87 1.031 1.257.387.394.806.74 1.257 1.042a8.086 8.086 0 002.954 1.22 8.416 8.416 0 004.367-.307 7.89 7.89 0 001.256-.564 8.26 8.26 0 001.155-.779l6.542 7.133c.05.057.111.1.183.129a.575.575 0 00.215.043zM8.25 15.5a6.914 6.914 0 01-2.782-.564A7.274 7.274 0 013.196 13.4a7.274 7.274 0 01-1.536-2.272 6.914 6.914 0 01-.564-2.782c0-.981.188-1.907.564-2.777a7.192 7.192 0 011.536-2.272 7.32 7.32 0 012.272-1.53 6.914 6.914 0 012.782-.565c.988 0 1.916.188 2.782.564a7.32 7.32 0 012.272 1.53A7.192 7.192 0 0114.84 5.57c.376.87.564 1.796.564 2.777 0 .988-.188 1.915-.564 2.782a7.274 7.274 0 01-1.536 2.272 7.274 7.274 0 01-2.272 1.536 6.914 6.914 0 01-2.782.564z"/></svg>