<svg width="28" height="25" viewBox="0 0 28 25" fill="none" xmlns="http://www.w3.org/2000/svg">
<path fill-rule="evenodd" clip-rule="evenodd" d="M7.17532 19.7638C6.21875 20.1738 4.78388 19.3335 3.81653 17.658C2.84918 15.9825 2.84982 14.5154 3.67224 13.6963L8.38103 10.0668L12.471 17.1509L10.2147 18.2642L11.7777 20.9714C12.1854 21.6776 11.9435 22.5807 11.2373 22.9884C10.531 23.3961 9.62801 23.1542 9.22028 22.4479L7.56077 19.5736L7.17532 19.7638Z" fill="#A3FFB0"/>
<path fill-rule="evenodd" clip-rule="evenodd" d="M7.17532 19.7638C6.21875 20.1738 4.78388 19.3335 3.81653 17.658C2.84918 15.9825 2.84982 14.5154 3.67224 13.6963L8.38103 10.0668L12.471 17.1509L10.2147 18.2642L11.7777 20.9714C12.1854 21.6776 11.9435 22.5807 11.2373 22.9884C10.531 23.3961 9.62801 23.1542 9.22028 22.4479L7.56077 19.5736L7.17532 19.7638Z" fill="#A3FFB0"/>
<path d="M12.2218 4.23485L8.35008 10.0779L12.4684 17.15L19.221 16.3579L12.2218 4.23485Z" fill="#DFE4E8"/>
<ellipse cx="15.9012" cy="10.1778" rx="2.05509" ry="6.95126" transform="rotate(-30 15.9012 10.1778)" fill="#667D8E"/>
<mask id="mask0_635_2639" style="mask-type:alpha" maskUnits="userSpaceOnUse" x="11" y="4" width="9" height="13">
<ellipse cx="15.9012" cy="10.1778" rx="2.05509" ry="6.95126" transform="rotate(-30 15.9012 10.1778)" fill="#8296A5"/>
</mask>
<g mask="url(#mask0_635_2639)">
<ellipse cx="14.3834" cy="11.0544" rx="1.46913" ry="2.83576" transform="rotate(-30 14.3834 11.0544)" fill="#BFC9D1"/>
</g>
<rect x="3.76004" y="14.833" width="5.51015" height="1.26331" rx="0.631654" transform="rotate(-36.6286 3.76004 14.833)" fill="#E5FFE9"/>
<path d="M18.4798 2.61108L17.2446 6.08907L19.3546 4.12641L18.4798 2.61108Z" fill="#FFF0A3"/>
<path d="M23.499 11.3045L19.8694 10.6352L22.6241 9.78922L23.499 11.3045Z" fill="#FFF0A3"/>
<path d="M22.0172 4.87679L18.6206 8.21641L23.1063 6.85608L22.0172 4.87679Z" fill="#FFF0A3"/>
</svg>
