<svg width="40" height="40" viewBox="0 0 40 40" fill="none" xmlns="http://www.w3.org/2000/svg">
<path d="M35 12.0039H5C4.72656 12.0039 4.49219 11.9062 4.29688 11.7109C4.10156 11.5156 4.00391 11.2812 4.00391 11.0078C4.00391 10.7214 4.10156 10.4805 4.29688 10.2852C4.49219 10.0898 4.72656 9.99219 5 9.99219H35C35.2734 9.99219 35.5078 10.0898 35.7031 10.2852C35.8984 10.4805 35.9961 10.7214 35.9961 11.0078C35.9961 11.2812 35.8984 11.5156 35.7031 11.7109C35.5078 11.9062 35.2734 12.0039 35 12.0039ZM35 22.0039H5C4.72656 22.0039 4.49219 21.9062 4.29688 21.7109C4.10156 21.5156 4.00391 21.2812 4.00391 21.0078C4.00391 20.7214 4.10156 20.4805 4.29688 20.2852C4.49219 20.0898 4.72656 19.9922 5 19.9922H35C35.2734 19.9922 35.5078 20.0898 35.7031 20.2852C35.8984 20.4805 35.9961 20.7214 35.9961 21.0078C35.9961 21.2812 35.8984 21.5156 35.7031 21.7109C35.5078 21.9062 35.2734 22.0039 35 22.0039ZM35 32.0039H5C4.72656 32.0039 4.49219 31.9062 4.29688 31.7109C4.10156 31.5156 4.00391 31.2812 4.00391 31.0078C4.00391 30.7214 4.10156 30.4805 4.29688 30.2852C4.49219 30.0898 4.72656 29.9922 5 29.9922H35C35.2734 29.9922 35.5078 30.0898 35.7031 30.2852C35.8984 30.4805 35.9961 30.7214 35.9961 31.0078C35.9961 31.2812 35.8984 31.5156 35.7031 31.7109C35.5078 31.9062 35.2734 32.0039 35 32.0039Z" fill="#1C0D3F"/>
</svg>
