<svg width="11" height="24" viewBox="0 0 11 24" fill="none" xmlns="http://www.w3.org/2000/svg">
<path fill-rule="evenodd" clip-rule="evenodd" d="M0.748 10.4905C0.673324 10.4211 0.609034 10.3353 0.563724 10.2333L0.54874 10.1996L0.538139 10.1643C0.513519 10.0822 0.5 9.9957 0.5 9.9064C0.5 9.81705 0.513567 9.72596 0.543454 9.6363L0.548856 9.62009L0.5552 9.60423C0.598461 9.49608 0.664762 9.39894 0.751578 9.31896C0.903066 9.17392 1.09965 9.09351 1.3129 9.09351C1.53228 9.09351 1.73403 9.17861 1.88719 9.33165C1.88726 9.33173 1.88734 9.3318 1.88742 9.33188L5.49977 12.9402L9.10804 9.33188C9.26122 9.1787 9.46306 9.09351 9.68256 9.09351C9.89695 9.09351 10.1028 9.17302 10.2616 9.33188C10.4148 9.48506 10.5 9.68691 10.5 9.9064C10.5 10.1259 10.4148 10.3277 10.2616 10.4809L6.07452 14.668C5.92134 14.8212 5.7195 14.9064 5.5 14.9064C5.2805 14.9064 5.07866 14.8212 4.92548 14.668L0.748 10.4905Z" fill="#1C0D3F"/>
</svg>
