<svg width="100" height="101" viewBox="0 0 100 101" fill="none" xmlns="http://www.w3.org/2000/svg"><path fill-rule="evenodd" clip-rule="evenodd" d="M31.492 24.0226h43.4133v45.2283c0 4.1632-3.3749 7.5381-7.5381 7.5381h-34.692c-4.1631 0-7.538-3.3749-7.538-7.5381V33.2631h6.3548v-9.2405Zm0 12.2557h-3.3396v32.9726c0 2.4979 2.025 4.5228 4.5228 4.5228h34.692c2.4979 0 4.5229-2.0249 4.5229-4.5228v-42.213H34.5072v43.8134H31.492v-34.573Z" fill="#1B127D"/><path fill-rule="evenodd" clip-rule="evenodd" d="M65.9281 36.6558H40.2965v-3.0152h25.6316v3.0152ZM65.9281 44.3334H40.2965v-3.0152h25.6316v3.0152ZM65.9281 51.8809H40.2965v-3.0152h25.6316v3.0152ZM62.9548 59.2877H43.3675v4.4841h19.5873v-4.4841Zm-22.6025-3.0152V66.787H65.97V56.2725H40.3523Z" fill="#1B127D"/></svg>