<svg width="18" height="18" viewBox="0 0 18 18" fill="none" xmlns="http://www.w3.org/2000/svg">
<path d="M8.55176 17.8965C7.97754 17.8965 7.41504 17.8408 6.86426 17.7295C6.31934 17.624 5.78906 17.4658 5.27344 17.2549C4.76367 17.0439 4.27441 16.7832 3.80566 16.4727C3.34277 16.1562 2.90918 15.7959 2.50488 15.3916C2.10059 14.9932 1.74316 14.5596 1.43262 14.0908C1.12207 13.6221 0.858398 13.1328 0.641602 12.623C0.430664 12.1133 0.269531 11.583 0.158203 11.0322C0.0527344 10.4814 0 9.92188 0 9.35352C0 8.7793 0.0527344 8.21973 0.158203 7.6748C0.269531 7.12402 0.430664 6.59375 0.641602 6.08398C0.858398 5.56836 1.12207 5.0791 1.43262 4.61621C1.74316 4.14746 2.10059 3.71094 2.50488 3.30664C2.90918 2.90234 3.34277 2.54492 3.80566 2.23438C4.27441 1.92383 4.76367 1.66309 5.27344 1.45215C5.78906 1.23535 6.31934 1.07422 6.86426 0.96875C7.41504 0.857422 7.97754 0.801758 8.55176 0.801758C9.12012 0.801758 9.67969 0.857422 10.2305 0.96875C10.7812 1.07422 11.3115 1.23535 11.8213 1.45215C12.3369 1.66309 12.8262 1.92383 13.2891 2.23438C13.7578 2.54492 14.1943 2.90234 14.5986 3.30664C15.0029 3.71094 15.3604 4.14746 15.6709 4.61621C15.9814 5.0791 16.2422 5.56836 16.4531 6.08398C16.6641 6.59375 16.8252 7.12402 16.9365 7.6748C17.0479 8.21973 17.1035 8.7793 17.1035 9.35352C17.1035 9.92188 17.0479 10.4814 16.9365 11.0322C16.8252 11.583 16.6641 12.1133 16.4531 12.623C16.2422 13.1328 15.9814 13.6221 15.6709 14.0908C15.3604 14.5596 15.0029 14.9932 14.5986 15.3916C14.1943 15.7959 13.7578 16.1562 13.2891 16.4727C12.8262 16.7832 12.3369 17.0439 11.8213 17.2549C11.3115 17.4658 10.7812 17.624 10.2305 17.7295C9.67969 17.8408 9.12012 17.8965 8.55176 17.8965ZM8.55176 1.69824C7.49707 1.69824 6.50391 1.90039 5.57227 2.30469C4.64648 2.70312 3.83496 3.25098 3.1377 3.94824C2.44629 4.63965 1.89844 5.45117 1.49414 6.38281C1.0957 7.30859 0.896484 8.29883 0.896484 9.35352C0.896484 10.4082 1.0957 11.4014 1.49414 12.333C1.89844 13.2588 2.44629 14.0674 3.1377 14.7588C3.83496 15.4502 4.64648 15.998 5.57227 16.4023C6.50391 16.8008 7.49707 17 8.55176 17C9.60645 17 10.5967 16.8008 11.5225 16.4023C12.4541 15.998 13.2656 15.4502 13.957 14.7588C14.6484 14.0674 15.1934 13.2588 15.5918 12.333C15.9961 11.4014 16.1982 10.4082 16.1982 9.35352C16.1982 8.29883 15.9961 7.30859 15.5918 6.38281C15.1934 5.45117 14.6484 4.63965 13.957 3.94824C13.2656 3.25098 12.4541 2.70312 11.5225 2.30469C10.5967 1.90039 9.60645 1.69824 8.55176 1.69824ZM5.85352 14.3018C5.8125 14.3018 5.77441 14.2988 5.73926 14.293C5.7041 14.2812 5.66895 14.2637 5.63379 14.2402C5.56348 14.2051 5.50488 14.1523 5.45801 14.082C5.41699 14.0117 5.39648 13.9355 5.39648 13.8535V4.85352C5.39648 4.77148 5.41699 4.69531 5.45801 4.625C5.50488 4.55469 5.56348 4.49902 5.63379 4.45801C5.7041 4.41699 5.78027 4.39941 5.8623 4.40527C5.94434 4.40527 6.02051 4.42578 6.09082 4.4668L13.2891 8.9668C13.3535 9.00781 13.4033 9.06348 13.4385 9.13379C13.4795 9.19824 13.5 9.27148 13.5 9.35352C13.5 9.42969 13.4795 9.50293 13.4385 9.57324C13.4033 9.6377 13.3535 9.69043 13.2891 9.73145L6.09082 14.2314C6.05566 14.2549 6.01758 14.2725 5.97656 14.2842C5.93555 14.2959 5.89453 14.3018 5.85352 14.3018ZM6.30176 5.66211V13.0361L12.1992 9.35352L6.30176 5.66211Z" fill="#ed26b7"/>
</svg>
