<svg width="12" height="11" viewBox="0 0 12 11" fill="none" xmlns="http://www.w3.org/2000/svg">
<path d="M9.41211 5.38672C9.35352 5.32812 9.2832 5.29883 9.20117 5.29883C9.11914 5.29883 9.04883 5.32812 8.99023 5.38672L6.5 7.87695V1.09766C6.5 1.01562 6.4707 0.945312 6.41211 0.886719C6.35352 0.828125 6.2832 0.798828 6.20117 0.798828C6.11914 0.798828 6.04883 0.828125 5.99023 0.886719C5.93164 0.945312 5.90234 1.01562 5.90234 1.09766V7.87695L3.41211 5.38672C3.35352 5.32812 3.2832 5.29883 3.20117 5.29883C3.11914 5.29883 3.04883 5.32812 2.99023 5.38672C2.93164 5.44531 2.90234 5.51758 2.90234 5.60352C2.90234 5.68555 2.93164 5.75586 2.99023 5.81445L5.99023 8.81445C6.01758 8.8418 6.04883 8.86328 6.08398 8.87891C6.12305 8.89453 6.16211 8.90234 6.20117 8.90234C6.24023 8.90234 6.27734 8.89453 6.3125 8.87891C6.35156 8.86328 6.38477 8.8418 6.41211 8.81445L9.41211 5.81445C9.4707 5.75586 9.5 5.68555 9.5 5.60352C9.5 5.51758 9.4707 5.44531 9.41211 5.38672ZM11 11H1.40234C1.15234 11 0.939453 10.9121 0.763672 10.7363C0.587891 10.5605 0.5 10.3477 0.5 10.0977V8.90234C0.5 8.81641 0.529297 8.74414 0.587891 8.68555C0.646484 8.62695 0.716797 8.59766 0.798828 8.59766C0.880859 8.59766 0.951172 8.62695 1.00977 8.68555C1.06836 8.74414 1.09766 8.81641 1.09766 8.90234V10.0977C1.09766 10.1836 1.12695 10.2559 1.18555 10.3145C1.24414 10.373 1.31641 10.4023 1.40234 10.4023H11C11.082 10.4023 11.1523 10.373 11.2109 10.3145C11.2695 10.2559 11.2988 10.1836 11.2988 10.0977V8.90234C11.2988 8.81641 11.3281 8.74414 11.3867 8.68555C11.4453 8.62695 11.5156 8.59766 11.5977 8.59766C11.6836 8.59766 11.7559 8.62695 11.8145 8.68555C11.873 8.74414 11.9023 8.81641 11.9023 8.90234V10.0977C11.9023 10.3477 11.8145 10.5605 11.6387 10.7363C11.4629 10.9121 11.25 11 11 11Z" fill="black"/>
</svg>
