<?xml version="1.0" encoding="UTF-8"?>
<svg width="22px" height="22px" viewBox="0 0 22 22" version="1.1" xmlns="http://www.w3.org/2000/svg" xmlns:xlink="http://www.w3.org/1999/xlink">
    <title>register</title>
    <g id="design" stroke="none" stroke-width="1" fill="none" fill-rule="evenodd">
        <path d="M15.9521484,21.0957031 C16.4033203,21.0957031 16.7900391,20.9345703 17.1123047,20.6123047 C17.4345703,20.2900391 17.5957031,19.9033203 17.5957031,19.4521484 L17.5957031,19.4521484 L17.5957031,15.0478516 C17.5957031,14.8974609 17.5419922,14.7685547 17.4345703,14.6611328 C17.3271484,14.5537109 17.1982422,14.5 17.0478516,14.5 C16.8974609,14.5 16.7685547,14.5537109 16.6611328,14.6611328 C16.5537109,14.7685547 16.5,14.8974609 16.5,15.0478516 L16.5,15.0478516 L16.5,19.4521484 C16.5,19.6025391 16.4462891,19.7314453 16.3388672,19.8388672 C16.2314453,19.9462891 16.1025391,20 15.9521484,20 L15.9521484,20 L1.65429688,20 C1.49674479,20 1.36425781,19.9462891 1.25683594,19.8388672 C1.14941406,19.7314453 1.09570312,19.6025391 1.09570312,19.4521484 L1.09570312,19.4521484 L1.09570312,1.84570312 C1.09570312,1.6953125 1.14941406,1.56640625 1.25683594,1.45898438 C1.36425781,1.3515625 1.49674479,1.29785156 1.65429688,1.29785156 L1.65429688,1.29785156 L15.9521484,1.29785156 C16.1025391,1.29785156 16.2314453,1.3515625 16.3388672,1.45898438 C16.4462891,1.56640625 16.5,1.6953125 16.5,1.84570312 L16.5,1.84570312 L16.5,4.04785156 C16.5,4.19824219 16.5537109,4.32714844 16.6611328,4.43457031 C16.7685547,4.54199219 16.8974609,4.59570312 17.0478516,4.59570312 C17.1982422,4.59570312 17.3271484,4.54199219 17.4345703,4.43457031 C17.5419922,4.32714844 17.5957031,4.19824219 17.5957031,4.04785156 L17.5957031,4.04785156 L17.5957031,1.84570312 C17.5957031,1.39453125 17.4345703,1.0078125 17.1123047,0.685546875 C16.7900391,0.36328125 16.4033203,0.202148438 15.9521484,0.202148438 L15.9521484,0.202148438 L1.65429688,0.202148438 C1.19596354,0.202148438 0.805664062,0.36328125 0.483398438,0.685546875 C0.161132812,1.0078125 0,1.39453125 0,1.84570312 L0,1.84570312 L0,19.4521484 C0,19.9033203 0.161132812,20.2900391 0.483398438,20.6123047 C0.805664062,20.9345703 1.19596354,21.0957031 1.65429688,21.0957031 L1.65429688,21.0957031 L15.9521484,21.0957031 Z M11.5478516,4.59570312 C11.6982422,4.59570312 11.8271484,4.54199219 11.9345703,4.43457031 C12.0419922,4.32714844 12.0957031,4.19824219 12.0957031,4.04785156 C12.0957031,3.89746094 12.0419922,3.76855469 11.9345703,3.66113281 C11.8271484,3.55371094 11.6982422,3.5 11.5478516,3.5 L11.5478516,3.5 L3.84570312,3.5 C3.6953125,3.5 3.56640625,3.55371094 3.45898438,3.66113281 C3.3515625,3.76855469 3.29785156,3.89746094 3.29785156,4.04785156 C3.29785156,4.19824219 3.3515625,4.32714844 3.45898438,4.43457031 C3.56640625,4.54199219 3.6953125,4.59570312 3.84570312,4.59570312 L3.84570312,4.59570312 L11.5478516,4.59570312 Z M9.34570312,17.7978516 C9.3671875,17.7978516 9.39046224,17.7960612 9.41552734,17.7924805 L9.45178223,17.7884521 L9.45178223,17.7884521 L9.48535156,17.7871094 L13.3310547,16.8417969 C13.3811849,16.827474 13.4277344,16.8077799 13.4707031,16.7827148 C13.5136719,16.7576497 13.5530599,16.7272135 13.5888672,16.6914062 L13.5888672,16.6914062 L21.8388672,8.28027344 C21.9462891,8.17285156 22,8.04394531 22,7.89355469 C22,7.74316406 21.9462891,7.61425781 21.8388672,7.50683594 L21.8388672,7.50683594 L19.0888672,4.75683594 C18.9814453,4.64941406 18.8525391,4.59570312 18.7021484,4.59570312 C18.5517578,4.59570312 18.4228516,4.64941406 18.3154297,4.75683594 L18.3154297,4.75683594 L10.0654297,13.0068359 C10.0296224,13.0426432 9.9991862,13.0802409 9.97412109,13.1196289 C9.94905599,13.1590169 9.93294271,13.203776 9.92578125,13.2539062 L9.92578125,13.2539062 L8.81933594,17.0996094 C8.7906901,17.1927083 8.78889974,17.2875977 8.81396484,17.3842773 C8.83902995,17.480957 8.88736979,17.5651042 8.95898438,17.6367188 C9.00911458,17.686849 9.06819661,17.726237 9.13623047,17.7548828 C9.20426432,17.7835286 9.27408854,17.7978516 9.34570312,17.7978516 Z M13.75,6.79785156 C13.9003906,6.79785156 14.0292969,6.74414062 14.1367188,6.63671875 C14.2441406,6.52929688 14.2978516,6.40039062 14.2978516,6.25 C14.2978516,6.09960938 14.2441406,5.97070312 14.1367188,5.86328125 C14.0292969,5.75585938 13.9003906,5.70214844 13.75,5.70214844 L13.75,5.70214844 L3.84570312,5.70214844 C3.6953125,5.70214844 3.56640625,5.75585938 3.45898438,5.86328125 C3.3515625,5.97070312 3.29785156,6.09960938 3.29785156,6.25 C3.29785156,6.40039062 3.3515625,6.52929688 3.45898438,6.63671875 C3.56640625,6.74414062 3.6953125,6.79785156 3.84570312,6.79785156 L3.84570312,6.79785156 L13.75,6.79785156 Z M10.140625,16.4873047 L10.9355469,13.6835938 L18.7021484,5.92773438 L20.6787109,7.90429688 L12.9121094,15.8105469 L10.140625,16.4873047 Z M12.6542969,9 C12.8046875,9 12.9335938,8.94628906 13.0410156,8.83886719 C13.1484375,8.73144531 13.2021484,8.60253906 13.2021484,8.45214844 C13.2021484,8.30175781 13.1484375,8.17285156 13.0410156,8.06542969 C12.9335938,7.95800781 12.8046875,7.90429688 12.6542969,7.90429688 L12.6542969,7.90429688 L3.84570312,7.90429688 C3.6953125,7.90429688 3.56640625,7.95800781 3.45898438,8.06542969 C3.3515625,8.17285156 3.29785156,8.30175781 3.29785156,8.45214844 C3.29785156,8.60253906 3.3515625,8.73144531 3.45898438,8.83886719 C3.56640625,8.94628906 3.6953125,9 3.84570312,9 L3.84570312,9 L12.6542969,9 Z M9.34570312,11.2021484 C9.50325521,11.2021484 9.63574219,11.1484375 9.74316406,11.0410156 C9.85058594,10.9335938 9.90429688,10.8046875 9.90429688,10.6542969 C9.90429688,10.4967448 9.85058594,10.3642578 9.74316406,10.2568359 C9.63574219,10.1494141 9.50325521,10.0957031 9.34570312,10.0957031 L9.34570312,10.0957031 L3.84570312,10.0957031 C3.6953125,10.0957031 3.56640625,10.1494141 3.45898438,10.2568359 C3.3515625,10.3642578 3.29785156,10.4967448 3.29785156,10.6542969 C3.29785156,10.8046875 3.3515625,10.9335938 3.45898438,11.0410156 C3.56640625,11.1484375 3.6953125,11.2021484 3.84570312,11.2021484 L3.84570312,11.2021484 L9.34570312,11.2021484 Z M7.15429688,17.7978516 C7.3046875,17.7978516 7.43359375,17.7441406 7.54101562,17.6367188 C7.6484375,17.5292969 7.70214844,17.4003906 7.70214844,17.25 C7.70214844,17.0996094 7.6484375,16.9707031 7.54101562,16.8632812 C7.43359375,16.7558594 7.3046875,16.7021484 7.15429688,16.7021484 L7.15429688,16.7021484 L3.84570312,16.7021484 C3.6953125,16.7021484 3.56640625,16.7558594 3.45898438,16.8632812 C3.3515625,16.9707031 3.29785156,17.0996094 3.29785156,17.25 C3.29785156,17.4003906 3.3515625,17.5292969 3.45898438,17.6367188 C3.56640625,17.7441406 3.6953125,17.7978516 3.84570312,17.7978516 L3.84570312,17.7978516 L7.15429688,17.7978516 Z" id="register" fill="#1C0D3F" fill-rule="nonzero"></path>
    </g>
</svg>