<svg xmlns="http://www.w3.org/2000/svg" width="22" height="16" viewBox="0 0 22 16">
  <path fill="#1C0D3F" d="M20.3457031,16.25 C20.3815104,16.25 20.4173177,16.2464193 20.453125,16.2392578 C20.4889323,16.2320964 20.5247396,16.2213542 20.5605469,16.2070312 C20.6608073,16.1640625 20.7431641,16.0960286 20.8076172,16.0029297 C20.8720703,15.9098307 20.9042969,15.8095703 20.9042969,15.7021484 L20.9042969,3.59570312 C20.9042969,3.52408854 20.889974,3.45426432 20.8613281,3.38623047 C20.8326823,3.31819661 20.7932943,3.25911458 20.7431641,3.20898438 C20.5283203,3.00130208 20.2526042,2.79003906 19.9160156,2.57519531 C19.5794271,2.36035156 19.1855469,2.16520182 18.734375,1.98974609 C18.2832031,1.81429036 17.7783203,1.67285156 17.2197266,1.56542969 C16.6611328,1.45800781 16.0559896,1.40429688 15.4042969,1.40429688 C14.8385417,1.40429688 14.3068034,1.44547526 13.809082,1.52783203 C13.3113607,1.6101888 12.8548177,1.72119141 12.4394531,1.86083984 C12.0240885,2.00048828 11.648112,2.15804036 11.3115234,2.33349609 C10.9749349,2.50895182 10.6884766,2.68977865 10.4521484,2.87597656 C10.2086589,2.68977865 9.92041016,2.50895182 9.58740234,2.33349609 C9.25439453,2.15804036 8.87841797,2.00048828 8.45947266,1.86083984 C8.04052734,1.72119141 7.58398438,1.6101888 7.08984375,1.52783203 C6.59570312,1.44547526 6.06575521,1.40429688 5.5,1.40429688 C4.84830729,1.40429688 4.24316406,1.45800781 3.68457031,1.56542969 C3.12597656,1.67285156 2.62109375,1.81429036 2.16992188,1.98974609 C1.71875,2.16520182 1.32307943,2.36035156 0.982910156,2.57519531 C0.642740885,2.79003906 0.368815104,3.00130208 0.161132812,3.20898438 C0.111002604,3.25911458 0.0716145833,3.31819661 0.04296875,3.38623047 C0.0143229167,3.45426432 0,3.52408854 0,3.59570312 L0,15.7021484 C0,15.8095703 0.0304361979,15.9098307 0.0913085937,16.0029297 C0.15218099,16.0960286 0.236328125,16.1640625 0.34375,16.2070312 C0.444010417,16.25 0.547851562,16.2607422 0.655273438,16.2392578 C0.762695312,16.2177734 0.855794271,16.1676432 0.934570312,16.0888672 C1.07779948,15.9527995 1.28190104,15.7988281 1.546875,15.6269531 C1.81184896,15.4550781 2.13590495,15.2921549 2.51904297,15.1381836 C2.90218099,14.9842122 3.34261068,14.855306 3.84033203,14.7514648 C4.33805339,14.6476237 4.89127604,14.5957031 5.5,14.5957031 C6.10872396,14.5957031 6.66194661,14.6476237 7.15966797,14.7514648 C7.65738932,14.855306 8.09781901,14.9842122 8.48095703,15.1381836 C8.86409505,15.2921549 9.18815104,15.4550781 9.453125,15.6269531 C9.71809896,15.7988281 9.92220052,15.9527995 10.0654297,16.0888672 C10.1728516,16.1962891 10.3017578,16.25 10.4521484,16.25 C10.6025391,16.25 10.7314453,16.1962891 10.8388672,16.0888672 C10.9749349,15.9527995 11.1754557,15.7988281 11.4404297,15.6269531 C11.7054036,15.4550781 12.03125,15.2921549 12.4179688,15.1381836 C12.8046875,14.9842122 13.2469076,14.855306 13.7446289,14.7514648 C14.2423503,14.6476237 14.7955729,14.5957031 15.4042969,14.5957031 C16.0058594,14.5957031 16.5572917,14.6476237 17.0585938,14.7514648 C17.5598958,14.855306 18.0021159,14.9842122 18.3852539,15.1381836 C18.7683919,15.2921549 19.0924479,15.4550781 19.3574219,15.6269531 C19.6223958,15.7988281 19.8229167,15.9527995 19.9589844,16.0888672 C20.016276,16.1389974 20.0771484,16.1783854 20.1416016,16.2070312 C20.2060547,16.2356771 20.2740885,16.25 20.3457031,16.25 Z M9.90429688,14.6064453 C9.64648438,14.4560547 9.36181641,14.3146159 9.05029297,14.1821289 C8.73876953,14.0496419 8.39860026,13.9332682 8.02978516,13.8330078 C7.66097005,13.7327474 7.26529948,13.652181 6.84277344,13.5913086 C6.4202474,13.5304362 5.97265625,13.5 5.5,13.5 C5.02734375,13.5 4.5797526,13.5286458 4.15722656,13.5859375 C3.73470052,13.6432292 3.33902995,13.7237956 2.97021484,13.8276367 C2.60139974,13.9314779 2.26123047,14.0496419 1.94970703,14.1821289 C1.63818359,14.3146159 1.35351562,14.4560547 1.09570312,14.6064453 L1.09570312,3.84277344 C1.26757812,3.70670573 1.48779297,3.55989583 1.75634766,3.40234375 C2.02490234,3.24479167 2.34358724,3.09798177 2.71240234,2.96191406 C3.08121745,2.82584635 3.4983724,2.71484375 3.96386719,2.62890625 C4.42936198,2.54296875 4.94140625,2.5 5.5,2.5 C6.05859375,2.5 6.57063802,2.54296875 7.03613281,2.62890625 C7.5016276,2.71484375 7.91878255,2.82584635 8.28759766,2.96191406 C8.65641276,3.09798177 8.97509766,3.24479167 9.24365234,3.40234375 C9.51220703,3.55989583 9.73242188,3.70670573 9.90429688,3.84277344 L9.90429688,14.6064453 Z M19.7978516,14.6064453 C19.5472005,14.4560547 19.2643229,14.3146159 18.9492188,14.1821289 C18.6341146,14.0496419 18.2921549,13.9314779 17.9233398,13.8276367 C17.5545247,13.7237956 17.1588542,13.6432292 16.7363281,13.5859375 C16.3138021,13.5286458 15.8697917,13.5 15.4042969,13.5 C14.9316406,13.5 14.4840495,13.5304362 14.0615234,13.5913086 C13.6389974,13.652181 13.2433268,13.7327474 12.8745117,13.8330078 C12.5056966,13.9332682 12.163737,14.0496419 11.8486328,14.1821289 C11.5335286,14.3146159 11.250651,14.4560547 11,14.6064453 L11,3.84277344 C11.1647135,3.70670573 11.383138,3.55989583 11.6552734,3.40234375 C11.9274089,3.24479167 12.2478841,3.09798177 12.6166992,2.96191406 C12.9855143,2.82584635 13.4026693,2.71484375 13.8681641,2.62890625 C14.3336589,2.54296875 14.8457031,2.5 15.4042969,2.5 C15.9557292,2.5 16.4641927,2.54296875 16.9296875,2.62890625 C17.3951823,2.71484375 17.8123372,2.82584635 18.1811523,2.96191406 C18.5499674,3.09798177 18.8704427,3.24479167 19.1425781,3.40234375 C19.4147135,3.55989583 19.633138,3.70670573 19.7978516,3.84277344 L19.7978516,14.6064453 Z M20.3457031,16.25 C20.3815104,16.25 20.4173177,16.2464193 20.453125,16.2392578 C20.4889323,16.2320964 20.5247396,16.2213542 20.5605469,16.2070312 C20.6608073,16.1640625 20.7431641,16.0960286 20.8076172,16.0029297 C20.8720703,15.9098307 20.9042969,15.8095703 20.9042969,15.7021484 L20.9042969,3.59570312 C20.9042969,3.52408854 20.889974,3.45426432 20.8613281,3.38623047 C20.8326823,3.31819661 20.7932943,3.25911458 20.7431641,3.20898438 C20.5283203,3.00130208 20.2526042,2.79003906 19.9160156,2.57519531 C19.5794271,2.36035156 19.1855469,2.16520182 18.734375,1.98974609 C18.2832031,1.81429036 17.7783203,1.67285156 17.2197266,1.56542969 C16.6611328,1.45800781 16.0559896,1.40429688 15.4042969,1.40429688 C14.8385417,1.40429688 14.3068034,1.44547526 13.809082,1.52783203 C13.3113607,1.6101888 12.8548177,1.72119141 12.4394531,1.86083984 C12.0240885,2.00048828 11.648112,2.15804036 11.3115234,2.33349609 C10.9749349,2.50895182 10.6884766,2.68977865 10.4521484,2.87597656 C10.2086589,2.68977865 9.92041016,2.50895182 9.58740234,2.33349609 C9.25439453,2.15804036 8.87841797,2.00048828 8.45947266,1.86083984 C8.04052734,1.72119141 7.58398438,1.6101888 7.08984375,1.52783203 C6.59570312,1.44547526 6.06575521,1.40429688 5.5,1.40429688 C4.84830729,1.40429688 4.24316406,1.45800781 3.68457031,1.56542969 C3.12597656,1.67285156 2.62109375,1.81429036 2.16992188,1.98974609 C1.71875,2.16520182 1.32307943,2.36035156 0.982910156,2.57519531 C0.642740885,2.79003906 0.368815104,3.00130208 0.161132812,3.20898438 C0.111002604,3.25911458 0.0716145833,3.31819661 0.04296875,3.38623047 C0.0143229167,3.45426432 0,3.52408854 0,3.59570312 L0,15.7021484 C0,15.8095703 0.0304361979,15.9098307 0.0913085937,16.0029297 C0.15218099,16.0960286 0.236328125,16.1640625 0.34375,16.2070312 C0.444010417,16.25 0.547851562,16.2607422 0.655273438,16.2392578 C0.762695312,16.2177734 0.855794271,16.1676432 0.934570312,16.0888672 C1.07779948,15.9527995 1.28190104,15.7988281 1.546875,15.6269531 C1.81184896,15.4550781 2.13590495,15.2921549 2.51904297,15.1381836 C2.90218099,14.9842122 3.34261068,14.855306 3.84033203,14.7514648 C4.33805339,14.6476237 4.89127604,14.5957031 5.5,14.5957031 C6.10872396,14.5957031 6.66194661,14.6476237 7.15966797,14.7514648 C7.65738932,14.855306 8.09781901,14.9842122 8.48095703,15.1381836 C8.86409505,15.2921549 9.18815104,15.4550781 9.453125,15.6269531 C9.71809896,15.7988281 9.92220052,15.9527995 10.0654297,16.0888672 C10.1728516,16.1962891 10.3017578,16.25 10.4521484,16.25 C10.6025391,16.25 10.7314453,16.1962891 10.8388672,16.0888672 C10.9749349,15.9527995 11.1754557,15.7988281 11.4404297,15.6269531 C11.7054036,15.4550781 12.03125,15.2921549 12.4179688,15.1381836 C12.8046875,14.9842122 13.2469076,14.855306 13.7446289,14.7514648 C14.2423503,14.6476237 14.7955729,14.5957031 15.4042969,14.5957031 C16.0058594,14.5957031 16.5572917,14.6476237 17.0585938,14.7514648 C17.5598958,14.855306 18.0021159,14.9842122 18.3852539,15.1381836 C18.7683919,15.2921549 19.0924479,15.4550781 19.3574219,15.6269531 C19.6223958,15.7988281 19.8229167,15.9527995 19.9589844,16.0888672 C20.016276,16.1389974 20.0771484,16.1783854 20.1416016,16.2070312 C20.2060547,16.2356771 20.2740885,16.25 20.3457031,16.25 Z M9.90429688,14.6064453 C9.64648438,14.4560547 9.36181641,14.3146159 9.05029297,14.1821289 C8.73876953,14.0496419 8.39860026,13.9332682 8.02978516,13.8330078 C7.66097005,13.7327474 7.26529948,13.652181 6.84277344,13.5913086 C6.4202474,13.5304362 5.97265625,13.5 5.5,13.5 C5.02734375,13.5 4.5797526,13.5286458 4.15722656,13.5859375 C3.73470052,13.6432292 3.33902995,13.7237956 2.97021484,13.8276367 C2.60139974,13.9314779 2.26123047,14.0496419 1.94970703,14.1821289 C1.63818359,14.3146159 1.35351562,14.4560547 1.09570312,14.6064453 L1.09570312,3.84277344 C1.26757812,3.70670573 1.48779297,3.55989583 1.75634766,3.40234375 C2.02490234,3.24479167 2.34358724,3.09798177 2.71240234,2.96191406 C3.08121745,2.82584635 3.4983724,2.71484375 3.96386719,2.62890625 C4.42936198,2.54296875 4.94140625,2.5 5.5,2.5 C6.05859375,2.5 6.57063802,2.54296875 7.03613281,2.62890625 C7.5016276,2.71484375 7.91878255,2.82584635 8.28759766,2.96191406 C8.65641276,3.09798177 8.97509766,3.24479167 9.24365234,3.40234375 C9.51220703,3.55989583 9.73242188,3.70670573 9.90429688,3.84277344 L9.90429688,14.6064453 Z M19.7978516,14.6064453 C19.5472005,14.4560547 19.2643229,14.3146159 18.9492188,14.1821289 C18.6341146,14.0496419 18.2921549,13.9314779 17.9233398,13.8276367 C17.5545247,13.7237956 17.1588542,13.6432292 16.7363281,13.5859375 C16.3138021,13.5286458 15.8697917,13.5 15.4042969,13.5 C14.9316406,13.5 14.4840495,13.5304362 14.0615234,13.5913086 C13.6389974,13.652181 13.2433268,13.7327474 12.8745117,13.8330078 C12.5056966,13.9332682 12.163737,14.0496419 11.8486328,14.1821289 C11.5335286,14.3146159 11.250651,14.4560547 11,14.6064453 L11,3.84277344 C11.1647135,3.70670573 11.383138,3.55989583 11.6552734,3.40234375 C11.9274089,3.24479167 12.2478841,3.09798177 12.6166992,2.96191406 C12.9855143,2.82584635 13.4026693,2.71484375 13.8681641,2.62890625 C14.3336589,2.54296875 14.8457031,2.5 15.4042969,2.5 C15.9557292,2.5 16.4641927,2.54296875 16.9296875,2.62890625 C17.3951823,2.71484375 17.8123372,2.82584635 18.1811523,2.96191406 C18.5499674,3.09798177 18.8704427,3.24479167 19.1425781,3.40234375 C19.4147135,3.55989583 19.633138,3.70670573 19.7978516,3.84277344 L19.7978516,14.6064453 Z" transform="translate(.5 -1)"/>
</svg>
