<svg xmlns="http://www.w3.org/2000/svg" width="21" height="22" viewBox="0 0 21 22">
  <path fill="#1C0D3F" d="M10.4521484,21.0957031 C11.1468099,21.0957031 11.8307292,21.0294596 12.5039062,20.8969727 C13.1770833,20.7644857 13.8269857,20.5693359 14.4536133,20.3115234 C15.0802409,20.0537109 15.6782227,19.7332357 16.2475586,19.3500977 C16.8168945,18.9669596 17.3486328,18.5283203 17.8427734,18.0341797 C18.3369141,17.5472005 18.773763,17.0172526 19.1533203,16.4443359 C19.5328776,15.8714193 19.8515625,15.2734375 20.109375,14.6503906 C20.3671875,14.0273438 20.5641276,13.3792318 20.7001953,12.7060547 C20.836263,12.0328776 20.9042969,11.3489583 20.9042969,10.6542969 C20.9042969,9.95247396 20.836263,9.26676432 20.7001953,8.59716797 C20.5641276,7.92757161 20.3671875,7.27945964 20.109375,6.65283203 C19.8515625,6.02620443 19.5328776,5.42822266 19.1533203,4.85888672 C18.773763,4.28955078 18.3369141,3.7578125 17.8427734,3.26367188 C17.3486328,2.76953125 16.8168945,2.33268229 16.2475586,1.953125 C15.6782227,1.57356771 15.0802409,1.25309245 14.4536133,0.991699219 C13.8269857,0.73030599 13.1770833,0.533365885 12.5039062,0.400878906 C11.8307292,0.268391927 11.1468099,0.202148438 10.4521484,0.202148438 C9.75032552,0.202148438 9.06461589,0.268391927 8.39501953,0.400878906 C7.72542318,0.533365885 7.0773112,0.73030599 6.45068359,0.991699219 C5.82405599,1.25309245 5.22607422,1.57356771 4.65673828,1.953125 C4.08740234,2.33268229 3.55566406,2.76953125 3.06152344,3.26367188 C2.56738281,3.7578125 2.13053385,4.28955078 1.75097656,4.85888672 C1.37141927,5.42822266 1.05094401,6.02620443 0.789550781,6.65283203 C0.528157552,7.27945964 0.331217448,7.92757161 0.198730469,8.59716797 C0.0662434896,9.26676432 0,9.95247396 0,10.6542969 C0,11.3489583 0.0662434896,12.0328776 0.198730469,12.7060547 C0.331217448,13.3792318 0.528157552,14.0273438 0.789550781,14.6503906 C1.05094401,15.2734375 1.37141927,15.8714193 1.75097656,16.4443359 C2.13053385,17.0172526 2.56738281,17.5472005 3.06152344,18.0341797 C3.55566406,18.5283203 4.08740234,18.9669596 4.65673828,19.3500977 C5.22607422,19.7332357 5.82405599,20.0537109 6.45068359,20.3115234 C7.0773112,20.5693359 7.72542318,20.7644857 8.39501953,20.8969727 C9.06461589,21.0294596 9.75032552,21.0957031 10.4521484,21.0957031 Z M10.4521484,20 C9.16308594,20 7.95100911,19.7547201 6.81591797,19.2641602 C5.68082682,18.7736003 4.68896484,18.1057943 3.84033203,17.2607422 C2.99169922,16.4156901 2.32210286,15.4256185 1.83154297,14.2905273 C1.34098307,13.1554362 1.09570312,11.9433594 1.09570312,10.6542969 C1.09570312,9.36523438 1.34098307,8.15315755 1.83154297,7.01806641 C2.32210286,5.88297526 2.99169922,4.89111328 3.84033203,4.04248047 C4.68896484,3.19384766 5.68082682,2.5242513 6.81591797,2.03369141 C7.95100911,1.54313151 9.16308594,1.29785156 10.4521484,1.29785156 C11.7412109,1.29785156 12.9532878,1.54313151 14.0883789,2.03369141 C15.2234701,2.5242513 16.2135417,3.19384766 17.0585938,4.04248047 C17.9036458,4.89111328 18.5714518,5.88297526 19.0620117,7.01806641 C19.5525716,8.15315755 19.7978516,9.36523438 19.7978516,10.6542969 C19.7978516,11.9433594 19.5525716,13.1554362 19.0620117,14.2905273 C18.5714518,15.4256185 17.9036458,16.4156901 17.0585938,17.2607422 C16.2135417,18.1057943 15.2234701,18.7736003 14.0883789,19.2641602 C12.9532878,19.7547201 11.7412109,20 10.4521484,20 Z M7.15429688,16.7021484 C7.20442708,16.7021484 7.25455729,16.694987 7.3046875,16.6806641 C7.35481771,16.6663411 7.40136719,16.6448568 7.44433594,16.6162109 L7.44433594,16.6162109 L16.2421875,11.1162109 C16.3209635,11.0660807 16.3836263,10.9998372 16.4301758,10.9174805 C16.4767253,10.8351237 16.5,10.7473958 16.5,10.6542969 C16.5,10.5540365 16.4767253,10.4627279 16.4301758,10.3803711 C16.3836263,10.2980143 16.3209635,10.2317708 16.2421875,10.1816406 L16.2421875,10.1816406 L7.44433594,4.68164062 C7.35839844,4.63151042 7.26529948,4.60465495 7.16503906,4.60107422 C7.06477865,4.59749349 6.97167969,4.62076823 6.88574219,4.67089844 C6.79980469,4.72102865 6.72998047,4.7890625 6.67626953,4.875 C6.62255859,4.9609375 6.59570312,5.05403646 6.59570312,5.15429687 L6.59570312,5.15429687 L6.59570312,16.1542969 C6.59570312,16.2545573 6.62255859,16.3476562 6.67626953,16.4335938 C6.72998047,16.5195312 6.79980469,16.5839844 6.88574219,16.6269531 C6.92871094,16.655599 6.97167969,16.675293 7.01464844,16.6860352 C7.05761719,16.6967773 7.10416667,16.7021484 7.15429688,16.7021484 Z M7.70214844,15.1552734 L7.70214844,6.14257812 L14.9101562,10.6542969 L7.70214844,15.1552734 Z M10.4521484,21.0957031 C11.1468099,21.0957031 11.8307292,21.0294596 12.5039062,20.8969727 C13.1770833,20.7644857 13.8269857,20.5693359 14.4536133,20.3115234 C15.0802409,20.0537109 15.6782227,19.7332357 16.2475586,19.3500977 C16.8168945,18.9669596 17.3486328,18.5283203 17.8427734,18.0341797 C18.3369141,17.5472005 18.773763,17.0172526 19.1533203,16.4443359 C19.5328776,15.8714193 19.8515625,15.2734375 20.109375,14.6503906 C20.3671875,14.0273438 20.5641276,13.3792318 20.7001953,12.7060547 C20.836263,12.0328776 20.9042969,11.3489583 20.9042969,10.6542969 C20.9042969,9.95247396 20.836263,9.26676432 20.7001953,8.59716797 C20.5641276,7.92757161 20.3671875,7.27945964 20.109375,6.65283203 C19.8515625,6.02620443 19.5328776,5.42822266 19.1533203,4.85888672 C18.773763,4.28955078 18.3369141,3.7578125 17.8427734,3.26367188 C17.3486328,2.76953125 16.8168945,2.33268229 16.2475586,1.953125 C15.6782227,1.57356771 15.0802409,1.25309245 14.4536133,0.991699219 C13.8269857,0.73030599 13.1770833,0.533365885 12.5039062,0.400878906 C11.8307292,0.268391927 11.1468099,0.202148438 10.4521484,0.202148438 C9.75032552,0.202148438 9.06461589,0.268391927 8.39501953,0.400878906 C7.72542318,0.533365885 7.0773112,0.73030599 6.45068359,0.991699219 C5.82405599,1.25309245 5.22607422,1.57356771 4.65673828,1.953125 C4.08740234,2.33268229 3.55566406,2.76953125 3.06152344,3.26367188 C2.56738281,3.7578125 2.13053385,4.28955078 1.75097656,4.85888672 C1.37141927,5.42822266 1.05094401,6.02620443 0.789550781,6.65283203 C0.528157552,7.27945964 0.331217448,7.92757161 0.198730469,8.59716797 C0.0662434896,9.26676432 0,9.95247396 0,10.6542969 C0,11.3489583 0.0662434896,12.0328776 0.198730469,12.7060547 C0.331217448,13.3792318 0.528157552,14.0273438 0.789550781,14.6503906 C1.05094401,15.2734375 1.37141927,15.8714193 1.75097656,16.4443359 C2.13053385,17.0172526 2.56738281,17.5472005 3.06152344,18.0341797 C3.55566406,18.5283203 4.08740234,18.9669596 4.65673828,19.3500977 C5.22607422,19.7332357 5.82405599,20.0537109 6.45068359,20.3115234 C7.0773112,20.5693359 7.72542318,20.7644857 8.39501953,20.8969727 C9.06461589,21.0294596 9.75032552,21.0957031 10.4521484,21.0957031 Z M10.4521484,20 C9.16308594,20 7.95100911,19.7547201 6.81591797,19.2641602 C5.68082682,18.7736003 4.68896484,18.1057943 3.84033203,17.2607422 C2.99169922,16.4156901 2.32210286,15.4256185 1.83154297,14.2905273 C1.34098307,13.1554362 1.09570312,11.9433594 1.09570312,10.6542969 C1.09570312,9.36523438 1.34098307,8.15315755 1.83154297,7.01806641 C2.32210286,5.88297526 2.99169922,4.89111328 3.84033203,4.04248047 C4.68896484,3.19384766 5.68082682,2.5242513 6.81591797,2.03369141 C7.95100911,1.54313151 9.16308594,1.29785156 10.4521484,1.29785156 C11.7412109,1.29785156 12.9532878,1.54313151 14.0883789,2.03369141 C15.2234701,2.5242513 16.2135417,3.19384766 17.0585938,4.04248047 C17.9036458,4.89111328 18.5714518,5.88297526 19.0620117,7.01806641 C19.5525716,8.15315755 19.7978516,9.36523438 19.7978516,10.6542969 C19.7978516,11.9433594 19.5525716,13.1554362 19.0620117,14.2905273 C18.5714518,15.4256185 17.9036458,16.4156901 17.0585938,17.2607422 C16.2135417,18.1057943 15.2234701,18.7736003 14.0883789,19.2641602 C12.9532878,19.7547201 11.7412109,20 10.4521484,20 Z M7.15429688,16.7021484 C7.20442708,16.7021484 7.25455729,16.694987 7.3046875,16.6806641 C7.35481771,16.6663411 7.40136719,16.6448568 7.44433594,16.6162109 L7.44433594,16.6162109 L16.2421875,11.1162109 C16.3209635,11.0660807 16.3836263,10.9998372 16.4301758,10.9174805 C16.4767253,10.8351237 16.5,10.7473958 16.5,10.6542969 C16.5,10.5540365 16.4767253,10.4627279 16.4301758,10.3803711 C16.3836263,10.2980143 16.3209635,10.2317708 16.2421875,10.1816406 L16.2421875,10.1816406 L7.44433594,4.68164062 C7.35839844,4.63151042 7.26529948,4.60465495 7.16503906,4.60107422 C7.06477865,4.59749349 6.97167969,4.62076823 6.88574219,4.67089844 C6.79980469,4.72102865 6.72998047,4.7890625 6.67626953,4.875 C6.62255859,4.9609375 6.59570312,5.05403646 6.59570312,5.15429687 L6.59570312,5.15429687 L6.59570312,16.1542969 C6.59570312,16.2545573 6.62255859,16.3476562 6.67626953,16.4335938 C6.72998047,16.5195312 6.79980469,16.5839844 6.88574219,16.6269531 C6.92871094,16.655599 6.97167969,16.675293 7.01464844,16.6860352 C7.05761719,16.6967773 7.10416667,16.7021484 7.15429688,16.7021484 Z M7.70214844,15.1552734 L7.70214844,6.14257812 L14.9101562,10.6542969 L7.70214844,15.1552734 Z"/>
</svg>
