<svg width="40" height="41" viewBox="0 0 40 41" fill="none" xmlns="http://www.w3.org/2000/svg">
<path d="M24.3154 13.9932C24.3154 13.8577 24.2842 13.5296 24.2217 13.0088C24.1592 12.488 24.0029 11.9307 23.7529 11.3369C23.5863 10.9202 23.3831 10.5505 23.1436 10.2275C22.904 9.89421 22.6331 9.60775 22.3311 9.36816C22.2581 9.30566 22.18 9.24837 22.0967 9.19629C22.0133 9.13379 21.93 9.08171 21.8467 9.04004C22.1175 8.74837 22.3311 8.41504 22.4873 8.04004C22.6436 7.66504 22.7217 7.264 22.7217 6.83691C22.7217 6.39941 22.6383 5.98796 22.4717 5.60254C22.305 5.20671 22.0758 4.86816 21.7842 4.58691C21.4925 4.29525 21.1488 4.06608 20.7529 3.89941C20.3675 3.72233 19.9561 3.63379 19.5186 3.63379C19.0811 3.63379 18.6644 3.72233 18.2686 3.89941C17.8831 4.06608 17.5446 4.29525 17.2529 4.58691C16.9613 4.86816 16.7321 5.20671 16.5654 5.60254C16.3988 5.98796 16.3154 6.39941 16.3154 6.83691C16.3154 7.264 16.3936 7.66504 16.5498 8.04004C16.7061 8.41504 16.9196 8.74837 17.1904 9.04004C17.1071 9.08171 17.0238 9.13379 16.9404 9.19629C16.8571 9.24837 16.779 9.30566 16.7061 9.36816C16.404 9.60775 16.1331 9.89421 15.8936 10.2275C15.654 10.5505 15.4508 10.9202 15.2842 11.3369C15.0029 12.0036 14.8363 12.613 14.7842 13.165C14.7425 13.7171 14.7217 14.0088 14.7217 14.04C14.7217 14.2588 14.7998 14.4463 14.9561 14.6025C15.1123 14.7588 15.2998 14.8369 15.5186 14.8369H23.5186C23.7373 14.8369 23.9248 14.7588 24.0811 14.6025C24.2373 14.4463 24.3154 14.2588 24.3154 14.04C24.3154 14.0296 24.3154 14.0192 24.3154 14.0088C24.3154 13.9984 24.3154 13.9932 24.3154 13.9932ZM17.9248 6.83691C17.9248 6.39941 18.0811 6.02441 18.3936 5.71191C18.7061 5.39941 19.0811 5.24316 19.5186 5.24316C19.9561 5.24316 20.3311 5.39941 20.6436 5.71191C20.9561 6.02441 21.1123 6.39941 21.1123 6.83691C21.1123 7.28483 20.9561 7.66504 20.6436 7.97754C20.3311 8.29004 19.9561 8.44629 19.5186 8.44629C19.0811 8.44629 18.7061 8.29004 18.3936 7.97754C18.0811 7.66504 17.9248 7.28483 17.9248 6.83691ZM16.3936 13.2432C16.4248 13.0557 16.4665 12.8525 16.5186 12.6338C16.5811 12.4046 16.6592 12.1755 16.7529 11.9463C17.0238 11.3005 17.3831 10.8213 17.8311 10.5088C18.2894 10.1963 18.8519 10.04 19.5186 10.04C20.0915 10.04 20.5654 10.1546 20.9404 10.3838C21.3258 10.6025 21.6331 10.8786 21.8623 11.2119C22.1019 11.5348 22.279 11.8838 22.3936 12.2588C22.5186 12.6234 22.6019 12.9515 22.6436 13.2432H16.3936ZM13.1123 31.5869C13.1123 31.4515 13.0811 31.1286 13.0186 30.6182C12.9561 30.0973 12.7998 29.5348 12.5498 28.9307C12.3831 28.5244 12.18 28.1546 11.9404 27.8213C11.7008 27.488 11.43 27.2015 11.1279 26.9619C11.055 26.8994 10.9769 26.8421 10.8936 26.79C10.8102 26.738 10.7269 26.6859 10.6436 26.6338C10.9144 26.3421 11.1279 26.0088 11.2842 25.6338C11.4404 25.2588 11.5186 24.863 11.5186 24.4463C11.5186 23.9984 11.4352 23.5817 11.2686 23.1963C11.1019 22.8109 10.8727 22.4723 10.5811 22.1807C10.2894 21.889 9.95085 21.6598 9.56543 21.4932C9.18001 21.3265 8.76335 21.2432 8.31543 21.2432C7.87793 21.2432 7.46126 21.3265 7.06543 21.4932C6.68001 21.6598 6.34147 21.889 6.0498 22.1807C5.76855 22.4723 5.53939 22.8109 5.3623 23.1963C5.19564 23.5817 5.1123 23.9984 5.1123 24.4463C5.1123 24.863 5.19043 25.2588 5.34668 25.6338C5.50293 26.0088 5.71647 26.3421 5.9873 26.6338C5.90397 26.6859 5.82064 26.738 5.7373 26.79C5.66439 26.8421 5.58626 26.8994 5.50293 26.9619C5.20085 27.2015 4.93001 27.488 4.69043 27.8213C4.45085 28.1546 4.24772 28.5244 4.08105 28.9307C3.7998 29.5973 3.63314 30.2119 3.58105 30.7744C3.53939 31.3265 3.51855 31.613 3.51855 31.6338C3.51855 31.863 3.59668 32.0557 3.75293 32.2119C3.90918 32.3682 4.09668 32.4463 4.31543 32.4463H12.3154C12.5342 32.4463 12.7217 32.3682 12.8779 32.2119C13.0342 32.0557 13.1123 31.863 13.1123 31.6338C13.1123 31.6338 13.1123 31.6286 13.1123 31.6182C13.1123 31.6077 13.1123 31.5973 13.1123 31.5869ZM6.72168 24.4463C6.72168 23.9984 6.87793 23.6182 7.19043 23.3057C7.50293 22.9932 7.87793 22.8369 8.31543 22.8369C8.76335 22.8369 9.14355 22.9932 9.45605 23.3057C9.76855 23.6182 9.9248 23.9984 9.9248 24.4463C9.9248 24.8838 9.76855 25.2588 9.45605 25.5713C9.14355 25.8838 8.76335 26.04 8.31543 26.04C7.87793 26.04 7.50293 25.8838 7.19043 25.5713C6.87793 25.2588 6.72168 24.8838 6.72168 24.4463ZM5.20605 30.8369C5.22689 30.6494 5.26335 30.4463 5.31543 30.2275C5.37793 29.9984 5.45605 29.7692 5.5498 29.54C5.82064 28.9046 6.18522 28.4307 6.64355 28.1182C7.10189 27.7952 7.65918 27.6338 8.31543 27.6338C8.88835 27.6338 9.3623 27.7484 9.7373 27.9775C10.1227 28.1963 10.43 28.4723 10.6592 28.8057C10.8988 29.1286 11.0758 29.4775 11.1904 29.8525C11.3154 30.2171 11.3988 30.5452 11.4404 30.8369H5.20605ZM35.5186 31.5869C35.5186 31.4515 35.4873 31.1286 35.4248 30.6182C35.3623 30.0973 35.2061 29.5348 34.9561 28.9307C34.7894 28.5244 34.5863 28.1546 34.3467 27.8213C34.1071 27.488 33.8363 27.2015 33.5342 26.9619C33.4508 26.8994 33.3675 26.8421 33.2842 26.79C33.2113 26.738 33.1331 26.6859 33.0498 26.6338C33.3206 26.3421 33.5342 26.0088 33.6904 25.6338C33.8467 25.2588 33.9248 24.863 33.9248 24.4463C33.9248 23.9984 33.8363 23.5817 33.6592 23.1963C33.4925 22.8109 33.2633 22.4723 32.9717 22.1807C32.6904 21.889 32.3519 21.6598 31.9561 21.4932C31.5706 21.3265 31.1592 21.2432 30.7217 21.2432C30.2738 21.2432 29.8571 21.3265 29.4717 21.4932C29.0863 21.6598 28.7477 21.889 28.4561 22.1807C28.1644 22.4723 27.9352 22.8109 27.7686 23.1963C27.6019 23.5817 27.5186 23.9984 27.5186 24.4463C27.5186 24.863 27.5967 25.2588 27.7529 25.6338C27.9092 26.0088 28.1227 26.3421 28.3936 26.6338C28.3102 26.6859 28.2269 26.738 28.1436 26.79C28.0602 26.8421 27.9821 26.8994 27.9092 26.9619C27.6071 27.2015 27.3363 27.488 27.0967 27.8213C26.8571 28.1546 26.654 28.5244 26.4873 28.9307C26.2061 29.5973 26.0394 30.2119 25.9873 30.7744C25.9456 31.3265 25.9248 31.613 25.9248 31.6338C25.9248 31.863 26.0029 32.0557 26.1592 32.2119C26.3154 32.3682 26.5029 32.4463 26.7217 32.4463H34.7217C34.9404 32.4463 35.1279 32.3682 35.2842 32.2119C35.4404 32.0557 35.5186 31.863 35.5186 31.6338C35.5186 31.6338 35.5186 31.6286 35.5186 31.6182C35.5186 31.6077 35.5186 31.5973 35.5186 31.5869ZM29.1123 24.4463C29.1123 23.9984 29.2686 23.6182 29.5811 23.3057C29.8936 22.9932 30.2738 22.8369 30.7217 22.8369C31.1592 22.8369 31.5342 22.9932 31.8467 23.3057C32.1592 23.6182 32.3154 23.9984 32.3154 24.4463C32.3154 24.8838 32.1592 25.2588 31.8467 25.5713C31.5342 25.8838 31.1592 26.04 30.7217 26.04C30.2738 26.04 29.8936 25.8838 29.5811 25.5713C29.2686 25.2588 29.1123 24.8838 29.1123 24.4463ZM27.5967 30.8369C27.6279 30.6494 27.6696 30.4463 27.7217 30.2275C27.7842 29.9984 27.8623 29.7692 27.9561 29.54C28.2269 28.9046 28.5863 28.4307 29.0342 28.1182C29.4925 27.7952 30.055 27.6338 30.7217 27.6338C31.2946 27.6338 31.7686 27.7484 32.1436 27.9775C32.529 28.1963 32.8363 28.4723 33.0654 28.8057C33.305 29.1286 33.4821 29.4775 33.5967 29.8525C33.7113 30.2171 33.7946 30.5452 33.8467 30.8369H27.5967ZM19.5186 35.6338C18.9977 35.6338 18.4769 35.6025 17.9561 35.54C17.4456 35.4775 16.9404 35.3838 16.4404 35.2588C15.9404 35.1338 15.4456 34.9775 14.9561 34.79C14.4769 34.613 14.0081 34.4046 13.5498 34.165C13.3519 34.0609 13.2165 33.9046 13.1436 33.6963C13.0811 33.4775 13.1019 33.2744 13.2061 33.0869C13.3102 32.889 13.4665 32.7588 13.6748 32.6963C13.8936 32.6234 14.1019 32.639 14.2998 32.7432C14.6956 32.9619 15.1019 33.1546 15.5186 33.3213C15.9456 33.4775 16.3779 33.6077 16.8154 33.7119C17.2633 33.8161 17.7113 33.8994 18.1592 33.9619C18.6071 34.014 19.0602 34.04 19.5186 34.04C19.9769 34.04 20.43 34.014 20.8779 33.9619C21.3258 33.8994 21.7686 33.8161 22.2061 33.7119C22.654 33.6077 23.0863 33.4775 23.5029 33.3213C23.93 33.1546 24.3415 32.9619 24.7373 32.7432C24.9352 32.639 25.1383 32.6234 25.3467 32.6963C25.5654 32.7588 25.7269 32.889 25.8311 33.0869C25.9352 33.2744 25.9508 33.4775 25.8779 33.6963C25.8154 33.9046 25.6852 34.0609 25.4873 34.165C25.029 34.4046 24.555 34.613 24.0654 34.79C23.5863 34.9775 23.0967 35.1338 22.5967 35.2588C22.0967 35.3838 21.5863 35.4775 21.0654 35.54C20.555 35.6025 20.0394 35.6338 19.5186 35.6338ZM31.0811 20.4463C30.9144 20.4463 30.7581 20.3942 30.6123 20.29C30.4665 20.1755 30.3675 20.0296 30.3154 19.8525C30.1279 19.1859 29.8831 18.5452 29.5811 17.9307C29.279 17.3057 28.9196 16.7171 28.5029 16.165C28.0967 15.613 27.6383 15.1025 27.1279 14.6338C26.6279 14.165 26.0811 13.7432 25.4873 13.3682C25.2998 13.2432 25.18 13.0765 25.1279 12.8682C25.0863 12.6494 25.1227 12.4463 25.2373 12.2588C25.3623 12.0713 25.529 11.9567 25.7373 11.915C25.9561 11.863 26.1592 11.8942 26.3467 12.0088C27.0238 12.4359 27.6488 12.9202 28.2217 13.4619C28.805 13.9932 29.3311 14.5765 29.7998 15.2119C30.2686 15.8369 30.6748 16.5036 31.0186 17.2119C31.3623 17.9202 31.6436 18.6598 31.8623 19.4307C31.9144 19.639 31.8831 19.8421 31.7686 20.04C31.6644 20.2275 31.5081 20.3525 31.2998 20.415C31.2686 20.4255 31.2321 20.4359 31.1904 20.4463C31.1592 20.4463 31.1227 20.4463 31.0811 20.4463ZM7.95605 20.4463C7.91439 20.4463 7.87272 20.4463 7.83105 20.4463C7.7998 20.4359 7.76855 20.4255 7.7373 20.415C7.52897 20.3525 7.36751 20.2275 7.25293 20.04C7.14876 19.8421 7.12272 19.639 7.1748 19.4307C7.39355 18.6598 7.6748 17.9202 8.01855 17.2119C8.3623 16.5036 8.76855 15.8369 9.2373 15.2119C9.70605 14.5765 10.2269 13.9932 10.7998 13.4619C11.3831 12.9202 12.0133 12.4359 12.6904 12.0088C12.8779 11.8942 13.0758 11.863 13.2842 11.915C13.5029 11.9567 13.6748 12.0713 13.7998 12.2588C13.9144 12.4463 13.9456 12.6494 13.8936 12.8682C13.8519 13.0765 13.7373 13.2432 13.5498 13.3682C12.9561 13.7432 12.404 14.165 11.8936 14.6338C11.3936 15.1025 10.9352 15.613 10.5186 16.165C10.1123 16.7171 9.75814 17.3057 9.45605 17.9307C9.15397 18.5452 8.90918 19.1859 8.72168 19.8525C8.6696 20.0296 8.57064 20.1755 8.4248 20.29C8.27897 20.3942 8.12272 20.4463 7.95605 20.4463Z" fill="#1B127D"/>
</svg>
