<svg width="40" height="41" viewBox="0 0 40 41" fill="none" xmlns="http://www.w3.org/2000/svg">
<path d="M34.7227 10.04H12.3164C12.0977 10.04 11.9102 9.96191 11.7539 9.80566C11.5977 9.64941 11.5195 9.46191 11.5195 9.24316C11.5195 9.02441 11.5977 8.83691 11.7539 8.68066C11.9102 8.52441 12.0977 8.44629 12.3164 8.44629H34.7227C34.9414 8.44629 35.1289 8.52441 35.2852 8.68066C35.4414 8.83691 35.5195 9.02441 35.5195 9.24316C35.5195 9.46191 35.4414 9.64941 35.2852 9.80566C35.1289 9.96191 34.9414 10.04 34.7227 10.04ZM34.7227 21.2432H12.3164C12.0977 21.2432 11.9102 21.165 11.7539 21.0088C11.5977 20.8525 11.5195 20.665 11.5195 20.4463C11.5195 20.2171 11.5977 20.0244 11.7539 19.8682C11.9102 19.7119 12.0977 19.6338 12.3164 19.6338H34.7227C34.9414 19.6338 35.1289 19.7119 35.2852 19.8682C35.4414 20.0244 35.5195 20.2171 35.5195 20.4463C35.5195 20.665 35.4414 20.8525 35.2852 21.0088C35.1289 21.165 34.9414 21.2432 34.7227 21.2432ZM34.7227 32.4463H12.3164C12.0977 32.4463 11.9102 32.3682 11.7539 32.2119C11.5977 32.0557 11.5195 31.863 11.5195 31.6338C11.5195 31.415 11.5977 31.2275 11.7539 31.0713C11.9102 30.915 12.0977 30.8369 12.3164 30.8369H34.7227C34.9414 30.8369 35.1289 30.915 35.2852 31.0713C35.4414 31.2275 35.5195 31.415 35.5195 31.6338C35.5195 31.863 35.4414 32.0557 35.2852 32.2119C35.1289 32.3682 34.9414 32.4463 34.7227 32.4463ZM5.92578 13.2432C5.69661 13.2432 5.50391 13.165 5.34766 13.0088C5.19141 12.8525 5.11328 12.665 5.11328 12.4463V6.83691H4.31641C4.09766 6.83691 3.91016 6.75879 3.75391 6.60254C3.59766 6.44629 3.51953 6.25879 3.51953 6.04004C3.51953 5.82129 3.59766 5.63379 3.75391 5.47754C3.91016 5.32129 4.09766 5.24316 4.31641 5.24316H5.92578C6.14453 5.24316 6.33203 5.32129 6.48828 5.47754C6.64453 5.63379 6.72266 5.82129 6.72266 6.04004V12.4463C6.72266 12.665 6.64453 12.8525 6.48828 13.0088C6.33203 13.165 6.14453 13.2432 5.92578 13.2432ZM7.51953 24.4463H4.31641C4.09766 24.4463 3.91016 24.3682 3.75391 24.2119C3.59766 24.0557 3.51953 23.863 3.51953 23.6338V20.4463C3.51953 20.2171 3.59766 20.0244 3.75391 19.8682C3.91016 19.7119 4.09766 19.6338 4.31641 19.6338H6.72266V18.04H4.31641C4.09766 18.04 3.91016 17.9619 3.75391 17.8057C3.59766 17.6494 3.51953 17.4619 3.51953 17.2432C3.51953 17.0244 3.59766 16.8369 3.75391 16.6807C3.91016 16.5244 4.09766 16.4463 4.31641 16.4463H7.51953C7.73828 16.4463 7.92578 16.5244 8.08203 16.6807C8.23828 16.8369 8.31641 17.0244 8.31641 17.2432V20.4463C8.31641 20.665 8.23828 20.8525 8.08203 21.0088C7.92578 21.165 7.73828 21.2432 7.51953 21.2432H5.11328V22.8369H7.51953C7.73828 22.8369 7.92578 22.915 8.08203 23.0713C8.23828 23.2275 8.31641 23.415 8.31641 23.6338C8.31641 23.863 8.23828 24.0557 8.08203 24.2119C7.92578 24.3682 7.73828 24.4463 7.51953 24.4463ZM7.51953 27.6338H4.31641C4.09766 27.6338 3.91016 27.7119 3.75391 27.8682C3.59766 28.0244 3.51953 28.2171 3.51953 28.4463C3.51953 28.665 3.59766 28.8525 3.75391 29.0088C3.91016 29.165 4.09766 29.2432 4.31641 29.2432H6.72266V30.8369H4.31641C4.09766 30.8369 3.91016 30.915 3.75391 31.0713C3.59766 31.2275 3.51953 31.415 3.51953 31.6338C3.51953 31.863 3.59766 32.0557 3.75391 32.2119C3.91016 32.3682 4.09766 32.4463 4.31641 32.4463H6.72266V34.04H4.31641C4.09766 34.04 3.91016 34.1182 3.75391 34.2744C3.59766 34.4307 3.51953 34.6182 3.51953 34.8369C3.51953 35.0557 3.59766 35.2432 3.75391 35.3994C3.91016 35.5557 4.09766 35.6338 4.31641 35.6338H7.51953C7.73828 35.6338 7.92578 35.5557 8.08203 35.3994C8.23828 35.2432 8.31641 35.0557 8.31641 34.8369V28.4463C8.31641 28.2171 8.23828 28.0244 8.08203 27.8682C7.92578 27.7119 7.73828 27.6338 7.51953 27.6338Z" fill="#1B127D"/>
</svg>
