<svg width="40" height="41" viewBox="0 0 40 41" fill="none" xmlns="http://www.w3.org/2000/svg">
<path d="M34.2812 29.4932C34 29.1911 33.6823 28.9098 33.3281 28.6494C32.9844 28.3786 32.6094 28.1286 32.2031 27.8994C31.9635 27.4202 31.5885 26.8838 31.0781 26.29C30.5677 25.6963 29.849 25.1494 28.9219 24.6494C28.5365 24.4411 28.1302 24.2536 27.7031 24.0869C27.276 23.9098 26.8229 23.7536 26.3438 23.6182C26.8333 23.3369 27.276 23.0036 27.6719 22.6182C28.0677 22.2223 28.4062 21.7848 28.6875 21.3057C28.9792 20.8265 29.2031 20.3109 29.3594 19.7588C29.5156 19.2067 29.5938 18.6338 29.5938 18.04C29.5938 17.3942 29.5 16.7744 29.3125 16.1807C29.1354 15.5869 28.8802 15.04 28.5469 14.54C28.2135 14.0296 27.8177 13.5765 27.3594 13.1807C26.901 12.7848 26.3906 12.4619 25.8281 12.2119C25.599 11.6807 25.2969 11.1963 24.9219 10.7588C24.5573 10.3109 24.1354 9.92025 23.6562 9.58691C23.4896 9.47233 23.3229 9.36816 23.1562 9.27441C22.9896 9.18066 22.8177 9.09212 22.6406 9.00879C22.401 8.47754 22.0938 7.99316 21.7188 7.55566C21.3542 7.10775 20.9323 6.71712 20.4531 6.38379C19.9219 6.00879 19.3438 5.72754 18.7188 5.54004C18.0938 5.34212 17.4531 5.24316 16.7969 5.24316C15.9219 5.24316 15.0938 5.40983 14.3125 5.74316C13.5312 6.0765 12.849 6.53483 12.2656 7.11816C11.6927 7.7015 11.2396 8.38379 10.9062 9.16504C10.5729 9.93587 10.4062 10.7588 10.4062 11.6338C10.4062 12.3005 10.5 12.9463 10.6875 13.5713C10.8854 14.1859 11.1719 14.7588 11.5469 15.29C11.8802 15.7692 12.2656 16.1963 12.7031 16.5713C13.151 16.9359 13.6406 17.238 14.1719 17.4775C14.2448 17.6546 14.3281 17.8317 14.4219 18.0088C14.526 18.1755 14.6354 18.3369 14.75 18.4932C14.8958 18.7119 15.0573 18.9202 15.2344 19.1182C15.4115 19.3057 15.5938 19.4827 15.7812 19.6494C15.1875 19.6702 14.6094 19.7067 14.0469 19.7588C13.4844 19.8109 12.9427 19.8838 12.4219 19.9775C11.9115 20.0609 11.4167 20.165 10.9375 20.29C10.4688 20.4046 10.0208 20.5348 9.59375 20.6807C8.79167 20.9723 8.0625 21.3213 7.40625 21.7275C6.76042 22.1234 6.19792 22.5765 5.71875 23.0869C4.86458 23.9932 4.36458 24.8369 4.21875 25.6182C4.07292 26.389 4 26.7952 4 26.8369C4 27.5036 4.23438 28.0713 4.70312 28.54C5.17188 29.0088 5.73958 29.2432 6.40625 29.2432H7.3125C7.26042 29.4723 7.22917 29.6598 7.21875 29.8057C7.20833 29.9515 7.20312 30.0296 7.20312 30.04C7.20312 30.7067 7.4375 31.2744 7.90625 31.7432C8.375 32.2119 8.9375 32.4463 9.59375 32.4463H10.5156C10.4635 32.6755 10.4323 32.863 10.4219 33.0088C10.4115 33.1442 10.4062 33.2223 10.4062 33.2432C10.4062 33.8994 10.6406 34.4619 11.1094 34.9307C11.5781 35.3994 12.1406 35.6338 12.7969 35.6338H33.5938C34.2604 35.6338 34.8281 35.3994 35.2969 34.9307C35.7656 34.4619 36 33.8994 36 33.2432C36 33.2015 35.9271 32.7952 35.7812 32.0244C35.6354 31.2432 35.1354 30.3994 34.2812 29.4932ZM28 18.04C28 18.7067 27.875 19.3317 27.625 19.915C27.375 20.488 27.0312 20.9932 26.5938 21.4307C26.1562 21.8682 25.6458 22.2119 25.0625 22.4619C24.4792 22.7119 23.8594 22.8369 23.2031 22.8369C22.5365 22.8369 21.9115 22.7119 21.3281 22.4619C20.7448 22.2119 20.2344 21.8682 19.7969 21.4307C19.3698 20.9932 19.0312 20.488 18.7812 19.915C18.5312 19.3317 18.4062 18.7067 18.4062 18.04C18.4062 17.3734 18.5312 16.7536 18.7812 16.1807C19.0312 15.5973 19.3698 15.0869 19.7969 14.6494C20.2344 14.2119 20.7448 13.8682 21.3281 13.6182C21.9115 13.3682 22.5365 13.2432 23.2031 13.2432C23.8594 13.2432 24.4792 13.3682 25.0625 13.6182C25.6458 13.8682 26.1562 14.2119 26.5938 14.6494C27.0312 15.0869 27.375 15.5973 27.625 16.1807C27.875 16.7536 28 17.3734 28 18.04ZM12 11.6338C12 10.9775 12.125 10.3577 12.375 9.77441C12.625 9.19108 12.9688 8.68587 13.4062 8.25879C13.8438 7.82129 14.3542 7.47754 14.9375 7.22754C15.5208 6.96712 16.1406 6.83691 16.7969 6.83691C17.4948 6.83691 18.151 6.98275 18.7656 7.27441C19.3906 7.55566 19.9323 7.94629 20.3906 8.44629C20.3177 8.44629 20.25 8.44629 20.1875 8.44629C20.125 8.44629 20.0625 8.44629 20 8.44629C19.1146 8.44629 18.2812 8.61296 17.5 8.94629C16.7292 9.27962 16.0521 9.73796 15.4688 10.3213C14.8958 10.8942 14.4375 11.5713 14.0938 12.3525C13.7604 13.1338 13.5938 13.9619 13.5938 14.8369C13.5938 14.8994 13.5938 14.9671 13.5938 15.04C13.6042 15.1025 13.6094 15.165 13.6094 15.2275C13.1094 14.7796 12.7135 14.2432 12.4219 13.6182C12.1406 12.9932 12 12.3317 12 11.6338ZM15.2031 14.8369C15.2031 14.1807 15.3281 13.5609 15.5781 12.9775C15.8281 12.3942 16.1719 11.8838 16.6094 11.4463C17.0469 11.0088 17.5521 10.665 18.125 10.415C18.7083 10.165 19.3333 10.04 20 10.04C20.6875 10.04 21.3438 10.1859 21.9688 10.4775C22.5938 10.7588 23.1302 11.1494 23.5781 11.6494C23.5156 11.6494 23.4531 11.6494 23.3906 11.6494C23.3281 11.639 23.2656 11.6338 23.2031 11.6338C22.3177 11.6338 21.4844 11.8057 20.7031 12.1494C19.9323 12.4827 19.2552 12.9411 18.6719 13.5244C18.099 14.0973 17.6406 14.7744 17.2969 15.5557C16.9635 16.3265 16.7969 17.1546 16.7969 18.04C16.7969 18.1025 16.7969 18.165 16.7969 18.2275C16.8073 18.29 16.8125 18.3525 16.8125 18.415C16.3125 17.9671 15.9167 17.4359 15.625 16.8213C15.3438 16.1963 15.2031 15.5348 15.2031 14.8369ZM6.40625 27.6338C6.1875 27.6338 6 27.5609 5.84375 27.415C5.6875 27.2588 5.60417 27.0713 5.59375 26.8525C5.60417 26.8005 5.67188 26.4984 5.79688 25.9463C5.92188 25.3838 6.3125 24.7692 6.96875 24.1025C7.29167 23.7692 7.70833 23.4359 8.21875 23.1025C8.73958 22.7588 9.39062 22.4515 10.1719 22.1807C10.9635 21.9098 11.901 21.6859 12.9844 21.5088C14.0781 21.3317 15.349 21.2432 16.7969 21.2432C16.9427 21.2432 17.0885 21.2432 17.2344 21.2432C17.3802 21.2432 17.526 21.2484 17.6719 21.2588C17.849 21.5609 18.0469 21.8473 18.2656 22.1182C18.4844 22.3786 18.724 22.6234 18.9844 22.8525C18.3906 22.8734 17.8125 22.9098 17.25 22.9619C16.6875 23.014 16.1458 23.0869 15.625 23.1807C15.1146 23.264 14.6198 23.3682 14.1406 23.4932C13.6719 23.6077 13.224 23.738 12.7969 23.8838C11.9844 24.1755 11.2552 24.5244 10.6094 24.9307C9.96354 25.3265 9.40104 25.7796 8.92188 26.29C8.70312 26.5192 8.51042 26.7484 8.34375 26.9775C8.1875 27.2067 8.04688 27.4255 7.92188 27.6338H6.40625ZM9.59375 30.8369C9.375 30.8369 9.1875 30.7588 9.03125 30.6025C8.875 30.4463 8.79688 30.2588 8.79688 30.04C8.79688 29.9984 8.85938 29.7015 8.98438 29.1494C9.11979 28.5869 9.51562 27.9723 10.1719 27.3057C10.4844 26.9723 10.901 26.639 11.4219 26.3057C11.9427 25.9619 12.5938 25.6546 13.375 25.3838C14.1667 25.1025 15.1042 24.8786 16.1875 24.7119C17.2708 24.5348 18.5417 24.4463 20 24.4463C21.2188 24.4463 22.3073 24.5088 23.2656 24.6338C24.224 24.7484 25.0729 24.9098 25.8125 25.1182C26.5625 25.3265 27.2083 25.5713 27.75 25.8525C28.3021 26.1234 28.7708 26.4098 29.1562 26.7119C28.7292 26.5973 28.2812 26.4984 27.8125 26.415C27.3542 26.3317 26.875 26.264 26.375 26.2119C25.8854 26.1494 25.375 26.1077 24.8438 26.0869C24.3125 26.0557 23.7656 26.04 23.2031 26.04C22.4948 26.04 21.8125 26.0609 21.1562 26.1025C20.5 26.1442 19.8698 26.2119 19.2656 26.3057C18.6615 26.389 18.0885 26.4984 17.5469 26.6338C17.0052 26.7588 16.4896 26.9098 16 27.0869C15.1875 27.3786 14.4531 27.7275 13.7969 28.1338C13.151 28.5296 12.5885 28.9827 12.1094 29.4932C11.901 29.7223 11.7135 29.9515 11.5469 30.1807C11.3906 30.3994 11.25 30.6182 11.125 30.8369H9.59375ZM33.5938 34.04H12.7969C12.5781 34.04 12.3906 33.9619 12.2344 33.8057C12.0781 33.6494 12 33.4619 12 33.2432C12 33.2015 12.0625 32.9046 12.1875 32.3525C12.3229 31.79 12.7188 31.1702 13.375 30.4932C13.6875 30.1702 14.1042 29.8421 14.625 29.5088C15.1458 29.165 15.7969 28.8577 16.5781 28.5869C17.3698 28.3057 18.3073 28.0765 19.3906 27.8994C20.474 27.7223 21.7448 27.6338 23.2031 27.6338C24.651 27.6338 25.9167 27.7223 27 27.8994C28.0938 28.0765 29.0312 28.3057 29.8125 28.5869C30.6042 28.8577 31.2552 29.165 31.7656 29.5088C32.2865 29.8421 32.7083 30.1702 33.0312 30.4932C33.6875 31.1702 34.0781 31.79 34.2031 32.3525C34.3281 32.9046 34.3958 33.2015 34.4062 33.2432C34.3958 33.4619 34.3125 33.6494 34.1562 33.8057C34 33.9619 33.8125 34.04 33.5938 34.04Z" fill="#1B127D"/>
</svg>
