<svg width="40" height="41" viewBox="0 0 40 41" fill="none" xmlns="http://www.w3.org/2000/svg">
<path d="M9.1123 35.6338H4.31543C4.09668 35.6338 3.90918 35.5557 3.75293 35.3994C3.59668 35.2432 3.51855 35.0557 3.51855 34.8369V23.6338C3.51855 23.415 3.59668 23.2275 3.75293 23.0713C3.90918 22.915 4.09668 22.8369 4.31543 22.8369H9.1123C9.34147 22.8369 9.53418 22.915 9.69043 23.0713C9.84668 23.2275 9.9248 23.415 9.9248 23.6338V34.8369C9.9248 35.0557 9.84668 35.2432 9.69043 35.3994C9.53418 35.5557 9.34147 35.6338 9.1123 35.6338ZM5.1123 34.04H8.31543V24.4463H5.1123V34.04ZM17.1123 35.6338H12.3154C12.0967 35.6338 11.9092 35.5557 11.7529 35.3994C11.5967 35.2432 11.5186 35.0557 11.5186 34.8369V18.8369C11.5186 18.6182 11.5967 18.4307 11.7529 18.2744C11.9092 18.1182 12.0967 18.04 12.3154 18.04H17.1123C17.3415 18.04 17.5342 18.1182 17.6904 18.2744C17.8467 18.4307 17.9248 18.6182 17.9248 18.8369V34.8369C17.9248 35.0557 17.8467 35.2432 17.6904 35.3994C17.5342 35.5557 17.3415 35.6338 17.1123 35.6338ZM13.1123 34.04H16.3154V19.6338H13.1123V34.04ZM25.1123 35.6338H20.3154C20.0967 35.6338 19.9092 35.5557 19.7529 35.3994C19.5967 35.2432 19.5186 35.0557 19.5186 34.8369V20.4463C19.5186 20.2171 19.5967 20.0244 19.7529 19.8682C19.9092 19.7119 20.0967 19.6338 20.3154 19.6338H25.1123C25.3415 19.6338 25.5342 19.7119 25.6904 19.8682C25.8467 20.0244 25.9248 20.2171 25.9248 20.4463V34.8369C25.9248 35.0557 25.8467 35.2432 25.6904 35.3994C25.5342 35.5557 25.3415 35.6338 25.1123 35.6338ZM21.1123 34.04H24.3154V21.2432H21.1123V34.04ZM33.1123 35.6338H28.3154C28.0967 35.6338 27.9092 35.5557 27.7529 35.3994C27.5967 35.2432 27.5186 35.0557 27.5186 34.8369V14.04C27.5186 13.8213 27.5967 13.6338 27.7529 13.4775C27.9092 13.3213 28.0967 13.2432 28.3154 13.2432H33.1123C33.3415 13.2432 33.5342 13.3213 33.6904 13.4775C33.8467 13.6338 33.9248 13.8213 33.9248 14.04V34.8369C33.9248 35.0557 33.8467 35.2432 33.6904 35.3994C33.5342 35.5557 33.3415 35.6338 33.1123 35.6338ZM29.1123 34.04H32.3154V14.8369H29.1123V34.04ZM32.0811 5.47754C31.9769 5.37337 31.8519 5.30566 31.7061 5.27441C31.5602 5.23275 31.4144 5.23275 31.2686 5.27441L26.4717 6.88379C26.2529 6.95671 26.0967 7.09212 26.0029 7.29004C25.9092 7.47754 25.8936 7.68066 25.9561 7.89941C26.029 8.10775 26.1644 8.264 26.3623 8.36816C26.5602 8.46191 26.7633 8.47233 26.9717 8.39941L28.5498 7.86816L21.6904 14.7432C21.5133 14.9098 21.2894 15.0036 21.0186 15.0244C20.7477 15.0452 20.5133 14.9827 20.3154 14.8369L16.4717 11.9619C15.9717 11.5869 15.3831 11.4098 14.7061 11.4307C14.0394 11.4411 13.4613 11.6442 12.9717 12.04L5.40918 18.2275C5.24251 18.363 5.14876 18.54 5.12793 18.7588C5.1071 18.9775 5.16439 19.1755 5.2998 19.3525C5.38314 19.4463 5.47689 19.5192 5.58105 19.5713C5.69564 19.613 5.81022 19.6338 5.9248 19.6338C6.00814 19.6338 6.09147 19.6234 6.1748 19.6025C6.26855 19.5713 6.35189 19.5244 6.4248 19.4619L13.9873 13.2744C14.1852 13.1077 14.4352 13.0244 14.7373 13.0244C15.0498 13.014 15.3102 13.0869 15.5186 13.2432L19.3623 16.1182C19.8727 16.5036 20.4613 16.6755 21.1279 16.6338C21.7946 16.5817 22.3571 16.3265 22.8154 15.8682L29.6904 9.00879L29.1592 10.5869C29.0863 10.7952 29.0967 10.9984 29.1904 11.1963C29.2946 11.3942 29.4508 11.5296 29.6592 11.6025C29.7008 11.613 29.7425 11.6234 29.7842 11.6338C29.8363 11.6338 29.8831 11.6338 29.9248 11.6338C30.0915 11.6338 30.2425 11.5869 30.3779 11.4932C30.5238 11.389 30.6227 11.2536 30.6748 11.0869L32.2842 6.29004C32.3258 6.14421 32.3258 5.99837 32.2842 5.85254C32.2529 5.70671 32.1852 5.58171 32.0811 5.47754Z" fill="#1B127D"/>
</svg>
