<svg width="40" height="41" viewBox="0 0 40 41" fill="none" xmlns="http://www.w3.org/2000/svg">
<path d="M28.3154 34.04C28.2529 34.04 28.1852 34.0348 28.1123 34.0244C28.0498 34.0036 27.9925 33.9775 27.9404 33.9463L19.5186 29.3525L11.0967 33.9463C10.9613 34.0192 10.8154 34.0505 10.6592 34.04C10.5133 34.0296 10.3779 33.9827 10.2529 33.8994C10.1279 33.8057 10.0342 33.6911 9.97168 33.5557C9.9196 33.4098 9.90397 33.2588 9.9248 33.1025L11.4561 23.915L5.34668 17.8057C5.24251 17.7015 5.1696 17.5765 5.12793 17.4307C5.09668 17.2848 5.1071 17.139 5.15918 16.9932C5.20085 16.8473 5.27897 16.7275 5.39355 16.6338C5.50814 16.54 5.63835 16.4775 5.78418 16.4463L14.9873 14.915L18.7998 7.29004C18.8727 7.14421 18.9717 7.03483 19.0967 6.96191C19.2217 6.87858 19.3623 6.83691 19.5186 6.83691C19.6748 6.83691 19.8154 6.87858 19.9404 6.96191C20.0654 7.03483 20.1644 7.14421 20.2373 7.29004L24.0498 14.915L33.2529 16.4463C33.3988 16.4775 33.529 16.54 33.6436 16.6338C33.7581 16.7275 33.8363 16.8473 33.8779 16.9932C33.93 17.139 33.9352 17.2848 33.8936 17.4307C33.8623 17.5765 33.7946 17.7015 33.6904 17.8057L27.5811 23.915L29.1123 33.1025C29.1331 33.2588 29.1123 33.4098 29.0498 33.5557C28.9977 33.6911 28.9092 33.8057 28.7842 33.8994C28.7113 33.9411 28.6331 33.9775 28.5498 34.0088C28.4769 34.0296 28.3988 34.04 28.3154 34.04ZM19.5186 27.6338C19.5811 27.6338 19.6436 27.6442 19.7061 27.665C19.779 27.6859 19.8467 27.7119 19.9092 27.7432L27.2529 31.7588L25.9248 23.7744C25.904 23.6494 25.9144 23.5244 25.9561 23.3994C25.9977 23.2744 26.0654 23.165 26.1592 23.0713L31.4561 17.7744L23.3936 16.4307C23.2581 16.4098 23.1383 16.363 23.0342 16.29C22.9404 16.2067 22.8623 16.1077 22.7998 15.9932L19.5186 9.43066L16.2373 15.9932C16.1748 16.1077 16.0915 16.2067 15.9873 16.29C15.8936 16.363 15.779 16.4098 15.6436 16.4307L7.58105 17.7744L12.8779 23.0713C12.9717 23.165 13.0394 23.2744 13.0811 23.3994C13.1227 23.5244 13.1331 23.6494 13.1123 23.7744L11.7842 31.7588L19.1279 27.7432C19.1904 27.7119 19.2529 27.6859 19.3154 27.665C19.3883 27.6442 19.4561 27.6338 19.5186 27.6338Z" fill="#1B127D"/>
</svg>
