<svg width="40" height="41" viewBox="0 0 40 41" fill="none" xmlns="http://www.w3.org/2000/svg">
<path d="M33.5342 5.35254C33.4196 5.27962 33.2894 5.24316 33.1436 5.24316C33.0081 5.23275 32.8831 5.25879 32.7686 5.32129L23.5186 9.94629L14.2686 5.32129C14.1644 5.26921 14.0498 5.24316 13.9248 5.24316C13.7998 5.24316 13.68 5.26921 13.5654 5.32129L3.95605 10.1182C3.82064 10.1911 3.71126 10.2952 3.62793 10.4307C3.55501 10.5557 3.51855 10.6911 3.51855 10.8369V34.8369C3.51855 34.9827 3.5498 35.113 3.6123 35.2275C3.68522 35.3525 3.77897 35.4515 3.89355 35.5244C3.95605 35.5661 4.02376 35.5921 4.09668 35.6025C4.1696 35.6234 4.24251 35.6338 4.31543 35.6338C4.37793 35.6338 4.44043 35.6286 4.50293 35.6182C4.56543 35.6077 4.62272 35.5869 4.6748 35.5557L13.9248 30.9307L23.1592 35.5557C23.2738 35.6077 23.3936 35.6338 23.5186 35.6338C23.6436 35.6338 23.7633 35.6077 23.8779 35.5557L33.4717 30.7588C33.6071 30.6859 33.7165 30.5869 33.7998 30.4619C33.8831 30.3369 33.9248 30.1963 33.9248 30.04V6.04004C33.9248 5.90462 33.8883 5.77441 33.8154 5.64941C33.7529 5.52441 33.6592 5.42546 33.5342 5.35254ZM13.1123 29.54L5.1123 33.54V11.3369L13.1123 7.33691V29.54ZM14.7217 7.33691L22.7217 11.3369V33.54L14.7217 29.54V7.33691ZM32.3154 29.54L24.3154 33.54V11.3369L32.3154 7.33691V29.54Z" fill="#1B127D"/>
</svg>
