<svg width="40" height="41" viewBox="0 0 40 41" fill="none" xmlns="http://www.w3.org/2000/svg">
<path d="M19.2031 27.6338C18.8802 27.6338 18.5729 27.5765 18.2812 27.4619C17.9896 27.3369 17.7292 27.1598 17.5 26.9307C17.0312 26.4619 16.7969 25.8994 16.7969 25.2432C16.7969 24.5765 17.0312 24.0088 17.5 23.54C17.6667 23.3838 18.1198 23.0348 18.8594 22.4932C19.599 21.9515 20.4115 21.3682 21.2969 20.7432C22.1823 20.1182 23.0312 19.5244 23.8438 18.9619C24.6667 18.3994 25.2292 18.0088 25.5312 17.79C25.6875 17.6859 25.8594 17.6442 26.0469 17.665C26.2448 17.6755 26.4115 17.7484 26.5469 17.8838C26.6927 18.0192 26.7708 18.1859 26.7812 18.3838C26.8021 18.5713 26.7552 18.7432 26.6406 18.8994C26.4323 19.2119 26.0469 19.7744 25.4844 20.5869C24.9219 21.3994 24.3229 22.2536 23.6875 23.1494C23.0625 24.0348 22.4792 24.8473 21.9375 25.5869C21.4062 26.3265 21.0573 26.7744 20.8906 26.9307C20.6719 27.1598 20.4167 27.3369 20.125 27.4619C19.8333 27.5765 19.526 27.6338 19.2031 27.6338ZM22.7812 21.665C22.2396 22.04 21.7292 22.3994 21.25 22.7432C20.7812 23.0765 20.3594 23.3786 19.9844 23.6494C19.6198 23.9098 19.3177 24.1338 19.0781 24.3213C18.849 24.4984 18.7031 24.6182 18.6406 24.6807C18.4844 24.8369 18.4062 25.0244 18.4062 25.2432C18.4062 25.4619 18.4844 25.6494 18.6406 25.8057C18.7135 25.8786 18.7969 25.9359 18.8906 25.9775C18.9948 26.0192 19.099 26.04 19.2031 26.04C19.3073 26.04 19.4062 26.0192 19.5 25.9775C19.6042 25.9359 19.6927 25.8786 19.7656 25.8057C19.8281 25.7432 19.9479 25.5921 20.125 25.3525C20.3125 25.113 20.5365 24.8109 20.7969 24.4463C21.0677 24.0817 21.3698 23.6598 21.7031 23.1807C22.0469 22.7015 22.4062 22.1963 22.7812 21.665ZM29.9531 12.8994C29.2344 12.1807 28.4583 11.5452 27.625 10.9932C26.8021 10.4307 25.9323 9.96191 25.0156 9.58691C24.1094 9.21191 23.1667 8.93066 22.1875 8.74316C21.2083 8.54525 20.2135 8.44629 19.2031 8.44629C18.1823 8.44629 17.1823 8.54525 16.2031 8.74316C15.2344 8.93066 14.2917 9.21191 13.375 9.58691C12.4688 9.96191 11.599 10.4307 10.7656 10.9932C9.94271 11.5452 9.17188 12.1807 8.45312 12.8994C7.73438 13.6077 7.09896 14.3786 6.54688 15.2119C5.99479 16.0452 5.52604 16.915 5.14062 17.8213C4.76562 18.7275 4.47917 19.6702 4.28125 20.6494C4.09375 21.6286 4 22.6234 4 23.6338C4 24.3942 4.05208 25.1442 4.15625 25.8838C4.27083 26.6234 4.43229 27.3473 4.64062 28.0557C4.85938 28.764 5.13021 29.4567 5.45312 30.1338C5.77604 30.8109 6.14583 31.4619 6.5625 32.0869C6.63542 32.2015 6.72917 32.29 6.84375 32.3525C6.96875 32.415 7.09375 32.4463 7.21875 32.4463H31.1719C31.3073 32.4463 31.4323 32.415 31.5469 32.3525C31.6719 32.29 31.7708 32.2015 31.8438 32.0869C32.2604 31.4619 32.625 30.8109 32.9375 30.1338C33.2604 29.4567 33.5312 28.764 33.75 28.0557C33.9688 27.3473 34.1302 26.6234 34.2344 25.8838C34.349 25.1442 34.4062 24.3942 34.4062 23.6338C34.4062 22.6234 34.3073 21.6286 34.1094 20.6494C33.9115 19.6702 33.625 18.7275 33.25 17.8213C32.875 16.915 32.4115 16.0452 31.8594 15.2119C31.3073 14.3786 30.6719 13.6077 29.9531 12.8994ZM30.7344 30.8369H7.65625C7.35417 30.3577 7.08333 29.863 6.84375 29.3525C6.61458 28.8317 6.41146 28.3057 6.23438 27.7744C6.06771 27.2327 5.93229 26.6859 5.82812 26.1338C5.72396 25.5713 5.65625 25.0088 5.625 24.4463H6.40625C6.625 24.4463 6.8125 24.3682 6.96875 24.2119C7.125 24.0557 7.20312 23.863 7.20312 23.6338C7.20312 23.415 7.125 23.2275 6.96875 23.0713C6.8125 22.915 6.625 22.8369 6.40625 22.8369H5.625C5.72917 21.1182 6.13021 19.5088 6.82812 18.0088C7.52604 16.4984 8.44271 15.1755 9.57812 14.04C10.724 12.8942 12.0521 11.9723 13.5625 11.2744C15.0729 10.5661 16.6875 10.165 18.4062 10.0713V10.8369C18.4062 11.0557 18.4844 11.2432 18.6406 11.3994C18.7969 11.5557 18.9844 11.6338 19.2031 11.6338C19.4219 11.6338 19.6094 11.5557 19.7656 11.3994C19.9219 11.2432 20 11.0557 20 10.8369V10.0713C21.7188 10.165 23.3281 10.5661 24.8281 11.2744C26.3385 11.9723 27.6667 12.8942 28.8125 14.04C29.9583 15.1755 30.8802 16.4984 31.5781 18.0088C32.276 19.5088 32.6771 21.1182 32.7812 22.8369H32C31.7812 22.8369 31.5938 22.915 31.4375 23.0713C31.2812 23.2275 31.2031 23.415 31.2031 23.6338C31.2031 23.863 31.2812 24.0557 31.4375 24.2119C31.5938 24.3682 31.7812 24.4463 32 24.4463H32.7812C32.75 25.0088 32.6823 25.5713 32.5781 26.1338C32.474 26.6859 32.3333 27.2327 32.1562 27.7744C31.9896 28.3057 31.7865 28.8317 31.5469 29.3525C31.3073 29.863 31.0365 30.3577 30.7344 30.8369Z" fill="#1B127D"/>
</svg>
