<svg width="40" height="41" viewBox="0 0 40 41" fill="none" xmlns="http://www.w3.org/2000/svg">
<path d="M33.1123 32.4463H5.9248C5.25814 32.4463 4.69043 32.2119 4.22168 31.7432C3.75293 31.2744 3.51855 30.7067 3.51855 30.04V9.24316C3.51855 8.5765 3.75293 8.00879 4.22168 7.54004C4.69043 7.07129 5.25814 6.83691 5.9248 6.83691H33.1123C33.779 6.83691 34.3467 7.07129 34.8154 7.54004C35.2842 8.00879 35.5186 8.5765 35.5186 9.24316V30.04C35.5186 30.7067 35.2842 31.2744 34.8154 31.7432C34.3467 32.2119 33.779 32.4463 33.1123 32.4463ZM5.9248 8.44629C5.69564 8.44629 5.50293 8.52441 5.34668 8.68066C5.19043 8.83691 5.1123 9.02441 5.1123 9.24316V30.04C5.1123 30.2588 5.19043 30.4463 5.34668 30.6025C5.50293 30.7588 5.69564 30.8369 5.9248 30.8369H33.1123C33.3415 30.8369 33.5342 30.7588 33.6904 30.6025C33.8467 30.4463 33.9248 30.2588 33.9248 30.04V9.24316C33.9248 9.02441 33.8467 8.83691 33.6904 8.68066C33.5342 8.52441 33.3415 8.44629 33.1123 8.44629H5.9248ZM9.1123 19.6338C8.9873 19.6338 8.8623 19.6077 8.7373 19.5557C8.62272 19.4932 8.52897 19.4046 8.45605 19.29C8.33105 19.1025 8.28939 18.8994 8.33105 18.6807C8.37272 18.4619 8.4873 18.2952 8.6748 18.1807L12.4717 15.6338L8.6748 13.1025C8.4873 12.9775 8.37272 12.8109 8.33105 12.6025C8.28939 12.3838 8.33105 12.1807 8.45605 11.9932C8.58105 11.8161 8.74772 11.7067 8.95605 11.665C9.1748 11.613 9.37793 11.6494 9.56543 11.7744L14.3623 14.9775C14.4769 15.0505 14.5654 15.1494 14.6279 15.2744C14.6904 15.389 14.7217 15.5088 14.7217 15.6338C14.7217 15.7692 14.6904 15.8994 14.6279 16.0244C14.5654 16.139 14.4769 16.2327 14.3623 16.3057L9.56543 19.5088C9.49251 19.5505 9.4196 19.5817 9.34668 19.6025C9.27376 19.6234 9.19564 19.6338 9.1123 19.6338ZM21.9248 19.6338H17.1123C16.8936 19.6338 16.7061 19.5557 16.5498 19.3994C16.3936 19.2432 16.3154 19.0557 16.3154 18.8369C16.3154 18.6182 16.3936 18.4307 16.5498 18.2744C16.7061 18.1182 16.8936 18.04 17.1123 18.04H21.9248C22.1436 18.04 22.3311 18.1182 22.4873 18.2744C22.6436 18.4307 22.7217 18.6182 22.7217 18.8369C22.7217 19.0557 22.6436 19.2432 22.4873 19.3994C22.3311 19.5557 22.1436 19.6338 21.9248 19.6338Z" fill="#1B127D"/>
</svg>
