<svg width="21" height="23" viewBox="0 0 21 23" fill="none" xmlns="http://www.w3.org/2000/svg">
<g clip-path="url(#clip0_1511_32635)">
<path d="M10.452 12.2021C11.282 12.2021 12.065 12.0421 12.799 11.7241C13.5166 11.4165 14.1692 10.9754 14.722 10.4241C15.2733 9.87127 15.7144 9.21869 16.022 8.5011C16.3421 7.76028 16.5048 6.96108 16.5 6.1541C16.5 5.3161 16.34 4.5301 16.022 3.7961C15.7143 3.07886 15.2732 2.42663 14.722 1.8741C14.1695 1.32292 13.5172 0.881763 12.8 0.574095C12.0592 0.254041 11.26 0.0912734 10.453 0.0960952C9.64237 0.0903305 8.83939 0.253106 8.095 0.574095C6.64588 1.19148 5.49268 2.34683 4.878 3.7971C4.56063 4.54209 4.39964 5.34433 4.405 6.1541C4.405 6.9851 4.563 7.7671 4.878 8.5011C5.49277 9.95131 6.64594 11.1066 8.095 11.7241C8.83939 12.0451 9.64237 12.2079 10.453 12.2021H10.452ZM10.452 11.0961C9.79128 11.1 9.13678 10.9683 8.529 10.7091C7.34197 10.2069 6.39646 9.26317 5.892 8.0771C5.62951 7.47018 5.49602 6.81533 5.5 6.1541C5.5 5.4671 5.63 4.8221 5.892 4.2211C6.3967 3.03483 7.34259 2.09109 8.53 1.5891C9.13778 1.32992 9.79228 1.19821 10.453 1.2021C11.133 1.2021 11.774 1.3321 12.376 1.5891C13.563 2.0913 14.5085 3.03502 15.013 4.2211C15.275 4.8221 15.405 5.4671 15.405 6.1541C15.405 6.8341 15.275 7.4761 15.013 8.0771C14.5085 9.26317 13.563 10.2069 12.376 10.7091C11.7682 10.9683 11.1137 11.1 10.453 11.0961H10.452ZM19.25 22.0961C19.708 22.0961 20.099 21.9351 20.42 21.6121C20.5757 21.4621 20.6991 21.2818 20.7823 21.0823C20.8656 20.8828 20.907 20.6683 20.904 20.4521C20.8881 20.0524 20.8267 19.6559 20.721 19.2701C20.6166 18.8796 20.484 18.4973 20.324 18.1261C20.1218 17.6605 19.8621 17.2221 19.551 16.8211C19.1576 16.2977 18.6951 15.8301 18.176 15.4311C17.6279 15.0085 17.0289 14.6564 16.393 14.3831C15.9771 14.1985 15.5499 14.0405 15.114 13.9101C14.6481 13.7706 14.1747 13.6578 13.696 13.5721C13.1805 13.4798 12.6609 13.4117 12.139 13.3681C11.5779 13.3208 11.0151 13.2974 10.452 13.2981C9.865 13.2981 9.301 13.3211 8.76 13.3681C8.22 13.4141 7.7 13.4821 7.203 13.5721C6.705 13.6621 6.23 13.7741 5.779 13.9101C5.34342 14.0405 4.91656 14.1985 4.501 14.3831C4.17814 14.523 3.86421 14.6826 3.561 14.8611C2.98456 15.1982 2.45529 15.6101 1.987 16.0861C1.75788 16.318 1.54283 16.5635 1.343 16.8211C1.03696 17.2246 0.779203 17.6626 0.575 18.1261C0.411679 18.4969 0.276953 18.8797 0.172 19.2711C0.0655642 19.656 0.00778082 20.0528 0 20.4521C0 20.9031 0.161 21.2901 0.483 21.6121C0.806 21.9351 1.196 22.0961 1.654 22.0961H19.25ZM19.25 21.0001H1.654C1.58034 21.0018 1.50713 20.9883 1.43885 20.9606C1.37058 20.933 1.30869 20.8916 1.257 20.8391C1.20512 20.789 1.16406 20.7289 1.13637 20.6623C1.10868 20.5957 1.09494 20.5242 1.096 20.4521L1.117 20.1781C1.1421 19.9457 1.18693 19.7159 1.251 19.4911C1.327 19.2081 1.443 18.8871 1.601 18.5291C1.758 18.1711 1.981 17.8061 2.267 17.4341C2.647 16.9391 3.107 16.5031 3.647 16.1231C4.21747 15.7283 4.83661 15.409 5.489 15.1731C6.22724 14.9059 6.99038 14.7132 7.767 14.5981C8.65564 14.4641 9.55333 14.3993 10.452 14.4041C11.412 14.4041 12.305 14.4691 13.132 14.5981C13.959 14.7271 14.719 14.9181 15.41 15.1721C16.0643 15.4076 16.6852 15.7273 17.257 16.1231C17.798 16.5031 18.258 16.9391 18.637 17.4331C18.924 17.8061 19.144 18.1711 19.298 18.5291C19.452 18.8871 19.567 19.2081 19.642 19.4911C19.7318 19.8041 19.7842 20.1267 19.798 20.4521C19.7989 20.5242 19.7851 20.5956 19.7574 20.6622C19.7297 20.7287 19.6887 20.7889 19.637 20.8391C19.5869 20.891 19.5268 20.932 19.4602 20.9597C19.3936 20.9874 19.3221 21.0012 19.25 21.0001Z" fill="#1B127D"/>
</g>
<defs>
<clipPath id="clip0_1511_32635">
<rect width="21" height="23" fill="white"/>
</clipPath>
</defs>
</svg>
