<svg xmlns="http://www.w3.org/2000/svg" width="21" height="23" viewBox="0 0 21 23"><path d="M10.452 12.202c.83 0 1.613-.16 2.347-.478a6.16 6.16 0 001.923-1.3 6.16 6.16 0 001.3-1.923 5.83 5.83 0 00.478-2.347c0-.838-.16-1.624-.478-2.358a6.16 6.16 0 00-1.3-1.922A6.16 6.16 0 0012.8.574a5.83 5.83 0 00-2.347-.478 5.85 5.85 0 00-2.358.478 6.084 6.084 0 00-3.217 3.223 5.914 5.914 0 00-.473 2.357c0 .831.158 1.613.473 2.347a6.085 6.085 0 003.217 3.223 5.85 5.85 0 002.358.478zm0-1.106a4.83 4.83 0 01-1.923-.387 4.97 4.97 0 01-2.637-2.632A4.772 4.772 0 015.5 6.154c0-.687.13-1.332.392-1.933A4.97 4.97 0 018.53 1.589a4.83 4.83 0 011.923-.387c.68 0 1.321.13 1.923.387a4.97 4.97 0 012.637 2.632c.262.601.392 1.246.392 1.933 0 .68-.13 1.322-.392 1.923a4.97 4.97 0 01-2.637 2.632 4.83 4.83 0 01-1.923.387zm8.798 11c.458 0 .849-.161 1.17-.484a1.58 1.58 0 00.484-1.16 5.262 5.262 0 00-.183-1.182 8.318 8.318 0 00-.397-1.144 6.08 6.08 0 00-.773-1.305 7.238 7.238 0 00-1.375-1.39 8.267 8.267 0 00-1.783-1.048 10.74 10.74 0 00-1.279-.473 12.828 12.828 0 00-1.418-.338 16.75 16.75 0 00-1.557-.204 19.794 19.794 0 00-1.687-.07c-.587 0-1.151.023-1.692.07-.54.046-1.06.114-1.557.204-.498.09-.973.202-1.424.338a10.74 10.74 0 00-1.278.473 8.56 8.56 0 00-.94.478 7.564 7.564 0 00-1.574 1.225 8.18 8.18 0 00-.644.735 6.49 6.49 0 00-.768 1.305 7.949 7.949 0 00-.403 1.145A4.781 4.781 0 000 20.452c0 .451.161.838.483 1.16.323.323.713.484 1.171.484H19.25zm0-1.096H1.654a.54.54 0 01-.397-.161.527.527 0 01-.161-.387l.021-.274a4.12 4.12 0 01.134-.687c.076-.283.192-.604.35-.962.157-.358.38-.723.666-1.095.38-.495.84-.931 1.38-1.311a8.045 8.045 0 011.842-.95 11.76 11.76 0 012.278-.575 17.39 17.39 0 012.685-.194c.96 0 1.853.065 2.68.194.827.129 1.587.32 2.278.574a8.013 8.013 0 011.847.951c.541.38 1.001.816 1.38 1.31.287.373.507.738.661 1.096.154.358.269.679.344.962a4.12 4.12 0 01.156.961.53.53 0 01-.161.387.527.527 0 01-.387.161z"/></svg>