<svg width="100" height="101" viewBox="0 0 100 101" fill="none" xmlns="http://www.w3.org/2000/svg">
<rect y="0.218994" width="100" height="100" rx="14" fill="#531755"/>
<g clip-path="url(#clip0_874_10390)">
<path d="M36.9325 55.9138C36.9325 58.5414 34.8088 60.6652 32.1811 60.6652C29.5534 60.6652 27.4297 58.5414 27.4297 55.9138C27.4297 53.2861 29.5534 51.1624 32.1811 51.1624H36.9325V55.9138ZM39.3082 55.9138C39.3082 53.2861 41.4319 51.1624 44.0596 51.1624C46.6873 51.1624 48.811 53.2861 48.811 55.9138V67.7923C48.811 70.4199 46.6873 72.5437 44.0596 72.5437C41.4319 72.5437 39.3082 70.4199 39.3082 67.7923V55.9138Z" fill="#E01E5A"/>
<path d="M44.0565 36.8363C41.4289 36.8363 39.3051 34.7126 39.3051 32.0849C39.3051 29.4572 41.4289 27.3335 44.0565 27.3335C46.6842 27.3335 48.8079 29.4572 48.8079 32.0849V36.8363H44.0565ZM44.0565 39.248C46.6842 39.248 48.8079 41.3717 48.8079 43.9994C48.8079 46.6271 46.6842 48.7508 44.0565 48.7508H32.142C29.5144 48.7508 27.3906 46.6271 27.3906 43.9994C27.3906 41.3717 29.5144 39.248 32.142 39.248H44.0565Z" fill="#36C5F0"/>
<path d="M63.1012 43.9992C63.1012 41.3715 65.2249 39.2478 67.8526 39.2478C70.4802 39.2478 72.604 41.3715 72.604 43.9992C72.604 46.6268 70.4802 48.7506 67.8526 48.7506H63.1012V43.9992ZM60.7255 43.9992C60.7255 46.6268 58.6017 48.7506 55.9741 48.7506C53.3464 48.7506 51.2227 46.6268 51.2227 43.9992V32.0847C51.2227 29.457 53.3464 27.3333 55.9741 27.3333C58.6017 27.3333 60.7255 29.457 60.7255 32.0847V43.9992Z" fill="#2EB67D"/>
<path d="M55.9741 63.0409C58.6017 63.0409 60.7255 65.1646 60.7255 67.7923C60.7255 70.4199 58.6017 72.5437 55.9741 72.5437C53.3464 72.5437 51.2227 70.4199 51.2227 67.7923V63.0409H55.9741ZM55.9741 60.6652C53.3464 60.6652 51.2227 58.5414 51.2227 55.9138C51.2227 53.2861 53.3464 51.1624 55.9741 51.1624H67.8886C70.5162 51.1624 72.64 53.2861 72.64 55.9138C72.64 58.5414 70.5162 60.6652 67.8886 60.6652H55.9741Z" fill="#ECB22E"/>
</g>
<defs>
<clipPath id="clip0_874_10390">
<rect width="45.7143" height="45.7143" fill="white" transform="translate(27.1406 27.1174)"/>
</clipPath>
</defs>
</svg>
