<svg width="40" height="41" viewBox="0 0 40 41" fill="none" xmlns="http://www.w3.org/2000/svg">
<path d="M34.5342 8.60254C34.0758 7.21712 33.5654 6.31087 33.0029 5.88379C32.4508 5.45671 31.9561 5.24316 31.5186 5.24316C31.5081 5.24316 31.4977 5.24316 31.4873 5.24316C31.4769 5.24316 31.4665 5.24316 31.4561 5.24316C31.0186 5.25358 30.404 5.36816 29.6123 5.58691C28.8206 5.79525 27.8311 6.07129 26.6436 6.41504C25.4144 6.76921 24.0394 7.15983 22.5186 7.58691C20.9977 8.014 19.3779 8.40983 17.6592 8.77441C15.9508 9.12858 14.1696 9.43066 12.3154 9.68066C10.4717 9.92025 8.6071 10.04 6.72168 10.04C6.26335 10.04 5.83626 10.1859 5.44043 10.4775C5.05501 10.7588 4.71647 11.1494 4.4248 11.6494C4.14355 12.1494 3.9196 12.7432 3.75293 13.4307C3.59668 14.1077 3.51855 14.8421 3.51855 15.6338C3.51855 16.4359 3.59668 17.1807 3.75293 17.8682C3.9196 18.5452 4.14355 19.1338 4.4248 19.6338C4.71647 20.1338 5.05501 20.5296 5.44043 20.8213C5.83626 21.1025 6.26335 21.2432 6.72168 21.2432C7.01335 21.2432 7.30501 21.2484 7.59668 21.2588C7.89876 21.2588 8.19564 21.264 8.4873 21.2744L11.1592 31.8838C11.305 32.488 11.6436 32.9984 12.1748 33.415C12.7165 33.8317 13.2998 34.04 13.9248 34.04H16.0186C16.3623 34.04 16.6748 33.9723 16.9561 33.8369C17.2373 33.6911 17.4613 33.4932 17.6279 33.2432C17.7946 32.9932 17.8831 32.7119 17.8936 32.3994C17.9144 32.0869 17.8571 31.7744 17.7217 31.4619L13.6123 21.7744C14.8623 21.9619 16.0863 22.1807 17.2842 22.4307C18.4821 22.6807 19.6331 22.9463 20.7373 23.2275C21.8415 23.5088 22.8883 23.79 23.8779 24.0713C24.8779 24.3525 25.7998 24.6182 26.6436 24.8682C27.8311 25.2119 28.8206 25.4932 29.6123 25.7119C30.404 25.9202 31.0186 26.0296 31.4561 26.04C31.4665 26.04 31.4769 26.04 31.4873 26.04C31.4977 26.04 31.5081 26.04 31.5186 26.04C31.9561 26.04 32.4508 25.8265 33.0029 25.3994C33.5654 24.9723 34.0758 24.0661 34.5342 22.6807C34.7008 22.2119 34.8415 21.7067 34.9561 21.165C35.0811 20.613 35.1852 20.04 35.2686 19.4463C35.3519 18.8525 35.4144 18.238 35.4561 17.6025C35.4977 16.9567 35.5186 16.3005 35.5186 15.6338C35.5186 14.9775 35.4977 14.3317 35.4561 13.6963C35.4144 13.0505 35.3519 12.4307 35.2686 11.8369C35.1852 11.2432 35.0811 10.6755 34.9561 10.1338C34.8415 9.58171 34.7008 9.07129 34.5342 8.60254ZM29.1123 15.6338C29.1123 15.2275 29.1227 14.8265 29.1436 14.4307C29.1644 14.0244 29.1904 13.6286 29.2217 13.2432C29.6279 13.2848 29.9769 13.54 30.2686 14.0088C30.5706 14.4671 30.7217 15.0088 30.7217 15.6338C30.7217 16.2588 30.5706 16.8057 30.2686 17.2744C29.9769 17.7432 29.6279 17.9984 29.2217 18.04C29.1904 17.6546 29.1644 17.264 29.1436 16.8682C29.1227 16.4619 29.1123 16.0505 29.1123 15.6338ZM5.1123 15.6338C5.1123 14.415 5.2946 13.4463 5.65918 12.7275C6.03418 11.9984 6.38835 11.6338 6.72168 11.6338C7.1696 11.6338 7.61751 11.6286 8.06543 11.6182C8.52376 11.6077 8.97689 11.5869 9.4248 11.5557C9.88314 11.5244 10.3311 11.488 10.7686 11.4463C11.2165 11.4046 11.6644 11.363 12.1123 11.3213C11.9144 11.9255 11.7633 12.5973 11.6592 13.3369C11.5654 14.0661 11.5186 14.8317 11.5186 15.6338C11.5186 16.4463 11.5654 17.2223 11.6592 17.9619C11.7633 18.6911 11.9144 19.3577 12.1123 19.9619C11.6644 19.9098 11.2165 19.8682 10.7686 19.8369C10.3311 19.7952 9.88314 19.7588 9.4248 19.7275C8.97689 19.6963 8.52376 19.6755 8.06543 19.665C7.61751 19.6442 7.1696 19.6338 6.72168 19.6338C6.38835 19.6338 6.03418 19.2744 5.65918 18.5557C5.2946 17.8369 5.1123 16.863 5.1123 15.6338ZM16.2529 32.0869C16.2842 32.1598 16.2998 32.2223 16.2998 32.2744C16.3102 32.3265 16.3102 32.3577 16.2998 32.3682C16.2894 32.3786 16.2581 32.3942 16.2061 32.415C16.1644 32.4359 16.1019 32.4463 16.0186 32.4463H13.9248C13.6644 32.4463 13.4092 32.3525 13.1592 32.165C12.9196 31.9671 12.7686 31.7432 12.7061 31.4932L10.1592 21.3838C10.43 21.4046 10.6956 21.4307 10.9561 21.4619C11.2269 21.4827 11.4977 21.5088 11.7686 21.54L16.2529 32.0869ZM13.8936 20.2119C13.654 19.6598 13.4613 18.9827 13.3154 18.1807C13.18 17.3682 13.1123 16.5192 13.1123 15.6338C13.1123 14.738 13.18 13.8942 13.3154 13.1025C13.4613 12.3005 13.654 11.6234 13.8936 11.0713C15.1748 10.8838 16.4196 10.665 17.6279 10.415C18.8363 10.1546 19.9977 9.88379 21.1123 9.60254C22.2373 9.32129 23.2998 9.04004 24.2998 8.75879C25.3102 8.46712 26.2425 8.19629 27.0967 7.94629C27.43 7.85254 27.7529 7.75879 28.0654 7.66504C28.3883 7.57129 28.6904 7.48275 28.9717 7.39941C28.8883 7.5765 28.805 7.764 28.7217 7.96191C28.6488 8.15983 28.5758 8.37337 28.5029 8.60254C28.3363 9.07129 28.1904 9.58171 28.0654 10.1338C27.9508 10.6755 27.8519 11.2432 27.7686 11.8369C27.6852 12.4307 27.6227 13.0505 27.5811 13.6963C27.5394 14.3317 27.5186 14.9775 27.5186 15.6338C27.5186 16.3005 27.5394 16.9567 27.5811 17.6025C27.6227 18.238 27.6852 18.8525 27.7686 19.4463C27.8519 20.04 27.9508 20.613 28.0654 21.165C28.1904 21.7067 28.3363 22.2119 28.5029 22.6807C28.5758 22.9098 28.6488 23.1234 28.7217 23.3213C28.805 23.5192 28.8883 23.7067 28.9717 23.8838C28.6904 23.8005 28.3883 23.7119 28.0654 23.6182C27.7529 23.5244 27.43 23.4307 27.0967 23.3369C26.2425 23.0869 25.3102 22.8213 24.2998 22.54C23.2998 22.2484 22.2373 21.9619 21.1123 21.6807C19.9977 21.3994 18.8363 21.1338 17.6279 20.8838C16.4196 20.6234 15.1748 20.3994 13.8936 20.2119ZM33.0186 22.1807C32.7269 23.0765 32.4352 23.6807 32.1436 23.9932C31.8519 24.2952 31.6436 24.4463 31.5186 24.4463C31.3936 24.4463 31.1852 24.2952 30.8936 23.9932C30.6019 23.6807 30.3102 23.0765 30.0186 22.1807C29.8936 21.8057 29.779 21.4046 29.6748 20.9775C29.5706 20.54 29.4821 20.0869 29.4092 19.6182C29.805 19.5765 30.1748 19.4515 30.5186 19.2432C30.8727 19.0244 31.1852 18.738 31.4561 18.3838C31.7373 18.0088 31.9508 17.5869 32.0967 17.1182C32.2425 16.6494 32.3154 16.1546 32.3154 15.6338C32.3154 15.1234 32.2425 14.6338 32.0967 14.165C31.9508 13.6859 31.7373 13.264 31.4561 12.8994C31.1852 12.5452 30.8727 12.264 30.5186 12.0557C30.1748 11.8369 29.805 11.7067 29.4092 11.665C29.4821 11.1963 29.5706 10.7484 29.6748 10.3213C29.779 9.88379 29.8936 9.47754 30.0186 9.10254C30.3102 8.20671 30.6019 7.60775 30.8936 7.30566C31.1852 6.99316 31.3936 6.83691 31.5186 6.83691C31.6436 6.83691 31.8519 6.99316 32.1436 7.30566C32.4352 7.60775 32.7269 8.20671 33.0186 9.10254C33.1644 9.54004 33.2946 10.0088 33.4092 10.5088C33.5238 11.0088 33.6175 11.5348 33.6904 12.0869C33.7633 12.639 33.8206 13.2171 33.8623 13.8213C33.904 14.415 33.9248 15.0192 33.9248 15.6338C33.9248 16.2588 33.904 16.8682 33.8623 17.4619C33.8206 18.0557 33.7633 18.6338 33.6904 19.1963C33.6175 19.7484 33.5238 20.2744 33.4092 20.7744C33.2946 21.2744 33.1644 21.7432 33.0186 22.1807Z" fill="#1B127D"/>
</svg>
