<svg width="101" height="99" viewBox="0 0 101 99" fill="none" xmlns="http://www.w3.org/2000/svg">
<g clip-path="url(#clip0_1216_15640)">
<rect x="12.0967" y="11" width="88" height="88" fill="#1B127D"/>
<path d="M12.3869 36.5264C18.5307 30.5507 23.8005 21.478 31.374 10.9106" stroke="#DFE4E8" stroke-opacity="0.5"/>
<path d="M12.088 70.5504C15.9763 68.421 19.6138 64.9972 22.6718 59.8469C36.2603 36.9608 49.3721 10.4988 68.6822 19.0811C80.4723 24.3211 93.0622 35.9599 100.7 48.1915M89.2807 99.3204C89.4894 99.0963 89.6957 98.8754 89.8995 98.6577C94.4387 93.8093 97.9607 91.1756 100.656 88.6008" stroke="#DFE4E8" stroke-opacity="0.5"/>
<path d="M12.3719 52.9121C15.8143 50.0647 19.0913 45.8875 22.0243 39.9042C29.047 25.5778 38.6996 14.9496 50.1165 10.8086M100.526 27.4547C92.8865 22.4074 84.8958 16.6796 76.7553 12.779C75.132 12.0011 73.5253 11.3459 71.9368 10.8086" stroke="#DFE4E8" stroke-opacity="0.5"/>
<path d="M52.6058 99.1388C56.2775 90.4713 61.7762 85.7767 69.0096 78.7694C80.3207 67.8118 74.6651 51.9054 69.0096 49.4311C63.354 46.9568 49.2151 47.31 44.9734 73.1135C43.2406 83.6547 43.7494 92.4262 43.1984 99.1388" stroke="#DFE4E8" stroke-opacity="0.5"/>
<path d="M12.4511 92.7255C19.8526 91.9426 23.8333 84.9561 25.0551 80.5575L43.1717 42.975C47.2833 33.4027 60.3632 19.115 79.7904 38.5421C99.2175 57.9693 92.727 73.8079 87.0534 79.2989C82.8487 81.9898 75.9661 88.6197 70.3926 99.2224" stroke="#DFE4E8" stroke-opacity="0.5"/>
</g>
<rect x="0.850586" y="0.579468" width="82" height="83" fill="white"/>
<rect x="0.850586" y="0.579468" width="82" height="83" stroke="#DFE4E8"/>
<path fill-rule="evenodd" clip-rule="evenodd" d="M65.9126 29.537L42.4758 20.9058L19.0391 29.537V55.7799L42.4758 64.4145L65.9126 55.7799V29.537ZM21.3827 54.1457V32.0346L29.7617 35.1216V44.7132H32.1054V35.985L41.304 39.374V61.4851L21.3827 54.1457ZM34.449 34.3508L42.4759 37.3081L61.3503 30.3543L53.1117 27.3203L34.449 34.3508ZM49.75 26.0822L42.4758 23.4033L23.6015 30.3543L31.0879 33.1125L49.75 26.0822ZM43.6476 39.374L63.5689 32.0346V54.1457L43.6476 61.4851V39.374Z" fill="#1B127D"/>
<defs>
<clipPath id="clip0_1216_15640">
<rect width="88" height="88" fill="white" transform="translate(12.0967 11)"/>
</clipPath>
</defs>
</svg>
