<svg width="40" height="41" viewBox="0 0 40 41" fill="none" xmlns="http://www.w3.org/2000/svg">
<path d="M31.5186 35.6338C31.4561 35.6338 31.3936 35.6286 31.3311 35.6182C31.279 35.6077 31.2217 35.5869 31.1592 35.5557L28.3154 34.1338L25.4717 35.5557C25.3571 35.6077 25.2373 35.6338 25.1123 35.6338C24.9873 35.6338 24.8727 35.6077 24.7686 35.5557L21.9248 34.1338L19.0811 35.5557C18.9665 35.6077 18.8467 35.6338 18.7217 35.6338C18.5967 35.6338 18.4769 35.6077 18.3623 35.5557L15.5186 34.1338L12.6748 35.5557C12.5602 35.6077 12.4404 35.6338 12.3154 35.6338C12.1904 35.6338 12.0706 35.6077 11.9561 35.5557L9.1123 34.1338L6.26855 35.5557C6.15397 35.6182 6.02376 35.6442 5.87793 35.6338C5.74251 35.6338 5.61751 35.5973 5.50293 35.5244C5.37793 35.4515 5.27897 35.3525 5.20605 35.2275C5.14355 35.113 5.1123 34.9827 5.1123 34.8369V6.04004C5.1123 5.88379 5.15397 5.74316 5.2373 5.61816C5.32064 5.49316 5.43001 5.39421 5.56543 5.32129L8.76855 3.72754C8.87272 3.66504 8.9873 3.63379 9.1123 3.63379C9.2373 3.63379 9.3571 3.66504 9.47168 3.72754L12.3154 5.14941L15.1592 3.72754C15.2738 3.66504 15.3936 3.63379 15.5186 3.63379C15.6436 3.63379 15.7633 3.66504 15.8779 3.72754L18.7217 5.14941L21.5654 3.72754C21.68 3.66504 21.7998 3.63379 21.9248 3.63379C22.0498 3.63379 22.1644 3.66504 22.2686 3.72754L25.1123 5.14941L27.9561 3.72754C28.0706 3.66504 28.1904 3.63379 28.3154 3.63379C28.4404 3.63379 28.5602 3.66504 28.6748 3.72754L31.8779 5.32129C32.0133 5.39421 32.1175 5.49316 32.1904 5.61816C32.2738 5.74316 32.3154 5.88379 32.3154 6.04004V34.8369C32.3154 34.9827 32.279 35.113 32.2061 35.2275C32.1436 35.3525 32.055 35.4515 31.9404 35.5244C31.8779 35.5661 31.8102 35.5921 31.7373 35.6025C31.6644 35.6234 31.5915 35.6338 31.5186 35.6338ZM21.9248 32.4463C21.9769 32.4463 22.0342 32.4515 22.0967 32.4619C22.1592 32.4723 22.2165 32.4932 22.2686 32.5244L25.1123 33.9463L27.9561 32.5244C28.0706 32.4723 28.1904 32.4463 28.3154 32.4463C28.4404 32.4463 28.5602 32.4723 28.6748 32.5244L30.7217 33.54V6.54004L28.3154 5.33691L25.4717 6.75879C25.3571 6.81087 25.2373 6.83691 25.1123 6.83691C24.9873 6.83691 24.8727 6.81087 24.7686 6.75879L21.9248 5.33691L19.0811 6.75879C18.9665 6.81087 18.8467 6.83691 18.7217 6.83691C18.5967 6.83691 18.4769 6.81087 18.3623 6.75879L15.5186 5.33691L12.6748 6.75879C12.5602 6.81087 12.4404 6.83691 12.3154 6.83691C12.1904 6.83691 12.0706 6.81087 11.9561 6.75879L9.1123 5.33691L6.72168 6.54004V33.54L8.76855 32.5244C8.87272 32.4723 8.9873 32.4463 9.1123 32.4463C9.2373 32.4463 9.3571 32.4723 9.47168 32.5244L12.3154 33.9463L15.1592 32.5244C15.2738 32.4723 15.3936 32.4463 15.5186 32.4463C15.6436 32.4463 15.7633 32.4723 15.8779 32.5244L18.7217 33.9463L21.5654 32.5244C21.6175 32.4932 21.6748 32.4723 21.7373 32.4619C21.7998 32.4515 21.8623 32.4463 21.9248 32.4463ZM21.9248 24.4463H16.3154V22.8369H21.9248C22.1436 22.8369 22.3311 22.7588 22.4873 22.6025C22.6436 22.4463 22.7217 22.2588 22.7217 22.04C22.7217 21.8213 22.6436 21.6338 22.4873 21.4775C22.3311 21.3213 22.1436 21.2432 21.9248 21.2432H19.5186V20.4463C19.5186 20.2171 19.4404 20.0244 19.2842 19.8682C19.1279 19.7119 18.9404 19.6338 18.7217 19.6338C18.5029 19.6338 18.3154 19.7119 18.1592 19.8682C18.0029 20.0244 17.9248 20.2171 17.9248 20.4463V21.2432H15.5186C15.2998 21.2432 15.1123 21.3213 14.9561 21.4775C14.7998 21.6338 14.7217 21.8213 14.7217 22.04V25.2432C14.7217 25.4619 14.7998 25.6494 14.9561 25.8057C15.1123 25.9619 15.2998 26.04 15.5186 26.04H21.1123V27.6338H15.5186C15.2998 27.6338 15.1123 27.7119 14.9561 27.8682C14.7998 28.0244 14.7217 28.2171 14.7217 28.4463C14.7217 28.665 14.7998 28.8525 14.9561 29.0088C15.1123 29.165 15.2998 29.2432 15.5186 29.2432H17.9248V30.04C17.9248 30.2588 18.0029 30.4463 18.1592 30.6025C18.3154 30.7588 18.5029 30.8369 18.7217 30.8369C18.9404 30.8369 19.1279 30.7588 19.2842 30.6025C19.4404 30.4463 19.5186 30.2588 19.5186 30.04V29.2432H21.9248C22.1436 29.2432 22.3311 29.165 22.4873 29.0088C22.6436 28.8525 22.7217 28.665 22.7217 28.4463V25.2432C22.7217 25.0244 22.6436 24.8369 22.4873 24.6807C22.3311 24.5244 22.1436 24.4463 21.9248 24.4463ZM23.5186 11.6338H13.9248C13.6956 11.6338 13.5029 11.5557 13.3467 11.3994C13.1904 11.2432 13.1123 11.0557 13.1123 10.8369C13.1123 10.6182 13.1904 10.4307 13.3467 10.2744C13.5029 10.1182 13.6956 10.04 13.9248 10.04H23.5186C23.7373 10.04 23.9248 10.1182 24.0811 10.2744C24.2373 10.4307 24.3154 10.6182 24.3154 10.8369C24.3154 11.0557 24.2373 11.2432 24.0811 11.3994C23.9248 11.5557 23.7373 11.6338 23.5186 11.6338ZM26.7217 14.8369H10.7217C10.5029 14.8369 10.3154 14.7588 10.1592 14.6025C10.0029 14.4463 9.9248 14.2588 9.9248 14.04C9.9248 13.8213 10.0029 13.6338 10.1592 13.4775C10.3154 13.3213 10.5029 13.2432 10.7217 13.2432H26.7217C26.9404 13.2432 27.1279 13.3213 27.2842 13.4775C27.4404 13.6338 27.5186 13.8213 27.5186 14.04C27.5186 14.2588 27.4404 14.4463 27.2842 14.6025C27.1279 14.7588 26.9404 14.8369 26.7217 14.8369ZM26.7217 18.04H10.7217C10.5029 18.04 10.3154 17.9619 10.1592 17.8057C10.0029 17.6494 9.9248 17.4619 9.9248 17.2432C9.9248 17.0244 10.0029 16.8369 10.1592 16.6807C10.3154 16.5244 10.5029 16.4463 10.7217 16.4463H26.7217C26.9404 16.4463 27.1279 16.5244 27.2842 16.6807C27.4404 16.8369 27.5186 17.0244 27.5186 17.2432C27.5186 17.4619 27.4404 17.6494 27.2842 17.8057C27.1279 17.9619 26.9404 18.04 26.7217 18.04Z" fill="#1B127D"/>
</svg>
