<svg width="40" height="41" viewBox="0 0 40 41" fill="none" xmlns="http://www.w3.org/2000/svg">
<path d="M33.1123 24.4775C32.8936 24.4775 32.7061 24.3994 32.5498 24.2432C32.3936 24.0869 32.3154 23.8994 32.3154 23.6807V18.04C32.3154 16.0088 32.029 14.2015 31.4561 12.6182C30.8936 11.0244 30.0654 9.68066 28.9717 8.58691C27.8779 7.49316 26.5342 6.66504 24.9404 6.10254C23.3571 5.52962 21.5498 5.24316 19.5186 5.24316C17.4873 5.24316 15.6748 5.52962 14.0811 6.10254C12.4977 6.66504 11.1592 7.49316 10.0654 8.58691C8.97168 9.68066 8.13835 11.0244 7.56543 12.6182C7.00293 14.2015 6.72168 16.0088 6.72168 18.04V23.6807C6.72168 23.8994 6.64355 24.0869 6.4873 24.2432C6.33105 24.3994 6.14355 24.4775 5.9248 24.4775C5.69564 24.4775 5.50293 24.3994 5.34668 24.2432C5.19043 24.0869 5.1123 23.8994 5.1123 23.6807V18.04C5.1123 17.4359 5.13314 16.8473 5.1748 16.2744C5.22689 15.7015 5.2998 15.1442 5.39355 14.6025C5.49772 14.0609 5.61751 13.54 5.75293 13.04C5.89876 12.5296 6.06022 12.04 6.2373 11.5713C6.4248 11.1234 6.62793 10.6963 6.84668 10.29C7.06543 9.87337 7.30501 9.47754 7.56543 9.10254C7.82585 8.71712 8.1071 8.35254 8.40918 8.00879C8.71126 7.66504 9.02897 7.34212 9.3623 7.04004C9.9873 6.48796 10.6696 5.99837 11.4092 5.57129C12.1592 5.14421 12.9613 4.79004 13.8154 4.50879C14.6696 4.21712 15.5706 3.99837 16.5186 3.85254C17.4769 3.70671 18.4769 3.63379 19.5186 3.63379C20.5602 3.63379 21.555 3.70671 22.5029 3.85254C23.4613 3.99837 24.3675 4.21712 25.2217 4.50879C26.0758 4.79004 26.8727 5.14421 27.6123 5.57129C28.3623 5.99837 29.0498 6.48796 29.6748 7.04004C30.0081 7.34212 30.3258 7.66504 30.6279 8.00879C30.93 8.35254 31.2113 8.71712 31.4717 9.10254C31.7321 9.47754 31.9717 9.87337 32.1904 10.29C32.4092 10.6963 32.6123 11.1234 32.7998 11.5713C32.9769 12.04 33.1331 12.5296 33.2686 13.04C33.4144 13.54 33.5342 14.0609 33.6279 14.6025C33.7321 15.1442 33.805 15.7015 33.8467 16.2744C33.8988 16.8473 33.9248 17.4359 33.9248 18.04V23.6807C33.9248 23.8994 33.8467 24.0869 33.6904 24.2432C33.5342 24.3994 33.3415 24.4775 33.1123 24.4775ZM13.9248 16.4463C13.3936 16.4463 12.9196 16.5973 12.5029 16.8994C12.0967 17.2015 11.8102 17.5869 11.6436 18.0557C10.7686 18.1182 10.0081 18.29 9.3623 18.5713C8.72689 18.8421 8.20605 19.2327 7.7998 19.7432C7.4248 20.2015 7.14876 20.7484 6.97168 21.3838C6.80501 22.0192 6.72168 22.7692 6.72168 23.6338C6.72168 24.5088 6.80501 25.264 6.97168 25.8994C7.14876 26.5348 7.4248 27.0817 7.7998 27.54C8.20605 28.0505 8.72689 28.4463 9.3623 28.7275C10.0081 28.9984 10.7686 29.165 11.6436 29.2275C11.8102 29.6963 12.0967 30.0817 12.5029 30.3838C12.9196 30.6859 13.3936 30.8369 13.9248 30.8369C14.5811 30.8369 15.1436 30.6025 15.6123 30.1338C16.0811 29.665 16.3154 29.1025 16.3154 28.4463V18.8369C16.3154 18.1807 16.0811 17.6182 15.6123 17.1494C15.1436 16.6807 14.5811 16.4463 13.9248 16.4463ZM8.31543 23.6338C8.31543 22.5088 8.51855 21.5973 8.9248 20.8994C9.33105 20.2015 10.1956 19.7952 11.5186 19.6807V27.6025C10.1956 27.488 9.33105 27.0817 8.9248 26.3838C8.51855 25.6859 8.31543 24.7692 8.31543 23.6338ZM14.7217 28.4463C14.7217 28.665 14.6436 28.8525 14.4873 29.0088C14.3311 29.165 14.1436 29.2432 13.9248 29.2432C13.6956 29.2432 13.5029 29.165 13.3467 29.0088C13.1904 28.8525 13.1123 28.665 13.1123 28.4463V18.8369C13.1123 18.6182 13.1904 18.4307 13.3467 18.2744C13.5029 18.1182 13.6956 18.04 13.9248 18.04C14.1436 18.04 14.3311 18.1182 14.4873 18.2744C14.6436 18.4307 14.7217 18.6182 14.7217 18.8369V28.4463ZM31.2373 19.7432C30.8311 19.2327 30.305 18.8421 29.6592 18.5713C29.0238 18.29 28.2686 18.1182 27.3936 18.0557C27.2269 17.5869 26.9352 17.2015 26.5186 16.8994C26.1123 16.5973 25.6436 16.4463 25.1123 16.4463C24.4561 16.4463 23.8936 16.6807 23.4248 17.1494C22.9561 17.6182 22.7217 18.1807 22.7217 18.8369V28.4463C22.7217 29.1025 22.9561 29.665 23.4248 30.1338C23.8936 30.6025 24.4561 30.8369 25.1123 30.8369C25.6436 30.8369 26.1123 30.6859 26.5186 30.3838C26.9352 30.0817 27.2269 29.6963 27.3936 29.2275C28.1019 29.1755 28.7321 29.0557 29.2842 28.8682C29.8363 28.6807 30.3154 28.415 30.7217 28.0713V30.04C30.7217 30.7067 30.4873 31.2744 30.0186 31.7432C29.5498 32.2119 28.9821 32.4463 28.3154 32.4463H22.5811C22.4144 31.9775 22.1227 31.5921 21.7061 31.29C21.2998 30.988 20.8363 30.8369 20.3154 30.8369C19.6592 30.8369 19.0967 31.0713 18.6279 31.54C18.1592 32.0088 17.9248 32.5765 17.9248 33.2432C17.9248 33.8994 18.1592 34.4619 18.6279 34.9307C19.0967 35.3994 19.6592 35.6338 20.3154 35.6338C20.8363 35.6338 21.2998 35.4827 21.7061 35.1807C22.1227 34.889 22.4144 34.5088 22.5811 34.04H28.3154C28.8675 34.04 29.3831 33.9359 29.8623 33.7275C30.3519 33.5192 30.779 33.2327 31.1436 32.8682C31.5081 32.5036 31.7946 32.0817 32.0029 31.6025C32.2113 31.113 32.3154 30.5921 32.3154 30.04V23.6338C32.3154 22.7692 32.2269 22.0192 32.0498 21.3838C31.8831 20.7484 31.6123 20.2015 31.2373 19.7432ZM20.3154 34.04C20.0967 34.04 19.9092 33.9619 19.7529 33.8057C19.5967 33.6494 19.5186 33.4619 19.5186 33.2432C19.5186 33.0244 19.5967 32.8369 19.7529 32.6807C19.9092 32.5244 20.0967 32.4463 20.3154 32.4463C20.5342 32.4463 20.7217 32.5244 20.8779 32.6807C21.0342 32.8369 21.1123 33.0244 21.1123 33.2432C21.1123 33.4619 21.0342 33.6494 20.8779 33.8057C20.7217 33.9619 20.5342 34.04 20.3154 34.04ZM25.1123 29.2432C24.8936 29.2432 24.7061 29.165 24.5498 29.0088C24.3936 28.8525 24.3154 28.665 24.3154 28.4463V18.8369C24.3154 18.6182 24.3936 18.4307 24.5498 18.2744C24.7061 18.1182 24.8936 18.04 25.1123 18.04C25.3415 18.04 25.5342 18.1182 25.6904 18.2744C25.8467 18.4307 25.9248 18.6182 25.9248 18.8369V28.4463C25.9248 28.665 25.8467 28.8525 25.6904 29.0088C25.5342 29.165 25.3415 29.2432 25.1123 29.2432ZM27.5186 27.6025V19.6807C28.8415 19.7952 29.7061 20.2015 30.1123 20.8994C30.5186 21.5973 30.7217 22.5088 30.7217 23.6338C30.7217 24.7692 30.5186 25.6859 30.1123 26.3838C29.7061 27.0817 28.8415 27.488 27.5186 27.6025Z" fill="#1B127D"/>
</svg>
