<svg width="101" height="99" viewBox="0 0 101 99" fill="none" xmlns="http://www.w3.org/2000/svg">
<g clip-path="url(#clip0_1216_15606)">
<rect x="12.5947" y="11" width="88" height="88" fill="#1B127D"/>
<path d="M12.8849 36.5264C19.0287 30.5507 24.2986 21.478 31.8721 10.9106" stroke="#DFE4E8" stroke-opacity="0.5"/>
<path d="M12.5861 70.5504C16.4743 68.421 20.1118 64.9972 23.1698 59.8469C36.7584 36.9608 49.8701 10.4988 69.1803 19.0811C80.9703 24.3211 93.5602 35.9599 101.198 48.1915M89.7787 99.3204C89.9874 99.0963 90.1938 98.8754 90.3975 98.6577C94.9368 93.8093 98.4587 91.1756 101.154 88.6008" stroke="#DFE4E8" stroke-opacity="0.5"/>
<path d="M12.8699 52.9121C16.3123 50.0647 19.5893 45.8875 22.5223 39.9042C29.5451 25.5778 39.1977 14.9496 50.6146 10.8086M101.024 27.4547C93.3845 22.4074 85.3938 16.6796 77.2534 12.779C75.63 12.0011 74.0233 11.3459 72.4348 10.8086" stroke="#DFE4E8" stroke-opacity="0.5"/>
<path d="M53.1039 99.1388C56.7755 90.4713 62.2743 85.7767 69.5076 78.7694C80.8187 67.8118 75.1632 51.9054 69.5076 49.4311C63.852 46.9568 49.7131 47.31 45.4715 73.1135C43.7387 83.6547 44.2475 92.4262 43.6964 99.1388" stroke="#DFE4E8" stroke-opacity="0.5"/>
<path d="M12.9492 92.7255C20.3506 91.9426 24.3313 84.9561 25.5532 80.5575L43.6698 42.975C47.7813 33.4027 60.8613 19.115 80.2884 38.5421C99.7156 57.9693 93.2251 73.8079 87.5514 79.2989C83.3468 81.9898 76.4641 88.6197 70.8907 99.2224" stroke="#DFE4E8" stroke-opacity="0.5"/>
</g>
<rect x="1.34863" y="0.579468" width="82" height="83" fill="white"/>
<rect x="1.34863" y="0.579468" width="82" height="83" stroke="#DFE4E8"/>
<mask id="path-8-outside-1_1216_15606" maskUnits="userSpaceOnUse" x="19.1201" y="19.0796" width="47" height="47" fill="black">
<rect fill="white" x="19.1201" y="19.0796" width="47" height="47"/>
<path d="M63.2484 45.5481L61.7613 44.9158C61.9494 43.4357 61.9649 41.926 61.8008 40.4124L63.2995 39.8061C64.6456 39.2614 65.3048 37.7152 64.7576 36.3666L62.7797 31.466C62.3646 30.4406 61.3691 29.8148 60.3212 29.8148C59.9935 29.8148 59.6599 29.8758 59.3383 30.0064L57.8406 30.6101C56.9072 29.4096 55.8488 28.3326 54.6843 27.3987L55.3165 25.9131C55.8833 24.573 55.2535 23.0154 53.9154 22.4471L49.0503 20.3807C48.7157 20.2397 48.3685 20.1721 48.0249 20.1721C46.9949 20.1721 46.0125 20.7769 45.5848 21.7818L44.9536 23.2685C44.1557 23.1669 43.3489 23.1159 42.5385 23.1159C41.8452 23.1159 41.1494 23.1529 40.4516 23.2289L39.8459 21.7308C39.4322 20.7054 38.4373 20.0796 37.3913 20.0796C37.0627 20.0796 36.7295 20.1411 36.4064 20.2727L31.5058 22.249C30.1572 22.7948 29.5019 24.3419 30.0456 25.6905L30.6509 27.1892C29.4474 28.1226 28.3719 29.1835 27.439 30.345L25.9509 29.7142C25.6172 29.5727 25.2686 29.5052 24.9264 29.5052C23.896 29.5052 22.9131 30.1109 22.4864 31.1138L20.421 35.9789C19.8533 37.317 20.4835 38.8762 21.8201 39.4444L23.3082 40.0742C23.1212 41.5543 23.1047 43.066 23.2702 44.5791L21.7726 45.1839C20.4225 45.7291 19.7672 47.2768 20.312 48.6239L22.2908 53.5255C22.704 54.5514 23.7009 55.1777 24.7474 55.1777C25.0755 55.1777 25.4091 55.1162 25.7308 54.9851L27.2299 54.3774C28.1628 55.5839 29.2228 56.6578 30.3858 57.5918L29.7555 59.0789C29.1858 60.4185 29.8165 61.9756 31.1541 62.5444L36.0197 64.6108C36.3534 64.7513 36.7005 64.8189 37.0442 64.8189C38.0741 64.8189 39.0585 64.2141 39.4842 63.2097L40.1165 61.7205C40.9138 61.8231 41.7217 61.8731 42.532 61.8731C43.2263 61.8731 43.9221 61.8371 44.6189 61.7615L45.2252 63.2572C45.6394 64.2851 46.6353 64.9104 47.6817 64.9104C48.0099 64.9104 48.3425 64.8489 48.6642 64.7198L53.5643 62.7395C54.9124 62.1952 55.5696 60.6486 55.0254 59.2995L54.4201 57.8008C55.6222 56.8679 56.6976 55.807 57.6315 54.644L59.1202 55.2763C59.4538 55.4188 59.801 55.4853 60.1436 55.4853C61.1746 55.4853 62.1585 54.8796 62.5847 53.8761L64.6501 49.0116C65.2163 47.6745 64.586 46.1123 63.2484 45.5481ZM63.7492 48.6294L61.6828 53.495C61.4222 54.1102 60.8179 54.5079 60.1426 54.5079C59.9215 54.5079 59.7049 54.4639 59.5013 54.3769L58.0132 53.7436C57.8901 53.6911 57.7591 53.6656 57.6305 53.6656C57.3414 53.6656 57.0578 53.7956 56.8682 54.0307C55.9743 55.1437 54.9484 56.1516 53.8199 57.027C53.4742 57.2956 53.3482 57.7608 53.5123 58.165L54.1175 59.6646C54.4612 60.5165 54.0485 61.4879 53.1976 61.8306L48.297 63.8119C48.0999 63.892 47.8928 63.931 47.6812 63.931C47.005 63.931 46.3822 63.5138 46.1306 62.8895L45.5243 61.3929C45.3732 61.0217 45.0131 60.7821 44.6179 60.7821L44.5134 60.7881C43.8556 60.8587 43.1888 60.8937 42.531 60.8937C41.7657 60.8937 40.9944 60.8457 40.2385 60.7501L40.1145 60.7411C39.7273 60.7411 39.3702 60.9737 39.2151 61.3369L38.5833 62.825C38.3222 63.4413 37.7174 63.8399 37.0432 63.8399C36.8216 63.8399 36.6055 63.7949 36.4009 63.7089L31.5348 61.6425C31.1286 61.4694 30.813 61.1463 30.6459 60.7331C30.4783 60.3189 30.4813 59.8677 30.6559 59.4581L31.2852 57.9719C31.4563 57.5682 31.3382 57.1025 30.9976 56.8289C29.8871 55.936 28.8796 54.9101 28.0028 53.7776C27.8127 53.5335 27.5256 53.3984 27.2299 53.3984C27.1054 53.3984 26.9823 53.422 26.8623 53.471L25.3646 54.0777C25.1675 54.1568 24.9595 54.1978 24.7479 54.1978C24.0706 54.1978 23.4483 53.7796 23.1967 53.1573L21.2188 48.2547C21.0533 47.8456 21.0578 47.3929 21.2323 46.9827C21.4064 46.5715 21.7286 46.2539 22.1392 46.0878L23.6359 45.483C24.0421 45.32 24.2897 44.9068 24.2431 44.4711C24.0871 43.0485 24.0996 41.6104 24.2787 40.1958C24.3332 39.7626 24.0926 39.3439 23.6904 39.1728L22.2033 38.543C21.3584 38.1839 20.9627 37.2045 21.3209 36.3591L23.3863 31.4945C23.6474 30.8797 24.2516 30.4821 24.9264 30.4821C25.1475 30.4821 25.3641 30.5266 25.5692 30.6136L27.0574 31.2439C27.1804 31.2964 27.309 31.3219 27.438 31.3219C27.7291 31.3219 28.0113 31.1934 28.2009 30.9568C29.0932 29.8453 30.1187 28.8384 31.2497 27.9615C31.5958 27.6939 31.7214 27.2287 31.5573 26.8225L30.952 25.3249C30.6079 24.473 31.0216 23.4996 31.8714 23.1554L36.7735 21.1776C36.9716 21.097 37.1792 21.0575 37.3908 21.0575C38.0656 21.0575 38.6879 21.4747 38.9395 22.0985L39.5467 23.5961C39.6973 23.9678 40.0575 24.2064 40.4526 24.2064L40.5587 24.2004C41.2155 24.1293 41.8822 24.0933 42.5395 24.0933C43.3034 24.0933 44.0747 24.1418 44.8315 24.2379L44.9551 24.2459C45.3427 24.2459 45.6989 24.0148 45.8545 23.6511L46.4867 22.164C46.7473 21.5482 47.3521 21.1506 48.0259 21.1506C48.2475 21.1506 48.4636 21.1946 48.6687 21.2816L53.5333 23.347C54.3786 23.7062 54.7743 24.6866 54.4171 25.5304L53.7854 27.0176C53.6148 27.4198 53.7329 27.887 54.073 28.1616C55.179 29.049 56.1869 30.0749 57.0688 31.2104C57.2584 31.4535 57.5465 31.588 57.8411 31.588C57.9637 31.588 58.0877 31.5655 58.2063 31.5165L59.7044 30.9128C59.9025 30.8337 60.1101 30.7927 60.3212 30.7927C60.9975 30.7927 61.6223 31.2109 61.8739 31.8322L63.8522 36.7343C64.0183 37.1429 64.0128 37.5946 63.8392 38.0048C63.6656 38.4165 63.3435 38.7336 62.9323 38.9007L61.4347 39.506C61.029 39.67 60.7819 40.0837 60.8294 40.5174C60.984 41.9425 60.9715 43.3811 60.7919 44.7927C60.7369 45.2264 60.976 45.6446 61.3796 45.8157L62.8678 46.449C63.2745 46.62 63.5891 46.9422 63.7567 47.3558C63.9242 47.7695 63.9222 48.2217 63.7492 48.6294Z"/>
</mask>
<path d="M63.2484 45.5481L61.7613 44.9158C61.9494 43.4357 61.9649 41.926 61.8008 40.4124L63.2995 39.8061C64.6456 39.2614 65.3048 37.7152 64.7576 36.3666L62.7797 31.466C62.3646 30.4406 61.3691 29.8148 60.3212 29.8148C59.9935 29.8148 59.6599 29.8758 59.3383 30.0064L57.8406 30.6101C56.9072 29.4096 55.8488 28.3326 54.6843 27.3987L55.3165 25.9131C55.8833 24.573 55.2535 23.0154 53.9154 22.4471L49.0503 20.3807C48.7157 20.2397 48.3685 20.1721 48.0249 20.1721C46.9949 20.1721 46.0125 20.7769 45.5848 21.7818L44.9536 23.2685C44.1557 23.1669 43.3489 23.1159 42.5385 23.1159C41.8452 23.1159 41.1494 23.1529 40.4516 23.2289L39.8459 21.7308C39.4322 20.7054 38.4373 20.0796 37.3913 20.0796C37.0627 20.0796 36.7295 20.1411 36.4064 20.2727L31.5058 22.249C30.1572 22.7948 29.5019 24.3419 30.0456 25.6905L30.6509 27.1892C29.4474 28.1226 28.3719 29.1835 27.439 30.345L25.9509 29.7142C25.6172 29.5727 25.2686 29.5052 24.9264 29.5052C23.896 29.5052 22.9131 30.1109 22.4864 31.1138L20.421 35.9789C19.8533 37.317 20.4835 38.8762 21.8201 39.4444L23.3082 40.0742C23.1212 41.5543 23.1047 43.066 23.2702 44.5791L21.7726 45.1839C20.4225 45.7291 19.7672 47.2768 20.312 48.6239L22.2908 53.5255C22.704 54.5514 23.7009 55.1777 24.7474 55.1777C25.0755 55.1777 25.4091 55.1162 25.7308 54.9851L27.2299 54.3774C28.1628 55.5839 29.2228 56.6578 30.3858 57.5918L29.7555 59.0789C29.1858 60.4185 29.8165 61.9756 31.1541 62.5444L36.0197 64.6108C36.3534 64.7513 36.7005 64.8189 37.0442 64.8189C38.0741 64.8189 39.0585 64.2141 39.4842 63.2097L40.1165 61.7205C40.9138 61.8231 41.7217 61.8731 42.532 61.8731C43.2263 61.8731 43.9221 61.8371 44.6189 61.7615L45.2252 63.2572C45.6394 64.2851 46.6353 64.9104 47.6817 64.9104C48.0099 64.9104 48.3425 64.8489 48.6642 64.7198L53.5643 62.7395C54.9124 62.1952 55.5696 60.6486 55.0254 59.2995L54.4201 57.8008C55.6222 56.8679 56.6976 55.807 57.6315 54.644L59.1202 55.2763C59.4538 55.4188 59.801 55.4853 60.1436 55.4853C61.1746 55.4853 62.1585 54.8796 62.5847 53.8761L64.6501 49.0116C65.2163 47.6745 64.586 46.1123 63.2484 45.5481ZM63.7492 48.6294L61.6828 53.495C61.4222 54.1102 60.8179 54.5079 60.1426 54.5079C59.9215 54.5079 59.7049 54.4639 59.5013 54.3769L58.0132 53.7436C57.8901 53.6911 57.7591 53.6656 57.6305 53.6656C57.3414 53.6656 57.0578 53.7956 56.8682 54.0307C55.9743 55.1437 54.9484 56.1516 53.8199 57.027C53.4742 57.2956 53.3482 57.7608 53.5123 58.165L54.1175 59.6646C54.4612 60.5165 54.0485 61.4879 53.1976 61.8306L48.297 63.8119C48.0999 63.892 47.8928 63.931 47.6812 63.931C47.005 63.931 46.3822 63.5138 46.1306 62.8895L45.5243 61.3929C45.3732 61.0217 45.0131 60.7821 44.6179 60.7821L44.5134 60.7881C43.8556 60.8587 43.1888 60.8937 42.531 60.8937C41.7657 60.8937 40.9944 60.8457 40.2385 60.7501L40.1145 60.7411C39.7273 60.7411 39.3702 60.9737 39.2151 61.3369L38.5833 62.825C38.3222 63.4413 37.7174 63.8399 37.0432 63.8399C36.8216 63.8399 36.6055 63.7949 36.4009 63.7089L31.5348 61.6425C31.1286 61.4694 30.813 61.1463 30.6459 60.7331C30.4783 60.3189 30.4813 59.8677 30.6559 59.4581L31.2852 57.9719C31.4563 57.5682 31.3382 57.1025 30.9976 56.8289C29.8871 55.936 28.8796 54.9101 28.0028 53.7776C27.8127 53.5335 27.5256 53.3984 27.2299 53.3984C27.1054 53.3984 26.9823 53.422 26.8623 53.471L25.3646 54.0777C25.1675 54.1568 24.9595 54.1978 24.7479 54.1978C24.0706 54.1978 23.4483 53.7796 23.1967 53.1573L21.2188 48.2547C21.0533 47.8456 21.0578 47.3929 21.2323 46.9827C21.4064 46.5715 21.7286 46.2539 22.1392 46.0878L23.6359 45.483C24.0421 45.32 24.2897 44.9068 24.2431 44.4711C24.0871 43.0485 24.0996 41.6104 24.2787 40.1958C24.3332 39.7626 24.0926 39.3439 23.6904 39.1728L22.2033 38.543C21.3584 38.1839 20.9627 37.2045 21.3209 36.3591L23.3863 31.4945C23.6474 30.8797 24.2516 30.4821 24.9264 30.4821C25.1475 30.4821 25.3641 30.5266 25.5692 30.6136L27.0574 31.2439C27.1804 31.2964 27.309 31.3219 27.438 31.3219C27.7291 31.3219 28.0113 31.1934 28.2009 30.9568C29.0932 29.8453 30.1187 28.8384 31.2497 27.9615C31.5958 27.6939 31.7214 27.2287 31.5573 26.8225L30.952 25.3249C30.6079 24.473 31.0216 23.4996 31.8714 23.1554L36.7735 21.1776C36.9716 21.097 37.1792 21.0575 37.3908 21.0575C38.0656 21.0575 38.6879 21.4747 38.9395 22.0985L39.5467 23.5961C39.6973 23.9678 40.0575 24.2064 40.4526 24.2064L40.5587 24.2004C41.2155 24.1293 41.8822 24.0933 42.5395 24.0933C43.3034 24.0933 44.0747 24.1418 44.8315 24.2379L44.9551 24.2459C45.3427 24.2459 45.6989 24.0148 45.8545 23.6511L46.4867 22.164C46.7473 21.5482 47.3521 21.1506 48.0259 21.1506C48.2475 21.1506 48.4636 21.1946 48.6687 21.2816L53.5333 23.347C54.3786 23.7062 54.7743 24.6866 54.4171 25.5304L53.7854 27.0176C53.6148 27.4198 53.7329 27.887 54.073 28.1616C55.179 29.049 56.1869 30.0749 57.0688 31.2104C57.2584 31.4535 57.5465 31.588 57.8411 31.588C57.9637 31.588 58.0877 31.5655 58.2063 31.5165L59.7044 30.9128C59.9025 30.8337 60.1101 30.7927 60.3212 30.7927C60.9975 30.7927 61.6223 31.2109 61.8739 31.8322L63.8522 36.7343C64.0183 37.1429 64.0128 37.5946 63.8392 38.0048C63.6656 38.4165 63.3435 38.7336 62.9323 38.9007L61.4347 39.506C61.029 39.67 60.7819 40.0837 60.8294 40.5174C60.984 41.9425 60.9715 43.3811 60.7919 44.7927C60.7369 45.2264 60.976 45.6446 61.3796 45.8157L62.8678 46.449C63.2745 46.62 63.5891 46.9422 63.7567 47.3558C63.9242 47.7695 63.9222 48.2217 63.7492 48.6294Z" fill="#1B127D"/>
<path d="M63.2484 45.5481L61.7613 44.9158C61.9494 43.4357 61.9649 41.926 61.8008 40.4124L63.2995 39.8061C64.6456 39.2614 65.3048 37.7152 64.7576 36.3666L62.7797 31.466C62.3646 30.4406 61.3691 29.8148 60.3212 29.8148C59.9935 29.8148 59.6599 29.8758 59.3383 30.0064L57.8406 30.6101C56.9072 29.4096 55.8488 28.3326 54.6843 27.3987L55.3165 25.9131C55.8833 24.573 55.2535 23.0154 53.9154 22.4471L49.0503 20.3807C48.7157 20.2397 48.3685 20.1721 48.0249 20.1721C46.9949 20.1721 46.0125 20.7769 45.5848 21.7818L44.9536 23.2685C44.1557 23.1669 43.3489 23.1159 42.5385 23.1159C41.8452 23.1159 41.1494 23.1529 40.4516 23.2289L39.8459 21.7308C39.4322 20.7054 38.4373 20.0796 37.3913 20.0796C37.0627 20.0796 36.7295 20.1411 36.4064 20.2727L31.5058 22.249C30.1572 22.7948 29.5019 24.3419 30.0456 25.6905L30.6509 27.1892C29.4474 28.1226 28.3719 29.1835 27.439 30.345L25.9509 29.7142C25.6172 29.5727 25.2686 29.5052 24.9264 29.5052C23.896 29.5052 22.9131 30.1109 22.4864 31.1138L20.421 35.9789C19.8533 37.317 20.4835 38.8762 21.8201 39.4444L23.3082 40.0742C23.1212 41.5543 23.1047 43.066 23.2702 44.5791L21.7726 45.1839C20.4225 45.7291 19.7672 47.2768 20.312 48.6239L22.2908 53.5255C22.704 54.5514 23.7009 55.1777 24.7474 55.1777C25.0755 55.1777 25.4091 55.1162 25.7308 54.9851L27.2299 54.3774C28.1628 55.5839 29.2228 56.6578 30.3858 57.5918L29.7555 59.0789C29.1858 60.4185 29.8165 61.9756 31.1541 62.5444L36.0197 64.6108C36.3534 64.7513 36.7005 64.8189 37.0442 64.8189C38.0741 64.8189 39.0585 64.2141 39.4842 63.2097L40.1165 61.7205C40.9138 61.8231 41.7217 61.8731 42.532 61.8731C43.2263 61.8731 43.9221 61.8371 44.6189 61.7615L45.2252 63.2572C45.6394 64.2851 46.6353 64.9104 47.6817 64.9104C48.0099 64.9104 48.3425 64.8489 48.6642 64.7198L53.5643 62.7395C54.9124 62.1952 55.5696 60.6486 55.0254 59.2995L54.4201 57.8008C55.6222 56.8679 56.6976 55.807 57.6315 54.644L59.1202 55.2763C59.4538 55.4188 59.801 55.4853 60.1436 55.4853C61.1746 55.4853 62.1585 54.8796 62.5847 53.8761L64.6501 49.0116C65.2163 47.6745 64.586 46.1123 63.2484 45.5481ZM63.7492 48.6294L61.6828 53.495C61.4222 54.1102 60.8179 54.5079 60.1426 54.5079C59.9215 54.5079 59.7049 54.4639 59.5013 54.3769L58.0132 53.7436C57.8901 53.6911 57.7591 53.6656 57.6305 53.6656C57.3414 53.6656 57.0578 53.7956 56.8682 54.0307C55.9743 55.1437 54.9484 56.1516 53.8199 57.027C53.4742 57.2956 53.3482 57.7608 53.5123 58.165L54.1175 59.6646C54.4612 60.5165 54.0485 61.4879 53.1976 61.8306L48.297 63.8119C48.0999 63.892 47.8928 63.931 47.6812 63.931C47.005 63.931 46.3822 63.5138 46.1306 62.8895L45.5243 61.3929C45.3732 61.0217 45.0131 60.7821 44.6179 60.7821L44.5134 60.7881C43.8556 60.8587 43.1888 60.8937 42.531 60.8937C41.7657 60.8937 40.9944 60.8457 40.2385 60.7501L40.1145 60.7411C39.7273 60.7411 39.3702 60.9737 39.2151 61.3369L38.5833 62.825C38.3222 63.4413 37.7174 63.8399 37.0432 63.8399C36.8216 63.8399 36.6055 63.7949 36.4009 63.7089L31.5348 61.6425C31.1286 61.4694 30.813 61.1463 30.6459 60.7331C30.4783 60.3189 30.4813 59.8677 30.6559 59.4581L31.2852 57.9719C31.4563 57.5682 31.3382 57.1025 30.9976 56.8289C29.8871 55.936 28.8796 54.9101 28.0028 53.7776C27.8127 53.5335 27.5256 53.3984 27.2299 53.3984C27.1054 53.3984 26.9823 53.422 26.8623 53.471L25.3646 54.0777C25.1675 54.1568 24.9595 54.1978 24.7479 54.1978C24.0706 54.1978 23.4483 53.7796 23.1967 53.1573L21.2188 48.2547C21.0533 47.8456 21.0578 47.3929 21.2323 46.9827C21.4064 46.5715 21.7286 46.2539 22.1392 46.0878L23.6359 45.483C24.0421 45.32 24.2897 44.9068 24.2431 44.4711C24.0871 43.0485 24.0996 41.6104 24.2787 40.1958C24.3332 39.7626 24.0926 39.3439 23.6904 39.1728L22.2033 38.543C21.3584 38.1839 20.9627 37.2045 21.3209 36.3591L23.3863 31.4945C23.6474 30.8797 24.2516 30.4821 24.9264 30.4821C25.1475 30.4821 25.3641 30.5266 25.5692 30.6136L27.0574 31.2439C27.1804 31.2964 27.309 31.3219 27.438 31.3219C27.7291 31.3219 28.0113 31.1934 28.2009 30.9568C29.0932 29.8453 30.1187 28.8384 31.2497 27.9615C31.5958 27.6939 31.7214 27.2287 31.5573 26.8225L30.952 25.3249C30.6079 24.473 31.0216 23.4996 31.8714 23.1554L36.7735 21.1776C36.9716 21.097 37.1792 21.0575 37.3908 21.0575C38.0656 21.0575 38.6879 21.4747 38.9395 22.0985L39.5467 23.5961C39.6973 23.9678 40.0575 24.2064 40.4526 24.2064L40.5587 24.2004C41.2155 24.1293 41.8822 24.0933 42.5395 24.0933C43.3034 24.0933 44.0747 24.1418 44.8315 24.2379L44.9551 24.2459C45.3427 24.2459 45.6989 24.0148 45.8545 23.6511L46.4867 22.164C46.7473 21.5482 47.3521 21.1506 48.0259 21.1506C48.2475 21.1506 48.4636 21.1946 48.6687 21.2816L53.5333 23.347C54.3786 23.7062 54.7743 24.6866 54.4171 25.5304L53.7854 27.0176C53.6148 27.4198 53.7329 27.887 54.073 28.1616C55.179 29.049 56.1869 30.0749 57.0688 31.2104C57.2584 31.4535 57.5465 31.588 57.8411 31.588C57.9637 31.588 58.0877 31.5655 58.2063 31.5165L59.7044 30.9128C59.9025 30.8337 60.1101 30.7927 60.3212 30.7927C60.9975 30.7927 61.6223 31.2109 61.8739 31.8322L63.8522 36.7343C64.0183 37.1429 64.0128 37.5946 63.8392 38.0048C63.6656 38.4165 63.3435 38.7336 62.9323 38.9007L61.4347 39.506C61.029 39.67 60.7819 40.0837 60.8294 40.5174C60.984 41.9425 60.9715 43.3811 60.7919 44.7927C60.7369 45.2264 60.976 45.6446 61.3796 45.8157L62.8678 46.449C63.2745 46.62 63.5891 46.9422 63.7567 47.3558C63.9242 47.7695 63.9222 48.2217 63.7492 48.6294Z" stroke="#1B127D" stroke-width="1.2" mask="url(#path-8-outside-1_1216_15606)"/>
<path d="M42.5361 44.8948C37.6495 44.8948 33.6885 46.8658 33.6885 49.2968L33.6875 51.5768H51.3837V49.2968C51.3837 46.8658 47.4226 44.8948 42.5361 44.8948Z" stroke="#1B127D" stroke-width="1.8" stroke-miterlimit="10"/>
<path d="M42.5351 32.5823C40.29 32.5823 38.4697 34.405 38.4697 36.6534V38.0772C38.4697 40.3251 40.29 42.1478 42.5351 42.1478C44.7801 42.1478 46.6004 40.3251 46.6004 38.0767V36.6529C46.6004 34.405 44.7801 32.5823 42.5351 32.5823Z" stroke="#1B127D" stroke-width="1.8" stroke-miterlimit="10"/>
<defs>
<clipPath id="clip0_1216_15606">
<rect width="88" height="88" fill="white" transform="translate(12.5947 11)"/>
</clipPath>
</defs>
</svg>
