<svg width="56" height="57" viewBox="0 0 56 57" fill="none" xmlns="http://www.w3.org/2000/svg">
<path d="M26.8047 47.6494C26.6328 47.6494 26.4688 47.6182 26.3125 47.5557C26.1562 47.4775 26.0234 47.376 25.9141 47.251L4.30469 23.251C4.11719 23.0322 4.01562 22.7822 4 22.501C3.98438 22.2041 4.0625 21.9463 4.23438 21.7275L11.4297 12.1182C11.5547 11.9619 11.6953 11.8447 11.8516 11.7666C12.0234 11.6885 12.2031 11.6494 12.3906 11.6494H26.8047C27.1328 11.6494 27.4141 11.7666 27.6484 12.001C27.8828 12.2354 28 12.5166 28 12.8447C28 13.1729 27.8828 13.4541 27.6484 13.6885C27.4141 13.9229 27.1328 14.04 26.8047 14.04H13L6.74219 22.3604L26.8047 44.6494L46.8438 22.3604L40.6094 14.04H36.3906C36.0625 14.04 35.7812 13.9229 35.5469 13.6885C35.3125 13.4541 35.1953 13.1729 35.1953 12.8447C35.1953 12.5166 35.3125 12.2354 35.5469 12.001C35.7812 11.7666 36.0625 11.6494 36.3906 11.6494H41.1953C41.3828 11.6494 41.5625 11.6885 41.7344 11.7666C41.9062 11.8447 42.0469 11.9619 42.1562 12.1182L49.3516 21.7275C49.5234 21.9463 49.6016 22.2041 49.5859 22.501C49.5859 22.7822 49.4844 23.0322 49.2812 23.251L27.6953 47.251C27.5859 47.376 27.4531 47.4775 27.2969 47.5557C27.1406 47.6182 26.9766 47.6494 26.8047 47.6494ZM31.6094 28.4307C31.2656 28.4307 30.9766 28.3135 30.7422 28.0791C30.5078 27.8447 30.3906 27.5635 30.3906 27.2354C30.3906 26.4072 30.2344 25.6338 29.9219 24.915C29.6094 24.1807 29.1797 23.54 28.6328 22.9932C28.1016 22.4463 27.4688 22.0166 26.7344 21.7041C26 21.3916 25.2188 21.2354 24.3906 21.2354C24.0625 21.2354 23.7812 21.1182 23.5469 20.8838C23.3125 20.6494 23.1953 20.3682 23.1953 20.04C23.1953 19.7119 23.3125 19.4307 23.5469 19.1963C23.7812 18.9619 24.0625 18.8447 24.3906 18.8447C25.2188 18.8447 26 18.6885 26.7344 18.376C27.4688 18.0635 28.1016 17.6338 28.6328 17.0869C29.1797 16.54 29.6094 15.9072 29.9219 15.1885C30.2344 14.4541 30.3906 13.6729 30.3906 12.8447C30.3906 12.5166 30.5078 12.2354 30.7422 12.001C30.9766 11.7666 31.2656 11.6494 31.6094 11.6494C31.9375 11.6494 32.2188 11.7666 32.4531 12.001C32.6875 12.2354 32.8047 12.5166 32.8047 12.8447C32.8047 13.6729 32.9609 14.4541 33.2734 15.1885C33.5859 15.9072 34.0156 16.54 34.5625 17.0869C35.1094 17.6338 35.7422 18.0635 36.4609 18.376C37.1953 18.6885 37.9766 18.8447 38.8047 18.8447C39.1328 18.8447 39.4141 18.9619 39.6484 19.1963C39.8828 19.4307 40 19.7119 40 20.04C40 20.3682 39.8828 20.6494 39.6484 20.8838C39.4141 21.1182 39.1328 21.2354 38.8047 21.2354C37.9766 21.2354 37.1953 21.3916 36.4609 21.7041C35.7422 22.0166 35.1094 22.4463 34.5625 22.9932C34.0156 23.54 33.5859 24.1807 33.2734 24.915C32.9609 25.6338 32.8047 26.4072 32.8047 27.2354C32.8047 27.5635 32.6875 27.8447 32.4531 28.0791C32.2188 28.3135 31.9375 28.4307 31.6094 28.4307ZM28.7266 20.04C29.3203 20.3994 29.8594 20.8213 30.3438 21.3057C30.8281 21.79 31.25 22.3291 31.6094 22.9229C31.9531 22.3291 32.3672 21.79 32.8516 21.3057C33.3516 20.8213 33.8906 20.3994 34.4688 20.04C33.8906 19.6807 33.3516 19.2588 32.8516 18.7744C32.3672 18.29 31.9531 17.751 31.6094 17.1572C31.25 17.751 30.8281 18.29 30.3438 18.7744C29.8594 19.2588 29.3203 19.6807 28.7266 20.04Z" fill="#1B127D"/>
</svg>
