<svg width="40" height="41" viewBox="0 0 40 41" fill="none" xmlns="http://www.w3.org/2000/svg">
<path d="M11.5186 22.04C11.5186 22.2588 11.4404 22.4463 11.2842 22.6025C11.1279 22.7588 10.9404 22.8369 10.7217 22.8369C10.5029 22.8369 10.3154 22.7588 10.1592 22.6025C10.0029 22.4463 9.9248 22.2588 9.9248 22.04C9.9248 21.8213 10.0029 21.6338 10.1592 21.4775C10.3154 21.3213 10.5029 21.2432 10.7217 21.2432C10.9404 21.2432 11.1279 21.3213 11.2842 21.4775C11.4404 21.6338 11.5186 21.8213 11.5186 22.04ZM14.7217 22.04C14.7217 22.2588 14.6436 22.4463 14.4873 22.6025C14.3311 22.7588 14.1436 22.8369 13.9248 22.8369C13.6956 22.8369 13.5029 22.7588 13.3467 22.6025C13.1904 22.4463 13.1123 22.2588 13.1123 22.04C13.1123 21.8213 13.1904 21.6338 13.3467 21.4775C13.5029 21.3213 13.6956 21.2432 13.9248 21.2432C14.1436 21.2432 14.3311 21.3213 14.4873 21.4775C14.6436 21.6338 14.7217 21.8213 14.7217 22.04ZM17.9248 22.04C17.9248 22.2588 17.8467 22.4463 17.6904 22.6025C17.5342 22.7588 17.3415 22.8369 17.1123 22.8369C16.8936 22.8369 16.7061 22.7588 16.5498 22.6025C16.3936 22.4463 16.3154 22.2588 16.3154 22.04C16.3154 21.8213 16.3936 21.6338 16.5498 21.4775C16.7061 21.3213 16.8936 21.2432 17.1123 21.2432C17.3415 21.2432 17.5342 21.3213 17.6904 21.4775C17.8467 21.6338 17.9248 21.8213 17.9248 22.04ZM21.1123 22.04C21.1123 22.2588 21.0342 22.4463 20.8779 22.6025C20.7217 22.7588 20.5342 22.8369 20.3154 22.8369C20.0967 22.8369 19.9092 22.7588 19.7529 22.6025C19.5967 22.4463 19.5186 22.2588 19.5186 22.04C19.5186 21.8213 19.5967 21.6338 19.7529 21.4775C19.9092 21.3213 20.0967 21.2432 20.3154 21.2432C20.5342 21.2432 20.7217 21.3213 20.8779 21.4775C21.0342 21.6338 21.1123 21.8213 21.1123 22.04ZM24.3154 22.04C24.3154 22.2588 24.2373 22.4463 24.0811 22.6025C23.9248 22.7588 23.7373 22.8369 23.5186 22.8369C23.2998 22.8369 23.1123 22.7588 22.9561 22.6025C22.7998 22.4463 22.7217 22.2588 22.7217 22.04C22.7217 21.8213 22.7998 21.6338 22.9561 21.4775C23.1123 21.3213 23.2998 21.2432 23.5186 21.2432C23.7373 21.2432 23.9248 21.3213 24.0811 21.4775C24.2373 21.6338 24.3154 21.8213 24.3154 22.04ZM27.5186 22.04C27.5186 22.2588 27.4404 22.4463 27.2842 22.6025C27.1279 22.7588 26.9404 22.8369 26.7217 22.8369C26.5029 22.8369 26.3154 22.7588 26.1592 22.6025C26.0029 22.4463 25.9248 22.2588 25.9248 22.04C25.9248 21.8213 26.0029 21.6338 26.1592 21.4775C26.3154 21.3213 26.5029 21.2432 26.7217 21.2432C26.9404 21.2432 27.1279 21.3213 27.2842 21.4775C27.4404 21.6338 27.5186 21.8213 27.5186 22.04ZM19.5186 31.6338C19.5186 31.863 19.4404 32.0557 19.2842 32.2119C19.1279 32.3682 18.9404 32.4463 18.7217 32.4463C18.5029 32.4463 18.3154 32.3682 18.1592 32.2119C18.0029 32.0557 17.9248 31.863 17.9248 31.6338C17.9248 31.415 18.0029 31.2275 18.1592 31.0713C18.3154 30.915 18.5029 30.8369 18.7217 30.8369C18.9404 30.8369 19.1279 30.915 19.2842 31.0713C19.4404 31.2275 19.5186 31.415 19.5186 31.6338ZM9.9248 25.2432C9.9248 25.4619 9.84668 25.6494 9.69043 25.8057C9.53418 25.9619 9.34147 26.04 9.1123 26.04C8.89355 26.04 8.70605 25.9619 8.5498 25.8057C8.39355 25.6494 8.31543 25.4619 8.31543 25.2432C8.31543 25.0244 8.39355 24.8369 8.5498 24.6807C8.70605 24.5244 8.89355 24.4463 9.1123 24.4463C9.34147 24.4463 9.53418 24.5244 9.69043 24.6807C9.84668 24.8369 9.9248 25.0244 9.9248 25.2432ZM13.1123 25.2432C13.1123 25.4619 13.0342 25.6494 12.8779 25.8057C12.7217 25.9619 12.5342 26.04 12.3154 26.04C12.0967 26.04 11.9092 25.9619 11.7529 25.8057C11.5967 25.6494 11.5186 25.4619 11.5186 25.2432C11.5186 25.0244 11.5967 24.8369 11.7529 24.6807C11.9092 24.5244 12.0967 24.4463 12.3154 24.4463C12.5342 24.4463 12.7217 24.5244 12.8779 24.6807C13.0342 24.8369 13.1123 25.0244 13.1123 25.2432ZM16.3154 25.2432C16.3154 25.4619 16.2373 25.6494 16.0811 25.8057C15.9248 25.9619 15.7373 26.04 15.5186 26.04C15.2998 26.04 15.1123 25.9619 14.9561 25.8057C14.7998 25.6494 14.7217 25.4619 14.7217 25.2432C14.7217 25.0244 14.7998 24.8369 14.9561 24.6807C15.1123 24.5244 15.2998 24.4463 15.5186 24.4463C15.7373 24.4463 15.9248 24.5244 16.0811 24.6807C16.2373 24.8369 16.3154 25.0244 16.3154 25.2432ZM19.5186 25.2432C19.5186 25.4619 19.4404 25.6494 19.2842 25.8057C19.1279 25.9619 18.9404 26.04 18.7217 26.04C18.5029 26.04 18.3154 25.9619 18.1592 25.8057C18.0029 25.6494 17.9248 25.4619 17.9248 25.2432C17.9248 25.0244 18.0029 24.8369 18.1592 24.6807C18.3154 24.5244 18.5029 24.4463 18.7217 24.4463C18.9404 24.4463 19.1279 24.5244 19.2842 24.6807C19.4404 24.8369 19.5186 25.0244 19.5186 25.2432ZM22.7217 25.2432C22.7217 25.4619 22.6436 25.6494 22.4873 25.8057C22.3311 25.9619 22.1436 26.04 21.9248 26.04C21.6956 26.04 21.5029 25.9619 21.3467 25.8057C21.1904 25.6494 21.1123 25.4619 21.1123 25.2432C21.1123 25.0244 21.1904 24.8369 21.3467 24.6807C21.5029 24.5244 21.6956 24.4463 21.9248 24.4463C22.1436 24.4463 22.3311 24.5244 22.4873 24.6807C22.6436 24.8369 22.7217 25.0244 22.7217 25.2432ZM25.9248 25.2432C25.9248 25.4619 25.8467 25.6494 25.6904 25.8057C25.5342 25.9619 25.3415 26.04 25.1123 26.04C24.8936 26.04 24.7061 25.9619 24.5498 25.8057C24.3936 25.6494 24.3154 25.4619 24.3154 25.2432C24.3154 25.0244 24.3936 24.8369 24.5498 24.6807C24.7061 24.5244 24.8936 24.4463 25.1123 24.4463C25.3415 24.4463 25.5342 24.5244 25.6904 24.6807C25.8467 24.8369 25.9248 25.0244 25.9248 25.2432ZM29.1123 25.2432C29.1123 25.4619 29.0342 25.6494 28.8779 25.8057C28.7217 25.9619 28.5342 26.04 28.3154 26.04C28.0967 26.04 27.9092 25.9619 27.7529 25.8057C27.5967 25.6494 27.5186 25.4619 27.5186 25.2432C27.5186 25.0244 27.5967 24.8369 27.7529 24.6807C27.9092 24.5244 28.0967 24.4463 28.3154 24.4463C28.5342 24.4463 28.7217 24.5244 28.8779 24.6807C29.0342 24.8369 29.1123 25.0244 29.1123 25.2432ZM26.7217 16.4463H21.9248C21.6956 16.4463 21.5029 16.3682 21.3467 16.2119C21.1904 16.0557 21.1123 15.863 21.1123 15.6338C21.1123 15.415 21.1904 15.2275 21.3467 15.0713C21.5029 14.915 21.6956 14.8369 21.9248 14.8369H26.7217C26.9404 14.8369 27.1279 14.915 27.2842 15.0713C27.4404 15.2275 27.5186 15.415 27.5186 15.6338C27.5186 15.863 27.4404 16.0557 27.2842 16.2119C27.1279 16.3682 26.9404 16.4463 26.7217 16.4463ZM15.5186 10.04H13.9248C13.6956 10.04 13.5029 9.96191 13.3467 9.80566C13.1904 9.64941 13.1123 9.46191 13.1123 9.24316C13.1123 9.02441 13.1904 8.83691 13.3467 8.68066C13.5029 8.52441 13.6956 8.44629 13.9248 8.44629H15.5186C15.7373 8.44629 15.9248 8.52441 16.0811 8.68066C16.2373 8.83691 16.3154 9.02441 16.3154 9.24316C16.3154 9.46191 16.2373 9.64941 16.0811 9.80566C15.9248 9.96191 15.7373 10.04 15.5186 10.04ZM15.5186 13.2432H13.9248C13.6956 13.2432 13.5029 13.165 13.3467 13.0088C13.1904 12.8525 13.1123 12.665 13.1123 12.4463C13.1123 12.2171 13.1904 12.0244 13.3467 11.8682C13.5029 11.7119 13.6956 11.6338 13.9248 11.6338H15.5186C15.7373 11.6338 15.9248 11.7119 16.0811 11.8682C16.2373 12.0244 16.3154 12.2171 16.3154 12.4463C16.3154 12.665 16.2373 12.8525 16.0811 13.0088C15.9248 13.165 15.7373 13.2432 15.5186 13.2432ZM33.3779 26.665L30.7217 18.7119V14.04C30.7217 13.3734 30.4873 12.8057 30.0186 12.3369C29.5498 11.8682 28.9821 11.6338 28.3154 11.6338H27.5186V10.04H31.5186C31.7373 10.04 31.9248 9.96191 32.0811 9.80566C32.2373 9.64941 32.3154 9.46191 32.3154 9.24316V4.44629C32.3154 4.21712 32.2373 4.02441 32.0811 3.86816C31.9248 3.71191 31.7373 3.63379 31.5186 3.63379H21.9248C21.6956 3.63379 21.5029 3.71191 21.3467 3.86816C21.1904 4.02441 21.1123 4.21712 21.1123 4.44629V9.24316C21.1123 9.46191 21.1904 9.64941 21.3467 9.80566C21.5029 9.96191 21.6956 10.04 21.9248 10.04H25.9248V11.6338H19.5186V6.04004C19.5186 5.82129 19.4404 5.63379 19.2842 5.47754C19.1279 5.32129 18.9404 5.24316 18.7217 5.24316H10.7217C10.5029 5.24316 10.3154 5.32129 10.1592 5.47754C10.0029 5.63379 9.9248 5.82129 9.9248 6.04004V11.6338H9.1123C8.45605 11.6338 7.89355 11.8682 7.4248 12.3369C6.95605 12.8057 6.72168 13.3734 6.72168 14.04V18.7119L4.06543 26.665C3.90918 27.1234 3.77897 27.6807 3.6748 28.3369C3.57064 28.9827 3.51855 29.5505 3.51855 30.04V33.2432C3.51855 33.8994 3.75293 34.4619 4.22168 34.9307C4.69043 35.3994 5.25814 35.6338 5.9248 35.6338H31.5186C32.1852 35.6338 32.7529 35.3994 33.2217 34.9307C33.6904 34.4619 33.9248 33.8994 33.9248 33.2432V30.04C33.9248 29.5505 33.8675 28.9827 33.7529 28.3369C33.6488 27.6807 33.5238 27.1234 33.3779 26.665ZM22.7217 5.24316H30.7217V8.44629H22.7217V5.24316ZM11.5186 6.83691H17.9248V14.8369H11.5186V6.83691ZM9.1123 13.2432H9.9248V15.6338C9.9248 15.863 10.0029 16.0557 10.1592 16.2119C10.3154 16.3682 10.5029 16.4463 10.7217 16.4463H18.7217C18.9404 16.4463 19.1279 16.3682 19.2842 16.2119C19.4404 16.0557 19.5186 15.863 19.5186 15.6338V13.2432H28.3154C28.5342 13.2432 28.7217 13.3213 28.8779 13.4775C29.0342 13.6338 29.1123 13.8213 29.1123 14.04V18.04H8.31543V14.04C8.31543 13.8213 8.39355 13.6338 8.5498 13.4775C8.70605 13.3213 8.89355 13.2432 9.1123 13.2432ZM8.09668 19.6338H29.3467L31.8467 27.1807C31.8779 27.2536 31.904 27.3317 31.9248 27.415C31.9561 27.4984 31.9821 27.5869 32.0029 27.6807C31.9196 27.6702 31.8363 27.6598 31.7529 27.6494C31.68 27.639 31.6019 27.6338 31.5186 27.6338H5.9248C5.84147 27.6338 5.75814 27.639 5.6748 27.6494C5.59147 27.6598 5.51335 27.6702 5.44043 27.6807C5.46126 27.5869 5.4821 27.4984 5.50293 27.415C5.53418 27.3317 5.56022 27.2536 5.58105 27.1807L8.09668 19.6338ZM31.5186 34.04H5.9248C5.69564 34.04 5.50293 33.9619 5.34668 33.8057C5.19043 33.6494 5.1123 33.4619 5.1123 33.2432V30.04C5.1123 29.8213 5.19043 29.6338 5.34668 29.4775C5.50293 29.3213 5.69564 29.2432 5.9248 29.2432H31.5186C31.7373 29.2432 31.9248 29.3213 32.0811 29.4775C32.2373 29.6338 32.3154 29.8213 32.3154 30.04V33.2432C32.3154 33.4619 32.2373 33.6494 32.0811 33.8057C31.9248 33.9619 31.7373 34.04 31.5186 34.04Z" fill="#1B127D"/>
</svg>
