<svg width="101" height="99" viewBox="0 0 101 99" fill="none" xmlns="http://www.w3.org/2000/svg">
<g clip-path="url(#clip0_1216_15580)">
<rect x="12.0928" y="11" width="88" height="88" fill="#1B127D"/>
<path d="M12.383 36.5264C18.5268 30.5507 23.7966 21.478 31.3701 10.9106" stroke="#DFE4E8" stroke-opacity="0.5"/>
<path d="M12.0841 70.5504C15.9724 68.421 19.6099 64.9972 22.6678 59.8469C36.2564 36.9608 49.3682 10.4988 68.6783 19.0811C80.4684 24.3211 93.0583 35.9599 100.696 48.1915M89.2768 99.3204C89.4855 99.0963 89.6918 98.8754 89.8956 98.6577C94.4348 93.8093 97.9568 91.1756 100.652 88.6008" stroke="#DFE4E8" stroke-opacity="0.5"/>
<path d="M12.368 52.9121C15.8104 50.0647 19.0874 45.8875 22.0204 39.9042C29.0431 25.5778 38.6957 14.9496 50.1126 10.8086M100.522 27.4547C92.8826 22.4074 84.8919 16.6796 76.7514 12.779C75.128 12.0011 73.5214 11.3459 71.9328 10.8086" stroke="#DFE4E8" stroke-opacity="0.5"/>
<path d="M52.6019 99.1388C56.2736 90.4713 61.7723 85.7767 69.0057 78.7694C80.3168 67.8118 74.6612 51.9054 69.0057 49.4311C63.3501 46.9568 49.2112 47.31 44.9695 73.1135C43.2367 83.6547 43.7455 92.4262 43.1945 99.1388" stroke="#DFE4E8" stroke-opacity="0.5"/>
<path d="M12.4472 92.7255C19.8487 91.9426 23.8294 84.9561 25.0512 80.5575L43.1678 42.975C47.2794 33.4027 60.3593 19.115 79.7865 38.5421C99.2136 57.9693 92.7231 73.8079 87.0495 79.2989C82.8448 81.9898 75.9622 88.6197 70.3887 99.2224" stroke="#DFE4E8" stroke-opacity="0.5"/>
</g>
<rect x="0.84668" y="0.579468" width="82" height="83" fill="white"/>
<rect x="0.84668" y="0.579468" width="82" height="83" stroke="#DFE4E8"/>
<g clip-path="url(#clip1_1216_15580)">
<path fill-rule="evenodd" clip-rule="evenodd" d="M51.077 20.0795H55.6006V33.1797C57.8915 33.6454 59.6105 35.6775 59.6006 38.1035C59.5886 40.5105 57.8738 42.5191 55.6006 42.98V56.0795H51.0753L50.7772 55.647C47.4864 50.8728 43.6083 47.1042 37.5985 47.0795H35.7427L37.7156 61.8762L30.9144 63.2364L25.8482 47.0247C24.094 46.7677 22.6002 45.6295 21.5399 44.1118C20.3263 42.3745 19.6006 40.0457 19.6006 37.5795C19.6006 32.6478 22.5754 29.0795 26.6006 29.0795H37.5986C43.5906 29.0614 47.4799 25.2687 50.7787 20.5098L51.077 20.0795ZM55.6006 40.9093V35.2507C56.7697 35.6648 57.6057 36.7834 57.6006 38.0949C57.5939 39.3946 56.7596 40.4993 55.6006 40.9093ZM27.9607 47.0795H33.725L35.4854 60.2826L32.2866 60.9224L27.9607 47.0795ZM39.6006 30.9468V45.2128C38.9596 45.1279 38.2948 45.0822 37.6046 45.0795C37.6046 45.0795 41.8957 45.0795 37.6001 45.0795C33.3045 45.0795 26.6006 45.0795 26.6006 45.0795C25.3711 45.0795 24.1433 44.3461 23.1795 42.9664C22.2204 41.5935 21.6006 39.6722 21.6006 37.5795C21.6006 33.3932 24.0084 31.0795 26.6012 31.0795C26.6012 31.0795 33.305 31.0795 37.6005 31.0795L37.6035 31.0795C38.2939 31.0774 38.9591 31.0319 39.6006 30.9468ZM41.6006 30.5366C46.2073 29.2432 49.4756 25.8081 52.1207 22.0795H53.6006V54.0795H52.1223C49.478 50.3327 46.2147 46.9101 41.6006 45.6212V30.5366Z" fill="#1B127D"/>
<path d="M64.3128 28.7246L60.4658 30.9456L59.4658 29.2136L63.3128 26.9926L64.3128 28.7246Z" fill="#1B127D"/>
<path d="M62.6006 39.0795H66.6006V37.0795H62.6006V39.0795Z" fill="#1B127D"/>
<path d="M64.3128 47.4343L60.4658 45.2133L59.4658 46.9453L63.3128 49.1663L64.3128 47.4343Z" fill="#1B127D"/>
</g>
<defs>
<clipPath id="clip0_1216_15580">
<rect width="88" height="88" fill="white" transform="translate(12.0928 11)"/>
</clipPath>
<clipPath id="clip1_1216_15580">
<rect width="48" height="48" fill="white" transform="translate(18.6006 18.0795)"/>
</clipPath>
</defs>
</svg>
