<svg width="48" height="49" viewBox="0 0 48 49" fill="none" xmlns="http://www.w3.org/2000/svg">
<rect width="48" height="48" transform="translate(0 0.0400391)" fill="#1B127D"/>
<path d="M35.2266 24.4111L28.0195 17.2158C27.9023 17.0986 27.7617 17.04 27.5977 17.04C27.4336 17.04 27.293 17.0986 27.1758 17.2158C27.0586 17.333 27 17.4736 27 17.6377C27 17.8018 27.0586 17.9424 27.1758 18.0596L33.3516 24.2354H13.8047C13.6328 24.2354 13.4883 24.2939 13.3711 24.4111C13.2539 24.5283 13.1953 24.6729 13.1953 24.8447C13.1953 25.0088 13.2539 25.1494 13.3711 25.2666C13.4883 25.3838 13.6328 25.4424 13.8047 25.4424H33.3516L27.1758 31.6182C27.0586 31.7354 27 31.876 27 32.04C27 32.2041 27.0586 32.3447 27.1758 32.4619C27.2305 32.5244 27.293 32.5713 27.3633 32.6025C27.4414 32.626 27.5195 32.6377 27.5977 32.6377C27.6758 32.6377 27.75 32.626 27.8203 32.6025C27.8984 32.5713 27.9648 32.5244 28.0195 32.4619L35.2266 25.2666C35.3438 25.1494 35.4023 25.0088 35.4023 24.8447C35.4023 24.6729 35.3438 24.5283 35.2266 24.4111Z" fill="#F2F4F6"/>
<path d="M35.2266 24.4111L35.4917 24.146L35.4915 24.1458L35.2266 24.4111ZM28.0195 17.2158L27.7544 17.481L27.7546 17.4812L28.0195 17.2158ZM33.3516 24.2354V24.6104H34.2569L33.6167 23.9702L33.3516 24.2354ZM33.3516 25.4424L33.6167 25.7075L34.2569 25.0674H33.3516V25.4424ZM27.1758 32.4619L27.458 32.215L27.4498 32.2056L27.4409 32.1967L27.1758 32.4619ZM27.3633 32.6025L27.211 32.9452L27.2327 32.9549L27.2555 32.9617L27.3633 32.6025ZM27.8203 32.6025L27.9389 32.9583L27.9494 32.9548L27.9596 32.9507L27.8203 32.6025ZM28.0195 32.4619L27.7546 32.1965L27.7456 32.2055L27.7373 32.215L28.0195 32.4619ZM35.2266 25.2666L35.4915 25.532L35.4917 25.5318L35.2266 25.2666ZM35.4915 24.1458L28.2845 16.9504L27.7546 17.4812L34.9616 24.6765L35.4915 24.1458ZM28.2847 16.9507C28.098 16.7639 27.8623 16.665 27.5977 16.665V17.415C27.6611 17.415 27.7067 17.4333 27.7544 17.481L28.2847 16.9507ZM27.5977 16.665C27.333 16.665 27.0973 16.7639 26.9106 16.9507L27.4409 17.481C27.4886 17.4333 27.5342 17.415 27.5977 17.415V16.665ZM26.9106 16.9507C26.7239 17.1374 26.625 17.373 26.625 17.6377H27.375C27.375 17.5742 27.3933 17.5286 27.4409 17.481L26.9106 16.9507ZM26.625 17.6377C26.625 17.9023 26.7239 18.138 26.9106 18.3247L27.4409 17.7944C27.3933 17.7467 27.375 17.7012 27.375 17.6377H26.625ZM26.9106 18.3247L33.0864 24.5005L33.6167 23.9702L27.4409 17.7944L26.9106 18.3247ZM33.3516 23.8604H13.8047V24.6104H33.3516V23.8604ZM13.8047 23.8604C13.5375 23.8604 13.2963 23.9556 13.1059 24.146L13.6363 24.6763C13.6803 24.6323 13.7282 24.6104 13.8047 24.6104V23.8604ZM13.1059 24.146C12.9156 24.3363 12.8203 24.5775 12.8203 24.8447H13.5703C13.5703 24.7682 13.5923 24.7203 13.6363 24.6763L13.1059 24.146ZM12.8203 24.8447C12.8203 25.1094 12.9192 25.3451 13.1059 25.5318L13.6363 25.0014C13.5886 24.9538 13.5703 24.9082 13.5703 24.8447H12.8203ZM13.1059 25.5318C13.2963 25.7221 13.5375 25.8174 13.8047 25.8174V25.0674C13.7282 25.0674 13.6803 25.0454 13.6363 25.0014L13.1059 25.5318ZM13.8047 25.8174H33.3516V25.0674H13.8047V25.8174ZM33.0864 25.1772L26.9106 31.353L27.4409 31.8833L33.6167 25.7075L33.0864 25.1772ZM26.9106 31.353C26.7239 31.5397 26.625 31.7754 26.625 32.04H27.375C27.375 31.9766 27.3933 31.931 27.4409 31.8833L26.9106 31.353ZM26.625 32.04C26.625 32.3047 26.7239 32.5404 26.9106 32.7271L27.4409 32.1967C27.3933 32.1491 27.375 32.1035 27.375 32.04H26.625ZM26.8936 32.7089C26.9812 32.809 27.0871 32.8901 27.211 32.9452L27.5156 32.2599C27.4989 32.2524 27.4797 32.2398 27.458 32.215L26.8936 32.7089ZM27.2555 32.9617C27.3671 32.9952 27.4815 33.0127 27.5977 33.0127V32.2627C27.5576 32.2627 27.5158 32.2568 27.471 32.2434L27.2555 32.9617ZM27.5977 33.0127C27.7139 33.0127 27.8283 32.9952 27.9389 32.9583L27.7017 32.2468C27.6717 32.2568 27.6377 32.2627 27.5977 32.2627V33.0127ZM27.9596 32.9507C28.0919 32.8978 28.2075 32.8165 28.3017 32.7089L27.7373 32.215C27.7221 32.2323 27.7049 32.2448 27.681 32.2544L27.9596 32.9507ZM28.2845 32.7273L35.4915 25.532L34.9616 25.0012L27.7546 32.1965L28.2845 32.7273ZM35.4917 25.5318C35.6784 25.3451 35.7773 25.1094 35.7773 24.8447H35.0273C35.0273 24.9082 35.0091 24.9538 34.9614 25.0014L35.4917 25.5318ZM35.7773 24.8447C35.7773 24.5775 35.6821 24.3363 35.4917 24.146L34.9614 24.6763C35.0054 24.7203 35.0273 24.7682 35.0273 24.8447H35.7773Z" fill="#F2F4F6"/>
</svg>
