<svg width="20" height="20" viewBox="0 0 20 20" fill="none" xmlns="http://www.w3.org/2000/svg">
<path d="M10.0052 2.08333C9.88838 2.0826 9.77371 2.11461 9.67417 2.17575C9.57463 2.23688 9.49422 2.32468 9.44204 2.42919L7.29523 6.72281L2.19758 7.50732C2.08347 7.52495 1.97648 7.57384 1.88847 7.64857C1.80046 7.72329 1.73486 7.82094 1.69896 7.93067C1.66306 8.04041 1.65825 8.15794 1.68507 8.27024C1.71189 8.38254 1.76928 8.48522 1.8509 8.56689L5.3771 12.0931L4.59178 17.1964C4.57422 17.3106 4.58863 17.4274 4.63343 17.5339C4.67823 17.6404 4.75166 17.7324 4.84558 17.7996C4.93949 17.8669 5.0502 17.9069 5.16544 17.915C5.28067 17.9232 5.39591 17.8992 5.49836 17.8459L10.0011 15.4964L14.5039 17.8459C14.6063 17.8992 14.7216 17.9232 14.8368 17.915C14.952 17.9069 15.0628 17.8669 15.1567 17.7996C15.2506 17.7324 15.324 17.6404 15.3688 17.5339C15.4136 17.4274 15.428 17.3106 15.4105 17.1964L14.6251 12.0931L18.1514 8.56689C18.233 8.48522 18.2904 8.38254 18.3172 8.27024C18.344 8.15794 18.3392 8.04041 18.3033 7.93067C18.2674 7.82094 18.2018 7.72329 18.1138 7.64857C18.0258 7.57384 17.9188 7.52495 17.8047 7.50732L12.707 6.72281L10.5602 2.42919C10.5087 2.32592 10.4295 2.23893 10.3315 2.17788C10.2336 2.11684 10.1206 2.08411 10.0052 2.08333V2.08333Z" fill="#1C0D3F"/>
</svg>
