<svg width="20" height="20" viewBox="0 0 20 20" fill="none" xmlns="http://www.w3.org/2000/svg">
<path d="M17.7806 7.37979L12.9639 6.97146L11.0798 2.52563C10.7823 1.82479 9.78895 1.82479 9.49145 2.52563L7.60728 6.97146L2.79062 7.37979C2.03062 7.44396 1.72228 8.39146 2.29895 8.89063L5.95812 12.0606L4.85895 16.7715C4.68562 17.514 5.49145 18.0998 6.14478 17.7056L10.2856 15.2065L14.4265 17.7056C15.0798 18.0998 15.8856 17.514 15.7123 16.7715L14.6131 12.0606L18.2723 8.89063C18.849 8.39146 18.5406 7.44396 17.7806 7.37979ZM13.5215 10.8006L12.7614 11.459L12.9898 12.439L13.6556 15.294L11.1465 13.7798L10.2856 13.2598V4.92312L11.4298 7.62229L11.8223 8.54813L12.8239 8.63313L15.7406 8.88063L13.5215 10.8006Z" fill="#1C0D3F"/>
</svg>
