<svg width="29" height="20" viewBox="0 0 29 20" fill="none" xmlns="http://www.w3.org/2000/svg">
<path d="M6.97548 0.674998C7.12547 0.266665 7.51713 0 7.95046 0H27.5755C28.0088 0 28.3171 0.433329 28.1588 0.841662L21.2255 19.325C21.0755 19.7333 20.6838 20 20.2505 20H0.625455C0.192122 20 -0.116196 19.5667 0.0421376 19.1583L6.97548 0.674998Z" fill="#00B2A3"/>
<path d="M13.1495 3.28125C13.2828 2.90625 13.8078 2.90625 13.9328 3.28125L15.5078 7.78958C15.5661 7.95625 15.7161 8.06459 15.8911 8.06459L20.6661 8.17291C21.0578 8.18124 21.2245 8.68125 20.9078 8.92292L17.1078 11.8146C16.9661 11.9229 16.9078 12.0979 16.9578 12.2646L18.3328 16.8396C18.4495 17.2146 18.0245 17.5229 17.6995 17.2979L13.7745 14.5812C13.6328 14.4812 13.4411 14.4812 13.2995 14.5812L9.37448 17.3062C9.04948 17.5312 8.62447 17.2229 8.74113 16.8479L10.1162 12.2729C10.1662 12.1063 10.1078 11.9229 9.96614 11.8229L6.16614 8.93125C5.84947 8.68958 6.01615 8.18959 6.40781 8.18125L11.1828 8.07291C11.3578 8.07291 11.5078 7.95625 11.5661 7.79791L13.1495 3.28125Z" fill="white"/>
</svg>
