<svg width="21" height="21" fill="none" xmlns="http://www.w3.org/2000/svg"><path d="M19.8721 16.0161c-.1846-.1982-.3931-.3828-.6255-.5537-.2256-.1777-.4717-.3418-.7383-.4922-.1572-.3144-.4033-.6665-.7383-1.0561-.3349-.3897-.8066-.7486-1.415-1.0767-.2529-.1367-.5196-.2598-.7998-.3691-.2803-.1162-.5777-.2188-.8921-.3077.3213-.1845.6118-.4033.8716-.6562.2597-.2598.4819-.5469.6665-.8613.1914-.3145.3384-.65287.4409-1.01517.1025-.36231.1538-.73828.1538-1.12793 0-.42383-.0615-.83057-.1846-1.22021-.1162-.38965-.2837-.74854-.5024-1.07667-.2188-.33496-.4785-.63232-.7793-.89208-.3008-.25977-.6358-.47168-1.0049-.63575-.1504-.34863-.3486-.6665-.5947-.95361-.2393-.29395-.5161-.55029-.8306-.76904-.1094-.0752-.2187-.14356-.3281-.20508-.1094-.06152-.2222-.11963-.3384-.17432-.1572-.34863-.3589-.6665-.605-.95361-.2392-.29395-.5161-.55029-.8305-.769044-.3487-.246094-.7281-.430664-1.13822-.553711C9.24902.166992 8.82861.102051 8.39795.102051c-.57422 0-1.11768.109375-1.63037.328125-.5127.21875-.96045.519531-1.34326.902344-.37598.38281-.67334.83057-.89209 1.34326-.21875.50586-.32813 1.0459-.32813 1.62012 0 .4375.06152.86133.18457 1.27148.12988.40332.31787.7793.56397 1.12793.21875.31446.47168.59473.75879.84082.29394.23926.61523.4375.96386.59473.04785.11621.10254.23242.16407.34863.06835.10938.14013.21533.21533.31787.0957.14356.20166.28028.31787.41016.11621.12305.23584.23926.35889.34863-.38965.01367-.76905.0376-1.13819.07178-.36914.03418-.72461.08203-1.0664.14355-.33497.05469-.65967.12305-.97413.20508-.30761.07524-.60156.16064-.88183.25634-.52637.1914-1.00488.4204-1.43555.687-.42383.2598-.79297.5572-1.10742.8921-.560547.5947-.888672 1.1484-.984375 1.6611C.0478516 13.979 0 14.2456 0 14.2729c0 .4375.153809.8101.461426 1.1177.307617.3076.680174.4615 1.117674.4615h.59473c-.03418.1503-.05469.2734-.06153.3691-.00683.0957-.01025.147-.01025.1538 0 .4375.15381.8101.46143 1.1177.30761.3076.67675.4614 1.10742.4614h.60498c-.03418.1504-.05469.2734-.06152.3691-.00684.0889-.01026.1402-.01026.1539 0 .4306.15381.7998.46143 1.1074.30761.3076.67676.4614 1.10742.4614H19.4209c.4375 0 .8101-.1538 1.1177-.4614.3076-.3076.4614-.6768.4614-1.1074 0-.0274-.0479-.294-.1436-.7999-.0957-.5126-.4238-1.0664-.9843-1.6611ZM15.75 8.5c0 .4375-.082.84766-.2461 1.23047-.1641.37593-.3896.70753-.6768.99463-.2871.2871-.622.5127-1.0048.6768-.3828.164-.7896.246-1.2202.246-.4375 0-.8477-.082-1.2305-.246-.3828-.1641-.7178-.3897-1.0049-.6768-.2803-.2871-.50244-.6187-.6665-.99463-.16407-.38281-.2461-.79297-.2461-1.23047s.08203-.84424.2461-1.22021c.16406-.38282.3862-.71778.6665-1.00489.2871-.28711.6221-.51269 1.0049-.67676.3828-.16406.793-.24609 1.2305-.24609.4306 0 .8374.08203 1.2202.24609.3828.16407.7177.38965 1.0048.67676.2872.28711.5127.62207.6768 1.00489.1641.37597.2461.78271.2461 1.22021ZM5.25 4.2959c0-.43067.08203-.8374.24609-1.22022.16407-.38281.38965-.71435.67676-.99463.28711-.2871.62207-.51269 1.00488-.67675.38282-.1709.78956-.25635 1.22022-.25635.45801 0 .88867.0957 1.29199.28711.41016.18457.76566.44092 1.06636.76904H10.5c-.58105 0-1.12793.10938-1.64062.32813-.50586.21875-.9502.51953-1.33301.90234-.37598.37598-.67676.82031-.90235 1.33301-.21875.51269-.32812 1.05615-.32812 1.63037v.1333c.00683.04102.01025.08203.01025.12305-.32812-.29395-.58789-.646-.77929-1.05616C5.34229 5.18799 5.25 4.75391 5.25 4.2959Zm2.10205 2.10205c0-.43066.08203-.8374.24609-1.22022.16407-.38281.38965-.71777.67676-1.00488.28711-.28711.61865-.51269.99463-.67676C9.65234 3.33203 10.0625 3.25 10.5 3.25c.4512 0 .8818.0957 1.292.28711.4101.18457.7622.44092 1.0561.76904h-.123c-.041-.00683-.082-.01025-.123-.01025-.5811 0-1.128.11279-1.6407.33838-.5058.21875-.9502.51953-1.33298.90234-.37598.37598-.67676.82031-.90235 1.33301-.21875.50586-.32812 1.04932-.32812 1.63037v.12305c.00684.04101.01025.08203.01025.12304-.32812-.29394-.58789-.64257-.77929-1.04589-.18457-.41016-.27686-.84424-.27686-1.30225ZM1.5791 14.7959c-.14355 0-.2666-.0479-.36914-.1436-.10254-.1025-.15723-.2255-.16406-.3691.00683-.0342.05127-.2324.1333-.5947.08203-.3692.33838-.7725.76904-1.21.21192-.2187.48535-.4375.82031-.6562.3418-.2256.76905-.4273 1.28174-.605.51953-.1777 1.13477-.3247 1.84571-.4409.71777-.1162 1.55175-.1743 2.50195-.1743h.28711c.0957 0 .1914.0034.28711.0102.11621.1982.24609.3862.38965.564.14355.1709.30078.3315.47168.4819-.38965.0137-.76905.0376-1.13819.0718s-.72461.082-1.0664.1435c-.33496.0547-.65967.1231-.97412.2051-.30762.0752-.60157.1607-.88184.2564-.5332.1914-1.01172.4204-1.43555.687-.42383.2597-.79297.5571-1.10742.8921-.14355.1504-.27002.3007-.37939.4511-.10254.1504-.19483.294-.27686.4307H1.5791Zm2.0918 2.102c-.14356 0-.2666-.0512-.36914-.1538-.10254-.1025-.15381-.2255-.15381-.3691 0-.0273.04101-.2222.12305-.5845.08886-.3691.34863-.7724.77929-1.2099.20508-.2188.47852-.4375.82032-.6563.34179-.2256.76904-.4272 1.28173-.605.51954-.1845 1.13477-.3315 1.84571-.4409.71093-.1162 1.54492-.1743 2.50195-.1743.7998 0 1.5142.041 2.1431.123.6289.0752 1.186.1812 1.6714.3179.4921.1367.916.2974 1.2714.482.3623.1777.67.3657.9229.5639-.2803-.0752-.5742-.1401-.8818-.1948-.3008-.0547-.6153-.0991-.9434-.1333-.3213-.041-.6563-.0684-1.0049-.082-.3486-.0205-.7075-.0308-1.0766-.0308-.4649 0-.9126.0137-1.3433.041-.4307.0274-.8442.0718-1.2407.1333-.39652.0547-.77249.1265-1.12796.2153-.35547.0821-.69385.1812-1.01514.2974-.5332.1914-1.01514.4204-1.4458.687-.42383.2598-.79297.5572-1.10742.8921-.13672.1504-.25977.3008-.36914.4512-.10254.1435-.19483.2871-.27686.4306H3.6709ZM19.4209 19H5.77295c-.14356 0-.2666-.0513-.36914-.1538-.10254-.1025-.15381-.2256-.15381-.3691 0-.0274.04102-.2222.12305-.5845.08886-.3692.34863-.7759.77929-1.2202.20508-.212.47852-.4273.82032-.646.34179-.2256.76904-.4273 1.28173-.605.51954-.1846 1.13477-.335 1.84571-.4512.7109-.1162 1.5449-.1743 2.502-.1743.9501 0 1.7807.0581 2.4917.1743.7177.1162 1.333.2666 1.8457.4512.5195.1777.9467.3794 1.2817.605.3418.2187.6186.434.8306.646.4306.4443.687.851.769 1.2202.082.3623.1265.5571.1333.5845-.0068.1435-.0615.2666-.1641.3691-.1025.1025-.2255.1538-.3691.1538Z" fill="#1C0D3F"/><path d="m19.8721 16.0161-.183.1704.001.0011.182-.1715Zm-.6255-.5537-.1548.1965.0067.0049.1481-.2014Zm-.7383-.4922-.2236.1118.0342.0684.0666.0376.1228-.2178Zm-2.1533-2.1328-.1189.2199.0002.0001.1187-.22Zm-.7998-.3691-.0958.2309.0049.002.0909-.2329Zm-.8921-.3077-.1245-.2167-.515.2958.5715.1615.068-.2406Zm.8716-.6562.1744.1791.0023-.0023-.1767-.1768Zm.6665-.8613-.2136-.13-.002.0034.2156.1266Zm.4101-3.36331-.2396.07146.0012.00382.2384-.07528Zm-.5024-1.07667-.2093.13671.0013.00197.208-.13868Zm-1.7842-1.52783-.2295.09903.0387.08973.0893.0397.1015-.22846Zm-.5947-.95361-.194.15787.0042.00483.1898-.1627Zm-.8306-.76904.1428-.20523-.0012-.00078-.1416.20601Zm-.6665-.3794-.2279.10278.038.08413.0835.0393.1064-.22621Zm-.605-.95361-.1939.15787.0041.00483.1898-.1627Zm-.8305-.769044-.1442.204244.0014.00098.1428-.205224ZM9.65918.296875 9.5837.535238l.00364.001094.07184-.239457ZM5.42432 1.33252l-.17679-.17678-.00158.0016.17837.17518Zm-.89209 1.34326.22946.09923.00048-.00112-.22994-.09811Zm-.14356 2.8916-.2395.07185.00154.00479.23796-.07664Zm.56397 1.12793.20523-.14277-.00099-.0014-.20424.14417Zm.75879.84082-.16275.18988.00493.00401.15782-.19389Zm.96386.59473.23117-.09519-.03782-.09186-.09057-.04085-.10278.2279Zm.16407.34863-.22095.11697.00419.00793.00476.0076.212-.1325Zm.21533.31787.20822-.13881-.00662-.00903-.2016.14784Zm.31787.41016-.18638.16676.00463.0049.18175-.17166Zm.35889.34863.00876.24985.62398-.0219-.46665-.4148-.16609.18685Zm-2.20459.21533.04028.24672.004-.0007-.04428-.24602Zm-.97413.20508.05937.24284.00374-.0009-.06311-.24194Zm-.88183.25634-.0808-.23662-.00464.00168.08544.23494Zm-1.43555.687.13064.2132.00095-.0006-.13159-.2126Zm-1.10742.8921.18193.1715.00034-.0004-.18227-.1711Zm-.984375 1.6611.245643.0465.000112-.0006-.245755-.0459Zm2.030275 2.379.24378.0554.06941-.3054h-.31319v.25Zm2.10205 2.102.24378.0554.06941-.3054h-.31319v.25Zm-.06152.3691.24926.0192.0001-.0013-.24936-.0179Zm16.64204-.646-.2457.0459.0001.0006.2456-.0465Zm-5.3525-7.94673.2291.09999.0007-.00151-.2298-.09848Zm-5.1372.99463-.1789.1746.0021.0022.1768-.1768Zm-.6665-.99463-.2298.09848.00066.0015.22914-.09998Zm0-2.45068.22913.09998.00065-.0015-.22978-.09848Zm.6665-1.00489-.1768-.17679-.0021.00216.1789.17463Zm5.1372 1.00489-.2298.09848.0007.0015.2291-.09998ZM6.17285 2.08105l.17465.17891.00213-.00213-.17678-.17678Zm1.00488-.67675.0985.22981.00342-.00153-.10192-.22828Zm2.51221.03076-.10721.2259.00462.00208.10259-.22798Zm1.06636.76904v.25h.5684l-.3841-.41893-.1843.16893Zm-1.89692.32813-.09812-.22995-.00111.00048.09923.22947ZM6.62402 4.76758l-.22884-.10069-.0011.00258.22994.09811ZM6.2959 6.53125h-.25v.02069l.0034.02041.2466-.0411Zm.01025.12305-.16681.18621.41681.37339v-.5596h-.25Zm-.77929-1.05616-.22801.10261.00146.00312.22655-.10573Zm3.74267-2.10205-.09848-.22979-.0015.00066.09998.22913Zm2.52247.04102-.1057.22657.0031.00141.1026-.22798Zm1.0561.76904v.25h.5596l-.3733-.41681-.1863.16681Zm-.123 0-.0411.2466.0204.0034h.0207v-.25Zm-1.7637.32813.0993.22947.0014-.00064-.1007-.22883ZM8.72607 6.86963l-.22883-.10069-.00063.00146.22946.09923Zm-.32812 1.75342h-.25v.02069l.0034.02041.2466-.0411Zm.01025.12304-.16681.18621.41681.3734v-.55961h-.25ZM7.62891 7.7002l-.22803.10261.00217.00457.22586-.10718Zm-6.41895 6.9521-.17688.1769.0063.0059.17058-.1828Zm-.16406-.3691-.245147-.049-.006036.0302.001464.0307.249719-.0119Zm.1333-.5947.24383.0552.00022-.001-.24405-.0542Zm.76904-1.21.17817.1754.00139-.0014-.17956-.174Zm.82031-.6562.1367.2093.00102-.0007-.13772-.2086Zm1.28174-.605-.08092-.2366-.00096.0004.08188.2362Zm1.84571-.4409-.03996-.2468h-.00037l.04033.2468Zm3.07617-.1641.21567-.1264-.06657-.1136-.13129-.0094-.01781.2494Zm.38965.564-.19452.1571.00309.0037.19143-.1608Zm.47168.4819.00876.2498.62854-.022-.47215-.4155-.16515.1877Zm-2.20459.2153.04028.2468.004-.0007-.04428-.2461Zm-.97412.2051.05937.2429.00373-.001-.0631-.2419Zm-.88184.2564-.0808-.2367-.00367.0014.08447.2353Zm-1.43555.687.13065.2131.00247-.0015-.13312-.2116Zm-1.10742.8921.18085.1726.00142-.0015-.18227-.1711Zm-.37939.4511-.20228-.1471-.00428.0063.20656.1408Zm-.27686.4307v.25h.14155l.07282-.1214-.21437-.1286Zm.69727.9946-.24308-.0585-.00075.0033.24383.0552Zm.77929-1.2099.17822.1754.00417-.0044-.18239-.171Zm.82032-.6563.13477.2106.00294-.0019-.13771-.2087Zm1.28173-.605.08189.2363.0018-.0007-.08369-.2356Zm1.84571-.4409.03801.2471.00232-.0004-.04033-.2467Zm4.64505-.0513-.0324.248.0027.0003.0297-.2483Zm1.6714.3179-.0678.2407.0008.0002.067-.2409Zm1.2714.482-.1152.2219.0051.0025.1101-.2244Zm.9229.5639-.0648.2415.219-.4382-.1542.1967Zm-.8818-.1948-.0448.246.001.0001.0438-.2461Zm-.9434-.1333-.0317.248.0058.0006.0259-.2486Zm-1.0049-.082-.0147.2496.0049.0002.0098-.2498Zm-3.6606.1435.0341.2477.0042-.0006-.0383-.2471Zm-1.12796.2153.05622.2437.00441-.0011-.06063-.2426ZM7.875 14.437l.08447.2353.00056-.0002-.08503-.2351Zm-1.4458.687.13064.2132.00095-.0006-.13159-.2126Zm-1.10742.8921-.18229-.1711-.0027.0029.18499.1682Zm-.36914.4512-.20219-.1471-.00125.0018.20344.1453Zm-.27686.4306v.25h.14508l.07198-.1259-.21706-.1241Zm.69727.9947-.24308-.0585-.00075.0033.24383.0552Zm.77929-1.2202.17952.174.00013-.0002-.17965-.1738Zm.82032-.646.13477.2106.00294-.002-.13771-.2086Zm1.28173-.605.08189.2362.00181-.0006-.0837-.2356Zm6.83941-.4512-.0404.2467.0004.0001.04-.2468Zm1.8457.4512-.0847.2352.0037.0013.081-.2365Zm1.2817.605-.1397.2074.0049.0031.1348-.2105Zm.8306.646.1795-.1741-.0028-.0027-.1767.1768Zm.769 1.2202-.244.0542.0002.001.2438-.0552Zm.1333.5845.2497.0118.0018-.0367-.009-.0358-.2425.0607Zm.1009-2.6313c-.1958-.2104-.4161-.4053-.6603-.5848l-.2962.4028c.2206.1623.4173.3366.5906.5227l.3659-.3407Zm-.6537-.5798c-.2363-.1861-.4931-.3573-.7702-.5135l-.2456.4355c.2561.1445.4915.3015.7064.4708l.3094-.3928Zm-.6694-.4076c-.1696-.3392-.4295-.7085-.7723-1.1073l-.3792.3259c.3272.3806.5594.7153.7043 1.005l.4472-.2236Zm-.7723-1.1073c-.3605-.4193-.8593-.7958-1.4859-1.1337l-.2374.44c.5902.3183 1.0347.6597 1.3441 1.0196l.3792-.3259Zm-1.4857-1.1336c-.2624-.1419-.5384-.2692-.8278-.3821l-.1818.4658c.2711.1058.5283.2245.7718.3561l.2378-.4398Zm-.823-.3802c-.29-.1202-.5967-.2259-.9198-.3172l-.136.4811c.3057.0864.5938.1858.8643.298l.1915-.4619Zm-.8633.1401c.339-.1947.6464-.426.9215-.6939l-.3488-.3582c-.2445.238-.5182.4442-.8217.6186l.249.4335Zm.9238-.6962c.2747-.2747.51-.5787.7054-.9116l-.4312-.2531c-.1738.296-.3829.5663-.6277.8111l.3535.3536Zm.7033-.9081c.2035-.3343.3594-.6935.4679-1.07709l-.4811-.13616c-.0965.34104-.2345.65855-.4139.95325l.4271.26Zm.4679-1.07709c.1091-.38522.1633-.78415.1633-1.19601h-.5c0 .36743-.0483.72046-.1444 1.05985l.4811.13616ZM17.0459 8.5c0-.44841-.0652-.8806-.1962-1.2955l-.4768.15057c.1151.36439.173.74568.173 1.14493h.5Zm-.195-1.29167c-.1231-.41275-.301-.7944-.534-1.14388l-.416.27735c.2045.30677.3615.64289.4709 1.00944l.4791-.14291Zm-.5327-1.1419c-.2314-.35439-.5066-.66946-.8252-.9446l-.3268.37841c.283.24439.5273.52405.7334.83958l.4186-.27339Zm-.8252-.9446c-.3197-.27608-.6756-.50112-1.0668-.67499l-.203.45691c.347.15425.6611.35304.943.59649l.3268-.37841Zm-.9387-.54556c-.1604-.37164-.372-.711-.6345-1.01729l-.3796.3254c.2296.26792.4145.56431.555.88994l.4591-.19805Zm-.6304-1.01241c-.2542-.31225-.5483-.58451-.8817-.81645l-.2856.41045c.2955.20556.5551.446.7795.72164l.3878-.31564Zm-.8829-.81723c-.1152-.0792-.2309-.15156-.3471-.21697l-.2452.43579c.1025.05765.2055.122.3091.1932l.2832-.41202Zm-.3471-.21697c-.1148-.06455-.233-.12542-.3545-.18262l-.2129.45241c.1108.05217.2182.10751.3222.166l.2452-.43579Zm-.2331-.05919c-.1669-.37007-.3813-.70816-.6431-1.01354l-.3796.3254c.2305.26884.4194.56649.5669.89369l.4558-.20555Zm-.639-1.00866c-.2541-.31225-.5483-.584507-.8817-.81645l-.2855.41045c.2955.20556.5551.446.7794.72164l.3878-.31564Zm-.8803-.815466c-.3707-.261715-.7746-.45815-1.21048-.5889257L9.58734.536332c.3844.115317.73936.288023 1.06586.518498l.2883-.408486ZM9.73465.0585394c-.43459-.1376209-.88046-.2064884-1.3367-.2064884v.5c.40508 0 .80004.061015 1.18576.18316l.15094-.4766716ZM8.39795-.147949c-.6069 0-1.18383.1157944-1.72848.34818l.19622.459889c.48073-.205114.99072-.308069 1.53226-.308069v-.5Zm-1.72848.34818c-.54119.230906-1.01586.549441-1.42193.955509l.35355.35356c.35956-.35956.78039-.642586 1.2646-.84918L6.66947.200231Zm-1.42352.957109c-.39867.40592-.71316.88009-.94367 1.42033l.45989.19622c.207-.48515.48723-.90649.84051-1.26619l-.35673-.35036Zm-.94319 1.41921c-.23286.5385-.34866 1.11246-.34866 1.71935h.5c0-.54155.10296-1.04767.30759-1.52089l-.45893-.19846ZM3.9541 4.2959c0 .4613.06493.90935.19512 1.34332l.47891-.14367C4.51222 5.1092 4.4541 4.7096 4.4541 4.2959h-.5Zm.19661 1.34812c.13769.42758.3371.8263.59768 1.19546l.40849-.28834c-.23161-.32811-.40817-.68133-.53024-1.06039l-.47593.15327Zm.5967 1.19406c.23071.33165.49788.62778.80132.88787l.32539-.37963c-.27078-.2321-.50947-.49652-.71626-.79377l-.41045.28553Zm.8062.89194c.31089.25306.65071.46269 1.01891.62874l.20555-.4558c-.32907-.1484-.63183-.33526-.90883-.56072l-.31563.38778Zm.89051.49603c.05105.12396.10918.24743.17429.37041l.44189-.23394c-.05794-.10944-.10918-.21839-.15384-.32685l-.46234.19038Zm.18324.38594c.07158.11454.14682.22562.22573.33321l.4032-.29568c-.07149-.09748-.1398-.19832-.20494-.30253l-.42399.265Zm.21931.32405c.10234.1535.21556.29957.33958.43818l.37262-.3334c-.1084-.12116-.2071-.24852-.29617-.38213l-.41603.27735Zm.34414.44314c.12106.12819.24591.24948.37454.36382l.33219-.3737c-.11746-.10441-.23187-.21553-.34323-.33344l-.3635.34332Zm.53187-.07287c-.39417.01383-.77834.03804-1.15247.07268l.0461.49787c.36415-.03371.73878-.05735 1.1239-.07086l-.01753-.49969Zm-1.15247.07268c-.37578.0348-.73836.08358-1.08764.14645l.08857.49206c.33431-.06015.68268-.10707 1.04517-.14064l-.0461-.49787Zm-1.08364.14576c-.3423.05589-.67464.12583-.99694.20991l.12621.48384c.3066-.08.62368-.1468.9513-.2003l-.08057-.49345Zm-.9932.20896c-.31435.07685-.61548.16435-.90326.26261l.16157.47318c.27277-.0931.55954-.1765.86042-.2501l-.11873-.48569Zm-.90791.26425c-.5408.19664-1.03502.43284-1.4817.70944l.26318.4251c.41465-.2567.87747-.4785 1.38939-.6646l-.17087-.46994Zm-1.48075.70884c-.44129.2704-.82814.5816-1.159049.9341l.364539.3422c.298-.3174.64942-.601 1.05579-.85l-.26128-.4263Zm-1.158707.9337C.369704 12.252.00596939 12.8478-.1022 13.4273l.49151.0917c.083236-.4459.375751-.9575.92055-1.5355l-.363857-.343Zm-1.048091 1.7862c-.047893.2531-.083955.4471-.108091.5816-.012043.0671-.021294.1204-.027601.1591-.003131.0192-.00575.0362-.007655.0501-.000982.0071-.004565.0318-.004565.0554h.5c0 .0168-.002087.0272-.000079.0126.001085-.0079.002952-.0202.005803-.0378.005656-.0347.014349-.0848.026232-.151.023716-.1322.059431-.3244.107241-.5771l-.491285-.0929ZM-.25 14.2729c0 .5034.1798499.9397.534649 1.2945l.353553-.3536C.377767 14.9534.25 14.6446.25 14.2729h-.5Zm.534649 1.2945c.354799.3548.791071.5347 1.294451.5347v-.5c-.37162 0-.680462-.1278-.940898-.3883l-.353553.3536Zm1.294451.5347h.59473v-.5H1.5791v.5Zm.35094-.3055c-.03552.1563-.05899.2932-.0671.4068l.49873.0356c.00556-.0778.0231-.1871.05594-.3315l-.48757-.1109Zm-.0671.4068c-.00621.0869-.01089.153-.01089.1716h.5c0 .0059-.00025.0099-.00012.0072.00004-.0009.00014-.0028.00033-.006.00037-.0063.00096-.0156.0018-.0281.00167-.0251.0042-.0614.00761-.1091l-.49873-.0356Zm-.01089.1716c0 .5034.17985.9397.53465 1.2945l.35355-.3536c-.26043-.2604-.3882-.5693-.3882-.9409h-.5Zm.53465 1.2945c.35397.3539.78648.5346 1.2842.5346v-.5c-.36361 0-.66938-.1269-.93065-.3882l-.35355.3536Zm1.2842.5346h.60498v-.5H3.6709v.5Zm.3612-.3054c-.03553.1563-.059.2931-.06711.4067l.49873.0357c.00556-.0779.02311-.1871.05594-.3316l-.48756-.1108Zm-.06701.4054c-.00634.0824-.01099.1469-.01099.173h.5c0 .0038-.00013.0038.0003-.0042.00034-.0065.0009-.0157.00171-.0279.00163-.0244.00412-.0585.00751-.1026l-.49853-.0383Zm-.01099.173c0 .4977.18068.9302.53465 1.2841l.35355-.3535c-.26126-.2613-.3882-.567-.3882-.9306h-.5Zm.53465 1.2841c.35397.354.78648.5347 1.2842.5347v-.5c-.36361 0-.66938-.1269-.93065-.3882l-.35355.3535Zm1.2842.5347H19.4209v-.5H5.77295v.5Zm13.64795 0c.5034 0 .9397-.1799 1.2945-.5347l-.3536-.3535c-.2604.2604-.5693.3882-.9409.3882v.5Zm1.2945-.5347c.3539-.3539.5346-.7864.5346-1.2841h-.5c0 .3636-.1269.6693-.3882.9306l.3536.3535Zm.5346-1.2841c0-.0237-.0036-.0484-.0046-.0555-.0019-.0139-.0045-.0309-.0076-.0501-.0063-.0387-.0156-.092-.0276-.1591-.0242-.1344-.0602-.3285-.1081-.5816l-.4913.0929c.0478.2527.0835.4449.1072.5771.0119.0662.0206.1163.0263.1511.0028.0175.0047.0298.0058.0377.002.0146-.0001.0042-.0001-.0125h.5Zm-.1478-.8457c-.1082-.5795-.4719-1.1753-1.0482-1.7868l-.3639.343c.5448.578.8374 1.0896.9206 1.5355l.4915-.0917ZM15.5 8.5c0 .40538-.0758.78186-.2259 1.13199l.4596.19696C15.9118 9.41346 16 8.96962 16 8.5h-.5Zm-.2252 1.13048c-.1517.34764-.3596.65302-.6244.91782l.3535.3536c.3095-.3095.5527-.6671.7291-1.07145l-.4582-.19997Zm-.6244.91782c-.2641.2641-.5723.4719-.9266.6238l.1969.4595c.4113-.1762.773-.4195 1.0832-.7297l-.3535-.3536Zm-.9266.6238c-.3506.1502-.7238.2258-1.1217.2258v.5c.4633 0 .9036-.0884 1.3186-.2663l-.1969-.4595Zm-1.1217.2258c-.4054 0-.7819-.0758-1.132-.2258l-.197.4595c.4155.1781.8593.2663 1.329.2663v-.5Zm-1.132-.2258c-.3544-.1519-.6626-.3597-.9266-.6238l-.3536.3536c.3102.3102.6719.5535 1.0832.7297l.197-.4595Zm-.9245-.6216c-.2587-.265-.464-.57113-.61627-.92002l-.45827.19997c.17588.40305.41487.76005.71674 1.06925l.3578-.3492Zm-.61562-.91851C9.77992 9.28186 9.7041 8.90538 9.7041 8.5h-.5c0 .46962.08824.91346.26631 1.32895l.45957-.19696ZM9.7041 8.5c0-.40541.07583-.77785.22523-1.12023l-.45827-.19997c-.17872.40958-.26696.85061-.26696 1.3202h.5Zm.22588-1.12173c.15242-.35561.35762-.66449.61562-.92873l-.3578-.34927c-.30259.30998-.54167.67101-.71739 1.08103l.45957.19697Zm.61352-.92659c.264-.26404.5722-.47189.9266-.62375l-.197-.45957c-.4113.17626-.773.41958-1.0832.72977l.3536.35355Zm.9266-.62375c.3501-.15006.7266-.22588 1.132-.22588v-.5c-.4697 0-.9135.08824-1.329.26631l.197.45957Zm1.132-.22588c.3979 0 .7711.07561 1.1217.22588l.1969-.45957c-.415-.17786-.8553-.26631-1.3186-.26631v.5Zm1.1217.22588c.3543.15186.6625.35971.9266.62375l.3535-.35355c-.3102-.31019-.6719-.55351-1.0832-.72977l-.1969.45957Zm.9266.62375c.264.26404.4719.57224.6237.92659l.4596-.19697c-.1763-.41127-.4196-.77299-.7298-1.08317l-.3535.35355Zm.6244.92809c.1494.34238.2252.71482.2252 1.12023h.5c0-.46959-.0882-.91062-.267-1.3202l-.4582.19997ZM5.5 4.2959c0-.39799.07561-.77111.22588-1.12174l-.45957-.19696C5.08845 3.3922 5 3.83256 5 4.2959h.5Zm.22588-1.12174c.15164-.35381.35887-.65774.62161-.91421l-.34927-.35779c-.31149.30407-.55542.66324-.73191 1.07504l.45957.19696Zm.62375-.91633c.26403-.26403.57224-.47188.92658-.62375l-.19696-.45957c-.41127.17626-.77299.41959-1.08318.72977l.35356.35355Zm.93002-.62525c.34985-.15618.72177-.23463 1.1183-.23463V.897949c-.4648 0-.90636.092453-1.32213.278061l.20383.45657Zm1.1183-.23463c.42192 0 .81587.08788 1.18481.26296l.21437-.45171c-.4377-.20772-.90509-.311251-1.39918-.311251v.500001Zm1.1894.26509c.37953.17079.70715.40716.98475.70999l.3685-.33786c-.3239-.35342-.7073-.62974-1.14807-.82809l-.20518.45596Zm1.16895.29106H10.623v.5H10.7563v-.5Zm-.1333 0H10.5v.5H10.623v-.5Zm-.123 0c-.61332 0-1.19371.11564-1.73873.34818l.19621.45989c.48037-.20495.99373-.30807 1.54252-.30807v-.5Zm-1.73985.34866c-.53427.23104-1.00504.54952-1.41056.95503l.35355.35356c.36011-.36011.77801-.64319 1.25546-.84966l-.19845-.45893Zm-1.41056.95503c-.39905.39905-.717.86957-.9544 1.4091l.45766.20137c.21378-.48586.49739-.90401.85029-1.25691l-.35355-.35356Zm-.95551 1.41168c-.23239.54465-.34818 1.12158-.34818 1.72848h.5c0-.54154.10295-1.05153.30807-1.53226l-.45989-.19622ZM6.0459 6.39795V6.53125h.5V6.39795h-.5Zm.0034.1744c.0046.02762.00685.05489.00685.08195h.5c0-.05498-.00458-.10974-.01365-.16415l-.4932.0822Zm.42366-.10426c-.30228-.2708-.54203-.59524-.71956-.97567l-.45309.21145c.20528.43988.48507.81954.83903 1.13664l.33362-.37242Zm-.71812-.97254C5.58505 5.11825 5.5 4.7192 5.5 4.2959H5c0 .49271.09952.96182.29887 1.40484l.45597-.20519Zm1.84721.9024c0-.39799.07561-.77111.22588-1.12174l-.45957-.19696c-.17786.415-.26631.85536-.26631 1.3187h.5Zm.22588-1.12174c.15186-.35434.35971-.66255.62375-.92658l-.35355-.35356c-.31019.31019-.55351.67191-.72977 1.08318l.45957.19696Zm.62375-.92658c.26478-.26478.5702-.47271.91784-.6244l-.19997-.45827c-.40432.17643-.76198.41968-1.07142.72911l.35355.35356Zm.91633-.62375C9.71814 3.57582 10.0946 3.5 10.5 3.5V3c-.4696 0-.91346.08824-1.32895.26631l.19696.45957ZM10.5 3.5c.4145 0 .8091.08765 1.1863.26365l.2114-.45309C11.4546 3.10376 10.9878 3 10.5 3v.5Zm1.1894.26509c.379.17055.7024.40631.9725.70787l.3725-.33362c-.3178-.35468-.6985-.63162-1.1398-.83021l-.2052.45596Zm1.1587.29106H12.7251v.5H12.8481v-.5Zm-.0819.0034c-.0544-.00906-.1092-.01365-.1641-.01365v.5c.027 0 .0543.00225.0819.00685l.0822-.4932Zm-.1641-.01365c-.6144 0-1.1957.11948-1.7414.35955l.2014.45766c.4798-.2111.9922-.31721 1.54-.31721v-.5Zm-1.7399.35891c-.5343.23104-1.00504.54952-1.41056.95503l.35355.35356c.36011-.36011.77801-.64319 1.25551-.84966l-.1985-.45893Zm-1.41056.95503c-.39905.39905-.717.86957-.95439 1.4091l.45765.20137c.21378-.48586.49739-.90401.85029-1.25691l-.35355-.35356ZM8.49661 6.7704c-.23303.53887-.34866 1.1163-.34866 1.7296h.5c0-.54881.10311-1.0583.30759-1.53114l-.45893-.19846ZM8.14795 8.5V8.62305h.5V8.5h-.5Zm.0034.16415c.0046.02762.00685.05489.00685.08194h.5c0-.05497-.00458-.10973-.01365-.16414l-.4932.0822Zm.42367-.10426c-.30306-.27149-.54289-.59315-.72026-.96688l-.45171.21437c.20545.43291.48514.80852.83834 1.12492l.33363-.37241Zm-.71813-.96229c-.16979-.3773-.25484-.77635-.25484-1.19965h-.5c0 .49271.09952.96182.29888 1.40484l.45596-.20519ZM1.5791 14.5459c-.08188 0-.1435-.0249-.19856-.0763l-.34116.3655c.15002.14.33449.2108.53972.2108v-.5Zm-.19236-.0703c-.059-.059-.08728-.1235-.09112-.2043l-.499439.0238c.009824.2063.090927.3879.236999.534l.35356-.3535Zm-.0957-.1434c.00603-.0301.04933-.2235.13199-.5885l-.487659-.1104c-.081407.3595-.126968.5626-.134618.6009l.490287.098Zm.13221-.5895c.06735-.3031.28686-.6659.70316-1.0888l-.35633-.3508c-.44504.4521-.73822.8959-.834928 1.3311l.488098.1085Zm.70455-1.0902c.19569-.202.4535-.4094.77745-.6209l-.27339-.4187c-.34598.226-.63504.4562-.86318.6917l.35912.3479Zm.77847-.6216c.31983-.2111.72694-.4044 1.22591-.5774l-.16377-.4724c-.52643.1825-.97381.3924-1.33757.6325l.27543.4173Zm1.22495-.5771c.50296-.172 1.10397-.3161 1.80511-.4307l-.08066-.4935c-.72074.1179-1.3502.2677-1.8863.4511l.16185.4731Zm1.80473-.4306c.70127-.1136 1.52137-.1711 2.462-.1711v-.5c-.95976 0-1.80763.0586-2.54191.1775l.07991.4936Zm2.462-.1711H8.68506v-.5H8.39795v.5Zm.28711 0c.08974 0 .17951.0032.2693.0096l.03562-.4988c-.10162-.0072-.20326-.0108-.30492-.0108v.5Zm.07143-.1134c.12247.2089.25942.4072.41084.5947l.38897-.3142c-.13569-.168-.2585-.3458-.36846-.5333l-.43135.2528Zm.4139.5984c.15178.1807.31782.3503.49795.5088l.33031-.3754c-.16166-.1422-.31008-.2939-.44541-.455l-.38285.3216Zm.65434.0713c-.39417.0138-.77834.038-1.15247.0726l.0461.4979c.36415-.0337.73878-.0573 1.1239-.0709l-.01753-.4996Zm-1.15247.0726c-.37578.0348-.73836.0836-1.08764.1465l.08857.4921c.33431-.0602.68268-.1071 1.04517-.1407l-.0461-.4979Zm-1.08364.1458c-.3423.0559-.67464.1258-.99694.2099l.12621.4838c.3066-.08.62368-.1467.9513-.2002l-.08057-.4935Zm-.9932.209c-.31435.0768-.61547.1643-.90326.2626l.16157.4731c.27277-.0931.55954-.1765.86042-.25l-.11873-.4857Zm-.90694.2639c-.54804.1967-1.0432.4333-1.48419.7107l.26623.4232c.40667-.2558.86853-.4773 1.3869-.6633l-.16894-.4706Zm-1.48172.7091c-.44129.2705-.82814.5817-1.15905.9342l.36454.3422c.298-.3175.64942-.601 1.05579-.8501l-.26128-.4263Zm-1.15762.9326c-.15035.1576-.28411.3164-.40074.4768l.40437.2941c.10213-.1404.22129-.2823.35805-.4256l-.36168-.3453Zm-.40511.483c-.10489.1538-.19984.3015-.28467.4429l.42874.2572c.07923-.132.16885-.2715.26904-.4184l-.41311-.2817Zm-.0703.3215H1.5791v.5h.99463v-.5Zm1.09717 2.102c-.0765 0-.13618-.0243-.19237-.0805l-.35355.3535c.14889.1489.33531.227.54592.227v-.5Zm-.19237-.0805c-.05619-.0562-.08058-.1159-.08058-.1924h-.5c0 .2106.07814.397.22703.5459l.35355-.3535Zm-.08058-.1924c0 .0214-.00325.0302.00354-.0065.00457-.0248.01176-.0607.02186-.1086.02011-.0956.05054-.2334.09147-.4142l-.48765-.1104c-.0411.1815-.07219.3223-.0931.4216-.01041.0494-.01859.09-.02428.1208-.00346.0188-.01184.0623-.01184.0973h.5Zm.1161-.526c.07359-.3056.29788-.6699.71441-1.0931l-.35633-.3507c-.4448.4518-.74004.8942-.84419 1.3268l.48611.117Zm.71863-1.0974c.18692-.1994.44265-.4055.77269-.6167l-.26953-.4212c-.35355.2263-.6447.4578-.86793.6959l.36477.342Zm.77564-.6186c.31983-.2111.72694-.4045 1.22591-.5775l-.16377-.4724c-.52643.1825-.97381.3925-1.33757.6326l.27543.4173Zm1.22771-.5781c.50102-.178 1.10024-.3217 1.80003-.4294l-.07603-.4942c-.72208.1111-1.35333.2613-1.89138.4525l.16738.4711Zm1.80235-.4298c.69409-.1134 1.514-.171 2.46162-.171v-.5c-.96644 0-1.8145.0586-2.54228.1776l.08066.4934Zm2.46162-.171c.7916 0 1.4949.0406 2.1107.1209l.0647-.4958c-.642-.0837-1.3674-.1251-2.1754-.1251v.5Zm2.1134.1213c.6191.074 1.1631.1778 1.6333.3103l.1355-.4813c-.5005-.141-1.0708-.2491-1.7095-.3255l-.0593.4965Zm1.6341.3105c.4798.1333.8867.2882 1.2232.4629l.2304-.4437c-.3744-.1944-.8152-.3608-1.3197-.501l-.1339.4818Zm1.2283.4655c.3505.1719.6425.3511.8788.5363l.3084-.3935c-.2696-.2113-.5928-.4081-.967-.5917l-.2202.4489Zm1.0978.0981c-.2877-.0772-.5887-.1437-.9029-.1995l-.0875.4922c.3011.0536.588.117.8608.1902l.1296-.4829Zm-.9019-.1994c-.3075-.0559-.6283-.1012-.9622-.136l-.0518.4973c.3223.0336.6305.0772.9245.1307l.0895-.492Zm-.9564-.1353c-.3291-.042-.6714-.0699-1.0268-.0838l-.0196.4996c.3419.0134.6695.0402.983.0802l.0634-.496Zm-1.0219-.0836c-.3538-.0208-.7176-.0312-1.0913-.0312v.5c.3645 0 .7185.0101 1.0619.0303l.0294-.4991ZM12.6021 13.5c-.4698 0-.9228.0138-1.3592.0415l.0317.499c.425-.027.8675-.0405 1.3275-.0405v-.5Zm-1.3592.0415c-.4376.0278-.8587.073-1.26317.1358l.07667.4941c.3885-.0603.7945-.104 1.2182-.1309l-.0317-.499Zm-1.25899.1352c-.40459.0558-.78946.1292-1.15441.2204l.12127.4851c.34599-.0865.71308-.1567 1.10143-.2102l-.06829-.4953Zm-1.14999.2194c-.36458.0841-.71263.186-1.04395.3058l.17006.4702c.31126-.1126.63997-.2089.98632-.2889l-.11243-.4871Zm-1.04339.3056c-.54775.1966-1.04576.4329-1.49292.7098l.26318.4251c.41416-.2564.88002-.4781 1.39868-.6643l-.16894-.4706Zm-1.49197.7092c-.44129.2704-.82815.5816-1.15905.9341l.36454.3422c.298-.3174.64942-.601 1.05579-.85l-.26128-.4263Zm-1.16177.937c-.14227.1565-.27115.314-.38634.4723l.40437.2941c.10357-.1424.22078-.2857.35194-.43l-.36997-.3364Zm-.38759.4741c-.10711.1499-.204.3006-.29048.4519l.43412.2481c.07759-.1358.16527-.2723.26323-.4094l-.40687-.2906Zm-.07342.3259H3.6709v.5h1.00488v-.5ZM19.4209 18.75H5.77295v.5H19.4209v-.5Zm-13.64795 0c-.0765 0-.13617-.0244-.19236-.0806l-.35356.3536c.14889.1489.33531.227.54592.227v-.5Zm-.19236-.0806C5.5244 18.6132 5.5 18.5535 5.5 18.4771H5c0 .2106.07814.397.22703.5459l.35356-.3536ZM5.5 18.4771c0 .0213-.00325.0302.00354-.0066.00457-.0247.01176-.0606.02186-.1086.02011-.0955.05054-.2333.09148-.4141l-.48766-.1104c-.0411.1815-.07219.3222-.0931.4215-.01041.0495-.01859.0901-.02427.1209C5.00838 18.3985 5 18.442 5 18.4771h.5Zm.1161-.526c.07375-.3063.29864-.6744.71576-1.1047l-.35903-.348c-.44421.4583-.73885.9037-.84284 1.3357l.48611.117Zm.71589-1.1049c.18762-.1939.44433-.3974.77543-.6093l-.26953-.4211c-.35249.2256-.64266.4528-.8652.6827l.3593.3477Zm.77838-.6112c.31983-.2111.72694-.4044 1.22591-.5774l-.16377-.4724c-.52642.1825-.97381.3924-1.33756.6325l.27542.4173Zm1.22772-.578c.50192-.1784 1.10195-.3256 1.80231-.4401l-.0806-.4934c-.72152.1179-1.35196.2715-1.8891.4623l.16739.4712Zm1.80231-.4401c.6941-.1134 1.514-.171 2.4617-.171v-.5c-.9665 0-1.8145.0586-2.5423.1776l.0806.4934Zm2.4617-.171c.9406 0 1.7571.0576 2.4513.171l.0807-.4934c-.7277-.119-1.5723-.1776-2.532-.1776v.5Zm2.4517.1711c.7072.1145 1.3067.2617 1.801.4396l.1693-.4704c-.5311-.1912-1.1621-.3449-1.8904-.4628l-.0799.4936Zm1.8047.4409c.5057.173.9115.366 1.223.5758l.2793-.4147c-.3583-.2413-.807-.4517-1.3404-.6342l-.1619.4731Zm1.2279.579c.3316.2122.593.4166.7886.6122l.3535-.3535c-.2282-.2282-.5205-.4545-.8725-.6798l-.2696.4211Zm.7858.6095c.4169.4301.637.7966.7046 1.1004l.488-.1085c-.0965-.4345-.3891-.8814-.8335-1.3399l-.3591.348Zm.7048 1.1014c.0814.3596.1268.559.1346.5899l.485-.1213c-.0059-.0238-.0493-.2141-.132-.579l-.4876.1104Zm.1274.5174c-.0039.0808-.0321.1452-.0911.2042l.3535.3536c.1461-.1461.2272-.3278.237-.5341l-.4994-.0237Zm-.0911.2042c-.0562.0562-.1159.0806-.1924.0806v.5c.2106 0 .397-.0781.5459-.227l-.3535-.3536Z" fill="#1C0D3F"/></svg>