<svg width="32" height="32" viewBox="0 0 32 32" fill="none" xmlns="http://www.w3.org/2000/svg">
<circle cx="16" cy="16" r="16" fill="#20CA8B"/>
<path d="M12.8486 20.9473C12.8031 20.9473 12.7575 20.9404 12.7119 20.9268C12.6709 20.9085 12.6344 20.8812 12.6025 20.8447L9.10254 17.3447C9.03418 17.2764 9 17.1943 9 17.0986C9 17.0029 9.03418 16.9209 9.10254 16.8525C9.1709 16.7842 9.25293 16.75 9.34863 16.75C9.44434 16.75 9.52637 16.7842 9.59473 16.8525L12.8486 20.1064L22.4053 10.5498C22.4736 10.4814 22.5557 10.4473 22.6514 10.4473C22.7471 10.4473 22.8291 10.4814 22.8975 10.5498C22.9658 10.6182 23 10.7025 23 10.8027C23 10.8984 22.9658 10.9805 22.8975 11.0488L13.0947 20.8447C13.0628 20.8812 13.0241 20.9085 12.9785 20.9268C12.9375 20.9404 12.8942 20.9473 12.8486 20.9473Z" fill="white"/>
<path d="M12.7119 20.9268L12.4073 21.6121L12.4508 21.6314L12.4964 21.6451L12.7119 20.9268ZM12.6025 20.8447L13.167 20.3508L13.1505 20.3321L13.1329 20.3144L12.6025 20.8447ZM12.8486 20.1064L12.3183 20.6368L12.8486 21.1671L13.379 20.6368L12.8486 20.1064ZM22.8975 11.0488L23.4276 11.5793L23.4278 11.5792L22.8975 11.0488ZM13.0947 20.8447L12.5646 20.3142L12.5468 20.332L12.5303 20.3508L13.0947 20.8447ZM12.9785 20.9268L13.2157 21.6383L13.2366 21.6313L13.2571 21.6231L12.9785 20.9268ZM12.8486 20.1973C12.8792 20.1973 12.9062 20.202 12.9274 20.2084L12.4964 21.6451C12.6088 21.6788 12.7269 21.6973 12.8486 21.6973V20.1973ZM13.0165 20.2414C13.0827 20.2708 13.133 20.312 13.167 20.3508L12.0381 21.3386C12.1359 21.4504 12.2591 21.5462 12.4073 21.6121L13.0165 20.2414ZM13.1329 20.3144L9.63287 16.8144L8.57221 17.8751L12.0722 21.3751L13.1329 20.3144ZM9.63287 16.8144C9.66183 16.8434 9.69416 16.8864 9.71794 16.9435C9.74179 17.0007 9.75 17.0552 9.75 17.0986H8.25C8.25 17.3955 8.3648 17.6677 8.57221 17.8751L9.63287 16.8144ZM9.75 17.0986C9.75 17.1421 9.74179 17.1966 9.71794 17.2538C9.69416 17.3109 9.66183 17.3539 9.63287 17.3829L8.57221 16.3222C8.3648 16.5296 8.25 16.8018 8.25 17.0986H9.75ZM9.63287 17.3829C9.6039 17.4118 9.56087 17.4442 9.50379 17.4679C9.44656 17.4918 9.39211 17.5 9.34863 17.5V16C9.05176 16 8.77962 16.1148 8.57221 16.3222L9.63287 17.3829ZM9.34863 17.5C9.30516 17.5 9.2507 17.4918 9.19347 17.4679C9.13639 17.4442 9.09336 17.4118 9.0644 17.3829L10.1251 16.3222C9.91765 16.1148 9.64551 16 9.34863 16V17.5ZM9.0644 17.3829L12.3183 20.6368L13.379 19.5761L10.1251 16.3222L9.0644 17.3829ZM13.379 20.6368L22.9356 11.0801L21.8749 10.0195L12.3183 19.5761L13.379 20.6368ZM22.9356 11.0801C22.9066 11.1091 22.8636 11.1414 22.8065 11.1652C22.7493 11.1891 22.6948 11.1973 22.6514 11.1973V9.69727C22.3545 9.69727 22.0823 9.81207 21.8749 10.0195L22.9356 11.0801ZM22.6514 11.1973C22.6079 11.1973 22.5534 11.1891 22.4962 11.1652C22.4391 11.1414 22.3961 11.1091 22.3671 11.0801L23.4278 10.0195C23.2204 9.81207 22.9482 9.69727 22.6514 9.69727V11.1973ZM22.3671 11.0801C22.3348 11.0478 22.3023 11.0027 22.2793 10.9461C22.2566 10.89 22.25 10.8393 22.25 10.8027H23.75C23.75 10.5118 23.6425 10.2342 23.4278 10.0195L22.3671 11.0801ZM22.25 10.8027C22.25 10.7593 22.2582 10.7048 22.2821 10.6476C22.3058 10.5905 22.3382 10.5475 22.3671 10.5185L23.4278 11.5792C23.6352 11.3718 23.75 11.0996 23.75 10.8027H22.25ZM22.3673 10.5183L12.5646 20.3142L13.6249 21.3752L23.4276 11.5793L22.3673 10.5183ZM12.5303 20.3508C12.5774 20.297 12.6371 20.2555 12.7 20.2304L13.2571 21.6231C13.4111 21.5615 13.5482 21.4654 13.6592 21.3386L12.5303 20.3508ZM12.7413 20.2152C12.7809 20.2021 12.818 20.1973 12.8486 20.1973V21.6973C12.9704 21.6973 13.0941 21.6788 13.2157 21.6383L12.7413 20.2152Z" fill="white"/>
</svg>
