<svg xmlns="http://www.w3.org/2000/svg" width="16" height="13" viewBox="0 0 16 13"><path d="M4.398 12.797c.052 0 .103-.01.153-.027a.313.313 0 00.129-.09L15.883 1.484A.388.388 0 0016 1.2a.388.388 0 00-.117-.285.384.384 0 00-.282-.117.38.38 0 00-.28.117L4.397 11.836.68 8.117A.384.384 0 00.398 8c-.11 0-.203.04-.281.117A.384.384 0 000 8.398c0 .11.039.204.117.282l4.039 4.037c.027.023.057.04.09.053.05.018.1.027.152.027zm0 0c.052 0 .103-.01.153-.027a.313.313 0 00.129-.09L15.883 1.484A.388.388 0 0016 1.2a.388.388 0 00-.117-.285.384.384 0 00-.282-.117.38.38 0 00-.28.117L4.397 11.836.68 8.117A.384.384 0 00.398 8c-.11 0-.203.04-.281.117A.384.384 0 000 8.398c0 .11.039.204.117.282l4.039 4.037c.027.023.057.04.09.053.05.018.1.027.152.027z"/></svg>