<svg id="SvgjsSvg1001" width="288" height="288" xmlns="http://www.w3.org/2000/svg" version="1.1" xmlns:xlink="http://www.w3.org/1999/xlink" xmlns:svgjs="http://svgjs.com/svgjs"><defs id="SvgjsDefs1002"></defs><g id="SvgjsG1008" transform="matrix(1,0,0,1,0,0)"><svg xmlns="http://www.w3.org/2000/svg" width="288" height="288" viewBox="0 0 20 16"><path fill="#ffffff" d="M7.5 15.26a.89.89 0 00.703-.312L19.727 3.464A.952.952 0 0020 2.761a.952.952 0 00-.273-.703L18.28.652a.87.87 0 00-.683-.313.992.992 0 00-.723.313L7.5 10.027 3.125 5.652a.992.992 0 00-.723-.313.87.87 0 00-.683.313L.273 7.058A.952.952 0 000 7.76c0 .286.091.52.273.703l6.524 6.484a.892.892 0 00.703.313z" class="colorgray svgShape"></path></svg></g></svg>