<svg width="100" height="100" viewBox="0 0 100 100" fill="none" xmlns="http://www.w3.org/2000/svg">
<path fill-rule="evenodd" clip-rule="evenodd" d="M6 50C6 25.6995 25.6995 6 50 6C74.3005 6 94 25.6995 94 50C94 74.3005 74.3005 94 50 94C25.6995 94 6 74.3005 6 50ZM92 50C92 26.804 73.196 8 50 8C26.804 8 8 26.804 8 50C8 73.196 26.804 92 50 92C73.196 92 92 73.196 92 50ZM20 49C20.5523 49 21 49.4477 21 50C21 50.5128 20.614 50.9355 20.1166 50.9933L20 51H15C14.4477 51 14 50.5523 14 50C14 49.4872 14.386 49.0645 14.8834 49.0067L15 49H20ZM86 50C86 49.4477 85.5523 49 85 49H80L79.8834 49.0067C79.386 49.0645 79 49.4872 79 50C79 50.5523 79.4477 51 80 51H85L85.1166 50.9933C85.614 50.9355 86 50.5128 86 50ZM49 80C49 79.4477 49.4477 79 50 79C50.5128 79 50.9355 79.386 50.9933 79.8834L51 80V85C51 85.5523 50.5523 86 50 86C49.4872 86 49.0645 85.614 49.0067 85.1166L49 85V80ZM50 14C49.4477 14 49 14.4477 49 15V20L49.0067 20.1166C49.0645 20.614 49.4872 21 50 21C50.5523 21 51 20.5523 51 20V15L50.9933 14.8834C50.9355 14.386 50.5128 14 50 14ZM23.5192 64.134C23.9975 63.8578 24.6091 64.0217 24.8853 64.5C25.1417 64.9441 25.0187 65.5032 24.6169 65.8019L24.5192 65.866L20.1891 68.366C19.7108 68.6422 19.0992 68.4783 18.8231 68C18.5667 67.5559 18.6897 66.9968 19.0915 66.6981L19.1891 66.634L23.5192 64.134ZM81.1769 32C80.9008 31.5217 80.2892 31.3578 79.8109 31.634L75.9138 33.884L75.4808 34.134L75.3831 34.1981C74.9813 34.4968 74.8583 35.0559 75.1147 35.5C75.3909 35.9783 76.0025 36.1422 76.4808 35.866L76.9138 35.616L80.8109 33.366L80.9085 33.3019C81.3103 33.0032 81.4333 32.4441 81.1769 32ZM64.5 75.1147C64.0217 75.3909 63.8578 76.0025 64.134 76.4808L66.634 80.8109L66.6981 80.9085C66.9968 81.3103 67.5559 81.4333 68 81.1769C68.4783 80.9008 68.6422 80.2892 68.366 79.8109L65.866 75.4808L65.8019 75.3831C65.5032 74.9813 64.9441 74.8583 64.5 75.1147ZM31.634 20.1891C31.3578 19.7108 31.5217 19.0992 32 18.8231C32.4441 18.5667 33.0032 18.6897 33.3019 19.0915L33.366 19.1891L35.866 23.5192C36.1422 23.9975 35.9783 24.6091 35.5 24.8853C35.0559 25.1417 34.4968 25.0187 34.1981 24.6169L34.134 24.5192L31.634 20.1891ZM35.5 75.1147C35.0217 74.8386 34.4101 75.0025 34.134 75.4808L31.634 79.8109L31.5815 79.9153C31.3828 80.3748 31.5559 80.9205 32 81.1769C32.4783 81.4531 33.0899 81.2892 33.366 80.8109L35.866 76.4808L35.9185 76.3764C36.1172 75.9168 35.9441 75.3712 35.5 75.1147ZM66.634 19.1891C66.9101 18.7108 67.5217 18.5469 68 18.8231C68.4441 19.0795 68.6172 19.6252 68.4185 20.0848L68.366 20.1891L65.866 24.5192C65.5899 24.9975 64.9783 25.1614 64.5 24.8853C64.0559 24.6288 63.8828 24.0832 64.0815 23.6236L64.134 23.5192L66.634 19.1891ZM62.5 28.3494C62.0217 28.0732 61.4101 28.2371 61.134 28.7154L49.634 48.634L20.1891 31.634C19.7108 31.3578 19.0992 31.5217 18.8231 32C18.5667 32.4441 18.6897 33.0032 19.0915 33.3019L19.1891 33.366L49.5 50.866C49.5598 50.9005 49.6217 50.9282 49.6847 50.9492C50.1259 51.0963 50.6244 50.9185 50.866 50.5L62.866 29.7154L62.9185 29.611C63.1172 29.1514 62.9441 28.6058 62.5 28.3494ZM75.4808 65.866C75.0025 65.5899 74.8386 64.9783 75.1147 64.5C75.3712 64.0559 75.9168 63.8828 76.3764 64.0815L76.4808 64.134L80.8109 66.634C81.2892 66.9101 81.4531 67.5217 81.1769 68C80.9205 68.4441 80.3748 68.6172 79.9153 68.4185L79.8109 68.366L75.4808 65.866Z" fill="#1B127D"/>
</svg>
