<svg width="46" height="47" viewBox="0 0 46 47" fill="none" xmlns="http://www.w3.org/2000/svg">
<rect width="46" height="47" fill="white"/>
<path d="M14.0068 17.0869C14.1231 17.145 14.2393 17.2032 14.3265 17.2903L19.3536 22.3175C19.5571 22.5209 19.6733 22.7824 19.6733 23.073V46.2619C19.6733 46.4653 19.528 46.6106 19.3246 46.6106C19.2374 46.6106 19.1502 46.5815 19.0921 46.5234L14.3555 41.7868C14.1521 41.5834 14.0359 41.3219 14.0359 41.0313V17.0869H14.0068Z" fill="url(#paint0_linear_410_397)"/>
<path d="M27.8383 17.3194C27.9254 17.2322 28.0417 17.145 28.1579 17.0869V41.0313C28.1579 41.3219 28.0417 41.5834 27.8383 41.7868L23.1017 46.5234C22.9564 46.6687 22.753 46.6687 22.6077 46.5234C22.5496 46.4653 22.5205 46.3781 22.5205 46.2909V23.1021C22.5205 22.8405 22.6367 22.55 22.8402 22.3756L27.8383 17.3194Z" fill="url(#paint1_linear_410_397)"/>
<path d="M36.9628 35.7428L36.6141 35.3941V30.4541H31.8194C31.7322 30.4541 31.645 30.4832 31.5578 30.5703L28.1289 33.9993L39.1131 45.0125C39.3165 45.2159 39.578 45.3031 39.8686 45.3031H45.6513C45.8547 45.3031 46 45.1578 46 44.9544C46 44.8672 45.971 44.7801 45.9128 44.7219L36.9628 35.7428Z" fill="url(#paint2_linear_410_397)"/>
<path d="M28.5642 17C28.2736 17 28.0121 17.1162 27.8087 17.3196L22.7815 22.3468C22.6944 22.434 22.6362 22.5502 22.5781 22.6374H36.6135V35.3651L36.9622 35.7138L41.9603 30.7448C42.1637 30.5414 42.2799 30.2798 42.2799 29.9893V23.1023C42.2799 22.8117 42.1637 22.5502 41.9603 22.3468L36.9331 17.3196C36.7297 17.1162 36.4682 17 36.1776 17H28.5642Z" fill="url(#paint3_linear_410_397)"/>
<path d="M14.2969 17.3196C14.0935 17.1162 13.832 17 13.5414 17H0.348705C0.145294 17 0 17.1453 0 17.3487C0 17.4359 0.0290586 17.5231 0.116235 17.6102L4.85281 22.3468C5.05622 22.5502 5.31775 22.6665 5.60833 22.6665H18.9753C19.3531 22.6665 19.6728 22.9861 19.6728 23.3639V23.1023C19.6728 22.8117 19.5565 22.5502 19.3531 22.3468L14.2969 17.3196Z" fill="url(#paint4_linear_410_397)"/>
<path d="M27.8092 17.3196C28.0126 17.1162 28.2741 17 28.5647 17H36.1781C36.4687 17 36.7302 17.1162 36.9336 17.3196L41.9608 22.3468C42.1642 22.5502 42.2804 22.8117 42.2804 23.1023V23.3639C42.2804 22.9861 41.9608 22.6665 41.583 22.6665H23.2179C22.8402 22.6665 22.5205 22.9861 22.5205 23.3639V23.1023C22.5205 22.8117 22.6367 22.5502 22.8402 22.3468L27.8092 17.3196Z" fill="url(#paint5_linear_410_397)"/>
<path d="M42.2805 29.7275C42.2805 30.1053 41.9608 30.425 41.583 30.425H32.1099C32.0227 30.425 31.9355 30.5121 31.9355 30.5993C31.9355 30.6574 31.9646 30.6865 31.9937 30.7155L36.9918 35.7136L41.9899 30.7446C42.1933 30.5412 42.3095 30.2797 42.3095 29.9891V29.7275H42.2805Z" fill="url(#paint6_linear_410_397)"/>
<defs>
<linearGradient id="paint0_linear_410_397" x1="16.826" y1="46.7104" x2="16.826" y2="17.014" gradientUnits="userSpaceOnUse">
<stop offset="0.71" stop-color="#116BF2"/>
<stop offset="1" stop-color="#1E50E5"/>
</linearGradient>
<linearGradient id="paint1_linear_410_397" x1="25.3096" y1="46.7161" x2="25.3096" y2="17.0221" gradientUnits="userSpaceOnUse">
<stop offset="0.71" stop-color="#116BF2"/>
<stop offset="1" stop-color="#1E50E5"/>
</linearGradient>
<linearGradient id="paint2_linear_410_397" x1="31.2345" y1="31.0569" x2="45.0221" y2="44.8445" gradientUnits="userSpaceOnUse">
<stop offset="0.41" stop-color="#116BF2"/>
<stop offset="1" stop-color="#185DEC"/>
</linearGradient>
<linearGradient id="paint3_linear_410_397" x1="32.4257" y1="35.6419" x2="32.4257" y2="16.8059" gradientUnits="userSpaceOnUse">
<stop offset="0.58" stop-color="#116BF2"/>
<stop offset="1" stop-color="#1E50E5"/>
</linearGradient>
<linearGradient id="paint4_linear_410_397" x1="13.4589" y1="16.6531" x2="7.80244" y2="22.3095" gradientUnits="userSpaceOnUse">
<stop offset="0.03" stop-color="#59C5FF"/>
<stop offset="0.99" stop-color="#21B1FF"/>
</linearGradient>
<linearGradient id="paint5_linear_410_397" x1="27.2743" y1="17.9066" x2="32.9308" y2="23.563" gradientUnits="userSpaceOnUse">
<stop offset="0.04" stop-color="#59C5FF"/>
<stop offset="0.99" stop-color="#21B1FF"/>
</linearGradient>
<linearGradient id="paint6_linear_410_397" x1="39.8794" y1="32.9861" x2="35.6371" y2="28.7437" gradientUnits="userSpaceOnUse">
<stop offset="0.04" stop-color="#57C4FF"/>
<stop offset="0.99" stop-color="#21B1FF"/>
</linearGradient>
</defs>
</svg>
