<svg width="46" height="49" viewBox="0 0 46 49" fill="none" xmlns="http://www.w3.org/2000/svg">
<path d="M13.1953 41.4143H12V19.8284H13.1953C13.5234 19.8284 13.8047 19.7112 14.0391 19.4768C14.2734 19.2424 14.3906 18.9534 14.3906 18.6096C14.3906 18.2815 14.2734 18.0002 14.0391 17.7659C13.8047 17.5315 13.5234 17.4143 13.1953 17.4143H3.60938C3.26562 17.4143 2.97656 17.5315 2.74219 17.7659C2.50781 18.0002 2.39062 18.2815 2.39062 18.6096C2.39062 18.9534 2.50781 19.2424 2.74219 19.4768C2.97656 19.7112 3.26562 19.8284 3.60938 19.8284H4.80469V41.4143H3.60938C3.26562 41.4143 2.97656 41.5315 2.74219 41.7659C2.50781 42.0002 2.39062 42.2815 2.39062 42.6096C2.39062 42.9534 2.50781 43.2424 2.74219 43.4768C2.97656 43.7112 3.26562 43.8284 3.60938 43.8284H13.1953C13.5234 43.8284 13.8047 43.7112 14.0391 43.4768C14.2734 43.2424 14.3906 42.9534 14.3906 42.6096C14.3906 42.2815 14.2734 42.0002 14.0391 41.7659C13.8047 41.5315 13.5234 41.4143 13.1953 41.4143ZM9.60938 41.4143H7.19531V19.8284H9.60938V41.4143ZM27.6094 41.4143H26.3906V19.8284H27.6094C27.9375 19.8284 28.2188 19.7112 28.4531 19.4768C28.6875 19.2424 28.8047 18.9534 28.8047 18.6096C28.8047 18.2815 28.6875 18.0002 28.4531 17.7659C28.2188 17.5315 27.9375 17.4143 27.6094 17.4143H18C17.6719 17.4143 17.3906 17.5315 17.1562 17.7659C16.9219 18.0002 16.8047 18.2815 16.8047 18.6096C16.8047 18.9534 16.9219 19.2424 17.1562 19.4768C17.3906 19.7112 17.6719 19.8284 18 19.8284H19.1953V41.4143H18C17.6719 41.4143 17.3906 41.5315 17.1562 41.7659C16.9219 42.0002 16.8047 42.2815 16.8047 42.6096C16.8047 42.9534 16.9219 43.2424 17.1562 43.4768C17.3906 43.7112 17.6719 43.8284 18 43.8284H27.6094C27.9375 43.8284 28.2188 43.7112 28.4531 43.4768C28.6875 43.2424 28.8047 42.9534 28.8047 42.6096C28.8047 42.2815 28.6875 42.0002 28.4531 41.7659C28.2188 41.5315 27.9375 41.4143 27.6094 41.4143ZM24 41.4143H21.6094V19.8284H24V41.4143ZM42 41.4143H40.8047V19.8284H42C42.3281 19.8284 42.6094 19.7112 42.8438 19.4768C43.0781 19.2424 43.1953 18.9534 43.1953 18.6096C43.1953 18.2815 43.0781 18.0002 42.8438 17.7659C42.6094 17.5315 42.3281 17.4143 42 17.4143H32.3906C32.0625 17.4143 31.7812 17.5315 31.5469 17.7659C31.3125 18.0002 31.1953 18.2815 31.1953 18.6096C31.1953 18.9534 31.3125 19.2424 31.5469 19.4768C31.7812 19.7112 32.0625 19.8284 32.3906 19.8284H33.6094V41.4143H32.3906C32.0625 41.4143 31.7812 41.5315 31.5469 41.7659C31.3125 42.0002 31.1953 42.2815 31.1953 42.6096C31.1953 42.9534 31.3125 43.2424 31.5469 43.4768C31.7812 43.7112 32.0625 43.8284 32.3906 43.8284H42C42.3281 43.8284 42.6094 43.7112 42.8438 43.4768C43.0781 43.2424 43.1953 42.9534 43.1953 42.6096C43.1953 42.2815 43.0781 42.0002 42.8438 41.7659C42.6094 41.5315 42.3281 41.4143 42 41.4143ZM38.3906 41.4143H36V19.8284H38.3906V41.4143ZM44.3906 48.6096H1.19531C0.867188 48.6096 0.585938 48.4924 0.351562 48.2581C0.117188 48.0237 0 47.7424 0 47.4143C0 47.0862 0.117188 46.8049 0.351562 46.5706C0.585938 46.3362 0.867188 46.219 1.19531 46.219H44.3906C44.7344 46.219 45.0234 46.3362 45.2578 46.5706C45.4922 46.8049 45.6094 47.0862 45.6094 47.4143C45.6094 47.7424 45.4922 48.0237 45.2578 48.2581C45.0234 48.4924 44.7344 48.6096 44.3906 48.6096ZM42 15.0237H3.60938C3.32812 15.0237 3.07812 14.9456 2.85938 14.7893C2.65625 14.6174 2.51562 14.4065 2.4375 14.1565C2.375 13.8909 2.39062 13.6331 2.48438 13.3831C2.57812 13.1331 2.73438 12.9377 2.95312 12.7971L22.1719 0.797119C22.3594 0.672119 22.5625 0.609619 22.7812 0.609619C23.0156 0.609619 23.2344 0.672119 23.4375 0.797119L42.6328 12.7971C42.8672 12.9377 43.0312 13.1331 43.125 13.3831C43.2188 13.6331 43.2266 13.8909 43.1484 14.1565C43.0703 14.4065 42.9219 14.6174 42.7031 14.7893C42.5 14.9456 42.2656 15.0237 42 15.0237ZM7.78125 12.6096H37.8047L22.8047 3.23462L7.78125 12.6096Z" fill="#1B127D"/>
</svg>
