<svg width="16" height="17" viewBox="0 0 16 17" fill="none" xmlns="http://www.w3.org/2000/svg">
<path d="M7.60156 9.60156C6.99219 9.60156 6.41927 9.48698 5.88281 9.25781C5.35156 9.02344 4.88542 8.70833 4.48438 8.3125C4.08854 7.91146 3.77604 7.44531 3.54688 6.91406C3.31771 6.3776 3.20312 5.80729 3.20312 5.20312C3.20312 4.59375 3.31771 4.02344 3.54688 3.49219C3.77604 2.95573 4.08854 2.48958 4.48438 2.09375C4.88542 1.69271 5.35156 1.3776 5.88281 1.14844C6.41927 0.914062 6.99219 0.796875 7.60156 0.796875C8.20573 0.796875 8.77344 0.914062 9.30469 1.14844C9.84115 1.3776 10.3073 1.69271 10.7031 2.09375C11.1042 2.48958 11.4193 2.95573 11.6484 3.49219C11.8828 4.02344 12 4.59375 12 5.20312C12 5.80729 11.8828 6.3776 11.6484 6.91406C11.4193 7.44531 11.1042 7.91146 10.7031 8.3125C10.3073 8.70833 9.84115 9.02344 9.30469 9.25781C8.77344 9.48698 8.20573 9.60156 7.60156 9.60156ZM7.60156 1.60156C7.10677 1.60156 6.64062 1.69531 6.20312 1.88281C5.76562 2.07031 5.38281 2.32812 5.05469 2.65625C4.73177 2.97917 4.47396 3.35938 4.28125 3.79688C4.09375 4.23438 4 4.70312 4 5.20312C4 5.69792 4.09375 6.16406 4.28125 6.60156C4.47396 7.03906 4.73177 7.42188 5.05469 7.75C5.38281 8.07292 5.76562 8.32812 6.20312 8.51562C6.64062 8.70312 7.10677 8.79688 7.60156 8.79688C8.09635 8.79688 8.5625 8.70312 9 8.51562C9.4375 8.32812 9.81771 8.07292 10.1406 7.75C10.4688 7.42188 10.7266 7.03906 10.9141 6.60156C11.1068 6.16406 11.2031 5.69792 11.2031 5.20312C11.2031 4.70312 11.1068 4.23438 10.9141 3.79688C10.7266 3.35938 10.4688 2.97917 10.1406 2.65625C9.81771 2.32812 9.4375 2.07031 9 1.88281C8.5625 1.69531 8.09635 1.60156 7.60156 1.60156ZM14 16.7969H1.20312C0.869792 16.7969 0.585938 16.6797 0.351562 16.4453C0.117188 16.2109 0 15.9297 0 15.6016C0 15.5859 0.00520833 15.5 0.015625 15.3438C0.0260417 15.1875 0.0625 14.987 0.125 14.7422C0.1875 14.4974 0.283854 14.2214 0.414062 13.9141C0.549479 13.6016 0.736979 13.2839 0.976562 12.9609C1.1224 12.7734 1.27865 12.5964 1.44531 12.4297C1.61198 12.2578 1.78906 12.099 1.97656 11.9531C2.16927 11.8021 2.3724 11.6641 2.58594 11.5391C2.80469 11.4089 3.03385 11.2917 3.27344 11.1875C3.5651 11.0573 3.875 10.9427 4.20312 10.8438C4.53125 10.7448 4.875 10.6641 5.23438 10.6016C5.59896 10.5339 5.97656 10.4844 6.36719 10.4531C6.76302 10.4167 7.17448 10.3984 7.60156 10.3984C8.02344 10.3984 8.43229 10.4167 8.82812 10.4531C9.22396 10.4844 9.60156 10.5339 9.96094 10.6016C10.3203 10.6641 10.6641 10.7448 10.9922 10.8438C11.3203 10.9427 11.6302 11.0573 11.9219 11.1875C12.1615 11.2917 12.388 11.4089 12.6016 11.5391C12.8203 11.6641 13.026 11.8021 13.2188 11.9531C13.4115 12.099 13.5911 12.2578 13.7578 12.4297C13.9245 12.5964 14.0781 12.7734 14.2188 12.9609C14.4635 13.2839 14.651 13.6016 14.7812 13.9141C14.9115 14.2214 15.0078 14.4974 15.0703 14.7422C15.1328 14.987 15.1693 15.1875 15.1797 15.3438C15.1953 15.5 15.2031 15.5859 15.2031 15.6016C15.2031 15.9297 15.0859 16.2109 14.8516 16.4453C14.6172 16.6797 14.3333 16.7969 14 16.7969ZM7.60156 11.2031C6.90365 11.2031 6.2526 11.25 5.64844 11.3438C5.04427 11.4375 4.49219 11.5781 3.99219 11.7656C3.49219 11.9479 3.04427 12.1771 2.64844 12.4531C2.25781 12.7292 1.92448 13.0469 1.64844 13.4062C1.4401 13.6771 1.27865 13.9427 1.16406 14.2031C1.04948 14.4635 0.963542 14.6979 0.90625 14.9062C0.854167 15.1094 0.822917 15.276 0.8125 15.4062C0.802083 15.5312 0.796875 15.5964 0.796875 15.6016C0.796875 15.7109 0.835938 15.8047 0.914062 15.8828C0.992188 15.9609 1.08854 16 1.20312 16H14C14.1094 16 14.2031 15.9609 14.2812 15.8828C14.3594 15.8047 14.3984 15.7109 14.3984 15.6016C14.3984 15.5964 14.3932 15.5312 14.3828 15.4062C14.3724 15.276 14.3385 15.1094 14.2812 14.9062C14.2292 14.6979 14.1458 14.4635 14.0312 14.2031C13.9219 13.9427 13.763 13.6771 13.5547 13.4062C13.2786 13.0469 12.9427 12.7292 12.5469 12.4531C12.1562 12.1771 11.7083 11.9479 11.2031 11.7656C10.7031 11.5781 10.151 11.4375 9.54688 11.3438C8.94792 11.25 8.29948 11.2031 7.60156 11.2031Z" fill="#6D7680"/>
</svg>
