<svg width="28" height="28" viewBox="0 0 28 28" fill="none" xmlns="http://www.w3.org/2000/svg">
<path d="M14.7734 14.6543L20.9932 8.43457C21.1006 8.32715 21.1543 8.19824 21.1543 8.04785C21.1543 7.89746 21.1006 7.76855 20.9932 7.66113C20.8857 7.55371 20.7533 7.5 20.5957 7.5C20.4453 7.5 20.3164 7.55371 20.209 7.66113L14 13.8701L7.79102 7.66113C7.68359 7.55371 7.55111 7.5 7.39355 7.5C7.24316 7.5 7.11426 7.55371 7.00684 7.66113C6.89941 7.76855 6.8457 7.89746 6.8457 8.04785C6.8457 8.19824 6.89941 8.32715 7.00684 8.43457L13.2266 14.6543L7.00684 20.8633C6.89941 20.9707 6.8457 21.0996 6.8457 21.25C6.8457 21.4004 6.89941 21.5293 7.00684 21.6367C7.06413 21.694 7.125 21.737 7.18945 21.7656C7.26107 21.7871 7.33268 21.7979 7.4043 21.7979C7.46875 21.7979 7.5332 21.7871 7.59766 21.7656C7.66927 21.737 7.73372 21.694 7.79102 21.6367L14 15.4277L20.209 21.6367C20.2663 21.694 20.3271 21.737 20.3916 21.7656C20.4632 21.7871 20.5312 21.7979 20.5957 21.7979C20.6673 21.7979 20.7354 21.7871 20.7998 21.7656C20.8714 21.737 20.9359 21.694 20.9932 21.6367C21.1006 21.5293 21.1543 21.4004 21.1543 21.25C21.1543 21.0996 21.1006 20.9707 20.9932 20.8633L14.7734 14.6543Z" fill="#ED26B7"/>
</svg>
