<svg width="24" height="24" viewBox="0 0 24 24" fill="none" xmlns="http://www.w3.org/2000/svg">
<path d="M13.2656 11.707L23.4434 1.5293C23.6191 1.35352 23.707 1.14258 23.707 0.896484C23.707 0.650391 23.6191 0.439453 23.4434 0.263672C23.2676 0.0878906 23.0508 0 22.793 0C22.5469 0 22.3359 0.0878906 22.1602 0.263672L12 10.4238L1.83984 0.263672C1.66406 0.0878906 1.44727 0 1.18945 0C0.943359 0 0.732422 0.0878906 0.556641 0.263672C0.380859 0.439453 0.292969 0.650391 0.292969 0.896484C0.292969 1.14258 0.380859 1.35352 0.556641 1.5293L10.7344 11.707L0.556641 21.8672C0.380859 22.043 0.292969 22.2539 0.292969 22.5C0.292969 22.7461 0.380859 22.957 0.556641 23.1328C0.650391 23.2266 0.75 23.2969 0.855469 23.3438C0.972656 23.3789 1.08984 23.3965 1.20703 23.3965C1.3125 23.3965 1.41797 23.3789 1.52344 23.3438C1.64062 23.2969 1.74609 23.2266 1.83984 23.1328L12 12.9727L22.1602 23.1328C22.2539 23.2266 22.3535 23.2969 22.459 23.3438C22.5762 23.3789 22.6875 23.3965 22.793 23.3965C22.9102 23.3965 23.0215 23.3789 23.127 23.3438C23.2441 23.2969 23.3496 23.2266 23.4434 23.1328C23.6191 22.957 23.707 22.7461 23.707 22.5C23.707 22.2539 23.6191 22.043 23.4434 21.8672L13.2656 11.707Z" fill="#1C0D3F"/>
</svg>
