<svg width="28" height="26" viewBox="0 0 28 26" fill="none" xmlns="http://www.w3.org/2000/svg">
<path d="M15.4062 13.0078L26.7148 1.69922C26.9102 1.50391 27.0078 1.26953 27.0078 0.996094C27.0078 0.722656 26.9102 0.488281 26.7148 0.292969C26.5195 0.0976562 26.2786 0 25.9922 0C25.7188 0 25.4844 0.0976562 25.2891 0.292969L14 11.582L2.71094 0.292969C2.51562 0.0976562 2.27474 0 1.98828 0C1.71484 0 1.48047 0.0976562 1.28516 0.292969C1.08984 0.488281 0.992188 0.722656 0.992188 0.996094C0.992188 1.26953 1.08984 1.50391 1.28516 1.69922L12.5938 13.0078L1.28516 24.2969C1.08984 24.4922 0.992188 24.7266 0.992188 25C0.992188 25.2734 1.08984 25.5078 1.28516 25.7031C1.38932 25.8073 1.5 25.8854 1.61719 25.9375C1.7474 25.9766 1.8776 25.9961 2.00781 25.9961C2.125 25.9961 2.24219 25.9766 2.35938 25.9375C2.48958 25.8854 2.60677 25.8073 2.71094 25.7031L14 14.4141L25.2891 25.7031C25.3932 25.8073 25.5039 25.8854 25.6211 25.9375C25.7513 25.9766 25.875 25.9961 25.9922 25.9961C26.1224 25.9961 26.2461 25.9766 26.3633 25.9375C26.4935 25.8854 26.6107 25.8073 26.7148 25.7031C26.9102 25.5078 27.0078 25.2734 27.0078 25C27.0078 24.7266 26.9102 24.4922 26.7148 24.2969L15.4062 13.0078Z" fill="#1C0D3F"/>
</svg>
