<svg xmlns="http://www.w3.org/2000/svg" width="14" height="13" viewBox="0 0 14 13">
  <path d="M485.996094,26.9980469 C486.061198,26.9980469 486.124674,26.9866536 486.186523,26.9638672 C486.248372,26.9410807 486.305339,26.9036458 486.357422,26.8515625 C486.455078,26.7539062 486.503906,26.6367188 486.503906,26.5 C486.503906,26.3632812 486.455078,26.2460938 486.357422,26.1484375 L480.703125,20.5039062 L486.357422,14.8496094 C486.455078,14.7519531 486.503906,14.6347656 486.503906,14.4980469 C486.503906,14.3613281 486.455078,14.2441406 486.357422,14.1464844 C486.259766,14.0488281 486.140951,14 486.000977,14 C485.861003,14 485.742188,14.0488281 485.644531,14.1464844 L480,19.7910156 L474.355469,14.1464844 C474.257812,14.0488281 474.138997,14 473.999023,14 C473.859049,14 473.740234,14.0488281 473.642578,14.1464844 C473.544922,14.2441406 473.496094,14.3613281 473.496094,14.4980469 C473.496094,14.6347656 473.544922,14.7519531 473.642578,14.8496094 L479.296875,20.5039062 L473.642578,26.1484375 C473.544922,26.2460938 473.496094,26.3632812 473.496094,26.5 C473.496094,26.6367188 473.544922,26.7539062 473.642578,26.8515625 C473.694661,26.9036458 473.751628,26.9410807 473.813477,26.9638672 C473.875326,26.9866536 473.938802,26.9980469 474.003906,26.9980469 C474.0625,26.9980469 474.122721,26.9866536 474.18457,26.9638672 C474.246419,26.9410807 474.303385,26.9036458 474.355469,26.8515625 L480,21.2070312 L485.644531,26.8515625 C485.696615,26.9036458 485.753581,26.9410807 485.81543,26.9638672 C485.877279,26.9866536 485.9375,26.9980469 485.996094,26.9980469 Z" transform="translate(-473 -14)"/>
</svg>
