<svg width="656" height="250" viewBox="0 0 656 250" fill="none" xmlns="http://www.w3.org/2000/svg">
<path d="M0.382812 118.765C0.985723 117.078 1.48742 115.358 1.88534 113.615C4.05803 101.361 9.30699 89.8295 17.159 80.0607H84.4375C78.3406 81.8504 71.6719 83.214 65.5129 85.7463C42.6026 95.1697 32.0352 117.218 40.1191 138.731C46.2533 155.046 58.9318 164.384 75.6211 168.925C78.7376 169.777 81.979 170.216 85.1327 171.36H17.2335C9.3159 161.207 4.05872 149.306 1.92259 136.698C1.56248 134.75 0.90435 132.851 0.382812 130.927V118.765Z" fill="#1C0D3F"/>
<path d="M87.3015 45.639V72.9229H23.8848C24.7637 71.701 25.7394 70.549 26.8029 69.4774C40.4622 57.3877 56.2825 49.5715 74.648 47.0148C76.0178 46.6931 77.3494 46.232 78.6217 45.639H87.3015Z" fill="#1C0D3F"/>
<path d="M156.84 45.639V73.0811H128.9C128.689 63.9743 128.49 54.8189 128.279 45.639H156.84Z" fill="#1C0D3F"/>
<path d="M533.33 162.031H510.757L510.492 161.191C511.736 160.801 512.876 160.399 514.095 160.046C517.933 158.902 519.882 156.479 519.867 152.449C519.867 135.197 519.867 117.946 519.867 98.9407L511.104 92.3415L511.672 91.3433H534.025L571.799 135.709L573.351 135.221V125.822C573.351 119.321 573.077 112.808 573.424 106.343C573.796 99.1962 572.621 93.3642 564.113 91.3918H650.352V111.517C647.733 106.854 646.005 102.69 643.313 99.2692C640.096 95.2147 635.093 94.0217 629.963 93.9003C625.292 93.8028 620.612 93.9003 616.304 93.9003C613.347 98.9162 612.578 112.978 614.405 123.12C624.475 125.713 629.106 122.304 634.148 109.058V143.147C632.063 139.069 630.633 134.625 627.813 131.228C624.675 127.49 619.78 126.614 614.067 127.637C613.856 137.851 612.652 148.005 614.914 158.134C623.256 161.921 630.893 160.192 638.27 157.477C646.054 154.604 650.377 148.03 653.965 140.932L655.703 141.552C654.465 148.188 653.109 154.835 651.718 161.933H587.533C590.412 160.204 593.99 159.194 595.381 156.893C596.908 154.373 596.722 150.683 596.746 147.493C596.859 132.677 596.835 117.86 596.746 103.043C596.746 94.2043 590.686 90.2963 582.231 93.4254C578.217 94.8984 577.438 97.9298 577.463 101.692C577.536 119.565 577.463 137.425 577.463 155.261V163.699L576.308 164.478C574.55 163.124 572.891 161.656 571.339 160.082C557.44 143.939 543.576 127.791 529.741 111.639C528.415 110.105 527.034 108.62 524.909 106.245C524.547 107.961 524.293 109.697 524.151 111.444C524.151 123.217 524.366 135.003 524.028 146.751C523.832 153.995 524.836 159.912 534.412 160.728L533.33 162.031Z" fill="#1C0D3F"/>
<path d="M137.616 122.792H89.3242V80.9468C109.18 77.3065 136.002 95.3738 137.616 122.792Z" fill="#1C0D3F"/>
<path d="M137.313 129.207C139.201 149.71 113.149 172.33 88.8848 170.602V129.207H137.313Z" fill="#1C0D3F"/>
<path d="M247.065 148.465C246.823 149.484 246.435 150.464 245.91 151.375C236.932 162.77 222.813 167.056 208.185 162.892C201.481 161.023 195.515 157.199 191.08 151.928C186.644 146.657 183.948 140.188 183.35 133.38C182.63 125.247 183.002 117.248 186.579 109.578C194.216 93.2399 211.998 85.4356 229.394 91.0481C232.71 92.1198 235.963 93.3735 239.664 94.7007L245.612 89.7333V114.302C244.601 112.468 243.49 110.688 242.284 108.97C238.559 104.416 235.429 99.1566 230.884 95.577C221.136 87.9801 208.943 91.0971 204.423 102.419C198.409 117.255 198.28 133.761 204.062 148.684C205.624 152.834 208.727 156.252 212.749 158.254C216.772 160.257 221.418 160.696 225.756 159.483C231.294 157.815 236.274 154.309 241.378 151.411C242.97 150.275 244.431 148.973 245.736 147.527L247.065 148.465Z" fill="#1C0D3F"/>
<path d="M389.931 139.309C388.614 146.906 387.36 154.174 386.019 161.869H327.904C330.537 160.103 333.803 158.996 335.007 156.804C336.349 154.369 336.038 150.936 336.05 147.94C336.125 132.73 336.125 117.516 336.05 102.297C336.05 94.9924 335.38 94.2375 328.202 91.5347H361.258C361.258 91.6806 361.171 92.3136 360.998 92.3503C353.112 94.0789 351.821 95.3576 351.759 103.307C351.622 119.524 351.659 135.754 351.759 152.007C351.981 154.176 352.426 156.318 353.087 158.399C361.209 161.723 369.119 161.041 375.228 156.341C380.953 151.946 384.851 145.372 389.931 139.309Z" fill="#1C0D3F"/>
<path d="M504.302 161.891H467.66L467.561 160.99L470.826 160.26C475.309 159.261 477.432 156.413 477.445 151.993C477.445 135.168 477.557 118.342 477.445 101.516C477.445 95.4286 475.806 94.2111 467.772 91.496H504.165C504.165 91.6669 504.165 92.2999 503.994 92.3361C495.177 94.4059 494.467 95.246 494.467 104.171C494.467 118.561 494.467 132.956 494.467 147.354C494.418 158.178 494.531 158.324 504.302 161.891Z" fill="#1C0D3F"/>
<path d="M86.642 204.939C61.807 203.721 40.3616 195.856 21.6855 177.971H86.642V204.939Z" fill="#1C0D3F"/>
<path d="M156.363 177.933V204.596H129.119V177.933H156.363Z" fill="#1C0D3F"/>
<path d="M289.52 161.168L295.518 159.086C296.76 153.12 296.089 150.563 291.42 141.773H267.355L262.462 157.6L271.155 161.666H250.914C257.744 158.233 259.606 152.657 261.705 147.215C268.327 130.17 274.979 113.166 281.66 96.2026C282.517 93.9869 283.572 91.8564 285.224 88.1306C286.974 91.2596 288.254 93.1101 289.098 95.1432C296.71 113.515 304.111 131.972 311.897 150.271C313.648 154.386 316.665 157.99 319.074 161.788H289.707L289.52 161.168ZM290.34 137.768C286.763 128.795 283.423 120.431 280.095 112.067L278.469 112.322C275.426 120.54 272.372 128.77 269.044 137.768H290.34Z" fill="#1C0D3F"/>
<path d="M397.841 161.972C405.8 160.34 406.533 154.423 406.533 148.007C406.533 133.58 406.608 119.165 406.471 104.75C406.397 96.118 405.229 94.7056 396.537 91.9906C398.124 91.6278 399.733 91.3634 401.355 91.1994C413.164 91.1994 424.948 91.0168 436.745 91.3698C441.066 91.5642 445.335 92.3846 449.411 93.8048C456.402 96.1547 460.835 100.829 461.307 108.524C461.791 116.438 458.823 122.659 451.509 125.971C446.985 127.845 442.209 129.075 437.329 129.623C433.132 130.207 428.773 129.745 423.881 129.745C423.881 138.888 423.595 146.948 424.004 154.971C424.191 158.624 426.116 159.585 432.697 161.972H397.841ZM423.918 126.665C434.895 128.381 441.7 124.607 442.705 116.316C443.227 112.293 443.202 108.219 442.631 104.202C441.302 94.8882 432.151 91.0898 423.918 96.3373V126.665Z" fill="#1C0D3F"/>
</svg>
