<svg width="849" height="250" viewBox="0 0 849 250" fill="none" xmlns="http://www.w3.org/2000/svg">
<g clip-path="url(#clip0_1121_175)">
<path fill-rule="evenodd" clip-rule="evenodd" d="M811.793 186.346C809.759 186.346 808.629 185.059 808.629 183.302C808.629 181.545 809.759 180.258 811.793 180.258C816.873 180.258 819.128 178.617 822.396 169.723L824.538 164.103L805.469 113.412C805.356 113.061 805.242 112.477 805.242 111.89C805.242 110.37 806.486 108.964 808.288 108.964C809.651 108.964 810.662 109.667 811.225 111.306L827.589 155.441H827.702L843.617 111.306C844.179 109.667 845.191 108.964 846.543 108.964C848.35 108.964 849.475 110.37 849.475 111.89C849.475 112.477 849.367 113.061 849.253 113.412L828.043 170.658C823.299 183.654 819.458 186.346 812.691 186.346H811.793ZM776.837 162.349V102.76C776.837 89.4148 781.008 85.6682 791.848 85.6682H793.428C795.457 85.6682 796.593 86.9551 796.593 88.7126C796.593 90.4685 795.457 91.7565 793.428 91.7565C784.513 91.7565 782.934 93.1603 782.934 101.941V108.731C782.934 109.199 783.161 109.433 783.61 109.433H793.763C795.684 109.433 796.593 110.604 796.593 112.243C796.593 113.882 795.684 115.054 793.763 115.054H783.61C783.161 115.054 782.934 115.286 782.934 115.754V162.349C782.934 164.572 781.684 165.743 779.888 165.743C778.076 165.743 776.837 164.572 776.837 162.349ZM758.261 162.349V112.359C758.261 110.136 759.506 108.964 761.312 108.964C763.119 108.964 764.358 110.136 764.358 112.359V162.349C764.358 164.572 763.119 165.743 761.312 165.743C759.506 165.743 758.261 164.572 758.261 162.349ZM756.574 90.1191C756.574 87.4246 758.716 85.2019 761.312 85.2019C763.909 85.2019 766.051 87.4246 766.051 90.1191C766.051 92.8103 763.909 95.0346 761.312 95.0346C758.716 95.0346 756.574 92.8103 756.574 90.1191ZM718.237 162.349V112.359C718.237 110.136 719.476 108.964 721.282 108.964C723.084 108.964 724.333 110.136 724.333 112.359V117.745H724.447C726.476 112.126 731.555 108.264 738.555 108.264C742.839 108.264 745.657 109.433 747.799 110.723C749.157 111.54 749.601 112.477 749.601 113.531C749.601 115.286 748.362 116.691 746.555 116.691C746.106 116.691 745.544 116.573 744.981 116.34C742.498 115.171 740.123 114.351 737.419 114.351C727.941 114.351 724.333 122.779 724.333 133.2V162.349C724.333 164.572 723.084 165.743 721.282 165.743C719.476 165.743 718.237 164.572 718.237 162.349ZM700.938 133.316C701.392 133.316 701.619 133.081 701.619 132.613C701.619 129.335 701.278 126.875 700.602 124.651C698.46 117.745 693.153 114.117 686.159 114.117C679.159 114.117 673.972 117.745 671.829 124.651C671.148 126.875 670.807 129.335 670.807 132.613C670.807 133.081 671.034 133.316 671.489 133.316H700.938ZM666.296 151.813C665.17 148.299 664.608 144.437 664.608 137.297C664.608 130.269 665.17 126.409 666.296 122.779C669.228 113.412 676.563 108.264 686.159 108.264C695.858 108.264 703.193 113.412 706.131 122.779C707.267 126.291 707.829 130.505 707.829 136.125C707.829 137.88 706.693 139.051 705 139.051H671.489C671.034 139.051 670.807 139.284 670.807 139.753C670.807 144.319 671.034 146.661 671.938 149.469C674.307 156.844 679.841 160.357 687.171 160.357C693.267 160.357 697.665 158.366 701.733 154.035C702.29 153.45 703.08 152.865 703.983 152.865C705.568 152.865 706.693 154.035 706.693 155.559C706.693 156.376 706.466 157.079 706.017 157.664C702.182 162.7 695.75 166.446 686.835 166.446C676.449 166.446 669.341 161.41 666.296 151.813ZM603.882 133.316C604.336 133.316 604.563 133.081 604.563 132.613C604.563 129.335 604.222 126.875 603.546 124.651C601.404 117.745 596.097 114.117 589.103 114.117C582.103 114.117 576.91 117.745 574.768 124.651C574.092 126.875 573.751 129.335 573.751 132.613C573.751 133.081 573.978 133.316 574.433 133.316H603.882ZM569.24 151.813C568.114 148.299 567.546 144.437 567.546 137.297C567.546 130.269 568.114 126.409 569.24 122.779C572.171 113.412 579.507 108.264 589.103 108.264C598.802 108.264 606.137 113.412 609.075 122.779C610.205 126.291 610.768 130.505 610.768 136.125C610.768 137.88 609.637 139.051 607.949 139.051H574.433C573.978 139.051 573.751 139.284 573.751 139.753C573.751 144.319 573.978 146.661 574.882 149.469C577.251 156.844 582.785 160.357 590.115 160.357C596.211 160.357 600.609 158.366 604.677 154.035C605.234 153.45 606.024 152.865 606.927 152.865C608.512 152.865 609.637 154.035 609.637 155.559C609.637 156.376 609.415 157.079 608.961 157.664C605.126 162.7 598.689 166.446 589.779 166.446C579.393 166.446 572.285 161.41 569.24 151.813ZM633.482 162.113L609.442 89.8843C609.329 89.4148 609.215 88.8295 609.215 88.361C609.215 86.4872 610.568 85.2019 612.374 85.2019C613.732 85.2019 614.857 86.1377 615.42 87.7768L637.425 154.153H637.653L659.317 87.7768C659.885 86.1377 661.016 85.2019 662.368 85.2019C664.17 85.2019 665.527 86.4872 665.527 88.361C665.527 88.8295 665.414 89.5327 665.3 89.8843L641.266 162.113C640.476 164.572 639.459 165.743 637.312 165.743C635.283 165.743 634.272 164.572 633.482 162.113ZM557.22 165.743C548.987 165.743 546.049 161.763 546.049 152.631V88.7142C546.049 86.491 547.294 85.3187 549.1 85.3187C550.902 85.3187 552.14 86.491 552.14 88.7142V152.397C552.14 157.9 553.612 159.654 558.35 159.654C560.379 159.654 561.509 160.943 561.509 162.7C561.509 164.454 560.379 165.743 558.35 165.743H557.22ZM528.444 150.289C529.572 146.661 529.912 142.915 529.912 137.297C529.912 131.792 529.572 128.046 528.444 124.418C526.415 118.096 521.561 114.351 514.676 114.351C507.904 114.351 502.94 117.512 500.795 124.067C499.898 127.109 499.444 131.792 499.444 137.297C499.444 142.915 499.898 147.597 500.795 150.641C502.94 157.197 507.904 160.357 514.676 160.357C521.561 160.357 526.415 156.611 528.444 150.289ZM499.557 158.251H499.444V162.349C499.444 164.572 498.203 165.743 496.396 165.743C494.592 165.743 493.35 164.572 493.35 162.349V88.5963C493.35 86.3725 494.592 85.2019 496.396 85.2019C498.203 85.2019 499.444 86.3725 499.444 88.5963V116.457H499.557C502.149 111.658 506.893 108.264 515.695 108.264C524.835 108.264 531.379 113.297 534.202 122.077C535.553 126.642 536.117 130.974 536.117 137.297C536.117 143.735 535.553 148.066 534.202 152.631C531.379 161.41 524.835 166.446 515.695 166.446C506.893 166.446 502.149 163.05 499.557 158.251ZM475.408 162.349V158.484H475.297C472.251 163.517 467.174 166.446 459.611 166.446C447.762 166.446 440.99 158.719 440.99 145.139V112.359C440.99 110.136 442.231 108.964 444.039 108.964C445.844 108.964 447.082 110.136 447.082 112.359V143.617C447.082 154.738 451.598 160.357 460.966 160.357C469.089 160.357 475.408 154.387 475.408 144.788V112.359C475.408 110.136 476.652 108.964 478.456 108.964C480.261 108.964 481.506 110.136 481.506 112.359V162.349C481.506 164.572 480.261 165.743 478.456 165.743C476.652 165.743 475.408 164.572 475.408 162.349ZM424.678 149.938C425.694 146.777 426.145 143.383 426.145 137.297C426.145 131.325 425.694 127.93 424.678 124.769C422.536 118.096 417.344 114.351 410.346 114.351C403.464 114.351 398.273 118.096 396.129 124.769C395.114 127.93 394.664 131.325 394.664 137.297C394.664 143.383 395.114 146.777 396.129 149.938C398.273 156.611 403.464 160.357 410.346 160.357C417.344 160.357 422.536 156.611 424.678 149.938ZM390.26 151.93C389.133 148.183 388.459 144.086 388.459 137.297C388.459 130.621 389.133 126.525 390.26 122.779C393.196 113.531 400.532 108.264 410.346 108.264C420.281 108.264 427.613 113.531 430.548 122.779C431.677 126.525 432.353 130.621 432.353 137.297C432.353 144.086 431.677 148.183 430.548 151.93C427.613 161.177 420.281 166.446 410.346 166.446C400.532 166.446 393.196 161.177 390.26 151.93ZM335.225 159.422H350.573C362.083 159.422 368.177 155.443 371.336 145.49C372.8 140.692 373.368 136.125 373.368 125.94C373.368 115.756 372.8 111.192 371.336 106.39C368.177 96.4405 362.083 92.4597 350.573 92.4597H335.225C334.774 92.4597 334.548 92.694 334.548 93.1624V158.719C334.548 159.188 334.774 159.422 335.225 159.422ZM328.115 89.2985C328.115 87.3073 329.36 86.1377 331.274 86.1377H351.474C365.579 86.1377 373.933 92.576 377.544 104.166C379.239 109.669 379.8 114.468 379.8 125.94C379.8 137.414 379.239 142.213 377.544 147.715C373.933 159.305 365.579 165.743 351.474 165.743H331.274C329.36 165.743 328.115 164.571 328.115 162.582V89.2985Z" fill="#1C0D3F"/>
<path fill-rule="evenodd" clip-rule="evenodd" d="M8.98903 186.377C4.0242 186.377 0 182.084 0 176.786V67.2381C0 61.941 4.0242 57.6476 8.98903 57.6476C13.954 57.6476 17.9782 61.941 17.9782 67.2381V176.786C17.9782 182.084 13.954 186.377 8.98903 186.377Z" fill="#1C0D3F"/>
<path fill-rule="evenodd" clip-rule="evenodd" d="M48.7617 186.377H36.4345C31.2025 186.377 26.9609 182.085 26.9609 176.789C26.9609 171.493 31.2025 167.202 36.4345 167.202H48.7617C73.3814 167.202 93.4103 146.929 93.4103 122.015C93.4103 97.0961 73.3814 76.8237 48.7617 76.8237H36.4345C31.2025 76.8237 26.9609 72.5307 26.9609 67.2352C26.9609 61.9397 31.2025 57.6476 36.4345 57.6476H48.7617C83.8281 57.6476 112.357 86.5223 112.357 122.015C112.357 157.503 83.8281 186.377 48.7617 186.377Z" fill="#1C0D3F"/>
<path fill-rule="evenodd" clip-rule="evenodd" d="M179.573 186.377C176.105 186.377 172.787 184.327 171.225 180.835L122.218 71.2916C120.07 66.4913 122.064 60.7858 126.671 58.5477C131.276 56.3105 136.751 58.3871 138.9 63.1883L187.908 172.731C190.055 177.532 188.061 183.237 183.455 185.477C182.199 186.087 180.874 186.377 179.573 186.377Z" fill="#1C0D3F"/>
<path fill-rule="evenodd" clip-rule="evenodd" d="M196.973 149.596C195.708 149.596 194.425 149.306 193.203 148.693C188.73 146.451 186.795 140.736 188.88 135.927L220.444 63.196C222.532 58.388 227.848 56.3062 232.32 58.5517C236.793 60.7934 238.727 66.509 236.641 71.317L205.078 144.049C203.562 147.543 200.339 149.596 196.973 149.596Z" fill="#1C0D3F"/>
<path fill-rule="evenodd" clip-rule="evenodd" d="M283.15 213.949H285.397V30.051H283.15V213.949Z" fill="#1C0D3F"/>
</g>
<defs>
<clipPath id="clip0_1121_175">
<rect width="849" height="250" fill="white"/>
</clipPath>
</defs>
</svg>
