<svg width="133" height="21" viewBox="0 0 133 21" fill="none" xmlns="http://www.w3.org/2000/svg">
<g clip-path="url(#clip0_1147_31352)">
<path d="M28.0606 0.078125C31.2597 0.078125 33.819 1.18128 36.0253 3.03456L32.5173 7.22651C31.4583 6.29987 30.2669 5.41735 28.193 5.41735C25.3689 5.41735 23.6259 7.40301 23.6259 10.5359C23.6259 13.6689 25.3248 15.6104 28.193 15.6104C30.0904 15.6104 31.4141 14.8382 32.4511 13.8013L36.1356 17.6843C33.7969 19.7803 31.2376 20.9717 27.7958 20.9717C21.552 20.9717 17.1836 16.4267 17.1836 10.558C17.1836 4.71133 21.7285 0.078125 28.0606 0.078125Z" fill="#1C0D3F"/>
<path d="M44.014 9.16797L49.1325 16.0516L54.2511 9.16797V16.1178H60.2743V0.453125H53.9423L49.1325 7.09406L44.367 0.453125H37.9687V16.1178H44.014V9.16797Z" fill="#1C0D3F"/>
<path d="M0.261627 0.453125V20.5966H6.70395V13.5806H14.3377V8.48402H6.70395V5.94679H15.5952V0.453125H0.261627Z" fill="#1C0D3F"/>
<path d="M44.014 17.5938H37.9687V20.5943H44.014V17.5938Z" fill="#1C0D3F"/>
<path d="M60.2731 17.5938H54.25V20.5943H60.2731V17.5938Z" fill="#1C0D3F"/>
<path d="M67.0692 2.59186H64.3554V0.429688H72.7173V2.59186H70.0035V11.4391H67.0692V2.59186Z" fill="#1C0D3F"/>
<path d="M75.2095 0.429688H80.4384C82.402 0.429688 83.9906 1.3122 83.9906 3.20961C83.9906 4.66577 83.3066 5.6586 81.8725 5.98954V6.01161C82.8212 6.2543 82.8874 7.09269 83.439 8.43853L84.5201 11.4391H81.4533L80.8135 9.45341C80.2178 7.556 79.8427 7.09269 78.7396 7.09269H78.1218V11.4391H75.1875V0.429688H75.2095ZM78.1439 4.99671H78.9161C79.8648 4.99671 81.0562 4.97464 81.0562 3.71706C81.0562 2.70217 80.0413 2.5036 78.9161 2.5036H78.1439V4.99671Z" fill="#1C0D3F"/>
<path d="M90.2324 0.429688H93.8286L98.0647 11.4391H94.8435L94.0272 9.10041H89.9014L89.041 11.4391H86.0625L90.2324 0.429688ZM92.0195 2.70217H91.9974L90.5854 7.00444H93.3432L92.0195 2.70217Z" fill="#1C0D3F"/>
<path d="M97.8242 0.429688H100.935L103.384 9.05628H103.406L105.877 0.429688H108.878L105.127 11.4391H101.509L97.8242 0.429688Z" fill="#1C0D3F"/>
<path d="M110.84 0.429688H118.606V2.5036H113.774V4.77608H118.341V6.84999H113.774V9.3431H118.782V11.4391H110.84V0.429688Z" fill="#1C0D3F"/>
<path d="M121.254 0.429688H124.166V9.25485H128.711V11.4391H121.254V0.429688Z" fill="#1C0D3F"/>
<path d="M65.6112 18.7841C66.0966 19.0489 66.7806 19.2474 67.5748 19.2474C68.1705 19.2474 68.7442 19.115 68.7442 18.5635C68.7442 17.2397 65.3906 18.0781 65.3906 15.4967C65.3906 13.7758 67.0674 13.3125 68.4794 13.3125C69.1634 13.3125 69.8252 13.4228 70.3106 13.5773L70.1782 15.0334C69.6929 14.8128 69.1413 14.7025 68.5897 14.7025C68.1043 14.7025 67.3101 14.7466 67.3101 15.3644C67.3101 16.5116 70.6636 15.7394 70.6636 18.2987C70.6636 20.152 69.1192 20.6374 67.5307 20.6374C66.8688 20.6374 66.0525 20.5271 65.4127 20.3285L65.6112 18.7841Z" fill="#1C0D3F"/>
<path d="M75.9804 13.3125C78.3191 13.3125 79.5546 14.7025 79.5546 16.997C79.5546 19.2474 78.3191 20.6815 75.9804 20.6815C73.6638 20.6815 72.4062 19.2695 72.4062 16.997C72.4283 14.7025 73.6417 13.3125 75.9804 13.3125ZM75.9804 19.2695C77.1277 19.2695 77.591 18.1663 77.591 16.997C77.591 15.7615 77.1277 14.7245 75.9804 14.7245C74.8331 14.7245 74.3698 15.7615 74.3698 16.997C74.3698 18.1663 74.8331 19.2695 75.9804 19.2695Z" fill="#1C0D3F"/>
<path d="M81.2773 13.4453H83.1747V19.1375H86.1091V20.5496H81.2773V13.4453Z" fill="#1C0D3F"/>
<path d="M94.0733 17.8579C94.0733 19.7994 92.8157 20.6819 90.9624 20.6819C89.1091 20.6819 87.8515 19.7994 87.8515 17.8579V13.4453H89.7489V17.549C89.7489 18.4757 90.0137 19.2699 90.9624 19.2699C91.9332 19.2699 92.1759 18.4757 92.1759 17.549V13.4453H94.0733V17.8579Z" fill="#1C0D3F"/>
<path d="M97.5359 14.8353H95.7929V13.4453H101.198V14.8353H99.4333V20.5496H97.5359V14.8353Z" fill="#1C0D3F"/>
<path d="M104.819 13.4453H102.922V20.5496H104.819V13.4453Z" fill="#1C0D3F"/>
<path d="M110.113 13.3125C112.452 13.3125 113.687 14.7025 113.687 16.997C113.687 19.2474 112.452 20.6815 110.113 20.6815C107.797 20.6815 106.539 19.2695 106.539 16.997C106.539 14.7025 107.752 13.3125 110.113 13.3125ZM110.113 19.2695C111.26 19.2695 111.724 18.1663 111.724 16.997C111.724 15.7615 111.26 14.7245 110.113 14.7245C108.966 14.7245 108.503 15.7615 108.503 16.997C108.503 18.1663 108.944 19.2695 110.113 19.2695Z" fill="#1C0D3F"/>
<path d="M115.387 13.4453H117.814L120.218 18.255H120.241L120.196 13.4453H121.939V20.5496H119.579L117.086 15.6957L117.13 20.5496H115.387V13.4453Z" fill="#1C0D3F"/>
<path d="M123.9 18.7841C124.386 19.0489 125.07 19.2474 125.864 19.2474C126.46 19.2474 127.033 19.115 127.033 18.5635C127.033 17.2397 123.68 18.0781 123.68 15.4967C123.68 13.7758 125.356 13.3125 126.768 13.3125C127.452 13.3125 128.114 13.4228 128.6 13.5773L128.467 15.0334C127.982 14.8128 127.43 14.7025 126.879 14.7025C126.393 14.7025 125.599 14.7466 125.599 15.3644C125.599 16.5116 128.953 15.7394 128.953 18.2987C128.953 20.152 127.408 20.6374 125.82 20.6374C125.158 20.6374 124.342 20.5271 123.702 20.3285L123.9 18.7841Z" fill="#1C0D3F"/>
<path d="M131.205 13.3359C131.999 13.3359 132.639 13.9758 132.639 14.77C132.639 15.5643 131.999 16.1821 131.205 16.1821C130.411 16.1821 129.793 15.5422 129.793 14.77C129.793 13.9758 130.433 13.3359 131.205 13.3359ZM131.205 15.9394C131.867 15.9394 132.396 15.4098 132.396 14.748C132.396 14.0861 131.867 13.5566 131.205 13.5566C130.543 13.5566 130.014 14.0861 130.014 14.748C130.036 15.4098 130.565 15.9394 131.205 15.9394ZM130.609 14.0199H131.315C131.712 14.0199 131.867 14.2626 131.867 14.5053C131.867 14.6597 131.779 14.8362 131.58 14.9245C131.646 15.0568 131.823 15.3878 131.889 15.4981H131.514L131.249 14.9686H130.918V15.4981H130.587V14.0199H130.609ZM131.293 14.7038C131.492 14.7038 131.558 14.5935 131.558 14.5053C131.558 14.395 131.492 14.2846 131.293 14.2846H130.962V14.7038H131.293Z" fill="#1C0D3F"/>
</g>
<defs>
<clipPath id="clip0_1147_31352">
<rect width="132.377" height="20.8936" fill="white" transform="translate(0.261688 0.078125)"/>
</clipPath>
</defs>
</svg>
