<svg width="152" height="20" viewBox="0 0 152 20" fill="none" xmlns="http://www.w3.org/2000/svg">
<path d="M151.87 12.3579C151.339 8.75943 147.123 8.54703 144.335 8.40595C144.335 8.40595 132.824 8.08657 131.611 8.0323C130.543 7.98424 129.3 7.77339 129.179 6.55478C129.052 5.27882 130.177 4.68657 131.201 4.46486C133.246 4.023 135.289 3.98579 137.316 3.98579C141.773 3.98579 145.872 4.48502 150.201 5.29432L150.671 1.74548L150.676 1.72068C147.411 1.10052 142.894 0.367188 138.071 0.367188C135.816 0.367188 133.694 0.49897 131.764 0.757885C129.485 1.06331 126.99 1.5982 125.766 3.23695C124.727 4.6292 124.619 6.98114 125.249 8.58579C126.332 11.3439 130.167 11.4509 132.557 11.5625C132.557 11.5625 144.136 11.9005 145.364 11.9563C146.431 12.0059 147.674 12.223 147.795 13.4788C147.904 14.5997 147.173 15.4121 145.662 15.7346C143.687 16.1548 141.603 16.2121 139.578 16.2121C134.655 16.2121 130.308 15.6866 125.308 14.8943L124.9 18.4788C128.198 19.1517 133.263 19.9424 138.824 19.9424H138.894C141.016 19.9424 143.158 19.9424 145.263 19.6308C147.12 19.3579 149.068 18.9424 150.53 17.6432C151.97 16.3641 152.14 14.1548 151.874 12.3579H151.87Z" fill="#1C0D3F"/>
<path d="M16.6827 15.1213L5.17043 0.498047H0.28125V19.8174H4.6046V6.42363L14.1873 18.5957C15.5419 20.3167 17.8189 20.3229 19.1781 18.5957L28.7593 6.42363V19.8174H33.0826V0.498047H28.1934L16.6827 15.1213Z" fill="#1C0D3F"/>
<path d="M69.2531 0.498047H44.1094V19.8174H69.4639L70.0996 15.9104H48.4327V12.112H68.3945V8.20347H48.4327V4.40502H69.2531V0.498047Z" fill="#1C0D3F"/>
<path d="M110.979 19.8137L118.865 0.498992H114.402L108.366 15.2835L101.252 2.25713C100.612 1.1207 99.427 0.419922 98.1451 0.419922C96.8633 0.419922 95.677 1.1207 95.0384 2.25713L87.9238 15.2835L81.8848 0.498992H77.4219L85.3086 19.8137H89.8974L98.1436 4.57496L106.39 19.8137H110.979Z" fill="#1C0D3F"/>
</svg>
