<svg width="219" height="29" viewBox="0 0 219 29" fill="none" xmlns="http://www.w3.org/2000/svg"><path d="m48.6531 10.1738-2.1618.6113c-.1351-.3603-.3345-.7142-.5983-1.0552-.2638-.34099-.6177-.63051-1.068-.84926-.4504-.22519-1.023-.33456-1.7243-.33456-.9587 0-1.7565.21875-2.3934.65625-.637.4375-.9522.99727-.9522 1.66637 0 .5983.2187 1.0744.6562 1.4219.4375.3474 1.1131.6369 2.0396.8685l2.329.5727c1.4026.3409 2.4449.8557 3.1333 1.5569.6884.6949 1.0294 1.5956 1.0294 2.6894 0 .9007-.2573 1.6985-.772 2.4062-.5148.7078-1.2289 1.2675-2.149 1.6728-.92.4054-1.988.6113-3.204.6113-1.602 0-2.921-.3475-3.9697-1.0423-1.0487-.6949-1.7114-1.7114-1.988-3.0432l2.284-.5726c.2187.8428.6305 1.4733 1.2417 1.8979.6112.4247 1.409.6306 2.3934.6306 1.1259 0 2.0138-.2381 2.6829-.7206.6627-.4826.9973-1.0552.9973-1.7307 0-.5469-.1931-1.0037-.5727-1.3704-.3796-.3732-.965-.6499-1.7564-.83l-2.6121-.6112c-1.4348-.341-2.4899-.8686-3.1591-1.5892-.6691-.7206-1.0036-1.6149-1.0036-2.7022 0-.8879.2509-1.66636.7527-2.34835.5019-.68199 1.1839-1.216 2.0524-1.60203.8686-.38603 1.853-.57904 2.9532-.57904 1.5505 0 2.7729.34099 3.6608 1.02298.8879.68199 1.5184 1.57629 1.8916 2.69574h-.0129ZM59.3916 6.66166v2.03953h-8.126V6.66166h8.126ZM53.6333 2.9043h2.4062v14.9458c0 .682.103 1.1903.3024 1.5248.1995.3346.4568.5598.7785.6756.3153.1094.6498.1673 1.0037.1673.2638 0 .4825-.0129.6563-.0451.1672-.0321.3088-.0579.4053-.0772l.489 2.1618c-.1609.0643-.3925.1222-.682.1866-.296.0643-.6627.0965-1.1131.0965-.682 0-1.3447-.148-1.9945-.4375-.6498-.2895-1.1902-.7399-1.6149-1.3383-.4246-.5983-.6369-1.3511-.6369-2.2647V2.9043ZM63.0264 22.3417V6.66245h2.329v2.36766h.1609c.2831-.7785.8042-1.40258 1.5505-1.88512.7463-.48254 1.5956-.72702 2.5285-.72702.1802 0 .3989 0 .6627.01287.2638.00643.4632.0193.6048.03217V8.9143c-.0837-.0193-.2702-.05147-.5533-.09651-.2895-.04504-.5919-.06434-.9136-.06434-.7657 0-1.4412.16085-2.0396.47611-.5919.31525-1.068.75276-1.409 1.30604-.341.5533-.5147 1.1839-.5147 1.8916v9.921h-2.4062v-.0065ZM74.9483 4.04964c-.4697 0-.875-.16085-1.2096-.48254-.3345-.32169-.5082-.70129-.5082-1.15165 0-.45037.1672-.82997.5082-1.15166.3346-.321694.7399-.48254 1.2096-.48254s.875.160846 1.2096.48254c.3345.32169.5082.70129.5082 1.15166 0 .45036-.1672.83639-.5082 1.15165-.341.31526-.7399.48254-1.2096.48254ZM73.7259 22.341V6.66178h2.4062V22.341h-2.4062ZM82.9522 12.9096v9.432h-2.4063V6.66234h2.3291v2.45129h.2058c.3668-.79779.9265-1.43474 1.6728-1.92372.7464-.48897 1.7179-.72702 2.9017-.72702 1.0616 0 1.988.21875 2.7858.64982.7978.43107 1.4155 1.08732 1.8594 1.96232.444.875.6627 1.98167.6627 3.31347v9.9595H90.557v-9.7987c0-1.2289-.3217-2.1939-.9587-2.88236-.6369-.68842-1.5184-1.03584-2.6314-1.03584-.7721 0-1.4541.16727-2.0589.50183-.6047.33456-1.0744.8171-1.4218 1.46047-.3475.637-.5212 1.4155-.5212 2.3291l-.0128-.0129ZM103.695 28.5489c-1.165 0-2.162-.148-3.005-.444-.8426-.2959-1.531-.6819-2.0844-1.1645-.5533-.4825-.9972-.9908-1.3189-1.5377l1.9173-1.3446c.2187.2831.4954.6176.83.9843.335.3668.791.6949 1.37.9716.579.2766 1.345.4117 2.291.4117 1.267 0 2.31-.3088 3.133-.92.824-.6112 1.235-1.5699 1.235-2.8759V19.445h-.205c-.181.2831-.425.6369-.753 1.0551-.322.4182-.785.7914-1.39 1.1131-.605.3217-1.415.4825-2.432.4825-1.267 0-2.4-.2959-3.4035-.9007-1.0036-.5983-1.795-1.4669-2.3805-2.6121-.579-1.1453-.875-2.5285-.875-4.1627 0-1.6342.2831-3.0046.8493-4.2013.5662-1.19672 1.3511-2.11676 2.3612-2.77944 1.0035-.65626 2.1685-.98438 3.4935-.98438 1.023 0 1.834.16728 2.432.50827.605.33456 1.068.72059 1.39 1.14522.321.42464.572.77207.753 1.04872h.244v-2.4899h2.329V22.797c0 1.3447-.302 2.4449-.914 3.2942-.611.8492-1.428 1.4733-2.451 1.8658-1.023.3989-2.162.5983-3.416.5983v-.0064Zm-.084-8.6149c.965 0 1.782-.2188 2.451-.6627.67-.4439 1.171-1.0809 1.519-1.9109.347-.8299.521-1.8207.521-2.9788 0-1.1581-.167-2.1232-.508-2.9918-.341-.8621-.843-1.54409-1.512-2.03306-.669-.48897-1.493-.73346-2.471-.73346s-1.872.25736-2.548.7785c-.675.52114-1.1834 1.20952-1.518 2.08452-.3346.8686-.5083 1.8401-.5083 2.9017 0 1.0616.1737 2.0524.5147 2.8824.341.8299.8556 1.4862 1.5316 1.9623.675.4761 1.518.7077 2.528.7077v-.0064ZM121.247 22.6684c-1.416 0-2.658-.3346-3.719-1.0102-1.068-.6755-1.898-1.6149-2.49-2.8308-.598-1.2096-.894-2.6251-.894-4.2464 0-1.6213.296-3.0561.894-4.2785.598-1.21598 1.428-2.16176 2.49-2.83731 1.061-.67555 2.303-1.01011 3.719-1.01011 1.415 0 2.657.33456 3.718 1.01011 1.062.67555 1.898 1.62133 2.49 2.83731.599 1.216.894 2.6443.894 4.2785 0 1.6342-.295 3.0368-.894 4.2464-.598 1.2095-1.428 2.1553-2.49 2.8308-1.068.6756-2.303 1.0102-3.718 1.0102Zm0-2.1618c1.074 0 1.962-.2767 2.65-.83.695-.5533 1.21-1.2739 1.544-2.1746.335-.9008.502-1.8723.502-2.921 0-1.0487-.167-2.0266-.502-2.9274-.334-.9072-.849-1.6342-1.544-2.19392-.695-.55974-1.576-.8364-2.65-.8364-1.075 0-1.963.27666-2.651.8364-.695.55972-1.21 1.28672-1.544 2.19392-.335.9072-.502 1.8787-.502 2.9274s.167 2.0202.502 2.921c.334.9007.849 1.6213 1.544 2.1746.695.5533 1.576.83 2.651.83ZM140.11 22.3402V6.66096h2.329v2.45129h.206c.328-.8364.856-1.48621 1.583-1.95588.727-.46324 1.602-.70129 2.625-.70129s1.898.23162 2.586.70129c.689.46323 1.229 1.11948 1.615 1.95588h.161c.399-.81066 1.004-1.45404 1.808-1.93658.804-.48254 1.769-.72059 2.889-.72059 1.402 0 2.548.4375 3.442 1.3125.888.875 1.338 2.23252 1.338 4.07902v10.4936h-2.406V11.8466c0-1.1581-.315-1.98159-.952-2.47699-.631-.49541-1.377-.74633-2.233-.74633-1.1 0-1.956.33456-2.56.99725-.605.66267-.908 1.49907-.908 2.51567v10.2105h-2.451V11.6021c0-.8878-.289-1.60841-.869-2.16172-.579-.54688-1.325-.82353-2.232-.82353-.624 0-1.21.16728-1.75.50184-.54.33456-.978.79136-1.306 1.38331-.328.5919-.496 1.2674-.496 2.0395v9.7987h-2.419ZM171.675 22.6697c-1.512 0-2.812-.3345-3.906-1.0036-1.094-.6692-1.93-1.6085-2.522-2.8181-.592-1.2095-.881-2.6121-.881-4.2206 0-1.6084.296-3.0239.881-4.2527.586-1.2289 1.409-2.18754 2.471-2.87596 1.055-.68842 2.297-1.03585 3.712-1.03585.817 0 1.621.13511 2.419.40533s1.519.71416 2.175 1.31894c.656.61121 1.171 1.41544 1.563 2.41264.386.9973.579 2.2326.579 3.6931v1.023h-12.082v-2.0846h9.637c0-.8879-.173-1.6728-.527-2.3677-.348-.6948-.849-1.24169-1.493-1.64059-.643-.3989-1.402-.60478-2.271-.60478-.959 0-1.789.23805-2.483.70772-.695.4761-1.236 1.08735-1.609 1.84005-.373.7528-.56 1.5635-.56 2.432v1.3897c0 1.1839.206 2.1875.618 3.0046.412.8236.984 1.4412 1.718 1.8658.733.4247 1.589.637 2.561.637.63 0 1.209-.0901 1.717-.2702.515-.1802.959-.4504 1.332-.8171.373-.3668.663-.8171.869-1.364l2.329.6498c-.245.7914-.656 1.4798-1.235 2.0782-.58.5919-1.294 1.0551-2.143 1.3897-.849.3281-1.808.4954-2.869.4954v.0128ZM187.759 22.6692c-1.306 0-2.458-.3346-3.461-.9973-1.004-.6627-1.782-1.602-2.349-2.818-.566-1.216-.849-2.6507-.849-4.3107 0-1.6599.283-3.0753.849-4.2849.567-1.20957 1.351-2.14891 2.362-2.80516 1.003-.66269 2.168-.99081 3.493-.99081 1.023 0 1.827.16728 2.426.50827.598.341 1.048.72059 1.37 1.14523.322.42463.566.77206.74 1.04871h.206V1.4375h2.406V22.341h-2.329v-2.4062h-.283c-.18.2831-.431.6434-.753 1.0744-.321.4311-.791.8171-1.396 1.1517-.605.3346-1.415.5083-2.419.5083h-.013Zm.328-2.1618c.965 0 1.782-.2509 2.452-.7592.669-.5083 1.17-1.2096 1.518-2.1103.347-.9007.521-1.943.521-3.1268 0-1.1839-.167-2.194-.508-3.0754-.341-.8814-.843-1.56987-1.512-2.06528-.669-.4954-1.493-.73989-2.471-.73989s-1.872.25736-2.548.7785c-.675.52114-1.183 1.22247-1.518 2.11027-.334.8879-.508 1.8851-.508 2.9853s.173 2.1296.514 3.0368.856 1.6278 1.532 2.1618c.675.534 1.518.8042 2.528.8042ZM200.903 4.04964c-.469 0-.875-.16085-1.209-.48254-.335-.32169-.508-.70129-.508-1.15165 0-.45037.167-.82997.508-1.15166.334-.321694.74-.48254 1.209-.48254.47 0 .875.160846 1.21.48254.335.32169.508.70129.508 1.15166 0 .45036-.167.83639-.508 1.15165-.341.31526-.74.48254-1.21.48254ZM199.681 22.341V6.66178h2.406V22.341h-2.406ZM211.114 22.707c-.991 0-1.898-.1866-2.702-.5662-.804-.3796-1.454-.9265-1.93-1.6407-.476-.7205-.714-1.5891-.714-2.6057 0-.9007.18-1.6277.534-2.1875.353-.5597.83-1.0036 1.421-1.3189.592-.3217 1.249-.5597 1.963-.7206.72-.1608 1.441-.2895 2.168-.3796.952-.1222 1.724-.2187 2.323-.2831.592-.0643 1.029-.1737 1.306-.3345.276-.1544.411-.4311.411-.8171v-.0837c0-1.0036-.276-1.78858-.823-2.34832-.547-.55975-1.377-.8364-2.484-.8364-1.106 0-2.052.25092-2.708.75276-.65.50184-1.113 1.04226-1.377 1.61486l-2.284-.8171c.405-.95217.952-1.6985 1.641-2.23251.682-.53401 1.434-.90717 2.245-1.12592.811-.21232 1.615-.32169 2.406-.32169.502 0 1.081.0579 1.744.18015.656.1158 1.293.36029 1.911.72702.617.36673 1.126.92004 1.537 1.66636.406.7399.612 1.73719.612 2.97889v10.3327h-2.407v-2.1231h-.122c-.161.341-.437.7013-.817 1.0937-.38.386-.888.7206-1.518.9908-.631.2702-1.403.4054-2.317.4054h-.019Zm.367-2.1618c.952 0 1.756-.1866 2.413-.5598.656-.3731 1.151-.8557 1.492-1.4476.335-.5919.508-1.216.508-1.8658v-2.2068c-.103.1223-.321.2316-.669.3346-.347.1029-.74.1866-1.183.2573-.444.0708-.876.1351-1.3.1866-.418.0515-.759.0965-1.017.1287-.624.0836-1.209.2123-1.75.3924-.54.1802-.978.4504-1.306.8043-.328.3538-.495.8428-.495 1.454 0 .8364.309 1.4669.933 1.8916.624.4246 1.415.6369 2.374.6369v-.0064ZM24.2113.414062H3.70667C1.93093.414062.489746 1.85524.489746 3.63098V24.1356c0 1.7758 1.441184 3.217 3.216924 3.217H24.2113c1.7758 0 3.2169-1.4412 3.2169-3.217V3.63098c0-1.77574-1.4411-3.216918-3.2169-3.216918ZM21.374 19.04c0 .6048-.2381 1.171-.6627 1.5956-.5726.5726-1.364.785-2.1682.5919-.2059-.0514-.3989-.1351-.5855-.2445-.6948-.4375-1.0937-1.1387-1.0937-1.9365v-5.2951c0-.7399-.2896-1.4347-.8107-1.9623-.5211-.5211-1.216-.8107-1.9623-.8107H8.86661c-.54045 0-1.04872-.1608-1.42832-.4503-.77849-.59195-1.08088-1.56346-.79136-2.52211.03217-.10294.07721-.20588.12868-.30239.4182-.77206 1.17096-1.22886 2.02022-1.22886H19.0514c.5211 0 .9972.14154 1.3704.41177.5983.43106.9458 1.09375.9522 1.81434V19.04Z" fill="#1C0D3F"/></svg>