<svg width="109" height="34" viewBox="0 0 109 34" fill="none" xmlns="http://www.w3.org/2000/svg"><g clip-path="url(#clip0_1855_8102)"><path d="M15.595 12.4525c0 1.87-1.512 3.41-3.348 3.41-1.836 0-3.34803-1.54-3.34803-3.41S10.411 9.04246 12.247 9.04246s3.348 1.54004 3.348 3.41004Zm-3.348 4.73c-1.836 0-3.34803 1.54-3.34803 3.41s1.51203 3.41 3.34803 3.41 3.348-1.54 3.348-3.41-1.512-3.41-3.348-3.41Zm20.196-.66c0 9.13-7.236 16.5-16.2 16.5-8.96403 0-16.2000312-7.37-16.2000312-16.5C.0429688 7.39246 7.27897.0224609 16.243.0224609c8.964 0 16.2 7.3699991 16.2 16.5000391Zm-4.32 0c0-6.71004-5.292-12.10004-11.88-12.10004-6.58803 0-11.88003 5.39-11.88003 12.10004 0 6.71 5.292 12.1 11.88003 12.1 6.588 0 11.88-5.39 11.88-12.1Zm-7.884.66c-1.836 0-3.348 1.54-3.348 3.41s1.512 3.41 3.348 3.41c1.836 0 3.348-1.54 3.348-3.41s-1.512-3.41-3.348-3.41Zm0-8.14004c-1.836 0-3.348 1.54004-3.348 3.41004 0 1.87 1.512 3.41 3.348 3.41 1.836 0 3.348-1.54 3.348-3.41s-1.512-3.41004-3.348-3.41004Zm55.728-2.53c.108 0 .216.11.324.22v3.52004c0 .22-.216.33-.324.33h-5.724c-.216 0-.324-.22-.324-.33V6.84246c0-.22.216-.33.324-.33h5.724Zm-.108 4.95004H64.843c-.108 0-.324.11-.324.33l-1.404 5.5-.108.33-1.728-5.83c0-.11-.216-.33-.324-.33h-4.32c-.108 0-.324.11-.324.33l-1.62 5.5-.108.33-.108-.33-.648-2.75-.648-2.75c0-.11-.216-.33-.324-.33h-8.64V6.73246c0-.11-.216-.33-.432-.22l-5.4 1.76c-.216 0-.324.11-.324.33v2.97004h-1.404c-.108 0-.324.11-.324.33v4.18c0 .11.108.33.324.33h1.404v5.17c0 3.63 1.944 5.28 5.508 5.28 1.512 0 2.916-.33 3.888-.88v-4.4c0-.22-.216-.33-.324-.22-.54.22-1.08.33-1.512.33-.972 0-1.512-.44-1.512-1.54v-3.74h3.132c.108 0 .324-.11.324-.33v-3.52l4.104 13.86c0 .11.216.33.324.33h4.536c.108 0 .324-.11.324-.33l1.944-6.16.972 3.19.864 2.97c0 .11.216.33.324.33h4.536c.108 0 .324-.11.324-.33l4.104-13.86v13.86c0 .11.108.33.324.33h5.508c.108 0 .324-.11.324-.33v-14.63c0-.11-.108-.33-.216-.33Zm7.236-4.95004h-5.508c-.108 0-.324.11-.324.33V26.3125c0 .11.108.33.324.33h5.508c.108 0 .324-.11.324-.33V6.73246c0-.11-.108-.22-.324-.22Zm7.344 0h-5.724c-.108 0-.324.11-.324.33v3.41004c0 .11.108.33.324.33h5.724c.108 0 .324-.11.324-.33V6.73246c0-.11-.108-.22-.324-.22Zm-.108 4.95004h-5.508c-.108 0-.324.11-.324.33v14.41c0 .11.108.33.324.33h5.508c.108 0 .324-.11.324-.33v-14.41c0-.11-.108-.33-.324-.33Zm17.388 7.48c0 4.18-3.456 7.81-8.316 7.81-4.752 0-8.208-3.63-8.208-7.81s3.456-7.81 8.316-7.81c4.752 0 8.208 3.63 8.208 7.81Zm-5.832.11c0-1.54-1.08-2.75-2.376-2.64-1.404 0-2.376 1.21-2.376 2.64 0 1.43 1.08 2.64 2.376 2.64 1.404 0 2.376-1.21 2.376-2.64Z" fill="#1C0D3F"/></g><defs><clipPath id="clip0_1855_8102"><path fill="#1C0D3F" d="M.0429688.0224609h108v33h-108z"/></clipPath></defs></svg>