<svg width="678" height="250" viewBox="0 0 678 250" fill="none" xmlns="http://www.w3.org/2000/svg">
<path fill-rule="evenodd" clip-rule="evenodd" d="M226.242 175.438H167.933C165.99 175.434 164.518 173.955 164.515 172.001V164.848C164.473 163.092 165.034 162.312 166.107 160.974L212.521 106.736H167.045C165.098 106.732 163.626 105.253 163.623 103.3V98.2307C163.626 96.277 165.098 94.798 167.045 94.7945H225.946C227.893 94.798 229.365 96.277 229.365 98.2307V105.532C229.394 106.854 228.936 107.973 227.89 109.148L181.363 163.497H226.242C228.186 163.5 229.657 164.979 229.661 166.933V171.998C229.657 173.955 228.186 175.434 226.242 175.438ZM341.188 176.929H341.193C345.374 176.845 348.46 176.015 349.672 174.651C350.098 174.167 350.298 173.611 350.244 173.059C350.216 172.604 350.216 172.604 349.068 167.206L349.043 167.079C348.796 165.669 347.79 165.028 346.964 165.028L346.852 165.037C346.852 165.037 345.804 164.986 344.769 164.986H344.761C341.783 164.891 339.316 164.456 339.265 160.078V68.4693C339.261 66.9444 338.348 65.3737 336.589 65.3366L336.07 65.3401L327.93 67.4333C326.543 67.5763 325.098 68.5699 325.161 70.4107V160.376C325.173 171.033 330.868 176.908 341.179 176.929H341.188ZM505.772 175.438H498.509C496.561 175.434 495.095 173.955 495.087 172.001V116.859C494.957 107.532 492.183 104.937 482.189 104.8C470.887 104.8 459.443 107.645 455.673 108.681V171.998C455.668 173.989 454.295 175.434 452.4 175.438H444.985C443.038 175.434 441.569 173.955 441.569 172.001V110.154C441.46 104.429 441.992 100.47 450.093 97.8336C457.85 95.1439 472.692 92.8619 482.498 92.8531C501.186 92.8778 509.166 99.6568 509.191 115.514V171.998C509.185 173.955 507.719 175.434 505.772 175.438ZM578.79 107.055C576.074 106.362 568.506 104.648 559.977 104.648C544.318 104.794 537.747 109.069 537.583 135.191C537.767 163.88 546.262 165.429 560.117 165.581L560.129 166.183V165.581C568.742 165.581 576.142 163.773 578.779 163.046L578.79 107.055ZM582.608 174.365L581.742 174.584C577.12 175.762 570.789 177.375 559.69 177.375H559.662C529.075 177.328 523.068 161.82 523.038 135.041C523.077 104.332 532.758 92.8954 558.77 92.8531C567.95 92.8531 574.269 94.0479 578.812 95.1474L578.779 70.4142C578.745 69.327 579.234 67.9045 581.787 67.4156L589.906 65.3366H590.35C592.222 65.3825 592.88 67.0538 592.886 68.4693V161.421C593.009 167.286 592.323 172.323 582.608 174.365ZM641.92 165.433C621.875 165.344 620.869 154.999 620.728 135.196C620.869 115.28 621.875 104.883 641.92 104.8C661.975 104.883 662.976 115.28 663.117 135.184C662.976 154.999 661.97 165.344 641.92 165.433ZM641.92 92.8531C608.87 92.899 606.07 114.732 606.037 135.191C606.07 155.576 608.87 177.328 641.92 177.375C674.952 177.328 677.763 155.636 677.814 135.188C677.78 113.794 674.975 92.899 641.92 92.8531ZM412.832 135.622C409.522 135.659 393.466 135.92 387.075 137.293L386.571 137.403C379.383 139.019 373.706 140.291 373.636 150.991C373.648 164.444 383.895 165.651 394.388 165.733L394.397 166.334V165.733C400.965 165.733 407.164 164.797 412.832 162.944V135.622ZM427.012 115.966V158.738C427.154 169.37 424.436 172.768 413.787 175.252C409.124 176.225 401.978 177.375 394.237 177.375C382.831 177.349 359.097 177.303 359.088 151.58C359.012 131.322 371.118 127.801 385.751 125.541C395.334 123.996 405.082 123.763 410.039 123.763C411.378 123.763 412.245 123.776 412.76 123.785V116.559C412.714 111.734 412.684 108.811 408.199 107.106C405.43 105.931 401.304 105.393 395.164 105.393C385.042 105.393 375.977 107.671 369.979 109.182L367.688 109.722C367.44 109.784 367.177 109.847 366.833 109.865H366.829C365.774 109.865 364.613 109.237 364.185 107.835L364.151 107.705L362.8 100.823L362.794 100.467C362.815 98.8449 363.985 97.8936 365.078 97.5442C369.912 95.7334 382.693 92.8619 396.461 92.8531C406.523 92.8619 413.787 94.175 418.675 96.8788C427.045 101.325 427.024 109.443 427.012 115.966ZM294.193 162.944C288.525 164.797 282.325 165.733 275.757 165.733V166.334L275.748 165.733C265.259 165.651 255.009 164.444 254.997 150.991C255.063 140.291 260.743 139.019 267.932 137.403L268.43 137.293C274.827 135.92 290.883 135.659 294.193 135.622V162.944ZM300.036 96.8788C295.148 94.175 287.879 92.8619 277.818 92.8531C264.053 92.8619 251.268 95.7334 246.434 97.5442C245.34 97.8936 244.173 98.8449 244.155 100.467V100.823L245.512 107.705L245.546 107.835C245.968 109.237 247.135 109.865 248.19 109.865H248.193C248.532 109.847 248.801 109.784 249.048 109.722L251.335 109.182C257.334 107.671 266.399 105.393 276.519 105.393C282.661 105.393 286.787 105.931 289.555 107.106C294.045 108.811 294.075 111.734 294.121 116.559V123.785C293.606 123.776 292.739 123.763 291.397 123.763C286.443 123.763 276.694 123.996 267.106 125.541C252.479 127.801 240.373 131.322 240.448 151.58C240.452 177.303 264.187 177.349 275.594 177.375C283.339 177.375 290.481 176.225 295.148 175.252C305.791 172.768 308.509 169.37 308.372 158.738V115.966C308.385 109.443 308.406 101.325 300.036 96.8788Z" fill="#1C0D3F"/>
<path fill-rule="evenodd" clip-rule="evenodd" d="M27.0056 198.157C22.063 198.157 19.3153 196.994 17.8492 196.139C15.8177 194.966 12.0692 191.968 8.70865 183.078C3.32193 168.845 0.142216 151.465 0 131.038V130.962C0.142216 110.532 3.32193 93.1545 8.70865 78.9171C12.0692 70.0326 15.8177 67.0306 17.8492 65.8569C19.3153 65.0009 22.0595 63.8431 27.002 63.8431C28.8877 63.8431 31.0947 64.0126 33.6705 64.4291C48.6297 66.8629 65.1938 72.7823 82.862 82.8758L82.9289 82.9093C100.455 93.2463 113.839 104.704 123.415 116.511C129.388 123.88 130.096 128.643 130.096 131.001C130.096 133.354 129.388 138.121 123.415 145.486C113.839 157.292 100.455 168.754 82.9289 179.091L82.862 179.13C65.1938 189.218 48.6297 195.137 33.6705 197.571C31.0947 197.989 28.8913 198.157 27.0056 198.157Z" fill="#1C0D3F"/>
</svg>
