<svg width="490" height="51" viewBox="0 0 490 51" fill="none" xmlns="http://www.w3.org/2000/svg">
<g clip-path="url(#clip0_282_4109)">
<mask id="mask0_282_4109" style="mask-type:alpha" maskUnits="userSpaceOnUse" x="0" y="13" width="73" height="25">
<path d="M35.9468 13.9838L31.0956 36.9756H25.2285L30.0816 13.9838H35.9468ZM60.628 28.829L63.7162 20.1962L65.4939 28.829H60.628ZM67.1742 36.9756H72.6L67.8639 13.9838H62.8568C61.7305 13.9838 60.781 14.6473 60.3595 15.67L51.5571 36.9756H57.7157L58.9395 33.5406H66.4653L67.1742 36.9756ZM51.8619 29.4683C51.8881 23.4008 43.5862 23.0659 43.6433 20.3546C43.6615 19.5303 44.4359 18.6538 46.1316 18.4293C46.9708 18.3182 49.2891 18.2319 51.915 19.4577L52.9459 14.5826C51.5332 14.0629 49.7179 13.5633 47.4572 13.5633C41.6593 13.5633 37.5776 16.6889 37.545 21.163C37.5063 24.4746 40.4577 26.3199 42.6814 27.4209C44.966 28.5475 45.7323 29.2704 45.7238 30.278C45.7068 31.8213 43.9008 32.5016 42.2125 32.5281C39.2631 32.5749 37.5513 31.7198 36.1874 31.0754L35.1253 36.1138C36.4946 36.7517 39.0248 37.3078 41.6489 37.3352C47.8121 37.3352 51.8428 34.2498 51.8619 29.4683ZM27.5641 13.9838L18.0593 36.9756H11.8583L7.18101 18.6266C6.897 17.4969 6.65063 17.0822 5.78717 16.6071C4.37717 15.8305 2.0486 15.1026 0 14.6504L0.138142 13.9838H10.121C11.3925 13.9838 12.5373 14.8416 12.826 16.3277L15.2965 29.6326L21.4022 13.9838H27.5641Z" fill="white"/>
</mask>
<g mask="url(#mask0_282_4109)">
<path fill-rule="evenodd" clip-rule="evenodd" d="M35.9468 13.9838L31.0956 36.9756H25.2285L30.0816 13.9838H35.9468ZM60.628 28.829L63.7162 20.1962L65.4939 28.829H60.628ZM67.1742 36.9756H72.6L67.8639 13.9838H62.8568C61.7305 13.9838 60.781 14.6473 60.3595 15.67L51.5571 36.9756H57.7157L58.9395 33.5406H66.4653L67.1742 36.9756ZM51.8619 29.4683C51.8881 23.4008 43.5862 23.0659 43.6433 20.3546C43.6615 19.5303 44.4359 18.6538 46.1316 18.4293C46.9708 18.3182 49.2891 18.2319 51.915 19.4577L52.9459 14.5826C51.5332 14.0629 49.7179 13.5633 47.4572 13.5633C41.6593 13.5633 37.5776 16.6889 37.545 21.163C37.5063 24.4746 40.4577 26.3199 42.6814 27.4209C44.966 28.5475 45.7323 29.2704 45.7238 30.278C45.7068 31.8213 43.9008 32.5016 42.2125 32.5281C39.2631 32.5749 37.5513 31.7198 36.1874 31.0754L35.1253 36.1138C36.4946 36.7517 39.0248 37.3078 41.6489 37.3352C47.8121 37.3352 51.8428 34.2498 51.8619 29.4683ZM27.5641 13.9838L18.0593 36.9756H11.8583L7.18101 18.6266C6.897 17.4969 6.65063 17.0822 5.78717 16.6071C4.37717 15.8305 2.0486 15.1026 0 14.6504L0.138142 13.9838H10.121C11.3925 13.9838 12.5373 14.8416 12.826 16.3277L15.2965 29.6326L21.4022 13.9838H27.5641Z" fill="#1434CB"/>
</g>
</g>
<g clip-path="url(#clip1_282_4109)">
<path fill-rule="evenodd" clip-rule="evenodd" d="M283.045 36.5594C282.638 36.5594 282.411 36.3072 282.411 35.9631C282.411 35.6189 282.638 35.3667 283.045 35.3667C284.064 35.3667 284.516 35.0453 285.171 33.3028L285.601 32.2017L281.778 22.271C281.755 22.2022 281.732 22.0878 281.732 21.9729C281.732 21.6751 281.981 21.3996 282.343 21.3996C282.615 21.3996 282.819 21.5372 282.932 21.8585L286.212 30.5047H286.235L289.425 21.8585C289.538 21.5372 289.742 21.3996 290.013 21.3996C290.375 21.3996 290.601 21.6751 290.601 21.9729C290.601 22.0878 290.578 22.2022 290.556 22.271L286.303 33.4859C285.352 36.0319 284.582 36.5594 283.226 36.5594H283.045ZM276.037 31.8581V20.1843C276.037 17.5697 276.874 16.8358 279.047 16.8358H279.363C279.77 16.8358 279.997 17.0879 279.997 17.4321C279.997 17.7762 279.77 18.0285 279.363 18.0285C277.576 18.0285 277.259 18.3035 277.259 20.0236V21.354C277.259 21.4457 277.305 21.4914 277.395 21.4914H279.431C279.815 21.4914 279.997 21.7209 279.997 22.042C279.997 22.363 279.815 22.5926 279.431 22.5926H277.395C277.305 22.5926 277.259 22.6382 277.259 22.7298V31.8581C277.259 32.2937 277.009 32.5231 276.649 32.5231C276.286 32.5231 276.037 32.2937 276.037 31.8581ZM272.313 31.8581V22.0648C272.313 21.6292 272.562 21.3996 272.925 21.3996C273.286 21.3996 273.535 21.6292 273.535 22.0648V31.8581C273.535 32.2937 273.286 32.5231 272.925 32.5231C272.562 32.5231 272.313 32.2937 272.313 31.8581ZM271.974 17.7077C271.974 17.1798 272.403 16.7444 272.925 16.7444C273.445 16.7444 273.874 17.1798 273.874 17.7077C273.874 18.2349 273.445 18.6707 272.925 18.6707C272.403 18.6707 271.974 18.2349 271.974 17.7077ZM264.288 31.8581V22.0648C264.288 21.6292 264.537 21.3996 264.899 21.3996C265.26 21.3996 265.51 21.6292 265.51 22.0648V23.1199H265.533C265.94 22.019 266.958 21.2624 268.361 21.2624C269.22 21.2624 269.785 21.4914 270.215 21.744C270.488 21.9043 270.577 22.0878 270.577 22.2942C270.577 22.6382 270.328 22.9134 269.966 22.9134C269.876 22.9134 269.763 22.8903 269.65 22.8446C269.153 22.6155 268.676 22.4548 268.134 22.4548C266.234 22.4548 265.51 24.106 265.51 26.1476V31.8581C265.51 32.2937 265.26 32.5231 264.899 32.5231C264.537 32.5231 264.288 32.2937 264.288 31.8581ZM260.82 26.1703C260.911 26.1703 260.956 26.1244 260.956 26.0326C260.956 25.3904 260.889 24.9084 260.753 24.4728C260.323 23.1199 259.259 22.4091 257.857 22.4091C256.454 22.4091 255.414 23.1199 254.983 24.4728C254.848 24.9084 254.779 25.3904 254.779 26.0326C254.779 26.1244 254.825 26.1703 254.915 26.1703H260.82ZM253.874 29.7939C253.648 29.1056 253.536 28.349 253.536 26.9502C253.536 25.5735 253.648 24.8172 253.874 24.106C254.462 22.271 255.933 21.2624 257.857 21.2624C259.802 21.2624 261.272 22.271 261.861 24.106C262.088 24.7941 262.201 25.6196 262.201 26.7206C262.201 27.0645 261.974 27.2938 261.635 27.2938H254.915C254.825 27.2938 254.779 27.3396 254.779 27.4314C254.779 28.326 254.825 28.7847 255.006 29.3348C255.48 30.7797 256.59 31.468 258.06 31.468C259.282 31.468 260.164 31.0778 260.979 30.2294C261.091 30.1148 261.25 30.0002 261.431 30.0002C261.748 30.0002 261.974 30.2294 261.974 30.5279C261.974 30.6881 261.929 30.8257 261.838 30.9404C261.069 31.9269 259.78 32.6607 257.993 32.6607C255.91 32.6607 254.485 31.6741 253.874 29.7939ZM241.361 26.1703C241.453 26.1703 241.497 26.1244 241.497 26.0326C241.497 25.3904 241.43 24.9084 241.294 24.4728C240.864 23.1199 239.8 22.4091 238.398 22.4091C236.995 22.4091 235.954 23.1199 235.524 24.4728C235.389 24.9084 235.321 25.3904 235.321 26.0326C235.321 26.1244 235.366 26.1703 235.456 26.1703H241.361ZM234.416 29.7939C234.19 29.1056 234.076 28.349 234.076 26.9502C234.076 25.5735 234.19 24.8172 234.416 24.106C235.003 22.271 236.474 21.2624 238.398 21.2624C240.343 21.2624 241.814 22.271 242.402 24.106C242.629 24.7941 242.742 25.6196 242.742 26.7206C242.742 27.0645 242.515 27.2938 242.176 27.2938H235.456C235.366 27.2938 235.321 27.3396 235.321 27.4314C235.321 28.326 235.366 28.7847 235.547 29.3348C236.021 30.7797 237.131 31.468 238.601 31.468C239.823 31.468 240.705 31.0778 241.52 30.2294C241.632 30.1148 241.791 30.0002 241.972 30.0002C242.289 30.0002 242.515 30.2294 242.515 30.5279C242.515 30.6881 242.47 30.8257 242.379 30.9404C241.61 31.9269 240.32 32.6607 238.534 32.6607C236.451 32.6607 235.026 31.6741 234.416 29.7939ZM247.295 31.8119L242.476 17.6617C242.453 17.5697 242.43 17.4551 242.43 17.3633C242.43 16.9962 242.702 16.7444 243.064 16.7444C243.336 16.7444 243.562 16.9277 243.675 17.2488L248.086 30.2525H248.132L252.476 17.2488C252.589 16.9277 252.816 16.7444 253.087 16.7444C253.449 16.7444 253.72 16.9962 253.72 17.3633C253.72 17.4551 253.698 17.5929 253.675 17.6617L248.856 31.8119C248.698 32.2937 248.494 32.5231 248.064 32.5231C247.657 32.5231 247.454 32.2937 247.295 31.8119ZM232.006 32.5231C230.355 32.5231 229.766 31.7434 229.766 29.9543V17.4325C229.766 16.9969 230.015 16.7673 230.378 16.7673C230.739 16.7673 230.988 16.9969 230.988 17.4325V29.9084C230.988 30.9865 231.282 31.3301 232.232 31.3301C232.639 31.3301 232.866 31.5826 232.866 31.9269C232.866 32.2705 232.639 32.5231 232.232 32.5231H232.006ZM226.236 29.4955C226.463 28.7847 226.531 28.0509 226.531 26.9502C226.531 25.8718 226.463 25.1379 226.236 24.4271C225.83 23.1887 224.856 22.4548 223.476 22.4548C222.118 22.4548 221.123 23.0742 220.693 24.3583C220.513 24.9544 220.422 25.8718 220.422 26.9502C220.422 28.0509 220.513 28.9681 220.693 29.5645C221.123 30.8489 222.118 31.468 223.476 31.468C224.856 31.468 225.83 30.734 226.236 29.4955ZM220.445 31.0553H220.422V31.8581C220.422 32.2937 220.173 32.5231 219.811 32.5231C219.449 32.5231 219.2 32.2937 219.2 31.8581V17.4094C219.2 16.9737 219.449 16.7444 219.811 16.7444C220.173 16.7444 220.422 16.9737 220.422 17.4094V22.8674H220.445C220.965 21.9273 221.916 21.2624 223.68 21.2624C225.513 21.2624 226.825 22.2484 227.391 23.9685C227.662 24.8629 227.775 25.7116 227.775 26.9502C227.775 28.2114 227.662 29.06 227.391 29.9543C226.825 31.6741 225.513 32.6607 223.68 32.6607C221.916 32.6607 220.965 31.9955 220.445 31.0553ZM215.603 31.8581V31.1009H215.581C214.97 32.0871 213.952 32.6607 212.436 32.6607C210.06 32.6607 208.703 31.147 208.703 28.4865V22.0648C208.703 21.6292 208.952 21.3996 209.314 21.3996C209.676 21.3996 209.924 21.6292 209.924 22.0648V28.1884C209.924 30.3671 210.83 31.468 212.708 31.468C214.336 31.468 215.603 30.2983 215.603 28.4178V22.0648C215.603 21.6292 215.852 21.3996 216.214 21.3996C216.576 21.3996 216.826 21.6292 216.826 22.0648V31.8581C216.826 32.2937 216.576 32.5231 216.214 32.5231C215.852 32.5231 215.603 32.2937 215.603 31.8581ZM205.432 29.4267C205.636 28.8075 205.726 28.1425 205.726 26.9502C205.726 25.7802 205.636 25.1152 205.432 24.496C205.003 23.1887 203.962 22.4548 202.559 22.4548C201.179 22.4548 200.138 23.1887 199.708 24.496C199.505 25.1152 199.415 25.7802 199.415 26.9502C199.415 28.1425 199.505 28.8075 199.708 29.4267C200.138 30.734 201.179 31.468 202.559 31.468C203.962 31.468 205.003 30.734 205.432 29.4267ZM198.532 29.8171C198.306 29.083 198.171 28.2802 198.171 26.9502C198.171 25.6423 198.306 24.84 198.532 24.106C199.12 22.2942 200.591 21.2624 202.559 21.2624C204.551 21.2624 206.021 22.2942 206.609 24.106C206.835 24.84 206.971 25.6423 206.971 26.9502C206.971 28.2802 206.835 29.083 206.609 29.8171C206.021 31.6285 204.551 32.6607 202.559 32.6607C200.591 32.6607 199.12 31.6285 198.532 29.8171ZM187.498 31.2848H190.575C192.883 31.2848 194.104 30.5052 194.738 28.5553C195.031 27.6153 195.145 26.7206 195.145 24.7254C195.145 22.7302 195.031 21.836 194.738 20.8952C194.104 18.9461 192.883 18.1663 190.575 18.1663H187.498C187.407 18.1663 187.362 18.2121 187.362 18.3039V31.147C187.362 31.239 187.407 31.2848 187.498 31.2848ZM186.072 17.547C186.072 17.1569 186.322 16.9277 186.706 16.9277H190.756C193.583 16.9277 195.258 18.189 195.982 20.4596C196.322 21.5376 196.435 22.4779 196.435 24.7254C196.435 26.9732 196.322 27.9133 195.982 28.9912C195.258 31.2617 193.583 32.5231 190.756 32.5231H186.706C186.322 32.5231 186.072 32.2935 186.072 31.9037V17.547Z" fill="#14113B"/>
<path fill-rule="evenodd" clip-rule="evenodd" d="M122.093 36.5594C121.098 36.5594 120.291 35.7183 120.291 34.6805V13.2191C120.291 12.1814 121.098 11.3403 122.093 11.3403C123.089 11.3403 123.895 12.1814 123.895 13.2191V34.6805C123.895 35.7183 123.089 36.5594 122.093 36.5594Z" fill="#00B2A9"/>
<path fill-rule="evenodd" clip-rule="evenodd" d="M130.068 36.5594H127.597C126.548 36.5594 125.697 35.7186 125.697 34.681C125.697 33.6436 126.548 32.803 127.597 32.803H130.068C135.004 32.803 139.02 28.8314 139.02 23.9503C139.02 19.0686 135.004 15.0971 130.068 15.0971H127.597C126.548 15.0971 125.697 14.256 125.697 13.2186C125.697 12.1812 126.548 11.3403 127.597 11.3403H130.068C137.099 11.3403 142.818 16.9971 142.818 23.9503C142.818 30.9029 137.099 36.5594 130.068 36.5594Z" fill="#34B233"/>
<path fill-rule="evenodd" clip-rule="evenodd" d="M156.294 36.5594C155.598 36.5594 154.933 36.1579 154.62 35.4738L144.794 14.0133C144.364 13.0729 144.763 11.9551 145.687 11.5166C146.611 11.0783 147.708 11.4852 148.139 12.4258L157.965 33.8862C158.395 34.8267 157.995 35.9443 157.072 36.3831C156.82 36.5026 156.554 36.5594 156.294 36.5594Z" fill="#C70099"/>
<path fill-rule="evenodd" clip-rule="evenodd" d="M159.783 29.3538C159.529 29.3538 159.272 29.297 159.027 29.1769C158.13 28.7377 157.742 27.6179 158.16 26.676L164.489 12.4273C164.907 11.4854 165.973 11.0775 166.87 11.5174C167.767 11.9566 168.154 13.0763 167.736 14.0183L161.408 28.2671C161.104 28.9516 160.458 29.3538 159.783 29.3538Z" fill="#6E2CA9"/>
<path fill-rule="evenodd" clip-rule="evenodd" d="M177.061 41.9633H177.511V5.93622H177.061V41.9633Z" fill="#14113B"/>
</g>
<g clip-path="url(#clip2_282_4109)">
<path d="M374.993 12.328C371.192 12.328 369.859 14.9705 369.859 17.4368V18.9468H369.053C368.474 18.9468 368.021 19.3998 368.021 19.9786C368.021 20.5575 368.474 21.0105 369.053 21.0105H369.859V31.4295C369.859 32.0335 370.337 32.5368 370.966 32.5368C371.57 32.5368 372.073 32.0586 372.073 31.4295V21.0105H374.514C375.093 21.0105 375.546 20.5575 375.546 19.9786C375.546 19.3998 375.093 18.9468 374.514 18.9468H372.073V17.4368C372.073 16.0526 372.577 14.4168 375.018 14.4168C375.597 14.4168 376.05 13.9638 376.05 13.385C376.024 12.781 375.571 12.328 374.993 12.328Z" fill="#4D4D4D"/>
<path d="M383.55 18.5945C381.914 18.5945 380.53 19.274 379.75 20.3813V19.8025C379.75 19.1985 379.272 18.6951 378.642 18.6951C378.038 18.6951 377.535 19.1733 377.535 19.8025V31.4295C377.535 32.0335 378.013 32.5368 378.642 32.5368C379.246 32.5368 379.75 32.0587 379.75 31.4295V25.012C379.75 22.3191 381.184 20.7085 383.55 20.7085C384.129 20.7085 384.607 20.2303 384.607 19.6515C384.632 19.0726 384.154 18.5945 383.55 18.5945Z" fill="#4D4D4D"/>
<path d="M397.015 24.3073C397.015 23.6782 396.914 22.0423 395.958 20.6833C394.976 19.274 393.441 18.5442 391.352 18.5442C387.476 18.5442 385.262 21.1112 385.262 25.5908C385.262 30.2215 387.476 32.6878 391.629 32.6878C394.422 32.6878 395.958 31.3037 396.234 31.0268C396.411 30.8507 396.612 30.6242 396.612 30.2467C396.612 29.693 396.159 29.24 395.605 29.24C395.328 29.24 395.152 29.3155 394.976 29.4413C394.171 30.0453 393.24 30.6493 391.654 30.6493C389.163 30.6493 387.577 29.0135 387.502 26.3458H395.681C397.015 26.3207 397.015 25.1127 397.015 24.3073ZM391.352 20.5575C393.617 20.5575 394.8 21.841 394.85 24.3577H387.527C387.728 21.9165 389.087 20.5575 391.352 20.5575Z" fill="#4D4D4D"/>
<path d="M404.413 24.4835C402.777 23.9298 401.367 23.4265 401.367 22.2185C401.367 20.8847 402.852 20.6833 403.733 20.6833C405.319 20.6833 406.099 21.237 406.728 21.841C406.929 22.0423 407.181 22.143 407.458 22.143C408.011 22.143 408.464 21.69 408.464 21.1363C408.464 20.8343 408.339 20.633 408.238 20.482C407.307 19.2488 405.721 18.5693 403.733 18.5693C400.914 18.5693 399.178 19.9787 399.178 22.2185C399.178 24.9617 401.594 25.7922 403.708 26.4968C405.319 27.0505 406.703 27.5035 406.703 28.6863C406.703 30.297 404.916 30.5487 403.834 30.5487C402.374 30.5487 401.242 30.0957 400.31 29.1897C400.034 28.9128 399.732 28.8625 399.555 28.8625C399.002 28.8625 398.549 29.3155 398.549 29.8692C398.549 30.0957 398.624 30.2718 398.8 30.5235C399.631 31.5805 401.518 32.6627 403.834 32.6627C407.005 32.6627 408.892 31.1778 408.892 28.7115C408.892 26.0438 406.527 25.2133 404.413 24.4835Z" fill="#4D4D4D"/>
<path d="M417.475 18.5442C415.965 18.5442 414.606 19.1482 413.851 20.1045V12.6552C413.851 12.0512 413.373 11.5478 412.744 11.5478C412.14 11.5478 411.637 12.026 411.637 12.6552V31.4547C411.637 32.0587 412.115 32.562 412.744 32.562C413.348 32.562 413.851 32.0838 413.851 31.4547V24.3828C413.851 21.841 415.085 20.5575 417.475 20.5575C419.791 20.5575 420.747 21.6145 420.747 24.1815V31.4547C420.747 32.0587 421.225 32.562 421.854 32.562C422.458 32.562 422.962 32.0838 422.962 31.4547V23.804C422.911 20.3058 421.074 18.5442 417.475 18.5442Z" fill="#4D4D4D"/>
<path d="M441.256 18.7203C440.778 18.7203 440.4 18.9972 440.224 19.4502L437.078 28.4095L434.511 19.4502C434.411 19.0978 434.033 18.7203 433.48 18.7203C432.926 18.7203 432.548 19.0978 432.448 19.4502L429.881 28.3843L426.735 19.425C426.559 18.972 426.181 18.7203 425.703 18.7203C425.099 18.7203 424.596 19.1985 424.596 19.8277C424.596 19.9787 424.621 20.1297 424.696 20.2807L428.899 31.8322C429.075 32.2852 429.453 32.5368 429.931 32.5368C430.434 32.5368 430.862 32.2097 430.988 31.7567L433.454 23.2755L435.921 31.7567C436.047 32.2097 436.5 32.5368 436.978 32.5368C437.456 32.5368 437.833 32.26 438.01 31.807L442.212 20.2555C442.288 20.1045 442.313 19.9283 442.313 19.7773C442.338 19.1985 441.86 18.7203 441.256 18.7203Z" fill="#4D4D4D"/>
<path d="M449.259 18.5442C445.258 18.5442 443.068 21.0608 443.068 25.5908C443.068 30.1712 445.258 32.6878 449.259 32.6878C453.261 32.6878 455.45 30.1712 455.45 25.5908C455.45 21.0357 453.236 18.5442 449.259 18.5442ZM449.259 30.6745C446.592 30.6745 445.283 29.0135 445.283 25.616C445.283 22.2688 446.617 20.5827 449.259 20.5827C451.902 20.5827 453.236 22.2688 453.236 25.616C453.236 29.0135 451.927 30.6745 449.259 30.6745Z" fill="#4D4D4D"/>
<path d="M463.958 18.5945C462.322 18.5945 460.938 19.274 460.158 20.3813V19.8025C460.158 19.1985 459.68 18.6951 459.051 18.6951C458.447 18.6951 457.943 19.1733 457.943 19.8025V31.4295C457.943 32.0335 458.422 32.5368 459.051 32.5368C459.655 32.5368 460.158 32.0587 460.158 31.4295V25.012C460.158 22.3191 461.593 20.7085 463.958 20.7085C464.537 20.7085 465.015 20.2303 465.015 19.6515C465.015 19.0726 464.537 18.5945 463.958 18.5945Z" fill="#4D4D4D"/>
<path d="M472.312 24.3325L476.867 20.6833C477.244 20.3813 477.295 20.0038 477.295 19.8025C477.295 19.1985 476.817 18.6952 476.188 18.6952C476.011 18.6952 475.709 18.7203 475.432 18.972L468.965 24.257V12.6552C468.965 12.0512 468.486 11.5478 467.857 11.5478C467.253 11.5478 466.75 12.026 466.75 12.6552V31.4547C466.75 32.0587 467.228 32.562 467.857 32.562C468.461 32.562 468.965 32.0838 468.965 31.4547V26.9247L470.5 25.6915L475.458 32.0587C475.734 32.3858 476.036 32.562 476.389 32.562C476.993 32.562 477.496 32.0838 477.496 31.4547C477.496 31.2785 477.471 31.0268 477.27 30.7752L472.312 24.3325Z" fill="#4D4D4D"/>
<path d="M484.719 24.4835C483.083 23.9298 481.674 23.4265 481.674 22.2185C481.674 20.8847 483.159 20.6833 484.04 20.6833C485.625 20.6833 486.405 21.237 487.035 21.841C487.236 22.0423 487.488 22.143 487.764 22.143C488.318 22.143 488.771 21.69 488.771 21.1363C488.771 20.8092 488.595 20.5827 488.545 20.482C487.613 19.2488 486.028 18.5693 484.04 18.5693C481.221 18.5693 479.485 19.9787 479.485 22.2185C479.485 24.9617 481.901 25.7922 484.015 26.4968C485.625 27.0505 487.009 27.5035 487.009 28.6863C487.009 30.297 485.223 30.5487 484.14 30.5487C482.681 30.5487 481.548 30.0957 480.617 29.1897C480.34 28.9128 480.063 28.8625 479.862 28.8625C479.308 28.8625 478.855 29.3155 478.855 29.8692C478.855 30.0957 478.931 30.2718 479.107 30.5235C479.938 31.5805 481.825 32.6627 484.14 32.6627C487.311 32.6627 489.199 31.1778 489.199 28.7115C489.199 26.0438 486.833 25.2133 484.719 24.4835Z" fill="#4D4D4D"/>
<path d="M338.35 30.8255C338.777 33.619 340.086 36.1357 341.974 38.0232L346.378 33.619C346.378 29.1645 348.693 24.8358 352.82 22.445L338.35 30.8255Z" fill="#9B65C3"/>
<path d="M346.378 33.619C344.188 33.619 341.974 33.0653 339.935 31.8825C339.381 31.5553 338.853 31.203 338.35 30.8003C338.777 33.5938 340.086 36.1105 341.974 37.998L346.378 33.619Z" fill="#9B65C3"/>
<path d="M346.379 33.619L341.975 38.0232C343.887 39.9358 346.379 41.2445 349.172 41.6472L357.528 27.1763C355.162 31.3037 350.833 33.619 346.379 33.619Z" fill="#BE63C5"/>
<path d="M348.115 40.0868C346.932 38.0483 346.379 35.8337 346.379 33.6442L341.975 38.0483C343.887 39.961 346.379 41.2697 349.172 41.6723C348.795 41.169 348.442 40.6405 348.115 40.0868Z" fill="#BF63C6"/>
<path d="M362.787 16.707L352.846 22.4702C348.719 24.861 343.812 24.6848 339.961 22.4702C338.854 24.3577 338.225 26.5723 338.225 28.9128C338.225 29.5672 338.275 30.1963 338.376 30.8255C338.879 31.2282 339.407 31.5805 339.961 31.9077C342 33.0905 344.214 33.6442 346.404 33.6442L363.064 16.9838C362.963 16.8832 362.888 16.7825 362.787 16.707Z" fill="#3278B1"/>
<path d="M339.935 31.9077C341.973 33.0905 344.188 33.6442 346.378 33.6442C346.378 29.1897 348.693 24.861 352.82 22.4702L338.324 30.8255C338.853 31.203 339.381 31.5805 339.935 31.9077Z" fill="#3278B2"/>
<path d="M339.936 22.4702C338.828 24.3577 338.199 26.5723 338.199 28.9128C338.199 29.5672 338.25 30.1963 338.35 30.8255L352.846 22.4702C348.694 24.8358 343.786 24.6848 339.936 22.4702Z" fill="#45A4EC"/>
<path d="M363.064 16.9587C362.988 16.8832 362.888 16.7825 362.787 16.707C362.661 16.6063 362.535 16.5057 362.384 16.4302C361.906 16.1533 361.352 16.0023 360.774 16.0023H351.11C346.328 16.0023 342.175 18.5945 339.936 22.445C343.786 24.6597 348.694 24.8358 352.821 22.445C348.694 24.8358 346.378 29.1645 346.378 33.619C350.833 33.619 355.161 31.3037 357.552 27.1763L363.29 17.2355C363.215 17.1348 363.139 17.0342 363.064 16.9587Z" fill="#19BB7D"/>
<path d="M352.846 22.4702L362.787 16.7322C362.661 16.6315 362.535 16.5308 362.384 16.4553L339.936 22.4702C343.786 24.6848 348.694 24.8358 352.846 22.4702Z" fill="#08C7FB"/>
<path d="M360.774 16.0023H351.11C346.328 16.0023 342.175 18.5945 339.936 22.445L362.384 16.4302C361.906 16.1785 361.378 16.0023 360.774 16.0023Z" fill="#59F2F6"/>
<path d="M357.553 27.1763L363.291 17.2355C363.215 17.1348 363.14 17.0593 363.039 16.9586L346.379 33.619C346.379 35.8085 346.933 38.0231 348.115 40.0616C348.443 40.6153 348.795 41.1438 349.198 41.6472C349.827 41.7478 350.456 41.7981 351.11 41.7981C353.451 41.7981 355.665 41.169 357.553 40.0616C355.338 36.2111 355.162 31.3036 357.553 27.1763Z" fill="#DA3757"/>
<path d="M346.379 33.619C346.379 35.8085 346.933 38.0232 348.115 40.0617C348.443 40.6153 348.795 41.1438 349.198 41.6472L357.553 27.1763C355.162 31.3037 350.833 33.619 346.379 33.619Z" fill="#D33C4E"/>
<path d="M357.553 27.1763L349.197 41.6723C349.826 41.773 350.456 41.8233 351.11 41.8233C353.45 41.8233 355.665 41.1942 357.553 40.0868C355.338 36.2112 355.162 31.3037 357.553 27.1763Z" fill="#EE5A24"/>
<path d="M363.568 17.6382C363.492 17.4872 363.392 17.3613 363.291 17.2355C363.216 17.1348 363.14 17.0593 363.039 16.9587C362.964 16.8832 362.863 16.7825 362.763 16.707L352.847 22.4702C348.72 24.861 346.404 29.1897 346.404 33.6442C350.859 33.6442 355.187 31.3288 357.578 27.2015C355.187 31.3288 355.364 36.2363 357.578 40.0868C361.429 37.847 364.021 33.6945 364.021 28.9128V19.2488C363.996 18.6448 363.845 18.0912 363.568 17.6382Z" fill="#8BDF55"/>
<path d="M362.788 16.707L352.847 22.4702C348.72 24.861 346.404 29.1897 346.404 33.6442L363.065 16.9838C362.964 16.8832 362.888 16.7825 362.788 16.707Z" fill="#25C16F"/>
<path d="M346.379 33.619C350.833 33.619 355.162 31.3036 357.553 27.1763L363.291 17.2355C363.215 17.1348 363.14 17.0593 363.039 16.9586L346.379 33.619Z" fill="#8BDF55"/>
<path d="M363.29 17.2355L357.552 27.1763C355.161 31.3036 355.337 36.2111 357.552 40.0616L363.567 17.613C363.491 17.4871 363.391 17.3613 363.29 17.2355Z" fill="#FFBB00"/>
<path d="M357.553 40.0868C361.403 37.847 363.995 33.6945 363.995 28.9128V19.2488C363.995 18.67 363.844 18.1163 363.568 17.6382L357.553 40.0868Z" fill="#FFA800"/>
</g>
<defs>
<clipPath id="clip0_282_4109">
<rect width="72.6" height="50" fill="white" transform="translate(0 0.16333)"/>
</clipPath>
<clipPath id="clip1_282_4109">
<rect width="169.6" height="50" fill="white" transform="translate(120.6 0.16333)"/>
</clipPath>
<clipPath id="clip2_282_4109">
<rect width="151" height="50" fill="white" transform="translate(338.199 0.16333)"/>
</clipPath>
</defs>
</svg>
