<svg width="530" height="43" viewBox="0 0 530 43" fill="none" xmlns="http://www.w3.org/2000/svg">
<g clip-path="url(#clip0_742_9803)">
<path d="M48.02 21.6114C46.6823 20.8682 45.882 20.4109 45.6419 20.2279C45.3033 19.9964 45.009 19.7059 44.773 19.3704C44.6392 19.1257 44.5759 18.8486 44.59 18.5701C44.5851 18.3424 44.6394 18.1173 44.7476 17.9168C44.8558 17.7164 45.0143 17.5475 45.2074 17.4268C45.7107 17.1288 46.2935 16.9931 46.8767 17.038C47.4004 17.0371 47.9185 17.1461 48.3973 17.3582C49.0432 17.6919 49.6333 18.1238 50.1466 18.6387L50.261 18.753L52.1703 17.6669L51.9645 17.4725C51.2639 16.7077 50.4212 16.0864 49.4835 15.6432C47.9047 14.9958 46.1345 14.9958 44.5557 15.6432C43.8848 15.9012 43.2934 16.331 42.8407 16.8894C42.4307 17.3975 42.2086 18.0315 42.2119 18.6844C42.2254 19.1155 42.3243 19.5395 42.5029 19.9321C42.6815 20.3246 42.9362 20.6778 43.2523 20.9711C44.1607 21.7205 45.1456 22.372 46.1907 22.9148C47.3282 23.4754 48.3825 24.1911 49.3234 25.0414C49.665 25.3599 49.8698 25.7984 49.8951 26.2647C49.8909 26.6463 49.7534 27.0143 49.5064 27.3052C49.2038 27.6722 48.8093 27.9523 48.363 28.1169C47.8295 28.3337 47.2582 28.4425 46.6823 28.4371C45.9359 28.3955 45.211 28.1715 44.5712 27.7849C43.9314 27.3982 43.3961 26.8605 43.0122 26.219L42.9093 26.0818L40.9199 26.9736L41.0686 27.1908C41.7482 28.1537 42.6503 28.9382 43.6982 29.4775C44.6857 29.952 45.7698 30.1907 46.8653 30.1749C48.246 30.2165 49.604 29.8159 50.7412 29.0316C51.2246 28.7323 51.6262 28.3176 51.9096 27.8246C52.193 27.3316 52.3494 26.776 52.3647 26.2076C52.3441 25.3538 52.0057 24.5384 51.4157 23.9209C50.412 22.9776 49.2661 22.1983 48.02 21.6114Z" fill="black"/>
<path d="M68.9192 15.4831H68.3361L59.1895 29.9005H61.7848L64.666 25.3272H72.5322L75.4362 29.9005H77.963L69.0336 15.4831H68.9192ZM71.4803 23.4864H65.8665L68.6791 19.0274L71.4803 23.4864Z" fill="black"/>
<path d="M102.832 15.4831L102.764 15.586L95.4234 26.7792L87.9574 15.4831H87.3629L84.6074 29.9005H86.8941C86.8941 29.9005 88.4948 21.1197 88.6663 20.1593L95.1032 29.9005H95.8235L102.18 20.2508C102.352 21.1997 103.953 29.9005 103.953 29.9005H106.239L103.415 15.4831H102.832Z" fill="black"/>
<path d="M125.091 15.7003V24.1495C125.127 24.8591 125.069 25.5703 124.919 26.2647C124.75 26.7028 124.48 27.0946 124.131 27.408C123.745 27.7596 123.289 28.0247 122.793 28.1855C122.24 28.3692 121.661 28.4618 121.078 28.4599C120.38 28.4593 119.688 28.3394 119.031 28.1055C118.48 27.9336 117.978 27.6317 117.568 27.2251C117.242 26.8747 117.034 26.4308 116.973 25.956C116.898 25.3455 116.871 24.73 116.893 24.1152V15.4831H114.607V24.1495C114.547 25.1762 114.667 26.2053 114.961 27.1908C115.406 28.2149 116.224 29.032 117.248 29.4775C118.489 30.0554 119.847 30.3372 121.215 30.3007C122.491 30.3355 123.753 30.0318 124.874 29.4203C125.762 28.9639 126.477 28.229 126.909 27.328C127.276 26.3298 127.447 25.2699 127.412 24.2067V15.4831H125.125L125.091 15.7003Z" fill="black"/>
<path d="M146.038 22.949C146.864 22.7169 147.606 22.2526 148.176 21.6113C148.682 21.006 148.954 20.2392 148.942 19.4504C148.946 18.9816 148.845 18.5179 148.647 18.0928C148.449 17.6677 148.16 17.2918 147.799 16.9922C147.005 16.3089 146.034 15.8648 144.998 15.7117C143.586 15.5491 142.165 15.4841 140.745 15.5173H136.857V29.9004H139.144V23.4063H139.899C140.013 23.5321 146.599 29.9004 146.599 29.9004H149.526L142.803 23.3949C143.897 23.4036 144.987 23.2534 146.038 22.949ZM142.151 21.6113H139.156V17.3009H142.22C143.121 17.2678 144.023 17.3446 144.906 17.5296C145.378 17.6666 145.804 17.9271 146.141 18.2842C146.425 18.5974 146.582 19.0049 146.582 19.4275C146.582 19.8501 146.425 20.2576 146.141 20.5708C145.793 20.9493 145.345 21.2225 144.849 21.3597C143.964 21.5555 143.057 21.64 142.151 21.6113Z" fill="black"/>
<path d="M165.543 15.4831H164.971L155.824 29.9005H158.42C158.42 29.9005 161.186 25.5215 161.301 25.3272H169.213C169.327 25.5215 172.117 29.9005 172.117 29.9005H174.643L165.668 15.4831H165.543ZM168.115 23.4864H162.49L165.302 19.0274L168.115 23.4864Z" fill="black"/>
<path d="M181.836 15.4831V29.9005H184.145V15.4831H183.928H181.836Z" fill="black"/>
<path d="M205.799 15.4831H192.879V17.301H201.843L191.805 29.8776H204.942V28.094H195.795L205.799 15.4831Z" fill="black"/>
<path d="M0 22.0687C0 24.8727 0.831486 27.6137 2.38931 29.9452C3.94714 32.2766 6.16133 34.0938 8.7519 35.1668C11.3425 36.2399 14.1931 36.5206 16.9432 35.9736C19.6933 35.4265 22.2195 34.0763 24.2022 32.0935C26.185 30.1108 27.5352 27.5847 28.0823 24.8345C28.6293 22.0844 28.3485 19.2338 27.2755 16.6432C26.2024 14.0527 24.3853 11.8385 22.0538 10.2806C19.7224 8.72281 16.9813 7.89133 14.1773 7.89133C10.4173 7.89133 6.81121 9.38501 4.15245 12.0438C1.49368 14.7025 0 18.3086 0 22.0687Z" fill="url(#paint0_radial_742_9803)"/>
<path d="M7.79883 30.9066C12.8409 33.1132 17.0255 33.5134 18.3975 31.5583C19.7695 29.6032 17.7916 25.4643 13.6298 21.2683C15.482 24.3667 15.9737 27.2136 14.6817 29.0772C13.3897 30.9409 10.9659 31.3639 7.79883 30.9066Z" fill="white"/>
<path d="M20.5791 13.2307C15.5141 11.024 11.3295 10.6239 9.95753 12.579C8.58553 14.5341 10.5635 18.6729 14.7138 22.869C12.873 19.7591 12.4271 16.9236 13.6734 15.06C14.9196 13.1964 17.3892 12.7733 20.5791 13.2307Z" fill="white"/>
</g>
<g clip-path="url(#clip1_742_9803)">
<path d="M276.018 22.3291C274.838 21.8269 273.883 21.3499 273.883 20.5966C273.883 20.0693 274.486 19.542 275.516 19.542C276.445 19.542 277.223 19.768 278.052 20.1195C278.278 20.22 278.629 20.2451 278.83 19.8935L279.232 19.0649C279.382 18.7636 279.257 18.387 278.981 18.1861C278.403 17.8095 277.173 17.3073 275.541 17.3073C272.678 17.3073 271.498 19.0398 271.498 20.5213C271.498 22.4547 273.005 23.4339 274.812 24.2625C276.445 24.9907 277.348 25.518 277.348 26.2964C277.348 26.9743 276.796 27.4514 275.792 27.4514C274.386 27.4514 273.557 26.9743 272.854 26.5726C272.553 26.3968 272.226 26.4721 272.076 26.7232L271.548 27.828C271.423 28.0791 271.573 28.3051 271.749 28.4307C272.402 28.8826 273.758 29.6359 275.641 29.6359C278.278 29.6359 279.859 28.0289 279.859 26.1959C279.809 24.0617 278.177 23.2582 276.018 22.3291Z" fill="#189EFF"/>
<path d="M260.349 33.0005C259.143 32.0966 257.386 31.4186 255.503 30.6905C253.268 29.8367 250.732 28.8575 248.849 27.3258C246.689 25.6184 245.635 23.459 245.635 20.7221C245.635 18.2614 246.639 16.1774 248.572 14.6708C250.732 12.9634 253.996 12.0846 258.013 12.0846C259.118 12.0846 260.198 12.1599 261.177 12.2854C261.253 12.2854 261.353 12.2603 261.378 12.1599C261.428 12.0846 261.403 11.9841 261.328 11.9339C258.817 9.64897 255.528 8.39351 252.113 8.39351C248.422 8.39351 244.957 9.82473 242.345 12.4361C239.734 15.0474 238.303 18.5125 238.303 22.2036C238.303 25.8946 239.734 29.3597 242.345 31.971C244.957 34.5824 248.422 36.0136 252.113 36.0136C255.101 36.0136 257.938 35.0846 260.323 33.3018C260.374 33.2516 260.399 33.2014 260.399 33.1512C260.424 33.1009 260.399 33.0507 260.349 33.0005Z" fill="#189EFF"/>
<path d="M265.873 20.923C265.873 20.8728 265.848 20.8226 265.797 20.7974C262.935 18.4121 260.6 17.4328 257.762 17.4328C256.256 17.4328 255.101 17.7341 254.322 18.3367C253.644 18.864 253.293 19.5671 253.293 20.4208C253.293 22.7811 256.206 23.8859 259.545 25.1413C261.278 25.7942 263.06 26.447 264.718 27.3761C264.743 27.4012 264.768 27.4012 264.818 27.4012C264.843 27.4012 264.868 27.4012 264.893 27.3761C264.944 27.3509 264.994 27.3258 265.019 27.2505C265.647 25.6435 265.973 23.9361 265.973 22.2036C265.948 21.8018 265.923 21.375 265.873 20.923Z" fill="#189EFF"/>
<path d="M345.293 29.5605C345.645 29.5103 345.896 29.2592 345.896 28.9328V22.9317C345.896 19.8684 345.519 17.483 341.577 17.483C339.317 17.483 337.56 18.0856 337.334 18.1861C337.032 18.2865 336.856 18.4874 336.932 18.9142L337.183 19.9186C337.258 20.2701 337.509 20.4961 337.886 20.4208C338.514 20.245 339.92 19.8433 341.326 19.8433C342.883 19.8433 343.36 20.7221 343.31 22.6806C343.31 22.6806 342.104 22.304 340.824 22.304C337.66 22.304 335.902 24.0114 335.902 26.2712C335.902 28.8324 337.534 29.7112 339.844 29.7112C341.728 29.7112 343.686 29.6861 344.49 29.6359L345.293 29.5605ZM343.259 27.376C342.883 27.9787 341.552 27.828 340.397 27.8029C339.116 27.7778 338.489 27.3258 338.489 26.2461C338.489 24.9656 339.593 24.2123 341.025 24.2123C342.155 24.2123 343.109 24.5387 343.259 24.6391V27.376Z" fill="#189EFF"/>
<path d="M365.431 17.3575C366.21 17.3575 366.838 16.7298 366.838 15.9514C366.838 15.173 366.21 14.5453 365.431 14.5453C364.653 14.5453 364.025 15.173 364.025 15.9514C364.025 16.7298 364.653 17.3575 365.431 17.3575ZM365.431 14.7713C366.084 14.7713 366.612 15.2985 366.612 15.9765C366.612 16.6544 366.084 17.1817 365.431 17.1817C364.779 17.1817 364.251 16.6544 364.251 15.9765C364.251 15.2985 364.779 14.7713 365.431 14.7713Z" fill="#189EFF"/>
<path d="M364.954 16.6545H365.08C365.105 16.6545 365.13 16.6293 365.13 16.6042V16.1021H365.431L365.682 16.6293C365.682 16.6545 365.708 16.6545 365.733 16.6545H365.883C365.908 16.6545 365.933 16.6293 365.908 16.6042L365.632 16.1021C365.808 16.0267 365.933 15.8761 365.933 15.7003C365.933 15.4492 365.733 15.2735 365.482 15.2735H364.929C364.904 15.2735 364.879 15.2986 364.879 15.3237V16.6545C364.929 16.6545 364.929 16.6545 364.954 16.6545ZM365.13 15.4492H365.482C365.607 15.4492 365.733 15.5497 365.733 15.7003C365.733 15.851 365.607 15.9514 365.482 15.9514H365.13V15.4492Z" fill="#189EFF"/>
<path d="M287.667 17.3575C285.809 17.3575 284.529 18.387 284.253 18.5878V13.3149C284.253 13.0387 283.976 12.7625 283.7 12.7625H282.244C281.942 12.7625 281.691 13.0387 281.691 13.3149V29.1337C281.691 29.435 281.942 29.6861 282.244 29.6861H283.65C284.001 29.6861 284.227 29.4601 284.227 29.1337V21.5005C284.479 20.9983 285.508 19.7931 287.316 19.7931C288.848 19.7931 289.676 20.9481 289.676 22.8815V29.1337C289.676 29.435 289.927 29.6861 290.229 29.6861H291.66C291.936 29.6861 292.212 29.435 292.212 29.1337V22.9317C292.237 19.7178 291.007 17.3575 287.667 17.3575Z" fill="#189EFF"/>
<path d="M317.598 23.0573C317.447 19.0398 315.79 17.3575 311.898 17.3575C310.04 17.3575 307.83 17.9099 307.504 18.0606C307.102 18.2363 306.801 18.4372 306.801 18.7134V18.9394V19.7931V22.5551V22.9568V33.7538C306.801 34.0551 307.052 34.3062 307.353 34.3062H308.533C308.91 34.3062 309.136 34.0802 309.136 33.7538V29.5103C309.487 29.6108 311.32 29.7614 312.852 29.7112C315.589 29.6359 317.422 27.6523 317.573 24.2876C317.623 23.8106 317.598 23.0573 317.598 23.0573ZM315.112 24.2625C315.062 26.5475 314.409 27.5518 312.475 27.6523C311.521 27.7025 309.287 27.4514 309.287 27.4514C309.186 27.4263 309.136 27.3761 309.136 27.3007V22.7058V20.0693C309.136 19.994 309.186 19.9437 309.261 19.9437C309.513 19.9186 310.492 19.6173 311.873 19.6173C314.208 19.6173 315.011 19.9689 315.112 22.9066C315.137 23.2833 315.137 23.8357 315.112 24.2625Z" fill="#189EFF"/>
<path d="M334.521 17.6086H333.442C333.14 17.6086 332.688 17.6086 332.538 17.9601L330.654 24.7647H330.604L327.44 17.6337C327.39 17.483 327.215 17.3575 326.938 17.3575H326.763C326.537 17.3575 326.361 17.483 326.285 17.6337L323.097 24.7396H323.046L321.113 17.9601C321.063 17.7341 320.812 17.6086 320.611 17.6086H319.079C318.677 17.6086 318.502 17.9099 318.677 18.2865L322.117 29.4099C322.168 29.5857 322.343 29.7112 322.594 29.7112H322.745C322.996 29.7112 323.147 29.5857 323.197 29.435L326.838 21.4001H326.888L330.454 29.4099C330.529 29.5606 330.705 29.6861 330.956 29.6861H331.056C331.307 29.6861 331.533 29.5606 331.584 29.3848L334.973 18.2865C335.149 17.9099 334.923 17.6086 334.521 17.6086Z" fill="#189EFF"/>
<path d="M353.354 17.5082C353.303 17.5082 353.228 17.5082 353.178 17.5082C353.077 17.5082 352.977 17.5082 352.876 17.5082C352.274 17.5082 351.671 17.5333 351.119 17.5584C350.064 17.6086 349.436 17.6839 348.985 17.7341C348.985 17.7341 348.708 17.7593 348.357 17.8095C348.131 17.8346 347.98 17.935 347.88 18.0606C347.804 18.1359 347.779 18.2363 347.779 18.3368V18.387V18.613V19.4416V21.8269V29.1337C347.779 29.435 348.03 29.6861 348.332 29.6861H349.512C349.989 29.6861 350.34 29.6359 350.34 29.1337V21.8269V20.1446C350.34 20.0693 350.441 19.994 350.516 19.9438C350.792 19.768 351.495 19.6424 352.902 19.6424C353.027 19.6424 353.128 19.6424 353.228 19.6424C353.554 19.6676 354.057 19.768 354.207 19.8684C354.458 19.994 354.76 19.9186 354.935 19.5922L355.538 18.5879C355.89 17.8095 354.483 17.5082 353.354 17.5082Z" fill="#189EFF"/>
<path d="M361.438 17.3575C357.898 17.3575 355.562 20.1948 355.562 23.5092C355.562 26.8739 357.898 29.6861 361.463 29.6861C363.422 29.6861 364.978 28.983 365.832 28.2298C366.184 27.9285 366.083 27.7025 365.882 27.4263L365.179 26.3466C364.978 26.0453 364.752 26.1206 364.476 26.2964C363.773 26.7986 362.945 27.3007 361.589 27.3007C359.53 27.3007 358.099 25.6686 358.073 24.0868H366.234C366.485 24.0868 366.736 23.8859 366.761 23.5846C366.786 23.3837 366.811 22.982 366.811 22.756C366.837 19.6424 364.501 17.3575 361.438 17.3575ZM358.224 22.2036C358.4 20.7221 359.53 19.5169 361.388 19.5169C363.12 19.5169 364.25 20.7723 364.3 22.2036H358.224Z" fill="#189EFF"/>
<path d="M304.741 20.9983C304.465 20.245 304.114 19.5922 303.612 19.0398C303.109 18.4874 302.557 18.0856 301.904 17.7843C301.251 17.483 300.297 17.3324 299.519 17.3324C298.74 17.3324 297.786 17.483 297.133 17.7843C296.48 18.0856 295.903 18.4874 295.401 19.0398C294.924 19.5922 294.547 20.245 294.271 20.9983C293.995 21.7516 293.869 22.6053 293.869 23.5092C293.869 24.4383 293.995 25.292 294.271 26.0453C294.547 26.7985 294.924 27.4514 295.401 27.9787C295.878 28.5311 296.455 28.9328 297.133 29.2341C297.811 29.5354 298.74 29.6861 299.519 29.6861C300.297 29.6861 301.251 29.5354 301.904 29.2341C302.557 28.9328 303.134 28.5311 303.612 27.9787C304.089 27.4263 304.465 26.7985 304.741 26.0453C305.018 25.292 305.143 24.4383 305.143 23.5092C305.143 22.6053 305.018 21.7767 304.741 20.9983ZM299.443 27.6522C297.309 27.6522 296.229 25.8444 296.229 23.6097C296.229 21.3749 297.309 19.5671 299.443 19.5671C301.578 19.5671 302.657 21.3749 302.657 23.6097C302.657 25.8444 301.578 27.6522 299.443 27.6522Z" fill="#189EFF"/>
</g>
<path d="M452.059 16.6939C453.22 18.4884 453.663 20.6541 453.299 22.7601C452.963 24.8797 451.877 26.8079 450.238 28.1937L451.422 30.0917L449.044 31.5714L447.865 29.6733C445.909 30.5472 443.702 30.6797 441.655 30.0458C439.594 29.4649 437.831 28.1203 436.726 26.2857C436.082 25.2993 435.652 24.1895 435.462 23.0271C435.272 21.8647 435.327 20.6755 435.624 19.5357C435.899 18.3833 436.402 17.2975 437.103 16.3424C437.804 15.3873 438.689 14.5822 439.706 13.9745C440.698 13.3205 441.812 12.8732 442.98 12.6593C444.149 12.4454 445.349 12.4693 446.508 12.7296C447.658 12.968 448.746 13.4437 449.702 14.1262C450.658 14.8088 451.461 15.6833 452.059 16.6939ZM449.279 18.4285C448.468 17.1163 447.172 16.1774 445.673 15.8162C444.173 15.455 442.592 15.7007 441.273 16.5C440.628 16.8918 440.069 17.4103 439.631 18.0242C439.192 18.638 438.883 19.3345 438.721 20.0714C438.393 21.4808 438.596 22.9617 439.291 24.2312C439.985 25.5007 441.123 26.47 442.487 26.954C443.676 27.4058 444.984 27.4347 446.191 27.0356L444.778 24.7702L447.156 23.2856L448.569 25.5508C449.473 24.6418 450.031 23.4452 450.146 22.1683C450.299 20.8588 449.993 19.5368 449.279 18.4285Z" fill="#4E4D4D"/>
<path d="M472.632 21.8826C472.591 23.8061 471.857 25.6502 470.566 27.0764C469.719 28.0942 468.651 28.9048 467.443 29.4459C466.235 29.9873 464.919 30.2448 463.596 30.1989C462.406 30.2285 461.222 30.0179 460.116 29.5797C459.01 29.1412 458.003 28.4842 457.156 27.6479C456.303 26.8371 455.627 25.858 455.172 24.7725C454.717 23.6869 454.493 22.5186 454.513 21.3418C454.491 20.163 454.716 18.9927 455.173 17.9058C455.63 16.819 456.309 15.8396 457.166 15.0306C458.009 14.1975 459.011 13.5423 460.112 13.1041C461.213 12.6658 462.391 12.4535 463.575 12.4796C464.946 12.472 466.302 12.7682 467.545 13.3469C468.814 13.9606 469.919 14.8663 470.77 15.9898L468.219 17.9234C467.726 17.148 467.042 16.5129 466.232 16.0794C465.422 15.6459 464.514 15.4288 463.596 15.449C462.836 15.441 462.082 15.5876 461.38 15.8796C460.679 16.1716 460.044 16.6031 459.514 17.1479C458.954 17.6911 458.513 18.3441 458.218 19.0658C457.923 19.7875 457.781 20.5623 457.799 21.3418C457.789 22.114 457.936 22.8803 458.23 23.5942C458.525 24.308 458.962 24.9547 459.514 25.4948C460.038 26.0485 460.672 26.4879 461.374 26.7855C462.077 27.0832 462.833 27.2325 463.596 27.2243C464.941 27.2724 466.26 26.835 467.31 25.992C468.36 25.1491 469.072 23.9568 469.316 22.6326H463.54V19.6173H472.632V21.8826Z" fill="#4E4D4D"/>
<path d="M487.206 24.2754H476.394C476.395 24.7486 476.506 25.2149 476.717 25.6381C476.929 26.0611 477.236 26.4295 477.613 26.7142C478.38 27.3666 479.357 27.7199 480.364 27.7091C481.111 27.7031 481.844 27.514 482.501 27.158C483.158 26.8022 483.717 26.2907 484.13 25.6683L486.497 26.9845C485.756 27.9507 484.819 28.7487 483.747 29.3264C482.736 29.8959 481.596 30.1964 480.435 30.1989C479.452 30.2361 478.471 30.0649 477.558 29.6964C476.646 29.328 475.821 28.7707 475.139 28.0612C474.529 27.4265 474.052 26.6771 473.735 25.8565C473.418 25.0358 473.267 24.1601 473.292 23.2805C473.275 22.4032 473.432 21.5311 473.754 20.7148C474.076 19.8986 474.557 19.1544 475.169 18.5255C475.845 17.8134 476.663 17.2524 477.571 16.8795C478.478 16.5066 479.455 16.3303 480.435 16.3622C482.073 16.37 483.647 16.9991 484.839 18.1224C485.622 18.826 486.24 19.694 486.648 20.6642C487.056 21.6344 487.245 22.6829 487.201 23.7346L487.206 24.2754ZM483.925 21.9336C483.69 21.0404 483.184 20.242 482.476 19.6479C481.785 19.139 480.946 18.8718 480.088 18.8877C479.238 18.8685 478.408 19.1464 477.741 19.6734C477.043 20.2471 476.566 21.0464 476.394 21.9336H483.925Z" fill="#4E4D4D"/>
<path d="M500.614 29.8468H497.813V22.5458C497.813 21.3928 497.542 20.5408 497.002 19.9948C496.696 19.7101 496.336 19.4909 495.943 19.3505C495.55 19.2101 495.132 19.1516 494.716 19.1785C494.295 19.1619 493.875 19.2296 493.48 19.3777C493.086 19.5258 492.725 19.7512 492.42 20.0408C492.112 20.3643 491.874 20.7479 491.721 21.1675C491.568 21.5872 491.504 22.0338 491.532 22.4795V29.8468H488.73V16.7194H491.532V18.3775C491.95 17.7531 492.518 17.2442 493.185 16.8979C493.918 16.5323 494.728 16.3486 495.547 16.3622C496.221 16.355 496.889 16.4924 497.505 16.7653C498.121 17.0381 498.672 17.44 499.119 17.9438C500.12 19.0262 500.652 20.4605 500.599 21.9336L500.614 29.8468Z" fill="#4E4D4D"/>
<path d="M515.8 29.8468H512.999V28.2448C512.51 28.8595 511.88 29.3462 511.162 29.6632C510.382 30.0156 509.533 30.1898 508.677 30.1733C507.739 30.1994 506.808 30.0171 505.949 29.6394C505.091 29.2618 504.326 28.6983 503.712 27.9897C502.544 26.6922 501.909 25.0008 501.936 23.255C501.925 21.5193 502.578 19.845 503.763 18.5765C504.387 17.857 505.162 17.2835 506.032 16.8965C506.902 16.5094 507.847 16.3183 508.799 16.3367C509.66 16.3205 510.512 16.5038 511.289 16.8724C511.958 17.1901 512.529 17.6817 512.943 18.2959L512.999 12.801H515.8V29.8468ZM513.091 23.2805C513.1 22.7264 512.999 22.176 512.794 21.661C512.589 21.1461 512.284 20.6769 511.897 20.2805C511.534 19.882 511.091 19.5646 510.596 19.3492C510.102 19.1338 509.568 19.0252 509.029 19.0306C508.482 19.0207 507.939 19.1249 507.435 19.3366C506.931 19.5483 506.476 19.8629 506.1 20.2602C505.318 21.0689 504.88 22.1501 504.88 23.2754C504.88 24.4008 505.318 25.482 506.1 26.2907C506.476 26.6885 506.93 27.0042 507.435 27.2176C507.939 27.431 508.482 27.5376 509.029 27.5305C509.567 27.5331 510.099 27.4242 510.593 27.2109C511.086 26.9975 511.53 26.6842 511.897 26.2907C512.287 25.8946 512.594 25.424 512.8 24.907C513.005 24.3898 513.104 23.8367 513.091 23.2805Z" fill="#4E4D4D"/>
<path d="M528.454 29.8111H525.525V27.7243H525.475C525.091 28.4697 524.504 29.0908 523.781 29.5153C523.059 29.9399 522.23 30.1503 521.393 30.1222C520.271 30.1822 519.171 29.7971 518.331 29.0509C517.958 28.6853 517.665 28.2451 517.474 27.7589C517.282 27.2728 517.195 26.7515 517.219 26.2295C517.219 23.7057 518.668 22.2363 521.566 21.8214L525.536 21.255C525.536 19.3571 524.627 18.4081 522.821 18.4081C521.233 18.404 519.701 18.9894 518.52 20.051V17.3979C520.003 16.5495 521.689 16.1193 523.398 16.153C526.765 16.153 528.449 17.8112 528.449 21.1275L528.454 29.8111ZM525.541 23.255L522.735 23.6479C522.042 23.6983 521.372 23.9135 520.78 24.2754C520.543 24.4689 520.358 24.7188 520.242 25.0022C520.126 25.2857 520.083 25.5936 520.117 25.8978C520.113 26.1612 520.167 26.4221 520.275 26.6621C520.384 26.9019 520.544 27.1149 520.744 27.2855C521.201 27.6616 521.781 27.8544 522.372 27.8263C522.8 27.8373 523.226 27.7565 523.62 27.5892C524.014 27.4221 524.368 27.1724 524.658 26.857C525.262 26.186 525.579 25.305 525.541 24.4029V23.255Z" fill="#4E4D4D"/>
<path d="M427.033 13.1089C428.79 15.4306 429.819 18.2211 429.991 21.1276C430.105 23.0593 429.838 24.9946 429.204 26.8228C428.569 28.6509 427.581 30.3361 426.295 31.7819C425.008 33.2276 423.45 34.4057 421.708 35.2486C419.966 36.0915 418.075 36.5824 416.142 36.6938C413.235 36.8623 410.344 36.1653 407.833 34.6908C405.322 33.2163 403.305 31.0305 402.036 28.4099C400.767 25.7892 400.304 22.8513 400.705 19.9674C401.105 17.0835 402.352 14.3832 404.288 12.2078C406.223 10.0323 408.76 8.47942 411.578 7.74538C414.396 7.01133 417.368 7.12909 420.119 8.08374C422.87 9.03841 425.276 10.7871 427.033 13.1089Z" fill="white"/>
<path d="M429.991 21.1276C429.819 18.2211 428.79 15.4306 427.033 13.1089C425.276 10.7871 422.87 9.03841 420.119 8.08374C417.368 7.12909 414.396 7.01133 411.578 7.74538C408.76 8.47942 406.223 10.0323 404.288 12.2078C402.352 14.3832 401.105 17.0835 400.705 19.9674C400.304 22.8513 400.767 25.7892 402.036 28.4099C403.305 31.0305 405.322 33.2163 407.833 34.6908C410.344 36.1653 413.235 36.8623 416.142 36.6938C418.075 36.5824 419.966 36.0915 421.708 35.2486C423.45 34.4057 425.008 33.2276 426.295 31.7819C427.581 30.3361 428.569 28.6509 429.204 26.8228C429.838 24.9946 430.105 23.0593 429.991 21.1276ZM425.7 23.3827C425.434 25.2298 424.672 26.9702 423.495 28.4184L421.388 25.0969C421.741 24.3727 421.956 23.5889 422.021 22.7858C422.163 21.1151 421.689 19.45 420.688 18.1049C419.687 16.7598 418.228 15.8278 416.586 15.4848C415.731 15.297 414.846 15.2817 413.985 15.4398C413.123 15.5979 412.302 15.9263 411.569 16.4056C410.836 16.885 410.205 17.5057 409.715 18.2316C409.225 18.9574 408.884 19.7737 408.713 20.6327C408.369 22.2737 408.64 23.9838 409.474 25.438C410.309 26.8923 411.649 27.9893 413.239 28.5204C414.058 28.8042 414.928 28.9087 415.79 28.8265C416.41 28.7451 417.017 28.5857 417.597 28.3521L416.653 26.7756C417.576 26.2144 418.265 25.7552 419.204 25.0765L420.224 26.7194L422.209 29.8521L423.684 32.1939C422.863 32.8482 421.969 33.4064 421.021 33.8571L419.531 31.4286C418.839 31.8025 418.094 32.0675 417.321 32.2143C415.68 32.5751 413.977 32.5417 412.351 32.1173C409.939 31.5016 407.856 29.9818 406.534 27.8724C405.763 26.7421 405.235 25.4629 404.987 24.1168C404.738 22.7709 404.773 21.3878 405.09 20.0562C405.378 18.7124 405.933 17.4401 406.722 16.3148C407.511 15.1894 408.517 14.234 409.683 13.5052C410.82 12.7218 412.103 12.175 413.455 11.8972C414.808 11.6193 416.202 11.6162 417.556 11.8879C418.901 12.1346 420.179 12.6597 421.309 13.4293C422.439 14.199 423.396 15.1963 424.118 16.3573C425.507 18.4182 426.071 20.9254 425.7 23.3827ZM417.699 22.5154L416.387 24.0868C416.142 24.3827 415.877 24.6888 415.637 24.9847C415.545 25.0879 415.43 25.1686 415.302 25.2204C415.173 25.2722 415.035 25.2936 414.897 25.2834C414.758 25.2729 414.625 25.231 414.505 25.1606C414.386 25.0902 414.285 24.9934 414.209 24.8775C413.658 24.1276 413.122 23.347 412.581 22.6072C412.488 22.456 412.444 22.2798 412.455 22.1026C412.466 21.9255 412.531 21.756 412.642 21.6174C412.723 21.5067 412.828 21.4156 412.949 21.3511C413.069 21.2866 413.203 21.2503 413.34 21.2449C413.477 21.2394 413.614 21.2651 413.739 21.3199C413.865 21.3747 413.977 21.4572 414.066 21.5613C414.28 21.8419 414.479 22.1327 414.688 22.4235C414.78 22.5511 414.872 22.6786 414.989 22.8317L417.612 19.6787L418.153 19.0358C418.265 18.8787 418.428 18.7654 418.614 18.7151C418.8 18.6649 418.998 18.6808 419.173 18.7603C419.364 18.8296 419.528 18.956 419.644 19.1221C419.76 19.2883 419.822 19.4862 419.821 19.6889C419.818 19.8654 419.754 20.0352 419.638 20.1685L417.699 22.5154Z" fill="#1F7BB6"/>
<defs>
<radialGradient id="paint0_radial_742_9803" cx="0" cy="0" r="1" gradientUnits="userSpaceOnUse" gradientTransform="translate(20.9729 13.9656) scale(7.22838 7.22838)">
<stop stop-color="white"/>
<stop offset="1" stop-color="#CF121B"/>
</radialGradient>
<clipPath id="clip0_742_9803">
<rect width="205.8" height="28.3547" fill="white" transform="translate(0 7.89133)"/>
</clipPath>
<clipPath id="clip1_742_9803">
<rect width="129.563" height="28.6245" fill="white" transform="translate(237.801 7.89133)"/>
</clipPath>
</defs>
</svg>
