<svg width="449" height="51" viewBox="0 0 449 51" fill="none" xmlns="http://www.w3.org/2000/svg">
<g clip-path="url(#clip0_282_4123)">
<path fill-rule="evenodd" clip-rule="evenodd" d="M45.2617 34.8571H33.5967C33.2078 34.8564 32.9134 34.5604 32.9128 34.1696V32.7386C32.9043 32.3873 33.0167 32.2312 33.2313 31.9636L42.5167 21.1129H33.4189C33.0294 21.1122 32.735 20.8163 32.7344 20.4254V19.4114C32.735 19.0205 33.0294 18.7247 33.4189 18.724H45.2024C45.5919 18.7247 45.8863 19.0205 45.8863 19.4114V20.8721C45.8922 21.1365 45.8006 21.3604 45.5912 21.5955L36.2834 32.4682H45.2617C45.6505 32.4688 45.9449 32.7647 45.9455 33.1555V34.1689C45.9449 34.5604 45.6505 34.8564 45.2617 34.8571ZM68.257 35.1554H68.258C69.0945 35.1385 69.7119 34.9725 69.9543 34.6996C70.0396 34.6028 70.0797 34.4916 70.0688 34.3811C70.0631 34.29 70.0631 34.29 69.8335 33.2103L69.8285 33.1849C69.779 32.9028 69.5778 32.7746 69.4127 32.7746L69.3902 32.7764C69.3902 32.7764 69.1805 32.7661 68.9735 32.7661H68.9719C68.3762 32.747 67.8826 32.6602 67.8725 31.7842V13.4575C67.8717 13.1524 67.689 12.8382 67.3371 12.8308L67.2331 12.8315L65.6047 13.2502C65.3272 13.2788 65.0382 13.4776 65.0509 13.8459V31.8439C65.0532 33.9758 66.1924 35.1512 68.2552 35.1554H68.257ZM101.183 34.8571H99.7298C99.3403 34.8564 99.0469 34.5604 99.0452 34.1696V23.1381C99.0192 21.2721 98.4643 20.7531 96.4649 20.7255C94.2039 20.7255 91.9145 21.2947 91.1603 21.502V34.1689C91.1593 34.5672 90.8846 34.8564 90.5056 34.8571H89.0222C88.6327 34.8564 88.3387 34.5604 88.3387 34.1696V21.7968C88.317 20.6514 88.4234 19.8595 90.044 19.332C91.5959 18.7939 94.565 18.3373 96.5268 18.3356C100.265 18.3405 101.862 19.6967 101.867 22.8691V34.1689C101.866 34.5604 101.572 34.8564 101.183 34.8571ZM115.79 21.1768C115.247 21.038 113.733 20.6952 112.027 20.6952C108.894 20.7245 107.58 21.5796 107.547 26.8055C107.584 32.5448 109.283 32.8548 112.055 32.8851L112.057 33.0055V32.8851C113.78 32.8851 115.261 32.5235 115.788 32.3781L115.79 21.1768ZM116.554 34.6423L116.381 34.6862C115.456 34.922 114.19 35.2447 111.969 35.2447H111.964C105.845 35.2352 104.643 32.1328 104.637 26.7755C104.645 20.632 106.582 18.3441 111.785 18.3356C113.622 18.3356 114.886 18.5746 115.795 18.7946L115.788 13.8466C115.781 13.6291 115.879 13.3445 116.39 13.2467L118.014 12.8308H118.103C118.478 12.84 118.609 13.1743 118.61 13.4575V32.0529C118.635 33.2262 118.498 34.2339 116.554 34.6423ZM128.42 32.8554C124.41 32.8378 124.209 30.7681 124.18 26.8065C124.209 22.8221 124.41 20.7421 128.42 20.7255C132.432 20.7421 132.632 22.8221 132.66 26.8041C132.632 30.7681 132.431 32.8378 128.42 32.8554ZM128.42 18.3356C121.808 18.3448 121.248 22.7127 121.241 26.8055C121.248 30.8835 121.808 35.2352 128.42 35.2447C135.028 35.2352 135.591 30.8956 135.601 26.8048C135.594 22.5248 135.033 18.3448 128.42 18.3356ZM82.5899 26.8917C81.9277 26.8991 78.7156 26.9513 77.437 27.226L77.3362 27.2479C75.8981 27.5713 74.7625 27.8258 74.7484 29.9662C74.7509 32.6577 76.8009 32.8992 78.8999 32.9155L78.9017 33.0359V32.9155C80.2157 32.9155 81.4559 32.7283 82.5899 32.3576V26.8917ZM85.4265 22.9594V31.5162C85.455 33.6432 84.9113 34.3229 82.7809 34.8199C81.8479 35.0145 80.4184 35.2447 78.8698 35.2447C76.588 35.2394 71.8398 35.2303 71.838 30.0841C71.8229 26.0315 74.2448 25.3272 77.1721 24.8749C79.0892 24.5659 81.0394 24.5193 82.031 24.5193C82.299 24.5193 82.4724 24.5218 82.5754 24.5236V23.0781C82.5663 22.1128 82.5603 21.5281 81.6629 21.187C81.1089 20.9519 80.2836 20.8442 79.0551 20.8442C77.0303 20.8442 75.2167 21.3 74.0169 21.6022L73.5585 21.7103C73.5089 21.7226 73.4563 21.7353 73.3874 21.7389H73.3867C73.1756 21.7389 72.9435 21.6132 72.8577 21.3328L72.851 21.3067L72.5806 19.9301L72.5795 19.8587C72.5837 19.5343 72.8177 19.344 73.0365 19.2741C74.0035 18.9118 76.5603 18.3373 79.3147 18.3356C81.3277 18.3373 82.7809 18.6 83.7588 19.1409C85.4332 20.0303 85.429 21.6545 85.4265 22.9594ZM58.8555 32.3576C57.7216 32.7283 56.4813 32.9155 55.1673 32.9155V33.0359L55.1655 32.9155C53.0672 32.8992 51.0166 32.6577 51.0142 29.9662C51.0275 27.8258 52.1637 27.5713 53.6018 27.2479L53.7016 27.226C54.9812 26.9513 58.1933 26.8991 58.8555 26.8917V32.3576ZM60.0244 19.1409C59.0465 18.6 57.5923 18.3373 55.5797 18.3356C52.8259 18.3373 50.2681 18.9118 49.3011 19.2741C49.0822 19.344 48.8487 19.5343 48.8452 19.8587V19.9301L49.1167 21.3067L49.1234 21.3328C49.208 21.6132 49.4412 21.7389 49.6524 21.7389H49.653C49.7209 21.7353 49.7745 21.7226 49.8241 21.7103L50.2815 21.6022C51.4817 21.3 53.2952 20.8442 55.3198 20.8442C56.5484 20.8442 57.3739 20.9519 57.9278 21.187C58.8259 21.5281 58.8319 22.1128 58.8411 23.0781V24.5236C58.7382 24.5218 58.5646 24.5193 58.2962 24.5193C57.3051 24.5193 55.3548 24.5659 53.4367 24.8749C50.5105 25.3272 48.0885 26.0315 48.1036 30.0841C48.1044 35.2303 52.8526 35.2394 55.1346 35.2447C56.684 35.2447 58.1129 35.0145 59.0465 34.8199C61.1758 34.3229 61.7195 33.6432 61.6922 31.5162V22.9594C61.6946 21.6545 61.6988 20.0303 60.0244 19.1409Z" fill="#1D1D1B"/>
<path fill-rule="evenodd" clip-rule="evenodd" d="M5.40259 39.4021C4.41381 39.4021 3.86411 39.1694 3.57082 38.9985C3.16441 38.7637 2.4145 38.1639 1.74221 36.3854C0.664567 33.5382 0.0284511 30.0612 0 25.9746V25.9594C0.0284511 21.8722 0.664567 18.3959 1.74221 15.5476C2.4145 13.7702 3.16441 13.1696 3.57082 12.9348C3.86411 12.7636 4.41311 12.532 5.40188 12.532C5.77912 12.532 6.22064 12.5659 6.73593 12.6492C9.72859 13.1361 13.0423 14.3203 16.5769 16.3396L16.5903 16.3463C20.0965 18.4142 22.774 20.7064 24.6898 23.0684C25.8847 24.5426 26.0263 25.4955 26.0263 25.9672C26.0263 26.4379 25.8847 27.3915 24.6898 28.8649C22.774 31.2269 20.0965 33.5199 16.5903 35.5878L16.5769 35.5956C13.0423 37.6137 9.72859 38.7979 6.73593 39.2849C6.22064 39.3686 5.77983 39.4021 5.40259 39.4021Z" fill="#FF6900"/>
</g>
<g clip-path="url(#clip1_282_4123)">
<path d="M200.196 23.819C199.337 23.5614 198.887 23.5184 198.629 23.4755C198.371 23.4325 198.479 23.454 198.199 23.3896C197.899 23.3252 197.19 23.2393 196.632 23.1964C198.135 23.1319 198.736 23.0031 199.681 22.7669C200.604 22.5522 201.399 22.2087 202.086 21.7578C202.622 21.4143 203.03 20.942 203.331 20.3623C203.653 19.7826 203.803 19.2029 203.803 18.5588V18.5373C203.803 17.4852 203.374 16.562 202.515 15.7247C201.635 14.8873 200.497 14.3291 199.015 13.9856C198.543 13.8782 198.071 13.7923 197.555 13.7064C196.89 13.6206 196.353 13.5561 195.752 13.5132C195.151 13.4703 194.507 13.4273 193.777 13.4273C193.455 13.4059 193.09 13.4059 192.725 13.4059H192.402H191.887H183.6V13.7279C184.351 13.7923 184.888 13.8782 185.231 14.007C185.575 14.1358 185.854 14.3291 186.069 14.6511C186.262 14.9303 186.412 15.2523 186.498 15.6388C186.584 16.0252 186.648 16.5191 186.648 17.1846V31.076C186.648 31.441 186.627 31.7416 186.627 31.9563C186.605 32.2139 186.584 32.4072 186.563 32.5789C186.541 32.7507 186.52 32.9439 186.498 33.1157C186.434 33.4807 186.305 33.8027 186.069 34.1033C185.833 34.4254 185.532 34.6401 185.188 34.7689C184.845 34.8977 184.308 34.9836 183.6 35.0266V35.3486H195.58C197.147 35.3486 197.942 35.1983 199.209 34.9192C200.454 34.6401 201.527 34.2107 202.386 33.6954C203.267 33.1586 203.911 32.5145 204.383 31.7201C204.855 30.9472 205.07 30.0884 205.07 29.1222C205.07 27.8769 204.641 26.7819 203.76 25.8372C202.987 25.1502 201.742 24.3772 200.175 24.0337V23.819H200.196ZM197.877 33.6954C197.276 34.5971 196.289 35.0695 194.936 35.0695C194.507 35.0695 194.142 35.0266 193.862 34.9407C193.583 34.8548 193.369 34.683 193.218 34.4254C193.068 34.1677 192.961 33.8242 192.918 33.3733C192.875 32.9225 192.853 32.3213 192.853 31.5698V13.7923H193.648C194.7 13.7923 195.494 13.9211 196.052 14.1573C196.611 14.3935 197.04 14.8229 197.341 15.3811C197.555 15.7676 197.706 16.2185 197.813 16.6908C197.899 17.1846 197.942 17.7429 197.942 18.4299C197.942 19.4176 197.813 20.2764 197.577 20.9849C197.384 21.5217 197.147 21.9296 196.847 22.2517C196.782 22.3161 196.697 22.402 196.589 22.4664L196.568 22.4878C196.546 22.5093 196.546 22.5093 196.546 22.5093C196.46 22.5737 196.375 22.6167 196.289 22.6596C196.246 22.6811 196.203 22.7025 196.16 22.724C195.473 23.0461 194.721 23.0675 194.464 23.0675V23.454C194.464 23.454 195.859 23.3896 196.933 24.0122C196.997 24.0552 197.062 24.0981 197.104 24.1196C197.126 24.1411 197.126 24.1411 197.126 24.1411C197.62 24.5061 197.963 24.9355 198.221 25.4937C198.607 26.4599 198.822 27.6837 198.822 29.2081C198.801 31.2263 198.5 32.7936 197.877 33.7383V33.6954Z" fill="#010202"/>
<path d="M221.086 21.7579C220.421 20.9849 219.583 20.3838 218.553 19.9114C217.522 19.4391 216.32 19.2029 214.946 19.2029C213.572 19.2029 212.369 19.4391 211.339 19.9114C210.308 20.3838 209.471 21.0064 208.805 21.7579C208.14 22.5308 207.646 23.3896 207.302 24.3558C206.959 25.3434 206.787 26.3311 206.787 27.3616C206.787 28.3707 206.959 29.3799 207.302 30.3675C207.646 31.3551 208.14 32.2139 208.805 32.9654C209.471 33.7383 210.308 34.3395 211.339 34.8119C212.369 35.2842 213.572 35.5204 214.946 35.5204C216.32 35.5204 217.522 35.2842 218.553 34.8119C219.583 34.3395 220.421 33.7169 221.086 32.9654C221.752 32.1925 222.246 31.3337 222.589 30.3675C222.933 29.3799 223.105 28.3922 223.105 27.3616C223.105 26.3525 222.933 25.3434 222.589 24.3558C222.267 23.3252 221.645 22.4449 221.022 21.6934L221.086 21.7579ZM217.501 28.8431C217.501 29.8522 217.479 30.6895 217.415 31.441C217.372 32.1925 217.265 32.8151 217.093 33.3304C216.921 33.8457 216.664 34.2107 216.32 34.4683C215.976 34.726 215.526 34.8333 214.946 34.8333C214.366 34.8333 213.894 34.7045 213.572 34.4683C213.228 34.2107 212.971 33.8242 212.799 33.3304C212.627 32.8151 212.52 32.1925 212.477 31.441C212.434 30.6895 212.391 29.8093 212.391 28.8431V25.9661C212.391 24.9999 212.412 24.1196 212.477 23.3681C212.52 22.5952 212.627 21.9511 212.799 21.4358C212.971 20.9205 213.228 20.5126 213.572 20.2335C213.915 19.9543 214.366 19.8041 214.946 19.8041C215.526 19.8041 215.998 19.9543 216.32 20.2335C216.664 20.5126 216.921 20.899 217.093 21.4358C217.265 21.9511 217.372 22.5952 217.415 23.3681C217.458 24.1411 217.501 24.9999 217.501 25.9661V28.8002V28.8431Z" fill="#010202"/>
<path d="M238.864 21.7579C238.198 20.9849 237.361 20.3838 236.33 19.9114C235.3 19.4391 234.097 19.2029 232.723 19.2029C231.349 19.2029 230.147 19.4391 229.116 19.9114C228.086 20.3838 227.248 21.0064 226.583 21.7579C225.917 22.5308 225.423 23.3896 225.08 24.3558C224.736 25.3434 224.564 26.3311 224.564 27.3616C224.564 28.3707 224.736 29.3799 225.08 30.3675C225.423 31.3551 225.917 32.2139 226.583 32.9654C227.248 33.7383 228.086 34.3395 229.116 34.8119C230.147 35.2842 231.349 35.5204 232.723 35.5204C234.097 35.5204 235.3 35.2842 236.33 34.8119C237.361 34.3395 238.198 33.7169 238.864 32.9654C239.529 32.1925 240.023 31.3337 240.367 30.3675C240.71 29.3799 240.882 28.3922 240.882 27.3616C240.882 26.3525 240.71 25.3434 240.367 24.3558C239.894 23.3252 239.422 22.4449 238.799 21.6934L238.864 21.7579ZM235.278 28.8431C235.278 29.8522 235.257 30.6895 235.192 31.441C235.149 32.1925 235.042 32.8151 234.87 33.3304C234.698 33.8457 234.441 34.2107 234.097 34.4683C233.754 34.726 233.303 34.8333 232.723 34.8333C232.144 34.8333 231.671 34.7045 231.349 34.4683C231.006 34.2107 230.748 33.8242 230.576 33.3304C230.404 32.8151 230.297 32.1925 230.254 31.441C230.211 30.6895 230.168 29.8093 230.168 28.8431V25.9661C230.168 24.9999 230.19 24.1196 230.254 23.3681C230.297 22.5952 230.404 21.9511 230.576 21.4358C230.748 20.9205 231.006 20.5126 231.349 20.2335C231.693 19.9543 232.144 19.8041 232.723 19.8041C233.303 19.8041 233.775 19.9543 234.097 20.2335C234.441 20.5126 234.698 20.899 234.87 21.4358C235.042 21.9511 235.149 22.5952 235.192 23.3681C235.235 24.1411 235.278 24.9999 235.278 25.9661V28.8002V28.8431Z" fill="#010202"/>
<path d="M254.15 33.6954C253.442 34.4683 252.39 34.8333 250.994 34.8333H247.537L255.503 20.7273V19.8255H242.599V24.184H242.964C243.093 22.9387 243.544 21.994 244.338 21.3499C245.133 20.7273 246.013 20.4052 247.022 20.4052H250.135L241.955 34.5971V35.3916H255.868V30.6466H255.503C255.353 31.7416 254.88 32.8366 254.107 33.6095L254.15 33.6954Z" fill="#010202"/>
<path d="M267.892 34.6401C267.892 34.6401 267.462 34.8119 267.076 34.8119C266.152 34.8119 265.53 34.4039 265.208 33.6095C264.886 32.8151 264.714 31.5054 264.714 29.7019V20.4267H267.376V19.847H264.649V13.4703H264.327C264.327 13.9856 262.374 19.8255 258.917 19.847H257.264V20.4267H259.217V28.7572C259.217 30.0884 259.368 31.1834 259.711 32.0422C260.033 32.9225 260.484 33.6095 261.042 34.1248C261.601 34.6401 262.266 35.0051 263.039 35.2413C263.812 35.456 264.607 35.5633 265.465 35.5633C266.517 35.5633 267.355 35.413 267.999 35.1124V34.7904L267.892 34.6401Z" fill="#010202"/>
</g>
<path d="M419.298 31.2564C419.872 31.2724 420.443 31.1742 420.979 30.9675C421.514 30.7607 422.004 30.4497 422.418 30.0523L423.965 31.7344C422.943 32.7849 421.526 33.5662 419.324 33.5662C415.549 33.5662 413.111 31.0634 413.111 27.6729C413.097 26.8962 413.239 26.1245 413.528 25.4036C413.818 24.6827 414.249 24.0274 414.797 23.4763C415.345 22.9253 415.997 22.4898 416.716 22.1956C417.435 21.9015 418.206 21.7547 418.983 21.764C422.732 21.764 424.858 24.6173 424.671 28.5724H415.808C416.123 30.2138 417.275 31.2643 419.294 31.2643M421.995 26.6868C421.754 25.1505 420.84 24.0212 419.005 24.0212C417.302 24.0212 416.114 24.985 415.808 26.6868H421.995ZM361.106 31.1343L367.928 24.205H361.271V22.0174H371.093V24.2497L364.271 31.1763H371.183V33.3521H361.109L361.106 31.1343ZM378.84 31.2577C379.414 31.2737 379.985 31.1755 380.521 30.9688C381.056 30.7621 381.546 30.451 381.96 30.0536L383.509 31.7344C382.488 32.7849 381.071 33.5662 378.869 33.5662C375.094 33.5662 372.655 31.0634 372.655 27.6729C372.641 26.8962 372.783 26.1245 373.073 25.4036C373.362 24.6827 373.794 24.0274 374.341 23.4763C374.889 22.9253 375.542 22.4898 376.261 22.1956C376.98 21.9015 377.751 21.7547 378.527 21.764C382.276 21.764 384.402 24.6173 384.216 28.5724H375.352C375.668 30.2138 376.819 31.2643 378.839 31.2643M381.54 26.6868C381.299 25.1505 380.384 24.0212 378.55 24.0212C376.847 24.0212 375.658 24.985 375.352 26.6868H381.54ZM398.941 27.6585C398.941 24.0448 401.646 21.7692 404.627 21.7692C405.342 21.7596 406.05 21.9068 406.703 22.2003C407.355 22.4939 407.935 22.9267 408.402 23.4684V16.7912H410.811V33.3364H408.402V31.7606C407.944 32.3244 407.364 32.7778 406.707 33.0874C406.05 33.397 405.331 33.5548 404.604 33.5491C401.713 33.5491 398.942 31.2643 398.942 27.6624M408.537 27.6414C408.452 24.4637 404.598 22.9536 402.366 25.2306C400.133 27.5075 401.762 31.3339 404.943 31.3326C407.013 31.3326 408.536 29.678 408.536 27.6559M426.24 30.9386L428.423 29.8067C429.011 30.8572 430.13 31.4914 431.334 31.4612C432.7 31.4612 433.403 30.76 433.403 29.9669C433.403 29.0478 432.085 28.856 430.652 28.5619C428.725 28.168 426.718 27.518 426.718 25.1872C426.718 23.3975 428.422 21.7443 431.104 21.7679C433.205 21.7679 434.789 22.6083 435.682 23.9634L433.659 25.0743C433.38 24.6603 432.999 24.3243 432.553 24.0983C432.107 23.8722 431.611 23.7634 431.112 23.7822C429.816 23.7822 429.142 24.4164 429.142 25.1413C429.142 25.9554 430.188 26.1826 431.826 26.5463C433.691 26.9402 435.805 27.5653 435.805 29.921C435.805 31.4967 434.439 33.5885 431.213 33.5662C428.85 33.5662 427.19 32.6142 426.233 30.9399M442.347 28.3137L440.436 30.3976V33.339H438.027V16.7939H440.436V27.6191L445.552 22.003H448.487L444.051 26.8614L448.6 33.3377H445.873L442.347 28.3137ZM391.645 21.7876C388.78 21.7876 386.393 23.6456 386.393 26.7249V33.339H388.848V27.0072C388.848 25.1491 389.916 24.0396 391.74 24.0396C393.564 24.0396 394.471 25.1505 394.471 27.0072V33.3154H396.914V26.7012C396.914 23.622 394.504 21.764 391.661 21.764M333.642 18.3407V39.6393H316L333.642 18.3407ZM333.642 10.6958C333.642 13.0356 332.713 15.2798 331.059 16.9348C329.405 18.5898 327.161 19.5201 324.821 19.5212C322.482 19.5201 320.238 18.5898 318.584 16.9348C316.93 15.2798 316.001 13.0356 316.001 10.6958H333.642ZM336.547 39.6366C336.549 37.2977 337.478 35.0549 339.132 33.401C340.786 31.7472 343.029 30.8176 345.368 30.8165C347.707 30.8176 349.949 31.7472 351.603 33.401C353.257 35.0549 354.187 37.2977 354.188 39.6366H336.547ZM336.547 31.9917V10.6984H354.189L336.547 31.9917Z" fill="#03363D"/>
<defs>
<clipPath id="clip0_282_4123">
<rect width="135.6" height="50" fill="white" transform="translate(0 0.16333)"/>
</clipPath>
<clipPath id="clip1_282_4123">
<rect width="84.4" height="50" fill="white" transform="translate(183.6 0.16333)"/>
</clipPath>
</defs>
</svg>
