<svg width="326" height="43" viewBox="0 0 326 43" fill="none" xmlns="http://www.w3.org/2000/svg">
<path d="M37.5172 15.2313C42.6785 15.2313 45.192 17.9969 45.192 21.1799C45.192 25.3979 42.7131 26.6459 37.9672 26.6459C36.1804 26.6503 34.8393 26.5111 33.563 26.2328C33.8399 28.7245 35.6613 29.8986 38.7589 29.8986C40.2038 29.8986 42.4405 29.4507 43.8855 28.8288L44.5041 32.9077C42.5789 33.773 40.1692 34.1861 38.2094 34.1861C31.7417 34.1861 28.4018 30.6943 28.4018 24.7761C28.4018 19.5188 31.2918 15.2313 37.5172 15.2313ZM5.71065 15.6531L5.68902 26.8938L10.7637 15.6531H15.7L19.5071 26.8938L22.8253 15.6531H28.4062L22.371 33.773H16.9805L13.2124 23.0498L8.17228 33.773H2.65631C2.65631 33.773 0.562408 33.9556 0.562408 31.5597V15.6531H5.71065ZM37.448 19.0405C35.1811 19.0405 33.8745 20.2494 33.6323 22.4279C34.7311 22.6714 36.1415 22.741 37.0716 22.741C39.7236 22.741 40.5802 22.2583 40.5802 21.0799C40.5802 19.9363 39.6155 19.0405 37.448 19.0405ZM3.13653 8.30854C5.1742 8.30854 6.19519 9.67395 6.19519 11.2698C6.19519 12.7135 5.1742 14.1181 3.13653 14.1181C1.09454 14.1181 0 12.7135 0 11.2698C0 9.6783 1.09454 8.30854 3.13653 8.30854Z" fill="#03A9F4"/>
<g clip-path="url(#clip0_282_4104)">
<path d="M119.992 18.5277C119.992 22.3587 117.169 24.5668 113.04 24.5668H109.823V30.1701H105.963V12.4596H113.011C117.161 12.4596 119.984 14.6926 119.984 18.5277H119.992ZM112.82 21.2879C114.945 21.2879 116.153 20.4868 116.153 18.5236C116.153 16.5562 114.949 15.7344 112.82 15.7344H109.852V21.2879H112.82Z" fill="url(#paint0_linear_282_4104)"/>
<path d="M133.82 23.8612C133.82 27.6465 130.973 30.4399 126.963 30.4399C122.937 30.4399 120.086 27.6258 120.086 23.8653C120.086 20.08 122.933 17.2908 126.963 17.2908C130.973 17.2659 133.82 20.08 133.82 23.8653V23.8612ZM123.61 23.8612C123.61 26.0693 125.033 27.3809 126.963 27.3809C128.848 27.3809 130.296 26.0693 130.296 23.8653C130.296 21.6572 128.873 20.3456 126.963 20.3456C125.054 20.3207 123.61 21.6572 123.61 23.8653V23.8612Z" fill="url(#paint1_linear_282_4104)"/>
<path d="M153.154 17.5316L146.015 35.267H142.346L144.512 29.8796L139.324 17.5523H143.45L146.011 23.8612L146.131 25.5132H146.322L149.414 17.5565H153.154V17.5316Z" fill="url(#paint2_linear_282_4104)"/>
<path d="M172.342 30.1701H168.482V12.4596H172.342V30.1701Z" fill="url(#paint3_linear_282_4104)"/>
<path d="M157.379 12.4596H160.853L167.589 30.195H163.559L162.497 27.1859H155.735L154.698 30.1743H150.643L157.379 12.4596ZM161.339 23.8861L159.454 18.453L159.214 16.5354H159.068L158.828 18.453L156.943 23.8654H161.339V23.8861Z" fill="url(#paint4_linear_282_4104)"/>
<path d="M138.407 30.1701H134.908V11.7083H138.407V30.1701Z" fill="url(#paint5_linear_282_4104)"/>
<path d="M100.052 19.5695L103.36 13.9911L100.027 7.58676L90.1816 7.05133L86.1016 7.10114L81.2246 11.4925L81.3906 14.7673L84.4621 19.8351L92.0161 21.4871L93.3194 22.7738L95.1042 24.0314L98.628 25.4426L99.1344 24.957L98.3126 22.699L98.7276 21.0969L100.056 19.5695H100.052ZM99.5204 18.9884L92.9334 20.5656L94.6435 16.9961L102.081 14.6718L99.5204 18.9884ZM102.368 13.7462L94.4027 16.2449L87.6456 12.2686L90.3974 7.85239L99.5453 8.33801L102.368 13.7462ZM86.3879 7.88145L89.4801 7.85654L86.8487 12.1026L82.1419 14.0658L82.0174 11.8121L86.3921 7.88145H86.3879ZM82.3411 14.8129L87.0728 12.8248L93.8299 16.8052L91.9705 20.6362L84.9186 19.1088L82.337 14.8129H82.3411ZM98.1507 24.3717L95.5649 23.3299L93.8756 22.1678L93.033 21.3377L98.7027 19.9804L98.0801 20.686L97.5447 22.699L98.1507 24.3717Z" fill="url(#paint6_linear_282_4104)"/>
</g>
<g clip-path="url(#clip1_282_4104)">
<mask id="mask0_282_4104" style="mask-type:luminance" maskUnits="userSpaceOnUse" x="125" y="-54" width="272" height="154">
<path d="M125.404 99.0464H396.985V-53.7175H125.404V99.0464Z" fill="white"/>
</mask>
<g mask="url(#mask0_282_4104)">
<path d="M205.913 25.4545H214.393L219.991 17.0434C220.271 16.6221 220.744 16.369 221.25 16.369H229.961L226.954 11.1601C226.463 10.3103 225.474 9.73939 224.493 9.73939H213.127C212.146 9.73939 211.157 10.3103 210.666 11.16L204.983 21.0033C204.493 21.8531 204.493 22.9949 204.983 23.8448L205.913 25.4545Z" fill="#E6085C"/>
<path d="M231.707 19.3935H222.059L216.461 27.8046C216.181 28.226 215.708 28.479 215.202 28.479H207.658L210.665 33.6879C211.156 34.5376 212.145 35.1087 213.126 35.1087H224.492C225.474 35.1087 226.462 34.5376 226.953 33.6879L232.636 23.8446C233.127 22.9949 233.127 21.853 232.636 21.0032L231.707 19.3935Z" fill="#E6085C"/>
<path d="M248.021 21.7601C247.614 21.5433 246.422 21.0555 244.471 20.3239C243.604 20.026 243.17 19.5925 243.17 18.9693C243.17 18.2919 243.848 17.7228 244.85 17.7228C246.07 17.7228 247.208 18.2105 248.237 19.186L250.134 16.7202C248.779 15.3113 247.045 14.6068 244.959 14.6068C243.306 14.6068 241.951 15.0132 240.949 15.853C239.946 16.6933 239.431 17.7498 239.431 19.0504C239.431 20.7846 240.271 22.0582 241.978 22.8709C242.303 23.0336 242.927 23.3045 243.875 23.6566C244.823 24.009 245.392 24.2259 245.636 24.3342C246.341 24.6593 246.693 25.0928 246.693 25.6077C246.693 26.4477 245.826 27.0437 244.661 27.0437C243.17 27.0437 241.626 26.2579 240.569 24.9845L238.537 27.3961C240.027 29.2927 242.06 30.2411 244.634 30.2411C246.395 30.2411 247.831 29.8075 248.888 28.9132C249.971 28.0191 250.514 26.881 250.514 25.4993C250.514 23.8736 249.674 22.6271 248.021 21.7601Z" fill="#24303B"/>
<path d="M261.041 14.688C258.954 14.688 257.166 15.6907 256.38 17.0182V9.74348H252.668V29.8617H256.489V21.9495C256.489 19.755 257.843 18.2105 259.875 18.2105C261.745 18.2105 262.49 19.5111 262.49 21.8686V29.8617H266.31V20.8387C266.31 18.8608 265.741 17.3434 264.63 16.2867C263.519 15.2301 262.639 14.688 261.041 14.688Z" fill="#24303B"/>
<path d="M280.359 16.8557C279.058 15.4197 277.486 14.7151 275.644 14.7151C273.557 14.7151 271.796 15.4468 270.414 16.91C269.032 18.346 268.328 20.1884 268.328 22.4104C268.328 24.6321 269.005 26.5018 270.387 27.992C271.769 29.4823 273.531 30.214 275.644 30.214C277.513 30.214 279.085 29.5365 280.359 28.1547V29.8618H283.989V15.0945H280.359V16.8557ZM279.22 25.4993C278.435 26.3393 277.46 26.7458 276.267 26.7458C275.075 26.7458 274.099 26.3393 273.314 25.4993C272.528 24.6593 272.149 23.6566 272.149 22.4647C272.149 21.2995 272.528 20.2968 273.287 19.457C274.072 18.617 275.048 18.2105 276.267 18.2105C277.46 18.2105 278.435 18.617 279.22 19.457C280.006 20.2968 280.413 21.2995 280.413 22.4647C280.413 23.6566 280.006 24.6593 279.22 25.4993Z" fill="#24303B"/>
<path d="M290.615 17.0725V15.0944H286.957V29.8616H290.778V22.8437C290.778 19.7821 292.079 18.3731 294.247 18.3731C294.789 18.3731 295.385 18.4814 296.008 18.6712L295.993 15.4878C295.397 15.2712 294.801 15.1626 294.205 15.1626C292.389 15.1626 291.509 15.4739 290.615 17.0725Z" fill="#24303B"/>
<path d="M302.023 17.0725V15.0944H298.365V29.8616H302.186V22.8437C302.186 19.7821 303.456 18.3888 305.624 18.3888C306.166 18.3888 306.762 18.497 307.385 18.6869L307.401 15.4878C306.805 15.2712 306.209 15.1626 305.613 15.1626C303.798 15.1626 302.917 15.4739 302.023 17.0725Z" fill="#24303B"/>
<path d="M319.336 15.1706L315.976 24.4922L313.579 15.1706H309.163L314.022 28.8567L314.016 28.856C314.016 28.856 314.227 29.2856 313.942 29.8651L313.89 29.9799C313.158 31.4768 312.21 31.7782 311.017 31.7782C310.591 31.7782 310.118 31.6896 309.623 31.5124C309.515 31.4736 309.404 31.4239 309.294 31.3767C309.002 31.2491 308.606 31.0536 308.483 30.8872L308.471 34.404C309.257 34.8765 310.205 35.1128 311.316 35.1128C314.242 35.1128 316.139 33.8398 317.575 30.19L323.509 15.1706H319.336Z" fill="#24303B"/>
</g>
</g>
<defs>
<linearGradient id="paint0_linear_282_4104" x1="-4888.02" y1="898.607" x2="9527.81" y2="898.607" gradientUnits="userSpaceOnUse">
<stop stop-color="#8955FF"/>
<stop offset="0.37" stop-color="#716BFF"/>
<stop offset="0.45" stop-color="#6E75FC"/>
<stop offset="0.59" stop-color="#688FF3"/>
<stop offset="0.76" stop-color="#5DBAE5"/>
<stop offset="0.97" stop-color="#4EF5D1"/>
<stop offset="1" stop-color="#4BFFCE"/>
</linearGradient>
<linearGradient id="paint1_linear_282_4104" x1="-6286.35" y1="673.516" x2="8129.48" y2="673.516" gradientUnits="userSpaceOnUse">
<stop stop-color="#8955FF"/>
<stop offset="0.37" stop-color="#716BFF"/>
<stop offset="0.45" stop-color="#6E75FC"/>
<stop offset="0.59" stop-color="#688FF3"/>
<stop offset="0.76" stop-color="#5DBAE5"/>
<stop offset="0.97" stop-color="#4EF5D1"/>
<stop offset="1" stop-color="#4BFFCE"/>
</linearGradient>
<linearGradient id="paint2_linear_282_4104" x1="-8190.91" y1="902.851" x2="6224.92" y2="902.851" gradientUnits="userSpaceOnUse">
<stop stop-color="#8955FF"/>
<stop offset="0.37" stop-color="#716BFF"/>
<stop offset="0.45" stop-color="#6E75FC"/>
<stop offset="0.59" stop-color="#688FF3"/>
<stop offset="0.76" stop-color="#5DBAE5"/>
<stop offset="0.97" stop-color="#4EF5D1"/>
<stop offset="1" stop-color="#4BFFCE"/>
</linearGradient>
<linearGradient id="paint3_linear_282_4104" x1="-11077.6" y1="898.608" x2="3338.29" y2="898.608" gradientUnits="userSpaceOnUse">
<stop stop-color="#8955FF"/>
<stop offset="0.37" stop-color="#716BFF"/>
<stop offset="0.45" stop-color="#6E75FC"/>
<stop offset="0.59" stop-color="#688FF3"/>
<stop offset="0.76" stop-color="#5DBAE5"/>
<stop offset="0.97" stop-color="#4EF5D1"/>
<stop offset="1" stop-color="#4BFFCE"/>
</linearGradient>
<linearGradient id="paint4_linear_282_4104" x1="-9311.45" y1="898.612" x2="5104.38" y2="898.612" gradientUnits="userSpaceOnUse">
<stop stop-color="#8955FF"/>
<stop offset="0.37" stop-color="#716BFF"/>
<stop offset="0.45" stop-color="#6E75FC"/>
<stop offset="0.59" stop-color="#688FF3"/>
<stop offset="0.76" stop-color="#5DBAE5"/>
<stop offset="0.97" stop-color="#4EF5D1"/>
<stop offset="1" stop-color="#4BFFCE"/>
</linearGradient>
<linearGradient id="paint5_linear_282_4104" x1="-7753.71" y1="934.798" x2="6662.13" y2="934.798" gradientUnits="userSpaceOnUse">
<stop stop-color="#8955FF"/>
<stop offset="0.37" stop-color="#716BFF"/>
<stop offset="0.45" stop-color="#6E75FC"/>
<stop offset="0.59" stop-color="#688FF3"/>
<stop offset="0.76" stop-color="#5DBAE5"/>
<stop offset="0.97" stop-color="#4EF5D1"/>
<stop offset="1" stop-color="#4BFFCE"/>
</linearGradient>
<linearGradient id="paint6_linear_282_4104" x1="-2439.01" y1="925.584" x2="11976.8" y2="925.584" gradientUnits="userSpaceOnUse">
<stop stop-color="#8955FF"/>
<stop offset="0.37" stop-color="#716BFF"/>
<stop offset="0.45" stop-color="#6E75FC"/>
<stop offset="0.59" stop-color="#688FF3"/>
<stop offset="0.76" stop-color="#5DBAE5"/>
<stop offset="0.97" stop-color="#4EF5D1"/>
<stop offset="1" stop-color="#4BFFCE"/>
</linearGradient>
<clipPath id="clip0_282_4104">
<rect width="91.313" height="28.224" fill="white" transform="translate(81.2246 7.05133)"/>
</clipPath>
<clipPath id="clip1_282_4104">
<rect width="121.128" height="25.8502" fill="white" transform="translate(204.615 9.73933)"/>
</clipPath>
</defs>
</svg>
