<svg xmlns="http://www.w3.org/2000/svg" width="32" height="32" viewBox="0 0 32 32">
  <g fill="none">
    <path fill="#000" fill-opacity=".01" d="M16,32 C17.2849092,32 18.5344428,31.8485391 19.731721,31.5624969 C26.7683444,29.881375 32,23.5516468 32,16 C32,7.163444 24.836556,0 16,0 C7.163444,0 0,7.163444 0,16 C0,24.836556 7.163444,32 16,32 Z"/>
    <path fill="#FFF" d="M16.0196744,0.5 L16.019,0.501 L16.3297242,0.5055644 C19.2335861,0.598125099 21.9366392,1.84097041 23.989294,3.89789448 C25.9759747,5.88870726 27.1643679,8.47308345 27.1941354,10.9022272 L27.1947083,10.9955777 L27.195473,13.5443822 C29.0224273,13.7148172 30.5,15.1757054 30.5,16.659183 L30.5,20.5362679 L30.4797745,20.59336 C29.8694978,22.3160369 28.7236385,23.2462706 27.0909868,23.3315294 C26.5498928,26.990657 23.868212,29.3519027 18.8512725,30.1721694 L18.8527815,30.2050633 C18.8527815,30.8755387 18.3418192,31.4270007 17.6870389,31.4933144 L17.5542741,31.5 L14.2489824,31.5 C13.5318365,31.5 12.9504749,30.9202371 12.9504749,30.2050633 C12.9504749,29.5345879 13.4614372,28.9831259 14.1162175,28.9168122 L14.2489824,28.9101266 L17.5542741,28.9101266 C18.0062959,28.9101266 18.4043724,29.1404585 18.6369257,29.4898512 L18.3012182,29.5414732 C23.8741915,28.7533328 26.4350052,26.1655762 26.4856642,21.998854 L26.4854749,11.879 L24.3470853,11.8797468 L24.323452,11.5519058 C24.1155306,8.66762553 22.9303712,6.53168334 21.0265467,5.11854722 C19.5429839,4.01735527 17.6740726,3.42593378 16.0707895,3.40440692 L16,3.403 L15.9292105,3.40440692 C14.4261326,3.42458835 12.6895924,3.94565374 11.2559782,4.91806228 L10.9734533,5.11854722 C9.06962884,6.53168334 7.88446942,8.66762553 7.67654803,11.5519058 L7.67654803,11.5519058 L7.65291469,11.8797468 L5.51367436,11.879 L5.51356852,23.3379747 L5.15943012,23.3379747 C3.39315796,23.3379747 2.16124277,22.4028108 1.52022552,20.59336 L1.52022552,20.59336 L1.5,20.5362679 L1.5,16.659183 C1.5,15.1757054 2.97757266,13.7148172 4.80452703,13.5443822 L4.80452703,13.5443822 L4.80529172,10.9955777 L4.80586456,10.9022272 C4.83563213,8.47308345 6.02402531,5.88870726 8.010706,3.89789448 C10.145467,1.75869345 12.9836987,0.5 16.0196744,0.5 L15.98,0.501 L15.9803256,0.5 L16.0196744,0.5 Z M17.5542741,29.6164557 L14.2489824,29.6164557 C13.923007,29.6164557 13.6587517,29.8799843 13.6587517,30.2050633 C13.6587517,30.4976344 13.8727985,30.7403497 14.1532439,30.785967 L14.2489824,30.7936709 L17.5542741,30.7936709 C17.8802495,30.7936709 18.1445047,30.5301423 18.1445047,30.2050633 C18.1445047,29.8799843 17.8802495,29.6164557 17.5542741,29.6164557 Z M27.1947083,14.2544253 L27.1947083,22.6159494 L27.2255994,22.6133131 C28.4278565,22.4950232 29.2602999,21.8028617 29.7613017,20.4955141 L29.7917232,20.414243 L29.7917232,16.659183 C29.7917232,15.5772493 28.6545952,14.4346048 27.2226599,14.2577352 L27.1947083,14.2544253 Z M4.80529172,14.2544253 L4.77734006,14.2577352 C3.34540483,14.4346048 2.2082768,15.5772493 2.2082768,16.659183 L2.2082768,16.659183 L2.2082768,20.414243 L2.23869831,20.4955141 C2.73970009,21.8028617 3.5721435,22.4950232 4.77440063,22.6133131 L4.77440063,22.6133131 L4.80529172,22.6159494 L4.80529172,14.2544253 Z M16.0196744,2.69746835 L16.019,2.698 L16.2957365,2.70408793 C17.9923925,2.77462915 19.9081224,3.40787842 21.4494403,4.55193978 C23.4215047,6.01572777 24.6855036,8.19653214 24.9919278,11.075036 L25.0018833,11.1734177 L26.4854749,11.173 L26.4864315,10.9955777 C26.4864315,8.73551252 25.3728931,6.28569337 23.4872583,4.39613661 C21.505457,2.41021343 18.885259,1.23487535 16.0829303,1.20684222 L15.9170697,1.20684222 C13.114741,1.23487535 10.494543,2.41021343 8.51274172,4.39613661 C6.62710688,6.28569337 5.51356852,8.73551252 5.51356852,10.9955777 L5.51356852,10.9955777 L5.51356852,11.173 L6.99811669,11.1734177 L7.00807225,11.075036 C7.31449644,8.19653214 8.57849527,6.01572777 10.5505597,4.55193978 C12.18821,3.33637458 14.2485362,2.69746835 16.0196744,2.69746835 L15.98,2.698 L15.9803256,2.69746835 L16.0196744,2.69746835 Z"/>
  </g>
</svg>
