<svg width="80" height="80" fill="none" xmlns="http://www.w3.org/2000/svg"><path d="M42.4659 33.5212c.4806 0 .8926.1373 1.3732.412l21.2167 12.0159c.3433.206.6866.412.8926.6866.206.2747.3433.618.3433.9613 0 .4806-.2746.8239-.5493 1.0986-.3433.2746-.6866.412-1.1673.5493l-3.1584.8239c-.4807.1374-1.0986.3433-1.6479.6867l6.3169 7.0722c.5493.6866.824 1.4419.7553 2.4032 0 .9612-.412 1.8538-1.1673 2.5405-.6179.6179-1.4419.8926-2.2658.8926-.8926 0-1.8539-.412-2.5405-1.1673l-6.111-6.7976c-.4806.6867-.9612 1.4419-1.3045 1.9912l-2.1972 3.8451c-.206.412-.412.6867-.6867.8926-.2746.206-.6179.3434-.9612.3434-.4807 0-.824-.2747-1.0986-.5493-.2747-.3434-.412-.6867-.5493-1.1673l-6.7976-25.0617c-.0687-.3434-.1373-.618-.1373-.8927 0-.4119.0686-.7552.3433-1.0986.2746-.3433.6866-.4806 1.0986-.4806Zm.0686 1.2359h-.0686v.2747c0 .1373 0 .3433.0686.6179l6.7976 25.0618c.0687.2746.1373.412.206.5493l.1373.1373.1374-.0687c.1373-.0686.2746-.2059.4119-.4806l2.1972-3.8451c.4807-.8239 1.1673-1.8539 1.8539-2.8151.0687-.1374.2747-.2747.4806-.2747.206 0 .412.0687.5493.206l6.6603 7.4155c.412.4807 1.0299.6867 1.5792.6867.4806 0 .9613-.206 1.3733-.5493.4119-.412.6866-1.03.6866-1.5793 0-.4806-.206-.9612-.5493-1.3732l-6.8662-7.6902c-.1374-.1373-.1374-.3433-.1374-.5493 0-.206.1374-.3433.2747-.4806.8926-.5493 1.7852-1.03 2.6778-1.236l3.1585-.8239c.2746-.0687.4119-.1373.5493-.206l.1373-.1373-.0687-.1373c-.0686-.1374-.206-.2747-.4806-.412L43.2212 35.0318c-.3433-.206-.618-.2747-.6867-.2747Zm-5.7676 2.1972c.3433-.0686.6866.206.7553.5493.0687.3433-.206.6866-.5493.7553l-3.9824.6866c-.3433.0687-.6866-.206-.7553-.5493-.0687-.3433.206-.6866.5493-.7553l3.9824-.6866Zm9.956-10.574c.1374-.3433.5493-.5493.8927-.3433.3433.1373.4806.5493.3433.8926l-1.5106 3.7765c-.1373.3433-.5493.4806-.8926.3433-.3433-.1374-.4806-.5493-.3433-.8926l1.5105-3.7765Zm-10.9173.3433c.2747-.2746.7553-.2059.9613.0687l2.5405 3.1585c.2747.2746.206.7553-.0686.9612-.2747.2747-.6867.206-.9613-.0686l-2.5405-3.1585c-.2747-.2746-.206-.7553.0686-.9613Z" fill="#ED26B7"/><path d="m63.0636 11.0686-.0002 30.1515c-.0028.0798-.0456.6779-.6864.6779-.6866 0-.6866-.6866-.6866-.6866l-.0687-20.5301H20.699c-1.2359 0-2.3345-.0686-3.4331-.6866-.3434-.206-.618-.4806-.8927-.7553l-.0001.1265c-.0001.0265-.0001.057-.0002.0915l-.0006.4153c-.0001.0575-.0002.1187-.0003.1836l-.0007.432c-.0001.079-.0002.1615-.0004.2474l-.0008.5547c-.0055 3.4639-.0171 10.8421-.0291 18.4518l-.0021 1.3061c-.0134 8.4954-.0268 17.0169-.032 20.4693l-.0007.4904c-.0002.0749-.0003.1462-.0004.214l-.0007.5105c-.0001.0454-.0001.087-.0002.1246l-.0003.2575c0 2.8152 1.6479 4.2571 4.875 4.2571h40.5108v-1.2359s.0686-.5493.6866-.5493.6866.5493.6866.5493v2.6091h-41.884c-3.9824 0-6.1796-2.0598-6.1796-5.287V15.875c0-2.7465 2.2659-4.8064 4.9437-4.8064h43.1199Zm-1.3732 1.3732H20.1497c-1.9912 0-3.7765 1.3046-3.7765 3.4332l.0006.2345c.0022.1472.0132.356.0681.5208.3433 1.6478 1.8539 2.6778 3.5704 2.6778h41.6781v-6.8663Z" fill="#1B127D"/></svg>