<?xml version="1.0" encoding="UTF-8"?>
<svg width="60px" height="60px" viewBox="0 0 60 60" version="1.1" xmlns="http://www.w3.org/2000/svg" xmlns:xlink="http://www.w3.org/1999/xlink">
    <title>icon-support-c</title>
    <defs>
        <linearGradient x1="6.65873959%" y1="0%" x2="93.3412604%" y2="100%" id="linearGradient-1">
            <stop stop-color="#1B127D" offset="0%"></stop>
            <stop stop-color="#1B127D" offset="0%"></stop>
        </linearGradient>
    </defs>
    <g id="icon-support-c" stroke="none" stroke-width="1" fill="none" fill-rule="evenodd">
        <path d="M30.036635,1 L30.0362951,1.00089231 L30.3665258,1.00399551 C35.8674843,1.11307556 40.9961888,3.45026951 44.8766164,7.35735097 C48.5759529,11.0820974 50.7888229,15.9173819 50.8442522,20.4622316 L50.8453188,20.6368873 L50.8458224,25.4055321 C54.2481615,25.7240038 57,28.4575211 57,31.2333101 L57,38.4872108 L56.9623387,38.5940285 C55.8262177,41.8163745 53.6932544,43.5567538 50.6542385,43.7169469 C49.6452288,50.5623026 44.6522175,54.9804049 35.3108218,56.5154163 L35.312076,56.5772152 C35.312076,57.8657242 34.3082435,58.919303 33.0414579,58.9955783 L32.8941655,59 L26.7394844,59 C25.4041093,59 24.321574,57.9152823 24.321574,56.5772152 C24.321574,55.2887062 25.3254065,54.2351273 26.592192,54.158852 L26.7394844,54.1544304 L32.8941655,54.1544304 C33.736456,54.1544304 34.4781547,54.5859832 34.9110549,55.2404624 C44.8545384,53.6626799 49.4326201,48.8607271 49.5250298,41.2236624 L49.5264586,40.986522 L49.5262953,22.2904615 L45.5428485,22.2911392 L45.4988416,21.6777592 C45.1116776,16.2813639 42.9048291,12.285085 39.3597765,9.64115286 C36.5972803,7.58085826 33.1172386,6.47432772 30.1318149,6.43405166 L30,6.43236923 L29.8681851,6.43405166 C27.0021784,6.47271668 23.6803317,7.49404182 20.9750897,9.39850278 L20.6402235,9.64115286 C17.0951709,12.285085 14.8883224,16.2813639 14.5011584,21.6777592 L14.4571515,22.2911392 L10.4735858,22.2904615 L10.4735414,43.7291139 L9.81411126,43.7291139 C6.52519069,43.7291139 4.23127964,41.9794525 3.03766131,38.5940285 L3,38.4872108 L3,31.2333101 C3,28.457281 5.75231457,25.7235308 9.15506058,25.4054494 L9.15468114,20.6368873 L9.15574779,20.4622316 C9.21117708,15.9173819 11.4240471,11.0820974 15.1233836,7.35735097 C19.0984557,3.35497484 24.383439,1 30.036635,1 L29.9628197,1.00089231 L29.963365,1 L30.036635,1 Z M32.8941655,55.4759494 L26.7394844,55.4759494 C26.1324957,55.4759494 25.6404342,55.9690029 25.6404342,56.5772152 C25.6404342,57.1474142 26.0729102,57.6163995 26.6271129,57.6727953 L26.7394844,57.678481 L32.8941655,57.678481 C33.5011542,57.678481 33.9932157,57.1854275 33.9932157,56.5772152 C33.9932157,55.9690029 33.5011542,55.4759494 32.8941655,55.4759494 Z M50.8453188,26.7340861 L50.8453188,42.3782278 L50.9028403,42.3732955 C53.1415259,42.1519789 54.691593,40.8569672 55.6244928,38.4109618 L55.6811398,38.2589063 L55.6811398,31.2333101 C55.6811398,29.209047 53.5637289,27.0711961 50.8973668,26.7402787 L50.8453188,26.7340861 L50.8453188,26.7340861 Z M9.15468114,26.7340861 L9.10263322,26.7402787 C6.43627106,27.0711961 4.31886024,29.209047 4.31886024,31.2333101 L4.31886024,38.2589063 L4.3755072,38.4109618 C5.30840706,40.8569672 6.85847409,42.1519789 9.09715979,42.3732955 L9.15468114,42.3782278 L9.15468114,26.7340861 Z M30,2.32150769 L29.8455781,2.322479 C24.6274488,2.37492807 19.7484593,4.5739477 16.0582087,8.28954593 C12.5470266,11.8248457 10.4735414,16.4083782 10.4735414,20.6368873 L10.4735414,20.9689538 L13.2378725,20.9696202 L13.2564104,20.7855512 C13.8269934,15.3999634 16.1806464,11.3197488 19.8527663,8.58104862 C22.9021841,6.30676535 26.7386537,5.11139241 30.036635,5.11139241 L29.9628197,5.11175385 L29.963365,5.11139241 L30,5.11175385 L30.036635,5.11139241 L30.0362951,5.11175385 L30.3187203,5.11596123 C33.534376,5.19815235 37.2067237,6.38798975 40.1472337,8.58104862 C43.8193536,11.3197488 46.1730066,15.3999634 46.7435896,20.7855512 L46.7621275,20.9696202 L49.5264586,20.9689538 L49.5264586,20.6368873 C49.5264586,16.4083782 47.4529734,11.8248457 43.9417913,8.28954593 C40.2515407,4.5739477 35.3725512,2.37492807 30.1544219,2.322479 L30,2.32150769 Z" id="support" fill="url(#linearGradient-1)"></path>
    </g>
</svg>