<svg width="55" height="66" xmlns="http://www.w3.org/2000/svg"><path d="M53.9933078 63.5334594v1.5H.1043188v-1.5h53.888989zM15.8933081 23.9846558v1.575h-3.363v31.992l3.363.0001875v1.575H.19330805v-1.575l3.412-.0001875v-31.992h-3.412v-1.575H15.8933081zm18.85 0v1.575h-3.363v31.992l3.363.0001875v1.575h-15.7v-1.575l3.412-.0001875v-31.992h-3.412v-1.575h15.7zm19 0v1.575h-3.363v31.992l3.363.0001875v1.575h-15.7v-1.575l3.412-.0001875v-31.992h-3.412v-1.575h15.7zm-42.788 1.575H5.18030805v31.992h5.77500005v-31.992zm18.85 0h-5.775v31.992h5.775v-31.992zm19 0h-5.775v31.992h5.775v-31.992zM26.3012625.249323c.5107777-.33372482 1.1659934-.33232248 1.6753895.00358577L53.3286262 16.9706212c1.2933517.8528677.7003366 2.8970912-.8404261 2.8970912H1.5491732c-1.54414146 0-2.13466668-2.0514949-.83496329-2.900677zM27.1362258 1.575L1.5491732 18.2927124h50.9390269L27.1362258 1.57500001z" fill="#FFF" fill-rule="evenodd"/></svg>