<?xml version="1.0" encoding="UTF-8"?>
<svg width="60px" height="60px" viewBox="0 0 60 60" version="1.1" xmlns="http://www.w3.org/2000/svg" xmlns:xlink="http://www.w3.org/1999/xlink">
    <title>icon-university-c</title>
    <defs>
        <linearGradient x1="15.7550536%" y1="0%" x2="84.2449464%" y2="100%" id="linearGradient-1">
            <stop stop-color="#1B127D" offset="0%"></stop>
            <stop stop-color="#1B127D" offset="0%"></stop>
        </linearGradient>
    </defs>
    <g id="icon-university-c" stroke="none" stroke-width="1" fill="none" fill-rule="evenodd">
        <path d="M53.9608447,57.6622271 L53.9608447,59 L6.09266366,59 L6.09266366,57.6622271 L53.9608447,57.6622271 L53.9608447,57.6622271 Z M20.1176103,22.3906818 L20.1176103,23.7953434 L17.1303453,23.7953434 L17.1303453,52.3273639 L20.1176103,52.3275311 L20.1176103,53.7321927 L6.17171049,53.7321927 L6.17171049,52.3275311 L9.20250095,52.3273639 L9.20250095,23.7953434 L6.17171049,23.7953434 L6.17171049,22.3906818 L20.1176103,22.3906818 L20.1176103,22.3906818 Z M36.8615729,22.3906818 L36.8615729,23.7953434 L33.8743078,23.7953434 L33.8743078,52.3273639 L36.8615729,52.3275311 L36.8615729,53.7321927 L22.915673,53.7321927 L22.915673,52.3275311 L25.9464635,52.3273639 L25.9464635,23.7953434 L22.915673,23.7953434 L22.915673,22.3906818 L36.8615729,22.3906818 Z M53.7387765,22.3906818 L53.7387765,23.7953434 L50.7515114,23.7953434 L50.7515114,52.3273639 L53.7387765,52.3275311 L53.7387765,53.7321927 L39.7928766,53.7321927 L39.7928766,52.3275311 L42.8236671,52.3273639 L42.8236671,23.7953434 L39.7928766,23.7953434 L39.7928766,22.3906818 L53.7387765,22.3906818 Z M15.7313139,23.7953434 L10.6015323,23.7953434 L10.6015323,52.3273639 L15.7313139,52.3273639 L15.7313139,23.7953434 L15.7313139,23.7953434 Z M32.4752765,23.7953434 L27.3454948,23.7953434 L27.3454948,52.3273639 L32.4752765,52.3273639 L32.4752765,23.7953434 Z M49.3524801,23.7953434 L44.2226985,23.7953434 L44.2226985,52.3273639 L49.3524801,52.3273639 L49.3524801,23.7953434 Z M29.3627244,1.22235837 C29.8164349,0.92472636 30.3984458,0.925977026 30.850929,1.22555633 L53.3704255,16.1352248 C54.5192759,16.8958537 53.9925161,18.7189916 52.6238968,18.7189916 L7.37609008,18.7189916 C6.00446957,18.7189916 5.47992144,16.8893687 6.63441401,16.1320268 L29.3627244,1.22235837 Z M30.1044005,2.40466156 L7.37609008,17.31433 L52.6238968,17.31433 L30.1044005,2.40466156 Z" id="university" fill="url(#linearGradient-1)"></path>
    </g>
</svg>