<svg xmlns="http://www.w3.org/2000/svg" width="32" height="32" viewBox="0 0 32 32">
  <g fill="none">
    <path fill="#000" fill-opacity=".01" d="M16,32 C17.2849092,32 18.5344428,31.8485391 19.731721,31.5624969 C26.7683444,29.881375 32,23.5516468 32,16 C32,7.163444 24.836556,0 16,0 C7.163444,0 0,7.163444 0,16 C0,24.836556 7.163444,32 16,32 Z"/>
    <path fill="#FFF" d="M29.25,0.0375 L29.25,16.5 C29.25,16.5 29.25,16.875 28.875,16.875 C28.5,16.875 28.5,16.5 28.5,16.5 L28.5,16.5 L28.4625,5.2875 L28.4625,5.2875 L6.1125,5.2875 C5.4375,5.2875 4.8375,5.25 4.2375,4.9125 C4.05,4.8 3.9,4.65 3.75,4.5 C3.75,4.57063953 3.71673371,25.5325108 3.71286553,28.1890244 L3.7125,28.4625 C3.7125,30 4.6125,30.7875 6.375,30.7875 L6.375,30.7875 L28.5,30.7875 L28.5,30.1125 C28.5,30.1125 28.5375,29.8125 28.875,29.8125 C29.2125,29.8125 29.25,30.1125 29.25,30.1125 L29.25,30.1125 L29.25,31.5375 L29.25,31.5375 L6.375,31.5375 C4.2,31.5375 3,30.4125 3,28.65 L3,28.65 L3,2.6625 L3,2.6625 L3.00543426,2.49112995 C3.09552515,1.07762574 4.29375,0.0375 5.7,0.0375 L5.7,0.0375 L29.25,0.0375 Z M18,12.3 C18.2625,12.3 18.4875,12.375 18.75,12.525 L18.75,12.525 L30.3375,19.0875 C30.525,19.2 30.7125,19.3125 30.825,19.4625 C30.9375,19.6125 31.0125,19.8 31.0125,19.9875 C31.0125,20.25 30.8625,20.4375 30.7125,20.5875 C30.525,20.7375 30.3375,20.8125 30.075,20.8875 L30.075,20.8875 L28.35,21.3375 C28.0875,21.4125 27.75,21.525 27.45,21.7125 L27.45,21.7125 L30.9,25.575 L31.0053955,25.7175293 C31.2345703,26.0548828 31.3453125,26.428125 31.3125,26.8875 C31.3125,27.4125 31.0875,27.9 30.675,28.275 C30.3375,28.6125 29.8875,28.7625 29.4375,28.7625 C28.95,28.7625 28.425,28.5375 28.05,28.125 L28.05,28.125 L24.7125,24.4125 C24.45,24.7875 24.1875,25.2 24,25.5 L24,25.5 L22.8,27.6 C22.6875,27.825 22.575,27.975 22.425,28.0875 C22.275,28.2 22.0875,28.275 21.9,28.275 C21.6375,28.275 21.45,28.125 21.3,27.975 C21.15,27.7875 21.075,27.6 21,27.3375 L21,27.3375 L17.2875,13.65 L17.2599609,13.5158203 C17.2335938,13.3875 17.2125,13.275 17.2125,13.1625 C17.2125,12.9375 17.25,12.75 17.4,12.5625 C17.55,12.375 17.775,12.3 18,12.3 Z M18.0375,12.975 L18,12.975 L18.0005859,13.1882813 C18.0023438,13.2585938 18.009375,13.35 18.0375,13.4625 L18.0375,13.4625 L21.75,27.15 L21.778125,27.2496094 C21.80625,27.3375 21.834375,27.39375 21.8625,27.45 L21.8625,27.45 L21.9375,27.525 L22.0125,27.4875 C22.0875,27.45 22.1625,27.375 22.2375,27.225 L22.2375,27.225 L23.4375,25.125 L23.5776042,24.8913194 C23.825,24.4885417 24.1375,24.025 24.45,23.5875 C24.4875,23.5125 24.6,23.4375 24.7125,23.4375 C24.825,23.4375 24.9375,23.475 25.0125,23.55 L25.0125,23.55 L28.65,27.6 C28.875,27.8625 29.2125,27.975 29.5125,27.975 C29.775,27.975 30.0375,27.8625 30.2625,27.675 C30.4875,27.45 30.6375,27.1125 30.6375,26.8125 C30.6375,26.55 30.525,26.2875 30.3375,26.0625 L30.3375,26.0625 L26.5875,21.8625 C26.5125,21.7875 26.5125,21.675 26.5125,21.5625 C26.5125,21.45 26.5875,21.375 26.6625,21.3 C27.15,21 27.6375,20.7375 28.125,20.625 L28.125,20.625 L29.85,20.175 C30,20.1375 30.075,20.1 30.15,20.0625 C30.1875,20.025 30.225,19.9875 30.225,19.9875 L30.225,19.9875 L30.1875,19.9125 C30.15,19.8375 30.075,19.7625 29.925,19.6875 L29.925,19.6875 L18.4125,13.125 C18.225,13.0125 18.075,12.975 18.0375,12.975 L18.0375,12.975 Z M14.8875,14.175 C15.075,14.1375 15.2625,14.2875 15.3,14.475 C15.3375,14.6625 15.1875,14.85 15,14.8875 L15,14.8875 L12.825,15.2625 C12.6375,15.3 12.45,15.15 12.4125,14.9625 C12.375,14.775 12.525,14.5875 12.7125,14.55 L12.7125,14.55 L14.8875,14.175 Z M20.325,8.4 C20.4,8.2125 20.625,8.1 20.8125,8.2125 C21,8.2875 21.075,8.5125 21,8.7 L21,8.7 L20.175,10.7625 C20.1,10.95 19.875,11.025 19.6875,10.95 C19.5,10.875 19.425,10.65 19.5,10.4625 L19.5,10.4625 L20.325,8.4 Z M14.3625,8.5875 C14.5125,8.4375 14.775,8.475 14.8875,8.625 L14.8875,8.625 L16.275,10.35 C16.425,10.5 16.3875,10.7625 16.2375,10.875 C16.0875,11.025 15.8625,10.9875 15.7125,10.8375 L15.7125,10.8375 L14.325,9.1125 C14.175,8.9625 14.2125,8.7 14.3625,8.5875 Z M28.5,0.7875 L5.8125,0.7875 C4.725,0.7875 3.75,1.5 3.75,2.6625 L3.75,2.6625 L3.75,2.7375 C3.75,2.8125 3.75,2.9625 3.7875,3.075 C3.975,3.975 4.8,4.5375 5.7375,4.5375 L5.7375,4.5375 L28.5,4.5375 L28.5,0.7875 L28.5,0.7875 Z"/>
  </g>
</svg>
