<svg width="74" height="66" fill="none" xmlns="http://www.w3.org/2000/svg"><path fill-rule="evenodd" clip-rule="evenodd" d="m23.8911 16.0811.7801 1.3969c-7.3108 4.0831-12.1295 11.5738-12.7242 20.0257l-.027.438-1.5977-.0844c.4775-9.0331 5.4874-17.0885 13.1818-21.5559l.387-.2203Zm27.0591 43.7978.9021 1.3214c-4.4213 3.0184-9.5981 4.6593-15.0111 4.6593-5.2657 0-10.2792-1.5168-14.5363-4.3261l-.4377-.2952.9081-1.3174c4.0832 2.8147 8.9441 4.3387 14.0659 4.3387 4.9115 0 9.6145-1.437 13.6762-4.0916l.4328-.2891Zm12.3846-22.3513c-.589-9.0546-5.7356-17.0858-13.5434-21.4465l-.7802 1.3969.3771.2149c7.2466 4.2137 11.9639 11.8293 12.3739 20.365l1.5982-.0768-.0256-.4535Z" fill="#ED26B7"/><path fill-rule="evenodd" clip-rule="evenodd" d="M36.8406.139648c-7.5773 0-13.72 6.142652-13.72 13.719952 0 7.5774 6.1427 13.72 13.72 13.72 7.5774 0 13.72-6.1426 13.72-13.72 0-7.5773-6.1426-13.719952-13.72-13.719952Zm0 1.600002c6.6937 0 12.12 5.42631 12.12 12.11995 0 6.6937-5.4263 12.12-12.12 12.12-6.6937 0-12.12-5.4263-12.12-12.12 0-6.69364 5.4263-12.11995 12.12-12.11995Zm-22.48 34.92005c-7.57732 0-13.719975 6.1426-13.719975 13.72 0 7.5773 6.142655 13.72 13.719975 13.72 7.5774 0 13.72-6.1427 13.72-13.72 0-7.5774-6.1426-13.72-13.72-13.72Zm0 1.6c6.6937 0 12.12 5.4263 12.12 12.12 0 6.6936-5.4263 12.12-12.12 12.12-6.69367 0-12.11997-5.4264-12.11997-12.12 0-6.6937 5.4263-12.12 12.11997-12.12Zm31.5598 12.3202c0-7.5774 6.1427-13.72 13.72-13.72 7.5774 0 13.72 6.1426 13.72 13.72 0 7.5773-6.1426 13.72-13.72 13.72-7.5773 0-13.72-6.1427-13.72-13.72Zm25.84 0c0-6.6937-5.4263-12.12-12.12-12.12-6.6937 0-12.12 5.4263-12.12 12.12 0 6.6937 5.4263 12.12 12.12 12.12 6.6937 0 12.12-5.4263 12.12-12.12Z" fill="#1B127D"/></svg>