<svg width="73" height="66" xmlns="http://www.w3.org/2000/svg"><g fill="none" fill-rule="evenodd"><path d="M36.44.2c7.5773468 0 13.72 6.14265323 13.72 13.72 0 .8645248-.0799607 1.7103737-.2328899 2.5305547 7.4585773 4.3953758 12.3683906 12.1925369 12.9948562 20.9693434C68.7110877 39.0283969 72.96 44.3380051 72.96 50.64c0 7.5773468-6.1426532 13.72-13.72 13.72-3.1081618 0-5.9749265-1.0335438-8.2753623-2.7756998C46.652111 64.3965315 41.6557294 65.92 36.44 65.92c-5.2555001 0-10.2597145-1.5109204-14.5115009-4.3097233C19.682316 63.2153617 16.931474 64.16 13.96 64.16 6.38265323 64.16.24 58.0173468.24 50.44c0-6.1861431 4.09412973-11.416051 9.72061327-13.1279477.65922593-8.727781 5.55442863-16.4789691 12.99262663-20.8625503C22.7998956 15.6296852 22.72 14.7841729 22.72 13.92 22.72 6.34265323 28.8626532.2 36.44.2zm13.0811023 17.8728937l-.0056721.0151637C47.751146 23.6275069 42.564157 27.64 36.44 27.64c-6.1296587 0-11.3204648-4.0197057-13.0801768-9.5668757-6.6192598 4.0708532-11.0074411 11.0157343-11.760625 18.850334C12.3671103 36.7892481 13.1554683 36.72 13.96 36.72c7.5773468 0 13.72 6.1426532 13.72 13.72 0 4.0006785-1.712336 7.6014195-4.4440893 10.1093044C27.1336213 63.0002966 31.6738341 64.32 36.44 64.32c4.7436583 0 9.2928594-1.3405275 13.2576821-3.8238315C47.121073 58.0030873 45.52 54.508519 45.52 50.64c0-7.5773468 6.1426532-13.72 13.72-13.72.6958011 0 1.3795047.0517955 2.0474656.1517411-.7090882-7.8986888-5.1148479-14.9063159-11.7663633-18.9988474zM59.24 38.52c-6.6936912 0-12.12 5.4263088-12.12 12.12 0 6.6936912 5.4263088 12.12 12.12 12.12 6.6936912 0 12.12-5.4263088 12.12-12.12 0-6.6936912-5.4263088-12.12-12.12-12.12zm-45.28-.2c-6.69369117 0-12.12 5.4263088-12.12 12.12 0 6.6936912 5.42630883 12.12 12.12 12.12 6.6936912 0 12.12-5.4263088 12.12-12.12 0-6.6936912-5.4263088-12.12-12.12-12.12zM36.44 1.8c-6.6936912 0-12.12 5.42630883-12.12 12.12 0 6.6936912 5.4263088 12.12 12.12 12.12 6.6936912 0 12.12-5.4263088 12.12-12.12 0-6.69369117-5.4263088-12.12-12.12-12.12z" fill="#FFF"/></g></svg>