<?xml version="1.0" encoding="UTF-8"?>
<svg width="24px" height="24px" viewBox="0 0 24 24" version="1.1" xmlns="http://www.w3.org/2000/svg" xmlns:xlink="http://www.w3.org/1999/xlink">
    <title>navicon-gettingstarted</title>
    <g id="navicon-gettingstarted" stroke="none" stroke-width="1" fill="none" fill-rule="evenodd">
        <path d="M22.1573546,1.87558821 L22.5503751,1.90446618 L23.0145175,1.94959939 L23.1468357,2.12954266 L23.0897397,2.40309685 C22.073921,7.27001011 20.0825944,10.9924722 17.1141992,13.5608924 L16.802,13.823 L16.8029773,19.0832361 L16.754234,19.1939026 L12.2222279,23.3405593 L12.222,17.553 L10.384,15.456 L5.02185843,20.2152638 L4.81028506,20.2028204 L4.47569976,19.827108 L4.488168,19.6151474 L10.343546,14.4199917 L10.5558933,14.4333155 L12.9886413,17.2084575 L13.0258455,17.3073368 L13.025,21.516 L15.999,18.796 L15.9993597,13.5108264 L16.0557612,13.3936115 L16.1502663,13.3181472 C19.0212049,11.0256435 21.0006426,7.65270633 22.0882744,3.18989282 L22.206,2.683 L21.9212429,2.6669105 C18.4189388,2.50612433 15.067113,3.71411058 11.8531197,6.30014224 L11.5092901,6.58249061 L11.1665119,6.87538779 L10.9304072,7.0835498 L10.8312065,7.12103495 L5.225,7.12 L2.577,9.523 L6.45961052,9.78213061 L6.56243458,9.83291958 L9.0077392,12.6223856 L8.98854185,12.8384797 L5.63543631,15.5160036 L5.42479217,15.4925988 L5.11018477,15.1000667 L5.13362489,14.8890475 L7.952,12.637 L6.135,10.565 L0.637674212,10.1991919 L4.8716235,6.35726476 L4.97242028,6.31834868 L10.583,6.318 L10.6337903,6.27438974 C14.2711853,3.10423759 18.1181251,1.63386896 22.1573546,1.87558821 Z M17.5,4.85 C18.4112698,4.85 19.15,5.58873016 19.15,6.5 C19.15,7.41126984 18.4112698,8.15 17.5,8.15 C16.5887302,8.15 15.85,7.41126984 15.85,6.5 C15.85,5.58873016 16.5887302,4.85 17.5,4.85 Z M17.5,5.65 C17.030558,5.65 16.65,6.03055796 16.65,6.5 C16.65,6.96944204 17.030558,7.35 17.5,7.35 C17.969442,7.35 18.35,6.96944204 18.35,6.5 C18.35,6.03055796 17.969442,5.65 17.5,5.65 Z" id="Combined-Shape" fill="#1C0D3F" fill-rule="nonzero"></path>
    </g>
</svg>