<?xml version="1.0" encoding="UTF-8"?>
<svg width="24px" height="24px" viewBox="0 0 24 24" version="1.1" xmlns="http://www.w3.org/2000/svg" xmlns:xlink="http://www.w3.org/1999/xlink">
    <title>navicon-support</title>
    <g id="navicon-support" stroke="none" stroke-width="1" fill="none" fill-rule="evenodd">
        <path d="M11.503355,1.85003753 L11.8064878,1.85685101 C13.6895827,1.93772802 15.4696872,2.73351314 16.8397223,4.08541993 C18.0969413,5.32600342 18.8743038,6.91556082 18.9736379,8.44232108 L18.9840887,8.71101368 L18.985,10.283 L19.0110261,10.2862897 C20.0771746,10.4502609 20.9642618,11.2416063 21.1242762,12.137852 L21.1441191,12.288108 L21.15,12.4252794 L21.141144,14.9774021 L21.1278928,15.0142358 C20.7325434,16.1131679 19.9985135,16.7442446 18.9712387,16.8634319 L18.895,16.869 L18.8752392,16.9882814 C18.4536285,19.1639318 16.8228441,20.578942 14.0133864,21.1758376 L13.7078642,21.2366575 L13.512,21.27 C13.4692345,21.646502 13.2179054,21.9571151 12.868612,22.0864702 L12.7487043,22.122717 L12.6341658,22.1432124 L12.5183175,22.15 L10.3527815,22.15 C9.80068797,22.15 9.35203528,21.7094177 9.35203528,21.164557 C9.35203528,20.7040297 9.67427618,20.3126408 10.1223948,20.2063969 L10.2369332,20.1859015 L10.3527815,20.1791139 L12.5183175,20.1791139 C12.8146238,20.1791139 13.0892484,20.3070398 13.2768178,20.5216339 L13.292,20.541 L13.5879257,20.4903598 C16.4981683,19.9468477 17.995599,18.5634929 18.1969063,16.3278107 L18.212721,16.101401 L18.2204206,15.7884648 L18.22,9.49 L16.9688627,9.49177213 L16.8191804,9.3527238 L16.8036964,9.14121344 C16.6741764,7.37196885 15.9521075,6.01253336 14.7047403,5.10080786 C13.8665019,4.4881227 12.7998918,4.10547887 11.8132493,4.03517801 L11.5463793,4.02381092 L11.4556038,4.02379781 C10.3959247,4.03780843 9.20970161,4.43242405 8.29525967,5.10080786 C7.18876194,5.90956907 6.49528334,7.07102351 6.26282617,8.55629158 L6.22465477,8.83856698 L6.19630355,9.14121344 L6.18081964,9.3527238 L6.03113732,9.49177213 L4.779,9.49 L4.77957938,16.7341835 L4.62957938,16.8841772 L4.39755767,16.8841772 C3.31701229,16.8841772 2.51449699,16.3799944 2.0372953,15.4062238 L1.95164379,15.2181472 L1.8721072,15.0142358 L1.85,14.9266244 L1.85,12.4252794 C1.85,11.4742077 2.70755343,10.5674588 3.80963763,10.3202797 L3.97670761,10.2882265 L4.014,10.283 L4.01592287,8.7092478 C4.03590218,7.10377509 4.8291046,5.39897892 6.1602777,4.08541993 C7.45419976,2.80861907 9.11389356,2.02786502 10.8832652,1.87683803 L11.1965936,1.85675038 L11.503355,1.85003753 Z M12.5183175,20.9348101 L10.3527815,20.9348101 C10.2214509,20.9348101 10.1160787,21.0382868 10.1160787,21.164557 C10.1160787,21.2517129 10.1666742,21.3293489 10.2352915,21.3670272 L10.2896245,21.3873183 L10.3527815,21.3943038 L12.5183175,21.3943038 C12.6496482,21.3943038 12.7550204,21.2908271 12.7550204,21.164557 C12.7550204,21.0382868 12.6496482,20.9348101 12.5183175,20.9348101 Z M18.984,11.048 L18.984,16.098 C19.5905776,15.9947606 20.0197833,15.641656 20.3069627,15.0106026 L20.3758138,14.847033 L20.3859566,14.8478987 L20.3859566,12.4252794 C20.3859566,11.8662397 19.8370416,11.283584 19.1270653,11.0835795 L18.984,11.048 Z M4.015,11.049 C3.33316277,11.1901531 2.76986356,11.6807974 2.64199902,12.1995871 L2.62137978,12.31107 L2.61404342,12.4252794 L2.60425489,14.7946001 L2.62376234,14.845931 C2.88623753,15.5203857 3.2864467,15.9163005 3.84405488,16.0622986 L4.015,16.097 L4.015,11.049 Z M11.499,2.604 L11.4471439,2.60601996 C9.8745914,2.62151063 8.36651158,3.19382857 7.14380744,4.21679994 L6.91794859,4.41386225 L6.69991219,4.62040658 C5.6360653,5.67017663 4.9540812,6.99500686 4.80888065,8.26421888 L4.78704356,8.51722173 L4.78,8.736 L5.468,8.736 L5.49876402,8.50091635 C5.73810524,6.89068063 6.46421204,5.59278204 7.61952563,4.66305116 L7.84116264,4.49305472 C8.74759743,3.83052349 9.87874032,3.40630609 10.9667184,3.29605886 L11.2376586,3.27508188 L11.4827044,3.26806152 L11.482,3.27 L11.4871099,3.26772152 L11.5128901,3.26772152 L11.515,3.289 L11.5162782,3.26806102 L11.7660196,3.27523244 C12.9311754,3.33725815 14.1768663,3.77531256 15.1588374,4.49305472 C16.4431232,5.43176479 17.2469359,6.7900409 17.501306,8.50158016 L17.531,8.736 L18.219,8.736 L18.2130723,8.52027865 C18.1398085,7.25933973 17.5220136,5.92124816 16.5081067,4.8343415 L16.3000878,4.62040658 C15.0807463,3.41719942 13.5089102,2.70548518 11.8458696,2.61541553 L11.499,2.604 Z" id="Combined-Shape" fill="#1C0D3F" fill-rule="nonzero"></path>
    </g>
</svg>