<?xml version="1.0" encoding="UTF-8"?>
<svg width="24px" height="24px" viewBox="0 0 24 24" version="1.1" xmlns="http://www.w3.org/2000/svg" xmlns:xlink="http://www.w3.org/1999/xlink">
    <title>navicon-university</title>
    <g id="navicon-university" stroke="none" stroke-width="1" fill="none" fill-rule="evenodd">
        <path d="M19.3474703,20.9819127 L19.4974703,21.1319127 L19.4974703,21.56 L19.3474703,21.71 L4.02965237,21.71 L3.87965237,21.56 L3.87965237,21.1319127 L4.02965237,20.9819127 L19.3474703,20.9819127 Z M7.51763536,9.69501816 L7.66763536,9.84501816 L7.66763536,10.2945099 L7.51763536,10.4445099 L6.39910278,10.4439924 L6.39910278,19.2739924 L7.51763536,19.2748099 L7.66763536,19.4248099 L7.66763536,19.8743016 L7.51763536,20.0243016 L4.05494736,20.0243016 L3.90494736,19.8743016 L3.90494736,19.4248099 L4.05494736,19.2748099 L5.39910278,19.2739924 L5.39910278,10.4439924 L4.05494736,10.4445099 L3.90494736,10.2945099 L3.90494736,9.84501816 L4.05494736,9.69501816 L7.51763536,9.69501816 Z M13.8757033,9.69501816 L14.0257033,9.84501816 L14.0257033,10.2945099 L13.8757033,10.4445099 L12.0991028,10.4439924 L12.0991028,19.2739924 L13.8757033,19.2748099 L14.0257033,19.4248099 L14.0257033,19.8743016 L13.8757033,20.0243016 L9.41301537,20.0243016 L9.26301537,19.8743016 L9.26301537,19.4248099 L9.41301537,19.2748099 L11.0991028,19.2739924 L11.0991028,10.4439924 L9.41301537,10.4445099 L9.26301537,10.2945099 L9.26301537,9.84501816 L9.41301537,9.69501816 L13.8757033,9.69501816 Z M19.2764085,9.69501816 L19.4264085,9.84501816 L19.4264085,10.2945099 L19.2764085,10.4445099 L18.0991028,10.4439924 L18.0991028,19.2739924 L19.2764085,19.2748099 L19.4264085,19.4248099 L19.4264085,19.8743016 L19.2764085,20.0243016 L15.8137205,20.0243016 L15.6637205,19.8743016 L15.6637205,19.4248099 L15.8137205,19.2748099 L17.0991028,19.2739924 L17.0991028,10.4439924 L15.8137205,10.4445099 L15.6637205,10.2945099 L15.6637205,9.84501816 L15.8137205,9.69501816 L19.2764085,9.69501816 Z M11.843426,2.86473547 L11.9470413,2.89964941 L12.0351046,2.94710625 L19.2413434,7.71820015 C19.6625195,7.99705167 19.5610521,8.62961123 19.1114413,8.78706539 L19.016929,8.81197591 L18.919647,8.8200773 L4.44034883,8.8200773 C3.93260585,8.8200773 3.68167822,8.22535817 3.98065568,7.84576711 L4.04322971,7.77731253 L4.12073633,7.71682676 L11.3937957,2.94573285 C11.528288,2.85750645 11.6905926,2.82960694 11.843426,2.86473547 Z M11.712,3.628 L4.943,8.07 L18.421,8.07 L11.712,3.628 Z" id="Combined-Shape" fill="#1C0D3F" fill-rule="nonzero"></path>
    </g>
</svg>