<?xml version="1.0" encoding="UTF-8"?>
<svg width="24px" height="24px" viewBox="0 0 24 24" version="1.1" xmlns="http://www.w3.org/2000/svg" xmlns:xlink="http://www.w3.org/1999/xlink">
    <title>navicon-community-gray</title>
    <g id="navicon-community-gray" stroke="none" stroke-width="1" fill="none" fill-rule="evenodd">
        <path d="M11.7524752,1.85 C14.0858761,1.85 15.9777228,3.73401678 15.9777228,6.05838101 C15.9777228,6.23349595 15.9669761,6.40727823 15.9456877,6.57905116 L15.922,6.729 L16.1651083,6.88224186 C18.0827597,8.13590795 19.3734317,10.148016 19.7045312,12.4148085 L19.742249,12.71188 L19.759,12.896 L19.8576231,12.9260358 C21.4304862,13.4450715 22.5606039,14.8434289 22.7283916,16.4932893 L22.7447768,16.7098632 L22.75,16.9201704 C22.75,19.2445347 20.8581533,21.1285514 18.5247525,21.1285514 C17.6762841,21.1285514 16.8655301,20.8786494 16.1778676,20.4202076 L16.062,20.338 L16.0230135,20.363406 C14.9291631,21.0459277 13.7028815,21.4552358 12.4262286,21.5619397 L12.0768633,21.5835161 L11.7524752,21.59 C10.2841901,21.59 8.87150291,21.2015017 7.64025397,20.4661426 L7.444,20.343 L7.3114045,20.4319275 C6.79510805,20.7536938 6.21497507,20.960561 5.60481118,21.0366123 L5.3415723,21.0611502 L5.07524752,21.0693914 C2.7418467,21.0693914 0.85,19.1853746 0.85,16.8610103 C0.85,15.0644165 1.9903603,13.4891159 3.65086283,12.8977501 L3.746,12.865 C3.95860679,10.4791886 5.22610199,8.3307594 7.18758225,6.9842056 L7.42626791,6.82650427 L7.583,6.73 L7.55966491,6.57964292 L7.54549127,6.4506953 L7.53535269,6.32078559 L7.52722772,6.05838101 C7.52722772,3.73401678 9.41907442,1.85 11.7524752,1.85 Z M15.716,7.515 L15.6602376,7.66178499 C15.0159408,9.21973147 13.4840325,10.266762 11.7524752,10.266762 C10.0409931,10.266762 8.5279905,9.24406723 7.87075398,7.72355244 L7.788,7.516 L7.70737193,7.56806281 C5.98450158,8.71622375 4.83544518,10.5444794 4.55596555,12.596594 L4.545,12.686 L4.58699793,12.6806918 C4.66731594,12.6713543 4.74821608,12.6643387 4.82961785,12.6596574 L5.07524752,12.6526293 C7.40864835,12.6526293 9.30049505,14.5366461 9.30049505,16.8610103 C9.30049505,17.8965405 8.92314153,18.873069 8.25223495,19.6352301 L8.076,19.823 L8.1770712,19.8830003 C9.16917124,20.4446046 10.2787386,20.7611844 11.4357908,20.8100477 L11.7524752,20.8167194 C13.0170143,20.8167194 14.2434494,20.4906101 15.3395905,19.8697839 L15.449,19.804 L15.4273863,19.782297 C14.7599345,19.0665051 14.3595261,18.1416928 14.3057303,17.1501162 L14.299505,16.9201704 C14.299505,14.5958062 16.1913516,12.7117894 18.5247525,12.7117894 L18.7365025,12.7169855 L18.962,12.734 L18.9538802,12.6482123 C18.6870414,10.5726374 17.5304514,8.71997251 15.7891023,7.56130998 L15.716,7.515 Z M18.5247525,13.48507 C16.6192311,13.48507 15.0747525,15.0231564 15.0747525,16.9201704 C15.0747525,18.8171844 16.6192311,20.3552708 18.5247525,20.3552708 C20.4302738,20.3552708 21.9747525,18.8171844 21.9747525,16.9201704 C21.9747525,15.0231564 20.4302738,13.48507 18.5247525,13.48507 Z M5.07524752,13.4259099 C3.1697262,13.4259099 1.62524752,14.9639963 1.62524752,16.8610103 C1.62524752,18.7580243 3.1697262,20.2961108 5.07524752,20.2961108 C6.98076885,20.2961108 8.52524752,18.7580243 8.52524752,16.8610103 C8.52524752,14.9639963 6.98076885,13.4259099 5.07524752,13.4259099 Z M11.7524752,2.62328058 C9.84695392,2.62328058 8.30247525,4.16136701 8.30247525,6.05838101 C8.30247525,7.95539501 9.84695392,9.49348144 11.7524752,9.49348144 C13.6579966,9.49348144 15.2024752,7.95539501 15.2024752,6.05838101 C15.2024752,4.16136701 13.6579966,2.62328058 11.7524752,2.62328058 Z" id="Combined-Shape" fill="#94A1AE" fill-rule="nonzero"></path>
    </g>
</svg>