<svg fill="none" xmlns="http://www.w3.org/2000/svg" viewBox="0 0 20 20"><path d="M6.25539 2c-1.34123 0-2.68246.5138-3.71163 1.54297-2.058346 2.05834-2.058346 5.36493 0 7.42323l1.23721 1.2373c-.01734.0851-.02679.1702-.02679.2569 0 .3215.11978.6036.36249.8463l.56423.5658c.19543.2333.50434.3515.81798.3594.02049.2773.13554.5516.35304.7691l.56581.5642c.22065.2222.47912.3373.76912.3562.00788.3089.12608.5816.35934.8148l.56423.5658c.19543.2333.50434.3515.8164.3594.01734.29.13239.5469.35462.7691l.56581.5642c.24115.2427.52325.3641.84635.3641.2821 0 .6052-.1214.8463-.3641l1.2105-1.2104c.208-.1891.3199-.4381.3514-.6998.2601-.0315.4949-.145.6982-.3483l.7266-.7265c.2175-.2175.3325-.4918.353-.7692.3137-.0078.6226-.1261.818-.3593l.5642-.5658c.227-.2081.342-.487.3578-.7739.2963-.0173.5879-.1355.8117-.3971l.5642-.5643c.4508-.4129.4776-1.1016.0898-1.5871.9378-.9629 1.4847-2.27108 1.4847-3.65802 0-1.41215-.5248-2.78333-1.5335-3.75261-2.0584-2.05677-5.4059-2.05677-7.4643-.0394l-.3026.3026-.30257-.3026C8.93786 2.5138 7.59662 2 6.25539 2Zm0 .8164c1.13004 0 2.26008.44288 3.14741 1.2908l.28211.28212-2.05676 2.05834c-.72657.72657-.72657 1.89601 0 2.62257.36249.3625.84634.56581 1.3302.56581.48385 0 .9283-.16233 1.29235-.52641l2.4177-2.41768 4.7219 4.79915c.1623.1607.1623.4034 0 .5658l-.5642.5642c-.1608.1608-.4035.1608-.5643 0L13.8 10.2003c-.1607-.1608-.4035-.1608-.5642 0-.1608.1607-.1608.4034 0 .5642l2.4618 2.4208c.1608.1608.1608.4035 0 .5643l-.5658.5658c-.1608.1607-.4035.1607-.5658 0l-2.4208-2.4209c-.0852-.0866-.1939-.1229-.3027-.1182-.1071-.0047-.2159.0316-.3026.1182-.1607.1608-.1607.4035 0 .5659l2.4209 2.4208c.0819.0804.1229.1607.1229.2805 0 .1214-.041.2033-.1229.2837l-.725.725c-.093.093-.2112.1261-.3247.1135-.0457-.0678-.0993-.1324-.1607-.1923l-.5643-.5658c-.2143-.2143-.5122-.3215-.8132-.3294-.0158-.2868-.1308-.5753-.3562-.8006l-.5642-.5643c-.2081-.2253-.48547-.342-.77074-.3562-.00788-.3089-.12608-.58-.36092-.8132l-.56423-.5658c-.21435-.2144-.51222-.3215-.81325-.3294-.01576-.2869-.13081-.5753-.35619-.8007l-.56423-.5642c-.44445-.48384-1.212-.48384-1.69585 0l-1.10955 1.1096-1.10955-1.1096c-1.73525-1.73524-1.73525-4.55955 0-6.2948.88732-.84792 2.01736-1.2908 3.1474-1.2908Zm8.03001.04098c1.1285 0 2.2586.44287 3.1459 1.2908l.041.0394c.8479.84792 1.2908 1.93699 1.2908 3.1474 0 1.14265-.4256 2.24432-1.2341 3.08432l-4.5359-4.53745c-.0079-.0063-.0174-.00946-.0237-.01576-.0078-.00788-.0094-.01734-.0173-.02364-.1608-.16076-.4035-.16076-.5642 0L9.68491 8.5454c-.40347.40348-1.08906.40348-1.49253 0-.20174-.20173-.3231-.48385-.3231-.76596 0-.28212.12136-.56424.3231-.76597L10.5123 4.6935l.019.01891.6052-.56423c.8479-.84793 2.0189-1.2908 3.1489-1.2908ZM6.21599 10.8055c.08038 0 .20016.0394.28054.1198l.56581.5658c.16076.1607.16076.4034 0 .5658l-1.21042 1.2104c-.16076.1608-.40347.1608-.56581 0l-.56423-.5658c-.08038-.0804-.11978-.1608-.11978-.2821 0-.1214.0394-.2018.11978-.2837l1.21042-1.2104c.08038-.0804.16233-.1198.28369-.1198Zm1.6927 1.7337c.12135 0 .20331.0409.28369.1229l.56423.5642c.08038.0804.12136.1608.12136.2821 0 .1214-.04098.2018-.12136.2822L7.54619 15.001c-.16076.1607-.40347.1607-.56423 0l-.56423-.5643c-.16234-.1607-.16234-.4034 0-.5642l1.21042-1.2104c.08038-.082.16075-.1229.28054-.1229Zm1.7116 1.6958c.1056 0 .20647.0394.26636.1198l.56585.5658c.1607.1608.1607.4035 0 .5658l-1.21046 1.2104c-.16234.1608-.40505.1608-.56581 0l-.56581-.5658c-.08038-.0804-.11978-.1607-.11978-.2821 0-.1214.0394-.2017.11978-.2837l1.21042-1.2104c.08196-.0804.19228-.1198.29945-.1198Zm1.71791 1.7337c.1214 0 .2033.041.2837.1229l.5642.5642c.0804.0804.1214.1608.1214.2822 0 .1213-.041.2017-.1214.2821l-1.2104 1.2104c-.1607.1607-.4035.1607-.5642 0l-.56425-.5642c-.08196-.0804-.12294-.1624-.12294-.2837 0-.1198.04098-.2002.12294-.2806l1.21045-1.2104c.0803-.0819.1607-.1229.2805-.1229Z" fill="#1C0D3F"/></svg>