<svg width="151" height="60" viewBox="0 0 151 60" fill="none" xmlns="http://www.w3.org/2000/svg">
<g opacity="0.6">
<g clip-path="url(#clip0_165_1865)">
<path d="M42.0749 43.2L34.2749 16C34.1499 15.6 33.8499 15.3 33.4749 15.15C33.0249 14.975 32.4999 15.075 32.1249 15.4L21.1749 25L10.1999 15.425C9.8749 15.125 9.4249 15.025 8.9999 15.125C8.5249 15.25 8.1749 15.625 8.0499 16.075L0.249897 43.225C0.124897 43.675 0.224899 44.15 0.524899 44.5C0.849899 44.85 1.2999 45 1.7749 44.925L21.1749 41.275L40.5749 44.925C41.3249 45.025 41.9999 44.525 42.0999 43.775C42.1499 43.6 42.1249 43.4 42.0749 43.2ZM29.7249 20.45L25.5499 28.825L22.8499 26.45L29.7249 20.45ZM19.4999 26.475L16.7999 28.85L12.6249 20.475L19.4999 26.475ZM9.4499 19.025L15.0749 30.35L3.2749 40.675L9.4499 19.025ZM4.9999 42.05L16.0999 32.375L19.5749 39.35L4.9999 42.05ZM17.7749 30.85L21.1499 27.9L24.5249 30.85L21.1499 37.625L17.7749 30.85ZM22.7749 39.3L26.2499 32.325L37.3749 42.075L22.7749 39.3ZM27.2749 30.35L32.8749 19.075L39.0499 40.625L27.2749 30.35ZM56.1749 33.975L52.2499 27.075V37.1C52.2499 37.25 52.1499 37.35 51.9999 37.35H50.0749C49.9249 37.35 49.8249 37.25 49.8249 37.1V22.7C49.8249 22.55 49.9249 22.45 50.0749 22.45H52.2249C52.3249 22.45 52.3999 22.5 52.4499 22.575L57.1999 31.375L61.9749 22.575C62.0249 22.5 62.0999 22.45 62.1999 22.45H64.3499C64.4999 22.45 64.5999 22.55 64.5999 22.7V37.1C64.5999 37.25 64.4999 37.35 64.3499 37.35H62.4749C62.3249 37.35 62.2249 37.25 62.2249 37.1V27.075L58.2999 33.975C58.2499 34.05 58.1749 34.1 58.0749 34.1H56.3749C56.2999 34.1 56.2249 34.05 56.1749 33.975ZM66.9249 34.025C66.9249 31.75 68.6999 30.275 71.8749 30.275H74.1499V29.75C74.1499 28.125 73.0499 27.925 70.3749 28.125C69.6999 28.25 69.0499 28.475 68.4249 28.8C68.2999 28.85 68.1499 28.825 68.0999 28.7C68.0749 28.675 68.0749 28.65 68.0749 28.625C68.0249 28.125 67.9499 27.55 67.8999 27.2C67.8749 27.1 67.9249 27.025 68.0249 26.975C69.2499 26.425 70.5749 26.125 71.8999 26.125C75.0999 26.125 76.5499 27.2 76.5499 30.275V37.125C76.5499 37.275 76.4499 37.375 76.2999 37.375H74.9999C74.9499 37.375 74.8749 37.35 74.8249 37.325L74.0999 36.675C73.2499 37.35 72.1749 37.7 71.0749 37.65C68.7999 37.625 66.9249 36.4 66.9249 34.025ZM74.1499 34.525V32.25H71.9499C70.0999 32.25 69.3749 32.875 69.3749 34C69.3749 35.125 70.1999 35.6 71.4499 35.6C72.4249 35.675 73.3749 35.325 74.0749 34.65C74.1249 34.625 74.1499 34.575 74.1499 34.525ZM81.8249 37.2L78.1499 26.7C78.0999 26.575 78.1749 26.425 78.2999 26.375C78.3249 26.375 78.3499 26.35 78.3999 26.35H80.4749C80.5749 26.35 80.6749 26.425 80.7249 26.525L83.4249 34.875L86.1999 26.525C86.2249 26.425 86.3249 26.35 86.4499 26.35H88.4749C88.5999 26.35 88.7249 26.45 88.7249 26.575C88.7249 26.6 88.7249 26.625 88.6999 26.675L85.0249 37.2C84.9999 37.3 84.8999 37.375 84.7999 37.375H82.0999C81.9749 37.375 81.8499 37.3 81.8249 37.2ZM92.4249 32.8C92.5999 34.75 93.7749 35.6 95.7999 35.6C96.8249 35.575 97.8249 35.35 98.7499 34.925C98.8499 34.875 98.9749 34.925 99.0249 35.025C99.0249 35.05 99.0499 35.075 99.0499 35.1L99.2499 36.675C99.2749 36.775 99.1999 36.875 99.1249 36.925C98.0499 37.425 96.8499 37.65 95.6749 37.625C91.7499 37.625 89.8999 35.175 89.8999 31.85C89.8999 28.4 91.8499 26.1 94.9999 26.1C98.2499 26.1 100.1 28.5 100.1 31.925V32.575C100.1 32.725 99.9999 32.825 99.8499 32.825H92.3999L92.4249 32.8ZM97.5749 30.85C97.3749 28.975 96.4249 28.075 94.9999 28.075C93.5749 28.075 92.5999 28.95 92.4249 30.85H97.5749ZM104.9 28.7V37.1C104.9 37.25 104.8 37.35 104.65 37.35H102.75C102.6 37.35 102.5 37.25 102.5 37.1V26.6C102.5 26.45 102.6 26.35 102.75 26.35H104.075C104.15 26.35 104.2 26.375 104.25 26.425L104.875 27.2C105.65 26.475 106.675 26.1 107.725 26.125C110.5 26.125 112.25 27.875 112.25 31.2V37.15C112.25 37.3 112.15 37.4 112 37.4H110.1C109.95 37.4 109.85 37.3 109.85 37.15V31.15C109.85 29.05 109.075 28.1 107.375 28.1C106.475 28.05 105.65 28.275 104.9 28.7ZM130.2 28.675V37.1C130.2 37.25 130.1 37.35 129.95 37.35H128.025C127.875 37.35 127.775 37.25 127.775 37.1V26.575C127.775 26.425 127.875 26.325 128.025 26.325H129.35C129.425 26.325 129.475 26.35 129.525 26.4L130.15 27.175C130.925 26.45 131.95 26.075 133.025 26.1C135.8 26.1 137.55 27.85 137.55 31.175V37.15C137.55 37.3 137.45 37.4 137.3 37.4H135.375C135.225 37.4 135.125 37.3 135.125 37.15V31.125C135.125 29.025 134.35 28.075 132.65 28.075C131.8 28.025 130.925 28.25 130.2 28.675ZM142.875 31.65V37.125C142.875 37.275 142.775 37.375 142.625 37.375H140.7C140.55 37.375 140.45 37.275 140.45 37.125V22.1C140.45 21.95 140.55 21.85 140.7 21.85H142.625C142.775 21.85 142.875 21.95 142.875 22.1V30.85L147 26.45C147.05 26.4 147.125 26.375 147.175 26.375H149.5C149.65 26.375 149.75 26.475 149.75 26.625C149.75 26.7 149.725 26.75 149.675 26.8L145.475 31.25L150.125 36.95C150.225 37.05 150.2 37.225 150.1 37.3C150.05 37.35 150 37.35 149.925 37.35H147.525C147.45 37.35 147.375 37.325 147.325 37.25L142.875 31.65ZM118.575 37.4C116.325 37.4 114.7 36.225 114.7 33.4V21.825C114.7 21.675 114.8 21.575 114.95 21.575H116.875C117.025 21.575 117.125 21.675 117.125 21.825V33.25C117.125 34.825 117.675 35.45 118.925 35.45C119.175 35.45 119.6 35.4 119.9 35.4C120.025 35.4 120.125 35.475 120.125 35.6V35.625V37.1C120.125 37.225 120.025 37.325 119.9 37.35C119.5 37.375 119.05 37.4 118.575 37.4ZM124.8 37.125C124.8 37.275 124.675 37.375 124.55 37.375H122.625C122.475 37.375 122.375 37.25 122.375 37.125V26.575C122.375 26.425 122.5 26.325 122.625 26.325H124.55C124.7 26.325 124.8 26.45 124.8 26.575V37.125ZM123.6 21.7C124.3 21.6 124.95 22.075 125.05 22.775C125.075 22.9 125.075 23.025 125.05 23.15C125 23.95 124.3 24.55 123.5 24.5C122.775 24.45 122.2 23.875 122.15 23.15C122.05 22.45 122.525 21.8 123.225 21.7C123.35 21.7 123.475 21.7 123.6 21.7Z" fill="white"/>
</g>
</g>
<defs>
<clipPath id="clip0_165_1865">
<rect width="150.25" height="30" fill="white" transform="translate(0 15)"/>
</clipPath>
</defs>
</svg>
