<svg width="124" height="60" viewBox="0 0 124 60" fill="none" xmlns="http://www.w3.org/2000/svg">
<g opacity="0.6">
<g clip-path="url(#clip0_165_1868)">
<path d="M52.7234 26.4515C52.7234 31.6094 48.9234 34.5823 43.3631 34.5823H39.0322V42.1265H33.8352V18.2815H43.324C48.9122 18.2815 52.7122 21.2879 52.7122 26.4515H52.7234ZM43.0669 30.1676C45.9281 30.1676 47.5543 29.0891 47.5543 26.4459C47.5543 23.7971 45.9337 22.6906 43.0669 22.6906H39.0714V30.1676H43.0669ZM71.3434 33.6324C71.3434 38.7288 67.5099 42.4897 62.1117 42.4897C56.6911 42.4897 52.8519 38.7009 52.8519 33.6379C52.8519 28.5415 56.6855 24.7862 62.1117 24.7862C67.5099 24.7526 71.3434 28.5415 71.3434 33.6379V33.6324ZM57.5964 33.6324C57.5964 36.6053 59.5131 38.3712 62.1117 38.3712C64.6487 38.3712 66.599 36.6053 66.599 33.6379C66.599 30.665 64.6822 28.8991 62.1117 28.8991C59.5411 28.8656 57.5964 30.665 57.5964 33.6379V33.6324ZM97.3734 25.1103L87.7617 48.9888H82.8217L85.7387 41.7353L78.7534 25.1382H84.3081L87.7561 33.6324L87.9181 35.8565H88.1752L92.3384 25.1438H97.3734V25.1103ZM123.208 42.1265H118.011V18.2815H123.208V42.1265ZM103.062 18.2815H107.74L116.809 42.16H111.383L109.953 38.1085H100.849L99.4522 42.1321H93.9925L103.062 18.2815ZM108.393 33.6659L105.856 26.3509L105.532 23.7691H105.337L105.013 26.3509L102.475 33.6379H108.393V33.6659ZM77.5184 42.1265H72.8075V17.27H77.5184V42.1265ZM25.8775 27.8541L30.3314 20.3435L25.844 11.7209L12.5887 11L7.09547 11.0671L0.529297 16.9794L0.752826 21.3885L4.88812 28.2118L15.0587 30.4359L16.8134 32.1682L19.2164 33.8615L23.9608 35.7615L24.6425 35.1076L23.5361 32.0676L24.0949 29.9106L25.8831 27.8541H25.8775ZM25.1622 27.0718L16.2937 29.1953L18.5961 24.3894L28.6102 21.26L25.1622 27.0718ZM28.9958 20.0138L18.2719 23.3779L9.1743 18.0244L12.8793 12.0785L25.1958 12.7324L28.9958 20.0138ZM7.48106 12.1176L11.6443 12.0841L8.10136 17.8009L1.7643 20.4441L1.59665 17.4097L7.48665 12.1176H7.48106ZM2.03253 21.45L8.40312 18.7732L17.5008 24.1324L14.9972 29.2903L5.50283 27.2338L2.02694 21.45H2.03253ZM23.3181 34.3197L19.8367 32.9171L17.5622 31.3524L16.4278 30.2347L24.0614 28.4074L23.2231 29.3573L22.5022 32.0676L23.3181 34.3197Z" fill="white"/>
</g>
</g>
<defs>
<clipPath id="clip0_165_1868">
<rect width="122.941" height="38" fill="white" transform="translate(0.529297 11)"/>
</clipPath>
</defs>
</svg>
