<svg width="150" height="60" viewBox="0 0 150 60" fill="none" xmlns="http://www.w3.org/2000/svg">
<g opacity="0.6">
<g clip-path="url(#clip0_176_649)">
<path d="M98.5393 40.1829C100.482 40.2297 102.355 39.504 103.76 38.1462L106.335 40.9321C104.626 42.6878 102.262 43.9988 98.5861 43.9988C92.2653 43.9988 88.1919 39.8084 88.1919 34.143C88.1919 28.5246 92.476 24.2873 98.0009 24.2873C104.275 24.2873 107.81 29.063 107.506 35.6647H92.7101C93.2252 38.4271 95.1682 40.1829 98.5393 40.1829ZM103.034 32.5277C102.636 29.976 101.114 28.0798 98.0477 28.0798C95.1916 28.0798 93.2252 29.6951 92.7101 32.5277H103.034ZM1.31592 39.9722L12.7168 28.3841H1.57343V24.7555H17.9841V28.4777L6.60667 40.0425H18.148V43.6711H1.31592V39.9722ZM30.9301 40.1829C32.8731 40.2297 34.746 39.504 36.1506 38.1462L38.7257 40.9321C37.0168 42.6878 34.6523 43.9988 30.9769 43.9988C24.6795 43.9988 20.5827 39.8084 20.5827 34.143C20.5827 28.5246 24.8668 24.2873 30.3916 24.2873C36.6656 24.2873 40.2006 29.063 39.8963 35.6647H25.1009C25.6393 38.4271 27.559 40.1829 30.9301 40.1829ZM35.4483 32.5277C35.0503 29.976 33.5286 28.0798 30.4619 28.0798C27.6058 28.0798 25.6393 29.6951 25.1243 32.5277H35.4483ZM64.524 34.1665C64.524 28.1032 69.0422 24.3341 74.0286 24.3341C76.5335 24.3341 78.9214 25.4344 80.326 27.1668V16H84.3526V43.6243H80.326V41.0023C78.8746 42.8517 76.4867 43.9988 73.9818 43.9988C69.1593 43.9988 64.524 40.1829 64.524 34.1665ZM80.5601 34.1196C80.5601 30.7485 78.0084 27.9861 74.5671 27.9861C71.196 27.9861 68.574 30.6783 68.574 34.1196C68.574 37.561 71.196 40.2766 74.5671 40.2766C78.0084 40.3 80.5601 37.5376 80.5601 34.1196ZM110.127 39.5977L113.779 37.7014C114.763 39.4572 116.636 40.5107 118.649 40.4639C120.92 40.4639 122.114 39.2933 122.114 37.9589C122.114 36.4373 119.913 36.1095 117.525 35.6179C114.295 34.939 110.947 33.8855 110.947 29.976C110.947 26.9795 113.803 24.217 118.274 24.2639C121.809 24.2639 124.431 25.6685 125.906 27.9393L122.512 29.8121C121.645 28.4777 120.147 27.6584 118.251 27.6584C116.074 27.6584 114.973 28.7118 114.973 29.9292C114.973 31.287 116.729 31.6615 119.468 32.2702C122.582 32.9491 126.117 33.9792 126.117 37.9121C126.117 40.5341 123.846 44.0456 118.438 43.9988C114.505 43.9988 111.719 42.4069 110.127 39.5977ZM137.049 35.2199L133.866 38.7081V43.6243H129.839V16H133.866V34.0728L142.41 24.7087H147.303L139.905 32.8087L147.514 43.6243H142.949L137.049 35.2199ZM52.3506 24.3107C47.5515 24.3107 43.5483 27.4243 43.5483 32.5511V43.6243H47.6685V33.0896C47.6685 29.976 49.4477 28.1266 52.4911 28.1266C55.5344 28.1266 57.0561 29.976 57.0561 33.0896V43.6243H61.1529V32.5746C61.1529 27.4243 57.1497 24.3107 52.3506 24.3107Z" fill="white"/>
<path d="M146.181 22.2516C146.743 21.6897 147.679 21.6897 148.241 22.2516C148.803 22.8134 148.803 23.7499 148.241 24.3117C147.679 24.8736 146.743 24.8736 146.181 24.3117C145.596 23.7499 145.596 22.8368 146.181 22.2516ZM147.984 24.0776C148.405 23.6328 148.382 22.9305 147.96 22.5091C147.516 22.0877 146.813 22.1111 146.392 22.5325C145.97 22.9773 145.97 23.6562 146.415 24.0776C146.86 24.5224 147.562 24.499 147.984 24.0776ZM147.328 22.3452L147.773 22.79C148.054 23.071 148.054 23.3987 147.867 23.586C147.726 23.7499 147.492 23.7967 147.305 23.703L147.164 24.2649L146.86 23.9605L147.071 23.188L147.188 23.3051C147.258 23.3987 147.422 23.4221 147.516 23.3519L147.539 23.3285C147.633 23.2348 147.609 23.071 147.516 23.0007L147.492 22.9773L147.328 22.8134L146.509 23.6328L146.251 23.3753L147.328 22.3452Z" fill="white"/>
</g>
</g>
<defs>
<clipPath id="clip0_176_649">
<rect width="147.368" height="28" fill="white" transform="translate(1.31592 16)"/>
</clipPath>
</defs>
</svg>
