<svg width="98" height="60" viewBox="0 0 98 60" fill="none" xmlns="http://www.w3.org/2000/svg">
<g opacity="0.6">
<g clip-path="url(#clip0_176_639)">
<path fill-rule="evenodd" clip-rule="evenodd" d="M79.758 25.5972C80.1323 26.2429 80.2547 26.9774 80.2951 27.8032L80.3482 28.9039V36.6007L80.4025 37.7025C80.5111 39.502 81.8382 40.8325 83.6515 40.9457L84.7476 41V28.9039L84.8018 27.8032C84.8469 26.9867 84.9682 26.2382 85.3481 25.588C85.7353 24.921 86.2912 24.3677 86.9599 23.9835C87.6286 23.5993 88.3866 23.3978 89.1578 23.3992C89.929 23.4006 90.6863 23.6049 91.3535 23.9915C92.0208 24.3781 92.5747 24.9335 92.9594 25.6018C93.3336 26.2475 93.4503 26.9959 93.4953 27.8032L93.5496 28.9005V36.6007L93.6039 37.7025C93.7171 39.5112 95.0338 40.8418 96.8529 40.9457L97.9489 41V27.8032C97.9489 25.4697 97.0222 23.2317 95.3724 21.5813C93.7227 19.9309 91.485 19.0032 89.1515 19.0023C87.9025 19.001 86.6676 19.2662 85.5293 19.7803C84.3911 20.2944 83.3756 21.0454 82.5508 21.9833C81.7256 21.0458 80.7101 20.2949 79.5719 19.7807C78.4337 19.2665 77.199 19.0007 75.9501 19.0012C74.1229 19.0012 72.4274 19.5555 71.023 20.513C70.166 19.5567 68.2487 19.0012 67.148 19.0012V41L68.2487 40.9457C70.0897 40.8244 71.4203 39.5297 71.4919 37.7025L71.5508 36.6007V28.9039L71.6051 27.8032C71.6513 26.9728 71.7668 26.2429 72.1421 25.5926C72.5297 24.9261 73.0853 24.3728 73.7535 23.9882C74.4217 23.6035 75.1791 23.4009 75.9501 23.4005C76.7217 23.4006 77.4797 23.6037 78.148 23.9893C78.8164 24.3748 79.3716 24.9294 79.758 25.5972ZM4.45009 40.9469L5.55078 41H22.0496L21.9953 39.9028C21.8463 38.0941 20.5655 36.7728 18.751 36.655L17.6503 36.6007H7.75217L20.9489 23.3993L20.8946 22.3032C20.8092 20.4761 19.474 19.1559 17.6503 19.0554L16.5496 19.0058L0.0507812 19.0012L0.105065 20.1019C0.249437 21.8932 1.54879 23.2422 3.34824 23.3462L4.45009 23.4005H14.3482L1.15147 36.6018L1.20576 37.7025C1.31433 39.5159 2.62292 40.8291 4.45009 40.9457V40.9469ZM62.8296 22.2212C63.8511 23.2426 64.6615 24.4552 65.2144 25.7898C65.7673 27.1244 66.0519 28.5548 66.0519 29.9994C66.0519 31.444 65.7673 32.8744 65.2144 34.209C64.6615 35.5436 63.8511 36.7562 62.8296 37.7776C60.7656 39.8399 57.9673 40.9983 55.0496 40.9983C52.132 40.9983 49.3336 39.8399 47.2697 37.7776C42.9743 33.4823 42.9743 26.5166 47.2697 22.2212C48.2904 21.2002 49.5021 20.3902 50.8358 19.8375C52.1695 19.2848 53.599 19.0002 55.0427 19C56.4887 18.999 57.9208 19.2831 59.2569 19.836C60.5931 20.3889 61.8071 21.1999 62.8296 22.2224V22.2212ZM59.7169 25.3362C60.9541 26.5744 61.6491 28.2531 61.6491 30.0035C61.6491 31.7538 60.9541 33.4326 59.7169 34.6707C58.4787 35.908 56.8 36.6029 55.0496 36.6029C53.2993 36.6029 51.6205 35.908 50.3824 34.6707C49.1451 33.4326 48.4502 31.7538 48.4502 30.0035C48.4502 28.2531 49.1451 26.5744 50.3824 25.3362C51.6205 24.099 53.2993 23.404 55.0496 23.404C56.8 23.404 58.4787 24.099 59.7169 25.3362ZM31.957 19C33.4008 19.0004 34.8303 19.2851 36.164 19.8381C37.4977 20.391 38.7095 21.2012 39.73 22.2224C44.0265 26.5166 44.0265 33.4834 39.73 37.7776C37.6661 39.8399 34.8678 40.9983 31.9501 40.9983C29.0324 40.9983 26.2341 39.8399 24.1702 37.7776C19.8748 33.4823 19.8748 26.5166 24.1702 22.2212C25.1908 21.2002 26.4026 20.3902 27.7363 19.8375C29.07 19.2848 30.4995 19.0002 31.9432 19H31.957ZM36.6174 25.3339C37.8549 26.5721 38.5501 28.2511 38.5501 30.0017C38.5501 31.7524 37.8549 33.4314 36.6174 34.6696C35.3792 35.9068 33.7004 36.6018 31.9501 36.6018C30.1997 36.6018 28.521 35.9068 27.2828 34.6696C26.0456 33.4314 25.3506 31.7527 25.3506 30.0023C25.3506 28.252 26.0456 26.5732 27.2828 25.335C28.521 24.0978 30.1997 23.4028 31.9501 23.4028C33.7004 23.4028 35.3792 24.0978 36.6174 25.335V25.3339Z" fill="white"/>
</g>
</g>
<defs>
<clipPath id="clip0_176_639">
<rect width="97.8982" height="22" fill="white" transform="translate(0.0507812 19)"/>
</clipPath>
</defs>
</svg>
