<svg width="1440" height="707" viewBox="0 0 1440 707" fill="none" xmlns="http://www.w3.org/2000/svg"><g clip-path="url(#clip0_4_114)"><mask id="mask0_4_114" style="mask-type:luminance" maskUnits="userSpaceOnUse" x="0" y="-86" width="1440" height="793"><path d="M1440-86H0v793h1440V-86Z" fill="#fff"/></mask><g mask="url(#mask0_4_114)"><path d="M1291 980c342.97 0 621-278.031 621-621 0-342.9688-278.03-621-621-621-342.969 0-621 278.0312-621 621 0 342.969 278.031 621 621 621Z" fill="#2637EF"/><path d="M1291 929c314.8 0 570-255.198 570-570 0-314.8023-255.2-570-570-570-314.802 0-570 255.1977-570 570 0 314.802 255.198 570 570 570Z" stroke="#1B127D" stroke-width="2"/><path d="M1291 884c289.95 0 525-235.051 525-525 0-289.9495-235.05-525-525-525S766 69.0505 766 359c0 289.949 235.05 525 525 525Z" stroke="#1B127D" stroke-width="2"/><path d="M1291 773.698c229.03 0 414.7-185.667 414.7-414.698 0-229.031-185.67-414.698-414.7-414.698S876.302 129.969 876.302 359c0 229.031 185.668 414.698 414.698 414.698Z" fill="#1C0D3F"/><path d="M801 658c3.314 0 6-2.686 6-6s-2.686-6-6-6-6 2.686-6 6 2.686 6 6 6ZM792 529c3.314 0 6-2.686 6-6s-2.686-6-6-6-6 2.686-6 6 2.686 6 6 6ZM842 94c3.314 0 6-2.6863 6-6s-2.686-6-6-6-6 2.6863-6 6 2.686 6 6 6ZM722 388c3.314 0 6-2.686 6-6s-2.686-6-6-6-6 2.686-6 6 2.686 6 6 6Z" fill="#1B127D"/></g></g><defs><clipPath id="clip0_4_114"><path fill="#fff" d="M0-86h1440v793H0z"/></clipPath></defs></svg>