<svg width="869" height="1907" viewBox="0 0 869 1907" fill="none" xmlns="http://www.w3.org/2000/svg">
<g clip-path="url(#clip0_532_2563)">
<path d="M1376.19 757.679C1374.95 756.602 1373.56 755.709 1372.06 755.025C1361.33 750.719 1350.78 747.051 1340.6 742.255C1316.27 731.101 1293.56 716.718 1273.07 699.492C1257.47 686.536 1242.75 672.545 1229.03 657.614C1209.3 636.952 1191.15 614.845 1174.72 591.477C1160.85 571.603 1150.31 550.15 1146.37 525.223C1144.29 513.31 1143.23 501.24 1143.2 489.146C1143.02 464.235 1145.65 439.598 1147.64 415.132C1149.3 394.516 1150.72 374.304 1151.65 353.54C1152.67 336.846 1150.96 320.098 1146.57 303.958C1142.73 291.062 1136.38 279.053 1127.87 268.623C1115.7 254.209 1101.1 242.037 1084.73 232.659C1059.89 217.776 1034.24 207.553 1007.28 205.203C996.49 204.233 985.609 204.957 975.037 207.348C968.323 209.206 961.75 211.539 955.367 214.328C944.316 218.784 933.952 224.784 924.585 232.149C905.894 246.279 888.908 262.534 873.969 280.585C857.209 300.942 843.354 323.524 832.801 347.688C820.686 375.209 809.871 403.75 797.842 431.59C787.425 455.237 776.604 478.651 765.783 502.065C760.372 513.772 754.728 525.883 748.998 537.675C738.706 559.238 728.414 580.8 718.208 602.681C713.88 612.047 709.636 621.731 705.712 631.33C698.794 647.523 693.574 664.39 690.136 681.66C687.562 694.736 687.68 708.2 690.482 721.229C693.039 731.989 697.731 742.126 704.281 751.038C713.37 763.011 724.153 773.597 736.293 782.463C757.799 798.924 779.834 813.534 800.492 831.932C816.494 845.888 830.987 861.486 843.732 878.469C857.497 896.662 870.56 916.069 883.772 934.752C900.67 958.261 918.736 979.747 937.44 1001.06C948.133 1012.9 958.593 1025.14 968.819 1037.78C982.03 1054.16 993.621 1071.78 1003.43 1090.39C1010.35 1104.09 1016.21 1118.29 1020.97 1132.88C1026.43 1150.05 1030.14 1167.73 1032.03 1185.64C1034.56 1209.71 1034.65 1233.97 1032.29 1258.06C1029.26 1287.59 1022.76 1315.66 1016.99 1343.87C1013.3 1358.21 1012.19 1373.1 1013.72 1387.83C1014.77 1395.02 1017.31 1401.91 1021.19 1408.05C1025.07 1414.09 1030.18 1419.24 1036.19 1423.18C1052.88 1434.43 1068.66 1434.65 1083.82 1426.14C1093.98 1420.68 1101.76 1411.42 1109.45 1401.84C1119.41 1389.25 1129.29 1376.35 1139.65 1364C1152.74 1348.15 1168.21 1334.43 1185.51 1323.33C1193.15 1318.71 1201.05 1314.54 1209.17 1310.84C1215.88 1307.63 1222.79 1304.86 1229.86 1302.56C1242.48 1298.39 1255.57 1295.8 1268.83 1294.85C1280.01 1293.56 1291.26 1292.94 1302.52 1293.01C1318.24 1293.53 1333.86 1295.76 1349.1 1299.67C1370.02 1305.01 1390.02 1313.32 1408.08 1329.68C1416.59 1337.33 1422.96 1347.05 1426.58 1357.89C1430.71 1370.03 1431.84 1382.98 1429.86 1395.65C1427.65 1412.37 1422.5 1428.57 1414.64 1443.49C1404.47 1462.47 1390.58 1479.21 1373.81 1492.72C1361.86 1502.3 1348.99 1510.68 1335.38 1517.72C1329.19 1520.99 1322.56 1523.76 1316.18 1526.44L1314.95 1526.96C1310.1 1529.28 1305.08 1530.97 1300.15 1532.97C1291.3 1536.76 1282.27 1540.1 1273.08 1542.96C1252.11 1548.92 1230.91 1555.29 1209.17 1558.38C1204.22 1559.02 1199.43 1560.3 1194.56 1561.27L1185.69 1562.62C1179.78 1563.52 1173.46 1564.18 1167.46 1564.77C1162.51 1565.41 1157.23 1566.14 1152.28 1566.78C1146.15 1567.01 1140.06 1567.73 1134.05 1568.93C1122.88 1571.92 1111.48 1575.32 1100.49 1578.95C1092.6 1581.41 1085.29 1584.73 1077.89 1587.74C1069.85 1590.92 1061.9 1594.42 1053.37 1597.05C1046.41 1598.85 1039.34 1600.17 1032.21 1601.01C1019.05 1602.98 1005.65 1602.64 992.616 1599.99C974.947 1597.02 958.481 1589.1 945.128 1577.16C939.936 1572.38 935.207 1567.12 931.005 1561.45C922.342 1549.54 915.58 1536.36 910.961 1522.38C906.671 1510.19 902.933 1497.52 898.642 1485.33C894.622 1472.79 887.13 1461.64 877.032 1453.17C864.488 1443.24 841 1435 811.5 1426.14C782 1417.28 821.883 1401.83 851.5 1401.83C881.118 1401.83 894.52 1402.33 905.326 1401.83C922.632 1401.38 939.098 1394.27 951.296 1381.99C963.213 1369.36 973.326 1355.14 981.347 1339.74C993.05 1318.39 1001.65 1295.48 1006.88 1271.7C1013.96 1243.24 1015.55 1213.69 1011.58 1184.63L1011.58 1184.62C1010.4 1176.39 1009.22 1168.16 1007.32 1159.78C1005.55 1151.26 1003.29 1142.85 1000.57 1134.58C996.197 1123.34 991.198 1112.35 985.593 1101.67C974.316 1080.59 960.246 1061.13 943.764 1043.81L897.755 994.598C881.755 977.148 867.238 958.393 854.354 938.531C842.355 920.548 830.186 901.927 817.72 884.753C804.561 866.608 789.037 850.3 771.563 836.262C756.38 824.261 740.964 812.664 725.867 800.982C714.205 792.42 703.297 782.875 693.264 772.451C681.748 760.088 673.676 744.921 669.853 728.464C667.971 719.956 667.472 711.201 668.375 702.534C669.653 683.962 674.145 665.753 681.649 648.717C686.803 636.053 691.639 623.475 697.283 611.363C706.322 591.504 716.169 572.112 725.613 552.487C728.244 546.995 731.109 541.099 733.655 535.289L733.66 535.278C737.987 525.916 742.313 516.554 746.321 507.278C752.581 493.634 759.159 479.904 764.928 465.708C773.392 444.978 781.365 423.695 789.424 402.731C795.404 386.768 800.979 370.573 807.364 354.844L807.365 354.841C812.434 341.859 817.502 328.878 823.379 316.363C831.792 298.703 842.416 282.184 854.996 267.204C863.557 257.047 872.204 247.208 881.659 237.836C898.579 220.2 917.643 204.755 938.404 191.86C950.381 184.737 963.54 179.822 977.254 177.348C991.873 175.191 1006.78 176.086 1021.04 179.976C1040.75 184.847 1059.9 191.746 1078.18 200.564C1093.75 208.108 1108.89 216.491 1123.55 225.677C1135.9 233.468 1147.15 242.869 1157.02 253.633C1166.41 263.889 1173.13 276.291 1176.61 289.752C1181.23 307.222 1182.62 325.387 1180.72 343.356C1179.51 361.802 1177.57 380.099 1175.96 398.311C1173.59 420.626 1172.52 443.059 1172.76 465.497C1172.94 480.596 1174.35 495.656 1176.96 510.528C1179.59 523.949 1183.35 537.124 1188.2 549.912C1197.99 574.982 1212.29 596.451 1227.7 616.94C1244.18 638.968 1263 659.145 1283.83 677.119C1302.16 693.033 1322.54 706.431 1344.42 716.956C1351.12 720.288 1358.06 723.215 1365.09 726.462C1366.01 727.062 1366.88 727.744 1367.69 728.501" stroke="#DFE4E8" stroke-linecap="round" stroke-linejoin="round"/>
<path d="M598.555 -171.8C597.923 -166.502 596.972 -161.119 596.34 -155.821C595.145 -141.141 594.27 -126.546 593.075 -111.866C591.23 -89.7328 591.47 -67.4753 593.792 -45.3872C595.126 -32.7524 597.098 -20.2888 599.389 -7.91045C604.468 22.5257 614.735 51.9136 621.813 82.156C629.404 114.312 630.164 145.221 620.243 174.548C614.371 192.191 605.988 208.114 593.77 219.935C588.419 225.59 581.907 230.017 574.681 232.913C567.871 235.478 560.894 237.577 553.799 239.193C545.507 240.649 537.094 241.3 528.677 241.137C507.127 241.099 485.406 240.423 463.856 240.385C454.635 240.963 445.453 242.053 436.353 243.652C432.151 243.927 427.997 244.696 423.975 245.943C409.643 251.15 395.567 257.315 385.542 270.942C380.51 277.73 377.231 285.655 375.997 294.014C375.249 299.684 375.771 305.45 377.525 310.893C379.279 316.336 382.222 321.321 386.139 325.487C394.144 334.428 404.537 340.896 416.094 344.129C433.982 349.897 452.815 352.164 471.561 350.807C482.462 350.293 493.31 348.986 504.02 346.896C518.95 343.921 533.624 339.989 548.298 336.057C556.273 333.92 563.906 330.507 571.796 328.052C577.772 325.768 583.862 323.793 590.041 322.137C606.886 318.649 623.947 318.523 641.02 328.65C655.986 337.29 666.788 350.807 673.511 369.52C679.78 388.408 682.106 408.381 680.346 428.205C678.805 455.628 672.262 480.973 664.272 506.021C655.986 532.516 644.464 557.144 633.665 581.919C623.863 604.034 613.081 625.043 603.684 647.391C594.124 668.88 587.785 691.661 584.874 714.999C583.049 731.469 583.708 748.12 586.827 764.394C591.58 789.789 603.39 810.899 618.687 829.708C632.024 846.306 647.549 859.584 663.158 873.18C683.155 890.388 703.322 908.233 719.644 930.87C729.519 944.824 738.36 959.482 746.097 974.725C756.609 994.816 766.335 1015.8 778.59 1034.74C789.994 1052.34 803.708 1068.33 819.364 1082.28C835.464 1096.43 851.797 1110.17 867.663 1124.73C878.862 1134.75 888.366 1146.52 895.807 1159.58C906.871 1179.18 910.747 1200.03 905.177 1221.35C902.133 1234.15 895.189 1245.69 885.305 1254.37C877.004 1262.04 867.077 1267.74 856.266 1271.04C851.8 1272.24 847.59 1274.39 843.357 1275.18C834.573 1276.85 825.704 1278.2 816.835 1279.55C807.965 1280.9 799.01 1281.94 790.055 1282.97C783.419 1283.72 776.612 1283.83 770.294 1284.5C764.934 1284.91 759.425 1286.05 754.151 1286.78C747.195 1287.61 739.921 1288.54 733.051 1289.69C681.861 1299.27 626.753 1313.77 590.5 1364C532.03 1445.02 520.207 1576.98 635 1616.5C696 1637.5 740.714 1617.49 802.5 1641C883.237 1671.73 1003.5 1739 1003.5 1904.5" stroke="#DFE4E8" stroke-linecap="round" stroke-linejoin="round"/>
<path d="M584.982 -168.858C583.912 -156.263 582.523 -143.582 581.453 -130.987C578.448 -100.094 576.571 -68.8204 579.672 -36.8289C580.858 -23.4706 582.768 -9.96364 584.678 3.5427C586.393 15.0496 588.747 26.3855 590.781 37.8069C594.936 60.9687 599.091 84.13 599.247 107.679C599.192 132.995 593.645 155.679 581.308 174.712C573.63 186.457 562.946 195.931 550.367 202.15C540.015 206.914 529.084 210.302 517.852 212.229C507.402 213.989 496.853 215.103 486.265 215.564L460.101 217.447C453.698 217.795 447.295 218.143 440.978 218.81C438.659 219.09 436.022 219.454 433.703 219.734C423.824 221.47 414.069 223.855 404.503 226.874C389.994 231.46 376.896 239.677 366.453 250.746C354.257 263.929 345.15 279.703 344.879 301.657C344.666 310.155 346.432 318.585 350.037 326.282C353.642 333.979 358.988 340.733 365.652 346.009C379.706 357.629 395.179 363.056 410.947 367.037C425.937 370.733 441.28 372.812 456.713 373.236C470.818 373.56 484.985 372.841 498.834 372.207C507.321 371.984 515.639 371.124 523.955 370.263C530.273 369.596 536.015 368.057 542.332 367.39C550.245 366.295 558.561 365.435 566.559 364.659C575.6 363.947 584.959 363.148 594.17 363.073C606.73 362.803 619.086 366.276 629.666 373.05C640.407 380.071 648.654 390.307 653.23 402.295C659.674 418.689 660.353 435.26 659.671 451.854C658.122 474.397 653.622 496.638 646.284 518.009C638.902 540.12 630.335 561.818 620.621 583.009C610.586 605.528 599.741 627.58 590.11 650.333C580.631 672.01 574.455 694.985 571.79 718.494C570.057 738.838 571.51 759.329 576.097 779.225C579.391 791.116 583.963 802.614 589.731 813.522C601.7 834.445 616.917 853.333 634.813 869.481C648.486 882.229 662.073 894.658 675.427 907.491C694.778 926.349 710.921 948.238 723.221 972.296C732.924 991.92 742.627 1011.54 752.968 1031C762.051 1048.68 773.251 1065.2 786.319 1080.18C799.909 1095.03 814.489 1108.95 829.958 1121.83C842.972 1132.47 854.708 1144.58 864.933 1157.93C870.318 1165.22 874.46 1173.35 877.194 1182C880.547 1192.44 880.568 1203.66 877.253 1214.12C872.45 1227.6 862.494 1238.63 849.571 1244.78C839.525 1249.42 828.958 1252.82 818.098 1254.93C809.557 1256.47 800.936 1257.52 792.276 1258.09C785.321 1258.92 778.451 1260.08 771.41 1260.6C764.369 1261.12 757.009 1261.72 749.735 1262.65C744.46 1263.38 738.866 1264.19 733.591 1264.92C725.678 1266.02 718.085 1267.02 710.258 1268.44C663.505 1280.62 586.287 1311.11 552 1378C509.064 1461.77 511.61 1590.5 578 1615.5C644.39 1640.5 686.515 1627.93 755.5 1639.5C818.098 1650 879.927 1680.91 931.5 1734C948.818 1751.83 989.5 1808 989.5 1904.5" stroke="#DFE4E8" stroke-linecap="round" stroke-linejoin="round"/>
<path d="M1502 1227.21C1499.5 1230.62 1497.07 1234.35 1494.57 1237.75C1488.07 1246.68 1481.57 1255.6 1474.99 1264.2C1469.59 1271.63 1461.97 1277.15 1453.22 1279.95C1446.75 1281.43 1440.06 1281.59 1433.52 1280.44C1421.71 1278.47 1410.29 1275.38 1398.62 1272.69C1362.14 1263.22 1324.5 1258.92 1286.82 1259.91C1279.05 1260.28 1271.29 1260.66 1263.7 1261.66C1253.78 1262.95 1244.04 1264.88 1234.22 1266.49C1228.07 1267.22 1222.03 1268.61 1216.18 1270.64C1206.46 1273.92 1196.77 1278.57 1187.14 1282.18C1174.37 1287.45 1162.14 1293.93 1150.61 1301.54C1143.23 1305.91 1136.84 1311.38 1129.55 1316.07C1117.66 1324.04 1106.19 1332.25 1094.05 1339.26C1086.03 1343.8 1077.42 1346.11 1067.88 1341.14C1061.62 1337.83 1056.83 1332.27 1054.48 1325.59C1049.81 1314.53 1049.86 1303.23 1049.59 1292.02C1049.14 1269.92 1049.82 1248.2 1049.68 1226.01C1049.88 1205.36 1048.35 1184.72 1045.12 1164.32C1043.6 1154.82 1041.67 1145.08 1039.83 1135.65C1038.36 1128.87 1037.11 1121.68 1034.92 1114.75C1029.2 1096.13 1021.74 1078.1 1012.62 1060.89C1005.18 1047.16 996.867 1034 988.321 1021.24C971.804 996.607 952.292 974.825 934.437 951.573C918.223 930.617 902.795 908.767 887.047 887.002C867.529 860.093 846.991 834.483 823.246 813.493C808.953 800.752 793.991 788.783 778.422 777.637C769.182 771.224 759.941 764.81 750.935 757.992C738.663 749.053 727.745 738.39 718.518 726.333C709.031 713.387 703.889 697.769 703.829 681.719C703.685 665.485 706.424 649.354 711.92 634.078C719.972 607.987 731.751 584.317 742.401 560.265C748.809 545.898 756.025 531.998 762.837 517.864C770.349 502.517 777.776 486.852 785.608 471.419C804.05 434.339 820.299 395.452 837.442 357.352C846.969 335.106 858.831 313.934 872.829 294.192C888.277 272.389 907.164 253.24 928.753 237.495C937.294 230.998 946.696 225.718 956.688 221.804C961.387 220.203 965.83 217.645 970.615 216.363C991.378 210.888 1013.31 211.804 1033.55 218.989C1045.46 223.111 1056.83 228.677 1067.39 235.563C1079.62 243.629 1090.56 253.492 1099.85 264.818C1106.9 273.647 1112.35 283.64 1115.96 294.347C1123.2 314.974 1123.63 335.715 1123.1 356.713C1121.95 382.099 1119.49 407.409 1115.72 432.54C1114.04 446.668 1112.04 460.88 1110.44 475.327C1108.48 490.886 1108.45 506.626 1110.34 522.192C1112.87 539.922 1119.73 556.756 1130.31 571.204C1142.95 589.016 1157.77 603.506 1172.36 618.401C1191.11 637.312 1210.17 656.138 1229.47 674.559C1239.97 684.396 1250.93 693.424 1261.9 702.452C1284.3 720.793 1309.18 735.881 1335.79 747.272C1348.22 752.83 1360.95 756.943 1373.53 761.778C1374.76 762.461 1376.06 763.029 1377.4 763.475" stroke="#DFE4E8" stroke-linecap="round" stroke-linejoin="round"/>
<path d="M572.224 -165.439C570.92 -152.44 569.298 -139.354 568.313 -126.44C565.689 -101.883 564.313 -77.2072 564.19 -52.51C564.659 -34.1729 566.17 -15.7735 568.319 2.4553C571.368 26.597 574.737 50.653 576.659 74.4132C578.837 99.1303 576.356 123.045 566.212 143.883C559.654 157.863 549.124 169.603 535.938 177.638C523.332 185.46 509.125 188.583 495.003 192.025C487.095 193.393 479.111 194.277 471.095 194.671C464.778 195.338 458.227 196.409 451.91 197.076C445.592 197.744 438.551 198.263 432.234 198.93C429.34 199.083 426.456 199.398 423.598 199.875C412.334 201.986 401.2 204.741 390.251 208.127C371.72 214.528 355.366 226.019 343.064 241.285C329.272 257.542 320.926 277.715 319.2 298.965C318.101 309.591 319.539 320.327 323.397 330.289C327.256 340.251 333.423 349.156 341.393 356.27C355.385 368.932 371.114 375.317 387.053 379.935C404.543 385.285 422.621 388.478 440.886 389.444C455.162 390.405 469.266 390.729 483.371 391.052C496.029 391.08 508.92 390.703 521.492 390.411C535.426 390.097 549.36 389.782 563.379 389.786C576.904 389.529 590.344 391.972 602.914 396.972C615.864 402.319 626.348 412.315 632.305 424.997C637.276 435.859 639.748 447.698 639.536 459.643C639.572 481.764 635.991 503.743 628.935 524.709C619.675 555.226 606.518 582.685 593.852 610.696C582.496 634.574 573.002 659.293 565.455 684.634C558.414 708.728 556.118 733.96 558.694 758.929C563.127 796.872 579.361 832.465 605.107 860.687C619.634 876.625 635.267 891.583 650.58 906.626C671.203 926.072 688.664 948.618 702.334 973.448C710.521 988.691 717.603 1004.91 724.919 1020.73C730.229 1031.62 734.901 1042.68 740.53 1053.48C747.991 1067.68 756.55 1081.27 766.128 1094.14C778.677 1110.04 792.201 1125.14 806.623 1139.36C815.512 1147.72 823.41 1157.08 830.164 1167.24C836.345 1177.56 839.975 1188.55 835.288 1200.4C832.659 1207.65 827.456 1213.66 820.672 1217.31C811.455 1223.02 801.038 1226.52 790.242 1227.52C785.634 1228.07 781.071 1228.95 776.587 1230.15C768.76 1231.56 761.082 1232.25 753.255 1233.67L743.428 1235.28C735.601 1236.69 727.541 1238.51 719.628 1239.6C712.439 1240.84 705.399 1241.36 698.21 1242.6C661.306 1250.9 577.9 1283.9 539.5 1349.5C491.5 1431.5 428.419 1605 539.5 1633.5C650.58 1662 700.838 1621.87 790.242 1663.5C853.161 1692.8 940 1750.5 962 1905.5" stroke="#DFE4E8" stroke-linecap="round" stroke-linejoin="round"/>
<path d="M620.073 -178.261C618.657 -152.922 617.156 -127.902 616.463 -102.416C616.048 -85.5797 617.351 -68.7448 620.352 -52.1729C622.985 -38.5185 627.213 -25.2919 631.122 -11.9795C634.639 -0.883311 639.443 9.76376 645.434 19.7438C652.947 33.4861 663.054 45.6397 675.196 55.532C686.795 64.6839 701.271 69.4102 716.036 68.8645C727.247 68.5958 738.434 66.9654 749.708 65.6542C766.746 64.166 783.807 64.039 801.365 69.5916C810.266 72.3527 818.372 77.2174 824.995 83.774C836.241 95.1205 839.256 107.647 834.871 123.182C831.535 133.958 825.751 143.817 817.972 151.985C805.714 166.211 791.069 176.631 776.105 187.137C762.884 196.492 749.896 205.442 739.553 219.155C731.017 231.024 725.552 244.822 723.646 259.316C720.754 277.87 722.117 296.993 722.352 315.735C722.61 335.838 723.272 356.175 721.679 375.748C718.718 411.02 711.253 445.767 699.466 479.142C695.035 491.954 690.519 504.447 685.364 517.111C679.828 530.903 674.292 544.694 668.033 558.338C660.077 575.856 651.311 592.907 642.95 610.191C630.346 637.159 617.423 664.213 611.057 695.322C607.728 710.697 606.885 726.506 608.56 742.148C610.867 762.212 618.007 781.417 629.369 798.115C639.919 813.004 652.372 826.45 666.411 838.108C684.619 853.743 703.464 869.207 721.438 885.247C737.466 900.257 751.199 917.544 762.195 936.552C773.322 955.11 783.897 974.159 794.471 993.207C808.218 1017.47 825.851 1039.31 846.669 1057.86C863.429 1073.2 880.657 1087.73 897.503 1103.39C911.214 1116.2 922.56 1131.33 931.019 1148.08C947.525 1181.61 949.926 1214.82 937.095 1247.32C930.996 1262.98 920.897 1276.77 907.806 1287.3C901.374 1292.92 893.987 1297.33 885.996 1300.33C877.532 1303.85 868.826 1306.75 859.946 1309.02C851.192 1310.96 842.338 1312.42 833.423 1313.39C825.83 1314.4 818.322 1315.73 811.047 1316.65C803.773 1317.57 796.647 1317.77 789.372 1318.7C783.693 1319.19 778.184 1320.33 772.59 1321.14C722.894 1329.26 640.5 1361 629 1413C617.5 1465 634 1550.5 707 1570C780 1589.5 792.847 1596 833.423 1628.5C874 1661 939 1674 968 1704.5C997 1735 1032 1770 1032 1905.5" stroke="#DFE4E8" stroke-linecap="round" stroke-linejoin="round"/>
<path d="M1488.58 1177.13C1486.76 1179.01 1484.84 1180.78 1482.82 1182.44C1475.47 1188.17 1467.8 1193.99 1460.27 1199.08C1450.6 1205.99 1440.55 1212.33 1430.15 1218.09C1423.14 1221.67 1415.7 1224.35 1408.02 1226.07C1395.84 1228.18 1383.57 1229.65 1371.24 1230.46C1353.07 1231.56 1334.74 1232.03 1316.48 1232.82C1302.64 1233.45 1288.38 1233.85 1274.53 1234.49C1268.13 1234.84 1261.58 1235.91 1255.26 1236.57C1246.63 1237.52 1238.31 1238.38 1229.76 1239.65C1226.17 1240.27 1222.49 1240.57 1219.3 1241.43C1202.3 1245.64 1184.99 1249.93 1168 1254.14C1160.66 1256.11 1153.35 1259.44 1145.84 1260.77C1136.42 1262.61 1127.4 1264.68 1117.44 1263.25C1103.87 1261.07 1094.43 1252.66 1089.29 1237.28C1086.09 1227.88 1083.2 1218.4 1080.96 1208.74C1078.71 1199.09 1077.74 1189.09 1075.82 1179.35C1074.49 1171.84 1072.52 1164.51 1071.51 1156.91C1068.19 1138.36 1063.74 1120.03 1058.17 1102.02C1054.66 1090.15 1050.51 1078.48 1045.73 1067.06C1038.32 1049.25 1029.49 1032.07 1019.31 1015.68C1009.59 999.819 999.233 984.131 989.28 968.678C977.772 951.247 966.03 934.221 954.607 917.11C944.995 902.932 935.384 888.754 926.092 874.491C905.371 843.386 879.748 815.844 850.218 792.934C840.721 785.563 831.139 777.874 821.409 770.908C807.463 760.969 793.05 751.838 779.423 741.813C766.854 733.155 755.794 722.488 746.688 710.24C741.029 702.762 737.082 694.132 735.127 684.96C733.601 676.407 733.105 667.701 733.65 659.029C735.166 640.9 739.516 623.122 746.542 606.341C751.993 592.23 757.358 577.801 763.702 564.476C772.593 545.341 781.974 526.758 791.354 508.175C797.551 495.573 803.833 483.291 810.115 471.008C819.496 452.425 828.877 433.843 838.172 414.941C841.589 408.555 844.197 401.701 847.615 395.315C861.239 367.048 874.629 339.185 892.81 315.167C907.847 294.727 925.334 277.049 946.04 265.004C952.864 261.124 960.264 258.116 967.259 254.874C978.734 250.157 991.227 248.457 1003.55 249.937C1014.95 251.247 1025.96 254.938 1035.85 260.77C1047.13 267.109 1056.92 275.795 1064.56 286.242C1074.29 299.629 1080.58 315.205 1082.87 331.596C1086.78 356.009 1086.28 380.926 1081.38 405.161C1075.69 433.696 1068.87 461.849 1062.38 489.916C1058.88 503.911 1057.11 518.28 1057.09 532.704C1057.22 541.179 1058.22 549.617 1060.08 557.888C1063.68 573.085 1071.43 586.986 1082.46 598.046C1093 608.342 1104.72 617.367 1117.36 624.937C1139.05 638.483 1160 653.186 1180.11 668.983C1197.89 683.024 1215.14 698.915 1232.68 713.36C1254.53 731.097 1276.76 747.706 1300.6 760.123C1316.18 768.413 1332.37 775.505 1349.02 781.338C1360.71 785.387 1372.54 788.714 1384.22 792.763C1385.36 793.282 1386.44 793.908 1387.46 794.631" stroke="#DFE4E8" stroke-linecap="round" stroke-linejoin="round"/>
<path d="M559.959 -161.458C559.663 -160.011 558.962 -158.798 558.666 -157.351C556.389 -140.329 554.112 -123.308 552.558 -106.138C550.356 -79.9055 548.153 -53.6724 550.292 -26.5513C552.128 -3.1102 554.369 20.564 556.205 44.0051C557.848 65.4467 558.533 87.1453 553.75 107.574C548.226 131.619 536.333 148.482 518.818 159.671C506.297 167.813 492.09 170.935 477.969 174.377C468.689 176.115 459.324 177.37 449.914 178.134C441.278 179.08 432.79 179.303 424.154 180.249C417.518 181.002 411.052 182.393 404.82 183.379C397.398 185.026 389.804 186.035 382.872 188.234C366.333 193.328 351.15 202.07 338.441 213.815C322.198 229.087 309.805 247.992 302.279 268.978C296.163 284.341 293.355 300.821 294.04 317.343C294.438 327.273 296.942 337.004 301.387 345.893C305.832 354.782 312.115 362.624 319.821 368.899C331.856 379.013 345.756 386.672 360.735 391.443C380.188 398.258 400.419 402.601 420.955 404.369C445.826 406.594 470.612 408.5 495.46 409.364C517.267 410.359 539.136 410.311 560.903 413.71C573.15 415.154 584.873 419.517 595.083 426.434C604.156 432.833 611.091 441.817 614.983 452.214C621.45 469.97 621.025 487.521 618.428 504.628C615.674 523.212 610.54 541.364 603.155 558.638C597.152 573.239 591.468 587.755 585.465 602.355C581.775 611.55 576.871 620.044 573.18 629.238C564.102 651.501 555.109 674.083 550.075 698.681C545.158 720.777 543.863 743.526 546.242 766.038C547.427 777.921 549.771 789.66 553.24 801.087C559.349 820.82 568.501 839.478 580.366 856.387C595.389 878.004 613.067 895.491 630.683 914.021C641.12 924.9 650.685 936.355 660.569 947.724C672.185 962.076 681.926 977.849 689.558 994.661C695.785 1007.69 701.056 1020.98 706.645 1034.19C717.738 1060.28 728.832 1086.37 742.306 1111.13C748.511 1122.81 754.482 1134.88 760.453 1146.96C769.005 1164.84 766.682 1179.14 754.036 1189.36C747.319 1194.43 739.842 1198.39 731.883 1201.11C724.961 1204.03 717.858 1206.51 710.619 1208.52C659.579 1225.85 537.9 1279.2 497.5 1386C447 1519.5 389.5 1728.5 517.5 1691.5C645.5 1654.5 675.612 1660.5 742.306 1686C809 1711.5 901 1804.5 915 1903" stroke="#DFE4E8" stroke-linecap="round" stroke-linejoin="round"/>
<path d="M1476.36 1131.52C1476.41 1131.97 1476.41 1132.42 1476.38 1132.88C1461.2 1140.02 1447.75 1149.78 1433.72 1158.67C1422.3 1165.83 1411.2 1172.91 1399.53 1179.11C1392.19 1182.8 1384.55 1185.88 1376.7 1188.31C1371.53 1190.55 1366.17 1192.33 1360.68 1193.62C1351.26 1195.47 1342.07 1196.9 1332.57 1198.42C1326.97 1199.24 1321.46 1200.37 1315.78 1200.87C1309.47 1201.54 1303.15 1202.2 1296.75 1202.55C1289.07 1203.24 1281.39 1203.93 1273.62 1204.3C1268.26 1204.71 1262.82 1204.8 1257.46 1205.21C1249.78 1205.9 1242.1 1206.59 1234.34 1206.97C1225.3 1207.68 1216.17 1208.07 1206.72 1208.55C1197.28 1209.03 1188.32 1210.06 1179.11 1210.14C1167.18 1210.26 1155.39 1209.66 1143.37 1204.33C1130.9 1198.13 1121.06 1187.67 1115.63 1174.84C1110.98 1165.15 1107.24 1155.05 1104.47 1144.66C1101.22 1132.54 1097.57 1120.19 1094 1108.15C1090.44 1096.11 1086.47 1083.84 1081.94 1072.06C1072.75 1046.98 1061.65 1022.63 1048.75 999.241C1037.43 978.683 1025.47 958.296 1014.39 937.333C1003.47 917.009 993.425 896.109 982.828 875.699C973.894 858.947 965.365 842.427 955.645 826.569C946.01 811.329 934.05 797.691 920.198 786.149C901.181 770.047 880.405 758.861 860.096 746.865C845.854 738.373 831.845 729.477 817.603 720.984C804.761 713.22 793.327 703.335 783.786 691.752C775.645 681.713 770.499 669.584 768.938 656.754C766.578 640.291 769.453 625.503 773.138 611.181C778.651 589.562 786.576 568.63 796.762 548.78C808.774 524.705 821.913 501.011 834.415 477.489C846.069 455.904 857.488 434.723 869.227 413.457C879.585 393.644 890.973 374.387 903.345 355.766C913.027 341.148 924.851 328.067 938.42 316.963C948.146 309.128 959.535 303.621 971.716 300.862C989.454 298.161 1006.27 302.203 1019.88 321.121C1024.32 327.511 1027.71 334.565 1029.93 342.02C1033.98 357.187 1035.2 372.974 1033.51 388.584C1031.67 412.327 1025.06 433.587 1019.25 455.314C1014.57 472.296 1009.89 489.278 1006.43 506.96C1002.54 526.458 1001.55 546.423 1003.5 566.21C1004.96 583.199 1010.08 599.671 1018.49 614.504C1026.33 627.886 1037.33 639.143 1050.52 647.291C1064.84 655.3 1079.89 661.914 1095.48 667.043C1117.48 675.164 1139.26 683.69 1159.76 697.685C1176.45 708.939 1192.99 720.918 1209.54 732.896C1220.57 740.882 1231.53 749.909 1242.56 757.895C1264.26 773.901 1287.9 787.096 1312.92 797.167C1328.56 803.232 1344.44 808.893 1360.23 814.235C1370.7 817.584 1381.23 819.89 1391.62 822.92C1392.75 823.439 1393.84 824.065 1394.85 824.788" stroke="#DFE4E8" stroke-linecap="round" stroke-linejoin="round"/>
<path d="M541.598 -157.233C539.321 -140.212 537.043 -123.19 534.852 -105.85C531.192 -80.6257 529.557 -55.1485 529.965 -29.6634C530.348 -11.6452 531.774 6.43548 532.795 24.2827C533.948 45.1718 534.781 66.1464 530.636 86.4037C526.786 105.214 518.551 120.413 505.672 131.043C496.551 138.382 485.957 143.67 474.61 146.547C462.499 149.742 450.116 151.801 437.622 152.696C425.859 153.455 414.096 154.214 402.504 155.61C393.054 156.723 383.669 158.324 374.386 160.409C367.354 161.78 360.426 163.637 353.651 165.965C342.591 170.341 332.35 176.553 323.358 184.339C308.051 198.624 295.446 215.553 286.147 234.312C275.378 254.544 267.362 276.125 262.313 298.481C259.265 311.536 258.597 325.035 260.339 338.328C262.539 352.676 269.21 365.964 279.403 376.299C293.013 390.089 309.084 397.75 325.217 404.368C343.37 411.467 362.266 416.497 381.546 419.362C409.505 424.179 437.504 426.592 465.417 428.686C483.224 430.069 501.117 431.77 518.862 434.195C533.086 435.587 546.995 439.248 560.061 445.038C570.792 449.682 579.823 457.533 585.913 467.514C589.673 473.838 592.235 480.802 593.469 488.056C596.815 510.75 592.669 531.008 586.354 550.821C582.094 564.271 576.706 577.339 571.637 590.322C566.95 602.177 561.858 613.798 557.086 625.334C547.239 648.3 539.305 672.038 533.365 696.309C527.742 720.503 525.998 745.436 528.199 770.176C528.889 777.855 530.217 785.364 531.545 792.872C532.444 798.985 533.831 805.015 535.694 810.906C541.77 831.424 550.588 851.027 561.909 869.186C575.827 891.783 592.805 910.483 609.634 929.907C624.993 947.673 639.8 965.929 651.463 987.763C657.429 998.647 662.625 1009.94 667.012 1021.55C670.128 1030.63 673.65 1039.94 676.767 1049.02C681.336 1063.52 685.587 1078.11 689.2 1092.87C692.576 1105.46 693.423 1118.6 691.693 1131.52C690.675 1138.38 688.054 1144.89 684.042 1150.54C627.528 1179.36 525.464 1220.91 477 1311C447.271 1366.26 451 1409 438.5 1467C426 1525 315 1821.5 404 1790.5C493 1759.5 558.678 1679.76 669 1689.5C752.224 1696.85 872.5 1782.5 896.5 1905.5" stroke="#DFE4E8" stroke-linecap="round" stroke-linejoin="round"/>
<path d="M610.186 -175.612C609.082 -155.486 607.574 -135.593 606.471 -115.467C605.375 -94.2902 605.92 -73.0606 608.1 -51.9679C609.936 -34.2649 613.586 -16.7969 618.991 0.160529C622.706 11.4735 626.973 22.2965 631.326 33.4385C642.528 61.2082 657.769 86.1864 670.713 112.805C679.183 129.092 681.897 147.764 678.414 165.788C675.39 181.3 672.452 197.131 669.514 212.962C666.328 230.772 667.823 249.103 673.854 266.161C678.401 279.303 684.862 291.932 689.409 305.073C693.35 317.229 696.659 329.58 699.324 342.077C702.19 355.886 703.555 369.964 703.395 384.066C703.598 397.597 702.646 411.12 700.55 424.489C696.833 448.142 691.059 471.425 683.296 494.074C680.243 503.097 677.19 512.12 673.733 520.911C668.813 533.17 663.977 545.748 658.248 557.541C649.357 576.676 639.743 595.664 630.852 614.799C619.735 639.66 607.894 664.373 601.482 692.759C596.974 710.923 595.879 729.765 598.251 748.329C600.974 768.877 608.346 788.534 619.806 805.805C631.363 821.976 644.935 836.608 660.192 849.346C675.717 862.623 691.474 875.496 706.446 889.264C722.734 904.133 736.689 921.371 747.842 940.398C759.8 960.785 770.654 982.152 782.294 1002.62C796.421 1027.94 814.765 1050.66 836.537 1069.8C852.232 1083.72 868.48 1097.15 883.941 1111.47C898.153 1124.05 909.781 1139.28 918.181 1156.31C933.473 1189.14 934.319 1220.37 918.463 1249.23C909.997 1264.75 896.788 1277.16 880.766 1284.63C871.012 1289.68 860.618 1293.39 849.869 1295.65C840.128 1297.57 830.13 1298.54 820.219 1299.83C810.945 1300.95 802.076 1302.3 792.802 1303.42C785.527 1304.34 777.763 1304.71 770.488 1305.64C763.672 1306.42 756.9 1307.55 750.198 1309.02C724.96 1314.79 701.691 1312.87 674.464 1326.24C633.116 1346.53 610.799 1369.31 593.5 1412C566.455 1478.74 578 1571.5 633.5 1592C689 1612.5 726.248 1604.21 782.294 1624C838.333 1643.78 872.344 1654.68 918.181 1692.5C950.901 1719.5 1013.5 1779 1013.5 1904.5" stroke="#DFE4E8" stroke-linecap="round" stroke-linejoin="round"/>
<path d="M1358.76 697.732C1357.95 697.265 1356.97 696.16 1356.16 695.693C1332.81 684.177 1311.16 669.499 1291.82 652.074C1266.89 629.88 1245.7 603.808 1229.08 574.863C1216.74 553.805 1207.83 530.915 1202.7 507.054C1199.99 493.783 1198.11 480.358 1197.06 466.854C1195.85 443.163 1196.58 419.413 1199.23 395.84C1201.71 371.926 1204.51 347.926 1206.59 323.778C1207.88 305.652 1207.1 287.4 1199.99 269.815C1196.72 261.259 1192.16 253.257 1186.45 246.09C1176.77 233.87 1164.86 223.604 1151.34 215.84C1132.97 204.693 1113.98 195.078 1095.08 185.783C1077.79 177.422 1060.36 169.785 1042.46 162.956C1018.75 153.582 994.746 145.654 970.285 148.79C960.589 149.904 951.153 152.663 942.384 156.949C931.38 162.948 921.029 170.076 911.499 178.217C892.215 194.346 873.888 211.586 856.612 229.85L856.598 229.865C848.89 238.08 841.182 246.296 833.964 255.064C822.509 269.033 812.838 284.373 805.172 300.731C794.117 324.549 786.298 350.235 778.565 376.24C769.586 407.838 758.849 438.908 746.404 469.308C734.165 498.914 720.946 527.414 707.897 556.553L700.237 572.624C691.175 591.122 681.795 609.704 673.223 628.754C668.894 638.12 665.779 648.186 661.855 657.785C655.507 674.015 651.557 691.082 650.13 708.451C649.176 722.263 651.065 736.124 655.68 749.178C660.295 762.232 667.538 774.2 676.962 784.344C689.53 798.071 703.647 808.648 717.53 819.63C729.625 829.04 741.634 838.13 753.409 847.626C769.623 860.991 784.163 876.267 796.712 893.12C810.391 910.995 821.775 930.51 833.796 949.854C843.989 967.155 855.797 983.453 869.062 998.528C882.524 1013.04 896.539 1027.07 910.554 1041.09C928.722 1059.13 946.57 1077.25 961.531 1099.91C976.683 1122.55 987.011 1148.06 991.872 1174.87C994.094 1188.38 995.128 1202.06 994.963 1215.75C994.695 1239.13 990.114 1262.27 981.451 1283.99C972.606 1305.85 960.759 1325.43 944.907 1340.28C933.912 1351.31 920.334 1359.41 905.409 1363.86C897.434 1365.99 889.055 1367.9 880.909 1369.4C873.72 1370.64 866.274 1370.92 859 1371.85C851.725 1372.77 843.961 1373.14 836.601 1373.75L836.572 1373.75C788.84 1378.98 726.899 1434.59 809.643 1447.95C827.069 1450.46 842.843 1459.56 855.775 1475.93C863.286 1486.24 869.501 1497.44 874.281 1509.26C884.178 1530.89 894.627 1552.02 909.348 1569.96C921.262 1584.82 936.285 1596.9 953.363 1605.35C965.662 1611.27 978.416 1616.2 991.502 1620.09C1005.91 1624.09 1020.55 1627.69 1035.28 1631.61L1076.33 1643.17C1084.98 1646.35 1094.19 1647.72 1103.39 1647.2C1107.55 1646.46 1111.42 1644.6 1114.6 1641.81C1122.16 1635.89 1129.36 1629.51 1136.14 1622.7C1149.29 1609.21 1164.25 1597.6 1180.59 1588.23C1189.79 1583.02 1199.31 1577.74 1208.69 1573.17C1217.51 1569.1 1226.51 1565.66 1235.42 1561.91C1246.16 1557.32 1256.57 1552.82 1267.4 1548.55C1273.52 1545.89 1280.22 1544.09 1286.66 1541.34C1293.74 1538.42 1300.72 1535.18 1307.71 1531.94L1307.73 1531.93C1313.22 1529.44 1318.47 1527.35 1323.87 1524.53C1332.63 1520.74 1341.2 1516.51 1349.53 1511.84C1361.9 1504.43 1373.79 1496.46 1385.5 1487.85C1407.07 1471.33 1425.13 1450.68 1438.63 1427.11C1446.66 1413.68 1454.19 1399.69 1462.22 1386.26C1466.47 1377.9 1473.02 1370.92 1481.1 1366.16C1488.01 1362.59 1494.76 1363.52 1501.99 1365C1511.89 1367.48 1520.64 1373.34 1529.62 1378.8L1529.63 1378.8C1533.76 1381.45 1537.88 1384.11 1541.78 1387.16C1543.08 1388.18 1544.14 1389.61 1545.53 1390.95" stroke="#DFE4E8" stroke-linecap="round" stroke-linejoin="round"/>
<path d="M769.105 -233.267C781.485 -215.154 796.021 -198.613 812.392 -184.007C830.36 -168.773 850.139 -155.814 871.28 -145.424C885.685 -138.499 899.51 -130.426 912.622 -121.285C925.231 -112.393 935.293 -100.355 941.808 -86.368C948.091 -72.7287 951.58 -57.97 952.072 -42.9613C952.153 -28.6231 952.148 -14.6037 951.101 -0.647071C950.265 11.5436 948.79 23.9054 951.082 36.2837C952.734 45.3724 957.123 53.7394 963.662 60.2651C972.06 69.6743 981.935 77.6523 992.898 83.886C1010.78 94.4801 1028.75 105.393 1047.33 114.774C1075.37 128.802 1103.78 141.702 1132.05 155.326C1148.52 163.22 1164.76 171.518 1181.09 180.135C1195.13 187.486 1207.73 197.316 1218.27 209.151C1226.37 218.21 1232.76 228.66 1237.13 239.996C1243.83 257.347 1244.68 274.556 1243.85 291.874C1242.8 314.723 1238.12 336.831 1234.89 359.236C1229.92 387.842 1228.42 416.944 1230.42 445.91C1231.22 456.967 1233.01 467.93 1235.78 478.664C1237.92 486.639 1239.5 495.104 1242.28 502.908C1246.01 513.389 1250.35 523.641 1255.29 533.612C1266.94 556.027 1282.11 576.434 1300.21 594.059C1311.82 606.046 1324.85 616.561 1339.03 625.37C1340.13 626.207 1341.1 627.22 1341.88 628.366" stroke="#DFE4E8" stroke-linecap="round" stroke-linejoin="round"/>
<path d="M1354.37 674.978C1353.17 673.711 1351.83 672.579 1350.39 671.6C1329.8 660.03 1310.81 645.805 1293.92 629.291C1279.81 615.401 1267.13 600.129 1256.06 583.705C1243.7 566.132 1233.93 546.871 1227.06 526.514C1221.11 509.399 1217.05 491.684 1214.96 473.686C1212.53 448.601 1212.74 423.33 1215.61 398.292C1218.71 372.845 1221.89 347.717 1224.67 322.356C1227.35 303.516 1225.71 284.313 1219.88 266.2C1216.85 256.92 1212.32 248.202 1206.47 240.39C1196.41 227.195 1183.8 216.156 1169.39 207.928C1153.21 198.588 1136.89 189.97 1120.41 182.076C1093.76 169.387 1066.96 157.421 1040.17 145.454C1021.54 136.624 1001.97 129.938 981.833 125.527C967.322 122.079 952.059 123.868 938.739 130.578C929.78 135.144 921.561 141.035 914.359 148.051C896.382 165.177 878.895 182.854 861.089 200.618C845.961 215.612 830.598 231.011 816.62 247.749C798.613 269.764 785.425 295.312 777.908 322.742C769.753 352.279 762.088 382.369 754.018 412.225C746.764 438.352 737.747 463.956 727.029 488.863C714.089 519.682 699.936 549.801 686.187 580.154C684.108 585.155 681.625 589.924 679.227 595.011C672.415 609.145 665.432 622.64 659.025 637.007C654.306 647.36 650.31 658.028 647.065 668.932C643.32 680.58 640.573 692.525 638.854 704.638C636.9 718.974 637.851 733.556 641.65 747.517C645.45 761.477 652.02 774.53 660.969 785.898C672.517 800.924 685.996 811.673 699.56 822.74C713.615 834.359 728.541 845.404 742.595 857.024C756.033 868.373 768.177 881.172 778.806 895.188C793.465 914.167 805.594 935.192 818.362 956.046C825.033 966.909 832.11 978.005 839.334 988.378C855.594 1012.06 876.336 1030.77 896.037 1049.43C915.737 1068.08 935.437 1086.74 951.059 1110.59C961.335 1125.92 969.283 1142.68 974.647 1160.34C976.699 1167.79 978.271 1175.36 979.354 1183.01C982.094 1197.77 982.564 1212.87 980.748 1227.77C978.444 1249.16 972.049 1269.91 961.909 1288.89C945.523 1319.61 921.485 1338.35 892.075 1347.26C882.084 1350.05 871.925 1352.2 861.661 1353.7C842.907 1357.41 823.224 1355.55 804.657 1360.43C769.304 1369.72 724.5 1399.5 722.5 1435C723.5 1475 764.246 1482.68 784.48 1485.47C804.715 1488.25 822.363 1499.25 836.47 1518.72C846.314 1532.49 855.607 1546.75 865.218 1560.93C877.307 1580.11 892.086 1597.45 909.103 1612.43C925.629 1626.07 943.864 1637.51 963.348 1646.44C980.313 1654.89 997.745 1662.52 1013.65 1674.67C1026.25 1684.02 1036.02 1696.66 1041.9 1711.21C1044.86 1719.06 1047.04 1727.18 1048.4 1735.45C1050.15 1744.56 1063 1810 1063 1906.5" stroke="#DFE4E8" stroke-linecap="round" stroke-linejoin="round"/>
<path d="M633.474 -181.852C633.145 -172.874 632.815 -163.896 632.081 -155.152C630.303 -130.635 630.61 -106.011 632.999 -81.5466C633.994 -71.6414 635.82 -61.8374 638.459 -52.2384C643.222 -35.7359 649.176 -19.8943 659.574 -6.61086C670.964 9.53337 688.288 20.5051 707.752 23.9012C722.95 25.8816 738.308 26.3478 753.598 25.293C779.79 23.995 805.999 27.5188 830.918 35.6885C845.264 40.4807 858.902 47.1757 871.468 55.5944C877.066 59.5617 882.196 64.1515 886.758 69.2761C890.477 73.2975 893.137 78.1808 894.499 83.4859C895.86 88.7909 895.881 94.3512 894.56 99.6664C892.378 109.321 888.753 118.591 883.807 127.164C872.774 145.829 859.476 163.059 844.215 178.46C831.296 191.495 817.716 203.339 804.883 216.692C791.498 230.536 778.198 244.699 769.221 263.516C761.103 281.316 755.566 300.183 752.78 319.548C749.039 340.039 746.022 360.678 742.686 381.402C738.396 406.559 732.116 431.336 723.905 455.498C718.796 470.885 713.05 486.443 707.132 501.363C699.518 520.157 691.903 538.95 683.479 557.277C673.974 577.945 664.382 598.293 654.387 618.408C644.043 638.89 635.582 660.269 629.105 682.281C624.031 699.394 622.106 717.287 623.425 735.088C624.696 750.048 628.944 764.603 635.921 777.897C644.782 794.301 656.691 808.864 671.009 820.805C681.828 830.557 693.262 838.776 704.633 848.038C723.185 862.288 740.304 878.313 755.746 895.884C765.995 908.142 775.218 921.224 783.321 934.995C794.448 953.553 805.022 972.601 816.383 990.755C828.614 1010.12 843.349 1027.78 860.205 1043.29C877.456 1059.18 894.94 1074.67 911.957 1090.97C927.38 1105.6 939.926 1123 948.949 1142.25C952.335 1149.6 955.271 1157.15 957.74 1164.86C961.366 1175 963.409 1185.64 963.798 1196.4C964.439 1206.12 964.308 1215.87 963.408 1225.57C961.789 1239.85 957.771 1253.76 951.523 1266.7C943.262 1284.71 930.257 1300.13 913.901 1311.31C906.634 1316.53 898.63 1320.63 890.153 1323.49C882.169 1326.37 874.024 1328.78 865.761 1330.71C855.063 1332.89 844.513 1334.35 833.878 1335.49C793.936 1340.3 701 1357.5 679.5 1418C658 1478.5 745.635 1519.13 765.551 1522C785.466 1524.87 803.496 1534.74 819.004 1551.78C827.823 1561.73 836.494 1572.39 845.08 1582.74C861.846 1603.21 878.761 1622.95 898.649 1638.48C912.887 1649.43 927.884 1659.35 943.529 1668.17L943.535 1668.17C956.157 1675.73 968.779 1683.28 980.701 1692.05C995.812 1702.92 1007.93 1717.44 1015.94 1734.24C1021.29 1745.66 1045 1790.5 1045 1905.5" stroke="#DFE4E8" stroke-linecap="round" stroke-linejoin="round"/>
<path d="M752.518 -228.823C769.695 -202.996 788.764 -179.044 811.358 -159.797C823.83 -149.554 836.883 -140.038 850.45 -131.295C865.034 -121.527 880.233 -113.291 893.82 -100.862C904.243 -91.9741 911.8 -80.1983 915.539 -67.0207C918.535 -56.0332 917.945 -44.3763 913.855 -33.7475C911.131 -25.2929 905.372 -18.1467 897.69 -13.6882C890.012 -9.50244 881.166 -7.97334 872.529 -9.33944C859.125 -10.8764 845.55 -13.0518 832.293 -15.3121C811.544 -18.9878 790.536 -21.0182 769.466 -21.3848C751.277 -21.6396 733.43 -20.618 715.195 -23.5958C701.961 -25.157 689.432 -30.4057 679.037 -38.7435C668.641 -47.0814 660.798 -58.1731 656.402 -70.7529C653.985 -76.802 651.876 -82.9693 650.083 -89.2316C645.846 -104.262 643.75 -119.814 643.859 -135.43C643.749 -156.257 645.086 -176.787 645.699 -197.466C645.847 -198.189 646.314 -198.998 646.462 -199.722" stroke="#DFE4E8" stroke-linecap="round" stroke-linejoin="round"/>
<path d="M518.225 -165.36C516.955 -159.891 515.599 -154.741 514.734 -149.039C511.187 -126.549 507.321 -103.973 504.583 -81.0154C502.545 -60.297 501.958 -39.4609 502.828 -18.6606C503.234 0.718991 503.959 20.0125 502.514 38.8625C501.069 57.7125 495.431 74.9507 483.212 86.7721C477.681 92.6845 470.762 97.1243 463.082 99.6885C458.408 101.68 453.551 103.211 448.579 104.258C438.971 105.789 429.271 106.675 419.544 106.91C397.27 107.045 375.054 104.623 353.332 99.6919C345.299 98.2647 337.495 95.755 330.136 92.2314C321.494 88.0509 316.89 81.0787 319.259 69.5032C321.924 56.4806 324.993 43.6916 328.148 31.2216C333.27 13.3057 335.896 -5.23102 335.953 -23.8646C336.028 -34.6765 334.415 -45.4336 331.171 -55.7476C327.26 -68.4758 321.381 -80.5136 313.748 -91.4237C309.572 -96.8009 305.396 -102.178 300.815 -107.789" stroke="#DFE4E8" stroke-linecap="round" stroke-linejoin="round"/>
<path d="M783.319 -236.381C788.218 -230.856 792.799 -225.245 797.613 -220.039C804.706 -212.708 811.713 -205.696 819.358 -198.855C838.631 -181.796 860.108 -171.823 881.437 -161.126C895.166 -154.548 908.895 -147.97 922.243 -140.264C937.966 -131.499 950.922 -118.507 959.644 -102.761C963.495 -95.8453 966.599 -88.5399 968.903 -80.9671C975.478 -61.531 976.779 -41.3652 978.803 -21.0515C979.552 -6.07916 981.815 8.7789 985.557 23.2955C989.874 37.912 997.563 51.3103 1008 62.4116C1020.44 75.3591 1034.5 86.6471 1049.83 95.9951C1071.46 110.371 1094.15 121.045 1116.84 131.718C1137.1 140.99 1157.28 149.944 1177.86 159.13C1192.65 165.831 1206.68 174.109 1219.69 183.821C1221.33 185.328 1222.8 186.994 1224.1 188.794" stroke="#DFE4E8" stroke-linecap="round" stroke-linejoin="round"/>
<path d="M793.844 -239.201C795.85 -237.305 797.756 -235.304 799.552 -233.208C816.635 -213.125 837.66 -196.764 861.324 -185.14C878.927 -176.865 896.678 -169.312 914.048 -160.632C924.096 -155.64 933.822 -150.025 943.17 -143.819C957.023 -134.194 968.167 -121.167 975.53 -105.991C981.558 -94.3641 985.613 -81.8176 987.529 -68.8622C989.097 -56.6318 991.707 -44.3383 993.594 -32.1934C995.116 -22.686 995.681 -12.9224 997.521 -3.50047C1001.24 12.9394 1005.92 29.1229 1015.13 43.0673C1024.01 56.014 1034.82 67.5292 1047.18 77.2153C1074.55 98.9453 1104.67 113.098 1134.53 126.295C1159.39 137.412 1184.87 146.997 1209.05 160.689C1212.02 162.589 1214.87 164.682 1217.56 166.955" stroke="#DFE4E8" stroke-linecap="round" stroke-linejoin="round"/>
<path d="M808.342 -243.781C814.859 -237.321 821.229 -230.139 828.299 -224.169C848.785 -206.409 871.623 -196.459 894.61 -187.233C909.934 -181.082 924.939 -174.845 939.882 -167.566C955.523 -159.956 969.238 -148.903 979.999 -135.237C988.04 -124.917 994.177 -113.247 998.123 -100.774C1000.33 -94.6576 1002.23 -88.4325 1003.8 -82.1236C1005.71 -73.7442 1006.89 -65.5129 1008.47 -57.048C1010.06 -48.5831 1011.24 -40.3518 1012.82 -31.8869C1014.75 -22.1459 1016.12 -11.9148 1018.68 -2.34481C1024.51 20.7033 1036.53 41.7204 1053.43 58.4343C1070.49 74.5849 1089.99 87.937 1111.22 97.9971C1137.4 111.496 1164.32 121.377 1190.95 132.705C1197.16 135.485 1203.06 138.349 1209.27 141.129C1210.08 141.596 1210.66 142.467 1211.47 142.934" stroke="#DFE4E8" stroke-linecap="round" stroke-linejoin="round"/>
<path d="M821.596 -246.637C825.982 -243.026 830.517 -240.138 834.67 -236.122C843.267 -228.576 852.895 -222.291 863.263 -217.457C881.612 -207.672 900.702 -201.504 919.325 -194.527C936.415 -188.166 953.59 -181.485 969.24 -170.293C987.498 -157.69 1001.55 -139.9 1009.59 -119.222C1012.28 -112.803 1014.5 -106.201 1016.25 -99.4665C1018.9 -89.5775 1021.55 -79.6884 1023.56 -69.6285C1025.23 -60.8446 1025.95 -51.8039 1027.94 -43.1055C1031.06 -28.8985 1033.54 -14.5208 1037.94 -0.655806C1044.92 20.7208 1057.36 39.8992 1074.05 54.9731C1094.08 72.7061 1117.07 86.7972 1141.96 96.609C1162.05 105.243 1182.7 113.388 1203.02 121.618C1204.28 122.281 1205.42 123.125 1206.43 124.124" stroke="#DFE4E8" stroke-linecap="round" stroke-linejoin="round"/>
<path d="M837.546 -250.911C839.335 -249.339 841.357 -248.17 843.146 -246.598C857.018 -236.409 872.225 -228.174 888.339 -222.124C909.536 -214.47 931.201 -207.625 952.569 -199.332C973.44 -191.578 991.916 -178.493 1006.16 -161.381C1015.37 -150.405 1022.45 -137.811 1027.05 -124.241C1029.74 -117.822 1031.96 -111.22 1033.71 -104.486C1036.13 -94.1924 1037.99 -83.4091 1040.09 -73.0302C1041.93 -63.6083 1043.45 -54.101 1045.29 -44.6791C1046.78 -35.5344 1048.75 -26.4759 1051.2 -17.5416C1057.73 6.66657 1070.82 28.5983 1089.03 45.8292C1109.46 64.6318 1132 76.0286 1155.24 86.212C1169.52 92.3004 1184.27 97.5798 1198.87 103.583C1199.8 104.183 1200.67 104.866 1201.47 105.622" stroke="#DFE4E8" stroke-linecap="round" stroke-linejoin="round"/>
<path d="M854.453 -255.441L871.994 -246.123C886.925 -238.806 902.564 -233.029 918.667 -228.883C942.416 -221.913 966.548 -216.07 989.136 -201.95C1009.59 -189.439 1025.98 -171.266 1036.32 -149.631C1043.42 -134.623 1048.69 -118.816 1052.01 -102.551C1054.71 -89.9387 1056.36 -77.3894 1058.33 -64.9255C1061.02 -48.7178 1064.85 -32.7207 1069.79 -17.053C1077 4.98889 1090.3 24.5402 1108.15 39.3394C1129.77 57.481 1153.82 68.1314 1177.93 77.7394C1184.06 80.1998 1189.87 82.7459 1196 85.2063" stroke="#DFE4E8" stroke-linecap="round" stroke-linejoin="round"/>
<path d="M498.129 -159.965C497.468 -158.618 496.928 -157.215 496.517 -155.772C491.312 -131.812 486.193 -107.533 480.989 -83.5728C477.406 -64.1123 475.487 -44.3819 475.252 -24.5958C474.843 -10.8101 474.519 3.29486 473.472 17.2515C472.425 31.2081 468.399 44.2534 460.072 54.0066C456.983 57.8788 453.121 61.0642 448.732 63.3589C444.343 65.6535 439.523 67.0067 434.581 67.3327C426.208 68.3389 417.718 67.0704 410.005 63.6605C404.791 61.4287 400.098 58.1381 396.222 53.9973C392.346 49.8566 389.373 44.9566 387.491 39.6066C383.565 30.0595 383.319 20.2102 382.35 10.2128C381.187 -1.78397 381.066 -13.7189 379.903 -25.7157C378.637 -37.2517 376.054 -48.6046 372.204 -59.5525C365.446 -77.3336 356.239 -94.0844 344.851 -109.321C342.72 -112.169 340.036 -114.527 337.991 -117.056" stroke="#DFE4E8" stroke-linecap="round" stroke-linejoin="round"/>
<path d="M452.066 264.022C457.916 264.164 463.767 264.306 469.383 264.852C475.607 265.152 481.616 267.218 486.707 270.81C489.481 272.755 491.794 275.287 493.481 278.226C494.326 280.258 494.568 282.49 494.179 284.656C493.789 286.821 492.784 288.83 491.283 290.44C488.944 293.375 485.933 295.706 482.505 297.236C469.517 303.407 454.619 304.205 441.046 299.456C436.228 297.898 432.044 294.82 429.123 290.684C427.87 288.559 427.22 286.133 427.242 283.666C427.311 280.691 428.21 277.794 429.839 275.304C431.467 272.813 433.76 270.828 436.458 269.572C441.391 267.566 446.814 266.113 451.832 264.426" stroke="#DFE4E8" stroke-linecap="round" stroke-linejoin="round"/>
<path d="M928.106 441.792C938.958 444.012 941.562 451.178 942.702 461.814C944.703 480.766 943.577 499.53 943.493 518.357C943.409 537.184 943.792 555.203 944.027 573.944C944.565 596.366 945.74 618.616 945.64 641.209C945.721 655.547 942.418 668.74 933.196 677.708C927.613 683.198 920.183 686.409 912.358 686.71C906.791 687.245 901.186 687.259 895.616 686.751C879.615 685.426 864.13 680.452 850.35 672.212C842.183 667.432 835.029 661.103 829.289 653.58C820.692 641.866 816.481 627.506 817.391 613.005C818.259 598.602 821.513 584.443 827.02 571.106C839.852 538.606 858.221 511.461 878.379 485.887C888.592 472.295 900.469 460.038 913.734 449.403C917.749 446.024 922.471 443.59 927.553 442.281" stroke="#DFE4E8" stroke-linecap="round" stroke-linejoin="round"/>
</g>
<defs>
<clipPath id="clip0_532_2563">
<rect width="869" height="1907" fill="white" transform="matrix(1 0 0 -1 0 1907)"/>
</clipPath>
</defs>
</svg>
