<svg width="611" height="250" viewBox="0 0 611 250" fill="none" xmlns="http://www.w3.org/2000/svg"><g clip-path="url(#clip0_1121_268)" fill="#FFF"><path d="M611.205 106.911c.007 2.351-.685 4.65-1.987 6.608-1.302 1.957-3.156 3.483-5.326 4.386-2.171.902-4.56 1.14-6.866.683-2.306-.457-4.424-1.588-6.086-3.25s-2.794-3.781-3.251-6.086c-.457-2.306-.219-4.696.684-6.866.902-2.171 2.429-4.0245 4.386-5.3264 1.957-1.302 4.257-1.9936 6.607-1.9872 1.555 0 3.095.3062 4.531.9012 1.436.595 2.741 1.467 3.841 2.5663 1.099 1.0993 1.971 2.4041 2.566 3.8411.595 1.436.901 2.975.901 4.53Zm-21.974 0c0 1.997.591 3.949 1.7 5.61 1.109 1.661 2.685 2.956 4.529 3.721 1.844.766 3.874.968 5.833.581s3.76-1.346 5.174-2.756c1.414-1.41 2.379-3.207 2.772-5.165.394-1.958.198-3.988-.561-5.835-.76-1.847-2.05-3.4267-3.707-4.5408s-3.608-1.7121-5.605-1.7185c-1.332-.0064-2.653.2513-3.886.7584-1.233.5071-2.353 1.2535-3.295 2.196-.943.9429-1.689 2.0619-2.196 3.2949-.507 1.233-.765 2.554-.758 3.887v-.033Zm7.881 6.844h-2.205v-13.639h5.433c.48-.055.966-.007 1.427.139.461.146.886.387 1.247.709.361.321.651.715.849 1.156.199.441.302.918.304 1.402.003.814-.301 1.6-.851 2.201s-1.305.973-2.117 1.042c1.703.195 2.303.73 2.4 3.471.053 1.205.232 2.4.535 3.568h-2.173c-.447-1.471-.639-3.006-.567-4.541-.02-.246-.09-.485-.206-.702-.116-.217-.276-.408-.469-.56-.194-.152-.417-.263-.655-.325-.238-.062-.487-.074-.73-.035h-2.222v6.114Zm0-7.866h2.855c.281.005.56-.051.818-.164.258-.112.489-.278.678-.487.189-.208.331-.455.417-.723.086-.268.114-.551.081-.831.026-.272-.007-.547-.096-.805-.09-.258-.235-.494-.424-.691-.19-.197-.42-.351-.674-.451-.254-.1-.527-.144-.8-.129h-2.855v4.281ZM12.6983 130.297H0v-18.618h12.6983V69.1893h56.761c16.2175 0 30.6347 9.4872 30.6347 28.4454 0 9.8113-5.076 17.5963-12.9739 21.0823 11.0117 3.568 18.9579 12.358 18.9579 25.948 0 18.959-14.044 30.813-32.6616 30.813H12.6983v-45.181Zm19.6231-18.618h34.8837c8.6439 0 13.201-5.595 13.201-12.0171 0-6.4221-4.5733-11.855-13.201-11.855H32.3214v23.8721Zm0 45.198h38.7597c8.8061 0 15.2444-5.757 15.2444-13.217 0-7.46-6.487-13.363-15.2444-13.363H32.3214v26.58ZM200.042 157.72c-9.73 12.358-23.353 19.802-38.078 19.964-28.608 0-45.198-21.488-45.198-43.154 0-21.667 16.59-43.1551 45.198-43.1551 17.093 0 42.473 14.0441 42.473 46.0251v3.244h-68.032c1.022 12.519 12.698 21.488 25.056 21.488 9.471 0 17.596-4.574 23.694-12.699l14.887 8.287Zm-16.217-31.656c-3.714-12.52-12.974-19.12-24.197-19.12-11.222 0-20.32 6.941-23.191 19.12h47.388ZM222.033 93.5642h17.612v10.3788h.325c4.865-7.6218 13.882-12.5195 25.056-12.5195 17.271 0 31.818 14.3845 31.818 34.6895v49.382h-17.596v-45.604c0-14.887-7.784-20.985-19.461-20.985-11.352 0-20.142 7.282-20.142 20.645v45.944h-17.612V93.5642ZM320.195 110.155h-9.99V93.5642h9.99V71.7355L337.791 67v26.5642h12.536v16.5908h-12.536v65.34h-17.596v-65.34ZM380.949 69.1893v73.3027c0 9.471 2.027 12.861 7.281 15.909l9.488 5.401-7.785 13.882c-18.098-8.628-26.564-14.888-26.564-31.981V69.1893h17.58ZM485.206 157.72c-9.812 12.358-23.353 19.802-38.079 19.964-28.607 0-45.182-21.488-45.182-43.154 0-21.667 16.575-43.1551 45.182-43.1551 17.093 0 42.49 14.0441 42.49 46.0251v3.244h-68.113c1.021 12.519 12.698 21.488 25.056 21.488 9.487 0 17.595-4.574 23.693-12.699l14.953 8.287Zm-16.218-31.656c-3.73-12.52-12.974-19.12-24.212-19.12-11.239 0-20.305 6.941-23.191 19.12h47.403ZM504.332 93.5642h17.596v48.0688c0 13.72 8.465 19.461 19.315 19.461 13.704 0 20.304-8.45 20.304-21.083V93.5642h17.596v79.3848c0 25.056-22.169 36.051-37.414 36.051-18.439 0-26.742-6.941-34.689-16.071l14.888-9.147c5.595 5.417 11.174 8.644 18.796 8.644 11.677 0 21.829-7.12 21.829-21.505v-4.394h-.325c-6.876 7.784-13.363 11.157-24.715 11.157-18.277 0-33.165-13.704-33.165-36.732l-.016-47.3878Z"/></g><defs><clipPath id="clip0_1121_268"><path fill="#fff" d="M0 0h611v250H0z"/></clipPath></defs></svg>