<svg width="125" height="54" viewBox="0 0 125 54" fill="none" xmlns="http://www.w3.org/2000/svg"><path d="M14.6014.730469.50293 42.4058 14.6014 53.7305l14.5707-11.3247L14.6014.730469ZM36.5015 51.1758l.7346-38.8399h5.2826l6.8568 31.506 6.9093-31.506h5.3l.7172 38.8399h-4.373l-.4198-28.2329-6.5769 28.2329h-3.0436l-6.542-28.2329-.4198 28.2329h-4.4254ZM70.1206 51.1758V12.3359h5.3v38.8399h-5.3ZM83.3096 51.1758V12.3359h5.405V47.29h9.9004v3.8858H83.3096ZM103.933 51.1758V12.3359h5.405v18.291l8.903-18.291h5.02l-7.679 17.1183 8.921 21.7216h-5.265l-7.801-19.2537-2.099 3.9558v15.2979h-5.405ZM56.2672 3.05859v4.83092h-.5773v-3.6932c0-.05251.0175-.12252.0175-.17503l-1.6617 3.02807c-.0207.04751-.055.08783-.0986.11587-.0436.02803-.0945.04253-.1463.04166h-.0875c-.0493-.00027-.0974-.01546-.138-.04357-.0406-.02811-.0717-.06783-.0894-.11396l-1.6967-3.04558c.0137.1103.0196.22144.0175.33256v3.55318h-.5772V3.05859h.6122c.0431.01772.0798.04827.105.08752l1.6617 2.97556c.035.05251.0525.12252.0874.17503.0158.06111.0393.11994.07.17504.0157-.06111.0392-.11994.07-.17504l.0699-.17503L55.55 3.14611c.0197-.0373.0502-.0678.0874-.08752h.6298ZM64.1212 7.88951h-.5072l-.14-.03501c-.0386-.03317-.0686-.07521-.0874-.12252l-.4548-1.15522h-2.169l-.4373 1.15522c-.0188.04731-.0489.08935-.0875.12252l-.1399.03501h-.5073l1.9416-4.83092h.6472l1.9416 4.83092Zm-1.3643-1.78534-.7522-1.97787c-.0337-.05993-.0573-.12497-.07-.19254-.0313-.07918-.0547-.16126-.0699-.24505-.0443.15441-.0969.30633-.1575.45509l-.7521 1.96037h1.8017ZM71.0302 7.88952h-.5948c-.0521.00176-.1038-.01026-.1499-.03484-.046-.02458-.0848-.06086-.1124-.10519l-1.242-1.71532c-.0314-.04925-.0732-.09106-.1224-.12252l-.2099-.03501h-.4898v2.01288h-.6647V3.05861h1.3819c.2648-.00074.5289.02862.7871.08751.1988.05336.3837.14887.5423.28006.1519.10181.2682.24873.3323.42008.0735.17738.1092.36813.105.5601-.0037.1612-.0332.32077-.0875.47259-.0517.14645-.1287.2827-.2274.40258-.1089.12202-.2393.22289-.3848.29755-.1543.085-.3189.14972-.4898.19254.0866.05113.1588.1234.2099.21004l1.4169 1.90786Zm-2.239-2.48547c.1718.00517.3433-.0185.5073-.07001.1288-.039.2479-.10459.3498-.19254.1004-.08486.1785-.19303.2274-.31506.0515-.1216.0754-.25312.07-.38507.0098-.12262-.0106-.24576-.0594-.35866-.0488-.1129-.1245-.21212-.2205-.28896-.2511-.15593-.5447-.22937-.8396-.21004h-.7172v1.82034h.6822ZM75.0183 5.17649h.2449l.2099-.035c.0566-.01915.1057-.05595.1399-.10502l1.6093-1.82035.1399-.12252.1924-.03501h.5423l-1.8367 2.0829-.1224.14002-.14.08752c.0658.01096.1267.04145.175.08752l.1399.14002 1.9241 2.29294h-.6822l-.0699-.03501c-.0136 0-.027-.00316-.0392-.00924-.0121-.00608-.0227-.0149-.0308-.02577l-.0525-.07001-1.6617-1.90786c-.0134-.02914-.0328-.05511-.0569-.07623-.0241-.02111-.0524-.03689-.0831-.04629-.0772-.03245-.1616-.0445-.2448-.03501h-.2974v2.20542h-.6472V3.05859h.6472v2.1179ZM84.5166 7.36441v.5251H81.543V3.05859h2.9736v.54261h-2.3264V5.194h1.8891v.5251h-1.8891v1.64531h2.3264ZM91.391 3.6012h-1.5567v4.28831h-.6472V3.6012h-1.5743v-.54261h3.7782v.54261ZM95.4665 7.88951h-.6647V3.05859h.6647v4.83092ZM103.303 3.05859v4.83092h-.455l-.105-.08752-2.7809-3.67569v3.76321h-.5598V3.05859h.4548l.0525.03501.0525.05251 2.7989 3.64069c-.015-.05122-.02-.10442-.018-.15753V3.05859h.56ZM111.157 5.56197v1.85535c-.231.17838-.492.31465-.77.40257-.295.08715-.602.12847-.91.12253-.357.00765-.713-.05171-1.049-.17504-.3-.10732-.572-.27883-.799-.50255-.227-.22372-.402-.49425-.513-.79269-.123-.31781-.183-.65685-.175-.99769-.008-.34084.052-.67988.175-.99769.1-.29712.267-.56684.49-.78765.224-.22241.492-.39533.787-.50759.324-.12307.668-.1825 1.014-.17504l.543.03501.455.12252c.133.0536.262.118.384.19254.119.07768.23.16553.333.26255l-.193.29756c-.01.02088-.025.0394-.043.05443-.018.01504-.039.02629-.062.03308-.055.00516-.11-.00709-.157-.035l-.175-.12253-.262-.12252-.35-.10502c-.161-.03769-.325-.05533-.49-.05251-.252-.00096-.501.04658-.735.14003-.215.0804-.407.21266-.559.38507-.162.17102-.287.3736-.368.59511-.087.25321-.128.51991-.122.78765-.002.28032.045.55882.14.82266.074.22573.197.43224.36.60474.164.17249.363.30668.584.39294.247.08739.508.12891.77.12253.206.0057.412-.01788.612-.07002l.507-.21004v-1.0677h-.752l-.105-.035c-.012-.01086-.021-.02442-.028-.03961-.006-.0152-.008-.0316-.007-.04791v-.38507h1.47Z" fill="#fff"/></svg>