<svg width="760" height="250" viewBox="0 0 760 250" fill="none" xmlns="http://www.w3.org/2000/svg"><path d="M222.614 185.062 187.11 61.2568c-.569-1.8207-1.934-3.1862-3.641-3.869-2.048-.7965-4.438-.3413-6.145 1.138l-49.841 43.6962-49.9542-43.5825c-1.4793-1.3655-3.5276-1.8206-5.4621-1.3655-2.162.569-3.7551 2.2759-4.3241 4.3241L32.2396 185.176c-.569 2.048-.1138 4.21 1.2517 5.804 1.4793 1.593 3.5275 2.275 5.6896 1.934L127.483 176.3l88.303 16.614c3.414.455 6.486-1.821 6.941-5.234.228-.797.114-1.707-.113-2.618ZM166.4 81.5117l-19.003 38.1203-12.29-10.81L166.4 81.5117Zm-46.541 27.4243-12.289 10.81-19.0034-38.1205 31.2924 27.3105ZM74.115 75.0256l25.6032 51.5474-53.7098 46.996L74.115 75.0256ZM53.86 179.828l50.524-44.038 15.817 31.748-66.341 12.29Zm58.148-50.979 15.362-13.427 15.362 13.427-15.362 30.838-15.362-30.838Zm22.758 38.462 15.817-31.748 50.638 44.379-66.455-12.631Zm20.483-40.738 25.489-51.3198 28.107 98.0888-53.596-46.769Zm131.543 16.5-17.865-31.406v45.63c0 .683-.455 1.138-1.138 1.138h-8.762c-.683 0-1.138-.455-1.138-1.138V91.753c0-.6827.455-1.1379 1.138-1.1379h9.786c.455 0 .797.2276 1.024.5689l21.621 40.055 21.734-40.055c.227-.3413.569-.5689 1.024-.5689h9.786c.683 0 1.138.4552 1.138 1.1379v65.544c0 .683-.455 1.138-1.138 1.138h-8.534c-.683 0-1.138-.455-1.138-1.138v-45.63l-17.866 31.406c-.227.342-.568.569-1.024.569h-7.738c-.341 0-.682-.227-.91-.569Zm48.931.228c0-10.355 8.079-17.069 22.531-17.069h10.355v-2.39c0-7.396-5.007-8.306-17.183-7.396-3.072.569-6.031 1.593-8.876 3.072-.569.228-1.252.114-1.479-.455-.114-.114-.114-.228-.114-.341-.227-2.276-.569-4.893-.796-6.486-.114-.456.113-.797.569-1.025 5.575-2.503 11.606-3.869 17.637-3.869 14.566 0 21.166 4.894 21.166 18.89v31.179c0 .683-.456 1.138-1.138 1.138h-5.917c-.228 0-.569-.114-.797-.228l-3.3-2.958c-3.869 3.072-8.762 4.665-13.769 4.438-10.355-.114-18.889-5.69-18.889-16.5Zm32.886 2.276v-10.355h-10.014c-8.421 0-11.721 2.844-11.721 7.965s3.755 7.283 9.445 7.283c4.438.341 8.762-1.252 11.948-4.324.228-.114.342-.342.342-.569Zm34.934 12.175-16.728-47.792c-.227-.569.114-1.252.683-1.48.114 0 .228-.113.455-.113h9.445c.455 0 .91.341 1.138.796l12.289 38.007 12.631-38.007c.114-.455.569-.796 1.138-.796h9.217c.569 0 1.138.455 1.138 1.024 0 .114 0 .227-.113.455l-16.728 47.906c-.114.455-.569.797-1.024.797h-12.29c-.569 0-1.137-.342-1.251-.797Zm48.247-20.027c.797 8.876 6.145 12.745 15.362 12.745 4.666-.114 9.218-1.138 13.428-3.073.455-.227 1.024 0 1.252.455 0 .114.113.228.113.342l.911 7.169c.114.455-.228.91-.569 1.138-4.893 2.275-10.355 3.3-15.704 3.186-17.865 0-26.285-11.152-26.285-26.286 0-15.703 8.875-26.172 23.213-26.172 14.793 0 23.214 10.924 23.214 26.513v2.959c0 .683-.456 1.138-1.138 1.138h-33.91l.113-.114Zm23.442-8.876c-.911-8.534-5.235-12.631-11.721-12.631s-10.924 3.983-11.721 12.631h23.442Zm33.341-9.786v38.234c0 .683-.455 1.138-1.138 1.138h-8.648c-.683 0-1.138-.455-1.138-1.138v-47.792c0-.683.455-1.138 1.138-1.138h6.031c.341 0 .569.113.796.341l2.845 3.528c3.527-3.3 8.193-5.007 12.972-4.894 12.631 0 20.597 7.966 20.597 23.1v27.083c0 .683-.456 1.138-1.138 1.138h-8.649c-.682 0-1.138-.455-1.138-1.138v-27.31c0-9.559-3.527-13.883-11.265-13.883-4.096-.228-7.852.797-11.265 2.731Zm115.157-.114v38.348c0 .683-.455 1.138-1.138 1.138h-8.762c-.682 0-1.138-.455-1.138-1.138v-47.906c0-.683.456-1.138 1.138-1.138h6.031c.342 0 .569.114.797.341l2.845 3.528c3.527-3.3 8.193-5.007 13.086-4.893 12.631 0 20.596 7.965 20.596 23.099v27.197c0 .683-.455 1.138-1.138 1.138h-8.762c-.683 0-1.138-.455-1.138-1.138v-27.424c0-9.559-3.527-13.883-11.265-13.883-3.869-.227-7.852.797-11.152 2.731Zm57.693 13.542v24.92c0 .683-.456 1.138-1.138 1.138h-8.762c-.683 0-1.138-.455-1.138-1.138V89.022c0-.6828.455-1.1379 1.138-1.1379h8.762c.682 0 1.138.4551 1.138 1.1379v39.827l18.775-20.027c.228-.228.569-.342.797-.342h10.583c.682 0 1.137.456 1.137 1.138 0 .342-.113.569-.341.797l-19.117 20.255 21.165 25.944c.455.456.342 1.252-.113 1.594-.228.227-.456.227-.797.227h-10.924c-.341 0-.683-.114-.91-.455l-20.255-25.489Zm-110.606 26.172c-10.241 0-17.638-5.349-17.638-18.207V87.7703c0-.6828.455-1.1379 1.138-1.1379h8.762c.683 0 1.138.4551 1.138 1.1379v52.0027c0 7.169 2.503 10.014 8.193 10.014 1.138 0 3.072-.228 4.438-.228.569 0 1.024.342 1.024.911V157.297c0 .569-.455 1.024-1.024 1.138-1.821.114-3.869.228-6.031.228Zm28.334-1.252c0 .683-.569 1.138-1.138 1.138h-8.762c-.683 0-1.138-.569-1.138-1.138v-48.02c0-.683.569-1.138 1.138-1.138h8.762c.683 0 1.138.569 1.138 1.138v48.02Zm-5.462-70.2097c3.186-.4551 6.145 1.7069 6.6 4.8931.114.5689.114 1.1379 0 1.7069-.228 3.6413-3.414 6.3727-7.055 6.1447-3.3-.2276-5.917-2.8448-6.145-6.1447-.455-3.1862 1.707-6.1448 4.893-6.6h1.707Z" fill="#FFF"/></svg>