<svg version="1.1" id="Vrstva_1" xmlns="http://www.w3.org/2000/svg" x="0" y="0" viewBox="0 0 91 43" xml:space="preserve" enable-background="new 0 0 91 43"><g id="symbols" opacity="1"><g id="logos-FinTech" transform="translate(-285 -2)"><g id="Group-7" transform="translate(.862622 -6)"><g id="Group-7-Copy" transform="translate(285.137378 8)"><path id="Rectangle" fill-rule="evenodd" clip-rule="evenodd" fill="#fff" fill-opacity="0" d="M-1 0h91v43H-1z"/><g id="Group-3" transform="translate(8 9)"><defs><filter id="Adobe_OpacityMaskFilter" filterUnits="userSpaceOnUse" x="-1" y="0" width="76" height="25"><feColorMatrix values="1 0 0 0 0 0 1 0 0 0 0 0 1 0 0 0 0 0 1 0"/></filter></defs><mask maskUnits="userSpaceOnUse" x="-1" y="0" width="76" height="25" id="mask-2_1_"><g filter="url(#Adobe_OpacityMaskFilter)"><path id="path-1_1_" fill-rule="evenodd" clip-rule="evenodd" fill="#fff" d="M-1 0h76v25H-1z"/></g></mask><path id="Fill-1" d="m36.6.4-5.1 24.2h-6.1L30.5.4h6.1zm25.9 15.7L65.7 7l1.9 9.1h-5.1zm6.8 8.5H75L70 .4h-5.2c-1.2 0-2.2.7-2.6 1.8L53 24.6h6.4l1.3-3.6h7.9l.7 3.6zm-16-7.9c0-6.4-8.7-6.7-8.6-9.6 0-.9.8-1.8 2.6-2 .9-.1 3.3-.2 6.1 1.1l1.1-5.1C52.9.5 51 0 48.7 0c-6.1 0-10.3 3.3-10.4 8 0 3.5 3 5.4 5.4 6.6 2.4 1.2 3.2 1.9 3.2 3 0 1.6-1.9 2.3-3.7 2.4-3.1 0-4.9-.8-6.3-1.5l-1.1 5.3c1.4.7 4.1 1.3 6.8 1.3 6.5-.1 10.7-3.3 10.7-8.4zM27.9.4 18 24.6h-6.5l-5-19.3C6.2 4.1 6 3.7 5.1 3.2c-1.5-.8-4-1.6-6.1-2.1l.1-.7H9.6c1.3 0 2.5.9 2.8 2.5l2.6 14L21.4.4h6.5z" mask="url(#mask-2_1_)" fill-rule="evenodd" clip-rule="evenodd" fill="#fff"/></g></g></g></g></g></svg>