<svg width="112" height="28" viewBox="0 0 112 28" fill="none" xmlns="http://www.w3.org/2000/svg"><path fill-rule="evenodd" clip-rule="evenodd" d="M12.9206.75792c-.883.073672-1.328.131031-1.9186.24736-2.11143.41582-4.20355 1.41093-5.83483 2.77532-.50965.42624-.95532.84109-1.27941 1.19092-1.34682 1.45367-2.21062 3.08892-2.56597 4.85752-.503668 2.50686.13637 5.19296 1.55608 6.53066.32501.3063.62325.481 1.10949.6501.36219.126 1.10527.4188 1.5567.6135.19603.0845.3658.1537.37725.1537.01145 0-.03396-.1235-.10091-.2745-.28143-.6348-.45667-1.3283-.52851-2.0918-.00956-.1016-.00714-.1907.00536-.198.03735-.0219.80264.0282 1.17605.0769.19106.025.53496.0825.76423.1279.42591.0844 1.16963.2867 1.22613.3336.01726.0144.04727.0852.06664.1576.04221.1573.22107.5246.33885.6958.24199.3517.67288.7039 1.07731.8804.35064.1531.52784.1852 1.10634.2009l.5361.0145.1545.1879c.2534.3079.4765.6587.663 1.0421.3349.6886.4802 1.2732.5285 2.1259.0231.4077.0811.5411.3379.7765.2867.2626.4351.262.7186-.0033.2549-.2384.3092-.368.3304-.7877.0611-1.2066.4733-2.2963 1.1944-3.1572l.1544-.1842.5356-.0135c.4778-.012.5623-.0215.7839-.0881.5039-.1513.937-.4347 1.2694-.8304.1755-.209.4131-.6507.4703-.8746l.0375-.1463.2239-.0709c.7926-.2507 1.8781-.4373 2.6833-.4614l.2918-.0087-.0094.2085c-.0127.2825-.1242.9309-.2127 1.2366-.3132 1.0822-.8324 1.9681-1.6156 2.7564-.3182.3203-.3863.3721-1.1676.8876-.4564.3011-1.1424.7538-1.5245 1.0061-.3821.2523-.9636.6358-1.2922.8524-.3286.2165-.9727.6427-1.4312.9472-.4586.3044-.8712.5681-.9171.5861-.1115.0436-.2402.0444-.3372.0021-.0438-.0192-.3485-.2362-.6771-.4823-1.5764-1.1807-3.58877-2.4985-5.00226-3.2758-.19106-.1051-.41708-.2309-.50222-.2796-.27257-.1559-1.35844-.6948-1.83335-.9098-1.17716-.5331-2.29769-.914-3.23635-1.1001-.60177-.1194-1.458985-.2075-1.458985-.1501 0 .1374.407125 1.3272.629945 1.8411.67708 1.5613 1.56364 2.8771 2.75937 4.0954 1.76859 1.802 3.88486 3.0054 6.36095 3.6172 1.0155.251 1.9355.3568 3.1166.3584 1.0204.0014 1.6313-.0541 2.5706-.2334 3.4435-.6575 6.5775-2.7442 8.5362-5.6834 1.4781-2.218 2.2438-4.7459 2.2434-7.4061-.0003-1.8236-.3406-3.5023-1.0531-5.19428-1.201-2.8523-3.4854-5.29522-6.2613-6.69573-1.5386-.77629-2.981-1.201395-4.688-1.381614-.3882-.04099-1.7549-.075339-2.0426-.051356ZM5.98698 6.65738c.0929.05772.16813.1193 2.27887 1.86552 2.90625 2.4044 2.76295 2.2926 3.27565 2.5549.3611.1847.8057.3358 1.2463.4235.4492.0894 1.2302.0887 1.687-.0014.4062-.0801.8312-.2215 1.1831-.3937.5128-.251.5126-.2508 2.9458-2.26388.3821-.31614.8511-.70362 1.0421-.86108.1911-.15748.6225-.51392.9588-.7921.3362-.27818.6478-.52468.6922-.54777.1249-.06486.3759-.03735.4961.05433.2011.1534.1873-.11986.1873 3.7003v3.4348l-.2432.0001c-.7954.0002-2.0834.1779-2.9527.4073-1.1678.3083-2.2474.8058-3.0801 1.4194-.8115.598-1.4659 1.3527-1.9283 2.2235l-.1501.2828-.0774-.1587c-.4837-.9909-1.3083-1.8983-2.3647-2.602-.3004-.2001-1.1055-.6142-1.48674-.7646-1.15585-.4562-2.59165-.7471-3.93925-.7983l-.47938-.0182v-3.4305c0-3.84272-.01623-3.54697.20339-3.70607.09065-.06567.13873-.08012.26626-.08004.10332.00006.18364.01751.239.05189ZM92.2236 8.15035c-1.9667.22587-3.6077 1.31141-4.5122 2.98485-.6245 1.1551-.8587 2.6315-.6345 3.9962.3513 2.1377 1.7366 3.8299 3.7245 4.5496 1.3147.4759 2.8026.4943 4.1346.0511.8467-.2818 1.6471-.7874 2.2429-1.4168.2226-.2351.5486-.643.5264-.6583-.0114-.0079-.8593-.423-1.6505-.8082l-.4724-.2299-.2249.2278c-.4791.4856-1.1013.8005-1.8135.9178-.3755.0618-1.0716.043-1.4215-.0383-1.4337-.3334-2.3969-1.3525-2.6865-2.8423-.0717-.368-.0717-1.2379 0-1.6059.152-.7823.4786-1.4168.9905-1.9254.4838-.4807.9848-.7515 1.696-.9169.3518-.0818 1.0468-.1002 1.4215-.0377.5294.0883 1.0151.2821 1.4109.5632.2095.1488.5786.5113.6867.6745.0403.061.085.1109.0992.1109.02 0 1.6162-1.0994 1.868-1.2865.0512-.038.0478-.0465-.0775-.2096-.426-.55355-1.0566-1.08456-1.718-1.44648-1.021-.55863-2.3346-.79785-3.5897-.65367Zm12.4184-.02627c-.046.00537-.202.02318-.347.03958-1.234.13956-2.473.72237-3.381 1.59062-1.1609 1.10932-1.7878 2.61902-1.7884 4.30442-.0003 1.0575.1962 1.9173.6395 2.8012 1.2359 2.4635 4.1249 3.7035 6.9619 2.9887 2.155-.5427 3.822-2.2713 4.277-4.4337.184-.8743.174-1.9324-.026-2.7895-.516-2.2126-2.277-3.91144-4.544-4.38293-.524-.10902-1.385-.16588-1.792-.11839ZM34.8259 9.41913l.0072 1.11857 2.6609.0071c1.4635.0039 2.6609.0137 2.6609.0218s-.247.3257-.5488.7057c-.3018.3799-1.118 1.4067-1.8133 2.2816-.6953.8749-1.3956 1.7562-1.5563 1.9585-.1606.2023-.6013.7573-.9796 1.2335l-.6878.8658v2.2496h8.615v-2.2508l-2.8246-.007-2.8246-.0071.4985-.6253c.2743-.3439.7426-.9317 1.0405-1.3061.2982-.3745.966-1.2124 1.484-1.862.518-.6496 1.3145-1.6486 1.77-2.22l.8284-1.0389v-.3252c0-.1789-.0084-.68369-.0184-1.12177l-.0183-.79655h-8.3009l.0072 1.11855Zm14.611-1.1083c0 .01348-.764 2.06727-.8023 2.15737-.0164.0382-.4497 1.195-.963 2.5706-.5133 1.3756-.9882 2.6449-1.0557 2.8207-.2296.5995-1.4865 3.9694-1.4865 3.9859 0 .009.5591.0132 1.2428.0092l1.2427-.0072.4897-1.3478.4897-1.3479h4.6862l.0912.2501c.05.1376.1867.519.304.8476.117.3287.2754.7726.3518.9866.0764.214.1576.4422.1806.5072l.0417.1181h1.2478c.6864 0 1.2481-.0092 1.2481-.0204 0-.0112-.0804-.2332-.1787-.4933-.0981-.2601-.6556-1.7484-1.2384-3.3075-.583-1.559-1.101-2.9409-1.151-3.0708-.0501-.1299-.4636-1.2335-.919-2.4525l-.8285-2.21622h-1.4965c-.8231 0-1.4967.00461-1.4967.01025Zm9.4764 5.77007v5.7804h2.3341l.0069-2.0773.0073-2.0774.653-.0065.6531-.0066.3218.4512c.177.2482.5466.7639.8215 1.146.2745.3821.6922.9636.9276 1.2922.2354.3286.5364.7476.6689.931l.2407.3335 1.4487.0072c.7964.0039 1.4484.0016 1.4484-.0053 0-.0068-.0731-.1101-.1626-.2295-1.1952-1.5946-3.0333-4.0727-3.0333-4.0894 0-.0118.097-.0504.2154-.0857 1.0599-.3157 1.8667-1.0968 2.1693-2.1002.1337-.4431.1576-.6364.1576-1.2784.0003-.535-.0078-.6492-.0645-.9146-.3574-1.67379-1.534-2.66031-3.367-2.82246-.1882-.01665-1.374-.02832-2.8833-.02838l-2.5636-.00008v5.78032Zm10.9004-4.66177.0072 1.11857 1.6605.0072 1.6604.0071v9.3099l1.1742-.0073 1.1741-.0072.0069-4.6477.0073-4.6477 1.6602-.0071 1.6604-.0072.0072-1.11857.0073-1.11855h-9.0329l.0072 1.11855Zm11.8597 4.66177v5.7804h2.3622V8.30058h-2.3622v5.78032Zm24.3166-3.6316c1.002.2404 1.772.8106 2.267 1.6781.326.5707.488 1.2208.488 1.9535 0 .778-.195 1.5073-.555 2.0685-.584.9131-1.455 1.4676-2.559 1.629-.319.0466-1.025.0186-1.336-.0531-1.228-.283-2.182-1.1331-2.581-2.299-.168-.4909-.207-.7452-.207-1.3454s.039-.8544.207-1.3454c.422-1.2338 1.434-2.0894 2.761-2.3355.356-.066 1.14-.0405 1.515.0493Zm-41.8044.1559c.8101.1672 1.2289.679 1.2303 1.5037.0008.6903-.3132 1.1653-.9196 1.3903-.3151.1169-.5994.1368-1.9633.1369l-1.2853.0002v-1.5238c0-.8382.0083-1.5322.0186-1.5424.01-.0102.6136-.0184 1.3409-.0182 1.1905.0004 1.3478.0057 1.5784.0533Zm-13.185.2799c.0236.0687.1426.4001.2643.7364.8854 2.4419 1.1733 3.2468 1.1644 3.2556-.0056.0057-.6861.007-1.5121.003l-1.502-.0072.4991-1.3756c.2746-.7566.6033-1.6632.7309-2.0148.1272-.3515.2404-.6685.2509-.7045.0236-.0807.0495-.0543.1045.1071Z" fill="#FFF"/></svg>