<svg width="134" height="34" viewBox="0 0 134 34" fill="none" xmlns="http://www.w3.org/2000/svg">
<g clip-path="url(#clip0_1147_31337)">
<path d="M0.0780945 15.7263C0.20125 15.3818 0.303731 15.0305 0.385013 14.6743C0.828825 12.1712 1.90102 9.81577 3.50493 7.82031H17.2478C16.0024 8.18589 14.6402 8.46443 13.3821 8.98171C8.70226 10.9066 6.54368 15.4104 8.19495 19.8049C9.44799 23.1374 12.0378 25.0448 15.4469 25.9725C16.0835 26.1465 16.7456 26.2361 17.3898 26.4698H3.52015C1.90284 24.396 0.828966 21.9649 0.392623 19.3895C0.319064 18.9916 0.184628 18.6037 0.0780945 18.2107V15.7263Z" fill="#BFC9D1"/>
<path d="M17.8329 0.789062V6.36228H4.87888C5.05841 6.11269 5.25772 5.87737 5.47496 5.65848C8.26513 3.18895 11.4967 1.59234 15.2482 1.07008C15.528 1.00437 15.8 0.910189 16.0599 0.789062H17.8329Z" fill="#BFC9D1"/>
<path d="M32.0371 0.789062V6.39461H26.3299C26.2868 4.53438 26.2462 2.66421 26.2031 0.789062H32.0371Z" fill="#BFC9D1"/>
<path d="M108.942 24.5642H104.331L104.277 24.3926C104.531 24.313 104.764 24.2309 105.013 24.1588C105.797 23.925 106.195 23.4301 106.192 22.6069C106.192 19.0829 106.192 15.559 106.192 11.6769L104.402 10.3289L104.518 10.125H109.084L116.8 19.1874L117.117 19.0879V17.168C117.117 15.84 117.061 14.5095 117.132 13.1889C117.208 11.7291 116.968 10.5378 115.23 10.1349H132.846V14.2459C132.311 13.2934 131.958 12.4428 131.408 11.744C130.751 10.9158 129.729 10.6721 128.681 10.6473C127.727 10.6274 126.771 10.6473 125.891 10.6473C125.287 11.6719 125.13 14.5443 125.503 16.6159C127.56 17.1456 128.506 16.4493 129.536 13.7435V20.7069C129.11 19.8738 128.818 18.9661 128.242 18.2722C127.601 17.5087 126.601 17.3297 125.434 17.5386C125.391 19.6251 125.145 21.6992 125.607 23.7683C127.311 24.5418 128.871 24.1886 130.378 23.634C131.968 23.0471 132.851 21.7042 133.584 20.2543L133.939 20.3811C133.686 21.7365 133.409 23.0944 133.125 24.5443H120.014C120.602 24.1911 121.333 23.9847 121.617 23.5147C121.929 22.9999 121.891 22.2463 121.896 21.5947C121.919 18.5681 121.914 15.5416 121.896 12.5149C121.896 10.7094 120.658 9.91113 118.931 10.5503C118.111 10.8512 117.952 11.4704 117.957 12.2389C117.972 15.8897 117.957 19.5381 117.957 23.1814V24.9049L117.721 25.064C117.362 24.7876 117.023 24.4877 116.706 24.1662C113.867 20.8686 111.035 17.5701 108.209 14.2707C107.938 13.9574 107.656 13.654 107.222 13.169C107.148 13.5194 107.096 13.8741 107.067 14.2309C107.067 16.6358 107.111 19.0432 107.042 21.4431C107.002 22.9228 107.207 24.1314 109.163 24.2981L108.942 24.5642Z" fill="#BFC9D1"/>
<path d="M28.1106 16.5489H18.2461V8.00132C22.302 7.25772 27.7808 10.9483 28.1106 16.5489Z" fill="#BFC9D1"/>
<path d="M28.0486 17.8594C28.4342 22.0474 23.1126 26.6681 18.1562 26.315V17.8594H28.0486Z" fill="#BFC9D1"/>
<path d="M50.4674 21.7931C50.4181 22.0012 50.3387 22.2014 50.2315 22.3875C48.3976 24.7152 45.5136 25.5906 42.5255 24.7401C41.1561 24.3583 39.9375 23.5773 39.0315 22.5006C38.1254 21.4239 37.5747 20.1025 37.4525 18.7118C37.3054 17.0505 37.3815 15.4166 38.112 13.8498C39.672 10.5124 43.3043 8.91823 46.8579 10.0647C47.5352 10.2836 48.1997 10.5397 48.9556 10.8108L50.1706 9.79611V14.8147C49.9641 14.44 49.7372 14.0764 49.4908 13.7255C48.7299 12.7954 48.0907 11.721 47.1623 10.9898C45.1711 9.438 42.6803 10.0747 41.757 12.3875C40.5285 15.4179 40.5022 18.7895 41.6834 21.8379C42.0024 22.6855 42.6362 23.3838 43.4579 23.7928C44.2795 24.2019 45.2285 24.2915 46.1147 24.0438C47.246 23.7031 48.2632 22.9868 49.3057 22.3949C49.6309 22.1629 49.9294 21.8969 50.196 21.6016L50.4674 21.7931Z" fill="#BFC9D1"/>
<path d="M79.6504 19.9228C79.3815 21.4746 79.1253 22.9593 78.8514 24.5311H66.9804C67.5182 24.1705 68.1853 23.9442 68.4313 23.4965C68.7053 22.9991 68.6419 22.2978 68.6444 21.686C68.6596 18.579 68.6596 15.4712 68.6444 12.3625C68.6444 10.8704 68.5074 10.7162 67.0413 10.1641H73.7935C73.7935 10.1939 73.7758 10.3232 73.7403 10.3307C72.1296 10.6838 71.8658 10.945 71.8531 12.5689C71.8252 15.8815 71.8328 19.1966 71.8531 22.5167C71.8985 22.9597 71.9895 23.3972 72.1245 23.8223C73.7834 24.5013 75.3992 24.362 76.6471 23.402C77.8165 22.5042 78.6129 21.1613 79.6504 19.9228Z" fill="#BFC9D1"/>
<path d="M103.013 24.5357H95.5281L95.5078 24.3517L96.1749 24.2025C97.0906 23.9985 97.5243 23.4166 97.5268 22.5138C97.5268 19.0769 97.5497 15.6399 97.5268 12.203C97.5268 10.9595 97.192 10.7108 95.5509 10.1562H102.985C102.985 10.1911 102.985 10.3204 102.95 10.3278C101.149 10.7506 101.004 10.9222 101.004 12.7452C101.004 15.6847 101.004 18.6251 101.004 21.5663C100.994 23.7772 101.017 23.807 103.013 24.5357Z" fill="#BFC9D1"/>
<path d="M17.6982 33.3289C12.6252 33.0802 8.24458 31.4736 4.42966 27.8203H17.6982V33.3289Z" fill="#BFC9D1"/>
<path d="M31.9401 27.8125V33.2589H26.375V27.8125H31.9401Z" fill="#BFC9D1"/>
<path d="M59.1399 24.3879L60.365 23.9626C60.6187 22.744 60.4817 22.2218 59.528 20.4262H54.6122L53.6128 23.6592L55.3884 24.4898H51.2539C52.649 23.7885 53.0294 22.6495 53.4581 21.5378C54.8109 18.0561 56.1696 14.5827 57.5343 11.1176C57.7093 10.665 57.9249 10.2298 58.2623 9.46875C58.6199 10.1079 58.8812 10.4859 59.0537 10.9012C60.6085 14.654 62.1203 18.4242 63.7107 22.1621C64.0684 23.0026 64.6847 23.7388 65.1768 24.5147H59.178L59.1399 24.3879ZM59.3073 19.608C58.5768 17.7751 57.8945 16.0666 57.2147 14.3581L56.8824 14.4103C56.261 16.089 55.637 17.7701 54.9572 19.608H59.3073Z" fill="#BFC9D1"/>
<path d="M81.2663 24.5521C82.8922 24.2189 83.0419 23.0102 83.0419 21.6996C83.0419 18.7526 83.0571 15.8081 83.0292 12.8635C83.014 11.1003 82.7755 10.8118 81 10.2572C81.3242 10.1831 81.6529 10.1291 81.9841 10.0956C84.3964 10.0956 86.8035 10.0583 89.2132 10.1304C90.0959 10.1701 90.9678 10.3377 91.8005 10.6278C93.2285 11.1078 94.134 12.0627 94.2304 13.6345C94.3294 15.251 93.7231 16.5218 92.2291 17.1983C91.3048 17.5812 90.3293 17.8324 89.3324 17.9444C88.4751 18.0637 87.5848 17.9692 86.5854 17.9692C86.5854 19.8369 86.527 21.4833 86.6107 23.1222C86.6488 23.8682 87.042 24.0647 88.3863 24.5521H81.2663ZM86.593 17.34C88.8353 17.6907 90.2253 16.9197 90.4307 15.2261C90.5373 14.4043 90.5322 13.5722 90.4155 12.7516C90.1441 10.8491 88.2747 10.0732 86.593 11.1451V17.34Z" fill="#BFC9D1"/>
</g>
<defs>
<clipPath id="clip0_1147_31337">
<rect width="133.865" height="32.5366" fill="white" transform="translate(0.0780945 0.789062)"/>
</clipPath>
</defs>
</svg>
