<svg width="146" height="30" viewBox="0 0 146 30" fill="none" xmlns="http://www.w3.org/2000/svg">
<path d="M12.0898 27C18.7173 27 24.0898 21.6274 24.0898 15C24.0898 11.4518 22.5499 8.26323 20.1018 6.06629L14.8394 13.0497C15.2306 13.6002 15.4606 14.2732 15.4606 15C15.4606 16.8616 13.9515 18.3708 12.0898 18.3708C10.2282 18.3708 8.71906 16.8616 8.71906 15C8.71906 13.1384 10.2282 11.6292 12.0898 11.6292C12.1796 11.6292 12.2686 11.6327 12.3566 11.6396L17.7855 4.43521C16.0909 3.5197 14.1511 3 12.0898 3C5.46243 3 0.0898438 8.37258 0.0898438 15C0.0898438 21.6274 5.46243 27 12.0898 27Z" fill="#F2F4F6"/>
<path d="M138.215 19.9888L135.665 16.4608L134.198 17.835V19.9888H133.299V10.3429H134.198V16.8704L138.096 13.1177H139.087L136.272 15.9322L139.193 19.9888H138.215Z" fill="#F2F4F6"/>
<path d="M31.1169 15.2319C31.1169 14.6593 31.2138 14.0999 31.4076 13.5538C31.6102 12.9988 31.9009 12.4967 32.2797 12.0475C32.6585 11.5894 33.1253 11.2282 33.6803 10.9639C34.2353 10.6909 34.8651 10.5543 35.5698 10.5543C36.4067 10.5543 37.1202 10.7481 37.7104 11.1357C38.3094 11.5145 38.7499 12.0034 39.0318 12.6024L38.305 13.0517C38.1024 12.6377 37.8469 12.3117 37.5386 12.0739C37.2303 11.8272 36.9 11.6511 36.5476 11.5453C36.2041 11.4396 35.8605 11.3868 35.517 11.3868C34.9532 11.3868 34.4555 11.5013 34.0238 11.7303C33.5922 11.9506 33.2266 12.2501 32.9271 12.6288C32.6364 12.9988 32.4162 13.4173 32.2665 13.8841C32.1167 14.3422 32.0418 14.8091 32.0418 15.2848C32.0418 15.8045 32.1299 16.3022 32.3061 16.7779C32.4823 17.2536 32.7289 17.6764 33.046 18.0464C33.3632 18.4075 33.7331 18.6982 34.156 18.9185C34.5876 19.1299 35.0545 19.2356 35.5566 19.2356C35.909 19.2356 36.2701 19.1739 36.6401 19.0506C37.0101 18.9273 37.3536 18.7379 37.6708 18.4824C37.9967 18.227 38.2566 17.8966 38.4504 17.4914L39.2167 17.8878C39.0229 18.3547 38.7234 18.7511 38.3182 19.077C37.913 19.403 37.4593 19.6496 36.9572 19.817C36.4639 19.9844 35.9794 20.068 35.5038 20.068C34.8607 20.068 34.2705 19.9315 33.7331 19.6584C33.1958 19.3765 32.7289 19.0066 32.3325 18.5485C31.9449 18.0816 31.6454 17.5619 31.434 16.9893C31.2226 16.4079 31.1169 15.8221 31.1169 15.2319Z" fill="#F2F4F6"/>
<path fill-rule="evenodd" clip-rule="evenodd" d="M43.5448 20.1209C43.0515 20.1209 42.5934 20.0284 42.1706 19.8434C41.7566 19.6496 41.3954 19.3897 41.0871 19.0638C40.7876 18.7291 40.5541 18.3503 40.3868 17.9275C40.2194 17.4958 40.1357 17.0422 40.1357 16.5665C40.1357 16.0732 40.2194 15.6151 40.3868 15.1923C40.5541 14.7606 40.792 14.3818 41.1003 14.0559C41.4086 13.7212 41.7698 13.4613 42.1838 13.2763C42.6066 13.0825 43.0647 12.9856 43.558 12.9856C44.0513 12.9856 44.505 13.0825 44.919 13.2763C45.333 13.4613 45.6942 13.7212 46.0025 14.0559C46.3108 14.3818 46.5486 14.7606 46.716 15.1923C46.8834 15.6151 46.9671 16.0732 46.9671 16.5665C46.9671 17.0422 46.8834 17.4958 46.716 17.9275C46.5486 18.3503 46.3108 18.7291 46.0025 19.0638C45.703 19.3897 45.3418 19.6496 44.919 19.8434C44.505 20.0284 44.0469 20.1209 43.5448 20.1209ZM41.0474 16.5797C41.0474 17.0906 41.1575 17.5575 41.3778 17.9803C41.6068 18.3943 41.9107 18.7247 42.2895 18.9713C42.6683 19.2092 43.0867 19.3281 43.5448 19.3281C44.0028 19.3281 44.4213 19.2048 44.8001 18.9581C45.1788 18.7115 45.4828 18.3767 45.7118 17.9539C45.9408 17.5222 46.0553 17.0554 46.0553 16.5533C46.0553 16.0423 45.9408 15.5755 45.7118 15.1526C45.4828 14.7298 45.1788 14.3951 44.8001 14.1484C44.4213 13.9017 44.0028 13.7784 43.5448 13.7784C43.0867 13.7784 42.6683 13.9062 42.2895 14.1616C41.9195 14.4171 41.62 14.7562 41.391 15.1791C41.1619 15.5931 41.0474 16.0599 41.0474 16.5797Z" fill="#F2F4F6"/>
<path d="M57.8117 19.9888H58.7102V15.9586C58.7102 15.5094 58.6706 15.1042 58.5913 14.743C58.5209 14.373 58.4019 14.0603 58.2346 13.8048C58.076 13.5406 57.8602 13.338 57.5871 13.197C57.3228 13.0561 56.9969 12.9856 56.6093 12.9856C56.0455 12.9856 55.539 13.1354 55.0898 13.4349C54.6493 13.7344 54.2705 14.1748 53.9534 14.7562C53.8741 14.2277 53.6583 13.8004 53.3059 13.4745C52.9536 13.1486 52.4911 12.9856 51.9185 12.9856C51.3635 12.9856 50.857 13.131 50.399 13.4217C49.9497 13.7124 49.5797 14.1264 49.289 14.6637V13.1045H48.4698V19.9888H49.3683V15.7737C49.5357 15.1835 49.8264 14.7078 50.2404 14.3466C50.6544 13.9854 51.1169 13.8048 51.6278 13.8048C52.1387 13.8048 52.5175 13.9942 52.7642 14.373C53.0108 14.743 53.1342 15.3332 53.1342 16.1436V19.9888H54.0327V15.7869C54.2 15.2055 54.4863 14.7298 54.8915 14.3598C55.3056 13.9898 55.7724 13.8048 56.2922 13.8048C56.7943 13.8048 57.1731 13.9942 57.4285 14.373C57.684 14.7518 57.8117 15.342 57.8117 16.1436V19.9888Z" fill="#F2F4F6"/>
<path fill-rule="evenodd" clip-rule="evenodd" d="M64.1271 20.1209C63.5545 20.1209 63.0391 19.9711 62.5811 19.6716C62.1318 19.3721 61.7751 19.0021 61.5108 18.5617V22.8032H60.6123V13.1045H61.4183V14.4391C61.6914 14.0075 62.0569 13.6595 62.515 13.3952C62.9731 13.1222 63.462 12.9856 63.9817 12.9856C64.4574 12.9856 64.8934 13.0869 65.2898 13.2895C65.6862 13.4833 66.0298 13.7476 66.3205 14.0823C66.6112 14.4171 66.8358 14.8003 66.9944 15.2319C67.1617 15.6547 67.2454 16.0952 67.2454 16.5533C67.2454 17.1963 67.1133 17.7909 66.849 18.3371C66.5936 18.8744 66.2324 19.3061 65.7655 19.632C65.2986 19.9579 64.7525 20.1209 64.1271 20.1209ZM63.876 19.3281C64.2548 19.3281 64.5939 19.2532 64.8934 19.1035C65.1929 18.9449 65.4484 18.7335 65.6598 18.4692C65.88 18.2049 66.0474 17.9098 66.1619 17.5839C66.2764 17.2492 66.3337 16.9056 66.3337 16.5533C66.3337 16.1833 66.2676 15.8309 66.1355 15.4962C66.0122 15.1614 65.8316 14.8663 65.5937 14.6109C65.3559 14.3554 65.0828 14.1528 64.7745 14.003C64.4662 13.8533 64.1315 13.7784 63.7703 13.7784C63.5413 13.7784 63.3034 13.8225 63.0568 13.9106C62.8101 13.9986 62.5723 14.1264 62.3432 14.2937C62.123 14.4523 61.938 14.6329 61.7883 14.8355C61.6385 15.0381 61.546 15.2539 61.5108 15.483V17.5971C61.6517 17.923 61.8411 18.2182 62.079 18.4824C62.3168 18.7379 62.5899 18.9449 62.8982 19.1035C63.2153 19.2532 63.5413 19.3281 63.876 19.3281Z" fill="#F2F4F6"/>
<path fill-rule="evenodd" clip-rule="evenodd" d="M68.5825 16.8968C68.3358 17.2051 68.2125 17.5751 68.2125 18.0067C68.2125 18.3943 68.3094 18.7511 68.5032 19.077C68.7058 19.3942 68.9833 19.6496 69.3356 19.8434C69.6968 20.0284 70.0976 20.1209 70.5381 20.1209C71.049 20.1209 71.5511 20.0152 72.0444 19.8038C72.5377 19.5835 72.9385 19.2752 73.2468 18.8788L73.26 19.3809C73.2689 19.5307 73.3305 19.6716 73.445 19.8038C73.5595 19.9359 73.7269 20.0064 73.9472 20.0152C73.9824 20.024 74.0352 20.024 74.1057 20.0152C74.1762 20.0064 74.2599 19.9976 74.3568 19.9888V19.2752C74.2422 19.2664 74.1586 19.2356 74.1057 19.1827C74.0529 19.1211 74.0264 19.0286 74.0264 18.9053V15.7208C74.0264 14.8663 73.7798 14.1968 73.2865 13.7124C72.7932 13.2279 72.1237 12.9856 71.278 12.9856C70.8288 12.9856 70.3883 13.0649 69.9567 13.2235C69.525 13.3732 69.0846 13.6022 68.6353 13.9106L68.9789 14.5448C69.3665 14.2805 69.7365 14.0823 70.0888 13.9502C70.45 13.8093 70.8156 13.7388 71.1855 13.7388C71.7934 13.7388 72.269 13.9106 72.6126 14.2541C72.9561 14.5977 73.1279 15.0601 73.1279 15.6415V16.2229C72.846 16.1172 72.5245 16.0379 72.1633 15.9851C71.8022 15.9322 71.4542 15.9058 71.1195 15.9058C70.5469 15.9058 70.0404 15.9939 69.5999 16.1701C69.1683 16.3374 68.8291 16.5797 68.5825 16.8968ZM73.0486 18.1785C72.9958 18.293 72.9209 18.412 72.824 18.5353C72.6214 18.7995 72.3307 19.0154 71.9519 19.1827C71.5819 19.3501 71.1811 19.4338 70.7495 19.4338C70.4059 19.4338 70.1064 19.3633 69.851 19.2224C69.5955 19.0726 69.4017 18.8876 69.2696 18.6674C69.1374 18.4384 69.0714 18.1961 69.0714 17.9407C69.0714 17.5002 69.2696 17.1523 69.666 16.8968C70.0624 16.6413 70.5821 16.5136 71.2252 16.5136C71.5511 16.5136 71.8726 16.5444 72.1898 16.6061C72.5157 16.6678 72.8284 16.7559 73.1279 16.8704V17.8746C73.1279 17.9627 73.1015 18.064 73.0486 18.1785Z" fill="#F2F4F6"/>
<path d="M79.4033 13.8973C78.8043 13.915 78.2757 14.0823 77.8177 14.3995C77.3684 14.7166 77.0513 15.1526 76.8663 15.7076V19.9888H75.9678V13.1045H76.8134V14.7562C77.0513 14.2717 77.364 13.8797 77.7516 13.5802C78.148 13.2807 78.5664 13.1133 79.0069 13.0781C79.095 13.0693 79.1698 13.0649 79.2315 13.0649C79.302 13.0649 79.3592 13.0693 79.4033 13.0781V13.8973Z" fill="#F2F4F6"/>
<path fill-rule="evenodd" clip-rule="evenodd" d="M81.9797 19.8434C82.4025 20.0284 82.8606 20.1209 83.3539 20.1209C83.8032 20.1209 84.2216 20.0504 84.6092 19.9095C85.0056 19.7597 85.3491 19.5527 85.6398 19.2884C85.9305 19.0242 86.1464 18.7291 86.2873 18.4031L85.5077 18.1917C85.3491 18.5617 85.0673 18.8612 84.662 19.0902C84.2656 19.3193 83.8428 19.4338 83.3935 19.4338C82.9531 19.4338 82.5435 19.3237 82.1647 19.1035C81.7947 18.8744 81.4908 18.5705 81.253 18.1917C81.0239 17.8041 80.8874 17.3637 80.8434 16.8704H86.7366C86.7454 16.8351 86.7498 16.7867 86.7498 16.725V16.5136C86.7498 15.8794 86.6044 15.298 86.3137 14.7694C86.023 14.2321 85.6222 13.8004 85.1113 13.4745C84.6092 13.1486 84.019 12.9856 83.3407 12.9856C82.68 12.9856 82.0898 13.1486 81.5701 13.4745C81.0504 13.7916 80.6407 14.2189 80.3412 14.7562C80.0505 15.2936 79.9052 15.8838 79.9052 16.5268C79.9052 17.0201 79.9889 17.4826 80.1562 17.9142C80.3324 18.3459 80.5747 18.7291 80.883 19.0638C81.1913 19.3897 81.5569 19.6496 81.9797 19.8434ZM85.9041 16.2229H80.8169C80.8522 15.7296 80.9843 15.2936 81.2133 14.9148C81.4512 14.5272 81.7551 14.2277 82.1251 14.0163C82.495 13.796 82.9047 13.6859 83.3539 13.6859C83.8032 13.6859 84.2128 13.796 84.5828 14.0163C84.9616 14.2277 85.2655 14.5228 85.4945 14.9016C85.7323 15.2804 85.8689 15.7208 85.9041 16.2229Z" fill="#F2F4F6"/>
<path d="M89.1815 12.3117V19.9888H88.2565V10.6072H89.0229L95.1804 18.4296V10.6204H96.1053V19.9888H95.2465L89.1815 12.3117Z" fill="#F2F4F6"/>
<path fill-rule="evenodd" clip-rule="evenodd" d="M99.774 19.8434C100.197 20.0284 100.655 20.1209 101.148 20.1209C101.597 20.1209 102.016 20.0504 102.404 19.9095C102.8 19.7597 103.143 19.5527 103.434 19.2884C103.725 19.0242 103.941 18.7291 104.082 18.4031L103.302 18.1917C103.143 18.5617 102.862 18.8612 102.456 19.0902C102.06 19.3193 101.637 19.4338 101.188 19.4338C100.747 19.4338 100.338 19.3237 99.959 19.1035C99.589 18.8744 99.2851 18.5705 99.0473 18.1917C98.8183 17.8041 98.6817 17.3637 98.6377 16.8704H104.531C104.54 16.8351 104.544 16.7867 104.544 16.725V16.5136C104.544 15.8794 104.399 15.298 104.108 14.7694C103.817 14.2321 103.417 13.8004 102.906 13.4745C102.404 13.1486 101.813 12.9856 101.135 12.9856C100.474 12.9856 99.8841 13.1486 99.3644 13.4745C98.8447 13.7916 98.4351 14.2189 98.1356 14.7562C97.8449 15.2936 97.6995 15.8838 97.6995 16.5268C97.6995 17.0201 97.7832 17.4826 97.9506 17.9142C98.1267 18.3459 98.369 18.7291 98.6773 19.0638C98.9856 19.3897 99.3512 19.6496 99.774 19.8434ZM103.698 16.2229H98.6113C98.6465 15.7296 98.7786 15.2936 99.0076 14.9148C99.2455 14.5272 99.5494 14.2277 99.9194 14.0163C100.289 13.796 100.699 13.6859 101.148 13.6859C101.597 13.6859 102.007 13.796 102.377 14.0163C102.756 14.2277 103.06 14.5228 103.289 14.9016C103.527 15.2804 103.663 15.7208 103.698 16.2229Z" fill="#F2F4F6"/>
<path d="M109.169 19.6584C109.099 19.6849 108.989 19.7333 108.839 19.8038C108.689 19.8742 108.509 19.9359 108.297 19.9888C108.086 20.0416 107.857 20.068 107.61 20.068C107.355 20.068 107.112 20.0196 106.883 19.9227C106.663 19.8258 106.487 19.6804 106.355 19.4866C106.223 19.284 106.157 19.0374 106.157 18.7467V13.8181H105.205V13.1045H106.157V10.779H107.055V13.1045H108.641V13.8181H107.055V18.4956C107.073 18.7423 107.161 18.9273 107.319 19.0506C107.487 19.1739 107.676 19.2356 107.888 19.2356C108.134 19.2356 108.359 19.1959 108.561 19.1167C108.764 19.0286 108.887 18.9669 108.931 18.9317L109.169 19.6584Z" fill="#F2F4F6"/>
<path d="M119.845 13.1045H118.96L116.463 19.0638L115.194 15.9586L116.344 13.1177H115.551L114.666 15.3508L113.793 13.1177H112.987L114.15 15.9586L112.882 19.0638L110.371 13.1045H109.499L112.459 19.9888H113.238L114.666 16.5665L116.106 19.9888H116.885L119.845 13.1045Z" fill="#F2F4F6"/>
<path fill-rule="evenodd" clip-rule="evenodd" d="M123.742 20.1209C123.249 20.1209 122.79 20.0284 122.368 19.8434C121.954 19.6496 121.592 19.3897 121.284 19.0638C120.985 18.7291 120.751 18.3503 120.584 17.9275C120.416 17.4958 120.333 17.0422 120.333 16.5665C120.333 16.0732 120.416 15.6151 120.584 15.1923C120.751 14.7606 120.989 14.3818 121.297 14.0559C121.606 13.7212 121.967 13.4613 122.381 13.2763C122.804 13.0825 123.262 12.9856 123.755 12.9856C124.248 12.9856 124.702 13.0825 125.116 13.2763C125.53 13.4613 125.891 13.7212 126.2 14.0559C126.508 14.3818 126.746 14.7606 126.913 15.1923C127.08 15.6151 127.164 16.0732 127.164 16.5665C127.164 17.0422 127.08 17.4958 126.913 17.9275C126.746 18.3503 126.508 18.7291 126.2 19.0638C125.9 19.3897 125.539 19.6496 125.116 19.8434C124.702 20.0284 124.244 20.1209 123.742 20.1209ZM121.244 16.5797C121.244 17.0906 121.355 17.5575 121.575 17.9803C121.804 18.3943 122.108 18.7247 122.487 18.9713C122.865 19.2092 123.284 19.3281 123.742 19.3281C124.2 19.3281 124.618 19.2048 124.997 18.9581C125.376 18.7115 125.68 18.3767 125.909 17.9539C126.138 17.5222 126.252 17.0554 126.252 16.5533C126.252 16.0423 126.138 15.5755 125.909 15.1526C125.68 14.7298 125.376 14.3951 124.997 14.1484C124.618 13.9017 124.2 13.7784 123.742 13.7784C123.284 13.7784 122.865 13.9062 122.487 14.1616C122.117 14.4171 121.817 14.7562 121.588 15.1791C121.359 15.5931 121.244 16.0599 121.244 16.5797Z" fill="#F2F4F6"/>
<path d="M130.517 14.3995C130.975 14.0823 131.503 13.915 132.102 13.8973V13.0781C132.058 13.0693 132.001 13.0649 131.931 13.0649C131.869 13.0649 131.794 13.0693 131.706 13.0781C131.266 13.1133 130.847 13.2807 130.451 13.5802C130.063 13.8797 129.75 14.2717 129.513 14.7562V13.1045H128.667V19.9888H129.565V15.7076C129.75 15.1526 130.067 14.7166 130.517 14.3995Z" fill="#F2F4F6"/>
<path d="M140.993 19.8434C141.478 20.0284 142.002 20.1209 142.566 20.1209C143.358 20.1209 143.997 19.9403 144.482 19.5791C144.966 19.218 145.208 18.7159 145.208 18.0728C145.208 17.6588 145.103 17.3373 144.891 17.1082C144.68 16.8792 144.38 16.6942 143.993 16.5533C143.605 16.4035 143.151 16.2582 142.632 16.1172C142.27 16.0115 141.967 15.9146 141.72 15.8265C141.473 15.7296 141.288 15.6151 141.165 15.483C141.042 15.342 140.98 15.1482 140.98 14.9016C140.98 14.6021 141.059 14.3686 141.218 14.2013C141.385 14.0251 141.597 13.9017 141.852 13.8313C142.108 13.752 142.376 13.7124 142.658 13.7124C143.072 13.7124 143.446 13.7828 143.781 13.9238C144.125 14.0559 144.42 14.2629 144.667 14.5448L145.103 13.937C144.847 13.6375 144.517 13.404 144.112 13.2367C143.706 13.0693 143.239 12.9856 142.711 12.9856C142.226 12.9856 141.786 13.0649 141.39 13.2235C141.002 13.3732 140.694 13.5978 140.465 13.8973C140.244 14.188 140.134 14.558 140.134 15.0073C140.134 15.3684 140.214 15.6635 140.372 15.8926C140.54 16.1128 140.782 16.2978 141.099 16.4475C141.425 16.5885 141.826 16.725 142.301 16.8572C142.724 16.9629 143.085 17.0642 143.385 17.1611C143.693 17.2492 143.927 17.3681 144.085 17.5178C144.253 17.6588 144.336 17.8658 144.336 18.1389C144.336 18.5441 144.169 18.8568 143.834 19.077C143.499 19.2884 143.063 19.3942 142.526 19.3942C142.085 19.3942 141.667 19.3149 141.271 19.1563C140.883 18.9889 140.495 18.7247 140.108 18.3635L139.738 18.9977C140.09 19.3765 140.509 19.6584 140.993 19.8434Z" fill="#F2F4F6"/>
</svg>
