<svg width="156" height="32" viewBox="0 0 156 32" fill="none" xmlns="http://www.w3.org/2000/svg">
<g clip-path="url(#clip0_1620_48378)">
<path d="M78.4739 9.69986C79.2476 8.71983 80.6403 8.10085 82.1877 8.10085C85.8757 8.10085 87.7584 9.90617 87.81 13.491V21.3313C87.81 21.976 87.2942 22.4661 86.6752 22.4661C86.0305 22.4661 85.5405 21.9503 85.5405 21.3313V13.8779C85.5405 11.2473 84.5604 10.1641 82.1877 10.1641C79.7377 10.1641 78.4739 11.4794 78.4739 14.0842V21.3313C78.4739 21.976 77.9581 22.4661 77.3392 22.4661C76.6944 22.4661 76.2044 21.9503 76.2044 21.3313V2.06592C76.2044 1.42117 76.7202 0.931152 77.3392 0.931152C77.9839 0.931152 78.4739 1.44696 78.4739 2.06592V9.69986Z" fill="#BFC9D1"/>
<path d="M38.6537 1.73068C34.7594 1.73068 33.3925 4.43866 33.3925 6.96611V8.51352H32.5672C31.974 8.51352 31.5098 8.97775 31.5098 9.57093C31.5098 10.1641 31.974 10.6283 32.5672 10.6283H33.3925V21.3055C33.3925 21.9245 33.8825 22.4403 34.5273 22.4403C35.1462 22.4403 35.662 21.9503 35.662 21.3055V10.6283H38.1637C38.7569 10.6283 39.2211 10.1641 39.2211 9.57093C39.2211 8.97775 38.7569 8.51352 38.1637 8.51352H35.662V6.96611C35.662 5.54764 36.1778 3.87127 38.6795 3.87127C39.2727 3.87127 39.7369 3.40704 39.7369 2.81387C39.7111 2.1949 39.2469 1.73068 38.6537 1.73068Z" fill="#BFC9D1"/>
<path d="M47.4224 8.15244C45.746 8.15244 44.3276 8.84878 43.5281 9.98355V9.39037C43.5281 8.7714 43.038 8.2556 42.3933 8.2556C41.7743 8.2556 41.2585 8.74561 41.2585 9.39037V21.3055C41.2585 21.9245 41.7485 22.4403 42.3933 22.4403C43.0122 22.4403 43.5281 21.9503 43.5281 21.3055V14.729C43.5281 11.9694 44.9981 10.3188 47.4224 10.3188C48.0156 10.3188 48.5056 9.8288 48.5056 9.23563C48.5314 8.64245 48.0414 8.15244 47.4224 8.15244Z" fill="#BFC9D1"/>
<path fill-rule="evenodd" clip-rule="evenodd" d="M60.137 10.293C61.1171 11.6857 61.2202 13.362 61.2202 14.0068C61.2202 14.8321 61.2202 16.07 59.8533 16.0958H51.4715C51.5488 18.8296 53.1736 20.5059 55.7269 20.5059C57.3517 20.5059 58.3059 19.887 59.1312 19.268C59.3117 19.1391 59.4923 19.0617 59.776 19.0617C60.3433 19.0617 60.8076 19.5259 60.8076 20.0933C60.8076 20.4802 60.6012 20.7123 60.4207 20.8928C60.137 21.1765 58.5638 22.595 55.7011 22.595C51.4457 22.595 49.1761 20.0675 49.1761 15.3221C49.1761 10.7314 51.4457 8.10081 55.4174 8.10081C57.558 8.10081 59.1312 8.84873 60.137 10.293ZM59.0022 14.0584C58.9507 11.4793 57.7385 10.164 55.4174 10.164C53.0963 10.164 51.7036 11.5567 51.4973 14.0584H59.0022Z" fill="#BFC9D1"/>
<path d="M68.8026 14.1873C67.1262 13.62 65.6819 13.1042 65.6819 11.8662C65.6819 10.4993 67.2036 10.293 68.1062 10.293C69.731 10.293 70.5305 10.8604 71.1753 11.4794C71.3816 11.6857 71.6395 11.7888 71.9232 11.7888C72.4906 11.7888 72.9548 11.3246 72.9548 10.7572C72.9548 10.4478 72.8258 10.2414 72.7227 10.0867C71.7684 8.82296 70.1437 8.12662 68.1062 8.12662C65.2177 8.12662 63.4382 9.57088 63.4382 11.8662C63.4382 14.6774 65.914 15.5284 68.0804 16.2506L68.1724 16.2822C69.7833 16.8355 71.1495 17.3048 71.1495 18.4943C71.1495 20.1449 69.3184 20.4028 68.2094 20.4028C66.7135 20.4028 65.553 19.9386 64.5987 19.0101C64.315 18.7264 64.0056 18.6749 63.825 18.6749C63.2576 18.6749 62.7934 19.1391 62.7934 19.7065C62.7934 19.9386 62.8708 20.1191 63.0513 20.377C63.9024 21.4602 65.8367 22.5692 68.2094 22.5692C71.459 22.5692 73.3932 21.0476 73.3932 18.5201C73.3932 15.7863 70.969 14.9353 68.8026 14.1873Z" fill="#BFC9D1"/>
<path d="M106.56 8.28139C106.07 8.28139 105.683 8.56508 105.502 9.02931L102.278 18.2107L99.6478 9.02931C99.5446 8.66824 99.1578 8.28139 98.5904 8.28139C98.023 8.28139 97.6361 8.66824 97.533 9.02931L94.9024 18.1849L91.6786 9.00352C91.498 8.53929 91.1112 8.28139 90.6212 8.28139C90.0022 8.28139 89.4864 8.7714 89.4864 9.41616C89.4864 9.5709 89.5122 9.72564 89.5895 9.88038L93.8965 21.7181C94.0771 22.1824 94.4639 22.4403 94.9539 22.4403C95.4697 22.4403 95.9082 22.105 96.0371 21.6408L98.5646 12.9494L101.092 21.6408C101.221 22.105 101.685 22.4403 102.175 22.4403C102.665 22.4403 103.052 22.1566 103.233 21.6923L107.54 9.8546C107.617 9.69986 107.643 9.51932 107.643 9.36458C107.669 8.7714 107.179 8.28139 106.56 8.28139Z" fill="#BFC9D1"/>
<path fill-rule="evenodd" clip-rule="evenodd" d="M108.416 15.3221C108.416 10.6798 110.66 8.10081 114.761 8.10081C118.836 8.10081 121.105 10.654 121.105 15.3221C121.105 20.0159 118.862 22.595 114.761 22.595C110.66 22.595 108.416 20.0159 108.416 15.3221ZM110.686 15.3479C110.686 18.8296 112.027 20.5317 114.761 20.5317C117.495 20.5317 118.836 18.8296 118.836 15.3479C118.836 11.9178 117.469 10.1898 114.761 10.1898C112.053 10.1898 110.686 11.9178 110.686 15.3479Z" fill="#BFC9D1"/>
<path d="M129.822 8.15244C128.146 8.15244 126.728 8.84878 125.928 9.98355V9.39037C125.928 8.7714 125.438 8.2556 124.793 8.2556C124.174 8.2556 123.659 8.74561 123.659 9.39037V21.3055C123.659 21.9245 124.149 22.4403 124.793 22.4403C125.412 22.4403 125.928 21.9503 125.928 21.3055V14.729C125.928 11.9694 127.398 10.3188 129.822 10.3188C130.416 10.3188 130.906 9.8288 130.906 9.23563C130.906 8.64245 130.416 8.15244 129.822 8.15244Z" fill="#BFC9D1"/>
<path d="M143.053 10.293L138.385 14.0326L143.466 20.6349C143.672 20.8928 143.698 21.1508 143.698 21.3313C143.698 21.976 143.182 22.4661 142.563 22.4661C142.202 22.4661 141.892 22.2855 141.609 21.9503L136.528 15.4253L134.955 16.689V21.3313C134.955 21.976 134.439 22.4661 133.82 22.4661C133.175 22.4661 132.685 21.9503 132.685 21.3313V2.06592C132.685 1.42117 133.201 0.931152 133.82 0.931152C134.465 0.931152 134.955 1.44696 134.955 2.06592V13.9553L141.583 8.53929C141.867 8.28139 142.176 8.2556 142.357 8.2556C143.001 8.2556 143.491 8.7714 143.491 9.39037C143.491 9.59669 143.44 9.98355 143.053 10.293Z" fill="#BFC9D1"/>
<path d="M151.099 14.1873C149.423 13.62 147.979 13.1042 147.979 11.8662C147.979 10.4993 149.5 10.293 150.403 10.293C152.028 10.293 152.827 10.8604 153.472 11.4794C153.678 11.6857 153.936 11.7888 154.22 11.7888C154.787 11.7888 155.252 11.3246 155.252 10.7572C155.252 10.482 155.13 10.2763 155.058 10.1544C155.042 10.1278 155.029 10.1052 155.02 10.0867C154.065 8.82296 152.441 8.12662 150.403 8.12662C147.515 8.12662 145.735 9.57088 145.735 11.8662C145.735 14.6774 148.211 15.5284 150.377 16.2506L150.469 16.2822C152.08 16.8355 153.446 17.3047 153.446 18.4943C153.446 20.1449 151.615 20.4028 150.506 20.4028C149.01 20.4028 147.85 19.9386 146.896 19.0101C146.612 18.7264 146.328 18.6749 146.122 18.6749C145.555 18.6749 145.09 19.1391 145.09 19.7065C145.09 19.9386 145.168 20.1191 145.348 20.377C146.199 21.4602 148.134 22.5692 150.506 22.5692C153.756 22.5692 155.69 21.0476 155.69 18.5201C155.69 15.7863 153.266 14.9353 151.099 14.1873Z" fill="#BFC9D1"/>
<path d="M14.1916 5.49609C6.89175 5.49609 0.97406 11.4138 0.97406 18.7136C0.97406 26.0135 6.89175 31.9312 14.1916 31.9312C21.4914 31.9312 27.4091 26.0135 27.4091 18.7136V8.84883C27.4091 6.99716 25.9081 5.49609 24.0564 5.49609H14.1916Z" fill="#BFC9D1"/>
</g>
<defs>
<clipPath id="clip0_1620_48378">
<rect width="154.716" height="31" fill="white" transform="translate(0.97406 0.931152)"/>
</clipPath>
</defs>
</svg>
