<svg width="185" height="32" viewBox="0 0 185 32" fill="none" xmlns="http://www.w3.org/2000/svg">
<g opacity="0.7" clip-path="url(#clip0_2399_40346)">
<path d="M33.6692 2.59691V14.8572L26.0356 3.94042L24.3518 4.23704V8.70378L18.4049 9.75067V32L26.0356 30.6536V18.3933L33.6692 29.3072L41.2999 27.9637V1.25049L33.6692 2.59691Z" fill="white"/>
<path d="M22.8979 0L15.2643 1.34642L7.63359 2.69284L0 4.03635V11.6699L7.63359 10.3235V29.4031L15.2643 28.0596V8.9771L22.8979 7.63359V0Z" fill="white"/>
<path d="M115.807 3.44897H119.7L128.867 17.5093V3.44897H132.935V24.8172H129.027L119.875 10.7976V24.8172H115.807V3.44897Z" fill="white"/>
<path d="M146.957 14.9387C146.705 14.0683 146.164 13.3101 145.422 12.7896C144.64 12.2334 143.7 11.9429 142.741 11.9609C141.695 11.942 140.673 12.2692 139.833 12.8914C139.309 13.2792 138.825 13.9577 138.379 14.927L146.957 14.9387ZM150.947 18.0619H138.198C138.339 19.1081 138.865 20.0642 139.673 20.7431C140.54 21.4292 141.624 21.782 142.729 21.7377C143.438 21.7481 144.141 21.616 144.797 21.3492C145.454 21.0825 146.05 20.6865 146.55 20.1848L149.892 21.758C149.134 22.8717 148.104 23.7728 146.899 24.3752C145.602 24.9705 144.185 25.261 142.758 25.2244C140.281 25.2244 138.261 24.4421 136.701 22.8776C135.14 21.3131 134.365 19.354 134.374 17.0005C134.372 14.5887 135.147 12.588 136.698 10.9983C137.453 10.2155 138.362 9.59863 139.369 9.18705C140.375 8.77547 141.456 8.57822 142.543 8.60789C145.032 8.60789 147.057 9.40469 148.618 10.9983C150.179 12.5919 150.954 14.6954 150.944 17.3087L150.947 18.0619Z" fill="white"/>
<path d="M150.212 9.01196H154.091L157.272 18.0036L160.701 9.01196H163.068L166.424 17.9018L169.605 9.01196H173.514L167.747 24.8171H165.232L161.861 15.8109L158.389 24.8171H155.905L150.212 9.01196Z" fill="white"/>
<path d="M183.91 11.2191L181.455 13.6735C180.459 12.6886 179.554 12.1952 178.739 12.1933C178.368 12.1742 178.001 12.2763 177.692 12.4841C177.578 12.5631 177.483 12.6685 177.418 12.7914C177.352 12.9144 177.316 13.0513 177.314 13.1907C177.32 13.4079 177.406 13.6153 177.556 13.7723C177.909 14.0784 178.308 14.3258 178.739 14.5052L180.193 15.2322C181.727 15.9883 182.778 16.7579 183.346 17.5412C184.005 18.4955 184.297 19.6559 184.168 20.8085C184.039 21.9611 183.498 23.0284 182.645 23.8138C181.613 24.756 180.231 25.2261 178.498 25.2242C177.427 25.2569 176.364 25.028 175.401 24.5572C174.438 24.0865 173.605 23.3881 172.973 22.5226L175.413 19.8647C175.875 20.4011 176.435 20.846 177.061 21.1762C177.567 21.4759 178.138 21.6476 178.725 21.6764C179.177 21.6993 179.622 21.5658 179.987 21.2983C180.13 21.2015 180.249 21.0718 180.332 20.9201C180.416 20.7684 180.462 20.599 180.467 20.4259C180.467 19.8172 179.891 19.222 178.739 18.6404L177.41 17.9774C174.853 16.6901 173.575 15.0781 173.575 13.1413C173.572 12.5348 173.7 11.9348 173.951 11.3826C174.202 10.8304 174.57 10.3391 175.029 9.94247C176.043 9.03766 177.369 8.56131 178.728 8.6135C179.74 8.60745 180.739 8.84152 181.642 9.29649C182.546 9.75146 183.329 10.4144 183.927 11.2307L183.91 11.2191Z" fill="white"/>
<path d="M48.8026 5.52531V3.44897H60.5278V5.52531H55.7615V24.8172H53.5834V5.52531H48.8026Z" fill="white"/>
<path d="M65.9019 10.5939C65.087 10.5862 64.2794 10.7491 63.5312 11.0721C62.783 11.3952 62.1106 11.8712 61.5573 12.4695C60.9677 13.0654 60.5034 13.7732 60.1917 14.5514C59.8801 15.3295 59.7274 16.1622 59.7427 17.0003C59.7366 18.1204 60.0223 19.2228 60.5715 20.1991C61.0911 21.1532 61.8652 21.9445 62.8078 22.4848C63.7529 23.0149 64.8183 23.2933 65.9019 23.2933C66.9855 23.2933 68.051 23.0149 68.9961 22.4848C69.9386 21.9445 70.7127 21.1532 71.2323 20.1991C71.7816 19.2228 72.0672 18.1204 72.0611 17.0003C72.0763 16.1614 71.9227 15.3281 71.6094 14.5498C71.2962 13.7715 70.8298 13.0641 70.2378 12.4695C69.6855 11.8723 69.0145 11.3969 68.2679 11.0739C67.5213 10.7509 66.7154 10.5874 65.9019 10.5939V10.5939ZM65.9019 8.60477C67.0411 8.57758 68.1723 8.80013 69.2163 9.2568C70.2603 9.71347 71.1916 10.3932 71.9448 11.2482C73.3696 12.8311 74.1478 14.8915 74.1252 17.0212C74.1026 19.1508 73.2808 21.1942 71.8227 22.7465C70.2872 24.3983 68.3136 25.2242 65.9019 25.2242C63.4902 25.2242 61.5118 24.3983 59.9666 22.7465C58.5101 21.1963 57.6892 19.1554 57.6666 17.0284C57.644 14.9015 58.4213 12.8436 59.8445 11.2627C60.5981 10.4033 61.5311 9.71985 62.5778 9.26058C63.6245 8.80131 64.7592 8.57744 65.9019 8.60477V8.60477Z" fill="white"/>
<path d="M73.1923 9.01196H75.2831L80.1192 20.4871L85.1908 9.01196H85.5543L90.6085 20.4871L95.5347 9.01196H97.6547L90.7975 24.8171H90.4049L85.3798 13.502L80.3111 24.8171H79.9331L73.1923 9.01196Z" fill="white"/>
<path d="M98.9429 9.01198H100.978V11.8444C101.694 10.8477 102.617 10.0174 103.683 9.41038C104.673 8.87346 105.782 8.59631 106.908 8.60486C108.022 8.5854 109.117 8.89933 110.052 9.50635C110.959 10.0909 111.669 10.9364 112.087 11.9316C112.523 12.9495 112.742 14.5334 112.742 16.6834V24.8259H110.72V17.2766C110.72 15.4562 110.644 14.2406 110.491 13.6299C110.349 12.6981 109.86 11.8546 109.121 11.2695C108.382 10.6845 107.449 10.4015 106.51 10.4776C105.296 10.4714 104.121 10.9053 103.203 11.699C102.255 12.4742 101.58 13.5332 101.278 14.7205C101.084 15.4959 100.987 16.9296 100.987 19.0214V24.8171H98.9516L98.9429 9.01198Z" fill="white"/>
</g>
<defs>
<clipPath id="clip0_2399_40346">
<rect width="184.201" height="32" fill="white"/>
</clipPath>
</defs>
</svg>
