<svg width="33" height="30" viewBox="0 0 33 30" fill="none" xmlns="http://www.w3.org/2000/svg">
<g clip-path="url(#clip0_1330_5637)">
<path fill-rule="evenodd" clip-rule="evenodd" d="M10.3 5.5H19.3V9.5H10.3V5.5ZM20.3 5.5H29.3V9.5H20.3V5.5Z" fill="#B0BECA"/>
<path fill-rule="evenodd" clip-rule="evenodd" d="M10.3 10.5H19.3V14.5H10.3V10.5ZM20.3 10.5H29.3V14.5H20.3V10.5ZM10.3 15.5H19.3V19.5H10.3V15.5ZM20.3 15.5H29.3V19.5H20.3V15.5ZM10.3 20.5H19.3V24.5H10.3V20.5ZM20.3 20.5H29.3V24.5H20.3V20.5Z" fill="#D7DCE1"/>
<path fill-rule="evenodd" clip-rule="evenodd" d="M4.30005 5.5H9.30005V9.5H4.30005V5.5ZM4.30005 10.5H9.30005V14.5H4.30005V10.5ZM4.30005 15.5H9.30005V19.5H4.30005V15.5ZM4.30005 20.5H9.30005V24.5H4.30005V20.5Z" fill="#B0BECA"/>
</g>
<defs>
<clipPath id="clip0_1330_5637">
<rect width="25" height="19" fill="white" transform="translate(4.30005 5.5)"/>
</clipPath>
</defs>
</svg>
