<svg width="33" height="30" viewBox="0 0 33 30" fill="none" xmlns="http://www.w3.org/2000/svg">
<g clip-path="url(#clip0_1330_5684)">
<path fill-rule="evenodd" clip-rule="evenodd" d="M3.40002 11.75H24.4V18.25H3.40002V11.75ZM3.40002 21.5H21.4V28H3.40002V21.5ZM3.40002 2H29.4V8.5H3.40002V2Z" fill="#D7DCE1"/>
<path fill-rule="evenodd" clip-rule="evenodd" d="M23.4 4.16667V3.08333H24.4V4.16667H27.4V6.33333H24.4V7.41667H23.4V6.33333H3.40002V4.16667H23.4ZM3.40002 13.9167H15.4V16.0833H3.40002V13.9167ZM18.4 12.8333H19.4V17.1667H18.4V12.8333ZM3.40002 23.6667H11.4V25.8333H3.40002V23.6667ZM14.4 22.5833H15.4V26.9167H14.4V22.5833Z" fill="#B0BECA"/>
</g>
<defs>
<clipPath id="clip0_1330_5684">
<rect width="26" height="26" fill="white" transform="translate(3.40002 2)"/>
</clipPath>
</defs>
</svg>
