<svg width="33" height="30" viewBox="0 0 33 30" fill="none" xmlns="http://www.w3.org/2000/svg">
<path fill-rule="evenodd" clip-rule="evenodd" d="M3.40002 2H5.40002V28H3.40002V2ZM5.40002 26H29.4V28H5.40002V26Z" fill="#B0BECA" fill-opacity="0.4"/>
<path d="M15.4 12C17.8853 12 19.9 9.98528 19.9 7.5C19.9 5.01472 17.8853 3 15.4 3C12.9147 3 10.9 5.01472 10.9 7.5C10.9 9.98528 12.9147 12 15.4 12Z" fill="#B0BECA"/>
<path d="M26.4 18C28.0569 18 29.4 16.6569 29.4 15C29.4 13.3431 28.0569 12 26.4 12C24.7432 12 23.4 13.3431 23.4 15C23.4 16.6569 24.7432 18 26.4 18Z" fill="#B0BECA"/>
<path d="M11.4 23C12.5046 23 13.4 22.1046 13.4 21C13.4 19.8954 12.5046 19 11.4 19C10.2955 19 9.40002 19.8954 9.40002 21C9.40002 22.1046 10.2955 23 11.4 23Z" fill="#B0BECA"/>
</svg>
