<svg width="33" height="30" viewBox="0 0 33 30" fill="none" xmlns="http://www.w3.org/2000/svg">
<path fill-rule="evenodd" clip-rule="evenodd" d="M21.8 2H29.8V5H21.8V2Z" fill="#B0BECA" fill-opacity="0.6"/>
<path fill-rule="evenodd" clip-rule="evenodd" d="M12.8 2H20.8V5H12.8V2Z" fill="#B0BECA"/>
<path fill-rule="evenodd" clip-rule="evenodd" d="M3.80005 2H11.8V5H3.80005V2Z" fill="#B0BECA" fill-opacity="0.6"/>
<path fill-rule="evenodd" clip-rule="evenodd" d="M12.8 6H20.8V9H12.8V6Z" fill="#B0BECA" fill-opacity="0.4"/>
<path fill-rule="evenodd" clip-rule="evenodd" d="M21.8 6H29.8V9H21.8V6Z" fill="#B0BECA"/>
<path fill-rule="evenodd" clip-rule="evenodd" d="M3.80005 6H11.8V9H3.80005V6Z" fill="#B0BECA" fill-opacity="0.6"/>
<path fill-rule="evenodd" clip-rule="evenodd" d="M12.8 10H20.8V13H12.8V10ZM21.8 10H29.8V13H21.8V10Z" fill="#B0BECA"/>
<path fill-rule="evenodd" clip-rule="evenodd" d="M3.80005 10H11.8V13H3.80005V10Z" fill="#B0BECA" fill-opacity="0.4"/>
<path fill-rule="evenodd" clip-rule="evenodd" d="M12.8 14H20.8V17H12.8V14Z" fill="#B0BECA"/>
<path fill-rule="evenodd" clip-rule="evenodd" d="M21.8 14H29.8V17H21.8V14ZM3.80005 14H11.8V17H3.80005V14Z" fill="#B0BECA" fill-opacity="0.4"/>
<path fill-rule="evenodd" clip-rule="evenodd" d="M12.8 18H20.8V21H12.8V18ZM21.8 18H29.8V21H21.8V18Z" fill="#B0BECA"/>
<path fill-rule="evenodd" clip-rule="evenodd" d="M3.80005 18H11.8V21H3.80005V18ZM12.8 22H20.8V25H12.8V22Z" fill="#B0BECA" fill-opacity="0.4"/>
<path fill-rule="evenodd" clip-rule="evenodd" d="M12.8 26H20.8V28H12.8V26Z" fill="#B0BECA"/>
<path fill-rule="evenodd" clip-rule="evenodd" d="M21.8 22H29.8V25H21.8V22ZM21.8 26H29.8V28H21.8V26Z" fill="#B0BECA" fill-opacity="0.4"/>
<path fill-rule="evenodd" clip-rule="evenodd" d="M3.80005 22H11.8V25H3.80005V22ZM3.80005 26H11.8V28H3.80005V26Z" fill="#B0BECA" fill-opacity="0.6"/>
</svg>
