<svg width="33" height="30" viewBox="0 0 33 30" fill="none" xmlns="http://www.w3.org/2000/svg">
<g clip-path="url(#clip0_1330_5659)">
<path d="M22.4877 7.21605L23.9078 5.79591C22.0555 4.22788 19.7214 3.2114 17.1589 3V4.98389H17.1543C16.6435 12.6697 9.71528 15.9589 5.6543 15.9589L4.19995 15.959C4.41135 18.5214 5.42783 20.8555 6.99586 22.7079L7.71883 21.9849C12.5505 18.4188 19.3199 18.1106 23.8991 21.286C24.1516 20.985 24.3906 20.6674 24.6066 20.3395C19.2602 17.0943 12.9972 17.6825 8.14125 20.5925C13.3503 16.7227 20.8259 13.959 26.159 13.959L26.1095 13.9588C26.0761 13.6223 26.026 13.2907 25.9601 12.9648C21.3647 13.1202 16.2323 14.71 11.4782 17.2496C15.0468 15.0032 19.2388 11.6793 20.74 6.06767C21.3637 6.38965 21.9491 6.77531 22.4877 7.21605Z" fill="#B0BECA" fill-opacity="0.4"/>
<path d="M8.41016 24.1222L9.83023 22.7021C11.3118 23.9146 13.1477 24.7101 15.1589 24.9098V26.9181C12.5966 26.7067 10.2625 25.6902 8.41016 24.1222Z" fill="#B0BECA" fill-opacity="0.4"/>
<path d="M15.1588 3C12.5964 3.2114 10.2622 4.22788 8.40991 5.79591L9.83005 7.21605C11.3116 6.00363 13.1476 5.20805 15.1588 5.00836V3Z" fill="#B0BECA" fill-opacity="0.4"/>
<path d="M8.28279 8.49697L6.99578 7.20996C5.42779 9.06228 4.41134 11.3964 4.19995 13.9588H6.15894C9.15894 13.9588 16.6589 16.959 17.1589 24.959V26.9181C19.7213 26.7067 22.0554 25.6902 23.9077 24.1222L22.4876 22.7021C21.373 23.6143 20.0577 24.2905 18.6182 24.6545C17.9217 19.7811 15.3423 16.6168 12.1782 14.6894C15.5663 15.9013 19.3817 16.8902 25.9596 16.9555C25.6312 18.5763 24.9109 20.0547 23.9019 21.2878L25.3219 22.7079C26.89 20.8555 27.9065 18.5214 28.1179 15.959H26.6589C22.3752 15.959 18.3518 15.5958 14.4082 14.4318C19.149 14.87 23.2683 12.8607 25.4123 11.1605C25.7727 12.0376 26.0121 12.9773 26.1095 13.9588H28.1178C27.9064 11.3964 26.89 9.06228 25.322 7.20996L24.2392 8.2928C17.2547 13.6756 10.6252 10.3053 8.28279 8.49697Z" fill="#B0BECA"/>
</g>
<defs>
<clipPath id="clip0_1330_5659">
<rect width="24" height="24" fill="white" transform="translate(4.19995 3)"/>
</clipPath>
</defs>
</svg>
