<svg width="33" height="30" viewBox="0 0 33 30" fill="none" xmlns="http://www.w3.org/2000/svg">
<g clip-path="url(#clip0_1323_5298)">
<path fill-rule="evenodd" clip-rule="evenodd" d="M23.1596 15.1287C23.1596 12.7825 21.8129 10.7508 19.8503 9.76442L21.8099 5.85782C25.0872 7.61023 27.3313 11.0423 27.392 15.004C27.3913 15.0456 27.3905 15.0872 27.3894 15.1287H23.1596Z" fill="#B0BECA"/>
<path fill-rule="evenodd" clip-rule="evenodd" d="M18.7451 9.34042C18.24 9.2024 17.7084 9.12871 17.1596 9.12871C13.8459 9.12871 11.1596 11.815 11.1596 15.1287C11.1596 18.4424 13.8459 21.1287 17.1596 21.1287C20.1142 21.1287 22.5701 18.993 23.0676 16.1812H27.3087C26.6494 21.375 22.2144 25.3908 16.8415 25.3908C11.014 25.3908 6.28979 20.6666 6.28979 14.8391C6.28979 9.01152 11.014 4.28735 16.8415 4.28735C18.2509 4.28735 19.5957 4.56366 20.8247 5.06505L18.7451 9.34042Z" fill="#D9E0E5"/>
</g>
<defs>
<clipPath id="clip0_1323_5298">
<rect width="22" height="22" fill="white" transform="translate(5.6001 4)"/>
</clipPath>
</defs>
</svg>
