<svg width="32" height="30" viewBox="0 0 32 30" fill="none" xmlns="http://www.w3.org/2000/svg">
<path fill-rule="evenodd" clip-rule="evenodd" d="M12.9614 28C12.9614 28 21.9614 15.9706 21.9614 11C21.9614 6.02944 17.932 2 12.9614 2C7.99086 2 3.96143 6.02944 3.96143 11C3.96143 15.9706 12.9614 28 12.9614 28ZM12.9614 15C15.1706 15 16.9614 13.2091 16.9614 11C16.9614 8.79086 15.1706 7 12.9614 7C10.7523 7 8.96143 8.79086 8.96143 11C8.96143 13.2091 10.7523 15 12.9614 15Z" fill="#B0BECA"/>
<path d="M19.313 20.2305C20.8218 22.7568 22.5 25 22.5 25C22.5 25 28.0386 17.5977 28.0386 14.5381C28.0386 11.5674 25.6992 9.14258 22.7627 9.00586C22.8931 9.65039 22.9614 10.3174 22.9614 11C22.9614 11.3486 22.9253 11.7178 22.8589 12.1035C24.0479 12.2773 24.9614 13.3008 24.9614 14.5381C24.9614 15.8975 23.8594 17 22.5 17C22.0386 17 21.6064 16.873 21.2373 16.6514C20.6709 17.8291 20.0059 19.0469 19.313 20.2305Z" fill="#B0BECA" fill-opacity="0.5"/>
</svg>
