<svg width="700" height="1467" viewBox="0 0 700 1467" fill="none" xmlns="http://www.w3.org/2000/svg">
<path d="M301.018 1258.5C313.213 1259.3 325.273 1259.83 337.311 1261.06C353.612 1263.06 369.321 1267.01 384.093 1272.8C398.298 1278.19 412.188 1284.42 425.943 1290.4C455.571 1303.51 486.302 1313.62 518.019 1315.42C536.538 1316.59 555.471 1315.42 574.348 1311.94C586.86 1309.37 599.278 1305.9 611.49 1301.54C620.495 1298.1 629.32 1294.08 637.9 1289.51C644.908 1286.18 652.074 1282.43 658.811 1278.59C668.478 1273.07 677.873 1267.04 687.697 1261.1C698.107 1254.82 708.246 1248.02 719.355 1242.36C736.458 1233.61 754.238 1226.17 773.306 1223.38C788.921 1220.54 804.456 1221.83 818.189 1227.11C829.321 1231.77 838.393 1239.57 844.353 1249.61C850.513 1259.24 856.223 1269.47 862.384 1279.11C869.16 1290.25 877.866 1300.07 888.191 1308.22C893.181 1312.07 898.611 1315.41 904.406 1318.18C919.253 1325.02 936.426 1327.38 953.934 1324.99C966.928 1323.63 979.887 1320.12 992.225 1314.61C998.958 1311.83 1005.55 1308.64 1011.94 1305.05C1019.72 1300.27 1026.79 1294.89 1034 1289.77C1040.62 1284.97 1047.11 1279.92 1054.3 1275.49C1064.28 1269.12 1074.69 1262.84 1084.94 1256.99C1090.53 1254.21 1096.28 1251.83 1102.14 1249.88C1106.8 1247.89 1111.76 1245.74 1116.42 1243.75C1122.1 1241.52 1128.08 1239.13 1133.62 1236.64L1141.93 1232.91C1146.46 1230.66 1150.86 1228.15 1155.52 1226.17C1175.94 1217.21 1195.29 1205.5 1214.49 1194.21C1222.86 1189.04 1231.01 1183.49 1238.89 1177.59C1243.31 1174.39 1247.86 1171.46 1252.14 1168.01C1258.18 1163.55 1264.51 1158.93 1270.28 1153.95C1282.2 1143.8 1293.21 1132.66 1303.12 1120.72C1317.02 1103.89 1327.6 1085.02 1334.23 1065.2C1339.32 1049.66 1341.58 1033.76 1340.92 1018.23C1340.71 1006.38 1337.47 995.152 1331.47 985.516C1326.18 976.883 1318.42 970.039 1308.96 965.652C1288.85 956.223 1268.2 954.517 1247.17 955.726C1231.85 956.584 1216.44 959.045 1201.21 963.064C1190.36 966.217 1179.63 969.975 1169.08 974.318C1156.47 978.937 1144.3 984.976 1132.84 992.294C1126.42 996.359 1120.22 1000.79 1114.3 1005.57C1107.09 1011.18 1100.18 1017.15 1093.6 1023.45C1078.78 1038.27 1066.17 1054.91 1056.21 1072.77C1048.29 1086.73 1040.92 1101.04 1033.43 1115.1C1027.62 1125.83 1021.68 1136.3 1012.8 1144.06C999.622 1155.96 984.386 1160.27 966.44 1155C960.002 1153.21 954.225 1150.07 949.482 1145.8C944.724 1141.43 941.126 1136.01 938.922 1129.9C934.994 1117.21 933.58 1103.63 934.746 1089.8C935.607 1063.01 937.189 1036.15 935.186 1008.97C933.448 986.83 929.324 965.233 922.879 944.507C918.071 929.079 911.559 914.381 903.44 900.638C896.429 888.996 888.419 878.011 879.478 867.779C866.933 853.987 852.838 841.59 837.39 830.762C825.437 822.409 813.327 814.483 801.059 806.983C779.5 793.321 758.526 779.324 738.341 763.192C722.507 750.309 706.697 736.739 690.413 724.45C675.313 712.949 658.76 703.181 641.027 695.307C618.072 684.801 594.422 678.064 570.972 669.526C557.807 665.086 545.661 658.727 534.916 650.648C527.124 644.574 520.918 636.878 516.664 628.018C511.796 617.206 509.44 605.241 509.741 592.855C510.175 576.484 512.392 559.965 516.357 543.562C518.537 533.889 521.01 524.049 523.618 514.468C529.801 492.059 536.12 469.909 542.439 447.759C545.992 435.617 549.41 423.215 552.67 411.239C559.19 387.289 565.711 363.338 571.803 339.295C578.748 311.055 584.409 282.537 591.49 254.558C597.628 230.015 607.208 205.94 619.956 183.021C631.333 162.675 644.982 143.347 660.626 125.426C668.419 116.192 677.399 107.89 687.298 100.768C692.98 96.4623 698.92 92.5096 705.075 88.9395C714.856 83.7946 725.212 80.0473 735.769 77.8338C762.116 72.2429 788.513 74.0414 814.914 80.2212C832.238 83.911 848.325 90.5948 862.445 99.9704C872.369 106.841 880.488 115.73 886.335 126.127C893.241 139.262 897.683 153.698 899.483 168.865C902.043 187.634 904.04 206.052 905.879 224.896C908.036 247.268 909.607 269.973 913.928 292.122C915.967 302.892 918.998 313.345 922.989 323.367C930.938 344.457 944.654 360.572 961.322 374.327C981.033 390.468 1002.19 404.993 1024.63 417.783C1040.33 427.175 1056.83 435.448 1074.01 442.546C1096.6 452.056 1120.87 458.398 1146.16 461.401C1156.75 462.774 1167.53 463.033 1178.57 463.812C1180.13 463.995 1181.61 464.394 1182.99 464.999M266.35 1191.97C275.953 1192.89 285.128 1193.73 294.438 1194.82C314.773 1197.38 334.971 1199.68 355.284 1202.93C374.367 1206.03 392.642 1211.46 409.688 1219.1C426.418 1226.41 442.992 1234.15 459.88 1241.04C485.269 1251.84 511.67 1258.02 538.741 1256.73C553.309 1256.12 568.002 1253.31 582.286 1248.41C592.72 1245.02 602.859 1240.48 612.482 1234.89C615.997 1232.89 619.626 1231.83 623.005 1229.56C632.536 1223.79 641.932 1217.75 651.621 1211.55C658.966 1206.69 666.604 1201.65 674.084 1197.05C685.238 1190.01 696.526 1183.23 708.243 1176.55C716.287 1172.3 724.738 1168.82 733.054 1165.09C740.197 1162.03 747.205 1158.7 754.056 1155.81C760.321 1153.24 766.721 1150.94 772.693 1148.55C777.357 1146.56 782.293 1145.09 786.822 1142.84C796.456 1138.58 805.879 1133.77 815.034 1128.44C841.87 1112.11 861.893 1088.55 872.556 1056.51C879.158 1036.7 881.861 1016.39 880.516 996.667C879.782 982.868 876.816 969.552 871.72 957.178C869.403 950.67 866.628 944.369 863.412 938.316C855.306 924.11 844.861 911.436 832.414 900.705C813.4 883.905 791.323 872.897 769.248 861.889C747.172 850.882 724.082 840.117 704.482 823.651C695.799 816.467 687.137 808.595 678.904 800.817C663.137 785.873 647.956 770.595 630.68 757.86C618.112 748.401 604.288 740.457 589.458 734.175C573.99 727.827 557.779 722.239 542.311 715.891C527.407 709.896 512.638 704.161 499.016 694.062C488.505 686.483 480.006 676.724 474.022 665.366C468.039 654.009 464.694 641.285 464.188 627.953C463.827 616.667 464.483 605.239 466.149 593.792C467.457 583.149 469.528 572.503 472.348 561.932C476.125 547.301 480.601 533.284 484.806 518.746C486.267 513.529 487.864 508.572 489.033 503.522C497.217 472.553 505.829 441.677 513.156 410.523C519.328 385.271 523.746 359.883 526.38 334.532C529.177 305.624 531.547 276.625 534.48 247.977C537.15 221.389 545.594 194.862 559.267 170.109C569.938 151.208 582.166 133.105 594.236 115.429C608.422 94.5226 622.316 73.7833 636.774 53.3965C642.54 45.0902 649.473 37.4975 657.339 30.8742C669.047 21.0969 683.445 15.151 697.992 14.0864C718.116 12.2766 738.073 12.6549 757.48 15.2135C785.276 18.237 813.071 21.2605 840.845 24.9709C858.023 27.3085 875.179 30.3328 892.314 34.0443C907.557 37.2685 921.536 43.5115 933.42 52.4022C940.357 57.6944 946.171 64.1726 950.632 71.5787C959.266 86.0574 964.041 102.703 964.597 120.257C966.146 143.65 967.266 166.95 968.523 190.51C969.93 213.641 973.927 236.224 980.449 257.884C985.461 273.328 992.319 287.957 1000.9 301.512C1010.91 317.694 1023.52 332.074 1038.35 344.21C1051.74 355.692 1066.49 365.686 1082.39 374.041C1101.41 383.942 1122.06 391.206 1143.81 395.645C1145.37 396.105 1146.84 396.734 1148.21 397.52M288.444 1233.64C313.474 1233.8 338.023 1236.64 361.642 1242.12C377.815 1246.13 393.375 1251.58 408.134 1258.41C422.587 1265 437.356 1270.74 451.674 1277.07C469.924 1284.86 489.533 1290.12 509.978 1292.69C531.284 1295.55 553.568 1294.18 575.526 1288.68C585.825 1285.83 596.125 1282.99 606.153 1279.63C612.846 1277.16 618.998 1273.65 625.42 1270.66C630.242 1268.25 635.493 1265.93 640.18 1263.25C646.917 1259.41 653.519 1255.31 659.985 1250.94C666.88 1246.67 673.932 1241.97 680.556 1237.18C693.667 1227.96 707.344 1219.6 721.474 1212.15C729.225 1208.07 737.383 1204.76 745.406 1201.2C764.808 1192.49 785.52 1187.75 805.826 1182.23C816.261 1179.65 826.561 1176.81 836.882 1173.28C853.471 1167.95 868.142 1156.92 877.841 1142.5C887.213 1127.85 894.584 1112.29 899.742 1096.28C907.455 1073.92 911.917 1051.05 912.995 1028.37C915.069 1000.98 911.685 974.194 903.022 949.427C900.515 942.428 898.008 935.429 894.779 928.504C891.655 921.415 888.083 914.559 884.08 907.971C878.001 899.197 871.357 890.83 864.181 882.909C849.812 867.34 833.024 854.008 814.27 843.276L761.771 812.536C743.459 801.547 726.357 788.973 710.644 774.945C696.096 762.341 681.277 749.216 666.414 737.466C650.721 725.047 633.058 714.94 613.894 707.413C597.276 701.046 580.501 695.106 564.019 689C551.363 684.695 539.271 679.299 527.874 672.87C514.726 665.136 504.428 653.922 498.006 640.346C494.778 633.3 492.839 625.64 492.265 617.659C490.403 600.744 491.695 583.236 496.083 565.915C498.937 553.16 501.498 540.572 504.916 528.17C510.312 507.895 516.565 487.806 522.389 467.625C524.008 461.981 525.785 455.91 527.268 450.006C529.876 440.425 532.485 430.845 534.8 421.432C538.555 407.489 542.602 393.378 545.793 379.082C550.49 358.195 554.623 336.955 558.891 315.975C561.991 300.045 564.662 284.023 568.19 268.186C570.909 255.171 573.627 242.156 577.202 229.327C582.362 211.19 589.841 193.44 599.459 176.504C606.011 165.011 612.698 153.778 620.242 142.731C633.596 122.191 649.38 102.991 667.224 85.5807C677.57 75.8182 689.421 67.6864 702.214 61.5717C715.932 55.4815 730.435 52.0284 744.81 51.4304C764.598 50.1522 784.186 50.841 803.262 53.4855C819.505 55.7705 835.483 58.924 851.124 62.9312C864.314 66.3533 876.719 71.5218 888.013 78.3002C898.76 84.7641 907.303 93.8981 912.895 104.902C920.249 119.155 924.614 134.946 925.776 151.501C927.681 168.285 928.865 185.142 930.341 201.833C931.78 222.393 934.489 242.688 938.454 262.617C941.143 276.021 945.004 289.041 949.999 301.548C954.767 312.759 960.581 323.428 967.378 333.443C980.984 352.991 998.329 368.046 1016.57 381.913C1036.11 396.845 1057.59 409.46 1080.64 419.54C1100.95 428.494 1122.8 434.623 1145.62 437.765C1152.63 438.823 1159.8 439.453 1167.1 440.344C1168.09 440.615 1169.04 440.975 1169.94 441.42M275.986 1209.73C295.914 1211.51 315.548 1213.46 335.612 1215.5C358.968 1218.27 381.407 1224.06 402.347 1232.72C417.679 1238.81 432.675 1246.44 447.85 1252.95C470.962 1263.03 494.298 1270.62 518.824 1272.48C549.541 1274.64 581.5 1268.12 610.871 1253.68C621.258 1248.09 631.489 1242.93 641.605 1236.82C649.221 1232.47 656.138 1227.52 663.483 1222.65C670.243 1218.12 676.574 1213.5 683.604 1209.48C695.636 1201.95 707.803 1194.67 719.813 1187.81C726.948 1184.14 734.256 1180.87 741.694 1178.03C749.717 1174.46 757.874 1171.16 766.032 1167.85C773.018 1165.22 780.433 1162.67 787.283 1159.77C794.134 1156.88 801.255 1154.5 807.97 1151.34C815.564 1147.68 823.316 1143.6 830.639 1139.42C844.271 1131.21 855.995 1120.11 864.744 1107.15C877.536 1089.4 885.681 1068.57 890.557 1046.57C895.281 1024.74 895.839 1002.82 892.203 981.903C890.082 969.654 886.808 957.758 882.418 946.35C873.274 923.852 859.08 904.059 840.721 888.206C822.541 872.278 802.337 861.215 781.839 850.319C766.009 841.817 750.178 833.315 734.799 824.22C719.516 814.567 705.432 803.41 692.736 790.898C677.939 777.087 663.728 762.941 647.58 750.912C632.689 739.471 616.145 730.003 598.307 722.715C585.387 717.611 572.31 712.933 559.097 707.996C543.9 702.168 528.546 696.767 514.158 688.117C503.395 681.764 494.428 673.163 487.81 662.846C481.192 652.529 477.065 640.715 475.683 628.134C474.165 612.249 475.125 595.913 478.535 579.64C480.715 569.967 482.038 560.108 484.646 550.528C489.727 531.107 495.665 511.873 501.309 492.805L506.009 476.3C513.72 446.612 521.702 417.444 528.556 387.571C535.477 356.933 540.641 326.182 544.024 295.465C547.139 270.085 550.391 244.965 557.068 220.587C561.725 203.825 568.483 187.396 577.186 171.682C582.68 161.805 588.737 152.28 594.794 142.756C608.387 121.554 623.163 100.965 639.045 81.0938C646.866 71.122 655.645 61.8189 665.242 53.3351C672.972 47.0156 681.597 41.8665 690.748 38.1088C713.779 28.3408 738.214 28.5613 762.605 30.1556C780.977 31.1378 799.034 32.9736 817.069 35.4967C836.817 38.3911 856.702 41.5458 876.248 46.241C890.558 49.306 903.743 55.0569 915.099 63.1875C921.785 67.9473 927.514 73.7767 932.085 80.4705C941.855 94.1155 945.653 110.156 947.423 126.68C949.444 148.791 950.744 170.977 952.338 192.996C953.711 214.759 956.968 236.131 962.075 256.899C965.333 268.635 969.383 280.062 974.203 291.115C983.12 310.915 995.505 328.775 1010.89 344.024C1031.72 365.078 1056.46 382.272 1084.17 394.943C1105.69 404.956 1128.98 411.864 1153.38 415.47C1154.24 415.655 1155.37 416.361 1156.22 416.547M279.424 -141.604C279.697 -136.703 279.678 -131.635 279.952 -126.733C281.247 -113.31 282.834 -100.054 284.128 -86.6312C286.038 -66.3813 289.976 -46.6149 295.891 -27.593C299.279 -16.7137 303.254 -6.16891 307.521 4.20898C317.48 29.8846 332.261 53.1464 344.112 78.0792C356.777 104.571 362.656 131.899 357.988 160.863C355.272 178.259 349.852 194.84 340.056 208.858C335.846 215.422 330.313 221.224 323.837 225.865C317.707 230.093 311.338 233.952 304.776 237.415C297.034 241.077 289.042 244.056 280.91 246.31C260.153 252.421 239.126 258.011 218.37 264.121C209.587 267.265 200.928 270.855 192.432 274.874C188.432 276.317 184.559 278.187 180.894 280.444C167.962 289.172 155.435 298.679 148.052 313.681C144.336 321.164 142.499 329.162 142.703 336.963C142.927 342.229 144.39 347.218 146.985 351.568C149.581 355.919 153.244 359.522 157.711 362.118C166.907 367.804 177.991 370.605 189.658 370.191C207.843 370.23 226.354 366.882 244.179 360.327C254.589 356.762 264.817 352.504 274.781 347.588C288.662 340.68 302.137 332.993 315.611 325.305C322.934 321.127 329.716 315.909 336.903 311.471C342.277 307.732 347.812 304.236 353.487 300.998C369.125 293.088 385.532 288.111 403.658 292.268C419.507 295.701 432.159 304.667 441.75 319.426C450.931 334.471 456.498 351.607 458.105 369.775C461.187 394.653 459.108 419.104 455.586 443.704C452.02 469.678 445.027 494.91 438.756 520.067C433.001 542.57 426.118 564.366 420.791 586.961C415.164 608.837 412.855 630.946 413.939 652.574C414.925 667.771 418.332 682.422 424.045 696.036C432.851 717.311 447.739 732.757 465.601 745.157C481.207 756.146 498.367 763.553 515.661 771.219C537.781 780.852 560.172 791.005 579.658 806.524C591.49 816.144 602.445 826.686 612.433 838.065C625.901 852.972 638.76 868.9 653.715 882.284C667.627 894.716 683.495 905.055 700.893 913.025C718.752 921.043 736.767 928.635 754.468 937.081C766.921 942.822 778.033 950.602 787.373 960.118C801.291 974.431 808.493 991.9 806.682 1012.49C805.882 1024.76 801.118 1037.03 793.046 1047.58C786.331 1056.79 777.722 1064.69 767.861 1070.72C763.76 1073.06 760.065 1076.18 756.122 1078.09C747.942 1082.08 739.627 1085.81 731.311 1089.55C722.996 1093.28 714.545 1096.75 706.095 1100.22C699.83 1102.79 693.294 1104.83 687.323 1107.23C682.23 1109.12 677.114 1111.7 672.157 1113.85C665.599 1116.58 658.748 1119.48 652.326 1122.47C648.383 1124.38 644.732 1126.13 640.789 1128.04C634.502 1131.29 628.644 1134.63 622.221 1137.62C613.456 1141.95 604.554 1146.02 595.518 1149.82C585.556 1154.28 575.395 1158.16 565.095 1161.45C556.164 1164.06 547.091 1165.73 538.049 1166.43C519.593 1167.64 501.556 1165.46 484.914 1159.99C470.394 1155.46 456.167 1150.77 441.647 1146.24C420.083 1139.42 397.681 1134.49 374.688 1131.5C355.211 1129.13 335.283 1127.35 315.827 1124.29C288.797 1119.81 261.789 1114.66 234.78 1109.5C230.925 1108.66 226.777 1107.99 222.922 1107.16M266.843 -135.112C267.911 -123.582 268.685 -111.886 269.753 -100.357C272.004 -71.9696 275.405 -43.5644 283.719 -15.9392C287.086 -4.37304 291.174 7.11931 295.262 18.6112C298.831 28.3765 302.985 37.8075 306.846 47.4057C314.704 66.8619 322.562 86.3178 326.634 107.26C330.797 129.835 329.234 151.632 320.525 172.111C315.087 184.766 306.378 196.255 295.302 205.383C286.127 212.58 276.166 218.717 265.672 223.636C255.902 228.184 245.93 232.184 235.813 235.614L210.933 244.751C204.826 246.887 198.719 249.023 192.747 251.418C190.561 252.328 188.082 253.405 185.896 254.315C176.673 258.679 167.678 263.586 158.97 269.004C145.762 277.228 134.519 288.285 126.307 301.126C116.76 316.351 110.617 333.005 114.012 352.647C115.223 360.28 118.327 367.289 123.08 373.121C127.834 378.952 134.106 383.447 141.401 386.249C156.869 392.597 172.671 393.022 188.517 392.074C203.566 391.094 218.686 388.572 233.617 384.55C247.252 380.817 260.774 376.137 274.002 371.624C282.138 369.006 290.003 365.868 297.868 362.729C303.84 360.334 309.112 357.325 315.084 354.929C322.521 351.698 330.385 348.56 337.957 345.589C346.543 342.376 355.422 338.996 364.279 336.303C376.328 332.482 388.804 332.054 400.119 335.074C411.631 338.268 421.277 345.039 427.679 354.417C436.614 367.19 440.028 381.764 442.135 396.746C444.398 417.277 443.768 438.38 440.262 459.517C436.836 481.326 432.201 503.105 426.377 524.759C420.464 547.688 413.695 570.432 408.211 593.454C402.693 615.475 400.573 637.71 401.922 659.42C403.641 678.044 408.453 695.89 416.183 712.313C421.335 721.97 427.652 730.914 435.023 738.99C450.033 754.223 467.83 766.717 487.751 776.005C503.04 783.467 518.193 790.669 533.188 798.298C554.961 809.587 574.151 824.491 590.001 842.424C602.612 857.145 615.223 871.867 628.419 886.254C640.111 899.425 653.646 910.951 668.725 920.578C684.283 929.938 700.639 938.179 717.68 945.247C731.982 951.021 745.301 958.471 757.368 967.448C763.768 972.411 769.111 978.476 773.182 985.4C778.15 993.749 780.04 1003.75 778.59 1014.01C776.21 1027.4 768.46 1040.06 757.042 1049.23C748.14 1056.22 738.533 1062.27 728.426 1067.24C720.459 1071.05 712.333 1074.45 704.089 1077.42C697.531 1080.15 691.109 1083.14 684.416 1085.61C677.722 1088.08 670.737 1090.72 663.886 1093.61C658.928 1095.77 653.677 1098.09 648.72 1100.24C641.283 1103.47 634.14 1106.54 626.839 1110.03C623.774 1111.44 621.003 1112.68 617.938 1114.1C606.423 1118.98 595.043 1124.12 583.527 1129.01C571.606 1133.99 559.261 1137.52 546.815 1139.5C526.118 1142.38 505.607 1141.23 486.536 1136.13C463.991 1130.78 441.625 1124.32 419.193 1119.93C399.196 1115.82 378.997 1113.52 359.091 1111.06C329.582 1107.66 300.344 1104.79 270.923 1098.65C251.354 1094.64 231.785 1090.63 211.924 1086.79M1382.33 847.559C1380.49 851.309 1378.78 855.32 1376.93 859.07C1372.16 868.873 1367.39 878.677 1362.48 888.22C1358.52 896.381 1352.1 903.471 1344.14 908.458C1338.16 911.622 1331.74 913.681 1325.26 914.513C1313.56 916.129 1302.04 916.632 1290.37 917.561C1253.65 919.526 1216.7 926.422 1180.58 938.05C1173.17 940.594 1165.75 943.138 1158.61 946.203C1149.28 950.177 1140.22 954.67 1131.03 958.904C1125.23 961.311 1119.64 964.275 1114.35 967.744C1105.54 973.444 1096.98 980.351 1088.31 986.312C1076.89 994.646 1066.19 1003.91 1056.36 1013.98C1049.99 1019.98 1044.74 1026.68 1038.5 1032.94C1028.38 1043.43 1018.7 1054.01 1008.18 1063.72C1001.22 1070.05 993.309 1074.56 983.3 1072.86C976.716 1071.69 971.183 1068.1 967.807 1062.82C961.466 1054.29 959.634 1044.21 957.508 1034.3C953.392 1014.73 950.425 995.181 946.602 975.446C943.347 956.986 938.441 939.034 931.935 921.774C928.887 913.735 925.41 905.604 922.068 897.732C919.517 892.107 917.123 886.055 913.851 880.504C905.251 865.541 895.06 851.598 883.414 838.864C873.962 828.746 863.766 819.39 853.414 810.461C833.407 793.215 810.991 779.367 789.927 763.736C770.824 749.684 752.33 734.611 733.542 719.704C710.267 701.289 686.226 684.322 659.866 672.387C643.982 665.108 627.582 658.707 610.735 653.213C600.77 650.132 590.804 647.051 580.996 643.543C567.691 639.076 555.403 632.686 544.511 624.572C533.22 615.74 525.667 603.288 522.936 589.002C520.094 574.576 520.045 559.42 522.792 544.24C526.201 518.693 533.6 494.241 539.85 469.771C543.627 455.14 548.26 440.696 552.465 426.158C557.143 410.34 561.685 394.262 566.656 378.276C578.238 339.973 587.408 300.687 597.57 261.846C603.038 239.305 610.934 217.055 621.125 195.471C632.368 171.637 647.365 149.187 665.53 129C672.673 120.776 680.846 113.39 689.815 107.053C694.073 104.287 697.925 100.74 702.319 98.2334C721.4 87.435 742.67 81.9977 763.351 82.6319C775.511 82.9082 787.382 84.6279 798.699 87.7527C811.815 91.4552 823.993 97.1248 834.823 104.57C843.084 110.427 850 117.778 855.26 126.29C865.663 142.608 869.531 160.969 872.519 179.832C875.641 202.783 877.486 226.04 878.045 249.51C878.776 262.58 879.213 275.817 880.079 289.147C880.786 303.57 883.378 317.606 887.795 330.938C893.182 346.017 902.59 359.063 915.187 368.921C930.32 381.192 947.007 389.879 963.536 398.993C984.733 410.502 1006.22 421.844 1027.87 432.758C1039.62 438.531 1051.68 443.45 1063.75 448.368C1088.37 458.326 1114.83 464.68 1142.36 467.242C1155.26 468.652 1168.19 468.688 1181.11 469.411C1182.42 469.667 1183.76 469.803 1185.12 469.818M255.128 -128.427C256.038 -116.471 256.655 -104.347 257.858 -92.5576C259.421 -69.9245 262.205 -47.5426 266.2 -25.4984C269.705 -9.29076 274.225 6.67518 279.33 22.3071C286.287 42.9517 293.537 63.429 299.345 84.0551C305.558 105.461 307.152 127.48 300.855 148.943C296.868 163.271 288.685 176.735 277.326 187.655C266.491 198.22 253.331 205.053 240.307 212.147C232.92 215.62 225.38 218.684 217.727 221.321C211.755 223.716 205.626 226.539 199.654 228.935C193.682 231.33 186.989 233.8 181.017 236.196C178.256 237.157 175.532 238.26 172.859 239.501C162.364 244.593 152.103 250.223 142.124 256.362C125.347 267.349 111.514 282.253 102.21 299.364C91.6383 317.784 86.9616 338.141 88.8386 357.569C89.5498 367.353 92.7228 376.51 98.0969 384.288C103.471 392.066 110.893 398.243 119.752 402.31C135.333 409.605 151.541 410.81 167.658 410.382C185.39 410.163 203.329 407.854 221.077 403.507C234.982 400.294 248.618 396.561 262.253 392.828C274.445 389.243 286.795 385.232 298.852 381.388C312.216 377.135 325.58 372.881 339.08 368.888C352.06 364.803 365.409 363.148 378.344 364.021C391.705 365.093 403.464 371.012 411.311 380.615C417.908 388.878 422.259 398.724 424.045 409.428C427.763 429.132 427.976 449.739 424.673 470.435C420.839 500.271 412.744 528.492 405.212 557.065C398.255 581.582 393.23 606.318 390.183 631.052C387.417 654.531 389.408 677.671 396.046 699.188C406.634 731.738 428.193 758.828 457.683 776.639C474.326 786.7 491.87 795.572 509.12 804.612C532.216 816.062 552.783 831.175 570.081 849.406C580.503 860.656 590.024 873.094 599.703 885.106C606.629 893.292 612.969 901.813 620.188 909.833C629.737 920.361 640.243 930.037 651.608 938.774C666.339 949.364 681.877 958.967 698.131 967.528C708.083 972.446 717.246 978.531 725.442 985.664C733.111 993.09 738.437 1001.85 735.898 1013.75C734.573 1020.96 730.566 1027.8 724.641 1032.99C716.716 1040.71 707.268 1046.79 697.039 1050.76C692.694 1052.57 688.447 1054.65 684.33 1057C677.029 1060.49 669.751 1063.29 662.45 1066.78L653.255 1071.02C645.954 1074.51 638.496 1078.43 631.059 1081.66C624.344 1084.82 617.651 1087.29 610.936 1090.44C605.099 1093.1 599.106 1096.18 593.134 1098.58C585.269 1101.71 576.976 1104.76 568.84 1107.38C552.058 1112.58 534.86 1115.1 517.991 1114.81C503.17 1114.19 488.607 1112.35 474.46 1109.3C447.744 1103.97 420.758 1098.13 393.526 1095.46C369.022 1092.92 344.631 1091.32 320.284 1088.35C294.359 1085.28 268.658 1079.71 243.092 1074.4C229.385 1071.43 215.363 1069.32 201.791 1066.61M311.372 -160.516C312.55 -152.421 313.727 -144.326 314.477 -136.325C316.848 -113.97 321.245 -92.1135 327.619 -70.9924C330.226 -62.449 333.618 -54.2328 337.757 -46.4308C345.092 -33.0827 353.464 -20.6629 365.688 -11.7896C379.344 -0.64999 397.852 4.18818 417.159 1.6654C432.123 -0.902933 446.988 -4.86597 461.535 -10.1654C486.539 -18.7898 512.362 -23.1217 537.717 -22.946C552.328 -22.7655 566.575 -20.6875 580.077 -16.7677C586.128 -14.8284 591.832 -12.2006 597.078 -8.93469C601.328 -6.41112 604.703 -2.81774 606.898 1.52167C609.093 5.86107 610.039 10.8102 609.651 15.9237C609.158 25.1493 607.211 34.444 603.877 43.4945C596.362 63.2734 586.427 82.4191 574.297 100.495C564.029 115.794 552.926 130.221 542.793 145.78C532.21 161.933 521.762 178.347 516.253 197.674C511.4 215.852 509.211 234.244 509.753 252.295C509.564 271.623 510.096 290.875 510.335 310.295C510.394 333.937 508.473 357.807 504.591 381.682C502.235 396.85 499.293 412.353 496.08 427.336C491.877 446.255 487.675 465.174 482.616 483.908C476.906 505.036 471.059 525.904 464.784 546.68C458.236 567.881 453.649 589.346 451.079 610.808C449.043 627.506 450.17 644 454.404 659.488C458.119 672.457 464.634 684.216 473.565 694.074C484.83 706.167 498.722 715.749 514.498 722.308C526.539 727.914 538.917 731.979 551.408 736.99C571.645 744.4 590.797 753.8 608.593 765.056C620.503 773.058 631.562 782.086 641.658 792.048C655.463 805.414 668.817 819.374 682.779 832.313C697.781 846.083 714.911 857.624 733.724 866.637C752.981 875.88 772.395 884.697 791.495 894.368C808.783 903.016 823.761 914.941 835.655 929.528C840.14 935.111 844.225 941.001 847.885 947.164C853.065 955.168 856.804 964.065 858.971 973.545C861.206 982.022 862.705 990.75 863.453 999.648C864.273 1012.84 862.72 1026.38 858.86 1039.7C853.905 1058.1 843.951 1075.55 830.064 1090.18C823.935 1096.9 816.912 1102.84 809.225 1107.8C802.016 1112.64 794.575 1117.11 786.941 1121.19C777.004 1126.18 767.088 1130.49 757.038 1134.54C746.108 1139.09 734.908 1143.12 724.114 1147.93C716.385 1151.33 708.79 1154.99 701.332 1158.9C685.829 1167.07 670.461 1175.5 655.229 1184.19C638.668 1193.98 622.085 1204.45 605.524 1214.24C594.323 1220.4 582.517 1225.21 570.414 1228.54C558.585 1232.12 546.5 1234.01 534.577 1234.15C521.919 1234.4 509.53 1232.96 497.764 1229.86C477.089 1224.46 457.382 1215.81 437.539 1206.9C409.59 1193.76 379.294 1184.71 347.535 1180.03C324.202 1176.82 301.14 1174.13 277.807 1170.92C270.075 1169.94 262.5 1168.53 255.06 1167.38M299.067 -153.495C301.923 -130.511 304.644 -107.786 308.222 -84.8763C310.626 -69.7541 314.684 -55.1231 320.334 -41.2106C325.143 -29.793 331.417 -19.2115 337.398 -8.46243C342.633 0.423078 349.032 8.54173 356.463 15.7274C365.985 25.8321 377.741 33.7812 391.08 39.135C403.772 43.984 418.499 44.0683 432.624 39.3725C443.374 35.9368 453.875 31.2941 464.512 26.9116C480.67 20.7275 497.077 15.7502 514.907 15.6927C523.938 15.6154 532.553 17.6396 540.022 21.5941C552.74 28.4994 557.729 38.8031 556.094 53.8973C554.677 64.4516 550.75 74.886 544.619 84.3838C535.186 100.556 522.82 114.017 510.161 127.646C498.989 139.752 487.974 151.431 480.298 166.6C474.056 179.611 471.092 193.465 471.67 206.926C471.975 224.285 476.472 240.938 479.82 257.572C483.416 275.414 487.441 293.348 489.167 311.245C492.19 343.522 490.789 376.616 484.997 409.719C482.865 422.4 480.597 434.821 477.743 447.576C474.709 461.445 471.676 475.313 467.921 489.257C463.177 507.136 457.577 524.83 452.405 542.617C444.76 570.244 436.822 598.037 435.873 627.576C435.228 642.226 437.05 656.555 441.267 670.017C446.83 687.239 456.904 702.318 470.624 713.959C483.262 724.22 497.493 732.652 512.952 739.038C533.088 747.78 553.809 756.188 573.787 765.358C591.721 774.165 607.823 785.654 621.576 799.459C635.381 812.825 648.736 826.785 662.09 840.745C679.366 858.445 699.983 872.881 723.117 883.478C741.81 892.369 760.818 900.406 779.647 909.558C794.983 917.068 808.428 927.317 819.363 939.834C840.84 965.008 848.682 993.914 841.74 1026.53C838.476 1042.23 831.048 1057.4 820.198 1070.52C814.938 1077.35 808.56 1083.39 801.365 1088.34C793.802 1093.89 785.903 1098.96 777.73 1103.52C769.624 1107.74 761.342 1111.57 752.92 1114.97C745.776 1118.04 738.768 1121.36 731.917 1124.26C725.067 1127.15 718.238 1129.36 711.388 1132.26C706.002 1134.32 700.886 1136.9 695.636 1139.23C664.403 1153.67 635.473 1172.54 604.896 1188.97C588.063 1198.32 570.035 1204.95 551.643 1208.56C531.161 1211.7 510.844 1210.38 492.244 1204.69C474.818 1199.28 457.886 1192.84 441.535 1185.4C415.781 1174.23 388.213 1166.4 359.467 1162.09C337.848 1159.26 316.229 1156.42 294.474 1153.32C277.589 1150.81 260.59 1147.36 243.862 1144.43C243.434 1144.34 242.712 1144.41 242.284 1144.32M1361.07 806.754C1359.63 808.943 1358.07 811.069 1356.41 813.122C1350.28 820.326 1343.86 827.698 1337.47 834.382C1329.31 843.294 1320.68 851.818 1311.63 859.913C1305.47 865.102 1298.76 869.613 1291.64 873.338C1280.27 878.688 1268.7 883.492 1256.96 887.73C1239.65 893.895 1222.08 899.541 1204.63 905.447C1191.4 909.959 1177.75 914.38 1164.52 918.893C1158.41 921.028 1152.28 923.851 1146.31 926.246C1138.15 929.552 1130.29 932.691 1122.26 936.256C1118.91 937.834 1115.41 939.153 1112.48 940.824C1096.82 949.422 1080.87 958.186 1065.21 966.784C1058.47 970.627 1051.98 975.678 1044.98 979.002C1036.21 983.329 1027.87 987.748 1018.05 989.309C1004.61 991.241 994.128 986.433 986.613 974.199C981.965 966.736 977.609 959.106 973.839 951.141C970.069 943.177 967.471 934.544 963.994 926.413C961.465 920.1 958.35 914.123 956.114 907.644C949.827 892.057 942.485 876.991 934.127 862.53C928.768 852.954 922.825 843.739 916.322 834.925C906.224 821.163 894.855 808.368 882.326 796.664C870.326 785.303 857.74 774.276 845.583 763.342C831.598 751.09 817.457 739.265 803.608 727.272C791.992 717.378 780.376 707.484 769.053 697.422C743.921 675.611 714.662 658.371 682.413 646.374C672.042 642.514 661.534 638.393 651.005 634.96C635.922 630.078 620.523 626.051 605.732 621.002C592.187 616.87 579.762 610.517 568.954 602.199C562.259 597.148 557.022 590.583 553.612 582.966C550.718 575.779 548.79 568.162 547.871 560.279C546.312 543.691 547.54 526.607 551.51 509.65C554.408 495.521 557.171 481.132 561.061 467.449C566.435 447.861 572.372 428.627 578.31 409.392C582.178 396.395 586.181 383.658 590.185 370.922C596.123 351.687 602.06 332.452 607.862 312.957C610.089 306.292 611.46 299.441 613.687 292.776C622.097 263.701 630.35 235.053 643.857 208.466C654.931 185.963 668.825 165.223 686.757 148.586C692.681 143.183 699.305 138.392 705.501 133.509C715.765 126.034 727.51 120.957 739.618 118.764C750.821 116.679 762.034 116.83 772.529 119.207C784.448 121.639 795.321 126.589 804.413 133.722C816.013 142.877 824.661 154.965 829.594 168.92C837.427 189.561 841.093 211.909 840.414 234.902C839.689 261.953 837.815 288.985 836.233 315.85C835.2 329.317 835.883 342.628 838.267 355.488C839.808 363.002 842.177 370.236 845.337 377.079C851.341 389.594 861.117 399.773 873.579 406.485C885.446 412.654 898.227 417.357 911.662 420.498C934.803 426.386 957.42 433.517 979.414 441.861C998.872 449.304 1018.13 458.548 1037.43 466.418C1061.42 475.995 1085.59 484.459 1110.62 488.726C1127 491.672 1143.77 493.378 1160.77 493.827C1172.7 494.105 1184.65 493.695 1196.57 493.972C1197.75 494.112 1198.9 494.36 1200 494.715M243.982 -121.384C243.938 -120.01 243.465 -118.729 243.421 -117.355C244.063 -101.537 244.705 -85.7188 246.069 -69.975C248.317 -45.9696 250.565 -21.9639 257.141 1.59552C262.813 21.9617 268.914 42.4203 274.586 62.7865C279.738 81.4261 284.012 100.567 282.808 120.136C281.494 143.139 272.851 161.557 257.849 176.523C247.149 187.348 233.99 194.181 220.965 201.274C212.319 205.469 203.511 209.257 194.577 212.621C186.42 215.927 178.284 218.545 170.126 221.85C163.861 224.413 157.868 227.496 152.031 230.152C145.158 233.735 138.015 236.799 131.706 240.736C116.63 249.99 103.465 262.11 93.1845 276.201C80.0873 294.441 71.3028 314.821 67.5511 335.67C64.2208 351.104 64.2623 366.591 67.6728 381.119C69.7097 389.855 73.7418 397.813 79.5019 404.467C85.262 411.121 92.6184 416.318 101.083 419.714C114.356 425.295 129.016 428.158 144.234 428.138C164.099 428.666 184.303 426.768 204.371 422.488C228.689 417.38 252.873 412.013 276.943 405.698C298.106 400.367 319.155 394.09 340.68 390.913C352.713 388.707 364.727 389.254 375.711 392.507C385.513 395.622 393.686 401.651 399.166 409.807C408.35 423.786 410.863 439.549 411.212 455.534C411.655 472.88 409.735 490.52 405.5 508.02C402.152 522.743 399.097 537.299 395.748 552.022C393.726 561.268 390.418 570.236 388.396 579.482C383.362 601.91 378.464 624.598 377.714 647.954C376.659 669.047 379.201 689.689 385.24 709.072C388.361 719.324 392.572 729.117 397.816 738.312C406.984 754.155 418.904 768.173 433.145 779.859C451.211 794.84 471.145 805.383 491.192 816.873C503.054 823.593 514.172 831.074 525.583 838.388C539.158 847.866 551.164 859.144 561.312 871.951C569.479 881.79 576.767 892.131 584.348 902.304C599.375 922.391 614.401 942.478 631.5 960.708C639.418 969.34 647.179 978.4 654.94 987.459C666.152 1000.96 666.297 1014.36 655.824 1027.08C650.199 1033.5 643.659 1039.17 636.45 1043.86C630.271 1048.44 623.844 1052.67 617.208 1056.53C605.941 1062.62 594.562 1067.76 583.024 1073.33C572.326 1078.51 561.119 1082.29 549.738 1084.57C535.208 1087.93 520.532 1089.26 506.191 1088.51C479.478 1087.56 452.92 1081.81 426.117 1079.23C399.313 1076.66 372.78 1074.6 346.112 1072.28C319.028 1070.02 292.359 1066.09 266.262 1060.52C241.845 1055.23 217.88 1049.34 193.398 1046.12C192.969 1046.02 192.248 1046.1 191.82 1046.01M1341.7 769.587C1341.82 769.976 1341.91 770.38 1341.95 770.794C1328.52 781.489 1317.19 794.022 1305.17 805.943C1295.37 815.579 1285.86 825.049 1275.66 833.906C1269.19 839.286 1262.35 844.205 1255.2 848.612C1250.59 852.081 1245.73 855.194 1240.66 857.915C1231.9 862.242 1223.29 866.142 1214.39 870.208C1209.14 872.53 1204.02 875.111 1198.64 877.172C1192.67 879.568 1186.69 881.963 1180.59 884.099C1173.31 886.903 1166.03 889.707 1158.61 892.251C1153.52 894.146 1148.29 895.78 1143.2 897.674C1135.92 900.478 1128.64 903.282 1121.23 905.827C1112.64 909.039 1103.92 911.992 1094.91 915.112C1085.89 918.232 1077.44 921.705 1068.58 924.398C1057.11 927.908 1045.66 930.731 1033.2 929.414C1020.16 927.443 1008.94 920.923 1001.58 911.037C995.488 903.729 990.208 895.793 985.808 887.33C980.662 877.453 975.087 867.484 969.648 857.775C964.209 848.065 958.341 838.263 952.023 829.055C938.992 809.324 924.255 790.792 907.938 773.622C893.614 758.529 878.704 743.771 864.537 728.251C850.641 713.251 837.488 697.49 823.885 682.323C812.493 669.941 801.529 657.651 789.529 646.29C777.714 635.456 763.926 626.712 748.666 620.376C727.674 611.448 705.806 607.403 684.253 602.504C669.125 598.996 654.155 595.062 639.027 591.555C625.368 588.296 612.712 582.748 601.596 575.146C592.086 568.52 585.111 559.178 581.471 548.19C576.457 534.192 576.763 520.193 577.925 506.38C579.633 485.542 583.778 464.629 590.28 444.035C597.836 419.156 606.543 394.295 614.663 369.769C622.289 347.211 629.758 325.079 637.519 302.781C644.192 282.171 651.951 261.764 660.762 241.641C667.651 225.854 676.857 210.826 688.074 197.062C696.133 187.306 706.182 179.152 717.452 173.221C734.082 165.756 750.942 164.566 767.204 177.542C772.537 181.973 776.977 187.292 780.356 193.302C786.79 205.662 790.59 219.384 791.565 233.775C793.744 255.46 790.918 276.291 788.949 297.308C787.27 313.776 785.591 330.244 785.197 346.991C784.701 365.475 787.075 383.548 792.244 400.626C796.485 415.348 804.152 428.57 814.723 439.39C824.499 449.08 836.965 455.976 851.028 459.475C866.148 462.53 881.744 464.132 897.603 464.26C920.145 465.223 942.53 466.614 964.602 473.239C982.549 478.51 1000.47 484.468 1018.4 490.426C1030.35 494.398 1042.41 499.316 1054.36 503.288C1077.92 511.364 1102.88 516.383 1128.65 518.226C1144.72 519.172 1160.95 519.69 1177.04 519.948C1187.68 519.947 1198.21 518.999 1208.71 518.738C1209.89 518.878 1211.04 519.126 1212.14 519.481M227.006 -112.385C227.648 -96.567 228.29 -80.749 229.068 -64.671C229.744 -41.1488 232.414 -17.9787 237.051 4.61633C240.42 20.5641 244.804 36.2704 248.76 51.8839C253.349 70.1708 257.644 88.6249 257.026 107.859C256.453 125.72 251.054 141.612 240.423 154.758C232.863 163.898 223.543 171.63 213.096 177.43C201.967 183.73 190.386 189.095 178.506 193.455C167.305 197.485 156.105 201.515 145.176 206.065C136.262 209.75 127.492 213.853 118.901 218.358C112.359 221.585 105.997 225.214 99.8607 229.221C89.9404 236.274 81.1137 244.73 73.7524 254.232C61.3926 271.326 52.0743 290.006 46.2449 309.375C39.2449 330.475 35.1208 351.992 33.9818 373.354C33.2218 385.858 34.8261 398.078 38.718 409.427C43.2255 421.587 51.8622 431.526 63.3979 437.83C78.7997 446.239 95.5496 448.484 112.186 449.782C130.848 450.933 149.88 450.028 168.921 447.084C196.645 443.406 224.006 437.573 251.232 431.481C268.609 427.636 286.121 424.051 303.611 421.153C317.539 418.338 331.541 417.635 345.087 419.07C356.193 420.149 366.196 424.57 373.723 431.729C378.397 436.293 382.023 441.768 384.419 447.88C391.42 467.151 390.803 486.385 388.021 505.842C386.159 519.043 383.147 532.225 380.429 545.24C377.89 557.141 374.923 568.949 372.249 580.59C366.592 603.863 362.906 627.28 361.229 650.603C359.843 673.766 362.317 696.483 368.557 717.903C370.5 724.55 373.029 730.862 375.558 737.174C377.441 742.365 379.781 747.344 382.556 752.063C391.824 768.615 403.579 783.571 417.504 796.525C434.669 812.694 454.131 824.519 473.57 837.03C491.318 848.484 508.616 860.531 523.482 876.663C531.04 884.662 537.923 893.241 544.081 902.338C548.594 909.541 553.536 916.837 558.049 924.04C564.865 935.662 571.387 947.45 577.324 959.573C582.672 969.832 585.675 981.298 586.161 993.306C586.322 999.704 584.884 1006.26 581.962 1012.44C579.04 1018.62 574.718 1024.24 569.347 1028.86C563.092 1034.67 555.854 1039.37 548.055 1042.7C540.092 1046.02 531.92 1048.65 523.648 1050.55C510.67 1053.53 497.571 1054.88 484.699 1054.57C471.76 1054.53 458.708 1053.55 445.498 1052.99C425.977 1051.99 406.319 1050.73 386.933 1049.99C351.024 1048.9 315.001 1046.86 279.448 1039.16C258.165 1034.78 236.905 1029.71 215.758 1025.59C203.043 1023.07 190.149 1021.66 177.118 1019.99M289.987 -148.316C292.277 -130.066 294.138 -111.908 296.427 -93.6584C298.899 -74.4742 302.959 -55.7106 308.571 -37.5351C313.287 -22.2825 319.71 -7.75627 327.739 5.81448C333.2 14.8369 339.112 23.2651 345.159 31.9534C360.57 53.5068 379.404 71.4211 396.302 91.452C407.17 103.551 412.892 119.417 412.54 136.472C412.212 151.158 412.02 166.104 411.827 181.049C411.725 197.829 416.218 213.739 424.866 227.221C431.433 237.636 439.757 247.048 446.324 257.463C452.143 267.172 457.387 277.235 462.034 287.612C467.093 299.101 470.752 311.257 472.946 323.87C475.395 335.87 476.731 348.193 476.939 360.705C477.299 382.843 475.617 405.238 471.914 427.635C470.477 436.547 469.041 445.458 467.176 454.277C464.48 466.605 461.919 479.193 458.365 491.336C452.992 510.923 446.897 530.585 441.523 550.173C434.958 575.497 427.672 600.896 426.226 628.021C424.911 645.493 426.994 662.597 432.37 678.464C438.414 695.999 448.786 711.414 462.697 723.538C476.518 734.654 492.023 743.824 508.836 750.826C525.995 758.232 543.312 765.211 560.02 773.211C578.18 781.818 594.488 793.201 608.395 806.977C623.306 821.736 637.315 837.683 651.932 852.608C669.751 871.142 691.198 886.158 715.35 897.011C732.78 904.937 750.661 912.27 767.933 920.622C783.714 927.789 797.448 938.047 808.371 950.825C828.563 975.719 834.578 1003.31 824.118 1033.55C818.552 1049.8 807.898 1064.62 793.716 1075.85C785.165 1083.13 775.774 1089.4 765.8 1094.47C756.741 1098.97 747.276 1102.68 737.947 1106.65C729.203 1110.29 720.888 1114.03 712.145 1117.67C705.294 1120.56 697.879 1123.11 691.029 1126.01C684.597 1128.65 678.264 1131.59 672.055 1134.81C655.966 1143.31 640.17 1151.65 624.082 1160.15C616.623 1164.07 609.593 1168.08 601.999 1171.74C593.684 1175.47 585.233 1178.95 576.489 1182.59C566.643 1186.63 556.438 1189.38 546.177 1190.78C528.287 1193.3 510.572 1192.13 494.239 1187.37C482.131 1183.82 469.753 1179.76 457.961 1175.36C447.86 1172.02 438.232 1167.39 428.131 1164.05C405.198 1156.25 381.2 1150.74 356.482 1147.61C324.11 1143.83 292.031 1139.88 259.882 1133.6C251.022 1131.92 241.734 1130.13 232.739 1128.19M305.359 1266.1C323.06 1266.39 340.329 1268.89 356.736 1273.54C371.836 1277.91 386.458 1283.31 400.5 1289.71C418.31 1297.94 436.755 1305.09 455.742 1311.13C475.091 1316.74 495.407 1319.98 516.25 1320.78C534.27 1321.42 552.585 1320.13 570.866 1316.93C584.454 1314.7 597.942 1310.96 611.049 1305.8C619.793 1302.16 628.537 1298.53 637.145 1294.63C643.274 1291.8 649.426 1288.29 655.712 1285.04C670.787 1276.78 686.019 1268.09 701.229 1260.09C708.394 1256.34 716.102 1253.62 723.696 1249.97C732.975 1245.86 742.666 1243.06 752.431 1241.66C769.628 1238.93 786.333 1242.55 801.511 1253.45C810.461 1260.5 818.31 1268.7 824.882 1277.88C838.012 1294.33 851.593 1310.18 868.756 1321.97C882.703 1331.82 899.18 1338.3 917.03 1340.96C929.859 1342.73 942.961 1343.49 956.209 1343.22C970.748 1342.68 985.444 1341.71 1000.28 1341L1041.73 1339.61C1050.59 1339.97 1059.69 1338.56 1068.46 1335.48C1072.34 1333.64 1075.76 1330.87 1078.35 1327.48C1084.65 1320.05 1090.52 1312.31 1095.92 1304.31C1106.33 1288.54 1118.8 1273.93 1132.97 1260.92C1140.96 1253.66 1149.25 1246.23 1157.52 1239.49C1165.34 1233.34 1173.43 1227.72 1181.38 1221.83C1190.96 1214.68 1200.24 1207.7 1209.95 1200.81C1215.4 1196.69 1221.55 1193.18 1227.3 1188.89C1233.63 1184.27 1239.83 1179.38 1246.02 1174.5C1250.89 1170.71 1255.6 1167.35 1260.33 1163.3C1268.13 1157.43 1275.68 1151.21 1282.92 1144.68C1293.6 1134.54 1303.71 1124.05 1313.56 1113.04C1331.57 1092.17 1345.53 1068.62 1354.6 1043.77C1360.09 1029.51 1365.02 1014.9 1370.51 1000.64C1373.21 991.971 1378.36 983.886 1385.35 977.335C1391.41 972.192 1398.06 971.096 1405.27 970.353C1415.21 969.739 1424.61 972.467 1434.17 974.768C1438.59 975.956 1443.01 977.144 1447.27 978.759C1448.69 979.297 1449.95 980.262 1451.51 981.061M1319.74 728.164C1318.41 729.856 1316.96 731.47 1315.41 732.992C1296.11 747.717 1280.41 766.451 1263.6 783.793C1254.82 793.189 1245.61 802.491 1236.12 811.273C1228.93 817.408 1221.35 823.086 1213.43 828.263C1207.36 832.573 1201.03 836.519 1194.51 840.073C1186.46 844.326 1178.01 847.798 1169.7 851.531C1152.36 859.04 1134.49 864.831 1116.38 868.802C1100.44 872.499 1084.1 875.415 1067.49 873.43C1051.61 871.342 1037.5 864.417 1027.15 853.624C1018.68 844.715 1011.01 835.116 1004.2 824.905C992.784 808.828 981.367 792.751 968.778 777.343C955.219 760.802 940.467 745.617 926.322 729.41C912.379 714.591 899.49 698.864 887.721 682.312C882.373 674.237 876.867 666.588 871.812 658.345C867.028 650.622 861.815 642.806 857.91 634.582C851.806 622.742 846.439 610.495 841.835 597.898C838.031 588.281 836.08 577.876 836.065 567.135C836.22 562.233 837.483 557.275 839.767 552.597C842.051 547.919 845.303 543.632 849.301 540.027C857.005 532.934 866.335 528.96 875.957 524.819C890.46 518.946 905.518 515.132 920.604 513.508C938.899 511.528 956.969 512.633 973.985 516.771C988.684 520.185 1003.34 524.974 1018.15 529.335C1041.65 536.5 1065.12 544.35 1089.28 548.432C1105.66 551.251 1122.45 552.727 1139.46 552.846C1152.27 552.622 1165.05 553.085 1177.72 552.601C1192.68 552.154 1207.81 551.28 1223.07 550.666C1224.8 550.734 1226.48 551.021 1228.07 551.519M433.407 -245.005C448.345 -232.393 465.095 -221.796 483.291 -213.448C503.129 -204.995 524.332 -199.086 546.42 -195.854C561.443 -193.789 576.1 -190.537 590.247 -186.129C603.869 -181.8 615.563 -173.941 624.165 -163.334C632.486 -152.97 638.304 -140.813 641.277 -127.578C643.743 -114.823 646.073 -102.329 647.389 -89.5925C648.614 -78.4902 649.253 -67.0537 653.521 -56.6758C656.626 -49.0476 662.246 -42.8426 669.628 -38.8913C679.281 -32.9006 690.118 -28.6063 701.713 -26.1769C720.696 -21.8344 739.815 -17.2318 759.27 -14.1704C788.6 -9.66177 818.109 -6.2671 847.596 -2.18552C864.775 0.152085 881.795 2.91631 898.951 5.94085C913.695 8.48814 927.461 13.6575 939.582 21.1984C948.888 26.963 956.782 34.4536 962.883 43.308C972.224 56.8601 975.909 71.9538 977.994 87.6231C980.781 108.287 979.961 129.322 980.584 150.208C980.559 177.119 983.961 203.481 990.715 228.722C993.32 238.35 996.872 247.609 1001.33 256.384C1004.71 262.882 1007.65 269.974 1011.62 276.138C1016.96 284.414 1022.85 292.311 1029.27 299.789C1044.22 316.442 1062.22 330.304 1082.58 340.851C1095.76 348.223 1110.06 353.877 1125.17 357.686C1126.38 358.117 1127.48 358.744 1128.42 359.543M1297.15 684.079C1296.99 684.506 1297.4 685.286 1297.1 685.453C1287.46 694.662 1277.69 703.612 1268.61 713.174C1254.01 728.92 1240.54 745.371 1226.08 761.376C1217.42 771.111 1208.14 780.349 1198.31 789.023C1189.12 796.782 1178.92 803.284 1168.07 808.297C1156.96 813.559 1145.3 817.254 1133.5 819.255C1119.75 821.786 1106.01 821.182 1093.44 817.495C1081.87 813.914 1071.65 807.762 1063.54 799.489C1054.07 790.058 1045.18 780.293 1036.58 770.361C1022.84 754.934 1008.36 740.269 993.273 726.625C976.378 710.976 958.898 695.66 943.512 677.801C936.494 669.33 930.154 660.331 924.536 650.864C919.011 641.492 914.658 631.427 911.554 620.844C908.322 609.538 907.683 598.101 911.778 586.999C914.301 579.708 919.42 573.19 926.169 568.673C940.567 559.11 956.571 557.735 973.343 559.293C987.67 560.897 1001.59 563.913 1014.89 568.293C1042.11 576.032 1069.32 583.771 1097.11 586.795C1116.3 588.576 1135.8 588.947 1155.45 587.903C1178.49 586.898 1201.53 585.893 1224.83 585.408C1231.89 585.092 1238.9 586.15 1245.93 586.52M320.124 1294.44C341.66 1296.7 362.274 1302.1 381.29 1310.45C399.735 1318.14 418.179 1325.82 437.231 1332.49C457.525 1339.28 479.055 1343.33 501.257 1344.51C518.922 1345.74 536.865 1345.53 554.906 1343.91C573.781 1342.36 592.706 1338.47 611.207 1332.36C622.407 1328.33 633.629 1323.61 644.559 1319.06C651.702 1316 658.575 1312.41 665.583 1309.09C675.363 1304.52 685.3 1299.53 695.216 1295.22C707.824 1289.16 721.043 1284.8 734.451 1282.27C754.398 1278.98 773.224 1283.75 790.049 1297.08C801.822 1306.55 813.145 1316.61 824.761 1326.51C839.595 1340.15 856.713 1351.39 875.593 1359.88C893.778 1367.33 913.241 1372.33 933.49 1374.73C951.232 1377.42 969.289 1379.26 986.627 1385.55C1000.31 1390.29 1011.83 1398.77 1019.92 1410.05C1024.07 1416.2 1027.52 1422.82 1030.21 1429.8C1033.41 1437.42 1036.03 1445.36 1038.66 1453.31M341.433 1333.87C349.685 1336.58 357.937 1339.29 365.874 1342.85C382.334 1349.65 398.322 1357.72 414.804 1363.83C433.406 1371.09 453.041 1373.03 472.269 1374.2C487.057 1374.87 502.002 1375.11 516.677 1374.83C540.213 1374.93 564.029 1372.75 587.768 1368.32C600.402 1366.08 612.922 1362.45 625.067 1357.5C635.703 1353.11 646.047 1348.9 656.548 1344.26C664.278 1340.86 671.579 1337.37 679.443 1334.23C693.273 1327.81 707.69 1323.1 722.308 1320.22C741.962 1317.1 760.967 1320.76 778.737 1331.53C788.885 1337.87 799.011 1344.91 809.002 1351.69C828.555 1365.14 848.13 1377.92 869.865 1386.08C885.398 1391.78 901.491 1396.34 918.024 1399.74C931.438 1402.88 944.852 1406.01 957.794 1410.43C974.155 1415.81 988.242 1425.29 998.749 1437.98C1005.81 1446.63 1011.77 1456.12 1016.53 1466.27M418.175 -236.315C439.016 -218.197 461.366 -202.288 486.327 -191.578C500.042 -186.005 514.195 -181.246 528.714 -177.324C544.384 -172.777 560.391 -169.77 575.544 -162.568C587.059 -157.619 596.297 -149.28 602.092 -138.602C606.807 -129.665 608.18 -119.109 606.012 -108.471C604.797 -100.16 600.442 -92.1493 593.788 -85.9858C587.092 -80.0667 578.829 -76.1818 570.285 -74.9367C557.122 -72.4847 543.688 -70.5529 530.548 -68.7878C509.956 -66.1474 489.39 -61.9674 469.041 -56.2868C451.484 -51.328 434.47 -45.3293 416.416 -42.784C403.413 -40.4021 390.475 -41.5075 379.077 -45.974C367.679 -50.4406 358.28 -58.089 351.952 -68.0461C348.617 -72.7478 345.559 -77.6425 342.79 -82.712C336.207 -94.8981 331.599 -108.161 329.102 -122.107C325.528 -140.636 323.396 -159.313 320.543 -177.916C320.565 -178.602 320.88 -179.457 320.902 -180.144M203.148 -112.96C202.836 -107.725 202.389 -102.749 202.505 -97.4208C202.835 -76.3671 202.873 -55.1461 204.06 -33.9069C205.547 -14.8623 208.453 3.87304 212.755 22.1614C216.373 39.3159 220.284 56.3027 222.032 73.5131C223.78 90.7235 221.222 107.693 211.426 121.711C207.084 128.557 201.161 134.486 194.194 138.961C190.025 142.069 185.603 144.817 180.99 147.168C171.993 151.272 162.801 154.827 153.474 157.809C132.049 164.28 110.255 168.456 88.518 170.255C80.5446 171.273 72.6129 171.262 64.9396 170.22C55.9221 168.958 50.3283 164.057 50.6813 153.066C51.0785 140.702 51.9041 128.429 52.865 116.417C54.8132 98.991 54.2551 81.723 51.2064 65.1013C49.4782 55.4449 46.1332 46.3185 41.292 38.052C35.4066 27.8242 27.7411 18.7728 18.574 11.2265C13.6574 7.62518 8.74078 4.02376 3.39588 0.329681M446.573 -251.835C452.211 -248.308 457.556 -244.613 463.059 -241.346C471.109 -236.836 479.024 -232.585 487.525 -228.669C508.923 -218.961 531.264 -216.196 553.583 -212.745C567.898 -210.797 582.213 -208.85 596.349 -205.788C612.948 -202.459 627.586 -194.576 638.607 -183.03C643.467 -177.965 647.672 -172.34 651.152 -166.248C660.72 -150.802 665.331 -133.202 670.663 -115.676C673.878 -102.547 678.532 -89.9515 684.552 -78.0818C691.143 -66.2869 700.778 -56.5391 712.681 -49.6232C726.813 -41.6308 742.228 -35.5791 758.543 -31.6187C781.766 -24.9744 805.391 -21.932 829.017 -18.8895C850.072 -16.4038 870.993 -14.1779 892.341 -11.8592C907.7 -10.1051 922.583 -6.72657 936.732 -1.78232C938.555 -0.905262 940.254 0.158301 941.806 1.39212M1166.51 1380.7C1156.17 1357.94 1151.73 1334.85 1157.69 1310.54C1161.99 1293.08 1170.41 1276.27 1182.27 1261.45C1193.45 1247.59 1205.96 1234.69 1219.6 1222.96C1227.89 1215.54 1236.18 1208.11 1244.74 1201.2C1253.3 1194.29 1261.7 1187.81 1269.97 1181.07C1279.27 1173.4 1288.58 1165.74 1297.61 1157.55C1306.64 1149.36 1315.23 1141.76 1323.7 1133.22C1339.56 1117.18 1354.16 1100.05 1367.32 1082.03C1376.94 1069.13 1386.42 1055.96 1396.74 1043.67C1402.12 1037.39 1408.66 1032.05 1415.93 1028C1426.86 1022.24 1439.03 1020.06 1450.35 1021.85C1457.65 1022.74 1465.07 1024.58 1472.35 1026.16C1473.86 1026.79 1475.27 1027.56 1476.59 1028.46M456.239 -257.346C458.487 -256.228 460.655 -254.988 462.734 -253.632C482.527 -240.606 505.496 -232.02 530.218 -228.408C548.546 -226.052 566.896 -224.383 585.067 -221.6C595.573 -220.016 605.874 -217.785 615.908 -214.919C630.85 -210.292 643.75 -201.86 653.367 -190.435C661.107 -181.792 667.101 -171.767 671.104 -160.769C674.651 -150.316 679.212 -140.105 683.051 -129.82C686.099 -121.781 688.269 -113.241 691.611 -105.37C697.932 -91.7801 705.132 -78.6919 716.319 -68.8903C727.033 -59.8865 739.359 -52.7066 752.874 -47.5988C782.839 -36.0352 814.198 -32.0096 845.149 -28.7636C870.939 -25.9442 897.065 -24.666 922.631 -19.3587C925.81 -18.5139 928.898 -17.4599 931.875 -16.2034M469.437 -265.563C476.788 -261.665 484.117 -257.08 491.919 -253.776C514.603 -243.789 538.25 -241.434 561.92 -239.765C577.7 -238.653 593.187 -237.373 608.787 -235.147C625.116 -232.824 640.162 -226.885 652.8 -217.774C662.261 -210.87 670.114 -202.22 675.99 -192.23C679.135 -187.409 681.998 -182.402 684.567 -177.229C687.795 -170.304 690.302 -163.305 693.237 -156.213C696.173 -149.121 698.679 -142.122 701.615 -135.031C705.092 -126.899 708.119 -118.173 712.182 -110.376C721.63 -91.4977 736.7 -76.194 755.763 -66.1193C774.875 -56.5893 795.877 -50.2506 817.99 -47.3371C845.449 -42.7726 873.018 -41.6424 900.543 -39.1387C906.99 -38.4339 913.145 -37.5621 919.592 -36.8573C920.449 -36.6717 921.148 -36.0592 922.004 -35.8737M404.408 -228.46C421.954 -215.205 439.343 -201.524 457.183 -188.437C470.496 -179.079 484.701 -170.837 499.668 -163.785C509.161 -159.423 518.654 -155.061 527.854 -150.532C535.447 -147.326 542.128 -142.671 547.543 -136.814C553.363 -130.019 554.856 -122.779 548.099 -113.867C543.537 -108.717 537.657 -104.776 531.201 -102.54C518.672 -97.4143 505.893 -93.4957 492.957 -89.15C485.25 -86.4386 477.115 -83.8199 469.272 -81.3685C456.922 -77.357 444.707 -73.0858 432.379 -69.7613C418.261 -65.504 403.722 -64.9057 390.34 -68.0308C378.16 -71.2815 367.881 -78.2632 360.933 -88.0045C351.459 -101.307 344.835 -116.49 341.38 -132.821C337.454 -149.816 335.081 -167.298 334.289 -185.083C334.29 -186.114 334.52 -187.164 334.963 -188.165M1196.09 1363.83C1192.86 1350.9 1192.04 1337.24 1193.65 1323.41C1195.93 1303.57 1203.5 1283.92 1215.61 1266.38C1223.37 1254.74 1232.3 1243.76 1242.26 1233.64C1254.58 1221.55 1267.2 1209.3 1280.22 1197.82C1292.65 1186.68 1305.63 1176.58 1318.2 1165.7C1331.22 1154.23 1344.11 1142.49 1356.99 1130.76C1372.4 1116.57 1387.4 1101.6 1403.22 1088.2C1416.53 1076.56 1431.9 1068.13 1449.91 1066.95C1460.44 1066.41 1470.62 1068.22 1479.64 1072.24C1490.63 1076.83 1500.24 1083.61 1507.9 1092.2C1509.84 1094.46 1511.63 1097.16 1513.57 1099.42M481.722 -271.885C486.547 -269.918 491.394 -268.637 496.062 -266.242C505.597 -261.968 515.914 -259.113 526.702 -257.761C546 -254.273 565.408 -254.218 584.502 -253.311C602.017 -252.514 619.668 -251.458 636.6 -245.945C656.28 -239.919 672.778 -228.073 683.961 -211.938C687.616 -206.983 690.859 -201.735 693.665 -196.232C697.863 -188.175 702.061 -180.117 705.674 -171.726C708.745 -164.374 710.937 -156.521 714.301 -149.336C719.674 -137.566 724.461 -125.461 731.005 -114.36C741.279 -97.2976 756.458 -83.7554 775.034 -75.079C797.279 -64.9885 821.757 -58.984 847.359 -57.3372C868.144 -55.3712 889.379 -53.9992 910.321 -52.4603C911.638 -52.2265 912.884 -51.8012 914.019 -51.1982M496.368 -280.242C498.353 -279.351 500.495 -278.886 502.479 -277.995C517.533 -272.87 533.547 -269.866 550.07 -269.07C571.756 -268.292 593.756 -268.369 615.712 -267.071C637.1 -266.111 657.07 -259.718 673.635 -248.53C684.33 -241.374 693.25 -232.171 699.937 -221.389C703.592 -216.435 706.835 -211.186 709.641 -205.683C713.682 -197.199 717.272 -188.121 721.02 -179.469C724.361 -171.598 727.41 -163.559 730.752 -155.687C733.703 -147.961 737.109 -140.45 740.956 -133.187C751.273 -113.475 767.534 -97.6635 787.942 -87.501C810.739 -76.568 834.342 -72.8386 858.418 -70.3903C873.184 -69.0364 888.265 -68.5367 903.323 -67.3499C904.314 -67.079 905.265 -66.7185 906.164 -66.2732M511.894 -289.099L530.335 -285.796C545.931 -283.532 561.951 -282.843 578.147 -283.74C602.176 -284.299 626.385 -285.972 650.486 -279.829C672.265 -274.511 691.073 -262.989 704.631 -246.657C713.965 -235.306 721.67 -222.722 727.582 -209.175C732.278 -198.704 735.959 -187.992 739.934 -177.447C745.221 -163.77 751.572 -150.605 758.941 -138.052C769.551 -120.464 785.613 -106.833 805.269 -98.7345C829.102 -88.7299 854.035 -86.096 878.854 -84.409C885.166 -83.964 891.185 -83.3517 897.497 -82.9067M1227.44 1345.94C1226.86 1335.94 1227.67 1325.73 1229.85 1315.57C1234.52 1290.99 1246.25 1270.47 1260.8 1251.72C1274.64 1234.07 1290.36 1217.75 1307.65 1203.07C1315.79 1196.07 1323.94 1188.38 1332.21 1181.64C1339.6 1175.4 1347.26 1169.69 1354.92 1163.97C1362.58 1158.25 1370.26 1151.84 1377.92 1146.12C1380.58 1143.93 1383.51 1142.26 1386.3 1140.33C1394.95 1135.06 1403.34 1129.26 1412.39 1124.77C1430.22 1115.95 1448.5 1110.91 1468.83 1117.86C1483.2 1122.81 1494.68 1132.45 1504.49 1144.72C1512.15 1153.81 1519 1163.54 1524.98 1173.83C1525.25 1174.35 1525.81 1174.7 1526.08 1175.22M536.792 -303.307C547.139 -303.141 557.621 -302.715 567.99 -303.235C579.936 -303.645 591.905 -304.741 603.717 -305.411C629.368 -307.233 654.953 -306.994 679.778 -296.544C691.452 -291.716 701.924 -284.928 710.764 -276.459C718.77 -268.714 725.724 -260.016 731.497 -250.524C738.29 -239.676 743.935 -228.111 748.36 -215.975C751.273 -208.196 754.908 -200.492 757.956 -192.453C761.959 -180.769 767.034 -169.566 773.128 -158.962C782.594 -141.245 797.353 -127.044 815.805 -117.898C835.062 -108.654 855.374 -105.408 875.887 -103.961C879.9 -103.553 883.821 -104.779 887.475 -102.143M184.695 -102.425C184.283 -101.036 183.998 -99.6316 183.842 -98.2285C182.821 -75.3924 181.935 -52.2967 180.914 -29.4606C180.705 -11.0968 182.143 7.03328 185.212 24.7329C187.114 37.1347 189.152 49.7967 190.468 62.5327C191.784 75.2688 190.08 88.0421 183.686 99.108C181.357 103.439 178.169 107.379 174.324 110.675C170.48 113.972 166.065 116.552 161.36 118.251C153.466 121.535 145.08 122.825 137.086 121.986C131.693 121.483 126.626 119.889 122.205 117.304C117.783 114.719 114.104 111.2 111.401 106.969C106.031 99.58 104.154 90.8729 101.555 82.24C98.4374 71.8805 96.3334 61.2791 93.2155 50.9197C90.0758 41.0001 85.6978 31.6193 80.1671 22.9608C70.6984 9.04188 59.0438 -3.2609 45.5405 -13.5918C43.0145 -15.5224 40.0381 -16.859 37.6475 -18.5297M576.337 -325.866C581.25 -326.646 586.164 -327.427 591.37 -328.374C603.068 -329.99 614.767 -331.607 626.307 -332.796C649.348 -335.668 671.966 -332.947 692.049 -324.887C712.131 -316.827 729.022 -303.692 741.143 -286.709C749.095 -276.178 755.808 -264.759 761.183 -252.624C765.879 -242.153 769.561 -231.441 773.536 -220.896C776.606 -213.544 779.384 -206.025 782.455 -198.673C784.713 -192.881 786.836 -187.349 789.68 -181.89C791.483 -178.189 793.579 -174.652 795.954 -171.309C800.941 -163.858 806.792 -157.028 813.415 -150.925C821.256 -144.187 830.419 -138.928 840.521 -135.369C850.21 -131.893 860.395 -129.455 870.912 -128.095C872.188 -127.766 873.424 -127.344 874.61 -126.833M1255.87 1329.04C1257.32 1312.63 1262.04 1296.19 1269.79 1280.64C1277.36 1264.98 1287.4 1250.25 1299.51 1237.04C1309.77 1225.07 1321.22 1214.02 1333.64 1204.09C1342.2 1197.18 1351.06 1190.11 1359.75 1183.46C1365.2 1179.34 1370.93 1175.73 1376.51 1171.87C1381.79 1168.19 1387.23 1164.75 1392.8 1161.56C1407.27 1154.32 1422.14 1147.86 1438.55 1147.26C1450.64 1146.89 1462.17 1149.63 1471.94 1155.19C1485.95 1162.37 1496.8 1173.72 1506.9 1185.82M635.8 -359.791C639.397 -360.671 643.023 -361.274 646.641 -361.593C665.643 -362.319 684.872 -361.151 703.474 -353.893C724.242 -345.616 741.874 -332.301 754.851 -315.096C761.855 -306.04 768.034 -296.377 773.332 -286.191C777.373 -277.707 781.121 -269.055 784.148 -260.33L798.172 -222.475C802.356 -210.55 807.767 -199.188 814.335 -188.539C822.219 -174.918 834.347 -164.293 849.296 -157.908C853.264 -156.126 857.368 -154.084 861.765 -152.21M210.954 288.547C216.611 287.006 222.267 285.464 227.767 284.349C233.809 282.842 239.939 282.97 245.44 284.719C248.435 285.662 251.083 287.259 253.197 289.397C254.349 290.967 254.954 292.887 254.939 294.928C254.925 296.969 254.292 299.046 253.115 300.908C251.351 304.191 248.84 307.126 245.795 309.467C234.316 318.67 220.104 323.629 206.244 323.266C201.345 323.251 196.804 321.702 193.302 318.848C191.742 317.312 190.712 315.335 190.323 313.13C189.893 310.46 190.277 307.622 191.43 304.938C192.583 302.254 194.46 299.831 196.849 297.943C201.265 294.749 206.245 291.908 210.796 288.974M376.457 -199.699C385.721 -201.612 394.064 -197.269 402.25 -192.498C416.52 -184.101 429.16 -173.598 439.781 -161.311C444.548 -156.44 448.121 -150.573 450.297 -144.046C451.84 -139.7 451.839 -134.806 450.293 -130.052C448.748 -125.299 445.736 -120.927 441.682 -117.552C431.816 -109.884 419.696 -105.878 407.967 -106.409C401.295 -106.52 394.964 -108.156 389.489 -111.185C384.015 -114.214 379.552 -118.55 376.465 -123.839C370.277 -132.65 366.177 -142.811 364.405 -153.726C362.632 -164.641 363.223 -176.092 366.142 -187.408C366.583 -189.906 367.743 -192.33 369.489 -194.4C371.235 -196.47 373.495 -198.101 376.007 -199.105M1162.34 986.908C1165.24 985.923 1168.44 984.772 1171.35 983.788C1179.49 981.169 1187.37 977.344 1196.05 975.765C1206.96 973.609 1217.92 972.206 1228.82 971.566C1242.73 970.952 1256.13 973.461 1267.98 978.895C1281 984.523 1291.1 994.411 1296.7 1007.02C1301.28 1017.19 1303.18 1028.57 1302.24 1040.27C1300.59 1058.8 1293.63 1077.24 1282.13 1093.56C1272.48 1107.46 1260.65 1120.02 1247.15 1130.71C1239.04 1137.02 1230.66 1142.82 1222.28 1148.61C1218.28 1151.57 1214.11 1154.29 1209.79 1156.74C1200.73 1161.24 1191.54 1165.47 1182.35 1169.71C1168.67 1175.76 1154.37 1179.82 1139.98 1181.74C1124.96 1183.89 1110.18 1182.04 1097.3 1176.42C1090.74 1173.51 1085.08 1169.22 1080.69 1163.82C1076.31 1158.42 1073.3 1152.04 1071.85 1145.08C1069.03 1132.27 1068.93 1118.7 1071.55 1105.13C1074.85 1084.1 1083.03 1063.4 1095.5 1044.6C1103.57 1032.21 1113.66 1020.98 1125.32 1011.4C1136.85 1001.45 1149.72 994.781 1162.61 987.428M698.93 311.245C709.749 310.13 713.45 315.773 716.319 324.926C721.402 341.245 723.443 358.288 726.498 375.09C729.552 391.891 732.922 407.839 736.27 424.474C740.521 444.302 745.359 463.796 749.025 483.958C751.49 496.712 750.507 509.411 743.121 520.032C738.66 526.516 732.04 531.496 724.557 533.995C719.285 536.059 713.89 537.669 708.443 538.805C692.815 542.187 677.076 542.169 662.435 538.754C653.775 536.823 645.833 533.223 639.053 528.155C628.824 520.167 622.378 508.57 620.839 495.388C619.276 482.305 620.052 468.76 623.133 455.304C630.075 422.683 643.242 393.256 658.393 364.718C665.963 349.694 675.358 335.384 686.359 322.125C689.663 317.969 693.805 314.454 698.48 311.838M1168.44 1011.74C1172.22 1010.26 1175.71 1008.94 1179.5 1007.45C1188.56 1003.67 1198.02 1001.35 1207.47 1000.6C1219.31 999.354 1230.9 1000.84 1241.26 1004.92C1251.13 1008.81 1259.08 1015.68 1264.07 1024.62C1268.65 1033.04 1270.47 1042.86 1269.34 1052.97C1267.54 1068.16 1260.83 1083.08 1250.14 1095.62C1242.81 1104.78 1234.04 1112.87 1224.21 1119.51C1216.81 1124.47 1209.17 1129.05 1201.34 1133.23C1188.02 1140.11 1173.58 1143.95 1159.29 1144.42C1145.27 1145.28 1132.21 1140.88 1122.87 1132.15C1115.69 1125.29 1111.3 1116.11 1110.34 1105.91C1108.04 1085.91 1114.19 1064.74 1127.48 1046.91C1133.74 1038.06 1141.44 1030.13 1150.23 1023.48C1155.97 1019.19 1162.26 1015.94 1168.44 1011.74ZM1181.86 1032.4C1185.36 1031.22 1188.89 1030.21 1192.45 1029.39C1202.97 1026.52 1213.7 1027.37 1222.57 1031.77C1228.17 1034.46 1232.57 1038.81 1235.21 1044.27C1237.85 1049.72 1238.61 1056.04 1237.4 1062.42C1235.42 1074.02 1228.94 1085.07 1219.3 1093.31C1214.54 1097.91 1209.18 1101.88 1203.39 1105.08C1191.7 1111.08 1179.35 1115.09 1165.35 1112.29C1160.93 1111.52 1156.87 1109.8 1153.46 1107.27C1150.04 1104.74 1147.34 1101.45 1145.55 1097.63C1142.93 1092.41 1142.03 1086.38 1142.94 1080.23C1145.61 1064.21 1153.36 1051.36 1165.86 1042.54C1170.86 1039.01 1176.43 1035.84 1181.86 1032.4Z" stroke="url(#paint0_linear_826_1167)" stroke-linecap="round" stroke-linejoin="round"/>
<defs>
<linearGradient id="paint0_linear_826_1167" x1="764.74" y1="862" x2="764.74" y2="1065" gradientUnits="userSpaceOnUse">
<stop stop-color="#DFE4E8"/>
<stop offset="1" stop-color="#DFE4E8" stop-opacity="0"/>
</linearGradient>
</defs>
</svg>
