<svg width="770" height="913" viewBox="0 0 770 913" fill="none" xmlns="http://www.w3.org/2000/svg">
<g clip-path="url(#clip0_726_8475)">
<path d="M-126.767 520.316C-126.324 530.673 -128.467 598.753 -161.441 654.479C-222.108 757.004 -79.9897 817.102 -9.90847 832.828C60.1728 848.554 127.275 794.586 171.829 781.416C216.383 768.247 234.713 702.8 274.454 671.985C286.206 662.753 298.493 654.397 311.229 646.974C328.994 636.15 347.442 626.799 366.419 618.999C382.539 612.44 399.099 608.715 416.769 610.655C425.251 611.432 433.646 613.013 441.861 615.38C458.807 620.162 475.034 627.011 491.266 633.345C504.948 638.665 518.4 643.728 532.32 648.531C543.46 652.594 555.154 654.604 566.942 654.479C576.425 654.122 585.781 651.69 594.473 647.325C606.565 640.975 617.595 632.345 627.063 621.828C641.874 605.996 653.674 588.637 660.378 568.735C663.082 560.77 664.652 552.407 665.032 543.948C665.043 538.509 664.705 533.083 664.021 527.71C663.089 518.481 660.98 509.466 657.755 500.936C651.704 484.025 643.888 467.984 634.464 453.135C623.82 436.455 611.115 421.53 596.71 408.788C580.322 394.204 562.996 380.4 546.375 365.817C532.296 353.28 518.451 340.483 504.607 327.686C497.684 321.288 490.532 314.633 483.612 307.977C470.924 295.946 458.236 283.914 445.315 271.885C439.778 266.766 434.007 261.649 428.234 256.79C418.552 248.367 408.091 241.094 397.018 235.088C388.629 230.563 379.466 227.994 370.09 227.54C362.301 227.348 354.53 228.893 347.239 232.082C337.388 236.586 328.158 242.644 319.839 250.065C304.589 263.064 290.496 276.829 274.091 288.805C261.585 298.141 248.249 306.012 234.305 312.289C219.346 319.097 203.696 325.137 188.508 331.431C169.347 339.558 151.338 348.967 133.323 358.891C123.262 364.634 112.97 370.12 102.447 375.351C88.8264 382.099 74.6684 387.379 60.1728 391.116C49.565 393.639 38.8124 395.265 28.0087 395.981C15.3178 396.719 2.61407 396.03 -9.90845 393.924C-26.7269 391.087 -43.2146 386.363 -59.1179 379.826C-78.5921 371.71 -96.415 361.262 -114.476 351.331C-123.512 345.712 -133.408 341.938 -143.697 340.188C-148.776 339.559 -153.935 340.122 -158.841 341.841C-163.676 343.58 -168.143 346.423 -171.952 350.183C-182.756 360.573 -185.893 372.456 -182.991 385.587C-181.211 394.342 -176.395 402.044 -171.347 409.745C-164.691 419.755 -157.803 429.764 -151.383 440.034C-143.102 453.049 -136.72 467.446 -132.465 482.707C-130.776 489.39 -129.44 496.183 -128.467 503.051C-127.556 508.751 -126.989 514.519 -126.767 520.316Z" stroke="#F2F4F6" stroke-width="1.25" stroke-linecap="round" stroke-linejoin="round"/>
<path d="M82.8381 -139.716C78.3577 -133.496 74.1122 -127.536 69.6342 -121.574C59.7374 -108.612 50.0736 -95.6515 39.7138 -82.9443C29.9478 -71.0222 18.9038 -60.4649 6.83509 -51.5144C-4.885 -42.6656 -16.8354 -34.0731 -28.3252 -24.9681C-45.9078 -11.437 -60.719 4.39556 -70.6714 23.2887C-76.0779 33.4292 -80.029 44.4201 -82.3811 55.8607C-84.2286 64.1518 -85.1681 72.6434 -85.1786 81.1505C-85.2077 84.2451 -85.9324 87.0866 -85.7287 90.1795C-85.5757 98.6879 -85.19 107.195 -84.8068 115.959C-84.4041 122.661 -84.0039 129.62 -83.834 136.324C-83.4629 146.378 -83.3244 156.433 -83.4211 166.748C-83.7192 173.713 -84.7156 180.682 -85.4792 187.649C-86.2331 193.586 -86.7544 199.52 -87.5058 205.198C-88.2525 210.361 -89.2318 215.525 -89.9761 220.429C-90.4779 224.301 -91.4451 228.175 -91.7141 232.045C-92.6415 240.096 -93.1061 248.195 -93.1053 256.294C-92.632 280.272 -84.4586 302.133 -66.7105 320.576C-55.7485 331.981 -42.8734 340.909 -28.7871 346.872C-19.0137 351.185 -8.67843 353.808 1.86178 354.652C7.26048 355.344 12.6994 355.65 18.1451 355.57C31.1486 355.003 44.0363 352.306 56.3896 347.569C75.541 340.473 91.9384 329.271 108.335 318.069C124.732 306.867 141.369 294.89 160.525 287.278C168.936 283.868 177.81 280.712 186.449 277.815C203.025 272.285 219.597 267.27 235.259 259.941C246.788 254.677 257.778 248.029 268.029 240.116C278.58 231.791 288.907 222.694 299.458 214.369C309.542 206.305 319.393 198.243 331.782 192.484C341.195 187.966 351.301 185.579 361.499 185.463C371.696 185.348 381.776 187.508 391.137 191.813C399.035 195.503 406.624 199.936 413.821 205.064C420.61 209.668 427.094 214.793 433.228 220.401C441.768 228.077 449.606 236.017 457.911 243.953C460.91 246.768 463.676 249.585 466.678 252.143C484.678 268.521 502.443 285.159 520.914 301.018C535.792 314.031 551.466 325.897 567.828 336.534C586.567 348.523 605.542 360.253 624.049 372.244C641.246 383.337 656.091 398.343 667.624 416.293C676.338 430.157 683.881 444.803 691.194 459.192C699.879 476.15 708.567 492.851 716.786 509.813C720.185 516.639 722.627 524.011 724.029 531.681C726.06 543.069 724.383 554.953 719.292 565.236C712.482 579.579 704.235 593.045 694.71 605.375C681.509 623.259 668.308 641.143 654.643 658.773C646.162 669.662 637.219 680.297 627.812 690.677C619.496 699.938 609.613 707.286 598.749 712.281C592.337 715.162 585.559 716.864 578.686 717.32C565.284 718.153 551.937 715.6 539.655 709.856C522.964 702.752 506.509 695.388 489.82 688.026C473.366 680.917 456.252 675.763 438.761 672.652C426.146 670.68 413.351 670.25 400.604 671.37C385.482 672.543 370.555 676.121 356.283 681.992C343.037 687.108 330.266 693.676 318.162 701.597C303.751 711.098 290.497 722.634 278.74 735.909C277.802 736.808 216.429 806.532 173.974 817.789C153.725 824.87 103.409 842.942 64.132 858.584C15.0358 878.135 -73.5978 892.038 -130.08 884.218C-186.562 876.397 -198.728 872.487 -198.728 872.487" stroke="#F2F4F6" stroke-width="1.25" stroke-linecap="round" stroke-linejoin="round"/>
<path d="M45.3623 -139.192C35.2333 -122.194 23.4556 -106.459 10.2439 -92.2753C1.01652 -82.654 -8.9573 -73.9547 -19.558 -66.2819C-29.8694 -58.7322 -39.7205 -50.67 -49.7992 -43.1219C-62.4598 -33.4069 -73.9179 -21.8797 -83.8683 -8.84731C-94.3555 4.67454 -102.336 20.3346 -107.342 37.2153C-109.511 45.2241 -111.681 53.2329 -113.385 61.2384C-114.367 66.6604 -114.418 72.0758 -114.935 77.4945C-115.206 81.6221 -115.713 86.0094 -115.752 90.1354C-115.807 96.0666 -115.63 101.996 -115.22 107.924C-115.045 114.112 -114.64 120.555 -114 126.74C-112.913 138.889 -112.639 151.126 -113.179 163.35C-113.475 170.057 -114.469 176.768 -115.23 183.478C-117.012 199.735 -122.048 215.5 -126.385 231.26C-128.787 239.27 -130.957 247.279 -132.664 255.542C-135.638 268.706 -133.934 282.548 -127.906 294.188C-121.591 305.684 -113.857 316.131 -104.923 325.23C-92.6456 338.285 -78.7209 349.303 -63.569 357.949C-45.5862 368.914 -25.8266 375.952 -5.34514 378.688C0.466534 379.421 6.27848 380.155 12.3277 380.37C18.4484 380.715 24.5874 380.672 30.7153 380.243C39.1762 379.161 47.5833 377.552 55.8967 375.426C72.3437 371.066 88.2213 364.277 103.1 355.242L145.228 330.195C160.107 321.551 175.59 314.284 191.515 308.47C205.997 302.955 220.944 297.436 234.965 291.407C249.777 285.046 263.789 276.537 276.63 266.105C287.655 257.003 298.449 247.645 309.24 238.545C317.263 231.423 325.809 225.066 334.787 219.543C345.362 213.283 357.188 210.177 369.085 210.538C375.217 210.795 381.256 212.146 386.968 214.539C399.334 219.17 410.845 226.157 420.988 235.189C428.608 241.583 436.231 247.718 443.384 254.373C455.153 265.121 466.452 276.389 477.985 287.397C481.215 290.468 484.675 293.797 488.137 296.867C493.675 301.986 499.213 307.104 504.753 311.965C512.829 319.387 520.903 327.067 529.448 334.227C541.918 344.713 554.855 354.937 567.56 365.164C577.263 372.832 587.201 380.241 596.669 388.169C604.523 394.561 612.376 400.953 619.759 407.863C630.154 417.705 639.355 428.992 647.141 441.453C652.414 449.926 657.455 458.4 662.025 467.393C670.792 483.657 677.665 501.109 682.485 519.339C685.051 529.794 685.895 540.705 684.976 551.555C683.67 563.025 680.237 574.112 674.895 584.115C667.854 598.043 659.541 611.15 650.09 623.225C642.02 633.495 633.459 643.282 624.446 652.541C616.817 660.334 608.301 666.984 599.125 672.315C590.383 677.383 580.689 680.018 570.891 679.989C558.157 680.029 545.561 677.495 533.723 672.512C521.43 667.956 509.375 662.882 497.318 658.067C482.617 651.876 467.59 646.643 452.312 642.393C442.028 639.549 431.538 637.639 420.946 636.68C411.336 636.018 401.68 636.258 392.079 637.396C373.204 639.848 355.92 646.415 339.091 654.01C321.014 662.114 303.75 672.35 287.602 684.538C273.324 695.25 260.367 708.001 249.076 722.454C226.969 750.041 208.979 782.177 174.374 796.2C161.99 801.561 126.172 816.567 81.9656 833.709C26.7077 855.135 -66.8924 859.646 -108.618 846.677C-141.998 836.302 -176.656 816.417 -189.813 807.771" stroke="#F2F4F6" stroke-width="1.25" stroke-linecap="round" stroke-linejoin="round"/>
<path d="M66.7713 -139.342C57.5728 -126.385 48.3772 -113.686 38.946 -100.727C27.6947 -85.78 14.7359 -72.5111 0.40587 -61.2643C-9.91285 -52.941 -21.1553 -45.3848 -31.7043 -37.3177C-47.8782 -25.0857 -62.4326 -11.8336 -73.5222 4.23092C-87.3049 24.4042 -95.6113 48.4557 -97.4462 73.5041C-97.7636 82.5315 -98.3112 91.3027 -98.1631 100.327C-98.226 107.032 -97.5882 113.474 -97.1856 120.175C-96.7781 126.361 -96.1355 132.287 -96.1936 138.477C-95.8296 149.304 -95.6983 160.133 -95.7975 170.707C-96.1304 176.849 -96.8098 182.968 -97.8314 189.029C-98.5925 195.739 -99.5867 202.45 -100.581 209.161C-101.565 214.841 -102.784 220.78 -103.536 226.458C-104.287 232.137 -105.504 237.818 -106.023 243.495C-106.549 249.945 -106.845 256.651 -106.905 263.098C-106.717 275.251 -103.788 287.109 -98.3843 297.592C-91.3091 312.499 -80.2575 325.315 -67.0944 336.312C-53.9895 347.144 -39.1525 355.171 -23.3284 359.989C-14.0645 362.816 -4.58151 364.734 5.01222 365.722C24.1286 367.339 43.4065 364.572 61.6449 357.593C79.8629 350.762 95.5494 340.854 111.239 330.688C123.414 322.868 135.591 315.047 147.995 307.741C160.743 300.694 174.044 294.99 187.721 290.703C203.131 285.439 218.536 280.69 233.263 273.884C247.082 267.728 260.208 259.758 272.354 250.146C281.031 243.124 289.478 235.845 298.158 228.564C308.244 220.243 318.099 211.665 329.8 204.879C338.472 199.761 347.969 196.651 357.706 195.741C367.442 194.831 377.21 196.139 386.406 199.586C397.927 204.092 408.765 210.445 418.58 218.444C424.353 223.303 430.597 227.643 436.134 232.762C447.443 242.998 458.28 253.753 469.121 264.25L478.579 273.209C495.889 288.818 512.732 304.431 530.512 319.521C548.791 334.923 567.85 349.167 587.599 362.187C603.788 373.162 619.744 384.139 633.819 397.192C643.471 406.212 652.053 416.547 659.365 427.958C663.952 435.146 668.072 442.596 672.191 450.045C681.316 466.702 689.548 483.951 696.843 501.704C700.564 510.51 703.441 519.737 705.429 529.235C706.677 536.706 706.762 544.379 705.681 551.925C703.175 571.024 693.244 587.597 682.387 603.66C674.36 615.835 665.872 627.498 656.921 638.906C647.029 651.352 636.904 663.8 625.856 675.48C618.023 684.162 608.795 691.139 598.665 696.04C592.719 698.936 586.422 700.806 579.994 701.585C566.71 703.483 554.17 700.476 542.11 695.918C526.11 689.583 510.348 682.73 494.583 676.135C479.082 669.48 463.097 664.244 446.785 660.48C437.419 658.607 427.947 657.381 418.425 656.81C401.254 655.979 384.027 658.187 367.393 663.353C344.593 670.2 322.879 681.061 303.087 695.517C260.053 726.553 227.229 788.639 173.779 807.146C120.328 825.652 89.2814 842.008 45.2755 856.677C24.1025 863.734 -51.6702 875.998 -116.514 861.901C-168.388 850.624 -180.229 846.114 -197.709 839.347" stroke="#F2F4F6" stroke-width="1.25" stroke-linecap="round" stroke-linejoin="round"/>
<path d="M-127.194 740.796C-129.032 738.23 -131.102 735.666 -132.94 733.1C-137.765 726.429 -142.59 719.758 -147.182 713.086C-151.206 707.544 -153.506 700.694 -153.748 693.534C-153.528 688.356 -152.373 683.262 -150.349 678.555C-146.778 670.02 -142.514 661.997 -138.479 653.717C-125.137 628.019 -115.085 600.434 -108.618 571.768C-107.399 565.828 -106.179 559.889 -105.425 553.953C-104.422 546.21 -103.884 538.471 -103.113 530.729C-102.448 525.943 -102.247 521.101 -102.512 516.285C-102.903 508.294 -104.221 500.052 -104.845 492.062C-106.002 481.377 -108.086 470.856 -111.067 460.646C-112.636 454.211 -115.141 448.297 -116.942 441.863C-120.102 431.313 -123.496 421.022 -125.957 410.467C-127.521 403.515 -127.456 396.553 -122.277 390.328C-118.84 386.249 -114.162 383.731 -109.177 383.275C-100.786 381.927 -93.1271 384.195 -85.4654 386.204C-70.3749 390.225 -55.7571 395.023 -40.669 399.301C-26.6842 403.523 -12.3876 406.442 2.07346 408.029C8.81617 408.756 15.7942 409.223 22.5393 409.692C27.4248 409.916 32.5406 410.396 37.6637 410.103C51.3851 409.462 65.0424 407.381 78.4519 403.888C89.1853 400.977 99.6932 397.294 109.971 393.354C129.825 385.738 148.31 375.295 167.478 366.395C184.777 358.281 202.534 350.937 220.294 343.336C242.26 333.9 263.538 323.438 282.287 309.641C293.645 301.357 304.605 292.415 315.122 282.853C321.227 277.137 327.332 271.422 333.667 265.963C342.061 258.456 351.369 252.311 361.302 247.72C371.888 243.108 383.466 242.305 394.373 245.427C405.421 248.522 415.853 253.776 425.182 260.942C441.369 272.176 455.206 285.746 469.516 298.54C478.055 306.216 486.124 314.412 494.429 322.348C503.424 331.052 512.652 339.756 521.644 348.718C543.323 369.97 566.643 389.921 589.26 410.393C602.557 421.981 614.683 435.122 625.432 449.594C637.307 465.568 646.728 483.617 653.326 503.035C656.118 510.771 657.921 518.915 658.685 527.237C658.881 531.103 659.776 534.965 659.739 538.833C659.522 555.601 654.744 571.99 646.032 585.859C640.976 594.048 635.043 601.537 628.367 608.158C620.575 615.803 611.806 622.123 602.357 626.905C595.027 630.491 587.209 632.64 579.256 633.255C563.882 634.651 549.72 630.881 535.565 626.338C518.549 620.46 501.833 613.605 485.486 605.8C476.214 601.738 466.945 597.419 457.441 593.36C447.249 588.811 436.569 585.681 425.643 584.04C413.127 582.451 400.399 584.311 388.586 589.455C374.099 595.486 361.453 603.826 348.576 611.909C332.187 622.337 315.794 633.024 299.632 643.966C203.845 708.821 222.349 743.912 162.967 770.834" stroke="#F2F4F6" stroke-width="1.25" stroke-linecap="round" stroke-linejoin="round"/>
<path d="M104.241 -138.835C100.474 -134.167 96.4735 -129.498 92.7034 -124.572C81.1605 -109.794 70.0831 -95.0186 58.5402 -80.2402C42.6115 -60.2342 24.2722 -42.7479 4.05613 -28.2891C-10.006 -17.8768 -23.8353 -7.46624 -35.8195 4.73658C-42.6541 11.6745 -48.6032 19.6128 -53.4966 28.3249C-58.1732 36.4973 -61.7094 45.3911 -63.9842 54.6997C-66.5402 64.1076 -67.9618 73.8293 -68.2119 83.6096C-68.117 98.307 -67.559 113.259 -67.4641 127.957C-67.5899 141.366 -67.9486 154.778 -68.5399 168.19C-68.8331 174.639 -69.3593 181.089 -70.118 187.541C-71.1337 196.573 -72.8473 205.61 -74.0958 214.644C-75.3369 222.904 -76.3457 231.163 -76.891 239.676C-77.144 246.301 -77.0509 252.93 -76.6119 259.529C-76.2795 266.498 -75.0099 273.355 -72.8457 279.874C-68.3539 294.439 -60.3489 307.308 -49.6882 317.103C-42.0837 324.379 -33.4035 330.159 -24.0139 334.201C-17.6018 336.795 -11.0058 338.819 -4.28768 340.253C3.09238 342.083 10.7016 342.639 18.2728 341.901C23.972 341.557 29.6528 340.828 35.2835 339.72C50.0646 336.704 64.2514 330.658 77.1113 321.894C91.3989 312.254 105.226 302.102 119.283 292.205C133.004 282.53 147.789 274.884 163.252 269.465C177.729 264.465 192.664 260.236 207.371 255.492C218.256 252.088 228.884 247.702 239.147 242.378C254.003 234.179 268.124 224.408 281.314 213.204C289.756 206.441 297.502 199.425 306.172 193.176C316.992 184.715 329.135 178.592 341.951 175.135C352.298 172.488 362.984 172.15 373.38 174.143C385.715 176.66 397.497 181.646 408.154 188.857C421.87 198.094 434.78 208.707 446.725 220.563C458.486 232.085 470.483 243.348 482.713 254.609C493.558 264.59 504.874 274.052 516.19 283.514C525.197 290.93 534.67 298.342 544.148 305.238C558.995 316.211 574.626 325.845 590.891 334.051C604.328 340.662 617.768 347.015 630.97 353.886C643.588 359.813 655.347 367.719 665.893 377.366C676.966 387.862 684.061 400.705 690.923 413.551C697.557 425.882 703.024 438.479 709.425 450.812C716.989 465.382 726.166 478.829 736.746 490.848C768.709 520.265 766.916 556.135 745.46 581.816C734.88 593.235 724.066 604.656 714.177 616.844C699.342 635.256 685.2 654.178 670.594 672.845C662.114 683.735 653.403 694.368 644.459 705.002C636.808 714.159 627.748 721.735 617.716 727.364C610.032 731.694 601.726 734.46 593.202 735.528C580.153 737.166 568.309 734.412 556.71 730.367C541.399 725.058 527.275 717.163 512.677 710.302C494.2 700.898 474.727 694.021 454.683 689.818C447.026 688.235 439.244 687.426 431.432 687.402C425.613 687.442 419.566 686.968 413.742 687.525C405.92 688.275 398.136 689.535 390.432 691.297C373.007 695.677 356.28 703.106 340.885 713.302C281.731 749.957 247.458 808.301 174.162 827.198C155.445 833.315 112.274 847.982 89.3336 857.715C60.6581 869.88 -41.4444 908.549 -117.478 903.769C-178.305 899.946 -199.595 896.383 -202.636 895.08" stroke="#F2F4F6" stroke-width="1.25" stroke-linecap="round" stroke-linejoin="round"/>
<path d="M-100.175 714.821C-80.813 765.227 -67.7658 764.535 -40.2655 782.005C0.386418 807.83 7.27303 815.096 78.1147 797.385C148.956 779.675 199.537 721.247 204.5 713.218C211.616 701.786 219.498 690.956 228.078 680.822C241.025 665.26 256.512 651.744 272.694 638.738C285.825 628.332 299.882 618.436 312.783 607.774C327.317 595.698 341.268 582.775 354.574 569.062C362.108 561.003 370.455 553.935 379.442 548.002C389.041 541.852 399.946 538.741 410.947 539.016C416.913 539.249 422.831 540.158 428.609 541.729C438.398 544.591 447.816 548.769 456.655 554.169C474.478 564.618 492.299 575.324 510.592 585.254C526.117 593.736 542.937 599.034 560.252 600.895C571.813 602.402 583.579 600.727 594.511 596.016C603.05 592.308 610.802 586.627 617.243 579.355C623.076 573.032 627.668 565.445 630.718 557.085C634.057 548.07 635.27 538.296 634.243 528.695C633.367 522.771 632.727 516.586 631.386 510.665C627.133 492.644 618.446 475.944 607.418 460.549C594.632 442.178 578.368 426.636 561.858 410.858L561.572 410.584C557.884 406.742 553.726 403.419 550.038 399.577C538.973 388.829 528.14 378.08 517.308 367.331L517.291 367.314C510.143 360.143 502.995 352.973 495.615 345.804C484.777 335.049 473.939 324.295 462.633 313.801C454.789 306.377 446.01 299.476 437.463 292.573C427.402 283.953 416.157 277.158 404.137 272.434C398.354 270.311 392.349 268.968 386.253 268.433C379.656 268.099 373.05 269.378 366.901 272.177C356.861 276.64 347.523 282.89 339.264 290.678C329.876 298.995 320.947 308.082 311.557 316.656C304.984 322.633 297.948 328.355 291.145 334.075C269.996 351.864 246.443 365.786 221.401 375.302C209.959 379.507 198.515 383.969 187.07 388.432L187.065 388.434C173.284 393.687 159.5 399.198 145.486 404.453C133.109 408.922 120.496 413.652 107.889 417.865C94.8345 422.319 81.4943 425.603 67.9981 427.683C59.3407 429.039 50.6311 429.875 41.9076 430.186C28.6287 430.836 15.3396 430.584 2.11561 429.431C-3.23052 428.695 -8.58373 428.732 -13.9323 428.253C-20.9102 427.786 -27.8808 426.545 -34.8611 426.336C-41.8414 426.126 -48.8265 426.433 -55.8141 426.997C-67.2265 427.85 -74.7256 433.317 -78.7743 443.144C-81.6352 450.384 -81.9357 457.607 -82.4713 465.088C-82.9925 471.023 -82.1196 477.205 -82.1752 483.137C-82.5362 496.806 -82.8997 510.733 -83.2607 524.402C-83.2848 526.981 -83.777 529.821 -84.0364 532.659C-84.7976 539.369 -85.7888 545.822 -86.7827 552.533C-87.5269 557.438 -88.0411 562.599 -89.0181 567.505C-91.2121 578.092 -93.6408 588.939 -95.8348 599.527C-98.7585 613.472 -101.915 627.418 -104.606 641.362C-106.391 650.835 -107.724 660.399 -108.599 670.012C-108.886 676.157 -108.474 682.306 -107.374 688.312C-105.435 697.302 -100.175 714.821 -100.175 714.821Z" stroke="#F2F4F6" stroke-width="1.25" stroke-linecap="round" stroke-linejoin="round"/>
<path d="M-65.9174 560.392C-66.6544 564.523 -67.6241 568.655 -68.3611 572.786C-83.5163 646.601 -60.0663 767.029 22.7712 791.19C63.6531 803.114 145.879 773.367 180.035 715.204C186.654 704.327 193.506 693.45 200.587 682.828C212.164 665.917 225.602 650.661 240.579 637.424C248.091 630.667 256.297 624.164 263.808 617.407C275.075 607.272 286.342 597.137 297.145 586.748C310.531 574.019 320.445 559.252 330.128 544.229C336.562 533.468 343.905 523.401 352.055 514.165C360.087 505.803 369.813 499.715 380.383 496.433C392.047 493.005 404.199 492.393 416.01 494.638C429.811 497.073 443.178 501.759 455.678 508.545C467.025 514.654 477.667 521.543 488.308 528.431C501.959 537.103 515.139 546.295 530.908 552.374C541.185 556.729 552.133 558.926 563.199 558.854C568.68 558.647 574.112 557.478 579.29 555.39C594.713 548.836 600.643 536.933 602.17 522.998C602.605 513.251 601.025 503.559 597.548 494.665C592.581 482.222 585.942 470.707 577.853 460.507C567.555 447.484 556.64 435.08 545.152 423.344C532.939 410.278 520.724 397.47 508.279 384.405C494.679 370.318 481.084 355.714 467.016 341.887C455.47 330.274 442.762 320.156 429.13 311.723C420.105 306.113 410.611 301.022 398.987 299.555C389.982 298.203 380.772 299.697 372.414 303.866C362.743 308.788 353.866 315.476 346.161 323.646C337.697 332.73 329.003 341.558 320.54 350.642C308.548 363.618 297.017 377.107 282.482 388.296C272.022 396.484 260.497 402.828 248.325 407.1C235.718 411.313 222.887 414.497 209.821 417.94C193.957 421.918 177.866 425.382 162 429.618C145.668 433.858 129.562 438.869 113.46 443.365C95.1341 448.493 76.505 452.071 57.7347 454.067C48.8803 455.16 39.7979 455.739 30.9507 456.058C22.1035 456.377 13.0236 456.698 4.17881 456.76C-3.39577 456.806 -10.9616 457.635 -18.4203 459.238C-28.1574 460.803 -37.1248 466.171 -43.6985 474.369C-49.5924 482.404 -52.2349 491.19 -54.4144 500.23C-56.109 507.204 -57.1052 514.173 -58.5695 521.404C-60.0338 528.634 -61.4955 535.606 -62.7246 542.577C-63.944 548.516 -64.9308 554.454 -65.9174 560.392Z" stroke="#F2F4F6" stroke-width="1.25" stroke-linecap="round" stroke-linejoin="round"/>
<path d="M-46.3362 632.452C-45.9465 639.65 -45.0801 646.797 -43.744 653.836C-37.1074 682.082 -39.3172 681.589 -20.1124 739.798C-0.907542 798.007 80.7629 805.851 140.517 735.844C164.818 707.374 171.048 674.886 195.593 645.468C208.07 630.425 222.857 617.171 237.181 603.663C246.105 595.091 255.26 586.776 263.489 577.952C273.142 567.801 281.133 555.874 287.094 542.718C292.016 531.873 295.422 520.283 297.192 508.352L297.224 508.097C298.219 500.187 299.182 492.527 297.412 484.886C296.536 480.904 294.892 477.193 292.592 474.005C290.292 470.817 287.391 468.227 284.086 466.412C276.701 462.675 268.772 460.376 260.642 459.613C250.145 458.356 239.585 457.741 229.007 457.77C221.794 457.562 214.338 458.388 207.118 458.954C199.432 459.523 191.974 460.606 184.286 461.433C168.205 463.679 152.242 466.976 136.481 471.307C119.686 475.291 103.35 480.046 86.56 483.515C70.9362 486.718 55.3219 488.89 39.7078 491.061C29.9697 492.137 20.3055 494.014 10.7953 496.677C-0.763911 499.969 -11.1657 507.163 -18.9558 517.255C-26.9687 527.883 -31.5051 540.034 -35.3429 552.181C-39.8626 565.905 -43.0388 580.106 -44.8169 594.536C-45.5805 601.503 -46.5769 608.472 -46.875 615.437C-47.0442 621.122 -46.8641 626.807 -46.3362 632.452Z" stroke="#F2F4F6" stroke-width="1.25" stroke-linecap="round" stroke-linejoin="round"/>
<path d="M-5.45304 664.393C-0.244748 679.829 5.66686 694.743 10.6424 710.181C39.028 802.215 118.778 720.447 141.99 676.777C149.137 663.023 157.196 649.866 166.098 637.414C179.3 619.53 195.507 603.687 211.715 587.845C220.048 580.309 227.691 571.876 234.527 562.674C242.31 551.79 247.77 540.406 246.962 527.261C246.56 521.086 244.131 515.325 240.132 511.063C234.143 504.4 226.03 500.846 216.97 499.104C208.457 497.528 199.8 496.983 191.15 497.479C182.398 498.005 173.678 499.185 165.05 501.012C146.624 505.266 129.106 511.835 111.594 517.887C96.181 523.41 80.3105 528.162 64.2139 532.141C53.9509 534.534 43.6849 537.184 33.4145 540.349C24.484 542.992 16.1682 547.808 9.07742 554.443C1.51426 561.72 -4.39728 570.868 -8.16311 581.123C-11.5116 589.861 -13.6387 599.094 -14.4709 608.5C-15.3699 617.642 -14.9856 626.86 -13.331 635.825C-11.3062 645.549 -8.67391 655.094 -5.45304 664.393Z" stroke="#F2F4F6" stroke-width="1.25" stroke-linecap="round" stroke-linejoin="round"/>
<path d="M514.763 462.219C511.199 469.98 505.841 470.533 498.405 469.295C485.159 467.067 472.634 462.512 459.869 458.733C447.104 454.954 434.799 451.687 422.031 448.166C406.708 444.147 391.38 440.643 376.061 436.108C366.312 433.34 357.981 428.24 353.641 419.503C350.971 414.202 350.2 407.955 351.478 401.984C352.17 397.672 353.223 393.435 354.622 389.327C358.554 377.499 364.865 366.782 373.07 357.997C377.863 352.77 383.515 348.614 389.709 345.762C399.291 341.579 409.837 341.232 419.51 344.781C429.123 348.28 438.118 353.533 446.129 360.326C465.761 376.434 480.709 395.67 494.25 415.947C501.542 426.346 507.613 437.739 512.319 449.859C513.852 453.559 514.61 457.608 514.536 461.705" stroke="#F2F4F6" stroke-width="1.25" stroke-linecap="round" stroke-linejoin="round"/>
</g>
<defs>
<clipPath id="clip0_726_8475">
<rect width="770" height="913" fill="white" transform="matrix(-1 0 0 1 770 0)"/>
</clipPath>
</defs>
</svg>
