<svg width="1184" height="877" viewBox="0 0 1184 877" fill="none" xmlns="http://www.w3.org/2000/svg">
<g clip-path="url(#clip0_631_16301)">
<path d="M798.068 571.728C792.506 580.476 760.321 640.506 761.015 705.254C762.292 824.376 609.164 805.364 540.609 783.942C472.054 762.521 440.926 682.232 408.926 648.55C376.925 614.867 393.775 549.024 374.766 502.466C369.204 488.596 362.741 475.216 355.422 462.419C345.45 444.163 334.149 426.841 321.615 410.597C310.933 396.857 298.454 385.351 282.182 378.196C274.447 374.628 266.387 371.799 258.089 369.742C241.023 365.41 223.545 363.228 206.321 360.597C191.812 358.363 177.63 356.023 163.174 353.222C151.495 351.171 140.362 347.064 130.216 341.062C122.183 336.011 115.295 329.227 109.951 321.101C102.654 309.555 97.4167 296.567 94.4755 282.725C89.5648 261.608 88.025 240.675 92.1706 220.088C93.8112 211.838 96.633 203.81 100.533 196.294C103.244 191.579 106.25 187.048 109.528 182.737C114.949 175.21 121.284 168.459 128.342 162.683C142.037 151.064 156.827 141.08 172.413 132.932C189.97 123.809 208.436 117.236 227.282 113.403C248.766 108.967 270.673 105.675 292.359 101.357C310.821 97.539 329.209 93.379 347.597 89.2189C356.791 87.1389 366.312 84.9519 375.633 82.6473C392.637 78.5719 409.641 74.4967 426.845 70.539C434.2 68.875 441.756 67.3286 449.185 66.0068C461.782 63.5534 474.478 62.4858 487.07 62.8214C496.598 63.0967 505.818 65.4535 514.165 69.7478C521.006 73.4763 526.964 78.6997 531.683 85.1076C537.963 93.9328 542.927 103.794 546.42 114.381C553.128 133.264 558.451 152.231 566.67 170.804C572.833 185.143 580.446 198.627 589.383 211.035C598.934 224.411 609.468 237.467 619.473 250.512C632.004 267.13 642.896 284.283 653.535 301.884C659.378 311.889 665.547 321.786 672.045 331.577C680.466 344.232 690.088 355.884 700.773 366.368C708.698 373.856 717.197 380.641 726.195 386.663C736.817 393.648 748.163 399.403 760.061 403.84C776.045 409.792 792.685 413.945 809.727 416.236C830.65 418.944 851.309 418.807 871.916 419.237C882.551 418.889 893.007 420.569 902.793 424.198C907.506 426.192 911.693 429.26 915.082 433.201C918.4 437.125 920.847 441.82 922.265 446.981C926.427 461.381 923.202 473.241 914.123 483.161C908.204 489.853 900.183 494.116 891.96 498.261C881.191 503.602 870.222 508.826 859.526 514.51C845.848 521.641 833.122 530.918 821.807 542.007C817.002 546.95 812.449 552.165 808.172 557.626C804.533 562.107 801.158 566.818 798.068 571.728Z" stroke="#F2F4F6" stroke-width="1.25" stroke-linecap="round" stroke-linejoin="round"/>
<path d="M946.561 -104.679C947.331 -97.052 948.028 -89.7674 948.925 -82.3652C951.015 -66.1915 952.904 -50.1356 955.522 -33.9509C958.019 -18.7431 962.304 -4.07819 968.281 9.7075C974.006 23.2308 980.059 36.6474 985.457 50.2774C993.919 70.787 998.829 91.904 998.002 113.242C997.614 124.727 995.54 136.221 991.857 147.305C989.311 155.409 985.879 163.233 981.635 170.606C980.112 173.3 979.319 176.123 977.596 178.7C973.21 185.992 968.622 193.166 963.908 200.565C960.209 206.167 956.382 211.994 952.884 217.715C947.535 226.236 942.387 234.875 937.314 243.857C934.09 250.037 931.468 256.571 928.645 262.987C926.33 268.504 923.814 273.904 921.626 279.198C919.692 284.042 917.958 289.004 916.15 293.623C914.649 297.227 913.549 301.066 911.847 304.552C908.625 311.987 904.978 319.234 900.928 326.247C888.529 346.776 870.52 361.622 845.928 368.72C830.732 373.116 815.118 374.41 799.938 372.531C789.317 371.379 779.055 368.484 769.505 363.945C764.483 361.844 759.62 359.39 754.944 356.598C743.966 349.605 734.153 340.826 725.824 330.546C712.786 314.826 704.186 296.926 695.587 279.026C686.988 261.126 678.569 242.435 665.785 226.266C660.206 219.106 654.099 211.936 648.066 205.108C636.476 192.031 624.632 179.402 614.732 165.224C607.38 154.901 601.187 143.648 596.265 131.67C591.29 119.184 586.895 106.143 581.92 93.6576C577.219 81.6324 572.719 69.7249 564.869 58.5427C558.976 49.9236 551.418 42.8029 542.644 37.6045C533.871 32.4061 524.062 29.2363 513.801 28.2841C505.117 27.5309 496.328 27.5758 487.531 28.4179C479.35 29.0108 471.172 30.2064 463.056 31.9965C451.822 34.3748 441.064 37.331 429.904 40.0516C425.899 40.9904 422.095 42.0469 418.216 42.7612C394.439 47.9448 370.735 53.4707 346.809 57.9697C327.418 61.8009 307.911 64.2402 288.423 65.2711C266.199 66.2842 243.902 66.9552 221.879 68.0861C201.439 69.0947 181.08 74.6679 162.117 84.446C147.638 92.0955 133.783 101.007 120.255 109.813C104.254 120.156 88.3806 130.276 72.7814 140.855C66.4249 145.068 60.6244 150.231 55.5753 156.172C48.1222 165.019 43.6328 176.15 42.8998 187.6C41.6264 203.427 42.0355 219.212 44.1187 234.653C46.6092 256.742 49.0998 278.83 52.1187 300.93C54.0187 314.601 56.447 328.283 59.4038 341.975C61.9744 354.154 66.8603 365.459 73.7707 375.217C77.8833 380.918 82.9017 385.781 88.6261 389.612C99.8165 397.034 112.651 401.497 126.16 402.663C144.167 404.856 162.099 406.707 180.233 408.676C198.037 410.746 215.436 414.84 232.139 420.89C244.05 425.491 255.346 431.516 265.825 438.859C278.334 447.436 289.472 457.998 298.896 470.219C307.81 481.272 315.586 493.346 322.108 506.258C329.838 521.691 335.548 538.309 339.093 555.684C339.455 556.932 357.744 648 388.883 678.977C402.878 695.233 437.417 736.043 463.611 769.227C496.354 810.707 566.161 867.065 618.987 888.533C671.812 910.001 684.303 912.697 684.303 912.697" stroke="#F2F4F6" stroke-width="1.25" stroke-linecap="round" stroke-linejoin="round"/>
<path d="M978.755 -85.4866C979.028 -65.7012 981.36 -46.1855 985.71 -27.2959C988.891 -14.35 993.178 -1.82923 998.523 10.116C1003.68 21.8099 1008.18 33.7176 1013.13 45.2938C1019.24 60.0375 1023.4 75.7494 1025.5 92.011C1027.82 108.965 1026.9 126.517 1022.8 143.639C1020.67 151.66 1018.55 159.68 1016.02 167.466C1014.16 172.652 1011.5 177.367 1009.23 182.318C1007.4 186.029 1005.65 190.082 1003.62 193.674C1000.7 198.839 997.584 203.885 994.265 208.814C991.02 214.085 987.447 219.463 983.801 224.498C976.785 234.477 970.429 244.937 964.785 255.794C961.688 261.75 959.193 268.059 956.497 274.25C949.912 289.221 946.39 305.391 942.267 321.208C940.342 329.346 938.216 337.367 935.563 345.377C931.557 358.264 923.16 369.4 912.119 376.466C900.903 383.265 888.982 388.444 876.695 391.857C859.535 397.025 841.967 399.604 824.522 399.516C803.466 400.021 782.834 396.236 763.729 388.365C758.329 386.094 752.929 383.823 747.583 380.985C742.11 378.223 736.815 375.117 731.722 371.681C724.936 366.513 718.459 360.917 712.323 354.919C700.259 342.92 689.903 329.102 681.536 313.838L657.575 271.082C649.012 256.156 639.237 242.122 628.352 229.124C618.568 217.107 608.383 204.854 599.255 192.622C589.608 179.708 581.727 165.332 575.822 149.877C570.826 136.483 566.157 122.981 561.361 109.704C557.975 99.5258 553.752 89.747 548.738 80.4753C542.71 69.766 534.021 61.1639 523.538 55.5273C518.099 52.6841 512.194 50.835 506.05 50.0509C493.026 47.8787 479.563 48.1741 466.263 50.9245C456.467 52.6513 446.797 54.1535 437.276 56.3403C421.709 59.7641 406.291 63.8726 390.798 67.6387C386.465 68.6843 381.805 69.8367 377.271 70.7645C369.916 72.4285 362.561 74.0926 355.333 75.5321C344.627 77.9214 333.795 80.5351 322.815 82.4643C306.773 85.3102 290.456 87.6961 274.341 90.1997C262.103 91.9891 249.792 93.4363 237.629 95.568C227.632 97.177 217.634 98.7859 207.785 101.079C193.862 104.405 180.25 109.579 167.277 116.478C158.474 121.179 149.871 125.997 141.416 131.501C125.692 141.202 111.014 152.879 97.725 166.257C90.2752 174.028 84.089 183.056 79.4603 192.911C74.8559 203.498 72.285 214.816 71.9099 226.15C71.0435 241.733 71.6893 257.239 73.8366 272.422C75.6907 285.352 78.2114 298.108 81.3868 310.633C84.0977 321.197 88.1474 331.213 93.4293 340.418C98.4659 349.178 105.544 356.307 114.043 361.181C125.052 367.583 137.227 371.686 149.971 373.29C162.894 375.491 175.871 377.124 188.721 378.983C204.547 380.971 220.178 383.953 235.534 387.911C245.862 390.591 255.902 394.181 265.554 398.647C274.207 402.878 282.45 407.914 290.195 413.7C305.315 425.262 317.001 439.591 327.777 454.582C339.381 470.639 349.214 488.136 357.105 506.765C364.114 523.181 368.959 540.702 371.511 558.864C376.862 593.808 376.374 630.635 399.332 660.081C407.376 670.916 430.892 701.821 460.605 738.769C497.747 784.954 576.551 835.66 619.171 845.292C653.267 852.997 693.224 853.105 708.941 852.196" stroke="#F2F4F6" stroke-width="1.25" stroke-linecap="round" stroke-linejoin="round"/>
<path d="M960.288 -96.3218C961.775 -80.5015 963.389 -64.9059 965.078 -48.9677C967.348 -30.3974 971.936 -12.4268 978.723 4.47823C983.497 16.8458 989.456 29.0109 994.558 41.2717C1002.45 59.9518 1008.43 78.7057 1010 98.1628C1011.85 122.525 1007.02 147.507 996.081 170.117C991.842 178.094 987.931 185.964 983.291 193.705C979.993 199.543 976.219 204.803 972.52 210.405C969.074 215.559 965.554 220.37 962.51 225.759C956.781 234.954 951.253 244.266 946.052 253.473C943.269 258.958 940.798 264.597 938.652 270.357C935.957 276.548 933.462 282.858 930.967 289.167C928.979 294.578 927.066 300.331 924.877 305.624C922.689 310.917 920.902 316.446 918.513 321.622C915.744 327.471 912.647 333.426 909.476 339.04C903.236 349.471 894.771 358.275 884.849 364.652C871.269 374.024 855.29 379.598 838.392 382.539C821.626 385.368 804.764 384.901 788.651 381.161C779.214 378.978 770.043 375.898 761.24 371.956C743.877 363.798 728.565 351.763 716.26 336.599C703.898 321.575 695.267 305.151 686.763 288.503C680.128 275.642 673.494 262.781 666.405 250.251C658.888 237.775 650.221 226.184 640.52 215.634C629.806 203.37 618.839 191.554 609.489 178.296C600.598 166.056 593.217 152.591 587.504 138.194C583.5 127.773 579.825 117.246 575.948 106.601C571.374 94.3516 567.128 81.995 560.388 70.268C555.436 61.5002 548.766 54.058 540.79 48.4014C532.813 42.7449 523.699 38.9942 514.012 37.3811C501.782 35.5232 489.219 35.6056 476.719 37.6256C469.29 38.9473 461.713 39.5843 454.358 41.2484C439.446 44.4587 424.683 48.3538 410.047 52.0242L397.376 55.0539C374.581 59.9173 352.188 65.0162 329.245 69.1949C305.714 73.3941 282.086 76.2006 258.473 77.6011C238.965 79.0116 219.658 80.5399 200.943 84.8068C188.074 87.7921 175.475 92.4515 163.436 98.6777C155.869 102.609 148.577 107.001 141.285 111.393C125.054 121.255 109.301 132.078 94.1067 143.804C86.481 149.571 79.3756 156.123 72.9052 163.354C68.089 169.2 64.1784 175.803 61.3415 182.878C53.9627 200.672 54.2768 219.989 55.6476 239.328C56.5119 253.886 58.0311 268.23 60.079 282.586C62.4226 298.31 64.9672 314.153 68.6952 329.793C71.1379 341.227 75.6404 351.884 81.9629 361.194C85.6645 366.674 90.1833 371.442 95.3603 375.332C105.916 383.617 118.279 387.283 131.002 389.365C148.026 391.879 165.103 393.825 182.053 395.996C198.805 397.983 215.267 401.442 231.275 406.338C240.323 409.398 249.138 413.072 257.671 417.339C272.957 425.205 286.771 435.731 298.594 448.522C314.916 465.852 328.29 486.115 338.202 508.529C359.953 556.924 357.336 627.105 394.373 669.857C431.409 712.609 450.118 742.297 480.894 777.004C495.702 793.702 555.191 842.209 618.395 862.423C668.959 878.594 681.469 880.608 699.99 883.488" stroke="#F2F4F6" stroke-width="1.25" stroke-linecap="round" stroke-linejoin="round"/>
<path d="M688.197 762.883C691.071 761.58 694.147 760.394 697.021 759.091C704.535 755.726 712.049 752.362 719.362 748.879C725.618 746.092 731.035 741.31 734.825 735.23C737.223 730.636 738.77 725.646 739.371 720.558C740.545 711.381 740.864 702.301 741.51 693.113C742.804 664.187 747.892 635.271 756.624 607.212C758.538 601.459 760.451 595.705 762.766 590.188C765.768 582.98 769.172 576.009 772.376 568.919C774.193 564.442 776.44 560.148 779.077 556.11C783.411 549.384 788.674 542.906 793.209 536.298C799.554 527.623 806.618 519.554 814.305 512.203C818.882 507.414 824.008 503.545 828.785 498.874C836.796 491.316 844.882 484.102 852.291 476.191C857.121 470.953 860.546 464.891 859.173 456.91C858.235 451.659 855.444 447.139 851.355 444.252C844.762 438.889 836.995 437.023 829.355 434.933C814.276 430.87 799.217 427.716 784.011 423.877C769.79 420.541 755.949 415.921 742.631 410.065C736.429 407.323 730.152 404.238 724.076 401.272C719.733 399.023 715.063 396.881 710.773 394.065C699.21 386.65 688.423 378.019 678.556 368.289C670.717 360.401 663.458 351.958 656.527 343.407C643.141 326.884 632.354 308.598 620.204 291.306C609.279 275.629 597.573 260.391 585.994 244.928C571.688 225.773 558.492 206.074 549.154 184.751C543.46 171.898 538.439 158.674 534.112 145.134C531.683 137.132 529.253 129.13 526.496 121.234C522.98 110.536 517.992 100.562 511.685 91.6186C504.823 82.3309 495.198 75.8471 484.191 73.0975C473.076 70.254 461.415 69.5877 449.752 71.1295C430.117 72.7646 411.349 77.5984 392.559 81.523C381.326 83.9012 370.24 86.9641 359.08 89.6847C346.938 92.7256 334.595 95.6489 322.325 98.9144C292.925 106.48 262.754 112.098 232.932 118.518C215.621 121.905 198.55 127.223 182.005 134.381C163.734 142.278 146.551 153.198 131.127 166.716C124.842 172.019 119.208 178.171 114.386 184.996C112.282 188.246 109.577 191.143 107.674 194.511C99.479 209.141 95.4215 225.723 96.0317 242.091C96.3162 251.711 97.7095 261.162 100.18 270.235C103.107 280.752 107.541 290.609 113.333 299.475C117.888 306.245 123.584 312.015 130.164 316.524C142.78 325.42 156.929 329.237 171.459 332.38C189.135 335.797 207.039 338.218 225.099 339.633C235.159 340.751 245.346 341.645 255.607 342.882C266.707 344.038 277.521 346.667 287.804 350.71C299.438 355.592 309.53 363.566 317.189 373.928C326.719 386.394 333.501 399.94 340.611 413.378C349.591 430.604 358.444 448.055 366.969 465.613C417.497 569.672 383.926 590.81 421.892 643.816" stroke="#F2F4F6" stroke-width="1.25" stroke-linecap="round" stroke-linejoin="round"/>
<path d="M927.585 -114.616C928.514 -108.69 929.644 -102.646 930.446 -96.4956C933.053 -77.9257 935.259 -59.5914 937.866 -41.0214C941.658 -15.7314 948.797 8.58185 959.075 31.2116C966.047 47.2599 972.819 63.1904 977.096 79.7505C979.546 89.1761 980.729 99.0255 980.61 109.017C980.574 118.433 979.19 127.903 976.506 137.102C974.015 146.528 970.385 155.658 965.712 164.253C958.281 176.934 950.322 189.603 942.891 202.284C936.295 213.96 929.9 225.754 923.706 237.666C920.735 243.397 917.966 249.246 915.397 255.213C911.76 263.543 908.726 272.226 905.29 280.674C902.235 288.448 898.979 296.104 895.195 303.75C892.102 309.613 888.707 315.308 885.027 320.804C881.255 326.672 876.727 331.976 871.593 336.54C860.42 346.907 847.053 354.05 832.923 357.202C822.7 359.701 812.292 360.367 802.139 359.173C795.289 358.213 788.565 356.667 782.03 354.55C774.724 352.445 767.856 349.122 761.668 344.697C756.905 341.549 752.349 338.078 748.027 334.303C736.734 324.3 727.471 311.971 720.716 297.952C713.163 282.459 706.264 266.753 699.039 251.154C691.993 235.915 683.013 221.901 672.33 209.476C662.293 197.908 651.474 186.777 641.109 175.316C633.385 166.926 626.374 157.813 620.147 148.07C611.381 133.542 604.037 118.02 598.217 101.722C594.287 91.6439 591.086 81.6945 586.702 71.9477C581.562 59.2104 574.108 47.8361 564.738 38.4344C557.101 30.9685 548.015 25.3334 538.015 21.8604C526.075 17.8732 513.378 16.2997 500.544 17.2166C484.046 18.3584 467.56 21.0939 451.287 25.3899C435.34 29.4873 419.319 33.2426 403.098 36.88C388.715 40.1013 374.184 42.6377 359.653 45.1744C348.145 47.0926 336.235 48.7751 324.579 50.0087C306.234 52.0875 287.88 52.6163 269.691 51.59C254.749 50.5968 239.933 49.3789 225.065 48.728C211.174 47.5518 197.036 48.5193 183.08 51.6009C168.243 55.1535 155.676 62.729 143.311 70.4225C131.401 77.7847 120.367 85.9606 108.657 93.4406C94.822 102.277 80.1509 109.334 64.9782 114.453C22.5893 123.947 6.20686 155.908 11.9481 188.876C15.4014 204.055 19.0555 219.353 21.5259 234.853C25.1681 258.215 27.9544 281.674 31.269 305.143C33.169 318.813 35.3963 332.377 37.8247 346.059C39.8717 357.815 43.9301 368.906 49.8035 378.796C54.2936 386.388 60.1033 392.936 66.9516 398.124C77.4333 406.067 89.0675 409.604 101.135 411.9C117.049 414.958 133.228 415.182 149.301 416.54C170.005 417.635 190.307 421.415 209.767 427.797C217.19 430.255 224.334 433.445 231.112 437.33C236.131 440.274 241.605 442.888 246.37 446.281C252.769 450.843 258.88 455.825 264.671 461.203C277.571 473.709 288.343 488.506 296.578 505.034C329.479 566.355 329.988 634.019 384.015 687.032C397.167 701.688 427.22 735.976 442.221 755.875C460.972 780.748 530.061 865.287 598.298 899.165C652.887 926.267 673.106 933.827 676.392 934.218" stroke="#F2F4F6" stroke-width="1.25" stroke-linecap="round" stroke-linejoin="round"/>
<path d="M677.786 726.879C635.815 760.85 624.862 753.728 592.311 755.107C544.193 757.146 534.596 759.995 482.101 709.236C429.605 658.478 415.015 582.587 414.731 573.153C414.285 559.694 412.874 546.374 410.511 533.308C407.079 513.358 400.425 493.908 392.914 474.554C386.745 458.977 379.52 443.378 373.678 427.694C367.129 409.969 361.508 391.802 356.842 373.273C354.346 362.527 350.652 352.232 345.835 342.6C340.598 332.475 332.709 324.329 323.045 319.066C317.761 316.285 312.182 314.113 306.392 312.584C296.484 310.169 286.239 309.077 275.883 309.335C255.224 309.472 234.438 309.834 213.63 309.286C195.944 308.87 178.729 305.048 162.803 298.003C152.037 293.527 142.685 286.193 135.574 276.647C130.032 269.167 126.159 260.371 124.217 250.852C122.327 242.46 122.144 233.594 123.682 224.828C125.298 215.352 129.134 206.281 134.825 198.48C138.545 193.787 142.192 188.751 146.314 184.294C159.007 170.814 174.881 160.694 192.129 152.875C212.387 143.359 234.243 138.031 256.431 132.622L256.815 132.529C261.93 131.045 267.193 130.246 272.308 128.762C287.264 124.987 302.02 121.094 316.775 117.201L316.799 117.195C326.574 114.559 336.35 111.924 346.326 109.406C361.089 105.511 375.853 101.616 390.891 98.1809C401.395 95.6738 412.449 94.0869 423.302 92.3822C436.325 89.9474 449.461 89.6847 462.232 91.6038C468.303 92.6571 474.174 94.4959 479.721 97.0806C485.601 100.09 490.683 104.501 494.608 110C501.072 118.885 506.033 128.966 509.293 139.84C513.264 151.736 516.454 164.071 520.299 176.192C523.003 184.654 526.235 193.127 529.266 201.483C538.687 227.462 552.123 251.296 569.053 272.059C576.859 281.421 584.539 291.008 592.219 300.594L592.223 300.599C601.531 312.039 610.713 323.703 620.222 335.261C628.706 345.321 637.264 355.722 646.076 365.675C655.154 376.06 665.065 385.574 675.713 394.123C682.533 399.626 689.658 404.705 697.057 409.336C708.231 416.539 719.866 422.965 731.895 428.578C736.893 430.613 741.511 433.322 746.382 435.582C752.658 438.666 759.316 441.077 765.465 444.386C771.615 447.695 777.511 451.453 783.281 455.435C792.737 461.88 796.498 470.365 795.091 480.899C793.949 488.6 790.598 495.005 787.321 501.752C784.805 507.152 780.958 512.07 778.04 517.234C771.518 529.252 764.87 541.495 758.348 553.514C757.079 555.759 756.085 558.464 754.891 561.052C752.195 567.243 749.827 573.328 747.332 579.637C745.524 584.257 743.389 588.983 741.782 593.72C738.388 603.987 735.068 614.595 731.675 624.861C727.234 638.399 722.995 652.056 718.353 665.476C715.162 674.573 711.535 683.522 707.486 692.285C704.662 697.75 701.231 702.869 697.275 707.52C691.101 714.336 677.786 726.879 677.786 726.879Z" stroke="#F2F4F6" stroke-width="1.25" stroke-linecap="round" stroke-linejoin="round"/>
<path d="M725.334 576.011C723.906 579.957 722.68 584.021 721.253 587.967C697.47 659.47 616.948 752.039 533.128 731.544C491.761 721.43 435.425 654.555 434.926 587.106C434.632 574.377 434.138 561.531 433.315 548.791C431.745 528.358 427.736 508.427 421.383 489.475C418.257 479.868 414.401 470.132 411.275 460.525C406.585 446.114 401.895 431.704 397.734 417.305C392.506 399.589 391.304 381.843 390.43 363.991C390.238 351.455 388.912 339.065 386.472 326.991C383.698 315.733 378.318 305.598 370.805 297.471C362.418 288.67 352.2 282.064 340.849 278.103C327.679 273.311 313.76 270.686 299.542 270.313C286.661 269.93 274 270.575 261.34 271.219C245.183 271.905 229.173 273.275 212.477 270.655C201.399 269.288 190.819 265.716 181.272 260.121C176.628 257.201 172.509 253.473 169.069 249.075C158.989 235.688 159.805 222.415 165.45 209.583C169.946 200.924 176.161 193.322 183.619 187.357C194.142 179.064 205.649 172.412 217.755 167.623C233.184 161.494 248.839 156.209 264.656 151.79C281.765 146.58 298.748 141.596 316.059 136.504C334.88 131.104 353.956 125.254 373.052 120.314C388.858 116.029 404.923 113.621 420.945 113.134C431.565 112.788 442.333 113.126 453.133 117.668C461.608 121 468.837 126.898 473.99 134.687C479.905 143.786 484.248 154.016 486.836 164.944C489.624 177.043 492.739 189.035 495.527 201.134C499.424 218.367 502.665 235.815 509.658 252.772C514.623 265.093 521.432 276.35 529.837 286.135C538.649 296.088 548.169 305.26 557.763 314.775C569.512 326.152 581.716 337.198 593.338 348.799C605.362 360.637 616.805 373.03 628.502 384.974C641.808 398.578 656.153 410.991 671.41 422.105C678.532 427.479 686.108 432.521 693.61 437.221C701.112 441.921 708.815 446.739 716.444 451.215C722.981 455.042 729.119 459.543 734.777 464.661C742.427 470.885 747.509 480.017 749.103 490.404C750.19 500.309 748.085 509.239 745.453 518.158C743.433 525.045 740.811 531.579 738.464 538.572C736.117 545.566 733.897 552.335 731.476 558.987C729.562 564.74 727.448 570.376 725.334 576.011Z" stroke="#F2F4F6" stroke-width="1.25" stroke-linecap="round" stroke-linejoin="round"/>
<path d="M672.345 628.625C668.408 634.664 664.084 640.42 659.407 645.849C639.537 666.992 641.697 667.67 595.961 708.478C550.225 749.285 475.574 715.243 458.829 624.739C452.019 587.932 462.868 556.682 456.319 518.932C453.036 499.667 446.857 480.795 441.206 461.935C437.763 450.049 433.992 438.271 431.278 426.514C427.994 412.897 427.037 398.572 428.453 384.199C429.612 372.345 432.458 360.605 436.89 349.388L436.99 349.151C440.084 341.803 443.079 334.687 448.433 328.955C451.183 325.945 454.462 323.553 458.048 321.942C461.633 320.331 465.441 319.539 469.21 319.62C477.475 320.076 485.491 322.049 492.913 325.453C502.632 329.613 512.085 334.361 521.231 339.675C527.582 343.101 533.626 347.544 539.596 351.644C545.967 355.98 551.885 360.647 558.129 365.208C570.933 375.193 583.109 386.03 594.593 397.661C607.145 409.509 618.915 421.795 631.721 433.194C643.65 443.78 656.087 453.468 668.524 463.155C676.419 468.956 683.85 475.414 690.754 482.475C699.119 491.105 704.53 502.537 706.231 515.172C707.856 528.382 705.709 541.174 702.96 553.612C700.012 567.757 695.662 581.644 689.987 595.029C687.164 601.445 684.543 607.979 681.319 614.159C678.623 619.167 675.624 624 672.345 628.625Z" stroke="#F2F4F6" stroke-width="1.25" stroke-linecap="round" stroke-linejoin="round"/>
<path d="M620.968 635.845C608.74 646.609 596.163 656.57 584.135 667.451C513.536 732.962 485.354 622.275 487.087 572.849C487.774 557.364 487.374 541.94 485.89 526.705C483.399 504.616 477.284 482.793 471.169 460.969C467.72 450.275 465.318 439.151 463.999 427.764C462.701 414.447 463.664 401.858 470.936 390.877C474.372 385.731 479.357 381.956 484.951 380.265C493.468 377.489 502.271 378.468 510.989 381.49C519.149 384.381 526.919 388.237 534.162 392.992C541.478 397.823 548.44 403.206 554.998 409.102C568.829 421.999 580.716 436.446 592.855 450.444C603.442 462.933 614.811 474.984 626.761 486.479C634.453 493.682 642.018 501.11 649.33 508.986C655.742 515.74 660.536 524.069 663.359 533.361C666.271 543.444 666.816 554.323 664.95 565.086C663.481 574.328 660.707 583.387 656.724 591.949C652.932 600.317 647.99 608.107 642.075 615.044C635.459 622.452 628.407 629.403 620.968 635.845Z" stroke="#F2F4F6" stroke-width="1.25" stroke-linecap="round" stroke-linejoin="round"/>
<path d="M271.534 200.65C270.74 209.153 275.104 212.311 282.162 214.957C294.748 219.65 307.872 221.968 320.816 225.078C333.761 228.188 346.051 231.511 358.869 234.845C374.149 239.026 389.175 243.656 404.709 247.388C414.536 249.865 424.3 249.614 432.427 244.218C437.39 240.961 441.182 235.937 443.061 230.127C444.617 226.047 445.824 221.851 446.666 217.593C449.175 205.384 449.068 192.947 446.354 181.237C444.817 174.314 442.001 167.889 438.062 162.322C431.856 153.909 422.896 148.335 412.745 146.572C402.67 144.796 392.253 144.847 381.919 146.724C356.863 150.859 334.3 160.044 312.434 170.833C300.92 176.193 289.966 183.024 279.83 191.167C276.653 193.605 273.972 196.733 271.988 200.318" stroke="#F2F4F6" stroke-width="1.25" stroke-linecap="round" stroke-linejoin="round"/>
</g>
<defs>
<clipPath id="clip0_631_16301">
<rect width="1184" height="877" fill="white"/>
</clipPath>
</defs>
</svg>
