<svg xmlns="http://www.w3.org/2000/svg" width="32" height="35" viewBox="0 0 32 35"><g fill="none"><path fill="#14B2E2" d="M7.861 28.5h7.278c.2 0 .361-.224.361-.5 0-.277-.161-.5-.361-.5H7.861c-.2 0-.361.224-.361.5s.161.5.361.5m.02-3h14.236c.211 0 .383-.224.383-.5s-.172-.5-.383-.5H7.881c-.21 0-.381.224-.381.5s.17.5.381.5"/><path fill="#333" d="M31.312 21.222l-2.535-1.48V3.197c0-1.484-1.23-2.698-2.734-2.698H3.233C1.73.5.5 1.714.5 3.198v28.604c0 1.484 1.23 2.698 2.734 2.698h22.81c1.503 0 2.733-1.214 2.733-2.698V20.619l2.145 1.254a.387.387 0 00.525-.133.375.375 0 00-.135-.518zm-3.3 10.58c0 1.07-.883 1.942-1.969 1.942H3.233c-1.085 0-1.967-.871-1.967-1.942V3.198c0-1.07.882-1.942 1.968-1.942h22.81c1.085 0 1.967.872 1.967 1.942v16.096l-5.495-3.211a8.493 8.493 0 00.856-3.705c0-4.766-3.914-8.63-8.742-8.63-4.829 0-8.742 3.864-8.742 8.63 0 4.766 3.913 8.63 8.742 8.63a8.752 8.752 0 007.527-4.257l5.854 3.421v11.63zM14.63 20.252c-4.398 0-7.976-3.532-7.976-7.874 0-4.34 3.578-7.874 7.976-7.874 4.399 0 7.976 3.533 7.976 7.874 0 4.341-3.577 7.874-7.976 7.874z"/><path fill="#14B2E2" d="M18.143 14.5c-.334-.483-.853-.855-1.48-1.116a5.053 5.053 0 00-.618-.205 2.67 2.67 0 00.943-2.05c0-1.452-1.1-2.629-2.46-2.629-1.36 0-2.462 1.177-2.462 2.629 0 .827.365 1.555.928 2.035a4.607 4.607 0 00-1.245.519c-.364.223-.67.495-.892.818-.222.321-.358.7-.357 1.103v.018c0 .485.368.877.821.878h6.358c.454 0 .821-.393.821-.878v-.018a1.94 1.94 0 00-.357-1.103zm-5.338-3.371c.001-1.016.77-1.839 1.722-1.839.951 0 1.72.823 1.722 1.839-.002 1.015-.77 1.838-1.722 1.84-.951-.002-1.72-.824-1.722-1.84zm4.956 4.494l-.083.088h-6.357l-.082-.088v-.018c0-.215.068-.423.213-.637.217-.318.619-.629 1.151-.848a4.985 4.985 0 011.896-.355c.945-.001 1.796.24 2.383.602.294.18.52.39.665.601.146.214.213.422.213.637v.018z"/></g></svg>