<svg xmlns="http://www.w3.org/2000/svg" width="38" height="32" viewBox="0 0 38 32"><g fill="none"><path fill="#333" d="M34.739.5H3.26C1.743.5.5 1.706.5 3.18v20.9c0 1.473 1.243 2.68 2.761 2.68h12.15v2.99h-3.866a.381.381 0 00-.387.375c0 .207.173.375.387.375h14.91a.381.381 0 00.387-.375.381.381 0 00-.387-.375H22.59v-2.99h12.149c1.518 0 2.761-1.207 2.761-2.68V3.18C37.5 1.705 36.257.5 34.739.5zM21.816 29.75h-5.632v-2.99h5.632v2.99zm14.91-5.67c0 1.063-.891 1.928-1.987 1.928H3.26c-1.096 0-1.987-.865-1.987-1.928V3.18c0-1.064.891-1.93 1.987-1.93h31.48c1.096 0 1.987.866 1.987 1.93v20.9z"/><path fill="#333" d="M32.406 4.5H5.594c-.602 0-1.094.488-1.094 1.086v16.828c0 .597.492 1.086 1.094 1.086h26.812c.602 0 1.094-.489 1.094-1.086V5.586c0-.598-.492-1.086-1.094-1.086zm.328 17.914a.33.33 0 01-.328.326H5.594a.33.33 0 01-.328-.326V5.586c0-.177.15-.326.328-.326h26.812c.178 0 .328.15.328.326v16.828z"/><path fill="#14B2E2" d="M22.556 15.434a9.577 9.577 0 00-1.435-.373c1.102-.628 1.838-1.735 1.839-3.004 0-1.965-1.752-3.557-3.914-3.557-2.163 0-3.914 1.592-3.915 3.557.001 1.259.726 2.357 1.813 2.988-.926.167-1.763.44-2.458.803-.59.309-1.079.682-1.43 1.115-.35.431-.557.93-.556 1.458v.025c0 .582.518 1.053 1.16 1.054h10.682c.64 0 1.158-.472 1.158-1.054v-.025c0-.528-.206-1.027-.557-1.458-.527-.649-1.363-1.165-2.387-1.53zm-5.712-1.376c-.564-.513-.912-1.218-.912-2 0-.784.348-1.49.912-2.002a3.262 3.262 0 012.202-.829c.86 0 1.638.316 2.202.829.564.513.912 1.218.912 2.001 0 .783-.349 1.488-.912 2.001-.507.46-1.183.76-1.94.817-.103-.002-.204-.012-.309-.012-.097 0-.192.006-.287.008a3.237 3.237 0 01-1.868-.813zm7.856 4.388c0 .18-.161.327-.359.327H13.66c-.197 0-.36-.146-.36-.327v-.025c0-.354.135-.696.402-1.028.4-.497 1.11-.956 2.032-1.282.922-.326 2.05-.521 3.266-.52 1.623-.002 3.087.347 4.115.886.514.27.917.584 1.185.916.266.332.4.674.401 1.028v.025z"/></g></svg>