<svg xmlns="http://www.w3.org/2000/svg" width="28" height="36" viewBox="0 0 28 36"><g fill="none"><path fill="#333" d="M25.308.5H2.692A2.703 2.703 0 000 3.198v28.604A2.703 2.703 0 002.692 34.5h22.616A2.703 2.703 0 0028 31.802V3.198A2.703 2.703 0 0025.308.5zm1.939 31.302c0 1.07-.87 1.942-1.94 1.942H2.693a1.943 1.943 0 01-1.939-1.942V3.198c0-1.07.87-1.942 1.94-1.942h22.615c1.069 0 1.939.872 1.939 1.942v28.604z"/><path d="M6.049 13.468h5.198a.372.372 0 00.368-.376.372.372 0 00-.368-.377H6.05a.372.372 0 00-.368.377c0 .208.165.376.368.376zm.052-3.77h5.146a.372.372 0 00.368-.376.372.372 0 00-.368-.377H6.101a.372.372 0 00-.368.377c0 .208.165.377.368.377zm15.337-2.166h-5.053c-.783.001-1.417.652-1.418 1.454v5.182c.002.802.635 1.453 1.418 1.454h5.053c.782-.001 1.416-.652 1.418-1.454V8.986c-.002-.802-.636-1.453-1.418-1.454zm.481 7.13a.669.669 0 01-.48.206h-5.054a.672.672 0 01-.482-.205.707.707 0 01-.2-.495V8.986c0-.193.075-.366.2-.494a.67.67 0 01.482-.206h5.053c.188 0 .356.077.481.206a.703.703 0 01.201.494v5.182a.705.705 0 01-.2.495zM9.757 17.93c-2.523.001-4.568 2.098-4.568 4.686 0 2.587 2.045 4.684 4.568 4.684 2.523 0 4.567-2.097 4.568-4.684-.001-2.588-2.046-4.685-4.568-4.686zm-2.71 1.905a3.812 3.812 0 011.43-.921l.775 3.183-3.104-.795a3.95 3.95 0 01.899-1.467zm5.42 5.56a3.768 3.768 0 01-5.42 0 3.967 3.967 0 01-1.077-3.362l3.697.947a.361.361 0 00.35-.099.383.383 0 00.096-.358l-.924-3.79a3.73 3.73 0 01.567-.049c1.06 0 2.016.44 2.71 1.151a3.968 3.968 0 011.123 2.78 3.966 3.966 0 01-1.123 2.78zm9.496-7.296a.372.372 0 00-.368.377v3.23c0 .489-.194.931-.509 1.255a1.701 1.701 0 01-1.223.522h-2.362l1.255-1.534a.384.384 0 00-.046-.53.36.36 0 00-.517.045l-1.761 2.154a.384.384 0 000 .485l1.76 2.154a.36.36 0 00.518.046.383.383 0 00.046-.53L17.5 24.237h2.362c1.36-.002 2.466-1.137 2.468-2.531v-3.23a.373.373 0 00-.368-.378z" fill="#14B2E2"/></g></svg>