<svg xmlns="http://www.w3.org/2000/svg" width="30" height="36" viewBox="0 0 30 36"><g fill="none" transform="translate(.5 .5)"><path fill="#14B2E2" d="M22.619 19.79h-7.068v-7.41a.38.38 0 10-.762 0v7.408H7.381a.38.38 0 100 .762h7.408v7.068a.381.381 0 00.762 0V20.55h7.068a.38.38 0 100-.762z"/><path fill="#333" d="M20.635 0H2.788C1.255 0 0 1.214 0 2.698v28.604C0 32.786 1.255 34 2.788 34h23.424C27.745 34 29 32.786 29 31.302V8.095L20.635 0zm7.584 8.408v.003h-6.071c-.506 0-.964-.2-1.3-.523a1.744 1.744 0 01-.54-1.258V.756h.003l7.908 7.652zm-2.007 24.837H2.788c-1.107 0-2.007-.872-2.007-1.943V2.698c0-1.07.9-1.942 2.007-1.942h16.74V6.63c.002 1.398 1.176 2.535 2.62 2.537h6.071v22.135c0 1.07-.9 1.943-2.007 1.943z"/><circle cx="10" cy="16" r="1" fill="#14B2E2"/><circle cx="11" cy="23" r="1" fill="#14B2E2"/><circle cx="19" cy="25" r="1" fill="#14B2E2"/><circle cx="19" cy="16" r="1" fill="#14B2E2"/></g></svg>