<svg xmlns="http://www.w3.org/2000/svg" width="32" height="36" viewBox="0 0 32 36"><g fill="none"><path fill="#333" d="M28.821.5H7.393C5.92.5 4.714 1.714 4.714 3.198v.54H4.18c-1.475 0-2.68 1.214-2.68 2.699v25.365c0 1.484 1.205 2.698 2.679 2.698h21.428c1.474 0 2.679-1.214 2.679-2.698v-.54h.535c1.474 0 2.679-1.214 2.679-2.699V3.198C31.5 1.714 30.295.5 28.821.5zm-1.285 31.302a1.937 1.937 0 01-1.929 1.942H4.18a1.937 1.937 0 01-1.929-1.942V6.437c0-1.071.865-1.943 1.929-1.943h21.428c1.064 0 1.929.872 1.929 1.943v25.365zm3.214-3.239a1.938 1.938 0 01-1.929 1.943h-.535V6.436c0-1.484-1.205-2.698-2.679-2.698H5.465v-.54c0-1.07.864-1.942 1.928-1.942H28.82c1.064 0 1.929.872 1.929 1.942v25.365z"/><path fill="#14B2E2" d="M22.368 23.596a.367.367 0 00-.534.042l-3.032 3.688-3.023-2.068a.368.368 0 00-.456.032l-3.574 3.24-3.043-1.058a.368.368 0 00-.357.066l-2.707 2.258a.408.408 0 00-.06.556.37.37 0 00.534.061l2.546-2.124 3.053 1.062a.37.37 0 00.368-.077l3.52-3.19 3.062 2.093c.16.11.371.078.495-.074l3.249-3.95a.406.406 0 00-.041-.557zm-1.059-9.862l-2.522-3.622a1.449 1.449 0 00-.506-.437 1.365 1.365 0 00-.629-.175H11.35a1.361 1.361 0 00-.628.175c-.194.106-.37.245-.507.437l-2.522 3.622c-.134.193-.192.42-.192.64 0 .26.08.525.26.734l6.114 7.095a.828.828 0 00.626.297c.23 0 .46-.104.627-.297l6.114-7.095c.18-.21.259-.474.259-.735 0-.22-.057-.445-.191-.64zm-.714.294h-5.206l2.974-3.204 2.232 3.204zm-2.942-3.735a.56.56 0 01.14.025L14.5 13.864l-3.291-3.546a.51.51 0 01.14-.025h6.303zm-7.015.53l2.975 3.205H8.408l2.23-3.205zm-2.123 3.998h5.618v6.519l-5.618-6.52zm6.354 6.518V14.82h5.618l-5.618 6.518z"/></g></svg>