<svg xmlns="http://www.w3.org/2000/svg" width="30" height="30" viewBox="0 0 30 30"><path d="M26.178 21.149a3 3 0 013 3v1.678a3 3 0 01-3 3H24.5a3 3 0 01-3-3V24.15a3 3 0 013-3h1.678zm0 1H24.5a2 2 0 00-1.995 1.85l-.005.15v1.678a2 2 0 001.85 1.995l.15.005h1.678a2 2 0 001.994-1.85l.006-.15V24.15a2 2 0 00-1.85-1.995l-.15-.005zm-10.75-1a3 3 0 013 3v1.678a3 3 0 01-3 3H13.75a3 3 0 01-3-3V24.15a3 3 0 013-3h1.678zm0 1H13.75a2 2 0 00-1.995 1.85l-.005.15v1.678a2 2 0 001.85 1.995l.15.005h1.678a2 2 0 001.995-1.85l.005-.15V24.15a2 2 0 00-1.85-1.995l-.15-.005zm-10.75-1a3 3 0 013 3v1.678a3 3 0 01-3 3H3a3 3 0 01-3-3V24.15a3 3 0 013-3h1.678zm0 1H3a2 2 0 00-1.995 1.85L1 24.15v1.678a2 2 0 001.85 1.995l.15.005h1.678a2 2 0 001.995-1.85l.005-.15V24.15a2 2 0 00-1.85-1.995l-.15-.005zm21.5-11.366a3 3 0 013 3v1.678a3 3 0 01-3 3H24.5a3 3 0 01-3-3v-1.678a3 3 0 013-3h1.678zm0 1H24.5a2 2 0 00-1.995 1.85l-.005.15v1.678a2 2 0 001.85 1.995l.15.005h1.678a2 2 0 001.994-1.85l.006-.15v-1.678a2 2 0 00-1.85-1.995l-.15-.005zm-10.75-1a3 3 0 013 3v1.678a3 3 0 01-3 3H13.75a3 3 0 01-3-3v-1.678a3 3 0 013-3h1.678zm0 1H13.75a2 2 0 00-1.995 1.85l-.005.15v1.678a2 2 0 001.85 1.995l.15.005h1.678a2 2 0 001.995-1.85l.005-.15v-1.678a2 2 0 00-1.85-1.995l-.15-.005zm-10.75-1a3 3 0 013 3v1.678a3 3 0 01-3 3H3a3 3 0 01-3-3v-1.678a3 3 0 013-3h1.678zm0 1H3a2 2 0 00-1.995 1.85l-.005.15v1.678a2 2 0 001.85 1.995l.15.005h1.678a2 2 0 001.995-1.85l.005-.15v-1.678a2 2 0 00-1.85-1.995l-.15-.005zM26.178.417a3 3 0 013 3v1.678a3 3 0 01-3 3H24.5a3 3 0 01-3-3V3.417a3 3 0 013-3h1.678zm0 1H24.5a2 2 0 00-1.995 1.85l-.005.15v1.678a2 2 0 001.85 1.995l.15.005h1.678a2 2 0 001.994-1.85l.006-.15V3.417a2 2 0 00-1.85-1.995l-.15-.005zm-10.75-1a3 3 0 013 3v1.678a3 3 0 01-3 3H13.75a3 3 0 01-3-3V3.417a3 3 0 013-3h1.678zm0 1H13.75a2 2 0 00-1.995 1.85l-.005.15v1.678A2 2 0 0013.6 7.09l.15.005h1.678a2 2 0 001.995-1.85l.005-.15V3.417a2 2 0 00-1.85-1.995l-.15-.005zm-10.75-1a3 3 0 013 3v1.678a3 3 0 01-3 3H3a3 3 0 01-3-3V3.417a3 3 0 013-3h1.678zm0 1H3a2 2 0 00-1.995 1.85L1 3.418v1.678A2 2 0 002.85 7.09l.15.005h1.678a2 2 0 001.995-1.85l.005-.15V3.417a2 2 0 00-1.85-1.995l-.15-.005z" fill="#333"/></svg>