<svg xmlns="http://www.w3.org/2000/svg" width="30" height="34" viewBox="0 0 30 34"><g fill="none"><path fill="#000" d="M28 32.007s-.04-.314-.4-.314c-.36 0-.4.314-.4.314v.707H3.6c-1.88 0-2.84-.825-2.84-2.435L.8 5.175c.16.157.32.314.52.432.64.354 1.28.393 2 .393h23.84l.04 11.746s0 .393.4.393.4-.393.4-.393V.5H2.88C1.32.5 0 1.679 0 3.25v27.225C0 32.321 1.28 33.5 3.6 33.5H28v-1.493zM3 1.286h24.2v3.928H2.92c-1 0-1.88-.589-2.08-1.532C.8 3.564.8 3.407.8 3.33v-.08C.8 2.032 1.84 1.286 3 1.286z"/><path fill="#14B2E2" d="M29.555 27.208l-3.668-3.988c.319-.194.678-.31.957-.387l1.834-.465c.28-.078.479-.155.678-.31.16-.155.319-.348.319-.62a.909.909 0 00-.2-.542c-.12-.155-.318-.27-.518-.387l-12.322-6.777c-.28-.155-.518-.232-.798-.232-.239 0-.478.077-.638.271-.16.194-.199.387-.199.62 0 .155.04.31.08.503l3.948 14.134c.08.272.16.465.319.659.16.155.359.31.638.31a.97.97 0 00.558-.194c.16-.116.28-.271.399-.503l1.276-2.169c.2-.31.478-.736.758-1.123l3.549 3.834c.398.426.957.658 1.475.658.479 0 .957-.155 1.316-.503.439-.388.678-.891.678-1.433a1.81 1.81 0 00-.439-1.356zm-.678 2.169c-.239.194-.518.31-.797.31-.32 0-.678-.116-.917-.387l-3.868-4.183a.46.46 0 00-.32-.116.338.338 0 00-.279.155 22.037 22.037 0 00-1.076 1.588l-1.276 2.168c-.08.155-.16.233-.24.271l-.08.04-.08-.078a1.288 1.288 0 01-.119-.31L15.877 14.7c-.04-.154-.04-.27-.04-.348v-.155h.04c.04 0 .2.039.4.155l12.242 6.777c.159.077.239.155.279.232l.04.077-.08.078c-.08.039-.16.077-.32.116l-1.834.465c-.518.116-1.036.387-1.555.697-.08.077-.16.155-.16.27 0 .117 0 .233.08.31l3.988 4.338c.2.232.32.503.32.774 0 .31-.16.659-.4.891zM13.876 12.384c.14-.136.175-.453.035-.635L12.615 9.66c-.105-.182-.35-.227-.49-.045-.14.136-.176.453-.036.635l1.296 2.088c.14.182.35.227.49.045zm-1.192 3.77c.194-.035.349-.205.31-.376a.382.382 0 00-.427-.273l-2.25.341c-.195.035-.35.205-.311.376.039.17.233.307.427.273l2.25-.341zm5.412-7.406l-1.06 2.201c-.095.2 0 .44.242.52.24.08.53 0 .626-.2l1.06-2.2c.095-.2 0-.441-.242-.521-.24-.12-.53 0-.626.2z"/></g></svg>