<svg xmlns="http://www.w3.org/2000/svg" width="32" height="38" viewBox="0 0 32 38"><g fill="none"><path fill="#333" d="M28.78.5H9.747a2.731 2.731 0 00-2.72 2.727v.546h-.544A2.731 2.731 0 003.763 6.5v.545H3.22A2.731 2.731 0 00.5 9.773v24c0 1.5 1.224 2.727 2.72 2.727h19.034a2.731 2.731 0 002.72-2.727v-.546h.544a2.731 2.731 0 002.719-2.727v-.545h.544a2.731 2.731 0 002.719-2.728v-24C31.5 1.727 30.276.5 28.78.5zm-4.568 33.273a1.963 1.963 0 01-1.958 1.963H3.22c-1.08 0-1.957-.88-1.957-1.963v-24c0-1.082.878-1.964 1.957-1.964h19.035c1.08 0 1.958.882 1.958 1.964v24zm3.263-3.273a1.963 1.963 0 01-1.957 1.964h-.544V9.773c0-1.5-1.224-2.728-2.72-2.728H4.524V6.5c0-1.082.879-1.964 1.958-1.964h19.036c1.08 0 1.957.882 1.957 1.964v24zm3.263-3.273a1.963 1.963 0 01-1.957 1.964h-.544V6.5c0-1.5-1.224-2.727-2.72-2.727H7.789v-.546c0-1.082.878-1.963 1.958-1.963H28.78c1.08 0 1.957.88 1.957 1.963v24z"/><path fill="#14B2E2" d="M19.122 22.443l-6.44-.008a.37.37 0 00-.283.133.408.408 0 00-.093.31c.044.406.122.8.22 1.183a1.915 1.915 0 01-1.285-.595A2.117 2.117 0 0110.663 22c0-.573.22-1.089.578-1.465.358-.376.85-.607 1.394-.607.54 0 1.027.227 1.383.596.073.075.17.116.272.114a.37.37 0 00.267-.122l3.055-3.338a.414.414 0 00-.01-.561c-1.283-1.31-3.038-2.117-4.967-2.117-3.94 0-7.135 3.358-7.135 7.5 0 4.142 3.194 7.5 7.135 7.5 1.18 0 2.296-.305 3.278-.84.944.535 2.03.84 3.209.84.1 0 .197-.043.267-.116a.413.413 0 00.111-.282v-6.261a.388.388 0 00-.378-.398zm-.38 6.243a5.73 5.73 0 01-3.732-1.683c-.966-.964-1.633-2.279-1.885-3.772l5.618.007v5.448zm-6.107.019c-1.763 0-3.355-.75-4.51-1.964a6.855 6.855 0 01-1.868-4.74c0-1.854.713-3.527 1.868-4.742 1.155-1.214 2.747-1.963 4.51-1.963 1.591 0 3.04.616 4.158 1.629l-2.541 2.777a2.62 2.62 0 00-1.617-.57c-1.506.001-2.728 1.285-2.729 2.868.001 1.584 1.223 2.868 2.73 2.869.045 0 .088-.01.133-.013a7.48 7.48 0 001.72 2.724c.208.208.434.397.667.576a6.094 6.094 0 01-2.52.549z"/></g></svg>