<svg xmlns="http://www.w3.org/2000/svg" width="38" height="28" viewBox="0 0 38 28"><g fill="none"><path fill="#333" d="M34.773 3.843H22.227c-1.091 0-1.091 0-1.632-.953l-1.1-1.937C19.199.43 18.465 0 17.865 0H4.772c-.6 0-1.334.429-1.632.953L2.04 2.89c-.297.524-.54 1.447-.54 2.051v20.314C1.5 26.765 2.727 28 4.227 28h30.546c1.5 0 2.727-1.235 2.727-2.745V6.588c0-1.51-1.227-2.745-2.727-2.745zm1.964 21.412c0 1.09-.882 1.976-1.964 1.976H4.227a1.972 1.972 0 01-1.964-1.976V4.94c0-.468.21-1.265.44-1.67l1.1-1.936c.163-.286.643-.566.969-.566h13.092c.326 0 .807.28.969.566l1.1 1.936c.675 1.19.932 1.34 2.294 1.34h12.546c1.082 0 1.964.888 1.964 1.977v18.667z"/><path fill="#14B2E2" d="M19.5 9c-3.868 0-7 3.134-7 7s3.132 7 7 7a7 7 0 007-7 7 7 0 00-7-7zm0 13.247A6.253 6.253 0 0113.253 16a6.253 6.253 0 016.245-6.246A6.254 6.254 0 0125.746 16a6.254 6.254 0 01-6.247 6.247z"/><path fill="#14B2E2" d="M21.914 14.639l-3.992-2.418c-.248-.15-.482-.221-.685-.221-.439 0-.737.33-.737.913v5.174c0 .583.298.913.737.913.203 0 .437-.07.685-.221l3.992-2.418c.781-.473.781-1.248 0-1.722zm-.442 1.12l-3.993 2.417a.953.953 0 01-.164.081.749.749 0 01-.017-.17v-5.174c0-.074.008-.13.017-.169.041.014.097.04.164.081l3.993 2.417c.17.104.23.204.23.259.001.054-.06.154-.23.258z"/></g></svg>