<svg width="45" height="45" viewBox="0 0 45 45" fill="none" xmlns="http://www.w3.org/2000/svg">
<path d="M14.8965 31.793H7.70703C6.95703 31.793 6.31836 31.5293 5.79102 31.002C5.26367 30.4746 5 29.8418 5 29.1035V7.5C5 6.75 5.26367 6.11133 5.79102 5.58398C6.31836 5.05664 6.95703 4.79297 7.70703 4.79297H32.8965C33.6465 4.79297 34.2852 5.05664 34.8125 5.58398C35.3398 6.11133 35.6035 6.75 35.6035 7.5V20.1035C35.6035 20.3496 35.5156 20.5605 35.3398 20.7363C35.1641 20.9121 34.9531 21 34.707 21C34.4492 21 34.2324 20.9121 34.0566 20.7363C33.8809 20.5605 33.793 20.3496 33.793 20.1035V7.5C33.793 7.25391 33.7051 7.04297 33.5293 6.86719C33.3535 6.69141 33.1426 6.60352 32.8965 6.60352H7.70703C7.44922 6.60352 7.23242 6.69141 7.05664 6.86719C6.88086 7.04297 6.79297 7.25391 6.79297 7.5V29.1035C6.79297 29.3496 6.88086 29.5605 7.05664 29.7363C7.23242 29.9121 7.44922 30 7.70703 30H14.8965C15.1426 30 15.3535 30.0879 15.5293 30.2637C15.7051 30.4395 15.793 30.6504 15.793 30.8965C15.793 31.1426 15.7051 31.3535 15.5293 31.5293C15.3535 31.7051 15.1426 31.793 14.8965 31.793ZM28.3965 40.793C28.2207 40.793 28.0566 40.7402 27.9043 40.6348C27.752 40.541 27.6406 40.4062 27.5703 40.2305L24.5117 32.6016L19.1855 38.7012C19.0566 38.8418 18.8984 38.9355 18.7109 38.9824C18.5352 39.0176 18.3594 39.0059 18.1836 38.9473C18.0078 38.877 17.8672 38.7656 17.7617 38.6133C17.6562 38.4609 17.6035 38.291 17.6035 38.1035V11.1035C17.6035 10.9277 17.6504 10.7637 17.7441 10.6113C17.8379 10.459 17.9668 10.3477 18.1309 10.2773C18.2949 10.207 18.4648 10.1895 18.6406 10.2246C18.8164 10.248 18.9688 10.3184 19.0977 10.4355L38.9082 28.4355C39.0488 28.5645 39.1367 28.7168 39.1719 28.8926C39.2188 29.0684 39.207 29.2441 39.1367 29.4199C39.0664 29.5957 38.9551 29.7363 38.8027 29.8418C38.6504 29.9473 38.4805 30 38.293 30H30.6289L33.7402 37.7695C33.834 37.9922 33.8281 38.2207 33.7227 38.4551C33.6289 38.6777 33.4648 38.8359 33.2305 38.9297L28.7305 40.7402C28.6836 40.7637 28.6309 40.7754 28.5723 40.7754C28.5137 40.7871 28.4551 40.793 28.3965 40.793ZM24.793 30C24.8281 30 24.8574 30 24.8809 30C24.9043 30 24.9277 30.0059 24.9512 30.0176C25.1035 30.041 25.2383 30.1055 25.3555 30.2109C25.4844 30.3047 25.5781 30.4219 25.6367 30.5625L28.9062 38.7363L31.7363 37.5938L28.4668 29.4375C28.4082 29.2969 28.3848 29.1562 28.3965 29.0156C28.4199 28.8633 28.4727 28.7227 28.5547 28.5938C28.6367 28.4766 28.7422 28.3828 28.8711 28.3125C29.0117 28.2422 29.1523 28.207 29.293 28.207H35.9727L19.3965 13.1426V35.7129L24.125 30.2988C24.207 30.2051 24.3066 30.1348 24.4238 30.0879C24.541 30.0293 24.6641 30 24.793 30Z" fill="#1B127D"/>
</svg>
