<svg width="45" height="45" viewBox="0 0 45 45" fill="none" xmlns="http://www.w3.org/2000/svg">
<path d="M14 31.793C13.8828 31.793 13.7656 31.7754 13.6484 31.7402C13.543 31.6934 13.4492 31.623 13.3672 31.5293L6.16016 24.3398C5.98438 24.1641 5.89648 23.9531 5.89648 23.707C5.89648 23.4492 5.98438 23.2324 6.16016 23.0566L13.3672 15.8672C13.543 15.6914 13.7539 15.6035 14 15.6035C14.2461 15.6035 14.457 15.6914 14.6328 15.8672C14.8086 16.043 14.8965 16.2539 14.8965 16.5C14.8965 16.7461 14.8086 16.957 14.6328 17.1328L8.07617 23.707L14.6328 30.2637C14.8086 30.4395 14.8965 30.6504 14.8965 30.8965C14.8965 31.1426 14.8086 31.3535 14.6328 31.5293C14.5508 31.623 14.4512 31.6934 14.334 31.7402C14.2285 31.7754 14.1172 31.793 14 31.793ZM32 31.793C31.8828 31.793 31.7656 31.7754 31.6484 31.7402C31.543 31.6934 31.4492 31.623 31.3672 31.5293C31.1914 31.3535 31.1035 31.1426 31.1035 30.8965C31.1035 30.6504 31.1914 30.4395 31.3672 30.2637L37.9238 23.707L31.3672 17.1328C31.1914 16.957 31.1035 16.7461 31.1035 16.5C31.1035 16.2539 31.1914 16.043 31.3672 15.8672C31.543 15.6914 31.7539 15.6035 32 15.6035C32.2461 15.6035 32.457 15.6914 32.6328 15.8672L39.8398 23.0566C40.0156 23.2324 40.1035 23.4492 40.1035 23.707C40.1035 23.9531 40.0156 24.1641 39.8398 24.3398L32.6328 31.5293C32.5508 31.623 32.4512 31.6934 32.334 31.7402C32.2285 31.7754 32.1172 31.793 32 31.793ZM18.5 31.793C18.418 31.793 18.3359 31.7871 18.2539 31.7754C18.1719 31.752 18.0957 31.7168 18.0254 31.6699C17.8145 31.5293 17.6797 31.3418 17.6211 31.1074C17.5625 30.8613 17.6035 30.6328 17.7441 30.4219L26.7441 16.0254C26.873 15.8145 27.0547 15.6797 27.2891 15.6211C27.5352 15.5625 27.7637 15.6035 27.9746 15.7441C28.1855 15.873 28.3203 16.0605 28.3789 16.3066C28.4375 16.541 28.3965 16.7637 28.2559 16.9746L19.2559 31.3711C19.1738 31.5117 19.0625 31.6172 18.9219 31.6875C18.793 31.7578 18.6523 31.793 18.5 31.793Z" fill="#1B127D"/>
</svg>
