<svg width="45" height="45" viewBox="0 0 45 45" fill="none" xmlns="http://www.w3.org/2000/svg">
<path d="M24.1602 17.6602C23.9844 17.8359 23.8965 18.0527 23.8965 18.3105C23.8965 18.5566 23.9844 18.7676 24.1602 18.9434L28.0273 22.793H5.89648C5.65039 22.793 5.43945 22.8809 5.26367 23.0566C5.08789 23.2324 5 23.4492 5 23.707C5 23.9531 5.08789 24.1641 5.26367 24.3398C5.43945 24.5156 5.65039 24.6035 5.89648 24.6035H28.0273L24.1602 28.4707C23.9844 28.6465 23.8965 28.8574 23.8965 29.1035C23.8965 29.3496 23.9844 29.5605 24.1602 29.7363C24.3359 29.9121 24.5469 30 24.793 30C25.0508 30 25.2676 29.9121 25.4434 29.7363L30.8398 24.3398C30.9219 24.2461 30.9863 24.1465 31.0332 24.041C31.0801 23.9238 31.1035 23.8125 31.1035 23.707C31.1035 23.5898 31.0801 23.4785 31.0332 23.373C30.9863 23.2559 30.9219 23.1504 30.8398 23.0566L25.4434 17.6602C25.2676 17.4844 25.0508 17.3965 24.793 17.3965C24.5469 17.3965 24.3359 17.4844 24.1602 17.6602ZM39.207 12.8965V34.5C39.207 35.25 38.9434 35.8887 38.416 36.416C37.8887 36.9434 37.25 37.207 36.5 37.207H18.5C17.75 37.207 17.1113 36.9434 16.584 36.416C16.0566 35.8887 15.793 35.25 15.793 34.5V27.293C15.793 27.0469 15.8809 26.8359 16.0566 26.6602C16.2324 26.4844 16.4492 26.3965 16.707 26.3965C16.9531 26.3965 17.1641 26.4844 17.3398 26.6602C17.5156 26.8359 17.6035 27.0469 17.6035 27.293V34.5C17.6035 34.7461 17.6914 34.957 17.8672 35.1328C18.043 35.3086 18.2539 35.3965 18.5 35.3965H36.5C36.7461 35.3965 36.957 35.3086 37.1328 35.1328C37.3086 34.957 37.3965 34.7461 37.3965 34.5V12.8965C37.3965 12.6504 37.3086 12.4395 37.1328 12.2637C36.957 12.0879 36.7461 12 36.5 12H18.5C18.2539 12 18.043 12.0879 17.8672 12.2637C17.6914 12.4395 17.6035 12.6504 17.6035 12.8965V20.1035C17.6035 20.3496 17.5156 20.5605 17.3398 20.7363C17.1641 20.9121 16.9531 21 16.707 21C16.4492 21 16.2324 20.9121 16.0566 20.7363C15.8809 20.5605 15.793 20.3496 15.793 20.1035V12.8965C15.793 12.1582 16.0566 11.5254 16.584 10.998C17.1113 10.4707 17.75 10.207 18.5 10.207H36.5C37.25 10.207 37.8887 10.4707 38.416 10.998C38.9434 11.5254 39.207 12.1582 39.207 12.8965Z" fill="#1B127D"/>
</svg>
