<svg width="105" height="35" viewBox="0 0 105 35" fill="none" xmlns="http://www.w3.org/2000/svg">
<mask id="mask0_1476_36935" style="mask-type:alpha" maskUnits="userSpaceOnUse" x="0" y="0" width="105" height="35">
<path d="M51.6163 0.603822L44.6505 33.6179H36.2258L43.1944 0.603822H51.6163ZM87.0563 21.9201L91.4906 9.52417L94.0432 21.9201H87.0563ZM96.456 33.6179H104.247L97.4463 0.603822H90.2566C88.6394 0.603822 87.2759 1.55653 86.6707 3.02499L74.0312 33.6179H82.8744L84.6316 28.6855H95.4381L96.456 33.6179ZM74.4689 22.8381C74.5066 14.1258 62.5858 13.6448 62.6678 9.7517C62.6939 8.56803 63.8059 7.30949 66.2407 6.98703C67.4458 6.82751 70.7745 6.70371 74.5452 8.46381L76.0254 1.46357C73.997 0.717346 71.3904 0 68.1442 0C59.819 0 53.9579 4.48806 53.9111 10.9124C53.8556 15.6675 58.0935 18.3172 61.2866 19.8982C64.567 21.5159 65.6674 22.5539 65.6552 24.0008C65.6307 26.2168 63.0376 27.1936 60.6133 27.2317C56.3782 27.2988 53.9203 26.071 51.9618 25.1457L50.4367 32.3803C52.4029 33.2964 56.036 34.095 59.8039 34.1342C68.6538 34.1342 74.4415 29.7039 74.4689 22.8381ZM39.5795 0.603822L25.9315 33.6179H17.0274L10.3113 7.27035C9.90345 5.64825 9.54969 5.05274 8.30984 4.37063C6.28522 3.25547 2.9416 2.21026 0 1.56094L0.198359 0.603822H14.5328C16.3586 0.603822 18.0024 1.83544 18.417 3.96938L21.9643 23.074L30.7316 0.603822H39.5795Z" fill="white"/>
</mask>
<g mask="url(#mask0_1476_36935)">
<path fill-rule="evenodd" clip-rule="evenodd" d="M51.6163 0.603822L44.6505 33.6179H36.2258L43.1944 0.603822H51.6163ZM87.0563 21.9201L91.4906 9.52417L94.0432 21.9201H87.0563ZM96.456 33.6179H104.247L97.4463 0.603822H90.2566C88.6394 0.603822 87.2759 1.55653 86.6707 3.02499L74.0312 33.6179H82.8744L84.6316 28.6855H95.4381L96.456 33.6179ZM74.4689 22.8381C74.5066 14.1258 62.5858 13.6448 62.6678 9.7517C62.6939 8.56803 63.8059 7.30949 66.2407 6.98703C67.4458 6.82751 70.7745 6.70371 74.5452 8.46381L76.0254 1.46357C73.997 0.717346 71.3904 0 68.1442 0C59.819 0 53.9579 4.48806 53.9111 10.9124C53.8556 15.6675 58.0935 18.3172 61.2866 19.8982C64.567 21.5159 65.6674 22.5539 65.6552 24.0008C65.6307 26.2168 63.0376 27.1936 60.6133 27.2317C56.3782 27.2988 53.9203 26.071 51.9618 25.1457L50.4367 32.3803C52.4029 33.2964 56.036 34.095 59.8039 34.1342C68.6538 34.1342 74.4415 29.7039 74.4689 22.8381ZM39.5795 0.603822L25.9315 33.6179H17.0274L10.3113 7.27035C9.90345 5.64825 9.54969 5.05274 8.30984 4.37063C6.28522 3.25547 2.9416 2.21026 0 1.56094L0.198359 0.603822H14.5328C16.3586 0.603822 18.0024 1.83544 18.417 3.96938L21.9643 23.074L30.7316 0.603822H39.5795Z" fill="#1434CB"/>
</g>
</svg>
