<svg width="128" height="42" viewBox="0 0 128 42" fill="none" xmlns="http://www.w3.org/2000/svg">
<path fill-rule="evenodd" clip-rule="evenodd" d="M14.5101 5.69408C13.4937 5.77888 12.9815 5.8449 12.3017 5.9788C9.87148 6.45741 7.46344 7.60278 5.58584 9.17318C4.99924 9.66379 4.48628 10.1413 4.11325 10.5439C2.56306 12.2171 1.56883 14.0993 1.15982 16.1349C0.580094 19.0203 1.31677 22.1121 2.95086 23.6517C3.32494 24.0042 3.66822 24.2054 4.22789 24.4C4.64477 24.545 5.50005 24.8821 6.01964 25.1061C6.24527 25.2034 6.44068 25.283 6.45386 25.283C6.46703 25.283 6.41477 25.1409 6.33771 24.9671C6.01379 24.2365 5.81208 23.4382 5.7294 22.5594C5.71839 22.4425 5.72118 22.3399 5.73557 22.3315C5.77856 22.3064 6.6594 22.364 7.0892 22.4201C7.30911 22.4488 7.70494 22.515 7.96883 22.5673C8.45905 22.6644 9.31507 22.8973 9.3801 22.9513C9.39997 22.9677 9.43451 23.0493 9.45681 23.1326C9.50539 23.3136 9.71126 23.7365 9.84682 23.9335C10.1254 24.3383 10.6213 24.7436 11.0868 24.9468C11.4903 25.123 11.6943 25.16 12.3602 25.178L12.9772 25.1947L13.1551 25.411C13.4467 25.7655 13.7036 26.1692 13.9182 26.6105C14.3036 27.403 14.4709 28.0759 14.5265 29.0574C14.553 29.5267 14.6199 29.6803 14.9154 29.9511C15.2454 30.2534 15.4162 30.2526 15.7425 29.9474C16.0359 29.673 16.0984 29.5238 16.1229 29.0407C16.1931 27.6519 16.6676 26.3977 17.4976 25.4068L17.6752 25.1947L18.2917 25.1792C18.8418 25.1654 18.939 25.1545 19.1941 25.0779C19.774 24.9037 20.2726 24.5774 20.6551 24.122C20.8571 23.8814 21.1305 23.3731 21.1965 23.1154L21.2396 22.9469L21.4973 22.8654C22.4096 22.5768 23.6589 22.362 24.5858 22.3343L24.9216 22.3243L24.9109 22.5642C24.8962 22.8894 24.7679 23.6357 24.666 23.9876C24.3055 25.2332 23.7079 26.2529 22.8065 27.1602C22.4402 27.5289 22.3618 27.5885 21.4625 28.1818C20.9372 28.5284 20.1477 29.0495 19.7078 29.3399C19.268 29.6302 18.5987 30.0717 18.2205 30.3209C17.8422 30.5701 17.101 31.0608 16.5732 31.4111C16.0454 31.7615 15.5704 32.0651 15.5176 32.0857C15.3893 32.1359 15.2411 32.1369 15.1295 32.0882C15.0791 32.0662 14.7284 31.8164 14.3501 31.5331C12.5357 30.1741 10.2195 28.6573 8.59256 27.7626C8.37266 27.6417 8.11251 27.4969 8.01451 27.4408C7.70078 27.2614 6.45095 26.6411 5.90433 26.3936C4.54942 25.7801 3.25969 25.3416 2.17929 25.1274C1.48665 24.99 0.5 24.8886 0.5 24.9547C0.5 25.1128 0.968601 26.4823 1.22507 27.0737C2.00439 28.8708 3.02482 30.3853 4.4011 31.7875C6.43674 33.8616 8.87257 35.2468 11.7225 35.951C12.8914 36.2398 13.9504 36.3616 15.3097 36.3634C16.4843 36.3651 17.1874 36.3012 18.2685 36.0948C22.2319 35.3381 25.8393 32.9363 28.0937 29.5532C29.7949 27.0003 30.6763 24.0907 30.6758 21.0289C30.6755 18.9299 30.2837 16.9977 29.4637 15.0502C28.0813 11.7672 25.452 8.95542 22.257 7.34343C20.4861 6.44992 18.8258 5.96063 16.8611 5.7532C16.4143 5.70602 14.8412 5.66648 14.5101 5.69408ZM6.52944 12.4844C6.63637 12.5508 6.72296 12.6217 9.15242 14.6316C12.4975 17.399 12.3325 17.2703 12.9227 17.5722C13.3383 17.7849 13.8501 17.9587 14.3572 18.0597C14.8743 18.1626 15.7731 18.1618 16.2989 18.0581C16.7665 17.9659 17.2557 17.8031 17.6607 17.6049C18.2509 17.3161 18.2507 17.3163 21.0513 14.9992C21.4911 14.6353 22.0309 14.1894 22.2508 14.0081C22.4707 13.8269 22.9673 13.4166 23.3543 13.0964C23.7413 12.7762 24.0999 12.4925 24.1511 12.4659C24.2948 12.3913 24.5837 12.4229 24.7221 12.5285C24.9536 12.705 24.9376 12.3905 24.9376 16.7875V20.741L24.6577 20.741C23.7422 20.7413 22.2597 20.9458 21.2592 21.2099C19.915 21.5647 18.6724 22.1373 17.7139 22.8436C16.7799 23.5319 16.0267 24.4005 15.4945 25.4029L15.3218 25.7283L15.2326 25.5457C14.6759 24.4052 13.7268 23.3607 12.5109 22.5508C12.1652 22.3205 11.2384 21.8439 10.7996 21.6707C9.46925 21.1457 7.81664 20.8108 6.26555 20.7519L5.71379 20.7309V16.7825C5.71379 12.3595 5.69511 12.6999 5.9479 12.5168C6.05224 12.4412 6.10757 12.4245 6.25436 12.4246C6.37328 12.4247 6.46572 12.4448 6.52944 12.4844ZM105.788 14.2028C103.524 14.4627 101.635 15.7122 100.594 17.6383C99.8754 18.9678 99.6058 20.6672 99.8639 22.2379C100.268 24.6985 101.863 26.6462 104.151 27.4745C105.664 28.0223 107.377 28.0434 108.91 27.5334C109.884 27.209 110.805 26.627 111.491 25.9026C111.747 25.632 112.123 25.1625 112.097 25.1449C112.084 25.1358 111.108 24.658 110.197 24.2147L109.654 23.95L109.395 24.2122C108.843 24.7712 108.127 25.1336 107.307 25.2687C106.875 25.3398 106.074 25.3182 105.671 25.2245C104.021 24.8408 102.913 23.6678 102.579 21.9531C102.497 21.5295 102.497 20.5282 102.579 20.1046C102.754 19.2043 103.13 18.4739 103.719 17.8886C104.276 17.3352 104.853 17.0235 105.671 16.8332C106.076 16.7391 106.876 16.7178 107.307 16.7898C107.917 16.8914 108.476 17.1145 108.931 17.4381C109.173 17.6093 109.597 18.0266 109.722 18.2144C109.768 18.2846 109.82 18.342 109.836 18.342C109.859 18.342 111.696 17.0767 111.986 16.8613C112.045 16.8175 112.041 16.8078 111.897 16.62C111.407 15.9829 110.681 15.3717 109.919 14.9551C108.744 14.3122 107.232 14.0368 105.788 14.2028ZM120.081 14.1725C120.028 14.1787 119.848 14.1992 119.681 14.2181C118.261 14.3787 116.835 15.0495 115.79 16.0489C114.454 17.3257 113.733 19.0633 113.732 21.0032C113.732 22.2204 113.958 23.2101 114.468 24.2275C115.891 27.0629 119.215 28.4901 122.482 27.6674C124.961 27.0428 126.881 25.0532 127.404 22.5642C127.615 21.5579 127.604 20.3401 127.374 19.3535C126.78 16.8068 124.754 14.8515 122.144 14.3088C121.541 14.1833 120.55 14.1179 120.081 14.1725ZM39.723 15.6631L39.7313 16.9506L42.794 16.9587C44.4785 16.9632 45.8567 16.9745 45.8567 16.9839C45.8567 16.9932 45.5724 17.3587 45.225 17.7961C44.8776 18.2334 43.9382 19.4152 43.1379 20.4222C42.3376 21.4292 41.5315 22.4436 41.3467 22.6764C41.1618 22.9093 40.6545 23.5482 40.2191 24.0963L39.4275 25.0928V27.682H49.3433V25.0914L46.0922 25.0833L42.8411 25.0751L43.4149 24.3554C43.7306 23.9596 44.2696 23.2831 44.6125 22.8521C44.9557 22.4211 45.7243 21.4567 46.3205 20.709C46.9168 19.9613 47.8335 18.8115 48.3578 18.1538L49.3113 16.958V16.5837C49.3113 16.3778 49.3017 15.7967 49.2902 15.2925L49.2691 14.3757H39.7147L39.723 15.6631ZM56.5402 14.3875C56.5402 14.403 55.6609 16.7669 55.6168 16.8706C55.5979 16.9146 55.0992 18.246 54.5084 19.8294C53.9176 21.4127 53.371 22.8737 53.2933 23.076C53.0291 23.766 51.5823 27.6448 51.5823 27.6638C51.5823 27.6742 52.2259 27.6789 53.0127 27.6744L54.4432 27.666L55.0068 26.1147L55.5704 24.5634H60.9643L61.0692 24.8512C61.1267 25.0096 61.2841 25.4486 61.4191 25.8268C61.5538 26.2051 61.7361 26.716 61.824 26.9623C61.912 27.2086 62.0054 27.4713 62.032 27.5461L62.0799 27.682H63.5161C64.3062 27.682 64.9526 27.6715 64.9526 27.6586C64.9526 27.6457 64.8602 27.3902 64.747 27.0908C64.6341 26.7915 63.9924 25.0783 63.3217 23.2839C62.6506 21.4895 62.0544 19.8989 61.9968 19.7494C61.9392 19.5999 61.4632 18.3296 60.939 16.9266L59.9855 14.3757H58.263C57.3156 14.3757 56.5402 14.381 56.5402 14.3875ZM67.4476 21.0289V27.682H70.1341L70.1421 25.291L70.1504 22.9001L70.9021 22.8925L71.6538 22.8849L72.0242 23.4043C72.228 23.6899 72.6534 24.2835 72.9697 24.7233C73.2857 25.1631 73.7665 25.8324 74.0374 26.2107C74.3083 26.5889 74.6548 27.0711 74.8073 27.2822L75.0843 27.666L76.7518 27.6743C77.6685 27.6789 78.4189 27.6762 78.4189 27.6683C78.4189 27.6604 78.3348 27.5415 78.2318 27.4041C76.8561 25.5687 74.7405 22.7164 74.7405 22.6972C74.7405 22.6836 74.8521 22.6392 74.9884 22.5986C76.2083 22.2352 77.1369 21.3361 77.4852 20.1812C77.6391 19.6713 77.6666 19.4487 77.6666 18.7098C77.6669 18.094 77.6576 17.9626 77.5924 17.6571C77.181 15.7306 75.8267 14.5951 73.7169 14.4084C73.5004 14.3893 72.1355 14.3758 70.3983 14.3758L67.4476 14.3757V21.0289ZM79.9939 15.6631L80.0023 16.9506L81.9134 16.9588L83.8246 16.9671V27.6827L85.1761 27.6744L86.5275 27.666L86.5355 22.3166L86.5438 16.9671L88.4547 16.9588L90.3659 16.9506L90.3742 15.6631L90.3825 14.3757H79.9856L79.9939 15.6631ZM93.6445 21.0289V27.682H96.3633V14.3757H93.6445V21.0289ZM121.633 16.8489C122.786 17.1256 123.673 17.7819 124.242 18.7804C124.617 19.4372 124.804 20.1855 124.804 21.0289C124.804 21.9243 124.579 22.7637 124.165 23.4097C123.493 24.4606 122.49 25.0988 121.219 25.2846C120.852 25.3383 120.039 25.306 119.681 25.2235C118.269 24.8978 117.17 23.9194 116.711 22.5774C116.517 22.0123 116.473 21.7197 116.473 21.0289C116.473 20.338 116.517 20.0454 116.711 19.4803C117.197 18.0602 118.362 17.0753 119.889 16.7921C120.299 16.7161 121.202 16.7455 121.633 16.8489ZM73.516 17.0283C74.4484 17.2207 74.9305 17.8098 74.9321 18.7591C74.933 19.5535 74.5716 20.1003 73.8736 20.3593C73.5109 20.4939 73.1837 20.5167 71.6138 20.5169L70.1344 20.5171V18.7632C70.1344 17.7985 70.144 16.9996 70.1559 16.9879C70.1674 16.9762 70.8621 16.9668 71.6992 16.967C73.0695 16.9674 73.2506 16.9735 73.516 17.0283ZM58.3401 17.3504C58.3673 17.4296 58.5042 17.811 58.6443 18.1981C59.6634 21.0087 59.9947 21.9351 59.9845 21.9453C59.9781 21.9518 59.1948 21.9533 58.2441 21.9488L56.5153 21.9405L57.0897 20.3571C57.4058 19.4863 57.7842 18.4428 57.931 18.0381C58.0775 17.6335 58.2077 17.2686 58.2198 17.2272C58.247 17.1343 58.2768 17.1646 58.3401 17.3504Z" fill="#2E54CC"/>
</svg>
