<svg width="100" height="100" viewBox="0 0 100 100" fill="none" xmlns="http://www.w3.org/2000/svg">
<path d="M27.7149 40.6288V33.911H18.7272C10.2609 33.911 3.34375 40.7976 3.34375 49.2638V64.6166H10.0615V54.7546H21.1045V48.0061H10.1842C10.7977 43.8497 14.3714 40.6442 18.7272 40.6442H27.7149V40.6288ZM55.3683 40.6288V33.911H44.7855C36.3192 33.911 29.4327 40.7976 29.4327 49.2638C29.4327 57.7301 36.3192 64.6166 44.7855 64.6166H55.3683V57.8988H44.7855C40.0462 57.8988 36.1505 54.0337 36.1505 49.2638C36.1505 44.5245 40.0155 40.6288 44.7855 40.6288H55.3683ZM68.4511 35.4601L67.7763 34.816C67.1321 34.2331 66.2579 33.8804 65.3069 33.8804C63.2671 33.8804 61.6106 35.5368 61.6106 37.5767V64.5706H68.3284V44.4172C68.3284 44.4172 73.5278 49.1564 74.6321 50.1687C75.7364 51.181 76.902 51.9479 78.4665 51.9479V44.5859L68.4511 35.4601Z" fill="black"/>
<path d="M88.5124 35.4601L89.1873 34.816C89.8314 34.2331 90.7057 33.8804 91.6566 33.8804C93.6965 33.8804 95.3529 35.5368 95.3529 37.5767V64.5706H88.6351V44.4172C88.6351 44.4172 83.4357 49.1564 82.3314 50.1687C81.2271 51.181 80.0615 51.9479 78.4971 51.9479V44.5859L88.5124 35.4601Z" fill="#00DE00"/>
</svg>
