<svg width="128" height="16" viewBox="0 0 128 16" fill="none" xmlns="http://www.w3.org/2000/svg">
<g clip-path="url(#clip0_11_228)">
<path d="M122.156 15.2357C121.027 15.2357 119.982 15.0557 119.023 14.6951C118.063 14.334 117.231 13.8229 116.524 13.1623C115.818 12.4997 115.257 11.7061 114.874 10.829C114.48 9.93512 114.283 8.95456 114.283 7.88679C114.283 6.82012 114.48 5.83901 114.874 4.94512C115.258 4.06644 115.822 3.27254 116.533 2.61179C117.255 1.94457 118.108 1.42349 119.041 1.07901C120.001 0.718452 121.046 0.538452 122.175 0.538452C123.375 0.538452 124.475 0.738452 125.474 1.13956C126.418 1.51265 127.258 2.0956 127.925 2.84123C127.963 2.88345 127.96 2.94679 127.918 2.98567C127.633 3.24956 126.606 4.20123 126.311 4.47401C126.301 4.4837 126.289 4.4913 126.275 4.49637C126.262 4.50143 126.248 4.50384 126.234 4.50345C126.205 4.50264 126.177 4.49065 126.157 4.47012C125.644 3.94234 125.072 3.54512 124.443 3.27679C123.782 2.99623 123.068 2.85623 122.299 2.85623C121.536 2.85623 120.834 2.97901 120.194 3.22567C119.571 3.46105 119.003 3.81573 118.525 4.26845C118.049 4.72191 117.675 5.26498 117.426 5.86401C117.167 6.4779 117.036 7.1529 117.036 7.88679C117.036 8.62123 117.167 9.29512 117.426 9.91012C117.675 10.5091 118.049 11.0522 118.525 11.5057C119.003 11.9584 119.571 12.3131 120.194 12.5485C120.834 12.7951 121.536 12.9179 122.299 12.9179C123.068 12.9179 123.782 12.7779 124.443 12.4968C125.073 12.229 125.644 11.8262 126.157 11.2873C126.167 11.2771 126.179 11.2689 126.192 11.2632C126.205 11.2574 126.219 11.2542 126.233 11.2538C126.248 11.2534 126.262 11.2558 126.276 11.2608C126.289 11.2657 126.301 11.2733 126.312 11.2829L127.918 12.7707C127.938 12.7893 127.95 12.8148 127.951 12.8417C127.953 12.8687 127.944 12.8952 127.925 12.9157C127.255 13.6605 126.416 14.2452 125.474 14.624C124.475 15.0318 123.369 15.2357 122.156 15.2357ZM7.94748 15.2357C6.80696 15.2357 5.75024 15.0523 4.7802 14.6846C3.81015 14.3173 2.96811 13.8023 2.25521 13.1401C1.54423 12.4801 0.978761 11.6875 0.592933 10.8101C0.197453 9.91901 0 8.94401 0 7.88567C0 6.82734 0.197453 5.8529 0.592933 4.9629C0.988987 4.0729 1.54404 3.29623 2.25751 2.63179C2.97155 1.9679 3.81187 1.45234 4.77848 1.08734C5.74393 0.72123 6.79892 0.538452 7.94231 0.538452C9.08743 0.538452 10.1407 0.720119 11.1033 1.08345C12.0641 1.44734 12.9016 1.95901 13.6133 2.61956C14.3249 3.27966 14.8899 4.07323 15.2739 4.95179C15.6688 5.84567 15.8674 6.82401 15.8674 7.8879C15.8674 8.95067 15.6688 9.93012 15.2739 10.824C14.8897 11.7021 14.3247 12.4953 13.6133 13.1551C12.9016 13.8151 12.0641 14.3273 11.1033 14.6907C10.1413 15.0546 9.08915 15.2357 7.94748 15.2357ZM71.6295 8.86234C71.6008 8.86234 71.5721 8.87345 71.5526 8.89401C71.5423 8.90357 71.5342 8.91505 71.5287 8.92776C71.5231 8.94046 71.5203 8.95411 71.5204 8.9679V12.699C71.5204 12.7568 71.5698 12.8035 71.6295 12.8035H79.7268C79.7555 12.8037 79.783 12.815 79.8032 12.8348C79.8234 12.8545 79.8347 12.8812 79.8347 12.909V14.9285C79.8349 14.9423 79.8323 14.956 79.827 14.9688C79.8216 14.9817 79.8137 14.9934 79.8037 15.0032C79.7936 15.013 79.7816 15.0208 79.7684 15.0261C79.7552 15.0314 79.7411 15.0341 79.7268 15.034H68.9099C68.8811 15.0339 68.8535 15.0227 68.8332 15.0029C68.8129 14.9831 68.8014 14.9564 68.8014 14.9285V0.845674C68.8014 0.787341 68.8502 0.740674 68.9105 0.740674H79.4352C79.4641 0.740674 79.4919 0.751795 79.5123 0.771591C79.5328 0.791386 79.5443 0.818235 79.5443 0.84623V2.86567C79.5443 2.89345 79.5328 2.91956 79.5121 2.93956C79.5021 2.94948 79.4901 2.95738 79.4769 2.96281C79.4637 2.96825 79.4495 2.97111 79.4352 2.97123H71.6289C71.6147 2.97116 71.6005 2.9738 71.5874 2.97901C71.5742 2.98422 71.5622 2.99189 71.552 3.00159C71.5419 3.01129 71.5339 3.02282 71.5283 3.03553C71.5228 3.04825 71.5199 3.06189 71.5199 3.07567L71.5204 6.58401C71.5204 6.612 71.5319 6.63885 71.5524 6.65865C71.5728 6.67844 71.6006 6.68956 71.6295 6.68956H78.5363C78.565 6.68971 78.5926 6.70082 78.6129 6.72048C78.6332 6.74014 78.6447 6.76676 78.6448 6.79456V8.75734C78.6448 8.78534 78.6333 8.81218 78.6129 8.83198C78.5924 8.85178 78.5647 8.8629 78.5358 8.8629H71.6295V8.86234ZM57.5053 10.179C57.5194 10.196 57.5387 10.2083 57.5604 10.2143C57.5821 10.2203 57.6051 10.2196 57.6264 10.2123C57.6475 10.2049 57.6657 10.1914 57.6785 10.1736C57.6914 10.1558 57.6982 10.1346 57.6982 10.1129V0.84623C57.6982 0.787341 57.7464 0.740674 57.8072 0.740674H60.3035C60.3632 0.740674 60.4126 0.787341 60.4126 0.84623V14.9285C60.4126 14.9564 60.4011 14.9833 60.3806 15.0031C60.3602 15.0229 60.3324 15.034 60.3035 15.034H58.2142C58.198 15.0341 58.182 15.0306 58.1674 15.0239C58.1528 15.0171 58.1399 15.0073 58.1298 14.9951L50.2512 5.59401C50.2371 5.57711 50.2179 5.56487 50.1963 5.55896C50.1747 5.55305 50.1518 5.55378 50.1306 5.56103C50.1094 5.56828 50.0911 5.58171 50.0782 5.59945C50.0652 5.6172 50.0583 5.6384 50.0583 5.66012V14.9279C50.0583 14.9559 50.0468 14.9827 50.0264 15.0025C50.0059 15.0223 49.9782 15.0335 49.9493 15.0335H47.453C47.4242 15.0333 47.3966 15.0221 47.3762 15.0023C47.3559 14.9826 47.3445 14.9558 47.3445 14.9279V0.845674C47.3445 0.787341 47.3939 0.740674 47.4536 0.740674H49.5429C49.5756 0.740674 49.606 0.754563 49.6267 0.779563L57.5053 10.179ZM30.937 10.0485C30.9468 10.0639 30.9606 10.0767 30.977 10.0855C30.9933 10.0943 31.0118 10.0989 31.0306 10.0988C31.0493 10.0986 31.0677 10.0939 31.084 10.0848C31.1003 10.0758 31.1139 10.0629 31.1235 10.0473L36.7509 0.792897C36.7605 0.776986 36.7742 0.763819 36.7908 0.754741C36.8073 0.745663 36.826 0.741 36.8451 0.74123H38.9229C38.9832 0.74123 39.032 0.787897 39.032 0.845674C39.0331 2.07345 39.0532 13.699 39.0561 14.929C39.0561 14.957 39.0446 14.9839 39.0241 15.0036C39.0037 15.0234 38.9759 15.0346 38.947 15.0346H36.565C36.5506 15.0347 36.5364 15.0321 36.5232 15.0269C36.5099 15.0217 36.4979 15.0139 36.4877 15.0042C36.4776 14.9944 36.4695 14.9828 36.4641 14.97C36.4586 14.9572 36.4558 14.9434 36.4559 14.9296L36.4352 5.9579C36.4348 5.93505 36.4268 5.91295 36.4123 5.89491C36.3978 5.87687 36.3777 5.86387 36.3549 5.85786C36.3321 5.85184 36.3079 5.85315 36.286 5.86157C36.264 5.86999 36.2455 5.88508 36.2332 5.90456L31.6367 13.3585C31.627 13.374 31.6134 13.3868 31.5971 13.3958C31.5808 13.4047 31.5624 13.4095 31.5437 13.4096H30.4301C30.4117 13.4094 30.3936 13.4048 30.3776 13.396C30.3615 13.3873 30.348 13.3747 30.3383 13.3596L25.7429 6.0129C25.7308 5.99325 25.7122 5.97806 25.6902 5.96972C25.6682 5.96137 25.6439 5.96034 25.6212 5.96678C25.5985 5.97286 25.5784 5.98598 25.5641 6.00414C25.5498 6.0223 25.5421 6.0445 25.542 6.06734V14.9279C25.542 14.9862 25.4938 15.0335 25.4341 15.0335H23.0521C23.0377 15.0335 23.0235 15.0308 23.0102 15.0256C22.997 15.0203 22.9849 15.0125 22.9748 15.0027C22.9646 14.9929 22.9566 14.9812 22.9511 14.9684C22.9457 14.9555 22.9429 14.9418 22.943 14.9279V0.845674C22.943 0.787341 22.9912 0.740674 23.0521 0.740674H25.1311C25.1689 0.740674 25.2045 0.759563 25.2235 0.791785L30.937 10.0485ZM104.959 15.0335C104.93 15.0335 104.902 15.0224 104.882 15.0027C104.862 14.9831 104.85 14.9564 104.85 14.9285V0.845674C104.85 0.817776 104.862 0.79107 104.882 0.771394C104.902 0.751719 104.93 0.740674 104.959 0.740674H107.472C107.501 0.740821 107.529 0.752007 107.549 0.771787C107.569 0.791566 107.581 0.818331 107.581 0.84623V14.9285C107.581 14.9423 107.578 14.9561 107.573 14.9689C107.567 14.9818 107.559 14.9934 107.549 15.0033C107.539 15.0131 107.527 15.0208 107.514 15.0261C107.5 15.0314 107.486 15.0341 107.472 15.034L104.959 15.0335ZM90.985 15.0335C90.9565 15.0332 90.9291 15.0223 90.9087 15.0029C90.8886 14.983 90.8773 14.9563 90.8771 14.9285V3.08901C90.8771 3.06067 90.8657 3.03345 90.845 3.01456C90.8351 3.00469 90.8232 2.99685 90.8101 2.99151C90.797 2.98616 90.7829 2.98342 90.7687 2.98345H86.1055C86.0913 2.98345 86.0771 2.98071 86.064 2.9754C86.0508 2.97008 86.0389 2.96229 86.0288 2.95247C86.0188 2.94265 86.0109 2.93101 86.0055 2.91821C86.0002 2.90541 85.9975 2.89171 85.9976 2.8779V0.84623C85.9976 0.832467 86.0003 0.818826 86.0057 0.80609C86.0111 0.793354 86.019 0.781775 86.029 0.772017C86.0391 0.76226 86.051 0.754517 86.0641 0.749233C86.0772 0.74395 86.0913 0.74123 86.1055 0.74123H98.3786C98.3929 0.741229 98.407 0.743967 98.4202 0.749285C98.4334 0.754603 98.4453 0.762396 98.4553 0.772213C98.4654 0.782029 98.4733 0.793675 98.4787 0.806475C98.484 0.819275 98.4867 0.832976 98.4865 0.846785V2.87901C98.4866 2.89277 98.4839 2.90641 98.4785 2.91915C98.4731 2.93188 98.4652 2.94346 98.4551 2.95322C98.4451 2.96298 98.4332 2.97072 98.4201 2.976C98.4069 2.98129 98.3928 2.98401 98.3786 2.98401H93.7161C93.6872 2.98401 93.6594 2.99513 93.639 3.01492C93.6185 3.03472 93.607 3.06157 93.607 3.08956V14.929C93.6071 14.9429 93.6043 14.9566 93.5989 14.9695C93.5934 14.9823 93.5854 14.994 93.5753 15.0038C93.5651 15.0136 93.5531 15.0214 93.5398 15.0267C93.5265 15.032 93.5123 15.0346 93.498 15.0346H90.985V15.0335ZM7.94231 12.9179C8.68621 12.9179 9.37155 12.794 9.9972 12.5462C10.6109 12.3064 11.1682 11.9489 11.6354 11.4951C12.104 11.0379 12.4737 10.495 12.7231 9.8979C12.9831 9.28623 13.1134 8.61401 13.1134 7.88179C13.1134 7.14956 12.9843 6.47956 12.7254 5.87234C12.4754 5.27768 12.1061 4.73689 11.6388 4.28123C11.1711 3.8268 10.613 3.46885 9.99835 3.22901C9.37213 2.98067 8.68621 2.85623 7.94231 2.85623C7.199 2.85623 6.51193 2.98067 5.88169 3.22956C5.26466 3.46956 4.70427 3.82807 4.23433 4.28345C3.76515 4.73935 3.39425 5.28095 3.14317 5.87679C2.88373 6.48456 2.75344 7.15345 2.75344 7.88123C2.75344 8.60901 2.88316 9.27901 3.14203 9.89067C3.39218 10.4894 3.76246 11.0341 4.23146 11.4935C4.69979 11.9517 5.26108 12.3111 5.87996 12.549C6.51135 12.7951 7.19842 12.9179 7.94231 12.9179Z" fill="#1F4145"/>
</g>
<defs>
<clipPath id="clip0_11_228">
<rect width="128" height="15" fill="white" transform="translate(0 0.538452)"/>
</clipPath>
</defs>
</svg>
