<svg width="138" height="39" viewBox="0 0 138 39" fill="none" xmlns="http://www.w3.org/2000/svg">
<g clip-path="url(#clip0_47_107)">
<path fill-rule="evenodd" clip-rule="evenodd" d="M13.6113 9.55259C12.8361 9.67644 12.0644 9.82083 11.297 9.98561C10.789 10.0927 10.2817 10.1926 9.78039 10.3181C9.31779 10.4344 8.84337 10.5376 8.38997 10.6808C7.9525 10.8153 7.51927 10.9632 7.09089 11.1244C6.25295 11.4464 5.47256 11.9017 4.77989 12.4727C4.35935 12.8236 3.96706 13.2047 3.63785 13.6443C3.41077 13.9575 3.20591 14.2862 3.02478 14.628C2.84934 14.9546 2.72909 15.3416 2.72515 15.7161C2.71923 16.8174 3.42298 17.74 4.23318 18.4247C4.49931 18.6481 4.78252 18.8544 5.06967 19.0509C5.92192 19.6357 6.84974 20.1496 7.79201 20.5971C8.76452 21.057 9.74359 21.4986 10.7345 21.9191C11.6715 22.3154 12.6289 22.6505 13.5955 22.9705C13.8734 23.0612 14.1547 23.1518 14.4326 23.2432C15.3085 23.5323 16.2035 23.7997 17.0728 24.1132C17.6143 24.3077 18.1912 24.4897 18.732 24.7328C19.2938 24.9851 19.8773 25.2368 20.3728 25.5995C20.7063 25.8358 20.9887 26.1368 21.2033 26.4846C21.4116 26.8276 21.5417 27.2206 21.5509 27.6214C21.5605 28.0062 21.4528 28.3848 21.2421 28.7069C20.6987 29.5513 19.7531 30.1269 18.8411 30.5107C17.4769 31.0822 16.0817 31.5765 14.662 31.9911C13.8524 32.227 13.0429 32.4609 12.2274 32.6718C11.4087 32.8834 10.5742 33.1055 9.74687 33.3119C8.92222 33.5182 8.09756 33.7041 7.26962 33.8816C6.7952 33.9821 6.31749 34.0813 5.84635 34.1792C5.56249 34.2357 5.28454 34.2955 5.00001 34.3566C4.40797 34.4848 3.81593 34.6116 3.22126 34.7378C2.54445 34.8863 1.86764 35.0302 1.19083 35.1774C0.993702 35.2201 0.797887 35.272 0.601415 35.3153C0.425971 35.3554 -0.229154 35.5066 0.257097 35.4776C0.933906 35.4408 2.74092 35.2838 6.60136 34.7706C8.00097 34.5406 9.40518 34.3435 10.8068 34.1161C12.5525 33.8368 14.2879 33.496 16.0097 33.0944C16.5025 32.9787 16.9914 32.8552 17.4815 32.7224C17.8048 32.6331 18.1248 32.5404 18.4422 32.4419C19.7958 32.0253 21.9675 31.2893 22.4814 31.0672C24.4454 30.213 25.6683 29.5704 26.3063 28.0393C26.5238 27.4959 26.6263 26.8874 26.56 26.3046C26.493 25.7612 26.313 25.2379 26.0317 24.7683C25.7623 24.3248 25.3943 23.9463 25.0099 23.5967C24.2937 22.9488 23.4907 22.4258 22.6325 21.9822C22.3892 21.8561 22.1425 21.7367 21.8926 21.6241C21.5824 21.484 21.27 21.3486 20.9556 21.218C20.5129 21.038 20.0646 20.8723 19.6112 20.7212C18.433 20.3204 17.2365 19.963 16.0524 19.5792C15.3817 19.3654 14.7203 19.1236 14.0699 18.8544C13.7957 18.741 13.5249 18.6196 13.2577 18.4904C12.9436 18.3393 12.6381 18.1737 12.3358 17.9963C11.9646 17.7735 11.3568 17.3904 11.5263 16.8693C11.6446 16.4981 12.052 16.3535 12.3845 16.2201C12.6926 16.0966 13.0186 16.0099 13.3392 15.9264C14.3183 15.6767 15.3177 15.5085 16.306 15.2995C16.5966 15.2387 16.8866 15.1752 17.176 15.109C17.9468 14.9296 18.7412 14.7956 19.4758 14.5058C20.1066 14.2594 20.9162 13.8658 21.1521 13.1784C21.4905 12.1777 21.1061 11.0954 20.5541 10.2511C20.3542 9.94831 20.1488 9.64928 19.9378 9.35415C19.6473 8.95135 19.3267 8.5722 19.0132 8.18846C18.8713 8.01433 18.6985 8.02747 18.5533 8.07215C18.3601 8.13786 17.8318 8.75159 13.6113 9.55259Z" fill="#CC0000"/>
<path fill-rule="evenodd" clip-rule="evenodd" d="M78.3235 18.3235L78.3806 18.1921L78.447 18.0784L78.5048 17.9739L78.562 17.8845L78.6014 17.7965L78.6435 17.7308L78.6763 17.6664L78.7191 17.627L78.8216 17.4489L78.882 17.3424L78.9543 17.238L79.1087 16.9791L79.2027 16.8398L79.2993 16.6952L79.3236 16.6709L79.3564 16.6623L79.4287 16.688L79.4649 16.7116L79.5135 16.7681L79.6101 16.9061L79.71 17.0901L79.8217 17.3424L79.9399 17.6427L80.0694 18.0068L80.0937 18.0705L80.1358 18.1769L80.1903 18.3149L80.2659 18.4924L80.2751 18.5252L80.2902 18.5659L80.3145 18.6468L80.3322 18.7112L80.3473 18.7769V18.8248L80.3565 18.8741L80.3473 18.8886V18.9543L80.2994 19.0187L80.2665 19.0588L80.1844 19.0916L80.0753 19.1245L79.9399 19.1409H79.8545L79.7737 19.1481L78.9694 19.2125H78.8156L78.6947 19.2217H78.5679L78.4713 19.229L78.3714 19.2217H78.1842L78.0935 19.2053L78.0363 19.1889L77.9884 19.1573L77.9601 19.1159L77.9365 19.0588L77.9483 19.0036L77.9601 18.9287L78.0028 18.8485L78.0633 18.744L78.1178 18.6547L78.1658 18.5738L78.2144 18.5081L78.2505 18.4437L78.2841 18.3951L78.2992 18.3471L78.3235 18.3235ZM73.1745 22.1451C73.1745 22.1451 73.2901 22.1747 73.2901 22.176C73.7278 22.3009 73.9426 22.5926 73.6075 22.9751C73.5017 23.0973 73.4169 23.234 73.3315 23.3673L73.2592 23.4883C73.187 23.6078 73.1331 23.7189 73.1213 23.8602L73.1265 23.9344C73.1475 24.1296 73.3052 24.3385 73.4018 24.5061C73.6036 24.8491 73.8158 25.1546 74.0517 25.4694C74.0872 25.5206 74.6037 24.6743 74.6372 24.6263C74.8218 24.3727 75.036 24.148 75.2266 23.8996C75.4645 23.5881 75.7253 23.2931 76.0696 23.094C76.414 22.8942 76.8095 22.8147 77.2058 22.7733C77.598 22.73 77.991 22.7122 78.3806 22.6912C79.1836 22.6491 79.982 22.5598 80.779 22.4822C81.0879 22.452 81.5439 22.3764 81.8219 22.5269C82.0913 22.6715 82.2963 22.9225 82.5046 23.1374C82.7549 23.3989 83 23.6657 83.2359 23.9384C83.5172 24.261 83.7675 24.606 84.0783 24.9043C84.2748 25.0948 84.4778 25.2624 84.7012 25.4234L84.8162 25.497C85.2118 25.6922 85.4898 25.4352 85.5745 25.0383C85.6954 24.4522 85.3597 23.8819 85.085 23.3884C84.9344 23.1184 84.7954 22.8422 84.6684 22.5604C84.5593 22.3304 84.4502 21.975 84.6441 21.7542C84.7952 21.5853 85.1054 21.5768 85.3117 21.5229C85.5555 21.4585 85.7953 21.3849 86.0398 21.3363C86.5293 21.2364 87.0149 21.1063 87.5136 21.0439C87.7916 21.011 88.2476 20.8066 88.4868 21.0478C88.8009 21.3599 88.5019 21.948 88.381 22.2818C88.1845 22.839 87.9854 23.416 87.9223 24.006C87.8671 24.5429 87.9999 25.1205 88.3449 25.5489C88.5985 25.8643 89.0249 26.1357 89.4231 25.907C89.7405 25.723 89.9731 25.3314 90.1151 25.0061C90.3812 24.3852 90.5652 23.7406 90.7768 23.1012C90.9673 22.5256 91.1644 21.9513 91.3813 21.3823C91.541 20.9683 91.7249 20.5602 91.8859 20.1469C91.9884 19.8782 92.1304 19.6278 92.2427 19.363C92.3328 19.1396 92.3636 18.8485 92.5864 18.7079C92.8584 18.5397 93.1936 19.0272 93.3237 19.1974C93.5714 19.5155 93.7922 19.8479 94.0189 20.1798C94.2686 20.5379 94.4959 21.0123 94.9007 21.2167C95.5985 21.5715 96.2241 20.7422 96.617 20.2967C96.8891 19.9932 97.1637 19.6797 97.445 19.3748C97.7433 19.0483 98.0488 18.7243 98.3452 18.3977C98.5384 18.1888 98.792 17.7787 99.1094 17.7722C99.3841 17.7682 99.4478 18.0652 99.4721 18.2781C99.5937 19.298 99.6384 20.3348 99.7921 21.3573C99.8526 21.7371 99.9281 22.1149 99.9945 22.4928L100.091 23.027C100.14 23.2806 100.191 23.5342 100.246 23.7866C100.363 24.3103 100.487 24.834 100.648 25.3465C100.789 25.7802 100.97 26.25 101.334 26.5549C101.765 26.9163 102.557 26.7954 102.834 26.2908C102.892 26.185 102.917 26.0562 102.94 25.9372C102.989 25.6862 102.965 25.4234 102.944 25.1711C102.871 24.2715 102.618 23.3923 102.602 22.4849C102.599 22.1103 102.629 21.7391 102.659 21.3658C102.723 20.4958 102.834 19.6285 102.882 18.7572C102.944 17.692 103.04 16.5651 102.729 15.5262C102.642 15.2271 102.517 14.9405 102.357 14.6733C102.216 14.4341 102.046 14.2127 101.853 14.0136C101.655 13.8029 101.426 13.6246 101.173 13.4853C100.932 13.3552 100.617 13.2527 100.342 13.2389C99.6811 13.206 98.9951 13.5687 98.4779 13.9479C98.0364 14.2699 97.6382 14.6372 97.2603 15.0295C96.5901 15.7339 95.9159 16.4613 95.3206 17.234C95.1484 17.4594 94.9395 17.8661 94.5925 17.8234C94.1818 17.7695 93.9637 17.1578 93.8369 16.8352C93.7116 16.531 93.5766 16.231 93.4321 15.9356C93.2455 15.5591 93.0549 15.1865 92.8768 14.8054C92.7283 14.49 92.5772 14.1614 92.3479 13.8966C92.085 13.5957 91.7466 13.4498 91.3721 13.3269C91.1066 13.2408 90.7281 13.1318 90.4692 13.2855C90.121 13.4912 90.188 14.0077 90.167 14.3415C90.1453 14.6405 90.1124 14.9296 90.0848 15.2286C90.0093 15.9487 89.9646 16.6906 89.801 17.3976C89.7287 17.7111 89.6229 18.1053 89.3502 18.3071C89.1393 18.4621 88.8732 18.4411 88.6287 18.4516C88.429 18.4602 88.2272 18.4542 88.0242 18.4483C87.5649 18.4385 87.1062 18.4201 86.6469 18.4319C86.254 18.4437 85.8584 18.468 85.4628 18.4825C85.1119 18.4976 84.7584 18.5318 84.4049 18.5318C84.0093 18.5541 83.5257 18.6172 83.1544 18.4437C82.8614 18.3057 82.7037 17.9923 82.5736 17.7144C82.3863 17.3194 82.1484 16.9488 81.9244 16.5723C81.722 16.2372 81.5262 15.8995 81.3205 15.567C81.0248 15.0873 80.7311 14.6102 80.4288 14.1358C80.2318 13.8211 80.0273 13.5111 79.8157 13.206C79.6436 12.9583 79.4254 12.6258 79.1232 12.5226C78.8465 12.4274 78.5738 12.6081 78.5167 12.8794C78.4772 13.0555 78.5193 13.2356 78.4832 13.4117C78.4437 13.5983 78.3688 13.7823 78.29 13.9571C78.1362 14.3086 77.9305 14.6372 77.7222 14.9591C77.0211 16.0368 76.4981 17.2327 75.8732 18.353C75.7549 18.562 75.6314 18.7664 75.5131 18.9753C75.3534 19.2677 75.2483 19.5095 74.8974 19.6022C74.582 19.6843 74.2449 19.6423 73.9275 19.7198C73.5352 19.8171 73.4196 20.1515 73.3532 20.5142C73.2987 20.8211 73.2901 21.1345 73.2415 21.444C73.2054 21.6674 73.1508 21.9191 73.1745 22.1451ZM30.3364 28.4546C30.0131 28.4651 29.6925 28.5249 29.3731 28.5071C28.9986 28.4855 28.762 28.2607 28.624 27.9322C28.4604 27.5392 28.3671 27.095 28.2672 26.6831C28.1766 26.2934 28.1036 25.9103 28.1463 25.5121C28.1733 25.2953 28.2068 25.1376 28.3849 24.9877C28.6661 24.7578 29.0584 24.9076 29.3547 24.7433C29.6209 24.5955 29.7083 24.2741 29.7326 23.9955C29.7746 23.527 29.7234 23.0243 29.6997 22.5539C29.6268 21.3448 29.7083 20.1121 29.5538 18.9109C29.521 18.6336 29.4303 18.3156 29.1188 18.2335C28.5025 18.0705 28.4966 17.4666 28.4578 16.9456C28.4335 16.619 28.4302 16.2339 28.5629 15.9271C28.741 15.5059 29.2161 15.2877 29.6327 15.1609C30.0375 15.0373 30.4488 14.9243 30.8595 14.8133C31.2761 14.7016 31.7085 14.6405 32.1343 14.5682C32.5725 14.4952 33.0108 14.4328 33.4517 14.3651C33.8808 14.2988 34.3099 14.2403 34.7449 14.1943C35.1497 14.149 35.5571 14.0997 35.9651 14.076C36.4428 14.0478 36.9258 14.0195 37.4035 14.0018C37.8326 13.9834 38.261 13.9926 38.6875 13.9952C39.1139 13.9985 39.5364 14.0162 39.9596 14.0294C40.3946 14.0445 40.8355 14.0806 41.2646 14.1384C41.8902 14.2225 42.4848 14.3297 43.023 14.6773C43.5815 15.0426 43.9534 15.7904 43.4008 16.343C42.8416 16.9022 41.9414 16.8095 41.2166 16.8095C40.6223 16.811 40.028 16.8216 39.4339 16.8411C38.8623 16.8595 38.2912 16.9173 37.7176 16.9528C37.1853 16.9856 36.657 17.0231 36.1228 17.0638C35.5728 17.1052 35.0196 17.1578 34.4696 17.2117C34.0313 17.2531 33.591 17.2951 33.1587 17.374C32.7959 17.4397 32.3701 17.5041 32.0922 17.7669C31.8865 17.9621 31.8773 18.2887 31.9621 18.5443C32.1283 19.0371 32.884 18.9122 33.2829 18.9024C34.189 18.8754 35.0859 18.7276 35.9894 18.6678C36.406 18.6395 36.8207 18.6244 37.234 18.6008C37.736 18.5712 38.2341 18.5548 38.7387 18.5784C39.1796 18.5995 39.612 18.6501 40.0437 18.7381C40.5727 18.8472 41.0655 19.0483 41.5517 19.2704C42.174 19.4839 42.0748 20.2619 41.9716 20.762C41.9171 21.0241 41.8297 21.2548 41.5905 21.402C41.0471 21.7331 40.2763 21.6497 39.6692 21.6655C39.0712 21.6826 38.47 21.7345 37.8753 21.7883C36.9356 21.8764 35.996 21.9684 35.059 22.084C34.4847 22.1557 33.911 22.2542 33.3374 22.314C32.9497 22.3554 32.4424 22.3166 32.1257 22.5867L32.0679 22.636L32.0258 22.6597L31.9956 22.7162L31.9588 22.7911C31.9168 23.0296 31.669 23.8161 31.9168 24.0047L31.968 24.0284H32.0495C32.3642 24.0297 32.675 24.012 32.9891 23.9982C33.4668 23.9778 33.9439 23.9587 34.4242 23.9193C35.3429 23.8451 36.2615 23.7701 37.1801 23.6913C37.778 23.6387 38.3944 23.6059 38.9983 23.552C39.9034 23.4754 40.8102 23.4206 41.718 23.3877C42.2673 23.366 42.7963 23.3746 43.3128 23.1492C43.9107 22.885 44.4068 22.4231 44.993 22.1228C45.7328 21.745 46.4911 21.4079 47.2402 21.0517C48.1588 20.6141 49.0564 20.1108 49.9902 19.7047C50.709 19.3932 51.4312 19.0844 52.15 18.7736C52.4983 18.6244 52.8538 18.4845 53.1863 18.2965C53.4163 18.1638 54.0109 17.876 53.8598 17.5185C53.7816 17.3339 53.5431 17.307 53.3676 17.2859C52.679 17.2038 50.9508 17.3306 49.8929 17.4916C48.1799 17.7873 47.9413 18.0094 47.4643 17.5428C47.1016 17.1591 47.1923 16.6177 47.2468 16.1432C47.3007 15.655 47.5372 14.9164 47.7028 14.7325C48.1983 14.0911 49.8325 14.0162 50.594 13.961C50.987 13.9328 51.3858 13.9216 51.7814 13.9177C52.3373 13.9137 52.8906 13.9505 53.4432 13.9505C53.9224 13.97 54.401 14.0029 54.8783 14.0491C55.4224 14.103 56.0177 14.1161 56.546 14.2837C56.7188 14.3389 56.8903 14.3954 57.0539 14.4716C57.6007 14.7239 58.0987 15.0538 58.4706 15.5249C58.6914 15.8042 58.836 16.1248 58.9089 16.4698C58.9451 16.6354 58.9694 16.7984 58.9451 16.9666C58.9267 17.0908 58.8905 17.3385 58.8123 17.4371L58.7795 17.4785C58.7033 17.6427 58.558 17.7906 58.4253 17.9082C57.7787 18.4694 56.8365 18.6737 56.0565 18.9917C55.6701 19.1494 55.2896 19.3321 54.9085 19.5036C53.8388 19.9859 52.7789 20.4866 51.6874 20.9243C50.7905 21.287 49.8962 21.6589 49.0354 22.1018C48.7989 22.224 48.4552 22.3988 48.3126 22.636C48.1713 22.8864 48.4795 22.8857 48.6786 22.8896C48.8961 22.8969 49.1169 22.8837 49.3377 22.8673C49.9987 22.8147 50.6604 22.7523 51.3254 22.6807C52.0022 22.6058 52.6849 22.546 53.3624 22.4612C53.9998 22.3804 54.6372 22.2989 55.2712 22.2299C55.9579 22.1609 56.6477 22.1276 57.3378 22.13C58.0357 22.13 58.7151 22.1386 59.4044 22.2523L59.5069 22.2687L59.6882 22.2779C59.9787 22.2779 60.2836 22.2391 60.4314 21.9513C60.6732 21.4848 60.8125 20.923 60.9873 20.4288C61.2107 19.7888 61.4433 19.1501 61.676 18.5127C61.7062 18.4247 61.7397 18.3366 61.7732 18.2486C62.0387 17.5277 62.2989 16.8036 62.588 16.092C62.703 15.8042 62.8246 15.519 62.9179 15.222C62.9875 14.9999 63.0204 14.7745 63.1262 14.5623C63.3016 14.2225 63.619 14.0031 63.9751 14.2508C64.2629 14.4506 64.4588 14.7982 64.625 15.0998C64.7972 15.4178 64.9457 15.7339 65.0265 16.088C65.1086 16.4442 65.0212 16.7609 64.9122 17.1026C64.8005 17.4535 64.6552 17.8011 64.5619 18.1572C64.3589 18.9234 65.1205 19.5411 65.7066 19.89C66.2356 20.2061 66.8427 20.4203 67.4104 20.6568C67.8362 20.8342 68.2627 21.0215 68.7128 21.1089C68.9822 21.1602 69.3232 21.214 69.5618 21.0452C69.9481 20.7679 70.0658 20.2258 70.1965 19.7987C70.3536 19.2736 70.4705 18.7348 70.5888 18.1993C70.6913 17.7557 70.761 17.3056 70.8096 16.8529C70.849 16.4968 70.8819 16.1386 70.9036 15.7818C70.9266 15.3173 70.8911 14.8698 70.8845 14.4072C70.8845 14.1089 70.939 13.7225 71.1513 13.4899C71.4227 13.1817 71.8945 13.3401 72.1238 13.6325C72.1304 13.639 72.2079 13.7389 72.2079 13.7389C72.3479 13.9715 72.4497 14.2271 72.5279 14.486C72.6639 14.9519 72.7401 15.4309 72.7888 15.9119C72.8308 16.3082 72.8578 16.7051 72.8729 17.1039C72.9208 18.4786 72.8249 19.8558 72.637 21.2167C72.5345 21.9513 72.3715 22.6656 72.2145 23.3884C72.1238 23.7853 72.0541 24.194 71.882 24.5672C71.7639 24.8155 71.6103 25.0453 71.4259 25.2493C71.3379 25.3465 71.242 25.428 71.1322 25.497C70.7551 25.7316 70.2622 25.7224 69.8338 25.6803C69.2358 25.6251 68.6615 25.4727 68.0991 25.2683C67.7451 25.1439 67.3973 25.0025 67.0569 24.8445C66.7093 24.6802 66.3591 24.5159 66.024 24.328C65.6859 24.1384 65.358 23.9311 65.0416 23.7071C64.7393 23.4968 64.4436 23.2629 64.1874 23.002C63.96 22.772 63.7912 22.4763 63.5796 22.2332C63.3529 21.9763 63.1781 21.8902 63.0296 22.2437C62.9396 22.4737 62.8909 22.7148 62.8364 22.9567C62.7457 23.3792 62.6189 23.7977 62.4862 24.2104C62.3593 24.6178 61.812 25.7487 61.2167 25.2223C61.0241 25.0515 60.8848 24.8327 60.5944 24.836C60.2987 24.8399 60.0175 24.9595 59.7303 25.0219C59.428 25.0896 59.1139 25.1251 58.8058 25.1862C58.2229 25.3038 57.6394 25.4385 57.0599 25.5542C56.6728 25.6278 56.2865 25.6816 55.9021 25.7473C55.5315 25.8104 55.1563 25.8577 54.7817 25.9136C54.3953 25.9701 54.0109 26.0312 53.6272 26.0759C53.0233 26.1501 52.4221 26.2218 51.8202 26.2849C51.3372 26.3479 50.8575 26.3952 50.3765 26.4504C49.9751 26.4938 49.5762 26.5352 49.1741 26.5746C48.5033 26.6438 47.8305 26.692 47.1568 26.7192C46.1383 26.7547 45.0836 26.8145 44.0803 26.6141C43.8568 26.5713 43.5243 26.5444 43.3555 26.3801C43.2346 26.2638 43.3312 26.0647 43.2405 25.928L43.2254 25.9037L43.1859 25.8623L43.1498 25.8374L43.1104 25.8203H43.0289L42.9868 25.8374L42.9382 25.8538L42.8962 25.8867L42.8107 25.9445L42.7569 26.0082L42.7148 26.0818L42.6905 26.1639C42.473 26.8578 41.7357 27.1187 41.0655 27.2041L30.3364 28.4546ZM130.501 23.0703C129.093 23.1702 127.766 23.4055 126.337 23.2714C125.875 23.2267 125.08 23.1893 124.691 22.9376C123.549 22.1944 127.549 20.8704 128.041 20.6969C129.428 20.208 132.222 19.411 132.222 19.411C132.222 19.411 134.848 18.7664 134.927 17.3694C135.023 15.6741 133.258 14.9072 131.908 14.4834C131.352 14.3586 130.789 14.2669 130.222 14.2087C129.836 14.1731 129.45 14.1504 129.062 14.1404C128.334 14.1148 127.624 14.1851 126.899 14.2718C126.156 14.3599 124.576 14.4059 124.346 15.3284C124.231 15.7983 123.693 16.7668 124.143 17.192C124.62 17.644 125.398 17.4561 125.984 17.3996C126.793 17.3208 127.594 17.1709 128.4 17.0921C128.996 17.0336 129.772 16.9042 130.262 17.3352C130.863 17.8714 129.267 18.3787 128.95 18.5127C127.746 19.02 126.486 19.384 125.277 19.8815C124.143 20.3467 123.007 20.7948 121.902 21.3166C121.394 21.5551 120.92 21.8495 120.443 22.1359L120.213 21.9809L118.82 22.1267L117.425 22.2404C116.492 22.3167 115.545 22.3429 114.609 22.387C114.14 22.4027 113.406 22.4211 113.037 22.0762C112.232 21.3205 112.681 20.2724 113.213 19.5411C113.795 18.746 114.614 18.1559 115.455 17.6552C116.02 17.3194 116.645 17.0441 117.279 16.8562C117.708 16.7281 118.153 16.6216 118.6 16.5565C118.663 16.6788 118.736 16.801 118.805 16.9206C118.841 16.9889 119.884 16.5565 119.983 16.5053C120.303 16.341 120.751 16.0118 120.76 15.613C120.775 15.128 120.352 14.6444 119.968 14.4026C119.539 14.1332 119.053 14.0432 118.549 14.0386C118.002 14.0313 117.452 14.0642 116.913 14.1345C116.532 14.1872 116.156 14.2673 115.786 14.3743C115.171 14.5518 114.584 14.7922 114.025 15.1011C113.267 15.5198 112.576 16.0495 111.975 16.6729C111.695 16.9647 111.447 17.2859 111.237 17.6309C110.967 18.0692 110.772 18.5541 110.614 19.0423C110.189 20.3933 110.318 22.0748 110.935 23.3496C111.358 24.2249 112.013 24.9851 112.853 25.495C113.911 26.1383 115.249 26.3506 116.461 26.1206C116.949 26.0314 117.427 25.8927 117.887 25.7066C118.382 25.5088 118.866 25.3623 119.328 25.0981C119.418 25.0502 120.407 24.491 120.463 24.5659C120.618 24.7643 120.708 25.0075 120.874 25.1967C121.035 25.3807 121.237 25.5476 121.43 25.6908C121.839 25.9931 122.301 26.1127 122.799 26.1712C124.047 26.319 125.313 26.3939 126.571 26.4104C127.573 26.4235 128.588 26.3558 129.585 26.2638C130.232 26.2047 130.878 26.1206 131.521 26.043C133.159 25.8446 134.513 25.4845 136.287 24.7288C136.929 24.4341 137.501 24.0042 137.963 23.4685C137.768 23.3513 137.564 23.2511 137.352 23.1689C136.062 22.6564 134.591 22.636 133.219 22.8095C132.588 22.8883 131.957 22.9494 131.325 23.0046C131.051 23.0296 130.775 23.0506 130.501 23.0703ZM108.648 24.5179C108.663 24.2814 108.636 24.0428 108.566 23.8602C108.382 23.3818 107.871 22.8969 107.364 22.8042C106.904 22.7227 106.352 22.8095 105.977 23.0999C105.774 23.2583 105.554 23.5139 105.448 23.7504C105.215 24.2715 105.239 25.0449 105.581 25.5055C106.158 26.2862 107.379 26.2862 108.058 25.6534C108.384 25.3511 108.614 24.9674 108.648 24.5179Z" fill="#1A1919"/>
</g>
<defs>
<clipPath id="clip0_47_107">
<rect width="137.838" height="38.0769" fill="white" transform="translate(0.0807953)"/>
</clipPath>
</defs>
</svg>
