<svg width="100" height="73" viewBox="0 0 100 73" fill="none" xmlns="http://www.w3.org/2000/svg">
<g clip-path="url(#clip0_168_3049)">
<path d="M47.8767 12.234V43.2705H22.3184L47.8767 12.234Z" fill="#03363D"/>
<path d="M47.8767 1.09375C47.8767 4.50271 46.5304 7.77205 44.1338 10.1825C41.7372 12.593 38.4868 13.9472 35.0975 13.9472C31.7083 13.9472 28.4579 12.593 26.0613 10.1825C23.6647 7.77205 22.3184 4.50271 22.3184 1.09375H47.8767Z" fill="#03363D"/>
<path d="M52.0879 43.2705C52.0879 39.8615 53.4343 36.5922 55.8308 34.1817C58.2274 31.7712 61.4778 30.417 64.8671 30.417C68.2563 30.417 71.5068 31.7712 73.9033 34.1817C76.2999 36.5922 77.6463 39.8615 77.6463 43.2705H52.0879Z" fill="#03363D"/>
<path d="M52.0879 32.1303V1.09375H77.649L52.0879 32.1303Z" fill="#03363D"/>
<path d="M66.3838 69.8218C67.6981 69.8513 68.9708 69.3571 69.9244 68.4468L71.6797 70.3525C70.5205 71.5515 68.9128 72.4425 66.4138 72.4425C62.1295 72.4425 59.3626 69.5853 59.3626 65.716C59.3452 64.8298 59.5055 63.9492 59.8339 63.1267C60.1622 62.3042 60.6519 61.5566 61.2738 60.9286C61.8956 60.3006 62.6368 59.805 63.4532 59.4714C64.2696 59.1377 65.1445 58.9729 66.0256 58.9868C70.2799 58.9868 72.6913 62.2428 72.4808 66.7583H62.4248C62.7802 68.6338 64.0899 69.83 66.381 69.83L66.3838 69.8218ZM69.4459 64.605C69.1725 62.8533 68.1363 61.5635 66.0529 61.5635C64.1199 61.5635 62.772 62.6635 62.4248 64.605H69.4459Z" fill="#03363D"/>
<path d="M0.352539 69.6815L8.09278 61.7725H0.535723V59.292H11.6799V61.8247L3.93968 69.731H11.7838V72.2142H0.352539V69.6815Z" fill="#03363D"/>
<path d="M20.4756 69.8218C21.7899 69.8513 23.0626 69.3571 24.0162 68.4468L25.7715 70.3525C24.6123 71.5515 23.0046 72.4425 20.5056 72.4425C16.2213 72.4425 13.4544 69.5853 13.4544 65.716C13.437 64.8298 13.5973 63.9492 13.9257 63.1267C14.254 62.3042 14.7437 61.5566 15.3656 60.9286C15.9874 60.3006 16.7286 59.805 17.545 59.4714C18.3614 59.1377 19.2363 58.9729 20.1174 58.9868C24.3717 58.9868 26.7831 62.2428 26.5726 66.7583H16.5166C16.872 68.6338 18.1817 69.83 20.4728 69.83L20.4756 69.8218ZM23.5378 64.605C23.2644 62.8533 22.2281 61.5635 20.1447 61.5635C18.2117 61.5635 16.8638 62.6635 16.5166 64.605H23.5378Z" fill="#03363D"/>
<path d="M43.2832 65.7133C43.2832 61.5883 46.3536 58.9923 49.733 58.9923C50.5445 58.9815 51.3485 59.1494 52.0887 59.4843C52.8288 59.8193 53.4871 60.3131 54.0173 60.9311V53.3081H56.7514V72.1758H54.0173V70.3911C53.4972 71.0345 52.8399 71.552 52.094 71.9052C51.3481 72.2584 50.5328 72.4383 49.7083 72.4316C46.4274 72.4316 43.2832 69.8218 43.2832 65.7133ZM54.1704 65.6886C54.1489 64.882 53.8914 64.0997 53.4302 63.4396C52.969 62.7794 52.3244 62.2707 51.5773 61.977C50.8301 61.6833 50.0134 61.6178 49.2294 61.7885C48.4453 61.9593 47.7287 62.3587 47.1692 62.937C46.6097 63.5152 46.2322 64.2465 46.0837 65.0394C45.9353 65.8324 46.0226 66.6517 46.3347 67.395C46.6469 68.1383 47.1699 68.7725 47.8386 69.2183C48.5072 69.6642 49.2916 69.9018 50.0938 69.9016C52.4424 69.9016 54.1704 68.0151 54.1704 65.6886Z" fill="#03363D"/>
<path d="M74.2607 69.4341L76.7378 68.1416C77.0653 68.7288 77.546 69.2149 78.1281 69.5473C78.7102 69.8798 79.3715 70.046 80.0406 70.0281C81.5881 70.0281 82.3892 69.2278 82.3892 68.3231C82.3892 67.2891 80.8937 67.0553 79.2669 66.7198C77.0796 66.2551 74.8021 65.5291 74.8021 62.8698C74.8021 60.8266 76.7351 58.9401 79.7809 58.9676C82.1787 58.9676 83.9613 59.9246 84.9757 61.4728L82.679 62.7406C82.3618 62.2679 81.9299 61.8845 81.4242 61.6266C80.9185 61.3686 80.3557 61.2447 79.7891 61.2666C78.3182 61.2666 77.569 61.9898 77.569 62.8176C77.569 63.7471 78.7556 64.0056 80.6148 64.4208C82.731 64.8856 85.1288 65.5841 85.1288 68.2708C85.1288 70.0528 83.5813 72.4563 79.9176 72.4316C77.2354 72.4316 75.3516 71.3453 74.2662 69.4341" fill="#03363D"/>
<path d="M92.5526 66.4365L90.3845 68.8153V72.173H87.6504V53.3053H90.3845V65.661L96.189 59.2508H99.5191L94.4856 64.781L99.6476 72.173H96.5526L92.5526 66.4365Z" fill="#03363D"/>
<path d="M35.0189 58.9895C31.7681 58.9895 29.0449 61.1098 29.0449 64.6243V72.173H31.831V64.9735C31.831 62.8533 33.0422 61.5855 35.1119 61.5855C37.1816 61.5855 38.2096 62.8533 38.2096 64.9735V72.173H40.982V64.6243C40.982 61.1098 38.2479 58.9895 35.008 58.9895" fill="#03363D"/>
</g>
<defs>
<clipPath id="clip0_168_3049">
<rect width="100" height="72" fill="white" transform="translate(0 0.998535)"/>
</clipPath>
</defs>
</svg>
