<svg width="101" height="20" viewBox="0 0 101 20" fill="none" xmlns="http://www.w3.org/2000/svg">
<path fill-rule="evenodd" clip-rule="evenodd" d="M33.7431 16.3946H25.1799C24.8945 16.3941 24.6784 16.1739 24.6779 15.8829V14.8178C24.6717 14.5563 24.7542 14.4402 24.9117 14.241L31.728 6.16454H25.0494C24.7635 6.16402 24.5474 5.94379 24.5469 5.65287V4.8981C24.5474 4.60718 24.7635 4.38695 25.0494 4.38642H33.6995C33.9855 4.38695 34.2015 4.60718 34.2015 4.8981V5.98531C34.2059 6.18215 34.1386 6.34876 33.985 6.52379L27.1522 14.6165H33.7431C34.0285 14.617 34.2446 14.8373 34.2451 15.1282V15.8824C34.2446 16.1739 34.0285 16.3941 33.7431 16.3946ZM50.6237 16.6167C51.2377 16.6041 51.6918 16.4806 51.8697 16.2774C51.9323 16.2054 51.9617 16.1226 51.9537 16.0404C51.9496 15.9726 51.9496 15.9726 51.781 15.1689L51.7774 15.15C51.741 14.94 51.5933 14.8446 51.4721 14.8446L51.4556 14.8459C51.4556 14.8459 51.3016 14.8383 51.1498 14.8383H51.1485C50.7112 14.8241 50.3489 14.7595 50.3414 14.1075V0.466473C50.3409 0.239412 50.2068 0.00551884 49.9484 0L49.8721 0.000525597L48.6767 0.312209C48.473 0.333495 48.2608 0.481453 48.2701 0.755555V14.1519C48.2719 15.7387 49.1081 16.6135 50.6225 16.6167H50.6237ZM74.7943 16.3946H73.7276C73.4416 16.3941 73.2263 16.1739 73.2251 15.8829V7.67197C73.206 6.28306 72.7986 5.89675 71.3309 5.87625C69.6711 5.87625 67.9904 6.29988 67.4368 6.45415V15.8824C67.4361 16.1789 67.2344 16.3941 66.9562 16.3946H65.8673C65.5814 16.3941 65.3655 16.1739 65.3655 15.8829V6.67359C65.3495 5.82106 65.4277 5.23159 66.6174 4.83897C67.7566 4.43846 69.9362 4.09866 71.3763 4.09734C74.1208 4.10102 75.2927 5.11044 75.2964 7.47172V15.8824C75.2956 16.1739 75.0803 16.3941 74.7943 16.3946ZM85.5175 6.21211C85.1189 6.10883 84.0073 5.85365 82.7549 5.85365C80.4552 5.87546 79.49 6.51196 79.466 10.4017C79.4931 14.6735 80.7406 14.9043 82.775 14.9269L82.7768 15.0165V14.9269C84.0424 14.9269 85.1287 14.6578 85.5162 14.5495L85.5175 6.21211ZM86.0781 16.2348L85.9512 16.2674C85.272 16.443 84.3425 16.6832 82.7124 16.6832H82.7088C78.2165 16.6761 77.3344 14.3668 77.33 10.3794C77.3357 5.8066 78.7575 4.10365 82.5775 4.09734C83.9256 4.09734 84.8538 4.27526 85.5206 4.43898L85.5162 0.756081C85.5108 0.594195 85.5828 0.382377 85.9574 0.30958L87.1502 0H87.2155C87.4898 0.00683285 87.587 0.255706 87.5878 0.466473V14.3075C87.6061 15.1807 87.5053 15.9308 86.0781 16.2348ZM94.789 14.9048C91.8446 14.8917 91.6972 13.3511 91.6768 10.4025C91.6972 7.43676 91.8446 5.8886 94.789 5.87625C97.7339 5.8886 97.8809 7.43676 97.9013 10.4006C97.8809 13.3511 97.7332 14.8917 94.789 14.9048ZM94.789 4.09734C89.9353 4.10418 89.5237 7.3553 89.5188 10.4017C89.5237 13.4371 89.9353 16.6761 94.789 16.6832C99.6397 16.6761 100.053 13.446 100.06 10.4012C100.055 7.21548 99.6433 4.10418 94.789 4.09734ZM61.1453 10.4658C60.6593 10.4713 58.3012 10.5102 57.3626 10.7147L57.2886 10.731C56.233 10.9717 55.3994 11.1612 55.3891 12.7543C55.3909 14.7576 56.8957 14.9374 58.4366 14.9495L58.4379 15.0391V14.9495C59.4025 14.9495 60.313 14.8102 61.1453 14.5343V10.4658ZM63.2277 7.53899V13.908C63.2486 15.4911 62.8494 15.997 61.2856 16.367C60.6007 16.5118 59.5513 16.6832 58.4144 16.6832C56.7394 16.6792 53.2538 16.6724 53.2525 12.8421C53.2414 9.82563 55.0193 9.30134 57.1682 8.96469C58.5756 8.73474 60.0072 8.70005 60.7351 8.70005C60.9318 8.70005 61.0592 8.70189 61.1347 8.70321V7.6273C61.128 6.9088 61.1236 6.4736 60.4648 6.21973C60.0582 6.0447 59.4523 5.96455 58.5506 5.96455C57.0641 5.96455 55.7328 6.30383 54.852 6.52878L54.5155 6.6092C54.4791 6.6184 54.4404 6.62786 54.3899 6.63049C54.2349 6.63049 54.064 6.53693 54.0011 6.32827L53.9962 6.30882L53.7976 5.28416L53.7968 5.23107C53.7999 4.98955 53.9717 4.8479 54.1323 4.79587C54.8422 4.52623 56.7191 4.09866 58.7411 4.09734C60.2189 4.09866 61.2856 4.29418 62.0034 4.69679C63.2326 5.35879 63.2295 6.56768 63.2277 7.53899ZM43.7221 14.5343C42.8898 14.8102 41.9793 14.9495 41.0147 14.9495V15.0391L41.0134 14.9495C39.473 14.9374 37.9677 14.7576 37.9659 12.7543C37.9757 11.1612 38.8098 10.9717 39.8655 10.731L39.9387 10.7147C40.8781 10.5102 43.2361 10.4713 43.7221 10.4658V14.5343ZM44.5803 4.69679C43.8624 4.29418 42.7949 4.09866 41.3174 4.09734C39.2959 4.09866 37.4182 4.52623 36.7084 4.79587C36.5477 4.8479 36.3763 4.98955 36.3737 5.23107V5.28416L36.573 6.30882L36.5779 6.32827C36.64 6.53693 36.8112 6.63049 36.9662 6.63049C37.016 6.62786 37.0559 6.6184 37.0923 6.6092L37.428 6.52878C38.3091 6.30383 39.6404 5.96455 41.1266 5.96455C42.0286 5.96455 42.6345 6.0447 43.0412 6.21973C43.7005 6.4736 43.7049 6.9088 43.7116 7.6273V8.70321C43.636 8.70189 43.5086 8.70005 43.3116 8.70005C42.584 8.70005 41.1524 8.73474 39.7443 8.96469C37.5961 9.30134 35.8183 9.82563 35.8293 12.8421C35.8299 16.6724 39.3155 16.6792 40.9907 16.6832C42.1281 16.6832 43.177 16.5118 43.8624 16.367C45.4255 15.997 45.8246 15.4911 45.8045 13.908V7.53899C45.8063 6.56768 45.8094 5.35879 44.5803 4.69679Z" fill="#1D1D1B"/>
<path fill-rule="evenodd" clip-rule="evenodd" d="M4.71599 20C3.99014 20 3.58661 19.8268 3.3713 19.6996C3.07297 19.5249 2.52246 19.0784 2.02894 17.7546C1.23785 15.6354 0.770886 13.0473 0.75 10.0057V9.99435C0.770886 6.95216 1.23785 4.36461 2.02894 2.24459C2.52246 0.921646 3.07297 0.47462 3.3713 0.299857C3.58661 0.172398 3.98963 0 4.71547 0C4.9924 0 5.31652 0.025229 5.69479 0.0872502C7.89167 0.449654 10.3242 1.33109 12.919 2.83405L12.9288 2.83905C15.5026 4.37828 17.4682 6.08439 18.8745 7.84253C19.7517 8.93973 19.8556 9.64903 19.8556 10.0001C19.8556 10.3504 19.7517 11.0603 18.8745 12.1569C17.4682 13.9151 15.5026 15.6217 12.9288 17.161L12.919 17.1667C10.3242 18.6689 7.89167 19.5503 5.69479 19.9128C5.31652 19.975 4.99292 20 4.71599 20Z" fill="#FF6900"/>
</svg>
