<svg width="132" height="29" viewBox="0 0 132 29" fill="none" xmlns="http://www.w3.org/2000/svg">
<path d="M53.3799 11.1416V22.2447H55.5025H57.6188L57.6441 17.3997C57.6632 12.05 57.6441 12.3087 58.0813 11.4129C58.7783 9.99973 60.2927 9.19854 61.8387 9.41934C63.2644 9.62121 63.9994 10.5486 64.2148 12.4033C64.2528 12.7061 64.2782 14.9709 64.2782 17.589V22.2447H66.3691H68.46V16.7625C68.46 10.8135 68.4537 10.7378 68.1052 9.65907C67.6997 8.42889 67.0281 7.50783 65.8939 6.63094C65.2413 6.12625 64.9371 5.95592 64.3098 5.73512C63.8283 5.57109 63.7459 5.55848 62.6624 5.55848C61.6169 5.55848 61.4712 5.57109 60.901 5.72881C59.5513 6.10733 58.4615 6.78865 57.7899 7.67817L57.4984 8.06299V4.05072V0.0384541H55.4391H53.3799V11.1416Z" fill="#27313A"/>
<path d="M44.1292 5.44492C42.1966 5.62787 40.9737 6.17041 39.9219 7.29965C39.1362 8.145 38.7814 9.10391 38.7814 10.353C38.7814 11.6337 39.1109 12.4979 39.9093 13.337C40.7076 14.1697 41.3096 14.4978 44.0215 15.5261C45.0099 15.9046 45.8653 16.2705 46.0681 16.403C46.7524 16.8572 46.9551 17.4628 46.632 18.1189C46.2391 18.9264 45.1493 19.2797 43.654 19.0967C42.2346 18.9264 41.1195 18.4343 40.3148 17.6331L39.9916 17.3114L38.8955 18.4028C38.2872 19.0084 37.793 19.5257 37.793 19.5573C37.793 19.5888 38.0971 19.9168 38.4773 20.2891C39.7382 21.5445 41.0498 22.2195 42.8303 22.5349C43.5969 22.6674 45.2443 22.68 45.9984 22.5665C48.5075 22.169 50.3196 20.718 50.8519 18.6804C51.023 18.0369 51.0356 16.9707 50.8836 16.3777C50.6998 15.6585 50.3133 14.9646 49.8064 14.4536C48.9193 13.5641 48.3808 13.2865 45.0923 12.0185C43.4005 11.3687 43.09 11.1479 42.9253 10.4981C42.7796 9.93664 43.0774 9.40672 43.711 9.07237C44.0151 8.91465 44.0848 8.90203 44.8578 8.90203C45.5928 8.90203 45.7386 8.92096 46.2391 9.08498C46.8664 9.28686 47.6394 9.72846 48.159 10.1638L48.4948 10.4539L49.5466 8.88942L50.5984 7.32488L50.2246 6.97791C49.2742 6.10102 47.9562 5.61525 46.1124 5.46385C45.3964 5.40707 44.6044 5.39445 44.1292 5.44492Z" fill="#27313A"/>
<path d="M78.2495 5.56478C77.3561 5.68464 77.033 5.75404 76.5071 5.91806C74.0867 6.6814 72.0591 8.77586 71.3367 11.2551C71.0706 12.1762 70.9756 12.9143 70.9756 14.0435C70.9819 16.4219 71.5902 18.2198 72.9652 19.8727C74.4605 21.6769 76.5388 22.6232 79.0099 22.6232C80.9298 22.6232 82.5075 22.0239 83.8064 20.8064L84.2373 20.4026V21.3237V22.2447H86.2648H88.2924V14.1066V5.96853H86.2648H84.2373V6.91482V7.86742L83.8444 7.47628C82.894 6.55523 81.7661 5.95591 80.4799 5.67833C80.0364 5.5837 78.6234 5.508 78.2495 5.56478ZM80.9741 9.5392C82.3681 9.9114 83.5783 11.0911 84.0852 12.5673C84.3323 13.2865 84.3703 14.4662 84.1802 15.2674C83.7811 16.9329 82.4885 18.2703 80.8791 18.6867C80.3278 18.8318 79.1556 18.8318 78.598 18.693C77.0267 18.2892 75.7721 17.0212 75.3222 15.3683C75.1638 14.8006 75.1702 13.3622 75.3286 12.7818C75.7214 11.3308 76.7986 10.1259 78.1165 9.64644C78.8832 9.36886 80.1631 9.31839 80.9741 9.5392Z" fill="#27313A"/>
<path d="M91.1436 14.1066V22.2447H93.2345H95.3254V18.2829C95.3318 16.1065 95.3571 14.0372 95.3888 13.684C95.5979 11.3372 96.5547 10.0187 98.3035 9.65276C99.0385 9.50135 99.482 9.55182 100.325 9.89879C100.724 10.0628 101.079 10.1953 101.104 10.1953C101.167 10.1953 101.167 6.53 101.104 6.42906C101.072 6.3849 100.825 6.28397 100.546 6.20826C99.8748 6.02531 98.1261 6.00639 97.4798 6.17672C96.6054 6.41014 95.9971 6.86436 95.4648 7.67817L95.1987 8.08192V7.02207V5.96854H93.1711H91.1436V14.1066Z" fill="#27313A"/>
<path d="M103.943 14.1066V22.2447H106.06H108.182L108.208 17.7467C108.227 13.4821 108.233 13.2234 108.36 12.6872C108.531 11.9365 108.753 11.4129 109.101 10.9208C109.716 10.0691 110.66 9.6086 111.832 9.60229C112.377 9.60229 112.434 9.61491 113.182 9.92403L113.955 10.2521V8.30903V6.36598L113.593 6.26504C112.928 6.08209 112.294 6.0127 111.515 6.05055C110.558 6.09471 109.95 6.22719 109.475 6.51108C108.987 6.80127 108.759 7.03469 108.341 7.63401L107.999 8.13869V7.05362V5.96854H105.971H103.943V14.1066Z" fill="#27313A"/>
<path d="M116.185 6.13887C116.204 6.20195 117.42 9.62752 118.896 13.7597C121.057 19.8348 121.57 21.33 121.57 21.5886C121.577 22.2826 120.835 23.456 120.1 23.9165C119.03 24.5915 117.135 24.4843 115.773 23.6705L115.431 23.4623L115.386 25.317C115.361 26.339 115.361 27.2033 115.386 27.2411C115.412 27.279 115.64 27.4052 115.893 27.5187C117.502 28.2631 120.062 28.2 121.703 27.3799C122.356 27.0582 122.673 26.8185 123.237 26.257C123.82 25.6766 124.396 24.8376 124.859 23.9165C125.036 23.5695 126.709 19.4122 128.585 14.6744L132 6.06316L129.712 6.04424C128.458 6.03793 127.419 6.03793 127.406 6.05054C127.393 6.06316 126.589 8.2901 125.613 10.9902C123.554 16.6932 123.706 16.2894 123.649 16.1758C123.623 16.1317 123.021 13.829 122.312 11.0659L121.019 6.03162H118.586C116.305 6.03162 116.159 6.03793 116.185 6.13887Z" fill="#27313A"/>
<path d="M8.72918 0.133085C8.15892 0.259256 7.595 0.574686 7.1578 1.0226C6.82832 1.35695 6.36578 2.12029 3.50815 7.07885C1.70867 10.1953 0.181644 12.908 0.118282 13.0973C-0.0464594 13.6083 -0.0401232 14.4599 0.143627 15.0214C0.219661 15.2611 0.536471 15.8857 0.840609 16.4093L1.39819 17.3556L6.08698 17.3745L10.7694 17.3871L13.9439 12.6367C16.1172 9.38149 17.1943 7.82327 17.3464 7.7034C17.8153 7.35012 17.6506 7.36274 23.0173 7.35643C25.7419 7.35643 27.9722 7.34381 27.9722 7.33119C27.9722 7.24288 24.6204 1.52098 24.4049 1.2434C24.0881 0.83334 23.5179 0.429588 22.9603 0.221405L22.5548 0.0699997L15.8384 0.0573807C10.3576 0.0510731 9.05233 0.0636902 8.72918 0.133085Z" fill="#D32F5E"/>
<path d="M16.1805 15.3494C14.4697 17.9107 12.9807 20.0998 12.873 20.2197C12.7589 20.3332 12.5308 20.4972 12.3534 20.5793L12.0366 20.7307H7.71532C5.33291 20.7307 3.3877 20.7433 3.3877 20.7622C3.3877 20.8631 6.79657 26.6734 6.99933 26.9131C7.31614 27.2979 7.90541 27.689 8.43131 27.8657L8.86851 28.0171H15.6799C22.1555 28.0171 22.5104 28.0108 22.8398 27.8972C23.5115 27.6701 24.1071 27.2664 24.4556 26.7869C24.7154 26.4273 30.8425 15.8478 31.0832 15.3368C31.3177 14.8384 31.4127 14.1823 31.3303 13.583C31.2607 13.0783 30.9882 12.4727 30.3166 11.3435L29.93 10.7H24.6076H19.2916L16.1805 15.3494Z" fill="#D32F5E"/>
</svg>
