<svg width="90" height="76" viewBox="0 0 90 76" fill="none" xmlns="http://www.w3.org/2000/svg">
<g clip-path="url(#clip0_288_737)">
<path d="M0 60.1349H2.57576V72.4497H10.282V74.794H0V60.1349Z" fill="#202945"/>
<path d="M12.5889 60.1349H15.1646V74.7982H12.5889V60.1349Z" fill="#202945"/>
<path d="M17.3018 60.1349H20.1511L24.5703 71.4017L28.9684 60.1349H31.7546L25.6603 74.8992H23.4002L17.3018 60.1349Z" fill="#202945"/>
<path d="M33.7412 60.1349H44.6124V62.4371H36.317V66.2502H43.6697V68.5524H36.317V72.4918H44.7176V74.794H33.7412V60.1349Z" fill="#202945"/>
<path d="M46.2881 60.1349H47.5044L53.2452 73.6239L59.0069 60.1349H60.1601L53.7081 74.8992H52.7443L46.2881 60.1349Z" fill="#005CB9"/>
<path d="M61.2412 67.5085V67.4664C61.2412 63.4681 64.1958 59.8865 68.636 59.8865C73.0762 59.8865 75.9887 63.426 75.9887 67.4244C76.0097 67.4454 76.0097 67.4454 75.9887 67.4664C75.9887 71.469 73.0341 75.0506 68.5939 75.0506C64.1537 75.0506 61.2412 71.5068 61.2412 67.5085ZM74.8565 67.5085V67.4664C74.8565 63.8427 72.2176 60.8671 68.5939 60.8671C64.9702 60.8671 62.3734 63.8006 62.3734 67.4244V67.4664C62.3734 71.0902 65.0123 74.0658 68.636 74.0658C72.2597 74.0658 74.8565 71.1323 74.8565 67.5085Z" fill="#005CB9"/>
<path d="M82.8577 67.3192L77.2222 60.1349H78.5185L83.5227 66.5869L88.5058 60.1349H89.7853L84.1792 67.2982L89.9999 74.7982H88.6994L83.4848 68.0347L78.2912 74.7982H77.0117L82.8577 67.3192Z" fill="#005CB9"/>
<path d="M44.9602 49.3137C58.3165 49.3137 69.144 38.4863 69.144 25.13C69.144 11.7736 58.3165 0.946167 44.9602 0.946167C31.6038 0.946167 20.7764 11.7736 20.7764 25.13C20.7764 38.4863 31.6038 49.3137 44.9602 49.3137Z" fill="#005CB9"/>
<path d="M58.5908 37.8926C57.6682 36.536 55.2443 30.9651 43.8282 31.1098C33.1053 31.2494 31.7737 30.8753 30.7363 30.5212C30.7363 30.5212 33.3597 36.9998 44.6661 36.8203C56.955 36.6308 58.5908 37.8926 58.5908 37.8926Z" fill="white"/>
<path d="M57.7428 28.0675C56.8999 26.8257 54.6855 21.7336 44.2469 21.8682C34.4467 21.9929 33.2298 21.6538 32.2822 21.3296C32.2822 21.3296 34.6812 27.2496 45.01 27.09C56.2516 26.9155 57.7428 28.0675 57.7428 28.0675Z" fill="white"/>
<path d="M55.5037 18.776C54.8304 17.7835 53.0598 13.7138 44.721 13.8236C36.8858 13.9233 35.9182 13.649 35.1602 13.3947C35.1602 13.3947 37.0753 18.1277 45.3344 17.998C54.3067 17.8534 55.5037 18.776 55.5037 18.776Z" fill="white"/>
</g>
<defs>
<clipPath id="clip0_288_737">
<rect width="90" height="74.1044" fill="white" transform="translate(0 0.946167)"/>
</clipPath>
</defs>
</svg>
