<svg width="127" height="23" viewBox="0 0 127 23" fill="none" xmlns="http://www.w3.org/2000/svg">
<path d="M6.53081 9.48531C4.8673 9.48531 3.52138 8.13182 3.52138 6.47588C3.52138 4.81994 4.87487 3.46646 6.53081 3.46646V0.457031C3.21136 0.457031 0.504395 3.15644 0.504395 6.48344C0.504395 9.81044 3.2038 12.5099 6.53081 12.5099C9.85781 12.5099 12.5572 9.81044 12.5572 6.48344H9.54779C9.54779 8.13182 8.19431 9.48531 6.53081 9.48531Z" fill="#289E47"/>
<path d="M12.3202 0.457031C8.99871 0.457031 6.29004 3.15813 6.29004 6.48723H9.30135C9.30135 4.82268 10.6557 3.47591 12.3127 3.47591C13.9696 3.47591 15.324 4.83025 15.324 6.48723C15.324 8.1442 13.9696 9.49854 12.3127 9.49854V12.5099C15.6342 12.5099 18.3429 9.80875 18.3429 6.47966C18.3429 3.15057 15.6493 0.457031 12.3202 0.457031Z" fill="#289E47"/>
<path d="M30.0735 0.457031L24.6099 12.5099H27.7765L28.5347 10.8377H34.1842L34.9424 12.5099H38.109L32.6454 0.457031H30.0735ZM29.8653 7.90966L31.352 4.61839L32.8387 7.90966H29.8653Z" fill="#289E47"/>
<path d="M42.0249 0.457031H39.0737V12.5099H47.2696V9.58177H42.0249V0.457031Z" fill="#289E47"/>
<path d="M51.6746 0.457031H48.7158V12.5099H56.9117V9.58177H51.6746V0.457031Z" fill="#289E47"/>
<path d="M66.4974 1.24341C65.5825 0.721679 64.5542 0.457031 63.42 0.457031C62.2858 0.457031 61.2574 0.721679 60.3425 1.24341C59.4276 1.76515 58.7017 2.48348 58.1799 3.40597C57.6582 4.32089 57.3936 5.34924 57.3936 6.48344C57.3936 7.61765 57.6582 8.64599 58.1799 9.56092C58.7017 10.4758 59.42 11.2017 60.3425 11.7235C61.2574 12.2452 62.2858 12.5099 63.42 12.5099C64.5542 12.5099 65.5825 12.2452 66.4974 11.7235C67.4124 11.2017 68.1383 10.4834 68.66 9.56092C69.1817 8.64599 69.4464 7.61765 69.4464 6.48344C69.4464 5.34924 69.1817 4.32089 68.66 3.40597C68.1383 2.48348 67.4199 1.76515 66.4974 1.24341ZM66.1194 8.08645C65.8547 8.55526 65.4918 8.92576 65.0154 9.19041C64.5466 9.45506 64.0098 9.5836 63.4124 9.5836C62.8151 9.5836 62.2858 9.45506 61.8094 9.19041C61.3406 8.92576 60.9701 8.56282 60.7054 8.08645C60.4408 7.61765 60.3122 7.08079 60.3122 6.48344C60.3122 5.88609 60.4408 5.3568 60.7054 4.88043C60.9701 4.41163 61.333 4.04112 61.8094 3.77647C62.2782 3.51182 62.8151 3.38328 63.4124 3.38328C64.0098 3.38328 64.539 3.51182 65.0154 3.77647C65.4842 4.04112 65.8547 4.40407 66.1194 4.88043C66.384 5.34924 66.5126 5.88609 66.5126 6.48344C66.5201 7.08079 66.384 7.61765 66.1194 8.08645Z" fill="#289E47"/>
<path d="M76.3946 9.58177C75.8036 9.58177 75.2726 9.45314 74.8013 9.18833C74.3301 8.92351 73.9636 8.56034 73.7018 8.08368C73.44 7.61458 73.3128 7.07738 73.3128 6.47966C73.3128 5.88194 73.4475 5.35231 73.7093 4.87564C73.9785 4.40654 74.3451 4.0358 74.8163 3.77099C75.2875 3.50618 75.8186 3.37755 76.4095 3.37755C76.978 3.37755 77.5016 3.48348 77.9878 3.70289C78.4665 3.92231 78.9302 4.26279 79.3716 4.73945L80.7853 2.06861C80.2168 1.53142 79.5586 1.12285 78.8031 0.858035C78.0476 0.585655 77.2473 0.457031 76.4095 0.457031C75.2875 0.457031 74.2703 0.721845 73.3502 1.24391C72.4377 1.76597 71.7196 2.48475 71.196 3.39268C70.6724 4.30818 70.4106 5.32961 70.4106 6.46453C70.4106 7.59944 70.6724 8.62844 71.196 9.54394C71.7196 10.4594 72.4377 11.1858 73.3577 11.7154C74.2777 12.245 75.3025 12.5099 76.4394 12.5099C77.3221 12.5099 78.1523 12.3585 78.9302 12.0635C79.7081 11.7684 80.4038 11.3295 81.0171 10.7545L79.5511 8.05341C78.6834 9.06727 77.6287 9.58177 76.3946 9.58177Z" fill="#289E47"/>
<path d="M86.9656 0.457031L81.499 12.5099H84.6674L85.4186 10.8377H91.0712L91.8298 12.5099H94.9982L89.5316 0.457031H86.9656ZM86.7574 7.90966L88.2449 4.61839L89.7324 7.90966H86.7574Z" fill="#289E47"/>
<path d="M103.813 1.22878C102.948 0.714279 101.965 0.457031 100.871 0.457031H96.4448V12.5099H100.871C101.973 12.5099 102.948 12.2526 103.813 11.7381C104.677 11.2236 105.35 10.5048 105.838 9.58933C106.325 8.67383 106.569 7.63727 106.569 6.48723C106.569 5.33718 106.325 4.30818 105.838 3.38512C105.35 2.46205 104.677 1.74327 103.813 1.22878ZM103.362 8.06854C103.125 8.53764 102.793 8.90838 102.364 9.18076C101.936 9.45314 101.433 9.58177 100.879 9.58177H99.3122V3.38512H100.879C101.44 3.38512 101.936 3.52131 102.364 3.78612C102.793 4.0585 103.133 4.42924 103.362 4.89834C103.598 5.36744 103.717 5.89707 103.717 6.47966C103.717 7.06982 103.598 7.59188 103.362 8.06854Z" fill="#289E47"/>
<path d="M111.391 0.457031H108.498V12.5099H111.391V0.457031Z" fill="#289E47"/>
<path d="M120.872 0.457031H118.301L112.837 12.5099H116.004L116.762 10.8377H122.411L123.169 12.5099H126.336L120.872 0.457031ZM118.1 7.90966L119.586 4.61839L121.073 7.90966H118.1Z" fill="#289E47"/>
<path d="M28.9491 22.1532H27.8837L27.4716 20.9748H25.5898L25.1777 22.1532H24.1279L25.9242 17.332H27.1528L28.9491 22.1532ZM25.8231 20.2355H27.2461L26.5307 18.133L25.8231 20.2355Z" fill="#5B4F63"/>
<path d="M34.7343 17.332V22.1532H33.6618L32.092 19.319L31.7014 18.5335H31.6943L31.7227 19.3652V22.1532H30.8774V17.332H31.9429L33.5126 20.1585L33.9033 20.9517H33.9175L33.8891 20.12V17.332H34.7343Z" fill="#5B4F63"/>
<path d="M43.8945 17.332V20.2095C43.8945 20.8549 43.7302 21.3408 43.4017 21.6673C43.0731 21.9937 42.5946 22.1532 41.966 22.1532C41.3375 22.1532 40.859 21.9937 40.5304 21.6673C40.2019 21.3408 40.0376 20.8549 40.0376 20.2095V17.332H40.9804V20.1716C40.9804 20.5664 41.059 20.8625 41.2232 21.0599C41.3875 21.2497 41.6304 21.3484 41.966 21.3484C42.3017 21.3484 42.5446 21.2497 42.7017 21.0599C42.8589 20.8701 42.9446 20.574 42.9446 20.1716V17.332H43.8945Z" fill="#5B4F63"/>
<path d="M48.3575 17.332C48.737 17.332 49.0546 17.3936 49.3256 17.5169C49.5967 17.6401 49.7981 17.8172 49.9452 18.0483C50.0924 18.2793 50.1621 18.5566 50.1621 18.8877C50.1621 19.2112 50.0924 19.4961 49.9452 19.7272C49.7981 19.9582 49.5967 20.1354 49.3256 20.2586C49.0623 20.3818 48.737 20.4434 48.3575 20.4434H47.3275V22.1532H46.3052V17.332H48.3575ZM48.1949 19.6502C48.5047 19.6502 48.7293 19.5886 48.8842 19.4576C49.0391 19.3267 49.1165 19.1419 49.1165 18.8954C49.1165 18.6413 49.0391 18.4487 48.8842 18.3255C48.7293 18.2023 48.5047 18.133 48.1949 18.133H47.3197V19.6502H48.1949Z" fill="#5B4F63"/>
<path d="M55.9474 17.332V18.1407H54.2959V22.1532H53.2677V18.1407H51.6084V17.332H55.9474Z" fill="#5B4F63"/>
<path d="M57.3936 22.1532V17.332H61.1475V18.1407H58.439V19.3421H60.5694V20.12H58.439V21.3445H61.2505V22.1532H57.3936Z" fill="#5B4F63"/>
<path d="M68.4824 17.332V22.1532H67.5561V19.6425L67.6101 18.2331H67.5947L66.2438 22.1532H65.4101L64.0669 18.2331H64.0515L64.1055 19.6425V22.1532H63.1792V17.332H64.6613L65.5413 19.9582L65.8501 21.0441H65.8656L66.1821 19.9659L67.0543 17.332H68.4824Z" fill="#5B4F63"/>
<path d="M72.463 17.332C72.8425 17.332 73.16 17.3936 73.4311 17.5169C73.6944 17.6401 73.9035 17.8172 74.0507 18.0483C74.1978 18.2793 74.2675 18.5566 74.2675 18.8877C74.2675 19.2112 74.1978 19.4961 74.0507 19.7272C73.9035 19.9582 73.7022 20.1354 73.4311 20.2586C73.1678 20.3818 72.8425 20.4434 72.463 20.4434H71.433V22.1532H70.4106V17.332H72.463ZM72.3081 19.6502C72.6179 19.6502 72.8425 19.5886 72.9974 19.4576C73.1523 19.3267 73.2297 19.1419 73.2297 18.8954C73.2297 18.6413 73.1523 18.4487 72.9974 18.3255C72.8425 18.2023 72.6179 18.133 72.3081 18.133H71.433V19.6502H72.3081Z" fill="#5B4F63"/>
<path d="M77.8839 17.332C78.3335 17.332 78.7188 17.4291 79.04 17.6231C79.3611 17.8171 79.6109 18.0933 79.7893 18.4515C79.9677 18.8097 80.0534 19.2426 80.0534 19.7426C80.0534 20.2426 79.9677 20.6755 79.7893 21.0337C79.6109 21.3919 79.3611 21.6681 79.04 21.8621C78.7188 22.0561 78.3335 22.1532 77.8839 22.1532C77.4343 22.1532 77.0489 22.0561 76.7277 21.8621C76.3995 21.6681 76.1497 21.3919 75.9784 21.0337C75.8 20.6755 75.7144 20.2426 75.7144 19.7426C75.7144 19.2426 75.8 18.8097 75.9784 18.4515C76.1568 18.0933 76.4066 17.8171 76.7277 17.6231C77.0489 17.4291 77.4343 17.332 77.8839 17.332ZM77.8839 18.1306C77.6269 18.1306 77.4128 18.1903 77.2344 18.3172C77.056 18.4366 76.9204 18.6231 76.8277 18.862C76.7349 19.1008 76.6849 19.3918 76.6849 19.7426C76.6849 20.0859 76.7349 20.377 76.8277 20.6232C76.9204 20.8621 77.056 21.0486 77.2344 21.168C77.4128 21.2874 77.6269 21.3546 77.8839 21.3546C78.1336 21.3546 78.3477 21.2949 78.5261 21.168C78.7046 21.0486 78.8402 20.8621 78.9329 20.6232C79.0257 20.3844 79.0757 20.0934 79.0757 19.7426C79.0757 19.3918 79.0257 19.1008 78.9329 18.862C78.8402 18.6231 78.7046 18.444 78.5261 18.3172C78.3477 18.1903 78.1336 18.1306 77.8839 18.1306Z" fill="#5B4F63"/>
<path d="M89.695 20.7949C89.6039 21.0934 89.4598 21.3472 89.2626 21.5487C89.0654 21.7502 88.8302 21.8994 88.5571 22.0039C88.284 22.1009 87.9882 22.1532 87.662 22.1532C87.1841 22.1532 86.7745 22.0561 86.4331 21.8621C86.0842 21.6681 85.8187 21.3919 85.6366 21.0337C85.447 20.6755 85.356 20.2426 85.356 19.7426C85.356 19.2426 85.447 18.8097 85.6366 18.4515C85.8263 18.0933 86.0918 17.8171 86.4331 17.6231C86.7821 17.4291 87.1841 17.332 87.6468 17.332C87.973 17.332 88.2765 17.3768 88.542 17.4664C88.8075 17.5559 89.035 17.6903 89.2247 17.8694C89.4143 18.0485 89.5508 18.2724 89.6343 18.5485L88.724 18.9217C88.6406 18.6381 88.5192 18.4366 88.3447 18.3172C88.1778 18.1977 87.9579 18.138 87.6924 18.138C87.4344 18.138 87.1993 18.1977 87.0021 18.3246C86.8048 18.444 86.6531 18.6306 86.5469 18.8694C86.4407 19.1082 86.3876 19.3993 86.3876 19.7501C86.3876 20.0934 86.4407 20.3844 86.5393 20.6307C86.6379 20.8695 86.7821 21.0561 86.9793 21.1755C87.1765 21.2949 87.4117 21.3621 87.6924 21.3621C87.9503 21.3621 88.1778 21.2949 88.3751 21.1531C88.5647 21.0188 88.7013 20.8098 88.7771 20.5337L89.695 20.7949Z" fill="#5B4F63"/>
<path d="M93.3111 17.332C93.7607 17.332 94.1461 17.4291 94.4672 17.6231C94.7884 17.8171 95.0382 18.0933 95.2166 18.4515C95.395 18.8097 95.4806 19.2426 95.4806 19.7426C95.4806 20.2426 95.395 20.6755 95.2166 21.0337C95.0382 21.3919 94.7884 21.6681 94.4672 21.8621C94.1461 22.0561 93.7607 22.1532 93.3111 22.1532C92.8615 22.1532 92.4761 22.0561 92.155 21.8621C91.8267 21.6681 91.5769 21.3919 91.4057 21.0337C91.2272 20.6755 91.1416 20.2426 91.1416 19.7426C91.1416 19.2426 91.2272 18.8097 91.4057 18.4515C91.5841 18.0933 91.8338 17.8171 92.155 17.6231C92.4833 17.4291 92.8686 17.332 93.3111 17.332ZM93.3111 18.1306C93.0542 18.1306 92.8401 18.1903 92.6617 18.3172C92.4833 18.4366 92.3477 18.6231 92.2549 18.862C92.1621 19.1008 92.1122 19.3918 92.1122 19.7426C92.1122 20.0859 92.1621 20.377 92.2549 20.6232C92.3477 20.8621 92.4833 21.0486 92.6617 21.168C92.8401 21.2874 93.0542 21.3546 93.3111 21.3546C93.5609 21.3546 93.775 21.2949 93.9534 21.168C94.1318 21.0486 94.2674 20.8621 94.3602 20.6232C94.453 20.3844 94.5029 20.0934 94.5029 19.7426C94.5029 19.3918 94.453 19.1008 94.3602 18.862C94.2674 18.6231 94.1318 18.444 93.9534 18.3172C93.775 18.1903 93.5609 18.1306 93.3111 18.1306Z" fill="#5B4F63"/>
<path d="M103.194 17.332V22.1532H102.268V19.6425L102.322 18.2331H102.307L100.956 22.1532H100.122L98.7788 18.2331H98.7634L98.8174 19.6425V22.1532H97.8911V17.332H99.3732L100.253 19.9582L100.562 21.0441H100.577L100.894 19.9659L101.766 17.332H103.194Z" fill="#5B4F63"/>
<path d="M107.175 17.332C107.554 17.332 107.872 17.3936 108.143 17.5169C108.406 17.6401 108.615 17.8172 108.763 18.0483C108.91 18.2793 108.979 18.5566 108.979 18.8877C108.979 19.2112 108.91 19.4961 108.763 19.7272C108.615 19.9582 108.414 20.1354 108.143 20.2586C107.88 20.3818 107.554 20.4434 107.175 20.4434H106.145V22.1532H105.123V17.332H107.175ZM107.02 19.6502C107.33 19.6502 107.554 19.5886 107.709 19.4576C107.864 19.3267 107.942 19.1419 107.942 18.8954C107.942 18.6413 107.864 18.4487 107.709 18.3255C107.554 18.2023 107.33 18.133 107.02 18.133H106.145V19.6502H107.02Z" fill="#5B4F63"/>
<path d="M114.765 22.1532H113.7L113.288 20.9748H111.406L110.994 22.1532H109.944L111.74 17.332H112.969L114.765 22.1532ZM111.639 20.2355H113.062L112.347 18.133L111.639 20.2355Z" fill="#5B4F63"/>
<path d="M120.068 17.332V22.1532H118.996L117.426 19.319L117.035 18.5335H117.028L117.057 19.3652V22.1532H116.211V17.332H117.277L118.847 20.1585L119.237 20.9517H119.251L119.223 20.12V17.332H120.068Z" fill="#5B4F63"/>
<path d="M126.336 17.332L124.66 20.351V22.1532H123.673V20.351L121.997 17.332H123.052L123.815 18.7799L124.174 19.5347L124.541 18.7799L125.304 17.332H126.336Z" fill="#5B4F63"/>
</svg>
