<svg width="612" height="142" viewBox="0 0 612 142" fill="none" xmlns="http://www.w3.org/2000/svg">
<path d="M611.205 39.9112C611.212 42.2618 610.52 44.5615 609.218 46.5186C607.916 48.4758 606.062 50.0024 603.892 50.9049C601.721 51.8074 599.332 52.0452 597.026 51.5882C594.72 51.1312 592.602 49.9999 590.94 48.3377C589.278 46.6756 588.146 44.5574 587.689 42.2516C587.232 39.9458 587.47 37.5562 588.373 35.3857C589.275 33.2152 590.802 31.3615 592.759 30.0596C594.716 28.7576 597.016 28.066 599.366 28.0724C600.921 28.0724 602.461 28.3786 603.897 28.9736C605.333 29.5686 606.638 30.4406 607.738 31.5399C608.837 32.6392 609.709 33.9443 610.304 35.3807C610.899 36.817 611.205 38.3565 611.205 39.9112V39.9112ZM589.231 39.9112C589.231 41.9081 589.822 43.8602 590.931 45.521C592.04 47.1818 593.616 48.4768 595.46 49.2424C597.304 50.0081 599.334 50.21 601.293 49.8228C603.252 49.4356 605.053 48.4765 606.467 47.0668C607.881 45.657 608.846 43.8598 609.239 41.9021C609.633 39.9443 609.437 37.9139 608.678 36.0672C607.918 34.2204 606.628 32.6403 604.971 31.5262C603.314 30.4121 601.363 29.8141 599.366 29.8077C598.034 29.8013 596.713 30.059 595.48 30.5661C594.247 31.0732 593.127 31.8196 592.185 32.7621C591.242 33.7046 590.496 34.8245 589.989 36.0572C589.482 37.2898 589.224 38.6107 589.231 39.9436V39.9112ZM597.112 46.7549H594.907V33.1161H600.34C600.82 33.0613 601.306 33.1085 601.767 33.2546C602.228 33.4006 602.653 33.6422 603.014 33.9636C603.375 34.285 603.665 34.6789 603.863 35.1197C604.062 35.5605 604.165 36.0383 604.167 36.5217C604.17 37.3362 603.866 38.1221 603.316 38.723C602.766 39.3239 602.011 39.696 601.199 39.7652V39.7652C602.902 39.9598 603.502 40.495 603.599 43.2358C603.652 44.4405 603.831 45.6364 604.134 46.8036H601.961C601.514 45.3335 601.322 43.7976 601.394 42.2627C601.374 42.0172 601.304 41.7784 601.188 41.5612C601.072 41.3441 600.912 41.1533 600.719 41.001C600.525 40.8487 600.302 40.738 600.064 40.6761C599.826 40.6141 599.577 40.6021 599.334 40.641H597.112V46.7549ZM597.112 38.8895H599.967C600.248 38.8936 600.527 38.8377 600.785 38.7254C601.043 38.6131 601.274 38.4471 601.463 38.2383C601.652 38.0295 601.794 37.7829 601.88 37.5148C601.966 37.2468 601.994 36.9635 601.961 36.6839C601.987 36.4117 601.954 36.1372 601.865 35.8789C601.775 35.6207 601.63 35.385 601.441 35.1878C601.251 34.9907 601.021 34.8368 600.767 34.7368C600.513 34.6367 600.24 34.5928 599.967 34.6081H597.112V38.8895Z" fill="#BFC9D1"/>
<path d="M12.6983 63.2966H0V44.679H12.6983V2.18924H69.4593C85.6768 2.18924 100.094 11.6765 100.094 30.6347C100.094 40.4462 95.018 48.2306 87.1201 51.7173C98.1318 55.2852 106.078 64.075 106.078 77.6653C106.078 96.6235 92.034 108.478 73.4164 108.478H12.6983V63.2966ZM32.3214 44.679H67.2051C75.849 44.679 80.4061 39.0839 80.4061 32.6618C80.4061 26.2397 75.8328 20.8069 67.2051 20.8069H32.3214V44.679ZM32.3214 89.877H71.0811C79.8872 89.877 86.3255 84.1198 86.3255 76.6598C86.3255 69.1998 79.8385 63.2966 71.0811 63.2966H32.3214V89.877Z" fill="#BFC9D1"/>
<path d="M200.042 90.7205C190.312 103.078 176.689 110.522 161.964 110.684C133.356 110.684 116.766 89.196 116.766 67.5295C116.766 45.863 133.356 24.3749 161.964 24.3749C179.057 24.3749 204.437 38.4192 204.437 70.4V73.6435H136.405C137.427 86.1634 149.103 95.1316 161.461 95.1316C170.932 95.1316 179.057 90.5583 185.155 82.4334L200.042 90.7205ZM183.825 59.064C180.111 46.5441 170.851 39.9436 159.628 39.9436C148.406 39.9436 139.308 46.8847 136.437 59.064H183.825Z" fill="#BFC9D1"/>
<path d="M222.033 26.5642H239.645V36.9434H239.97C244.835 29.3212 253.852 24.4235 265.026 24.4235C282.297 24.4235 296.844 38.8084 296.844 59.1126V108.495H279.248V62.8913C279.248 48.0037 271.464 41.9059 259.787 41.9059C248.435 41.9059 239.645 49.1876 239.645 62.5508V108.495H222.033V26.5642Z" fill="#BFC9D1"/>
<path d="M320.195 43.1546H310.205V26.5642H320.195V4.7355L337.791 0V26.5642H350.327V43.1546H337.791V108.495H320.195V43.1546Z" fill="#BFC9D1"/>
<path d="M380.949 2.18924V75.4921C380.949 84.9631 382.976 88.3526 388.23 91.4014L397.718 96.8019L389.933 110.684C371.835 102.056 363.369 95.7964 363.369 78.7032V2.18924H380.949Z" fill="#BFC9D1"/>
<path d="M485.206 90.7205C475.394 103.078 461.853 110.522 447.127 110.684C418.52 110.684 401.945 89.196 401.945 67.5295C401.945 45.863 418.52 24.3749 447.127 24.3749C464.22 24.3749 489.617 38.4192 489.617 70.4V73.6435H421.504C422.525 86.1634 434.202 95.1316 446.56 95.1316C456.047 95.1316 464.155 90.5583 470.253 82.4334L485.206 90.7205ZM468.988 59.064C465.258 46.5441 456.014 39.9436 444.776 39.9436C433.537 39.9436 424.471 46.8847 421.585 59.064H468.988Z" fill="#BFC9D1"/>
<path d="M504.332 26.5642H521.928V74.6327C521.928 88.3527 530.393 94.0936 541.243 94.0936C554.947 94.0936 561.547 85.6444 561.547 73.011V26.5642H579.143V105.949C579.143 131.005 556.974 142 541.729 142C523.29 142 514.987 135.059 507.04 125.929L521.928 116.782C527.523 122.198 533.102 125.426 540.724 125.426C552.401 125.426 562.553 118.306 562.553 103.921V99.5265H562.228C555.352 107.311 548.865 110.684 537.513 110.684C519.236 110.684 504.348 96.9803 504.348 73.9516L504.332 26.5642Z" fill="#BFC9D1"/>
</svg>
