<svg width="422" height="111" viewBox="0 0 422 111" fill="none" xmlns="http://www.w3.org/2000/svg">
<path d="M82.9831 52.2784C78.6891 50.9902 76.4347 50.7755 75.1464 50.5608C73.8582 50.346 74.395 50.4534 72.9994 50.1314C71.4965 49.8093 67.9538 49.3799 65.1627 49.1652C72.6773 48.8431 75.6832 48.199 80.4067 47.0181C85.0228 45.9446 88.9949 44.227 92.4301 41.9726C95.1139 40.255 97.1536 37.8932 98.6565 34.9947C100.267 32.0962 101.018 29.1977 101.018 25.9771V25.8698C101.018 20.6095 98.8712 15.9934 94.5772 11.8067C90.1757 7.61994 84.4861 4.82878 77.0788 3.11115C74.717 2.57439 72.3553 2.14498 69.7788 1.71557C66.4509 1.28616 63.7671 0.964111 60.7613 0.749407C57.7554 0.534703 54.5348 0.319989 50.8849 0.319989C49.2746 0.212637 47.4496 0.212646 45.6246 0.212646H44.0143H41.4379H0V1.82293C3.75732 2.14498 6.44112 2.57439 8.15875 3.21851C9.87639 3.86262 11.272 4.82879 12.3455 6.43907C13.3117 7.83465 14.0631 9.44492 14.4925 11.3773C14.9219 13.3096 15.244 15.7787 15.244 19.1066V88.5634C15.244 90.3884 15.1366 91.8913 15.1366 92.9648C15.0293 94.2531 14.9219 95.2192 14.8146 96.078C14.7072 96.9369 14.5999 97.903 14.4925 98.7618C14.1705 100.587 13.5264 102.197 12.3455 103.7C11.1646 105.31 9.66168 106.384 7.94405 107.028C6.22642 107.672 3.54262 108.101 0 108.316V109.926H59.9024C67.7391 109.926 71.7112 109.175 78.0449 107.779C84.2714 106.384 89.639 104.237 93.933 101.66C98.3345 98.9765 101.555 95.756 103.917 91.784C106.279 87.9193 107.352 83.6252 107.352 78.7943C107.352 72.5679 105.205 67.093 100.804 62.3695C96.9389 58.9342 90.7125 55.0695 82.8758 53.3519V52.2784H82.9831ZM71.3891 101.66C68.3833 106.169 63.4451 108.531 56.6819 108.531C54.5348 108.531 52.7099 108.316 51.3143 107.887C49.9187 107.457 48.8452 106.599 48.0937 105.31C47.3423 104.022 46.8055 102.304 46.5908 100.05C46.3761 97.7956 46.2687 94.7898 46.2687 91.0325V2.14499H50.2408C55.501 2.14499 59.473 2.7891 62.2642 3.96997C65.0553 5.15084 67.2024 7.29788 68.7053 10.089C69.7788 12.0214 70.5303 14.2758 71.0671 16.6375C71.4965 19.1066 71.7112 21.8978 71.7112 25.333C71.7112 30.2712 71.0671 34.5653 69.8862 38.1079C68.92 40.7917 67.7391 42.8314 66.2362 44.4417C65.9142 44.7637 65.4848 45.1932 64.948 45.5152L64.8406 45.6226C64.7333 45.7299 64.7333 45.7299 64.7333 45.7299C64.3039 46.052 63.8745 46.2667 63.4451 46.4814C63.2304 46.5887 63.0157 46.6961 62.801 46.8034C59.3657 48.4137 55.6084 48.5211 54.3201 48.5211V50.4534C54.3201 50.4534 61.298 50.1313 66.6656 53.2446C66.9877 53.4593 67.3097 53.674 67.5244 53.7813C67.6318 53.8887 67.6318 53.8887 67.6318 53.8887C70.1009 55.7137 71.8185 57.8607 73.1067 60.6519C75.0391 65.4827 76.1126 71.6018 76.1126 79.2237C76.0053 89.3148 74.5023 97.1515 71.3891 101.875V101.66V101.66Z" fill="#BFC9D1"/>
<path d="M187.438 41.9726C184.11 38.108 179.923 35.1021 174.77 32.7404C169.617 30.3786 163.606 29.1978 156.735 29.1978C149.865 29.1978 143.853 30.3786 138.7 32.7404C133.547 35.1021 129.36 38.2153 126.033 41.9726C122.705 45.8373 120.235 50.1314 118.518 54.9622C116.8 59.9004 115.941 64.8386 115.941 69.9915C115.941 75.0371 116.8 80.0826 118.518 85.0208C120.235 89.959 122.705 94.2531 126.033 98.0104C129.36 101.875 133.547 104.881 138.7 107.243C143.853 109.604 149.865 110.785 156.735 110.785C163.606 110.785 169.617 109.604 174.77 107.243C179.923 104.881 184.11 101.768 187.438 98.0104C190.766 94.1457 193.235 89.8517 194.953 85.0208C196.67 80.0826 197.529 75.1444 197.529 69.9915C197.529 64.946 196.67 59.9004 194.953 54.9622C193.342 49.8093 190.229 45.4079 187.116 41.6506L187.438 41.9726ZM169.51 77.3988C169.51 82.4444 169.403 86.6311 169.081 90.3884C168.866 94.1457 168.329 97.259 167.47 99.8354C166.612 102.412 165.323 104.237 163.606 105.525C161.888 106.813 159.634 107.35 156.735 107.35C153.837 107.35 151.475 106.706 149.865 105.525C148.147 104.237 146.859 102.305 146 99.8354C145.141 97.259 144.604 94.1457 144.39 90.3884C144.175 86.6311 143.96 82.2297 143.96 77.3988V63.0137C143.96 58.1828 144.068 53.7814 144.39 50.024C144.604 46.1594 145.141 42.9388 146 40.3624C146.859 37.7859 148.147 35.7462 149.865 34.3507C151.582 32.9551 153.837 32.2036 156.735 32.2036C159.634 32.2036 161.995 32.9551 163.606 34.3507C165.323 35.7462 166.612 37.6786 167.47 40.3624C168.329 42.9388 168.866 46.1594 169.081 50.024C169.295 53.8887 169.51 58.1828 169.51 63.0137V77.1841V77.3988Z" fill="#BFC9D1"/>
<path d="M276.325 41.9726C272.997 38.108 268.81 35.1021 263.657 32.7404C258.504 30.3786 252.492 29.1978 245.622 29.1978C238.751 29.1978 232.74 30.3786 227.587 32.7404C222.434 35.1021 218.247 38.2153 214.919 41.9726C211.591 45.8373 209.122 50.1314 207.405 54.9622C205.687 59.9004 204.828 64.8386 204.828 69.9915C204.828 75.0371 205.687 80.0826 207.405 85.0208C209.122 89.959 211.591 94.2531 214.919 98.0104C218.247 101.875 222.434 104.881 227.587 107.243C232.74 109.604 238.751 110.785 245.622 110.785C252.492 110.785 258.504 109.604 263.657 107.243C268.81 104.881 272.997 101.768 276.325 98.0104C279.653 94.1457 282.122 89.8517 283.839 85.0208C285.557 80.0826 286.416 75.1444 286.416 69.9915C286.416 64.946 285.557 59.9004 283.839 54.9622C281.477 49.8093 279.116 45.4079 276.003 41.6506L276.325 41.9726ZM258.397 77.3988C258.397 82.4444 258.289 86.6311 257.967 90.3884C257.753 94.1457 257.216 97.259 256.357 99.8354C255.498 102.412 254.21 104.237 252.492 105.525C250.775 106.813 248.52 107.35 245.622 107.35C242.723 107.35 240.362 106.706 238.751 105.525C237.034 104.237 235.746 102.305 234.887 99.8354C234.028 97.259 233.491 94.1457 233.276 90.3884C233.062 86.6311 232.847 82.2297 232.847 77.3988V63.0137C232.847 58.1828 232.954 53.7814 233.276 50.024C233.491 46.1594 234.028 42.9388 234.887 40.3624C235.746 37.7859 237.034 35.7462 238.751 34.3507C240.469 32.9551 242.723 32.2036 245.622 32.2036C248.52 32.2036 250.882 32.9551 252.492 34.3507C254.21 35.7462 255.498 37.6786 256.357 40.3624C257.216 42.9388 257.753 46.1594 257.967 50.024C258.182 53.8887 258.397 58.1828 258.397 63.0137V77.1841V77.3988Z" fill="#BFC9D1"/>
<path d="M352.757 101.66C349.215 105.525 343.954 107.35 336.976 107.35H319.693L359.52 36.8196V32.3108H295.002V54.1033H296.827C297.471 47.8768 299.725 43.1534 303.697 39.9328C307.669 36.8196 312.071 35.2093 317.116 35.2093H332.682L291.781 106.169V110.141H361.345V86.4162H359.52C358.769 91.8912 356.407 97.3661 352.542 101.231L352.757 101.66Z" fill="#BFC9D1"/>
<path d="M421.463 106.384C421.463 106.384 419.316 107.243 417.384 107.243C412.768 107.243 409.655 105.203 408.044 101.231C406.434 97.2589 405.575 90.7105 405.575 81.6929V35.3168H418.887V32.4183H405.253V0.534729H403.643C403.643 3.11118 393.874 32.3109 376.59 32.4183H368.324V35.3168H378.093V76.9694C378.093 83.6252 378.845 89.1002 380.562 93.3943C382.173 97.7957 384.427 101.231 387.218 103.807C390.009 106.384 393.337 108.209 397.202 109.39C401.067 110.463 405.039 111 409.333 111C414.593 111 418.78 110.249 422 108.746V107.135L421.463 106.384Z" fill="#BFC9D1"/>
</svg>
