<svg width="158" height="35" viewBox="0 0 158 35" fill="none" xmlns="http://www.w3.org/2000/svg">
<g clip-path="url(#clip0_1147_31321)">
<path fill-rule="evenodd" clip-rule="evenodd" d="M150.863 29.2603C150.487 29.2603 150.278 29.0223 150.278 28.6976C150.278 28.3728 150.487 28.1348 150.863 28.1348C151.802 28.1348 152.219 27.8315 152.823 26.1873L153.219 25.1483L149.694 15.7775C149.673 15.7126 149.652 15.6046 149.652 15.4962C149.652 15.2152 149.882 14.9552 150.215 14.9552C150.467 14.9552 150.654 15.0851 150.758 15.3882L153.783 23.547H153.804L156.746 15.3882C156.85 15.0851 157.037 14.9552 157.287 14.9552C157.621 14.9552 157.829 15.2152 157.829 15.4962C157.829 15.6046 157.809 15.7126 157.788 15.7775L153.867 26.3601C152.99 28.7625 152.28 29.2603 151.029 29.2603H150.863ZM144.401 24.824V13.8084C144.401 11.3413 145.172 10.6487 147.176 10.6487H147.468C147.843 10.6487 148.053 10.8866 148.053 11.2115C148.053 11.5361 147.843 11.7742 147.468 11.7742C145.82 11.7742 145.528 12.0337 145.528 13.6569V14.9122C145.528 14.9987 145.57 15.0419 145.653 15.0419H147.53C147.885 15.0419 148.053 15.2584 148.053 15.5614C148.053 15.8643 147.885 16.081 147.53 16.081H145.653C145.57 16.081 145.528 16.124 145.528 16.2104V24.824C145.528 25.235 145.297 25.4516 144.965 25.4516C144.63 25.4516 144.401 25.235 144.401 24.824V24.824ZM140.967 24.824V15.5829C140.967 15.1719 141.197 14.9552 141.531 14.9552C141.865 14.9552 142.094 15.1719 142.094 15.5829V24.824C142.094 25.235 141.865 25.4516 141.531 25.4516C141.197 25.4516 140.967 25.235 140.967 24.824ZM140.655 11.4715C140.655 10.9734 141.051 10.5625 141.531 10.5625C142.011 10.5625 142.407 10.9734 142.407 11.4715C142.407 11.969 142.011 12.3802 141.531 12.3802C141.051 12.3802 140.655 11.969 140.655 11.4715ZM133.568 24.824V15.5829C133.568 15.1719 133.797 14.9552 134.131 14.9552C134.464 14.9552 134.695 15.1719 134.695 15.5829V16.5785H134.716C135.091 15.5397 136.03 14.8258 137.324 14.8258C138.116 14.8258 138.637 15.0419 139.033 15.2803C139.284 15.4314 139.366 15.6046 139.366 15.7994C139.366 16.124 139.137 16.3837 138.803 16.3837C138.72 16.3837 138.616 16.3619 138.512 16.3188C138.053 16.1026 137.614 15.951 137.114 15.951C135.362 15.951 134.695 17.5091 134.695 19.4355V24.824C134.695 25.235 134.464 25.4516 134.131 25.4516C133.797 25.4516 133.568 25.235 133.568 24.824V24.824ZM130.37 19.457C130.454 19.457 130.496 19.4136 130.496 19.327C130.496 18.721 130.433 18.2662 130.308 17.8551C129.912 16.5785 128.931 15.9078 127.638 15.9078C126.344 15.9078 125.385 16.5785 124.989 17.8551C124.863 18.2662 124.8 18.721 124.8 19.327C124.8 19.4136 124.842 19.457 124.926 19.457H130.37ZM123.966 22.8763C123.758 22.2267 123.654 21.5128 123.654 20.1929C123.654 18.8938 123.758 18.1802 123.966 17.5091C124.508 15.7775 125.864 14.8258 127.638 14.8258C129.431 14.8258 130.787 15.7775 131.33 17.5091C131.54 18.1583 131.644 18.9373 131.644 19.9762C131.644 20.3007 131.434 20.5171 131.121 20.5171H124.926C124.842 20.5171 124.8 20.5603 124.8 20.6469C124.8 21.4911 124.842 21.924 125.009 22.443C125.447 23.8064 126.47 24.4559 127.825 24.4559C128.952 24.4559 129.765 24.0877 130.517 23.2872C130.62 23.179 130.766 23.0709 130.933 23.0709C131.226 23.0709 131.434 23.2872 131.434 23.5689C131.434 23.72 131.392 23.8499 131.309 23.9581C130.6 24.889 129.411 25.5814 127.763 25.5814C125.843 25.5814 124.529 24.6505 123.966 22.8763V22.8763ZM112.428 19.457C112.512 19.457 112.554 19.4136 112.554 19.327C112.554 18.721 112.491 18.2662 112.366 17.8551C111.97 16.5785 110.989 15.9078 109.696 15.9078C108.402 15.9078 107.442 16.5785 107.046 17.8551C106.921 18.2662 106.858 18.721 106.858 19.327C106.858 19.4136 106.9 19.457 106.984 19.457H112.428ZM106.024 22.8763C105.816 22.2267 105.711 21.5128 105.711 20.1929C105.711 18.8938 105.816 18.1802 106.024 17.5091C106.566 15.7775 107.922 14.8258 109.696 14.8258C111.489 14.8258 112.845 15.7775 113.388 17.5091C113.597 18.1583 113.701 18.9373 113.701 19.9762C113.701 20.3007 113.492 20.5171 113.18 20.5171H106.984C106.9 20.5171 106.858 20.5603 106.858 20.6469C106.858 21.4911 106.9 21.924 107.067 22.443C107.505 23.8064 108.528 24.4559 109.883 24.4559C111.01 24.4559 111.823 24.0877 112.575 23.2872C112.678 23.179 112.824 23.0709 112.991 23.0709C113.284 23.0709 113.492 23.2872 113.492 23.5689C113.492 23.72 113.451 23.8499 113.367 23.9581C112.658 24.889 111.468 25.5814 109.821 25.5814C107.901 25.5814 106.587 24.6505 106.024 22.8763V22.8763ZM117.9 24.7804L113.456 11.4281C113.435 11.3413 113.414 11.2331 113.414 11.1465C113.414 10.8001 113.664 10.5625 113.998 10.5625C114.249 10.5625 114.457 10.7355 114.561 11.0385L118.629 23.309H118.671L122.676 11.0385C122.781 10.7355 122.99 10.5625 123.24 10.5625C123.573 10.5625 123.824 10.8001 123.824 11.1465C123.824 11.2331 123.803 11.3631 123.782 11.4281L119.339 24.7804C119.193 25.235 119.005 25.4516 118.608 25.4516C118.233 25.4516 118.046 25.235 117.9 24.7804V24.7804ZM103.802 25.4516C102.28 25.4516 101.737 24.7158 101.737 23.0276V11.2118C101.737 10.8008 101.967 10.5841 102.301 10.5841C102.634 10.5841 102.863 10.8008 102.863 11.2118V22.9843C102.863 24.0016 103.135 24.3258 104.011 24.3258C104.386 24.3258 104.595 24.5641 104.595 24.889C104.595 25.2132 104.386 25.4516 104.011 25.4516H103.802ZM98.4824 22.5947C98.691 21.924 98.7539 21.2315 98.7539 20.1929C98.7539 19.1753 98.691 18.4828 98.4824 17.8121C98.1073 16.6434 97.21 15.951 95.9372 15.951C94.6854 15.951 93.7678 16.5354 93.3711 17.7472C93.2053 18.3096 93.1214 19.1753 93.1214 20.1929C93.1214 21.2315 93.2053 22.097 93.3711 22.6598C93.7678 23.8717 94.6854 24.4559 95.9372 24.4559C97.21 24.4559 98.1073 23.7634 98.4824 22.5947ZM93.1424 24.0665H93.1214V24.824C93.1214 25.235 92.8921 25.4516 92.558 25.4516C92.2244 25.4516 91.9948 25.235 91.9948 24.824V11.19C91.9948 10.7789 92.2244 10.5625 92.558 10.5625C92.8921 10.5625 93.1214 10.7789 93.1214 11.19V16.3403H93.1424C93.6215 15.4532 94.4985 14.8258 96.1256 14.8258C97.8152 14.8258 99.0251 15.7562 99.5468 17.3793C99.7966 18.2232 99.9009 19.0241 99.9009 20.1929C99.9009 21.383 99.7966 22.1837 99.5468 23.0276C99.0251 24.6505 97.8152 25.5814 96.1256 25.5814C94.4985 25.5814 93.6215 24.9537 93.1424 24.0665ZM88.678 24.824V24.1096H88.6576C88.0944 25.0401 87.156 25.5814 85.7579 25.5814C83.5674 25.5814 82.3155 24.153 82.3155 21.6426V15.5829C82.3155 15.1719 82.5449 14.9552 82.8792 14.9552C83.2128 14.9552 83.4416 15.1719 83.4416 15.5829V21.3613C83.4416 23.4171 84.2766 24.4559 86.0083 24.4559C87.5099 24.4559 88.678 23.3522 88.678 21.5778V15.5829C88.678 15.1719 88.908 14.9552 89.2415 14.9552C89.5753 14.9552 89.8053 15.1719 89.8053 15.5829V24.824C89.8053 25.235 89.5753 25.4516 89.2415 25.4516C88.908 25.4516 88.678 25.235 88.678 24.824V24.824ZM79.3001 22.5298C79.4879 21.9454 79.5713 21.3179 79.5713 20.1929C79.5713 19.0889 79.4879 18.4613 79.3001 17.877C78.904 16.6434 77.9443 15.951 76.6506 15.951C75.3783 15.951 74.4187 16.6434 74.0223 17.877C73.8347 18.4613 73.7516 19.0889 73.7516 20.1929C73.7516 21.3179 73.8347 21.9454 74.0223 22.5298C74.4187 23.7634 75.3783 24.4559 76.6506 24.4559C77.9443 24.4559 78.904 23.7634 79.3001 22.5298ZM72.9374 22.8981C72.7291 22.2054 72.6044 21.4479 72.6044 20.1929C72.6044 18.9587 72.7291 18.2016 72.9374 17.5091C73.4801 15.7994 74.8364 14.8258 76.6506 14.8258C78.4872 14.8258 79.8426 15.7994 80.3852 17.5091C80.5938 18.2016 80.7189 18.9587 80.7189 20.1929C80.7189 21.4479 80.5938 22.2054 80.3852 22.8981C79.8426 24.6074 78.4872 25.5814 76.6506 25.5814C74.8364 25.5814 73.4801 24.6074 72.9374 22.8981ZM62.7635 24.283H65.6008C67.7286 24.283 68.8552 23.5474 69.4391 21.7075C69.7098 20.8205 69.8147 19.9762 69.8147 18.0935C69.8147 16.2108 69.7098 15.367 69.4391 14.4793C68.8552 12.6401 67.7286 11.9042 65.6008 11.9042H62.7635C62.6801 11.9042 62.6383 11.9475 62.6383 12.0341V24.153C62.6383 24.2398 62.6801 24.283 62.7635 24.283V24.283ZM61.4492 11.3198C61.4492 10.9517 61.6794 10.7355 62.0332 10.7355H65.7674C68.3748 10.7355 69.9191 11.9257 70.5868 14.0683C70.9001 15.0855 71.0038 15.9727 71.0038 18.0935C71.0038 20.2146 70.9001 21.1017 70.5868 22.1188C69.9191 24.2613 68.3748 25.4516 65.7674 25.4516H62.0332C61.6794 25.4516 61.4492 25.2349 61.4492 24.8671V11.3198Z" fill="#94A1AD"/>
<path fill-rule="evenodd" clip-rule="evenodd" d="M2.45467 29.2659C1.53686 29.2659 0.792938 28.4723 0.792938 27.4929V7.24167C0.792938 6.26244 1.53686 5.46875 2.45467 5.46875C3.3725 5.46875 4.11642 6.26244 4.11642 7.24167V27.4929C4.11642 28.4723 3.3725 29.2659 2.45467 29.2659Z" fill="#94A1AD"/>
<path fill-rule="evenodd" clip-rule="evenodd" d="M9.80745 29.2659H7.52862C6.56142 29.2659 5.77731 28.4726 5.77731 27.4935C5.77731 26.5145 6.56142 25.7213 7.52862 25.7213H9.80745C14.3587 25.7213 18.0613 21.9736 18.0613 17.3678C18.0613 12.7613 14.3587 9.01369 9.80745 9.01369H7.52862C6.56142 9.01369 5.77731 8.22007 5.77731 7.24113C5.77731 6.2622 6.56142 5.46875 7.52862 5.46875H9.80745C16.2899 5.46875 21.5639 10.8066 21.5639 17.3678C21.5639 23.9283 16.2899 29.2659 9.80745 29.2659Z" fill="#94A1AD"/>
<path fill-rule="evenodd" clip-rule="evenodd" d="M33.9891 29.2659C33.3481 29.2659 32.7347 28.887 32.4459 28.2415L23.3863 7.99102C22.9892 7.10362 23.3578 6.04889 24.2095 5.63514C25.0609 5.22157 26.073 5.60545 26.4702 6.49301L35.5299 26.7434C35.9268 27.6309 35.5583 28.6855 34.7067 29.0995C34.4745 29.2123 34.2297 29.2659 33.9891 29.2659V29.2659Z" fill="#94A1AD"/>
<path fill-rule="evenodd" clip-rule="evenodd" d="M37.2059 22.4666C36.9719 22.4666 36.7347 22.413 36.5088 22.2997C35.682 21.8852 35.3242 20.8286 35.7098 19.9397L41.5448 6.49445C41.9307 5.60563 42.9135 5.22078 43.7402 5.63588C44.5671 6.0503 44.9246 7.10689 44.5389 7.99571L38.7041 21.4411C38.4238 22.0871 37.828 22.4666 37.2059 22.4666V22.4666Z" fill="#94A1AD"/>
<path fill-rule="evenodd" clip-rule="evenodd" d="M53.1367 34.363H53.5521V0.367188H53.1367V34.363Z" fill="#94A1AD"/>
</g>
<defs>
<clipPath id="clip0_1147_31321">
<rect width="157.105" height="34.3958" fill="white" transform="translate(0.792938)"/>
</clipPath>
</defs>
</svg>
