<svg width="66" height="22" viewBox="0 0 66 22" fill="none" xmlns="http://www.w3.org/2000/svg">
<g clip-path="url(#clip0_1147_31313)">
<mask id="mask0_1147_31313" style="mask-type:alpha" maskUnits="userSpaceOnUse" x="0" y="0" width="66" height="22">
<path d="M32.22 0.681607L27.8718 21.2897H22.6129L26.9629 0.681607H32.22ZM54.3424 13.9877L57.1104 6.24988L58.7038 13.9877H54.3424ZM60.2099 21.2897H65.0732L60.8281 0.681607H56.3401C55.3306 0.681607 54.4795 1.27631 54.1017 2.19295L46.2119 21.2897H51.732L52.8289 18.2108H59.5745L60.2099 21.2897ZM46.4851 14.5607C46.5086 9.12229 39.0674 8.82204 39.1186 6.39191C39.1349 5.65304 39.829 4.86743 41.3489 4.66614C42.1011 4.56657 44.179 4.48929 46.5327 5.58798L47.4567 1.21828C46.1905 0.752471 44.5634 0.304688 42.5371 0.304688C37.3403 0.304688 33.6817 3.10623 33.6525 7.11643C33.6178 10.0847 36.2632 11.7387 38.2564 12.7256C40.3041 13.7354 40.991 14.3833 40.9834 15.2865C40.9681 16.6698 39.3494 17.2795 37.8361 17.3033C35.1925 17.3452 33.6582 16.5788 32.4357 16.0012L31.4837 20.5172C32.711 21.089 34.9789 21.5875 37.3309 21.612C42.8552 21.612 46.468 18.8465 46.4851 14.5607ZM24.7064 0.681607L16.187 21.2897H10.6289L6.43652 4.843C6.18195 3.83045 5.96112 3.45872 5.18718 3.03293C3.92337 2.33682 1.83621 1.68438 0 1.27906L0.12382 0.681607H9.07168C10.2114 0.681607 11.2375 1.45041 11.4963 2.78246L13.7106 14.708L19.1833 0.681607H24.7064Z" fill="white"/>
</mask>
<g mask="url(#mask0_1147_31313)">
<path fill-rule="evenodd" clip-rule="evenodd" d="M32.22 0.681607L27.8718 21.2897H22.6129L26.9629 0.681607H32.22ZM54.3424 13.9877L57.1104 6.24988L58.7038 13.9877H54.3424ZM60.2099 21.2897H65.0732L60.8281 0.681607H56.3401C55.3306 0.681607 54.4795 1.27631 54.1017 2.19295L46.2119 21.2897H51.732L52.8289 18.2108H59.5745L60.2099 21.2897ZM46.4851 14.5607C46.5086 9.12229 39.0674 8.82204 39.1186 6.39191C39.1349 5.65304 39.829 4.86743 41.3489 4.66614C42.1011 4.56657 44.179 4.48929 46.5327 5.58798L47.4567 1.21828C46.1905 0.752471 44.5634 0.304688 42.5371 0.304688C37.3403 0.304688 33.6817 3.10623 33.6525 7.11643C33.6178 10.0847 36.2632 11.7387 38.2564 12.7256C40.3041 13.7354 40.991 14.3833 40.9834 15.2865C40.9681 16.6698 39.3494 17.2795 37.8361 17.3033C35.1925 17.3452 33.6582 16.5788 32.4357 16.0012L31.4837 20.5172C32.711 21.089 34.9789 21.5875 37.3309 21.612C42.8552 21.612 46.468 18.8465 46.4851 14.5607ZM24.7064 0.681607L16.187 21.2897H10.6289L6.43652 4.843C6.18195 3.83045 5.96112 3.45872 5.18718 3.03293C3.92337 2.33682 1.83621 1.68438 0 1.27906L0.12382 0.681607H9.07168C10.2114 0.681607 11.2375 1.45041 11.4963 2.78246L13.7106 14.708L19.1833 0.681607H24.7064Z" fill="#94A1AD"/>
</g>
</g>
<defs>
<clipPath id="clip0_1147_31313">
<rect width="65.0732" height="21.3812" fill="white" transform="translate(0 0.226562)"/>
</clipPath>
</defs>
</svg>
