<svg width="140" height="33" viewBox="0 0 140 33" fill="none" xmlns="http://www.w3.org/2000/svg">
<g clip-path="url(#clip0_1147_31329)">
<path d="M15.3682 23.8958C22.2917 25.2017 27.3598 18.3521 30.6066 12.4248C31.906 10.05 33.8793 3.83252 31.6692 1.48294C29.6454 -0.789944 28.0815 2.1928 26.8816 3.18844L27.8077 4.30863C29.6573 6.69332 28.0486 11.2243 26.9522 13.6454C25.3068 16.626 22.2008 21.1364 18.5711 20.5087C17.7833 20.3199 17.1309 19.5399 16.8554 18.7197C18.8105 16.7441 21.1255 13.2733 22.4267 10.9645C23.5157 9.08633 25.4053 5.4569 23.6626 3.96176C22.2161 2.93804 19.3192 4.41212 17.7667 5.75047C16.8218 6.61895 16.185 7.33012 15.4517 8.34214C13.4539 11.1075 11.5515 15.8493 11.7501 19.4993C10.7917 20.2092 9.69556 20.9164 8.3939 20.5087C7.1037 20.2133 6.87148 19.0921 6.6884 18.2122C5.86646 12.9235 11.0576 6.2453 13.9697 2.40837C13.9697 2.40837 11.6722 3.04439 9.99551 3.11589C6.1407 3.28439 3.27792 1.45277 1.19303 4.08397C0.565626 5.02032 0.20329 6.00425 0.085907 7.17411C0.940183 6.42835 2.20594 6.60699 3.41516 6.67772C5.50744 6.86468 6.53792 7.12236 8.42394 6.60491C6.74366 9.02497 3.94428 13.7967 3.42968 16.7742C3.15697 18.7499 3.18065 21.8645 4.83471 23.2629C7.57553 25.1257 10.2977 23.8235 12.7292 22.1084C13.4511 22.9623 14.342 23.7091 15.3682 23.8958ZM20.0184 7.37095C20.7477 7.00639 20.5289 8.11228 20.5289 8.11228C20.4245 9.3669 19.5336 10.8615 18.8988 12.0082C18.247 13.1807 15.9627 15.9453 14.9676 16.5397C15.0107 14.8667 16.7643 11.2141 17.6606 9.82064C18.1194 9.0013 19.2902 7.73576 20.0184 7.37095Z" fill="#94A1AD"/>
<path d="M130.292 10.638C129.911 11.1513 128.611 12.5947 128.189 13.0453C128.17 13.0632 127.972 13.2567 127.972 13.2567C124.466 16.8489 121.786 18.9333 120.235 19.2692C119.177 19.5064 118.692 19.5693 118.197 18.5947C118.188 18.5765 118.176 18.5417 118.176 18.5417C118.176 18.5344 118.125 18.0856 118.125 18.0856C118.125 16.7902 119.774 13.8859 121.978 11.9451C122.819 11.1944 122.918 10.8621 122.93 10.7794C122.616 10.2757 122.426 10.0391 121.998 9.85685C121.385 9.82408 120.445 10.489 119.825 10.9321C119.387 11.2386 118.143 12.4064 116.823 13.6374C115.724 14.6676 114.589 15.7324 113.955 16.2649C113.955 16.2649 113.071 17.0029 112.88 17.1651C112.888 16.9753 112.911 16.5941 112.911 16.5941C112.935 15.9266 113.622 14.8127 114.605 13.3136C114.961 12.7611 115.84 11.1944 115.945 10.9167L115.959 10.8891L115.943 10.8621C115.658 10.3847 115.112 10.0129 114.675 9.99206C114.63 10.0095 114.285 10.2989 114.285 10.2989C113.544 10.9167 111.963 12.3708 110.436 13.7817C109.034 15.0766 107.711 16.2956 107.382 16.5395C104.807 18.4912 102.576 19.7638 100.376 20.5553C99.9816 20.6723 98.6367 21.002 97.9706 20.237C97.9706 20.237 97.8193 20.0649 97.7404 19.9661C97.8402 19.9203 98.0577 19.8257 98.0577 19.8257C99.9816 18.9894 102.405 17.8396 104.163 16.3008C104.19 16.2769 106.861 13.9372 106.861 11.6305C106.861 11.528 106.854 11.431 106.846 11.3304C106.68 10.5025 105.986 10.2487 104.998 10.1184C101.764 10.14 98.8587 12.1726 97.3498 13.9047L97.0845 14.2013C96.3843 14.9788 94.2556 17.3419 93.3909 19.4398C93.3909 19.4398 93.3537 19.5334 93.3409 19.5501C93.3364 19.5449 93.262 19.5771 93.262 19.5771C91.8045 20.2064 90.2207 20.8117 88.4602 21.001C87.51 21.1217 86.1635 21.2043 85.4093 20.5007C85.4093 20.5007 85.2249 20.3348 85.143 20.2563C85.2901 20.1752 88.8193 18.2484 88.8193 18.2484C91.7281 16.4454 93.6771 13.7003 93.6771 12.2704C93.617 10.6114 92.0968 10.236 90.8298 10.218C88.9481 10.2295 87.2115 10.938 85.0192 12.5866C83.7486 13.543 81.0893 16.6461 80.3779 19.8314C80.3779 19.8314 80.359 19.9359 80.3453 19.9827C80.2882 20.0004 80.0692 20.0524 80.0692 20.0524C78.6764 20.4061 76.3364 20.9844 75.9051 19.5969C75.212 17.3419 77.4242 15.1699 79.1974 13.428C79.1974 13.4257 80.196 12.4267 80.196 12.4267C80.3351 12.2668 80.5052 11.8947 80.4578 11.6011C80.4395 11.4615 80.3717 11.3575 80.2485 11.2828C79.2992 10.8561 78.3887 11.1851 77.4242 11.5371C76.701 11.7979 75.9514 12.065 75.158 12.0078C75.158 12.0078 75.0032 11.9888 74.9095 11.9823C74.9186 11.8973 74.9324 11.7228 74.9324 11.7228C74.9726 11.2467 75.244 10.9617 75.487 10.7113C75.4921 10.7092 75.5659 10.6268 75.5659 10.6268C75.6077 10.575 75.6316 10.476 75.6316 10.3623C75.6316 10.2627 75.6153 10.1504 75.5705 10.0524C75.5078 9.90183 75.4126 9.81056 75.2955 9.80146C74.7404 9.73073 73.781 10.2911 72.9096 11.189C72.0724 12.0593 71.5463 12.9987 71.5463 13.6439L71.5545 13.777C71.5591 13.7939 71.557 13.829 71.557 13.829C71.4547 15.2914 70.207 16.6929 68.4755 18.6363L67.7236 19.4835C67.7279 19.4835 67.4346 19.7882 67.4346 19.7882C66.3968 20.87 65.7401 21.6807 65.5374 22.1285L65.4765 22.2585L65.6186 22.22C66.3537 21.9943 68.4689 20.95 72.2573 16.0813C72.2573 16.0813 72.3138 16.0122 72.3377 15.9693C72.3871 15.9752 72.4778 15.9898 72.4778 15.9898C72.655 16.0122 72.8724 15.9186 73.1016 15.8273C73.4871 15.6705 73.9286 15.4955 74.3452 15.7763C74.3452 15.7763 74.5051 15.8808 74.5734 15.9316C74.5005 16.0226 73.8298 16.8973 73.8298 16.8973C72.7731 18.2499 71.6879 19.6385 71.6879 21.3047C71.6879 21.623 71.7271 21.9527 71.8188 22.2944C72.0205 23.2705 72.9982 23.7323 73.7759 23.8353C75.3495 24.113 77.3228 23.2237 79.065 22.4436L79.947 22.0489C80.4395 21.9127 80.5795 22.22 80.6839 22.4395C80.8061 22.7068 80.9793 23.0822 81.7381 23.4192C84.2808 24.5945 88.0126 24.0142 92.8332 21.6937C92.8332 21.6937 92.9778 21.623 93.068 21.5798C93.1026 21.6672 93.1663 21.8388 93.1663 21.8388C93.5136 22.7921 94.167 23.3813 95.2328 23.6964C99.3848 24.2607 102.809 21.8346 106.118 19.4908C106.122 19.4887 107.628 18.3175 107.876 18.1246C107.937 18.1865 108.206 18.486 108.244 18.5344C108.19 18.6161 106.789 20.6271 106.789 20.6271C106.3 21.3583 105.843 22.0458 105.556 22.817C105.556 22.8108 105.473 23.1405 105.473 23.1405L105.51 23.3105C105.582 23.4421 105.759 23.5321 106.018 23.5711C108.539 23.2149 110.967 21.1144 112.568 19.73L113.049 19.315C113.737 18.7013 114.397 18.1267 114.658 18.0679C114.658 18.0679 114.758 18.0388 114.809 18.0248C114.846 18.0679 114.925 18.1605 114.925 18.1605C114.933 18.1698 114.933 18.1855 114.933 18.199C114.933 18.3259 114.749 18.6233 114.614 18.8314L114.361 19.2474C114.147 19.7071 113.718 20.6089 113.718 21.4077C113.718 21.6979 113.776 21.9803 113.933 22.221C114.687 23.4135 115.345 23.4504 116.055 23.4915L116.309 23.5056C119.282 23.3105 122.201 20.6755 125.028 18.1246L127.132 16.2649C127.132 16.2649 128.832 14.7456 129.178 14.4317C129.225 14.5399 129.296 14.7456 129.296 14.7456C129.509 15.3007 129.554 15.807 129.554 16.1323L129.501 16.7366C129.47 17.0029 129 18.8745 128.357 19.4055C128.355 19.4055 128.222 19.4814 128.222 19.4814C128.218 19.4814 127.813 19.5854 127.813 19.5854C126.258 19.9926 124.497 20.4492 123.841 22.0338C123.838 22.0401 123.782 22.3947 123.782 22.3947C123.782 22.608 123.861 22.9137 124.213 23.153C125.31 23.4421 126.448 23.1644 127.45 22.9189L128.739 22.6371C129.791 22.6433 130.814 22.7707 131.802 22.8914C133.179 23.0594 134.475 23.2206 135.851 23.076C137.633 22.6017 139.052 20.5382 139.491 18.8314L139.53 18.6904L139.399 18.7585C137.188 19.8746 134.637 19.9224 132.568 18.8886C132.568 18.8886 132.425 18.8152 132.359 18.7793C132.387 18.7091 132.451 18.5474 132.451 18.5474C132.467 18.5141 133.727 15.3699 133.727 11.2961C133.727 11.1109 133.725 10.9222 133.72 10.7337H133.727C133.701 10.6351 133.69 10.5428 133.69 10.4518C133.69 10.0768 133.876 9.76896 134.046 9.48969C134.216 9.2112 134.364 8.96808 134.364 8.67919C134.364 8.63551 134.36 8.59546 134.358 8.5484C134.35 8.54424 134.35 8.53254 134.35 8.5237C134.35 8.48937 134.36 8.44257 134.36 8.44257C134.364 8.43737 134.364 8.43139 134.364 8.42541C134.364 8.32452 134.209 8.27355 134.134 8.25223C132.404 7.80681 131.422 9.11785 130.292 10.638ZM84.7473 17.6685C84.8583 16.7054 86.2694 14.8397 87.0226 14.0604C87.7076 13.3552 88.5993 12.7834 89.4589 12.4932C89.9147 12.3827 90.2793 12.4724 90.4703 12.7421C90.5446 12.8557 90.5854 12.987 90.5854 13.1274C90.5854 13.3009 90.5248 13.4852 90.4137 13.667C89.4711 15.1772 87.0415 17.3055 85.0594 17.9457C85.0594 17.9457 84.8293 18.0206 84.6974 18.0679C84.7131 17.9389 84.7473 17.6685 84.7473 17.6685ZM98.0704 17.3034C98.2705 15.8634 100.326 13.7219 100.346 13.7003C101.031 12.9969 101.923 12.4267 102.787 12.1313C103.141 11.9753 103.483 12.0083 103.693 12.2153C103.773 12.3013 103.883 12.4589 103.883 12.7223C103.883 12.8705 103.848 13.0474 103.759 13.2705C103.54 13.829 101.883 15.469 101.413 15.8873C100.888 16.3965 99.4525 17.4137 98.3525 17.5973C98.3525 17.5973 98.1458 17.6316 98.0185 17.6498C98.0353 17.5395 98.0704 17.3034 98.0704 17.3034Z" fill="#94A1AD"/>
<path d="M57.6624 3.91639H57.6588C55.4217 4.12623 53.3167 5.39932 50.8313 8.03883C49.8161 9.01991 45.1223 14.9828 44.3487 19.5171C44.3487 19.5171 44.3355 19.604 44.3276 19.6409C44.2945 19.6575 44.2209 19.6981 44.2209 19.6981C43.5405 20.0715 41.4928 20.9701 40.1957 20.6358C39.8069 20.5364 39.5164 20.3315 39.3414 20.0278C39.1416 19.6326 39.0456 19.2301 39.0456 18.8047C39.0456 17.8155 39.581 16.9325 40.0434 16.142C40.048 16.1399 40.2925 15.7236 40.3093 15.695C40.3174 15.7036 40.3979 15.6776 40.3979 15.6776C41.5985 15.3273 43.4796 12.9869 43.9583 11.5591L43.9724 11.5182L43.9365 11.4935C42.5355 10.6178 40.6551 10.6375 39.3292 10.8058C37.1422 11.0653 34.653 12.0492 32.6661 13.4328C30.2764 15.1001 28.2114 18.4937 27.7793 20.617C27.5461 21.8313 27.392 23.0628 28.2147 23.6338C29.924 24.6485 33.2836 22.8064 35.5775 20.5645C35.5775 20.5645 35.8775 20.2728 36.0557 20.0975C36.0382 20.3456 35.9814 21.0128 35.9814 21.0128C35.9523 21.303 35.9259 21.6348 35.9259 21.9634C35.9259 22.5828 36.0275 23.2058 36.428 23.5912C38.3191 25.1233 42.2129 23.4445 44.3624 21.9442C44.3624 21.9442 44.4877 21.8542 44.5534 21.8116C44.6059 21.8756 44.6996 21.9988 44.6996 21.9988C45.3832 22.8616 46.1899 23.7899 47.1078 23.948C49.508 24.2907 51.3861 22.8782 53.057 21.3014C53.057 21.3014 53.2747 21.097 53.3836 20.9909C53.4173 21.1709 53.5461 21.7799 53.5461 21.7799C53.6686 22.4107 53.7801 23.0077 54.2593 23.4009C55.4716 24.3588 58.1872 23.0561 59.7152 21.9473C59.7152 21.9473 60.0681 21.6951 60.2711 21.5438C60.2199 21.7627 60.1028 22.2167 60.1028 22.2167C59.8415 23.248 59.3585 24.2361 58.8897 25.1909L58.4706 26.0646L58.4008 26.18L58.2763 26.386C57.625 27.45 56.4183 29.4449 55.2424 29.6196L55.1609 29.6321C54.8579 29.5187 54.6654 29.3456 54.5636 29.1157L54.4768 28.669C54.4768 28.1312 54.7538 27.5186 54.9965 26.9778L55.0474 26.8706L54.9338 26.879C54.3874 26.9642 53.8995 27.2003 53.3633 27.4791C52.276 28.137 51.1567 29.6227 51.1567 30.9582C51.1567 31.2359 51.201 31.497 51.2947 31.7399C51.5195 32.249 52.111 32.2656 52.3585 32.2521C59.8099 31.5407 63.9894 22.9105 67.0429 16.6059L67.6423 15.3619C67.8266 15.1133 67.8567 14.9628 67.8567 14.8757L67.8511 14.8008C67.8391 14.7925 67.7378 14.6591 67.7378 14.6591C67.7457 14.6682 67.6621 14.2064 67.6621 14.2064C67.7869 13.5969 69.2309 12.3155 69.2459 12.3004C69.2459 12.3038 69.4295 12.1608 69.4295 12.1608C69.5772 12.0627 69.6691 11.9618 69.6727 11.8802C69.6727 11.7926 69.5759 11.6763 69.4295 11.5814C69.1364 11.3895 68.8189 11.2514 67.6079 10.9072C65.3695 10.2667 61.519 10.7491 58.0263 14.2014C57.6604 14.5603 56.9851 15.4295 56.4348 16.1274L55.7285 17.0261C54.0263 19.0543 52.2724 21.1574 49.3725 20.5697C48.9913 20.4095 48.59 20.084 48.4357 19.6835C48.3525 19.4542 48.3583 19.2238 48.4533 19.0158L48.4892 18.9419C50.0969 17.79 51.7494 16.2949 53.4465 14.481C56.2963 11.3705 59.7863 6.13805 59.3282 4.83844C58.9872 3.93304 57.97 3.90131 57.6624 3.91639ZM34.1066 14.1362C35.6863 13.3467 37.6601 13.4037 39.1319 14.2818C39.1319 14.2818 39.301 14.3811 39.3857 14.4342C39.317 14.5337 38.3018 15.9777 38.3018 15.9777C36.6307 18.0516 33.4063 20.1058 32.029 19.9779V19.9748C31.3866 19.9181 30.9375 19.5962 30.8254 19.1068L30.803 18.6944C30.803 17.2913 32.63 15.1227 33.5876 14.4594C33.5772 14.4664 34.1066 14.1362 34.1066 14.1362ZM52.7988 9.11586C53.5652 8.15611 54.8223 7.30894 55.1981 7.12927C55.4874 6.98937 55.6419 7.15631 55.6829 7.20805C55.7463 7.28736 55.7675 7.39579 55.7675 7.50396C55.7675 7.63137 55.73 7.75723 55.6865 7.81183L55.7005 7.81417C55.0303 10.2015 50.7936 15.2668 48.3563 17.0417C48.3563 17.0417 48.0642 17.2513 47.8898 17.3792C47.9148 17.1894 47.9644 16.8066 47.9644 16.8066C48.1717 15.1081 51.3235 10.9667 52.7988 9.11586ZM57.5636 19.9534L57.5226 19.9269C56.8647 19.4412 56.6571 18.7558 56.9296 17.9502C57.1761 17.0136 59.7231 14.1388 61.738 13.7383C63.5667 13.3761 64.2975 14.0088 64.6502 14.3096C64.6502 14.3151 64.8419 14.469 64.9341 14.5496C64.8564 14.6344 63.9441 15.6334 63.9441 15.6334C62.5999 17.5695 59.2363 20.7486 57.5636 19.9534Z" fill="#94A1AD"/>
</g>
<defs>
<clipPath id="clip0_1147_31329">
<rect width="139.443" height="31.607" fill="white" transform="translate(0.085907 0.648438)"/>
</clipPath>
</defs>
</svg>
