<svg width="122" height="25" viewBox="0 0 122 25" fill="none" xmlns="http://www.w3.org/2000/svg">
<g clip-path="url(#clip0_1147_31309)">
<path fill-rule="evenodd" clip-rule="evenodd" d="M40.7014 20.567H30.3308C29.9851 20.5664 29.7234 20.3033 29.7228 19.9558V18.6836C29.7153 18.3713 29.8152 18.2325 30.006 17.9946L38.261 8.34794H30.1728C29.8265 8.34731 29.5648 8.08426 29.5642 7.73678V6.83527C29.5648 6.48778 29.8265 6.22474 30.1728 6.22411H40.6487C40.995 6.22474 41.2567 6.48778 41.2567 6.83527V8.13386C41.262 8.36897 41.1805 8.56798 40.9944 8.77703L32.7194 18.4432H40.7014C41.0471 18.4438 41.3088 18.7068 41.3094 19.0543V19.9552C41.3088 20.3033 41.0471 20.5664 40.7014 20.567ZM61.1451 20.8322H61.146C61.8896 20.8172 62.4385 20.6696 62.654 20.427C62.7299 20.341 62.7655 20.2421 62.7558 20.1439C62.7508 20.0629 62.7508 20.0629 62.5466 19.103L62.5422 19.0804C62.4982 18.8296 62.3193 18.7156 62.1725 18.7156L62.1525 18.7172C62.1525 18.7172 61.9661 18.7081 61.7821 18.7081H61.7806C61.251 18.6911 60.8122 18.6139 60.8032 17.8351V1.54203C60.8025 1.27082 60.6401 0.991455 60.3272 0.984863L60.2348 0.985491L58.7871 1.35777C58.5404 1.3832 58.2834 1.55992 58.2947 1.88732V17.8882C58.2968 19.7835 59.3096 20.8285 61.1435 20.8322H61.1451ZM90.4174 20.567H89.1255C88.7792 20.5664 88.5184 20.3033 88.5169 19.9558V10.1484C88.4938 8.4895 88.0004 8.02807 86.2229 8.00359C84.2128 8.00359 82.1774 8.50959 81.5069 8.69385V19.9552C81.506 20.3093 81.2618 20.5664 80.9249 20.567H79.6061C79.2598 20.5664 78.9984 20.3033 78.9984 19.9558V8.95595C78.9791 7.93767 79.0737 7.2336 80.5145 6.76464C81.8942 6.28626 84.5338 5.88039 86.2779 5.87882C89.6017 5.88322 91.021 7.0889 91.0254 9.90926V19.9552C91.0244 20.3033 90.7637 20.5664 90.4174 20.567ZM103.404 8.40475C102.921 8.28139 101.575 7.9766 100.058 7.9766C97.273 8.00265 96.1042 8.76291 96.0752 13.4089C96.1079 18.5113 97.6187 18.7869 100.083 18.8139L100.085 18.9209V18.8139C101.617 18.8139 102.933 18.4924 103.402 18.3631L103.404 8.40475ZM104.083 20.3761L103.929 20.4151C103.107 20.6247 101.981 20.9116 100.007 20.9116H100.002C94.5619 20.9032 93.4936 18.145 93.4883 13.3822C93.4951 7.92041 95.217 5.88636 99.8434 5.87882C101.476 5.87882 102.6 6.09133 103.408 6.28689L103.402 1.88794C103.396 1.69458 103.483 1.44158 103.937 1.35463L105.381 0.984863H105.46C105.793 0.993025 105.91 1.29028 105.911 1.54203V18.074C105.933 19.1171 105.811 20.013 104.083 20.3761ZM114.632 18.7875C111.067 18.7718 110.888 16.9318 110.863 13.4098C110.888 9.86751 111.067 8.01834 114.632 8.00359C118.199 8.01834 118.377 9.86751 118.402 13.4076C118.377 16.9318 118.198 18.7718 114.632 18.7875ZM114.632 5.87882C108.754 5.88699 108.256 9.7702 108.25 13.4089C108.256 17.0344 108.754 20.9032 114.632 20.9116C120.507 20.9032 121.007 17.0451 121.016 13.4083C121.01 9.60321 120.511 5.88699 114.632 5.87882ZM73.8875 13.4855C73.2988 13.4921 70.4431 13.5385 69.3064 13.7827L69.2168 13.8022C67.9383 14.0897 66.9287 14.316 66.9162 16.2189C66.9184 18.6117 68.7409 18.8264 70.607 18.8409L70.6086 18.9479V18.8409C71.7768 18.8409 72.8794 18.6745 73.8875 18.3449V13.4855ZM76.4094 9.98961V17.5969C76.4347 19.4878 75.9513 20.0921 74.0573 20.534C73.2279 20.707 71.957 20.9116 70.5802 20.9116C68.5516 20.9069 64.3303 20.8988 64.3287 16.3237C64.3153 12.7208 66.4684 12.0946 69.0709 11.6925C70.7753 11.4178 72.5091 11.3764 73.3906 11.3764C73.6289 11.3764 73.7831 11.3786 73.8746 11.3802V10.0951C73.8665 9.23689 73.8612 8.71708 73.0634 8.41385C72.5709 8.2048 71.8371 8.10906 70.745 8.10906C68.9448 8.10906 67.3325 8.5143 66.2658 8.783L65.8583 8.87905C65.8142 8.89003 65.7674 8.90133 65.7062 8.90447H65.7056C65.5179 8.90447 65.3115 8.79273 65.2353 8.54349L65.2293 8.52026L64.9889 7.29638L64.9879 7.23297C64.9917 6.9445 65.1997 6.77531 65.3942 6.71316C66.2539 6.3911 68.527 5.88039 70.9758 5.87882C72.7654 5.88039 74.0573 6.11393 74.9267 6.59482C76.4153 7.38553 76.4116 8.82945 76.4094 9.98961ZM52.7868 18.3449C51.7787 18.6745 50.6761 18.8409 49.5079 18.8409V18.9479L49.5063 18.8409C47.6408 18.8264 45.8177 18.6117 45.8156 16.2189C45.8274 14.316 46.8376 14.0897 48.1161 13.8022L48.2048 13.7827C49.3424 13.5385 52.1981 13.4921 52.7868 13.4855V18.3449ZM53.826 6.59482C52.9566 6.11393 51.6638 5.88039 49.8745 5.87882C47.4263 5.88039 45.1523 6.3911 44.2926 6.71316C44.098 6.77531 43.8904 6.9445 43.8873 7.23297V7.29638L44.1287 8.52026L44.1346 8.54349C44.2098 8.79273 44.4172 8.90447 44.6049 8.90447H44.6055C44.6658 8.90133 44.7135 8.89003 44.7576 8.87905L45.1642 8.783C46.2312 8.5143 47.8435 8.10906 49.6434 8.10906C50.7357 8.10906 51.4696 8.2048 51.962 8.41385C52.7605 8.71708 52.7658 9.23689 52.774 10.0951V11.3802C52.6825 11.3786 52.5282 11.3764 52.2896 11.3764C51.4084 11.3764 49.6746 11.4178 47.9693 11.6925C45.3678 12.0946 43.2146 12.7208 43.228 16.3237C43.2287 20.8988 47.45 20.9069 49.4788 20.9116C50.8563 20.9116 52.1266 20.707 52.9566 20.534C54.8496 20.0921 55.333 19.4878 55.3087 17.5969V9.98961C55.3109 8.82945 55.3146 7.38553 53.826 6.59482Z" fill="#94A1AD"/>
<path fill-rule="evenodd" clip-rule="evenodd" d="M5.26571 24.6077C4.38665 24.6077 3.89795 24.4008 3.6372 24.2489C3.27589 24.0402 2.60919 23.5069 2.0115 21.9258C1.05344 19.3945 0.48791 16.3033 0.462616 12.6702V12.6567C0.48791 9.02306 1.05344 5.93243 2.0115 3.40023C2.60919 1.82007 3.27589 1.28614 3.6372 1.07739C3.89795 0.925154 4.38603 0.719238 5.26508 0.719238C5.60046 0.719238 5.99299 0.749372 6.4511 0.823452C9.11168 1.25632 12.0577 2.30912 15.2001 4.1043L15.212 4.11026C18.3291 5.94875 20.7095 7.98657 22.4127 10.0865C23.475 11.3971 23.6009 12.2443 23.6009 12.6636C23.6009 13.0821 23.475 13.9299 22.4127 15.2398C20.7095 17.3397 18.3291 19.3782 15.212 21.2167L15.2001 21.2236C12.0577 23.0178 9.11168 24.0706 6.4511 24.5035C5.99299 24.5779 5.60109 24.6077 5.26571 24.6077Z" fill="#94A1AD"/>
</g>
<defs>
<clipPath id="clip0_1147_31309">
<rect width="120.85" height="24.17" fill="white" transform="translate(0.462616 0.437988)"/>
</clipPath>
</defs>
</svg>
