<svg width="94" height="76" viewBox="0 0 94 76" fill="none" xmlns="http://www.w3.org/2000/svg">
<g clip-path="url(#clip0_1285_7258)">
<path fill-rule="evenodd" clip-rule="evenodd" d="M57.6802 28.6426C57.6802 12.9177 44.8994 0.159729 29.1289 0.159729C13.3583 0.159729 0.554688 12.9177 0.554688 28.6426V57.1255H29.106C44.8994 57.1255 57.6802 44.3675 57.6802 28.6426ZM41.3619 24.2378C43.3018 24.2378 44.8994 25.8126 44.8994 27.7525C44.8994 29.6925 43.3247 31.2672 41.3619 31.2672C39.3991 31.2672 37.8244 29.6925 37.8244 27.7525C37.8244 25.8126 39.3991 24.2378 41.3619 24.2378ZM41.3619 33.6636C43.3018 33.6636 44.8994 35.2384 44.8994 37.1783C44.8994 39.1183 43.3247 40.6931 41.3619 40.6931C39.3991 40.6931 37.8244 39.1183 37.8244 37.1783C37.8244 35.2384 39.3991 33.6636 41.3619 33.6636ZM14.1799 32.4312V16.9345H20.3877V32.4312C20.3877 34.8276 22.3277 36.7675 24.7469 36.7675C27.1433 36.7675 29.106 34.8276 29.106 32.4312C29.106 30.0348 27.1661 28.0949 24.7469 28.0949H22.8754V21.8871H24.7469C30.5895 21.8871 35.3139 26.6114 35.3139 32.4312C35.3139 38.251 30.5895 42.9753 24.7469 42.9753C18.9271 42.9753 14.1799 38.251 14.1799 32.4312Z" fill="#002E6E"/>
<path fill-rule="evenodd" clip-rule="evenodd" d="M57.6818 73.1471L55.7419 67.5555H53.4824L56.5179 75.5664H58.8686L61.904 67.5555H59.6446L57.6818 73.1471Z" fill="#002E6E"/>
<path fill-rule="evenodd" clip-rule="evenodd" d="M66.1246 67.3209C64.9378 67.3209 63.9336 67.7317 63.1348 68.5534C62.3132 69.375 61.9023 70.3792 61.9023 71.566C61.9023 72.7528 62.3132 73.757 63.1348 74.5558C63.9564 75.3774 64.9606 75.7882 66.1246 75.7882C67.2885 75.7882 68.3156 75.3774 69.1372 74.5558C69.9588 73.7341 70.3696 72.7299 70.3696 71.566C70.3696 70.402 69.9588 69.375 69.1372 68.5534C68.3156 67.7317 67.3114 67.3209 66.1246 67.3209ZM67.6765 73.1407C67.2657 73.5516 66.7408 73.757 66.1246 73.757C65.5084 73.757 64.9834 73.5516 64.5726 73.1407C64.1618 72.7299 63.9564 72.205 63.9564 71.566C63.9564 70.9269 64.1618 70.402 64.5726 69.9912C64.9834 69.5804 65.5084 69.375 66.1246 69.375C66.7408 69.375 67.2657 69.5804 67.6765 69.9912C68.0873 70.402 68.2927 70.9269 68.2927 71.566C68.3156 72.205 68.1102 72.7299 67.6765 73.1407Z" fill="#002E6E"/>
<path fill-rule="evenodd" clip-rule="evenodd" d="M71.4668 75.5664H73.5437V67.5555H71.4668V75.5664Z" fill="#002E6E"/>
<path fill-rule="evenodd" clip-rule="evenodd" d="M80.1615 73.4438C79.8419 73.6264 79.454 73.7177 79.0431 73.7177C78.4269 73.7177 77.902 73.5123 77.514 73.1015C77.1032 72.6907 76.8978 72.1658 76.8978 71.5496C76.8978 70.9105 77.1032 70.3856 77.514 69.9748C77.9248 69.564 78.4269 69.3586 79.0431 69.3586C79.454 69.3586 79.8191 69.4499 80.1386 69.6553C80.4582 69.8378 80.7092 70.1117 80.869 70.4312L82.6492 69.3814C82.3068 68.7423 81.8275 68.2402 81.1885 67.8751C80.5495 67.5099 79.8419 67.3045 79.066 67.3045C77.8564 67.3045 76.8522 67.7153 76.0534 68.5141C75.2546 69.3357 74.8438 70.3171 74.8438 71.5267C74.8438 72.7135 75.2546 73.7177 76.0534 74.5393C76.8522 75.361 77.8564 75.7489 79.066 75.7489C79.8419 75.7489 80.5495 75.5664 81.1885 75.1784C81.8275 74.7904 82.3296 74.2883 82.672 73.6721L80.869 72.645C80.732 73.0102 80.481 73.2613 80.1615 73.4438Z" fill="#002E6E"/>
<path fill-rule="evenodd" clip-rule="evenodd" d="M87.6246 67.3273C86.3921 67.3273 85.3651 67.7381 84.5891 68.5369C83.7903 69.3357 83.4023 70.3399 83.4023 71.5496C83.4023 72.7592 83.8132 73.7862 84.612 74.585C85.4107 75.3838 86.4834 75.7946 87.8071 75.7946C89.3363 75.7946 90.5002 75.224 91.299 74.0829L89.633 73.1243C89.2222 73.6492 88.6288 73.9231 87.83 73.9231C86.5975 73.9231 85.8444 73.421 85.5705 72.4168H91.5957C91.6414 72.1201 91.687 71.8462 91.687 71.5724C91.687 70.3856 91.299 69.3814 90.5459 68.5598C89.7699 67.7381 88.8114 67.3273 87.6246 67.3273ZM85.5249 70.7964C85.639 70.2943 85.89 69.8835 86.2552 69.6096C86.6204 69.3357 87.0768 69.176 87.6246 69.176C88.1038 69.176 88.5147 69.3129 88.8798 69.5868C89.245 69.8607 89.496 70.2487 89.6102 70.7964H85.5249Z" fill="#002E6E"/>
<path fill-rule="evenodd" clip-rule="evenodd" d="M5.21054 67.3045C4.09223 67.3045 3.22496 67.6925 2.60874 68.4685V64.3147H0.554688V75.5435H2.60874V74.6078C3.22496 75.3838 4.09223 75.7718 5.21054 75.7718C6.28322 75.7718 7.21895 75.3609 7.97211 74.5393C8.72526 73.7177 9.11325 72.7135 9.11325 71.5495C9.11325 70.3627 8.72526 69.3585 7.97211 68.5369C7.21895 67.7153 6.28322 67.3045 5.21054 67.3045ZM6.42015 73.1471C6.00934 73.5579 5.46159 73.7862 4.82256 73.7862C4.18352 73.7862 3.65859 73.5808 3.24778 73.1471C2.83697 72.7363 2.63156 72.1886 2.63156 71.5267C2.63156 70.8649 2.83697 70.3171 3.24778 69.9063C3.65859 69.4955 4.18352 69.2673 4.82256 69.2673C5.46159 69.2673 5.98652 69.4727 6.42015 69.9063C6.83096 70.3171 7.05919 70.8649 7.05919 71.5267C7.05919 72.1886 6.85379 72.7363 6.42015 73.1471Z" fill="#002E6E"/>
<path fill-rule="evenodd" clip-rule="evenodd" d="M16.9192 68.4685C16.303 67.6925 15.4357 67.3045 14.3174 67.3045C13.2447 67.3045 12.3318 67.7153 11.5786 68.5369C10.8255 69.3586 10.4375 70.3628 10.4375 71.5496C10.4375 72.7363 10.8255 73.7405 11.5786 74.5393C12.3318 75.361 13.2675 75.7718 14.3174 75.7718C15.4357 75.7718 16.303 75.3838 16.9192 74.6078V75.5435H18.9732V67.5327H16.9192V68.4685ZM16.2801 73.1471C15.8693 73.558 15.3216 73.7862 14.6825 73.7862C14.0435 73.7862 13.5186 73.5808 13.1078 73.1471C12.697 72.7363 12.4916 72.1886 12.4916 71.5267C12.4916 70.8649 12.697 70.3171 13.1078 69.9063C13.5186 69.4955 14.0435 69.2673 14.6825 69.2673C15.3216 69.2673 15.8465 69.4727 16.2801 69.9063C16.691 70.3171 16.9192 70.8649 16.9192 71.5267C16.9192 72.1886 16.7138 72.7363 16.2801 73.1471Z" fill="#002E6E"/>
<path fill-rule="evenodd" clip-rule="evenodd" d="M26.6426 68.9021V67.5327H20.6402V69.4727H23.8582L20.4805 74.1513V75.5435H26.8024V73.6036H23.242L26.6426 68.9021Z" fill="#002E6E"/>
<path fill-rule="evenodd" clip-rule="evenodd" d="M34.22 68.4685C33.6037 67.6925 32.7365 67.3045 31.6182 67.3045C30.5455 67.3045 29.6326 67.7153 28.8794 68.5369C28.1263 69.3586 27.7383 70.3628 27.7383 71.5496C27.7383 72.7363 28.1263 73.7405 28.8794 74.5393C29.6326 75.361 30.5683 75.7718 31.6182 75.7718C32.7365 75.7718 33.6037 75.3838 34.22 74.6078V75.5435H36.274V67.5327H34.22V68.4685ZM33.5809 73.1471C33.1701 73.558 32.6224 73.7862 31.9833 73.7862C31.3443 73.7862 30.8194 73.5808 30.4086 73.1471C29.9977 72.7363 29.7923 72.1886 29.7923 71.5267C29.7923 70.8649 29.9977 70.3171 30.4086 69.9063C30.8194 69.4955 31.3443 69.2673 31.9833 69.2673C32.6224 69.2673 33.1473 69.4727 33.5809 69.9063C33.9917 70.3171 34.22 70.8649 34.22 71.5267C34.22 72.1886 33.9917 72.7363 33.5809 73.1471Z" fill="#002E6E"/>
<path fill-rule="evenodd" clip-rule="evenodd" d="M44.1243 68.4685C43.508 67.6925 42.6408 67.3045 41.5225 67.3045C40.4498 67.3045 39.5369 67.7153 38.7837 68.5369C38.0306 69.3586 37.6426 70.3628 37.6426 71.5496C37.6426 72.7363 38.0306 73.7405 38.7837 74.5393C39.5369 75.361 40.4726 75.7718 41.5225 75.7718C42.6408 75.7718 43.508 75.3838 44.1243 74.6078V75.5435H46.1783V67.5327H44.1243V68.4685ZM43.4852 73.1471C43.0744 73.558 42.5267 73.7862 41.8876 73.7862C41.2486 73.7862 40.7237 73.5808 40.3129 73.1471C39.902 72.7363 39.6966 72.1886 39.6966 71.5267C39.6966 70.8649 39.902 70.3171 40.3129 69.9063C40.7237 69.4955 41.2486 69.2673 41.8876 69.2673C42.5267 69.2673 43.0516 69.4727 43.4852 69.9063C43.896 70.3171 44.1243 70.8649 44.1243 71.5267C44.1243 72.1886 43.9189 72.7363 43.4852 73.1471Z" fill="#002E6E"/>
<path fill-rule="evenodd" clip-rule="evenodd" d="M49.8978 68.9021V67.5327H47.8438V75.5436H49.8978V71.7093C49.8978 70.9333 50.1488 70.3856 50.6509 70.0661C51.153 69.7237 51.7008 69.6096 52.3398 69.6781V67.373C51.7921 67.373 51.3128 67.5099 50.8563 67.761C50.3999 68.012 50.0804 68.4 49.8978 68.9021Z" fill="#002E6E"/>
<path fill-rule="evenodd" clip-rule="evenodd" d="M91.4824 67.3501C91.4824 66.7796 91.9161 66.3459 92.4866 66.3459C93.0572 66.3459 93.4908 66.7796 93.4908 67.3501C93.4908 67.9207 93.0572 68.3543 92.4866 68.3543C91.9161 68.3543 91.4824 67.8979 91.4824 67.3501ZM93.3083 67.3501C93.3083 66.8709 92.9431 66.5285 92.4866 66.5285C92.0302 66.5285 91.665 66.8709 91.665 67.3501C91.665 67.8294 92.0073 68.1718 92.4866 68.1718C92.9431 68.1718 93.3083 67.8066 93.3083 67.3501ZM92.3497 67.5327V67.9435H92.0758V66.7796H92.5551C92.7833 66.7796 92.9431 66.9165 92.9431 67.1447C92.9431 67.3045 92.8518 67.4186 92.7149 67.4871L92.9887 67.9435H92.6464L92.441 67.5327H92.3497ZM92.4638 67.3045C92.5779 67.3045 92.6692 67.2817 92.6692 67.1219C92.6692 67.0306 92.5779 66.9622 92.4638 66.9622H92.3269V67.2817H92.4638V67.3045Z" fill="#002E6E"/>
</g>
<defs>
<clipPath id="clip0_1285_7258">
<rect width="93.1171" height="76" fill="white" transform="translate(0.441406)"/>
</clipPath>
</defs>
</svg>
