<svg width="139" height="32" viewBox="0 0 139 32" fill="none" xmlns="http://www.w3.org/2000/svg">
<path d="M7.73238 20.2522H16.4679C18.4519 20.2522 19.8993 18.9558 19.8993 17.2761C19.8993 15.5603 18.4519 14.2638 16.4679 14.2638H7.73238V20.2522ZM7.73238 10.0693H15.5902C17.5351 10.0693 18.5664 8.80905 18.5664 7.36165C18.5664 5.94743 17.5351 4.69015 15.5902 4.69015H7.73238V10.0693ZM3.30888 14.2638H0.447266V10.0693H3.30888V0.495918H16.0877C19.7483 0.495918 22.9899 2.63085 22.9899 6.90339C22.9899 9.11365 21.8441 10.8686 20.0529 11.6707C22.5316 12.4727 24.3255 14.4537 24.3255 17.5054C24.3255 21.7782 21.1595 24.4468 16.962 24.4468H3.30858V14.2638H3.30888Z" fill="#5CB632"/>
<path d="M41.8652 13.3091C41.0271 10.4866 38.9283 9.00006 36.4105 9.00006C33.8926 9.00006 31.8333 10.5649 31.1849 13.3091H41.8652ZM45.5259 20.4432C43.3126 23.2262 40.2612 24.9059 36.9443 24.9421C30.4977 24.9421 26.7617 20.0995 26.7617 15.2177C26.7617 10.336 30.4977 5.49037 36.9443 5.49037C40.7978 5.49037 46.518 8.6566 46.518 15.8661V16.5898H31.1852C31.4145 19.4122 34.0468 21.4354 36.8298 21.4354C38.9648 21.4354 40.7981 20.4041 42.1699 18.5738L45.5259 20.4432Z" fill="#5CB632"/>
<path d="M50.4824 5.98688H54.4474V8.31462H54.5257C55.6323 6.59579 57.6525 5.49216 60.1673 5.49216C64.0602 5.49216 67.3406 8.73371 67.3406 13.3109V24.4464H63.373V14.1885C63.373 10.8295 61.618 9.45741 58.9887 9.45741C56.4316 9.45741 54.4477 11.0976 54.4477 14.1099V24.4464H50.4827V5.98688H50.4824Z" fill="#5CB632"/>
<path d="M72.601 9.72436H70.3516V5.98539H72.601V1.06746L76.5659 0V5.98539H79.3914V9.72436H76.5659V24.4482H72.601V9.72436Z" fill="#5CB632"/>
<path d="M86.2905 0.49411V17.0089C86.2905 19.1468 86.7488 19.9096 87.9307 20.5942L90.0686 21.8153L88.3136 24.9421C84.2309 22.9973 82.3223 21.586 82.3223 17.7356V0.49411H86.2905Z" fill="#5CB632"/>
<path d="M106.125 13.3091C105.287 10.4866 103.188 9.00005 100.67 9.00005C98.1524 9.00005 96.0931 10.5649 95.4447 13.3091H106.125ZM109.786 20.4432C107.575 23.2262 104.524 24.9059 101.204 24.9421C94.7604 24.9421 91.0215 20.0995 91.0215 15.2177C91.0215 10.3359 94.7604 5.49036 101.204 5.49036C105.058 5.49036 110.778 8.65658 110.778 15.8661V16.5898H95.445C95.6743 19.4122 98.3066 21.4354 101.09 21.4354C103.228 21.4354 105.058 20.4041 106.43 18.5737L109.786 20.4432Z" fill="#5CB632"/>
<path d="M114.094 5.98687H118.059V16.8179C118.059 19.9084 119.968 21.2052 122.41 21.2052C125.498 21.2052 126.984 19.2995 126.984 16.4379V5.98687H130.953V23.8737C130.953 29.5183 125.956 32 122.522 32C118.367 32 116.497 30.4351 114.703 28.3755L118.059 26.3159C119.319 27.537 120.577 28.2607 122.295 28.2607C124.928 28.2607 127.213 26.6597 127.213 23.4181V22.426H127.138C125.576 24.181 124.126 24.9438 121.569 24.9438C117.45 24.9438 114.094 21.8562 114.094 16.6669V5.98687Z" fill="#5CB632"/>
<path d="M134.999 8.44675H135.642C135.946 8.44675 136.088 8.21748 136.088 7.94934C136.088 7.72634 135.977 7.47883 135.642 7.47883H134.999V8.44675ZM134.999 10.217H134.502V7.13835H135.726C136.317 7.13835 136.588 7.52128 136.588 7.9042C136.588 8.26919 136.308 8.54659 135.919 8.61595V8.63089C136.302 8.67304 136.438 8.79381 136.459 9.41497C136.465 9.55069 136.51 10.0272 136.579 10.217H136.088C135.967 10.0059 135.997 9.60479 135.961 9.19467C135.925 8.86585 135.642 8.84492 135.5 8.84492H135V10.217H134.999ZM133.22 8.67304C133.22 9.93959 134.239 10.9526 135.506 10.9526C136.773 10.9526 137.777 9.93959 137.777 8.67304C137.777 7.41576 136.773 6.39642 135.506 6.39642C134.239 6.39642 133.22 7.41576 133.22 8.67304ZM138.175 8.66706C138.175 10.1626 136.977 11.3508 135.506 11.3508C134.025 11.3508 132.822 10.1629 132.822 8.66706C132.822 7.18648 134.025 5.99855 135.506 5.99855C136.978 5.99855 138.175 7.18648 138.175 8.66706Z" fill="#5CB632"/>
</svg>
