<svg width="209" height="43" viewBox="0 0 209 43" fill="none" xmlns="http://www.w3.org/2000/svg">
<path d="M59.508 33.1729H52.2266V11.1048H59.5963C63.7004 11.1048 67.2749 12.421 67.2749 16.5889C67.2749 19.4407 65.7304 21.0201 63.3473 21.6343V21.6782C65.9952 22.0731 68.2017 23.828 68.2017 26.9868C68.2017 31.5496 64.583 33.1729 59.508 33.1729ZM59.1109 14.7024H56.3748V20.1865H58.9785C61.4939 20.1865 62.5971 19.3091 62.5971 17.3348C62.6413 15.536 61.4497 14.7024 59.1109 14.7024ZM59.0667 23.5209H56.4189V29.5753H58.8902C61.5821 29.5753 63.0384 28.7418 63.0384 26.6358C62.9943 24.5738 61.8028 23.5209 59.0667 23.5209Z" fill="white"/>
<path d="M80.2934 20.9283C80.0286 20.7528 79.5432 20.5773 78.5723 20.5773C76.5865 20.5773 75.4391 22.2883 75.0419 23.0342V33.1688H70.6289V17.0236H75.0419V19.2172C75.748 18.0327 77.0719 16.6287 79.146 16.6287C80.3375 16.6287 80.9553 16.8481 81.3525 17.0675L80.2934 20.9283Z" fill="white"/>
<path d="M89.2547 33.5637C83.606 33.5637 81.1348 29.308 81.1348 25.1401C81.1348 21.016 83.5619 16.6287 89.2106 16.6287C94.8592 16.6287 97.4187 20.8844 97.4187 25.0085C97.4187 29.0887 94.9475 33.5637 89.2547 33.5637ZM89.1664 19.9192C86.651 19.9192 85.8125 22.0251 85.8125 25.0085C85.8125 27.9918 86.8275 30.1855 89.2988 30.1855C91.8142 30.1855 92.741 28.1234 92.741 25.0962C92.741 22.1128 91.6818 19.9192 89.1664 19.9192Z" fill="white"/>
<path d="M108.314 33.171C108.182 32.7761 108.093 31.9425 108.049 31.4599C107.299 32.3374 105.799 33.5658 103.504 33.5658C100.724 33.5658 98.6055 31.8987 98.6055 29.0469C98.6055 24.8351 102.974 23.2996 107.255 23.2996H107.829V22.3782C107.829 20.9743 107.255 20.1407 105.181 20.1407C103.107 20.1407 101.65 21.2375 101.033 21.6763L99.0909 19C100.062 18.1226 102.18 16.6747 105.666 16.6747C110.079 16.6747 112.198 18.3858 112.198 22.6415V28.4327C112.198 30.6264 112.418 32.1619 112.683 33.2149H108.314V33.171ZM107.387 26.0197H106.814C104.21 26.0197 102.401 26.7655 102.401 28.6521C102.401 29.8366 103.372 30.3192 104.342 30.3192C105.931 30.3192 106.858 29.3979 107.343 28.8714V26.0197H107.387Z" fill="white"/>
<path d="M121.774 16.6313C123.76 16.6313 124.952 17.3332 125.526 17.772V9.4361H129.939V28.5647C129.939 30.6706 130.203 32.2939 130.424 33.1714H126.099C125.967 32.7765 125.79 31.8991 125.746 31.4165C124.731 32.601 123.363 33.6101 121.201 33.6101C117.141 33.6101 114.537 30.5829 114.537 25.1865C114.537 19.9656 117.626 16.6313 121.774 16.6313ZM122.525 30.0564C124.113 30.0564 125.172 28.9157 125.57 28.4331V21.1502C124.996 20.6676 124.157 20.0972 122.745 20.0972C120.495 20.0972 119.259 21.9838 119.259 25.1426C119.215 28.2137 120.23 30.0564 122.525 30.0564Z" fill="white"/>
<path d="M143.003 20.9283C142.738 20.7528 142.253 20.5773 141.326 20.5773C139.34 20.5773 138.193 22.2883 137.796 23.0342V33.1688H133.383V17.0236H137.796V19.2172C138.502 18.0327 139.826 16.6287 141.9 16.6287C143.091 16.6287 143.753 16.8481 144.106 17.0675L143.003 20.9283Z" fill="white"/>
<path d="M147.992 14.9619C146.536 14.9619 145.477 13.8212 145.477 12.5051C145.477 11.2327 146.536 10.092 147.992 10.092C149.448 10.092 150.507 11.1889 150.507 12.5051C150.552 13.8212 149.448 14.9619 147.992 14.9619Z" fill="white"/>
<path d="M150.238 17.0315H145.781V33.1768H150.238V17.0315Z" fill="white"/>
<path d="M159.951 16.6313C161.937 16.6313 163.129 17.3332 163.702 17.772V9.4361H168.115V28.5647C168.115 30.6706 168.38 32.2939 168.601 33.1714H164.232C164.1 32.7765 163.923 31.8991 163.879 31.4165C162.864 32.601 161.496 33.6101 159.334 33.6101C155.274 33.6101 152.67 30.5829 152.67 25.1865C152.67 19.9656 155.803 16.6313 159.951 16.6313ZM160.702 30.0564C162.29 30.0564 163.349 28.9157 163.747 28.4331V21.1502C163.173 20.6676 162.334 20.0972 160.922 20.0972C158.672 20.0972 157.436 21.9838 157.436 25.1426C157.392 28.2137 158.407 30.0564 160.702 30.0564Z" fill="white"/>
<path d="M186.379 16.6287V19.9192H184.216C184.613 20.665 184.834 21.5864 184.834 22.5077C184.834 25.9298 182.363 28.3428 177.817 28.3428C177.111 28.3428 176.493 28.2551 175.876 28.1673C175.611 28.3867 175.258 28.6499 175.258 29.1325C175.258 30.01 176.184 30.1416 178.523 30.2732C181.877 30.4487 186.158 30.4926 186.158 35.2309C186.158 38.653 182.583 41.066 177.288 41.066C172.831 41.066 170.139 39.6621 170.139 36.7664C170.139 34.9676 171.242 33.6953 172.875 32.8179C171.992 32.2914 171.463 31.5455 171.463 30.361C171.463 28.8254 172.345 27.9041 173.272 27.3337C171.463 26.3247 170.359 24.6136 170.359 22.5077C170.359 19.0417 173.051 16.6287 177.553 16.6287C178.7 16.6287 186.379 16.6287 186.379 16.6287ZM173.978 35.9328C173.978 37.249 174.861 38.1265 177.155 38.1265C179.847 38.1265 181.392 37.1174 181.392 35.7574C181.392 34.0463 179.847 34.0902 177.508 33.9147C176.758 33.8708 176.008 33.7831 175.302 33.6953C174.419 34.2657 173.978 34.9676 173.978 35.9328ZM180.553 22.5077C180.553 20.6212 179.45 19.5243 177.641 19.5243C175.831 19.5243 174.728 20.6212 174.728 22.5077C174.728 24.3504 175.831 25.4911 177.641 25.4911C179.45 25.4911 180.553 24.3504 180.553 22.5077Z" fill="white"/>
<path d="M196.048 30.2711C198.254 30.2711 199.49 29.5252 200.284 29.1304L201.697 31.9821C200.637 32.5964 198.96 33.5177 195.651 33.5177C190.223 33.5177 187.178 30.0956 187.178 24.9624C187.178 19.8732 190.708 16.5827 195.209 16.5827C200.284 16.5827 202.756 20.0925 202.226 26.0593H191.944C192.076 28.6039 193.356 30.2711 196.048 30.2711ZM197.901 23.1198C197.857 21.321 197.151 19.8293 195.121 19.8293C193.268 19.8293 192.209 21.0139 191.9 23.1198H197.901Z" fill="white"/>
<path d="M205.977 21.2375C204.742 21.2375 203.727 20.2285 203.727 18.9561C203.727 17.6838 204.742 16.6747 205.977 16.6747C207.213 16.6747 208.272 17.6838 208.272 18.9561C208.228 20.2285 207.213 21.2375 205.977 21.2375ZM205.977 17.0257C204.874 17.0257 204.08 17.8154 204.08 18.9561C204.08 20.0968 204.874 20.8866 205.977 20.8866C207.08 20.8866 207.875 20.0968 207.875 18.9561C207.875 17.8593 207.036 17.0257 205.977 17.0257ZM206.595 20.2723L205.977 19.351C205.845 19.1755 205.757 19.0878 205.58 19.0878V20.2723H205.139V17.5522H206.021C206.595 17.5522 206.86 17.9032 206.86 18.298C206.86 18.6929 206.595 18.9561 206.154 19C206.242 19.0878 206.374 19.1755 206.463 19.351L207.08 20.2285L206.595 20.2723ZM205.933 17.9471H205.536V18.7806H205.801C206.11 18.7806 206.418 18.7368 206.418 18.3858C206.418 18.1226 206.286 17.9471 205.933 17.9471Z" fill="white"/>
<path d="M38.1047 0.710743L0.726562 0.66687V0.710743V42.434H38.1047V0.710743ZM29.9848 29.1843V30.9392C25.8807 30.9392 23.3212 29.6231 21.6883 27.9998C21.9531 28.7456 22.262 29.5353 22.6592 30.2811C25.4394 35.7653 30.3378 38.5731 37.4869 38.6609V40.9423C27.4694 40.8545 22.7916 35.6337 20.5851 31.2464C20.0997 30.2811 19.7025 29.3159 19.3936 28.3946C16.0838 36.5111 7.03716 36.5989 6.90477 36.5989V34.0542C7.34607 34.0542 18.0697 33.7032 18.0697 21.5065H20.8057C20.8057 9.30985 31.4852 9.22211 31.9265 9.22211V6.67747C31.7941 6.67747 22.7475 6.80909 19.4377 14.8817C19.1288 13.9604 18.7316 12.9952 18.2462 12.03C16.0397 7.73042 11.3619 2.50954 1.34438 2.42179V1.28109H37.4869V21.5504H20.7616C20.7616 21.8575 20.9381 29.1843 29.9848 29.1843ZM1.34438 4.70319C8.44932 4.79093 13.3919 7.59881 16.1721 13.0829C16.5693 13.8726 16.8782 14.6185 17.1429 15.3643C15.5101 13.741 12.9506 12.4248 8.84649 12.4248V14.1798C17.8932 14.1798 18.0697 21.1994 18.0697 21.5065H1.34438V4.70319Z" fill="white"/>
</svg>
