<svg width="202" height="32" viewBox="0 0 202 32" fill="none" xmlns="http://www.w3.org/2000/svg">
<path fill-rule="evenodd" clip-rule="evenodd" d="M29.335 26.7567V18.1359H32.3494V13.9761H16.0722V18.1359H19.207V21.8737C19.207 21.8737 11.1889 20.4268 10.345 13.9764C10.345 13.9764 9.86273 9.39463 15.9514 6.62153C15.9514 6.62153 15.9531 6.62069 15.9562 6.61929C15.9593 6.61788 15.9635 6.61536 15.9693 6.61284C15.9752 6.61004 15.9828 6.60667 15.9918 6.60275C16.0004 6.59882 16.0108 6.59406 16.0223 6.58874C16.0338 6.5837 16.0475 6.57725 16.0618 6.57081C16.0764 6.56437 16.0921 6.55764 16.1094 6.54979C16.1268 6.54223 16.1453 6.5341 16.1655 6.52541V6.52514C16.1854 6.51645 16.2069 6.50776 16.2294 6.49824V6.49796C16.2521 6.48815 16.2767 6.47834 16.3019 6.46741V6.46714C16.3274 6.45649 16.3541 6.44556 16.3821 6.43407V6.43379C16.4101 6.42258 16.4398 6.41081 16.4703 6.39848V6.39821C16.5009 6.38588 16.5328 6.37383 16.5659 6.36066V6.36038C18.2936 5.68258 23.4447 4.01766 29.2739 5.53605V5.4758V0.351562C29.2739 0.351562 36.9687 1.02992 43.2594 5.73106V5.73134C43.3608 5.80727 43.462 5.88405 43.5628 5.96194C43.6634 6.03984 43.7635 6.11941 43.8632 6.19926C43.8632 6.19926 47.9022 9.57536 47.7215 13.5542C47.7215 13.5542 48.5052 19.2211 40.3666 23.5617C40.3675 23.5617 36.1474 26.0935 29.335 26.7567Z" fill="#85BBE3"/>
<path d="M14.8325 7.19035C16.8191 7.81239 29.5193 11.3457 40.1388 3.74253M24.2698 4.89106V13.9761M10.3359 13.7954H47.7388M15.7858 6.69832C15.0046 8.11443 12.6243 13.4001 15.7838 20.7009M29.2736 2.34687C30.4585 3.22893 34.1569 6.56495 34.1569 13.8554C34.1569 13.8554 34.4424 21.1164 29.3341 25.1708M29.2736 0.887329C30.9943 1.29698 41.4308 4.17683 41.8732 13.8557C41.8732 13.8557 42.1666 23.2935 29.3338 26.3564M29.3338 19.2593C30.5325 19.433 35.1485 20.2912 40.118 23.7004M15.0121 20.2985C15.6426 20.0631 17.1475 19.5507 19.2058 19.1724L15.0121 20.2985Z" stroke="white" stroke-width="1.1342" stroke-miterlimit="2.6131"/>
<path fill-rule="evenodd" clip-rule="evenodd" d="M0.879604 14.6393C0.879604 14.6393 1.1811 19.8841 8.17425 23.6219C8.17425 23.6219 16.0716 28.4446 29.3347 26.817V18.1359H32.4093V13.9761H16.0719V18.1359H19.0862V21.753C9.56122 19.3416 10.5257 13.0114 10.5257 13.0114C11.9123 5.41528 23.3063 4.9933 23.3063 4.9933C23.3063 4.9933 26.6824 4.81258 29.335 5.59629V0.351564C29.335 0.351564 18.9055 -1.63783 8.11428 3.84814C8.114 3.84814 -0.326082 8.24891 0.879604 14.6393Z" fill="#002A44"/>
<path d="M149.611 21.1671C148.614 22.5269 147.119 23.4334 145.351 23.4334C143.085 23.4334 142.359 21.3031 142.359 19.0368C142.359 16.0453 143.991 14.5495 146.257 14.5495C147.39 14.5495 148.524 14.8215 149.521 15.3201L149.611 21.1671ZM149.883 12.9178C148.524 12.0566 146.983 11.558 145.396 11.558C141.498 11.558 138.643 14.9575 138.643 19.0821C138.643 23.2068 140.909 26.3342 144.762 26.3342C146.529 26.3342 148.252 25.6997 149.521 24.4759V25.4731C149.521 27.7394 148.75 29.0991 145.895 29.0991C143.628 29.0991 142.903 28.3286 142.631 27.2408H139.005C139.277 31.0028 142.405 32 145.532 32C150.79 32 153.056 29.2351 153.056 24.9745V14.9575C153.056 14.6855 153.192 14.4589 153.419 14.4589C153.419 14.4589 153.419 14.4589 153.555 14.4589H154.688V11.694H150.427L149.883 12.9178Z" fill="#002A44"/>
<path d="M182.202 23.932C180.208 24.2039 178.304 22.6629 178.078 20.5326C178.078 20.3966 178.078 20.2606 178.078 20.2606H188.956C188.956 19.898 188.956 19.626 188.956 19.2634C188.956 14.6402 186.463 11.3767 181.84 11.3767C177.715 11.2408 174.316 14.6402 174.18 18.7648C174.18 18.9008 174.18 19.0368 174.18 19.1275C174.18 23.7507 177.081 26.8782 182.066 26.8782C184.423 27.0141 186.69 25.881 188.095 23.8867L186.236 22.119C185.194 23.2974 183.698 23.932 182.202 23.932ZM177.942 17.5411C178.214 15.6827 179.936 14.1416 181.84 14.2776C183.698 14.2776 185.33 15.6374 185.466 17.5411H177.942Z" fill="#002A44"/>
<path d="M106.326 23.2974C106.326 23.5694 106.19 23.796 105.964 23.796C105.964 23.796 105.964 23.796 105.828 23.796H104.06V26.5609H111.947V23.796H110.587C110.315 23.796 110.088 23.66 110.088 23.4334C110.088 23.4334 110.088 23.4334 110.088 23.2974V5.75635H103.697V8.52122H105.964C106.236 8.52122 106.462 8.65719 106.462 8.88382C106.462 8.88382 106.462 8.88382 106.462 9.0198V23.2974H106.326Z" fill="#002A44"/>
<path d="M115.21 23.2974C115.21 23.5694 115.074 23.796 114.847 23.796C114.847 23.796 114.847 23.796 114.711 23.796H113.215V26.5609H120.83V23.796H119.334C119.062 23.796 118.836 23.66 118.836 23.4334C118.836 23.4334 118.836 23.4334 118.836 23.2974V5.75635H112.943V8.52122H114.711C114.983 8.52122 115.21 8.65719 115.21 8.88382C115.21 8.88382 115.21 8.88382 115.21 9.0198V23.2974Z" fill="#002A44"/>
<path d="M171.913 23.796C171.641 23.796 171.414 23.66 171.414 23.4334C171.414 23.4334 171.414 23.4334 171.414 23.2974V16.6799C171.55 13.915 169.42 11.5581 166.655 11.4221C166.519 11.4221 166.383 11.4221 166.292 11.4221C164.434 11.4221 162.53 12.2833 161.306 13.6884V5.8017H155.188V8.56656H157.182C157.454 8.56656 157.68 8.70254 157.68 8.92917C157.68 8.92917 157.68 8.92917 157.68 9.06514V23.3428C157.68 23.6147 157.544 23.8414 157.318 23.8414C157.318 23.8414 157.318 23.8414 157.182 23.8414H155.414V26.6062H163.437V23.8414H161.669C161.397 23.8414 161.171 23.7054 161.171 23.4788C161.171 23.4788 161.171 23.4787 161.171 23.3428V17.0425C162.168 15.5467 163.663 14.6855 165.431 14.4136C167.063 14.4136 167.788 15.7734 167.788 17.5411V23.1615C167.788 23.4334 167.652 23.66 167.425 23.66C167.425 23.66 167.425 23.66 167.289 23.66H165.522V26.4249H173.273V23.66L171.913 23.796Z" fill="#002A44"/>
<path d="M195.981 23.2974V18.3116C196.842 16.5439 198.247 14.6855 200.377 14.6855C200.649 14.6855 201.012 14.6855 201.238 14.8215V11.5581C198.882 11.1954 196.479 12.4192 195.482 14.6855L194.847 11.694H190.179V14.4589H191.539C191.811 14.4589 192.037 14.5949 192.037 14.8215C192.037 14.8215 192.037 14.8215 192.037 14.9575V23.3428C192.037 23.6147 191.765 23.8413 191.539 23.8413H190.043V26.6062H197.794V23.8413H196.298C196.207 23.796 195.981 23.5694 195.981 23.2974Z" fill="#002A44"/>
<path d="M97.1693 21.8017C96.6708 23.5694 94.8124 24.068 93.4073 24.068C91.7756 24.068 90.7784 23.4334 90.7784 22.0737C90.7784 20.2153 92.9087 19.5808 95.175 19.5808C95.9455 19.5808 96.6708 19.5808 97.4413 19.7167C97.3053 20.4419 97.3053 21.0312 97.1693 21.8017ZM101.43 23.7961C101.158 23.7961 100.931 23.6601 100.931 23.4334C100.931 23.4334 100.931 23.4334 100.931 23.2975V17.0425C100.931 14.4136 99.4356 11.4221 94.4045 11.4221C90.6424 11.4221 88.1495 13.2805 87.7869 16.3173H91.277C91.6396 14.9575 92.7727 14.323 94.5404 14.323C96.0362 14.187 97.4413 15.3201 97.532 16.9519C97.532 17.0878 97.532 17.2238 97.532 17.2238C96.8974 17.2238 96.1722 17.2238 95.4016 17.2238C92.6368 17.2238 87.1523 17.9944 87.1523 22.3456C87.1523 25.7451 90.0532 27.1048 92.7727 27.1048C94.6311 27.1048 96.8974 26.4703 97.7586 25.1105L98.0305 26.7422H102.926V23.9774L101.43 23.7961Z" fill="#002A44"/>
<path d="M132.117 21.8017C131.618 23.5694 129.76 24.068 128.355 24.068C126.723 24.068 125.726 23.4334 125.726 22.0737C125.726 20.2153 127.856 19.5808 130.123 19.5808C130.893 19.5808 131.618 19.5808 132.389 19.7167C132.208 20.4419 132.117 21.0312 132.117 21.8017ZM136.242 23.7961C135.97 23.7961 135.743 23.6601 135.743 23.4334C135.743 23.4334 135.743 23.4334 135.743 23.2975V17.0425C135.743 14.4136 134.247 11.4221 129.216 11.4221C125.454 11.4221 122.961 13.2805 122.599 16.3173H126.089C126.451 14.9575 127.585 14.323 129.216 14.323C130.712 14.187 132.117 15.3201 132.208 16.9519C132.208 17.0878 132.208 17.2238 132.208 17.2238C131.573 17.2238 130.848 17.2238 130.077 17.2238C127.313 17.2238 121.828 17.9944 121.828 22.3456C121.828 25.7451 124.729 27.1048 127.449 27.1048C129.307 27.1048 131.573 26.4703 132.434 25.1105L132.706 26.7422H137.602V23.9774L136.242 23.7961Z" fill="#002A44"/>
<path d="M79.4934 17.813C79.7653 17.813 79.9919 17.949 79.9919 18.1756V18.3116V23.2974C79.6293 23.2974 79.3574 23.2974 79.1307 23.2974C73.0118 23.2974 69.1138 19.8074 69.1138 16.0453C69.1138 11.4221 73.737 8.79319 78.9948 8.79319C80.7625 8.79319 82.3942 9.06516 84.1166 9.42776V5.93767C82.4849 5.57507 80.7172 5.43909 79.1307 5.43909C70.7455 5.43909 65.1251 10.3343 65.1251 16.2266C64.9891 23.2521 71.652 27.0142 79.0401 27.0142C80.6718 27.0142 82.4395 26.8782 84.0259 26.6516V18.4929C84.0259 18.221 84.1619 17.9943 84.3885 17.9943H84.5245H85.8843V15.2295H77.499V18.1303H79.4934V17.813Z" fill="#002A44"/>
<path d="M53.2043 25.2011V24.5665H53.5669C53.8388 24.5665 53.9295 24.5666 53.9295 24.8385C53.9295 25.1105 53.6575 25.1105 53.4309 25.1105L53.2043 25.2011ZM53.2043 25.4277H53.5669L54.0655 26.1983H54.3374L53.8388 25.3371C54.1108 25.3371 54.3374 25.0651 54.3374 24.8385C54.3374 24.4759 54.0654 24.3399 53.7028 24.3399H52.9323V26.1983H53.2043V25.4277ZM53.6122 26.9235C54.4734 26.9235 55.2439 26.153 55.2439 25.2918C55.2439 24.4306 54.4734 23.66 53.6122 23.66C52.751 23.66 51.9805 24.4306 51.9805 25.2918C51.9805 26.1983 52.7057 26.8328 53.6122 26.9235ZM52.3431 25.2918C52.3431 24.5212 52.9776 24.0226 53.7028 24.1586C54.4734 24.1586 54.972 24.7932 54.836 25.5184C54.836 26.153 54.2014 26.6515 53.5669 26.6515C52.9776 26.5609 52.3431 26.0623 52.3431 25.2918Z" fill="#8FC3EA"/>
</svg>
