<svg width="181" height="59" viewBox="0 0 181 59" fill="none" xmlns="http://www.w3.org/2000/svg">
<g clip-path="url(#clip0_1285_7272)">
<path d="M54.1289 29.2813L54.1172 29.4895C54.1172 29.5479 54.1172 29.6017 54.1172 29.6602L58.4194 29.6882C58.4194 29.6228 58.4194 29.5573 58.4311 29.4895V29.2977C58.4081 28.7643 58.1874 28.2585 57.8119 27.8786C57.4364 27.4986 56.9329 27.2718 56.3994 27.2421H56.2823C55.7328 27.2419 55.2041 27.4523 54.8052 27.83C54.4063 28.2076 54.1676 28.7237 54.1383 29.272" fill="white"/>
<path d="M27.536 10.5052C27.5227 10.7466 27.5572 10.9883 27.6374 11.2163C27.7176 11.4444 27.842 11.6545 28.0035 11.8345C28.165 12.0146 28.3605 12.161 28.5787 12.2656C28.7968 12.3701 29.0335 12.4307 29.2751 12.4439H29.4624H29.6286L29.666 8.76068H29.4624H29.3102C28.8508 8.778 28.4143 8.96591 28.0862 9.28768C27.7581 9.60945 27.5619 10.0419 27.536 10.5006" fill="white"/>
<path d="M29.4593 9.68909V12.4532L29.9602 12.479C34.3935 12.6085 38.6021 14.4579 41.6936 17.6352C44.7851 20.8124 46.5165 25.0677 46.5207 29.4988C46.5201 34.0182 44.7228 38.3522 41.5242 41.5479C38.3256 44.7435 33.9875 46.5391 29.464 46.5397L28.3966 46.4859L27.7951 46.4555C27.5938 46.4415 27.3948 46.3971 27.1982 46.3713L26.0068 46.1889C25.2343 45.9691 24.4362 45.8335 23.6942 45.5178C23.3243 45.3658 22.9288 45.2699 22.573 45.0805C22.2172 44.8911 21.8497 44.7297 21.4869 44.5566C21.1241 44.3836 20.7987 44.1451 20.4499 43.9463L19.935 43.6329L19.4505 43.2728C17.8214 42.0883 16.4108 40.63 15.2817 38.9629C14.1603 37.2915 13.3484 35.4325 12.8848 33.4743C12.7362 32.9079 12.6259 32.3321 12.5548 31.7508C12.4717 31.1712 12.4248 30.587 12.4143 30.0016C12.4143 30.0016 12.4143 29.8332 12.3886 29.4988H8.70898C8.72537 29.9057 8.73707 30.1068 8.73707 30.1068C8.7753 31.5318 8.9628 32.9489 9.2965 34.3349C9.85898 36.7182 10.8452 38.9811 12.2083 41.0161C13.5763 43.0453 15.2899 44.819 17.2713 46.2568C17.4679 46.3994 17.6645 46.5467 17.8611 46.6917L18.4861 47.0752C18.9074 47.3231 19.3124 47.5967 19.7501 47.8166L21.0726 48.4526C21.5169 48.6556 21.9717 48.8352 22.4349 48.9905C23.3431 49.3623 24.3074 49.5494 25.2437 49.8043L26.6903 50.0382C26.9243 50.0709 27.1748 50.1177 27.4182 50.1387L28.1485 50.1785L29.4453 50.2416C32.1722 50.2429 34.8727 49.7072 37.3924 48.6652C39.912 47.6233 42.2014 46.0954 44.1298 44.1691C46.0582 42.2427 47.5877 39.9556 48.6309 37.4384C49.6741 34.9212 50.2106 32.2233 50.2096 29.4988C50.2037 25.479 49.0295 21.5473 46.8298 18.1814C44.63 14.8155 41.4993 12.1602 37.818 10.538C35.3717 9.46276 32.7395 8.8734 30.0679 8.80278L29.4593 8.77472V9.68909Z" fill="white"/>
<path d="M10.4602 27.5742C10.0007 27.596 9.56593 27.7888 9.24148 28.1147C8.91704 28.4406 8.72639 28.8759 8.70703 29.3351C8.70703 29.3913 8.70703 29.4451 8.70703 29.4988C8.70703 29.5526 8.70703 29.6321 8.70703 29.7023L12.396 29.6649V29.5012V29.3118C12.3702 28.8417 12.1652 28.3994 11.8229 28.0757C11.4807 27.7521 11.0274 27.5718 10.5562 27.5719H10.4672" fill="white"/>
<path d="M56.8614 24.6393C56.4226 24.7568 55.9587 24.7417 55.5285 24.5957C55.0984 24.4497 54.7212 24.1796 54.4447 23.8194C54.1683 23.4592 54.005 23.0252 53.9755 22.5723C53.9461 22.1193 54.0517 21.6678 54.2792 21.2749C54.5066 20.882 54.8456 20.5653 55.2533 20.365C55.6609 20.1646 56.1189 20.0895 56.5692 20.1493C57.0196 20.2091 57.4421 20.4009 57.7833 20.7007C58.1244 21.0004 58.3689 21.3945 58.4858 21.8331C58.6417 22.4204 58.5583 23.0455 58.2538 23.5715C57.9494 24.0975 57.4487 24.4814 56.8614 24.6393Z" fill="white"/>
<path d="M77.2032 42.9501H72.901V26.3044H77.2032V42.9501ZM75.045 24.7095C74.5902 24.71 74.1455 24.5756 73.7671 24.3235C73.3888 24.0713 73.0938 23.7127 72.9196 23.293C72.7453 22.8733 72.6996 22.4113 72.7882 21.9656C72.8768 21.52 73.0958 21.1106 73.4174 20.7893C73.739 20.4679 74.1488 20.2492 74.5948 20.1607C75.0409 20.0721 75.5033 20.1178 75.9234 20.2919C76.3435 20.466 76.7025 20.7607 76.9549 21.1387C77.2073 21.5167 77.3417 21.961 77.3413 22.4154C77.3416 22.7168 77.2824 23.0152 77.1671 23.2937C77.0518 23.5722 76.8827 23.8252 76.6694 24.0383C76.4561 24.2514 76.2029 24.4203 75.9241 24.5355C75.6454 24.6507 75.3467 24.7098 75.045 24.7095Z" fill="white"/>
<path d="M90.8599 42.9501V32.8944C90.8599 31.075 90.6657 29.1246 88.4326 29.1246C87.2038 29.1246 85.5863 29.6508 84.4839 30.2799V42.9524H80.1816V26.3067H84.4839V27.9624C85.9749 26.8703 88.3343 25.7782 90.1788 25.7782C93.643 25.7782 95.1622 28.3506 95.1622 31.6362V42.9501H90.8599Z" fill="white"/>
<path d="M135.595 29.3562C134.329 29.4825 132.971 30.1817 131.869 30.8107V42.9501H127.566V26.3067H131.869V28.2898C133.36 27.1977 135.719 26.3067 137.564 26.3067V29.4334C136.912 29.3377 136.252 29.3119 135.595 29.3562Z" fill="white"/>
<path d="M116.994 28.7552C113.855 28.7552 112.821 31.7953 112.821 34.5127C112.821 37.23 113.757 40.5928 116.994 40.5928C120.231 40.5928 121.207 37.2534 121.207 34.5127C121.207 31.7719 120.142 28.7552 116.994 28.7552ZM116.994 43.3804C111.493 43.3804 108.549 39.9708 108.549 34.4472C108.549 28.8557 111.493 25.7782 116.994 25.7782C122.331 25.7782 125.439 29.0218 125.439 34.4472C125.439 40.0035 122.527 43.3804 116.994 43.3804Z" fill="white"/>
<path d="M159.899 42.9501V32.8944C159.899 31.0422 159.51 29.1246 157.31 29.1246C156.18 29.1246 154.918 29.6508 153.947 30.2799C154.039 30.7268 154.082 31.1824 154.075 31.6386V42.9524H149.775V32.8967C149.775 31.0773 149.541 29.127 147.315 29.127C146.213 29.127 144.855 29.6532 143.947 30.2822V42.9547H139.654V26.3067H143.956V27.9624C145.319 26.8703 147.552 25.7782 149.263 25.7782C151.11 25.7782 152.563 26.5382 153.406 28.2617C154.96 27.2 157.355 25.7782 159.23 25.7782C162.724 25.7782 164.211 28.3506 164.211 31.6362V42.9501H159.899Z" fill="white"/>
<path d="M170.504 38.0532C170.504 39.5428 171.44 40.5999 172.898 40.5999C173.803 40.5789 174.666 40.2093 175.305 39.5683C175.944 38.9273 176.31 38.0644 176.327 37.1599V34.7769C174.417 34.8798 170.504 35.572 170.504 38.0509V38.0532ZM176.618 40.4993C175.447 42.1199 173.287 43.378 171.313 43.378C168.626 43.378 166.33 41.5563 166.33 38.6799C166.33 33.2522 172.217 32.6255 176.327 32.4594V31.4655C176.327 29.5807 174.806 28.6219 173.062 28.6219C171.393 28.6111 169.734 28.8677 168.146 29.3819V27.5298C169.873 26.413 171.881 25.8058 173.937 25.7782C177.175 25.7782 180.505 27.1977 180.505 31.0049V42.9478H176.618V40.4993Z" fill="white"/>
<path d="M106.345 22.7685C106.898 22.7724 107.45 22.817 107.996 22.9018V20.9936C106.934 20.4197 105.75 20.1085 104.543 20.0862C100.725 20.0862 99.1408 22.7334 99.1408 26.3067H97.1465V29.2065H99.1314L99.1642 42.9501H103.497V29.2065H107.996V26.3067H103.464C103.464 24.1903 103.951 22.7685 106.345 22.7685Z" fill="white"/>
<path d="M28.8599 0.594529C27.6896 0.664685 26.5192 0.66001 25.384 0.882171C21.086 1.47587 16.9786 3.03508 13.3704 5.44262C9.76225 7.85017 6.74717 11.0434 4.55176 14.7824L4.05319 15.6079C3.89168 15.8862 3.76528 16.1832 3.6225 16.4709L2.78453 18.2131C2.56216 18.8164 2.33745 19.4221 2.11743 20.0254L1.78739 20.9328C1.71014 21.2461 1.62588 21.5572 1.55332 21.8682C1.39649 22.4926 1.22562 23.1123 1.08518 23.739C0.989207 24.3728 0.890897 25.0112 0.792588 25.6473C0.745774 25.9653 0.689597 26.281 0.654486 26.6014C0.619376 26.9218 0.619376 27.2445 0.602991 27.5649L0.5 29.4988C0.502482 37.1702 3.55383 44.5266 8.98331 49.9511C14.4128 55.3755 21.776 58.424 29.4545 58.4265C35.1024 58.4165 40.6247 56.7605 45.3445 53.6613C50.0643 50.5621 53.7765 46.1545 56.0261 40.9787C57.5161 37.5379 58.3169 33.8389 58.3832 30.0905C58.3832 30.0905 58.3832 29.8917 58.4113 29.4918H54.1161L54.088 30.004C54.0339 33.1934 53.354 36.3413 52.0867 39.2692C50.1735 43.6775 47.0135 47.4317 42.9947 50.0709C38.9759 52.7101 34.2731 54.1195 29.4639 54.126C22.9252 54.126 16.6542 51.5317 12.0296 46.9135C7.40496 42.2954 4.80531 36.0314 4.80221 29.4988C4.8303 28.9493 4.86073 28.4044 4.88882 27.8619C4.88882 27.5906 4.91456 27.3146 4.92861 27.041C4.94265 26.7674 5.01053 26.4985 5.05032 26.2296L5.29844 24.5879C5.43108 24.0578 5.56606 23.5278 5.70338 22.9977L5.90702 22.2003C6.00065 21.943 6.09194 21.6858 6.18791 21.4285C6.37516 20.9141 6.5632 20.4004 6.75202 19.8874L7.46827 18.4072C7.58999 18.1733 7.70234 17.9091 7.83108 17.6705C7.95982 17.432 8.11664 17.2028 8.25709 16.969C10.1236 13.7844 12.6891 11.0647 15.7604 9.01454C18.8318 6.96443 22.3287 5.63747 25.9879 5.13363C26.964 4.93485 27.9611 4.95356 28.9489 4.88574L29.4615 4.86002V0.566467L28.8623 0.594529" fill="white"/>
<path d="M30.0158 4.79222C29.6049 4.90209 29.1706 4.88777 28.7678 4.75107C28.365 4.61438 28.0119 4.36145 27.753 4.02425C27.494 3.68705 27.341 3.28074 27.3132 2.85666C27.2854 2.43258 27.3841 2.00979 27.5967 1.64172C27.8094 1.27366 28.1265 0.976857 28.508 0.78883C28.8895 0.600804 29.3182 0.529998 29.7399 0.585365C30.1617 0.640731 30.5575 0.819784 30.8775 1.09989C31.1974 1.37999 31.427 1.74857 31.5373 2.15902C31.6105 2.43173 31.6293 2.71619 31.5925 2.99614C31.5556 3.2761 31.464 3.54606 31.3227 3.7906C31.1814 4.03514 30.9932 4.24946 30.769 4.42133C30.5448 4.59319 30.2888 4.71922 30.0158 4.79222Z" fill="white"/>
<path d="M49.236 12.4813C48.808 12.5963 48.3555 12.5819 47.9357 12.4399C47.5159 12.2979 47.1477 12.0347 46.8777 11.6835C46.6077 11.3323 46.448 10.909 46.4189 10.4672C46.3898 10.0253 46.4925 9.58477 46.7141 9.20127C46.9357 8.81777 47.2662 8.50857 47.6637 8.31279C48.0613 8.11702 48.508 8.04347 48.9474 8.10146C49.3868 8.15944 49.7992 8.34635 50.1322 8.63854C50.4652 8.93073 50.704 9.31505 50.8184 9.74288C50.8945 10.0265 50.9139 10.3223 50.8756 10.6134C50.8372 10.9045 50.7419 11.1853 50.5949 11.4395C50.448 11.6938 50.2524 11.9167 50.0192 12.0955C49.7861 12.2742 49.5199 12.4053 49.236 12.4813Z" fill="white"/>
<path d="M53.8228 17.9722C53.3895 18.0884 52.9313 18.0735 52.5064 17.9296C52.0815 17.7856 51.7089 17.5189 51.4357 17.1633C51.1625 16.8077 51.001 16.3791 50.9717 15.9317C50.9423 15.4844 51.0464 15.0384 51.2709 14.6502C51.4953 14.262 51.8299 13.9491 52.2324 13.7509C52.6349 13.5528 53.0872 13.4784 53.532 13.5371C53.9768 13.5958 54.3942 13.785 54.7314 14.0808C55.0686 14.3765 55.3104 14.7656 55.4262 15.1987C55.5034 15.486 55.5231 15.7856 55.4842 16.0806C55.4454 16.3755 55.3488 16.6598 55.1999 16.9174C55.051 17.175 54.8527 17.4007 54.6164 17.5817C54.3801 17.7627 54.1105 17.8954 53.8228 17.9722Z" fill="white"/>
<path d="M43.4973 8.32339C43.0752 8.43619 42.629 8.4214 42.2152 8.28087C41.8015 8.14035 41.4387 7.88041 41.1728 7.53392C40.907 7.18742 40.7499 6.76995 40.7215 6.33427C40.6931 5.89859 40.7946 5.46428 41.0132 5.08625C41.2319 4.70823 41.5578 4.40347 41.9498 4.2105C42.3419 4.01754 42.7823 3.94504 43.2156 4.00217C43.6488 4.0593 44.0554 4.2435 44.3839 4.53148C44.7123 4.81946 44.9479 5.19828 45.0609 5.62004C45.136 5.90012 45.155 6.19221 45.117 6.47965C45.0791 6.76709 44.9848 7.04424 44.8396 7.29527C44.6944 7.54631 44.5011 7.76631 44.2708 7.94272C44.0405 8.11912 43.7777 8.24847 43.4973 8.32339Z" fill="white"/>
<path d="M36.9674 5.7089C36.5507 5.82099 36.11 5.80707 35.7012 5.66888C35.2923 5.53069 34.9337 5.27446 34.6707 4.93259C34.4077 4.59072 34.252 4.17858 34.2235 3.74832C34.195 3.31807 34.2949 2.88904 34.5105 2.5155C34.7261 2.14197 35.0478 1.84073 35.4348 1.64989C35.8218 1.45905 36.2568 1.38719 36.6847 1.44341C37.1126 1.49963 37.5142 1.68139 37.8387 1.9657C38.1632 2.25002 38.396 2.6241 38.5076 3.04063C38.6565 3.59847 38.5779 4.19253 38.2893 4.69266C38.0006 5.19279 37.5253 5.55821 36.9674 5.7089Z" fill="white"/>
<path d="M37.8335 37.3704C37.6016 37.202 37.4249 36.9687 37.3257 36.6999C37.2266 36.4312 37.2095 36.1391 37.2765 35.8607C37.3436 35.5822 37.4918 35.3299 37.7025 35.1356C37.9131 34.9414 38.1767 34.8139 38.4599 34.7694C38.7431 34.7248 39.0332 34.7652 39.2934 34.8854C39.5536 35.0057 39.7722 35.2003 39.9217 35.4447C40.0711 35.6891 40.1446 35.9723 40.1329 36.2585C40.1212 36.5446 40.0248 36.8209 39.8559 37.0523C39.7443 37.2062 39.6033 37.3366 39.4411 37.436C39.279 37.5353 39.0987 37.6017 38.9108 37.6312C38.7229 37.6608 38.531 37.6529 38.3461 37.6082C38.1612 37.5634 37.987 37.4826 37.8335 37.3704Z" fill="white"/>
<path d="M31.6135 40.7893C31.5265 40.5172 31.5222 40.2255 31.6011 39.951C31.6799 39.6765 31.8384 39.4314 32.0565 39.2469C32.2747 39.0623 32.5427 38.9464 32.8267 38.9139C33.1107 38.8813 33.3979 38.9336 33.6522 39.064C33.9065 39.1945 34.1164 39.3973 34.2555 39.6468C34.3945 39.8964 34.4564 40.1815 34.4333 40.4662C34.4103 40.7508 34.3033 41.0223 34.126 41.2463C33.9486 41.4703 33.7088 41.6367 33.4369 41.7247C33.2557 41.7833 33.0647 41.8055 32.8749 41.7902C32.6851 41.7748 32.5001 41.7222 32.3307 41.6353C32.1613 41.5484 32.0107 41.4289 31.8877 41.2837C31.7646 41.1385 31.6714 40.9705 31.6135 40.7893Z" fill="white"/>
<path d="M24.5574 39.896C24.6456 39.6238 24.8125 39.3838 25.0372 39.2063C25.2618 39.0288 25.534 38.9218 25.8195 38.8988C26.105 38.8758 26.3909 38.9378 26.6411 39.077C26.8913 39.2163 27.0945 39.4265 27.2252 39.6811C27.3559 39.9357 27.4082 40.2233 27.3753 40.5075C27.3425 40.7918 27.2261 41.0599 27.0408 41.2781C26.8555 41.4963 26.6097 41.6547 26.3343 41.7334C26.059 41.8121 25.7664 41.8074 25.4937 41.7201C25.1279 41.6016 24.8239 41.3432 24.6484 41.0013C24.473 40.6594 24.4402 40.262 24.5574 39.896Z" fill="white"/>
<path d="M18.8602 35.774C18.9483 35.5018 19.1153 35.2617 19.3399 35.0842C19.5645 34.9067 19.8368 34.7997 20.1222 34.7767C20.4077 34.7537 20.6936 34.8158 20.9438 34.955C21.194 35.0942 21.3973 35.3044 21.528 35.559C21.6586 35.8137 21.7109 36.1012 21.6781 36.3855C21.6452 36.6697 21.5288 36.9379 21.3435 37.1561C21.1583 37.3743 20.9124 37.5327 20.6371 37.6114C20.3617 37.69 20.0692 37.6854 19.7964 37.5981C19.4306 37.4796 19.1267 37.2211 18.9512 36.8793C18.7757 36.5374 18.743 36.1399 18.8602 35.774Z" fill="white"/>
<path d="M12.6992 20.568C13.0361 20.7075 13.324 20.9437 13.5266 21.2467C13.7292 21.5497 13.8374 21.9059 13.8374 22.2703C13.8374 22.6346 13.7293 22.9908 13.5267 23.2938C13.3241 23.5968 13.0362 23.833 12.6993 23.9726C12.3624 24.1121 11.9916 24.1487 11.6339 24.0778C11.2761 24.0069 10.9475 23.8316 10.6894 23.5741C10.4314 23.3166 10.2555 22.9884 10.1841 22.6311C10.1127 22.2738 10.149 21.9033 10.2882 21.5665C10.4757 21.1149 10.8349 20.7561 11.2869 20.5689C11.739 20.3817 12.2469 20.3814 12.6992 20.568Z" fill="white"/>
<path d="M17.3955 14.8386C17.6533 15.0963 17.8287 15.4247 17.8997 15.7821C17.9708 16.1395 17.9341 16.5099 17.7944 16.8465C17.6548 17.1831 17.4184 17.4708 17.1151 17.6732C16.8118 17.8756 16.4553 17.9837 16.0906 17.9837C15.7258 17.9837 15.3693 17.8756 15.066 17.6732C14.7628 17.4708 14.5263 17.1831 14.3867 16.8465C14.247 16.5099 14.2104 16.1395 14.2814 15.7821C14.3524 15.4247 14.5279 15.0963 14.7856 14.8386C15.1322 14.4937 15.6014 14.3 16.0906 14.3C16.5797 14.3 17.0489 14.4937 17.3955 14.8386Z" fill="white"/>
<path d="M23.928 11.3424C24.0673 11.6792 24.1036 12.0497 24.0322 12.407C23.9607 12.7643 23.7849 13.0925 23.5269 13.35C23.2688 13.6075 22.9402 13.7828 22.5824 13.8537C22.2247 13.9247 21.8539 13.888 21.517 13.7485C21.1801 13.609 20.8922 13.3728 20.6896 13.0698C20.487 12.7667 20.3789 12.4105 20.3789 12.0462C20.3789 11.6818 20.4871 11.3256 20.6896 11.0226C20.8922 10.7196 21.1802 10.4834 21.5171 10.3439C21.9694 10.1573 22.4773 10.1576 22.9294 10.3448C23.3814 10.532 23.7406 10.8908 23.928 11.3424Z" fill="white"/>
</g>
<defs>
<clipPath id="clip0_1285_7272">
<rect width="180" height="57.8671" fill="white" transform="translate(0.5 0.566467)"/>
</clipPath>
</defs>
</svg>
