<svg width="118" height="30" viewBox="0 0 118 30" fill="none" xmlns="http://www.w3.org/2000/svg">
<g clip-path="url(#clip0_1285_7255)">
<path d="M117.442 0.0194702V4.85064H102.188V12.6818H115.24V17.3571H102.188V25.1883H117.442V29.9415H97.6105V0.0194702H117.442ZM78.0326 0.0194702C86.2144 0.0194702 92.6625 6.75973 92.6625 14.9805C92.6625 23.2987 86.2144 29.9415 78.0326 29.9415H68.117V0.0194702H78.0326ZM50.8183 0.0194702L63.169 29.961H58.2209L56.1755 24.8182H42.4807L40.4352 29.961H35.4092L47.8378 0.0194702H50.8183ZM4.25989 0.0194702L15.5002 12.9351L26.8183 0.0194702H30.4417V29.961H25.8833V8.41558L15.5002 20.1428L5.19496 8.41558V29.961H0.558594V0.0194702H4.25989ZM78.1885 4.85064H72.6755V25.1299H78.1885C83.6235 25.1299 88.0261 20.6104 88.0261 15C88.0261 9.44804 83.6235 4.85064 78.1885 4.85064ZM49.3183 8.4935L44.604 20.0649H53.9547L49.3183 8.4935Z" fill="#131413"/>
</g>
<defs>
<clipPath id="clip0_1285_7255">
<rect width="116.883" height="30" fill="white" transform="translate(0.558594)"/>
</clipPath>
</defs>
</svg>
