<svg width="163" height="48" viewBox="0 0 163 48" fill="none" xmlns="http://www.w3.org/2000/svg">
<g clip-path="url(#clip0_1285_7371)">
<path d="M56.4492 32.6074V12.6403H63.827C65.2031 12.6403 66.4136 12.8824 67.433 13.3666C68.4524 13.8508 69.2551 14.5644 69.8158 15.4818C70.3765 16.3993 70.6695 17.5206 70.6695 18.8203C70.6695 19.8015 70.5039 20.6807 70.1853 21.4834C69.854 22.2735 69.3826 22.9615 68.7709 23.5349C68.1593 24.1083 67.4075 24.5416 66.5283 24.8474L73.0141 32.6201H67.089L61.5461 25.4208H61.1001V32.6201H56.4492V32.6074ZM61.1129 21.5344H62.3361C63.0752 21.5344 63.6995 21.4325 64.2092 21.2413C64.7189 21.0375 65.1012 20.7571 65.3688 20.3621C65.6364 19.9798 65.7638 19.5084 65.7638 18.9605C65.7638 18.1195 65.4707 17.4696 64.8846 17.0236C64.2984 16.5777 63.4447 16.3611 62.3489 16.3611H61.1256V21.5344H61.1129Z" fill="#34578E"/>
<path d="M79.1553 32.9897C77.8046 32.9897 76.5813 32.6966 75.4983 32.1232C74.4152 31.5371 73.5614 30.7598 72.9371 29.7659C72.3127 28.772 71.9941 27.6507 71.9941 26.402C71.9941 25.4718 72.1725 24.618 72.5293 23.8153C72.8861 23.0253 73.383 22.3244 74.0202 21.7256C74.6573 21.1267 75.3963 20.6552 76.2501 20.3239C77.1038 19.9926 78.0212 19.827 79.0151 19.827C80.3021 19.827 81.4361 20.0946 82.4045 20.6297C83.373 21.1649 84.1375 21.9167 84.6854 22.8724C85.2333 23.828 85.5136 24.9366 85.5136 26.1981C85.5136 26.3 85.5136 26.402 85.5136 26.4912C85.5136 26.5803 85.5009 26.7587 85.4754 27.0263H76.5559C76.5559 27.5233 76.6705 27.9565 76.9126 28.3388C77.142 28.7083 77.4733 29.0014 77.9065 29.2052C78.3398 29.4091 78.8367 29.5111 79.4229 29.5111C79.958 29.5111 80.4295 29.4091 80.8373 29.2052C81.245 29.0014 81.6655 28.6573 82.1242 28.1859L85.297 29.7659C84.7109 30.7853 83.8826 31.5753 82.7996 32.1487C81.691 32.7094 80.4932 32.9897 79.1553 32.9897ZM76.6833 24.7837H81.1813C81.1303 24.3759 80.9902 24.0446 80.799 23.7643C80.5951 23.484 80.3403 23.2801 80.0217 23.1399C79.7032 22.9998 79.3337 22.9233 78.9259 22.9233C78.4927 22.9233 78.1104 22.9998 77.7791 23.1399C77.4478 23.2801 77.193 23.4967 77.0146 23.7643C76.8235 24.0574 76.7215 24.3887 76.6833 24.7837Z" fill="#34578E"/>
<path d="M93.7968 39.2716C92.0894 39.2716 90.6495 38.9658 89.49 38.3542C88.3304 37.7425 87.5022 36.8506 86.9925 35.6655L90.573 33.9071C90.8916 34.3786 91.3376 34.7481 91.9237 35.0284C92.5099 35.3088 93.1215 35.4489 93.7714 35.4489C94.383 35.4489 94.9182 35.3215 95.3769 35.0794C95.8356 34.8246 96.1796 34.4933 96.4345 34.06C96.6893 33.6268 96.804 33.1426 96.804 32.6074V31.3204C96.2433 31.8556 95.619 32.2634 94.9182 32.5564C94.2173 32.8495 93.491 32.9897 92.7265 32.9897C91.6179 32.9897 90.5985 32.7094 89.6811 32.1487C88.7636 31.588 88.0246 30.8235 87.4767 29.8296C86.9288 28.8357 86.6484 27.6889 86.6484 26.4019C86.6484 25.1532 86.916 24.0319 87.4512 23.038C87.9864 22.0441 88.7254 21.2668 89.6556 20.6807C90.5858 20.1073 91.6561 19.8142 92.8412 19.8142C93.6184 19.8142 94.3575 19.9416 95.0456 20.2092C95.7337 20.4768 96.3198 20.8463 96.804 21.3305V20.1965H101.226V32.926C101.226 34.0855 100.971 35.1431 100.448 36.0988C99.9258 37.0545 99.1231 37.819 98.0273 38.3924C96.9187 38.9785 95.517 39.2716 93.7968 39.2716ZM94.0772 29.2562C94.6251 29.2562 95.1093 29.1288 95.5298 28.8867C95.9503 28.6446 96.2816 28.3005 96.5237 27.88C96.7658 27.4468 96.8932 26.9753 96.8932 26.4402C96.8932 25.8795 96.7658 25.3953 96.5237 24.9621C96.2816 24.5288 95.9503 24.1975 95.5298 23.9427C95.1093 23.6878 94.6378 23.5732 94.1026 23.5732C93.5675 23.5732 93.0833 23.7006 92.6628 23.9427C92.2423 24.1975 91.911 24.5288 91.6689 24.9621C91.4268 25.3953 91.2994 25.8923 91.2994 26.4402C91.2994 26.9753 91.414 27.4468 91.6561 27.88C91.8982 28.3005 92.2168 28.6446 92.6373 28.8867C93.0578 29.1288 93.542 29.2562 94.0772 29.2562Z" fill="#34578E"/>
<path d="M110.488 39.2716C108.781 39.2716 107.341 38.9658 106.181 38.3542C105.022 37.7425 104.194 36.8506 103.684 35.6655L107.264 33.9071C107.583 34.3786 108.029 34.7481 108.615 35.0284C109.201 35.3088 109.813 35.4489 110.463 35.4489C111.074 35.4489 111.61 35.3215 112.068 35.0794C112.527 34.8246 112.871 34.4933 113.126 34.06C113.381 33.6268 113.495 33.1426 113.495 32.6074V31.3204C112.935 31.8556 112.31 32.2634 111.61 32.5564C110.909 32.8495 110.182 32.9897 109.418 32.9897C108.309 32.9897 107.29 32.7094 106.372 32.1487C105.455 31.588 104.716 30.8235 104.168 29.8296C103.62 28.8357 103.34 27.6889 103.34 26.4019C103.34 25.1532 103.607 24.0319 104.143 23.038C104.678 22.0441 105.417 21.2668 106.347 20.6807C107.277 20.1073 108.348 19.8142 109.533 19.8142C110.31 19.8142 111.049 19.9416 111.737 20.2092C112.425 20.4768 113.011 20.8463 113.495 21.3305V20.1965H117.917V32.926C117.917 34.0855 117.662 35.1431 117.14 36.0988C116.617 37.0545 115.814 37.819 114.719 38.3924C113.61 38.9785 112.208 39.2716 110.488 39.2716ZM110.769 29.2562C111.316 29.2562 111.801 29.1288 112.221 28.8867C112.642 28.6446 112.973 28.3005 113.215 27.88C113.457 27.4468 113.585 26.9753 113.585 26.4402C113.585 25.8795 113.457 25.3953 113.215 24.9621C112.973 24.5288 112.642 24.1975 112.221 23.9427C111.801 23.6878 111.329 23.5732 110.794 23.5732C110.259 23.5732 109.775 23.7006 109.354 23.9427C108.934 24.1975 108.602 24.5288 108.36 24.9621C108.118 25.3953 107.991 25.8923 107.991 26.4402C107.991 26.9753 108.105 27.4468 108.348 27.88C108.59 28.3005 108.908 28.6446 109.329 28.8867C109.749 29.1288 110.233 29.2562 110.769 29.2562Z" fill="#34578E"/>
<path d="M127.182 32.9896C125.78 32.9896 124.531 32.7093 123.41 32.1487C122.289 31.588 121.397 30.8107 120.747 29.8296C120.097 28.8357 119.766 27.7016 119.766 26.4147C119.766 25.1277 120.097 23.9809 120.747 22.9997C121.397 22.0058 122.289 21.2413 123.41 20.6806C124.531 20.12 125.793 19.8397 127.182 19.8397C128.583 19.8397 129.832 20.12 130.953 20.6806C132.075 21.2413 132.967 22.0186 133.616 22.9997C134.266 23.9936 134.598 25.1277 134.598 26.4147C134.598 27.7016 134.266 28.8484 133.616 29.8296C132.967 30.8235 132.075 31.588 130.953 32.1487C129.832 32.7093 128.571 32.9896 127.182 32.9896ZM127.182 29.2434C127.704 29.2434 128.163 29.1288 128.596 28.8866C129.016 28.6445 129.361 28.3132 129.603 27.8928C129.857 27.4723 129.972 26.9753 129.972 26.4274C129.972 25.8667 129.845 25.3825 129.603 24.9493C129.348 24.5161 129.016 24.1848 128.596 23.9554C128.175 23.7133 127.704 23.5986 127.182 23.5986C126.659 23.5986 126.2 23.7133 125.767 23.9554C125.347 24.1975 125.003 24.5288 124.761 24.9493C124.506 25.3825 124.391 25.8667 124.391 26.4274C124.391 26.9881 124.518 27.4723 124.761 27.8928C125.015 28.3132 125.347 28.6445 125.767 28.8866C126.188 29.116 126.659 29.2434 127.182 29.2434Z" fill="#34578E"/>
<path d="M136.508 32.6074V20.2092H140.929V21.9677C141.426 21.2923 142.012 20.7571 142.688 20.3876C143.363 20.0181 144.077 19.827 144.828 19.827C145.287 19.827 145.771 19.9034 146.268 20.0436C146.765 20.1837 147.186 20.3749 147.517 20.617L145.682 24.3377C145.389 24.1338 145.058 23.9682 144.663 23.8535C144.281 23.7261 143.911 23.6624 143.58 23.6624C143.134 23.6624 142.701 23.7771 142.293 24.0192C141.885 24.2485 141.554 24.5543 141.312 24.9366C141.057 25.3061 140.942 25.7139 140.942 26.1471V32.6202H136.508V32.6074Z" fill="#34578E"/>
<path d="M153.124 32.9897C151.99 32.9897 150.958 32.7094 150.028 32.136C149.098 31.5626 148.359 30.7853 147.811 29.7914C147.263 28.7975 146.982 27.6634 146.982 26.3892C146.982 25.1532 147.25 24.0446 147.772 23.0507C148.295 22.0569 149.021 21.2796 149.939 20.6934C150.856 20.1073 151.914 19.827 153.124 19.827C153.901 19.827 154.653 19.9544 155.354 20.222C156.055 20.4896 156.654 20.8591 157.151 21.3433V20.2092H161.572V32.6074H157.151V31.3205C156.565 31.8684 155.94 32.2889 155.265 32.5692C154.59 32.8495 153.876 32.9897 153.124 32.9897ZM154.449 29.2562C154.997 29.2562 155.481 29.1288 155.902 28.8867C156.322 28.6446 156.654 28.3006 156.883 27.8801C157.112 27.4468 157.24 26.9626 157.24 26.4147C157.24 25.8668 157.125 25.3826 156.883 24.9493C156.641 24.5161 156.322 24.1848 155.902 23.9427C155.481 23.7006 154.997 23.5732 154.462 23.5732C153.927 23.5732 153.455 23.7006 153.022 23.9427C152.602 24.1848 152.258 24.5289 152.016 24.9493C151.774 25.3826 151.646 25.8668 151.646 26.4147C151.646 26.9499 151.774 27.4468 152.003 27.8673C152.245 28.3006 152.576 28.6318 152.997 28.8867C153.43 29.1288 153.914 29.2562 154.449 29.2562Z" fill="#34578E"/>
<path d="M24.5293 47.3757H24.0324L23.5354 47.3629L23.0258 47.3374L22.5288 47.2992L22.0446 47.2482L21.5477 47.1973L21.0507 47.1336L20.5665 47.0571L20.0568 46.9679L19.5854 46.8787L19.0884 46.764L18.6042 46.6494L18.1455 46.5219L17.6485 46.3818L17.1898 46.2416L16.7183 46.0887L16.2341 45.923L15.8009 45.7447L15.3422 45.5535L14.8835 45.3624L14.412 45.1458L13.9788 44.9292L13.5328 44.6998L13.0868 44.4577L12.6663 44.2156L12.2331 43.9607L11.8253 43.7059L11.3921 43.4256L10.9971 43.158L10.1816 42.5718L9.79931 42.2788L9.41704 41.9602L9.02203 41.6289L8.28298 40.9663L7.9262 40.6223L7.23812 39.9087L6.91956 39.5519L6.58827 39.1697L6.28245 38.8001L5.65808 38.0101L5.36501 37.6024L5.08468 37.2074L4.80435 36.7996L4.53676 36.3791L4.26918 35.9459L4.02708 35.5254L3.77223 35.0794L3.54287 34.6334L3.32625 34.2002L3.10963 33.7415L2.90576 33.2955L2.70188 32.824L2.52349 32.378L2.3451 31.9193L2.17945 31.4351L2.02654 30.9764L1.88638 30.5049L1.74621 30.0335L1.61879 29.5365L1.40217 28.5681L1.31298 28.0967L1.22378 27.5997L1.14733 27.1282L1.08362 26.6186L1.01991 26.1089L0.98168 25.5992L0.956195 25.115L0.930711 24.618L0.917969 24.1083V23.6114L0.930711 23.1272L0.956195 22.6302L0.98168 22.1205L1.01991 21.6363L1.07088 21.1266L1.13459 20.6424L1.21104 20.1328L1.28749 19.6613L1.38943 19.1516L1.60605 18.1832L1.73347 17.7117L1.87364 17.2403L2.0138 16.7688L2.16671 16.2846L2.33236 15.8259L2.51075 15.3672L2.70188 14.883L2.89302 14.437L3.09689 13.9655L3.30077 13.5323L3.53013 13.0736L3.75949 12.6276L4.00159 12.2071L4.25644 11.7611L4.51128 11.3534L4.77887 10.9329L5.0592 10.5251L5.35227 10.1046L5.64534 9.69686L6.25697 8.93233L6.58827 8.53732L6.90682 8.16779L7.25086 7.78552L7.93894 7.07196L8.29573 6.72792L9.03478 6.06532L9.4043 5.75951L9.78657 5.44095L10.1943 5.1224L10.9843 4.54899L11.4048 4.25592L11.8126 4.00108L12.2458 3.73349L12.6663 3.49139L13.1123 3.23654L13.5328 3.00718L13.9788 2.77782L14.4375 2.54846L14.8707 2.34459L15.3294 2.15345L15.7882 1.96232L16.2724 1.78393L16.7311 1.61828L17.2026 1.46537L17.6868 1.31247L18.1582 1.18504L18.6424 1.05762L19.1266 0.94294L19.5981 0.841003L20.095 0.739065L20.5665 0.662611L21.0762 0.586158L21.5477 0.522447L22.0446 0.471478L22.5543 0.420509L23.0512 0.382282L23.5354 0.356797L24.0324 0.344055H24.5421L25.5487 0.36954L26.0329 0.395024L26.5426 0.433251L27.0268 0.48422L27.5365 0.547931L28.0207 0.624384L28.5049 0.700838L29.0146 0.790034L29.4988 0.891972L30.4545 1.12133L30.9387 1.24875L31.3974 1.38892L31.8816 1.54183L32.3403 1.69473L32.8118 1.87312L33.2578 2.05152L33.7292 2.25539L34.6212 2.66314L35.0672 2.87976L35.5132 3.10912L36.3796 3.59333L37.2206 4.11576L37.6284 4.38335L38.0361 4.66367L38.4439 4.95675L38.8389 5.26256L39.6034 5.88693L40.3425 6.54953L40.6992 6.89357L41.0433 7.23761L41.4001 7.60713L41.7314 7.96391L42.0754 8.34618L42.394 8.71571L42.7125 9.11072L43.0056 9.49298L43.2987 9.88799L43.6045 10.3085L43.8848 10.7162L44.1524 11.124L44.42 11.5445L44.6748 11.965L44.9297 12.411L45.1718 12.8569L45.3884 13.2902L45.605 13.7362L45.8216 14.1949L46.0128 14.6409L46.2039 15.1123L46.3823 15.5583L46.5607 16.0425L46.8665 16.9854L47.0067 17.4696L47.1341 17.9411L47.2488 18.4253L47.3634 18.9222L47.4526 19.3937L47.5418 19.8779L47.631 20.3876L47.6947 20.8845L47.7457 21.3688L47.7967 21.8657L47.8349 22.3754L47.8604 22.8596L47.8731 23.3693V23.8662V24.3632L47.8604 24.8474L47.8349 25.3571L47.7967 25.8413L47.7457 26.3382L47.6947 26.8479L47.631 27.3449L47.5546 27.8291L47.4654 28.3133L47.3634 28.8102L47.2615 29.2817L47.1468 29.7659L47.0194 30.2628L46.8792 30.7216L46.7263 31.2058L46.5734 31.6645L46.4078 32.1359L46.2294 32.6202L46.0382 33.0661L45.8344 33.5376L45.6305 33.9708L45.4139 34.4168L45.1845 34.8755L44.9424 35.3088L44.7003 35.7293L44.4455 36.1497L44.1779 36.5702L43.8975 37.0035L43.6172 37.4112L43.3369 37.8062L43.0438 38.2012L42.7253 38.609L42.4194 38.9785L42.0881 39.3735L41.7696 39.7303L41.4256 40.0998L41.0815 40.4439L40.7247 40.8007L40.3552 41.1447L39.6034 41.8073L38.8389 42.4317L38.4439 42.7375L38.0489 43.0178L37.6411 43.2981L37.2079 43.5912L36.3669 44.1137L35.5004 44.5979L35.0544 44.8272L34.6085 45.0438L33.7038 45.4516L33.2578 45.6427L32.7863 45.8339L32.3403 45.9995L31.8561 46.1651L31.3974 46.3181L30.9132 46.471L30.429 46.5984L29.4606 46.8277L28.9764 46.9297L28.5049 47.0189L28.0207 47.0953L27.511 47.1718L27.0396 47.2355L26.5299 47.2865L26.0457 47.3247L25.536 47.3502L25.0518 47.3629L24.5293 47.3757ZM23.115 46.0632L23.5864 46.0887L24.0579 46.1014H24.5293L25.0008 46.0887L25.4723 46.076L25.9437 46.0505L26.4025 46.0122L26.8739 45.9613L27.3326 45.9103L27.8041 45.8466L28.2628 45.7701L28.7215 45.6809L29.1803 45.579L30.0977 45.3624L30.5437 45.235L30.9897 45.0948L31.4356 44.9546L31.8816 44.8017L32.3149 44.6488L32.7608 44.4704L33.1941 44.292L34.0478 43.897L34.4683 43.6932L34.876 43.4765L35.6915 43.0178L36.4943 42.5209L36.8893 42.2533L37.2716 41.9857L37.6411 41.7181L38.0106 41.4378L38.7369 40.8389L39.4378 40.2145L39.7818 39.896L40.1258 39.5647L40.4571 39.2334L40.7757 38.8893L41.0815 38.5453L41.3873 38.1885L41.6804 37.8317L41.9735 37.4622L42.2538 37.0927L42.5341 36.7104L42.8017 36.3281L43.0566 35.9331L43.3114 35.5381L43.5535 35.1304L43.7829 34.7226L44.0122 34.3149L44.2288 33.8944L44.4327 33.4739L44.6239 33.0534L44.815 32.6202L44.9934 32.1869L45.159 31.7409L45.3247 31.295L45.4776 30.849L45.6177 30.3903L45.7452 29.9443L45.8726 29.4856L45.9873 29.0268L46.0892 28.5681L46.1784 28.1094L46.2676 27.6507L46.3441 27.192L46.4078 26.7332L46.4587 26.2618L46.497 25.7903L46.5352 25.3188L46.5607 24.8474L46.5734 24.3887V23.9172V23.4457L46.5607 22.9743L46.5352 22.5028L46.497 22.0313L46.4587 21.5599L46.4078 21.1012L46.3441 20.6424L46.2676 20.171L46.1784 19.7123L46.0892 19.2535L45.9873 18.7948L45.8726 18.3361L45.7579 17.8901L45.6305 17.4441L45.3374 16.5394L45.1718 16.0935L45.0061 15.6602L44.8277 15.2143L44.6366 14.7938L44.4327 14.3605L44.2288 13.94L44.025 13.5323L43.7956 13.1245L43.5535 12.7168L43.3114 12.309L43.0566 11.914L42.8017 11.519L42.5341 11.1367L42.2538 10.7545L41.9735 10.3722L41.6931 10.0027L41.3873 9.63315L41.0815 9.27637L40.763 8.91958L40.4444 8.58829L40.1131 8.24424L39.7818 7.91295L39.4378 7.59439L38.7369 6.97002L38.0106 6.37113L37.6411 6.09081L37.2588 5.81048L36.8638 5.54289L36.4816 5.28804L35.6788 4.7911L34.8633 4.33238L34.4555 4.11576L34.0351 3.91188L33.1813 3.51687L32.7481 3.33848L32.3149 3.17283L31.8689 3.00718L31.4356 2.85428L30.9769 2.70137L30.5309 2.5612L30.085 2.43378L29.1803 2.1662L28.7215 2.06426L28.2501 1.97506L27.7786 1.89861L27.3199 1.8349L26.8484 1.78393L26.3897 1.73296L25.9182 1.69473L25.4595 1.66925L24.9881 1.65651L24.5166 1.64376H24.0451L23.5737 1.65651L23.1022 1.68199L22.6435 1.72022L22.172 1.77119L21.7006 1.82216L21.2418 1.88587L20.7704 1.96232L20.3117 2.03877L19.8529 2.12797L19.3942 2.22991L18.9355 2.34459L18.4768 2.47201L18.0308 2.59943L17.5848 2.7396L17.1388 2.8925L16.7056 3.04541L16.2596 3.21106L15.8264 3.38945L15.3932 3.58058L14.9727 3.77172L14.5394 3.97559L14.1189 4.19221L13.7112 4.40883L13.2907 4.65093L12.8957 4.89304L12.4879 5.14788L12.0929 5.40272L11.6979 5.67031L10.9334 6.21823L10.5766 6.47307L10.2071 6.76614L9.85028 7.05922L9.14946 7.69633L8.81816 8.02763L8.15556 8.70297L7.84975 9.04701L7.54393 9.39105L7.23812 9.76057L6.65198 10.4996L6.37165 10.8691L6.10406 11.2642L5.83647 11.6592L5.58163 12.0542L5.35227 12.4492L5.11017 12.8569L4.88081 13.2647L4.66419 13.6852L4.44757 14.1057L4.24369 14.5262L4.05256 14.9594L3.87417 15.3799L3.69578 15.8259L3.53013 16.2719L3.37722 16.7051L3.23706 17.1511L3.09689 17.6098L2.96947 18.0685L2.85479 18.5145L2.65091 19.4319L2.56172 19.9034L2.48526 20.3621L2.42155 20.8336L2.35784 21.2923L2.30687 21.7638L2.26865 22.2352L2.24316 22.7067L2.21768 23.1782L2.20494 23.6496V24.1083L2.21768 24.5798L2.24316 25.0513L2.26865 25.51L2.29413 25.9942L2.3451 26.4529L2.40881 26.9244L2.47252 27.3831L2.54898 27.8546L2.63817 28.3133L2.84205 29.2307L2.96947 29.6894L3.09689 30.1482L3.23706 30.6069L3.37722 31.0529L3.53013 31.4988L3.69578 31.9448L3.86143 32.378L4.05256 32.8113L4.24369 33.2445L4.44757 33.6778L4.65145 34.0855L4.86806 34.506L5.09742 34.9265L5.35227 35.296L5.60711 35.7038L5.86196 36.0988L6.12954 36.4938L6.39713 36.8761L6.67746 37.2456L7.2636 37.9846L7.55668 38.3414L7.87523 38.6982L8.18105 39.0422L8.84364 39.7176L9.17494 40.0361L9.87576 40.6732L10.2325 40.9791L10.6021 41.2849L10.9716 41.5652L11.7361 42.1259L12.1184 42.3807L12.5134 42.6356L12.9084 42.8777L13.3162 43.1198L13.7239 43.3491L14.1444 43.5785L14.5649 43.7951L14.9854 43.999L15.4186 44.1901L15.8519 44.3812L16.2851 44.5596L16.7183 44.7253L17.1643 44.8782L17.6103 45.0311L18.0563 45.1713L18.515 45.2987L18.961 45.4134L19.4197 45.528L19.8784 45.63L20.3371 45.7192L20.8086 45.7956L21.2673 45.8721L21.7388 45.9358L22.2103 45.9868L22.6817 46.025L23.115 46.0632Z" fill="#34578E"/>
<path d="M7.68359 16.3101L16.8198 11.3406V34.111H7.68359V16.3101ZM10.4232 17.7755V31.3714H14.0802V15.724L10.4232 17.7755Z" fill="#34578E"/>
<path d="M21.5228 12.3345L24.5045 10.5251L27.4861 12.3345V31.3204H21.5355V12.3345H21.5228ZM18.7832 10.4232V34.0727H30.213V10.4232L24.4917 7.44147L18.7832 10.4232Z" fill="#34578E"/>
<path d="M32.252 11.3406L41.3881 16.2974V34.0983H32.252V11.3406ZM34.9915 15.9788V31.3587H38.6486V17.7755L34.9915 15.9788Z" fill="#34578E"/>
</g>
<defs>
<clipPath id="clip0_1285_7371">
<rect width="161.992" height="48" fill="white" transform="translate(0.382812)"/>
</clipPath>
</defs>
</svg>
