<svg width="186" height="44" viewBox="0 0 186 44" fill="none" xmlns="http://www.w3.org/2000/svg">
<g clip-path="url(#clip0_1285_7318)">
<path d="M29.7498 13.0736L23.297 19.1331H30.8448L12.551 31.3177L18.4845 24.2763H12.0059L21.8711 13.0736H29.7498Z" fill="#F5A71C"/>
<path d="M42.0235 0.01017L31.5343 10.661H23.7773L31.5782 2.72965L42.0235 0.01017Z" fill="#0DB0AD"/>
<path d="M12.9004 10.661L17.074 6.32428L26.9223 3.93569L20.6123 10.661H12.9004Z" fill="#F05424"/>
<path d="M12.2503 7.7122L9.43704 10.661H0.185547L12.2503 7.7122Z" fill="#163C6D"/>
<path d="M37.543 7.89981L39.6062 10.661H43.846V29.7553H46.9513V10.661H52.3535L52.3535 7.89981H37.543ZM110.596 7.89981L112.66 10.661H116.9V29.7553H120.005V10.661H125.407L125.407 7.89981H110.596ZM56.3125 15.3774V14.0234L53.4134 14.0202V29.7553H56.5784C56.5784 29.7553 56.5784 21.4236 56.5784 20.2907C56.5784 18.722 57.9467 17.1097 60.1037 16.9789C62.2608 16.8482 63.1935 18.4447 63.1935 18.4447L65.0552 15.8078C65.0552 15.8078 63.1106 13.9658 60.5702 13.9658C58.0299 13.9658 56.3125 15.3774 56.3125 15.3774ZM128.447 15.3774V14.0234L125.548 14.0202V29.7553H128.713C128.713 29.7553 128.713 21.4236 128.713 20.2907C128.713 18.722 130.082 17.1097 132.239 16.9789C134.396 16.8482 135.328 18.4447 135.328 18.4447L137.19 15.8078C137.19 15.8078 135.246 13.9658 132.705 13.9658C130.165 13.9658 128.447 15.3774 128.447 15.3774ZM73.1929 13.9658C68.7848 13.9658 65.2114 17.5391 65.2114 21.9469C65.2114 26.3547 68.7848 29.928 73.1929 29.928C75.0879 29.928 76.8282 29.2672 78.1971 28.1641V29.7553H81.1745V21.5846H81.1659C80.9764 17.345 77.4795 13.9658 73.1929 13.9658ZM73.1929 26.9508C70.4292 26.9508 68.1887 24.7105 68.1887 21.9469C68.1887 19.1833 70.4292 16.943 73.1929 16.943C75.9567 16.943 78.1971 19.1833 78.1971 21.9469C78.1971 24.7105 75.9567 26.9508 73.1929 26.9508ZM153.258 21.5846H153.249C153.06 17.345 149.563 13.9658 145.276 13.9658C140.868 13.9658 137.295 17.5391 137.295 21.9469C137.295 26.3547 140.868 29.928 145.276 29.928C147.171 29.928 148.912 29.2672 150.281 28.1641V29.7553H153.258V21.9471C153.258 21.9471 153.258 21.947 153.258 21.947C153.258 21.9469 153.258 21.9468 153.258 21.9468V21.5846ZM145.276 26.9508C142.513 26.9508 140.272 24.7105 140.272 21.9469C140.272 19.1833 142.513 16.943 145.276 16.943C148.04 16.943 150.281 19.1833 150.281 21.9469C150.281 24.7105 148.04 26.9508 145.276 26.9508ZM91.0818 13.8447C88.7587 13.8447 87.493 14.7213 87.0714 15.081V13.9658H84.0941V29.7553H87.0714V19.7938C87.0714 18.8625 88.68 16.8017 90.7943 16.8017C93.1538 16.8017 94.6351 18.9487 94.6351 20.7365C94.6351 22.1153 94.6351 29.7553 94.6351 29.7553H97.7008C97.7008 29.7553 97.7008 24.0467 97.7008 20.9594C97.7008 16.7451 94.4983 13.8447 91.0818 13.8447ZM106.657 20.573C103.825 19.3283 103.424 18.5081 103.878 17.6182C104.513 16.372 106.513 17.2517 106.837 17.8234L109.207 15.9887C109.207 15.9887 107.831 13.9658 105.117 13.9658C102.403 13.9658 100.813 16.0273 100.578 17.5435C100.343 19.0596 100.338 20.9745 103.97 22.6777C107.018 24.1063 107.044 24.8133 106.792 25.7382C106.571 26.5517 105.803 26.895 104.856 26.8701C103.909 26.8452 102.976 25.5061 102.976 25.5061L100.343 27.4555C100.343 27.4555 102.036 29.9281 105.123 29.9281C108.563 29.9281 110.125 26.844 110.125 25.3533C110.125 23.8626 109.69 21.9059 106.657 20.573ZM162.967 16.943C164.586 16.943 166.025 17.7122 166.94 18.905L169.198 16.9599C167.735 15.1348 165.488 13.9658 162.967 13.9658C158.559 13.9658 154.985 17.5391 154.985 21.9469C154.985 26.3547 158.559 29.928 162.967 29.928C165.488 29.928 167.735 28.759 169.198 26.934L166.94 24.9889C166.025 26.1816 164.586 26.9508 162.967 26.9508C160.203 26.9508 157.963 24.7105 157.963 21.9469C157.963 19.1833 160.203 16.943 162.967 16.943ZM178.557 20.9525L184.653 13.9343H180.986L174.889 20.9525L181.555 29.928H185.222L178.557 20.9525ZM174.889 18.8582V3.74139H171.828V29.928H174.889V23.4021L173.07 20.9525L174.889 18.8582Z" fill="#163C6D"/>
<path d="M96.8942 37.3423H99.2192V43.7506H100.845V37.3423H103.17V36.0169H96.8942V37.3423ZM105.304 43.7507H106.931V36.0169H105.304V43.7507ZM93.0211 40.6352H93.0177C92.9629 42.2341 92.1976 42.5837 91.4628 42.5837C90.7281 42.5837 89.9627 42.234 89.9079 40.6352H89.9045V36.0169H88.2782C88.2782 36.0169 88.2782 38.2289 88.2782 40.6543C88.2782 43.3288 89.933 44.0259 91.4628 44.0259C92.9926 44.0259 94.6456 43.3157 94.6456 40.6543C94.6456 37.9929 94.6474 36.0169 94.6474 36.0169H93.0211V40.6352ZM66.8474 39.4923C65.6096 38.9618 64.72 38.6132 64.9578 37.8883C65.2113 37.1154 65.8697 37.0242 66.4128 37.1C66.9559 37.1758 67.461 37.4762 67.461 37.4762L68.0473 36.2464C68.0473 36.2464 67.2407 35.793 66.039 35.7942C65.0409 35.7951 63.7677 36.3099 63.4347 37.4576C63.059 38.7527 63.5048 39.7323 64.8387 40.2612C66.3468 40.8591 66.7538 41.2973 66.6579 41.8769C66.5713 42.401 66.1274 42.6953 65.1675 42.6322C64.2076 42.569 63.5508 42.1119 63.5508 42.1119L63.4623 43.5718C63.4623 43.5718 63.9651 43.8977 65.6829 43.8977C67.4007 43.8977 68.1484 42.9403 68.3126 41.9804C68.4768 41.0205 68.0852 40.0227 66.8474 39.4923ZM82.9212 36.0169H81.295V42.4169V43.7424V43.7507H82.9212V43.7424H85.961V42.4169H82.9212V36.0169ZM74.6397 35.8406C72.5409 35.8406 70.8395 37.5583 70.8395 39.9332C70.8395 42.3081 72.5409 44.0259 74.6397 44.0259C76.7385 44.0259 78.4399 42.3081 78.4399 39.9332C78.4399 37.5583 76.7385 35.8406 74.6397 35.8406ZM74.6397 42.6693C72.5337 42.6693 72.3273 40.6485 72.3273 39.9333C72.3273 39.2181 72.5412 37.1972 74.6397 37.1972C76.7383 37.1972 76.9521 39.2181 76.9521 39.9333C76.9521 40.6485 76.7457 42.6693 74.6397 42.6693ZM181.53 36.0169H180.693H179.067V43.7506H180.693V40.7104H181.53C182.826 40.7104 184.321 40.1015 184.321 38.3637C184.321 36.6259 182.826 36.0169 181.53 36.0169ZM181.079 39.6805H180.693V37.0469H181.079C181.591 37.0469 182.84 37.0469 182.84 38.3637C182.84 39.6805 181.591 39.6805 181.079 39.6805ZM113.512 35.8406C111.413 35.8406 109.712 37.5583 109.712 39.9332C109.712 42.3081 111.413 44.0259 113.512 44.0259C115.611 44.0259 117.312 42.3081 117.312 39.9332C117.312 37.5583 115.611 35.8406 113.512 35.8406ZM113.512 42.6693C111.406 42.6693 111.199 40.6485 111.199 39.9333C111.199 39.2181 111.413 37.1972 113.512 37.1972C115.61 37.1972 115.824 39.2181 115.824 39.9333C115.824 40.6485 115.618 42.6693 113.512 42.6693ZM163.107 35.8406C161.008 35.8406 159.307 37.5583 159.307 39.9332C159.307 42.3081 161.009 44.0259 163.107 44.0259C165.206 44.0259 166.908 42.3081 166.908 39.9332C166.908 37.5583 165.206 35.8406 163.107 35.8406ZM163.107 42.6693C161.001 42.6693 160.795 40.6485 160.795 39.9333C160.795 39.2181 161.009 37.1972 163.107 37.1972C165.206 37.1972 165.42 39.2181 165.42 39.9333C165.42 40.6485 165.213 42.6693 163.107 42.6693ZM174.399 40.6352H174.396C174.341 42.2341 173.576 42.5837 172.841 42.5837C172.106 42.5837 171.341 42.234 171.286 40.6352H171.283V36.0169H169.657C169.657 36.0169 169.657 38.2289 169.657 40.6543C169.657 43.3288 171.311 44.0259 172.841 44.0259C174.371 44.0259 176.024 43.3157 176.024 40.6543C176.024 37.9929 176.026 36.0169 176.026 36.0169H174.399V40.6352ZM155.378 40.2433C156.099 39.9153 156.648 39.2994 156.648 38.2828C156.648 36.6049 155.153 36.0169 153.857 36.0169H152.859H151.232V43.7506H152.859V40.5486H153.857C153.905 40.5486 153.953 40.5475 154.001 40.5459C154.64 41.6035 155.235 43.7506 155.562 43.7506H157.188C156.877 43.7507 156.109 41.1101 155.378 40.2433ZM153.406 39.3847H152.859V37.0469H153.406C153.918 37.0469 155.167 37.0469 155.167 38.2158C155.167 39.3847 153.918 39.3847 153.406 39.3847ZM124.922 41.373L121.986 36.0169H121.7H120.36H120.074V43.7506H121.7V38.4621L124.599 43.7507H124.922H126.225H126.548V36.0169H124.922V41.373ZM132.975 39.4923C131.737 38.9618 130.848 38.6132 131.086 37.8883C131.339 37.1154 131.997 37.0242 132.541 37.1C133.084 37.1758 133.589 37.4762 133.589 37.4762L134.175 36.2464C134.175 36.2464 133.369 35.793 132.167 35.7942C131.169 35.7951 129.895 36.3099 129.563 37.4576C129.187 38.7527 129.633 39.7323 130.966 40.2612C132.475 40.8591 132.882 41.2973 132.786 41.8769C132.699 42.401 132.255 42.6953 131.295 42.6322C130.335 42.569 129.679 42.1119 129.679 42.1119L129.59 43.5718C129.59 43.5718 130.093 43.8977 131.811 43.8977C133.528 43.8977 134.276 42.9403 134.44 41.9804C134.605 41.0205 134.213 40.0227 132.975 39.4923ZM148.279 39.2678H145.033V40.5933H146.8V42.7026C146.511 42.8095 146.201 42.8677 145.878 42.8677C144.324 42.8677 143.06 41.5226 143.06 39.8691C143.06 38.2157 144.324 36.8706 145.878 36.8706C146.619 36.8706 147.293 37.1769 147.797 37.6762L147.953 36.3155C147.334 36.0126 146.628 35.8406 145.878 35.8406C143.446 35.8406 141.475 37.6443 141.475 39.8692C141.475 42.0941 143.446 43.8977 145.878 43.8977C146.765 43.8977 147.591 43.6573 148.283 43.2439H148.283V39.462H148.279V39.2678H148.279Z" fill="#163C6D"/>
</g>
<defs>
<clipPath id="clip0_1285_7318">
<rect width="184.719" height="44" fill="white" transform="translate(0.332031)"/>
</clipPath>
</defs>
</svg>
