<svg width="168" height="48" viewBox="0 0 168 48" fill="none" xmlns="http://www.w3.org/2000/svg">
<g clip-path="url(#clip0_1285_7261)">
<path d="M74.8999 12.9763L75.3234 12.5528V11.2842L74.8999 10.8608H52.898L52.4746 11.2842V12.5528L52.898 12.9763H62.2069L62.6304 13.3997V40.056L63.0521 40.4795H64.7459L65.1676 40.056V13.3997L65.591 12.9763H74.8999Z" fill="#343434"/>
<path d="M73.2084 19.3231L72.785 19.7465V32.863C72.785 35.5149 73.4328 37.5174 74.7318 38.8721C76.0291 40.225 77.7785 40.9032 79.9784 40.9032C81.4444 40.9032 82.7839 40.6063 83.9968 40.0142C85.2098 39.422 86.1275 38.5903 86.7483 37.5174H87.1718L87.5935 40.0563L88.0169 40.4798H89.2873L89.7107 40.0563V19.7465L89.2873 19.3231H87.5935L87.1718 19.7465V31.1709C87.1718 33.5681 86.6066 35.4373 85.478 36.7768C84.3494 38.118 82.6573 38.7877 80.4018 38.7877C78.8211 38.7877 77.5795 38.3086 76.6786 37.3487C75.7744 36.3888 75.3239 34.8941 75.3239 32.863V19.7465L74.9005 19.3231H73.2084Z" fill="#343434"/>
<path d="M105.491 19.3231H107.183L107.607 19.7465V21.0151L107.183 21.4386H105.068C103.036 21.4386 101.542 22.0813 100.584 23.3634C99.6236 24.6473 99.1445 26.4034 99.1445 28.632V40.0563L98.7211 40.4798H97.029L96.6056 40.0563V19.7465L97.029 19.3231H98.2977L98.7211 19.7465L99.1445 22.2854H99.568C100.752 20.3117 102.726 19.3231 105.491 19.3231Z" fill="#343434"/>
<path d="M128.805 40.4798L129.228 40.0563V27.3633C129.228 24.654 128.551 22.5672 127.197 21.1012C125.842 19.6335 123.981 18.8996 121.611 18.8996C120.145 18.8996 118.804 19.1965 117.593 19.7887C116.38 20.3808 115.462 21.2142 114.841 22.2854H114.419L113.996 19.7465L113.573 19.3231H112.302L111.881 19.7465V40.0563L112.302 40.4798H113.996L114.419 40.0563V28.6319C114.419 26.2347 114.983 24.3655 116.112 23.026C117.238 21.6865 118.932 21.0151 121.189 21.0151C122.908 21.0151 124.256 21.5516 125.23 22.6228C126.203 23.6958 126.689 25.2748 126.689 27.3633V40.0563L127.112 40.4798H128.805Z" fill="#343434"/>
<path d="M150.298 12.5528L149.875 12.9763H140.566L140.142 13.3997V40.056L139.721 40.4795H138.027L137.605 40.056V13.3997L137.182 12.9763H127.873L127.449 12.5528V11.2842L127.873 10.8608H149.875L150.298 11.2842V12.5528Z" fill="#343434"/>
<path fill-rule="evenodd" clip-rule="evenodd" d="M156.518 40.9015C159.367 40.9015 161.702 39.9365 163.52 38.0032C165.341 36.0716 166.25 33.3707 166.25 29.9006C166.25 26.4304 165.341 23.7295 163.52 21.7979C161.702 19.8663 159.367 18.8996 156.518 18.8996C153.668 18.8996 151.335 19.8663 149.515 21.7979C147.696 23.7295 146.785 26.4304 146.785 29.9006C146.785 33.3707 147.696 36.0716 149.515 38.0032C151.335 39.9365 153.668 40.9015 156.518 40.9015ZM156.518 21.0151C158.662 21.0151 160.396 21.8181 161.722 23.4258C163.048 25.0352 163.711 27.1929 163.711 29.9006C163.711 32.6082 163.048 34.7659 161.722 36.3736C160.396 37.983 158.662 38.786 156.518 38.786C154.373 38.786 152.639 37.983 151.313 36.3736C149.987 34.7659 149.324 32.6082 149.324 29.9006C149.324 27.1929 149.987 25.0352 151.313 23.4258C152.639 21.8181 154.373 21.0151 156.518 21.0151Z" fill="#343434"/>
<path d="M28.4827 21.0977H33.1675V38.6863H28.4827V21.0977ZM34.9304 14.7309L39.6186 14.6685V19.3347H34.9304V14.7309ZM2.68675 8.21064H7.37155V13.248C7.37155 14.0257 8.00587 14.6584 8.78189 14.6584H20.2704V39.0372C20.2704 39.8149 20.903 40.4476 21.6807 40.4476H26.7198V45.1324H15.5839V20.7535C15.5839 19.9758 14.9513 19.3415 14.1735 19.3415H2.68675V8.21064ZM9.13447 1.76292H46.0562V6.44604H9.13447V1.76292ZM8.78189 0C8.00587 0 7.37155 0.632627 7.37155 1.41033V6.44772H2.33416C1.55645 6.44772 0.923828 7.08035 0.923828 7.85806V19.6941C0.923828 20.4735 1.55645 21.1044 2.33416 21.1044H13.8226V45.4867C13.8226 46.2627 14.4553 46.897 15.233 46.897H27.0724C27.8501 46.897 28.4827 46.2627 28.4827 45.4867V40.4476H33.5201C34.2995 40.4476 34.9304 39.8149 34.9304 39.0372V21.0977H39.9695C40.7472 21.0977 41.3798 20.465 41.3798 19.6873V14.3058C41.3798 13.9262 41.2314 13.5719 40.9631 13.3071C40.6932 13.0405 40.339 12.9056 39.9577 12.9022L34.566 12.9714C33.7951 12.9815 33.1675 13.6192 33.1675 14.3901V19.3347H28.1301C27.3507 19.3347 26.7198 19.9674 26.7198 20.7451V38.6847H22.035V14.3058C22.035 13.5281 21.4007 12.8954 20.6246 12.8954H9.13447V8.21064H46.4088C47.1882 8.21064 47.8191 7.57633 47.8191 6.80031V1.41033C47.8191 0.632627 47.1882 0 46.4088 0H8.78189Z" fill="url(#paint0_linear_1285_7261)"/>
</g>
<defs>
<linearGradient id="paint0_linear_1285_7261" x1="4.56387" y1="36.8114" x2="44.1835" y2="-2.80818" gradientUnits="userSpaceOnUse">
<stop stop-color="#136EB5"/>
<stop offset="1" stop-color="#3DA3DC"/>
</linearGradient>
<clipPath id="clip0_1285_7261">
<rect width="166.154" height="48" fill="white" transform="translate(0.923828)"/>
</clipPath>
</defs>
</svg>
