<svg width="946" height="623" viewBox="0 0 946 623" fill="none" xmlns="http://www.w3.org/2000/svg">
<path d="M74.1338 650.779C79.4881 668.547 87.2513 685.858 97.2311 702.28C104.101 713.07 111.819 723.442 120.316 733.302C126.806 740.489 133.793 747.298 141.226 753.679C146.901 759.039 153.045 764.392 159.129 769.31C167.858 776.366 176.997 782.98 186.195 790.029C195.922 797.506 206.058 804.541 215.437 812.894C229.901 825.745 243.344 839.701 252.722 856.552C260.941 870.149 265.132 885.168 264.83 899.943C264.21 912.059 259.828 923.383 252.192 932.601C245.013 941.862 237.102 950.916 229.923 960.177C221.497 970.563 215.031 982.275 210.757 994.897C208.77 1000.97 207.437 1007.26 206.776 1013.7C205.349 1030.08 209.076 1047.02 217.525 1062.55C223.392 1074.23 231.335 1085.1 240.995 1094.66C246.044 1099.96 251.448 1104.97 257.167 1109.66C264.514 1115.21 272.209 1119.89 279.7 1124.79C286.661 1129.25 293.828 1133.5 300.645 1138.63C310.312 1145.67 320.04 1153.15 329.298 1160.63C333.952 1164.85 338.271 1169.38 342.212 1174.16C345.771 1177.81 349.595 1181.67 353.154 1185.32C357.302 1189.83 361.714 1194.56 366.067 1198.85L372.596 1205.28C376.359 1208.71 380.327 1211.92 383.886 1215.57C399.709 1231.45 417.841 1245.33 435.504 1259.23C443.447 1265.19 451.674 1270.81 460.153 1276.06C464.794 1279.04 469.231 1282.24 474.077 1285C480.51 1289.04 487.207 1293.29 494.048 1296.89C508.066 1304.39 522.706 1310.66 537.755 1315.61C558.922 1322.54 580.92 1325.61 602.444 1324.64C619.281 1323.77 635.484 1320.13 650.3 1313.89C661.71 1309.4 671.452 1302.3 678.689 1293.19C685.2 1285.1 689.115 1275.36 690.052 1264.91C692.145 1242.65 686.566 1222.69 678.029 1203.43C671.831 1189.39 664.05 1175.85 654.824 1163.04C647.968 1154.02 640.568 1145.33 632.664 1137.02C623.772 1126.88 613.658 1117.67 602.556 1109.59C596.366 1105.05 589.899 1100.85 583.198 1097.03C575.234 1092.32 567.027 1088.01 558.621 1084.12C539.072 1075.62 518.534 1069.83 497.744 1066.97C481.439 1064.61 464.991 1062.9 448.746 1060.97C436.313 1059.42 424.085 1057.64 413.456 1052.14C397.308 1044.11 387.797 1031.4 386.619 1012.68C386.103 1006 387.119 999.452 389.601 993.461C392.167 987.421 396.153 982.089 401.301 977.812C412.221 969.535 424.884 963.291 438.696 959.371C464.956 950.471 491.541 942.22 517.177 930.497C538.017 920.849 557.5 909.161 575.326 895.615C588.59 885.522 600.551 874.097 611.025 861.514C619.85 850.729 627.689 839.246 634.472 827.164C643.443 810.417 650.518 792.723 655.6 774.331C659.508 760.108 662.947 745.893 665.917 731.685C671.605 706.542 677.822 681.826 686.383 657.074C693.321 637.576 700.933 617.85 707.137 598.145C712.993 579.835 716.66 560.791 718.08 541.328C720.221 516.021 718.466 491.428 718.526 466.37C718.217 452.43 720.125 438.749 724.19 425.758C727.347 416.259 732.63 407.657 739.726 400.463C748.497 391.986 759.266 385.445 771.373 381.239C787.388 375.714 804.171 371.806 821.453 369.577C831.59 368.114 841.99 366.865 852.187 365.837C876.066 363.51 899.742 361.404 923.417 359.297C936.427 358.226 949.641 356.934 962.386 355.649C987.877 353.08 1013.37 350.509 1038.8 347.505C1068.59 343.779 1098.21 338.75 1127.8 335.245C1153.73 332.102 1180.41 332.353 1207.09 335.99C1230.79 339.276 1254.29 345.057 1277.14 353.217C1288.82 357.172 1300 362.575 1310.37 369.266C1316.53 373.028 1322.44 377.161 1328.06 381.632C1336.47 388.93 1343.73 397.273 1349.57 406.358C1364.22 429.011 1371.72 454.389 1374.98 481.356C1377.47 498.92 1376.63 516.409 1372.49 533.032C1369.3 544.816 1363.53 555.642 1355.51 564.885C1345.2 576.113 1332.77 585.503 1318.7 592.685C1301.41 601.883 1284.26 610.426 1266.65 618.976C1245.73 629.102 1224.28 638.799 1204.33 650.871C1194.61 656.683 1185.54 663.309 1177.23 670.678C1159.57 685.765 1148.76 704.451 1141.27 725.047C1132.54 749.357 1125.87 774.439 1121.34 800.086C1117.74 818.197 1115.5 836.648 1114.64 855.313C1113.34 879.921 1115.69 904.949 1121.63 929.72C1124.02 940.142 1127.54 950.329 1130.65 960.958C1131.02 962.48 1131.15 964.018 1131.05 965.527M138.253 648.926C143.952 662.348 151.819 675.093 161.567 686.698C168.504 695.243 176.454 703.095 185.241 710.084C188.416 712.65 190.712 715.665 194.091 718.01C203.025 724.845 212.163 731.459 221.565 738.287C228.852 743.404 236.403 748.736 243.485 754.074C254.21 761.971 264.731 770.089 275.312 778.642C282.25 784.636 288.574 791.294 295.103 797.73C300.574 803.311 306.249 808.671 311.455 814.038C316.133 818.978 320.605 824.138 325.018 828.864C328.577 832.513 331.727 836.605 335.491 840.033C342.995 847.512 350.959 854.595 359.334 861.237C384.548 880.46 414.391 890.679 449.177 889.056C470.677 888.065 491.308 883.236 509.946 874.832C523.06 869.146 534.924 861.543 545.129 852.287C550.624 847.758 555.757 842.876 560.496 837.671C571.422 824.932 580.045 810.555 586.083 795.009C595.703 771.113 598.638 746.446 601.572 721.781C604.506 697.115 606.851 671.587 615.941 647.263C619.861 636.527 624.455 625.562 629.108 615.032C638.067 594.85 647.554 575.095 653.843 554.3C658.607 539.101 661.462 523.274 662.356 507.107C663.09 490.319 662.826 473.11 663.56 456.322C664.149 440.189 664.534 424.278 669.549 407.86C673.212 395.269 679.691 383.772 688.6 374.053C697.51 364.334 708.668 356.591 721.409 351.287C732.218 346.859 743.521 343.333 755.196 340.746C765.967 338.116 777.008 336.199 788.239 335.01C803.738 333.247 818.888 332.361 834.447 331.033C840.014 330.512 845.377 330.211 850.679 329.476C883.553 325.922 916.487 322.802 949.24 318.378C975.87 315.01 1002.02 309.95 1027.5 303.232C1056.49 295.38 1085.42 287.093 1114.21 279.461C1140.91 272.329 1169.57 270.627 1198.34 274.466C1220.39 277.614 1242.22 282.508 1263.57 287.409C1288.8 293.123 1313.76 298.623 1338.58 304.779C1348.65 307.171 1358.43 310.914 1367.6 315.881C1381.18 323.306 1391.98 334.638 1398.11 347.878C1406.91 366.071 1413.53 384.902 1417.85 404.006C1424.65 431.137 1431.46 458.268 1437.59 485.627C1441.34 502.564 1444.42 519.729 1446.83 537.123C1449.04 552.569 1447.89 567.925 1443.43 582.277C1440.73 590.692 1436.49 598.485 1430.88 605.347C1419.87 618.679 1405.42 629.183 1388.6 636.063C1366.48 645.989 1344.29 655.481 1321.91 665.193C1299.99 674.892 1279.5 686.818 1260.8 700.774C1247.59 711.064 1235.82 722.788 1225.69 735.737C1213.51 750.973 1204 767.996 1197.43 786.284C1190.99 802.982 1186.48 820.424 1183.95 838.346C1181.02 859.742 1181.21 881.715 1184.53 903.702C1184.63 905.325 1184.53 906.934 1184.25 908.5M93.335 635.009C98.0322 656 107.16 676.378 120.184 694.95C126.544 703.568 132.905 712.186 139.674 720.361C144.412 725.736 149.966 730.226 155.113 735.159C159.141 738.801 163.229 742.878 167.461 746.299C173.545 751.217 179.834 755.914 186.327 760.39C192.88 765.3 199.902 770.204 206.863 774.672C220.389 783.613 233.286 793.392 245.448 803.93C252.121 809.711 258.181 816.154 264.445 822.377C279.68 837.395 291.523 855.08 303.979 872.101C310.135 880.94 316.496 889.557 323.53 897.947C334.508 911.552 350.332 921.299 367.706 925.158C385.184 928.628 402.834 929.897 420.154 928.929C444.525 928.051 468.247 923.945 490.603 916.736C517.864 908.758 542.638 895.881 563.601 878.794C569.505 873.91 575.409 869.026 580.989 863.493C586.764 857.999 592.155 852.169 597.137 846.033C603.509 837.16 609.29 827.905 614.452 818.314C624.506 799.215 631.544 778.659 635.375 757.205L646.774 696.894C651.01 675.76 657.204 655.186 665.292 635.385C672.411 617.192 679.938 598.557 686.119 580.378C692.656 561.179 696.263 540.974 696.845 520.296C697.194 502.424 697.074 484.559 697.219 466.909C696.958 453.495 697.951 440.213 700.19 427.209C703.079 412.092 710.338 398.383 721.244 387.45C726.94 381.873 733.684 377.282 741.216 373.852C756.954 365.98 774.371 360.847 792.691 358.682C806.05 356.734 819.144 354.572 832.359 353.28C853.894 350.989 875.549 349.567 897.144 347.711C903.18 347.183 909.685 346.647 915.925 345.898C926.122 344.87 936.318 343.842 946.25 342.6C961.075 341.065 976.166 339.744 991.136 337.554C1013.02 334.385 1035.05 330.561 1056.87 326.958C1073.39 324.09 1089.85 320.788 1106.43 318.355C1120 316.186 1133.56 314.016 1147.24 312.717C1166.62 310.979 1186.44 311.553 1206.22 314.427C1219.65 316.399 1232.88 318.593 1246.22 321.657C1270.81 326.724 1294.94 334.552 1318.06 344.957C1331.14 351.111 1343.17 359.266 1353.57 369.033C1364.28 379.676 1372.71 392.009 1378.32 405.258C1386.49 423.329 1392.68 441.926 1396.8 460.752C1400.27 476.794 1402.81 492.902 1404.41 509.005C1405.71 522.599 1405.05 536.091 1402.44 549.126C1399.94 561.533 1394.08 572.845 1385.37 582.069C1374.14 594.121 1360.37 603.931 1344.73 611.017C1329.14 618.882 1313.22 626.099 1297.56 633.529C1278.14 642.326 1259.43 652.216 1241.51 663.15C1229.46 670.525 1218.2 678.859 1207.83 688.069C1198.63 696.597 1190.33 705.907 1183.01 715.903C1168.83 735.73 1160.32 757.43 1153.27 779.545C1145.65 803.255 1140.94 827.946 1139.25 853.186C1137.69 875.45 1139.4 898.139 1144.35 920.651C1145.78 927.602 1147.68 934.544 1149.37 941.709C1149.46 942.735 1149.44 943.756 1149.32 944.76M116.025 635.976C124.682 665.534 142.199 693.103 166.476 715.383C175.53 723.088 184.115 730.8 193.578 738.062C200.455 743.622 207.682 748.304 214.968 753.422C221.726 758.111 228.423 762.366 234.771 767.498C246.29 776.037 257.605 784.796 268.45 793.563C274.507 798.915 280.233 804.576 285.596 810.512C291.86 816.735 297.92 823.179 303.98 829.622C308.982 835.21 314.044 841.233 319.251 846.6C324.457 851.968 329.254 857.777 334.665 862.923C340.869 868.711 347.542 874.491 354.156 879.837C366.889 889.629 381.745 896.591 397.37 900.09C419.049 905.641 442.087 905.723 465.113 902.319C487.917 898.836 509.354 891.416 528.347 880.433C539.473 874.008 549.853 866.631 559.369 858.386C577.967 841.67 592.174 821.204 601.106 798.264C610.172 775.466 613.816 752.532 617.195 729.385C619.888 711.477 622.582 693.569 626.01 675.868C630.011 658.056 635.889 640.822 643.566 624.397C651.766 605.533 660.496 587.097 666.496 567.614C672.367 549.521 675.746 530.595 676.561 511.246C676.982 497.295 676.934 483.351 677.091 469.187C677.416 452.841 677.272 436.502 680.615 419.891C683.001 407.508 688.194 395.993 695.873 386.056C703.552 376.12 713.554 367.974 725.261 362.121C740.121 354.944 756.287 349.925 773.249 347.223C783.385 345.76 793.401 343.428 803.598 342.4C824.195 340.123 844.912 338.716 865.364 337.095L883.004 335.517C914.471 331.984 945.529 328.893 976.875 324.49C1008.99 319.872 1040.59 313.568 1071.54 305.607C1097.22 299.33 1122.7 293.274 1148.66 290.697C1166.54 288.986 1184.82 289.364 1203.1 291.823C1214.59 293.39 1225.94 295.613 1237.29 297.835C1262.6 302.886 1287.72 309.267 1312.54 316.944C1324.94 320.656 1337.03 325.509 1348.61 331.424C1357.44 336.375 1365.45 342.589 1372.3 349.799C1389.83 367.832 1398.17 390.799 1405.17 414.223C1410.65 431.787 1415.2 449.366 1419.07 467.173C1423.18 486.719 1427.09 506.487 1429.38 526.496C1431.42 541.011 1430.47 555.444 1426.57 569.026C1424.3 577.013 1420.66 584.491 1415.77 591.198C1405.97 605.293 1391.76 614.662 1376.37 622.306C1355.65 632.211 1334.61 641.466 1313.83 650.936C1293.22 660.107 1273.66 670.901 1255.32 683.209C1245.09 690.512 1235.44 698.446 1226.41 706.966C1210.35 722.491 1197.38 740.563 1188 760.5C1174.89 787.637 1166.9 817.042 1164.32 847.58C1162.16 871.371 1163.62 895.69 1168.67 919.85C1168.79 920.72 1168.5 922.032 1168.62 922.901M1402.38 -100.584C1397.72 -98.5514 1392.8 -96.7329 1388.15 -94.7006C1375.6 -88.6252 1363.31 -82.3358 1350.76 -76.2604C1331.8 -67.1348 1314.03 -56.2847 1297.67 -43.8532C1288.32 -36.7374 1279.49 -29.1943 1270.93 -21.4371C1249.54 -2.80692 1232.17 19.4657 1212.17 39.5999C1190.93 61.0602 1166.51 76.4685 1136.81 82.589C1119 86.3483 1101.04 87.2779 1084.03 83.1813C1076.19 81.6165 1068.63 78.5357 1061.87 74.152C1055.62 69.9414 1049.65 65.3745 1044 60.4821C1037.74 54.5575 1032.05 48.1504 1027.02 41.3508C1013.83 24.1226 1001.05 6.45228 987.86 -10.7759C981.738 -17.8633 975.226 -24.6736 968.357 -31.1754C965.557 -34.399 962.39 -37.3488 958.918 -39.9638C945.933 -48.9156 932.333 -57.2043 915.211 -58.6847C906.659 -59.4534 898.266 -58.2769 890.779 -55.2595C885.754 -53.142 881.432 -49.9642 878.126 -45.9568C874.819 -41.9493 872.611 -37.2125 871.66 -32.0886C869.372 -21.4146 870.539 -10.0177 875.026 0.759967C881.357 17.8079 891.085 33.9332 903.678 48.2544C910.779 56.7136 918.487 64.751 926.74 72.3032C938.295 82.8021 950.463 92.6381 962.631 102.474C969.244 107.82 976.675 112.281 983.492 117.406C988.998 121.084 994.323 125.003 999.448 129.144C1012.59 140.926 1023.16 154.491 1025.48 172.975C1027.7 189.064 1023.45 204.163 1012.5 218.494C1001.14 232.545 986.487 243.967 969.446 252.054C946.42 263.955 921.999 270.866 896.929 276.48C870.512 282.55 843.614 285.142 817.041 288.382C793.222 291.144 769.691 292.594 745.932 295.791C722.765 298.446 700.533 304.293 679.956 313.144C665.575 319.574 652.572 328.073 641.382 338.357C623.851 354.313 614.099 373.854 608.34 395.077C603.157 413.676 601.99 432.433 600.619 451.409C599.031 475.618 597.035 500.269 588.822 524.144C583.644 538.712 577.266 552.792 569.739 566.271C560.012 584.286 549.082 602.102 541.35 620.958C534.177 638.493 529.715 657.102 528.087 676.286C526.571 695.919 525.525 715.544 523.541 735.184C522.339 748.928 518.692 762.154 512.742 774.351C503.748 792.573 489.343 805.648 468.758 811.411C456.585 815.109 443.035 815.089 429.98 811.353C418.71 808.397 408.032 803.199 398.742 796.145C395.039 793.151 390.722 790.82 387.488 787.82C380.755 781.604 374.226 775.168 367.697 768.732C361.168 762.295 354.844 755.638 348.519 748.981C343.842 744.041 339.573 738.66 335.161 733.934C331.541 729.85 327.249 725.994 323.426 722.131C318.484 716.977 313.278 711.61 308.131 706.678C304.897 703.677 301.927 700.89 298.692 697.89C293.342 693.178 288.051 688.902 282.905 683.97C275.643 677.327 268.585 670.462 261.732 663.377C253.924 655.662 246.602 647.551 239.812 639.093C234.154 631.674 229.358 623.781 225.516 615.564C217.876 598.717 213.676 581.03 213.144 563.462M1391.68 -110.018C1380.88 -104.841 1369.82 -99.8779 1359.02 -94.7009C1332.3 -82.3076 1305.97 -68.831 1282.12 -51.0345C1272.09 -43.6905 1262.38 -35.6975 1252.68 -27.7049C1244.47 -20.8245 1236.78 -13.5165 1228.84 -6.42241C1212.74 7.9869 1196.64 22.3959 1177.77 33.7972C1157.35 45.8761 1135.69 52.3091 1112.79 51.5709C1098.62 51.0628 1084.44 47.0675 1071.72 39.9998C1061.53 34.0138 1052.1 26.9067 1043.65 18.8599C1035.83 11.3567 1028.46 3.46553 1021.59 -4.76857L1004.02 -24.7621C999.816 -29.7088 995.607 -34.6552 991.194 -39.3808C989.547 -41.0986 987.635 -43.0304 985.988 -44.7482C978.529 -51.8067 970.624 -58.4543 962.325 -64.648C949.731 -74.0393 935.079 -80.5644 919.761 -83.6043C901.664 -87.0307 883.376 -86.7502 865.532 -76.4539C858.56 -72.5548 852.856 -67.1076 848.87 -60.5425C844.884 -53.9774 842.726 -46.4741 842.566 -38.6257C841.832 -21.8376 846.954 -6.88251 853.423 7.61631C859.642 21.3576 867.382 34.6059 876.508 47.1343C884.901 58.5533 894.171 69.523 903.177 80.2789C908.564 86.9506 914.359 93.1806 920.154 99.4102C924.567 104.136 929.329 107.984 933.741 112.71C939.477 118.505 945.272 124.735 950.803 130.751C956.923 137.629 963.308 144.721 969.019 152.041C976.941 161.943 981.725 173.473 982.762 185.166C983.698 197.106 980.516 208.594 973.671 217.988C964.424 230.985 951.498 239.463 937.719 246.864C918.618 256.422 897.949 263.478 876.24 267.852C853.908 272.545 831.182 276.094 808.16 278.484C783.872 281.253 759.463 283.153 735.234 286.357C711.965 289.166 689.677 295.237 669.114 304.366C651.67 312.723 636.063 323.696 622.857 336.886C615.304 345.211 608.85 354.369 603.606 364.199C594.103 383.776 588.229 404.974 586.206 426.998C584.33 444.022 582.659 460.824 580.518 477.634C577.205 502.118 569.484 525.492 557.659 546.835C547.812 563.981 537.963 581.127 528.645 598.7C519.977 614.424 513.549 631.277 509.502 648.889C505.881 666.853 503.624 685.158 502.743 703.68C502.158 719.169 499.603 734.343 495.131 748.899C492.564 756.691 488.558 763.894 483.275 770.215C476.925 777.893 467.898 783.286 457.447 785.646C443.643 788.266 428.656 785.596 415.773 778.223C405.88 772.419 396.655 765.611 388.298 757.946C381.819 751.862 375.681 745.482 369.914 738.837C364.972 733.683 359.826 728.751 355.089 723.376C350.351 718.002 345.349 712.414 340.143 707.047C336.319 703.184 332.231 699.106 328.408 695.243C322.672 689.448 317.202 683.867 311.262 678.293C308.821 675.934 306.644 673.789 304.203 671.43C295.438 662.413 286.469 653.618 277.703 644.601C268.699 635.24 260.956 624.956 254.678 614.015C244.638 595.674 238.567 576.046 236.835 556.332M830.177 1290.85C825.897 1290.48 821.412 1290.33 817.131 1289.96C805.961 1289.04 794.791 1288.12 783.825 1286.98C774.532 1286.23 765.412 1282.79 757.793 1277.14C752.633 1272.69 748.389 1267.42 745.313 1261.64C739.649 1251.27 735.129 1240.67 730.139 1230.07C715.378 1196.39 695.753 1164.28 671.836 1134.66C666.774 1128.63 661.712 1122.61 656.241 1117.03C649.123 1109.73 641.596 1102.88 634.274 1095.8C629.913 1091.24 625.084 1087.08 619.869 1083.38C611.26 1077.19 601.569 1071.68 592.756 1065.71C580.682 1058.04 567.958 1051.38 554.76 1045.81C546.716 1042.02 538.383 1039.53 530.135 1035.95C516.428 1030.28 502.781 1025.04 489.687 1018.71C481.114 1014.48 473.971 1008.71 472.12 998.713C470.946 992.123 472.483 985.642 476.425 980.563C482.461 971.537 491.587 966.168 500.449 960.585C517.968 949.64 535.872 939.778 553.656 929.047C570.403 919.31 586.08 908.211 600.526 895.864C607.247 890.096 613.909 883.893 620.366 877.911C624.923 873.484 629.949 869.049 634.182 863.973C645.668 850.496 655.609 835.899 663.87 820.377C670.363 807.858 675.858 794.919 680.884 781.986C690.588 756.999 696.156 730.986 703.924 705.592C710.85 682.608 718.978 659.824 726.842 636.826C736.534 608.353 744.554 579.687 746.888 550.673C748.378 533.158 748.836 515.477 748.259 497.707C747.754 487.256 747.25 476.805 747.214 466.348C746.883 452.267 748.771 438.442 752.818 425.3C757.422 411.524 766.842 399.938 779.728 392.205C792.711 384.316 807.38 378.779 823.051 375.853C848.999 369.79 875.283 367.861 901.183 364.849C916.682 363.087 932.301 362.193 947.86 360.865C964.826 359.515 981.996 357.945 999.226 356.809C1040.4 353.781 1081.68 348.136 1122.87 343.582C1146.63 340.537 1170.95 339.872 1195.43 341.598C1222.47 343.493 1249.47 349.407 1275.39 359.109C1285.86 362.819 1295.88 367.798 1305.16 373.904C1309.34 376.89 1314.12 379.213 1318.09 382.421C1335.24 396.381 1347.95 414.334 1354.58 433.934C1358.57 445.424 1361.06 457.167 1362 468.9C1363.01 482.526 1361.78 495.987 1358.36 508.828C1355.57 518.688 1350.87 527.829 1344.47 535.84C1332.3 551.497 1315.86 561.771 1298.63 571.405C1277.49 582.644 1255.6 592.797 1233.05 601.825C1220.64 607.244 1207.97 612.45 1195.36 618.09C1181.63 623.978 1168.94 631.491 1157.57 640.458C1144.84 650.968 1135.5 664.507 1130.35 679.877C1123.77 698.498 1121.19 717.275 1118.15 736.059C1114.42 760.083 1110.96 784.322 1107.96 808.552C1106.48 821.648 1105.94 834.729 1105.4 847.81C1104.38 874.482 1107.49 901.574 1114.65 928.285C1117.8 940.873 1122.29 953.006 1126.12 965.367C1126.33 966.681 1126.66 967.989 1127.13 969.273M1381.1 -118.571C1369.83 -113.387 1358.3 -108.417 1347.3 -103.019C1325.91 -93.3548 1305.2 -82.6379 1285.24 -70.9094C1270.76 -61.7541 1256.88 -51.7366 1243.52 -41.2913C1225.95 -27.2952 1208.65 -13.0854 1190.69 -0.172897C1172.13 13.4027 1151.35 22.8725 1128.35 24.7505C1113.07 26.2077 1097.16 23.4207 1082.6 16.7371C1068.57 10.416 1057.34 0.565676 1045.9 -9.06357C1039.95 -14.7241 1034.34 -20.677 1029.1 -26.8898C1024.69 -31.6155 1019.81 -36.334 1015.4 -41.0597C1010.98 -45.7854 1006.25 -51.1598 1001.83 -55.8855C999.936 -58.1235 997.913 -60.2751 995.775 -62.3293C987.165 -70.3146 978.116 -77.8868 968.673 -85.0089C952.15 -96.7431 932.865 -104.3 913.026 -106.815C891.475 -110.044 870.112 -107.049 851.944 -98.252C842.714 -94.0413 834.952 -87.7517 829.298 -79.9C823.643 -72.0483 820.257 -62.8588 819.419 -53.0873C817.807 -35.8499 822.316 -20.2316 828.376 -5.29073C834.798 11.2389 843.318 27.2054 853.745 42.254C861.729 54.115 870.122 65.5341 878.514 76.9531C886.258 87.0747 894.47 97.1893 902.417 107.09C911.219 118.067 920.02 129.043 928.617 140.241C937.122 150.919 943.4 162.823 947.085 175.255C950.725 188.158 949.108 201.317 942.551 212.147C936.856 221.319 928.839 228.962 919.092 234.513C901.302 245.134 881.409 252.799 860.199 257.204C829.946 264.423 799.766 267.064 769.442 270.362C743.249 272.728 717.521 276.983 692.488 283.091C668.768 289.005 647.044 299.254 628.52 313.268C600.688 334.978 581.989 364.987 575.06 399.062C571.139 418.295 568.686 437.942 565.969 457.376C562.963 483.156 555.522 507.897 543.915 530.704C536.664 544.542 527.947 557.967 519.698 571.384C514.191 580.838 508.155 589.863 502.912 599.53C496.056 612.289 490.359 625.635 485.873 639.446C480.772 657.081 476.908 675.113 474.306 693.44C473.026 704.543 470.339 715.331 466.297 725.592C461.788 735.466 455.162 743.629 442.742 745.563C435.299 746.931 427.26 745.658 420.16 741.987C409.908 737.361 400.705 730.714 393.275 722.572C390.003 719.157 386.496 715.934 382.779 712.929C376.839 707.355 371.572 701.553 365.632 695.979L358.31 688.901C352.37 683.328 345.962 677.761 340.227 671.966C334.816 666.82 330.079 661.445 324.668 656.299C320.051 651.795 314.964 647.297 310.552 642.572C304.756 636.342 298.901 629.678 293.514 623.006C282.594 609.172 274.136 593.973 268.505 578.07C263.913 563.964 260.599 549.655 258.598 535.299M1431.89 -77.5127C1424.46 -73.4768 1417.03 -69.4411 1409.54 -65.8401C1388.71 -55.5196 1369.07 -43.483 1350.83 -29.8603C1343.47 -24.3226 1336.7 -18.1692 1330.59 -11.4655C1320.22 0.241251 1311.12 12.5822 1306.8 27.2465C1300.79 44.0736 1302.58 63.1628 1311.79 80.333C1319.52 93.4187 1328.57 105.906 1338.8 117.612C1355.91 137.908 1369.15 160.526 1377.86 184.339C1382.8 198.09 1385.78 212.188 1386.71 226.254C1386.95 232.624 1386.4 238.919 1385.07 245.017C1384.12 249.912 1381.82 254.375 1378.38 258.003C1374.95 261.631 1370.48 264.31 1365.39 265.8C1356.28 268.68 1346.59 270.224 1336.65 270.38C1314.86 270.507 1292.83 268.138 1271.06 263.325C1252.64 259.25 1234.77 254.077 1216.15 250.223C1196.79 246.162 1177.23 242.323 1156.57 244.165C1137.26 246.205 1118.67 250.819 1101.37 257.866C1082.57 264.691 1064.11 272.165 1045.37 279.424C1022.48 288.045 998.682 294.895 974.189 299.908C958.666 303.196 942.614 306.057 926.971 308.476C907.167 311.394 887.364 314.313 867.44 316.362C844.967 318.667 822.699 320.752 800.37 322.401C777.534 323.949 755.129 327.429 733.432 332.798C716.54 336.94 700.952 343.972 687.428 353.549C676.163 361.727 667.05 372.09 660.626 384.027C652.854 398.959 648.434 415.443 647.604 432.596C646.389 445.906 646.785 458.973 646.304 472.489C646.212 494.129 643.811 515.473 639.137 536.22C635.555 550.275 630.68 563.905 624.563 576.97C616.446 594.743 607.597 612.309 599.949 630.075C591.861 649.116 586.678 669.342 584.533 690.229C582.32 711.615 580.577 732.994 577.895 754.388C575.571 773.715 569.261 792.064 559.293 808.49C555.454 814.714 551.177 820.673 546.487 826.335C540.546 834.086 533.234 840.812 524.808 846.277C517.376 851.441 509.444 856.007 501.084 859.931C488.59 865.478 474.927 868.929 460.671 870.138C441.103 872.165 420.707 869.164 401.67 861.456C393.012 858.151 384.797 853.724 377.297 848.322C370.083 843.323 363.146 837.973 356.52 832.3C348.199 824.801 340.552 817.075 333.11 809.127C324.873 800.538 317.046 791.508 308.605 783.14C302.605 777.131 296.401 771.343 289.992 765.777C276.646 754.216 263.095 742.876 249.34 731.757C234.058 719.79 218.102 708.052 202.82 696.085C192.927 687.826 184.133 678.509 176.668 668.379C169.056 658.596 162.99 647.963 158.68 636.845C154.004 625.079 151.062 612.953 149.939 600.81M1420.77 -86.4976C1399.5 -75.495 1378.44 -64.7132 1357.49 -53.062C1343.68 -45.3312 1330.93 -36.229 1319.42 -25.8965C1310.04 -17.2552 1301.99 -7.54518 1293.67 1.95138C1286.89 10.0741 1281.27 19.0088 1276.91 28.5726C1270.45 41.1527 1266.86 55.0442 1266.35 69.478C1266.09 83.1231 1271.17 96.9476 1280.67 108.477C1287.76 117.301 1295.94 125.455 1303.91 133.831C1315.56 146.725 1326.13 160.289 1332.43 176.969C1335.67 185.4 1336.72 194.203 1335.51 202.632C1333.27 217.047 1325.03 225.453 1309.84 229.39C1299.11 231.886 1287.63 231.988 1276.28 229.687C1257.3 226.71 1239.93 220.004 1222.29 213.085C1206.65 207.006 1191.47 200.92 1174.09 199.226C1159.29 198.093 1144.83 200.336 1131.99 205.755C1115.28 212.33 1100.72 222.575 1085.77 231.738C1069.74 241.57 1053.77 251.838 1037.04 259.938C1006.82 274.464 974.262 285.141 940.158 291.71C927.124 294.307 914.294 296.683 900.935 298.63C886.434 300.814 871.933 302.997 857.108 304.532C838.122 306.566 819.015 307.731 799.969 309.331C770.523 312.179 740.812 314.814 711.858 324.627C697.436 329.331 684.19 336.228 672.623 345.056C657.883 356.506 646.8 371.405 640.326 388.474C634.81 404.03 631.624 420.413 630.85 437.207C629.431 459.235 628.541 481.69 626.653 503.725C624.4 523.714 618.906 542.959 610.347 560.842C602.231 578.615 593.381 596.182 584.531 613.748C573.431 636.343 566.663 660.884 564.497 686.392C562.429 707.123 561.298 727.839 559.025 748.79C557.119 765.877 551.897 782.183 543.598 796.961C526.728 826.198 501.465 844.016 467.425 849.332C451.074 851.961 433.778 850.498 417.261 845.09C408.797 842.64 400.713 838.853 393.394 833.908C385.369 828.834 377.69 823.272 370.416 817.266C363.481 811.205 356.874 804.833 350.625 798.178C345.154 792.597 339.479 787.237 334.273 781.87C329.066 776.503 324.533 770.908 319.327 765.541C315.443 761.243 311.151 757.386 307.063 753.309C282.125 729.289 253.713 709.027 227.08 686.34C212.125 673.961 199.385 659.478 189.446 643.558C179.23 625.51 173.399 606 172.397 586.517M862.272 1256.15C859.647 1255.59 857.042 1254.91 854.469 1254.09C845.343 1250.96 835.952 1247.62 827.234 1244.05C815.741 1239.64 804.46 1234.64 793.447 1229.1C786.262 1225.21 779.54 1220.56 773.439 1215.24C764.273 1206.53 755.564 1197.43 747.348 1187.97C735.312 1174 723.685 1159.58 711.854 1145.38C702.848 1134.62 693.782 1123.43 684.776 1112.67C680.568 1107.73 675.687 1103.01 671.274 1098.28C665.214 1091.84 659.418 1085.61 653.154 1079.39C650.448 1076.81 647.948 1074.02 645.302 1071.88C631.487 1060.33 617.407 1048.56 603.592 1037.01C597.508 1032.09 590.342 1027.84 584.666 1022.48C577.404 1015.84 570.202 1009.63 565.248 1000.99C558.671 989.109 559.657 977.546 568.88 966.075C574.483 959.016 580.351 952.172 586.748 945.755C593.145 939.339 600.6 933.777 607.261 927.574C612.492 922.919 617.193 917.835 622.688 913.394C635.589 901.858 647.616 889.522 658.701 876.455C666.103 867.966 672.951 859.06 679.214 849.776C689.012 835.331 697.428 820.046 704.381 804.071C711.186 788.715 717.463 772.931 723.8 757.582C730.775 740.045 737.28 722.514 744.05 705.198C749.569 690.733 755.088 676.268 760.872 662.017C773.205 630.575 779.662 596.923 779.992 562.37C780.1 551.256 780.413 539.921 780.052 528.815C779.5 512.918 778.009 497.036 777.721 481.353C776.981 467.169 778.785 453.229 783.06 440.091C785.61 431.991 790.137 424.707 796.323 418.753C802.273 413.439 808.979 408.873 816.295 405.156C831.822 397.685 848.806 392.646 866.628 390.221C881.333 387.817 896.242 385.192 910.864 383.878C931.725 381.815 952.443 380.408 973.16 379C987.108 377.915 1000.85 377.05 1014.6 376.186C1035.31 374.778 1056.03 373.371 1076.95 371.743C1084.19 371.414 1091.31 370.216 1098.55 369.887C1129.66 367.23 1160.31 364.582 1190.81 367.6C1216.49 369.82 1241.45 375.32 1263.85 386.089C1271.16 389.68 1278.12 394.149 1285.03 398.183C1295.86 405.089 1304.9 414.251 1311.26 424.798C1317.21 434.535 1320.99 445.092 1322.36 455.785C1324.18 467.83 1323.19 479.807 1319.46 490.908C1314.65 505.09 1305.97 517.57 1294.17 527.246C1276.92 542.062 1256.55 553.592 1234.03 561.287C1207.56 570.408 1180.72 578.446 1154.13 586.698C1140.72 590.61 1128.06 596.072 1116.43 602.964C1109.69 607.129 1103.51 611.969 1097.99 617.409C1087.97 627.567 1081.53 640.411 1079.39 654.516C1077.57 667.866 1077.48 681.542 1079.15 695.264C1081.55 719.072 1082.56 742.84 1082.17 766.464C1081.78 787.387 1079.57 808.773 1078.7 829.703C1077.82 855.645 1078.09 881.351 1082.71 906.336C1085.6 922.747 1089.82 939.071 1095.34 955.166C1099.25 966.436 1103.83 977.477 1107.73 988.747C1108.01 989.902 1108.17 991.067 1108.22 992.226M1370.37 -126.459C1369.02 -126.002 1367.61 -125.981 1366.27 -125.524C1351.17 -119.192 1336.06 -112.859 1321.29 -105.878C1298.81 -95.0753 1276.34 -84.272 1255.81 -69.5769C1238.07 -56.8854 1220.38 -43.7594 1202.63 -31.0679C1186.38 -19.4886 1169.33 -8.55054 1149.94 -2.58827C1127.19 4.51507 1106.32 3.09227 1086.56 -5.53781C1072.33 -11.638 1061.1 -21.4886 1049.66 -31.1178C1042.57 -37.6966 1035.82 -44.5744 1029.43 -51.7237C1023.37 -58.1672 1017.98 -64.8392 1011.92 -71.2827C1007.24 -76.2222 1002.16 -80.7193 997.54 -85.224C991.66 -90.363 986.189 -95.9441 980.166 -100.427C965.918 -111.196 949.564 -119.135 932.31 -123.66C910.049 -129.319 887.225 -130.163 865.71 -126.124C849.588 -123.652 834.596 -118.002 821.713 -109.544C813.962 -104.471 807.663 -97.8109 803.233 -90.0049C798.803 -82.1988 796.343 -73.4255 796.018 -64.2664C795.258 -49.8118 797.618 -35.0437 802.967 -20.7966C809.413 -1.99848 818.328 16.2382 829.503 33.4845C842.969 54.4124 856.64 75.1195 871.189 95.3772C883.766 113.268 897.22 130.71 907.837 149.721C914.189 160.193 917.867 171.644 918.562 183.11C918.976 193.42 915.997 203.26 910.012 211.348C899.684 225.015 885.291 233.08 869.924 239.198C853.271 245.897 835.506 250.49 817.066 252.864C801.628 255.062 786.453 257.474 771.014 259.671C761.347 261.127 751.499 261.278 741.832 262.734C718.337 266.144 694.638 269.776 671.744 277.535C650.936 284.189 631.825 294.049 615.158 306.728C606.317 313.366 598.304 320.859 591.231 329.101C579.09 343.429 569.682 359.672 563.346 377.245C555.157 399.595 551.922 422.086 547.81 445.027C545.453 458.572 542.098 471.696 539.008 485.034C534.578 501.183 527.854 516.515 518.999 530.66C512.326 541.875 504.858 552.448 497.656 563.235C483.455 584.587 469.255 605.939 457.579 628.56C451.988 639.104 445.927 649.655 439.867 660.207C430.716 675.599 417.779 680.591 401.787 675.389C393.59 672.448 385.811 668.375 378.737 663.323C372.138 659.194 365.788 654.706 359.727 649.888C349.88 641.542 340.91 632.747 331.471 623.958C322.711 615.812 315.121 606.685 308.927 596.851C300.577 584.46 294.15 571.195 289.857 557.489M891.5 1224.54C891.166 1224.8 890.804 1225.02 890.418 1225.21C875.352 1216.51 859.24 1210.44 843.476 1203.49C830.707 1197.8 818.202 1192.33 806.046 1185.98C798.57 1181.88 791.407 1177.25 784.631 1172.15C779.657 1169.09 774.938 1165.66 770.528 1161.9C763.265 1155.26 756.471 1148.61 749.413 1141.75C745.325 1137.67 741.033 1133.81 737.149 1129.52C732.737 1124.79 728.324 1120.06 724.116 1115.12C718.849 1109.32 713.583 1103.51 708.521 1097.49C704.902 1093.41 701.487 1089.1 697.868 1085.02C692.601 1079.22 687.335 1073.41 682.273 1067.39C676.153 1060.51 670.237 1053.41 664.057 1046.1C657.877 1038.79 651.552 1032.13 645.841 1024.81C638.422 1015.34 631.677 1005.63 628.587 993.48C625.93 980.551 628.319 967.683 635.321 957.209C640.268 948.854 646.109 941.033 652.768 933.846C660.536 925.447 668.243 916.614 675.746 908.001C683.25 899.389 690.693 890.341 697.402 881.087C711.958 861.733 724.752 841.215 735.675 819.711C745.283 800.826 754.361 781.513 764.438 762.621C774.105 744.17 784.771 726.141 794.703 707.904C802.711 692.747 810.78 678.025 817.586 662.669C823.945 647.677 827.589 631.594 828.384 615.005C829.683 592.108 825.944 570.159 823.143 548.196C821.243 532.756 819.812 517.308 817.913 501.868C816.286 487.894 817.23 474.029 820.703 460.863C823.792 449.555 830.402 439.637 839.774 432.246C851.581 422.478 865.253 417.693 879.044 413.777C899.834 407.827 921.549 404.132 943.782 402.762C970.535 400.826 997.673 399.974 1024.28 398.694C1048.81 397.664 1072.87 396.641 1097.2 395.832C1119.5 394.616 1141.99 394.489 1164.58 395.452C1182.29 396.185 1200.07 399.364 1217.34 404.883C1229.62 408.898 1241.04 415.356 1250.73 423.763C1263.79 436.635 1270.85 451.996 1263.97 471.929C1261.54 478.53 1257.94 484.616 1253.3 489.959C1243.58 500.462 1231.61 508.994 1218.01 515.121C1197.76 525.019 1176.59 529.919 1155.53 535.689C1138.99 540.082 1122.44 544.476 1106.08 550.174C1087.99 556.407 1071.31 565.179 1056.58 576.208C1043.8 585.514 1033.67 597.486 1026.89 611.306C1020.92 623.975 1018.61 638.149 1020.14 652.59C1022.48 667.858 1026.39 683.048 1031.82 697.948C1038.78 719.411 1045.27 740.882 1046.58 763.958C1047.76 782.677 1048.26 801.625 1048.77 820.573C1049.1 833.205 1048.56 846.286 1048.9 858.918C1049.33 883.914 1053.2 909.111 1060.44 933.91C1065.15 949.307 1070.34 964.697 1075.72 979.867C1079.45 989.832 1084.06 999.348 1087.99 1009.09C1088.27 1010.25 1088.43 1011.41 1088.47 1012.57M1355.7 -139.099C1340.6 -132.766 1325.5 -126.434 1310.19 -119.88C1287.64 -110.725 1266.12 -99.8294 1245.85 -87.3002C1231.58 -78.3659 1217.9 -68.5693 1204.15 -59.2074C1188.04 -48.284 1171.66 -37.5745 1152.81 -31.1845C1135.3 -25.251 1118.01 -24.5503 1101.55 -29.7448C1090.05 -33.5145 1079.29 -39.4429 1070.01 -47.127C1060.01 -55.2689 1050.76 -64.1721 1042.37 -73.7205C1034.54 -82.7515 1026.72 -91.7822 1018.48 -100.371C1011.79 -107.385 1004.74 -114.113 997.365 -120.528C991.948 -125.487 986.202 -130.131 980.171 -134.427C969.863 -141.163 958.578 -146.367 946.793 -149.82C925.9 -155.204 904.537 -157.164 883.727 -155.607C860.831 -154.519 838.537 -150.586 817.439 -143.913C805.057 -140.095 793.778 -134.165 784.144 -126.408C773.941 -117.78 767.334 -106.09 765.266 -93.0006C762.512 -75.5278 766.203 -59.0254 770.772 -42.9722C776.193 -25.0756 783.735 -7.5768 793.256 9.19248C806.53 33.8273 821.764 57.3428 837.202 80.6372C847.014 95.5205 856.621 110.624 865.555 125.957C873.159 137.983 878.745 150.843 882.099 164.051C884.943 174.844 884.162 185.816 879.862 195.46C877.076 201.491 873.041 206.871 867.958 211.33C851.737 224.87 832.883 231.26 813.056 235.703C799.613 238.742 785.785 240.697 772.222 242.866C759.801 244.8 747.32 246.299 735.104 248.011C710.572 251.145 686.591 256.177 663.405 263.055C640.475 270.15 619.33 280.697 600.759 294.302C595 298.53 589.769 303.186 584.539 307.842C580.168 311.487 576.163 315.482 572.563 319.791C559.77 334.468 549.396 350.898 541.72 368.634C532.064 390.57 527.423 413.083 522.108 435.825C517.226 456.598 511.61 477.165 501.185 496.934C496.082 506.911 490.179 516.467 483.521 525.53C478.122 532.367 472.783 539.639 467.385 546.477C458.511 557.071 449.373 567.451 439.705 577.404C431.637 586.13 421.58 593.098 410.114 597.903C403.971 600.372 397.116 601.4 390.106 600.901C383.096 600.403 376.13 598.394 369.773 595.037C361.958 591.28 354.867 586.204 348.912 580.105C342.904 573.849 337.493 567.148 332.752 560.09C298.94 509.708 294.452 458.099 238.652 404.313C200.786 367.814 164.914 356.234 158.842 337.808M1412.58 -93.1248C1395.7 -84.3684 1378.75 -76.0468 1361.87 -67.2905C1344.15 -58.0246 1327.39 -47.4237 1311.74 -35.5824C1298.62 -25.6386 1286.79 -14.3594 1276.45 -1.92273C1269.62 6.46155 1263.53 15.0523 1257.23 23.8643C1241.74 46.1079 1230.98 70.2401 1217.49 93.3247C1209.57 107.888 1196.2 118.996 1179.55 124.845C1165.21 129.859 1150.66 135.094 1136.11 140.328C1119.81 146.312 1105.97 156.284 1095.93 169.269C1088.14 179.193 1081.94 190.4 1074.15 200.325C1066.78 209.293 1058.86 217.85 1050.43 225.963C1041.07 234.864 1030.58 242.695 1019.12 249.32C1008.35 255.962 996.881 261.678 984.831 266.406C963.506 274.763 941.217 281.302 918.218 285.948C909.079 287.831 899.942 289.714 890.743 291.162C877.853 293.103 864.759 295.265 851.749 296.336C830.888 298.399 809.701 299.814 788.839 301.877C762.002 304.903 734.84 307.281 708.05 315.753C690.66 320.851 674.816 328.999 661.324 339.783C646.45 351.798 635.146 367.098 628.27 384.52C622.339 401.494 618.885 419.338 617.988 437.623C616.822 456.379 616.124 475.127 614.224 493.677C612.244 513.805 606.926 533.204 598.448 551.221C589.369 570.534 578.824 589.434 569.481 608.533C557.763 631.938 550.723 657.467 548.666 684.022C547.09 703.219 546.248 722.624 544.204 741.829C542.786 759.206 537.657 775.787 529.101 790.648C512.051 818.58 487.425 834.21 454.455 835.37C436.765 836.042 418.672 831.433 402.825 822.217C392.774 816.845 383.415 810.319 375.001 802.817C367.474 795.96 360.561 788.44 353.443 781.141C346.854 774.27 340.325 767.834 333.736 760.963C328.529 755.596 323.467 749.573 318.261 744.205C313.445 739.139 308.381 734.272 303.087 729.622C289.212 717.634 275.601 705.859 261.725 693.871C255.316 688.304 248.968 683.172 242.764 677.385C236.235 670.948 229.91 664.291 223.321 657.42C215.959 649.66 209.713 641.101 204.769 631.994C196.062 616.15 190.985 599.136 189.884 582.11C189.079 569.485 188.682 556.418 188.814 543.779M56.5561 656.691C62.2467 673.801 69.9122 690.489 79.4132 706.453C86.3351 718.372 94.6768 729.653 104.266 740.061L104.287 740.082C110.869 746.946 117.451 753.81 124.238 760.454C129.119 765.172 134.674 769.662 140.025 774.374C153.311 785.5 167.067 796.618 180.149 807.965C186.293 813.318 191.619 819.555 197.823 825.343C205.055 832.546 211.161 840.609 215.931 849.25C224.6 864.369 226.945 881.327 221.702 899.492C218.007 910.428 212.805 920.752 206.214 930.233C194.875 948.491 184.27 966.956 178.858 987.302C174.197 1003.94 173.688 1021.72 177.367 1039.4C180.142 1052.06 183.998 1064.6 188.897 1076.91C194.512 1090.34 200.596 1103.75 206.476 1117.39L222.346 1155.71C225.1 1164.14 229.646 1172.15 235.705 1179.25C238.853 1182.22 242.732 1184.42 246.923 1185.62C256.334 1188.83 265.887 1191.52 275.528 1193.68C294.457 1197.72 312.975 1204.1 330.55 1212.66C340.385 1217.52 350.485 1222.6 359.912 1227.9C368.605 1232.99 376.889 1238.53 385.378 1243.85C395.659 1250.23 405.675 1256.39 415.751 1262.99C421.655 1266.61 427.209 1271.1 433.377 1274.92C440.068 1279.17 446.963 1283.2 453.858 1287.23L453.878 1287.25C459.253 1290.43 464.159 1293.62 469.738 1296.59C478.167 1301.77 486.831 1306.58 495.697 1311.01C509.26 1317.34 522.968 1323.01 537.084 1328.24C563.614 1337.55 591.319 1342.09 618.582 1341.59C634.321 1341.56 650.205 1340.88 665.945 1340.86C675.288 1340.25 718.163 1324.1 752.833 1322.85C811.2 1320.76 896.628 1359.92 896.628 1359.92M923.95 1188.97C921.844 1188.33 919.775 1187.56 917.757 1186.67C896.728 1173.92 873.077 1166 850.388 1156.54C838.207 1151.72 825.967 1146.46 814.136 1140.76C805.673 1136.24 797.515 1131.2 789.727 1125.66C783.422 1121.53 777.384 1117.04 771.655 1112.21C764.717 1106.22 758.393 1099.56 751.864 1093.13C738.517 1079.61 726.645 1064.96 716.454 1049.44C707.292 1035.85 698.743 1021.6 694.848 1005.32C691.309 989.691 693.08 973.971 699.911 960.361C705.577 949.2 712.193 938.539 719.703 928.465C731.282 911.946 742.861 895.427 753.383 878.053C764.661 859.36 774.209 840.04 784.958 820.92C794.435 802.491 805.159 784.72 817.075 767.7C823.027 759.765 828.511 751.837 834.727 744.115C840.535 736.836 846.283 729.122 852.884 722.484C862.219 712.477 872.206 703.014 882.8 694.137C890.786 687.089 900.185 681.492 910.588 677.587C915.391 675.956 920.638 675.342 925.97 675.787C931.303 676.231 936.596 677.724 941.489 680.163C951.06 684.81 958.179 692.109 965.561 699.621C976.331 711.078 985.301 723.8 992.157 737.343C1000.48 753.761 1005.74 771.087 1007.69 788.525C1009.53 803.53 1010.02 818.992 1010.99 834.447C1012.27 859.048 1012.88 883.877 1017.39 907.993C1020.4 924.355 1024.85 940.611 1030.69 956.594C1035.39 968.506 1039.42 980.645 1044.33 992.335C1050 1006.19 1056.14 1020.04 1062.08 1034.11C1062.62 1035.76 1062.94 1037.44 1063.01 1039.11M958.753 1151.84C958.285 1151.84 957.671 1152.51 957.406 1152.29C945.106 1146.6 933.01 1140.68 920.565 1135.65C900.197 1127.68 879.54 1121.02 858.967 1113.28C846.499 1108.69 834.298 1103.34 822.45 1097.28C811.715 1091.49 801.842 1084.29 793.184 1075.94C784.195 1067.44 776.53 1057.86 770.459 1047.53C763.19 1035.56 758.964 1022.48 758.135 1009.37C757.552 997.234 759.935 985.435 765.11 974.838C770.929 962.547 777.279 950.684 783.892 939.035C794.029 920.577 803.167 901.7 811.103 882.622C820.35 861.128 829.068 839.206 840.984 818.324C846.734 808.682 853.234 799.483 860.439 790.791C867.585 782.22 875.814 774.496 884.981 767.754C894.804 760.631 905.662 755.889 917.854 755.702C925.802 755.424 933.91 757.857 940.652 762.542C954.96 772.563 961.898 787.056 966.262 803.33C969.725 817.331 971.678 831.461 972.093 845.509C974.124 873.802 976.156 902.096 982.961 929.227C987.955 947.844 994.426 966.243 1002.32 984.272C1011.36 1005.49 1020.4 1026.7 1029.04 1048.35C1031.81 1054.85 1033.24 1061.8 1035.35 1068.52M40.075 645.622C45.0745 662.611 51.5532 679.346 59.4449 695.655C67.5623 712.772 77.9528 729.091 90.3576 744.205C98.1851 753.235 106.686 762.038 114.922 770.627C120.393 776.208 126.273 781.347 131.948 786.707C139.8 794.212 148.12 801.71 155.767 809.437C166.052 819.052 174.908 829.854 182.051 841.498C192.223 858.99 194.195 878.351 187.172 898.94C182.122 913.398 176.338 927.649 170.819 942.114C162.795 960.95 157.899 981.057 156.281 1001.82C155.43 1021.55 157.41 1041.59 162.172 1061.43C165.779 1079.02 170.324 1096.6 170.299 1115.12C170.5 1129.66 166.319 1143.52 158.215 1155.18C153.71 1161.3 148.506 1166.92 142.679 1171.97C136.426 1177.74 129.645 1183.07 122.863 1188.4M1.15156 629.229C5.68437 643.321 10.6862 657.407 16.0967 671.05C24.2394 693.133 34.6919 714.652 47.2977 735.283C53.892 746.306 61.7984 756.715 70.8525 766.296C78.8243 774.671 86.5312 782.833 94.7073 790.987C100.707 796.995 106.647 802.569 112.443 808.799C123.501 819.429 133.114 831.226 141.023 843.875C150.93 861.154 154.044 880.279 149.836 900.825C147.238 912.63 143.967 924.664 140.901 936.477C134.708 959.667 129.189 982.629 128.888 1005.95C128.809 1022.56 130.022 1039.29 132.519 1056C134.178 1069.71 135.837 1083.41 136.089 1097.13C136.608 1114.4 132.36 1131.03 123.739 1145.47C117.827 1155.22 110.725 1164.24 102.553 1172.38M1542.74 -4.9342C1532.49 21.1511 1524.9 47.8492 1523.26 75.1095C1522.67 89.9754 1523.01 104.956 1524.3 119.977C1525.38 136.302 1528.07 152.384 1526.4 169.186C1525.64 181.766 1520.79 193.44 1512.48 202.736C1505.47 210.391 1495.72 215.502 1484.65 217.325C1476.17 219.198 1466.89 218.021 1458.58 214.021C1450.5 209.894 1443.85 203.561 1439.65 196.009C1432.66 184.569 1426.08 172.686 1419.77 161.017C1410 142.686 1398.75 124.937 1386.12 107.935C1375.16 93.2867 1363.39 79.5231 1354.6 63.5347C1347.74 52.2183 1344.28 39.6991 1344.62 27.4049C1344.95 15.1106 1349.07 3.53576 1356.5 -5.99904C1359.89 -10.8258 1363.56 -15.4633 1367.51 -19.8942C1377.01 -30.4754 1388.25 -39.5965 1400.89 -46.9878C1417.59 -57.0487 1434.94 -65.8122 1451.96 -75.2244C1452.64 -75.4526 1453.57 -75.4673 1454.25 -75.6955M1347.91 -161.651C1342.73 -160.047 1337.75 -158.663 1332.63 -156.624C1312.34 -148.687 1291.79 -140.963 1271.63 -132.156C1253.69 -123.863 1236.56 -114.354 1220.34 -103.699C1204.99 -94.0941 1189.9 -84.2762 1173.84 -76.4039C1157.77 -68.5316 1140.43 -64.7795 1123.42 -68.8762C1115.26 -70.4625 1107.45 -73.8619 1100.67 -78.7672C1096.2 -81.5461 1091.99 -84.6924 1088.09 -88.1611C1080.97 -95.1013 1074.3 -102.424 1068.14 -110.079C1054.37 -127.802 1042.69 -146.704 1033.34 -166.412C1029.56 -173.512 1026.79 -180.945 1025.11 -188.51C1023.18 -197.413 1025.97 -204.428 1036.74 -208.08C1048.86 -212.188 1061.04 -215.861 1073.02 -219.313C1090.58 -223.801 1107.12 -230.58 1122.16 -239.458C1130.91 -244.575 1138.58 -251.015 1144.9 -258.544C1152.75 -267.763 1158.83 -278.222 1162.93 -289.543C1164.7 -295.453 1166.47 -301.363 1168.18 -307.707M1530.31 -14.9832C1523.61 6.25406 1516.45 27.4986 1510.01 48.9497C1505.61 64.8103 1502.6 81.1013 1501.01 97.6754C1500.1 108.148 1499.2 118.62 1498.04 128.878C1497.59 137.151 1495.42 145.096 1491.64 152.29C1487.09 160.203 1480.6 164.224 1469.6 161.125C1463.01 158.717 1457.13 154.637 1452.7 149.401C1443.35 139.522 1435.08 128.972 1426.34 118.43C1421.01 112.193 1415.62 105.522 1410.5 99.064C1402.29 88.9496 1393.87 79.056 1386.33 68.7133C1377.26 57.032 1371.59 43.6302 1369.93 29.9639C1368.82 17.3776 1371.98 5.21976 1378.99 -4.81792C1388.56 -18.511 1400.95 -30.216 1415.57 -39.3688C1430.66 -49.2043 1446.77 -57.7599 1463.72 -64.946C1464.72 -65.3183 1465.82 -65.4836 1466.94 -65.4313M1331.24 -175.118C1329.75 -175.001 1328.29 -174.759 1326.87 -174.397C1304.39 -167.08 1281.7 -159.542 1259.21 -152.225C1241.35 -145.767 1224.28 -137.851 1208.21 -128.564C1196.86 -122.29 1185.3 -115.794 1173.42 -109.946C1161.54 -104.099 1148.57 -101.068 1135.61 -103.048C1130.59 -103.66 1125.66 -105.219 1121.12 -107.625C1116.58 -110.032 1112.53 -113.233 1109.24 -117.024C1103.29 -123.228 1099.1 -130.616 1097.12 -138.408C1095.72 -143.641 1095.49 -148.965 1096.44 -154.043C1097.4 -159.121 1099.52 -163.842 1102.67 -167.907C1107.95 -175.614 1115.73 -180.526 1123.19 -186.088C1132.13 -192.762 1141.67 -198.573 1150.61 -205.247C1159.13 -211.782 1166.68 -219.281 1173.13 -227.598C1183.31 -241.51 1191.14 -256.884 1196.43 -273.275C1197.41 -276.34 1197.66 -279.613 1198.45 -282.457M961.594 -8.87355C965.069 -4.13346 968.544 0.606303 971.55 5.35358C975.126 10.467 977.149 16.2556 977.381 22.0412C977.516 25.1885 976.896 28.2475 975.565 31.0021C974.448 32.6499 972.799 33.9122 970.816 34.6381C968.833 35.364 966.599 35.5231 964.383 35.0958C960.584 34.6331 956.861 33.3448 953.525 31.3402C940.589 23.923 930.806 12.4073 926.303 -0.70627C924.601 -5.30021 924.513 -10.1151 926.051 -14.4289C926.994 -16.4471 928.548 -18.128 930.548 -19.2912C932.986 -20.6611 935.87 -21.3302 938.874 -21.2223C941.879 -21.1143 944.884 -20.2341 947.55 -18.6808C952.191 -15.7017 956.688 -12.0668 961.125 -8.86668M1492.65 -30.7424C1497.75 -22.759 1496.46 -13.3703 1494.71 -3.97442C1491.57 12.4344 1485.82 28.0786 1477.63 42.4787C1474.58 48.7083 1470.15 54.1814 1464.59 58.584C1460.92 61.6041 1456.17 63.3761 1451.03 63.6505C1445.88 63.9249 1440.59 62.6877 1435.9 60.1133C1425.01 53.6504 1416.89 43.7495 1413.29 32.5714C1411.06 26.2811 1410.43 19.758 1411.45 13.533C1412.47 7.30805 1415.11 1.55715 1419.15 -3.25103C1425.52 -12.2389 1433.93 -19.7604 1443.89 -25.3753C1453.84 -30.9903 1465.14 -34.5859 1477.13 -35.9515C1479.71 -36.4435 1482.46 -36.2346 1485.08 -35.3493C1487.7 -34.4639 1490.07 -32.938 1491.92 -30.9488M618.105 1135.27C620.077 1137.64 622.313 1140.22 624.285 1142.59C629.672 1149.26 636.141 1155.26 640.71 1162.82C646.621 1172.26 651.817 1182.01 656.256 1191.99C661.719 1204.79 663.984 1218.26 662.869 1231.33C661.975 1245.56 655.93 1258.6 645.674 1268.41C637.429 1276.39 627.068 1282.29 615.397 1285.65C596.862 1290.82 576.555 1290.98 556.72 1286.12C539.867 1282.11 523.556 1275.59 508.468 1266.81C499.511 1261.5 490.961 1255.75 482.412 1250C478.142 1247.33 474.047 1244.41 470.16 1241.26C462.633 1234.4 455.311 1227.32 447.988 1220.24C437.329 1209.63 428.385 1197.71 421.488 1184.92C414.149 1171.63 410.76 1157.12 411.701 1143.02C412.217 1135.81 414.394 1128.96 418.089 1122.9C421.784 1116.84 426.916 1111.7 433.153 1107.83C444.58 1100.54 457.691 1095.53 471.762 1093.07C493.292 1088.54 516.215 1088.71 538.796 1093.57C553.627 1096.64 568.046 1102.03 581.409 1109.47C595.092 1116.67 606.057 1126.31 617.696 1135.72M1110.51 456.423C1115.37 466.153 1111.2 471.664 1103.34 477.668C1089.31 488.341 1073.51 496.427 1058.3 505.376C1043.09 514.324 1028.81 523.259 1013.87 532.421C996.144 543.587 978.949 555.181 960.696 565.919C949.201 572.85 936.552 576.53 923.675 573.459C915.829 571.63 908.686 567.234 903.643 561.129C899.797 556.939 896.347 552.47 893.339 547.779C884.589 534.366 879.094 519.617 877.275 504.667C876.114 495.856 876.82 487.112 879.356 478.925C883.514 466.451 892.493 456.211 904.727 449.993C916.857 443.79 930.253 439.608 944.37 437.619C978.41 432.304 1011.54 433.975 1044.49 437.827C1061.7 439.474 1078.86 443.09 1095.56 448.591C1100.74 450.179 1105.6 452.785 1109.77 456.216M596.182 1149.99C598.947 1153 601.449 1155.79 604.214 1158.8C611.05 1165.92 616.612 1173.94 620.65 1182.52C626.005 1193.16 628.628 1204.55 628.297 1215.73C627.988 1226.38 624.115 1236.32 617.198 1244.23C610.644 1251.57 601.768 1256.84 591.575 1259.44C576.229 1263.26 559.416 1262.38 543.527 1256.91C532.081 1253.36 521.173 1248.08 511.291 1241.28C503.899 1236.14 496.785 1230.65 489.985 1224.83C478.661 1214.84 469.882 1202.71 464.422 1189.49C458.675 1176.67 458.365 1162.84 463.557 1150.94C467.686 1141.73 475.049 1134.29 484.588 1129.7C503.165 1120.29 525.832 1118.38 547.762 1124.37C558.529 1127.03 568.911 1131.37 578.435 1137.19C584.603 1141.02 589.953 1145.73 596.182 1149.99ZM580.871 1170.06C583.243 1172.9 585.454 1175.85 587.495 1178.89C593.962 1187.7 596.901 1198.06 595.744 1207.96C595.097 1214.18 592.422 1219.87 588.059 1224.32C583.696 1228.77 577.842 1231.78 571.238 1232.95C559.3 1235.3 546.323 1233.24 534.962 1227.19C528.841 1224.41 523.116 1220.82 517.985 1216.56C508.077 1207.78 499.864 1197.66 497.676 1183.53C496.881 1179.12 497.12 1174.7 498.376 1170.58C499.631 1166.46 501.874 1162.74 504.952 1159.67C509.092 1155.34 514.619 1152.31 520.895 1150.93C537.356 1147.63 552.518 1150.23 565.444 1158.75C570.614 1162.15 575.64 1166.21 580.871 1170.06Z" stroke="url(#paint0_linear_3881_2345)" stroke-opacity="0.3" stroke-linecap="round" stroke-linejoin="round"/>
<defs>
<linearGradient id="paint0_linear_3881_2345" x1="328.861" y1="260.795" x2="59.6297" y2="393.187" gradientUnits="userSpaceOnUse">
<stop stop-color="#DFE4E8"/>
<stop offset="1" stop-color="#DFE4E8" stop-opacity="0"/>
</linearGradient>
</defs>
</svg>
