<svg width="946" height="620" viewBox="0 0 946 620" fill="none" xmlns="http://www.w3.org/2000/svg">
<path d="M74.1338 650.279C79.4881 668.047 87.2513 685.358 97.2311 701.78C104.101 712.57 111.819 722.942 120.316 732.802C126.806 739.989 133.793 746.798 141.226 753.179C146.901 758.539 153.045 763.892 159.129 768.81C167.858 775.866 176.997 782.48 186.195 789.529C195.922 797.006 206.058 804.041 215.437 812.394C229.901 825.245 243.344 839.201 252.722 856.052C260.941 869.649 265.132 884.668 264.83 899.443C264.21 911.559 259.828 922.883 252.192 932.101C245.013 941.362 237.102 950.416 229.923 959.677C221.497 970.063 215.031 981.775 210.757 994.397C208.77 1000.47 207.437 1006.76 206.776 1013.2C205.349 1029.58 209.076 1046.52 217.525 1062.05C223.392 1073.73 231.335 1084.6 240.995 1094.16C246.044 1099.46 251.448 1104.47 257.167 1109.16C264.514 1114.71 272.209 1119.39 279.7 1124.29C286.661 1128.75 293.828 1133 300.645 1138.13C310.312 1145.17 320.04 1152.65 329.298 1160.13C333.952 1164.35 338.271 1168.88 342.212 1173.66C345.771 1177.31 349.595 1181.17 353.154 1184.82C357.302 1189.33 361.714 1194.06 366.067 1198.35L372.596 1204.78C376.359 1208.21 380.327 1211.42 383.886 1215.07C399.709 1230.95 417.841 1244.83 435.504 1258.73C443.447 1264.69 451.674 1270.31 460.153 1275.56C464.794 1278.54 469.231 1281.74 474.077 1284.5C480.51 1288.54 487.207 1292.79 494.048 1296.39C508.066 1303.89 522.706 1310.16 537.755 1315.11C558.922 1322.04 580.92 1325.11 602.444 1324.14C619.281 1323.27 635.484 1319.63 650.3 1313.39C661.71 1308.9 671.452 1301.8 678.689 1292.69C685.2 1284.6 689.115 1274.86 690.052 1264.41C692.145 1242.15 686.566 1222.19 678.029 1202.93C671.831 1188.89 664.05 1175.35 654.824 1162.54C647.968 1153.52 640.568 1144.83 632.664 1136.52C623.772 1126.38 613.658 1117.17 602.556 1109.09C596.366 1104.55 589.899 1100.35 583.198 1096.53C575.234 1091.82 567.027 1087.51 558.621 1083.62C539.072 1075.12 518.534 1069.33 497.744 1066.47C481.439 1064.11 464.991 1062.4 448.746 1060.47C436.313 1058.92 424.085 1057.14 413.456 1051.64C397.308 1043.61 387.797 1030.9 386.619 1012.18C386.103 1005.5 387.119 998.952 389.601 992.961C392.167 986.921 396.153 981.589 401.301 977.312C412.221 969.035 424.884 962.791 438.696 958.871C464.956 949.971 491.541 941.72 517.177 929.997C538.017 920.349 557.5 908.661 575.326 895.115C588.59 885.022 600.551 873.597 611.025 861.014C619.85 850.229 627.689 838.746 634.472 826.664C643.443 809.917 650.518 792.223 655.6 773.831C659.508 759.608 662.947 745.393 665.917 731.185C671.605 706.042 677.822 681.326 686.383 656.574C693.321 637.076 700.933 617.35 707.137 597.645C712.993 579.335 716.66 560.291 718.08 540.828C720.221 515.521 718.466 490.928 718.526 465.87C718.217 451.93 720.125 438.249 724.19 425.258C727.347 415.759 732.63 407.157 739.726 399.963C748.497 391.486 759.266 384.945 771.373 380.739C787.388 375.214 804.171 371.306 821.453 369.077C831.59 367.614 841.99 366.365 852.187 365.337C876.066 363.01 899.742 360.904 923.417 358.797C936.427 357.726 949.641 356.434 962.386 355.149C987.877 352.58 1013.37 350.009 1038.8 347.005C1068.59 343.279 1098.21 338.25 1127.8 334.745C1153.73 331.602 1180.41 331.853 1207.09 335.49C1230.79 338.776 1254.29 344.557 1277.14 352.717C1288.82 356.672 1300 362.075 1310.37 368.766C1316.53 372.528 1322.44 376.661 1328.06 381.132C1336.47 388.43 1343.73 396.773 1349.57 405.858C1364.22 428.511 1371.72 453.889 1374.98 480.856C1377.47 498.42 1376.63 515.909 1372.49 532.532C1369.3 544.316 1363.53 555.142 1355.51 564.385C1345.2 575.613 1332.77 585.003 1318.7 592.185C1301.41 601.383 1284.26 609.926 1266.65 618.476C1245.73 628.602 1224.28 638.299 1204.33 650.371C1194.61 656.183 1185.54 662.809 1177.23 670.178C1159.57 685.265 1148.76 703.951 1141.27 724.547C1132.54 748.857 1125.87 773.939 1121.34 799.586C1117.74 817.697 1115.5 836.148 1114.64 854.813C1113.34 879.421 1115.69 904.449 1121.63 929.22C1124.02 939.642 1127.54 949.829 1130.65 960.458C1131.02 961.98 1131.15 963.518 1131.05 965.027M138.253 648.426C143.952 661.848 151.819 674.593 161.567 686.198C168.504 694.743 176.454 702.595 185.241 709.584C188.416 712.15 190.712 715.165 194.091 717.51C203.025 724.345 212.163 730.959 221.565 737.787C228.852 742.904 236.403 748.236 243.485 753.574C254.21 761.471 264.731 769.589 275.312 778.142C282.25 784.136 288.574 790.794 295.103 797.23C300.574 802.811 306.249 808.171 311.455 813.538C316.133 818.478 320.605 823.638 325.018 828.364C328.577 832.013 331.727 836.105 335.491 839.533C342.995 847.012 350.959 854.095 359.334 860.737C384.548 879.96 414.391 890.179 449.177 888.556C470.677 887.565 491.308 882.736 509.946 874.332C523.06 868.646 534.924 861.043 545.129 851.787C550.624 847.258 555.757 842.376 560.496 837.171C571.422 824.432 580.045 810.055 586.083 794.509C595.703 770.613 598.638 745.946 601.572 721.281C604.506 696.615 606.851 671.087 615.941 646.763C619.861 636.027 624.455 625.062 629.108 614.532C638.067 594.35 647.554 574.595 653.843 553.8C658.607 538.601 661.462 522.774 662.356 506.607C663.09 489.819 662.826 472.61 663.56 455.822C664.149 439.689 664.534 423.778 669.549 407.36C673.212 394.769 679.691 383.272 688.6 373.553C697.51 363.834 708.668 356.091 721.409 350.787C732.218 346.359 743.521 342.833 755.196 340.246C765.967 337.616 777.008 335.699 788.239 334.51C803.738 332.747 818.888 331.861 834.447 330.533C840.014 330.012 845.377 329.711 850.679 328.976C883.553 325.422 916.487 322.302 949.24 317.878C975.87 314.51 1002.02 309.45 1027.5 302.732C1056.49 294.88 1085.42 286.593 1114.21 278.961C1140.91 271.829 1169.57 270.127 1198.34 273.966C1220.39 277.114 1242.22 282.008 1263.57 286.909C1288.8 292.623 1313.76 298.123 1338.58 304.279C1348.65 306.671 1358.43 310.414 1367.6 315.381C1381.18 322.806 1391.98 334.138 1398.11 347.378C1406.91 365.571 1413.53 384.402 1417.85 403.506C1424.65 430.637 1431.46 457.768 1437.59 485.127C1441.34 502.064 1444.42 519.229 1446.83 536.623C1449.04 552.069 1447.89 567.425 1443.43 581.777C1440.73 590.192 1436.49 597.985 1430.88 604.847C1419.87 618.179 1405.42 628.683 1388.6 635.563C1366.48 645.489 1344.29 654.981 1321.91 664.693C1299.99 674.392 1279.5 686.318 1260.8 700.274C1247.59 710.564 1235.82 722.288 1225.69 735.237C1213.51 750.473 1204 767.496 1197.43 785.784C1190.99 802.482 1186.48 819.924 1183.95 837.846C1181.02 859.242 1181.21 881.215 1184.53 903.202C1184.63 904.825 1184.53 906.434 1184.25 908M93.335 634.509C98.0322 655.5 107.16 675.878 120.184 694.45C126.544 703.068 132.905 711.686 139.674 719.861C144.412 725.236 149.966 729.726 155.113 734.659C159.141 738.301 163.229 742.378 167.461 745.799C173.545 750.717 179.834 755.414 186.327 759.89C192.88 764.8 199.902 769.704 206.863 774.172C220.389 783.113 233.286 792.892 245.448 803.43C252.121 809.211 258.181 815.654 264.445 821.877C279.68 836.895 291.523 854.58 303.979 871.601C310.135 880.44 316.496 889.057 323.53 897.447C334.508 911.052 350.332 920.799 367.706 924.658C385.184 928.128 402.834 929.397 420.154 928.429C444.525 927.551 468.247 923.445 490.603 916.236C517.864 908.258 542.638 895.381 563.601 878.294C569.505 873.41 575.409 868.526 580.989 862.993C586.764 857.499 592.155 851.669 597.137 845.533C603.509 836.66 609.29 827.405 614.452 817.814C624.506 798.715 631.544 778.159 635.375 756.705L646.774 696.394C651.01 675.26 657.204 654.686 665.292 634.885C672.411 616.692 679.938 598.057 686.119 579.878C692.656 560.679 696.263 540.474 696.845 519.796C697.194 501.924 697.074 484.059 697.219 466.409C696.958 452.995 697.951 439.713 700.19 426.709C703.079 411.592 710.338 397.883 721.244 386.95C726.94 381.373 733.684 376.782 741.216 373.352C756.954 365.48 774.371 360.347 792.691 358.182C806.05 356.234 819.144 354.072 832.359 352.78C853.894 350.489 875.549 349.067 897.144 347.211C903.18 346.683 909.685 346.147 915.925 345.398C926.122 344.37 936.318 343.342 946.25 342.1C961.075 340.565 976.166 339.244 991.136 337.054C1013.02 333.885 1035.05 330.061 1056.87 326.458C1073.39 323.59 1089.85 320.288 1106.43 317.855C1120 315.686 1133.56 313.516 1147.24 312.217C1166.62 310.479 1186.44 311.053 1206.22 313.927C1219.65 315.899 1232.88 318.093 1246.22 321.157C1270.81 326.224 1294.94 334.052 1318.06 344.457C1331.14 350.611 1343.17 358.766 1353.57 368.533C1364.28 379.176 1372.71 391.509 1378.32 404.758C1386.49 422.829 1392.68 441.426 1396.8 460.252C1400.27 476.294 1402.81 492.402 1404.41 508.505C1405.71 522.099 1405.05 535.591 1402.44 548.626C1399.94 561.033 1394.08 572.345 1385.37 581.569C1374.14 593.621 1360.37 603.431 1344.73 610.517C1329.14 618.382 1313.22 625.599 1297.56 633.029C1278.14 641.826 1259.43 651.716 1241.51 662.65C1229.46 670.025 1218.2 678.359 1207.83 687.569C1198.63 696.097 1190.33 705.407 1183.01 715.403C1168.83 735.23 1160.32 756.93 1153.27 779.045C1145.65 802.755 1140.94 827.446 1139.25 852.686C1137.69 874.95 1139.4 897.639 1144.35 920.151C1145.78 927.102 1147.68 934.044 1149.37 941.209C1149.46 942.235 1149.44 943.256 1149.32 944.26M116.025 635.476C124.682 665.034 142.199 692.603 166.476 714.883C175.53 722.588 184.115 730.3 193.578 737.562C200.455 743.122 207.682 747.804 214.968 752.922C221.726 757.611 228.423 761.866 234.771 766.998C246.29 775.537 257.605 784.296 268.45 793.063C274.507 798.415 280.233 804.076 285.596 810.012C291.86 816.235 297.92 822.679 303.98 829.122C308.982 834.71 314.044 840.733 319.251 846.1C324.457 851.468 329.254 857.277 334.665 862.423C340.869 868.211 347.542 873.991 354.156 879.337C366.889 889.129 381.745 896.091 397.37 899.59C419.049 905.141 442.087 905.223 465.113 901.819C487.917 898.336 509.354 890.916 528.347 879.933C539.473 873.508 549.853 866.131 559.369 857.886C577.967 841.17 592.174 820.704 601.106 797.764C610.172 774.966 613.816 752.032 617.195 728.885C619.888 710.977 622.582 693.069 626.01 675.368C630.011 657.556 635.889 640.322 643.566 623.897C651.766 605.033 660.496 586.597 666.496 567.114C672.367 549.021 675.746 530.095 676.561 510.746C676.982 496.795 676.934 482.851 677.091 468.687C677.416 452.341 677.272 436.002 680.615 419.391C683.001 407.008 688.194 395.493 695.873 385.556C703.552 375.62 713.554 367.474 725.261 361.621C740.121 354.444 756.287 349.425 773.249 346.723C783.385 345.26 793.401 342.928 803.598 341.9C824.195 339.623 844.912 338.216 865.364 336.595L883.004 335.017C914.471 331.484 945.529 328.393 976.875 323.99C1008.99 319.372 1040.59 313.068 1071.54 305.107C1097.22 298.83 1122.7 292.774 1148.66 290.197C1166.54 288.486 1184.82 288.864 1203.1 291.323C1214.59 292.89 1225.94 295.113 1237.29 297.335C1262.6 302.386 1287.72 308.767 1312.54 316.444C1324.94 320.156 1337.03 325.009 1348.61 330.924C1357.44 335.875 1365.45 342.089 1372.3 349.299C1389.83 367.332 1398.17 390.299 1405.17 413.723C1410.65 431.287 1415.2 448.866 1419.07 466.673C1423.18 486.219 1427.09 505.987 1429.38 525.996C1431.42 540.511 1430.47 554.944 1426.57 568.526C1424.3 576.513 1420.66 583.991 1415.77 590.698C1405.97 604.793 1391.76 614.162 1376.37 621.806C1355.65 631.711 1334.61 640.966 1313.83 650.436C1293.22 659.607 1273.66 670.401 1255.32 682.709C1245.09 690.012 1235.44 697.946 1226.41 706.466C1210.35 721.991 1197.38 740.063 1188 760C1174.89 787.137 1166.9 816.542 1164.32 847.08C1162.16 870.871 1163.62 895.19 1168.67 919.35C1168.79 920.22 1168.5 921.532 1168.62 922.401M1402.38 -101.084C1397.72 -99.0514 1392.8 -97.2329 1388.15 -95.2006C1375.6 -89.1252 1363.31 -82.8358 1350.76 -76.7604C1331.8 -67.6348 1314.03 -56.7847 1297.67 -44.3532C1288.32 -37.2374 1279.49 -29.6943 1270.93 -21.9371C1249.54 -3.30692 1232.17 18.9657 1212.17 39.0999C1190.93 60.5602 1166.51 75.9685 1136.81 82.089C1119 85.8483 1101.04 86.7779 1084.03 82.6813C1076.19 81.1165 1068.63 78.0357 1061.87 73.652C1055.62 69.4414 1049.65 64.8745 1044 59.9821C1037.74 54.0575 1032.05 47.6504 1027.02 40.8508C1013.83 23.6226 1001.05 5.95228 987.86 -11.2759C981.738 -18.3633 975.226 -25.1736 968.357 -31.6754C965.557 -34.899 962.39 -37.8488 958.918 -40.4638C945.933 -49.4156 932.333 -57.7043 915.211 -59.1847C906.659 -59.9534 898.266 -58.7769 890.779 -55.7595C885.754 -53.642 881.432 -50.4642 878.126 -46.4568C874.819 -42.4493 872.611 -37.7125 871.66 -32.5886C869.372 -21.9146 870.539 -10.5177 875.026 0.259967C881.357 17.3079 891.085 33.4332 903.678 47.7544C910.779 56.2136 918.487 64.251 926.74 71.8032C938.295 82.3021 950.463 92.1381 962.631 101.974C969.244 107.32 976.675 111.781 983.492 116.906C988.998 120.584 994.323 124.503 999.448 128.644C1012.59 140.426 1023.16 153.991 1025.48 172.475C1027.7 188.564 1023.45 203.663 1012.5 217.994C1001.14 232.045 986.487 243.467 969.446 251.554C946.42 263.455 921.999 270.366 896.929 275.98C870.512 282.05 843.614 284.642 817.041 287.882C793.222 290.644 769.691 292.094 745.932 295.291C722.765 297.946 700.533 303.793 679.956 312.644C665.575 319.074 652.572 327.573 641.382 337.857C623.851 353.813 614.099 373.354 608.34 394.577C603.157 413.176 601.99 431.933 600.619 450.909C599.031 475.118 597.035 499.769 588.822 523.644C583.644 538.212 577.266 552.292 569.739 565.771C560.012 583.786 549.082 601.602 541.35 620.458C534.177 637.993 529.715 656.602 528.087 675.786C526.571 695.419 525.525 715.044 523.541 734.684C522.339 748.428 518.692 761.654 512.742 773.851C503.748 792.073 489.343 805.148 468.758 810.911C456.585 814.609 443.035 814.589 429.98 810.853C418.71 807.897 408.032 802.699 398.742 795.645C395.039 792.651 390.722 790.32 387.488 787.32C380.755 781.104 374.226 774.668 367.697 768.232C361.168 761.795 354.844 755.138 348.519 748.481C343.842 743.541 339.573 738.16 335.161 733.434C331.541 729.35 327.249 725.494 323.426 721.631C318.484 716.477 313.278 711.11 308.131 706.178C304.897 703.177 301.927 700.39 298.692 697.39C293.342 692.678 288.051 688.402 282.905 683.47C275.643 676.827 268.585 669.962 261.732 662.877C253.924 655.162 246.602 647.051 239.812 638.593C234.154 631.174 229.358 623.281 225.516 615.064C217.876 598.217 213.676 580.53 213.144 562.962M1391.68 -110.518C1380.88 -105.341 1369.82 -100.378 1359.02 -95.2009C1332.3 -82.8076 1305.97 -69.331 1282.12 -51.5345C1272.09 -44.1905 1262.38 -36.1975 1252.68 -28.2049C1244.47 -21.3245 1236.78 -14.0165 1228.84 -6.92241C1212.74 7.4869 1196.64 21.8959 1177.77 33.2972C1157.35 45.3761 1135.69 51.8091 1112.79 51.0709C1098.62 50.5628 1084.44 46.5675 1071.72 39.4998C1061.53 33.5138 1052.1 26.4067 1043.65 18.3599C1035.83 10.8567 1028.46 2.96553 1021.59 -5.26857L1004.02 -25.2621C999.816 -30.2088 995.607 -35.1552 991.194 -39.8808C989.547 -41.5986 987.635 -43.5304 985.988 -45.2482C978.529 -52.3067 970.624 -58.9543 962.325 -65.148C949.731 -74.5393 935.079 -81.0644 919.761 -84.1043C901.664 -87.5307 883.376 -87.2502 865.532 -76.9539C858.56 -73.0548 852.856 -67.6076 848.87 -61.0425C844.884 -54.4774 842.726 -46.9741 842.566 -39.1257C841.832 -22.3376 846.954 -7.38251 853.423 7.11631C859.642 20.8576 867.382 34.1059 876.508 46.6343C884.901 58.0533 894.171 69.023 903.177 79.7789C908.564 86.4506 914.359 92.6806 920.154 98.9102C924.567 103.636 929.329 107.484 933.741 112.21C939.477 118.005 945.272 124.235 950.803 130.251C956.923 137.129 963.308 144.221 969.019 151.541C976.941 161.443 981.725 172.973 982.762 184.666C983.698 196.606 980.516 208.094 973.671 217.488C964.424 230.485 951.498 238.963 937.719 246.364C918.618 255.922 897.949 262.978 876.24 267.352C853.908 272.045 831.182 275.594 808.16 277.984C783.872 280.753 759.463 282.653 735.234 285.857C711.965 288.666 689.677 294.737 669.114 303.866C651.67 312.223 636.063 323.196 622.857 336.386C615.304 344.711 608.85 353.869 603.606 363.699C594.103 383.276 588.229 404.474 586.206 426.498C584.33 443.522 582.659 460.324 580.518 477.134C577.205 501.618 569.484 524.992 557.659 546.335C547.812 563.481 537.963 580.627 528.645 598.2C519.977 613.924 513.549 630.777 509.502 648.389C505.881 666.353 503.624 684.658 502.743 703.18C502.158 718.669 499.603 733.843 495.131 748.399C492.564 756.191 488.558 763.394 483.275 769.715C476.925 777.393 467.898 782.786 457.447 785.146C443.643 787.766 428.656 785.096 415.773 777.723C405.88 771.919 396.655 765.111 388.298 757.446C381.819 751.362 375.681 744.982 369.914 738.337C364.972 733.183 359.826 728.251 355.089 722.876C350.351 717.502 345.349 711.914 340.143 706.547C336.319 702.684 332.231 698.606 328.408 694.743C322.672 688.948 317.202 683.367 311.262 677.793C308.821 675.434 306.644 673.289 304.203 670.93C295.438 661.913 286.469 653.118 277.703 644.101C268.699 634.74 260.956 624.456 254.678 613.515C244.638 595.174 238.567 575.546 236.835 555.832M830.177 1290.35C825.897 1289.98 821.412 1289.83 817.131 1289.46C805.961 1288.54 794.791 1287.62 783.825 1286.48C774.532 1285.73 765.412 1282.29 757.793 1276.64C752.633 1272.19 748.389 1266.92 745.313 1261.14C739.649 1250.77 735.129 1240.17 730.139 1229.57C715.378 1195.89 695.753 1163.78 671.836 1134.16C666.774 1128.13 661.712 1122.11 656.241 1116.53C649.123 1109.23 641.596 1102.38 634.274 1095.3C629.913 1090.74 625.084 1086.58 619.869 1082.88C611.26 1076.69 601.569 1071.18 592.756 1065.21C580.682 1057.54 567.958 1050.88 554.76 1045.31C546.716 1041.52 538.383 1039.03 530.135 1035.45C516.428 1029.78 502.781 1024.54 489.687 1018.21C481.114 1013.98 473.971 1008.21 472.12 998.213C470.946 991.623 472.483 985.142 476.425 980.063C482.461 971.037 491.587 965.668 500.449 960.085C517.968 949.14 535.872 939.278 553.656 928.547C570.403 918.81 586.08 907.711 600.526 895.364C607.247 889.596 613.909 883.393 620.366 877.411C624.923 872.984 629.949 868.549 634.182 863.473C645.668 849.996 655.609 835.399 663.87 819.877C670.363 807.358 675.858 794.419 680.884 781.486C690.588 756.499 696.156 730.486 703.924 705.092C710.85 682.108 718.978 659.324 726.842 636.326C736.534 607.853 744.554 579.187 746.888 550.173C748.378 532.658 748.836 514.977 748.259 497.207C747.754 486.756 747.25 476.305 747.214 465.848C746.883 451.767 748.771 437.942 752.818 424.8C757.422 411.024 766.842 399.438 779.728 391.705C792.711 383.816 807.38 378.279 823.051 375.353C848.999 369.29 875.283 367.361 901.183 364.349C916.682 362.587 932.301 361.693 947.86 360.365C964.826 359.015 981.996 357.445 999.226 356.309C1040.4 353.281 1081.68 347.636 1122.87 343.082C1146.63 340.037 1170.95 339.372 1195.43 341.098C1222.47 342.993 1249.47 348.907 1275.39 358.609C1285.86 362.319 1295.88 367.298 1305.16 373.404C1309.34 376.39 1314.12 378.713 1318.09 381.921C1335.24 395.881 1347.95 413.834 1354.58 433.434C1358.57 444.924 1361.06 456.667 1362 468.4C1363.01 482.026 1361.78 495.487 1358.36 508.328C1355.57 518.188 1350.87 527.329 1344.47 535.34C1332.3 550.997 1315.86 561.271 1298.63 570.905C1277.49 582.144 1255.6 592.297 1233.05 601.325C1220.64 606.744 1207.97 611.95 1195.36 617.59C1181.63 623.478 1168.94 630.991 1157.57 639.958C1144.84 650.468 1135.5 664.007 1130.35 679.377C1123.77 697.998 1121.19 716.775 1118.15 735.559C1114.42 759.583 1110.96 783.822 1107.96 808.052C1106.48 821.148 1105.94 834.229 1105.4 847.31C1104.38 873.982 1107.49 901.074 1114.65 927.785C1117.8 940.373 1122.29 952.506 1126.12 964.867C1126.33 966.181 1126.66 967.489 1127.13 968.773M1381.1 -119.071C1369.83 -113.887 1358.3 -108.917 1347.3 -103.519C1325.91 -93.8548 1305.2 -83.1379 1285.24 -71.4094C1270.76 -62.2541 1256.88 -52.2366 1243.52 -41.7913C1225.95 -27.7952 1208.65 -13.5854 1190.69 -0.672897C1172.13 12.9027 1151.35 22.3725 1128.35 24.2505C1113.07 25.7077 1097.16 22.9207 1082.6 16.2371C1068.57 9.91596 1057.34 0.0656756 1045.9 -9.56357C1039.95 -15.2241 1034.34 -21.177 1029.1 -27.3898C1024.69 -32.1155 1019.81 -36.834 1015.4 -41.5597C1010.98 -46.2854 1006.25 -51.6598 1001.83 -56.3855C999.936 -58.6235 997.913 -60.7751 995.775 -62.8293C987.165 -70.8146 978.116 -78.3868 968.673 -85.5089C952.15 -97.2431 932.865 -104.8 913.026 -107.315C891.475 -110.544 870.112 -107.549 851.944 -98.752C842.714 -94.5413 834.952 -88.2517 829.298 -80.4C823.643 -72.5483 820.257 -63.3588 819.419 -53.5873C817.807 -36.3499 822.316 -20.7316 828.376 -5.79073C834.798 10.7389 843.318 26.7054 853.745 41.754C861.729 53.615 870.122 65.0341 878.514 76.4531C886.258 86.5747 894.47 96.6893 902.417 106.59C911.219 117.567 920.02 128.543 928.617 139.741C937.122 150.419 943.4 162.323 947.085 174.755C950.725 187.658 949.108 200.817 942.551 211.647C936.856 220.819 928.839 228.462 919.092 234.013C901.302 244.634 881.409 252.299 860.199 256.704C829.946 263.923 799.766 266.564 769.442 269.862C743.249 272.228 717.521 276.483 692.488 282.591C668.768 288.505 647.044 298.754 628.52 312.768C600.688 334.478 581.989 364.487 575.06 398.562C571.139 417.795 568.686 437.442 565.969 456.876C562.963 482.656 555.522 507.397 543.915 530.204C536.664 544.042 527.947 557.467 519.698 570.884C514.191 580.338 508.155 589.363 502.912 599.03C496.056 611.789 490.359 625.135 485.873 638.946C480.772 656.581 476.908 674.613 474.306 692.94C473.026 704.043 470.339 714.831 466.297 725.092C461.788 734.966 455.162 743.129 442.742 745.063C435.299 746.431 427.26 745.158 420.16 741.487C409.908 736.861 400.705 730.214 393.275 722.072C390.003 718.657 386.496 715.434 382.779 712.429C376.839 706.855 371.572 701.053 365.632 695.479L358.31 688.401C352.37 682.828 345.962 677.261 340.227 671.466C334.816 666.32 330.079 660.945 324.668 655.799C320.051 651.295 314.964 646.797 310.552 642.072C304.756 635.842 298.901 629.178 293.514 622.506C282.594 608.672 274.136 593.473 268.505 577.57C263.913 563.464 260.599 549.155 258.598 534.799M1431.89 -78.0127C1424.46 -73.9768 1417.03 -69.9411 1409.54 -66.3401C1388.71 -56.0196 1369.07 -43.983 1350.83 -30.3603C1343.47 -24.8226 1336.7 -18.6692 1330.59 -11.9655C1320.22 -0.258749 1311.12 12.0822 1306.8 26.7465C1300.79 43.5736 1302.58 62.6628 1311.79 79.833C1319.52 92.9187 1328.57 105.406 1338.8 117.112C1355.91 137.408 1369.15 160.026 1377.86 183.839C1382.8 197.59 1385.78 211.688 1386.71 225.754C1386.95 232.124 1386.4 238.419 1385.07 244.517C1384.12 249.412 1381.82 253.875 1378.38 257.503C1374.95 261.131 1370.48 263.81 1365.39 265.3C1356.28 268.18 1346.59 269.724 1336.65 269.88C1314.86 270.007 1292.83 267.638 1271.06 262.825C1252.64 258.75 1234.77 253.577 1216.15 249.723C1196.79 245.662 1177.23 241.823 1156.57 243.665C1137.26 245.705 1118.67 250.319 1101.37 257.366C1082.57 264.191 1064.11 271.665 1045.37 278.924C1022.48 287.545 998.682 294.395 974.189 299.408C958.666 302.696 942.614 305.557 926.971 307.976C907.167 310.894 887.364 313.813 867.44 315.862C844.967 318.167 822.699 320.252 800.37 321.901C777.534 323.449 755.129 326.929 733.432 332.298C716.54 336.44 700.952 343.472 687.428 353.049C676.163 361.227 667.05 371.59 660.626 383.527C652.854 398.459 648.434 414.943 647.604 432.096C646.389 445.406 646.785 458.473 646.304 471.989C646.212 493.629 643.811 514.973 639.137 535.72C635.555 549.775 630.68 563.405 624.563 576.47C616.446 594.243 607.597 611.809 599.949 629.575C591.861 648.616 586.678 668.842 584.533 689.729C582.32 711.115 580.577 732.494 577.895 753.888C575.571 773.215 569.261 791.564 559.293 807.99C555.454 814.214 551.177 820.173 546.487 825.835C540.546 833.586 533.234 840.312 524.808 845.777C517.376 850.941 509.444 855.507 501.084 859.431C488.59 864.978 474.927 868.429 460.671 869.638C441.103 871.665 420.707 868.664 401.67 860.956C393.012 857.651 384.797 853.224 377.297 847.822C370.083 842.823 363.146 837.473 356.52 831.8C348.199 824.301 340.552 816.575 333.11 808.627C324.873 800.038 317.046 791.008 308.605 782.64C302.605 776.631 296.401 770.843 289.992 765.277C276.646 753.716 263.095 742.376 249.34 731.257C234.058 719.29 218.102 707.552 202.82 695.585C192.927 687.326 184.133 678.009 176.668 667.879C169.056 658.096 162.99 647.463 158.68 636.345C154.004 624.579 151.062 612.453 149.939 600.31M1420.77 -86.9976C1399.5 -75.995 1378.44 -65.2132 1357.49 -53.562C1343.68 -45.8312 1330.93 -36.729 1319.42 -26.3965C1310.04 -17.7552 1301.99 -8.04518 1293.67 1.45138C1286.89 9.57409 1281.27 18.5088 1276.91 28.0726C1270.45 40.6527 1266.86 54.5442 1266.35 68.978C1266.09 82.6231 1271.17 96.4476 1280.67 107.977C1287.76 116.801 1295.94 124.955 1303.91 133.331C1315.56 146.225 1326.13 159.789 1332.43 176.469C1335.67 184.9 1336.72 193.703 1335.51 202.132C1333.27 216.547 1325.03 224.953 1309.84 228.89C1299.11 231.386 1287.63 231.488 1276.28 229.187C1257.3 226.21 1239.93 219.504 1222.29 212.585C1206.65 206.506 1191.47 200.42 1174.09 198.726C1159.29 197.593 1144.83 199.836 1131.99 205.255C1115.28 211.83 1100.72 222.075 1085.77 231.238C1069.74 241.07 1053.77 251.338 1037.04 259.438C1006.82 273.964 974.262 284.641 940.158 291.21C927.124 293.807 914.294 296.183 900.935 298.13C886.434 300.314 871.933 302.497 857.108 304.032C838.122 306.066 819.015 307.231 799.969 308.831C770.523 311.679 740.812 314.314 711.858 324.127C697.436 328.831 684.19 335.728 672.623 344.556C657.883 356.006 646.8 370.905 640.326 387.974C634.81 403.53 631.624 419.913 630.85 436.707C629.431 458.735 628.541 481.19 626.653 503.225C624.4 523.214 618.906 542.459 610.347 560.342C602.231 578.115 593.381 595.682 584.531 613.248C573.431 635.843 566.663 660.384 564.497 685.892C562.429 706.623 561.298 727.339 559.025 748.29C557.119 765.377 551.897 781.683 543.598 796.461C526.728 825.698 501.465 843.516 467.425 848.832C451.074 851.461 433.778 849.998 417.261 844.59C408.797 842.14 400.713 838.353 393.394 833.408C385.369 828.334 377.69 822.772 370.416 816.766C363.481 810.705 356.874 804.333 350.625 797.678C345.154 792.097 339.479 786.737 334.273 781.37C329.066 776.003 324.533 770.408 319.327 765.041C315.443 760.743 311.151 756.886 307.063 752.809C282.125 728.789 253.713 708.527 227.08 685.84C212.125 673.461 199.385 658.978 189.446 643.058C179.23 625.01 173.399 605.5 172.397 586.017M862.272 1255.65C859.647 1255.09 857.042 1254.41 854.469 1253.59C845.343 1250.46 835.952 1247.12 827.234 1243.55C815.741 1239.14 804.46 1234.14 793.447 1228.6C786.262 1224.71 779.54 1220.06 773.439 1214.74C764.273 1206.03 755.564 1196.93 747.348 1187.47C735.312 1173.5 723.685 1159.08 711.854 1144.88C702.848 1134.12 693.782 1122.93 684.776 1112.17C680.568 1107.23 675.687 1102.51 671.274 1097.78C665.214 1091.34 659.418 1085.11 653.154 1078.89C650.448 1076.31 647.948 1073.52 645.302 1071.38C631.487 1059.83 617.407 1048.06 603.592 1036.51C597.508 1031.59 590.342 1027.34 584.666 1021.98C577.404 1015.34 570.202 1009.13 565.248 1000.49C558.671 988.609 559.657 977.046 568.88 965.575C574.483 958.516 580.351 951.672 586.748 945.255C593.145 938.839 600.6 933.277 607.261 927.074C612.492 922.419 617.193 917.335 622.688 912.894C635.589 901.358 647.616 889.022 658.701 875.955C666.103 867.466 672.951 858.56 679.214 849.276C689.012 834.831 697.428 819.546 704.381 803.571C711.186 788.215 717.463 772.431 723.8 757.082C730.775 739.545 737.28 722.014 744.05 704.698C749.569 690.233 755.088 675.768 760.872 661.517C773.205 630.075 779.662 596.423 779.992 561.87C780.1 550.756 780.413 539.421 780.052 528.315C779.5 512.418 778.009 496.536 777.721 480.853C776.981 466.669 778.785 452.729 783.06 439.591C785.61 431.491 790.137 424.207 796.323 418.253C802.273 412.939 808.979 408.373 816.295 404.656C831.822 397.185 848.806 392.146 866.628 389.721C881.333 387.317 896.242 384.692 910.864 383.378C931.725 381.315 952.443 379.908 973.16 378.5C987.108 377.415 1000.85 376.55 1014.6 375.686C1035.31 374.278 1056.03 372.871 1076.95 371.243C1084.19 370.914 1091.31 369.716 1098.55 369.387C1129.66 366.73 1160.31 364.082 1190.81 367.1C1216.49 369.32 1241.45 374.82 1263.85 385.589C1271.16 389.18 1278.12 393.649 1285.03 397.683C1295.86 404.589 1304.9 413.751 1311.26 424.298C1317.21 434.035 1320.99 444.592 1322.36 455.285C1324.18 467.33 1323.19 479.307 1319.46 490.408C1314.65 504.59 1305.97 517.07 1294.17 526.746C1276.92 541.562 1256.55 553.092 1234.03 560.787C1207.56 569.908 1180.72 577.946 1154.13 586.198C1140.72 590.11 1128.06 595.572 1116.43 602.464C1109.69 606.629 1103.51 611.469 1097.99 616.909C1087.97 627.067 1081.53 639.911 1079.39 654.016C1077.57 667.366 1077.48 681.042 1079.15 694.764C1081.55 718.572 1082.56 742.34 1082.17 765.964C1081.78 786.887 1079.57 808.273 1078.7 829.203C1077.82 855.145 1078.09 880.851 1082.71 905.836C1085.6 922.247 1089.82 938.571 1095.34 954.666C1099.25 965.936 1103.83 976.977 1107.73 988.247C1108.01 989.402 1108.17 990.567 1108.22 991.726M1370.37 -126.959C1369.02 -126.502 1367.61 -126.481 1366.27 -126.024C1351.17 -119.692 1336.06 -113.359 1321.29 -106.378C1298.81 -95.5753 1276.34 -84.772 1255.81 -70.0769C1238.07 -57.3854 1220.38 -44.2594 1202.63 -31.5679C1186.38 -19.9886 1169.33 -9.05054 1149.94 -3.08827C1127.19 4.01507 1106.32 2.59227 1086.56 -6.03781C1072.33 -12.138 1061.1 -21.9886 1049.66 -31.6178C1042.57 -38.1966 1035.82 -45.0744 1029.43 -52.2237C1023.37 -58.6672 1017.98 -65.3392 1011.92 -71.7827C1007.24 -76.7222 1002.16 -81.2193 997.54 -85.724C991.66 -90.863 986.189 -96.4441 980.166 -100.927C965.918 -111.696 949.564 -119.635 932.31 -124.16C910.049 -129.819 887.225 -130.663 865.71 -126.624C849.588 -124.152 834.596 -118.502 821.713 -110.044C813.962 -104.971 807.663 -98.3109 803.233 -90.5049C798.803 -82.6988 796.343 -73.9255 796.018 -64.7664C795.258 -50.3118 797.618 -35.5437 802.967 -21.2966C809.413 -2.49848 818.328 15.7382 829.503 32.9845C842.969 53.9124 856.64 74.6195 871.189 94.8772C883.766 112.768 897.22 130.21 907.837 149.221C914.189 159.693 917.867 171.144 918.562 182.61C918.976 192.92 915.997 202.76 910.012 210.848C899.684 224.515 885.291 232.58 869.924 238.698C853.271 245.397 835.506 249.99 817.066 252.364C801.628 254.562 786.453 256.974 771.014 259.171C761.347 260.627 751.499 260.778 741.832 262.234C718.337 265.644 694.638 269.276 671.744 277.035C650.936 283.689 631.825 293.549 615.158 306.228C606.317 312.866 598.304 320.359 591.231 328.601C579.09 342.929 569.682 359.172 563.346 376.745C555.157 399.095 551.922 421.586 547.81 444.527C545.453 458.072 542.098 471.196 539.008 484.534C534.578 500.683 527.854 516.015 518.999 530.16C512.326 541.375 504.858 551.948 497.656 562.735C483.455 584.087 469.255 605.439 457.579 628.06C451.988 638.604 445.927 649.155 439.867 659.707C430.716 675.099 417.779 680.091 401.787 674.889C393.59 671.948 385.811 667.875 378.737 662.823C372.138 658.694 365.788 654.206 359.727 649.388C349.88 641.042 340.91 632.247 331.471 623.458C322.711 615.312 315.121 606.185 308.927 596.351C300.577 583.96 294.15 570.695 289.857 556.989M891.5 1224.04C891.166 1224.3 890.804 1224.52 890.418 1224.71C875.352 1216.01 859.24 1209.94 843.476 1202.99C830.707 1197.3 818.202 1191.83 806.046 1185.48C798.57 1181.38 791.407 1176.75 784.631 1171.65C779.657 1168.59 774.938 1165.16 770.528 1161.4C763.265 1154.76 756.471 1148.11 749.413 1141.25C745.325 1137.17 741.033 1133.31 737.149 1129.02C732.737 1124.29 728.324 1119.56 724.116 1114.62C718.849 1108.82 713.583 1103.01 708.521 1096.99C704.902 1092.91 701.487 1088.6 697.868 1084.52C692.601 1078.72 687.335 1072.91 682.273 1066.89C676.153 1060.01 670.237 1052.91 664.057 1045.6C657.877 1038.29 651.552 1031.63 645.841 1024.31C638.422 1014.84 631.677 1005.13 628.587 992.98C625.93 980.051 628.319 967.183 635.321 956.709C640.268 948.354 646.109 940.533 652.768 933.346C660.536 924.947 668.243 916.114 675.746 907.501C683.25 898.889 690.693 889.841 697.402 880.587C711.958 861.233 724.752 840.715 735.675 819.211C745.283 800.326 754.361 781.013 764.438 762.121C774.105 743.67 784.771 725.641 794.703 707.404C802.711 692.247 810.78 677.525 817.586 662.169C823.945 647.177 827.589 631.094 828.384 614.505C829.683 591.608 825.944 569.659 823.143 547.696C821.243 532.256 819.812 516.808 817.913 501.368C816.286 487.394 817.23 473.529 820.703 460.363C823.792 449.055 830.402 439.137 839.774 431.746C851.581 421.978 865.253 417.193 879.044 413.277C899.834 407.327 921.549 403.632 943.782 402.262C970.535 400.326 997.673 399.474 1024.28 398.194C1048.81 397.164 1072.87 396.141 1097.2 395.332C1119.5 394.116 1141.99 393.989 1164.58 394.952C1182.29 395.685 1200.07 398.864 1217.34 404.383C1229.62 408.398 1241.04 414.856 1250.73 423.263C1263.79 436.135 1270.85 451.496 1263.97 471.429C1261.54 478.03 1257.94 484.116 1253.3 489.459C1243.58 499.962 1231.61 508.494 1218.01 514.621C1197.76 524.519 1176.59 529.419 1155.53 535.189C1138.99 539.582 1122.44 543.976 1106.08 549.674C1087.99 555.907 1071.31 564.679 1056.58 575.708C1043.8 585.014 1033.67 596.986 1026.89 610.806C1020.92 623.475 1018.61 637.649 1020.14 652.09C1022.48 667.358 1026.39 682.548 1031.82 697.448C1038.78 718.911 1045.27 740.382 1046.58 763.458C1047.76 782.177 1048.26 801.125 1048.77 820.073C1049.1 832.705 1048.56 845.786 1048.9 858.418C1049.33 883.414 1053.2 908.611 1060.44 933.41C1065.15 948.807 1070.34 964.197 1075.72 979.367C1079.45 989.332 1084.06 998.848 1087.99 1008.59C1088.27 1009.75 1088.43 1010.91 1088.47 1012.07M1355.7 -139.599C1340.6 -133.266 1325.5 -126.934 1310.19 -120.38C1287.64 -111.225 1266.12 -100.329 1245.85 -87.8002C1231.58 -78.8659 1217.9 -69.0693 1204.15 -59.7074C1188.04 -48.784 1171.66 -38.0745 1152.81 -31.6845C1135.3 -25.751 1118.01 -25.0503 1101.55 -30.2448C1090.05 -34.0145 1079.29 -39.9429 1070.01 -47.627C1060.01 -55.7689 1050.76 -64.6721 1042.37 -74.2205C1034.54 -83.2515 1026.72 -92.2822 1018.48 -100.871C1011.79 -107.885 1004.74 -114.613 997.365 -121.028C991.948 -125.987 986.202 -130.631 980.171 -134.927C969.863 -141.663 958.578 -146.867 946.793 -150.32C925.9 -155.704 904.537 -157.664 883.727 -156.107C860.831 -155.019 838.537 -151.086 817.439 -144.413C805.057 -140.595 793.778 -134.665 784.144 -126.908C773.941 -118.28 767.334 -106.59 765.266 -93.5006C762.512 -76.0278 766.203 -59.5254 770.772 -43.4722C776.193 -25.5756 783.735 -8.0768 793.256 8.69248C806.53 33.3273 821.764 56.8428 837.202 80.1372C847.014 95.0205 856.621 110.124 865.555 125.457C873.159 137.483 878.745 150.343 882.099 163.551C884.943 174.344 884.162 185.316 879.862 194.96C877.076 200.991 873.041 206.371 867.958 210.83C851.737 224.37 832.883 230.76 813.056 235.203C799.613 238.242 785.785 240.197 772.222 242.366C759.801 244.3 747.32 245.799 735.104 247.511C710.572 250.645 686.591 255.677 663.405 262.555C640.475 269.65 619.33 280.197 600.759 293.802C595 298.03 589.769 302.686 584.539 307.342C580.168 310.987 576.163 314.982 572.563 319.291C559.77 333.968 549.396 350.398 541.72 368.134C532.064 390.07 527.423 412.583 522.108 435.325C517.226 456.098 511.61 476.665 501.185 496.434C496.082 506.411 490.179 515.967 483.521 525.03C478.122 531.867 472.783 539.139 467.385 545.977C458.511 556.571 449.373 566.951 439.705 576.904C431.637 585.63 421.58 592.598 410.114 597.403C403.971 599.872 397.116 600.9 390.106 600.401C383.096 599.903 376.13 597.894 369.773 594.537C361.958 590.78 354.867 585.704 348.912 579.605C342.904 573.349 337.493 566.648 332.752 559.59C298.94 509.208 294.452 457.599 238.652 403.813C200.786 367.314 164.914 355.734 158.842 337.308M1412.58 -93.6248C1395.7 -84.8684 1378.75 -76.5468 1361.87 -67.7905C1344.15 -58.5246 1327.39 -47.9237 1311.74 -36.0824C1298.62 -26.1386 1286.79 -14.8594 1276.45 -2.42273C1269.62 5.96155 1263.53 14.5523 1257.23 23.3643C1241.74 45.6079 1230.98 69.7401 1217.49 92.8247C1209.57 107.388 1196.2 118.496 1179.55 124.345C1165.21 129.359 1150.66 134.594 1136.11 139.828C1119.81 145.812 1105.97 155.784 1095.93 168.769C1088.14 178.693 1081.94 189.9 1074.15 199.825C1066.78 208.793 1058.86 217.35 1050.43 225.463C1041.07 234.364 1030.58 242.195 1019.12 248.82C1008.35 255.462 996.881 261.178 984.831 265.906C963.506 274.263 941.217 280.802 918.218 285.448C909.079 287.331 899.942 289.214 890.743 290.662C877.853 292.603 864.759 294.765 851.749 295.836C830.888 297.899 809.701 299.314 788.839 301.377C762.002 304.403 734.84 306.781 708.05 315.253C690.66 320.351 674.816 328.499 661.324 339.283C646.45 351.298 635.146 366.598 628.27 384.02C622.339 400.994 618.885 418.838 617.988 437.123C616.822 455.879 616.124 474.627 614.224 493.177C612.244 513.305 606.926 532.704 598.448 550.721C589.369 570.034 578.824 588.934 569.481 608.033C557.763 631.438 550.723 656.967 548.666 683.522C547.09 702.719 546.248 722.124 544.204 741.329C542.786 758.706 537.657 775.287 529.101 790.148C512.051 818.08 487.425 833.71 454.455 834.87C436.765 835.542 418.672 830.933 402.825 821.717C392.774 816.345 383.415 809.819 375.001 802.317C367.474 795.46 360.561 787.94 353.443 780.641C346.854 773.77 340.325 767.334 333.736 760.463C328.529 755.096 323.467 749.073 318.261 743.705C313.445 738.639 308.381 733.772 303.087 729.122C289.212 717.134 275.601 705.359 261.725 693.371C255.316 687.804 248.968 682.672 242.764 676.885C236.235 670.448 229.91 663.791 223.321 656.92C215.959 649.16 209.713 640.601 204.769 631.494C196.062 615.65 190.985 598.636 189.884 581.61C189.079 568.985 188.682 555.918 188.814 543.279M56.5561 656.191C62.2467 673.301 69.9122 689.989 79.4132 705.953C86.3351 717.872 94.6768 729.153 104.266 739.561L104.287 739.582C110.869 746.446 117.451 753.31 124.238 759.954C129.119 764.672 134.674 769.162 140.025 773.874C153.311 785 167.067 796.118 180.149 807.465C186.293 812.818 191.619 819.055 197.823 824.843C205.055 832.046 211.161 840.109 215.931 848.75C224.6 863.869 226.945 880.827 221.702 898.992C218.007 909.928 212.805 920.252 206.214 929.733C194.875 947.991 184.27 966.456 178.858 986.802C174.197 1003.44 173.688 1021.22 177.367 1038.9C180.142 1051.56 183.998 1064.1 188.897 1076.41C194.512 1089.84 200.596 1103.25 206.476 1116.89L222.346 1155.21C225.1 1163.64 229.646 1171.65 235.705 1178.75C238.853 1181.72 242.732 1183.92 246.923 1185.12C256.334 1188.33 265.887 1191.02 275.528 1193.18C294.457 1197.22 312.975 1203.6 330.55 1212.16C340.385 1217.02 350.485 1222.1 359.912 1227.4C368.605 1232.49 376.889 1238.03 385.378 1243.35C395.659 1249.73 405.675 1255.89 415.751 1262.49C421.655 1266.11 427.209 1270.6 433.377 1274.42C440.068 1278.67 446.963 1282.7 453.858 1286.73L453.878 1286.75C459.253 1289.93 464.159 1293.12 469.738 1296.09C478.167 1301.27 486.831 1306.08 495.697 1310.51C509.26 1316.84 522.968 1322.51 537.084 1327.74C563.614 1337.05 591.319 1341.59 618.582 1341.09C634.321 1341.06 650.205 1340.38 665.945 1340.36C675.288 1339.75 718.163 1323.6 752.833 1322.35C811.2 1320.26 896.628 1359.42 896.628 1359.42M923.95 1188.47C921.844 1187.83 919.775 1187.06 917.757 1186.17C896.728 1173.42 873.077 1165.5 850.388 1156.04C838.207 1151.22 825.967 1145.96 814.136 1140.26C805.673 1135.74 797.515 1130.7 789.727 1125.16C783.422 1121.03 777.384 1116.54 771.655 1111.71C764.717 1105.72 758.393 1099.06 751.864 1092.63C738.517 1079.11 726.645 1064.46 716.454 1048.94C707.292 1035.35 698.743 1021.1 694.848 1004.82C691.309 989.191 693.08 973.471 699.911 959.861C705.577 948.7 712.193 938.039 719.703 927.965C731.282 911.446 742.861 894.927 753.383 877.553C764.661 858.86 774.209 839.54 784.958 820.42C794.435 801.991 805.159 784.22 817.075 767.2C823.027 759.265 828.511 751.337 834.727 743.615C840.535 736.336 846.283 728.622 852.884 721.984C862.219 711.977 872.206 702.514 882.8 693.637C890.786 686.589 900.185 680.992 910.588 677.087C915.391 675.456 920.638 674.842 925.97 675.287C931.303 675.731 936.596 677.224 941.489 679.663C951.06 684.31 958.179 691.609 965.561 699.121C976.331 710.578 985.301 723.3 992.157 736.843C1000.48 753.261 1005.74 770.587 1007.69 788.025C1009.53 803.03 1010.02 818.492 1010.99 833.947C1012.27 858.548 1012.88 883.377 1017.39 907.493C1020.4 923.855 1024.85 940.111 1030.69 956.094C1035.39 968.006 1039.42 980.145 1044.33 991.835C1050 1005.69 1056.14 1019.54 1062.08 1033.61C1062.62 1035.26 1062.94 1036.94 1063.01 1038.61M958.753 1151.34C958.285 1151.34 957.671 1152.01 957.406 1151.79C945.106 1146.1 933.01 1140.18 920.565 1135.15C900.197 1127.18 879.54 1120.52 858.967 1112.78C846.499 1108.19 834.298 1102.84 822.45 1096.78C811.715 1090.99 801.842 1083.79 793.184 1075.44C784.195 1066.94 776.53 1057.36 770.459 1047.03C763.19 1035.06 758.964 1021.98 758.135 1008.87C757.552 996.734 759.935 984.935 765.11 974.338C770.929 962.047 777.279 950.184 783.892 938.535C794.029 920.077 803.167 901.2 811.103 882.122C820.35 860.628 829.068 838.706 840.984 817.824C846.734 808.182 853.234 798.983 860.439 790.291C867.585 781.72 875.814 773.996 884.981 767.254C894.804 760.131 905.662 755.389 917.854 755.202C925.802 754.924 933.91 757.357 940.652 762.042C954.96 772.063 961.898 786.556 966.262 802.83C969.725 816.831 971.678 830.961 972.093 845.009C974.124 873.302 976.156 901.596 982.961 928.727C987.955 947.344 994.426 965.743 1002.32 983.772C1011.36 1004.99 1020.4 1026.2 1029.04 1047.85C1031.81 1054.35 1033.24 1061.3 1035.35 1068.02M40.075 645.122C45.0745 662.111 51.5532 678.846 59.4449 695.155C67.5623 712.272 77.9528 728.591 90.3576 743.705C98.1851 752.735 106.686 761.538 114.922 770.127C120.393 775.708 126.273 780.847 131.948 786.207C139.8 793.712 148.12 801.21 155.767 808.937C166.052 818.552 174.908 829.354 182.051 840.998C192.223 858.49 194.195 877.851 187.172 898.44C182.122 912.898 176.338 927.149 170.819 941.614C162.795 960.45 157.899 980.557 156.281 1001.32C155.43 1021.05 157.41 1041.09 162.172 1060.93C165.779 1078.52 170.324 1096.1 170.299 1114.62C170.5 1129.16 166.319 1143.02 158.215 1154.68C153.71 1160.8 148.506 1166.42 142.679 1171.47C136.426 1177.24 129.645 1182.57 122.863 1187.9M1.15156 628.729C5.68437 642.821 10.6862 656.907 16.0967 670.55C24.2394 692.633 34.6919 714.152 47.2977 734.783C53.892 745.806 61.7984 756.215 70.8525 765.796C78.8243 774.171 86.5312 782.333 94.7073 790.487C100.707 796.495 106.647 802.069 112.443 808.299C123.501 818.929 133.114 830.726 141.023 843.375C150.93 860.654 154.044 879.779 149.836 900.325C147.238 912.13 143.967 924.164 140.901 935.977C134.708 959.167 129.189 982.129 128.888 1005.45C128.809 1022.06 130.022 1038.79 132.519 1055.5C134.178 1069.21 135.837 1082.91 136.089 1096.63C136.608 1113.9 132.36 1130.53 123.739 1144.97C117.827 1154.72 110.725 1163.74 102.553 1171.88M1542.74 -5.4342C1532.49 20.6511 1524.9 47.3492 1523.26 74.6095C1522.67 89.4754 1523.01 104.456 1524.3 119.477C1525.38 135.802 1528.07 151.884 1526.4 168.686C1525.64 181.266 1520.79 192.94 1512.48 202.236C1505.47 209.891 1495.72 215.002 1484.65 216.825C1476.17 218.698 1466.89 217.521 1458.58 213.521C1450.5 209.394 1443.85 203.061 1439.65 195.509C1432.66 184.069 1426.08 172.186 1419.77 160.517C1410 142.186 1398.75 124.437 1386.12 107.435C1375.16 92.7867 1363.39 79.0231 1354.6 63.0347C1347.74 51.7183 1344.28 39.1991 1344.62 26.9049C1344.95 14.6106 1349.07 3.03576 1356.5 -6.49904C1359.89 -11.3258 1363.56 -15.9633 1367.51 -20.3942C1377.01 -30.9754 1388.25 -40.0965 1400.89 -47.4878C1417.59 -57.5487 1434.94 -66.3122 1451.96 -75.7244C1452.64 -75.9526 1453.57 -75.9673 1454.25 -76.1955M1347.91 -162.151C1342.73 -160.547 1337.75 -159.163 1332.63 -157.124C1312.34 -149.187 1291.79 -141.463 1271.63 -132.656C1253.69 -124.363 1236.56 -114.854 1220.34 -104.199C1204.99 -94.5941 1189.9 -84.7762 1173.84 -76.9039C1157.77 -69.0316 1140.43 -65.2795 1123.42 -69.3762C1115.26 -70.9625 1107.45 -74.3619 1100.67 -79.2672C1096.2 -82.0461 1091.99 -85.1924 1088.09 -88.6611C1080.97 -95.6013 1074.3 -102.924 1068.14 -110.579C1054.37 -128.302 1042.69 -147.204 1033.34 -166.912C1029.56 -174.012 1026.79 -181.445 1025.11 -189.01C1023.18 -197.913 1025.97 -204.928 1036.74 -208.58C1048.86 -212.688 1061.04 -216.361 1073.02 -219.813C1090.58 -224.301 1107.12 -231.08 1122.16 -239.958C1130.91 -245.075 1138.58 -251.515 1144.9 -259.044C1152.75 -268.263 1158.83 -278.722 1162.93 -290.043C1164.7 -295.953 1166.47 -301.863 1168.18 -308.207M1530.31 -15.4832C1523.61 5.75406 1516.45 26.9986 1510.01 48.4497C1505.61 64.3103 1502.6 80.6013 1501.01 97.1754C1500.1 107.648 1499.2 118.12 1498.04 128.378C1497.59 136.651 1495.42 144.596 1491.64 151.79C1487.09 159.703 1480.6 163.724 1469.6 160.625C1463.01 158.217 1457.13 154.137 1452.7 148.901C1443.35 139.022 1435.08 128.472 1426.34 117.93C1421.01 111.693 1415.62 105.022 1410.5 98.564C1402.29 88.4496 1393.87 78.556 1386.33 68.2133C1377.26 56.532 1371.59 43.1302 1369.93 29.4639C1368.82 16.8776 1371.98 4.71976 1378.99 -5.31792C1388.56 -19.011 1400.95 -30.716 1415.57 -39.8688C1430.66 -49.7043 1446.77 -58.2599 1463.72 -65.446C1464.72 -65.8183 1465.82 -65.9836 1466.94 -65.9313M1331.24 -175.618C1329.75 -175.501 1328.29 -175.259 1326.87 -174.897C1304.39 -167.58 1281.7 -160.042 1259.21 -152.725C1241.35 -146.267 1224.28 -138.351 1208.21 -129.064C1196.86 -122.79 1185.3 -116.294 1173.42 -110.446C1161.54 -104.599 1148.57 -101.568 1135.61 -103.548C1130.59 -104.16 1125.66 -105.719 1121.12 -108.125C1116.58 -110.532 1112.53 -113.733 1109.24 -117.524C1103.29 -123.728 1099.1 -131.116 1097.12 -138.908C1095.72 -144.141 1095.49 -149.465 1096.44 -154.543C1097.4 -159.621 1099.52 -164.342 1102.67 -168.407C1107.95 -176.114 1115.73 -181.026 1123.19 -186.588C1132.13 -193.262 1141.67 -199.073 1150.61 -205.747C1159.13 -212.282 1166.68 -219.781 1173.13 -228.098C1183.31 -242.01 1191.14 -257.384 1196.43 -273.775C1197.41 -276.84 1197.66 -280.113 1198.45 -282.957M961.594 -9.37355C965.069 -4.63346 968.544 0.106303 971.55 4.85358C975.126 9.967 977.149 15.7556 977.381 21.5412C977.516 24.6885 976.896 27.7475 975.565 30.5021C974.448 32.1499 972.799 33.4122 970.816 34.1381C968.833 34.864 966.599 35.0231 964.383 34.5958C960.584 34.1331 956.861 32.8448 953.525 30.8402C940.589 23.423 930.806 11.9073 926.303 -1.20627C924.601 -5.80021 924.513 -10.6151 926.051 -14.9289C926.994 -16.9471 928.548 -18.628 930.548 -19.7912C932.986 -21.1611 935.87 -21.8302 938.874 -21.7223C941.879 -21.6143 944.884 -20.7341 947.55 -19.1808C952.191 -16.2017 956.688 -12.5668 961.125 -9.36668M1492.65 -31.2424C1497.75 -23.259 1496.46 -13.8703 1494.71 -4.47442C1491.57 11.9344 1485.82 27.5786 1477.63 41.9787C1474.58 48.2083 1470.15 53.6814 1464.59 58.084C1460.92 61.1041 1456.17 62.8761 1451.03 63.1505C1445.88 63.4249 1440.59 62.1877 1435.9 59.6133C1425.01 53.1504 1416.89 43.2495 1413.29 32.0714C1411.06 25.7811 1410.43 19.258 1411.45 13.033C1412.47 6.80805 1415.11 1.05715 1419.15 -3.75103C1425.52 -12.7389 1433.93 -20.2604 1443.89 -25.8753C1453.84 -31.4903 1465.14 -35.0859 1477.13 -36.4515C1479.71 -36.9435 1482.46 -36.7346 1485.08 -35.8493C1487.7 -34.9639 1490.07 -33.438 1491.92 -31.4488M618.105 1134.77C620.077 1137.14 622.313 1139.72 624.285 1142.09C629.672 1148.76 636.141 1154.76 640.71 1162.32C646.621 1171.76 651.817 1181.51 656.256 1191.49C661.719 1204.29 663.984 1217.76 662.869 1230.83C661.975 1245.06 655.93 1258.1 645.674 1267.91C637.429 1275.89 627.068 1281.79 615.397 1285.15C596.862 1290.32 576.555 1290.48 556.72 1285.62C539.867 1281.61 523.556 1275.09 508.468 1266.31C499.511 1261 490.961 1255.25 482.412 1249.5C478.142 1246.83 474.047 1243.91 470.16 1240.76C462.633 1233.9 455.311 1226.82 447.988 1219.74C437.329 1209.13 428.385 1197.21 421.488 1184.42C414.149 1171.13 410.76 1156.62 411.701 1142.52C412.217 1135.31 414.394 1128.46 418.089 1122.4C421.784 1116.34 426.916 1111.2 433.153 1107.33C444.58 1100.04 457.691 1095.03 471.762 1092.57C493.292 1088.04 516.215 1088.21 538.796 1093.07C553.627 1096.14 568.046 1101.53 581.409 1108.97C595.092 1116.17 606.057 1125.81 617.696 1135.22M1110.51 455.923C1115.37 465.653 1111.2 471.164 1103.34 477.168C1089.31 487.841 1073.51 495.927 1058.3 504.876C1043.09 513.824 1028.81 522.759 1013.87 531.921C996.144 543.087 978.949 554.681 960.696 565.419C949.201 572.35 936.552 576.03 923.675 572.959C915.829 571.13 908.686 566.734 903.643 560.629C899.797 556.439 896.347 551.97 893.339 547.279C884.589 533.866 879.094 519.117 877.275 504.167C876.114 495.356 876.82 486.612 879.356 478.425C883.514 465.951 892.493 455.711 904.727 449.493C916.857 443.29 930.253 439.108 944.37 437.119C978.41 431.804 1011.54 433.475 1044.49 437.327C1061.7 438.974 1078.86 442.59 1095.56 448.091C1100.74 449.679 1105.6 452.285 1109.77 455.716M596.182 1149.49C598.947 1152.5 601.449 1155.29 604.214 1158.3C611.05 1165.42 616.612 1173.44 620.65 1182.02C626.005 1192.66 628.628 1204.05 628.297 1215.23C627.988 1225.88 624.115 1235.82 617.198 1243.73C610.644 1251.07 601.768 1256.34 591.575 1258.94C576.229 1262.76 559.416 1261.88 543.527 1256.41C532.081 1252.86 521.173 1247.58 511.291 1240.78C503.899 1235.64 496.785 1230.15 489.985 1224.33C478.661 1214.34 469.882 1202.21 464.422 1188.99C458.675 1176.17 458.365 1162.34 463.557 1150.44C467.686 1141.23 475.049 1133.79 484.588 1129.2C503.165 1119.79 525.832 1117.88 547.762 1123.87C558.529 1126.53 568.911 1130.87 578.435 1136.69C584.603 1140.52 589.953 1145.23 596.182 1149.49ZM580.871 1169.56C583.243 1172.4 585.454 1175.35 587.495 1178.39C593.962 1187.2 596.901 1197.56 595.744 1207.46C595.097 1213.68 592.422 1219.37 588.059 1223.82C583.696 1228.27 577.842 1231.28 571.238 1232.45C559.3 1234.8 546.323 1232.74 534.962 1226.69C528.841 1223.91 523.116 1220.32 517.985 1216.06C508.077 1207.28 499.864 1197.16 497.676 1183.03C496.881 1178.62 497.12 1174.2 498.376 1170.08C499.631 1165.96 501.874 1162.24 504.952 1159.17C509.092 1154.84 514.619 1151.81 520.895 1150.43C537.356 1147.13 552.518 1149.73 565.444 1158.25C570.614 1161.65 575.64 1165.71 580.871 1169.56Z" stroke="url(#paint0_linear_1213_23393)" stroke-linecap="round" stroke-linejoin="round"/>
<defs>
<linearGradient id="paint0_linear_1213_23393" x1="328.861" y1="260.295" x2="59.6297" y2="392.687" gradientUnits="userSpaceOnUse">
<stop stop-color="#BFC9D1"/>
<stop offset="1" stop-color="#BFC9D1" stop-opacity="0"/>
</linearGradient>
</defs>
</svg>
