<svg width="372" height="375" viewBox="0 0 372 375" fill="none" xmlns="http://www.w3.org/2000/svg">
<g clip-path="url(#clip0_467_6371)">
<g opacity="0.5" clip-path="url(#clip1_467_6371)">
<path opacity="0.8" d="M56.2322 252.584C60.941 253.127 65.5882 253.563 70.252 254.273C76.5798 255.375 82.7509 257.24 88.6299 259.827C94.276 262.239 99.8322 264.986 105.327 267.626C117.172 273.407 129.331 278.014 141.567 279.315C148.716 280.121 155.938 280.002 163.056 278.96C167.765 278.164 172.404 277.003 176.932 275.487C180.262 274.277 183.503 272.832 186.629 271.164C189.198 269.964 191.812 268.597 194.258 267.185C197.767 265.159 201.153 262.92 204.708 260.726C208.475 258.41 212.119 255.88 216.176 253.821C222.422 250.641 228.974 247.992 236.19 247.229C242.079 246.381 248.087 247.182 253.549 249.543C257.989 251.61 261.754 254.894 264.405 259.014C267.118 262.977 269.68 267.169 272.394 271.132C275.398 275.71 279.095 279.794 283.353 283.237C285.407 284.869 287.612 286.302 289.937 287.519C295.882 290.524 302.557 291.783 309.189 291.149C314.126 290.845 318.971 289.679 323.506 287.704C325.989 286.718 328.401 285.562 330.725 284.245C333.535 282.481 336.054 280.459 338.635 278.544C341.003 276.751 343.31 274.853 345.907 273.211C349.506 270.85 353.273 268.533 356.995 266.384C359.037 265.374 361.157 264.529 363.335 263.858C365.053 263.15 366.877 262.38 368.595 261.672C370.693 260.886 372.898 260.038 374.935 259.146L377.99 257.807C379.647 256.993 381.242 256.072 382.96 255.363C390.47 252.162 397.472 247.836 404.429 243.677C407.453 241.764 410.377 239.697 413.19 237.485C414.768 236.29 416.408 235.201 417.926 233.9C420.081 232.23 422.343 230.499 424.375 228.616C428.584 224.778 432.402 220.531 435.772 215.939C440.495 209.473 443.871 202.124 445.698 194.328C447.085 188.213 447.376 181.9 446.559 175.682C446.05 170.943 444.399 166.398 441.748 162.437C439.404 158.891 436.179 156.014 432.39 154.087C424.33 149.95 416.344 148.889 408.318 148.985C402.469 149.047 396.645 149.747 390.949 151.073C386.899 152.134 382.917 153.438 379.025 154.979C374.354 156.594 369.903 158.783 365.773 161.497C363.455 163.003 361.238 164.661 359.139 166.461C356.578 168.572 354.142 170.831 351.843 173.225C346.697 178.876 342.461 185.292 339.286 192.243C336.752 197.677 334.446 203.262 332.08 208.74C330.24 212.921 328.339 216.997 325.215 219.935C320.589 224.448 314.899 225.89 307.821 223.454C305.286 222.619 302.955 221.26 300.98 219.464C298.996 217.631 297.419 215.402 296.352 212.92C294.384 207.777 293.349 202.325 293.295 196.819C292.653 186.13 292.286 175.425 290.531 164.527C289.061 155.65 286.695 146.945 283.47 138.544C281.066 132.292 278.034 126.299 274.42 120.658C271.307 115.878 267.835 111.341 264.033 107.088C258.719 101.347 252.86 96.1343 246.539 91.524C241.65 87.9666 236.715 84.5769 231.736 81.3549C222.967 75.4996 214.411 69.5215 206.08 62.7047C199.537 57.266 192.978 51.5534 186.283 46.3438C180.072 41.4708 173.366 37.2636 166.275 33.7913C157.086 29.1716 147.766 26.0451 138.458 22.2027C133.245 20.1869 128.353 17.4228 123.937 13.9971C120.727 11.4268 118.066 8.23775 116.112 4.61929C113.852 0.209607 112.514 -4.6145 112.18 -9.55839C111.753 -16.0918 112.004 -22.6518 112.931 -29.1333C113.416 -32.9584 114.008 -36.8448 114.662 -40.6249C116.222 -49.4657 117.843 -58.2002 119.464 -66.9347C120.387 -71.7213 121.249 -76.614 122.065 -81.3392C123.699 -90.7896 125.332 -100.24 126.798 -109.735C128.439 -120.892 129.576 -132.183 131.279 -143.233C132.743 -152.927 135.546 -162.37 139.607 -171.294C143.235 -179.215 147.771 -186.687 153.124 -193.561C155.78 -197.107 158.924 -200.26 162.464 -202.924C164.488 -204.54 166.625 -206.01 168.857 -207.323C172.424 -209.199 176.262 -210.507 180.232 -211.197C190.14 -212.947 200.335 -211.743 210.689 -208.789C217.471 -206.996 223.886 -204.03 229.645 -200.024C233.702 -197.097 237.14 -193.396 239.761 -189.134C242.888 -183.759 245.116 -177.909 246.357 -171.815C248.02 -164.268 249.454 -156.872 250.844 -149.309C252.483 -140.33 253.909 -131.229 256.371 -122.299C257.544 -117.958 259.086 -113.725 260.981 -109.647C264.796 -101.074 270.644 -94.3834 277.539 -88.5808C285.689 -81.7693 294.335 -75.5764 303.407 -70.0536C309.774 -66.0123 316.405 -62.4034 323.256 -59.2518C332.271 -55.0367 341.813 -52.0567 351.624 -50.3922C355.74 -49.6489 359.884 -49.3474 364.151 -48.8333C364.754 -48.7316 365.34 -48.5446 365.89 -48.2776" stroke="#F2F4F6" stroke-linecap="round" stroke-linejoin="round"/>
<path d="M40.5146 225.36C44.2334 225.907 47.7844 226.409 51.3969 227.018C59.2926 228.414 67.1269 229.705 75.0391 231.375C82.4745 232.964 89.684 235.469 96.5021 238.834C103.188 242.064 109.828 245.461 116.558 248.523C126.693 253.306 137.048 256.26 147.389 256.245C152.957 256.266 158.493 255.414 163.797 253.719C167.678 252.557 171.404 250.93 174.894 248.872C176.17 248.136 177.524 247.779 178.739 246.936C182.186 244.804 185.573 242.565 189.066 240.265C191.708 238.456 194.456 236.585 197.16 234.883C201.184 232.276 205.27 229.775 209.524 227.319C212.457 225.767 215.573 224.535 218.629 223.196C221.259 222.103 223.828 220.904 226.351 219.872C228.662 218.963 231.035 218.161 233.239 217.313C234.957 216.605 236.798 216.109 238.455 215.295C241.997 213.769 245.438 212.019 248.758 210.055C258.463 204.026 265.292 194.979 268.221 182.371C270.037 174.579 270.337 166.511 269.105 158.606C268.323 153.079 266.702 147.704 264.298 142.666C263.173 140.023 261.879 137.454 260.425 134.977C256.8 129.151 252.332 123.895 247.166 119.378C239.26 112.316 230.39 107.512 221.519 102.708C212.649 97.9042 203.398 93.1784 195.28 86.2389C191.687 83.2087 188.078 79.9044 184.636 76.6451C178.044 70.3841 171.664 64.0005 164.573 58.5946C159.407 54.5838 153.814 51.1558 147.896 48.3729C141.73 45.5522 135.306 43.0219 129.141 40.2012C123.204 37.5318 117.329 34.9686 111.735 30.6832C107.427 27.4616 103.811 23.406 101.103 18.7579C98.3953 14.1097 96.6504 8.964 95.9725 3.6274C95.4244 -0.888622 95.2616 -5.44289 95.4856 -9.98654C95.6016 -14.2152 96.0102 -18.431 96.7087 -22.6032C97.6273 -28.3798 98.8364 -33.8986 99.9227 -39.6302C100.294 -41.688 100.727 -43.6396 100.993 -45.636C103.01 -57.8601 105.194 -70.0392 106.876 -82.3531C108.328 -92.3297 109.103 -102.393 109.194 -112.475C109.219 -123.974 109.076 -135.518 109.162 -146.911C109.223 -157.486 111.501 -167.931 115.849 -177.57C119.259 -184.927 123.294 -191.936 127.284 -198.777C131.97 -206.87 136.549 -214.902 141.357 -222.782C143.269 -225.995 145.654 -228.902 148.432 -231.404C152.57 -235.095 157.879 -237.207 163.423 -237.365C171.079 -237.718 178.751 -237.2 186.291 -235.822C197.067 -234.103 207.843 -232.384 218.635 -230.391C225.312 -229.141 232.005 -227.618 238.714 -225.82C244.681 -224.252 250.271 -221.5 255.154 -217.729C258.008 -215.487 260.474 -212.792 262.454 -209.751C266.293 -203.807 268.729 -197.068 269.579 -190.043C271.022 -180.668 272.297 -171.337 273.634 -161.9C275.013 -152.631 277.366 -143.534 280.654 -134.759C283.138 -128.496 286.3 -122.525 290.085 -116.951C294.512 -110.301 299.873 -104.323 306.004 -99.2017C311.557 -94.3674 317.582 -90.103 323.987 -86.4726C331.642 -82.1669 339.83 -78.885 348.339 -76.7114C348.953 -76.4992 349.541 -76.2209 350.094 -75.8815" stroke="#F2F4F6" stroke-linecap="round" stroke-linejoin="round"/>
<path d="M50.5009 242.423C60.1119 242.947 69.6351 244.534 78.8969 247.155C85.2486 249.054 91.4171 251.519 97.3284 254.52C103.114 257.419 108.989 259.982 114.713 262.774C121.999 266.225 129.714 268.686 137.653 270.09C145.932 271.621 154.434 271.485 162.66 269.689C166.509 268.743 170.358 267.796 174.085 266.638C176.563 265.774 178.797 264.484 181.153 263.408C182.915 262.532 184.846 261.701 186.548 260.718C188.993 259.306 191.378 257.788 193.701 256.163C196.192 254.583 198.727 252.835 201.095 251.043C205.792 247.599 210.737 244.508 215.889 241.793C218.715 240.303 221.726 239.132 224.675 237.855C231.804 234.731 239.581 233.219 247.173 231.388C251.083 230.548 254.932 229.602 258.765 228.382C264.937 226.555 270.167 222.418 273.365 216.833C276.43 211.151 278.694 205.072 280.093 198.769C282.242 189.975 283.124 180.919 282.715 171.875C282.518 160.971 280.247 150.204 276.025 140.149C274.809 137.306 273.593 134.463 272.103 131.637C270.647 128.747 269.027 125.942 267.252 123.236C264.601 119.619 261.748 116.153 258.707 112.856C252.629 106.371 245.703 100.736 238.117 96.1028L216.857 82.8553C209.431 78.1277 202.413 72.7892 195.874 66.8955C189.834 61.5916 183.672 56.0752 177.542 51.1068C171.069 45.8563 163.925 41.4933 156.298 38.1333C149.69 35.2841 143.038 32.6025 136.492 29.8597C131.479 27.9071 126.643 25.5287 122.036 22.7504C116.711 19.4186 112.352 14.7484 109.396 9.20567C107.901 6.33108 106.879 3.2346 106.37 0.0350522C105.041 -6.75789 104.902 -13.73 105.958 -20.5706C106.59 -25.6148 107.116 -30.5975 107.978 -35.4904C109.313 -43.4925 110.984 -51.4047 112.487 -59.3619C112.903 -61.5874 113.365 -63.9806 113.72 -66.3125C114.373 -70.0927 115.027 -73.8728 115.574 -77.5915C116.509 -83.094 117.55 -88.6581 118.256 -94.3118C119.3 -102.572 120.116 -110.983 120.993 -119.287C121.604 -125.596 122.048 -131.949 122.828 -138.212C123.399 -143.362 123.97 -148.513 124.876 -153.574C126.198 -160.726 128.424 -167.681 131.501 -174.271C133.598 -178.743 135.757 -183.109 138.251 -187.385C142.63 -195.347 147.99 -202.729 154.206 -209.358C157.822 -213.068 162.075 -216.1 166.762 -218.308C171.805 -220.49 177.245 -221.603 182.74 -221.578C190.287 -221.725 197.828 -221.09 205.244 -219.683C211.56 -218.471 217.806 -216.918 223.953 -215.029C229.138 -213.42 234.086 -211.126 238.666 -208.21C243.024 -205.43 246.634 -201.623 249.179 -197.124C252.518 -191.294 254.766 -184.904 255.812 -178.267C257.152 -171.526 258.218 -164.768 259.39 -158.072C260.688 -149.83 262.463 -141.671 264.708 -133.635C266.226 -128.229 268.179 -122.956 270.55 -117.866C272.786 -113.299 275.404 -108.929 278.376 -104.803C284.306 -96.7417 291.508 -90.4074 299.012 -84.5313C307.051 -78.206 315.752 -72.7704 324.962 -68.3194C333.079 -64.3685 341.686 -61.5179 350.557 -59.8431C353.286 -59.2917 356.059 -58.9081 358.894 -58.4182C359.285 -58.2917 359.662 -58.1302 360.024 -57.9357" stroke="#F2F4F6" stroke-linecap="round" stroke-linejoin="round"/>
<path d="M44.8521 232.639C52.5637 233.716 60.1688 234.855 67.9418 236.039C77.0048 237.575 85.8254 240.302 94.1749 244.147C100.279 246.861 106.31 250.185 112.37 253.067C121.604 257.519 130.834 260.981 140.313 262.173C152.179 263.603 164.206 261.582 174.952 256.352C178.736 254.31 182.474 252.435 186.135 250.18C188.9 248.583 191.374 246.73 194.016 244.921C196.445 243.234 198.707 241.503 201.259 240.03C205.603 237.238 210.008 234.553 214.368 232.036C216.973 230.7 219.658 229.528 222.409 228.528C225.358 227.25 228.369 226.08 231.38 224.909C233.965 223.983 236.717 223.103 239.241 222.071C241.765 221.039 244.411 220.22 246.874 219.082C249.655 217.76 252.481 216.27 255.14 214.735C260.073 211.703 264.169 207.486 267.057 202.467C271.321 195.609 273.691 187.435 274.764 178.734C275.785 170.098 275.204 161.349 273.05 152.925C271.792 147.992 270.104 143.178 268.006 138.539C263.681 129.381 257.516 121.212 249.896 114.54C242.342 107.842 234.188 103.05 225.927 98.3194C219.544 94.6315 213.161 90.9435 206.929 87.0264C200.715 82.8885 194.905 78.1717 189.58 72.9391C183.401 67.1484 177.434 61.235 170.801 56.1317C164.672 51.2866 157.98 47.1997 150.871 43.9598C145.728 41.6828 140.54 39.5736 135.291 37.358C129.248 34.75 123.16 32.3098 117.325 28.589C112.965 25.8528 109.212 22.2513 106.298 18.0073C103.384 13.7633 101.372 8.96682 100.385 3.91432C99.2266 -2.46084 99.0027 -8.97073 99.7207 -15.4105C100.206 -19.2356 100.356 -23.1506 101.01 -26.9308C102.255 -34.5974 103.836 -42.1739 105.31 -49.6893L106.515 -56.1983C108.397 -67.9191 110.402 -79.4273 111.948 -91.238C113.493 -103.353 114.359 -115.546 114.543 -127.758C114.818 -137.842 115.154 -147.819 116.832 -157.437C118.011 -164.05 120.008 -170.49 122.778 -176.609C124.528 -180.455 126.507 -184.15 128.485 -187.844C132.933 -196.066 137.856 -204.022 143.229 -211.67C145.869 -215.511 148.9 -219.067 152.275 -222.28C155.012 -224.664 158.135 -226.563 161.51 -227.896C169.993 -231.376 179.378 -230.839 188.796 -229.754C195.881 -229.024 202.877 -227.958 209.889 -226.619C217.572 -225.1 225.316 -223.474 232.987 -221.238C238.59 -219.751 243.858 -217.211 248.51 -213.753C251.249 -211.728 253.659 -209.294 255.655 -206.535C259.899 -200.904 261.939 -194.424 263.217 -187.789C264.795 -178.917 266.099 -170.028 267.509 -161.2C268.825 -152.479 270.85 -143.879 273.563 -135.487C275.239 -130.738 277.208 -126.098 279.459 -121.592C283.598 -113.517 288.999 -106.153 295.457 -99.7772C304.213 -90.9815 314.331 -83.6566 325.421 -78.0849C334.044 -73.6882 343.232 -70.5002 352.726 -68.611C353.061 -68.5211 353.52 -68.2185 353.855 -68.1286" stroke="#F2F4F6" stroke-linecap="round" stroke-linejoin="round"/>
<path d="M-2.84451 -307.26C-2.56161 -305.297 -2.38505 -303.272 -2.10216 -301.308C-1.11863 -295.921 -0.0286939 -290.595 0.954833 -285.208C2.4223 -277.081 4.65051 -269.111 7.61007 -261.401C9.30509 -256.992 11.2127 -252.705 13.2268 -248.48C17.9796 -238.038 24.4953 -228.471 29.9476 -218.291C35.7682 -207.473 39.0157 -196.445 38.2749 -184.957C37.8639 -178.056 36.3852 -171.531 33.1347 -166.109C31.7574 -163.563 29.8446 -161.347 27.5282 -159.611C25.3291 -158.035 23.0253 -156.61 20.6325 -155.346C17.7947 -154.025 14.8358 -152.982 11.7972 -152.23C4.05392 -150.17 -3.81218 -148.323 -11.5555 -146.263C-14.8116 -145.168 -18.0043 -143.893 -21.1186 -142.443C-22.6011 -141.94 -24.0193 -141.264 -25.3438 -140.429C-29.99 -137.179 -34.4519 -133.611 -36.7409 -127.752C-37.8952 -124.83 -38.3101 -121.668 -37.9488 -118.547C-37.6719 -116.439 -36.9296 -114.418 -35.7758 -112.632C-34.622 -110.846 -33.0855 -109.339 -31.2775 -108.22C-27.5422 -105.779 -23.1873 -104.456 -18.7255 -104.407C-11.7458 -104.057 -4.76398 -105.055 1.83818 -107.347C5.70356 -108.58 9.47386 -110.093 13.1192 -111.875C18.1951 -114.38 23.0869 -117.204 27.9786 -120.028C30.6372 -121.563 33.0501 -123.524 35.6473 -125.165C37.5738 -126.56 39.571 -127.855 41.6309 -129.045C47.3449 -131.919 53.4603 -133.606 60.5667 -131.612C66.773 -129.949 71.9532 -126.134 76.1687 -120.06C80.2377 -113.88 82.9953 -106.93 84.271 -99.6413C86.3564 -89.644 86.4455 -79.9119 85.9863 -70.147C85.5601 -59.8338 83.792 -49.8802 82.2979 -39.9431C80.9058 -31.0573 79.0553 -22.4744 77.8309 -13.5437C76.4652 -4.90614 76.3812 3.88571 77.5815 12.5478C78.5111 18.6385 80.3499 24.5552 83.0362 30.0999C87.1871 38.763 93.4603 45.208 100.764 50.491C107.151 55.1689 114.005 58.4436 120.919 61.8245C129.757 66.0803 138.717 70.5485 146.758 77.1076C151.647 81.169 156.233 85.5826 160.479 90.3127C166.187 96.5166 171.7 103.117 177.924 108.74C183.713 113.963 190.177 118.386 197.143 121.89C204.286 125.422 211.475 128.787 218.574 132.487C223.561 135.01 228.107 138.322 232.036 142.297C237.896 148.271 241.293 155.384 241.345 163.578C241.484 168.468 240.1 173.28 237.386 177.349C235.143 180.904 232.126 183.906 228.56 186.131C227.072 186.991 225.767 188.169 224.323 188.861C221.329 190.306 218.274 191.645 215.218 192.983C212.163 194.322 209.046 195.554 205.929 196.786C203.618 197.695 201.184 198.392 198.98 199.239C197.094 199.903 195.225 200.84 193.401 201.61C190.983 202.58 188.459 203.612 186.103 204.688C184.66 205.38 183.322 206.011 181.878 206.702C179.584 207.885 177.457 209.113 175.101 210.19C171.894 211.758 168.626 213.219 165.297 214.574C161.636 216.172 157.877 217.537 154.044 218.661C150.712 219.54 147.291 220.041 143.846 220.153C136.808 220.299 129.807 219.094 123.223 216.605C117.487 214.528 111.857 212.391 106.121 210.314C97.5992 207.192 88.8238 204.811 79.8927 203.197C72.3324 201.89 64.6208 200.812 57.044 199.232C46.5094 196.948 35.9583 194.391 25.4072 191.833C23.8975 191.429 22.2816 191.085 20.7719 190.681" stroke="#F2F4F6" stroke-linecap="round" stroke-linejoin="round"/>
<path opacity="0.8" d="M-7.43746 -304.897C-6.60963 -300.271 -5.88811 -295.583 -5.06028 -290.956C-3.16666 -279.572 -0.831314 -268.159 3.36129 -256.968C5.07276 -252.285 7.05845 -247.618 9.044 -242.951C10.7675 -238.983 12.7037 -235.138 14.5336 -231.232C18.2547 -223.313 21.9757 -215.395 24.2979 -206.952C26.7144 -197.855 26.9053 -189.174 24.3061 -181.151C22.6786 -176.194 19.7533 -171.764 15.8341 -168.32C12.5746 -165.612 8.97476 -163.344 5.1264 -161.571C1.54245 -159.933 -2.13901 -158.518 -5.89704 -157.333L-15.1127 -154.139C-17.3788 -153.398 -19.6448 -152.657 -21.8494 -151.809C-22.6552 -151.486 -23.5674 -151.101 -24.3732 -150.778C-27.7544 -149.203 -31.0281 -147.408 -34.1731 -145.403C-38.9429 -142.36 -42.8561 -138.148 -45.5417 -133.168C-48.6529 -127.26 -50.4058 -120.718 -48.3906 -112.807C-47.6492 -109.735 -46.2037 -106.877 -44.1682 -104.46C-42.1326 -102.042 -39.5628 -100.131 -36.6617 -98.8772C-30.4959 -96.0565 -24.4169 -95.5962 -18.3706 -95.6841C-12.6313 -95.799 -6.92081 -96.5292 -1.33713 -97.8619C3.75965 -99.103 8.77858 -100.725 13.6912 -102.285C16.7181 -103.182 19.6223 -104.291 22.5265 -105.401C24.7312 -106.248 26.6452 -107.353 28.8499 -108.201C31.5863 -109.355 34.4905 -110.465 37.2883 -111.513C40.4665 -112.639 43.7511 -113.826 47.0521 -114.74C51.537 -116.045 56.3088 -115.987 60.7605 -114.572C65.2936 -113.085 69.2406 -110.202 72.0375 -106.337C75.9296 -101.069 77.7683 -95.183 79.1202 -89.1576C80.7333 -80.9126 81.2571 -72.4916 80.6785 -64.1102C80.155 -55.4586 79.1663 -46.8414 77.7169 -38.2961C76.2798 -29.2426 74.5073 -20.2789 73.2379 -11.1805C71.9193 -2.48313 71.9125 6.36283 73.2177 15.0622C74.5528 22.5357 77.0464 29.7549 80.6086 36.4591C82.9361 40.4127 85.6845 44.1026 88.806 47.4648C95.118 53.8273 102.401 59.1468 110.382 63.2241C116.519 66.4866 122.595 69.6428 128.626 72.9668C137.391 77.8774 145.295 84.1854 152.028 91.642C157.401 97.7561 162.774 103.87 168.36 109.861C173.324 115.339 178.936 120.193 185.072 124.317C191.381 128.343 197.957 131.937 204.752 135.074C210.45 137.644 215.831 140.865 220.787 144.674C223.423 146.775 225.693 149.296 227.507 152.138C229.716 155.565 230.804 159.595 230.619 163.669C230.192 168.974 227.677 173.892 223.628 177.347C220.466 179.977 216.999 182.217 213.301 184.018C210.382 185.392 207.387 186.601 204.331 187.637C201.914 188.607 199.558 189.684 197.079 190.548C194.6 191.412 192.015 192.337 189.491 193.369C187.667 194.139 185.736 194.97 183.912 195.739C181.176 196.894 178.546 197.987 175.871 199.248C174.746 199.755 173.728 200.202 172.603 200.709C168.361 202.449 164.181 204.296 159.939 206.036C155.545 207.808 150.936 208.991 146.232 209.554C138.395 210.325 130.482 209.489 122.979 207.099C114.134 204.549 105.317 201.557 96.5495 199.388C88.7272 197.382 80.8928 196.091 73.1648 194.74C61.718 192.841 50.3942 191.156 38.8816 188.161C31.227 186.199 23.5724 184.238 15.8115 182.339" stroke="#F2F4F6" stroke-linecap="round" stroke-linejoin="round"/>
<path d="M456.259 108.248C455.687 109.712 455.176 111.284 454.604 112.748C453.129 116.578 451.653 120.407 450.116 124.13C448.894 127.319 446.686 130.034 443.814 131.88C441.634 133.035 439.245 133.739 436.787 133.953C432.357 134.384 427.955 134.373 423.508 134.53C409.493 134.64 395.562 136.717 382.123 140.7C379.371 141.58 376.618 142.46 373.988 143.553C370.552 144.97 367.239 146.599 363.864 148.122C361.729 148.977 359.692 150.059 357.786 151.348C354.613 153.464 351.578 156.066 348.466 158.289C344.387 161.409 340.618 164.915 337.211 168.757C334.982 171.036 333.212 173.618 331.044 176.004C327.544 180.01 324.211 184.061 320.526 187.748C318.085 190.15 315.214 191.807 311.311 190.941C308.742 190.354 306.489 188.819 305.001 186.644C302.259 183.123 301.19 179.061 300.015 175.06C297.726 167.166 295.878 159.3 293.695 151.344C291.777 143.908 289.243 136.644 286.12 129.628C284.659 126.36 283.03 123.047 281.462 119.84C280.279 117.545 279.141 115.083 277.684 112.805C273.841 106.668 269.424 100.91 264.493 95.6072C260.499 91.3908 256.248 87.465 251.951 83.7069C243.649 76.4483 234.544 70.5031 225.894 63.8705C218.054 57.9045 210.411 51.5418 202.661 45.2403C193.061 37.4544 183.22 30.2331 172.672 24.9798C166.313 21.7793 159.788 18.9205 153.124 16.4157C149.188 15.0016 145.252 13.5872 141.361 12.0053C136.093 9.97577 131.146 7.1969 126.672 3.75467C122.019 0.0181419 118.669 -5.09619 117.103 -10.8547C115.489 -16.6712 114.921 -22.7281 115.424 -28.7434C115.806 -38.8888 117.758 -48.5233 119.268 -58.1863C120.187 -63.9629 121.441 -69.6496 122.527 -75.3812C123.749 -81.616 124.908 -87.957 126.236 -94.2532C129.291 -109.345 131.385 -124.875 133.875 -140.208C135.156 -149.115 137.379 -157.86 140.506 -166.297C143.956 -175.615 148.896 -184.309 155.135 -192.042C157.577 -195.197 160.446 -197.998 163.658 -200.365C165.191 -201.393 166.541 -202.739 168.136 -203.66C175.066 -207.624 183.031 -209.406 190.99 -208.773C195.666 -208.439 200.284 -207.533 204.74 -206.077C209.907 -204.357 214.786 -201.867 219.212 -198.693C222.594 -196.201 225.515 -193.137 227.842 -189.639C232.426 -182.928 234.576 -175.52 236.407 -167.928C238.438 -158.7 239.989 -149.373 241.055 -139.985C241.81 -134.749 242.458 -129.451 243.273 -124.109C244.068 -118.333 245.571 -112.677 247.75 -107.268C250.364 -101.144 254.448 -95.7585 259.639 -91.5879C265.891 -86.4068 272.61 -82.6292 279.283 -78.6836C287.835 -73.6956 296.492 -68.7687 305.195 -64.0098C309.913 -61.4873 314.72 -59.3003 319.528 -57.1132C329.338 -52.6819 339.724 -49.6569 350.379 -48.1274C355.379 -47.3272 360.345 -47.075 365.328 -46.5489C365.838 -46.4226 366.358 -46.3436 366.882 -46.3123" stroke="#F2F4F6" stroke-linecap="round" stroke-linejoin="round"/>
<path opacity="0.6" d="M-11.6896 -302.442C-10.9067 -297.648 -10.2301 -292.792 -9.34085 -288.06C-7.92018 -278.987 -6.03988 -269.993 -3.70729 -261.111C-1.77432 -254.57 0.539005 -248.108 3.06508 -241.768C6.48361 -233.391 10.0085 -225.075 12.9852 -216.727C16.1461 -208.059 17.5562 -199.232 15.9185 -190.771C14.9085 -185.119 12.2567 -179.89 8.29386 -175.735C4.51931 -171.713 -0.28254 -169.224 -5.02299 -166.629C-7.73154 -165.377 -10.514 -164.291 -13.3549 -163.378C-15.5596 -162.53 -17.8092 -161.515 -20.0139 -160.668C-22.2186 -159.82 -24.6974 -158.956 -26.9021 -158.109C-27.9268 -157.775 -28.9319 -157.384 -29.9126 -156.938C-33.7551 -155.096 -37.4887 -153.035 -41.095 -150.765C-47.1345 -146.683 -51.9021 -140.982 -54.8513 -134.316C-58.24 -127.15 -59.2962 -119.101 -57.8711 -111.304C-57.2433 -107.381 -55.6936 -103.664 -53.3493 -100.458C-51.0049 -97.2509 -47.9329 -94.6464 -44.3859 -92.8583C-38.1423 -89.6572 -31.879 -88.8779 -25.71 -88.753C-18.9136 -88.5148 -12.1135 -89.1077 -5.46088 -90.5186C-0.241308 -91.5471 4.85553 -92.7882 9.95231 -94.0293C14.5009 -95.2376 19.0945 -96.6135 23.5817 -97.9281C28.5557 -99.382 33.5296 -100.836 38.565 -102.183C43.3977 -103.577 48.46 -103.993 53.4554 -103.407C58.6211 -102.733 63.3481 -100.152 66.7079 -96.1706C69.5388 -92.7478 71.5657 -88.7337 72.6393 -84.4236C74.7809 -76.4821 75.6099 -68.2439 75.0934 -60.0349C74.7045 -48.1836 72.6217 -37.056 70.768 -25.777C68.9876 -16.1085 67.9569 -6.3168 67.6848 3.51046C67.4748 12.8413 69.0782 22.1242 72.4062 30.8439C77.6497 44.0444 86.9054 55.2653 98.8677 62.9238C105.619 67.2497 112.673 71.1174 119.62 75.0465C128.898 80.0459 137.339 86.4627 144.638 94.065C149.045 98.7517 153.15 103.897 157.3 108.874C160.254 112.273 162.996 115.794 166.057 119.131C170.104 123.513 174.486 127.573 179.164 131.272C185.201 135.774 191.512 139.897 198.06 143.617C202.057 145.764 205.794 148.364 209.197 151.365C212.41 154.473 214.771 158.072 214.229 162.781C213.981 165.635 212.692 168.297 210.607 170.26C207.846 173.198 204.441 175.455 200.66 176.854C199.058 177.496 197.504 178.251 196.009 179.113C193.334 180.374 190.643 181.361 187.968 182.622L184.593 184.145C181.918 185.406 179.198 186.834 176.462 187.989C174 189.127 171.521 189.99 169.058 191.129C166.915 192.082 164.727 193.204 162.522 194.052C159.618 195.161 156.546 196.226 153.519 197.123C147.268 198.893 140.76 199.582 134.277 199.158C128.567 198.639 122.912 197.635 117.372 196.156C106.928 193.537 96.3602 190.706 85.8135 189.139C76.3182 187.673 66.9008 186.588 57.4504 184.955C47.3905 183.248 37.3261 180.551 27.3232 177.961C21.9555 176.522 16.4981 175.42 11.1919 174.088" stroke="#F2F4F6" stroke-linecap="round" stroke-linejoin="round"/>
<path d="M8.73223 -314.233C9.47781 -310.977 10.2234 -307.721 10.8012 -304.509C12.5221 -295.533 15.002 -286.719 18.2141 -278.163C19.5246 -274.701 21.1241 -271.356 22.9954 -268.162C26.2944 -262.694 29.9573 -257.577 34.9698 -253.807C40.6141 -249.105 47.892 -246.832 55.2092 -247.485C60.8581 -248.236 66.4185 -249.547 71.8085 -251.397C81.0905 -254.384 90.8423 -255.64 100.578 -255.104C106.192 -254.764 111.734 -253.672 117.057 -251.857C119.45 -250.971 121.734 -249.817 123.865 -248.415C125.588 -247.329 127.013 -245.831 128.013 -244.057C129.012 -242.282 129.555 -240.287 129.592 -238.251C129.737 -234.574 129.327 -230.896 128.376 -227.341C126.21 -219.576 123.092 -212.108 119.093 -205.108C115.708 -199.183 111.97 -193.623 108.646 -187.592C105.171 -181.332 101.758 -174.965 100.345 -167.344C99.1418 -160.169 98.9691 -152.861 99.8319 -145.638C100.46 -137.918 101.363 -130.216 102.159 -122.451C103.039 -113.004 103.168 -103.501 102.544 -94.0326C102.19 -88.0148 101.624 -81.8742 100.934 -75.9464C100.008 -68.4639 99.0819 -60.9815 97.8202 -53.589C96.3951 -45.2514 94.9086 -37.0203 93.2544 -28.834C91.5107 -20.4828 90.5291 -11.9903 90.3214 -3.46147C90.1459 3.17312 91.1765 9.78444 93.363 16.0508C95.2592 21.3012 98.1857 26.1196 101.971 30.2228C106.732 35.2616 112.41 39.3457 118.702 42.2566C123.526 44.7177 128.423 46.5694 133.398 48.8014C141.432 52.134 149.123 56.2418 156.36 61.0666C161.22 64.4827 165.792 68.2933 170.027 72.4594C175.809 78.0538 181.44 83.8772 187.267 89.3039C193.523 95.0815 200.515 100.008 208.061 103.955C215.786 108.002 223.556 111.882 231.236 116.097C238.184 119.87 244.364 124.91 249.457 130.957C251.381 133.271 253.161 135.699 254.79 138.229C257.068 141.522 258.825 145.146 260.001 148.974C261.166 152.402 262.057 155.917 262.667 159.487C263.46 164.772 263.356 170.154 262.357 175.404C261.124 182.667 257.937 189.457 253.139 195.047C251.031 197.62 248.551 199.864 245.782 201.706C243.191 203.507 240.498 205.156 237.716 206.646C234.084 208.459 230.435 209.998 226.725 211.431C222.697 213.048 218.545 214.453 214.577 216.177C211.735 217.393 208.953 218.715 206.233 220.143C200.581 223.123 194.989 226.209 189.46 229.402C183.46 233.008 177.476 236.888 171.476 240.494C167.401 242.75 163.045 244.454 158.522 245.563C154.112 246.776 149.544 247.31 144.973 247.146C140.125 247.014 135.319 246.21 130.692 244.758C122.562 242.22 114.686 238.401 106.749 234.477C95.5467 228.711 83.5934 224.54 71.2362 222.085C62.1662 220.373 53.2191 218.875 44.1492 217.164C41.1463 216.629 38.1885 215.926 35.292 215.33" stroke="#F2F4F6" stroke-linecap="round" stroke-linejoin="round"/>
<path d="M4.26173 -311.652C6.19147 -302.415 8.05991 -293.285 10.2637 -284.065C11.7349 -277.978 13.823 -272.058 16.4956 -266.395C18.7553 -261.744 21.5465 -257.401 24.2315 -252.996C26.5627 -249.349 29.3125 -245.987 32.4247 -242.98C36.4452 -238.767 41.2447 -235.375 46.5575 -232.99C51.6038 -230.82 57.2579 -230.515 62.508 -232.132C66.5084 -233.308 70.3696 -234.97 74.2923 -236.526C80.2683 -238.7 86.3835 -240.387 93.2235 -240.083C96.6861 -239.948 100.065 -238.98 103.075 -237.263C108.206 -234.27 110.494 -230.061 110.414 -224.06C110.253 -219.869 109.125 -215.772 107.117 -212.089C104.083 -205.801 99.8265 -200.649 95.4633 -195.436C91.6153 -190.804 87.8122 -186.339 85.4169 -180.419C83.4936 -175.335 82.8587 -169.854 83.5689 -164.464C84.3156 -157.522 86.6454 -150.786 88.5334 -144.077C90.5607 -136.882 92.7557 -129.642 94.0671 -122.459C96.398 -109.506 97.0607 -96.3086 96.0392 -83.1876C95.6808 -78.1599 95.261 -73.2384 94.6285 -68.1942C93.9676 -62.7082 93.3066 -57.2223 92.3716 -51.7198C91.1998 -44.6627 89.6926 -37.6953 88.3531 -30.6832C86.4216 -19.7846 84.3837 -8.82471 85.0911 2.96076C85.3752 8.80296 86.5939 14.5619 88.7006 20.0184C91.4599 27.0024 95.8725 33.2126 101.56 38.1162C106.782 42.4484 112.548 46.0788 118.712 48.9147C126.756 52.778 135.012 56.5183 143.011 60.5493C150.212 64.3977 156.808 69.2847 162.586 75.0532C168.369 80.6476 173.999 86.4712 179.63 92.2948C186.902 99.6847 195.337 105.832 204.598 110.491C212.094 114.387 219.68 117.948 227.237 121.95C233.394 125.233 238.925 129.575 243.575 134.778C252.73 145.231 256.788 156.926 255.307 169.833C254.624 176.044 252.324 181.967 248.636 187.012C246.866 189.647 244.637 191.942 242.056 193.789C239.355 195.867 236.508 197.748 233.537 199.416C230.58 200.957 227.54 202.333 224.432 203.539C221.802 204.632 219.233 205.831 216.709 206.863C214.186 207.895 211.646 208.652 209.122 209.684C207.13 210.409 205.261 211.346 203.33 212.177C191.869 217.376 181.452 224.383 170.315 230.388C164.195 233.815 157.517 236.134 150.591 237.238C142.845 238.116 135.001 237.214 127.657 234.599C120.774 232.117 114.043 229.233 107.498 225.961C97.2109 221.024 86.3481 217.389 75.1612 215.139C66.7622 213.608 58.3631 212.076 49.9028 210.439C43.3325 209.128 36.6843 207.436 30.159 205.957C29.9913 205.913 29.7172 205.929 29.5494 205.884" stroke="#F2F4F6" stroke-linecap="round" stroke-linejoin="round"/>
<path d="M446.617 91.5537C446.144 92.4019 445.624 93.2227 445.059 94.0127C442.969 96.7787 440.774 99.6063 438.561 102.16C435.753 105.571 432.752 108.818 429.573 111.886C427.398 113.847 424.985 115.526 422.391 116.884C418.222 118.813 413.954 120.52 409.605 121.997C403.187 124.143 396.646 126.076 390.167 128.115C385.254 129.675 380.174 131.191 375.261 132.751C372.995 133.492 370.746 134.507 368.541 135.355C365.53 136.526 362.626 137.635 359.677 138.913C358.446 139.482 357.154 139.944 356.09 140.558C350.393 143.706 344.589 146.915 338.891 150.063C336.445 151.475 334.139 153.373 331.57 154.573C328.363 156.141 325.324 157.754 321.61 158.197C316.525 158.722 312.327 156.608 309 151.582C306.945 148.514 304.997 145.385 303.261 142.134C301.526 138.882 300.216 135.385 298.587 132.072C297.387 129.503 295.975 127.057 294.882 124.427C291.904 118.083 288.54 111.928 284.808 105.997C282.405 102.072 279.79 98.2806 276.975 94.6392C272.601 88.9546 267.774 83.6332 262.542 78.7266C257.525 73.9664 252.295 69.329 247.233 64.7366C241.423 59.584 235.567 54.5991 229.818 49.5529C225.001 45.3858 220.185 41.2189 215.475 36.9905C205.04 27.8134 193.187 20.3874 180.377 15.0012C176.257 13.268 172.076 11.4285 167.911 9.863C161.946 7.63541 155.89 5.74324 150.032 3.45425C144.684 1.55427 139.686 -1.21245 135.237 -4.735C132.484 -6.87614 130.237 -9.59569 128.652 -12.7016C127.281 -15.6267 126.265 -18.7057 125.626 -21.8725C124.426 -28.5294 124.277 -35.3331 125.186 -42.036C125.785 -47.6284 126.324 -53.327 127.32 -58.7231C128.672 -66.4511 130.252 -74.0279 131.833 -81.6046C132.846 -86.7267 133.92 -91.7426 134.994 -96.7583C136.575 -104.335 138.156 -111.912 139.675 -119.595C140.288 -122.217 140.565 -124.929 141.178 -127.552C143.351 -139.015 145.478 -150.31 149.697 -160.686C153.13 -169.474 157.709 -177.506 163.987 -183.824C166.064 -185.875 168.432 -187.667 170.633 -189.505C174.3 -192.303 178.623 -194.116 183.19 -194.77C187.413 -195.397 191.721 -195.131 195.835 -193.988C200.497 -192.797 204.848 -190.62 208.596 -187.602C213.38 -183.731 217.137 -178.742 219.536 -173.075C223.29 -164.684 225.507 -155.687 226.081 -146.512C226.784 -135.716 227.045 -124.949 227.413 -114.243C227.505 -108.881 228.25 -103.55 229.631 -98.3675C230.495 -95.3368 231.667 -92.4026 233.128 -89.6103C235.886 -84.4992 240.006 -80.2525 245.032 -77.3416C249.809 -74.6584 254.884 -72.5442 260.154 -71.0424C269.247 -68.2647 278.184 -64.9997 286.927 -61.2615C294.664 -57.9299 302.389 -53.8827 310.081 -50.3834C319.634 -46.1156 329.216 -42.2897 338.973 -40.1246C345.366 -38.6465 351.863 -37.6571 358.406 -37.165C362.992 -36.8351 367.561 -36.7792 372.147 -36.4493C372.605 -36.372 373.054 -36.2516 373.489 -36.0897" stroke="#F2F4F6" stroke-linecap="round" stroke-linejoin="round"/>
<path opacity="0.4" d="M-15.7078 -299.834C-15.6749 -299.285 -15.8097 -298.782 -15.7768 -298.234C-14.9566 -291.902 -14.1364 -285.569 -13.0421 -279.253C-11.3086 -269.62 -9.57503 -259.986 -6.19703 -250.452C-3.28171 -242.21 -0.198738 -233.923 2.71658 -225.681C5.36986 -218.138 7.70418 -210.411 7.95213 -202.614C8.28234 -193.447 5.6338 -186.246 0.419809 -180.542C-3.29335 -176.413 -8.09529 -173.924 -12.8357 -171.329C-16.0014 -169.812 -19.2439 -168.46 -22.5501 -167.28C-25.5606 -166.109 -28.5876 -165.212 -31.5981 -164.041C-33.9091 -163.132 -36.0972 -162.011 -38.2405 -161.057C-40.7478 -159.751 -43.3779 -158.658 -45.656 -157.201C-51.1056 -153.78 -55.7175 -149.179 -59.1514 -143.738C-63.5156 -136.69 -66.1472 -128.708 -66.8306 -120.446C-67.5487 -114.34 -66.971 -108.151 -65.1353 -102.283C-64.0368 -98.7553 -62.2009 -95.5011 -59.7492 -92.7365C-57.2974 -89.9719 -54.2861 -87.7602 -50.9146 -86.2479C-45.6189 -83.7736 -39.8897 -82.3606 -34.0508 -82.0887C-26.4088 -81.5129 -18.7247 -81.9002 -11.1793 -83.2415C-2.03274 -84.8358 7.05251 -86.5363 16.0599 -88.6174C23.9873 -90.3585 31.8369 -92.4802 39.9815 -93.3541C44.5191 -94.0144 49.1491 -93.5753 53.4817 -92.0738C57.3561 -90.6487 60.7111 -88.0896 63.1097 -84.7299C67.141 -78.9753 68.6772 -72.6309 69.3911 -66.2371C70.1901 -59.2977 70.0932 -52.2845 69.1031 -45.3698C68.3523 -39.5483 67.7078 -33.7881 66.957 -27.9666C66.5164 -24.3092 65.5725 -20.7868 65.1318 -17.1295C64.0138 -8.26018 62.9571 0.715457 63.5165 10.0342C63.8768 18.4432 65.601 26.738 68.6216 34.5941C70.191 38.7479 72.1624 42.7383 74.5079 46.5086C78.6008 53.0077 83.6833 58.8279 89.5718 63.759C97.0478 70.0769 105.08 74.6561 113.189 79.6157C117.985 82.5187 122.522 85.7121 127.166 88.8442C132.719 92.8809 137.736 97.6082 142.094 102.912C145.585 106.993 148.757 111.259 152.035 115.464C158.53 123.766 165.025 132.068 172.247 139.667C175.599 143.261 178.906 147.024 182.212 150.786C187.004 156.385 187.546 161.744 183.989 166.634C182.063 169.098 179.759 171.242 177.163 172.985C174.958 174.7 172.645 176.272 170.239 177.691C166.136 179.918 161.956 181.765 157.731 183.779C153.813 185.65 149.65 186.955 145.366 187.657C139.912 188.735 134.328 188.996 128.798 188.431C118.513 187.563 108.114 184.776 97.7346 183.254C87.3557 181.731 77.0994 180.421 66.7819 179.005C56.3069 177.603 45.9305 175.543 35.7141 172.838C26.153 170.276 16.7433 167.485 7.23154 165.745C7.0638 165.701 6.7897 165.717 6.62196 165.672" stroke="#F2F4F6" stroke-linecap="round" stroke-linejoin="round"/>
<path d="M437.84 76.3457C437.901 76.5034 437.948 76.6662 437.98 76.8323C433.215 80.8593 429.322 85.659 425.139 90.2012C421.728 93.8717 418.424 97.481 414.829 100.833C412.545 102.864 410.098 104.704 407.512 106.333C405.87 107.635 404.117 108.789 402.273 109.783C399.066 111.351 395.905 112.751 392.637 114.213C390.706 115.044 388.837 115.981 386.845 116.706C384.64 117.553 382.435 118.401 380.169 119.142C377.478 120.129 374.786 121.115 372.033 121.996C370.148 122.659 368.201 123.216 366.315 123.879C363.624 124.866 360.932 125.853 358.179 126.733C355.001 127.859 351.761 128.879 348.415 129.96C345.07 131.041 341.953 132.274 338.652 133.187C334.377 134.379 330.086 135.296 325.255 134.541C320.179 133.514 315.638 130.703 312.456 126.617C309.853 123.585 307.539 120.317 305.543 116.855C303.21 112.814 300.71 108.728 298.27 104.748C295.831 100.768 293.224 96.7439 290.465 92.9485C284.749 84.8249 278.422 77.1494 271.538 69.9887C265.494 63.6949 259.237 57.5237 253.237 51.0621C247.361 44.8132 241.742 38.2738 235.972 31.9635C231.151 26.8065 226.498 21.6944 221.482 16.9343C216.555 12.3882 210.947 8.64096 204.861 5.82882C196.482 1.87567 187.944 -0.142416 179.495 -2.49603C173.563 -4.17546 167.676 -6.02253 161.743 -7.70196C156.384 -9.25478 151.326 -11.7043 146.785 -14.9463C142.895 -17.7684 139.88 -21.6294 138.084 -26.0869C135.652 -31.7724 135.262 -37.3603 135.207 -42.8584C135.107 -51.1536 135.938 -59.4337 137.687 -67.5432C139.684 -77.3455 142.123 -87.1194 144.349 -96.7704C146.457 -105.644 148.52 -114.35 150.69 -123.117C152.503 -131.23 154.74 -139.242 157.391 -147.12C159.462 -153.302 162.45 -159.138 166.254 -164.432C168.993 -168.182 172.554 -171.256 176.663 -173.418C182.774 -176.096 189.2 -176.261 195.911 -170.778C198.118 -168.909 200.015 -166.702 201.53 -164.238C204.447 -159.182 206.403 -153.629 207.299 -147.86C208.922 -139.156 208.593 -130.884 208.6 -122.522C208.553 -115.973 208.506 -109.423 208.962 -102.739C209.442 -95.3623 211.009 -88.0969 213.612 -81.1779C215.773 -75.2175 219.195 -69.7935 223.644 -65.2759C227.747 -61.2242 232.781 -58.2396 238.304 -56.5834C244.217 -55.0848 250.26 -54.1579 256.35 -53.8155C265.035 -53.0165 273.675 -52.0498 282.385 -48.9967C289.463 -46.5608 296.558 -43.8509 303.652 -41.141C308.382 -39.3344 313.189 -37.1474 317.919 -35.3408C327.253 -31.6809 337.013 -29.2168 346.966 -28.007C353.168 -27.334 359.415 -26.8288 365.6 -26.4299C369.683 -26.2349 373.688 -26.4202 377.709 -26.3315C378.167 -26.2542 378.616 -26.1337 379.051 -25.9719" stroke="#F2F4F6" stroke-linecap="round" stroke-linejoin="round"/>
<path opacity="0.2" d="M-21.8999 -296.547C-21.0797 -290.215 -20.2596 -283.882 -19.378 -277.444C-18.2651 -268.032 -16.4002 -258.725 -13.8013 -249.611C-11.9297 -243.177 -9.67778 -236.821 -7.59352 -230.509C-5.16937 -223.118 -2.85157 -215.665 -2.39094 -207.991C-1.96321 -200.865 -3.45853 -194.614 -7.06094 -189.556C-9.63037 -186.043 -12.9263 -183.124 -16.7248 -180.999C-20.7669 -178.686 -25.0161 -176.755 -29.4169 -175.231C-33.5686 -173.827 -37.7203 -172.422 -41.7493 -170.805C-45.0359 -169.496 -48.2524 -168.018 -51.3859 -166.375C-53.7793 -165.206 -56.0889 -163.873 -58.2981 -162.385C-61.849 -159.749 -64.9294 -156.532 -67.4094 -152.871C-71.5322 -146.267 -74.4303 -138.974 -75.9647 -131.342C-77.8854 -123.039 -78.6874 -114.517 -78.3496 -106.002C-78.1877 -101.02 -77.1288 -96.1078 -75.2237 -91.5013C-73.0529 -86.5599 -69.3782 -82.4296 -64.7229 -79.6987C-58.5077 -76.0558 -51.9988 -74.851 -45.5678 -74.0267C-38.365 -73.2241 -31.0946 -73.236 -23.8945 -74.0622C-13.3895 -75.0229 -3.10163 -76.8506 7.12484 -78.7848C13.6534 -80.0018 20.2433 -81.1128 26.8497 -81.9494C32.092 -82.8182 37.4397 -82.8418 42.6895 -82.0198C46.9904 -81.3846 50.9893 -79.4341 54.1374 -76.4355C56.0963 -74.526 57.6864 -72.2714 58.8277 -69.7852C62.2133 -61.9565 62.674 -54.2821 62.3123 -46.5585C62.0768 -41.3181 61.3993 -36.1062 60.8282 -30.9557C60.2856 -26.247 59.5754 -21.5831 58.9714 -16.9807C57.6451 -7.78522 57.0802 1.50397 57.2825 10.7924C57.5911 20.0226 59.3642 29.1451 62.5356 37.8188C63.5224 40.5103 64.7219 43.0791 65.9214 45.6477C66.8324 47.7567 67.9109 49.789 69.1468 51.7255C73.3035 58.5096 78.357 64.7016 84.1702 70.1337C91.3436 76.9099 99.2405 81.9923 107.154 87.3488C114.38 92.2513 121.455 97.383 127.744 104.102C130.935 107.437 133.887 110.992 136.58 114.74C138.573 117.701 140.734 120.707 142.727 123.668C145.764 128.437 148.695 133.267 151.413 138.22C153.837 142.418 155.405 147.054 156.027 151.862C156.321 154.421 156.007 157.014 155.11 159.429C154.213 161.844 152.759 164.013 150.865 165.76C148.675 167.964 146.068 169.711 143.197 170.897C140.261 172.078 137.221 172.979 134.116 173.587C129.244 174.54 124.266 174.838 119.315 174.475C114.349 174.223 109.305 173.591 104.216 173.126C96.6882 172.368 89.0994 171.503 81.6334 170.851C67.8142 169.755 53.9173 168.279 39.995 164.548C31.6694 162.407 23.3274 159.992 15.0633 157.957C10.0925 156.715 5.09326 155.915 0.0326086 155.009" stroke="#F2F4F6" stroke-linecap="round" stroke-linejoin="round"/>
<path d="M0.966297 -309.749C2.5068 -302.415 3.87958 -295.125 5.42008 -287.791C7.06453 -280.08 9.30311 -272.508 12.1158 -265.142C14.4789 -258.961 17.4706 -253.038 21.0437 -247.468C23.4666 -243.763 26.0408 -240.287 28.6765 -236.704C35.3719 -227.808 43.2493 -220.304 50.46 -211.99C55.0692 -206.956 57.8406 -200.511 58.3242 -193.702C58.7311 -187.84 59.1994 -181.872 59.6677 -175.903C60.2372 -169.201 62.5383 -162.761 66.3458 -157.215C69.2435 -152.933 72.7793 -149.019 75.6769 -144.736C78.2621 -140.75 80.6393 -136.633 82.799 -132.401C85.1572 -127.717 87.0021 -122.793 88.3017 -117.712C89.6766 -112.872 90.6363 -107.924 91.1701 -102.921C92.1111 -94.0683 92.2782 -85.1506 91.6695 -76.2691C91.4416 -72.7346 91.2135 -69.2002 90.8178 -65.7105C90.2303 -60.8341 89.7042 -55.8513 88.7812 -51.0647C87.4296 -43.3367 85.804 -35.5921 84.4524 -27.8641C82.852 -17.8656 80.9775 -7.8506 81.4064 2.96134C81.5354 9.91855 82.9553 16.7913 85.5938 23.2301C88.5492 30.3478 93.0884 36.698 98.8663 41.7982C104.573 46.4938 110.855 50.4426 117.561 53.5492C124.414 56.8238 131.312 59.9306 138.014 63.4343C145.295 67.2071 151.966 72.0552 157.802 77.8154C164.059 83.9865 170.013 90.616 176.164 96.8484C183.674 104.581 192.448 110.976 202.11 115.756C209.086 119.243 216.213 122.502 223.144 126.157C229.46 129.31 235.102 133.661 239.757 138.968C248.408 149.286 251.718 160.42 248.8 172.313C247.254 178.702 243.703 184.429 238.669 188.655C235.651 191.408 232.275 193.739 228.632 195.584C225.319 197.214 221.822 198.524 218.386 199.94C215.163 201.234 212.107 202.573 208.884 203.867C206.36 204.898 203.607 205.779 201.084 206.81C198.712 207.749 196.388 208.806 194.122 209.979C188.257 213.081 182.498 216.123 176.633 219.226C173.913 220.654 171.361 222.128 168.579 223.45C165.524 224.789 162.407 226.021 159.184 227.315C155.552 228.748 151.736 229.662 147.849 230.03C141.075 230.709 134.235 229.918 127.795 227.713C123.02 226.074 118.123 224.223 113.438 222.248C109.441 220.728 105.579 218.704 101.582 217.184C92.4983 213.644 83.0899 211.002 73.4913 209.297C60.9318 207.191 48.4786 205.022 35.9147 201.926C32.4535 201.088 28.8247 200.206 25.3022 199.262" stroke="#F2F4F6" stroke-linecap="round" stroke-linejoin="round"/>
<path opacity="0.6" d="M58.1704 255.707C64.9731 256.145 71.6906 257.462 78.1555 259.623C84.108 261.645 89.915 264.072 95.5357 266.887C102.668 270.503 110.006 273.699 117.511 276.461C125.139 279.058 133.052 280.725 141.08 281.428C148.017 282.015 154.999 281.835 161.898 280.893C167.031 280.251 172.071 279.007 176.914 277.186C180.137 275.893 183.36 274.599 186.522 273.199C188.772 272.184 191.005 270.894 193.299 269.711C198.784 266.686 204.314 263.494 209.86 260.575C212.474 259.208 215.333 258.266 218.114 256.944C221.526 255.472 225.143 254.532 228.84 254.155C235.34 253.38 241.881 255.132 248.101 259.765C251.791 262.746 255.1 266.169 257.955 269.957C263.59 276.77 269.377 283.354 276.39 288.38C282.1 292.573 288.657 295.465 295.603 296.854C300.591 297.798 305.646 298.341 310.72 298.477C328.511 298.642 352.585 303.461 362.919 285.497C366.342 279.386 370.597 273.779 375.562 268.839C378.368 266.085 381.279 263.269 384.208 260.728C386.984 258.416 389.884 256.316 392.723 254.11C396.138 251.43 399.446 248.81 402.923 246.236C404.865 244.689 407.098 243.4 409.147 241.792C411.409 240.061 413.609 238.223 415.81 236.385C417.54 234.961 419.225 233.705 420.893 232.174C423.676 229.969 426.344 227.624 428.889 225.148C432.618 221.293 436.119 217.287 439.496 213.068C445.653 205.061 450.153 195.908 452.734 186.142C454.323 180.546 455.684 174.797 457.273 169.201C457.995 165.787 459.678 162.652 462.122 160.163C464.261 158.219 466.773 157.903 469.514 157.738C473.306 157.676 477.012 158.939 480.764 160.034C482.503 160.59 484.241 161.145 485.935 161.869C486.5 162.11 487.02 162.519 487.646 162.867" stroke="#F2F4F6" stroke-linecap="round" stroke-linejoin="round"/>
<path d="M427.909 59.3927C427.459 60.0442 426.963 60.6623 426.425 61.2422C419.55 66.7711 414.205 73.9687 408.386 80.5895C405.356 84.1822 402.158 87.73 398.837 91.0651C396.3 93.3841 393.596 95.5138 390.748 97.4371C388.571 99.0474 386.288 100.508 383.913 101.808C380.981 103.36 377.864 104.592 374.808 105.931C368.429 108.613 361.779 110.598 354.974 111.852C348.994 113.037 342.829 113.902 336.381 112.803C330.212 111.677 324.548 108.651 320.183 104.148C316.61 100.433 313.319 96.456 310.337 92.2512C305.372 85.6175 300.408 78.9836 295.018 72.5955C289.215 65.737 283.003 59.3983 276.988 52.6626C271.1 46.485 265.583 39.9641 260.467 33.1342C258.122 29.8091 255.732 26.6517 253.493 23.2652C251.377 20.0913 249.093 16.8724 247.296 13.5144C244.524 8.67106 242.021 3.67912 239.797 -1.4391C237.988 -5.35181 236.862 -9.54511 236.467 -13.8375C236.349 -15.793 236.653 -17.7511 237.36 -19.5784C238.067 -21.4056 239.159 -23.059 240.563 -24.4259C243.262 -27.1185 246.698 -28.5351 250.24 -30.013C255.592 -32.0933 261.232 -33.3407 266.962 -33.7122C273.91 -34.1673 280.884 -33.3941 287.564 -31.4279C293.329 -29.7934 299.126 -27.6108 304.968 -25.5959C314.243 -22.3017 323.535 -18.7334 332.957 -16.6583C339.344 -15.2312 345.838 -14.3329 352.373 -13.9727C357.278 -13.827 362.199 -13.4073 367.043 -13.3679C372.77 -13.2716 378.542 -13.3429 384.376 -13.3079C385.042 -13.2489 385.698 -13.1035 386.327 -12.8751" stroke="#F2F4F6" stroke-linecap="round" stroke-linejoin="round"/>
<path d="M417.643 41.3593C417.598 41.527 417.783 41.8462 417.676 41.9076C414.311 45.4104 410.884 48.8068 407.747 52.4609C402.717 58.4843 398.146 64.8103 393.177 70.9399C390.206 74.6708 386.98 78.1916 383.522 81.4769C380.279 84.4086 376.601 86.8191 372.618 88.6229C368.545 90.5211 364.206 91.7837 359.75 92.3662C354.564 93.1248 349.271 92.6313 344.315 90.927C339.745 89.2837 335.601 86.6377 332.187 83.1829C328.21 79.2407 324.445 75.1754 320.786 71.0489C314.955 64.6322 308.866 58.5063 302.58 52.7771C295.53 46.2135 288.266 39.7727 281.714 32.354C278.714 28.8403 275.955 25.1278 273.455 21.2419C270.995 17.3956 268.96 13.2936 267.385 9.00803C265.735 4.43091 265.075 -0.1506 266.243 -4.5118C266.947 -7.37848 268.675 -9.88888 271.101 -11.5701C276.279 -15.1267 282.37 -15.382 288.863 -14.4514C294.418 -13.547 299.869 -12.0864 305.133 -10.0917C315.856 -6.49932 326.58 -2.90704 337.355 -1.18825C344.782 -0.123865 352.279 0.38236 359.782 0.326289C368.585 0.348012 377.389 0.369751 386.315 0.604158C389.011 0.607385 391.74 1.15891 394.452 1.43622" stroke="#F2F4F6" stroke-linecap="round" stroke-linejoin="round"/>
<path opacity="0.4" d="M64.8638 267.3C73.2098 268.602 81.3159 271.137 88.9161 274.823C96.2725 278.233 103.629 281.642 111.182 284.654C119.216 287.744 127.624 289.755 136.187 290.636C143.01 291.45 149.888 291.699 156.752 291.382C163.938 291.107 171.059 289.903 177.937 287.8C182.089 286.395 186.224 284.716 190.253 283.099C192.883 282.006 195.39 280.7 197.959 279.501C201.546 277.855 205.178 276.042 208.827 274.503C213.445 272.314 218.36 270.814 223.413 270.051C230.948 269.104 238.345 271.355 245.285 276.99C250.146 280.99 254.856 285.218 259.672 289.385C265.859 295.109 272.836 299.914 280.389 303.655C287.637 306.967 295.287 309.319 303.144 310.652C310.05 312.053 317.046 313.118 323.927 315.951C329.351 318.096 334.079 321.695 337.59 326.353C339.407 328.887 340.97 331.594 342.256 334.435C343.762 337.536 349.237 347.911 381.737 359.411" stroke="#F2F4F6" stroke-linecap="round" stroke-linejoin="round"/>
<path opacity="0.2" d="M74.4746 283.447C77.7395 284.681 81.0044 285.915 84.1794 287.485C90.7421 290.502 97.1699 294.022 103.716 296.765C111.117 300.007 118.723 301.146 126.144 301.966C131.842 302.504 137.586 302.874 143.207 303.032C152.242 303.506 161.302 303.073 170.251 301.739C175.018 301.076 179.69 299.854 184.171 298.097C188.094 296.542 191.91 295.047 195.771 293.385C198.614 292.169 201.289 290.909 204.193 289.799C209.267 287.49 214.629 285.873 220.134 284.991C227.562 284.105 234.988 285.915 242.197 290.544C246.322 293.267 250.462 296.264 254.542 299.155C262.533 304.892 270.508 310.355 279.145 314.017C285.312 316.579 291.653 318.698 298.12 320.36C303.382 321.86 308.643 323.359 313.769 325.362C320.242 327.812 325.992 331.857 330.484 337.122C333.507 340.71 343.237 359.411 378.237 374.911" stroke="#F2F4F6" stroke-linecap="round" stroke-linejoin="round"/>
<path d="M392.776 317.322C387.982 308.038 385.443 298.728 386.847 289.126C387.863 282.228 390.484 275.664 394.499 269.962C398.286 264.629 402.618 259.704 407.426 255.268C410.337 252.453 413.249 249.637 416.284 247.034C419.318 244.432 422.308 241.997 425.236 239.455C428.528 236.562 431.82 233.669 434.99 230.563C438.159 227.457 441.177 224.58 444.118 221.323C449.623 215.202 454.603 208.628 459.002 201.67C462.224 196.69 465.384 191.604 468.897 186.882C470.736 184.469 473.049 182.458 475.694 180.973C479.677 178.87 484.27 178.225 488.678 179.148C491.513 179.638 494.426 180.509 497.277 181.273C497.877 181.552 498.45 181.886 498.988 182.27" stroke="#F2F4F6" stroke-linecap="round" stroke-linejoin="round"/>
<path d="M376.893 159.886C377.973 159.546 379.16 159.145 380.239 158.805C383.266 157.908 386.154 156.525 389.427 156.053C393.536 155.392 397.688 155.033 401.85 154.978C407.162 154.988 412.398 156.237 417.143 158.626C422.343 161.114 426.575 165.25 429.182 170.391C431.31 174.538 432.451 179.119 432.516 183.779C432.554 191.154 430.551 198.395 426.73 204.702C423.53 210.08 419.448 214.881 414.654 218.905C411.771 221.279 408.765 223.44 405.759 225.6C404.333 226.711 402.831 227.721 401.264 228.621C397.951 230.25 394.577 231.773 391.202 233.296C386.174 235.465 380.834 236.825 375.38 237.326C369.694 237.908 363.959 236.9 358.811 234.415C356.187 233.133 353.86 231.315 351.982 229.077C350.104 226.84 348.717 224.233 347.909 221.426C346.36 216.254 345.829 210.83 346.346 205.456C346.846 197.113 349.237 188.993 353.337 181.71C355.986 176.909 359.451 172.605 363.577 168.993C367.642 165.228 372.337 162.801 377.016 160.099" stroke="#F2F4F6" stroke-linecap="round" stroke-linejoin="round"/>
<path d="M380.136 169.922C381.535 169.398 382.827 168.935 384.226 168.411C387.565 167.067 391.113 166.314 394.71 166.187C399.21 165.906 403.711 166.712 407.835 168.535C411.761 170.268 415.063 173.16 417.299 176.824C419.363 180.272 420.42 184.23 420.351 188.248C420.214 194.285 418.177 200.124 414.531 204.937C412.051 208.464 408.978 211.534 405.448 214.009C402.787 215.852 400.023 217.543 397.169 219.072C392.307 221.573 386.905 222.842 381.437 222.767C376.09 222.855 370.918 220.857 367.02 217.196C364.015 214.324 361.999 210.574 361.26 206.484C359.651 198.448 361.243 190.102 365.695 183.222C367.777 179.801 370.445 176.773 373.576 174.277C375.625 172.668 377.919 171.485 380.136 169.922" stroke="#F2F4F6" stroke-linecap="round" stroke-linejoin="round"/>
<path d="M386.038 178.422C387.337 178.013 388.658 177.677 389.994 177.415C393.927 176.461 398.074 176.996 401.637 178.916C403.883 180.095 405.729 181.914 406.94 184.143C408.151 186.372 408.673 188.91 408.44 191.436C408.101 196.037 406.017 200.334 402.614 203.449C400.957 205.199 399.043 206.687 396.937 207.86C392.667 210.042 388.074 211.418 382.6 210.042C380.877 209.65 379.258 208.892 377.855 207.817C376.452 206.743 375.297 205.379 374.469 203.818C373.277 201.685 372.712 199.259 372.839 196.819C373.283 190.466 375.789 185.474 380.267 182.18C382.059 180.862 384.079 179.695 386.038 178.422Z" stroke="#F2F4F6" stroke-linecap="round" stroke-linejoin="round"/>
</g>
</g>
<defs>
<clipPath id="clip0_467_6371">
<rect width="372" height="375" fill="white"/>
</clipPath>
<clipPath id="clip1_467_6371">
<rect width="977.009" height="927.23" fill="white" transform="matrix(0.5 0.866025 0.866025 -0.5 -435.518 -198.339)"/>
</clipPath>
</defs>
</svg>
