<svg width="391" height="319" viewBox="0 0 391 319" fill="none" xmlns="http://www.w3.org/2000/svg">
<g clip-path="url(#clip0_1052_55760)">
<path d="M37.4584 -49.875C34.6341 -46.0684 31.9328 -42.2618 28.9858 -38.578C24.8676 -33.6489 20.167 -29.2371 14.9871 -25.4392C10.0754 -21.7554 4.91834 -18.3171 -0.116182 -14.8789C-11.0448 -7.51134 -21.1138 0.715794 -28.3586 10.662C-32.6315 16.4494 -36.1396 22.764 -38.796 29.4494C-40.4607 33.9248 -41.7747 38.523 -42.7257 43.2023C-43.3429 46.6918 -43.712 50.2207 -43.8307 53.7625C-44.0763 56.5867 -44.1991 59.5338 -44.1991 62.358C-44.1991 66.4102 -43.9535 70.4624 -43.8307 74.6373C-43.7079 79.0579 -43.3396 83.4784 -43.5852 88.0218C-43.9535 95.021 -44.9359 102.02 -47.8829 108.651C-50.0935 114.174 -53.7913 118.977 -58.5659 122.527C-62.5771 125.339 -67.3031 126.957 -72.196 127.193C-76.985 127.561 -81.8965 127.684 -86.6854 128.052C-92.1523 128.366 -97.5375 129.525 -102.649 131.491C-105.089 132.454 -107.432 133.646 -109.648 135.052C-115.224 138.698 -119.651 143.849 -122.418 149.91C-124.623 154.337 -126.036 159.116 -126.593 164.031C-126.981 166.674 -127.186 169.341 -127.207 172.012C-127.084 175.328 -126.593 178.52 -126.225 181.713C-125.857 184.66 -125.365 187.607 -125.243 190.677C-124.997 194.975 -124.874 199.395 -124.874 203.693C-125.021 205.967 -125.349 208.225 -125.857 210.447C-126.102 212.289 -126.348 214.253 -126.593 216.095C-126.962 218.305 -127.33 220.638 -127.576 222.849L-127.944 226.164C-128.067 228.006 -128.067 229.848 -128.312 231.69C-129.295 239.794 -129.049 248.021 -128.926 256.126C-128.782 259.701 -128.454 263.267 -127.944 266.809C-127.698 268.773 -127.576 270.738 -127.207 272.703C-126.839 275.404 -126.471 278.228 -125.857 280.93C-124.637 286.494 -122.868 291.924 -120.576 297.139C-117.338 304.462 -112.661 311.059 -106.824 316.54C-102.221 320.799 -96.8991 324.208 -91.1061 326.609C-86.7475 328.538 -81.9861 329.38 -77.2304 329.065C-72.9869 328.808 -68.8828 327.454 -65.3195 325.136C-57.7063 320.224 -52.7947 313.838 -48.8653 306.839C-45.9944 301.744 -43.6884 296.35 -41.9888 290.753C-40.8825 286.716 -40.0212 282.615 -39.41 278.474C-38.4726 273.622 -38.1429 268.672 -38.4279 263.739C-38.5734 260.978 -38.9013 258.229 -39.41 255.512C-39.9577 252.238 -40.6958 248.999 -41.6204 245.811C-43.9408 238.529 -47.3792 231.653 -51.8123 225.427C-55.2505 220.516 -58.9342 215.727 -62.4952 210.938C-65.1967 207.254 -67.7754 203.57 -68.7578 199.395C-70.3541 193.133 -68.7577 187.484 -63.1092 182.573C-61.1183 180.794 -58.7755 179.456 -56.2329 178.643C-53.6534 177.841 -50.9341 177.59 -48.2514 177.906C-42.814 178.774 -37.5747 180.604 -32.7793 183.309C-23.2014 188.098 -13.7465 193.133 -3.43184 197.062C4.991 200.228 13.7132 202.532 22.6006 203.939C29.2178 204.983 35.9237 205.353 42.6156 205.044C48.3121 204.739 53.977 204 59.5611 202.833C67.1904 201.102 74.6339 198.635 81.7868 195.466C87.3125 193.01 92.7154 190.431 97.9955 187.73C107.451 183.064 116.906 178.643 126.975 174.837C134.956 171.89 143.183 169.065 151.042 165.873C158.368 162.93 165.365 159.226 171.917 154.821C180.512 149.173 187.88 142.665 195.862 136.525C200.214 133.018 205.054 130.164 210.228 128.052C214.059 126.558 218.152 125.848 222.262 125.965C227.211 126.212 232.058 127.466 236.506 129.649C242.378 132.545 247.934 136.043 253.083 140.086C256.153 142.419 259.223 144.875 262.17 147.331C269.046 153.102 275.8 158.873 282.554 164.645C286.238 167.837 290.044 171.03 293.728 174.1C301.095 180.239 308.463 186.379 315.953 192.396C324.795 199.395 334.004 206.026 342.722 213.025C350.385 219.141 357.162 226.29 362.86 234.269C367.906 241.371 372.109 249.035 375.385 257.108C377.129 261.181 378.286 265.481 378.824 269.879C379.211 272.439 379.416 275.025 379.438 277.615C379.279 281.641 378.492 285.619 377.105 289.403C373.666 298.858 367.527 307.085 359.791 314.575C354.847 319.552 349.071 323.625 342.722 326.609C338.159 328.659 333.234 329.786 328.233 329.924C322.014 329.945 315.834 328.949 309.937 326.977C302.569 324.644 295.447 322.188 288.202 319.61C279.607 316.54 271.011 313.225 262.047 310.892C257.701 309.737 253.265 308.956 248.786 308.558C239.453 307.576 230.735 309.295 222.262 312.365C212.289 316.017 202.602 320.409 193.283 325.504C186.6 328.997 180.159 332.935 174.004 337.292C165.846 342.992 158.495 349.765 152.147 357.43C149.446 360.623 147.113 364.061 144.534 367.499C144.144 367.971 143.69 368.384 143.183 368.727" stroke="#DFE4E8" stroke-linecap="round" stroke-linejoin="round"/>
<path d="M68.8936 -49.875C66.5605 -46.928 64.3501 -44.1037 62.017 -41.2795C56.8597 -35.1398 51.8252 -29.0002 46.4223 -22.9833C41.3289 -17.3384 35.5544 -12.3476 29.2313 -8.12531C23.0916 -3.95034 16.8292 0.101811 10.8123 4.39957C1.60281 10.7848 -6.13316 18.2752 -11.2905 27.2391C-14.0927 32.0501 -16.1229 37.2709 -17.3072 42.7111C-18.2409 46.6532 -18.6946 50.6938 -18.6581 54.7448C-18.6581 56.2183 -19.0264 57.569 -18.9036 59.0425C-18.7808 63.0947 -18.5352 67.1469 -18.2896 71.3219C-18.044 74.5145 -17.7985 77.8299 -17.6757 81.0226C-17.4301 85.8115 -17.3072 90.6004 -17.3072 95.5121C-17.43 98.8276 -17.9212 102.143 -18.2896 105.458C-18.658 108.283 -18.9037 111.107 -19.272 113.808C-19.6404 116.264 -20.1316 118.72 -20.5 121.053C-20.7456 122.895 -21.2367 124.737 -21.3595 126.579C-21.8089 130.409 -22.0139 134.265 -21.9734 138.121C-21.605 149.541 -17.1847 159.979 -7.72959 168.82C-1.88966 174.287 4.94733 178.581 12.4087 181.467C17.5864 183.554 23.0522 184.837 28.6173 185.274C31.4691 185.621 34.3401 185.785 37.2128 185.765C44.0706 185.538 50.8568 184.297 57.3508 182.081C67.4199 178.766 76.0156 173.486 84.6111 168.206C93.2067 162.926 101.925 157.277 111.994 153.716C116.414 152.12 121.081 150.646 125.624 149.296C134.342 146.717 143.06 144.384 151.288 140.946C157.344 138.477 163.109 135.347 168.479 131.613C174.004 127.684 179.407 123.386 184.933 119.457C190.213 115.65 195.371 111.844 201.879 109.142C206.823 107.022 212.143 105.919 217.522 105.897C222.902 105.876 228.23 106.938 233.191 109.019C237.376 110.803 241.402 112.939 245.224 115.405C248.829 117.619 252.275 120.081 255.539 122.772C260.083 126.456 264.258 130.263 268.678 134.069C270.274 135.42 271.748 136.771 273.344 137.999C282.922 145.857 292.377 153.839 302.201 161.452C310.114 167.698 318.443 173.401 327.128 178.52C337.074 184.292 347.143 189.94 356.966 195.711C366.094 201.051 374.001 208.246 380.174 216.832C384.841 223.463 388.893 230.462 392.822 237.338C397.488 245.443 402.154 253.424 406.575 261.529C408.402 264.79 409.726 268.309 410.504 271.966C411.632 277.396 410.806 283.049 408.171 287.929C404.649 294.737 400.365 301.122 395.401 306.962C388.524 315.435 381.648 323.907 374.526 332.257C370.105 337.415 365.439 342.449 360.527 347.361C356.186 351.744 351.008 355.21 345.301 357.553C341.932 358.903 338.365 359.691 334.741 359.886C327.674 360.238 320.62 358.978 314.112 356.202C305.27 352.764 296.552 349.203 287.711 345.642C278.995 342.202 269.94 339.691 260.697 338.151C254.031 337.171 247.278 336.924 240.559 337.415C232.586 337.923 224.729 339.578 217.228 342.326C210.265 344.719 203.559 347.804 197.212 351.536C189.656 356.012 182.72 361.462 176.583 367.745C176.093 368.17 175.557 368.54 174.987 368.85" stroke="#DFE4E8" stroke-linecap="round" stroke-linejoin="round"/>
<path d="M49.1241 -49.7578C43.8642 -41.6968 37.7283 -34.2429 30.8281 -27.5322C26.0074 -22.9812 20.7883 -18.8716 15.2334 -15.2529C9.83048 -11.6919 4.67298 -7.8853 -0.607128 -4.3243C-7.23869 0.260051 -13.2269 5.71132 -18.4121 11.8844C-23.8782 18.2887 -28.011 25.7196 -30.5686 33.7416C-31.6737 37.5482 -32.7788 41.3548 -33.6384 45.1614C-34.1296 47.74 -34.1297 50.3187 -34.3753 52.8973C-34.4981 54.862 -34.7437 56.9495 -34.7437 58.9142C-34.7437 61.7385 -34.6209 64.5627 -34.3753 67.3869C-34.2525 70.334 -34.0068 73.4038 -33.6384 76.3508C-33.0048 82.14 -32.7996 87.9681 -33.0244 93.7875C-33.1472 96.9801 -33.6384 100.173 -34.0068 103.365C-34.8664 111.101 -37.4452 118.592 -39.6554 126.082C-40.8834 129.889 -41.9883 133.695 -42.8479 137.625C-44.3521 143.883 -43.3845 150.481 -40.1465 156.044C-36.7582 161.539 -32.6259 166.539 -27.8672 170.902C-21.3252 177.159 -13.9241 182.452 -5.8873 186.619C3.6546 191.9 14.1145 195.318 24.9339 196.688C28.0038 197.057 31.0737 197.425 34.2663 197.548C37.4973 197.732 40.7359 197.732 43.9669 197.548C48.4254 197.06 52.853 196.323 57.2286 195.337C65.8844 193.316 74.2277 190.136 82.0328 185.882L104.136 174.094C111.943 170.027 120.075 166.618 128.449 163.902C136.062 161.324 143.92 158.745 151.288 155.921C159.071 152.941 166.422 148.935 173.145 144.01C178.917 139.712 184.565 135.292 190.214 130.994C194.411 127.629 198.889 124.63 203.598 122.03C209.146 119.084 215.37 117.644 221.649 117.855C224.885 117.998 228.078 118.661 231.104 119.82C237.651 122.066 243.758 125.431 249.154 129.766C253.207 132.836 257.259 135.783 261.065 138.975C267.328 144.133 273.345 149.536 279.484 154.816C281.203 156.289 283.045 157.886 284.887 159.359C287.834 161.815 290.781 164.271 293.728 166.604C298.026 170.165 302.324 173.849 306.867 177.287C313.498 182.321 320.375 187.233 327.128 192.145C332.285 195.829 337.565 199.39 342.6 203.196C346.775 206.266 350.95 209.336 354.879 212.651C360.412 217.372 365.323 222.778 369.492 228.737C372.316 232.789 375.018 236.842 377.473 241.139C382.179 248.913 385.892 257.246 388.525 265.944C389.93 270.931 390.429 276.129 389.998 281.293C389.366 286.751 387.61 292.019 384.841 296.765C381.195 303.374 376.874 309.588 371.948 315.306C367.741 320.17 363.272 324.802 358.563 329.182C354.576 332.868 350.117 336.006 345.301 338.514C340.714 340.899 335.613 342.121 330.444 342.075C323.725 342.052 317.067 340.804 310.797 338.392C304.289 336.181 297.903 333.725 291.518 331.392C283.732 328.396 275.777 325.854 267.696 323.779C262.256 322.391 256.712 321.447 251.119 320.955C246.046 320.608 240.952 320.69 235.893 321.2C225.946 322.306 216.86 325.375 208.019 328.936C198.521 332.736 189.464 337.553 181.004 343.303C173.524 348.357 166.752 354.386 160.866 361.231C159.024 363.319 157.305 365.529 155.463 367.739C155.159 368.014 154.83 368.26 154.481 368.476" stroke="#DFE4E8" stroke-linecap="round" stroke-linejoin="round"/>
<path d="M60.4217 -49.7578C55.6328 -43.6182 50.8441 -37.6013 45.9323 -31.4616C40.0702 -24.381 33.2988 -18.1053 25.7941 -12.7971C20.3912 -8.86768 14.4971 -5.30666 8.97145 -1.50007C0.498719 4.27122 -7.11452 10.5337 -12.8858 18.1469C-20.0576 27.7077 -24.321 39.1335 -25.1651 51.0554C-25.2879 55.3532 -25.5334 59.5282 -25.4107 63.826C-25.4107 67.0186 -25.0423 70.0884 -24.7967 73.281C-24.5511 76.228 -24.1827 79.0523 -24.1827 81.9993C-23.9371 87.1567 -23.8143 92.314 -23.8143 97.3485C-23.9595 100.272 -24.2877 103.184 -24.7967 106.067C-25.1651 109.259 -25.6564 112.452 -26.1475 115.645C-26.6387 118.346 -27.2526 121.17 -27.621 123.872C-27.9894 126.573 -28.6033 129.275 -28.8489 131.976C-29.0945 135.046 -29.2174 138.239 -29.2174 141.308C-29.0581 147.096 -27.454 152.753 -24.5512 157.763C-20.7446 164.885 -14.8504 171.024 -7.85116 176.305C-0.883488 181.506 6.98408 185.378 15.3566 187.724C20.2582 189.101 25.2709 190.046 30.3374 190.549C40.431 191.382 50.5882 190.128 60.1762 186.865C69.754 183.672 77.9811 179.006 86.2083 174.217C92.5935 170.533 98.979 166.849 105.487 163.411C112.178 160.098 119.167 157.426 126.362 155.43C134.466 152.974 142.571 150.764 150.307 147.571C157.567 144.686 164.452 140.934 170.813 136.397C175.356 133.081 179.777 129.643 184.32 126.205C189.6 122.276 194.758 118.223 200.897 115.031C205.447 112.622 210.443 111.173 215.575 110.772C220.707 110.37 225.867 111.026 230.736 112.698C236.837 114.882 242.586 117.943 247.804 121.784C250.874 124.117 254.19 126.205 257.137 128.661C263.154 133.572 268.925 138.73 274.696 143.764L279.73 148.062C288.94 155.552 297.904 163.043 307.359 170.288C317.079 177.683 327.205 184.529 337.689 190.794C346.284 196.074 354.757 201.354 362.247 207.617C367.385 211.944 371.963 216.894 375.878 222.352C378.334 225.79 380.544 229.351 382.754 232.912C387.651 240.874 392.079 249.116 396.016 257.594C398.022 261.8 399.586 266.203 400.682 270.733C401.377 274.294 401.46 277.949 400.927 281.538C399.699 290.625 394.542 298.484 388.894 306.097C384.719 311.868 380.298 317.394 375.632 322.797C370.475 328.691 365.194 334.585 359.423 340.111C355.334 344.219 350.5 347.511 345.179 349.811C342.057 351.17 338.743 352.04 335.356 352.39C328.357 353.25 321.726 351.776 315.341 349.566C306.868 346.496 298.518 343.181 290.168 339.988C281.957 336.767 273.497 334.221 264.872 332.375C259.922 331.452 254.919 330.836 249.892 330.533C240.828 330.08 231.75 331.075 223 333.48C211.005 336.665 199.602 341.765 189.232 348.583C181.112 353.853 173.758 360.217 167.375 367.494C167.129 367.739 166.638 367.985 166.392 368.23" stroke="#DFE4E8" stroke-linecap="round" stroke-linejoin="round"/>
<path d="M551.836 178.885C549.994 178.149 548.152 177.289 546.31 176.552C541.153 174.71 535.995 172.991 530.838 171.149C523.067 168.357 515.05 166.301 506.893 165.01C502.227 164.273 497.561 163.782 492.895 163.413C481.475 162.308 469.933 163.168 458.39 162.799C446.111 162.431 434.937 159.73 425.359 153.344C419.588 149.538 414.676 144.994 411.606 139.469C410.09 137.003 409.127 134.238 408.782 131.364C408.516 128.672 408.434 125.964 408.536 123.26C408.811 120.142 409.387 117.058 410.255 114.051C412.343 106.315 414.676 98.5786 416.763 90.8426C417.443 87.4753 417.935 84.0728 418.237 80.6508C418.542 79.1152 418.666 77.5491 418.605 75.9847C418.114 70.3362 417.255 64.6877 413.325 59.7759C411.372 57.3153 408.841 55.375 405.958 54.1274C403.993 53.3131 401.872 52.9458 399.749 53.052C397.625 53.1581 395.551 53.7352 393.678 54.7414C389.697 56.7558 386.374 59.8659 384.1 63.7053C380.307 69.5751 377.681 76.1205 376.364 82.9839C375.5 86.948 374.925 90.9699 374.645 95.0176C374.277 100.666 374.277 106.315 374.277 111.963C374.277 115.033 374.768 118.103 374.891 121.173C375.136 123.539 375.259 125.916 375.259 128.295C374.891 134.68 373.294 140.819 368.014 145.977C363.471 150.52 357.577 153.099 350.209 153.713C342.822 154.146 335.425 153.06 328.475 150.52C318.774 147.328 310.301 142.539 302.074 137.258C293.356 131.733 285.62 125.225 277.761 118.962C270.762 113.314 264.254 107.42 257.132 101.894C250.335 96.3925 242.763 91.9238 234.661 88.6323C228.922 86.392 222.878 85.0261 216.733 84.5802C207.155 83.8434 198.437 86.0537 190.21 89.7375C182.965 92.9301 176.702 97.2279 170.317 101.526C162.213 107.051 153.863 112.577 144.162 116.261C138.2 118.464 132.085 120.229 125.866 121.541C117.639 123.383 109.166 124.856 101.185 127.435C93.7668 129.837 86.7045 133.224 80.187 137.504C73.5562 141.925 67.0482 146.468 60.2946 150.766C55.6163 153.823 50.4743 156.104 45.0681 157.519C36.9637 159.607 29.1052 158.993 21.9832 154.941C17.6794 152.616 14.2038 149.011 12.0368 144.626C10.0801 140.906 8.98864 136.793 8.84405 132.592C8.84405 130.873 8.47573 129.154 8.59853 127.558C8.84411 124.242 9.21255 120.927 9.58093 117.612C9.94931 114.296 10.4406 110.981 10.9318 107.665C11.3002 105.209 11.9139 102.754 12.2823 100.421C12.6507 98.4558 12.7736 96.3683 13.0192 94.4036C13.3876 91.825 13.756 89.1235 14.0016 86.5449C14.1244 84.9486 14.247 83.475 14.3697 81.8787C14.4925 79.3001 14.4926 76.8442 14.7382 74.2656C14.9838 70.7046 15.3523 67.1435 15.8435 63.5825C16.29 59.6131 16.9871 55.6758 17.9309 51.7944C18.8355 48.4687 20.1123 45.2558 21.7373 42.2165C25.1298 36.0484 29.6734 30.5879 35.122 26.1306C39.7881 22.2012 44.4541 18.3946 49.1203 14.4652C56.085 8.64583 62.535 2.23685 68.3988 -4.6905C73.3105 -10.5846 78.0996 -16.7242 83.2569 -22.4955C90.5017 -30.4771 97.9922 -38.3358 105.483 -46.1946C106.588 -47.2997 107.693 -48.5277 108.798 -49.6328" stroke="#DFE4E8" stroke-linecap="round" stroke-linejoin="round"/>
<path d="M552.086 173.726C547.665 172.13 543.245 170.41 538.824 168.814C528.018 164.762 516.967 161.078 505.179 159.113C500.267 158.254 495.232 157.64 490.198 157.026C485.9 156.535 481.602 156.289 477.305 155.921C468.586 155.184 459.868 154.447 451.396 152.237C442.309 149.781 434.696 145.606 429.047 139.344C425.568 135.456 423.194 130.707 422.171 125.591C421.456 121.414 421.291 117.162 421.68 112.943C422.053 109.021 422.668 105.125 423.522 101.278L425.363 91.7C425.855 89.3669 426.346 87.0338 426.714 84.7008C426.837 83.8412 426.96 82.8588 427.082 81.9993C427.41 78.284 427.492 74.5512 427.328 70.8251C427.077 65.1726 425.386 59.6778 422.416 54.862C418.855 49.2135 414.066 44.4246 406.208 42.2143C403.176 41.3203 399.979 41.1433 396.867 41.6974C393.756 42.2514 390.816 43.5214 388.28 45.4069C382.754 49.3363 379.316 54.3708 376.369 59.6509C373.599 64.6788 371.376 69.9893 369.738 75.4913C368.264 80.5258 367.159 85.6831 366.054 90.7176C365.317 93.7875 364.826 96.8573 364.335 99.9271C363.967 102.26 363.967 104.47 363.598 106.804C363.23 109.751 362.739 112.82 362.248 115.767C361.634 119.083 361.02 122.521 360.16 125.836C359.048 130.373 356.612 134.477 353.161 137.625C349.606 140.806 345.136 142.783 340.39 143.273C333.882 144.01 327.865 142.659 321.971 140.817C314.024 138.092 306.47 134.335 299.5 129.643C292.27 124.864 285.301 119.699 278.626 114.171C271.504 108.4 264.627 102.383 257.382 96.7345C250.509 91.2438 242.852 86.8149 234.665 83.5956C227.526 81.0151 220.027 79.565 212.44 79.2978C207.852 79.3367 203.282 79.872 198.81 80.8942C190.144 83.1793 181.896 86.8267 174.374 91.7C168.48 95.3837 162.708 99.0675 156.814 102.629C148.179 107.763 138.764 111.455 128.94 113.557C120.959 115.153 112.977 116.75 104.996 118.592C97.7697 120.152 90.76 122.585 84.1209 125.836C77.4796 129.288 71.0799 133.185 64.9653 137.502C59.8907 141.151 54.4103 144.201 48.6338 146.589C45.4966 147.821 42.1774 148.526 38.8103 148.676C34.7374 148.875 30.7033 147.802 27.2676 145.606C22.8871 142.583 19.8845 137.947 18.9179 132.713C18.2209 128.659 18.0148 124.536 18.3039 120.434C18.5732 117.218 19.024 114.02 19.6544 110.856C20.0228 108.277 20.2686 105.698 20.7598 103.12C21.2509 100.541 21.7419 97.8396 22.1103 95.1382C22.3559 93.1735 22.6016 91.086 22.8472 89.1213C23.2156 86.1743 23.584 83.35 23.8296 80.403C23.9524 79.1751 24.0749 78.0699 24.1977 76.842C24.8117 72.2986 25.303 67.7553 25.917 63.212C26.579 58.5206 27.8588 53.9374 29.7234 49.5819C32.9745 42.4091 37.6544 35.9747 43.4765 30.6718C50.1073 24.2865 57.1065 18.1468 63.3689 11.6388C69.0174 5.86753 74.052 -0.272141 79.0865 -6.28901C86.4541 -15.2529 93.576 -24.2168 101.926 -32.6895C107.452 -38.338 112.977 -43.9865 118.503 -49.7578" stroke="#DFE4E8" stroke-linecap="round" stroke-linejoin="round"/>
<path d="M-37.5566 368.727C-38.5389 367.499 -39.6441 366.271 -40.6264 365.043C-43.2051 361.85 -45.7837 358.658 -48.2396 355.465C-50.3898 352.813 -51.6372 349.543 -51.8004 346.133C-51.7101 343.668 -51.1256 341.246 -50.0814 339.011C-48.2395 334.959 -46.0293 331.152 -43.9418 327.223C-37.0296 315.03 -31.8629 301.927 -28.5926 288.297C-27.9787 285.473 -27.3646 282.649 -26.9963 279.825C-26.5051 276.141 -26.2596 272.457 -25.8912 268.773C-25.5644 266.496 -25.4821 264.191 -25.6457 261.897C-25.8913 258.09 -26.6279 254.161 -26.9963 250.354C-27.6597 245.262 -28.8111 240.245 -30.4345 235.373C-31.2941 232.304 -32.6449 229.479 -33.6273 226.41C-35.3464 221.375 -37.1883 216.463 -38.539 211.429C-39.3986 208.113 -39.3986 204.798 -36.6971 201.851C-34.9037 199.92 -32.4482 198.736 -29.8206 198.535C-25.4 197.921 -21.3479 199.027 -17.2957 200.009C-9.31414 201.974 -1.57811 204.307 6.40344 206.394C13.8026 208.451 21.3598 209.888 28.9973 210.692C32.5583 211.06 36.2421 211.306 39.8031 211.552C42.3818 211.674 45.0833 211.92 47.7847 211.797C55.0209 211.538 62.216 210.592 69.2735 208.973C74.922 207.622 80.4477 205.903 85.8506 204.061C96.288 200.5 105.989 195.588 116.058 191.413C125.145 187.607 134.477 184.169 143.809 180.608C155.351 176.187 166.526 171.275 176.349 164.767C182.3 160.86 188.039 156.638 193.54 152.12C196.733 149.418 199.926 146.717 203.241 144.138C207.632 140.591 212.513 137.696 217.731 135.543C223.293 133.381 229.397 133.037 235.167 134.56C241.012 136.071 246.541 138.607 251.499 142.051C260.094 147.453 267.462 153.962 275.075 160.101C279.618 163.785 283.916 167.714 288.337 171.521C293.126 175.696 298.037 179.871 302.826 184.169C314.369 194.361 326.771 203.938 338.805 213.762C345.878 219.324 352.34 225.622 358.083 232.549C364.427 240.195 369.487 248.821 373.064 258.09C374.575 261.783 375.567 265.667 376.011 269.633C376.134 271.475 376.625 273.317 376.625 275.158C376.593 283.142 374.154 290.931 369.626 297.507C366.999 301.39 363.906 304.936 360.416 308.067C356.343 311.682 351.748 314.662 346.786 316.908C342.937 318.591 338.823 319.589 334.63 319.855C326.525 320.469 319.035 318.627 311.545 316.417C302.538 313.561 293.685 310.242 285.021 306.471C280.109 304.506 275.198 302.419 270.163 300.454C264.764 298.254 259.114 296.728 253.341 295.911C246.73 295.112 240.024 295.956 233.816 298.366C226.203 301.191 219.573 305.12 212.819 308.927C204.223 313.838 195.628 318.873 187.155 324.03C182.612 326.854 178.314 329.924 174.016 332.994C165.273 339.274 157.461 346.756 150.808 355.22C147.616 359.149 144.914 363.324 141.967 367.376C141.603 367.755 141.274 368.166 140.985 368.604" stroke="#DFE4E8" stroke-linecap="round" stroke-linejoin="round"/>
<path d="M552.086 168.816C547.543 167.097 542.999 165.255 538.456 163.659C529.888 160.353 521.159 157.484 512.301 155.063C505.67 153.467 498.916 152.239 492.163 151.257C483.199 150.029 474.235 148.924 465.517 147.328C456.43 145.731 448.08 142.539 441.572 136.89C437.182 133.189 433.979 128.278 432.363 122.769C430.766 117.489 431.012 112.086 431.135 106.683C431.404 103.711 431.855 100.759 432.485 97.8418C432.854 95.5088 433.099 93.0529 433.468 90.7198C433.836 88.3868 434.327 85.8081 434.696 83.475C434.919 82.4209 435.083 81.355 435.187 80.2824C435.513 76.0338 435.595 71.7699 435.432 67.5119C434.917 60.2404 432.364 53.2612 428.065 47.3738C423.553 40.8561 417.111 35.9173 409.646 33.2526C405.935 31.8351 401.941 31.3187 397.992 31.7456C394.043 32.1725 390.251 33.5307 386.929 35.7085C381.035 39.515 377.228 44.5496 374.036 49.8297C370.431 55.5964 367.545 61.7819 365.44 68.2487C363.721 73.2832 362.248 78.3177 360.774 83.3522C359.546 87.8956 358.441 92.5617 357.336 97.1051C356.108 102.14 354.88 107.174 353.529 112.209C352.32 117.091 350.149 121.683 347.144 125.716C343.977 129.853 339.378 132.656 334.251 133.575C329.871 134.315 325.381 134.063 321.112 132.838C313.163 130.722 305.614 127.321 298.763 122.769C288.694 116.506 280.099 109.139 271.258 101.894C263.775 95.5179 255.81 89.7294 247.436 84.5802C239.46 79.7328 230.619 76.48 221.404 75.0023C207.35 72.943 193.005 75.3483 180.391 81.8787C173.269 85.5625 166.393 89.7375 159.516 93.7897C150.548 99.3247 140.77 103.426 130.537 105.946C124.274 107.42 117.766 108.402 111.381 109.507C106.96 110.367 102.54 110.981 98.1195 111.963C92.3013 113.276 86.5944 115.042 81.051 117.243C74.1338 120.22 67.4083 123.624 60.9131 127.435C57.0545 129.823 52.9344 131.759 48.6338 133.206C44.336 134.434 40.0381 134.68 36.2315 131.856C33.8839 130.215 32.2228 127.767 31.5653 124.979C30.4016 121.119 30.1496 117.042 30.8287 113.068C31.0736 111.36 31.1967 109.637 31.1972 107.911C31.4428 104.964 31.9337 102.14 32.1793 99.1926L32.5477 95.5088C32.7933 92.5617 32.9162 89.4919 33.2846 86.5449C33.5302 83.8434 34.0214 81.2648 34.267 78.5633C34.5126 76.2302 34.6352 73.7744 35.0036 71.4413C35.4948 68.3715 36.1087 65.1788 36.8455 62.109C38.4375 55.8099 41.0956 49.8295 44.7044 44.4268C48.0089 39.7416 51.706 35.3461 55.7558 31.2879C63.2462 23.552 70.9819 15.816 77.6128 7.46601C83.6296 -0.0243726 89.2781 -7.63754 95.4178 -15.0051C101.926 -22.8639 109.294 -30.2315 116.538 -37.5991C120.468 -41.5285 124.151 -45.7034 127.958 -49.6328" stroke="#DFE4E8" stroke-linecap="round" stroke-linejoin="round"/>
<path d="M552.086 192.397C548.893 191.415 545.701 190.432 542.631 189.327C533.997 186.329 525.124 184.07 516.107 182.574C512.454 181.978 508.757 181.69 505.056 181.714C498.671 181.837 492.408 182.451 486.637 184.907C479.743 187.444 474.135 192.61 471.042 199.273C468.869 204.541 467.223 210.012 466.131 215.605C464.076 225.137 460.289 234.21 454.956 242.374C451.855 247.065 448.138 251.319 443.905 255.022C441.941 256.65 439.799 258.051 437.52 259.197C435.718 260.145 433.708 260.63 431.672 260.609C429.635 260.588 427.636 260.06 425.854 259.074C422.597 257.361 419.617 255.167 417.013 252.566C411.372 246.807 406.463 240.373 402.401 233.41C398.963 227.516 396.016 221.499 392.455 215.605C388.771 209.465 384.964 203.326 379.07 198.291C373.458 193.662 367.215 189.858 360.528 186.994C353.529 183.679 346.407 180.609 339.285 177.416C330.663 173.455 322.369 168.815 314.481 163.541C309.446 160.225 304.412 156.664 299.623 153.103C293.606 148.56 287.589 144.017 281.818 139.228C275.31 133.825 268.925 128.422 262.662 122.896C256.302 117.21 249.438 112.114 242.156 107.67C236.498 104.2 230.257 101.787 223.737 100.548C218.242 99.5646 212.605 99.6898 207.16 100.916C200.415 102.52 194.039 105.396 188.372 109.389C183.829 112.336 179.777 115.651 175.356 118.844C168.453 124.135 161.05 128.742 153.253 132.597C147.865 135.098 142.279 137.152 136.553 138.736C128.817 140.947 120.959 142.911 113.346 145.244C105.214 147.774 97.4517 151.366 90.2604 155.927C82.8928 160.594 75.648 165.383 68.1576 169.926C61.4162 174.056 53.9613 176.888 46.1777 178.276C43.2125 178.785 40.2189 179.113 37.2138 179.258C33.2229 179.584 29.2056 179.294 25.3029 178.399C21.7514 177.694 18.2613 176.708 14.8655 175.452C9.89159 173.496 5.2834 170.714 1.2353 167.224C-4.4377 162.525 -8.72472 156.37 -11.1666 149.419C-12.3407 146.308 -13.0445 143.038 -13.2544 139.719C-13.5186 136.574 -13.6006 133.417 -13.4999 130.264C-13.2543 126.211 -12.763 122.282 -12.149 118.353C-11.5351 114.055 -10.6757 109.757 -10.1845 105.459C-9.81615 102.39 -9.57045 99.3198 -9.44765 96.25C-9.20207 89.8647 -9.07921 83.4795 -9.07921 77.0942C-9.20201 70.095 -9.57039 62.973 -9.69318 55.9738C-9.60964 51.3172 -8.90773 46.6925 -7.60576 42.2209C-6.45164 37.7957 -4.62987 33.5722 -2.20297 29.696C0.335671 25.5636 3.43501 21.803 7.00652 18.5218C13.269 12.7505 20.5138 7.83884 27.8814 2.92711C38.4757 -3.89121 48.0648 -12.1575 56.3696 -21.6315C62.3865 -28.6307 68.1578 -35.63 74.1747 -42.6292C76.1394 -44.9623 78.2267 -47.1725 80.1914 -49.3828" stroke="#DFE4E8" stroke-linecap="round" stroke-linejoin="round"/>
<path d="M552.086 187.235C543.122 184.288 534.281 181.341 525.194 178.64C519.187 176.87 513.016 175.718 506.775 175.202C501.618 174.833 496.461 175.079 491.303 175.202C486.98 175.397 482.694 176.098 478.533 177.289C472.874 178.665 467.537 181.125 462.815 184.534C458.412 187.819 455.322 192.563 454.097 197.918C453.115 201.97 452.623 206.145 452.009 210.32C450.904 216.583 449.308 222.722 445.624 228.494C443.776 231.425 441.249 233.868 438.257 235.616C433.099 238.563 428.31 238.44 423.153 235.37C419.604 233.135 416.62 230.109 414.435 226.529C410.505 220.758 408.172 214.495 405.839 208.11C403.752 202.462 401.787 196.936 397.858 191.901C394.416 187.694 389.987 184.403 384.964 182.324C378.579 179.499 371.58 178.149 364.826 176.429C357.581 174.588 350.214 172.868 343.337 170.413C330.955 165.955 319.194 159.93 308.341 152.485C304.166 149.661 300.114 146.836 296.062 143.766C291.642 140.451 287.221 137.136 282.923 133.575C277.398 129.031 272.117 124.242 266.714 119.576C258.242 112.454 249.769 105.209 239.209 99.9293C234.007 97.2543 228.411 95.4302 222.632 94.5264C215.204 93.4241 207.619 94.1404 200.529 96.6139C194.166 98.9701 188.139 102.149 182.601 106.069C175.233 111.103 167.866 116.384 160.376 121.295C153.442 125.607 145.912 128.876 138.027 130.996C130.291 133.206 122.432 135.171 114.574 137.136C104.538 139.738 94.9971 143.969 86.3312 149.661C79.2092 154.204 72.3327 158.993 65.0879 163.536C59.1662 167.228 52.6402 169.846 45.8095 171.272C32.1794 173.974 20.0229 171.641 9.58546 163.905C4.54793 160.207 0.568161 155.254 -1.95698 149.538C-3.35328 146.688 -4.2268 143.61 -4.53576 140.451C-4.98483 137.073 -5.19002 133.667 -5.14973 130.259C-5.005 126.928 -4.677 123.608 -4.16732 120.313C-3.79894 117.489 -3.5533 114.664 -3.18492 111.963C-2.81654 109.262 -2.20275 106.683 -1.83437 103.981C-1.46599 101.894 -1.34308 99.8065 -1.09749 97.719C0.13044 85.1941 -0.729293 72.6692 -0.360913 60.0215C-0.268672 53.008 1.06179 46.0659 3.56871 39.515C6.68106 32.3677 11.3849 26.0258 17.3215 20.9733C22.912 16.2533 28.7754 11.8661 34.881 7.83441C44.3004 1.39364 52.88 -6.19618 60.4217 -14.7595C65.9474 -21.2676 71.4732 -27.7756 77.1217 -34.2837C81.5423 -39.3182 86.3312 -44.2299 90.8745 -49.1416C90.9973 -49.2644 91.1202 -49.51 91.2429 -49.6328" stroke="#DFE4E8" stroke-linecap="round" stroke-linejoin="round"/>
<path d="M-18.2777 368.723C-18.7757 367.889 -19.2265 367.029 -19.6282 366.144C-20.9789 362.952 -22.3298 359.636 -23.4349 356.444C-24.985 352.306 -26.2969 348.084 -27.3642 343.796C-27.9746 340.932 -28.2222 338.003 -28.1011 335.078C-27.6872 330.503 -27.0312 325.953 -26.1363 321.448C-24.7856 314.817 -23.1891 308.186 -21.7156 301.555C-20.6105 296.521 -19.3828 291.363 -18.2777 286.329C-17.7865 283.996 -17.5407 281.54 -17.1723 279.207C-16.6812 276.014 -16.1902 272.944 -15.8218 269.752C-15.699 268.401 -15.4534 267.05 -15.4534 265.822C-15.3306 259.314 -15.2077 252.684 -15.0849 246.175C-15.0849 243.351 -15.576 240.404 -15.3304 237.58C-15.0849 234.019 -14.9621 230.581 -13.4885 227.143C-11.4011 222.476 -7.47161 219.898 -1.45474 219.529C2.22905 219.284 5.91285 219.161 9.59665 219.284C13.2804 219.407 16.9642 220.021 20.648 220.266C23.4723 220.512 26.2964 220.512 29.1207 220.88C36.1032 221.473 43.1157 221.637 50.1184 221.371C54.7193 221.252 59.3103 220.883 63.8712 220.266C70.9814 219.32 78.0033 217.801 84.8687 215.723C91.4995 213.758 98.1304 211.548 104.638 209.46C112.006 207.004 119.251 204.426 126.496 201.97C132.513 199.882 138.529 197.795 144.546 195.83C157.711 191.382 170.069 184.83 181.139 176.429C184.7 173.727 188.383 171.026 191.822 168.202C196.733 164.15 201.4 159.852 206.311 155.922C210.63 152.241 215.526 149.296 220.801 147.204C224.031 145.891 227.51 145.304 230.993 145.485C234.211 145.76 237.386 146.42 240.448 147.45C246.813 149.739 252.779 153.012 258.13 157.15C262.673 160.466 267.339 163.781 271.514 167.342C277.531 172.377 283.303 177.534 289.074 182.691C293.003 186.13 296.81 189.568 300.617 193.006C306.388 198.163 312.159 203.321 318.053 208.478C320.018 210.32 322.228 211.916 324.193 213.758C333.034 221.371 341.752 228.862 348.629 237.703C354.523 245.07 359.189 253.052 361.522 261.647C362.259 264.472 362.627 267.419 363.118 270.243C363.708 274.818 363.116 279.468 361.399 283.75C359.831 287.721 357.446 291.319 354.4 294.31C351.038 297.752 346.976 300.432 342.489 302.169C336.745 304.376 330.545 305.135 324.438 304.379C315.294 303.435 306.394 300.857 298.161 296.766C288.46 291.977 279.005 286.82 269.55 281.786C264.86 279.184 259.87 277.164 254.692 275.769C251.635 275.001 248.508 274.549 245.36 274.418C239.554 274.251 233.816 275.696 228.783 278.593C224.07 281.389 219.702 284.727 215.766 288.539C208.814 295.026 201.518 301.133 193.909 306.835C187.155 311.87 179.788 316.536 172.912 321.448C164.439 327.587 156.335 333.973 149.581 341.34C145.104 346.138 140.999 351.269 137.302 356.689C134.723 360.496 132.39 364.425 129.811 368.232C129.515 368.59 129.186 368.919 128.829 369.214" stroke="#DFE4E8" stroke-linecap="round" stroke-linejoin="round"/>
<path d="M551.836 164.032C551.345 163.786 550.976 163.418 550.485 163.172C544.591 160.716 538.697 158.26 532.68 156.05C523.471 152.735 514.261 149.419 504.315 147.577C495.719 145.981 487.001 144.508 478.406 142.911C470.547 141.438 462.688 139.596 455.811 135.912C447.707 131.614 442.795 125.72 440.462 118.353C438.743 113.073 438.989 107.67 439.112 102.267C439.38 98.7666 439.831 95.2827 440.462 91.8294C440.953 88.6368 441.69 85.5669 442.182 82.3743C442.55 79.9184 442.673 77.4626 442.918 75.1295C443.041 72.3053 443.409 69.481 443.287 66.7796C443.049 60.3496 441.37 54.0552 438.375 48.3606C434.453 41.0571 428.856 34.787 422.043 30.0644C417.114 26.3895 411.466 23.7953 405.466 22.4512C401.862 21.6385 398.125 21.6014 394.505 22.3424C390.885 23.0833 387.464 24.5854 384.469 26.749C379.678 30.0981 375.59 34.3532 372.435 39.2739C368.115 45.6042 364.609 52.4524 361.998 59.6575C358.805 68.3759 355.735 77.0942 353.034 85.9353C350.578 93.6713 348.49 101.53 345.175 109.02C343.478 113.28 340.783 117.07 337.316 120.072C334.145 122.715 330.251 124.341 326.142 124.738C319.143 125.352 312.88 123.51 306.986 120.931C300.577 118.154 294.552 114.563 289.058 110.248C284.392 106.687 279.726 103.249 275.06 99.6881C272.113 97.4779 269.534 94.8992 266.587 92.689C259.465 87.286 252.22 81.8831 243.87 77.7082C236.408 73.8157 228.362 71.1615 220.048 69.8494C215.666 69.1316 211.225 68.8437 206.787 68.9898C199.112 69.2849 191.53 70.7763 184.316 73.4104C175.106 76.7258 167.125 81.392 158.775 85.9353C153.863 88.6368 148.829 90.9698 143.794 93.4257C137.522 96.2162 130.92 98.1968 124.147 99.3198C118.867 100.302 113.587 100.916 108.307 101.653C97.8692 103.126 87.432 104.6 77.2402 107.056C72.4512 108.161 67.5393 109.143 62.6276 110.126C55.3828 111.476 50.4712 109.266 48.0153 103.74C46.8439 100.841 46.1394 97.7738 45.9279 94.6536C45.5447 91.8863 45.3396 89.0973 45.3139 86.3037C45.4367 81.6375 45.9277 77.0942 46.296 72.4281C46.6347 68.0998 47.5857 63.8415 49.1203 59.7803C50.9137 54.5184 53.4794 49.5524 56.7335 45.0452C62.6275 36.5724 70.2408 28.9593 76.7488 20.7321C83.2569 12.505 89.5194 4.27782 95.9047 -3.94932C102.357 -12.3198 109.329 -20.2761 116.78 -27.7712C123.779 -34.7704 130.901 -41.5241 137.163 -48.8916C137.286 -49.0144 137.409 -49.26 137.531 -49.3828" stroke="#DFE4E8" stroke-linecap="round" stroke-linejoin="round"/>
<path d="M-0.718789 368.726C-0.885899 368.7 -1.05018 368.659 -1.20984 368.604C-2.31498 362.464 -4.5252 356.693 -6.3671 350.799C-7.84062 346.01 -9.31419 341.343 -10.4193 336.555C-11.0365 333.561 -11.4063 330.522 -11.5247 327.468C-11.8307 325.395 -11.9538 323.3 -11.8928 321.205C-11.6472 317.644 -11.2791 314.206 -10.9107 310.645C-10.6651 308.558 -10.5422 306.47 -10.1738 304.383C-9.80543 302.05 -9.43705 299.717 -8.94587 297.384C-8.4547 294.559 -7.96347 291.735 -7.3495 288.911C-6.98112 286.946 -6.48995 284.981 -6.12157 283.017C-5.6304 280.193 -5.13916 277.368 -4.5252 274.544C-3.91123 271.229 -3.17453 267.913 -2.43777 264.475C-1.70101 261.037 -1.2099 257.721 -0.350349 254.406C0.75479 250.108 2.10552 245.933 5.17535 242.127C8.60301 238.244 13.3076 235.718 18.4371 235.005C22.3643 234.266 26.3519 233.896 30.348 233.899C35.0141 233.899 39.803 233.777 44.4692 233.654C49.1353 233.531 53.9242 233.285 58.5904 232.794C68.4836 231.906 78.2945 230.264 87.9378 227.883C96.4106 225.795 104.883 223.462 113.479 221.497C121.829 219.533 130.302 217.936 138.651 216.094C145.528 214.498 152.282 213.025 158.912 211.06C165.313 209.066 171.362 206.083 176.84 202.219C184.453 196.939 190.47 190.553 196.733 184.414C201.153 180.116 205.697 175.941 210.117 171.643C214.142 167.778 218.792 164.623 223.87 162.311C228.259 160.353 233.11 159.673 237.868 160.346C244.008 161.083 249.043 163.539 253.832 166.24C261.066 170.301 267.821 175.161 273.97 180.73C281.46 187.361 288.705 194.36 295.95 201.114C302.581 207.376 309.089 213.516 315.597 219.778C321.716 225.405 327.536 231.348 333.033 237.583C337.351 242.467 340.911 247.973 343.594 253.915C345.472 258.162 346.354 262.782 346.172 267.422C345.435 274.053 342.365 279.701 334.261 282.771C331.539 283.749 328.679 284.287 325.789 284.367C319.951 284.365 314.164 283.283 308.72 281.175C300.37 278.228 293.371 273.807 286.126 269.632C280.478 266.317 274.829 263.001 268.812 260.054C262.184 256.782 255.108 254.506 247.815 253.301C241.572 252.192 235.164 252.444 229.027 254.038C223.467 255.565 218.365 258.432 214.169 262.387C209.915 266.759 206.091 271.529 202.749 276.631C197.715 283.753 192.558 290.753 185.558 296.77C179.91 301.681 174.016 306.47 168.122 311.259C164.192 314.452 159.895 317.522 155.965 320.714C148.129 326.968 141.115 334.188 135.091 342.203C131.407 347.238 127.846 352.395 124.408 357.552C122.197 360.99 120.355 364.551 118.268 367.99C117.972 368.347 117.643 368.676 117.286 368.972" stroke="#DFE4E8" stroke-linecap="round" stroke-linejoin="round"/>
<path d="M552.086 157.026C546.192 154.57 540.298 152.114 534.281 149.658C525.574 145.916 516.581 142.878 507.389 140.572C500.881 138.975 494.25 137.747 487.742 136.397C480.129 134.8 472.516 133.081 465.639 129.643C459.254 126.45 454.588 122.03 452.009 116.381C450.252 112.4 449.372 108.086 449.431 103.734C449.449 99.0766 449.901 94.4312 450.782 89.8581C451.641 85.5603 452.501 81.2626 453.114 76.9648C453.624 73.4641 453.952 69.9393 454.097 66.4046C454.281 63.7472 454.281 61.0803 454.097 58.423C453.589 54.0298 452.344 49.7539 450.413 45.7753C446.756 38.9031 441.889 32.7468 436.046 27.6019C429.817 21.7873 422.837 16.8317 415.294 12.8668C410.898 10.5158 406.115 8.97675 401.173 8.32339C395.808 7.73259 390.394 8.84986 385.701 11.516C379.439 15.077 375.141 20.1115 371.211 25.2688C366.915 31.1053 363.29 37.4076 360.406 44.0562C355.985 53.6341 352.424 63.4575 348.986 73.281C346.775 79.5435 344.443 85.8059 341.864 91.9456C339.995 96.9199 337.342 101.563 334.005 105.698C331.305 109.106 327.616 111.593 323.445 112.82C320.812 113.562 318.064 113.812 315.341 113.557C306.868 112.575 299.991 109.137 293.483 104.962C289.063 102.137 284.888 98.9448 280.713 95.8749C276.906 93.0507 273.222 90.1037 269.539 87.2794C262.238 81.533 254.476 76.3992 246.331 71.9303C238.183 67.5824 229.396 64.5567 220.299 62.9664C217.474 62.4752 214.65 62.2296 211.826 61.984C209.544 61.7185 207.245 61.6364 204.95 61.7384C196.996 61.9462 189.107 63.2267 181.496 65.545C172.041 68.3693 163.691 72.667 155.095 76.842C147.237 80.6486 139.255 84.2096 130.291 86.2971C125.808 87.3925 121.253 88.1721 116.661 88.6301C113.1 88.8757 109.416 89.2441 105.855 89.4897C100.207 89.7353 94.5584 89.8581 88.9099 89.7353C84.0625 89.7359 79.263 88.776 74.7887 86.9111C72.4252 85.8859 70.337 84.3174 68.694 82.3331C67.0511 80.3487 65.8995 78.0046 65.3334 75.4913C64.5195 72.4927 64.3107 69.362 64.7194 66.2818C65.1642 63.1492 65.9044 60.0656 66.9298 57.0723C68.5408 52.3767 70.7709 47.9168 73.5608 43.8106C76.2622 39.6357 79.3319 35.5835 82.2789 31.4085C86.6995 25.2688 91.2429 19.1292 95.5407 12.9895C103.399 1.56974 111.626 -9.72722 121.818 -19.9191C127.835 -26.0587 134.098 -32.0756 139.992 -38.2152C143.553 -41.899 146.745 -45.8284 150.061 -49.7578" stroke="#DFE4E8" stroke-linecap="round" stroke-linejoin="round"/>
<path d="M552.086 183.43C544.964 181.097 537.965 178.641 530.843 176.308C523.343 173.877 515.666 172.029 507.88 170.782C501.346 169.738 494.721 169.368 488.111 169.677C483.69 169.923 479.392 170.414 474.972 170.905C463.92 172.256 453.483 175.326 442.677 177.413C436.013 178.888 429.046 178.065 422.908 175.08C417.627 172.501 412.224 169.923 406.822 167.344C400.732 164.486 394.004 163.259 387.298 163.783C382.14 164.151 376.983 165.257 371.825 165.625C367.081 165.87 362.326 165.87 357.581 165.625C352.346 165.325 347.159 164.461 342.11 163.046C337.231 161.817 332.465 160.174 327.865 158.134C319.728 154.523 311.922 150.209 304.535 145.241C301.588 143.277 298.641 141.312 295.817 139.224C291.887 136.277 287.835 133.33 284.151 130.138C278.134 125.103 272.24 119.823 266.223 114.789C258.365 108.403 250.629 101.772 241.051 96.7379C234.961 93.371 228.299 91.1643 221.404 90.2299C213.762 89.2305 205.993 89.9864 198.687 92.4401C191.767 95.0346 185.206 98.5008 179.163 102.755C172.901 107.053 166.761 111.473 160.376 115.525C153.468 119.944 145.934 123.297 138.027 125.471C129.555 127.805 120.836 129.646 112.363 131.857C101.911 134.494 91.9865 138.896 83.0159 144.873C76.5078 149.171 70.1224 153.714 63.4916 157.889C57.6027 161.781 51.0137 164.492 44.0905 165.87C30.8288 168.204 19.5316 165.502 10.6905 157.029C5.93068 152.495 2.74664 146.557 1.6039 140.084C0.728903 136.095 0.398389 132.005 0.621493 127.927C0.867079 124.244 1.48117 120.56 1.97234 116.876C2.46351 113.438 2.83171 110.122 3.32288 106.684C3.69126 103.983 4.30535 101.158 4.67373 98.457C5.04672 95.9332 5.29274 93.3923 5.41061 90.8438C5.65619 84.213 5.9016 77.705 6.14719 71.0741C6.26998 68.0043 6.27004 65.0573 6.51563 61.9874C6.88401 58.672 7.3753 55.3566 7.86647 51.9184C8.44146 48.0564 9.5575 44.2948 11.1818 40.7442C13.9813 34.539 18.0859 29.0105 23.2156 24.5355C27.0222 21.2201 31.0743 17.9046 35.1265 14.8348C38.4419 12.1334 42.1256 9.8003 45.441 7.09884C53.0484 1.0025 60.0401 -5.82469 66.3159 -13.2848C74.4202 -23.1083 82.5246 -32.809 91.4885 -42.1412C93.9443 -44.7199 96.5229 -47.4213 99.1016 -50" stroke="#DFE4E8" stroke-linecap="round" stroke-linejoin="round"/>
<path d="M33.7852 -49.7578C30.0042 -44.0857 25.5052 -38.9265 20.4005 -34.4086C15.6736 -30.2644 10.6684 -26.4488 5.4198 -22.9889C-1.27773 -18.6196 -7.71477 -13.8635 -13.8587 -8.74487C-19.9216 -3.43706 -25.3226 2.58231 -29.9447 9.18295C-33.9219 14.898 -37.2572 21.0337 -39.8908 27.4791C-41.9014 32.246 -43.3439 37.233 -44.1885 42.3371C-44.6797 45.7753 -45.171 49.2135 -45.5394 52.6517C-45.785 55.1076 -45.785 57.6862 -45.9078 60.2649C-46.0306 66.5273 -46.0304 72.9126 -46.276 79.1751C-46.3988 82.1221 -47.0128 85.0691 -47.2584 88.139C-47.69 91.8295 -48.684 95.4322 -50.2056 98.822C-52.7842 104.839 -57.5729 109.628 -64.6949 112.698C-69.121 114.403 -73.7402 115.558 -78.448 116.136C-87.1663 117.609 -95.7619 119.328 -103.621 122.889C-110.106 125.738 -115.89 129.971 -120.566 135.292C-123.877 139.139 -126.875 143.245 -129.53 147.571C-132.354 152.36 -135.056 157.272 -137.88 162.183L-145.984 175.813C-147.956 178.616 -149.335 181.791 -150.036 185.146C-150.17 186.71 -149.873 188.281 -149.177 189.689C-147.778 192.977 -146.179 196.175 -144.388 199.267C-140.807 205.287 -138.08 211.775 -136.283 218.545C-135.301 222.352 -134.319 226.281 -133.582 230.088C-132.968 233.649 -132.6 237.21 -132.109 240.771C-131.495 245.069 -130.88 249.244 -130.389 253.541C-130.021 255.997 -130.021 258.576 -129.653 261.155C-129.284 263.979 -128.793 266.803 -128.302 269.627C-127.934 271.838 -127.688 273.925 -127.197 276.135C-126.679 279.648 -125.982 283.131 -125.109 286.573C-123.636 291.73 -121.917 296.765 -119.952 301.799C-116.096 311.135 -110.419 319.608 -103.252 326.726C-99.2 330.901 -94.9021 334.953 -90.85 339.128C-88.2551 341.46 -86.3807 344.485 -85.4472 347.847C-84.8332 350.671 -85.8156 353.004 -87.0435 355.46C-88.8854 358.775 -91.8324 361.354 -94.6567 364.055C-96.0074 365.283 -97.358 366.511 -98.8315 367.616C-99.3227 367.985 -99.9368 368.23 -100.551 368.599" stroke="#DFE4E8" stroke-linecap="round" stroke-linejoin="round"/>
<path d="M18.9285 368.602C18.589 367.887 18.3018 367.148 18.069 366.392C16.7182 357.674 13.1572 349.446 10.3329 341.096C8.73662 336.676 7.2631 332.133 6.03517 327.589C5.29541 324.233 4.80298 320.826 4.56171 317.397C4.25527 314.707 4.13213 312 4.19327 309.293C4.31607 305.978 4.8073 302.662 5.17568 299.347C6.04236 292.481 7.64786 285.729 9.96449 279.209C11.9292 273.437 14.2624 267.666 18.4374 262.632C22.4975 257.852 27.9498 254.46 34.0321 252.931C39.0364 251.694 44.1259 250.832 49.2583 250.352C57.4855 249.37 65.7127 248.388 73.9399 246.914C82.781 245.318 91.3764 243.108 100.218 241.266C108.511 239.255 116.917 237.738 125.39 236.722C129.442 236.354 133.372 235.863 137.424 235.617C141.231 235.372 145.16 235.003 148.967 235.126C154.547 235.147 160.122 235.475 165.666 236.108C169.959 236.498 174.154 237.62 178.069 239.424C179.821 240.299 181.365 241.542 182.594 243.067C183.823 244.593 184.709 246.366 185.191 248.265C186.173 251.949 185.682 255.632 185.191 259.439C184.316 265.114 182.577 270.622 180.033 275.77C176.953 282.015 172.796 287.669 167.754 292.47C163.456 296.645 158.667 300.575 154.001 304.627C146.511 311.012 138.775 317.275 132.267 324.397C127.837 329.215 123.812 334.389 120.233 339.869C117.654 344.044 114.83 348.096 112.374 352.271C109.427 357.182 106.603 362.217 103.656 367.251C103.271 367.799 102.817 368.294 102.305 368.725" stroke="#DFE4E8" stroke-linecap="round" stroke-linejoin="round"/>
<path d="M557.5 246.055C549.803 248.758 542.464 252.386 535.643 256.86C528.442 261.848 521.885 267.704 516.119 274.297C512.245 278.804 508.016 282.993 503.471 286.822C499.064 290.495 493.772 292.95 488.122 293.944C482.619 294.888 476.982 294.721 471.545 293.453C466.387 292.102 461.353 290.751 456.441 289.032C452.143 287.559 447.846 285.84 443.179 285.471C439.756 285.19 436.329 285.961 433.356 287.682C429.168 289.792 425.353 292.571 422.059 295.909C416.533 301.312 410.885 306.715 405.727 312.486C397.991 321.204 390.624 330.168 383.011 339.009C378.59 344.166 374.047 349.201 369.381 354.236C365.39 358.571 360.647 362.149 355.382 364.796C351.349 366.832 346.981 368.122 342.489 368.602C335.613 369.339 329.35 367.988 323.21 366.024C315.106 363.445 307.616 359.638 299.88 356.323C290.085 351.784 279.777 348.444 269.181 346.377C265.134 345.597 261.024 345.186 256.902 345.149C253.832 345.149 250.64 344.903 247.57 345.149C243.446 345.48 239.346 346.055 235.29 346.868C226.119 348.896 217.33 352.378 209.258 357.182C203.836 360.199 198.805 363.869 194.278 368.111C193.87 368.428 193.414 368.677 192.927 368.848" stroke="#DFE4E8" stroke-linecap="round" stroke-linejoin="round"/>
<path d="M39.6789 368.728C39.5561 368.606 39.1875 368.606 39.1875 368.483C37.8368 363.817 36.609 359.151 35.0127 354.607C32.3112 347.24 29.1185 340.118 26.2943 332.75C24.5489 328.311 23.1129 323.757 21.9965 319.12C21.0792 314.845 20.8309 310.455 21.2599 306.104C21.6524 301.627 22.729 297.238 24.4524 293.088C26.3884 288.217 29.4621 283.88 33.4163 280.44C37.1245 277.304 41.4881 275.038 46.1867 273.809C51.5896 272.336 56.9927 271.108 62.3956 270.003C70.8684 268.161 79.2181 265.95 87.3224 263.372C96.5319 260.548 105.742 257.478 115.442 255.513C119.985 254.672 124.58 254.138 129.195 253.917C133.756 253.709 138.326 253.998 142.825 254.776C147.614 255.636 151.912 257.355 155.105 260.548C157.235 262.59 158.545 265.342 158.788 268.284C159.279 274.546 156.455 279.949 152.403 285.106C148.842 289.466 144.851 293.456 140.492 297.017C132.019 304.507 123.547 311.998 116.67 320.471C112.035 326.371 107.848 332.61 104.145 339.135C99.7248 346.748 95.3042 354.362 90.6381 361.975C89.2873 364.308 87.4453 366.395 85.849 368.606" stroke="#DFE4E8" stroke-linecap="round" stroke-linejoin="round"/>
<path d="M20.3984 -49.7578C15.0981 -43.1808 8.84931 -37.4284 1.85684 -32.6895C-4.77399 -28.0234 -11.4048 -23.3573 -17.7901 -18.3228C-24.4827 -12.9096 -30.4287 -6.63344 -35.4725 0.341818C-39.5888 5.84351 -43.2439 11.6755 -46.4009 17.7785C-49.7566 24.1397 -52.2744 30.9087 -53.8914 37.9165C-54.751 42.2143 -55.3649 46.6349 -55.9789 50.9326C-56.3473 53.7569 -56.4699 56.5811 -56.7155 59.4054C-57.0838 63.3347 -57.3296 67.3869 -57.8208 71.3163C-58.2343 76.4104 -59.3928 81.4163 -61.259 86.1743C-64.2061 93.1735 -69.8543 98.4536 -78.2043 101.646C-84.0983 103.856 -90.1153 105.821 -96.1322 107.909C-104.183 110.405 -111.833 114.044 -118.849 118.714C-125.341 123.336 -131.203 128.785 -136.286 134.923C-140.952 140.203 -145.372 145.729 -151.266 150.272C-155.836 153.897 -161.317 156.191 -167.106 156.903C-170.21 157.21 -173.336 157.21 -176.439 156.903C-179.877 156.658 -183.315 156.166 -186.753 155.675" stroke="#DFE4E8" stroke-linecap="round" stroke-linejoin="round"/>
<path d="M1.60938 -49.5078C-1.09208 -47.2975 -3.79359 -45.0872 -6.74063 -43.1225C-12.6347 -38.9476 -18.8972 -35.141 -24.5456 -30.8432C-31.0537 -26.0543 -35.8427 -20.0374 -40.2632 -14.0206C-43.5787 -9.35444 -46.7712 -4.56549 -49.7183 0.223444C-54.6461 7.81135 -58.8011 15.8742 -62.1205 24.2909C-63.9302 28.7505 -65.2077 33.4078 -65.9269 38.1665C-66.5409 42.3415 -67.155 46.3937 -67.6462 50.5687C-68.0146 53.6385 -68.26 56.5855 -68.7512 59.6554C-69.2888 65.2043 -70.5692 70.6559 -72.5579 75.8641C-75.505 82.7405 -80.7849 88.2662 -88.3981 92.1956C-92.8187 94.4058 -97.4849 96.4933 -102.028 98.5808C-110.992 102.633 -119.711 106.808 -127.201 112.456C-132.502 116.516 -137.509 120.948 -142.182 125.718C-146.111 129.525 -150.04 133.331 -154.338 136.77C-159.696 141.151 -166.074 144.107 -172.88 145.365C-177.498 146.189 -182.19 146.518 -186.878 146.347" stroke="#DFE4E8" stroke-linecap="round" stroke-linejoin="round"/>
<path d="M557.25 251.453C554.794 252.681 552.338 253.786 550.005 255.014C546.69 256.856 543.497 258.698 540.304 260.785C532.323 266.066 526.674 272.819 520.78 279.45C517.096 283.748 513.413 288.045 509.361 292.098C504.7 296.901 498.787 300.304 492.292 301.921C489.438 302.639 486.516 303.05 483.574 303.149C475.961 303.64 468.593 302.167 461.103 300.939C455.653 299.767 450.099 299.15 444.526 299.097C438.861 299.241 433.309 300.713 428.317 303.395C422.47 306.615 417.063 310.578 412.231 315.183C404.986 321.568 398.969 328.69 392.953 335.812C387.672 342.197 382.515 348.583 377.235 355.091C373.405 359.758 369.082 363.999 364.342 367.738C363.644 368.18 362.903 368.55 362.131 368.843" stroke="#DFE4E8" stroke-linecap="round" stroke-linejoin="round"/>
<path d="M557.25 255.508C556.376 256.046 555.474 256.538 554.548 256.981C545.692 261.184 537.793 267.16 531.341 274.541C526.674 280.066 522.254 285.715 517.465 291.118C514.705 294.246 511.752 297.199 508.624 299.959C503.834 304.008 498.083 306.757 491.924 307.941C487.168 308.987 482.272 309.236 477.434 308.677C472.891 308.063 468.225 307.818 463.681 307.327C460.12 306.958 456.559 306.221 452.998 305.976C446.736 305.73 440.473 305.853 434.579 307.818C429.074 309.764 423.898 312.538 419.23 316.045C408.793 323.781 400.811 333.236 393.198 342.691C386.813 350.55 380.919 358.777 373.674 366.145C372.706 367.03 371.68 367.85 370.604 368.6" stroke="#DFE4E8" stroke-linecap="round" stroke-linejoin="round"/>
<path d="M557.5 261.156C554.553 262.875 551.36 264.472 548.536 266.436C540.186 272.085 534.415 279.33 528.889 286.697C525.205 291.609 521.521 296.398 517.469 301.064C513.231 305.949 507.941 309.811 501.998 312.361C497.518 314.256 492.736 315.337 487.876 315.554C485.467 315.758 483.049 315.84 480.631 315.799C477.439 315.676 474.369 315.308 471.176 315.062C467.984 314.817 464.914 314.448 461.721 314.203C458.038 313.957 454.231 313.466 450.547 313.466C441.709 313.341 433.004 315.634 425.374 320.097C417.933 324.668 411.261 330.387 405.605 337.042C398.237 345.147 392.097 353.865 385.467 362.338C383.87 364.303 382.274 366.144 380.678 368.109C380.432 368.355 380.064 368.478 379.818 368.723" stroke="#DFE4E8" stroke-linecap="round" stroke-linejoin="round"/>
<path d="M557.25 266.188C555.531 267.415 554.057 268.766 552.215 269.871C548.678 272.233 545.494 275.086 542.76 278.344C537.48 283.993 533.428 290.255 529.13 296.272C525.201 301.798 521.149 307.323 515.623 311.867C509.34 317.211 501.597 320.548 493.398 321.444C490.834 321.791 488.249 321.956 485.662 321.936C481.855 321.936 478.048 321.936 474.242 321.69C470.926 321.444 467.611 320.831 464.295 320.708C458.892 320.462 453.49 319.971 448.087 320.217C439.738 320.664 431.653 323.288 424.633 327.83C416.336 333.319 409.064 340.218 403.145 348.213C398.11 354.599 393.198 361.229 388.286 367.738C387.928 368.124 387.514 368.455 387.059 368.72" stroke="#DFE4E8" stroke-linecap="round" stroke-linejoin="round"/>
<path d="M299.754 238.2C297.912 241.884 295.088 242.129 291.158 241.515C284.159 240.41 277.529 238.2 270.775 236.358C264.021 234.516 257.513 232.92 250.76 231.201C242.655 229.236 234.551 227.517 226.446 225.307C221.289 223.956 216.869 221.5 214.536 217.325C213.101 214.792 212.663 211.814 213.308 208.975C213.651 206.924 214.186 204.91 214.904 202.958C216.92 197.339 220.196 192.256 224.482 188.1C226.984 185.627 229.946 183.667 233.2 182.329C238.234 180.369 243.797 180.239 248.918 181.961C254.007 183.659 258.779 186.19 263.039 189.451C273.476 197.187 281.458 206.397 288.703 216.097C292.601 221.073 295.86 226.519 298.403 232.306C299.23 234.073 299.65 236.003 299.631 237.954" stroke="#DFE4E8" stroke-linecap="round" stroke-linejoin="round"/>
</g>
<defs>
<clipPath id="clip0_1052_55760">
<rect width="390" height="319" fill="white" transform="matrix(-1 0 0 1 390.5 0)"/>
</clipPath>
</defs>
</svg>
