<svg width="75" height="75" viewBox="0 0 75 75" fill="none" xmlns="http://www.w3.org/2000/svg">
<g opacity="0.3" clip-path="url(#clip0_165_2173)">
<path d="M227.841 244.053C229.658 241.538 231.396 239.023 233.293 236.589C235.943 233.332 238.967 230.417 242.301 227.908C245.461 225.474 248.78 223.202 252.019 220.931C259.052 216.063 265.531 210.627 270.193 204.055C272.942 200.232 275.2 196.059 276.909 191.642C277.98 188.685 278.826 185.647 279.438 182.556C279.835 180.25 280.072 177.918 280.149 175.578C280.307 173.712 280.386 171.765 280.386 169.899C280.386 167.222 280.228 164.545 280.149 161.786C280.07 158.865 279.833 155.945 279.991 152.943C280.228 148.318 280.86 143.694 282.756 139.313C284.179 135.663 286.558 132.49 289.63 130.145C292.211 128.287 295.253 127.218 298.401 127.062C301.483 126.819 304.643 126.737 307.725 126.494C311.242 126.287 314.708 125.521 317.997 124.222C319.567 123.586 321.075 122.798 322.501 121.869C326.088 119.46 328.938 116.057 330.718 112.053C332.137 109.127 333.046 105.97 333.404 102.723C333.654 100.976 333.786 99.2141 333.8 97.449C333.721 95.2585 333.405 93.149 333.168 91.0396C332.931 89.0925 332.614 87.1453 332.535 85.1171C332.377 82.2775 332.298 79.3567 332.298 76.5171C332.393 75.0148 332.604 73.5226 332.93 72.0549C333.089 70.838 333.246 69.5398 333.404 68.3229C333.642 66.8625 333.879 65.321 334.037 63.8607L334.274 61.6701C334.353 60.4532 334.353 59.2362 334.511 58.0192C335.143 52.6646 334.985 47.2288 334.906 41.8741C334.813 39.5118 334.602 37.1559 334.274 34.8157C334.116 33.5176 334.037 32.2195 333.8 30.9214C333.562 29.1365 333.326 27.2705 332.93 25.4856C332.145 21.8093 331.007 18.222 329.533 14.7763C327.449 9.93778 324.44 5.57859 320.683 1.95754C317.721 -0.856303 314.297 -3.10875 310.569 -4.69523C307.765 -5.9695 304.701 -6.52629 301.641 -6.31785C298.91 -6.14819 296.269 -5.25361 293.976 -3.72165C289.077 -0.476396 285.917 3.74245 283.388 8.36693C281.541 11.7337 280.057 15.2975 278.963 18.9951C278.251 21.6627 277.697 24.372 277.304 27.1082C276.701 30.314 276.489 33.5844 276.672 36.844C276.766 38.6682 276.977 40.4842 277.304 42.2798C277.656 44.4428 278.131 46.5829 278.726 48.6891C280.219 53.5002 282.432 58.0438 285.285 62.1569C287.497 65.4022 289.867 68.5663 292.159 71.7304C293.897 74.1643 295.556 76.5983 296.189 79.3567C297.216 83.4944 296.189 87.2265 292.554 90.4717C291.273 91.6465 289.765 92.5311 288.129 93.0679C286.469 93.5978 284.719 93.7637 282.993 93.5547C279.494 92.9815 276.123 91.7727 273.037 89.9849C266.874 86.8208 260.79 83.4944 254.153 80.8982C248.733 78.8067 243.12 77.2845 237.402 76.3549C233.143 75.665 228.828 75.4203 224.522 75.6247C220.857 75.8264 217.211 76.3146 213.618 77.0851C208.709 78.2291 203.919 79.8594 199.316 81.9529C195.761 83.5756 192.284 85.2793 188.887 87.0642C182.802 90.1472 176.718 93.0679 170.239 95.583C165.103 97.5301 159.809 99.3962 154.752 101.506C150.038 103.45 145.536 105.897 141.32 108.807C135.789 112.539 131.048 116.839 125.912 120.896C123.111 123.213 119.997 125.099 116.667 126.494C114.202 127.482 111.569 127.951 108.924 127.873C105.739 127.71 102.62 126.882 99.7578 125.439C95.9794 123.526 92.4046 121.214 89.0908 118.543C87.1154 117.002 85.1401 115.379 83.2438 113.756C78.819 109.943 74.4731 106.13 70.1273 102.317C67.7568 100.207 65.3075 98.0981 62.937 96.0698C58.1961 92.0132 53.4552 87.9567 48.6353 83.9812C42.9462 79.3567 37.0201 74.9756 31.41 70.3512C26.4791 66.3105 22.1182 61.5869 18.4517 56.3155C15.2049 51.6229 12.5003 46.5588 10.3922 41.2251C9.27024 38.5339 8.52532 35.6931 8.17974 32.7874C7.93043 31.0954 7.7984 29.3874 7.78467 27.6762C7.88675 25.0155 8.39321 22.3875 9.28587 19.8875C11.4983 13.6404 15.4491 8.20463 20.427 3.25562C23.608 -0.0326555 27.325 -2.72357 31.41 -4.69523C34.3468 -6.04965 37.5156 -6.79413 40.7338 -6.88578C44.7353 -6.89919 48.7119 -6.24147 52.5069 -4.93861C57.2478 -3.39712 61.8308 -1.7745 66.4927 -0.07074C72.0237 1.95754 77.5546 4.14806 83.3227 5.68956C86.1192 6.45238 88.9742 6.96812 91.8563 7.23107C97.8614 7.88012 103.472 6.7443 108.924 4.71602C115.341 2.30332 121.574 -0.598451 127.571 -3.96503C131.871 -6.27281 136.016 -8.87491 139.976 -11.7537C145.226 -15.5195 149.957 -19.9949 154.041 -25.0591C155.779 -27.1686 157.281 -29.4402 158.94 -31.7119C159.191 -32.0234 159.483 -32.2966 159.809 -32.5232" stroke="#DFE4E8" stroke-width="0.711538" stroke-linecap="round" stroke-linejoin="round"/>
<path d="M207.614 244.053C209.115 242.106 210.537 240.24 212.038 238.374C215.357 234.317 218.597 230.261 222.073 226.285C225.351 222.556 229.067 219.258 233.135 216.469C237.086 213.71 241.116 211.033 244.988 208.193C250.914 203.974 255.892 199.025 259.21 193.103C261.013 189.924 262.32 186.475 263.082 182.88C263.683 180.276 263.975 177.606 263.951 174.929C263.951 173.956 264.188 173.063 264.109 172.09C264.03 169.412 263.872 166.735 263.714 163.977C263.556 161.867 263.398 159.677 263.319 157.567C263.161 154.403 263.082 151.239 263.082 147.994C263.161 145.803 263.477 143.613 263.714 141.422C263.951 139.556 264.109 137.69 264.346 135.905C264.583 134.283 264.899 132.66 265.136 131.118C265.294 129.902 265.61 128.685 265.689 127.468C265.979 124.937 266.111 122.389 266.085 119.841C265.847 112.296 263.003 105.4 256.919 99.5584C253.161 95.9458 248.762 93.1088 243.96 91.2019C240.629 89.8235 237.112 88.9754 233.53 88.6868C231.695 88.4575 229.848 88.3491 227.999 88.3623C223.587 88.5124 219.22 89.3326 215.041 90.7963C208.562 92.9868 203.031 96.4754 197.5 99.9641C191.969 103.453 186.359 107.185 179.88 109.538C177.035 110.592 174.032 111.566 171.109 112.458C165.499 114.162 159.889 115.704 154.595 117.975C150.698 119.606 146.988 121.674 143.533 124.141C139.977 126.737 136.5 129.577 132.945 132.173C129.547 134.688 126.228 137.203 122.041 138.988C118.859 140.389 115.436 141.118 111.974 141.132C108.513 141.146 105.084 140.444 101.892 139.069C99.1988 137.891 96.6084 136.48 94.1485 134.85C91.8293 133.387 89.6114 131.761 87.5111 129.983C84.5876 127.549 81.9011 125.034 79.0566 122.519C78.0294 121.626 77.0812 120.734 76.054 119.922C69.8908 114.73 63.8067 109.456 57.4855 104.426C52.3932 100.299 47.0342 96.5316 41.4455 93.1491C35.0453 89.3359 28.5662 85.6038 22.245 81.7907C16.3714 78.2627 11.2838 73.5089 7.31114 67.8361C4.30858 63.455 1.70105 58.8305 -0.827418 54.2872C-3.82998 48.9325 -6.8325 43.659 -9.67703 38.3043C-10.8526 36.1492 -11.705 33.8243 -12.2055 31.4082C-12.9313 27.8207 -12.3997 24.0853 -10.7043 20.8611C-8.43781 16.3633 -5.68083 12.1444 -2.48661 8.28578C1.93821 2.68773 6.36304 -2.9103 10.9459 -8.42723C13.7904 -11.8347 16.7929 -15.1611 19.9535 -18.4064C22.7472 -21.3022 26.0792 -23.5922 29.7514 -25.1403C31.9191 -26.0325 34.2146 -26.5533 36.5466 -26.6818C41.0939 -26.9143 45.6333 -26.082 49.8211 -24.2478C55.5102 -21.9761 61.1202 -19.6234 66.8093 -17.2706C72.4181 -14.9977 78.2447 -13.3388 84.1926 -12.3215C88.4817 -11.6736 92.8271 -11.5104 97.1509 -11.8347C102.281 -12.1708 107.337 -13.2637 112.164 -15.08C116.644 -16.6605 120.959 -18.699 125.043 -21.1648C129.905 -24.1225 134.369 -27.7231 138.318 -31.8742C138.633 -32.155 138.978 -32.3998 139.345 -32.6043" stroke="#DFE4E8" stroke-width="0.711538" stroke-linecap="round" stroke-linejoin="round"/>
<path d="M220.335 243.976C223.719 238.65 227.668 233.725 232.108 229.291C235.21 226.284 238.568 223.569 242.143 221.178C245.619 218.825 248.938 216.31 252.336 213.957C256.603 210.928 260.456 207.326 263.793 203.248C267.31 199.016 269.97 194.107 271.615 188.806C272.326 186.291 273.038 183.776 273.591 181.261C273.907 179.557 273.907 177.854 274.065 176.15C274.144 174.852 274.302 173.473 274.302 172.174C274.302 170.308 274.223 168.442 274.065 166.576C273.986 164.629 273.828 162.601 273.591 160.654C273.183 156.829 273.051 152.978 273.196 149.133C273.275 147.024 273.591 144.914 273.828 142.805C274.381 137.694 276.04 132.745 277.463 127.796C278.253 125.281 278.964 122.766 279.517 120.169C280.485 116.034 279.862 111.675 277.779 108C275.598 104.369 272.939 101.065 269.877 98.1828C265.667 94.0482 260.905 90.5514 255.733 87.798C249.593 84.3086 242.863 82.0509 235.901 81.1452C233.925 80.9018 231.95 80.6584 229.895 80.5773C227.816 80.4556 225.732 80.4556 223.653 80.5773C220.784 80.8992 217.935 81.3868 215.12 82.0377C209.55 83.3733 204.181 85.4747 199.159 88.2848L184.936 96.0734C179.912 98.7605 174.679 101.013 169.291 102.807C164.392 104.511 159.335 106.215 154.595 108.081C149.586 110.05 144.856 112.696 140.53 115.951C136.816 118.79 133.181 121.711 129.547 124.55C126.846 126.774 123.965 128.755 120.934 130.473C117.364 132.42 113.359 133.371 109.319 133.231C107.236 133.137 105.182 132.699 103.235 131.933C99.0221 130.449 95.092 128.226 91.6196 125.362C89.0121 123.333 86.4047 121.386 83.9552 119.277C79.9255 115.869 76.0538 112.3 72.103 108.811C70.9968 107.837 69.8117 106.783 68.6264 105.809C66.7301 104.186 64.8338 102.564 62.9374 101.022C60.1719 98.6696 57.4062 96.2356 54.4827 93.9639C50.2159 90.6376 45.7911 87.3923 41.4452 84.1471C38.1266 81.7131 34.7291 79.3603 31.4895 76.8453C28.803 74.817 26.1165 72.7887 23.588 70.5982C20.0277 67.479 16.868 63.9076 14.1851 59.97C12.3678 57.2926 10.6295 54.6153 9.04919 51.7757C6.02118 46.6394 3.63211 41.1337 1.93786 35.3872C1.03337 32.0922 0.712254 28.6573 0.989719 25.2458C1.39657 21.6396 2.52647 18.1589 4.3083 15.0233C6.65436 10.6564 9.43472 6.55092 12.6049 2.77246C15.312 -0.441246 18.1873 -3.50168 21.2176 -6.39536C23.7829 -8.83055 26.6527 -10.9041 29.7512 -12.5614C32.7028 -14.1366 35.9855 -14.9445 39.3119 -14.9141C43.6351 -14.8987 47.9193 -14.0739 51.9542 -12.4802C56.142 -11.0198 60.2508 -9.3972 64.3595 -7.85571C69.37 -5.87571 74.4884 -4.19621 79.6885 -2.82561C83.1892 -1.90851 86.7566 -1.28442 90.3555 -0.959556C93.6201 -0.730285 96.8976 -0.784576 100.153 -1.12183C106.553 -1.85201 112.401 -3.88028 118.09 -6.23309C124.201 -8.74331 130.029 -11.926 135.473 -15.7254C140.286 -19.0647 144.644 -23.0482 148.431 -27.5706C149.617 -28.9499 150.723 -30.4102 151.908 -31.8706C152.104 -32.052 152.316 -32.215 152.54 -32.3574" stroke="#DFE4E8" stroke-width="0.711538" stroke-linecap="round" stroke-linejoin="round"/>
<path d="M213.065 243.976C216.146 239.919 219.228 235.944 222.388 231.887C226.16 227.209 230.518 223.062 235.347 219.555C238.823 216.959 242.616 214.606 246.172 212.091C251.624 208.278 256.523 204.14 260.236 199.11C264.851 192.793 267.595 185.244 268.138 177.367C268.217 174.527 268.375 171.769 268.296 168.929C268.296 166.82 268.059 164.792 267.901 162.682C267.743 160.735 267.506 158.869 267.506 156.922C267.348 153.514 267.269 150.107 267.269 146.78C267.362 144.849 267.573 142.925 267.901 141.02C268.138 138.911 268.454 136.801 268.77 134.692C269.086 132.907 269.481 131.041 269.718 129.256C269.955 127.471 270.35 125.686 270.508 123.901C270.666 121.873 270.745 119.764 270.745 117.735C270.643 113.911 269.611 110.174 267.743 106.864C265.293 102.158 261.501 98.1016 256.997 94.613C252.513 91.1761 247.451 88.6182 242.063 87.0678C238.909 86.1579 235.683 85.5336 232.423 85.2018C225.928 84.6512 219.392 85.4797 213.223 87.6357C207.059 89.7451 201.765 92.8281 196.471 95.9922C192.363 98.4261 188.254 100.86 184.066 103.132C179.761 105.321 175.263 107.087 170.634 108.405C165.419 110.028 160.204 111.488 155.226 113.598C150.554 115.504 146.123 117.983 142.03 120.981C139.107 123.171 136.262 125.443 133.339 127.715C129.941 130.311 126.622 132.988 122.672 135.097C119.744 136.689 116.529 137.646 113.227 137.912C109.924 138.177 106.604 137.744 103.471 136.639C99.5454 135.196 95.8456 133.174 92.488 130.635C90.5126 129.094 88.3791 127.715 86.4828 126.092C82.6111 122.847 78.8975 119.439 75.1838 116.113L71.9441 113.273C66.018 108.324 60.2499 103.375 54.1658 98.5884C47.9111 93.7024 41.3954 89.179 34.6492 85.0395C29.1182 81.5508 23.6661 78.0622 18.8462 73.9245C15.5406 71.0655 12.5944 67.7951 10.0755 64.1888C8.49523 61.9171 7.07308 59.5643 5.65081 57.2115C2.49982 51.9507 -0.349589 46.5057 -2.88283 40.9041C-4.17411 38.1251 -5.18041 35.2158 -5.88543 32.2231C-6.33291 29.8697 -6.38631 27.4553 -6.04342 25.0835C-5.25327 19.0798 -1.93461 13.8874 1.70007 8.85727C4.38657 5.0441 7.23095 1.39321 10.2335 -2.17656C13.5521 -6.07086 16.9499 -9.96519 20.6636 -13.6161C23.2951 -16.3303 26.4056 -18.5055 29.8292 -20.0254C31.8386 -20.9233 33.9706 -21.498 36.1504 -21.7292C40.6542 -22.2971 44.9211 -21.3236 49.0298 -19.8632C54.4819 -17.8349 59.8549 -15.6443 65.2279 -13.5349C70.5115 -11.4071 75.9553 -9.72483 81.505 -8.50484C84.6907 -7.89484 87.9101 -7.4884 91.1448 -7.28787C96.977 -6.9888 102.818 -7.64607 108.449 -9.23499C116.168 -11.3395 123.505 -14.7092 130.178 -19.2141C135.403 -22.696 140.135 -26.9003 144.243 -31.7084C144.401 -31.8706 144.717 -32.0329 144.875 -32.1951" stroke="#DFE4E8" stroke-width="0.711538" stroke-linecap="round" stroke-linejoin="round"/>
<path d="M276.112 -32.5234C276.744 -31.7121 277.455 -30.9008 278.087 -30.0895C279.747 -27.98 281.406 -25.8706 282.986 -23.7612C284.37 -22.0088 285.173 -19.8486 285.278 -17.5952C285.22 -15.9665 284.843 -14.3663 284.171 -12.8896C282.986 -10.2123 281.564 -7.69725 280.221 -5.10105C275.773 2.95518 272.448 11.6125 270.344 20.6176C269.949 22.4836 269.554 24.3496 269.317 26.2156C269.001 28.6496 268.843 31.0835 268.606 33.5174C268.395 35.0217 268.342 36.5449 268.448 38.0608C268.606 40.5758 269.08 43.172 269.317 45.6871C269.744 49.0516 270.484 52.3662 271.529 55.5851C272.082 57.6134 272.951 59.4794 273.584 61.5077C274.69 64.8341 275.875 68.0793 276.744 71.4057C277.297 73.5963 277.297 75.7868 275.559 77.7339C274.405 79.0097 272.825 79.7918 271.134 79.9245C268.29 80.3301 265.682 79.6 263.075 78.9509C257.939 77.6528 252.961 76.1113 247.825 74.7321C243.064 73.3734 238.201 72.4236 233.286 71.8925C230.995 71.6491 228.624 71.4868 226.333 71.3246C224.673 71.2434 222.935 71.0812 221.197 71.1623C216.54 71.3338 211.911 71.9586 207.369 73.0283C203.735 73.9208 200.179 75.0566 196.702 76.2736C189.986 78.6264 183.744 81.8716 177.264 84.6301C171.417 87.1452 165.412 89.4169 159.407 91.7697C151.98 94.6904 144.79 97.9356 138.468 102.236C134.639 104.817 130.946 107.606 127.406 110.592C125.352 112.377 123.297 114.162 121.164 115.866C118.338 118.209 115.198 120.122 111.84 121.545C108.261 122.973 104.333 123.2 100.62 122.194C96.8595 121.196 93.3013 119.52 90.1112 117.245C84.5801 113.675 79.8393 109.375 74.9404 105.319C72.0168 102.885 69.2513 100.288 66.4067 97.7734C63.3252 95.0149 60.1647 92.2564 57.0832 89.4168C49.6558 82.6829 41.6752 76.3547 33.9318 69.8642C29.3804 66.1891 25.222 62.028 21.5265 57.4511C17.4443 52.3993 14.1884 46.6999 11.8866 40.5758C10.9142 38.136 10.2761 35.5694 9.99029 32.9495C9.91127 31.7325 9.59521 30.5156 9.59521 29.2986C9.61581 24.0235 11.1854 18.8775 14.099 14.5327C15.7896 11.9673 17.7797 9.62408 20.0251 7.55545C22.6464 5.16711 25.6032 3.19785 28.7958 1.71399C31.2729 0.601889 33.9202 -0.0570956 36.6182 -0.233175C41.8332 -0.638831 46.6531 0.578125 51.473 2.03849C57.2687 3.92522 62.9655 6.11872 68.5403 8.61014C71.7009 9.90824 74.8614 11.2875 78.101 12.5856C81.5755 14.0391 85.2112 15.0473 88.926 15.5874C93.18 16.1147 97.4951 15.5574 101.489 13.9648C106.388 12.0988 110.655 9.50259 115.001 6.98753C120.532 3.74228 126.063 0.415899 131.515 -2.99161C134.439 -4.85763 137.204 -6.88594 139.97 -8.91422C145.595 -13.0636 150.623 -18.0072 154.903 -23.599C156.958 -26.1952 158.696 -28.9536 160.592 -31.631C160.827 -31.881 161.038 -32.1526 161.224 -32.4423" stroke="#DFE4E8" stroke-width="0.711538" stroke-linecap="round" stroke-linejoin="round"/>
<path d="M-103.311 83.9805C-101.257 84.6296 -99.2023 85.2786 -97.2269 86.0088C-91.6711 87.9895 -85.9615 89.4823 -80.1597 90.471C-77.8089 90.8647 -75.4301 91.0547 -73.0483 91.0389C-68.9396 90.9578 -64.9098 90.5522 -61.1961 88.9295C-56.7598 87.2532 -53.1514 83.8399 -51.1613 79.4372C-49.7625 75.9566 -48.7038 72.3421 -48.0007 68.6467C-46.6787 62.3489 -44.2414 56.3539 -40.8103 50.9601C-38.8144 47.8606 -36.4226 45.0501 -33.6989 42.6036C-32.4354 41.5274 -31.0571 40.602 -29.5902 39.8451C-28.4306 39.2185 -27.1373 38.8978 -25.827 38.9119C-24.5166 38.9261 -23.2303 39.2747 -22.0838 39.9262C-19.9878 41.0579 -18.0699 42.5075 -16.3948 44.2262C-12.7644 48.031 -9.60611 52.2821 -6.9919 56.8827C-4.77949 60.777 -2.88325 64.7524 -0.591822 68.6467C1.77862 72.7033 4.2282 76.7598 8.0209 80.0862C11.6318 83.1445 15.6493 85.6579 19.952 87.5503C24.4559 89.7408 29.0388 91.7691 33.6216 93.8785C39.1698 96.4959 44.5069 99.5615 49.5826 103.046C52.8222 105.237 56.0619 107.59 59.1434 109.943C63.0152 112.944 66.8869 115.946 70.6006 119.11C74.7884 122.68 78.897 126.25 82.9268 129.901C87.0196 133.657 91.4364 137.025 96.1224 139.961C99.7632 142.253 103.779 143.848 107.975 144.667C111.511 145.316 115.137 145.233 118.642 144.423C122.981 143.364 127.084 141.464 130.731 138.825C133.654 136.878 136.262 134.688 139.106 132.578C143.548 129.082 148.312 126.039 153.329 123.491C156.797 121.839 160.391 120.482 164.075 119.435C169.053 117.975 174.11 116.676 179.009 115.135C184.241 113.464 189.236 111.09 193.864 108.076C198.605 104.994 203.266 101.829 208.086 98.8275C212.424 96.0984 217.221 94.2273 222.23 93.3106C224.138 92.9742 226.064 92.7575 227.998 92.6616C230.566 92.4461 233.151 92.6377 235.662 93.2295C237.948 93.6954 240.193 94.3464 242.379 95.1766C245.579 96.469 248.544 98.3067 251.149 100.612C254.8 103.718 257.558 107.784 259.13 112.376C259.885 114.432 260.338 116.593 260.473 118.786C260.643 120.863 260.696 122.949 260.631 125.033C260.473 127.71 260.157 130.306 259.762 132.903C259.367 135.742 258.814 138.582 258.498 141.421C258.261 143.45 258.103 145.478 258.024 147.506C257.866 151.725 257.787 155.944 257.787 160.163C257.866 164.787 258.103 169.493 258.182 174.117C258.128 177.194 257.676 180.25 256.838 183.204C256.096 186.128 254.923 188.918 253.362 191.479C251.728 194.21 249.734 196.694 247.436 198.862C243.406 202.676 238.744 205.921 234.003 209.166C227.186 213.671 221.016 219.133 215.672 225.392C211.8 230.017 208.086 234.641 204.214 239.266C202.95 240.807 201.607 242.268 200.343 243.728" stroke="#DFE4E8" stroke-width="0.711538" stroke-linecap="round" stroke-linejoin="round"/>
<path d="M-103.311 87.3906C-97.543 89.3378 -91.8538 91.2849 -86.0067 93.0698C-82.1414 94.2388 -78.1702 95 -74.1545 95.3415C-70.8359 95.5849 -67.5173 95.4226 -64.1987 95.3415C-61.4165 95.2123 -58.6585 94.7494 -55.9811 93.9623C-52.34 93.0534 -48.9054 91.4278 -45.8673 89.1755C-43.0341 87.0052 -41.0454 83.8704 -40.2572 80.3322C-39.6251 77.6549 -39.3091 74.8964 -38.914 72.138C-38.2029 68.0003 -37.1757 63.9437 -34.8053 60.1306C-33.616 58.1939 -31.9898 56.5798 -30.0644 55.4249C-26.7458 53.4778 -23.6642 53.5589 -20.3455 55.5872C-18.0617 57.0639 -16.1415 59.0632 -14.7354 61.4286C-12.2069 65.2418 -10.7057 69.3795 -9.20438 73.5983C-7.86113 77.3304 -6.59689 80.9813 -4.06842 84.3077C-1.85392 87.0878 0.996357 89.2619 4.22813 90.6359C8.3369 92.5019 12.8407 93.3944 17.1865 94.5302C21.8483 95.7472 26.5892 96.883 31.0141 98.5056C38.9821 101.451 46.55 105.432 53.5333 110.351C56.2198 112.217 58.8273 114.083 61.4347 116.111C64.2793 118.302 67.1238 120.492 69.8893 122.845C73.4449 125.847 76.8427 129.011 80.3194 132.094C85.7714 136.8 91.2233 141.586 98.0186 145.075C101.366 146.842 104.967 148.048 108.686 148.645C113.465 149.373 118.346 148.9 122.908 147.266C127.003 145.709 130.881 143.609 134.444 141.018C139.185 137.692 143.926 134.203 148.746 130.958C153.208 128.109 158.053 125.949 163.127 124.549C168.105 123.088 173.162 121.79 178.219 120.492C184.676 118.773 190.816 115.977 196.392 112.217C200.975 109.215 205.4 106.051 210.062 103.049C213.872 100.61 218.071 98.8798 222.467 97.9377C231.238 96.1528 239.06 97.6943 245.776 102.806C249.018 105.248 251.579 108.521 253.204 112.298C254.102 114.181 254.664 116.215 254.863 118.302C255.152 120.534 255.284 122.784 255.258 125.036C255.165 127.236 254.954 129.43 254.626 131.607C254.389 133.473 254.231 135.339 253.994 137.124C253.757 138.909 253.362 140.613 253.125 142.398C252.888 143.777 252.808 145.156 252.65 146.535C251.86 154.811 252.414 163.086 252.176 171.443C252.117 176.077 251.261 180.663 249.648 184.992C247.645 189.714 244.618 193.904 240.798 197.242C237.201 200.361 233.428 203.26 229.499 205.923C223.438 210.179 217.917 215.194 213.064 220.852C209.509 225.151 205.953 229.451 202.318 233.751C199.474 237.078 196.392 240.323 193.468 243.568C193.389 243.649 193.31 243.812 193.231 243.893" stroke="#DFE4E8" stroke-width="0.711538" stroke-linecap="round" stroke-linejoin="round"/>
<path d="M263.706 -32.5209C264.026 -31.9701 264.316 -31.4013 264.575 -30.8172C265.444 -28.7078 266.313 -26.5172 267.024 -24.4078C268.022 -21.6741 268.866 -18.884 269.553 -16.0513C269.945 -14.1592 270.105 -12.2238 270.027 -10.2909C269.76 -7.26827 269.338 -4.26222 268.763 -1.28538C267.893 3.09571 266.866 7.47681 265.918 11.8579C265.207 15.1843 264.417 18.5918 263.706 21.9181C263.39 23.4596 263.231 25.0823 262.994 26.6238C262.678 28.7332 262.362 30.7615 262.125 32.8709C262.046 33.7633 261.888 34.6557 261.888 35.4671C261.809 39.767 261.73 44.1481 261.651 48.4481C261.651 50.3141 261.967 52.2612 261.809 54.1272C261.651 56.4801 261.572 58.7517 260.624 61.0234C259.281 64.1064 256.752 65.8102 252.88 66.0535C250.51 66.2158 248.14 66.297 245.769 66.2158C243.399 66.1347 241.028 65.729 238.658 65.5668C236.84 65.4045 235.023 65.4045 233.206 65.1611C228.713 64.7692 224.2 64.6609 219.694 64.8366C216.734 64.9153 213.779 65.1591 210.845 65.5668C206.269 66.1918 201.751 67.1957 197.333 68.5686C193.066 69.8667 188.8 71.3271 184.612 72.7063C179.871 74.3289 175.209 76.0327 170.547 77.6553C166.675 79.0345 162.804 80.4138 158.932 81.7119C150.46 84.6511 142.509 88.9801 135.386 94.5306C133.094 96.3155 130.724 98.1004 128.511 99.9664C125.351 102.644 122.348 105.483 119.188 108.08C116.408 110.512 113.258 112.458 109.864 113.84C107.785 114.707 105.546 115.095 103.306 114.976C101.234 114.794 99.1916 114.358 97.2214 113.678C93.1256 112.165 89.2863 110.002 85.8433 107.268C82.9198 105.078 79.9173 102.887 77.2308 100.534C73.359 97.2079 69.6453 93.8004 65.9316 90.3929C63.4031 88.1212 60.9536 85.8496 58.5041 83.5779C54.7904 80.1704 51.0768 76.7629 47.2841 73.3554C46.0198 72.1384 44.5976 71.0837 43.3333 69.8667C37.6443 64.8366 32.0343 59.8876 27.6095 54.0461C23.8167 49.1783 20.8142 43.9047 19.3129 38.2255C18.8388 36.3595 18.6017 34.4124 18.2857 32.5464C17.9062 29.5234 18.287 26.451 19.3918 23.6219C20.4009 20.9981 21.9355 18.6211 23.8958 16.6446C26.0593 14.3706 28.673 12.6 31.5602 11.4522C35.2565 9.99399 39.2456 9.49246 43.1753 9.99188C49.0596 10.6155 54.7868 12.3193 60.0844 15.022C66.3266 18.1861 72.4108 21.5936 78.4949 24.92C81.5129 26.6386 84.7235 27.9736 88.0558 28.8955C90.0226 29.4024 92.0347 29.7014 94.0608 29.7879C97.7964 29.8982 101.489 28.9434 104.728 27.0294C107.76 25.1823 110.571 22.9767 113.103 20.4578C117.577 16.1721 122.272 12.1368 127.168 8.36926C131.514 5.04288 136.255 1.95987 140.679 -1.28538C146.131 -5.34194 151.346 -9.56077 155.692 -14.4286C158.573 -17.5984 161.214 -20.9887 163.594 -24.5701C165.253 -27.0851 166.754 -29.6813 168.414 -32.1964C168.604 -32.4327 168.816 -32.65 169.046 -32.8454" stroke="#DFE4E8" stroke-width="0.711538" stroke-linecap="round" stroke-linejoin="round"/>
<path d="M252.407 -32.5231C252.514 -32.506 252.62 -32.4788 252.723 -32.442C253.434 -28.3854 254.856 -24.5723 256.041 -20.678C256.99 -17.5138 257.938 -14.4308 258.649 -11.2667C259.046 -9.28889 259.284 -7.2809 259.36 -5.26302C259.557 -3.89359 259.636 -2.509 259.597 -1.1253C259.439 1.22751 259.202 3.49916 258.965 5.85197C258.807 7.2312 258.728 8.61046 258.491 9.98969C258.254 11.5312 258.017 13.0726 257.701 14.6141C257.385 16.4802 257.069 18.3462 256.674 20.2122C256.437 21.5103 256.121 22.8084 255.884 24.1065C255.567 25.9725 255.251 27.8386 254.856 29.7046C254.461 31.8951 253.987 34.0856 253.513 36.3573C253.039 38.629 252.723 40.8195 252.17 43.0101C251.459 45.8497 250.59 48.6081 248.614 51.1232C246.409 53.6882 243.381 55.3575 240.081 55.8288C237.553 56.3167 234.988 56.5612 232.416 56.559C229.414 56.559 226.332 56.6401 223.329 56.7213C220.327 56.8024 217.245 56.9647 214.243 57.2892C207.877 57.8761 201.564 58.961 195.358 60.5344C189.906 61.9137 184.454 63.4552 178.923 64.7533C173.55 66.0514 168.098 67.1061 162.725 68.323C158.3 69.3777 153.955 70.3513 149.688 71.6494C145.569 72.9667 141.677 74.9377 138.152 77.4909C133.253 80.9795 129.381 85.1983 125.351 89.2549C122.507 92.0945 119.583 94.8529 116.739 97.6925C114.149 100.246 111.157 102.331 107.889 103.859C105.065 105.152 101.943 105.602 98.8812 105.157C94.9305 104.67 91.6909 103.047 88.6093 101.262C83.9544 98.5794 79.6077 95.3681 75.651 91.6888C70.8311 87.3077 66.1691 82.6833 61.5072 78.221C57.2404 74.0833 53.0527 70.0268 48.8649 65.8891C44.9274 62.1715 41.1823 58.2448 37.6448 54.1251C34.8662 50.898 32.5754 47.2606 30.8495 43.3346C29.6409 40.5286 29.0735 37.476 29.1903 34.4102C29.6644 30.0291 31.6397 26.297 36.8547 24.2688C38.6062 23.623 40.4463 23.267 42.3066 23.2141C46.063 23.2155 49.7869 23.9306 53.2898 25.3235C58.6628 27.2706 63.1665 30.1914 67.8284 32.9498C71.4631 35.1404 75.0978 37.3309 78.9696 39.278C83.2349 41.4403 87.7878 42.9439 92.481 43.7403C96.4979 44.4725 100.622 44.3065 104.57 43.2535C108.148 42.2442 111.431 40.35 114.131 37.7366C116.869 34.8484 119.329 31.6969 121.48 28.3253C124.719 23.6197 128.038 18.9952 132.542 15.0198C136.176 11.7745 139.969 8.61043 143.762 5.44631C146.29 3.3369 149.056 1.30861 151.584 -0.800802C156.627 -4.93282 161.14 -9.70336 165.017 -14.9988C167.387 -18.3251 169.678 -21.7327 171.891 -25.1402C173.313 -27.4118 174.498 -29.7647 175.842 -32.0363C176.032 -32.2726 176.244 -32.4899 176.474 -32.6854" stroke="#DFE4E8" stroke-width="0.711538" stroke-linecap="round" stroke-linejoin="round"/>
<path d="M-106.794 48.528C-101.842 46.7419 -97.119 44.3445 -92.7298 41.3884C-88.0965 38.0933 -83.877 34.2238 -80.1665 29.8678C-77.674 26.8898 -74.9523 24.1225 -72.0279 21.5924C-69.192 19.1658 -65.7869 17.5435 -62.1511 16.8868C-58.6099 16.2632 -54.9831 16.3735 -51.4841 17.2113C-48.1655 18.1037 -44.9258 18.9962 -41.7652 20.132C-38.9997 21.1056 -36.2342 22.2414 -33.2316 22.4848C-31.0289 22.6705 -28.8234 22.161 -26.9104 21.0245C-24.2159 19.6299 -21.7606 17.7939 -19.6411 15.5887C-16.0854 12.0189 -12.4507 8.44912 -9.1321 4.63595C-4.15417 -1.12437 0.586721 -7.04693 5.48564 -12.8884C8.33017 -16.2959 11.2536 -19.6223 14.2562 -22.9487C16.8244 -25.8131 19.8762 -28.1769 23.264 -29.9259C25.859 -31.2714 28.6699 -32.1235 31.5605 -32.441C35.9853 -32.9278 40.0151 -32.0353 43.9658 -30.7372C49.1808 -29.0335 54.0007 -26.5185 58.9786 -24.3279C65.2815 -21.3288 71.9141 -19.1222 78.7323 -17.7562C81.3369 -17.2414 83.9815 -16.9698 86.6338 -16.9449C88.6091 -16.9449 90.6636 -16.7827 92.639 -16.9449C95.2922 -17.1641 97.9306 -17.5434 100.54 -18.0808C106.442 -19.4209 112.097 -21.7216 117.292 -24.8958C120.781 -26.8885 124.018 -29.3136 126.931 -32.1165C127.193 -32.326 127.487 -32.4904 127.801 -32.6033" stroke="#DFE4E8" stroke-width="0.711538" stroke-linecap="round" stroke-linejoin="round"/>
<path d="M-106.633 44.9611C-105.053 44.1498 -103.473 43.4196 -101.971 42.6083C-99.8379 41.3913 -97.7836 40.1743 -95.7292 38.7951C-90.5933 35.3065 -86.9585 30.8443 -83.1658 26.4632C-80.7953 23.6236 -78.425 20.784 -75.8175 18.1067C-72.8183 14.933 -69.0136 12.6847 -64.8344 11.6162C-62.9977 11.142 -61.1172 10.87 -59.2244 10.8049C-54.3255 10.4803 -49.5846 11.4539 -44.7647 12.2652C-41.2581 13.0394 -37.6842 13.4471 -34.0977 13.4822C-30.4525 13.3872 -26.88 12.4146 -23.6678 10.6426C-19.9054 8.51459 -16.4263 5.89672 -13.3168 2.85395C-8.6549 -1.36487 -4.78322 -6.07047 -0.911495 -10.7761C2.48614 -14.9949 5.8048 -19.2137 9.20243 -23.5137C11.667 -26.5977 14.4486 -29.3994 17.499 -31.8702C17.9482 -32.1617 18.4247 -32.4063 18.9213 -32.6004" stroke="#DFE4E8" stroke-width="0.711538" stroke-linecap="round" stroke-linejoin="round"/>
<path d="M-106.633 42.2823C-106.071 41.9267 -105.49 41.6017 -104.895 41.3087C-99.1958 38.5321 -94.1129 34.5833 -89.9611 29.7069C-86.9585 26.056 -84.114 22.324 -81.0324 18.7542C-79.2564 16.6872 -77.3564 14.7363 -75.3434 12.9127C-72.2613 10.2375 -68.5606 8.42141 -64.5973 7.63922C-61.5371 6.94799 -58.3864 6.78351 -55.2737 7.15245C-52.3502 7.55811 -49.3474 7.72035 -46.4239 8.04487C-44.1325 8.28827 -41.8411 8.77504 -39.5497 8.9373C-35.5199 9.09956 -31.4902 9.01843 -27.6974 7.72033C-24.1551 6.43469 -20.8245 4.60171 -17.8206 2.28458C-11.1043 -2.82669 -5.96842 -9.0738 -1.06951 -15.3209C3.03926 -20.5133 6.83189 -25.9491 11.4938 -30.817C12.1168 -31.4018 12.7767 -31.9439 13.4691 -32.4396" stroke="#DFE4E8" stroke-width="0.711538" stroke-linecap="round" stroke-linejoin="round"/>
<path d="M-106.794 38.55C-104.898 37.4142 -102.844 36.3595 -101.026 35.0614C-95.6533 31.3293 -91.9396 26.5426 -88.384 21.6747C-86.0135 18.4295 -83.643 15.2653 -81.0355 12.1824C-78.3082 8.95462 -74.9046 6.40285 -71.0798 4.71833C-68.197 3.4665 -65.12 2.75216 -61.9931 2.60889C-60.4428 2.47379 -58.8867 2.41962 -57.3311 2.44662C-55.2767 2.52775 -53.3014 2.77117 -51.247 2.93343C-49.1926 3.09569 -47.2173 3.3391 -45.1629 3.50136C-42.7925 3.66362 -40.3429 3.98813 -37.9725 3.98813C-32.2852 4.07095 -26.684 2.55598 -21.7745 -0.392977C-16.9859 -3.41331 -12.6925 -7.19198 -9.05321 -11.5891C-4.31233 -16.9437 -0.361473 -22.704 3.90532 -28.3021C4.93252 -29.6002 5.95963 -30.8172 6.98682 -32.1153C7.14485 -32.2775 7.38186 -32.3587 7.53989 -32.5209" stroke="#DFE4E8" stroke-width="0.711538" stroke-linecap="round" stroke-linejoin="round"/>
<path d="M-106.633 35.2258C-105.527 34.4145 -104.579 33.522 -103.394 32.7919C-101.117 31.2316 -99.0687 29.3467 -97.3095 27.1938C-93.9119 23.4618 -91.3043 19.3241 -88.5388 15.3486C-86.0103 11.6977 -83.4028 8.04683 -79.8472 5.04497C-75.804 1.51379 -70.8221 -0.69064 -65.5456 -1.28326C-63.8959 -1.51251 -62.2324 -1.62098 -60.5677 -1.6078C-58.1182 -1.6078 -55.6687 -1.60779 -53.2193 -1.44553C-51.0859 -1.28327 -48.9524 -0.877619 -46.819 -0.796488C-43.3423 -0.634225 -39.8657 -0.30968 -36.3891 -0.471943C-31.0171 -0.767294 -25.8141 -2.5015 -21.2974 -5.50209C-15.9585 -9.12897 -11.2788 -13.6869 -7.46979 -18.9699C-4.23019 -23.1887 -1.06952 -27.5698 2.09107 -31.8697C2.32191 -32.1248 2.58816 -32.3435 2.88122 -32.5188" stroke="#DFE4E8" stroke-width="0.711538" stroke-linecap="round" stroke-linejoin="round"/>
<path d="M59.0601 53.7176C60.2453 51.2837 62.0626 51.1214 64.5911 51.5271C69.0949 52.2573 73.3616 53.7176 77.7074 54.9346C82.0532 56.1516 86.2411 57.2063 90.5869 58.3421C95.8018 59.6402 101.017 60.776 106.232 62.2364C109.55 63.1288 112.395 64.7515 113.896 67.5099C114.819 69.1837 115.101 71.151 114.686 73.0269C114.465 74.382 114.121 75.7129 113.659 77.0023C112.362 80.7151 110.254 84.0733 107.496 86.8192C105.886 88.4532 103.98 89.7485 101.886 90.6323C98.6466 91.9274 95.0671 92.0135 91.7721 90.8757C88.4973 89.7538 85.4266 88.0814 82.6854 85.9267C75.9691 80.8155 70.8333 74.7306 66.1714 68.3212C63.6627 65.0335 61.5655 61.4357 59.9291 57.6119C59.3969 56.4444 59.1269 55.169 59.139 53.8799" stroke="#DFE4E8" stroke-width="0.711538" stroke-linecap="round" stroke-linejoin="round"/>
</g>
<defs>
<clipPath id="clip0_165_2173">
<rect width="74" height="74" fill="white" transform="matrix(1 0 0 -1 0.666504 74.0016)"/>
</clipPath>
</defs>
</svg>
