<svg width="356" height="1404" viewBox="0 0 356 1404" fill="none" xmlns="http://www.w3.org/2000/svg">
<g clip-path="url(#clip0_522_2280)">
<path d="M795.075 546.902C794.672 546.499 794.268 545.692 793.865 545.289C781.915 534.807 771.465 522.729 762.811 509.396C751.614 492.366 743.239 473.641 738.008 453.942C734.059 439.573 732.426 424.666 733.169 409.782C733.667 401.527 734.678 393.311 736.194 385.181C739.226 371.018 743.407 357.125 748.696 343.641C753.939 329.929 759.383 316.217 764.424 302.303C768.054 291.817 770.474 280.928 769.062 269.434C768.488 263.871 767.059 258.43 764.828 253.302C761.05 244.565 755.644 236.627 748.898 229.911C739.823 220.434 730.144 211.763 720.465 203.293C711.592 195.631 702.518 188.372 693.041 181.516C680.539 172.24 667.633 163.771 652.711 161.754C646.816 160.879 640.815 161.015 634.966 162.157C627.528 163.957 620.297 166.525 613.39 169.82C599.467 176.285 585.934 183.557 572.859 191.598C567.011 195.228 561.163 198.857 555.517 202.89C546.553 209.318 538.425 216.837 531.319 225.273C521.035 237.574 512.364 251.488 503.693 265.603C493.405 282.82 482.162 299.448 470.018 315.41C458.121 330.937 445.82 345.657 433.52 360.781L426.462 369.049C418.194 378.526 409.725 388.003 401.659 397.884C397.626 402.724 394.198 408.168 390.367 413.21C384.058 421.778 379.031 431.22 375.445 441.238C372.699 449.234 371.623 457.708 372.282 466.136C372.941 474.564 375.321 482.767 379.276 490.239C384.519 500.321 391.173 508.791 397.626 517.462C403.272 524.923 408.918 532.182 414.363 539.643C421.813 550.088 427.975 561.395 432.713 573.318C437.956 586.022 441.585 599.331 445.618 612.64C448.896 624.454 453.285 635.932 458.726 646.92C464.372 657.607 470.421 668.093 476.471 678.579C484.335 692.089 491.998 705.6 497.24 721.328C502.599 737.073 504.658 753.753 503.29 770.329C502.465 778.649 500.913 786.881 498.652 794.93C494.798 808.679 488.441 821.599 479.899 833.041C471.228 844.535 461.145 854.215 449.45 860.466C441.222 865.233 431.934 867.867 422.429 868.128C417.388 868.128 412.145 867.927 407.104 867.523C402.667 867.12 398.231 866.112 393.795 865.507C389.359 864.902 384.721 863.894 380.284 863.087C375.041 862.281 369.799 861.474 364.556 860.869C359.822 860.033 355.04 859.494 350.239 859.256C341.971 859.256 333.502 859.457 325.033 859.861C320.193 859.861 315.555 860.466 310.716 860.869C305.473 861.272 300.432 861.877 295.189 861.877C288.131 862.079 281.275 861.676 274.217 861.474C254.639 860.088 235.876 853.086 220.176 841.309C207.673 831.832 197.389 819.329 187.912 805.416C181.661 796.341 175.813 786.662 169.36 777.79C160.643 765.466 150.337 754.346 138.71 744.719C128.627 736.653 116.861 733.448 108.664 720.925C92.7871 696.669 96.5773 628.987 114.513 646.922C127.418 659.223 140.324 671.524 153.431 683.421C162.909 691.89 172.991 699.754 182.67 707.82C194.046 717.45 204.571 728.042 214.127 739.479C220.58 747.142 226.831 754.804 233.284 762.467C240.603 771.414 249.571 778.876 259.7 784.447C264.691 787.115 269.967 789.212 275.428 790.698C281.802 792.247 288.268 793.392 294.787 794.126C300.634 794.932 306.482 795.537 312.33 795.941C316.565 796.344 320.598 796.344 324.832 796.546C327.454 796.747 329.873 796.949 332.495 797.15C336.729 797.554 341.166 798.159 345.4 798.764C348.627 799.167 352.055 799.369 355.281 799.974C359.112 800.579 363.145 801.587 367.178 802.191C372.623 802.998 378.067 803.805 383.512 804.41C388.956 805.015 394.401 805.62 399.845 806.023C402.467 806.225 405.29 805.62 408.113 805.62C415.011 805.382 421.766 803.59 427.874 800.377C435.076 796.818 440.995 791.111 444.813 784.043C451.467 772.347 452.476 759.442 449.048 746.134C446.723 737.256 442.977 728.811 437.957 721.129C430.899 710.038 423.438 699.351 416.179 688.462C409.15 677.759 403.589 666.162 399.644 653.98C395.409 640.873 392.989 626.959 389.965 613.449C387.81 603.236 384.912 593.194 381.294 583.403C375.244 567.473 366.17 553.761 357.096 540.452C350.038 529.967 342.98 519.682 337.738 507.785C331.688 494.274 328.059 479.958 329.268 464.229C330.001 454.138 332.244 444.213 335.923 434.788C341.328 421.484 348.666 409.049 357.701 397.887C366.775 386.191 376.454 375.504 385.73 364.01C396.014 351.104 406.701 338.401 415.776 324.083C424.446 310.573 432.311 296.659 437.554 280.729C441.724 269.316 443.509 257.168 442.796 245.037C441.788 232.939 437.554 223.259 430.093 215.798C421.623 207.128 411.541 204.506 401.055 203.901C397.149 203.901 393.245 204.103 389.36 204.506C384.318 204.708 379.277 205.514 374.236 205.514C364.96 205.514 355.684 205.514 346.409 204.909C339.762 204.449 333.157 203.506 326.647 202.086C315.376 199.924 304.627 195.611 294.988 189.382C288.683 185.649 283.576 180.192 280.268 173.654C278.615 170.577 277.668 167.172 277.493 163.685C277.319 160.197 277.922 156.714 279.26 153.489C281.308 148.754 284.495 144.598 288.535 141.39C296.601 134.937 305.877 133.525 315.153 132.719C317.722 132.619 320.294 132.822 322.816 133.324C328.435 133.819 334.023 134.627 339.553 135.744C352.256 139.172 364.96 143.003 377.664 146.431C382.603 147.857 387.667 148.803 392.788 149.254C397.228 149.422 401.675 149.287 406.097 148.851C410.816 148.285 415.356 146.703 419.405 144.213C428.479 139.172 435.94 131.106 442.192 121.628C452.677 105.9 457.113 87.5499 457.718 67.385C458.323 48.4301 456.912 29.4749 458.727 10.7216C459.332 3.059 460.138 -4.60345 461.348 -12.2661C463.469 -25.6602 466.845 -38.8253 471.431 -51.5875C474.455 -60.0567 477.278 -68.5262 480.303 -76.9954C481.513 -80.0201 482.925 -83.0449 484.134 -86.0696" stroke="#DFE4E8" stroke-linecap="round" stroke-linejoin="round"/>
<path d="M795.478 566.46C795.124 565.887 794.72 565.347 794.269 564.847C790.639 561.822 787.009 559 783.581 555.975C772.341 546.309 762.44 535.188 754.14 522.904C744.697 509.012 736.787 494.138 730.548 478.542C724.7 464.023 719.659 449.101 717.844 432.768C717.006 424.459 716.871 416.095 717.44 407.763C718.248 398.579 719.799 389.475 722.078 380.541C725.485 367.27 729.659 354.208 734.581 341.421C738.412 330.935 742.445 320.449 746.075 309.762C750.036 299.465 752.086 288.531 752.124 277.498C752.199 269.009 750.192 260.632 746.276 253.099C742.157 245.192 737.003 237.868 730.951 231.321C723.759 223.587 716.152 216.25 708.165 209.341C698.773 201.251 688.569 194.155 677.716 188.168C669.922 183.621 661.271 180.737 652.308 179.699C643.829 178.991 635.292 179.81 627.102 182.118C612.819 186.442 599.135 192.539 586.369 200.267C579.311 204.3 572.657 208.736 566.003 213.374C556.216 220.221 547.339 228.284 539.587 237.37C534.142 243.823 529.101 250.679 524.06 257.535C517.809 265.803 511.961 274.473 505.911 282.943C497.845 294.033 489.779 305.326 481.512 316.215C475.866 323.676 469.816 330.734 463.968 337.791C460.137 342.631 456.104 347.47 452.071 352.31C449.651 355.335 447.03 358.359 444.61 361.182C435.939 371.265 427.067 381.145 418.598 391.43C413.355 397.681 408.515 404.335 403.474 410.989C396.356 419.851 390.829 429.881 387.14 440.632C385.238 445.601 384.149 450.844 383.914 456.159C383.568 466.469 385.932 476.69 390.77 485.801C395.04 493.535 399.965 500.888 405.49 507.781C412.548 517.056 419.807 526.333 426.865 535.81C434.953 546.851 441.531 558.922 446.425 571.703C451.063 583.802 455.298 596.708 459.532 609.21C463.992 622.961 469.59 636.316 476.269 649.136L495.627 685.433C502.612 698.25 507.834 711.952 511.154 726.166C512.772 733.351 513.984 740.622 514.784 747.944C515.086 753.25 515.086 758.568 514.784 763.874C514.582 769.117 513.977 774.158 513.372 779.2C511.121 796.967 505.51 814.144 496.837 829.813C489.994 843.011 481.302 855.165 471.026 865.908C463.862 873.723 455.651 880.509 446.627 886.073C437.491 891.391 426.657 892.979 416.379 890.509C409.927 889.098 403.676 887.283 397.424 885.267C385.124 881.637 372.823 877.402 360.12 875.991C354.877 875.386 349.634 874.579 344.391 874.377C334.834 874.008 325.264 874.345 315.757 875.386C310.917 875.991 305.876 876.394 301.037 876.596C296.399 876.999 291.761 877.201 287.123 877.201C283.896 877.201 280.468 876.797 277.242 876.596C273.007 876.192 268.773 876.192 264.538 875.386C258.287 873.974 252.036 872.159 245.785 870.344C232.611 866.144 220.409 859.358 209.891 850.381C199.754 841.866 190.802 832.033 183.274 821.142C177.426 812.472 171.175 804.002 165.327 795.13C159.385 786.007 152.636 777.437 145.162 769.52C134.142 758.189 121.902 748.113 108.664 739.475C95.4264 730.837 83.2099 703.134 84.9559 677.153C86.4431 655.022 89.7579 612.219 108.664 623.818C119.546 630.494 125.343 641.866 136.693 652.764C152.842 668.269 165.327 678.171 180.048 690.27C189.928 698.537 200.011 706.805 209.488 716.081C220.176 726.365 230.258 737.859 240.744 748.748C249.452 758.309 260.019 765.994 271.798 771.333C278.95 774.395 286.476 776.497 294.181 777.584C301.642 778.592 309.103 779.399 316.563 780.407C318.58 780.609 320.395 780.81 322.411 781.012C327.251 781.415 331.889 782.02 336.728 782.625C339.955 783.028 343.383 783.432 346.609 783.835C351.045 784.44 355.482 785.246 359.716 786.053C363.951 786.859 368.185 787.263 372.42 787.868C377.617 788.903 382.868 789.644 388.149 790.086C394.886 790.561 401.657 790.222 408.314 789.078C416.908 787.49 424.522 782.559 429.487 775.366C433.093 769.724 434.855 763.099 434.528 756.411C434.282 750.881 433.123 745.431 431.1 740.279C427.178 730.793 422.171 721.793 416.178 713.459C409.089 703.418 402.689 692.909 397.021 682.003C391.681 671.1 387.686 659.589 385.124 647.722C382.099 634.615 379.478 621.508 376.856 608.401C373.404 592.268 367.342 576.807 358.91 562.627C353.062 552.948 347.012 543.47 340.963 533.791C332.96 521.439 326.971 507.894 323.218 493.663C321.539 486.318 320.66 478.814 320.596 471.28C321.035 458.821 323.417 446.506 327.654 434.781C332.941 421.338 340.214 408.763 349.231 397.477C358.506 385.579 368.387 374.287 377.865 362.591C386.943 351.629 395.424 340.185 403.272 328.311C410.977 316.866 417.147 304.46 421.622 291.41C424.647 281.731 426.865 271.85 425.655 261.163C424.851 253.369 421.605 246.029 416.379 240.191C411.21 234.524 404.471 230.523 397.021 228.697C391.577 227.285 385.931 226.277 380.486 225.269C375.647 224.462 370.605 223.656 365.766 223.051C361.934 222.446 358.305 222.446 354.473 221.841C349.432 221.035 344.391 220.228 339.35 219.018C331.082 217.203 322.613 215.388 314.345 212.968C305.31 210.279 296.589 206.629 288.333 202.079C279.662 197.24 271.394 191.594 264.942 182.52C261.845 178.355 259.76 173.527 258.85 168.417C257.94 163.308 258.231 158.057 259.699 153.079C263.328 140.173 271.193 132.309 280.468 126.461C288.377 121.584 297.4 118.807 306.683 118.395C312.802 118.127 318.932 118.261 325.033 118.799C326.444 119 328.058 119.202 329.469 119.404C333.3 120.009 337.132 120.815 340.963 121.622L356.692 124.646C363.009 126.047 369.407 127.057 375.848 127.671C382.777 128.309 389.76 128.038 396.618 126.865C405.019 125.185 412.818 121.285 419.203 115.572C429.487 106.296 436.343 93.7941 440.376 78.8722C444.005 64.9584 445.215 50.6417 446.425 36.3247C447.03 29.267 447.433 22.2093 448.24 15.1516C449.248 6.884 450.256 -1.38399 451.668 -9.44992C454.894 -28.8082 460.944 -46.9563 467.598 -64.7014C470.22 -71.9607 473.043 -79.2202 475.664 -86.4795" stroke="#DFE4E8" stroke-linecap="round" stroke-linejoin="round"/>
<path d="M795.883 585.013C795.319 584.182 794.64 583.435 793.866 582.795C788.22 578.561 782.574 574.729 777.331 570.293C764.744 559.869 753.62 547.796 744.261 534.4C737.106 524.293 730.638 513.715 724.902 502.741C716.535 487.437 709.323 471.53 703.326 455.152C698.285 441.238 695.462 426.921 697.075 411.596C697.728 404.24 699.01 396.954 700.906 389.817C704.738 375.097 710.182 360.982 715.223 346.867C719.458 334.97 723.491 323.274 727.322 311.175C730.56 301.49 732.195 291.341 732.162 281.129C731.934 272.916 730.084 264.829 726.717 257.335C721.817 246.91 715.129 237.424 706.956 229.306C694.655 216.602 681.145 206.519 665.618 200.873C659.404 198.595 652.872 197.302 646.26 197.042C642.006 197.077 637.761 197.414 633.556 198.05C626.334 198.932 619.273 200.833 612.584 203.696C599.327 209.076 586.741 215.979 575.078 224.264C561.976 233.621 550.236 244.751 540.193 257.335C528.699 271.652 517.81 286.775 506.316 301.294C496.435 313.595 486.352 325.694 476.27 337.793C471.229 343.842 465.986 350.093 460.743 356.142C451.266 367.233 441.788 378.324 432.311 389.616C428.278 394.456 424.245 399.497 420.413 404.538C413.774 412.995 408.03 422.118 403.273 431.76C399.689 439.066 397.63 447.025 397.224 455.152C397.031 461.902 398.197 468.622 400.652 474.913C404.12 483.411 408.807 491.359 414.566 498.506C424.648 511.613 435.335 523.712 444.611 537.828C451.844 548.588 457.927 560.077 462.759 572.108C468.002 585.013 472.64 598.523 477.48 611.631C483.731 628.166 490.99 643.693 498.653 659.22C503.089 667.891 507.324 676.763 511.357 685.837C516.56 697.584 520.612 709.807 523.456 722.336C525.371 731.506 526.584 740.809 527.085 750.163C527.593 761.153 526.985 772.165 525.27 783.032C522.96 797.626 519.177 811.95 513.978 825.782C507.525 842.72 499.258 858.247 491.394 873.975C486.95 881.85 483.946 890.454 482.521 899.383C482.002 903.789 482.414 908.254 483.731 912.49C485.065 916.666 487.264 920.513 490.184 923.782C498.25 933.058 507.525 935.68 517.81 933.058C524.666 931.445 530.715 927.21 536.764 922.774C544.629 916.926 552.493 910.877 560.559 905.231C570.782 897.951 582.075 892.304 594.033 888.494C599.268 886.976 604.587 885.764 609.963 884.864C614.426 884.029 618.939 883.49 623.473 883.251C631.575 882.783 639.703 883.325 647.671 884.864C654.472 885.868 661.206 887.282 667.836 889.099C677.026 891.89 685.884 895.677 694.252 900.391C705.746 906.844 716.231 914.91 724.297 927.412C728.105 933.264 730.328 940.003 730.75 946.972C731.268 954.782 729.884 962.601 726.717 969.758C722.774 979.271 717.176 988.01 710.182 995.569C701.182 1005.16 690.347 1012.84 678.322 1018.15C669.757 1021.92 660.841 1024.82 651.704 1026.82C647.268 1027.83 642.63 1028.44 638.194 1029.04C634.967 1029.65 631.741 1029.85 628.514 1030.25C622.698 1031.09 616.843 1031.63 610.971 1031.87C597.662 1032.07 584.152 1032.47 570.843 1030.86C567.818 1030.45 564.794 1030.45 561.769 1030.25L556.324 1029.65C552.695 1029.24 548.863 1028.64 545.234 1028.03C542.209 1027.63 538.983 1027.23 535.958 1026.82C532.31 1025.99 528.601 1025.45 524.867 1025.21C517.81 1025.21 510.55 1025.41 503.492 1025.82C498.451 1026.02 493.612 1026.82 488.772 1027.43C483.529 1028.03 478.286 1028.84 472.842 1029.04C468.455 1029.01 464.076 1028.67 459.735 1028.03C451.664 1027.12 443.816 1024.8 436.545 1021.18C426.593 1016.63 418.133 1009.36 412.146 1000.21C409.838 996.569 407.88 992.72 406.298 988.713C403.071 980.32 401.166 971.476 400.652 962.499C400.047 954.634 399.845 946.569 399.24 938.705C398.852 930.669 396.196 922.909 391.578 916.321C385.749 908.481 377.862 902.408 368.791 898.778C357.902 893.939 346.408 892.325 334.914 891.72C327.453 891.317 320.194 891.922 312.935 892.124C306.079 892.325 299.424 892.729 292.77 892.729C288.132 892.729 283.292 892.527 278.655 892.124C272.838 891.929 267.043 891.323 261.313 890.309C253.629 888.747 246.078 886.59 238.728 883.856C227.75 879.494 217.38 873.733 207.876 866.716C191.542 854.819 178.032 838.283 165.933 820.337C160.287 812.069 154.641 803.6 148.591 795.534C142.354 787.028 135.11 779.309 127.015 772.546C120.966 767.707 114.714 763.27 108.463 758.633C108.463 758.633 65.6784 708.922 70.5461 672.491C74.3367 644.12 82.3277 599.295 108.867 610.015C129.751 618.45 122.735 636.995 165.65 665.455C180.599 675.368 190.333 682.81 202.633 692.69C216.345 703.579 229.049 716.283 241.753 728.583C248.417 735.234 255.635 741.305 263.329 746.732C272.202 752.658 282.022 757.023 292.367 759.638C297.408 760.847 302.651 761.856 307.692 762.662C311.523 763.267 315.556 763.469 319.388 763.872C323.824 764.275 328.059 765.082 332.495 765.485C337.334 766.09 342.376 766.292 347.215 766.695L353.265 767.3C358.104 767.704 362.742 768.51 367.582 768.913C370.415 768.914 373.246 769.116 376.051 769.518C382.577 770.633 389.272 770.22 395.611 768.309C400.189 767.229 404.209 764.501 406.903 760.646C411.541 754.395 411.138 747.337 409.121 740.279C406.745 733.217 403.565 726.451 399.644 720.114C393.385 709.448 387.796 698.404 382.907 687.044C379.291 677.941 376.392 668.569 374.236 659.015C372.623 651.755 371.615 644.496 370.203 637.237C368.388 626.751 366.775 616.064 364.355 605.78C360.217 588.975 353.482 572.918 344.392 558.191C337.738 546.898 330.882 535.606 324.832 523.91C314.108 503.197 310.158 479.639 313.54 456.56C315.966 441.426 321.308 426.908 329.268 413.811C337.724 400.058 347.23 386.979 357.701 374.691C369.598 360.172 381.697 346.057 391.981 329.521C399.456 318.271 405.041 305.874 408.516 292.822C410.528 285.81 410.942 278.437 409.726 271.245C408.217 262.825 403.614 255.272 396.821 250.072C390.198 245.137 382.657 241.572 374.639 239.586C366.372 237.368 358.104 235.352 349.837 233.335C342.376 231.52 334.713 229.706 327.252 227.689C318.984 225.269 310.717 222.849 302.449 220.026C291.83 216.57 281.672 211.83 272.202 205.911C263.531 200.668 255.263 194.417 249.012 184.738C245.436 179.282 243.206 173.056 242.505 166.571C241.804 160.085 242.652 153.527 244.979 147.433C249.355 135.173 257.466 124.594 268.169 117.186C277.837 110.126 289.298 105.933 301.239 105.087C308.232 104.82 315.234 104.954 322.211 105.49C323.972 105.66 325.723 105.93 327.454 106.297C331.285 106.902 335.52 107.708 339.351 108.313C343.182 108.918 347.215 109.322 351.046 109.927C355.836 110.961 360.685 111.701 365.565 112.144C374.438 112.346 383.31 112.749 391.981 110.128C401.028 107.473 409.093 102.213 415.171 95.0043C424.447 84.3169 429.689 70.6048 432.311 55.6829C434.932 41.3658 436.747 26.6456 438.763 11.9253C440.377 0.834601 442.393 -10.2559 445.015 -21.1449C448.99 -35.6915 453.701 -50.0271 459.13 -64.0961C461.751 -71.5571 464.776 -79.0183 467.599 -86.4792" stroke="#DFE4E8" stroke-linecap="round" stroke-linejoin="round"/>
<path d="M506.318 -86.4795C504.704 -81.2366 503.091 -75.9939 501.276 -70.9527C496.353 -56.774 492.643 -42.2028 490.186 -27.3964C489.207 -21.3972 488.735 -15.3264 488.774 -9.24806C488.976 1.23765 489.984 11.5217 494.017 20.9992C498.183 32.3208 506.667 41.5296 517.61 46.6085C526.26 50.1783 535.244 52.8801 544.429 54.6744C560.082 58.0481 574.982 64.2681 588.388 73.0246C596.092 78.1181 603.078 84.222 609.158 91.1729C611.833 94.3975 614.133 97.9151 616.014 101.659C617.572 104.618 618.369 107.918 618.334 111.262C618.298 114.607 617.432 117.889 615.813 120.815C613 126.164 609.397 131.059 605.125 135.334C595.669 144.598 585.103 152.659 573.668 159.33C563.989 164.976 554.108 169.816 544.429 175.663C534.347 181.713 524.264 187.964 515.997 197.643C508.395 206.859 502.149 217.111 497.445 228.092C492 239.586 486.959 251.282 481.716 262.977C475.211 277.137 467.592 290.757 458.93 303.71C453.486 311.978 447.638 320.246 441.79 328.11L441.788 328.112C434.328 337.992 426.867 347.872 419.004 357.349C410.131 368.036 401.259 378.522 392.184 388.806C382.848 399.251 374.478 410.523 367.18 422.481C361.483 431.773 357.52 442.021 355.484 452.729C353.87 461.752 354.076 471.008 356.089 479.951C358.723 491.026 363.446 501.497 370.003 510.803C374.843 518.264 380.287 524.919 385.53 532.178C394.22 543.514 401.784 555.671 408.115 568.475C412.222 577.324 415.594 586.496 418.197 595.899C421.827 608.603 425.053 621.508 428.885 634.01C433.038 647.364 438.937 660.111 446.428 671.92C454.091 684.019 461.955 695.916 469.416 708.217C476.199 719.288 480.85 731.53 483.128 744.312C483.964 749.181 484.503 754.097 484.741 759.032C485.277 765.586 484.8 772.183 483.33 778.592C482.172 784.424 480.553 790.156 478.49 795.732C475.278 803.9 470.71 811.468 464.98 818.115C457.262 827.431 447.154 834.471 435.741 838.482C430.63 840.41 425.261 841.565 419.81 841.91C414.647 842.344 409.462 842.479 404.283 842.313C397.629 841.91 391.176 841.103 384.723 840.095C377.666 839.087 370.608 837.675 363.55 836.869C358.509 836.264 353.468 835.86 348.427 835.659C337.941 835.255 327.455 835.054 316.97 835.054C305.476 835.255 293.78 835.86 282.286 836.062C274.639 835.925 267.045 834.772 259.701 832.634C252.434 830.739 245.499 827.747 239.133 823.762C232.347 819.593 226.172 814.503 220.783 808.638C211.306 798.354 203.24 786.457 195.174 774.358C183.977 756.96 175.249 744.644 155.52 730.765C132.414 714.509 121.296 701.821 119.92 694.529C119.216 690.799 117.607 681.839 122.675 683.298C136.661 687.324 155.448 711.847 166.135 720.921C180.198 733.306 192.661 747.395 203.238 762.864C209.859 772.89 217.064 782.519 224.815 791.699C233.112 801.448 243.526 809.173 255.264 814.284C266.021 818.401 277.421 820.586 288.939 820.737C309.709 821.342 330.277 819.93 350.845 821.947C354.273 822.35 357.701 822.552 361.129 823.157C365.565 823.762 369.8 824.77 374.236 825.375C378.672 825.979 383.31 826.383 387.948 826.988C393.359 827.825 398.812 828.363 404.282 828.601C409.878 828.667 415.471 828.33 421.018 827.593C426.206 827.086 431.26 825.651 435.94 823.358C445.327 819.211 453.462 812.676 459.533 804.403C472.237 787.263 476.068 767.3 471.632 744.917C469.291 733.7 464.99 722.983 458.928 713.258C451.467 701.361 443.603 690.069 436.142 678.373C426.796 664.142 419.848 648.474 415.574 631.994L415.573 631.989C412.347 619.085 409.121 606.181 405.492 593.479C402.01 580.53 396.643 568.165 389.561 556.779C381.495 544.478 372.825 532.38 364.557 520.281C358.119 511.187 352.899 501.289 349.03 490.84C344.968 479.197 343.792 466.741 345.602 454.543C347.086 445.053 350.082 435.863 354.475 427.321C363.145 409.979 375.043 396.066 386.738 382.152C394.401 373.279 402.265 364.608 409.726 355.534C415.574 348.476 421.018 341.217 426.463 333.958C431.504 327.303 436.142 320.649 440.78 313.793C453.006 295.971 462.9 276.658 470.221 256.323C474.254 245.031 477.077 232.932 480.101 221.034C482.925 209.944 485.143 198.45 489.781 187.964C493.196 179.717 498.599 172.443 505.509 166.791C513.777 160.338 522.851 157.112 532.127 153.684C542.612 149.853 552.897 146.021 562.374 139.569C568.253 135.98 573.222 131.08 576.893 125.251C581.934 116.782 582.136 108.918 577.296 100.449C574.426 95.5349 570.414 91.3849 565.6 88.3497C556.123 82.3002 546.04 79.6789 535.756 77.8641C528.9 76.8558 522.044 76.0493 515.39 74.4361C506.596 72.4248 498.805 67.3495 493.41 60.1189C487.812 52.3657 483.772 43.6005 481.513 34.3083C479.557 27.4754 478.406 20.4368 478.085 13.3366C477.883 4.86735 477.48 -3.60159 478.085 -12.0708C478.934 -22.319 480.826 -32.4538 483.731 -42.3181C488.167 -57.2401 493.007 -71.759 497.847 -86.4794" stroke="#DFE4E8" stroke-linecap="round" stroke-linejoin="round"/>
<path d="M796.084 532.79C795.576 531.853 794.968 530.974 794.27 530.168C783.952 520.09 775.003 508.7 767.652 496.291C761.523 485.869 756.457 474.857 752.528 463.422C748.014 451.105 745.298 438.201 744.463 425.109C743.656 414.075 744.062 402.985 745.672 392.039C748.201 376.86 752.324 361.99 757.973 347.676C763.821 333.158 769.669 318.841 775.315 304.322C779.874 293.634 781.942 282.05 781.364 270.445C781.045 264.494 779.751 258.635 777.533 253.103C773.685 243.732 767.994 235.228 760.796 228.099C752.73 220.033 744.463 212.37 735.993 205.111C722.281 193.415 708.367 182.123 694.454 170.831C684.863 162.679 674.377 155.643 663.198 149.859C655.185 145.532 645.901 144.176 636.984 146.028C630.979 147.305 625.2 149.481 619.844 152.481C606.535 159.74 593.428 167.403 580.119 175.065C568.827 181.518 557.333 188.172 546.444 195.835C532.344 205.973 520.529 218.957 511.76 233.947C502.283 250.079 493.007 266.614 483.53 282.947C475.122 297.21 465.758 310.886 455.5 323.882C442.998 340.014 429.891 355.541 416.986 371.269C414.969 373.891 412.751 376.31 410.533 378.932C404.282 386.191 398.031 393.047 391.981 400.508C387.562 405.868 383.519 411.528 379.882 417.447C375.833 423.725 372.325 430.335 369.397 437.208C365.979 445.354 364.235 454.105 364.27 462.939C364.304 471.773 366.117 480.509 369.598 488.628C374.034 499.316 380.286 507.785 386.537 516.456C392.989 525.53 400.047 534.403 406.5 543.477C412.632 552.295 417.772 561.762 421.825 571.708C427.471 585.218 431.303 599.535 435.537 613.852C437.755 621.313 440.175 628.976 442.797 636.235C448.644 652.771 457.92 667.087 466.591 681.203C475.262 695.318 483.933 709.434 489.377 725.969C493.015 736.633 495.054 747.777 495.427 759.039C495.46 763.757 495.19 768.471 494.62 773.154C493.903 782.293 491.795 791.269 488.369 799.772C483.63 812.025 476.578 823.252 467.599 832.843C453.081 848.369 435.941 855.629 417.187 856.233C410.854 856.3 404.523 855.963 398.232 855.225C395.207 855.024 392.183 854.217 389.158 853.814C385.327 853.209 381.294 852.402 377.261 851.797C372.825 851.192 368.187 850.789 363.549 850.184C358.104 849.579 352.66 848.772 347.215 848.571C339.149 848.571 331.285 848.772 323.421 849.176C318.178 849.377 312.733 849.781 307.49 850.184C300.634 850.587 293.98 850.991 287.325 851.192C284.906 851.394 282.688 850.789 280.268 850.789C273.615 850.849 266.98 850.104 260.506 848.571C251.572 846.626 242.999 843.292 235.099 838.69C220.378 830.221 208.078 817.517 197.592 802.393C190.534 792.513 183.88 782.229 177.024 772.146C170.09 761.763 161.894 752.28 152.624 743.915C142.744 735.043 132.661 726.775 122.579 718.306C108.849 706.964 111.612 698.68 109.334 682.883C107.096 667.367 117.024 662.265 133.504 677.96C148.829 692.68 152.424 697.933 168.556 711.242C180.806 721.547 192.018 733.029 202.029 745.522C206.465 750.966 210.297 757.016 214.733 762.46C219.774 769.115 225.219 775.769 230.663 782.02C238.012 790.444 247.091 797.184 257.281 801.782C263.112 804.449 269.289 806.282 275.631 807.226C281.277 808.033 286.722 808.839 292.166 809.444C297.207 809.848 302.047 809.848 307.088 810.049C317.977 810.453 328.664 810.856 339.553 811.259C343.738 811.452 347.911 811.856 352.056 812.469C356.492 813.074 361.13 814.082 365.566 814.687C371.212 815.494 376.657 816.099 382.303 816.905C388.352 817.712 394.402 818.72 400.451 819.124C407.148 819.49 413.864 818.947 420.415 817.51C431.045 815.634 440.797 810.405 448.242 802.588C462.156 788.07 466.592 769.518 462.761 747.74C460.497 736.371 456.046 725.55 449.654 715.88C442.798 704.991 435.337 694.505 428.279 683.817C418.464 669.086 411.235 652.787 406.904 635.623C403.275 621.71 400.25 607.392 396.418 593.479C392.848 580.495 387.342 568.122 380.085 556.779C373.431 546.293 366.171 536.211 359.113 525.926C352.128 516.002 346.436 505.228 342.175 493.865C338.145 481.867 336.904 469.109 338.545 456.56C340.08 445.236 343.704 434.296 349.233 424.296C357.5 408.567 368.389 395.864 378.875 382.958C387.143 373.077 395.814 363.398 404.081 353.517C409.324 347.468 414.164 340.813 419.003 334.361C422.431 329.723 425.657 324.883 428.884 320.044C437.042 307.913 444.127 295.093 450.057 281.731C453.406 274.177 456.104 266.351 458.123 258.339C460.446 250.047 461.866 241.529 462.358 232.932C462.761 225.14 462.761 217.332 462.358 209.54C461.753 201.071 459.938 192.602 459.333 184.133C458.472 173.119 460.487 162.071 465.181 152.071C469.415 143.198 473.65 134.325 477.884 125.654C482.787 115.575 484.137 104.134 481.716 93.1894C478.288 75.4443 473.246 58.3041 471.028 40.1558C470.222 32.8964 469.415 25.8388 469.012 18.5795C468.504 7.72412 469.112 -3.15494 470.827 -13.8861C472.874 -26.6707 475.908 -39.2777 479.901 -51.5942C483.732 -63.2898 487.765 -74.7839 491.597 -86.4795" stroke="#DFE4E8" stroke-linecap="round" stroke-linejoin="round"/>
<path d="M459.737 -86.0696C459.333 -85.263 458.728 -84.6578 458.325 -83.8513C454.292 -74.1721 450.259 -64.493 446.63 -54.6122C441.185 -39.4886 435.741 -24.3648 432.716 -8.03127C430.094 6.08411 427.675 20.4009 425.053 34.5162C422.633 47.4217 419.609 60.3275 413.559 71.6198C406.502 84.9286 396.822 92.9946 384.724 96.8259C376.053 99.649 367.18 99.2454 358.308 99.0437C352.56 98.6023 346.839 97.8622 341.168 96.8259C335.925 96.0193 330.883 94.8091 325.641 94.0025C321.608 93.3976 317.575 93.1962 313.743 92.7929C309.105 92.5913 304.467 91.9862 300.031 92.1879C289.472 92.5784 279.135 95.3348 269.784 100.254C257.79 106.694 247.494 115.885 239.738 127.073C233.703 135.167 229.443 144.443 227.236 154.296C225.902 160.215 225.841 166.351 227.057 172.295C228.274 178.24 230.741 183.858 234.294 188.777C239.794 196.644 246.781 203.358 254.862 208.539C265.257 215.633 276.503 221.391 288.336 225.679C302.653 230.922 316.97 235.963 331.488 240.399C344.192 244.432 357.098 247.86 369.398 253.305C376.394 256.091 382.618 260.518 387.547 266.211C391.886 271.418 394.557 277.813 395.209 284.56C396.217 296.054 393.193 306.338 388.958 316.018C384.397 326.543 378.5 336.437 371.415 345.458C365.567 353.121 359.921 360.783 354.073 368.446C350.443 373.286 346.209 377.52 342.579 382.36C333.707 394.055 324.834 405.953 317.978 419.665C311.586 431.92 307.227 445.132 305.072 458.785C303.894 465.981 303.421 473.274 303.661 480.562C304.145 493.166 306.595 505.616 310.92 517.464C316.365 532.588 324.027 545.695 331.488 559.407C335.925 567.473 339.756 575.74 343.789 584.008C348.371 594.308 351.624 605.15 353.468 616.272C355.081 624.943 356.089 633.614 357.299 642.285C359.719 659.425 362.139 676.565 366.172 693.301C367.987 701.166 369.6 709.232 371.213 717.298C373.431 729.195 369.802 737.261 360.727 741.294C355.966 743.217 350.929 744.374 345.805 744.722C341.261 745.351 336.681 745.688 332.093 745.73C324.431 745.528 316.97 744.722 309.307 744.117C302.199 743.561 295.206 741.999 288.537 739.479C279.896 736.534 271.741 732.321 264.339 726.977C250.426 717.298 237.923 704.796 224.413 694.108C210.903 683.421 201.07 672.947 183.882 662.651C164.4 650.98 153.479 645.355 141.705 629.715C130.383 614.676 128.21 599.956 110.078 594.897C74.9096 585.085 59.927 632.587 52.1104 668.253C41.141 718.304 108.664 786.645 108.664 786.645C119.465 795.35 128.911 805.611 136.693 817.094C144.356 827.983 152.018 838.872 160.286 849.358C169.175 860.348 179.482 870.113 190.936 878.395C199.971 885.155 209.548 891.157 219.571 896.342C230.017 901.852 241.133 905.987 252.641 908.643C259.699 910.054 266.958 911.062 274.016 912.071C278.654 912.676 283.291 912.877 287.929 913.28C294.382 913.885 301.037 914.289 307.489 915.095C315.855 915.774 324.075 917.677 331.889 920.742C343.383 925.581 352.054 934.857 357.296 948.569C360.926 958.248 364.152 968.129 367.58 978.01C371.68 991.23 377.656 1003.79 385.326 1015.31C392.915 1025.98 401.863 1035.6 411.943 1043.95C420.614 1051.61 429.688 1058.87 437.149 1068.55C443.102 1076.05 446.869 1085.05 448.038 1094.56C448.542 1099.66 448.542 1104.79 448.038 1109.89C447.635 1115.53 446.828 1121.18 446.022 1126.83" stroke="#DFE4E8" stroke-linecap="round" stroke-linejoin="round"/>
<path d="M448.24 -86.4795C444.207 -76.8004 440.174 -67.1213 436.141 -57.2405C429.996 -42.9421 425.006 -28.1743 421.219 -13.0792C418.598 -2.39183 416.581 8.49718 414.363 19.1845C411.741 31.6867 408.918 44.1889 403.272 55.4812C398.029 65.967 390.77 73.6293 381.494 77.8639C374.955 80.7506 367.871 82.1951 360.724 82.0987C353.077 82.0693 345.448 81.3265 337.938 79.8804C330.88 78.4689 323.823 77.0575 316.765 76.0493C311.016 75.212 305.228 74.6735 299.423 74.436C295.059 74.1335 290.68 74.1335 286.316 74.436C279.102 75.2693 272.08 77.3145 265.546 80.4854C254.261 86.4917 244.151 94.4838 235.702 104.078C226.154 114.309 218.016 125.77 211.505 138.157C207.644 145.376 205.117 153.231 204.044 161.347C203.073 170.157 204.908 179.048 209.286 186.754C215.134 197.038 223.402 204.096 231.871 210.549C241.456 217.604 251.805 223.557 262.723 228.294C278.452 235.553 294.584 241.401 310.716 247.047C321 250.677 331.284 254.508 341.366 258.742C349.535 261.811 357.16 266.169 363.951 271.648C369.546 276.083 373.631 282.14 375.646 288.99C376.864 293.314 377.275 297.826 376.856 302.299C375.243 316.212 369.597 327.505 362.741 338.192C358.103 345.452 352.86 352.307 347.819 359.163C343.181 365.414 338.341 371.464 333.703 377.514C324.267 389.502 315.836 402.249 308.497 415.625C301.357 429.005 296.389 443.435 293.777 458.374C292.971 463.012 292.567 467.65 292.164 472.288C291.728 476.036 291.593 479.811 291.761 483.58C292.102 496.641 294.205 509.597 298.012 522.095C302.65 537.622 309.707 551.334 316.563 565.45C322.814 578.355 328.662 591.462 332.09 606.183C333.889 613.545 335.169 621.024 335.922 628.566C336.325 634.414 336.93 640.463 337.333 646.311C337.737 655.587 337.938 664.862 337.736 674.138C337.738 682.098 336.161 689.98 333.099 697.328C331.415 701.209 328.839 704.638 325.581 707.336C322.322 710.034 318.473 711.925 314.345 712.855C309.421 714.192 304.28 714.534 299.222 713.863C294.077 713.133 289.014 711.917 284.098 710.233C276.387 707.588 269.063 703.926 262.32 699.344C255.464 694.908 248.81 689.867 241.953 685.027C231.871 677.768 221.789 670.307 211.706 663.249C192.953 650.344 174.524 648.06 157.788 631.323C147.705 621.442 137.701 599.932 127.619 590.253C121.569 584.405 117.303 578.393 108.664 573.718C70.2301 552.916 47.5189 616.28 35.3321 658.248C16.2206 724.064 109.068 817.499 109.068 817.499C112.698 821.936 116.327 826.372 119.554 831.212C126.41 840.891 132.661 851.175 139.719 860.451C147.583 871.138 157.464 879.002 167.344 886.262C175.007 891.706 182.871 896.949 190.736 901.789C203.196 909.881 216.437 916.704 230.259 922.155C237.582 925.127 245.23 927.225 253.045 928.406C259.901 929.414 266.555 930.423 273.411 931.229C278.453 931.834 283.292 932.237 288.333 933.044C297.446 933.927 306.398 936.03 314.951 939.295C326.243 944.135 335.318 952.806 341.77 965.308C345.4 972.567 348.828 980.23 352.256 987.691C358.91 1002.41 365.766 1016.73 375.042 1029.03C381.71 1037.73 388.987 1045.96 396.82 1053.63C403.071 1060.08 409.323 1066.54 414.969 1073.59C422.163 1082.39 427.019 1092.87 429.084 1104.04C430.437 1111.63 430.978 1119.33 430.697 1127.03" stroke="#DFE4E8" stroke-linecap="round" stroke-linejoin="round"/>
<path d="M328.864 147.821C332.292 148.83 335.72 149.837 338.946 151.047C342.569 152.208 345.786 154.376 348.222 157.299C349.55 158.885 350.514 160.743 351.045 162.743C351.222 164.075 351.012 165.43 350.44 166.646C349.868 167.861 348.958 168.887 347.818 169.599C345.975 170.961 343.831 171.86 341.567 172.22C332.932 173.808 324.019 171.924 316.765 166.978C314.169 165.298 312.188 162.821 311.119 159.92C310.715 158.469 310.715 156.935 311.119 155.484C311.629 153.74 312.617 152.174 313.971 150.962C315.325 149.751 316.991 148.942 318.781 148.628C322.007 148.224 325.436 148.224 328.662 148.023" stroke="#DFE4E8" stroke-linecap="round" stroke-linejoin="round"/>
</g>
<defs>
<clipPath id="clip0_522_2280">
<rect width="355" height="1404" fill="white" transform="matrix(1 0 0 -1 0.233887 1404)"/>
</clipPath>
</defs>
</svg>
