<svg width="353" height="513" viewBox="0 0 353 513" fill="none" xmlns="http://www.w3.org/2000/svg">
<g clip-path="url(#clip0_467_6277)">
<g opacity="0.5" clip-path="url(#clip1_467_6277)">
<path d="M266.832 433.789C271.578 433.086 276.236 432.295 280.982 431.767C287.457 431.187 293.98 431.393 300.405 432.383C306.558 433.261 312.71 434.492 318.774 435.634C331.869 438.183 344.965 439.501 357.269 437.568C364.469 436.484 371.5 434.475 378.186 431.591C382.581 429.58 386.813 427.229 390.842 424.561C393.782 422.505 396.572 420.243 399.192 417.793C401.389 415.947 403.586 413.926 405.608 411.905C408.508 409.004 411.232 405.928 414.133 402.852C417.209 399.6 420.109 396.173 423.537 393.097C428.81 388.351 434.523 384.044 441.378 381.407C446.914 379.036 452.998 378.245 458.956 379.122C463.839 379.981 468.38 382.205 472.051 385.538C475.742 388.702 479.346 392.13 483.037 395.294C487.174 398.982 491.858 402.007 496.923 404.258C499.359 405.315 501.89 406.139 504.482 406.719C511.082 408.1 517.939 407.582 524.257 405.225C529.004 403.634 533.435 401.225 537.352 398.106C539.521 396.491 541.577 394.73 543.504 392.833C545.789 390.372 547.723 387.735 549.744 385.187C551.59 382.814 553.348 380.353 555.457 378.068C558.357 374.816 561.433 371.564 564.509 368.488C566.242 366.965 568.093 365.584 570.046 364.357C571.54 363.215 573.122 361.984 574.616 360.841C576.462 359.523 578.396 358.117 580.153 356.711L582.79 354.601C584.196 353.371 585.515 352.053 587.009 350.91C593.512 345.813 599.225 339.748 604.938 333.86C607.394 331.197 609.711 328.41 611.881 325.51C613.111 323.928 614.43 322.434 615.572 320.764C617.242 318.567 619 316.282 620.494 313.909C623.603 309.054 626.224 303.901 628.316 298.529C631.24 290.97 632.615 282.9 632.359 274.799C632.113 268.456 630.744 262.207 628.316 256.342C626.577 251.842 623.772 247.831 620.143 244.653C616.921 241.8 613.015 239.831 608.805 238.941C599.84 237.007 591.755 238.062 583.933 240.259C578.231 241.851 572.72 244.061 567.498 246.851C563.816 248.948 560.265 251.267 556.863 253.794C552.719 256.595 548.941 259.902 545.613 263.637C543.741 265.718 542.009 267.919 540.428 270.229C538.477 272.964 536.687 275.81 535.067 278.754C531.516 285.626 529.055 293.009 527.772 300.638C526.717 306.614 525.926 312.679 525.047 318.655C524.344 323.225 523.553 327.708 521.268 331.399C517.929 337.024 512.743 339.924 505.185 339.397C502.487 339.244 499.852 338.526 497.451 337.288C495.03 336.015 492.904 334.249 491.211 332.102C487.94 327.589 485.499 322.53 484.004 317.161C480.576 306.878 477.412 296.507 472.842 286.312C469.079 278.018 464.485 270.126 459.131 262.758C455.142 257.275 450.608 252.21 445.597 247.642C441.301 243.783 436.718 240.257 431.886 237.095C425.186 232.874 418.093 229.312 410.705 226.46C404.992 224.263 399.28 222.242 393.567 220.396C383.46 216.969 373.528 213.365 363.597 208.883C355.775 205.279 347.865 201.412 339.955 198.073C332.605 194.936 324.946 192.579 317.104 191.042C306.909 188.932 296.978 188.317 286.871 186.999C281.246 186.394 275.739 184.972 270.523 182.78C266.712 181.108 263.274 178.687 260.416 175.661C257.051 171.942 254.479 167.576 252.858 162.829C250.728 156.554 249.256 150.074 248.463 143.494C247.936 139.627 247.497 135.672 247.145 131.805C246.354 122.752 245.651 113.788 244.948 104.823C244.596 99.9014 244.157 94.8919 243.718 90.0581C242.839 80.3904 241.96 70.7226 240.905 61.0549C239.587 49.7173 237.741 38.3797 236.511 27.13C235.403 17.2682 235.669 7.30046 237.302 -2.48822C238.774 -11.183 241.251 -19.6772 244.684 -27.8C246.352 -31.9632 248.6 -35.8691 251.364 -39.4013C252.919 -41.5115 254.623 -43.5086 256.461 -45.3776C259.457 -48.1464 262.867 -50.4298 266.568 -52.1452C275.797 -56.4517 286.08 -57.9457 296.978 -57.7699C304.078 -57.7939 311.128 -56.5744 317.807 -54.1666C322.541 -52.3672 326.872 -49.649 330.551 -46.1687C335.016 -41.7324 338.727 -36.5966 341.537 -30.9641C345.14 -24.021 348.48 -17.1655 351.82 -10.1345C355.775 -1.78508 359.554 6.73989 364.3 14.8256C366.584 18.7625 369.201 22.4968 372.122 25.9875C378.098 33.3701 385.569 38.3798 393.83 42.2469C403.583 46.7717 413.659 50.5613 423.976 53.5843C431.259 55.8677 438.688 57.659 446.212 58.9456C456.13 60.7052 466.24 61.1189 476.269 60.1759C480.488 59.8244 484.619 59.0335 488.926 58.4183C489.542 58.3598 490.163 58.3892 490.771 58.5061" stroke="url(#paint0_linear_467_6277)" stroke-linecap="round" stroke-linejoin="round"/>
<path d="M244.333 411.29C248.113 410.85 251.716 410.411 255.407 410.059C263.493 409.356 271.491 408.565 279.665 408.126C287.35 407.731 295.056 408.292 302.603 409.795C309.986 411.202 317.369 412.784 324.751 414.014C335.913 416.036 346.811 416.211 356.918 413.487C362.367 412.049 367.557 409.765 372.299 406.719C375.788 404.566 379.005 401.999 381.879 399.073C382.933 398.018 384.164 397.315 385.13 396.173C387.943 393.185 390.667 390.108 393.48 386.945C395.589 384.484 397.786 381.935 399.983 379.562C403.235 375.958 406.575 372.443 410.091 368.927C412.551 366.642 415.276 364.621 417.913 362.512C420.198 360.754 422.395 358.908 424.592 357.238C426.614 355.744 428.723 354.338 430.656 352.932C432.151 351.789 433.82 350.822 435.227 349.592C438.29 347.172 441.196 344.559 443.928 341.77C451.837 333.333 456.144 322.698 455.705 309.603C455.438 301.51 453.618 293.543 450.343 286.137C448.131 280.938 445.137 276.107 441.467 271.811C439.674 269.521 437.737 267.349 435.666 265.307C430.595 260.562 424.849 256.593 418.616 253.53C409.036 248.697 399.105 246.323 389.173 243.95C379.242 241.577 368.959 239.38 359.203 234.722C354.897 232.701 350.502 230.416 346.284 228.131C338.198 223.736 330.288 219.166 321.939 215.738C315.837 213.17 309.471 211.284 302.955 210.114C296.188 208.971 289.244 208.18 282.477 207.037C275.973 205.983 269.557 205.016 262.966 202.291C257.91 200.27 253.312 197.252 249.447 193.417C245.581 189.582 242.527 185.008 240.466 179.968C238.747 175.696 237.395 171.286 236.424 166.785C235.429 162.62 234.724 158.391 234.314 154.129C233.699 148.24 233.435 142.528 232.996 136.639C232.82 134.53 232.732 132.508 232.469 130.487C231.238 118.007 230.183 105.527 228.601 93.0464C227.408 82.9116 225.529 72.8692 222.977 62.9886C219.988 51.7389 216.825 40.4894 213.924 29.3276C211.213 18.9726 210.704 8.16387 212.43 -2.40011C213.836 -10.4858 215.946 -18.3958 218.055 -26.13C220.516 -35.2703 222.889 -44.3228 225.525 -53.2874C226.552 -56.9297 228.123 -60.3962 230.184 -63.5703C233.262 -68.2639 237.9 -71.7191 243.279 -73.3259C250.672 -75.6774 258.309 -77.181 266.042 -77.8081C277.028 -78.9507 288.014 -80.0932 299.088 -80.9721C305.943 -81.4994 312.886 -81.7631 319.917 -81.7631C326.162 -81.7928 332.349 -80.5673 338.11 -78.1596C341.488 -76.7151 344.605 -74.7259 347.338 -72.2712C352.648 -67.4652 356.796 -61.5145 359.467 -54.8693C363.334 -46.0805 367.025 -37.2917 370.805 -28.415C374.581 -19.7142 379.265 -11.4362 384.779 -3.71839C388.848 1.75432 393.504 6.76445 398.665 11.2225C404.735 16.5646 411.543 21.0046 418.879 24.4057C425.575 27.6774 432.583 30.2685 439.797 32.1399C448.409 34.3443 457.274 35.4081 466.163 35.3039C466.819 35.3508 467.467 35.4687 468.097 35.6556" stroke="url(#paint1_linear_467_6277)" stroke-linecap="round" stroke-linejoin="round"/>
<path d="M258.57 425.356C268.104 423.351 277.831 422.408 287.573 422.543C294.28 422.736 300.957 423.53 307.523 424.916C313.939 426.234 320.355 427.201 326.683 428.432C334.711 429.897 342.898 430.281 351.028 429.574C359.524 428.903 367.801 426.542 375.373 422.631C378.888 420.697 382.404 418.764 385.744 416.655C387.941 415.161 389.787 413.315 391.808 411.645C393.302 410.327 394.972 409.008 396.378 407.602C398.4 405.581 400.333 403.471 402.179 401.274C404.2 399.077 406.222 396.704 408.067 394.331C411.757 389.734 415.782 385.416 420.108 381.411C422.481 379.214 425.118 377.281 427.666 375.259C433.819 370.338 441.025 366.822 447.969 363.043C451.572 361.197 455.087 359.264 458.515 357.066C464.071 353.664 468.101 348.249 469.765 341.95C471.273 335.591 471.894 329.055 471.61 322.526C471.407 313.365 469.898 304.28 467.128 295.545C464.079 284.935 459.038 275.003 452.275 266.278C450.342 263.817 448.408 261.356 446.211 258.983C444.03 256.539 441.712 254.221 439.268 252.04C435.728 249.198 432.03 246.557 428.194 244.13C420.551 239.382 412.303 235.686 403.673 233.144L379.416 225.762C370.917 223.085 362.656 219.704 354.719 215.654C347.424 212.051 339.954 208.272 332.659 205.02C324.956 201.582 316.827 199.188 308.49 197.901C301.283 196.846 294.076 195.967 286.957 195.001C281.545 194.405 276.193 193.346 270.962 191.837C264.882 189.974 259.397 186.55 255.054 181.905C252.84 179.486 251.029 176.727 249.693 173.732C246.615 167.438 244.652 160.658 243.892 153.693C243.189 148.596 242.398 143.586 241.959 138.576C241.168 130.403 240.728 122.229 240.113 114.056C239.937 111.771 239.761 109.31 239.498 106.937C239.146 103.07 238.795 99.2027 238.355 95.4235C237.828 89.7986 237.388 84.0857 236.597 78.373C235.455 70.0236 234.049 61.5863 232.73 53.237C231.676 46.909 230.445 40.5812 229.566 34.2533C228.775 29.0678 227.984 23.8825 227.545 18.6971C226.964 11.3579 227.318 3.97458 228.6 -3.27512C229.478 -8.19686 230.445 -13.0307 231.764 -17.8646C233.96 -26.7967 237.266 -35.4183 241.607 -43.5279C244.17 -48.1034 247.534 -52.1815 251.538 -55.5685C255.898 -59.0226 260.925 -61.5363 266.304 -62.9512C273.644 -65.0722 281.184 -66.427 288.803 -66.994C295.296 -67.4642 301.809 -67.5814 308.314 -67.3455C313.806 -67.13 319.244 -66.1842 324.486 -64.533C329.475 -62.9565 334.002 -60.1802 337.669 -56.4474C342.461 -51.622 346.333 -45.9632 349.094 -39.7487C352.17 -33.5086 354.983 -27.1807 357.883 -20.9406C361.311 -13.2226 365.185 -5.71004 369.484 1.55884C372.385 6.44613 375.677 11.0902 379.328 15.4452C382.711 19.3248 386.415 22.9115 390.402 26.1675C398.312 32.4954 407.013 36.8019 415.889 40.5811C425.406 44.6594 435.337 47.6946 445.508 49.6336C454.479 51.37 463.641 51.9021 472.753 51.2156C475.565 51.0399 478.378 50.6882 481.278 50.4246C481.693 50.446 482.105 50.5049 482.509 50.6004" stroke="url(#paint2_linear_467_6277)" stroke-linecap="round" stroke-linejoin="round"/>
<path d="M250.48 417.27C258.302 416.303 266.036 415.424 273.946 414.545C283.21 413.673 292.548 414.028 301.719 415.6C308.399 416.654 315.166 418.324 321.845 419.555C332.04 421.488 341.972 422.455 351.552 421.137C363.528 419.427 374.757 414.3 383.894 406.371C387.058 403.383 390.222 400.571 393.211 397.407C395.496 395.122 397.429 392.661 399.539 390.2C401.472 387.915 403.23 385.63 405.339 383.52C408.855 379.653 412.458 375.874 416.061 372.271C418.258 370.282 420.577 368.433 423.005 366.734C425.553 364.712 428.19 362.779 430.827 360.845C433.112 359.263 435.573 357.681 437.77 356.012C439.967 354.342 442.34 352.848 444.449 351.09C446.822 349.068 449.195 346.871 451.393 344.674C455.421 340.417 458.322 335.221 459.83 329.557C462.203 321.735 462.379 313.122 461.148 304.333C459.884 295.623 457.024 287.221 452.711 279.549C450.188 275.055 447.277 270.791 444.01 266.805C437.382 258.984 429.215 252.612 420.017 248.085C410.876 243.515 401.648 240.966 392.332 238.505C385.125 236.572 377.918 234.638 370.799 232.441C363.639 230.023 356.723 226.933 350.145 223.212C342.587 219.17 335.204 214.951 327.382 211.699C320.12 208.568 312.507 206.325 304.707 205.02C299.082 204.141 293.457 203.438 287.745 202.647C281.153 201.68 274.561 200.889 267.882 198.779C262.902 197.247 258.289 194.709 254.328 191.323C250.368 187.936 247.144 183.774 244.855 179.092C242.052 173.163 240.128 166.857 239.143 160.372C238.615 156.505 237.736 152.638 237.385 148.771C236.594 140.949 236.154 133.127 235.627 125.393L235.1 118.713C233.869 106.761 232.815 94.9836 231.233 83.0308C229.569 70.7807 227.221 58.6333 224.202 46.6451C221.829 36.7137 219.544 26.8703 218.665 17.0268C218.085 10.2528 218.351 3.43292 219.456 -3.27544C220.159 -7.49408 221.126 -11.6247 222.092 -15.7554C224.286 -24.9592 227.016 -34.0271 230.266 -42.9129C231.84 -47.3596 233.872 -51.6306 236.33 -55.6568C238.382 -58.7038 240.938 -61.3788 243.889 -63.5667C251.271 -69.1915 260.587 -71.125 270.079 -72.5312C277.198 -73.6738 284.317 -74.4649 291.524 -74.9922C299.434 -75.5196 307.432 -75.9589 315.518 -75.7831C321.385 -75.7964 327.201 -74.6929 332.656 -72.5313C335.863 -71.269 338.857 -69.5201 341.532 -67.346C347.157 -62.9515 350.848 -57.1509 353.837 -50.9987C357.704 -42.7372 361.307 -34.3878 364.998 -26.1263C368.57 -17.9443 372.803 -10.0668 377.654 -2.57224C380.537 1.63197 383.678 5.65321 387.058 9.4684C393.222 16.2795 400.431 22.0648 408.415 26.6065C419.28 32.9123 431.092 37.4233 443.395 39.9656C452.978 42.0051 462.797 42.7149 472.574 42.0749C472.925 42.0749 473.453 42.2507 473.804 42.2507" stroke="url(#paint3_linear_467_6277)" stroke-linecap="round" stroke-linejoin="round"/>
<path d="M62.4037 -98.1057C63.1947 -96.2601 63.8978 -94.3265 64.6888 -92.4809C67.0618 -87.4713 69.5227 -82.5494 71.8957 -77.5398C75.4595 -69.9788 79.7262 -62.7695 84.6395 -56.0072C87.4519 -52.1401 90.44 -48.4489 93.5161 -44.8455C100.899 -35.8809 109.775 -28.2345 117.773 -19.7094C126.298 -10.6569 132.363 -0.72563 134.648 10.6998C136.054 17.5551 136.318 24.3227 134.56 30.4749C133.88 33.3247 132.591 35.9931 130.781 38.2967C129.044 40.4143 127.164 42.4112 125.156 44.2733C122.727 46.3081 120.108 48.1034 117.334 49.6343C110.303 53.6772 103.096 57.5442 96.0649 61.5871C93.1681 63.5106 90.3807 65.5939 87.7155 67.8272C86.3978 68.7077 85.1884 69.7401 84.1121 70.9033C80.4208 75.2977 76.9931 79.9558 76.29 86.2837C75.927 89.4431 76.3497 92.6432 77.5205 95.5999C78.3435 97.5887 79.5986 99.3696 81.1947 100.814C82.7907 102.258 84.6878 103.329 86.7487 103.949C91.0402 105.357 95.6447 105.51 100.02 104.389C106.936 102.902 113.501 100.097 119.355 96.1273C122.811 93.9089 126.101 91.4413 129.199 88.7446C133.505 84.9654 137.548 80.9226 141.591 76.8797C143.788 74.6825 145.634 72.1338 147.743 69.8487C149.261 67.9797 150.875 66.1902 152.577 64.4874C157.411 60.1809 162.948 56.9292 170.418 57.0171C176.922 57.0171 182.986 59.3901 188.699 64.2239C194.297 69.2007 198.813 75.2729 201.97 82.0652C206.628 91.2934 209.265 100.785 211.374 110.453C213.659 120.648 214.538 130.843 215.681 140.95C216.648 150.003 217.087 158.879 218.229 167.932C219.157 176.735 221.378 185.353 224.821 193.507C227.326 199.219 230.673 204.522 234.753 209.239C241.08 216.622 248.902 221.28 257.428 224.532C264.898 227.432 272.457 228.838 280.103 230.333C289.858 232.178 299.79 234.199 309.369 238.506C315.214 241.196 320.854 244.31 326.244 247.822C333.451 252.392 340.57 257.402 348.128 261.269C355.157 264.859 362.636 267.49 370.364 269.091C378.274 270.673 386.184 272.079 394.094 273.837C399.63 274.997 404.943 277.045 409.826 279.901C417.121 284.208 422.306 290.272 424.503 298.27C425.919 303.014 425.827 308.082 424.239 312.772C422.978 316.834 420.815 320.56 417.912 323.67C416.681 324.9 415.714 326.394 414.484 327.449C411.935 329.646 409.298 331.755 406.662 333.865C404.025 335.974 401.3 337.995 398.576 340.017C396.555 341.511 394.357 342.829 392.424 344.236C390.754 345.378 389.172 346.784 387.59 348.015C385.481 349.597 383.283 351.267 381.262 352.936C380.032 353.991 378.889 354.958 377.659 356.013C375.725 357.77 373.967 359.528 371.946 361.198C369.221 363.571 366.409 365.856 363.509 368.053C360.348 370.575 357.031 372.894 353.577 374.996C350.55 376.729 347.336 378.115 343.998 379.127C337.155 381.114 329.994 381.77 322.904 381.061C316.752 380.533 310.688 379.918 304.536 379.391C295.386 378.571 286.182 378.542 277.027 379.303C269.293 380.006 261.47 380.973 253.648 381.412C242.75 381.94 231.764 382.203 220.778 382.467C219.196 382.467 217.526 382.555 215.944 382.555" stroke="url(#paint4_linear_467_6277)" stroke-linecap="round" stroke-linejoin="round"/>
<path opacity="0.8" d="M58.5336 -94.592C60.5551 -90.2855 62.4886 -85.891 64.5101 -81.5845C69.3439 -70.95 74.6171 -60.4035 81.6481 -50.56C84.5485 -46.4293 87.7126 -42.3863 90.8766 -38.3434C93.6011 -34.9158 96.5014 -31.6639 99.3139 -28.3242C105.027 -21.5568 110.739 -14.7895 115.221 -7.14326C119.967 1.11823 122.428 9.55545 121.989 18.0806C121.696 23.3535 119.997 28.452 117.067 32.8459C114.59 36.3467 111.664 39.5082 108.366 42.2498C105.291 44.7899 102.062 47.138 98.6985 49.2809L90.5249 54.8179C88.5034 56.1362 86.4822 57.4546 84.5486 58.8608C83.8455 59.3882 83.0545 60.0034 82.3514 60.5307C79.4579 62.9556 76.7275 65.5687 74.1778 68.3528C70.3116 72.5781 67.5889 77.721 66.2679 83.2938C64.7738 89.8854 64.7737 96.7406 68.8166 103.947C70.3463 106.757 72.5082 109.172 75.1317 111.003C77.7553 112.833 80.7686 114.028 83.9334 114.494C90.7008 115.637 96.765 114.494 102.654 112.824C108.235 111.208 113.627 108.998 118.737 106.232C123.395 103.684 127.877 100.783 132.272 97.971C134.996 96.3011 137.545 94.4556 140.094 92.6099C142.028 91.2037 143.609 89.6216 145.543 88.2154C147.916 86.3698 150.465 84.5242 152.926 82.7664C155.738 80.8329 158.638 78.8114 161.626 77.0536C165.669 74.6022 170.35 73.4091 175.073 73.626C179.895 73.893 184.509 75.6773 188.257 78.7236C193.442 82.8544 196.782 88.1277 199.682 93.6646C203.419 101.303 206.138 109.399 207.768 117.746C209.522 126.342 210.813 135.026 211.635 143.761C212.602 152.989 213.217 162.217 214.359 171.446C215.349 180.295 217.659 188.945 221.215 197.109C224.478 204.066 228.807 210.471 234.046 216.093C237.358 219.349 241.012 222.236 244.944 224.706C252.783 229.273 261.297 232.566 270.168 234.461C277.024 236.043 283.791 237.538 290.559 239.207C300.414 241.713 309.795 245.809 318.331 251.336C325.186 255.906 332.042 260.476 339.073 264.871C345.362 268.926 352.12 272.202 359.199 274.626C366.423 276.909 373.793 278.7 381.259 279.987C387.503 281.007 393.608 282.747 399.452 285.173C402.579 286.536 405.46 288.407 407.977 290.71C411.035 293.482 413.154 297.137 414.041 301.169C415.013 306.467 413.843 311.935 410.789 316.373C408.387 319.773 405.584 322.872 402.44 325.601C399.946 327.71 397.334 329.676 394.618 331.49C392.509 333.072 390.487 334.742 388.29 336.236C386.093 337.73 383.808 339.312 381.611 340.982C380.029 342.212 378.359 343.531 376.777 344.761C374.404 346.607 372.119 348.364 369.833 350.298C368.867 351.089 367.988 351.792 367.021 352.583C363.33 355.396 359.726 358.296 356.035 361.108C352.203 363.992 348.007 366.357 343.555 368.139C336.094 370.946 328.139 372.202 320.177 371.83C310.861 371.655 301.457 371.04 292.316 371.215C284.143 371.303 276.145 372.094 268.235 372.797C256.546 373.94 245.032 375.258 232.992 375.346C224.994 375.434 216.996 375.522 208.91 375.698" stroke="url(#paint5_linear_467_6277)" stroke-linecap="round" stroke-linejoin="round"/>
<path d="M620.137 187.87C619.961 189.452 619.873 191.122 619.698 192.704C619.258 196.835 618.819 200.965 618.291 205.008C617.932 208.445 616.485 211.678 614.16 214.236C612.331 215.936 610.18 217.251 607.833 218.103C603.614 219.685 599.307 220.828 595.001 222.146C581.326 225.926 568.25 231.606 556.154 239.021C553.693 240.603 551.233 242.185 548.947 243.943C545.959 246.228 543.147 248.689 540.247 251.062C538.383 252.457 536.674 254.048 535.149 255.808C532.6 258.708 530.315 262.047 527.854 265.036C524.684 269.155 521.918 273.57 519.593 278.219C518.011 281.031 516.956 284.02 515.462 286.92C513.089 291.754 510.892 296.588 508.255 301.158C506.498 304.146 504.125 306.519 500.082 306.695C497.416 306.793 494.811 305.883 492.787 304.146C489.184 301.421 487.074 297.73 484.877 294.127C480.571 287.008 476.703 279.801 472.485 272.594C468.661 265.826 464.281 259.388 459.39 253.347C457.104 250.534 454.644 247.722 452.271 244.997C450.513 243.064 448.755 240.954 446.734 239.109C441.369 234.115 435.542 229.642 429.332 225.75C424.322 222.674 419.137 219.949 413.951 217.4C403.932 212.479 393.473 209.051 383.278 204.832C374.05 201.053 364.91 196.835 355.681 192.704C344.256 187.606 332.743 183.124 321.054 180.751C313.998 179.288 306.868 178.202 299.697 177.499C295.478 177.148 291.259 176.796 287.041 176.269C281.359 175.664 275.794 174.243 270.518 172.05C264.989 169.616 260.374 165.493 257.334 160.273C254.233 155.009 252.09 149.236 251.006 143.223C248.721 133.203 248.106 123.272 247.052 113.429C246.436 107.54 246.173 101.652 245.733 95.763C245.294 89.3472 244.767 82.8436 244.415 76.3399C243.448 60.7837 241.427 45.0517 239.845 29.4076C238.764 20.3638 238.646 11.2309 239.493 2.16225C240.425 -7.85103 242.978 -17.6465 247.052 -26.841C248.613 -30.5657 250.684 -34.0558 253.204 -37.2117C254.434 -38.6179 255.401 -40.2878 256.719 -41.6061C262.457 -47.2976 269.777 -51.1264 277.725 -52.5922C282.384 -53.4909 287.136 -53.8156 291.875 -53.559C297.377 -53.2306 302.8 -52.075 307.958 -50.1312C311.918 -48.5807 315.577 -46.3501 318.768 -43.5397C325.008 -38.1786 329.051 -31.499 332.83 -24.5559C337.233 -16.0655 341.193 -7.35276 344.695 1.54704C346.805 6.46878 348.826 11.4783 351.023 16.4879C353.313 21.9272 356.265 27.0634 359.812 31.7804C363.973 37.0833 369.376 41.2793 375.544 43.997C383.015 47.4246 390.573 49.358 398.131 51.4674C407.799 54.104 417.555 56.6529 427.31 59.0259C432.584 60.2563 437.857 61.1351 443.13 62.014C453.883 63.7766 464.83 64.0132 475.649 62.717C480.746 62.1897 485.668 61.1352 490.678 60.3442C491.209 60.3341 491.739 60.2751 492.26 60.1682" stroke="#F2F4F6" stroke-linecap="round" stroke-linejoin="round"/>
<path opacity="0.6" d="M55.0181 -91.0776C57.0395 -86.5953 58.9731 -82.025 61.0825 -77.6306C64.8483 -69.1325 69.043 -60.831 73.6505 -52.7582C77.2539 -46.8697 81.2088 -41.157 85.3395 -35.6201C90.8765 -28.3253 96.5013 -21.1186 101.599 -13.736C106.96 -6.08968 110.651 2.1718 111.267 10.8727C111.76 16.6634 110.537 22.4712 107.751 27.5715C105.114 32.4932 101.072 36.1845 97.1165 39.9637C94.7964 41.8976 92.3604 43.6882 89.8219 45.325C87.8884 46.7313 85.9548 48.3132 84.0213 49.7194C82.0878 51.1256 79.8906 52.6197 77.957 54.0259C77.0425 54.6204 76.1621 55.2658 75.3202 55.9593C72.0459 58.7668 68.9355 61.76 66.0041 64.924C61.1686 70.4974 58.0008 77.3203 56.8637 84.6109C55.4279 92.505 56.5037 100.651 59.9398 107.901C61.5812 111.572 64.0703 114.8 67.2024 117.321C70.3346 119.842 74.0205 121.584 77.9569 122.403C84.9001 123.897 91.228 123.018 97.2923 121.524C104 119.976 110.493 117.615 116.628 114.493C121.462 112.12 126.12 109.571 130.778 107.022C134.909 104.649 139.039 102.101 143.082 99.6399C147.564 96.9154 152.047 94.1907 156.617 91.554C160.977 88.925 165.817 87.1922 170.855 86.4567C176.082 85.7624 181.38 87.0477 185.708 90.0601C189.372 92.6649 192.406 96.0587 194.585 99.9915C198.759 107.195 201.728 115.032 203.373 123.194C206.098 134.883 206.977 146.308 208.119 157.822C208.911 167.741 210.469 177.585 212.777 187.264C215.017 196.442 219.016 205.098 224.554 212.752C233.139 224.285 245.129 232.831 258.831 237.185C266.565 239.646 274.475 241.579 282.297 243.601C292.678 246.058 302.612 250.121 311.74 255.641C317.276 259.069 322.638 263.024 327.999 266.803C331.778 269.352 335.381 272.076 339.248 274.537C344.353 277.762 349.701 280.583 355.244 282.975C362.326 285.795 369.576 288.172 376.953 290.093C381.423 291.146 385.758 292.709 389.872 294.752C393.827 296.949 397.079 299.849 397.782 304.595C398.288 307.45 397.725 310.391 396.2 312.857C394.27 316.452 391.533 319.551 388.202 321.909C386.804 322.956 385.483 324.102 384.247 325.337C381.962 327.27 379.589 328.94 377.304 330.874L374.404 333.247C372.119 335.18 369.834 337.289 367.461 339.135C365.351 340.893 363.154 342.387 361.045 344.145C359.199 345.639 357.354 347.309 355.42 348.715C352.871 350.561 350.147 352.406 347.422 354.076C341.774 357.445 335.591 359.823 329.141 361.107C323.423 362.095 317.631 362.595 311.827 362.601C300.929 362.777 289.855 362.777 279.133 364.008C269.465 365.062 259.974 366.468 250.306 367.347C240.023 368.314 229.476 368.314 219.017 368.402C213.393 368.402 207.768 368.754 202.231 368.841" stroke="url(#paint6_linear_467_6277)" stroke-linecap="round" stroke-linejoin="round"/>
<path d="M71.8956 -107.955C73.4776 -104.967 75.0595 -101.979 76.4657 -98.9909C80.4998 -90.6655 85.2336 -82.6975 90.6158 -75.1731C92.804 -72.1318 95.2442 -69.2801 97.9105 -66.6479C102.569 -62.1656 107.49 -58.1227 113.379 -55.7498C120.129 -52.6312 127.841 -52.3152 134.824 -54.8709C140.15 -57.0854 145.243 -59.8234 150.028 -63.0445C158.321 -68.3964 167.526 -72.1797 177.186 -74.2063C182.763 -75.3439 188.468 -75.7282 194.148 -75.3488C196.719 -75.1092 199.255 -74.5785 201.706 -73.7668C203.675 -73.1558 205.461 -72.0648 206.903 -70.5919C208.345 -69.1191 209.399 -67.3107 209.968 -65.3296C211.074 -61.7723 211.636 -58.0687 211.638 -54.3436C211.554 -46.1839 210.462 -38.0658 208.386 -30.1742C206.628 -23.4947 204.431 -17.079 202.761 -10.3116C201.003 -3.28054 199.334 3.83851 199.949 11.6606C200.652 18.99 202.398 26.1813 205.134 33.0173C207.771 40.3999 210.671 47.6946 213.484 55.0772C216.819 64.084 219.435 73.3413 221.306 82.762C222.536 88.7384 223.591 94.8907 224.47 100.867C225.524 108.425 226.579 115.984 227.282 123.542C228.073 132.067 228.776 140.505 229.303 148.942C229.786 157.564 231.051 166.124 233.083 174.517C234.649 181.05 237.389 187.244 241.168 192.798C244.398 197.435 248.521 201.379 253.297 204.399C259.272 208.079 265.894 210.584 272.808 211.782C278.169 212.924 283.443 213.452 288.892 214.331C297.62 215.484 306.215 217.486 314.555 220.307C320.202 222.374 325.67 224.902 330.902 227.866C338.021 231.821 345.052 236.039 352.171 239.818C359.802 243.828 367.928 246.813 376.34 248.695C384.954 250.629 393.567 252.386 402.18 254.496C409.961 256.364 417.324 259.673 423.888 264.251C426.375 266.009 428.752 267.917 431.007 269.964C434.097 272.587 436.765 275.67 438.917 279.104C440.954 282.151 442.747 285.354 444.278 288.684C446.438 293.644 447.745 298.933 448.145 304.328C448.842 311.752 447.505 319.226 444.278 325.949C442.891 329.016 441.055 331.86 438.829 334.386C436.768 336.826 434.567 339.144 432.237 341.329C429.161 344.054 425.997 346.514 422.745 348.887C419.23 351.524 415.539 353.985 412.111 356.71C409.65 358.643 407.277 360.665 404.992 362.774C400.246 367.168 395.588 371.651 391.018 376.221C386.096 381.318 381.262 386.679 376.34 391.777C372.948 395.05 369.135 397.858 365.003 400.126C361.009 402.468 356.683 404.187 352.171 405.224C347.396 406.365 342.487 406.838 337.582 406.63C328.969 406.279 320.268 404.609 311.479 402.851C299.016 400.148 286.236 399.202 273.511 400.038C264.195 400.741 255.055 401.62 245.738 402.323C242.662 402.587 239.586 402.675 236.598 402.851" stroke="url(#paint7_linear_467_6277)" stroke-linecap="round" stroke-linejoin="round"/>
<path d="M68.2013 -104.261C72.5078 -95.7356 76.7266 -87.2982 81.2968 -78.861C84.3298 -73.2953 87.9225 -68.0535 92.0191 -63.2169C95.4468 -59.2619 99.3137 -55.7465 103.093 -52.1431C106.327 -49.1884 109.897 -46.6221 113.728 -44.4967C118.762 -41.4313 124.343 -39.3719 130.162 -38.4326C135.665 -37.6322 141.273 -38.816 145.982 -41.7722C149.586 -43.9694 152.926 -46.6061 156.353 -49.1549C161.626 -52.8462 167.163 -56.0981 173.931 -57.5922C177.352 -58.3673 180.909 -58.307 184.302 -57.4164C190.102 -55.8344 193.442 -52.3188 194.936 -46.4303C195.877 -42.2903 195.847 -37.9887 194.848 -33.8623C193.53 -26.9191 190.718 -20.7669 187.817 -14.5269C185.268 -8.9899 182.72 -3.62871 181.929 2.78712C181.38 8.26198 182.195 13.7875 184.302 18.8706C186.85 25.4623 190.893 31.4386 194.497 37.5029C198.364 44.0066 202.407 50.5103 205.571 57.1898C211.243 69.2432 215.348 81.9733 217.787 95.0696C218.754 100.079 219.633 105.001 220.336 110.099C221.127 115.635 221.918 121.172 222.445 126.797C223.148 134.004 223.5 141.211 224.027 148.418C224.994 159.58 225.873 170.829 229.652 182.167C231.46 187.804 234.161 193.116 237.65 197.899C242.177 204.004 248.119 208.92 254.964 212.225C261.204 215.092 267.793 217.131 274.563 218.289C283.44 219.959 292.492 221.453 301.369 223.298C309.418 225.175 317.147 228.225 324.307 232.351C331.426 236.306 338.458 240.525 345.489 244.743C354.534 250.064 364.391 253.864 374.667 255.993C383.017 257.839 391.366 259.333 399.804 261.266C406.684 262.863 413.229 265.659 419.139 269.528C430.828 277.35 437.859 287.721 439.793 300.728C440.752 306.98 440.055 313.374 437.771 319.272C436.73 322.312 435.153 325.14 433.113 327.622C431.017 330.361 428.726 332.946 426.258 335.356C423.77 337.636 421.159 339.778 418.436 341.772C416.151 343.53 413.953 345.375 411.756 347.045C409.559 348.715 407.274 350.121 405.077 351.791C403.319 353.022 401.737 354.428 400.067 355.746C390.224 363.832 381.874 373.412 372.558 382.2C367.472 387.154 361.551 391.171 355.068 394.065C347.725 396.953 339.819 398.126 331.954 397.493C324.574 396.87 317.237 395.813 309.982 394.329C298.63 392.197 287.057 391.488 275.53 392.22C266.917 392.923 258.304 393.626 249.603 394.241C242.835 394.68 235.892 394.768 229.125 395.032C228.949 395.032 228.685 395.12 228.509 395.12" stroke="url(#paint8_linear_467_6277)" stroke-linecap="round" stroke-linejoin="round"/>
<path d="M606.334 174.074C606.093 175.027 605.8 175.966 605.455 176.886C604.136 180.138 602.73 183.478 601.236 186.554C599.384 190.624 597.301 194.586 594.996 198.418C593.383 200.905 591.464 203.179 589.283 205.186C585.713 208.164 581.987 210.951 578.121 213.535C572.409 217.314 566.52 220.918 560.719 224.609C556.325 227.422 551.755 230.234 547.361 233.046C545.339 234.365 543.406 235.947 541.472 237.353C538.835 239.286 536.287 241.132 533.738 243.154C532.683 244.033 531.541 244.823 530.662 245.702C525.916 250.273 521.082 254.931 516.336 259.501C514.315 261.522 512.557 263.983 510.36 265.829C507.635 268.202 505.086 270.575 501.571 271.981C496.737 273.826 492.079 272.86 487.509 268.817C484.696 266.356 481.972 263.807 479.423 261.083C476.874 258.358 474.677 255.282 472.216 252.47C470.37 250.272 468.349 248.251 466.591 245.966C462.018 240.544 457.116 235.407 451.914 230.585C448.536 227.378 444.986 224.356 441.279 221.533C435.513 217.121 429.4 213.183 422.999 209.756C416.847 206.416 410.519 203.252 404.366 200.088C397.335 196.573 390.304 193.233 383.361 189.805C377.561 186.993 371.76 184.181 366.047 181.28C353.44 175.041 339.906 170.886 325.97 168.976C321.488 168.361 316.918 167.658 312.435 167.218C306.02 166.603 299.604 166.339 293.276 165.636C287.55 165.179 281.938 163.784 276.665 161.505C273.413 160.133 270.503 158.063 268.14 155.441C266.033 152.941 264.233 150.196 262.779 147.267C259.861 141.073 257.934 134.46 257.066 127.668C256.187 122.044 255.22 116.331 254.781 110.794C254.078 102.884 253.638 95.062 253.199 87.24C252.847 81.9667 252.583 76.7811 252.32 71.5957C251.88 63.7737 251.441 55.9517 250.914 48.0417C250.826 45.3172 250.386 42.5927 250.298 39.8681C249.42 28.0911 248.541 16.49 249.947 5.24029C251.002 -4.25164 253.375 -13.3041 257.857 -21.1262C259.351 -23.6749 261.197 -26.0479 262.866 -28.4209C265.719 -32.1177 269.471 -35.0225 273.765 -36.8583C277.729 -38.5781 282.011 -39.4463 286.333 -39.4069C291.203 -39.4638 296.028 -38.4747 300.483 -36.5066C306.174 -33.9749 311.154 -30.0812 314.984 -25.1691C320.854 -17.9484 325.378 -9.73239 328.343 -0.912042C331.859 9.45876 334.935 19.9175 338.099 30.2883C339.594 35.507 341.719 40.5244 344.427 45.2294C346.065 47.9663 347.979 50.5282 350.139 52.8755C354.175 57.1502 359.316 60.2228 364.992 61.7523C370.366 63.1241 375.882 63.8616 381.428 63.9495C391.046 64.283 400.64 65.1339 410.167 66.4984C418.604 67.7288 427.217 69.6622 435.655 71.0684C446.113 72.7383 456.484 73.9687 466.591 73.5293C473.229 73.2996 479.84 72.5651 486.366 71.3321C490.936 70.4532 495.419 69.3108 499.989 68.4319C500.456 68.3876 500.927 68.3876 501.395 68.4319" stroke="#F2F4F6" stroke-linecap="round" stroke-linejoin="round"/>
<path opacity="0.4" d="M51.775 -87.4741C51.9508 -86.9468 51.9509 -86.4194 52.1267 -85.8921C54.5876 -79.9157 57.0484 -73.9393 59.773 -68.0508C63.9916 -59.0862 68.2103 -50.1215 74.0109 -41.6842C79.0206 -34.3895 84.2058 -27.0949 89.2155 -19.8002C93.7857 -13.1207 98.0923 -6.17741 100.377 1.38098C103.102 10.2577 102.399 17.9918 98.7954 24.935C96.2467 29.9446 92.2037 33.6358 88.2487 37.415C85.5511 39.7279 82.735 41.8989 79.8116 43.9189C77.1749 45.8524 74.4502 47.5222 71.8136 49.4557C69.7922 50.9498 67.9467 52.6198 66.101 54.1139C63.9917 56.0474 61.7066 57.8051 59.8609 59.8266C55.429 64.599 52.1251 70.3056 50.1932 76.5253C47.7727 84.5597 47.2909 93.0533 48.7871 101.31C49.6847 107.468 51.8708 113.368 55.2029 118.624C57.2012 121.785 59.8487 124.486 62.9701 126.547C66.0915 128.608 69.6152 129.981 73.3077 130.576C79.1337 131.608 85.1054 131.489 90.8854 130.225C98.508 128.786 105.919 126.394 112.945 123.106C121.47 119.151 129.908 115.108 138.169 110.714C145.464 106.935 152.583 102.804 160.317 99.8156C164.581 97.9812 169.222 97.1977 173.852 97.5307C178.013 97.9089 181.964 99.5321 185.189 102.189C190.638 106.759 193.803 112.559 196.176 118.624C198.775 125.199 200.517 132.082 201.361 139.102C202.152 144.99 203.031 150.791 203.822 156.679C204.349 160.371 204.349 164.062 204.876 167.753C206.107 176.718 207.425 185.77 210.413 194.735C212.969 202.862 216.827 210.52 221.839 217.41C224.462 221.06 227.434 224.445 230.715 227.517C236.42 232.799 242.914 237.158 249.963 240.437C258.928 244.655 267.98 247.028 277.208 249.753C282.657 251.335 287.931 253.268 293.292 255.114C299.778 257.606 305.921 260.914 311.573 264.958C316.055 268.034 320.274 271.373 324.58 274.625C333.105 281.041 341.63 287.457 350.683 292.994C354.901 295.63 359.12 298.443 363.339 301.255C369.491 305.474 371.424 310.571 369.227 316.284C367.99 319.198 366.299 321.897 364.218 324.282C362.511 326.537 360.662 328.68 358.681 330.698C355.253 333.95 351.65 336.85 348.046 339.926C344.706 342.782 340.978 345.149 336.972 346.957C331.923 349.44 326.532 351.158 320.977 352.055C310.694 353.901 299.796 353.9 289.249 355.131C278.703 356.361 268.332 357.767 257.873 359.086C247.264 360.459 236.579 361.163 225.882 361.195C215.862 361.195 205.931 360.932 196.176 361.723C196 361.723 195.736 361.81 195.56 361.81" stroke="url(#paint9_linear_467_6277)" stroke-linecap="round" stroke-linejoin="round"/>
<path d="M593.767 161.503C593.868 161.641 593.957 161.788 594.031 161.943C590.428 167.128 587.879 172.841 584.978 178.378C582.605 182.86 580.32 187.254 577.684 191.473C575.983 194.057 574.072 196.497 571.971 198.768C570.707 200.47 569.295 202.058 567.752 203.514C565.028 205.887 562.303 208.084 559.491 210.369C557.821 211.687 556.239 213.094 554.481 214.324C552.548 215.73 550.614 217.136 548.593 218.455C546.22 220.125 543.847 221.794 541.386 223.376C539.716 224.519 537.958 225.574 536.288 226.716C533.915 228.386 531.542 230.056 529.082 231.638C526.269 233.571 523.369 235.417 520.381 237.351C517.392 239.284 514.668 241.306 511.68 243.063C507.813 245.349 503.858 247.37 498.936 247.897C493.704 248.223 488.528 246.664 484.347 243.503C481.007 241.22 477.888 238.631 475.03 235.769C471.691 232.429 468.175 229.089 464.748 225.837C461.32 222.586 457.716 219.334 454.025 216.345C446.308 209.9 438.111 204.053 429.504 198.856C421.946 194.286 414.212 189.891 406.653 185.145C399.271 180.575 392.064 175.653 384.769 170.995C378.705 167.216 372.817 163.437 366.664 160.097C360.656 156.943 354.191 154.748 347.505 153.593C338.276 151.923 329.4 152.187 320.523 152.099C314.283 152.011 308.043 151.748 301.803 151.66C296.156 151.546 290.569 150.476 285.28 148.496C280.737 146.756 276.778 143.771 273.854 139.883C269.987 134.961 268.142 129.6 266.648 124.239C264.376 116.155 263.02 107.841 262.605 99.4543C261.99 89.3472 261.814 79.152 261.462 69.1327C261.198 59.9045 260.935 50.852 260.759 41.7116C260.407 33.3048 260.495 24.8854 261.023 16.4878C261.428 9.90124 262.82 3.4129 265.153 -2.75983C266.849 -7.1438 269.524 -11.0819 272.976 -14.2731C278.249 -18.4917 284.489 -20.3374 292.487 -16.734C295.134 -15.4853 297.567 -13.8241 299.693 -11.8123C303.87 -7.63255 307.237 -2.7158 309.625 2.68935C313.492 10.7751 315.338 18.9486 317.535 27.1222C319.205 33.538 320.875 39.9539 323.072 46.3698C325.474 53.4564 328.909 60.1494 333.267 66.2324C336.942 71.4937 341.708 75.9005 347.241 79.152C352.314 82.0385 358.018 83.6379 363.852 83.8101C370.025 83.7263 376.177 83.0494 382.221 81.7888C390.922 80.2947 399.622 78.9763 408.939 79.6794C416.497 80.2067 424.143 80.9977 431.79 81.7887C436.887 82.316 442.16 83.1948 447.258 83.7221C457.343 84.8551 467.531 84.7074 477.579 83.2827C483.819 82.3159 490.059 81.1733 496.211 79.9429C500.254 79.064 504.121 77.8336 508.076 76.8668C508.544 76.8225 509.015 76.8226 509.483 76.8669" stroke="#F2F4F6" stroke-linecap="round" stroke-linejoin="round"/>
<path opacity="0.2" d="M46.5809 -82.6392C49.0417 -76.6628 51.5026 -70.6864 54.0514 -64.6221C57.605 -55.7119 61.8667 -47.1005 66.7953 -38.8708C70.3108 -33.0702 74.1779 -27.4453 77.8692 -21.8204C82.1757 -15.2288 86.3943 -8.54932 88.8552 -1.16671C91.1403 5.68856 91.316 12.1922 89.1187 18.0807C87.527 22.1888 85.069 25.9058 81.912 28.9789C78.5659 32.2994 74.9173 35.3005 71.0138 37.9434C67.3225 40.4043 63.6313 42.8652 60.1157 45.5019C57.2452 47.6426 54.4876 49.9307 51.8542 52.3571C49.8204 54.1272 47.9116 56.036 46.1415 58.0698C43.3603 61.5774 41.1912 65.5293 39.7256 69.759C37.4247 77.2955 36.5017 85.1852 37.0011 93.0493C37.2982 101.67 38.7467 110.212 41.3077 118.449C42.7713 123.278 45.0935 127.803 48.163 131.808C51.5799 136.071 56.2548 139.146 61.5219 140.597C68.5529 142.53 75.2325 142.003 81.7362 141.124C88.9888 140.022 96.0941 138.106 102.917 135.411C112.937 131.72 122.516 127.238 132.008 122.668C138.073 119.767 144.225 116.955 150.465 114.406C155.363 112.183 160.585 110.759 165.933 110.188C170.305 109.682 174.725 110.541 178.589 112.648C181.004 114.002 183.15 115.79 184.917 117.922C190.278 124.689 192.739 132.072 194.409 139.718C195.551 144.903 196.254 150.177 197.045 155.362C197.749 160.108 198.276 164.854 198.891 169.512C200.003 178.85 201.885 188.08 204.516 197.109C207.236 206.053 211.359 214.507 216.732 222.157C218.402 224.53 220.248 226.727 222.094 228.925C223.537 230.748 225.124 232.452 226.84 234.022C232.681 239.566 239.244 244.296 246.351 248.084C255.14 252.83 264.192 255.73 273.332 258.894C281.682 261.795 289.943 264.959 297.853 269.88C301.846 272.305 305.664 275.007 309.279 277.966C312.003 280.339 314.904 282.712 317.628 285.085C321.847 288.952 325.977 292.907 329.932 297.038C333.402 300.507 336.151 304.629 338.018 309.166C338.976 311.592 339.348 314.209 339.104 316.805C338.859 319.401 338.006 321.903 336.612 324.107C335.048 326.836 332.957 329.226 330.46 331.139C327.899 333.062 325.163 334.74 322.286 336.148C317.772 338.356 312.984 339.952 308.048 340.894C303.126 341.949 298.029 342.652 292.932 343.531C285.373 344.761 277.727 345.904 270.256 347.222C256.458 349.771 242.484 351.968 227.894 351.968C219.193 352.056 210.405 351.88 201.792 352.056C196.606 352.144 191.509 352.671 186.323 353.111" stroke="url(#paint10_linear_467_6277)" stroke-linecap="round" stroke-linejoin="round"/>
<path d="M65.4778 -101.537C68.9054 -94.7696 72.1573 -88.0022 75.5849 -81.2348C79.2129 -74.1264 83.3853 -67.3094 88.065 -60.8448C91.9949 -55.4203 96.4714 -50.4136 101.424 -45.9037C104.764 -42.9155 108.191 -40.191 111.707 -37.3786C120.584 -30.4354 130.251 -25.1621 139.48 -18.922C145.305 -15.2074 149.703 -9.63233 151.96 -3.10228C153.893 2.52256 155.915 8.23537 157.936 13.9481C160.249 20.3525 164.186 26.0461 169.362 30.471C173.317 33.8986 177.799 36.799 181.754 40.2267C185.326 43.4469 188.729 46.8499 191.949 50.4218C195.482 54.3831 198.576 58.7147 201.177 63.3412C203.789 67.7132 206.024 72.3001 207.857 77.0518C211.096 85.4606 213.596 94.1358 215.327 102.979C216.03 106.494 216.733 110.01 217.261 113.525C217.964 118.447 218.755 123.457 219.106 128.378C219.809 136.288 220.249 144.286 220.952 152.196C222.007 162.391 222.798 172.674 226.05 183.133C227.998 189.901 231.187 196.249 235.454 201.853C240.208 208.038 246.31 213.057 253.295 216.53C260.105 219.626 267.281 221.841 274.652 223.122C282.21 224.528 289.768 225.759 297.239 227.428C305.346 229.21 313.138 232.202 320.353 236.305C328.088 240.699 335.646 245.621 343.292 250.104C352.661 255.697 362.915 259.65 373.614 261.793C381.348 263.375 389.17 264.693 396.904 266.451C403.905 267.88 410.561 270.656 416.503 274.624C427.665 282.446 433.817 292.466 434.081 304.858C434.243 311.51 432.271 318.039 428.456 323.49C426.227 326.972 423.537 330.135 420.458 332.894C417.646 335.355 414.57 337.552 411.581 339.837C408.769 341.947 406.132 344.056 403.32 346.165C401.123 347.835 398.662 349.417 396.465 351.087C394.391 352.627 392.397 354.269 390.488 356.009C385.566 360.579 380.733 365.061 375.811 369.632C373.526 371.741 371.417 373.85 369.044 375.872C366.407 377.981 363.682 380.002 360.87 382.112C357.694 384.464 354.203 386.358 350.499 387.736C344.054 390.174 337.159 391.193 330.285 390.725C325.187 390.373 319.914 389.846 314.816 389.143C310.51 388.703 306.204 387.737 301.897 387.297C292.089 386.216 282.198 386.098 272.367 386.946C259.535 388.176 246.791 389.319 233.696 389.582C230.092 389.67 226.313 389.758 222.622 389.758" stroke="url(#paint11_linear_467_6277)" stroke-linecap="round" stroke-linejoin="round"/>
<path d="M269.546 436.334C276.312 434.98 283.225 434.508 290.112 434.928C296.461 435.345 302.775 436.196 309.008 437.477C316.929 439.143 324.94 440.346 333.001 441.08C341.14 441.62 349.314 441.178 357.346 439.762C364.283 438.518 371.062 436.514 377.56 433.785C382.411 431.812 387.013 429.276 391.271 426.227C394.083 424.118 396.896 422.008 399.621 419.811C401.554 418.229 403.4 416.383 405.333 414.626C409.903 410.231 414.473 405.661 419.132 401.354C421.329 399.333 423.878 397.663 426.251 395.642C429.201 393.309 432.491 391.442 436.006 390.105C442.158 387.644 449.014 387.644 456.308 390.544C460.697 392.492 464.829 394.971 468.613 397.927C475.907 403.112 483.29 408.034 491.464 411.11C498.144 413.714 505.314 414.824 512.469 414.362C517.592 413.978 522.677 413.185 527.673 411.989C533.123 410.583 538.572 409.001 544.109 407.507L559.665 403.552C563.082 402.958 566.342 401.671 569.245 399.772C570.46 398.748 571.372 397.411 571.881 395.905C573.234 392.551 574.378 389.117 575.309 385.623C577.055 378.751 579.746 372.155 583.307 366.023C585.328 362.596 587.438 359.08 589.635 355.828C591.744 352.84 594.029 350.028 596.226 347.128C598.863 343.612 601.412 340.184 604.136 336.757C605.63 334.735 607.476 332.89 609.058 330.78C610.816 328.495 612.486 326.122 614.155 323.749C615.474 321.904 616.792 320.234 618.023 318.3C620.166 315.415 622.16 312.423 623.999 309.336C626.636 304.59 629.009 299.756 631.206 294.746C635.127 285.304 637.129 275.176 637.094 264.952C637.182 259.064 637.006 253.087 637.094 247.199C636.906 243.672 637.73 240.166 639.467 237.092C641.049 234.631 643.422 233.664 646.059 232.785C649.75 231.73 653.705 231.994 657.66 232.082C659.506 232.17 661.351 232.258 663.197 232.521C663.812 232.609 664.428 232.873 665.131 233.049" stroke="url(#paint12_linear_467_6277)" stroke-linecap="round" stroke-linejoin="round"/>
<path d="M106.428 -150.235C113.871 -146.661 121.722 -144.005 129.806 -142.325C138.529 -140.741 147.414 -140.239 156.26 -140.831C162.259 -141.285 168.284 -141.255 174.277 -140.743C180.061 -140.217 185.605 -138.187 190.361 -134.855C194.975 -131.591 198.89 -127.438 201.874 -122.638C204.599 -117.98 207.235 -113.41 209.521 -108.664C211.542 -104.533 213.388 -100.227 216.464 -96.6232C218.713 -93.9719 221.718 -92.0708 225.077 -91.1742C229.585 -89.6877 234.305 -88.9456 239.051 -88.977C246.873 -88.8891 254.783 -88.7133 262.605 -89.1527C274.382 -89.8558 286.071 -90.9984 297.848 -91.8772C304.704 -92.4046 311.559 -92.7563 318.502 -93.0199C324.462 -93.2664 330.417 -92.4325 336.08 -90.5589C340.424 -89.1299 344.473 -86.9266 348.032 -84.0552C353.482 -79.6608 356.997 -74.2118 359.985 -68.4111C363.94 -60.7649 366.577 -52.6792 369.741 -44.7693C373.503 -34.5096 378.49 -24.7419 384.594 -15.6782C386.933 -12.2234 389.581 -8.98762 392.504 -6.01053C394.701 -3.81333 396.81 -1.35237 399.183 0.669054C402.372 3.38287 405.718 5.90667 409.203 8.22742C417.219 13.3403 426.002 17.1382 435.217 19.4771C441.257 21.1992 447.485 22.1732 453.762 22.3773C454.28 22.4419 454.785 22.5904 455.256 22.8169" stroke="#F2F4F6" stroke-linecap="round" stroke-linejoin="round"/>
<path d="M279.127 445.916C287.628 445.002 296.218 445.357 304.614 446.97C312.7 448.376 320.786 449.782 328.959 450.749C337.624 451.665 346.372 451.429 354.974 450.046C361.858 449.055 368.649 447.497 375.277 445.388C382.231 443.237 388.878 440.194 395.051 436.336C398.743 433.875 402.346 431.15 405.862 428.514C408.147 426.756 410.256 424.822 412.453 422.977C415.529 420.428 418.605 417.703 421.769 415.243C425.711 411.892 430.124 409.139 434.865 407.069C441.984 404.169 449.806 404.432 458.067 408.123C463.868 410.76 469.581 413.66 475.381 416.473C482.93 420.448 491.01 423.319 499.375 424.998C507.329 426.337 515.425 426.632 523.456 425.877C530.575 425.437 537.694 424.646 545.164 425.613C551.03 426.29 556.595 428.57 561.248 432.205C563.689 434.206 565.926 436.443 567.927 438.884C570.212 441.521 572.322 444.333 574.431 447.146" stroke="url(#paint13_linear_467_6277)" stroke-linecap="round" stroke-linejoin="round"/>
<path d="M292.756 459.185C296.271 459.537 299.787 459.888 303.302 460.592C310.509 461.822 317.716 463.58 324.835 464.547C332.921 465.777 340.655 464.898 348.125 463.756C353.838 462.789 359.551 461.646 365.088 460.328C374.046 458.424 382.791 455.627 391.191 451.979C395.678 450.082 399.926 447.663 403.847 444.772C407.274 442.223 410.614 439.762 413.954 437.125C416.415 435.192 418.7 433.258 421.248 431.413C425.605 427.826 430.423 424.84 435.574 422.536C442.605 419.724 450.339 419.548 458.601 422.184C463.347 423.766 468.181 425.612 472.927 427.37C482.243 430.885 491.471 434.137 500.875 435.456C507.576 436.344 514.331 436.755 521.089 436.686C526.626 436.774 532.163 436.862 537.7 437.477C544.671 438.176 551.352 440.625 557.124 444.596C561.019 447.312 564.613 450.434 567.846 453.912" stroke="url(#paint14_linear_467_6277)" stroke-linecap="round" stroke-linejoin="round"/>
<path d="M37.4389 -80.8951C38.0541 -78.8737 38.5814 -76.9402 39.3724 -74.9188C42.4485 -66.9209 45.4368 -58.8351 48.8644 -50.8373C52.0988 -43.7008 55.8286 -36.7993 60.0263 -30.1835C63.8055 -23.9434 67.6724 -17.7914 70.7485 -11.3756C73.8246 -4.95975 75.2308 1.71975 73.473 7.87192C72.7827 10.8399 71.3631 13.589 69.3425 15.8699C68.1938 17.3987 66.8986 18.8115 65.4753 20.0885C62.6317 22.3955 59.6368 24.5096 56.5107 26.4164C49.2763 30.652 41.5796 34.0432 33.5719 36.5236C30.6848 37.5702 27.6691 38.2206 24.6073 38.4571C21.0039 38.7207 18.1914 37.3146 16.7852 33.0959C15.2032 28.35 13.797 23.604 12.4787 18.9459C10.7768 12.1427 8.14463 5.60663 4.65666 -0.47737C2.64661 -4.01547 0.0964794 -7.21797 -2.90167 -9.96926C-6.57151 -13.3819 -10.7529 -16.1991 -15.294 -18.3187C-17.6669 -19.2854 -20.04 -20.2522 -22.5887 -21.219" stroke="#F2F4F6" stroke-linecap="round" stroke-linejoin="round"/>
<path d="M31.8962 -75.3464C31.9343 -74.7831 32.0226 -74.2241 32.16 -73.6765C34.9724 -64.8877 37.8726 -56.011 40.6851 -47.2222C43.1795 -40.2052 46.2667 -33.4132 49.9134 -26.92C52.3742 -22.3498 54.9231 -17.6917 57.2082 -12.9457C59.4933 -8.19974 60.6358 -3.19016 59.7569 1.5558C59.479 3.39904 58.8196 5.16404 57.8208 6.73793C56.822 8.31181 55.5057 9.65985 53.9562 10.6961C51.4165 12.5997 48.4108 13.7837 45.2552 14.1237C43.1358 14.3775 40.9868 14.1882 38.9444 13.5679C36.902 12.9476 35.0109 11.91 33.3905 10.5205C30.3144 8.14751 28.3809 4.98354 26.1837 1.90746C23.547 -1.78385 21.2618 -5.6511 18.6251 -9.34241C16.0419 -12.8643 13.0635 -16.0785 9.74842 -18.9222C4.19964 -23.4459 -1.95324 -27.1731 -8.53229 -29.9961C-9.76273 -30.5234 -11.0811 -30.7871 -12.2236 -31.2266" stroke="#F2F4F6" stroke-linecap="round" stroke-linejoin="round"/>
<path d="M96.6726 71.5092C98.6061 70.4545 100.54 69.3997 102.473 68.5209C104.558 67.4475 106.905 66.9903 109.241 67.2026C110.511 67.3148 111.741 67.7048 112.844 68.3451C113.502 68.8484 114.001 69.5304 114.281 70.3096C114.562 71.0889 114.612 71.9326 114.426 72.7397C114.216 74.1368 113.673 75.4628 112.844 76.6066C109.772 81.0621 105.066 84.1258 99.7487 85.1319C97.885 85.5309 95.9423 85.3151 94.2117 84.5166C93.4035 84.0598 92.735 83.3914 92.2782 82.5831C91.7407 81.6006 91.4887 80.4871 91.5508 79.3689C91.6129 78.2506 91.9866 77.1721 92.6296 76.2551C93.8601 74.6731 95.3541 73.1789 96.6724 71.6848" stroke="#F2F4F6" stroke-linecap="round" stroke-linejoin="round"/>
<path d="M285.287 39.8661C289.242 38.5477 291.439 40.3934 293.812 43.6453C298.03 49.4459 301.194 55.7737 304.71 61.9259C308.225 68.078 311.741 73.8787 315.344 79.943C319.739 87.1498 324.309 94.1809 328.528 101.564C331.252 106.222 332.658 111.143 331.34 115.801C330.554 118.642 328.736 121.086 326.242 122.657C324.529 123.879 322.704 124.938 320.793 125.821C315.329 128.4 309.346 129.693 303.304 129.6C299.742 129.579 296.219 128.862 292.933 127.491C287.927 125.29 283.852 121.402 281.419 116.504C278.992 111.647 277.388 106.419 276.674 101.036C274.74 88.0287 275.619 75.7244 277.377 63.5959C278.148 57.2439 279.713 51.0137 282.035 45.0513C282.707 43.1945 283.789 41.5126 285.199 40.1296" stroke="#F2F4F6" stroke-linecap="round" stroke-linejoin="round"/>
</g>
</g>
<defs>
<linearGradient id="paint0_linear_467_6277" x1="325.401" y1="383.428" x2="263.458" y2="427.84" gradientUnits="userSpaceOnUse">
<stop stop-color="#F2F4F6"/>
<stop offset="1" stop-color="#F2F4F6" stop-opacity="0"/>
</linearGradient>
<linearGradient id="paint1_linear_467_6277" x1="311.377" y1="370.572" x2="241.253" y2="410.309" gradientUnits="userSpaceOnUse">
<stop stop-color="#F2F4F6"/>
<stop offset="1" stop-color="#F2F4F6" stop-opacity="0"/>
</linearGradient>
<linearGradient id="paint2_linear_467_6277" x1="334.753" y1="374.078" x2="254.11" y2="430.178" gradientUnits="userSpaceOnUse">
<stop stop-color="#F2F4F6"/>
<stop offset="1" stop-color="#F2F4F6" stop-opacity="0"/>
</linearGradient>
<linearGradient id="paint3_linear_467_6277" x1="321.895" y1="372.91" x2="255.277" y2="418.49" gradientUnits="userSpaceOnUse">
<stop stop-color="#F2F4F6"/>
<stop offset="1" stop-color="#F2F4F6" stop-opacity="0"/>
</linearGradient>
<linearGradient id="paint4_linear_467_6277" x1="282.158" y1="324.991" x2="215.54" y2="378.753" gradientUnits="userSpaceOnUse">
<stop stop-color="#F2F4F6"/>
<stop offset="1" stop-color="#F2F4F6" stop-opacity="0"/>
</linearGradient>
<linearGradient id="paint5_linear_467_6277" x1="299.69" y1="324.991" x2="212.034" y2="377.584" gradientUnits="userSpaceOnUse">
<stop stop-color="#F2F4F6"/>
<stop offset="1" stop-color="#F2F4F6" stop-opacity="0"/>
</linearGradient>
<linearGradient id="paint6_linear_467_6277" x1="306.701" y1="317.979" x2="207.358" y2="369.403" gradientUnits="userSpaceOnUse">
<stop stop-color="#F2F4F6"/>
<stop offset="1" stop-color="#F2F4F6" stop-opacity="0"/>
</linearGradient>
<linearGradient id="paint7_linear_467_6277" x1="317.22" y1="371.741" x2="234.24" y2="400.959" gradientUnits="userSpaceOnUse">
<stop stop-color="#F2F4F6"/>
<stop offset="1" stop-color="#F2F4F6" stop-opacity="0"/>
</linearGradient>
<linearGradient id="paint8_linear_467_6277" x1="275.145" y1="353.041" x2="229.564" y2="392.778" gradientUnits="userSpaceOnUse">
<stop stop-color="#F2F4F6"/>
<stop offset="1" stop-color="#F2F4F6" stop-opacity="0"/>
</linearGradient>
<linearGradient id="paint9_linear_467_6277" x1="283.328" y1="307.46" x2="196.842" y2="364.728" gradientUnits="userSpaceOnUse">
<stop stop-color="#F2F4F6"/>
<stop offset="1" stop-color="#F2F4F6" stop-opacity="0"/>
</linearGradient>
<linearGradient id="paint10_linear_467_6277" x1="255.278" y1="334.341" x2="200.347" y2="360.053" gradientUnits="userSpaceOnUse">
<stop stop-color="#F2F4F6"/>
<stop offset="1" stop-color="#F2F4F6" stop-opacity="0"/>
</linearGradient>
<linearGradient id="paint11_linear_467_6277" x1="311.376" y1="341.353" x2="221.383" y2="386.934" gradientUnits="userSpaceOnUse">
<stop stop-color="#F2F4F6"/>
<stop offset="1" stop-color="#F2F4F6" stop-opacity="0"/>
</linearGradient>
<linearGradient id="paint12_linear_467_6277" x1="377.994" y1="432.514" x2="272.808" y2="439.527" gradientUnits="userSpaceOnUse">
<stop stop-color="#F2F4F6"/>
<stop offset="1" stop-color="#F2F4F6" stop-opacity="0"/>
</linearGradient>
<linearGradient id="paint13_linear_467_6277" x1="415.395" y1="427.84" x2="285.665" y2="445.371" gradientUnits="userSpaceOnUse">
<stop stop-color="#F2F4F6"/>
<stop offset="1" stop-color="#F2F4F6" stop-opacity="0"/>
</linearGradient>
<linearGradient id="paint14_linear_467_6277" x1="442.277" y1="391.61" x2="300.859" y2="469.915" gradientUnits="userSpaceOnUse">
<stop stop-color="#F2F4F6"/>
<stop offset="1" stop-color="#F2F4F6" stop-opacity="0"/>
</linearGradient>
<clipPath id="clip0_467_6277">
<rect width="353" height="513" fill="white" transform="translate(353 513) rotate(-180)"/>
</clipPath>
<clipPath id="clip1_467_6277">
<rect width="755.109" height="426.141" fill="white" transform="matrix(0.707107 0.707107 0.707107 -0.707107 -106.903 61.6632)"/>
</clipPath>
</defs>
</svg>
