<svg width="75" height="74" viewBox="0 0 75 74" fill="none" xmlns="http://www.w3.org/2000/svg">
<g clip-path="url(#clip0_965_5884)">
<path d="M227.675 244.052C229.493 241.537 231.231 239.022 233.127 236.588C235.777 233.331 238.802 230.416 242.135 227.907C245.296 225.473 248.614 223.201 251.854 220.929C258.886 216.061 265.365 210.626 270.027 204.054C272.777 200.23 275.034 196.058 276.743 191.641C277.815 188.684 278.66 185.646 279.272 182.554C279.669 180.249 279.907 177.917 279.983 175.577C280.141 173.711 280.22 171.764 280.22 169.898C280.22 167.22 280.062 164.543 279.983 161.785C279.904 158.864 279.667 155.943 279.825 152.941C280.062 148.317 280.694 143.692 282.591 139.311C284.013 135.662 286.392 132.489 289.465 130.144C292.046 128.286 295.087 127.217 298.236 127.061C301.317 126.817 304.478 126.736 307.559 126.493C311.077 126.286 314.542 125.519 317.831 124.221C319.401 123.584 320.909 122.797 322.335 121.868C325.923 119.459 328.772 116.055 330.553 112.051C331.971 109.126 332.88 105.968 333.239 102.721C333.488 100.975 333.62 99.2127 333.634 97.4476C333.555 95.2571 333.239 93.1477 333.002 91.0382C332.765 89.0911 332.449 87.144 332.37 85.1157C332.212 82.2761 332.133 79.3554 332.133 76.5158C332.227 75.0134 332.439 73.5212 332.765 72.0535C332.923 70.8366 333.081 69.5385 333.239 68.3215C333.476 66.8611 333.713 65.3196 333.871 63.8593L334.108 61.6688C334.187 60.4518 334.187 59.2348 334.345 58.0179C334.977 52.6632 334.819 47.2274 334.74 41.8727C334.647 39.5104 334.436 37.1545 334.108 34.8143C333.95 33.5162 333.871 32.2181 333.634 30.92C333.397 29.1351 333.16 27.2691 332.765 25.4842C331.98 21.8079 330.842 18.2206 329.367 14.7749C327.284 9.9364 324.274 5.57721 320.518 1.95616C317.556 -0.85768 314.131 -3.11013 310.404 -4.69661C307.599 -5.97087 304.535 -6.52767 301.475 -6.31923C298.744 -6.14957 296.104 -5.25498 293.811 -3.72302C288.912 -0.477773 285.751 3.74107 283.223 8.36555C281.375 11.7323 279.891 15.2961 278.798 18.9937C278.086 21.6613 277.532 24.3706 277.138 27.1068C276.535 30.3126 276.323 33.583 276.506 36.8426C276.6 38.6669 276.811 40.4828 277.138 42.2784C277.491 44.4414 277.966 46.5815 278.561 48.6878C280.054 53.4989 282.266 58.0424 285.119 62.1555C287.331 65.4008 289.702 68.5649 291.993 71.729C293.732 74.163 295.391 76.5969 296.023 79.3554C297.05 83.493 296.023 87.2251 292.388 90.4703C291.107 91.6451 289.6 92.5297 287.964 93.0665C286.304 93.5965 284.554 93.7623 282.828 93.5533C279.329 92.9801 275.957 91.7713 272.872 89.9836C266.709 86.8194 260.625 83.493 253.987 80.8968C248.567 78.8053 242.955 77.2831 237.236 76.3535C232.978 75.6636 228.663 75.419 224.357 75.6233C220.691 75.825 217.046 76.3132 213.453 77.0837C208.543 78.2277 203.754 79.858 199.151 81.9516C195.595 83.5742 192.119 85.2779 188.721 87.0628C182.637 90.1458 176.553 93.0665 170.073 95.5816C164.937 97.5288 159.644 99.3948 154.587 101.504C149.873 103.449 145.37 105.896 141.154 108.806C135.623 112.538 130.882 116.838 125.746 120.895C122.946 123.211 119.831 125.097 116.502 126.493C114.036 127.48 111.403 127.949 108.758 127.872C105.574 127.708 102.455 126.88 99.5923 125.438C95.8139 123.524 92.2391 121.213 88.9253 118.542C86.9499 117 84.9746 115.378 83.0783 113.755C78.6534 109.942 74.3075 106.129 69.9617 102.316C67.5913 100.206 65.1419 98.0967 62.7715 96.0684C58.0306 92.0118 53.2896 87.9553 48.4697 83.9798C42.7807 79.3554 36.8545 74.9743 31.2445 70.3498C26.3136 66.3091 21.9526 61.5855 18.2861 56.3141C15.0393 51.6215 12.3347 46.5574 10.2267 41.2237C9.10471 38.5326 8.35979 35.6918 8.01421 32.786C7.7649 31.094 7.63288 29.386 7.61914 27.6748C7.72122 25.0141 8.22768 22.3862 9.12034 19.8861C11.3328 13.639 15.2836 8.20325 20.2615 3.25424C23.4424 -0.0340326 27.1595 -2.72495 31.2445 -4.69661C34.1813 -6.05103 37.3501 -6.79551 40.5683 -6.88716C44.5697 -6.90057 48.5464 -6.24284 52.3414 -4.93999C57.0823 -3.3985 61.6653 -1.77587 66.3272 -0.0721171C71.8582 1.95616 77.3891 4.14669 83.1572 5.68818C85.9537 6.45101 88.8086 6.96674 91.6908 7.22969C97.6959 7.87874 103.306 6.74293 108.758 4.71465C115.176 2.30194 121.409 -0.599828 127.405 -3.96641C131.706 -6.27419 135.85 -8.87629 139.811 -11.755C145.06 -15.5208 149.791 -19.9963 153.875 -25.0605C155.614 -27.1699 157.115 -29.4416 158.774 -31.7133C159.025 -32.0248 159.318 -32.298 159.643 -32.5246" stroke="white" stroke-width="0.711538" stroke-linecap="round" stroke-linejoin="round"/>
<path d="M207.446 244.052C208.947 242.105 210.37 240.239 211.871 238.373C215.19 234.316 218.429 230.259 221.906 226.284C225.183 222.554 228.899 219.257 232.968 216.467C236.919 213.709 240.948 211.031 244.82 208.192C250.746 203.973 255.724 199.024 259.043 193.101C260.846 189.923 262.152 186.473 262.914 182.879C263.515 180.274 263.807 177.605 263.784 174.928C263.784 173.954 264.021 173.062 263.942 172.088C263.863 169.411 263.705 166.734 263.547 163.975C263.389 161.866 263.231 159.675 263.152 157.566C262.993 154.402 262.914 151.238 262.914 147.992C262.993 145.802 263.31 143.611 263.547 141.421C263.784 139.555 263.942 137.689 264.179 135.904C264.416 134.281 264.732 132.659 264.969 131.117C265.127 129.9 265.443 128.683 265.522 127.466C265.811 124.935 265.943 122.388 265.917 119.84C265.68 112.295 262.836 105.398 256.751 99.557C252.994 95.9444 248.594 93.1074 243.793 91.2005C240.461 89.8221 236.944 88.974 233.363 88.6855C231.528 88.4561 229.68 88.3477 227.832 88.3609C223.419 88.511 219.052 89.3312 214.874 90.7949C208.394 92.9854 202.863 96.4741 197.332 99.9627C191.801 103.451 186.191 107.183 179.712 109.536C176.867 110.591 173.865 111.564 170.941 112.457C165.331 114.161 159.721 115.702 154.427 117.974C150.53 119.605 146.82 121.673 143.365 124.14C139.81 126.736 136.333 129.576 132.777 132.172C129.38 134.687 126.061 137.202 121.873 138.987C118.692 140.388 115.268 141.117 111.807 141.131C108.345 141.145 104.916 140.443 101.724 139.068C99.0313 137.89 96.441 136.478 93.981 134.849C91.6618 133.386 89.444 131.759 87.3437 129.981C84.4201 127.547 81.7336 125.032 78.8891 122.517C77.8619 121.625 76.9137 120.732 75.8865 119.921C69.7234 114.729 63.6392 109.455 57.318 104.425C52.2257 100.298 46.8667 96.5302 41.278 93.1477C34.8778 89.3345 28.3987 85.6025 22.0776 81.7893C16.2039 78.2614 11.1163 73.5075 7.14366 67.8347C4.1411 63.4537 1.53357 58.8292 -0.994899 54.2858C-3.99746 48.9312 -6.99998 43.6576 -9.84451 38.303C-11.0201 36.1478 -11.8725 33.8229 -12.3729 31.4068C-13.0988 27.8193 -12.5671 24.0839 -10.8717 20.8597C-8.60529 16.3619 -5.84831 12.1431 -2.65409 8.28441C1.77073 2.68635 6.19556 -2.91168 10.7784 -8.42861C13.6229 -11.8361 16.6254 -15.1625 19.786 -18.4077C22.5797 -21.3036 25.9117 -23.5936 29.584 -25.1417C31.7516 -26.0339 34.0471 -26.5547 36.3791 -26.6831C40.9264 -26.9157 45.4658 -26.0834 49.6536 -24.2492C55.3427 -21.9775 60.9528 -19.6247 66.6418 -17.2719C72.2506 -14.9991 78.0773 -13.3402 84.0251 -12.3229C88.3143 -11.675 92.6596 -11.5118 96.9834 -11.8361C102.113 -12.1722 107.17 -13.2651 111.996 -15.0814C116.477 -16.6619 120.792 -18.7004 124.876 -21.1662C129.738 -24.1239 134.201 -27.7245 138.15 -31.8755C138.466 -32.1564 138.81 -32.4012 139.177 -32.6057" stroke="white" stroke-width="0.711538" stroke-linecap="round" stroke-linejoin="round"/>
<path d="M220.168 243.974C223.553 238.648 227.501 233.723 231.941 229.289C235.043 226.282 238.402 223.567 241.976 221.176C245.453 218.823 248.772 216.308 252.169 213.956C256.437 210.927 260.29 207.325 263.626 203.246C267.144 199.015 269.803 194.105 271.449 188.805C272.16 186.29 272.871 183.775 273.424 181.26C273.74 179.556 273.74 177.852 273.898 176.148C273.977 174.85 274.135 173.471 274.135 172.173C274.135 170.307 274.056 168.441 273.898 166.575C273.819 164.628 273.661 162.599 273.424 160.652C273.016 156.827 272.884 152.977 273.029 149.132C273.108 147.022 273.424 144.913 273.661 142.803C274.214 137.692 275.874 132.743 277.296 127.794C278.086 125.279 278.797 122.764 279.35 120.168C280.318 116.033 279.696 111.674 277.612 107.998C275.432 104.367 272.773 101.064 269.711 98.1813C265.501 94.0467 260.738 90.5499 255.567 87.7965C249.427 84.3071 242.696 82.0494 235.734 81.1437C233.759 80.9003 231.783 80.6569 229.729 80.5758C227.65 80.4541 225.566 80.4541 223.487 80.5758C220.618 80.8978 217.769 81.3853 214.953 82.0362C209.383 83.3719 204.015 85.4732 198.992 88.2833L184.77 96.0719C179.746 98.759 174.513 101.011 169.125 102.806C164.226 104.51 159.169 106.213 154.428 108.079C149.42 110.048 144.69 112.695 140.363 115.949C136.65 118.789 133.015 121.709 129.38 124.549C126.679 126.772 123.798 128.754 120.768 130.472C117.198 132.418 113.193 133.369 109.153 133.23C107.07 133.136 105.015 132.697 103.068 131.932C98.8556 130.448 94.9255 128.224 91.4531 125.36C88.8456 123.332 86.2382 121.385 83.7887 119.275C79.759 115.868 75.8872 112.298 71.9365 108.809C70.8303 107.836 69.6452 106.781 68.4599 105.808C66.5636 104.185 64.6673 102.562 62.7709 101.021C60.0054 98.6681 57.2397 96.2341 54.3162 93.9625C50.0494 90.6361 45.6246 87.3908 41.2787 84.1456C37.9601 81.7116 34.5626 79.3588 31.323 76.8438C28.6365 74.8155 25.95 72.7872 23.4215 70.5967C19.8612 67.4775 16.7015 63.9061 14.0186 59.9685C12.2013 57.2912 10.463 54.6138 8.88268 51.7742C5.85467 46.6379 3.46561 41.1322 1.77135 35.3857C0.866862 32.0908 0.54575 28.6558 0.823215 25.2443C1.23006 21.6381 2.35997 18.1574 4.1418 15.0218C6.48786 10.6549 9.26822 6.54944 12.4383 2.77098C15.1455 -0.442732 18.0208 -3.50317 21.0511 -6.39684C23.6164 -8.83203 26.4862 -10.9056 29.5847 -12.5628C32.5363 -14.1381 35.819 -14.946 39.1454 -14.9156C43.4686 -14.9002 47.7528 -14.0754 51.7877 -12.4817C55.9755 -11.0213 60.0843 -9.39869 64.193 -7.8572C69.2035 -5.8772 74.3219 -4.1977 79.522 -2.8271C83.0227 -1.91 86.59 -1.28591 90.189 -0.961041C93.4536 -0.731771 96.7311 -0.786062 99.9868 -1.12331C106.387 -1.85349 112.234 -3.88177 117.923 -6.23457C124.034 -8.74479 129.863 -11.9275 135.306 -15.7269C140.12 -19.0661 144.478 -23.0497 148.265 -27.5721C149.45 -28.9514 150.556 -30.4117 151.741 -31.8721C151.937 -32.0535 152.149 -32.2164 152.374 -32.3588" stroke="white" stroke-width="0.711538" stroke-linecap="round" stroke-linejoin="round"/>
<path d="M212.897 243.974C215.979 239.918 219.06 235.942 222.221 231.886C225.993 227.207 230.35 223.061 235.179 219.554C238.656 216.957 242.449 214.605 246.004 212.09C251.456 208.276 256.355 204.139 260.069 199.109C264.684 192.792 267.427 185.242 267.97 177.365C268.049 174.526 268.207 171.767 268.128 168.928C268.128 166.818 267.891 164.79 267.733 162.681C267.575 160.733 267.338 158.867 267.338 156.92C267.18 153.513 267.101 150.105 267.101 146.779C267.195 144.847 267.406 142.923 267.733 141.019C267.97 138.909 268.286 136.8 268.603 134.69C268.919 132.905 269.314 131.039 269.551 129.255C269.788 127.47 270.183 125.685 270.341 123.9C270.499 121.872 270.578 119.762 270.578 117.734C270.475 113.91 269.443 110.172 267.575 106.862C265.126 102.157 261.333 98.1002 256.829 94.6115C252.346 91.1746 247.283 88.6167 241.896 87.0663C238.741 86.1565 235.516 85.5321 232.256 85.2003C225.761 84.6497 219.225 85.4782 213.055 87.6342C206.892 89.7436 201.598 92.8266 196.304 95.9907C192.195 98.4247 188.086 100.859 183.899 103.13C179.593 105.319 175.096 107.085 170.466 108.404C165.251 110.026 160.036 111.487 155.058 113.596C150.386 115.503 145.956 117.982 141.863 120.979C138.939 123.17 136.095 125.441 133.171 127.713C129.773 130.309 126.455 132.987 122.504 135.096C119.576 136.687 116.362 137.645 113.059 137.91C109.757 138.175 106.437 137.742 103.303 136.637C99.3779 135.195 95.6781 133.172 92.3205 130.634C90.3451 129.092 88.2117 127.713 86.3153 126.09C82.4436 122.845 78.73 119.438 75.0163 116.111L71.7767 113.272C65.8505 108.323 60.0825 103.374 53.9983 98.5869C47.7436 93.7009 41.228 89.1775 34.4817 85.038C28.9507 81.5494 23.4987 78.0607 18.6788 73.923C15.3731 71.064 12.4269 67.7936 9.90804 64.1873C8.32775 61.9156 6.9056 59.5628 5.48333 57.21C2.33234 51.9492 -0.517069 46.5042 -3.05031 40.9026C-4.34159 38.1237 -5.34789 35.2143 -6.05291 32.2216C-6.50039 29.8682 -6.55379 27.4538 -6.2109 25.082C-5.42075 19.0783 -2.10209 13.8859 1.53259 8.85578C4.21909 5.04262 7.06347 1.39173 10.066 -2.17805C13.3847 -6.07235 16.7824 -9.96668 20.4961 -13.6176C23.1276 -16.3318 26.2381 -18.5069 29.6617 -20.0269C31.6711 -20.9248 33.8031 -21.4995 35.9829 -21.7307C40.4868 -22.2986 44.7536 -21.3251 48.8624 -19.8647C54.3144 -17.8364 59.6874 -15.6458 65.0604 -13.5364C70.344 -11.4086 75.7878 -9.72632 81.3375 -8.50632C84.5232 -7.89633 87.7426 -7.48989 90.9773 -7.28935C96.8095 -6.99029 102.651 -7.64755 108.281 -9.23647C116 -11.3409 123.337 -14.7106 130.011 -19.2156C135.235 -22.6975 139.968 -26.9018 144.075 -31.7098C144.233 -31.8721 144.549 -32.0343 144.707 -32.1966" stroke="white" stroke-width="0.711538" stroke-linecap="round" stroke-linejoin="round"/>
<path d="M275.946 -32.5251C276.579 -31.7138 277.29 -30.9025 277.922 -30.0912C279.581 -27.9817 281.24 -25.8723 282.821 -23.7629C284.204 -22.0105 285.007 -19.8503 285.112 -17.5969C285.054 -15.9681 284.678 -14.368 284.006 -12.8913C282.821 -10.214 281.398 -7.69894 280.055 -5.10274C275.607 2.95349 272.283 11.6108 270.178 20.6159C269.783 22.4819 269.388 24.3479 269.151 26.2139C268.835 28.6479 268.677 31.0818 268.44 33.5157C268.23 35.02 268.177 36.5432 268.282 38.0591C268.44 40.5741 268.914 43.1703 269.151 45.6854C269.578 49.0499 270.319 52.3645 271.364 55.5834C271.917 57.6117 272.786 59.4777 273.418 61.506C274.524 64.8324 275.709 68.0776 276.579 71.404C277.132 73.5946 277.132 75.7851 275.393 77.7322C274.239 79.008 272.659 79.7902 270.969 79.9228C268.124 80.3285 265.517 79.5983 262.909 78.9492C257.773 77.6511 252.795 76.1096 247.659 74.7304C242.898 73.3717 238.035 72.4219 233.121 71.8908C230.829 71.6474 228.459 71.4851 226.167 71.3229C224.508 71.2418 222.77 71.0795 221.031 71.1606C216.375 71.3321 211.745 71.9569 207.204 73.0266C203.569 73.9191 200.013 75.0549 196.537 76.2719C189.82 78.6247 183.578 81.8699 177.099 84.6284C171.252 87.1435 165.247 89.4152 159.242 91.768C151.814 94.6887 144.624 97.9339 138.303 102.234C134.473 104.815 130.781 107.605 127.241 110.59C125.186 112.375 123.132 114.16 120.998 115.864C118.173 118.208 115.032 120.12 111.675 121.543C108.095 122.971 104.168 123.198 100.455 122.192C96.694 121.194 93.1358 119.518 89.9456 117.243C84.4146 113.673 79.6738 109.373 74.7749 105.317C71.8513 102.883 69.0857 100.287 66.2412 97.7717C63.1596 95.0132 59.9992 92.2547 56.9176 89.4151C49.4902 82.6812 41.5097 76.353 33.7663 69.8625C29.2149 66.1874 25.0565 62.0263 21.361 57.4494C17.2787 52.3976 14.0229 46.6982 11.721 40.5742C10.7487 38.1343 10.1105 35.5677 9.82476 32.9478C9.74575 31.7308 9.42969 30.5139 9.42969 29.2969C9.45028 24.0218 11.0199 18.8758 13.9335 14.531C15.624 11.9656 17.6142 9.62239 19.8596 7.55376C22.4809 5.16542 25.4377 3.19616 28.6303 1.7123C31.1074 0.600196 33.7546 -0.0587893 36.4527 -0.234869C41.6677 -0.640525 46.4876 0.576431 51.3075 2.03679C57.1032 3.92353 62.7999 6.11703 68.3748 8.60845C71.5354 9.90655 74.6958 11.2858 77.9354 12.5839C81.41 14.0374 85.0457 15.0456 88.7604 15.5857C93.0144 16.113 97.3296 15.5557 101.324 13.9631C106.223 12.0971 110.489 9.5009 114.835 6.98583C120.366 3.74058 125.897 0.414205 131.349 -2.99331C134.273 -4.85933 137.039 -6.88764 139.804 -8.91592C145.43 -13.0653 150.457 -18.0089 154.738 -23.6007C156.792 -26.1968 158.531 -28.9553 160.427 -31.6327C160.661 -31.8827 160.873 -32.1543 161.059 -32.444" stroke="white" stroke-width="0.711538" stroke-linecap="round" stroke-linejoin="round"/>
<path d="M-103.479 83.9791C-101.424 84.6282 -99.3698 85.2772 -97.3944 86.0074C-91.8386 87.9881 -86.1289 89.4809 -80.3271 90.4696C-77.9764 90.8634 -75.5976 91.0533 -73.2158 91.0375C-69.107 90.9564 -65.0773 90.5508 -61.3636 88.9282C-56.9273 87.2518 -53.3189 83.8385 -51.3288 79.4358C-49.93 75.9553 -48.8712 72.3407 -48.1682 68.6453C-46.8462 62.3475 -44.4089 56.3525 -40.9777 50.9587C-38.9819 47.8592 -36.5901 45.0487 -33.8664 42.6022C-32.6029 41.526 -31.2245 40.6006 -29.7577 39.8438C-28.5981 39.2171 -27.3048 38.8964 -25.9945 38.9106C-24.6841 38.9247 -23.3978 39.2733 -22.2513 39.9249C-20.1553 41.0565 -18.2374 42.5061 -16.5623 44.2248C-12.9319 48.0296 -9.77359 52.2807 -7.15938 56.8813C-4.94697 60.7756 -3.05073 64.751 -0.759302 68.6453C1.61114 72.7019 4.06071 76.7585 7.85342 80.0848C11.4643 83.1431 15.4818 85.6565 19.7845 87.5489C24.2884 89.7395 28.8713 91.7677 33.4541 93.8771C39.0024 96.4946 44.3394 99.5602 49.4151 103.045C52.6547 105.236 55.8944 107.588 58.9759 109.941C62.8477 112.943 66.7194 115.945 70.4331 119.109C74.6209 122.679 78.7295 126.249 82.7593 129.899C86.8521 133.656 91.2689 137.023 95.9549 139.96C99.5957 142.252 103.612 143.846 107.807 144.665C111.343 145.315 114.97 145.232 118.474 144.422C122.814 143.362 126.917 141.462 130.563 138.824C133.487 136.877 136.094 134.686 138.939 132.577C143.381 129.081 148.144 126.037 153.162 123.49C156.629 121.837 160.223 120.481 163.908 119.433C168.886 117.973 173.942 116.675 178.841 115.134C184.074 113.462 189.069 111.089 193.696 108.075C198.437 104.992 203.099 101.828 207.919 98.8262C212.257 96.0971 217.054 94.2259 222.062 93.3092C223.97 92.9728 225.897 92.7561 227.83 92.6602C230.399 92.4447 232.984 92.6363 235.495 93.2281C237.78 93.694 240.026 94.3451 242.211 95.1752C245.412 96.4676 248.377 98.3053 250.982 100.611C254.632 103.716 257.391 107.783 258.962 112.375C259.718 114.431 260.171 116.591 260.306 118.784C260.476 120.862 260.528 122.948 260.464 125.032C260.306 127.709 259.989 130.305 259.594 132.901C259.199 135.741 258.646 138.58 258.33 141.42C258.093 143.448 257.935 145.477 257.856 147.505C257.698 151.724 257.619 155.943 257.619 160.161C257.698 164.786 257.935 169.491 258.014 174.116C257.96 177.193 257.509 180.248 256.671 183.203C255.928 186.126 254.756 188.917 253.194 191.478C251.561 194.208 249.566 196.693 247.268 198.861C243.238 202.674 238.577 205.919 233.836 209.165C227.018 213.67 220.848 219.131 215.504 225.391C211.632 230.015 207.919 234.64 204.047 239.264C202.783 240.806 201.44 242.266 200.175 243.727" stroke="white" stroke-width="0.711538" stroke-linecap="round" stroke-linejoin="round"/>
<path d="M-103.479 87.389C-97.7104 89.3361 -92.0213 91.2833 -86.1742 93.0681C-82.3089 94.2371 -78.3376 94.9983 -74.322 95.3398C-71.0033 95.5832 -67.6848 95.421 -64.3662 95.3398C-61.584 95.2106 -58.826 94.7477 -56.1486 93.9606C-52.5075 93.0517 -49.0729 91.4261 -46.0348 89.1739C-43.2016 87.0035 -41.2128 83.8687 -40.4247 80.3306C-39.7926 77.6532 -39.4766 74.8948 -39.0815 72.1363C-38.3704 67.9986 -37.3432 63.9421 -34.9728 60.1289C-33.7834 58.1922 -32.1573 56.5781 -30.2319 55.4233C-26.9133 53.4761 -23.8316 53.5572 -20.513 55.5855C-18.2292 57.0623 -16.309 59.0615 -14.9029 61.427C-12.3744 65.2401 -10.8731 69.3778 -9.37186 73.5966C-8.02861 77.3287 -6.76437 80.9796 -4.2359 84.306C-2.0214 87.0861 0.828877 89.2602 4.06065 90.6342C8.16942 92.5002 12.6732 93.3927 17.019 94.5285C21.6809 95.7455 26.4218 96.8813 30.8466 98.5039C38.8146 101.449 46.3826 105.43 53.3658 110.349C56.0523 112.215 58.6598 114.081 61.2673 116.109C64.1118 118.3 66.9563 120.491 69.7218 122.843C73.2775 125.845 76.6753 129.009 80.1519 132.092C85.6039 136.798 91.0559 141.585 97.8511 145.073C101.198 146.841 104.8 148.046 108.518 148.643C113.298 149.371 118.178 148.898 122.741 147.264C126.835 145.707 130.713 143.607 134.277 141.017C139.018 137.69 143.759 134.202 148.579 130.956C153.04 128.107 157.885 125.948 162.959 124.547C167.937 123.087 172.994 121.789 178.051 120.491C184.509 118.771 190.648 115.975 196.225 112.215C200.807 109.213 205.232 106.049 209.894 103.047C213.705 100.608 217.904 98.8781 222.299 97.936C231.07 96.1511 238.892 97.6926 245.609 102.804C248.85 105.247 251.411 108.52 253.036 112.296C253.935 114.179 254.497 116.213 254.695 118.3C254.984 120.532 255.116 122.782 255.091 125.034C254.997 127.235 254.786 129.429 254.458 131.605C254.221 133.471 254.063 135.338 253.826 137.122C253.589 138.907 253.194 140.611 252.957 142.396C252.72 143.775 252.641 145.154 252.483 146.534C251.693 154.809 252.246 163.084 252.009 171.441C251.95 176.075 251.094 180.662 249.48 184.99C247.478 189.712 244.451 193.902 240.631 197.241C237.033 200.359 233.26 203.258 229.332 205.922C223.27 210.177 217.75 215.192 212.897 220.85C209.341 225.15 205.785 229.45 202.151 233.75C199.306 237.076 196.225 240.321 193.301 243.567C193.222 243.648 193.143 243.81 193.064 243.891" stroke="white" stroke-width="0.711538" stroke-linecap="round" stroke-linejoin="round"/>
<path d="M263.539 -32.5225C263.86 -31.9718 264.15 -31.403 264.408 -30.8188C265.277 -28.7094 266.147 -26.5188 266.858 -24.4094C267.855 -21.6757 268.699 -18.8857 269.386 -16.0529C269.779 -14.1608 269.938 -12.2255 269.86 -10.2926C269.594 -7.26991 269.172 -4.26387 268.596 -1.28702C267.727 3.09406 266.7 7.47516 265.751 11.8562C265.04 15.1826 264.25 18.5901 263.539 21.9165C263.223 23.458 263.065 25.0806 262.828 26.6221C262.512 28.7315 262.196 30.7598 261.959 32.8692C261.88 33.7617 261.722 34.6541 261.722 35.4654C261.643 39.7654 261.564 44.1465 261.485 48.4464C261.485 50.3124 261.801 52.2596 261.643 54.1256C261.485 56.4784 261.406 58.7501 260.457 61.0218C259.114 64.1047 256.586 65.8085 252.714 66.0519C250.344 66.2142 247.973 66.2953 245.603 66.2142C243.232 66.133 240.862 65.7274 238.491 65.5651C236.674 65.4028 234.857 65.4028 233.039 65.1595C228.546 64.7676 224.034 64.6592 219.528 64.8349C216.567 64.9137 213.613 65.1574 210.678 65.5651C206.103 66.1902 201.584 67.1941 197.167 68.567C192.9 69.8651 188.633 71.3254 184.445 72.7047C179.704 74.3273 175.042 76.031 170.381 77.6537C166.509 79.0329 162.637 80.4121 158.765 81.7102C150.294 84.6494 142.342 88.9784 135.219 94.529C132.928 96.3139 130.557 98.0987 128.345 99.9647C125.184 102.642 122.182 105.482 119.021 108.078C116.242 110.51 113.092 112.456 109.697 113.838C107.619 114.706 105.38 115.093 103.139 114.974C101.068 114.792 99.0251 114.357 97.0549 113.676C92.9591 112.163 89.1198 110.001 85.6768 107.267C82.7533 105.076 79.7508 102.885 77.0643 100.533C73.1925 97.2063 69.4788 93.7988 65.7651 90.3913C63.2366 88.1196 60.7871 85.8479 58.3376 83.5762C54.6239 80.1687 50.9103 76.7612 47.1176 73.3537C45.8533 72.1367 44.4311 71.082 43.1668 69.8651C37.4778 64.8349 31.8678 59.8859 27.443 54.0445C23.6502 49.1766 20.6477 43.9031 19.1464 38.2239C18.6723 36.3579 18.4352 34.4107 18.1192 32.5447C17.7397 29.5217 18.1205 26.4493 19.2253 23.6203C20.2344 20.9965 21.769 18.6194 23.7293 16.643C25.8928 14.369 28.5065 12.5983 31.3937 11.4506C35.09 9.99234 39.0791 9.49081 43.0088 9.99024C48.8931 10.6139 54.6203 12.3176 59.9179 15.0203C66.1601 18.1845 72.2443 21.592 78.3284 24.9184C81.3464 26.637 84.557 27.972 87.8893 28.8938C89.8561 29.4007 91.8682 29.6997 93.8943 29.7862C97.6299 29.8966 101.322 28.9418 104.561 27.0278C107.594 25.1807 110.405 22.9751 112.937 20.4561C117.411 16.1705 122.106 12.1352 127.002 8.36761C131.347 5.04123 136.088 1.95822 140.513 -1.28702C145.965 -5.34359 151.18 -9.56242 155.526 -14.4303C158.406 -17.6 161.048 -20.9903 163.427 -24.5717C165.087 -27.0868 166.588 -29.6829 168.247 -32.198C168.438 -32.4343 168.649 -32.6517 168.879 -32.8471" stroke="white" stroke-width="0.711538" stroke-linecap="round" stroke-linejoin="round"/>
<path d="M252.241 -32.5248C252.349 -32.5076 252.455 -32.4805 252.557 -32.4437C253.269 -28.3871 254.691 -24.5739 255.876 -20.6796C256.824 -17.5155 257.772 -14.4325 258.483 -11.2684C258.881 -9.29059 259.119 -7.2826 259.195 -5.26471C259.392 -3.89528 259.471 -2.51069 259.432 -1.12699C259.274 1.22582 259.037 3.49747 258.8 5.85028C258.642 7.22951 258.563 8.60877 258.326 9.988C258.088 11.5295 257.851 13.0709 257.535 14.6124C257.219 16.4785 256.903 18.3445 256.508 20.2105C256.271 21.5086 255.955 22.8067 255.718 24.1048C255.402 25.9708 255.086 27.8369 254.691 29.7029C254.296 31.8934 253.822 34.0839 253.348 36.3556C252.873 38.6273 252.557 40.8179 252.004 43.0084C251.293 45.848 250.424 48.6065 248.449 51.1215C246.243 53.6866 243.216 55.3558 239.915 55.8271C237.388 56.315 234.822 56.5595 232.251 56.5573C229.248 56.5573 226.167 56.6384 223.164 56.7196C220.161 56.8007 217.08 56.963 214.077 57.2875C207.711 57.8744 201.398 58.9593 195.193 60.5327C189.741 61.912 184.289 63.4535 178.758 64.7516C173.385 66.0497 167.933 67.1044 162.56 68.3213C158.135 69.376 153.789 70.3496 149.522 71.6477C145.404 72.965 141.511 74.9361 137.986 77.4892C133.087 80.9778 129.215 85.1966 125.186 89.2532C122.341 92.0928 119.418 94.8513 116.573 97.6908C113.983 100.244 110.991 102.329 107.723 103.857C104.899 105.15 101.777 105.6 98.7157 105.155C94.765 104.668 91.5254 103.045 88.4438 101.261C83.7889 98.5777 79.4422 95.3664 75.4855 91.6871C70.6656 87.306 66.0036 82.6816 61.3417 78.2193C57.0749 74.0817 52.8871 70.0251 48.6993 65.8874C44.7619 62.1698 41.0168 58.2431 37.4793 54.1234C34.7006 50.8963 32.4099 47.2589 30.6839 43.3329C29.4754 40.5269 28.9079 37.4743 29.0247 34.4085C29.4988 30.0274 31.4742 26.2954 36.6891 24.2671C38.4406 23.6213 40.2808 23.2653 42.1411 23.2124C45.8975 23.2138 49.6213 23.9289 53.1242 25.3218C58.4973 27.2689 63.001 30.1897 67.6629 32.9481C71.2976 35.1387 74.9323 37.3292 78.804 39.2764C83.0694 41.4386 87.6222 42.9422 92.3155 43.7386C96.3324 44.4709 100.456 44.3048 104.405 43.2518C107.983 42.2425 111.266 40.3483 113.966 37.7349C116.703 34.8467 119.164 31.6952 121.314 28.3236C124.554 23.618 127.872 18.9935 132.376 15.0181C136.011 11.7728 139.803 8.60874 143.596 5.44462C146.125 3.33521 148.89 1.30692 151.419 -0.802495C156.461 -4.93452 160.975 -9.70505 164.851 -15.0005C167.221 -18.3268 169.513 -21.7344 171.725 -25.1419C173.148 -27.4135 174.333 -29.7663 175.676 -32.038C175.866 -32.2743 176.078 -32.4916 176.308 -32.6871" stroke="white" stroke-width="0.711538" stroke-linecap="round" stroke-linejoin="round"/>
<path d="M-106.961 48.5264C-102.008 46.7403 -97.2855 44.3429 -92.8963 41.3868C-88.263 38.0917 -84.0435 34.2222 -80.333 29.8662C-77.8405 26.8883 -75.1189 24.1209 -72.1944 21.5908C-69.3585 19.1642 -65.9534 17.5419 -62.3176 16.8852C-58.7764 16.2616 -55.1496 16.3719 -51.6506 17.2097C-48.332 18.1021 -45.0923 18.9946 -41.9317 20.1305C-39.1662 21.104 -36.4007 22.2398 -33.3981 22.4832C-31.1954 22.669 -28.9899 22.1594 -27.0769 21.0229C-24.3824 19.6283 -21.9271 17.7923 -19.8076 15.5871C-16.2519 12.0173 -12.6172 8.44753 -9.2986 4.63437C-4.32067 -1.12595 0.420217 -7.04851 5.31913 -12.89C8.16366 -16.2975 11.0871 -19.6239 14.0897 -22.9503C16.6579 -25.8147 19.7097 -28.1785 23.0975 -29.9275C25.6925 -31.273 28.5034 -32.1251 31.394 -32.4426C35.8188 -32.9294 39.8486 -32.0369 43.7993 -30.7388C49.0143 -29.0351 53.8342 -26.52 58.8121 -24.3295C65.115 -21.3304 71.7476 -19.1238 78.5658 -17.7578C81.1703 -17.243 83.815 -16.9714 86.4673 -16.9465C88.4426 -16.9465 90.4971 -16.7843 92.4725 -16.9465C95.1257 -17.1657 97.7641 -17.545 100.374 -18.0824C106.276 -19.4225 111.931 -21.7232 117.125 -24.8974C120.614 -26.8901 123.851 -29.3152 126.765 -32.1181C127.027 -32.3276 127.321 -32.492 127.634 -32.6048" stroke="white" stroke-width="0.711538" stroke-linecap="round" stroke-linejoin="round"/>
<path d="M-106.801 44.9595C-105.22 44.1482 -103.64 43.418 -102.139 42.6067C-100.005 41.3897 -97.9511 40.1727 -95.8967 38.7935C-90.7607 35.3048 -87.1259 30.8426 -83.3332 26.4616C-80.9628 23.622 -78.5925 20.7824 -75.985 18.1051C-72.9857 14.9314 -69.1811 12.6831 -65.0019 11.6146C-63.1652 11.1404 -61.2847 10.8684 -59.3919 10.8032C-54.493 10.4787 -49.7521 11.4523 -44.9322 12.2636C-41.4256 13.0377 -37.8517 13.4455 -34.2652 13.4806C-30.62 13.3856 -27.0474 12.413 -23.8353 10.641C-20.0729 8.51297 -16.5937 5.89511 -13.4843 2.85234C-8.82238 -1.36649 -4.9507 -6.07209 -1.07898 -10.7777C2.31866 -14.9965 5.63732 -19.2154 9.03495 -23.5153C11.4995 -26.5993 14.2811 -29.401 17.3315 -31.8718C17.7807 -32.1633 18.2572 -32.4079 18.7538 -32.602" stroke="white" stroke-width="0.711538" stroke-linecap="round" stroke-linejoin="round"/>
<path d="M-106.801 42.2808C-106.238 41.9252 -105.658 41.6002 -105.062 41.3072C-99.3632 38.5306 -94.2804 34.5818 -90.1286 29.7054C-87.126 26.0545 -84.2815 22.3225 -81.1999 18.7527C-79.4239 16.6858 -77.5239 14.7348 -75.5109 12.9113C-72.4288 10.236 -68.7281 8.41991 -64.7648 7.63772C-61.7046 6.9465 -58.5539 6.78202 -55.4412 7.15096C-52.5176 7.55661 -49.5149 7.71885 -46.5914 8.04338C-44.3 8.28677 -42.0086 8.77354 -39.7171 8.9358C-35.6874 9.09807 -31.6576 9.01693 -27.8649 7.71883C-24.3226 6.43319 -20.992 4.60021 -17.9881 2.28308C-11.2718 -2.82818 -6.13591 -9.0753 -1.23699 -15.3224C2.87178 -20.5148 6.66441 -25.9506 11.3263 -30.8185C11.9493 -31.4033 12.6092 -31.9454 13.3016 -32.4411" stroke="white" stroke-width="0.711538" stroke-linecap="round" stroke-linejoin="round"/>
<path d="M-106.961 38.5483C-105.065 37.4125 -103.01 36.3578 -101.193 35.0597C-95.8198 31.3276 -92.1061 26.5409 -88.5505 21.673C-86.18 18.4278 -83.8095 15.2637 -81.202 12.1807C-78.4747 8.95293 -75.0711 6.40115 -71.2463 4.71664C-68.3635 3.4648 -65.2865 2.75047 -62.1596 2.60719C-60.6093 2.4721 -59.0532 2.41793 -57.4976 2.44492C-55.4432 2.52605 -53.4679 2.76948 -51.4135 2.93174C-49.3591 3.094 -47.3838 3.3374 -45.3294 3.49967C-42.959 3.66193 -40.5094 3.98643 -38.139 3.98643C-32.4517 4.06926 -26.8505 2.55428 -21.941 -0.394671C-17.1524 -3.415 -12.859 -7.19367 -9.21972 -11.5908C-4.47883 -16.9454 -0.527977 -22.7057 3.73882 -28.3038C4.76601 -29.6019 5.79313 -30.8189 6.82032 -32.117C6.97835 -32.2792 7.21535 -32.3604 7.37338 -32.5226" stroke="white" stroke-width="0.711538" stroke-linecap="round" stroke-linejoin="round"/>
<path d="M-106.801 35.2241C-105.695 34.4128 -104.746 33.5204 -103.561 32.7902C-101.285 31.23 -99.2362 29.345 -97.477 27.1921C-94.0794 23.4601 -91.4718 19.3224 -88.7063 15.347C-86.1778 11.6961 -83.5703 8.04515 -80.0147 5.04329C-75.9715 1.51211 -70.9896 -0.692319 -65.7131 -1.28493C-64.0634 -1.51419 -62.3998 -1.62266 -60.7351 -1.60948C-58.2857 -1.60948 -55.8362 -1.60947 -53.3867 -1.44721C-51.2533 -1.28494 -49.1199 -0.879297 -46.9865 -0.798166C-43.5098 -0.635904 -40.0332 -0.311359 -36.5566 -0.473621C-31.1846 -0.768973 -25.9816 -2.50318 -21.4649 -5.50377C-16.126 -9.13065 -11.4462 -13.6886 -7.63727 -18.9715C-4.39767 -23.1904 -1.237 -27.5715 1.92359 -31.8714C2.15443 -32.1265 2.42068 -32.3452 2.71374 -32.5205" stroke="white" stroke-width="0.711538" stroke-linecap="round" stroke-linejoin="round"/>
<path d="M58.8945 53.716C60.0798 51.2821 61.8971 51.1198 64.4256 51.5255C68.9294 52.2557 73.1961 53.716 77.5419 54.933C81.8877 56.15 86.0755 57.2047 90.4213 58.3405C95.6363 59.6386 100.851 60.7744 106.066 62.2348C109.385 63.1273 112.229 64.7499 113.731 67.5083C114.654 69.1821 114.936 71.1494 114.521 73.0253C114.3 74.3804 113.956 75.7113 113.494 77.0007C112.197 80.7135 110.088 84.0717 107.33 86.8176C105.72 88.4516 103.814 89.7469 101.72 90.6307C98.481 91.9258 94.9015 92.0119 91.6066 90.8741C88.3318 89.7522 85.2611 88.0798 82.5199 85.9251C75.8036 80.8139 70.6677 74.729 66.0059 68.3196C63.4971 65.032 61.3999 61.4341 59.7636 57.6103C59.2314 56.4428 58.9613 55.1674 58.9734 53.8783" stroke="white" stroke-width="0.711538" stroke-linecap="round" stroke-linejoin="round"/>
</g>
<defs>
<clipPath id="clip0_965_5884">
<rect width="74" height="74" fill="white" transform="matrix(1 0 0 -1 0.5 74)"/>
</clipPath>
</defs>
</svg>
