<svg width="316" height="442" viewBox="0 0 316 442" fill="none" xmlns="http://www.w3.org/2000/svg">
<g clip-path="url(#clip0_1147_31263)">
<path d="M385.418 390.543C380.12 394.475 374.822 398.236 369.694 402.339C362.834 408.073 356.693 414.617 351.407 421.829C346.28 428.668 341.494 435.848 336.709 442.858C326.454 458.074 315.003 472.093 301.159 482.18C293.104 488.129 284.315 493.014 275.01 496.712C268.781 499.03 262.381 500.859 255.868 502.183C251.011 503.043 246.1 503.557 241.17 503.722C237.239 504.064 233.137 504.235 229.207 504.235C223.566 504.235 217.926 503.893 212.116 503.722C205.963 503.551 199.81 503.038 193.486 503.38C183.745 503.893 174.003 505.261 164.774 509.364C157.086 512.442 150.401 517.59 145.461 524.238C141.547 529.823 139.295 536.403 138.966 543.215C138.454 549.883 138.283 556.721 137.77 563.389C137.334 571.001 135.72 578.498 132.984 585.614C131.643 589.012 129.984 592.275 128.028 595.36C122.953 603.123 115.783 609.288 107.348 613.14C101.186 616.21 94.5337 618.177 87.6933 618.953C84.0143 619.492 80.3025 619.778 76.5842 619.808C71.9696 619.637 67.5259 618.953 63.0823 618.44C58.9805 617.927 54.8786 617.243 50.6059 617.072C44.6241 616.731 38.4713 616.559 32.4895 616.559C29.3246 616.764 26.1812 617.221 23.0894 617.927C20.5258 618.269 17.7912 618.611 15.2276 618.953C12.1512 619.466 8.90393 619.979 5.82755 620.321L1.21302 620.834C-1.35062 621.005 -3.91427 621.005 -6.47791 621.347C-17.7579 622.714 -29.2089 622.372 -40.4889 622.201C-45.4654 622 -50.4283 621.544 -55.3581 620.834C-58.0926 620.492 -60.8272 620.321 -63.5617 619.808C-67.3217 619.295 -71.2527 618.782 -75.0127 617.927C-82.7571 616.229 -90.3141 613.766 -97.5728 610.576C-107.765 606.067 -116.948 599.555 -124.577 591.428C-130.504 585.019 -135.249 577.61 -138.591 569.544C-141.275 563.475 -142.448 556.846 -142.009 550.225C-141.652 544.316 -139.767 538.602 -136.54 533.641C-129.704 523.041 -120.816 516.203 -111.075 510.732C-103.982 506.734 -96.4747 503.524 -88.6855 501.157C-83.066 499.617 -77.3586 498.418 -71.5945 497.567C-64.8413 496.262 -57.952 495.803 -51.0853 496.2C-47.2424 496.402 -43.417 496.859 -39.6344 497.567C-35.0778 498.33 -30.5696 499.357 -26.1325 500.644C-15.9975 503.875 -6.42624 508.663 2.2385 514.835C9.07488 519.622 15.7403 524.751 22.4058 529.709C27.5331 533.47 32.6604 537.06 38.4713 538.428C47.1877 540.651 55.0496 538.428 61.886 530.564C64.3608 527.792 66.2242 524.53 67.355 520.99C68.4714 517.398 68.8208 513.612 68.3805 509.877C67.173 502.306 64.6266 495.012 60.8605 488.335C54.195 475 47.1877 461.835 41.7186 447.474C37.3126 435.747 34.1059 423.603 32.1477 411.229C30.6944 402.016 30.179 392.679 30.6095 383.362C31.0343 375.431 32.0628 367.544 33.6859 359.769C36.0959 349.146 39.5302 338.783 43.9405 328.824C47.3586 321.13 50.9477 313.608 54.7077 306.256C61.2023 293.092 67.3551 279.927 72.6533 265.908C76.7551 254.795 80.686 243.341 85.1297 232.399C89.2258 222.199 94.3814 212.458 100.512 203.335C108.373 191.367 117.432 181.109 125.977 169.996C130.858 163.937 134.831 157.199 137.77 149.994C139.85 144.66 140.838 138.962 140.675 133.239C140.331 126.348 138.586 119.6 135.548 113.407C131.517 105.231 126.648 97.4964 121.021 90.3261C117.773 86.052 114.355 81.778 110.937 77.6748C102.904 68.1007 94.8716 58.6974 86.8388 49.2943C82.3952 44.1653 77.9515 38.8656 73.6787 33.7367C65.1333 23.4787 56.5878 13.2206 48.2132 2.79165C38.4714 -9.5179 29.2422 -22.3404 19.5004 -34.479C10.9883 -45.1481 1.03766 -54.584 -10.067 -62.5173C-19.9523 -69.5424 -30.6202 -75.3944 -41.8562 -79.9557C-47.5253 -82.3833 -53.5096 -83.9951 -59.6308 -84.7428C-63.1952 -85.2823 -66.7933 -85.568 -70.3981 -85.5977C-76.003 -85.3768 -81.539 -84.281 -86.8055 -82.3495C-99.9655 -77.5624 -111.416 -69.014 -121.842 -58.2431C-128.769 -51.3605 -134.438 -43.3178 -138.591 -34.479C-141.444 -28.1246 -143.013 -21.2682 -143.206 -14.305C-143.234 -5.64688 -141.848 2.95752 -139.104 11.1688C-135.857 21.4268 -132.438 31.3431 -128.849 41.4301C-124.576 53.3977 -119.962 65.365 -116.715 77.8455C-115.108 83.8964 -114.021 90.0738 -113.467 96.3099C-112.1 109.303 -114.493 121.442 -118.766 133.239C-123.848 147.125 -129.961 160.612 -137.053 173.586C-141.914 182.891 -147.396 191.859 -153.46 200.428C-161.393 211.787 -170.821 222.023 -181.489 230.86C-185.933 234.621 -190.719 237.87 -195.504 241.46C-196.16 242.003 -196.736 242.636 -197.213 243.341" stroke="#BFC9D1" stroke-linecap="round" stroke-linejoin="round"/>
<path d="M385.418 346.775C381.316 350.023 377.385 353.101 373.454 356.349C364.909 363.53 356.363 370.539 347.989 378.062C340.132 385.153 333.185 393.193 327.309 401.997C321.498 410.545 315.858 419.265 309.876 427.642C300.989 440.464 290.563 451.235 278.087 458.416C271.39 462.317 264.124 465.144 256.552 466.793C251.065 468.093 245.441 468.725 239.803 468.674C237.752 468.674 235.872 469.187 233.821 469.016C228.181 468.845 222.541 468.503 216.73 468.161C212.286 467.819 207.672 467.477 203.228 467.306C196.563 466.964 189.897 466.793 183.061 466.793C178.446 466.964 173.832 467.648 169.217 468.161C165.286 468.674 161.355 469.016 157.595 469.529C154.177 470.041 150.759 470.725 147.512 471.238C144.948 471.58 142.384 472.264 139.821 472.435C134.489 473.061 129.123 473.346 123.755 473.29C107.861 472.777 93.3333 466.622 81.0278 453.458C73.4175 445.327 67.4411 435.808 63.4241 425.419C60.5204 418.21 58.7337 410.6 58.1259 402.852C57.6428 398.881 57.4144 394.884 57.4423 390.884C57.7584 381.336 59.4863 371.888 62.5696 362.846C67.1842 348.827 74.5333 336.859 81.8824 324.891C89.2315 312.924 97.0934 300.785 102.05 286.766C104.272 280.611 106.322 274.114 108.202 267.789C111.792 255.65 115.039 243.512 119.824 232.057C123.26 223.625 127.616 215.598 132.813 208.122C138.283 200.428 144.264 192.906 149.734 185.212C155.032 177.861 160.33 170.68 164.09 161.619C167.041 154.735 168.577 147.328 168.606 139.838C168.635 132.348 167.158 124.929 164.261 118.022C161.779 112.195 158.806 106.591 155.374 101.268C152.291 96.2499 148.864 91.4511 145.119 86.9067C139.992 80.5809 134.693 74.7682 129.395 68.6134C127.515 66.3908 125.635 64.3391 123.926 62.1166C112.988 48.7812 101.879 35.6169 91.2824 21.9396C82.5886 10.9213 74.6516 -0.674092 67.526 -12.7666C59.4932 -26.6148 51.6314 -40.6337 43.5986 -54.311C36.1667 -67.0199 26.1523 -78.028 14.2022 -86.6238C4.97308 -93.1205 -4.7688 -98.7625 -14.3397 -104.233C-25.6198 -110.73 -36.7289 -117.227 -48.009 -123.381C-52.549 -125.925 -57.4465 -127.769 -62.5363 -128.852C-70.0936 -130.423 -77.9626 -129.272 -84.7545 -125.604C-94.2296 -120.7 -103.117 -114.735 -111.246 -107.823C-123.038 -98.2493 -134.831 -88.6752 -146.453 -78.7592C-153.631 -72.6044 -160.638 -66.1079 -167.475 -59.2693C-173.575 -53.2246 -178.399 -46.015 -181.66 -38.0692C-183.54 -33.379 -184.637 -28.4122 -184.908 -23.3664C-185.398 -13.5273 -183.644 -3.70543 -179.78 5.35597C-174.995 17.6655 -170.038 29.8041 -165.082 42.1136C-160.294 54.2495 -156.8 66.8568 -154.657 79.7262C-153.292 89.0067 -152.948 98.4088 -153.631 107.764C-154.339 118.864 -156.641 129.805 -160.468 140.248C-163.797 149.943 -168.091 159.279 -173.286 168.115C-179.516 178.636 -187.101 188.293 -195.846 196.838C-196.437 197.521 -196.953 198.266 -197.384 199.06" stroke="#BFC9D1" stroke-linecap="round" stroke-linejoin="round"/>
<path d="M385.256 374.3C374.036 381.623 363.661 390.167 354.321 399.774C347.987 406.486 342.267 413.752 337.23 421.486C332.274 429.009 326.976 436.19 322.019 443.541C315.639 452.774 308.051 461.112 299.459 468.331C290.545 475.942 280.203 481.696 269.037 485.257C263.739 486.795 258.441 488.334 253.143 489.531C249.554 490.215 245.964 490.215 242.375 490.557C239.641 490.728 236.735 491.07 234.001 491.07C230.07 491.07 226.139 490.899 222.208 490.557C218.106 490.386 213.833 490.044 209.732 489.531C201.674 488.649 193.562 488.363 185.462 488.676C181.019 488.847 176.575 489.531 172.131 490.044C161.364 491.241 150.939 494.831 140.513 497.908C135.215 499.618 129.917 501.157 124.448 502.353C115.737 504.448 106.554 503.1 98.8112 498.592C91.1626 493.875 84.2033 488.121 78.1311 481.496C69.4213 472.387 62.055 462.083 56.2547 450.893C48.904 437.608 44.1479 423.044 42.2401 407.98C41.7274 403.706 41.2146 399.432 41.0437 394.987C40.7874 390.488 40.7874 385.979 41.0437 381.48C41.7219 375.273 42.749 369.108 44.1201 363.016C46.9338 350.965 51.3604 339.348 57.2801 328.481L73.6875 297.707C79.3481 286.837 84.093 275.514 87.873 263.856C91.4621 253.256 95.0512 242.314 98.9821 232.056C103.13 221.22 108.705 210.985 115.56 201.624C121.542 193.589 127.695 185.724 133.677 177.86C138.36 172.016 142.534 165.782 146.153 159.225C150.254 151.5 152.258 142.834 151.964 134.093C151.765 129.586 150.842 125.141 149.23 120.929C146.103 111.813 141.419 103.309 135.386 95.7962C131.113 90.1544 127.011 84.5126 122.568 79.2126C115.389 70.4934 107.869 62.116 100.52 53.5677C98.4694 51.1742 96.2476 48.6099 94.1967 46.0454C90.7785 41.9422 87.3603 37.8391 84.113 33.7359C79.1566 27.7521 74.0293 21.768 69.2438 15.4422C62.2365 6.21007 55.4001 -3.36402 48.5638 -12.7671C43.4365 -19.9477 38.4801 -27.299 33.1819 -34.3086C28.9091 -40.1214 24.6364 -45.9343 20.0219 -51.4052C13.4511 -59.1088 5.92767 -65.9455 -2.3673 -71.7504C-8.00732 -75.6826 -13.6474 -79.4439 -19.6292 -82.8632C-30.4492 -89.415 -42.0475 -94.5842 -54.1529 -98.2501C-61.094 -100.207 -68.33 -100.902 -75.5166 -100.302C-83.1135 -99.4213 -90.4458 -96.9765 -97.0513 -93.1211C-106.25 -88.0449 -114.899 -82.029 -122.859 -75.1697C-129.629 -69.3121 -136.076 -63.0909 -142.171 -56.5342C-147.301 -50.9835 -151.669 -44.7741 -155.161 -38.0698C-158.479 -31.6834 -160.181 -24.5805 -160.117 -17.3832C-160.084 -8.02898 -158.347 1.24085 -154.99 9.9714C-151.913 19.0326 -148.495 27.9227 -145.248 36.813C-141.077 47.6542 -137.539 58.7289 -134.651 69.9806C-132.719 77.5551 -131.405 85.2739 -130.72 93.061C-130.237 100.125 -130.352 107.216 -131.062 114.261C-132.6 128.109 -136.873 140.76 -141.83 153.07C-147.118 166.293 -153.822 178.904 -161.826 190.682C-168.86 201.097 -177.252 210.526 -186.779 218.721C-189.684 221.285 -192.761 223.679 -195.837 226.243C-196.219 226.667 -196.563 227.125 -196.862 227.611" stroke="#BFC9D1" stroke-linecap="round" stroke-linejoin="round"/>
<path d="M385.256 358.571C376.71 365.238 368.336 371.906 359.79 378.744C349.935 386.906 341.2 396.334 333.812 406.783C328.343 414.305 323.387 422.512 318.088 430.205C310.056 442.002 301.339 452.602 290.743 460.637C277.435 470.623 261.533 476.558 244.939 477.734C238.957 477.905 233.146 478.247 227.164 478.076C222.721 478.076 218.448 477.563 214.004 477.221C209.902 476.879 205.972 476.366 201.87 476.366C194.692 476.024 187.513 475.853 180.506 475.853C176.437 476.055 172.384 476.512 168.371 477.221C163.928 477.734 159.484 478.418 155.04 479.102C151.28 479.785 147.35 480.64 143.59 481.153C139.829 481.666 136.069 482.521 132.309 482.863C128.037 483.205 123.593 483.376 119.32 483.376C111.264 483.154 103.392 480.921 96.4184 476.879C86.5057 471.579 77.9602 463.372 70.6111 453.627C63.3711 443.926 57.9826 432.972 54.7165 421.315C52.7999 414.491 51.4845 407.511 50.7856 400.457C49.6258 386.404 51.3711 372.262 55.9129 358.912C60.3565 345.577 66.8511 334.122 73.5165 322.668C78.6438 313.777 83.7712 304.887 88.5566 295.826C93.1681 286.51 96.8877 276.778 99.6658 266.762C103.084 255.478 106.16 244.194 110.604 233.423C114.62 223.314 119.842 213.728 126.157 204.872C130.771 198.546 135.557 192.391 140.342 186.066C145.811 178.714 151.451 171.534 155.895 162.985C159.247 156.65 161.265 149.695 161.823 142.549C162.382 135.404 161.469 128.219 159.142 121.44C156.103 112.947 151.842 104.941 146.495 97.6763C143.248 93.4022 140.342 88.7859 136.924 84.6828C130.088 76.3054 122.909 68.2704 115.902 60.2349L109.92 53.2252C99.4949 40.4027 89.0694 27.9222 78.9857 14.7578C68.6928 1.22442 59.164 -12.8737 50.4438 -27.4707C43.0946 -39.4383 35.7456 -51.235 27.0292 -61.6639C21.0063 -68.8163 14.117 -75.1912 6.51999 -80.6413C1.73452 -84.0606 -3.22187 -87.1377 -8.17825 -90.2151C-19.2605 -97.033 -30.7309 -103.198 -42.5311 -108.68C-48.3852 -111.473 -54.514 -113.651 -60.8184 -115.176C-65.7759 -116.145 -70.8621 -116.26 -75.8585 -115.518C-88.5058 -113.809 -99.444 -106.628 -110.04 -98.7634C-118.073 -92.9506 -125.764 -86.7961 -133.284 -80.2994C-141.488 -73.1189 -149.691 -65.767 -157.382 -57.7316C-163.1 -52.0377 -167.682 -45.3075 -170.884 -37.8998C-172.776 -33.5521 -173.986 -28.9389 -174.473 -24.2225C-175.67 -14.4775 -173.619 -5.2452 -170.542 3.64503C-166.27 15.4417 -161.655 27.0674 -157.211 38.6931C-152.729 50.1253 -149.185 61.9041 -146.615 73.9122C-145.33 80.8051 -144.474 87.771 -144.051 94.77C-143.421 107.389 -144.806 120.028 -148.153 132.211C-152.587 148.912 -159.685 164.788 -169.175 179.227C-176.51 190.532 -185.367 200.772 -195.495 209.659C-195.837 210.001 -196.179 210.685 -196.521 211.027" stroke="#BFC9D1" stroke-linecap="round" stroke-linejoin="round"/>
<path d="M67.0191 -325.629C68.0446 -323.064 69.2409 -320.5 70.2664 -317.935C72.83 -310.755 75.2228 -303.574 77.7864 -296.394C81.673 -285.573 84.5341 -274.411 86.3319 -263.055C87.3574 -256.559 88.041 -250.062 88.5538 -243.565C90.0919 -227.665 88.8956 -211.594 89.4083 -195.524C89.921 -178.427 93.681 -162.869 102.568 -149.534C107.867 -141.499 114.19 -134.66 121.881 -130.385C125.313 -128.275 129.161 -126.934 133.161 -126.454C136.909 -126.084 140.678 -125.969 144.441 -126.111C148.781 -126.494 153.074 -127.296 157.259 -128.505C168.027 -131.412 178.794 -134.66 189.561 -137.566C194.248 -138.513 198.984 -139.198 203.747 -139.618C205.884 -140.043 208.064 -140.215 210.241 -140.131C218.103 -139.447 225.965 -138.25 232.802 -132.779C236.226 -130.059 238.927 -126.536 240.663 -122.521C241.797 -119.786 242.308 -116.833 242.16 -113.877C242.012 -110.92 241.209 -108.033 239.809 -105.425C237.005 -99.8813 232.676 -95.2545 227.332 -92.0893C219.163 -86.8085 210.052 -83.1515 200.5 -81.3183C194.982 -80.1145 189.384 -79.3147 183.75 -78.925C175.889 -78.4121 168.027 -78.412 160.165 -78.412C155.892 -78.412 151.619 -79.0959 147.347 -79.2668C144.053 -79.6082 140.745 -79.7795 137.434 -79.7798C128.547 -79.2669 120.001 -77.0441 112.823 -69.6926C106.499 -63.3668 102.91 -55.1605 102.056 -44.9025C101.452 -34.6176 102.964 -24.3184 106.499 -14.6416C110.943 -1.1353 117.608 10.6614 124.957 22.1161C132.648 34.2547 141.707 45.0256 150.423 55.9674C158.285 65.7125 166.489 74.7733 174.179 84.6894C181.837 94.1535 188.056 104.696 192.638 115.976C195.756 123.967 197.657 132.382 198.278 140.937C199.303 154.273 196.227 166.411 191.1 177.866C186.656 187.953 180.674 196.672 174.692 205.563C167.001 216.846 159.31 228.472 154.183 241.978C151.116 250.279 148.66 258.793 146.834 267.452C144.27 278.907 142.219 290.703 138.63 301.816C135.287 312.144 130.573 321.977 124.616 331.051C118.463 340.284 112.139 349.345 106.157 358.748C101.902 365.261 98.728 372.421 96.7574 379.948C93.8519 391.232 94.7065 402.173 100.346 412.089C103.583 418.081 108.599 422.92 114.703 425.938C119.88 428.662 125.606 430.182 131.452 430.383C133.845 430.383 136.237 430.896 138.459 430.725C143.074 430.383 147.688 429.87 152.303 429.357C156.918 428.844 161.532 428.16 166.147 427.476C169.565 426.963 172.983 426.109 176.23 425.596C178.965 425.083 181.87 424.912 184.605 424.57C188.194 424.057 191.954 423.544 195.543 423.202C197.765 423.031 199.816 422.86 202.038 422.689C205.627 422.518 209.045 422.518 212.634 422.176C217.59 421.834 222.547 421.321 227.503 420.637C233.028 420.016 238.508 419.045 243.911 417.731C248.539 416.472 253.011 414.694 257.242 412.431C265.827 407.708 273.427 401.382 279.631 393.796C285.1 387.299 290.398 380.803 295.867 374.306C303.967 364.609 312.887 355.629 322.529 347.464C330.733 340.626 339.278 333.958 347.311 326.777C358.42 316.69 369.358 306.261 380.297 295.832C381.835 294.294 383.544 292.755 385.082 291.216" stroke="#BFC9D1" stroke-linecap="round" stroke-linejoin="round"/>
<path d="M74.2003 -325.978C76.4221 -319.823 78.8148 -313.668 81.0367 -307.513C86.6767 -292.468 91.804 -277.081 94.5386 -260.669C95.7349 -253.83 96.5895 -246.82 97.444 -239.81C98.1276 -233.827 98.4694 -227.843 98.9822 -221.859C100.008 -209.72 101.033 -197.582 104.109 -185.785C107.528 -173.134 113.339 -162.534 122.055 -154.67C127.466 -149.826 134.076 -146.52 141.197 -145.096C147.01 -144.1 152.928 -143.871 158.801 -144.412C164.26 -144.932 169.683 -145.789 175.037 -146.976L188.368 -149.541C191.615 -150.225 194.862 -150.908 198.11 -151.421C199.306 -151.592 200.673 -151.763 201.87 -151.934C207.041 -152.39 212.236 -152.504 217.423 -152.276C225.29 -151.927 232.938 -149.573 239.641 -145.437C247.503 -140.479 254.168 -133.812 257.245 -122.87C258.489 -118.65 258.735 -114.198 257.964 -109.865C257.193 -105.533 255.425 -101.44 252.801 -97.9087C247.332 -90.2153 240.324 -85.4283 232.975 -81.3251C225.977 -77.4682 218.586 -74.3733 210.928 -72.0931C203.921 -70.0415 196.742 -68.5028 189.735 -66.9642C185.462 -65.9384 181.19 -65.2542 176.917 -64.5704C173.67 -64.0575 170.593 -64.0577 167.346 -63.5448C163.244 -63.0319 158.971 -62.3479 154.87 -61.664C150.255 -60.8092 145.47 -59.9545 140.855 -58.7577C134.54 -57.2097 128.829 -53.8176 124.448 -49.0127C120.019 -44.0631 117.267 -37.8397 116.586 -31.232C115.56 -22.1708 117.44 -13.7935 120.004 -5.58714C123.798 5.47755 129.027 15.996 135.557 25.6993C142.209 35.7667 149.397 45.4688 157.091 54.7635C165.124 64.6795 173.499 74.2537 181.361 84.3407C189.003 93.9098 195.167 104.571 199.648 115.969C203.24 125.91 205.258 136.351 205.63 146.914C205.576 153.302 204.831 159.664 203.408 165.891C200.227 177.957 195.151 189.441 188.368 199.914C183.241 208.12 178.113 216.156 173.157 224.362C166.01 236.385 160.872 249.493 157.946 263.171C155.724 274.284 153.502 285.397 150.939 296.51C148.767 306.57 145.381 316.33 140.855 325.574C136.051 334.82 130.626 343.731 124.619 352.244C119.539 359.31 115.295 366.94 111.971 374.983C110.256 379.351 109.274 383.972 109.066 388.66C108.788 394.331 110.282 399.948 113.339 404.731C117.546 410.83 124 415.011 131.284 416.356C136.926 417.327 142.664 417.614 148.375 417.211C152.851 416.836 157.301 416.209 161.706 415.331C165.295 414.818 168.884 414.476 172.473 413.792C176.062 413.108 179.822 412.424 183.582 411.912C186.317 411.57 189.222 411.228 191.957 410.886C196.059 410.373 199.99 409.86 204.092 409.518C205.801 409.347 207.339 409.176 209.048 409.005C215.372 408.15 221.695 407.466 228.019 406.611C234.549 405.69 240.928 403.908 246.99 401.312C256.973 396.785 265.929 390.269 273.31 382.163C282.197 372.931 290.743 363.186 299.801 354.467C307.834 346.602 316.379 339.593 324.754 332.583C337.23 322.325 349.707 312.409 361.499 300.784C369.361 293.09 377.223 285.397 385.256 277.703" stroke="#BFC9D1" stroke-linecap="round" stroke-linejoin="round"/>
<path d="M-197.213 494.987C-195.504 496.354 -193.795 497.893 -192.085 499.261C-187.642 502.851 -183.198 506.441 -178.755 509.861C-175.063 512.854 -170.512 514.591 -165.765 514.818C-162.334 514.693 -158.963 513.879 -155.853 512.425C-150.213 509.861 -144.914 506.783 -139.445 503.877C-122.474 494.253 -104.237 487.059 -85.2669 482.506C-81.336 481.651 -77.405 480.796 -73.4741 480.283C-68.3468 479.599 -63.2196 479.258 -58.0923 478.745C-54.9233 478.29 -51.7147 478.175 -48.5213 478.403C-43.2231 478.745 -37.754 479.77 -32.4558 480.283C-25.3682 481.207 -18.3858 482.81 -11.6048 485.07C-7.33209 486.267 -3.40119 488.148 0.871549 489.516C7.87885 491.909 14.7153 494.474 21.7226 496.354C26.3371 497.551 30.9517 497.551 35.0535 493.79C37.7409 491.293 39.3886 487.874 39.6681 484.216C40.5226 478.061 38.9844 472.419 37.6171 466.777C34.8826 455.664 31.6353 444.893 28.7299 433.781C25.8676 423.479 23.8667 412.957 22.748 402.323C22.2353 397.365 21.8935 392.236 21.5516 387.278C21.3807 383.688 21.0389 379.926 21.2098 376.165C21.571 366.09 22.8872 356.072 25.1408 346.246C27.0208 338.382 29.4135 330.688 31.9771 323.166C36.9335 308.634 43.7699 295.127 49.5808 281.108C54.879 268.457 59.6645 255.463 64.6209 242.47C70.7737 226.399 77.61 210.841 86.6682 197.164C92.1062 188.878 97.9825 180.888 104.272 173.229C108.032 168.784 111.792 164.338 115.381 159.722C120.318 153.608 124.347 146.813 127.345 139.548C130.353 131.803 130.832 123.305 128.712 115.271C126.61 107.134 123.08 99.435 118.287 92.5325C110.767 80.5649 101.708 70.307 93.1628 59.7071C88.0355 53.3814 82.5664 47.3975 77.2682 41.2427C71.4573 34.575 65.6463 27.7367 59.6645 21.0691C45.479 4.99826 32.1481 -12.2694 18.4753 -29.0241C10.7333 -38.872 1.96772 -47.8695 -7.67391 -55.8656C-18.3161 -64.6985 -30.3222 -71.7432 -43.2231 -76.7238C-48.3629 -78.8278 -53.7696 -80.2085 -59.2886 -80.8268C-61.8522 -80.9978 -64.4159 -81.6816 -66.9795 -81.6816C-78.0919 -81.6371 -88.9325 -78.2409 -98.0851 -71.9367C-103.489 -68.2788 -108.426 -63.9726 -112.783 -59.1142C-117.815 -53.4425 -121.963 -47.0448 -125.089 -40.1368C-127.432 -34.7772 -128.82 -29.0492 -129.191 -23.2114C-130.045 -11.9276 -127.482 -1.49863 -124.405 8.9303C-120.431 21.4705 -115.81 33.7967 -110.561 45.8591C-107.827 52.6978 -104.922 59.5361 -102.187 66.5457C-99.125 74.0636 -97.0011 81.9303 -95.8633 89.968C-94.7526 99.1725 -95.9266 108.509 -99.2815 117.152C-103.212 127.752 -108.681 136.984 -113.98 146.387C-120.816 158.354 -127.823 170.322 -135.002 182.119C-138.932 188.445 -143.205 194.428 -147.478 200.412C-156.219 212.585 -166.633 223.463 -178.413 232.725C-183.882 237.17 -189.693 240.931 -195.333 245.034C-195.859 245.542 -196.432 245.999 -197.042 246.402" stroke="#BFC9D1" stroke-linecap="round" stroke-linejoin="round"/>
<path d="M81.0337 -325.978C83.4265 -319.652 85.9901 -313.326 88.212 -307C92.8132 -295.072 96.8062 -282.918 100.176 -270.584C102.397 -261.352 104.107 -251.949 105.474 -242.546C107.183 -230.066 108.721 -217.585 110.943 -205.447C113.165 -192.795 117.608 -181.169 125.47 -172.108C130.621 -165.996 137.457 -161.537 145.125 -159.286C152.474 -157.063 159.994 -157.405 167.514 -157.576C171.65 -157.952 175.76 -158.58 179.82 -159.456C183.067 -159.969 186.485 -160.311 189.732 -160.824C192.98 -161.337 196.569 -162.021 199.816 -162.534C201.283 -162.845 202.767 -163.074 204.26 -163.218C210.173 -163.672 216.108 -163.786 222.034 -163.56C232.155 -162.842 241.869 -159.287 250.063 -153.302C259.135 -147.02 266.009 -138.051 269.718 -127.657C271.691 -122.491 272.41 -116.93 271.816 -111.431C271.221 -105.933 269.331 -100.654 266.3 -96.0283C261.002 -87.822 253.994 -82.522 246.645 -78.0769C238.619 -73.0583 230.01 -69.0393 221.009 -66.1093C214.001 -63.7158 206.994 -61.6641 199.987 -59.6125C193.663 -57.9029 187.169 -56.3641 180.845 -54.8254C173.838 -53.1157 166.83 -51.4063 159.823 -49.5257C153.028 -47.8423 146.636 -44.8196 141.023 -40.6351C135.265 -36.2263 131.364 -29.8232 130.085 -22.6837C129.054 -16.586 129.405 -10.3347 131.11 -4.39044C134.056 6.67616 138.789 17.1866 145.125 26.7253C153.841 40.7445 164.096 52.7119 174.179 65.0215C183.054 75.44 191.111 86.5291 198.278 98.1891C205.025 109.294 209.552 121.603 211.609 134.434C214.475 154.001 211.127 173.974 202.038 191.536C196.91 201.452 191.1 211.026 185.46 220.601C177.756 233.087 172.047 246.701 168.539 260.949C166.489 269.668 165.121 278.729 163.583 287.619C162.387 293.774 161.532 299.929 160.165 306.083C158.337 314.184 155.88 322.13 152.816 329.848C148.672 339.479 143.935 348.843 138.63 357.886C135.307 363.259 132.612 368.995 130.598 374.983C128.888 380.967 128.547 386.951 132.478 392.251C134.761 395.519 138.168 397.832 142.048 398.747C147.421 400.368 153.096 400.718 158.627 399.773C161.004 399.432 163.403 399.261 165.805 399.26C169.907 398.918 173.838 398.234 177.94 397.893L183.067 397.38C187.169 397.038 191.441 396.866 195.543 396.354C199.303 396.012 202.892 395.328 206.652 394.986C209.9 394.644 213.318 394.473 216.565 393.96C220.838 393.276 225.281 392.422 229.554 391.396C238.322 389.179 246.645 385.478 254.165 380.454C260.686 375.853 266.804 370.705 272.453 365.067C283.22 354.638 293.987 343.867 305.609 334.635C316.035 326.258 326.631 318.393 336.885 309.845C347.824 300.784 358.078 290.526 368.333 280.439C373.802 274.968 379.613 269.839 385.082 264.539" stroke="#BFC9D1" stroke-linecap="round" stroke-linejoin="round"/>
<path d="M48.2132 -325.978C49.5805 -321.532 50.9478 -317.087 52.486 -312.813C56.6584 -300.792 59.8031 -288.438 61.886 -275.884C62.7154 -270.798 63.1156 -265.651 63.0823 -260.497C62.9114 -251.607 62.0569 -242.888 58.6387 -234.853C55.1074 -225.254 47.9169 -217.446 38.6423 -213.14C31.3102 -210.113 23.6959 -207.823 15.9113 -206.301C2.6444 -203.441 -9.98456 -198.167 -21.347 -190.743C-27.8764 -186.425 -33.797 -181.25 -38.9507 -175.356C-41.2178 -172.622 -43.1672 -169.64 -44.7616 -166.466C-46.0818 -163.957 -46.7573 -161.159 -46.7275 -158.324C-46.6977 -155.488 -45.9634 -152.705 -44.5908 -150.224C-42.2069 -145.689 -39.1532 -141.539 -35.5325 -137.915C-27.5175 -130.06 -18.5622 -123.226 -8.87061 -117.57C-0.666943 -112.783 7.70763 -108.68 15.9113 -103.722C24.4568 -98.5928 33.0022 -93.2926 40.0095 -85.0862C46.452 -77.2732 51.7467 -68.5805 55.7332 -59.2706C60.3478 -49.5255 64.6205 -39.6094 69.0642 -29.6934C74.578 -17.6885 81.0359 -6.14064 88.377 4.84167C92.9915 11.8513 97.9479 18.8611 102.904 25.5287C109.228 33.9061 115.552 42.2834 122.217 50.3188C129.737 59.38 137.257 68.27 144.948 76.9892C152.862 85.8451 159.955 95.4017 166.141 105.541C170.97 113.419 174.328 122.108 176.054 131.186C177.422 138.837 177.248 146.684 175.541 154.266C173.309 163.656 169.306 172.534 163.748 180.424C159.646 186.749 155.032 192.391 150.588 198.546C143.223 208.158 136.812 218.464 131.446 229.32C127.965 236.823 125.107 244.6 122.901 252.572C119.824 263.343 117.09 274.284 113.843 284.884C110.322 296.206 105.322 307.013 98.9733 317.026C92.4788 327.284 85.8133 337.371 79.4896 347.8C73.7406 357.186 69.7988 367.565 67.8678 378.402C67.1592 382.531 66.7025 386.699 66.5005 390.883C66.0467 396.44 66.4502 402.033 67.6969 407.467C68.6783 412.411 70.0499 417.271 71.7987 421.999C74.5211 428.924 78.3925 435.34 83.2497 440.976C89.791 448.875 98.3577 454.844 108.032 458.243C112.363 459.878 116.913 460.858 121.533 461.15C125.91 461.518 130.304 461.632 134.693 461.492C140.334 461.15 145.803 460.466 151.272 459.611C157.254 458.756 163.235 457.56 169.217 456.876C173.49 456.363 177.763 456.021 182.035 455.85C190.923 455.508 199.81 455.337 208.697 455.337C218.439 455.508 228.352 456.021 238.094 456.192C244.575 456.076 251.012 455.098 257.236 453.286C263.395 451.679 269.273 449.142 274.669 445.763C280.42 442.229 285.654 437.913 290.221 432.941C298.254 424.222 305.09 414.135 311.927 403.877C321.417 389.126 332.922 375.775 346.109 364.212C355.851 355.835 365.592 347.799 375.334 339.422C378.582 336.687 381.658 333.78 384.734 331.045" stroke="#BFC9D1" stroke-linecap="round" stroke-linejoin="round"/>
<path d="M55.3973 -325.978C59.4991 -313.497 63.601 -301.187 67.361 -288.536C69.8236 -280.172 71.427 -271.58 72.1465 -262.891C72.6592 -255.71 72.3174 -248.53 72.1465 -241.349C71.8743 -235.33 70.8992 -229.362 69.241 -223.569C67.3264 -215.69 63.9019 -208.259 59.1573 -201.685C54.5853 -195.555 47.9817 -191.252 40.5282 -189.547C34.8882 -188.179 29.0772 -187.495 23.2663 -186.64C14.5499 -185.102 6.00446 -182.879 -2.02829 -177.75C-6.10813 -175.177 -9.50832 -171.658 -11.9411 -167.492C-16.0429 -160.312 -15.872 -153.644 -11.5992 -146.463C-8.48839 -141.522 -4.27676 -137.367 0.706216 -134.325C8.73897 -128.854 17.4554 -125.605 26.3427 -122.357C34.2045 -119.451 41.8955 -116.715 48.9028 -111.244C54.7593 -106.453 59.3392 -100.285 62.2337 -93.2927C66.1646 -84.4025 68.0446 -74.6576 70.4374 -65.2545C73.001 -55.1675 75.3937 -44.9095 78.8119 -35.3354C85.0164 -18.0948 93.4022 -1.71991 103.765 13.3899C107.696 19.2027 111.627 24.8446 115.899 30.4864C120.514 36.6412 125.128 42.7959 130.085 48.7797C136.408 56.4732 143.074 63.8251 149.569 71.3476C159.481 83.1442 169.565 94.9407 176.914 109.644C180.637 116.886 183.176 124.678 184.434 132.724C185.968 143.066 184.971 153.626 181.529 163.498C178.249 172.357 173.825 180.749 168.369 188.459C161.361 198.717 154.012 208.975 147.176 219.404C141.174 229.057 136.625 239.541 133.674 250.52C130.598 261.29 127.863 272.232 125.128 283.174C121.506 297.147 115.617 310.431 107.696 322.496C101.372 332.412 94.7065 341.987 88.3829 352.074C83.2451 360.318 79.6002 369.405 77.6155 378.915C73.8555 397.892 77.1028 414.818 87.8701 429.35C93.0162 436.364 99.911 441.905 107.867 445.421C111.834 447.365 116.117 448.581 120.514 449.011C125.216 449.636 129.957 449.922 134.699 449.866C139.336 449.664 143.957 449.208 148.543 448.498C152.474 447.985 156.405 447.643 160.165 447.13C163.925 446.617 167.514 445.763 171.274 445.25C174.18 444.737 177.085 444.566 179.99 444.224C197.423 442.514 214.856 443.711 232.46 443.199C242.221 443.07 251.884 441.218 261.002 437.727C270.95 433.394 279.777 426.845 286.809 418.579C293.379 410.795 299.485 402.632 305.096 394.131C314.061 381.016 324.625 369.071 336.544 358.57C345.602 350.877 354.66 343.183 363.718 335.319C370.726 329.164 377.562 322.496 384.398 316.171C384.569 316 384.911 315.829 385.082 315.658" stroke="#BFC9D1" stroke-linecap="round" stroke-linejoin="round"/>
<path d="M-197.207 468.144C-196.047 468.838 -194.849 469.466 -193.618 470.025C-189.175 471.905 -184.56 473.786 -180.116 475.325C-174.358 477.483 -168.48 479.31 -162.513 480.796C-158.527 481.646 -154.45 481.99 -150.378 481.822C-144.011 481.245 -137.678 480.332 -131.407 479.086C-122.178 477.205 -112.949 474.983 -103.72 472.931C-96.7125 471.392 -89.5344 469.683 -82.5271 468.144C-79.2798 467.461 -75.8616 467.118 -72.6143 466.606C-68.1706 465.922 -63.8979 465.238 -59.4542 464.725C-57.5742 464.554 -55.6943 464.212 -53.9852 464.212C-44.9269 464.041 -35.6978 463.87 -26.6396 463.699C-22.7087 463.699 -18.6069 464.383 -14.6759 464.041C-9.71955 463.699 -4.93408 463.528 -0.14861 461.477C6.34596 458.57 9.93508 453.099 10.4478 444.722C10.7896 439.593 10.9606 434.464 10.7897 429.335C10.6187 424.206 9.76416 419.077 9.42234 413.948C9.08053 410.016 9.08053 406.084 8.5678 402.151C7.74228 392.43 7.51398 382.666 7.88417 372.916C8.05005 366.51 8.56353 360.118 9.42235 353.768C10.7391 343.868 12.8539 334.092 15.746 324.533C18.4806 315.301 21.557 306.069 24.4624 297.007C27.8806 286.749 31.4697 276.662 34.8879 266.575C37.7933 258.198 40.6988 249.821 43.4334 241.443C49.6251 223.113 58.7445 205.908 70.4371 190.495C74.1971 185.537 77.9571 180.409 81.888 175.622C87.5281 168.783 93.5099 162.286 98.979 155.447C104.102 149.434 108.202 142.618 111.114 135.273C112.941 130.776 113.758 125.932 113.506 121.084C113.124 116.602 112.206 112.182 110.772 107.919C107.586 99.0568 103.03 90.7496 97.2699 83.2999C92.6554 76.9742 88.0408 70.4776 83.0844 64.6648C76.0771 56.2874 68.8989 48.252 61.7207 40.2166C56.9353 34.7456 52.1498 29.4454 47.3643 24.1455C40.1861 16.1101 33.0079 8.07478 25.8297 -0.131585C23.2661 -2.86704 21.0443 -5.94443 18.4806 -8.67988C7.88421 -20.9894 -2.54128 -33.1279 -14.8468 -42.7019C-25.1014 -50.9083 -36.2105 -57.405 -48.1742 -60.6534C-52.1051 -61.6792 -56.2069 -62.1922 -60.1378 -62.876C-66.506 -63.697 -72.9783 -62.8732 -78.9379 -60.4827C-84.4651 -58.2992 -89.4726 -54.9789 -93.6362 -50.7373C-98.4265 -46.056 -102.157 -40.4008 -104.574 -34.1536C-107.646 -26.1559 -108.703 -17.5247 -107.651 -9.02173C-106.337 3.71012 -102.748 16.1023 -97.0544 27.5648C-90.3889 41.0711 -83.2107 54.2356 -76.2034 67.4C-72.5829 73.9301 -69.7707 80.877 -67.8288 88.087C-66.7609 92.3427 -66.131 96.6963 -65.9488 101.08C-65.7163 109.163 -67.7278 117.152 -71.7597 124.161C-75.6508 130.722 -80.2971 136.804 -85.6034 142.283C-94.6315 151.963 -103.132 162.122 -111.069 172.715C-118.076 182.118 -124.571 192.376 -131.407 201.95C-139.953 213.747 -148.84 225.031 -159.095 234.434C-165.772 240.666 -172.914 246.382 -180.458 251.53C-185.757 255.121 -191.226 258.369 -196.524 261.959C-197.022 262.371 -197.479 262.829 -197.891 263.327" stroke="#BFC9D1" stroke-linecap="round" stroke-linejoin="round"/>
<path d="M87.6934 -325.629C88.0352 -324.945 88.5479 -324.432 88.8897 -323.748C92.3079 -315.542 95.7261 -307.335 98.8025 -298.958C103.417 -286.136 108.032 -273.313 110.595 -259.465C112.817 -247.497 114.868 -235.359 117.09 -223.391C119.141 -212.449 121.704 -201.507 126.832 -191.933C132.814 -180.649 141.017 -173.811 151.272 -170.562C158.621 -168.169 166.141 -168.511 173.661 -168.682C178.533 -169.056 183.382 -169.684 188.188 -170.562C192.632 -171.246 196.905 -172.272 201.348 -172.956C204.766 -173.469 208.185 -173.64 211.432 -173.982C215.363 -174.153 219.294 -174.666 223.054 -174.495C232.003 -174.164 240.764 -171.827 248.69 -167.656C258.856 -162.196 267.583 -154.403 274.156 -144.918C279.271 -138.055 282.881 -130.19 284.752 -121.837C285.883 -116.818 285.935 -111.617 284.904 -106.576C283.872 -101.536 281.782 -96.7728 278.77 -92.6022C274.109 -85.9322 268.186 -80.2401 261.338 -75.8475C252.527 -69.8332 242.995 -64.9509 232.967 -61.3154C220.832 -56.8703 208.697 -52.596 196.392 -48.8348C185.625 -45.4155 174.686 -42.5092 164.261 -37.8931C158.332 -35.5304 153.057 -31.7777 148.879 -26.9511C145.201 -22.5356 142.937 -17.1143 142.384 -11.3934C141.53 -1.64836 144.094 7.07107 147.683 15.2774C151.549 24.201 156.546 32.5899 162.552 40.2382C167.508 46.7349 172.294 53.2319 177.25 59.7286C180.326 63.8318 183.915 67.4219 186.992 71.5251C194.512 81.4411 202.032 91.5281 207.843 103.154C213.261 113.544 216.955 124.746 218.781 136.321C219.78 142.423 220.181 148.606 219.977 154.785C219.567 165.471 217.491 176.027 213.825 186.072C209.21 198.895 202.716 210.008 196.392 221.633C192.632 228.472 189.385 235.481 185.966 242.491C182.082 251.224 179.326 260.416 177.763 269.846C176.395 277.197 175.541 284.549 174.515 291.9C172.465 306.433 170.414 320.964 166.995 335.154C165.457 341.822 164.09 348.661 162.723 355.5C160.843 365.587 163.919 372.425 171.61 375.844C175.646 377.475 179.915 378.456 184.257 378.751C188.109 379.284 191.991 379.57 195.879 379.606C202.374 379.435 208.697 378.751 215.192 378.238C221.216 377.767 227.143 376.443 232.796 374.306C240.119 371.809 247.031 368.237 253.305 363.706C265.098 355.5 275.694 344.9 287.145 335.839C298.596 326.777 310.047 318.058 321.498 309.168C333.148 300.185 344.222 290.477 354.654 280.104C364.396 270.358 373.796 260.443 384.051 251.723C384.222 251.552 384.563 251.381 384.734 251.21" stroke="#BFC9D1" stroke-linecap="round" stroke-linejoin="round"/>
<path d="M-197.211 443.697C-197.175 443.929 -197.118 444.158 -197.041 444.38C-188.495 445.919 -180.462 448.996 -172.259 451.561C-165.593 453.613 -159.099 455.664 -152.433 457.203C-148.267 458.062 -144.037 458.577 -139.786 458.742C-136.901 459.168 -133.984 459.339 -131.069 459.254C-126.113 458.912 -121.328 458.4 -116.371 457.887C-113.466 457.545 -110.56 457.374 -107.655 456.861C-104.407 456.348 -101.16 455.835 -97.9129 455.151C-93.982 454.468 -90.051 453.784 -86.1201 452.929C-83.3856 452.416 -80.651 451.732 -77.9165 451.219C-73.9855 450.535 -70.0546 449.851 -66.1237 448.996C-61.5091 448.142 -56.8946 447.116 -52.1091 446.09C-47.3236 445.064 -42.7091 444.381 -38.0945 443.184C-32.1127 441.645 -26.3017 439.764 -21.0035 435.49C-15.6001 430.718 -12.0836 424.168 -11.0908 417.026C-10.063 411.558 -9.54804 406.006 -9.5526 400.442C-9.5526 393.946 -9.38167 387.278 -9.21076 380.781C-9.03985 374.285 -8.69801 367.617 -8.01437 361.12C-6.77796 347.346 -4.49253 333.686 -1.17798 320.259C1.72748 308.463 4.97474 296.666 7.70929 284.698C10.4438 273.073 12.6657 261.276 15.2293 249.65C17.4511 240.076 19.5021 230.673 22.2366 221.441C25.0117 212.53 29.1638 204.107 34.5421 196.48C41.8912 185.88 50.7785 177.503 59.324 168.783C65.3059 162.629 71.1168 156.303 77.0986 150.148C82.4781 144.545 86.8699 138.07 90.0878 131C92.8123 124.889 93.7601 118.135 92.8223 111.51C91.7969 102.962 88.3787 95.952 84.6186 89.2843C78.9668 79.2123 72.202 69.8073 64.4513 61.246C55.2222 50.8171 45.4803 40.7299 36.0803 30.6429C27.3639 21.4107 18.8184 12.3495 10.102 3.28832C2.27072 -5.23127 -6.00125 -13.3347 -14.6799 -20.9888C-21.4779 -27.001 -29.1404 -31.9575 -37.4108 -35.692C-43.3219 -38.307 -49.7525 -39.5348 -56.2109 -39.282C-65.44 -38.2562 -73.3019 -33.9822 -77.5746 -22.6984C-78.935 -18.9087 -79.6849 -14.927 -79.7964 -10.9019C-79.7935 -2.77412 -78.2869 5.28322 -75.3528 12.8626C-71.251 24.4883 -65.0982 34.2332 -59.2873 44.3201C-54.6727 52.1846 -50.0582 60.0492 -45.9563 68.4265C-41.4014 77.6556 -38.2339 87.5066 -36.5563 97.6614C-35.0137 106.353 -35.3635 115.275 -37.5818 123.819C-39.708 131.561 -43.6983 138.664 -49.2036 144.506C-55.2877 150.429 -61.9267 155.754 -69.0291 160.406C-78.9419 167.416 -88.6838 174.596 -97.0584 184.342C-103.895 192.206 -110.56 200.412 -117.226 208.619C-121.669 214.089 -125.942 220.073 -130.386 225.544C-139.09 236.455 -149.14 246.221 -160.295 254.608C-167.302 259.737 -174.48 264.695 -181.659 269.482C-186.444 272.56 -191.4 275.124 -196.186 278.031C-196.684 278.442 -197.142 278.9 -197.553 279.398" stroke="#BFC9D1" stroke-linecap="round" stroke-linejoin="round"/>
<path d="M97.444 -325.978C100.862 -317.771 104.28 -309.565 107.699 -301.187C112.907 -289.065 117.136 -276.544 120.346 -263.746C122.568 -254.684 124.277 -245.452 126.157 -236.391C128.379 -225.791 130.771 -215.191 135.557 -205.617C140 -196.727 146.153 -190.231 154.015 -186.64C159.557 -184.193 165.561 -182.968 171.619 -183.05C178.101 -183.075 184.566 -183.705 190.932 -184.931C196.913 -186.127 202.895 -187.324 208.877 -188.179C213.75 -188.889 218.656 -189.345 223.575 -189.547C227.274 -189.803 230.986 -189.803 234.684 -189.547C240.799 -188.84 246.751 -187.106 252.288 -184.418C261.853 -179.325 270.422 -172.549 277.583 -164.415C285.676 -155.741 292.573 -146.024 298.092 -135.521C301.364 -129.401 303.506 -122.741 304.416 -115.86C305.238 -108.391 303.683 -100.852 299.972 -94.3187C295.016 -85.5994 288.008 -79.6155 280.83 -74.1446C272.707 -68.1626 263.935 -63.1156 254.681 -59.0995C241.35 -52.9447 227.677 -47.9866 214.004 -43.1996C205.288 -40.1222 196.572 -36.8742 188.026 -33.2839C181.103 -30.682 174.64 -26.9877 168.884 -22.3418C164.142 -18.5819 160.679 -13.4461 158.971 -7.63902C157.939 -3.97281 157.591 -0.147425 157.946 3.6449C159.313 15.4416 164.099 25.0157 169.91 34.0769C173.841 40.2317 178.284 46.0444 182.557 51.8572C186.488 57.1572 190.59 62.2863 194.521 67.4153C202.519 77.5796 209.664 88.387 215.884 99.7277C221.936 111.072 226.147 123.306 228.361 135.972C229.044 139.905 229.386 143.837 229.728 147.769C230.098 150.946 230.212 154.148 230.07 157.343C229.781 168.417 227.998 179.401 224.772 189.998C220.841 203.162 214.859 214.788 209.048 226.755C203.75 237.697 198.793 248.81 195.888 261.291C194.363 267.533 193.278 273.874 192.641 280.268C192.299 285.226 191.786 290.355 191.444 295.313C191.102 303.177 190.932 311.042 191.102 318.906C191.102 325.655 192.438 332.337 195.033 338.567C196.46 341.858 198.643 344.765 201.405 347.053C204.167 349.34 207.43 350.944 210.928 351.732C215.102 352.865 219.459 353.156 223.746 352.587C228.106 351.967 232.398 350.937 236.564 349.509C243.1 347.266 249.307 344.161 255.023 340.277C260.834 336.515 266.474 332.242 272.285 328.138C280.83 321.984 289.376 315.658 297.921 309.674C313.816 298.732 329.539 287.278 343.725 273.087C352.27 264.71 360.645 255.991 369.19 247.784C374.318 242.826 379.787 238.381 385.256 233.765" stroke="#BFC9D1" stroke-linecap="round" stroke-linejoin="round"/>
<path d="M60.6925 -325.978C63.9398 -316.062 67.358 -306.316 70.6053 -296.4C73.9894 -285.958 76.5607 -275.269 78.2963 -264.43C79.7495 -255.332 80.2649 -246.108 79.8344 -236.904C79.4926 -230.749 78.809 -224.766 78.1253 -218.611C76.2453 -203.224 71.9725 -188.692 69.0671 -173.647C67.0148 -164.368 68.1592 -154.668 72.3144 -146.121C75.9035 -138.77 79.4926 -131.247 83.0817 -123.725C87.06 -115.246 88.7679 -105.879 88.0381 -96.5414C87.5253 -89.3608 85.9871 -82.18 85.4744 -74.9995C85.1326 -68.3932 85.1326 -61.7735 85.4744 -55.1673C85.8912 -47.8783 87.0946 -40.656 89.0635 -33.6258C90.7745 -26.8327 93.0616 -20.1978 95.8999 -13.7936C100.926 -2.46442 106.931 8.40461 113.845 18.6899C116.58 22.7931 119.315 26.8961 122.22 30.8283C126.322 36.2992 130.424 41.9411 134.867 47.07C141.875 55.4474 149.224 63.6539 156.231 72.0312C165.118 82.9731 174.347 93.7439 181.355 107.079C186.041 115.558 189.112 124.833 190.413 134.434C191.804 145.074 190.752 155.891 187.337 166.062C183.725 175.697 178.901 184.832 172.98 193.246C166.998 201.965 160.846 210.514 155.206 219.404C149.055 229.021 144.388 239.511 141.362 250.52C138.115 262.316 135.551 274.455 132.475 286.252C128.804 300.804 122.677 314.622 114.358 327.112C108.376 336.174 102.053 345.064 96.2417 354.296C90.8239 362.495 87.0509 371.669 85.1326 381.308C81.8853 399.773 85.6453 415.502 97.4381 427.812C103.749 434.439 112.013 438.872 121.024 440.463C126.576 441.681 132.268 442.141 137.944 441.831C143.071 441.489 148.198 440.634 153.326 439.95C158.111 439.266 162.726 438.753 167.511 438.069C171.271 437.557 175.202 436.702 178.962 436.189C182.475 435.669 186.011 435.327 189.558 435.163C198.787 434.821 207.846 434.479 217.075 434.137C221.348 433.966 225.449 433.966 229.722 433.624C234.337 433.111 238.951 432.427 243.737 431.743C249.112 430.943 254.348 429.389 259.29 427.127C267.926 423.23 275.621 417.515 281.85 410.373C286.464 405.073 291.079 399.431 295.351 393.789C299.112 389.173 302.359 384.044 306.119 379.428C314.604 368.836 324.106 359.102 334.49 350.364C348.163 339.08 361.664 327.796 374.654 315.316C378.243 311.897 382.003 308.306 385.592 304.716" stroke="#BFC9D1" stroke-linecap="round" stroke-linejoin="round"/>
<path d="M385.256 395.657C377.361 400.921 370.18 407.185 363.892 414.293C358.124 420.874 352.813 427.843 347.998 435.151C341.916 444.476 335.296 453.438 328.172 461.992C320.784 470.434 312.406 477.953 303.219 484.389C295.265 489.926 286.725 494.57 277.754 498.237C271.119 501.036 264.178 503.045 257.074 504.221C252.288 504.904 247.503 505.588 242.717 506.101C239.299 506.443 235.71 506.443 232.121 506.614C223.404 506.785 214.517 506.785 205.801 507.127C201.699 507.298 197.597 508.153 193.324 508.495C188.188 509.096 183.173 510.48 178.455 512.598C170.081 516.188 163.415 522.856 159.142 532.772C156.769 538.934 155.162 545.366 154.357 551.92C152.306 564.059 149.913 576.027 144.957 586.968C140.993 595.999 135.101 604.051 127.695 610.561C122.34 615.172 116.625 619.345 110.604 623.042C103.939 626.974 97.1022 630.735 90.2658 634.668L71.2948 645.952C67.3943 648.697 62.9743 650.617 58.3056 651.593C56.1281 651.78 53.941 651.366 51.982 650.396C47.4058 648.45 42.9537 646.223 38.651 643.729C30.272 638.743 21.2415 634.946 11.8182 632.445C6.52 631.077 1.0509 629.71 -4.2473 628.684C-9.20368 627.829 -14.16 627.316 -19.1164 626.632C-25.0982 625.778 -30.9092 624.922 -36.8911 624.239C-40.3093 623.726 -43.8983 623.726 -47.4874 623.213C-51.4183 622.7 -55.3492 622.016 -59.2802 621.332C-62.3565 620.819 -65.2621 620.478 -68.3385 619.794C-73.2271 619.072 -78.0757 618.102 -82.8657 616.887C-90.0439 614.836 -97.0512 612.442 -104.059 609.706C-117.052 604.337 -128.846 596.433 -138.753 586.455C-144.564 580.813 -150.204 574.83 -156.015 569.188C-159.261 565.575 -163.471 562.965 -168.15 561.665C-172.081 560.81 -175.328 562.178 -178.746 563.888C-183.361 566.452 -186.95 570.556 -190.71 574.488C-192.419 576.368 -194.128 578.249 -195.666 580.3C-196.179 580.984 -196.521 581.839 -197.033 582.694" stroke="#BFC9D1" stroke-linecap="round" stroke-linejoin="round"/>
<path d="M385.256 414.295C376.102 421.675 368.095 430.375 361.499 440.111C355.005 449.343 348.51 458.575 341.503 467.465C333.969 476.783 325.233 485.062 315.525 492.084C307.867 497.816 299.75 502.905 291.256 507.3C282.402 511.972 272.98 515.478 263.226 517.729C257.245 518.926 251.092 519.781 245.11 520.636C241.179 521.149 237.248 521.319 233.317 521.661C227.848 522.174 222.208 522.516 216.739 523.2C209.649 523.776 202.681 525.389 196.059 527.987C186.317 532.09 178.968 539.955 174.524 551.58C171.448 559.787 168.713 568.164 165.808 576.541C162.333 587.75 157.268 598.401 150.768 608.17C144.335 617.209 136.751 625.371 128.208 632.447C120.859 638.944 113.168 645.099 106.844 653.305C101.799 659.668 98.6054 667.299 97.6149 675.359C97.1876 679.68 97.1876 684.032 97.6149 688.353C97.9567 693.14 98.6403 697.927 99.324 702.714" stroke="#BFC9D1" stroke-linecap="round" stroke-linejoin="round"/>
<path d="M384.908 440.455C381.832 444.216 378.755 447.978 376.021 452.081C370.21 460.287 364.912 469.006 358.93 476.871C352.264 485.932 343.89 492.6 335.515 498.755C329.021 503.371 322.355 507.816 315.69 511.919C305.129 518.78 293.906 524.565 282.191 529.187C275.984 531.706 269.502 533.485 262.879 534.486C257.068 535.341 251.428 536.196 245.617 536.88C241.344 537.393 237.242 537.735 232.97 538.419C225.246 539.167 217.658 540.95 210.409 543.719C200.838 547.822 193.148 555.173 187.678 565.773C184.602 571.928 181.697 578.425 178.791 584.751C173.151 597.231 167.34 609.37 159.478 619.799C153.827 627.18 147.659 634.15 141.02 640.656C135.722 646.127 130.424 651.598 125.638 657.582C119.54 665.042 115.425 673.922 113.675 683.398C112.528 689.828 112.07 696.361 112.307 702.888" stroke="#BFC9D1" stroke-linecap="round" stroke-linejoin="round"/>
<path d="M-15.5389 25.3467C-20.6662 27.9112 -21.008 31.8434 -20.1534 37.3143C-18.6152 47.0594 -15.5389 56.2913 -12.9752 65.6944C-10.4116 75.0975 -8.18974 84.1588 -5.797 93.5619C-3.06245 104.846 -0.669734 116.13 2.40664 127.413C4.28665 134.594 7.70484 140.749 13.5158 143.997C17.0417 145.995 21.186 146.604 25.1377 145.707C27.9923 145.228 30.796 144.484 33.5122 143.484C41.3335 140.678 48.4079 136.116 54.1923 130.148C57.6346 126.664 60.3632 122.541 62.225 118.01C64.9532 111.001 65.1347 103.256 62.7378 96.1264C60.3744 89.0407 56.8513 82.3966 52.3123 76.4653C41.545 61.9332 28.7267 50.8206 15.2249 40.7336C8.29908 35.3055 0.719901 30.7677 -7.33518 27.2271C-9.79476 26.0755 -12.4815 25.4912 -15.197 25.5174" stroke="#BFC9D1" stroke-linecap="round" stroke-linejoin="round"/>
</g>
<defs>
<clipPath id="clip0_1147_31263">
<rect width="442" height="316" fill="white" transform="translate(316) rotate(90)"/>
</clipPath>
</defs>
</svg>
