<svg width="104" height="104" viewBox="0 0 104 104" fill="none" xmlns="http://www.w3.org/2000/svg">
<g clip-path="url(#clip0_2139_41126)">
<path d="M368.391 395.759C371.338 391.68 374.157 387.602 377.232 383.655C381.529 378.374 386.434 373.647 391.839 369.578C396.965 365.631 402.346 361.947 407.599 358.263C419.003 350.369 429.51 341.554 437.07 330.898C441.529 324.697 445.189 317.931 447.961 310.768C449.698 305.973 451.069 301.047 452.062 296.033C452.706 292.294 453.091 288.513 453.215 284.719C453.471 281.693 453.599 278.535 453.599 275.509C453.599 271.168 453.343 266.826 453.215 262.353C453.086 257.617 452.702 252.88 452.958 248.012C453.343 240.513 454.368 233.014 457.443 225.91C459.75 219.992 463.608 214.846 468.59 211.043C472.776 208.03 477.708 206.297 482.813 206.043C487.81 205.649 492.935 205.517 497.933 205.122C503.637 204.787 509.256 203.544 514.59 201.439C517.136 200.406 519.582 199.129 521.894 197.623C527.712 193.717 532.332 188.197 535.219 181.704C537.52 176.96 538.994 171.84 539.575 166.574C539.98 163.742 540.194 160.885 540.216 158.022C540.088 154.47 539.576 151.05 539.191 147.629C538.807 144.471 538.294 141.314 538.166 138.025C537.91 133.42 537.782 128.684 537.782 124.079C537.935 121.643 538.278 119.223 538.807 116.843C539.063 114.869 539.319 112.764 539.575 110.791C539.96 108.423 540.344 105.923 540.601 103.555L540.985 100.003C541.113 98.0292 541.113 96.0558 541.37 94.0823C542.395 85.3991 542.138 76.5843 542.01 67.901C541.859 64.0702 541.517 60.2498 540.985 56.4549C540.729 54.3499 540.601 52.2449 540.216 50.1399C539.832 47.2455 539.448 44.2195 538.807 41.325C537.534 35.3635 535.688 29.5462 533.297 23.9586C529.918 16.1124 525.038 9.04341 518.946 3.17144C514.143 -1.39155 508.59 -5.04416 502.545 -7.61684C497.997 -9.68322 493.029 -10.5861 488.066 -10.2481C483.638 -9.97299 479.356 -8.52231 475.638 -6.03805C467.694 -0.775484 462.568 6.06589 458.468 13.565C455.472 19.0246 453.066 24.8038 451.293 30.7999C450.138 35.1257 449.24 39.5192 448.602 43.9563C447.624 49.1549 447.279 54.4582 447.577 59.744C447.729 62.7023 448.071 65.647 448.602 68.5588C449.173 72.0664 449.943 75.5368 450.908 78.9524C453.329 86.7542 456.917 94.1221 461.543 100.792C465.131 106.055 468.975 111.186 472.691 116.317C475.51 120.264 478.2 124.21 479.225 128.684C480.891 135.393 479.225 141.445 473.331 146.708C471.254 148.613 468.809 150.047 466.156 150.918C463.464 151.777 460.627 152.046 457.827 151.707C452.154 150.778 446.687 148.818 441.683 145.919C431.688 140.788 421.822 135.393 411.059 131.183C402.27 127.792 393.169 125.323 383.895 123.816C376.99 122.697 369.993 122.3 363.01 122.632C357.066 122.959 351.154 123.75 345.327 125C337.366 126.855 329.599 129.499 322.135 132.894C316.37 135.525 310.732 138.288 305.222 141.182C295.356 146.182 285.49 150.918 274.983 154.996C266.654 158.154 258.07 161.18 249.869 164.601C242.225 167.754 234.924 171.723 228.087 176.441C219.117 182.493 211.429 189.466 203.101 196.045C198.559 199.802 193.509 202.86 188.11 205.122C184.112 206.724 179.842 207.485 175.552 207.359C170.388 207.094 165.331 205.751 160.689 203.412C154.562 200.309 148.765 196.561 143.391 192.229C140.188 189.729 136.985 187.098 133.91 184.467C126.734 178.283 119.687 172.1 112.64 165.916C108.796 162.496 104.824 159.075 100.98 155.786C93.2918 149.208 85.6037 142.629 77.7877 136.183C68.5622 128.684 58.9522 121.579 49.8548 114.08C41.8588 107.528 34.787 99.8677 28.8413 91.3194C23.5762 83.7099 19.1904 75.4978 15.7719 66.8485C13.9525 62.4845 12.7445 57.8778 12.1841 53.1658C11.7798 50.422 11.5657 47.6522 11.5435 44.8773C11.709 40.5627 12.5303 36.3012 13.9778 32.2471C17.5655 22.1166 23.9723 13.3018 32.0446 5.27644C37.2028 -0.0559045 43.2305 -4.41956 49.8548 -7.61684C54.6172 -9.81319 59.7558 -11.0205 64.9745 -11.1691C71.4633 -11.1908 77.912 -10.1242 84.066 -8.01151C91.7539 -5.51179 99.1858 -2.88051 106.746 -0.117663C115.715 3.17144 124.684 6.72364 134.038 9.22336C138.572 10.4604 143.202 11.2967 147.876 11.7231C157.614 12.7756 166.711 10.9338 175.552 7.64465C185.96 3.73216 196.067 -0.97341 205.791 -6.43273C212.765 -10.1751 219.486 -14.3947 225.908 -19.0629C234.421 -25.1696 242.092 -32.4272 248.716 -40.6394C251.535 -44.0601 253.969 -47.7439 256.66 -51.4277C257.067 -51.9328 257.541 -52.3758 258.069 -52.7433" stroke="#DFE4E8" stroke-linecap="round" stroke-linejoin="round"/>
<path d="M335.589 395.759C338.024 392.601 340.33 389.575 342.765 386.549C348.146 379.971 353.4 373.393 359.038 366.946C364.353 360.898 370.378 355.551 376.976 351.027C383.383 346.554 389.917 342.212 396.196 337.608C405.806 330.766 413.878 322.741 419.26 313.137C422.184 307.982 424.302 302.388 425.538 296.56C426.512 292.336 426.986 288.007 426.948 283.666C426.948 282.088 427.332 280.64 427.204 279.062C427.076 274.72 426.819 270.378 426.563 265.905C426.307 262.484 426.051 258.932 425.922 255.512C425.666 250.381 425.538 245.25 425.538 239.987C425.666 236.435 426.179 232.883 426.563 229.33C426.948 226.304 427.204 223.278 427.588 220.384C427.973 217.753 428.485 215.121 428.87 212.622C429.126 210.648 429.638 208.675 429.766 206.701C430.235 202.597 430.449 198.466 430.407 194.334C430.023 182.099 425.41 170.916 415.544 161.443C409.45 155.585 402.316 150.984 394.53 147.892C389.127 145.657 383.424 144.281 377.617 143.814C374.641 143.442 371.645 143.266 368.648 143.287C361.492 143.531 354.41 144.861 347.634 147.234C337.127 150.786 328.158 156.444 319.188 162.101C310.219 167.758 301.122 173.81 290.615 177.626C286.002 179.336 281.133 180.915 276.392 182.362C267.295 185.125 258.198 187.624 249.613 191.308C243.293 193.953 237.277 197.306 231.674 201.307C225.909 205.517 220.271 210.122 214.505 214.332C208.995 218.41 203.613 222.489 196.822 225.383C191.663 227.655 186.112 228.837 180.499 228.86C174.885 228.882 169.325 227.745 164.149 225.515C159.782 223.604 155.581 221.316 151.592 218.674C147.831 216.301 144.235 213.663 140.829 210.78C136.088 206.833 131.731 202.754 127.119 198.676C125.453 197.229 123.915 195.781 122.249 194.466C112.255 186.046 102.389 177.494 92.1385 169.337C83.8807 162.645 75.1904 156.535 66.1276 151.05C55.7489 144.866 45.2423 138.814 34.9917 132.631C25.4669 126.91 17.2168 119.201 10.7746 110.002C5.90558 102.897 1.67716 95.398 -2.42306 88.0304C-7.29208 79.3472 -12.161 70.7955 -16.7738 62.1122C-18.6801 58.6174 -20.0624 54.8473 -20.874 50.9293C-22.051 45.1117 -21.1889 39.0543 -18.4396 33.8259C-14.7642 26.5322 -10.2935 19.6908 -5.11365 13.4335C2.06175 4.35557 9.23714 -4.72232 16.6688 -13.6687C21.2816 -19.1944 26.1504 -24.5885 31.2757 -29.8511C35.806 -34.5471 41.2092 -38.2606 47.1643 -40.7709C50.6794 -42.2178 54.4019 -43.0623 58.1835 -43.2706C65.5575 -43.6478 72.9186 -42.2981 79.7097 -39.3237C88.9352 -35.6399 98.0326 -31.8246 107.258 -28.0092C116.353 -24.3235 125.802 -21.6335 135.447 -19.9837C142.403 -18.9331 149.449 -18.6684 156.461 -19.1944C164.78 -19.7393 172.979 -21.5117 180.806 -24.457C188.072 -27.02 195.069 -30.3257 201.691 -34.3243C209.576 -39.1205 216.814 -44.9593 223.218 -51.6908C223.729 -52.1462 224.288 -52.5432 224.883 -52.8748" stroke="#DFE4E8" stroke-linecap="round" stroke-linejoin="round"/>
<path d="M356.218 395.633C361.707 386.997 368.11 379.01 375.31 371.82C380.34 366.944 385.786 362.541 391.583 358.664C397.22 354.849 402.602 350.77 408.112 346.955C415.032 342.043 421.28 336.202 426.691 329.588C432.395 322.726 436.707 314.765 439.376 306.17C440.529 302.091 441.682 298.013 442.579 293.934C443.092 291.171 443.092 288.409 443.348 285.646C443.476 283.541 443.733 281.304 443.733 279.199C443.733 276.173 443.604 273.147 443.348 270.121C443.22 266.964 442.964 263.675 442.579 260.517C441.918 254.314 441.704 248.07 441.938 241.835C442.067 238.414 442.579 234.994 442.964 231.573C443.861 223.284 446.551 215.259 448.858 207.234C450.139 203.155 451.292 199.077 452.189 194.867C453.759 188.161 452.749 181.092 449.37 175.132C445.835 169.244 441.523 163.887 436.557 159.213C429.731 152.508 422.008 146.837 413.621 142.372C403.665 136.714 392.75 133.053 381.46 131.584C378.257 131.189 375.053 130.795 371.722 130.663C368.351 130.466 364.971 130.466 361.6 130.663C356.947 131.185 352.327 131.976 347.761 133.031C338.729 135.197 330.023 138.605 321.879 143.162L298.815 155.792C290.669 160.149 282.182 163.802 273.445 166.712C265.501 169.475 257.3 172.237 249.612 175.263C241.491 178.456 233.821 182.748 226.805 188.025C220.783 192.63 214.888 197.366 208.994 201.971C204.615 205.576 199.942 208.789 195.028 211.575C189.239 214.732 182.744 216.274 176.193 216.048C172.815 215.895 169.484 215.184 166.327 213.943C159.495 211.537 153.122 207.931 147.491 203.287C143.263 199.998 139.034 196.84 135.062 193.419C128.527 187.894 122.249 182.105 115.842 176.448C114.049 174.869 112.127 173.158 110.205 171.58C107.13 168.948 104.054 166.317 100.979 163.817C96.4947 160.002 92.0098 156.055 87.2689 152.371C80.3498 146.977 73.1744 141.715 66.1271 136.452C60.7456 132.505 55.2361 128.69 49.9827 124.611C45.6262 121.322 41.2697 118.033 37.1694 114.481C31.3959 109.423 26.2721 103.631 21.9215 97.2459C18.9745 92.9043 16.1556 88.5626 13.593 83.9579C8.68268 75.6288 4.80852 66.7006 2.06108 57.382C0.594335 52.0388 0.0736117 46.4686 0.523555 40.9365C1.18331 35.0885 3.01559 29.4442 5.90504 24.3593C9.70946 17.278 14.2182 10.6204 19.3589 4.49317C23.749 -0.718251 28.4115 -5.68112 33.3255 -10.3736C37.4855 -14.3225 42.1392 -17.6851 47.1638 -20.3725C51.9502 -22.927 57.2735 -24.237 62.6676 -24.1878C69.6782 -24.1628 76.6255 -22.8253 83.1687 -20.2409C89.9597 -17.8727 96.6225 -15.2414 103.285 -12.7417C111.411 -9.5309 119.711 -6.80739 128.143 -4.58479C133.82 -3.0976 139.605 -2.08556 145.441 -1.55875C150.735 -1.18696 156.05 -1.275 161.329 -1.8219C171.708 -3.00597 181.19 -6.29506 190.415 -10.1104C200.325 -14.1811 209.777 -19.3422 218.604 -25.5034C226.409 -30.9184 233.476 -37.3782 239.618 -44.7119C241.54 -46.9485 243.334 -49.3166 245.256 -51.6847C245.574 -51.979 245.917 -52.2432 246.281 -52.4741" stroke="#DFE4E8" stroke-linecap="round" stroke-linejoin="round"/>
<path d="M344.43 395.633C349.427 389.055 354.424 382.609 359.549 376.03C365.666 368.444 372.732 361.72 380.563 356.033C386.201 351.823 392.351 348.007 398.117 343.929C406.958 337.745 414.902 331.035 420.924 322.878C428.408 312.635 432.857 300.393 433.738 287.619C433.866 283.015 434.122 278.541 433.994 273.937C433.994 270.516 433.609 267.227 433.353 263.806C433.097 260.649 432.712 257.623 432.712 254.465C432.456 248.939 432.328 243.414 432.328 238.02C432.48 234.887 432.822 231.767 433.353 228.678C433.737 225.258 434.25 221.837 434.763 218.416C435.275 215.522 435.916 212.496 436.3 209.602C436.685 206.707 437.325 203.813 437.582 200.918C437.838 197.629 437.966 194.209 437.966 190.92C437.8 184.718 436.126 178.658 433.097 173.29C429.125 165.659 422.974 159.081 415.671 153.424C408.4 147.851 400.191 143.703 391.454 141.188C386.339 139.713 381.109 138.7 375.822 138.162C365.289 137.27 354.691 138.613 344.686 142.109C334.691 145.53 326.107 150.529 317.522 155.66C310.859 159.607 304.196 163.554 297.405 167.238C290.423 170.788 283.13 173.651 275.622 175.79C267.166 178.421 258.709 180.789 250.637 184.21C243.06 187.301 235.876 191.321 229.239 196.182C224.498 199.734 219.885 203.418 215.144 207.102C209.634 211.312 204.253 215.654 197.846 219.074C193.099 221.655 187.886 223.208 182.531 223.638C177.175 224.068 171.791 223.365 166.71 221.574C160.344 219.234 154.345 215.954 148.9 211.838C145.697 209.339 142.237 207.102 139.162 204.471C132.883 199.208 126.861 193.682 120.839 188.288L115.586 183.684C105.976 175.658 96.622 167.633 86.7559 159.87C76.6131 151.947 66.0472 144.612 55.1073 137.899C46.1381 132.242 37.297 126.585 29.4809 119.875C24.1205 115.239 19.3427 109.935 15.2581 104.087C12.6955 100.403 10.3893 96.5881 8.08292 92.7727C2.97321 84.2418 -1.64746 75.4119 -5.75541 66.3283C-7.84938 61.8219 -9.48122 57.104 -10.6245 52.2509C-11.3501 48.4347 -11.4367 44.5194 -10.8807 40.6733C-9.59937 30.9376 -4.21776 22.5175 1.67631 14.3605C6.0328 8.17696 10.6453 2.25661 15.5143 -3.53222C20.8959 -9.8473 26.4058 -16.1624 32.428 -22.0828C36.6953 -26.4843 41.7393 -30.0115 47.2911 -32.4763C50.5495 -33.9324 54.0069 -34.8643 57.5417 -35.2392C64.8452 -36.1602 71.7644 -34.5814 78.4273 -32.2133C87.2684 -28.9242 95.9814 -25.3719 104.694 -21.9512C113.262 -18.5006 122.09 -15.7727 131.09 -13.7943C136.256 -12.8051 141.476 -12.146 146.722 -11.8208C156.179 -11.3358 165.652 -12.4017 174.783 -14.9783C187.299 -18.391 199.198 -23.8553 210.019 -31.1607C218.491 -36.807 226.166 -43.6247 232.826 -51.4216C233.083 -51.6847 233.595 -51.9478 233.852 -52.211" stroke="#DFE4E8" stroke-linecap="round" stroke-linejoin="round"/>
<path d="M446.668 -52.743C447.693 -51.4274 448.846 -50.1117 449.871 -48.7961C452.562 -45.3754 455.253 -41.9548 457.815 -38.5341C460.059 -35.6923 461.36 -32.1893 461.531 -28.5352C461.437 -25.8939 460.827 -23.299 459.737 -20.9045C457.815 -16.5628 455.509 -12.4844 453.33 -8.27433C446.118 4.78984 440.726 18.8287 437.314 33.4315C436.673 36.4575 436.033 39.4835 435.648 42.5095C435.136 46.4564 434.88 50.4033 434.495 54.3502C434.154 56.7897 434.068 59.2596 434.239 61.7178C434.495 65.7963 435.264 70.0064 435.648 74.0848C436.34 79.5408 437.542 84.9158 439.236 90.1357C440.133 93.4248 441.542 96.4507 442.568 99.7398C444.361 105.134 446.283 110.397 447.693 115.791C448.59 119.343 448.59 122.895 445.771 126.053C443.899 128.121 441.337 129.39 438.595 129.605C433.983 130.263 429.754 129.079 425.526 128.026C417.197 125.921 409.125 123.421 400.796 121.185C393.076 118.981 385.19 117.441 377.22 116.58C373.504 116.185 369.66 115.922 365.945 115.659C363.254 115.528 360.435 115.264 357.616 115.396C350.065 115.674 342.557 116.687 335.193 118.422C329.299 119.869 323.533 121.711 317.895 123.685C307.004 127.5 296.881 132.762 286.374 137.236C276.893 141.314 267.155 144.998 257.417 148.813C245.372 153.55 233.712 158.812 223.462 165.785C217.252 169.971 211.264 174.495 205.523 179.336C202.192 182.231 198.86 185.125 195.401 187.888C190.818 191.688 185.726 194.79 180.281 197.097C174.477 199.413 168.107 199.782 162.086 198.15C155.988 196.531 150.218 193.814 145.045 190.124C136.075 184.336 128.388 177.363 120.443 170.785C115.703 166.838 111.218 162.628 106.605 158.549C101.608 154.076 96.4829 149.603 91.4858 144.998C79.4413 134.078 66.4999 123.816 53.943 113.291C46.5624 107.331 39.8191 100.584 33.8263 93.1616C27.2065 84.9694 21.9267 75.7273 18.194 65.7963C16.6171 61.8397 15.5823 57.6778 15.1189 53.4293C14.9908 51.4558 14.4783 49.4824 14.4783 47.5089C14.5117 38.9547 17.057 30.6098 21.7817 23.5642C24.5232 19.404 27.7505 15.6043 31.3916 12.2497C35.6423 8.37674 40.4372 5.18335 45.6144 2.77709C49.6313 0.973681 53.9241 -0.0949428 58.2994 -0.380477C66.7561 -1.0383 74.5722 0.935145 82.3883 3.3033C91.7866 6.36287 101.025 9.9199 110.065 13.96C115.19 16.0651 120.315 18.3016 125.569 20.4067C131.203 22.7637 137.099 24.3987 143.123 25.2745C150.021 26.1295 157.019 25.2258 163.496 22.6433C171.44 19.6173 178.359 15.4073 185.406 11.3288C194.376 6.0662 203.345 0.672075 212.186 -4.85362C216.927 -7.8796 221.412 -11.1688 225.896 -14.4579C235.019 -21.1866 243.172 -29.2033 250.113 -38.2709C253.444 -42.481 256.264 -46.9542 259.339 -51.2958C259.719 -51.7013 260.062 -52.1417 260.364 -52.6115" stroke="#DFE4E8" stroke-linecap="round" stroke-linejoin="round"/>
<path d="M-168.611 136.182C-165.28 137.234 -161.949 138.287 -158.745 139.471C-149.736 142.683 -140.477 145.103 -131.069 146.707C-127.257 147.345 -123.399 147.653 -119.537 147.628C-112.874 147.496 -106.339 146.838 -100.317 144.207C-93.1229 141.489 -87.2715 135.954 -84.0442 128.814C-81.7759 123.17 -80.059 117.309 -78.9189 111.316C-76.7752 101.103 -72.8228 91.3818 -67.2588 82.6351C-64.0223 77.6089 -60.1437 73.0512 -55.7269 69.084C-53.678 67.3388 -51.4428 65.8382 -49.0641 64.6108C-47.1836 63.5946 -45.0864 63.0746 -42.9616 63.0975C-40.8367 63.1205 -38.7508 63.6857 -36.8915 64.7424C-33.4926 66.5774 -30.3825 68.9282 -27.6661 71.7153C-21.7791 77.8852 -16.6574 84.7788 -12.4182 92.2393C-8.83049 98.5544 -5.75551 105.001 -2.03968 111.316C1.80428 117.894 5.77657 124.472 11.9269 129.867C17.7825 134.826 24.2973 138.902 31.2747 141.971C38.5782 145.523 46.0099 148.812 53.4416 152.233C62.4387 156.477 71.0934 161.448 79.3242 167.099C84.5776 170.652 89.8312 174.467 94.8283 178.282C101.107 183.15 107.385 188.018 113.407 193.149C120.198 198.938 126.861 204.727 133.396 210.647C140.033 216.739 147.195 222.199 154.794 226.961C160.698 230.678 167.21 233.264 174.014 234.592C179.748 235.645 185.629 235.511 191.312 234.197C198.349 232.479 205.003 229.398 210.916 225.119C215.657 221.962 219.885 218.409 224.498 214.989C231.701 209.319 239.426 204.384 247.562 200.253C253.185 197.574 259.013 195.373 264.988 193.675C273.06 191.307 281.26 189.202 289.205 186.702C297.69 183.992 305.79 180.144 313.294 175.256C320.981 170.257 328.541 165.126 336.357 160.258C343.392 155.832 351.171 152.798 359.293 151.312C362.387 150.766 365.511 150.415 368.647 150.259C372.811 149.91 377.003 150.22 381.075 151.18C384.781 151.936 388.423 152.991 391.966 154.338C397.157 156.433 401.965 159.413 406.189 163.152C412.109 168.188 416.582 174.782 419.13 182.229C420.356 185.563 421.09 189.066 421.309 192.623C421.585 195.992 421.67 199.374 421.565 202.753C421.309 207.095 420.796 211.305 420.156 215.515C419.515 220.12 418.618 224.724 418.106 229.329C417.721 232.618 417.465 235.907 417.337 239.196C417.08 246.038 416.952 252.879 416.952 259.72C417.08 267.22 417.465 274.85 417.593 282.35C417.506 287.339 416.773 292.294 415.415 297.085C414.21 301.826 412.309 306.351 409.777 310.504C407.128 314.932 403.894 318.961 400.167 322.477C393.632 328.66 386.073 333.923 378.385 339.185C367.33 346.491 357.324 355.347 348.658 365.498C342.379 372.997 336.357 380.496 330.079 387.996C328.029 390.495 325.85 392.863 323.8 395.232" stroke="#DFE4E8" stroke-linecap="round" stroke-linejoin="round"/>
<path d="M-168.611 141.712C-159.258 144.87 -150.032 148.027 -140.55 150.922C-134.282 152.817 -127.842 154.052 -121.33 154.606C-115.949 155 -110.568 154.737 -105.186 154.606C-100.674 154.396 -96.2019 153.645 -91.8601 152.369C-85.9556 150.895 -80.386 148.259 -75.4595 144.607C-70.865 141.087 -67.64 136.004 -66.362 130.266C-65.3369 125.925 -64.8244 121.451 -64.1838 116.978C-63.0306 110.268 -61.3649 103.69 -57.521 97.5067C-55.5923 94.3661 -52.9553 91.7487 -49.833 89.876C-44.4515 86.7184 -39.4543 86.85 -34.0727 90.1391C-30.3692 92.5338 -27.2554 95.7759 -24.9752 99.6117C-20.875 105.795 -18.4405 112.505 -16.006 119.346C-13.8277 125.398 -11.7776 131.319 -7.67741 136.713C-4.08634 141.221 0.535739 144.747 5.77646 146.975C12.4393 150.001 19.7427 151.448 26.79 153.29C34.3498 155.263 42.0377 157.105 49.2131 159.737C62.1342 164.513 74.4066 170.968 85.7307 178.945C90.0872 181.971 94.3156 184.997 98.5439 188.286C103.157 191.838 107.769 195.39 112.254 199.206C118.02 204.074 123.53 209.205 129.168 214.204C138.009 221.835 146.85 229.597 157.869 235.254C163.297 238.12 169.137 240.075 175.167 241.043C182.918 242.224 190.832 241.457 198.231 238.807C204.87 236.282 211.159 232.876 216.938 228.676C224.626 223.282 232.314 217.625 240.13 212.362C247.365 207.742 255.222 204.24 263.45 201.969C271.522 199.6 279.723 197.495 287.923 195.39C298.395 192.602 308.351 188.069 317.394 181.971C324.825 177.103 332.001 171.972 339.56 167.104C345.74 163.149 352.549 160.343 359.677 158.816C373.9 155.921 386.585 158.421 397.476 166.709C402.733 170.671 406.885 175.978 409.52 182.102C410.977 185.156 411.889 188.454 412.211 191.838C412.68 195.458 412.894 199.107 412.852 202.758C412.701 206.327 412.359 209.884 411.827 213.415C411.442 216.441 411.186 219.467 410.802 222.361C410.417 225.256 409.777 228.018 409.392 230.913C409.008 233.149 408.88 235.386 408.623 237.623C407.342 251.042 408.239 264.462 407.855 278.013C407.759 285.527 406.37 292.965 403.754 299.984C400.507 307.642 395.598 314.437 389.404 319.85C383.57 324.907 377.452 329.608 371.081 333.927C361.252 340.828 352.299 348.96 344.43 358.135C338.664 365.108 332.898 372.081 327.003 379.054C322.391 384.448 317.394 389.711 312.653 394.973C312.525 395.105 312.396 395.368 312.268 395.5" stroke="#DFE4E8" stroke-linecap="round" stroke-linejoin="round"/>
<path d="M426.551 -52.739C427.07 -51.8459 427.541 -50.9235 427.96 -49.9762C429.369 -46.5556 430.779 -43.0033 431.932 -39.5826C433.55 -35.1496 434.918 -30.6252 436.032 -26.0315C436.669 -22.9633 436.928 -19.8249 436.801 -16.6904C436.369 -11.7888 435.685 -6.91417 434.751 -2.08685C433.341 5.01761 431.676 12.1221 430.138 19.2266C428.985 24.6207 427.704 30.1463 426.551 35.5405C426.038 38.0402 425.782 40.6715 425.397 43.1712C424.885 46.5919 424.372 49.881 423.988 53.3017C423.86 54.7489 423.603 56.196 423.603 57.5117C423.475 64.4846 423.347 71.5891 423.219 78.562C423.219 81.5879 423.731 84.7455 423.475 87.7714C423.219 91.5868 423.091 95.2706 421.553 98.9544C419.375 103.954 415.275 106.717 408.996 107.111C405.152 107.375 401.308 107.506 397.464 107.375C393.62 107.243 389.776 106.585 385.932 106.322C382.985 106.059 380.039 106.059 377.091 105.664C369.805 105.029 362.488 104.853 355.181 105.138C350.38 105.266 345.589 105.661 340.83 106.322C333.411 107.336 326.083 108.964 318.92 111.19C312.001 113.295 305.081 115.663 298.29 117.9C290.602 120.531 283.042 123.294 275.483 125.925C269.204 128.162 262.926 130.398 256.647 132.503C242.91 137.27 230.015 144.29 218.464 153.29C214.748 156.185 210.904 159.079 207.316 162.105C202.191 166.447 197.322 171.052 192.197 175.262C187.69 179.206 182.582 182.361 177.077 184.603C173.706 186.009 170.076 186.638 166.442 186.445C163.084 186.15 159.771 185.443 156.576 184.34C149.934 181.887 143.708 178.38 138.125 173.946C133.384 170.394 128.515 166.842 124.159 163.026C117.88 157.632 111.858 152.106 105.836 146.581C101.736 142.897 97.7634 139.213 93.7914 135.529C87.7691 130.004 81.747 124.478 75.5967 118.952C73.5465 116.979 71.2402 115.268 69.1901 113.295C59.9646 105.138 50.8673 97.1125 43.6919 87.6399C37.5416 79.7461 32.6725 71.1944 30.238 61.9849C29.4692 58.9589 29.0848 55.8014 28.5723 52.7754C27.957 47.8733 28.5744 42.891 30.366 38.3034C32.0024 34.0486 34.4908 30.1939 37.6698 26.9888C41.1782 23.3013 45.4165 20.4299 50.0985 18.5687C56.0925 16.204 62.5613 15.3907 68.9339 16.2006C78.4759 17.2119 87.7633 19.9747 96.354 24.3575C106.476 29.4885 116.343 35.0142 126.209 40.4084C131.103 43.1953 136.309 45.3602 141.713 46.855C144.902 47.677 148.165 48.1619 151.451 48.3022C157.509 48.4812 163.496 46.9328 168.749 43.829C173.666 40.8337 178.224 37.2571 182.331 33.1723C189.585 26.2226 197.199 19.6789 205.138 13.5693C212.186 8.17518 219.873 3.17571 227.049 -2.08685C235.89 -8.66506 244.347 -15.5064 251.394 -23.4003C256.065 -28.5404 260.348 -34.0381 264.207 -39.8458C266.898 -43.9243 269.332 -48.1343 272.023 -52.2128C272.332 -52.596 272.675 -52.9484 273.048 -53.2653" stroke="#DFE4E8" stroke-linecap="round" stroke-linejoin="round"/>
<path d="M408.228 -52.7425C408.403 -52.7147 408.574 -52.6707 408.741 -52.611C409.894 -46.0328 412.2 -39.8492 414.122 -33.5342C415.66 -28.4032 417.197 -23.4037 418.351 -18.2727C418.995 -15.0654 419.38 -11.8092 419.504 -8.53697C419.823 -6.31627 419.952 -4.07099 419.888 -1.82715C419.632 1.98821 419.248 5.67197 418.863 9.48733C418.607 11.7239 418.479 13.9606 418.094 16.1972C417.71 18.6969 417.326 21.1965 416.813 23.6962C416.301 26.7222 415.788 29.7482 415.147 32.7742C414.763 34.8792 414.25 36.9842 413.866 39.0893C413.353 42.1152 412.841 45.1413 412.2 48.1672C411.56 51.7195 410.791 55.2717 410.022 58.9555C409.253 62.6393 408.741 66.1915 407.844 69.7437C406.691 74.3485 405.281 78.8217 402.078 82.9002C398.501 87.0597 393.592 89.7666 388.24 90.5309C384.142 91.3221 379.981 91.7185 375.811 91.7149C370.942 91.7149 365.945 91.8465 361.076 91.9781C356.207 92.1097 351.209 92.3728 346.34 92.8991C336.017 93.8508 325.78 95.6101 315.717 98.1616C306.876 100.398 298.035 102.898 289.065 105.003C280.353 107.108 271.511 108.818 262.798 110.792C255.623 112.502 248.576 114.081 241.657 116.186C234.978 118.322 228.666 121.518 222.949 125.659C215.005 131.316 208.727 138.157 202.192 144.735C197.579 149.34 192.838 153.813 188.226 158.418C184.026 162.559 179.174 165.94 173.875 168.417C169.295 170.514 164.233 171.244 159.268 170.522C152.861 169.733 147.608 167.101 142.61 164.207C135.062 159.856 128.013 154.649 121.597 148.682C113.781 141.578 106.221 134.079 98.6611 126.843C91.742 120.133 84.951 113.555 78.16 106.845C71.7749 100.816 65.7018 94.4487 59.9653 87.768C55.4594 82.535 51.7447 76.6365 48.9458 70.27C46.986 65.7197 46.0658 60.7695 46.2553 55.7979C47.024 48.6935 50.2273 42.6415 58.684 39.3524C61.5242 38.3052 64.5083 37.7279 67.525 37.6421C73.6165 37.6444 79.6551 38.8041 85.3355 41.0627C94.0485 44.2203 101.352 48.9566 108.912 53.4298C114.806 56.982 120.7 60.5342 126.978 63.6918C133.895 67.1981 141.278 69.6364 148.889 70.9278C155.403 72.1153 162.09 71.846 168.493 70.1384C174.295 68.5017 179.619 65.43 183.997 61.1921C188.436 56.5086 192.427 51.398 195.914 45.9306C201.167 38.2999 206.549 30.8007 213.852 24.3541C219.746 19.0915 225.896 13.9605 232.047 8.82951C236.147 5.40885 240.631 2.11972 244.732 -1.30094C252.909 -8.00152 260.228 -15.7375 266.514 -24.3247C270.358 -29.7188 274.074 -35.2445 277.662 -40.7702C279.968 -44.454 281.89 -48.2694 284.068 -51.9531C284.377 -52.3364 284.72 -52.6887 285.093 -53.0056" stroke="#DFE4E8" stroke-linecap="round" stroke-linejoin="round"/>
<path d="M-174.261 78.6914C-166.23 75.7951 -158.571 71.9074 -151.453 67.1138C-143.94 61.7703 -137.097 55.4955 -131.08 48.4317C-127.039 43.6026 -122.625 39.115 -117.883 35.0121C-113.284 31.0771 -107.762 28.4463 -101.866 27.3814C-96.1239 26.3702 -90.2424 26.5491 -84.5684 27.9076C-79.1869 29.3548 -73.9334 30.8021 -68.8081 32.644C-64.3235 34.2228 -59.8388 36.0646 -54.9698 36.4593C-51.3978 36.7605 -47.8214 35.9342 -44.7192 34.0912C-40.3497 31.8297 -36.3682 28.8525 -32.9312 25.2764C-27.1652 19.4875 -21.2711 13.6987 -15.8895 7.5152C-7.81721 -1.82586 -0.129284 -11.43 7.8149 -20.9026C12.4277 -26.4283 17.1684 -31.8225 22.0374 -37.2166C26.202 -41.8617 31.1509 -45.6949 36.6446 -48.5311C40.8528 -50.7129 45.4109 -52.0948 50.0985 -52.6096C57.2739 -53.399 63.8085 -51.9518 70.2151 -49.8467C78.6719 -47.0839 86.4879 -43.0055 94.5602 -39.4532C104.781 -34.5898 115.537 -31.0116 126.593 -28.7965C130.817 -27.9615 135.105 -27.5212 139.406 -27.4808C142.61 -27.4808 145.941 -27.2177 149.145 -27.4808C153.447 -27.8362 157.726 -28.4513 161.958 -29.3228C171.528 -31.4959 180.699 -35.2268 189.122 -40.3741C194.78 -43.6056 200.029 -47.5381 204.754 -52.0833C205.179 -52.4231 205.655 -52.6897 206.163 -52.8727" stroke="#DFE4E8" stroke-linecap="round" stroke-linejoin="round"/>
<path d="M-174 72.9075C-171.437 71.5918 -168.875 70.4078 -166.44 69.0921C-162.98 67.1187 -159.649 65.1452 -156.318 62.9086C-147.989 57.2513 -142.095 50.0153 -135.945 42.9109C-132.101 38.3061 -128.257 33.7014 -124.028 29.3598C-119.165 24.2133 -112.995 20.5674 -106.218 18.8346C-103.24 18.0657 -100.19 17.6247 -97.1208 17.519C-89.1766 16.9927 -81.4886 18.5715 -73.6725 19.8871C-67.9862 21.1425 -62.1907 21.8037 -56.3747 21.8606C-50.4635 21.7066 -44.6702 20.1293 -39.4613 17.2558C-33.3602 13.805 -27.7183 9.55985 -22.6759 4.62563C-15.1161 -2.21571 -8.83771 -9.84641 -2.55924 -17.4771C2.95044 -24.3185 8.33205 -31.1598 13.8417 -38.1327C17.8383 -43.1338 22.349 -47.6771 27.2956 -51.6838C28.024 -52.1565 28.7967 -52.5531 29.602 -52.8679" stroke="#DFE4E8" stroke-linecap="round" stroke-linejoin="round"/>
<path d="M-174 68.563C-173.088 67.9864 -172.147 67.4594 -171.181 66.9842C-161.939 62.4816 -153.697 56.0781 -146.964 48.1705C-142.095 42.2502 -137.482 36.1982 -132.485 30.4094C-129.605 27.0576 -126.524 23.8938 -123.26 20.9368C-118.262 16.5985 -112.26 13.6535 -105.833 12.3851C-100.871 11.2642 -95.7618 10.9975 -90.7142 11.5957C-85.9733 12.2536 -81.104 12.5167 -76.3631 13.0429C-72.6473 13.4376 -68.9315 14.227 -65.2157 14.4901C-58.681 14.7532 -52.1462 14.6216 -45.9959 12.5166C-40.2515 10.4318 -34.8506 7.4594 -29.9794 3.70189C-19.0882 -4.58665 -10.7596 -14.7171 -2.81546 -24.8475C3.84741 -33.2677 9.99762 -42.0825 17.5574 -49.9763C18.5678 -50.9247 19.6378 -51.8037 20.7607 -52.6076" stroke="#DFE4E8" stroke-linecap="round" stroke-linejoin="round"/>
<path d="M-174.261 62.5112C-171.186 60.6693 -167.854 58.959 -164.907 56.8539C-156.194 50.802 -150.172 43.0397 -144.406 35.1459C-140.562 29.8833 -136.718 24.7523 -132.49 19.7528C-128.067 14.5187 -122.548 10.3807 -116.345 7.649C-111.67 5.619 -106.681 4.46063 -101.61 4.22829C-99.0961 4.00921 -96.5727 3.92137 -94.0501 3.96514C-90.7187 4.0967 -87.5154 4.49145 -84.184 4.75457C-80.8526 5.0177 -77.6493 5.41241 -74.3179 5.67554C-70.4739 5.93867 -66.5017 6.46489 -62.6577 6.46489C-53.4351 6.5992 -44.3521 4.14249 -36.3907 -0.639605C-28.6254 -5.53744 -21.6632 -11.665 -15.7616 -18.7954C-8.07369 -27.4787 -1.6669 -36.8197 5.25223 -45.8976C6.91795 -48.0027 8.58354 -49.9761 10.2493 -52.0812C10.5055 -52.3443 10.8899 -52.4759 11.1461 -52.739" stroke="#DFE4E8" stroke-linecap="round" stroke-linejoin="round"/>
<path d="M-174 57.1206C-172.206 55.805 -170.668 54.3578 -168.746 53.1737C-165.055 50.6436 -161.733 47.587 -158.88 44.0958C-153.371 38.0438 -149.142 31.334 -144.658 24.8874C-140.557 18.967 -136.329 13.0466 -130.563 8.17871C-124.007 2.45247 -115.928 -1.12228 -107.371 -2.08328C-104.696 -2.45504 -101.998 -2.63094 -99.299 -2.60956C-95.3269 -2.60956 -91.3547 -2.60955 -87.3826 -2.34642C-83.9231 -2.08329 -80.4634 -1.42549 -77.0038 -1.29392C-71.366 -1.03079 -65.7282 -0.504505 -60.0904 -0.767634C-51.3791 -1.24658 -42.9419 -4.05881 -35.6174 -8.92463C-26.9598 -14.8061 -19.371 -22.1973 -13.1943 -30.7643C-7.94088 -37.6056 -2.81547 -44.7101 2.30981 -51.683C2.68413 -52.0967 3.1159 -52.4513 3.59113 -52.7355" stroke="#DFE4E8" stroke-linecap="round" stroke-linejoin="round"/>
<path d="M94.6916 87.1071C96.6136 83.1601 99.5606 82.897 103.661 83.5549C110.964 84.7389 117.883 87.1071 124.931 89.0805C131.978 91.054 138.769 92.7643 145.816 94.6062C154.273 96.7113 162.73 98.5532 171.186 100.921C176.568 102.369 181.181 105 183.615 109.473C185.112 112.187 185.569 115.377 184.896 118.419C184.538 120.617 183.98 122.775 183.231 124.866C181.127 130.887 177.708 136.332 173.236 140.785C170.625 143.435 167.535 145.536 164.139 146.969C158.886 149.069 153.081 149.209 147.738 147.363C142.428 145.544 137.448 142.832 133.003 139.338C122.112 131.05 113.783 121.182 106.223 110.789C102.155 105.457 98.7544 99.6229 96.1009 93.4222C95.2378 91.5288 94.7999 89.4606 94.8195 87.3702" stroke="#DFE4E8" stroke-linecap="round" stroke-linejoin="round"/>
</g>
<defs>
<clipPath id="clip0_2139_41126">
<rect width="104" height="104" fill="white" transform="matrix(1 0 0 -1 0 104)"/>
</clipPath>
</defs>
</svg>
