<svg width="446" height="537" viewBox="0 0 446 537" fill="none" xmlns="http://www.w3.org/2000/svg">
<g opacity="0.3">
<path d="M174.084 -448.838C177.322 -410.141 220.527 -356.004 247.577 -336.122C254.173 -330.846 261.412 -326.298 269.127 -322.583C273.434 -320.485 277.87 -318.64 282.406 -317.061C287.818 -315.073 293.332 -313.368 298.921 -311.953C311.855 -308.998 325.086 -307.869 338.139 -308.604C348.39 -309.105 358.653 -310.035 368.817 -310.802C376.605 -311.341 384.293 -311.718 391.426 -309.56C402.225 -306.488 409.492 -299.673 412.343 -288.075C413.418 -283.948 413.541 -279.717 412.703 -275.657C411.819 -271.556 409.985 -267.727 407.32 -264.417C401.576 -257.897 394.534 -252.439 386.525 -248.3C371.461 -239.521 356.124 -231.111 341.764 -220.637C330.103 -212.049 319.505 -202.348 310.133 -191.681C303.161 -183.737 297.138 -175.115 292.157 -165.947C287.981 -158.109 284.488 -149.952 281.71 -141.548C278.123 -129.952 275.804 -117.993 274.785 -105.838C274.01 -96.4414 273.521 -87.1068 273.319 -77.8336C272.696 -61.3703 271.701 -45.1107 269.275 -28.5434C267.245 -15.4692 264.829 -2.1701 263.272 10.9445C261.77 23.1423 261.69 35.5334 263.035 47.9141C264.602 64.0482 268.474 79.2607 271.287 94.985C273.061 103.691 273.449 112.505 272.438 121.148C271.586 127.49 269.33 133.529 265.805 138.905C261.399 145.289 255.55 150.703 248.617 154.814C239.441 160.229 229.611 164.723 219.285 168.224C213.246 170.375 207.021 172.424 200.896 174.31C186.542 178.676 172.287 182.878 158.033 187.081C150.191 189.336 142.248 191.754 134.592 194.111C119.279 198.826 103.966 203.54 88.7393 208.52C70.9227 214.482 53.3647 221.242 35.6481 227.041C20.1312 232.168 3.76783 235.258 -12.9742 236.223C-27.8562 237.046 -42.905 236.281 -57.8179 233.942C-65.4159 232.883 -72.8804 230.856 -79.9885 227.92C-84.1885 226.311 -88.2768 224.438 -92.2227 222.317C-98.2016 218.763 -103.594 214.413 -108.203 209.425C-119.745 196.999 -127.224 181.994 -132.286 165.476C-135.809 154.762 -137.282 143.69 -136.639 132.76C-136.031 124.981 -133.73 117.488 -129.867 110.714C-124.834 102.416 -118.291 95.0137 -110.497 88.7974C-100.958 80.9235 -91.4329 73.4783 -81.6214 65.9717C-69.965 57.0743 -57.9363 48.3811 -47.0973 38.3816C-41.8068 33.553 -37.0096 28.2931 -32.7582 22.6593C-23.6681 11.0481 -19.1755 -1.98806 -16.9319 -15.8182C-14.3485 -32.1298 -13.1216 -48.6736 -13.2612 -65.3119C-13.1166 -77.1102 -13.8449 -88.9558 -15.4415 -100.768C-17.4431 -116.362 -21.7304 -131.774 -28.1874 -146.588C-30.83 -152.835 -34.145 -158.796 -37.2602 -165.083C-37.658 -165.993 -37.9149 -166.942 -38.0229 -167.901" stroke="#F2F4F6" stroke-width="1.5" stroke-linecap="round" stroke-linejoin="round"/>
<path d="M657.429 80.6403C654.859 75.0874 652.375 69.7998 649.992 64.3489C644.879 52.3853 639.666 40.5853 634.94 28.3966C630.525 16.9286 627.658 5.09678 626.403 -6.82754C625.07 -18.4684 624.024 -30.1708 622.405 -41.7501C620.219 -59.3133 615.158 -75.8318 605.761 -90.1397C600.746 -97.8645 594.48 -104.901 587.193 -110.994C581.974 -115.51 576.214 -119.468 570.04 -122.781C567.805 -124.005 566.056 -125.616 563.721 -126.676C557.475 -129.876 551.128 -132.912 544.595 -136.051C539.553 -138.374 534.324 -140.799 529.381 -143.285C521.917 -146.934 514.553 -150.745 507.103 -154.822C502.174 -157.738 497.545 -161.144 492.816 -164.386C488.832 -167.221 484.749 -169.892 480.951 -172.625C477.526 -175.154 474.201 -177.847 470.962 -180.274C468.368 -182.13 465.974 -184.313 463.28 -186.005C457.836 -189.783 452.155 -193.256 446.272 -196.404C428.65 -205.392 409.219 -208.17 388.108 -202.918C375.059 -199.681 362.978 -194.141 352.524 -186.601C345.142 -181.438 338.744 -175.226 333.55 -168.178C330.701 -164.669 328.114 -160.982 325.805 -157.14C320.564 -147.82 316.921 -137.753 314.992 -127.267C311.821 -111.108 312.83 -95.2789 313.839 -79.4505C314.848 -63.6222 316.315 -47.3248 313.517 -30.9614C312.338 -23.75 310.773 -16.3135 309.122 -9.1425C305.933 4.60699 302.372 18.1525 300.887 31.9614C299.699 42.0749 299.751 52.3497 301.042 62.5988C302.503 73.2183 304.621 83.9803 306.082 94.5998C307.555 104.79 309.129 114.817 307.927 125.726C307.116 134.069 304.458 142.069 300.109 149.249C295.76 156.43 289.81 162.644 282.613 167.522C276.5 171.615 269.981 175.202 263.128 178.245C256.833 181.206 250.292 183.752 243.552 185.865C234.264 188.857 225.09 191.256 215.716 193.983C212.368 194.987 209.119 195.828 205.956 196.935C186.236 203.165 166.429 209.13 146.881 215.891C130.962 221.244 115.53 227.6 100.691 234.916C83.8372 243.369 67.0695 252.088 50.3154 260.378C34.7826 268.1 17.43 272.656 -0.620882 273.75C-14.4787 274.459 -28.3954 274.046 -42.0258 273.57C-58.1187 273.056 -74.0254 272.644 -89.9183 271.803C-96.3538 271.529 -102.77 270.372 -108.95 268.372C-118.105 265.367 -126.007 259.574 -131.263 252.015C-138.721 241.674 -144.917 230.669 -149.733 219.212C-156.984 203.022 -164.236 186.833 -171.101 170.419C-175.324 160.251 -179.161 149.859 -182.611 139.242C-185.723 129.823 -186.764 120.051 -185.67 110.507C-184.975 104.9 -183.265 99.496 -180.609 94.5089C-175.388 84.8068 -167.732 76.4591 -158.221 70.0973C-145.806 61.1787 -133.304 52.5254 -120.703 43.7087C-108.386 34.9577 -97.2038 24.9844 -87.3407 13.9545C-80.425 5.89271 -74.5508 -2.89419 -69.8232 -12.2491C-64.102 -23.287 -60.2121 -35.123 -58.2733 -47.3926C-56.231 -58.6502 -55.4501 -70.14 -55.9422 -81.6888C-56.5785 -95.4664 -59.1961 -109.225 -63.7278 -122.612C-63.9732 -123.618 -64.0992 -124.639 -64.104 -125.655" stroke="#F2F4F6" stroke-width="1.5" stroke-linecap="round" stroke-linejoin="round"/>
<path d="M673.34 54.2088C665.397 40.5138 659.087 26.1561 654.528 11.3977C651.551 1.20096 649.568 -9.15981 648.602 -19.5602C647.601 -29.7104 646.027 -39.7377 644.926 -49.7244C643.373 -62.3601 639.981 -74.8586 634.84 -86.8872C629.577 -99.4816 621.672 -111.153 611.587 -121.217C606.713 -125.848 601.839 -130.48 596.765 -134.784C593.254 -137.578 589.342 -139.719 585.631 -142.186C582.751 -143.981 579.785 -146.041 576.804 -147.671C572.521 -150.016 568.137 -152.196 563.653 -154.214C559.083 -156.496 554.226 -158.717 549.456 -160.673C540.159 -164.635 531.151 -169.199 522.508 -174.329C517.765 -177.142 513.322 -180.447 508.78 -183.587C497.746 -191.153 488.484 -200.804 478.922 -209.965C474.149 -214.76 469.275 -219.391 464.014 -223.797C455.746 -230.995 444.951 -235.183 433.876 -235.489C422.781 -235.538 411.832 -234.186 401.339 -231.471C386.519 -227.954 372.464 -222.492 359.598 -215.25C343.817 -206.928 330.115 -195.836 319.225 -182.567C316.166 -178.785 313.107 -175.003 310.321 -170.854C307.41 -166.704 304.773 -162.392 302.421 -157.937C299.529 -151.595 297.042 -145.087 294.973 -138.443C290.991 -125.239 289.02 -111.49 289.115 -97.5663L288.995 -58.3501C288.806 -44.5786 287.354 -30.9198 284.654 -17.5156C282.366 -5.2377 279.877 7.367 278.161 19.5218C276.343 32.3594 276.432 45.4723 278.427 58.513C280.246 69.7653 282.351 80.9562 284.27 92.045C285.956 100.427 286.858 108.879 286.967 117.308C286.918 127.141 284.032 136.624 278.6 144.809C275.747 149 272.141 152.7 267.919 155.768C259.181 162.621 249.102 167.961 238.132 171.548C230.176 174.396 222.406 177.345 214.463 179.764C201.54 183.822 188.445 187.349 175.436 191.142C171.801 192.208 167.88 193.335 164.145 194.564C158.019 196.45 151.894 198.336 145.955 200.323C137.054 203.09 127.966 205.756 119.051 208.951C106.014 213.602 92.9641 218.681 80.0138 223.597C70.2261 227.407 60.5247 231.482 50.6508 235.026C42.5943 238.037 34.5379 241.048 26.309 243.528C14.6422 246.977 2.44438 249.029 -9.99079 249.634C-18.4373 250.031 -26.7837 250.264 -35.3027 249.967C-50.9265 249.78 -66.5898 247.807 -81.9264 244.094C-90.6356 241.826 -98.9277 238.175 -106.408 233.315C-114.172 227.943 -120.733 221.232 -125.677 213.605C-132.733 203.264 -138.639 192.353 -143.301 181.046C-147.253 171.407 -150.64 161.612 -153.448 151.706C-155.792 143.338 -156.92 134.795 -156.803 126.301C-156.684 118.214 -154.384 110.406 -150.105 103.561C-144.598 94.634 -137.282 86.8047 -128.517 80.4572C-119.864 73.626 -110.939 67.1622 -102.2 60.5963C-91.3133 52.7155 -80.9798 44.2339 -71.252 35.1949C-64.7161 29.103 -58.7685 22.505 -53.4679 15.4657C-48.8099 8.99826 -44.7865 2.14779 -41.4404 -5.01297C-35.0166 -19.1744 -32.273 -33.822 -30.4743 -48.5505C-28.5027 -64.3503 -28.4329 -80.4097 -30.2661 -96.4475C-31.8405 -110.603 -35.4701 -124.625 -41.0592 -138.144C-42.7256 -142.33 -44.6782 -146.453 -46.5308 -150.74C-46.6993 -151.374 -46.8055 -152.017 -46.8483 -152.66" stroke="#F2F4F6" stroke-width="1.5" stroke-linecap="round" stroke-linejoin="round"/>
<path d="M664.137 69.251C658.724 57.778 653.498 46.4071 648.185 34.7705C642.219 21.0874 638.214 6.86162 636.274 -7.53767C634.714 -17.9936 634.113 -28.7978 632.839 -39.3153C630.985 -55.3879 627.686 -70.7236 620.838 -84.7279C612.177 -102.214 598.318 -117.375 580.922 -128.395C574.503 -132.126 568.37 -135.918 561.751 -139.322C556.908 -141.972 551.952 -144.03 546.909 -146.353C542.239 -148.472 537.655 -150.326 533.185 -152.772C525.162 -156.726 517.24 -160.843 509.603 -165.022C505.287 -167.642 501.137 -170.496 497.179 -173.567C492.636 -176.707 488.194 -180.012 483.751 -183.316C480.054 -186.212 476.27 -189.374 472.472 -192.107C468.674 -194.84 465.077 -197.9 461.179 -200.469C456.723 -203.344 451.98 -206.158 447.324 -208.706C438.415 -213.298 428.529 -215.857 418.565 -216.151C404.662 -216.994 390.55 -214.241 376.841 -209.304C363.276 -204.344 350.997 -197.081 340.619 -187.88C334.538 -182.497 329.022 -176.606 324.135 -170.277C314.651 -157.528 308.281 -142.962 305.422 -127.487C302.465 -112.083 302.842 -97.2547 303.406 -82.3246C303.794 -70.7644 304.181 -59.2039 304.096 -47.6841C303.673 -36.0246 302.035 -24.4994 299.203 -13.2626C296.328 -0.432595 293.081 12.1936 291.623 25.1446C290.087 37.2076 290.171 49.4901 291.872 61.7256C293.201 70.5274 294.816 79.2676 296.331 88.1713C297.992 98.4637 299.938 108.695 299.781 119.52C299.728 127.578 297.859 135.433 294.288 142.6C290.717 149.767 285.52 156.094 279.019 161.189C270.738 167.5 261.413 172.615 251.336 176.374C245.297 178.525 239.431 181.207 233.306 183.093C220.955 187.028 208.433 190.432 196.096 193.937L185.477 197.074C166.616 203.12 147.954 208.838 129.265 215.415C110.132 222.219 91.5011 230.02 73.4598 238.78C58.4507 245.842 43.5417 252.742 27.9425 257.517C17.1954 260.766 5.95861 262.754 -5.50836 263.436C-12.7235 263.852 -19.9248 263.839 -27.1263 263.826C-43.1915 263.738 -59.2981 262.793 -75.3639 260.998C-83.3779 260.179 -91.3305 258.606 -99.0933 256.306C-105.062 254.275 -110.673 251.352 -115.684 247.663C-128.467 238.485 -136.187 225.095 -143.135 211.254C-148.489 200.904 -153.27 190.432 -157.666 179.734C-162.406 167.974 -167.046 156.05 -170.728 143.779C-173.628 134.923 -174.685 125.754 -173.842 116.76C-173.36 111.474 -171.981 106.34 -169.753 101.539C-165.357 91.5055 -157.722 83.8991 -149.169 77.2314C-137.613 68.4975 -125.783 60.131 -114.141 51.6625C-102.569 43.4022 -91.8172 34.2506 -81.9927 24.2991C-76.5605 18.4732 -71.553 12.3218 -66.9988 5.88008C-58.931 -5.81295 -53.0472 -18.7262 -49.5687 -32.3741C-44.6313 -50.9905 -43.0811 -70.4073 -44.9779 -89.8756C-46.3591 -105.062 -50.0212 -120.137 -55.8612 -134.677C-56.0337 -135.208 -56.0061 -136.065 -56.1786 -136.596" stroke="#F2F4F6" stroke-width="1.5" stroke-linecap="round" stroke-linejoin="round"/>
<path d="M-82.8663 533.826C-80.2487 531.985 -77.445 530.246 -74.8274 528.405C-67.8335 523.067 -61.0258 517.626 -54.0319 512.288C-43.4673 504.257 -33.8206 495.288 -25.219 485.5C-20.3014 479.898 -15.7564 474.093 -11.3976 468.185C-0.421197 453.896 7.6752 437.813 17.6341 422.749C28.1929 406.704 41.3905 394.067 58.8759 386.614C69.3499 382.089 80.2416 379.319 91.1231 379.818C96.0977 379.846 101.076 380.858 105.716 382.785C110.017 384.666 114.191 386.804 118.209 389.185C122.714 392.139 126.924 395.466 130.778 399.118C140.812 408.319 150.646 417.847 160.68 427.048C165.234 430.749 169.995 434.228 174.939 437.47C177.02 439.151 179.295 440.616 181.717 441.834C190.685 445.868 199.953 449.412 210.603 448.257C215.926 447.698 220.93 445.939 225.171 443.135C228.006 441.196 230.29 438.676 231.859 435.76C233.427 432.844 234.24 429.604 234.24 426.275C234.427 419.301 232.415 412.295 228.443 406.081C222.629 396.158 214.839 387.227 205.501 379.777C200.192 375.335 194.56 371.232 188.648 367.5C180.38 362.32 171.812 357.632 163.245 352.943C158.588 350.395 153.532 348.501 148.775 346.116C144.987 344.479 141.281 342.669 137.673 340.695C128.287 334.905 120.275 327.682 116.752 316.371C113.56 306.55 114.449 296.561 119.518 286.241C124.876 276.045 132.548 267.097 142.061 259.95C154.803 249.683 168.967 242.376 183.677 235.804C199.158 228.781 215.33 223.882 231.229 218.616C245.497 213.985 259.737 210.212 273.918 205.315C287.799 200.83 300.744 194.457 312.334 186.401C320.407 180.618 327.4 173.704 333.081 165.892C341.999 153.75 345.746 140.306 346.858 126.294C347.916 113.997 346.497 102.09 345.178 90.0202C343.397 74.642 341.815 58.9371 344.127 42.9623C345.64 33.1945 347.944 23.5868 351.019 14.2165C354.925 1.73262 359.59 -10.7723 362.178 -23.5407C364.576 -35.4123 365.19 -47.6273 364.006 -59.8586C362.7 -72.3574 361.109 -84.7944 360.09 -97.3548C359.263 -106.122 359.991 -114.862 362.246 -123.236C365.68 -135.76 373.011 -145.715 384.958 -151.835C391.989 -155.635 400.287 -157.272 408.703 -156.517C415.939 -156.035 423.067 -154.074 429.557 -150.78C432.164 -149.353 435.072 -148.416 437.393 -146.928C442.222 -143.849 446.951 -140.606 451.68 -137.364C456.409 -134.121 461.037 -130.715 465.666 -127.309C469.091 -124.78 472.317 -121.924 475.556 -119.497C478.236 -117.376 481.302 -115.479 484.082 -113.521C487.693 -110.89 491.491 -108.158 495.202 -105.69C497.524 -104.202 499.659 -102.815 501.98 -101.327C505.792 -99.0227 509.517 -96.9842 513.228 -94.5167C518.429 -91.2339 523.531 -87.7872 528.532 -84.1774C534.19 -80.2879 539.594 -76.0915 544.713 -71.613C549.02 -67.648 552.854 -63.281 556.141 -58.5943C562.734 -48.9571 567.316 -38.3743 569.64 -27.4194C571.8 -17.9445 573.774 -8.57166 575.934 0.903255C579.089 15.0077 583.558 28.9161 589.29 42.4743C594.23 53.907 599.643 65.3803 604.197 77.0381C610.404 93.3103 616.224 109.808 622.044 126.305C622.82 128.694 623.783 131.184 624.559 133.573" stroke="#F2F4F6" stroke-width="1.5" stroke-linecap="round" stroke-linejoin="round"/>
<path d="M-75.2494 538.443C-69.228 533.881 -63.0204 529.422 -56.999 524.861C-42.0525 513.836 -27.4648 502.178 -14.8846 488.112C-9.58075 482.285 -4.54927 476.091 0.482044 469.896C4.7271 464.581 8.59963 459.062 12.6584 453.645C20.876 442.648 29.0935 431.651 39.3462 422.203C50.4713 412.142 63.0041 405.47 77.1031 403.147C85.8339 401.742 94.9707 402.522 103.564 405.406C110.481 407.921 117.065 411.231 123.148 415.251C128.794 419.004 134.202 423.057 139.343 427.386L152.37 437.789C155.509 440.38 158.648 442.97 161.887 445.397C163.091 446.274 164.481 447.253 165.685 448.13C171.054 451.65 176.649 454.857 182.434 457.732C191.212 462.09 200.924 464.4 210.647 464.442C222.115 464.389 233.279 461.988 243.032 453.358C246.857 450.063 249.729 445.953 251.422 441.35C253.116 436.747 253.584 431.778 252.789 426.835C251.329 416.216 246.493 407.459 240.884 399.152C235.513 391.29 229.269 383.922 222.257 377.174C215.82 371.033 208.897 365.281 202.161 359.63C198.105 356.101 193.848 352.899 189.592 349.696C186.353 347.269 183 345.435 179.761 343.008C175.591 340.071 171.335 336.869 167.265 333.768C162.736 330.199 158.021 326.527 153.692 322.631C147.716 317.385 143.476 310.734 141.511 303.526C139.58 296.151 140.222 288.558 143.344 281.833C147.526 272.555 154.475 265.664 162.069 259.345C172.675 251.025 184.526 244.084 197.318 238.699C210.456 233.037 223.965 228.046 237.787 223.745C252.341 219.052 267.067 214.89 281.535 209.931C295.461 205.337 308.415 198.817 319.965 190.588C329.694 183.223 338 174.442 344.584 164.561C348.261 158.42 351.171 151.891 353.263 145.087C356.854 131.65 358.039 117.64 356.773 103.579C355.985 92.6728 355.097 81.9301 354.496 71.1258C353.739 55.3655 355.808 39.7646 360.619 24.9383C364.698 12.9852 368.777 1.0322 372.483 -11.1247C376.001 -22.0419 378.019 -33.3952 378.494 -44.9346C378.667 -56.643 377.967 -68.3997 376.4 -80.1245C374.997 -89.911 374.835 -99.7397 375.917 -109.414C376.603 -114.614 378.236 -119.619 380.751 -124.227C383.765 -129.816 388.678 -134.297 394.807 -137.049C402.96 -140.373 412.438 -140.522 421.164 -137.465C427.88 -135.028 434.302 -131.88 440.29 -128.09C444.948 -125.062 449.431 -121.808 453.718 -118.341C457.329 -115.71 461.04 -113.243 464.552 -110.448C468.063 -107.654 471.761 -104.758 475.559 -102.025C478.339 -100.067 481.305 -98.0069 484.085 -96.0491C488.255 -93.1124 492.239 -90.2775 496.509 -87.5043C498.272 -86.3215 499.848 -85.241 501.611 -84.0582C508.002 -79.4694 514.493 -75.0439 520.885 -70.4551C527.462 -65.6795 533.371 -60.1711 538.459 -54.0729C546.692 -43.79 552.64 -32.2175 555.943 -20.0632C560.228 -5.93361 563.841 8.48253 568.612 22.2235C572.766 34.5353 577.979 46.3355 583.005 58.0337C590.602 75.2847 598.399 92.2085 604.45 110.36C608.518 122.406 612.586 134.453 616.84 146.601" stroke="#F2F4F6" stroke-width="1.5" stroke-linecap="round" stroke-linejoin="round"/>
<path d="M109.173 -408.572C111.836 -408.861 114.598 -409.314 117.261 -409.602C124.203 -410.386 131.146 -411.169 137.989 -411.79C143.763 -412.451 149.738 -411.398 155.044 -408.785C158.71 -406.618 161.907 -403.83 164.447 -400.584C169.094 -394.768 173.067 -388.665 177.328 -382.624C190.193 -363.299 205.861 -345.543 223.871 -329.875C227.654 -326.713 231.438 -323.551 235.422 -320.716C240.61 -317.005 245.998 -313.62 251.285 -310.072C254.473 -307.747 257.902 -305.723 261.516 -304.037C267.49 -301.204 274.05 -298.923 280.124 -296.254C288.388 -292.911 296.935 -290.28 305.647 -288.398C311.003 -286.994 316.387 -286.449 321.844 -285.208C330.88 -283.319 339.831 -281.694 348.567 -279.314C354.296 -277.706 359.325 -274.954 361.595 -268.911C363.063 -264.92 362.859 -260.668 361.024 -257.002C358.355 -250.607 353.379 -246.128 348.589 -241.548C339.108 -232.551 329.269 -224.186 319.603 -215.291C310.458 -207.145 302.123 -198.276 294.684 -188.773C291.225 -184.337 287.853 -179.636 284.58 -175.098C282.294 -171.766 279.721 -168.373 277.708 -164.674C272.208 -154.823 267.783 -144.457 264.491 -133.715C261.94 -125.073 260.048 -116.288 258.441 -107.565C255.343 -90.7108 254.893 -73.7165 253.025 -56.8434C251.399 -41.5841 249.015 -26.3038 246.816 -10.9214C244.121 8.11765 242.471 27.0739 244.343 45.5566C245.422 56.7242 247.153 67.8699 249.527 78.946C251.024 85.4395 252.522 91.9333 253.733 98.4885C255.537 107.28 255.954 116.182 254.971 124.917C253.72 134.118 249.27 142.532 242.261 148.951C235.21 155.479 226.86 160.737 217.599 164.48C202.404 171.441 186.532 175.849 171.019 180.89C161.732 183.882 152.272 186.343 142.898 189.07C132.665 191.981 122.332 195.056 111.913 197.865C87.0539 204.775 62.4258 213.339 37.7253 221.209C23.5279 226.01 8.71239 229.388 -6.47202 231.285C-23.2362 233.386 -40.441 232.963 -57.4135 230.033C-64.2455 228.98 -70.9453 227.076 -77.3215 224.376C-80.2153 223.011 -83.4092 222.136 -86.203 220.607C-98.2872 213.937 -108.115 204.224 -114.402 192.736C-118.152 186.015 -121.012 178.953 -122.92 171.708C-125.085 163.283 -125.864 154.69 -125.23 146.22C-124.648 139.697 -122.81 133.391 -119.8 127.586C-114.131 116.285 -105.237 107.84 -95.7846 99.7006C-84.1182 90.0778 -71.8726 81.045 -59.0975 72.6388C-52.1174 67.7293 -44.9512 62.9219 -37.8711 57.8489C-30.1368 52.4851 -23.2208 46.2282 -17.2795 39.2197C-10.6852 31.0791 -6.50338 21.4495 -5.10431 11.1832C-3.18814 -1.29858 -3.74838 -13.3894 -4.02227 -25.542C-4.47244 -41.0645 -5.1087 -56.6893 -6.03138 -72.2522C-6.61524 -80.6463 -7.77174 -88.9171 -8.92811 -97.1881C-11.3341 -114.043 -16.3207 -130.657 -23.7403 -146.539C-27.1005 -154.052 -31.233 -161.115 -34.9794 -168.403C-35.2568 -169.202 -35.6127 -169.981 -36.0422 -170.73" stroke="#F2F4F6" stroke-width="1.5" stroke-linecap="round" stroke-linejoin="round"/>
<path d="M-67.8042 542.512C-61.4966 537.889 -55.0026 533.368 -48.8813 528.644C-36.8898 519.98 -25.429 510.737 -14.5431 500.951C-6.72175 493.447 0.640775 485.473 7.63087 477.296C16.7935 466.379 25.7698 455.36 35.2912 445.076C45.1126 434.302 56.7553 425.833 70.6231 421.856C79.8114 419.082 89.8694 418.894 99.5426 421.314C108.852 423.571 116.847 428.383 124.942 433.031C129.23 435.857 133.341 438.909 137.253 442.168C140.492 444.596 144.017 446.961 147.255 449.388C150.494 451.815 154.006 454.61 157.245 457.037C158.661 458.21 160.145 459.313 161.687 460.341C167.866 464.302 174.267 467.95 180.858 471.268C192.307 476.618 204.973 479.011 217.404 478.174C230.964 477.576 243.702 473.098 253.823 465.369C258.995 461.605 263.031 456.715 265.6 451.102C268.169 445.489 269.196 439.313 268.598 433.082C267.624 422.074 263.088 412.826 257.679 404.192C251.867 394.605 244.836 385.627 236.741 377.457C230.504 370.989 224.068 364.848 217.631 358.707C211.74 353.301 205.562 347.956 199.571 342.713C192.934 336.899 186.298 331.085 179.761 325.108C173.34 319.445 168.143 312.743 164.473 305.393C160.778 297.743 160.271 289.293 163.053 281.702C165.497 275.256 169.535 269.486 174.871 264.818C184.553 255.991 195.86 248.762 208.344 243.418C226.043 235.208 244.218 229.878 262.407 224.119C278.173 219.448 293.439 213.647 308.07 206.77C321.918 200.174 334.051 191.101 343.798 180.057C358.367 163.053 366.401 141.954 366.768 119.738C366.98 107.196 366.247 94.5744 365.701 82.0544C364.609 65.5178 366.35 49.0939 370.862 33.3758C373.727 23.8138 377.537 14.3323 381.061 4.9126C383.357 -1.68716 386.026 -8.08275 388.136 -14.7844C390.882 -23.6217 392.852 -32.6863 394.027 -41.8951C395.145 -53.577 395.459 -65.3579 394.968 -77.17C394.488 -84.2899 394.907 -91.3835 396.214 -98.3113C397.851 -105.053 400.979 -110.98 408.363 -113.705C412.763 -115.469 417.829 -115.649 422.593 -114.21C429.396 -112.556 435.785 -109.507 441.26 -105.304C443.652 -103.56 446.165 -101.966 448.783 -100.533C453.053 -97.7594 456.937 -94.7614 461.207 -91.9882L466.495 -88.4398C470.765 -85.6666 475.321 -82.9548 479.491 -80.0181C483.389 -77.4487 486.9 -74.6541 490.798 -72.0848C494.137 -69.8212 497.762 -67.6194 501.001 -65.1922C505.257 -61.9901 509.6 -58.5225 513.656 -54.9933C521.914 -47.6448 528.821 -39.1413 534.077 -29.8513C538.492 -21.5622 542.149 -12.9907 545.006 -4.22954C550.64 12.1657 556.074 28.8878 563.34 44.6481C569.801 58.8775 576.749 72.7182 582.924 87.0091C589.545 102.198 594.72 118.125 599.995 133.887C602.755 142.381 606.088 150.751 608.948 159.082" stroke="#F2F4F6" stroke-width="1.5" stroke-linecap="round" stroke-linejoin="round"/>
<path d="M-103.56 522.943C-99.47 519.508 -95.38 516.072 -91.2037 512.901C-79.6251 503.893 -68.972 493.953 -59.3593 483.19C-55.4803 478.82 -52.0336 474.136 -49.0554 469.187C-44.0416 460.583 -39.8728 451.734 -38.8979 442.011C-37.1317 430.725 -40.4011 418.97 -47.9898 409.32C-54.2098 402.053 -61.168 395.321 -68.7618 389.224C-81.5468 378.576 -92.2251 366.001 -100.265 352.125C-104.855 344.101 -108.28 335.62 -110.45 326.911C-111.321 322.944 -111.701 318.929 -111.582 314.943C-111.553 311.756 -110.653 308.677 -108.962 305.983C-107.271 303.289 -104.843 301.066 -101.896 299.512C-96.6454 296.596 -90.8902 294.448 -84.8244 293.141C-71.4952 290.409 -57.7386 289.214 -43.8682 289.584C-32.1279 289.898 -20.6015 290.969 -8.76118 291.119C3.55164 291.31 15.9646 291.338 28.4011 287.668C39.9921 284.038 50.8466 278.882 60.6367 272.356C71.3656 265.788 81.8221 258.852 92.4648 252.019C105.496 243.826 119.288 236.633 133.712 230.508C142.841 226.556 152.342 222.808 161.644 219.387C173.435 215.147 185.227 210.906 197.191 207.196C210.686 203.015 224.081 198.998 237.563 195.245C251.367 191.495 264.687 186.586 277.359 180.578C287.229 175.924 295.972 169.617 303.162 161.964C309.128 155.463 313.528 147.854 316.103 139.584C319.163 129.272 319.994 118.395 318.552 107.535C317.782 99.039 316.053 90.891 314.81 82.3547C312.406 68.7702 311.448 55.0899 311.95 41.5076C312.544 32.2559 313.978 23.1138 316.237 14.1741C319.185 2.03845 322.604 -10.0567 325.266 -22.1308C328.051 -35.0582 328.924 -48.3758 327.862 -61.7378C326.784 -75.4215 325.42 -89.0435 324.629 -102.789C323.853 -115.194 325.629 -127.472 329.863 -138.987C331.506 -143.358 333.446 -147.617 335.673 -151.739C338.429 -157.324 342.14 -162.432 346.677 -166.886C350.639 -171.029 354.976 -174.859 359.647 -178.338C366.665 -183.337 374.637 -187.164 383.227 -189.658C394.976 -193.311 407.803 -193.911 420.334 -191.393C426.01 -190.373 431.543 -188.597 436.748 -186.121C441.733 -183.863 446.588 -181.351 451.29 -178.599C457.236 -174.909 462.796 -170.993 468.257 -166.914C474.276 -162.529 480.095 -157.817 486.214 -153.596C490.57 -150.557 495.026 -147.682 499.583 -144.97C509.068 -139.343 518.653 -133.879 528.339 -128.579C539.055 -122.933 550.158 -117.512 560.875 -111.866C567.87 -107.889 574.313 -103.116 580.035 -97.6704C585.808 -92.4604 590.73 -86.5289 594.633 -80.0798C598.834 -73.2692 602.014 -66.0208 604.083 -58.5415C607.737 -45.4121 609.287 -31.6881 610.737 -17.8006C612.451 1.96605 617.181 21.5961 624.788 40.5186C630.504 54.3403 636.421 67.8349 642.137 81.6565C644.076 86.2092 645.729 90.8234 647.481 95.2742" stroke="#F2F4F6" stroke-width="1.5" stroke-linecap="round" stroke-linejoin="round"/>
<path d="M-95.7427 527.223C-83.9725 517.733 -72.3022 508.407 -60.8045 498.55C-53.2289 492.02 -46.4554 484.758 -40.5891 476.877C-35.8303 470.316 -32.0029 463.245 -27.9891 456.276C-24.7646 450.356 -22.3367 444.067 -20.7553 437.538C-18.2337 428.861 -17.6188 419.712 -18.9444 410.596C-20.3412 402.006 -25.0209 393.953 -32.1462 387.877C-37.4926 383.205 -43.4254 379.085 -49.258 374.802C-57.8571 368.133 -65.8699 360.911 -71.6239 351.215C-74.5649 346.321 -76.2123 340.928 -76.4267 335.493C-76.6968 326.179 -72.6105 319.905 -63.754 315.585C-57.4734 312.715 -50.4535 311.253 -43.2435 311.315C-31.2894 310.873 -19.8903 312.965 -8.30502 315.158C1.96277 317.067 11.9443 319.038 22.7808 317.984C31.966 316.894 40.5643 313.727 47.8089 308.766C57.2928 302.608 65.0416 294.409 73.1493 286.843C81.8431 278.725 90.4508 270.342 99.7759 263.224C116.622 250.436 135.339 239.776 155.47 231.505C163.154 228.29 170.737 225.239 178.694 222.391C187.323 219.257 195.952 216.123 204.853 213.356C216.245 209.769 227.809 206.713 239.287 203.392C256.99 198.022 274.879 192.753 291.488 183.074C299.781 178.369 307.106 172.43 313.183 165.486C320.904 156.51 325.995 145.816 328.017 134.322C329.625 123.893 329.712 113.229 328.275 102.601C326.639 88.6115 324.63 74.4185 323.28 60.3675C322.385 47.5559 323.56 34.8161 326.766 22.557C329.713 10.4214 333.133 -1.67409 336.553 -13.7694C340.779 -29.2929 342.13 -45.5093 340.555 -61.7726C339.464 -75.0273 337.8 -88.1589 336.809 -101.577C336.032 -112.526 337.374 -123.39 340.774 -133.669C347.777 -154.061 361.216 -168.312 381.45 -175.788C391.161 -179.427 401.916 -180.615 412.642 -179.233C418.102 -178.726 423.482 -177.335 428.525 -175.124C434.015 -172.918 439.348 -170.364 444.484 -167.482C449.419 -164.524 454.188 -161.331 458.771 -157.918C462.755 -155.083 466.839 -152.411 470.636 -149.678C474.434 -146.946 477.845 -143.988 481.643 -141.255C484.509 -139.032 487.576 -137.135 490.542 -135.076C508.54 -123.044 528.238 -113.792 547.123 -102.804C557.686 -96.8591 567.132 -89.3251 575.027 -80.5494C583.334 -70.4724 589.123 -58.9447 591.952 -46.8459C594.558 -35.4838 596.438 -24.0347 597.581 -12.5581C599.68 5.3307 604.205 23.055 611.052 40.2055C616.424 52.9654 621.795 65.7255 627.067 78.6489C631.103 88.7141 634.653 99.1679 638.404 109.295C638.49 109.56 638.762 109.928 638.848 110.193" stroke="#F2F4F6" stroke-width="1.5" stroke-linecap="round" stroke-linejoin="round"/>
<path d="M93.4636 -382.898C95.1337 -382.869 96.8066 -382.755 98.4748 -382.556C104.417 -381.704 110.546 -380.751 116.289 -379.572C123.827 -378.202 131.301 -376.444 138.673 -374.306C143.514 -372.742 148.159 -370.64 152.498 -368.051C159.1 -363.702 165.467 -359.052 171.572 -354.121C180.53 -346.818 189.288 -339.188 198.145 -331.722C204.882 -326.072 211.705 -320.156 218.441 -314.506C221.58 -311.915 225.105 -309.549 228.344 -307.122C232.787 -303.818 237.043 -300.616 241.586 -297.476C243.535 -296.191 245.383 -294.743 247.246 -293.723C257.018 -288.158 266.975 -282.49 276.747 -276.925C281.031 -274.58 285.901 -272.788 289.985 -270.117C295.186 -266.834 300.301 -263.817 304.316 -259.001C309.694 -252.348 310.405 -244.975 306.064 -236.657C303.437 -231.548 300.623 -226.541 297.437 -221.738C294.25 -216.934 290.319 -212.539 286.946 -207.837C284.274 -204.281 281.974 -200.52 279.115 -197.065C272.529 -188.26 266.569 -179.058 261.27 -169.513C257.704 -163.288 254.525 -156.868 251.746 -150.283C247.391 -140.03 243.977 -129.418 241.538 -118.552C239.118 -108.092 237.07 -97.4274 234.937 -87.0287C232.662 -75.1798 230.673 -63.3923 228.498 -51.7068C226.764 -41.9622 225.031 -32.2177 223.111 -22.575C219.137 -1.35207 219.011 20.5415 222.739 42.2547C223.936 49.2388 225.034 56.3863 226.518 63.3088C228.664 73.2127 231.383 82.9934 233.343 92.7954C235.409 101.602 235.89 110.565 234.767 119.326C234.128 124.717 232.185 129.837 229.075 134.324C226.036 138.382 222.451 142.061 218.395 145.284C209.739 151.859 199.915 157.086 189.28 160.776C180.551 164.074 171.723 167.535 162.921 170.139C150.385 173.972 137.862 177.376 125.339 180.78C116.924 183.158 108.608 185.373 100.293 187.588C87.7704 190.992 75.2477 194.396 62.6249 197.963C58.231 199.051 54.0097 200.669 49.6159 201.756C30.8679 207.209 12.4063 212.601 -6.60414 214.418C-22.5795 216.151 -38.4862 215.739 -53.4241 211.711C-58.308 210.348 -63.0782 208.392 -67.7621 206.702C-75.1823 203.689 -81.7539 199.042 -86.8504 193.201C-91.5967 187.817 -95.1117 181.655 -97.1682 175.115C-99.6505 167.782 -100.408 160.149 -99.3885 152.732C-98.0581 143.251 -94.161 134.366 -88.0409 126.862C-79.1621 115.469 -68.0024 105.758 -55.0931 98.1906C-39.929 89.2486 -24.4061 80.9393 -9.06956 72.5281C-1.30446 68.442 5.82367 63.4753 12.1572 57.7379C15.8102 54.3047 19.0431 50.5167 21.8059 46.4327C26.787 38.8411 29.268 30.001 28.9734 20.8937C28.5705 12.2984 27.0648 3.7104 24.4868 -4.69429C20.3099 -19.3358 16.9879 -34.121 14.535 -48.9856C12.3985 -62.1575 11.3207 -75.841 9.47047 -89.0744C7.05774 -105.453 3.97247 -121.544 -1.70283 -136.653C-5.3341 -146.596 -9.77422 -156.321 -14.9847 -165.744C-18.6586 -172.338 -22.7186 -178.706 -26.3926 -185.299C-26.6942 -185.99 -26.9253 -186.701 -27.0826 -187.423" stroke="#F2F4F6" stroke-width="1.5" stroke-linecap="round" stroke-linejoin="round"/>
<path d="M-60.3357 546.152C-59.5632 545.702 -58.7044 545.517 -57.9319 545.067C-49.4067 539.257 -40.8815 533.447 -32.6289 527.27C-20.0999 517.759 -7.57082 508.248 3.3231 496.532C12.7445 486.412 22.0795 476.026 31.5009 465.906C40.136 456.664 49.3301 447.728 60.5178 441.63C73.6368 434.406 86.5771 432.758 99.6525 435.767C109.061 437.86 117.057 442.672 125.152 447.32C130.242 450.584 135.16 454.076 139.884 457.783C144.326 461.087 148.383 464.616 152.825 467.92C156.25 470.449 159.876 472.651 163.215 474.915C167.398 477.422 171.382 480.257 175.58 482.336C185.527 487.357 196.441 490.346 207.518 491.085C221.79 491.925 235.859 489.677 248.571 484.525C258.159 481.012 266.694 475.644 273.619 468.771C277.787 464.645 280.886 459.701 282.71 454.266C284.534 448.831 285.042 443.028 284.2 437.244C283.021 428.085 279.896 419.109 275.002 410.823C268.918 399.817 261.386 389.463 252.583 380.006C241.959 368.518 231.235 357.193 220.025 346.257C210.291 336.566 200.07 327.263 191.409 316.631C186.329 310.836 182.775 304.101 181.046 296.993C179.62 290.577 180.324 284.042 183.068 278.241C187.837 268.411 195.731 261.601 204.442 255.893C213.875 249.665 224.228 244.622 235.246 240.889C244.448 237.631 253.463 234.272 262.665 231.014C268.417 228.925 274.429 227.632 280.181 225.542C294.176 220.543 308.272 215.381 321.405 207.728C333.386 201.022 343.964 192.512 352.725 182.531C357.383 177.292 361.436 171.616 364.829 165.586C370.632 155.121 374.544 143.788 376.424 131.994C378.895 116.979 378.318 102.478 378.226 87.5882C378.129 78.8055 378.69 70.1652 379.065 61.4229C379.94 50.7546 382.312 40.3194 386.124 30.3692C388.934 22.5229 392.303 14.9822 395.486 7.33984C401.751 -7.78143 408.016 -22.9024 412.591 -38.512C414.814 -45.8062 417.325 -53.1621 419.835 -60.5178C423.686 -71.286 431.038 -75.9915 441.42 -74.675C446.772 -73.8279 451.998 -72.2203 456.903 -69.912C461.412 -68.1253 465.81 -66.0833 470.068 -63.7987C477.046 -59.762 483.538 -55.337 490.315 -50.9733C496.605 -46.9296 502.289 -42.1287 507.2 -36.7142C513.721 -29.9585 519.164 -22.42 523.35 -14.3457C531.402 0.535494 536.75 16.9924 543.929 32.4874C551.108 47.9823 558.487 63.1504 565.766 78.4818C573.208 94.0209 579.599 109.909 584.899 126.052C589.816 141.181 594.26 156.27 600.335 170.725C600.422 170.99 600.694 171.358 600.78 171.623" stroke="#F2F4F6" stroke-width="1.5" stroke-linecap="round" stroke-linejoin="round"/>
<path d="M79.1736 -359.522C79.3491 -359.723 79.5451 -359.908 79.7597 -360.074C89.9725 -356.449 100.527 -354.602 110.967 -352.162C119.431 -350.149 127.709 -348.238 135.873 -345.735C140.916 -344.072 145.827 -342.041 150.556 -339.664C153.949 -338.351 157.228 -336.775 160.355 -334.956C165.556 -331.673 170.471 -328.329 175.573 -324.883C178.539 -322.823 181.605 -320.926 184.472 -318.703C187.711 -316.276 190.949 -313.849 194.088 -311.258C197.972 -308.26 201.856 -305.262 205.64 -302.1C208.32 -299.978 210.9 -297.694 213.58 -295.572C217.464 -292.574 221.348 -289.576 225.132 -286.414C229.661 -282.844 234.09 -279.111 238.705 -275.276C243.32 -271.441 247.949 -268.035 252.278 -264.139C257.897 -259.1 263.129 -253.836 266.403 -246.588C269.501 -238.802 269.501 -230.44 266.406 -223.018C264.328 -217.175 261.642 -211.559 258.382 -206.24C254.582 -200.027 250.869 -193.548 247.255 -187.233C243.641 -180.918 240.113 -174.337 237.058 -167.716C230.349 -153.805 224.85 -139.378 220.609 -124.561C216.875 -111.546 213.514 -98.3275 209.494 -85.2511C205.674 -72.5018 201.195 -59.8947 197.189 -47.2473C194.01 -36.7658 190.745 -26.5498 188.325 -16.0896C186.137 -5.91183 185.735 4.61932 187.135 15.1214C188.944 29.6417 193.729 42.9536 197.942 56.3888C200.861 65.8424 203.494 75.3575 206.413 84.8112C208.998 93.3782 209.997 102.19 209.368 110.871C208.763 118.34 205.845 125.365 200.948 131.141C194.83 138.705 187.005 143.37 179.008 147.505C166.957 153.767 154.084 158.727 140.629 162.293C124.471 166.763 107.955 170.6 91.8106 174.641C76.9115 178.272 62.2986 181.842 47.4995 185.31C33.9817 188.787 20.2272 191.604 6.29229 193.749C-4.63283 195.444 -15.8825 195.615 -27.0799 194.254C-35.0513 193.23 -42.7775 190.569 -49.6679 186.476C-59.1257 179.991 -65.1935 171.215 -63.2499 157.875C-62.5157 153.439 -61.004 149.184 -58.7712 145.268C-54.0139 137.497 -47.6592 130.689 -40.0283 125.19C-28.7581 116.518 -16.3529 110.868 -4.12015 104.686C5.5088 99.9168 15.1378 95.1473 24.508 89.5816C34.8701 83.4715 44.0841 75.9392 51.8521 67.2279C58.6171 59.8355 63.4547 51.0938 66.0348 41.5996C68.246 32.9274 68.052 23.7547 65.4696 14.884C62.3037 5.59105 58.1829 -3.46051 53.164 -12.1456C46.4612 -24.7611 40.0446 -37.4382 36.6182 -51.7525C33.768 -63.3509 31.304 -75.1743 28.8401 -86.9978C27.1974 -94.8801 26.041 -103.151 24.3983 -111.033C21.2944 -126.659 16.0546 -141.992 8.80371 -156.666C4.16725 -165.751 -0.755522 -174.773 -5.77824 -183.632C-9.19339 -189.429 -13.0948 -194.838 -16.6099 -200.471C-16.9116 -201.162 -17.1425 -201.873 -17.2999 -202.595" stroke="#F2F4F6" stroke-width="1.5" stroke-linecap="round" stroke-linejoin="round"/>
<path d="M-49.9186 552.305C-41.3934 546.495 -32.8682 540.685 -24.2431 534.711C-11.4764 526.224 0.456273 516.771 11.4402 506.445C19.1616 499.105 26.4242 491.294 33.7731 483.75C42.3945 474.937 51.2021 466.227 62.0173 459.924C72.06 454.072 82.5651 451.528 93.2329 452.783C100.704 453.748 107.964 456.157 114.517 459.848C121.567 463.737 128.245 468.195 134.464 473.164C140.283 477.876 146.102 482.588 152.121 486.973C157.016 490.557 162.095 493.92 167.339 497.046C171.22 499.497 175.265 501.711 179.446 503.672C186.523 506.642 194.023 508.533 201.63 509.265C215.033 510.099 228.334 508.728 240.896 505.219C254.789 501.75 267.99 496.57 280.147 489.817C287.293 485.915 293.523 480.823 298.539 474.785C303.804 468.132 306.518 459.995 306.296 451.533C305.994 440.239 301.858 430.337 297.235 420.824C291.881 410.258 285.274 400.2 277.538 390.84C266.61 377.004 254.61 364.108 242.51 351.376C234.811 343.234 227.211 334.93 219.999 326.4C213.975 319.782 209.093 312.395 205.538 304.519C202.569 298.095 201.8 291.119 203.335 284.546C204.355 280.424 206.213 276.559 208.818 273.143C217.208 262.677 228.023 256.374 239.656 251.173C247.54 247.631 255.782 244.722 263.839 241.711C271.223 238.987 278.693 236.528 285.977 233.967C300.639 229.016 314.747 222.941 328.159 215.805C341.39 208.564 353.135 199.375 362.956 188.582C366.001 185.229 368.674 181.672 371.346 178.115C373.607 175.297 375.604 172.303 377.318 169.162C383.481 158.399 387.963 146.831 390.645 134.773C394.061 119.838 394.342 105.152 395.01 90.2413C395.636 76.6171 396.734 63.0333 400.868 49.3645C402.857 42.4855 405.384 35.7736 408.429 29.2784C410.957 24.3328 413.398 19.1217 415.926 14.1761C420.153 6.45093 424.567 -1.17202 429.353 -8.59145C433.3 -15.0467 438.664 -20.6408 445.137 -25.0506C448.617 -27.3468 452.697 -28.8255 457.044 -29.3661C461.392 -29.9067 465.886 -29.4942 470.159 -28.1619C475.37 -26.7567 480.289 -24.436 484.628 -21.335C489.018 -18.1425 493.092 -14.5974 496.797 -10.7474C502.608 -4.70456 507.556 1.96694 511.513 9.09025C515.646 16.1529 519.292 23.6039 523.225 30.9936C528.938 41.9761 534.55 53.1223 540.363 63.9413C551.285 83.8849 561.72 104.217 568.879 126.248C573.292 139.356 577.319 152.689 581.831 165.634C584.519 173.433 587.879 180.946 591.139 188.623" stroke="#F2F4F6" stroke-width="1.5" stroke-linecap="round" stroke-linejoin="round"/>
<path d="M-89.9689 530.382C-80.6299 522.835 -71.2047 515.554 -61.8658 508.007C-52.0698 500.038 -43.0156 491.349 -34.7841 482.018C-27.8786 474.183 -21.9218 465.669 -17.0076 456.61C-13.7801 450.52 -11.0251 444.389 -8.17009 438.096C-1.21882 422.259 2.62488 405.812 8.25861 389.691C11.4494 379.593 18.3705 370.998 27.8975 365.303C36.1089 360.412 44.4204 355.358 52.7318 350.304C62.0267 344.568 69.3669 336.628 74.0333 327.263C77.6746 320.09 80.1984 312.305 83.8397 305.132C87.3313 298.61 91.2032 292.279 95.4399 286.165C100.158 279.442 105.693 273.253 111.951 267.703C117.789 262.227 124.163 257.245 131.002 252.813C143.106 244.976 156.007 238.162 169.559 232.449C174.939 230.156 180.319 227.862 185.785 225.835C193.455 223.048 201.226 220.099 209.068 217.844C221.605 214.011 234.414 210.545 246.95 206.712C263.036 201.548 279.394 196.751 294.83 188.176C304.897 182.862 313.669 175.823 320.702 167.417C328.441 158.071 333.622 147.098 335.85 135.333C337.55 123.965 337.635 112.352 336.104 100.774C334.685 88.8677 332.98 77.0229 332.034 65.157C330.957 52.2909 332.006 39.4757 335.147 27.1427C338.508 13.924 342.815 0.785836 346.362 -12.3309C350.874 -28.4373 352.28 -45.3069 350.519 -62.2132C349.3 -74.4465 347.609 -86.7204 346.676 -99.0153C345.568 -110.088 346.822 -121.112 350.37 -131.474C357.631 -151.07 370.929 -163.87 390.981 -168.61C401.734 -171.185 413.334 -170.496 424.084 -166.644C430.847 -164.498 437.319 -161.543 443.323 -157.861C448.711 -154.477 453.798 -150.601 458.986 -146.889C463.801 -143.381 468.53 -140.139 473.345 -136.631C477.143 -133.898 480.927 -130.736 484.725 -128.003C488.249 -125.412 491.903 -122.975 495.672 -120.703C505.53 -114.872 515.202 -109.143 525.06 -103.312C529.616 -100.6 534.086 -98.154 538.542 -95.2789C543.271 -92.0364 547.9 -88.6302 552.715 -85.1222C558.105 -81.151 562.902 -76.5425 566.965 -71.4324C574.097 -62.5541 579.14 -52.4996 581.75 -41.9544C583.679 -34.1336 585.408 -25.9859 586.764 -18.042C588.162 -11.385 588.701 -4.54332 590.099 2.11375C593.15 17.3039 597.812 32.2808 604.017 46.8297C612.317 65.7753 620.431 84.6189 627.287 104.301C629.198 109.712 631.196 115.388 633.007 120.962" stroke="#F2F4F6" stroke-width="1.5" stroke-linecap="round" stroke-linejoin="round"/>
<path d="M63.3565 -333.253C64.7175 -333.112 66.072 -332.881 67.4091 -332.563C81.7333 -327.125 97.1125 -325.038 112.078 -321.868C120.083 -320.324 128.175 -318.515 136.066 -316.379C141.76 -314.577 147.328 -312.406 152.725 -309.881C157.055 -308.056 161.262 -305.972 165.318 -303.644C170.247 -300.729 174.876 -297.323 179.605 -294.08C189.313 -287.227 198.247 -279.485 206.251 -270.988C213.405 -263.581 220.259 -255.684 224.495 -245.945C228.439 -236.572 229.143 -226.496 226.509 -217.128C224.31 -209.438 221.472 -201.945 218.021 -194.713C212.811 -182.942 207.601 -171.172 203.136 -158.994C198.357 -145.896 194.709 -132.616 190.303 -119.314C186.598 -106.602 182.054 -94.1502 176.694 -82.0241C173.953 -76.3225 171.498 -70.6825 168.571 -65.0829C165.843 -59.8103 163.202 -54.272 159.915 -49.3052C155.339 -41.8921 150.301 -34.7409 144.825 -27.8838C140.738 -22.4914 135.621 -17.8367 129.696 -14.1213C126.941 -12.5139 123.799 -11.4902 120.484 -11.1201C117.169 -10.7499 113.759 -11.042 110.486 -11.9764C104.098 -13.7261 98.9104 -17.4379 93.5365 -21.2516C85.6401 -27.127 78.7024 -34.0151 72.9647 -41.6754C66.0005 -50.9602 60.8108 -61.1877 57.6339 -71.8881C54.8013 -81.0763 52.7411 -90.7146 50.3947 -100.291C46.8095 -115.566 43.6104 -131.065 38.1076 -145.642C34.4069 -155.54 29.8355 -165.195 24.4396 -174.509C20.2069 -181.408 16.3604 -188.532 12.0277 -195.268C6.97751 -203.269 1.64112 -211.209 -3.59535 -219.312C-4.11305 -220.278 -4.49478 -221.294 -4.73058 -222.333" stroke="#F2F4F6" stroke-width="1.5" stroke-linecap="round" stroke-linejoin="round"/>
<path d="M-189.365 485.611C-187.198 473.119 -186.724 460.334 -187.956 447.537C-189.656 433.81 -193.199 420.217 -198.504 407.066C-202.186 398.167 -205.094 389.059 -207.202 379.829C-209.183 370.912 -208.598 361.827 -205.504 353.479C-202.454 345.367 -197.611 338.001 -191.259 331.813C-185.01 326.066 -178.862 320.484 -172.254 315.37C-166.519 310.871 -160.411 306.575 -156.052 300.667C-152.838 296.342 -151.217 291.139 -151.405 285.752C-151.196 278.424 -152.304 271.037 -154.684 263.88C-158.379 252.038 -161.974 240.032 -166.528 228.374C-173.453 210.836 -181.049 193.585 -188.259 176.109C-192.482 165.942 -196.419 155.713 -200.255 145.321C-203.581 136.408 -205.145 127.123 -204.873 117.915C-204.677 110.855 -203.076 103.968 -200.147 97.5874C-195.664 87.8194 -188.515 80.6018 -180.535 74.0572C-170.024 65.4062 -158.15 58.5918 -146.821 51.0428C-131.959 41.7679 -118.499 30.815 -106.734 18.4219C-102.256 13.6791 -98.2852 8.54758 -94.8713 3.09038C-92.3713 -0.997312 -89.3987 -5.04482 -87.2712 -9.33637C-84.4163 -15.1021 -81.9479 -21.0383 -79.8787 -27.1141C-75.4859 -41.0106 -73.6106 -55.6033 -74.324 -70.3394C-74.4831 -80.0627 -75.9531 -89.8087 -78.7007 -99.3587C-78.85 -100.164 -78.8558 -100.978 -78.7181 -101.769" stroke="#F2F4F6" stroke-width="1.5" stroke-linecap="round" stroke-linejoin="round"/>
<path d="M176.535 422.653C173.869 420.103 171.202 417.553 168.822 414.941C166.051 412.169 164.155 408.784 163.355 405.183C162.914 403.226 162.946 401.232 163.447 399.342C163.944 398.172 164.81 397.18 165.941 396.483C167.072 395.787 168.422 395.415 169.827 395.413C172.206 395.241 174.631 395.596 176.901 396.448C185.664 399.525 192.963 405.558 197.211 413.235C198.775 415.91 199.377 418.919 198.926 421.812C198.579 423.193 197.818 424.436 196.726 425.409C195.39 426.565 193.7 427.336 191.848 427.634C189.997 427.932 188.057 427.745 186.248 427.096C183.068 425.792 179.902 424.059 176.821 422.592" stroke="#F2F4F6" stroke-width="1.5" stroke-linecap="round" stroke-linejoin="round"/>
<path d="M32.462 148.931C28.3743 143.421 30.3019 139.456 34.4332 134.733C41.8095 126.331 50.562 119.336 58.8559 111.872C67.1498 104.408 74.8712 97.0673 82.9789 89.5013C92.559 80.3406 101.767 70.976 111.719 62.0191C117.968 56.273 125.293 52.4253 133.526 52.7841C138.537 52.9763 143.41 54.8648 147.191 58.08C150.023 60.24 152.643 62.6237 155.018 65.2C161.9 72.5483 166.941 81.1302 169.755 90.2867C171.468 95.6718 172.03 101.242 171.409 106.686C170.282 115.016 165.95 122.532 159.167 127.921C152.447 133.288 144.722 137.541 136.306 140.507C116.072 147.984 95.6024 150.967 74.9881 152.562C64.2654 153.623 53.3515 153.443 42.5021 152.025C39.1481 151.66 35.8784 150.616 32.9344 148.972" stroke="#F2F4F6" stroke-width="1.5" stroke-linecap="round" stroke-linejoin="round"/>
</g>
</svg>
