<svg width="391" height="319" viewBox="0 0 391 319" fill="none" xmlns="http://www.w3.org/2000/svg">
<g clip-path="url(#clip0_1052_55805)">
<path d="M353.542 368.875C356.366 365.068 359.067 361.262 362.014 357.578C366.132 352.649 370.833 348.237 376.013 344.439C380.925 340.755 386.082 337.317 391.116 333.879C402.045 326.511 412.114 318.284 419.359 308.338C423.632 302.551 427.14 296.236 429.796 289.551C431.461 285.075 432.775 280.477 433.726 275.798C434.343 272.308 434.712 268.779 434.831 265.238C435.076 262.413 435.199 259.466 435.199 256.642C435.199 252.59 434.953 248.538 434.831 244.363C434.708 239.942 434.34 235.522 434.585 230.978C434.954 223.979 435.936 216.98 438.883 210.349C441.094 204.826 444.791 200.023 449.566 196.473C453.577 193.661 458.303 192.043 463.196 191.807C467.985 191.439 472.896 191.316 477.685 190.948C483.152 190.634 488.537 189.475 493.649 187.509C496.089 186.546 498.432 185.354 500.648 183.948C506.224 180.302 510.651 175.151 513.418 169.09C515.623 164.663 517.036 159.884 517.593 154.969C517.981 152.326 518.186 149.659 518.207 146.988C518.084 143.672 517.593 140.48 517.225 137.287C516.857 134.34 516.365 131.393 516.243 128.323C515.997 124.025 515.874 119.605 515.874 115.307C516.021 113.033 516.349 110.775 516.857 108.553C517.102 106.711 517.348 104.747 517.593 102.905C517.962 100.695 518.33 98.3615 518.576 96.1512L518.944 92.8358C519.067 90.9939 519.067 89.152 519.312 87.3101C520.295 79.2058 520.049 70.9787 519.926 62.8743C519.782 59.2988 519.454 55.7331 518.944 52.1913C518.698 50.2266 518.576 48.2619 518.207 46.2972C517.839 43.5958 517.471 40.7715 516.857 38.0701C515.637 32.5059 513.868 27.0764 511.576 21.8613C508.338 14.5382 503.661 7.94052 497.824 2.46002C493.221 -1.79877 487.899 -5.20788 482.106 -7.60904C477.748 -9.53766 472.986 -10.3804 468.23 -10.0649C463.987 -9.80812 459.883 -8.45415 456.32 -6.1355C448.706 -1.22378 443.795 5.1615 439.865 12.1607C436.994 17.2563 434.688 22.6503 432.989 28.2466C431.882 32.284 431.021 36.3846 430.41 40.5259C429.473 45.3779 429.143 50.3276 429.428 55.2611C429.573 58.0222 429.901 60.7706 430.41 63.4883C430.958 66.762 431.696 70.001 432.62 73.1889C434.941 80.4706 438.379 87.3473 442.812 93.5726C446.25 98.4843 449.934 103.273 453.495 108.062C456.197 111.746 458.775 115.43 459.758 119.605C461.354 125.867 459.758 131.516 454.109 136.427C452.118 138.206 449.776 139.544 447.233 140.357C444.653 141.159 441.934 141.41 439.251 141.094C433.814 140.226 428.575 138.396 423.779 135.691C414.201 130.902 404.746 125.867 394.432 121.938C386.009 118.772 377.287 116.468 368.399 115.061C361.782 114.017 355.076 113.647 348.384 113.956C342.688 114.261 337.023 115 331.439 116.167C323.81 117.898 316.366 120.365 309.213 123.534C303.687 125.99 298.285 128.569 293.005 131.27C283.549 135.936 274.094 140.357 264.025 144.163C256.044 147.11 247.817 149.935 239.958 153.127C232.632 156.07 225.635 159.774 219.083 164.179C210.488 169.827 203.12 176.335 195.138 182.475C190.786 185.982 185.946 188.836 180.772 190.948C176.941 192.442 172.848 193.152 168.738 193.035C163.789 192.788 158.942 191.534 154.494 189.351C148.622 186.455 143.066 182.957 137.917 178.914C134.847 176.581 131.777 174.125 128.83 171.669C121.954 165.898 115.2 160.127 108.446 154.355C104.762 151.163 100.956 147.97 97.2722 144.9C89.9046 138.761 82.5369 132.621 75.0465 126.604C66.2054 119.605 56.9959 112.974 48.2776 105.975C40.6147 99.859 33.8375 92.7098 28.1396 84.7315C23.0939 77.6292 18.8908 69.9646 15.6147 61.8919C13.8712 57.8189 12.7135 53.5193 12.1765 49.1214C11.789 46.5606 11.5838 43.9754 11.5625 41.3855C11.7211 37.3585 12.5082 33.3811 13.8955 29.5973C17.3337 20.1422 23.4734 11.9151 31.2094 4.42468C36.1527 -0.552168 41.9293 -4.62491 48.2776 -7.60904C52.8415 -9.65897 57.766 -10.7858 62.7672 -10.9245C68.9857 -10.9448 75.1657 -9.94929 81.0633 -7.9774C88.4309 -5.64433 95.5531 -3.18847 102.798 -0.60981C111.393 2.46002 119.989 5.77541 128.953 8.10848C133.299 9.26303 137.735 10.0436 142.214 10.4416C151.547 11.4239 160.265 9.70485 168.738 6.63502C178.711 2.98336 188.398 -1.40851 197.717 -6.50387C204.4 -9.99673 210.841 -13.935 216.996 -18.2921C225.154 -23.9917 232.505 -30.7653 238.853 -38.4301C241.554 -41.6227 243.887 -45.061 246.466 -48.4992C246.856 -48.9706 247.31 -49.3841 247.817 -49.7271" stroke="#DFE4E8" stroke-linecap="round" stroke-linejoin="round"/>
<path d="M322.106 368.875C324.44 365.928 326.65 363.104 328.983 360.279C334.14 354.14 339.175 348 344.578 341.983C349.671 336.338 355.446 331.348 361.769 327.125C367.908 322.95 374.171 318.898 380.188 314.6C389.397 308.215 397.133 300.725 402.29 291.761C405.093 286.95 407.123 281.729 408.307 276.289C409.241 272.347 409.695 268.306 409.658 264.255C409.658 262.782 410.026 261.431 409.904 259.957C409.781 255.905 409.535 251.853 409.29 247.678C409.044 244.486 408.798 241.17 408.676 237.977C408.43 233.189 408.307 228.4 408.307 223.488C408.43 220.172 408.921 216.857 409.29 213.542C409.658 210.717 409.904 207.893 410.272 205.192C410.64 202.736 411.132 200.28 411.5 197.947C411.746 196.105 412.237 194.263 412.359 192.421C412.809 188.591 413.014 184.735 412.973 180.879C412.605 169.459 408.185 159.021 398.73 150.18C392.89 144.713 386.053 140.419 378.591 137.533C373.414 135.446 367.948 134.163 362.383 133.726C359.531 133.379 356.66 133.215 353.787 133.235C346.929 133.462 340.143 134.703 333.649 136.919C323.58 140.234 314.984 145.514 306.389 150.794C297.793 156.074 289.075 161.723 279.006 165.284C274.586 166.88 269.919 168.354 265.376 169.704C256.658 172.283 247.94 174.616 239.712 178.054C233.656 180.523 227.891 183.653 222.521 187.387C216.996 191.316 211.593 195.614 206.067 199.543C200.787 203.35 195.629 207.156 189.121 209.858C184.177 211.978 178.857 213.081 173.478 213.103C168.098 213.124 162.77 212.062 157.809 209.981C153.624 208.197 149.598 206.061 145.776 203.595C142.171 201.381 138.725 198.919 135.461 196.228C130.917 192.544 126.742 188.737 122.322 184.931C120.726 183.58 119.252 182.229 117.656 181.001C108.078 173.143 98.6228 165.161 88.7993 157.548C80.8856 151.302 72.5575 145.599 63.8722 140.48C53.926 134.708 43.8572 129.06 34.0337 123.289C24.9058 117.949 16.9994 110.754 10.8256 102.168C6.15949 95.5374 2.10726 88.5381 -1.82213 81.6617C-6.48827 73.5574 -11.1543 65.5758 -15.5749 57.4714C-17.4018 54.2095 -18.7264 50.6909 -19.5042 47.034C-20.6322 41.6043 -19.806 35.9507 -17.1713 31.0709C-13.6491 24.2634 -9.36459 17.8781 -4.4006 12.0379C2.47582 3.56522 9.35224 -4.90748 16.4742 -13.2574C20.8948 -18.4147 25.5608 -23.4492 30.4725 -28.361C34.814 -32.7439 39.9922 -36.2099 45.6991 -38.5529C49.0677 -39.9033 52.6351 -40.6914 56.2591 -40.8859C63.3259 -41.2379 70.3803 -39.9782 76.8884 -37.2021C85.7296 -33.7639 94.4479 -30.2029 103.289 -26.6419C112.005 -23.202 121.06 -20.6912 130.303 -19.1515C136.969 -18.1709 143.722 -17.9239 150.441 -18.4148C158.414 -18.9233 166.271 -20.5776 173.772 -23.3265C180.735 -25.7186 187.441 -28.8039 193.788 -32.536C201.344 -37.0125 208.28 -42.462 214.417 -48.7447C214.907 -49.1698 215.443 -49.5403 216.013 -49.8498" stroke="#DFE4E8" stroke-linecap="round" stroke-linejoin="round"/>
<path d="M341.876 368.758C347.136 360.697 353.272 353.243 360.172 346.532C364.993 341.981 370.212 337.872 375.767 334.253C381.17 330.692 386.327 326.885 391.607 323.324C398.239 318.74 404.227 313.289 409.412 307.116C414.878 300.711 419.011 293.28 421.569 285.258C422.674 281.452 423.779 277.645 424.638 273.839C425.13 271.26 425.13 268.681 425.375 266.103C425.498 264.138 425.744 262.05 425.744 260.086C425.744 257.262 425.621 254.437 425.375 251.613C425.252 248.666 425.007 245.596 424.638 242.649C424.005 236.86 423.8 231.032 424.024 225.213C424.147 222.02 424.638 218.827 425.007 215.635C425.866 207.899 428.445 200.408 430.655 192.918C431.883 189.111 432.988 185.305 433.848 181.375C435.352 175.117 434.384 168.519 431.146 162.956C427.758 157.461 423.626 152.461 418.867 148.098C412.325 141.841 404.924 136.548 396.887 132.381C387.345 127.1 376.886 123.682 366.066 122.312C362.996 121.943 359.926 121.575 356.734 121.452C353.503 121.268 350.264 121.268 347.033 121.452C342.575 121.94 338.147 122.677 333.771 123.663C325.116 125.684 316.772 128.864 308.967 133.118L286.864 144.906C279.057 148.973 270.925 152.382 262.551 155.098C254.938 157.676 247.08 160.255 239.712 163.079C231.929 166.059 224.578 170.065 217.855 174.99C212.083 179.288 206.435 183.708 200.786 188.006C196.589 191.371 192.111 194.37 187.402 196.97C181.854 199.916 175.63 201.356 169.351 201.145C166.115 201.002 162.922 200.339 159.896 199.18C153.349 196.934 147.242 193.569 141.846 189.234C137.793 186.164 133.741 183.217 129.935 180.025C123.672 174.867 117.655 169.464 111.516 164.184C109.797 162.711 107.955 161.114 106.113 159.641C103.166 157.185 100.219 154.729 97.2718 152.396C92.9741 148.835 88.6761 145.151 84.1327 141.713C77.5019 136.679 70.6255 131.767 63.8718 126.855C58.7145 123.171 53.4346 119.61 48.4001 115.804C44.2251 112.734 40.0501 109.664 36.1207 106.349C30.5878 101.628 25.6774 96.2224 21.5082 90.2628C18.6839 86.2106 15.9825 82.1584 13.5266 77.8606C8.82093 70.0868 5.10819 61.7538 2.47522 53.0565C1.0696 48.0695 0.57057 42.8706 1.00177 37.7073C1.63403 32.2492 3.38996 26.9812 6.15902 22.2353C9.80493 15.626 14.1258 9.41232 19.0523 3.69357C23.2594 -1.17042 27.7277 -5.80244 32.437 -10.1821C36.4236 -13.8677 40.8834 -17.0061 45.6987 -19.5144C50.2856 -21.8986 55.3871 -23.1213 60.5565 -23.0753C67.2749 -23.052 73.9328 -21.8037 80.2034 -19.3915C86.7114 -17.1813 93.0966 -14.7254 99.4819 -12.3923C107.268 -9.39556 115.223 -6.85362 123.304 -4.7792C128.744 -3.39115 134.288 -2.44658 139.881 -1.95489C144.954 -1.60789 150.048 -1.69006 155.107 -2.20049C165.054 -3.30563 174.14 -6.37545 182.981 -9.93645C192.479 -13.7357 201.536 -18.5528 209.996 -24.3033C217.476 -29.3572 224.248 -35.3864 230.134 -42.2311C231.976 -44.3186 233.695 -46.5289 235.537 -48.7392C235.841 -49.0138 236.17 -49.2604 236.519 -49.4759" stroke="#DFE4E8" stroke-linecap="round" stroke-linejoin="round"/>
<path d="M330.578 368.758C335.367 362.618 340.156 356.601 345.068 350.462C350.93 343.381 357.701 337.105 365.206 331.797C370.609 327.868 376.503 324.307 382.029 320.5C390.501 314.729 398.115 308.466 403.886 300.853C411.058 291.292 415.321 279.867 416.165 267.945C416.288 263.647 416.533 259.472 416.411 255.174C416.411 251.981 416.042 248.912 415.797 245.719C415.551 242.772 415.183 239.948 415.183 237.001C414.937 231.843 414.814 226.686 414.814 221.652C414.96 218.728 415.288 215.816 415.797 212.933C416.165 209.741 416.656 206.548 417.148 203.355C417.639 200.654 418.253 197.83 418.621 195.128C418.989 192.427 419.603 189.725 419.849 187.024C420.095 183.954 420.217 180.761 420.217 177.692C420.058 171.904 418.454 166.247 415.551 161.237C411.745 154.115 405.85 147.976 398.851 142.695C391.883 137.494 384.016 133.622 375.643 131.276C370.742 129.899 365.729 128.954 360.663 128.451C350.569 127.618 340.412 128.872 330.824 132.135C321.246 135.328 313.019 139.994 304.792 144.783C298.406 148.467 292.021 152.151 285.513 155.589C278.822 158.902 271.833 161.574 264.638 163.57C256.534 166.026 248.429 168.236 240.693 171.429C233.433 174.314 226.548 178.066 220.187 182.603C215.644 185.919 211.223 189.357 206.68 192.795C201.4 196.724 196.242 200.777 190.103 203.969C185.553 206.378 180.557 207.827 175.425 208.228C170.293 208.63 165.133 207.974 160.264 206.302C154.163 204.118 148.414 201.057 143.196 197.216C140.126 194.883 136.81 192.795 133.863 190.339C127.846 185.428 122.075 180.27 116.304 175.236L111.27 170.938C102.06 163.448 93.0961 155.957 83.641 148.712C73.9209 141.317 63.7952 134.471 53.3112 128.206C44.7156 122.926 36.2429 117.646 28.7525 111.383C23.6154 107.056 19.0367 102.106 15.1223 96.648C12.6665 93.2098 10.4564 89.6488 8.2461 86.0878C3.3493 78.1256 -1.07884 69.8844 -5.01563 61.4063C-7.02234 57.2003 -8.5862 52.797 -9.68183 48.2675C-10.3772 44.7057 -10.4602 41.0514 -9.92735 37.4617C-8.69942 28.375 -3.54205 20.5162 2.10644 12.903C6.28141 7.13174 10.7017 1.60608 15.3679 -3.79683C20.5252 -9.6909 25.8055 -15.585 31.5768 -21.1107C35.6663 -25.2187 40.5002 -28.5108 45.8206 -30.8113C48.9433 -32.1703 52.2566 -33.0401 55.6441 -33.39C62.6433 -34.2496 69.2742 -32.7761 75.6595 -30.5658C84.1322 -27.496 92.4821 -24.1805 100.832 -20.9879C109.043 -17.7673 117.503 -15.2212 126.128 -13.3748C131.078 -12.4515 136.081 -11.8364 141.108 -11.5329C150.172 -11.0802 159.25 -12.075 168 -14.4799C179.995 -17.665 191.398 -22.7651 201.768 -29.5834C209.888 -34.8533 217.242 -41.2165 223.625 -48.4936C223.871 -48.7392 224.362 -48.9847 224.608 -49.2303" stroke="#DFE4E8" stroke-linecap="round" stroke-linejoin="round"/>
<path d="M-160.836 140.115C-158.994 140.851 -157.152 141.711 -155.31 142.448C-150.153 144.29 -144.995 146.009 -139.838 147.851C-132.067 150.643 -124.05 152.699 -115.893 153.99C-111.227 154.727 -106.561 155.218 -101.895 155.587C-90.4754 156.692 -78.9327 155.832 -67.3902 156.201C-55.1108 156.569 -43.9368 159.27 -34.3589 165.656C-28.5876 169.462 -23.6757 174.006 -20.6058 179.531C-19.0899 181.997 -18.1266 184.762 -17.7818 187.636C-17.516 190.328 -17.4337 193.036 -17.536 195.74C-17.8111 198.858 -18.387 201.942 -19.2553 204.949C-21.3428 212.685 -23.6759 220.421 -25.7634 228.157C-26.4433 231.525 -26.9352 234.927 -27.2368 238.349C-27.5423 239.885 -27.666 241.451 -27.6053 243.015C-27.1141 248.664 -26.2545 254.312 -22.3251 259.224C-20.3717 261.685 -17.8409 263.625 -14.9575 264.873C-12.9932 265.687 -10.8723 266.054 -8.74861 265.948C-6.62488 265.842 -4.55145 265.265 -2.6782 264.259C1.30325 262.244 4.62635 259.134 6.89973 255.295C10.6925 249.425 13.3191 242.88 14.6358 236.016C15.5004 232.052 16.0748 228.03 16.3547 223.982C16.7231 218.334 16.7232 212.685 16.7232 207.037C16.7232 203.967 16.232 200.897 16.1092 197.827C15.864 195.461 15.741 193.084 15.7408 190.705C16.1092 184.32 17.7057 178.181 22.9858 173.023C27.5291 168.48 33.4232 165.901 40.7908 165.287C48.1777 164.854 55.575 165.94 62.5251 168.48C72.2258 171.672 80.6985 176.461 88.9257 181.742C97.644 187.267 105.38 193.775 113.239 200.038C120.238 205.686 126.746 211.58 133.868 217.106C140.665 222.607 148.237 227.076 156.339 230.368C162.078 232.608 168.122 233.974 174.267 234.42C183.845 235.157 192.563 232.946 200.79 229.263C208.035 226.07 214.298 221.772 220.683 217.474C228.787 211.949 237.137 206.423 246.838 202.739C252.8 200.536 258.915 198.771 265.134 197.459C273.361 195.617 281.834 194.144 289.815 191.565C297.233 189.163 304.296 185.776 310.813 181.496C317.444 177.075 323.952 172.532 330.705 168.234C335.384 165.177 340.526 162.896 345.932 161.481C354.036 159.393 361.895 160.007 369.017 164.059C373.321 166.384 376.796 169.989 378.963 174.374C380.92 178.094 382.011 182.207 382.156 186.408C382.156 188.127 382.524 189.846 382.401 191.442C382.156 194.758 381.787 198.073 381.419 201.388C381.051 204.704 380.559 208.019 380.068 211.335C379.7 213.791 379.086 216.246 378.718 218.579C378.349 220.544 378.226 222.632 377.981 224.596C377.612 227.175 377.244 229.876 376.998 232.455C376.876 234.051 376.753 235.525 376.63 237.121C376.507 239.7 376.507 242.156 376.262 244.734C376.016 248.295 375.648 251.856 375.156 255.417C374.71 259.387 374.013 263.324 373.069 267.206C372.165 270.531 370.888 273.744 369.263 276.783C365.87 282.952 361.327 288.412 355.878 292.869C351.212 296.799 346.546 300.605 341.88 304.535C334.915 310.354 328.465 316.763 322.601 323.691C317.69 329.585 312.9 335.724 307.743 341.496C300.498 349.477 293.008 357.336 285.517 365.195C284.412 366.3 283.307 367.528 282.202 368.633" stroke="#DFE4E8" stroke-linecap="round" stroke-linejoin="round"/>
<path d="M-161.086 145.274C-156.665 146.87 -152.245 148.59 -147.824 150.186C-137.018 154.238 -125.967 157.922 -114.179 159.887C-109.267 160.746 -104.232 161.36 -99.198 161.974C-94.9002 162.465 -90.6025 162.711 -86.3047 163.079C-77.5864 163.816 -68.8682 164.553 -60.3955 166.763C-51.3088 169.219 -43.6957 173.394 -38.0472 179.656C-34.5681 183.544 -32.1935 188.293 -31.1707 193.409C-30.4559 197.586 -30.2909 201.838 -30.6796 206.057C-31.0534 209.979 -31.6685 213.875 -32.5215 217.722L-34.3634 227.3C-34.8546 229.633 -35.3456 231.966 -35.7139 234.299C-35.8367 235.159 -35.9596 236.141 -36.0824 237.001C-36.4096 240.716 -36.4916 244.449 -36.3279 248.175C-36.077 253.827 -34.3863 259.322 -31.4162 264.138C-27.8552 269.786 -23.0663 274.575 -15.2075 276.786C-12.1763 277.68 -8.97873 277.857 -5.86734 277.303C-2.75595 276.749 0.184143 275.479 2.72039 273.593C8.24608 269.664 11.6842 264.629 14.6313 259.349C17.4014 254.321 19.6243 249.011 21.262 243.509C22.7355 238.474 23.8406 233.317 24.9458 228.282C25.6825 225.213 26.1739 222.143 26.6651 219.073C27.0334 216.74 27.0333 214.53 27.4016 212.196C27.77 209.249 28.2613 206.18 28.7525 203.233C29.3665 199.917 29.9804 196.479 30.8399 193.164C31.9517 188.627 34.3881 184.523 37.8391 181.375C41.3941 178.194 45.8639 176.217 50.6097 175.727C57.1178 174.99 63.1347 176.341 69.0287 178.183C76.9757 180.908 84.5304 184.665 91.4996 189.357C98.7304 194.136 105.699 199.301 112.374 204.829C119.496 210.6 126.373 216.617 133.618 222.266C140.491 227.756 148.148 232.185 156.335 235.404C163.474 237.985 170.973 239.435 178.56 239.702C183.148 239.663 187.718 239.128 192.19 238.106C200.856 235.821 209.104 232.173 216.626 227.3C222.52 223.616 228.292 219.932 234.186 216.371C242.821 211.237 252.236 207.545 262.06 205.443C270.041 203.847 278.023 202.25 286.004 200.408C293.23 198.848 300.24 196.415 306.879 193.164C313.52 189.712 319.92 185.815 326.035 181.498C331.109 177.849 336.59 174.799 342.366 172.411C345.503 171.179 348.823 170.474 352.19 170.324C356.263 170.125 360.297 171.198 363.732 173.394C368.113 176.417 371.115 181.053 372.082 186.287C372.779 190.341 372.985 194.464 372.696 198.566C372.427 201.782 371.976 204.98 371.346 208.144C370.977 210.723 370.731 213.302 370.24 215.88C369.749 218.459 369.258 221.16 368.89 223.862C368.644 225.827 368.398 227.914 368.153 229.879C367.784 232.826 367.416 235.65 367.17 238.597C367.048 239.825 366.925 240.93 366.802 242.158C366.188 246.701 365.697 251.245 365.083 255.788C364.421 260.479 363.141 265.063 361.277 269.418C358.026 276.591 353.346 283.025 347.523 288.328C340.893 294.713 333.894 300.853 327.631 307.361C321.983 313.132 316.948 319.272 311.913 325.289C304.546 334.253 297.424 343.217 289.074 351.69C283.548 357.338 278.023 362.987 272.497 368.758" stroke="#DFE4E8" stroke-linecap="round" stroke-linejoin="round"/>
<path d="M428.557 -49.7269C429.539 -48.4989 430.644 -47.271 431.626 -46.0431C434.205 -42.8505 436.784 -39.6579 439.24 -36.4652C441.39 -33.8129 442.637 -30.5434 442.8 -27.1329C442.71 -24.6677 442.126 -22.2458 441.081 -20.0109C439.24 -15.9587 437.029 -12.1522 434.942 -8.22279C428.03 3.97044 422.863 17.0734 419.593 30.7027C418.979 33.5269 418.365 36.3512 417.996 39.1754C417.505 42.8592 417.26 46.543 416.891 50.2268C416.564 52.5036 416.482 54.8089 416.646 57.1032C416.891 60.9098 417.628 64.8392 417.996 68.6458C418.66 73.738 419.811 78.7547 421.435 83.6266C422.294 86.6964 423.645 89.5206 424.627 92.5905C426.346 97.625 428.188 102.537 429.539 107.571C430.399 110.887 430.399 114.202 427.697 117.149C425.904 119.08 423.448 120.264 420.821 120.465C416.4 121.079 412.348 119.973 408.296 118.991C400.314 117.026 392.578 114.693 384.597 112.606C377.197 110.549 369.64 109.112 362.003 108.308C358.442 107.94 354.758 107.694 351.197 107.448C348.618 107.326 345.917 107.08 343.215 107.203C335.979 107.462 328.784 108.408 321.727 110.027C316.078 111.378 310.552 113.097 305.149 114.939C294.712 118.5 285.011 123.412 274.942 127.587C265.855 131.393 256.523 134.831 247.191 138.392C235.649 142.813 224.474 147.725 214.651 154.233C208.7 158.14 202.961 162.362 197.46 166.88C194.267 169.582 191.074 172.283 187.759 174.862C183.368 178.409 178.487 181.304 173.269 183.457C167.707 185.619 161.603 185.963 155.833 184.44C149.988 182.929 144.459 180.393 139.501 176.949C130.906 171.547 123.538 165.038 115.925 158.899C111.382 155.215 107.084 151.286 102.663 147.479C97.8743 143.304 92.9628 139.129 88.1738 134.831C76.6313 124.639 64.2291 115.062 52.1954 105.238C45.1223 99.6758 38.6599 93.378 32.9169 86.4508C26.5729 78.8047 21.5131 70.1787 17.9359 60.9098C16.4247 57.217 15.4331 53.3325 14.989 49.3673C14.8662 47.5254 14.375 45.6835 14.375 43.8416C14.407 35.8577 16.8462 28.069 21.3742 21.4932C24.0014 17.6104 27.0942 14.0639 30.5836 10.933C34.6572 7.31822 39.2523 4.33772 44.2138 2.09188C48.0633 0.408692 52.1773 -0.58869 56.3702 -0.855189C64.4746 -1.46916 71.965 0.372725 79.4554 2.583C88.4622 5.4386 97.3153 8.7585 105.979 12.5293C110.891 14.494 115.802 16.5814 120.837 18.5461C126.236 20.7461 131.886 22.272 137.659 23.0895C144.27 23.8875 150.976 23.044 157.184 20.6336C164.797 17.8094 171.427 13.88 178.181 10.0734C186.777 5.16171 195.372 0.127193 203.845 -5.03012C208.388 -7.85437 212.686 -10.9242 216.984 -13.9941C225.727 -20.2743 233.539 -27.7565 240.192 -36.2196C243.384 -40.149 246.086 -44.324 249.033 -48.3762C249.397 -48.7546 249.726 -49.1657 250.015 -49.6041" stroke="#DFE4E8" stroke-linecap="round" stroke-linejoin="round"/>
<path d="M-161.086 150.184C-156.543 151.903 -151.999 153.745 -147.456 155.341C-138.888 158.647 -130.159 161.516 -121.301 163.937C-114.67 165.533 -107.916 166.761 -101.163 167.743C-92.1989 168.971 -83.235 170.076 -74.5167 171.672C-65.43 173.269 -57.0801 176.461 -50.572 182.11C-46.1823 185.811 -42.9792 190.722 -41.3626 196.231C-39.7662 201.511 -40.0118 206.914 -40.1346 212.317C-40.4044 215.289 -40.8553 218.241 -41.4852 221.158C-41.8535 223.491 -42.0992 225.947 -42.4676 228.28C-42.836 230.613 -43.3271 233.192 -43.6955 235.525C-43.9191 236.579 -44.0832 237.645 -44.1869 238.718C-44.513 242.966 -44.5949 247.23 -44.4324 251.488C-43.9169 258.76 -41.3635 265.739 -37.0648 271.626C-32.5532 278.144 -26.1113 283.083 -18.6458 285.747C-14.9351 287.165 -10.941 287.681 -6.99185 287.254C-3.04265 286.827 0.748907 285.469 4.07094 283.292C9.96501 279.485 13.7716 274.45 16.9642 269.17C20.5688 263.404 23.4553 257.218 25.5597 250.751C27.2789 245.717 28.7524 240.682 30.226 235.648C31.4539 231.104 32.5591 226.438 33.6642 221.895C34.8922 216.86 36.1199 211.826 37.4706 206.791C38.6797 201.909 40.8507 197.317 43.8561 193.284C47.0227 189.147 51.6216 186.344 56.7494 185.425C61.129 184.685 65.6188 184.937 69.8882 186.162C77.8366 188.278 85.3855 191.679 92.2365 196.231C102.306 202.494 110.901 209.861 119.742 217.106C127.225 223.482 135.19 229.271 143.564 234.42C151.54 239.267 160.381 242.52 169.596 243.998C183.65 246.057 197.995 243.652 210.609 237.121C217.731 233.437 224.607 229.263 231.484 225.21C240.452 219.675 250.23 215.574 260.463 213.054C266.726 211.58 273.234 210.598 279.619 209.493C284.04 208.633 288.46 208.019 292.881 207.037C298.699 205.724 304.406 203.958 309.949 201.757C316.866 198.78 323.592 195.376 330.087 191.565C333.946 189.177 338.066 187.241 342.366 185.794C346.664 184.566 350.962 184.32 354.768 187.144C357.116 188.785 358.777 191.233 359.435 194.021C360.598 197.881 360.85 201.958 360.171 205.932C359.926 207.64 359.803 209.363 359.803 211.089C359.557 214.036 359.066 216.86 358.821 219.807L358.452 223.491C358.207 226.438 358.084 229.508 357.715 232.455C357.47 235.157 356.979 237.735 356.733 240.437C356.487 242.77 356.365 245.226 355.996 247.559C355.505 250.629 354.891 253.821 354.155 256.891C352.562 263.19 349.904 269.17 346.296 274.573C342.991 279.258 339.294 283.654 335.244 287.712C327.754 295.448 320.018 303.184 313.387 311.534C307.37 319.024 301.722 326.638 295.582 334.005C289.074 341.864 281.706 349.231 274.462 356.599C270.532 360.528 266.849 364.703 263.042 368.633" stroke="#DFE4E8" stroke-linecap="round" stroke-linejoin="round"/>
<path d="M-161.086 126.603C-157.893 127.585 -154.701 128.568 -151.631 129.673C-142.997 132.671 -134.124 134.93 -125.107 136.426C-121.454 137.022 -117.757 137.31 -114.056 137.286C-107.671 137.163 -101.408 136.549 -95.6371 134.093C-88.7428 131.556 -83.1352 126.39 -80.0424 119.727C-77.8686 114.459 -76.2233 108.988 -75.1307 103.395C-73.0763 93.8632 -69.2886 84.7897 -63.9564 76.6261C-60.8547 71.935 -57.1378 67.6812 -52.905 63.9784C-50.9414 62.3496 -48.7993 60.949 -46.5198 59.8035C-44.7177 58.855 -42.7079 58.3696 -40.6715 58.391C-38.6352 58.4125 -36.6362 58.94 -34.8544 59.9262C-31.5971 61.6389 -28.6166 63.833 -26.0134 66.4343C-20.3716 72.1928 -15.4634 78.6269 -11.4008 85.59C-7.96258 91.4841 -5.01572 97.501 -1.45471 103.395C2.22908 109.535 6.03586 115.674 11.9299 120.709C17.5415 125.338 23.7849 129.142 30.4715 132.006C37.4707 135.321 44.5928 138.391 51.7148 141.584C60.3371 145.545 68.6312 150.185 76.519 155.459C81.5535 158.775 86.5882 162.336 91.3771 165.897C97.394 170.44 103.411 174.983 109.182 179.772C115.69 185.175 122.075 190.578 128.338 196.104C134.698 201.79 141.562 206.886 148.844 211.33C154.502 214.8 160.743 217.213 167.263 218.452C172.758 219.435 178.395 219.31 183.84 218.084C190.585 216.48 196.961 213.604 202.628 209.611C207.171 206.664 211.223 203.349 215.644 200.156C222.547 194.865 229.95 190.258 237.747 186.403C243.135 183.902 248.721 181.848 254.447 180.264C262.183 178.053 270.041 176.089 277.654 173.756C285.786 171.226 293.548 167.634 300.74 163.073C308.107 158.406 315.352 153.617 322.842 149.074C329.584 144.944 337.039 142.112 344.822 140.724C347.788 140.215 350.781 139.887 353.786 139.742C357.777 139.416 361.794 139.706 365.697 140.601C369.249 141.306 372.739 142.292 376.135 143.548C381.108 145.504 385.717 148.286 389.765 151.776C395.438 156.475 399.725 162.63 402.167 169.581C403.341 172.692 404.045 175.962 404.254 179.281C404.519 182.426 404.601 185.583 404.5 188.736C404.254 192.789 403.763 196.718 403.149 200.647C402.535 204.945 401.676 209.243 401.185 213.541C400.816 216.61 400.57 219.68 400.448 222.75C400.202 229.135 400.079 235.521 400.079 241.906C400.202 248.905 400.57 256.027 400.693 263.026C400.61 267.683 399.908 272.307 398.606 276.779C397.452 281.204 395.63 285.428 393.203 289.304C390.664 293.436 387.565 297.197 383.993 300.478C377.731 306.249 370.486 311.161 363.119 316.073C352.524 322.891 342.935 331.157 334.63 340.632C328.613 347.631 322.842 354.63 316.825 361.629C314.861 363.962 312.773 366.173 310.809 368.383" stroke="#DFE4E8" stroke-linecap="round" stroke-linejoin="round"/>
<path d="M-161.086 131.765C-152.122 134.712 -143.281 137.659 -134.194 140.36C-128.187 142.13 -122.016 143.282 -115.775 143.798C-110.618 144.167 -105.461 143.921 -100.303 143.798C-95.9796 143.603 -91.6935 142.902 -87.5326 141.711C-81.8742 140.335 -76.5366 137.875 -71.8153 134.466C-67.4123 131.181 -64.3217 126.437 -63.0969 121.082C-62.1145 117.03 -61.6234 112.855 -61.0095 108.68C-59.9043 102.417 -58.3081 96.2775 -54.6243 90.5062C-52.776 87.575 -50.2489 85.1321 -47.2567 83.3842C-42.0994 80.4372 -37.3104 80.56 -32.1531 83.6298C-28.6039 85.8649 -25.6198 88.8908 -23.4346 92.4709C-19.5052 98.2422 -17.1722 104.505 -14.8391 110.89C-12.7516 116.538 -10.7869 122.064 -6.85754 127.099C-3.41609 131.306 1.01339 134.597 6.03575 136.676C12.421 139.501 19.4201 140.851 26.1737 142.571C33.4185 144.412 40.7861 146.132 47.6625 148.587C60.0453 153.045 71.8063 159.07 82.6586 166.515C86.8336 169.339 90.8857 172.164 94.9379 175.234C99.3585 178.549 103.779 181.864 108.077 185.425C113.602 189.969 118.883 194.758 124.286 199.424C132.758 206.546 141.231 213.791 151.791 219.071C156.993 221.746 162.589 223.57 168.368 224.474C175.796 225.576 183.381 224.86 190.471 222.386C196.834 220.03 202.861 216.851 208.399 212.931C215.767 207.897 223.134 202.616 230.624 197.705C237.558 193.393 245.088 190.124 252.973 188.004C260.709 185.794 268.568 183.829 276.426 181.864C286.462 179.262 296.003 175.031 304.669 169.339C311.791 164.796 318.667 160.007 325.912 155.464C331.834 151.772 338.36 149.154 345.191 147.728C358.821 145.026 370.977 147.359 381.415 155.095C386.452 158.793 390.432 163.746 392.957 169.462C394.353 172.312 395.227 175.39 395.536 178.549C395.985 181.927 396.19 185.333 396.15 188.741C396.005 192.072 395.677 195.392 395.167 198.687C394.799 201.511 394.553 204.336 394.185 207.037C393.817 209.738 393.203 212.317 392.834 215.019C392.466 217.106 392.343 219.194 392.097 221.281C390.87 233.806 391.729 246.331 391.361 258.978C391.269 265.992 389.938 272.934 387.431 279.485C384.319 286.632 379.615 292.974 373.679 298.027C368.088 302.747 362.225 307.134 356.119 311.166C346.7 317.606 338.12 325.196 330.578 333.76C325.053 340.268 319.527 346.776 313.878 353.284C309.458 358.318 304.669 363.23 300.125 368.142C300.003 368.264 299.88 368.51 299.757 368.633" stroke="#DFE4E8" stroke-linecap="round" stroke-linejoin="round"/>
<path d="M409.278 -49.7231C409.776 -48.8894 410.226 -48.0286 410.628 -47.1445C411.979 -43.9518 413.33 -40.6364 414.435 -37.4438C415.985 -33.3063 417.297 -29.0835 418.364 -24.7961C418.975 -21.9324 419.222 -19.0032 419.101 -16.0777C418.687 -11.5029 418.031 -6.95319 417.136 -2.4477C415.786 4.18314 414.189 10.814 412.716 17.4448C411.61 22.4793 410.383 27.6366 409.278 32.6711C408.786 35.0042 408.541 37.4601 408.172 39.7932C407.681 42.9858 407.19 46.0556 406.822 49.2482C406.699 50.599 406.453 51.9497 406.453 53.1776C406.331 59.6856 406.208 66.3165 406.085 72.8245C406.085 75.6488 406.576 78.5958 406.33 81.42C406.085 84.981 405.962 88.4193 404.489 91.8575C402.401 96.5236 398.472 99.1023 392.455 99.4707C388.771 99.7162 385.087 99.8391 381.403 99.7163C377.72 99.5935 374.036 98.9795 370.352 98.7339C367.528 98.4883 364.704 98.4883 361.879 98.1199C354.897 97.5268 347.884 97.3628 340.882 97.6288C336.281 97.7479 331.69 98.1169 327.129 98.7339C320.019 99.68 312.997 101.199 306.131 103.277C299.501 105.242 292.87 107.452 286.362 109.54C278.994 111.996 271.749 114.574 264.504 117.03C258.487 119.118 252.471 121.205 246.454 123.17C233.289 127.618 220.931 134.17 209.861 142.571C206.3 145.273 202.617 147.974 199.178 150.798C194.267 154.85 189.6 159.148 184.689 163.078C180.37 166.759 175.474 169.704 170.199 171.796C166.969 173.109 163.49 173.696 160.007 173.515C156.789 173.24 153.614 172.58 150.552 171.55C144.187 169.261 138.221 165.988 132.87 161.85C128.327 158.534 123.661 155.219 119.486 151.658C113.469 146.623 107.697 141.466 101.926 136.309C97.9968 132.87 94.19 129.432 90.3834 125.994C84.6121 120.837 78.8409 115.679 72.9468 110.522C70.9821 108.68 68.7719 107.084 66.8072 105.242C57.9661 97.6288 49.2479 90.1384 42.3714 81.2973C36.4774 73.9297 31.8112 65.9481 29.4781 57.3526C28.7414 54.5284 28.3729 51.5813 27.8818 48.7571C27.2921 44.1817 27.8838 39.5316 29.6008 35.2498C31.169 31.2787 33.5538 27.681 36.6002 24.6896C39.9625 21.2479 44.0242 18.568 48.5111 16.8309C54.2554 14.6238 60.4546 13.8647 66.5616 14.6206C75.7061 15.5645 84.6065 18.1431 92.8393 22.2337C102.54 27.0226 111.995 32.18 121.45 37.2145C126.14 39.8157 131.13 41.8362 136.308 43.2314C139.365 43.9986 142.492 44.4512 145.64 44.5821C151.446 44.7491 157.184 43.304 162.217 40.4071C166.93 37.6115 171.298 34.2733 175.234 30.4609C182.186 23.9745 189.482 17.867 197.091 12.1647C203.845 7.1302 211.212 2.46403 218.088 -2.4477C226.561 -8.58736 234.665 -14.9726 241.419 -22.3402C245.896 -27.1377 250.001 -32.2689 253.698 -37.6894C256.277 -41.4959 258.61 -45.4253 261.189 -49.2319C261.485 -49.5895 261.814 -49.9185 262.171 -50.2143" stroke="#DFE4E8" stroke-linecap="round" stroke-linejoin="round"/>
<path d="M-160.836 154.968C-160.345 155.214 -159.976 155.582 -159.485 155.828C-153.591 158.284 -147.697 160.74 -141.68 162.95C-132.471 166.265 -123.261 169.581 -113.315 171.423C-104.719 173.019 -96.0011 174.492 -87.4055 176.089C-79.5468 177.562 -71.6878 179.404 -64.8114 183.088C-56.7071 187.386 -51.7953 193.28 -49.4623 200.647C-47.7431 205.927 -47.9889 211.33 -48.1117 216.733C-48.3805 220.233 -48.8312 223.717 -49.4623 227.171C-49.9534 230.363 -50.6904 233.433 -51.1815 236.626C-51.5499 239.082 -51.6725 241.537 -51.9181 243.871C-52.0409 246.695 -52.4093 249.519 -52.2866 252.22C-52.0487 258.65 -50.3702 264.945 -47.3748 270.639C-43.4531 277.943 -37.8563 284.213 -31.0433 288.936C-26.1143 292.611 -20.4657 295.205 -14.4662 296.549C-10.8615 297.361 -7.1254 297.399 -3.50533 296.658C0.114733 295.917 3.53582 294.415 6.53127 292.251C11.3219 288.902 15.4102 284.647 18.5651 279.726C22.8847 273.396 26.3914 266.548 29.0025 259.342C32.1951 250.624 35.265 241.906 37.9665 233.065C40.4223 225.329 42.5097 217.47 45.8251 209.98C47.5221 205.72 50.2174 201.93 53.684 198.928C56.8553 196.285 60.7491 194.659 64.8581 194.262C71.8573 193.648 78.1198 195.49 84.0139 198.069C90.4231 200.846 96.4483 204.437 101.942 208.752C106.608 212.313 111.274 215.751 115.94 219.312C118.887 221.522 121.466 224.101 124.413 226.311C131.535 231.714 138.78 237.117 147.13 241.292C154.592 245.184 162.638 247.838 170.952 249.151C175.334 249.868 179.775 250.156 184.213 250.01C191.888 249.715 199.47 248.224 206.684 245.59C215.894 242.274 223.875 237.608 232.225 233.065C237.137 230.363 242.171 228.03 247.206 225.574C253.478 222.784 260.08 220.803 266.853 219.68C272.133 218.698 277.413 218.084 282.693 217.347C293.131 215.874 303.568 214.4 313.76 211.944C318.549 210.839 323.461 209.857 328.372 208.874C335.617 207.524 340.529 209.734 342.985 215.26C344.156 218.159 344.861 221.226 345.072 224.346C345.455 227.114 345.66 229.903 345.686 232.696C345.563 237.362 345.072 241.906 344.704 246.572C344.365 250.9 343.414 255.158 341.88 259.22C340.086 264.482 337.521 269.448 334.267 273.955C328.372 282.428 320.759 290.041 314.251 298.268C307.743 306.495 301.481 314.722 295.095 322.949C288.643 331.32 281.671 339.276 274.22 346.771C267.221 353.77 260.099 360.524 253.837 367.892C253.714 368.014 253.591 368.26 253.469 368.383" stroke="#DFE4E8" stroke-linecap="round" stroke-linejoin="round"/>
<path d="M391.719 -49.7264C391.886 -49.7005 392.05 -49.6594 392.21 -49.6036C393.315 -43.464 395.525 -37.6927 397.367 -31.7986C398.841 -27.0097 400.314 -22.3435 401.419 -17.5546C402.036 -14.5611 402.406 -11.522 402.525 -8.46791C402.831 -6.39525 402.954 -4.29966 402.893 -2.20541C402.647 1.35559 402.279 4.79377 401.911 8.35478C401.665 10.4423 401.542 12.5298 401.174 14.6173C400.805 16.9503 400.437 19.2834 399.946 21.6164C399.455 24.4407 398.963 27.2649 398.35 30.0892C397.981 32.0539 397.49 34.0186 397.122 35.9833C396.63 38.8075 396.139 41.6318 395.525 44.456C394.911 47.7714 394.175 51.0868 393.438 54.525C392.701 57.9632 392.21 61.2787 391.35 64.5941C390.245 68.8919 388.894 73.0668 385.825 76.8734C382.397 80.7556 377.692 83.2821 372.563 83.9954C368.636 84.7338 364.648 85.1038 360.652 85.1005C355.986 85.1005 351.197 85.2234 346.531 85.3461C341.865 85.4689 337.076 85.7145 332.41 86.2057C322.516 87.094 312.706 88.736 303.062 91.1174C294.589 93.2049 286.117 95.538 277.521 97.5027C269.171 99.4674 260.698 101.064 252.349 102.906C245.472 104.502 238.718 105.975 232.088 107.94C225.687 109.934 219.638 112.917 214.16 116.781C206.547 122.061 200.53 128.447 194.267 134.586C189.847 138.884 185.303 143.059 180.883 147.357C176.858 151.222 172.208 154.377 167.13 156.689C162.741 158.647 157.89 159.327 153.132 158.654C146.992 157.917 141.957 155.461 137.168 152.76C129.934 148.699 123.179 143.839 117.03 138.27C109.54 131.639 102.295 124.64 95.0503 117.886C88.4194 111.624 81.9114 105.484 75.4034 99.2218C69.2843 93.5952 63.4642 87.6521 57.9668 81.4168C53.6486 76.5326 50.0887 71.0273 47.4065 65.0853C45.5283 60.8383 44.6464 56.2181 44.828 51.578C45.5647 44.9472 48.6345 39.2987 56.7389 36.2289C59.4608 35.2515 62.3205 34.7127 65.2115 34.6326C71.0491 34.6347 76.8362 35.7171 82.2799 37.8252C90.6298 40.7722 97.6289 45.1928 104.874 49.3677C110.522 52.6832 116.171 55.9986 122.188 58.9456C128.816 62.2181 135.892 64.4939 143.185 65.6992C149.428 66.8075 155.836 66.5562 161.973 64.9625C167.533 63.4348 172.635 60.5679 176.831 56.6125C181.085 52.2413 184.909 47.4714 188.251 42.3685C193.285 35.2465 198.442 28.2473 205.442 22.2304C211.09 17.3187 216.984 12.5297 222.878 7.74081C226.808 4.54819 231.105 1.47834 235.035 -1.71428C242.871 -7.96815 249.885 -15.1884 255.909 -23.2031C259.593 -28.2376 263.154 -33.3949 266.592 -38.5523C268.803 -41.9905 270.645 -45.5515 272.732 -48.9897C273.028 -49.3473 273.357 -49.6762 273.714 -49.972" stroke="#DFE4E8" stroke-linecap="round" stroke-linejoin="round"/>
<path d="M-161.086 161.974C-155.192 164.43 -149.298 166.886 -143.281 169.342C-134.574 173.084 -125.581 176.122 -116.389 178.428C-109.881 180.025 -103.25 181.253 -96.7421 182.603C-89.1289 184.2 -81.5157 185.919 -74.6393 189.357C-68.2541 192.55 -63.5881 196.97 -61.0095 202.619C-59.2516 206.6 -58.372 210.914 -58.4307 215.266C-58.4486 219.923 -58.9009 224.569 -59.7815 229.142C-60.6411 233.44 -61.5005 237.737 -62.1145 242.035C-62.6243 245.536 -62.9523 249.061 -63.0969 252.595C-63.2811 255.253 -63.2811 257.92 -63.0969 260.577C-62.5894 264.97 -61.344 269.246 -59.4131 273.225C-55.7556 280.097 -50.8888 286.253 -45.0463 291.398C-38.8166 297.213 -31.8372 302.168 -24.2941 306.133C-19.8984 308.484 -15.1148 310.023 -10.1729 310.677C-4.80808 311.267 0.606155 310.15 5.29888 307.484C11.5613 303.923 15.8592 298.888 19.7885 293.731C24.085 287.895 27.7099 281.592 30.5944 274.944C35.015 265.366 38.576 255.542 42.0142 245.719C44.2245 239.457 46.5573 233.194 49.136 227.054C51.0048 222.08 53.6581 217.437 56.995 213.302C59.6955 209.894 63.3841 207.407 67.555 206.18C70.1882 205.438 72.9357 205.188 75.6595 205.443C84.1322 206.425 91.0087 209.863 97.5167 214.038C101.937 216.863 106.112 220.055 110.287 223.125C114.094 225.949 117.778 228.896 121.461 231.721C128.762 237.467 136.524 242.601 144.669 247.07C152.817 251.418 161.604 254.443 170.701 256.034C173.526 256.525 176.35 256.77 179.174 257.016C181.456 257.281 183.755 257.364 186.05 257.262C194.004 257.054 201.893 255.773 209.504 253.455C218.959 250.631 227.309 246.333 235.905 242.158C243.763 238.351 251.745 234.79 260.709 232.703C265.192 231.607 269.747 230.828 274.339 230.37C277.9 230.124 281.584 229.756 285.145 229.51C290.793 229.265 296.442 229.142 302.09 229.265C306.937 229.264 311.737 230.224 316.211 232.089C318.575 233.114 320.663 234.683 322.306 236.667C323.949 238.651 325.1 240.995 325.667 243.509C326.481 246.507 326.689 249.638 326.281 252.718C325.836 255.851 325.096 258.934 324.07 261.928C322.459 266.623 320.229 271.083 317.439 275.189C314.738 279.364 311.668 283.417 308.721 287.592C304.301 293.731 299.757 299.871 295.459 306.01C287.601 317.43 279.374 328.727 269.182 338.919C263.165 345.059 256.902 351.076 251.008 357.215C247.447 360.899 244.255 364.828 240.939 368.758" stroke="#DFE4E8" stroke-linecap="round" stroke-linejoin="round"/>
<path d="M-161.086 135.57C-153.964 137.903 -146.965 140.359 -139.843 142.692C-132.343 145.123 -124.666 146.971 -116.88 148.218C-110.346 149.262 -103.721 149.632 -97.1106 149.323C-92.69 149.077 -88.3923 148.586 -83.9717 148.095C-72.9203 146.744 -62.4829 143.674 -51.6771 141.587C-45.0126 140.112 -38.0456 140.935 -31.9075 143.92C-26.6274 146.499 -21.2244 149.077 -15.8215 151.656C-9.73184 154.514 -3.00414 155.741 3.7025 155.217C8.85981 154.849 14.0172 153.743 19.1746 153.375C23.9194 153.13 28.6739 153.13 33.4187 153.375C38.6539 153.675 43.8411 154.539 48.8905 155.954C53.7695 157.183 58.5349 158.826 63.1346 160.866C71.2716 164.477 79.078 168.791 86.4653 173.759C89.4123 175.723 92.3592 177.688 95.1834 179.776C99.1128 182.723 103.165 185.67 106.849 188.862C112.866 193.897 118.76 199.177 124.777 204.211C132.635 210.597 140.371 217.228 149.949 222.262C156.039 225.629 162.701 227.836 169.596 228.77C177.238 229.769 185.007 229.014 192.313 226.56C199.233 223.965 205.794 220.499 211.837 216.245C218.099 211.947 224.239 207.527 230.624 203.475C237.532 199.056 245.066 195.703 252.973 193.529C261.445 191.195 270.164 189.354 278.637 187.143C289.089 184.506 299.013 180.104 307.984 174.127C314.492 169.829 320.878 165.286 327.508 161.111C333.397 157.219 339.986 154.508 346.91 153.13C360.171 150.796 371.468 153.498 380.31 161.971C385.069 166.505 388.253 172.443 389.396 178.916C390.271 182.905 390.602 186.995 390.379 191.073C390.133 194.756 389.519 198.44 389.028 202.124C388.536 205.562 388.168 208.878 387.677 212.316C387.309 215.017 386.695 217.842 386.326 220.543C385.953 223.067 385.707 225.608 385.589 228.156C385.344 234.787 385.098 241.295 384.853 247.926C384.73 250.996 384.73 253.943 384.484 257.013C384.116 260.328 383.625 263.643 383.134 267.082C382.559 270.944 381.443 274.705 379.818 278.256C377.019 284.461 372.914 289.989 367.784 294.465C363.978 297.78 359.926 301.095 355.873 304.165C352.558 306.867 348.874 309.2 345.559 311.901C337.952 317.997 330.96 324.825 324.684 332.285C316.58 342.108 308.475 351.809 299.512 361.141C297.056 363.72 294.477 366.421 291.898 369" stroke="#DFE4E8" stroke-linecap="round" stroke-linejoin="round"/>
<path d="M357.215 368.758C360.996 363.086 365.495 357.926 370.599 353.409C375.326 349.264 380.332 345.449 385.58 341.989C392.278 337.62 398.715 332.863 404.859 327.745C410.922 322.437 416.323 316.418 420.945 309.817C424.922 304.102 428.257 297.966 430.891 291.521C432.901 286.754 434.344 281.767 435.189 276.663C435.68 273.225 436.171 269.786 436.539 266.348C436.785 263.892 436.785 261.314 436.908 258.735C437.031 252.473 437.03 246.087 437.276 239.825C437.399 236.878 438.013 233.931 438.258 230.861C438.69 227.171 439.684 223.568 441.206 220.178C443.784 214.161 448.573 209.372 455.695 206.302C460.121 204.597 464.74 203.442 469.448 202.864C478.166 201.391 486.762 199.672 494.621 196.111C501.106 193.262 506.89 189.029 511.566 183.708C514.877 179.861 517.875 175.755 520.53 171.429C523.354 166.64 526.056 161.728 528.88 156.817L536.984 143.187C538.956 140.384 540.335 137.209 541.036 133.854C541.17 132.29 540.873 130.719 540.177 129.311C538.778 126.023 537.179 122.825 535.388 119.733C531.807 113.713 529.08 107.225 527.283 100.455C526.301 96.648 525.319 92.7187 524.582 88.9121C523.968 85.3511 523.6 81.7901 523.109 78.2291C522.495 73.9313 521.88 69.7563 521.389 65.4586C521.021 63.0027 521.021 60.4241 520.653 57.8454C520.284 55.0212 519.793 52.1969 519.302 49.3727C518.934 47.1624 518.688 45.0749 518.197 42.8646C517.679 39.3523 516.982 35.8687 516.109 32.4272C514.636 27.2699 512.917 22.2354 510.952 17.2009C507.096 7.8654 501.419 -0.608448 494.252 -7.72615C490.2 -11.9011 485.902 -15.9533 481.85 -20.1283C479.255 -22.4603 477.381 -25.4851 476.447 -28.8466C475.833 -31.6708 476.816 -34.0039 478.044 -36.4598C479.885 -39.7752 482.832 -42.3539 485.657 -45.0553C487.007 -46.2833 488.358 -47.5111 489.832 -48.6163C490.323 -48.9847 490.937 -49.2303 491.551 -49.5987" stroke="#DFE4E8" stroke-linecap="round" stroke-linejoin="round"/>
<path d="M372.072 -49.6022C372.411 -48.8871 372.698 -48.1484 372.931 -47.3918C374.282 -38.6735 377.843 -30.4464 380.667 -22.0965C382.263 -17.6759 383.737 -13.1326 384.965 -8.58922C385.705 -5.23255 386.197 -1.82615 386.438 1.6026C386.745 4.29257 386.868 7.00032 386.807 9.707C386.684 13.0224 386.193 16.3378 385.824 19.6532C384.958 26.5187 383.352 33.2706 381.036 39.7913C379.071 45.5626 376.738 51.3339 372.563 56.3684C368.503 61.1484 363.05 64.54 356.968 66.069C351.964 67.3057 346.874 68.1677 341.742 68.6477C333.515 69.63 325.287 70.6124 317.06 72.0859C308.219 73.6822 299.624 75.8925 290.782 77.7344C282.489 79.7445 274.083 81.2616 265.61 82.2778C261.558 82.6461 257.628 83.1373 253.576 83.3829C249.769 83.6285 245.84 83.9968 242.033 83.874C236.453 83.8529 230.878 83.5249 225.334 82.8917C221.041 82.5016 216.846 81.3803 212.931 79.5763C211.179 78.701 209.635 77.4582 208.406 75.9325C207.177 74.4069 206.291 72.6341 205.809 70.7352C204.827 67.0514 205.318 63.3676 205.809 59.561C206.684 53.8856 208.423 48.3779 210.967 43.2295C214.047 36.9846 218.204 31.3314 223.246 26.5296C227.544 22.3546 232.333 18.4253 236.999 14.3731C244.489 7.98788 252.225 1.72538 258.733 -5.39663C263.163 -10.2146 267.188 -15.3894 270.767 -20.8685C273.346 -25.0435 276.17 -29.0957 278.626 -33.2706C281.573 -38.1824 284.397 -43.2169 287.344 -48.2514C287.729 -48.7991 288.183 -49.2945 288.695 -49.7249" stroke="#DFE4E8" stroke-linecap="round" stroke-linejoin="round"/>
<path d="M-166.5 72.9453C-158.803 70.2421 -151.464 66.6135 -144.643 62.1395C-137.442 57.1523 -130.885 51.2958 -125.119 44.7029C-121.245 40.1958 -117.016 36.0073 -112.471 32.178C-108.064 28.5053 -102.772 26.0499 -97.1218 25.056C-91.6187 24.1122 -85.9823 24.2792 -80.5447 25.5471C-75.3874 26.8979 -70.3528 28.2486 -65.4411 29.9677C-61.1434 31.4412 -56.8455 33.1603 -52.1794 33.5287C-48.7562 33.8098 -45.3288 33.0386 -42.3559 31.3184C-38.1685 29.2077 -34.3529 26.429 -31.059 23.0913C-25.5333 17.6884 -19.8848 12.2855 -14.7275 6.51418C-6.99148 -2.20413 0.376114 -11.168 7.98929 -20.0091C12.4099 -25.1664 16.953 -30.201 21.6192 -35.2355C25.6103 -39.5709 30.353 -43.1486 35.6178 -45.7957C39.6507 -47.8321 44.0188 -49.1218 48.5111 -49.6023C55.3875 -50.3391 61.6499 -48.9883 67.7895 -47.0236C75.8939 -44.445 83.3843 -40.6384 91.1202 -37.323C100.915 -32.7838 111.223 -29.4442 121.819 -27.3767C125.866 -26.5974 129.976 -26.1864 134.098 -26.1488C137.168 -26.1488 140.36 -25.9032 143.43 -26.1488C147.554 -26.4805 151.654 -27.0545 155.71 -27.8679C164.881 -29.8962 173.67 -33.3783 181.742 -38.1825C187.164 -41.1985 192.195 -44.8689 196.722 -49.1111C197.13 -49.4283 197.586 -49.6771 198.073 -49.8479" stroke="#DFE4E8" stroke-linecap="round" stroke-linejoin="round"/>
<path d="M351.321 -49.7284C351.444 -49.6056 351.812 -49.6056 351.812 -49.4828C353.163 -44.8166 354.391 -40.1505 355.987 -35.6072C358.689 -28.2396 361.882 -21.1176 364.706 -13.75C366.451 -9.31123 367.887 -4.75695 369.004 -0.11989C369.921 4.15459 370.169 8.54548 369.74 12.8962C369.348 17.3726 368.271 21.7623 366.548 25.9122C364.612 30.7829 361.538 35.1196 357.584 38.56C353.875 41.6962 349.512 43.9619 344.813 45.1908C339.41 46.6643 334.007 47.8922 328.604 48.9974C320.132 50.8393 311.782 53.0495 303.678 55.6282C294.468 58.4524 285.258 61.5223 275.558 63.487C271.015 64.3284 266.42 64.8617 261.805 65.0833C257.244 65.2907 252.674 65.0025 248.175 64.2237C243.386 63.3642 239.088 61.6451 235.895 58.4525C233.765 56.4097 232.455 53.6582 232.212 50.7165C231.721 44.454 234.545 39.0511 238.597 33.8938C242.158 29.5344 246.149 25.5441 250.508 21.9829C258.981 14.4925 267.453 7.00207 274.33 -1.47066C278.965 -7.37057 283.152 -13.6096 286.855 -20.1352C291.275 -27.7484 295.696 -35.3616 300.362 -42.9748C301.713 -45.3078 303.555 -47.3953 305.151 -49.6056" stroke="#DFE4E8" stroke-linecap="round" stroke-linejoin="round"/>
<path d="M370.602 368.758C375.902 362.181 382.151 356.428 389.143 351.69C395.774 347.023 402.405 342.357 408.79 337.323C415.483 331.91 421.429 325.633 426.472 318.658C430.589 313.156 434.244 307.324 437.401 301.222C440.757 294.86 443.274 288.091 444.891 281.083C445.751 276.786 446.365 272.365 446.979 268.067C447.347 265.243 447.47 262.419 447.715 259.595C448.084 255.665 448.33 251.613 448.821 247.684C449.234 242.59 450.393 237.584 452.259 232.826C455.206 225.827 460.854 220.546 469.204 217.354C475.098 215.144 481.115 213.179 487.132 211.091C495.183 208.595 502.833 204.956 509.849 200.286C516.341 195.664 522.203 190.215 527.286 184.077C531.952 178.797 536.372 173.271 542.266 168.728C546.836 165.103 552.317 162.809 558.106 162.097C561.21 161.79 564.336 161.79 567.439 162.097C570.877 162.342 574.315 162.834 577.753 163.325" stroke="#DFE4E8" stroke-linecap="round" stroke-linejoin="round"/>
<path d="M389.391 368.508C392.092 366.298 394.794 364.087 397.741 362.123C403.635 357.948 409.897 354.141 415.546 349.843C422.054 345.054 426.843 339.037 431.263 333.021C434.579 328.354 437.771 323.565 440.718 318.777C445.646 311.189 449.801 303.126 453.12 294.709C454.93 290.25 456.208 285.592 456.927 280.833C457.541 276.658 458.155 272.606 458.646 268.431C459.015 265.362 459.26 262.414 459.751 259.345C460.289 253.796 461.569 248.344 463.558 243.136C466.505 236.26 471.785 230.734 479.398 226.804C483.819 224.594 488.485 222.507 493.028 220.419C501.992 216.367 510.711 212.192 518.201 206.544C523.502 202.484 528.509 198.052 533.182 193.282C537.111 189.475 541.04 185.669 545.338 182.23C550.696 177.849 557.074 174.893 563.88 173.635C568.498 172.811 573.19 172.482 577.878 172.653" stroke="#DFE4E8" stroke-linecap="round" stroke-linejoin="round"/>
<path d="M-166.25 67.5469C-163.794 66.3189 -161.338 65.2138 -159.005 63.9859C-155.69 62.144 -152.497 60.3021 -149.304 58.2146C-141.323 52.9345 -135.674 46.1809 -129.78 39.55C-126.096 35.2523 -122.413 30.9545 -118.361 26.9023C-113.7 22.099 -107.787 18.6961 -101.292 17.0789C-98.4379 16.3613 -95.5155 15.9496 -92.5741 15.851C-84.9609 15.3598 -77.5932 16.8333 -70.1028 18.0612C-64.6534 19.2329 -59.0994 19.85 -53.5258 19.9031C-47.8609 19.7594 -42.309 18.2873 -37.3171 15.6054C-31.4702 12.3846 -26.0634 8.42243 -21.2311 3.81716C-13.9863 -2.56809 -7.96947 -9.69008 -1.9526 -16.8121C3.32751 -23.1973 8.48488 -29.5826 13.765 -36.0906C17.595 -40.7583 21.9178 -44.9988 26.6583 -48.7383C27.3563 -49.1795 28.0968 -49.5497 28.8686 -49.8434" stroke="#DFE4E8" stroke-linecap="round" stroke-linejoin="round"/>
<path d="M-166.25 63.4922C-165.376 62.954 -164.474 62.4622 -163.548 62.0187C-154.692 57.8163 -146.793 51.8397 -140.341 44.4592C-135.674 38.9335 -131.254 33.2851 -126.465 27.8822C-123.705 24.7538 -120.752 21.801 -117.624 19.041C-112.834 14.992 -107.083 12.2433 -100.924 11.0595C-96.168 10.0133 -91.2718 9.76435 -86.4344 10.3227C-81.8911 10.9367 -77.2247 11.1823 -72.6813 11.6734C-69.1203 12.0418 -65.5594 12.7786 -61.9984 13.0241C-55.7359 13.2697 -49.4735 13.1469 -43.5794 11.1822C-38.0744 9.2364 -32.8985 6.46216 -28.2302 2.95515C-17.7928 -4.78082 -9.81133 -14.2359 -2.19815 -23.691C4.1871 -31.5498 10.0811 -39.7769 17.3259 -47.1445C18.2941 -48.0297 19.3196 -48.8501 20.3957 -49.6004" stroke="#DFE4E8" stroke-linecap="round" stroke-linejoin="round"/>
<path d="M-166.5 57.8438C-163.553 56.1246 -160.36 54.5283 -157.536 52.5636C-149.186 46.9151 -143.415 39.6703 -137.889 32.3027C-134.205 27.391 -130.521 22.6021 -126.469 17.9359C-122.231 13.0507 -116.941 9.18854 -110.998 6.639C-106.518 4.74434 -101.736 3.66318 -96.8763 3.44633C-94.4671 3.24186 -92.0489 3.15988 -89.6313 3.20073C-86.4387 3.32353 -83.3689 3.69195 -80.1763 3.93754C-76.9837 4.18312 -73.9139 4.55152 -70.7213 4.7971C-67.0375 5.04269 -63.2308 5.53383 -59.547 5.53383C-50.7086 5.65919 -42.0041 3.36625 -34.3744 -1.09703C-26.9326 -5.66834 -20.2606 -11.3874 -14.6049 -18.0425C-7.23728 -26.1468 -1.09744 -34.8651 5.5334 -43.3379C7.12971 -45.3025 8.7259 -47.1445 10.3222 -49.1091C10.5678 -49.3547 10.9361 -49.4775 11.1817 -49.7231" stroke="#DFE4E8" stroke-linecap="round" stroke-linejoin="round"/>
<path d="M-166.25 52.8125C-164.531 51.5846 -163.057 50.2338 -161.215 49.1287C-157.678 46.7673 -154.494 43.9144 -151.76 40.656C-146.48 35.0075 -142.428 28.745 -138.13 22.7282C-134.201 17.2025 -130.149 11.6768 -124.623 7.1334C-118.34 1.78891 -110.597 -1.54752 -102.398 -2.44445C-99.8338 -2.79143 -97.2485 -2.9556 -94.6615 -2.93565C-90.8549 -2.93565 -87.0483 -2.93564 -83.2417 -2.69005C-79.9263 -2.44447 -76.6107 -1.83052 -73.2953 -1.70772C-67.8924 -1.46214 -62.4896 -0.970933 -57.0867 -1.21652C-48.7383 -1.66354 -40.6526 -4.28829 -33.6333 -8.82971C-25.3365 -14.3191 -18.0639 -21.2176 -12.1445 -29.2134C-7.11001 -35.5986 -2.19816 -42.2295 2.71357 -48.7375C3.07229 -49.1236 3.48607 -49.4546 3.9415 -49.7198" stroke="#DFE4E8" stroke-linecap="round" stroke-linejoin="round"/>
<path d="M91.2461 80.7999C93.088 77.1161 95.9122 76.8706 99.8416 77.4845C106.841 78.5897 113.471 80.7999 120.225 82.6418C126.979 84.4837 133.487 86.0801 140.24 87.7992C148.345 89.7639 156.449 91.4829 164.554 93.6932C169.711 95.0439 174.131 97.4998 176.464 101.675C177.899 104.208 178.337 107.186 177.692 110.025C177.349 112.076 176.814 114.09 176.096 116.042C174.08 121.661 170.804 126.744 166.518 130.9C164.016 133.373 161.054 135.333 157.8 136.671C152.766 138.631 147.203 138.761 142.082 137.039C136.993 135.341 132.221 132.81 127.961 129.549C117.524 121.813 109.542 112.603 102.297 102.903C98.3988 97.9267 95.1396 92.4813 92.5966 86.694C91.7695 84.9269 91.3499 82.9966 91.3687 81.0455" stroke="#DFE4E8" stroke-linecap="round" stroke-linejoin="round"/>
</g>
<defs>
<clipPath id="clip0_1052_55805">
<rect width="390" height="319" fill="white" transform="matrix(1 0 0 -1 0.5 319)"/>
</clipPath>
</defs>
</svg>
