<svg width="442" height="535" viewBox="0 0 442 535" fill="none" xmlns="http://www.w3.org/2000/svg">
<g clip-path="url(#clip0_743_21654)">
<path d="M-191.416 14.2325C-188.491 7.30676 -185.47 0.550479 -182.805 -6.44673C-179.374 -16.0504 -177.09 -26.0451 -176.002 -36.2115C-174.859 -45.9173 -174.237 -55.7657 -173.52 -65.4452C-172.092 -86.3804 -168.843 -106.815 -161.095 -124.726C-156.631 -135.227 -150.865 -145.093 -143.941 -154.08C-139.218 -159.94 -134.058 -165.414 -128.508 -170.453C-124.297 -174.083 -119.841 -177.403 -115.174 -180.388C-111.57 -182.976 -107.705 -185.493 -103.91 -187.742C-98.465 -190.97 -92.8296 -193.859 -87.1244 -197.015C-81.0892 -200.367 -74.8637 -203.381 -68.9491 -207.338C-59.8298 -213.421 -51.1863 -220.351 -44.561 -229.695C-38.8528 -237.143 -35.2657 -246.066 -34.1978 -255.476C-33.5287 -263.246 -35.0185 -271.05 -38.4942 -277.984C-41.7118 -284.879 -45.3542 -291.748 -48.5717 -298.644C-52.389 -306.43 -55.0052 -314.778 -56.3268 -323.39C-56.9238 -327.522 -57.1386 -331.703 -56.9679 -335.876C-56.391 -346.467 -52.9011 -356.675 -46.903 -365.317C-42.663 -371.884 -37.3364 -377.638 -31.1645 -382.321C-27.9131 -384.961 -24.4887 -387.368 -20.9155 -389.525C-16.3653 -391.997 -11.6947 -393.863 -7.11917 -395.898C-2.87361 -397.738 1.46717 -399.408 5.68734 -401.684C11.6527 -404.769 17.6879 -408.12 23.4629 -411.544C26.4047 -413.557 29.1847 -415.809 31.7763 -418.278C34.0609 -420.083 36.5106 -421.987 38.7952 -423.792C41.4796 -426.061 44.329 -428.427 47.1086 -430.526L51.2779 -433.675C53.6577 -435.312 56.1327 -436.779 58.4173 -438.585C68.5457 -446.394 79.791 -452.609 90.7762 -458.895C95.6926 -461.544 100.738 -463.932 105.893 -466.05C108.723 -467.277 111.458 -468.672 114.384 -469.729C118.299 -471.373 122.38 -473.115 126.486 -474.421C134.908 -477.171 143.575 -479.057 152.359 -480.052C164.71 -481.421 177.201 -480.229 189.09 -476.546C198.381 -473.593 207.088 -468.971 214.805 -462.898C220.775 -458.425 225.599 -452.532 228.862 -445.724C231.806 -439.669 233.169 -432.933 232.815 -426.173C232.117 -411.765 227.345 -399.908 220.986 -388.915C216.365 -380.898 210.904 -373.423 204.702 -366.622C200.135 -361.881 195.292 -357.427 190.201 -353.286C184.408 -348.129 178.013 -343.731 171.163 -340.195C167.34 -338.196 163.393 -336.459 159.347 -334.995C154.523 -333.143 149.598 -331.58 144.598 -330.315C133.015 -327.714 121.109 -326.977 109.307 -328.13C100.042 -328.958 90.7511 -330.222 81.5556 -331.316C74.5114 -332.106 67.5623 -332.727 61.1908 -330.756C51.5383 -327.968 45.1859 -321.268 42.9648 -309.569C42.1189 -305.408 42.1361 -301.111 43.0155 -296.959C43.9374 -292.764 45.7082 -288.815 48.213 -285.368C53.5938 -278.563 60.1139 -272.797 67.4673 -268.341C81.3272 -258.952 95.4219 -249.927 108.698 -238.837C119.481 -229.746 129.339 -219.556 138.119 -208.425C144.652 -200.134 150.348 -191.184 155.12 -181.711C159.126 -173.615 162.525 -165.216 165.287 -156.589C168.874 -144.692 171.329 -132.464 172.617 -120.079C173.6 -110.505 174.324 -101.002 174.787 -91.5713C175.847 -74.8193 177.237 -58.2628 179.928 -41.3491C182.155 -27.998 184.738 -14.4063 186.54 -1.02883C188.265 11.4152 188.712 24.0115 187.873 36.553C186.947 52.9024 183.913 68.2436 181.851 84.1378C180.513 92.9312 180.429 101.877 181.603 110.693C182.564 117.165 184.783 123.373 188.127 128.946C192.296 135.572 197.738 141.256 204.119 145.65C212.563 151.437 221.57 156.31 230.995 160.19C236.51 162.563 242.19 164.839 247.774 166.946C260.86 171.829 273.851 176.543 286.841 181.257C293.987 183.792 301.228 186.497 308.209 189.13C322.17 194.397 336.132 199.664 350.023 205.198C366.282 211.811 382.332 219.226 398.495 225.67C412.653 231.363 427.514 235.012 442.652 236.512C456.107 237.811 469.664 237.5 483.051 235.587C489.876 234.746 496.551 232.917 502.876 230.155C506.618 228.649 510.251 226.873 513.747 224.839C519.035 221.413 523.77 217.159 527.779 212.233C537.818 199.961 544.114 184.944 548.181 168.312C551.037 157.533 552.031 146.325 551.12 135.196C550.336 127.271 548.033 119.584 544.342 112.579C539.548 103.99 533.42 96.2628 526.198 89.7028C517.352 81.4039 508.53 73.5411 499.449 65.6071C488.661 56.2022 477.542 46.9933 467.458 36.4937C462.538 31.4219 458.05 25.9269 454.043 20.0689C445.488 7.98554 441.039 -5.40337 438.596 -19.5295C435.771 -36.1881 434.163 -53.0406 433.786 -69.9468C433.298 -81.9427 433.597 -93.9594 434.68 -105.915C436.015 -121.702 439.417 -137.233 444.796 -152.089C446.992 -158.356 449.803 -164.312 452.424 -170.605C452.755 -171.518 452.958 -172.474 453.027 -173.445" stroke="white" stroke-width="1.5" stroke-linecap="round" stroke-linejoin="round"/>
<path d="M-167.047 57.5673C-164.896 52.0033 -162.814 46.7064 -160.828 41.2403C-156.576 29.2397 -152.229 17.4085 -148.333 5.1671C-144.696 -6.3514 -142.466 -18.2878 -141.695 -30.3682C-140.844 -42.1581 -140.254 -54.0195 -139.144 -65.738C-137.703 -83.5207 -133.635 -100.152 -125.588 -114.402C-121.296 -122.098 -115.855 -129.055 -109.463 -135.021C-104.889 -139.449 -99.8117 -143.293 -94.34 -146.469C-92.36 -147.643 -90.8305 -149.227 -88.7553 -150.231C-83.2152 -153.29 -77.5798 -156.179 -71.7794 -159.166C-67.2991 -161.37 -62.6537 -163.672 -58.2685 -166.046C-51.6431 -169.522 -45.113 -173.167 -38.513 -177.08C-34.1532 -179.89 -30.079 -183.208 -25.9096 -186.357C-22.4002 -189.114 -18.7957 -191.703 -15.4513 -194.362C-12.4369 -196.826 -9.51766 -199.46 -6.66825 -201.826C-4.38365 -203.632 -2.28938 -205.776 0.0904175 -207.412C4.88925 -211.083 9.91077 -214.437 15.1244 -217.453C30.7549 -226.042 48.2067 -228.261 67.4164 -222.268C79.2908 -218.573 90.3607 -212.567 100.023 -204.579C106.84 -199.103 112.802 -192.59 117.703 -185.266C120.381 -181.611 122.827 -177.783 125.027 -173.807C130.038 -164.172 133.631 -153.827 135.688 -143.109C139.039 -126.587 138.608 -110.531 138.176 -94.4747C137.745 -78.4188 136.913 -61.9004 139.934 -45.1823C141.216 -37.8164 142.853 -30.2096 144.56 -22.87C147.854 -8.79656 151.478 5.08108 153.236 19.162C154.614 29.4779 154.878 39.9191 154.023 50.2959C153.026 61.0438 151.44 71.916 150.444 82.6639C149.422 92.9754 148.305 103.118 149.72 114.242C150.704 122.747 153.346 130.96 157.488 138.393C161.629 145.826 167.187 152.327 173.829 157.508C179.47 161.857 185.461 165.705 191.738 169.012C197.508 172.216 203.488 175.007 209.634 177.363C218.106 180.693 226.458 183.416 235 186.479C238.052 187.603 241.009 188.559 243.897 189.782C261.882 196.726 279.937 203.404 297.782 210.883C312.31 216.817 326.429 223.757 340.041 231.652C355.507 240.768 370.902 250.15 386.272 259.096C400.524 267.426 416.321 272.595 432.644 274.268C445.171 275.419 457.717 275.43 470.004 275.37C484.511 275.348 498.853 275.423 513.17 275.062C518.969 274.982 524.724 274.006 530.241 272.165C538.411 269.395 545.368 263.753 549.882 256.233C556.299 245.955 561.558 234.962 565.557 223.467C571.611 207.238 577.665 191.009 583.364 174.539C586.867 164.336 590.015 153.894 592.807 143.21C595.331 133.733 595.974 123.833 594.698 114.099C593.901 108.38 592.195 102.834 589.647 97.6825C584.641 87.6596 577.48 78.9376 568.704 72.1764C557.231 62.7264 545.687 53.5434 534.048 44.1912C522.669 34.9146 512.275 24.431 503.041 12.9144C496.556 4.50596 490.989 -4.60706 486.439 -14.2618C480.942 -25.658 477.074 -37.8084 474.953 -50.3389C472.769 -61.8441 471.717 -73.5461 471.811 -85.2686C471.969 -99.2518 473.914 -113.155 477.599 -126.62C477.79 -127.635 477.873 -128.668 477.846 -129.701" stroke="white" stroke-width="1.5" stroke-linecap="round" stroke-linejoin="round"/>
<path d="M-182.207 30.2171C-175.453 16.5447 -170.194 2.14802 -166.526 -12.7102C-164.148 -22.9814 -162.672 -33.4501 -162.115 -43.9907C-161.519 -54.2758 -160.402 -64.4183 -159.71 -74.5342C-158.691 -87.3284 -156.009 -99.9261 -151.733 -111.992C-147.365 -124.629 -140.584 -136.246 -131.787 -146.161C-127.529 -150.717 -123.271 -155.273 -118.822 -159.49C-115.738 -162.221 -112.273 -164.275 -108.999 -166.668C-106.454 -168.402 -103.839 -170.404 -101.199 -171.968C-97.4043 -174.218 -93.5141 -176.298 -89.5287 -178.209C-85.4736 -180.388 -81.1581 -182.494 -76.9126 -184.334C-68.6424 -188.071 -60.652 -192.431 -53.0067 -197.376C-48.8119 -200.089 -44.9028 -203.309 -40.8984 -206.36C-31.1698 -213.707 -23.1039 -223.229 -14.7524 -232.242C-10.5894 -236.967 -6.33101 -241.523 -1.71738 -245.838C5.52618 -252.896 15.1414 -256.818 25.1267 -256.785C35.1374 -256.491 45.0596 -254.777 54.6108 -251.691C68.0909 -247.657 80.9401 -241.669 92.7701 -233.908C107.264 -224.96 119.964 -213.262 130.193 -199.438C133.068 -195.499 135.943 -191.56 138.583 -187.256C141.335 -182.949 143.846 -178.484 146.103 -173.883C148.905 -167.348 151.346 -160.656 153.414 -153.839C157.408 -140.295 159.602 -126.26 159.938 -112.111L161.233 -72.2499C161.82 -58.2472 163.544 -44.3199 166.386 -30.6126C168.823 -18.0628 171.45 -5.17458 173.366 7.23232C175.396 20.3364 175.712 33.6611 174.306 46.8532C173.005 58.2331 171.444 69.5417 170.048 80.7523C168.78 89.219 168.222 97.781 168.379 106.345C168.721 116.34 171.611 126.068 176.762 134.555C179.463 138.904 182.83 142.777 186.732 146.026C194.825 153.262 204.082 159.002 214.09 162.989C221.356 166.13 228.458 169.369 235.699 172.074C247.483 176.599 259.408 180.591 271.262 184.849C274.575 186.046 278.148 187.313 281.556 188.679C287.14 190.785 292.725 192.892 298.144 195.097C306.261 198.185 314.543 201.176 322.685 204.701C334.59 209.832 346.521 215.4 358.357 220.799C367.305 224.974 376.183 229.417 385.201 233.326C392.562 236.636 399.924 239.947 407.425 242.723C418.058 246.591 429.128 249.055 440.368 250.055C448.002 250.721 455.541 251.218 463.22 251.18C477.314 251.476 491.39 249.956 505.117 246.659C512.908 244.624 520.281 241.171 526.885 236.464C533.729 231.244 539.446 224.627 543.677 217.03C549.731 206.739 554.731 195.832 558.596 184.485C561.871 174.811 564.631 164.961 566.865 154.98C568.727 146.548 569.487 137.9 569.124 129.263C568.772 121.04 566.46 113.033 562.391 105.943C557.151 96.6993 550.313 88.5148 542.21 81.7914C534.195 74.5797 525.945 67.733 517.86 60.7885C507.797 52.4407 498.215 43.4995 489.163 34.0106C483.08 27.6161 477.513 20.7255 472.517 13.4064C468.118 6.68857 464.279 -0.398907 461.043 -7.7807C454.817 -22.3733 451.898 -37.3457 449.829 -52.3709C447.572 -68.4905 447.023 -84.8148 448.192 -101.058C449.184 -115.396 452.036 -129.535 456.67 -143.102C458.047 -147.304 459.685 -151.434 461.227 -155.734C461.36 -156.373 461.436 -157.023 461.455 -157.675" stroke="white" stroke-width="1.5" stroke-linecap="round" stroke-linejoin="round"/>
<path d="M-173.452 45.7908C-168.915 34.2981 -164.542 22.9035 -160.1 11.2415C-155.13 -2.48026 -151.947 -16.8144 -150.632 -31.3891C-149.54 -41.9677 -149.325 -52.9299 -148.493 -63.58C-147.306 -79.8579 -144.793 -95.3421 -139.038 -109.363C-131.75 -126.866 -119.702 -141.845 -104.337 -152.505C-98.6573 -156.097 -93.2376 -159.761 -87.3674 -163.016C-83.0774 -165.559 -78.6669 -167.496 -74.1865 -169.7C-70.0362 -171.709 -65.9556 -173.451 -61.9956 -175.799C-54.8753 -179.568 -47.8501 -183.507 -41.0851 -187.517C-37.269 -190.046 -33.6108 -192.818 -30.1317 -195.816C-26.1273 -198.867 -22.2182 -202.087 -18.309 -205.307C-15.0598 -208.136 -11.7407 -211.232 -8.39632 -213.892C-5.05191 -216.552 -1.89788 -219.55 1.54172 -222.04C5.47631 -224.824 9.67101 -227.537 13.796 -229.982C21.6969 -234.373 30.5409 -236.667 39.5233 -236.655C52.0442 -237.08 64.8634 -233.845 77.3844 -228.401C89.7755 -222.939 101.077 -215.176 110.721 -205.503C116.371 -199.842 121.527 -193.684 126.129 -187.099C135.074 -173.847 141.263 -158.845 144.311 -143.028C147.446 -127.28 147.554 -112.221 147.497 -97.0645C147.497 -85.3272 147.497 -73.5897 147.922 -61.8787C148.657 -50.0153 150.484 -38.2507 153.38 -26.7421C156.362 -13.613 159.675 -0.679389 161.382 12.5288C163.134 24.8368 163.43 37.3177 162.264 49.7005C161.332 58.605 160.139 67.4381 159.041 76.4404C157.854 86.8497 156.407 97.1875 156.877 108.195C157.168 116.386 159.093 124.428 162.532 131.823C165.972 139.218 170.853 145.81 176.873 151.19C184.537 157.861 193.108 163.35 202.315 167.483C207.83 169.857 213.205 172.765 218.79 174.872C230.054 179.255 241.458 183.103 252.697 187.049L262.375 190.567C279.579 197.297 296.593 203.688 313.658 210.953C331.13 218.463 348.179 226.969 364.725 236.432C378.484 244.077 392.147 251.552 406.369 256.89C416.166 260.525 426.366 262.895 436.735 263.944C443.259 264.591 449.757 264.801 456.256 265.012C470.751 265.421 485.257 264.961 499.701 263.635C506.909 263.052 514.038 261.7 520.974 259.603C526.299 257.724 531.273 254.928 535.684 251.334C546.942 242.403 553.504 229.033 559.355 215.182C563.873 204.829 567.871 194.333 571.514 183.597C575.436 171.792 579.262 159.817 582.213 147.459C584.563 138.549 585.239 129.263 584.206 120.095C583.611 114.708 582.212 109.447 580.056 104.498C575.785 94.1639 568.664 86.196 560.744 79.1536C550.051 69.918 539.123 61.0473 528.36 52.0788C517.667 43.3241 507.687 33.689 498.52 23.2696C493.442 17.1798 488.737 10.7722 484.432 4.08372C476.797 -8.05111 471.097 -21.3583 467.545 -35.3375C462.526 -54.4118 460.539 -74.1944 461.662 -93.9223C462.449 -109.314 465.297 -124.522 470.128 -139.118C470.267 -139.653 470.216 -140.525 470.356 -141.06" stroke="white" stroke-width="1.5" stroke-linecap="round" stroke-linejoin="round"/>
<path d="M514.736 541.154C512.318 539.202 509.735 537.347 507.318 535.394C500.844 529.751 494.536 524.011 488.063 518.368C478.286 509.878 469.309 500.463 461.251 490.247C456.643 484.401 452.366 478.359 448.254 472.22C437.916 457.356 430.123 440.759 420.68 425.139C410.666 408.504 398.373 395.25 382.368 387.132C372.779 382.208 362.866 379.055 353.062 379.224C348.573 379.098 344.111 379.972 339.982 381.786C336.158 383.565 332.456 385.608 328.902 387.903C324.925 390.766 321.228 394.016 317.86 397.609C309.083 406.649 300.497 416.027 291.72 425.067C287.723 428.687 283.532 432.075 279.168 435.217C277.341 436.861 275.332 438.279 273.183 439.442C265.212 443.264 256.956 446.578 247.31 445.073C242.489 444.34 237.92 442.397 234.008 439.415C231.391 437.356 229.254 434.724 227.75 431.712C226.246 428.7 225.414 425.381 225.314 421.997C224.934 414.904 226.537 407.845 229.934 401.653C234.881 391.748 241.64 382.913 249.842 375.631C254.498 371.282 259.457 367.286 264.679 363.676C271.984 358.669 279.573 354.17 287.163 349.67C291.288 347.225 295.794 345.457 300.014 343.181C303.384 341.634 306.673 339.91 309.87 338.016C318.164 332.422 325.177 325.33 328.013 313.943C330.596 304.06 329.492 293.881 324.605 283.234C319.462 272.705 312.267 263.372 303.466 255.814C291.656 244.983 278.653 237.117 265.18 229.98C250.997 222.362 236.254 216.881 221.747 211.035C208.731 205.885 195.766 201.608 182.82 196.19C170.158 191.201 158.284 184.322 147.58 175.774C140.12 169.646 133.6 162.402 128.237 154.286C119.822 141.668 116.033 127.888 114.605 113.612C113.279 101.081 114.199 89.0234 115.024 76.7971C116.166 61.2227 117.118 45.31 114.548 29.0019C112.887 19.0274 110.518 9.19104 107.459 -0.42803C103.556 -13.2375 98.9683 -26.0918 96.2458 -39.1495C93.7232 -51.2897 92.7989 -63.7237 93.4978 -76.1183C94.2974 -88.781 95.3572 -101.372 95.8966 -114.106C96.3779 -122.991 95.4562 -131.897 93.1676 -140.478C89.6899 -153.314 82.7727 -163.659 71.8066 -170.25C65.3461 -174.331 57.8087 -176.252 50.236 -175.746C43.7209 -175.481 37.3473 -173.709 31.591 -170.562C29.281 -169.193 26.6855 -168.331 24.6357 -166.89C20.3711 -163.911 16.2018 -160.762 12.0324 -157.613C7.86295 -154.465 3.78882 -151.147 -0.285389 -147.829C-3.2998 -145.364 -6.12395 -142.562 -8.97336 -140.196C-11.3278 -138.123 -14.0375 -136.291 -16.4871 -134.387C-19.6665 -131.825 -23.0108 -129.166 -26.2854 -126.773C-28.3352 -125.332 -30.2202 -123.989 -32.27 -122.549C-35.6398 -120.325 -38.9397 -118.369 -42.2143 -115.976C-46.8089 -112.801 -51.3082 -109.457 -55.7124 -105.943C-60.7001 -102.166 -65.4502 -98.0684 -69.9341 -93.6756C-73.7016 -89.7795 -77.0291 -85.46 -79.8532 -80.7987C-85.5115 -71.2086 -89.3265 -60.595 -91.092 -49.533C-92.7547 -39.9701 -94.2525 -30.5052 -95.9151 -20.9424C-98.3356 -6.70514 -101.947 7.29212 -106.71 20.8941C-110.822 32.3605 -115.36 43.8534 -119.116 55.5606C-124.225 71.9062 -128.978 88.4928 -133.731 105.079C-134.36 107.483 -135.153 109.985 -135.781 112.389" stroke="white" stroke-width="1.5" stroke-linecap="round" stroke-linejoin="round"/>
<path d="M508.001 545.61C502.429 540.788 496.692 536.063 491.12 531.24C477.298 519.57 463.781 507.269 452.002 492.582C447.04 486.495 442.312 480.043 437.584 473.591C433.592 468.058 429.93 462.328 426.104 456.697C418.355 445.264 410.606 433.832 401.068 423.911C390.724 413.34 379.212 406.17 366.418 403.371C358.497 401.672 350.275 402.181 342.608 404.846C336.442 407.187 330.6 410.346 325.232 414.243C320.251 417.883 315.493 421.834 310.985 426.074L299.543 436.243C296.789 438.778 294.034 441.314 291.185 443.68C290.125 444.534 288.9 445.486 287.841 446.34C283.102 449.75 278.15 452.837 273.016 455.579C265.226 459.736 256.532 461.782 247.758 461.523C237.408 461.113 227.26 458.325 218.198 449.251C214.647 445.784 211.93 441.517 210.263 436.786C208.595 432.055 208.022 426.991 208.59 421.992C209.586 411.244 213.686 402.494 218.496 394.225C223.105 386.401 228.517 379.107 234.641 372.466C240.263 366.425 246.337 360.793 252.245 355.259C255.799 351.798 259.543 348.676 263.287 345.553C266.136 343.187 269.107 341.427 271.956 339.06C275.63 336.205 279.374 333.083 282.954 330.058C286.933 326.571 291.077 322.986 294.865 319.16C300.1 314.013 303.725 307.386 305.279 300.121C306.799 292.685 305.99 284.948 302.969 278.015C298.914 268.456 292.435 261.237 285.39 254.578C275.567 245.793 264.663 238.37 252.955 232.5C240.928 226.338 228.586 220.845 215.983 216.045C202.707 210.823 189.291 206.136 176.085 200.647C163.379 195.545 151.491 188.516 140.819 179.795C131.817 172.007 124.055 162.824 117.814 152.577C114.31 146.221 111.487 139.495 109.393 132.514C105.745 118.747 104.252 104.47 104.97 90.2186C105.35 79.1585 105.826 68.2676 106.042 57.3053C106.248 41.3106 103.909 25.3903 99.1184 10.172C95.0758 -2.10327 91.0333 -14.3785 87.3208 -26.8493C83.8157 -38.0544 81.6506 -49.656 80.8731 -61.3991C80.3625 -73.3043 80.6383 -85.2316 81.6982 -97.0997C82.6681 -107.003 82.5168 -116.987 81.2475 -126.853C80.4714 -132.159 78.846 -137.297 76.437 -142.059C73.5475 -147.833 68.9785 -152.54 63.3638 -155.527C55.9061 -159.158 47.348 -159.604 39.566 -156.768C33.5788 -154.5 27.8791 -151.5 22.5901 -147.833C18.4781 -144.901 14.5308 -141.732 10.7672 -138.342C7.5878 -135.78 4.31336 -133.388 1.22914 -130.656C-1.85507 -127.925 -5.10443 -125.096 -8.44883 -122.437C-10.8984 -120.533 -13.513 -118.532 -15.9626 -116.628C-19.637 -113.773 -23.1463 -111.015 -26.9159 -108.329C-28.4707 -107.182 -29.8607 -106.133 -31.4155 -104.985C-37.0445 -100.52 -42.7686 -96.2235 -48.3976 -91.7581C-54.1883 -87.1085 -59.3546 -81.6935 -63.7617 -75.6535C-70.8795 -65.458 -75.8977 -53.8808 -78.5098 -41.6302C-81.9494 -27.4025 -84.7734 -12.8627 -88.6636 0.954938C-92.0397 13.3392 -96.3868 25.1706 -100.569 36.9041C-106.902 54.2015 -113.426 71.1601 -118.338 89.4206C-121.644 101.538 -124.951 113.655 -128.422 125.87" stroke="white" stroke-width="1.5" stroke-linecap="round" stroke-linejoin="round"/>
<path d="M312.913 -422.62C310.502 -422.996 307.995 -423.542 305.584 -423.918C299.295 -424.93 293.006 -425.942 286.812 -426.785C281.581 -427.636 276.221 -426.752 271.511 -424.26C268.269 -422.172 265.468 -419.437 263.274 -416.217C259.257 -410.45 255.855 -404.371 252.194 -398.363C241.168 -379.121 227.567 -361.561 211.788 -346.196C208.469 -343.1 205.15 -340.004 201.641 -337.247C197.071 -333.635 192.312 -330.362 187.647 -326.92C184.841 -324.656 181.808 -322.706 178.598 -321.104C173.292 -318.411 167.441 -316.296 162.041 -313.772C154.684 -310.631 147.05 -308.222 139.246 -306.579C134.454 -305.319 129.612 -304.932 124.725 -303.841C116.628 -302.201 108.6 -300.828 100.788 -298.68C95.6665 -297.224 91.2116 -294.583 89.3458 -288.511C88.1417 -284.501 88.4545 -280.172 90.2217 -276.39C92.8236 -269.807 97.4499 -265.1 101.911 -260.296C110.739 -250.858 119.871 -242.051 128.863 -232.71C137.363 -224.147 145.153 -214.874 152.154 -204.985C155.409 -200.369 158.595 -195.486 161.686 -190.772C163.85 -187.315 166.274 -183.786 168.203 -179.964C173.464 -169.781 177.771 -159.108 181.067 -148.089C183.631 -139.226 185.604 -130.238 187.318 -121.323C190.624 -104.097 191.544 -86.8103 193.74 -69.6032C195.669 -54.0438 198.284 -38.4394 200.734 -22.7371C203.742 -3.30288 205.804 16.0147 204.675 34.7417C204.038 46.0585 202.814 57.3328 201.007 68.5164C199.852 75.0697 198.697 81.6232 197.802 88.248C196.44 97.1275 196.333 106.162 197.485 115.071C198.893 124.461 203.163 133.15 209.682 139.892C216.242 146.746 223.937 152.349 232.408 156.441C246.331 163.987 260.788 168.961 274.939 174.566C283.412 177.895 292.023 180.691 300.565 183.753C309.888 187.029 319.305 190.475 328.793 193.654C351.436 201.449 373.92 210.918 396.449 219.683C409.406 225.004 422.878 228.896 436.639 231.296C451.831 233.952 467.344 234.056 482.572 231.605C488.706 230.747 494.694 229.02 500.367 226.474C502.937 225.176 505.793 224.386 508.268 222.919C518.971 216.515 527.546 206.948 532.872 195.468C536.052 188.753 538.42 181.664 539.922 174.36C541.621 165.864 542.064 157.155 541.236 148.526C540.513 141.878 538.664 135.412 535.772 129.419C530.314 117.757 522.032 108.898 513.256 100.332C502.436 90.1894 491.112 80.6287 479.329 71.6883C472.881 66.4818 466.269 61.3733 459.726 55.9974C452.584 50.3057 446.153 43.7317 440.58 36.4241C434.382 27.9456 430.317 18.0286 428.744 7.55089C426.637 -5.19458 426.777 -17.4658 426.656 -29.8087C426.593 -45.5713 426.694 -61.4318 427.056 -77.2207C427.328 -85.734 428.122 -94.1043 428.915 -102.475C430.576 -119.53 434.574 -136.261 440.789 -152.173C443.594 -159.705 447.109 -166.755 450.27 -174.046C450.496 -174.849 450.793 -175.63 451.158 -176.378" stroke="white" stroke-width="1.5" stroke-linecap="round" stroke-linejoin="round"/>
<path d="M501.4 549.52C495.568 544.625 489.57 539.829 483.903 534.837C472.819 525.659 462.197 515.909 452.077 505.625C444.792 497.755 437.906 489.422 431.351 480.894C422.752 469.514 414.318 458.036 405.414 447.289C396.225 436.033 385.462 427.064 372.827 422.591C364.451 419.487 355.369 418.983 346.712 421.143C338.38 423.148 331.31 427.79 324.146 432.263C320.362 435.002 316.744 437.976 313.313 441.167C310.463 443.534 307.354 445.829 304.504 448.195C301.655 450.561 298.571 453.292 295.721 455.658C294.478 456.806 293.173 457.882 291.812 458.879C286.356 462.713 280.69 466.222 274.843 469.39C264.672 474.471 253.315 476.51 242.071 475.273C229.816 474.245 218.185 469.298 208.817 461.128C204.036 457.142 200.246 452.047 197.758 446.262C195.27 440.477 194.156 434.168 194.507 427.854C195.053 416.696 198.867 407.438 203.486 398.83C208.441 389.268 214.515 380.361 221.573 372.309C227.005 365.929 232.628 359.887 238.25 353.845C243.404 348.533 248.817 343.293 254.065 338.15C259.878 332.447 265.691 326.744 271.409 320.872C277.032 315.316 281.519 308.665 284.609 301.31C287.712 293.649 287.914 285.076 285.174 277.274C282.773 270.647 278.954 264.658 273.998 259.748C264.993 250.475 254.57 242.777 243.143 236.958C226.922 228.064 210.359 222.083 193.77 215.665C179.402 210.428 165.449 204.058 152.038 196.614C139.342 189.48 128.117 179.882 118.987 168.355C105.325 150.62 97.4364 128.927 96.4331 106.335C95.8619 93.5824 96.1411 80.7767 96.2553 68.0689C96.7403 51.2956 94.6718 34.5489 90.1248 18.4336C87.25 8.62622 83.5247 -1.12868 80.0596 -10.8119C77.7877 -17.591 75.186 -24.174 73.079 -31.0509C70.3331 -40.118 68.2812 -49.3921 66.9422 -58.788C65.5801 -70.6957 64.94 -82.6791 65.0256 -94.6692C65.2427 -101.891 64.6507 -109.113 63.2614 -116.195C61.5797 -123.098 58.5778 -129.219 51.8319 -132.217C47.8072 -134.147 43.2301 -134.487 38.9746 -133.173C32.8859 -131.703 27.2118 -128.803 22.3986 -124.701C20.2931 -123.003 18.0727 -121.46 15.7543 -120.085C11.9847 -117.399 8.57029 -114.472 4.80069 -111.786L0.136335 -108.344C-3.63326 -105.658 -7.66294 -103.043 -11.3373 -100.188C-14.7769 -97.6978 -17.8611 -94.9665 -21.3007 -92.4761C-24.2453 -90.2792 -27.4503 -88.1539 -30.2997 -85.7876C-34.0439 -82.6652 -37.8579 -79.2757 -41.4117 -75.8147C-48.6418 -68.6024 -54.617 -60.1742 -59.0792 -50.8954C-62.8131 -42.6078 -65.8532 -34.0096 -68.1668 -25.1939C-72.755 -8.70526 -77.153 8.1216 -83.2326 23.9142C-88.6331 38.1758 -94.4842 52.0272 -99.6246 66.3602C-105.139 81.5923 -109.328 97.6185 -113.611 113.475C-115.845 122.022 -118.599 130.426 -120.928 138.804" stroke="white" stroke-width="1.5" stroke-linecap="round" stroke-linejoin="round"/>
<path d="M533.084 530.741C529.289 527.122 525.494 523.503 521.629 520.151C510.907 510.635 500.993 500.202 491.992 488.964C488.36 484.402 485.107 479.535 482.27 474.413C477.485 465.512 473.455 456.389 472.281 446.477C470.346 434.951 472.94 423.105 479.497 413.533C484.89 406.34 490.965 399.715 497.634 393.753C508.849 383.328 518.105 370.879 524.941 357.025C528.84 349.012 531.675 340.5 533.369 331.715C534.035 327.71 534.257 323.642 534.029 319.586C533.906 316.346 533 313.189 531.393 310.399C529.785 307.608 527.527 305.273 524.82 303.602C519.994 300.475 514.735 298.114 509.222 296.597C497.11 293.406 484.66 291.765 472.154 291.71C461.568 291.665 451.199 292.395 440.518 292.181C429.413 291.992 418.212 291.635 406.878 287.519C396.308 283.47 386.356 277.892 377.324 270.955C367.443 263.947 357.797 256.573 347.985 249.298C335.978 240.566 323.314 232.828 310.112 226.154C301.754 221.854 293.066 217.75 284.568 213.984C273.799 209.308 263.03 204.632 252.121 200.49C239.815 195.821 227.606 191.322 215.326 187.09C202.755 182.85 190.586 177.447 178.969 170.947C169.921 165.91 161.84 159.229 155.12 151.227C149.539 144.434 145.338 136.565 142.764 128.08C139.691 117.504 138.612 106.423 139.585 95.4302C140.022 86.8191 141.336 78.5916 142.199 69.9542C143.958 56.2222 144.408 42.3477 143.544 28.5276C142.728 19.1061 141.157 9.7699 138.848 0.613842C135.821 -11.8119 132.369 -24.2111 129.602 -36.5653C126.697 -49.7908 125.506 -63.3533 126.061 -76.901C126.619 -90.775 127.438 -104.578 127.736 -118.523C128.06 -131.107 126.086 -143.641 121.916 -155.477C120.302 -159.97 118.422 -164.358 116.287 -168.617C113.632 -174.379 110.128 -179.686 105.899 -184.353C102.198 -188.688 98.1683 -192.714 93.8474 -196.395C87.3633 -201.694 80.0534 -205.832 72.226 -208.633C61.513 -212.711 49.9192 -213.718 38.6868 -211.548C33.5952 -210.688 28.6564 -209.054 24.0335 -206.7C19.6035 -204.559 15.2979 -202.158 11.1382 -199.507C5.88358 -195.94 0.984493 -192.133 -3.81952 -188.157C-9.11853 -183.887 -14.2273 -179.279 -19.6215 -175.178C-23.4609 -172.225 -27.3954 -169.441 -31.4252 -166.827C-39.8148 -161.402 -48.2995 -156.147 -56.8795 -151.06C-66.3796 -145.655 -76.2352 -140.489 -85.7353 -135.083C-91.9276 -131.259 -97.5978 -126.608 -102.597 -121.251C-107.649 -116.135 -111.911 -110.259 -115.239 -103.826C-118.823 -97.0343 -121.474 -89.7659 -123.114 -82.2285C-126.014 -68.9978 -126.998 -55.0974 -127.886 -41.0277C-128.835 -20.9909 -132.509 -1.18655 -138.801 17.8094C-143.542 31.6797 -148.473 45.2114 -153.213 59.0816C-154.825 63.6486 -156.177 68.287 -157.624 72.7561" stroke="white" stroke-width="1.5" stroke-linecap="round" stroke-linejoin="round"/>
<path d="M526.15 534.848C515.241 524.837 504.427 514.996 493.753 504.62C486.718 497.749 480.386 490.158 474.854 481.966C470.361 475.149 466.693 467.844 462.86 460.636C459.77 454.519 457.389 448.052 455.764 441.367C453.226 432.47 452.395 423.152 453.315 413.928C454.316 405.241 458.295 397.201 464.541 391.247C469.225 386.665 474.454 382.662 479.588 378.49C487.146 371.978 494.159 364.887 499.058 355.211C501.564 350.328 502.887 344.899 502.916 339.381C502.878 329.924 499.001 323.419 490.877 318.754C485.123 315.642 478.743 313.938 472.239 313.777C461.438 312.957 451.214 314.729 440.825 316.598C431.617 318.22 422.669 319.913 412.858 318.506C404.536 317.113 396.681 313.627 389.993 308.36C381.248 301.806 374.007 293.233 366.462 285.292C358.37 276.771 350.349 267.983 341.718 260.459C326.129 246.938 308.915 235.523 290.498 226.492C283.467 222.986 276.53 219.649 269.264 216.508C261.382 213.055 253.5 209.601 245.384 206.513C234.995 202.514 224.467 199.048 214.008 195.317C197.87 189.309 181.567 183.399 166.285 173.046C158.658 168.006 151.869 161.743 146.174 154.496C138.935 145.133 134.018 134.106 131.845 122.361C130.078 111.712 129.677 100.871 130.651 90.1136C131.705 75.9461 133.088 61.5833 133.882 47.3443C134.301 34.3509 132.856 21.3662 129.592 8.80706C126.565 -3.61865 123.112 -16.0182 119.66 -28.4176C115.377 -44.3262 113.666 -60.8499 114.596 -77.3304C115.179 -90.7681 116.284 -104.063 116.772 -117.67C117.142 -128.774 115.601 -139.857 112.222 -150.41C105.286 -171.353 92.7266 -186.254 74.2403 -194.481C65.3669 -198.481 55.6254 -200.022 45.9874 -198.95C41.0751 -198.605 36.2624 -197.358 31.7783 -195.268C26.8909 -193.196 22.155 -190.766 17.6074 -187.996C13.2438 -185.143 9.03637 -182.046 5.00409 -178.719C1.49468 -175.961 -2.1099 -173.373 -5.4543 -170.713C-8.79871 -168.054 -11.7879 -165.153 -15.1323 -162.494C-17.6517 -160.323 -20.3614 -158.491 -22.976 -156.489C-38.854 -144.82 -56.3504 -136.029 -73.0597 -125.446C-82.4124 -119.732 -90.7092 -112.369 -97.5683 -103.694C-104.759 -93.7104 -109.635 -82.1738 -111.822 -69.9649C-113.83 -58.4978 -115.18 -46.9198 -115.864 -35.291C-117.216 -17.1746 -120.764 0.699156 -126.424 17.9176C-130.885 30.7195 -135.347 43.5216 -139.713 56.4928C-143.051 66.5973 -145.938 77.1119 -149.016 87.2879C-149.086 87.555 -149.321 87.92 -149.39 88.1871" stroke="white" stroke-width="1.5" stroke-linecap="round" stroke-linejoin="round"/>
<path d="M327.861 -396.042C326.355 -396.065 324.848 -396.001 323.349 -395.85C318.012 -395.169 312.51 -394.391 307.363 -393.371C300.602 -392.213 293.91 -390.657 287.322 -388.714C283.001 -387.274 278.873 -385.282 275.036 -382.785C269.209 -378.57 263.604 -374.042 258.244 -369.219C250.381 -362.076 242.709 -354.593 234.941 -347.28C229.033 -341.746 223.055 -335.945 217.146 -330.412C214.392 -327.876 211.283 -325.581 208.433 -323.215C204.524 -319.994 200.78 -316.872 196.775 -313.821C195.055 -312.576 193.431 -311.162 191.781 -310.184C183.131 -304.83 174.316 -299.379 165.667 -294.026C161.872 -291.776 157.531 -290.106 153.926 -287.518C149.332 -284.343 144.807 -281.435 141.329 -276.665C136.678 -270.07 136.259 -262.599 140.428 -254.01C142.954 -248.736 145.645 -243.559 148.666 -238.578C151.686 -233.598 155.367 -229.008 158.553 -224.125C161.072 -220.427 163.262 -216.534 165.946 -212.933C172.156 -203.779 177.813 -194.242 182.884 -184.376C186.291 -177.938 189.354 -171.315 192.061 -164.536C196.301 -153.98 199.703 -143.089 202.233 -131.969C204.734 -121.262 206.904 -110.36 209.144 -99.7252C211.556 -87.6117 213.707 -75.5696 216.024 -63.6255C217.883 -53.6676 219.743 -43.7098 221.767 -33.8497C225.995 -12.1562 226.771 10.0994 224.064 32.0521C223.195 39.1133 222.421 46.3436 221.291 53.3333C219.654 63.3326 217.496 73.1889 216.024 83.0904C214.426 91.9769 214.263 101.072 215.542 110.011C216.282 115.51 218.19 120.774 221.133 125.431C223.997 129.649 227.345 133.501 231.103 136.901C239.113 143.853 248.137 149.471 257.845 153.552C265.822 157.174 273.894 160.966 281.916 163.886C293.345 168.17 304.749 172.019 316.153 175.868C323.819 178.546 331.391 181.056 338.961 183.565C350.365 187.413 361.769 191.262 373.269 195.279C377.267 196.521 381.125 198.297 385.123 199.538C402.207 205.662 419.031 211.715 436.241 214.153C450.71 216.41 465.053 216.486 478.411 212.855C482.777 211.621 487.023 209.782 491.199 208.209C497.804 205.378 503.594 200.858 508.016 195.08C512.136 189.755 515.122 183.602 516.78 177.019C518.798 169.642 519.25 161.908 518.106 154.338C516.619 144.661 512.833 135.51 507.083 127.693C498.726 115.838 488.361 105.621 476.482 97.5294C462.527 87.9702 448.267 79.043 434.172 70.0181C427.041 65.6241 420.458 60.3548 414.569 54.3268C411.168 50.724 408.136 46.7737 405.519 42.5371C400.795 34.6667 398.288 25.6049 398.278 16.3577C398.382 7.63432 399.481 -1.04742 401.553 -9.50957C404.879 -24.2609 407.43 -39.1849 409.193 -54.2166C410.723 -67.5376 411.282 -81.4114 412.551 -94.8039C414.232 -111.375 416.53 -127.634 421.194 -142.814C424.17 -152.807 427.883 -162.553 432.3 -171.969C435.416 -178.556 438.887 -184.903 442.003 -191.49C442.254 -192.182 442.441 -192.898 442.561 -193.627" stroke="white" stroke-width="1.5" stroke-linecap="round" stroke-linejoin="round"/>
<path d="M494.772 552.989C494.061 552.508 493.28 552.293 492.569 551.812C484.7 545.642 476.831 539.472 469.196 532.938C457.602 522.882 446.008 512.826 435.822 500.581C427.014 490.003 418.275 479.157 409.467 468.579C401.394 458.918 392.827 449.55 382.546 443.005C370.488 435.255 358.761 433.178 347.052 435.83C338.625 437.666 331.555 442.309 324.39 446.782C319.895 449.94 315.563 453.337 311.412 456.957C307.503 460.178 303.949 463.639 300.04 466.859C297.026 469.323 293.821 471.448 290.876 473.645C287.177 476.064 283.667 478.822 279.942 480.804C271.118 485.598 261.358 488.298 251.384 488.704C238.53 489.115 225.766 486.394 214.139 480.763C205.38 476.895 197.515 471.174 191.058 463.973C187.172 459.651 184.225 454.53 182.415 448.949C180.604 443.368 179.97 437.455 180.555 431.602C181.342 422.33 183.89 413.304 188.056 405.035C193.214 394.037 199.697 383.748 207.355 374.409C216.595 363.063 225.93 351.886 235.716 341.12C244.207 331.572 253.148 322.434 260.643 311.897C265.052 306.164 268.055 299.429 269.401 292.259C270.493 285.782 269.66 279.119 267.008 273.138C262.407 262.999 255.077 255.833 247.043 249.761C238.342 243.137 228.847 237.691 218.79 233.555C210.388 229.958 202.151 226.264 193.748 222.667C188.494 220.365 183.03 218.864 177.775 216.562C164.994 211.047 152.118 205.362 140.035 197.176C129.019 189.989 119.216 181.011 111.007 170.594C106.646 165.125 102.816 159.231 99.5718 152.996C94.0185 142.18 90.1451 130.54 88.0915 118.495C85.4071 103.158 85.4895 88.437 85.1214 73.3065C84.9437 64.3832 84.1758 55.5841 83.5729 46.6871C82.4601 35.8171 80.0034 25.1376 76.2621 14.9062C73.4888 6.8443 70.2204 -0.924365 67.1171 -8.7906C61.0058 -24.3538 54.8946 -39.9166 50.2936 -55.9237C48.0661 -63.4062 45.5783 -70.9604 43.0906 -78.5144C39.2892 -89.5783 32.5117 -94.5891 23.1829 -93.5734C18.3785 -92.8786 13.7112 -91.4069 9.35466 -89.2132C5.33913 -87.5372 1.43248 -85.5984 -2.34123 -83.4086C-8.51601 -79.5225 -14.2404 -75.2267 -20.2248 -71.0021C-25.7781 -67.0875 -30.7629 -62.3846 -35.0302 -57.0339C-40.7105 -50.3702 -45.3944 -42.8773 -48.9283 -34.8009C-55.744 -19.9262 -60.0719 -3.3661 -66.0817 12.1594C-72.0914 27.685 -78.2915 42.8721 -84.3964 58.2283C-90.6423 73.7906 -95.9284 89.7402 -100.224 105.982C-104.203 121.207 -107.757 136.405 -112.802 150.907C-112.871 151.174 -113.106 151.539 -113.176 151.806" stroke="white" stroke-width="1.5" stroke-linecap="round" stroke-linejoin="round"/>
<path d="M341.47 -371.835C341.306 -372.045 341.123 -372.239 340.925 -372.415C331.818 -369.048 322.35 -367.498 313.002 -365.342C305.424 -363.559 298.012 -361.874 290.72 -359.583C286.22 -358.049 281.849 -356.138 277.654 -353.869C274.631 -352.64 271.72 -351.14 268.953 -349.388C264.359 -346.213 260.024 -342.967 255.525 -339.622C252.91 -337.621 250.2 -335.789 247.681 -333.618C244.831 -331.252 241.982 -328.885 239.228 -326.35C235.814 -323.423 232.4 -320.496 229.08 -317.4C226.726 -315.327 224.467 -313.085 222.112 -311.012C218.698 -308.086 215.284 -305.159 211.965 -302.063C207.986 -298.575 204.102 -294.919 200.053 -291.164C196.005 -287.41 191.93 -284.092 188.142 -280.266C183.223 -275.319 178.661 -270.132 175.925 -262.867C173.366 -255.049 173.618 -246.551 176.636 -238.911C178.688 -232.909 181.283 -227.117 184.385 -221.61C188.002 -215.177 191.55 -208.477 195.002 -201.946C198.454 -195.416 201.837 -188.618 204.794 -181.794C211.27 -167.447 216.669 -152.613 220.945 -137.422C224.708 -124.078 228.142 -110.539 232.165 -97.1235C235.998 -84.047 240.421 -71.0946 244.419 -58.1159C247.605 -47.3643 250.861 -36.8797 253.361 -26.1732C255.644 -15.761 256.325 -5.0451 255.379 5.5853C254.186 20.287 250.271 33.6681 246.876 47.1923C244.528 56.71 242.44 66.299 240.092 75.8167C238.018 84.4437 237.383 93.3681 238.213 102.211C238.985 109.821 241.831 117.051 246.425 123.074C252.175 130.952 259.378 135.937 266.72 140.387C277.785 147.126 289.552 152.567 301.802 156.608C316.518 161.653 331.54 166.066 346.231 170.675C359.786 174.828 373.081 178.91 386.542 182.894C398.846 186.848 411.344 190.138 423.984 192.75C433.894 194.813 444.052 195.335 454.115 194.3C461.278 193.506 468.17 191.042 474.264 187.096C482.603 180.798 487.813 172.067 485.655 158.449C484.859 153.917 483.366 149.546 481.232 145.496C476.704 137.45 470.763 130.334 463.71 124.508C453.277 115.344 441.911 109.216 430.685 102.554C421.851 97.4072 413.017 92.2607 404.393 86.313C394.857 79.7813 386.314 71.8396 379.04 62.7446C372.712 55.0212 368.081 45.9863 365.466 36.2567C363.208 27.374 363.105 18.0572 365.167 9.12161C367.743 -0.225138 371.188 -9.29684 375.454 -17.9682C381.121 -30.582 386.528 -43.2673 389.187 -57.7094C391.409 -69.409 393.274 -81.3493 395.14 -93.2897C396.384 -101.25 397.177 -109.62 398.421 -117.58C400.749 -133.366 405.014 -148.787 411.113 -163.476C415.022 -172.565 419.192 -181.582 423.456 -190.43C426.363 -196.216 429.72 -201.592 432.722 -207.209C432.973 -207.901 433.16 -208.617 433.28 -209.345" stroke="white" stroke-width="1.5" stroke-linecap="round" stroke-linejoin="round"/>
<path d="M485.561 558.913C477.692 552.743 469.822 546.574 461.858 540.235C450.08 531.212 439.026 521.234 428.801 510.398C421.611 502.698 414.82 494.534 407.96 486.638C399.913 477.414 391.701 468.287 381.751 461.546C372.511 455.286 362.953 452.374 353.364 453.319C346.651 454.067 340.173 456.29 334.37 459.838C328.126 463.572 322.235 467.896 316.773 472.753C311.664 477.361 306.555 481.969 301.256 486.239C296.948 489.73 292.465 492.99 287.828 496.005C284.4 498.376 280.816 500.5 277.103 502.363C270.806 505.163 264.095 506.852 257.252 507.359C245.183 507.79 233.137 505.985 221.695 502.028C209.052 498.071 196.983 492.396 185.807 485.155C179.241 480.968 173.464 475.599 168.755 469.306C163.803 462.381 161.107 454.026 161.051 445.433C160.981 433.963 164.415 424.028 168.298 414.502C172.81 403.93 178.469 393.913 185.166 384.64C194.609 370.916 205.049 358.182 215.583 345.617C222.285 337.582 228.891 329.377 235.142 320.932C240.378 314.393 244.559 307.037 247.53 299.142C250.014 292.705 250.498 285.638 248.913 278.911C247.869 274.69 246.074 270.703 243.62 267.151C235.732 256.253 225.781 249.511 215.126 243.864C207.904 240.02 200.378 236.807 193.016 233.497C186.27 230.498 179.455 227.767 172.804 224.938C159.423 219.451 146.507 212.839 134.188 205.169C122.029 197.399 111.151 187.696 101.962 176.42C99.1125 172.918 96.593 169.22 94.0736 165.522C91.9478 162.587 90.055 159.483 88.4129 156.237C82.5264 145.107 78.131 133.211 75.3461 120.871C71.8113 105.586 71.1131 90.6515 70.0597 75.4758C69.0823 61.6093 67.6799 47.7692 63.5358 33.7484C61.5323 26.6951 59.049 19.7949 56.1044 13.0989C53.6738 7.99396 51.313 2.6218 48.8824 -2.48316C44.8336 -10.466 40.6199 -18.3507 36.076 -26.0401C32.3191 -32.7235 27.3086 -38.5757 21.334 -43.2586C18.1243 -45.7005 14.3978 -47.33 10.4577 -48.0144C6.51761 -48.6988 2.47505 -48.4192 -1.34094 -47.1977C-6.00125 -45.9313 -10.3698 -43.7253 -14.1918 -40.7084C-18.0564 -37.5999 -21.6261 -34.1234 -24.8533 -30.3254C-29.914 -24.3641 -34.1779 -17.7371 -37.5327 -10.6201C-41.0484 -3.57021 -44.1138 3.88948 -47.4391 11.2779C-52.2622 22.2628 -56.99 33.417 -61.9082 44.2326C-71.1608 64.1634 -79.9629 84.504 -85.7569 106.673C-89.3425 119.859 -92.5726 133.285 -96.2533 146.301C-98.4427 154.145 -101.248 161.676 -103.958 169.377" stroke="white" stroke-width="1.5" stroke-linecap="round" stroke-linejoin="round"/>
<path d="M521.036 537.88C512.379 529.919 503.653 522.226 494.997 514.266C485.916 505.862 477.482 496.75 469.771 487.01C463.302 478.833 457.669 469.995 452.96 460.635C449.863 454.345 447.192 448.029 444.425 441.543C437.672 425.232 433.706 408.397 428.134 391.837C424.949 381.474 418.443 372.524 409.673 366.44C402.115 361.215 394.462 355.82 386.808 350.425C378.246 344.306 371.382 336.009 366.888 326.345C363.385 318.942 360.871 310.951 357.368 303.547C354.02 296.81 350.334 290.256 346.326 283.91C341.865 276.931 336.682 270.468 330.867 264.634C325.433 258.887 319.53 253.626 313.224 248.909C302.064 240.567 290.215 233.241 277.813 227.014C272.888 224.516 267.964 222.019 262.97 219.788C255.963 216.718 248.862 213.479 241.716 210.943C230.287 206.658 218.623 202.738 207.193 198.453C192.521 192.705 177.614 187.322 163.424 178.128C154.179 172.414 146.049 164.987 139.448 156.225C132.181 146.486 127.174 135.173 124.808 123.147C122.929 111.54 122.501 99.7339 123.532 88.014C124.452 75.957 125.632 63.9713 126.127 51.9406C126.71 38.8976 125.375 25.8401 122.167 13.2077C118.734 -0.331516 114.45 -13.8184 110.852 -27.2598C106.293 -43.7698 104.514 -60.9591 105.591 -78.0873C106.321 -90.4829 107.476 -102.905 107.945 -115.372C108.611 -126.591 107.145 -137.834 103.63 -148.477C96.4843 -168.618 84.0964 -182.041 65.8576 -187.481C56.0754 -190.432 45.628 -190.092 36.0436 -186.511C30.0049 -184.539 24.2537 -181.738 18.9471 -178.182C14.1875 -174.909 9.71358 -171.128 5.14437 -167.516C0.905165 -164.101 -3.26436 -160.952 -7.50356 -157.536C-10.848 -154.877 -14.1669 -151.78 -17.5113 -149.121C-20.6134 -146.596 -23.837 -144.233 -27.17 -142.041C-35.8896 -136.42 -44.4443 -130.898 -53.1639 -125.278C-57.1936 -122.663 -61.1536 -120.316 -65.0882 -117.532C-69.2576 -114.383 -73.3317 -111.065 -77.5709 -107.649C-82.3145 -103.78 -86.504 -99.2451 -90.0157 -94.1776C-96.1834 -85.3755 -100.43 -75.313 -102.467 -64.6764C-103.971 -56.7876 -105.284 -48.5603 -106.268 -40.5285C-107.328 -33.8059 -107.607 -26.8691 -108.667 -20.1465C-110.961 -4.80255 -114.715 10.2746 -119.874 24.8689C-126.791 43.8667 -133.544 62.7667 -139.134 82.5583C-140.696 87.9981 -142.327 93.7049 -143.793 99.3139" stroke="white" stroke-width="1.5" stroke-linecap="round" stroke-linejoin="round"/>
<path d="M-194.097 9.07275C-189.406 -0.657916 -185.961 -10.97 -183.848 -21.6061C-181.944 -31.4239 -180.697 -41.3636 -180.116 -51.3555C-179.437 -64.0694 -178.037 -76.7321 -175.922 -89.2796C-173.49 -101.866 -169.588 -114.107 -164.302 -125.737C-159.706 -135.772 -154.047 -145.258 -147.428 -154.023C-142.581 -160.591 -136.998 -166.552 -130.794 -171.783C-126.555 -175.198 -122.316 -178.614 -117.982 -181.861C-114.872 -184.156 -111.407 -186.21 -108.037 -188.433C-99.7175 -193.591 -91.1374 -198.677 -82.9128 -204.004C-79.048 -206.52 -75.564 -209.714 -71.6294 -212.498C-67.0051 -216.033 -62.9347 -220.273 -59.5592 -225.071C-53.4733 -233.418 -50.7507 -243.835 -52.1469 -256.099C-53.2868 -263.559 -55.316 -270.847 -58.1886 -277.798C-62.9673 -290.991 -67.3208 -304.211 -68.6281 -317.882C-69.829 -329.092 -68.6245 -340.437 -65.0995 -351.122C-62.4971 -358.751 -59.3033 -366.155 -55.5487 -373.261C-51.3031 -380.969 -46.7974 -388.606 -42.3869 -396.412L-30.3547 -418.442C-28.118 -423.393 -24.9196 -427.823 -20.956 -431.462C-18.9574 -432.893 -16.6156 -433.734 -14.1847 -433.896C-8.68272 -434.587 -3.14489 -434.93 2.39766 -434.923C13.2628 -434.782 24.0956 -436.189 34.5853 -439.106C40.4619 -440.784 46.5033 -442.56 52.1894 -444.576C57.4504 -446.566 62.5209 -448.895 67.6866 -451.054C73.9375 -453.631 80.0237 -456.11 86.1794 -458.856C89.765 -460.304 93.2298 -462.359 96.9803 -463.905C101.061 -465.647 105.237 -467.219 109.412 -468.791C112.668 -470.044 115.663 -471.369 119.014 -472.452C124.135 -474.535 129.356 -476.35 134.657 -477.888C142.729 -479.965 150.827 -481.604 159.115 -482.906C174.649 -485.026 190.436 -483.949 205.556 -479.739C214.308 -477.478 223.084 -474.78 231.836 -472.519C236.981 -470.799 242.498 -470.625 247.739 -472.015C252.01 -473.418 254.383 -476.631 256.731 -480.28C259.759 -485.461 260.939 -491.577 262.379 -497.623C262.982 -500.463 263.585 -503.303 263.928 -506.215C264.042 -507.185 263.896 -508.228 263.915 -509.368" stroke="white" stroke-width="1.5" stroke-linecap="round" stroke-linejoin="round"/>
<path d="M609.382 495.461C607.047 482.697 606.233 469.688 606.957 456.721C608.077 442.821 610.863 429.116 615.252 415.915C618.305 406.985 620.654 397.817 622.277 388.502C623.795 379.5 622.992 370.249 619.948 361.668C616.95 353.329 612.356 345.692 606.437 339.205C600.624 333.171 594.906 327.306 588.788 321.904C583.476 317.152 577.835 312.597 573.722 306.457C570.691 301.962 569.07 296.622 569.077 291.154C568.667 283.699 569.443 276.226 571.374 269.026C574.35 257.104 577.231 245.013 580.988 233.306C586.706 215.696 593.04 198.399 599.018 180.861C602.521 170.659 605.764 160.385 608.911 149.942C611.643 140.986 612.774 131.598 612.249 122.231C611.859 115.049 610.206 108 607.369 101.424C603.028 91.3568 596.358 83.7991 588.959 76.8997C579.211 67.7807 568.289 60.4862 557.837 52.462C544.145 42.5739 531.667 31.0238 520.674 18.0627C516.489 13.1032 512.751 7.76454 509.505 2.11207C507.125 -2.12013 504.32 -6.32615 502.27 -10.754C499.52 -16.7027 497.112 -22.8126 495.061 -29.0521C490.676 -43.3124 488.542 -58.202 488.74 -73.157C488.59 -83.0345 489.621 -92.8942 491.812 -102.515C491.922 -103.329 491.903 -104.157 491.755 -104.964" stroke="white" stroke-width="1.5" stroke-linecap="round" stroke-linejoin="round"/>
<path d="M277.272 420.116C279.601 417.607 281.93 415.098 283.999 412.517C286.416 409.786 288.025 406.405 288.638 402.77C288.977 400.794 288.888 398.766 288.378 396.83C287.894 395.626 287.083 394.59 286.041 393.847C284.999 393.104 283.77 392.684 282.501 392.639C280.35 392.39 278.172 392.675 276.149 393.47C268.334 396.326 261.93 402.231 258.329 409.902C256.998 412.572 256.546 415.612 257.041 418.566C257.396 419.98 258.12 421.267 259.135 422.29C260.376 423.507 261.924 424.342 263.604 424.703C265.284 425.063 267.029 424.934 268.642 424.329C271.472 423.103 274.277 421.44 277.012 420.045" stroke="white" stroke-width="1.5" stroke-linecap="round" stroke-linejoin="round"/>
<path d="M399.009 146.382C402.531 140.908 400.672 136.819 396.801 131.891C389.89 123.122 381.78 115.741 374.069 107.898C366.358 100.054 359.168 92.3531 351.623 84.4116C342.7 74.8036 334.107 64.9998 324.855 55.5874C319.042 49.5533 312.315 45.4152 304.896 45.5243C300.38 45.5641 296.039 47.3321 292.724 50.4825C290.235 52.5899 287.942 54.9313 285.877 57.476C279.889 64.7309 275.599 73.2966 273.337 82.5155C271.954 87.9356 271.615 93.5799 272.34 99.1318C273.609 107.634 277.747 115.406 284.03 121.094C290.257 126.758 297.358 131.32 305.042 134.596C323.528 142.823 342.091 146.491 360.742 148.752C370.451 150.163 380.294 150.319 390.042 149.215C393.058 148.948 395.977 147.989 398.584 146.409" stroke="white" stroke-width="1.5" stroke-linecap="round" stroke-linejoin="round"/>
</g>
<defs>
<clipPath id="clip0_743_21654">
<rect width="442" height="535" fill="white"/>
</clipPath>
</defs>
</svg>
