<svg width="466" height="517" viewBox="0 0 466 517" fill="none" xmlns="http://www.w3.org/2000/svg">
<g clip-path="url(#clip0_1361_44746)">
<path d="M112.861 -500.476C119.748 -462.26 92.0274 -398.785 71.0456 -372.579C66.0396 -365.776 60.2239 -359.509 53.7331 -353.924C50.1163 -350.782 46.3091 -347.852 42.3356 -345.154C37.6228 -341.833 32.738 -338.758 27.7063 -335.945C15.977 -329.743 3.48927 -325.228 -9.30932 -322.56C-19.34 -320.391 -29.4949 -318.633 -39.511 -316.743C-47.173 -315.248 -54.6961 -313.622 -61.0274 -309.692C-70.6632 -303.929 -75.9196 -295.465 -75.6708 -283.525C-75.6418 -279.26 -74.6654 -275.141 -72.8048 -271.437C-70.8895 -267.705 -68.1271 -264.48 -64.6967 -261.973C-57.4609 -257.162 -49.2463 -253.713 -40.4383 -251.787C-23.6155 -247.207 -6.6247 -243.052 9.95687 -236.652C23.4433 -231.375 36.191 -224.747 48.0041 -216.869C56.7955 -211 64.8446 -204.231 72.0284 -196.665C78.0909 -190.174 83.5757 -183.199 88.4348 -175.801C94.9007 -165.529 100.236 -154.577 104.366 -143.1C107.547 -134.224 110.435 -125.334 113.03 -116.429C117.893 -100.688 123.062 -85.24 129.693 -69.8651C135.038 -57.7617 140.814 -45.5411 145.712 -33.2765C150.32 -21.8831 153.604 -9.93478 155.51 2.372C158.171 18.3621 158.369 34.0583 159.722 49.9748C160.261 58.8435 162.167 67.4571 165.381 75.5445C167.846 81.4497 171.588 86.6985 176.385 90.9791C182.293 96.0057 189.343 99.721 197.104 101.898C207.368 104.753 218.027 106.55 228.908 107.259C235.297 107.774 241.841 108.142 248.245 108.378C263.24 108.88 278.096 109.25 292.952 109.62C301.111 109.769 309.409 110.049 317.415 110.344C333.426 110.935 349.437 111.525 365.434 112.394C384.187 113.542 402.896 115.527 421.51 116.543C437.825 117.48 454.431 116.229 470.852 112.828C485.44 109.771 499.778 105.137 513.577 99.0188C520.642 96.0292 527.328 92.1389 533.434 87.4638C537.074 84.8219 540.538 81.9549 543.801 78.8846C548.656 73.9043 552.739 68.3074 555.9 62.2963C563.833 47.3061 567.173 30.8771 567.787 13.6114C568.417 2.35115 566.975 -8.72534 563.524 -19.1165C560.924 -26.473 556.762 -33.1147 551.278 -38.6588C544.268 -45.3705 536.032 -50.8276 526.895 -54.8149C515.643 -59.9516 504.516 -64.6778 493.096 -69.3892C479.534 -74.9665 465.665 -80.2503 452.607 -87.1038C446.247 -90.3985 440.252 -94.2376 434.687 -98.5791C422.902 -107.442 415.188 -118.871 409.442 -131.649C402.725 -146.736 397.258 -162.399 393.086 -178.506C389.893 -189.865 387.53 -201.496 386.015 -213.319C383.913 -228.899 384.065 -244.896 386.468 -260.876C387.404 -267.594 389.063 -274.21 390.445 -281.09C390.593 -282.072 390.596 -283.054 390.452 -284.009" stroke="#DFE4E8" stroke-width="1.5" stroke-linecap="round" stroke-linejoin="round"/>
<path d="M-216.975 136.057C-215.929 130.028 -214.899 124.278 -214.007 118.396C-212.165 105.517 -210.183 92.7695 -208.773 79.7728C-207.477 67.5531 -207.769 55.3823 -209.643 43.5394C-211.369 31.9503 -213.387 20.3758 -214.82 8.77208C-217.255 -8.75826 -216.641 -26.0239 -211.268 -42.2763C-208.423 -51.0359 -204.192 -59.4547 -198.73 -67.2259C-194.857 -72.9383 -190.319 -78.2521 -185.212 -83.0512C-183.37 -84.8111 -182.098 -86.8204 -180.117 -88.4483C-174.911 -93.156 -169.567 -97.7316 -164.069 -102.454C-159.8 -106.003 -155.376 -109.699 -151.246 -113.38C-144.98 -118.835 -138.854 -124.423 -132.713 -130.289C-128.706 -134.381 -125.117 -138.869 -121.388 -143.225C-118.274 -146.995 -115.02 -150.632 -112.059 -154.254C-109.406 -157.584 -106.891 -161.045 -104.39 -164.228C-102.365 -166.692 -100.618 -169.42 -98.4539 -171.752C-94.1729 -176.81 -89.5845 -181.635 -84.7167 -186.198C-70.0217 -199.441 -51.9711 -207.154 -30.2208 -207.545C-16.7778 -207.795 -3.67473 -205.571 8.37456 -200.994C16.8404 -197.917 24.6287 -193.572 31.4703 -188.109C35.1305 -185.457 38.5835 -182.565 41.8083 -179.452C49.2823 -171.806 55.4072 -163.025 59.9839 -153.395C67.2295 -138.607 70.3519 -123.057 73.474 -107.506C76.5961 -91.9563 79.3963 -75.8344 86.3348 -60.7528C89.3397 -54.0923 92.7762 -47.3142 96.2271 -40.8149C102.866 -28.3592 109.811 -16.197 114.82 -3.24292C118.585 6.21846 121.194 16.1566 122.599 26.3908C123.937 37.0263 124.676 47.9699 126.014 58.6055C127.228 68.8302 128.303 78.923 132.288 89.1484C135.23 96.9975 139.869 104.037 145.928 109.847C151.987 115.657 159.343 120.12 167.557 122.969C174.521 125.34 181.746 127.117 189.154 128.284C196 129.514 202.977 130.281 210.034 130.577C219.78 131.063 229.262 131.006 239.022 131.214C242.517 131.317 245.873 131.289 249.214 131.539C269.875 132.453 290.551 133.088 311.183 134.56C327.945 135.61 344.496 137.756 360.722 140.981C379.19 144.785 397.643 148.867 415.972 152.538C432.974 155.977 450.915 155.886 468.634 152.271C482.203 149.37 495.538 145.368 508.581 141.381C523.993 136.719 539.251 132.204 554.384 127.279C560.529 125.348 566.427 122.57 571.879 119.038C579.944 113.766 586.078 106.125 589.199 97.4638C593.726 85.5454 596.863 73.3114 598.549 60.9978C601.363 43.4833 604.178 25.9688 606.561 8.33687C608.008 -2.57676 609.024 -13.6077 609.609 -24.7562C610.178 -34.66 608.653 -44.3682 605.127 -53.3039C603.004 -58.5396 599.954 -63.3173 596.097 -67.4469C588.543 -75.4671 578.988 -81.5489 568.154 -85.2323C553.854 -90.6337 539.539 -95.7565 525.085 -101.011C510.923 -106.276 497.54 -113.016 485.158 -121.117C476.392 -127.114 468.444 -134.081 461.456 -141.894C453.073 -151.075 446.252 -161.501 441.204 -172.85C436.317 -183.196 432.589 -194.092 430.076 -205.375C427.124 -218.848 426.092 -232.815 427.004 -246.919C426.981 -247.954 426.838 -248.972 426.58 -249.956" stroke="#DFE4E8" stroke-width="1.5" stroke-linecap="round" stroke-linejoin="round"/>
<path d="M-239.184 114.646C-235.056 99.362 -232.678 83.8606 -232.093 68.4251C-231.857 57.8052 -232.623 47.2841 -234.382 36.9883C-236.042 26.9248 -237.117 16.8319 -238.638 6.90042C-240.408 -5.70666 -240.367 -18.6572 -238.515 -31.6064C-236.691 -45.1338 -232.075 -58.4534 -224.939 -70.785C-221.429 -76.52 -217.92 -82.2549 -214.133 -87.7257C-211.465 -91.3337 -208.241 -94.4137 -205.295 -97.7576C-202.977 -100.236 -200.645 -102.994 -198.188 -105.34C-194.657 -108.713 -190.987 -111.954 -187.178 -115.063C-183.354 -118.451 -179.238 -121.853 -175.137 -124.977C-167.182 -131.21 -159.663 -137.95 -152.641 -145.142C-148.788 -149.088 -145.352 -153.429 -141.777 -157.638C-133.077 -167.802 -126.629 -179.522 -119.764 -190.845C-116.394 -196.712 -112.885 -202.447 -108.944 -208.064C-102.821 -217.157 -93.4774 -223.996 -82.8589 -227.158C-72.1551 -230.077 -61.2287 -231.605 -50.3906 -231.698C-35.1658 -232.137 -20.1759 -230.499 -5.8737 -226.833C11.5239 -222.879 27.6293 -215.712 41.5828 -205.713C45.5162 -202.852 49.4498 -199.99 53.215 -196.704C57.1004 -193.449 60.7642 -189.966 64.189 -186.271C68.6235 -180.895 72.7097 -175.252 76.428 -169.37C83.6924 -157.647 89.1546 -144.876 92.6665 -131.402L102.932 -93.5529C106.679 -80.2997 111.617 -67.4821 117.694 -55.2334C123.082 -43.9662 128.748 -32.4351 133.552 -21.1387C138.631 -9.20912 141.938 3.48021 143.386 16.593C144.541 27.9326 145.405 39.287 146.421 50.4946C146.962 59.0272 148.278 67.4244 150.355 75.5945C152.948 85.0801 158.189 93.4927 165.555 99.9928C169.395 103.303 173.836 105.944 178.707 107.814C188.922 112.172 200.039 114.721 211.564 115.347C219.986 116.039 228.255 116.876 236.553 117.157C250.085 117.732 263.647 117.75 277.195 118.046C280.982 118.135 285.061 118.209 288.987 118.43C295.392 118.666 301.796 118.902 308.047 119.285C317.362 119.654 326.83 119.876 336.268 120.656C350.064 121.774 363.984 123.302 377.766 124.699C388.206 125.845 398.631 127.27 409.086 128.138C417.647 128.962 426.209 129.785 434.799 130.051C446.961 130.363 459.274 129.187 471.442 126.553C479.704 124.751 487.826 122.816 495.978 120.324C511.021 116.1 525.64 110.14 539.493 102.584C547.318 98.1392 554.383 92.4667 560.351 85.8361C566.46 78.6372 571.06 70.4569 573.861 61.8108C578.001 49.996 580.882 37.9279 582.459 25.7996C583.781 15.4658 584.517 5.12826 584.666 -5.16702C584.764 -13.8564 583.643 -22.4009 581.331 -30.5751C579.123 -38.3556 574.881 -45.3022 568.975 -50.8065C561.346 -58.0038 552.253 -63.6729 542.144 -67.5354C532.018 -71.8945 521.724 -75.828 511.583 -79.9083C499.028 -84.7029 486.851 -90.221 475.115 -96.4342C467.225 -100.627 459.773 -105.461 452.831 -110.888C446.658 -115.93 440.998 -121.506 435.913 -127.556C426.043 -139.573 419.602 -153.011 414.052 -166.772C408.058 -181.523 403.835 -197.017 401.454 -212.983C399.311 -227.063 399.188 -241.548 401.088 -256.052C401.614 -260.527 402.433 -265.015 403.113 -269.636C403.112 -270.291 403.048 -270.939 402.923 -271.572" stroke="#DFE4E8" stroke-width="1.5" stroke-linecap="round" stroke-linejoin="round"/>
<path d="M-226.403 126.793C-224.144 114.31 -222.039 101.974 -219.919 89.3585C-217.698 74.5975 -217.511 59.8199 -219.364 45.4092C-220.563 34.9057 -222.779 24.3141 -224.271 13.8252C-226.64 -2.17955 -227.422 -17.8466 -224.432 -33.146C-220.592 -52.2778 -211.129 -70.5092 -197.178 -85.6561C-191.943 -90.9212 -187.001 -96.1717 -181.488 -101.173C-177.497 -104.986 -173.242 -108.256 -168.972 -111.805C-165.01 -115.061 -161.062 -118.038 -157.377 -121.558C-150.651 -127.453 -144.064 -133.481 -137.769 -139.494C-134.278 -143.142 -131.008 -146.973 -127.98 -150.963C-124.405 -155.172 -120.969 -159.514 -117.533 -163.855C-114.711 -167.61 -111.874 -171.643 -108.913 -175.266C-105.952 -178.889 -103.269 -182.775 -100.169 -186.266C-96.6091 -190.197 -92.7563 -194.142 -88.9181 -197.808C-81.5012 -204.55 -72.6143 -209.581 -63.0664 -212.443C-49.8555 -216.855 -35.5111 -217.849 -20.9914 -216.629C-6.60528 -215.348 7.13554 -211.511 19.5412 -205.31C26.8079 -201.683 33.6601 -197.421 40.0196 -192.572C52.4801 -182.713 62.4028 -170.292 69.1695 -156.083C76.0129 -141.97 79.4859 -127.549 82.8054 -112.982C85.423 -101.715 88.0407 -90.4486 91.1043 -79.3432C94.531 -68.1906 99.0966 -57.4822 104.74 -47.3612C110.838 -35.7124 117.242 -24.357 122.002 -12.2244C126.608 -0.97014 129.706 10.9156 131.229 23.1746C132.224 32.0204 132.926 40.8808 133.767 49.8732C134.827 60.2447 135.595 70.6307 138.549 81.0466C140.685 88.8159 144.524 95.9194 149.828 101.918C155.132 107.917 161.789 112.683 169.387 115.922C179.019 119.875 189.351 122.402 200.057 123.425C206.447 123.94 212.808 125.012 219.212 125.248C232.16 125.853 245.137 125.899 257.961 126.093L269.03 126.374C288.813 127.332 308.319 128.026 328.074 129.541C348.316 131.162 368.331 133.874 388.024 137.666C404.35 140.604 420.537 143.409 436.84 143.985C448.062 144.341 459.431 143.353 470.683 141.044C477.76 139.578 484.713 137.702 491.666 135.826C507.161 131.582 522.474 126.502 537.528 120.609C545.057 117.744 552.331 114.167 559.234 109.935C564.474 106.429 569.137 102.154 573.022 97.2931C582.994 85.1198 586.986 70.1873 590.115 55.0199C592.607 43.6371 594.516 32.2838 595.992 20.8127C597.527 8.22678 598.923 -4.4915 599.303 -17.2977C599.813 -26.6021 598.461 -35.7324 595.318 -44.2018C593.485 -49.1831 590.824 -53.7852 587.43 -57.8461C580.586 -66.3998 571.243 -71.7709 561.256 -75.9978C547.832 -81.4431 534.241 -86.4629 520.803 -91.6295C507.488 -96.6133 494.734 -102.67 482.668 -109.74C475.913 -113.961 469.484 -118.607 463.418 -123.651C452.599 -132.857 443.573 -143.808 436.681 -156.09C427.094 -172.794 420.571 -191.148 417.364 -210.444C414.768 -225.47 414.404 -240.98 416.281 -256.535C416.311 -257.093 416.062 -257.914 416.091 -258.472" stroke="#DFE4E8" stroke-width="1.5" stroke-linecap="round" stroke-linejoin="round"/>
<path d="M615.394 382.2C612.389 381.099 609.231 380.145 606.226 379.044C598.089 375.698 590.105 372.205 581.968 368.858C569.685 363.836 558.045 357.669 547.203 350.441C541.004 346.303 535.111 341.871 529.372 337.293C515.071 326.332 503.088 312.892 489.57 300.919C475.218 288.154 459.199 279.363 440.381 276.689C429.092 275.029 417.855 275.173 407.473 278.472C402.675 279.786 398.129 282.052 394.146 285.114C390.478 288.044 387 291.19 383.735 294.529C380.147 298.549 376.943 302.852 374.165 307.378C366.854 318.862 359.821 330.611 352.51 342.095C349.069 346.848 345.372 351.441 341.434 355.852C339.86 358.015 338.042 360.018 336.017 361.822C328.399 368.04 320.364 373.862 309.778 375.502C304.491 376.34 299.203 375.936 294.381 374.325C291.14 373.186 288.282 371.343 286.012 368.933C283.742 366.522 282.118 363.603 281.257 360.387C279.272 353.699 279.401 346.411 281.63 339.38C284.678 328.291 289.89 317.648 296.982 308.035C300.96 302.371 305.339 296.949 310.083 291.814C316.729 284.672 323.791 277.925 330.853 271.179C334.692 267.512 339.086 264.374 343.063 260.84C346.298 258.277 349.41 255.57 352.384 252.73C359.951 244.707 365.821 235.657 366.296 223.819C366.837 213.507 363.394 204.089 355.826 195.432C348.012 186.97 338.285 180.313 327.247 175.872C312.281 169.252 296.709 165.86 280.8 163.319C264.028 160.543 247.14 159.996 230.419 159.024C215.439 158.244 200.708 158.285 185.742 157.225C171.173 156.486 157.02 153.68 143.74 148.898C134.446 145.402 125.901 140.534 118.392 134.458C106.635 125.038 99.5364 113.022 94.8351 99.7749C90.6311 88.1705 88.9198 76.3024 87.0698 64.3025C84.8104 48.9873 82.2735 33.4082 75.9053 18.5761C71.9157 9.53281 67.2043 0.848639 61.8089 -7.40651C54.8047 -18.454 47.0623 -29.3255 41.2571 -40.9889C35.8689 -51.8355 32.1137 -63.4752 30.0923 -75.5963C28.1181 -88.007 26.4364 -100.432 24.1697 -112.828C22.6997 -121.511 19.7342 -129.764 15.3884 -137.269C8.83021 -148.478 -0.827564 -156.196 -13.9509 -159.015C-21.7266 -160.867 -30.1648 -160.3 -38.0994 -157.393C-44.9637 -155.054 -51.3417 -151.315 -56.7571 -146.454C-58.9065 -144.4 -61.4726 -142.743 -63.3296 -140.705C-67.197 -136.481 -70.9255 -132.125 -74.6541 -127.769C-78.3826 -123.413 -81.9721 -118.925 -85.5618 -114.437C-88.2156 -111.107 -90.5918 -107.514 -93.0921 -104.331C-95.1319 -101.589 -97.6028 -98.9633 -99.7814 -96.3526C-102.589 -92.8766 -105.55 -89.2539 -108.496 -85.9099C-110.353 -83.8713 -112.057 -81.9796 -113.914 -79.941C-116.999 -76.7291 -120.069 -73.7958 -123.016 -70.4519C-127.19 -65.9347 -131.225 -61.2852 -135.122 -56.5039C-139.58 -51.2827 -143.714 -45.8305 -147.5 -40.1797C-150.634 -35.2349 -153.207 -30.0245 -155.169 -24.6468C-159.043 -13.6316 -160.73 -2.22344 -160.139 8.95963C-159.774 18.6708 -159.254 28.2352 -158.889 37.9463C-158.286 52.3867 -159.002 66.9778 -161.03 81.5576C-162.843 93.8794 -165.102 106.363 -166.483 118.802C-168.267 136.126 -169.619 153.568 -170.971 171.009C-171.103 173.517 -171.388 176.172 -171.519 178.681" stroke="#DFE4E8" stroke-width="1.5" stroke-linecap="round" stroke-linejoin="round"/>
<path d="M609.232 388.627C602.236 385.78 595.085 383.079 588.089 380.232C570.798 373.451 553.69 365.966 537.898 355.635C531.267 351.38 524.804 346.698 518.34 342.017C512.864 337.982 507.695 333.654 502.373 329.472C491.589 320.976 480.805 312.48 468.457 306.008C455.107 299.169 441.274 295.968 427.054 297.374C418.257 298.276 409.634 301.394 402.08 306.404C396.049 310.624 390.546 315.525 385.711 320.982C381.229 326.069 377.054 331.384 373.209 336.895L363.318 350.316C360.956 353.63 358.595 356.945 356.094 360.128C355.158 361.286 354.069 362.592 353.133 363.75C348.858 368.54 344.284 373.086 339.44 377.36C332.089 383.842 323.306 388.586 313.925 391.144C302.834 394.061 291.429 394.63 279.775 388.819C275.228 386.627 271.389 383.399 268.562 379.391C265.735 375.384 263.997 370.705 263.485 365.726C262.147 355.09 264.552 345.38 267.82 335.904C270.973 326.92 275.098 318.187 280.124 309.854C284.752 302.256 289.95 294.908 294.995 287.707C297.999 283.248 301.282 279.053 304.564 274.858C307.065 271.676 309.828 269.036 312.329 265.853C315.597 261.937 318.879 257.742 322.008 253.694C325.459 249.074 329.063 244.308 332.236 239.424C336.651 232.809 339.025 225.288 339.057 217.817C339.013 210.194 336.429 203.026 331.672 197.337C325.231 189.458 316.735 184.601 307.765 180.462C295.367 175.171 282.123 171.534 268.373 169.642C254.217 167.574 239.877 166.249 225.413 165.672C210.14 164.906 194.838 164.697 179.58 163.652C164.94 162.819 150.74 159.874 137.454 154.915C126.15 150.319 115.854 143.986 106.937 136.146C101.796 131.166 97.2951 125.612 93.5136 119.582C86.567 107.533 81.7963 94.306 79.3804 80.3966C77.3185 69.6583 75.3954 59.0519 73.1799 48.4602C69.8316 33.041 63.7961 18.507 55.311 5.43123C48.2776 -5.05886 41.2441 -15.5489 34.5177 -26.3323C28.2941 -35.9671 23.406 -46.411 19.9609 -57.4345C16.7633 -68.699 14.3964 -80.2362 12.876 -91.9674C11.6982 -101.783 9.31084 -111.319 5.76175 -120.383C3.75358 -125.229 0.880501 -129.641 -2.74127 -133.441C-7.09953 -138.059 -13.0047 -141.116 -19.6375 -142.188C-28.3725 -143.288 -37.5665 -140.979 -45.2038 -135.768C-51.0605 -131.676 -56.4485 -126.974 -61.2513 -121.762C-64.967 -117.632 -68.4552 -113.328 -71.6987 -108.871C-74.506 -105.395 -77.4521 -102.05 -80.1206 -98.4423C-82.789 -94.8343 -85.6112 -91.0798 -88.5721 -87.4571C-90.7508 -84.8464 -93.0828 -82.089 -95.2615 -79.4783C-98.5294 -75.5623 -101.644 -71.793 -105.051 -68.009C-106.447 -66.4104 -107.69 -64.9586 -109.087 -63.36C-114.073 -57.2733 -119.197 -51.3186 -124.183 -45.2319C-129.3 -38.9168 -133.583 -32.0666 -136.919 -24.8593C-142.209 -12.7961 -144.96 -0.0782634 -145.004 12.5166C-145.486 27.2738 -145.245 42.1337 -146.297 56.6414C-147.123 69.6089 -149.104 82.3562 -150.932 94.9567C-153.804 113.586 -156.955 131.951 -158.103 151.05C-158.914 163.739 -159.725 176.428 -160.69 189.263" stroke="#DFE4E8" stroke-width="1.5" stroke-linecap="round" stroke-linejoin="round"/>
<path d="M185.981 -478.387C183.334 -477.977 180.549 -477.699 177.902 -477.288C170.993 -476.248 164.084 -475.208 157.314 -474.036C151.566 -473.181 146.067 -470.617 141.618 -466.72C138.638 -463.678 136.271 -460.157 134.658 -456.365C131.675 -449.544 129.416 -442.621 126.865 -435.683C119.439 -413.686 108.901 -392.48 95.5599 -372.685C92.7233 -368.652 89.8867 -364.618 86.7723 -360.849C82.722 -355.921 78.3939 -351.257 74.2048 -346.461C71.7278 -343.39 68.9386 -340.549 65.8849 -337.984C60.8477 -333.702 55.1015 -329.801 49.9253 -325.651C42.808 -320.282 35.233 -315.529 27.3051 -311.456C22.4945 -308.714 17.4352 -306.793 12.4857 -304.183C4.24621 -300.019 -3.97867 -296.133 -11.8014 -291.573C-16.9191 -288.538 -21.0643 -284.578 -21.693 -278.153C-22.0782 -273.918 -20.7805 -269.863 -18.059 -266.798C-13.8258 -261.311 -7.86002 -258.273 -2.04767 -255.088C9.4381 -248.851 21.1067 -243.318 32.746 -237.228C43.6876 -231.727 54.0343 -225.317 63.6792 -218.063C68.1683 -214.674 72.6428 -211.005 76.9783 -207.469C80.049 -204.843 83.4121 -202.231 86.3147 -199.179C94.1763 -191.087 101.134 -182.22 107.093 -172.696C111.794 -165.008 115.896 -157.013 119.705 -149.002C127.06 -133.525 131.893 -117.226 138.064 -101.411C143.584 -87.0926 149.843 -72.9502 155.948 -58.661C163.478 -40.9681 169.978 -23.0849 172.954 -4.74758C174.802 6.31895 176.015 17.5327 176.588 28.8459C176.823 35.5058 177.057 42.1659 177.583 48.8112C178.116 57.7702 180.018 66.4761 183.228 74.6598C186.818 83.2233 193.294 90.1985 201.725 94.5848C210.225 99.0656 219.652 101.983 229.566 103.202C246.045 105.993 262.517 106.143 278.806 106.997C288.552 107.483 298.326 107.412 308.087 107.62C318.724 107.784 329.5 108.079 340.292 108.096C366.092 108.337 392.098 110.235 417.993 111.443C432.95 112.406 448.135 111.834 463.293 109.737C480.029 107.427 496.538 102.566 512.174 95.3426C518.501 92.5572 524.48 88.9842 529.94 84.7259C532.382 82.658 535.24 80.9863 537.543 78.7865C547.489 69.2164 554.468 57.2908 557.567 44.5675C559.45 37.1046 560.385 29.5428 560.353 22.0507C560.264 13.3526 558.792 4.85121 555.987 -3.16688C553.737 -9.31704 550.33 -14.9325 545.92 -19.76C537.519 -29.2089 526.743 -35.0644 515.505 -40.4798C501.746 -46.7553 487.58 -52.3109 473.064 -57.1242C465.051 -60.0598 456.885 -62.8487 448.733 -65.9163C439.874 -69.0956 431.575 -73.3493 424.022 -78.5813C415.545 -84.7377 409.013 -92.9569 405.005 -102.511C399.924 -114.072 397.335 -125.896 394.455 -137.705C390.872 -152.815 387.443 -168.072 384.306 -183.344C382.697 -191.603 381.674 -199.891 380.65 -208.18C378.612 -225.082 379.128 -242.421 382.184 -259.683C383.486 -267.809 385.649 -275.701 387.382 -283.71C387.443 -284.554 387.585 -285.398 387.806 -286.233" stroke="#DFE4E8" stroke-width="1.5" stroke-linecap="round" stroke-linejoin="round"/>
<path d="M603.086 394.484C595.797 391.651 588.354 388.965 581.219 385.986C567.393 380.721 553.931 374.759 540.883 368.124C531.386 362.9 522.211 357.104 513.342 351.014C501.666 342.84 490.144 334.52 478.285 327.051C466.01 319.186 452.572 314.019 438.147 313.767C428.554 313.466 418.79 315.887 410.073 320.728C401.666 325.318 395.188 332.035 388.572 338.62C385.161 342.46 381.98 346.471 379.046 350.632C376.545 353.815 373.753 357.012 371.252 360.195C368.752 363.377 366.083 366.985 363.583 370.168C362.518 371.668 361.371 373.117 360.147 374.51C355.204 379.935 349.966 385.115 344.458 390.026C334.783 398.157 323.168 403.747 310.944 406.155C297.691 409.088 284.229 408.059 272.452 403.213C266.482 400.915 261.318 397.237 257.384 392.48C253.45 387.723 250.859 382.023 249.824 375.85C247.915 364.965 249.904 354.858 252.894 345.118C256.026 334.354 260.494 323.862 266.199 313.875C270.549 306.014 275.177 298.416 279.804 290.818C284.096 284.071 288.68 277.31 293.11 270.695C298.016 263.361 302.921 256.028 307.688 248.562C312.424 241.431 315.71 233.612 317.353 225.563C318.942 217.217 317.244 208.923 312.593 202.311C308.564 196.717 303.17 192.189 296.808 189.061C285.17 183.041 272.378 178.984 258.936 177.053C239.716 173.704 220.78 173.26 201.72 172.405C185.283 171.973 169.036 170.322 153.123 167.466C138.04 164.678 123.972 159.055 111.699 150.909C93.2255 138.255 80.0042 119.955 73.8999 98.5906C70.4488 86.5317 67.8897 74.1502 65.1771 61.9154C61.9518 45.6596 56.019 30.2461 47.593 16.2312C42.3508 7.73656 36.2166 -0.435705 30.3749 -8.62246C26.4487 -14.403 22.2158 -19.89 18.4432 -25.8172C13.503 -33.6425 9.25425 -41.8884 5.73594 -50.4793C1.63288 -61.4739 -1.7197 -72.7721 -4.30267 -84.3088C-5.68253 -91.3101 -7.92232 -98.0538 -10.978 -104.407C-14.3047 -110.496 -18.8597 -115.411 -26.6971 -116.132C-31.4044 -116.696 -36.3443 -115.559 -40.5735 -112.937C-46.716 -109.578 -52.0989 -104.98 -56.2991 -99.503C-58.1579 -97.1995 -60.1734 -95.0086 -62.3305 -92.9471C-65.7374 -89.1632 -68.7132 -85.262 -72.1201 -81.4781L-76.3091 -76.6821C-79.716 -72.8982 -83.4151 -69.0995 -86.6831 -65.1836C-89.7829 -61.6929 -92.4513 -58.0848 -95.5511 -54.5942C-98.1904 -51.5436 -101.122 -48.4785 -103.623 -45.2958C-106.905 -41.1011 -110.202 -36.6277 -113.207 -32.1689C-119.282 -22.9334 -123.752 -12.9322 -126.425 -2.59835C-128.544 6.55108 -129.858 15.7768 -130.35 24.979C-131.549 42.2739 -132.47 59.8326 -135.409 76.9363C-137.967 92.3532 -141.096 107.521 -143.362 122.923C-145.826 139.308 -146.702 156.031 -147.718 172.622C-148.186 181.54 -149.239 190.488 -149.846 199.275" stroke="#DFE4E8" stroke-width="1.5" stroke-linecap="round" stroke-linejoin="round"/>
<path d="M632.561 366.33C627.721 364.07 622.882 361.81 618.027 359.828C604.511 354.123 591.649 347.28 579.578 339.371C574.7 336.154 570.158 332.521 566.001 328.512C558.931 321.499 552.614 314.031 549.156 304.891C544.529 294.447 544.644 282.246 549.477 270.961C553.604 262.332 558.583 254.028 564.34 246.173C573.933 232.58 580.993 217.669 585.168 202.185C587.524 193.246 588.638 184.168 588.479 175.194C588.294 171.137 587.622 167.16 586.476 163.341C585.623 160.27 583.956 157.529 581.626 155.364C579.295 153.2 576.374 151.68 573.126 150.942C567.299 149.485 561.184 148.9 554.987 149.207C541.405 150.018 527.808 152.424 514.506 156.371C503.247 159.713 492.39 163.731 480.992 166.941C469.148 170.312 457.166 173.551 444.203 173.226C432.068 172.719 420.248 170.548 409.103 166.778C397.04 163.211 385.144 159.218 373.096 155.372C358.388 150.831 343.204 147.453 327.687 145.27C317.846 143.815 307.698 142.654 297.828 141.757C285.341 140.713 272.854 139.669 260.337 139.182C246.219 138.636 232.241 138.222 218.247 138.087C203.943 138.038 189.806 136.743 176.011 134.219C165.273 132.278 155.196 128.449 146.27 122.918C138.824 118.182 132.605 111.972 127.977 104.65C122.353 95.4818 118.735 85.1902 117.317 74.3268C115.862 65.9209 115.423 57.6032 114.414 49.0361C113.221 35.2922 110.605 21.83 106.605 8.84051C103.636 0.0579224 99.8851 -8.40154 95.3894 -16.452C89.4015 -27.4112 82.9677 -38.2091 77.2721 -49.183C71.2354 -60.949 66.9455 -73.5868 64.5136 -86.7686C62.013 -100.265 59.8047 -113.776 57.0117 -127.258C54.5497 -139.441 49.6571 -150.84 42.5864 -160.868C39.8685 -164.665 36.8922 -168.276 33.674 -171.681C29.5669 -176.363 24.6598 -180.337 19.1249 -183.464C14.2255 -186.441 9.04522 -189.017 3.63262 -191.169C-4.43975 -194.181 -13.1305 -195.815 -22.0733 -196.001C-34.3671 -196.488 -46.9124 -193.747 -58.3649 -188.072C-63.5839 -185.618 -68.4679 -182.47 -72.8555 -178.731C-77.0858 -175.26 -81.1257 -171.578 -84.955 -167.703C-89.7437 -162.599 -94.1008 -157.377 -98.3191 -152.024C-102.998 -146.231 -107.399 -140.173 -112.217 -134.512C-115.639 -130.45 -119.199 -126.519 -122.898 -122.72C-130.604 -114.83 -138.449 -107.072 -146.432 -99.4452C-155.322 -91.2177 -164.644 -83.1076 -173.534 -74.8801C-179.261 -69.2287 -184.25 -62.9503 -188.367 -56.2095C-192.595 -49.683 -195.814 -42.6795 -197.915 -35.44C-200.21 -27.7742 -201.406 -19.9497 -201.468 -12.1899C-201.6 1.43783 -199.545 15.0954 -197.351 28.885C-193.891 48.4218 -193.379 68.607 -195.829 88.8536C-197.774 103.684 -199.996 118.25 -201.94 133.08C-202.635 137.98 -203.037 142.864 -203.578 147.617" stroke="#DFE4E8" stroke-width="1.5" stroke-linecap="round" stroke-linejoin="round"/>
<path d="M626.116 372.485C612.29 366.365 598.604 360.377 584.947 353.831C575.939 349.485 567.517 344.223 559.811 338.13C553.516 333.023 547.989 327.184 542.308 321.491C537.661 316.608 533.689 311.161 530.471 305.264C525.79 297.536 522.828 288.857 521.749 279.708C520.875 271.05 523.311 262.06 528.62 254.346C532.576 248.45 537.24 242.936 541.765 237.289C548.345 228.621 554.216 219.571 557.264 208.717C558.838 203.228 559.034 197.593 557.834 192.287C555.685 183.221 550.114 178.218 540.441 176.338C533.631 175.19 526.472 175.595 519.524 177.521C507.863 180.188 497.394 185.159 486.771 190.276C477.347 194.778 468.215 199.265 457.476 201.052C448.321 202.376 439.196 201.543 430.915 198.626C420.16 195.132 410.553 189.218 400.764 184.008C390.265 178.417 379.781 172.547 368.931 168.085C349.349 160.093 328.511 154.641 306.926 151.862C298.672 150.745 290.556 149.761 282.134 149.069C272.988 148.275 263.842 147.481 254.527 147.112C242.596 146.596 230.635 146.637 218.688 146.4C200.199 145.794 181.556 145.336 163.008 140.285C153.779 137.887 145.167 134.046 137.499 128.911C127.718 122.24 120.033 113.227 115.105 102.648C110.853 92.9913 108.009 82.7131 106.645 72.0753C104.605 58.1391 102.872 43.9097 100.54 29.988C98.0878 17.3815 93.656 5.37974 87.3867 -5.63188C81.3988 -16.5912 74.9647 -27.3893 68.5308 -38.1873C60.4316 -52.0882 54.9286 -67.4022 52.2409 -83.5191C49.8646 -96.6046 48.073 -109.719 45.5578 -122.937C43.474 -133.714 39.3656 -143.86 33.421 -152.909C21.3793 -170.794 4.70995 -181.08 -16.7699 -183.065C-27.0915 -184.067 -37.7874 -182.43 -47.7905 -178.319C-52.9337 -176.417 -57.77 -173.68 -62.0689 -170.24C-66.8007 -166.688 -71.2915 -162.841 -75.5064 -158.727C-79.5074 -154.593 -83.2879 -150.275 -86.8309 -145.791C-89.9453 -142.022 -93.1986 -138.385 -96.1595 -134.762C-99.1204 -131.139 -101.65 -127.4 -104.611 -123.777C-106.804 -120.888 -109.275 -118.262 -111.607 -115.505C-125.878 -99.225 -142.511 -85.1904 -157.908 -69.6883C-166.572 -61.2125 -173.747 -51.4903 -179.102 -40.9702C-184.517 -29.0867 -187.125 -16.4535 -186.726 -4.03469C-186.303 7.61489 -185.156 19.1603 -183.289 30.5416C-180.686 48.3641 -180.47 66.6557 -182.645 84.9939C-184.531 98.7093 -186.417 112.425 -188.164 126.272C-189.458 137.039 -190.182 148.056 -191.183 158.808C-191.198 159.087 -191.366 159.512 -191.38 159.791" stroke="#DFE4E8" stroke-width="1.5" stroke-linecap="round" stroke-linejoin="round"/>
<path d="M207.8 -457.649C206.194 -457.189 204.607 -456.646 203.048 -456.022C197.528 -453.662 191.854 -451.154 186.612 -448.53C179.686 -445.255 172.922 -441.622 166.354 -437.65C162.083 -434.886 158.14 -431.654 154.62 -428.029C149.368 -422.12 144.421 -415.981 139.801 -409.637C133.038 -400.265 126.553 -390.628 119.93 -381.124C114.885 -373.923 109.826 -366.443 104.782 -359.241C102.42 -355.926 99.6275 -352.729 97.1272 -349.546C93.6911 -345.205 90.4083 -341.01 86.8333 -336.801C85.2834 -335.056 83.8725 -333.178 82.3372 -331.712C74.3391 -323.807 66.1875 -315.755 58.1894 -307.85C54.6582 -304.477 50.4179 -301.485 47.1646 -297.848C42.99 -293.331 38.8301 -289.092 36.1983 -283.401C32.7257 -275.583 33.9468 -268.278 40.2929 -261.367C44.1532 -257.112 48.1671 -253.004 52.488 -249.189C56.8089 -245.374 61.7439 -242.145 66.2183 -238.477C69.7204 -235.733 72.9152 -232.696 76.5708 -230.099C85.2116 -223.298 93.3497 -215.952 100.939 -208.104C105.995 -203.014 110.727 -197.636 115.115 -191.994C121.976 -183.218 128.02 -173.851 133.189 -163.987C138.233 -154.509 142.971 -144.738 147.724 -135.246C152.988 -124.39 157.96 -113.519 163.085 -102.794C167.282 -93.8303 171.478 -84.8665 175.829 -76.0493C185.16 -56.578 190.948 -35.463 192.967 -13.5249C193.618 -6.46879 194.407 0.719244 194.766 7.78992C195.256 17.9118 195.161 28.063 195.805 38.0383C196.088 47.0796 197.944 55.862 201.296 64.0336C203.309 69.0755 206.511 73.5179 210.676 77.0471C214.661 80.1803 219.077 82.8065 223.829 84.869C233.891 88.9799 244.734 91.4868 255.961 92.2986C265.246 93.2248 274.67 94.2829 283.845 94.5197C296.946 94.9773 309.924 95.0242 322.901 95.0711C331.645 95.1904 340.25 95.1778 348.855 95.165C361.832 95.2119 374.809 95.2587 387.925 95.4376C392.451 95.3506 396.947 95.821 401.473 95.734C420.993 96.149 440.221 96.5786 459.054 93.4141C474.934 90.9532 490.192 86.4384 503.578 78.6813C507.943 76.1005 512.044 72.9769 516.131 70.1319C522.519 65.3015 527.664 59.1112 531.075 52.1508C534.266 45.7213 536.066 38.8597 536.36 32.0107C536.86 24.2843 535.615 16.7154 532.711 9.81536C528.973 1.00182 522.909 -6.57153 515.055 -12.2364C503.53 -20.9431 490.237 -27.435 475.809 -31.4031C458.847 -36.1157 441.703 -40.1242 424.712 -44.2794C416.154 -46.2165 407.983 -49.169 400.38 -53.0717C395.963 -55.4425 391.86 -58.2647 388.134 -61.4944C381.358 -67.5381 376.674 -75.435 374.601 -84.3082C372.766 -92.7149 371.997 -101.4 372.312 -110.185C372.557 -125.409 371.939 -140.55 370.461 -155.543C369.116 -168.819 366.616 -182.316 364.978 -195.577C363.069 -212.022 361.884 -228.363 363.456 -244.426C364.39 -254.97 366.162 -265.513 368.756 -275.964C370.598 -283.283 372.872 -290.486 374.714 -297.805C374.826 -298.55 374.866 -299.297 374.831 -300.035" stroke="#DFE4E8" stroke-width="1.5" stroke-linecap="round" stroke-linejoin="round"/>
<path d="M596.815 399.935C595.952 399.7 595.075 399.743 594.212 399.509C584.474 396.103 574.735 392.698 565.165 388.867C550.601 382.923 536.038 376.978 522.483 368.482C510.763 361.144 499.058 353.529 487.338 346.191C476.606 339.5 465.412 333.248 453.027 330.253C438.485 326.67 425.559 328.428 413.708 334.718C405.162 339.176 398.685 345.893 392.068 352.478C387.996 356.948 384.15 361.594 380.546 366.397C377.11 370.738 374.105 375.197 370.669 379.538C368.015 382.868 365.084 385.933 362.444 388.983C359.052 392.489 355.938 396.258 352.421 399.352C344.113 406.776 334.344 412.489 323.835 416.069C310.267 420.575 296.096 422.044 282.484 420.358C272.313 419.446 262.68 416.47 254.212 411.624C249.118 408.718 244.845 404.744 241.676 399.966C238.507 395.188 236.515 389.715 235.832 383.909C234.6 374.757 235.295 365.279 237.878 356.009C240.906 343.803 245.502 331.852 251.556 320.439C258.845 306.593 266.273 292.878 274.271 279.414C281.165 267.533 288.63 255.902 294.244 243.391C297.651 236.478 299.34 229.052 299.171 221.74C298.888 215.173 296.516 209.043 292.365 204.15C285.214 195.889 275.827 191.354 265.935 188.096C255.211 184.521 243.906 182.329 232.297 181.575C222.566 180.81 212.988 179.898 203.257 179.134C197.16 178.604 191.018 178.911 184.921 178.381C170.109 177.175 155.158 175.837 140.492 171.844C127.183 168.467 114.762 162.985 103.717 155.611C97.8618 151.756 92.4774 147.324 87.6395 142.376C79.3261 133.77 72.6139 123.835 67.7456 112.931C61.4724 99.0667 58.2772 84.9101 54.5117 70.504C52.3328 61.9953 49.5545 53.7947 46.9297 45.4473C43.323 35.3691 38.3307 25.9035 32.0731 17.279C27.3281 10.4273 22.1223 4.01553 17.0703 -2.54275C7.10505 -15.5273 -2.8599 -28.5115 -11.319 -42.4052C-15.3549 -48.8753 -19.6833 -55.3309 -24.0116 -61.7863C-30.5186 -71.1908 -38.8385 -73.833 -48.5255 -69.8744C-53.4761 -67.671 -58.1077 -64.7655 -62.2482 -61.2665C-66.1416 -58.3734 -69.8608 -55.2628 -73.3827 -51.9539C-79.0779 -46.2488 -84.2031 -40.2945 -89.6204 -34.3253C-94.6489 -28.7916 -98.8973 -22.683 -102.239 -16.1821C-106.789 -7.96885 -110.096 0.721592 -112.05 9.60431C-115.976 26.0624 -116.882 43.3427 -119.806 60.1677C-122.73 76.9927 -125.932 93.5538 -128.995 110.247C-132.161 127.183 -134.222 144.183 -135.164 161.148C-135.997 177.035 -136.385 192.76 -138.512 208.294C-138.527 208.573 -138.695 208.998 -138.709 209.277" stroke="#DFE4E8" stroke-width="1.5" stroke-linecap="round" stroke-linejoin="round"/>
<path d="M227.663 -438.776C227.442 -438.925 227.205 -439.052 226.954 -439.157C218.028 -433.013 208.312 -428.497 198.859 -423.438C191.204 -419.303 183.703 -415.315 176.465 -410.783C172.024 -407.872 167.806 -404.64 163.853 -401.119C160.916 -398.973 158.156 -396.602 155.607 -394.036C151.432 -389.518 147.55 -385.016 143.514 -380.367C141.182 -377.609 138.711 -374.984 136.518 -372.095C134.018 -368.912 131.517 -365.729 129.156 -362.415C126.181 -358.513 123.205 -354.612 120.368 -350.578C118.329 -347.836 116.428 -344.961 114.388 -342.218C111.413 -338.317 108.437 -334.415 105.601 -330.382C102.15 -325.762 98.838 -321.01 95.3727 -316.111C91.9073 -311.212 88.3176 -306.724 85.1447 -301.84C81.0214 -295.519 77.3294 -289.08 76.0429 -281.232C75.0665 -272.909 77.2298 -264.832 82.1408 -258.464C85.6603 -253.358 89.7087 -248.628 94.2335 -244.335C99.5121 -239.316 104.776 -234.02 109.901 -228.855C115.026 -223.69 120.137 -218.247 124.801 -212.642C134.883 -200.942 143.929 -188.43 151.86 -175.215C158.835 -163.61 165.503 -151.712 172.771 -140.121C179.76 -128.795 187.349 -117.777 194.492 -106.597C200.276 -97.2956 206.073 -88.2727 211.118 -78.7952C215.866 -69.5306 218.98 -59.4622 220.345 -48.9557C222.356 -34.462 221.179 -20.3651 220.587 -6.29741C220.215 3.58961 220.134 13.4619 219.762 23.3489C219.482 32.2931 220.798 41.0627 223.652 49.2853C226.169 56.3431 230.806 62.3737 237.031 66.686C244.898 72.4087 253.664 74.8897 262.459 76.8133C275.72 79.7431 289.439 81.2025 303.357 81.1644C320.122 81.3001 337.069 80.7319 353.709 80.4568C369.04 80.1082 384.079 79.7741 399.271 79.2933C413.228 79.1537 427.243 78.3146 441.258 76.7794C452.25 75.5898 463.161 72.8429 473.624 68.6305C481.059 65.578 487.833 61.0082 493.429 55.271C500.887 46.5591 504.476 36.5114 499.146 24.1294C497.289 20.0349 494.728 16.3159 491.557 13.1112C484.951 6.83581 477.051 1.90509 468.256 -1.4314C455.126 -6.89127 441.681 -9.13847 428.265 -11.9433C417.73 -14.058 407.194 -16.1728 396.703 -19.1236C385.113 -22.3436 374.263 -27.2345 364.505 -33.6385C356.057 -39.0281 349.122 -46.2198 344.173 -54.7228C339.792 -62.5272 337.605 -71.4376 337.804 -80.6743C338.457 -90.47 340.094 -100.28 342.694 -109.968C345.904 -123.888 348.821 -137.794 348.425 -152.508C348.177 -164.448 347.497 -176.507 346.816 -188.565C346.363 -196.604 345.339 -204.892 344.886 -212.931C343.84 -228.828 344.933 -244.995 348.138 -261.046C350.266 -271.02 352.686 -281.009 355.244 -290.867C357.043 -297.35 359.411 -303.584 361.349 -309.935C361.461 -310.681 361.5 -311.427 361.465 -312.165" stroke="#DFE4E8" stroke-width="1.5" stroke-linecap="round" stroke-linejoin="round"/>
<path d="M588.353 408.573C578.614 405.168 568.876 401.762 558.998 398.225C544.47 393.33 530.497 387.288 517.215 380.157C507.857 375.065 498.82 369.401 489.769 364.015C479.161 357.734 468.399 351.6 456.321 348.312C445.106 345.258 434.3 345.52 424.321 349.493C417.354 352.358 410.965 356.564 405.59 361.825C399.787 367.407 394.491 373.442 389.769 379.851C385.368 385.908 380.967 391.965 376.288 397.759C372.488 402.488 368.452 407.051 364.196 411.428C361.082 414.8 357.747 417.985 354.217 420.961C348.15 425.662 341.394 429.43 334.236 432.105C321.506 436.38 308.303 438.499 295.261 438.36C280.943 438.606 266.852 437.019 253.361 433.642C245.449 431.723 238.113 428.417 231.705 423.882C224.898 418.818 220.17 411.661 218.194 403.43C215.562 392.443 216.995 381.808 218.998 371.422C221.435 359.831 225.214 348.405 230.263 337.363C237.238 321.169 245.492 305.607 253.884 290.177C259.214 280.32 264.405 270.332 269.164 260.225C273.27 252.275 276.073 243.876 277.469 235.348C278.674 228.374 277.612 221.436 274.427 215.485C272.376 211.768 269.58 208.515 266.18 205.89C255.367 197.951 243.289 194.662 230.707 192.65C222.175 191.269 213.46 190.593 204.899 189.769C197.061 189.049 189.209 188.607 181.511 188.018C166.067 187.031 150.867 184.815 136.065 181.393C121.411 177.823 107.688 171.987 95.4081 164.103C91.599 161.653 88.0968 158.909 84.5948 156.165C81.6814 154.028 78.9775 151.653 76.5088 149.063C67.771 140.262 60.4472 130.248 54.7358 119.294C47.5707 105.753 43.4982 91.6401 38.9943 77.4099C34.8633 64.412 30.2864 51.5754 22.7558 39.4423C19.0537 33.3126 14.8759 27.4833 10.2535 21.9976C6.53207 17.8747 2.82524 13.473 -0.896161 9.35015C-6.97907 2.98234 -13.2153 -3.23853 -19.7588 -9.16637C-25.2417 -14.3802 -31.8714 -18.3952 -39.2648 -20.9795C-43.2203 -22.2969 -47.5438 -22.6692 -51.8835 -22.0661C-56.2232 -21.4629 -60.4567 -19.9015 -64.2395 -17.5086C-68.9096 -14.8025 -73.06 -11.2878 -76.4488 -7.16946C-79.8624 -2.94962 -82.8805 1.52919 -85.463 6.20702C-89.5114 13.5478 -92.5648 21.2728 -94.5427 29.1774C-96.7066 37.069 -98.3004 45.2099 -100.187 53.3656C-102.862 65.4525 -105.399 77.6715 -108.213 89.6264C-113.601 111.717 -118.419 134.057 -119.632 157.19C-120.502 170.994 -120.94 184.915 -121.949 198.587C-122.526 206.816 -123.827 214.943 -124.99 223.201" stroke="#DFE4E8" stroke-width="1.5" stroke-linecap="round" stroke-linejoin="round"/>
<path d="M621.356 377.037C610.382 372.164 599.393 367.57 588.419 362.698C576.895 357.536 565.9 351.486 555.534 344.603C546.836 338.823 538.878 332.141 531.787 324.662C527.093 319.615 522.845 314.407 518.459 309.066C507.645 295.568 499.676 280.677 490.062 266.563C484.366 257.635 475.456 251.124 464.78 248.089C455.583 245.49 446.246 242.76 436.91 240.029C426.447 236.894 417.302 231.124 410.371 223.286C404.997 217.299 400.544 210.433 395.171 204.447C390.11 199.051 384.731 193.938 379.057 189.128C372.76 183.856 365.811 179.31 358.33 175.57C351.273 171.791 343.828 168.629 336.075 166.118C322.354 161.68 308.129 158.437 293.561 156.426C287.77 155.604 281.98 154.781 276.175 154.237C268.045 153.531 259.776 152.693 251.617 152.545C238.516 152.087 225.246 152.055 212.145 151.597C195.271 150.772 178.229 150.372 161.099 146.085C150 143.557 139.705 139.028 130.736 132.729C120.842 125.704 112.998 116.447 107.801 105.659C103.216 95.1185 100.128 83.9231 98.6102 72.3433C96.8992 60.4755 95.4806 48.593 93.3236 36.8864C91.0341 24.18 86.7035 12.0731 80.4774 0.973198C73.8095 -10.9251 66.2495 -22.501 59.4281 -34.2526C50.9015 -48.6426 45.1774 -64.5735 42.5022 -81.3593C40.5134 -93.4913 38.9703 -105.785 36.689 -117.902C34.8939 -128.884 30.8292 -139.208 24.7205 -148.299C12.635 -165.348 -3.52284 -174.27 -24.118 -173.659C-35.1715 -173.362 -46.1978 -169.694 -55.5845 -163.192C-61.562 -159.368 -67.0489 -154.839 -71.8952 -149.729C-76.2232 -145.065 -80.1344 -140.005 -84.1846 -135.077C-87.9278 -130.442 -91.6565 -126.086 -95.3997 -121.452C-98.3606 -117.829 -101.197 -113.796 -104.158 -110.173C-106.892 -106.757 -109.79 -103.458 -112.843 -100.288C-120.856 -92.1039 -128.715 -84.067 -136.728 -75.8833C-140.427 -72.0848 -144.112 -68.5649 -147.672 -64.6343C-151.401 -60.2784 -154.99 -55.7902 -158.734 -51.1556C-162.912 -45.9247 -166.352 -40.2317 -168.954 -34.2442C-173.546 -23.8225 -175.815 -12.8053 -175.607 -1.94382C-175.446 6.10966 -175.007 14.4272 -174.261 22.4515C-173.888 29.2434 -172.638 35.9915 -172.265 42.7834C-171.281 58.2458 -171.908 73.9189 -174.135 89.5781C-177.25 110.026 -180.21 130.328 -181.738 151.114C-182.184 156.835 -182.644 162.835 -182.951 168.688" stroke="#DFE4E8" stroke-width="1.5" stroke-linecap="round" stroke-linejoin="round"/>
<path d="M705.778 308.062C700.451 296.557 696.685 284.33 694.562 271.651C692.652 257.951 692.557 243.904 694.277 229.829C695.53 220.28 695.982 210.729 695.628 201.268C695.235 192.142 692.318 183.518 687.169 176.255C682.124 169.209 675.539 163.347 667.802 159.014C660.279 155.081 652.894 151.28 645.188 148.051C638.484 145.189 631.473 142.62 625.734 138.042C621.51 134.697 618.596 130.09 617.384 124.838C615.286 117.814 614.444 110.392 614.891 102.863C615.395 90.4676 615.76 77.9401 617.142 65.5008C619.291 46.7686 622.164 28.1393 624.605 9.39249C626.053 -1.52114 627.208 -12.42 628.224 -23.4511C629.129 -32.9213 628.237 -42.2947 625.591 -51.1181C623.575 -57.8873 620.246 -64.1253 615.765 -69.5303C608.907 -77.8053 600.133 -82.9267 590.731 -87.1828C578.339 -92.8186 565.106 -96.3275 552.209 -100.687C535.453 -105.799 519.617 -112.895 505.045 -121.821C499.492 -125.243 494.329 -129.172 489.619 -133.56C486.146 -136.861 482.227 -140.002 479.061 -143.596C474.811 -148.427 470.891 -153.522 467.319 -158.855C459.48 -171.141 453.891 -184.751 450.766 -199.17C448.404 -208.603 447.301 -218.397 447.483 -228.333C447.419 -229.15 447.214 -229.938 446.876 -230.666" stroke="#DFE4E8" stroke-width="1.5" stroke-linecap="round" stroke-linejoin="round"/>
<path d="M584.677 423.216C581.365 422.408 578.192 421.733 574.895 420.646C561.845 416.433 548.641 412.367 535.62 407.597C524.015 403.061 512.844 397.72 502.186 391.614C492.118 386.14 482.205 380.52 471.786 376.176C461.368 371.831 450.372 370.157 439.991 373.455C434.995 374.796 430.304 377.275 426.341 380.669C423.702 382.617 421.244 384.788 419.001 387.151C414.926 391.852 411.16 396.776 407.727 401.891C400.079 413.714 393.797 426.2 389.004 439.103C387.023 443.768 385.69 448.604 385.042 453.478C384.304 459.214 386.41 463.556 393.311 465.436C401.076 467.55 408.855 469.385 416.495 471.088C427.672 473.222 438.327 476.852 448.159 481.877C453.878 484.77 458.994 488.548 463.322 493.073C468.695 498.609 473.034 505.005 476.183 512.029C477.594 515.711 479.005 519.393 480.402 523.354" stroke="#DFE4E8" stroke-width="1.5" stroke-linecap="round" stroke-linejoin="round"/>
<path d="M574.998 432.447C574.064 432.434 573.142 432.34 572.242 432.168C557.854 428.439 543.327 424.578 528.939 420.849C517.472 417.476 506.429 413.146 495.929 407.903C488.53 404.381 480.992 400.726 473.286 397.497C465.58 394.268 457.341 392.873 449.372 394.661C446.282 395.255 443.291 396.447 440.589 398.161C437.888 399.876 435.536 402.075 433.683 404.618C430.304 408.803 428.085 413.667 427.257 418.699C426.658 422.081 426.794 425.473 427.657 428.659C428.519 431.846 430.088 434.759 432.265 437.213C435.957 441.893 441.06 444.696 445.995 447.924C451.917 451.798 458.161 455.1 464.083 458.974C469.728 462.778 474.827 467.233 479.283 472.254C486.348 480.676 492.037 490.122 496.187 500.32C496.962 502.227 497.291 504.295 497.927 506.07" stroke="#DFE4E8" stroke-width="1.5" stroke-linecap="round" stroke-linejoin="round"/>
<path d="M336.05 341.952C337.966 338.799 339.881 335.645 341.504 332.507C343.464 329.112 344.419 325.352 344.26 321.666C344.179 319.661 343.633 317.743 342.659 316.048C341.877 315.047 340.783 314.312 339.51 313.932C338.237 313.552 336.838 313.542 335.479 313.904C333.138 314.354 330.886 315.324 328.914 316.734C321.246 321.975 315.758 329.691 313.642 338.207C312.823 341.195 313.021 344.257 314.205 346.935C314.898 348.179 315.954 349.183 317.261 349.84C318.851 350.611 320.683 350.918 322.548 350.726C324.414 350.535 326.239 349.853 327.818 348.757C330.553 346.675 333.163 344.182 335.758 341.967" stroke="#DFE4E8" stroke-width="1.5" stroke-linecap="round" stroke-linejoin="round"/>
<path d="M404.372 40.2685C406.894 33.8879 404.006 30.5573 398.794 27.0649C389.494 20.8577 379.229 16.3668 369.286 11.3038C359.343 6.24066 349.985 1.14831 340.195 -4.06144C328.57 -10.4305 317.253 -17.0929 305.321 -23.1686C297.798 -27.1016 289.726 -28.9223 281.867 -26.445C277.077 -24.9623 272.858 -21.877 270.038 -17.7927C267.862 -14.9736 265.949 -11.9929 264.321 -8.88962C259.575 -0.010498 256.927 9.58374 256.579 19.1564C256.318 24.8015 257.217 30.3277 259.226 35.425C262.47 43.18 268.6 49.318 276.546 52.768C284.427 56.213 292.99 58.3217 301.886 59.008C323.366 60.9931 343.91 58.577 364.235 54.7822C374.867 53.0318 385.362 50.033 395.475 45.8557C398.62 44.6346 401.508 42.7804 403.926 40.4299" stroke="#DFE4E8" stroke-width="1.5" stroke-linecap="round" stroke-linejoin="round"/>
</g>
<defs>
<clipPath id="clip0_1361_44746">
<rect width="465" height="517" fill="white" transform="translate(0.763184)"/>
</clipPath>
</defs>
</svg>
