<svg width="609" height="1932" viewBox="0 0 609 1932" fill="none" xmlns="http://www.w3.org/2000/svg">
<g clip-path="url(#clip0_159_4203)">
<path d="M721.749 1920.33C713.531 1908.32 691.418 1817.89 675.617 1783.75C660.4 1750.87 593.671 1697.07 559.651 1674.28C556.658 1672.08 553.448 1670.01 550.455 1667.81C542.467 1661.41 534.696 1654.89 526.708 1648.49C514.641 1638.87 503.654 1628.09 493.892 1616.28C488.312 1609.52 483.166 1602.5 478.238 1595.36C465.816 1578.09 456.761 1558.57 445.532 1540.33C433.627 1520.91 418.603 1505.7 398.517 1496.92C386.487 1491.59 373.939 1488.41 361.339 1489.24C355.583 1489.37 349.803 1490.7 344.397 1493.15C339.384 1495.53 334.513 1498.23 329.817 1501.22C324.547 1504.92 319.612 1509.08 315.081 1513.62C303.292 1525.07 291.729 1536.92 279.94 1548.38C274.599 1552.99 269.023 1557.34 263.239 1561.4C260.799 1563.5 258.138 1565.34 255.312 1566.88C244.857 1571.99 234.065 1576.5 221.765 1575.3C215.617 1574.72 209.861 1572.66 205.009 1569.31C201.767 1567 199.173 1563.96 197.415 1560.42C195.657 1556.88 194.779 1552.93 194.845 1548.86C194.764 1540.33 197.227 1531.72 201.945 1524.04C208.865 1511.79 218.052 1500.71 229.001 1491.41C235.23 1485.87 241.827 1480.74 248.74 1476.06C258.407 1469.56 268.411 1463.66 278.415 1457.76C283.853 1454.55 289.74 1452.13 295.29 1449.12C299.705 1447.04 304.028 1444.76 308.241 1442.27C319.213 1435.01 328.625 1426.01 332.921 1412.1C336.805 1400.03 335.971 1387.82 330.307 1375.29C324.306 1362.92 315.603 1352.12 304.736 1343.56C290.192 1331.25 273.946 1322.59 257.056 1314.83C239.28 1306.54 220.664 1300.86 202.371 1294.73C185.953 1289.34 169.55 1285 153.237 1279.28C137.264 1274.06 122.411 1266.52 109.157 1256.89C99.9296 1249.97 91.9725 1241.65 85.5517 1232.2C75.4702 1217.51 71.135 1195.96 72.2622 1171.86C74.5 1124 62.5999 1094.9 85.5517 1073.87C119.022 1043.21 192.649 1027.57 222.526 964.131C238.561 930.084 239.558 894.104 239.214 874.406C239.633 870.634 239.828 866.734 240.247 862.962C241.826 852.627 243.63 842.419 245.208 832.084C247.556 816.493 251.487 801.262 256.948 786.593C260.077 778.203 263.654 770.066 267.456 762.057C276.389 742.244 289.032 724.26 299.43 705.008C310.534 684.551 316.312 663.491 313.823 641.235C312.398 627.867 308.802 615.143 301.642 604.416C298.588 599.39 294.456 594.959 289.531 591.427C284.862 588.211 279.99 585.279 274.947 582.653C268.982 579.882 262.79 577.638 256.458 575.951C240.31 571.373 223.926 567.196 207.778 562.618C200.968 560.251 194.275 557.541 187.728 554.499C184.627 553.412 181.644 551.996 178.842 550.281C168.984 543.643 159.48 536.403 154.267 524.905C151.642 519.169 150.521 513.027 151.005 507.024C151.4 502.971 152.763 499.124 154.994 495.762C157.225 492.399 160.269 489.605 163.906 487.582C171.409 483.153 180.283 480.933 189.484 481.182C203.856 481.044 218.344 483.511 232.157 488.448C240.235 491.129 248.141 494.345 255.811 498.068C266.493 503.301 276.822 509.136 287.151 514.97C292.764 518.142 297.906 522.116 303.402 525.488C307.493 528.333 311.722 530.989 316.072 533.447C328.101 539.441 340.859 543.173 355.355 539.867C368.02 537.132 378.389 530.159 386.579 518.748C394.457 507.118 399.565 493.901 401.588 479.914C405.054 460.756 404.424 441.956 402.66 423.051C400.919 403.089 396.438 383.718 392.525 364.4C388.909 347.121 384.374 330.392 381.101 313.04C377.561 296.243 376.652 279.247 378.404 262.601C379.813 250.903 383.112 239.611 388.191 229.103C396.03 212.683 408.434 200.712 423.062 191.066C435.849 182.519 449.715 176.719 463.698 170.719C481.576 163.176 499.689 155.233 515.73 143.178C525.477 135.706 534.57 127.531 542.934 118.718C554.194 107.169 565.015 94.8389 577.386 84.453C588.894 74.8062 601.86 66.7578 615.939 60.5233C630.382 54.2484 644.932 48.3012 659.269 41.6987C669.347 37.2079 678.449 31.1567 686.224 23.7801C697.814 12.686 704.229 -0.796737 703.651 -16.6269C703.527 -26.0652 700.27 -35.4708 694.33 -43.5439C689.405 -50.5855 682.93 -56.6193 675.387 -61.1947C672.244 -62.9706 669.454 -65.3485 666.417 -66.7968C660.119 -69.82 653.703 -72.6426 647.287 -75.4651C640.871 -78.2876 634.337 -80.9091 627.804 -83.5308C622.959 -85.4654 617.88 -86.9988 613.26 -88.8065C609.314 -90.2337 605.379 -92.1891 601.551 -93.8171C596.483 -95.8785 591.189 -98.0668 586.239 -100.329C583.202 -101.777 580.39 -103.099 577.353 -104.547C572.52 -107.01 568.029 -109.547 563.078 -111.809C556.331 -115.086 549.466 -118.162 542.483 -121.037C534.796 -124.408 526.928 -127.335 518.925 -129.802C511.976 -131.758 504.877 -132.989 497.76 -133.472C483.227 -134.297 468.884 -132.509 455.507 -128.205C443.846 -124.635 432.41 -120.938 420.749 -117.368C403.428 -111.993 385.522 -108.067 367.23 -105.636C351.741 -103.694 335.92 -102.206 320.42 -99.7359C298.876 -96.1357 277.321 -92.0069 255.766 -87.8783C252.685 -87.213 249.38 -86.6746 246.299 -86.0094M686.33 1925.4C680.011 1904.74 674.96 1880.09 674.973 1818.53C674.988 1752.76 591.734 1712.32 550.742 1680.08C543.864 1674.61 536.769 1669.28 529.891 1663.81C512.812 1650.61 496.16 1636.63 481.878 1619.67C475.855 1612.64 470.154 1605.16 464.453 1597.68C459.645 1591.26 455.272 1584.58 450.681 1578.03C441.387 1564.74 432.094 1551.44 420.415 1540.08C407.739 1527.99 393.368 1520.07 377.1 1517.5C367.026 1515.95 356.439 1517.08 346.44 1520.78C338.388 1523.99 330.706 1528.17 323.589 1533.21C316.984 1537.91 310.648 1542.97 304.616 1548.37L289.339 1561.35C285.657 1564.58 281.975 1567.81 278.18 1570.85C276.77 1571.94 275.143 1573.17 273.733 1574.26C267.453 1578.67 260.916 1582.71 254.167 1586.34C243.925 1591.84 232.644 1594.85 221.392 1595.1C208.125 1595.25 195.255 1592.53 184.139 1582.16C179.778 1578.21 176.534 1573.23 174.664 1567.63C172.795 1562.04 172.35 1555.97 173.365 1549.9C175.261 1536.88 181.028 1526.07 187.679 1515.8C194.046 1506.08 201.415 1496.94 209.659 1488.55C217.226 1480.91 225.348 1473.73 233.252 1466.69C238.014 1462.29 243.001 1458.29 247.988 1454.29C251.783 1451.26 255.698 1448.95 259.492 1445.92C264.375 1442.24 269.362 1438.24 274.131 1434.37C279.441 1429.91 284.968 1425.33 290.052 1420.48C297.069 1413.94 302.104 1405.72 304.517 1396.87C306.896 1387.8 306.301 1378.53 302.82 1370.36C298.161 1359.09 290.255 1350.79 281.592 1343.21C269.482 1333.24 255.906 1324.97 241.209 1318.63C226.119 1311.96 210.586 1306.12 194.677 1301.12C177.929 1295.66 160.971 1290.86 144.328 1285.07C128.305 1279.72 113.444 1272 100.241 1262.15C89.1277 1253.33 79.6878 1242.75 72.2622 1230.79C68.1272 1223.35 64.8878 1215.41 62.5999 1207.13C58.7061 1190.76 58.8246 1176.25 59.347 1156.41C60.3423 1118.61 36.3615 1073.97 72.8736 1059.5C141 1032.5 180.581 1018.05 208.5 976C234.281 937.174 226.762 886.533 233.281 842.727C236.236 820.874 240.1 799 247.814 777.697C250.954 768.779 254.661 759.913 258.367 751.047C261.591 743.513 265.264 736.233 268.713 728.825C275.728 713.81 282.743 698.795 286.828 682.659C291.053 665.266 290.721 648.506 284.688 632.801C280.915 623.097 274.509 614.309 266.135 607.352C259.184 601.869 251.567 597.207 243.479 593.484C235.947 590.043 228.233 587.024 220.381 584.445L201.1 577.563C196.363 575.956 191.626 574.349 187.006 572.541C185.316 571.854 183.402 571.04 181.713 570.353C174.605 567.05 167.701 563.328 161.044 559.211C150.949 552.962 142.523 544.522 136.565 534.691C129.652 523.034 125.489 510.257 128.985 495.125C130.257 489.245 133.001 483.835 136.998 479.32C140.996 474.805 146.138 471.31 152.019 469.111C164.504 464.136 177.008 463.715 189.49 464.351C201.341 465.016 213.184 466.867 224.816 469.873C235.435 472.664 245.926 476.185 256.192 479.579C262.512 481.545 268.597 483.913 274.681 486.281C279.301 488.089 283.342 490.372 287.962 492.18C293.704 494.622 299.789 496.99 305.649 499.231C312.3 501.652 319.176 504.2 326.063 506.22C335.426 509.088 345.266 509.344 354.332 506.953C363.561 504.428 371.463 499.162 376.91 491.908C384.5 482.029 387.801 470.796 390.087 459.257C392.725 443.448 393.102 427.216 391.207 410.974C389.404 394.215 386.643 377.487 382.938 360.862C379.216 343.256 374.809 325.798 371.43 308.118C367.982 291.209 367.228 274.114 369.193 257.404C371.323 243.065 375.864 229.306 382.653 216.626C387.124 209.165 392.486 202.247 398.645 195.99C411.136 184.182 425.717 174.464 441.843 167.2C454.233 161.369 466.505 155.738 478.67 149.78C496.342 140.966 512.123 129.386 525.39 115.496C535.964 104.095 546.539 92.6943 557.563 81.5473C567.347 71.3447 578.519 62.3971 590.833 54.9012C603.515 47.6082 616.78 41.1708 630.538 35.6324C642.079 31.1054 652.911 25.2948 662.819 18.3171C668.081 14.461 672.555 9.76278 676.058 4.41238C680.329 -2.04073 682.237 -9.7448 681.516 -17.6309C680.19 -27.9154 674.592 -37.6143 665.949 -44.6011C659.205 -49.928 651.864 -54.5239 644.084 -58.2894C637.945 -61.1707 631.666 -63.737 625.274 -65.9751C620.206 -68.0366 615.255 -70.2985 610.068 -72.1592C604.882 -74.0199 599.471 -76.0077 594.178 -78.196C590.35 -79.8239 586.297 -81.5786 582.469 -83.2066C576.726 -85.6486 571.209 -87.9635 565.584 -90.6063C563.221 -91.674 561.082 -92.6152 558.719 -93.6829C549.822 -97.3723 541.043 -101.262 532.146 -104.952C522.933 -108.715 513.325 -111.357 503.572 -112.808C487.337 -114.902 471.082 -113.897 455.801 -109.856C437.765 -105.611 419.825 -100.509 401.917 -96.9931C385.946 -93.7196 369.89 -91.8305 354.059 -89.8145C330.601 -87.0283 307.378 -84.6439 283.876 -79.7442C268.247 -76.5447 252.618 -73.3451 236.765 -70.2724M664.834 1921.61C646.502 1891.89 673.711 1817.9 654.116 1779.32C638.44 1748.47 572.875 1703.72 542.052 1685.2C534.844 1679.66 527.418 1674.26 520.428 1668.6C506.722 1658.23 493.641 1647.14 481.237 1635.38C472.333 1626.35 463.97 1616.74 456.041 1606.87C445.652 1593.69 435.481 1580.38 424.665 1567.99C413.511 1555 400.205 1544.86 384.237 1540.26C373.66 1537.05 362.026 1537.01 350.787 1540.16C339.972 1543.11 330.628 1549.15 321.171 1554.99C316.154 1558.54 311.338 1562.35 306.749 1566.41C302.954 1569.45 298.83 1572.41 295.035 1575.44C291.24 1578.47 287.123 1581.96 283.329 1584.99C281.666 1586.46 279.929 1587.84 278.124 1589.12C270.898 1594.09 263.421 1598.68 255.731 1602.87C242.379 1609.63 227.678 1612.81 213.311 1612.03C197.633 1611.56 182.983 1606.33 171.422 1597.07C165.511 1592.56 160.937 1586.66 158.074 1579.84C155.211 1573.02 154.143 1565.49 154.956 1557.85C156.297 1544.36 161.726 1532.96 168.152 1522.29C175.063 1510.45 183.373 1499.33 192.899 1489.17C200.24 1481.14 207.807 1473.5 215.374 1465.86C222.296 1459.13 229.547 1452.47 236.582 1445.94C244.373 1438.7 252.165 1431.45 259.845 1424.01C267.384 1416.96 273.528 1408.66 277.917 1399.59C282.342 1390.16 283.093 1379.81 280.021 1370.58C277.319 1362.74 272.759 1355.76 266.677 1350.15C255.646 1339.54 242.704 1330.91 228.364 1324.62C208.046 1314.92 187.12 1308.75 166.187 1302.06C148.037 1296.65 130.486 1289.85 113.692 1281.72C97.798 1273.92 83.9354 1263.05 72.8736 1249.73C56.3482 1229.21 47.463 1203.55 47.4711 1176.37C47.4695 1161.03 45.089 1123.64 38 1090.94C24.4649 1028.5 156.579 1043.2 199.006 978C223.631 940.155 219.932 901.142 220.576 864.412C221.791 855.208 222.781 845.877 224.219 836.799C226.392 819.377 229.519 802.141 233.589 785.158C237.03 772.667 241.262 760.357 245.944 748.3C252.297 732.376 258.874 716.579 264.317 700.675C270.114 684.17 272.285 667.22 268.199 650.745C265.642 639.745 259.734 629.434 251.21 621.1C243.086 613.036 232.971 607.856 222.973 602.476C217.28 599.847 211.449 597.534 205.511 595.551C200.892 593.743 196.165 591.608 191.546 589.8C186.926 587.993 181.74 586.132 177.12 584.324C174.978 583.601 172.872 582.768 170.811 581.83C162.729 577.974 154.854 573.704 147.223 569.039C134.421 560.685 124.108 549.301 117.466 536.191C109.875 522.082 107.023 506.448 109.311 491.489C110.278 483.958 113.165 476.894 117.733 470.878C122.302 464.863 128.422 460.066 135.591 456.885C148.205 451.18 161.062 450.157 173.78 450.391C187.782 450.455 201.862 452.125 215.705 455.365C226.56 457.755 237.18 460.546 247.799 463.337C257.285 466.023 266.877 469.036 276.245 471.922C286.629 475.115 297.013 478.309 307.515 481.301C317.602 484.367 328.081 485.561 338.339 484.814C348.94 483.909 358.477 479.286 365.076 471.851C370.631 465.455 374.477 457.855 376.331 449.609C380.086 434.427 381.107 418.571 379.355 402.668C377.562 379.737 372.334 358.073 367.566 336.134C363.084 317.313 360.139 298.312 358.756 279.3C357.542 261.253 360.074 243.438 366.211 226.844C375.926 201.739 394.084 180.769 418.124 166.892C431.691 159.053 445.921 152.123 459.927 145.066C478.651 136.121 495.529 124.372 509.952 110.243C518.654 101.527 526.692 91.9005 534.838 82.6024C540.65 76.2628 546.012 69.67 552.049 63.4572C560.03 55.301 568.733 47.794 578.076 41.005C590.154 32.7707 602.829 25.2907 616.028 18.6079C624.095 14.7655 631.588 10.0296 638.359 4.4931C644.727 -1.26521 649.299 -8.03845 647.785 -17.1796C647.037 -22.7128 644.154 -27.9574 639.687 -31.912C633.745 -37.8019 626.531 -42.4256 618.613 -45.4202C615.255 -46.7845 611.985 -48.3634 608.829 -50.1453C603.205 -52.788 597.569 -54.9027 591.945 -57.5455L584.855 -60.7484C579.231 -63.3912 573.5 -66.3613 567.757 -68.8033C562.582 -71.1923 557.395 -73.0529 552.22 -75.442C547.718 -77.4505 543.11 -79.7869 538.49 -81.5947C532.406 -83.9627 525.979 -86.2569 519.659 -88.2234C506.613 -92.1274 493.128 -93.9591 479.787 -93.6397C468.05 -93.0768 456.466 -91.5726 445.161 -89.1433C423.831 -84.8879 402.265 -80.2313 380.636 -78.0155C361.168 -75.9155 341.829 -74.5447 322.467 -72.1171C301.854 -69.5947 281.315 -65.1591 260.894 -60.9246C249.94 -58.5592 238.772 -56.8494 227.936 -54.6847M790.674 1919.68C779.295 1901.98 728.731 1791.33 692.691 1754.66C675.627 1737.29 613.353 1684.34 583.8 1660.56C579.134 1656.44 574.469 1652.31 569.698 1648.52C556.477 1637.72 544.345 1625.76 533.432 1612.78C529.029 1607.51 525.132 1601.85 521.783 1595.85C516.149 1585.42 511.498 1574.67 510.559 1562.8C508.736 1549.02 512.747 1534.58 521.715 1522.62C529.054 1513.61 537.235 1505.24 546.14 1497.63C561.14 1484.35 573.74 1468.76 583.313 1451.62C588.78 1441.72 592.908 1431.28 595.587 1420.58C596.673 1415.71 597.191 1410.79 597.131 1405.91C597.16 1402.01 596.178 1398.26 594.274 1395C592.37 1391.74 589.604 1389.06 586.224 1387.22C580.206 1383.75 573.589 1381.24 566.596 1379.76C551.227 1376.67 535.333 1375.48 519.278 1376.2C505.688 1376.81 492.33 1378.35 478.628 1378.76C464.378 1379.24 450.015 1379.51 435.697 1375.26C422.357 1371.05 409.898 1364.95 398.698 1357.15C386.412 1349.33 374.449 1341.05 362.268 1332.89C347.351 1323.12 331.532 1314.59 314.963 1307.37C304.477 1302.72 293.557 1298.32 282.861 1294.31C269.301 1289.35 255.74 1284.39 241.97 1280.09C226.437 1275.23 211.016 1270.58 195.491 1266.25C179.592 1261.93 164.276 1256.18 149.731 1249.08C138.402 1243.58 128.409 1236.03 120.239 1226.8C113.462 1218.97 108.519 1209.74 105.701 1199.67C102.362 1187.12 101.612 1173.82 103.492 1160.51C104.549 1150.1 106.707 1140.1 108.311 1129.63C109.296 1113.28 126.768 1077.5 153.237 1068.79C196.642 1054.5 232.058 1020.55 245.208 986.5C258.893 951.068 261.663 906.625 267.134 870.13C269.934 852.917 274.314 836.075 280.225 819.788C282.64 813.2 285.66 806.858 289.254 800.831C295.603 790.518 302.732 780.914 312.759 774.015C324.011 765.363 338.836 761.532 353.988 763.358C365.706 765.246 377.287 768.207 388.563 772.198C407.963 778.686 428.188 781.866 448.23 781.58C459.783 781.355 471.127 779.672 481.958 776.577C486.82 775.049 491.435 772.993 495.717 770.45C499.18 768.483 501.995 765.698 503.909 762.347C505.823 758.995 506.776 755.182 506.681 751.25C506.674 744.155 505.521 737.016 503.261 730.073C498.142 714.9 491.085 700.229 482.249 686.394C474.769 674.684 466.593 663.65 459.231 651.739C451.537 639.374 443.962 626.808 440.409 611.971C437.328 598.015 436.36 583.877 437.536 569.986C438.187 555.118 439.405 540.302 440.398 525.36C441.425 507.17 440.896 488.817 438.817 470.472C437.583 458.816 435.901 446.906 433.983 435.398C431.446 420.867 428.909 406.336 425.688 391.953C422.051 375.732 418.295 359.711 414.198 343.764C409.902 327.492 407.167 311.005 406.025 294.507C405.108 281.673 406.681 268.977 410.669 257.036C414.142 247.036 419.777 237.95 427.242 230.313C436.644 220.943 448.018 213.489 460.756 208.349C470.503 203.965 480.452 200.764 490.53 196.835C506.828 191.014 522.351 183.669 536.879 174.904C546.621 168.677 555.734 161.666 564.124 153.942C575.586 143.577 586.716 132.758 598.285 122.72C610.71 112.038 624.723 103.057 639.962 96.0118C655.562 88.786 671.268 81.8878 686.76 74.3344C700.779 67.5791 713.109 58.3161 723.111 47.0233C726.887 42.7011 730.358 38.1456 733.506 33.3822C737.93 27.194 741.253 20.3263 743.359 13.0201C745.476 6.48506 747.021 -0.238982 747.981 -7.08905C749.175 -17.2417 748.509 -27.6492 746.011 -37.8726C742.858 -52.0027 735.715 -65.3699 725.348 -76.5421C720.784 -81.6761 715.481 -86.2042 709.612 -89.9761C704.116 -93.6563 698.422 -97.0513 692.558 -100.145C684.913 -103.929 677.256 -107.185 669.482 -110.24C661.034 -113.676 652.351 -116.71 644.021 -120.347C638.055 -122.915 632.205 -125.685 626.474 -128.655C614.563 -134.85 602.769 -141.245 591.093 -147.84C578.412 -155.271 565.742 -163.231 553.061 -170.662C544.466 -175.335 535.336 -178.965 525.911 -181.455C516.712 -184.139 507.241 -185.524 497.826 -185.56C487.834 -185.678 477.985 -184.495 468.559 -182.045C451.999 -177.768 436.068 -170.997 420.02 -164.025C397.39 -153.747 373.077 -146.608 347.787 -142.816C329.217 -140.209 310.883 -138.003 292.313 -135.396C286.162 -134.593 280.118 -133.464 274.192 -132.535M760.955 1917.79C738.197 1887.44 716.716 1795.75 676.887 1752.13C658.736 1732.25 601.581 1686.03 574.675 1665.95C561.242 1654.57 547.92 1643.38 534.809 1631.54C526.171 1623.7 518.475 1614.95 511.841 1605.42C506.463 1597.49 502.172 1588.91 497.664 1580.46C494.048 1573.28 491.362 1565.63 489.659 1557.67C486.91 1547.11 486.377 1535.92 488.088 1524.74C489.871 1514.21 495.443 1504.26 503.805 1496.69C510.082 1490.87 517.027 1485.71 523.859 1480.36C533.938 1472.03 543.349 1463.04 550.196 1451.07C553.694 1445.02 555.705 1438.39 556.059 1431.74C556.553 1420.33 551.947 1412.74 541.784 1407.62C534.573 1404.23 526.479 1402.58 518.135 1402.8C504.313 1402.49 491.083 1405.27 477.636 1408.18C465.719 1410.72 454.131 1413.32 441.614 1412.24C431.008 1411.09 421.121 1407.38 412.835 1401.45C401.982 1394.1 393.176 1384.22 383.942 1375.12C374.041 1365.36 364.245 1355.27 353.595 1346.74C334.352 1331.42 312.904 1318.74 289.773 1309.01C280.945 1305.23 272.23 1301.64 263.079 1298.31C253.156 1294.65 243.234 1290.98 232.988 1287.77C219.878 1283.6 206.557 1280.09 193.342 1276.25C172.964 1270.02 152.368 1263.92 133.339 1252.4C123.835 1246.81 115.476 1239.68 108.58 1231.31C99.8205 1220.47 94.1391 1207.49 92.023 1193.46C90.3658 1180.74 90.4728 1167.69 92.3414 1154.66C94.5072 1137.51 97.5656 1113.58 105.701 1094.9C118.445 1065.62 124.056 1069.56 161.142 1049.83C224.856 1015.94 249.5 971.5 254.257 883.439C255.391 862.459 260.558 848.239 264.334 830.592C266.86 818.943 270.673 807.663 275.714 796.925C279.987 788.113 285.382 779.935 290.554 771.63C295.058 764.762 300.451 758.478 306.62 752.906C314.563 745.076 324.182 738.89 334.944 734.692C345.174 730.887 356.814 730.735 367.781 734.264C376.133 736.844 384.238 740.354 392.461 743.662C404.973 748.325 417.731 752.057 431.818 751.996C438.951 752.002 445.842 750.393 451.908 747.307C462.243 741.919 466.612 733.962 465.946 722.359C465.263 714.247 462.592 706.243 458.141 698.972C451.357 686.586 442.144 676.302 432.705 665.892C424.379 656.644 416.159 647.724 410.722 636.098C406.329 626.125 404.56 615.484 405.575 605.124C406.535 591.767 410.778 578.929 414.113 566.111C417.694 552.363 421.617 538.541 423.722 524.762C427.448 499.911 427.712 474.459 424.507 449.024C423.347 439.281 422.069 429.738 420.342 419.942C418.52 409.29 416.698 398.637 414.308 387.932C411.3 374.205 407.608 360.624 404.258 346.971C399.362 325.761 394.241 304.425 394.715 281.705C394.812 270.437 396.845 259.402 400.735 249.02C405.844 235.737 414.429 224.076 425.753 215.039C436.164 207.07 447.758 200.499 460.238 195.494C476.511 188.649 493.233 182.058 509.399 174.885C523.935 168.003 537.134 159.068 548.574 148.367C560.036 138.002 571.166 127.182 582.297 116.363C596.682 102.643 613.57 91.4144 632.289 83.1249C647.428 76.1738 662.781 69.8778 678.038 62.7259C690.468 56.8571 701.516 48.8925 710.675 39.1973C728.689 19.703 736.083 -2.58276 731.948 -27.6389C730.019 -39.6945 724.778 -51.3184 716.749 -61.3514C712.876 -66.5785 708.086 -71.186 702.606 -74.9541C696.86 -79.1779 690.828 -83.0319 684.558 -86.486C678.329 -89.6902 671.942 -92.5839 665.428 -95.1542C659.911 -97.4693 654.511 -99.9851 649.218 -102.173C643.924 -104.362 638.62 -106.022 633.327 -108.21C629.157 -109.764 625.222 -111.72 621.169 -113.475C597.088 -124.405 575.01 -138.749 551.529 -151.211C538.616 -158.306 524.645 -163.301 510.262 -165.97C494.207 -168.264 478.098 -167.124 463.165 -162.638C449.172 -158.373 435.526 -153.318 422.297 -147.501C401.485 -138.753 379.377 -132.566 356.484 -129.081C339.283 -126.77 322.082 -124.458 304.764 -121.945C291.318 -119.919 277.743 -117.163 264.403 -114.808C264.061 -114.734 263.494 -114.787 263.152 -114.713M640.802 1932.36C620.573 1898.85 650.315 1808.42 640.836 1776.8C633.253 1751.51 566.013 1708.26 533.34 1689.8C532.455 1689.26 531.465 1689.05 530.58 1688.52C520.829 1681.58 511.079 1674.63 501.65 1667.24C487.339 1655.84 473.028 1644.45 460.651 1630.33C449.947 1618.13 439.349 1605.6 428.645 1593.4C418.834 1582.26 408.37 1571.51 395.544 1564.26C380.506 1555.68 365.566 1553.92 350.378 1557.85C339.451 1560.6 330.107 1566.64 320.65 1572.48C314.697 1576.58 308.939 1580.94 303.401 1585.57C298.197 1589.7 293.435 1594.1 288.23 1598.23C284.218 1601.39 279.981 1604.15 276.073 1606.99C271.184 1610.14 266.519 1613.68 261.622 1616.31C250.015 1622.64 237.329 1626.51 224.498 1627.63C207.969 1628.94 191.735 1626.46 177.127 1620.41C166.101 1616.29 156.331 1609.89 148.452 1601.62C143.71 1596.65 140.221 1590.66 138.216 1584.05C136.211 1577.43 135.736 1570.34 136.824 1563.25C138.366 1552.02 142.156 1540.98 147.98 1530.74C155.234 1517.16 164.15 1504.34 174.519 1492.6C187.035 1478.34 199.664 1464.27 212.847 1450.68C224.298 1438.63 236.305 1427.05 246.534 1413.87C252.524 1406.68 256.767 1398.37 258.906 1389.64C260.681 1381.76 259.993 1373.78 256.931 1366.74C251.605 1354.8 242.604 1346.62 232.636 1339.81C221.843 1332.37 209.963 1326.4 197.287 1322.05C186.704 1318.24 176.338 1314.31 165.755 1310.5C159.14 1308.06 152.21 1306.59 145.595 1304.15C129.499 1298.3 113.291 1292.26 98.245 1283.15C84.5125 1275.18 72.439 1264.98 62.4967 1252.93C57.2099 1246.61 52.6301 1239.75 48.8222 1232.44C42.312 1219.75 38.0062 1205.95 36.0604 1191.56C33.4935 1173.24 36.846 1158.38 34.8398 1137.26C33.1071 1119.03 26.2297 1102.93 22.5 1085C6.5 1008.06 122.556 1054.19 192 980.5C210.5 960.869 212.41 897.393 212.058 859.056C212.08 857.999 211.76 857.016 211.782 855.96C212.945 843.786 214.108 831.612 215.837 819.492C218.608 801.009 221.379 782.527 227.551 764.362C232.877 748.66 238.545 732.884 243.87 717.181C248.714 702.81 252.884 688.058 252.743 673.01C252.658 655.32 246.592 641.201 235.357 629.776C227.351 621.511 217.235 616.332 207.238 610.951C200.58 607.775 193.777 604.913 186.857 602.378C180.548 599.883 174.227 597.917 167.918 595.422C163.074 593.487 158.466 591.151 153.964 589.142C148.682 586.425 143.164 584.11 138.342 581.119C126.812 574.088 116.912 564.842 109.372 554.062C99.7788 540.105 93.6818 524.478 91.5809 508.46C89.5888 496.605 90.2631 484.69 93.5598 473.493C95.5312 466.76 99.047 460.613 103.874 455.459C108.701 450.306 114.729 446.264 121.559 443.602C132.278 439.229 143.98 436.94 156.004 436.865C171.723 436.342 187.609 437.682 203.289 440.856C222.294 444.642 241.18 448.629 259.938 453.345C276.44 457.321 292.813 462.026 309.689 464.343C319.107 465.969 328.622 465.478 337.436 462.91C345.31 460.455 352.018 455.769 356.686 449.461C364.522 438.652 367.161 426.51 368.099 414.209C369.167 400.861 368.381 387.301 365.76 373.863C363.724 362.555 361.913 351.374 359.877 340.067C358.662 332.965 356.42 326.085 355.205 318.984C352.157 301.758 349.226 284.332 349.601 266.368C349.641 250.145 352.505 234.249 358.08 219.301C360.97 211.395 364.704 203.836 369.228 196.731C377.129 184.487 387.128 173.632 398.865 164.557C413.761 152.925 429.95 144.695 446.267 135.736C455.918 130.496 465.013 124.675 474.332 118.981C485.451 111.608 495.406 102.86 503.955 92.9469C510.816 85.3288 517.003 77.3298 523.415 69.458C536.121 53.9152 548.827 38.3727 563.093 24.2461C569.707 17.5579 576.215 10.5418 582.723 3.52602C592.141 -6.92379 592.811 -17.2373 585.062 -26.9606C580.884 -31.8711 575.951 -36.1911 570.449 -39.76C565.756 -43.2451 560.853 -46.4615 555.769 -49.3893C547.119 -54.0086 538.34 -57.8992 529.454 -62.117C521.215 -66.0342 512.516 -68.8783 503.618 -70.5643C492.276 -73.0677 480.734 -74.0027 469.371 -73.3383C448.224 -72.4539 427 -67.8707 405.714 -65.7288C384.427 -63.5869 363.376 -61.8463 342.208 -59.9051C320.713 -58.003 299.477 -54.8226 278.625 -50.383C259.112 -46.1695 239.932 -41.502 220.453 -38.8737C220.11 -38.7997 219.543 -38.8525 219.201 -38.7786M610.45 1917.83C604.773 1851.43 648.587 1788.18 614.28 1755.31C601.37 1742.93 547.146 1711.31 521.165 1697.53C511.414 1690.59 501.663 1683.64 491.8 1676.5C477.194 1666.37 463.572 1655.03 451.064 1642.61C442.273 1633.78 434.022 1624.37 425.666 1615.28C415.862 1604.66 405.841 1594.18 393.451 1586.68C381.945 1579.71 369.84 1576.8 357.472 1578.55C348.809 1579.87 340.363 1582.96 332.708 1587.6C324.476 1592.5 316.663 1598.08 309.37 1604.28C302.545 1610.16 295.721 1616.04 288.671 1621.52C282.938 1626 276.996 1630.22 270.868 1634.15C266.33 1637.22 261.606 1640.01 256.731 1642.49C248.485 1646.26 239.77 1648.72 230.954 1649.76C215.431 1651.04 200.067 1649.63 185.601 1645.58C169.594 1641.6 154.421 1635.52 140.487 1627.49C132.295 1622.86 125.185 1616.75 119.5 1609.46C113.537 1601.42 110.555 1591.52 110.977 1581.16C111.546 1567.34 116.524 1555.14 122.058 1543.41C128.458 1530.38 136.299 1517.94 145.432 1506.34C158.345 1489.2 172.481 1473.19 186.729 1457.38C195.796 1447.26 204.75 1436.96 213.261 1426.38C220.359 1418.16 226.152 1409.03 230.418 1399.33C233.979 1391.41 235.005 1382.86 233.356 1374.85C232.257 1369.82 230.182 1365.13 227.235 1361C217.731 1348.36 205.34 1340.86 191.982 1334.72C182.929 1330.54 173.449 1327.14 164.186 1323.61C155.695 1320.42 147.1 1317.56 138.722 1314.57C121.855 1308.79 105.649 1301.64 90.27 1293.17C75.1029 1284.56 61.6921 1273.55 50.5391 1260.53C47.0812 1256.49 44.0581 1252.19 41.0351 1247.89C38.4739 1244.49 36.2214 1240.86 34.2991 1237.05C27.379 1224 22.4177 1209.94 19.5497 1195.24C15.8878 1177.03 15.8485 1159.07 15.3666 1140.84C14.9074 1124.18 13.9007 1107.58 9.38403 1090.94C7.21607 1082.56 3.18841 1076.36 1.02639 1066.51C-17.3727 982.696 164.249 1044.07 195.442 964.131C211.336 923.402 200.082 882.259 199.006 852.234C200.169 840.06 201.332 827.886 202.612 815.512C204.121 797.411 207.19 779.569 211.79 762.158C215.114 749.868 219.228 737.759 223.001 725.723C227.384 711.626 231.543 697.403 231.852 682.609C232.138 668.871 228.53 656.676 220.675 646.625C215.08 639.638 208.035 633.744 200.021 629.344C191.488 624.562 182.559 620.503 173.352 617.219C164.669 614.185 155.986 611.15 147.538 607.715C140.648 604.932 133.888 601.827 127.285 598.412C122.25 595.968 117.373 593.214 112.69 590.167C105.144 584.8 98.5194 578.346 93.0963 571.08C84.038 558.001 77.4487 543.684 73.6449 528.817C68.9877 512.625 66.6203 496.095 66.6053 479.666C66.5227 470.051 68.2967 460.64 71.8421 451.885C75.9075 442.504 83.1438 434.806 92.5202 429.887C105.039 423.327 118.367 421.5 131.567 420.403C146.36 419.408 161.361 419.991 176.286 422.143C198.04 424.81 219.419 429.135 240.68 433.661C254.251 436.516 267.94 439.171 281.641 441.298C292.529 443.381 303.564 443.839 314.327 442.655C323.147 441.759 331.235 438.298 337.479 432.747C341.361 429.208 344.453 424.974 346.6 420.257C352.93 405.39 353.239 390.595 351.847 375.642C350.923 365.497 349.089 355.373 347.48 345.376C345.967 336.235 344.112 327.168 342.481 318.227C338.975 300.355 337.033 282.361 336.674 264.427C336.538 246.614 339.434 229.123 345.252 212.606C347.063 207.481 349.323 202.609 351.583 197.738C353.286 193.733 355.341 189.889 357.729 186.242C365.738 173.453 375.646 161.877 387.186 151.828C401.419 139.286 417.287 130.074 433.166 120.333C447.665 111.416 461.832 102.045 474.247 89.5458C480.55 83.3474 486.345 76.706 491.587 69.6709C495.452 64.1024 499.659 58.4599 503.524 52.8914C509.391 43.91 515.033 34.8019 520.226 25.4399C524.877 17.5152 527.725 8.67651 528.607 -0.565384C528.999 -5.48859 528.134 -10.523 526.081 -15.2591C524.028 -19.9951 520.846 -24.2993 516.794 -27.8211C512.091 -32.2495 506.567 -35.8247 500.542 -38.3383C494.387 -40.847 488.039 -42.8223 481.582 -44.2377C471.45 -46.4543 461.156 -47.4151 450.971 -47.0954C440.746 -46.9913 430.392 -46.1584 419.931 -45.6527C404.464 -44.7674 388.879 -43.6812 373.529 -42.9967C345.109 -41.9443 316.561 -40.163 288.148 -34.0276C271.15 -30.5324 254.141 -26.5087 237.261 -23.2142C227.109 -21.1974 216.861 -20.0366 206.496 -18.675M736.925 1917.8C723.017 1901.36 714.18 1822.95 674.353 1767.31C652.227 1736.39 598.771 1694.59 567.933 1669.93C557.274 1660.88 546.511 1652.16 535.852 1643.1C524.673 1633.54 514.366 1623.09 505.024 1611.83C497.187 1602.38 490.46 1592.08 484.951 1581.09C481.335 1573.7 478.267 1566.25 475.086 1558.61C467.351 1539.37 463.224 1519.32 457.02 1499.7C453.525 1487.41 445.684 1477.03 434.772 1470.25C425.366 1464.42 415.848 1458.4 406.33 1452.38C395.687 1445.54 387.349 1435.97 382.132 1424.6C378.059 1415.9 375.29 1406.42 371.217 1397.71C367.304 1389.8 362.947 1382.13 358.164 1374.73C352.837 1366.6 346.552 1359.13 339.419 1352.47C332.771 1345.88 325.494 1339.91 317.667 1334.62C303.815 1325.26 289.021 1317.18 273.452 1310.45C267.272 1307.75 261.092 1305.05 254.807 1302.67C245.986 1299.41 237.054 1295.96 228.023 1293.35C213.593 1288.9 198.84 1284.91 184.409 1280.47C165.898 1274.46 147.065 1268.91 129.372 1258.72C117.828 1252.41 107.815 1243.97 99.8417 1233.82C91.0691 1222.54 85.2888 1209.21 82.9401 1194.86C81.1943 1180.99 81.3215 1166.78 83.3183 1152.58C85.1918 1137.99 87.3953 1123.46 88.7213 1108.93C90.2592 1099.48 94.3878 1078.34 109.157 1068.79C156.579 1038.12 202.025 1023.75 228.023 969C244.058 935.236 242.62 904.022 247.29 879.51C249.855 865.455 252.077 851.475 254.642 837.42C257.39 822.646 261.376 808.186 266.563 794.17C270.922 782.407 276.599 771.193 283.505 760.705C288.194 753.731 293.215 747.212 298.353 740.492C311.423 723.818 327.048 709.924 341.23 694.413C350.318 685.04 355.497 672.8 355.926 659.68C356.275 648.384 356.742 636.886 357.209 625.389C357.824 612.48 362.033 600.213 369.425 589.789C375.045 581.737 382.013 574.447 387.633 566.395C392.633 558.891 397.194 551.118 401.296 543.106C405.77 534.238 409.164 524.863 411.421 515.147C413.853 505.9 415.419 496.411 416.102 486.784C417.303 469.75 416.902 452.53 414.903 435.32C414.138 428.472 413.372 421.625 412.263 414.851C410.643 405.382 409.141 395.712 406.837 386.392C403.402 371.354 399.4 356.262 395.965 341.224C391.827 321.779 387.122 302.282 387.103 281.421C386.787 267.987 389.142 254.815 394.047 242.576C399.55 229.05 408.384 217.128 419.878 207.718C431.26 199.084 443.891 191.938 457.467 186.452C471.332 180.652 485.305 175.18 498.839 168.926C513.545 162.197 526.903 153.343 538.463 142.662C550.856 131.219 562.586 118.867 574.755 107.298C589.603 92.9333 607.172 81.2534 626.705 72.7607C640.807 66.5597 655.239 60.8129 669.234 54.2843C682 48.6771 693.277 40.7044 702.438 30.8089C719.424 11.5364 725.32 -9.72489 718.307 -32.9322C714.582 -45.3979 706.778 -56.7377 696.037 -65.2932C689.581 -70.8446 682.421 -75.6093 674.75 -79.457C667.778 -82.8608 660.453 -85.662 653.246 -88.6643C646.487 -91.4129 640.072 -94.2357 633.313 -96.9843C628.02 -99.1726 622.267 -101.086 616.974 -103.274C612.001 -105.272 607.119 -107.494 602.346 -109.934C589.985 -116.382 577.849 -122.703 565.488 -129.151C559.757 -132.122 554.368 -135.166 548.519 -137.936C542.103 -140.758 535.569 -143.38 528.811 -146.128C521.198 -149.178 513.249 -151.239 505.198 -152.251C491.166 -154.083 477.12 -153.083 464.017 -149.319C454.303 -146.52 444.354 -143.32 434.853 -139.866C426.733 -137.236 418.934 -133.623 410.814 -130.993C392.369 -124.852 373.179 -120.473 353.518 -117.919C327.781 -114.816 302.269 -111.586 276.606 -106.571C269.536 -105.219 262.122 -103.794 254.934 -102.242M919.047 1919.02C898.394 1883.69 879.858 1833.56 809.676 1779.29C739.495 1725.02 721.794 1711.65 706.458 1688.25C691.123 1664.86 686.034 1631.91 683.807 1613.22C681.542 1597.97 681.243 1582.34 682.917 1566.66C685.152 1549.83 689.516 1533.13 695.909 1516.94C700.343 1505.98 703.885 1494.78 706.503 1483.44C708.97 1472.49 708.47 1461.39 705.052 1451.23C701.681 1441.37 696.221 1432.45 688.992 1425C681.874 1418.09 674.868 1411.38 667.323 1405.26C660.774 1399.86 653.792 1394.72 648.863 1387.58C645.229 1382.35 643.454 1376.02 643.776 1369.42C643.677 1360.46 645.103 1351.4 647.996 1342.6C652.502 1328.04 656.896 1313.28 662.392 1298.92C670.744 1277.33 679.87 1256.08 688.552 1234.55C693.636 1222.03 698.39 1209.44 703.031 1196.65C707.053 1185.68 709.044 1174.29 708.908 1163.03C708.819 1154.39 707.1 1146 703.835 1138.25C698.839 1126.38 690.708 1117.69 681.602 1109.84C669.609 1099.46 656.003 1091.35 643.042 1082.34C626.027 1071.28 610.666 1058.14 597.295 1043.2C590.619 1027.74 586.041 996.813 621.134 996.813M812.809 1917.78C772.985 1842.54 742.269 1786.58 711.032 1754.65C682.58 1725.57 636.701 1690.72 599.851 1662.23C599.408 1661.96 598.748 1661.82 598.306 1661.56C587.64 1651.98 576.651 1642.86 566.307 1632.83C558.447 1625.41 551.826 1616.85 546.64 1607.4C544.494 1603.45 542.569 1599.38 540.871 1595.2C536.996 1586.84 535.752 1577.37 537.283 1567.86C538.814 1558.35 543.057 1549.19 549.528 1541.42C558.032 1530.32 568.321 1521.34 578.16 1511.57C589.522 1500.21 600.018 1488.09 609.552 1475.32C615.686 1467.2 622.037 1458.96 628.614 1451.11C632.664 1445.87 638.275 1441.91 644.573 1439.84C651.01 1437.9 657.735 1438.27 663.451 1440.87C671.001 1443.79 677.148 1449.06 680.995 1455.91C685.529 1464.21 687.271 1473.85 686 1483.64C684.764 1496.8 680.55 1508.81 677.439 1521.23C674.372 1532.61 671.974 1544.09 670.257 1555.62C667.492 1576.82 669.009 1598.41 672.499 1619.89C672.913 1635.52 676.628 1672.6 711.042 1707.22C812.833 1809.65 855.202 1805.84 903.24 1908.28M831.781 1917.78C809.026 1879.84 759.724 1786.26 724.316 1752.75C688.908 1719.24 608.738 1655.68 608.085 1655.25C597.149 1647.4 587.008 1638.61 577.768 1628.97C568.767 1619.92 561.703 1609.22 556.914 1597.37C553.412 1588.68 552.926 1578.89 555.524 1569.36C558.66 1559.06 564.591 1549.53 572.674 1541.78C579.483 1534.85 586.847 1528.39 594.099 1521.73C598.644 1517.46 603.406 1513.06 608.063 1508.99C615.75 1502.08 623.106 1495.09 631.131 1488.77C635.01 1485.35 639.746 1483.01 644.743 1482.06C652.955 1481.18 656.96 1485.17 659.031 1491.88C660.664 1497.93 661.055 1504.35 660.181 1510.77C659.529 1518.83 658.66 1527.01 657.791 1535.2C656.53 1548.17 656.313 1561.12 657.142 1573.93C658.599 1591.32 660.603 1608.66 662.278 1625.92C663.149 1640.38 669.317 1674.1 687.019 1693.32C766.213 1779.3 819.778 1860.87 875.414 1917.77M261.676 1543.3C264.81 1540.13 267.945 1536.96 270.75 1533.72C274.01 1530.27 276.27 1526.09 277.266 1521.67C277.814 1519.27 277.816 1516.83 277.273 1514.53C276.721 1513.11 275.738 1511.91 274.443 1511.08C273.147 1510.25 271.593 1509.82 269.967 1509.84C267.219 1509.68 264.405 1510.16 261.763 1511.25C251.563 1515.18 243.001 1522.71 237.937 1532.18C236.075 1535.49 235.32 1539.18 235.786 1542.71C236.161 1544.39 237.016 1545.9 238.261 1547.07C239.785 1548.46 241.725 1549.37 243.861 1549.7C245.998 1550.02 248.246 1549.76 250.351 1548.93C254.056 1547.27 257.753 1545.09 261.346 1543.23M633.422 1632.9C638.169 1627.45 638.611 1620.05 638.723 1612.58C638.866 1599.52 637.057 1586.69 633.349 1574.49C632.091 1569.27 629.748 1564.45 626.455 1560.3C624.298 1557.48 621.204 1555.46 617.61 1554.55C614.016 1553.63 610.103 1553.86 606.422 1555.2C597.808 1558.68 590.648 1565.19 586.503 1573.3C584.025 1577.83 582.641 1582.77 582.464 1587.7C582.287 1592.63 583.323 1597.42 585.486 1601.67C588.691 1609.46 593.546 1616.4 599.767 1622.09C605.987 1627.77 613.449 1632.09 621.715 1634.78C623.462 1635.51 625.437 1635.73 627.412 1635.41C629.387 1635.08 631.281 1634.23 632.875 1632.96M978.319 402.366C977.206 402.84 976.014 403.156 974.778 403.306C966.018 403.97 957.493 404.233 949.063 405.352C928.96 407.812 909.522 412.835 891.275 420.286C877.404 425.848 864.024 432.31 851.227 439.629C832.971 449.602 815.649 460.902 799.405 473.437C785.665 484.118 774.159 496.597 767.004 512.87C763.436 520.604 760.607 528.664 758.55 536.962C754.218 554.028 752.036 571.506 749.405 588.731C747.172 603.24 744.831 617.421 742.03 631.877C739.979 643.556 735.872 654.689 729.87 664.835C724.819 672.869 718.036 679.756 709.909 685.101C698.364 692.397 685.376 697.635 671.533 700.576C650.416 705.486 629.483 707.026 608.896 702.881C600.646 701.24 592.618 698.418 585.102 694.518C580.387 691.808 575.857 688.802 571.545 685.523C564.019 680.102 557.267 673.768 551.491 666.71C539.872 653.014 529.888 638.225 521.741 622.639C512.617 605.081 506.044 586.615 502.211 567.769C497.775 546.285 494.483 524.378 490.165 502.693C486.347 484.231 482.187 465.843 478.027 447.454C475.947 438.26 473.76 428.739 471.455 419.418C467.38 402.414 463.305 385.411 459.347 368.206C457.683 360.851 456.137 353.295 454.815 345.866C452.362 333.269 451.294 320.573 451.63 307.981C451.905 298.453 454.262 289.234 458.556 280.887C462.284 274.045 467.508 268.087 473.916 263.368C482.741 257.089 492.602 252.124 503.189 248.631C522.072 241.924 541.039 236.6 559.612 228.382C573.951 222.219 587.435 214.606 599.844 205.668C613.219 196.117 626.275 185.583 639.32 175.578C655.938 163.048 673.091 152.155 690.692 141.516C700.697 135.674 710.594 129.504 720.385 123.006C733.04 114.585 744.692 104.964 755.176 94.2786C762.665 86.3533 769.449 77.8545 775.471 68.8562C782.456 58.2345 788.211 46.8881 792.648 34.9905C798.6 19.0064 802.754 2.366 805.044 -14.6752C807.752 -35.5984 807.615 -56.2577 808.045 -76.8642C807.697 -87.4997 809.377 -97.9558 813.006 -107.742C815.001 -112.455 818.068 -116.642 822.009 -120.031C825.933 -123.348 830.629 -125.796 835.789 -127.214C850.189 -131.375 862.049 -128.151 871.969 -119.072C878.661 -113.153 882.924 -105.131 887.069 -96.9091C892.41 -86.14 897.634 -75.1703 903.318 -64.4751C910.449 -50.7964 919.726 -38.0712 930.815 -26.7554C935.758 -21.9508 940.973 -17.3981 946.434 -13.1208C950.915 -9.48172 955.626 -6.10657 960.536 -3.01657C969.284 2.54572 978.651 7.11972 988.422 10.5991C1026.58 25.9323 1111.97 36.8187 1156.2 16.5783M284.129 -151.508C291.756 -152.279 299.041 -152.975 306.443 -153.872C322.616 -155.962 338.672 -157.851 354.857 -160.469C370.065 -162.966 384.73 -167.252 398.515 -173.228C412.039 -178.954 425.455 -185.007 439.085 -190.405C459.595 -198.866 480.712 -203.777 502.05 -202.949C513.535 -202.561 525.029 -200.487 536.113 -196.804C544.217 -194.258 552.041 -190.826 559.414 -186.582C562.108 -185.06 564.931 -184.267 567.508 -182.544C574.8 -178.157 581.974 -173.57 589.373 -168.856C594.975 -165.156 600.802 -161.33 606.522 -157.831C615.044 -152.483 623.683 -147.335 632.665 -142.261C638.845 -139.037 645.379 -136.415 651.795 -133.593C657.312 -131.278 662.712 -128.762 668.005 -126.574C672.85 -124.639 677.811 -122.905 682.431 -121.097C686.035 -119.596 689.874 -118.497 693.36 -116.795C700.795 -113.572 708.042 -109.925 715.055 -105.875C735.584 -93.4762 750.43 -75.4672 757.528 -50.8756C761.924 -35.6792 763.218 -20.0654 761.339 -4.88496C760.187 5.73559 757.292 15.9981 752.753 25.548C750.652 30.5692 748.198 35.4327 745.406 40.1089C738.413 51.0865 729.634 60.8994 719.354 69.2287C703.634 82.2666 685.734 90.8662 667.834 99.4654C649.934 108.065 631.243 116.484 615.073 129.268C607.914 134.846 600.744 140.953 593.916 146.986C580.839 158.577 568.21 170.421 554.032 180.321C543.709 187.673 532.456 193.866 520.478 198.787C507.992 203.763 494.951 208.157 482.466 213.132C470.44 217.833 458.533 222.333 447.351 230.183C438.732 236.077 431.611 243.635 426.412 252.408C421.214 261.182 418.044 270.991 417.092 281.251C416.339 289.936 416.384 298.724 417.226 307.522C417.819 315.702 419.014 323.88 420.805 331.997C423.183 343.23 426.139 353.988 428.86 365.148C429.798 369.153 430.855 372.958 431.569 376.836C436.753 400.614 442.279 424.318 446.778 448.243C450.609 467.634 453.048 487.141 454.079 506.63C455.092 528.853 455.763 551.151 456.894 573.173C457.903 593.613 463.476 613.972 473.254 632.935C480.903 647.414 489.815 661.27 498.621 674.797C508.965 690.798 519.084 706.672 529.663 722.271C533.876 728.628 539.039 734.428 544.98 739.477C553.827 746.93 564.958 751.42 576.408 752.153C592.235 753.426 608.02 753.017 623.461 750.934C645.55 748.443 667.638 745.953 689.738 742.934C703.409 741.034 717.091 738.606 730.783 735.649C742.962 733.078 754.267 728.192 764.025 721.282C769.726 717.169 774.588 712.151 778.42 706.426C785.842 695.236 790.305 682.401 791.471 668.893C793.664 650.886 795.515 632.953 797.484 614.82C799.554 597.015 803.648 579.617 809.698 562.914C814.299 551.003 820.324 539.707 827.667 529.228C836.244 516.718 846.806 505.58 859.027 496.156C870.08 487.243 882.154 479.467 895.065 472.945C910.499 465.215 927.117 459.504 944.492 455.96C945.74 455.597 946.931 455.105 948.044 454.492M303.321 -183.703C323.107 -183.976 342.622 -186.308 361.512 -190.658C374.458 -193.838 386.979 -198.126 398.924 -203.47C410.618 -208.626 422.525 -213.126 434.102 -218.08C448.845 -224.187 464.557 -228.346 480.819 -230.448C497.773 -232.769 515.325 -231.85 532.447 -227.745C540.467 -225.619 548.488 -223.494 556.273 -220.967C561.46 -219.107 566.175 -216.443 571.126 -214.181C574.836 -212.352 578.889 -210.597 582.482 -208.568C587.646 -205.65 592.693 -202.532 597.622 -199.213C602.893 -195.968 608.271 -192.395 613.306 -188.749C623.284 -181.733 633.745 -175.377 644.602 -169.733C650.557 -166.636 656.867 -164.141 663.058 -161.445C678.028 -154.86 694.199 -151.338 710.016 -147.215C718.154 -145.29 726.175 -143.164 734.184 -140.511C747.071 -136.505 758.207 -128.108 765.274 -117.067C772.073 -105.851 777.252 -93.9298 780.665 -81.6427C785.833 -64.4825 788.412 -46.9148 788.324 -29.47C788.828 -8.4137 785.044 12.2178 777.173 31.3233C774.902 36.7229 772.631 42.1228 769.793 47.4695C767.031 52.9423 763.924 58.2375 760.489 63.3297C755.321 70.116 749.725 76.5928 743.727 82.7291C731.727 94.7929 717.909 105.149 702.646 113.516L659.889 137.477C644.964 146.04 630.93 155.815 617.932 166.7C605.914 176.484 593.661 186.669 581.43 195.797C568.515 205.444 554.14 213.325 538.685 219.23C525.29 224.226 511.789 228.895 498.512 233.691C488.334 237.077 478.555 241.3 469.283 246.314C458.574 252.342 449.972 261.031 444.335 271.514C441.492 276.953 439.643 282.858 438.859 289.002C436.686 302.026 436.982 315.489 439.732 328.789C441.459 338.585 442.961 348.255 445.148 357.776C448.572 373.343 452.68 388.761 456.447 404.254C457.492 408.587 458.645 413.247 459.572 417.781C461.236 425.136 462.9 432.491 464.34 439.719C466.729 450.425 469.343 461.257 471.272 472.237C474.118 488.279 476.504 504.596 479.007 520.711C480.797 532.949 482.244 545.26 484.376 557.423C485.985 567.42 487.594 577.418 489.887 587.267C493.213 601.19 498.387 614.802 505.286 627.775C509.987 636.578 514.805 645.181 520.308 653.636C530.01 669.36 541.687 684.038 555.065 697.327C562.836 704.777 571.864 710.963 581.719 715.592C592.306 720.196 603.623 722.767 614.958 723.142C630.54 724.008 646.047 723.363 661.23 721.215C674.159 719.361 686.915 716.841 699.441 713.665C710.004 710.954 720.021 706.905 729.226 701.623C737.986 696.586 745.115 689.508 749.989 681.009C756.39 670 760.494 657.825 762.098 645.081C764.298 632.158 765.932 619.181 767.79 606.331C769.779 590.505 772.76 574.874 776.719 559.518C779.399 549.19 782.989 539.15 787.454 529.498C791.686 520.845 796.722 512.602 802.508 504.857C814.069 489.737 828.398 478.051 843.39 467.275C859.447 455.671 876.943 445.838 895.573 437.947C911.989 430.938 929.51 426.093 947.672 423.541C953.256 422.686 958.946 422.159 964.754 421.43C965.549 421.216 966.315 420.933 967.044 420.585M292.486 -165.235C308.306 -166.723 323.902 -168.337 339.84 -170.025C358.41 -172.295 376.381 -176.884 393.286 -183.67C405.653 -188.445 417.818 -194.403 430.079 -199.505C448.759 -207.396 467.513 -213.375 486.97 -214.946C511.332 -216.796 536.315 -211.964 558.925 -201.029C566.901 -196.79 574.771 -192.878 582.512 -188.238C588.35 -184.94 593.61 -181.167 599.213 -177.467C604.366 -174.021 609.177 -170.502 614.566 -167.457C623.761 -161.728 633.074 -156.2 642.28 -151C647.766 -148.217 653.405 -145.745 659.165 -143.6C665.356 -140.904 671.665 -138.409 677.974 -135.915C683.385 -133.927 689.139 -132.013 694.432 -129.825C699.725 -127.637 705.254 -125.85 710.429 -123.461C716.278 -120.691 722.234 -117.594 727.847 -114.423C738.278 -108.184 747.083 -99.7182 753.46 -89.7968C762.832 -76.2162 768.405 -60.2371 771.347 -43.3392C774.176 -26.5739 773.708 -9.71141 769.969 6.40161C767.785 15.838 764.705 25.0098 760.764 33.8122C752.606 51.1759 740.57 66.4873 725.407 78.7927C710.382 91.1543 693.959 99.7854 677.31 108.29C664.45 114.924 651.589 121.559 639.059 128.648C626.583 136.165 614.992 144.832 604.441 154.533C592.177 165.246 580.362 176.214 567.104 185.564C554.864 194.454 541.399 201.836 527.002 207.549C516.581 211.552 506.054 215.228 495.409 219.105C483.159 223.678 470.803 227.925 459.076 234.665C450.308 239.616 442.866 246.286 437.209 254.263C431.553 262.24 427.802 271.353 426.189 281.041C424.331 293.271 424.413 305.834 426.433 318.333C427.755 325.762 428.392 333.34 430.056 340.695C433.266 355.606 437.161 370.369 440.832 385.006L443.862 397.677C448.725 420.472 453.824 442.865 458.003 465.807C462.202 489.339 465.008 512.966 466.409 536.579C467.819 556.087 469.348 575.394 473.614 594.11C476.6 606.979 481.259 619.578 487.485 631.616C491.417 639.183 495.809 646.475 500.2 653.767C510.063 669.998 520.885 685.751 532.612 700.946C538.378 708.571 544.93 715.677 552.162 722.147C558.008 726.963 564.611 730.874 571.686 733.711C589.48 741.09 608.797 740.776 628.136 739.405C642.694 738.54 657.038 737.021 671.393 734.973C687.118 732.63 702.961 730.085 718.601 726.357C730.035 723.915 740.691 719.412 750.001 713.09C755.481 709.388 760.25 704.869 764.139 699.692C772.424 689.137 776.09 676.773 778.173 664.05C780.686 647.026 782.633 629.949 784.804 612.999C786.791 596.248 790.249 579.786 795.146 563.777C798.206 554.729 801.88 545.914 806.147 537.382C814.012 522.095 824.539 508.281 837.329 496.459C854.659 480.137 874.922 466.762 897.337 456.85C914.761 449.019 933.452 443.567 952.881 440.648C953.566 440.5 954.486 439.951 955.17 439.803M1151.69 106.855C1150.39 103.981 1149.2 100.906 1147.9 98.031C1144.53 90.517 1141.17 83.0031 1137.69 75.6899C1134.9 69.4345 1130.12 64.0176 1124.04 60.2277C1119.44 57.8289 1114.45 56.2827 1109.37 55.6812C1100.19 54.5068 1091.11 54.1884 1081.92 53.5424C1052.99 52.2481 1024.08 47.1604 996.019 38.4282C990.266 36.5146 984.513 34.6011 978.995 32.286C971.788 29.2837 964.816 25.8797 957.727 22.6767C953.25 20.8592 948.955 18.6124 944.917 15.9748C938.192 11.6411 931.713 6.37781 925.106 1.84334C916.43 -4.50156 908.361 -11.5663 901.01 -19.2532C896.221 -23.8297 892.352 -28.9557 887.681 -33.7329C880.124 -41.7442 872.909 -49.8295 864.998 -57.2385C859.76 -62.0687 853.698 -65.4935 845.718 -64.1209C840.467 -63.1832 835.947 -60.3914 833.059 -56.3027C827.697 -49.7094 825.831 -41.9427 823.74 -34.3027C819.677 -19.2235 816.523 -4.16525 812.685 11.0408C809.348 25.2626 804.728 39.1035 798.872 52.4208C796.13 58.6235 793.046 64.9002 790.079 70.9761C787.83 75.319 785.688 79.9895 782.873 84.2795C775.457 95.8424 766.827 106.629 757.097 116.496C749.209 124.336 740.765 131.594 732.215 138.525C715.692 151.912 697.405 162.699 680.113 174.848C664.437 185.773 649.198 197.479 633.736 209.059C614.581 223.364 594.881 236.56 573.558 245.898C560.706 251.593 547.481 256.614 533.942 260.94C525.94 263.37 517.937 265.799 510.042 268.556C499.344 272.072 489.369 277.06 480.426 283.367C471.138 290.229 464.655 299.854 461.905 310.861C459.061 321.976 458.395 333.637 459.937 345.3C461.572 364.935 466.406 383.703 470.33 402.493C472.709 413.727 475.772 424.812 478.492 435.972C481.533 448.115 484.456 460.458 487.722 472.727C495.287 502.127 500.905 532.298 507.326 562.12C510.713 579.431 516.03 596.502 523.189 613.048C531.085 631.318 542.006 648.501 555.523 663.925C560.827 670.21 566.979 675.844 573.803 680.666C577.054 682.77 579.951 685.476 583.319 687.378C597.949 695.573 614.531 699.631 630.898 699.02C640.518 698.736 649.97 697.343 659.042 694.872C669.559 691.946 679.417 687.512 688.283 681.719C695.053 677.164 700.823 671.468 705.332 664.888C714.228 652.272 718.044 638.123 721.187 623.593C724.605 605.917 727.026 588.013 728.44 569.953C729.559 559.893 730.453 549.706 731.689 539.446C732.846 528.345 735.475 517.531 739.517 507.248C744.399 495.615 752.374 485.522 762.735 477.863C775.202 468.333 788.747 461.551 802.186 454.441C819.412 445.461 836.863 436.608 854.42 428.083C863.942 423.572 873.678 419.716 883.414 415.861C903.284 408.054 924.46 403.009 946.316 400.875C956.563 399.715 966.789 399.61 977.026 398.978C978.067 398.773 979.134 398.66 980.213 398.64M1133.19 138.383C1132.15 136.708 1131.01 135.081 1129.77 133.511C1125.23 128.005 1120.46 122.371 1115.69 117.267C1109.61 110.458 1103.14 103.951 1096.33 97.7773C1091.68 93.8212 1086.56 90.3905 1081.09 87.5665C1072.33 83.5175 1063.38 79.8901 1054.28 76.6992C1040.86 72.058 1027.21 67.8185 1013.67 63.3781C1003.4 59.9844 992.795 56.6642 982.529 53.2704C977.791 51.6634 973.065 49.5283 968.445 47.7206C962.136 45.2257 956.052 42.8573 949.86 40.1617C947.272 38.9671 944.567 37.9735 942.322 36.7051C930.303 30.1831 918.06 23.5343 906.042 17.0123C900.878 14.0949 895.96 10.2477 890.56 7.73181C883.813 4.45485 877.408 1.10396 869.707 -0.0385132C859.173 -1.44561 850.688 2.3152 844.243 11.7721C840.261 17.5414 836.503 23.4374 833.194 29.5872C829.885 35.737 827.475 42.3942 824.39 48.6708C822.13 53.5421 819.421 58.1594 817.386 63.1575C811.773 75.1866 805.347 86.8214 798.144 97.9958C793.513 105.395 788.435 112.52 782.932 119.34C774.382 129.988 764.868 139.899 754.483 148.977C744.531 157.789 734.129 166.347 724.069 174.831C712.512 184.34 700.847 193.522 689.407 202.83C679.819 210.511 670.231 218.192 660.867 226C640.104 242.929 616.27 256.365 590.291 265.786C581.936 268.818 573.462 272.05 565 274.754C552.879 278.599 540.545 281.788 528.648 285.76C517.774 289.019 507.693 293.98 498.808 300.444C493.309 304.37 488.899 309.452 485.889 315.331C483.304 320.878 481.465 326.75 480.412 332.82C478.493 345.592 478.756 358.728 481.19 371.751C482.895 382.604 484.482 393.658 486.989 404.162C490.424 419.2 494.319 433.964 498.214 448.727C500.732 458.703 503.368 468.479 506.003 478.254C509.898 493.017 513.793 507.781 517.571 522.745C519.054 527.86 519.853 533.123 521.337 538.237C526.778 560.557 532.113 582.548 541.684 602.924C549.502 620.171 559.622 636.045 573.102 648.739C577.559 652.861 582.595 656.508 587.288 660.228C595.089 665.918 604.16 669.755 613.636 671.37C622.402 672.909 631.268 672.726 639.66 670.835C649.179 668.893 657.975 665.021 665.455 659.479C675.001 652.367 682.335 643.016 686.811 632.25C693.856 616.324 697.678 599.108 698.094 581.422C698.642 560.615 698.28 539.829 698.143 519.169C697.886 508.814 698.977 498.569 701.392 488.661C702.921 482.871 705.093 477.291 707.874 472.008C713.137 462.344 721.283 454.455 731.408 449.218C741.04 444.401 751.335 440.707 762.081 438.211C780.61 433.544 798.777 427.924 816.502 421.374C832.186 415.533 847.785 408.307 863.362 402.138C882.716 394.628 902.166 387.973 922.116 384.542C935.182 382.179 948.503 380.768 961.961 380.321C971.395 380.037 980.818 380.282 990.253 379.998C991.19 379.884 992.107 379.685 992.991 379.406M1116.36 167.089C1116.48 166.789 1116.56 166.478 1116.61 166.159C1106.44 158.01 1098.01 148.435 1089 139.335C1081.66 131.979 1074.54 124.749 1066.84 117.995C1061.96 113.894 1056.76 110.15 1051.28 106.802C1047.79 104.16 1044.07 101.794 1040.19 99.7308C1033.44 96.4538 1026.8 93.5041 1019.93 90.4279C1015.88 88.673 1011.95 86.7176 1007.78 85.1636C1003.16 83.3558 998.536 81.5481 993.799 79.9411C988.163 77.8268 982.528 75.7124 976.774 73.7988C972.828 72.3716 968.765 71.1452 964.819 69.718C959.183 67.6036 953.548 65.4893 947.794 63.5757C941.143 61.1548 934.374 58.9344 927.38 56.5874C920.386 54.2403 913.853 51.6185 906.966 49.599C898.047 46.9663 889.117 44.862 879.212 45.949C868.825 47.5428 859.693 52.6249 853.468 60.2746C848.351 65.9328 843.85 72.0702 840.023 78.6071C835.547 86.2361 830.729 93.9391 826.029 101.441C821.329 108.943 816.286 116.52 810.912 123.641C799.799 138.899 787.386 153.243 773.781 166.55C761.837 178.246 749.444 189.689 737.607 201.713C726.005 213.336 714.96 225.539 703.583 237.289C694.068 246.883 684.895 256.402 674.943 265.214C665.158 273.619 653.9 280.428 641.58 285.393C624.622 292.386 607.175 295.628 589.941 299.524C577.842 302.312 565.85 305.428 553.752 308.216C542.824 310.803 532.594 315.147 523.495 321.062C515.706 326.215 509.807 333.444 506.475 341.919C501.934 352.718 501.596 363.487 501.942 374.107C502.428 390.129 504.837 406.194 509.122 422C514.062 441.096 519.912 460.172 525.312 478.993C530.404 496.303 535.388 513.286 540.597 530.396C545.017 546.212 550.302 561.867 556.431 577.297C561.22 589.402 567.872 600.909 576.165 611.433C582.129 618.891 589.732 625.105 598.391 629.602C611.223 635.247 624.496 636.062 637.883 625.983C642.281 622.542 646.009 618.423 648.929 613.779C654.524 604.233 658.096 593.653 659.462 582.575C662.082 565.879 660.712 549.869 660.027 533.711C659.382 521.051 658.738 508.391 659.12 495.509C659.494 481.291 662.119 467.372 666.911 454.202C670.872 442.851 677.478 432.633 686.279 424.246C694.405 416.733 704.541 411.354 715.799 408.579C727.872 406.139 740.263 404.814 752.799 404.622C770.651 403.748 788.397 402.546 806.112 397.317C820.512 393.156 834.922 388.466 849.333 383.777C858.94 380.65 868.675 376.795 878.282 373.668C897.235 367.316 917.165 363.306 937.599 361.736C950.339 360.914 963.185 360.419 975.913 360.125C984.32 360.063 992.599 360.73 1000.89 360.869C1001.83 360.755 1002.74 360.556 1003.63 360.277M1097.29 199.091C1096.3 197.797 1095.23 196.565 1094.07 195.402C1079.42 184.188 1067.79 169.867 1055.23 156.624C1048.68 149.448 1041.79 142.346 1034.66 135.645C1029.23 130.968 1023.47 126.644 1017.43 122.707C1012.81 119.428 1007.97 116.429 1002.97 113.733C996.786 110.509 990.253 107.888 983.837 105.065C970.451 99.3901 956.565 95.0405 942.419 92.0923C929.982 89.3428 917.19 87.196 903.98 88.8213C891.345 90.5217 879.913 95.9327 871.283 104.298C864.222 111.202 857.764 118.633 851.963 126.528C842.275 138.965 832.588 151.402 822.002 163.331C810.603 176.137 798.317 187.907 786.468 200.459C774.837 211.943 764.001 224.119 754.015 236.923C749.455 243.167 744.788 249.085 740.452 255.456C736.352 261.426 731.909 267.47 728.482 273.821C723.169 282.967 718.421 292.42 714.261 302.139C710.856 309.561 708.884 317.577 708.427 325.842C708.347 329.611 709.139 333.419 710.75 337.004C712.361 340.59 714.753 343.869 717.763 346.619C723.557 352.03 730.764 355.032 738.196 358.162C749.413 362.594 761.153 365.44 773.006 366.599C787.38 368.015 801.704 367.058 815.322 363.774C827.078 361.06 838.857 357.289 850.742 353.846C869.603 348.195 888.475 342.016 907.74 338.733C920.799 336.467 934.122 335.232 947.575 335.04C957.682 335.137 967.801 334.705 977.791 335.003C989.599 335.258 1001.51 335.841 1013.55 336.223C1014.92 336.16 1016.26 335.93 1017.54 335.537M930.838 483.821C930.058 484.442 929.166 484.931 928.195 485.269C916.095 488.289 904.558 492.724 893.842 498.473C877.315 506.708 862.518 517.479 850.012 530.38C844.634 536.171 839.651 542.282 835.09 548.681C831.696 553.446 829.083 558.92 826.139 563.939C822.254 570.717 819.063 577.861 816.606 585.284C810.223 604.743 806.443 625.046 805.349 645.749C803.991 661.822 803.767 678.001 800.709 693.915C798.412 705.983 794.876 717.617 786.933 728.099C781.745 734.947 775.197 740.757 767.605 745.247C757.715 751.12 746.624 755.179 734.868 757.226C721.186 759.654 707.622 761.881 693.951 763.781C670.482 767.096 647.024 769.882 623.662 773.525C608.162 775.995 592.864 779.649 577.684 783.102C568.422 785.04 559.681 788.408 551.805 793.074C545.807 796.158 541.11 800.965 538.34 806.852C534.538 814.861 533.56 823.664 532.132 832.213C530.564 842.019 528.205 851.646 525.728 861.473C522.831 871.674 517.73 881.061 510.726 889.084C503.489 897.295 493.923 903.411 482.98 906.823C471.619 910.297 459.903 912.886 447.946 914.563C430.359 917.181 413.36 921.852 397.334 928.473C382.611 935.003 368.936 943.255 356.61 953.047C345.782 960.906 321.853 980.663 312.759 996.813C301.391 1017 282.679 1060.16 260.5 1085C238.321 1109.84 191 1116 177 1144.5C164.55 1169.84 167.846 1186.17 179.923 1196.65C192 1207.13 210.498 1216.7 270.206 1234.55C329.914 1252.4 437.02 1278.54 460 1283.15C482.98 1287.77 531.5 1291.92 572 1270.5C612.5 1249.08 620.529 1220.79 622.261 1207.13C623.992 1193.46 619.641 1158.67 597.295 1140.84C574.949 1123 552.646 1101.21 532.132 1085C511.617 1068.79 458.992 1014 484.569 991.5C510.145 969 524.732 965.603 543.5 953.047C562.268 940.49 608.078 923 622.261 923.5M1077.6 233.133C1077.5 232.806 1077.85 232.203 1077.63 232.076C1070.39 225.048 1063.04 218.22 1056.26 210.917C1045.38 198.889 1035.42 186.312 1024.65 174.084C1018.21 166.645 1011.26 159.593 1003.85 152.978C996.915 147.062 989.125 142.121 980.757 138.328C972.195 134.346 963.136 131.571 953.894 130.102C943.131 128.236 932.252 128.782 922.169 131.693C912.877 134.516 904.548 139.31 897.795 145.723C889.918 153.034 882.49 160.6 875.287 168.292C863.792 180.242 851.741 191.61 839.252 202.197C825.254 214.337 810.807 226.223 797.91 240.054C792.014 246.613 786.631 253.574 781.8 260.891C777.046 268.134 773.189 275.904 770.298 284.064C767.276 292.781 766.297 301.584 769.073 310.102C770.765 315.696 774.539 320.68 779.686 324.116C790.666 331.388 803.255 332.351 816.572 331.053C827.96 329.734 839.084 327.332 849.777 323.883C871.601 317.768 893.424 311.653 915.513 309.163C930.748 307.678 946.172 307.278 961.657 307.965C979.818 308.602 997.98 309.239 1016.38 309.474C1021.94 309.676 1027.52 308.82 1033.1 308.494M202.94 543.868C207.346 545.02 211.752 546.173 216.051 546.998C220.763 548.122 225.613 547.987 230.032 546.609C232.437 545.866 234.596 544.622 236.355 542.964C237.33 541.75 237.888 540.269 237.961 538.699C238.034 537.128 237.62 535.534 236.767 534.109C235.509 531.593 233.647 529.35 231.337 527.567C222.649 520.555 211.624 516.823 200.657 517.185C196.785 517.224 193.133 518.444 190.248 520.66C188.951 521.851 188.055 523.378 187.657 525.076C187.207 527.134 187.392 529.315 188.192 531.373C188.992 533.431 190.375 535.284 192.184 536.723C195.541 539.154 199.358 541.31 202.833 543.54M313.48 918.526C320.72 919.943 327.493 916.552 334.159 912.834C345.783 906.289 356.205 898.133 365.107 888.617C369.075 884.842 372.142 880.307 374.132 875.272C375.531 871.92 375.733 868.154 374.709 864.506C373.684 860.858 371.485 857.512 368.422 854.94C360.944 849.099 351.533 846.089 342.243 846.566C336.966 846.691 331.896 847.987 327.444 850.35C322.993 852.713 319.287 856.075 316.629 860.163C311.374 866.978 307.714 874.819 305.861 883.228C304.008 891.636 304 900.442 305.838 909.131C306.083 911.05 306.9 912.908 308.194 914.491C309.487 916.073 311.206 917.315 313.149 918.072M589.458 523.518C597.961 524.312 601.119 519.948 603.765 512.889C608.458 500.304 610.776 487.18 613.886 474.235C616.996 461.291 620.319 449.001 623.653 436.183C627.834 420.903 632.464 405.877 636.196 390.343C638.673 380.516 638.422 370.751 633.026 362.624C629.77 357.661 624.745 353.87 618.935 351.991C614.855 350.434 610.659 349.227 606.401 348.386C594.192 345.877 581.756 345.983 570.045 348.697C563.123 350.234 556.697 353.051 551.13 356.99C542.717 363.196 537.143 372.156 535.38 382.307C533.604 392.382 533.655 402.799 535.532 413.132C539.667 438.189 548.852 460.751 559.641 482.617C565.001 494.132 571.832 505.085 579.975 515.221C582.413 518.399 585.541 521.079 589.126 523.064M616.5 986.5C576.1 986.5 571.966 1020.91 574.949 1038.12C586.146 1051.42 598.89 1063.4 612.97 1073.87C627.379 1084.41 641.675 1094.76 655.866 1105.43C666.747 1113.03 675.442 1123.09 681.294 1134.86C684.271 1140.91 686.144 1147.49 686.839 1154.34C687.918 1165.99 686.524 1177.97 682.74 1189.55C678.541 1202.61 673.9 1215.4 668.816 1227.92C660.553 1248.14 651.848 1268.09 643.142 1288.04C637.347 1302.15 629.964 1315.74 621.134 1328.53C614.905 1337.89 605.649 1345.13 594.998 1348.98C587.809 1351.55 580.363 1353.09 572.911 1353.55C554.506 1354.89 536.094 1355.7 517.464 1356.64C501.684 1357.49 485.574 1358.27 469.554 1357.67C448.69 1356.68 428.701 1351.45 410.88 1342.3C391.656 1332.48 372.425 1322.14 353.089 1312.13C336.063 1303.46 318.331 1295.99 300.017 1289.75C277.531 1281.85 254.73 1274.94 232.034 1267.7C228.397 1266.41 224.654 1265.44 220.799 1264.28C210.006 1261.13 199.438 1258.37 188.75 1254.89C180.993 1252.44 173.475 1249.45 166.249 1245.95C158.379 1242.36 150.906 1238.09 143.913 1233.21C135.681 1227.38 128.918 1219.89 124.026 1211.19C119.134 1202.49 116.213 1192.75 115.438 1182.56C114.259 1169.24 114.632 1158.94 118.179 1144.44C126.304 1111.23 138.357 1086.82 170 1073.87C199.006 1062 237.503 1039.34 257.056 996.813C271.798 964.751 269.771 923.067 270.206 902.101C273.231 887.771 275.689 873.389 279.281 859.113C281.831 848.368 286.022 838.138 291.728 828.723C294.127 824.807 296.746 821.023 299.576 817.386C304.988 809.688 312.732 803.748 321.924 800.244C331.115 796.74 341.384 795.813 351.56 797.569C365.72 799.42 378.916 803.935 392.584 807.646C408.427 811.896 424.505 814.99 440.667 816.9C450.977 818.18 461.512 819.587 471.811 821.396C478.511 822.303 484.88 825.243 489.925 829.757C494.928 834.46 498.038 840.597 498.653 846.984C499.926 855.156 498.404 863.286 494.307 870.189C489.286 878.438 481.641 884.909 472.337 888.785C460.065 894.416 447.292 896.823 434.722 900.414C423.087 903.518 411.707 907.263 400.638 911.631C380.471 920.019 365.232 930.765 344.933 946.453C292.11 987.277 290.232 1037.02 241.209 1082.34C211.565 1109.74 168.52 1105.15 158.421 1144.24C155.286 1156.37 155.577 1165.72 156.579 1176.27C157.442 1184.01 159.934 1191.36 163.909 1197.87C168.882 1205.59 175.543 1212.1 183.486 1217C193.997 1223.45 205.283 1228.75 217.163 1232.84C224.108 1235.35 231.271 1237.74 238.321 1239.92C254.844 1244.99 271.254 1249.85 287.665 1254.72C296.695 1257.32 305.838 1260.13 314.651 1262.86C332.276 1268.33 349.902 1273.8 367.423 1279.6C387.921 1286.55 408.104 1294.48 428.49 1301.23C446.344 1307.2 465.216 1310.66 484.569 1311.52C501.771 1312.23 519.198 1311.01 536.498 1307.85C545.31 1306.41 553.986 1303.78 562.268 1300.05C567.158 1298 571.925 1295.63 576.532 1292.96C583.519 1288.5 589.843 1283.07 595.273 1276.88C608.869 1261.45 617.815 1242.94 623.992 1222.63C628.277 1209.46 630.198 1195.88 629.666 1182.52C629.115 1173.02 626.598 1163.89 622.261 1155.68C616.598 1145.62 609.172 1136.69 600.275 1129.24C589.392 1119.79 578.516 1110.87 567.31 1101.87C553.996 1091.21 540.248 1080.81 527.902 1068.79C521.874 1062.98 516.426 1056.64 511.617 1049.83C494.523 1017.57 491.352 953.047 615.418 953.047M612.5 978C542.9 980.8 554.203 1027.75 568.554 1050.88C579.728 1062.86 591.989 1073.85 605.218 1083.73C618.524 1093.87 632.047 1103.87 645.249 1114.34C655.014 1122.33 663.7 1131.49 668.592 1143.68C671.076 1149.51 672.572 1155.76 673.026 1162.22C673.827 1173.21 672.425 1184.45 668.897 1195.34C664.398 1210.43 658.798 1225.1 653.084 1239.59C647.79 1252.76 642.054 1265.67 635.658 1278.43C627.349 1295.5 618.156 1312.04 603.187 1323.52C597.318 1328.13 590.769 1331.81 583.823 1334.41C574.797 1337.38 565.565 1339.46 556.277 1340.62C537.653 1343.12 518.999 1344.59 500.409 1345.01C492.077 1345.17 483.744 1345.33 475.404 1344.96C462.15 1344.35 449.188 1342.13 436.816 1338.37C418.86 1332.83 401.745 1324.68 384.516 1316.33C363.812 1305.96 342.408 1296.78 320.403 1288.82C298.907 1281.14 277.427 1274.51 255.721 1267.48L243.495 1263.85C229.29 1259.8 214.867 1255.88 200.654 1251.3C193.604 1249.11 186.868 1245.95 179.923 1243.43C168.337 1239.03 157.647 1232.95 148.189 1225.39C140.766 1219.28 134.877 1211.64 130.885 1202.94C126.893 1194.24 124.882 1184.67 124.979 1174.81C125.007 1161.57 124.349 1150.57 129.58 1136.39C137.801 1114.1 148.011 1099.92 170 1090.94C224.219 1068.79 254.3 1044.16 273.452 991.5C284.703 960.566 278.333 926.399 280.774 907.532C282.137 893.845 284.736 880.381 288.543 867.282C291.949 854.697 297.812 842.977 305.849 832.687C311.743 825.151 320.155 819.719 329.914 817.146C340.617 814.662 352.081 815.037 363.06 818.228C372.664 820.713 382.139 823.927 391.731 826.94C397.827 828.78 404.147 830.747 410.125 832.787C420.166 836.054 430.101 838.993 439.789 842.862C444.798 844.545 449.28 847.542 452.673 851.477C457.642 858.294 456.163 863.873 451.282 869.135C446.761 873.673 441.289 877.294 435.156 879.806C427.699 883.345 420.017 886.757 412.335 890.169C400.216 895.682 388.651 902.107 377.743 909.386C363.105 919.56 349.785 926.452 334.384 940.49C312.548 960.394 287.665 1000 287.665 1000C287.665 1000 248.76 1073.87 188.75 1094.9C166.279 1102.77 150.873 1118.26 143.465 1140.89C139.677 1152.46 140.143 1161.54 139.853 1171.86C139.718 1183.89 142.872 1195.43 148.999 1205.34C152.218 1210.41 156.318 1214.87 161.142 1218.54C171.12 1226.76 182.677 1233.09 195.3 1237.27C204.45 1240.6 213.383 1244.06 222.526 1246.86C237.399 1251.58 252.482 1255.64 267.46 1260.02C271.645 1261.26 276.16 1262.56 280.457 1263.99C287.508 1266.18 294.558 1268.37 301.391 1270.68C311.636 1273.9 322.099 1276.98 332.352 1280.72C347.345 1286.15 362.346 1292.12 377.234 1297.88C388.484 1302.35 399.63 1307.15 410.985 1311.29C420.248 1314.82 429.511 1318.34 438.984 1321.22C452.415 1325.21 466.489 1327.49 480.865 1327.98C490.63 1328.3 500.282 1328.43 510.145 1327.9C528.226 1327.37 546.387 1324.65 564.204 1319.81C574.325 1316.86 583.99 1312.23 592.74 1306.14C601.828 1299.42 609.55 1291.08 615.418 1281.65C623.783 1268.86 630.829 1255.4 636.444 1241.47C641.203 1229.6 645.313 1217.55 648.755 1205.38C651.63 1195.09 653.101 1184.62 653.132 1174.23C653.151 1164.33 650.642 1154.83 645.824 1146.53C639.626 1135.72 631.314 1126.28 621.296 1118.69C611.418 1110.5 601.217 1102.76 591.233 1094.9C578.79 1085.47 567 1075.29 555.92 1064.42C548.477 1057.09 541.723 1049.14 535.728 1040.63C522.43 1015.13 519.752 964.131 615.418 964.131" stroke="url(#paint0_linear_159_4203)" stroke-linecap="round" stroke-linejoin="round"/>
</g>
<defs>
<linearGradient id="paint0_linear_159_4203" x1="577.959" y1="-231.697" x2="577.959" y2="1932.36" gradientUnits="userSpaceOnUse">
<stop offset="0.541676" stop-color="#DFE4E8"/>
<stop offset="0.71332" stop-color="#F2F4F6"/>
</linearGradient>
<clipPath id="clip0_159_4203">
<rect width="609" height="1932" fill="white"/>
</clipPath>
</defs>
</svg>
