<svg width="1440" height="365" viewBox="0 0 1440 365" fill="none" xmlns="http://www.w3.org/2000/svg">
<g clip-path="url(#clip0_1497_9712)">
<rect width="1440" height="365" fill="transparent"/>
<g opacity="0.15">
<path d="M1228.63 -122.556C1238.16 -109.723 1247.26 -96.8892 1257.2 -84.4696C1271.08 -67.8515 1286.93 -52.9776 1304.39 -40.1732C1320.95 -27.7537 1338.34 -16.1621 1355.31 -4.57048C1392.16 20.2686 1426.11 48.0056 1450.53 81.5384C1464.94 101.05 1476.76 122.339 1485.72 144.878C1491.33 159.967 1495.76 175.469 1498.97 191.244C1501.05 203.009 1502.29 214.907 1502.69 226.847C1503.52 236.369 1503.93 246.305 1503.93 255.826C1503.93 269.488 1503.11 283.149 1502.69 297.225C1502.28 312.128 1501.04 327.032 1501.87 342.349C1503.11 365.946 1506.42 389.543 1516.35 411.899C1523.81 430.52 1536.27 446.713 1552.37 458.679C1565.89 468.159 1581.83 473.614 1598.32 474.41C1614.47 475.652 1631.03 476.066 1647.17 477.308C1665.6 478.364 1683.76 482.274 1700.99 488.9C1709.22 492.148 1717.12 496.168 1724.59 500.906C1743.39 513.198 1758.31 530.566 1767.64 550.998C1775.08 565.924 1779.84 582.037 1781.72 598.606C1783.02 607.517 1783.72 616.508 1783.79 625.515C1783.37 636.693 1781.72 647.456 1780.48 658.22C1779.24 668.156 1777.58 678.091 1777.17 688.441C1776.34 702.93 1775.92 717.834 1775.92 732.323C1776.42 739.989 1777.52 747.603 1779.24 755.092C1780.06 761.302 1780.89 767.926 1781.72 774.136C1782.96 781.587 1784.2 789.453 1785.03 796.905L1786.27 808.082C1786.69 814.292 1786.69 820.502 1787.51 826.712C1790.83 854.035 1790 881.772 1789.58 909.095C1789.1 921.149 1787.99 933.171 1786.27 945.112C1785.44 951.735 1785.03 958.359 1783.79 964.983C1782.55 974.091 1781.31 983.612 1779.24 992.72C1775.12 1011.48 1769.16 1029.78 1761.43 1047.37C1750.52 1072.06 1734.75 1094.3 1715.07 1112.78C1699.55 1127.13 1681.61 1138.63 1662.08 1146.72C1647.38 1153.22 1631.33 1156.07 1615.3 1155C1600.99 1154.14 1587.15 1149.57 1575.14 1141.75C1549.47 1125.2 1532.91 1103.67 1519.67 1080.07C1509.99 1062.89 1502.21 1044.71 1496.48 1025.84C1492.75 1012.23 1489.85 998.402 1487.79 984.44C1484.63 968.082 1483.52 951.395 1484.48 934.762C1484.97 925.453 1486.07 916.187 1487.79 907.025C1489.64 895.988 1492.12 885.068 1495.24 874.32C1503.06 849.771 1514.66 826.587 1529.6 805.599C1541.19 789.039 1553.61 772.894 1565.62 756.748C1574.73 744.329 1583.42 731.909 1586.73 717.834C1592.11 696.72 1586.73 677.677 1567.69 661.118C1560.98 655.123 1553.08 650.609 1544.51 647.87C1535.81 645.166 1526.64 644.32 1517.6 645.386C1499.27 648.311 1481.6 654.479 1465.43 663.602C1433.14 679.747 1401.27 696.721 1366.49 709.968C1338.1 720.64 1308.69 728.408 1278.73 733.151C1256.42 736.671 1233.81 737.92 1211.25 736.877C1192.04 735.848 1172.94 733.357 1154.12 729.425C1128.4 723.588 1103.3 715.269 1079.19 704.586C1060.56 696.306 1042.34 687.613 1024.54 678.505C992.663 662.774 960.786 647.87 926.839 635.037C899.93 625.101 872.194 615.579 845.699 604.816C821 594.894 797.411 582.406 775.321 567.557C746.342 548.514 721.503 526.573 694.594 505.873C679.921 494.051 663.604 484.428 646.158 477.308C633.242 472.269 619.446 469.875 605.587 470.27C588.902 471.105 572.562 475.331 557.564 482.69C537.768 492.455 519.039 504.248 501.676 517.879C491.327 525.745 480.978 534.024 471.042 542.304C447.859 561.761 425.089 581.219 402.32 600.676C389.9 611.439 377.068 622.203 364.648 632.553C339.809 653.252 314.969 673.951 289.716 694.237C259.909 717.834 228.86 740.189 199.467 763.786C173.633 784.404 150.784 808.507 131.574 835.406C114.563 859.35 100.393 885.191 89.3478 912.407C83.4695 926.139 79.5666 940.634 77.756 955.461C76.4498 964.095 75.7581 972.811 75.6861 981.542C76.2209 995.119 78.8745 1008.53 83.5514 1021.28C95.143 1053.16 115.843 1080.9 141.924 1106.15C158.59 1122.93 178.065 1136.66 199.467 1146.72C214.854 1153.63 231.456 1157.43 248.318 1157.9C269.283 1157.97 290.118 1154.61 310.001 1147.96C334.84 1140.1 358.852 1131.82 383.277 1123.13C412.256 1112.78 441.234 1101.6 471.455 1093.73C486.107 1089.84 501.065 1087.21 516.166 1085.87C547.629 1082.55 577.022 1088.35 605.587 1098.7C639.212 1111.01 671.869 1125.82 703.287 1143C725.818 1154.77 747.534 1168.05 768.284 1182.74C795.787 1201.95 820.573 1224.79 841.972 1250.63C851.08 1261.4 858.946 1272.99 867.64 1284.58C868.953 1286.17 870.486 1287.56 872.193 1288.72" stroke="#DFE4E8" stroke-width="1.5" stroke-linecap="round" stroke-linejoin="round"/>
<path d="M1122.66 -122.556C1130.53 -112.621 1137.98 -103.099 1145.84 -93.5773C1163.23 -72.8781 1180.2 -52.1788 1198.42 -31.8935C1215.59 -12.8623 1235.06 3.96382 1256.38 18.1987C1277.08 32.2742 1298.19 45.9356 1318.48 60.4251C1349.52 81.9523 1375.61 107.205 1392.99 137.426C1402.44 153.646 1409.28 171.247 1413.28 189.589C1416.43 202.879 1417.95 216.501 1417.83 230.159C1417.83 235.127 1419.07 239.681 1418.66 244.649C1418.25 258.31 1417.42 271.972 1416.59 286.047C1415.76 296.811 1414.93 307.988 1414.52 318.752C1413.69 334.897 1413.28 351.043 1413.28 367.602C1413.69 378.78 1415.35 389.957 1416.59 401.135C1417.83 410.657 1418.66 420.178 1419.9 429.286C1421.14 437.566 1422.8 445.845 1424.04 453.711C1424.87 459.921 1426.53 466.131 1426.94 472.34C1428.45 485.255 1429.15 498.253 1429.01 511.255C1427.77 549.756 1412.86 584.944 1380.99 614.751C1361.3 633.185 1338.25 647.662 1313.09 657.392C1295.64 664.425 1277.21 668.753 1258.45 670.225C1248.83 671.396 1239.15 671.949 1229.47 671.881C1206.35 671.116 1183.47 666.93 1161.58 659.462C1127.63 648.284 1098.65 630.483 1069.67 612.681C1040.69 594.88 1011.3 575.837 977.352 563.831C962.448 558.449 946.716 553.481 931.399 548.928C902.006 540.234 872.613 532.368 844.876 520.777C824.458 512.455 805.021 501.903 786.918 489.314C768.289 476.066 750.073 461.577 731.444 448.329C713.642 435.496 696.255 422.662 674.314 413.555C657.645 406.407 639.709 402.686 621.573 402.615C603.437 402.544 585.471 406.124 568.747 413.141C554.638 419.153 541.066 426.355 528.178 434.668C516.026 442.135 504.406 450.434 493.402 459.507C478.085 471.926 464.009 484.76 449.106 497.593C443.724 502.147 438.756 506.701 433.374 510.841C401.084 537.336 369.207 564.245 336.088 589.912C309.408 610.971 281.33 630.196 252.049 647.456C218.516 666.913 184.57 685.957 151.451 705.414C120.677 723.416 94.0213 747.673 73.2072 776.619C57.4757 798.975 43.814 822.572 30.5665 845.755C14.8351 873.078 -0.896188 899.987 -15.7997 927.31C-21.9589 938.307 -26.4248 950.17 -29.047 962.499C-32.8498 980.805 -30.0644 999.865 -21.1817 1016.32C-9.30693 1039.27 5.13781 1060.8 21.8734 1080.48C45.0566 1109.05 68.2398 1137.61 92.2509 1165.77C107.154 1183.15 122.885 1200.13 139.445 1216.69C154.082 1231.46 171.539 1243.15 190.78 1251.05C202.137 1255.6 214.164 1258.26 226.382 1258.91C250.207 1260.1 273.99 1255.85 295.931 1246.49C325.738 1234.9 355.131 1222.9 384.938 1210.89C414.325 1199.29 444.852 1190.83 476.015 1185.64C498.488 1182.33 521.254 1181.5 543.908 1183.15C570.786 1184.87 597.277 1190.44 622.565 1199.71C646.041 1207.78 668.648 1218.18 690.045 1230.76C715.521 1245.85 738.904 1264.23 759.595 1285.41C761.249 1286.84 763.053 1288.09 764.977 1289.13" stroke="#DFE4E8" stroke-width="1.5" stroke-linecap="round" stroke-linejoin="round"/>
<path d="M1189.3 -122.145C1207.03 -94.968 1227.72 -69.8378 1250.98 -47.2135C1267.24 -31.87 1284.83 -18.015 1303.56 -5.81496C1321.78 6.19061 1339.16 19.0243 1356.97 31.0298C1379.32 46.4855 1399.51 64.8639 1416.99 85.6758C1435.42 107.267 1449.35 132.32 1457.98 159.365C1461.7 172.199 1465.43 185.032 1468.33 197.866C1469.98 206.56 1469.98 215.253 1470.81 223.947C1471.23 230.571 1472.05 237.608 1472.05 244.232C1472.05 253.754 1471.64 263.276 1470.81 272.797C1470.4 282.733 1469.57 293.082 1468.33 303.018C1466.19 322.536 1465.5 342.184 1466.26 361.804C1466.67 372.568 1468.33 383.331 1469.57 394.095C1472.47 420.176 1481.16 445.429 1488.61 470.682C1492.75 483.516 1496.48 496.349 1499.38 509.597C1504.45 530.697 1501.18 552.939 1490.27 571.694C1478.84 590.221 1464.91 607.078 1448.87 621.787C1426.81 642.884 1401.86 660.727 1374.77 674.777C1342.6 692.582 1307.33 704.102 1270.86 708.724C1260.51 709.966 1250.16 711.208 1239.39 711.622C1228.5 712.242 1217.58 712.242 1206.69 711.622C1191.66 709.979 1176.73 707.491 1161.98 704.17C1132.8 697.354 1104.67 686.632 1078.35 672.293L1003.84 632.55C977.515 618.839 950.097 607.346 921.866 598.19C896.199 589.496 869.705 580.802 844.866 571.281C818.625 561.233 793.843 547.729 771.176 531.124C751.719 516.634 732.675 501.731 713.631 487.241C699.481 475.897 684.385 465.787 668.507 457.021C649.802 447.088 628.819 442.234 607.652 442.945C596.74 443.427 585.976 445.664 575.775 449.569C553.703 457.142 533.111 468.488 514.919 483.102C501.257 493.451 487.596 503.387 474.762 514.151C453.649 531.538 433.364 549.753 412.664 567.555C406.869 572.522 400.659 577.904 394.45 582.872C384.514 591.152 374.578 599.431 364.643 607.297C350.153 619.303 335.663 631.722 320.346 643.314C297.99 660.287 274.807 676.847 252.038 693.406C234.651 705.826 216.85 717.831 199.876 730.665C185.801 741.014 171.725 751.364 158.478 762.542C139.824 778.458 123.269 796.681 109.213 816.774C99.6914 830.435 90.5837 844.097 82.304 858.586C66.4393 884.795 53.9221 912.889 45.0454 942.211C40.3064 959.024 38.624 976.552 40.0777 993.959C42.2094 1012.36 48.1293 1030.12 57.4649 1046.12C69.7567 1068.4 84.324 1089.35 100.933 1108.63C115.117 1125.03 130.182 1140.65 146.058 1155.41C159.499 1167.84 174.535 1178.42 190.769 1186.88C206.233 1194.91 223.433 1199.04 240.861 1198.88C263.511 1198.8 285.958 1194.59 307.098 1186.46C329.039 1179.01 350.566 1170.73 372.094 1162.87C398.345 1152.76 425.162 1144.19 452.407 1137.2C470.749 1132.52 489.439 1129.33 508.295 1127.68C525.4 1126.51 542.572 1126.78 559.629 1128.5C593.162 1132.23 623.797 1142.58 653.604 1154.59C685.623 1167.39 716.16 1183.63 744.68 1203.02C769.898 1220.06 792.732 1240.39 812.575 1263.46C818.784 1270.5 824.58 1277.95 830.789 1285.4C831.816 1286.33 832.925 1287.16 834.102 1287.89" stroke="#DFE4E8" stroke-width="1.5" stroke-linecap="round" stroke-linejoin="round"/>
<path d="M1151.22 -122.145C1167.36 -101.446 1183.51 -81.1602 1200.07 -60.4609C1219.83 -36.5894 1242.66 -15.4315 1267.96 2.46475C1286.18 15.7123 1306.05 27.7179 1324.68 40.5515C1353.24 60.0088 1378.91 81.122 1398.37 106.789C1422.55 139.023 1436.92 177.543 1439.77 217.737C1440.18 232.227 1441.01 246.302 1440.59 260.792C1440.59 271.555 1439.35 281.905 1438.52 292.668C1437.7 302.604 1436.45 312.126 1436.45 322.061C1435.63 339.449 1435.21 356.836 1435.21 373.81C1435.7 383.667 1436.81 393.484 1438.52 403.203C1439.77 413.966 1441.42 424.73 1443.08 435.493C1444.73 444.601 1446.8 454.123 1448.05 463.23C1449.29 472.338 1451.36 481.446 1452.19 490.553C1453.01 500.903 1453.43 511.667 1453.43 522.016C1452.89 541.53 1447.48 560.6 1437.7 577.49C1424.86 601.502 1404.99 622.201 1381.39 640.002C1357.9 657.539 1331.38 670.591 1303.15 678.503C1286.63 683.145 1269.73 686.331 1252.64 688.024C1218.61 690.834 1184.37 686.606 1152.05 675.605C1119.76 664.841 1092.02 649.11 1064.28 632.964C1042.75 620.545 1021.23 608.125 999.285 596.534C976.727 585.364 953.163 576.354 928.907 569.625C901.584 561.345 874.261 553.893 848.18 543.13C823.702 533.402 800.489 520.753 779.045 505.457C763.728 494.279 748.824 482.688 733.507 471.096C715.705 457.849 698.318 444.187 677.619 433.423C662.279 425.304 645.437 420.417 628.134 419.064C610.832 417.711 593.435 419.921 577.02 425.558C556.453 432.921 537.068 443.241 519.476 456.193C509.127 464.058 497.949 471.096 488.013 479.376C467.728 495.935 448.271 513.323 428.814 530.296L411.84 544.785C380.791 570.039 350.57 595.292 318.694 619.717C285.923 644.649 251.785 667.73 216.439 688.852C187.46 706.654 158.895 724.455 133.642 745.568C116.323 760.157 100.887 776.845 87.6896 795.247C79.4099 806.838 71.9588 818.844 64.5071 830.849C47.998 857.693 33.0689 885.477 19.7964 914.06C13.031 928.24 7.75861 943.086 4.06481 958.357C1.72029 970.365 1.44049 982.685 3.23704 994.787C7.37689 1025.42 24.7645 1051.92 43.8078 1077.58C57.8833 1097.04 72.786 1115.67 88.5174 1133.89C105.905 1153.76 123.707 1173.63 143.164 1192.26C156.952 1206.11 173.248 1217.21 191.186 1224.96C201.714 1229.54 212.884 1232.48 224.305 1233.66C247.902 1236.55 270.257 1231.59 291.785 1224.14C320.35 1213.79 348.501 1202.61 376.652 1191.84C404.334 1180.99 432.856 1172.4 461.933 1166.18C478.624 1163.06 495.491 1160.99 512.439 1159.97C542.996 1158.44 573.6 1161.8 603.101 1169.9C643.542 1180.64 681.985 1197.84 716.947 1220.82C744.321 1238.59 769.117 1260.04 790.637 1284.58C791.465 1285.41 793.121 1286.23 793.949 1287.06" stroke="#DFE4E8" stroke-width="1.5" stroke-linecap="round" stroke-linejoin="round"/>
<path d="M-505.547 648.701C-499.337 646.217 -493.128 643.319 -486.918 640.835C-469.53 634.625 -452.143 628.83 -434.755 622.62C-408.554 613.206 -381.526 606.275 -354.028 601.921C-338.297 599.437 -322.566 597.781 -306.834 596.539C-268.334 592.813 -229.419 595.711 -190.504 594.469C-149.105 593.227 -111.433 584.119 -79.1423 562.592C-59.685 549.758 -43.1248 534.441 -32.7752 515.812C-27.6642 507.499 -24.4166 498.177 -23.2543 488.489C-22.3582 479.41 -22.0808 470.282 -22.4255 461.166C-23.3529 450.653 -25.2944 440.256 -28.2219 430.117C-35.2597 404.036 -43.1256 377.955 -50.1634 351.874C-52.4556 340.521 -54.114 329.05 -55.131 317.513C-56.1607 312.336 -56.5778 307.056 -56.3731 301.781C-54.7172 282.738 -51.8191 263.695 -38.5716 247.135C-31.9858 238.839 -23.4536 232.298 -13.7325 228.092C-7.1101 225.346 0.0403084 224.108 7.20027 224.466C14.3602 224.824 21.3506 226.769 27.6661 230.162C41.0891 236.953 52.2926 247.438 59.9571 260.383C72.7442 280.172 81.5995 302.239 86.0384 325.378C88.9534 338.743 90.8901 352.303 91.8338 365.949C93.0757 384.992 93.0759 404.036 93.0759 423.079C93.0759 433.429 91.42 443.778 91.006 454.128C90.1794 462.105 89.7647 470.119 89.7638 478.139C91.0058 499.666 96.3882 520.366 114.19 537.753C129.507 553.07 149.378 561.764 174.217 563.834C199.122 565.296 224.061 561.632 247.493 553.07C280.197 542.307 308.762 526.161 336.499 508.36C365.892 489.731 391.974 467.789 418.469 446.676C442.066 427.633 464.006 407.762 488.017 389.132C510.934 370.584 536.463 355.519 563.777 344.422C583.127 336.869 603.502 332.264 624.219 330.76C656.51 328.276 685.902 335.728 713.639 348.148C738.065 358.911 759.179 373.401 780.706 387.89C808.029 406.52 836.179 425.149 868.884 437.568C888.984 444.997 909.601 450.947 930.568 455.37C958.305 461.58 986.87 466.547 1013.78 475.241C1038.79 483.34 1062.6 494.758 1084.57 509.188C1106.93 524.091 1128.87 539.409 1151.64 553.898C1167.41 564.205 1184.74 571.894 1202.97 576.667C1230.29 583.705 1256.79 581.635 1280.8 567.974C1295.31 560.135 1307.03 547.984 1314.33 533.199C1320.93 520.658 1324.61 506.79 1325.1 492.629C1325.1 486.833 1326.34 481.037 1325.92 475.655C1325.1 464.478 1323.85 453.3 1322.61 442.122C1321.37 430.945 1319.71 419.767 1318.06 408.589C1316.82 400.31 1314.75 392.03 1313.5 384.164C1312.26 377.541 1311.85 370.503 1311.02 363.879C1309.78 355.185 1308.54 346.078 1307.71 337.384C1307.29 332.002 1306.88 327.034 1306.47 321.653C1306.05 312.959 1306.05 304.679 1305.22 295.986C1304.4 283.98 1303.15 271.974 1301.5 259.969C1299.99 246.586 1297.64 233.312 1294.46 220.226C1291.41 209.014 1287.11 198.182 1281.63 187.935C1270.19 167.14 1254.87 148.731 1236.5 133.703C1220.77 120.456 1205.04 107.622 1189.31 94.3747C1165.83 74.7551 1144.08 53.1479 1124.31 29.793C1107.75 9.92168 1091.61 -10.7776 1074.22 -30.2349C1049.8 -57.1439 1024.54 -83.6389 999.289 -110.134C995.563 -113.86 991.838 -118 988.112 -121.726" stroke="#DFE4E8" stroke-width="1.5" stroke-linecap="round" stroke-linejoin="round"/>
<path d="M-506.384 631.308C-491.48 625.926 -476.577 620.131 -461.673 614.749C-425.242 601.087 -387.984 588.668 -348.242 582.044C-331.682 579.146 -314.708 577.076 -297.735 575.006C-283.245 573.35 -268.756 572.522 -254.266 571.28C-224.873 568.796 -195.481 566.313 -166.916 558.861C-136.281 550.581 -110.614 536.506 -91.5707 515.392C-79.8411 502.285 -71.8357 486.274 -68.3871 469.026C-65.9774 454.946 -65.4211 440.61 -66.7316 426.386C-67.9917 413.161 -70.0656 400.027 -72.9414 387.057L-79.1512 354.766C-80.8071 346.9 -82.4624 339.035 -83.7044 331.169C-84.1184 328.271 -84.5326 324.959 -84.9466 322.061C-86.0499 309.536 -86.3262 296.951 -85.7743 284.389C-84.9284 265.332 -79.2284 246.807 -69.2149 230.571C-57.2093 211.527 -41.0641 195.382 -14.5691 187.93C-4.34954 184.916 6.43075 184.319 16.9205 186.187C27.4102 188.055 37.3225 192.337 45.8732 198.694C64.5025 211.941 76.0939 228.915 86.0295 246.716C95.3689 263.667 102.863 281.571 108.384 300.12C113.352 317.094 117.078 334.481 120.804 351.454C123.288 361.804 124.944 372.154 126.6 382.503C127.842 390.369 127.842 397.821 129.084 405.686C130.326 415.622 131.982 425.972 133.638 435.907C135.708 447.085 137.777 458.676 140.675 469.854C144.424 485.149 152.638 498.984 164.272 509.596C176.258 520.324 191.327 526.989 207.327 528.64C229.269 531.124 249.554 526.57 269.425 520.36C296.218 511.171 321.688 498.506 345.184 482.687C369.561 466.575 393.054 449.162 415.561 430.525C439.572 411.068 462.756 390.783 487.181 371.74C510.352 353.228 536.168 338.297 563.768 327.443C587.839 318.743 613.121 313.854 638.7 312.954C654.166 313.085 669.573 314.889 684.651 318.335C713.869 326.039 741.677 338.336 767.035 354.766C786.906 367.186 806.364 379.605 826.235 391.611C855.347 408.923 887.089 421.368 920.21 428.456C947.119 433.837 974.028 439.219 1000.94 445.429C1025.3 450.69 1048.93 458.891 1071.31 469.854C1093.7 481.491 1115.28 494.63 1135.9 509.183C1153 521.487 1171.48 531.767 1190.96 539.817C1201.53 543.972 1212.72 546.35 1224.07 546.855C1237.81 547.527 1251.41 543.91 1262.99 536.506C1277.76 526.314 1287.88 510.682 1291.14 493.037C1293.49 479.371 1294.18 465.471 1293.21 451.639C1292.3 440.798 1290.78 430.017 1288.66 419.348C1287.41 410.654 1286.59 401.96 1284.93 393.267C1283.27 384.573 1281.62 375.465 1280.38 366.358C1279.55 359.734 1278.72 352.696 1277.89 346.072C1276.65 336.137 1275.41 326.615 1274.58 316.68C1274.17 312.54 1273.75 308.814 1273.34 304.674C1271.27 289.356 1269.61 274.039 1267.54 258.722C1265.31 242.905 1261 227.453 1254.71 212.769C1243.75 188.587 1227.97 166.894 1208.34 149.016C1185.99 127.488 1162.39 106.789 1141.28 84.8479C1122.23 65.3906 1105.26 44.6913 1088.29 24.406C1063.45 -5.81492 1039.44 -36.0358 1011.29 -64.6008C992.657 -83.6441 974.028 -102.687 955.398 -122.145" stroke="#DFE4E8" stroke-width="1.5" stroke-linecap="round" stroke-linejoin="round"/>
<path d="M-506.384 614.754C-491.066 608.958 -475.748 602.748 -460.431 597.367C-431.547 586.221 -402.116 576.549 -372.252 568.388C-349.897 563.006 -327.128 558.866 -304.359 555.554C-274.138 551.414 -243.917 547.688 -214.524 542.307C-183.889 536.925 -155.738 526.161 -133.797 507.118C-118.997 494.641 -108.199 478.084 -102.748 459.51C-97.3663 441.708 -98.1942 423.493 -98.6082 405.278C-99.5179 395.258 -101.038 385.304 -103.161 375.471C-104.403 367.605 -105.232 359.325 -106.474 351.459C-107.715 343.594 -109.371 334.9 -110.613 327.034C-111.367 323.48 -111.921 319.887 -112.27 316.271C-113.369 301.947 -113.646 287.572 -113.098 273.216C-111.36 248.701 -102.751 225.171 -88.2586 205.323C-73.0483 183.349 -51.33 166.698 -26.1608 157.714C-13.6505 152.936 -0.184952 151.194 13.1294 152.634C26.4437 154.073 39.2266 158.652 50.4265 165.994C70.2978 178.828 83.1313 195.801 93.8949 213.602C106.047 233.044 115.779 253.898 122.874 275.7C128.67 292.674 133.638 309.647 138.606 326.62C142.745 341.938 146.471 357.669 150.197 372.987C154.337 389.96 158.476 406.934 163.03 423.907C167.107 440.367 174.426 455.848 184.558 469.445C195.234 483.392 210.739 492.842 228.027 495.94C242.792 498.436 257.929 497.587 272.323 493.456C299.12 486.322 324.571 474.856 347.668 459.51C381.615 438.396 410.593 413.557 440.4 389.132C465.628 367.636 492.48 348.12 520.714 330.76C547.603 314.418 577.41 303.451 608.479 298.469C655.86 291.527 704.224 299.636 746.749 321.653C770.761 334.072 793.944 348.148 817.127 361.809C847.363 380.47 880.327 394.298 914.828 402.794C935.941 407.761 957.883 411.073 979.41 414.799C994.313 417.697 1009.22 419.767 1024.12 423.079C1043.73 427.506 1062.98 433.458 1081.66 440.88C1104.98 450.917 1127.66 462.393 1149.56 475.241C1162.57 483.291 1176.46 489.819 1190.96 494.698C1205.45 498.838 1219.94 499.666 1232.77 490.145C1240.68 484.613 1246.28 476.36 1248.5 466.961C1252.42 453.948 1253.27 440.202 1250.98 426.805C1250.16 421.046 1249.74 415.235 1249.74 409.417C1248.91 399.482 1247.26 389.96 1246.43 380.024L1245.19 367.605C1244.36 357.669 1243.95 347.32 1242.7 337.384C1241.88 328.276 1240.22 319.583 1239.39 310.475C1238.56 302.609 1238.15 294.329 1236.91 286.464C1235.25 276.114 1233.18 265.35 1230.7 255.001C1225.33 233.764 1216.37 213.602 1204.2 195.387C1193.06 179.591 1180.6 164.773 1166.94 151.091C1141.69 125.01 1115.61 98.9285 1093.26 70.7775C1072.97 45.5244 1053.93 19.8573 1033.23 -4.98178C1011.29 -31.4768 986.447 -56.3159 962.022 -81.155C948.774 -94.4026 936.355 -108.478 923.522 -121.726" stroke="#DFE4E8" stroke-width="1.5" stroke-linecap="round" stroke-linejoin="round"/>
<path d="M-506.384 694.24C-495.62 690.929 -484.857 687.617 -474.507 683.891C-445.398 673.784 -415.483 666.167 -385.086 661.122C-372.769 659.113 -360.306 658.143 -347.827 658.224C-326.3 658.638 -305.187 660.708 -285.729 668.987C-262.486 677.541 -243.58 694.958 -233.153 717.424C-225.825 735.184 -220.278 753.627 -216.594 772.484C-209.668 804.619 -196.898 835.21 -178.921 862.732C-168.464 878.548 -155.933 892.889 -141.662 905.373C-135.042 910.864 -127.82 915.586 -120.135 919.448C-114.059 922.646 -107.284 924.282 -100.418 924.21C-93.5529 924.138 -86.8136 922.359 -80.8066 919.034C-69.8248 913.26 -59.7764 905.863 -50.9998 897.093C-31.9792 877.679 -15.4317 855.987 -1.73495 832.511C9.85664 812.64 19.7917 792.355 31.7973 772.484C44.2168 751.784 57.051 731.085 76.9223 714.112C95.8411 698.506 116.89 685.681 139.433 676.025C163.031 664.847 187.042 654.498 211.053 643.734C240.122 630.378 268.085 614.736 294.678 596.954C311.651 585.776 328.625 573.771 344.771 561.765C365.056 546.448 385.341 531.13 404.798 514.985C426.74 496.77 448.266 478.554 469.38 459.925C490.823 440.756 513.964 423.574 538.516 408.591C557.591 396.894 578.632 388.759 600.614 384.58C619.14 381.265 638.141 381.687 656.502 385.821C679.239 391.229 700.736 400.924 719.841 414.386C735.158 424.322 748.82 435.5 763.724 446.263C786.997 464.103 811.954 479.632 838.241 492.63C856.408 501.062 875.24 507.986 894.543 513.329C920.624 520.781 947.119 527.404 972.786 535.27C1000.2 543.798 1026.37 555.908 1050.62 571.287C1075.45 587.018 1099.88 603.164 1125.13 618.481C1147.86 632.407 1172.99 641.955 1199.24 646.632C1209.23 648.349 1219.33 649.455 1229.46 649.944C1242.91 651.043 1256.46 650.066 1269.61 647.046C1281.59 644.669 1293.35 641.347 1304.8 637.11C1321.57 630.516 1337.11 621.139 1350.75 609.373C1369.88 593.529 1384.33 572.778 1392.57 549.346C1396.53 538.854 1398.9 527.832 1399.61 516.641C1400.5 506.04 1400.77 495.397 1400.43 484.764C1399.61 471.102 1397.95 457.855 1395.88 444.607C1393.81 430.118 1390.91 415.628 1389.26 401.139C1388.01 390.789 1387.19 380.44 1386.77 370.09C1385.94 348.563 1385.53 327.036 1385.53 305.508C1385.94 281.911 1387.19 257.9 1387.6 234.303C1387.32 218.604 1384.95 203.012 1380.56 187.937C1376.67 173.017 1370.53 158.778 1362.35 145.71C1353.79 131.778 1343.34 119.1 1331.3 108.037C1310.18 88.58 1285.76 72.0207 1260.92 55.4612C1225.2 32.4739 1192.87 4.60509 1164.87 -27.3358C1144.59 -50.933 1125.13 -74.5301 1104.85 -98.1273C1098.22 -105.993 1091.19 -113.445 1084.56 -120.896" stroke="#DFE4E8" stroke-width="1.5" stroke-linecap="round" stroke-linejoin="round"/>
<path d="M-506.384 676.852C-476.163 666.916 -446.355 656.981 -415.72 647.873C-395.469 641.908 -374.662 638.024 -353.623 636.281C-336.235 635.039 -318.848 635.867 -301.461 636.281C-286.884 636.94 -272.434 639.302 -258.406 643.319C-239.329 647.957 -221.334 656.252 -205.417 667.744C-190.572 678.819 -180.153 694.814 -176.023 712.868C-172.711 726.53 -171.056 740.606 -168.986 754.681C-165.26 775.794 -159.878 796.493 -147.459 815.951C-141.227 825.833 -132.707 834.069 -122.62 839.962C-105.232 849.898 -89.0866 849.484 -71.6992 839.134C-59.7334 831.599 -49.673 821.397 -42.3058 809.327C-29.0583 789.87 -21.1926 768.757 -13.3269 747.229C-6.28911 728.186 0.334656 709.557 13.5822 692.583C25.1847 678.397 40.1183 667.304 57.0506 660.292C78.5779 650.771 102.175 646.217 124.944 640.421C149.369 634.211 174.208 628.416 197.391 620.136C239.138 605.107 278.789 584.795 315.377 559.694C329.453 550.172 343.114 540.651 356.776 530.301C371.679 519.123 386.582 507.946 401.072 495.94C419.701 480.623 437.503 464.477 455.719 448.746C484.284 424.735 512.848 400.31 548.451 382.508C565.987 373.49 584.856 367.34 604.339 364.293C629.382 360.577 654.952 362.991 678.856 371.331C700.308 379.274 720.628 389.991 739.298 403.208C764.138 420.181 788.976 437.982 814.229 454.542C837.604 469.08 862.991 480.099 889.574 487.247C915.655 494.698 942.151 501.322 968.646 507.946C1002.48 516.72 1034.65 530.985 1063.86 550.172C1087.87 565.49 1111.06 581.635 1135.48 596.953C1155.45 609.398 1177.45 618.226 1200.48 623.034C1246.43 632.141 1287.41 624.276 1322.6 598.195C1339.59 585.73 1353 569.029 1361.52 549.758C1366.22 540.149 1369.17 529.773 1370.21 519.123C1371.73 507.734 1372.42 496.251 1372.28 484.763C1371.79 473.533 1370.69 462.338 1368.97 451.23C1367.73 441.708 1366.9 432.187 1365.66 423.079C1364.42 413.971 1362.35 405.278 1361.1 396.17C1359.86 389.132 1359.45 382.094 1358.62 375.057C1354.48 332.83 1357.38 290.604 1356.14 247.963C1355.83 224.318 1351.34 200.913 1342.89 178.828C1332.4 154.731 1316.54 133.35 1296.52 116.316C1277.67 100.403 1257.91 85.6119 1237.32 72.0195C1205.57 50.3051 1176.64 24.7167 1151.21 -4.15376C1132.58 -26.095 1113.95 -48.0363 1094.91 -69.9775C1080.01 -86.9509 1063.86 -103.51 1048.55 -120.07C1048.13 -120.484 1047.72 -121.312 1047.3 -121.726" stroke="#DFE4E8" stroke-width="1.5" stroke-linecap="round" stroke-linejoin="round"/>
<path d="M-505.547 598.61C-503.891 597.782 -502.649 596.54 -500.993 595.712C-481.122 587.432 -461.25 579.152 -440.965 571.701C-409.916 560.523 -378.867 549.346 -345.334 543.136C-316.355 537.754 -286.963 532.786 -257.984 527.404C-231.489 522.437 -204.993 516.227 -181.81 503.807C-154.487 489.318 -137.927 469.446 -130.062 444.607C-124.266 426.806 -125.094 408.591 -125.508 390.375C-126.415 378.575 -127.934 366.829 -130.062 355.186C-131.718 344.423 -134.202 334.073 -135.858 323.31C-137.1 315.03 -137.513 306.75 -138.341 298.884C-138.755 289.363 -139.998 279.841 -139.584 270.734C-138.782 249.056 -133.123 227.834 -123.024 208.636C-109.803 184.013 -90.9334 162.874 -67.9639 146.952C-51.3462 134.562 -32.3025 125.816 -12.0759 121.285C0.0767617 118.545 12.6728 118.42 24.8775 120.918C37.0822 123.416 48.6161 128.48 58.715 135.774C74.866 147.066 88.6492 161.411 99.2857 178.001C113.849 199.343 125.671 222.431 134.474 246.722C145.238 276.115 155.588 305.508 164.696 335.315C172.975 361.396 180.013 387.891 191.19 413.144C196.911 427.506 205.998 440.284 217.686 450.403C228.378 459.313 241.505 464.795 255.358 466.134C278.955 468.204 300.069 461.995 319.94 453.301C341.548 443.936 361.861 431.831 380.381 417.284C396.113 405.279 411.845 393.687 427.576 381.682C437.512 374.23 446.205 365.536 456.141 358.084C480.152 339.869 504.577 321.654 532.728 307.578C557.887 294.455 585.012 285.507 613.042 281.083C627.815 278.663 642.789 277.693 657.751 278.185C683.626 279.18 709.187 284.208 733.511 293.089C764.56 304.266 791.469 319.998 819.62 335.315C836.179 344.423 853.153 352.289 870.126 360.568C891.272 369.976 913.531 376.654 936.364 380.44C954.165 383.751 971.967 385.821 989.768 388.305C1024.96 393.273 1060.15 398.241 1094.51 406.521C1110.65 410.246 1127.21 413.558 1143.77 416.87C1168.2 421.424 1184.75 413.972 1193.03 395.343C1196.98 385.567 1199.36 375.227 1200.07 364.708C1201.36 355.378 1202.06 345.975 1202.14 336.557C1201.73 320.826 1200.07 305.508 1198.83 289.777C1197.69 275.185 1194.48 260.828 1189.31 247.136C1183.26 229.396 1174.61 212.654 1163.64 197.458C1143.77 168.893 1118.1 143.226 1096.16 115.489C1074.22 87.7521 1053.11 60.015 1031.58 32.278C1009.83 4.05784 986.323 -22.7661 961.203 -48.0351C937.606 -71.6322 913.595 -94.4015 892.482 -119.241C892.068 -119.655 891.654 -120.482 891.24 -120.896" stroke="#DFE4E8" stroke-width="1.5" stroke-linecap="round" stroke-linejoin="round"/>
<path d="M-506.384 575.006C-486.512 566.727 -466.641 558.447 -446.356 550.167C-417.001 537.552 -386.683 527.307 -355.692 519.532C-333.751 514.151 -311.396 510.011 -289.455 505.457C-263.788 500.075 -238.121 494.279 -214.937 482.688C-193.41 471.924 -177.679 457.021 -168.986 437.977C-163.059 424.553 -160.094 410.01 -160.292 395.337C-160.352 379.636 -161.877 363.974 -164.846 348.556C-167.744 334.067 -170.641 319.578 -172.711 305.088C-174.43 293.286 -175.536 281.402 -176.023 269.485C-176.644 260.526 -176.644 251.535 -176.023 242.576C-174.312 227.765 -170.114 213.349 -163.604 199.936C-151.273 176.767 -134.865 156.011 -115.168 138.666C-94.1646 119.063 -70.6344 102.355 -45.2035 88.9878C-30.3837 81.0619 -14.2563 75.873 2.40484 73.6703C20.4917 71.6785 38.7453 75.4452 54.5664 84.4339C75.6796 96.4395 90.1693 113.413 103.417 130.8C117.902 150.477 130.123 171.725 139.848 194.14C154.751 226.431 166.757 259.55 178.349 292.668C185.8 313.782 193.665 334.895 202.359 355.594C208.659 372.365 217.605 388.018 228.855 401.961C237.959 413.447 250.395 421.835 264.457 425.972C273.334 428.472 282.597 429.314 291.78 428.456C320.345 425.144 343.529 413.552 365.47 399.477C380.373 389.955 394.448 379.191 408.524 368.842C421.357 359.32 433.777 349.384 446.197 339.863C470.809 320.489 496.979 303.181 524.44 288.115C551.909 273.456 581.533 263.255 612.204 257.894C621.726 256.238 631.248 255.41 640.77 254.582C648.463 253.687 656.215 253.41 663.953 253.754C690.767 254.454 717.365 258.771 743.024 266.587C774.901 276.109 803.052 290.599 832.031 304.674C858.526 317.508 885.435 329.513 915.656 336.551C930.77 340.244 946.126 342.872 961.609 344.417C973.614 345.245 986.034 346.487 998.039 347.315C1017.08 348.143 1036.13 348.556 1055.17 348.142C1071.51 348.145 1087.69 344.908 1102.78 338.621C1110.75 335.165 1117.79 329.877 1123.32 323.187C1128.86 316.497 1132.75 308.593 1134.65 300.12C1137.4 290.011 1138.1 279.456 1136.72 269.071C1135.22 258.51 1132.73 248.114 1129.27 238.022C1123.84 222.192 1116.32 207.156 1106.92 193.312C1097.81 179.236 1087.46 165.575 1077.52 151.499C1062.62 130.8 1047.3 110.101 1032.81 89.4017C1006.32 50.901 978.582 12.8144 944.221 -21.5463C923.936 -42.2456 902.823 -62.5309 882.951 -83.2301C870.946 -95.6497 860.182 -108.897 849.005 -122.145" stroke="#DFE4E8" stroke-width="1.5" stroke-linecap="round" stroke-linejoin="round"/>
<path d="M-506.384 664.019C-482.373 656.153 -458.775 647.873 -434.764 640.007C-409.478 631.81 -383.596 625.582 -357.349 621.378C-335.318 617.858 -312.983 616.609 -290.697 617.652C-275.794 618.48 -261.304 620.136 -246.401 621.792C-209.142 626.346 -173.953 636.696 -137.522 643.733C-115.054 648.704 -91.5654 645.932 -70.8715 635.867C-53.0701 627.174 -34.8543 618.48 -16.639 609.786C3.89171 600.15 26.5735 596.013 49.1842 597.781C66.5716 599.023 83.9594 602.749 101.347 603.991C117.343 604.819 133.373 604.819 149.369 603.991C167.019 602.981 184.508 600.066 201.531 595.297C217.98 591.153 234.046 585.613 249.554 578.738C276.987 566.562 303.305 552.018 328.211 535.269C338.147 528.645 348.082 522.022 357.603 514.984C370.851 505.048 384.512 495.113 396.932 484.349C417.217 467.376 437.089 449.574 457.374 432.601C483.869 411.074 509.95 388.718 542.241 371.745C562.772 360.394 585.232 352.954 608.479 349.804C634.242 346.435 660.435 348.983 685.066 357.255C708.396 366.003 730.515 377.688 750.889 392.03C772.002 406.52 792.702 421.423 814.229 435.085C837.518 449.983 862.918 461.287 889.574 468.617C918.139 476.483 947.533 482.693 976.098 490.145C1011.34 499.036 1044.8 513.876 1075.04 534.027C1096.98 548.517 1118.51 563.834 1140.86 577.91C1160.72 591.033 1182.93 600.172 1206.27 604.819C1250.98 612.684 1289.07 603.577 1318.88 575.012C1334.92 559.726 1345.66 539.706 1349.51 517.882C1352.46 504.432 1353.58 490.646 1352.82 476.897C1352 464.478 1349.93 452.058 1348.27 439.638C1346.61 428.047 1345.37 416.869 1343.72 405.278C1342.47 396.17 1340.4 386.648 1339.16 377.541C1337.9 369.032 1337.08 360.466 1336.68 351.874C1335.85 329.518 1335.02 307.577 1334.19 285.222C1333.78 274.872 1333.78 264.937 1332.95 254.587C1331.71 243.41 1330.05 232.232 1328.4 220.64C1326.46 207.62 1322.7 194.938 1317.22 182.968C1307.78 162.048 1293.94 143.409 1276.65 128.322C1263.82 117.144 1250.16 105.966 1236.49 95.6167C1225.32 86.5091 1212.9 78.6434 1201.72 69.5357C1176.07 48.9825 1152.5 25.9653 1131.34 0.814151C1104.02 -32.3047 1076.7 -65.0095 1046.48 -96.4724C1038.2 -105.166 1029.5 -114.274 1020.81 -122.967" stroke="#DFE4E8" stroke-width="1.5" stroke-linecap="round" stroke-linejoin="round"/>
<path d="M1241.01 -122.145C1253.76 -103.022 1268.92 -85.628 1286.13 -70.3966C1302.07 -56.4245 1318.95 -43.5609 1336.64 -31.896C1359.22 -17.1653 1380.92 -1.13063 1401.64 16.1263C1422.08 34.0211 1440.29 54.3148 1455.87 76.5682C1469.28 95.8358 1480.52 116.522 1489.4 138.252C1496.18 154.323 1501.04 171.136 1503.89 188.344C1505.55 199.936 1507.2 211.527 1508.44 223.119C1509.27 231.399 1509.27 240.092 1509.69 248.786C1510.1 269.899 1510.1 291.427 1510.93 312.54C1511.34 322.475 1513.41 332.411 1514.24 342.761C1515.7 355.203 1519.05 367.349 1524.18 378.777C1532.87 399.063 1549.01 415.208 1573.03 425.558C1587.95 431.307 1603.52 435.2 1619.39 437.149C1648.79 442.117 1677.76 447.913 1704.26 459.918C1726.13 469.52 1745.62 483.792 1761.39 501.731C1772.55 514.701 1782.66 528.545 1791.61 543.129C1801.13 559.275 1810.24 575.834 1819.76 592.394L1847.08 638.346C1853.73 647.794 1858.38 658.5 1860.75 669.809C1861.2 675.084 1860.19 680.381 1857.85 685.126C1853.13 696.211 1847.74 706.995 1841.7 717.417C1829.63 737.713 1820.43 759.588 1814.38 782.413C1811.07 795.247 1807.76 808.494 1805.27 821.328C1803.2 833.333 1801.96 845.339 1800.3 857.344C1798.23 871.834 1796.16 885.909 1794.51 900.399C1793.27 908.679 1793.27 917.372 1792.02 926.066C1790.78 935.587 1789.13 945.109 1787.47 954.631C1786.23 962.082 1785.4 969.12 1783.74 976.572C1782 988.414 1779.65 1000.16 1776.71 1011.76C1771.74 1029.15 1765.94 1046.12 1759.32 1063.09C1746.32 1094.57 1727.18 1123.14 1703.02 1147.13C1689.36 1161.21 1674.87 1174.87 1661.2 1188.95C1652.46 1196.81 1646.14 1207.01 1642.99 1218.34C1640.92 1227.86 1644.23 1235.73 1648.37 1244.01C1654.58 1255.18 1664.52 1263.88 1674.04 1272.99C1678.59 1277.13 1683.15 1281.26 1688.11 1284.99C1689.77 1286.23 1691.84 1287.06 1693.91 1288.3" stroke="#DFE4E8" stroke-width="1.5" stroke-linecap="round" stroke-linejoin="round"/>
<path d="M1286.14 -122.145C1304.01 -99.9709 1325.08 -80.5775 1348.65 -64.6008C1371.01 -48.8694 1393.36 -33.138 1414.89 -16.1646C1437.45 2.08534 1457.5 23.2448 1474.5 46.7612C1488.38 65.3096 1500.7 84.9717 1511.35 105.547C1522.66 126.993 1531.15 149.814 1536.6 173.441C1539.5 187.93 1541.57 202.834 1543.64 217.323C1544.88 226.845 1545.29 236.366 1546.12 245.888C1547.36 259.136 1548.19 272.797 1549.85 286.045C1551.24 303.219 1555.15 320.096 1561.44 336.137C1571.38 359.734 1590.42 377.535 1618.57 388.299C1638.44 395.751 1658.73 402.374 1679.01 409.412C1706.15 417.828 1731.94 430.097 1755.6 445.843C1777.49 461.425 1797.25 479.795 1814.38 500.489C1830.12 518.29 1845.02 536.92 1864.89 552.237C1880.3 564.458 1898.78 572.193 1918.29 574.592C1928.76 575.627 1939.3 575.627 1949.76 574.592C1961.35 573.764 1972.94 572.108 1984.53 570.452" stroke="#DFE4E8" stroke-width="1.5" stroke-linecap="round" stroke-linejoin="round"/>
<path d="M1349.49 -121.315C1358.59 -113.863 1367.7 -106.411 1377.64 -99.7873C1397.51 -85.7118 1418.62 -72.8783 1437.66 -58.3888C1459.61 -42.2434 1475.75 -21.9582 1490.65 -1.67288C1501.83 14.0586 1512.6 30.204 1522.53 46.3494C1539.15 71.9313 1553.15 99.1143 1564.34 127.491C1570.45 142.525 1574.75 158.227 1577.18 174.271C1579.25 188.346 1581.32 202.008 1582.97 216.083C1584.22 226.433 1585.04 236.369 1586.7 246.718C1588.51 265.426 1592.83 283.806 1599.53 301.364C1609.47 324.547 1627.27 343.177 1652.94 356.424C1667.84 363.876 1683.57 370.914 1698.89 377.952C1729.11 391.613 1758.5 405.689 1783.76 424.732C1801.63 438.42 1818.51 453.361 1834.26 469.442C1847.51 482.276 1860.76 495.109 1875.25 506.701C1893.31 521.472 1914.81 531.44 1937.76 535.68C1953.33 538.458 1969.15 539.568 1984.95 538.992" stroke="#DFE4E8" stroke-width="1.5" stroke-linecap="round" stroke-linejoin="round"/>
<path d="M-25.3658 329.928C-23.2959 336.965 -21.2265 344.003 -18.7426 350.627C-16.3606 358.065 -11.9087 364.671 -5.90868 369.67C-2.65261 372.398 1.16311 374.377 5.26872 375.466C8.00319 375.83 10.7846 375.399 13.2806 374.224C15.7766 373.05 17.8823 371.181 19.3448 368.842C22.1402 365.057 23.985 360.656 24.7258 356.009C27.9844 338.28 24.1171 319.982 13.9628 305.089C10.5135 299.76 5.42955 295.692 -0.526673 293.497C-3.50616 292.669 -6.65466 292.669 -9.63414 293.497C-13.2142 294.545 -16.4301 296.574 -18.9175 299.354C-21.4048 302.134 -23.0651 305.554 -23.7102 309.228C-24.5382 315.852 -24.5384 322.89 -24.9524 329.514" stroke="#DFE4E8" stroke-width="1.5" stroke-linecap="round" stroke-linejoin="round"/>
</g>
<circle cx="1238.7" cy="302.799" r="4.53943" fill="#392D58"/>
<circle cx="1324.82" cy="204.373" r="4.53943" fill="#392D58"/>
<circle cx="535.461" cy="340.645" r="4.53943" fill="#392D58"/>
<circle cx="114.122" cy="202.471" r="4.53943" fill="#392D58"/>
<circle cx="1286.14" cy="37.8656" r="4.53943" fill="#392D58"/>
</g>
<defs>
<clipPath id="clip0_1497_9712">
<rect width="1440" height="365" fill="white"/>
</clipPath>
</defs>
</svg>
