<svg width="390" height="319" viewBox="0 0 390 319" fill="none" xmlns="http://www.w3.org/2000/svg">
<g clip-path="url(#clip0_1147_31218)">
<path d="M353.042 -49.875C355.866 -46.0684 358.567 -42.2618 361.514 -38.578C365.632 -33.6489 370.333 -29.2371 375.513 -25.4392C380.425 -21.7554 385.582 -18.3171 390.616 -14.8789C401.545 -7.51134 411.614 0.715794 418.859 10.662C423.132 16.4494 426.64 22.764 429.296 29.4494C430.961 33.9248 432.275 38.523 433.226 43.2023C433.843 46.6918 434.212 50.2207 434.331 53.7625C434.576 56.5867 434.699 59.5338 434.699 62.358C434.699 66.4102 434.453 70.4624 434.331 74.6373C434.208 79.0579 433.84 83.4784 434.085 88.0218C434.454 95.021 435.436 102.02 438.383 108.651C440.594 114.174 444.291 118.977 449.066 122.527C453.077 125.339 457.803 126.957 462.696 127.193C467.485 127.561 472.396 127.684 477.185 128.052C482.652 128.366 488.037 129.525 493.149 131.491C495.589 132.454 497.932 133.646 500.148 135.052C505.724 138.698 510.151 143.849 512.918 149.91C515.123 154.337 516.536 159.116 517.093 164.031C517.481 166.674 517.686 169.341 517.707 172.012C517.584 175.328 517.093 178.52 516.725 181.713C516.357 184.66 515.865 187.607 515.743 190.677C515.497 194.975 515.374 199.395 515.374 203.693C515.521 205.967 515.849 208.225 516.357 210.447C516.602 212.289 516.848 214.253 517.093 216.095C517.462 218.305 517.83 220.638 518.076 222.849L518.444 226.164C518.567 228.006 518.567 229.848 518.812 231.69C519.795 239.794 519.549 248.021 519.426 256.126C519.282 259.701 518.954 263.267 518.444 266.809C518.198 268.773 518.076 270.738 517.707 272.703C517.339 275.404 516.971 278.228 516.357 280.93C515.137 286.494 513.368 291.924 511.076 297.139C507.838 304.462 503.161 311.059 497.324 316.54C492.721 320.799 487.399 324.208 481.606 326.609C477.248 328.538 472.486 329.38 467.73 329.065C463.487 328.808 459.383 327.454 455.82 325.136C448.206 320.224 443.295 313.838 439.365 306.839C436.494 301.744 434.188 296.35 432.489 290.753C431.382 286.716 430.521 282.615 429.91 278.474C428.973 273.622 428.643 268.672 428.928 263.739C429.073 260.978 429.401 258.229 429.91 255.512C430.458 252.238 431.196 248.999 432.12 245.811C434.441 238.529 437.879 231.653 442.312 225.427C445.75 220.516 449.434 215.727 452.995 210.938C455.697 207.254 458.275 203.57 459.258 199.395C460.854 193.133 459.258 187.484 453.609 182.573C451.618 180.794 449.276 179.456 446.733 178.643C444.153 177.841 441.434 177.59 438.751 177.906C433.314 178.774 428.075 180.604 423.279 183.309C413.701 188.098 404.246 193.133 393.932 197.062C385.509 200.228 376.787 202.532 367.899 203.939C361.282 204.983 354.576 205.353 347.884 205.044C342.188 204.739 336.523 204 330.939 202.833C323.31 201.102 315.866 198.635 308.713 195.466C303.187 193.01 297.785 190.431 292.505 187.73C283.049 183.064 273.594 178.643 263.525 174.837C255.544 171.89 247.317 169.065 239.458 165.873C232.132 162.93 225.135 159.226 218.583 154.821C209.988 149.173 202.62 142.665 194.638 136.525C190.286 133.018 185.446 130.164 180.272 128.052C176.441 126.558 172.348 125.848 168.238 125.965C163.289 126.212 158.442 127.466 153.994 129.649C148.122 132.545 142.566 136.043 137.417 140.086C134.347 142.419 131.277 144.875 128.33 147.331C121.454 153.102 114.7 158.873 107.946 164.645C104.262 167.837 100.456 171.03 96.7722 174.1C89.4046 180.239 82.0369 186.379 74.5465 192.396C65.7054 199.395 56.4959 206.026 47.7776 213.025C40.1147 219.141 33.3375 226.29 27.6396 234.269C22.5939 241.371 18.3908 249.035 15.1147 257.108C13.3712 261.181 12.2135 265.481 11.6765 269.879C11.289 272.439 11.0838 275.025 11.0625 277.615C11.2211 281.641 12.0082 285.619 13.3955 289.403C16.8337 298.858 22.9734 307.085 30.7094 314.575C35.6527 319.552 41.4293 323.625 47.7776 326.609C52.3415 328.659 57.266 329.786 62.2672 329.924C68.4857 329.945 74.6657 328.949 80.5633 326.977C87.9309 324.644 95.0531 322.188 102.298 319.61C110.893 316.54 119.489 313.225 128.453 310.892C132.799 309.737 137.235 308.956 141.714 308.558C151.047 307.576 159.765 309.295 168.238 312.365C178.211 316.017 187.898 320.409 197.217 325.504C203.9 328.997 210.341 332.935 216.496 337.292C224.654 342.992 232.005 349.765 238.353 357.43C241.054 360.623 243.387 364.061 245.966 367.499C246.356 367.971 246.81 368.384 247.317 368.727" stroke="#DFE4E8" stroke-linecap="round" stroke-linejoin="round"/>
<path d="M321.606 -49.875C323.94 -46.928 326.15 -44.1037 328.483 -41.2795C333.64 -35.1398 338.675 -29.0002 344.078 -22.9833C349.171 -17.3384 354.946 -12.3476 361.269 -8.12531C367.408 -3.95034 373.671 0.101811 379.688 4.39957C388.897 10.7848 396.633 18.2752 401.79 27.2391C404.593 32.0501 406.623 37.2709 407.807 42.7111C408.741 46.6532 409.195 50.6938 409.158 54.7448C409.158 56.2183 409.526 57.569 409.404 59.0425C409.281 63.0947 409.035 67.1469 408.79 71.3219C408.544 74.5145 408.298 77.8299 408.176 81.0226C407.93 85.8115 407.807 90.6004 407.807 95.5121C407.93 98.8276 408.421 102.143 408.79 105.458C409.158 108.283 409.404 111.107 409.772 113.808C410.14 116.264 410.632 118.72 411 121.053C411.246 122.895 411.737 124.737 411.859 126.579C412.309 130.409 412.514 134.265 412.473 138.121C412.105 149.541 407.685 159.979 398.23 168.82C392.39 174.287 385.553 178.581 378.091 181.467C372.914 183.554 367.448 184.837 361.883 185.274C359.031 185.621 356.16 185.785 353.287 185.765C346.429 185.538 339.643 184.297 333.149 182.081C323.08 178.766 314.484 173.486 305.889 168.206C297.293 162.926 288.575 157.277 278.506 153.716C274.086 152.12 269.419 150.646 264.876 149.296C256.158 146.717 247.44 144.384 239.212 140.946C233.156 138.477 227.391 135.347 222.021 131.613C216.496 127.684 211.093 123.386 205.567 119.457C200.287 115.65 195.129 111.844 188.621 109.142C183.677 107.022 178.357 105.919 172.978 105.897C167.598 105.876 162.27 106.938 157.309 109.019C153.124 110.803 149.098 112.939 145.276 115.405C141.671 117.619 138.225 120.081 134.961 122.772C130.417 126.456 126.242 130.263 121.822 134.069C120.226 135.42 118.752 136.771 117.156 137.999C107.578 145.857 98.1228 153.839 88.2993 161.452C80.3856 167.698 72.0575 173.401 63.3722 178.52C53.426 184.292 43.3572 189.94 33.5337 195.711C24.4058 201.051 16.4994 208.246 10.3256 216.832C5.65949 223.463 1.60726 230.462 -2.32213 237.338C-6.98827 245.443 -11.6543 253.424 -16.0749 261.529C-17.9018 264.79 -19.2264 268.309 -20.0042 271.966C-21.1322 277.396 -20.306 283.049 -17.6713 287.929C-14.1491 294.737 -9.86459 301.122 -4.9006 306.962C1.97582 315.435 8.85224 323.907 15.9742 332.257C20.3948 337.415 25.0608 342.449 29.9725 347.361C34.314 351.744 39.4922 355.21 45.1991 357.553C48.5677 358.903 52.1351 359.691 55.7591 359.886C62.8259 360.238 69.8803 358.978 76.3884 356.202C85.2296 352.764 93.9479 349.203 102.789 345.642C111.505 342.202 120.56 339.691 129.803 338.151C136.469 337.171 143.222 336.924 149.941 337.415C157.914 337.923 165.771 339.578 173.272 342.326C180.235 344.719 186.941 347.804 193.288 351.536C200.844 356.012 207.78 361.462 213.917 367.745C214.407 368.17 214.943 368.54 215.513 368.85" stroke="#DFE4E8" stroke-linecap="round" stroke-linejoin="round"/>
<path d="M341.376 -49.7578C346.636 -41.6968 352.772 -34.2429 359.672 -27.5322C364.493 -22.9812 369.712 -18.8716 375.267 -15.2529C380.67 -11.6919 385.827 -7.8853 391.107 -4.3243C397.739 0.260051 403.727 5.71132 408.912 11.8844C414.378 18.2887 418.511 25.7196 421.069 33.7416C422.174 37.5482 423.279 41.3548 424.138 45.1614C424.63 47.74 424.63 50.3187 424.875 52.8973C424.998 54.862 425.244 56.9495 425.244 58.9142C425.244 61.7385 425.121 64.5627 424.875 67.3869C424.752 70.334 424.507 73.4038 424.138 76.3508C423.505 82.14 423.3 87.9681 423.524 93.7875C423.647 96.9801 424.138 100.173 424.507 103.365C425.366 111.101 427.945 118.592 430.155 126.082C431.383 129.889 432.488 133.695 433.348 137.625C434.852 143.883 433.884 150.481 430.646 156.044C427.258 161.539 423.126 166.539 418.367 170.902C411.825 177.159 404.424 182.452 396.387 186.619C386.845 191.9 376.386 195.318 365.566 196.688C362.496 197.057 359.426 197.425 356.234 197.548C353.003 197.732 349.764 197.732 346.533 197.548C342.075 197.06 337.647 196.323 333.271 195.337C324.616 193.316 316.272 190.136 308.467 185.882L286.364 174.094C278.557 170.027 270.425 166.618 262.051 163.902C254.438 161.324 246.58 158.745 239.212 155.921C231.429 152.941 224.078 148.935 217.355 144.01C211.583 139.712 205.935 135.292 200.286 130.994C196.089 127.629 191.611 124.63 186.902 122.03C181.354 119.084 175.13 117.644 168.851 117.855C165.615 117.998 162.422 118.661 159.396 119.82C152.849 122.066 146.742 125.431 141.346 129.766C137.293 132.836 133.241 135.783 129.435 138.975C123.172 144.133 117.155 149.536 111.016 154.816C109.297 156.289 107.455 157.886 105.613 159.359C102.666 161.815 99.7189 164.271 96.7718 166.604C92.4741 170.165 88.1761 173.849 83.6327 177.287C77.0019 182.321 70.1255 187.233 63.3718 192.145C58.2145 195.829 52.9346 199.39 47.9001 203.196C43.7251 206.266 39.5501 209.336 35.6207 212.651C30.0878 217.372 25.1774 222.778 21.0082 228.737C18.1839 232.789 15.4825 236.842 13.0266 241.139C8.32093 248.913 4.60819 257.246 1.97522 265.944C0.569596 270.931 0.0705699 276.129 0.501765 281.293C1.13403 286.751 2.88996 292.019 5.65902 296.765C9.30493 303.374 13.6258 309.588 18.5523 315.306C22.7594 320.17 27.2277 324.802 31.937 329.182C35.9236 332.868 40.3834 336.006 45.1987 338.514C49.7856 340.899 54.8871 342.121 60.0565 342.075C66.7749 342.052 73.4328 340.804 79.7034 338.392C86.2114 336.181 92.5966 333.725 98.9819 331.392C106.768 328.396 114.723 325.854 122.804 323.779C128.244 322.391 133.788 321.447 139.381 320.955C144.454 320.608 149.548 320.69 154.607 321.2C164.554 322.306 173.64 325.375 182.481 328.936C191.979 332.736 201.036 337.553 209.496 343.303C216.976 348.357 223.748 354.386 229.634 361.231C231.476 363.319 233.195 365.529 235.037 367.739C235.341 368.014 235.67 368.26 236.019 368.476" stroke="#DFE4E8" stroke-linecap="round" stroke-linejoin="round"/>
<path d="M330.078 -49.7578C334.867 -43.6182 339.656 -37.6013 344.568 -31.4616C350.43 -24.381 357.201 -18.1053 364.706 -12.7971C370.109 -8.86768 376.003 -5.30666 381.529 -1.50007C390.001 4.27122 397.615 10.5337 403.386 18.1469C410.558 27.7077 414.821 39.1335 415.665 51.0554C415.788 55.3532 416.033 59.5282 415.911 63.826C415.911 67.0186 415.542 70.0884 415.297 73.281C415.051 76.228 414.683 79.0523 414.683 81.9993C414.437 87.1567 414.314 92.314 414.314 97.3485C414.46 100.272 414.788 103.184 415.297 106.067C415.665 109.259 416.156 112.452 416.648 115.645C417.139 118.346 417.753 121.17 418.121 123.872C418.489 126.573 419.103 129.275 419.349 131.976C419.595 135.046 419.717 138.239 419.717 141.308C419.558 147.096 417.954 152.753 415.051 157.763C411.245 164.885 405.35 171.024 398.351 176.305C391.383 181.506 383.516 185.378 375.143 187.724C370.242 189.101 365.229 190.046 360.163 190.549C350.069 191.382 339.912 190.128 330.324 186.865C320.746 183.672 312.519 179.006 304.292 174.217C297.906 170.533 291.521 166.849 285.013 163.411C278.322 160.098 271.333 157.426 264.138 155.43C256.034 152.974 247.929 150.764 240.193 147.571C232.933 144.686 226.048 140.934 219.687 136.397C215.144 133.081 210.723 129.643 206.18 126.205C200.9 122.276 195.742 118.223 189.603 115.031C185.053 112.622 180.057 111.173 174.925 110.772C169.793 110.37 164.633 111.026 159.764 112.698C153.663 114.882 147.914 117.943 142.696 121.784C139.626 124.117 136.31 126.205 133.363 128.661C127.346 133.572 121.575 138.73 115.804 143.764L110.77 148.062C101.56 155.552 92.5961 163.043 83.141 170.288C73.4209 177.683 63.2952 184.529 52.8112 190.794C44.2156 196.074 35.7429 201.354 28.2525 207.617C23.1154 211.944 18.5367 216.894 14.6223 222.352C12.1665 225.79 9.95638 229.351 7.7461 232.912C2.8493 240.874 -1.57884 249.116 -5.51563 257.594C-7.52234 261.8 -9.0862 266.203 -10.1818 270.733C-10.8772 274.294 -10.9602 277.949 -10.4274 281.538C-9.19942 290.625 -4.04205 298.484 1.60644 306.097C5.78141 311.868 10.2017 317.394 14.8679 322.797C20.0252 328.691 25.3055 334.585 31.0768 340.111C35.1663 344.219 40.0002 347.511 45.3206 349.811C48.4433 351.17 51.7566 352.04 55.1441 352.39C62.1433 353.25 68.7742 351.776 75.1595 349.566C83.6322 346.496 91.9821 343.181 100.332 339.988C108.543 336.767 117.003 334.221 125.628 332.375C130.578 331.452 135.581 330.836 140.608 330.533C149.672 330.08 158.75 331.075 167.5 333.48C179.495 336.665 190.898 341.765 201.268 348.583C209.388 353.853 216.742 360.217 223.125 367.494C223.371 367.739 223.862 367.985 224.108 368.23" stroke="#DFE4E8" stroke-linecap="round" stroke-linejoin="round"/>
<path d="M-161.336 178.885C-159.494 178.149 -157.652 177.289 -155.81 176.552C-150.653 174.71 -145.495 172.991 -140.338 171.149C-132.567 168.357 -124.55 166.301 -116.393 165.01C-111.727 164.273 -107.061 163.782 -102.395 163.413C-90.9754 162.308 -79.4327 163.168 -67.8902 162.799C-55.6108 162.431 -44.4368 159.73 -34.8589 153.344C-29.0876 149.538 -24.1757 144.994 -21.1058 139.469C-19.5899 137.003 -18.6266 134.238 -18.2818 131.364C-18.016 128.672 -17.9337 125.964 -18.036 123.26C-18.3111 120.142 -18.887 117.058 -19.7553 114.051C-21.8428 106.315 -24.1759 98.5786 -26.2634 90.8426C-26.9433 87.4753 -27.4352 84.0728 -27.7368 80.6508C-28.0423 79.1152 -28.166 77.5491 -28.1053 75.9847C-27.6141 70.3362 -26.7545 64.6877 -22.8251 59.7759C-20.8717 57.3153 -18.3409 55.375 -15.4575 54.1274C-13.4932 53.3131 -11.3723 52.9458 -9.24861 53.052C-7.12488 53.1581 -5.05145 53.7352 -3.1782 54.7414C0.803251 56.7558 4.12635 59.8659 6.39973 63.7053C10.1925 69.5751 12.8191 76.1205 14.1358 82.9839C15.0004 86.948 15.5748 90.9699 15.8547 95.0176C16.2231 100.666 16.2232 106.315 16.2232 111.963C16.2232 115.033 15.732 118.103 15.6092 121.173C15.364 123.539 15.241 125.916 15.2408 128.295C15.6092 134.68 17.2057 140.819 22.4858 145.977C27.0291 150.52 32.9232 153.099 40.2908 153.713C47.6777 154.146 55.075 153.06 62.0251 150.52C71.7258 147.328 80.1985 142.539 88.4257 137.258C97.144 131.733 104.88 125.225 112.739 118.962C119.738 113.314 126.246 107.42 133.368 101.894C140.165 96.3925 147.737 91.9238 155.839 88.6323C161.578 86.392 167.622 85.0261 173.767 84.5802C183.345 83.8434 192.063 86.0537 200.29 89.7375C207.535 92.9301 213.798 97.2279 220.183 101.526C228.287 107.051 236.637 112.577 246.338 116.261C252.3 118.464 258.415 120.229 264.634 121.541C272.861 123.383 281.334 124.856 289.315 127.435C296.733 129.837 303.796 133.224 310.313 137.504C316.944 141.925 323.452 146.468 330.205 150.766C334.884 153.823 340.026 156.104 345.432 157.519C353.536 159.607 361.395 158.993 368.517 154.941C372.821 152.616 376.296 149.011 378.463 144.626C380.42 140.906 381.511 136.793 381.656 132.592C381.656 130.873 382.024 129.154 381.901 127.558C381.656 124.242 381.287 120.927 380.919 117.612C380.551 114.296 380.059 110.981 379.568 107.665C379.2 105.209 378.586 102.754 378.218 100.421C377.849 98.4558 377.726 96.3683 377.481 94.4036C377.112 91.825 376.744 89.1235 376.498 86.5449C376.376 84.9486 376.253 83.475 376.13 81.8787C376.007 79.3001 376.007 76.8442 375.762 74.2656C375.516 70.7046 375.148 67.1435 374.656 63.5825C374.21 59.6131 373.513 55.6758 372.569 51.7944C371.665 48.4687 370.388 45.2558 368.763 42.2165C365.37 36.0484 360.827 30.5879 355.378 26.1306C350.712 22.2012 346.046 18.3946 341.38 14.4652C334.415 8.64583 327.965 2.23685 322.101 -4.6905C317.19 -10.5846 312.4 -16.7242 307.243 -22.4955C299.998 -30.4771 292.508 -38.3358 285.017 -46.1946C283.912 -47.2997 282.807 -48.5277 281.702 -49.6328" stroke="#DFE4E8" stroke-linecap="round" stroke-linejoin="round"/>
<path d="M-161.586 173.726C-157.165 172.13 -152.745 170.41 -148.324 168.814C-137.518 164.762 -126.467 161.078 -114.679 159.113C-109.767 158.254 -104.732 157.64 -99.698 157.026C-95.4002 156.535 -91.1025 156.289 -86.8047 155.921C-78.0864 155.184 -69.3682 154.447 -60.8955 152.237C-51.8088 149.781 -44.1957 145.606 -38.5472 139.344C-35.0681 135.456 -32.6935 130.707 -31.6707 125.591C-30.9559 121.414 -30.7909 117.162 -31.1796 112.943C-31.5534 109.021 -32.1685 105.125 -33.0215 101.278L-34.8634 91.7C-35.3546 89.3669 -35.8456 87.0338 -36.2139 84.7008C-36.3367 83.8412 -36.4596 82.8588 -36.5824 81.9993C-36.9096 78.284 -36.9916 74.5512 -36.8279 70.8251C-36.577 65.1726 -34.8863 59.6778 -31.9162 54.862C-28.3552 49.2135 -23.5663 44.4246 -15.7075 42.2143C-12.6763 41.3203 -9.47873 41.1433 -6.36734 41.6974C-3.25595 42.2514 -0.315857 43.5214 2.22039 45.4069C7.74608 49.3363 11.1842 54.3708 14.1313 59.6509C16.9014 64.6788 19.1243 69.9893 20.762 75.4913C22.2355 80.5258 23.3406 85.6831 24.4458 90.7176C25.1825 93.7875 25.6739 96.8573 26.1651 99.9271C26.5334 102.26 26.5333 104.47 26.9016 106.804C27.27 109.751 27.7613 112.82 28.2525 115.767C28.8665 119.083 29.4804 122.521 30.3399 125.836C31.4517 130.373 33.8881 134.477 37.3391 137.625C40.8941 140.806 45.3639 142.783 50.1097 143.273C56.6178 144.01 62.6347 142.659 68.5287 140.817C76.4757 138.092 84.0304 134.335 90.9996 129.643C98.2304 124.864 105.199 119.699 111.874 114.171C118.996 108.4 125.873 102.383 133.118 96.7345C139.991 91.2438 147.648 86.8149 155.835 83.5956C162.974 81.0151 170.473 79.565 178.06 79.2978C182.648 79.3367 187.218 79.872 191.69 80.8942C200.356 83.1793 208.604 86.8267 216.126 91.7C222.02 95.3837 227.792 99.0675 233.686 102.629C242.321 107.763 251.736 111.455 261.56 113.557C269.541 115.153 277.523 116.75 285.504 118.592C292.73 120.152 299.74 122.585 306.379 125.836C313.02 129.288 319.42 133.185 325.535 137.502C330.609 141.151 336.09 144.201 341.866 146.589C345.003 147.821 348.323 148.526 351.69 148.676C355.763 148.875 359.797 147.802 363.232 145.606C367.613 142.583 370.615 137.947 371.582 132.713C372.279 128.659 372.485 124.536 372.196 120.434C371.927 117.218 371.476 114.02 370.846 110.856C370.477 108.277 370.231 105.698 369.74 103.12C369.249 100.541 368.758 97.8396 368.39 95.1382C368.144 93.1735 367.898 91.086 367.653 89.1213C367.284 86.1743 366.916 83.35 366.67 80.403C366.548 79.1751 366.425 78.0699 366.302 76.842C365.688 72.2986 365.197 67.7553 364.583 63.212C363.921 58.5206 362.641 53.9374 360.777 49.5819C357.526 42.4091 352.846 35.9747 347.023 30.6718C340.393 24.2865 333.394 18.1468 327.131 11.6388C321.483 5.86753 316.448 -0.272141 311.413 -6.28901C304.046 -15.2529 296.924 -24.2168 288.574 -32.6895C283.048 -38.338 277.523 -43.9865 271.997 -49.7578" stroke="#DFE4E8" stroke-linecap="round" stroke-linejoin="round"/>
<path d="M428.057 368.727C429.039 367.499 430.144 366.271 431.126 365.043C433.705 361.85 436.284 358.658 438.74 355.465C440.89 352.813 442.137 349.543 442.3 346.133C442.21 343.668 441.626 341.246 440.581 339.011C438.74 334.959 436.529 331.152 434.442 327.223C427.53 315.03 422.363 301.927 419.093 288.297C418.479 285.473 417.865 282.649 417.496 279.825C417.005 276.141 416.76 272.457 416.391 268.773C416.064 266.496 415.982 264.191 416.146 261.897C416.391 258.09 417.128 254.161 417.496 250.354C418.16 245.262 419.311 240.245 420.935 235.373C421.794 232.304 423.145 229.479 424.127 226.41C425.846 221.375 427.688 216.463 429.039 211.429C429.899 208.113 429.899 204.798 427.197 201.851C425.404 199.92 422.948 198.736 420.321 198.535C415.9 197.921 411.848 199.027 407.796 200.009C399.814 201.974 392.078 204.307 384.097 206.394C376.697 208.451 369.14 209.888 361.503 210.692C357.942 211.06 354.258 211.306 350.697 211.552C348.118 211.674 345.417 211.92 342.715 211.797C335.479 211.538 328.284 210.592 321.227 208.973C315.578 207.622 310.052 205.903 304.649 204.061C294.212 200.5 284.511 195.588 274.442 191.413C265.355 187.607 256.023 184.169 246.691 180.608C235.149 176.187 223.974 171.275 214.151 164.767C208.2 160.86 202.461 156.638 196.96 152.12C193.767 149.418 190.574 146.717 187.259 144.138C182.868 140.591 177.987 137.696 172.769 135.543C167.207 133.381 161.103 133.037 155.333 134.56C149.488 136.071 143.959 138.607 139.001 142.051C130.406 147.453 123.038 153.962 115.425 160.101C110.882 163.785 106.584 167.714 102.163 171.521C97.3743 175.696 92.4628 179.871 87.6738 184.169C76.1313 194.361 63.7291 203.938 51.6954 213.762C44.6223 219.324 38.1599 225.622 32.4169 232.549C26.0729 240.195 21.0131 248.821 17.4359 258.09C15.9247 261.783 14.9331 265.667 14.489 269.633C14.3662 271.475 13.875 273.317 13.875 275.158C13.907 283.142 16.3462 290.931 20.8742 297.507C23.5014 301.39 26.5942 304.936 30.0836 308.067C34.1572 311.682 38.7523 314.662 43.7138 316.908C47.5633 318.591 51.6773 319.589 55.8702 319.855C63.9746 320.469 71.465 318.627 78.9554 316.417C87.9622 313.561 96.8153 310.242 105.479 306.471C110.391 304.506 115.302 302.419 120.337 300.454C125.736 298.254 131.386 296.728 137.159 295.911C143.77 295.112 150.476 295.956 156.684 298.366C164.297 301.191 170.927 305.12 177.681 308.927C186.277 313.838 194.872 318.873 203.345 324.03C207.888 326.854 212.186 329.924 216.484 332.994C225.227 339.274 233.039 346.756 239.692 355.22C242.884 359.149 245.586 363.324 248.533 367.376C248.897 367.755 249.226 368.166 249.515 368.604" stroke="#DFE4E8" stroke-linecap="round" stroke-linejoin="round"/>
<path d="M-161.586 168.816C-157.043 167.097 -152.499 165.255 -147.956 163.659C-139.388 160.353 -130.659 157.484 -121.801 155.063C-115.17 153.467 -108.416 152.239 -101.663 151.257C-92.6989 150.029 -83.735 148.924 -75.0167 147.328C-65.93 145.731 -57.5801 142.539 -51.072 136.89C-46.6823 133.189 -43.4792 128.278 -41.8626 122.769C-40.2662 117.489 -40.5118 112.086 -40.6346 106.683C-40.9044 103.711 -41.3553 100.759 -41.9852 97.8418C-42.3535 95.5088 -42.5992 93.0529 -42.9676 90.7198C-43.336 88.3868 -43.8271 85.8081 -44.1955 83.475C-44.4191 82.4209 -44.5832 81.355 -44.6869 80.2824C-45.013 76.0338 -45.0949 71.7699 -44.9324 67.5119C-44.4169 60.2404 -41.8635 53.2612 -37.5648 47.3738C-33.0532 40.8561 -26.6113 35.9173 -19.1458 33.2526C-15.4351 31.8351 -11.441 31.3187 -7.49185 31.7456C-3.54265 32.1725 0.248907 33.5307 3.57094 35.7085C9.46501 39.515 13.2716 44.5496 16.4642 49.8297C20.0688 55.5964 22.9553 61.7819 25.0597 68.2487C26.7789 73.2832 28.2524 78.3177 29.726 83.3522C30.9539 87.8956 32.0591 92.5617 33.1642 97.1051C34.3922 102.14 35.6199 107.174 36.9706 112.209C38.1797 117.091 40.3507 121.683 43.3561 125.716C46.5227 129.853 51.1216 132.656 56.2494 133.575C60.629 134.315 65.1188 134.063 69.3882 132.838C77.3366 130.722 84.8855 127.321 91.7365 122.769C101.806 116.506 110.401 109.139 119.242 101.894C126.725 95.5179 134.69 89.7294 143.064 84.5802C151.04 79.7328 159.881 76.48 169.096 75.0023C183.15 72.943 197.495 75.3483 210.109 81.8787C217.231 85.5625 224.107 89.7375 230.984 93.7897C239.952 99.3247 249.73 103.426 259.963 105.946C266.226 107.42 272.734 108.402 279.119 109.507C283.54 110.367 287.96 110.981 292.381 111.963C298.199 113.276 303.906 115.042 309.449 117.243C316.366 120.22 323.092 123.624 329.587 127.435C333.446 129.823 337.566 131.759 341.866 133.206C346.164 134.434 350.462 134.68 354.268 131.856C356.616 130.215 358.277 127.767 358.935 124.979C360.098 121.119 360.35 117.042 359.671 113.068C359.426 111.36 359.303 109.637 359.303 107.911C359.057 104.964 358.566 102.14 358.321 99.1926L357.952 95.5088C357.707 92.5617 357.584 89.4919 357.215 86.5449C356.97 83.8434 356.479 81.2648 356.233 78.5633C355.987 76.2302 355.865 73.7744 355.496 71.4413C355.005 68.3715 354.391 65.1788 353.655 62.109C352.062 55.8099 349.404 49.8295 345.796 44.4268C342.491 39.7416 338.794 35.3461 334.744 31.2879C327.254 23.552 319.518 15.816 312.887 7.46601C306.87 -0.0243726 301.222 -7.63754 295.082 -15.0051C288.574 -22.8639 281.206 -30.2315 273.962 -37.5991C270.032 -41.5285 266.349 -45.7034 262.542 -49.6328" stroke="#DFE4E8" stroke-linecap="round" stroke-linejoin="round"/>
<path d="M-161.586 192.397C-158.393 191.415 -155.201 190.432 -152.131 189.327C-143.497 186.329 -134.624 184.07 -125.607 182.574C-121.954 181.978 -118.257 181.69 -114.556 181.714C-108.171 181.837 -101.908 182.451 -96.1371 184.907C-89.2428 187.444 -83.6352 192.61 -80.5424 199.273C-78.3686 204.541 -76.7233 210.012 -75.6307 215.605C-73.5763 225.137 -69.7886 234.21 -64.4564 242.374C-61.3547 247.065 -57.6378 251.319 -53.405 255.022C-51.4414 256.65 -49.2993 258.051 -47.0198 259.197C-45.2177 260.145 -43.2079 260.63 -41.1715 260.609C-39.1352 260.588 -37.1362 260.06 -35.3544 259.074C-32.0971 257.361 -29.1166 255.167 -26.5134 252.566C-20.8716 246.807 -15.9634 240.373 -11.9008 233.41C-8.46258 227.516 -5.51572 221.499 -1.95471 215.605C1.72908 209.465 5.53586 203.326 11.4299 198.291C17.0415 193.662 23.2849 189.858 29.9715 186.994C36.9707 183.679 44.0928 180.609 51.2148 177.416C59.8371 173.455 68.1312 168.815 76.019 163.541C81.0535 160.225 86.0882 156.664 90.8771 153.103C96.894 148.56 102.911 144.017 108.682 139.228C115.19 133.825 121.575 128.422 127.838 122.896C134.198 117.21 141.062 112.114 148.344 107.67C154.002 104.2 160.243 101.787 166.763 100.548C172.258 99.5646 177.895 99.6898 183.34 100.916C190.085 102.52 196.461 105.396 202.128 109.389C206.671 112.336 210.723 115.651 215.144 118.844C222.047 124.135 229.45 128.742 237.247 132.597C242.635 135.098 248.221 137.152 253.947 138.736C261.683 140.947 269.541 142.911 277.154 145.244C285.286 147.774 293.048 151.366 300.24 155.927C307.607 160.594 314.852 165.383 322.342 169.926C329.084 174.056 336.539 176.888 344.322 178.276C347.288 178.785 350.281 179.113 353.286 179.258C357.277 179.584 361.294 179.294 365.197 178.399C368.749 177.694 372.239 176.708 375.635 175.452C380.608 173.496 385.217 170.714 389.265 167.224C394.938 162.525 399.225 156.37 401.667 149.419C402.841 146.308 403.545 143.038 403.754 139.719C404.019 136.574 404.101 133.417 404 130.264C403.754 126.211 403.263 122.282 402.649 118.353C402.035 114.055 401.176 109.757 400.685 105.459C400.316 102.39 400.07 99.3198 399.948 96.25C399.702 89.8647 399.579 83.4795 399.579 77.0942C399.702 70.095 400.07 62.973 400.193 55.9738C400.11 51.3172 399.408 46.6925 398.106 42.2209C396.952 37.7957 395.13 33.5722 392.703 29.696C390.164 25.5636 387.065 21.803 383.493 18.5218C377.231 12.7505 369.986 7.83884 362.619 2.92711C352.024 -3.89121 342.435 -12.1575 334.13 -21.6315C328.113 -28.6307 322.342 -35.63 316.325 -42.6292C314.361 -44.9623 312.273 -47.1725 310.309 -49.3828" stroke="#DFE4E8" stroke-linecap="round" stroke-linejoin="round"/>
<path d="M-161.586 187.235C-152.622 184.288 -143.781 181.341 -134.694 178.64C-128.687 176.87 -122.516 175.718 -116.275 175.202C-111.118 174.833 -105.961 175.079 -100.803 175.202C-96.4796 175.397 -92.1935 176.098 -88.0326 177.289C-82.3742 178.665 -77.0366 181.125 -72.3153 184.534C-67.9123 187.819 -64.8217 192.563 -63.5969 197.918C-62.6145 201.97 -62.1234 206.145 -61.5095 210.32C-60.4043 216.583 -58.8081 222.722 -55.1243 228.494C-53.276 231.425 -50.7489 233.868 -47.7567 235.616C-42.5994 238.563 -37.8104 238.44 -32.6531 235.37C-29.1039 233.135 -26.1198 230.109 -23.9346 226.529C-20.0052 220.758 -17.6722 214.495 -15.3391 208.11C-13.2516 202.462 -11.2869 196.936 -7.35754 191.901C-3.91609 187.694 0.513394 184.403 5.53575 182.324C11.921 179.499 18.9201 178.149 25.6737 176.429C32.9185 174.588 40.2861 172.868 47.1625 170.413C59.5453 165.955 71.3063 159.93 82.1586 152.485C86.3336 149.661 90.3857 146.836 94.4379 143.766C98.8585 140.451 103.279 137.136 107.577 133.575C113.102 129.031 118.383 124.242 123.786 119.576C132.258 112.454 140.731 105.209 151.291 99.9293C156.493 97.2543 162.089 95.4302 167.868 94.5264C175.296 93.4241 182.881 94.1404 189.971 96.6139C196.334 98.9701 202.361 102.149 207.899 106.069C215.267 111.103 222.634 116.384 230.124 121.295C237.058 125.607 244.588 128.876 252.473 130.996C260.209 133.206 268.068 135.171 275.926 137.136C285.962 139.738 295.503 143.969 304.169 149.661C311.291 154.204 318.167 158.993 325.412 163.536C331.334 167.228 337.86 169.846 344.691 171.272C358.321 173.974 370.477 171.641 380.915 163.905C385.952 160.207 389.932 155.254 392.457 149.538C393.853 146.688 394.727 143.61 395.036 140.451C395.485 137.073 395.69 133.667 395.65 130.259C395.505 126.928 395.177 123.608 394.667 120.313C394.299 117.489 394.053 114.664 393.685 111.963C393.317 109.262 392.703 106.683 392.334 103.981C391.966 101.894 391.843 99.8065 391.597 97.719C390.37 85.1941 391.229 72.6692 390.861 60.0215C390.769 53.008 389.438 46.0659 386.931 39.515C383.819 32.3677 379.115 26.0258 373.179 20.9733C367.588 16.2533 361.725 11.8661 355.619 7.83441C346.2 1.39364 337.62 -6.19618 330.078 -14.7595C324.553 -21.2676 319.027 -27.7756 313.378 -34.2837C308.958 -39.3182 304.169 -44.2299 299.625 -49.1416C299.503 -49.2644 299.38 -49.51 299.257 -49.6328" stroke="#DFE4E8" stroke-linecap="round" stroke-linejoin="round"/>
<path d="M408.778 368.723C409.276 367.889 409.726 367.029 410.128 366.144C411.479 362.952 412.83 359.636 413.935 356.444C415.485 352.306 416.797 348.084 417.864 343.796C418.475 340.932 418.722 338.003 418.601 335.078C418.187 330.503 417.531 325.953 416.636 321.448C415.286 314.817 413.689 308.186 412.216 301.555C411.11 296.521 409.883 291.363 408.778 286.329C408.286 283.996 408.041 281.54 407.672 279.207C407.181 276.014 406.69 272.944 406.322 269.752C406.199 268.401 405.953 267.05 405.953 265.822C405.831 259.314 405.708 252.684 405.585 246.175C405.585 243.351 406.076 240.404 405.83 237.58C405.585 234.019 405.462 230.581 403.989 227.143C401.901 222.476 397.972 219.898 391.955 219.529C388.271 219.284 384.587 219.161 380.903 219.284C377.22 219.407 373.536 220.021 369.852 220.266C367.028 220.512 364.204 220.512 361.379 220.88C354.397 221.473 347.384 221.637 340.382 221.371C335.781 221.252 331.19 220.883 326.629 220.266C319.519 219.32 312.497 217.801 305.631 215.723C299.001 213.758 292.37 211.548 285.862 209.46C278.494 207.004 271.249 204.426 264.004 201.97C257.987 199.882 251.971 197.795 245.954 195.83C232.789 191.382 220.431 184.83 209.361 176.429C205.8 173.727 202.117 171.026 198.678 168.202C193.767 164.15 189.1 159.852 184.189 155.922C179.87 152.241 174.974 149.296 169.699 147.204C166.469 145.891 162.99 145.304 159.507 145.485C156.289 145.76 153.114 146.42 150.052 147.45C143.687 149.739 137.721 153.012 132.37 157.15C127.827 160.466 123.161 163.781 118.986 167.342C112.969 172.377 107.197 177.534 101.426 182.691C97.4968 186.13 93.69 189.568 89.8834 193.006C84.1121 198.163 78.3409 203.321 72.4468 208.478C70.4821 210.32 68.2719 211.916 66.3072 213.758C57.4661 221.371 48.7479 228.862 41.8714 237.703C35.9774 245.07 31.3112 253.052 28.9781 261.647C28.2414 264.472 27.8729 267.419 27.3818 270.243C26.7921 274.818 27.3838 279.468 29.1008 283.75C30.669 287.721 33.0538 291.319 36.1002 294.31C39.4625 297.752 43.5242 300.432 48.0111 302.169C53.7554 304.376 59.9546 305.135 66.0616 304.379C75.2061 303.435 84.1065 300.857 92.3393 296.766C102.04 291.977 111.495 286.82 120.95 281.786C125.64 279.184 130.63 277.164 135.808 275.769C138.865 275.001 141.992 274.549 145.14 274.418C150.946 274.251 156.684 275.696 161.717 278.593C166.43 281.389 170.798 284.727 174.734 288.539C181.686 295.026 188.982 301.133 196.591 306.835C203.345 311.87 210.712 316.536 217.588 321.448C226.061 327.587 234.165 333.973 240.919 341.34C245.396 346.138 249.501 351.269 253.198 356.689C255.777 360.496 258.11 364.425 260.689 368.232C260.985 368.59 261.314 368.919 261.671 369.214" stroke="#DFE4E8" stroke-linecap="round" stroke-linejoin="round"/>
<path d="M-161.336 164.032C-160.845 163.786 -160.476 163.418 -159.985 163.172C-154.091 160.716 -148.197 158.26 -142.18 156.05C-132.971 152.735 -123.761 149.419 -113.815 147.577C-105.219 145.981 -96.5011 144.508 -87.9055 142.911C-80.0468 141.438 -72.1878 139.596 -65.3114 135.912C-57.2071 131.614 -52.2953 125.72 -49.9623 118.353C-48.2431 113.073 -48.4889 107.67 -48.6117 102.267C-48.8805 98.7666 -49.3312 95.2827 -49.9623 91.8294C-50.4534 88.6368 -51.1904 85.5669 -51.6815 82.3743C-52.0499 79.9184 -52.1725 77.4626 -52.4181 75.1295C-52.5409 72.3053 -52.9093 69.481 -52.7866 66.7796C-52.5487 60.3496 -50.8702 54.0552 -47.8748 48.3606C-43.9531 41.0571 -38.3563 34.787 -31.5433 30.0644C-26.6143 26.3895 -20.9657 23.7953 -14.9662 22.4512C-11.3615 21.6385 -7.6254 21.6014 -4.00533 22.3424C-0.385267 23.0833 3.03582 24.5854 6.03127 26.749C10.8219 30.0981 14.9102 34.3532 18.0651 39.2739C22.3847 45.6042 25.8914 52.4524 28.5025 59.6575C31.6951 68.3759 34.765 77.0942 37.4665 85.9353C39.9223 93.6713 42.0097 101.53 45.3251 109.02C47.0221 113.28 49.7174 117.07 53.184 120.072C56.3553 122.715 60.2491 124.341 64.3581 124.738C71.3573 125.352 77.6198 123.51 83.5139 120.931C89.9231 118.154 95.9483 114.563 101.442 110.248C106.108 106.687 110.774 103.249 115.44 99.6881C118.387 97.4779 120.966 94.8992 123.913 92.689C131.035 87.286 138.28 81.8831 146.63 77.7082C154.092 73.8157 162.138 71.1615 170.452 69.8494C174.834 69.1316 179.275 68.8437 183.713 68.9898C191.388 69.2849 198.97 70.7763 206.184 73.4104C215.394 76.7258 223.375 81.392 231.725 85.9353C236.637 88.6368 241.671 90.9698 246.706 93.4257C252.978 96.2162 259.58 98.1968 266.353 99.3198C271.633 100.302 276.913 100.916 282.193 101.653C292.631 103.126 303.068 104.6 313.26 107.056C318.049 108.161 322.961 109.143 327.872 110.126C335.117 111.476 340.029 109.266 342.485 103.74C343.656 100.841 344.361 97.7738 344.572 94.6536C344.955 91.8863 345.16 89.0973 345.186 86.3037C345.063 81.6375 344.572 77.0942 344.204 72.4281C343.865 68.0998 342.914 63.8415 341.38 59.7803C339.586 54.5184 337.021 49.5524 333.767 45.0452C327.872 36.5724 320.259 28.9593 313.751 20.7321C307.243 12.505 300.981 4.27782 294.595 -3.94932C288.143 -12.3198 281.171 -20.2761 273.72 -27.7712C266.721 -34.7704 259.599 -41.5241 253.337 -48.8916C253.214 -49.0144 253.091 -49.26 252.969 -49.3828" stroke="#DFE4E8" stroke-linecap="round" stroke-linejoin="round"/>
<path d="M391.219 368.726C391.386 368.7 391.55 368.659 391.71 368.604C392.815 362.464 395.025 356.693 396.867 350.799C398.341 346.01 399.814 341.343 400.919 336.555C401.536 333.561 401.906 330.522 402.025 327.468C402.331 325.395 402.454 323.3 402.393 321.205C402.147 317.644 401.779 314.206 401.411 310.645C401.165 308.558 401.042 306.47 400.674 304.383C400.305 302.05 399.937 299.717 399.446 297.384C398.955 294.559 398.463 291.735 397.85 288.911C397.481 286.946 396.99 284.981 396.622 283.017C396.13 280.193 395.639 277.368 395.025 274.544C394.411 271.229 393.675 267.913 392.938 264.475C392.201 261.037 391.71 257.721 390.85 254.406C389.745 250.108 388.394 245.933 385.325 242.127C381.897 238.244 377.192 235.718 372.063 235.005C368.136 234.266 364.148 233.896 360.152 233.899C355.486 233.899 350.697 233.777 346.031 233.654C341.365 233.531 336.576 233.285 331.91 232.794C322.016 231.906 312.206 230.264 302.562 227.883C294.089 225.795 285.617 223.462 277.021 221.497C268.671 219.533 260.198 217.936 251.849 216.094C244.972 214.498 238.218 213.025 231.588 211.06C225.187 209.066 219.138 206.083 213.66 202.219C206.047 196.939 200.03 190.553 193.767 184.414C189.347 180.116 184.803 175.941 180.383 171.643C176.358 167.778 171.708 164.623 166.63 162.311C162.241 160.353 157.39 159.673 152.632 160.346C146.492 161.083 141.457 163.539 136.668 166.24C129.434 170.301 122.679 175.161 116.53 180.73C109.04 187.361 101.795 194.36 94.5503 201.114C87.9194 207.376 81.4114 213.516 74.9034 219.778C68.7843 225.405 62.9642 231.348 57.4668 237.583C53.1486 242.467 49.5887 247.973 46.9065 253.915C45.0283 258.162 44.1464 262.782 44.328 267.422C45.0647 274.053 48.1345 279.701 56.2389 282.771C58.9608 283.749 61.8205 284.287 64.7115 284.367C70.5491 284.365 76.3362 283.283 81.7799 281.175C90.1298 278.228 97.1289 273.807 104.374 269.632C110.022 266.317 115.671 263.001 121.688 260.054C128.316 256.782 135.392 254.506 142.685 253.301C148.928 252.192 155.336 252.444 161.473 254.038C167.033 255.565 172.135 258.432 176.331 262.387C180.585 266.759 184.409 271.529 187.751 276.631C192.785 283.753 197.942 290.753 204.942 296.77C210.59 301.681 216.484 306.47 222.378 311.259C226.308 314.452 230.605 317.522 234.535 320.714C242.371 326.968 249.385 334.188 255.409 342.203C259.093 347.238 262.654 352.395 266.092 357.552C268.303 360.99 270.145 364.551 272.232 367.99C272.528 368.347 272.857 368.676 273.214 368.972" stroke="#DFE4E8" stroke-linecap="round" stroke-linejoin="round"/>
<path d="M-161.586 157.026C-155.692 154.57 -149.798 152.114 -143.781 149.658C-135.074 145.916 -126.081 142.878 -116.889 140.572C-110.381 138.975 -103.75 137.747 -97.2421 136.397C-89.6289 134.8 -82.0157 133.081 -75.1393 129.643C-68.7541 126.45 -64.0881 122.03 -61.5095 116.381C-59.7516 112.4 -58.872 108.086 -58.9307 103.734C-58.9486 99.0766 -59.4009 94.4312 -60.2815 89.8581C-61.1411 85.5603 -62.0005 81.2626 -62.6145 76.9648C-63.1243 73.4641 -63.4523 69.9393 -63.5969 66.4046C-63.7811 63.7472 -63.7811 61.0803 -63.5969 58.423C-63.0894 54.0298 -61.844 49.7539 -59.9131 45.7753C-56.2556 38.9031 -51.3888 32.7468 -45.5463 27.6019C-39.3166 21.7873 -32.3372 16.8317 -24.7941 12.8668C-20.3984 10.5158 -15.6148 8.97675 -10.6729 8.32339C-5.30808 7.73259 0.106155 8.84986 4.79888 11.516C11.0613 15.077 15.3592 20.1115 19.2885 25.2688C23.585 31.1053 27.2099 37.4076 30.0944 44.0562C34.515 53.6341 38.076 63.4575 41.5142 73.281C43.7245 79.5435 46.0573 85.8059 48.636 91.9456C50.5048 96.9199 53.1581 101.563 56.495 105.698C59.1955 109.106 62.8841 111.593 67.055 112.82C69.6882 113.562 72.4357 113.812 75.1595 113.557C83.6322 112.575 90.5087 109.137 97.0167 104.962C101.437 102.137 105.612 98.9448 109.787 95.8749C113.594 93.0507 117.278 90.1037 120.961 87.2794C128.262 81.533 136.024 76.3992 144.169 71.9303C152.317 67.5824 161.104 64.5567 170.201 62.9664C173.026 62.4752 175.85 62.2296 178.674 61.984C180.956 61.7185 183.255 61.6364 185.55 61.7384C193.504 61.9462 201.393 63.2267 209.004 65.545C218.459 68.3693 226.809 72.667 235.405 76.842C243.263 80.6486 251.245 84.2096 260.209 86.2971C264.692 87.3925 269.247 88.1721 273.839 88.6301C277.4 88.8757 281.084 89.2441 284.645 89.4897C290.293 89.7353 295.942 89.8581 301.59 89.7353C306.437 89.7359 311.237 88.776 315.711 86.9111C318.075 85.8859 320.163 84.3174 321.806 82.3331C323.449 80.3487 324.6 78.0046 325.167 75.4913C325.981 72.4927 326.189 69.362 325.781 66.2818C325.336 63.1492 324.596 60.0656 323.57 57.0723C321.959 52.3767 319.729 47.9168 316.939 43.8106C314.238 39.6357 311.168 35.5835 308.221 31.4085C303.801 25.2688 299.257 19.1292 294.959 12.9895C287.101 1.56974 278.874 -9.72722 268.682 -19.9191C262.665 -26.0587 256.402 -32.0756 250.508 -38.2152C246.947 -41.899 243.755 -45.8284 240.439 -49.7578" stroke="#DFE4E8" stroke-linecap="round" stroke-linejoin="round"/>
<path d="M-161.586 183.43C-154.464 181.097 -147.465 178.641 -140.343 176.308C-132.843 173.877 -125.166 172.029 -117.38 170.782C-110.846 169.738 -104.221 169.368 -97.6106 169.677C-93.19 169.923 -88.8923 170.414 -84.4717 170.905C-73.4203 172.256 -62.9829 175.326 -52.1771 177.413C-45.5126 178.888 -38.5456 178.065 -32.4075 175.08C-27.1274 172.501 -21.7244 169.923 -16.3215 167.344C-10.2318 164.486 -3.50414 163.259 3.2025 163.783C8.35981 164.151 13.5172 165.257 18.6746 165.625C23.4194 165.87 28.1739 165.87 32.9187 165.625C38.1539 165.325 43.3411 164.461 48.3905 163.046C53.2695 161.817 58.0349 160.174 62.6346 158.134C70.7716 154.523 78.578 150.209 85.9653 145.241C88.9123 143.277 91.8592 141.312 94.6834 139.224C98.6128 136.277 102.665 133.33 106.349 130.138C112.366 125.103 118.26 119.823 124.277 114.789C132.135 108.403 139.871 101.772 149.449 96.7379C155.539 93.371 162.201 91.1643 169.096 90.2299C176.738 89.2305 184.507 89.9864 191.813 92.4401C198.733 95.0346 205.294 98.5008 211.337 102.755C217.599 107.053 223.739 111.473 230.124 115.525C237.032 119.944 244.566 123.297 252.473 125.471C260.945 127.805 269.664 129.646 278.137 131.857C288.589 134.494 298.513 138.896 307.484 144.873C313.992 149.171 320.378 153.714 327.008 157.889C332.897 161.781 339.486 164.492 346.41 165.87C359.671 168.204 370.968 165.502 379.81 157.029C384.569 152.495 387.753 146.557 388.896 140.084C389.771 136.095 390.102 132.005 389.879 127.927C389.633 124.244 389.019 120.56 388.528 116.876C388.036 113.438 387.668 110.122 387.177 106.684C386.809 103.983 386.195 101.158 385.826 98.457C385.453 95.9332 385.207 93.3923 385.089 90.8438C384.844 84.213 384.598 77.705 384.353 71.0741C384.23 68.0043 384.23 65.0573 383.984 61.9874C383.616 58.672 383.125 55.3566 382.634 51.9184C382.059 48.0564 380.943 44.2948 379.318 40.7442C376.519 34.539 372.414 29.0105 367.284 24.5355C363.478 21.2201 359.426 17.9046 355.373 14.8348C352.058 12.1334 348.374 9.8003 345.059 7.09884C337.452 1.0025 330.46 -5.82469 324.184 -13.2848C316.08 -23.1083 307.975 -32.809 299.012 -42.1412C296.556 -44.7199 293.977 -47.4213 291.398 -50" stroke="#DFE4E8" stroke-linecap="round" stroke-linejoin="round"/>
<path d="M356.715 -49.7578C360.496 -44.0857 364.995 -38.9265 370.099 -34.4086C374.826 -30.2644 379.832 -26.4488 385.08 -22.9889C391.778 -18.6196 398.215 -13.8635 404.359 -8.74487C410.422 -3.43706 415.823 2.58231 420.445 9.18295C424.422 14.898 427.757 21.0337 430.391 27.4791C432.401 32.246 433.844 37.233 434.689 42.3371C435.18 45.7753 435.671 49.2135 436.039 52.6517C436.285 55.1076 436.285 57.6862 436.408 60.2649C436.531 66.5273 436.53 72.9126 436.776 79.1751C436.899 82.1221 437.513 85.0691 437.758 88.139C438.19 91.8295 439.184 95.4322 440.706 98.822C443.284 104.839 448.073 109.628 455.195 112.698C459.621 114.403 464.24 115.558 468.948 116.136C477.666 117.609 486.262 119.328 494.121 122.889C500.606 125.738 506.39 129.971 511.066 135.292C514.377 139.139 517.375 143.245 520.03 147.571C522.854 152.36 525.556 157.272 528.38 162.183L536.484 175.813C538.456 178.616 539.835 181.791 540.536 185.146C540.67 186.71 540.373 188.281 539.677 189.689C538.278 192.977 536.679 196.175 534.888 199.267C531.307 205.287 528.58 211.775 526.783 218.545C525.801 222.352 524.819 226.281 524.082 230.088C523.468 233.649 523.1 237.21 522.609 240.771C521.995 245.069 521.38 249.244 520.889 253.541C520.521 255.997 520.521 258.576 520.153 261.155C519.784 263.979 519.293 266.803 518.802 269.627C518.434 271.838 518.188 273.925 517.697 276.135C517.179 279.648 516.482 283.131 515.609 286.573C514.136 291.73 512.417 296.765 510.452 301.799C506.596 311.135 500.919 319.608 493.752 326.726C489.7 330.901 485.402 334.953 481.35 339.128C478.755 341.46 476.881 344.485 475.947 347.847C475.333 350.671 476.316 353.004 477.544 355.46C479.385 358.775 482.332 361.354 485.157 364.055C486.507 365.283 487.858 366.511 489.332 367.616C489.823 367.985 490.437 368.23 491.051 368.599" stroke="#DFE4E8" stroke-linecap="round" stroke-linejoin="round"/>
<path d="M371.572 368.602C371.911 367.887 372.198 367.148 372.431 366.392C373.782 357.674 377.343 349.446 380.167 341.096C381.763 336.676 383.237 332.133 384.465 327.589C385.205 324.233 385.697 320.826 385.938 317.397C386.245 314.707 386.368 312 386.307 309.293C386.184 305.978 385.693 302.662 385.324 299.347C384.458 292.481 382.852 285.729 380.536 279.209C378.571 273.437 376.238 267.666 372.063 262.632C368.003 257.852 362.55 254.46 356.468 252.931C351.464 251.694 346.374 250.832 341.242 250.352C333.015 249.37 324.787 248.388 316.56 246.914C307.719 245.318 299.124 243.108 290.282 241.266C281.989 239.255 273.583 237.738 265.11 236.722C261.058 236.354 257.128 235.863 253.076 235.617C249.269 235.372 245.34 235.003 241.533 235.126C235.953 235.147 230.378 235.475 224.834 236.108C220.541 236.498 216.346 237.62 212.431 239.424C210.679 240.299 209.135 241.542 207.906 243.067C206.677 244.593 205.791 246.366 205.309 248.265C204.327 251.949 204.818 255.632 205.309 259.439C206.184 265.114 207.923 270.622 210.467 275.77C213.547 282.015 217.704 287.669 222.746 292.47C227.044 296.645 231.833 300.575 236.499 304.627C243.989 311.012 251.725 317.275 258.233 324.397C262.663 329.215 266.688 334.389 270.267 339.869C272.846 344.044 275.67 348.096 278.126 352.271C281.073 357.182 283.897 362.217 286.844 367.251C287.229 367.799 287.683 368.294 288.195 368.725" stroke="#DFE4E8" stroke-linecap="round" stroke-linejoin="round"/>
<path d="M-167 246.055C-159.303 248.758 -151.964 252.386 -145.143 256.86C-137.942 261.848 -131.385 267.704 -125.619 274.297C-121.745 278.804 -117.516 282.993 -112.971 286.822C-108.564 290.495 -103.272 292.95 -97.6218 293.944C-92.1187 294.888 -86.4823 294.721 -81.0447 293.453C-75.8874 292.102 -70.8528 290.751 -65.9411 289.032C-61.6434 287.559 -57.3455 285.84 -52.6794 285.471C-49.2562 285.19 -45.8288 285.961 -42.8559 287.682C-38.6685 289.792 -34.8529 292.571 -31.559 295.909C-26.0333 301.312 -20.3848 306.715 -15.2275 312.486C-7.49148 321.204 -0.123886 330.168 7.48929 339.009C11.9099 344.166 16.453 349.201 21.1192 354.236C25.1103 358.571 29.853 362.149 35.1178 364.796C39.1507 366.832 43.5188 368.122 48.0111 368.602C54.8875 369.339 61.1499 367.988 67.2895 366.024C75.3939 363.445 82.8843 359.638 90.6202 356.323C100.415 351.784 110.723 348.444 121.319 346.377C125.366 345.597 129.476 345.186 133.598 345.149C136.668 345.149 139.86 344.903 142.93 345.149C147.054 345.48 151.154 346.055 155.21 346.868C164.381 348.896 173.17 352.378 181.242 357.182C186.664 360.199 191.695 363.869 196.222 368.111C196.63 368.428 197.086 368.677 197.573 368.848" stroke="#DFE4E8" stroke-linecap="round" stroke-linejoin="round"/>
<path d="M350.821 368.728C350.944 368.606 351.312 368.606 351.312 368.483C352.663 363.817 353.891 359.151 355.487 354.607C358.189 347.24 361.382 340.118 364.206 332.75C365.951 328.311 367.387 323.757 368.504 319.12C369.421 314.845 369.669 310.455 369.24 306.104C368.848 301.627 367.771 297.238 366.048 293.088C364.112 288.217 361.038 283.88 357.084 280.44C353.375 277.304 349.012 275.038 344.313 273.809C338.91 272.336 333.507 271.108 328.104 270.003C319.632 268.161 311.282 265.95 303.178 263.372C293.968 260.548 284.758 257.478 275.058 255.513C270.515 254.672 265.92 254.138 261.305 253.917C256.744 253.709 252.174 253.998 247.675 254.776C242.886 255.636 238.588 257.355 235.395 260.548C233.265 262.59 231.955 265.342 231.712 268.284C231.221 274.546 234.045 279.949 238.097 285.106C241.658 289.466 245.649 293.456 250.008 297.017C258.481 304.507 266.953 311.998 273.83 320.471C278.465 326.371 282.652 332.61 286.355 339.135C290.775 346.748 295.196 354.362 299.862 361.975C301.213 364.308 303.055 366.395 304.651 368.606" stroke="#DFE4E8" stroke-linecap="round" stroke-linejoin="round"/>
<path d="M370.102 -49.7578C375.402 -43.1808 381.651 -37.4284 388.643 -32.6895C395.274 -28.0234 401.905 -23.3573 408.29 -18.3228C414.983 -12.9096 420.929 -6.63344 425.972 0.341818C430.089 5.84351 433.744 11.6755 436.901 17.7785C440.257 24.1397 442.774 30.9087 444.391 37.9165C445.251 42.2143 445.865 46.6349 446.479 50.9326C446.847 53.7569 446.97 56.5811 447.215 59.4054C447.584 63.3347 447.83 67.3869 448.321 71.3163C448.734 76.4104 449.893 81.4163 451.759 86.1743C454.706 93.1735 460.354 98.4536 468.704 101.646C474.598 103.856 480.615 105.821 486.632 107.909C494.683 110.405 502.333 114.044 509.349 118.714C515.841 123.336 521.703 128.785 526.786 134.923C531.452 140.203 535.872 145.729 541.766 150.272C546.336 153.897 551.817 156.191 557.606 156.903C560.71 157.21 563.836 157.21 566.939 156.903C570.377 156.658 573.815 156.166 577.253 155.675" stroke="#DFE4E8" stroke-linecap="round" stroke-linejoin="round"/>
<path d="M388.891 -49.5078C391.592 -47.2975 394.294 -45.0872 397.241 -43.1225C403.135 -38.9476 409.397 -35.141 415.046 -30.8432C421.554 -26.0543 426.343 -20.0374 430.763 -14.0206C434.079 -9.35444 437.271 -4.56549 440.218 0.223444C445.146 7.81135 449.301 15.8742 452.62 24.2909C454.43 28.7505 455.708 33.4078 456.427 38.1665C457.041 42.3415 457.655 46.3937 458.146 50.5687C458.515 53.6385 458.76 56.5855 459.251 59.6554C459.789 65.2043 461.069 70.6559 463.058 75.8641C466.005 82.7405 471.285 88.2662 478.898 92.1956C483.319 94.4058 487.985 96.4933 492.528 98.5808C501.492 102.633 510.211 106.808 517.701 112.456C523.002 116.516 528.009 120.948 532.682 125.718C536.611 129.525 540.54 133.331 544.838 136.77C550.196 141.151 556.574 144.107 563.38 145.365C567.998 146.189 572.69 146.518 577.378 146.347" stroke="#DFE4E8" stroke-linecap="round" stroke-linejoin="round"/>
<path d="M-166.75 251.453C-164.294 252.681 -161.838 253.786 -159.505 255.014C-156.19 256.856 -152.997 258.698 -149.804 260.785C-141.823 266.066 -136.174 272.819 -130.28 279.45C-126.596 283.748 -122.913 288.045 -118.861 292.098C-114.2 296.901 -108.287 300.304 -101.792 301.921C-98.9379 302.639 -96.0155 303.05 -93.0741 303.149C-85.4609 303.64 -78.0932 302.167 -70.6028 300.939C-65.1534 299.767 -59.5994 299.15 -54.0258 299.097C-48.3609 299.241 -42.809 300.713 -37.8171 303.395C-31.9702 306.615 -26.5634 310.578 -21.7311 315.183C-14.4863 321.568 -8.46947 328.69 -2.4526 335.812C2.82751 342.197 7.98488 348.583 13.265 355.091C17.095 359.758 21.4178 363.999 26.1583 367.738C26.8563 368.18 27.5968 368.55 28.3686 368.843" stroke="#DFE4E8" stroke-linecap="round" stroke-linejoin="round"/>
<path d="M-166.75 255.508C-165.876 256.046 -164.974 256.538 -164.048 256.981C-155.192 261.184 -147.293 267.16 -140.841 274.541C-136.174 280.066 -131.754 285.715 -126.965 291.118C-124.205 294.246 -121.252 297.199 -118.124 299.959C-113.334 304.008 -107.583 306.757 -101.424 307.941C-96.668 308.987 -91.7718 309.236 -86.9344 308.677C-82.3911 308.063 -77.7247 307.818 -73.1813 307.327C-69.6203 306.958 -66.0594 306.221 -62.4984 305.976C-56.2359 305.73 -49.9735 305.853 -44.0794 307.818C-38.5744 309.764 -33.3985 312.538 -28.7302 316.045C-18.2928 323.781 -10.3113 333.236 -2.69815 342.691C3.6871 350.55 9.58106 358.777 16.8259 366.145C17.7941 367.03 18.8196 367.85 19.8957 368.6" stroke="#DFE4E8" stroke-linecap="round" stroke-linejoin="round"/>
<path d="M-167 261.156C-164.053 262.875 -160.86 264.472 -158.036 266.436C-149.686 272.085 -143.915 279.33 -138.389 286.697C-134.705 291.609 -131.021 296.398 -126.969 301.064C-122.731 305.949 -117.441 309.811 -111.498 312.361C-107.018 314.256 -102.236 315.337 -97.3763 315.554C-94.9671 315.758 -92.5489 315.84 -90.1313 315.799C-86.9387 315.676 -83.8689 315.308 -80.6763 315.062C-77.4837 314.817 -74.4139 314.448 -71.2213 314.203C-67.5375 313.957 -63.7308 313.466 -60.047 313.466C-51.2086 313.341 -42.5041 315.634 -34.8744 320.097C-27.4326 324.668 -20.7606 330.387 -15.1049 337.042C-7.73728 345.147 -1.59744 353.865 5.0334 362.338C6.62971 364.303 8.2259 366.144 9.82221 368.109C10.0678 368.355 10.4361 368.478 10.6817 368.723" stroke="#DFE4E8" stroke-linecap="round" stroke-linejoin="round"/>
<path d="M-166.75 266.188C-165.031 267.415 -163.557 268.766 -161.715 269.871C-158.178 272.233 -154.994 275.086 -152.26 278.344C-146.98 283.993 -142.928 290.255 -138.63 296.272C-134.701 301.798 -130.649 307.323 -125.123 311.867C-118.84 317.211 -111.097 320.548 -102.898 321.444C-100.334 321.791 -97.7485 321.956 -95.1615 321.936C-91.3549 321.936 -87.5483 321.936 -83.7417 321.69C-80.4263 321.444 -77.1107 320.831 -73.7953 320.708C-68.3924 320.462 -62.9896 319.971 -57.5867 320.217C-49.2383 320.664 -41.1526 323.288 -34.1333 327.83C-25.8365 333.319 -18.5639 340.218 -12.6445 348.213C-7.61001 354.599 -2.69816 361.229 2.21357 367.738C2.57229 368.124 2.98607 368.455 3.4415 368.72" stroke="#DFE4E8" stroke-linecap="round" stroke-linejoin="round"/>
<path d="M90.7461 238.2C92.588 241.884 95.4122 242.129 99.3416 241.515C106.341 240.41 112.971 238.2 119.725 236.358C126.479 234.516 132.987 232.92 139.74 231.201C147.845 229.236 155.949 227.517 164.054 225.307C169.211 223.956 173.631 221.5 175.964 217.325C177.399 214.792 177.837 211.814 177.192 208.975C176.849 206.924 176.314 204.91 175.596 202.958C173.58 197.339 170.304 192.256 166.018 188.1C163.516 185.627 160.554 183.667 157.3 182.329C152.266 180.369 146.703 180.239 141.582 181.961C136.493 183.659 131.721 186.19 127.461 189.451C117.024 197.187 109.042 206.397 101.797 216.097C97.8988 221.073 94.6396 226.519 92.0966 232.306C91.2695 234.073 90.8499 236.003 90.8687 237.954" stroke="#DFE4E8" stroke-linecap="round" stroke-linejoin="round"/>
</g>
<defs>
<clipPath id="clip0_1147_31218">
<rect width="390" height="319" fill="white"/>
</clipPath>
</defs>
</svg>
