<svg width="1299" height="1657" viewBox="0 0 1299 1657" fill="none" xmlns="http://www.w3.org/2000/svg">
<g clip-path="url(#clip0_522_2547)">
<path d="M1309.08 1027.04C1308.89 1026.35 1308.96 1025.22 1308.77 1024.54C1302.39 1005.72 1298.63 986.114 1297.59 966.271C1296.11 940.838 1298.75 915.333 1305.4 890.739C1310.11 872.716 1317.65 855.557 1327.76 839.909C1333.46 831.284 1339.69 823.022 1346.41 815.168C1358.55 801.732 1371.75 789.305 1385.91 778.014C1400.15 766.447 1414.62 755.006 1428.77 743.095C1439.25 734.012 1448.68 723.737 1454.33 710.412C1457.19 704.031 1459.04 697.248 1459.83 690.302C1461.2 678.483 1460.31 666.511 1457.21 655.024C1453.31 639.093 1448.25 623.657 1443.06 608.439C1438.25 594.599 1432.96 581.069 1426.99 567.724C1419.25 549.869 1410.57 532.635 1395.68 521.126C1389.85 516.494 1383.26 512.891 1376.22 510.471C1367.04 507.77 1357.61 506.031 1348.07 505.281C1328.96 503.578 1309.77 502.992 1290.58 503.525C1281.99 503.799 1273.39 504.073 1264.75 504.91C1251.03 506.267 1237.53 509.326 1224.57 514.017C1205.75 520.905 1187.67 530.548 1169.46 540.409C1147.56 552.616 1125 563.59 1101.87 573.28C1079.29 582.652 1056.77 590.9 1034.01 599.584L1021.2 604.123C1006.33 609.215 991.234 614.181 976.327 619.836C968.937 622.554 961.823 626.306 954.524 629.369C942.339 634.702 930.996 641.781 920.853 650.385C912.883 657.324 906.422 665.825 901.868 675.36C897.314 684.896 894.763 695.264 894.375 705.824C893.749 720.015 895.659 733.342 897.225 746.762C898.674 758.368 900.249 769.755 901.48 781.235C903.017 797.198 902.62 813.289 900.297 829.158C898.033 846.187 893.644 862.862 889.692 879.79C885.856 894.629 883.433 909.797 882.456 925.092C881.888 940.19 881.883 955.322 881.879 970.454C881.948 989.995 881.799 1009.41 877.644 1029.71C873.604 1050.11 865.409 1069.45 853.567 1086.54C847.475 1095.03 840.65 1102.97 833.171 1110.27C820.406 1122.75 805.449 1132.76 789.05 1139.81C772.48 1146.83 755.516 1151.01 738.948 1150.46C727.063 1150.48 715.361 1147.53 704.908 1141.87C699.451 1138.72 693.902 1135.23 688.696 1131.64C684.146 1128.43 679.974 1124.56 675.549 1121.14C671.125 1117.71 666.734 1113.72 662.436 1110.07C657.265 1105.92 652.093 1101.77 646.796 1097.84C642.194 1093.98 637.354 1090.41 632.306 1087.15C623.356 1081.98 614.061 1076.91 604.641 1072.05C599.402 1069.02 594.003 1066.78 588.512 1064.19C582.585 1061.35 576.749 1058.86 571.074 1055.58C563.308 1051.39 556.138 1046.67 548.623 1042.04C528.296 1028.3 512.36 1008.99 502.725 986.431C495.114 968.357 491.795 948.395 490.232 927.41C489.136 913.68 488.855 899.547 487.415 885.909C485.681 867.12 478.969 853.299 472.399 835.61C466.525 820.577 452.997 802.833 449.736 784.41C445.348 759.617 447.246 698.856 469.283 670.143C476.142 661.206 484.592 658.417 496.748 675.36C505.169 687.098 509.833 709.961 509.833 709.961L509.842 709.99C516.122 731.362 522.402 752.734 529.152 773.796C534.118 788.888 540.117 803.703 545.554 818.484C551.851 836.018 556.624 854.062 559.821 872.416C562.017 884.744 563.995 896.946 566.191 909.274C568.523 923.535 573.567 937.216 581.05 949.578C584.785 955.586 589.186 961.154 594.17 966.175C600.101 971.836 606.385 977.117 612.983 981.985C618.81 986.513 624.762 990.823 630.84 994.914C635.172 997.997 639.538 1000.52 643.996 1003.38C646.708 1005.24 649.201 1006.97 651.913 1008.83C656.245 1011.91 660.67 1015.34 664.876 1018.64C668.116 1021.09 671.701 1023.45 674.815 1026.12C678.585 1029.17 682.321 1032.79 686.308 1035.96L686.316 1035.97C691.703 1040.24 697.091 1044.52 702.604 1048.57C708.119 1052.63 713.635 1056.69 719.277 1060.53C721.988 1062.38 725.423 1063.49 728.479 1065.26C736.094 1069.31 744.527 1071.59 753.148 1071.93C763.168 1072.58 773.143 1070.1 781.693 1064.84C796.206 1056.33 805.364 1042.99 809.971 1026.45C813.003 1015.38 814.226 1003.9 813.592 992.445C812.884 976.028 811.487 959.796 810.434 943.471C809.514 927.491 810.742 911.461 814.085 895.808C817.693 878.973 823.77 862.399 828.939 845.883C832.99 833.48 836.13 820.798 838.331 807.938C841.739 786.912 840.486 766.397 838.981 746.319C837.894 730.556 836.682 715.012 838.442 698.856C840.337 680.45 845.356 662.683 856.496 646.412C863.596 635.946 872.227 626.604 882.1 618.701C896.267 607.676 911.983 598.802 928.739 592.365C945.872 585.375 963.03 579.856 980.255 573.211C999.453 565.667 1018.96 558.595 1037.73 548.767C1055.56 539.561 1072.77 529.414 1088.41 515.446C1100.05 505.697 1109.58 493.662 1116.39 480.086C1122.86 466.358 1124.32 453.233 1120.91 440.493C1117.16 425.814 1107.89 416.674 1096.91 409.466C1092.68 407.025 1088.33 404.803 1083.87 402.811C1078.29 399.878 1072.33 397.601 1066.87 394.45C1056.83 388.653 1046.79 382.855 1037.13 376.403C1030.22 371.751 1023.66 366.602 1017.5 360.996C1006.65 351.611 997.708 340.224 991.166 327.457C986.674 319.475 984.556 310.375 985.061 301.23C985.195 296.867 986.297 292.589 988.288 288.704C990.279 284.82 993.109 281.427 996.573 278.771C1001.75 274.925 1007.8 272.418 1014.18 271.471C1026.94 269.527 1037.86 273.796 1048.41 278.72C1051.25 280.218 1053.91 282.045 1056.33 284.164C1062.1 288.213 1067.64 292.579 1072.93 297.244C1084.54 308.895 1095.9 320.982 1107.51 332.633C1111.96 337.264 1116.86 341.453 1122.12 345.142C1126.82 348.099 1131.72 350.732 1136.78 353.023C1142.24 355.36 1148.14 356.485 1154.08 356.321C1167.06 356.535 1180.17 352.466 1192.86 346.113C1214.05 335.64 1230.32 318.548 1243.58 297.097C1256.08 276.956 1266.4 255.554 1280.08 236.388C1285.53 228.471 1291.19 220.68 1297.29 213.141C1307.95 199.967 1319.84 187.825 1332.78 176.876C1341.34 169.598 1349.69 162.194 1358.26 154.916C1361.46 152.398 1364.88 150.006 1368.08 147.488" stroke="#DFE4E8" stroke-width="0.763236" stroke-linecap="round" stroke-linejoin="round"/>
<path d="M1316.12 1069.04C1315.9 1061.5 1298.1 1046.47 1290.96 1029.68C1282.51 1009.78 1281.07 993.959 1279.76 975.475C1278.22 954.534 1278.95 933.488 1281.95 912.705C1284.69 893.333 1288.56 874.029 1296.8 855.214C1301.09 845.695 1306.17 836.556 1312 827.894C1318.61 818.456 1325.98 809.57 1334.03 801.323C1346.01 789.086 1358.7 777.555 1372.01 766.788C1382.72 757.832 1393.64 749.001 1404.24 739.7C1414.97 731.029 1424.02 720.474 1430.96 708.555C1436.34 699.412 1439.41 689.088 1439.88 678.487C1440.36 667.353 1439.36 656.203 1436.9 645.333C1433.95 632.466 1430.3 619.769 1425.97 607.298C1420.86 592.67 1414.25 578.612 1406.24 565.347C1400.65 555.553 1393.08 547.025 1384.03 540.299C1375.29 534.233 1365.54 529.784 1355.23 527.164C1337.07 522.918 1318.44 520.966 1299.79 521.352C1289.63 521.307 1279.66 521.951 1269.55 522.812C1254.68 524.107 1240.03 527.289 1225.96 532.279C1216.03 535.862 1206.29 540.133 1196.55 544.404C1184.61 549.447 1172.86 555.178 1161.02 560.566C1145.36 567.53 1129.57 574.713 1113.81 581.334C1103.04 585.882 1092.08 589.742 1081.34 593.727C1074.16 596.571 1066.77 599.289 1059.38 602.008C1054.87 603.77 1050.15 605.406 1045.76 606.949C1030.07 612.445 1014.29 617.595 998.698 623.435C989.115 626.925 979.717 631.104 970.101 635.157C956.857 640.301 944.605 647.704 933.893 657.038C928.728 661.228 924.272 666.222 920.696 671.829C913.877 682.774 910.048 695.316 909.591 708.203C909.38 719.244 910.116 730.282 911.789 741.197C913.632 755.649 915.693 770.228 917.41 784.899C919.265 801.906 918.841 819.084 916.151 835.979C913.61 851.976 910.128 868.593 906.898 884.773C903.132 902.446 900.845 920.403 900.062 938.455L898.333 989.847C897.883 1008.09 894.973 1026.18 889.683 1043.65C886.943 1052.44 883.711 1061.06 880.001 1069.49C877.012 1075.42 873.688 1081.18 870.045 1086.73C866.55 1092.28 862.744 1097.36 858.938 1102.44C845.397 1120.27 828.586 1135.36 809.405 1146.9C793.748 1156.91 776.743 1164.63 758.904 1169.84C746.264 1173.82 733.134 1176.04 719.888 1176.42C706.675 1176.47 693.953 1171.42 684.372 1162.32C678.268 1156.76 672.636 1150.89 667.129 1144.8C656.082 1133.18 645.413 1120.91 632.543 1111.44C627.245 1107.51 622.074 1103.36 616.524 1099.86C606.41 1093.49 595.838 1087.87 584.897 1083.06C579.28 1080.69 573.57 1077.97 568.205 1075.17C562.932 1072.71 557.786 1070.02 552.765 1067.13C549.272 1065.11 545.813 1062.53 542.447 1060.3C538.115 1057.21 533.531 1054.57 529.451 1051.05C523.566 1045.61 517.933 1039.74 512.301 1033.87C500.665 1021.09 491.697 1006.11 485.922 989.824C480.27 974.27 476.725 958.03 475.382 941.536C474.471 928.494 472.997 915.419 472.212 902.159C471.48 888.57 469.531 875.074 466.389 861.833C461.541 842.679 444.565 820.497 440.153 797.845C432.257 757.308 438.883 681.383 455.24 648.625C464.854 629.372 475.536 633.354 494.741 645.925C507.768 654.453 513.505 674.3 516.865 683.16C521.453 698.906 525.823 714.527 530.193 730.147C536.685 753.687 545.311 775.548 553.684 797.845C559.213 812.971 564.961 828.222 569.423 844.187C574.565 862 578.296 880.744 582.841 899.085C586.293 914.878 592.928 929.801 602.342 942.943C608.171 950.728 615.005 957.707 622.666 963.699C630.112 969.453 637.685 974.99 645.131 980.744C647.188 982.223 649.027 983.575 651.084 985.054C656.071 988.515 660.713 992.069 665.574 995.748C668.815 998.201 672.274 1000.78 675.514 1003.23C679.939 1006.66 684.237 1010.31 688.317 1013.83C692.397 1017.35 696.729 1020.43 700.935 1023.73C705.914 1028.1 711.136 1032.18 716.576 1035.96C723.573 1040.69 731.113 1044.55 739.035 1047.47C749.331 1051.13 760.655 1050.55 770.525 1045.86C777.956 1042.01 784.004 1035.94 787.829 1028.5C791.019 1022.36 793.172 1015.73 794.201 1008.89C795.885 996.169 796.089 983.297 794.81 970.53C793.412 955.23 793.052 939.853 793.732 924.504C794.766 909.365 797.636 894.407 802.278 879.959C807.196 863.88 812.55 848.053 817.904 832.225C824.25 812.603 827.351 792.077 827.085 771.457C826.804 757.324 826.179 743.283 825.68 729.024C824.736 710.651 826.718 692.245 831.55 674.493C834.324 665.494 838.062 656.82 842.702 648.625C850.964 635.412 861.238 623.569 873.154 613.525C887.279 602.276 903.011 593.209 919.826 586.627C937.303 579.545 955.057 573.496 972.627 566.759C989.306 560.565 1005.64 553.478 1021.56 545.529C1037.05 537.955 1051.48 528.381 1064.48 517.051C1073.81 508.463 1082.38 499.154 1087.75 486.828C1091.76 477.889 1092.83 467.914 1090.82 458.328C1088.77 448.962 1083.97 440.42 1077.05 433.787C1072.04 428.856 1066.55 424.236 1061.29 419.741C1056.56 415.843 1051.6 411.819 1046.74 408.14C1042.97 405.09 1039.04 402.822 1035.27 399.773C1030.32 395.749 1025.37 391.724 1020.67 387.264C1012.85 380.132 1004.82 372.874 997.38 365.087C989.28 356.529 982.12 347.127 976.026 337.042C969.664 326.384 964.243 315.105 962.929 301.248C962.18 294.805 962.94 288.274 965.148 282.175C967.357 276.075 970.953 270.572 975.654 266.101C987.649 254.399 1001.08 250.801 1014.77 250.268C1026.38 249.931 1037.89 252.565 1048.19 257.92C1054.98 261.453 1061.54 265.43 1067.81 269.825C1069.21 270.926 1070.83 272.153 1072.23 273.253C1076 276.303 1079.64 279.57 1083.29 282.838L1098.42 295.942C1104.39 301.407 1110.68 306.499 1117.27 311.19C1124.37 316.211 1132.1 320.282 1140.26 323.298C1150.4 326.73 1161.28 327.383 1171.76 325.189C1188.69 321.575 1203.93 312.326 1217.62 298.693C1230.25 285.899 1240.5 271.157 1250.76 256.415C1255.83 249.153 1260.68 241.765 1265.96 234.629C1272.22 226.309 1278.48 217.989 1285.05 210.139C1300.64 191.2 1318.53 175.335 1336.82 160.284C1344.2 154.064 1351.79 147.97 1359.17 141.75" stroke="#DFE4E8" stroke-width="0.763236" stroke-linecap="round" stroke-linejoin="round"/>
<path d="M1090.93 1391.78C1094.12 1391.29 1097.44 1390.59 1100.63 1390.1C1121.19 1387.07 1171.5 1383.24 1208.28 1392.23C1254.26 1403.47 1345.55 1412.84 1397.88 1358.85C1458.16 1296.67 1482 1176.49 1404.11 1137.17C1383.39 1126.71 1310.01 1116.43 1282.48 1069.57C1276.38 1059.18 1273.65 1051.09 1269.95 1041.38C1261.73 1020.87 1256.45 999.3 1254.26 977.312L1254.25 977.304C1253.21 966.516 1252.16 955.728 1251.81 944.755C1251.33 924.399 1251.21 903.952 1251.3 883.63C1251.46 867.717 1251.28 851.897 1254.07 835.464C1256.16 821.955 1261.54 809.168 1269.75 798.235C1277.13 788.811 1285.64 780.333 1295.09 772.992C1303.75 766.059 1312.5 759.47 1321.04 752.755C1336.63 741.224 1351.62 728.893 1365.94 715.812C1377.56 704.765 1388.52 693.34 1395.75 678.302C1399.58 670.575 1402.02 662.238 1402.98 653.667C1404.08 642.542 1403.5 631.314 1401.26 620.362C1399.27 610.946 1396.14 601.808 1391.94 593.152C1384.89 578.353 1373.55 566.023 1359.39 557.772C1356.12 555.882 1352.34 554.864 1348.94 553.192C1341.43 549.912 1333.51 547.688 1325.39 546.584C1305.24 543.43 1284.72 543.571 1264.61 547.002C1246.4 550.101 1228.58 555.126 1211.43 561.991C1181.61 573.301 1151.86 585.518 1121.89 595.577C1109.34 599.679 1096.87 604.125 1084.54 608.353C1073.23 612.305 1061.84 615.912 1050.62 620.208C1031.9 627.441 1012.77 633.858 994.338 643.593C983.128 648.872 972.944 656.099 964.26 664.938C955.631 673.633 949.977 684.837 948.111 696.944C946.583 708.43 946.721 720.077 948.519 731.524C949.701 740.065 951.226 748.513 952.752 756.961C955.138 771.379 956.754 785.914 957.591 800.503C959.078 824.646 956.341 849.552 952.353 874.608C949.105 894.853 945.639 914.972 943.08 935.032C940.167 957.217 938.942 979.504 934.56 1001.71C932.289 1013.21 929.674 1024.8 926.278 1036.22C921.912 1050.43 916.209 1064.19 909.243 1077.32C906.689 1082.25 903.479 1086.8 900.614 1091.26L899.871 1092.36C896.013 1098.1 892.045 1103.99 887.996 1109.59C878.728 1122.34 868.416 1134.3 857.166 1145.34C845.263 1157.39 833.176 1168.75 821.491 1180.92C815.586 1187.11 809.462 1193.18 806.017 1201.67C803.677 1206.55 803.261 1212.13 804.853 1217.3C807.319 1225.13 813.213 1228.53 819.989 1230.4C830.325 1233.17 840.947 1234.94 851.662 1237.05C858.127 1238.45 864.534 1238.95 870.874 1240.57C881.201 1242.69 891.301 1245.79 901.034 1249.84C908.179 1253.09 915.92 1255.81 922.94 1259.28C927.186 1261.35 931.2 1263.86 934.912 1266.78C941.082 1271.21 947.379 1275.43 953.424 1280.08C958.065 1283.64 962.455 1287.62 966.845 1291.61L966.847 1291.62C987.72 1311.42 1005.71 1334.05 1020.29 1358.85C1025.13 1366.6 1029.63 1374.43 1034.95 1381.87C1037.85 1386.02 1041.55 1389.54 1045.84 1392.23C1052.07 1395.44 1059.17 1396.58 1066.09 1395.48C1074.28 1394.39 1082.61 1393.09 1090.93 1391.78Z" stroke="#DFE4E8" stroke-width="0.763236" stroke-linecap="round" stroke-linejoin="round"/>
<path d="M1392.35 160.908C1387.33 165.575 1382.3 170.242 1377.19 174.565C1363 186.837 1349.87 200.292 1337.96 214.785C1333.15 220.667 1328.85 226.944 1325.09 233.549C1318.75 245.026 1313.42 256.789 1311.86 269.569C1309.29 284.429 1312.72 299.7 1321.39 312.037C1328.53 321.308 1336.56 329.848 1345.39 337.531C1360.22 350.966 1372.46 367.012 1381.5 384.87C1386.66 395.199 1390.41 406.172 1392.64 417.497C1393.53 422.66 1393.82 427.905 1393.51 433.134C1393.35 437.311 1392.15 441.382 1390.02 444.98C1387.89 448.578 1384.9 451.59 1381.32 453.745C1374.93 457.778 1367.97 460.824 1360.68 462.782C1344.65 466.901 1328.18 469.023 1311.63 469.099C1297.62 469.161 1283.9 468.224 1269.77 468.505C1255.07 468.753 1240.25 469.218 1225.25 474.529C1211.26 479.754 1198.09 486.949 1186.14 495.896C1173.06 504.936 1160.29 514.446 1147.31 523.83C1131.42 535.092 1114.65 545.074 1097.18 553.683C1086.12 559.23 1074.62 564.526 1063.38 569.384C1049.13 575.417 1034.87 581.45 1020.44 586.795C1004.15 592.819 987.996 598.624 971.745 604.086C955.109 609.557 939.005 616.529 923.63 624.913C911.655 631.411 900.96 640.028 892.064 650.347C884.677 659.107 879.115 669.254 875.705 680.194C871.634 693.83 870.202 708.116 871.485 722.288C872.061 733.39 873.795 743.997 874.934 755.132C877.256 772.835 877.846 790.722 876.697 808.54C875.613 820.686 873.53 832.724 870.471 844.529C866.461 860.55 861.887 876.537 858.221 892.465C854.371 909.517 852.79 927.003 853.519 944.469C854.252 962.355 855.329 980.15 855.718 998.128C856.142 1014.35 853.525 1030.51 848.003 1045.77C845.865 1051.57 843.375 1057.22 840.549 1062.72C837.032 1070.15 832.394 1076.99 826.796 1083.01C821.897 1088.6 816.563 1093.79 810.844 1098.54C802.262 1105.37 792.588 1110.71 782.229 1114.32C768.052 1119.59 752.71 1120.89 737.848 1118.1C731.111 1116.99 724.577 1114.89 718.46 1111.85C712.599 1109.09 706.903 1106 701.4 1102.58C694.448 1097.99 687.967 1093.08 681.612 1087.96C674.602 1082.46 667.844 1076.52 660.708 1071.23C655.629 1067.43 650.424 1063.84 645.093 1060.47C633.994 1053.48 622.768 1046.71 611.417 1040.15C598.849 1033.19 585.81 1026.53 573.241 1019.57C565.049 1014.64 557.548 1008.65 550.935 1001.74C544.253 995.149 538.614 987.575 534.215 979.283C529.474 970.528 525.97 961.159 523.802 951.442C519.97 934.386 518.674 916.465 517.505 898.327C516.257 872.495 511.035 856.448 504.853 826.937C493.141 771.031 458.41 771.26 477.714 715.584C484.317 696.541 493.583 738.074 501.776 758.391C510.529 780.1 513.569 805.828 519.467 822.33C526.949 844.527 531.636 867.568 533.418 890.924C534.319 905.916 536.1 920.842 538.753 935.625C541.642 951.364 548.088 966.235 557.6 979.104C566.672 990.284 577.648 999.774 590.021 1007.14C612.127 1020.77 635.275 1032.1 656.28 1047.14C659.739 1049.72 663.324 1052.08 666.657 1054.87C671.081 1058.3 675.035 1062.04 679.46 1065.47C683.884 1068.9 688.652 1072.23 693.295 1075.78C698.629 1080.07 704.195 1084.06 709.968 1087.74C715.985 1091.31 722.25 1094.44 728.717 1097.11C734.649 1099.8 741.017 1101.41 747.517 1101.85C760.27 1103.23 773.161 1101.24 784.904 1096.08C809.369 1085.46 825.993 1066.25 835.18 1039.24C839.656 1025.64 841.699 1011.35 841.215 997.031C840.574 979.489 839.118 962.349 838.351 945.025C837.128 923.779 839.398 902.475 845.072 881.963L845.073 881.962C849.646 865.975 854.219 849.989 858.23 833.968C862.554 817.775 864.472 801.034 863.922 784.283C862.878 765.926 861.054 747.41 859.665 729.145C858.38 715.276 858.916 701.299 861.258 687.57C864.137 672.427 870.649 658.208 880.232 646.135C887.77 636.789 896.757 628.712 906.851 622.211C927.076 608.857 948.651 601.231 970.008 593.479C983.848 588.663 997.78 584.192 1011.53 579.032C1022.27 575.046 1032.7 570.591 1043.13 566.135C1052.75 562.082 1061.93 557.777 1071.23 553.254C1095.61 541.603 1118.39 526.879 1139.02 509.442C1150.45 499.738 1161.06 488.405 1171.77 477.416C1181.76 467.175 1191.35 456.119 1202.92 447.666C1211.77 440.872 1222.17 436.375 1233.18 434.576C1246.16 432.758 1258 434.937 1270.19 437.023C1283.93 439.429 1297.46 441.709 1311.75 440.647C1320.36 440.437 1328.8 438.238 1336.42 434.223C1347.17 428.205 1352.3 419.818 1352.36 407.625C1352.32 400.512 1350.57 393.512 1347.26 387.218C1340.78 374.745 1331.5 365.606 1321.5 357.214C1314.71 351.838 1307.79 346.68 1301.6 340.774C1293.34 333.101 1288.07 322.737 1286.75 311.538C1285.54 299.646 1286.64 287.633 1290.01 276.162C1292.16 267.542 1295.31 259.203 1299.4 251.316C1304.48 242.022 1309.33 232.602 1315.28 223.812C1322.61 213.249 1330.99 203.46 1340.3 194.597C1354.43 181.217 1368.74 168.524 1383.18 155.614" stroke="#DFE4E8" stroke-width="0.763236" stroke-linecap="round" stroke-linejoin="round"/>
<path d="M1093.29 1352.4C1100.1 1353.71 1107.38 1354.71 1114.44 1355.59C1153.92 1359.43 1193.23 1367.95 1232.6 1373.27C1294.94 1381.69 1397.58 1328.37 1396.64 1268.49C1395.9 1220.6 1311.16 1166.66 1271.53 1092.07C1266.36 1082.33 1262.82 1075.4 1258.7 1066.91C1252.86 1054.77 1247.95 1042.21 1244.02 1029.32C1237.85 1009.76 1234.82 988.795 1232.6 967.431C1230.93 950.166 1230.19 932.28 1228.18 915.106C1225.85 895.728 1222.48 876.488 1218.08 857.472C1215.35 846.563 1213.89 835.371 1213.76 824.124C1213.78 812.203 1217.1 800.519 1223.35 790.37C1226.82 784.907 1230.83 779.813 1235.33 775.167C1243.13 767.393 1251.84 760.597 1261.28 754.929C1279.93 743.288 1298.81 731.772 1317.28 719.443C1333 709.006 1346.72 695.83 1357.78 680.542C1365.39 670.462 1370.4 658.662 1372.38 646.185C1373.89 636.426 1373.3 626.455 1370.63 616.945C1368.44 608.459 1364.49 600.527 1359.04 593.664C1353.19 586.217 1345.53 580.392 1336.79 576.744C1331.27 574.719 1325.65 572.349 1319.88 570.76C1302.2 566.086 1283.22 566.189 1264.08 569.105C1241.43 572.237 1219.29 579.976 1196.82 587.833L1196.43 587.969C1191.14 589.571 1186.03 591.862 1180.74 593.464C1165.53 598.645 1150.45 603.608 1135.37 608.572L1135.34 608.581C1125.32 611.819 1115.3 615.058 1105.16 618.514C1090.07 623.481 1074.97 628.447 1059.85 633.976C1049.23 637.743 1038.55 642.635 1027.99 647.309C1015.14 652.574 1003.2 659.821 992.599 668.787C987.626 673.172 983.195 678.139 979.402 683.579C975.507 689.584 972.98 696.371 971.998 703.461C970.303 714.986 970.514 726.711 972.625 738.168C974.569 750.932 977.42 763.638 979.583 776.529C981.074 785.54 982.096 794.861 983.243 803.964C986.816 832.265 985.78 860.958 980.176 888.928C977.494 901.639 975.03 914.476 972.565 927.313L972.564 927.318C969.494 942.718 966.643 958.244 963.447 973.862C960.478 987.574 957.601 1001.63 954.289 1015.43C950.936 1029.77 946.43 1043.81 940.814 1057.42C937.23 1066.17 933.174 1074.71 928.664 1083.01C921.949 1095.73 914.46 1108.03 906.239 1119.83C902.686 1124.47 899.787 1129.49 896.452 1134.26C892.234 1140.56 887.362 1146.48 883.363 1152.9C879.363 1159.32 875.801 1166 872.457 1172.8C866.936 1183.87 867.487 1193.51 873.64 1202.01C878.239 1208.15 884.225 1211.9 890.304 1215.99C895.072 1219.33 900.815 1221.48 905.836 1224.38C917.28 1231.28 928.941 1238.3 940.385 1245.2C942.567 1246.46 944.716 1248.28 946.992 1249.89C952.289 1253.82 957.242 1257.84 962.414 1261.99C966.183 1265.04 970.297 1268 973.94 1271.27C981.756 1278.4 989.664 1285.87 997.48 1293.01C1007.76 1302.43 1017.9 1312.07 1028.31 1321.28C1035.4 1327.5 1042.81 1333.33 1050.52 1338.76C1055.6 1341.98 1061.06 1344.55 1066.77 1346.4C1075.49 1348.9 1084.34 1350.91 1093.29 1352.4Z" stroke="#DFE4E8" stroke-width="0.763236" stroke-linecap="round" stroke-linejoin="round"/>
<path d="M1100.77 1316.26C1113.14 1319.03 1123.04 1323.02 1137.71 1325.36C1210.54 1336.99 1321.04 1370.96 1319.83 1275.38C1319.04 1212.33 1279.11 1140.41 1259.25 1112.34C1255.28 1105.1 1250.84 1098.17 1247 1090.71C1241.36 1079.3 1235.84 1067.68 1230.67 1055.96C1222.61 1037.03 1216.97 1017.15 1213.9 996.799C1212.26 986.537 1211.21 975.746 1209.57 965.484C1207.1 950.091 1204.64 934.698 1201.7 919.615C1198.19 900.997 1191.04 884.645 1183.55 868.385C1177.91 857.208 1173.35 845.514 1169.95 833.465C1167.22 821.945 1167.36 809.934 1170.35 798.481C1173.82 785.936 1179.95 774.286 1188.33 764.326C1197.96 752.598 1209.26 742.356 1221.88 733.931C1233.3 726.259 1244.99 719.62 1256.68 712.982C1271.54 704.388 1286.58 696.482 1300.39 684.663C1309.72 677.15 1317.59 667.973 1323.58 657.597C1326.41 652.376 1328.39 646.739 1329.44 640.897C1332.3 623.339 1325.41 612.085 1314.38 603.969C1306.32 598.884 1297.2 595.71 1287.72 594.69C1274.41 593.359 1260.96 594.037 1247.85 596.701C1231.12 600.074 1214.58 604.321 1198.3 609.424C1180.49 614.566 1162.9 619.833 1144.96 625.194C1125.52 631.141 1105.64 636.837 1086.16 643.347C1069.95 648.563 1054.38 655.583 1039.73 664.275C1030.02 670.016 1020.48 676.445 1012.87 686.603C1006.79 694.37 1003.02 703.694 1002 713.505C1000.89 724.905 1001.73 736.411 1004.47 747.532C1007.57 759.801 1010.33 772.163 1013.44 784.433C1017.92 801.867 1023.1 819.117 1024.67 838.07C1025.92 851.775 1025.01 865.59 1021.99 879.015C1018.68 892.819 1014.36 906.337 1010.14 920.2C1004.85 936.934 998.989 953.635 993.912 970.495C988.583 987.792 984.034 1005.25 979.049 1022.45C973.385 1042.04 966.234 1061.17 957.659 1079.67C953.743 1088.46 949.265 1097.23 944.694 1105.65C940.123 1114.07 935.426 1122.71 930.637 1131.01C926.53 1138.11 923.095 1145.58 920.377 1153.32C916.38 1163.17 916.043 1174.12 919.426 1184.2C923.043 1193.56 929.078 1200.25 935.584 1206.63C940.596 1211.56 945.985 1215.83 951.341 1220.67C956.697 1225.51 961.835 1230.22 967.099 1234.72C971.489 1238.71 976.006 1242.48 980.522 1246.25C983.637 1248.92 986.625 1251.81 989.74 1254.48C994.131 1258.47 998.647 1262.25 1003.16 1266.02C1006.81 1269.29 1010.58 1272.33 1014.35 1275.38C1017.68 1278.18 1021.26 1280.54 1024.72 1283.12C1030.67 1287.43 1036.41 1291.61 1042.49 1295.71C1046.15 1297.96 1050 1299.9 1054 1301.48C1059.55 1304.4 1065.33 1306.87 1071.29 1308.84C1080.93 1311.79 1090.74 1313.96 1100.77 1316.26Z" stroke="#DFE4E8" stroke-width="0.763236" stroke-linecap="round" stroke-linejoin="round"/>
<path d="M1318.99 1012.39C1319.02 1011.06 1318.92 1009.73 1318.66 1008.42C1313.79 991.06 1311.22 973.138 1311.02 955.11C1310.9 939.997 1312.3 924.91 1315.19 910.076C1318 893.921 1323.13 878.254 1330.41 863.56C1336.43 851.111 1343.8 839.36 1352.39 828.516C1364.61 813.665 1378.37 800.145 1393.43 788.18C1408.83 776.118 1424.11 764.275 1439.3 752.086C1450.91 743.366 1460.39 732.118 1467.02 719.194C1470.39 712.552 1472.65 705.402 1473.71 698.027C1475.4 685.477 1474.56 672.715 1471.22 660.498C1467.53 646.725 1463.37 633.263 1458.74 620.112C1451.2 598.881 1443.2 577.96 1435.19 557.04C1429.91 542.221 1422.95 528.051 1414.47 514.803C1408.5 505.111 1399.29 497.839 1388.48 494.271C1381.18 491.901 1373.57 490.644 1365.9 490.544C1346.95 490.085 1327.97 490.188 1308.78 490.165C1292.52 490.092 1275.92 490.112 1259.34 491.602C1237.74 493.765 1216.84 500.435 1197.98 511.182C1177.63 522.721 1157.26 534.824 1136.79 546.582C1118.77 556.767 1100.09 565.719 1080.86 573.377C1057.25 583.026 1033.35 591.642 1009.55 600.603C1005.73 602.181 1001.82 603.414 997.778 604.865C986.474 608.817 975.422 612.332 964.21 616.628C956.076 619.668 948.163 623.268 940.526 627.402C932.219 631.668 924.29 636.631 916.824 642.241C908.033 648.923 900.676 657.306 895.193 666.891C889.709 676.476 886.21 687.066 884.905 698.031C883.028 712.373 884.501 725.448 885.849 738.742C887.163 752.598 889.258 766.614 890.572 780.47C891.699 793.848 891.345 807.309 889.517 820.609C887.186 838.764 882.385 856.656 878.021 874.802C875.759 884.265 873.589 894.072 871.89 903.569C867.886 925.124 868.979 946.42 869.544 967.119C870.108 987.819 870.672 1008.52 866.232 1029.82C863.505 1043.64 858.746 1056.98 852.112 1069.4C849.199 1074.53 845.96 1079.47 842.416 1084.18C835.928 1093.62 828.036 1102.02 819.013 1109.09C806.225 1119.39 791.574 1127.13 775.86 1131.9C750.439 1139.64 727.347 1136.78 706.668 1125.72C699.771 1121.83 693.127 1117.51 686.779 1112.78C683.631 1110.67 680.86 1107.91 677.838 1105.58C674.069 1102.53 670.207 1099.14 666.219 1095.96C661.795 1092.53 657.026 1089.2 652.384 1085.65C646.868 1081.59 641.478 1077.31 635.711 1073.69C626.979 1068.65 618.339 1063.95 609.574 1059.47C603.772 1056.42 597.627 1053.45 591.699 1050.61C584.025 1046.76 576.569 1043.04 569.24 1039.1C566.494 1037.8 564.471 1035.76 561.852 1034.25C554.612 1030.16 547.895 1025.2 541.845 1019.5C533.39 1011.81 526.193 1002.84 520.516 992.922C509.874 974.554 504.498 953.113 502.6 930.188C501.135 915.081 500.359 899.789 499.238 884.589C498.222 869.015 495.277 853.627 490.47 838.779C485.319 822.999 473.537 806.347 462.886 790.286C446.038 764.879 469.781 652.964 490.47 685.647C503.479 706.2 505.762 729.394 509.889 745.241C517.627 774.947 518.991 788.876 528.137 813.366C534.957 832.179 539.918 851.615 542.948 871.396C544.347 880.063 544.714 889.006 546.114 897.672C547.412 908.026 549.147 918.633 551.134 928.803C553.824 942.515 559.44 955.486 567.597 966.831C572.242 973.363 577.784 979.208 584.059 984.194C589.667 988.596 595.057 992.872 600.572 996.93C605.777 1000.52 611.016 1003.54 616.348 1006.91C627.883 1014.15 639.201 1021.27 650.737 1028.51C655.146 1031.34 659.41 1034.38 663.514 1037.63C667.938 1041.06 672.329 1045.05 676.753 1048.48C682.361 1052.88 687.877 1056.94 693.485 1061.34C699.53 1066 705.448 1070.87 711.745 1075.09C718.765 1079.67 726.374 1083.28 734.364 1085.82C747.045 1090.43 760.869 1090.86 773.814 1087.06C797.95 1080.03 814.348 1062.72 823.812 1036.75C828.467 1023.03 830.411 1008.54 829.535 994.072C828.919 978 827.396 961.985 826.435 946.005C825.017 923.923 827.379 901.761 833.418 880.474C838.185 863.144 843.859 845.754 848.407 828.298C852.657 812.01 854.429 795.176 853.663 778.36C853.013 762.85 851.456 747.398 850.243 731.855C848.884 716.745 849.456 701.525 851.946 686.56C855.082 671.054 861.712 656.467 871.332 643.908C880.07 632.609 890.831 623.031 903.066 615.661C921.847 603.801 941.574 596.855 960.991 589.438C976.117 583.909 991.553 578.85 1006.68 573.321C1016.13 570.049 1025.53 565.87 1034.8 561.909C1041.41 559.031 1047.93 555.809 1054.45 552.586C1070.86 544.553 1086.54 535.103 1101.32 524.344C1109.66 518.26 1117.47 511.476 1124.67 504.064C1132.36 496.539 1139.22 488.205 1145.13 479.206C1150.44 471.023 1155.32 462.571 1159.75 453.884C1164.39 444.338 1167.72 434.035 1172.36 424.489C1178.31 412.028 1187.39 401.328 1198.72 393.436C1208.85 386.477 1218.98 379.519 1228.99 372.779C1240.59 364.932 1249.21 353.39 1253.43 340.029C1260.8 318.677 1266.06 296.972 1275 275.939C1278.67 267.577 1282.2 259.432 1286.3 251.322C1292.54 239.253 1300 227.856 1308.56 217.311C1318.77 204.751 1329.93 193 1341.95 182.162C1353.41 171.896 1364.96 161.974 1376.41 151.708" stroke="#DFE4E8" stroke-width="0.763236" stroke-linecap="round" stroke-linejoin="round"/>
<path d="M1350.44 136.709C1342.72 143.022 1334.78 149.208 1327.28 155.647C1312.61 167.484 1298.55 180.058 1285.15 193.321C1275.51 203.47 1266.4 214.215 1257.72 225.213C1246.34 239.888 1235.17 254.689 1223.38 268.549C1211.22 283.064 1196.97 294.631 1180.25 300.403C1169.17 304.409 1157.15 305.062 1145.7 302.282C1134.67 299.7 1125.32 293.718 1115.84 287.955C1110.84 284.425 1106.05 280.593 1101.51 276.48C1097.74 273.43 1093.63 270.473 1089.86 267.423C1086.09 264.374 1082.01 260.854 1078.24 257.805C1076.6 256.325 1074.87 254.94 1073.07 253.654C1065.85 248.714 1058.35 244.192 1050.62 240.111C1037.16 233.564 1022.13 230.94 1007.26 232.539C991.04 233.87 975.648 240.253 963.249 250.789C956.92 255.931 951.903 262.501 948.608 269.96C945.314 277.419 943.837 285.553 944.299 293.694C945.016 308.079 950.059 320.013 956.169 331.108C962.721 343.434 970.754 354.914 980.091 365.293C987.276 373.516 994.714 381.303 1002.15 389.09C1008.97 395.936 1016.13 402.689 1023.07 409.317C1030.76 416.667 1038.45 424.017 1046.01 431.586C1053.45 438.746 1059.39 447.318 1063.47 456.801C1067.58 466.675 1067.84 477.728 1064.21 487.787C1061.03 496.332 1055.97 504.056 1049.41 510.388C1037.49 522.346 1023.7 532.275 1008.58 539.782C987.11 551.254 965.191 558.973 943.237 567.254C924.222 574.012 905.758 582.23 888.008 591.832C871.205 601.036 856.349 613.414 844.263 628.28C826.178 651.15 815.73 679.12 814.394 708.246C813.632 724.688 813.997 741.197 814.143 757.581C814.777 779.205 812.034 800.796 806.01 821.574C802.202 834.22 797.269 846.797 792.68 859.283C789.671 868.023 786.225 876.512 783.435 885.378C779.797 897.069 777.078 909.026 775.303 921.14C773.495 936.493 772.644 951.942 772.752 967.4C773.036 976.711 772.25 986.022 770.409 995.153C768.18 1004.05 764.206 1011.95 755.278 1015.81C749.952 1018.3 743.895 1018.74 738.265 1017.05C730.209 1015.16 722.702 1011.42 716.334 1006.14C713.549 1003.95 710.612 1001.96 707.544 1000.19C702.558 996.727 698.041 992.955 693.054 989.494L686.883 985.058C681.896 981.597 676.565 978.227 671.704 974.548C667.154 971.339 663.074 967.819 658.524 964.609C654.628 961.778 650.388 959.04 646.619 955.99C641.666 951.966 636.62 947.598 631.919 943.138C622.355 933.842 614.452 922.979 608.551 911.018C603.614 900.335 599.595 889.251 596.537 877.887C590.472 856.631 584.66 834.939 576.622 814.582C569.481 796.198 561.745 778.342 554.949 759.866C547.658 740.231 542.123 719.571 536.461 699.13C533.509 688.112 526.789 666.478 526.789 666.478C526.789 666.478 515.317 633.379 502.269 616.818C448.632 548.74 408.87 734.689 429.537 821.574C433.315 837.457 440.671 859.598 443.464 873.31C445.979 885.966 447.625 898.78 448.389 911.662C449.282 928.053 451.13 944.377 453.924 960.553C457.137 976.779 462.294 992.558 469.284 1007.55C475.362 1020.49 482.846 1032.71 491.601 1044.01C498.012 1052.48 505.397 1060.16 513.604 1066.9C519.212 1071.3 524.819 1075.7 530.553 1079.89C534.667 1082.84 539.251 1085.49 543.709 1088.36C554.716 1095 566.067 1101.56 576.948 1108.42C582.061 1111.66 586.67 1115.78 591.875 1119.37C597.993 1123.92 603.377 1129.39 607.842 1135.57C615.891 1146.33 619.49 1159.76 617.637 1175.57C616.126 1185.19 613.437 1194.58 609.634 1203.55C603.305 1220.56 597.539 1237.6 595.803 1255.23C594.21 1269.68 595.799 1284.31 600.459 1298.08C603.899 1307.92 608.122 1317.46 613.088 1326.62C618.702 1336.56 624.661 1346.4 630.494 1356.46L646.406 1384.86C649.364 1391.24 653.594 1396.95 658.838 1401.64C661.481 1403.48 664.58 1404.57 667.797 1404.77C675.077 1405.66 682.404 1406.1 689.738 1406.09C704.116 1405.9 718.449 1407.71 732.328 1411.47C740.103 1413.63 748.097 1415.92 755.62 1418.52C762.581 1421.08 769.289 1424.08 776.124 1426.86C784.394 1430.18 792.446 1433.37 800.591 1436.91C805.335 1438.78 809.918 1441.42 814.881 1443.42C820.279 1445.66 825.804 1447.68 831.329 1449.71C835.636 1451.32 839.599 1453.03 844.033 1454.43C850.809 1457.11 857.716 1459.45 864.73 1461.43C875.41 1464.1 886.125 1466.21 897.091 1467.89C917.645 1470.61 938.535 1469.22 958.544 1463.78C970.125 1460.86 981.74 1457.38 993.321 1454.46C1000.13 1452.25 1007.43 1452.02 1014.36 1453.81C1020.02 1455.62 1023.15 1459.76 1026.26 1464.46C1030.26 1471.14 1031.82 1479.02 1033.73 1486.82C1034.52 1490.48 1039.61 1532.96 1040.36 1537.29C1051.59 1602.53 1033.7 1665.92 1033.73 1667.39" stroke="#DFE4E8" stroke-width="0.763236" stroke-linecap="round" stroke-linejoin="round"/>
<path d="M1158.38 1289.56C1139.26 1286.93 1119.78 1280.43 1100.66 1276.61C1091.17 1274.91 1081.58 1272.87 1072.24 1270.39C1065.51 1268.26 1058.95 1265.64 1052.61 1262.55C1047.51 1260.33 1042.57 1257.77 1037.83 1254.88C1032.06 1251.26 1026.67 1246.98 1021.15 1242.93C1009.84 1234.34 999.482 1224.56 990.267 1213.75C982.024 1204.33 974.159 1194.26 969.494 1181.67C965.164 1169.54 964.731 1156.37 968.255 1143.99C971.193 1133.82 974.884 1123.89 979.299 1114.27C985.996 1098.64 992.694 1083.01 998.519 1066.87C1004.76 1049.51 1009.65 1031.97 1015.45 1014.36C1020.39 997.551 1026.32 981.051 1033.21 964.945C1036.71 957.364 1039.87 949.874 1043.59 942.418C1047.06 935.399 1050.44 928.036 1054.57 921.395C1060.33 911.496 1066.64 901.922 1073.45 892.716C1078.55 885.485 1084.85 879.179 1092.08 874.071C1095.43 871.853 1099.23 870.385 1103.2 869.766C1107.17 869.147 1111.23 869.392 1115.1 870.484C1122.66 872.519 1128.71 877.173 1134.97 881.953C1144.16 889.332 1152.17 898.078 1158.71 907.883C1166.65 919.768 1172.43 932.96 1175.79 946.853C1178.8 958.778 1180.87 971.324 1183.29 983.778C1186.95 1003.65 1190.14 1023.83 1196.12 1042.71C1200.14 1055.53 1205.21 1067.99 1211.28 1079.98C1216.05 1088.85 1220.36 1098.03 1225.26 1106.68C1231.32 1117.6 1241.18 1129.26 1244.18 1141.47" stroke="#DFE4E8" stroke-width="0.763236" stroke-linecap="round" stroke-linejoin="round"/>
<path d="M1493.3 206.359C1490.2 222.815 1489.12 239.587 1490.07 256.305C1491.55 274.224 1495.23 291.892 1501.03 308.909C1505.07 320.421 1508.17 332.239 1510.32 344.249C1512.32 355.853 1511.26 367.78 1507.22 378.845C1503.25 389.596 1497.17 399.445 1489.34 407.81C1481.64 415.592 1474.07 423.155 1465.98 430.123C1458.95 436.25 1451.48 442.126 1446.03 450.043C1442.02 455.84 1439.87 462.725 1439.88 469.775C1439.34 479.385 1440.36 489.021 1442.91 498.302C1446.85 513.67 1450.65 529.257 1455.62 544.349C1463.18 567.049 1471.55 589.347 1479.45 611.955C1484.09 625.107 1488.37 638.35 1492.53 651.813C1496.14 663.357 1497.64 675.46 1496.94 687.537C1496.42 696.796 1494.23 705.885 1490.47 714.364C1484.73 727.345 1475.9 737.091 1466.1 745.989C1453.2 757.75 1438.75 767.158 1424.91 777.508C1406.79 790.262 1390.27 805.158 1375.72 821.872C1370.18 828.268 1365.23 835.152 1360.94 842.441C1357.79 847.898 1354.07 853.322 1351.36 859.031C1347.72 866.702 1344.53 874.58 1341.81 882.625C1336 901.011 1333.17 920.208 1333.43 939.489C1333.23 952.223 1334.59 964.934 1337.48 977.337C1337.63 978.387 1337.6 979.453 1337.4 980.494" stroke="#DFE4E8" stroke-width="0.763236" stroke-linecap="round" stroke-linejoin="round"/>
<path d="M1150.01 1246.6C1134.14 1243.84 1118.2 1242.21 1102.2 1239.67C1092.52 1238.21 1082.95 1236.09 1073.56 1233.32C1065.02 1230.56 1056.96 1226.5 1049.67 1221.27C1042.11 1215.98 1035.41 1209.56 1029.8 1202.23C1023.13 1193.79 1018.58 1183.88 1016.52 1173.32C1014.75 1163.51 1015.2 1153.42 1017.84 1143.81C1020.77 1132.69 1024.13 1121.83 1027.71 1111.09C1033.13 1094.13 1037.77 1077.02 1041.51 1059.97C1045.94 1040.7 1049.93 1021.18 1056.4 1001.91C1059.56 992.974 1063.33 984.259 1067.67 975.827C1071.99 967.506 1077.19 959.678 1083.19 952.479C1089.63 944.848 1097.1 938.972 1106.05 936.574C1111.87 934.882 1118.11 935.377 1123.59 937.965C1135.22 943.519 1141.93 954.086 1146.94 966.582C1151.03 977.387 1154.03 988.577 1155.89 999.981C1160.51 1022.73 1165.13 1045.48 1173.13 1066.4C1178.86 1080.7 1185.66 1094.54 1193.46 1107.82C1202.45 1123.5 1211.45 1139.17 1220.2 1155.28C1222.96 1160.07 1224.78 1165.49 1227.07 1170.6" stroke="#DFE4E8" stroke-width="0.763236" stroke-linecap="round" stroke-linejoin="round"/>
<path d="M1341.67 132.239C1340.73 132.86 1339.7 133.137 1338.76 133.758L1338.75 133.76C1328.34 141.717 1317.92 149.673 1307.82 158.1C1292.47 171.069 1277.13 184.038 1263.64 199.83C1251.98 213.472 1240.42 227.458 1228.76 241.099C1218.07 253.558 1206.73 265.638 1193.13 274.082C1177.17 284.078 1161.65 286.76 1146.16 283.346C1135 280.982 1125.65 275 1116.17 269.236C1110.23 265.166 1104.5 260.789 1099.01 256.123C1093.83 251.973 1089.13 247.512 1083.96 243.362C1079.97 240.187 1075.73 237.448 1071.84 234.617C1066.94 231.5 1062.3 227.946 1057.37 225.392C1045.7 219.215 1032.79 215.739 1019.59 215.219C1002.58 214.695 985.688 218.209 970.3 225.473C958.708 230.464 948.299 237.843 939.752 247.129C934.608 252.703 930.707 259.306 928.309 266.502C925.91 273.698 925.069 281.322 925.841 288.867C926.878 300.821 930.246 312.456 935.756 323.115C942.576 337.291 951.151 350.554 961.28 362.591C973.501 377.214 985.849 391.62 998.794 405.497C1010.03 417.802 1021.85 429.579 1031.77 443.161C1037.6 450.549 1041.57 459.231 1043.35 468.474C1044.79 476.824 1043.68 485.415 1040.17 493.128C1034.08 506.2 1024.38 515.443 1013.75 523.274C1002.23 531.817 989.662 538.843 976.354 544.18C965.234 548.82 954.332 553.586 943.213 558.227C936.259 561.197 929.028 563.134 922.074 566.105C905.16 573.22 888.119 580.554 872.127 591.113C857.548 600.384 844.572 611.963 833.706 625.396C827.933 632.449 822.862 640.049 818.567 648.088C811.214 662.035 806.084 677.044 803.362 692.573C799.804 712.347 799.907 731.325 799.413 750.832C799.175 762.337 798.155 773.681 797.353 785.152C795.876 799.166 792.621 812.935 787.667 826.128C783.994 836.522 779.666 846.539 775.556 856.682C767.463 876.749 759.37 896.816 753.275 917.454C750.326 927.099 747.032 936.837 743.738 946.574L743.735 946.582C738.7 960.848 729.73 967.311 717.386 966.005C711.029 965.111 704.854 963.216 699.09 960.39C693.777 958.231 688.609 955.733 683.616 952.911C675.447 947.903 667.875 942.368 659.958 936.924C652.611 931.879 646.017 925.818 640.372 918.922C632.859 910.333 626.664 900.675 621.991 890.264C612.979 871.09 607.259 849.742 599.313 829.729C591.367 809.715 583.169 790.138 575.097 770.343C566.839 750.282 559.851 729.722 554.174 708.784C548.915 689.157 537.549 650.871 537.549 650.871C537.549 650.871 523.567 607.954 492.231 587.711C435.522 551.076 396.377 709.534 412.215 817.871C415.137 837.861 422.841 882.097 427.487 908.04C430.926 927.246 430.466 941.193 432.862 957.712C435.616 975.165 440.67 992.177 447.894 1008.3C453.449 1021.27 460.065 1033.75 467.675 1045.63C475.539 1058.12 484.988 1069.54 495.786 1079.61C502.544 1085.55 509.773 1091.18 516.783 1096.68C521.425 1100.24 526.32 1103.35 531.089 1106.69C537.696 1111.37 544.647 1115.97 551.128 1120.88C559.76 1126.84 567.47 1134.04 574.013 1142.24C583.431 1154.66 587.02 1170.12 584.125 1188.24C582.005 1200.99 579.322 1213.7 576.858 1226.54C573.033 1243.41 571.65 1260.75 572.752 1278.01C574.304 1294.3 577.975 1310.31 583.67 1325.65C588.267 1339.36 593.553 1352.89 595.581 1368.03C597.334 1379.88 595.787 1391.98 591.11 1403C588.471 1408.83 585.263 1414.39 581.532 1419.59C577.567 1425.45 568.802 1437.83 563.924 1444.58C527.71 1494.69 521.26 1507.78 504.993 1558.06C478.502 1639.94 544.038 1709.71 536.048 1721.46" stroke="#DFE4E8" stroke-width="0.763236" stroke-linecap="round" stroke-linejoin="round"/>
<path d="M1329.48 124.61C1319.06 132.567 1308.65 140.524 1298.11 148.7C1282.52 160.338 1267.89 173.206 1254.35 187.18C1244.84 197.111 1235.85 207.638 1226.77 217.821C1216.12 229.717 1205.25 241.487 1192.08 250.182C1179.85 258.256 1167.2 262.014 1154.51 260.801C1145.63 259.839 1137.06 256.975 1129.38 252.404C1121.12 247.592 1113.33 242.02 1106.1 235.761C1099.34 229.822 1092.58 223.883 1085.57 218.381C1079.87 213.881 1073.94 209.68 1067.81 205.796C1063.27 202.741 1058.53 200.004 1053.62 197.604C1045.29 193.997 1036.41 191.822 1027.36 191.171C1011.38 190.62 995.445 192.953 980.303 198.059C963.572 203.165 947.599 210.486 932.808 219.826C924.118 225.228 916.472 232.152 910.238 240.267C903.682 249.197 900.111 259.969 900.034 271.048C899.937 285.836 904.476 298.643 909.611 310.922C915.577 324.55 923.06 337.462 931.919 349.414C944.408 367.103 958.217 383.516 972.151 399.71C981.015 410.067 989.754 420.642 998.022 431.527C1004.95 439.955 1010.48 449.437 1014.4 459.614C1017.69 467.911 1018.33 477.022 1016.23 485.696C1014.84 491.138 1012.47 496.279 1009.22 500.86C998.776 514.914 985.606 523.609 971.505 530.893C961.947 535.853 951.986 539.998 942.244 544.269C933.316 548.138 924.296 551.662 915.495 555.312C897.787 562.392 880.693 570.922 864.389 580.815C848.297 590.837 833.9 603.352 821.735 617.892C817.964 622.409 814.628 627.178 811.293 631.946C808.479 635.73 805.973 639.734 803.799 643.918C796.005 658.27 790.184 673.609 786.494 689.519C781.81 709.226 780.88 728.481 779.48 748.046C778.181 765.924 776.32 783.767 770.83 801.845C768.176 810.939 764.888 819.836 760.988 828.47C757.77 835.053 754.644 841.98 751.426 848.562C746.065 858.856 740.486 869.022 734.47 878.938C729.496 887.556 722.864 895.103 714.956 901.143C710.708 904.292 705.776 906.394 700.563 907.279C695.349 908.163 690 907.804 684.951 906.231C678.785 904.6 673.005 901.758 667.949 897.87C662.836 893.864 658.114 889.383 653.846 884.488C647.152 876.805 641.512 868.263 637.076 859.089C632.427 850.001 628.374 840.385 623.977 830.861C617.599 816.701 611.348 802.323 604.844 788.381C592.609 762.69 580.97 736.47 573.313 707.891C568.574 690.894 564.305 673.585 559.44 656.806C556.546 646.694 550.349 621.125 544.081 610.567C519.388 568.968 457.559 505.038 425.988 614.81C394.416 724.583 383.257 731.83 395.452 839.663C396.399 848.037 399.642 905.355 400.11 912.611C401.482 927.374 401.822 942.414 403.664 956.866C405.498 973.351 411.279 988.039 417.438 1002.07C422.331 1012.76 427.567 1023.35 433.056 1033.5C441.487 1050.05 451.556 1065.71 463.112 1080.25C469.182 1088.04 476.15 1095.1 483.872 1101.26C490.663 1106.64 497.237 1111.89 504.155 1117.04C509.234 1120.85 514.221 1124.31 519.174 1128.33C528.487 1134.99 536.864 1142.86 544.081 1151.74C553.281 1164.03 557.685 1179.09 556.856 1196.66C556.248 1206.79 555.17 1217.22 554.218 1227.44C552.221 1247.54 550.695 1267.32 553.048 1286.43C554.825 1300.03 557.565 1313.47 561.248 1326.68C563.982 1337.57 566.716 1348.46 568.418 1359.63C570.707 1373.65 569.417 1388.02 564.667 1401.41C561.392 1410.47 548.452 1429.34 540.713 1437.5C504.201 1476.02 502.257 1501.2 481.333 1546.96C457.213 1599.72 520.188 1675.67 510.169 1709.63" stroke="#DFE4E8" stroke-width="0.763236" stroke-linecap="round" stroke-linejoin="round"/>
<path d="M1481.95 199.805C1477.28 223.014 1474.64 246.232 1476.45 268.813C1477.65 281.072 1479.56 293.252 1482.17 305.292C1484.76 318.435 1488.52 331.083 1489.15 345.123C1489.98 355.545 1487.7 365.979 1482.6 375.108C1478.29 382.656 1471.68 388.628 1463.74 392.157C1457.71 395.25 1450.74 395.999 1444.19 394.259C1437.79 392.374 1432.19 388.425 1428.26 383.027C1421.86 374.963 1415.71 366.463 1409.77 358.089C1400.56 344.906 1390.31 332.473 1379.14 320.904C1369.46 310.95 1359.28 301.869 1351.05 290.421C1344.75 282.436 1340.82 272.842 1339.71 262.732C1338.6 252.622 1340.35 242.403 1344.77 233.241C1346.73 228.672 1348.92 224.206 1351.33 219.858C1357.15 209.46 1364.42 199.935 1372.9 191.566C1384.08 180.267 1395.88 169.908 1407.37 159.079C1407.85 158.769 1408.53 158.584 1409 158.273" stroke="#DFE4E8" stroke-width="0.763236" stroke-linecap="round" stroke-linejoin="round"/>
<path d="M1321.25 107.61C1317.61 109.876 1314.1 111.924 1310.56 114.534C1296.51 124.758 1282.24 134.855 1268.37 145.767C1256.09 155.849 1244.53 166.777 1233.77 178.472C1223.53 189.151 1213.51 199.954 1202.56 209.348C1191.6 218.741 1179.26 225.001 1166.28 224.787C1160.11 224.993 1153.98 223.655 1148.45 220.894C1144.85 219.446 1141.4 217.651 1138.15 215.533C1132.14 211.173 1126.43 206.417 1121.05 201.294C1108.96 189.346 1098.28 176.049 1089.22 161.665C1085.65 156.559 1082.79 150.993 1080.72 145.119C1078.31 138.199 1079.59 131.952 1087.12 126.983C1095.58 121.393 1104.14 116.148 1112.58 111.12C1125.01 104.216 1136.43 95.629 1146.52 85.6032C1152.39 79.8087 1157.33 73.1325 1161.14 65.8154C1165.9 56.8356 1169.23 47.1661 1170.99 37.1583C1171.64 32.0026 1174.34 10.8586 1170.99 -5.57603" stroke="#DFE4E8" stroke-width="0.763236" stroke-linecap="round" stroke-linejoin="round"/>
<path d="M996.306 1673.1C996.438 1671.74 1025.29 1589.68 1012.92 1537.97C1011.27 1531.06 1009.91 1526.05 1007.88 1520.5C1004.99 1511.72 999.131 1504.22 991.306 1499.29C985.95 1496.12 980.001 1494.07 973.825 1493.28C961.825 1491.88 949.54 1491.48 937.381 1490.86C920.495 1490.18 903.698 1488.08 887.167 1484.57C878.358 1482.69 870.147 1480.28 861.372 1477.83C852.598 1475.38 844.075 1472.5 835.553 1469.62C828.03 1467.02 820.633 1464.21 812.891 1461.48C805.15 1458.76 797.156 1456.47 789.162 1454.19C776.342 1450.19 763.141 1447.55 749.773 1446.29C735.517 1445 687.066 1435.31 649.461 1446.29C619.868 1454.93 600.735 1460.78 580.427 1484.57C531.832 1541.51 493.7 1578.11 545.736 1673.1" stroke="#DFE4E8" stroke-width="0.763236" stroke-linecap="round" stroke-linejoin="round"/>
<path d="M667.155 1475.14C699.52 1460.09 742.315 1471.83 758.505 1472C769.139 1471.91 779.752 1472.96 790.162 1475.14C802.749 1478.04 815.554 1481.07 827.981 1484.75C839.971 1488.18 851.457 1492.48 863.321 1496.13C875.748 1499.81 888.301 1503.28 900.854 1506.74C915.968 1510.81 931.46 1514.23 946.196 1518.95C958.841 1522.76 970.066 1529.53 977.36 1541.6C981.532 1548.72 983.991 1556.72 984.54 1564.95C985.421 1574.83 984.324 1584.79 981.315 1594.23C980.491 1596.67 979.323 1599.2 978.499 1601.63" stroke="#DFE4E8" stroke-width="0.763236" stroke-linecap="round" stroke-linejoin="round"/>
<path d="M706.873 1496.72C725.107 1488.33 766.812 1495.42 784.69 1496.72C801.566 1498.05 818.233 1501.32 834.357 1506.48C842.006 1508.86 850.126 1510.92 857.649 1513.52C864.517 1515.74 871.134 1518.4 877.75 1521.05C884.366 1523.71 891.453 1526.05 898.069 1528.71C900.504 1529.53 902.687 1530.79 904.996 1531.83C911.67 1535.4 918.597 1538.52 924.894 1542.74C937.269 1551.05 947.258 1561.47 949.931 1579.02C951.783 1591.45 949.445 1604.07 944.73 1616.77C941.278 1626.73 938.491 1635.6 931.999 1646.38" stroke="#DFE4E8" stroke-width="0.763236" stroke-linecap="round" stroke-linejoin="round"/>
<path d="M1307.49 99.6759C1306.41 100.046 1305.36 100.512 1304.36 101.069C1288.62 111.191 1272.76 121.531 1257.02 131.654C1244.58 140.223 1232.9 149.835 1222.09 160.387C1214.43 167.606 1206.64 175.044 1198.55 182.011C1190.45 188.978 1181.23 193.846 1171.48 194.615C1167.72 195.038 1163.92 194.673 1160.31 193.542C1156.7 192.412 1153.37 190.541 1150.53 188.05C1145.47 184.074 1141.57 178.808 1139.25 172.805C1137.64 168.786 1136.88 164.478 1137.02 160.151C1137.17 155.825 1138.21 151.576 1140.08 147.672C1143.11 140.401 1148.29 134.953 1153.17 129.034C1159.01 121.932 1165.39 115.426 1171.24 108.324C1176.78 101.415 1181.51 93.8935 1185.34 85.9071C1191.29 72.6634 1195.36 58.6545 1197.44 44.2854C1199.52 29.9163 1197.18 -3.93244 1197.44 -6.40118" stroke="#DFE4E8" stroke-width="0.763236" stroke-linecap="round" stroke-linejoin="round"/>
<path d="M714.362 1525.18C725.934 1518.4 755.201 1518.7 768.469 1516.75C781.749 1514.62 795.286 1514.67 808.55 1516.89C820.318 1518.4 831.889 1521.18 843.06 1525.18C850.801 1527.9 858.761 1530.75 866.377 1533.69C871.121 1535.56 875.612 1537.86 880.23 1539.94C884.615 1541.89 888.895 1544.07 893.051 1546.47C903.151 1553.17 912.873 1560.53 919.201 1571.75C923.817 1580.05 926.138 1589.43 925.926 1598.92C926.149 1612.15 924.283 1623.76 917.936 1637.97" stroke="#DFE4E8" stroke-width="0.763236" stroke-linecap="round" stroke-linejoin="round"/>
<path d="M1053.81 303.638C1056.89 306.872 1059.97 310.105 1062.71 313.432C1065.91 316.952 1068.04 321.31 1068.85 325.996C1069.29 328.544 1069.17 331.158 1068.5 333.654C1067.86 335.207 1066.78 336.542 1065.4 337.501C1064.03 338.46 1062.4 339.001 1060.72 339.06C1057.87 339.382 1054.99 339.015 1052.32 337.991C1041.98 334.312 1033.5 326.702 1028.74 316.814C1026.98 313.372 1026.39 309.454 1027.04 305.645C1027.51 303.822 1028.47 302.161 1029.81 300.842C1031.46 299.274 1033.51 298.196 1035.73 297.73C1037.95 297.265 1040.26 297.431 1042.39 298.209C1046.14 299.789 1049.85 301.932 1053.47 303.73" stroke="#DFE4E8" stroke-width="0.763236" stroke-linecap="round" stroke-linejoin="round"/>
<path d="M932.728 1306.85C937.43 1311.31 942.853 1315.03 947.05 1320.36C952.443 1326.99 957.344 1334 961.713 1341.34C967.147 1350.8 970.301 1361.39 970.924 1372.27C971.838 1384.07 968.829 1395.84 962.364 1405.75C957.178 1413.79 950.204 1420.52 941.987 1425.42C928.916 1433.05 913.988 1436.93 898.854 1436.61C886.009 1436.44 873.284 1434.11 861.211 1429.72C854.032 1427.03 847.105 1423.9 840.178 1420.78C836.74 1419.38 833.405 1417.75 830.196 1415.89C823.899 1411.67 817.728 1407.23 811.558 1402.8C802.54 1396.08 794.641 1387.99 788.154 1378.81C778.057 1364.83 740.088 1345.15 746.263 1317.81C752.047 1301.91 770.606 1291.98 797.646 1285.17C817.803 1280.1 847.243 1282.72 864.399 1282.54C875.653 1282.32 886.86 1284.06 897.516 1287.69C908.381 1291.05 911.448 1292.21 921.052 1297.75" stroke="#DFE4E8" stroke-width="0.763236" stroke-linecap="round" stroke-linejoin="round"/>
<path d="M925.239 1321.62C936.707 1330.6 946.977 1355.18 948.484 1369.16C950.35 1386.4 936.67 1399.99 921.553 1408.38C910.682 1414.33 898.21 1416.7 885.913 1415.16C877.097 1414.37 868.486 1412.06 860.462 1408.32C854.454 1405.49 848.613 1402.31 842.966 1398.8C833.528 1392.73 824.727 1383.35 815.95 1373.82C800.363 1356.9 787.54 1352.12 776.529 1331.92C762.707 1306.56 801.111 1291.87 829.885 1297.84C847.515 1301.5 865.28 1299.43 889.316 1305.24C901.704 1308.23 918.687 1316.22 925.239 1321.62Z" stroke="#DFE4E8" stroke-width="0.763236" stroke-linecap="round" stroke-linejoin="round"/>
<path d="M914.88 1337.4C921.634 1346.05 927.416 1356.48 925.858 1367.34C924.079 1379.74 909.226 1387.91 903.657 1390.47C895.131 1394.59 885.353 1395.3 876.323 1392.45C871.511 1391.3 866.902 1389.42 862.654 1386.88C848.502 1377.71 792.166 1344.5 802.449 1328.09C811.024 1313.71 852.021 1308.92 879.288 1321.44C890.132 1326.41 905.028 1324.79 914.88 1337.4Z" stroke="#DFE4E8" stroke-width="0.763236" stroke-linecap="round" stroke-linejoin="round"/>
<path d="M1214.79 656.491C1219.44 663.547 1216.98 668.819 1211.86 675.175C1202.71 686.483 1191.97 696.002 1181.77 706.117C1171.56 716.233 1162.05 726.164 1152.06 736.406C1140.25 748.796 1128.87 761.439 1116.63 773.578C1108.93 781.36 1100.03 786.697 1090.21 786.56C1084.24 786.51 1078.49 784.233 1074.11 780.173C1070.81 777.457 1067.78 774.439 1065.05 771.159C1057.13 761.809 1051.46 750.767 1048.47 738.883C1046.64 731.896 1046.19 724.619 1047.16 717.461C1048.84 706.5 1054.32 696.477 1062.63 689.142C1070.87 681.837 1080.27 675.952 1090.44 671.726C1114.91 661.111 1139.47 656.375 1164.15 653.452C1177 651.629 1190.02 651.424 1202.92 652.843C1206.91 653.186 1210.77 654.421 1214.22 656.457" stroke="#DFE4E8" stroke-width="0.763236" stroke-linecap="round" stroke-linejoin="round"/>
<path d="M946.853 1294.4C944.709 1292.44 941.803 1290.42 933.513 1282.83C925.223 1275.24 913.673 1272.56 901.25 1268.95C885.531 1264.37 846.103 1262.24 832.032 1262.49C793.961 1262.86 716.043 1249.44 701.709 1288.9C688.705 1324.7 704.66 1375.06 754.329 1391.79C781.99 1401.1 810.95 1425.09 818.829 1430.36C822.845 1432.69 827.018 1434.74 831.319 1436.48C839.985 1440.4 848.651 1444.31 857.631 1447.68C872.733 1453.18 888.647 1456.11 904.708 1456.34C923.631 1456.76 942.289 1451.95 958.619 1442.44C968.886 1436.34 977.594 1427.95 984.066 1417.92C992.133 1405.56 995.877 1390.87 994.715 1376.14C993.919 1362.55 989.958 1349.32 983.149 1337.51C977.674 1328.33 971.535 1319.57 964.781 1311.29C959.525 1304.62 952.738 1299.98 946.853 1294.4Z" stroke="#DFE4E8" stroke-width="0.763236" stroke-linecap="round" stroke-linejoin="round"/>
</g>
<defs>
<clipPath id="clip0_522_2547">
<rect width="1299" height="1657" fill="white" transform="matrix(1 0 0 -1 0 1657)"/>
</clipPath>
</defs>
</svg>
