<svg width="206" height="120" viewBox="0 0 206 120" fill="none" xmlns="http://www.w3.org/2000/svg">
<rect width="206" height="120" rx="3" fill="white"/>
<path fill-rule="evenodd" clip-rule="evenodd" d="M60.6082 61.4722L62.7865 55.9399L64.0173 56.4246L61.839 61.9568L60.6082 61.4722Z" fill="#FF9900"/>
<path fill-rule="evenodd" clip-rule="evenodd" d="M57.0909 64.6724L51.6704 63.3715L51.9791 62.0852L57.3997 63.3861L57.0909 64.6724Z" fill="#FF9900"/>
<path fill-rule="evenodd" clip-rule="evenodd" d="M45.2803 68.4857L47.6365 64.0643L48.8039 64.6864L46.4477 69.1078L45.2803 68.4857Z" fill="#FF9900"/>
<path fill-rule="evenodd" clip-rule="evenodd" d="M63.9152 55.3509C65.0111 55.3509 65.8994 54.4625 65.8994 53.3666C65.8994 52.2708 65.0111 51.3824 63.9152 51.3824C62.8193 51.3824 61.931 52.2708 61.931 53.3666C61.931 54.4625 62.8193 55.3509 63.9152 55.3509ZM63.9152 56.6737C65.7416 56.6737 67.2222 55.1931 67.2222 53.3666C67.2222 51.5402 65.7416 50.0596 63.9152 50.0596C62.0888 50.0596 60.6082 51.5402 60.6082 53.3666C60.6082 55.1931 62.0888 56.6737 63.9152 56.6737Z" fill="#FF9900"/>
<path fill-rule="evenodd" clip-rule="evenodd" d="M59.8903 66.1952C60.9862 66.1952 61.8745 65.3068 61.8745 64.211C61.8745 63.1151 60.9862 62.2267 59.8903 62.2267C58.7944 62.2267 57.9061 63.1151 57.9061 64.211C57.9061 65.3068 58.7944 66.1952 59.8903 66.1952ZM59.8903 67.518C61.7167 67.518 63.1973 66.0374 63.1973 64.211C63.1973 62.3845 61.7167 60.9039 59.8903 60.9039C58.0639 60.9039 56.5833 62.3845 56.5833 64.211C56.5833 66.0374 58.0639 67.518 59.8903 67.518Z" fill="#FF9900"/>
<path fill-rule="evenodd" clip-rule="evenodd" d="M49.1872 63.9305C50.283 63.9305 51.1714 63.0421 51.1714 61.9462C51.1714 60.8504 50.283 59.962 49.1872 59.962C48.0913 59.962 47.2029 60.8504 47.2029 61.9462C47.2029 63.0421 48.0913 63.9305 49.1872 63.9305ZM49.1872 65.2533C51.0136 65.2533 52.4942 63.7727 52.4942 61.9462C52.4942 60.1198 51.0136 58.6392 49.1872 58.6392C47.3607 58.6392 45.8801 60.1198 45.8801 61.9462C45.8801 63.7727 47.3607 65.2533 49.1872 65.2533Z" fill="#FF9900"/>
<path fill-rule="evenodd" clip-rule="evenodd" d="M45.2096 73.4489C46.3055 73.4489 47.1939 72.5605 47.1939 71.4646C47.1939 70.3688 46.3055 69.4804 45.2096 69.4804C44.1138 69.4804 43.2254 70.3688 43.2254 71.4646C43.2254 72.5605 44.1138 73.4489 45.2096 73.4489ZM45.2096 74.7717C47.0361 74.7717 48.5167 73.2911 48.5167 71.4646C48.5167 69.6382 47.0361 68.1576 45.2096 68.1576C43.3832 68.1576 41.9026 69.6382 41.9026 71.4646C41.9026 73.2911 43.3832 74.7717 45.2096 74.7717Z" fill="#FF9900"/>
<path fill-rule="evenodd" clip-rule="evenodd" d="M71.1017 79.0561L71.1016 79.0675V79.1371H71.1003C70.9853 82.5499 63.6094 85.3031 54.5274 85.3031C45.4454 85.3031 38.0695 82.5499 37.9545 79.1371H37.9531L37.9531 41.0258C37.9531 37.5757 45.3737 34.7788 54.5274 34.7788C63.6811 34.7788 71.1017 37.5757 71.1017 41.0258L71.1016 41.0372V79.0447L71.1017 79.0561ZM68.9191 42.4698C69.5902 41.8718 69.7763 41.3837 69.7788 41.0332L69.7788 41.0258C69.7788 40.6748 69.5949 40.184 68.9191 39.5818C68.2445 38.9806 67.1931 38.3787 65.7806 37.8464C62.9653 36.7852 58.987 36.1017 54.5274 36.1017C50.0678 36.1017 46.0895 36.7852 43.2742 37.8464C41.8617 38.3787 40.8103 38.9806 40.1357 39.5818C39.4599 40.184 39.2759 40.6748 39.2759 41.0258C39.276 41.3769 39.4599 41.8677 40.1357 42.4698C40.8103 43.071 41.8617 43.6729 43.2742 44.2053C46.0895 45.2664 50.0678 45.95 54.5274 45.95C58.987 45.95 62.9653 45.2664 65.7806 44.2053C67.1931 43.6729 68.2445 43.071 68.9191 42.4698ZM54.5274 47.2728C61.3742 47.2728 67.2514 45.708 69.7788 43.4755V70.2737H69.7804V79.0756H69.7787C69.7719 79.4252 69.5825 79.909 68.9191 80.5001C68.2445 81.1013 67.1931 81.7032 65.7806 82.2356C62.9653 83.2967 58.987 83.9803 54.5274 83.9803C50.0678 83.9803 46.0895 83.2967 43.2742 82.2356C41.8617 81.7032 40.8103 81.1013 40.1357 80.5001C39.4723 79.909 39.2829 79.4252 39.2761 79.0756H39.2742V70.2737H39.2759L39.2759 43.4755C41.8033 45.708 47.6805 47.2728 54.5274 47.2728Z" fill="#FF9900"/>
<path d="M141.697 54.7268C140.198 53.8819 138.453 53.6352 136.8 53.6759L141.249 47.3238C141.661 46.7549 141.892 46.3948 141.895 46.1187V44.4764C141.895 44.1906 141.675 43.9916 141.399 43.9916H132.813C132.548 43.9916 132.328 44.1864 132.328 44.4764V46.3948C132.328 46.6806 132.548 46.8754 132.824 46.8754H137.31L132.156 54.2672C131.844 54.7409 131.841 55.2733 131.841 55.5858V57.5294C131.841 57.8083 132.153 58.132 132.45 57.9708C135.371 56.421 138.879 56.5709 141.521 57.9568C141.845 58.1264 142.153 57.7985 142.153 57.5196V55.4737C142.128 55.1977 142.035 54.9188 141.697 54.7282V54.7268ZM111.829 43.7464C110.29 43.7464 108.853 44.5367 108.222 46.2294C107.488 44.5353 106.466 43.7464 104.831 43.7464C103.196 43.7464 102.028 44.5367 101.392 46.2294H101.345V44.4764C101.326 44.234 101.125 44.0392 100.871 44.028H98.4355C98.1566 44.028 97.9324 44.241 97.9324 44.5087V57.9162C97.9506 58.1544 98.1496 58.3422 98.3991 58.3604H101.011C101.29 58.3604 101.514 58.1432 101.514 57.8755V50.7696C101.514 49.2198 101.441 47.0744 103.318 47.0744C105.194 47.0744 104.926 49.2744 104.926 50.7696L104.93 57.8741C104.93 58.132 105.136 58.3408 105.401 58.359H108.009C108.288 58.359 108.512 58.1418 108.512 57.8741V50.7696C108.512 50.0087 108.487 48.8779 108.755 48.201C109.022 47.5242 109.684 47.1024 110.316 47.1024C111.072 47.1024 111.657 47.3561 111.851 48.2557C111.976 48.7924 111.924 50.2021 111.924 50.7682V57.8727C111.924 58.1306 112.133 58.3394 112.395 58.3576H115.003C115.282 58.3576 115.506 58.1404 115.506 57.8727L115.51 49.4118C115.51 47.9754 115.68 46.3373 114.853 45.2093C114.121 44.1948 112.925 43.7435 111.829 43.7435V43.7464ZM149.287 43.7464C145.506 43.7464 143.408 46.9903 143.408 51.1634C143.408 55.3364 145.481 58.6392 149.287 58.6392C153.093 58.6392 155.26 55.3953 155.26 51.3063C155.26 47.2173 153.163 43.7464 149.287 43.7464ZM149.287 55.8773C147.237 55.8773 147.262 52.3797 147.262 50.7416C147.262 49.1035 147.384 46.4831 149.308 46.4831C150.137 46.4831 150.722 46.8474 151.016 47.7793C151.358 48.8526 151.406 50.2035 151.406 51.3357C151.406 53.0551 151.31 55.8759 149.285 55.8759L149.287 55.8773ZM167.258 45.3256C166.524 44.1681 165.381 43.7464 164.209 43.7464C162.406 43.7464 161.38 44.6208 160.65 46.4536H160.602V44.4036C160.55 44.1948 160.364 44.0392 160.136 44.0294H157.714C157.449 44.0294 157.233 44.22 157.211 44.4666L157.215 57.8755C157.215 58.1334 157.424 58.3422 157.686 58.3604H160.287C160.566 58.3604 160.794 58.1432 160.797 57.8755V50.6561C160.797 49.7523 160.845 48.9367 161.212 48.117C161.502 47.471 162.086 47.0436 162.722 47.0436C164.526 47.0436 164.358 49.189 164.358 50.6547V57.9358C164.383 58.1642 164.582 58.3394 164.82 58.3576H167.439C167.697 58.3576 167.913 58.1698 167.942 57.9358V49.4986C167.942 48.2024 167.942 46.3976 167.258 45.3256ZM129.15 53.4811V49.4104C129.15 47.6868 129.272 46.1033 128 44.9178C126.997 43.9551 125.336 43.6174 124.065 43.6174C121.582 43.6174 118.807 44.5437 118.224 47.6139C118.166 47.9404 118.401 48.1142 118.614 48.1618L121.149 48.4337C121.384 48.4224 121.557 48.1912 121.6 47.9558C121.817 46.8978 122.706 46.3878 123.702 46.3878C124.239 46.3878 124.848 46.5868 125.168 47.0674C125.532 47.6041 125.483 48.3384 125.483 48.9591V49.2968C123.97 49.4692 121.99 49.5799 120.572 50.2049C118.936 50.9097 117.787 52.3545 117.787 54.4732C117.787 57.1875 119.5 58.5439 121.695 58.5439C123.555 58.5439 124.568 58.1067 126.002 56.6452C126.479 57.3318 126.634 57.6667 127.501 58.387C127.696 58.4893 127.945 58.4795 128.118 58.3239L128.125 58.3309C128.646 57.8685 129.595 57.0418 130.127 56.5976C130.34 56.421 130.304 56.1379 130.134 55.9039C129.656 55.2425 129.149 54.7058 129.149 53.4825L129.15 53.4811ZM124.995 54.7268C124.581 55.4611 123.922 55.9137 123.188 55.9137C122.185 55.9137 121.6 55.15 121.6 54.022C121.6 51.7953 123.596 51.3918 125.483 51.3918V51.9579C125.483 52.9752 125.508 53.8244 124.994 54.7282L124.995 54.7268ZM94.907 53.4811V49.4104C94.907 47.6868 95.029 46.1033 93.7566 44.9178C92.7561 43.9551 91.0955 43.6174 89.8232 43.6174C87.3401 43.6174 84.5669 44.5437 83.9826 47.6139C83.9238 47.9404 84.1592 48.1142 84.3722 48.1618L86.9071 48.4337C87.1425 48.4224 87.3149 48.1912 87.3583 47.9558C87.5755 46.8978 88.4639 46.3878 89.4602 46.3878C89.9969 46.3878 90.6065 46.5868 90.926 47.0674C91.2903 47.6041 91.2413 48.3384 91.2413 48.9591V49.2968C89.7279 49.4692 87.7479 49.5799 86.3298 50.2049C84.6959 50.9097 83.5454 52.3531 83.5454 54.4732C83.5454 57.1875 85.2578 58.5439 87.4536 58.5439C89.3131 58.5439 90.3262 58.1067 91.7598 56.6452C92.2376 57.3318 92.3917 57.6667 93.2591 58.387C93.4539 58.4893 93.7033 58.4795 93.8757 58.3239L93.8827 58.3309C94.404 57.8685 95.3527 57.0418 95.8851 56.5976C96.0981 56.421 96.0617 56.1379 95.8922 55.9039C95.4143 55.2425 94.907 54.7058 94.907 53.4825V53.4811ZM90.7522 54.7268C90.3374 55.4611 89.6788 55.9137 88.9446 55.9137C87.9412 55.9137 87.3569 55.15 87.3569 54.022C87.3569 51.7953 89.3523 51.3918 91.2399 51.3918V51.9579C91.2399 52.9752 91.2651 53.8244 90.7508 54.7282L90.7522 54.7268Z" fill="#221F1F"/>
<path d="M125.752 75.7257C126.523 75.1063 126.909 74.2341 126.909 73.1091C126.909 72.692 126.833 72.3065 126.681 71.9526C126.542 71.586 126.378 71.2953 126.188 71.0804C126.011 70.8529 125.74 70.6253 125.373 70.3978C125.019 70.1576 124.728 69.987 124.501 69.8859C124.273 69.7721 123.945 69.6204 123.515 69.4308C123.06 69.2286 122.725 69.0769 122.51 68.9758C122.295 68.862 122.036 68.704 121.733 68.5018C121.429 68.2869 121.214 68.0594 121.088 67.8192C120.974 67.579 120.917 67.3073 120.917 67.0039C120.917 66.4224 121.145 65.9548 121.6 65.6008C122.055 65.2343 122.668 65.051 123.439 65.051C124.513 65.051 125.436 65.3038 126.207 65.8094V64.1978C125.436 63.8059 124.501 63.61 123.401 63.61C122.226 63.61 121.246 63.9197 120.462 64.539C119.691 65.1458 119.306 65.9927 119.306 67.0797C119.306 67.598 119.394 68.053 119.571 68.4449C119.748 68.8367 120.026 69.1843 120.405 69.4877C120.797 69.7784 121.132 69.9996 121.41 70.1513C121.701 70.303 122.118 70.4989 122.662 70.7391C122.813 70.8023 122.927 70.8529 123.003 70.8908C123.382 71.0677 123.679 71.2194 123.894 71.3458C124.122 71.4596 124.355 71.6113 124.596 71.8009C124.848 71.9778 125.025 72.1801 125.126 72.4076C125.24 72.6225 125.297 72.869 125.297 73.1471C125.297 73.817 125.07 74.3289 124.615 74.6829C124.16 75.0368 123.534 75.2138 122.737 75.2138C121.41 75.2138 120.285 74.8661 119.363 74.1709V75.8205C120.298 76.364 121.436 76.6358 122.775 76.6358C123.989 76.6358 124.981 76.3324 125.752 75.7257Z" fill="black"/>
<path fill-rule="evenodd" clip-rule="evenodd" d="M87.1313 71.2143H85.2711V76.5031H83.7354V63.7237H87.0913C89.5232 63.7237 91.4382 64.8574 91.4382 67.3809C91.4382 69.1743 90.6302 70.3386 89.2652 70.8734C90.2271 71.3774 90.7585 72.3692 90.9108 73.3936C90.9451 73.6244 90.9745 73.8586 91.0035 74.09C91.1357 75.1456 91.2609 76.1441 91.8186 76.5041H90.0645C89.755 76.1717 89.7058 75.7246 89.6338 75.0712C89.5936 74.7066 89.5464 74.2777 89.4429 73.7686C89.1806 72.4779 88.4185 71.4014 87.1313 71.2143ZM85.2711 65.032H87.1103C88.8305 65.032 89.8834 65.6882 89.8834 67.3809C89.8834 69.1056 89.0803 69.906 87.243 69.906H85.2711V65.032Z" fill="black"/>
<path d="M95.2049 76.5031H102.334V75.1569H96.7407V70.796H101.595V69.4498H96.7407V65.0699H102.239V63.7237H95.2049V76.5031Z" fill="black"/>
<path fill-rule="evenodd" clip-rule="evenodd" d="M109.709 76.5031H105.841V63.7237H109.633C111.517 63.7237 113.059 64.3115 114.26 65.4871C115.473 66.65 116.08 68.1605 116.08 70.0186C116.08 71.8641 115.517 73.4062 114.392 74.6449C113.28 75.8837 111.719 76.5031 109.709 76.5031ZM109.614 65.0889H107.396V75.1569H109.69C111.27 75.1569 112.465 74.6702 113.274 73.6969C114.083 72.711 114.487 71.4849 114.487 70.0186C114.487 68.6282 114.032 67.4589 113.122 66.5109C112.225 65.5629 111.055 65.0889 109.614 65.0889Z" fill="black"/>
<path d="M139.867 76.5031H138.331V70.7201H132.131V76.5031H130.595V63.7237H132.131V69.336H138.331V63.7237H139.867V76.5031Z" fill="black"/>
<path d="M144.03 76.5031H145.566V63.7237H144.03V76.5031Z" fill="black"/>
<path d="M156.09 70.9477H151.274V76.5031H149.738V63.7237H156.754V65.0699H151.274V69.6015H156.09V70.9477Z" fill="black"/>
<path d="M164.02 65.0699H167.471V63.7237H159.034V65.0699H162.485V76.5031H164.02V65.0699Z" fill="black"/>
</svg>
