<svg width="206" height="121" viewBox="0 0 206 121" fill="none" xmlns="http://www.w3.org/2000/svg">
<rect y="0.5" width="206" height="120" rx="3" fill="white"/>
<g clip-path="url(#clip0_2164_397)">
<path d="M86.1491 53.8298H84.4922L83.4689 51.7831H77.3775L76.3541 53.8298H74.6973L79.4729 44.7659H81.3247L86.1491 53.8298ZM82.7379 50.4187L80.4475 46.0329L78.1084 50.4187H82.7379Z" fill="#717073"/>
<path d="M86.1491 53.8298H84.4922L83.4689 51.7831H77.3775L76.3541 53.8298H74.6973L79.4729 44.7659H81.3247L86.1491 53.8298ZM82.7379 50.4187L80.4475 46.0329L78.1084 50.4187H82.7379Z" fill="#717073"/>
<path d="M95.0179 44.7659C95.9438 44.7659 96.6747 45.0095 97.2108 45.5456C97.7468 46.0816 98.0392 46.7638 98.0392 47.5923C98.0392 48.4694 97.7468 49.2004 97.2108 49.639C96.626 50.1263 95.8463 50.3699 94.7742 50.3699H89.3163V53.8299H87.8057V44.7659H95.0179ZM94.7255 49.0055C95.895 49.0055 96.4798 48.5182 96.4798 47.5923C96.4798 46.5689 95.8463 46.0816 94.628 46.0816H89.3163V48.9567H94.7255V49.0055Z" fill="#717073"/>
<path d="M95.0179 44.7659C95.9438 44.7659 96.6747 45.0095 97.2108 45.5456C97.7468 46.0816 98.0392 46.7638 98.0392 47.5923C98.0392 48.4694 97.7468 49.2004 97.2108 49.639C96.626 50.1263 95.8463 50.3699 94.7742 50.3699H89.3163V53.8299H87.8057V44.7659H95.0179ZM94.7255 49.0055C95.895 49.0055 96.4798 48.5182 96.4798 47.5923C96.4798 46.5689 95.8463 46.0816 94.628 46.0816H89.3163V48.9567H94.7255V49.0055Z" fill="#717073"/>
<path d="M109.15 53.8298H107.493L106.469 51.7831H100.329L99.306 53.8298H97.6492L102.425 44.7659H104.325L109.15 53.8298ZM105.739 50.4187L103.448 46.0329L101.109 50.4187H105.739Z" fill="#717073"/>
<path d="M109.15 53.8298H107.493L106.469 51.7831H100.329L99.306 53.8298H97.6492L102.425 44.7659H104.325L109.15 53.8298ZM105.739 50.4187L103.448 46.0329L101.109 50.4187H105.739Z" fill="#717073"/>
<path d="M120.651 46.8126L119.286 47.2999C118.36 46.3253 117.093 45.8379 115.436 45.8379C114.169 45.8379 113.146 46.1791 112.366 46.8126C111.587 47.4461 111.197 48.2745 111.197 49.2491C111.197 50.2725 111.587 51.1009 112.366 51.7344C113.146 52.3679 114.218 52.6603 115.534 52.6603C117.142 52.6603 118.409 52.173 119.286 51.1496L120.553 51.8806C119.92 52.6603 119.189 53.1963 118.36 53.5375C117.532 53.8786 116.557 54.0248 115.436 54.0248C113.828 54.0248 112.513 53.6349 111.44 52.8065C110.222 51.8806 109.637 50.7111 109.637 49.2004C109.637 47.7385 110.271 46.5689 111.489 45.643C112.561 44.8146 113.877 44.4247 115.436 44.4247C117.678 44.4735 119.432 45.2532 120.651 46.8126Z" fill="#717073"/>
<path d="M120.651 46.8126L119.286 47.2999C118.36 46.3253 117.093 45.8379 115.436 45.8379C114.169 45.8379 113.146 46.1791 112.366 46.8126C111.587 47.4461 111.197 48.2745 111.197 49.2491C111.197 50.2725 111.587 51.1009 112.366 51.7344C113.146 52.3679 114.218 52.6603 115.534 52.6603C117.142 52.6603 118.409 52.173 119.286 51.1496L120.553 51.8806C119.92 52.6603 119.189 53.1963 118.36 53.5375C117.532 53.8786 116.557 54.0248 115.436 54.0248C113.828 54.0248 112.513 53.6349 111.44 52.8065C110.222 51.8806 109.637 50.7111 109.637 49.2004C109.637 47.7385 110.271 46.5689 111.489 45.643C112.561 44.8146 113.877 44.4247 115.436 44.4247C117.678 44.4735 119.432 45.2532 120.651 46.8126Z" fill="#717073"/>
<path d="M133.175 53.8299H131.664V49.7852H124.403V53.8299H122.893V44.7659H124.403V48.4207H131.664V44.7659H133.175V53.8299Z" fill="#717073"/>
<path d="M133.175 53.8299H131.664V49.7852H124.403V53.8299H122.893V44.7659H124.403V48.4207H131.664V44.7659H133.175V53.8299Z" fill="#717073"/>
<path d="M145.162 53.8299H135.708V44.7659H144.821V46.1303H137.219V48.4694H142.531V49.8339H137.219V52.4654H145.162V53.8299Z" fill="#717073"/>
<path d="M145.162 53.8299H135.708V44.7659H144.821V46.1303H137.219V48.4694H142.531V49.8339H137.219V52.4654H145.162V53.8299Z" fill="#717073"/>
<path d="M89.6573 57.6309C92.0938 57.6309 94.0431 58.2644 95.4563 59.5801C96.8695 60.8958 97.6005 62.6014 97.6005 64.7943C97.6005 66.7923 96.8208 68.4492 95.3101 69.8136C93.8969 71.0319 92.1426 71.6654 90.0959 71.6654H80.7395V57.6309H89.6573ZM90.2908 69.57C91.704 69.57 92.8248 69.1314 93.7507 68.2055C94.6279 67.3283 95.1152 66.1588 95.1152 64.7456C95.1152 63.2349 94.6279 62.0167 93.6532 61.0908C92.6786 60.1649 91.4116 59.7263 89.8522 59.7263H83.0786V69.57H90.2908Z" fill="#1B457B"/>
<path d="M116.898 71.6655H114.169L110.368 66.3051H103.302V71.6655H100.963V57.6309H112.025C113.487 57.6309 114.656 58.0208 115.485 58.8005C116.313 59.5802 116.752 60.6522 116.752 62.0167C116.752 63.1863 116.411 64.1609 115.728 64.8919C115.095 65.5741 114.218 66.0127 113.097 66.1589L116.898 71.6655ZM111.732 64.2096C113.536 64.2096 114.413 63.4787 114.413 62.0167C114.413 60.4573 113.438 59.6776 111.489 59.6776H103.302V64.1609H111.732V64.2096Z" fill="#1B457B"/>
<path d="M122.843 71.6655H120.504V57.6309H122.843V71.6655Z" fill="#1B457B"/>
<path d="M140.727 71.6655H127.57V57.6309H129.909V69.57H140.727V71.6655Z" fill="#1B457B"/>
<path d="M156.614 71.6655H143.457V57.6309H145.796V69.57H156.614V71.6655Z" fill="#1B457B"/>
<path d="M49.2593 39.5516L50.4288 42.4268L55.107 39.4054L51.2573 44.4735L50.2339 48.6156L53.0116 48.7131L53.6938 50.3699L58.3233 47.2999L54.5222 52.3679L53.4014 56.3151L56.1791 56.4126L56.8126 57.972L61.3933 54.9507L57.6898 60.1649L56.5689 64.0634L59.2979 64.1608L59.9801 65.769L64.7558 62.6502V62.6989L60.9547 67.8157L60.37 71.2268H63.5375L64.6096 72.6888L67.1923 70.9832L65.7791 74.4431L65.1456 77.5132L68.1182 77.4644L68.9954 78.634L70.9933 77.3182L69.8725 79.8035L74.3071 85.8462L73.6736 81.6066L74.7944 78.7802L73.2837 78.7314L72.5527 73.3223L74.0634 68.839L71.9192 68.7903L71.1883 63.6735L72.2116 59.8725L69.7751 59.775L68.2644 56.0227L69.3365 52.0268L66.5588 51.9293L65.1456 48.4207L66.169 44.3273L63.44 44.2298L61.9781 40.6725L63.0014 36.579L60.2725 36.4816L59.7365 35.2633L49.2593 39.5516Z" fill="url(#paint0_linear_2164_397)"/>
</g>
<defs>
<linearGradient id="paint0_linear_2164_397" x1="58.534" y1="63.8993" x2="70.0672" y2="59.3512" gradientUnits="userSpaceOnUse">
<stop stop-color="#C2C2C4"/>
<stop offset="1" stop-color="#717073"/>
</linearGradient>
<clipPath id="clip0_2164_397">
<rect width="107.291" height="75.3446" fill="white" transform="translate(49.3547 22.8277)"/>
</clipPath>
</defs>
</svg>
