<svg width="206" height="121" viewBox="0 0 206 121" fill="none" xmlns="http://www.w3.org/2000/svg">
<rect y="0.5" width="206" height="120" rx="3" fill="white"/>
<path fill-rule="evenodd" clip-rule="evenodd" d="M55 40.7983V87.5813C43.7612 87.5813 34.689 84.2639 34.689 80.2017V40.7983H55Z" fill="#0072C6"/>
<path fill-rule="evenodd" clip-rule="evenodd" d="M54.7292 87.5811V40.7981H75.3111V80.1338C75.3111 84.196 66.2388 87.5134 55.0001 87.5134L54.7292 87.5811Z" fill="#0072C6"/>
<path fill-rule="evenodd" clip-rule="evenodd" d="M54.7292 87.5811V40.7981H75.3111V80.1338C75.3111 84.196 66.2388 87.5134 55.0001 87.5134L54.7292 87.5811Z" fill="#2687CE"/>
<path fill-rule="evenodd" clip-rule="evenodd" d="M55 33.4188C43.7612 33.4188 34.689 36.7362 34.689 40.7984C34.689 44.8606 43.7612 48.1781 55 48.1781C66.2388 48.1781 75.311 44.8606 75.311 40.7984C75.311 36.7362 66.2388 33.4188 55 33.4188ZM45.2507 64.2238C44.4383 63.8176 43.8966 63.5468 43.6258 63.276C43.355 63.0051 43.2196 62.6666 43.2196 62.2604C43.2196 61.8542 43.4227 61.5157 43.6935 61.3126C44.032 61.1095 44.4383 60.974 44.9799 60.974C46.0631 60.974 47.0787 61.2449 47.9588 61.8542V59.1461C47.1464 58.8075 46.1308 58.6721 44.8445 58.6721C43.4227 58.6721 42.2717 59.0106 41.4593 59.6877C40.5792 60.3647 40.1729 61.3126 40.1729 62.4635C40.1729 64.0884 41.1208 65.3071 43.0842 66.2549C44.032 66.7288 44.7091 67.0673 44.9799 67.3382C45.3184 67.609 45.4538 67.9475 45.4538 68.3537C45.4538 68.7599 45.3184 69.0985 44.9799 69.3016C44.6414 69.5724 44.1674 69.6401 43.6258 69.6401C42.4072 69.6401 41.2562 69.2339 40.2406 68.3537V71.265C41.1208 71.7389 42.204 72.0097 43.5581 72.0097C45.1153 72.0097 46.334 71.6712 47.2141 70.9941C48.0942 70.3171 48.5682 69.3693 48.5682 68.1506C48.5682 67.2705 48.2973 66.5257 47.8234 65.9841C47.2818 65.3748 46.4017 64.7654 45.2507 64.2238ZM67.322 69.437V58.8752H64.4108V71.7389H72.0612V69.3693H67.322V69.437ZM59.4007 59.4846C58.4529 58.9429 57.4373 58.6721 56.2186 58.6721C54.9323 58.6721 53.849 58.9429 52.8335 59.4846C51.8856 60.0262 51.0732 60.8386 50.5316 61.9219C49.9899 62.9374 49.7191 64.1561 49.7191 65.5102C49.7191 66.7288 49.9899 67.8121 50.4639 68.7599C50.9378 69.7078 51.6825 70.5202 52.5627 71.0618C53.5105 71.6035 54.5261 71.942 55.6093 71.942L58.2497 74.9209H62.1088L58.3852 71.4681C59.6038 70.9941 60.6194 70.2494 61.2964 69.0985C61.9734 67.9475 62.312 66.6611 62.312 65.1717C62.312 63.8853 62.0411 62.7343 61.5672 61.7188C61.0256 60.7709 60.3486 60.0262 59.4007 59.4846ZM58.4529 68.4214C57.8435 69.1662 57.0988 69.5047 56.0832 69.5047C55.1354 69.5047 54.323 69.0984 53.7136 68.3537C53.1043 67.609 52.8335 66.5934 52.8335 65.3071C52.8335 64.0207 53.1043 63.0051 53.7136 62.2604C54.323 61.5157 55.1354 61.1095 56.1509 61.1095C57.1665 61.1095 57.9112 61.5157 58.4529 62.2604C58.9945 63.0051 59.333 64.0207 59.333 65.3748C59.333 66.6611 58.9945 67.6767 58.4529 68.4214Z" fill="white"/>
<path fill-rule="evenodd" clip-rule="evenodd" d="M71.1816 40.392C71.1816 37.6839 63.9373 35.5174 55.0004 35.5174C46.0636 35.5174 38.8193 37.6839 38.8193 40.392C38.8193 43.1002 46.0636 45.2667 55.0004 45.2667C63.9373 45.2667 71.1816 43.1002 71.1816 40.392Z" fill="#7FBA00"/>
<path fill-rule="evenodd" clip-rule="evenodd" d="M67.7964 43.371C64.8174 42.22 60.2136 41.4753 55.0004 41.4753C49.7873 41.4753 45.1835 42.22 42.2045 43.371C40.1057 42.5585 38.8193 41.543 38.8193 40.392C38.8193 37.6839 46.0636 35.5174 55.0004 35.5174C63.9373 35.5174 71.1816 37.6839 71.1816 40.392C71.1816 41.543 69.8952 42.5585 67.7964 43.371Z" fill="#B8D432"/>
<path d="M129.122 73.4774C125.81 73.2641 123.885 71.37 123.374 67.8246C123.239 66.8814 123.238 66.857 123.224 60.7341L123.211 54.8083H124.676H126.142L126.153 60.5401C126.164 65.7061 126.17 66.3118 126.219 66.6752C126.419 68.15 126.816 69.1418 127.492 69.8538C128.034 70.4235 128.667 70.7571 129.544 70.9341C129.958 71.0176 131.135 71.0178 131.512 70.9345C132.401 70.7379 133.114 70.3492 133.743 69.7178C134.459 68.9983 134.989 67.9773 135.246 66.8228L135.332 66.4337L135.342 60.6534L135.352 54.873H136.848H138.344V63.9599V73.0467H136.863H135.382V71.605C135.382 70.6254 135.372 70.1669 135.349 70.1745C135.331 70.1806 135.255 70.2975 135.18 70.4342C134.67 71.3691 133.82 72.224 132.888 72.7391C131.772 73.3565 130.652 73.5759 129.122 73.4774ZM162.73 73.4627C161.561 73.3744 160.331 72.9707 159.325 72.3456C157.205 71.0281 155.95 68.8564 155.583 65.8677C155.456 64.8335 155.44 63.4444 155.546 62.5656C155.783 60.602 156.552 58.6744 157.645 57.2983C157.926 56.9455 158.562 56.3065 158.913 56.0248C159.861 55.2643 160.97 54.7324 162.148 54.4736C162.834 54.3228 164.042 54.252 164.771 54.3199C166.603 54.4904 168.281 55.3566 169.422 56.7199C170.581 58.105 171.218 60.0405 171.299 62.4238C171.312 62.7973 171.315 63.4521 171.306 63.879L171.29 64.6551L164.876 64.6632L158.462 64.6714V64.9589C158.462 65.8342 158.674 66.8312 159.04 67.6794C159.356 68.4109 159.9 69.2096 160.345 69.5961C161.257 70.3887 162.374 70.8631 163.596 70.9772C164.05 71.0196 165.204 70.975 165.721 70.8953C167.194 70.6678 168.595 70.0873 169.726 69.2352C169.859 69.135 169.987 69.0413 170.009 69.0271C170.042 69.0063 170.05 69.2682 170.049 70.3691L170.048 71.737L169.745 71.9253C168.465 72.7204 166.999 73.231 165.447 73.4221C164.984 73.4791 163.284 73.5045 162.73 73.4627ZM168.312 61.926C168.312 60.4598 167.697 58.831 166.827 57.9923C166.206 57.3938 165.455 57.028 164.562 56.8891C164.14 56.8234 163.25 56.8487 162.804 56.9391C161.863 57.1301 161.085 57.5458 160.406 58.2199C159.691 58.9293 159.155 59.7909 158.818 60.7727C158.697 61.1257 158.555 61.7053 158.511 62.0276L158.49 62.1812H163.401H168.312V61.926ZM81.3113 73.0063C81.3188 72.984 83.4967 67.2361 86.1512 60.233L90.9774 47.5002L92.5281 47.5001L94.0788 47.5L94.2074 47.8315C94.6006 48.8444 103.869 73.0191 103.869 73.0316C103.869 73.0399 103.127 73.0466 102.219 73.0464L100.57 73.0461L99.2339 69.4731L97.8981 65.9001L92.5193 65.9L87.1405 65.9L87.0938 66.0212C87.0681 66.0879 86.4974 67.6957 85.8255 69.594L84.6039 73.0455L82.9508 73.046C81.6422 73.0465 81.3005 73.0383 81.3113 73.0063ZM96.9163 63.1734C96.9163 63.1678 96.0173 60.7194 94.9186 57.7326C92.863 52.1449 92.748 51.8087 92.5856 50.9116C92.5094 50.4909 92.4709 50.4792 92.4257 50.8631C92.3934 51.1374 92.2533 51.7514 92.1453 52.0919C92.0917 52.2609 91.166 54.8132 90.0882 57.7638C89.0105 60.7143 88.1286 63.1408 88.1286 63.156C88.1286 63.1713 90.1059 63.1837 92.5225 63.1837C94.9391 63.1837 96.9163 63.1791 96.9163 63.1734ZM104.867 72.5813V72.116L110.226 64.7152L115.585 57.3144L110.733 57.2983L105.881 57.2821L105.873 56.0452L105.864 54.8083H112.882H119.899V55.226V55.6438L114.54 63.085C111.592 67.1776 109.18 70.533 109.18 70.5414C109.18 70.5498 111.563 70.5567 114.476 70.5567H119.771V71.8017V73.0467H112.319H104.867V72.5813ZM144.192 73.0251C144.18 73.0133 144.17 68.9096 144.17 63.9059V54.8083H145.635H147.099V56.6839C147.099 57.7154 147.112 58.5594 147.127 58.5594C147.142 58.5594 147.214 58.3906 147.286 58.1842C147.615 57.2385 148.186 56.3548 148.922 55.6525C149.584 55.0198 150.342 54.6415 151.236 54.4967C151.487 54.456 151.699 54.4482 152.201 54.4614C152.832 54.4779 153.162 54.5242 153.545 54.6501L153.666 54.6898V56.217V57.7443L153.32 57.5703C152.709 57.2629 152.106 57.1412 151.381 57.1791C150.909 57.2038 150.599 57.2646 150.222 57.4069C149.446 57.6995 148.816 58.216 148.376 58.9211C147.739 59.9418 147.285 61.2539 147.151 62.4597C147.127 62.6762 147.113 64.4386 147.107 67.9131L147.099 73.0467H145.656C144.862 73.0467 144.203 73.037 144.192 73.0251Z" fill="black"/>
</svg>
