<svg width="206" height="120" viewBox="0 0 206 120" fill="none" xmlns="http://www.w3.org/2000/svg">
<rect width="206" height="120" rx="3" fill="white"/>
<path d="M48.9926 80.731L37.9964 61.6477C37.7077 61.1467 37.5557 60.5784 37.5557 59.9999C37.5557 59.4214 37.7077 58.8531 37.9964 58.3521L48.9926 39.2688C49.281 38.7685 49.6955 38.3529 50.1946 38.0637C50.6938 37.7745 51.2601 37.6218 51.8367 37.621H73.8412C74.4158 37.6239 74.9796 37.7776 75.4765 38.0667C75.9734 38.3558 76.3861 38.7702 76.6734 39.2688L87.6697 58.3521C87.9584 58.8531 88.1104 59.4214 88.1104 59.9999C88.1104 60.5784 87.9584 61.1467 87.6697 61.6477L76.6734 80.731C76.3851 81.2313 75.9705 81.6469 75.4714 81.9361C74.9722 82.2253 74.4059 82.378 73.8293 82.3788H51.8308C51.2552 82.3769 50.6901 82.2238 50.1921 81.9346C49.694 81.6455 49.2805 81.2304 48.9926 80.731Z" fill="#4386FA"/>
<path opacity="0.1" d="M69.7018 53.8549C69.7018 53.8549 72.7596 61.2015 68.5915 65.3655C64.4234 69.5296 56.8352 66.8646 56.8352 66.8646C56.8352 66.8646 68.1165 78.3158 72.2728 82.3728H73.8403C74.4169 82.372 74.9832 82.2193 75.4823 81.9301C75.9815 81.6409 76.396 81.2253 76.6843 80.725L83.9637 68.096L69.7018 53.8549Z" fill="black"/>
<path d="M73.314 68.8872L69.9355 65.5024C69.8989 65.4646 69.8569 65.4325 69.8108 65.4072C71.2404 63.554 71.9109 61.2244 71.6856 58.8931C71.4604 56.5618 70.3564 54.4043 68.5985 52.8601C66.8407 51.316 64.5613 50.5016 62.2249 50.5827C59.8885 50.6638 57.6709 51.6344 56.024 53.2967C54.377 54.959 53.4247 57.1879 53.3611 59.5292C53.2974 61.8705 54.1272 64.148 55.6814 65.8977C57.2356 67.6473 59.3972 68.7374 61.7258 68.9458C64.0543 69.1542 66.3745 68.4652 68.2136 67.0193C68.2376 67.0629 68.2676 67.103 68.3027 67.1383L71.6811 70.523C71.7302 70.5723 71.7885 70.6114 71.8527 70.6381C71.9169 70.6648 71.9857 70.6785 72.0552 70.6785C72.1247 70.6785 72.1935 70.6648 72.2577 70.6381C72.3219 70.6114 72.3802 70.5723 72.4293 70.523L73.314 69.6367C73.3631 69.5875 73.4022 69.5291 73.4288 69.4648C73.4554 69.4005 73.4691 69.3315 73.4691 69.2619C73.4691 69.1923 73.4554 69.1234 73.4288 69.0591C73.4022 68.9947 73.3631 68.9363 73.314 68.8872ZM62.5492 66.698C61.1823 66.698 59.8461 66.2919 58.7095 65.5311C57.573 64.7703 56.6871 63.6888 56.164 62.4236C55.6409 61.1584 55.5041 59.7661 55.7707 58.423C56.0374 57.0798 56.6957 55.846 57.6622 54.8776C58.6288 53.9093 59.8602 53.2498 61.2009 52.9826C62.5416 52.7154 63.9312 52.8526 65.1941 53.3766C66.4569 53.9007 67.5363 54.7882 68.2957 55.9269C69.0552 57.0656 69.4605 58.4043 69.4605 59.7738C69.4605 60.6831 69.2817 61.5835 68.9344 62.4236C68.5871 63.2637 68.078 64.027 67.4362 64.67C66.7945 65.313 66.0326 65.823 65.1941 66.171C64.3555 66.5189 63.4568 66.698 62.5492 66.698Z" fill="white"/>
<path d="M58.1299 59.405V62.2663C58.5699 63.0445 59.2068 63.6928 59.9765 64.1461V59.3871L58.1299 59.405Z" fill="white"/>
<path d="M58.1299 59.405V62.2663C58.5699 63.0445 59.2068 63.6928 59.9765 64.1461V59.3871L58.1299 59.405Z" fill="white"/>
<path d="M61.5869 57.0314V64.7646C62.1973 64.8773 62.8231 64.8773 63.4335 64.7646V57.0314H61.5869Z" fill="white"/>
<path d="M61.5869 57.0314V64.7646C62.1973 64.8773 62.8231 64.8773 63.4335 64.7646V57.0314H61.5869Z" fill="white"/>
<path d="M66.9313 62.2605V60.5652H65.0847V64.1343C65.8536 63.6828 66.4904 63.0365 66.9313 62.2605Z" fill="white"/>
<path d="M66.9313 62.2605V60.5652H65.0847V64.1343C65.8536 63.6828 66.4904 63.0365 66.9313 62.2605Z" fill="white"/>
<path d="M114.409 47.5501H106.07V50.0318H111.999C111.704 53.5169 108.811 54.9952 106.084 54.9952C105.226 55.0011 104.376 54.8373 103.582 54.5134C102.788 54.1894 102.065 53.7116 101.456 53.1073C100.847 52.5031 100.362 51.7842 100.031 50.992C99.6994 50.1998 99.5273 49.3499 99.5244 48.4909V48.3789C99.5095 47.5091 99.668 46.6451 99.9905 45.8375C100.313 45.0298 100.793 44.2948 101.403 43.6753C102.012 43.0559 102.739 42.5644 103.54 42.2299C104.342 41.8953 105.202 41.7242 106.07 41.7267C107.74 41.7288 109.343 42.381 110.541 43.5454L112.276 41.7536C111.442 40.9466 110.458 40.312 109.379 39.8862C108.301 39.4604 107.149 39.2517 105.99 39.2719C104.77 39.2433 103.557 39.4604 102.423 39.9103C101.288 40.3602 100.256 41.0338 99.3859 41.891C98.5162 42.7483 97.8272 43.7718 97.3597 44.9008C96.8922 46.0299 96.6559 47.2415 96.6645 48.4637C96.6732 49.686 96.9268 50.8941 97.4103 52.0164C97.8937 53.1387 98.5972 54.1522 99.479 54.997C100.361 55.8417 101.403 56.5005 102.544 56.9342C103.684 57.3678 104.9 57.5676 106.119 57.5216C110.988 57.5127 114.565 54.1664 114.565 49.2165C114.576 48.6631 114.525 48.1102 114.413 47.5681L114.409 47.5501Z" fill="black"/>
<path d="M121.272 45.7586C120.511 45.7432 119.754 45.8784 119.045 46.1567C118.336 46.4349 117.689 46.8506 117.14 47.38C116.592 47.9094 116.154 48.542 115.85 49.2415C115.546 49.9411 115.383 50.6938 115.37 51.4566V51.582C115.361 53.1449 115.973 54.6472 117.069 55.7586C118.166 56.87 119.659 57.4994 121.218 57.5083C122.778 57.5172 124.278 56.9049 125.387 55.8061C126.497 54.7073 127.125 53.2121 127.134 51.6492C127.134 47.761 124.089 45.7586 121.272 45.7586V45.7586ZM121.303 48.0701C122.989 48.0701 124.585 49.4139 124.585 51.6537C124.585 53.8935 122.994 55.2105 121.295 55.2105C119.426 55.2105 117.95 53.7098 117.95 51.6268C117.95 49.5438 119.403 48.079 121.299 48.079L121.303 48.0701Z" fill="black"/>
<path d="M134.06 45.7583C133.3 45.7453 132.545 45.8823 131.838 46.1616C131.131 46.4409 130.486 46.857 129.94 47.3862C129.393 47.9153 128.956 48.5471 128.654 49.2454C128.351 49.9438 128.189 50.6951 128.176 51.4563V51.5817C128.168 53.1442 128.779 54.646 129.876 55.7569C130.972 56.8678 132.465 57.4969 134.024 57.5058C135.584 57.5147 137.083 56.9027 138.192 55.8044C139.301 54.7061 139.93 53.2114 139.94 51.6489C139.94 47.7652 136.89 45.7628 134.064 45.7628L134.06 45.7583ZM134.096 48.0698C135.781 48.0698 137.378 49.4136 137.378 51.6534C137.378 53.8932 135.786 55.2102 134.087 55.2102C132.218 55.2102 130.742 53.7095 130.742 51.6265C130.742 49.5436 132.195 48.0787 134.091 48.0787L134.096 48.0698Z" fill="black"/>
<path d="M146.616 45.7582C143.486 45.7582 140.995 48.5176 140.995 51.622C140.972 53.1358 141.542 54.5985 142.583 55.6963C143.623 56.7942 145.052 57.4397 146.562 57.4946C147.172 57.5267 147.781 57.4135 148.339 57.1644C148.897 56.9152 149.388 56.5372 149.772 56.0612V57.2214C149.772 59.2461 148.547 60.4646 146.696 60.4646C146.046 60.4563 145.413 60.253 144.879 59.881C144.345 59.5089 143.934 58.9851 143.7 58.3771L141.465 59.3089C142.247 60.9887 143.852 62.7805 146.714 62.7805C149.844 62.7805 152.236 60.805 152.236 56.6659V46.1166H149.772V47.1021C149.372 46.6651 148.884 46.3191 148.339 46.0873C147.795 45.8555 147.207 45.7433 146.616 45.7582ZM146.844 48.0473C148.386 48.0473 149.973 49.3687 149.973 51.6309C149.973 53.8931 148.391 55.1653 146.808 55.1653C145.131 55.1653 143.571 53.8214 143.571 51.6354C143.571 49.3956 145.194 48.0518 146.848 48.0518L146.844 48.0473Z" fill="black"/>
<path d="M163.144 45.7586C160.175 45.7586 157.68 48.1238 157.68 51.6179C157.653 52.3868 157.782 53.1533 158.059 53.8708C158.337 54.5882 158.757 55.2417 159.295 55.7914C159.832 56.3411 160.475 56.7756 161.185 57.0684C161.896 57.3613 162.658 57.5065 163.426 57.495C164.393 57.4995 165.347 57.2672 166.204 56.8183C167.061 56.3694 167.796 55.7175 168.344 54.9193L166.319 53.5754C166.026 54.0726 165.608 54.4835 165.107 54.7667C164.605 55.0499 164.037 55.1953 163.462 55.1881C162.859 55.212 162.263 55.0539 161.751 54.7344C161.239 54.4149 160.835 53.9487 160.591 53.3962L168.442 50.1351L168.036 49.181C167.658 48.1861 166.99 47.328 166.12 46.7177C165.249 46.1075 164.215 45.7733 163.153 45.7586H163.144ZM163.247 47.9984C163.69 47.98 164.129 48.0881 164.513 48.3102C164.897 48.5323 165.21 48.8591 165.415 49.2527L160.171 51.4566C159.943 49.7544 161.552 48.0073 163.247 48.0073V47.9984Z" fill="black"/>
<path d="M153.94 57.1451H156.52V39.8586H153.94V57.1451Z" fill="black"/>
<path d="M97.1826 77.0553V65.722H101.278C102.134 65.709 102.962 66.0304 103.585 66.6179C103.898 66.8918 104.146 67.2312 104.313 67.6121C104.48 67.993 104.561 68.406 104.551 68.8218C104.578 69.3273 104.443 69.8281 104.168 70.2523C103.892 70.6765 103.49 71.0022 103.017 71.1826V71.2453C103.574 71.4192 104.061 71.7659 104.408 72.2353C104.754 72.699 104.938 73.2643 104.931 73.8434C104.942 74.2785 104.858 74.7108 104.685 75.1101C104.512 75.5094 104.255 75.8659 103.93 76.1549C103.272 76.7595 102.403 77.0812 101.511 77.0508H97.1871L97.1826 77.0553ZM98.6357 67.1107V70.5778H101.274C101.514 70.5838 101.753 70.5403 101.976 70.4502C102.199 70.36 102.401 70.2251 102.57 70.0537C102.892 69.7458 103.079 69.3224 103.09 68.8764C103.101 68.4305 102.935 67.9985 102.628 67.6751L102.584 67.6303C102.424 67.4607 102.23 67.3265 102.015 67.2362C101.8 67.146 101.569 67.1017 101.336 67.1062H98.6536L98.6357 67.1107ZM98.6357 71.9441V75.6621H101.56C102.054 75.6669 102.529 75.4753 102.882 75.1293C103.235 74.7833 103.436 74.3112 103.442 73.8165C103.443 73.5737 103.394 73.3333 103.298 73.1099C103.203 72.8866 103.063 72.6851 102.888 72.5175C102.706 72.3347 102.489 72.1912 102.25 72.0957C102.011 72.0001 101.755 71.9547 101.497 71.962H98.6313L98.6357 71.9441Z" fill="black"/>
<path d="M108.204 66.6172C108.202 66.8544 108.119 67.0838 107.968 67.2664C107.817 67.449 107.608 67.5736 107.376 67.619C107.143 67.6644 106.902 67.6277 106.694 67.5152C106.486 67.4028 106.323 67.2214 106.233 67.0021C106.143 66.7828 106.131 66.539 106.2 66.3122C106.27 66.0855 106.415 65.8897 106.612 65.7583C106.809 65.6269 107.046 65.5679 107.281 65.5913C107.517 65.6148 107.737 65.7193 107.904 65.8871C108.001 65.9818 108.078 66.0955 108.129 66.2211C108.181 66.3467 108.206 66.4815 108.204 66.6172ZM107.904 69.305V77.0636H106.451V69.305H107.904Z" fill="black"/>
<path d="M113.155 80.7275C112.744 80.7304 112.335 80.6746 111.939 80.5617C111.574 80.4631 111.224 80.3122 110.902 80.1138C110.596 79.9159 110.324 79.6692 110.097 79.3836C109.878 79.1163 109.707 78.8132 109.592 78.4877L110.969 77.9143C111.119 78.3576 111.407 78.7409 111.792 79.0073C112.185 79.2811 112.654 79.4252 113.133 79.4194C113.474 79.4393 113.816 79.3861 114.135 79.2633C114.454 79.1405 114.744 78.9509 114.984 78.7072C115.452 78.1645 115.691 77.461 115.65 76.7452V75.9791H115.588C115.308 76.3953 114.924 76.7305 114.474 76.9512C114.002 77.1902 113.479 77.313 112.95 77.3096C112.455 77.3122 111.965 77.2075 111.514 77.0026C111.064 76.7977 110.662 76.4974 110.338 76.1225C109.623 75.3136 109.238 74.2644 109.261 73.1839C109.234 72.1062 109.617 71.0585 110.334 70.2543C110.655 69.8749 111.055 69.5705 111.506 69.3623C111.958 69.1542 112.449 69.0473 112.945 69.0493C113.475 69.0456 113.997 69.1685 114.47 69.4076C114.92 69.6283 115.303 69.9635 115.583 70.3797H115.646V69.3046H117.036V76.7317C117.066 77.2664 116.988 77.8017 116.806 78.3052C116.624 78.8087 116.342 79.27 115.977 79.6613C115.602 80.0195 115.159 80.2984 114.674 80.4816C114.189 80.6647 113.673 80.7484 113.155 80.7275ZM113.204 75.9747C113.536 75.9837 113.865 75.9188 114.168 75.7848C114.471 75.6508 114.741 75.4509 114.957 75.1997C115.416 74.6283 115.666 73.9171 115.666 73.1839C115.666 72.4507 115.416 71.7395 114.957 71.1681C114.742 70.9136 114.473 70.7104 114.17 70.5732C113.867 70.436 113.537 70.3684 113.204 70.3752C112.872 70.3706 112.543 70.4392 112.24 70.5762C111.937 70.7132 111.668 70.9153 111.452 71.1681C110.966 71.7256 110.711 72.4486 110.741 73.1884C110.71 73.9256 110.965 74.6461 111.452 75.1997C111.668 75.4517 111.938 75.6529 112.241 75.7891C112.543 75.9254 112.873 75.9933 113.204 75.9881V75.9747Z" fill="black"/>
<path d="M132.138 77.0723L130.993 77.8159L130.215 76.6601C129.371 77.0833 128.441 77.3056 127.497 77.3097C126.726 77.3264 125.96 77.1826 125.247 76.8872C124.534 76.5919 123.891 76.1515 123.357 75.594C122.28 74.4564 121.68 72.9486 121.68 71.381C121.68 69.8134 122.28 68.3056 123.357 67.168C123.901 66.6228 124.546 66.1903 125.257 65.8953C125.968 65.6002 126.73 65.4484 127.499 65.4484C128.269 65.4484 129.03 65.6002 129.741 65.8953C130.452 66.1903 131.098 66.6228 131.642 67.168C132.191 67.7169 132.623 68.3722 132.911 69.0938C133.199 69.8154 133.338 70.5883 133.318 71.3653C133.324 72.2196 133.149 73.0654 132.804 73.847C132.47 74.6172 131.976 75.3075 131.356 75.8717L132.138 77.0723ZM127.506 75.9165C128.167 75.9164 128.819 75.7631 129.411 75.4686L128.069 73.4707L129.214 72.6957L130.524 74.6757C130.958 74.2481 131.297 73.7342 131.52 73.1671C131.744 72.6 131.846 71.9923 131.821 71.3832C131.842 70.7862 131.743 70.191 131.529 69.6335C131.314 69.0761 130.989 68.568 130.573 68.14C130.178 67.7224 129.699 67.3925 129.169 67.1718C128.638 66.9511 128.067 66.8445 127.492 66.8589C126.916 66.8451 126.342 66.9518 125.809 67.1724C125.275 67.393 124.793 67.7225 124.394 68.14C123.6 69.0333 123.162 70.1874 123.162 71.3832C123.162 72.579 123.6 73.7332 124.394 74.6264C124.794 75.0472 125.278 75.3794 125.814 75.6016C126.35 75.8238 126.926 75.9311 127.506 75.9165Z" fill="black"/>
<path d="M141.591 77.0544H140.2V75.9793H140.138C139.892 76.3849 139.539 76.715 139.118 76.9334C138.682 77.1812 138.189 77.3123 137.688 77.3142C137.286 77.3401 136.883 77.2809 136.505 77.1405C136.128 77 135.784 76.7814 135.497 76.4989C134.95 75.8547 134.678 75.0218 134.737 74.1785V69.3047H136.19V74.0844C136.223 75.3566 136.857 75.9927 138.095 75.9927C138.374 75.9941 138.65 75.931 138.901 75.8083C139.153 75.6855 139.372 75.5065 139.543 75.285C139.935 74.8111 140.143 74.2114 140.129 73.5962V69.3047H141.582V77.0544H141.591Z" fill="black"/>
<path d="M146.76 77.3095C146.235 77.3247 145.713 77.2279 145.228 77.0256C144.743 76.8232 144.307 76.52 143.948 76.1359C143.203 75.3341 142.806 74.2694 142.843 73.1749C142.811 72.0879 143.198 71.0302 143.926 70.2229C144.281 69.8551 144.706 69.5615 145.175 69.3591C145.644 69.1567 146.149 69.0495 146.66 69.0436C147.171 69.0378 147.678 69.1335 148.152 69.3251C148.626 69.5168 149.057 69.8006 149.421 70.1601C150.153 71.0338 150.518 72.1578 150.44 73.2958V73.4526H144.328C144.324 73.7943 144.389 74.1333 144.52 74.449C144.651 74.7647 144.844 75.0505 145.088 75.2892C145.366 75.5617 145.706 75.7638 146.077 75.8788C146.449 75.9937 146.843 76.0183 147.227 75.9505C147.61 75.8826 147.971 75.7243 148.281 75.4885C148.591 75.2528 148.841 74.9465 149.009 74.5949L150.306 75.2265C149.976 75.8628 149.476 76.3948 148.862 76.763C148.224 77.1346 147.497 77.3237 146.76 77.3095ZM144.435 72.2431H148.875C148.86 71.9866 148.794 71.7357 148.681 71.505C148.569 71.2742 148.411 71.0683 148.218 70.8993C147.774 70.5296 147.207 70.3409 146.631 70.3707C146.114 70.3603 145.611 70.5404 145.218 70.8769C144.813 71.2311 144.538 71.7103 144.435 72.2387V72.2431Z" fill="black"/>
<path d="M153.211 77.0546H151.758V69.305H153.148V70.5727H153.211C153.382 70.1308 153.697 69.7598 154.105 69.52C154.501 69.2456 154.966 69.0902 155.447 69.0721C155.814 69.0633 156.178 69.1288 156.52 69.2647L156.072 70.6757C155.797 70.5874 155.508 70.5495 155.218 70.5638C154.946 70.5646 154.677 70.6248 154.43 70.74C154.183 70.8552 153.964 71.0228 153.788 71.2312C153.394 71.6504 153.176 72.2054 153.18 72.7811V77.0591L153.211 77.0546Z" fill="black"/>
<path d="M164.578 69.3047L159.735 80.5036H158.233L160.022 76.593L156.838 69.3047H158.421L160.728 74.8818H160.759L162.995 69.3047H164.564H164.578Z" fill="black"/>
</svg>
