<svg width="206" height="120" viewBox="0 0 206 120" fill="none" xmlns="http://www.w3.org/2000/svg">
<rect width="206" height="120" rx="3" fill="white"/>
<path d="M29.6653 68.2258H32.4072V71H29.6653V68.2258Z" fill="#E52421"/>
<path d="M48.8911 49V71H46.1491V49H48.8911ZM43.4072 49V71H40.6653V49H43.4072ZM54.4072 57.9355V62.0645H51.6653V57.9355H54.4072ZM37.8911 49V71H35.1491V49H37.8911ZM32.4072 49V68.258H29.6653V49H32.4072Z" fill="#FFCC03"/>
<path d="M160.439 56.4194C161.149 56.4194 161.859 56.4839 162.536 56.6129C163.02 56.7097 163.504 56.871 163.956 57.0645L163.472 58.7097C163.085 58.5161 162.697 58.3548 162.278 58.2258C161.697 58.0323 161.085 57.9355 160.504 57.9678C159.859 57.9355 159.246 58.0645 158.665 58.3226C158.181 58.5807 157.923 59.0645 157.988 59.6129C157.988 59.871 158.052 60.129 158.214 60.3226C158.375 60.5161 158.568 60.7097 158.794 60.8387C159.052 61 159.343 61.129 159.633 61.2258L160.633 61.5161L161.988 61.9678C162.407 62.129 162.826 62.3548 163.214 62.6129C164.02 63.1936 164.472 64.129 164.407 65.0968C164.439 65.6774 164.31 66.2581 164.02 66.7419C163.762 67.1936 163.407 67.5484 162.988 67.8387C162.536 68.129 162.052 68.3548 161.536 68.4839C160.956 68.5484 160.375 68.5807 159.794 68.5161C159.278 68.5484 158.794 68.5484 158.278 68.5161C157.891 68.4516 157.536 68.3871 157.149 68.2903C156.859 68.2258 156.568 68.129 156.278 68C156.052 67.9032 155.827 67.7742 155.601 67.6452L156.246 66C156.407 66.129 156.536 66.2258 156.73 66.3226C156.988 66.4516 157.214 66.5807 157.504 66.6774C157.827 66.8065 158.181 66.9032 158.536 66.9677C158.956 67.0323 159.375 67.0968 159.794 67.0968C160.472 67.129 161.149 66.9677 161.73 66.6129C162.149 66.2903 162.407 65.7742 162.375 65.2258C162.407 64.7742 162.181 64.3226 161.827 64.0323C161.246 63.6452 160.633 63.3548 159.956 63.1936L158.504 62.7097C158.052 62.5484 157.665 62.3548 157.278 62.0645C156.923 61.8065 156.633 61.4839 156.407 61.0968C156.181 60.6452 156.052 60.129 156.085 59.6452C156.02 58.6774 156.472 57.7742 157.246 57.1936C158.214 56.6452 159.31 56.3549 160.439 56.4194ZM145.601 56.5807V64.4516C145.601 64.8387 145.633 65.2258 145.762 65.6129C145.859 65.9032 146.02 66.1613 146.246 66.3548C146.439 66.5484 146.697 66.6774 146.956 66.7419C147.246 66.8065 147.536 66.871 147.827 66.871C148.601 66.9032 149.343 66.6774 149.956 66.2258C150.536 65.7742 151.02 65.2258 151.343 64.5807V56.5807H153.343V68.1936H151.568L151.375 66.0968C151.052 66.8065 150.504 67.3871 149.827 67.8387C149.052 68.3226 148.149 68.5484 147.214 68.5161C146.214 68.5484 145.278 68.1936 144.536 67.5161C143.794 66.6774 143.439 65.5807 143.536 64.4516V56.5807H145.601ZM75.7621 52.1936C76.4717 52.3871 77.1492 52.6452 77.7943 52.9678L77.1814 54.8387C76.6008 54.4516 75.9879 54.1613 75.3427 53.9032C74.5685 53.6452 73.7621 53.5161 72.9234 53.5484C71.4072 53.5484 69.9556 54.1613 68.9556 55.3226C68.4072 55.9355 68.0201 56.6452 67.7298 57.4194C67.4072 58.3548 67.2459 59.3226 67.2782 60.2903C67.2782 61.2258 67.4072 62.1936 67.6976 63.0968C67.9556 63.871 68.3427 64.5484 68.8588 65.1613C69.3427 65.7097 69.9556 66.1613 70.633 66.4516C71.375 66.7419 72.1492 66.9032 72.9556 66.9032C73.6976 66.9032 74.4072 66.8065 75.0846 66.5807C75.7298 66.3548 76.375 66.0645 76.9879 65.7097L77.5685 67.129C76.9879 67.5484 76.375 67.871 75.6653 68.0968C74.7621 68.4194 73.7943 68.5484 72.8266 68.5484C71.7298 68.5484 70.6653 68.3871 69.6653 68C68.7298 67.6129 67.8588 67.0645 67.1814 66.3548C66.4395 65.6129 65.8588 64.7419 65.504 63.7742C64.6976 61.5161 64.6976 59.0323 65.504 56.7742C66.2459 54.8065 67.8588 53.2581 69.8588 52.5161C70.8911 52.129 71.9879 51.9355 73.1169 51.9678C74.0201 51.871 74.8911 51.9678 75.7621 52.1936ZM96.2459 56.3549C96.8911 56.3549 97.5362 56.4194 98.1491 56.5807C98.6653 56.6774 99.1169 56.9032 99.5685 57.1613L98.9233 58.9032C98.504 58.5807 98.0524 58.3226 97.6008 58.129C97.1169 57.9355 96.5685 57.8387 96.0524 57.871C95.5362 57.871 95.0524 57.9678 94.5685 58.1613C94.0846 58.3548 93.6653 58.6452 93.3427 59.0323C92.9879 59.4516 92.6975 59.9355 92.504 60.4516C92.2782 61.0968 92.1814 61.7742 92.1814 62.4516C92.0846 63.6452 92.504 64.8387 93.2782 65.7742C94.0846 66.5484 95.1814 66.9355 96.3104 66.871C97.2782 66.8387 98.2459 66.5484 99.0524 66L99.504 67.4516C99.0524 67.7742 98.5362 68.0323 98.0201 68.1936C97.375 68.4194 96.7298 68.5161 96.0524 68.5484C95.2782 68.5484 94.4717 68.4194 93.7298 68.129C93.0201 67.871 92.375 67.4516 91.8588 66.9355C91.3104 66.3871 90.8911 65.7419 90.6008 65.0323C89.9879 63.3871 89.9879 61.5807 90.6008 59.9355C90.8911 59.2258 91.3104 58.5807 91.8911 58.0323C92.4395 57.4839 93.1169 57.0645 93.8588 56.8065C94.633 56.4839 95.4395 56.3549 96.2459 56.3549ZM135.246 56.3549C135.988 56.3549 136.762 56.4839 137.439 56.7742C138.117 57.0323 138.762 57.4516 139.278 57.9678C139.827 58.5161 140.246 59.1613 140.536 59.871C141.149 61.5484 141.149 63.3871 140.536 65.0645C140.278 65.7742 139.859 66.4194 139.343 66.9677C138.827 67.4839 138.181 67.871 137.504 68.1613C136.762 68.4516 135.988 68.5806 135.214 68.5806C134.472 68.5806 133.73 68.4516 133.02 68.1613C132.343 67.9032 131.73 67.4839 131.214 66.9677C130.665 66.4194 130.246 65.7742 129.988 65.0645C129.375 63.3871 129.375 61.5484 129.988 59.871C130.278 59.1613 130.698 58.5161 131.214 57.9678C131.73 57.4516 132.343 57.0645 133.02 56.7742C133.762 56.4839 134.504 56.3549 135.246 56.3549ZM171.633 56.2903C172.375 56.2903 173.117 56.4194 173.794 56.7097C174.407 56.9678 174.956 57.3871 175.375 57.9355C175.826 58.5161 176.117 59.1936 176.214 59.9355C176.375 60.8387 176.375 61.7742 176.214 62.6774H168.181C168.278 65.4516 169.601 66.8387 172.181 66.8387C172.794 66.8387 173.407 66.7419 173.988 66.5484C174.504 66.3548 175.02 66.129 175.472 65.8065L176.052 67.2581C175.568 67.6452 174.988 67.9677 174.375 68.129C173.633 68.3871 172.859 68.4839 172.052 68.4839C170.439 68.5806 168.859 67.9677 167.697 66.8387C166.633 65.5807 166.085 63.9677 166.181 62.3548C166.181 61.4839 166.31 60.6452 166.601 59.8065C166.859 59.0968 167.246 58.4516 167.762 57.9032C168.246 57.3871 168.794 56.9678 169.439 56.7097C170.149 56.4194 170.891 56.2903 171.633 56.2903ZM82.2137 51.4194V68.2581H80.2137V51.4194H82.2137ZM103.988 51.4194V68.2581H101.956V51.4194H103.988ZM111.246 56.5807L106.407 61.8065L111.568 68.2903H109.214L104.246 62.0645L109.149 56.6129H111.246V56.5807ZM116.085 52.129V59.4839H124.504V52.129H126.665V68.2903H124.504V61.129H116.085V68.2581H113.923V52.129H116.085ZM87.5362 56.5807V68.1936H85.5363V56.5807H87.5362ZM135.246 57.871C134.794 57.871 134.343 57.9678 133.891 58.129C133.439 58.2903 133.052 58.5807 132.73 58.9355C132.375 59.3549 132.085 59.8387 131.891 60.3548C131.665 61.0323 131.568 61.7419 131.601 62.4516C131.568 63.1613 131.698 63.871 131.891 64.5484C132.052 65.0645 132.343 65.5484 132.73 65.9677C133.052 66.3226 133.439 66.5806 133.891 66.7742C134.31 66.9355 134.794 67.0323 135.246 67.0323C135.73 67.0323 136.181 66.9355 136.633 66.7742C137.085 66.6129 137.504 66.3226 137.827 65.9677C138.214 65.5484 138.504 65.0645 138.665 64.5484C138.891 63.871 138.988 63.1613 138.988 62.4516C139.02 61.7419 138.891 61.0323 138.665 60.3548C138.472 59.8387 138.181 59.3549 137.827 58.9355C137.504 58.5807 137.085 58.2903 136.633 58.129C136.181 57.9355 135.73 57.871 135.246 57.871ZM171.697 57.7419C170.891 57.7419 170.085 58.0645 169.536 58.6452C168.859 59.3871 168.472 60.3226 168.375 61.3226H174.407C174.568 60.3871 174.343 59.3871 173.794 58.6129C173.246 58.0323 172.472 57.7097 171.697 57.7419ZM87.4395 52.6774C87.6653 52.9355 87.7943 53.2581 87.7943 53.5807C87.7943 53.9032 87.6653 54.2258 87.4395 54.4516C87.1814 54.6774 86.8588 54.8065 86.5363 54.8065C86.1814 54.8387 85.8588 54.7097 85.6008 54.4839C85.3427 54.2581 85.2137 53.9355 85.2459 53.5807C85.2459 53.2581 85.3427 52.9032 85.5685 52.6774C86.1169 52.1936 86.9233 52.1936 87.4395 52.6774Z" fill="#221F20"/>
</svg>
