<svg width="96" height="16" viewBox="0 0 96 16" fill="none" xmlns="http://www.w3.org/2000/svg">
<path d="M0 0.867432C0 -1.89399 2.23858 -4.13257 5 -4.13257H91C93.7614 -4.13257 96 -1.89399 96 0.867432V10.8674C96 13.6289 93.7614 15.8674 91 15.8674H5C2.23857 15.8674 0 13.6289 0 10.8674V0.867432Z" fill="#8296A5"/>
<path d="M13.3897 12.0174C11.2597 12.0174 9.70969 10.3874 9.70969 8.35743C9.70969 6.32743 11.2597 4.67743 13.3897 4.67743C14.7397 4.67743 15.7397 5.34743 16.1097 5.85743L15.5197 6.40743C15.0297 5.83743 14.2897 5.46743 13.3897 5.46743C11.7697 5.46743 10.6397 6.73743 10.6397 8.34743C10.6397 9.95743 11.7897 11.2274 13.3897 11.2274C14.3297 11.2274 14.9897 10.8674 15.5197 10.2874L16.0797 10.8474C15.8397 11.1774 14.9197 12.0174 13.3897 12.0174ZM20.6065 12.0174C18.4765 12.0174 16.9265 10.3774 16.9265 8.34743C16.9265 6.31743 18.4765 4.67743 20.6065 4.67743C22.7365 4.67743 24.2865 6.31743 24.2865 8.34743C24.2865 10.3774 22.7365 12.0174 20.6065 12.0174ZM20.6065 11.2274C22.2265 11.2274 23.3565 9.95743 23.3565 8.34743C23.3565 6.73743 22.2265 5.46743 20.6065 5.46743C18.9865 5.46743 17.8565 6.73743 17.8565 8.34743C17.8565 9.95743 18.9865 11.2274 20.6065 11.2274ZM26.5645 11.8674H25.7345V4.82743H27.1045L29.4645 10.8674H29.4845L31.8245 4.82743H33.1745V11.8674H32.3445V5.59743H32.3345L29.8845 11.8674H29.0245L26.5745 5.59743H26.5645V11.8674ZM35.9118 11.8674H35.0118V4.82743H35.9118V11.8674ZM38.5859 11.8674H37.7559V4.82743H38.9159L42.6359 10.9074H42.6459V4.82743H43.4759V11.8674H42.3159L38.5959 5.78743H38.5859V11.8674ZM48.4645 8.92743V8.17743H51.5045V10.8974C50.9645 11.4474 49.9745 12.0174 48.6545 12.0174C46.4245 12.0174 44.9245 10.4074 44.9245 8.33743C44.9245 6.24743 46.5045 4.67743 48.5945 4.67743C50.1545 4.67743 51.1145 5.55743 51.3645 5.88743L50.7445 6.41743C50.2545 5.83743 49.4645 5.46743 48.5845 5.46743C46.9945 5.46743 45.8645 6.65743 45.8645 8.32743C45.8645 10.0174 46.9845 11.2274 48.6745 11.2274C49.4845 11.2274 50.2045 10.9474 50.6745 10.5574V8.92743H48.4645ZM58.124 12.0174C56.294 12.0174 55.514 11.0074 55.374 10.7574L55.994 10.2074C56.194 10.4974 56.784 11.2374 58.124 11.2374C59.244 11.2374 59.994 10.8374 59.994 9.92743C59.994 7.94743 55.554 9.41743 55.554 6.65743C55.554 5.65743 56.484 4.67743 58.164 4.67743C59.714 4.67743 60.514 5.41743 60.774 5.86743L60.154 6.37743C59.834 5.97743 59.344 5.44743 58.164 5.44743C57.164 5.44743 56.464 5.87743 56.464 6.63743C56.464 8.51743 60.914 7.02743 60.914 9.92743C60.914 11.2374 59.764 12.0174 58.124 12.0174ZM65.6358 12.0174C63.5058 12.0174 61.9558 10.3774 61.9558 8.34743C61.9558 6.31743 63.5058 4.67743 65.6358 4.67743C67.7658 4.67743 69.3158 6.31743 69.3158 8.34743C69.3158 10.3774 67.7658 12.0174 65.6358 12.0174ZM65.6358 11.2274C67.2558 11.2274 68.3858 9.95743 68.3858 8.34743C68.3858 6.73743 67.2558 5.46743 65.6358 5.46743C64.0158 5.46743 62.8858 6.73743 62.8858 8.34743C62.8858 9.95743 64.0158 11.2274 65.6358 11.2274ZM74.0538 12.0174C71.9238 12.0174 70.3738 10.3774 70.3738 8.34743C70.3738 6.31743 71.9238 4.67743 74.0538 4.67743C76.1838 4.67743 77.7338 6.31743 77.7338 8.34743C77.7338 10.3774 76.1838 12.0174 74.0538 12.0174ZM74.0538 11.2274C75.6738 11.2274 76.8038 9.95743 76.8038 8.34743C76.8038 6.73743 75.6738 5.46743 74.0538 5.46743C72.4338 5.46743 71.3038 6.73743 71.3038 8.34743C71.3038 9.95743 72.4338 11.2274 74.0538 11.2274ZM80.0117 11.8674H79.1817V4.82743H80.3417L84.0617 10.9074H84.0717V4.82743H84.9017V11.8674H83.7417L80.0217 5.78743H80.0117V11.8674Z" fill="white"/>
</svg>
