<svg width="206" height="120" viewBox="0 0 206 120" fill="none" xmlns="http://www.w3.org/2000/svg">
<rect width="206" height="120" rx="3" fill="white"/>
<path d="M62.6474 66.424C60.2891 66.424 58.4093 64.4819 58.4093 62.007C58.4093 59.5321 60.2891 57.59 62.6474 57.59C65.0057 57.59 66.8855 59.5321 66.8855 62.007C66.8855 64.4819 65.0741 66.424 62.6474 66.424ZM69.7736 68.8474V49.3403H66.7488V56.6447C66.7488 56.7478 66.6976 56.851 66.595 56.9025C66.5096 56.9369 66.407 56.9197 66.3387 56.851C65.3475 55.6479 63.7753 54.9604 61.998 54.9604C58.2897 54.9604 55.4016 58.1228 55.4016 62.1101C55.4016 64.0522 56.0852 65.8912 57.2814 67.2146C58.4948 68.538 60.2037 69.277 61.9809 69.2598C63.6386 69.277 65.2279 68.5552 66.3216 67.3177C66.3729 67.2318 66.4754 67.1974 66.5608 67.249C66.5608 67.249 66.5779 67.249 66.5779 67.2662C66.6805 67.3177 66.7317 67.4208 66.7317 67.524V69.002H69.7565L69.7736 68.8474Z" fill="black"/>
<path d="M78.6087 66.424C76.2504 66.424 74.3706 64.4819 74.3706 62.007C74.3706 59.5321 76.2504 57.59 78.6087 57.59C80.967 57.59 82.8468 59.5321 82.8468 62.007C82.8468 64.4819 81.0183 66.424 78.6087 66.424ZM85.6665 68.8473V55.2182H82.693V56.5931C82.693 56.6963 82.6417 56.7994 82.5392 56.8509C82.4538 56.8853 82.3512 56.8681 82.2829 56.7994C81.2917 55.5963 79.7195 54.9604 77.9422 54.9604C74.2339 54.9604 71.3458 58.1228 71.3458 62.1101C71.3458 66.0974 74.2168 69.2598 77.9422 69.2598C79.617 69.277 81.2062 68.538 82.2829 67.249C82.3341 67.163 82.4538 67.1287 82.5392 67.1974C82.5392 67.1974 82.5392 67.1974 82.5563 67.1974C82.6588 67.249 82.7101 67.3521 82.7101 67.4552V68.9333H85.6836L85.6665 68.8473Z" fill="black"/>
<path d="M103.918 66.424C101.559 66.424 99.6796 64.4819 99.6796 62.007C99.6796 59.5321 101.559 57.59 103.918 57.59C106.276 57.59 108.156 59.5321 108.156 62.007C108.156 64.4819 106.327 66.424 103.918 66.424ZM110.993 68.8473V55.2182H108.07V56.5931C108.07 56.6963 108.019 56.7994 107.917 56.8509C107.831 56.8853 107.729 56.8681 107.66 56.7994C106.669 55.5963 105.097 54.9604 103.32 54.9604C99.6112 54.9604 96.7231 58.1228 96.7231 62.1101C96.7231 66.0974 99.5941 69.2598 103.32 69.2598C104.994 69.277 106.584 68.538 107.66 67.249C107.711 67.163 107.831 67.1287 107.917 67.1974C107.917 67.1974 107.917 67.1974 107.934 67.1974C108.036 67.249 108.087 67.3521 108.087 67.4552V68.9333H111.01L110.993 68.8473Z" fill="black"/>
<path d="M116.119 62.0586C116.119 59.5837 117.999 57.6415 120.357 57.6415C122.716 57.6415 124.596 59.5837 124.596 62.0586C124.596 64.5335 122.716 66.4756 120.357 66.4756C117.982 66.424 116.085 64.4475 116.119 62.0586ZM116.427 67.2146H116.53C116.615 67.2318 116.683 67.2662 116.735 67.3177C117.726 68.5208 119.298 69.2083 121.075 69.2083C124.784 69.2083 127.672 66.0459 127.672 62.0586C127.672 60.1164 126.988 58.2775 125.792 56.9541C124.579 55.6307 122.87 54.8917 121.092 54.9088C119.435 54.8917 117.845 55.5963 116.752 56.851C116.7 56.9541 116.598 56.9541 116.495 56.9025C116.393 56.851 116.342 56.7478 116.342 56.6447V49.2888H113.3V68.7958H116.29V67.4208C116.29 67.3349 116.342 67.249 116.427 67.2146Z" fill="black"/>
<path d="M136.199 58.0197C136.438 58.0025 136.695 58.0197 136.934 58.0712V54.9604C136.831 54.9604 136.626 54.9088 136.404 54.9088C134.883 54.8745 133.465 55.6822 132.696 57.0056C132.662 57.1088 132.542 57.1603 132.456 57.1259H132.439C132.337 57.0744 132.251 56.9884 132.234 56.8681V55.1838H129.261V68.7614H132.234V62.8663C132.268 59.8586 133.789 58.0197 136.199 58.0197Z" fill="black"/>
<path d="M141.856 55.2182H138.814V68.7958H141.856V55.2182Z" fill="black"/>
<path d="M140.266 49.3403C139.258 49.3403 138.438 50.1653 138.438 51.1793C138.438 52.1933 139.258 53.0183 140.266 53.0183C141.275 53.0183 142.095 52.1933 142.095 51.1793C142.095 50.1653 141.275 49.3403 140.266 49.3403Z" fill="black"/>
<path d="M150.674 54.9088C146.538 54.9088 143.513 57.8993 143.513 62.0585C143.513 64.0522 144.197 65.8912 145.496 67.163C146.812 68.4864 148.572 69.1567 150.622 69.1567C152.297 69.1567 153.596 68.8473 156.057 67.0083L154.382 65.2209C153.186 66.0115 152.024 66.424 150.93 66.424C148.418 66.424 146.538 64.5334 146.538 62.0585C146.538 59.5836 148.418 57.6931 150.93 57.6931C152.126 57.6931 153.237 58.054 154.331 58.8962L156.211 57.1087C154.023 55.0979 152.041 54.8916 150.674 54.9088Z" fill="black"/>
<path d="M161.354 62.8491C161.389 62.8148 161.457 62.7804 161.508 62.7976C161.594 62.8148 161.662 62.8492 161.713 62.9007L166.464 68.8473H170.138L163.969 61.3195C163.866 61.2164 163.918 61.0617 163.969 60.9586L169.677 55.2182H166.003L161.081 60.168C161.013 60.2368 160.91 60.2539 160.825 60.2196C160.722 60.168 160.671 60.0649 160.671 59.9618V49.2888H157.749V68.7958H160.739V63.5366C160.756 63.4507 160.79 63.3819 160.842 63.3304L161.354 62.8491Z" fill="black"/>
<path d="M175.06 69.1567C177.521 69.1567 179.982 67.6786 179.982 64.8428C179.982 63.0038 178.837 61.6804 176.427 60.8898L174.804 60.357C173.71 59.9789 173.18 59.4633 173.18 58.7243C173.18 57.8821 173.915 57.3494 174.958 57.3494C175.949 57.3494 176.837 57.9853 177.418 59.1368L179.828 57.8134C178.939 55.9744 177.111 54.8745 175.009 54.8745C172.343 54.8745 170.412 56.6103 170.412 58.9821C170.412 60.8727 171.505 62.1445 173.813 62.8835L175.487 63.4163C176.632 63.7772 177.162 64.2585 177.162 65.049C177.162 66.2006 176.12 66.6302 175.18 66.6302C173.983 66.6302 172.873 65.8396 172.36 64.585L169.95 65.8396C170.668 67.8849 172.65 69.1567 175.06 69.1567Z" fill="black"/>
<path d="M93.9888 69.002C94.7407 68.9848 95.4926 68.9333 96.2446 68.8473V66.2693C95.749 66.3381 95.2363 66.3724 94.7236 66.3724C93.5274 66.3724 92.5875 66.1662 92.5875 63.5366V57.9681C92.5704 57.8306 92.69 57.7103 92.8096 57.7103C92.8267 57.7103 92.8267 57.7103 92.8438 57.7103H95.7661V55.2354H92.8438C92.7071 55.2526 92.5875 55.1323 92.5875 55.012C92.5875 54.9948 92.5875 54.9948 92.5875 54.9776V51.0934H89.5969V55.0463C89.614 55.1838 89.4943 55.3041 89.3747 55.3041C89.3576 55.3041 89.3576 55.3041 89.3405 55.3041H87.2557V57.779H89.3405C89.4773 57.779 89.5969 57.8822 89.5969 58.0196C89.5969 58.0368 89.5969 58.0368 89.5969 58.054V64.3616C89.6481 69.002 92.7926 69.002 93.9888 69.002Z" fill="black"/>
<path d="M26.0186 54.2209V54.9595L37.3001 61.3496L47.4215 55.6445V57.9672L37.3001 63.7258L26.5933 57.6033L26.0186 57.9137V62.3557L37.3001 68.7352L47.4215 63.0408V65.31L37.3001 71.0579L26.5933 64.9353L26.0186 65.2565V66.0485L37.3001 72.428L48.5709 66.0485V61.6172L48.0494 61.2961L37.3001 67.4186L27.2212 61.6172V59.348L37.3001 65.0424L48.5709 58.6523V54.2744L48.0494 53.964L37.3001 60.0866L27.7427 54.6491L37.3001 49.2116L45.2184 53.6964L45.8996 53.279V52.6903L37.3001 47.788L26.0186 54.2209Z" fill="#EF3E2B"/>
</svg>
