<svg width="206" height="120" viewBox="0 0 206 120" fill="none" xmlns="http://www.w3.org/2000/svg">
<rect width="206" height="120" rx="3" fill="white"/>
<path d="M120.76 42.6555V72.7745H114.639V69.7027C113.999 70.7798 113.08 71.6575 111.959 72.216C110.759 72.8143 109.399 73.1335 108.04 73.1335C106.36 73.1734 104.679 72.6947 103.279 71.7372C101.84 70.7798 100.719 69.4634 99.9993 67.9076C99.1996 66.1124 98.7994 64.1975 98.8393 62.2428C98.7994 60.288 99.1996 58.3732 99.9993 56.6179C100.719 55.102 101.84 53.7855 103.24 52.868C104.679 51.9505 106.36 51.5116 108.04 51.5515C109.359 51.5515 110.679 51.8308 111.839 52.4292C112.96 52.9877 113.879 53.8254 114.519 54.8626V44.69L120.76 42.6555ZM113.4 66.8305C114.199 65.7932 114.639 64.2773 114.639 62.3226C114.639 60.3678 114.24 58.8918 113.4 57.8546C112.559 56.8174 111.239 56.219 109.88 56.2589C108.519 56.1791 107.2 56.7775 106.319 57.8147C105.48 58.8519 105.039 60.328 105.039 62.2428C105.039 64.1975 105.48 65.7135 106.319 66.7906C107.159 67.8676 108.519 68.466 109.88 68.4262C111.399 68.4262 112.599 67.8676 113.4 66.8305ZM142.639 52.8281C144.079 53.7456 145.199 55.0621 145.879 56.578C146.679 58.3333 147.079 60.2481 147.039 62.2029C147.079 64.1576 146.679 66.1124 145.879 67.8677C145.159 69.4235 144.039 70.74 142.599 71.6974C141.199 72.6149 139.519 73.0936 137.839 73.0537C136.479 73.0936 135.119 72.7745 133.919 72.1362C132.8 71.5777 131.879 70.7 131.279 69.6229V72.7346H125.12V44.69L131.32 42.6555V54.9424C131.919 53.8653 132.839 52.9877 133.959 52.4292C135.16 51.7909 136.479 51.4718 137.839 51.5116C139.519 51.4718 141.199 51.9505 142.639 52.8281ZM139.599 66.7906C140.439 65.7135 140.839 64.1975 140.839 62.2029C140.839 60.288 140.439 58.812 139.599 57.7748C138.759 56.7376 137.599 56.219 136.079 56.219C134.72 56.1392 133.399 56.7376 132.519 57.8147C131.679 58.8918 131.279 60.3678 131.279 62.2827C131.279 64.2374 131.679 65.7534 132.519 66.7906C133.359 67.8676 134.679 68.466 136.079 68.3863C137.439 68.466 138.759 67.8676 139.599 66.7906ZM155.599 56.6578V64.7161C155.599 65.873 155.919 66.7108 156.48 67.2294C157.12 67.7879 157.959 68.0671 158.84 68.0272C159.519 68.0272 160.24 67.9076 160.88 67.748V72.5351C159.719 72.9341 158.52 73.1335 157.319 73.0936C154.76 73.0936 152.799 72.3755 151.439 70.9394C150.08 69.5033 149.399 67.4687 149.399 64.8358V47.1633L155.599 45.1687V52.0303H160.88V56.6578H155.599Z" fill="#2E313D"/>
<path d="M87.3597 37.6689C88.3997 38.6662 89.0797 39.9826 89.2397 41.4188C89.2397 42.0172 89.0797 42.4161 88.7197 43.1741C88.3597 43.932 83.9197 51.5914 82.5997 53.7057C81.8398 54.9424 81.4397 56.4185 81.4397 57.8546C81.4397 59.3306 81.8398 60.7668 82.5997 62.0034C83.9197 64.1177 88.3597 71.817 88.7197 72.575C89.0797 73.3329 89.2397 73.6919 89.2397 74.2903C89.0797 75.7265 88.4397 77.043 87.3997 78.0004C86.3997 79.0376 85.0797 79.7158 83.6797 79.8354C83.0797 79.8354 82.6797 79.6759 81.9597 79.3168C81.2397 78.9578 73.3998 74.6494 71.2798 73.3329C71.1198 73.2531 70.9598 73.1335 70.7598 73.0537L60.2799 66.8703C60.5199 68.8649 61.3999 70.7798 62.8398 72.176C63.1199 72.4553 63.3999 72.6947 63.7199 72.934C63.4798 73.0537 63.1999 73.1734 62.9599 73.3329C60.8399 74.6494 53.1199 79.0775 52.36 79.4365C51.6 79.7955 51.24 79.9551 50.6 79.9551C49.16 79.7955 47.84 79.1573 46.88 78.1201C45.84 77.1227 45.16 75.8063 45 74.3701C45.04 73.7718 45.2 73.1734 45.52 72.6548C45.88 71.8968 50.32 64.1975 51.6399 62.0832C52.4 60.8465 52.7999 59.4104 52.7999 57.9344C52.7999 56.4583 52.4 55.0222 51.6399 53.7855C50.32 51.5914 45.84 43.8921 45.52 43.1342C45.2 42.6155 45.04 42.0172 45 41.4188C45.16 39.9826 45.8 38.6662 46.84 37.6689C47.84 36.6317 49.16 35.9934 50.6 35.8338C51.1999 35.8737 51.7999 36.0333 52.36 36.3524C53 36.6317 58.6399 39.9029 61.6399 41.6582L62.3199 42.0571C62.5599 42.2166 62.7599 42.3363 62.9199 42.4161L63.2399 42.6155L73.9198 48.9186C73.6798 46.525 72.4398 44.3309 70.5198 42.8549C70.7598 42.7353 71.0398 42.6155 71.2798 42.456C73.3998 41.1395 81.1197 36.6715 81.8797 36.3524C82.3997 36.0333 82.9997 35.8737 83.6397 35.8338C85.0397 35.9934 86.3597 36.6317 87.3597 37.6689ZM67.6798 60.7269L69.9598 58.4529C70.2798 58.1338 70.2798 57.6551 69.9598 57.336L67.6798 55.0621C67.3598 54.7429 66.8799 54.7429 66.5599 55.0621L64.2799 57.336C63.9599 57.6551 63.9599 58.1338 64.2799 58.4529L66.5599 60.7269C66.8399 61.0061 67.3598 61.0061 67.6798 60.7269Z" fill="#FF694A"/>
</svg>
