<svg width="206" height="121" viewBox="0 0 206 121" fill="none" xmlns="http://www.w3.org/2000/svg">
<rect y="0.5" width="206" height="120" rx="3" fill="white"/>
<g clip-path="url(#clip0_2164_394)">
<path fill-rule="evenodd" clip-rule="evenodd" d="M151.654 51.9084C151.684 52.6059 151.392 53.2779 150.86 53.7287C149.789 54.6187 148.236 54.6187 147.167 53.7287C146.633 53.2779 146.34 52.6059 146.373 51.9084C146.341 51.2089 146.634 50.5337 147.167 50.0776C148.241 49.2003 149.785 49.2003 150.86 50.0776C151.392 50.5337 151.684 51.2089 151.654 51.9084Z" fill="#333333"/>
<path fill-rule="evenodd" clip-rule="evenodd" d="M146.764 71.4117H151.187V56.5015H146.764V71.4117Z" fill="#333333"/>
<path fill-rule="evenodd" clip-rule="evenodd" d="M102.315 59.9623C101.913 59.8671 101.426 59.7612 100.897 59.6554C100.314 59.5475 99.7226 59.4988 99.13 59.5072C98.7765 59.5083 98.423 59.5295 98.0717 59.5707C97.7679 59.6025 97.4663 59.6586 97.1721 59.7401V71.3812H92.6956V56.9462C93.6364 56.6393 94.5941 56.3853 95.5635 56.1842C96.7753 55.9323 98.0092 55.8117 99.2464 55.8244H100.135C100.485 55.8244 100.823 55.8879 101.194 55.9302L102.252 56.1101C102.552 56.1652 102.847 56.2498 103.13 56.3641L102.368 59.9306" fill="#333333"/>
<path fill-rule="evenodd" clip-rule="evenodd" d="M165.04 63.7821C165.108 62.6635 164.819 61.5523 164.215 60.6072C163.668 59.8421 162.772 59.4039 161.834 59.4431C160.89 59.4008 159.988 59.8336 159.43 60.5966C158.812 61.5353 158.516 62.6508 158.584 63.7715C158.522 64.8933 158.818 66.0055 159.43 66.9464C159.979 67.7232 160.884 68.1655 161.834 68.1221C162.78 68.1698 163.685 67.7263 164.224 66.9464C164.824 65.9886 165.109 64.8679 165.04 63.7398V63.7821ZM169.644 63.7398C169.654 64.8615 169.469 65.9749 169.093 67.031C168.751 67.9877 168.209 68.8608 167.506 69.5921C166.809 70.3075 165.968 70.8652 165.04 71.2324C164.007 71.6314 162.908 71.8293 161.801 71.8156C160.716 71.824 159.639 71.6261 158.626 71.2324C157.697 70.8684 156.856 70.3096 156.16 69.5921C155.454 68.8566 154.904 67.9856 154.542 67.031C154.152 65.978 153.959 64.8626 153.97 63.7398C153.951 62.618 154.154 61.5036 154.563 60.4591C155.283 58.5446 156.778 57.0228 158.679 56.2682C159.688 55.8661 160.768 55.6682 161.854 55.6872C162.941 55.6703 164.019 55.8682 165.029 56.2682C166.926 57.0302 168.404 58.5732 169.082 60.5014C169.483 61.5491 169.681 62.6614 169.664 63.7821L169.644 63.7398Z" fill="#333333"/>
<path fill-rule="evenodd" clip-rule="evenodd" d="M114.592 62.2164C114.577 61.8566 114.514 61.4999 114.4 61.1581C114.29 60.8205 114.114 60.5073 113.882 60.2374C113.636 59.9548 113.334 59.7273 112.993 59.5707C112.579 59.3802 112.126 59.2892 111.67 59.3061C111.228 59.2934 110.787 59.3759 110.38 59.5495C110.031 59.6987 109.719 59.9188 109.458 60.1951C109.216 60.4723 109.026 60.7909 108.897 61.1369C108.778 61.4819 108.681 61.8365 108.613 62.1942L114.592 62.2164ZM104.03 63.8885C104.004 62.6715 104.226 61.4608 104.686 60.3326C105.436 58.4658 106.926 56.9927 108.802 56.2688C109.71 55.928 110.67 55.7534 111.639 55.7502C113.629 55.6402 115.576 56.3609 117.014 57.7398C118.437 59.3442 119.151 61.4544 118.993 63.5922V64.4176C118.993 64.714 118.993 64.9891 118.92 65.2219H108.655C108.747 66.0897 109.231 66.8686 109.967 67.3385C110.897 67.9058 111.978 68.1788 113.068 68.1216C113.887 68.1227 114.704 68.0529 115.512 67.91C116.177 67.7936 116.829 67.6126 117.46 67.3703L118.073 70.8827C117.762 71.0214 117.439 71.1356 117.111 71.2224C116.664 71.3484 116.212 71.4521 115.756 71.5293C115.259 71.614 114.698 71.6987 114.158 71.7516C113.617 71.8045 113.026 71.8362 112.453 71.8362C111.175 71.8595 109.902 71.6521 108.697 71.2224C107.708 70.8616 106.809 70.2911 106.061 69.5503C105.358 68.8487 104.826 67.9936 104.506 67.0528C104.164 66.0305 103.995 64.9563 104.009 63.8779L104.03 63.8885Z" fill="#333333"/>
<path fill-rule="evenodd" clip-rule="evenodd" d="M130.274 63.3067C130.357 62.2854 130.163 61.2621 129.713 60.3435C129.281 59.7191 128.544 59.3762 127.787 59.4439C127.491 59.427 127.195 59.427 126.899 59.4439C126.602 59.4439 126.306 59.5074 126.031 59.5381V71.4015H121.49V56.649L122.845 56.3421C123.364 56.2479 123.903 56.141 124.485 56.0563C125.067 55.9727 125.661 55.9092 126.263 55.8553C126.867 55.8034 127.471 55.7822 128.052 55.7822C129.004 55.7494 129.954 55.8902 130.856 56.195C131.504 56.4458 132.105 56.8024 132.634 57.2533C133.322 56.7834 134.079 56.4267 134.879 56.195C135.629 55.959 136.409 55.833 137.195 55.8246C138.277 55.7854 139.355 55.9579 140.37 56.3326C141.133 56.6352 141.804 57.1316 142.318 57.7718C142.837 58.4121 143.2 59.1667 143.376 59.9731C143.559 60.9107 143.647 61.8642 143.64 62.8199V71.4015H139.047V63.3067C139.13 62.2854 138.936 61.2621 138.487 60.3435C138.052 59.7159 137.31 59.372 136.551 59.4439C136.191 59.4556 135.836 59.5159 135.493 59.6238C135.12 59.7117 134.764 59.8535 134.434 60.0461C134.578 60.5191 134.675 61.0049 134.719 61.497C134.719 61.9944 134.772 62.5553 134.772 63.0728V71.4015H130.274V63.3067Z" fill="#333333"/>
<path fill-rule="evenodd" clip-rule="evenodd" d="M84.8544 67.9419C84.574 67.9906 84.2914 68.0223 84.0078 68.0371H82.886C81.8139 68.1186 80.7705 67.6773 80.0815 66.8518C79.4286 65.9248 79.0973 64.8093 79.1396 63.677C79.1396 60.8545 80.1979 59.4438 82.3145 59.4438C82.7791 59.4438 83.2416 59.5041 83.6903 59.6237C84.0797 59.7105 84.4533 59.8534 84.8015 60.047L84.8544 67.9419ZM84.8544 50.5859V56.4806C84.3665 56.2774 83.8638 56.1102 83.3516 55.9832C82.7992 55.8657 82.2341 55.8096 81.669 55.8139C80.6371 55.7917 79.6106 55.9779 78.6528 56.3642C77.7914 56.7113 77.0231 57.2542 76.4093 57.9516C75.7785 58.6988 75.3076 59.5666 75.0229 60.5021C74.6842 61.5837 74.516 62.7129 74.5255 63.8463C74.5128 64.967 74.7022 66.0825 75.0864 67.1365C75.4399 68.0826 75.9965 68.9377 76.7162 69.6447C77.4601 70.3516 78.3491 70.8903 79.3195 71.2226C80.454 71.6088 81.6457 71.7951 82.8437 71.7729C83.394 71.7729 83.9697 71.7517 84.5687 71.7094C85.1613 71.6565 85.7539 71.6035 86.3254 71.5083C86.8969 71.412 87.4472 71.339 87.9764 71.2321C88.4473 71.1464 88.9129 71.0374 89.3733 70.9051V49.4218L84.8544 50.5859Z" fill="#333333"/>
<path fill-rule="evenodd" clip-rule="evenodd" d="M46.173 66.3224C44.8502 66.9256 42.2679 68.2696 42.5113 69.7301C42.85 70.6296 43.8977 69.7301 44.2893 69.3068C45.1338 68.4876 45.7783 67.4844 46.173 66.3753V66.3224ZM54.089 63.1581C53.2106 65.4546 50.6496 66.5446 49.9405 66.1531C49.5807 65.9626 49.9405 65.2324 49.9405 64.735C49.422 64.936 48.5647 65.317 48.0462 65.5287C49.2177 66.534 49.8929 68.0008 49.8929 69.5449C49.8929 71.0889 49.2177 72.5557 48.0462 73.5611C50.1628 76.736 49.1045 79.4663 46.1518 81.5935L46.0354 81.6676L45.9719 81.4559C45.6047 79.9891 44.9105 78.625 43.94 77.4662C43.4215 76.8629 42.8288 76.3126 42.2468 75.7623C41.4848 75.0427 40.744 74.3019 40.0561 73.5188C37.1458 70.4709 35.9923 65.1054 36.3733 60.9569C36.5786 58.8265 37.204 56.7576 38.2147 54.8717C39.0137 53.3668 40.0106 51.9752 41.1779 50.7338C43.795 47.9262 47.1054 45.8572 50.7766 44.7333C54.0012 43.62 57.5306 43.784 60.6398 45.1884C61.2124 45.4921 61.7584 45.8466 62.2696 46.2466L63.021 46.9557L63.1056 47.0404L77.255 39.7911C78.4191 39.209 79.2975 39.209 79.689 39.6323C80.0806 40.0557 79.5303 41.1457 78.7048 41.7489L66.5345 50.5433C66.6795 51.3825 66.4297 52.2408 65.8572 52.8715C67.4764 53.4324 66.0477 55.803 65.3386 56.6496C63.3067 59.0519 59.5921 60.9357 56.2797 62.3115C55.3907 62.6925 54.8827 62.8512 54.089 63.1475V63.1581Z" fill="#383C42"/>
<path fill-rule="evenodd" clip-rule="evenodd" d="M65.1918 54.8508C66.1019 53.7078 65.467 53.0517 64.832 53.6866C63.5441 54.9143 61.746 55.4497 59.9956 55.1259C57.5086 54.7132 57.3922 54.3322 57.8155 53.9618C60.7025 54.9333 63.8838 53.8538 65.5834 51.3267C66.1972 50.4483 64.1441 49.7498 62.9377 48.1518C57.1382 40.2781 38.978 47.1041 37.2424 60.7878C36.6709 65.059 37.9271 69.3747 40.703 72.6723C42.8196 75.0736 45.1266 76.08 46.4283 79.8581C48.9682 77.678 48.5449 75.2122 46.7141 73.0533C48.0454 72.3781 48.9217 71.051 49.0222 69.561C49.1217 68.072 48.4306 66.6412 47.2009 65.7935C46.1426 69.6139 42.428 72.4395 41.5602 69.7303C40.9993 66.9682 45.55 65.1373 52.831 62.3223C58.9267 60.0364 62.8636 58.1526 65.1918 54.7873" fill="#31D3DB"/>
<path fill-rule="evenodd" clip-rule="evenodd" d="M65.1888 54.8508C66.0989 53.7078 65.4639 53.0517 64.829 53.6866C63.7114 54.765 62.1885 55.3196 60.6381 55.2106C58.13 55.0307 56.1298 54.5333 54.2884 54.7344C50.8691 55.2466 47.7059 56.8499 45.2718 59.3062C42.0969 62.5657 38.5834 69.3377 42.0969 70.651C41.8292 70.414 41.6503 70.0922 41.5889 69.7409C41.028 66.9788 45.5787 65.1469 52.8597 62.3329C58.9555 60.047 62.8923 58.1632 65.2205 54.7978" fill="white"/>
<path fill-rule="evenodd" clip-rule="evenodd" d="M49.5797 60.1949C51.4528 61.1156 51.0824 64.3328 50.8073 65.1371C54.3631 64.0788 53.3048 58.8615 54.9558 57.2529C52.8392 57.1894 49.0082 59.2742 49.5797 60.1949Z" fill="#31D3DB"/>
<path fill-rule="evenodd" clip-rule="evenodd" d="M55.5924 50.649C55.9215 50.3643 56.3903 50.3093 56.7755 50.5114C57.1608 50.7125 57.3841 51.1295 57.3375 51.5613C57.2909 51.9941 56.9851 52.3539 56.566 52.4693C56.0898 52.6005 55.585 52.3846 55.3521 51.9486C55.1193 51.5115 55.2188 50.9729 55.5924 50.649Z" fill="#383C42"/>
<path fill-rule="evenodd" clip-rule="evenodd" d="M64.2267 51.0832L78.503 41.1458C78.9051 40.8601 79.4343 40.2463 79.212 39.95C78.9898 39.6537 78.376 39.8124 77.8468 40.0558L62.417 48.3951C61.9196 49.4534 62.925 51.6229 64.2372 51.0832" fill="#31D3DB"/>
<path fill-rule="evenodd" clip-rule="evenodd" d="M62.9785 49.1252L77.8898 40.3943C78.275 40.1319 78.7258 39.9848 79.1915 39.971C78.9692 39.717 78.3554 39.8652 77.8474 40.1086L62.4176 48.395C62.1064 49.3908 62.4906 50.4735 63.3595 51.0513C63.0409 50.4586 62.9076 49.7845 62.9785 49.1146" fill="white"/>
<path fill-rule="evenodd" clip-rule="evenodd" d="M41.01 53.0199C41.2301 52.9723 41.4587 53.0315 41.6269 53.1797C41.7973 53.3279 41.8852 53.5469 41.8672 53.7713C41.8735 54.2951 41.4957 54.7449 40.9782 54.8296C40.7623 54.8719 40.538 54.8126 40.3718 54.6677C40.2067 54.5227 40.1168 54.3089 40.1316 54.0888C40.1485 53.5766 40.5094 53.1416 41.01 53.0305" fill="#21AAAD"/>
<path fill-rule="evenodd" clip-rule="evenodd" d="M43.8983 49.8342C44.0919 49.7929 44.2941 49.8469 44.4422 49.9781C44.5904 50.1093 44.6676 50.303 44.6496 50.5009C44.6147 50.9496 44.3004 51.3274 43.8665 51.4428C43.6728 51.484 43.4707 51.4301 43.3225 51.2988C43.1744 51.1676 43.0971 50.9739 43.1151 50.776C43.149 50.3273 43.4633 49.9495 43.8983 49.8342Z" fill="#21AAAD"/>
<path fill-rule="evenodd" clip-rule="evenodd" d="M52.6611 45.6119C52.8568 45.6193 53.0367 45.7177 53.1489 45.8765C53.2611 46.0373 53.2929 46.2405 53.2325 46.4268C53.1129 46.8596 52.7182 47.1581 52.2695 47.157C52.0716 47.1517 51.8885 47.0554 51.7721 46.8956C51.6557 46.7358 51.6208 46.5316 51.6768 46.3421C51.7975 45.9051 52.1975 45.6056 52.6505 45.6119" fill="#21AAAD"/>
<path fill-rule="evenodd" clip-rule="evenodd" d="M55.3498 45.1778C55.5138 45.2043 55.6567 45.308 55.7339 45.4551C55.8112 45.6033 55.8133 45.7789 55.7413 45.9292C55.5815 46.271 55.2143 46.4647 54.8418 46.4054C54.6862 46.3758 54.5518 46.2785 54.4756 46.1388C54.3994 45.9991 54.3899 45.8329 54.4502 45.6858C54.6005 45.3323 54.9698 45.1239 55.3498 45.1778Z" fill="#21AAAD"/>
<path fill-rule="evenodd" clip-rule="evenodd" d="M43.9285 51.8345C44.0735 51.8038 44.2238 51.843 44.3349 51.9414C44.445 52.0398 44.5021 52.1848 44.4894 52.3319C44.4809 52.6695 44.2386 52.9552 43.9073 53.0198C43.7645 53.0494 43.6163 53.0113 43.5063 52.9161C43.3962 52.8198 43.3369 52.678 43.3465 52.533C43.3613 52.1954 43.5994 51.9096 43.9285 51.8345Z" fill="#21AAAD"/>
<path fill-rule="evenodd" clip-rule="evenodd" d="M39.4216 55.5809C39.5708 55.546 39.7274 55.5851 39.8417 55.6857C39.9571 55.7862 40.0174 55.9365 40.0036 56.0889C39.992 56.4392 39.7433 56.7355 39.4004 56.8085C39.2449 56.8392 39.084 56.7947 38.9676 56.6879C38.8501 56.582 38.7908 56.4265 38.8078 56.2688C38.8205 55.9153 39.0745 55.6179 39.4216 55.5491" fill="#21AAAD"/>
<path fill-rule="evenodd" clip-rule="evenodd" d="M66.1102 46.4057L65.4435 46.7443C65.5218 47.7031 66.0467 48.5699 66.8616 49.0831C66.3462 48.2873 66.0848 47.3539 66.1102 46.4057ZM69.6131 44.4796L69.0311 44.7971C69.12 45.5908 69.5581 46.3051 70.2269 46.7443C69.8491 46.0501 69.6565 45.2701 69.6661 44.4796H69.6131ZM73.1267 42.5747L72.6822 42.8181C72.6822 43.3895 73.0949 44.2467 73.5606 44.3632C73.2568 43.8181 73.1245 43.1948 73.1796 42.5747H73.1267ZM76.5132 40.7544L76.1216 40.9661C76.2169 41.4328 76.4666 41.854 76.8307 42.1619C76.6285 41.7196 76.5206 41.2401 76.5132 40.7544Z" fill="#21AAAD"/>
</g>
<defs>
<clipPath id="clip0_2164_394">
<rect width="133.41" height="66.973" fill="white" transform="translate(36.2949 27.0135)"/>
</clipPath>
</defs>
</svg>
