<svg width="206" height="121" viewBox="0 0 206 121" fill="none" xmlns="http://www.w3.org/2000/svg">
<rect y="0.5" width="206" height="120" rx="3" fill="white"/>
<path d="M62.0306 57.1891L49.4203 61.3068L38.4495 66.1488L35.3803 66.9591C34.5986 67.7026 33.779 68.4556 32.8925 69.2182C31.9203 70.0569 31.0148 70.8195 30.3189 71.3722C29.5469 71.9823 28.4031 73.1261 27.8217 73.8504C26.9543 74.9369 26.2681 76.0902 25.9726 76.9768C25.4483 78.5781 25.7058 80.1985 26.7161 81.695C28.0124 83.6013 30.5955 85.5456 33.6074 86.8705C35.1421 87.5474 37.7251 88.4147 39.6695 88.9008C42.9006 89.7205 49.1534 90.607 52.5942 90.7405C53.2899 90.7691 54.2241 90.7691 54.2621 90.7405C54.3385 90.6927 54.8723 89.6729 55.4919 88.4053C57.6079 84.0874 59.133 80.0364 59.9621 76.5765C60.4578 74.4797 60.8485 71.6869 61.1058 68.3795C61.1726 67.4549 61.2011 64.3571 61.1439 63.3086C61.0581 61.5929 60.9056 60.2014 60.6675 58.8384C60.6293 58.6382 60.6196 58.457 60.6388 58.4475C60.6768 58.419 60.7912 58.3808 62.3449 57.9327L62.0305 57.1894V57.1892H62.0306V57.1891ZM59.1521 58.8763C59.2665 58.8763 59.5714 61.8024 59.6476 63.6517C59.6668 64.0424 59.6571 64.2998 59.6381 64.2998C59.5619 64.2998 58.0272 63.3944 56.9313 62.7081C55.9781 62.1076 54.1671 60.9066 53.8812 60.6778C53.7857 60.6111 53.7952 60.6017 54.5769 60.3347C55.9017 59.8866 59.0473 58.8763 59.1521 58.8763V58.8763ZM52.7278 60.9924C52.8136 60.9924 53.0327 61.1161 53.557 61.4403C55.5204 62.6698 58.1894 64.1568 59.3332 64.6526C59.6858 64.805 59.7238 64.7478 58.9138 65.3007C57.179 66.4826 55.0152 67.6454 52.3654 68.8178C51.8984 69.0275 51.5077 69.1895 51.4982 69.1895C51.4792 69.1895 51.5362 68.9513 51.6124 68.6653C52.251 66.2918 52.6133 63.8899 52.6325 61.9645C52.642 61.0113 52.642 61.0113 52.7278 60.9828C52.7086 60.9924 52.7181 60.9924 52.7278 60.9924V60.9924ZM51.4029 61.4975C51.46 61.5546 51.4219 63.6898 51.3456 64.2711C51.1741 65.6628 50.9072 66.959 50.4689 68.4175C50.364 68.7699 50.2685 69.0656 50.2497 69.0846C50.2114 69.1322 48.9055 67.855 48.4766 67.3594C47.7331 66.5015 47.1518 65.6436 46.7229 64.8049C46.5036 64.376 46.1606 63.5373 46.1891 63.5086C46.3416 63.4038 51.3648 61.4594 51.4029 61.4975ZM45.1692 63.9471C45.1787 63.9471 45.1882 63.9471 45.1978 63.9566C45.2168 63.9756 45.2837 64.1282 45.3409 64.2997C45.6458 65.129 46.3319 66.349 46.9231 67.1306C47.5712 67.9885 48.4196 68.9035 49.1247 69.5039C49.3536 69.6946 49.5632 69.8756 49.5917 69.9043C49.649 69.9615 49.6681 69.9519 48.1143 70.5429C46.3131 71.2292 44.3494 71.9154 42.0999 72.6398C41.5626 72.813 41.0257 72.9878 40.4893 73.1641C40.4034 73.1927 40.4321 73.145 40.6799 72.7543C41.795 71.0099 43.4916 67.5881 44.4448 65.1671C44.6069 64.7477 44.7689 64.3284 44.7975 64.233C44.8357 64.0995 44.8832 64.0519 45.0071 63.9851C45.0738 63.9662 45.1406 63.9471 45.1692 63.9471V63.9471ZM43.263 64.7382C43.2916 64.7573 42.8054 65.7771 42.3288 66.7112C41.4042 68.5127 40.3939 70.2857 39.0404 72.4397C38.8117 72.8114 38.5926 73.1547 38.5639 73.1928C38.5163 73.2595 38.4971 73.2404 38.3447 72.945C38.0206 72.3063 37.7536 71.4865 37.6107 70.7335C37.4676 69.99 37.4963 68.6938 37.6584 67.8932C37.7822 67.3023 37.7728 67.3118 38.0587 67.1688C39.2787 66.5492 43.2249 64.7001 43.263 64.7382V64.7382ZM59.7049 65.4055V65.8058C59.7049 67.9313 59.4762 70.848 59.1424 72.9736C59.0853 73.3453 59.0374 73.6502 59.0281 73.6599C59.0281 73.6599 58.7517 73.5837 58.4276 73.4882C56.9979 73.0402 55.4443 72.3825 54.0431 71.6106C53.1184 71.1054 51.7745 70.276 51.8127 70.2379C51.8221 70.2284 52.2225 70.0187 52.6895 69.7709C54.5579 68.7987 56.3497 67.7502 57.9033 66.7113C58.4848 66.3205 59.3616 65.6915 59.5524 65.5198L59.7049 65.4055ZM36.0665 68.2267C36.1046 68.2267 36.0951 68.3029 36.0379 68.6461C35.9998 68.894 35.9522 69.3515 35.9332 69.6659C35.8568 71.0575 36.0857 72.087 36.7719 73.4976C36.9626 73.8885 37.1152 74.2125 37.1055 74.222C37.0387 74.2793 30.729 76.1285 28.7463 76.6717C28.1554 76.8337 27.6407 76.9767 27.6024 76.9861C27.5358 77.0053 27.5262 76.9958 27.5548 76.8336C27.774 75.4326 28.8416 73.6025 30.3285 72.0583C31.3198 71.0289 32.111 70.4285 33.4644 69.6563C34.4366 69.1036 35.9331 68.2744 36.0475 68.2362C36.0475 68.2267 36.057 68.2267 36.0665 68.2267V68.2267ZM50.9359 70.886C50.9453 70.8765 51.1741 71.0005 51.4505 71.1624C53.4903 72.3444 56.3306 73.4406 58.7515 74.0029L58.9709 74.0506L58.6658 74.222C57.3982 74.9274 53.2329 76.6621 48.9724 78.2539C48.3527 78.4826 47.7427 78.7115 47.6282 78.7591C47.5138 78.8067 47.409 78.8353 47.409 78.8258C47.409 78.8162 47.5806 78.4826 47.7997 78.0728C48.9912 75.8424 50.1922 73.1259 50.8022 71.2387C50.8787 71.0576 50.9262 70.8956 50.9359 70.886V70.886ZM49.4203 71.3817C49.43 71.3914 49.3536 71.5914 49.2583 71.8201C48.4291 73.8313 47.3423 76.0237 45.9508 78.4828C45.5982 79.1119 45.3027 79.6171 45.293 79.6171C45.2836 79.6171 44.9976 79.4454 44.6545 79.2358C42.6337 77.9966 40.8418 76.4716 39.6695 74.9942L39.4979 74.7845L40.3652 74.5462C43.4725 73.698 46.1126 72.7829 48.7339 71.6582C49.1057 71.5057 49.4108 71.3817 49.4203 71.3817V71.3817ZM58.8375 74.6701C58.8375 74.6701 58.8471 74.6796 58.8375 74.6701C58.847 74.8893 58.3609 76.8529 57.9605 78.2729C57.627 79.4644 57.3409 80.3986 56.8168 82.0474C56.588 82.772 56.388 83.3723 56.3783 83.3723C56.3688 83.3723 56.3117 83.3628 56.2545 83.3439C53.4236 82.829 50.8882 82.1142 48.5053 81.1611C47.838 80.8941 46.8849 80.4652 46.8277 80.4176C46.8087 80.3983 47.3807 80.1316 48.105 79.817C52.4419 77.9202 56.9408 75.7661 58.4848 74.8416C58.6659 74.7272 58.8089 74.6701 58.8375 74.6701V74.6701ZM37.096 75.4136C37.1151 75.4326 35.9046 77.1769 34.2079 79.5503C33.6169 80.3795 32.9307 81.3517 32.6734 81.7139C32.416 82.0761 32.0253 82.648 31.806 82.9912L31.4055 83.6108L30.9766 83.2486C30.4714 82.8291 29.5946 81.9332 29.2038 81.4375C28.384 80.4177 27.8313 79.3407 27.612 78.359C27.5072 77.9014 27.5072 77.6725 27.6024 77.6441C27.7453 77.606 30.2903 77.0054 32.6733 76.4525C33.9982 76.1476 35.5327 75.7854 36.0855 75.652C36.6384 75.5183 37.0865 75.4136 37.096 75.4136V75.4136ZM38.316 75.8807L38.6209 76.2238C39.9936 77.7584 41.3947 78.8928 43.0913 79.8839C43.3964 80.0556 43.6251 80.2079 43.606 80.2177C43.5394 80.2653 37.7155 82.3334 35.0181 83.2676C33.5026 83.8013 32.2539 84.2302 32.2445 84.2302C32.235 84.2302 32.1492 84.1731 32.0537 84.1063L31.8822 83.9824L32.1586 83.5821C33.0545 82.2858 34.1794 80.8657 36.629 77.9109L38.316 75.8807ZM45.9223 81.3231C45.9317 81.3136 46.3511 81.466 46.8657 81.6569C48.105 82.1238 49.0866 82.4193 50.4021 82.7529C52.0225 83.1628 54.3672 83.5632 55.7493 83.6775C55.9591 83.6965 56.0734 83.7156 56.0353 83.7442C55.9684 83.7824 54.5674 84.2494 53.538 84.5735C51.8984 85.0881 46.8944 86.5655 42.815 87.738C42.0619 87.9572 41.4138 88.1383 41.3757 88.1477C41.2805 88.1669 40.9658 88.081 40.9658 88.0429C40.9658 88.0239 41.1945 87.7285 41.471 87.4044C42.8434 85.7649 44.2066 83.9349 45.3409 82.2001C45.6553 81.7234 45.9223 81.3326 45.9223 81.3231ZM44.2446 81.3709C44.2541 81.3804 43.5774 82.4669 42.3956 84.3351C41.8904 85.1262 41.328 86.0221 41.1278 86.3367C40.9371 86.6417 40.6512 87.1184 40.4892 87.3852L40.2128 87.8714L40.0698 87.8332C39.7266 87.7379 37.3152 86.8895 36.6765 86.6322C35.8854 86.3176 35.0657 85.9364 34.4556 85.6124C33.6932 85.2024 32.7401 84.5924 32.8162 84.5734C32.8353 84.5639 34.1411 84.2111 35.7138 83.7823C39.8887 82.6479 42.2048 81.9903 43.7204 81.5138C43.9969 81.428 44.2351 81.3612 44.2446 81.3709ZM56.1114 84.1539H56.1209C56.1591 84.2494 54.6151 88.5385 54.0525 89.892C53.9287 90.197 53.8812 90.2733 53.8144 90.2636C53.6523 90.2543 51.4125 89.9397 50.0493 89.7395C47.6761 89.3773 43.6918 88.6814 42.6911 88.4527L42.4623 88.4051L43.8823 88.0808C46.9325 87.3946 48.4004 87.0229 49.8872 86.5654C51.765 85.9935 53.6238 85.2786 55.5014 84.4018C55.7969 84.2683 56.0447 84.1635 56.1114 84.1539Z" fill="url(#paint0_linear_2164_423)"/>
<path d="M49.0292 27.7937C48.8195 27.7653 45.4357 28.9853 43.2531 29.8716C40.3077 31.0727 38.0203 32.2166 36.6096 33.2077C36.0854 33.5795 35.4276 34.2371 35.3229 34.4944C35.2848 34.5898 35.2656 34.7041 35.2656 34.8185L36.5429 36.029L39.5834 37.0013L46.8179 38.2976L55.0913 39.7178L55.1771 39.0029C55.1486 39.0029 55.1294 38.9935 55.1011 38.9935L54.0142 38.8218L53.7951 38.4311C52.6703 36.4484 51.4312 33.9893 50.7069 32.3308C50.1446 31.044 49.6108 29.5572 49.3152 28.4896C49.1531 27.8415 49.1342 27.8034 49.0295 27.7939V27.7937H49.0292V27.7937ZM48.8765 28.28H48.8864C48.8957 28.2894 48.9339 28.5564 48.9721 28.8708C49.1339 30.2054 49.4297 31.492 49.8966 32.8836C50.2492 33.9321 50.2492 33.875 49.8394 33.751C48.8672 33.4842 44.5113 32.7312 41.3564 32.2928C40.8512 32.226 40.4222 32.1593 40.4222 32.1498C40.3841 32.1117 42.7002 30.9011 43.7201 30.4246C45.0259 29.824 48.6098 28.3276 48.8765 28.28V28.28ZM39.6882 32.5501L40.06 32.6738C42.0806 33.3602 47.1608 34.3325 49.9633 34.5612C50.2777 34.5898 50.5447 34.6185 50.5541 34.6185C50.5636 34.628 50.2969 34.771 49.9536 34.9329C48.6003 35.6097 47.1133 36.439 46.0839 37.0776C45.779 37.2681 45.5024 37.4207 45.4644 37.4207C45.4262 37.4207 45.2261 37.3826 45.0164 37.354L44.6352 37.2967L43.6821 36.3626C42.0046 34.7328 40.6892 33.4746 40.184 32.998L39.6882 32.5501V32.5501ZM39.307 32.8455L40.651 34.5231C41.3848 35.4477 42.1283 36.3531 42.2905 36.5532C42.4524 36.7535 42.5859 36.9156 42.5764 36.9251C42.5382 36.9537 40.6321 36.5818 39.6216 36.3532C38.5826 36.1148 38.1537 36.0005 37.5151 35.8004L36.9909 35.6288V35.4952C37.0003 34.8566 37.8106 33.9035 39.1831 32.9314L39.307 32.8455ZM50.7258 35.1331C50.764 35.1331 50.8115 35.2188 50.9259 35.4762C51.25 36.191 52.2605 38.1165 52.5081 38.4882C52.5846 38.6122 52.7178 38.6217 51.374 38.4025C48.1429 37.8781 47.1038 37.7067 47.1038 37.6876C47.1038 37.6781 47.1991 37.6114 47.3231 37.5446C48.3239 36.9919 49.3342 36.2865 50.2302 35.5335C50.4495 35.3523 50.6496 35.1808 50.6877 35.1521C50.6972 35.1331 50.7163 35.1236 50.7258 35.1331Z" fill="url(#paint1_linear_2164_423)"/>
<path d="M35.3899 34.3609C35.3899 34.3609 35.1803 34.6946 35.3804 35.1903C35.5044 35.4952 35.8666 35.8669 36.2764 36.2482C36.2764 36.2482 40.5179 40.3849 41.0326 40.9759C43.3773 43.6828 44.3972 46.3517 44.4926 50.0309C44.5498 52.3948 44.1017 54.4726 42.9866 56.8841C41.004 61.2115 36.8195 65.9869 30.3667 71.2864L31.3105 70.9719C31.9205 70.5143 32.7497 70.0283 34.6941 68.9607C39.1834 66.5014 44.2352 64.2425 50.4308 61.9168C59.3521 58.5616 74.0214 54.6345 82.3709 53.3574L83.2384 53.2239L83.1048 53.0142C82.3425 51.8322 81.8181 51.0984 81.1889 50.3168C79.359 48.0483 77.1383 46.2088 74.4216 44.6836C70.6852 42.5963 65.8526 40.9664 59.7335 39.7559C58.5802 39.527 56.0448 39.0886 53.986 38.7741C49.6204 38.0975 46.7991 37.6304 43.6919 37.0966C42.5768 36.9059 40.9086 36.62 39.8029 36.3818C39.2311 36.2578 38.135 36.0005 37.2772 35.705C36.5909 35.438 35.5996 35.1711 35.3899 34.3609V34.3609ZM37.8492 36.7439C37.8586 36.7345 38.011 36.7915 38.2113 36.8583C38.5735 36.982 39.0405 37.1251 39.5935 37.2777C40.0118 37.3927 40.4312 37.5039 40.8516 37.6112C41.4235 37.7541 41.9 37.8876 41.9095 37.8876C41.9764 37.9544 42.9391 41.0329 43.2632 42.2148C43.3869 42.6629 43.4824 43.0441 43.4729 43.0441C43.4631 43.0538 43.3584 42.8916 43.2345 42.6724C42.1193 40.7089 40.3559 38.7168 38.3161 37.1154C38.0494 36.925 37.8492 36.7534 37.8492 36.7439ZM42.5387 38.0402C42.5864 38.0402 42.7961 38.0688 43.0533 38.1259C44.6737 38.4881 47.5809 39.041 49.4394 39.3555C49.754 39.4031 50.0019 39.4605 50.0019 39.4794C50.0019 39.4986 49.8874 39.5651 49.7444 39.6415C49.43 39.8035 48.1622 40.5564 47.7429 40.8424C46.6848 41.5477 45.7318 42.3102 45.0454 42.9965C44.7691 43.273 44.5306 43.5017 44.5306 43.5017C44.5306 43.5017 44.4736 43.3397 44.4258 43.1394C44.0828 41.8145 43.3678 39.851 42.7197 38.469C42.6148 38.2498 42.529 38.0496 42.529 38.0306C42.529 38.0497 42.529 38.0402 42.5387 38.0402V38.0402ZM50.7929 39.6129C50.8501 39.6319 50.9455 39.956 51.1361 40.6708C51.4888 42.053 51.6508 43.5971 51.5937 45.0363C51.5745 45.4367 51.5555 45.8083 51.5363 45.8561L51.5078 45.9513L51.0122 45.7893C49.9923 45.4653 48.3339 44.9791 46.9137 44.5788C46.1034 44.3596 45.4459 44.1594 45.4459 44.1404C45.4459 44.0831 46.6278 42.9012 47.133 42.4533C48.0955 41.6049 50.7071 39.5842 50.7929 39.6129V39.6129ZM51.4506 39.7081C51.4793 39.6796 55.3967 40.3562 57.1792 40.6994C58.5041 40.9567 60.4294 41.3571 60.5438 41.4048C60.601 41.4238 60.4007 41.5382 59.7621 41.8241C57.2458 42.9585 55.3775 43.9782 53.5191 45.2174C53.033 45.5415 52.623 45.8083 52.6136 45.8083C52.6041 45.8083 52.5945 45.532 52.5945 45.1983C52.5945 43.3874 52.2323 41.5573 51.5649 40.0132C51.4983 39.8607 51.4411 39.7178 51.4506 39.7081V39.7081ZM61.5827 41.7098C61.6113 41.7384 61.4873 42.5105 61.373 42.968C61.0299 44.3882 60.1053 46.4948 58.9712 48.4772C58.7708 48.8299 58.5898 49.1159 58.5706 49.1254C58.5517 49.1349 58.2943 48.9919 57.9988 48.8203C56.8932 48.1722 55.6351 47.5622 54.2624 46.9902C53.8813 46.8282 53.5476 46.6947 53.5381 46.6758C53.4712 46.6185 56.5405 44.5883 58.1609 43.6161C59.4477 42.8346 61.5445 41.6716 61.5827 41.7098V41.7098ZM62.307 41.8242C62.3929 41.8242 64.1276 42.3008 65.033 42.5677C67.273 43.2349 69.8464 44.1785 71.524 44.941L72.2197 45.2557L71.7338 45.3699C67.6353 46.3135 64.1276 47.4002 60.7438 48.7727C60.4674 48.8871 60.2196 48.9825 60.2007 48.9825C60.1815 48.9825 60.2769 48.7633 60.4008 48.4963C61.4207 46.3327 62.0784 44.0737 62.2402 42.1482C62.25 41.967 62.2784 41.8242 62.307 41.8242V41.8242ZM45.0359 45.7893C45.0645 45.7607 46.3894 46.0753 47.1043 46.2753C48.1908 46.5804 50.4974 47.3524 50.4974 47.4097C50.4974 47.4191 50.2401 47.6384 49.9352 47.9054C48.6866 48.9443 47.4855 50.0403 46.0462 51.4319C45.6172 51.8419 45.2551 52.1755 45.2361 52.1755C45.217 52.1755 45.2076 52.1182 45.217 52.042C45.4362 50.4406 45.3887 48.3819 45.0836 46.2945C45.0549 46.0275 45.0264 45.7988 45.0359 45.7893V45.7893ZM72.8777 45.818C72.8965 45.8369 72.2675 46.8282 71.8672 47.3905C71.2955 48.2102 70.4564 49.297 68.5596 51.6799C67.559 52.9379 66.4341 54.3582 66.0625 54.8348C65.6811 55.3113 65.3667 55.7116 65.357 55.7116C65.3476 55.7116 65.2238 55.5401 65.0903 55.3305C64.0227 53.7291 62.7454 52.3279 61.2299 51.0698C60.944 50.8315 60.6296 50.5741 60.5247 50.4978C60.4198 50.4216 60.334 50.3454 60.334 50.3359C60.334 50.3073 61.9542 49.6114 63.184 49.1158C65.3381 48.2389 68.2736 47.1905 70.4755 46.5137C71.6289 46.1515 72.8585 45.7988 72.8777 45.818V45.818ZM73.6115 46.0085C73.6495 45.999 73.8784 46.1134 74.1548 46.2753C76.471 47.6002 78.7394 49.3064 80.5315 51.0603C81.0366 51.556 82.2852 52.8523 82.2661 52.8618C82.2661 52.8618 81.8276 52.8999 81.313 52.9379C77.3002 53.2431 72.1628 54.0912 67.2254 55.2826C66.8918 55.3588 66.5964 55.4256 66.5772 55.4256C66.5584 55.4256 66.93 55.0539 67.3971 54.606C70.2946 51.8132 71.6196 50.0499 73.1826 46.9044C73.4018 46.4375 73.5925 46.0372 73.6115 46.0085C73.602 46.0085 73.602 46.0085 73.6115 46.0085V46.0085ZM52.3847 48.1818C52.5182 48.2103 53.7573 48.7919 54.6914 49.2588C55.5492 49.6876 56.8361 50.374 56.9027 50.4311C56.9122 50.4406 56.4546 50.6789 55.8925 50.9554C54.1004 51.8514 52.5659 52.6996 50.9645 53.6718C50.507 53.9483 50.1258 54.1772 50.1163 54.1772C50.0781 54.1772 50.0876 54.1388 50.345 53.6718C51.2029 52.1088 51.8891 50.2406 52.28 48.42C52.318 48.277 52.3562 48.1818 52.3847 48.1818V48.1818ZM51.1455 48.4105C51.1742 48.4391 50.8501 49.6114 50.6501 50.2501C50.2591 51.4606 49.6015 52.9761 48.963 54.1199C48.8103 54.3866 48.5816 54.7775 48.4577 54.9967L48.2195 55.3779L47.6857 54.8634C47.0662 54.2628 46.5609 53.8911 45.9129 53.5574C45.6554 53.4241 45.4553 53.3096 45.4553 53.2907C45.4553 53.2144 47.0852 51.737 48.3338 50.6695C49.2297 49.8974 51.117 48.3819 51.1455 48.4105V48.4105ZM58.7233 51.5274L59.1904 51.8323C60.2577 52.5282 61.5158 53.4527 62.4787 54.2628C63.0219 54.7107 64.0703 55.6545 64.2802 55.8832L64.3944 56.0073L63.6225 56.2264C59.257 57.4368 55.8828 58.5139 51.9462 59.9628C51.5078 60.1248 51.1361 60.2582 51.1074 60.2582C51.0504 60.2582 51.0026 60.3058 51.9844 59.4003C54.5008 57.0843 56.7311 54.5297 58.3896 52.0419L58.7233 51.5274V51.5274ZM56.7312 52.023C56.7502 52.042 55.4444 53.8815 54.6627 54.9205C53.7287 56.1596 52.0701 58.2375 50.9263 59.5909C50.4499 60.1533 50.0401 60.6203 50.0209 60.6299C49.9923 60.6394 49.9828 60.4965 49.9828 60.2772C49.9828 59.1238 49.6874 57.8942 49.1726 56.8459C48.9534 56.4074 48.9152 56.3025 48.963 56.2549C49.1441 56.0928 51.9177 54.5106 53.6715 53.567C54.8534 52.938 56.7023 52.0039 56.7312 52.023V52.023ZM44.6832 54.9778C44.7118 54.9778 44.9311 55.0921 45.1789 55.2256C45.7889 55.5592 46.3322 55.9309 46.8183 56.3313C46.8373 56.3503 46.5896 56.5505 46.2655 56.7887C45.36 57.4368 43.9875 58.4758 43.1869 59.1145C42.3479 59.7817 42.3196 59.8007 42.4148 59.6578C43.0439 58.6951 43.3583 58.1518 43.6921 57.456C43.9875 56.8365 44.2829 56.1026 44.4926 55.4639C44.5688 55.1875 44.6642 54.9778 44.6832 54.9778ZM47.8954 57.494C47.9429 57.4846 48.0003 57.5703 48.2575 57.9516C48.8008 58.7617 49.2202 59.8484 49.3252 60.7253L49.3441 60.916L48.0385 61.4212C45.7031 62.3266 43.5491 63.2227 42.0906 63.8897C41.6808 64.0805 40.9659 64.4235 40.4989 64.6524C40.0319 64.8906 39.6506 65.0717 39.6506 65.0622C39.6506 65.0527 39.946 64.8335 40.3082 64.5665C43.1583 62.4983 45.6269 60.2296 47.476 57.9612C47.6762 57.7228 47.8574 57.5036 47.8763 57.4941L47.8954 57.494V57.494ZM46.4181 57.8563C46.4562 57.8944 45.3696 59.1239 44.6262 59.8769C42.7866 61.7547 40.966 63.2227 38.707 64.6524C38.421 64.8335 38.1637 64.9954 38.1351 65.0146C38.0683 65.0527 38.1541 64.9573 39.1454 63.8802C39.7745 63.2035 40.2511 62.6316 40.7944 61.9264C41.1565 61.4594 41.2233 61.3926 41.7476 61.0208C43.1488 60.0104 46.3799 57.8181 46.4181 57.8563Z" fill="url(#paint2_radial_2164_423)"/>
<path d="M111.059 67.7167H110.127L110.121 67.7195V62.6954H109.135V61.9117H110.121V60.9566C110.121 60.3011 110.328 59.8171 110.72 59.4445C111.056 59.1277 111.468 58.9777 111.971 58.9777C112.251 58.9777 112.476 58.9948 112.643 59.0698V59.9112C112.476 59.8169 112.251 59.7613 112.031 59.7613C111.375 59.7613 111.059 60.1725 111.059 60.9904V61.8898H112.423V62.6737H111.059V67.7167Z" fill="#231F1F"/>
<path d="M80.8059 60.2259C80.6946 60.3392 80.5491 60.3972 80.3777 60.3972H80.3756C80.2086 60.3972 80.076 60.3392 79.9472 60.2259C79.8167 60.1144 79.7589 59.984 79.7589 59.7977C79.7589 59.6306 79.834 59.4806 79.9472 59.3694C80.0588 59.2558 80.2087 59.1978 80.3756 59.1978C80.5447 59.1978 80.6926 59.2558 80.8082 59.3694C80.9388 59.4806 80.9946 59.6306 80.9946 59.7977C80.9946 59.9689 80.9195 60.1144 80.8059 60.2259Z" fill="#231F1F"/>
<path d="M70.4819 62.2452C70.4819 61.5171 70.4606 60.9755 70.4434 60.6563H70.4606C70.5354 61.0329 70.6275 61.3137 70.7025 61.4999L73.4863 67.7188H73.9532L76.737 61.4443C76.8121 61.2732 76.8871 61.016 76.9791 60.6584H77.0005C76.9449 61.2795 76.9256 61.8191 76.9256 62.2495V67.7381H77.8784V59.5791H76.6835L74.1245 65.254C74.0302 65.4787 73.8996 65.8152 73.7326 66.2605H73.6939C73.6383 66.0399 73.5076 65.7037 73.3214 65.2925L70.82 59.5597H69.5503V67.7186H70.4668V62.2493L70.4819 62.2452Z" fill="#231F1F"/>
<path d="M79.9665 62.2604H80.789V67.342H79.9665V62.2604Z" fill="#231F1F"/>
<path d="M86.6523 67.4534V66.5582C86.2025 66.8944 85.7185 67.0616 85.2175 67.0616C84.618 67.0616 84.1317 66.8561 83.7762 66.4622C83.4229 66.0724 83.2345 65.5304 83.2345 64.8559C83.2345 64.1492 83.4229 63.5879 83.8126 63.1596C84.1874 62.7485 84.6736 62.5429 85.269 62.5429C85.7551 62.5429 86.2217 62.693 86.6524 62.9929V62.04C86.2606 61.8344 85.813 61.7401 85.3075 61.7401C84.3737 61.7401 83.6458 62.04 83.1019 62.6184C82.5621 63.1965 82.2838 63.9824 82.2838 64.9311C82.2838 65.7748 82.5257 66.4837 83.0291 67.0256C83.5537 67.5822 84.2242 67.8649 85.0464 67.8649C85.6822 67.8474 86.2025 67.7145 86.6523 67.4534Z" fill="#231F1F"/>
<path d="M89.4339 63.1595C89.1556 63.5324 89.0057 64.0741 89.0057 64.7444H88.9865V67.7338H88.0529V61.909H88.9844V63.1019H89.0058C89.1364 62.6736 89.3591 62.3371 89.6375 62.1168C89.9009 61.9088 90.2005 61.7956 90.5368 61.7956C90.7787 61.7956 90.9651 61.8148 91.0935 61.8704V62.8427C90.9286 62.7121 90.7039 62.6543 90.3869 62.6543C90.0121 62.6543 89.6953 62.8235 89.4339 63.1595Z" fill="#231F1F"/>
<path d="M101.347 67.342C101.703 67.0252 101.891 66.6354 101.891 66.1469C101.891 65.7186 101.741 65.3632 101.463 65.0826C101.236 64.858 100.885 64.6543 100.377 64.4487C99.9272 64.2605 99.6489 64.0932 99.4989 63.9626C99.3491 63.8128 99.2569 63.6266 99.2569 63.3631C99.2569 63.1211 99.3512 62.9348 99.5355 62.7849C99.7239 62.6352 99.9638 62.5624 100.285 62.5624C100.788 62.5624 101.219 62.695 101.613 62.9757V62.0419C101.236 61.8537 100.827 61.7637 100.36 61.7637C99.7603 61.7637 99.2549 61.9287 98.8821 62.2475C98.4901 62.5647 98.304 62.9758 98.304 63.4595C98.304 63.8878 98.4324 64.2434 98.6764 64.5045C98.882 64.7273 99.2334 64.9544 99.7215 65.1577C100.188 65.3634 100.505 65.5495 100.674 65.6993C100.841 65.8494 100.916 66.0356 100.916 66.2564C100.916 66.8001 100.544 67.0809 99.8157 67.0809C99.2546 67.0809 98.7515 66.8966 98.3015 66.5241V67.5303C98.7085 67.7747 99.1968 67.8859 99.7364 67.8859C100.428 67.8495 100.97 67.6804 101.342 67.3441L101.347 67.342Z" fill="#231F1F"/>
<path d="M113.954 66.1277C113.954 67.2671 114.457 67.8474 115.485 67.8474C115.858 67.8474 116.138 67.7875 116.363 67.6547V66.8538C116.192 66.9824 115.988 67.0424 115.764 67.0424C115.447 67.0424 115.224 66.9672 115.093 66.798C114.96 66.6312 114.886 66.3483 114.886 65.9586V62.6715H116.363V61.8876H114.886V60.1703C114.644 60.2539 114.407 60.3279 114.177 60.3993C114.101 60.4231 114.026 60.4465 113.952 60.4699V61.8875H112.945V62.6714H113.952V66.1256L113.954 66.1277Z" fill="#231F1F"/>
<path fill-rule="evenodd" clip-rule="evenodd" d="M96.4755 67.0058C95.951 67.5668 95.2443 67.8495 94.3662 67.8495V67.8473C93.4903 67.8473 92.7985 67.5668 92.2761 67.0058C91.7706 66.4641 91.5308 65.7359 91.5308 64.8579C91.5308 63.8493 91.8263 63.0634 92.3873 62.5063C92.9119 62.001 93.6186 61.7396 94.4967 61.7396C95.3748 61.7396 96.0473 62.0012 96.5312 62.5427C97.0196 63.0847 97.2592 63.8129 97.2592 64.7656C97.2592 65.6995 96.9979 66.4488 96.4755 67.0058ZM94.4386 62.5428C93.8606 62.5428 93.3936 62.7293 93.0381 63.1041C92.6656 63.5175 92.4793 64.0956 92.5156 64.8023C92.5156 65.5131 92.6849 66.0529 93.0381 66.4469C93.3936 66.8386 93.8583 67.0464 94.4578 67.0464C95.0747 67.0464 95.5416 66.8388 95.8584 66.4469C96.1754 66.0721 96.3254 65.5131 96.3254 64.8023C96.3254 64.055 96.1582 63.496 95.8221 63.1041C95.488 62.7293 95.0384 62.5428 94.4386 62.5428Z" fill="#231F1F"/>
<path fill-rule="evenodd" clip-rule="evenodd" d="M105.665 67.8495C106.543 67.8495 107.249 67.5668 107.774 67.0058C108.296 66.4488 108.558 65.6995 108.558 64.7656C108.558 63.8129 108.318 63.0847 107.83 62.5427C107.346 62.0012 106.673 61.7396 105.795 61.7396C104.917 61.7396 104.21 62.001 103.686 62.5063C103.125 63.0634 102.829 63.8493 102.829 64.8579C102.829 65.7359 103.069 66.4641 103.574 67.0058C104.097 67.5668 104.789 67.8473 105.665 67.8473V67.8495ZM104.336 63.1041C104.692 62.7293 105.159 62.5428 105.737 62.5428C106.337 62.5428 106.786 62.7293 107.12 63.1041C107.457 63.496 107.624 64.055 107.624 64.8023C107.624 65.5131 107.474 66.0721 107.157 66.4469C106.84 66.8388 106.373 67.0464 105.756 67.0464C105.157 67.0464 104.692 66.8386 104.336 66.4469C103.983 66.0529 103.814 65.5131 103.814 64.8023C103.778 64.0956 103.964 63.5175 104.336 63.1041Z" fill="#231F1F"/>
<path fill-rule="evenodd" clip-rule="evenodd" d="M90.0141 70.5344C89.926 70.5344 89.8378 70.5386 89.7499 70.5428C89.6624 70.547 89.575 70.5512 89.4881 70.5512C85.9366 70.7404 83.5413 72.3034 82.1409 75.3556C80.9431 78.116 81.0738 81.7243 82.1543 84.5017C83.4107 87.2154 85.4409 88.6477 88.8297 89.1886C89.5467 89.306 90.0275 89.6997 91.4162 91.3211L93.1249 93.323H96.2239L94.1632 91.2457C93.0242 90.1066 92.1028 89.1149 92.1028 89.0277C92.1028 88.9407 92.5386 88.7497 93.066 88.589C94.8049 88.0628 96.2488 86.7194 97.2589 84.6606C98.0764 83.0074 98.1938 82.4963 98.311 80.4394C98.6176 74.3168 95.3895 70.4889 90.0139 70.5326L90.0141 70.5344ZM92.7311 86.5455C91.2234 87.2757 89.0343 87.4215 87.6053 86.8972C86.1277 86.3545 84.6972 84.8201 84.0538 83.0829C83.3386 81.1833 83.4407 77.679 84.2582 76.1009C85.5732 73.5882 87.3121 72.4324 89.8532 72.4324C93.6223 72.4324 95.7664 74.7408 96.0462 79.0794C96.2674 82.7011 95.0545 85.4181 92.7327 86.5439L92.7311 86.5455Z" fill="#231F1F"/>
<path d="M143.3 77.327C143.97 76.2903 144.965 75.7642 146.265 75.7642V75.7676H147.304V77.9855L146.5 77.751C145.302 77.416 144.063 78.116 143.342 79.5197C142.819 80.5434 142.773 80.9806 142.773 84.7212V88.8119H140.525V76.0137H142.774V78.1479L143.3 77.327Z" fill="#231F1F"/>
<path fill-rule="evenodd" clip-rule="evenodd" d="M133.049 75.6469C132.608 75.6469 132.14 75.7056 131.675 75.8079C128.665 76.595 126.968 79.4763 127.071 82.4413C127.071 84.924 127.554 86.1651 128.752 87.4668C131.206 89.4802 133.425 89.641 136.421 88.5607C136.932 88.3429 137.488 88.0916 137.488 88.0916V86.0782L136.421 86.631C133.997 87.6863 132.171 87.6862 130.708 86.4433C129.775 85.4934 129.365 84.3543 129.176 83.0546H138.246V81.329C138.246 77.8112 136.129 75.5899 133.047 75.6469H133.049ZM136.144 81.2421H129.383C129.416 81.0386 129.778 79.0204 130.958 78.2032C131.556 77.781 132.243 77.5767 132.914 77.5767C133.588 77.5767 134.26 77.7944 134.814 78.2184C135.953 79.0944 136.144 81.2421 136.144 81.2421Z" fill="#231F1F"/>
<path d="M71.755 75.151C71.6226 76.4074 72.7048 77.4729 75.1437 78.9504L75.1439 78.9485C78.8073 81.1379 79.7741 82.5401 79.4943 85.2136C79.1727 88.0613 75.7704 89.8151 72.0316 89.0697C70.5241 88.7784 69.519 88.3562 69.519 88.3562C69.519 88.3562 69.4585 86.5723 69.5758 85.8268C69.6059 85.8268 70.1756 86.1065 70.8489 86.4416C74.1204 88.0916 77.2914 87.1736 77.2914 84.5436C77.2914 83.2706 76.2696 82.1029 73.958 80.7579C69.8404 78.3623 68.7011 76.2148 69.9878 73.3671C70.8638 71.4373 72.7332 70.4892 75.6245 70.5328C77.5091 70.563 78.8242 71.1325 78.8242 71.1325L78.8073 73.471C76.4287 72.1559 72.1335 71.6751 71.755 75.151Z" fill="#231F1F"/>
<path fill-rule="evenodd" clip-rule="evenodd" d="M166.176 75.6168C165.737 75.6168 165.271 75.6771 164.786 75.7793C161.779 76.5666 160.085 79.4479 160.201 82.413C160.201 84.8922 160.682 86.1217 161.879 87.4215C164.333 89.4368 166.553 89.5992 169.563 88.5172C170.072 88.2995 170.627 88.0517 170.627 88.0517V86.0349L169.562 86.5908C167.133 87.6428 165.307 87.6428 163.849 86.3999C162.911 85.4518 162.504 84.3261 162.315 83.011H171.371V81.2856C171.371 77.7847 169.253 75.5617 166.171 75.6204L166.176 75.6168ZM169.272 81.2134H162.51C162.542 81.0185 162.906 78.9947 164.087 78.1596C164.684 77.7359 165.37 77.5314 166.042 77.5314C166.712 77.5314 167.387 77.7492 167.942 78.1746C169.081 79.0508 169.272 81.2134 169.272 81.2134Z" fill="#231F1F"/>
<path d="M117.885 75.1795C117.754 76.4359 118.833 77.5048 121.272 78.9789L121.272 78.9819C124.924 81.1731 125.889 82.5751 125.611 85.2353C125.291 88.083 121.887 89.8353 118.145 89.0881C116.642 88.7817 115.649 88.3746 115.649 88.3746C115.649 88.3746 115.588 86.5904 115.706 85.8451C115.739 85.8451 116.309 86.1215 116.979 86.4566C120.25 88.1218 123.42 87.1887 123.42 84.5587C123.42 83.2856 122.398 82.1332 120.09 80.7896C115.986 78.3941 114.831 76.2465 116.116 73.3988C116.994 71.4691 118.863 70.521 121.755 70.5645C123.639 70.5914 124.954 71.161 124.954 71.161L124.937 73.4994C122.559 72.1843 118.264 71.7018 117.885 75.1795Z" fill="#231F1F"/>
<path d="M179.395 75.7341C178.095 75.7341 177.088 76.2616 176.43 77.2987L175.904 78.1161V75.9854H173.654V88.7801H175.902V84.6895C175.902 80.9505 175.947 80.5116 176.472 79.4898C177.192 78.0877 178.431 77.3859 179.629 77.7225L180.433 77.957V75.7342L179.395 75.7341Z" fill="#231F1F"/>
<path d="M103.382 70.7537L103.382 86.6762H110.652V88.8086H101.114V70.7537H103.382Z" fill="#231F1F"/>
<path d="M155.834 81.4462L153.964 86.3109L152.167 81.4194L150.341 75.9987H148.019C149.524 80.2637 151.16 84.6022 152.81 88.8086C153.287 88.8197 153.765 88.816 154.242 88.8123H154.243C154.481 88.8104 154.719 88.8086 154.957 88.8086L160.053 76.0004H157.834C157.834 76.0004 156.854 78.5701 155.832 81.4479L155.834 81.4462Z" fill="#231F1F"/>
<path d="M57.4331 90.8039H57.6375V89.1672H58.1784V88.9628H56.8921V89.1672H57.4333L57.4331 90.8039Z" fill="#231F1F"/>
<path d="M58.6727 89.5743C58.6727 89.415 58.6727 89.2844 58.661 89.2109C58.6706 89.2732 58.6888 89.321 58.7033 89.3591C58.709 89.3742 58.7142 89.3878 58.718 89.4001L59.3462 90.8039H59.4467L60.0764 89.3866C60.0841 89.3669 60.091 89.3445 60.099 89.3189C60.1086 89.2878 60.1196 89.2521 60.1352 89.2109C60.1217 89.3566 60.1217 89.4736 60.1217 89.5626V90.8022H60.3396V88.9628H60.0764L59.5071 90.2326C59.5019 90.2502 59.4918 90.2743 59.4799 90.303C59.461 90.3485 59.4372 90.4056 59.4198 90.4672H59.4031C59.3943 90.4233 59.3753 90.3795 59.3488 90.3183C59.3398 90.2976 59.3299 90.2749 59.3194 90.2495L58.7498 88.963H58.455V90.8056H58.661V89.5761L58.6727 89.5743Z" fill="#231F1F"/>
<defs>
<linearGradient id="paint0_linear_2164_423" x1="35.195" y1="84.5331" x2="39.7549" y2="81.8387" gradientUnits="userSpaceOnUse">
<stop stop-color="#909CA9"/>
<stop offset="1" stop-color="#EDEDEE"/>
</linearGradient>
<linearGradient id="paint1_linear_2164_423" x1="35.2991" y1="33.7371" x2="38.9681" y2="33.7371" gradientUnits="userSpaceOnUse">
<stop stop-color="#939FAB"/>
<stop offset="1" stop-color="#DCDEE1"/>
</linearGradient>
<radialGradient id="paint2_radial_2164_423" cx="0" cy="0" r="1" gradientUnits="userSpaceOnUse" gradientTransform="translate(53.8133 50.5642) rotate(-171.457) scale(4.73035 9.46304)">
<stop stop-color="#EE352C"/>
<stop offset="1" stop-color="#A91D22"/>
</radialGradient>
</defs>
</svg>
