<svg width="206" height="120" viewBox="0 0 206 120" fill="none" xmlns="http://www.w3.org/2000/svg">
<rect width="206" height="120" rx="3" fill="white"/>
<path d="M94.0025 68.197C92.3841 77.0014 90.2495 83.3996 87.5998 87.3909C85.5354 90.4664 83.2737 92.0042 80.811 92.0042C80.1545 92.0042 79.3449 91.8059 78.3843 91.4119V89.2895C78.8536 89.3584 79.4043 89.3952 80.0376 89.3952C81.1865 89.3952 82.1124 89.0768 82.8169 88.4413C83.6605 87.667 84.0826 86.7967 84.0826 85.8323C84.0826 85.1735 83.7533 83.8218 83.0978 81.777L78.7362 68.197H82.6404L85.7707 78.3536C86.474 80.6596 86.7673 82.2694 86.6499 83.1869C88.362 78.6018 89.5581 73.605 90.2386 68.197H94.0025ZM76.7635 85.7622H72.7894C72.6496 79.0364 72.2622 72.712 71.629 66.7877H71.594L65.5431 85.7622H62.5172L56.5031 66.7877H56.4676C56.0214 72.4772 55.7406 78.8016 55.6235 85.7622H52C52.2342 77.297 52.8202 69.3617 53.758 61.9543H58.6838L64.4173 79.4476H64.4525L70.2212 61.9543H74.9343C75.9663 70.6296 76.5758 78.5675 76.763 85.7622" fill="#00758F"/>
<path d="M146.903 85.7622H135.612V61.9542H139.412V82.8335H146.903V85.7622ZM118.516 80.9995C117.554 79.4475 117.072 76.9572 117.072 73.5232C117.072 67.5283 118.89 64.5289 122.525 64.5289C124.425 64.5289 125.819 65.2463 126.711 66.6796C127.672 68.2322 128.154 70.701 128.154 74.087C128.154 80.1299 126.335 83.1526 122.701 83.1526C120.801 83.1526 119.406 82.4357 118.516 80.9995ZM132.656 86.3364L128.292 84.1785C128.68 83.8589 129.049 83.5142 129.383 83.1151C131.236 80.9308 132.164 77.6978 132.164 73.4176C132.164 65.5413 129.08 61.601 122.913 61.601C119.887 61.601 117.53 62.5997 115.842 64.6001C113.988 66.7871 113.063 70.0078 113.063 74.2638C113.063 78.4487 113.883 81.5188 115.524 83.4689C117.02 85.2317 119.282 86.1143 122.31 86.1143C123.44 86.1143 124.476 85.9748 125.418 85.6958L131.102 89.0121L132.652 86.3361M111.411 79.163C111.411 81.1821 110.671 82.8396 109.196 84.1365C107.72 85.4277 105.737 86.0751 103.254 86.0751C100.932 86.0751 98.6806 85.33 96.5002 83.8521L97.5202 81.807C99.3966 82.7474 101.095 83.2171 102.619 83.2171C104.049 83.2171 105.168 82.898 105.978 82.2675C106.786 81.6325 107.27 80.7468 107.27 79.6235C107.27 78.2098 106.287 77.0015 104.483 75.9878C102.818 75.0714 99.4892 73.1581 99.4892 73.1581C97.6858 71.8391 96.7816 70.4238 96.7816 68.0919C96.7816 66.1633 97.4559 64.6044 98.8026 63.4184C100.152 62.23 101.894 61.6357 104.026 61.6357C106.231 61.6357 108.235 62.2256 110.04 63.4011L109.123 65.4442C107.579 64.7876 106.055 64.458 104.554 64.458C103.335 64.458 102.396 64.7513 101.741 65.3415C101.083 65.9265 100.676 66.6794 100.676 67.5971C100.676 69.0071 101.681 70.2301 103.535 71.2634C105.222 72.1803 108.632 74.1305 108.632 74.1305C110.487 75.4472 111.411 76.8509 111.411 79.163Z" fill="#F29111"/>
<path d="M149.613 85.7597H150.242V83.3374H151.066V82.8427H148.757V83.3374H149.613V85.7597ZM154.403 85.7597H154.996V82.8427H154.104L153.378 84.831L152.587 82.8427H151.727V85.7597H152.288V83.5396H152.32L153.148 85.7597H153.576L154.403 83.5396V85.7597Z" fill="#F29111"/>
<path d="M115.33 21.8679C114.326 21.8529 113.451 22.232 112.999 23.343C112.224 25.2139 114.147 27.054 114.807 28.0036C115.294 28.6643 115.926 29.4135 116.268 30.1603C116.469 30.6495 116.528 31.1682 116.729 31.6851C117.188 32.9506 117.617 34.3607 118.221 35.5408C118.535 36.145 118.879 36.7783 119.281 37.3222C119.513 37.6406 119.913 37.7825 119.999 38.3018C119.599 38.8765 119.568 39.7398 119.338 40.4596C118.306 43.7103 118.707 47.7373 120.171 50.1244C120.629 50.8435 121.72 52.4259 123.184 51.8203C124.475 51.3035 124.188 49.6638 124.56 48.2264C124.646 47.8788 124.589 47.6508 124.76 47.4209V47.479C125.162 48.2833 125.565 49.0582 125.937 49.8663C126.828 51.2744 128.376 52.7418 129.668 53.7189C130.354 54.2387 130.9 55.129 131.761 55.4464V55.3593H131.704C131.531 55.1012 131.274 54.9855 131.044 54.7851C130.528 54.2669 129.955 53.6336 129.552 53.0586C128.348 51.4483 127.285 49.6639 126.34 47.8232C125.88 46.9293 125.479 45.9523 125.106 45.0611C124.934 44.7175 124.934 44.1982 124.646 44.026C124.215 44.6582 123.585 45.2052 123.27 45.9795C122.725 47.2179 122.668 48.7421 122.465 50.325C122.351 50.3551 122.409 50.3253 122.351 50.3826C121.434 50.1526 121.119 49.2034 120.774 48.4005C119.913 46.3555 119.768 43.0763 120.515 40.7172C120.715 40.1142 121.578 38.2158 121.233 37.6405C121.059 37.0916 120.486 36.778 120.171 36.3447C119.799 35.7983 119.395 35.1091 119.139 34.5037C118.45 32.8934 118.104 31.1092 117.36 29.4989C117.016 28.7497 116.412 27.9732 115.926 27.2842C115.38 26.5073 114.778 25.9609 114.347 25.0415C114.205 24.7243 114.004 24.206 114.232 23.8618C114.289 23.6313 114.405 23.5448 114.635 23.487C115.006 23.1705 116.069 23.5725 116.441 23.7452C117.503 24.1754 118.393 24.58 119.281 25.183C119.683 25.4712 120.113 26.018 120.629 26.1631H121.233C122.15 26.3628 123.184 26.2187 124.045 26.4787C125.565 26.9673 126.941 27.6864 128.176 28.4633C131.933 30.8511 135.031 34.2466 137.125 38.3018C137.47 38.9626 137.614 39.5669 137.93 40.2559C138.532 41.6683 139.279 43.1069 139.88 44.4863C140.482 45.8385 141.057 47.2179 141.919 48.3415C142.348 48.9445 144.07 49.261 144.845 49.5776C145.417 49.8357 146.308 50.0661 146.825 50.382C147.8 50.9851 148.774 51.6765 149.693 52.3392C150.151 52.6844 151.586 53.4029 151.672 53.9791L151.672 53.9796C149.376 53.922 147.598 54.1517 146.106 54.7851C145.676 54.9575 144.988 54.9573 144.929 55.504C145.16 55.7337 145.188 56.1077 145.391 56.4255C145.734 57.0008 146.335 57.7762 146.881 58.18C147.484 58.6405 148.086 59.099 148.718 59.5017C149.836 60.195 151.099 60.596 152.188 61.2867C152.821 61.6889 153.45 62.2064 154.083 62.639C154.398 62.869 154.597 63.2435 155 63.3859V63.2983C154.798 63.0401 154.742 62.6665 154.542 62.3772C154.256 62.0918 153.968 61.8313 153.68 61.5448C152.848 60.4232 151.814 59.4458 150.698 58.6403C149.779 58.0057 147.769 57.1425 147.398 56.0814C147.398 56.0814 147.368 56.0511 147.339 56.0228C147.971 55.9644 148.718 55.7339 149.32 55.5594C150.294 55.3013 151.184 55.3594 152.188 55.1012C152.647 54.9853 153.106 54.841 153.567 54.6996V54.4388C153.048 53.9222 152.677 53.2305 152.132 52.7419C150.67 51.4767 149.062 50.2406 147.398 49.2034C146.507 48.628 145.36 48.2559 144.413 47.7656C144.07 47.5927 143.497 47.5076 143.295 47.2183C142.778 46.5857 142.49 45.7527 142.118 45.0036C141.287 43.4232 140.482 41.6689 139.766 39.9978C139.25 38.8767 138.935 37.7557 138.303 36.7195C135.347 31.8283 132.135 28.8669 127.2 25.9609C126.138 25.3562 124.876 25.0978 123.529 24.7813C122.81 24.7512 122.094 24.695 121.377 24.6667C120.917 24.4645 120.457 23.9174 120.056 23.6586C119.034 23.0117 117.003 21.8928 115.33 21.8679ZM122.408 28.9785C121.922 28.9785 121.578 29.0377 121.232 29.1231V29.1807H121.288C121.519 29.6398 121.922 29.9589 122.206 30.3608C122.437 30.8212 122.638 31.2796 122.867 31.7406C122.896 31.7123 122.923 31.6825 122.923 31.6825C123.328 31.3961 123.528 30.9362 123.528 30.2447C123.355 30.0419 123.328 29.8421 123.183 29.6399C123.012 29.3529 122.638 29.209 122.408 28.9785Z" fill="#00758F"/>
</svg>
