<svg width="206" height="120" viewBox="0 0 206 120" fill="none" xmlns="http://www.w3.org/2000/svg">
<rect width="206" height="120" rx="3" fill="white"/>
<g clip-path="url(#clip0_2164_495)">
<rect width="156" height="20.2597" transform="translate(25 50)" fill="white"/>
<path d="M92.2556 63.1823H102.548L97.1112 54.4031L87.1164 70.2598H82.5715L94.7273 51.2359C94.9923 50.8562 95.3444 50.5457 95.7541 50.3301C96.1639 50.1146 96.6193 50.0004 97.0822 49.9971C97.5452 49.9938 98.0022 50.1015 98.4149 50.3111C98.8277 50.5208 99.1842 50.8263 99.4546 51.2021L111.644 70.2598H107.099L104.958 66.7143H94.545L92.2759 63.1823M139.501 66.7143V50.1891H135.638V68.3418C135.638 68.5941 135.688 68.8439 135.787 69.076C135.886 69.3082 136.03 69.5179 136.213 69.6925C136.395 69.8795 136.614 70.0279 136.855 70.1289C137.096 70.2298 137.356 70.2812 137.617 70.28H155.176L157.465 66.7346H139.481M75.6359 63.7631C77.4359 63.7631 79.1622 63.0481 80.435 61.7753C81.7078 60.5024 82.4229 58.7761 82.4229 56.9761C82.4229 55.1761 81.7078 53.4498 80.435 52.177C79.1622 50.9042 77.4359 50.1891 75.6359 50.1891H58.7528V70.2598H62.6089V53.7413H75.3995C76.261 53.7413 77.0873 54.0835 77.6964 54.6927C78.3056 55.3019 78.6478 56.1281 78.6478 56.9896C78.6478 57.8511 78.3056 58.6773 77.6964 59.2865C77.0873 59.8957 76.261 60.2379 75.3995 60.2379H64.5201L76.0411 70.2598H81.6395L73.9003 63.7631H75.6359ZM35.0354 70.2598H46.6982C49.3138 70.1919 51.7995 69.1052 53.6254 67.2312C55.4514 65.3573 56.4733 62.8443 56.4733 60.2278C56.4733 57.6113 55.4514 55.0983 53.6254 53.2244C51.7995 51.3504 49.3138 50.2637 46.6982 50.1959H35.0354C33.6961 50.1611 32.3633 50.3949 31.1158 50.8834C29.8683 51.3719 28.7312 52.1053 27.7717 53.0403C26.8121 53.9753 26.0495 55.093 25.5287 56.3274C25.008 57.5618 24.7397 58.888 24.7397 60.2278C24.7397 61.5676 25.008 62.8938 25.5287 64.1282C26.0495 65.3626 26.8121 66.4803 27.7717 67.4153C28.7312 68.3503 29.8683 69.0837 31.1158 69.5722C32.3633 70.0607 33.6961 70.2945 35.0354 70.2598ZM46.4349 66.7278H35.292C33.6061 66.6734 32.0075 65.9655 30.8342 64.7537C29.6608 63.5419 29.0048 61.9213 29.0048 60.2346C29.0048 58.5478 29.6608 56.9272 30.8342 55.7154C32.0075 54.5036 33.6061 53.7957 35.292 53.7413H46.4349C47.3052 53.7132 48.1723 53.8604 48.9846 54.1741C49.7969 54.4878 50.5379 54.9616 51.1634 55.5673C51.789 56.173 52.2864 56.8983 52.6262 57.7001C52.9659 58.5019 53.1409 59.3638 53.1409 60.2346C53.1409 61.1053 52.9659 61.9672 52.6262 62.769C52.2864 63.5708 51.789 64.2961 51.1634 64.9018C50.5379 65.5075 49.7969 65.9813 48.9846 66.295C48.1723 66.6087 47.3052 66.7559 46.4349 66.7278ZM119.701 70.2598H131.607L133.862 66.7278H119.964C119.094 66.7559 118.227 66.6087 117.414 66.295C116.602 65.9813 115.861 65.5075 115.236 64.9018C114.61 64.2961 114.113 63.5708 113.773 62.769C113.433 61.9672 113.258 61.1053 113.258 60.2346C113.258 59.3638 113.433 58.5019 113.773 57.7001C114.113 56.8983 114.61 56.173 115.236 55.5673C115.861 54.9616 116.602 54.4878 117.414 54.1741C118.227 53.8604 119.094 53.7132 119.964 53.7413H131.276L133.558 50.1959H119.701C118.362 50.1611 117.029 50.3949 115.781 50.8834C114.534 51.3719 113.397 52.1053 112.437 53.0403C111.478 53.9753 110.715 55.093 110.194 56.3274C109.673 57.5618 109.405 58.888 109.405 60.2278C109.405 61.5676 109.673 62.8938 110.194 64.1282C110.715 65.3626 111.478 66.4803 112.437 67.4153C113.397 68.3503 114.534 69.0837 115.781 69.5722C117.029 70.0607 118.362 70.2945 119.701 70.2598ZM166.886 66.7278C165.471 66.7283 164.094 66.2669 162.966 65.4137C161.837 64.5604 161.018 63.362 160.632 62.0005H177.124L179.393 58.4618H160.632C161.017 57.0998 161.836 55.9007 162.965 55.0473C164.094 54.1939 165.471 53.7329 166.886 53.7346H178.204L180.467 50.1891H166.622C164.007 50.257 161.521 51.3437 159.695 53.2176C157.869 55.0916 156.847 57.6046 156.847 60.221C156.847 62.8375 157.869 65.3505 159.695 67.2245C161.521 69.0984 164.007 70.1851 166.622 70.253H178.528L180.791 66.7211H166.879" fill="#C74634"/>
</g>
<defs>
<clipPath id="clip0_2164_495">
<rect width="156" height="20.2597" fill="white" transform="translate(25 50)"/>
</clipPath>
</defs>
</svg>
