<svg width="206" height="120" viewBox="0 0 206 120" fill="none" xmlns="http://www.w3.org/2000/svg">
<rect width="206" height="120" rx="3" fill="white"/>
<g clip-path="url(#clip0_2164_386)">
<path d="M146.153 58.6489C144.42 57.8973 142.588 57.4011 140.713 57.1756C139.783 57.064 138.894 56.7217 138.129 56.1797C137.914 55.8936 137.764 55.5634 137.69 55.2126C137.616 54.8619 137.621 54.4991 137.702 54.1501C137.784 53.8012 137.941 53.4745 138.163 53.1935C138.385 52.9124 138.666 52.6837 138.986 52.5237C140.645 51.9241 142.467 51.963 144.1 52.6329C144.552 52.909 144.93 53.2921 145.2 53.7488C145.47 54.2054 145.625 54.7216 145.65 55.2521H147.01C147.038 54.7114 146.955 54.1707 146.765 53.6637C146.576 53.1568 146.284 52.6944 145.908 52.3055C144.658 51.3476 143.097 50.8905 141.529 51.0231C140.115 50.9354 138.704 51.2373 137.449 51.8962C135.64 53.0694 135.694 56.8209 137.721 57.6804C139.747 58.5398 142.168 58.6353 144.358 59.3174C144.647 59.3877 144.918 59.519 145.152 59.7025C145.387 59.8859 145.58 60.1174 145.718 60.3815C146.005 61.0095 146.044 61.7235 145.827 62.3793C145.61 63.0351 145.153 63.5838 144.548 63.9147C142.744 64.5826 140.752 64.5289 138.986 63.7646C138.44 63.4391 137.989 62.9753 137.679 62.4197C137.369 61.8642 137.21 61.2365 137.218 60.5997C136.728 60.5997 136.238 60.5997 135.762 60.5997C135.707 61.8342 136.131 63.042 136.946 63.9693C138.329 65.0513 140.065 65.5767 141.815 65.4426C143.395 65.5634 144.97 65.1505 146.289 64.2694C147.881 63.0143 147.949 59.6857 146.153 58.6489Z" fill="#316192"/>
<path d="M162.42 60.4906C162.741 59.3131 162.802 58.0797 162.6 56.876C162.398 55.6722 161.938 54.527 161.25 53.5196C160.679 52.8027 159.966 52.2121 159.156 51.7849C158.346 51.3576 157.457 51.1029 156.544 51.0368C154.675 50.775 152.77 51.1141 151.104 52.0053C150.365 52.4518 149.724 53.0451 149.221 53.7489C148.718 54.4526 148.364 55.252 148.18 56.0979C147.708 58.0523 147.924 60.1102 148.792 61.923C149.232 62.7461 149.844 63.4646 150.585 64.0296C151.327 64.5945 152.181 64.9927 153.09 65.197C154.667 65.5451 156.3 65.5451 157.877 65.197C158.435 65.1016 158.952 64.7059 159.523 64.7059C160.257 65.1834 160.883 65.8246 161.617 66.3566C161.93 66.0428 162.243 65.7154 162.542 65.3744C161.876 64.8014 161.182 64.2694 160.502 63.7101C161.424 62.8337 162.087 61.7199 162.42 60.4906ZM160.162 62.0731C159.574 62.7618 158.843 63.3146 158.022 63.6936C157.2 64.0727 156.306 64.2689 155.402 64.2689C154.498 64.2689 153.604 64.0727 152.782 63.6936C151.961 63.3146 151.23 62.7618 150.642 62.0731C150.041 61.1785 149.647 60.1605 149.49 59.0935C149.332 58.0266 149.414 56.9378 149.731 55.9069C149.982 55.0308 150.453 54.2338 151.098 53.5915C151.743 52.9492 152.541 52.4831 153.416 52.2373C154.445 51.9163 155.537 51.8605 156.592 52.0751C157.648 52.2897 158.632 52.7677 159.455 53.465C161.617 55.4977 161.808 59.6175 160.162 62.0731Z" fill="#316192"/>
<path d="M165.058 63.9284C165.058 59.713 165.058 55.4977 165.058 51.2823H163.698V65.0879C167.098 65.0879 170.498 65.0879 173.912 65.0879C173.912 64.7196 173.912 64.3376 173.912 63.9693C170.934 63.9011 168.05 63.9829 165.058 63.9284Z" fill="#316192"/>
<path d="M89.9968 53.8879C89.6611 53.5795 89.2656 53.344 88.835 53.1961C88.4043 53.0482 87.9479 52.9912 87.4943 53.0285C85.5902 53.0285 83.6861 53.0285 81.782 53.0285V64.5286H82.802C82.802 62.9052 82.802 61.2682 82.802 59.6448C84.4341 59.6448 86.0662 59.6448 87.6847 59.6448C88.3323 59.6531 88.9672 59.4647 89.5061 59.1044C90.045 58.744 90.4626 58.2286 90.704 57.6258C90.9234 56.9953 90.9736 56.318 90.8494 55.6619C90.7253 55.0058 90.4312 54.394 89.9968 53.8879ZM89.48 57.4348C89.3022 57.857 88.9995 58.2142 88.6127 58.4582C88.2259 58.7022 87.7738 58.8211 87.3174 58.799C85.8078 58.799 84.3117 58.799 82.8156 58.799C82.8156 57.1893 82.8156 55.5932 82.8156 53.9971H87.1542C87.5373 53.9629 87.9231 54.0177 88.2816 54.1573C88.6402 54.2969 88.9618 54.5175 89.2215 54.8019C89.4526 55.1906 89.5956 55.6255 89.6402 56.0759C89.6849 56.5262 89.6302 56.9808 89.48 57.4075V57.4348Z" fill="#1A1A1A"/>
<path d="M89.9968 53.8879C89.6611 53.5795 89.2656 53.344 88.835 53.1961C88.4043 53.0482 87.9479 52.9912 87.4943 53.0285C85.5902 53.0285 83.6861 53.0285 81.782 53.0285V64.5286H82.802C82.802 62.9052 82.802 61.2682 82.802 59.6448C84.4341 59.6448 86.0662 59.6448 87.6847 59.6448C88.3323 59.6531 88.9672 59.4647 89.5061 59.1044C90.045 58.744 90.4626 58.2286 90.704 57.6258C90.9234 56.9953 90.9736 56.318 90.8494 55.6619C90.7253 55.0058 90.4312 54.394 89.9968 53.8879ZM89.48 57.4348C89.3022 57.857 88.9995 58.2142 88.6127 58.4582C88.2259 58.7022 87.7738 58.8211 87.3174 58.799C85.8078 58.799 84.3117 58.799 82.8156 58.799C82.8156 57.1893 82.8156 55.5932 82.8156 53.9971H87.1542C87.5373 53.9629 87.9231 54.0177 88.2816 54.1573C88.6402 54.2969 88.9618 54.5175 89.2215 54.8019C89.4526 55.1906 89.5956 55.6255 89.6402 56.0759C89.6849 56.5262 89.6302 56.9808 89.48 57.4075V57.4348Z" fill="black" fill-opacity="0.8"/>
<path d="M111.729 57.7622C111.729 57.503 111.729 57.2302 111.729 56.971H109.92V54.5018H108.873C108.873 55.3203 108.873 56.1389 108.873 56.9574C108.424 56.9574 107.989 56.9574 107.513 56.9574V57.735H108.873C108.873 59.4811 108.873 61.2136 108.873 62.9598C108.838 63.2163 108.871 63.4774 108.969 63.7169C109.067 63.9564 109.226 64.1658 109.43 64.324C110.147 64.6453 110.949 64.7266 111.715 64.5559V63.792C111.214 63.8882 110.695 63.841 110.219 63.6555C109.893 63.4373 109.92 62.9598 109.92 62.5915C109.92 60.9817 109.92 59.372 109.92 57.7486L111.729 57.7622Z" fill="#1A1A1A"/>
<path d="M111.729 57.7622C111.729 57.503 111.729 57.2302 111.729 56.971H109.92V54.5018H108.873C108.873 55.3203 108.873 56.1389 108.873 56.9574C108.424 56.9574 107.989 56.9574 107.513 56.9574V57.735H108.873C108.873 59.4811 108.873 61.2136 108.873 62.9598C108.838 63.2163 108.871 63.4774 108.969 63.7169C109.067 63.9564 109.226 64.1658 109.43 64.324C110.147 64.6453 110.949 64.7266 111.715 64.5559V63.792C111.214 63.8882 110.695 63.841 110.219 63.6555C109.893 63.4373 109.92 62.9598 109.92 62.5915C109.92 60.9817 109.92 59.372 109.92 57.7486L111.729 57.7622Z" fill="black" fill-opacity="0.8"/>
<path d="M91.3008 58.2943C91.3839 58.1747 91.4747 58.0608 91.5728 57.9532C91.4747 58.0608 91.3839 58.1747 91.3008 58.2943Z" fill="#1A1A1A"/>
<path d="M91.3006 58.2943C91.1664 58.4817 91.0524 58.6829 90.9606 58.8946C90.784 59.331 90.6696 59.7903 90.6206 60.2587C90.6696 59.7903 90.784 59.331 90.9606 58.8946C91.0524 58.6829 91.1664 58.4817 91.3006 58.2943Z" fill="#1A1A1A"/>
<path d="M98.291 58.0897C98.3726 58.1988 98.4406 58.3079 98.5086 58.4171C98.4406 58.3079 98.3726 58.1988 98.291 58.0897Z" fill="#1A1A1A"/>
<path d="M99.1362 60.818C99.1362 60.6679 99.1362 60.5315 99.1362 60.3951C99.1226 60.5315 99.1362 60.7088 99.1362 60.818Z" fill="#1A1A1A"/>
<path d="M98.6865 58.7717C98.9188 59.2846 99.0615 59.8337 99.1081 60.3951C99.0615 59.8337 98.9188 59.2846 98.6865 58.7717Z" fill="#1A1A1A"/>
<path d="M98.6867 58.7717C98.6339 58.648 98.5702 58.5293 98.4963 58.4171C98.4963 58.3079 98.3603 58.1988 98.2787 58.0897C98.074 57.8299 97.8254 57.6082 97.5442 57.4348C96.3491 56.7513 94.9435 56.5373 93.6 56.8346C92.8191 56.9815 92.1048 57.3732 91.56 57.9532C91.4619 58.0608 91.371 58.1747 91.2879 58.2943C91.1537 58.4817 91.0397 58.6829 90.9479 58.8945C90.7713 59.331 90.6569 59.7902 90.6079 60.2587C90.6079 60.4224 90.6079 60.5861 90.6079 60.7498V60.9954C90.6079 61.0772 90.6079 61.1727 90.6079 61.2409C90.6079 61.3091 90.6079 61.5683 90.6759 61.732C90.7468 62.0499 90.847 62.3604 90.9751 62.6597C91.0823 62.8875 91.2146 63.1026 91.3695 63.3009C91.4118 63.3702 91.462 63.4343 91.5192 63.4918C91.6776 63.6794 91.8606 63.8446 92.0632 63.9829L92.2536 64.1194C92.3896 64.2047 92.5303 64.2822 92.6752 64.3513C92.8171 64.4141 92.9624 64.4688 93.1104 64.515C93.26 64.515 93.4096 64.5968 93.5592 64.6378H94.0081C95.1748 64.8086 96.3655 64.6032 97.4082 64.0512C97.5818 63.9533 97.7458 63.8391 97.8978 63.7101C98.0564 63.5689 98.2021 63.4136 98.3331 63.2463C98.8398 62.4978 99.11 61.6136 99.1083 60.7089C99.1083 60.5588 99.1083 60.4224 99.1083 60.286C99.0498 59.7618 98.9074 59.2505 98.6867 58.7717ZM97.3266 63.0007C97.0391 63.3129 96.6898 63.5615 96.301 63.7307C95.9123 63.8998 95.4926 63.9857 95.0689 63.9829C94.6061 64.0363 94.1372 63.9896 93.6938 63.8461C93.2504 63.7025 92.8428 63.4655 92.4984 63.1508C92.1 62.6466 91.8349 62.0496 91.7279 61.4152C91.621 60.7809 91.6754 60.1297 91.8864 59.522C92.0371 59.0169 92.3306 58.5664 92.7313 58.225C93.132 57.8836 93.6227 57.666 94.1441 57.5985C95.1246 57.4219 96.1356 57.6111 96.9866 58.1306C97.3048 58.3857 97.5643 58.7066 97.7474 59.0716C97.9304 59.4365 98.0328 59.8368 98.0475 60.2451C98.1165 60.7294 98.0883 61.2227 97.9645 61.6959C97.8407 62.1692 97.6238 62.6128 97.3266 63.0007Z" fill="#1A1A1A"/>
<path d="M98.6867 58.7717C98.6339 58.648 98.5702 58.5293 98.4963 58.4171C98.4963 58.3079 98.3603 58.1988 98.2787 58.0897C98.074 57.8299 97.8254 57.6082 97.5442 57.4348C96.3491 56.7513 94.9435 56.5373 93.6 56.8346C92.8191 56.9815 92.1048 57.3732 91.56 57.9532C91.4619 58.0608 91.371 58.1747 91.2879 58.2943C91.1537 58.4817 91.0397 58.6829 90.9479 58.8945C90.7713 59.331 90.6569 59.7902 90.6079 60.2587C90.6079 60.4224 90.6079 60.5861 90.6079 60.7498V60.9954C90.6079 61.0772 90.6079 61.1727 90.6079 61.2409C90.6079 61.3091 90.6079 61.5683 90.6759 61.732C90.7468 62.0499 90.847 62.3604 90.9751 62.6597C91.0823 62.8875 91.2146 63.1026 91.3695 63.3009C91.4118 63.3702 91.462 63.4343 91.5192 63.4918C91.6776 63.6794 91.8606 63.8446 92.0632 63.9829L92.2536 64.1194C92.3896 64.2047 92.5303 64.2822 92.6752 64.3513C92.8171 64.4141 92.9624 64.4688 93.1104 64.515C93.26 64.515 93.4096 64.5968 93.5592 64.6378H94.0081C95.1748 64.8086 96.3655 64.6032 97.4082 64.0512C97.5818 63.9533 97.7458 63.8391 97.8978 63.7101C98.0564 63.5689 98.2021 63.4136 98.3331 63.2463C98.8398 62.4978 99.11 61.6136 99.1083 60.7089C99.1083 60.5588 99.1083 60.4224 99.1083 60.286C99.0498 59.7618 98.9074 59.2505 98.6867 58.7717ZM97.3266 63.0007C97.0391 63.3129 96.6898 63.5615 96.301 63.7307C95.9123 63.8998 95.4926 63.9857 95.0689 63.9829C94.6061 64.0363 94.1372 63.9896 93.6938 63.8461C93.2504 63.7025 92.8428 63.4655 92.4984 63.1508C92.1 62.6466 91.8349 62.0496 91.7279 61.4152C91.621 60.7809 91.6754 60.1297 91.8864 59.522C92.0371 59.0169 92.3306 58.5664 92.7313 58.225C93.132 57.8836 93.6227 57.666 94.1441 57.5985C95.1246 57.4219 96.1356 57.6111 96.9866 58.1306C97.3048 58.3857 97.5643 58.7066 97.7474 59.0716C97.9304 59.4365 98.0328 59.8368 98.0475 60.2451C98.1165 60.7294 98.0883 61.2227 97.9645 61.6959C97.8407 62.1692 97.6238 62.6128 97.3266 63.0007Z" fill="black" fill-opacity="0.8"/>
<path d="M105.569 60.5588C104.29 60.2451 102.984 60.286 101.72 59.9313C101.482 59.875 101.272 59.7384 101.123 59.5447C100.975 59.3509 100.897 59.1117 100.904 58.8673C100.928 58.5222 101.082 58.1993 101.334 57.9638C101.587 57.7283 101.919 57.5977 102.264 57.5986C103.228 57.3761 104.238 57.4669 105.147 57.8578C105.375 58.007 105.564 58.2086 105.699 58.4459C105.834 58.6831 105.91 58.9491 105.922 59.2219H107.024C107.018 58.8838 106.942 58.5504 106.802 58.2429C106.661 57.9354 106.459 57.6603 106.208 57.4349C105.213 56.8302 104.042 56.5847 102.889 56.7391C102.065 56.7321 101.256 56.954 100.55 57.3803C100.321 57.5793 100.14 57.8286 100.023 58.1088C99.9051 58.3891 99.8535 58.6928 99.8719 58.9963C99.8903 59.2998 99.9782 59.595 100.129 59.8589C100.279 60.1228 100.489 60.3483 100.74 60.5179C102.277 61.1591 103.991 60.9954 105.555 61.5001C105.732 61.6039 105.881 61.7502 105.988 61.9261C106.095 62.1019 106.157 62.3017 106.168 62.5074C106.179 62.7132 106.138 62.9183 106.05 63.1045C105.962 63.2906 105.829 63.4519 105.664 63.5737C104.585 64.0666 103.37 64.1725 102.223 63.8738C101.813 63.815 101.438 63.6104 101.166 63.2974C100.894 62.9845 100.743 62.5839 100.74 62.1686H99.5979C99.6341 62.8664 99.9245 63.5267 100.414 64.0239C101.307 64.5854 102.355 64.8481 103.406 64.7742C104.477 64.8667 105.551 64.6388 106.493 64.1194C106.872 63.826 107.138 63.4108 107.247 62.9437C107.356 62.4766 107.301 61.9861 107.092 61.5547C106.919 61.293 106.695 61.0695 106.433 60.8982C106.171 60.7269 105.877 60.6114 105.569 60.5588Z" fill="#1A1A1A"/>
<path d="M105.569 60.5588C104.29 60.2451 102.984 60.286 101.72 59.9313C101.482 59.875 101.272 59.7384 101.123 59.5447C100.975 59.3509 100.897 59.1117 100.904 58.8673C100.928 58.5222 101.082 58.1993 101.334 57.9638C101.587 57.7283 101.919 57.5977 102.264 57.5986C103.228 57.3761 104.238 57.4669 105.147 57.8578C105.375 58.007 105.564 58.2086 105.699 58.4459C105.834 58.6831 105.91 58.9491 105.922 59.2219H107.024C107.018 58.8838 106.942 58.5504 106.802 58.2429C106.661 57.9354 106.459 57.6603 106.208 57.4349C105.213 56.8302 104.042 56.5847 102.889 56.7391C102.065 56.7321 101.256 56.954 100.55 57.3803C100.321 57.5793 100.14 57.8286 100.023 58.1088C99.9051 58.3891 99.8535 58.6928 99.8719 58.9963C99.8903 59.2998 99.9782 59.595 100.129 59.8589C100.279 60.1228 100.489 60.3483 100.74 60.5179C102.277 61.1591 103.991 60.9954 105.555 61.5001C105.732 61.6039 105.881 61.7502 105.988 61.9261C106.095 62.1019 106.157 62.3017 106.168 62.5074C106.179 62.7132 106.138 62.9183 106.05 63.1045C105.962 63.2906 105.829 63.4519 105.664 63.5737C104.585 64.0666 103.37 64.1725 102.223 63.8738C101.813 63.815 101.438 63.6104 101.166 63.2974C100.894 62.9845 100.743 62.5839 100.74 62.1686H99.5979C99.6341 62.8664 99.9245 63.5267 100.414 64.0239C101.307 64.5854 102.355 64.8481 103.406 64.7742C104.477 64.8667 105.551 64.6388 106.493 64.1194C106.872 63.826 107.138 63.4108 107.247 62.9437C107.356 62.4766 107.301 61.9861 107.092 61.5547C106.919 61.293 106.695 61.0695 106.433 60.8982C106.171 60.7269 105.877 60.6114 105.569 60.5588Z" fill="black" fill-opacity="0.8"/>
<path d="M120.678 56.9847H119.672V58.1988C119.272 57.6923 118.759 57.2861 118.176 57.012C117.102 56.6912 115.958 56.6912 114.884 57.012C114.307 57.143 113.777 57.4295 113.351 57.8406C112.924 58.2517 112.617 58.7717 112.464 59.3447C112.304 59.9669 112.271 60.615 112.367 61.2502C112.462 61.8855 112.685 62.4948 113.021 63.0417C113.315 63.4277 113.685 63.7482 114.109 63.9831C114.533 64.2179 115.001 64.3619 115.483 64.4059C116.229 64.5641 117.003 64.5308 117.733 64.309C118.463 64.0872 119.125 63.6842 119.658 63.1372C119.795 64.0938 119.653 65.0696 119.25 65.9474C118.968 66.3085 118.603 66.5953 118.186 66.783C117.769 66.9708 117.313 67.0539 116.857 67.0251C116.07 67.0864 115.28 66.9505 114.558 66.6295C114.082 66.3703 113.919 65.7564 113.701 65.2653H112.681C112.709 65.6417 112.819 66.0075 113.002 66.3372C113.185 66.667 113.438 66.9529 113.742 67.1752C114.655 67.6196 115.667 67.8216 116.68 67.7618C117.263 67.8072 117.849 67.7366 118.404 67.554C118.96 67.3714 119.474 67.0803 119.917 66.6977C120.225 66.3198 120.455 65.8836 120.593 65.415C120.731 64.9464 120.774 64.4548 120.719 63.9693C120.692 61.6366 120.774 59.3447 120.678 56.9847ZM119.087 62.5506C118.681 62.9938 118.164 63.3199 117.59 63.4951C117.016 63.6702 116.406 63.6879 115.823 63.5464C115.347 63.5074 114.891 63.3361 114.507 63.0517C114.122 62.7674 113.825 62.3813 113.647 61.9367C113.47 61.4514 113.394 60.9351 113.422 60.4193C113.45 59.9034 113.582 59.3986 113.81 58.9355C114.017 58.5898 114.297 58.2943 114.631 58.0702C114.965 57.8461 115.344 57.699 115.741 57.6395C116.242 57.5279 116.761 57.5187 117.266 57.6124C117.77 57.7062 118.251 57.901 118.679 58.1852C119.248 58.7486 119.6 59.495 119.675 60.2934C119.75 61.0917 119.542 61.8909 119.087 62.5506Z" fill="#1A1A1A"/>
<path d="M120.678 56.9847H119.672V58.1988C119.272 57.6923 118.759 57.2861 118.176 57.012C117.102 56.6912 115.958 56.6912 114.884 57.012C114.307 57.143 113.777 57.4295 113.351 57.8406C112.924 58.2517 112.617 58.7717 112.464 59.3447C112.304 59.9669 112.271 60.615 112.367 61.2502C112.462 61.8855 112.685 62.4948 113.021 63.0417C113.315 63.4277 113.685 63.7482 114.109 63.9831C114.533 64.2179 115.001 64.3619 115.483 64.4059C116.229 64.5641 117.003 64.5308 117.733 64.309C118.463 64.0872 119.125 63.6842 119.658 63.1372C119.795 64.0938 119.653 65.0696 119.25 65.9474C118.968 66.3085 118.603 66.5953 118.186 66.783C117.769 66.9708 117.313 67.0539 116.857 67.0251C116.07 67.0864 115.28 66.9505 114.558 66.6295C114.082 66.3703 113.919 65.7564 113.701 65.2653H112.681C112.709 65.6417 112.819 66.0075 113.002 66.3372C113.185 66.667 113.438 66.9529 113.742 67.1752C114.655 67.6196 115.667 67.8216 116.68 67.7618C117.263 67.8072 117.849 67.7366 118.404 67.554C118.96 67.3714 119.474 67.0803 119.917 66.6977C120.225 66.3198 120.455 65.8836 120.593 65.415C120.731 64.9464 120.774 64.4548 120.719 63.9693C120.692 61.6366 120.774 59.3447 120.678 56.9847ZM119.087 62.5506C118.681 62.9938 118.164 63.3199 117.59 63.4951C117.016 63.6702 116.406 63.6879 115.823 63.5464C115.347 63.5074 114.891 63.3361 114.507 63.0517C114.122 62.7674 113.825 62.3813 113.647 61.9367C113.47 61.4514 113.394 60.9351 113.422 60.4193C113.45 59.9034 113.582 59.3986 113.81 58.9355C114.017 58.5898 114.297 58.2943 114.631 58.0702C114.965 57.8461 115.344 57.699 115.741 57.6395C116.242 57.5279 116.761 57.5187 117.266 57.6124C117.77 57.7062 118.251 57.901 118.679 58.1852C119.248 58.7486 119.6 59.495 119.675 60.2934C119.75 61.0917 119.542 61.8909 119.087 62.5506Z" fill="black" fill-opacity="0.8"/>
<path d="M126.309 56.7527C125.489 56.6597 124.66 56.7625 123.888 57.0529C123.443 57.3549 123.098 57.7821 122.895 58.2806C122.895 57.8577 122.895 57.4212 122.895 56.9847H121.807C121.807 59.4948 121.807 62.0185 121.807 64.5286H122.827C122.827 63.1644 122.827 61.923 122.827 60.6134C122.798 60.1592 122.868 59.7042 123.032 59.28C123.197 58.8559 123.452 58.4729 123.779 58.1579C124.517 57.7119 125.393 57.5518 126.241 57.7077L126.309 56.7527Z" fill="#1A1A1A"/>
<path d="M126.309 56.7527C125.489 56.6597 124.66 56.7625 123.888 57.0529C123.443 57.3549 123.098 57.7821 122.895 58.2806C122.895 57.8577 122.895 57.4212 122.895 56.9847H121.807C121.807 59.4948 121.807 62.0185 121.807 64.5286H122.827C122.827 63.1644 122.827 61.923 122.827 60.6134C122.798 60.1592 122.868 59.7042 123.032 59.28C123.197 58.8559 123.452 58.4729 123.779 58.1579C124.517 57.7119 125.393 57.5518 126.241 57.7077L126.309 56.7527Z" fill="black" fill-opacity="0.8"/>
<path d="M134.659 60.9681C134.686 59.8909 134.346 58.8366 133.693 57.9805C133.21 57.4985 132.622 57.1364 131.975 56.9232C131.328 56.71 130.64 56.6516 129.966 56.7527C129.299 56.7449 128.64 56.9135 128.058 57.2416C127.475 57.5696 126.989 58.0456 126.648 58.6217C126.21 59.4678 126.055 60.433 126.207 61.3742C126.359 62.3153 126.809 63.1823 127.491 63.8465C128.145 64.3149 128.898 64.624 129.691 64.7496C130.484 64.8751 131.296 64.8134 132.061 64.5696C132.653 64.409 133.192 64.0931 133.623 63.6543C134.053 63.2156 134.359 62.6698 134.509 62.0731H133.38C133.252 62.4845 133.029 62.8597 132.729 63.168C132.429 63.4762 132.06 63.7088 131.653 63.8465C131.033 64.0494 130.371 64.0844 129.733 63.9478C129.095 63.8113 128.505 63.5081 128.022 63.0689C127.537 62.4856 127.263 61.7546 127.246 60.9954C129.708 60.9544 132.183 60.9954 134.659 60.9681ZM127.246 60.2724C127.299 59.8158 127.448 59.3755 127.682 58.9806C127.916 58.5856 128.231 58.2448 128.606 57.9805C129.314 57.5296 130.164 57.3582 130.99 57.4993C131.817 57.6404 132.562 58.0841 133.081 58.7445C133.401 59.1878 133.589 59.7126 133.625 60.2587C131.463 60.286 129.354 60.286 127.246 60.2724Z" fill="#1A1A1A"/>
<path d="M134.659 60.9681C134.686 59.8909 134.346 58.8366 133.693 57.9805C133.21 57.4985 132.622 57.1364 131.975 56.9232C131.328 56.71 130.64 56.6516 129.966 56.7527C129.299 56.7449 128.64 56.9135 128.058 57.2416C127.475 57.5696 126.989 58.0456 126.648 58.6217C126.21 59.4678 126.055 60.433 126.207 61.3742C126.359 62.3153 126.809 63.1823 127.491 63.8465C128.145 64.3149 128.898 64.624 129.691 64.7496C130.484 64.8751 131.296 64.8134 132.061 64.5696C132.653 64.409 133.192 64.0931 133.623 63.6543C134.053 63.2156 134.359 62.6698 134.509 62.0731H133.38C133.252 62.4845 133.029 62.8597 132.729 63.168C132.429 63.4762 132.06 63.7088 131.653 63.8465C131.033 64.0494 130.371 64.0844 129.733 63.9478C129.095 63.8113 128.505 63.5081 128.022 63.0689C127.537 62.4856 127.263 61.7546 127.246 60.9954C129.708 60.9544 132.183 60.9954 134.659 60.9681ZM127.246 60.2724C127.299 59.8158 127.448 59.3755 127.682 58.9806C127.916 58.5856 128.231 58.2448 128.606 57.9805C129.314 57.5296 130.164 57.3582 130.99 57.4993C131.817 57.6404 132.562 58.0841 133.081 58.7445C133.401 59.1878 133.589 59.7126 133.625 60.2587C131.463 60.286 129.354 60.286 127.246 60.2724Z" fill="black" fill-opacity="0.8"/>
<path d="M59.5707 36.9582C57.559 36.6105 55.5029 36.6105 53.4912 36.9582C52.3367 37.2085 51.2206 37.6122 50.1726 38.1587C46.8613 36.9399 43.2991 36.5695 39.8089 37.081C38.5755 37.3089 37.4024 37.7901 36.3632 38.4944C35.324 39.1986 34.4412 40.1108 33.7702 41.1736C32.3004 43.8803 31.7242 46.9849 32.1246 50.0408C32.596 53.429 33.3234 56.7763 34.3007 60.0539C35.073 62.9152 36.2065 65.6659 37.6736 68.2391C38.4526 69.8029 39.7942 71.012 41.4274 71.6223C42.0834 71.7838 42.7686 71.7837 43.4246 71.6222C44.0806 71.4607 44.6879 71.1424 45.1948 70.6946C45.7182 71.2235 46.3491 71.6329 47.0445 71.8951C49.0688 72.5963 51.2749 72.5576 53.2736 71.786C53.1669 74.5509 53.5068 77.315 54.28 79.9711C54.6606 81.2229 55.4513 82.3092 56.5241 83.0542C57.7696 83.817 59.2612 84.0663 60.6859 83.7499C61.9838 83.5803 63.2385 83.1685 64.3853 82.5358C65.5489 81.7918 66.467 80.7191 67.0239 79.4527C68.0725 76.5888 68.5798 73.554 68.5199 70.5036C71.4856 70.7926 74.4457 69.9009 76.7619 68.0208C77.2705 67.6724 77.6647 67.1806 77.8947 66.6076C78.1247 66.0345 78.1801 65.406 78.054 64.8013C77.8854 64.2831 77.5487 63.8364 77.0977 63.5323C76.6466 63.2282 76.1071 63.0843 75.5651 63.1234C74.4362 63.2052 73.3482 63.5599 72.2193 63.5599C74.8224 59.1894 76.6622 54.4051 77.6596 49.4133C78.1151 47.3281 78.1151 45.1686 77.6596 43.0834C77.236 41.916 76.5137 40.881 75.5651 40.0822C73.5961 38.1718 71.0979 36.9022 68.3975 36.4398C65.4536 35.9488 62.4374 36.1259 59.5707 36.9582Z" fill="white"/>
<path d="M59.5584 38.3089C62.6922 37.2748 66.053 37.1472 69.2557 37.9406C71.8201 38.632 74.0859 40.1519 75.7024 42.2651C76.2741 43.179 76.5628 44.2424 76.532 45.3208C76.5509 47.2026 76.3222 49.0786 75.852 50.9004C74.6494 55.7413 72.6597 60.3503 69.9629 64.5423C71.4855 64.9929 73.1054 64.9929 74.628 64.5423C75.2672 64.4195 76.0968 64.2558 76.5729 64.8151C77.0489 65.3744 76.5729 66.1793 76.1104 66.6568C74.9563 67.6669 73.5842 68.3948 72.1022 68.783C70.6201 69.1712 69.0684 69.2092 67.5692 68.894C67.2564 71.5542 66.9436 74.228 66.5356 76.8745C66.4065 78.4169 65.7423 79.8651 64.6587 80.9671C63.5194 81.8282 62.1722 82.3697 60.7553 82.5359C60.0487 82.6857 59.3182 82.6803 58.6139 82.5202C57.9096 82.3601 57.2482 82.049 56.6751 81.6083C55.5073 80.5182 54.7891 79.0288 54.6622 77.4338C54.4058 74.7637 54.3059 72.0807 54.363 69.3988C53.0779 70.5008 51.4114 71.0498 49.7251 70.9267C48.4988 70.9447 47.3034 70.5402 46.3386 69.7807C46.2222 69.6687 46.1311 69.533 46.0715 69.3827C46.0118 69.2324 45.9849 69.0711 45.9926 68.9095C46.0004 68.7479 46.0425 68.5899 46.1163 68.446C46.19 68.3022 46.2937 68.1758 46.4202 68.0755C47.4614 67.56 48.5692 67.1927 49.7115 66.9842C50.514 66.7522 50.9356 65.9747 51.4388 65.3744C50.4927 65.3205 49.5673 65.0745 48.7187 64.6514C47.4402 66.0156 46.2026 67.448 44.9921 68.8804C44.666 69.3273 44.2343 69.686 43.7357 69.9241C43.2372 70.1622 42.6875 70.2724 42.136 70.2446C41.5258 70.1048 40.9505 69.8415 40.4454 69.4709C39.9402 69.1003 39.5158 68.6301 39.1982 68.0891C37.8699 66.0292 36.8353 63.793 36.1245 61.4456C34.8918 57.7298 33.9817 53.914 33.4044 50.0409C32.9599 47.0728 33.5508 44.0418 35.0772 41.4602C35.7794 40.4989 36.6824 39.7029 37.723 39.128C38.7637 38.5531 39.917 38.213 41.1023 38.1316C44.257 37.886 47.4264 38.3521 50.378 39.4958C51.627 38.7343 53.0138 38.2278 54.4585 38.0054C55.9032 37.783 57.3776 37.8491 58.7968 38.1998C59.0431 38.2771 59.3003 38.314 59.5584 38.3089ZM61.8705 39.1138C62.469 39.5367 63.1626 39.8368 63.7746 40.2597C66.2833 41.9776 68.2584 44.37 69.4733 47.1625C69.891 47.9385 70.115 48.8044 70.1261 49.6862C70.1261 51.5006 69.5277 53.2741 69.7045 55.143C70.0734 57.0641 70.1102 59.0345 69.8133 60.9681C69.6232 61.6245 69.3775 62.2635 69.0789 62.8779C69.0789 62.9734 69.0789 63.1644 69.1469 63.2463C69.3781 62.9462 69.5821 62.6324 69.7861 62.305C71.7482 58.9839 73.2707 55.4207 74.3151 51.7052C74.9007 49.7014 75.2119 47.627 75.24 45.5391C75.2798 44.6308 75.0322 43.7331 74.5328 42.9744C73.34 41.471 71.7664 40.3167 69.9765 39.6322C67.3796 38.6852 64.5663 38.5053 61.8705 39.1138ZM54.431 39.373C53.4338 39.5041 52.4726 39.8335 51.6039 40.3418C50.7351 40.8501 49.9762 41.5272 49.3715 42.3333C47.8173 44.5713 46.9305 47.2068 46.8146 49.9318C48.4216 48.9858 50.303 48.6199 52.1461 48.895C52.7324 49.0566 53.2627 49.378 53.678 49.8235C54.0933 50.269 54.3775 50.8211 54.499 51.4188C55.1319 53.7904 55.2387 56.2724 54.8118 58.6899C54.4038 60.627 53.2205 62.305 52.8261 64.2558C53.3339 64.254 53.8357 64.3658 54.295 64.5832C54.7395 64.8491 55.1019 65.2333 55.342 65.6933C55.582 66.1532 55.6904 66.6708 55.655 67.1888C55.587 69.8353 55.587 72.4818 55.7366 75.1284C55.7656 76.2297 55.8977 77.3259 56.1311 78.4024C56.2852 79.0754 56.6202 79.6932 57.0998 80.1886C57.5793 80.6841 58.1851 81.0382 58.8512 81.2126C60.3334 81.3749 61.8294 81.0748 63.1354 80.3532C63.723 79.9746 64.2154 79.4648 64.574 78.8638C64.9326 78.2627 65.1478 77.5865 65.2027 76.8882C65.6651 74.0779 65.9779 71.2268 66.3044 68.3893C66.2575 67.351 66.4289 66.3145 66.8076 65.3471C67.1875 64.8188 67.7188 64.4191 68.3309 64.2012C67.8261 63.6127 67.3711 62.983 66.9708 62.3186C65.6107 59.4129 63.6658 56.6572 63.081 53.4378C62.8956 52.7505 62.8922 52.0265 63.0711 51.3375C63.25 50.6485 63.605 50.0182 64.101 49.5089C65.4242 48.6358 67.0267 48.2948 68.5893 48.554C67.6492 45.9351 65.9895 43.6365 63.8018 41.924C62.4848 40.9 60.9787 40.1474 59.3705 39.7096C57.7622 39.2717 56.0835 39.1573 54.431 39.373ZM40.4223 39.5912C39.4971 39.7413 38.6154 40.091 37.8382 40.6162C37.0609 41.1414 36.4066 41.8297 35.9205 42.6334C34.8081 44.8734 34.4048 47.4009 34.7644 49.8772C35.2259 53.1091 35.9306 56.3013 36.8725 59.4265C37.5887 62.089 38.6447 64.6476 40.0143 67.0387C40.4944 67.8729 41.2354 68.525 42.1224 68.894C42.952 69.0714 43.6185 68.3756 44.0945 67.8027C45.2097 66.4385 46.4066 65.1698 47.549 63.8329C46.7136 63.0714 46.0715 62.1208 45.6765 61.0601C45.2814 59.9994 45.1447 58.8594 45.2777 57.735C45.5125 56.0084 45.5717 54.2623 45.4545 52.5238C45.295 50.0441 45.6137 47.5568 46.393 45.1981C46.9468 43.4369 47.8748 41.8172 49.1131 40.4507C46.3282 39.463 43.3459 39.1681 40.4223 39.5912ZM65.0259 50.5048C64.6763 50.8772 64.4336 51.3376 64.3234 51.8371C64.2133 52.3366 64.2398 52.8567 64.4003 53.3423C65.0123 56.3571 66.7668 58.9354 68.1132 61.6365C69.1333 59.6039 68.5077 57.2848 68.3445 55.143C68.3739 53.4032 68.5147 51.6671 68.7661 49.9454C67.4971 49.679 66.1753 49.8622 65.0259 50.4638V50.5048ZM46.7602 51.6098C46.7602 53.0558 46.8962 54.5155 46.7602 55.9615C46.5453 57.2322 46.4995 58.5258 46.6242 59.8085C46.8264 60.9569 47.4116 62.0023 48.284 62.7732C49.1563 63.544 50.264 63.9947 51.4252 64.0512C51.7812 62.9094 52.2128 61.7928 52.7173 60.7089C53.9375 57.8346 54.0966 54.6183 53.1661 51.637C53.0569 51.2259 52.8202 50.8602 52.4901 50.5929C52.1601 50.3255 51.7538 50.1705 51.33 50.1501C49.6976 50.1407 48.1019 50.6361 46.7602 51.5688V51.6098ZM68.0996 65.8382C67.925 66.0667 67.7988 66.3286 67.7286 66.6077C67.6585 66.8868 67.6459 67.1774 67.6916 67.4616C68.677 67.7457 69.713 67.8063 70.7246 67.639C72.2787 67.5315 73.7527 66.9075 74.9136 65.8655C73.0775 66.0838 71.0782 66.534 69.3509 65.62C68.9565 65.3335 68.4533 65.579 68.0996 65.8382ZM50.7452 67.9527C49.6595 68.3688 48.5516 68.724 47.4266 69.0168C48.5207 69.5688 49.7684 69.7345 50.968 69.4869C52.1675 69.2393 53.2487 68.5931 54.0366 67.6526C54.1946 67.4685 54.2959 67.2424 54.3283 67.0017C54.3608 66.761 54.3228 66.516 54.2192 66.2964C54.1155 66.0769 53.9505 65.8923 53.7443 65.7649C53.5381 65.6376 53.2994 65.573 53.0573 65.579C52.1325 66.2475 51.738 67.4207 50.7452 67.9527Z" fill="white"/>
<path d="M65.4187 50.8595C65.7315 50.652 66.0925 50.5292 66.4666 50.5029C66.8408 50.4766 67.2153 50.5477 67.554 50.7094C67.5402 50.9141 67.476 51.1122 67.3672 51.286C67.2584 51.4597 67.1084 51.6037 66.9305 51.7051C66.7527 51.8064 66.5526 51.862 66.3481 51.8668C66.1436 51.8716 65.9411 51.8255 65.7587 51.7326C65.4595 51.5961 65.065 51.1596 65.4187 50.8595Z" fill="white"/>
<path d="M50.5535 50.914C50.8796 50.8153 51.2242 50.7947 51.5596 50.8539C51.8951 50.9132 52.212 51.0505 52.4848 51.255C52.852 51.5551 52.4848 52.0463 52.1992 52.2236C52.0163 52.3347 51.8099 52.401 51.5967 52.4171C51.3835 52.4332 51.1695 52.3987 50.9721 52.3163C50.7747 52.2339 50.5994 52.106 50.4605 51.9429C50.3216 51.7798 50.223 51.5862 50.1727 51.3778C50.1319 51.1595 50.3495 50.9822 50.5535 50.914Z" fill="white"/>
<path d="M61.8704 39.1138C64.5796 38.4815 67.4132 38.6473 70.0308 39.5912C71.8056 40.2956 73.36 41.4638 74.5326 42.9744C75.0197 43.7325 75.2576 44.6247 75.2126 45.5255C75.1845 47.6134 74.8733 49.6878 74.2878 51.6916C73.2433 55.4071 71.7208 58.9703 69.7587 62.2914C69.5547 62.6188 69.3507 62.9325 69.1195 63.2326C69.1195 63.1508 69.1195 62.9598 69.0515 62.8643C69.3501 62.2498 69.5958 61.6109 69.7859 60.9544C70.0828 59.0208 70.046 57.0504 69.6771 55.1294C69.5003 53.315 70.1124 51.5415 70.0988 49.6726C70.096 48.7931 69.8814 47.9272 69.4731 47.1489C68.2582 44.3564 66.2831 41.964 63.7745 40.2461C63.1624 39.8368 62.4688 39.5367 61.8704 39.1138Z" fill="#316192"/>
<path d="M54.4312 39.373C56.0816 39.1592 57.7578 39.2745 59.3636 39.7123C60.9694 40.1501 62.4731 40.9017 63.7885 41.924C65.9761 43.6366 67.6359 45.9351 68.5759 48.554C67.0134 48.2949 65.4108 48.6358 64.0877 49.5089C63.5916 50.0182 63.2366 50.6485 63.0577 51.3375C62.8788 52.0266 62.8823 52.7505 63.0677 53.4378C63.6525 56.6573 65.5566 59.4129 66.9574 62.3187C67.3578 62.983 67.8127 63.6127 68.3175 64.2012C67.7055 64.4191 67.1741 64.8188 66.7942 65.3472C66.4156 66.3146 66.2441 67.3511 66.291 68.3893C65.9646 71.2268 65.6518 74.078 65.1894 76.8882C65.1345 77.5865 64.9193 78.2627 64.5607 78.8638C64.202 79.4649 63.7097 79.9746 63.1221 80.3532C61.8161 81.0748 60.3201 81.3749 58.8379 81.2127C58.1717 81.0382 57.566 80.6841 57.0865 80.1887C56.6069 79.6932 56.2719 79.0754 56.1177 78.4024C55.8844 77.3259 55.7523 76.2297 55.7233 75.1284C55.5737 72.4819 55.5737 69.8353 55.6417 67.1888C55.6771 66.6709 55.5687 66.1532 55.3286 65.6933C55.0886 65.2334 54.7262 64.8491 54.2816 64.5832C53.8224 64.3659 53.3206 64.254 52.8128 64.2558C53.2072 62.305 54.3904 60.6271 54.7985 58.6899C55.2253 56.2724 55.1186 53.7904 54.4856 51.4188C54.3642 50.8212 54.08 50.269 53.6646 49.8235C53.2493 49.378 52.7191 49.0566 52.1327 48.895C50.2897 48.62 48.4083 48.9858 46.8013 49.9318C46.9171 47.2069 47.804 44.5713 49.3582 42.3333C49.9644 41.5257 50.7255 40.8477 51.5967 40.3394C52.4679 39.831 53.4316 39.5024 54.4312 39.373Z" fill="#316192"/>
<path d="M40.4215 39.5913C43.3651 39.1679 46.3672 39.4723 49.1668 40.478C47.9285 41.8445 47.0004 43.4642 46.4466 45.2254C45.6523 47.5719 45.3153 50.0496 45.4538 52.5238C45.5719 54.2669 45.5126 56.0175 45.277 57.7486C45.1439 58.873 45.2806 60.013 45.6757 61.0737C46.0708 62.1344 46.7128 63.0851 47.5483 63.8465C46.4058 65.2107 45.209 66.4521 44.0937 67.8163C43.6177 68.3893 42.9513 69.085 42.1216 68.9077C41.2127 68.5132 40.4645 67.8205 39.9999 66.9432C38.6314 64.5564 37.5755 62.0025 36.8582 59.3447C35.9163 56.2195 35.2115 53.0273 34.7501 49.7954C34.3946 47.3176 34.8027 44.7901 35.9197 42.5516C36.4145 41.7631 37.0726 41.0906 37.8493 40.5798C38.6261 40.0691 39.5034 39.7319 40.4215 39.5913Z" fill="#316192"/>
<path d="M65.0238 50.4638C66.1732 49.8622 67.495 49.679 68.764 49.9454C68.5144 51.6536 68.3736 53.376 68.3424 55.1021C68.5056 57.2439 69.1312 59.563 68.1112 61.5956C66.7511 58.8672 65.0102 56.3162 64.3982 53.3013C64.2378 52.8157 64.2112 52.2957 64.3214 51.7962C64.4315 51.2967 64.6742 50.8363 65.0238 50.4638ZM65.4183 50.8594C65.0646 51.1596 65.4183 51.5961 65.7583 51.7325C65.9407 51.8254 66.1432 51.8716 66.3477 51.8668C66.5522 51.862 66.7523 51.8064 66.9301 51.705C67.108 51.6037 67.258 51.4597 67.3668 51.2859C67.4756 51.1122 67.5398 50.9141 67.5536 50.7094C67.2149 50.5477 66.8404 50.4766 66.4662 50.5029C66.0921 50.5292 65.7311 50.652 65.4183 50.8594Z" fill="#316192"/>
<path d="M46.7577 51.5688C48.093 50.6167 49.6892 50.1021 51.3275 50.0955C51.7512 50.1159 52.1575 50.2709 52.4876 50.5382C52.8176 50.8056 53.0544 51.1712 53.1636 51.5824C54.1075 54.5804 53.9483 57.8186 52.7147 60.7088C52.2236 61.7983 51.8056 62.9194 51.4635 64.0647C50.3022 64.0083 49.1946 63.5576 48.3222 62.7868C47.4499 62.0159 46.8646 60.9705 46.6625 59.8221C46.5378 58.5394 46.5835 57.2458 46.7985 55.9751C46.8937 54.4745 46.7849 53.0148 46.7577 51.5688ZM50.5522 50.914C50.3482 50.914 50.1306 51.1322 50.1714 51.3778C50.2217 51.5862 50.3203 51.7798 50.4592 51.9429C50.5981 52.106 50.7734 52.2339 50.9708 52.3163C51.1682 52.3987 51.3822 52.4332 51.5954 52.4171C51.8086 52.401 52.015 52.3347 52.1979 52.2236C52.5107 52.0462 52.8508 51.5551 52.4835 51.255C52.2107 51.0505 51.8938 50.9132 51.5584 50.8539C51.2229 50.7947 50.8783 50.8153 50.5522 50.914Z" fill="#316192"/>
<path d="M68.0997 65.8382C68.4533 65.579 68.9566 65.3335 69.351 65.62C71.0783 66.534 73.0775 66.0838 74.9136 65.8655C73.7528 66.9075 72.2787 67.5315 70.7246 67.639C69.7181 67.8285 68.6821 67.7912 67.6917 67.5298C67.6361 67.235 67.6438 66.9316 67.7141 66.64C67.7845 66.3483 67.9159 66.075 68.0997 65.8382Z" fill="#316192"/>
<path d="M50.7441 67.9527C51.7369 67.4206 52.1042 66.2474 53.0562 65.6336C53.2983 65.6275 53.537 65.6921 53.7432 65.8195C53.9494 65.9468 54.1144 66.1314 54.2181 66.351C54.3217 66.5705 54.3597 66.8155 54.3273 67.0562C54.2948 67.2969 54.1935 67.523 54.0355 67.7071C53.2476 68.6476 52.1664 69.2939 50.9669 69.5414C49.7673 69.789 48.5196 69.6234 47.4255 69.0713C48.5516 68.7606 49.6595 68.3872 50.7441 67.9527Z" fill="#316192"/>
<path d="M59.5707 36.9582C62.4374 36.1259 65.4536 35.9488 68.3975 36.4398C71.0979 36.9022 73.5961 38.1718 75.5651 40.0822C76.4937 40.8876 77.1969 41.9221 77.6052 43.0834C78.0607 45.1686 78.0607 47.3281 77.6052 49.4133C76.6078 54.4051 74.7679 59.1894 72.1649 63.5599C73.2938 63.5599 74.3818 63.2052 75.5107 63.1234C76.0616 63.0715 76.6137 63.2094 77.076 63.5144C77.5384 63.8195 77.8833 64.2733 78.054 64.8013C78.1548 65.3873 78.0868 65.99 77.8579 66.5385C77.629 67.0871 77.2488 67.5587 76.7619 67.898C74.4457 69.7781 71.4856 70.6698 68.5199 70.3809C68.5798 73.4312 68.0725 76.466 67.0238 79.3299C66.4876 80.6415 65.5677 81.7592 64.3853 82.5358C63.2392 83.1939 61.9795 83.629 60.6723 83.8181C59.2431 84.1107 57.7565 83.8369 56.5241 83.0542C55.4415 82.2863 54.6542 81.1691 54.2936 79.8892C53.5204 77.2331 53.1805 74.4691 53.2872 71.7041C51.2885 72.4757 49.0824 72.5144 47.0581 71.8132C46.3627 71.5511 45.7318 71.1416 45.2084 70.6128C44.7077 71.077 44.1015 71.4116 43.4426 71.5875C42.7837 71.7634 42.092 71.7754 41.4274 71.6223C39.8106 71.0352 38.4715 69.8624 37.6736 68.3346C36.2065 65.7613 35.073 63.0107 34.3007 60.1494C33.3234 56.8718 32.596 53.5245 32.1246 50.1363C31.7242 47.0804 32.3004 43.9758 33.7702 41.2691C34.4412 40.2063 35.324 39.2941 36.3632 38.5899C37.4024 37.8856 38.5755 37.4044 39.8089 37.1765C43.2946 36.6475 46.8567 36.9992 50.1726 38.1996C51.2158 37.6201 52.332 37.1842 53.4912 36.9037C55.506 36.574 57.5621 36.5924 59.5707 36.9582ZM59.5707 38.3224C59.3133 38.3319 59.0562 38.2996 58.8091 38.2269C57.3854 37.8863 55.9087 37.8314 54.4638 38.0656C53.0189 38.2997 51.6345 38.8181 50.3902 39.5911C47.4387 38.4474 44.2692 37.9813 41.1146 38.2269C39.9347 38.2951 38.7836 38.6195 37.7409 39.1777C36.6983 39.7359 35.789 40.5147 35.0759 41.46C33.5495 44.0416 32.9586 47.0727 33.403 50.0408C33.9803 53.9139 34.8904 57.7296 36.1232 61.4454C36.8262 63.8063 37.8563 66.0564 39.1833 68.1299C39.5022 68.6644 39.9256 69.1285 40.4282 69.4942C40.9308 69.86 41.502 70.1198 42.1074 70.2581C42.6589 70.2859 43.2087 70.1757 43.7072 69.9376C44.2057 69.6995 44.6375 69.3408 44.9636 68.8939C46.174 67.5297 47.4117 66.0427 48.6902 64.6649C49.5388 65.088 50.4642 65.334 51.4103 65.3879C50.9071 65.9882 50.4854 66.7521 49.683 66.9977C48.5406 67.2062 47.4328 67.5735 46.3916 68.089C46.2651 68.1893 46.1615 68.3157 46.0878 68.4595C46.014 68.6034 45.9718 68.7614 45.9641 68.923C45.9564 69.0846 45.9833 69.246 46.0429 69.3962C46.1026 69.5465 46.1937 69.6822 46.31 69.7943C47.2749 70.5537 48.4703 70.9582 49.6966 70.9402C51.3939 71.0669 53.0718 70.5124 54.3616 69.3986C54.3046 72.0806 54.4045 74.7635 54.6608 77.4337C54.7878 79.0287 55.506 80.5181 56.6737 81.6081C57.2469 82.0488 57.9083 82.36 58.6126 82.5201C59.3169 82.6802 60.0474 82.6856 60.7539 82.5358C62.1883 82.3503 63.5463 81.78 64.6845 80.8851C65.7682 79.7831 66.4323 78.3349 66.5614 76.7925C66.9694 74.146 67.2823 71.4722 67.5951 68.812C69.0943 69.1272 70.6459 69.0892 72.128 68.701C73.6101 68.3128 74.9822 67.585 76.1363 66.5748C76.6123 66.1246 77.0611 65.347 76.5987 64.7331C76.1363 64.1192 75.2387 64.3375 74.6538 64.4603C73.1313 64.9109 71.5114 64.9109 69.9888 64.4603C72.6855 60.2683 74.6752 55.6593 75.8779 50.8184C76.3481 48.9966 76.5768 47.1206 76.5579 45.2388C76.5886 44.1604 76.2999 43.097 75.7283 42.1831C74.1118 40.0699 71.846 38.55 69.2816 37.8586C66.0626 37.0863 62.6915 37.2424 59.5571 38.3088L59.5707 38.3224Z" fill="black"/>
</g>
<defs>
<clipPath id="clip0_2164_386">
<rect width="141.983" height="66.973" fill="white" transform="translate(32.0085 26.5135)"/>
</clipPath>
</defs>
</svg>
