<svg width="206" height="120" viewBox="0 0 206 120" fill="none" xmlns="http://www.w3.org/2000/svg"><g clip-path="url(#clip0_41_44)"><path d="M203 0H3C1.34315 0 0 1.34315 0 3v114c0 1.657 1.34315 3 3 3h200c1.657 0 3-1.343 3-3V3c0-1.65685-1.343-3-3-3Z" fill="#fff"/><g clip-path="url(#clip1_41_44)" fill="#000"><path d="M61.0144 63.1747v-.1218h2.4696v.1218c0 1.8832 1.0756 3.3251 4.3527 3.3251h.2446c2.5187 0 3.8879-1.0756 3.8879-2.6896v-.1217c0-1.5157-.8801-2.1758-2.4202-2.5433l-3.9128-.9539c-2.3724-.5863-3.9851-1.8831-3.9851-4.4498v-.2446c0-2.8359 2.2494-4.7191 6.1131-4.7191h.2445c3.7897 0 5.9667 2.0541 5.9667 4.8654v.1217H71.555v-.1217c0-1.4431-1.1493-2.8359-3.5452-2.8359h-.2445c-2.4451 0-3.7406 1.1247-3.7406 2.7141v.1218c0 1.2956.7585 2.054 2.4448 2.4695l3.9373.9539c2.3959.5863 3.9371 1.8094 3.9371 4.4252v.2447c0 2.9342-2.2739 4.7928-6.2838 4.7928h-.2446c-4.9638 0-6.7977-2.2004-6.7977-5.3546h-.0034ZM76.2461 50.9733h2.2985v2.5432h-2.2985v-2.5432Zm0 4.8899h2.2985v12.4706h-2.2985V55.8632ZM80.7426 55.8644h2.2005v2.0049c1.1001-1.6385 2.0539-2.1512 3.8142-2.1512h.2446c2.5678 0 4.0345 1.3448 4.0345 4.499v8.1179h-2.2988v-7.8007c0-2.1512-.8065-3.0079-2.3722-3.0079h-.2448c-1.9557 0-3.0804 1.4911-3.0804 3.6435v7.164h-2.2987V55.8633l.0011.0011ZM92.8927 69.2643h2.2985v.1217c0 1.1494 1.0755 1.663 3.1052 1.663h.0983c1.8583 0 3.0323-.5627 3.0323-2.2494v-2.8359c-.954 1.4431-1.8339 1.9804-3.5942 1.9804h-.2446c-3.0804 0-4.9389-2.3725-4.9389-5.9901v-.2446c0-3.6189 1.8585-5.9902 4.9144-5.9902h.2445c1.834 0 2.7388.5138 3.6928 2.1278v-1.9803h2.2V68.802c0 2.8357-2.029 3.9607-5.4035 3.9607h-.0982c-4.0591 0-5.3066-1.5158-5.3066-3.3744v-.124Zm5.3066-3.1063h.2445c2.0782 0 3.1292-1.3693 3.1292-4.2052v-.2446c0-2.8359-1.051-4.2053-3.1292-4.2053h-.2445c-2.0051 0-3.1298 1.394-3.1298 4.2053v.2446c0 2.8113 1.1247 4.2052 3.1298 4.2052ZM105.899 50.9733h2.299v17.3605h-2.299V50.9733ZM110.102 62.2208v-.2446c0-4.0098 1.98-6.2593 5.55-6.2593h.245c3.374 0 5.208 1.9557 5.208 6.0393 0 .3909-.024.6847-.049.8801h-8.607c.074 2.7633 1.198 4.1327 3.203 4.1327h.245c2.176 0 2.64-1.394 2.64-2.1032v-.1217h2.323v.1217c0 1.5402-1.051 3.8143-4.889 3.8143h-.245c-3.693 0-5.624-2.2495-5.624-6.2593Zm8.656-1.2956v-.0492c0-2.4449-1.075-3.4725-2.885-3.4725h-.244c-1.736 0-2.984 1.1247-3.154 3.5205h6.283v.0012ZM122.718 63.1747v-.1218h2.469v.1218c0 1.8832 1.076 3.3251 4.353 3.3251h.245c2.518 0 3.888-1.0756 3.888-2.6896v-.1217c0-1.5157-.88-2.1758-2.421-2.5433l-3.912-.9539c-2.373-.5863-3.985-1.8831-3.985-4.4498v-.2446c0-2.8359 2.249-4.7191 6.113-4.7191h.244c3.79 0 5.967 2.0541 5.967 4.8654v.1217h-2.421v-.1217c0-1.4431-1.149-2.8359-3.545-2.8359h-.244c-2.445 0-3.742 1.1247-3.742 2.7141v.1218c0 1.2956.758 2.054 2.445 2.4695l3.937.9539c2.396.5863 3.937 1.8094 3.937 4.4252v.2447c0 2.9342-2.274 4.7928-6.284 4.7928h-.244c-4.964 0-6.798-2.2004-6.798-5.3546h-.002ZM139.466 65.8152v-8.0688h-2.249v-1.8831h1.785c.366 0 .563-.2201.563-.5876v-2.665h2.2v3.2526h3.105v1.8831h-3.105v7.6533c0 .8064.318 1.051 1.051 1.051h2.054v1.8831h-2.86c-1.81 0-2.544-.8309-2.544-2.5186ZM146.042 62.2208v-.2446c0-4.0098 1.906-6.2593 5.623-6.2593h.245c3.717 0 5.624 2.2495 5.624 6.2593v.2446c0 4.0098-1.908 6.2593-5.624 6.2593h-.245c-3.717 0-5.623-2.2495-5.623-6.2593Zm5.623 4.4745h.245c2.054 0 3.203-1.3448 3.203-4.4745v-.2446c0-3.1296-1.149-4.4744-3.203-4.4744h-.245c-2.054 0-3.203 1.3448-3.203 4.4744v.2446c0 3.1297 1.149 4.4745 3.203 4.4745ZM159.439 55.8645h2.2v2.2986c1.004-1.7357 1.468-2.2986 2.984-2.2986h1.565v2.1266h-2.005c-1.467 0-2.445 1.223-2.445 3.0805v7.2623h-2.299V55.8633v.0012ZM166.746 62.2208v-.2446c0-4.0098 1.98-6.2593 5.55-6.2593h.245c3.374 0 5.208 1.9557 5.208 6.0393 0 .3909-.025.6847-.049.8801h-8.607c.073 2.7633 1.198 4.1327 3.203 4.1327h.245c2.175 0 2.64-1.394 2.64-2.1032v-.1217h2.323v.1217c0 1.5402-1.051 3.8143-4.89 3.8143h-.244c-3.693 0-5.624-2.2495-5.624-6.2593Zm8.656-1.2956v-.0492c0-2.4449-1.075-3.4725-2.885-3.4725h-.244c-1.736 0-2.984 1.1247-3.155 3.5205h6.284v.0012ZM47.5663 58.0941c-.0726.2528-.1532.5033-.2412.7491-.0924.2586-.1918.5126-.3006.7631l-3.6412-.0761c0 .0737 0 .1463-.0023.22l9.8969.2072c.0129-.584-.0025-1.1669-.048-1.7451l-5.6647-.1182h.0011ZM39.926 42.4447l-.0995.247c.5489.2059 1.0802.4506 1.5917.7279l-3.5217 8.73c.2142.0656.4284.1417.6402.2271.0105.0047.0211.0082.0304.0129l3.702-9.1783c-.0105-.0047-.0211-.0082-.0304-.0129-.7631-.3078-1.5356-.5582-2.3127-.7537ZM43.4664 44.8078c.4412.3663.8579.7619 1.2465 1.1844l-5.0245 6.9639c.1755.1077.3464.2212.5102.3406l5.7925-8.0266c-.6216-.4494-1.2782-.8626-1.9676-1.2336l-.5571.7725v-.0012ZM46.1257 47.8438c.2995.4775.5675.9761.8028 1.4934l-5.7093 4.849c.1194.124.2341.2516.3453.3839l7.5444-6.408c-.467-.5524-.9692-1.0779-1.5052-1.573l-1.4769 1.2547h-.0011ZM50.4351 49.9506l-2.794 1.3927c.1404.5349.2471 1.0838.3174 1.6445l-5.5689 2.7761c.0679.1218.1335.2447.1943.3687l8.8564-4.4147c-.3006-.6075-.6367-1.1974-1.0066-1.7673h.0014ZM48.0556 54.8697c-.0117.5547-.0597 1.1025-.1418 1.6385l-4.7868 1.0745c.0269.103.0526.2059.0748.3101l9.6571-2.1675c-.1382-.6157-.3079-1.2231-.5103-1.82l-4.293.9632v.0012ZM53.0169 62.6026l-6.5998-1.7744c-.2482.4366-.5209.8591-.8171 1.2617l-2.4484-.6577c-.0141.055-.0281.1088-.0433.1638l9.5575 2.569c.1415-.5196.2573-1.0404.35-1.5636l.0011.0012ZM44.8545 63.0133c-.302.3406-.6227.6648-.9598.9703l-1.4232-.7854c-.0222.0422-.0456.0843-.069.1264l8.6657 4.7811c.2328-.4225.4505-.8567.6518-1.3038l-6.8667-3.7886h.0012ZM43.0684 64.6741c-.3253.2493-.6636.4822-1.0123.6999l-.673-.6215c-.0246.0281-.0504.055-.0761.0831l7.2706 6.717c.2973-.3196.5829-.6521.8567-.996l-6.3659-5.8814v-.0011ZM46.2858 73.6231l-5.1122-7.7481c-.2025.1042-.4073.2025-.6157.2961 0 0-.3757.1615-.4611.1966l5.2328 7.9296c.3266-.2141.645-.4391.9574-.6742h-.0012ZM39.2284 66.679c-.0866.0269-.6355.1861-.7982.2259 0 0-.1533.0375-.1955.0468l3.283 9.2334c.3231-.1148.6426-.2376.9586-.371l-3.2479-9.1362v.0011ZM37.2551 67.1273c-.2879.062-.5793.1065-.8742.1358l.9878 9.8487c.2937-.029.5863-.0653.8766-.1085l-.9902-9.8748v-.0012ZM35.2525 67.2889c-.2457-.0129-.4915-.0363-.7373-.0726l-1.3986 9.7999c.2446.0348.4904.0653.735.0912l1.4009-9.8174v-.0011ZM23.7159 61.0178c.0726-.2528.1534-.5033.2411-.749.0925-.2587.192-.5127.3008-.7631l3.6411.076c0-.0737 0-.1463.0024-.22l-9.8969-.2072c-.0129.5841.0023 1.1669.048 1.7451l5.6647.1182h-.0012ZM31.3574 76.6671l.0995-.247c-.5489-.2058-1.0803-.4506-1.5918-.7278l3.5218-8.7301c-.2142-.0655-.4284-.1416-.6402-.227-.0106-.0047-.0211-.0082-.0305-.0129l-3.7019 9.1783c.0105.0047.0211.0081.0304.0128.7631.3079 1.5356.5583 2.3127.7537ZM27.8158 74.3042c-.4412-.3662-.8579-.762-1.2465-1.1844l5.0246-6.9639c-.1756-.1077-.3465-.2212-.5103-.3406l-5.7923 8.0267c.6215.4494 1.278.8625 1.9674 1.2335l.5571-.7724v.0011ZM25.1567 71.2682c-.2996-.4776-.5677-.9762-.8029-1.4935l5.7092-4.8489c-.1194-.1241-.2341-.2517-.3453-.3839l-7.5444 6.4078c.4671.5524.9692 1.078 1.5052 1.5732l1.477-1.2547h.0012ZM20.8485 69.1614l2.7937-1.3927c-.1405-.5349-.2469-1.0838-.3172-1.6445l5.5688-2.7762c-.0679-.1217-.1334-.2445-.1943-.3686l-8.8576 4.4147c.3008.6074.6367 1.1973 1.0066 1.7673ZM23.2267 64.2423c.0117-.5548.0596-1.1026.1416-1.6386l4.7869-1.0744c-.0269-.103-.0527-.206-.0749-.3102l-9.657 2.1664c.1381.6156.3079 1.2231.5103 1.82l4.2942-.9632h-.0011ZM18.2654 56.5094l6.5998 1.7744c.2482-.4366.5209-.8591.817-1.2617l2.4485.6577c.014-.055.0281-.1088.0433-.1638l-9.5587-2.5702c-.1416.5196-.2575 1.0405-.3499 1.5636ZM26.4278 56.0986c.302-.3406.6227-.6648.9597-.9703l1.4232.7853c.0223-.0421.0457-.0842.0691-.1263l-8.6656-4.7823c-.2329.4225-.4506.8567-.6519 1.3038l6.8667 3.7886-.0012.0012ZM28.2149 54.4379c.3254-.2493.6637-.4822 1.0124-.6999l.673.6214c.0246-.028.0503-.0549.0761-.083l-7.2705-6.717c-.2973.3196-.5829.652-.8568.996l6.3658 5.8813v.0012ZM24.9976 45.489l5.1123 7.748c.2024-.1042.4073-.2025.6156-.2961 0 0 .3757-.1615.4611-.1966l-5.2317-7.9295c-.3265.2142-.6448.4389-.9573.6742ZM32.0539 52.433c.0866-.0269.6355-.1861.7982-.2259 0 0 .1533-.0375.1954-.0468l-3.2829-9.2333c-.3231.1147-.6426.2376-.9586.371l3.2479 9.1362v-.0012ZM34.0272 51.9847c.2879-.0621.5793-.1065.8743-.1358L33.9148 42c-.2937.0293-.5863.0655-.8766.1088l.9902 9.8747-.0012.0012ZM36.0308 51.8231c.2458.0129.4916.0363.7374.0726l1.3975-9.7998c-.2447-.0351-.4904-.0655-.7351-.0913l-1.4009 9.8173.0011.0012ZM182.35 68.3416v-3.2269h-1.109v-.434h2.761v.434h-1.109v3.2269h-.543ZM184.431 68.3416v-3.6609h.752l1.015 2.9391.973-2.9391h.779v3.6609h-.549v-2.8974l-.973 2.8974h-.486l-.962-2.8974v2.8974h-.549Z"/></g></g><defs><clipPath id="clip0_41_44"><path fill="#fff" d="M0 0h206v120H0z"/></clipPath><clipPath id="clip1_41_44"><path fill="#fff" d="M18 42h170v35.1724H18z"/></clipPath></defs></svg>