<svg width="206" height="120" viewBox="0 0 206 120" fill="none" xmlns="http://www.w3.org/2000/svg">
<rect width="206" height="120" rx="3" fill="white"/>
<g clip-path="url(#clip0_2164_377)">
<path d="M35.5579 54.1139C36.0622 53.6099 36.3148 53.0212 36.3148 52.2644V42.5945C36.3148 41.2494 35.2215 40.1564 33.8762 40.1564C32.5307 40.1564 31.4377 41.2494 31.4377 42.5945V48.1445L26.729 45.3694C25.5519 44.613 24.0382 44.9491 23.3659 46.1262C22.6091 47.3037 22.9452 48.817 24.1223 49.4897C24.2064 49.4897 24.2064 49.5736 24.2909 49.5736L32.6992 54.4504C33.5399 55.039 34.8011 54.8711 35.5579 54.1139ZM31.9423 59.9999C31.9423 59.075 31.5216 58.2341 30.6807 57.8134L22.2727 52.9366C21.0953 52.1802 19.5819 52.5162 18.9093 53.6933C18.1523 54.871 18.4889 56.3842 19.666 57.0568C19.7501 57.0568 19.7501 57.1409 19.8341 57.1409L24.6268 59.9157L19.8341 62.6907C18.657 63.3631 18.1523 64.7928 18.8252 66.0542C19.498 67.3154 20.9272 67.7354 22.1883 67.0628C22.2727 67.0628 22.2727 67.0628 22.3563 67.0628L30.7652 62.1863C31.5216 61.7658 31.9423 60.9249 31.9423 59.9999ZM36.3148 67.6517V77.4055C36.3148 78.7508 35.2215 79.8437 33.8762 79.8437C32.5307 79.8437 31.4377 78.7506 31.4377 77.4055V71.9399L26.6449 74.7148C25.4678 75.4713 23.9541 75.1352 23.2818 73.9581C22.5249 72.7808 22.8611 71.2673 24.0382 70.5946C24.1222 70.5946 24.1222 70.5105 24.2063 70.5105L32.6151 65.6337C33.7922 64.9609 35.3899 65.3814 36.0623 66.6426C36.2304 66.8946 36.3984 67.3154 36.3148 67.6517ZM40.6869 67.904V77.4053C40.6869 78.7506 41.7799 79.8435 43.1254 79.8435C44.4705 79.8435 45.5635 78.7505 45.5635 77.4053V71.9398L50.2721 74.6306C51.4493 75.387 52.9629 75.0509 53.6356 73.8738C54.3925 72.6962 54.056 71.183 52.8788 70.5103C52.7947 70.5103 52.7947 70.4262 52.7108 70.4262L44.3023 65.5494C43.1252 64.8766 41.6115 65.2971 40.9388 66.4744C40.771 66.8946 40.6028 67.4835 40.6869 67.904ZM45.0594 59.9999C45.0594 59.075 45.4796 58.2341 46.3204 57.8134L54.729 52.9366C55.9061 52.1802 57.4198 52.5162 58.0924 53.6933C58.8489 54.871 58.5128 56.3842 57.3355 57.0568C57.2516 57.0568 57.2516 57.1409 57.1674 57.1409L52.3744 59.9157L57.1674 62.6906C58.3446 63.3629 58.8489 64.7927 58.1764 66.054C57.5037 67.2311 56.0739 67.7353 54.8129 67.0626C54.729 67.0626 54.729 66.9785 54.6448 66.9785L46.2365 62.1017C45.4796 61.7658 44.9753 60.9249 45.0594 59.9999ZM40.6869 52.0962V42.5945C40.6869 41.2494 41.7799 40.1564 43.1254 40.1564C44.4705 40.1564 45.5635 41.2494 45.5635 42.5945V48.0601L50.2721 45.3693C51.4493 44.6129 52.9629 44.9489 53.6356 46.126C54.3925 47.3035 54.056 48.8168 52.8788 49.4895C52.7947 49.4895 52.7947 49.5735 52.7108 49.5735L44.3023 54.4503C43.1252 55.1231 41.6115 54.7026 40.9388 53.5255C40.771 53.1053 40.6028 52.6005 40.6869 52.0962Z" fill="#31BEF0"/>
<path d="M66.0467 66.4715C66.9776 66.8946 68.078 67.1487 69.0936 67.1487C70.3631 67.2335 71.717 66.8105 72.7327 66.0485C73.7483 65.3712 74.341 64.1866 74.341 63.0016C74.341 60.2087 71.8867 59.6165 69.3476 58.7701C67.655 58.1773 65.7929 57.7543 65.7929 56.3157C65.7929 54.5384 67.9934 53.7766 69.178 53.7766C72.0559 53.7766 72.7327 56.0617 73.4945 55.3847C74.2561 54.7077 71.4632 52.507 69.3476 52.507C68.078 52.4226 66.8084 52.7609 65.7929 53.4384C64.7773 54.0306 64.1003 55.1309 64.1847 56.4002C64.1003 59.3626 67.7394 59.8704 69.3476 60.4627C70.9554 61.0552 72.7327 61.6479 72.8175 63.0865C72.8175 65.1179 70.2784 65.7947 69.178 65.7947C65.9621 65.7947 65.0311 63.9326 64.4385 64.5253C63.8463 65.1177 64.5231 65.7099 66.0467 66.4715ZM87.7128 66.4715C87.7972 66.8946 88.136 67.1487 88.4746 67.1487C88.8128 67.1487 89.0671 66.8105 89.1516 66.4715V58.5159C89.1516 55.2152 86.5277 52.5916 83.2273 52.5916C81.4499 52.5916 79.7573 53.3534 78.657 54.7077V53.2686C78.657 52.8456 78.3188 52.5916 77.98 52.5916C77.6414 52.5916 77.3027 52.9302 77.3027 53.2686V66.6408C77.3027 66.6408 77.3027 66.6408 77.3027 66.7255V66.8105C77.3878 66.9797 77.557 67.1487 77.8105 67.2335H78.0646C78.3186 67.2335 78.4878 67.1487 78.5721 66.9797C78.6568 66.8947 78.7416 66.8105 78.7416 66.6409V58.5159C78.7416 56.0617 80.7728 54.0304 83.3116 54.0304C85.7662 54.0304 87.7971 56.0617 87.7971 58.5159L87.7128 66.4715ZM91.7751 59.8704C91.9447 63.6786 95.2451 66.6407 99.0537 66.3873C102.862 66.2177 105.824 62.917 105.57 59.1088C105.401 55.3849 102.354 52.507 98.6305 52.507C94.822 52.6761 91.6907 55.8925 91.7751 59.8704ZM135.446 47.7679H135.361C134.684 47.6831 134.007 47.8523 133.499 48.3601C132.992 49.1219 132.822 49.9679 132.907 50.8145V52.3378H134.938C135.361 52.3378 135.615 52.5916 135.7 53.0148C135.7 53.4384 135.361 53.7766 134.938 53.7766H132.907V66.4715C132.907 66.8946 132.653 67.1487 132.23 67.2333C131.807 67.2333 131.468 66.9795 131.468 66.5561C131.468 66.5561 131.468 66.5561 131.468 66.4714V53.7764H129.521C129.098 53.7764 128.76 53.4382 128.76 53.0147C128.76 52.5916 129.098 52.3377 129.437 52.3377H131.383V50.8143C131.299 49.6293 131.637 48.3599 132.314 47.429C133.076 46.6669 134.176 46.2438 135.191 46.3286H135.615C136.038 46.3286 136.377 46.6669 136.377 47.0902C136.377 47.5134 136.038 47.852 135.615 47.852L135.446 47.7679ZM93.2142 59.2779C93.3834 56.231 96.0068 53.7766 99.0537 53.9458C102.101 54.1154 104.385 56.908 104.216 59.9549C104.047 62.8326 101.424 65.1175 98.5459 65.1175C95.4146 64.9482 93.1293 62.4092 93.2142 59.2779ZM112.849 67.1487C113.102 67.1487 113.357 66.9795 113.441 66.7255C113.441 66.7255 113.441 66.7255 113.441 66.6408L116.826 58.6009L120.212 66.7255C120.296 66.9795 120.55 67.1487 120.805 67.2335H120.889C121.058 67.2335 121.228 67.1487 121.312 67.0643C121.397 66.9795 121.482 66.8946 121.566 66.7255L126.475 53.6076C126.644 53.2688 126.475 52.8458 126.052 52.6763C125.713 52.507 125.29 52.6763 125.121 53.0996L120.889 64.6944L117.504 56.6543C117.334 56.4002 117.081 56.231 116.827 56.231C116.573 56.231 116.234 56.4002 116.15 56.6543L112.764 64.6944L108.533 53.0996C108.364 52.761 107.94 52.5918 107.601 52.6763C107.263 52.8458 107.094 53.2688 107.263 53.6076L112.172 66.7255C112.257 66.8947 112.341 66.9795 112.426 67.0643L112.51 67.1487C112.679 67.0643 112.764 67.0643 112.849 67.1487ZM139.339 66.3871C139.339 66.8103 139.677 67.1485 140.101 67.1485C140.524 67.1485 140.862 66.8103 140.862 66.3871V46.9213C140.862 46.498 140.524 46.1597 140.101 46.1597C139.677 46.1597 139.339 46.498 139.339 46.9213V66.3871ZM156.774 52.507C156.351 52.507 156.096 52.8456 156.012 53.184V55.3001C154.743 53.523 152.711 52.4228 150.511 52.4228C146.448 52.592 143.317 56.0621 143.571 60.1241C143.74 63.9326 146.787 66.8947 150.511 67.0644C152.711 67.0644 154.743 65.9639 156.012 64.1867V66.3874C156.097 66.8106 156.435 67.0646 156.774 67.0646C157.112 67.0646 157.366 66.7259 157.451 66.3874V53.1842C157.451 52.8456 157.112 52.507 156.774 52.507ZM151.019 65.7947C147.718 66.0485 145.094 63.5096 144.841 60.2087C144.587 56.9078 146.872 54.2 150.087 53.9458C153.388 53.692 155.843 56.1465 156.012 59.4471C156.012 59.6166 156.012 59.7857 156.012 59.8704C156.097 63.0018 153.642 65.6252 150.511 65.7099H151.019V65.7947ZM160.752 66.3871C160.752 66.8103 161.09 67.1485 161.513 67.1485C161.936 67.1485 162.275 66.8103 162.275 66.3871V63.0016L165.237 60.0395L170.823 66.8103C170.908 66.9795 171.161 67.0641 171.415 67.0641C171.838 67.0641 172.092 66.8103 172.177 66.3869C172.177 66.2174 172.092 65.9636 172.007 65.8791L166.337 59.0237L172.007 53.6072C172.261 53.2685 172.261 52.8455 171.923 52.5915C171.669 52.3377 171.246 52.3377 170.992 52.5915L162.275 61.0549V46.9212C162.275 46.4978 161.936 46.1596 161.513 46.1596C161.09 46.1596 160.752 46.4978 160.752 46.9212V66.3871ZM186.988 63.5094C187.157 63.1708 187.073 62.7478 186.734 62.4938C186.395 62.3246 185.972 62.409 185.803 62.7476C184.872 64.4404 183.095 65.625 181.064 65.7098H180.386C177.34 65.625 174.801 63.1707 174.801 60.1237H186.819C187.157 60.1237 187.496 59.8701 187.496 59.5315V59.3623C187.073 55.4689 183.603 52.5915 179.709 53.0145C175.816 53.438 172.939 56.9076 173.362 60.8009C173.701 64.4402 176.748 67.1484 180.386 67.2331H181.064C183.603 66.9795 185.803 65.6252 186.988 63.5094ZM180.471 54.2844C183.179 54.2844 185.549 55.977 185.972 58.6851H174.885C175.393 55.977 177.678 54.2844 180.471 54.2844Z" fill="#31BEF0"/>
<path fill-rule="evenodd" clip-rule="evenodd" d="M39.5096 55.6276C39.3415 55.4597 39.173 55.3752 38.9208 55.3752H38.08C37.8278 55.3752 37.6596 55.4597 37.4916 55.6276L34.1281 58.991C33.9601 59.1591 33.876 59.3273 33.876 59.5792V60.4204C33.876 60.6728 33.9601 60.8408 34.1281 61.0088L37.4916 64.3723C37.6596 64.5403 37.8278 64.6245 38.08 64.6245H38.9208C39.173 64.6245 39.3415 64.5403 39.5096 64.3723L42.8727 61.0088C42.9568 60.8406 43.0411 60.5885 43.0411 60.4204V59.5792C43.0411 59.3271 42.9568 59.1589 42.7886 58.991L39.5096 55.6276ZM39.0048 58.5709C38.9207 58.4864 38.7526 58.4023 38.5844 58.4023C38.4159 58.4023 38.2478 58.4864 38.1641 58.5709L37.1548 59.5794C37.0707 59.6635 36.9866 59.8321 36.9866 60.0001C36.9866 60.1683 37.0707 60.3367 37.1548 60.4208L38.1641 61.4295C38.2477 61.5135 38.4159 61.5979 38.5844 61.5979C38.7525 61.5979 38.9207 61.5135 39.0048 61.4295L40.0137 60.4208C40.0976 60.3367 40.182 60.1683 40.182 60.0001C40.182 59.8321 40.0976 59.6635 40.0137 59.5794L39.0048 58.5709Z" fill="#31BEF0"/>
</g>
<defs>
<clipPath id="clip0_2164_377">
<rect width="168.772" height="66.973" fill="white" transform="translate(18.614 26.5135)"/>
</clipPath>
</defs>
</svg>
