<svg width="206" height="121" viewBox="0 0 206 121" fill="none" xmlns="http://www.w3.org/2000/svg">
<rect y="0.5" width="206" height="120" rx="3" fill="white"/>
<path d="M59 87.1872L35.8394 73.8436V47.1564L35.9496 47.1196L59 33.8128L59.0736 33.8496L82.1607 47.1564V73.8436L82.0872 73.8803L59 87.1872ZM40.2509 71.0499L59 81.9674L77.7492 71.0499V49.9501L59 39.0326L40.2509 49.9501V71.0499Z" fill="#0078D1"/>
<path d="M47.7135 80.6442L42.7505 77.777L43.0446 77.63L62.6393 66.4552C62.6393 66.3082 62.6025 66.1244 62.6025 65.9773C62.6025 65.0216 62.8598 64.0658 63.301 63.2204C61.132 60.5002 57.8968 58.846 54.4411 58.6255C53.375 59.9488 51.7574 60.7208 50.1031 60.7208C47.015 60.7208 44.5151 58.1844 44.5151 55.0966C44.5151 52.0088 47.015 49.4724 50.1031 49.4724C51.2427 49.4724 52.3456 49.84 53.3015 50.5017L70.6168 40.4664L75.396 43.2234L56.6101 54.0673C60.7644 54.8025 64.5877 57.0816 67.1979 60.4267C67.5287 60.3532 67.8596 60.3532 68.1905 60.3532C71.2786 60.3532 73.7785 62.8528 73.7785 65.9406C73.7785 69.0283 71.2786 71.5647 68.1905 71.5647C67.0508 71.5647 65.9479 71.1971 64.9921 70.5355L47.7135 80.6442Z" fill="#50E6FF"/>
<path d="M89.353 54.8877V52.2559C89.5894 52.4707 89.8687 52.6641 90.1909 52.8359C90.5203 53.0078 90.8677 53.1546 91.2329 53.2764C91.5981 53.391 91.9634 53.4805 92.3286 53.5449C92.6938 53.6094 93.0304 53.6416 93.3384 53.6416C94.4126 53.6416 95.2111 53.4626 95.7339 53.1045C96.2638 52.7464 96.5288 52.2272 96.5288 51.5469C96.5288 51.1816 96.4393 50.8665 96.2603 50.6016C96.0884 50.3294 95.8449 50.0824 95.5298 49.8604C95.2147 49.6383 94.8423 49.4271 94.4126 49.2266C93.9901 49.0189 93.5353 48.804 93.0483 48.582C92.5256 48.3027 92.0386 48.0199 91.5874 47.7334C91.1362 47.4469 90.7424 47.1318 90.4058 46.7881C90.0763 46.4372 89.8149 46.0433 89.6216 45.6064C89.4354 45.1696 89.3423 44.6576 89.3423 44.0703C89.3423 43.347 89.5034 42.7204 89.8257 42.1904C90.1551 41.6533 90.5848 41.2129 91.1147 40.8691C91.6519 40.5182 92.2606 40.2604 92.9409 40.0957C93.6213 39.9238 94.3159 39.8379 95.0249 39.8379C96.6362 39.8379 97.8107 40.0205 98.5483 40.3857V42.9102C97.6746 42.2799 96.5503 41.9648 95.1753 41.9648C94.7957 41.9648 94.4162 42.0007 94.0366 42.0723C93.6642 42.1439 93.3276 42.262 93.0269 42.4268C92.7332 42.5915 92.4933 42.8027 92.3071 43.0605C92.1209 43.3184 92.0278 43.6299 92.0278 43.9951C92.0278 44.3389 92.0994 44.6361 92.2427 44.8867C92.3859 45.1374 92.5936 45.3665 92.8657 45.5742C93.145 45.7819 93.4816 45.986 93.8755 46.1865C94.2765 46.3799 94.7384 46.5911 95.2612 46.8203C95.7983 47.0996 96.3032 47.3932 96.7759 47.7012C97.2557 48.0091 97.6746 48.3493 98.0327 48.7217C98.3979 49.0941 98.6844 49.5094 98.8921 49.9678C99.1069 50.4189 99.2144 50.9346 99.2144 51.5146C99.2144 52.2952 99.0568 52.9541 98.7417 53.4912C98.4266 54.0283 98.0005 54.4652 97.4634 54.8018C96.9334 55.1383 96.3211 55.3818 95.6265 55.5322C94.9318 55.6826 94.1978 55.7578 93.4243 55.7578C93.1665 55.7578 92.8478 55.7363 92.4683 55.6934C92.0959 55.6576 91.7127 55.6003 91.3188 55.5215C90.925 55.4499 90.5526 55.3604 90.2017 55.2529C89.8507 55.1455 89.5679 55.0238 89.353 54.8877ZM110.762 44.5L105.799 57.2617C104.768 59.5391 103.321 60.6777 101.459 60.6777C100.937 60.6777 100.5 60.6312 100.149 60.5381V58.4648C100.543 58.5938 100.901 58.6582 101.223 58.6582C102.154 58.6582 102.849 58.1999 103.307 57.2832L104.048 55.4785L99.6763 44.5H102.437L105.058 52.4922C105.087 52.5924 105.151 52.8574 105.251 53.2871H105.305C105.341 53.1224 105.405 52.8646 105.499 52.5137L108.249 44.5H110.762ZM122.224 55.5H119.732V49.3018C119.732 47.2464 119.005 46.2188 117.551 46.2188C116.792 46.2188 116.166 46.5052 115.671 47.0781C115.177 47.6439 114.93 48.36 114.93 49.2266V55.5H112.427V44.5H114.93V46.3262H114.973C115.797 44.9368 116.986 44.2422 118.54 44.2422C119.736 44.2422 120.649 44.6325 121.279 45.4131C121.909 46.1865 122.224 47.3073 122.224 48.7754V55.5ZM133.718 55.5H131.301V53.7812H131.258C130.499 55.099 129.386 55.7578 127.917 55.7578C126.836 55.7578 125.987 55.4642 125.372 54.877C124.763 54.2897 124.458 53.5127 124.458 52.5459C124.458 50.4691 125.654 49.2588 128.046 48.915L131.312 48.4531C131.312 46.8848 130.567 46.1006 129.078 46.1006C127.767 46.1006 126.585 46.5518 125.533 47.4541V45.2734C126.693 44.5859 128.032 44.2422 129.55 44.2422C132.329 44.2422 133.718 45.61 133.718 48.3457V55.5ZM131.312 50.0967L129.002 50.4189C128.286 50.512 127.746 50.6875 127.38 50.9453C127.022 51.196 126.843 51.64 126.843 52.2773C126.843 52.7428 127.008 53.126 127.337 53.4268C127.674 53.7204 128.122 53.8672 128.68 53.8672C129.439 53.8672 130.066 53.6022 130.56 53.0723C131.061 52.5352 131.312 51.862 131.312 51.0527V50.0967ZM139.304 53.8779H139.261V60.5596H136.769V44.5H139.261V46.4336H139.304C140.156 44.9727 141.403 44.2422 143.042 44.2422C144.439 44.2422 145.528 44.7327 146.308 45.7139C147.089 46.695 147.479 48.0127 147.479 49.667C147.479 51.5003 147.039 52.9684 146.158 54.0713C145.277 55.1742 144.074 55.7256 142.548 55.7256C141.145 55.7256 140.063 55.1097 139.304 53.8779ZM139.24 49.5381V50.9023C139.24 51.7044 139.494 52.3848 140.002 52.9434C140.518 53.502 141.17 53.7812 141.958 53.7812C142.881 53.7812 143.605 53.4232 144.127 52.707C144.657 51.9837 144.922 50.9775 144.922 49.6885C144.922 48.6071 144.675 47.762 144.181 47.1533C143.694 46.5374 143.032 46.2295 142.194 46.2295C141.306 46.2295 140.59 46.5446 140.045 47.1748C139.508 47.805 139.24 48.5928 139.24 49.5381ZM149.337 55.1562V52.8467C150.268 53.5557 151.296 53.9102 152.42 53.9102C153.924 53.9102 154.676 53.4661 154.676 52.5781C154.676 52.3275 154.612 52.1162 154.483 51.9443C154.354 51.7653 154.179 51.6077 153.957 51.4717C153.742 51.3356 153.484 51.2139 153.183 51.1064C152.889 50.999 152.56 50.8773 152.195 50.7412C151.744 50.5622 151.335 50.3724 150.97 50.1719C150.612 49.9714 150.311 49.7458 150.068 49.4951C149.832 49.2373 149.653 48.9473 149.531 48.625C149.409 48.3027 149.348 47.9268 149.348 47.4971C149.348 46.9671 149.473 46.5016 149.724 46.1006C149.975 45.6924 150.311 45.3522 150.734 45.0801C151.156 44.8008 151.636 44.5931 152.173 44.457C152.71 44.3138 153.265 44.2422 153.838 44.2422C154.855 44.2422 155.765 44.3962 156.567 44.7041V46.8848C155.793 46.3548 154.905 46.0898 153.903 46.0898C153.588 46.0898 153.301 46.1221 153.043 46.1865C152.793 46.251 152.578 46.3405 152.399 46.4551C152.22 46.5697 152.08 46.7093 151.98 46.874C151.88 47.0316 151.83 47.207 151.83 47.4004C151.83 47.6367 151.88 47.8372 151.98 48.002C152.08 48.1667 152.227 48.3135 152.42 48.4424C152.621 48.5641 152.857 48.6787 153.129 48.7861C153.409 48.8864 153.727 48.9974 154.085 49.1191C154.558 49.3125 154.981 49.5094 155.353 49.71C155.733 49.9105 156.055 50.1396 156.32 50.3975C156.585 50.6481 156.789 50.9417 156.932 51.2783C157.075 51.6077 157.147 52.0016 157.147 52.46C157.147 53.0186 157.018 53.5055 156.76 53.9209C156.502 54.3363 156.159 54.68 155.729 54.9521C155.299 55.2243 154.802 55.4248 154.236 55.5537C153.677 55.6898 153.086 55.7578 152.463 55.7578C151.26 55.7578 150.218 55.5573 149.337 55.1562ZM168.834 50.6768H161.336C161.365 51.6937 161.677 52.4779 162.271 53.0293C162.873 53.5807 163.696 53.8564 164.742 53.8564C165.916 53.8564 166.994 53.5055 167.975 52.8037V54.8125C166.972 55.4427 165.648 55.7578 164 55.7578C162.382 55.7578 161.111 55.2601 160.187 54.2646C159.27 53.262 158.812 51.8548 158.812 50.043C158.812 48.3314 159.317 46.9385 160.327 45.8643C161.344 44.7829 162.604 44.2422 164.108 44.2422C165.612 44.2422 166.776 44.7256 167.599 45.6924C168.423 46.6592 168.834 48.002 168.834 49.7207V50.6768ZM166.428 48.915C166.421 48.0199 166.21 47.3252 165.794 46.8311C165.379 46.3298 164.806 46.0791 164.076 46.0791C163.36 46.0791 162.751 46.3405 162.25 46.8633C161.755 47.3861 161.451 48.07 161.336 48.915H166.428ZM89.353 82.8877V80.2559C89.5894 80.4707 89.8687 80.6641 90.1909 80.8359C90.5203 81.0078 90.8677 81.1546 91.2329 81.2764C91.5981 81.391 91.9634 81.4805 92.3286 81.5449C92.6938 81.6094 93.0304 81.6416 93.3384 81.6416C94.4126 81.6416 95.2111 81.4626 95.7339 81.1045C96.2638 80.7464 96.5288 80.2272 96.5288 79.5469C96.5288 79.1816 96.4393 78.8665 96.2603 78.6016C96.0884 78.3294 95.8449 78.0824 95.5298 77.8604C95.2147 77.6383 94.8423 77.4271 94.4126 77.2266C93.9901 77.0189 93.5353 76.804 93.0483 76.582C92.5256 76.3027 92.0386 76.0199 91.5874 75.7334C91.1362 75.4469 90.7424 75.1318 90.4058 74.7881C90.0763 74.4372 89.8149 74.0433 89.6216 73.6064C89.4354 73.1696 89.3423 72.6576 89.3423 72.0703C89.3423 71.347 89.5034 70.7204 89.8257 70.1904C90.1551 69.6533 90.5848 69.2129 91.1147 68.8691C91.6519 68.5182 92.2606 68.2604 92.9409 68.0957C93.6213 67.9238 94.3159 67.8379 95.0249 67.8379C96.6362 67.8379 97.8107 68.0205 98.5483 68.3857V70.9102C97.6746 70.2799 96.5503 69.9648 95.1753 69.9648C94.7957 69.9648 94.4162 70.0007 94.0366 70.0723C93.6642 70.1439 93.3276 70.262 93.0269 70.4268C92.7332 70.5915 92.4933 70.8027 92.3071 71.0605C92.1209 71.3184 92.0278 71.6299 92.0278 71.9951C92.0278 72.3389 92.0994 72.6361 92.2427 72.8867C92.3859 73.1374 92.5936 73.3665 92.8657 73.5742C93.145 73.7819 93.4816 73.986 93.8755 74.1865C94.2765 74.3799 94.7384 74.5911 95.2612 74.8203C95.7983 75.0996 96.3032 75.3932 96.7759 75.7012C97.2557 76.0091 97.6746 76.3493 98.0327 76.7217C98.3979 77.0941 98.6844 77.5094 98.8921 77.9678C99.1069 78.4189 99.2144 78.9346 99.2144 79.5146C99.2144 80.2952 99.0568 80.9541 98.7417 81.4912C98.4266 82.0283 98.0005 82.4652 97.4634 82.8018C96.9334 83.1383 96.3211 83.3818 95.6265 83.5322C94.9318 83.6826 94.1978 83.7578 93.4243 83.7578C93.1665 83.7578 92.8478 83.7363 92.4683 83.6934C92.0959 83.6576 91.7127 83.6003 91.3188 83.5215C90.925 83.4499 90.5526 83.3604 90.2017 83.2529C89.8507 83.1455 89.5679 83.0238 89.353 82.8877ZM108.399 83.7578C107.289 83.7578 106.283 83.568 105.38 83.1885C104.478 82.8089 103.708 82.279 103.071 81.5986C102.433 80.9111 101.939 80.0911 101.588 79.1387C101.237 78.1862 101.062 77.1335 101.062 75.9805C101.062 74.7487 101.237 73.6315 101.588 72.6289C101.946 71.6263 102.451 70.7705 103.103 70.0615C103.762 69.3525 104.56 68.8047 105.499 68.418C106.437 68.0312 107.486 67.8379 108.646 67.8379C109.72 67.8379 110.701 68.0277 111.589 68.4072C112.477 68.7868 113.236 69.3203 113.867 70.0078C114.497 70.6882 114.984 71.5046 115.328 72.457C115.679 73.4095 115.854 74.4587 115.854 75.6045C115.854 77.1227 115.6 78.4548 115.091 79.6006C114.583 80.7393 113.867 81.6559 112.943 82.3506L117.412 85.5732H113.523L110.773 83.4355C110.408 83.5358 110.028 83.6146 109.634 83.6719C109.24 83.7292 108.829 83.7578 108.399 83.7578ZM108.517 70.083C107.815 70.083 107.171 70.2227 106.583 70.502C106.003 70.7741 105.502 71.1644 105.08 71.6729C104.657 72.1742 104.328 72.7757 104.091 73.4775C103.862 74.1794 103.748 74.96 103.748 75.8193C103.748 76.6715 103.859 77.4486 104.081 78.1504C104.31 78.8522 104.628 79.4538 105.037 79.9551C105.445 80.4492 105.935 80.8359 106.508 81.1152C107.081 81.3874 107.715 81.5234 108.41 81.5234C109.147 81.5234 109.81 81.3945 110.397 81.1367C110.984 80.8789 111.482 80.5101 111.89 80.0303C112.306 79.5433 112.624 78.9489 112.846 78.2471C113.068 77.5452 113.179 76.7467 113.179 75.8516C113.179 74.9349 113.072 74.1185 112.857 73.4023C112.642 72.6862 112.334 72.0846 111.933 71.5977C111.532 71.1035 111.042 70.7275 110.461 70.4697C109.889 70.2119 109.24 70.083 108.517 70.083ZM127.208 83.5H118.679V68.0957H121.236V81.3408H127.208V83.5Z" fill="black"/>
</svg>
