<svg width="1178" height="1643" viewBox="0 0 1178 1643" fill="none" xmlns="http://www.w3.org/2000/svg">
<path d="M1758 1317.21C1755.5 1320.62 1753.08 1324.35 1750.57 1327.75C1744.07 1336.67 1737.57 1345.6 1730.99 1354.2C1725.59 1361.63 1717.97 1367.15 1709.22 1369.94C1702.75 1371.43 1696.06 1371.59 1689.52 1370.44C1677.71 1368.47 1666.29 1365.38 1654.63 1362.69C1618.14 1353.22 1580.5 1348.92 1542.82 1349.91C1535.05 1350.28 1527.29 1350.65 1519.7 1351.66C1509.78 1352.95 1500.04 1354.88 1490.22 1356.49C1484.07 1357.22 1478.03 1358.61 1472.18 1360.63C1462.46 1363.92 1452.77 1368.57 1443.14 1372.18C1430.37 1377.45 1418.14 1383.93 1406.61 1391.54C1399.23 1395.91 1392.84 1401.38 1385.55 1406.07C1373.66 1414.04 1362.19 1422.25 1350.05 1429.26C1342.03 1433.8 1333.42 1436.11 1323.88 1431.14C1317.62 1427.83 1312.84 1422.27 1310.48 1415.59C1305.81 1404.53 1305.86 1393.23 1305.59 1382.02C1305.14 1359.92 1305.82 1338.2 1305.69 1316.01C1305.88 1295.36 1304.35 1274.72 1301.12 1254.32C1299.6 1244.82 1297.67 1235.07 1295.83 1225.65C1294.36 1218.87 1293.12 1211.68 1290.92 1204.75C1285.2 1186.13 1277.74 1168.1 1268.62 1150.89C1261.18 1137.15 1252.87 1124 1244.32 1111.24C1227.81 1086.61 1208.29 1064.82 1190.44 1041.57C1174.22 1020.62 1158.8 998.766 1143.05 977.001C1123.53 950.092 1102.99 924.482 1079.25 903.492C1064.95 890.751 1049.99 878.782 1034.42 867.636C1025.18 861.223 1015.94 854.809 1006.94 847.991C994.664 839.052 983.746 828.389 974.519 816.332C965.032 803.386 959.89 787.768 959.83 771.718C959.686 755.484 962.425 739.353 967.92 724.077C975.973 697.986 987.751 674.316 998.402 650.265C1004.81 635.897 1012.03 621.997 1018.84 607.863C1026.35 592.516 1033.78 576.851 1041.61 561.418C1060.05 524.338 1076.3 485.451 1093.44 447.352C1102.97 425.105 1114.83 403.933 1128.83 384.191C1144.28 362.388 1163.16 343.239 1184.75 327.494C1193.3 320.997 1202.7 315.717 1212.69 311.803C1217.39 310.202 1221.83 307.644 1226.62 306.362C1247.38 300.887 1269.31 301.803 1289.55 308.988C1301.46 313.11 1312.83 318.677 1323.39 325.562C1335.62 333.629 1346.56 343.491 1355.85 354.817C1362.9 363.646 1368.35 373.639 1371.96 384.346C1379.2 404.973 1379.63 425.714 1379.1 446.712C1377.95 472.098 1375.49 497.408 1371.73 522.539C1370.04 536.667 1368.04 550.879 1366.44 565.326C1364.48 580.885 1364.45 596.625 1366.34 612.191C1368.87 629.921 1375.73 646.755 1386.31 661.203C1398.95 679.015 1413.77 693.505 1428.36 708.401C1447.11 727.311 1466.17 746.137 1485.47 764.558C1495.97 774.395 1506.93 783.423 1517.9 792.451C1540.3 810.792 1565.18 825.88 1591.79 837.271C1604.22 842.83 1616.95 846.942 1629.53 851.777C1630.76 852.46 1632.06 853.028 1633.4 853.474M1744.58 1267.13C1742.76 1269.01 1740.84 1270.78 1738.82 1272.44C1731.47 1278.17 1723.8 1283.99 1716.27 1289.08C1706.6 1295.99 1696.55 1302.33 1686.15 1308.09C1679.14 1311.67 1671.7 1314.35 1664.02 1316.07C1651.84 1318.18 1639.57 1319.65 1627.24 1320.46C1609.07 1321.56 1590.74 1322.03 1572.48 1322.82C1558.64 1323.45 1544.38 1323.85 1530.54 1324.49C1524.13 1324.84 1517.58 1325.91 1511.26 1326.57C1502.63 1327.52 1494.31 1328.38 1485.76 1329.65C1482.17 1330.27 1478.49 1330.57 1475.3 1331.42C1458.3 1335.64 1440.99 1339.93 1424 1344.14C1416.66 1346.11 1409.35 1349.44 1401.84 1350.76C1392.42 1352.61 1383.4 1354.68 1373.44 1353.25C1359.87 1351.07 1350.43 1342.66 1345.29 1327.28C1342.09 1317.88 1339.2 1308.4 1336.96 1298.74C1334.71 1289.09 1333.74 1279.09 1331.82 1269.35C1330.49 1261.84 1328.52 1254.51 1327.51 1246.91C1324.2 1228.36 1319.74 1210.03 1314.17 1192.02C1310.66 1180.15 1306.51 1168.48 1301.73 1157.06C1294.32 1139.25 1285.49 1122.07 1275.31 1105.68C1265.59 1089.82 1255.23 1074.13 1245.28 1058.68C1233.77 1041.25 1222.03 1024.22 1210.61 1007.11C1201 992.931 1191.38 978.753 1182.09 964.49C1161.37 933.385 1135.75 905.843 1106.22 882.933C1096.72 875.562 1087.14 867.873 1077.41 860.907C1063.46 850.968 1049.05 841.837 1035.42 831.812C1022.85 823.154 1011.79 812.487 1002.69 800.239C997.029 792.761 993.083 784.131 991.128 774.96C989.601 766.406 989.105 757.7 989.65 749.028C991.166 730.9 995.517 713.121 1002.54 696.34C1007.99 682.229 1013.36 667.8 1019.7 654.475C1028.59 635.34 1037.97 616.757 1047.35 598.174C1053.55 585.572 1059.83 573.29 1066.12 561.007C1075.5 542.424 1084.88 523.842 1094.17 504.94C1097.59 498.554 1100.2 491.7 1103.62 485.314C1117.24 457.047 1130.63 429.184 1148.81 405.166C1163.85 384.726 1181.33 367.048 1202.04 355.003C1208.86 351.123 1216.26 348.115 1223.26 344.873C1234.73 340.156 1247.23 338.457 1259.55 339.936C1270.95 341.246 1281.96 344.937 1291.85 350.769C1303.13 357.108 1312.92 365.794 1320.56 376.241C1330.29 389.628 1336.58 405.204 1338.87 421.596C1342.78 446.008 1342.28 470.925 1337.38 495.16C1331.69 523.695 1324.87 551.848 1318.38 579.915C1314.88 593.91 1313.11 608.279 1313.09 622.703C1313.22 631.178 1314.22 639.616 1316.08 647.887C1319.68 663.084 1327.43 676.985 1338.46 688.045C1349 698.341 1360.72 707.367 1373.36 714.936C1395.05 728.482 1416 743.185 1436.11 758.982C1453.89 773.023 1471.14 788.914 1488.68 803.359C1510.53 821.096 1532.76 837.705 1556.6 850.122C1572.18 858.412 1588.37 865.504 1605.02 871.337C1616.71 875.387 1628.54 878.713 1640.22 882.762C1641.36 883.281 1642.44 883.907 1643.46 884.63M815.96 -71.4593C815.664 -70.0123 814.964 -68.7986 814.668 -67.3516C812.39 -50.3302 810.113 -33.3087 808.559 -16.1392C806.357 10.0936 804.155 36.3267 806.294 63.4477C808.13 86.8888 810.371 110.563 812.207 134.004C813.849 155.446 814.535 177.144 809.751 197.573C804.228 221.618 792.335 238.481 774.819 249.67C762.299 257.812 748.092 260.934 733.97 264.376C724.69 266.115 715.326 267.369 705.915 268.133C697.279 269.08 688.791 269.302 680.155 270.248C673.519 271.001 667.054 272.392 660.822 273.378C653.399 275.025 645.806 276.034 638.873 278.233C622.335 283.327 607.151 292.069 594.443 303.814C578.199 319.086 565.806 337.991 558.28 358.977C552.164 374.34 549.357 390.82 550.041 407.342C550.439 417.272 552.943 427.003 557.388 435.892C561.833 444.781 568.117 452.623 575.822 458.898C587.858 469.012 601.758 476.671 616.737 481.442C636.189 488.257 656.421 492.6 676.956 494.368C701.828 496.593 726.613 498.499 751.462 499.363C773.268 500.358 795.137 500.31 816.904 503.709C829.152 505.153 840.874 509.516 851.084 516.433C860.158 522.832 867.092 531.816 870.985 542.213C877.452 559.969 877.026 577.52 874.43 594.627C871.675 613.211 866.542 631.363 859.156 648.637C853.153 663.238 847.47 677.754 841.467 692.354C837.776 701.549 832.872 710.043 829.182 719.237C820.103 741.5 811.11 764.082 806.077 788.68C801.159 810.776 799.865 833.525 802.243 856.037C803.429 867.92 805.772 879.659 809.241 891.086C815.35 910.819 824.502 929.477 836.367 946.386C851.391 968.003 869.069 985.49 886.684 1004.02C897.121 1014.9 906.687 1026.35 916.571 1037.72C928.186 1052.08 937.928 1067.85 945.559 1084.66C951.787 1097.69 957.057 1110.98 962.647 1124.19C973.74 1150.28 984.833 1176.37 998.308 1201.13C1004.51 1212.8 1010.48 1224.88 1016.45 1236.96C1025.01 1254.84 1022.68 1269.14 1010.04 1279.36C1003.32 1284.42 995.843 1288.39 987.885 1291.11C980.963 1294.03 973.86 1296.51 966.62 1298.52C954.413 1301.45 942.268 1303.33 929.89 1305.63C918.41 1307.76 906.686 1308.25 895.067 1307.09C880.149 1306.1 865.462 1302.89 851.488 1297.57C825.374 1288.16 800.297 1273.68 774.393 1262.5C748.49 1251.32 722.758 1240.78 696.94 1229.92C670.704 1218.98 645.181 1206.41 620.524 1192.27C597.469 1178.96 574.966 1165.16 551.467 1154.02C551.062 1153.78 550.339 1153.63 549.934 1153.4M1732.36 1221.52C1732.41 1221.97 1732.42 1222.42 1732.38 1222.88C1717.2 1230.02 1703.75 1239.78 1689.72 1248.67C1678.3 1255.83 1667.21 1262.91 1655.53 1269.11C1648.19 1272.8 1640.55 1275.87 1632.7 1278.31C1627.53 1280.55 1622.17 1282.32 1616.69 1283.62C1607.26 1285.46 1598.08 1286.9 1588.57 1288.42C1582.97 1289.24 1577.47 1290.37 1571.79 1290.87C1565.47 1291.54 1559.15 1292.2 1552.75 1292.55C1545.07 1293.24 1537.39 1293.93 1529.63 1294.3C1524.27 1294.71 1518.82 1294.8 1513.46 1295.21C1505.78 1295.9 1498.1 1296.59 1490.34 1296.96C1481.3 1297.68 1472.17 1298.07 1462.73 1298.55C1453.28 1299.03 1444.33 1300.06 1435.12 1300.14C1423.18 1300.26 1411.39 1299.65 1399.37 1294.33C1386.9 1288.13 1377.06 1277.66 1371.64 1264.84C1366.98 1255.15 1363.25 1245.05 1360.47 1234.66C1357.23 1222.54 1353.57 1210.18 1350.01 1198.15C1346.44 1186.11 1342.47 1173.84 1337.94 1162.06C1328.75 1136.98 1317.65 1112.63 1304.75 1089.24C1293.43 1068.68 1281.47 1048.29 1270.39 1027.33C1259.47 1007.01 1249.43 986.108 1238.83 965.699C1229.9 948.946 1221.37 932.427 1211.65 916.568C1202.01 901.328 1190.05 887.69 1176.2 876.148C1157.18 860.046 1136.41 848.86 1116.1 836.865C1101.86 828.372 1087.85 819.476 1073.6 810.983C1060.76 803.219 1049.33 793.334 1039.79 781.751C1031.65 771.712 1026.5 759.583 1024.94 746.753C1022.58 730.29 1025.46 715.502 1029.14 701.18C1034.65 679.561 1042.58 658.629 1052.76 638.779C1064.78 614.704 1077.92 591.011 1090.42 567.488C1102.07 545.903 1113.49 524.722 1125.23 503.456C1135.59 483.643 1146.97 464.386 1159.35 445.765C1169.03 431.147 1180.85 418.066 1194.42 406.962C1204.15 399.127 1215.54 393.62 1227.72 390.861C1245.46 388.16 1262.27 392.203 1275.88 411.12C1280.32 417.51 1283.71 424.565 1285.93 432.019C1289.99 447.186 1291.2 462.973 1289.52 478.583C1287.67 502.326 1281.06 523.586 1275.26 545.313C1270.58 562.295 1265.89 579.277 1262.43 596.959C1258.54 616.457 1257.55 636.422 1259.5 656.209C1260.96 673.198 1266.08 689.67 1274.49 704.503C1282.33 717.885 1293.33 729.142 1306.52 737.29C1320.84 745.299 1335.9 751.913 1351.48 757.042C1373.48 765.163 1395.26 773.689 1415.76 787.684C1432.45 798.939 1449 810.917 1465.54 822.895C1476.57 830.881 1487.54 839.909 1498.56 847.894C1520.27 863.9 1543.91 877.095 1568.92 887.166C1584.56 893.231 1600.44 898.892 1616.23 904.234C1626.7 907.583 1637.24 909.889 1647.62 912.919C1648.76 913.438 1649.84 914.064 1650.86 914.787M797.598 -67.2342C795.32 -50.2128 793.043 -33.1913 790.852 -15.8508C787.191 9.37334 785.557 34.8506 785.965 60.3356C786.348 78.3538 787.774 96.4345 788.795 114.282C789.947 135.171 790.781 156.145 786.636 176.403C782.786 195.213 774.55 210.412 761.671 221.042C752.551 228.381 741.957 233.669 730.61 236.546C718.499 239.741 706.116 241.8 693.622 242.695C681.859 243.454 670.096 244.213 658.503 245.609C649.054 246.722 639.669 248.323 630.386 250.408C623.354 251.779 616.426 253.636 609.651 255.964C598.591 260.34 588.35 266.552 579.358 274.338C564.051 288.623 551.446 305.552 542.147 324.311C531.378 344.543 523.362 366.124 518.313 388.48C515.265 401.535 514.597 415.034 516.339 428.327C518.539 442.675 525.21 455.963 535.403 466.298C549.013 480.088 565.084 487.749 581.217 494.367C599.37 501.466 618.266 506.496 637.546 509.361C665.505 514.178 693.504 516.591 721.417 518.685C739.224 520.068 757.117 521.769 774.862 524.194C789.086 525.586 802.995 529.247 816.061 535.037C826.792 539.681 835.822 547.532 841.913 557.513C845.673 563.838 848.235 570.801 849.469 578.055C852.815 600.749 848.669 621.007 842.354 640.82C838.094 654.27 832.706 667.338 827.637 680.321C822.95 692.176 817.858 703.797 813.085 715.333C803.239 738.298 795.305 762.037 789.365 786.308C783.742 810.502 781.998 835.435 784.199 860.175C784.889 867.854 786.217 875.363 787.545 882.871C788.444 888.984 789.831 895.014 791.694 900.905C797.77 921.423 806.588 941.026 817.909 959.185C831.827 981.782 848.804 1000.48 865.634 1019.91C880.993 1037.67 895.8 1055.93 907.463 1077.76C913.429 1088.65 918.625 1099.94 923.011 1111.55C926.128 1120.63 929.65 1129.94 932.766 1139.02C937.336 1153.52 941.587 1168.11 945.2 1182.87C948.576 1195.46 949.423 1208.6 947.693 1221.52C946.675 1228.38 944.053 1234.89 940.042 1240.54C936.031 1246.19 930.742 1250.81 924.607 1254.03C917.384 1258.24 909.396 1260.96 901.11 1262.04C892.662 1263.07 884.136 1263.29 875.646 1262.71C862.326 1261.79 849.188 1259.1 836.579 1254.71C823.852 1250.6 811.188 1245.45 798.291 1240.7C779.264 1233.49 760.151 1225.96 741.21 1219.07C706.072 1206.6 670.998 1193.09 637.426 1173.71C617.288 1162.35 597.298 1150.27 577.245 1139.23C565.196 1132.55 552.766 1126.99 540.25 1121.11M618.316 1413.72C630.171 1418.41 641.94 1422.78 653.561 1427.87C669.233 1435.14 683.966 1444.28 697.439 1455.09C710.428 1465.29 722.949 1476.29 735.386 1486.98C762.133 1510.24 790.515 1530.67 821.397 1542.57C839.406 1549.64 858.252 1554.36 877.469 1556.6C890.254 1557.81 903.114 1558.03 915.932 1557.24C925.428 1556.41 934.852 1554.92 944.136 1552.76C951.644 1551.43 959.385 1549.7 966.722 1547.73C977.249 1544.91 987.605 1541.45 998.366 1538.23C1009.76 1534.83 1020.99 1530.8 1032.97 1528.27C1051.4 1524.36 1070.27 1522.04 1089.55 1525.08C1105.44 1526.98 1120.49 1533.24 1133.03 1543.17C1143.13 1551.63 1150.62 1562.79 1154.64 1575.33C1158.93 1587.52 1162.67 1600.19 1166.96 1612.38C1171.58 1626.36 1178.34 1639.54 1187 1651.45C1191.21 1657.12 1195.94 1662.38 1201.13 1667.16C1214.48 1679.1 1230.95 1687.02 1248.62 1689.99C1261.65 1692.64 1275.05 1692.98 1288.21 1691.01C1295.34 1690.17 1302.41 1688.85 1309.37 1687.05C1317.9 1684.42 1325.85 1680.92 1333.89 1677.74C1341.29 1674.73 1348.6 1671.41 1356.49 1668.95C1367.48 1665.32 1378.88 1661.92 1390.05 1658.93C1396.06 1657.73 1402.15 1657.01 1408.28 1656.78C1413.23 1656.14 1418.51 1655.41 1423.46 1654.76C1429.46 1654.18 1435.78 1653.52 1441.69 1652.62L1450.56 1651.27C1455.43 1650.3 1460.22 1649.02 1465.17 1648.38C1486.91 1645.29 1508.11 1638.92 1529.08 1632.96C1538.27 1630.1 1547.3 1626.76 1556.15 1622.97C1561.08 1620.97 1566.1 1619.28 1570.95 1616.96C1577.71 1614.12 1584.79 1611.2 1591.38 1607.72C1604.99 1600.68 1617.86 1592.3 1629.81 1582.72C1646.58 1569.21 1660.47 1552.47 1670.64 1533.49C1678.5 1518.56 1683.65 1502.37 1685.86 1485.65C1687.84 1472.98 1686.71 1460.02 1682.58 1447.89C1678.96 1437.04 1672.59 1427.33 1664.08 1419.68C1646.02 1403.32 1626.02 1395.01 1605.1 1389.67C1589.86 1385.76 1574.24 1383.53 1558.52 1383.01C1547.26 1382.94 1536.01 1383.56 1524.83 1384.85C1511.57 1385.8 1498.48 1388.38 1485.86 1392.56C1478.79 1394.86 1471.88 1397.62 1465.17 1400.84C1457.05 1404.54 1449.15 1408.71 1441.51 1413.33C1424.21 1424.43 1408.74 1438.15 1395.65 1454C1385.29 1466.35 1375.41 1479.25 1365.45 1491.84C1357.76 1501.42 1349.98 1510.68 1339.82 1516.14C1324.66 1524.65 1308.88 1524.43 1292.19 1513.18C1286.18 1509.24 1281.07 1504.09 1277.19 1498.05C1273.31 1491.91 1270.77 1485.02 1269.72 1477.83C1268.19 1463.1 1269.3 1448.21 1272.99 1433.87C1278.76 1405.66 1285.26 1377.59 1288.29 1348.06C1290.65 1323.97 1290.56 1299.71 1288.03 1275.64C1286.14 1257.73 1282.43 1240.05 1276.97 1222.88C1272.21 1208.29 1266.35 1194.09 1259.43 1180.39C1249.62 1161.78 1238.03 1144.16 1224.82 1127.78C1214.59 1115.14 1204.13 1102.9 1193.44 1091.06C1174.74 1069.75 1156.67 1048.26 1139.77 1024.75C1126.56 1006.07 1113.5 986.661 1099.73 968.468C1086.99 951.485 1072.49 935.887 1056.49 921.931C1035.83 903.533 1013.8 888.923 992.293 872.462C980.153 863.596 969.37 853.01 960.281 841.037C953.731 832.125 949.038 821.988 946.482 811.228C943.68 798.199 943.562 784.735 946.136 771.66C949.574 754.389 954.794 737.522 961.712 721.329C965.636 711.73 969.879 702.046 974.208 692.681C984.414 670.799 994.706 649.237 1005 627.674C1010.73 615.882 1016.37 603.771 1021.78 592.064C1032.6 568.651 1043.43 545.237 1053.84 521.589C1065.87 493.749 1076.69 465.208 1088.8 437.687C1099.35 413.523 1113.21 390.941 1129.97 370.585C1144.91 352.533 1161.89 336.278 1180.58 322.148C1189.95 314.784 1200.32 308.783 1211.37 304.327C1217.75 301.538 1224.32 299.205 1231.04 297.347C1241.61 294.956 1252.49 294.232 1263.28 295.202C1290.24 297.552 1315.89 307.776 1340.73 322.659C1357.1 332.036 1371.7 344.208 1383.87 358.622C1392.38 369.052 1398.73 381.061 1402.57 393.957C1406.96 410.097 1408.67 426.845 1407.65 443.539C1406.72 464.303 1405.3 484.515 1403.64 505.131C1401.65 529.597 1399.02 554.235 1399.2 579.146C1399.23 591.239 1400.29 603.309 1402.37 615.222C1406.31 640.149 1416.85 661.602 1430.72 681.476C1447.15 704.844 1465.3 726.951 1485.03 747.614C1498.75 762.544 1513.47 776.535 1529.07 789.491C1549.56 806.717 1572.27 821.101 1596.6 832.255C1606.78 837.05 1617.33 840.718 1628.06 845.024C1629.55 845.708 1630.95 846.601 1632.19 847.678M596.435 1332.06C605.715 1336.07 614.59 1339.85 623.551 1343.94C643.091 1353.07 662.546 1361.87 681.938 1371.72C700.148 1381.02 717.133 1392.55 732.503 1406.04C747.623 1419.08 762.509 1432.53 777.862 1445.17C800.861 1464.65 825.705 1479.53 852.582 1486.69C867.031 1490.62 882.007 1492.26 896.964 1491.55C907.855 1491.23 918.667 1489.6 929.166 1486.69C932.994 1485.66 936.759 1485.68 940.502 1484.33C950.943 1481.19 961.299 1477.73 971.974 1474.19C980.098 1471.33 988.54 1468.38 996.748 1465.84C1009.02 1461.87 1021.37 1458.22 1034.13 1454.8C1042.83 1452.81 1051.79 1451.78 1060.66 1450.43C1068.25 1449.42 1075.76 1448.09 1083.03 1447.17C1089.67 1446.41 1096.39 1445.98 1102.71 1445.31C1107.66 1444.67 1112.79 1444.66 1117.66 1443.7C1127.93 1442.2 1138.08 1440.05 1148.07 1437.26C1177.48 1428.35 1201.52 1409.6 1217.91 1378.89C1228.05 1359.91 1234.44 1339.16 1236.75 1317.77C1238.56 1302.86 1238.09 1287.77 1235.35 1273.01C1234.27 1265.36 1232.7 1257.79 1230.65 1250.34C1225.28 1232.68 1217.33 1215.92 1207.06 1200.59C1191.44 1176.74 1171.74 1158.08 1152.04 1139.43C1132.34 1120.77 1111.59 1102.06 1095.33 1078.38C1088.11 1068 1081.03 1056.91 1074.36 1046.04C1061.59 1025.19 1049.46 1004.17 1034.81 985.187C1024.18 971.171 1012.03 958.372 998.595 947.023C984.54 935.403 969.614 924.359 955.56 912.739C941.996 901.672 928.517 890.923 916.969 875.897C908.019 864.529 901.449 851.476 897.65 837.516C893.85 823.555 892.899 808.973 894.853 794.637C896.573 782.524 899.32 770.579 903.065 758.931C906.31 748.027 910.306 737.359 915.025 727.007C921.432 712.639 928.415 699.144 935.227 685.01C937.625 679.923 940.108 675.154 942.187 670.153C955.935 639.8 970.089 609.681 983.029 578.862C993.747 553.955 1002.76 528.351 1010.02 502.224C1018.09 472.368 1025.75 442.279 1033.91 412.741C1041.43 385.311 1054.61 359.763 1072.62 337.748C1086.6 321.011 1101.96 305.611 1117.09 290.617C1134.89 272.853 1152.38 255.176 1170.36 238.05C1177.56 231.034 1185.78 225.143 1194.74 220.577C1208.06 213.867 1223.32 212.078 1237.83 215.526C1257.97 219.937 1277.54 226.623 1296.17 235.454C1322.96 247.42 1349.76 259.386 1376.41 272.075C1392.89 279.969 1409.21 288.587 1425.39 297.928C1439.8 306.155 1452.41 317.195 1462.47 330.389C1468.32 338.201 1472.85 346.919 1475.88 356.199C1481.71 374.312 1483.35 393.515 1480.67 412.355C1477.89 437.716 1474.71 462.844 1471.61 488.291C1468.74 513.329 1468.52 538.6 1470.96 563.685C1473.05 581.684 1477.11 599.399 1483.06 616.513C1489.93 636.87 1499.7 656.131 1512.06 673.704C1523.12 690.128 1535.81 705.4 1549.92 719.29C1566.81 735.804 1585.8 750.029 1606.39 761.599C1607.83 762.578 1609.17 763.71 1610.37 764.977M610.512 1383.33C635.115 1391.38 658.75 1402.14 680.987 1415.39C696.166 1424.75 710.475 1435.44 723.742 1447.36C736.754 1458.91 750.233 1469.66 763.16 1480.9C779.685 1494.94 798.015 1506.7 817.662 1515.87C838.104 1525.61 860.285 1531.18 882.905 1532.24C893.564 1532.46 904.222 1532.68 914.709 1532.26C921.75 1531.74 928.449 1529.95 935.319 1528.79C940.508 1527.74 946.103 1526.93 951.207 1525.56C958.544 1523.6 965.795 1521.31 972.961 1518.71C980.531 1516.34 988.335 1513.56 995.735 1510.55C1010.33 1504.88 1025.33 1500.29 1040.61 1496.82C1048.98 1494.92 1057.62 1493.97 1066.17 1492.71C1086.87 1489.55 1108.12 1491.04 1129.12 1491.57C1139.86 1492.11 1150.52 1492.33 1161.33 1491.83C1178.63 1491.38 1195.1 1484.27 1207.3 1471.99C1219.21 1459.36 1229.33 1445.14 1237.35 1429.74C1249.05 1408.39 1257.65 1385.48 1262.88 1361.7C1269.96 1333.24 1271.55 1303.69 1267.58 1274.62C1266.4 1266.39 1265.22 1258.16 1263.32 1249.78C1261.55 1241.26 1259.29 1232.85 1256.57 1224.58C1252.2 1213.34 1247.2 1202.35 1241.59 1191.67C1230.32 1170.59 1216.25 1151.13 1199.76 1133.81L1153.75 1084.6C1137.75 1067.15 1123.24 1048.39 1110.35 1028.53C1098.36 1010.55 1086.19 991.926 1073.72 974.752C1060.56 956.607 1045.04 940.299 1027.56 926.262C1012.38 914.26 996.964 902.663 981.868 890.981C970.205 882.419 959.297 872.874 949.264 862.45C937.748 850.087 929.676 834.921 925.853 818.463C923.971 809.955 923.472 801.2 924.375 792.533C925.654 773.961 930.145 755.752 937.649 738.716C942.804 726.052 947.639 713.474 953.283 701.362C962.322 681.503 972.169 662.112 981.613 642.486C984.244 636.995 987.109 631.099 989.655 625.288C993.983 615.922 998.312 606.557 1002.32 597.277C1008.58 583.633 1015.16 569.903 1020.93 555.707C1029.39 534.977 1037.37 513.694 1045.42 492.73C1051.4 476.768 1056.98 460.572 1063.36 444.844C1068.43 431.861 1073.5 418.878 1079.38 406.362C1087.79 388.702 1098.42 372.183 1111 357.203C1119.56 347.046 1128.2 337.207 1137.66 327.835C1154.58 310.199 1173.64 294.754 1194.4 281.859C1206.38 274.736 1219.54 269.821 1233.25 267.347C1247.87 265.19 1262.78 266.085 1277.04 269.975C1296.75 274.846 1315.9 281.745 1334.18 290.563C1349.75 298.107 1364.89 306.49 1379.55 315.676C1391.9 323.467 1403.15 332.868 1413.02 343.632C1422.41 353.888 1429.13 366.29 1432.61 379.751C1437.23 397.221 1438.62 415.386 1436.72 433.355C1435.51 451.801 1433.57 470.098 1431.96 488.31C1429.59 510.625 1428.52 533.058 1428.76 555.496C1428.94 570.595 1430.35 585.655 1432.96 600.527C1435.59 613.948 1439.35 627.123 1444.2 639.912C1453.99 664.981 1468.29 686.45 1483.7 706.939C1500.18 728.967 1519 749.145 1539.83 767.118C1558.16 783.032 1578.54 796.43 1600.42 806.955C1607.12 810.287 1614.06 813.214 1621.09 816.461C1622.01 817.061 1622.88 817.744 1623.69 818.5M602.65 1353.99C621.934 1362.15 640.898 1370.41 660.267 1378.89C682.742 1389.19 703.759 1402.41 722.773 1418.22C736.742 1429.52 750.096 1442.35 763.831 1454.05C784.722 1472.05 806.29 1487.47 830.085 1497.16C859.915 1509.14 892.566 1512.26 924.125 1506.15C935.375 1503.48 946.392 1501.21 957.472 1497.9C965.766 1495.68 973.484 1492.59 981.607 1489.72C989.092 1487.04 996.173 1484.11 1003.83 1482.06C1017.06 1477.83 1030.37 1473.92 1043.45 1470.42C1051.14 1468.76 1058.94 1467.59 1066.78 1466.9C1075.33 1465.64 1083.97 1464.69 1092.6 1463.74C1099.96 1463.14 1107.73 1462.77 1115 1461.85C1122.28 1460.92 1129.72 1460.64 1136.91 1459.39C1145.06 1457.9 1153.43 1455.99 1161.41 1453.86C1176.34 1449.41 1189.91 1441.31 1200.91 1430.28C1216.76 1415.43 1228.61 1395.85 1237.45 1373.99C1246.11 1352.27 1250.7 1329.13 1250.96 1305.75C1251.13 1292.06 1250.09 1278.38 1247.87 1264.87C1243.01 1238.06 1232.68 1212.55 1217.53 1189.91C1202.57 1167.25 1184.72 1149.13 1166.55 1131.09C1152.54 1117.07 1138.52 1103.04 1125.06 1088.53C1111.8 1073.45 1099.99 1057.15 1089.8 1039.85C1077.78 1020.51 1066.39 1000.99 1052.71 983.119C1040.16 966.266 1025.62 950.99 1009.41 937.625C997.634 928.13 985.625 919.039 973.531 909.629C959.647 898.647 945.53 888.07 932.963 874.343C923.539 864.199 916.296 852.23 911.681 839.177C907.066 826.123 905.177 812.262 906.131 798.45C907.558 781.081 911.508 764.014 917.856 747.784C921.78 738.185 924.895 728.119 929.224 718.753C937.795 699.703 947.176 681.121 956.238 662.623L963.898 646.552C976.946 617.414 990.166 588.913 1002.41 559.307C1014.85 528.907 1025.59 497.837 1034.57 466.24C1042.3 440.234 1050.12 414.548 1061.17 390.73C1068.84 374.372 1078.51 359.032 1089.97 345.063C1097.19 336.29 1104.9 328.07 1112.61 319.849C1129.89 301.585 1148.22 284.345 1167.5 268.216C1177.03 260.075 1187.38 252.948 1198.38 246.948C1207.15 242.662 1216.59 239.903 1226.29 238.789C1250.75 235.653 1274.75 243.581 1298.46 252.956C1316.36 259.784 1333.79 267.421 1351.08 275.782C1369.98 285.077 1388.97 294.692 1407.34 305.839C1420.86 313.603 1432.78 323.869 1442.46 336.089C1448.16 343.256 1452.73 351.258 1455.99 359.814C1463.1 377.399 1463.89 395.651 1462.59 413.777C1460.51 437.925 1457.71 461.925 1455.23 485.839C1452.58 509.412 1451.85 533.162 1453.06 556.853C1454.11 570.357 1455.99 583.782 1458.7 597.053C1463.83 620.914 1472.74 643.804 1485.08 664.862C1501.7 693.807 1522.89 719.879 1547.82 742.073C1567.16 759.498 1588.81 774.176 1612.16 785.692C1612.97 786.159 1613.95 787.264 1614.76 787.731M854.556 -81.8009C853.924 -76.503 852.974 -71.1197 852.342 -65.8219C851.147 -51.1418 850.271 -36.5468 849.076 -21.8667C847.231 0.266317 847.472 22.5238 849.794 44.6118C851.128 57.2467 853.1 69.7102 855.391 82.0886C860.469 112.525 870.737 141.913 877.814 172.155C885.405 204.311 886.165 235.22 876.244 264.547C870.373 282.19 861.989 298.113 849.771 309.934C844.421 315.589 837.908 320.016 830.683 322.912C823.872 325.477 816.895 327.576 809.8 329.192C801.508 330.648 793.095 331.299 784.678 331.136C763.128 331.098 741.407 330.422 719.857 330.384C710.636 330.962 701.454 332.052 692.355 333.651C688.153 333.926 683.998 334.695 679.976 335.942C665.644 341.15 651.568 347.315 641.544 360.942C636.511 367.729 633.232 375.654 631.998 384.013C631.25 389.683 631.772 395.449 633.526 400.892C635.28 406.335 638.223 411.32 642.141 415.486C650.145 424.427 660.538 430.895 672.095 434.128C689.984 439.896 708.816 442.163 727.563 440.806C738.463 440.293 749.311 438.985 760.021 436.895C774.952 433.92 789.626 429.988 804.3 426.056C812.275 423.919 819.908 420.507 827.797 418.051C833.773 415.767 839.863 413.792 846.043 412.136C862.887 408.648 879.948 408.522 897.022 418.649C911.987 427.289 922.789 440.806 929.513 459.519C935.781 478.407 938.107 498.38 936.348 518.204C934.806 545.627 928.263 570.972 920.273 596.02C911.987 622.515 900.465 647.143 889.666 671.918C879.865 694.033 869.083 715.042 859.685 737.39C850.125 758.879 843.787 781.66 840.875 804.998C839.051 821.468 839.709 838.119 842.828 854.393C847.581 879.788 859.392 900.898 874.688 919.707C888.026 936.305 903.55 949.583 919.16 963.18C939.156 980.387 959.323 998.232 975.646 1020.87C985.52 1034.82 994.361 1049.48 1002.1 1064.72C1012.61 1084.82 1022.34 1105.8 1034.59 1124.74C1046 1142.34 1059.71 1158.33 1075.37 1172.28C1091.47 1186.43 1107.8 1200.17 1123.66 1214.73C1134.86 1224.75 1144.37 1236.52 1151.81 1249.58C1162.87 1269.18 1166.75 1290.03 1161.18 1311.35C1158.13 1324.15 1151.19 1335.68 1141.31 1344.37C1133.01 1352.04 1123.08 1357.74 1112.27 1361.04C1107.8 1362.23 1103.59 1364.39 1099.36 1365.18C1090.57 1366.85 1081.71 1368.2 1072.84 1369.55C1063.97 1370.9 1055.01 1371.93 1046.06 1372.97C1039.42 1373.72 1032.61 1373.83 1026.3 1374.5C1020.94 1374.91 1015.43 1376.04 1010.15 1376.77C1003.2 1377.61 995.922 1378.54 989.052 1379.69C984.82 1380.48 980.906 1381.19 976.674 1381.98C969.889 1383.46 963.509 1385.17 956.639 1386.33C947.217 1388.17 937.71 1389.69 928.117 1390.89C917.494 1392.49 906.78 1393.42 896.04 1393.67C886.771 1393.64 877.535 1392.56 868.509 1390.45C850.123 1385.93 832.775 1377.93 817.403 1366.88C803.947 1357.49 790.81 1348.02 777.354 1338.63C757.388 1324.59 736.248 1312.3 714.17 1301.89C695.439 1293.23 676.156 1285.06 657.573 1275.68C631.795 1262.41 606.165 1248.43 580.535 1234.44C576.894 1232.34 572.935 1230.32 569.295 1228.22M840.981 -78.8589C839.911 -66.2637 838.523 -53.5829 837.453 -40.9878C834.448 -10.0952 832.57 21.1787 835.672 53.1702C836.858 66.5285 838.768 80.0355 840.677 93.5418C842.393 105.049 844.747 116.385 846.781 127.806C850.936 150.968 855.091 174.129 855.246 197.679C855.192 222.994 849.645 245.678 837.308 264.711C829.629 276.456 818.946 285.93 806.367 292.149C796.015 296.913 785.083 300.301 773.852 302.228C763.401 303.988 752.852 305.102 742.265 305.564L716.101 307.446C709.698 307.794 703.295 308.142 696.978 308.809C694.659 309.089 692.022 309.453 689.703 309.733C679.824 311.469 670.069 313.854 660.503 316.873C645.993 321.46 632.896 329.677 622.452 340.745C610.257 353.928 601.15 369.702 600.878 391.656C600.666 400.154 602.432 408.584 606.037 416.281C609.642 423.978 614.988 430.732 621.652 436.008C635.706 447.628 651.178 453.055 666.947 457.036C681.937 460.733 697.28 462.811 712.713 463.235C726.818 463.559 740.985 462.84 754.833 462.206C763.321 461.983 771.638 461.123 779.955 460.262C786.273 459.595 792.014 458.056 798.332 457.389C806.244 456.294 814.561 455.434 822.559 454.659C831.599 453.946 840.959 453.147 850.17 453.072C862.73 452.803 875.086 456.276 885.666 463.049C896.407 470.07 904.654 480.306 909.229 492.294C915.674 508.688 916.353 525.259 915.671 541.853C914.122 564.396 909.621 586.637 902.284 608.008C894.901 630.119 886.335 651.817 876.621 673.008C866.585 695.527 855.741 717.579 846.11 740.332C836.63 762.009 830.455 784.985 827.79 808.493C826.056 828.837 827.509 849.328 832.096 869.224C835.391 881.115 839.962 892.614 845.731 903.521C857.7 924.444 872.917 943.332 890.813 959.48C904.486 972.228 918.073 984.657 931.427 997.49C950.777 1016.35 966.921 1038.24 979.221 1062.3C988.924 1081.92 998.626 1101.54 1008.97 1121C1018.05 1138.68 1029.25 1155.2 1042.32 1170.18C1055.91 1185.03 1070.49 1198.95 1085.96 1211.83C1098.97 1222.47 1110.71 1234.58 1120.93 1247.93C1126.32 1255.22 1130.46 1263.35 1133.19 1271.99C1136.55 1282.44 1136.57 1293.66 1133.25 1304.12C1128.45 1317.6 1118.49 1328.63 1105.57 1334.78C1095.52 1339.42 1084.96 1342.82 1074.1 1344.93C1065.56 1346.47 1056.94 1347.52 1048.28 1348.09C1041.32 1348.92 1034.45 1350.08 1027.41 1350.6C1020.37 1351.12 1013.01 1351.72 1005.73 1352.65C1000.46 1353.38 994.865 1354.19 989.591 1354.92C981.678 1356.01 974.085 1357.02 966.258 1358.44C962.982 1358.97 960.026 1359.42 956.751 1359.96C944.52 1361.53 932.375 1363.41 920.145 1364.98C907.497 1366.53 894.699 1366.39 882.086 1364.58C861.189 1361.13 841.216 1353.45 823.387 1342.01C802.183 1329.23 781.361 1315.32 760.095 1303.59C741.17 1292.93 721.716 1284.12 702.58 1275.23C674.165 1262.33 645.921 1250.07 618.097 1234.28C599.577 1223.85 581.057 1213.43 562.217 1203.09M828.225 -75.4403C826.921 -62.4407 825.299 -49.3553 824.314 -36.4411C821.69 -11.8834 820.314 12.7919 820.191 37.4892C820.66 55.8263 822.171 74.2257 824.32 92.4545C827.369 116.596 830.738 140.652 832.66 164.412C834.838 189.129 832.357 213.044 822.213 233.883C815.655 247.863 805.125 259.602 791.939 267.637C779.333 275.46 765.126 278.583 751.004 282.024C743.096 283.392 735.112 284.276 727.096 284.67C720.779 285.337 714.228 286.409 707.911 287.076C701.593 287.743 694.552 288.262 688.235 288.929C685.341 289.082 682.457 289.397 679.599 289.875C668.335 291.985 657.201 294.74 646.252 298.126C627.721 304.527 611.367 316.018 599.065 331.284C585.273 347.541 576.927 367.714 575.201 388.964C574.102 399.59 575.54 410.326 579.398 420.288C583.257 430.25 589.424 439.155 597.394 446.269C611.386 458.931 627.115 465.316 643.054 469.934C660.544 475.284 678.622 478.477 696.887 479.443C711.163 480.404 725.267 480.728 739.372 481.051C752.03 481.079 764.921 480.702 777.493 480.41C791.427 480.096 805.361 479.781 819.38 479.785C832.905 479.528 846.345 481.971 858.915 486.972C871.865 492.318 882.349 502.314 888.306 514.996C893.277 525.858 895.749 537.698 895.537 549.642C895.573 571.763 891.992 593.742 884.936 614.708C875.676 645.226 862.519 672.684 849.853 700.695C838.497 724.573 829.004 749.293 821.456 774.633C814.415 798.727 812.119 823.959 814.695 848.928C819.128 886.871 835.362 922.464 861.108 950.687C875.635 966.624 891.268 981.582 906.581 996.625C927.204 1016.07 944.665 1038.62 958.335 1063.45C966.522 1078.69 973.604 1094.91 980.92 1110.73C986.23 1121.62 990.902 1132.67 996.531 1143.47C1003.99 1157.68 1012.55 1171.27 1022.13 1184.14C1034.68 1200.04 1048.2 1215.14 1062.62 1229.36C1071.51 1237.72 1079.41 1247.08 1086.16 1257.24C1092.35 1267.55 1095.98 1278.55 1091.29 1290.4C1088.66 1297.64 1083.46 1303.66 1076.67 1307.31C1067.46 1313.02 1057.04 1316.51 1046.24 1317.52C1041.63 1318.07 1037.07 1318.95 1032.59 1320.15C1024.76 1321.56 1017.08 1322.25 1009.26 1323.67L999.429 1325.27C991.602 1326.69 983.542 1328.51 975.629 1329.6C968.441 1330.84 961.4 1331.36 954.211 1332.6C947.979 1333.59 941.513 1334.98 935.196 1335.65C926.879 1336.51 918.158 1337.14 909.67 1337.36C892.197 1337.61 874.811 1334.86 858.263 1329.25C843.792 1323.93 829.8 1317.38 816.438 1309.69C791.127 1295.61 765.645 1280.9 739.337 1269.49C715.69 1259.07 691.98 1249.7 668.567 1238.87C643.621 1227.44 619.352 1213.43 595.169 1199.73C582.226 1192.26 568.816 1185.6 555.958 1178.44M889.475 -91.8525C889.145 -82.8748 888.816 -73.8971 888.082 -65.1529C886.304 -40.6361 886.611 -16.0124 889 8.45241C889.994 18.3576 891.821 28.1616 894.459 37.7606C899.223 54.2631 905.177 70.1047 915.575 83.3882C926.965 99.5324 944.289 110.504 963.753 113.9C978.951 115.881 994.308 116.347 1009.6 115.292C1035.79 113.994 1062 117.518 1086.92 125.687C1101.26 130.48 1114.9 137.175 1127.47 145.593C1133.07 149.561 1138.2 154.151 1142.76 159.275C1146.48 163.297 1149.14 168.18 1150.5 173.485C1151.86 178.79 1151.88 184.35 1150.56 189.665C1148.38 199.32 1144.75 208.59 1139.81 217.163C1128.78 235.828 1115.48 253.058 1100.22 268.459C1087.3 281.494 1073.72 293.338 1060.88 306.691C1047.5 320.535 1034.2 334.698 1025.22 353.515C1017.1 371.315 1011.57 390.182 1008.78 409.547C1005.04 430.038 1002.02 450.677 998.686 471.401C994.397 496.558 988.117 521.335 979.905 545.497C974.797 560.884 969.051 576.442 963.133 591.362C955.519 610.156 947.904 628.949 939.48 647.276C929.975 667.944 920.383 688.292 910.387 708.407C900.044 728.889 891.583 750.268 885.106 772.28C880.032 789.393 878.107 807.286 879.426 825.087C880.697 840.047 884.945 854.602 891.922 867.896C900.783 884.3 912.692 898.863 927.01 910.804C937.829 920.556 949.263 928.775 960.634 938.037C979.186 952.287 996.305 968.311 1011.75 985.883C1022 998.141 1031.22 1011.22 1039.32 1024.99C1050.45 1043.55 1061.02 1062.6 1072.38 1080.75C1084.61 1100.12 1099.35 1117.78 1116.21 1133.29C1133.46 1149.18 1150.94 1164.67 1167.96 1180.97C1183.38 1195.6 1195.93 1213 1204.95 1232.25C1208.34 1239.6 1211.27 1247.15 1213.74 1254.86C1217.37 1265 1219.41 1275.64 1219.8 1286.4C1220.44 1296.12 1220.31 1305.87 1219.41 1315.56C1217.79 1329.85 1213.77 1343.75 1207.52 1356.7C1199.26 1374.71 1186.26 1390.13 1169.9 1401.31C1162.63 1406.53 1154.63 1410.63 1146.15 1413.49C1138.17 1416.36 1130.03 1418.77 1121.76 1420.71C1111.06 1422.89 1100.51 1424.35 1089.88 1425.49C1078.29 1426.89 1066.52 1427.65 1055.02 1429.36C1046.79 1430.54 1038.64 1432.04 1030.58 1433.86C1013.82 1437.66 997.146 1441.79 980.558 1446.23C962.461 1451.43 944.215 1457.34 926.118 1462.53C913.963 1465.56 901.46 1466.95 888.937 1466.68C876.637 1466.76 864.397 1464.97 852.638 1461.37C840.135 1457.65 828.209 1452.21 817.198 1445.22C797.846 1432.97 780.043 1417.56 762.155 1401.84C737.067 1379.07 708.918 1359.91 678.524 1344.93C656.153 1334.17 633.953 1324.05 611.582 1313.29C604.153 1309.81 596.958 1305.93 589.848 1302.36M876.075 -88.2617C874.658 -62.9233 873.157 -37.9035 872.464 -12.4171C872.049 4.4193 873.352 21.2541 876.353 37.8261C878.986 51.4805 883.214 64.707 887.123 78.0195C890.641 89.1157 895.444 99.7627 901.436 109.743C908.948 123.485 919.055 135.639 931.197 145.531C942.796 154.683 957.273 159.409 972.037 158.863C983.248 158.595 994.436 156.964 1005.71 155.653C1022.75 154.165 1039.81 154.038 1057.37 159.591C1066.27 162.352 1074.37 167.216 1081 173.773C1092.24 185.12 1095.26 197.646 1090.87 213.181C1087.54 223.957 1081.75 233.816 1073.97 241.984C1061.71 256.21 1047.07 266.63 1032.11 277.136C1018.89 286.491 1005.9 295.441 995.554 309.153C987.018 321.023 981.553 334.82 979.647 349.315C976.755 367.869 978.118 386.992 978.353 405.734C978.611 425.837 979.273 446.174 977.68 465.747C974.719 501.019 967.254 535.766 955.467 569.141C951.036 581.953 946.52 594.446 941.365 607.11C935.829 620.902 930.294 634.693 924.034 648.337C916.078 665.855 907.312 682.906 898.951 700.19C886.347 727.158 873.424 754.212 867.058 785.321C863.729 800.696 862.886 816.505 864.561 832.147C866.868 852.211 874.008 871.416 885.37 888.114C895.92 903.003 908.373 916.449 922.412 928.107C940.62 943.742 959.465 959.206 977.439 975.246C993.468 990.256 1007.2 1007.54 1018.2 1026.55C1029.32 1045.11 1039.9 1064.16 1050.47 1083.21C1064.22 1107.47 1081.85 1129.31 1102.67 1147.86C1119.43 1163.2 1136.66 1177.73 1153.5 1193.39C1167.22 1206.2 1178.56 1221.33 1187.02 1238.08C1203.53 1271.61 1205.93 1304.82 1193.1 1337.32C1187 1352.98 1176.9 1366.76 1163.81 1377.3C1157.37 1382.91 1149.99 1387.33 1142 1390.33C1133.53 1393.85 1124.83 1396.75 1115.95 1399.02C1107.19 1400.96 1098.34 1402.42 1089.42 1403.39C1081.83 1404.4 1074.32 1405.73 1067.05 1406.65C1059.77 1407.57 1052.65 1407.77 1045.37 1408.7C1039.69 1409.19 1034.19 1410.33 1028.59 1411.14C995.199 1416.67 963.259 1427.62 930.146 1435.47C911.862 1440.11 892.901 1441.49 874.138 1439.53C853.404 1436.42 833.654 1428.62 816.396 1416.71C800.242 1405.48 784.764 1393.3 770.04 1380.24C746.751 1360.26 721.061 1343.25 693.565 1329.62C672.812 1319.79 652.058 1309.97 631.22 1299.83C615.064 1291.85 598.97 1282.82 583.048 1274.44C582.643 1274.21 581.92 1274.06 581.515 1273.82M866.186 -85.6125C865.082 -65.4865 863.574 -45.5939 862.471 -25.4679C861.375 -4.29114 861.92 16.9385 864.1 38.0312C865.936 55.7342 869.585 73.2022 874.99 90.1596C878.706 101.473 882.973 112.296 887.326 123.438C898.528 151.207 913.769 176.185 926.713 202.804C935.183 219.091 937.897 237.763 934.414 255.787C931.39 271.299 928.452 287.13 925.514 302.961C922.328 320.771 923.823 339.102 929.854 356.16C934.401 369.302 940.862 381.931 945.409 395.072C949.35 407.228 952.659 419.579 955.324 432.077C958.19 445.885 959.555 459.963 959.395 474.065C959.598 487.596 958.646 501.119 956.55 514.488C952.833 538.141 947.059 561.424 939.296 584.073C936.243 593.097 933.19 602.12 929.733 610.91C924.813 623.169 919.977 635.747 914.248 647.54C905.357 666.675 895.743 685.663 886.852 704.798C875.735 729.659 863.894 754.372 857.482 782.758C852.974 800.922 851.879 819.765 854.251 838.328C856.974 858.876 864.346 878.533 875.806 895.805C887.363 911.975 900.934 926.607 916.192 939.345C931.717 952.622 947.474 965.495 962.446 979.263C978.734 994.132 992.689 1011.37 1003.84 1030.4C1015.8 1050.78 1026.65 1072.15 1038.29 1092.62C1052.42 1117.94 1070.76 1140.66 1092.54 1159.8C1108.23 1173.72 1124.48 1187.14 1139.94 1201.46C1154.15 1214.05 1165.78 1229.28 1174.18 1246.31C1189.47 1279.14 1190.32 1310.37 1174.46 1339.23C1166 1354.75 1152.79 1367.16 1136.77 1374.63C1127.01 1379.68 1116.62 1383.39 1105.87 1385.65C1096.13 1387.57 1086.13 1388.54 1076.22 1389.83C1066.94 1390.95 1058.08 1392.3 1048.8 1393.42C1041.53 1394.34 1033.76 1394.71 1026.49 1395.63C1019.67 1396.42 1012.9 1397.55 1006.2 1399.02C988.8 1403 971.723 1406.89 954.326 1410.87C946.265 1412.69 938.609 1414.74 930.463 1416.24C921.594 1417.59 912.639 1418.62 903.365 1419.74C892.932 1420.93 882.383 1420.65 872.028 1418.9C853.96 1415.95 836.74 1409.13 821.544 1398.92C810.281 1391.34 798.847 1383.12 788.052 1374.73C778.726 1368 770.101 1360.05 760.775 1353.32C739.642 1337.8 717.039 1324.39 693.29 1313.28C662.129 1299.06 631.287 1284.76 600.803 1267.97C592.395 1263.39 583.582 1258.57 575.088 1253.66M621.188 1423.18C638.555 1429.05 655.09 1437.15 670.38 1447.26C684.437 1456.66 697.833 1467 710.475 1478.23C726.488 1492.59 743.324 1506 760.898 1518.4C778.908 1530.45 798.305 1540.3 818.67 1547.71C836.285 1554.06 854.546 1558.46 873.124 1560.81C886.907 1562.72 900.867 1562.99 914.715 1561.63C923.988 1560.52 933.262 1559.4 942.451 1557.96C949.002 1556.89 955.701 1555.1 962.485 1553.62C978.84 1549.58 995.427 1545.13 1011.87 1541.41C1019.61 1539.68 1027.69 1539.22 1035.84 1537.73C1045.73 1536.28 1055.78 1536.35 1065.64 1537.95C1083.07 1540.46 1098.84 1549.56 1111.78 1565.93C1119.29 1576.24 1125.5 1587.44 1130.28 1599.26C1140.18 1620.89 1150.63 1642.02 1165.35 1659.96C1177.26 1674.82 1192.28 1686.9 1209.36 1695.35C1221.66 1701.27 1234.42 1706.2 1247.5 1710.08C1261.91 1714.09 1276.55 1717.69 1291.28 1721.61L1332.33 1733.17C1340.98 1736.34 1350.19 1737.72 1359.39 1737.2C1363.55 1736.46 1367.42 1734.59 1370.6 1731.81C1378.16 1725.89 1385.36 1719.5 1392.14 1712.7C1405.29 1699.21 1420.25 1687.6 1436.58 1678.23C1445.79 1673.02 1455.31 1667.74 1464.69 1663.17C1473.51 1659.1 1482.51 1655.66 1491.42 1651.91C1502.16 1647.32 1512.57 1642.82 1523.4 1638.55C1529.52 1635.89 1536.22 1634.09 1542.66 1631.34C1549.74 1628.42 1556.74 1625.17 1563.73 1621.93C1569.22 1619.44 1574.47 1617.35 1579.87 1614.53C1588.63 1610.74 1597.2 1606.51 1605.53 1601.84C1617.9 1594.43 1629.79 1586.45 1641.5 1577.85C1663.07 1561.33 1681.13 1540.68 1694.63 1517.11C1702.66 1503.68 1710.19 1489.69 1718.22 1476.26C1722.47 1467.89 1729.02 1460.92 1737.1 1456.15C1744.01 1452.59 1750.76 1453.52 1757.99 1455C1767.89 1457.48 1776.64 1463.34 1785.62 1468.8C1789.75 1471.45 1793.88 1474.1 1797.78 1477.16C1799.08 1478.18 1800.14 1479.61 1801.53 1480.95M1718.36 1170.56C1716.74 1171.94 1715.02 1173.2 1713.22 1174.33C1691.51 1183.91 1672.62 1198.88 1652.89 1212.03C1642.52 1219.26 1631.74 1226.25 1620.79 1232.6C1612.59 1236.86 1604.08 1240.51 1595.34 1243.52C1588.57 1246.19 1581.62 1248.4 1574.54 1250.12C1565.84 1252.11 1556.89 1253.14 1548.02 1254.49C1529.58 1257.02 1510.92 1257.55 1492.37 1256.07C1476.01 1254.98 1459.39 1252.94 1443.41 1245.6C1428.16 1238.38 1415.56 1226.57 1407.35 1211.84C1400.66 1199.7 1394.87 1187.08 1390.05 1174.08C1381.78 1153.39 1373.5 1132.7 1363.94 1112.35C1353.64 1090.49 1341.92 1069.7 1330.98 1048.02C1319.98 1027.87 1310.19 1007.09 1301.65 985.786C1297.87 975.515 1293.86 965.649 1290.4 955.293C1287.12 945.575 1283.42 935.623 1281.09 925.649C1277.26 911.137 1274.23 896.426 1272.02 881.581C1270.04 870.158 1270.04 858.48 1272 847.054C1273.05 841.892 1275.21 837.017 1278.32 832.762C1281.42 828.507 1285.41 824.972 1290.01 822.398C1298.9 817.282 1308.81 815.993 1319.04 814.62C1334.39 812.941 1349.91 813.626 1365.06 816.65C1383.42 820.304 1401 827.168 1416.99 836.925C1430.82 845.184 1444.37 854.89 1458.14 864.191C1479.94 879.205 1501.6 894.943 1524.63 906.892C1540.23 915.045 1556.47 921.9 1573.2 927.384C1585.84 931.177 1598.33 935.693 1610.89 939.167C1625.7 943.404 1640.75 947.237 1655.88 951.388C1657.57 952.006 1659.17 952.84 1660.64 953.871M1025.11 -143.268C1037.49 -125.155 1052.02 -108.614 1068.39 -94.0078C1086.36 -78.774 1106.14 -65.8154 1127.28 -55.4248C1141.69 -48.4994 1155.51 -40.4271 1168.62 -31.2862C1181.23 -22.3934 1191.29 -10.3555 1197.81 3.6311C1204.09 17.2705 1207.58 32.0291 1208.07 47.0379C1208.15 61.376 1208.15 75.3954 1207.1 89.352C1206.27 101.543 1204.79 113.904 1207.08 126.283C1208.74 135.371 1213.12 143.739 1219.66 150.264C1228.06 159.673 1237.94 167.651 1248.9 173.885C1266.78 184.479 1284.75 195.392 1303.33 204.773C1331.37 218.801 1359.78 231.701 1388.05 245.325C1404.52 253.219 1420.77 261.517 1437.09 270.135C1451.13 277.485 1463.73 287.316 1474.27 299.15C1482.37 308.209 1488.76 318.66 1493.13 329.995C1499.84 347.346 1500.69 364.555 1499.86 381.873C1498.8 404.722 1494.12 426.831 1490.9 449.235C1485.92 477.841 1484.42 506.943 1486.42 535.909C1487.22 546.966 1489.01 557.929 1491.78 568.663C1493.92 576.638 1495.5 585.104 1498.28 592.908C1502.01 603.388 1506.36 613.64 1511.29 623.611C1522.95 646.026 1538.11 666.433 1556.21 684.059C1567.82 696.045 1580.86 706.56 1595.03 715.369C1596.14 716.206 1597.1 717.219 1597.88 718.365M1704.24 1116.57C1704.01 1116.97 1704.26 1117.93 1703.94 1118.01C1692.76 1124.77 1681.49 1131.21 1670.8 1138.52C1653.54 1150.67 1637.26 1163.92 1620.09 1176.38C1609.77 1184.01 1598.94 1190.91 1587.67 1197.04C1577.21 1202.39 1565.97 1206.1 1554.37 1208.01C1542.47 1210.11 1530.32 1210.36 1518.34 1208.78C1504.33 1207.14 1490.93 1202.17 1479.24 1194.29C1468.51 1186.84 1459.59 1177.08 1453.12 1165.73C1445.53 1152.72 1438.58 1139.54 1431.95 1126.27C1421.27 1105.55 1409.71 1085.39 1397.37 1066.13C1383.63 1044.17 1369.24 1022.39 1357.38 998.553C1352.04 987.336 1347.45 975.771 1343.66 963.936C1339.95 952.232 1337.52 940.158 1336.41 927.929C1335.31 914.889 1336.78 902.528 1342.85 892.012C1346.68 885.054 1352.91 879.735 1360.39 877.057C1376.31 871.421 1392.32 874.998 1408.53 881.935C1422.34 888.152 1435.48 895.741 1447.77 904.587C1473.13 921.384 1498.48 938.18 1525.28 950.146C1543.83 958.081 1562.96 964.615 1582.49 969.692C1605.34 975.876 1628.2 982.061 1651.22 988.883C1658.22 990.768 1664.93 994.1 1671.78 996.709M630.508 1457.95C651.284 1467.14 670.578 1479.37 687.756 1494.24C704.494 1508.22 721.231 1522.2 738.755 1535.28C757.476 1548.9 777.92 1559.98 799.552 1568.22C816.709 1575.09 834.405 1580.52 852.457 1584.48C871.318 1588.77 890.655 1590.59 909.987 1589.92C921.75 1589.16 933.661 1587.68 945.254 1586.28C952.847 1585.27 960.269 1583.62 967.777 1582.3C978.242 1580.52 988.94 1578.34 999.489 1576.88C1013.01 1574.4 1026.82 1573.93 1040.48 1575.47C1060.72 1578.25 1078.36 1589.25 1092.47 1608.72C1102.32 1622.49 1111.61 1636.75 1121.22 1650.93C1133.31 1670.11 1148.09 1687.45 1165.1 1702.42C1181.63 1716.07 1199.87 1727.51 1219.35 1736.44C1236.31 1744.89 1253.75 1752.52 1269.65 1764.67C1282.25 1774.02 1292.03 1786.66 1297.9 1801.21C1300.86 1809.06 1303.04 1817.18 1304.4 1825.45C1306.16 1834.56 1307.27 1843.83 1308.39 1853.1M644.225 1506.59C651.848 1512.07 659.47 1517.55 666.626 1523.84C681.574 1536.24 695.823 1549.86 710.92 1561.55C727.891 1575.12 746.855 1583.37 765.563 1590.67C779.993 1596.03 794.656 1600.99 809.149 1605.32C832.291 1612.84 856.13 1618.02 880.306 1620.78C893.151 1622.38 906.139 1622.46 919.002 1621.01C930.276 1619.7 941.23 1618.47 952.418 1616.84C960.649 1615.66 968.476 1614.25 976.793 1613.39C991.583 1610.92 1006.64 1610.46 1021.55 1612C1041.47 1614.87 1059.5 1624.74 1075 1641.78C1083.82 1651.72 1092.49 1662.39 1101.08 1672.74C1117.85 1693.21 1134.76 1712.95 1154.65 1728.48C1168.89 1739.43 1183.88 1749.35 1199.53 1758.17C1212.15 1765.72 1224.78 1773.28 1236.7 1782.05C1251.81 1792.92 1263.93 1807.43 1271.94 1824.24C1277.29 1835.66 1281.41 1847.62 1284.23 1859.92M1008.52 -138.824C1025.7 -112.997 1044.76 -89.0447 1067.36 -69.7981C1079.83 -59.5547 1092.88 -50.0385 1106.45 -41.2962C1121.03 -31.5279 1136.23 -23.2919 1149.82 -10.8632C1160.24 -1.975 1167.8 9.8008 1171.54 22.9785C1174.54 33.9659 1173.95 45.6228 1169.86 56.2517C1167.13 64.7062 1161.37 71.8525 1153.69 76.3109C1146.01 80.4967 1137.17 82.0258 1128.53 80.6597C1115.12 79.1228 1101.55 76.9474 1088.29 74.687C1067.54 71.0113 1046.54 68.9809 1025.47 68.6143C1007.28 68.3595 989.43 69.3811 971.195 66.4033C957.961 64.8421 945.432 59.5934 935.037 51.2556C924.642 42.9178 916.799 31.826 912.402 19.2462C909.986 13.1971 907.877 7.02986 906.083 0.767501C901.846 -14.2626 899.751 -29.8153 899.859 -45.4309C899.749 -66.2575 901.086 -86.788 901.699 -107.466C901.847 -108.19 902.314 -108.999 902.462 -109.723M774.225 -75.3608C772.955 -69.892 771.6 -64.7423 770.734 -59.0399C767.187 -36.5497 763.321 -13.9736 760.583 8.98367C758.545 29.7021 757.959 50.5382 758.829 71.3385C759.235 90.7181 759.96 110.012 758.514 128.862C757.069 147.712 751.431 164.95 739.213 176.771C733.681 182.684 726.763 187.123 719.083 189.688C714.409 191.679 709.551 193.21 704.58 194.257C694.971 195.788 685.271 196.674 675.545 196.909C653.271 197.044 631.055 194.622 609.333 189.691C601.299 188.264 593.496 185.754 586.136 182.231C577.494 178.05 572.891 171.078 575.259 159.502C577.924 146.48 580.994 133.691 584.148 121.221C589.27 103.305 591.897 84.7681 591.954 66.1345C592.029 55.3227 590.415 44.5655 587.172 34.2515C583.261 21.5233 577.382 9.48554 569.748 -1.42461C565.572 -6.80178 561.396 -12.1791 556.816 -17.7898M1039.32 -146.382C1044.22 -140.857 1048.8 -135.246 1053.61 -130.04C1060.71 -122.709 1067.71 -115.697 1075.36 -108.856C1094.63 -91.7969 1116.11 -81.8236 1137.44 -71.1273C1151.17 -64.549 1164.9 -57.9712 1178.24 -50.265C1193.97 -41.4998 1206.92 -28.5084 1215.64 -12.7617C1219.5 -5.84619 1222.6 1.45926 1224.9 9.03206C1231.48 28.4681 1232.78 48.6339 1234.8 68.9476C1235.55 83.92 1237.82 98.778 1241.56 113.295C1245.87 127.911 1253.56 141.309 1264 152.411C1276.44 165.358 1290.5 176.646 1305.83 185.994C1327.46 200.37 1350.15 211.044 1372.84 221.717C1393.1 230.989 1413.28 239.943 1433.86 249.129C1448.65 255.83 1462.68 264.108 1475.69 273.82C1477.33 275.327 1478.8 276.993 1480.1 278.793M1447.56 1816.15C1441.57 1788.7 1441.46 1762.74 1451.79 1738.78C1459.23 1721.56 1470.61 1706.34 1485.01 1694.32C1498.56 1683.1 1513.24 1673.32 1528.82 1665.14C1538.34 1659.86 1547.86 1654.57 1557.56 1649.92C1567.25 1645.27 1576.72 1641.03 1586.09 1636.46C1596.66 1631.24 1607.22 1626.01 1617.62 1620.15C1628.02 1614.29 1637.86 1608.92 1647.77 1602.5C1666.33 1590.43 1683.84 1576.82 1700.11 1561.81C1711.95 1551.11 1723.7 1540.1 1736.11 1530.28C1742.57 1525.29 1749.98 1521.68 1757.88 1519.66C1769.69 1516.97 1782.07 1518.49 1792.88 1523.96C1799.91 1527.2 1806.87 1531.49 1813.74 1535.46C1815.11 1536.6 1816.36 1537.87 1817.49 1539.24M1049.84 -149.202C1051.85 -147.306 1053.76 -145.305 1055.55 -143.209C1072.64 -123.126 1093.66 -106.765 1117.32 -95.1412C1134.93 -86.8656 1152.68 -79.3133 1170.05 -70.6333C1180.1 -65.641 1189.82 -60.0256 1199.17 -53.8198C1213.02 -44.1952 1224.17 -31.168 1231.53 -15.9915C1237.56 -4.36497 1241.61 8.18153 1243.53 21.1369C1245.1 33.3673 1247.71 45.6608 1249.59 57.8057C1251.12 67.3131 1251.68 77.0767 1253.52 86.4987C1257.24 102.939 1261.92 119.122 1271.13 133.066C1280.02 146.013 1290.83 157.528 1303.19 167.214C1330.55 188.944 1360.67 203.098 1390.53 216.294C1415.39 227.411 1440.87 236.996 1465.05 250.689C1468.02 252.588 1470.87 254.681 1473.57 256.954M1064.34 -153.782C1070.86 -147.322 1077.23 -140.139 1084.3 -134.17C1104.79 -116.41 1127.62 -106.46 1150.61 -97.2336C1165.93 -91.0827 1180.94 -84.8461 1195.88 -77.5672C1211.52 -69.9568 1225.24 -58.9042 1236 -45.2375C1244.04 -34.9179 1250.18 -23.248 1254.12 -10.775C1256.33 -4.65851 1258.23 1.56663 1259.8 7.87547C1261.71 16.2549 1262.89 24.4862 1264.47 32.9511C1266.06 41.4161 1267.24 49.6473 1268.82 58.1122C1270.75 67.8532 1272.12 78.0843 1274.69 87.6543C1280.51 110.702 1292.53 131.719 1309.43 148.433C1326.49 164.584 1345.99 177.936 1367.22 187.996C1393.4 201.495 1420.32 211.376 1446.95 222.705C1453.16 225.484 1459.06 228.348 1465.28 231.128C1466.08 231.595 1466.66 232.466 1467.47 232.933M993.527 -134.806C1008.36 -115.188 1022.95 -95.166 1038.1 -75.6338C1049.48 -61.4918 1061.95 -48.256 1075.38 -36.046C1083.92 -28.4191 1092.46 -20.7923 1100.68 -13.0799C1107.56 -7.28047 1113.28 -0.226697 1117.53 7.70581C1122.01 16.7629 1122.15 24.9314 1113.86 32.2807C1108.42 36.3196 1101.91 38.659 1095.15 39.0042C1081.87 40.5093 1068.58 40.6528 1055.05 41.2008C1046.96 41.6573 1038.48 41.8803 1030.31 42.0177C1017.42 42.3948 1004.61 43.0907 991.867 42.7443C977.191 42.8261 962.773 38.8847 950.179 31.3488C938.791 24.0575 929.959 13.3976 924.912 0.852004C918.036 -16.2757 914.31 -34.5048 913.913 -52.9569C913.175 -72.2643 914.055 -91.5995 916.546 -110.76C916.737 -111.856 917.156 -112.9 917.776 -113.825M1479.78 1807.53C1478.98 1792.77 1480.68 1777.98 1484.81 1763.78C1490.7 1743.4 1501.76 1724.89 1516.91 1710.05C1526.69 1700.12 1537.49 1691.26 1549.15 1683.63C1563.5 1674.66 1578.17 1665.6 1593.1 1657.5C1607.38 1649.57 1622.01 1642.91 1636.38 1635.3C1651.31 1627.2 1666.14 1618.78 1680.98 1610.36C1698.76 1600.13 1716.27 1588.94 1734.3 1579.66C1749.54 1571.47 1766.22 1567.35 1784.16 1571.77C1794.62 1574.5 1804.31 1579.63 1812.45 1586.76C1822.41 1595.09 1830.62 1605.33 1836.58 1616.87C1838.08 1619.89 1839.34 1623.32 1840.83 1626.33M1077.6 -156.638C1081.98 -153.027 1086.52 -150.139 1090.67 -146.123C1099.27 -138.577 1108.9 -132.292 1119.26 -127.458C1137.61 -117.673 1156.7 -111.505 1175.33 -104.528C1192.42 -98.1668 1209.59 -91.4862 1225.24 -80.2938C1243.5 -67.6909 1257.56 -49.9005 1265.59 -29.2226C1268.28 -22.8039 1270.51 -16.202 1272.25 -9.46739C1274.9 0.421578 1277.55 10.3107 1279.57 20.3706C1281.24 29.1546 1281.95 38.1952 1283.94 46.8937C1287.06 61.1006 1289.54 75.4783 1293.94 89.3433C1300.92 110.72 1313.36 129.898 1330.05 144.972C1350.08 162.705 1373.07 176.796 1397.96 186.608C1418.05 195.242 1438.7 203.387 1459.02 211.617C1460.28 212.28 1461.42 213.124 1462.43 214.123M1093.55 -160.912C1095.34 -159.339 1097.36 -158.171 1099.15 -156.599C1113.02 -146.409 1128.23 -138.174 1144.34 -132.125C1165.54 -124.471 1187.2 -117.626 1208.57 -109.333C1229.44 -101.578 1247.92 -88.4939 1262.16 -71.3816C1271.37 -60.4061 1278.46 -47.8115 1283.05 -34.2419C1285.74 -27.8232 1287.97 -21.2214 1289.72 -14.4867C1292.13 -4.19326 1293.99 6.59001 1296.09 16.9689C1297.93 26.3909 1299.45 35.8981 1301.3 45.32C1302.78 54.4647 1304.75 63.5232 1307.2 72.4575C1313.73 96.6657 1326.82 118.597 1345.04 135.828C1365.46 154.631 1388 166.028 1411.24 176.211C1425.53 182.3 1440.27 187.579 1454.88 193.582C1455.8 194.182 1456.67 194.865 1457.47 195.621M1110.45 -165.442L1127.99 -156.123C1142.93 -148.806 1158.56 -143.03 1174.67 -138.884C1198.42 -131.914 1222.55 -126.071 1245.14 -111.951C1265.59 -99.4396 1281.98 -81.2665 1292.32 -59.6321C1299.42 -44.6238 1304.69 -28.817 1308.01 -12.5515C1310.71 0.0604012 1312.36 12.6097 1314.33 25.0736C1317.02 41.2813 1320.85 57.2785 1325.79 72.9461C1333 94.988 1346.3 114.539 1364.15 129.339C1385.77 147.48 1409.82 158.13 1433.93 167.738C1440.06 170.199 1445.87 172.745 1452 175.205M1513.92 1798.38C1515.19 1787.57 1517.87 1776.96 1521.88 1766.84C1530.99 1742.17 1546.31 1724.05 1564.08 1708.69C1580.94 1694.29 1599.42 1681.88 1619.13 1671.72C1628.42 1666.84 1637.86 1661.23 1647.24 1656.67C1655.66 1652.36 1664.25 1648.69 1672.84 1645.02C1681.43 1641.35 1690.16 1636.96 1698.75 1633.29C1701.77 1631.8 1704.96 1630.94 1708.07 1629.77C1717.55 1626.88 1726.87 1623.36 1736.61 1621.44C1755.77 1617.67 1774.68 1618.07 1793.42 1631.86C1806.64 1641.65 1816.17 1655.51 1823.57 1671.64C1829.43 1683.72 1834.38 1696.23 1838.38 1709.05C1838.55 1709.68 1839.04 1710.24 1839.21 1710.87M1137.57 -172.707C1147.72 -169.273 1157.96 -165.52 1168.26 -162.809C1180.09 -159.484 1192.07 -156.881 1203.81 -153.874C1229.39 -147.735 1254.53 -139.426 1277.03 -120.499C1287.63 -111.69 1296.69 -101.175 1303.83 -89.3865C1310.29 -78.6308 1315.53 -67.1932 1319.47 -55.2828C1324.16 -41.6096 1327.59 -27.5355 1329.71 -13.2372C1331.14 -4.0488 1333.3 5.2872 1334.83 14.7946C1336.62 28.4786 1339.55 41.9884 1343.6 55.1823C1349.65 77.0014 1361.57 96.7478 1378.04 112.282C1395.29 128.174 1414.69 138.021 1434.61 146.017C1438.48 147.714 1442.56 147.646 1445.68 151.599M754.13 -69.9658C753.469 -68.619 752.93 -67.2155 752.519 -65.7727C747.314 -41.8125 742.195 -17.5338 736.99 6.42635C733.408 25.8869 731.489 45.6172 731.253 65.4033C730.844 79.189 730.521 93.294 729.474 107.251C728.427 121.207 724.401 134.252 716.073 144.006C712.985 147.878 709.123 151.063 704.734 153.358C700.344 155.653 695.524 157.006 690.582 157.332C682.209 158.338 673.72 157.07 666.007 153.66C660.793 151.428 656.099 148.137 652.224 143.996C648.348 139.856 645.375 134.956 643.492 129.606C639.567 120.059 639.321 110.209 638.352 100.212C637.188 88.2151 637.068 76.2803 635.905 64.2834C634.639 52.7475 632.056 41.3945 628.206 30.4466C621.447 12.6655 612.241 -4.08531 600.852 -19.3216C598.721 -22.1697 596.038 -24.5279 593.993 -27.057M1180.63 -184.246C1185.61 -183.529 1190.59 -182.812 1195.89 -182.18C1207.7 -180.215 1219.51 -178.251 1231.08 -175.882C1254.29 -171.682 1276.04 -161.667 1294.32 -146.774C1312.61 -131.881 1326.81 -112.597 1335.62 -90.7226C1341.5 -77.0214 1346.01 -62.7668 1349.07 -48.1706C1351.76 -35.5586 1353.42 -23.0093 1355.39 -10.5454C1357.06 -1.76147 1358.41 7.10825 1360.08 15.8922C1361.24 22.7621 1362.31 29.3129 1364.1 36.0118C1365.2 40.5157 1366.61 44.9357 1368.33 49.2387C1371.87 58.7313 1376.37 67.8361 1381.77 76.4101C1388.24 86.0432 1396.29 94.5199 1405.58 101.485C1414.48 108.231 1424.05 114.03 1434.15 118.788C1435.35 119.539 1436.48 120.376 1437.56 121.294M1545 1789.36C1549.44 1772.36 1557.12 1756.37 1567.6 1742.28C1577.94 1728 1590.52 1715.51 1604.87 1705.28C1617.17 1695.77 1630.46 1687.63 1644.52 1680.98C1654.21 1676.33 1664.23 1671.6 1674.01 1667.27C1680.13 1664.6 1686.42 1662.57 1692.63 1660.22C1698.5 1657.97 1704.49 1656.02 1710.56 1654.39C1726.13 1651.25 1741.95 1649.06 1758.21 1653.59C1770.17 1657 1781.01 1663.54 1789.61 1672.53C1802.07 1684.58 1810.66 1700.05 1818.38 1716.11M1245.39 -201.598C1249.09 -201.402 1252.77 -200.901 1256.39 -200.101C1275.22 -194.89 1293.93 -187.594 1310.9 -174.02C1329.82 -158.68 1344.72 -138.971 1354.33 -116.592C1359.55 -104.758 1363.86 -92.5369 1367.2 -80.0383C1369.61 -69.7449 1371.71 -59.3659 1373.09 -49.1351L1379.92 -4.46875C1381.85 9.52843 1385.08 23.3131 1389.59 36.7044C1394.84 53.6691 1404.82 68.7849 1418.36 80.2805C1421.94 83.4247 1425.6 86.888 1429.58 90.2657M708.067 354.021C713.917 354.163 719.767 354.305 725.384 354.851C731.607 355.151 737.616 357.218 742.708 360.809C745.482 362.754 747.794 365.286 749.482 368.225C750.327 370.257 750.569 372.489 750.179 374.655C749.789 376.821 748.784 378.829 747.284 380.439C744.944 383.374 741.934 385.705 738.506 387.235C725.518 393.406 710.619 394.204 697.047 389.455C692.228 387.897 688.045 384.82 685.123 380.683C683.87 378.558 683.22 376.132 683.243 373.665C683.311 370.69 684.211 367.793 685.839 365.303C687.468 362.812 689.76 360.827 692.458 359.571C697.391 357.565 702.814 356.112 707.833 354.426M960.729 -113.025C970.197 -112.143 977.609 -104.897 984.787 -97.2474C997.286 -83.8259 1007.79 -68.6785 1015.99 -52.2698C1019.78 -45.5898 1022.22 -38.2261 1023.16 -30.6011C1023.88 -25.4941 1022.98 -20.2903 1020.58 -15.7228C1018.19 -11.1553 1014.42 -7.45464 1009.81 -5.14241C998.69 -0.095666 986.026 0.348071 974.581 -3.90862C968.035 -6.1274 962.106 -9.8607 957.276 -14.8049C952.445 -19.749 948.851 -25.7643 946.786 -32.3605C942.317 -43.6773 940.151 -55.7718 940.414 -67.936C940.677 -80.1003 943.364 -92.0901 948.317 -103.203C949.211 -105.72 950.799 -107.932 952.898 -109.584C954.997 -111.236 957.521 -112.258 960.177 -112.534M1515.88 1396.12C1518.92 1395.99 1522.28 1395.77 1525.33 1395.64C1533.81 1395.42 1542.28 1393.83 1551.11 1394.88C1562.24 1396.03 1573.28 1397.98 1584.13 1400.74C1597.92 1404.46 1610.66 1411.35 1621.32 1420.86C1633.1 1430.94 1641.21 1444.64 1644.41 1459.81C1647.05 1472.06 1646.82 1484.76 1643.75 1496.91C1638.71 1516.09 1628.47 1533.51 1614.15 1547.23C1602.1 1558.98 1588.15 1568.61 1572.9 1575.72C1563.75 1579.88 1554.44 1583.41 1545.13 1586.93C1540.65 1588.82 1536.05 1590.4 1531.35 1591.64C1521.61 1593.57 1511.78 1595.18 1501.95 1596.79C1487.38 1598.92 1472.56 1598.74 1458.04 1596.24C1442.87 1593.79 1428.67 1587.18 1417.03 1577.15C1411.1 1571.99 1406.32 1565.65 1403 1558.53C1399.68 1551.41 1397.89 1543.67 1397.75 1535.81C1397.32 1521.3 1399.72 1506.84 1404.8 1493.24C1411.91 1471.91 1423.77 1452.48 1439.49 1436.42C1449.72 1425.79 1461.71 1417.02 1474.95 1410.5C1488.13 1403.55 1502.02 1400.52 1516.05 1396.76M1184.11 531.791C1194.96 534.011 1197.56 541.178 1198.7 551.813C1200.7 570.765 1199.58 589.529 1199.49 608.356C1199.41 627.183 1199.79 645.202 1200.03 663.943C1200.57 686.365 1201.74 708.616 1201.64 731.208C1201.72 745.546 1198.42 758.74 1189.2 767.707C1183.61 773.198 1176.18 776.408 1168.36 776.709C1162.79 777.244 1157.19 777.258 1151.62 776.75C1135.62 775.425 1120.13 770.452 1106.35 762.211C1098.18 757.431 1091.03 751.102 1085.29 743.58C1076.69 731.866 1072.48 717.505 1073.39 703.004C1074.26 688.601 1077.51 674.442 1083.02 661.105C1095.85 628.605 1114.22 601.46 1134.38 575.886C1144.59 562.294 1156.47 550.037 1169.73 539.402C1173.75 536.023 1178.47 533.59 1183.55 532.28M1517.32 1424.45C1521.31 1424.06 1524.99 1423.76 1528.99 1423.37C1538.6 1422.2 1548.34 1422.72 1557.78 1424.89C1569.66 1427.29 1580.79 1432.52 1590.24 1440.12C1599.23 1447.36 1605.8 1457.17 1609.06 1468.25C1612.02 1478.64 1612.01 1489.66 1609.03 1500.05C1604.47 1515.64 1595.12 1529.39 1582.29 1539.35C1573.4 1546.79 1563.28 1552.63 1552.38 1556.6C1544.19 1559.54 1535.83 1562 1527.35 1563.99C1512.98 1567.1 1498.06 1566.64 1483.91 1562.64C1469.96 1559.14 1457.91 1550.35 1450.33 1538.13C1444.53 1528.58 1441.9 1517.43 1442.83 1506.29C1444.24 1484.29 1454.19 1463.72 1470.54 1448.95C1478.33 1441.51 1487.37 1435.5 1497.24 1431.19C1503.68 1428.44 1510.47 1426.97 1517.32 1424.45ZM1526.72 1450.64C1530.38 1450.48 1534.05 1450.53 1537.7 1450.78C1548.58 1451.04 1558.98 1455.31 1566.9 1462.78C1571.92 1467.41 1575.45 1473.42 1577.04 1480.05C1578.64 1486.68 1578.23 1493.64 1575.86 1500.04C1571.78 1511.76 1563.37 1521.47 1552.36 1527.19C1546.84 1530.59 1540.83 1533.12 1534.55 1534.7C1521.93 1537.4 1509.04 1537.78 1495.78 1530.39C1491.58 1528.17 1487.9 1525.08 1485 1521.31C1482.11 1517.54 1480.05 1513.19 1478.99 1508.56C1477.38 1502.19 1477.6 1495.49 1479.63 1489.24C1485.2 1473.05 1495.19 1461.83 1509.12 1456.38C1514.69 1454.21 1520.75 1452.58 1526.72 1450.64Z" stroke="#DFE4E8" stroke-linecap="round" stroke-linejoin="round"/>
</svg>
