<svg width="767" height="524" viewBox="0 0 767 524" fill="none" xmlns="http://www.w3.org/2000/svg">
<g filter="url(#filter0_f_931_2681)">
<path d="M357.328 103.017C371.677 94.7326 394.941 94.7326 409.29 103.017L740.242 294.092C754.59 302.376 754.59 315.808 740.242 324.092L409.29 515.167C394.941 523.451 371.677 523.451 357.328 515.167L26.3766 324.092C12.0278 315.808 12.0278 302.376 26.3766 294.092L357.328 103.017Z" fill="url(#paint0_radial_931_2681)"/>
</g>
<rect width="442.15" height="442.15" rx="30" transform="matrix(0.866025 0.5 -0.866025 0.5 383.417 69.4309)" fill="url(#paint1_linear_931_2681)"/>
<path d="M15.615 277.195C15.6473 281.978 15.7225 290.463 15.7225 290.463L25.8848 293.041L27.63 279.225L15.615 277.195Z" fill="#B3ADF9"/>
<path d="M751.22 277.195C751.188 281.978 751.113 290.463 751.113 290.463L740.95 293.041L739.205 279.225L751.22 277.195Z" fill="#5B52BB"/>
<rect width="442.295" height="442.295" rx="30" transform="matrix(0.866025 0.5 -0.866025 0.5 383.417 55.728)" fill="url(#paint2_linear_931_2681)"/>
<path d="M412.465 205.661L350.66 165.524L381.648 159.608L446.907 179.748L412.465 205.661Z" fill="url(#paint3_linear_931_2681)"/>
<path d="M343.314 157.532C347.184 166.703 359.23 169.416 364.769 169.626C369.986 169.626 378.302 165.98 381.807 164.157C382.579 163.316 384.836 159.698 387.697 151.957C390.558 144.216 387.276 136.882 385.278 134.183L370.869 119.879C370.729 119.599 370.007 118.744 368.24 117.566C366.473 116.388 363.718 116.304 362.561 116.409L347.521 122.614C345.698 126.19 341.968 134.456 341.631 138.916C341.295 143.375 342.613 153.184 343.314 157.532Z" fill="#D9D9D9"/>
<path d="M349.084 136.257C346.284 134.538 345.675 128.852 345.736 126.362C344.72 128.604 344.176 129.898 343.318 132.259C342.448 134.732 342.064 136.105 341.673 138.52C343.666 134.427 347.76 135.674 349.084 136.257Z" fill="#B2B2B2"/>
<path d="M370.504 161.637C369.97 164.069 367.177 168.035 365.941 169.543C370.756 169.327 379.551 165.197 379.551 165.197C379.551 165.197 381.278 164.561 381.816 164.147C381.842 164.169 382.845 162.844 383.015 162.351C384.608 159.465 387.418 154.048 388.455 149.239C389.804 142.978 387.133 136.626 385.284 134.211C384.809 136.584 378.117 140.799 374.805 142.652L366.87 144.507C368.279 145.322 369.317 149.549 369.985 151.922C370.652 154.295 371.171 158.596 370.504 161.637Z" fill="#A3A3A3"/>
<path d="M370.865 119.887C371.046 120.182 380.619 129.581 385.354 134.264C383.595 138.099 377.591 141.464 374.81 142.667L366.828 144.526C362.233 142.471 352.568 137.698 349.918 136.682C345.699 135.065 345.723 127.603 345.72 126.4C345.72 126.384 346.555 124.415 347.253 122.974C347.36 122.753 347.544 122.584 347.771 122.493C352.449 120.616 362.021 116.642 362.021 116.642C362.021 116.642 362.54 116.211 365.151 116.513C367.762 116.814 370.38 119.096 370.865 119.887Z" fill="#C7C7C7"/>
<mask id="mask0_931_2681" style="mask-type:alpha" maskUnits="userSpaceOnUse" x="15" y="64" width="737" height="426">
<rect width="442.295" height="442.295" rx="30" transform="matrix(0.866025 0.5 -0.866025 0.5 383.417 55.728)" fill="#1B127D"/>
</mask>
<g mask="url(#mask0_931_2681)">
<g opacity="0.2">
<path d="M55.2857 305.198L471.773 68.2509C488.139 59.0128 47.1989 309.817 55.2857 305.198Z" stroke="white" stroke-width="1.5" stroke-linecap="round" stroke-dasharray="2 7"/>
<path d="M119.815 343.747L536.303 106.8C552.669 97.5621 111.728 348.367 119.815 343.747Z" stroke="white" stroke-width="1.5" stroke-linecap="round" stroke-dasharray="2 7"/>
<path d="M538.833 425.347L122.724 190.144C101.944 178.418 549.101 431.21 538.833 425.347Z" stroke="white" stroke-width="1.5" stroke-linecap="round" stroke-dasharray="2 7"/>
<path d="M472.547 463.471L56.4378 228.267C35.658 216.542 482.814 469.334 472.547 463.471Z" stroke="white" stroke-width="1.5" stroke-linecap="round" stroke-dasharray="2 7"/>
<path d="M598.672 374.518L197.559 147.673C176.779 135.948 598.672 374.518 598.672 374.518Z" stroke="white" stroke-width="1.5" stroke-linecap="round" stroke-dasharray="2 7"/>
<path d="M751.064 305.161L334.955 69.9573C314.176 58.2319 761.332 311.024 751.064 305.161Z" stroke="white" stroke-width="1.5" stroke-linecap="round" stroke-dasharray="2 7"/>
<path d="M679.91 345.622L266.062 109.438C245.282 97.7127 690.178 351.484 679.91 345.622Z" stroke="white" stroke-width="1.5" stroke-linecap="round" stroke-dasharray="2 7"/>
<path d="M188.247 382.165L604.299 144.569C620.665 135.331 180.161 386.784 188.247 382.165Z" stroke="white" stroke-width="1.5" stroke-linecap="round" stroke-dasharray="2 7"/>
<path d="M258.017 421.628L674.069 184.032C690.435 174.794 249.93 426.247 258.017 421.628Z" stroke="white" stroke-width="1.5" stroke-linecap="round" stroke-dasharray="2 7"/>
<path d="M321.698 458.339L737.75 220.743C754.116 211.505 313.611 462.958 321.698 458.339Z" stroke="white" stroke-width="1.5" stroke-linecap="round" stroke-dasharray="2 7"/>
<path d="M617.357 212.264L622.914 215.47L611.614 222.081L622.914 228.473L618.121 231.617L605.811 225.329L594.501 231.597L589.07 228.473L600.009 222.082L590.291 216.643L595.405 213.817L605.811 218.834L617.357 212.264Z" fill="#979797"/>
<path d="M398.547 412.403L401.658 414.197L395.333 417.898L401.658 421.476L398.975 423.235L392.085 419.716L385.754 423.224L382.715 421.476L388.838 417.899L383.398 414.854L386.261 413.272L392.085 416.08L398.547 412.403Z" fill="white"/>
<path d="M465.57 374.22L468.68 376.014L462.356 379.714L468.68 383.292L465.998 385.052L459.108 381.532L452.777 385.041L449.737 383.292L455.86 379.715L450.421 376.67L453.283 375.089L459.108 377.897L465.57 374.22Z" fill="white"/>
<path d="M539.995 331.74L543.105 333.534L536.781 337.234L543.105 340.812L540.422 342.572L533.532 339.053L527.202 342.561L524.162 340.812L530.285 337.235L524.846 334.191L527.708 332.609L533.532 335.417L539.995 331.74Z" fill="white"/>
<path d="M605.294 293.636L608.405 295.43L602.08 299.131L608.405 302.709L605.722 304.468L598.832 300.949L592.501 304.457L589.462 302.709L595.585 299.131L590.145 296.087L593.008 294.505L598.832 297.313L605.294 293.636Z" fill="white"/>
<path d="M676.17 253.228L679.281 255.022L672.956 258.723L679.281 262.301L676.598 264.06L669.708 260.541L663.377 264.049L660.338 262.301L666.461 258.723L661.021 255.679L663.884 254.097L669.708 256.905L676.17 253.228Z" fill="white"/>
<path d="M542.239 177.794L545.349 179.588L539.025 183.289L545.349 186.867L542.667 188.626L535.777 185.107L529.446 188.615L526.406 186.867L532.529 183.289L527.09 180.245L529.952 178.663L535.777 181.471L542.239 177.794Z" fill="white"/>
<path d="M474.42 139.468L477.53 141.262L471.206 144.963L477.53 148.54L474.848 150.3L467.958 146.781L461.627 150.289L458.587 148.54L464.71 144.963L459.271 141.919L462.133 140.337L467.958 143.145L474.42 139.468Z" fill="white"/>
<path d="M401.161 337.997L404.271 339.791L397.947 343.492L404.271 347.07L401.588 348.829L394.698 345.31L388.368 348.818L385.328 347.07L391.451 343.492L386.012 340.448L388.874 338.866L394.698 341.674L401.161 337.997Z" fill="white"/>
<path d="M331.042 298.26L334.153 300.054L327.828 303.755L334.153 307.332L331.47 309.092L324.58 305.573L318.249 309.081L315.21 307.332L321.333 303.755L315.893 300.711L318.756 299.129L324.58 301.937L331.042 298.26Z" fill="white"/>
<path d="M262.888 260.138L265.999 261.932L259.674 265.633L265.999 269.21L263.316 270.97L256.426 267.451L250.095 270.959L247.055 269.21L253.178 265.633L247.739 262.589L250.602 261.007L256.426 263.815L262.888 260.138Z" fill="white"/>
<path d="M338.752 141.826L341.863 143.62L335.538 147.321L341.863 150.899L339.18 152.659L332.29 149.139L325.959 152.647L322.92 150.899L329.043 147.322L323.603 144.277L326.466 142.696L332.29 145.504L338.752 141.826Z" fill="white"/>
<path d="M408.722 102.167L411.833 103.961L405.508 107.662L411.833 111.239L409.15 112.999L402.26 109.48L395.929 112.988L392.89 111.239L399.013 107.662L393.573 104.618L396.436 103.036L402.26 105.844L408.722 102.167Z" fill="white"/>
<path d="M405.931 255.919L409.042 257.713L402.717 261.413L409.042 264.991L406.359 266.751L399.469 263.232L393.138 266.74L390.098 264.991L396.221 261.414L390.782 258.37L393.645 256.788L399.469 259.596L405.931 255.919Z" fill="white"/>
<path d="M337.657 217.631L340.767 219.425L334.443 223.126L340.767 226.703L338.085 228.463L331.195 224.944L324.864 228.452L321.824 226.703L327.947 223.126L322.508 220.082L325.37 218.5L331.195 221.308L337.657 217.631Z" fill="white"/>
<path d="M404.988 179.245L408.098 181.039L401.774 184.74L408.098 188.318L405.416 190.077L398.526 186.558L392.195 190.066L389.155 188.318L395.278 184.74L389.839 181.696L392.701 180.114L398.526 182.922L404.988 179.245Z" fill="white"/>
<path d="M472.36 218.317L475.47 220.111L469.146 223.812L475.47 227.39L472.787 229.149L465.897 225.63L459.567 229.138L456.527 227.39L462.65 223.812L457.211 220.768L460.073 219.186L465.897 221.994L472.36 218.317Z" fill="white"/>
<path d="M334.777 375.942L337.887 377.736L331.563 381.437L337.887 385.015L335.205 386.774L328.315 383.255L321.984 386.763L318.944 385.015L325.067 381.437L319.628 378.393L322.49 376.811L328.315 379.619L334.777 375.942Z" fill="white"/>
<path d="M264.657 336.682L267.768 338.476L261.443 342.176L267.768 345.754L265.085 347.514L258.195 343.994L251.864 347.503L248.825 345.754L254.948 342.177L249.508 339.133L252.371 337.551L258.195 340.359L264.657 336.682Z" fill="white"/>
<path d="M196.679 297.803L199.789 299.597L193.465 303.298L199.789 306.876L197.107 308.635L190.217 305.116L183.886 308.624L180.846 306.876L186.969 303.298L181.53 300.254L184.392 298.672L190.217 301.48L196.679 297.803Z" fill="white"/>
<path d="M130.292 260.522L133.402 262.316L127.077 266.017L133.402 269.595L130.719 271.354L123.829 267.835L117.498 271.343L114.459 269.595L120.582 266.017L115.143 262.973L118.005 261.391L123.829 264.199L130.292 260.522Z" fill="white"/>
<path d="M481.088 290.738L486.645 293.943L475.346 300.555L486.645 306.947L481.852 310.091L469.543 303.803L458.232 310.071L452.801 306.947L463.74 300.556L454.023 295.117L459.137 292.291L469.543 297.308L481.088 290.738Z" fill="#979797"/>
</g>
</g>
<ellipse cx="474.726" cy="350.512" rx="22.0427" ry="13.4343" fill="#8A8A8A"/>
<ellipse cx="474.726" cy="348.451" rx="22.0427" ry="13.4343" fill="#373737"/>
<mask id="mask1_931_2681" style="mask-type:alpha" maskUnits="userSpaceOnUse" x="484" y="21" width="14" height="44">
<path opacity="0.2" d="M497.235 54.4285C497.235 54.4285 491.688 58.3113 492.797 64.4126C490.949 62.3788 486.395 56.8805 485.033 45.5536C483.366 31.6868 490.58 21.1479 490.58 21.1479C490.58 30.5774 497.235 30.5774 497.235 30.5774V54.4285Z" fill="#2637EF"/>
</mask>
<g mask="url(#mask1_931_2681)">
<path d="M507.472 42.7102C507.238 46.6077 508.855 54.8517 507.231 57.5619C505.154 61.0292 499.497 58.4411 496.346 58.2818C490.734 57.9979 486.616 50.5661 487.147 41.6823C487.679 32.7986 492.66 25.827 498.273 26.1108C500.919 26.2446 508.184 26.2976 509.835 29.0124C511.686 32.0556 507.753 38.015 507.472 42.7102Z" fill="url(#paint4_linear_931_2681)"/>
<ellipse cx="10.1751" cy="16.4861" rx="10.1751" ry="16.4861" transform="matrix(0.998724 0.0505085 -0.0597614 0.998213 494.918 25.9869)" fill="#DFE4E8"/>
</g>
<path d="M354.373 408.731L307.382 380.856L337.857 370.825L381.431 393.726L354.373 408.731Z" fill="url(#paint5_linear_931_2681)"/>
<path d="M441.767 420.968L343.608 359.258L374.084 349.227L471.575 403.693L441.767 420.968Z" fill="url(#paint6_linear_931_2681)"/>
<path d="M498.557 404.867L378.469 336.197L408.745 326.388L531.866 392.177L498.557 404.867Z" fill="url(#paint7_linear_931_2681)"/>
<path d="M555.238 384.725L414.955 313.727L445.231 303.918L581.997 367.45L555.238 384.725Z" fill="url(#paint8_linear_931_2681)"/>
<path d="M406.502 198.611C405.181 197.847 405.169 195.944 406.479 195.163L426.97 182.94C428.531 182.008 430.475 181.998 432.046 182.912L451.693 194.344C452.988 195.097 453.025 196.955 451.761 197.76L429.5 211.926L406.502 198.611Z" fill="#ED27B7"/>
<path d="M429.467 316.899C429.467 319.209 426.966 320.653 424.966 319.497L405.811 308.426L405.388 196.944L429.467 210.884L429.467 316.899Z" fill="#FFDFF6"/>
<path d="M429.467 210.896V316.882C429.467 319.196 431.975 320.639 433.975 319.475L450.215 310.027C451.754 309.132 452.7 307.486 452.7 305.705V196.111L429.467 210.896Z" fill="#F4BAE4"/>
<path d="M391.553 338.531C391.553 340.841 389.052 342.284 387.052 341.128L367.897 330.058L367.474 238.526L391.553 252.466V338.531Z" fill="#FFDFF6"/>
<path d="M391.553 252.409L391.553 338.513C391.553 340.827 394.062 342.27 396.062 341.106L412.302 331.658C413.841 330.763 414.788 329.116 414.788 327.336V237.624L391.553 252.409Z" fill="#F4BAE4"/>
<path d="M354.217 360.116C354.217 362.426 351.715 363.869 349.715 362.713L330.56 351.642L330.138 280.152L354.217 294.092L354.217 360.116Z" fill="#FFDFF6"/>
<path d="M316.304 372.474V380.775C316.304 383.089 318.813 384.532 320.813 383.368L337.052 373.92C338.591 373.024 339.537 371.378 339.537 369.598V349.796C339.537 347.829 336.997 347.043 335.886 348.667L328.522 359.437L324.107 372.397L316.304 372.474Z" fill="#F4BAE4"/>
<path d="M292.381 359.926C292.338 357.892 295.006 357.099 296.08 358.827L302.369 368.947L316.304 374.135V380.792C316.304 383.102 313.802 384.546 311.802 383.39L295.084 373.728C293.571 372.853 292.624 371.253 292.587 369.506L292.381 359.926Z" fill="#FFDFF6"/>
<path d="M292.991 359.856C292.584 359.454 292.597 358.794 293.018 358.408L314.156 339.03C315.699 337.615 317.961 337.312 319.822 338.27L337.894 347.569C339.136 348.208 339.357 349.892 338.321 350.83L328.514 359.71L324.125 372.401L317.018 373.803C316.302 373.944 315.561 373.886 314.875 373.637L302.293 369.052L292.991 359.856Z" fill="#ED27B7"/>
<path d="M315.42 373.931L302.324 369.048L306.905 359.368L309.181 357.22C309.408 357.006 309.722 356.91 310.03 356.96L314.15 357.637C314.514 357.697 314.881 357.552 315.105 357.259L318.155 353.282L328.529 359.7L324.092 372.414L317.152 374.041C316.577 374.176 315.974 374.137 315.42 373.931Z" fill="#AF1A86"/>
<path d="M312.554 340.453L318.153 353.282L332.377 344.641L319.224 337.933C317.758 337.186 315.984 337.412 314.753 338.503L312.554 340.453Z" fill="#FFE9F9"/>
<path d="M354.216 294.021L354.216 360.098C354.216 362.412 356.725 363.855 358.725 362.691L374.964 353.242C376.503 352.347 377.45 350.701 377.45 348.921V279.236L354.216 294.021Z" fill="#F4BAE4"/>
<path d="M368.723 240.222C367.403 239.457 367.39 237.555 368.701 236.773L389.054 224.633C390.615 223.701 392.559 223.691 394.13 224.605L413.645 235.959C414.94 236.713 414.977 238.571 413.712 239.375L391.584 253.457L368.723 240.222Z" fill="#ED27B7"/>
<path d="M331.245 281.765C329.925 281 329.912 279.098 331.223 278.316L351.684 266.111C353.245 265.18 355.189 265.169 356.76 266.083L376.378 277.498C377.673 278.252 377.71 280.11 376.446 280.914L356.263 293.758C355.004 294.559 353.403 294.593 352.112 293.845L331.245 281.765Z" fill="#ED27B7"/>
<ellipse cx="334.261" cy="368.66" rx="2.64853" ry="3.12155" fill="#1B127D"/>
<path fill-rule="evenodd" clip-rule="evenodd" d="M422.498 344.993C441.747 334.089 460.037 339.57 466.586 343.517L468.731 339.96C461.188 335.414 441.276 329.582 420.451 341.379C410.788 346.853 367.783 367.368 357.884 368.041C348.141 368.704 339.619 367.751 334.777 366.704C334.614 366.646 334.441 366.615 334.261 366.615C333.275 366.615 332.476 367.557 332.476 368.719C332.476 369.627 332.964 370.401 333.648 370.696L333.645 370.708C333.669 370.713 333.693 370.719 333.717 370.724C333.859 370.778 334.01 370.811 334.166 370.821C339.428 371.927 348.211 372.863 358.165 372.185C368.456 371.485 412.124 350.87 422.498 344.993Z" fill="#667D8E"/>
<path fill-rule="evenodd" clip-rule="evenodd" d="M458.133 337.168C443.565 334.021 430.251 337.957 425.489 340.277C415.673 345.123 392.162 356.965 376.597 363.738C368.769 367.144 365.535 368.232 359.945 369.558C356.659 370.152 353.89 370.179 352.755 369.352C351.62 368.525 350.102 368.487 349.484 368.249C350.708 368.294 354.758 368.415 359.188 367.89C363.529 367.086 367.972 365.419 375.782 362.3C391.301 355.547 414.795 344.176 424.606 339.332L424.611 339.33C430.824 336.29 443 332.314 458.459 335.943C459.595 336.189 462.02 336.898 464.036 337.709C465.052 338.117 466.08 338.565 466.856 338.963C467.242 339.161 467.304 339.707 467.59 339.9C467.832 340.063 468.254 340.469 468.449 340.81L467.189 341.231C467.532 340.975 466.924 341.095 466.76 341.211C466.567 341.081 466.322 340.469 465.971 340.289C465.326 339.735 464.669 339.36 463.681 338.963C461.688 338.162 459.097 337.376 458.133 337.168Z" fill="#91A2AF"/>
<rect x="466.68" y="225.132" width="16.1682" height="115.875" fill="#A00D78"/>
<mask id="mask2_931_2681" style="mask-type:alpha" maskUnits="userSpaceOnUse" x="466" y="225" width="17" height="117">
<rect x="466.68" y="225.132" width="16.1682" height="115.875" fill="#A00D78"/>
</mask>
<g mask="url(#mask2_931_2681)">
<rect x="478.775" y="225.825" width="8.06832" height="117.75" fill="#CD94BD"/>
</g>
<path fill-rule="evenodd" clip-rule="evenodd" d="M482.848 218.75H466.664V228.249H466.682C466.788 230.604 470.366 232.496 474.764 232.496C479.162 232.496 482.74 230.604 482.846 228.249H482.848V218.75Z" fill="#696969"/>
<ellipse cx="474.725" cy="218.511" rx="8.12199" ry="4.37575" fill="#2D2D2D"/>
<path fill-rule="evenodd" clip-rule="evenodd" d="M478.724 180.213H470.713V217.807C470.713 217.813 470.713 217.819 470.713 217.825C470.713 218.902 472.509 219.776 474.725 219.776C476.941 219.776 478.738 218.902 478.738 217.825C478.738 217.771 478.733 217.717 478.724 217.663V180.213Z" fill="#9DBCEE"/>
<mask id="mask3_931_2681" style="mask-type:alpha" maskUnits="userSpaceOnUse" x="470" y="180" width="9" height="40">
<path fill-rule="evenodd" clip-rule="evenodd" d="M478.724 180.213H470.713V217.807C470.713 217.813 470.713 217.819 470.713 217.825C470.713 218.902 472.509 219.776 474.725 219.776C476.941 219.776 478.738 218.902 478.738 217.825C478.738 217.771 478.733 217.717 478.724 217.663V180.213Z" fill="white"/>
</mask>
<g mask="url(#mask3_931_2681)">
<rect x="476.279" y="179.163" width="4.09555" height="41.5463" fill="#C3DAF8"/>
</g>
<path fill-rule="evenodd" clip-rule="evenodd" d="M465.847 177.264C463.605 175.81 463.313 172.141 465.211 168.993C467.074 165.904 470.365 164.448 472.692 165.627L472.72 165.579L485.494 173.092L478.61 184.797L465.836 177.284L465.847 177.264Z" fill="#303442"/>
<ellipse cx="481.866" cy="178.854" rx="4.93697" ry="6.75593" transform="rotate(31.0961 481.866 178.854)" fill="#667D8E"/>
<path fill-rule="evenodd" clip-rule="evenodd" d="M480.572 183.26C480.453 183.212 480.337 183.154 480.225 183.087C478.699 182.167 478.483 179.729 479.742 177.641C480.93 175.672 483.006 174.718 484.518 175.388L484.53 175.368L506.841 188.49L502.376 196.083L480.572 183.26Z" fill="#303442"/>
<path fill-rule="evenodd" clip-rule="evenodd" d="M454.394 167.792L470.444 177.232L474.91 169.639L459.084 160.331C459.014 160.278 458.941 160.228 458.864 160.182C458.772 160.126 458.678 160.077 458.581 160.035L458.528 160.004L458.524 160.011C457.019 159.404 454.991 160.358 453.822 162.295C452.63 164.272 452.76 166.562 454.072 167.581L454.062 167.597L454.263 167.715C454.277 167.724 454.291 167.733 454.305 167.741C454.334 167.759 454.364 167.776 454.394 167.792Z" fill="#303442"/>
<ellipse cx="504.41" cy="192.216" rx="3.22567" ry="4.41412" transform="rotate(31.0961 504.41 192.216)" fill="#667D8E"/>
<path fill-rule="evenodd" clip-rule="evenodd" d="M482.847 336.639C482.847 339.056 479.211 341.015 474.725 341.015C470.577 341.015 467.155 339.339 466.664 337.175V345.6C466.624 345.776 466.604 345.955 466.604 346.137C466.604 348.553 470.24 350.512 474.726 350.512C479.211 350.512 482.847 348.553 482.847 346.137H482.848V336.639H482.847V336.639Z" fill="#696969"/>
<path d="M328.528 359.708L318.145 353.283L332.329 344.622L338.513 347.881C339.636 348.473 339.81 350.011 338.847 350.839L328.528 359.708Z" fill="#FFC6F0"/>
<path fill-rule="evenodd" clip-rule="evenodd" d="M503.721 162.365C501.755 164.225 497.254 169.065 494.97 173.546C492.114 179.149 490.723 191.983 490.183 202.771C490.064 205.16 489.876 208.233 489.668 211.626C488.937 223.563 487.964 239.469 488.88 243.5C489.948 248.203 490.977 249.895 492.394 252.226C492.537 252.461 492.684 252.703 492.835 252.955C494.156 255.154 513.134 288.226 522.458 304.488C522.678 305.553 523.693 307.978 525.994 309.151L530.537 311.467C532.857 311.037 537.485 310.002 541.11 308.702C539.958 313.051 538.002 318.7 534.951 322.629C534.778 322.851 534.607 323.072 534.437 323.29C529.08 330.185 525.322 335.02 528.873 337.42C531.21 341.096 536.284 339.163 536.284 339.163L552.585 324.432L559.859 317.738C559.859 317.738 569.734 310.362 568.375 307.383C567.466 305.39 560.624 299.539 556.192 295.881C556.549 295.13 556.787 294.169 556.75 292.972C556.716 291.909 556.755 291.041 556.79 290.281C556.881 288.268 556.938 287.013 555.52 284.906C554.938 284.042 553.522 280.539 551.627 275.85C547.154 264.785 540.013 247.12 534.875 241.956C529.022 236.073 528.478 233.799 528.937 233.397C529.604 228.969 531.186 217.757 532.171 208.34C532.726 203.032 534.602 194.904 536.371 187.237C538.525 177.905 540.521 169.255 539.786 167.205C539.545 166.534 539.332 165.785 539.107 164.993C538.078 161.374 536.792 156.85 531.445 154.751C524.929 152.193 515.188 153.713 511.294 156.115C508.178 158.037 504.947 161.083 503.721 162.365Z" fill="#667D8E"/>
<path d="M500.955 234.776C496.645 233.952 491.345 229.305 489.234 227.084L486.42 227.367C486.669 234.488 487.603 249.22 489.352 251.179C491.537 253.628 496.635 262.712 499.817 263.953C502.364 264.945 508.361 259.915 511.042 257.275C509.476 250.119 505.266 235.599 500.955 234.776Z" fill="#BFC9D1"/>
<path d="M492.679 80.539C493.568 74.76 500.458 68.8716 504.348 67.2046C506.384 66.3319 508.237 65.5376 511.016 65.5376C516.455 66.2169 519.652 65.9124 519.652 65.9124C519.652 65.9124 518.739 70.9369 521.574 70.5388C525.425 70.7013 534.537 66.1056 537.688 64.4263V63.3149C537.688 63.3149 547.134 64.982 547.134 67.7586C545.445 69.2907 526.692 78.3611 518.795 81.095C516.017 92.9493 509.682 119.436 508.793 123.881C507.904 128.327 502.496 133.883 499.902 136.106C493.605 141.663 478.793 155.879 477.015 157.657C474.792 159.88 474.237 160.435 472.014 160.435H468.68C467.568 159.88 464.79 158.546 462.567 157.657C460.345 156.768 458.307 152.841 457.566 150.989C457.196 150.248 456.455 148.322 456.455 146.544C456.455 144.765 458.307 142.469 459.233 141.542L481.01 118.325C484.529 108.137 491.79 86.318 492.679 80.539Z" fill="#BFC9D1"/>
<path d="M583.595 169.399C588.342 167.28 590.684 162.286 588.962 160.318C588.962 160.318 588.404 159.304 587.304 157.732L584.633 153.567L580.12 146.528L572.706 148.786L572.232 157.691L571.963 162.757L571.743 166.902C572.101 170.532 579.646 171.163 583.595 169.399Z" fill="#1C0D3F"/>
<path d="M587.304 157.732L580.12 146.528L572.706 148.786L571.963 162.757M587.304 157.732C588.404 159.304 588.962 160.318 588.962 160.318C590.684 162.286 588.342 167.28 583.595 169.399C579.646 171.163 572.101 170.532 571.743 166.902L571.963 162.757M587.304 157.732C587.117 160.194 584.045 163.28 581.244 164.133C578.279 165.036 572.88 164.499 571.963 162.757M584.633 153.567C584.446 156.029 582.465 158.091 579.663 158.944C576.698 159.847 573.15 159.433 572.232 157.691" stroke="#D5E1EB" stroke-width="2"/>
<path d="M581.047 90.8469C580.059 87.5336 579.299 82.4058 572.688 77.315C566.561 72.5966 559.042 70.5657 554.234 69.8178L544.822 73.4943L550.213 89.4568L557.92 156.811L568.052 157.339C571.437 155.529 579.052 151.49 582.429 149.813C585.807 148.137 586.509 142.132 586.437 139.339L581.047 90.8469Z" fill="#94A3C2" stroke="#94A3C2" stroke-width="2"/>
<path d="M562.77 88.1732L553.787 72.6017L554.898 69.3788C556.312 70.6157 561.132 78.2385 563.365 81.8952L565.765 87.1749C565.366 92.7647 564.807 105.062 565.765 109.534C566.723 114.006 566.164 141.875 565.765 155.251H562.77V88.1732Z" fill="#667D8E"/>
<path d="M521.479 81.765C521.516 81.5507 521.571 81.2292 521.608 81.0149C522.054 78.4431 521.586 76.0442 520.097 73.7998C518.483 71.6439 516.399 70.2896 513.825 69.844C511.252 69.3984 508.834 69.973 506.589 71.4605C504.325 73.0552 502.97 75.1384 502.525 77.7102C502.451 78.1389 502.377 78.5675 502.391 79.1219L502.177 79.0847L496.677 126.145L496.892 126.182C496.717 128.469 497.347 130.565 498.677 132.451C500.184 134.588 502.269 135.943 504.842 136.388C507.522 136.852 509.94 136.278 512.078 134.772C514.217 133.266 515.571 131.182 516.035 128.503C516.054 128.396 516.054 128.396 516.072 128.289C516.128 127.968 516.183 127.646 516.113 127.413L521.479 81.765Z" fill="#20CA8B"/>
<path d="M558.363 151.539C558.472 150.773 558.472 150.007 558.472 149.241C558.798 141.034 556.171 133.812 550.591 127.686C545.011 121.559 538.119 118.388 529.916 118.062C521.712 117.736 514.494 120.364 508.371 125.947C502.247 131.53 499.077 138.534 498.751 146.741C498.752 147.07 498.752 147.288 498.752 147.617C498.533 148.93 498.424 150.243 498.315 151.556C497.99 160.092 500.507 167.313 505.978 173.221C511.449 179.128 518.559 182.081 527.309 182.079C534.2 182.077 540.325 180.98 545.793 178.79C548.199 178.133 550.386 176.929 552.573 175.287C555.853 171.893 557.602 168.501 557.82 165.108C558.038 161.716 558.147 159.746 558.147 159.199C558.364 155.916 558.473 153.29 558.363 151.539Z" fill="#37474F"/>
<path d="M523.732 65.6535C523.658 64.4749 521.302 64.1802 516.737 64.8432C512.098 65.5799 508.417 68.0108 505.693 71.9886C502.968 75.9665 501.569 80.9757 501.643 86.9425C501.643 92.9093 500.538 115.451 498.33 154.714C506.429 160.902 517.841 164.216 532.494 164.585C538.458 164.732 543.98 164.364 549.208 163.332C554.141 162.448 557.749 161.196 559.957 159.649L560.767 110.22C560.767 106.611 561.062 101.454 561.651 94.6773C562.093 89.0788 562.019 85.3956 561.577 83.4803C559.295 76.9242 552.005 71.3993 539.562 66.9058C538.752 67.7161 537.869 68.3791 536.911 68.8211C533.23 70.5154 529.843 70.368 526.677 68.3791C523.953 66.9058 522.995 65.9482 523.732 65.6535Z" fill="#A3FFB0"/>
<path d="M498.555 124.743C492.554 121.388 484.363 119.045 481 118.323L478.103 121.407C481.997 120.275 493.204 123.123 498.555 124.743Z" fill="#254637"/>
<path d="M540.347 65.2766V65.2766C535.486 62.4436 529.593 61.9952 522.452 63.8178C520.911 64.3331 519.473 65.1785 518.353 66.4679C517.125 67.755 516.331 69.1604 515.863 70.6817C515.392 72.3124 514.902 74.9268 514.612 78.4201C514.465 80.276 514.322 81.9134 514.291 83.4436L518.52 79.7027L522.306 81.6389L527.564 81.0902L531.035 87.7221C537.666 84.1395 542.353 79.4237 544.989 73.4633C544.612 70.5031 543.785 68.1898 542.287 66.6284L540.347 65.2766Z" fill="url(#paint9_linear_931_2681)"/>
<path d="M494.46 80.4974C489.127 78.1268 502.226 68.8509 506.109 67.1869L506.109 67.1869C508.141 66.3158 509.991 65.5229 512.765 65.5229C518.194 66.201 521.385 65.897 521.385 65.897C521.385 65.897 520.474 70.9125 523.304 70.5151C527.148 70.6773 536.244 66.0898 539.389 64.4135V63.3042C539.389 63.3042 548.819 64.9682 548.819 67.7399C515.145 98.2744 516.284 90.1978 494.46 80.4974Z" fill="#BFC9D1"/>
<path d="M531.251 88.0539C537.882 84.4713 542.569 79.7556 545.204 73.7951C544.827 70.8349 544 68.5217 542.502 66.9602L540.346 65.4946V65.4946C535.485 62.6616 529.594 62.104 522.451 64.0358C520.91 64.5511 519.472 65.3966 518.352 66.6859C517.124 67.9731 516.33 69.3784 515.862 70.8998C515.391 72.5304 514.901 75.1448 514.611 78.6381C514.464 80.4941 514.321 82.1314 514.29 83.6617L518.519 79.9208L522.305 81.857L527.563 81.3082L531.251 88.0539Z" fill="black" fill-opacity="0.5176"/>
<path d="M522.147 73.4344C522.191 76.6065 522.245 79.3414 522.418 81.5319C535.223 75.3416 541.007 70.4296 539.765 67.0143C536.218 64.0988 531.099 63.2289 524.405 64.5138C522.929 67.2174 522.214 70.1553 522.147 73.4344Z" fill="#DDAD92"/>
<path d="M516.443 75.488C514.958 79.1586 516.689 81.3242 521.532 81.9928C529.92 82.6991 534.939 77.6032 536.582 66.6011C532.955 64.1649 527.627 63.9523 520.717 66.1632C519.453 68.6664 518.032 71.8093 516.443 75.488Z" fill="#FED8C3"/>
<path d="M538.8 23.8826C537.628 23.4439 536.382 23.4272 535.054 23.7286L524.984 26.6224L529.331 30.9013C529.24 32.5744 529.489 34.6404 529.959 36.8993C530.282 38.5435 531.356 40.5516 532.976 42.9382L535.252 45.7997L536.469 60.1946C537.783 59.6858 538.75 58.6804 539.275 57.2893C540.85 53.116 541.983 48.5571 542.475 43.7306C543.151 38.5786 543.428 35.1215 543.408 33.3519C543.477 29.9093 542.897 27.554 541.756 26.0714C541.063 25.0782 540.076 24.3141 538.8 23.8826Z" fill="#455A64"/>
<path d="M524.709 23.3618C528.101 26.1356 530.033 29.6302 530.531 34.0506C531.029 38.471 529.897 42.3826 527.137 45.7852C524.377 49.1879 520.795 51.1368 516.508 51.7205C512.104 52.2157 508.206 51.0764 504.813 48.3026C501.42 45.5288 499.475 41.9318 498.991 37.6138C498.507 33.2959 499.638 29.3843 502.384 25.8792C505.144 22.4765 508.624 20.5415 513.014 19.9439V19.9439C517.417 19.4488 521.316 20.5881 524.709 23.3618Z" fill="#455A64"/>
<path d="M501.177 45.3757L501.4 45.3537C501.645 51.6586 502.516 56.6964 504.02 60.5417C505.888 65.0293 508.672 67.3924 512.447 67.6237C514.551 67.6428 516.632 67.438 518.61 66.9421L518.982 72.2549C517.351 75.5046 517.065 77.9437 518.119 79.4976C519.083 80.9096 520.933 81.4057 523.684 81.1351C526.36 80.8718 529.037 79.855 531.64 78.092C534.608 76.2177 536.634 72.4018 537.644 66.6515L537.639 52.864C538.388 53.619 539.332 54.0536 540.387 54.1005C541.45 54.2219 542.32 53.9103 543.146 53.151C544.537 52.0346 545.572 50.3505 546.244 48.0241C546.893 45.4738 546.673 43.2351 545.523 41.4646C544.455 39.7614 543.111 39.0649 541.49 39.375C540.159 39.5813 539.163 40.1314 538.433 41.1073C538.031 41.599 537.599 42.5456 536.981 43.8873C536.325 44.856 535.849 45.3549 535.537 45.2349C535.151 45.1222 534.564 44.5018 533.771 43.299C532.977 42.0963 532.415 39.4391 532.071 35.1783C530.54 34.8769 529.129 34.2623 527.837 33.3346C526.3 32.205 525.179 30.733 524.408 29.0005C522.541 30.6158 519.039 31.6385 513.754 32.0831C507.733 32.6755 504.093 31.5268 502.535 28.6662C501.446 32.0885 500.884 35.5343 500.843 38.9289C500.93 40.5779 501.01 42.1523 501.157 43.6447C501.216 44.2417 501.2 44.846 501.177 45.3757Z" fill="#FED8C3"/>
<path d="M503.001 13.5834C503.498 13.4114 504.05 13.6494 504.978 14.358C507.169 15.9385 509.963 16.6019 513.244 16.2597C517.095 15.5266 519.953 15.1375 521.907 14.9759C524.575 14.717 527.109 14.9983 529.406 15.8337C532.14 16.8185 534.098 18.2218 535.324 20.3513C536.796 22.7603 536.754 24.7491 535.2 26.3175C533.516 27.695 531.674 28.6764 529.66 29.1593C521.967 31.4591 516.831 32.6803 514.265 32.9253C508.112 33.5542 503.341 32.1162 499.836 28.5226C498.634 27.3294 497.826 25.9781 497.399 24.3662C497.027 23.1643 497.05 21.8043 497.481 20.3887L497.569 20.2723C497.644 20.0535 497.834 19.9232 498.126 19.7791C498.344 19.8537 498.562 19.9284 498.678 20.017C500.043 20.875 501.263 21.4395 502.47 21.9014C501.955 20.406 501.745 18.8688 501.828 17.1875C501.842 14.9938 502.199 13.797 503.001 13.5834Z" fill="#263238"/>
<path d="M535.258 42.0702C536.757 42.388 537.337 42.8309 536.925 43.6177C536.099 45.1914 535.428 50.1885 534.938 58.814C534.883 60.7002 534.16 62.26 532.986 63.5679C531.446 65.2389 528.931 66.625 525.326 67.6377C521.619 68.6643 517.725 69.09 513.748 68.9007C510.078 68.6698 507.284 68.0064 505.571 66.8827C504.091 65.9361 503.065 64.5101 502.391 62.6186C502.048 61.6217 501.695 59.791 501.216 57.038C500.993 55.3983 500.676 52.3101 500.471 47.7456L500.13 41.425L501.323 44.0807C501.362 47.4155 501.692 50.6062 502.213 53.6666L502.254 53.9741C502.324 54.4864 502.672 54.7522 503.122 55.004C503.573 55.2559 503.995 55.3027 504.505 55.2333L506.097 54.7035C507.674 54.0712 508.872 53.6994 509.572 53.4997C510.885 53.2165 512.329 53.1244 513.902 53.2234C517.308 53.8034 519.651 54.215 521.136 54.4304C523.684 54.8142 525.842 54.6248 527.726 53.9508C529.405 53.3046 530.607 52.2017 531.418 50.5255C532.494 48.5003 532.92 45.5197 532.915 41.6586C533.759 41.7524 534.502 41.86 535.258 42.0702Z" fill="#455A64"/>
<path d="M496.125 93.8109C497.511 85.4945 499.823 76.9857 501.672 73.8426C505 72.1785 505.475 77.725 516.648 77.7251C530.515 77.7252 549.928 64.9675 554.921 71.0692L563.241 83.272V155.934C558.988 155.195 548.597 154.603 541.054 158.153C533.51 161.703 527.557 180.71 525.523 189.77C522.317 189.521 520.693 189.108 517.89 188.244C517.89 188.244 507.486 184.372 503.299 177.757C499.113 171.142 495.092 158.153 494.461 153.716C493.83 149.278 492.797 132.083 492.797 132.083C492.797 120.25 494.461 103.795 496.125 93.8109Z" fill="#BDD1E9"/>
<path d="M524.733 189.071C524.479 181.826 526.249 168.789 534.456 163.318C542.664 157.847 549.047 159.316 551.174 159.67" stroke="#253B46" stroke-width="7"/>
<path fill-rule="evenodd" clip-rule="evenodd" d="M583.262 339.057C579.21 337.285 582.341 331.555 586.562 323.41C590.783 315.264 590.287 302.039 590.287 302.039L598.314 290.912C598.314 290.912 614.798 299.682 616.674 302.366C618.55 305.05 610.173 314.091 610.173 314.091L604.231 321.992L590.865 339.429C590.865 339.429 586.226 342.249 583.262 339.057Z" fill="#A0AFBB"/>
<mask id="mask4_931_2681" style="mask-type:alpha" maskUnits="userSpaceOnUse" x="581" y="290" width="36" height="51">
<path fill-rule="evenodd" clip-rule="evenodd" d="M583.262 339.056C579.21 337.285 582.341 331.555 586.562 323.409C590.783 315.264 590.287 302.039 590.287 302.039L598.314 290.912C598.314 290.912 614.798 299.681 616.674 302.366C618.55 305.05 610.173 314.091 610.173 314.091L604.23 321.992L590.865 339.429C590.865 339.429 586.225 342.249 583.262 339.056Z" fill="#A0AFBB"/>
</mask>
<g mask="url(#mask4_931_2681)">
<path d="M596.812 315.208C600.209 310.615 603.688 297.444 605.003 291.433L594.262 296.829C593.244 300.183 590.071 306.421 589.315 308.434C588.558 310.448 584.824 319.422 582.577 323.17C582.379 325.022 582.59 328.673 585.012 328.463C588.04 328.2 592.564 320.95 596.812 315.208Z" fill="#617799"/>
</g>
<path d="M522.439 181.947C523.892 177.131 527.463 171.569 529.066 169.39C530.045 167.91 532.684 164.339 535.409 161.895C538.816 158.839 548.541 154.084 555.409 155.445C562.276 156.806 563.246 161.902 565.227 165.339C567.208 168.777 564.348 197.781 565.226 209.584C565.929 219.026 566.363 230.34 566.492 234.817C566.111 235.294 567.051 237.435 573.855 242.185C582.36 248.123 599.359 278.278 601.797 280.788C604.235 283.299 603.631 284.714 604.439 288.508C605.086 291.543 603.629 293.352 602.82 293.877C601.356 296.572 597.641 302.575 594.486 305.032C591.331 307.489 584.798 310.276 581.926 311.362L577.045 309.89C574.572 309.144 573.142 306.938 572.737 305.928C560.674 291.58 536.126 262.403 534.436 260.473C532.323 258.061 530.941 256.757 528.865 251.87C526.788 246.984 524.301 222.27 522.917 211.557C521.533 200.844 520.624 187.967 522.439 181.947Z" fill="#C4D8E8"/>
<path d="M539.38 242.079C534.991 242.034 528.951 238.402 526.479 236.591L523.76 237.369C525.269 244.332 528.804 258.664 530.872 260.282C533.458 262.304 540.087 270.339 543.44 270.995C546.121 271.52 551.131 265.504 553.3 262.431C550.489 255.666 543.768 242.125 539.38 242.079Z" fill="#A0B3D3"/>
<path d="M566.41 235.249C563.721 237.545 555.97 238.913 553.24 238.507L551.787 237.759C556.425 238.249 562.959 236.524 566.41 235.249Z" fill="#253B46"/>
<path d="M565.367 238.714C562.209 239.224 557.362 238.347 556.541 238.21L558.687 237.569C559.743 238.225 564.264 238.554 565.367 238.714Z" fill="#253B46"/>
<path d="M516.826 130.49C517.13 142.8 512.722 146.144 512.722 153.591C512.722 163.622 518.498 170.462 531.568 171.829C544.639 173.197 562.787 162.1 569.485 145.613" stroke="#E627B9" stroke-width="10"/>
<ellipse cx="569.399" cy="145.798" rx="5.40281" ry="3.12344" transform="rotate(20.6255 569.399 145.798)" fill="#E627B9"/>
<path fill-rule="evenodd" clip-rule="evenodd" d="M526.104 82.1944C548.773 82.1944 567.15 63.8175 567.15 41.1485C567.15 18.4794 548.773 0.102539 526.104 0.102539C510.835 0.102539 497.514 8.43932 490.443 20.8092C494.26 17.3872 500.973 15.0861 512.237 16.7423C528.15 19.0823 546.626 36.1563 552.173 42.2577C552.173 42.2577 552.358 55.9395 552.173 61.1164C548.476 66.2934 526.103 74.4289 512.237 72.7649C504.755 71.867 498.369 69.1837 493.378 65.5538C493.15 65.3879 492.92 65.2002 492.689 64.992C500.134 75.4063 512.326 82.1944 526.104 82.1944Z" fill="#C4D8E8"/>
<path opacity="0.2" fill-rule="evenodd" clip-rule="evenodd" d="M490.414 20.7767C494.231 17.3549 500.944 15.0539 512.207 16.7101C528.121 19.0501 546.596 36.1241 552.144 42.2255C552.144 42.2255 552.329 55.9072 552.144 61.0842C548.446 66.2612 526.073 74.3967 512.207 72.7327C504.725 71.8348 498.34 69.1515 493.348 65.5216C493.12 65.3555 492.89 65.1677 492.659 64.9593C487.855 58.2385 485.028 50.0077 485.028 41.1165C485.028 33.7158 486.987 26.7725 490.414 20.7767Z" fill="#2637EF"/>
<path opacity="0.2" d="M497.234 54.4287C497.234 54.4287 491.687 58.3115 492.797 64.4129C490.948 62.379 486.394 56.8808 485.033 45.5538C483.366 31.687 490.579 21.1482 490.579 21.1482C490.579 30.5777 497.234 30.5777 497.234 30.5777V54.4287Z" fill="#2637EF"/>
<path d="M499.043 16.0456C493.116 16.6536 489.468 21.8209 489.468 21.8209L489.012 23.3409C489.012 23.3409 491.526 18.3157 499.195 17.4135C504.362 16.8056 515.572 18.4632 523.512 21.517C530.23 24.1008 536.583 28.9643 540.383 32.156C541.968 33.4877 547.222 38.5898 547.07 38.5392L548.286 39.2992C548.083 38.9446 547.435 37.8401 546.462 36.8674C545.246 35.6515 531.416 23.0369 524.12 20.3012C517.804 17.9326 506.302 15.3012 499.043 16.0456Z" fill="#1C0D3F"/>
<path d="M493.116 14.9817C491.541 17.5211 490.77 19.0276 489.49 21.7675C490.655 20.7036 493.571 16.5016 503.754 16.5016C516.673 16.5016 533.632 23.2407 546.398 37.2233C548.374 38.3885 551.812 39.1168 549.502 33.5238C546.614 26.5325 539.015 21.3651 533.695 17.1095C528.376 12.854 515.609 7.83852 505.882 8.29447C498.101 8.65923 494.331 13.1579 493.116 14.9817Z" fill="#ED26B7"/>
<path d="M562.938 49.3674C562.705 53.2649 564.321 61.5089 562.697 64.2191C560.62 67.6864 554.963 65.0983 551.813 64.939C546.2 64.6551 542.082 57.2233 542.614 48.3396C543.146 39.4558 548.126 32.4842 553.739 32.768C556.385 32.9018 563.65 32.9549 565.302 35.6696C567.153 38.7128 563.219 44.6722 562.938 49.3674Z" fill="url(#paint10_linear_931_2681)"/>
<ellipse cx="10.1751" cy="16.4861" rx="10.1751" ry="16.4861" transform="matrix(0.998724 0.0505085 -0.0597614 0.998213 550.385 32.6429)" fill="#C4D8E8"/>
<path opacity="0.6" d="M493.351 117.107C495.569 117.662 499.452 118.463 502.225 118.771C512.21 119.881 529.958 120.435 536.615 118.771C543.271 117.107 549.927 115.443 555.473 112.67" stroke="#9AA9BE" stroke-width="7.29912"/>
<g opacity="0.4">
<path d="M513.937 134.897C514.291 135.303 515.273 135.852 516.368 135.961C517.888 136.113 518.8 135.809 519.56 135.353" stroke="#3C0133" stroke-width="2"/>
<path d="M513.937 132.161C514.291 132.567 515.273 133.116 516.368 133.225C517.888 133.377 518.8 133.073 519.56 132.617" stroke="#3C0133" stroke-width="2"/>
<path d="M513.483 137.329C513.837 137.734 514.819 138.283 515.914 138.393C517.434 138.544 518.346 138.241 519.106 137.785" stroke="#3C0133" stroke-width="2"/>
<path d="M513.201 139.646C513.539 140.065 514.498 140.654 515.588 140.808C517.1 141.022 518.024 140.755 518.802 140.331" stroke="#3C0133" stroke-width="2"/>
<path d="M512.702 141.9C512.994 142.353 513.884 143.04 514.952 143.309C516.433 143.682 517.38 143.515 518.198 143.175" stroke="#3C0133" stroke-width="2"/>
<path d="M511.881 144.464C512.145 144.933 512.993 145.672 514.043 146.005C515.499 146.466 516.454 146.356 517.291 146.066" stroke="#3C0133" stroke-width="2"/>
<path d="M510.973 147.056C511.237 147.525 512.084 148.264 513.134 148.596C514.59 149.058 515.545 148.948 516.383 148.657" stroke="#3C0133" stroke-width="2"/>
<path d="M510.215 150.553C510.554 150.972 511.513 151.558 512.604 151.71C514.117 151.921 515.04 151.652 515.817 151.226" stroke="#3C0133" stroke-width="2"/>
<path d="M509.833 153.662C510.203 154.052 511.206 154.561 512.305 154.627C513.83 154.717 514.729 154.377 515.47 153.891" stroke="#3C0133" stroke-width="2"/>
<path d="M510.105 157.139C510.531 157.469 511.599 157.82 512.695 157.718C514.216 157.577 515.053 157.104 515.712 156.512" stroke="#3C0133" stroke-width="2"/>
<path d="M511.091 160.777C511.567 161.03 512.679 161.194 513.742 160.908C515.217 160.51 515.961 159.902 516.51 159.206" stroke="#3C0133" stroke-width="2"/>
<path d="M512.316 163.875C512.811 164.088 513.933 164.16 514.969 163.787C516.406 163.269 517.098 162.602 517.587 161.863" stroke="#3C0133" stroke-width="2"/>
<path d="M514.264 166.989C514.789 167.109 515.906 166.979 516.858 166.425C518.178 165.658 518.739 164.877 519.087 164.062" stroke="#3C0133" stroke-width="2"/>
<path d="M516.804 169.375C517.342 169.392 518.413 169.047 519.239 168.32C520.386 167.311 520.784 166.436 520.968 165.569" stroke="#3C0133" stroke-width="2"/>
<path d="M520.225 171.643C520.757 171.557 521.743 171.016 522.417 170.146C523.352 168.938 523.578 168.004 523.594 167.118" stroke="#3C0133" stroke-width="2"/>
<path d="M524.302 173.163C524.803 172.967 525.653 172.23 526.128 171.237C526.786 169.859 526.81 168.898 526.639 168.028" stroke="#3C0133" stroke-width="2"/>
<path d="M528.797 174.438C529.26 174.163 529.978 173.297 530.285 172.24C530.71 170.773 530.577 169.821 530.267 168.991" stroke="#3C0133" stroke-width="2"/>
<path d="M533.386 174.656C533.758 174.267 534.217 173.24 534.228 172.139C534.244 170.612 533.86 169.731 533.338 169.014" stroke="#3C0133" stroke-width="2"/>
<path d="M537.594 174.345C537.891 173.896 538.162 172.805 537.979 171.719C537.725 170.213 537.192 169.413 536.551 168.801" stroke="#3C0133" stroke-width="2"/>
<path d="M541.574 173.367C541.793 172.875 541.88 171.754 541.521 170.713C541.021 169.27 540.363 168.569 539.631 168.07" stroke="#3C0133" stroke-width="2"/>
<path d="M545.371 171.664C545.526 171.148 545.469 170.025 544.979 169.039C544.299 167.671 543.557 167.06 542.766 166.659" stroke="#3C0133" stroke-width="2"/>
<path d="M548.793 170.127C548.948 169.612 548.891 168.488 548.401 167.502C547.721 166.134 546.979 165.524 546.188 165.123" stroke="#3C0133" stroke-width="2"/>
<path d="M552.2 168.51C552.355 167.994 552.298 166.871 551.808 165.885C551.128 164.517 550.386 163.906 549.596 163.505" stroke="#3C0133" stroke-width="2"/>
<path d="M555.474 166.422C555.629 165.906 555.572 164.783 555.082 163.797C554.402 162.429 553.66 161.819 552.869 161.418" stroke="#3C0133" stroke-width="2"/>
<path d="M558.806 163.992C558.901 163.462 558.717 162.352 558.118 161.428C557.287 160.147 556.48 159.624 555.649 159.316" stroke="#3C0133" stroke-width="2"/>
<path d="M561.825 161.284C561.859 160.746 561.549 159.665 560.849 158.816C559.877 157.637 559.016 157.21 558.156 156.998" stroke="#3C0133" stroke-width="2"/>
<path d="M564.503 158.572C564.467 158.035 564.02 157.003 563.215 156.251C562.099 155.208 561.19 154.897 560.309 154.798" stroke="#3C0133" stroke-width="2"/>
<path d="M566.719 156.428C566.683 155.891 566.236 154.859 565.431 154.107C564.315 153.064 563.406 152.752 562.525 152.654" stroke="#3C0133" stroke-width="2"/>
<path d="M568.898 153.184C568.787 152.657 568.201 151.697 567.3 151.064C566.051 150.186 565.107 150.004 564.221 150.028" stroke="#3C0133" stroke-width="2"/>
</g>
<path d="M500.283 77.4619C501.182 77.8043 506.197 78.7461 511.028 78.7461C521.074 78.7461 535.505 76.0614 542.716 73.8427C548.485 72.0677 553.258 70.8354 554.364 69.96" stroke="#A0AFBB" stroke-width="7.29912"/>
<path d="M520.944 101.166C520.668 111.701 520.169 118.668 520.944 131.705L527.186 129.454C527.186 126.078 526.294 121.424 526.294 112.42V91.0371L520.944 101.166Z" fill="#7095BF"/>
<path d="M491.596 128.798V113.192C491.596 107.828 491.596 102.718 493.477 97.2056L521.689 98.8594C521.655 108.73 521.576 117.005 521.689 131.554C506.849 131.415 501.732 130.365 491.596 128.798Z" fill="#A0B3D3"/>
<path d="M491.596 98.8776L497.828 87.7827C503.929 88.8921 517.941 89.9286 526.631 88.8192L523.858 102.131C517.202 102.131 510.612 101.449 505.731 101.005C500.85 100.562 494.924 99.9869 491.596 98.8776Z" fill="#E3F0FB"/>
<path fill-rule="evenodd" clip-rule="evenodd" d="M560.579 89.233C559.668 87.2654 558.343 85.6079 556.379 84.8806C553.741 83.9042 551.698 83.901 550.21 84.517C548.801 85.1005 547.206 86.5245 546.01 89.9171L539.232 87.5277C540.899 82.7991 543.658 79.4517 547.461 77.8768C551.186 76.3344 555.214 76.7859 558.874 78.1408C563.344 79.7955 565.789 83.3798 567.101 86.213C567.769 87.6554 568.194 89.0069 568.466 90.0133C568.603 90.5182 568.703 90.9448 568.772 91.2386C568.772 91.2386 563.094 93.5479 562.082 93.9561C561.964 93.6636 561.891 93.3683 561.872 93.291C561.871 93.2864 561.87 93.2826 561.869 93.2796C561.842 93.1687 561.811 93.0363 561.784 92.9198C561.78 92.9038 561.776 92.8881 561.773 92.8727C561.708 92.5958 561.631 92.2694 561.529 91.8907C561.323 91.1297 561.023 90.191 560.579 89.233Z" fill="#647A93"/>
<path d="M543.325 88.3054L524.629 130.4C517.591 140.042 506.112 157.003 504.603 158.714C501.62 162.095 501.762 162.869 501.589 164.106C501.45 165.095 503.142 166.748 503.705 166.907C505.463 166.302 504.322 169.575 507.985 172.079C511.648 174.583 515.507 175.123 514.968 176.826L517.715 178.704C519.547 179.956 524.326 176.712 525.636 175.123L551.769 140.822C557.512 128.488 569.165 101.147 569.833 97.8098C570.668 93.6387 569.278 83.8812 558.083 79.6168C549.128 76.2052 544.513 84.6012 543.325 88.3054Z" fill="#667D8E"/>
<path d="M541.592 87.4979L523.107 129.285C516.124 138.845 504.74 155.667 503.242 157.362C500.28 160.712 500.425 161.483 500.257 162.712C500.122 163.695 501.816 165.346 502.378 165.506C504.129 164.911 507.317 164.179 510.98 166.683C514.644 169.187 515.826 173.354 515.345 175.041L518.093 176.919C519.924 178.171 522.983 175.335 524.283 173.76L550.216 139.752C555.896 127.51 567.421 102.196 568.074 98.8808C568.892 94.7364 567.467 85.0283 556.286 80.7448C547.341 77.3181 542.763 83.819 541.592 87.4979Z" fill="#C4D8E8"/>
<path d="M546.523 81.1303C542.452 83.2077 540.297 89.346 539.649 91.91C544.043 87.3657 548.107 85.4223 557.405 87.609C564.777 89.3427 568.489 98.0441 568.152 98.4909C568.152 98.4909 569.057 93.8262 566.377 89.1493C564.415 85.7257 561.167 81.4374 557.191 80.5206C553.673 79.7093 551.612 78.5334 546.523 81.1303Z" fill="#ED26B7"/>
<path fill-rule="evenodd" clip-rule="evenodd" d="M561.752 84.4801C560.322 82.9889 558.707 81.8811 556.972 81.481C556.802 81.442 556.637 81.4031 556.474 81.3647C555.218 81.0696 554.113 80.8102 552.799 80.8364C551.342 80.8654 549.571 81.2535 547.131 82.4991C545.334 83.4158 543.857 85.1646 542.732 87.0822C542.437 87.5865 542.17 88.0951 541.931 88.5926C543.366 87.5559 544.919 86.7646 546.683 86.2928C549.729 85.4779 553.282 85.6473 557.763 86.9571C561.59 88.0757 564.408 90.9167 566.237 93.3771C566.423 93.6272 566.6 93.8744 566.767 94.1168C566.495 92.6349 566.029 90.9822 565.242 89.468C564.363 87.7763 563.177 85.966 561.752 84.4801Z" fill="#ED26B7"/>
<path d="M556.357 90.6293C549.487 87.991 541.15 92.1394 538.264 95.0147L536.839 97.9069C539.193 96.0794 545.809 92.9184 553.441 94.8954C561.074 96.8724 564.644 103.039 565.426 105.845C565.539 105.619 565.943 104.728 566.554 103.118C567.338 101.049 564.961 93.9329 556.357 90.6293Z" fill="#ED26B7"/>
<path d="M553.149 41.7309C551.781 45.0745 551.376 50.2927 551.477 51.7618C551.781 54.4976 552.237 56.6253 552.237 56.6253C552.237 56.6253 552.845 44.7706 555.58 40.515C557.339 37.779 559.38 35.6515 564.092 35.6515L561.053 34.8916C557.557 34.8916 554.697 37.9492 553.149 41.7309Z" fill="#F2F4F6"/>
<ellipse cx="6.86163" cy="8.93545" rx="6.86163" ry="8.93545" transform="matrix(0.976917 0.213621 -0.0794791 0.996837 506.998 109.791)" fill="#E3F0FB"/>
<path fill-rule="evenodd" clip-rule="evenodd" d="M515.142 128.873C514.8 128.869 514.452 128.829 514.1 128.753C510.398 127.943 507.715 123.299 508.107 118.38C508.394 114.786 510.242 112.04 512.66 111.136C509.396 111.094 506.644 114.246 506.289 118.698C505.896 123.618 508.58 128.262 512.282 129.071C513.279 129.289 514.249 129.207 515.142 128.873Z" fill="#647A94"/>
<ellipse cx="2.84527" cy="3.35615" rx="2.84527" ry="3.35615" transform="matrix(-0.958113 -0.286389 0.183075 -0.983099 497.76 110.657)" fill="#E627B9"/>
<path fill-rule="evenodd" clip-rule="evenodd" d="M495.068 103.204C495.21 103.22 495.353 103.248 495.496 103.291C497.001 103.741 497.947 105.583 497.608 107.405C497.36 108.736 496.495 109.689 495.46 109.93C496.811 110.075 498.065 109.008 498.372 107.359C498.712 105.536 497.766 103.694 496.261 103.244C495.855 103.123 495.45 103.115 495.068 103.204Z" fill="#FFC5F5"/>
<ellipse cx="2.84527" cy="3.35615" rx="2.84527" ry="3.35615" transform="matrix(-0.958113 -0.286389 0.183075 -0.983099 504.752 111.265)" fill="#E627B9"/>
<path fill-rule="evenodd" clip-rule="evenodd" d="M502.061 103.812C502.203 103.827 502.347 103.856 502.491 103.899C503.996 104.349 504.942 106.191 504.602 108.013C504.354 109.344 503.49 110.296 502.455 110.538C503.806 110.682 505.059 109.614 505.366 107.966C505.705 106.144 504.759 104.302 503.254 103.852C502.848 103.73 502.443 103.723 502.061 103.812Z" fill="#FFC5F5"/>
<path d="M545.07 138.058C536.221 129.653 526.481 129.35 523.108 129.287L521.851 131.009C527.605 130.565 540.074 134.31 545.07 138.058Z" fill="#253B46"/>
<path fill-rule="evenodd" clip-rule="evenodd" d="M521.183 170.583C522.024 172.424 522.567 174.535 522.364 175.767C523.125 175.215 523.651 174.843 524.522 173.95C524.868 172.615 524.86 171.523 523.87 169.356C522.872 167.17 521.303 164.962 519.286 163.004C515.255 159.09 511.112 156.469 504.105 156.736C503.052 157.84 502.644 158.392 502.096 159.253C508.159 159.022 513.669 161.667 517.229 165.123C519.008 166.851 520.352 168.763 521.183 170.583Z" fill="#E627B9"/>
<path d="M559.38 110.972C561.426 106.919 559.799 101.976 555.746 99.9298C551.694 97.884 546.75 99.5108 544.704 103.563C542.659 107.616 544.285 112.56 548.338 114.605C552.391 116.651 557.334 115.024 559.38 110.972Z" fill="#ED27B7"/>
<path d="M555.624 110.638C556.209 109.408 556.025 108.104 555.191 107.21L556.259 105.095C556.084 104.799 555.877 104.523 555.643 104.273L553.346 108.824C552.891 109.726 552.269 109.917 551.597 109.578C550.943 109.247 550.645 108.477 551.062 107.65C551.528 106.728 552.531 106.528 553.473 107.003C553.561 107.045 553.647 107.095 553.727 107.152L554.134 106.347C554.054 106.288 553.971 106.236 553.881 106.193C552.484 105.488 550.957 105.792 550.229 107.232C549.53 108.618 550.145 109.856 551.246 110.411C551.768 110.675 552.309 110.725 552.774 110.578C553.239 110.43 553.725 110.122 554.116 109.349L554.752 108.088C555.177 108.659 555.173 109.52 554.777 110.308C554.025 111.79 552.016 112.348 550.403 111.533C550.365 111.514 550.336 111.5 550.3 111.479C549.193 110.919 548.422 110.028 548.032 108.841C547.752 107.987 547.728 107.069 547.969 106.204C548.21 105.338 548.7 104.564 549.383 103.977C550.064 103.391 550.905 103.02 551.798 102.911C552.691 102.801 553.596 102.96 554.399 103.366L554.816 102.539C554.174 102.215 553.474 102.02 552.758 101.966C552.041 101.912 551.319 102 550.637 102.223C549.257 102.675 548.114 103.657 547.46 104.952C546.807 106.247 546.694 107.749 547.147 109.128C547.6 110.507 548.584 111.65 549.881 112.305L549.984 112.357C550.383 112.559 550.811 112.697 551.253 112.772C551.255 112.772 551.257 112.771 551.259 112.772C551.897 112.88 552.549 112.843 553.171 112.667C554.245 112.36 555.099 111.67 555.582 110.721C555.585 110.718 555.623 110.639 555.624 110.638Z" fill="white"/>
<path d="M488.617 172.276C489.354 171.854 497.699 168.502 501.779 166.879C503.271 166.089 507.15 164.984 510.73 166.879C515.205 169.248 513.363 176.62 512.441 176.62C511.52 176.62 509.151 179.384 508.492 181.753C507.834 184.122 504.938 186.36 502.832 187.413C500.726 188.466 500.595 192.941 500.595 194.389C500.595 195.548 499.805 196.013 499.41 196.101C495.725 196.495 488.617 192.152 486.116 189.519C483.615 186.887 484.799 182.543 484.799 181.753C484.799 180.963 484.405 178.462 484.799 176.62C485.194 174.777 487.695 172.802 488.617 172.276Z" fill="#CBCFDD"/>
<path d="M486.774 177.62C486.318 175.338 490.43 173.246 492.142 172.485C498.228 169.061 506.85 176.431 503.934 177.62C501.116 178.769 499.369 184.657 497.277 184.467C495.185 184.277 487.345 180.473 486.774 177.62Z" fill="#DFE4E8"/>
<path d="M485.735 186.754C485.399 186.016 485.595 183.093 485.735 181.723C486.657 181.303 488.083 182.561 487.915 183.316C487.781 183.92 487.468 186.53 487.328 187.76C486.937 187.732 486.07 187.492 485.735 186.754Z" fill="#DFE4E8"/>
<path d="M488.568 188.688C488.233 187.951 488.429 185.027 488.568 183.657C489.491 183.238 490.916 184.496 490.748 185.25C490.614 185.854 490.301 188.465 490.162 189.695C489.77 189.667 488.904 189.426 488.568 188.688Z" fill="#DFE4E8"/>
<path d="M491.402 190.481C491.067 189.743 491.263 186.819 491.402 185.449C492.325 185.03 493.75 186.288 493.583 187.043C493.449 187.647 493.135 190.257 492.996 191.487C492.604 191.459 491.738 191.219 491.402 190.481Z" fill="#DFE4E8"/>
<path d="M494.625 192.184C494.289 191.446 494.485 188.522 494.625 187.152C495.547 186.733 496.973 187.991 496.805 188.746C496.671 189.349 496.358 191.96 496.218 193.19C495.827 193.162 494.96 192.921 494.625 192.184Z" fill="#DFE4E8"/>
<path d="M488.617 172.276C489.354 171.855 497.893 167.232 501.974 165.609C503.466 164.819 506.647 163.805 510.699 166.365C514.98 169.07 516.252 174.689 515.119 175.031C514.237 175.298 509.151 179.384 508.492 181.753C507.834 184.123 504.938 186.36 502.832 187.413C500.726 188.466 500.595 192.942 500.595 194.39C500.595 195.548 499.805 196.013 499.41 196.101C495.725 196.496 488.617 192.152 486.116 189.519C483.615 186.887 484.799 182.543 484.799 181.753C484.799 180.964 484.405 178.463 484.799 176.62C485.194 174.777 487.695 172.803 488.617 172.276Z" fill="#749BBA"/>
<path d="M486.774 177.62C486.318 175.338 490.43 173.246 492.142 172.485C498.228 169.062 506.85 176.431 503.934 177.62C501.116 178.769 499.369 184.657 497.277 184.467C495.185 184.277 487.345 180.473 486.774 177.62Z" fill="#C4D8E8"/>
<path d="M485.735 186.755C485.399 186.017 485.595 183.093 485.735 181.723C486.657 181.304 488.083 182.562 487.915 183.317C487.781 183.92 487.468 186.531 487.328 187.761C486.937 187.733 486.07 187.492 485.735 186.755Z" fill="#C4D8E8"/>
<path d="M488.568 188.689C488.233 187.951 488.429 185.027 488.568 183.657C489.491 183.238 490.916 184.496 490.748 185.251C490.614 185.855 490.301 188.465 490.162 189.695C489.77 189.667 488.904 189.427 488.568 188.689Z" fill="#C4D8E8"/>
<path d="M491.402 190.481C491.067 189.744 491.263 186.82 491.402 185.45C492.325 185.031 493.75 186.289 493.583 187.043C493.449 187.647 493.135 190.258 492.996 191.487C492.604 191.46 491.738 191.219 491.402 190.481Z" fill="#C4D8E8"/>
<path d="M494.625 192.184C494.289 191.446 494.485 188.523 494.625 187.153C495.547 186.733 496.973 187.992 496.805 188.746C496.671 189.35 496.358 191.961 496.218 193.19C495.827 193.162 494.96 192.922 494.625 192.184Z" fill="#C4D8E8"/>
<path d="M451.467 152.682L459.531 147.987C460.687 147.476 461.847 145.757 466.369 148.497C469.063 150.13 469.601 152.988 469.533 154.213L467.39 157.887C467.185 161.153 465.552 164.521 463.715 165.338C462.246 165.991 461.334 168.536 461.062 169.727C460.823 170.203 460.082 171.258 459.02 171.666C457.959 172.074 455.312 171.496 454.121 171.156L452.284 169.727C451.74 169.421 450.345 168.686 449.12 168.196C447.895 167.706 447.113 165.542 446.875 164.521C446.405 162.383 446.351 160.982 446.875 157.887L451.467 152.682Z" fill="#BFC9D1"/>
<path d="M458.985 161.724C455.435 161.641 451.727 159.419 450.316 158.318C449.921 157.731 449.868 157.104 450.316 156.369C450.667 155.793 454.942 152.791 457.128 151.403C457.953 151.3 464.249 154.19 462.907 156.151C461.565 158.112 463.423 161.827 458.985 161.724Z" fill="#D5E1EB"/>
<path d="M451.148 166.285C450.838 165.712 450.832 163.354 450.868 162.246C451.585 161.858 452.799 162.789 452.707 163.404C452.633 163.896 452.527 166.009 452.483 167.004C452.167 167.004 451.458 166.859 451.148 166.285Z" fill="#D5E1EB"/>
<path d="M453.522 167.566C453.211 166.993 453.206 164.635 453.242 163.527C453.959 163.139 455.173 164.07 455.08 164.685C455.006 165.177 454.9 167.29 454.857 168.285C454.541 168.285 453.832 168.14 453.522 167.566Z" fill="#D5E1EB"/>
<path d="M456.203 168.754C455.893 168.18 455.887 165.822 455.923 164.715C456.64 164.327 457.854 165.258 457.762 165.873C457.688 166.365 457.582 168.478 457.538 169.473C457.222 169.472 456.513 169.328 456.203 168.754Z" fill="#D5E1EB"/>
<path d="M448.466 165.043C448.156 164.47 448.15 162.112 448.186 161.004C448.903 160.617 450.117 161.547 450.025 162.162C449.951 162.654 449.845 164.767 449.801 165.762C449.485 165.762 448.776 165.617 448.466 165.043Z" fill="#D5E1EB"/>
<path d="M343.56 201.296C346.28 201.083 350.372 198.904 352.167 197.552C352.167 193.36 351.44 187.771 345.795 184.473C341.279 181.835 335.753 183.597 333.555 184.808C332.624 185.814 330.537 188.195 329.643 189.671C328.748 191.146 328.786 193.788 328.916 194.925L335.847 201.296C337.318 201.334 340.839 201.509 343.56 201.296Z" fill="#D9D9D9"/>
<path d="M325.137 289.157L219.18 213.048L239.36 187.775L285 175.894L402.289 221.862L325.137 289.157Z" fill="url(#paint11_linear_931_2681)"/>
<path d="M349 193.474C350.155 193.058 351.581 194.955 352.14 195.957C352.235 194.416 351.259 190.79 351.137 190.875C351.015 190.96 349.751 192.801 349 193.474Z" fill="#6D7680"/>
<path d="M337.055 198.364C336.264 198.723 335.684 200.39 335.857 201.291C335.725 201.222 335.184 200.69 334.912 200.43C333.95 199.53 331.732 197.683 330.577 196.735C329.422 195.788 329.01 195.131 328.949 194.922C328.842 194.76 328.756 193.931 328.949 191.849C329.2 189.139 332.284 186.222 333.559 184.803C333.212 185.991 333.397 190.159 333.649 192.368C333.986 195.311 335.957 197.599 337.055 198.364Z" fill="#9A9A9A"/>
<path d="M193.874 248.549L192.204 250.919L209.37 253.536L218.858 256.653L230.702 259.606L234.729 259.842L236.311 258.692L220.121 254.24L209.093 251.327L193.874 248.549Z" fill="#1C1564"/>
<path d="M198.329 244.01L196.38 246.156L213.092 250.869L222.124 255.133L233.514 259.524L233.513 258.613L235.929 257.615L223.674 252.894L213.09 248.643L198.329 244.01Z" fill="#1C1564"/>
<ellipse cx="197.614" cy="244.413" rx="0.565593" ry="1.41813" transform="rotate(42.0275 197.614 244.413)" fill="#6D3737"/>
<path d="M198.517 243.328L196.725 245.502L213.273 250.202L222.3 254.474L233.686 258.877V257.966L236.103 256.97L223.853 252.237L213.273 247.976L198.517 243.328Z" fill="#6D3737"/>
<path d="M236.066 257.681L236.112 256.967L233.64 257.958V258.863L234.951 259.249L235.293 258.706L236.509 258.228L236.066 257.681Z" fill="#B47F40"/>
<path d="M193.417 248.434L192.226 251.078L209.577 250.396L219.484 251.66L231.673 252.316L231.391 251.45L233.381 249.754L220.266 249.051L208.887 248.28L193.417 248.434Z" fill="#824545"/>
<path d="M233.564 250.442L233.386 249.748L231.343 251.457L231.623 252.317L232.99 252.278L233.147 251.656L234.155 250.824L233.564 250.442Z" fill="#B47F40"/>
<mask id="mask5_931_2681" style="mask-type:alpha" maskUnits="userSpaceOnUse" x="193" y="241" width="41" height="17">
<path d="M195.514 241.897L193.562 244.042L210.27 248.772L219.297 253.044L230.682 257.447V256.536L233.1 255.54L220.85 250.807L210.27 246.546L195.514 241.897Z" fill="#6D3737"/>
<path d="M233.063 256.251L233.108 255.536L230.636 256.528V257.432L231.948 257.819L232.29 257.276L233.506 256.798L233.063 256.251Z" fill="#B47F40"/>
</mask>
<g mask="url(#mask5_931_2681)">
<path d="M224.005 251.907L214.806 251.047L217.406 252.347L226.805 252.987L224.005 251.907Z" fill="#2E2222"/>
</g>
<path d="M363.964 217.972L335.811 201.294L351.623 195.549L382.415 207.792L363.964 217.972Z" fill="url(#paint12_linear_931_2681)"/>
<path d="M231.633 225.475L172.998 192.992L193.571 189.979L247.991 217.296L231.633 225.475Z" fill="url(#paint13_linear_931_2681)"/>
<path d="M379.702 188.722L364.464 179.631L371.174 177.193L387.531 184.402L379.702 188.722Z" fill="url(#paint14_linear_931_2681)"/>
<path d="M359.103 183.488L350.569 178.431L355.651 177.904L364.45 181.585L359.103 183.488Z" fill="url(#paint15_linear_931_2681)"/>
<path d="M348.243 193.99C349.843 192.279 351.432 194.809 352.138 195.938L352.172 197.553C349.706 199.346 346.886 200.45 345.797 200.828C343.878 201.64 338.284 201.484 335.853 201.285C335.615 199.856 336.444 198.737 337.013 198.327C339.544 198.178 347.219 195.085 348.243 193.99Z" fill="#AFAFAF"/>
<path d="M366.478 137.836C363.724 137.62 359.58 135.414 357.762 134.044C357.762 129.8 358.498 124.14 364.214 120.801C368.787 118.129 374.382 119.914 376.608 121.14C377.552 122.159 379.664 124.57 380.57 126.064C381.476 127.558 381.438 130.233 381.306 131.384L374.288 137.836C372.798 137.873 369.232 138.051 366.478 137.836Z" fill="#D9D9D9"/>
<path d="M360.97 129.916C359.8 129.494 358.356 131.415 357.79 132.429C357.694 130.869 358.682 127.197 358.806 127.283C358.93 127.37 360.21 129.233 360.97 129.916Z" fill="#6D7680"/>
<path d="M373.066 134.867C373.866 135.23 374.454 136.919 374.279 137.831C374.412 137.761 374.96 137.222 375.235 136.959C376.209 136.047 378.455 134.177 379.625 133.218C380.794 132.258 381.211 131.593 381.274 131.381C381.381 131.217 381.469 130.378 381.274 128.27C381.019 125.526 377.896 122.572 376.605 121.135C376.956 122.338 376.77 126.559 376.514 128.795C376.173 131.776 374.178 134.092 373.066 134.867Z" fill="#9A9A9A"/>
<path d="M361.737 130.437C360.116 128.705 358.507 131.267 357.793 132.41L357.758 134.046C360.255 135.861 363.11 136.979 364.214 137.362C366.157 138.183 371.821 138.026 374.283 137.825C374.524 136.378 373.683 135.244 373.107 134.829C370.545 134.679 362.774 131.547 361.737 130.437Z" fill="#AFAFAF"/>
<path d="M368.876 181.214L364.464 179.642L366.157 175.692C366.627 175.191 368.019 174.169 369.824 174.094C371.63 174.018 373.586 175.128 374.338 175.692L376.219 179.642L368.876 181.214Z" fill="#A0AFBB"/>
<path d="M366.149 175.698L364.465 179.641L368.875 181.216L370.074 180.266L371.005 177.988V176.755L374.347 175.697C369.861 172.532 367.01 174.825 366.149 175.698Z" fill="#DFE4E8"/>
<path fill-rule="evenodd" clip-rule="evenodd" d="M376.21 179.627L374.348 175.718L373.639 177.316L372.225 178.385L372.45 179.518L371.663 180.618L376.21 179.627Z" fill="#667D8E"/>
<path d="M370.765 175.411L371.007 176.757L374.339 175.698C372.152 174.127 370.212 173.951 369.079 174.147L370.765 175.411Z" fill="#BFC9D1"/>
<path fill-rule="evenodd" clip-rule="evenodd" d="M370.775 176.738C370.315 176.67 369.472 176.547 369.21 176.474C368.848 176.374 367.833 176.109 367.789 176.102C367.767 176.099 367.393 176.076 367.031 176.053C366.73 176.034 366.437 176.015 366.359 176.009C366.349 176.008 366.342 176.007 366.34 176.007C366.336 176.008 366.343 176.008 366.359 176.009C366.547 176.035 368.022 176.297 368.223 176.435C368.083 176.463 367.889 176.49 367.719 176.482C367.831 176.514 368.085 176.576 368.198 176.568C368.282 176.562 368.475 176.549 368.627 176.539C369.222 176.64 370.317 176.746 370.908 176.757C370.869 176.751 370.824 176.745 370.775 176.738Z" fill="#BFC9D1"/>
<path fill-rule="evenodd" clip-rule="evenodd" d="M292.922 235.612L309.565 233.733L318.24 235.443L321.027 233.795L324.149 234.264L321.129 236.012L325.61 236.895L327.148 239.508L309.77 236.083L293.127 237.967C292.386 237.821 291.806 236.255 292.922 235.612Z" fill="#1C1564"/>
<path d="M352.961 179.288L350.569 178.436L351.487 176.295C351.742 176.023 352.496 175.47 353.475 175.429C354.453 175.388 355.513 175.99 355.921 176.295L356.94 178.436L352.961 179.288Z" fill="#A0AFBB"/>
<path d="M351.482 176.298L350.57 178.436L352.96 179.289L353.61 178.774L354.114 177.54V176.871L355.925 176.298C353.494 174.583 351.949 175.825 351.482 176.298Z" fill="#DFE4E8"/>
<path fill-rule="evenodd" clip-rule="evenodd" d="M356.935 178.428L355.926 176.309L355.542 177.175L354.775 177.755L354.897 178.369L354.471 178.965L356.935 178.428Z" fill="#667D8E"/>
<path d="M353.984 176.143L354.116 176.872L355.921 176.298C354.736 175.447 353.684 175.351 353.071 175.458L353.984 176.143Z" fill="#BFC9D1"/>
<path fill-rule="evenodd" clip-rule="evenodd" d="M353.99 176.862C353.74 176.825 353.283 176.759 353.142 176.719C352.945 176.665 352.395 176.521 352.371 176.518C352.359 176.516 352.157 176.503 351.961 176.491C351.798 176.481 351.639 176.471 351.596 176.467C351.591 176.467 351.587 176.466 351.586 176.466C351.584 176.466 351.588 176.467 351.596 176.467C351.699 176.481 352.498 176.623 352.607 176.698C352.531 176.713 352.426 176.728 352.333 176.723C352.394 176.741 352.531 176.775 352.593 176.77C352.639 176.767 352.744 176.76 352.827 176.754C353.149 176.809 353.742 176.866 354.062 176.872C354.041 176.869 354.017 176.866 353.99 176.862Z" fill="#BFC9D1"/>
<path fill-rule="evenodd" clip-rule="evenodd" d="M292.922 234.693L309.565 232.814L318.24 234.524L321.027 232.876L324.149 233.345L321.129 235.093L325.61 235.976L327.148 238.589L309.77 235.164L293.127 237.048C292.386 236.902 291.806 235.337 292.922 234.693Z" fill="#824545"/>
<path d="M327.886 242.793L348.414 240.305C349.627 241.106 348.92 242.298 348.414 242.793L323.842 246.408L319.999 247.572L305.21 250.716L305.909 247.572L315.69 245.593L316.855 243.729L322.287 242.793H327.886Z" fill="#824545"/>
<path d="M327.886 242.793L348.414 240.305C349.627 241.106 348.92 242.298 348.414 242.793L323.842 246.408L319.999 247.572L305.21 250.716L305.909 247.572L315.69 245.593L316.855 243.729L322.287 242.793H327.886Z" fill="#824545"/>
<path d="M299.028 240.698L285.299 244.462L283.503 245.434L286.865 246.756L300.678 243.633H312.209L307.443 240.698H299.028Z" fill="#1C1564"/>
<path d="M297.62 239.959L283.891 243.723L282.095 244.696L285.457 246.017L299.27 242.894H310.801L306.034 239.959H297.62Z" fill="#824545"/>
<path d="M306.606 251.267L305.455 250.5L324.622 245.645L348.251 242.415L348.73 243.123L337.443 245.062C333.711 245.552 326.081 246.546 325.416 246.597C324.75 246.649 321.556 247.855 320.042 248.453L306.606 251.267Z" fill="#1C1564"/>
<path fill-rule="evenodd" clip-rule="evenodd" d="M313.624 148.186L321.459 119.358L330.791 99.2597L338.932 82.0133L341.897 77.8156V72.6105L339.069 70.6624L338.692 68.2744L343.343 71.7936L343.826 75.0841L349.109 67.6055L349.751 70.2301L341.081 83.3098L333.411 99.2597L338.63 96.7893L338.129 99.2597L331.502 103.66L325.172 120.243L316.782 152.395C316.365 152.63 313.381 152.651 312.817 151.649L313.624 148.186Z" fill="#824545"/>
<mask id="mask6_931_2681" style="mask-type:alpha" maskUnits="userSpaceOnUse" x="312" y="67" width="38" height="86">
<path fill-rule="evenodd" clip-rule="evenodd" d="M313.624 148.186L321.459 119.358L330.791 99.2597L338.932 82.0133L341.897 77.8156V72.6105L339.069 70.6624L338.692 68.2744L343.343 71.7936L343.826 75.0841L349.109 67.6055L349.751 70.2301L341.081 83.3098L333.411 99.2597L338.63 96.7893L338.129 99.2597L331.502 103.66L325.172 120.243L316.782 152.395C316.365 152.63 313.381 152.651 312.817 151.649L313.624 148.186Z" fill="#824545"/>
</mask>
<g mask="url(#mask6_931_2681)">
<path d="M339.43 82.6746L330.204 102.348L328.247 106.696V107.925L326.289 111.043L322.375 119.738C322.375 119.738 321.94 121.373 321.312 123.746C321.072 124.656 321.09 128.519 321.091 128.772C321.093 128.776 321.093 128.78 321.091 128.785C321.091 128.785 321.091 128.781 321.091 128.772C321.052 128.661 319.844 129.318 319.844 129.318C318.321 135.119 316.688 141.415 316.765 141.457L315.247 140.634L319.554 123.93L320.92 118.887L337.046 85.1114L338.464 81.9071L341.406 77.7048V72.6622L338.464 70.9287V69.8257L342.666 72.6622V77.7048L339.43 82.6746Z" fill="#C4986F"/>
<path d="M333.511 99.0849C333.456 99.201 333.341 99.4565 333.317 99.5494L333.163 100.043L334.188 99.3752L335.379 99.5494L336.318 98.4945L338.553 97.7106L338.757 96.6556L333.511 99.0849Z" fill="#C4986F"/>
<path d="M349.216 67.3186L343.82 74.9821L343.954 76.23L349.567 68.4666L349.216 67.3186Z" fill="#C4986F"/>
</g>
<path d="M252.71 98.9426C254.375 97.8793 256.217 97.5258 258.157 97.9765C260.148 98.4056 261.676 99.4528 262.739 101.118C262.92 101.404 263.123 101.741 263.303 102.028L263.384 101.933L280.98 133.102L280.95 133.175C281.239 133.718 281.425 134.303 281.539 134.859C281.774 135.847 281.753 136.943 281.505 138.074C281.077 140.066 280.009 141.542 278.344 142.605C276.629 143.69 274.786 144.044 272.795 143.614C270.855 143.164 269.328 142.117 268.242 140.4C268.221 140.349 268.199 140.297 268.178 140.246C268.04 140.063 267.975 139.909 267.889 139.704L266.544 137.372L250.806 109.465C250.69 109.333 250.552 109.15 250.436 109.017C249.394 107.404 249.04 105.56 249.469 103.568C249.897 101.577 250.995 100.028 252.71 98.9426Z" fill="#846B5D"/>
<path d="M268.986 111.882L261.319 99.8348L257.924 110.13C259.713 113.416 263.795 120.776 265.81 123.93C267.825 127.084 270.154 126.997 271.067 126.559L273.367 119.987L268.986 111.882Z" fill="#B89988"/>
<path d="M215.559 153.327C215.476 152.649 215.476 151.972 215.394 151.294C215.147 144.033 217.139 137.644 221.371 132.224C225.603 126.803 230.829 123.997 237.05 123.612C243.271 123.323 248.745 125.648 253.388 130.587C258.032 135.526 260.435 141.722 260.682 148.983C260.682 149.274 260.682 149.467 260.682 149.758C260.847 150.92 260.93 152.081 261.012 153.243C261.259 160.795 259.35 167.184 255.284 172.41C251.135 177.637 245.66 180.346 239.025 180.344C233.799 180.343 229.154 179.373 225.008 177.436C223.183 176.854 221.525 175.789 219.866 174.433C217.379 171.431 216.052 168.43 215.887 165.332C215.722 162.331 215.64 160.588 215.64 160.104C215.558 157.199 215.476 154.876 215.559 153.327Z" fill="#B89988"/>
<path d="M264.89 181.585C262.127 182.289 259.553 183.024 257.228 183.689L250.809 161.224L254.125 158.997L301.259 152.479C301.259 152.479 304.024 159.898 304.183 164.401C304.342 168.904 303.696 170.923 303.53 170.97C287.625 175.344 274.793 178.84 264.89 181.585Z" fill="#846B5D"/>
<path d="M215.454 160.951C215.366 160.373 215.366 159.794 215.366 159.216C215.102 153.016 217.228 147.561 221.742 142.934C226.256 138.306 231.832 135.911 238.468 135.665C245.105 135.419 250.945 137.404 255.899 141.621C260.853 145.838 263.418 151.129 263.681 157.328C263.681 157.576 263.681 157.742 263.681 157.99C263.858 158.982 263.946 159.973 264.034 160.965C264.298 167.413 262.261 172.867 257.835 177.33C253.41 181.792 247.657 184.022 240.578 184.02C235.003 184.018 230.048 183.19 225.624 181.536C223.678 181.039 221.908 180.13 220.139 178.889C217.485 176.326 216.07 173.763 215.893 171.201C215.717 168.639 215.629 167.151 215.629 166.737C215.453 164.258 215.365 162.274 215.454 160.951Z" fill="#B89988"/>
<path d="M246.748 98.3015C246.945 97.6343 255.391 97.2115 258.686 98.3016C262.026 99.4454 261.965 100.736 263.498 103.449C265.032 106.162 266.903 119.301 266.127 122.725C265.406 126.161 264.504 130.575 261.392 153.525C254.657 155.831 245.819 155.969 234.943 153.908C230.516 153.067 226.479 151.998 222.739 150.593C219.199 149.319 216.933 148.564 215.487 147.33L214.767 121.74C215.203 119.661 214.383 116.205 214.767 112.211C215.117 108.919 218.48 106.017 219.038 104.982C222.739 102.253 227.057 97.0974 234.943 95.7825C235.444 96.3748 237.222 100.965 237.877 101.368C240.393 102.915 242.524 105.417 245.105 104.763C247.297 104.338 246.748 100.93 246.748 98.3015Z" fill="#B89988"/>
<path d="M246.748 98.3015C246.945 97.6343 255.391 97.2115 258.686 98.3015C262.026 99.4454 261.965 100.736 263.498 103.449C265.032 106.162 266.903 119.301 266.127 122.725C265.406 126.161 268.483 104.156 265.371 127.106C265.133 128.859 265.809 130.173 255.405 131.268C246.748 127.983 243.277 134.335 233.39 134.335C227.147 134.335 225.417 116.84 223.971 115.606L214.767 121.74C215.203 119.661 214.383 118.395 214.767 114.402C215.117 111.109 216.947 107.988 217.505 106.954C219.985 103.533 227.057 97.0973 234.943 95.7825C235.444 96.3747 237.222 100.965 237.877 101.368C240.393 102.915 242.524 105.417 245.105 104.763C247.297 104.338 246.748 100.93 246.748 98.3015Z" fill="#DDAD92"/>
<path d="M246.036 101.956C246.002 104.352 245.962 106.418 245.831 108.072C236.158 103.396 231.79 99.686 232.728 97.1063C235.407 94.9041 239.274 94.247 244.33 95.2175C245.445 97.2597 245.986 99.4789 246.036 101.956Z" fill="#DDAD92"/>
<path d="M266.355 158.978L265.26 156.13L262.741 152.516C260.806 154.086 255.775 157.576 251.131 158.978C245.327 160.73 231.198 161.059 225.284 161.059C219.369 161.059 217.727 156.13 215.426 157.225C213.126 158.321 211.812 164.125 211.812 167.083C211.812 169.448 214.879 171.646 216.412 172.449L217.727 168.616C219.698 168.433 224.736 168.528 229.117 170.368C233.498 172.208 240.215 180.262 243.027 184.059L243.574 189.981C246.641 189.762 255.096 188.352 259.127 184.059C263.157 179.765 264.895 168.981 265.26 164.125L266.355 158.978Z" fill="#D77418"/>
<path d="M314.329 161.259C311.588 153.042 302.491 150.932 299.825 153.118C302.681 155.832 303.653 157.134 299.241 163.586C297.74 164.066 285.665 168.333 278.762 172.337C271.859 176.342 267.265 189.494 265.831 195.569C262.034 199.794 253.858 208.356 251.535 208.803C248.631 209.361 249.227 215.939 250.116 220.563C250.828 224.263 255.418 224.934 257.625 224.807C257.625 224.807 278.855 235.561 282.676 234.558C286.497 233.555 288.588 225.287 287.045 222.182C285.501 219.076 278.107 217.411 276.144 215.557C274.182 213.704 272.472 207.676 271.862 204.893L312.869 170.216C312.856 170.234 312.843 170.252 312.831 170.269C310.673 172.211 311.615 171.953 312.831 170.269C313.075 170.05 313.358 169.802 313.686 169.525L312.869 170.216C314.125 168.453 315.639 165.186 314.329 161.259Z" fill="#B89988"/>
<path d="M268.328 220.43C272.052 222.182 276.761 219.882 279.828 220.43C281.9 220.8 282.972 222.081 283.387 222.955C283.256 227.779 282.274 231.897 281.799 233.353C281.69 235.705 275.944 233.457 268.328 229.849C262.549 227.11 254.251 224.482 252.473 223.715C250.695 222.949 251.133 218.896 251.133 216.925C251.133 214.953 253.214 213.42 256.171 213.968C259.128 214.515 264.604 218.677 268.328 220.43Z" fill="#846B5D"/>
<path opacity="0.4" d="M270.654 220.101C271.53 217.735 275.473 217.363 277.335 217.472L266.383 213.42C264.922 213.42 252.946 213.463 251.268 215.939C248.968 219.334 250.502 221.955 251.378 222.948C253.021 224.81 262.44 226.891 268.792 230.177C269.23 227.658 269.778 222.466 270.654 220.101Z" fill="#1C0D3F"/>
<path d="M243.448 55.4838C242.483 54.7066 241.345 54.3277 240.039 54.2787C238.328 54.1241 236.829 54.6786 235.555 55.8054C234.479 57.0192 234.014 58.3571 234.22 59.8938C232.795 59.627 231.626 59.5903 230.637 59.846C229.505 60.1577 228.61 60.9048 227.82 62.0064C227.329 62.8591 227.044 63.7302 227.025 64.6946C227.007 65.659 227.275 66.5112 227.748 67.382C226.716 67.3577 225.839 67.8994 225.13 68.8704C224.503 69.7106 224.223 70.5134 224.286 71.3471C224.28 72.1745 224.492 72.8837 224.977 73.6176C225.469 74.283 226.048 74.7493 226.85 75.0289C226.21 75.247 225.687 75.6828 225.346 76.4109C224.935 77.1328 224.799 77.8795 224.868 78.6447C225.005 79.4162 225.285 80.1315 225.845 80.8031C226.343 81.4001 226.99 81.8726 227.799 82.0837C227.339 82.5941 227.004 83.2538 226.861 84.0689C226.712 84.9525 226.849 85.7239 227.341 86.3893C227.833 87.0548 228.474 87.5957 229.208 87.8691C230.01 88.1486 230.831 88.2228 231.677 88.0233C231.591 88.9814 231.865 89.7652 232.425 90.4369C232.985 91.1085 233.769 91.5934 234.777 91.8914C235.449 92.0902 236.288 91.959 237.221 91.5604C238.228 91.0994 238.9 90.5391 239.235 89.8794C239.652 89.089 240.84 88.9204 242.812 89.2366C243.085 89.2614 243.415 89.4292 243.956 89.5471C244.354 89.7211 244.628 89.7458 244.833 89.7643C249.978 90.0913 254.897 89.0869 259.586 86.8197C261.545 85.7547 263.323 84.3974 264.995 82.6855C266.494 82.131 267.277 81.0977 267.482 79.5982C267.674 78.2356 267.288 77.1657 266.385 76.4631C267.038 76.1081 267.641 75.5416 267.977 74.8819C268.381 74.2284 268.586 73.4879 268.592 72.6605C268.591 71.9014 268.317 71.1176 267.962 70.4646C267.539 69.8053 267.035 69.2767 266.313 68.8665C266.829 68.4991 267.146 68.0448 267.27 67.435C267.463 66.8314 267.376 66.2715 267.151 65.6992C266.859 65.1208 266.479 64.7415 265.956 64.4182C265.434 64.095 264.824 63.9709 264.196 64.0521C264.93 63.5664 265.334 62.9129 265.551 62.0355C265.7 61.152 265.563 60.3806 265.071 59.7151L265.009 59.6405C264.38 58.9627 263.658 58.5525 262.769 58.4721C261.879 58.3917 261.033 58.5912 260.3 59.0769C260.374 58.2556 260.237 57.4842 259.82 56.7565C259.403 56.0288 258.83 55.494 258.034 55.1461C257.237 54.7981 256.416 54.7239 255.57 54.9234C254.725 55.123 254.003 55.4718 253.394 56.1067C253.475 55.976 253.232 55.6091 252.61 54.8628C252.367 54.4959 251.987 54.1166 251.471 53.7249C250.562 53.0908 249.623 52.7989 248.522 52.7684C247.496 52.6756 246.513 52.8628 245.568 53.3984C244.635 53.7971 243.951 54.4943 243.448 55.4838Z" fill="#263238"/>
<path d="M239.702 78.4422C240.516 76.4626 241.004 75.3901 241.004 75.3078C241.653 73.2467 241.972 71.1871 241.962 69.0468C245.409 67.3017 249.355 66.5421 253.883 66.9322C257.916 67.2424 260.8 68.1342 262.453 69.6082C262.62 70.1836 262.705 70.7595 262.79 71.3353C262.875 71.8289 262.877 72.3228 262.962 72.8163C263.049 73.8861 263.218 74.8732 263.223 75.861C263.484 78.741 263.495 81.2106 263.422 83.1867C263.424 83.5983 263.344 83.928 263.346 84.3396C263.109 86.4811 262.708 88.788 262.062 91.2607C261.495 93.1568 260.761 94.6421 259.697 95.7173C259.533 95.8827 259.287 96.1309 259.123 96.214L258.631 96.5456L258.549 96.6283C258.549 96.6283 258.467 96.6287 258.467 96.711C258.385 96.7114 258.385 96.7937 258.303 96.7941C258.303 96.7941 258.303 96.7941 258.221 96.7945L257.482 97.1273C257.071 97.2939 256.66 97.3782 256.167 97.4628C254.439 97.5533 252.793 97.4788 251.147 97.2397C250.982 97.2404 250.735 97.1593 250.57 97.1601L250.684 103.828C250.951 107.942 248.569 108.942 243.704 106.824C243.374 106.579 242.879 106.334 242.302 106.008C238.753 103.884 236.936 102.411 236.932 101.423L236.782 87.3468L235.965 88.5032C235.063 89.1661 233.747 89.2546 232.016 88.6866C230.698 88.2812 229.623 87.1338 228.71 85.4094C227.713 83.5207 227.54 81.7928 228.274 80.3075C228.844 79.1523 229.582 78.4902 230.651 78.3205C230.815 78.3197 231.062 78.2362 231.227 78.3178C232.214 78.3954 233.121 78.7204 233.783 79.4581C234.445 80.1959 234.941 80.6875 235.189 80.9333C235.767 81.4245 236.098 81.7522 236.098 81.9168C236.099 82.0815 236.51 81.9972 237.25 81.829C237.989 81.5786 238.807 80.4222 239.702 78.4422Z" fill="#DDAD92"/>
<path d="M245.996 98.3782C243.359 97.4031 241.545 96.4241 240.717 95.3581C239.807 94.2102 239.143 92.9789 238.56 91.5003C239.307 92.9781 240.464 94.0425 241.866 94.7766C242.855 95.2657 244.668 95.9155 247.304 96.5614L251.009 97.3668L250.853 99.1781C249.619 99.1017 248.055 98.8622 245.996 98.3782Z" fill="black" fill-opacity="0.149"/>
<path d="M236.683 75.503C237.527 73.441 238.383 73.7662 239.25 76.6433C239.099 80.8425 239.454 83.5574 240.399 84.8701C241.086 85.7724 242.114 86.4261 243.482 86.9135C244.936 87.4006 246.643 87.4748 248.52 87.1366C249.714 86.9663 251.591 86.5458 254.149 86.0397C255.258 85.8698 256.369 86.0292 257.48 86.3532C259.362 87.0029 260.473 87.3269 260.644 87.3261C261.157 87.4883 261.584 87.4863 261.925 87.4023C262.351 87.318 262.692 87.0694 262.86 86.5747C263.45 85.0901 263.695 82.6192 263.594 79.3268L264.183 77.5953L264.035 82.2883C263.966 85.7462 263.891 88.0516 263.641 89.2053C263.395 91.3468 263.145 92.6651 262.892 93.2426C262.471 94.5617 261.707 95.5532 260.601 96.217C259.239 97.129 257.363 97.6319 254.973 97.7255C252.413 97.9023 249.68 97.6683 246.774 96.9412C241.56 95.6488 238.563 93.7696 237.783 91.3036C236.917 88.6734 236.477 86.0412 236.38 83.4897C236.284 81.3498 236.107 79.9511 235.848 79.3761C235.504 78.8838 235.84 77.5651 236.683 75.503Z" fill="#263238"/>
<path opacity="0.2" d="M226.052 138.395L226.052 117.805L215.319 110.686L215.319 128.319C215.209 132.879 215.399 140.025 215.509 147.313C215.307 149.385 215.373 151.441 215.574 153.43L215.467 155.413C215.418 156.014 215.372 156.609 215.372 157.17C212.725 162.819 214.66 168.649 215.64 170.999C218.171 177.064 218.152 192.634 216.305 192.61L218.714 205.424L220.467 192.5L220.467 180.015L224.19 167.748C223.679 166.616 223.144 164.059 223.419 163.083C223.592 162.465 223.679 161.273 224.19 160.908L224.19 156.029L224.19 146.172C224.811 144.565 226.052 140.761 226.052 138.395Z" fill="#1C0D3F"/>
<path d="M189.927 178.963C194.174 181.405 193.918 186.325 193.334 190.238L184.837 192.477C184.837 192.477 184.778 192.48 184.782 192.535C184.337 192.605 178.6 195.281 177.461 195.42C176.944 195.483 176.507 194.08 178.904 192.663C175.866 192.981 173.952 193.604 173.058 193.009C171.611 192.047 172.13 189.89 171.817 188.309C171.504 186.728 175.453 185.106 176.462 183.723C177.48 182.449 180.917 181.292 182.614 181.026C182.723 181.009 182.894 180.95 182.963 180.95C185.881 180.458 187.377 179.987 189.927 178.963Z" fill="#DDAD92"/>
<path d="M213.949 113.519C214.883 111.725 216.262 110.503 218.14 109.872C220.07 109.259 221.967 109.403 223.76 110.337C225.553 111.27 226.721 112.631 227.333 114.562C227.997 116.511 227.853 118.408 226.938 120.15C226.773 120.446 226.609 120.742 226.444 121.038L226.602 121.094L208.94 151.307L198.659 179.519C197.308 183.696 194.58 191.496 192.292 190.2C190.469 189.168 189.215 179.184 187.061 180.015L192.292 154.701C192.832 151.517 194.85 146.942 194.943 146.68C195.133 145.98 195.376 145.298 195.705 144.706C195.705 144.706 195.723 144.654 195.742 144.602C195.742 144.602 195.761 144.549 195.813 144.568L195.832 144.515C195.832 144.515 195.832 144.515 195.85 144.463C195.977 144.272 196.104 144.081 196.231 143.89L213.71 114.024C213.766 113.867 213.841 113.657 213.949 113.519Z" fill="#DDAD92"/>
<path d="M200.234 146.51L200.525 149.445" stroke="black" stroke-width="2" stroke-linecap="round"/>
<path d="M202.741 151.11L202.025 153.971" stroke="black" stroke-width="2" stroke-linecap="round"/>
<path d="M196.313 157.119L195.596 159.98" stroke="black" stroke-width="2" stroke-linecap="round"/>
<path d="M196.167 150.584L195.025 154.447" stroke="black" stroke-width="2" stroke-linecap="round"/>
<path d="M198.607 160.797L197.858 162.834" stroke="black" stroke-width="2" stroke-linecap="round"/>
<path d="M201.565 156.513L200.816 158.55" stroke="black" stroke-width="2" stroke-linecap="round"/>
<path d="M198.968 148.966L198.6 151.892" stroke="black" stroke-width="2" stroke-linecap="round"/>
<path d="M199.605 153.971L198.657 156.764" stroke="black" stroke-width="2" stroke-linecap="round"/>
<path d="M305.308 154.062C301.953 150.492 304.12 146.269 305.815 142.694L313.608 143.058C313.608 143.058 313.666 143.072 313.677 143.018C314.123 143.08 319.809 142.821 320.939 143.018L321.546 143.416C321.546 143.416 321.868 145.946 321.788 147.406C321.651 149.895 321.546 151.401 320.671 152.562C320.015 153.111 320.448 152.835 319.081 153.866C317.737 154.79 314.113 154.899 312.411 154.661C312.354 154.647 312.285 154.687 312.228 154.674C312.17 154.66 312.113 154.646 312.055 154.632L305.308 154.062Z" fill="#846B5D"/>
<path d="M318.007 144.875L317.618 140.645L314.854 139.19C313.637 138.549 312.139 138.818 311.221 139.844L310.411 140.749C309.809 141.422 309.542 142.33 309.684 143.222L310.368 147.51C310.67 147.755 311.706 148.028 313.432 147.164C315.159 146.3 314.612 144.272 314.122 143.365L315.158 142.847L315.547 144.919L318.007 144.875Z" fill="#DDAD92"/>
<ellipse cx="0.985717" cy="1.75239" rx="0.985717" ry="1.75239" transform="matrix(-1 0 0 1 263.073 159.197)" fill="#563A0F"/>
<ellipse cx="1.21139" cy="2.24505" rx="1.21139" ry="2.24505" transform="matrix(-0.996541 -0.0831026 -0.0831026 0.996541 261.325 165.313)" fill="#563A0F"/>
<ellipse cx="1.21139" cy="2.24505" rx="1.21139" ry="2.24505" transform="matrix(-0.998551 0.0538154 0.0538154 0.998551 247.499 177.597)" fill="#563A0F"/>
<ellipse cx="0.82518" cy="1.52929" rx="0.82518" ry="1.52929" transform="matrix(-0.998551 0.0538154 0.0538154 0.998551 255.242 162.044)" fill="#563A0F"/>
<ellipse cx="0.82518" cy="2.0521" rx="0.82518" ry="2.0521" transform="matrix(-0.996942 -0.0781395 -0.0781395 0.996942 265.531 156.951)" fill="#563A0F"/>
<ellipse cx="0.802714" cy="2.81558" rx="0.802714" ry="2.81558" transform="matrix(-0.965926 -0.258819 -0.258819 0.965926 262.727 173.642)" fill="#563A0F"/>
<ellipse cx="1.21139" cy="2.24505" rx="1.21139" ry="2.24505" transform="matrix(-0.949211 -0.314639 -0.314639 0.949211 256.151 179.906)" fill="#563A0F"/>
<ellipse cx="1.76887" cy="2.36908" rx="1.76887" ry="2.36908" transform="matrix(-0.999966 -0.00821923 -0.00821923 0.999966 255.437 169.522)" fill="#563A0F"/>
<ellipse cx="1.76887" cy="2.36908" rx="1.76887" ry="2.36908" transform="matrix(-0.966194 0.257817 0.257817 0.966194 247.174 164.673)" fill="#563A0F"/>
<ellipse cx="1.21139" cy="2.24505" rx="1.21139" ry="2.24505" transform="matrix(-0.958188 0.28614 0.28614 0.958188 240.575 169.52)" fill="#563A0F"/>
<ellipse cx="1.0422" cy="1.66403" rx="1.0422" ry="1.66403" transform="matrix(-0.902884 0.429884 0.429884 0.902884 234.88 166.903)" fill="#563A0F"/>
<ellipse cx="0.872323" cy="1.66403" rx="0.872323" ry="1.66403" transform="matrix(-0.601449 0.798912 0.798912 0.601449 227.198 163.256)" fill="#563A0F"/>
<path d="M257.487 110.787L258.473 114.182" stroke="black" stroke-width="2" stroke-linecap="round"/>
<path d="M250.088 116.646L250.538 120.153" stroke="black" stroke-width="2" stroke-linecap="round"/>
<path d="M243.48 118.892L243.93 122.399" stroke="black" stroke-width="2" stroke-linecap="round"/>
<path d="M252.744 121.336L251.751 125.192" stroke="black" stroke-width="2" stroke-linecap="round"/>
<path d="M247.95 114.718L247.781 118.249" stroke="black" stroke-width="2" stroke-linecap="round"/>
<path d="M245.229 112.633L245.06 116.164" stroke="black" stroke-width="2" stroke-linecap="round"/>
<path d="M256.485 113.793L256.847 117.31" stroke="black" stroke-width="2" stroke-linecap="round"/>
<path d="M257.455 121.139L256.05 124.383" stroke="black" stroke-width="2" stroke-linecap="round"/>
<path d="M254.107 112.05L254.579 114.962" stroke="black" stroke-width="2" stroke-linecap="round"/>
<path d="M234.761 114.399L235.233 117.31" stroke="black" stroke-width="2" stroke-linecap="round"/>
<path d="M241.546 122.086L242.825 124.744" stroke="black" stroke-width="2" stroke-linecap="round"/>
<path d="M252.266 114.273L252.26 117.223" stroke="black" stroke-width="2" stroke-linecap="round"/>
<path d="M241.552 110.787L241.546 113.736" stroke="black" stroke-width="2" stroke-linecap="round"/>
<path d="M254.437 116.702L254.631 121.139" stroke="black" stroke-width="2" stroke-linecap="round"/>
<path d="M237.737 118.045L239.136 122.26" stroke="black" stroke-width="2" stroke-linecap="round"/>
<path d="M237.688 110.424L239.185 115.653" stroke="black" stroke-width="2" stroke-linecap="round"/>
<path d="M248.614 119.12L248.94 124.5" stroke="black" stroke-width="2" stroke-linecap="round"/>
<path d="M246.105 118.235L246.43 123.615" stroke="black" stroke-width="2" stroke-linecap="round"/>
<path d="M240.983 116.898L241.712 120.577" stroke="black" stroke-width="2" stroke-linecap="round"/>
<path d="M217.852 180.892C216.954 178.186 215.977 173.444 216.634 171.472C216.634 171.472 225.881 166.022 231.858 169.611C237.835 173.199 242.92 181.548 243.577 186.477C244.234 191.406 244.343 199.51 244.343 199.51C244.343 199.51 237.68 210.499 233.2 210.977C228.72 211.455 218.35 208.435 218.072 205.644C218.072 196.334 217.852 191.057 217.852 180.892Z" fill="#B89988"/>
<path d="M221.412 215.798C217.234 213.081 218.057 209.149 218.057 204.987L230.907 202.797C234.907 201.396 243.808 198.548 247.409 198.357C251.909 198.119 268.069 202.928 273.174 202.946C278.28 202.963 279.469 199.305 283.488 197.674C286.703 196.369 291.173 198.623 293.005 199.913L315.473 214.522C317.164 216.148 320.047 219.903 318.055 221.915C316.063 223.927 309.819 225.647 306.946 226.256C305.486 224.926 303.878 228.765 300.354 225.849C296.831 222.933 290.921 219.285 288.406 217.826L279.169 216.894L233.769 220.423C231.172 219.722 225.591 218.516 221.412 215.798Z" fill="#B89988"/>
<path d="M239.834 178.985C238.209 175.831 233.257 171.291 230.985 169.416C229.713 169.29 226.669 169.209 224.664 169.892C222.66 170.574 221.588 173.55 221.303 174.952C221.303 174.952 224.664 192.063 224.664 196.006C224.664 199.949 226.599 206.301 229.228 206.301C231.856 206.301 235.033 203.453 236.565 202.468C238.952 200.933 243.734 197.735 243.685 196.006L242.805 184.561C242.492 184.017 241.459 182.139 239.834 178.985Z" fill="#DDAD92"/>
<path d="M251.79 199.73C254.156 199.817 262.925 202.541 267.014 203.892L242.809 206.082V203.892L245.547 199.73C246.643 199.693 249.425 199.642 251.79 199.73Z" fill="#DDAD92"/>
<path d="M272.735 215.391C280.949 215.939 286.509 216.815 286.509 216.815H274.351C265.334 217.473 245.903 220.193 239.523 220.649C230.323 221.306 226.051 219.882 222.766 218.349C219.48 216.815 219.334 214.661 219.48 213.092C217.618 209.477 220.619 206.849 222.108 209.915C223.598 212.982 229.583 214.734 232.54 215.391C235.497 216.048 248.749 215.391 248.749 215.391C248.749 215.391 264.521 214.844 272.735 215.391Z" fill="#846B5D"/>
<path d="M245.311 215.264L250.7 215.325" stroke="black" stroke-width="2" stroke-linecap="round"/>
<path d="M250.263 211.677L254.615 212.47" stroke="black" stroke-width="2" stroke-linecap="round"/>
<path d="M255.763 209.653L258.901 209.927" stroke="black" stroke-width="2" stroke-linecap="round"/>
<path d="M253.014 214.552L256.152 214.826" stroke="black" stroke-width="2" stroke-linecap="round"/>
<path d="M257.824 212.454L260.953 212.087" stroke="black" stroke-width="2" stroke-linecap="round"/>
<path d="M259.911 214.753L263.039 214.386" stroke="black" stroke-width="2" stroke-linecap="round"/>
<path d="M263.039 210.986L266.089 211.773" stroke="black" stroke-width="2" stroke-linecap="round"/>
<path d="M248.005 210.576L252.428 210.525" stroke="black" stroke-width="2" stroke-linecap="round"/>
<path d="M245.651 207.707L249.83 207.795" stroke="black" stroke-width="2" stroke-linecap="round"/>
<path d="M243.254 212.314L247.368 213.053" stroke="black" stroke-width="2" stroke-linecap="round"/>
<path d="M289.555 179.643L286.321 182.661" stroke="black" stroke-width="2" stroke-linecap="round"/>
<path d="M287.555 184.511L285.463 186.866" stroke="black" stroke-width="2" stroke-linecap="round"/>
<path d="M284.818 179.975L282.727 182.33" stroke="black" stroke-width="2" stroke-linecap="round"/>
<path d="M284.115 184.379L282.543 187.108" stroke="black" stroke-width="2" stroke-linecap="round"/>
<path d="M281.005 185.502L279.432 188.23" stroke="black" stroke-width="2" stroke-linecap="round"/>
<path d="M282.232 189.653L279.78 191.63" stroke="black" stroke-width="2" stroke-linecap="round"/>
<path d="M292.053 179.081L289.454 182.661" stroke="black" stroke-width="2" stroke-linecap="round"/>
<path d="M295.717 177.446L293.153 180.746" stroke="black" stroke-width="2" stroke-linecap="round"/>
<path d="M295.588 172.638L292.539 175.497" stroke="black" stroke-width="2" stroke-linecap="round"/>
<path d="M278.734 182.644C280.925 180.365 290.6 173.224 295.163 169.939L290.563 167.967C287.35 169.574 280.136 173.312 276.982 175.415C273.828 177.518 272.601 181.767 272.382 183.629L273.587 189.653C274.39 188.266 276.544 184.922 278.734 182.644Z" fill="#DDAD92"/>
<path d="M313.921 151.522L318.184 152.999C319.005 153.283 319.888 152.776 320.056 151.923L320.199 151.195C320.314 150.609 319.948 150.036 319.368 149.895L314.734 148.764C313.884 148.557 313.047 149.149 312.961 150.019C312.895 150.682 313.292 151.304 313.921 151.522Z" fill="#DDAD92"/>
<path d="M314.349 155.117L316.457 156.135C317.093 156.442 317.846 156.065 317.982 155.373L318.17 154.416C318.245 154.038 318.025 153.664 317.659 153.544L315.293 152.771C314.524 152.52 313.719 153.045 313.639 153.85C313.586 154.379 313.87 154.885 314.349 155.117Z" fill="#DDAD92"/>
<path d="M315.344 147.857L319.561 149.319C320.373 149.6 321.247 149.098 321.413 148.254L321.554 147.534C321.668 146.954 321.306 146.388 320.732 146.248L316.147 145.129C315.307 144.924 314.479 145.51 314.393 146.371C314.328 147.027 314.721 147.642 315.344 147.857Z" fill="#DDAD92"/>
<path d="M315.605 144.717L320.052 145.296C320.908 145.408 321.666 144.736 321.657 143.872L321.65 143.135C321.644 142.541 321.172 142.057 320.579 142.036L315.841 141.869C314.972 141.838 314.277 142.583 314.368 143.448C314.437 144.106 314.949 144.631 315.605 144.717Z" fill="#DDAD92"/>
<path d="M290.091 174.516L286.826 178.804" stroke="black" stroke-width="2" stroke-linecap="round"/>
<path d="M294.398 140.148C295.362 140.674 302.685 142.12 306.227 142.777L305.46 154.058C298.633 152.743 283.949 149.764 279.831 148.362C275.713 146.96 272.493 144.054 271.398 142.777L280.707 134.891C281.766 134.818 284.738 135 288.155 136.315C292.427 137.958 293.193 139.491 294.398 140.148Z" fill="#846B5D"/>
<path fill-rule="evenodd" clip-rule="evenodd" d="M243.02 75.6016L244.589 71.1945C244.743 70.7616 245.35 70.7483 245.523 71.174L247.246 75.4162C247.435 75.7374 247.543 76.1074 247.543 76.5012C247.543 77.7347 246.486 78.7348 245.182 78.7348C243.878 78.7348 242.821 77.7347 242.821 76.5012C242.821 76.3364 242.84 76.1758 242.876 76.0211L242.871 76.0212L242.886 75.98C242.919 75.849 242.964 75.7225 243.02 75.6016Z" fill="#846B5D"/>
<path fill-rule="evenodd" clip-rule="evenodd" d="M242.225 75.3099L243.793 70.9029C243.947 70.47 244.555 70.4567 244.728 70.8824L246.451 75.1246C246.64 75.4458 246.747 75.8158 246.747 76.2096C246.747 77.4431 245.69 78.4431 244.386 78.4431C243.082 78.4431 242.025 77.4431 242.025 76.2096C242.025 76.0448 242.044 75.8841 242.08 75.7295L242.075 75.7295L242.09 75.6884C242.123 75.5574 242.168 75.4309 242.225 75.3099Z" fill="#6AD9F2"/>
<path d="M243.256 75.6097C243.17 76.0659 243.276 77.0672 244.385 77.4229" stroke="white"/>
<mask id="mask7_931_2681" style="mask-type:alpha" maskUnits="userSpaceOnUse" x="305" y="240" width="45" height="11">
<path d="M327.886 242.793L348.415 240.305C349.627 241.106 348.92 242.298 348.415 242.793L323.842 246.408L319.999 247.572L305.21 250.716L305.909 247.572L315.69 245.593L316.855 243.729L322.288 242.793H327.886Z" fill="#824545"/>
</mask>
<g mask="url(#mask7_931_2681)">
<path d="M307.077 249.19L304.978 250.886L348.508 244.354L349.241 241.545L326.468 244.781L319.771 246.616L307.077 249.19Z" fill="#602B2B"/>
</g>
<path d="M316.849 243.727L315.672 245.61L319.155 244.571L316.849 243.727Z" fill="#602B2B"/>
<defs>
<filter id="filter0_f_931_2681" x="13.615" y="94.8037" width="739.388" height="428.577" filterUnits="userSpaceOnUse" color-interpolation-filters="sRGB">
<feFlood flood-opacity="0" result="BackgroundImageFix"/>
<feBlend mode="normal" in="SourceGraphic" in2="BackgroundImageFix" result="shape"/>
<feGaussianBlur stdDeviation="1" result="effect1_foregroundBlur_931_2681"/>
</filter>
<radialGradient id="paint0_radial_931_2681" cx="0" cy="0" r="1" gradientUnits="userSpaceOnUse" gradientTransform="translate(383.309 260.551) rotate(90) scale(249.595 425.294)">
<stop stop-color="#959595"/>
<stop offset="1" stop-color="#D9D9D9" stop-opacity="0.28"/>
</radialGradient>
<linearGradient id="paint1_linear_931_2681" x1="423.858" y1="179.593" x2="197.826" y2="395.39" gradientUnits="userSpaceOnUse">
<stop stop-color="#5A52BB"/>
<stop offset="1" stop-color="#B3ADF9"/>
</linearGradient>
<linearGradient id="paint2_linear_931_2681" x1="246.276" y1="3.30145" x2="-0.157328" y2="291.502" gradientUnits="userSpaceOnUse">
<stop stop-color="#211697"/>
<stop offset="1" stop-color="#4436E0"/>
</linearGradient>
<linearGradient id="paint3_linear_931_2681" x1="387.701" y1="172.732" x2="468.679" y2="215.714" gradientUnits="userSpaceOnUse">
<stop stop-color="#1B1463"/>
<stop offset="0.676522" stop-color="#1B1463" stop-opacity="0"/>
</linearGradient>
<linearGradient id="paint4_linear_931_2681" x1="498.273" y1="26.1108" x2="496.645" y2="58.2968" gradientUnits="userSpaceOnUse">
<stop stop-color="#D9D9D9"/>
<stop offset="1" stop-color="#999999"/>
</linearGradient>
<linearGradient id="paint5_linear_931_2681" x1="328.028" y1="374.876" x2="358.14" y2="398.111" gradientUnits="userSpaceOnUse">
<stop offset="0.156345" stop-color="#1B1463"/>
<stop offset="1" stop-color="#1B1463" stop-opacity="0"/>
</linearGradient>
<linearGradient id="paint6_linear_931_2681" x1="378.292" y1="360.882" x2="441.534" y2="396.389" gradientUnits="userSpaceOnUse">
<stop stop-color="#1B1463"/>
<stop offset="1" stop-color="#1B1463" stop-opacity="0"/>
</linearGradient>
<linearGradient id="paint7_linear_931_2681" x1="407.539" y1="335.843" x2="524.753" y2="395.225" gradientUnits="userSpaceOnUse">
<stop stop-color="#1B1463"/>
<stop offset="1" stop-color="#1B1463" stop-opacity="0"/>
</linearGradient>
<linearGradient id="paint8_linear_931_2681" x1="466.155" y1="324.094" x2="568.787" y2="376.596" gradientUnits="userSpaceOnUse">
<stop stop-color="#1B1463"/>
<stop offset="1" stop-color="#1B1463" stop-opacity="0"/>
</linearGradient>
<linearGradient id="paint9_linear_931_2681" x1="516.115" y1="62.263" x2="515.332" y2="85.2048" gradientUnits="userSpaceOnUse">
<stop stop-color="#94E69A"/>
<stop offset="1" stop-color="#17ADC9"/>
</linearGradient>
<linearGradient id="paint10_linear_931_2681" x1="553.739" y1="32.768" x2="552.112" y2="64.9541" gradientUnits="userSpaceOnUse">
<stop stop-color="#D9D9D9"/>
<stop offset="1" stop-color="#5F75A0"/>
</linearGradient>
<linearGradient id="paint11_linear_931_2681" x1="256.718" y1="191.391" x2="336.012" y2="245.551" gradientUnits="userSpaceOnUse">
<stop stop-color="#1B1463"/>
<stop offset="1" stop-color="#1B1463" stop-opacity="0"/>
</linearGradient>
<linearGradient id="paint12_linear_931_2681" x1="349.439" y1="200.914" x2="378.003" y2="215.891" gradientUnits="userSpaceOnUse">
<stop stop-color="#1B1463"/>
<stop offset="0.837465" stop-color="#1B1463" stop-opacity="0"/>
</linearGradient>
<linearGradient id="paint13_linear_931_2681" x1="182.259" y1="189.979" x2="242.801" y2="220.93" gradientUnits="userSpaceOnUse">
<stop stop-color="#1B1463"/>
<stop offset="0.837465" stop-color="#1B1463" stop-opacity="0"/>
</linearGradient>
<linearGradient id="paint14_linear_931_2681" x1="372.493" y1="180.971" x2="381.057" y2="185.524" gradientUnits="userSpaceOnUse">
<stop stop-color="#1B1463"/>
<stop offset="1" stop-color="#1B1463" stop-opacity="0"/>
</linearGradient>
<linearGradient id="paint15_linear_931_2681" x1="354.216" y1="178.744" x2="360.951" y2="183.146" gradientUnits="userSpaceOnUse">
<stop stop-color="#1B1463"/>
<stop offset="1" stop-color="#1B1463" stop-opacity="0"/>
</linearGradient>
</defs>
</svg>
