<svg width="767" height="500" viewBox="0 0 767 500" fill="none" xmlns="http://www.w3.org/2000/svg">
<g filter="url(#filter0_f_937_4245)">
<path d="M357.328 79.3704C371.677 71.0862 394.941 71.0862 409.29 79.3704L740.241 270.446C754.59 278.73 754.59 292.161 740.241 300.446L409.29 491.521C394.941 499.805 371.677 499.805 357.328 491.521L26.3763 300.446C12.0275 292.161 12.0276 278.73 26.3763 270.446L357.328 79.3704Z" fill="url(#paint0_radial_937_4245)"/>
</g>
<rect width="442.15" height="442.15" rx="30" transform="matrix(0.866025 0.5 -0.866025 0.5 383.417 45.7844)" fill="url(#paint1_linear_937_4245)"/>
<path d="M15.6147 253.549C15.6471 258.332 15.7222 266.817 15.7222 266.817L25.8845 269.394L27.6297 255.578L15.6147 253.549Z" fill="#B3ADF9"/>
<path d="M751.219 253.549C751.186 258.332 751.111 266.817 751.111 266.817L740.949 269.394L739.204 255.578L751.219 253.549Z" fill="#5B52BC"/>
<rect width="442.295" height="442.295" rx="30" transform="matrix(0.866025 0.5 -0.866025 0.5 383.417 32.0815)" fill="url(#paint2_linear_937_4245)"/>
<mask id="mask0_937_4245" style="mask-type:alpha" maskUnits="userSpaceOnUse" x="15" y="40" width="737" height="426">
<rect width="442.295" height="442.295" rx="30" transform="matrix(0.866025 0.5 -0.866025 0.5 383.417 32.0815)" fill="#1B127D"/>
</mask>
<g mask="url(#mask0_937_4245)">
<g opacity="0.2">
<path d="M55.2857 281.552L471.773 44.6045C488.139 35.3663 47.1989 286.171 55.2857 281.552Z" stroke="white" stroke-width="1.5" stroke-linecap="round" stroke-dasharray="2 7"/>
<path d="M119.815 320.101L536.303 83.1538C552.669 73.9156 111.728 324.72 119.815 320.101Z" stroke="white" stroke-width="1.5" stroke-linecap="round" stroke-dasharray="2 7"/>
<path d="M538.833 401.701L122.724 166.497C101.944 154.772 549.1 407.563 538.833 401.701Z" stroke="white" stroke-width="1.5" stroke-linecap="round" stroke-dasharray="2 7"/>
<path d="M472.547 439.825L56.4378 204.621C35.658 192.896 482.814 445.687 472.547 439.825Z" stroke="white" stroke-width="1.5" stroke-linecap="round" stroke-dasharray="2 7"/>
<path d="M598.672 350.872L197.559 124.027C176.779 112.301 598.672 350.872 598.672 350.872Z" stroke="white" stroke-width="1.5" stroke-linecap="round" stroke-dasharray="2 7"/>
<path d="M751.064 281.515L334.955 46.3108C314.176 34.5854 761.332 287.377 751.064 281.515Z" stroke="white" stroke-width="1.5" stroke-linecap="round" stroke-dasharray="2 7"/>
<path d="M679.91 321.975L266.062 85.7916C245.282 74.0662 690.178 327.838 679.91 321.975Z" stroke="white" stroke-width="1.5" stroke-linecap="round" stroke-dasharray="2 7"/>
<path d="M188.248 358.518L604.299 120.922C620.666 111.684 180.161 363.137 188.248 358.518Z" stroke="white" stroke-width="1.5" stroke-linecap="round" stroke-dasharray="2 7"/>
<path d="M258.017 397.982L674.069 160.386C690.435 151.148 249.93 402.601 258.017 397.982Z" stroke="white" stroke-width="1.5" stroke-linecap="round" stroke-dasharray="2 7"/>
<path d="M321.698 434.692L737.75 197.096C754.116 187.858 313.612 439.312 321.698 434.692Z" stroke="white" stroke-width="1.5" stroke-linecap="round" stroke-dasharray="2 7"/>
<path d="M617.357 188.618L622.914 191.823L611.615 198.435L622.914 204.827L618.121 207.971L605.812 201.683L594.501 207.951L589.07 204.827L600.01 198.436L590.292 192.997L595.406 190.171L605.812 195.188L617.357 188.618Z" fill="#979797"/>
<path d="M398.548 388.757L401.658 390.551L395.334 394.252L401.658 397.829L398.975 399.589L392.085 396.07L385.755 399.578L382.715 397.829L388.838 394.252L383.399 391.208L386.261 389.626L392.085 392.434L398.548 388.757Z" fill="white"/>
<path d="M465.57 350.573L468.681 352.367L462.356 356.068L468.681 359.646L465.998 361.405L459.108 357.886L452.777 361.394L449.737 359.646L455.86 356.068L450.421 353.024L453.283 351.442L459.108 354.25L465.57 350.573Z" fill="white"/>
<path d="M539.995 308.093L543.105 309.887L536.781 313.588L543.105 317.166L540.423 318.925L533.533 315.406L527.202 318.914L524.162 317.166L530.285 313.588L524.846 310.544L527.708 308.962L533.533 311.77L539.995 308.093Z" fill="white"/>
<path d="M605.295 269.99L608.405 271.784L602.081 275.484L608.405 279.062L605.723 280.822L598.833 277.303L592.502 280.811L589.462 279.062L595.585 275.485L590.146 272.441L593.008 270.859L598.833 273.667L605.295 269.99Z" fill="white"/>
<path d="M676.171 229.582L679.281 231.376L672.957 235.076L679.281 238.654L676.598 240.414L669.708 236.894L663.378 240.403L660.338 238.654L666.461 235.077L661.022 232.032L663.884 230.451L669.708 233.259L676.171 229.582Z" fill="white"/>
<path d="M542.239 154.148L545.349 155.942L539.025 159.642L545.349 163.22L542.667 164.98L535.777 161.461L529.446 164.969L526.406 163.22L532.529 159.643L527.09 156.599L529.952 155.017L535.777 157.825L542.239 154.148Z" fill="white"/>
<path d="M474.42 115.821L477.531 117.615L471.206 121.316L477.531 124.894L474.848 126.653L467.958 123.134L461.627 126.642L458.587 124.894L464.71 121.316L459.271 118.272L462.134 116.69L467.958 119.498L474.42 115.821Z" fill="white"/>
<path d="M401.161 314.351L404.271 316.145L397.947 319.845L404.271 323.423L401.589 325.183L394.699 321.663L388.368 325.172L385.328 323.423L391.451 319.846L386.012 316.801L388.874 315.22L394.699 318.028L401.161 314.351Z" fill="white"/>
<path d="M331.043 274.613L334.153 276.407L327.829 280.108L334.153 283.686L331.471 285.445L324.581 281.926L318.25 285.434L315.21 283.686L321.333 280.108L315.894 277.064L318.756 275.482L324.581 278.29L331.043 274.613Z" fill="white"/>
<path d="M262.888 236.491L265.999 238.285L259.674 241.986L265.999 245.564L263.316 247.324L256.426 243.804L250.095 247.313L247.056 245.564L253.179 241.987L247.739 238.942L250.602 237.361L256.426 240.169L262.888 236.491Z" fill="white"/>
<path d="M338.753 118.18L341.863 119.974L335.539 123.675L341.863 127.252L339.181 129.012L332.291 125.493L325.96 129.001L322.92 127.252L329.043 123.675L323.604 120.631L326.466 119.049L332.291 121.857L338.753 118.18Z" fill="white"/>
<path d="M408.722 78.5204L411.833 80.3144L405.508 84.0151L411.833 87.5929L409.15 89.3525L402.26 85.8332L395.929 89.3414L392.89 87.5929L399.013 84.0156L393.573 80.9713L396.436 79.3895L402.26 82.1975L408.722 78.5204Z" fill="white"/>
<path d="M405.931 232.272L409.042 234.066L402.717 237.767L409.042 241.345L406.359 243.104L399.469 239.585L393.138 243.093L390.099 241.345L396.222 237.767L390.782 234.723L393.645 233.141L399.469 235.949L405.931 232.272Z" fill="white"/>
<path d="M337.657 193.984L340.767 195.778L334.443 199.479L340.767 203.057L338.085 204.817L331.195 201.297L324.864 204.805L321.824 203.057L327.947 199.48L322.508 196.435L325.37 194.854L331.195 197.662L337.657 193.984Z" fill="white"/>
<path d="M404.988 155.599L408.098 157.393L401.774 161.093L408.098 164.671L405.416 166.431L398.526 162.911L392.195 166.42L389.155 164.671L395.278 161.094L389.839 158.05L392.701 156.468L398.526 159.276L404.988 155.599Z" fill="white"/>
<path d="M472.36 194.671L475.47 196.465L469.146 200.165L475.47 203.743L472.787 205.503L465.897 201.983L459.567 205.492L456.527 203.743L462.65 200.166L457.211 197.121L460.073 195.54L465.897 198.348L472.36 194.671Z" fill="white"/>
<path d="M334.777 352.296L337.888 354.09L331.563 357.79L337.888 361.368L335.205 363.128L328.315 359.608L321.984 363.117L318.944 361.368L325.067 357.791L319.628 354.746L322.49 353.165L328.315 355.973L334.777 352.296Z" fill="white"/>
<path d="M264.657 313.035L267.768 314.829L261.443 318.53L267.768 322.108L265.085 323.867L258.195 320.348L251.864 323.856L248.825 322.108L254.948 318.53L249.508 315.486L252.371 313.904L258.195 316.712L264.657 313.035Z" fill="white"/>
<path d="M196.679 274.157L199.789 275.951L193.465 279.651L199.789 283.229L197.107 284.989L190.217 281.47L183.886 284.978L180.846 283.229L186.969 279.652L181.53 276.608L184.392 275.026L190.217 277.834L196.679 274.157Z" fill="white"/>
<path d="M130.292 236.876L133.402 238.67L127.078 242.37L133.402 245.948L130.72 247.708L123.83 244.188L117.499 247.697L114.459 245.948L120.582 242.371L115.143 239.326L118.005 237.745L123.83 240.553L130.292 236.876Z" fill="white"/>
<path d="M481.089 267.092L486.646 270.297L475.346 276.908L486.646 283.3L481.853 286.444L469.543 280.157L458.233 286.424L452.802 283.3L463.741 276.909L454.023 271.47L459.137 268.644L469.543 273.661L481.089 267.092Z" fill="#979797"/>
</g>
</g>
<path d="M284.105 270.965L178.148 194.855L200.781 162.116L238.177 152.19L361.257 203.669L284.105 270.965Z" fill="url(#paint3_linear_937_4245)"/>
<path d="M437.685 441.379L378.617 409.333L401.249 376.594L518.776 330.875L581.934 359.794L437.685 441.379Z" fill="url(#paint4_linear_937_4245)"/>
<path d="M198.313 220.76L187.78 214.284L195.663 213.553L203.445 217.86L198.313 220.76Z" fill="url(#paint5_linear_937_4245)"/>
<path d="M179.227 219.295L165.771 211.305L174.604 210.562L186.374 217.042L179.227 219.295Z" fill="url(#paint6_linear_937_4245)"/>
<path d="M306.748 178.831L281.095 168.191L299.106 167.152L318.285 172.01L306.748 178.831Z" fill="url(#paint7_linear_937_4245)"/>
<path d="M210.815 76.9997C212.479 75.9364 214.322 75.5829 216.262 76.0336C218.253 76.4628 219.781 77.5099 220.844 79.1751C221.025 79.4612 221.228 79.7986 221.408 80.0847L221.489 79.9902L239.085 111.16L239.055 111.232C239.344 111.775 239.53 112.361 239.644 112.917C239.879 113.904 239.858 115 239.61 116.131C239.182 118.123 238.114 119.599 236.449 120.662C234.734 121.747 232.891 122.101 230.9 121.672C228.96 121.221 227.433 120.174 226.347 118.457C226.326 118.406 226.304 118.355 226.283 118.303C226.145 118.12 226.08 117.966 225.994 117.761L224.649 115.429L208.911 87.5226C208.795 87.3903 208.657 87.2068 208.541 87.0746C207.499 85.4606 207.145 83.6173 207.574 81.6256C208.002 79.6338 209.1 78.0847 210.815 76.9997Z" fill="#846B5D"/>
<path d="M227.091 89.9396L219.424 77.892L216.029 88.1872C217.818 91.473 221.899 98.833 223.915 101.987C225.93 105.142 228.259 105.054 229.172 104.616L231.472 98.0444L227.091 89.9396Z" fill="#B89988"/>
<path d="M173.664 131.384C173.581 130.706 173.581 130.029 173.498 129.351C173.251 122.09 175.244 115.701 179.476 110.281C183.707 104.861 188.934 102.055 195.155 101.669C201.375 101.38 206.849 103.705 211.493 108.644C216.136 113.583 218.54 119.78 218.786 127.04C218.786 127.331 218.786 127.525 218.786 127.815C218.952 128.977 219.034 130.139 219.117 131.3C219.364 138.852 217.454 145.241 213.388 150.467C209.24 155.694 203.765 158.403 197.129 158.401C191.904 158.4 187.259 157.43 183.112 155.493C181.288 154.912 179.629 153.846 177.971 152.49C175.483 149.488 174.157 146.487 173.992 143.389C173.827 140.388 173.744 138.645 173.745 138.161C173.662 135.257 173.58 132.933 173.664 131.384Z" fill="#B89988"/>
<path d="M222.995 159.642C220.232 160.346 217.658 161.082 215.333 161.746L208.914 139.281L212.23 137.055L259.364 130.536C259.364 130.536 262.129 137.955 262.288 142.458C262.447 146.961 261.801 148.98 261.635 149.027C245.73 153.401 232.898 156.897 222.995 159.642Z" fill="#846B5D"/>
<path d="M173.558 139.008C173.47 138.43 173.47 137.851 173.47 137.273C173.207 131.073 175.332 125.619 179.846 120.991C184.361 116.364 189.936 113.968 196.573 113.722C203.21 113.476 209.049 115.461 214.003 119.678C218.957 123.895 221.522 129.186 221.786 135.385C221.786 135.633 221.786 135.799 221.786 136.047C221.962 137.039 222.051 138.031 222.139 139.022C222.402 145.47 220.366 150.925 215.94 155.387C211.514 159.849 205.762 162.079 198.683 162.077C193.108 162.075 188.153 161.247 183.729 159.593C181.782 159.097 180.013 158.187 178.243 156.946C175.589 154.383 174.174 151.821 173.998 149.258C173.822 146.696 173.734 145.208 173.734 144.795C173.558 142.315 173.47 140.331 173.558 139.008Z" fill="#B89988"/>
<path d="M204.853 76.3587C205.05 75.6914 213.496 75.2686 216.791 76.3587C220.131 77.5026 220.07 78.7931 221.603 81.5062C223.137 84.2194 225.008 97.3583 224.232 100.782C223.511 104.218 222.609 108.632 219.497 131.582C212.761 133.888 203.924 134.026 193.048 131.965C188.621 131.124 184.584 130.055 180.844 128.651C177.304 127.376 175.038 126.621 173.592 125.387L172.872 99.7968C173.308 97.7184 172.488 94.2618 172.872 90.2682C173.222 86.976 176.585 84.0739 177.143 83.0396C180.844 80.3097 185.162 75.1545 193.048 73.8397C193.549 74.4319 195.327 79.0223 195.982 79.4253C198.498 80.9721 200.629 83.4746 203.21 82.8206C205.402 82.395 204.853 78.9872 204.853 76.3587Z" fill="#B89988"/>
<path d="M204.853 76.3586C205.05 75.6914 213.496 75.2686 216.791 76.3587C220.131 77.5025 220.07 78.7931 221.603 81.5062C223.137 84.2194 225.008 97.3582 224.232 100.782C223.511 104.218 226.588 82.2133 223.476 105.164C223.238 106.916 223.914 108.23 213.51 109.325C204.853 106.04 201.382 112.392 191.495 112.392C185.252 112.392 183.522 94.897 182.076 93.6635L172.872 99.7967C173.308 97.7184 172.488 96.4523 172.872 92.4586C173.222 89.1665 175.052 86.0453 175.61 85.011C178.09 81.5902 185.162 75.1545 193.048 73.8396C193.549 74.4319 195.327 79.0223 195.982 79.4253C198.498 80.972 200.629 83.4745 203.21 82.8206C205.402 82.3949 204.853 78.9872 204.853 76.3586Z" fill="#DDAD92"/>
<path d="M204.141 80.0129C204.107 82.4089 204.067 84.4747 203.935 86.1293C194.263 81.4535 189.894 77.7432 190.832 75.1635C193.512 72.9612 197.379 72.3041 202.434 73.2747C203.549 75.3169 204.09 77.536 204.141 80.0129Z" fill="#DDAD92"/>
<path d="M224.46 137.035L223.365 134.187L220.846 130.573C218.911 132.143 213.88 135.633 209.236 137.035C203.431 138.787 189.303 139.116 183.388 139.116C177.474 139.116 175.831 134.187 173.531 135.283C171.231 136.378 171.301 141.332 171.301 144.589C171.301 146.673 172.984 149.703 174.517 150.506L175.831 146.673C177.803 146.491 182.841 146.585 187.222 148.425C191.603 150.265 198.32 158.319 201.131 162.116L201.679 168.038C204.746 167.819 213.201 166.409 217.231 162.116C221.262 157.823 223 147.038 223.365 142.183L224.46 137.035Z" fill="#D77418"/>
<path d="M272.433 139.316C269.693 131.099 260.595 128.99 257.93 131.175C260.786 133.889 261.757 135.191 257.345 141.643C255.844 142.123 243.769 146.39 236.866 150.395C229.963 154.399 225.369 167.551 223.936 173.626C220.138 177.851 211.963 186.413 209.639 186.86C206.736 187.418 207.331 193.996 208.221 198.621C208.932 202.32 213.523 202.991 215.729 202.865C215.729 202.865 236.96 213.618 240.781 212.615C244.602 211.612 246.692 203.345 245.149 200.239C243.606 197.133 236.211 195.468 234.249 193.615C232.286 191.761 230.577 185.733 229.967 182.95L270.973 148.273C270.961 148.291 270.948 148.309 270.935 148.326C268.777 150.268 269.72 150.011 270.935 148.326C271.179 148.107 271.463 147.859 271.79 147.583L270.973 148.273C272.229 146.51 273.743 143.244 272.433 139.316Z" fill="#B89988"/>
<path d="M226.432 198.487C230.156 200.239 234.866 197.939 237.932 198.487C240.005 198.857 241.077 200.139 241.492 201.012C241.36 205.836 240.378 209.954 239.904 211.41C239.795 213.763 234.049 211.514 226.432 207.906C220.653 205.168 212.355 202.539 210.577 201.772C208.799 201.006 209.237 196.953 209.237 194.982C209.237 193.01 211.318 191.477 214.275 192.025C217.232 192.572 222.709 196.734 226.432 198.487Z" fill="#846B5D"/>
<path opacity="0.4" d="M228.758 198.158C229.635 195.792 233.578 195.42 235.439 195.529L224.487 191.477C223.027 191.477 211.05 191.52 209.373 193.996C207.073 197.391 208.606 200.012 209.482 201.005C211.125 202.867 220.544 204.948 226.897 208.234C227.335 205.715 227.882 200.523 228.758 198.158Z" fill="#1C0D3F"/>
<path d="M201.553 33.5409C200.588 32.7637 199.45 32.3849 198.143 32.3358C196.433 32.1812 194.934 32.7357 193.66 33.8626C192.584 35.0764 192.118 36.4143 192.324 37.9509C190.9 37.6842 189.73 37.6475 188.742 37.9031C187.61 38.2148 186.714 38.9619 185.925 40.0636C185.434 40.9162 185.148 41.7874 185.13 42.7517C185.112 43.7161 185.38 44.5683 185.853 45.4391C184.82 45.4148 183.944 45.9565 183.235 46.9275C182.607 47.7678 182.328 48.5705 182.39 49.4042C182.385 50.2317 182.596 50.9408 183.082 51.6747C183.574 52.3402 184.152 52.8065 184.955 53.086C184.314 53.3041 183.792 53.7399 183.45 54.468C183.04 55.19 182.904 55.9366 182.972 56.7019C183.11 57.4733 183.39 58.1886 183.95 58.8602C184.448 59.4573 185.095 59.9297 185.904 60.1408C185.444 60.6513 185.108 61.3109 184.966 62.1261C184.817 63.0096 184.954 63.781 185.446 64.4465C185.937 65.1119 186.578 65.6529 187.312 65.9262C188.115 66.2057 188.936 66.28 189.782 66.0804C189.695 67.0386 189.969 67.8224 190.53 68.494C191.09 69.1656 191.874 69.6505 192.881 69.9486C193.553 70.1473 194.393 70.0162 195.326 69.6175C196.333 69.1565 197.005 68.5962 197.34 67.9365C197.757 67.1462 198.944 66.9775 200.916 67.2937C201.19 67.3185 201.52 67.4863 202.061 67.6042C202.459 67.7782 202.733 67.8029 202.938 67.8215C208.082 68.1484 213.002 67.144 217.691 64.8768C219.649 63.8118 221.428 62.4545 223.1 60.7426C224.599 60.1881 225.382 59.1549 225.586 57.6553C225.779 56.2927 225.392 55.2228 224.49 54.5202C225.143 54.1652 225.746 53.5987 226.082 52.9391C226.486 52.2856 226.691 51.5451 226.696 50.7176C226.696 49.9585 226.422 49.1748 226.067 48.5217C225.644 47.8624 225.14 47.3339 224.418 46.9236C224.934 46.5563 225.251 46.1019 225.375 45.4921C225.568 44.8885 225.48 44.3286 225.256 43.7563C224.963 43.1779 224.584 42.7986 224.061 42.4753C223.539 42.1521 222.929 42.028 222.301 42.1092C223.034 41.6235 223.438 40.97 223.656 40.0927C223.805 39.2091 223.667 38.4377 223.176 37.7723L223.113 37.6976C222.485 37.0198 221.763 36.6096 220.874 36.5292C219.984 36.4488 219.138 36.6483 218.404 37.134C218.479 36.3127 218.341 35.5413 217.924 34.8136C217.507 34.0859 216.935 33.5512 216.138 33.2032C215.342 32.8552 214.521 32.781 213.675 32.9806C212.829 33.1801 212.108 33.5289 211.499 34.1639C211.58 34.0332 211.337 33.6662 210.714 32.92C210.472 32.553 210.092 32.1737 209.576 31.782C208.667 31.1479 207.728 30.856 206.627 30.8255C205.6 30.7327 204.618 30.9199 203.673 31.4555C202.74 31.8542 202.056 32.5514 201.553 33.5409Z" fill="#263238"/>
<path d="M197.807 56.4993C198.621 54.5197 199.109 53.4472 199.109 53.3649C199.757 51.3038 200.077 49.2442 200.067 47.1039C203.514 45.3588 207.46 44.5992 211.988 44.9893C216.021 45.2995 218.905 46.1913 220.558 47.6653C220.725 48.2408 220.81 48.8166 220.895 49.3925C220.98 49.886 220.982 50.3799 221.067 50.8734C221.154 51.9432 221.323 52.9303 221.328 53.9181C221.588 56.7982 221.6 59.2678 221.527 61.2438C221.529 61.6554 221.448 61.9851 221.45 62.3967C221.214 64.5382 220.813 66.8451 220.167 69.3178C219.6 71.2139 218.866 72.6992 217.802 73.7744C217.638 73.9399 217.392 74.188 217.228 74.2711L216.736 74.6027L216.654 74.6854C216.654 74.6854 216.572 74.6858 216.572 74.7681C216.49 74.7685 216.49 74.8508 216.408 74.8512C216.408 74.8512 216.408 74.8512 216.326 74.8516L215.587 75.1844C215.176 75.351 214.765 75.4353 214.272 75.5199C212.544 75.6105 210.898 75.5359 209.251 75.2968C209.087 75.2976 208.84 75.2164 208.675 75.2172L208.789 81.8847C209.055 85.9996 206.674 86.9987 201.809 84.8814C201.479 84.636 200.984 84.3914 200.406 84.0649C196.858 81.9413 195.041 80.4681 195.036 79.4803L194.887 65.404L194.07 66.5603C193.168 67.2232 191.852 67.3118 190.121 66.7437C188.803 66.3384 187.728 65.1909 186.814 63.4665C185.818 61.5778 185.645 59.8499 186.379 58.3646C186.949 57.2094 187.687 56.5473 188.755 56.3776C188.92 56.3768 189.166 56.2933 189.331 56.3749C190.319 56.4525 191.226 56.7775 191.888 57.5153C192.549 58.253 193.045 58.7446 193.293 58.9904C193.872 59.4816 194.202 59.8093 194.203 59.9739C194.204 60.1386 194.615 60.0543 195.355 59.8862C196.094 59.6357 196.911 58.4793 197.807 56.4993Z" fill="#DDAD92"/>
<path d="M204.1 76.4353C201.464 75.4602 199.649 74.4812 198.822 73.4152C197.911 72.2674 197.247 71.036 196.664 69.5574C197.412 71.0353 198.568 72.0997 199.97 72.8337C200.96 73.3228 202.773 73.9726 205.408 74.6185L209.114 75.4239L208.958 77.2353C207.723 77.1588 206.159 76.9193 204.1 76.4353Z" fill="black" fill-opacity="0.149"/>
<path d="M194.788 53.5601C195.632 51.4981 196.487 51.8233 197.355 54.7005C197.204 58.8996 197.558 61.6146 198.503 62.9272C199.191 63.8295 200.218 64.4832 201.586 64.9707C203.04 65.4577 204.748 65.5319 206.625 65.1937C207.819 65.0234 209.695 64.6029 212.254 64.0968C213.363 63.9269 214.474 64.0863 215.585 64.4103C217.466 65.06 218.578 65.384 218.748 65.3832C219.261 65.5454 219.688 65.5434 220.029 65.4594C220.456 65.3751 220.796 65.1265 220.964 64.6318C221.555 63.1472 221.799 60.6764 221.698 57.384L222.288 55.6524L222.139 60.3455C222.07 63.8033 221.996 66.1087 221.745 67.2624C221.499 69.4039 221.249 70.7223 220.996 71.2997C220.575 72.6189 219.812 73.6103 218.705 74.2742C217.343 75.1862 215.468 75.689 213.078 75.7827C210.517 75.9594 207.784 75.7254 204.878 74.9983C199.664 73.7059 196.667 71.8267 195.887 69.3607C195.021 66.7306 194.582 64.0983 194.484 61.5468C194.389 59.4069 194.211 58.0083 193.953 57.4332C193.609 56.9409 193.944 55.6222 194.788 53.5601Z" fill="#263238"/>
<path opacity="0.2" d="M184.157 116.453L184.157 95.862L173.423 88.7429L173.423 106.376C173.314 110.936 173.504 118.082 173.613 125.371C173.412 127.442 173.477 129.498 173.678 131.487L173.572 133.47C173.523 134.071 173.476 134.666 173.477 135.227C170.83 140.876 172.764 146.706 173.745 149.056C176.275 155.121 176.257 170.691 174.409 170.667L176.819 183.481L178.571 170.557L178.571 158.072L182.295 145.805C181.784 144.673 181.249 142.116 181.523 141.14C181.697 140.522 181.784 139.33 182.295 138.965L182.295 134.086L182.295 124.229C182.915 122.622 184.157 118.818 184.157 116.453Z" fill="#1C0D3F"/>
<path d="M263.412 132.119C260.056 128.549 262.224 124.326 263.918 120.751L271.712 121.115C271.712 121.115 271.77 121.129 271.781 121.075C272.227 121.138 277.913 120.878 279.043 121.075L279.65 121.473C279.65 121.473 279.972 124.003 279.892 125.463C279.755 127.952 279.65 129.459 278.775 130.619C278.119 131.168 278.552 130.892 277.185 131.924C275.841 132.847 272.216 132.957 270.515 132.718C270.458 132.705 270.389 132.745 270.331 132.731C270.274 132.717 270.216 132.703 270.159 132.69L263.412 132.119Z" fill="#846B5D"/>
<ellipse cx="0.985717" cy="1.75239" rx="0.985717" ry="1.75239" transform="matrix(-1 0 0 1 221.177 137.254)" fill="#563A0F"/>
<ellipse cx="1.21139" cy="2.24505" rx="1.21139" ry="2.24505" transform="matrix(-0.996541 -0.0831026 -0.0831026 0.996541 219.429 143.37)" fill="#563A0F"/>
<ellipse cx="1.21139" cy="2.24505" rx="1.21139" ry="2.24505" transform="matrix(-0.998551 0.0538154 0.0538154 0.998551 205.603 155.654)" fill="#563A0F"/>
<ellipse cx="0.82518" cy="1.52929" rx="0.82518" ry="1.52929" transform="matrix(-0.998551 0.0538154 0.0538154 0.998551 213.345 140.102)" fill="#563A0F"/>
<ellipse cx="0.82518" cy="2.0521" rx="0.82518" ry="2.0521" transform="matrix(-0.996942 -0.0781395 -0.0781395 0.996942 223.636 135.008)" fill="#563A0F"/>
<ellipse cx="0.802714" cy="2.81558" rx="0.802714" ry="2.81558" transform="matrix(-0.965926 -0.258819 -0.258819 0.965926 220.832 151.699)" fill="#563A0F"/>
<ellipse cx="1.21139" cy="2.24505" rx="1.21139" ry="2.24505" transform="matrix(-0.949211 -0.314639 -0.314639 0.949211 214.255 157.964)" fill="#563A0F"/>
<ellipse cx="1.76887" cy="2.36908" rx="1.76887" ry="2.36908" transform="matrix(-0.999966 -0.00821923 -0.00821923 0.999966 213.541 147.579)" fill="#563A0F"/>
<ellipse cx="1.76887" cy="2.36908" rx="1.76887" ry="2.36908" transform="matrix(-0.966194 0.257817 0.257817 0.966194 205.277 142.73)" fill="#563A0F"/>
<ellipse cx="1.21139" cy="2.24505" rx="1.21139" ry="2.24505" transform="matrix(-0.958188 0.28614 0.28614 0.958188 198.679 147.578)" fill="#563A0F"/>
<ellipse cx="1.0422" cy="1.66403" rx="1.0422" ry="1.66403" transform="matrix(-0.902884 0.429884 0.429884 0.902884 192.984 144.96)" fill="#563A0F"/>
<ellipse cx="0.872323" cy="1.66403" rx="0.872323" ry="1.66403" transform="matrix(-0.601449 0.798912 0.798912 0.601449 185.302 141.314)" fill="#563A0F"/>
<path d="M215.592 88.8442L216.578 92.2395" stroke="black" stroke-width="2" stroke-linecap="round"/>
<path d="M208.192 94.7036L208.642 98.2102" stroke="black" stroke-width="2" stroke-linecap="round"/>
<path d="M201.584 96.9494L202.035 100.456" stroke="black" stroke-width="2" stroke-linecap="round"/>
<path d="M210.848 99.3929L209.855 103.25" stroke="black" stroke-width="2" stroke-linecap="round"/>
<path d="M206.053 92.7749L205.885 96.3063" stroke="black" stroke-width="2" stroke-linecap="round"/>
<path d="M203.333 90.6901L203.164 94.2216" stroke="black" stroke-width="2" stroke-linecap="round"/>
<path d="M214.59 91.8503L214.952 95.3672" stroke="black" stroke-width="2" stroke-linecap="round"/>
<path d="M215.558 99.1958L214.153 102.44" stroke="black" stroke-width="2" stroke-linecap="round"/>
<path d="M212.211 90.1076L212.683 93.019" stroke="black" stroke-width="2" stroke-linecap="round"/>
<path d="M192.864 92.4558L193.336 95.3671" stroke="black" stroke-width="2" stroke-linecap="round"/>
<path d="M199.65 100.143L200.929 102.801" stroke="black" stroke-width="2" stroke-linecap="round"/>
<path d="M210.37 92.3304L210.364 95.2797" stroke="black" stroke-width="2" stroke-linecap="round"/>
<path d="M199.655 88.844L199.649 91.7934" stroke="black" stroke-width="2" stroke-linecap="round"/>
<path d="M212.541 94.759L212.736 99.1959" stroke="black" stroke-width="2" stroke-linecap="round"/>
<path d="M195.841 96.1024L197.24 100.317" stroke="black" stroke-width="2" stroke-linecap="round"/>
<path d="M195.792 88.4818L197.289 93.7102" stroke="black" stroke-width="2" stroke-linecap="round"/>
<path d="M206.719 97.1774L207.044 102.558" stroke="black" stroke-width="2" stroke-linecap="round"/>
<path d="M204.209 96.2919L204.534 101.672" stroke="black" stroke-width="2" stroke-linecap="round"/>
<path d="M199.088 94.9551L199.817 98.6343" stroke="black" stroke-width="2" stroke-linecap="round"/>
<path d="M175.957 158.949C175.059 156.243 174.081 151.501 174.738 149.53C174.738 149.53 183.986 144.079 189.962 147.668C195.939 151.257 201.024 159.605 201.681 164.534C202.338 169.463 202.448 177.568 202.448 177.568C202.448 177.568 195.785 188.557 191.304 189.035C186.824 189.513 176.454 186.492 176.176 183.701C176.176 174.392 175.957 169.115 175.957 158.949Z" fill="#B89988"/>
<path d="M179.516 193.856C175.338 191.138 176.161 187.206 176.161 183.044L189.011 180.854C193.011 179.454 201.912 176.605 205.513 176.415C210.013 176.176 226.173 180.985 231.278 181.003C236.384 181.021 237.574 177.362 241.592 175.731C244.807 174.427 249.277 176.68 251.109 177.97L273.577 192.579C275.268 194.205 278.151 197.961 276.159 199.972C274.167 201.984 267.923 203.705 265.05 204.314C263.59 202.983 261.982 206.823 258.458 203.906C254.935 200.99 249.025 197.343 246.51 195.884L237.273 194.952L191.873 198.48C189.276 197.779 183.695 196.573 179.516 193.856Z" fill="#B89988"/>
<path d="M197.938 157.042C196.313 153.888 191.361 149.349 189.089 147.473C187.817 147.347 184.773 147.267 182.768 147.949C180.764 148.631 179.692 151.607 179.407 153.01C179.407 153.01 182.768 170.12 182.768 174.063C182.768 178.006 184.703 184.359 187.332 184.359C189.96 184.359 193.137 181.511 194.669 180.525C197.056 178.99 201.838 175.792 201.789 174.063L200.909 162.619C200.596 162.074 199.563 160.196 197.938 157.042Z" fill="#DDAD92"/>
<path d="M209.894 177.787C212.26 177.875 221.029 180.598 225.118 181.949L200.913 184.14V181.949L203.651 177.787C204.747 177.751 207.529 177.7 209.894 177.787Z" fill="#DDAD92"/>
<path d="M230.839 193.449C239.053 193.996 244.612 194.873 244.612 194.873H232.455C223.438 195.53 204.007 198.25 197.626 198.706C188.426 199.363 184.155 197.94 180.869 196.406C177.584 194.873 177.438 192.719 177.584 191.149C175.722 187.535 178.723 184.906 180.212 187.973C181.702 191.039 187.686 192.792 190.643 193.449C193.601 194.106 206.853 193.449 206.853 193.449C206.853 193.449 222.624 192.901 230.839 193.449Z" fill="#846B5D"/>
<path d="M203.415 193.321L208.805 193.382" stroke="black" stroke-width="2" stroke-linecap="round"/>
<path d="M208.367 189.734L212.719 190.528" stroke="black" stroke-width="2" stroke-linecap="round"/>
<path d="M213.867 187.711L217.005 187.984" stroke="black" stroke-width="2" stroke-linecap="round"/>
<path d="M211.118 192.61L214.256 192.883" stroke="black" stroke-width="2" stroke-linecap="round"/>
<path d="M215.929 190.512L219.057 190.145" stroke="black" stroke-width="2" stroke-linecap="round"/>
<path d="M218.016 192.81L221.144 192.443" stroke="black" stroke-width="2" stroke-linecap="round"/>
<path d="M221.144 189.043L224.193 189.83" stroke="black" stroke-width="2" stroke-linecap="round"/>
<path d="M206.109 188.634L210.533 188.582" stroke="black" stroke-width="2" stroke-linecap="round"/>
<path d="M203.755 185.765L207.934 185.852" stroke="black" stroke-width="2" stroke-linecap="round"/>
<path d="M201.359 190.371L205.473 191.111" stroke="black" stroke-width="2" stroke-linecap="round"/>
<path d="M247.659 157.701L244.425 160.719" stroke="black" stroke-width="2" stroke-linecap="round"/>
<path d="M245.659 162.569L243.567 164.923" stroke="black" stroke-width="2" stroke-linecap="round"/>
<path d="M242.922 158.032L240.831 160.387" stroke="black" stroke-width="2" stroke-linecap="round"/>
<path d="M242.219 162.436L240.647 165.165" stroke="black" stroke-width="2" stroke-linecap="round"/>
<path d="M239.109 163.559L237.536 166.288" stroke="black" stroke-width="2" stroke-linecap="round"/>
<path d="M240.336 167.71L237.884 169.688" stroke="black" stroke-width="2" stroke-linecap="round"/>
<path d="M250.157 157.138L247.558 160.718" stroke="black" stroke-width="2" stroke-linecap="round"/>
<path d="M253.821 155.503L251.257 158.804" stroke="black" stroke-width="2" stroke-linecap="round"/>
<path d="M253.692 150.695L250.643 153.555" stroke="black" stroke-width="2" stroke-linecap="round"/>
<path d="M236.838 160.701C239.029 158.423 248.704 151.282 253.267 147.996L248.667 146.024C245.454 147.631 238.24 151.369 235.086 153.472C231.932 155.575 230.705 159.824 230.486 161.686L231.691 167.71C232.494 166.323 234.648 162.979 236.838 160.701Z" fill="#DDAD92"/>
<path d="M248.195 152.573L244.93 156.861" stroke="black" stroke-width="2" stroke-linecap="round"/>
<path d="M252.501 118.205C253.465 118.731 260.788 120.177 264.33 120.834L263.563 132.115C256.736 130.801 242.052 127.822 237.934 126.42C233.816 125.018 230.596 122.112 229.501 120.834L238.81 112.948C239.869 112.875 242.841 113.058 246.258 114.372C250.53 116.015 251.296 117.548 252.501 118.205Z" fill="#846B5D"/>
<path fill-rule="evenodd" clip-rule="evenodd" d="M201.124 53.6589L202.692 49.2519C202.846 48.819 203.454 48.8057 203.627 49.2314L205.349 53.4736C205.539 53.7948 205.646 54.1648 205.646 54.5586C205.646 55.7921 204.589 56.7921 203.285 56.7921C201.981 56.7921 200.924 55.7921 200.924 54.5586C200.924 54.3938 200.943 54.2331 200.979 54.0785L200.974 54.0785L200.989 54.0374C201.022 53.9064 201.067 53.7799 201.124 53.6589Z" fill="#846B5D"/>
<path fill-rule="evenodd" clip-rule="evenodd" d="M200.328 53.3673L201.896 48.9603C202.05 48.5274 202.658 48.5141 202.831 48.9398L204.554 53.182C204.743 53.5032 204.85 53.8732 204.85 54.2669C204.85 55.5005 203.793 56.5005 202.489 56.5005C201.185 56.5005 200.128 55.5005 200.128 54.2669C200.128 54.1021 200.147 53.9415 200.183 53.7869L200.178 53.7869L200.193 53.7458C200.226 53.6148 200.271 53.4882 200.328 53.3673Z" fill="#6AD9F2"/>
<path d="M201.359 53.6671C201.273 54.1233 201.379 55.1246 202.488 55.4803" stroke="white"/>
<path d="M270.687 145.532L244.554 157.299L234.134 155.381C227.412 151.224 223.35 142.69 222.16 138.943C221.426 127.602 226.188 113.372 228.66 107.674C233.525 105.329 245.059 100.228 252.275 98.586C261.295 96.5338 274.2 115.37 276.377 118.359C278.119 120.75 278.657 122.887 278.709 123.656L276.647 139.685L270.687 145.532Z" fill="#DFE4E8"/>
<path d="M270.654 145.515L243.916 157.415L242.077 142.55L243.749 126.54L264.373 121.728L278.713 123.587L276.618 139.668L270.654 145.515Z" fill="#BFC9D1"/>
<path d="M234.803 112.856L229.56 107.948L244.046 126.821L248.419 113.645C249.303 109.669 256.726 103.646 260.327 101.132L247.324 109.98C244.091 110.427 237.629 112.084 234.803 112.856Z" fill="#FAFAFA"/>
<path d="M268.852 119.179L278.707 123.584C277.684 117.542 266.609 105.097 260.477 101.005L266.208 116.363C266.677 117.618 267.629 118.632 268.852 119.179Z" fill="#BFC9D1"/>
<path d="M248.547 111.476L243.793 126.527L235.305 114.546C234.969 114.072 235.113 113.428 235.653 113.213C238.347 112.136 244.471 110.63 247.643 110.299C248.295 110.231 248.744 110.85 248.547 111.476Z" fill="#E0E0E0"/>
<path d="M236.86 139.999L240.348 141.227L241.202 138.702L243.934 126.628L228.727 107.709C223.292 117.128 222.022 132.17 222.116 138.607L227.25 138.234L236.86 139.999Z" fill="#A0AFBB"/>
<path d="M241.919 145.363L244.041 157.377L233.843 155.723C229.023 151.448 226.871 148.827 223.643 143.911L222.156 138.931L222.124 138.591L227.179 138.181L236.728 140.002L238.81 141.1C240.449 141.965 241.597 143.538 241.919 145.363Z" fill="#8296A5"/>
<path d="M215.717 151.455C213.659 147.79 216.769 144.723 218.918 142.095L225.334 144.007C225.334 144.007 225.379 144.03 225.399 143.987C225.758 144.132 231.163 144.679 232.063 145.077C232.472 145.257 232.178 146.483 229.788 146.475C232.167 147.575 233.852 147.956 234.25 148.788C234.893 150.132 233.564 151.495 233.1 152.797C232.636 154.1 229.013 153.561 227.662 154.137C226.352 154.629 223.311 153.973 221.943 153.423C221.898 153.4 221.832 153.419 221.787 153.396C221.742 153.372 221.697 153.349 221.652 153.326L215.717 151.455Z" fill="#DDAD92"/>
<path d="M174.297 95.358C173.312 93.6027 173.045 91.7878 173.543 89.8799C174.084 87.9385 175.238 86.4365 176.992 85.4517C178.747 84.4668 180.518 84.235 182.459 84.7775C184.444 85.2865 185.947 86.4407 186.899 88.1519C187.056 88.45 187.213 88.7482 187.369 89.0463L187.502 88.9458L202.812 121.084L218.028 140.938C220.771 144.34 220.131 146.246 220.131 146.246C218.829 149.251 217.226 149.955 215.724 151.457L196.801 135.84C194.443 133.655 191.732 129.481 191.564 129.26C191.085 128.72 190.649 128.147 190.335 127.55C190.335 127.55 190.302 127.506 190.268 127.462C190.268 127.462 190.235 127.418 190.279 127.385L190.245 127.341C190.245 127.341 190.245 127.341 190.212 127.296C190.122 127.086 190.032 126.877 189.942 126.667L174.588 95.8326C174.488 95.7002 174.354 95.5238 174.297 95.358Z" fill="#DDAD92"/>
<path d="M195.766 126.807L198.37 128.164" stroke="black" stroke-width="3"/>
<path d="M199.124 125.758L201.117 127.914" stroke="black" stroke-width="3"/>
<path d="M201.094 133.038L203.087 135.193" stroke="black" stroke-width="3"/>
<path d="M196.054 130.004L198.651 133.061" stroke="black" stroke-width="3"/>
<path d="M204.941 134.48L206.23 136.213" stroke="black" stroke-width="3"/>
<path d="M202.985 129.681L204.273 131.414" stroke="black" stroke-width="3"/>
<path d="M197.123 129.198L199.36 131.099" stroke="black" stroke-width="3"/>
<path d="M200.201 129.621L202.01 131.933" stroke="black" stroke-width="3"/>
<path d="M196.792 214.678L192.34 215.513H190.14L189 214.678L187.781 214.274C187.866 213.096 188.506 212.427 189 212.035C189.327 211.775 191.644 210.782 193.731 210.922C195.401 211.033 196.468 213.472 196.792 214.678Z" fill="#DFE4E8"/>
<path d="M196.79 214.685L192.284 215.504C191.966 215.108 191.52 214.177 192.154 213.637C192.787 213.096 193.658 211.617 193.992 210.98C195.39 211.222 196.501 213.566 196.79 214.685Z" fill="#94A1AD"/>
<path d="M171.266 212.795L167.241 211.788L165.771 211.301C165.873 209.881 166.645 209.075 167.241 208.602C167.635 208.289 170.428 207.092 172.944 207.26C174.956 207.394 176.242 210.335 176.633 211.788L171.266 212.795Z" fill="#DFE4E8"/>
<path d="M176.63 211.797L171.2 212.784C170.816 212.307 170.278 211.185 171.042 210.533C171.806 209.882 172.868 208.076 173.27 207.308C174.997 207.605 176.302 210.421 176.63 211.797Z" fill="#94A1AD"/>
<path d="M285.358 162.569H290.472L299.167 166.49V168.195C295.928 168.763 289.279 169.934 288.597 170.07C287.915 170.206 283.312 168.877 281.096 168.195V165.297L285.358 162.569Z" fill="#DFE4E8"/>
<path d="M299.172 168.191L288.531 170.077L288.359 168.128L293.713 164.034L299.172 166.491V168.191Z" fill="#94A1AD"/>
<path d="M288.351 168.121L293.586 164.097L288.351 165.741L284.37 167.255L288.351 168.121Z" fill="#F2F4F6"/>
<path d="M403.951 230.912L403.951 222.226" stroke="url(#paint8_linear_937_4245)" stroke-linecap="round"/>
<path d="M328.5 306.927L328.5 298.241" stroke="url(#paint9_linear_937_4245)" stroke-linecap="round"/>
<path d="M330.273 231.503L330.273 222.817" stroke="url(#paint10_linear_937_4245)" stroke-linecap="round"/>
<path d="M400.773 323.612L400.773 314.926" stroke="url(#paint11_linear_937_4245)" stroke-linecap="round"/>
<path d="M407.131 307.585L407.131 298.899" stroke="url(#paint12_linear_937_4245)" stroke-linecap="round"/>
<path d="M412.227 230.572L412.227 221.886" stroke="url(#paint13_linear_937_4245)" stroke-linecap="round"/>
<path d="M397.406 219.391L397.406 210.706" stroke="url(#paint14_linear_937_4245)" stroke-linecap="round"/>
<path d="M429.845 279.032L473.202 253.824L517.736 279.032L473.267 304.741L429.845 279.032Z" fill="#BFC9D1"/>
<path d="M240.809 228.4L286.67 201.736L333.775 228.4L286.739 255.594L240.809 228.4Z" fill="#BFC9D1"/>
<path d="M240.809 228.402L240.809 330.074L378.933 409.426V355.55L330.545 328.733V281.495L240.809 228.402Z" fill="#F9F9F9"/>
<path d="M378.889 355.541V409.42L517.721 330.196V279.047L474.352 303.919V252.104L427.184 279.321V328.509L378.889 355.541Z" fill="#8296A5"/>
<path d="M427.185 328.527V274.831L381.279 247.616V301.412L427.185 328.527Z" fill="#F9F9F9"/>
<path d="M330.393 328.663L330.393 276.625L378.89 252.322V301.138L330.393 328.663Z" fill="#94A1AD"/>
<path d="M331.459 143.861L377.32 117.197L424.426 143.861L377.389 171.055L331.459 143.861Z" fill="#BFC9D1"/>
<path d="M286.651 201.75L332.513 175.087L379.618 201.75L332.581 228.945L286.651 201.75Z" fill="#BFC9D1"/>
<path d="M381.207 252.088L427.068 225.425L474.174 252.088L427.137 279.282L381.207 252.088Z" fill="#D9D9D9"/>
<path d="M286.128 255.329L331.989 228.665L379.095 255.329L332.058 282.523L286.128 255.329Z" fill="#BFC9D1"/>
<path d="M331.459 197.718L377.32 171.055L424.426 197.718L377.389 224.913L331.459 197.718Z" fill="#D9D9D9"/>
<path d="M377.365 224.875L377.34 170.933L424.421 143.864V197.659L377.365 224.875Z" fill="#8296A5"/>
<path d="M377.364 224.907L377.364 170.942L331.458 143.861V197.656L377.364 224.907Z" fill="#F9F9F9"/>
<path d="M331.49 197.59L377.352 170.926L424.457 197.59L377.42 224.784L331.49 197.59Z" fill="#BFC9D1"/>
<path d="M377.396 278.604L377.396 224.639L424.456 197.503V251.298L377.396 278.604Z" fill="#8296A5"/>
<path d="M381.207 252.088L427.068 225.425L474.174 252.088L427.137 279.282L381.207 252.088Z" fill="#BFC9D1"/>
<path d="M377.396 278.635L377.396 224.671L331.49 197.589V251.385L377.396 278.635Z" fill="#F9F9F9"/>
<path d="M412.226 312.088L412.226 298.241" stroke="url(#paint15_linear_937_4245)" stroke-linecap="round"/>
<path d="M330.406 328.656L379.059 300.104L427.178 328.522L378.923 355.536L330.406 328.656Z" fill="#BFC9D1"/>
<path d="M361.145 322.036L361.145 313.35" stroke="url(#paint16_linear_937_4245)" stroke-linecap="round"/>
<path d="M330.393 328.741V206.509L377.034 176.96L427.248 206.509V328.475L378.978 355.519L330.393 328.741Z" fill="url(#paint17_linear_937_4245)"/>
<path d="M394.189 322.036L394.189 313.35" stroke="url(#paint18_linear_937_4245)" stroke-linecap="round"/>
<path d="M378.034 216.329L331.389 243.264V295.843L378.034 322.036L426.176 295.843V243.121L378.034 216.329Z" fill="#2637EF" stroke="white" stroke-width="2"/>
<path d="M331.389 242.731L378.183 269.183L424.901 242.732" stroke="white" stroke-width="2"/>
<path d="M332.146 242.768L423.695 242.457" stroke="white"/>
<path d="M378.325 216.482V268.409" stroke="white"/>
<path d="M378.782 269.183V321.436" stroke="white" stroke-width="2"/>
<path fill-rule="evenodd" clip-rule="evenodd" d="M348.078 267.667C348.078 267.311 347.832 266.878 347.529 266.7L342.27 263.786C341.967 263.608 341.721 263.753 341.721 264.109L341.721 285.19C341.721 285.546 341.967 285.98 342.27 286.158L347.529 289.071C347.832 289.249 348.078 289.105 348.078 288.749L348.078 267.667ZM346.98 267.667L346.98 287.459L342.819 285.19L342.819 265.399L346.98 267.667Z" fill="white" stroke="white" stroke-width="0.2" stroke-linecap="round" stroke-linejoin="round"/>
<path fill-rule="evenodd" clip-rule="evenodd" d="M357.801 278.932C357.801 278.576 357.555 278.143 357.252 277.964L351.993 275.051C351.69 274.873 351.444 275.017 351.444 275.374L351.444 291.014C351.444 291.37 351.69 291.803 351.993 291.981L357.252 294.895C357.555 295.073 357.801 294.928 357.801 294.572L357.801 278.932ZM356.703 278.932L356.703 293.282L352.542 291.014L352.542 276.664L356.703 278.932Z" fill="white" stroke="white" stroke-width="0.2" stroke-linecap="round" stroke-linejoin="round"/>
<path fill-rule="evenodd" clip-rule="evenodd" d="M367.501 289.188C367.501 288.832 367.255 288.399 366.952 288.221L361.693 285.308C361.39 285.129 361.144 285.274 361.144 285.63L361.144 296.643C361.144 296.999 361.39 297.432 361.693 297.61L366.952 300.524C367.255 300.702 367.501 300.557 367.501 300.201L367.501 289.188ZM366.403 289.188L366.403 298.911L362.242 296.643L362.242 286.92L366.403 289.188Z" fill="white" stroke="white" stroke-width="0.2" stroke-linecap="round" stroke-linejoin="round"/>
<path fill-rule="evenodd" clip-rule="evenodd" d="M410.434 268.362C410.434 268.005 410.679 267.572 410.983 267.394L416.242 264.481C416.545 264.303 416.791 264.447 416.791 264.803L416.791 285.885C416.791 286.241 416.545 286.674 416.242 286.852L410.983 289.766C410.679 289.944 410.434 289.799 410.434 289.443L410.434 268.362ZM411.532 268.362L411.532 288.153L415.693 285.885L415.693 266.093L411.532 268.362Z" fill="white" stroke="white" stroke-width="0.2" stroke-linecap="round" stroke-linejoin="round"/>
<path fill-rule="evenodd" clip-rule="evenodd" d="M400.71 279.627C400.71 279.27 400.956 278.837 401.259 278.659L406.518 275.746C406.821 275.568 407.067 275.712 407.067 276.068L407.067 291.708C407.067 292.065 406.821 292.498 406.518 292.676L401.259 295.589C400.956 295.767 400.71 295.623 400.71 295.267L400.71 279.627ZM401.808 279.627L401.808 293.977L405.969 291.708L405.969 277.358L401.808 279.627Z" fill="white" stroke="white" stroke-width="0.2" stroke-linecap="round" stroke-linejoin="round"/>
<path fill-rule="evenodd" clip-rule="evenodd" d="M391.011 289.883C391.011 289.527 391.257 289.094 391.56 288.916L396.819 286.002C397.122 285.824 397.368 285.968 397.368 286.325L397.368 297.337C397.368 297.694 397.122 298.127 396.819 298.305L391.56 301.218C391.257 301.396 391.011 301.252 391.011 300.896L391.011 289.883ZM392.109 289.883L392.109 299.606L396.27 297.337L396.27 287.615L392.109 289.883Z" fill="white" stroke="white" stroke-width="0.2" stroke-linecap="round" stroke-linejoin="round"/>
<path d="M387.098 339.546L387.098 330.86" stroke="url(#paint19_linear_937_4245)" stroke-linecap="round"/>
<path d="M375.874 346.47L375.874 337.784" stroke="url(#paint20_linear_937_4245)" stroke-linecap="round"/>
<path d="M367.501 333.542L367.501 324.856" stroke="url(#paint21_linear_937_4245)" stroke-linecap="round"/>
<path d="M347.514 327.82L347.514 314.753" stroke="url(#paint22_linear_937_4245)" stroke-linecap="round"/>
<path d="M353.85 337.212L353.85 328.527" stroke="url(#paint23_linear_937_4245)" stroke-linecap="round"/>
<path d="M399.671 337.784L399.671 323.937" stroke="url(#paint24_linear_937_4245)" stroke-linecap="round"/>
<path d="M509.045 73.9987C509.857 68.7193 516.152 63.34 519.705 61.8171C521.566 61.0199 523.259 60.2942 525.797 60.2942C530.766 60.9147 533.687 60.6366 533.687 60.6366C533.687 60.6366 532.852 65.2267 535.442 64.863C538.961 65.0114 547.285 60.8131 550.163 59.2789V58.2637C550.163 58.2637 558.793 59.7866 558.793 62.3231C557.25 63.7228 540.118 72.0091 532.904 74.5066C530.366 85.3361 524.579 109.533 523.767 113.594C522.954 117.655 518.013 122.731 515.644 124.762C509.891 129.838 496.36 142.825 494.736 144.45C492.705 146.48 492.197 146.988 490.167 146.988H487.121C486.106 146.48 483.568 145.262 481.537 144.45C479.507 143.638 477.645 140.05 476.968 138.358C476.63 137.681 475.953 135.922 475.953 134.297C475.953 132.673 477.645 130.574 478.491 129.728L498.385 108.518C501.6 99.2111 508.233 79.2781 509.045 73.9987Z" fill="#BFC9D1"/>
<path d="M592.103 155.177C596.439 153.24 598.578 148.679 597.005 146.881C597.005 146.881 596.496 145.954 595.491 144.519L593.05 140.713L588.927 134.283L582.154 136.346L581.722 144.481L581.476 149.109L581.275 152.896C581.602 156.212 588.495 156.788 592.103 155.177Z" fill="#1C0D3F"/>
<path d="M595.491 144.519L588.927 134.283L582.154 136.346L581.476 149.109M595.491 144.519C596.496 145.954 597.005 146.881 597.005 146.881C598.578 148.679 596.439 153.24 592.103 155.177C588.495 156.788 581.602 156.212 581.275 152.896L581.476 149.109M595.491 144.519C595.32 146.768 592.513 149.587 589.955 150.366C587.246 151.191 582.314 150.7 581.476 149.109M593.05 140.713C592.88 142.962 591.07 144.846 588.511 145.625C585.802 146.45 582.56 146.072 581.722 144.481" stroke="#D5E1EB" stroke-width="2"/>
<path d="M589.774 83.4156C588.871 80.3887 588.177 75.7042 582.138 71.0535C576.54 66.7431 569.671 64.8877 565.279 64.2044L556.681 67.5632L561.606 82.1457L568.647 143.677L577.902 144.16C580.995 142.506 587.951 138.816 591.037 137.284C594.123 135.753 594.763 130.267 594.698 127.715L589.774 83.4156Z" fill="#94A3C2" stroke="#94A3C2" stroke-width="2"/>
<path d="M573.078 80.9731L564.871 66.7477L565.886 63.8035C567.177 64.9335 571.581 71.8972 573.621 75.2379L575.813 80.0611C575.449 85.1677 574.938 96.4022 575.813 100.487C576.689 104.573 576.178 130.033 575.813 142.252H573.078V80.9731Z" fill="#667D8E"/>
<path d="M535.356 75.1188C535.39 74.923 535.441 74.6293 535.475 74.4335C535.881 72.0841 535.454 69.8926 534.094 67.8421C532.619 65.8726 530.715 64.6354 528.365 64.2283C526.014 63.8213 523.805 64.3462 521.753 65.7051C519.685 67.1619 518.448 69.0651 518.041 71.4146C517.973 71.8061 517.905 72.1977 517.919 72.7042L517.723 72.6702L512.699 115.662L512.895 115.696C512.735 117.785 513.311 119.7 514.526 121.423C515.903 123.375 517.807 124.613 520.157 125.02C522.606 125.444 524.815 124.919 526.769 123.543C528.722 122.167 529.959 120.264 530.383 117.817C530.4 117.719 530.4 117.719 530.417 117.621C530.468 117.327 530.519 117.033 530.455 116.821L535.356 75.1188Z" fill="#20CA8B"/>
<path d="M569.052 138.86C569.151 138.161 569.151 137.461 569.151 136.761C569.449 129.263 567.049 122.666 561.951 117.069C556.853 111.472 550.557 108.575 543.063 108.277C535.569 107.98 528.975 110.381 523.381 115.481C517.787 120.581 514.891 126.98 514.593 134.477C514.593 134.777 514.593 134.977 514.594 135.277C514.394 136.477 514.294 137.676 514.195 138.876C513.897 146.674 516.197 153.271 521.195 158.668C526.193 164.065 532.688 166.762 540.682 166.76C546.977 166.758 552.572 165.757 557.568 163.756C559.766 163.155 561.764 162.055 563.762 160.555C566.759 157.455 568.357 154.356 568.556 151.257C568.755 148.157 568.854 146.358 568.854 145.858C569.053 142.859 569.152 140.46 569.052 138.86Z" fill="#37474F"/>
<path d="M514.412 114.382C508.93 111.316 501.448 109.176 498.375 108.517L495.729 111.334C499.286 110.299 509.524 112.901 514.412 114.382Z" fill="#254637"/>
<path d="M552.593 60.0555V60.0555C548.152 57.4674 542.769 57.0578 536.245 58.7228C534.837 59.1936 533.523 59.9659 532.501 61.1438C531.378 62.3197 530.653 63.6035 530.225 64.9934C529.796 66.483 529.347 68.8714 529.083 72.0627C528.948 73.7582 528.818 75.254 528.789 76.652L532.653 73.2345L536.112 75.0033L540.915 74.502L544.086 80.5606C550.144 77.2877 554.426 72.9796 556.834 67.5344C556.489 64.8302 555.734 62.7169 554.365 61.2904L552.593 60.0555Z" fill="url(#paint25_linear_937_4245)"/>
<path d="M510.673 73.9608C505.801 71.7951 517.768 63.3211 521.315 61.801L521.315 61.801C523.171 61.0051 524.862 60.2808 527.395 60.2808C532.355 60.9002 535.271 60.6225 535.271 60.6225C535.271 60.6225 534.438 65.2044 537.023 64.8414C540.535 64.9896 548.845 60.7987 551.718 59.2674V58.2539C551.718 58.2539 560.332 59.7741 560.332 62.3061C529.57 90.2009 530.611 82.8226 510.673 73.9608Z" fill="#BFC9D1"/>
<path d="M544.283 80.8637C550.341 77.5908 554.623 73.2828 557.03 67.8376C556.686 65.1333 555.93 63.02 554.562 61.5935L552.592 60.2547V60.2547C548.151 57.6666 542.77 57.1572 536.244 58.922C534.836 59.3927 533.522 60.1651 532.5 61.343C531.378 62.5189 530.652 63.8027 530.225 65.1925C529.795 66.6822 529.347 69.0706 529.082 72.2619C528.947 73.9574 528.817 75.4532 528.788 76.8512L532.652 73.4337L536.111 75.2025L540.914 74.7012L544.283 80.8637Z" fill="black" fill-opacity="0.5176"/>
<path d="M535.966 67.5083C536.007 70.4062 536.056 72.9046 536.215 74.9058C547.913 69.2506 553.197 64.7632 552.062 61.6432C548.821 58.9798 544.145 58.185 538.03 59.3589C536.681 61.8288 536.028 64.5126 535.966 67.5083Z" fill="#DDAD92"/>
<path d="M530.756 69.384C529.399 72.7373 530.981 74.7157 535.405 75.3265C543.067 75.9717 547.652 71.3164 549.154 61.2654C545.84 59.0398 540.973 58.8456 534.66 60.8654C533.506 63.1522 532.207 66.0234 530.756 69.384Z" fill="#FED8C3"/>
<path d="M551.18 22.2398C550.109 21.839 548.971 21.8237 547.758 22.0991L538.558 24.7427L542.529 28.6516C542.447 30.1801 542.674 32.0676 543.103 34.1312C543.398 35.6332 544.38 37.4677 545.86 39.648L547.939 42.2621L549.051 55.4125C550.251 54.9477 551.134 54.0292 551.614 52.7584C553.053 48.9459 554.088 44.7811 554.537 40.3719C555.155 35.6653 555.408 32.507 555.389 30.8905C555.453 27.7454 554.923 25.5937 553.88 24.2393C553.248 23.332 552.345 22.6339 551.18 22.2398Z" fill="#455A64"/>
<path d="M538.307 21.764C541.407 24.298 543.171 27.4905 543.626 31.5287C544.081 35.567 543.047 39.1404 540.526 42.2489C538.004 45.3574 534.732 47.1378 530.815 47.6711C526.792 48.1234 523.231 47.0826 520.131 44.5486C517.032 42.0147 515.255 38.7286 514.812 34.7839C514.37 30.8392 515.404 27.2659 517.912 24.0637C520.434 20.9552 523.613 19.1875 527.623 18.6415V18.6415C531.646 18.1892 535.207 19.23 538.307 21.764Z" fill="#455A64"/>
<path d="M516.81 41.8749L517.014 41.8548C517.238 47.6146 518.033 52.2169 519.407 55.7298C521.113 59.8294 523.657 61.9883 527.106 62.1996C529.027 62.217 530.929 62.0299 532.735 61.5769L533.076 66.4304C531.585 69.3991 531.325 71.6274 532.287 73.047C533.168 74.3369 534.858 74.7901 537.371 74.5429C539.815 74.3024 542.261 73.3735 544.639 71.7628C547.35 70.0506 549.202 66.5646 550.125 61.3114L550.119 48.7158C550.804 49.4056 551.666 49.8026 552.63 49.8454C553.601 49.9564 554.396 49.6717 555.15 48.978C556.421 47.9581 557.367 46.4196 557.981 44.2943C558.574 41.9645 558.373 39.9193 557.322 38.3019C556.347 36.746 555.118 36.1097 553.638 36.393C552.422 36.5814 551.512 37.084 550.845 37.9756C550.478 38.4247 550.083 39.2895 549.518 40.5152C548.92 41.4001 548.485 41.8559 548.2 41.7463C547.847 41.6433 547.311 41.0766 546.586 39.9778C545.861 38.879 545.347 36.4515 545.033 32.5591C543.635 32.2837 542.345 31.7222 541.165 30.8747C539.761 29.8428 538.737 28.498 538.033 26.9154C536.327 28.391 533.128 29.3253 528.3 29.7315C522.799 30.2726 519.473 29.2232 518.051 26.6099C517.056 29.7364 516.543 32.8843 516.505 35.9854C516.585 37.4919 516.657 38.9302 516.792 40.2936C516.845 40.839 516.831 41.391 516.81 41.8749Z" fill="#FED8C3"/>
<path d="M518.476 12.8311C518.93 12.674 519.435 12.8914 520.283 13.5387C522.284 14.9826 524.836 15.5887 527.833 15.276C531.352 14.6063 533.963 14.2508 535.748 14.1032C538.185 13.8667 540.5 14.1237 542.598 14.8869C545.096 15.7865 546.885 17.0686 548.005 19.0139C549.349 21.2147 549.312 23.0315 547.892 24.4644C546.353 25.7227 544.671 26.6193 542.831 27.0604C535.803 29.1615 531.11 30.2771 528.766 30.5009C523.145 31.0754 518.787 29.7617 515.585 26.4788C514.487 25.3887 513.749 24.1543 513.358 22.6818C513.019 21.5838 513.04 20.3413 513.434 19.0481L513.514 18.9418C513.582 18.7419 513.756 18.6229 514.023 18.4911C514.222 18.5594 514.421 18.6276 514.527 18.7085C515.774 19.4923 516.889 20.008 517.991 20.4301C517.52 19.0639 517.329 17.6596 517.405 16.1236C517.417 14.1196 517.743 13.0263 518.476 12.8311Z" fill="#263238"/>
<path d="M547.944 38.8552C549.314 39.1455 549.844 39.5501 549.467 40.2689C548.713 41.7065 548.099 46.2716 547.652 54.1515C547.602 55.8747 546.941 57.2996 545.869 58.4944C544.462 60.0209 542.164 61.2872 538.871 62.2124C535.484 63.1502 531.927 63.5391 528.294 63.3662C524.941 63.1553 522.389 62.5492 520.824 61.5226C519.471 60.6579 518.534 59.3552 517.919 57.6272C517.605 56.7164 517.282 55.044 516.845 52.529C516.641 51.0311 516.352 48.2099 516.164 44.0399L515.853 38.2657L516.943 40.6918C516.978 43.7384 517.28 46.6533 517.756 49.4491L517.794 49.73C517.857 50.198 518.176 50.4408 518.587 50.6709C518.998 50.9009 519.384 50.9438 519.85 50.8803L521.304 50.3963C522.745 49.8187 523.839 49.4791 524.479 49.2966C525.679 49.0379 526.997 48.9538 528.434 49.0442C531.546 49.5741 533.687 49.9501 535.043 50.1468C537.371 50.4974 539.342 50.3244 541.063 49.7087C542.597 49.1184 543.695 48.1108 544.437 46.5796C545.42 44.7294 545.809 42.0065 545.803 38.4792C546.575 38.5648 547.253 38.6632 547.944 38.8552Z" fill="#455A64"/>
<path d="M512.195 86.1231C513.461 78.5257 515.573 70.7525 517.262 67.8811C520.302 66.3609 520.736 71.4279 530.943 71.4279C543.611 71.428 561.347 59.7733 565.907 65.3475L573.508 76.4954V144.262C569.501 142.338 559.906 139.633 553.014 142.876C546.123 146.119 540.909 165.51 539.051 173.786C536.122 173.559 534.639 173.182 532.078 172.392C532.078 172.392 522.573 168.855 518.749 162.812C514.924 156.769 511.251 144.903 510.674 140.849C510.098 136.795 509.154 121.087 509.154 121.087C509.154 110.277 510.674 95.2441 512.195 86.1231Z" fill="#BDD1E9"/>
<path d="M538.327 173.148C538.096 166.529 539.712 154.62 547.21 149.621C554.708 144.623 560.539 145.965 562.483 146.289" stroke="#253B46" stroke-width="7"/>
<path opacity="0.5" d="M537.328 170.298C537.697 178.001 543.618 197.44 548.907 211.076M554.035 223.266C553.009 221.15 549.898 216.532 548.709 213.54M548.907 211.076C549.112 211.604 548.507 213.03 548.709 213.54M548.907 211.076L548.709 213.54" stroke="#A0AFBB" stroke-width="7"/>
<path fill-rule="evenodd" clip-rule="evenodd" d="M605.666 287.587C601.777 285.886 604.782 280.386 608.834 272.567C612.886 264.748 612.409 252.053 612.409 252.053L620.115 241.372C620.115 241.372 635.938 249.79 637.739 252.367C639.54 254.943 631.499 263.622 631.499 263.622L625.794 271.206L612.965 287.944C612.965 287.944 608.511 290.651 605.666 287.587Z" fill="#A0AFBB"/>
<mask id="mask1_937_4245" style="mask-type:alpha" maskUnits="userSpaceOnUse" x="603" y="241" width="36" height="49">
<path fill-rule="evenodd" clip-rule="evenodd" d="M605.666 287.587C601.777 285.886 604.782 280.386 608.834 272.567C612.886 264.748 612.409 252.053 612.409 252.053L620.115 241.372C620.115 241.372 635.938 249.79 637.739 252.367C639.54 254.943 631.499 263.622 631.499 263.622L625.794 271.206L612.965 287.944C612.965 287.944 608.511 290.651 605.666 287.587Z" fill="#A0AFBB"/>
</mask>
<g mask="url(#mask1_937_4245)">
<path d="M618.673 264.694C621.934 260.285 625.274 247.642 626.536 241.872L616.226 247.051C615.248 250.272 612.202 256.26 611.476 258.192C610.75 260.125 607.166 268.739 605.009 272.337C604.819 274.115 605.021 277.62 607.346 277.418C610.253 277.166 614.596 270.206 618.673 264.694Z" fill="#617799"/>
</g>
<path fill-rule="evenodd" clip-rule="evenodd" d="M582.078 253.568C577.835 252.75 579.589 246.614 581.863 237.942C584.137 229.27 580.823 216.769 580.823 216.769L590.412 205.941C590.412 205.941 603.684 209.255 606.049 211.411C608.414 213.567 602.371 223.986 602.371 223.986L598.403 232.795L589.407 252.29C589.407 252.29 585.59 255.975 582.078 253.568Z" fill="#667D8E"/>
<path d="M547.556 151.955C547.843 148.192 548.206 144.667 548.533 141.483L520.533 138.603L518.545 143.455L519.867 206.677C519.867 206.677 528.94 208.475 535.202 208.027C541.464 207.58 542.597 204.994 542.621 204.767C544.658 183.028 546.262 165.496 547.556 151.955Z" fill="#263238"/>
<path d="M541.991 190.689C538.498 189.262 535.037 195.235 532.106 193.948L520.332 206.954L524.341 210.333L584.926 228.447C584.926 228.447 589.418 220.362 590.911 214.264C592.404 208.166 590.29 206.295 590.081 206.203C570.012 197.602 554.485 196.07 541.991 190.689Z" fill="#263238"/>
<path d="M568.337 164.33C567.276 160.743 566.369 157.349 565.549 154.283L538.35 161.555L538.206 166.755L558.568 220.383C558.568 220.383 571.352 222.732 576.076 219.997C580.8 217.261 582.454 215.221 582.396 215.002C576.614 194.142 571.916 177.333 568.337 164.33Z" fill="#37474F"/>
<path d="M593.737 217.632C591.017 215.064 580.141 209.026 577.893 206.788L558.539 220.095L561.028 224.663L610.524 262.574C610.524 262.574 617.811 256.407 620.521 251.669C623.231 246.93 623.637 244.335 623.476 244.175C607.997 229.044 603.365 227.077 593.737 217.632Z" fill="#37474F"/>
<path d="M515.328 182.981C514.823 174.058 512.986 146.431 515.277 136.9C518.873 129 523.646 131.187 534.578 133.313C543.324 135.014 551.343 156.17 552.037 161.36C550.119 170.274 546.301 188.574 546.371 190.467C546.441 192.36 548.533 192.352 549.57 192.112C560.41 195.387 582.559 201.975 584.435 202.125C586.779 202.313 588.897 203.593 589.625 204.901C590.207 205.947 590.679 207.9 590.843 208.746C590.818 210.779 590.618 215.695 590.013 219.088C589.408 222.481 587.726 226.26 586.961 227.726C586.411 228.237 584.682 229.486 582.167 230.394C579.651 231.303 575.879 230.352 574.307 229.764C559.234 225.039 528.201 215.24 524.649 213.845C520.209 212.101 520.883 210.628 518.898 207.693C516.912 204.758 515.96 194.134 515.328 182.981Z" fill="#667D8E"/>
<path d="M540.264 169.714C540.591 165.633 542.476 160.593 543.377 158.584C543.902 157.238 545.387 153.943 547.135 151.53C549.32 148.513 556.178 144.344 561.876 144.246C567.574 144.148 569.851 148.633 572.018 151.027C574.186 153.422 576.332 175.106 579.061 184.346C581.243 191.738 583.534 200.665 584.407 204.205C584.186 204.649 585.302 206.192 591.533 208.801C599.321 212.063 618.032 233.132 620.404 234.71C622.775 236.288 622.538 237.519 623.833 240.398C624.87 242.702 624.022 244.392 623.468 244.949C622.767 247.344 620.843 252.76 618.755 255.257C616.668 257.754 611.949 261.095 609.851 262.454L605.714 262.122C603.618 261.954 602.101 260.444 601.605 259.711C589.54 250.369 564.99 231.376 563.314 230.131C561.218 228.575 559.894 227.775 557.402 224.244C554.909 220.713 548.68 201.478 545.736 193.192C542.793 184.906 539.855 174.817 540.264 169.714Z" fill="#C4D8E8"/>
<path d="M563.782 213.931C560.282 214.649 554.852 212.798 552.574 211.783L550.544 212.869C552.942 218.15 558.219 228.945 560.143 229.877C562.548 231.041 569.205 236.294 571.985 236.239C574.209 236.196 577.16 230.548 578.358 227.729C574.957 222.83 567.281 213.212 563.782 213.931Z" fill="#A0B3D3"/>
<path d="M525.057 200.138C521.933 200.331 517.874 196.832 516.023 195.111C516.023 195.111 514.737 195.563 514.638 196.804C514.538 198.045 515.144 203.645 516.313 207.07C517.773 211.35 519.165 213.419 523.278 215.4C527.09 217.237 533.581 218.316 534.254 216.975C537.603 215.023 534.84 209.666 534.84 209.666C530.428 209.312 526.159 207.165 525.057 200.138Z" fill="#A0AFBB"/>
<path d="M531.104 119.631C531.382 130.878 527.355 133.932 527.355 140.736C527.355 149.899 532.632 156.147 544.572 157.397C556.513 158.647 573.092 148.509 579.211 133.447" stroke="#E627B9" stroke-width="10"/>
<ellipse cx="579.132" cy="133.616" rx="4.93574" ry="2.85342" transform="rotate(20.6255 579.132 133.616)" fill="#E627B9"/>
<path fill-rule="evenodd" clip-rule="evenodd" d="M539.581 75.5111C560.29 75.5111 577.078 58.7229 577.078 38.0136C577.078 17.3043 560.29 0.516113 539.581 0.516113C525.632 0.516113 513.463 8.13209 507.003 19.4325C510.49 16.3064 516.623 14.2042 526.913 15.7173C541.45 17.8549 558.329 33.4529 563.397 39.0269C563.397 39.0269 563.566 51.5258 563.397 56.2552C560.019 60.9846 539.58 68.4168 526.913 66.8967C520.078 66.0764 514.244 63.6251 509.684 60.309C509.476 60.1574 509.266 59.9858 509.055 59.7956C515.856 69.3097 526.994 75.5111 539.581 75.5111Z" fill="#C4D8E8"/>
<path opacity="0.2" fill-rule="evenodd" clip-rule="evenodd" d="M506.977 19.4029C510.463 16.2769 516.596 14.1749 526.886 15.6879C541.423 17.8256 558.302 33.4235 563.37 38.9975C563.37 38.9975 563.539 51.4964 563.37 56.2258C559.991 60.9552 539.553 68.3874 526.886 66.8673C520.05 66.047 514.217 63.5957 509.657 60.2796C509.448 60.1279 509.238 59.9562 509.027 59.7658C504.639 53.626 502.056 46.1068 502.056 37.9845C502.056 31.2234 503.846 24.8803 506.977 19.4029Z" fill="#2637EF"/>
<path opacity="0.2" d="M513.207 50.1457C513.207 50.1457 508.14 53.6929 509.153 59.2667C507.465 57.4087 503.304 52.3858 502.06 42.038C500.538 29.3701 507.128 19.7423 507.128 19.7423C507.128 28.3566 513.207 28.3566 513.207 28.3566V50.1457Z" fill="#2637EF"/>
<path d="M514.86 15.081C509.445 15.6364 506.112 20.3571 506.112 20.3571L505.696 21.7456C505.696 21.7456 507.993 17.1548 514.998 16.3307C519.719 15.7753 529.96 17.2896 537.214 20.0794C543.351 22.4398 549.154 26.8829 552.625 29.7986C554.074 31.0153 558.873 35.6763 558.735 35.63L559.845 36.3243C559.66 36.0003 559.068 34.9913 558.179 34.1027C557.068 32.9919 544.434 21.4679 537.769 18.9687C531.999 16.8049 521.491 14.4009 514.86 15.081Z" fill="#1C0D3F"/>
<path d="M509.444 14.1091C508.006 16.4289 507.301 17.8052 506.132 20.3083C507.196 19.3364 509.861 15.4976 519.163 15.4976C530.965 15.4976 546.458 21.6541 558.121 34.4279C559.926 35.4923 563.066 36.1577 560.956 31.0482C558.318 24.6614 551.375 19.9406 546.516 16.053C541.656 12.1653 529.993 7.58344 521.107 7.99997C513.998 8.3332 510.555 12.443 509.444 14.1091Z" fill="#ED26B7"/>
<path d="M573.23 45.5223C573.017 49.0829 574.494 56.6142 573.011 59.0901C571.113 62.2577 565.945 59.8933 563.067 59.7477C557.94 59.4884 554.177 52.6991 554.663 44.5833C555.149 36.4676 559.699 30.0987 564.826 30.358C567.244 30.4802 573.881 30.5286 575.39 33.0087C577.081 35.7888 573.487 41.2331 573.23 45.5223Z" fill="url(#paint26_linear_937_4245)"/>
<ellipse cx="9.29546" cy="15.0609" rx="9.29546" ry="15.0609" transform="matrix(0.998724 0.0505085 -0.0597614 0.998213 561.763 30.2435)" fill="#C4D8E8"/>
<path opacity="0.6" d="M509.658 107.406C511.685 107.913 515.232 108.644 517.766 108.926C526.887 109.939 543.101 110.446 549.182 108.926C555.263 107.406 561.343 105.886 566.411 103.352" stroke="#9AA9BE" stroke-width="7.29912"/>
<g opacity="0.4">
<path d="M528.465 123.658C528.789 124.028 529.686 124.53 530.687 124.63C532.075 124.768 532.908 124.491 533.603 124.074" stroke="#3C0133" stroke-width="2"/>
<path d="M528.465 121.158C528.789 121.528 529.686 122.03 530.687 122.13C532.075 122.269 532.908 121.991 533.603 121.575" stroke="#3C0133" stroke-width="2"/>
<path d="M528.051 125.879C528.375 126.249 529.271 126.751 530.272 126.851C531.661 126.99 532.494 126.712 533.188 126.295" stroke="#3C0133" stroke-width="2"/>
<path d="M527.794 127.996C528.103 128.379 528.978 128.917 529.974 129.057C531.356 129.253 532.199 129.009 532.91 128.622" stroke="#3C0133" stroke-width="2"/>
<path d="M527.338 130.055C527.604 130.469 528.418 131.097 529.393 131.342C530.746 131.683 531.611 131.531 532.359 131.22" stroke="#3C0133" stroke-width="2"/>
<path d="M526.588 132.397C526.829 132.826 527.603 133.501 528.562 133.805C529.893 134.226 530.765 134.126 531.53 133.861" stroke="#3C0133" stroke-width="2"/>
<path d="M525.758 134.765C525.999 135.194 526.774 135.869 527.733 136.173C529.063 136.594 529.935 136.493 530.7 136.228" stroke="#3C0133" stroke-width="2"/>
<path d="M525.066 137.96C525.375 138.343 526.252 138.879 527.248 139.017C528.63 139.21 529.473 138.965 530.183 138.575" stroke="#3C0133" stroke-width="2"/>
<path d="M524.717 140.8C525.055 141.157 525.972 141.622 526.976 141.682C528.369 141.764 529.19 141.453 529.867 141.009" stroke="#3C0133" stroke-width="2"/>
<path d="M524.965 143.977C525.354 144.278 526.33 144.599 527.332 144.506C528.721 144.377 529.486 143.945 530.087 143.404" stroke="#3C0133" stroke-width="2"/>
<path d="M525.866 147.3C526.301 147.531 527.317 147.682 528.288 147.42C529.635 147.056 530.315 146.501 530.816 145.865" stroke="#3C0133" stroke-width="2"/>
<path d="M526.985 150.13C527.437 150.325 528.463 150.391 529.409 150.05C530.722 149.577 531.354 148.968 531.801 148.293" stroke="#3C0133" stroke-width="2"/>
<path d="M528.765 152.975C529.244 153.085 530.265 152.966 531.134 152.46C532.341 151.759 532.853 151.046 533.171 150.301" stroke="#3C0133" stroke-width="2"/>
<path d="M531.085 155.155C531.577 155.17 532.555 154.856 533.31 154.191C534.357 153.269 534.722 152.47 534.89 151.678" stroke="#3C0133" stroke-width="2"/>
<path d="M534.21 157.227C534.696 157.149 535.597 156.655 536.213 155.859C537.067 154.756 537.273 153.902 537.288 153.093" stroke="#3C0133" stroke-width="2"/>
<path d="M537.935 158.616C538.393 158.437 539.169 157.763 539.603 156.856C540.204 155.597 540.226 154.719 540.069 153.924" stroke="#3C0133" stroke-width="2"/>
<path d="M542.042 159.78C542.464 159.529 543.12 158.738 543.401 157.772C543.789 156.432 543.667 155.562 543.384 154.804" stroke="#3C0133" stroke-width="2"/>
<path d="M546.233 159.979C546.573 159.624 546.993 158.686 547.003 157.68C547.018 156.285 546.667 155.48 546.19 154.825" stroke="#3C0133" stroke-width="2"/>
<path d="M550.078 159.695C550.349 159.285 550.597 158.288 550.43 157.296C550.198 155.92 549.71 155.19 549.125 154.63" stroke="#3C0133" stroke-width="2"/>
<path d="M553.714 158.802C553.914 158.352 553.994 157.328 553.665 156.377C553.209 155.059 552.607 154.419 551.938 153.963" stroke="#3C0133" stroke-width="2"/>
<path d="M557.183 157.246C557.324 156.775 557.272 155.748 556.824 154.848C556.203 153.598 555.525 153.04 554.803 152.674" stroke="#3C0133" stroke-width="2"/>
<path d="M560.309 155.842C560.45 155.371 560.398 154.345 559.951 153.444C559.33 152.194 558.651 151.637 557.929 151.27" stroke="#3C0133" stroke-width="2"/>
<path d="M563.421 154.365C563.563 153.893 563.51 152.867 563.063 151.966C562.442 150.717 561.764 150.159 561.042 149.793" stroke="#3C0133" stroke-width="2"/>
<path d="M566.412 152.458C566.553 151.986 566.501 150.96 566.054 150.059C565.433 148.81 564.754 148.252 564.032 147.886" stroke="#3C0133" stroke-width="2"/>
<path d="M569.456 150.237C569.543 149.753 569.374 148.739 568.827 147.895C568.068 146.724 567.331 146.247 566.572 145.965" stroke="#3C0133" stroke-width="2"/>
<path d="M572.214 147.763C572.245 147.272 571.962 146.285 571.323 145.508C570.435 144.432 569.648 144.042 568.862 143.848" stroke="#3C0133" stroke-width="2"/>
<path d="M574.661 145.286C574.628 144.795 574.219 143.852 573.484 143.166C572.465 142.213 571.634 141.928 570.83 141.838" stroke="#3C0133" stroke-width="2"/>
<path d="M576.685 143.327C576.652 142.836 576.244 141.893 575.509 141.206C574.489 140.254 573.659 139.969 572.854 139.879" stroke="#3C0133" stroke-width="2"/>
<path d="M578.675 140.364C578.575 139.882 578.039 139.005 577.216 138.427C576.074 137.625 575.212 137.458 574.403 137.481" stroke="#3C0133" stroke-width="2"/>
</g>
<path d="M515.992 71.1876C516.813 71.5004 521.394 72.3608 525.808 72.3608C534.986 72.3608 548.169 69.9082 554.757 67.8813C560.027 66.2598 564.388 65.134 565.398 64.3342" stroke="#A0AFBB" stroke-width="7.29912"/>
<path d="M534.869 92.8426C534.616 102.467 534.161 108.831 534.869 120.742L540.571 118.686C540.571 115.601 539.756 111.349 539.756 103.124V83.5894L534.869 92.8426Z" fill="#7095BF"/>
<path d="M508.057 118.085V103.829C508.057 98.9286 508.057 94.2604 509.775 89.2244L535.548 90.7352C535.516 99.7527 535.445 107.312 535.548 120.603C521.99 120.476 517.316 119.517 508.057 118.085Z" fill="#A0B3D3"/>
<path d="M508.057 90.7519L513.749 80.6162C519.323 81.6297 532.124 82.5765 540.063 81.5631L537.529 93.7245C531.449 93.7245 525.428 93.1011 520.969 92.6957C516.51 92.2903 511.097 91.7653 508.057 90.7519Z" fill="#E3F0FB"/>
<path fill-rule="evenodd" clip-rule="evenodd" d="M571.076 81.9409C570.243 80.1433 569.033 78.6292 567.239 77.9648C564.829 77.0728 562.962 77.0699 561.604 77.6325C560.316 78.1656 558.859 79.4665 557.766 82.5658L551.574 80.383C553.097 76.0632 555.617 73.0051 559.092 71.5664C562.495 70.1573 566.175 70.5699 569.518 71.8076C573.601 73.3192 575.835 76.5937 577.034 79.1819C577.644 80.4997 578.032 81.7343 578.281 82.6537C578.406 83.115 578.497 83.5047 578.56 83.7731C578.56 83.7731 573.374 85.8828 572.449 86.2557C572.341 85.9885 572.275 85.7186 572.257 85.6481C572.256 85.6439 572.255 85.6404 572.255 85.6376C572.23 85.5364 572.201 85.4153 572.176 85.309C572.173 85.2943 572.17 85.28 572.166 85.266C572.107 85.013 572.037 84.7148 571.943 84.3688C571.755 83.6736 571.481 82.8161 571.076 81.9409Z" fill="#647A93"/>
<path d="M555.313 81.0935L538.234 119.549C531.804 128.357 521.317 143.852 519.938 145.415C517.213 148.504 517.343 149.211 517.185 150.341C517.058 151.244 518.604 152.755 519.118 152.9C520.724 152.347 519.682 155.337 523.028 157.625C526.375 159.912 529.9 160.406 529.408 161.961L531.918 163.677C533.591 164.821 537.957 161.857 539.153 160.406L563.027 129.07C568.274 117.803 578.919 92.8247 579.529 89.7763C580.293 85.9657 579.022 77.0518 568.795 73.156C560.614 70.0394 556.398 77.7095 555.313 81.0935Z" fill="#667D8E"/>
<path d="M564.289 38.5456C563.039 41.6002 562.669 46.3672 562.762 47.7094C563.039 50.2086 563.456 52.1525 563.456 52.1525C563.456 52.1525 564.011 41.3225 566.51 37.4349C568.117 34.9354 569.981 32.9918 574.286 32.9918L571.509 32.2976C568.316 32.2976 565.703 35.0909 564.289 38.5456Z" fill="#F2F4F6"/>
<ellipse cx="6.26844" cy="8.16298" rx="6.26844" ry="8.16298" transform="matrix(0.976917 0.213621 -0.0794791 0.996837 522.128 100.722)" fill="#E3F0FB"/>
<path fill-rule="evenodd" clip-rule="evenodd" d="M529.568 118.154C529.255 118.15 528.937 118.114 528.616 118.044C525.234 117.304 522.783 113.062 523.141 108.568C523.403 105.285 525.091 102.776 527.3 101.951C524.318 101.912 521.804 104.792 521.48 108.859C521.121 113.353 523.573 117.596 526.955 118.335C527.866 118.535 528.752 118.459 529.568 118.154Z" fill="#647A94"/>
<path d="M480.571 104.721L433.926 131.655V184.234L480.571 210.428L528.713 184.234V131.513L480.571 104.721Z" fill="#ED26B7" stroke="white" stroke-width="2"/>
<path d="M433.926 131.123L480.72 157.574L527.438 131.123" stroke="white" stroke-width="2"/>
<path d="M434.683 131.159L526.232 130.848" stroke="white"/>
<path d="M480.862 104.874V156.801" stroke="white"/>
<path d="M481.319 157.575V209.828" stroke="white" stroke-width="2"/>
<g filter="url(#filter1_f_937_4245)">
<path d="M457.162 156.09C449.843 152.311 444.22 155.916 444.605 164.145C444.989 172.375 451.235 182.11 458.555 185.894C465.874 189.673 471.495 186.069 471.112 177.841C470.724 169.61 464.48 159.874 457.162 156.09ZM449.582 158.087C450.679 157.383 452.047 157.113 453.592 157.298L456.316 168.587L447.192 161.404C447.666 159.923 448.485 158.794 449.582 158.087ZM466.133 183.895C464.224 185.119 461.515 185.081 458.442 183.493C455.367 181.904 452.529 179.076 450.407 175.77C448.286 172.461 446.899 168.702 446.737 165.246C446.708 164.615 446.735 164.027 446.786 163.464L457.652 172.018C458.02 172.309 458.399 172.388 458.651 172.226C458.901 172.067 458.987 171.688 458.877 171.233L455.633 157.789C456.167 157.977 456.71 158.197 457.273 158.487C460.346 160.075 463.186 162.907 465.306 166.21C467.427 169.519 468.816 173.278 468.977 176.737C469.139 180.193 468.042 182.669 466.133 183.895Z" fill="white"/>
<path d="M458.031 171.221L454.555 181.826" stroke="white" stroke-width="2"/>
</g>
<path d="M456.933 156.031C449.757 151.987 444.006 155.384 444.089 163.622C444.173 171.86 450.058 181.817 457.235 185.866C464.411 189.91 470.159 186.515 470.078 178.278C469.991 170.038 464.108 160.08 456.933 156.031ZM449.285 157.749C450.406 157.086 451.784 156.866 453.321 157.108L455.63 168.489L446.775 160.977C447.303 159.514 448.163 158.416 449.285 157.749ZM464.881 184.146C462.928 185.299 460.223 185.162 457.209 183.463C454.195 181.763 451.462 178.832 449.463 175.451C447.464 172.066 446.215 168.259 446.18 164.8C446.174 164.168 446.222 163.581 446.294 163.02L456.839 171.966C457.197 172.27 457.573 172.363 457.83 172.211C458.087 172.061 458.186 171.686 458.093 171.227L455.342 157.673C455.87 157.88 456.404 158.12 456.956 158.431C459.969 160.13 462.703 163.064 464.702 166.442C466.7 169.827 467.95 173.634 467.985 177.096C468.02 180.556 466.833 182.99 464.881 184.146Z" fill="white"/>
<path d="M457.248 171.184L453.386 181.655" stroke="white" stroke-width="2"/>
<g filter="url(#filter2_f_937_4245)">
<path d="M506.071 156.103C513.45 152.44 519.014 156.133 518.5 164.355C517.985 172.578 511.586 182.213 504.208 185.881C496.83 189.544 491.267 185.852 491.78 177.631C492.297 169.407 498.694 159.77 506.071 156.103ZM513.619 158.219C512.534 157.498 511.169 157.206 509.621 157.367L506.72 168.611L515.957 161.573C515.506 160.085 514.705 158.943 513.619 158.219ZM496.663 183.763C498.552 185.017 501.261 185.022 504.359 183.482C507.459 181.942 510.341 179.159 512.515 175.887C514.688 172.611 516.134 168.875 516.35 165.422C516.39 164.791 516.372 164.203 516.33 163.639L505.33 172.021C504.958 172.306 504.577 172.379 504.328 172.214C504.08 172.05 504.001 171.67 504.117 171.217L507.574 157.826C507.036 158.005 506.49 158.216 505.923 158.498C502.825 160.037 499.941 162.823 497.768 166.093C495.595 169.368 494.148 173.105 493.932 176.56C493.715 180.013 494.773 182.507 496.663 183.763Z" fill="white"/>
<path d="M504.964 171.218L508.272 181.877" stroke="white" stroke-width="2"/>
</g>
<path d="M506.301 156.048C513.54 152.117 519.237 155.604 519.023 163.84C518.81 172.076 512.768 181.938 505.529 185.874C498.289 189.805 492.595 186.319 492.806 178.084C493.023 169.846 499.063 159.983 506.301 156.048ZM513.921 157.886C512.81 157.205 511.436 156.963 509.895 157.181L507.407 168.524L516.38 161.153C515.875 159.682 515.033 158.57 513.921 157.886ZM497.911 184.033C499.845 185.218 502.552 185.123 505.592 183.471C508.633 181.819 511.411 178.932 513.464 175.583C515.516 172.23 516.824 168.443 516.914 164.985C516.93 164.353 516.892 163.766 516.829 163.204L506.143 171.982C505.781 172.28 505.403 172.367 505.148 172.211C504.894 172.057 504.801 171.68 504.901 171.223L507.865 157.714C507.335 157.913 506.797 158.144 506.24 158.447C503.201 160.098 500.421 162.988 498.369 166.335C496.317 169.687 495.008 173.474 494.918 176.936C494.828 180.394 495.976 182.847 497.911 184.033Z" fill="white"/>
<path d="M505.747 171.193L509.443 181.724" stroke="white" stroke-width="2"/>
<ellipse cx="2.59929" cy="3.06601" rx="2.59929" ry="3.06601" transform="matrix(-0.958113 -0.286389 0.183075 -0.983099 513.687 101.513)" fill="#E627B9"/>
<path fill-rule="evenodd" clip-rule="evenodd" d="M511.227 94.7048C511.356 94.7188 511.487 94.745 511.618 94.7841C512.994 95.1952 513.857 96.878 513.547 98.5427C513.321 99.7584 512.531 100.628 511.586 100.849C512.82 100.981 513.966 100.006 514.246 98.4999C514.556 96.8352 513.692 95.1524 512.317 94.7413C511.946 94.6304 511.576 94.6233 511.227 94.7048Z" fill="#FFC5F5"/>
<ellipse cx="2.59929" cy="3.06601" rx="2.59929" ry="3.06601" transform="matrix(-0.958113 -0.286389 0.183075 -0.983099 520.076 102.068)" fill="#E627B9"/>
<path fill-rule="evenodd" clip-rule="evenodd" d="M517.616 95.2596C517.747 95.2735 517.878 95.2997 518.01 95.339C519.385 95.7501 520.249 97.4329 519.939 99.0976C519.712 100.313 518.923 101.183 517.978 101.404C519.211 101.535 520.356 100.56 520.636 99.0546C520.946 97.3899 520.082 95.7071 518.707 95.296C518.336 95.1851 517.966 95.178 517.616 95.2596Z" fill="#FFC5F5"/>
<path d="M553.731 80.3005L536.844 118.475C530.465 127.208 520.065 142.576 518.696 144.125C515.99 147.186 516.123 147.89 515.969 149.012C515.846 149.911 517.393 151.418 517.907 151.565C519.506 151.021 522.419 150.352 525.765 152.64C529.112 154.927 530.192 158.735 529.753 160.275L532.263 161.991C533.936 163.135 536.73 160.544 537.918 159.105L561.609 128.037C566.799 116.853 577.327 93.7283 577.924 90.6994C578.671 86.9132 577.369 78.0444 567.154 74.1313C558.983 71.0007 554.8 76.9397 553.731 80.3005Z" fill="#C4D8E8"/>
<path d="M558.235 74.4833C554.516 76.3812 552.547 81.9888 551.955 84.3311C555.969 80.1797 559.682 78.4043 568.176 80.402C574.911 81.9858 578.301 89.935 577.993 90.3431C577.993 90.3431 578.82 86.0816 576.372 81.8091C574.58 78.6815 571.613 74.7639 567.98 73.9263C564.767 73.1852 562.884 72.111 558.235 74.4833Z" fill="#ED26B7"/>
<path d="M567.221 83.1612C560.944 80.751 553.328 84.5407 550.692 87.1675L549.39 89.8097C551.541 88.1401 557.584 85.2524 564.557 87.0585C571.53 88.8646 574.791 94.4985 575.506 97.0614C575.609 96.855 575.978 96.0408 576.536 94.5701C577.253 92.6798 575.081 86.1792 567.221 83.1612Z" fill="#ED26B7"/>
<path d="M556.907 126.49C548.824 118.812 539.926 118.535 536.844 118.478L535.695 120.05C540.952 119.645 552.343 123.066 556.907 126.49Z" fill="#253B46"/>
<path fill-rule="evenodd" clip-rule="evenodd" d="M535.086 156.259C535.854 157.94 536.35 159.869 536.164 160.994C536.859 160.49 537.34 160.15 538.136 159.334C538.452 158.115 538.444 157.117 537.54 155.138C536.628 153.14 535.195 151.123 533.353 149.334C529.669 145.758 525.885 143.365 519.483 143.609C518.521 144.617 518.149 145.122 517.648 145.908C523.187 145.697 528.221 148.113 531.473 151.271C533.098 152.849 534.326 154.595 535.086 156.259Z" fill="#E627B9"/>
<path d="M568.341 100.707C569.831 96.8363 567.9 92.4913 564.03 91.0019C560.159 89.5125 555.814 91.4429 554.325 95.3134C552.835 99.1839 554.766 103.529 558.636 105.018C562.507 106.508 566.852 104.577 568.341 100.707Z" fill="#ED27B7"/>
<path d="M564.896 100.746C565.316 99.575 565.03 98.407 564.19 97.6704L564.967 95.65C564.781 95.3971 564.568 95.1654 564.333 94.9594L562.66 99.306C562.329 100.167 561.781 100.398 561.139 100.151C560.514 99.9103 560.173 99.2371 560.477 98.4477C560.816 97.5667 561.71 97.2929 562.609 97.6389C562.693 97.6694 562.776 97.7064 562.854 97.7515L563.15 96.9823C563.073 96.9359 562.992 96.8967 562.907 96.8656C561.572 96.3521 560.212 96.7677 559.682 98.1438C559.173 99.4668 559.845 100.536 560.897 100.941C561.395 101.132 561.891 101.129 562.301 100.952C562.71 100.775 563.124 100.451 563.408 99.7124L563.871 98.5084C564.31 98.9886 564.384 99.7717 564.097 100.524C563.549 101.939 561.774 102.631 560.232 102.037C560.197 102.024 560.169 102.013 560.134 101.998C559.077 101.59 558.295 100.85 557.832 99.8071C557.499 99.0563 557.394 98.2234 557.533 97.4154C557.673 96.606 558.049 95.8576 558.616 95.2619C559.181 94.6672 559.911 94.2528 560.713 94.0721C561.515 93.8913 562.352 93.9531 563.119 94.2482L563.423 93.4591C562.809 93.223 562.155 93.1098 561.499 93.1259C560.843 93.1421 560.195 93.288 559.595 93.5531C558.382 94.0897 557.433 95.0868 556.957 96.3239C556.481 97.5607 556.516 98.9366 557.053 100.149C557.591 101.361 558.59 102.31 559.828 102.786L559.928 102.825C560.308 102.971 560.71 103.058 561.119 103.085C561.12 103.086 561.122 103.085 561.124 103.085C561.714 103.125 562.304 103.032 562.852 102.815C563.8 102.438 564.514 101.733 564.866 100.825C564.869 100.823 564.896 100.748 564.896 100.746Z" fill="white"/>
<path d="M572.465 206.187C575.154 207.278 582.619 205.991 584.639 204.966C584.514 204.769 584.474 204.631 584.443 204.357C580.958 205.942 575.482 206.285 572.465 206.187Z" fill="#253B46"/>
<path d="M574.176 208.615C576.767 208.193 580.315 206.253 580.918 205.933L579.081 205.991C578.428 206.776 574.994 208.205 574.176 208.615Z" fill="#253B46"/>
<path d="M533.332 161.144C532.088 153.663 523.822 151.043 518.375 151.043L510.816 159.134C510.816 159.134 510.776 159.213 510.695 159.169C510.33 159.733 502.909 165.801 502.033 167.27C501.635 167.937 503.517 169.485 507.074 167.152C504.819 171.107 502.753 173.313 503.138 174.943C503.761 177.579 507.349 178.325 509.574 179.823C511.8 181.321 516.572 176.996 519.267 176.546C521.8 176.009 525.566 172.074 526.961 169.924C527 169.845 527.121 169.81 527.161 169.731C527.2 169.653 527.24 169.574 527.28 169.496L533.332 161.144Z" fill="#749BBA"/>
<path d="M515.299 163.68L523.248 153.348C524.333 153.514 526.725 154.525 528.524 155.779C530.324 157.034 531.447 159.632 531.439 160.645L523.719 170.61L521.552 171.639L515.031 166.568L515.299 163.68Z" fill="#C4D8E8"/>
<path d="M513.679 158.092L521.654 152.359L515.641 160.669L514.361 161.91L513.14 162.509L511.549 161.52L512.048 159.624L513.679 158.092Z" fill="#C4D8E8"/>
<defs>
<filter id="filter0_f_937_4245" x="13.6147" y="71.1572" width="739.388" height="428.577" filterUnits="userSpaceOnUse" color-interpolation-filters="sRGB">
<feFlood flood-opacity="0" result="BackgroundImageFix"/>
<feBlend mode="normal" in="SourceGraphic" in2="BackgroundImageFix" result="shape"/>
<feGaussianBlur stdDeviation="1" result="effect1_foregroundBlur_937_4245"/>
</filter>
<filter id="filter1_f_937_4245" x="439.586" y="149.589" width="36.5444" height="42.8052" filterUnits="userSpaceOnUse" color-interpolation-filters="sRGB">
<feFlood flood-opacity="0" result="BackgroundImageFix"/>
<feBlend mode="normal" in="SourceGraphic" in2="BackgroundImageFix" result="shape"/>
<feGaussianBlur stdDeviation="2.5" result="effect1_foregroundBlur_937_4245"/>
</filter>
<filter id="filter2_f_937_4245" x="486.747" y="149.688" width="36.7856" height="42.6088" filterUnits="userSpaceOnUse" color-interpolation-filters="sRGB">
<feFlood flood-opacity="0" result="BackgroundImageFix"/>
<feBlend mode="normal" in="SourceGraphic" in2="BackgroundImageFix" result="shape"/>
<feGaussianBlur stdDeviation="2.5" result="effect1_foregroundBlur_937_4245"/>
</filter>
<radialGradient id="paint0_radial_937_4245" cx="0" cy="0" r="1" gradientUnits="userSpaceOnUse" gradientTransform="translate(383.309 236.905) rotate(90) scale(249.595 425.294)">
<stop stop-color="#959595"/>
<stop offset="1" stop-color="#D9D9D9" stop-opacity="0.28"/>
</radialGradient>
<linearGradient id="paint1_linear_937_4245" x1="423.858" y1="179.593" x2="197.826" y2="395.39" gradientUnits="userSpaceOnUse">
<stop stop-color="#5A52BB"/>
<stop offset="1" stop-color="#B3ADF9"/>
</linearGradient>
<linearGradient id="paint2_linear_937_4245" x1="246.276" y1="3.30145" x2="-0.157328" y2="291.502" gradientUnits="userSpaceOnUse">
<stop stop-color="#211697"/>
<stop offset="1" stop-color="#4436E0"/>
</linearGradient>
<linearGradient id="paint3_linear_937_4245" x1="215.687" y1="173.198" x2="294.98" y2="227.359" gradientUnits="userSpaceOnUse">
<stop stop-color="#1B1463"/>
<stop offset="1" stop-color="#1B1463" stop-opacity="0"/>
</linearGradient>
<linearGradient id="paint4_linear_937_4245" x1="443.024" y1="373.471" x2="569.662" y2="515.1" gradientUnits="userSpaceOnUse">
<stop stop-color="#1B1463"/>
<stop offset="1" stop-color="#1B1463" stop-opacity="0"/>
</linearGradient>
<linearGradient id="paint5_linear_937_4245" x1="193.314" y1="214.094" x2="199.517" y2="219.494" gradientUnits="userSpaceOnUse">
<stop stop-color="#1B1463"/>
<stop offset="1" stop-color="#1B1463" stop-opacity="0"/>
</linearGradient>
<linearGradient id="paint6_linear_937_4245" x1="171.304" y1="211.115" x2="179.807" y2="219.295" gradientUnits="userSpaceOnUse">
<stop offset="0.0499371" stop-color="#1B1463"/>
<stop offset="1" stop-color="#1B1463" stop-opacity="0"/>
</linearGradient>
<linearGradient id="paint7_linear_937_4245" x1="286.629" y1="168.002" x2="309.723" y2="174.84" gradientUnits="userSpaceOnUse">
<stop offset="0.0499371" stop-color="#1B1463"/>
<stop offset="0.979065" stop-color="#1B1463" stop-opacity="0"/>
</linearGradient>
<linearGradient id="paint8_linear_937_4245" x1="404.451" y1="222.226" x2="404.451" y2="229.45" gradientUnits="userSpaceOnUse">
<stop stop-color="#2637EF"/>
<stop offset="1" stop-color="#2637EF" stop-opacity="0"/>
</linearGradient>
<linearGradient id="paint9_linear_937_4245" x1="329" y1="298.241" x2="329" y2="305.465" gradientUnits="userSpaceOnUse">
<stop stop-color="#2637EF"/>
<stop offset="1" stop-color="#2637EF" stop-opacity="0"/>
</linearGradient>
<linearGradient id="paint10_linear_937_4245" x1="330.773" y1="222.817" x2="330.773" y2="230.041" gradientUnits="userSpaceOnUse">
<stop stop-color="#2637EF"/>
<stop offset="1" stop-color="#2637EF" stop-opacity="0"/>
</linearGradient>
<linearGradient id="paint11_linear_937_4245" x1="401.273" y1="314.926" x2="401.273" y2="322.15" gradientUnits="userSpaceOnUse">
<stop stop-color="#2637EF"/>
<stop offset="1" stop-color="#2637EF" stop-opacity="0"/>
</linearGradient>
<linearGradient id="paint12_linear_937_4245" x1="407.631" y1="298.899" x2="407.631" y2="306.123" gradientUnits="userSpaceOnUse">
<stop stop-color="#2637EF"/>
<stop offset="1" stop-color="#2637EF" stop-opacity="0"/>
</linearGradient>
<linearGradient id="paint13_linear_937_4245" x1="412.727" y1="221.886" x2="412.727" y2="229.11" gradientUnits="userSpaceOnUse">
<stop stop-color="#2637EF"/>
<stop offset="1" stop-color="#2637EF" stop-opacity="0"/>
</linearGradient>
<linearGradient id="paint14_linear_937_4245" x1="397.906" y1="210.706" x2="397.906" y2="217.929" gradientUnits="userSpaceOnUse">
<stop stop-color="#2637EF"/>
<stop offset="1" stop-color="#2637EF" stop-opacity="0"/>
</linearGradient>
<linearGradient id="paint15_linear_937_4245" x1="1.30215e+06" y1="303.345" x2="1.30215e+06" y2="310.569" gradientUnits="userSpaceOnUse">
<stop stop-color="#2637EF"/>
<stop offset="1" stop-color="#2637EF" stop-opacity="0"/>
</linearGradient>
<linearGradient id="paint16_linear_937_4245" x1="361.645" y1="313.35" x2="361.645" y2="320.574" gradientUnits="userSpaceOnUse">
<stop stop-color="#2637EF"/>
<stop offset="1" stop-color="#2637EF" stop-opacity="0"/>
</linearGradient>
<linearGradient id="paint17_linear_937_4245" x1="378.82" y1="194.538" x2="378.628" y2="443.595" gradientUnits="userSpaceOnUse">
<stop stop-color="#2637EF" stop-opacity="0"/>
<stop offset="1" stop-color="#2637EF" stop-opacity="0.82"/>
</linearGradient>
<linearGradient id="paint18_linear_937_4245" x1="394.689" y1="313.35" x2="394.689" y2="320.574" gradientUnits="userSpaceOnUse">
<stop stop-color="#2637EF"/>
<stop offset="1" stop-color="#2637EF" stop-opacity="0"/>
</linearGradient>
<linearGradient id="paint19_linear_937_4245" x1="387.598" y1="330.86" x2="387.598" y2="338.084" gradientUnits="userSpaceOnUse">
<stop stop-color="#2637EF"/>
<stop offset="1" stop-color="#2637EF" stop-opacity="0"/>
</linearGradient>
<linearGradient id="paint20_linear_937_4245" x1="376.374" y1="337.784" x2="376.374" y2="345.008" gradientUnits="userSpaceOnUse">
<stop stop-color="#2637EF"/>
<stop offset="1" stop-color="#2637EF" stop-opacity="0"/>
</linearGradient>
<linearGradient id="paint21_linear_937_4245" x1="368.001" y1="324.856" x2="368.001" y2="332.08" gradientUnits="userSpaceOnUse">
<stop stop-color="#2637EF"/>
<stop offset="1" stop-color="#2637EF" stop-opacity="0"/>
</linearGradient>
<linearGradient id="paint22_linear_937_4245" x1="1.30207e+06" y1="319.077" x2="1.30207e+06" y2="326.301" gradientUnits="userSpaceOnUse">
<stop stop-color="#2637EF"/>
<stop offset="1" stop-color="#2637EF" stop-opacity="0"/>
</linearGradient>
<linearGradient id="paint23_linear_937_4245" x1="354.35" y1="328.527" x2="354.35" y2="335.75" gradientUnits="userSpaceOnUse">
<stop stop-color="#2637EF"/>
<stop offset="1" stop-color="#2637EF" stop-opacity="0"/>
</linearGradient>
<linearGradient id="paint24_linear_937_4245" x1="1.30214e+06" y1="329.041" x2="1.30214e+06" y2="336.265" gradientUnits="userSpaceOnUse">
<stop stop-color="#2637EF"/>
<stop offset="1" stop-color="#2637EF" stop-opacity="0"/>
</linearGradient>
<linearGradient id="paint25_linear_937_4245" x1="530.455" y1="57.3025" x2="529.74" y2="78.2609" gradientUnits="userSpaceOnUse">
<stop stop-color="#94E69A"/>
<stop offset="1" stop-color="#17ADC9"/>
</linearGradient>
<linearGradient id="paint26_linear_937_4245" x1="564.827" y1="30.358" x2="563.34" y2="59.7615" gradientUnits="userSpaceOnUse">
<stop stop-color="#D9D9D9"/>
<stop offset="1" stop-color="#5F75A0"/>
</linearGradient>
</defs>
</svg>
