<svg width="146" height="26" viewBox="0 0 146 26" fill="none" xmlns="http://www.w3.org/2000/svg"><path d="M7.89602 11.0802c-1.91742 0-3.4688-1.56006-3.4688-3.46877 0-1.90871 1.56009-3.4688 3.4688-3.4688V.673828C4.06989.673828.949707 3.78529.949707 7.62015c0 3.83485 3.111463 6.94635 6.946313 6.94635 3.83488 0 6.94628-3.1115 6.94628-6.94635h-3.4688c0 1.89999-1.56005 3.46005-3.47748 3.46005Z" fill="#BFC9D1"/><path d="M14.5688.673828c-3.8285 0-6.95064 3.113412-6.95064 6.950682h3.47094c0-1.91864 1.5611-3.47098 3.471-3.47098 1.9099 0 3.471 1.56107 3.471 3.47098s-1.5611 3.47099-3.471 3.47099v3.471c3.8286 0 6.9507-3.1135 6.9507-6.95071 0-3.83727-3.1047-6.941962-6.942-6.941962ZM35.0325.673828 28.7349 14.5665h3.65l.8739-1.9274h6.5118l.874 1.9274h3.65L37.997.673828h-2.9645Zm-.24 8.590232 1.7137-3.79365 1.7136 3.79365h-3.4273ZM48.8074.673828h-3.4016V14.5665h9.447v-3.3751h-6.0454V.673828ZM59.9309.673828h-3.4104V14.5665h9.447v-3.3751h-6.0366V.673828ZM77.0165 1.58025C75.9619.978873 74.7766.673828 73.4693.673828c-1.3074 0-2.4927.305045-3.5473.906422-1.0546.60137-1.8913 1.42935-2.4926 2.49265-.6014 1.05459-.9065 2.23991-.9065 3.54725 0 1.30733.3051 2.49265.9065 3.54725.6013 1.0546 1.4293 1.8913 2.4926 2.4926 1.0546.6014 2.2399.9065 3.5473.9065 1.3073 0 2.4926-.3051 3.5472-.9065 1.0546-.6013 1.8913-1.4293 2.4927-2.4926.6013-1.0546.9064-2.23992.9064-3.54725 0-1.30734-.3051-2.49266-.9064-3.54725-.6014-1.0633-1.4294-1.89128-2.4927-2.49265Zm-.4358 7.8876c-.305.54035-.7234.96745-1.2724 1.27245-.5404.3051-1.1592.4532-1.8477.4532-.6886 0-1.2987-.1481-1.8478-.4532-.5403-.305-.9674-.7234-1.2724-1.27245-.3051-.54037-.4532-1.15917-.4532-1.8477 0-.68854.1481-1.29863.4532-1.84771.305-.54036.7234-.96743 1.2724-1.27247.5404-.30505 1.1592-.45321 1.8478-.45321.6885 0 1.2986.14816 1.8477.45321.5403.30504.9674.72339 1.2724 1.27247.3051.54037.4532 1.15917.4532 1.84771.0088.68853-.1481 1.30733-.4532 1.8477ZM88.4242 11.1914c-.6811 0-1.2933-.1482-1.8364-.4535-.5432-.3052-.9657-.7238-1.2674-1.27325-.3018-.54071-.4483-1.1599-.4483-1.84886 0-.68897.1551-1.29944.4569-1.84887.3104-.5407.7329-.96803 1.276-1.27327.5432-.30524 1.1553-.4535 1.8364-.4535.6553 0 1.2588.1221 1.8192.37501.5518.25291 1.0863.64536 1.595 1.19478l1.6295-3.07853c-.6552-.61919-1.4139-1.09013-2.2847-1.39537-.8708-.313954-1.7933-.462212-2.759-.462212-1.2932 0-2.4658.305237-3.5262.906992-1.0519.60175-1.8796 1.43025-2.4831 2.47678-.6035 1.05524-.9052 2.23259-.9052 3.54074 0 1.30816.3017 2.49426.9052 3.54946.6035 1.0553 1.4312 1.8925 2.4917 2.503 1.0605.6104 2.2416.9157 3.5521.9157 1.0174 0 1.9744-.1745 2.871-.5146.8967-.3401 1.6985-.8459 2.4055-1.5087l-1.6899-3.11344c-1.0001 1.16864-2.2157 1.76164-3.6383 1.76164ZM100.61.673828 94.3086 14.5665h3.652l.8659-1.9274h6.5155l.874 1.9274h3.652L103.567.673828h-2.957Zm-.24 8.590232 1.714-3.79365 1.715 3.79365h-3.429ZM120.028 1.56338c-.997-.593036-2.13-.889552-3.39-.889552h-5.103V14.5665h5.103c1.269 0 2.393-.2966 3.39-.8896.996-.593 1.771-1.4215 2.334-2.4768.562-1.0552.843-2.24999.843-3.57559 0-1.3256-.281-2.51167-.843-3.57563-.563-1.06397-1.338-1.89247-2.334-2.4855Zm-.52 7.88383c-.272.5407-.656.96799-1.15 1.28199-.494.314-1.073.4622-1.712.4622h-1.806V4.04888h1.806c.647 0 1.218.15697 1.712.46221.494.31396.886.74129 1.15 1.282.273.5407.409 1.15117.409 1.8227 0 .68024-.136 1.28199-.409 1.83142ZM128.762.673828h-3.334V14.5665h3.334V.673828ZM139.691.673828h-2.965L130.429 14.5665h3.65l.874-1.9274h6.511l.874 1.9274h3.65L139.691.673828Zm-3.196 8.590232 1.714-3.79365 1.713 3.79365h-3.427ZM33.7363 25.6801h-1.228l-.475-1.3582h-2.1691l-.475 1.3582h-1.21l2.0705-5.5571h1.4161l2.0705 5.5571Zm-3.6032-2.2104h1.6403l-.8246-2.4234-.8157 2.4234ZM40.4051 20.123v5.5571h-1.2362l-1.8094-3.2668-.4503-.9054h-.0082l.0327.9587v3.2135h-.9742V20.123h1.2281l1.8093 3.2579.4503.9144h.0164l-.0328-.9587V20.123h.9743ZM50.9632 20.123v3.3168c0 .7438-.1893 1.3039-.568 1.6802-.3787.3763-.9303.5601-1.6548.5601s-1.2761-.1838-1.6548-.5601c-.3787-.3763-.568-.9364-.568-1.6802V20.123h1.0867v3.273c0 .4551.0906.7964.2799 1.0239.1894.2188.4693.3326.8562.3326.3869 0 .6668-.1138.848-.3326.1811-.2188.2799-.5601.2799-1.0239v-3.273h1.0949ZM56.1074 20.123c.4374 0 .8034.0711 1.1158.2131.3125.142.5446.3462.7142.6125.1696.2663.2499.5859.2499.9676 0 .3729-.0803.7013-.2499.9676-.1696.2663-.4017.4705-.7142.6125-.3035.1421-.6784.2131-1.1158.2131h-1.1873v1.9707h-1.1784V20.123h2.3657Zm-.1875 2.672c.3571 0 .6159-.071.7945-.2219.1785-.1509.2678-.3639.2678-.648 0-.2929-.0893-.5149-.2678-.6569-.1786-.142-.4374-.2219-.7945-.2219h-1.0088v1.7487h1.0088ZM64.8558 20.123v.9321h-1.9035v4.625H61.767v-4.625h-1.9125v-.9321h5.0013ZM66.5229 25.6801V20.123h4.327v.9321h-3.122V22.44h2.4556v.8966h-2.4556v1.4114h3.2407v.9321h-4.4457ZM79.3042 20.123v5.5571h-1.0678v-2.8939l.0623-1.6245h-.0178l-1.5571 4.5184h-.9609l-1.5483-4.5184h-.0177l.0622 1.6245v2.8939h-1.0677V20.123h1.7084l1.0143 3.0271.3559 1.2517h.0178l.3648-1.2428 1.0055-3.036h1.6461ZM83.8925 20.123c.4374 0 .8034.0711 1.1159.2131.3035.142.5445.3462.7141.6125.1697.2663.25.5859.25.9676 0 .3729-.0803.7013-.25.9676-.1696.2663-.4017.4705-.7141.6125-.3035.1421-.6785.2131-1.1159.2131h-1.1873v1.9707h-1.1783V20.123h2.3656Zm-.1785 2.672c.3571 0 .6159-.071.7945-.2219.1785-.1509.2678-.3639.2678-.648 0-.2929-.0893-.5149-.2678-.6569-.1786-.142-.4374-.2219-.7945-.2219h-1.0088v1.7487h1.0088ZM90.1403 20.123c.5183 0 .9625.1119 1.3326.3355.3702.2237.6581.542.8637.9549.2057.4129.3044.9118.3044 1.4882 0 .5763-.0987 1.0753-.3044 1.4882-.2056.4129-.4935.7312-.8637.9548-.3701.2237-.8143.3355-1.3326.3355-.5182 0-.9624-.1118-1.3326-.3355-.3784-.2236-.6663-.5419-.8637-.9548-.2056-.4129-.3044-.9119-.3044-1.4882 0-.5764.0988-1.0753.3044-1.4882.2057-.4129.4936-.7312.8637-.9549.3702-.2236.8144-.3355 1.3326-.3355Zm0 .9205c-.2961 0-.5429.0688-.7485.215-.2057.1377-.362.3527-.4689.628-.107.2753-.1645.6108-.1645 1.0151 0 .3957.0575.7312.1645 1.015.1069.2753.2632.4904.4689.628.2056.1376.4524.2151.7485.2151.2879 0 .5347-.0689.7404-.2151.2056-.1376.3619-.3527.4688-.628.107-.2752.1646-.6107.1646-1.015 0-.4043-.0576-.7398-.1646-1.0151-.1069-.2753-.2632-.4817-.4688-.628-.2057-.1462-.4525-.215-.7404-.215ZM103.755 24.1145c-.105.3441-.271.6366-.498.8688-.227.2323-.499.4043-.813.5248-.315.1118-.656.172-1.032.172-.551 0-1.023-.1118-1.4165-.3355-.4022-.2236-.7082-.5419-.9181-.9548-.2186-.4129-.3235-.9119-.3235-1.4882 0-.5764.1049-1.0753.3235-1.4882.2186-.4129.5246-.7312.9181-.9549.4025-.2236.8655-.3355 1.3985-.3355.376 0 .726.0517 1.032.1549.306.1032.569.2581.787.4645.219.2065.376.4645.472.7828l-1.049.4301c-.096-.3269-.236-.5591-.437-.6968-.192-.1376-.446-.2064-.752-.2064-.297 0-.568.0688-.796.215-.227.1377-.402.3527-.524.628-.123.2753-.184.6108-.184 1.0151 0 .3957.061.7312.175 1.015.114.2753.28.4904.507.628.227.1376.498.2151.822.2151.297 0 .56-.0775.787-.2409.218-.1548.376-.3957.463-.714l1.058.3011ZM107.923 20.123c.518 0 .962.1119 1.333.3355.37.2237.658.542.863.9549.206.4129.305.9118.305 1.4882 0 .5763-.099 1.0753-.305 1.4882-.205.4129-.493.7312-.863.9548-.371.2237-.815.3355-1.333.3355s-.962-.1118-1.333-.3355c-.378-.2236-.666-.5419-.863-.9548-.206-.4129-.305-.9119-.305-1.4882 0-.5764.099-1.0753.305-1.4882.205-.4129.493-.7312.863-.9549.379-.2236.823-.3355 1.333-.3355Zm0 .9205c-.296 0-.543.0688-.749.215-.205.1377-.361.3527-.468.628-.107.2753-.165.6108-.165 1.0151 0 .3957.058.7312.165 1.015.107.2753.263.4904.468.628.206.1376.453.2151.749.2151.288 0 .535-.0689.74-.2151.206-.1376.362-.3527.469-.628.107-.2752.165-.6107.165-1.015 0-.4043-.058-.7398-.165-1.0151-.107-.2753-.263-.4817-.469-.628-.205-.1462-.452-.215-.74-.215ZM119.315 20.123v5.5571h-1.068v-2.8939l.062-1.6245h-.017l-1.557 4.5184h-.961l-1.549-4.5184h-.017l.062 1.6245v2.8939h-1.068V20.123h1.709l1.014 3.0271.356 1.2517h.018l.364-1.2428 1.006-3.036h1.646ZM123.903 20.123c.438 0 .804.0711 1.116.2131.304.142.545.3462.714.6125.17.2663.25.5859.25.9676 0 .3729-.08.7013-.25.9676-.169.2663-.401.4705-.714.6125-.303.1421-.678.2131-1.116.2131h-1.187v1.9707h-1.178V20.123h2.365Zm-.178 2.672c.357 0 .616-.071.794-.2219.179-.1509.268-.3639.268-.648 0-.2929-.089-.5149-.268-.6569-.178-.142-.437-.2219-.794-.2219h-1.009v1.7487h1.009ZM132.652 25.6801h-1.228l-.475-1.3582h-2.169l-.475 1.3582h-1.21l2.071-5.5571h1.416l2.07 5.5571Zm-3.603-2.2104h1.64l-.824-2.4234-.816 2.4234ZM138.765 20.123v5.5571h-1.236l-1.81-3.2668-.45-.9054h-.008l.033.9587v3.2135h-.975V20.123h1.228l1.81 3.2579.45.9144h.016l-.032-.9587V20.123h.974ZM145.989 20.123l-1.932 3.4799v2.0772h-1.138v-2.0772l-1.932-3.4799h1.216l.88 1.6689.414.87.422-.87.88-1.6689h1.19Z" fill="#BFC9D1"/></svg>