<svg width="611" height="250" viewBox="0 0 611 250" fill="none" xmlns="http://www.w3.org/2000/svg">
<g clip-path="url(#clip0_1153_85)">
<path d="M611.205 106.911C611.212 109.262 610.52 111.561 609.218 113.519C607.916 115.476 606.062 117.002 603.892 117.905C601.721 118.807 599.332 119.045 597.026 118.588C594.72 118.131 592.602 117 590.94 115.338C589.278 113.676 588.146 111.557 587.689 109.252C587.232 106.946 587.47 104.556 588.373 102.386C589.275 100.215 590.802 98.3615 592.759 97.0596C594.716 95.7576 597.016 95.066 599.366 95.0724C600.921 95.0724 602.461 95.3786 603.897 95.9736C605.333 96.5686 606.638 97.4406 607.738 98.5399C608.837 99.6392 609.709 100.944 610.304 102.381C610.899 103.817 611.205 105.356 611.205 106.911ZM589.231 106.911C589.231 108.908 589.822 110.86 590.931 112.521C592.04 114.182 593.616 115.477 595.46 116.242C597.304 117.008 599.334 117.21 601.293 116.823C603.252 116.436 605.053 115.477 606.467 114.067C607.881 112.657 608.846 110.86 609.239 108.902C609.633 106.944 609.437 104.914 608.678 103.067C607.918 101.22 606.628 99.6403 604.971 98.5262C603.314 97.4121 601.363 96.8141 599.366 96.8077C598.034 96.8013 596.713 97.059 595.48 97.5661C594.247 98.0732 593.127 98.8196 592.185 99.7621C591.242 100.705 590.496 101.824 589.989 103.057C589.482 104.29 589.224 105.611 589.231 106.944V106.911ZM597.112 113.755H594.907V100.116H600.34C600.82 100.061 601.306 100.109 601.767 100.255C602.228 100.401 602.653 100.642 603.014 100.964C603.375 101.285 603.665 101.679 603.863 102.12C604.062 102.561 604.165 103.038 604.167 103.522C604.17 104.336 603.866 105.122 603.316 105.723C602.766 106.324 602.011 106.696 601.199 106.765C602.902 106.96 603.502 107.495 603.599 110.236C603.652 111.441 603.831 112.636 604.134 113.804H601.961C601.514 112.333 601.322 110.798 601.394 109.263C601.374 109.017 601.304 108.778 601.188 108.561C601.072 108.344 600.912 108.153 600.719 108.001C600.525 107.849 600.302 107.738 600.064 107.676C599.826 107.614 599.577 107.602 599.334 107.641H597.112V113.755ZM597.112 105.889H599.967C600.248 105.894 600.527 105.838 600.785 105.725C601.043 105.613 601.274 105.447 601.463 105.238C601.652 105.03 601.794 104.783 601.88 104.515C601.966 104.247 601.994 103.964 601.961 103.684C601.987 103.412 601.954 103.137 601.865 102.879C601.775 102.621 601.63 102.385 601.441 102.188C601.251 101.991 601.021 101.837 600.767 101.737C600.513 101.637 600.24 101.593 599.967 101.608H597.112V105.889Z" fill="#BFC9D1"/>
<path d="M12.6983 130.297H0V111.679H12.6983V69.1892H69.4593C85.6768 69.1892 100.094 78.6764 100.094 97.6346C100.094 107.446 95.018 115.231 87.1201 118.717C98.1318 122.285 106.078 131.075 106.078 144.665C106.078 163.623 92.034 175.478 73.4164 175.478H12.6983V130.297ZM32.3214 111.679H67.2051C75.849 111.679 80.4061 106.084 80.4061 99.6618C80.4061 93.2397 75.8328 87.8068 67.2051 87.8068H32.3214V111.679ZM32.3214 156.877H71.0811C79.8872 156.877 86.3255 151.12 86.3255 143.66C86.3255 136.2 79.8385 130.297 71.0811 130.297H32.3214V156.877Z" fill="#BFC9D1"/>
<path d="M200.042 157.72C190.312 170.078 176.689 177.522 161.964 177.684C133.356 177.684 116.766 156.196 116.766 134.53C116.766 112.863 133.356 91.3749 161.964 91.3749C179.057 91.3749 204.437 105.419 204.437 137.4V140.644H136.405C137.427 153.163 149.103 162.132 161.461 162.132C170.932 162.132 179.057 157.558 185.155 149.433L200.042 157.72ZM183.825 126.064C180.111 113.544 170.851 106.944 159.628 106.944C148.406 106.944 139.308 113.885 136.437 126.064H183.825Z" fill="#BFC9D1"/>
<path d="M222.033 93.5643H239.645V103.943H239.97C244.835 96.3213 253.852 91.4236 265.026 91.4236C282.297 91.4236 296.844 105.808 296.844 126.113V175.495H279.248V129.891C279.248 115.004 271.464 108.906 259.787 108.906C248.435 108.906 239.645 116.188 239.645 129.551V175.495H222.033V93.5643Z" fill="#BFC9D1"/>
<path d="M320.195 110.155H310.205V93.5642H320.195V71.7355L337.791 67V93.5642H350.327V110.155H337.791V175.495H320.195V110.155Z" fill="#BFC9D1"/>
<path d="M380.949 69.1892V142.492C380.949 151.963 382.976 155.353 388.23 158.401L397.718 163.802L389.933 177.684C371.835 169.056 363.369 162.796 363.369 145.703V69.1892H380.949Z" fill="#BFC9D1"/>
<path d="M485.206 157.72C475.394 170.078 461.853 177.522 447.127 177.684C418.52 177.684 401.945 156.196 401.945 134.53C401.945 112.863 418.52 91.3749 447.127 91.3749C464.22 91.3749 489.617 105.419 489.617 137.4V140.644H421.504C422.525 153.163 434.202 162.132 446.56 162.132C456.047 162.132 464.155 157.558 470.253 149.433L485.206 157.72ZM468.988 126.064C465.258 113.544 456.014 106.944 444.776 106.944C433.537 106.944 424.471 113.885 421.585 126.064H468.988Z" fill="#BFC9D1"/>
<path d="M504.332 93.5642H521.928V141.633C521.928 155.353 530.393 161.094 541.243 161.094C554.947 161.094 561.547 152.644 561.547 140.011V93.5642H579.143V172.949C579.143 198.005 556.974 209 541.729 209C523.29 209 514.987 202.059 507.04 192.929L521.928 183.782C527.523 189.199 533.102 192.426 540.724 192.426C552.401 192.426 562.553 185.306 562.553 170.921V166.527H562.228C555.352 174.311 548.865 177.684 537.513 177.684C519.236 177.684 504.348 163.98 504.348 140.952L504.332 93.5642Z" fill="#BFC9D1"/>
</g>
<defs>
<clipPath id="clip0_1153_85">
<rect width="611" height="250" fill="white"/>
</clipPath>
</defs>
</svg>
