<svg width="848" height="250" viewBox="0 0 848 250" fill="none" xmlns="http://www.w3.org/2000/svg">
<path fill-rule="evenodd" clip-rule="evenodd" d="M810.383 190.445C808.352 190.445 807.224 189.16 807.224 187.407C807.224 185.653 808.352 184.368 810.383 184.368C815.453 184.368 817.705 182.73 820.967 173.851L823.105 168.24L804.07 117.638C803.957 117.287 803.843 116.704 803.843 116.119C803.843 114.601 805.085 113.197 806.883 113.197C808.244 113.197 809.254 113.899 809.816 115.535L826.151 159.593H826.264L842.151 115.535C842.713 113.899 843.722 113.197 845.072 113.197C846.876 113.197 847.999 114.601 847.999 116.119C847.999 116.704 847.891 117.287 847.778 117.638L826.604 174.784C821.869 187.757 818.035 190.445 811.279 190.445H810.383ZM775.488 166.489V107.004C775.488 93.682 779.651 89.9419 790.473 89.9419H792.05C794.075 89.9419 795.208 91.2266 795.208 92.9811C795.208 94.7339 794.075 96.0197 792.05 96.0197C783.15 96.0197 781.573 97.421 781.573 106.186V112.965C781.573 113.432 781.8 113.665 782.248 113.665H792.384C794.301 113.665 795.208 114.834 795.208 116.471C795.208 118.106 794.301 119.277 792.384 119.277H782.248C781.8 119.277 781.573 119.509 781.573 119.975V166.489C781.573 168.708 780.326 169.878 778.533 169.878C776.724 169.878 775.488 168.708 775.488 166.489ZM756.944 166.489V116.587C756.944 114.367 758.186 113.197 759.99 113.197C761.793 113.197 763.03 114.367 763.03 116.587V166.489C763.03 168.708 761.793 169.878 759.99 169.878C758.186 169.878 756.944 168.708 756.944 166.489ZM755.259 94.3851C755.259 91.6953 757.398 89.4764 759.99 89.4764C762.582 89.4764 764.72 91.6953 764.72 94.3851C764.72 97.0716 762.582 99.2921 759.99 99.2921C757.398 99.2921 755.259 97.0716 755.259 94.3851ZM716.989 166.489V116.587C716.989 114.367 718.226 113.197 720.029 113.197C721.827 113.197 723.075 114.367 723.075 116.587V121.963H723.188C725.213 116.354 730.284 112.498 737.272 112.498C741.548 112.498 744.362 113.665 746.5 114.953C747.856 115.769 748.298 116.704 748.298 117.756C748.298 119.509 747.062 120.911 745.258 120.911C744.81 120.911 744.248 120.793 743.687 120.561C741.208 119.393 738.838 118.575 736.138 118.575C726.677 118.575 723.075 126.988 723.075 137.391V166.489C723.075 168.708 721.827 169.878 720.029 169.878C718.226 169.878 716.989 168.708 716.989 166.489ZM699.72 137.507C700.173 137.507 700.4 137.273 700.4 136.805C700.4 133.533 700.06 131.077 699.385 128.857C697.246 121.963 691.949 118.341 684.967 118.341C677.979 118.341 672.801 121.963 670.662 128.857C669.982 131.077 669.642 133.533 669.642 136.805C669.642 137.273 669.868 137.507 670.322 137.507H699.72ZM665.138 155.971C664.015 152.464 663.453 148.608 663.453 141.481C663.453 134.466 664.015 130.612 665.138 126.988C668.065 117.638 675.387 112.498 684.967 112.498C694.649 112.498 701.972 117.638 704.904 126.988C706.038 130.494 706.599 134.701 706.599 140.311C706.599 142.063 705.465 143.232 703.775 143.232H670.322C669.868 143.232 669.642 143.465 669.642 143.933C669.642 148.491 669.868 150.829 670.77 153.632C673.135 160.994 678.66 164.501 685.977 164.501C692.062 164.501 696.453 162.513 700.513 158.19C701.07 157.606 701.858 157.022 702.76 157.022C704.342 157.022 705.465 158.19 705.465 159.711C705.465 160.527 705.239 161.229 704.79 161.813C700.962 166.84 694.541 170.579 685.642 170.579C675.274 170.579 668.178 165.552 665.138 155.971ZM602.832 137.507C603.286 137.507 603.513 137.273 603.513 136.805C603.513 133.533 603.172 131.077 602.497 128.857C600.359 121.963 595.062 118.341 588.079 118.341C581.092 118.341 575.908 121.963 573.769 128.857C573.094 131.077 572.754 133.533 572.754 136.805C572.754 137.273 572.981 137.507 573.434 137.507H602.832ZM568.25 155.971C567.127 152.464 566.56 148.608 566.56 141.481C566.56 134.466 567.127 130.612 568.25 126.988C571.177 117.638 578.5 112.498 588.079 112.498C597.762 112.498 605.084 117.638 608.016 126.988C609.145 130.494 609.706 134.701 609.706 140.311C609.706 142.063 608.578 143.232 606.893 143.232H573.434C572.981 143.232 572.754 143.465 572.754 143.933C572.754 148.491 572.981 150.829 573.883 153.632C576.248 160.994 581.772 164.501 589.089 164.501C595.175 164.501 599.565 162.513 603.626 158.19C604.182 157.606 604.971 157.022 605.872 157.022C607.455 157.022 608.578 158.19 608.578 159.711C608.578 160.527 608.356 161.229 607.903 161.813C604.074 166.84 597.648 170.579 588.754 170.579C578.386 170.579 571.291 165.552 568.25 155.971ZM632.381 166.254L608.384 94.1507C608.27 93.682 608.157 93.0977 608.157 92.6301C608.157 90.7595 609.507 89.4764 611.31 89.4764C612.666 89.4764 613.789 90.4106 614.351 92.0469L636.318 158.308H636.545L658.172 92.0469C658.739 90.4106 659.867 89.4764 661.217 89.4764C663.016 89.4764 664.371 90.7595 664.371 92.6301C664.371 93.0977 664.258 93.7997 664.144 94.1507L640.152 166.254C639.363 168.708 638.348 169.878 636.205 169.878C634.179 169.878 633.17 168.708 632.381 166.254ZM556.252 169.878C548.033 169.878 545.1 165.905 545.1 156.788V92.9827C545.1 90.7633 546.343 89.5931 548.146 89.5931C549.944 89.5931 551.181 90.7633 551.181 92.9827V156.555C551.181 162.048 552.65 163.799 557.38 163.799C559.405 163.799 560.534 165.086 560.534 166.84C560.534 168.591 559.405 169.878 557.38 169.878H556.252ZM527.526 154.451C528.652 150.829 528.992 147.089 528.992 141.481C528.992 135.986 528.652 132.246 527.526 128.625C525.5 122.314 520.655 118.575 513.781 118.575C507.022 118.575 502.067 121.73 499.924 128.274C499.029 131.311 498.576 135.986 498.576 141.481C498.576 147.089 499.029 151.763 499.924 154.802C502.067 161.347 507.022 164.501 513.781 164.501C520.655 164.501 525.5 160.762 527.526 154.451ZM498.689 162.399H498.576V166.489C498.576 168.708 497.338 169.878 495.534 169.878C493.732 169.878 492.492 168.708 492.492 166.489V92.865C492.492 90.645 493.732 89.4764 495.534 89.4764C497.338 89.4764 498.576 90.645 498.576 92.865V120.677H498.689C501.277 115.886 506.012 112.498 514.799 112.498C523.923 112.498 530.456 117.523 533.273 126.287C534.622 130.844 535.185 135.169 535.185 141.481C535.185 147.908 534.622 152.231 533.273 156.788C530.456 165.552 523.923 170.579 514.799 170.579C506.012 170.579 501.277 167.189 498.689 162.399ZM474.581 166.489V162.631H474.471C471.43 167.656 466.363 170.579 458.813 170.579C446.984 170.579 440.224 162.866 440.224 149.309V116.587C440.224 114.367 441.462 113.197 443.268 113.197C445.069 113.197 446.305 114.367 446.305 116.587V147.79C446.305 158.892 450.814 164.501 460.165 164.501C468.274 164.501 474.581 158.541 474.581 148.959V116.587C474.581 114.367 475.823 113.197 477.624 113.197C479.427 113.197 480.669 114.367 480.669 116.587V166.489C480.669 168.708 479.427 169.878 477.624 169.878C475.823 169.878 474.581 168.708 474.581 166.489ZM423.94 154.1C424.955 150.945 425.405 147.556 425.405 141.481C425.405 135.519 424.955 132.13 423.94 128.975C421.801 122.314 416.619 118.575 409.633 118.575C402.763 118.575 397.581 122.314 395.44 128.975C394.427 132.13 393.978 135.519 393.978 141.481C393.978 147.556 394.427 150.945 395.44 154.1C397.581 160.762 402.763 164.501 409.633 164.501C416.619 164.501 421.801 160.762 423.94 154.1ZM389.582 156.089C388.457 152.349 387.783 148.258 387.783 141.481C387.783 134.816 388.457 130.728 389.582 126.988C392.512 117.756 399.836 112.498 409.633 112.498C419.551 112.498 426.87 117.756 429.8 126.988C430.926 130.728 431.602 134.816 431.602 141.481C431.602 148.258 430.926 152.349 429.8 156.089C426.87 165.319 419.551 170.579 409.633 170.579C399.836 170.579 392.512 165.319 389.582 156.089ZM334.642 163.568H349.964C361.454 163.568 367.538 159.595 370.691 149.66C372.152 144.87 372.719 140.311 372.719 130.144C372.719 119.977 372.152 115.421 370.691 110.627C367.538 100.696 361.454 96.7217 349.964 96.7217H334.642C334.192 96.7217 333.966 96.9555 333.966 97.4231V162.866C333.966 163.334 334.192 163.568 334.642 163.568ZM327.545 93.5659C327.545 91.5781 328.788 90.4106 330.699 90.4106H350.863C364.943 90.4106 373.283 96.8378 376.888 108.408C378.58 113.901 379.14 118.692 379.14 130.144C379.14 141.598 378.58 146.389 376.888 151.881C373.283 163.45 364.943 169.878 350.863 169.878H330.699C328.788 169.878 327.545 168.708 327.545 166.722V93.5659Z" fill="#BFC9D1"/>
<path fill-rule="evenodd" clip-rule="evenodd" d="M8.97341 190.475C4.01721 190.475 0 186.19 0 180.901V71.5438C0 66.2559 4.01721 61.97 8.97341 61.97C13.9297 61.97 17.9469 66.2559 17.9469 71.5438V180.901C17.9469 186.19 13.9297 190.475 8.97341 190.475Z" fill="#BFC9D1"/>
<path fill-rule="evenodd" clip-rule="evenodd" d="M48.677 190.475H36.3712C31.1483 190.475 26.9141 186.192 26.9141 180.904C26.9141 175.618 31.1483 171.334 36.3712 171.334H48.677C73.2539 171.334 93.2481 151.097 93.2481 126.225C93.2481 101.35 73.2539 81.1128 48.677 81.1128H36.3712C31.1483 81.1128 26.9141 76.8272 26.9141 71.5409C26.9141 66.2546 31.1483 61.97 36.3712 61.97H48.677C83.6824 61.97 112.162 90.7946 112.162 126.225C112.162 161.652 83.6824 190.475 48.677 190.475Z" fill="#BFC9D1"/>
<path fill-rule="evenodd" clip-rule="evenodd" d="M179.263 190.475C175.801 190.475 172.489 188.429 170.929 184.944L122.007 75.5903C119.863 70.7983 121.853 65.1028 126.453 62.8685C131.05 60.6352 136.516 62.7082 138.66 67.501L187.583 176.854C189.726 181.646 187.737 187.341 183.138 189.577C181.884 190.186 180.562 190.475 179.263 190.475Z" fill="#BFC9D1"/>
<path fill-rule="evenodd" clip-rule="evenodd" d="M196.63 153.759C195.366 153.759 194.085 153.47 192.865 152.858C188.401 150.619 186.469 144.914 188.551 140.114L220.06 67.5088C222.144 62.7091 227.451 60.6309 231.915 62.8725C236.381 65.1104 238.311 70.816 236.228 75.6157L204.72 148.221C203.207 151.71 199.989 153.759 196.63 153.759Z" fill="#BFC9D1"/>
<path fill-rule="evenodd" clip-rule="evenodd" d="M282.658 218H284.901V34.4214H282.658V218Z" fill="#BFC9D1"/>
</svg>
