<svg width="762" height="250" viewBox="0 0 762 250" fill="none" xmlns="http://www.w3.org/2000/svg">
<path d="M302.942 119.424V131.711V132.478C292.742 132.523 276.91 132.618 266.713 132.432V136.081C266.906 145.245 266.854 166.956 266.854 166.956L263.353 166.968L254.837 166.956H252.25C252.302 140.874 252.306 112.092 252.246 86.0095L252.246 83.0947C269.031 83.1816 290.291 83.1655 307.076 83.1094V85.6111L307.169 96.1966C297.744 96.197 276.155 96.3383 266.731 96.1993V99.6512L266.726 116.283V119.444C277.571 119.332 291.745 119.399 302.942 119.424Z" fill="#BFC9D1"/>
<path d="M353.939 152.463C358.037 148.828 359.239 144.319 359.248 139.362C359.266 129.021 359.333 115.267 359.166 104.929L362.654 104.929L373.24 104.929V115.519C373.267 131.417 373.155 151.088 373.334 166.984C373.334 166.984 368.427 166.984 362.752 166.984C362.752 166.984 362.803 166.948 359.66 159.136C354.183 166.559 346.639 168.527 338.051 167.651C327.961 166.621 320.794 159.851 319.633 149.758C318.627 141.013 319.39 132.198 319.252 123.415C319.171 118.246 319.304 110.09 319.198 104.922L321.948 104.922L333.319 104.922C333.319 113.453 333.32 132.994 333.317 141.524C333.315 146.346 333.918 151.074 338.665 153.592C343.73 156.277 348.88 155.88 353.939 152.463Z" fill="#BFC9D1"/>
<path d="M133.15 145.971C132.172 132.812 123.87 125.057 111.111 125.034C106.588 125.025 102.064 125.106 97.5431 125.011C93.5732 124.928 91.5739 122.946 91.5498 119.018C91.4889 109.068 91.4883 99.1171 91.5498 89.1673C91.5744 85.1937 93.5391 83.214 97.5168 83.1733C105.269 83.094 113.023 83.171 120.777 83.1423C128.703 83.1131 133.066 79.0219 133.268 71.0592C133.461 63.4398 133.302 55.8119 133.332 48.1879C133.352 43.1845 135.101 41.3639 140.032 41.3587C163.292 41.3342 186.553 41.337 209.813 41.3573C214.817 41.3616 216.658 43.1664 216.675 48.0424C216.707 57.6048 216.714 67.1676 216.676 76.7299C216.657 81.4035 214.815 83.205 210.034 83.2103C188.712 83.2338 167.39 83.2116 146.068 83.2241C137.612 83.229 133.413 87.4031 133.401 95.7647C133.392 101.709 133.355 107.654 133.41 113.597C133.471 120.236 137.915 124.819 144.556 124.916C152.437 125.03 160.321 124.92 168.203 124.954C173.178 124.976 175.001 126.753 175.026 131.704C175.073 141.137 175.074 150.571 175.025 160.004C174.999 164.904 173.088 166.805 168.191 166.836C160.438 166.885 152.684 166.814 144.931 166.859C137.757 166.9 133.437 171.277 133.404 178.51C133.37 186.134 133.43 193.759 133.384 201.383C133.352 206.684 131.418 208.605 126.086 208.628C116.912 208.667 107.737 208.672 98.562 208.625C93.384 208.599 91.5514 206.739 91.5398 201.631C91.5183 192.198 91.5116 182.764 91.5408 173.331C91.5554 168.595 93.3466 166.812 98.0789 166.77C102.343 166.731 106.608 166.786 110.872 166.755C123.708 166.663 131.985 159.064 133.15 145.971Z" fill="#BFC9D1"/>
<path d="M86.9197 159.057C79.8953 166.653 70.7603 168.802 62.1632 165.063C53.8338 161.441 48.9648 152.878 49.8292 143.372C50.5946 134.956 57.1297 127.61 65.7677 125.456C74.0482 123.391 82.9366 126.797 87.8652 133.923C93.0979 141.489 92.8155 150.536 86.9197 159.057Z" fill="#BFC9D1"/>
<path d="M466.316 156.822L466.316 166.979H452.227L452.227 162.832C452.402 135.998 452.384 105.229 452.241 78.3941L456.33 78.3941L466.282 78.394V88.3147C466.345 111.021 466.316 133.728 466.316 156.822Z" fill="#BFC9D1"/>
<path d="M509.748 166.339C505.145 167.823 500.829 167.85 496.553 166.313C492.439 164.834 489.987 161.88 489.194 157.597C488.807 155.962 488.807 154.432 488.807 154.432C493.526 154.432 494.549 154.254 494.549 154.432C494.549 160.681 501.313 163.123 506.938 161.479C509.437 160.749 510.92 159.137 511.103 156.513C511.288 153.861 510.109 151.969 507.525 151.24C504.552 150.401 501.505 149.827 498.525 149.008C492.549 147.364 489.977 143.938 490.21 138.115C490.424 132.76 493.873 129.13 499.715 128.111C507.857 126.69 514.603 130.139 516.187 136.626C516.41 137.541 516.315 139.218 516.315 139.218C516.315 139.218 510.36 139.272 510.361 139.221C510.488 134.194 502.503 131.672 498.347 134.557C496.683 135.712 496.149 137.354 496.347 139.283C496.56 141.361 497.929 142.532 499.765 143.046C502.741 143.88 505.809 144.39 508.771 145.267C514.876 147.074 517.935 151.54 517.172 157.417C516.606 161.784 514.173 164.721 509.748 166.339Z" fill="#BFC9D1"/>
<path d="M698.929 166.625C695.502 167.73 692.29 167.75 689.107 166.606C686.045 165.505 684.22 163.307 683.63 160.119C683.342 158.902 683.342 157.763 683.342 157.763C686.854 157.763 687.616 157.631 687.616 157.763C687.616 162.414 692.651 164.231 696.837 163.008C698.697 162.465 699.801 161.265 699.937 159.312C700.074 157.338 699.197 155.929 697.274 155.387C695.061 154.762 692.793 154.335 690.576 153.725C686.127 152.502 684.213 149.952 684.386 145.618C684.546 141.632 687.113 138.93 691.461 138.172C697.521 137.115 702.542 139.681 703.721 144.51C703.887 145.191 703.816 146.439 703.816 146.439C703.816 146.439 699.384 146.479 699.385 146.441C699.479 142.7 693.536 140.822 690.443 142.97C689.204 143.829 688.807 145.052 688.954 146.487C689.112 148.034 690.132 148.906 691.498 149.288C693.713 149.909 695.997 150.289 698.201 150.941C702.745 152.286 705.022 155.61 704.454 159.984C704.033 163.235 702.222 165.421 698.929 166.625Z" fill="#BFC9D1"/>
<path d="M546.806 161.664V166.935H544.511C529.951 166.935 530.346 168.334 530.346 153.785L530.346 146.867V143.443L523.23 143.42H521.813L521.812 138.315C522.716 138.322 526.082 138.323 526.082 138.323L530.346 138.315C530.346 136.59 530.346 130.939 530.346 130.939C532.77 130.963 536.001 130.939 536.001 130.939V138.33H546.789C546.789 138.33 546.789 138.33 546.789 140.836C546.777 142.834 546.789 143.52 546.789 143.52C544.117 143.489 536.001 143.42 536.001 143.42L536.006 152.624L536.003 153.785C535.995 162.484 534.74 161.664 546.806 161.664Z" fill="#BFC9D1"/>
<path d="M578.806 138.327C578.805 146.19 578.821 159.467 578.782 166.96H574.433L573.329 164.595C573.329 164.595 573.639 164.509 570.8 166.011C563.153 170.057 555.445 165.57 555.337 156.961C555.273 151.923 555.355 143.369 555.309 138.33H558.202H560.873C560.873 138.33 560.805 150.979 560.88 155.629C560.948 159.805 562.598 161.817 565.986 162.126C569.438 162.44 572.182 160.479 572.86 156.707C573.779 151.595 573.23 138.327 573.23 138.327L575.575 138.327L578.806 138.327Z" fill="#BFC9D1"/>
<path d="M629.083 166.958H618.557L618.557 161.837C618.557 161.837 626.361 161.899 628.253 161.837C628.253 161.837 628.249 161.532 628.249 154.145L628.253 151.435L628.249 144.243V143.517H619.549V138.305L622.774 138.33L633.86 138.33L633.874 149.751V154.358C633.874 161.832 633.874 161.832 633.874 161.832C635.789 161.969 643.518 161.837 643.518 161.837C643.53 163.614 643.518 166.961 643.518 166.961L629.083 166.958Z" fill="#BFC9D1"/>
<path fill-rule="evenodd" clip-rule="evenodd" d="M425.663 148.991C421.279 155.605 416.317 157.324 407.691 155.28C402.173 153.215 398.566 147.706 397.825 139.876H401.769C410.682 140.071 437.54 139.843 437.54 139.843H440.111C440.111 138.789 440.149 137.612 440.189 136.371C440.303 132.843 440.434 128.798 439.754 125.591C437.127 113.211 427.755 104.884 415.568 104.11C400.79 103.171 390.023 109.737 385.721 122.404C383.518 128.889 383.2 135.576 384.094 142.314C386.982 164.106 410.151 175.135 428.997 163.709C433.44 161.016 436.732 157.309 438.595 152.409C440.365 147.755 440.111 147.709 440.111 147.709C439.257 147.708 437.652 147.709 435.82 147.71C432.386 147.712 428.151 147.714 426.55 147.706C426.55 147.706 426.377 147.914 425.663 148.991ZM424.319 122.296C424.266 122.178 424.206 122.065 423.977 121.711C419.869 115.976 414.358 115.182 408.309 116.531C402.993 117.717 399.995 121.334 398.734 126.537C398.382 128.506 398.576 129.818 398.576 129.818C402.644 129.675 411.212 129.767 418.231 129.842C421.651 129.879 424.702 129.912 426.686 129.912C426.686 129.912 426.686 126.177 424.319 122.296Z" fill="#BFC9D1"/>
<path fill-rule="evenodd" clip-rule="evenodd" d="M606.052 125.928C606.052 125.928 606.078 133.864 606.077 136.411L606.077 140.081C593.856 133.78 585.681 142.277 586.083 153.419C586.124 154.574 586.263 155.736 586.471 156.875C588.154 166.089 596.213 169.965 604.51 165.594C606.255 164.607 606.22 164.511 606.22 164.511L607.108 166.971H611.894C611.923 160.943 611.925 152.936 611.926 145.054C611.928 138.101 611.929 131.245 611.949 125.928C611.949 125.928 612.086 125.93 609.069 125.928C606.052 125.927 606.052 125.928 606.052 125.928ZM592.682 147.559C591.762 150.042 591.762 152.599 592.077 155.503C592.979 159.372 594.674 162.045 598.768 162.179C602.195 162.292 604.401 160.504 605.481 157.418C606.664 154.038 606.634 150.597 605.227 147.244C604.047 144.429 601.829 143.047 598.856 143.136C595.899 143.225 593.747 144.686 592.682 147.559Z" fill="#BFC9D1"/>
<path fill-rule="evenodd" clip-rule="evenodd" d="M660.681 167.219C667.756 168.362 672.619 165.395 675.414 157.979C675.952 154.867 676.161 152.059 675.723 149.21C674.562 141.649 669.214 137.366 661.637 137.998C654.097 138.627 649.834 144.541 650.136 153.953C650.372 161.324 654.23 166.177 660.681 167.219ZM661.706 162.253C665.706 163.005 668.456 161.053 670.036 156.173C670.34 154.126 670.458 152.278 670.211 150.404C669.554 145.429 666.53 142.611 662.246 143.027C657.983 143.44 655.573 147.332 655.744 153.525C655.877 158.374 658.059 161.567 661.706 162.253Z" fill="#BFC9D1"/>
<rect x="628.258" y="127.803" width="5.61491" height="5.61491" fill="#BFC9D1"/>
</svg>
