<svg fill="none" height="35" viewBox="0 0 152 35" width="152" xmlns="http://www.w3.org/2000/svg"><g fill="#BFC9D1" opacity=".7"><path clip-rule="evenodd" d="m3.21797 31.1479h13.62503c7.525 0 13.626-6.1003 13.626-13.6253 0-7.52499-6.101-13.62519-13.626-13.62519-7.52503 0-13.62503 6.1002-13.62503 13.62519v13.6253zm13.62503-30.456494c-9.29503 0-16.8310371 7.535604-16.8310371 16.831194v16.8312h16.8310371c9.296 0 16.832-7.5356 16.832-16.8312 0-9.29559-7.536-16.831194-16.832-16.831194z" fill-rule="evenodd"/><path d="m9.32593 20.9228c0-.8581.69497-1.5537 1.55297-1.5537s1.554.6956 1.554 1.5537v2.0715c0 .8581-.696 1.5537-1.554 1.5537s-1.55297-.6956-1.55297-1.5537zm5.17797-8.8038c0-.858.696-1.5536 1.554-1.5536s1.554.6956 1.554 1.5536v10.8756c0 .858-.696 1.5537-1.554 1.5537s-1.554-.6957-1.554-1.5537zm5.1791 4.1436c0-.858.696-1.5536 1.554-1.5536s1.553.6956 1.553 1.5536v6.7325c0 .8581-.695 1.5537-1.553 1.5537s-1.554-.6956-1.554-1.5537zm21.295 10.7486v-16.7758h3.726v13.4205h8.444v3.3553zm14.666-14.2593v-3.2353h3.871v3.2353zm.096 14.2595v-12.8455h3.678v12.8455zm11.0759.0955-5.105-12.9414h3.895l2.904 8.6036 2.9271-8.6036h3.8239l-5.106 12.9414zm15.9781.1921c-3.896 0-6.775-2.7081-6.775-6.6385v-.0479c0-3.6667 2.638-6.6863 6.412-6.6863 4.331 0 6.315 3.3312 6.315 6.9739 0 .2876-.024.6231-.048.9587h-9.026c.364 1.6535 1.525 2.5163 3.171 2.5163 1.233 0 2.128-.3835 3.145-1.3181l2.105 1.8453c-1.21 1.4859-2.952 2.3966-5.299 2.3966zm-3.17-7.7169h5.541c-.218-1.6297-1.186-2.732-2.734-2.732-1.525 0-2.516 1.0783-2.807 2.732zm20.186 7.7166c-4.984 0-8.686-3.8104-8.686-8.6275v-.048c0-4.7691 3.629-8.67545 8.831-8.67545 3.194 0 5.105 1.05445 6.678 2.58825l-2.371 2.7081c-1.306-1.1743-2.637-1.8933-4.331-1.8933-2.855 0-4.912 2.3486-4.912 5.2245v.0479c0 2.8759 2.009 5.2724 4.912 5.2724 1.936 0 3.121-.7668 4.452-1.9651l2.371 2.3725c-1.742 1.8454-3.677 2.9957-6.944 2.9957zm9.54-.2876v-12.8455h3.678v2.5883c.75-1.7735 1.96-2.9238 4.137-2.8279v3.8105h-.193c-2.444 0-3.944 1.4619-3.944 4.5294v4.7452zm15.905.2879c-3.896 0-6.776-2.7081-6.776-6.6385v-.0479c0-3.6667 2.638-6.6863 6.412-6.6863 4.331 0 6.316 3.3312 6.316 6.9739 0 .2876-.024.6231-.049.9587h-9.025c.363 1.6535 1.524 2.5163 3.17 2.5163 1.233 0 2.129-.3835 3.145-1.3181l2.105 1.8453c-1.21 1.4859-2.952 2.3966-5.298 2.3966zm-3.171-7.7169h5.541c-.217-1.6297-1.185-2.732-2.734-2.732-1.524 0-2.516 1.0783-2.807 2.732zm14.176 7.5249-3.991-12.9414h3.725l2.082 7.7888 2.443-7.8367h3.169l2.469 7.8606 2.129-7.8127h3.653l-4.04 12.9414h-3.315l-2.492-7.8846-2.54 7.8846z"/></g></svg>