<svg width="135" height="37" viewBox="0 0 135 37" fill="none" xmlns="http://www.w3.org/2000/svg">
<g clip-path="url(#clip0_2567_17946)">
<path d="M18.8086 0.522461C15.2408 0.522461 11.7531 1.57815 8.78663 3.55602C5.82013 5.53388 3.50801 8.3451 2.14268 11.6342C0.777347 14.9232 0.420114 18.5424 1.11615 22.0341C1.81219 25.5257 3.53026 28.7331 6.05306 31.2504C8.57587 33.7677 11.7901 35.4821 15.2893 36.1766C18.7886 36.8711 22.4156 36.5147 25.7118 35.1523C29.008 33.7899 31.8253 31.4828 33.8075 28.5227C35.7896 25.5626 36.8476 22.0825 36.8476 18.5225C36.8476 13.7486 34.9471 9.1702 31.5641 5.79455C28.1811 2.41889 23.5928 0.522461 18.8086 0.522461ZM27.9078 28.4045C27.2065 29.8587 25.8852 30.0215 24.4736 29.9337C22.6276 29.819 21.8076 27.7077 22.1766 26.2535C22.5457 24.7992 25.6657 23.8287 26.8592 24.8285C28.1287 25.8987 28.5602 27.053 27.9078 28.4045ZM26.7969 17.2655C23.7828 19.2522 13.1564 22.598 17.2512 23.9405C17.2512 23.9405 18.8387 24.1572 18.8492 24.8195C18.8687 26.015 17.9232 26.165 17.5436 26.0562C16.5402 25.7697 15.5525 26.2415 12.7166 27.2562C8.83223 28.6475 6.56984 24.1617 10.1671 22.4712C10.2633 22.4127 18.7537 18.0462 18.8477 17.999C22.8365 15.9192 19.7128 13.0722 16.1478 14.5902C13.572 15.917 11.1074 14.8775 9.93038 12.4617C7.92955 7.85222 14.9918 5.41172 17.2835 9.40097C18.6094 11.3112 21.9436 11.894 23.6957 11.078C28.2302 8.83171 31.1736 14.6127 26.7976 17.2655H26.7969Z" fill="#BFC9D1"/>
<path fill-rule="evenodd" clip-rule="evenodd" d="M92.5381 28.6045C93.8068 28.6847 94.9937 28.5377 95.6243 27.2305C96.2113 26.0147 95.8219 24.9805 94.6817 24.019C93.6099 23.119 90.8056 23.9912 90.4726 25.2985C90.1397 26.6057 90.8793 28.5025 92.5381 28.6045Z" fill="#BFC9D1"/>
<path fill-rule="evenodd" clip-rule="evenodd" d="M87.4834 24.0123C87.4736 23.4176 86.0471 23.2211 86.0471 23.2211C82.3678 22.0151 91.9158 19.0068 94.6246 17.2211C98.5564 14.8376 95.9121 9.64606 91.8376 11.6636C90.2592 12.3971 87.2677 11.8743 86.0764 10.1576C84.0169 6.57481 77.6717 8.76555 79.4688 12.907C79.6785 13.4253 79.9973 13.8925 80.4037 14.277C80.81 14.6616 81.2945 14.9545 81.8242 15.1359C82.3539 15.3174 82.9165 15.3831 83.4739 15.3286C84.0313 15.2742 84.5705 15.1008 85.0549 14.8203C88.2576 13.456 91.0679 16.0143 87.4811 17.8826C87.397 17.9276 79.7679 21.8486 79.6815 21.9011C76.4495 23.4206 78.4789 27.451 81.9717 26.2C84.519 25.288 85.4059 24.8658 86.3086 25.1208C86.6566 25.2213 87.5029 25.0856 87.4834 24.0123Z" fill="#BFC9D1"/>
<path d="M46.6492 28.9341C46.6492 28.9341 46.3125 28.9641 46.3907 28.5959C46.4688 28.2276 50.1864 10.7901 50.1864 10.7901C51.619 9.51012 54.4844 8.87012 58.7827 8.87012L59.835 8.8941C59.835 8.8941 60.395 8.89411 60.286 9.39886C60.2041 9.78811 59.7103 12.1784 59.6005 12.6599C59.4908 13.1414 58.9015 13.0844 58.9015 13.0844H57.8853C56.789 13.041 55.6985 13.2647 54.7082 13.7361C54.7082 13.7361 51.6799 27.9771 51.5724 28.4743C51.5475 28.6105 51.4732 28.7327 51.3636 28.8176C51.2541 28.9024 51.117 28.9439 50.9786 28.9341" fill="#BFC9D1"/>
<path d="M73.6628 27.9671C71.244 28.597 68.7538 28.9124 66.254 28.9053C61.3529 28.9053 58.9023 27.1791 58.9023 23.7266C58.91 23.0629 58.9856 22.4017 59.1278 21.7534L60.347 16.0399C61.3932 11.1499 64.6134 8.7046 70.0076 8.7041C74.5264 8.7041 76.786 10.4181 76.7865 13.8461C76.778 14.5842 76.6913 15.3192 76.528 16.0391L75.6042 20.4251H64.5207L64.2253 21.7519C64.166 22.0247 64.1351 22.3029 64.1329 22.5821C64.1329 24.0176 65.1363 24.7363 67.1432 24.7383C67.6235 24.7631 68.1037 24.7744 68.584 24.7744C70.5193 24.7812 72.4498 24.5828 74.343 24.1826C74.343 24.1826 74.8466 23.9846 74.7128 24.6101C74.6091 25.0961 74.1791 27.1241 74.0889 27.5269C74.0729 27.6355 74.0233 27.7364 73.9468 27.8154C73.8704 27.8943 73.771 27.9474 73.6628 27.9671ZM65.201 17.1859H71.1854L71.4259 16.0609C71.5061 15.7037 71.5492 15.3393 71.5544 14.9734C71.5544 13.5734 70.7605 12.8734 69.1726 12.8734C67.1281 12.9359 65.8842 13.9986 65.4407 16.0616L65.201 17.1859Z" fill="#BFC9D1"/>
<path d="M111.499 28.7429L104.345 28.9057C99.8256 28.9057 97.5659 27.1912 97.5664 23.7622C97.5752 23.0241 97.6618 22.2891 97.825 21.5692L98.9885 16.0394C100.035 11.1489 102.641 8.70366 106.805 8.70366C108.423 8.6519 110.018 9.10265 111.368 9.99366C111.368 9.99366 112.804 3.2744 112.688 3.8309C112.622 4.14065 112.697 3.3584 113.267 3.3584C113.718 3.3584 116.928 3.3584 117.436 3.3584C117.944 3.3584 117.796 3.79266 117.796 3.79266C117.796 3.79266 112.857 26.9444 112.651 27.8992C112.602 28.1597 112.456 28.3921 112.242 28.5488C112.028 28.7056 111.762 28.775 111.499 28.7429ZM110.626 13.4969C109.601 13.0761 108.502 12.8629 107.394 12.8699C105.645 12.8699 104.555 13.8652 104.124 15.8557L102.868 21.7537C102.787 22.0978 102.743 22.45 102.739 22.8036C102.739 24.0942 103.447 24.7394 104.863 24.7394H108.225L110.626 13.4969Z" fill="#BFC9D1"/>
<path d="M114.982 34.819C115.083 34.3375 115.52 32.2352 115.6 31.885C115.605 31.8285 115.624 31.7741 115.654 31.7264C115.685 31.6787 115.727 31.6391 115.776 31.611C115.825 31.5829 115.881 31.5672 115.938 31.5651C115.994 31.5631 116.051 31.5748 116.102 31.5992C117.255 31.9111 118.446 32.0588 119.641 32.038C120.33 32.038 121.063 32.0012 121.839 31.9277C122.713 31.9979 123.58 31.7253 124.256 31.1678C124.932 30.6103 125.364 29.8118 125.459 28.942L125.718 27.8005C124.364 28.5406 122.846 28.9276 121.303 28.9255C121.082 28.9255 120.86 28.9195 120.638 28.9075C117.313 28.8075 115.651 27.21 115.651 24.115C115.662 23.2593 115.76 22.4071 115.946 21.5717L118.537 9.46896C118.546 9.38324 118.572 9.30014 118.613 9.22449C118.654 9.14885 118.711 9.08219 118.778 9.02841C118.845 8.97464 118.923 8.93483 119.006 8.91132C119.089 8.8878 119.176 8.88105 119.262 8.89147H123.178C123.811 8.89147 123.648 9.41646 123.648 9.41646L121.045 21.5747C120.964 21.9568 120.92 22.3459 120.915 22.7365C120.915 24.0755 121.611 24.745 123.003 24.745C124.194 24.7363 125.374 24.5243 126.493 24.118L129.633 9.41797C129.656 9.26672 129.735 9.12949 129.854 9.0326C129.973 8.93571 130.123 8.88597 130.276 8.89296C130.752 8.89296 134.116 8.89296 134.448 8.89296C134.496 8.88748 134.545 8.89381 134.589 8.91141C134.634 8.929 134.674 8.95734 134.705 8.99387C134.736 9.03041 134.758 9.07404 134.768 9.12093C134.779 9.16781 134.777 9.21651 134.764 9.26272L130.555 28.9457C129.545 33.7132 126.343 36.0975 120.95 36.0985C120.568 36.122 120.199 36.134 119.842 36.1345C118.284 36.1772 116.731 35.93 115.264 35.4055C115.206 35.3866 115.153 35.3562 115.107 35.3161C115.061 35.276 115.024 35.2271 114.997 35.1723C114.971 35.1175 114.956 35.0579 114.954 34.9972C114.951 34.9365 114.961 34.8759 114.982 34.819Z" fill="#BFC9D1"/>
<path d="M50.9805 28.9353L51.5743 28.4756" stroke="#BFC9D1"/>
</g>
<defs>
<clipPath id="clip0_2567_17946">
<rect width="134" height="36" fill="#BFC9D1" transform="translate(0.769531 0.522461)"/>
</clipPath>
</defs>
</svg>
