<svg width="143" height="31" viewBox="0 0 143 31" fill="none" xmlns="http://www.w3.org/2000/svg">
<g clip-path="url(#clip0_2323_11030)">
<mask id="mask0_2323_11030" style="mask-type:luminance" maskUnits="userSpaceOnUse" x="-94" y="-74" width="322" height="179">
<path d="M-93.5137 104.166H227.106V-73.1212H-93.5137V104.166Z" fill="#BFC9D1"/>
</mask>
<g mask="url(#mask0_2323_11030)">
<path d="M1.53165 18.7598H11.5432L18.1519 8.99852C18.4827 8.50949 19.0406 8.21576 19.6382 8.21576H29.9224L26.3721 2.17075C25.7929 1.18449 24.6253 0.521935 23.467 0.521935H10.0487C8.89036 0.521935 7.72284 1.18449 7.14375 2.17059L0.434442 13.594C-0.144814 14.5803 -0.144814 15.9054 0.434442 16.8917L1.53165 18.7598Z" fill="#BFC9D1"/>
<path d="M31.9845 11.7259H20.5948L13.9861 21.4873C13.6553 21.9763 13.0974 22.2699 12.4999 22.2699H3.59375L7.14403 28.3151C7.72328 29.3012 8.89081 29.9639 10.0492 29.9639H23.4676C24.626 29.9639 25.7935 29.3012 26.3726 28.3151L33.0817 16.8916C33.661 15.9055 33.661 14.5802 33.0817 13.594L31.9845 11.7259Z" fill="#BFC9D1"/>
<path d="M51.2427 14.472C50.7629 14.2205 49.3555 13.6543 47.0525 12.8053C46.0286 12.4595 45.5169 11.9565 45.5169 11.2332C45.5169 10.447 46.3167 9.78658 47.5002 9.78658C48.9396 9.78658 50.2832 10.3526 51.4986 11.4847L53.7379 8.62308C52.1386 6.98796 50.0914 6.1704 47.6282 6.1704C45.677 6.1704 44.0772 6.64202 42.8938 7.61668C41.7102 8.59182 41.1025 9.818 41.1025 11.3273C41.1025 13.3399 42.0941 14.8179 44.1094 15.7612C44.4932 15.95 45.229 16.2644 46.3487 16.673C47.468 17.0819 48.1399 17.3336 48.4277 17.4593C49.2596 17.8367 49.6754 18.3397 49.6754 18.9373C49.6754 19.9121 48.6518 20.6039 47.2763 20.6039C45.5169 20.6039 43.6934 19.6919 42.446 18.214L40.0469 21.0128C41.8063 23.2138 44.2054 24.3145 47.2441 24.3145C49.3235 24.3145 51.019 23.8113 52.2663 22.7734C53.5458 21.7358 54.1859 20.415 54.1859 18.8115C54.1859 16.9248 53.1942 15.4782 51.2427 14.472Z" fill="#BFC9D1"/>
<path d="M66.6129 6.26541C64.1497 6.26541 62.0385 7.42907 61.1108 8.96977V0.527182H56.7285V23.875H61.239V14.6927C61.239 12.1459 62.8382 10.3534 65.2374 10.3534C67.4447 10.3534 68.3236 11.8628 68.3236 14.5987V23.875H72.8341V13.4035C72.8341 11.1081 72.1622 9.34713 70.8508 8.12079C69.5393 6.89461 68.5003 6.26541 66.6129 6.26541Z" fill="#BFC9D1"/>
<path d="M89.4215 8.78051C87.886 7.11397 86.0307 6.29625 83.8555 6.29625C81.3922 6.29625 79.3132 7.14539 77.6818 8.84351C76.0503 10.51 75.2188 12.6482 75.2188 15.2269C75.2188 17.8052 76.0183 19.9751 77.6497 21.7045C79.2811 23.4341 81.3606 24.2832 83.8555 24.2832C86.0625 24.2832 87.9181 23.4969 89.4215 21.8934V23.8744H93.7081V6.73661H89.4215V8.78051ZM88.0779 18.8116C87.1504 19.7865 85.9991 20.2582 84.5914 20.2582C83.1839 20.2582 82.032 19.7865 81.1044 18.8116C80.1768 17.8368 79.7292 16.6732 79.7292 15.2899C79.7292 13.9377 80.1768 12.774 81.0726 11.7994C82.0003 10.8246 83.1516 10.3528 84.5914 10.3528C85.9991 10.3528 87.1504 10.8246 88.0779 11.7994C89.0057 12.774 89.4856 13.9377 89.4856 15.2899C89.4856 16.6732 89.0057 17.8368 88.0779 18.8116Z" fill="#BFC9D1"/>
<path d="M101.529 9.03277V6.73719H97.2109V23.875H101.721V15.7305C101.721 12.1773 103.258 10.5422 105.817 10.5422C106.457 10.5422 107.16 10.6679 107.897 10.8881L107.878 7.19366C107.175 6.9423 106.471 6.8163 105.767 6.8163C103.624 6.8163 102.585 7.17755 101.529 9.03277Z" fill="#BFC9D1"/>
<path d="M114.996 9.03277V6.73719H110.678V23.875H115.188V15.7305C115.188 12.1773 116.688 10.5604 119.247 10.5604C119.887 10.5604 120.591 10.6859 121.327 10.9064L121.345 7.19366C120.641 6.9423 119.938 6.8163 119.234 6.8163C117.091 6.8163 116.052 7.17755 114.996 9.03277Z" fill="#BFC9D1"/>
<path d="M135.437 6.82524L131.47 17.6432L128.641 6.82524H123.427L129.163 22.7084L129.155 22.7076C129.155 22.7076 129.405 23.2061 129.068 23.8786L129.007 24.0119C128.143 25.749 127.024 26.0988 125.616 26.0988C125.112 26.0988 124.555 25.996 123.97 25.7904C123.842 25.7453 123.711 25.6876 123.581 25.6328C123.237 25.4847 122.769 25.2579 122.623 25.0648L122.609 29.1462C123.537 29.6945 124.657 29.9688 125.968 29.9688C129.423 29.9688 131.662 28.4914 133.357 24.2557L140.363 6.82524H135.437Z" fill="#BFC9D1"/>
</g>
</g>
<defs>
<clipPath id="clip0_2323_11030">
<rect width="143" height="30" fill="#BFC9D1" transform="translate(0 0.522461)"/>
</clipPath>
</defs>
</svg>
