<svg width="362" height="250" viewBox="0 0 362 250" fill="none" xmlns="http://www.w3.org/2000/svg">
<mask id="mask0_1153_23" style="mask-type:alpha" maskUnits="userSpaceOnUse" x="0" y="68" width="362" height="119">
<path d="M179.239 70.5649L155.05 185.207H125.795L149.994 70.5649H179.239ZM302.305 144.586L317.703 101.541L326.567 144.586H302.305ZM334.946 185.207H362L338.385 70.5649H313.418C307.802 70.5649 303.068 73.8732 300.966 78.9725L257.075 185.207H287.783L293.885 168.079H331.411L334.946 185.207ZM258.595 147.774C258.726 117.52 217.331 115.85 217.615 102.331C217.706 98.2208 221.567 93.8505 230.023 92.7308C234.207 92.1768 245.766 91.7469 258.86 97.8589L264 73.5504C256.956 70.9591 247.905 68.4681 236.632 68.4681C207.723 68.4681 187.37 84.053 187.208 106.362C187.015 122.874 201.731 132.075 212.819 137.565C224.21 143.183 228.032 146.787 227.989 151.811C227.904 159.507 218.899 162.898 210.481 163.031C195.775 163.264 187.239 159 180.439 155.787L175.143 180.91C181.97 184.091 194.586 186.864 207.671 187C238.402 187 258.5 171.616 258.595 147.774ZM137.441 70.5649L90.0477 185.207H59.1282L35.8061 93.7146C34.39 88.0818 33.1615 86.0139 28.8561 83.6453C21.8256 79.7728 10.2148 76.1433 0 73.8885L0.688806 70.5649H50.4655C56.8057 70.5649 62.5138 74.8418 63.9535 82.2519L76.2716 148.593L106.716 70.5649H137.441Z" fill="white"/>
</mask>
<g mask="url(#mask0_1153_23)">
<path fill-rule="evenodd" clip-rule="evenodd" d="M179.239 70.5649L155.05 185.207H125.795L149.994 70.5649H179.239ZM302.305 144.586L317.703 101.541L326.567 144.586H302.305ZM334.946 185.207H362L338.385 70.5649H313.418C307.802 70.5649 303.068 73.8732 300.966 78.9725L257.075 185.207H287.783L293.885 168.079H331.411L334.946 185.207ZM258.595 147.774C258.726 117.52 217.331 115.85 217.615 102.331C217.706 98.2208 221.567 93.8505 230.023 92.7308C234.207 92.1768 245.766 91.7469 258.86 97.8589L264 73.5504C256.956 70.9591 247.905 68.4681 236.632 68.4681C207.723 68.4681 187.37 84.053 187.208 106.362C187.015 122.874 201.731 132.075 212.819 137.565C224.21 143.183 228.032 146.787 227.989 151.811C227.904 159.507 218.899 162.898 210.481 163.031C195.775 163.264 187.239 159 180.439 155.787L175.143 180.91C181.97 184.091 194.586 186.864 207.671 187C238.402 187 258.5 171.616 258.595 147.774ZM137.441 70.5649L90.0477 185.207H59.1282L35.8061 93.7146C34.39 88.0818 33.1615 86.0139 28.8561 83.6453C21.8256 79.7728 10.2148 76.1433 0 73.8885L0.688806 70.5649H50.4655C56.8057 70.5649 62.5138 74.8418 63.9535 82.2519L76.2716 148.593L106.716 70.5649H137.441Z" fill="#BFC9D1"/>
</g>
</svg>
