<svg width="112" height="28" viewBox="0 0 112 28" fill="none" xmlns="http://www.w3.org/2000/svg">
<path fill-rule="evenodd" clip-rule="evenodd" d="M12.9206 0.75792C12.0376 0.831592 11.5926 0.888951 11.002 1.00528C8.89057 1.4211 6.79845 2.41621 5.16717 3.7806C4.65752 4.20684 4.21185 4.62169 3.88776 4.97152C2.54094 6.42519 1.67714 8.06044 1.32179 9.82904C0.818122 12.3359 1.45816 15.022 2.87787 16.3597C3.20288 16.666 3.50112 16.8407 3.98736 17.0098C4.34955 17.1358 5.09263 17.4286 5.54406 17.6233C5.74009 17.7078 5.90986 17.777 5.92131 17.777C5.93276 17.777 5.88735 17.6535 5.8204 17.5025C5.53897 16.8677 5.36373 16.1742 5.29189 15.4107C5.28233 15.3091 5.28475 15.22 5.29725 15.2127C5.3346 15.1908 6.09989 15.2409 6.4733 15.2896C6.66436 15.3146 7.00826 15.3721 7.23753 15.4175C7.66344 15.5019 8.40716 15.7042 8.46366 15.7511C8.48092 15.7655 8.51093 15.8363 8.5303 15.9087C8.57251 16.066 8.75137 16.4333 8.86915 16.6045C9.11114 16.9562 9.54203 17.3084 9.94646 17.4849C10.2971 17.638 10.4743 17.6701 11.0528 17.6858L11.5889 17.7003L11.7434 17.8882C11.9968 18.1961 12.2199 18.5469 12.4064 18.9303C12.7413 19.6189 12.8866 20.2035 12.9349 21.0562C12.958 21.4639 13.016 21.5973 13.2728 21.8327C13.5595 22.0953 13.7079 22.0947 13.9914 21.8294C14.2463 21.591 14.3006 21.4614 14.3218 21.0417C14.3829 19.8351 14.7951 18.7454 15.5162 17.8845L15.6706 17.7003L16.2062 17.6868C16.684 17.6748 16.7685 17.6653 16.9901 17.5987C17.494 17.4474 17.9271 17.164 18.2595 16.7683C18.435 16.5593 18.6726 16.1176 18.7298 15.8937L18.7673 15.7474L18.9912 15.6765C19.7838 15.4258 20.8693 15.2392 21.6745 15.2151L21.9663 15.2064L21.9569 15.4149C21.9442 15.6974 21.8327 16.3458 21.7442 16.6515C21.431 17.7337 20.9118 18.6196 20.1286 19.4079C19.8104 19.7282 19.7423 19.78 18.961 20.2955C18.5046 20.5966 17.8186 21.0493 17.4365 21.3016C17.0544 21.5539 16.4729 21.9374 16.1443 22.154C15.8157 22.3705 15.1716 22.7967 14.7131 23.1012C14.2545 23.4056 13.8419 23.6693 13.796 23.6873C13.6845 23.7309 13.5558 23.7317 13.4588 23.6894C13.415 23.6702 13.1103 23.4532 12.7817 23.2071C11.2053 22.0264 9.19293 20.7086 7.77944 19.9313C7.58838 19.8262 7.36236 19.7004 7.27722 19.6517C7.00465 19.4958 5.91878 18.9569 5.44387 18.7419C4.26671 18.2088 3.14618 17.8279 2.20752 17.6418C1.60575 17.5224 0.748535 17.4343 0.748535 17.4917C0.748535 17.6291 1.15566 18.8189 1.37848 19.3328C2.05556 20.8941 2.94212 22.2099 4.13785 23.4282C5.90644 25.2302 8.02271 26.4336 10.4988 27.0454C11.5143 27.2964 12.4343 27.4022 13.6154 27.4038C14.6358 27.4052 15.2467 27.3497 16.186 27.1704C19.6295 26.5129 22.7635 24.4262 24.7222 21.487C26.2003 19.269 26.966 16.7411 26.9656 14.0809C26.9653 12.2573 26.625 10.5786 25.9125 8.88662C24.7115 6.03432 22.4271 3.5914 19.6512 2.19089C18.1126 1.4146 16.6702 0.989495 14.9632 0.809276C14.575 0.768286 13.2083 0.733937 12.9206 0.75792ZM5.98698 6.65738C6.07988 6.7151 6.15511 6.77668 8.26585 8.5229C11.1721 10.9273 11.0288 10.8155 11.5415 11.0778C11.9026 11.2625 12.3472 11.4136 12.7878 11.5013C13.237 11.5907 14.018 11.59 14.4748 11.4999C14.881 11.4198 15.306 11.2784 15.6579 11.1062C16.1707 10.8552 16.1705 10.8554 18.6037 8.84232C18.9858 8.52618 19.4548 8.1387 19.6458 7.98124C19.8369 7.82376 20.2683 7.46732 20.6046 7.18914C20.9408 6.91096 21.2524 6.66446 21.2968 6.64137C21.4217 6.57651 21.6727 6.60402 21.7929 6.6957C21.994 6.8491 21.9802 6.57584 21.9802 10.396V13.8308L21.737 13.8309C20.9416 13.8311 19.6536 14.0088 18.7843 14.2382C17.6165 14.5465 16.5369 15.044 15.7042 15.6576C14.8927 16.2556 14.2383 17.0103 13.7759 17.8811L13.6258 18.1639L13.5484 18.0052C13.0647 17.0143 12.2401 16.1069 11.1837 15.4032C10.8833 15.2031 10.0782 14.789 9.69696 14.6386C8.54111 14.1824 7.10531 13.8915 5.75771 13.8403L5.27833 13.8221V10.3916C5.27833 6.54888 5.2621 6.84463 5.48172 6.68553C5.57237 6.61986 5.62045 6.60541 5.74798 6.60549C5.8513 6.60555 5.93162 6.623 5.98698 6.65738ZM92.2236 8.15035C90.2569 8.37622 88.6159 9.46176 87.7114 11.1352C87.0869 12.2903 86.8527 13.7667 87.0769 15.1314C87.4282 17.2691 88.8135 18.9613 90.8014 19.681C92.1161 20.1569 93.604 20.1753 94.936 19.7321C95.7827 19.4503 96.5831 18.9447 97.1789 18.3153C97.4015 18.0802 97.7275 17.6723 97.7053 17.657C97.6939 17.6491 96.846 17.234 96.0548 16.8488L95.5824 16.6189L95.3575 16.8467C94.8784 17.3323 94.2562 17.6472 93.544 17.7645C93.1685 17.8263 92.4724 17.8075 92.1225 17.7262C90.6888 17.3928 89.7256 16.3737 89.436 14.8839C89.3643 14.5159 89.3643 13.646 89.436 13.278C89.588 12.4957 89.9146 11.8612 90.4265 11.3526C90.9103 10.8719 91.4113 10.6011 92.1225 10.4357C92.4743 10.3539 93.1693 10.3355 93.544 10.398C94.0734 10.4863 94.5591 10.6801 94.9549 10.9612C95.1644 11.11 95.5335 11.4725 95.6416 11.6357C95.6819 11.6967 95.7266 11.7466 95.7408 11.7466C95.7608 11.7466 97.357 10.6472 97.6088 10.4601C97.66 10.4221 97.6566 10.4136 97.5313 10.2505C97.1053 9.69695 96.4747 9.16594 95.8133 8.80402C94.7923 8.24539 93.4787 8.00617 92.2236 8.15035ZM104.642 8.12408C104.596 8.12945 104.44 8.14726 104.295 8.16366C103.061 8.30322 101.822 8.88603 100.914 9.75428C99.7531 10.8636 99.1262 12.3733 99.1256 14.0587C99.1253 15.1162 99.3218 15.976 99.7651 16.8599C101.001 19.3234 103.89 20.5634 106.727 19.8486C108.882 19.3059 110.549 17.5773 111.004 15.4149C111.188 14.5406 111.178 13.4825 110.978 12.6254C110.462 10.4128 108.701 8.71396 106.434 8.24247C105.91 8.13345 105.049 8.07659 104.642 8.12408ZM34.8259 9.41913L34.8331 10.5377L37.494 10.5448C38.9575 10.5487 40.1549 10.5585 40.1549 10.5666C40.1549 10.5747 39.9079 10.8923 39.6061 11.2723C39.3043 11.6522 38.4881 12.679 37.7928 13.5539C37.0975 14.4288 36.3972 15.3101 36.2365 15.5124C36.0759 15.7147 35.6352 16.2697 35.2569 16.7459L34.5691 17.6117V19.8613H43.1841V17.6105L40.3595 17.6035L37.5349 17.5964L38.0334 16.9711C38.3077 16.6272 38.776 16.0394 39.0739 15.665C39.3721 15.2905 40.0399 14.4526 40.5579 13.803C41.0759 13.1534 41.8724 12.1544 42.3279 11.583L43.1563 10.5441V10.2189C43.1563 10.04 43.1479 9.53521 43.1379 9.09713L43.1196 8.30058H34.8187L34.8259 9.41913ZM49.4369 8.31083C49.4369 8.32431 48.6729 10.3781 48.6346 10.4682C48.6182 10.5064 48.1849 11.6632 47.6716 13.0388C47.1583 14.4144 46.6834 15.6837 46.6159 15.8595C46.3863 16.459 45.1294 19.8289 45.1294 19.8454C45.1294 19.8544 45.6885 19.8586 46.3722 19.8546L47.6149 19.8474L48.1046 18.4996L48.5943 17.1517H53.2805L53.3717 17.4018C53.4217 17.5394 53.5584 17.9208 53.6757 18.2494C53.7927 18.5781 53.9511 19.022 54.0275 19.236C54.1039 19.45 54.1851 19.6782 54.2081 19.7432L54.2498 19.8613H55.4976C56.184 19.8613 56.7457 19.8521 56.7457 19.8409C56.7457 19.8297 56.6653 19.6077 56.567 19.3476C56.4689 19.0875 55.9114 17.5992 55.3286 16.0401C54.7456 14.4811 54.2276 13.0992 54.1776 12.9693C54.1275 12.8394 53.714 11.7358 53.2586 10.5168L52.4301 8.30058H50.9336C50.1105 8.30058 49.4369 8.30519 49.4369 8.31083ZM58.9133 14.0809V19.8613H61.2474L61.2543 17.784L61.2616 15.7066L61.9146 15.7001L62.5677 15.6935L62.8895 16.1447C63.0665 16.3929 63.4361 16.9086 63.711 17.2907C63.9855 17.6728 64.4032 18.2543 64.6386 18.5829C64.874 18.9115 65.175 19.3305 65.3075 19.5139L65.5482 19.8474L66.9969 19.8546C67.7933 19.8585 68.4453 19.8562 68.4453 19.8493C68.4453 19.8425 68.3722 19.7392 68.2827 19.6198C67.0875 18.0252 65.2494 15.5471 65.2494 15.5304C65.2494 15.5186 65.3464 15.48 65.4648 15.4447C66.5247 15.129 67.3315 14.3479 67.6341 13.3445C67.7678 12.9014 67.7917 12.7081 67.7917 12.0661C67.792 11.5311 67.7839 11.4169 67.7272 11.1515C67.3698 9.47771 66.1932 8.49119 64.3602 8.32904C64.172 8.31239 62.9862 8.30072 61.4769 8.30066L58.9133 8.30058V14.0809ZM69.8137 9.41913L69.8209 10.5377L71.4814 10.5449L73.1418 10.552V19.8619L74.316 19.8546L75.4901 19.8474L75.497 15.1997L75.5043 10.552L77.1645 10.5449L78.8249 10.5377L78.8321 9.41913L78.8394 8.30058H69.8065L69.8137 9.41913ZM81.6734 14.0809V19.8613H84.0356V8.30058H81.6734V14.0809ZM105.99 10.4493C106.992 10.6897 107.762 11.2599 108.257 12.1274C108.583 12.6981 108.745 13.3482 108.745 14.0809C108.745 14.8589 108.55 15.5882 108.19 16.1494C107.606 17.0625 106.735 17.617 105.631 17.7784C105.312 17.825 104.606 17.797 104.295 17.7253C103.067 17.4423 102.113 16.5922 101.714 15.4263C101.546 14.9354 101.507 14.6811 101.507 14.0809C101.507 13.4807 101.546 13.2265 101.714 12.7355C102.136 11.5017 103.148 10.6461 104.475 10.4C104.831 10.334 105.615 10.3595 105.99 10.4493ZM64.1856 10.6052C64.9957 10.7724 65.4145 11.2842 65.4159 12.1089C65.4167 12.7992 65.1027 13.2742 64.4963 13.4992C64.1812 13.6161 63.8969 13.636 62.533 13.6361L61.2477 13.6363V12.1125C61.2477 11.2743 61.256 10.5803 61.2663 10.5701C61.2763 10.5599 61.8799 10.5517 62.6072 10.5519C63.7977 10.5523 63.955 10.5576 64.1856 10.6052ZM51.0006 10.8851C51.0242 10.9538 51.1432 11.2852 51.2649 11.6215C52.1503 14.0634 52.4382 14.8683 52.4293 14.8771C52.4237 14.8828 51.7432 14.8841 50.9172 14.8801L49.4152 14.8729L49.9143 13.4973C50.1889 12.7407 50.5176 11.8341 50.6452 11.4825C50.7724 11.131 50.8856 10.814 50.8961 10.778C50.9197 10.6973 50.9456 10.7237 51.0006 10.8851Z" fill="#BFC9D1"/>
</svg>
