<svg width="127" height="31" viewBox="0 0 127 31" fill="none" xmlns="http://www.w3.org/2000/svg"><g opacity=".7" fill="#BFC9D1"><path fill-rule="evenodd" clip-rule="evenodd" d="m37.481 23.3269 7.0392-9.1991v-.0816h-6.9339v-3.0301h11.4022v2.5138l-6.6172 8.9409v.0681h6.7756v3.0435H37.481v-2.2555ZM55.6926 16.6882h6.0219c-.0794-1.8453-1.2573-3.1115-2.978-3.1115-1.6941 0-2.9115 1.3066-3.0439 3.1115Zm9.6218 4.3102c-.4237 2.8282-2.965 4.7275-6.472 4.7275-4.3675 0-6.9882-2.8417-6.9882-7.4617 0-4.6066 2.647-7.5967 6.8425-7.5967 4.1294 0 6.7365 2.8421 6.7365 7.2331v1.1986h-9.7806v.2422c0 2.061 1.2839 3.4752 3.2559 3.4752 1.4162 0 2.5014-.7139 2.8587-1.8182h3.5472ZM68.2795 11.2829h3.7964v2.5479h.0808c.7669-1.7743 2.2883-2.8147 4.5094-2.8147 3.2041 0 5.0076 2.0011 5.0076 5.349v9.2173h-3.9305v-8.4037c0-1.8672-.8886-2.9344-2.6522-2.9344-1.7635 0-2.8806 1.2803-2.8806 3.1348v8.2033h-3.9309V11.2829ZM90.2159 7.48535v3.37845h2.5357v3.0098h-2.5357v7.0173c0 1.1215.5122 1.6551 1.6134 1.6551.333 0 .6789-.0275.9092-.0686v2.9412c-.3837.0957-1.0242.1643-1.78.1643-3.2274 0-4.4824-1.1491-4.4824-4.0081v-7.7012h-1.9339v-3.0098h1.9339V7.48535h3.7398ZM96.2078 25.4155h3.8652V10.9769h-3.8652v14.4386Zm-.1314-18.0619c0-1.1447.8998-2.0339 2.0645-2.0339 1.1647 0 2.0651.8892 2.0651 2.0339 0 1.1314-.9004 2.0339-2.0651 2.0339-1.1647 0-2.0645-.9025-2.0645-2.0339ZM109.527 10.5752c3.53 0 5.826 1.8255 5.878 4.6177h-3.529c-.079-1.1542-.984-1.8658-2.401-1.8658-1.325 0-2.191.6177-2.191 1.5437 0 .7116.603 1.1945 1.837 1.49l2.69.5907c2.82.6442 3.962 1.7851 3.962 3.9331 0 2.8326-2.545 4.6983-6.259 4.6983-3.752 0-6.061-1.8524-6.271-4.658h3.739c.184 1.2083 1.115 1.9062 2.637 1.9062 1.457 0 2.336-.5907 2.336-1.5305 0-.7249-.473-1.1276-1.732-1.4364l-2.598-.5906c-2.664-.6172-4.028-2.0404-4.028-4.1614 0-2.7381 2.322-4.537 5.93-4.537ZM123.75 7.48535v3.37845h2.669v3.0098h-2.669v7.0173c0 1.1215.539 1.6551 1.698 1.6551.351 0 .715-.0275.957-.0686v2.9412c-.404.0957-1.078.1643-1.873.1643-3.398 0-4.719-1.1491-4.719-4.0081v-7.7012h-2.035v-3.0098h2.035V7.48535h3.937Z"/><path d="M14.3328 6.31086c.9671-.477 2.0092-.79491 3.0984-.95391-.1878-.9072-.554-1.7676-1.0797-2.497-.8638-1.2158-1.9624-1.870395-2.7512-2.216395-1.0516.598495-2.0092 1.318595-2.8543 2.132195-.81688.7856-2.97647 2.8711-3.61495 6.0882-.169.8323-.22534 1.68345-.169 2.51575.00084.0109.00169.0219.00256.0331.05704.7413.17121 2.2246 1.10539 3.717.28168.4489.61974.8698 1.00468 1.2439-.08447-.4864-.13142-.9727-.14086-1.4589-.02819-1.2158.11266-2.3568.42256-3.32.93892-2.94595 3.52102-4.57324 4.97642-5.28394Z"/><path d="M11.8536 19.4698c-.5163.1402-1.0515.2243-1.5868.2431-1.76641.0645-3.11378-.5878-3.78194-.9114l-.03012-.0145c-.75114-.3647-1.46474-.8417-2.10322-1.4028-.67603-.5892-2.4788-2.1604-3.492845-6.1629C.5676 10.0803.426758 8.89261.426758 7.69551c.704202-.505 1.821532-1.1222 3.314452-1.2625.91077-.0842 1.84971.0281 2.72292.318-.40373 1.0193-.64786 2.0761-.72298 3.1516-.11267 1.60859.01878 4.64799 2.10323 6.93919.68546.7481 1.60561 1.4403 2.67592 2.02.4319.2338.8733.4395 1.3333.608ZM24.1253 14.1104c.6948-.6078 1.2676-1.3653 1.6431-2.1883.6291-1.3561.6478-2.6279.5352-3.4696-1.0516-.6079-2.1502-1.0755-3.2863-1.3935l-.0059-.0016c-1.0938-.31-3.9808-1.128-7.0925-.0732-.8075.2712-1.5774.6453-2.2722 1.1129-.6011.4023-1.8594 1.2443-2.7042 2.8243-.2535.4676-.4413.9727-.5821 1.487.3756-.3086.7793-.5986 1.1924-.851 1.0423-.636 2.1127-1.0848 3.0986-1.3.5445-.1216 1.0797-.1683 1.5962-.1683 2.3661 0 4.3848 1.0848 5.4927 1.8236.9014.5986 1.6995 1.3374 2.385 2.1977Z"/><path d="M22.5954 24.5945c1.4929-.1497 2.6103-.7575 3.3051-1.2719 0-1.197-.1409-2.3848-.4226-3.5164-1.014-4.0027-2.8168-5.5738-3.4928-6.1629-.6385-.5612-1.3521-1.0381-2.1032-1.4029-.6573-.3273-2.0187-.9913-3.8122-.9258-.5351.0187-1.0703.1029-1.5868.2431.4601.1683.9014.3742 1.3333.6079 1.0704.5798 1.9906 1.2719 2.676 2.02 2.0845 2.2913 2.2159 5.3307 2.1033 6.9392-.0752 1.0755-.3193 2.1323-.7231 3.1517.8732.2899 1.8123.4021 2.723.318Z"/><path d="M19.2154 22.1806c-.6384 3.2171-2.798 5.3026-3.6149 6.0881-.8451.823-1.8028 1.5338-2.8543 2.1323-.7888-.3461-1.8873-1.0007-2.75115-2.2165-.52579-.7387-.9014-1.6084-1.07977-2.5063 1.08922-.159 2.13132-.4769 3.09852-.9539 1.4553-.7107 4.0374-2.338 4.9763-5.2838.3099-.9633.4507-2.1042.4225-3.32-.0093-.4863-.0562-.9726-.1408-1.459.385.3742.7136.7949 1.0047 1.2439.9341 1.4924 1.0484 2.9757 1.1054 3.717l.0026.0331c.0469.8323-.0094 1.7021-.1691 2.5251Z"/><path d="M15.3935 20.1056c.2535-.4677.4413-.9727.5821-1.4871-.3755.3087-.7793.5986-1.1924.8417-1.0423.6359-2.1126 1.0849-3.0985 1.2999-3.0234.6547-5.73694-.7575-7.07962-1.6553-.90139-.5985-1.69948-1.3373-2.38491-2.1977-.68543.6079-1.258188 1.356-1.633764 2.1884-.6197008 1.3467-.6384811 2.6279-.5445792 3.479C1.08405 23.1823 2.1826 23.6499 3.31872 23.9679l.00596.0017c1.09372.3099 3.98081 1.128 7.09242.0731.8075-.2712 1.5774-.6452 2.2722-1.1129.6012-.4023 1.8594-1.2443 2.7042-2.8242Z"/></g></svg>