<svg width="574" height="321" viewBox="0 0 574 321" fill="none" xmlns="http://www.w3.org/2000/svg">
<rect x="0.40625" y="0.819336" width="572.651" height="319.309" fill="#1C0D3F"/>
<path d="M294.218 55.9221L294.218 175.68L398.59 235.351L398.59 115.801L294.218 55.9221Z" fill="#ED26B7"/>
<path d="M410.688 226.211L398.877 235.175L398.421 116.005L410.688 108.456L410.688 226.211Z" fill="#1D0E40"/>
<path d="M410.536 108.174L398.718 115.592L294.248 55.6028L305.93 48.5933L410.536 108.174Z" fill="#1D0E40"/>
<path fill-rule="evenodd" clip-rule="evenodd" d="M305.957 47.8038L411.397 108.076L411.397 226.639L398.634 236.083L293.32 175.988L293.32 55.1557L305.957 47.8038ZM305.962 49.2214L294.548 55.862L294.548 175.275L398.547 234.619L410.169 226.02L410.169 108.788L305.962 49.2214Z" fill="#D9D9D9"/>
<path fill-rule="evenodd" clip-rule="evenodd" d="M294.313 55.1021L399.204 115.237L399.204 235.143L397.976 235.143L397.976 115.949L293.702 56.1674L294.313 55.1021Z" fill="#D9D9D9"/>
<path fill-rule="evenodd" clip-rule="evenodd" d="M410.944 108.993L398.996 116.183L398.362 115.131L410.311 107.941L410.944 108.993Z" fill="#D9D9D9"/>
<g filter="url(#filter0_f_4518_7223)">
<path d="M288.92 50.769L288.92 179.529L401.137 243.685L401.137 115.149L288.92 50.769Z" fill="#ED26B7" fill-opacity="0.5"/>
</g>
<path d="M276.236 34.8542L276.236 154.612L380.608 214.283L380.608 94.7331L276.236 34.8542Z" fill="#ED26B7"/>
<path d="M392.706 205.143L380.895 214.107L380.439 94.9366L392.706 87.3881L392.706 205.143Z" fill="#1D0E40"/>
<path d="M392.555 87.1062L380.737 94.5238L276.266 34.5348L287.948 27.5253L392.555 87.1062Z" fill="#1D0E40"/>
<path fill-rule="evenodd" clip-rule="evenodd" d="M287.975 26.736L393.415 87.0079L393.415 205.572L380.652 215.015L275.338 154.92L275.339 34.0878L287.975 26.736ZM287.981 28.1535L276.566 34.7941L276.566 154.207L380.565 213.551L392.187 204.953L392.187 87.7204L287.981 28.1535Z" fill="#D9D9D9"/>
<path fill-rule="evenodd" clip-rule="evenodd" d="M276.331 34.0341L381.223 94.1694L381.223 214.075L379.995 214.075L379.995 94.8808L275.72 35.0994L276.331 34.0341Z" fill="#D9D9D9"/>
<path fill-rule="evenodd" clip-rule="evenodd" d="M392.962 87.9247L381.014 95.1154L380.381 94.0633L392.329 86.8726L392.962 87.9247Z" fill="#D9D9D9"/>
<g filter="url(#filter1_f_4518_7223)">
<path d="M270.938 28.8824L270.938 157.642L383.155 221.799L383.155 93.2623L270.938 28.8824Z" fill="#ED26B7" fill-opacity="0.5"/>
</g>
<g style="mix-blend-mode:screen">
<path d="M309.443 105.662L309.443 59.7966L331.959 72.6057L331.959 118.618L309.443 105.662Z" fill="#F43AC2"/>
</g>
<path fill-rule="evenodd" clip-rule="evenodd" d="M315.189 68.5707L327.334 75.6441L327.334 95.1163L315.189 88.4433L315.189 68.5707ZM316.008 69.9949L316.008 87.959L326.515 93.7324L326.515 76.1147L316.008 69.9949Z" fill="#ED26B7"/>
<path fill-rule="evenodd" clip-rule="evenodd" d="M319.806 80.4784L308.418 73.5054L308.845 72.8073L320.625 80.0197L320.625 101.29L319.806 101.29L319.806 80.4784Z" fill="#ED26B7"/>
<g style="mix-blend-mode:screen">
<path d="M279.921 96.8772L279.921 43.1256L306.31 58.1373L306.31 112.062L279.921 96.8772Z" fill="#F43AC2"/>
</g>
<path fill-rule="evenodd" clip-rule="evenodd" d="M290.822 67.4314L303.287 74.6142L303.287 89.8521L302.468 89.8521L302.468 75.0873L291.641 68.848L291.641 83.3383L290.822 83.3383L290.822 67.4314Z" fill="#ED26B7"/>
<path fill-rule="evenodd" clip-rule="evenodd" d="M299.635 53.7599L300.454 53.7599L300.454 63.3213L306.941 67.1447L306.526 67.85L299.635 63.7891L299.635 53.7599Z" fill="#ED26B7"/>
<path fill-rule="evenodd" clip-rule="evenodd" d="M288.352 72.9251L288.352 47.7605L289.171 47.7605L289.171 74.371L278.639 68.0519L279.06 67.3499L288.352 72.9251Z" fill="#ED26B7"/>
<g style="mix-blend-mode:screen">
<path d="M336.243 130.401L375.964 153.334L376.129 127.429L336.281 104.423L336.243 130.401Z" fill="#F43AC2"/>
</g>
<g style="mix-blend-mode:screen">
<path d="M336.243 100.382L375.964 123.314L376.129 97.4095L336.281 74.4031L336.243 100.382Z" fill="#F43AC2"/>
</g>
<path fill-rule="evenodd" clip-rule="evenodd" d="M338.341 94.5876L352.409 102.853L352.409 111.037L351.591 111.037L351.591 103.322L339.159 96.0181L339.159 103.087L338.341 103.087L338.341 94.5876Z" fill="#ED26B7"/>
<path fill-rule="evenodd" clip-rule="evenodd" d="M346.281 78.7406L346.281 94.8464L334.573 88.2061L334.977 87.494L345.462 93.4409L345.462 78.7406L346.281 78.7406Z" fill="#ED26B7"/>
<path fill-rule="evenodd" clip-rule="evenodd" d="M355.565 97.2516L377.873 109.853L377.47 110.566L356.384 98.6543L356.384 113.025L355.565 113.025L355.565 97.2516Z" fill="#ED26B7"/>
<path fill-rule="evenodd" clip-rule="evenodd" d="M361.859 87.5186L362.678 87.5186L362.678 109.472L370.472 113.818L370.472 92.9842L371.29 92.9842L371.29 115.212L361.859 109.953L361.859 87.5186Z" fill="#ED26B7"/>
<path d="M260.089 79.6188L260.088 199.376L364.461 259.047L364.461 139.498L260.089 79.6188Z" fill="#ED26B7"/>
<path d="M376.558 249.907L364.747 258.871L364.291 139.701L376.558 132.153L376.558 249.907Z" fill="#1D0E40"/>
<path d="M376.407 131.871L364.589 139.288L260.118 79.2993L271.8 72.2898L376.407 131.871Z" fill="#1D0E40"/>
<path fill-rule="evenodd" clip-rule="evenodd" d="M271.828 71.5005L377.267 131.772L377.267 250.336L364.504 259.779L259.191 199.685L259.191 78.8524L271.828 71.5005ZM271.833 72.918L260.419 79.5586L260.419 198.972L364.418 258.316L376.039 249.717L376.039 132.485L271.833 72.918Z" fill="#D9D9D9"/>
<path fill-rule="evenodd" clip-rule="evenodd" d="M260.183 78.7987L365.075 138.934L365.075 258.839L363.847 258.839L363.847 139.645L259.573 79.864L260.183 78.7987Z" fill="#D9D9D9"/>
<path fill-rule="evenodd" clip-rule="evenodd" d="M376.814 132.689L364.866 139.88L364.233 138.828L376.181 131.637L376.814 132.689Z" fill="#D9D9D9"/>
<g filter="url(#filter2_f_4518_7223)">
<path d="M254.79 73.647L254.79 202.407L367.008 266.563L367.008 138.027L254.79 73.647Z" fill="#ED26B7" fill-opacity="0.5"/>
</g>
<path d="M243.19 91.4684L243.19 211.226L347.562 270.897L347.562 151.347L243.19 91.4684Z" fill="#ED26B7"/>
<path d="M359.66 261.757L347.849 270.721L347.393 151.551L359.66 144.002L359.66 261.757Z" fill="#1D0E40"/>
<path d="M359.508 143.72L347.69 151.138L243.22 91.1489L254.901 84.1394L359.508 143.72Z" fill="#1D0E40"/>
<path fill-rule="evenodd" clip-rule="evenodd" d="M254.929 83.3501L360.369 143.622L360.369 262.186L347.606 271.629L242.292 211.534L242.292 90.702L254.929 83.3501ZM254.935 84.7676L243.52 91.4082L243.52 210.821L347.519 270.165L359.141 261.567L359.141 144.335L254.935 84.7676Z" fill="#D9D9D9"/>
<path fill-rule="evenodd" clip-rule="evenodd" d="M243.285 90.6483L348.176 150.784L348.176 270.689L346.948 270.689L346.948 151.495L242.674 91.7136L243.285 90.6483Z" fill="#D9D9D9"/>
<path fill-rule="evenodd" clip-rule="evenodd" d="M359.916 144.539L347.968 151.73L347.334 150.678L359.283 143.487L359.916 144.539Z" fill="#D9D9D9"/>
<g filter="url(#filter3_f_4518_7223)">
<path d="M237.891 85.4966L237.891 214.256L350.109 278.413L350.109 149.876L237.891 85.4966Z" fill="#ED26B7" fill-opacity="0.5"/>
</g>
<path d="M226.243 103.482L226.243 223.24L330.615 282.911L330.615 163.361L226.243 103.482Z" fill="#1D0E40"/>
<path d="M342.712 273.771L330.902 282.735L330.445 163.565L342.712 156.016L342.712 273.771Z" fill="#1D0E40"/>
<path d="M342.561 155.734L330.743 163.152L226.272 103.163L237.954 96.1532L342.561 155.734Z" fill="#1D0E40"/>
<path fill-rule="evenodd" clip-rule="evenodd" d="M237.982 95.3638L343.422 155.636L343.422 274.199L330.659 283.642L225.345 223.548L225.345 102.716L237.982 95.3638ZM237.987 96.7813L226.573 103.422L226.573 222.835L330.572 282.179L342.194 273.58L342.194 156.348L237.987 96.7813Z" fill="#D9D9D9"/>
<path fill-rule="evenodd" clip-rule="evenodd" d="M226.337 102.662L331.229 162.797L331.229 282.703L330.001 282.703L330.001 163.509L225.727 103.727L226.337 102.662Z" fill="#D9D9D9"/>
<path fill-rule="evenodd" clip-rule="evenodd" d="M342.969 156.553L331.02 163.743L330.387 162.691L342.336 155.5L342.969 156.553Z" fill="#D9D9D9"/>
<path fill-rule="evenodd" clip-rule="evenodd" d="M242.473 146.406C239.88 144.919 236.649 146.79 236.649 149.779L236.649 160.551C236.649 162.827 237.868 164.929 239.844 166.059L313.859 208.374C316.451 209.856 319.678 207.985 319.678 204.998L319.678 194.373C319.678 192.101 318.462 190.001 316.49 188.87L242.473 146.406ZM235.421 149.779C235.421 145.846 239.673 143.384 243.084 145.341L317.101 187.805C319.454 189.155 320.906 191.661 320.906 194.373L320.906 204.998C320.906 208.928 316.66 211.39 313.249 209.44L239.235 167.125C236.876 165.777 235.421 163.268 235.421 160.551L235.421 149.779Z" fill="#D9D9D9"/>
<path fill-rule="evenodd" clip-rule="evenodd" d="M244.96 152.891C243.186 151.893 240.995 153.175 240.995 155.21L240.995 159.261C240.995 160.824 241.843 162.264 243.211 163.021L246.072 164.606C248.118 165.739 250.629 164.259 250.629 161.92L250.629 158.593C250.629 157.04 249.792 155.608 248.438 154.847L244.96 152.891ZM239.767 155.21C239.767 152.236 242.97 150.363 245.562 151.821L249.04 153.777C250.78 154.756 251.857 156.597 251.857 158.593L251.857 161.92C251.857 165.195 248.342 167.266 245.477 165.68L242.616 164.095C240.858 163.122 239.767 161.271 239.767 159.261L239.767 155.21Z" fill="#ED26B7"/>
<path fill-rule="evenodd" clip-rule="evenodd" d="M299.024 187.106L301.603 188.612L301.603 194.519L299.024 193.023L299.024 187.106ZM291.748 182.857L259.614 164.089C255.992 162.187 255.727 168.065 258.807 169.705L291.748 188.805L291.748 182.857ZM308.879 198.737L308.879 192.862L312.422 194.932C315.84 196.745 315.618 202.414 312.422 200.792L308.879 198.737Z" fill="#D9D9D9"/>
<path fill-rule="evenodd" clip-rule="evenodd" d="M242.473 180.273C239.88 178.786 236.649 180.658 236.649 183.646L236.649 194.419C236.649 196.695 237.868 198.797 239.844 199.927L313.859 242.242C316.451 243.724 319.678 241.852 319.678 238.866L319.678 228.241C319.678 225.968 318.462 223.869 316.49 222.738L242.473 180.273ZM235.421 183.646C235.421 179.714 239.673 177.251 243.084 179.208L317.101 221.673C319.454 223.023 320.906 225.528 320.906 228.241L320.906 238.866C320.906 242.795 316.66 245.258 313.249 243.308L239.235 200.993C236.876 199.644 235.421 197.136 235.421 194.419L235.421 183.646Z" fill="#D9D9D9"/>
<path fill-rule="evenodd" clip-rule="evenodd" d="M244.96 186.758C243.186 185.761 240.995 187.043 240.995 189.077L240.995 193.129C240.995 194.691 241.843 196.131 243.211 196.888L246.072 198.473C248.118 199.606 250.629 198.126 250.629 195.787L250.629 192.461C250.629 190.908 249.792 189.476 248.438 188.715L244.96 186.758ZM239.767 189.077C239.767 186.103 242.97 184.23 245.562 185.688L249.04 187.644C250.78 188.623 251.857 190.464 251.857 192.461L251.857 195.787C251.857 199.062 248.342 201.134 245.477 199.547L242.616 197.963C240.858 196.989 239.767 195.138 239.767 193.129L239.767 189.077Z" fill="#ED26B7"/>
<path fill-rule="evenodd" clip-rule="evenodd" d="M299.023 220.974L301.602 222.48L301.602 228.386L299.023 226.891L299.023 220.974ZM291.747 216.724L259.614 197.956C255.992 196.054 255.727 201.933 258.807 203.572L291.747 222.672L291.747 216.724ZM308.878 232.605L308.878 226.73L312.422 228.799C315.84 230.612 315.618 236.282 312.422 234.66L308.878 232.605Z" fill="#D9D9D9"/>
<path fill-rule="evenodd" clip-rule="evenodd" d="M233.222 217.344C232.473 216.911 231.866 217.262 231.866 218.127C231.866 218.992 232.473 220.044 233.222 220.477C233.972 220.91 234.579 220.559 234.579 219.694C234.579 218.829 233.972 217.777 233.222 217.344ZM231.157 217.718C231.157 216.401 232.082 215.867 233.222 216.525C234.363 217.184 235.288 218.786 235.288 220.103C235.288 221.42 234.363 221.954 233.222 221.296C232.082 220.637 231.157 219.035 231.157 217.718Z" fill="#D9D9D9"/>
<path fill-rule="evenodd" clip-rule="evenodd" d="M233.222 115.108C232.473 114.676 231.866 115.026 231.866 115.892C231.866 116.757 232.473 117.809 233.222 118.241C233.972 118.674 234.579 118.323 234.579 117.458C234.579 116.593 233.972 115.541 233.222 115.108ZM231.157 115.482C231.157 114.165 232.082 113.631 233.222 114.29C234.363 114.948 235.288 116.55 235.288 117.867C235.288 119.185 234.363 119.719 233.222 119.06C232.082 118.401 231.157 116.799 231.157 115.482Z" fill="#D9D9D9"/>
<path fill-rule="evenodd" clip-rule="evenodd" d="M323.356 166.605C322.606 166.172 321.999 166.523 321.999 167.388C321.999 168.253 322.606 169.305 323.356 169.738C324.105 170.171 324.712 169.82 324.712 168.955C324.712 168.09 324.105 167.038 323.356 166.605ZM321.29 166.979C321.29 165.662 322.215 165.128 323.356 165.786C324.496 166.445 325.421 168.047 325.421 169.364C325.421 170.681 324.496 171.215 323.356 170.557C322.215 169.898 321.29 168.296 321.29 166.979Z" fill="#D9D9D9"/>
<path fill-rule="evenodd" clip-rule="evenodd" d="M323.356 268.779C322.606 268.346 321.999 268.697 321.999 269.562C321.999 270.427 322.606 271.479 323.356 271.912C324.105 272.344 324.712 271.994 324.712 271.129C324.712 270.264 324.105 269.212 323.356 268.779ZM321.29 269.153C321.29 267.836 322.215 267.302 323.356 267.96C324.496 268.619 325.421 270.221 325.421 271.538C325.421 272.855 324.496 273.389 323.356 272.731C322.215 272.072 321.29 270.47 321.29 269.153Z" fill="#D9D9D9"/>
<path d="M337.254 278.254L337.254 213.608L425.451 205.202L433.234 215.882L433.234 246.178C433.234 247.27 432.689 248.291 431.782 248.899L366.473 292.642C365.171 293.514 363.485 293.566 362.132 292.776L337.254 278.254Z" fill="#1D0E40"/>
<path fill-rule="evenodd" clip-rule="evenodd" d="M425.645 204.772L433.643 215.749L433.643 246.178C433.643 247.407 433.031 248.555 432.009 249.239L366.701 292.982C365.268 293.941 363.414 293.999 361.925 293.129L336.845 278.489L336.845 213.236L425.645 204.772ZM337.664 213.98L337.664 278.019L362.338 292.422C363.556 293.133 365.073 293.087 366.245 292.302L431.554 248.559C432.348 248.027 432.825 247.134 432.825 246.178L432.825 216.015L425.258 205.631L337.664 213.98Z" fill="#D9D9D9"/>
<path d="M337.666 278.006L337.666 216.08L339.884 214.797L364.078 258.785L364.078 291.306C364.078 292.255 363.049 292.845 362.23 292.367L337.666 278.006Z" fill="#1D0E40"/>
<path d="M432.786 214.661L408.895 174.339C408.105 173.006 406.398 172.543 405.042 173.293L340.274 209.133C340.149 209.202 340.03 209.28 339.917 209.367L338.855 210.182C337.27 211.398 336.795 213.581 337.731 215.346L361.08 259.396C361.85 260.849 363.683 261.357 365.091 260.507L430.289 221.18C431.524 220.435 432.579 219.347 432.913 217.945C433.038 217.422 433.111 216.915 433.169 216.341C433.228 215.755 433.086 215.168 432.786 214.661Z" fill="#1D0E40"/>
<path fill-rule="evenodd" clip-rule="evenodd" d="M404.844 172.935C406.394 172.077 408.344 172.607 409.247 174.131L433.138 214.452C433.48 215.029 433.645 215.703 433.577 216.382C433.518 216.967 433.442 217.493 433.312 218.04C432.943 219.588 431.788 220.754 430.501 221.53L365.303 260.858C363.693 261.829 361.598 261.248 360.718 259.587L337.369 215.538C336.34 213.596 336.863 211.195 338.606 209.857L339.668 209.042C339.797 208.943 339.933 208.854 340.076 208.775L404.844 172.935ZM408.543 174.548C407.865 173.405 406.403 173.008 405.24 173.651L340.472 209.491C340.365 209.55 340.263 209.617 340.166 209.692L339.105 210.506C337.678 211.601 337.251 213.566 338.093 215.154L361.441 259.204C362.102 260.449 363.673 260.885 364.88 260.157L430.078 220.829C431.259 220.117 432.216 219.107 432.515 217.85C432.634 217.351 432.705 216.863 432.762 216.3C432.812 215.807 432.693 215.306 432.434 214.869L408.543 174.548Z" fill="#D9D9D9"/>
<path d="M405.765 169.613L340.472 208.956C339.173 209.739 338.709 211.398 339.413 212.741L362.544 256.858C363.312 258.322 365.155 258.835 366.568 257.977L431.858 218.357C433.153 217.571 433.613 215.911 432.905 214.571L409.778 170.73C409.01 169.274 407.175 168.763 405.765 169.613Z" fill="#1D0E40"/>
<path fill-rule="evenodd" clip-rule="evenodd" d="M409.416 170.921C408.758 169.673 407.185 169.235 405.976 169.964L340.683 209.307C339.57 209.978 339.172 211.4 339.775 212.551L362.907 256.668C363.565 257.923 365.145 258.362 366.356 257.627L431.645 218.007C432.756 217.333 433.15 215.91 432.543 214.761L409.416 170.921ZM405.554 169.262C407.166 168.291 409.262 168.875 410.14 170.539L433.267 214.379C434.076 215.912 433.551 217.808 432.07 218.707L366.781 258.327C365.166 259.307 363.059 258.721 362.182 257.048L339.05 212.931C338.246 211.396 338.776 209.5 340.26 208.606L405.554 169.262Z" fill="#D9D9D9"/>
<path d="M371.512 195.845L346.673 210.745C345.362 211.531 344.899 213.208 345.621 214.555L354.244 230.646C355.019 232.092 356.848 232.593 358.252 231.745L383.087 216.737C384.395 215.947 384.852 214.27 384.127 212.925L375.508 196.942C374.733 195.504 372.913 195.005 371.512 195.845Z" fill="#ED26B7"/>
<path fill-rule="evenodd" clip-rule="evenodd" d="M375.328 197.039C374.608 195.704 372.919 195.24 371.618 196.021L346.778 210.92C345.561 211.65 345.131 213.208 345.802 214.459L354.425 230.549C355.144 231.892 356.842 232.357 358.146 231.57L382.981 216.562C384.196 215.828 384.621 214.271 383.947 213.022L375.328 197.039ZM371.407 195.67C372.908 194.769 374.857 195.304 375.688 196.845L384.307 212.828C385.084 214.269 384.594 216.066 383.193 216.912L358.358 231.92C356.853 232.829 354.894 232.292 354.064 230.742L345.441 214.652C344.667 213.208 345.163 211.412 346.568 210.569L371.407 195.67Z" fill="white"/>
<path d="M385.022 219.325L360.191 234.219C358.932 234.975 358.448 236.56 359.07 237.89L360.196 240.298C360.917 241.84 362.816 242.417 364.273 241.537L389.078 226.547C390.339 225.786 390.816 224.193 390.184 222.864L389.083 220.551C388.356 219.024 386.472 218.455 385.022 219.325Z" fill="#1D0E40"/>
<path fill-rule="evenodd" clip-rule="evenodd" d="M388.898 220.639C388.223 219.221 386.474 218.693 385.127 219.5L360.296 234.395C359.127 235.096 358.677 236.568 359.255 237.804L360.381 240.211C361.051 241.643 362.814 242.179 364.167 241.361L388.972 226.372C390.143 225.665 390.586 224.186 389.999 222.951L388.898 220.639ZM384.916 219.149C386.47 218.217 388.489 218.827 389.268 220.463L390.368 222.776C391.046 224.2 390.534 225.906 389.184 226.722L364.379 241.712C362.818 242.655 360.783 242.037 360.01 240.385L358.884 237.977C358.218 236.552 358.737 234.853 360.086 234.044L384.916 219.149Z" fill="white"/>
<path d="M399.983 185.336L416.687 215.996C417.749 217.946 420.145 218.732 422.156 217.792C424.353 216.764 425.226 214.094 424.06 211.967L407.273 181.351C406.215 179.421 403.834 178.651 401.846 179.597C399.694 180.622 398.843 183.243 399.983 185.336Z" fill="#1D0E40"/>
<path fill-rule="evenodd" clip-rule="evenodd" d="M402.022 179.967C400.082 180.89 399.315 183.253 400.342 185.14L417.047 215.8C418.005 217.56 420.167 218.27 421.982 217.421C423.966 216.493 424.753 214.083 423.701 212.164L406.914 181.548C405.96 179.808 403.814 179.114 402.022 179.967ZM399.624 185.532C398.371 183.233 399.306 180.353 401.67 179.228C403.854 178.189 406.469 179.034 407.632 181.155L424.419 211.77C425.699 214.104 424.741 217.035 422.329 218.162C420.122 219.195 417.493 218.331 416.328 216.192L399.624 185.532Z" fill="#D9D9D9"/>
<path fill-rule="evenodd" clip-rule="evenodd" d="M403.399 182.727C403.697 182.565 404.07 182.676 404.231 182.974L420.945 213.818C421.107 214.116 420.996 214.489 420.698 214.65C420.4 214.812 420.027 214.701 419.866 214.403L403.152 183.559C402.99 183.261 403.101 182.889 403.399 182.727Z" fill="#ED26B7"/>
<path d="M417.61 203.697L413.347 206.254C413.16 206.366 413.094 206.605 413.196 206.798L414.411 209.074C414.521 209.281 414.783 209.353 414.984 209.231L419.246 206.656C419.432 206.543 419.498 206.304 419.394 206.112L418.181 203.854C418.07 203.648 417.81 203.577 417.61 203.697Z" fill="white"/>
<path fill-rule="evenodd" clip-rule="evenodd" d="M418 203.951C417.945 203.848 417.815 203.812 417.715 203.872L413.452 206.429C413.359 206.485 413.325 206.605 413.377 206.701L414.591 208.977C414.647 209.081 414.777 209.117 414.878 209.056L419.14 206.481C419.233 206.424 419.266 206.305 419.214 206.209L418 203.951ZM417.504 203.521C417.805 203.341 418.195 203.449 418.361 203.757L419.574 206.015C419.729 206.303 419.631 206.662 419.351 206.831L415.089 209.406C414.788 209.588 414.396 209.481 414.23 209.17L413.016 206.894C412.862 206.605 412.961 206.247 413.241 206.078L417.504 203.521Z" fill="#D9D9D9"/>
<path d="M386.778 193.225L403.482 223.886C404.544 225.835 406.94 226.622 408.951 225.681C411.148 224.653 412.021 221.983 410.854 219.856L394.068 189.241C393.009 187.31 390.628 186.541 388.64 187.487C386.488 188.511 385.637 191.132 386.778 193.225Z" fill="#1D0E40"/>
<path fill-rule="evenodd" clip-rule="evenodd" d="M388.816 187.857C386.876 188.78 386.109 191.143 387.137 193.029L403.842 223.69C404.8 225.449 406.962 226.159 408.777 225.31C410.76 224.383 411.548 221.973 410.495 220.053L393.709 189.438C392.755 187.697 390.608 187.004 388.816 187.857ZM386.418 193.421C385.166 191.122 386.1 188.242 388.465 187.117C390.649 186.078 393.264 186.923 394.427 189.044L411.213 219.659C412.493 221.994 411.536 224.924 409.124 226.052C406.917 227.084 404.288 226.221 403.123 224.081L386.418 193.421Z" fill="#D9D9D9"/>
<path fill-rule="evenodd" clip-rule="evenodd" d="M390.194 190.616C390.492 190.455 390.865 190.566 391.026 190.864L407.74 221.707C407.902 222.005 407.791 222.378 407.493 222.54C407.195 222.701 406.822 222.59 406.66 222.292L389.946 191.449C389.785 191.151 389.896 190.778 390.194 190.616Z" fill="#ED26B7"/>
<path d="M395.915 195.92L391.652 198.477C391.465 198.589 391.399 198.828 391.502 199.021L392.716 201.297C392.826 201.504 393.088 201.576 393.289 201.454L397.551 198.879C397.737 198.766 397.803 198.527 397.7 198.335L396.486 196.077C396.375 195.872 396.115 195.8 395.915 195.92Z" fill="white"/>
<path fill-rule="evenodd" clip-rule="evenodd" d="M396.306 196.174C396.25 196.071 396.12 196.036 396.02 196.096L391.757 198.653C391.664 198.709 391.631 198.828 391.682 198.924L392.897 201.201C392.952 201.304 393.083 201.34 393.183 201.279L397.445 198.704C397.538 198.648 397.571 198.528 397.519 198.432L396.306 196.174ZM395.81 195.745C396.11 195.564 396.5 195.672 396.666 195.98L397.88 198.238C398.035 198.526 397.937 198.885 397.657 199.054L393.395 201.63C393.094 201.812 392.701 201.704 392.536 201.393L391.321 199.117C391.167 198.828 391.266 198.47 391.547 198.302L395.81 195.745Z" fill="#D9D9D9"/>
<path fill-rule="evenodd" clip-rule="evenodd" d="M341.467 268.534C341.467 267.904 342.15 267.51 342.696 267.825L355.561 275.267C355.941 275.486 356.175 275.891 356.175 276.33L356.175 282.698C356.175 283.33 355.489 283.724 354.943 283.405L342.076 275.898C341.699 275.678 341.467 275.274 341.467 274.837L341.467 268.534ZM355.152 275.975L342.286 268.534L342.286 274.837C342.286 274.983 342.363 275.117 342.489 275.191L355.356 282.698L355.356 276.33C355.356 276.184 355.278 276.048 355.152 275.975Z" fill="#D9D9D9"/>
<path fill-rule="evenodd" clip-rule="evenodd" d="M361.863 235.605C362.066 235.504 362.312 235.587 362.412 235.789L363.952 238.891C364.053 239.093 363.97 239.339 363.768 239.439C363.565 239.54 363.32 239.457 363.219 239.255L361.679 236.154C361.578 235.951 361.661 235.706 361.863 235.605Z" fill="#ED26B7"/>
<path fill-rule="evenodd" clip-rule="evenodd" d="M364.103 234.303C364.305 234.202 364.551 234.285 364.652 234.487L366.192 237.588C366.292 237.791 366.21 238.037 366.007 238.137C365.805 238.238 365.559 238.155 365.459 237.953L363.918 234.852C363.818 234.649 363.9 234.403 364.103 234.303Z" fill="#ED26B7"/>
<path fill-rule="evenodd" clip-rule="evenodd" d="M366.343 232.933C366.545 232.832 366.791 232.915 366.891 233.117L368.432 236.219C368.532 236.421 368.45 236.667 368.247 236.767C368.045 236.868 367.799 236.785 367.698 236.583L366.158 233.482C366.058 233.279 366.14 233.034 366.343 232.933Z" fill="white"/>
<path fill-rule="evenodd" clip-rule="evenodd" d="M368.694 231.549C368.896 231.448 369.142 231.531 369.242 231.734L370.783 234.835C370.883 235.037 370.801 235.283 370.598 235.383C370.396 235.484 370.15 235.401 370.05 235.199L368.509 232.098C368.409 231.895 368.491 231.65 368.694 231.549Z" fill="#ED26B7"/>
<path fill-rule="evenodd" clip-rule="evenodd" d="M371.045 230.111C371.247 230.011 371.493 230.093 371.593 230.296L373.134 233.397C373.234 233.6 373.152 233.845 372.949 233.946C372.747 234.046 372.501 233.964 372.4 233.761L370.86 230.66C370.759 230.458 370.842 230.212 371.045 230.111Z" fill="#ED26B7"/>
<path fill-rule="evenodd" clip-rule="evenodd" d="M373.395 228.708C373.598 228.607 373.844 228.69 373.944 228.892L375.484 231.993C375.585 232.196 375.502 232.441 375.3 232.542C375.097 232.642 374.852 232.56 374.751 232.357L373.211 229.256C373.11 229.054 373.193 228.808 373.395 228.708Z" fill="#ED26B7"/>
<path fill-rule="evenodd" clip-rule="evenodd" d="M375.771 227.253C375.974 227.153 376.22 227.235 376.32 227.438L377.86 230.539C377.961 230.741 377.878 230.987 377.676 231.087C377.473 231.188 377.228 231.105 377.127 230.903L375.587 227.802C375.486 227.599 375.569 227.354 375.771 227.253Z" fill="#ED26B7"/>
<path fill-rule="evenodd" clip-rule="evenodd" d="M378.147 225.833C378.35 225.732 378.595 225.815 378.696 226.017L380.236 229.118C380.337 229.321 380.254 229.566 380.052 229.667C379.849 229.767 379.604 229.685 379.503 229.482L377.963 226.381C377.862 226.179 377.945 225.933 378.147 225.833Z" fill="white"/>
<path fill-rule="evenodd" clip-rule="evenodd" d="M380.651 224.378C380.853 224.277 381.099 224.36 381.199 224.563L382.74 227.664C382.84 227.866 382.757 228.112 382.555 228.212C382.353 228.313 382.107 228.23 382.006 228.028L380.466 224.927C380.365 224.724 380.448 224.479 380.651 224.378Z" fill="white"/>
<path fill-rule="evenodd" clip-rule="evenodd" d="M383.154 222.834C383.356 222.733 383.602 222.816 383.702 223.018L385.243 226.12C385.343 226.322 385.261 226.568 385.058 226.668C384.856 226.769 384.61 226.686 384.51 226.484L382.969 223.383C382.869 223.18 382.951 222.935 383.154 222.834Z" fill="#ED26B7"/>
<path fill-rule="evenodd" clip-rule="evenodd" d="M385.505 221.447C385.707 221.347 385.953 221.429 386.053 221.632L387.594 224.733C387.694 224.935 387.611 225.181 387.409 225.281C387.207 225.382 386.961 225.299 386.86 225.097L385.32 221.996C385.219 221.793 385.302 221.548 385.505 221.447Z" fill="#ED26B7"/>
<path fill-rule="evenodd" clip-rule="evenodd" d="M369.575 202.211C369.691 202.405 369.629 202.656 369.435 202.773L365.216 205.307C365.022 205.423 364.77 205.361 364.654 205.167C364.538 204.973 364.6 204.722 364.794 204.605L369.013 202.071C369.207 201.954 369.458 202.017 369.575 202.211ZM362.077 206.715C362.193 206.909 362.13 207.16 361.937 207.277L353.728 212.207C353.534 212.324 353.283 212.261 353.166 212.067C353.05 211.873 353.113 211.622 353.306 211.506L361.515 206.575C361.709 206.458 361.96 206.521 362.077 206.715Z" fill="white"/>
<path fill-rule="evenodd" clip-rule="evenodd" d="M375.62 203.993C375.736 204.187 375.674 204.438 375.48 204.555L372.443 206.379C372.249 206.495 371.998 206.432 371.881 206.239C371.765 206.045 371.828 205.793 372.021 205.677L375.058 203.853C375.252 203.736 375.503 203.799 375.62 203.993ZM371.109 206.702C371.226 206.896 371.163 207.148 370.969 207.264L357.437 215.393C357.243 215.509 356.992 215.446 356.875 215.252C356.759 215.059 356.822 214.807 357.015 214.691L370.547 206.562C370.741 206.446 370.993 206.509 371.109 206.702Z" fill="white"/>
<path fill-rule="evenodd" clip-rule="evenodd" d="M368.855 205.342C368.971 205.536 368.908 205.788 368.715 205.904L358.095 212.283C357.901 212.399 357.65 212.337 357.533 212.143C357.417 211.949 357.48 211.698 357.674 211.581L368.293 205.202C368.487 205.086 368.738 205.149 368.855 205.342Z" fill="white"/>
<path fill-rule="evenodd" clip-rule="evenodd" d="M376.287 206.437C376.403 206.631 376.341 206.883 376.147 206.999L362.539 215.173C362.345 215.29 362.093 215.227 361.977 215.033C361.861 214.839 361.923 214.588 362.117 214.471L375.725 206.297C375.919 206.181 376.171 206.243 376.287 206.437ZM359.468 216.54C359.584 216.734 359.521 216.986 359.328 217.102L354.848 219.793C354.654 219.909 354.403 219.846 354.286 219.653C354.17 219.459 354.233 219.207 354.427 219.091L358.906 216.4C359.1 216.284 359.351 216.346 359.468 216.54Z" fill="white"/>
<path fill-rule="evenodd" clip-rule="evenodd" d="M378.267 208.366C378.384 208.56 378.321 208.811 378.127 208.928L372.268 212.447C372.075 212.563 371.823 212.5 371.707 212.307C371.59 212.113 371.653 211.861 371.847 211.745L377.705 208.226C377.899 208.109 378.151 208.172 378.267 208.366ZM366.55 215.404C366.666 215.598 366.604 215.85 366.41 215.966L360.043 219.791C359.849 219.907 359.597 219.844 359.481 219.651C359.365 219.457 359.427 219.205 359.621 219.089L365.988 215.264C366.182 215.148 366.434 215.21 366.55 215.404ZM357.943 220.575C358.059 220.768 357.996 221.02 357.802 221.136L354.693 223.004C354.499 223.121 354.248 223.058 354.131 222.864C354.015 222.67 354.077 222.419 354.271 222.302L357.381 220.434C357.575 220.318 357.826 220.381 357.943 220.575Z" fill="white"/>
<path fill-rule="evenodd" clip-rule="evenodd" d="M379.061 211.299C379.177 211.493 379.115 211.744 378.921 211.86L367.204 218.899C367.01 219.015 366.759 218.952 366.642 218.759C366.526 218.565 366.588 218.313 366.782 218.197L378.499 211.159C378.693 211.042 378.945 211.105 379.061 211.299ZM364.344 220.139C364.461 220.333 364.398 220.584 364.204 220.701L358.095 224.37C357.901 224.486 357.65 224.424 357.533 224.23C357.417 224.036 357.48 223.785 357.674 223.668L363.783 219.999C363.976 219.882 364.228 219.945 364.344 220.139Z" fill="white"/>
<path fill-rule="evenodd" clip-rule="evenodd" d="M381.011 213.137C381.128 213.331 381.065 213.583 380.871 213.699L377.339 215.821C377.145 215.937 376.894 215.875 376.777 215.681C376.661 215.487 376.724 215.235 376.917 215.119L380.45 212.997C380.643 212.881 380.895 212.944 381.011 213.137ZM373.113 217.882C373.229 218.076 373.167 218.327 372.973 218.443L365.205 223.11C365.011 223.226 364.76 223.163 364.643 222.969C364.527 222.776 364.59 222.524 364.783 222.408L372.551 217.742C372.745 217.625 372.997 217.688 373.113 217.882ZM362.692 224.142C362.808 224.336 362.745 224.587 362.551 224.703L357.437 227.776C357.243 227.892 356.992 227.829 356.875 227.636C356.759 227.442 356.822 227.19 357.015 227.074L362.13 224.002C362.324 223.885 362.575 223.948 362.692 224.142Z" fill="white"/>
<path fill-rule="evenodd" clip-rule="evenodd" d="M140.308 133.916C140.308 131.769 141.816 129.157 143.676 128.084L207.406 91.2892C209.266 90.2154 210.773 91.0859 210.773 93.2335L210.773 135.707C210.773 137.854 209.266 140.466 207.406 141.54L143.676 178.334C141.816 179.408 140.308 178.537 140.308 176.39L140.308 133.916ZM143.676 129.312C142.404 130.046 141.372 131.833 141.372 133.302L141.372 175.776C141.372 177.245 142.404 177.841 143.676 177.106L207.406 140.312C208.678 139.577 209.71 137.79 209.71 136.321L209.71 93.8475C209.71 92.3781 208.678 91.7825 207.406 92.5172L143.676 129.312Z" fill="#ED26B7"/>
<path d="M140.84 133.609C140.84 131.801 142.11 129.602 143.676 128.698L207.406 91.9032C208.972 90.9989 210.242 91.732 210.242 93.5405L210.242 136.014C210.242 137.822 208.972 140.022 207.406 140.926L143.676 177.72C142.11 178.624 140.84 177.891 140.84 176.083L140.84 133.609Z" fill="url(#paint0_radial_4518_7223)" fill-opacity="0.35"/>
<path fill-rule="evenodd" clip-rule="evenodd" d="M186.646 122.445L203.087 104.947L202.674 104.054L185.9 121.905L181.494 133.377L174.079 135.85L166.81 149.824L155.617 152.036L147.838 164.882L148.562 165.363L155.881 153.276L167.154 151.049L174.475 136.973L182.034 134.452L186.646 122.445Z" fill="#ED26B7"/>
<path d="M157.647 151.886C157.647 153.224 156.812 154.791 155.783 155.386C154.753 155.98 153.919 155.377 153.919 154.038C153.919 152.7 154.753 151.133 155.783 150.538C156.812 149.944 157.647 150.547 157.647 151.886Z" fill="#ED26B7"/>
<path d="M176.216 135.428C176.216 136.767 175.382 138.334 174.352 138.928C173.323 139.523 172.488 138.919 172.488 137.581C172.488 136.242 173.323 134.675 174.352 134.081C175.382 133.486 176.216 134.09 176.216 135.428Z" fill="#ED26B7"/>
<path d="M168.71 149.352C168.71 150.691 167.875 152.258 166.845 152.852C165.816 153.446 164.981 152.843 164.981 151.504C164.981 150.166 165.816 148.599 166.845 148.004C167.875 147.41 168.71 148.013 168.71 149.352Z" fill="#ED26B7"/>
<path d="M183.657 132.549C183.657 133.888 182.823 135.455 181.793 136.049C180.764 136.644 179.929 136.04 179.929 134.702C179.929 133.363 180.764 131.796 181.793 131.202C182.823 130.607 183.657 131.211 183.657 132.549Z" fill="#ED26B7"/>
<path d="M188.069 121.355C188.069 122.693 187.235 124.26 186.205 124.855C185.176 125.449 184.341 124.846 184.341 123.507C184.341 122.169 185.176 120.602 186.205 120.007C187.235 119.413 188.069 120.016 188.069 121.355Z" fill="#ED26B7"/>
<path d="M204.744 103.424C204.744 104.763 203.91 106.33 202.88 106.924C201.851 107.519 201.016 106.915 201.016 105.577C201.016 104.238 201.851 102.671 202.88 102.077C203.91 101.482 204.744 102.086 204.744 103.424Z" fill="#ED26B7"/>
<path d="M150.064 164.047C150.064 165.385 149.23 166.952 148.2 167.547C147.171 168.141 146.336 167.538 146.336 166.199C146.336 164.861 147.171 163.294 148.2 162.699C149.23 162.105 150.064 162.708 150.064 164.047Z" fill="#ED26B7"/>
<path fill-rule="evenodd" clip-rule="evenodd" d="M209.252 152.705C209.535 153.194 209.368 153.82 208.879 154.103L174.167 174.189C173.678 174.472 173.052 174.305 172.769 173.816C172.486 173.327 172.653 172.701 173.142 172.418L207.854 152.331C208.343 152.048 208.969 152.216 209.252 152.705Z" fill="#ED26B7"/>
<path fill-rule="evenodd" clip-rule="evenodd" d="M209.687 160.007C209.975 160.493 209.815 161.121 209.328 161.409L186.727 174.806C186.241 175.094 185.613 174.934 185.325 174.447C185.037 173.961 185.197 173.333 185.683 173.045L208.285 159.648C208.771 159.36 209.399 159.521 209.687 160.007Z" fill="#ED26B7"/>
<path fill-rule="evenodd" clip-rule="evenodd" d="M209.69 168.118C209.977 168.605 209.815 169.233 209.328 169.52L197.352 176.578C196.865 176.865 196.238 176.703 195.951 176.216C195.664 175.729 195.826 175.102 196.313 174.815L208.289 167.756C208.776 167.469 209.403 167.632 209.69 168.118Z" fill="#ED26B7"/>
<path fill-rule="evenodd" clip-rule="evenodd" d="M191.892 178.771C192.179 179.258 192.017 179.885 191.53 180.172L179.554 187.231C179.067 187.518 178.44 187.356 178.153 186.869C177.866 186.382 178.028 185.755 178.515 185.468L190.491 178.409C190.978 178.122 191.605 178.284 191.892 178.771Z" fill="#ED26B7"/>
<path fill-rule="evenodd" clip-rule="evenodd" d="M153.698 109.097C153.985 109.584 153.823 110.211 153.336 110.498L141.36 117.556C140.873 117.843 140.246 117.681 139.959 117.194C139.672 116.707 139.834 116.08 140.321 115.793L152.297 108.735C152.784 108.448 153.411 108.61 153.698 109.097Z" fill="#ED26B7"/>
<path fill-rule="evenodd" clip-rule="evenodd" d="M153.698 100.374C153.985 100.861 153.823 101.488 153.336 101.775L141.36 108.833C140.873 109.12 140.246 108.958 139.959 108.471C139.672 107.984 139.834 107.357 140.321 107.07L152.297 100.012C152.784 99.7247 153.411 99.8868 153.698 100.374Z" fill="#ED26B7"/>
<path d="M231.945 251.558L231.945 256.852C231.945 267.308 218.148 275.786 201.136 275.786C184.124 275.786 170.327 267.308 170.327 256.852L170.327 251.558C170.327 262.014 184.119 270.493 201.136 270.493C218.153 270.493 231.945 262.014 231.945 251.558Z" fill="#1D0E40"/>
<path fill-rule="evenodd" clip-rule="evenodd" d="M170.737 255.989L170.737 256.852C170.737 261.884 174.059 266.506 179.567 269.891C185.068 273.272 192.693 275.377 201.136 275.377C209.579 275.377 217.204 273.272 222.706 269.891C228.214 266.506 231.536 261.884 231.536 256.852L231.536 255.989C230.174 259.604 227.188 262.805 223.136 265.295C217.487 268.768 209.708 270.902 201.136 270.902C192.565 270.902 184.786 268.768 179.136 265.295C175.084 262.805 172.098 259.604 170.737 255.989ZM169.918 251.558L169.918 256.852C169.918 262.275 173.495 267.121 179.138 270.589C184.788 274.061 192.567 276.196 201.136 276.196C209.705 276.196 217.484 274.061 223.134 270.589C228.778 267.121 232.354 262.275 232.354 256.852L232.354 251.558L231.536 251.558C231.536 256.591 228.215 261.213 222.708 264.598C217.207 267.979 209.581 270.083 201.136 270.083C192.691 270.083 185.066 267.979 179.565 264.598C174.057 261.213 170.737 256.591 170.737 251.558L169.918 251.558Z" fill="#D9D9D9"/>
<path d="M201.136 270.493C218.151 270.493 231.945 262.015 231.945 251.558C231.945 241.101 218.151 232.623 201.136 232.623C184.121 232.623 170.327 241.101 170.327 251.558C170.327 262.015 184.121 270.493 201.136 270.493Z" fill="#1D0E40"/>
<path fill-rule="evenodd" clip-rule="evenodd" d="M179.565 238.518C174.058 241.903 170.737 246.525 170.737 251.558C170.737 256.591 174.058 261.213 179.565 264.598C185.066 267.979 192.692 270.083 201.136 270.083C209.58 270.083 217.206 267.979 222.707 264.598C228.214 261.213 231.535 256.591 231.535 251.558C231.535 246.525 228.214 241.903 222.707 238.518C217.206 235.137 209.58 233.033 201.136 233.033C192.692 233.033 185.066 235.137 179.565 238.518ZM179.137 237.82C184.786 234.348 192.565 232.214 201.136 232.214C209.707 232.214 217.486 234.348 223.135 237.82C228.778 241.288 232.354 246.134 232.354 251.558C232.354 256.982 228.778 261.827 223.135 265.296C217.486 268.768 209.707 270.902 201.136 270.902C192.565 270.902 184.786 268.768 179.137 265.296C173.494 261.827 169.918 256.982 169.918 251.558C169.918 246.134 173.494 241.288 179.137 237.82Z" fill="#D9D9D9"/>
<path d="M230.757 244.434L230.757 249.727C230.757 260.184 216.96 268.662 199.948 268.662C182.936 268.662 169.139 260.184 169.139 249.727L169.139 244.434C169.139 254.89 182.931 263.369 199.948 263.369C216.964 263.369 230.757 254.89 230.757 244.434Z" fill="#1D0E40"/>
<path fill-rule="evenodd" clip-rule="evenodd" d="M169.549 248.865L169.549 249.727C169.549 254.76 172.87 259.382 178.378 262.767C183.88 266.148 191.505 268.253 199.948 268.253C208.391 268.253 216.016 266.148 221.518 262.767C227.026 259.382 230.347 254.76 230.347 249.727L230.347 248.865C228.986 252.48 226 255.681 221.948 258.171C216.299 261.643 208.519 263.778 199.948 263.778C191.376 263.778 183.597 261.643 177.948 258.171C173.896 255.681 170.91 252.48 169.549 248.865ZM168.73 244.434L168.73 249.727C168.73 255.151 172.306 259.997 177.95 263.465C183.6 266.937 191.379 269.071 199.948 269.071C208.517 269.071 216.296 266.937 221.946 263.465C227.59 259.997 231.166 255.151 231.166 249.727L231.166 244.434L230.347 244.434C230.347 249.467 227.027 254.089 221.519 257.474C216.019 260.855 208.393 262.959 199.948 262.959C191.503 262.959 183.877 260.855 178.377 257.474C172.869 254.089 169.549 249.467 169.549 244.434L168.73 244.434Z" fill="#D9D9D9"/>
<path d="M199.948 263.368C216.963 263.368 230.757 254.891 230.757 244.433C230.757 233.976 216.963 225.499 199.948 225.499C182.933 225.499 169.139 233.976 169.139 244.433C169.139 254.891 182.933 263.368 199.948 263.368Z" fill="#1D0E40"/>
<path fill-rule="evenodd" clip-rule="evenodd" d="M178.377 231.393C172.87 234.778 169.549 239.4 169.549 244.433C169.549 249.467 172.87 254.089 178.377 257.474C183.878 260.854 191.504 262.959 199.948 262.959C208.392 262.959 216.018 260.854 221.519 257.474C227.026 254.089 230.347 249.467 230.347 244.433C230.347 239.4 227.026 234.778 221.519 231.393C216.018 228.013 208.392 225.908 199.948 225.908C191.504 225.908 183.878 228.013 178.377 231.393ZM177.949 230.696C183.598 227.224 191.377 225.089 199.948 225.089C208.519 225.089 216.298 227.224 221.947 230.696C227.59 234.164 231.166 239.009 231.166 244.433C231.166 249.858 227.59 254.703 221.947 258.171C216.298 261.643 208.519 263.777 199.948 263.777C191.377 263.777 183.598 261.643 177.949 258.171C172.306 254.703 168.73 249.858 168.73 244.433C168.73 239.009 172.306 234.164 177.949 230.696Z" fill="#D9D9D9"/>
<path d="M236.694 235.33L236.694 240.624C236.694 251.08 222.897 259.558 205.885 259.558C188.873 259.558 175.077 251.08 175.077 240.624L175.077 235.33C175.077 245.787 188.869 254.265 205.885 254.265C222.902 254.265 236.694 245.787 236.694 235.33Z" fill="#1D0E40"/>
<path fill-rule="evenodd" clip-rule="evenodd" d="M175.486 239.761L175.486 240.624C175.486 245.656 178.808 250.278 184.316 253.663C189.817 257.044 197.443 259.149 205.885 259.149C214.328 259.149 221.954 257.044 227.455 253.663C232.963 250.278 236.285 245.656 236.285 240.624L236.285 239.761C234.923 243.376 231.937 246.577 227.885 249.067C222.236 252.54 214.457 254.674 205.885 254.674C197.314 254.674 189.535 252.54 183.886 249.067C179.834 246.577 176.848 243.376 175.486 239.761ZM174.667 235.33L174.667 240.624C174.667 246.047 178.244 250.893 183.887 254.361C189.537 257.833 197.316 259.968 205.885 259.968C214.455 259.968 222.234 257.833 227.884 254.361C233.527 250.893 237.104 246.047 237.104 240.624L237.104 235.33L236.285 235.33C236.285 240.363 232.964 244.985 227.457 248.37C221.956 251.751 214.331 253.855 205.885 253.855C197.44 253.855 189.815 251.751 184.314 248.37C178.807 244.985 175.486 240.363 175.486 235.33L174.667 235.33Z" fill="#D9D9D9"/>
<path d="M205.886 254.265C222.901 254.265 236.694 245.787 236.694 235.33C236.694 224.873 222.901 216.395 205.886 216.395C188.87 216.395 175.077 224.873 175.077 235.33C175.077 245.787 188.87 254.265 205.886 254.265Z" fill="#1D0E40"/>
<path fill-rule="evenodd" clip-rule="evenodd" d="M184.315 222.29C178.807 225.675 175.486 230.297 175.486 235.33C175.486 240.363 178.807 244.985 184.315 248.37C189.816 251.751 197.441 253.855 205.885 253.855C214.33 253.855 221.955 251.751 227.456 248.37C232.964 244.985 236.285 240.363 236.285 235.33C236.285 230.297 232.964 225.675 227.456 222.29C221.955 218.909 214.33 216.805 205.885 216.805C197.441 216.805 189.816 218.909 184.315 222.29ZM183.886 221.592C189.536 218.12 197.315 215.986 205.885 215.986C214.456 215.986 222.235 218.12 227.885 221.592C233.528 225.06 237.104 229.906 237.104 235.33C237.104 240.754 233.528 245.599 227.885 249.068C222.235 252.54 214.456 254.674 205.885 254.674C197.315 254.674 189.536 252.54 183.886 249.068C178.243 245.599 174.667 240.754 174.667 235.33C174.667 229.906 178.243 225.06 183.886 221.592Z" fill="#D9D9D9"/>
<path d="M225.611 230.184L225.611 235.478C225.611 245.934 211.815 254.412 194.803 254.412C177.791 254.412 163.994 245.934 163.994 235.478L163.994 230.184C163.994 240.64 177.786 249.119 194.803 249.119C211.819 249.119 225.611 240.64 225.611 230.184Z" fill="#1D0E40"/>
<path fill-rule="evenodd" clip-rule="evenodd" d="M164.403 234.615L164.403 235.478C164.403 240.51 167.725 245.132 173.233 248.517C178.734 251.898 186.36 254.003 194.802 254.003C203.245 254.003 210.871 251.898 216.372 248.517C221.88 245.132 225.202 240.51 225.202 235.478L225.202 234.615C223.84 238.23 220.854 241.431 216.802 243.921C211.153 247.393 203.374 249.528 194.802 249.528C186.231 249.528 178.452 247.393 172.802 243.921C168.75 241.431 165.765 238.23 164.403 234.615ZM163.584 230.184L163.584 235.478C163.584 240.901 167.161 245.747 172.804 249.215C178.454 252.687 186.233 254.822 194.802 254.822C203.372 254.822 211.151 252.687 216.801 249.215C222.444 245.747 226.021 240.901 226.021 235.478L226.021 230.184L225.202 230.184C225.202 235.217 221.881 239.839 216.374 243.224C210.873 246.605 203.248 248.709 194.802 248.709C186.357 248.709 178.732 246.605 173.231 243.224C167.724 239.839 164.403 235.217 164.403 230.184L163.584 230.184Z" fill="#D9D9D9"/>
<path d="M194.803 249.119C211.818 249.119 225.611 240.641 225.611 230.184C225.611 219.727 211.818 211.249 194.803 211.249C177.787 211.249 163.994 219.727 163.994 230.184C163.994 240.641 177.787 249.119 194.803 249.119Z" fill="#1D0E40"/>
<path fill-rule="evenodd" clip-rule="evenodd" d="M173.232 217.144C167.724 220.529 164.403 225.151 164.403 230.184C164.403 235.217 167.724 239.839 173.232 243.224C178.733 246.605 186.358 248.709 194.802 248.709C203.247 248.709 210.872 246.605 216.373 243.224C221.881 239.839 225.202 235.217 225.202 230.184C225.202 225.151 221.881 220.529 216.373 217.144C210.872 213.763 203.247 211.659 194.802 211.659C186.358 211.659 178.733 213.763 173.232 217.144ZM172.803 216.447C178.453 212.974 186.232 210.84 194.802 210.84C203.373 210.84 211.152 212.974 216.802 216.447C222.445 219.915 226.021 224.76 226.021 230.184C226.021 235.608 222.445 240.454 216.802 243.922C211.152 247.394 203.373 249.528 194.802 249.528C186.232 249.528 178.453 247.394 172.803 243.922C167.16 240.454 163.584 235.608 163.584 230.184C163.584 224.76 167.16 219.915 172.803 216.447Z" fill="#D9D9D9"/>
<path fill-rule="evenodd" clip-rule="evenodd" d="M193.898 222.925C192.827 222.798 189.996 222.589 187.325 223.611C187.165 223.672 187.006 223.737 186.848 223.807L194.686 228.333C198.886 226.95 203.272 225.532 207.658 228.064C210.768 229.86 210.924 233.003 207.347 235.643L210.271 237.331L208.062 238.606L205.138 236.918C200.286 239.36 195.495 238.785 194.469 238.588L194.966 236.648C195.03 236.654 195.099 236.661 195.175 236.668C195.284 236.679 195.405 236.69 195.538 236.702C196.971 236.83 199.746 236.974 202.334 235.772C202.482 235.703 202.628 235.63 202.774 235.553L194.655 230.865C190.58 232.176 186.568 233.38 182.275 230.901C179.444 229.267 179.071 226.142 182.368 223.772L179.507 222.119L181.715 220.844L184.577 222.496C188.994 220.305 193.38 220.826 194.78 221.024C194.78 221.024 194.78 221.024 194.78 221.024L194.064 222.945C194.064 222.945 194.064 222.945 194.064 222.945C194.015 222.939 193.959 222.932 193.898 222.925ZM184.614 222.045L181.715 220.372L178.688 222.119L181.6 223.801C178.485 226.256 178.896 229.423 181.866 231.138C184.13 232.445 186.382 232.805 188.622 232.636C190.663 232.482 192.651 231.889 194.555 231.28L201.922 235.534C199.316 236.726 196.526 236.459 195.263 236.338C195.189 236.331 195.12 236.324 195.057 236.318L194.479 236.266L193.825 238.816L194.286 238.905C195.407 239.121 200.193 239.682 205.105 237.371L208.062 239.078L211.089 237.331L208.112 235.612C211.507 232.919 211.337 229.715 208.067 227.828C205.741 226.485 203.36 226.172 201.006 226.401C198.856 226.61 196.753 227.27 194.784 227.917L187.744 223.852C190.338 222.893 193.08 223.16 193.937 223.271L194.507 223.346L195.464 220.776L194.917 220.699C193.495 220.498 189.102 219.979 184.614 222.045ZM191.949 229.303L184.67 225.101C184.557 225.196 184.45 225.292 184.351 225.389C182.902 226.803 182.996 228.336 184.888 229.429C186.802 230.534 188.987 230.203 191.417 229.468C191.593 229.415 191.771 229.36 191.949 229.303ZM184.774 225.633C183.506 226.924 183.668 228.252 185.297 229.192C186.196 229.711 187.125 229.858 188.134 229.795C189.004 229.74 189.948 229.528 190.988 229.221L184.774 225.633ZM204.889 234.224C205.005 234.13 205.115 234.036 205.219 233.941C206.925 232.382 206.977 230.688 204.983 229.536C202.996 228.39 200.543 228.843 197.881 229.705C197.709 229.761 197.536 229.819 197.362 229.878L204.889 234.224ZM198.307 229.951L204.799 233.699C206.344 232.246 206.286 230.762 204.573 229.773C203.662 229.247 202.665 229.113 201.542 229.216C200.555 229.305 199.477 229.577 198.307 229.951Z" fill="white"/>
<path d="M273.61 279.383L269.33 282.498C260.876 288.651 245.902 282.485 235.892 268.73C225.881 254.975 224.617 238.831 233.072 232.678L237.352 229.563C228.897 235.716 230.158 251.856 240.172 265.615C250.185 279.373 265.156 285.536 273.61 279.383Z" fill="#1D0E40"/>
<path fill-rule="evenodd" clip-rule="evenodd" d="M234.01 232.501L233.313 233.009C229.243 235.97 227.461 241.376 227.965 247.821C228.469 254.259 231.255 261.663 236.223 268.489C241.191 275.315 247.38 280.242 253.351 282.701C259.329 285.162 265.02 285.128 269.09 282.167L269.787 281.659C266.063 282.686 261.718 282.155 257.32 280.344C251.188 277.82 244.885 272.786 239.841 265.856C234.797 258.925 231.945 251.38 231.428 244.769C231.058 240.027 231.888 235.729 234.01 232.501ZM237.111 229.232L232.831 232.347C228.446 235.538 226.633 241.281 227.149 247.885C227.667 254.497 230.518 262.042 235.561 268.971C240.603 275.899 246.907 280.933 253.039 283.458C259.164 285.98 265.186 286.02 269.571 282.829L273.851 279.714L273.37 279.052C269.3 282.013 263.609 282.048 257.632 279.587C251.661 277.129 245.472 272.202 240.503 265.374C235.533 258.546 232.748 251.142 232.244 244.705C231.741 238.26 233.523 232.855 237.593 229.894L237.111 229.232Z" fill="#D9D9D9"/>
<path d="M240.171 265.615C250.184 279.372 265.155 285.536 273.61 279.382C282.065 273.229 280.802 257.088 270.79 243.33C260.777 229.573 245.806 223.409 237.351 229.562C228.896 235.716 230.159 251.857 240.171 265.615Z" fill="#1D0E40"/>
<path fill-rule="evenodd" clip-rule="evenodd" d="M253.33 229.358C247.353 226.897 241.661 226.932 237.592 229.893C233.522 232.855 231.74 238.26 232.244 244.705C232.747 251.142 235.533 258.546 240.502 265.374C245.471 272.201 251.66 277.128 257.63 279.587C263.608 282.048 269.299 282.013 273.369 279.052C277.438 276.09 279.221 270.685 278.717 264.24C278.213 257.803 275.428 250.399 270.459 243.571C265.49 236.744 259.301 231.817 253.33 229.358ZM253.642 228.601C259.774 231.126 266.077 236.16 271.121 243.09C276.164 250.019 279.016 257.565 279.533 264.176C280.05 270.779 278.236 276.522 273.851 279.713C269.465 282.905 263.443 282.865 257.319 280.344C251.187 277.819 244.883 272.785 239.84 265.855C234.797 258.926 231.945 251.38 231.427 244.769C230.911 238.166 232.725 232.423 237.11 229.232C241.496 226.04 247.517 226.08 253.642 228.601Z" fill="#D9D9D9"/>
<path fill-rule="evenodd" clip-rule="evenodd" d="M259.662 247.598C258.874 246.862 256.717 245.017 253.959 244.259C253.794 244.214 253.627 244.172 253.458 244.135L257.096 252.423C261.299 253.795 265.674 255.248 267.71 259.885C269.154 263.174 267.418 265.799 262.973 265.809L264.33 268.901L261.795 268.621L260.438 265.529C255.081 264.625 251.56 261.326 250.85 260.559L252.399 259.291C252.447 259.333 252.499 259.379 252.556 259.43C252.637 259.503 252.728 259.584 252.828 259.672C253.908 260.624 256.059 262.383 258.857 262.946C259.016 262.978 259.177 263.006 259.34 263.03L255.572 254.446C251.512 253.09 247.566 251.684 245.573 247.146C244.259 244.153 245.808 241.413 249.869 241.455L248.541 238.429L251.076 238.709L252.404 241.734C257.261 242.583 260.487 245.6 261.499 246.588C261.499 246.588 261.499 246.588 261.499 246.588L259.784 247.713C259.784 247.713 259.784 247.713 259.784 247.713C259.748 247.678 259.708 247.64 259.662 247.598ZM252.701 241.392L251.355 238.328L247.881 237.944L249.233 241.023C245.268 241.158 243.725 243.953 245.103 247.094C246.154 249.487 247.756 251.111 249.662 252.301C251.397 253.384 253.351 254.084 255.246 254.72L258.665 262.51C255.859 261.928 253.768 260.061 252.822 259.216C252.767 259.166 252.715 259.12 252.668 259.078L252.234 258.694L250.196 260.362L250.515 260.706C251.291 261.544 254.816 264.829 260.142 265.875L261.515 269.002L264.989 269.385L263.608 266.237C267.938 266.077 269.697 263.394 268.18 259.937C267.1 257.478 265.366 255.816 263.333 254.607C261.477 253.503 259.391 252.79 257.421 252.145L254.154 244.702C256.813 245.465 258.864 247.303 259.489 247.9L259.904 248.298L262.197 246.793L261.802 246.407C260.774 245.404 257.541 242.384 252.701 241.392ZM254.316 251.584L250.938 243.888C250.79 243.898 250.647 243.913 250.51 243.932C248.504 244.213 247.672 245.505 248.551 247.506C249.439 249.53 251.396 250.556 253.789 251.403C253.963 251.464 254.138 251.525 254.316 251.584ZM250.706 244.379C248.92 244.669 248.264 245.834 249.021 247.557C249.438 248.507 250.099 249.176 250.95 249.722C251.683 250.193 252.57 250.581 253.59 250.949L250.706 244.379ZM261.832 263.211C261.981 263.204 262.125 263.193 262.265 263.178C264.563 262.931 265.608 261.597 264.682 259.488C263.76 257.388 261.515 256.301 258.859 255.42C258.687 255.363 258.513 255.307 258.338 255.252L261.832 263.211ZM259.057 255.87L262.07 262.734C264.175 262.477 265.007 261.248 264.212 259.437C263.789 258.473 263.065 257.776 262.099 257.193C261.251 256.681 260.221 256.262 259.057 255.87Z" fill="white"/>
<g style="mix-blend-mode:lighten">
<path d="M380.544 94.4861V130.104L345.769 151.812L242.076 91.114V53.3883L275.798 33.9987L380.544 94.4861Z" fill="url(#paint1_linear_4518_7223)"/>
</g>
<defs>
<filter id="filter0_f_4518_7223" x="280.92" y="42.769" width="128.218" height="208.916" filterUnits="userSpaceOnUse" color-interpolation-filters="sRGB">
<feFlood flood-opacity="0" result="BackgroundImageFix"/>
<feBlend mode="normal" in="SourceGraphic" in2="BackgroundImageFix" result="shape"/>
<feGaussianBlur stdDeviation="4" result="effect1_foregroundBlur_4518_7223"/>
</filter>
<filter id="filter1_f_4518_7223" x="262.938" y="20.8824" width="128.218" height="208.916" filterUnits="userSpaceOnUse" color-interpolation-filters="sRGB">
<feFlood flood-opacity="0" result="BackgroundImageFix"/>
<feBlend mode="normal" in="SourceGraphic" in2="BackgroundImageFix" result="shape"/>
<feGaussianBlur stdDeviation="4" result="effect1_foregroundBlur_4518_7223"/>
</filter>
<filter id="filter2_f_4518_7223" x="246.79" y="65.647" width="128.218" height="208.916" filterUnits="userSpaceOnUse" color-interpolation-filters="sRGB">
<feFlood flood-opacity="0" result="BackgroundImageFix"/>
<feBlend mode="normal" in="SourceGraphic" in2="BackgroundImageFix" result="shape"/>
<feGaussianBlur stdDeviation="4" result="effect1_foregroundBlur_4518_7223"/>
</filter>
<filter id="filter3_f_4518_7223" x="229.891" y="77.4966" width="128.218" height="208.916" filterUnits="userSpaceOnUse" color-interpolation-filters="sRGB">
<feFlood flood-opacity="0" result="BackgroundImageFix"/>
<feBlend mode="normal" in="SourceGraphic" in2="BackgroundImageFix" result="shape"/>
<feGaussianBlur stdDeviation="4" result="effect1_foregroundBlur_4518_7223"/>
</filter>
<radialGradient id="paint0_radial_4518_7223" cx="0" cy="0" r="1" gradientUnits="userSpaceOnUse" gradientTransform="translate(175.541 134.812) rotate(90) scale(46.5294 34.7008)">
<stop stop-color="#871668" stop-opacity="0"/>
<stop offset="1" stop-color="#ED26B7"/>
</radialGradient>
<linearGradient id="paint1_linear_4518_7223" x1="353.989" y1="48.1194" x2="278.538" y2="100.177" gradientUnits="userSpaceOnUse">
<stop stop-color="#ED26B7"/>
<stop offset="1" stop-color="#ED26B7" stop-opacity="0"/>
</linearGradient>
</defs>
</svg>
