<svg width="574" height="320" viewBox="0 0 574 320" fill="none" xmlns="http://www.w3.org/2000/svg">
<rect x="0.40625" y="0.124023" width="572.651" height="319.309" fill="#1C0D3F"/>
<path d="M194.107 207.348V219.854L139.469 253.347L83.4391 221.875V209.293L139.874 240.41L194.107 207.348Z" fill="#1D0E40"/>
<path fill-rule="evenodd" clip-rule="evenodd" d="M193.835 207.833L139.881 240.725L83.7115 209.754V221.716L139.463 253.032L193.835 219.702V207.833ZM139.867 240.096L193.965 207.116L194.379 207.348V220.007L139.475 253.663L83.1668 222.035V209.293L83.5706 209.054L139.867 240.096Z" fill="#D9D9D9"/>
<path fill-rule="evenodd" clip-rule="evenodd" d="M83.0838 209.245L139.884 240.732L194.693 207.324L139.884 176.793L83.0838 209.245ZM86.0454 209.226L139.85 239.052L191.809 207.381L139.893 178.46L86.0454 209.226Z" fill="#D9D9D9"/>
<path opacity="0.2" d="M86.0435 209.225L139.897 178.46L191.811 207.377L139.857 239.05L86.0435 209.225Z" fill="white"/>
<path d="M139.874 240.536V253.209L194.215 219.826V207.255L139.874 240.536Z" fill="#1C0D3F"/>
<path fill-rule="evenodd" clip-rule="evenodd" d="M194.073 207.023L194.487 207.255V219.978L139.602 253.696V240.383L194.073 207.023ZM140.147 240.688V252.722L193.943 219.673V207.741L140.147 240.688Z" fill="#D9D9D9"/>
<path d="M148.927 243.11C149.256 241.88 148.706 240.665 147.698 240.396C146.691 240.128 145.608 240.907 145.28 242.137C144.951 243.367 145.502 244.582 146.509 244.85C147.516 245.119 148.599 244.34 148.927 243.11Z" fill="#D9D9D9"/>
<path fill-rule="evenodd" clip-rule="evenodd" d="M154.852 239.043C155.131 238 154.632 237.162 154.009 236.996C153.386 236.829 152.536 237.307 152.258 238.35C151.979 239.392 152.478 240.231 153.101 240.397C153.724 240.563 154.574 240.085 154.852 239.043ZM154.15 236.469C155.157 236.738 155.707 237.953 155.379 239.183C155.05 240.413 153.967 241.192 152.96 240.923C151.953 240.654 151.403 239.439 151.731 238.209C152.06 236.979 153.143 236.2 154.15 236.469Z" fill="#D9D9D9"/>
<path d="M194.107 181.821V194.327L139.469 227.82L83.4391 196.348V183.765L139.874 214.883L194.107 181.821Z" fill="#1D0E40"/>
<path fill-rule="evenodd" clip-rule="evenodd" d="M193.835 182.306L139.881 215.197L83.7115 184.226V196.188L139.463 227.504L193.835 194.174V182.306ZM139.867 214.568L193.965 181.588L194.379 181.821V194.479L139.475 228.135L83.1668 196.507V183.765L83.5706 183.526L139.867 214.568Z" fill="#D9D9D9"/>
<path fill-rule="evenodd" clip-rule="evenodd" d="M83.0838 183.717L139.884 215.205L194.693 181.797L139.884 151.265L83.0838 183.717ZM86.0454 183.698L139.85 213.525L191.809 181.853L139.893 152.933L86.0454 183.698Z" fill="#D9D9D9"/>
<path opacity="0.2" d="M86.0602 183.691L139.898 153.288L191.812 181.852L139.864 213.53L86.0602 183.691Z" fill="white"/>
<path d="M139.874 215.008V227.681L194.215 194.298V181.727L139.874 215.008Z" fill="#1C0D3F"/>
<path fill-rule="evenodd" clip-rule="evenodd" d="M194.073 181.495L194.487 181.727V194.45L139.602 228.168V214.855L194.073 181.495ZM140.147 215.16V227.194L193.943 194.145V182.213L140.147 215.16Z" fill="#D9D9D9"/>
<path d="M148.927 217.582C149.256 216.353 148.706 215.138 147.698 214.869C146.691 214.6 145.608 215.379 145.28 216.609C144.951 217.839 145.502 219.054 146.509 219.323C147.516 219.591 148.599 218.812 148.927 217.582Z" fill="#D9D9D9"/>
<path fill-rule="evenodd" clip-rule="evenodd" d="M154.833 213.811C155.111 212.768 154.613 211.93 153.99 211.764C153.367 211.597 152.517 212.076 152.238 213.118C151.96 214.161 152.458 214.999 153.081 215.165C153.704 215.332 154.554 214.853 154.833 213.811ZM154.13 211.238C155.137 211.506 155.688 212.721 155.359 213.951C155.031 215.181 153.948 215.96 152.941 215.692C151.934 215.423 151.383 214.208 151.712 212.978C152.04 211.748 153.123 210.969 154.13 211.238Z" fill="#D9D9D9"/>
<path d="M194.107 156.293V168.799L139.469 202.291L83.4391 170.82V158.237L139.874 189.354L194.107 156.293Z" fill="#1D0E40"/>
<path fill-rule="evenodd" clip-rule="evenodd" d="M193.835 156.778L139.881 189.669L83.7115 158.698V170.66L139.463 201.976L193.835 168.646V156.778ZM139.867 189.04L193.965 156.06L194.379 156.293V168.951L139.475 202.607L83.1668 170.979V158.237L83.5706 157.998L139.867 189.04Z" fill="#D9D9D9"/>
<path fill-rule="evenodd" clip-rule="evenodd" d="M83.0838 158.189L139.884 189.677L194.693 156.269L139.884 125.737L83.0838 158.189ZM86.0454 158.17L139.85 187.997L191.809 156.325L139.893 127.405L86.0454 158.17Z" fill="#D9D9D9"/>
<path opacity="0.2" d="M86.0503 158.164L139.898 127.76L191.808 156.326L139.854 187.997L86.0503 158.164Z" fill="white"/>
<path d="M139.874 189.48V202.153L194.215 168.77V156.199L139.874 189.48Z" fill="#1C0D3F"/>
<path fill-rule="evenodd" clip-rule="evenodd" d="M194.073 155.967L194.487 156.199V168.922L139.602 202.64V189.327L194.073 155.967ZM140.147 189.632V201.666L193.943 168.617V156.685L140.147 189.632Z" fill="#D9D9D9"/>
<path d="M148.927 192.054C149.256 190.825 148.706 189.61 147.698 189.341C146.691 189.072 145.608 189.851 145.28 191.081C144.951 192.311 145.502 193.526 146.509 193.795C147.516 194.063 148.599 193.284 148.927 192.054Z" fill="#D9D9D9"/>
<path fill-rule="evenodd" clip-rule="evenodd" d="M154.746 187.987C155.024 186.944 154.526 186.106 153.903 185.94C153.279 185.773 152.429 186.252 152.151 187.294C151.873 188.337 152.371 189.175 152.994 189.341C153.617 189.507 154.467 189.029 154.746 187.987ZM154.043 185.413C155.05 185.682 155.6 186.897 155.272 188.127C154.943 189.357 153.861 190.136 152.854 189.867C151.846 189.599 151.296 188.384 151.625 187.154C151.953 185.924 153.036 185.145 154.043 185.413Z" fill="#D9D9D9"/>
<path d="M194.107 130.765V143.271L139.469 176.764L83.4391 145.292V132.709L139.874 163.827L194.107 130.765Z" fill="#1D0E40"/>
<path fill-rule="evenodd" clip-rule="evenodd" d="M193.835 131.25L139.881 164.141L83.7115 133.17V145.132L139.463 176.448L193.835 143.118V131.25ZM139.867 163.512L193.965 130.532L194.379 130.765V143.423L139.475 177.079L83.1668 145.451V132.709L83.5706 132.47L139.867 163.512Z" fill="#D9D9D9"/>
<path fill-rule="evenodd" clip-rule="evenodd" d="M83.0838 132.661L139.884 164.149L194.693 130.741L139.884 100.209L83.0838 132.661ZM86.0454 132.642L139.85 162.469L191.809 130.797L139.893 101.877L86.0454 132.642Z" fill="#D9D9D9"/>
<path opacity="0.2" d="M86.0602 132.641L139.892 101.882L191.805 130.797L139.844 162.467L86.0602 132.641Z" fill="white"/>
<path d="M139.874 163.952V176.625L194.215 143.242V130.671L139.874 163.952Z" fill="#1C0D3F"/>
<path fill-rule="evenodd" clip-rule="evenodd" d="M194.073 130.439L194.487 130.671V143.394L139.602 177.112V163.8L194.073 130.439ZM140.147 164.105V176.138L193.943 143.09V131.158L140.147 164.105Z" fill="#D9D9D9"/>
<path d="M148.927 166.527C149.256 165.297 148.706 164.082 147.698 163.813C146.691 163.544 145.608 164.323 145.28 165.553C144.951 166.783 145.502 167.998 146.509 168.267C147.516 168.536 148.599 167.757 148.927 166.527Z" fill="#D9D9D9"/>
<path fill-rule="evenodd" clip-rule="evenodd" d="M152.466 161.763C152.208 162.731 152.657 163.592 153.335 163.773C154.012 163.954 154.831 163.431 155.09 162.463C155.349 161.494 154.899 160.634 154.221 160.453C153.544 160.272 152.725 160.794 152.466 161.763ZM153.194 164.299C152.132 164.016 151.631 162.778 151.94 161.622C152.249 160.466 153.3 159.643 154.362 159.926C155.424 160.21 155.925 161.448 155.616 162.603C155.307 163.759 154.256 164.583 153.194 164.299Z" fill="#D9D9D9"/>
<path d="M194.107 105.237V117.743L139.469 151.236L83.4391 119.764V107.181L139.874 138.299L194.107 105.237Z" fill="#1D0E40"/>
<path fill-rule="evenodd" clip-rule="evenodd" d="M193.835 105.722L139.881 138.614L83.7115 107.642V119.605L139.463 150.92L193.835 117.59V105.722ZM139.867 137.984L193.965 105.004L194.379 105.237V117.895L139.475 151.552L83.1668 119.923V107.181L83.5706 106.943L139.867 137.984Z" fill="#D9D9D9"/>
<path fill-rule="evenodd" clip-rule="evenodd" d="M83.0838 107.133L139.884 138.621L194.693 105.213L139.884 74.6811L83.0838 107.133ZM86.0454 107.114L139.85 136.941L191.809 105.269L139.893 76.3489L86.0454 107.114Z" fill="#D9D9D9"/>
<path opacity="0.2" d="M86.0698 107.12L139.905 76.3449L191.801 105.272L139.881 136.947L86.0698 107.12Z" fill="white"/>
<path d="M139.874 138.424V151.097L194.215 117.714V105.144L139.874 138.424Z" fill="#1C0D3F"/>
<path fill-rule="evenodd" clip-rule="evenodd" d="M194.073 104.911L194.487 105.144V117.866L139.602 151.584V138.272L194.073 104.911ZM140.147 138.577V150.61L193.943 117.562V105.63L140.147 138.577Z" fill="#D9D9D9"/>
<path d="M148.927 140.999C149.256 139.769 148.706 138.554 147.698 138.285C146.691 138.016 145.608 138.795 145.28 140.025C144.951 141.255 145.502 142.47 146.509 142.739C147.516 143.008 148.599 142.229 148.927 140.999Z" fill="#D9D9D9"/>
<path fill-rule="evenodd" clip-rule="evenodd" d="M154.737 137.28C155.015 136.238 154.517 135.399 153.894 135.233C153.271 135.067 152.42 135.545 152.142 136.587C151.864 137.63 152.362 138.468 152.985 138.634C153.608 138.801 154.458 138.323 154.737 137.28ZM154.034 134.707C155.041 134.976 155.592 136.191 155.263 137.421C154.935 138.651 153.852 139.43 152.845 139.161C151.837 138.892 151.287 137.677 151.616 136.447C151.944 135.217 153.027 134.438 154.034 134.707Z" fill="#D9D9D9"/>
<path d="M194.107 79.7093V92.2152L139.469 125.708L83.4391 94.2362V81.6534L139.874 112.771L194.107 79.7093Z" fill="#1D0E40"/>
<path fill-rule="evenodd" clip-rule="evenodd" d="M193.835 80.1942L139.881 113.086L83.7115 82.1145V94.0767L139.463 125.392L193.835 92.0626V80.1942ZM139.867 112.456L193.965 79.4766L194.379 79.7092V92.3676L139.475 126.024L83.1668 94.3955V81.6533L83.5706 81.4148L139.867 112.456Z" fill="#D9D9D9"/>
<path fill-rule="evenodd" clip-rule="evenodd" d="M83.0838 81.6056L139.884 113.093L194.693 79.6851L139.884 49.1533L83.0838 81.6056ZM86.0453 81.5865L139.85 111.413L191.809 79.7416L139.893 50.8211L86.0453 81.5865Z" fill="#D9D9D9"/>
<path opacity="0.2" d="M86.0439 81.5843L139.894 50.8218L191.809 79.7403L139.85 111.412L86.0439 81.5843Z" fill="white"/>
<path d="M139.874 112.896V125.57L194.215 92.1863V79.6158L139.874 112.896Z" fill="#1C0D3F"/>
<path fill-rule="evenodd" clip-rule="evenodd" d="M194.073 79.3835L194.487 79.6158V92.3386L139.602 126.057V112.744L194.073 79.3835ZM140.147 113.049V125.083L193.943 92.0339V80.102L140.147 113.049Z" fill="#D9D9D9"/>
<path d="M148.927 115.471C149.256 114.241 148.706 113.026 147.698 112.757C146.691 112.488 145.608 113.267 145.28 114.497C144.951 115.727 145.502 116.942 146.509 117.211C147.516 117.48 148.599 116.701 148.927 115.471Z" fill="#D9D9D9"/>
<path fill-rule="evenodd" clip-rule="evenodd" d="M154.737 111.752C155.015 110.71 154.517 109.872 153.894 109.705C153.271 109.539 152.42 110.017 152.142 111.06C151.864 112.102 152.362 112.94 152.985 113.107C153.608 113.273 154.458 112.795 154.737 111.752ZM154.034 109.179C155.041 109.448 155.592 110.663 155.263 111.893C154.935 113.123 153.852 113.902 152.845 113.633C151.837 113.364 151.287 112.149 151.616 110.919C151.944 109.689 153.027 108.91 154.034 109.179Z" fill="#D9D9D9"/>
<path d="M391.29 187.813V202.749L430.279 225.054L430.297 210.192L391.29 187.813Z" fill="#1C0D3F"/>
<path fill-rule="evenodd" clip-rule="evenodd" d="M390.932 187.196L430.655 209.985L430.636 225.671L390.932 202.957V187.196ZM391.648 188.431V202.542L429.922 224.438L429.939 210.399L391.648 188.431Z" fill="#F2F4F6"/>
<path d="M391.29 202.75L384.888 206.555L424.159 228.609L430.279 225.055L391.29 202.75Z" fill="#1C0D3F"/>
<path fill-rule="evenodd" clip-rule="evenodd" d="M391.107 202.442C391.218 202.377 391.355 202.375 391.467 202.439L430.456 224.745C430.567 224.808 430.636 224.926 430.636 225.054C430.636 225.182 430.569 225.3 430.458 225.364L424.339 228.918C424.229 228.982 424.094 228.983 423.984 228.921L384.713 206.867C384.601 206.804 384.532 206.687 384.53 206.559C384.529 206.432 384.595 206.313 384.705 206.247L391.107 202.442ZM391.293 203.164L385.603 206.546L424.156 228.197L429.562 225.057L391.293 203.164Z" fill="#F2F4F6"/>
<path d="M384.882 206.553V208.401L424.159 230.32V228.607L384.882 206.553Z" fill="#1C0D3F"/>
<path fill-rule="evenodd" clip-rule="evenodd" d="M384.701 206.245C384.81 206.18 384.946 206.179 385.057 206.241L424.334 228.296C424.447 228.359 424.517 228.478 424.517 228.607V230.32C424.517 230.447 424.449 230.564 424.34 230.628C424.231 230.693 424.096 230.694 423.985 230.632L384.707 208.713C384.594 208.65 384.524 208.531 384.524 208.401V206.553C384.524 206.426 384.591 206.309 384.701 206.245ZM385.239 207.164V208.191L423.801 229.711V228.817L385.239 207.164Z" fill="#F2F4F6"/>
<path d="M424.159 230.321L430.26 226.651L430.278 225.055L424.159 228.609V230.321Z" fill="#1C0D3F"/>
<path fill-rule="evenodd" clip-rule="evenodd" d="M430.459 224.746C430.57 224.811 430.638 224.93 430.636 225.059L430.618 226.655C430.616 226.779 430.551 226.893 430.444 226.957L424.344 230.628C424.233 230.694 424.096 230.696 423.983 230.632C423.871 230.569 423.802 230.45 423.802 230.321V228.609C423.802 228.481 423.87 228.363 423.98 228.299L430.099 224.746C430.21 224.681 430.348 224.681 430.459 224.746ZM424.517 228.815V229.689L429.905 226.447L429.914 225.68L424.517 228.815Z" fill="#F2F4F6"/>
<path d="M430.26 226.651L431.593 225.828V211.218L430.291 210.506L430.26 226.651Z" fill="#1C0D3F"/>
<path fill-rule="evenodd" clip-rule="evenodd" d="M430.109 210.198C430.218 210.134 430.352 210.132 430.463 210.192L431.764 210.904C431.879 210.967 431.95 211.087 431.95 211.218V225.828C431.95 225.952 431.886 226.067 431.78 226.132L430.448 226.955C430.338 227.023 430.199 227.026 430.086 226.963C429.972 226.899 429.902 226.78 429.902 226.65L429.933 210.505C429.934 210.379 430 210.262 430.109 210.198ZM430.647 211.109L430.619 226.009L431.235 225.628V211.43L430.647 211.109Z" fill="#F2F4F6"/>
<path d="M485.459 128.836L485.457 128.834L485.455 128.833C485.153 128.617 484.843 128.409 484.517 128.22L363.641 58.0194C362.31 57.2326 360.734 56.9675 359.219 57.2752C359.118 57.2871 359.018 57.2995 358.918 57.3143C356.788 57.5434 354.763 58.3531 353.062 59.6549C352.974 59.714 352.912 59.7566 352.912 59.7566C352.924 59.7521 352.937 59.75 352.949 59.7456C352.503 60.0907 352.082 60.4677 351.691 60.8737L355.163 59.3363C355.333 59.3306 355.502 59.332 355.671 59.3363C354.661 60.4875 354.107 61.969 354.115 63.5008V163.422C354.113 165.046 354.544 166.641 355.363 168.043C356.181 169.445 357.359 170.604 358.774 171.401L484.861 242.479L481.006 244.413C484.861 245.726 487.224 244.259 488.587 242.657C489.294 241.816 489.834 240.848 490.177 239.803L490.379 138.274C490.358 136.425 489.902 134.607 489.047 132.967C488.192 131.327 486.963 129.912 485.459 128.836Z" fill="#BFC9D1"/>
<path d="M481.006 244.412L354.501 173.082C353.087 172.285 351.91 171.126 351.091 169.723C350.272 168.321 349.841 166.726 349.843 165.103V65.2124C349.843 64.0972 350.137 63.0019 350.695 62.0366C351.254 61.0713 352.056 60.2702 353.023 59.7138C353.989 59.1575 355.085 58.8656 356.2 58.8676C357.316 58.8695 358.41 59.1652 359.375 59.7249L480.251 129.926C482.014 130.953 483.481 132.42 484.508 134.183C485.535 135.946 486.088 137.945 486.113 139.986L485.91 241.509C485.917 242.086 485.771 242.655 485.488 243.159C485.204 243.662 484.794 244.082 484.297 244.377C483.799 244.671 483.234 244.829 482.656 244.835C482.078 244.841 481.509 244.696 481.006 244.412Z" fill="#1C0D3F"/>
<path fill-rule="evenodd" clip-rule="evenodd" d="M356.2 59.2252C355.148 59.2233 354.113 59.4988 353.201 60.0237C352.289 60.5487 351.532 61.3047 351.005 62.2156C350.478 63.1265 350.201 64.1601 350.2 65.2123C350.2 65.2123 350.2 65.2124 350.2 65.2123V165.103C350.199 166.663 350.613 168.196 351.4 169.543C352.187 170.891 353.318 172.004 354.677 172.77L481.182 244.1C481.182 244.1 481.182 244.1 481.182 244.1C481.63 244.353 482.138 244.483 482.652 244.478C483.167 244.472 483.671 244.331 484.114 244.069C484.558 243.806 484.924 243.432 485.176 242.983C485.429 242.535 485.559 242.028 485.553 241.513L485.553 241.508L485.755 139.987C485.731 138.009 485.195 136.072 484.199 134.363C483.203 132.653 481.781 131.231 480.071 130.235L359.196 60.0342C359.196 60.0342 359.196 60.0343 359.196 60.0342C358.285 59.5061 357.252 59.227 356.2 59.2252ZM480.831 244.724L354.326 173.394C352.856 172.565 351.633 171.361 350.782 169.904C349.932 168.447 349.484 166.79 349.485 165.102C349.485 165.102 349.485 165.102 349.485 165.102V65.2123C349.485 64.0344 349.796 62.8772 350.386 61.8575C350.976 60.8378 351.824 59.9915 352.845 59.4039C353.866 58.8162 355.023 58.5078 356.201 58.5099C357.379 58.512 358.536 58.8244 359.555 59.4156L480.431 129.616L480.431 129.617C482.248 130.675 483.759 132.187 484.817 134.003C485.876 135.819 486.445 137.879 486.471 139.981L486.471 139.986L486.268 241.507C486.275 242.147 486.113 242.777 485.8 243.334C485.485 243.892 485.03 244.358 484.479 244.684C483.928 245.011 483.3 245.186 482.66 245.193C482.02 245.2 481.389 245.038 480.831 244.724Z" fill="#F2F4F6"/>
<path d="M403.478 195.005L477.705 237.062C478.008 237.233 478.35 237.321 478.697 237.318C479.044 237.316 479.384 237.222 479.684 237.047C479.984 236.872 480.233 236.622 480.406 236.321C480.579 236.02 480.67 235.679 480.67 235.331V139.204C480.67 138.584 480.508 137.974 480.2 137.436C479.892 136.898 479.449 136.449 478.915 136.135L404.338 92.3401C404.045 92.1696 403.712 92.0793 403.374 92.0783C403.035 92.0773 402.702 92.1655 402.408 92.3342C402.114 92.5029 401.87 92.746 401.7 93.039C401.53 93.3321 401.441 93.6647 401.44 94.0035L401.674 191.936C401.68 192.56 401.85 193.172 402.166 193.711C402.483 194.25 402.935 194.696 403.478 195.005Z" fill="#1C0D3F"/>
<path fill-rule="evenodd" clip-rule="evenodd" d="M402.23 92.024C402.578 91.8241 402.973 91.7194 403.375 91.7206C403.776 91.7219 404.171 91.8289 404.518 92.031L404.519 92.0317L479.096 135.826C479.684 136.172 480.172 136.666 480.511 137.258C480.85 137.851 481.028 138.521 481.028 139.204V235.331C481.027 235.741 480.92 236.144 480.716 236.499C480.512 236.854 480.218 237.149 479.865 237.356C479.511 237.562 479.109 237.673 478.7 237.676C478.29 237.679 477.887 237.575 477.53 237.374L403.302 195.316L403.301 195.315C402.704 194.975 402.207 194.485 401.858 193.892C401.51 193.3 401.323 192.626 401.316 191.939L401.316 191.936L401.083 94.0043L401.083 94.003C401.083 93.6015 401.19 93.2071 401.391 92.8596C401.593 92.5122 401.882 92.224 402.23 92.024ZM403.373 92.4359C403.097 92.4351 402.826 92.5069 402.586 92.6443C402.347 92.7817 402.148 92.9797 402.01 93.2184C401.872 93.4569 401.799 93.7276 401.798 94.0033C401.798 94.0035 401.798 94.0037 401.798 94.0038L402.031 191.932C402.031 191.933 402.031 191.933 402.031 191.933C402.037 192.495 402.19 193.045 402.475 193.53C402.76 194.014 403.167 194.416 403.655 194.694L477.881 236.751C478.129 236.891 478.409 236.963 478.694 236.961C478.979 236.958 479.258 236.882 479.504 236.738C479.75 236.595 479.954 236.389 480.096 236.142C480.238 235.896 480.312 235.616 480.313 235.331V139.204C480.313 138.646 480.167 138.098 479.89 137.614C479.613 137.129 479.214 136.726 478.733 136.443L404.158 92.6491C404.158 92.649 404.157 92.6489 404.157 92.6488C403.919 92.5102 403.648 92.4367 403.373 92.4359Z" fill="#1C0D3F"/>
<path fill-rule="evenodd" clip-rule="evenodd" d="M355.392 64.7082C355.743 64.5073 356.141 64.4028 356.545 64.4053C356.95 64.4079 357.346 64.5175 357.694 64.7229L357.696 64.7238L396.24 87.7337C396.241 87.734 396.241 87.7343 396.242 87.7345C396.831 88.0796 397.32 88.5723 397.661 89.1639C398.002 89.756 398.182 90.4267 398.185 91.11L398.185 91.1114L398.185 123.459V123.46C398.184 123.871 398.075 124.275 397.869 124.631C397.664 124.987 397.369 125.284 397.013 125.491C396.658 125.698 396.255 125.808 395.843 125.811C395.432 125.814 395.027 125.709 394.669 125.508C394.669 125.508 394.669 125.507 394.669 125.507L356.473 104.24L356.647 103.928L356.472 104.239C355.869 103.9 355.366 103.407 355.015 102.81C354.664 102.213 354.477 101.535 354.473 100.842C354.473 100.842 354.473 100.842 354.473 100.842L354.24 66.7029L354.24 66.7012C354.239 66.2969 354.345 65.8995 354.547 65.5494C354.75 65.1994 355.041 64.9091 355.392 64.7082ZM356.822 103.616C356.822 103.616 356.823 103.616 356.823 103.616L395.018 124.883L395.02 124.884C395.27 125.025 395.552 125.098 395.838 125.096C396.125 125.094 396.406 125.017 396.653 124.873C396.901 124.728 397.107 124.522 397.25 124.274C397.393 124.026 397.469 123.744 397.47 123.458L397.47 91.1128C397.47 91.1126 397.47 91.1123 397.47 91.1121C397.467 90.5534 397.32 90.005 397.041 89.5209C396.762 89.0366 396.361 88.6334 395.879 88.351L395.876 88.3495L357.331 65.339C357.331 65.3388 357.331 65.3387 357.33 65.3385C357.091 65.1975 356.819 65.1223 356.541 65.1206C356.263 65.1188 355.989 65.1907 355.748 65.3289C355.506 65.4671 355.306 65.6667 355.167 65.9075C355.027 66.148 354.954 66.421 354.955 66.6989C354.955 66.6992 354.955 66.6994 354.955 66.6997L355.188 100.838C355.191 101.404 355.344 101.959 355.631 102.447C355.918 102.935 356.329 103.338 356.822 103.616Z" fill="#F2F4F6"/>
<path fill-rule="evenodd" clip-rule="evenodd" d="M355.392 108.668C355.743 108.467 356.141 108.363 356.545 108.365C356.948 108.368 357.344 108.477 357.691 108.681L396.237 130.348L396.24 130.349C396.83 130.694 397.32 131.187 397.661 131.779C398.002 132.371 398.183 133.042 398.185 133.726L398.185 133.727V187.631L398.185 187.632C398.184 188.044 398.075 188.447 397.869 188.804C397.664 189.16 397.369 189.456 397.013 189.663C396.658 189.87 396.255 189.98 395.843 189.983C395.432 189.986 395.028 189.882 394.669 189.68C394.669 189.68 394.669 189.68 394.669 189.68L356.473 168.412L356.647 168.1L356.471 168.411C355.864 168.068 355.359 167.569 355.008 166.967C354.657 166.364 354.472 165.68 354.473 164.982C354.473 164.982 354.473 164.982 354.473 164.981L354.24 110.662L354.24 110.661C354.239 110.257 354.345 109.859 354.547 109.509C354.75 109.159 355.041 108.869 355.392 108.668ZM356.823 167.788C356.823 167.788 356.823 167.789 356.823 167.789L395.018 189.056L395.02 189.057C395.27 189.197 395.552 189.27 395.838 189.268C396.125 189.266 396.406 189.189 396.653 189.045C396.901 188.901 397.107 188.694 397.25 188.446C397.393 188.198 397.469 187.917 397.47 187.63V133.728C397.468 133.169 397.321 132.62 397.042 132.136C396.763 131.652 396.363 131.25 395.882 130.968L357.334 109.301L357.331 109.299C357.092 109.158 356.819 109.082 356.541 109.08C356.263 109.079 355.989 109.15 355.748 109.289C355.506 109.427 355.306 109.627 355.167 109.867C355.027 110.108 354.954 110.381 354.955 110.659C354.955 110.659 354.955 110.659 354.955 110.66L355.188 164.982C355.188 165.553 355.339 166.113 355.626 166.607C355.913 167.1 356.326 167.507 356.823 167.788Z" fill="#F2F4F6"/>
<path fill-rule="evenodd" clip-rule="evenodd" d="M359.896 74.4881C359.999 74.3194 360.219 74.2659 360.388 74.3686L370.208 80.347C370.377 80.4497 370.431 80.6697 370.328 80.8384C370.225 81.0071 370.005 81.0607 369.836 80.958L360.016 74.9795C359.847 74.8768 359.793 74.6568 359.896 74.4881Z" fill="#F2F4F6"/>
<path fill-rule="evenodd" clip-rule="evenodd" d="M359.893 80.6497C359.992 80.4791 360.211 80.4215 360.382 80.521L390.268 97.9592C390.438 98.0587 390.496 98.2777 390.397 98.4483C390.297 98.6189 390.078 98.6765 389.907 98.5769L360.021 81.1388C359.851 81.0393 359.793 80.8203 359.893 80.6497Z" fill="#F2F4F6"/>
<path fill-rule="evenodd" clip-rule="evenodd" d="M359.896 91.3857C359.999 91.217 360.219 91.1634 360.387 91.266L370.208 97.2383C370.377 97.3409 370.431 97.5609 370.328 97.7297C370.225 97.8984 370.005 97.952 369.837 97.8494L360.016 91.8771C359.847 91.7745 359.793 91.5545 359.896 91.3857Z" fill="#F2F4F6"/>
<path fill-rule="evenodd" clip-rule="evenodd" d="M359.893 97.5474C359.992 97.3768 360.211 97.3192 360.382 97.4187L390.268 114.857C390.438 114.956 390.496 115.175 390.397 115.346C390.297 115.517 390.078 115.574 389.907 115.475L360.021 98.0365C359.851 97.937 359.793 97.718 359.893 97.5474Z" fill="#F2F4F6"/>
<path fill-rule="evenodd" clip-rule="evenodd" d="M372.336 129.204C372.43 129.03 372.648 128.967 372.821 129.062L390.75 138.883C390.923 138.978 390.987 139.195 390.892 139.368C390.797 139.541 390.58 139.605 390.407 139.51L372.477 129.689C372.304 129.594 372.241 129.377 372.336 129.204Z" fill="#F2F4F6"/>
<path d="M367.886 132.616L359.348 127.902V118.695L367.886 123.403V132.616Z" fill="#F2F4F6"/>
<path fill-rule="evenodd" clip-rule="evenodd" d="M359.166 118.387C359.275 118.323 359.41 118.321 359.521 118.382L368.059 123.09C368.173 123.153 368.244 123.273 368.244 123.403V132.616C368.244 132.742 368.177 132.86 368.068 132.924C367.959 132.988 367.824 132.99 367.713 132.929L359.175 128.215C359.061 128.153 358.991 128.033 358.991 127.902V118.695C358.991 118.569 359.057 118.452 359.166 118.387ZM359.706 119.301V127.691L367.528 132.01V123.614L359.706 119.301Z" fill="#F2F4F6"/>
<path fill-rule="evenodd" clip-rule="evenodd" d="M372.335 146.955C372.43 146.781 372.648 146.718 372.821 146.813L390.75 156.627C390.923 156.722 390.987 156.939 390.892 157.113C390.797 157.286 390.58 157.349 390.407 157.255L372.477 147.44C372.304 147.345 372.241 147.128 372.335 146.955Z" fill="#F2F4F6"/>
<path d="M367.886 150.362L359.348 145.654V136.44L367.886 141.155V150.362Z" fill="#F2F4F6"/>
<path fill-rule="evenodd" clip-rule="evenodd" d="M359.167 136.132C359.275 136.068 359.41 136.066 359.521 136.127L368.059 140.841C368.173 140.904 368.244 141.024 368.244 141.154V150.362C368.244 150.488 368.177 150.605 368.068 150.67C367.959 150.734 367.824 150.736 367.713 150.675L359.176 145.967C359.061 145.904 358.991 145.784 358.991 145.654V136.44C358.991 136.314 359.058 136.197 359.167 136.132ZM359.706 137.046V145.443L367.528 149.756V141.366L359.706 137.046Z" fill="#F2F4F6"/>
<path fill-rule="evenodd" clip-rule="evenodd" d="M372.335 164.031C372.43 163.858 372.648 163.794 372.821 163.889L390.75 173.704C390.923 173.799 390.987 174.016 390.892 174.189C390.797 174.363 390.58 174.426 390.407 174.331L372.477 164.517C372.304 164.422 372.241 164.204 372.335 164.031Z" fill="#F2F4F6"/>
<path d="M367.886 167.444L359.348 162.73V153.517L367.886 158.231V167.444Z" fill="#F2F4F6"/>
<path fill-rule="evenodd" clip-rule="evenodd" d="M359.167 153.209C359.275 153.145 359.41 153.143 359.521 153.204L368.059 157.918C368.173 157.981 368.244 158.101 368.244 158.231V167.444C368.244 167.571 368.177 167.688 368.068 167.752C367.959 167.817 367.824 167.819 367.713 167.758L359.175 163.043C359.061 162.981 358.991 162.861 358.991 162.73V153.517C358.991 153.39 359.058 153.273 359.167 153.209ZM359.706 154.123V162.519L367.528 166.838V158.442L359.706 154.123Z" fill="#F2F4F6"/>
<path fill-rule="evenodd" clip-rule="evenodd" d="M407.416 105.837C407.516 105.667 407.735 105.61 407.905 105.71L473.318 144.232C473.489 144.333 473.545 144.552 473.445 144.722C473.345 144.892 473.126 144.949 472.955 144.849L407.543 106.327C407.372 106.226 407.316 106.007 407.416 105.837Z" fill="#BFC9D1"/>
<path fill-rule="evenodd" clip-rule="evenodd" d="M407.416 126.018C407.516 125.848 407.735 125.791 407.906 125.892L474.264 164.991C474.434 165.091 474.491 165.31 474.39 165.481C474.29 165.651 474.071 165.707 473.901 165.607L407.542 126.508C407.372 126.408 407.316 126.188 407.416 126.018Z" fill="#BFC9D1"/>
<path fill-rule="evenodd" clip-rule="evenodd" d="M407.416 147.631C407.516 147.46 407.735 147.404 407.905 147.504L474.399 186.615C474.569 186.715 474.626 186.934 474.526 187.105C474.425 187.275 474.206 187.332 474.036 187.232L407.543 148.12C407.372 148.02 407.316 147.801 407.416 147.631Z" fill="#BFC9D1"/>
<path fill-rule="evenodd" clip-rule="evenodd" d="M407.416 168.403C407.516 168.233 407.735 168.176 407.905 168.276L474.128 207.16C474.299 207.26 474.356 207.479 474.256 207.649C474.156 207.82 473.936 207.877 473.766 207.777L407.543 168.892C407.373 168.792 407.316 168.573 407.416 168.403Z" fill="#BFC9D1"/>
<path fill-rule="evenodd" clip-rule="evenodd" d="M407.906 188.972L473.994 228.108L473.63 228.723L407.542 189.587L407.906 188.972Z" fill="#BFC9D1"/>
<path d="M472.953 142.833C471.773 142.833 470.817 144.361 470.817 146.246C470.817 146.3 470.825 146.35 470.827 146.403L452.254 149.113C451.99 147.707 451.184 146.676 450.218 146.676C449.038 146.676 448.081 148.204 448.081 150.088C448.081 150.576 448.15 151.06 448.287 151.528L434.547 164.944C434.169 163.984 433.505 163.34 432.743 163.34C432.45 163.361 432.166 163.453 431.917 163.609C431.668 163.764 431.461 163.978 431.314 164.233L428.129 158.913C428.341 158.349 428.448 157.75 428.446 157.147C428.446 155.262 427.49 153.734 426.31 153.734C425.13 153.734 424.174 155.262 424.174 157.147C424.168 157.837 424.309 158.519 424.587 159.15L410.849 185.86C410.705 185.699 410.53 185.569 410.335 185.478C410.14 185.386 409.928 185.335 409.713 185.327C408.533 185.327 407.577 186.855 407.577 188.74C407.577 190.624 408.533 192.152 409.713 192.152C410.892 192.152 411.849 190.624 411.849 188.74C411.862 187.922 411.66 187.115 411.261 186.4L424.959 159.77C425.107 159.998 425.306 160.188 425.541 160.325C425.775 160.462 426.039 160.543 426.31 160.56C426.623 160.537 426.925 160.434 427.187 160.262C427.45 160.089 427.664 159.853 427.809 159.574L430.969 164.852C430.724 165.456 430.601 166.102 430.606 166.753C430.606 168.638 431.563 170.166 432.743 170.166C433.922 170.166 434.878 168.638 434.878 166.753C434.877 166.367 434.832 165.983 434.746 165.607L448.527 152.152C448.653 152.514 448.878 152.832 449.178 153.071C449.477 153.309 449.837 153.458 450.217 153.501C451.397 153.501 452.353 151.973 452.353 150.088C452.353 149.963 452.339 149.845 452.33 149.723L470.876 147.016C471.095 148.529 471.939 149.659 472.953 149.659C474.132 149.659 475.089 148.131 475.089 146.246C475.089 144.361 474.132 142.833 472.953 142.833Z" fill="#ED26B7"/>
<path fill-rule="evenodd" clip-rule="evenodd" d="M471.139 143.643C471.563 142.965 472.195 142.476 472.952 142.476C473.71 142.476 474.342 142.965 474.766 143.643C475.193 144.326 475.446 145.247 475.446 146.246C475.446 147.245 475.193 148.166 474.766 148.849C474.342 149.527 473.71 150.016 472.952 150.016C472.302 150.016 471.743 149.653 471.334 149.124C470.984 148.673 470.726 148.082 470.585 147.42L452.71 150.029C452.711 150.049 452.711 150.069 452.711 150.088C452.711 151.087 452.458 152.008 452.031 152.691C451.606 153.369 450.975 153.859 450.217 153.859H450.197L450.177 153.857C449.73 153.806 449.306 153.631 448.954 153.35C448.744 153.182 448.564 152.98 448.422 152.754L435.136 165.726C435.201 166.064 435.234 166.407 435.236 166.752L435.236 166.753C435.236 167.752 434.983 168.673 434.556 169.356C434.132 170.034 433.5 170.524 432.742 170.524C431.985 170.524 431.353 170.034 430.929 169.356C430.501 168.674 430.249 167.753 430.249 166.755C430.243 166.117 430.353 165.484 430.572 164.886L427.782 160.225C427.663 160.352 427.53 160.465 427.384 160.561C427.07 160.766 426.71 160.889 426.336 160.917L426.312 160.918L426.287 160.917C425.96 160.896 425.643 160.799 425.36 160.634C425.244 160.566 425.136 160.488 425.036 160.401L411.665 186.397C412.033 187.123 412.219 187.927 412.206 188.742C412.206 189.74 411.953 190.66 411.526 191.342C411.102 192.02 410.47 192.51 409.713 192.51C408.955 192.51 408.323 192.02 407.899 191.342C407.471 190.66 407.219 189.738 407.219 188.739C407.219 187.741 407.471 186.82 407.899 186.137C408.323 185.459 408.955 184.969 409.713 184.969H409.719L409.726 184.97C409.989 184.979 410.248 185.042 410.487 185.154C410.574 185.195 410.657 185.242 410.737 185.295L424.193 159.135C423.939 158.503 423.81 157.828 423.816 157.146C423.816 156.147 424.069 155.227 424.496 154.544C424.92 153.866 425.552 153.377 426.31 153.377C427.067 153.377 427.699 153.866 428.123 154.544C428.551 155.227 428.803 156.148 428.803 157.146C428.803 157.147 428.803 157.147 428.803 157.147H428.446L428.803 157.146C428.803 157.146 428.803 157.146 428.803 157.146C428.806 157.734 428.711 158.318 428.523 158.874L428.436 158.73L428.129 158.913L428.464 159.039C428.484 158.984 428.504 158.93 428.523 158.874L431.353 163.602C431.217 163.736 431.1 163.887 431.004 164.053L431.313 164.233L431.62 164.049L431.353 163.602C431.466 163.49 431.591 163.39 431.727 163.305C432.026 163.119 432.366 163.008 432.717 162.984L432.73 162.983H432.742C433.564 162.983 434.229 163.555 434.657 164.336L434.297 164.688L434.547 164.944L434.88 164.813C434.815 164.648 434.741 164.488 434.657 164.336L447.887 151.419C447.904 151.489 447.923 151.559 447.944 151.628L448.287 151.528L448.037 151.272L447.887 151.419C447.778 150.984 447.723 150.537 447.724 150.088H448.081L447.724 150.088C447.724 149.09 447.976 148.168 448.404 147.486C448.828 146.808 449.46 146.318 450.217 146.318C450.838 146.318 451.374 146.65 451.776 147.14C452.116 147.556 452.375 148.099 452.531 148.711L470.461 146.095C470.485 145.155 470.733 144.291 471.139 143.643ZM471.745 144.023C471.4 144.575 471.174 145.36 471.174 146.246C471.174 146.255 471.175 146.267 471.177 146.293L471.178 146.3C471.18 146.322 471.183 146.357 471.184 146.393L471.193 146.711L471.193 146.711L471.23 146.965C471.332 147.673 471.579 148.272 471.899 148.686C472.22 149.1 472.589 149.301 472.952 149.301C473.375 149.301 473.811 149.027 474.16 148.469C474.505 147.917 474.731 147.132 474.731 146.246C474.731 145.36 474.505 144.575 474.16 144.023C473.811 143.465 473.375 143.191 472.952 143.191C472.53 143.191 472.094 143.465 471.745 144.023ZM451.953 149.45L451.903 149.179C451.779 148.522 451.532 147.972 451.222 147.594C450.913 147.217 450.563 147.033 450.217 147.033C449.795 147.033 449.359 147.308 449.01 147.865C448.664 148.417 448.439 149.202 448.439 150.088V150.089C448.439 150.542 448.503 150.993 448.63 151.428L448.658 151.524L448.679 151.504L448.864 152.034C448.968 152.332 449.154 152.594 449.4 152.791C449.641 152.983 449.931 153.105 450.237 153.143C450.653 153.135 451.081 152.861 451.425 152.312C451.77 151.76 451.996 150.974 451.996 150.088C451.996 150.017 451.99 149.957 451.984 149.882C451.981 149.843 451.977 149.799 451.973 149.747L451.953 149.45ZM434.371 165.473L434.214 165.075C433.86 164.175 433.294 163.705 432.755 163.698C432.524 163.716 432.302 163.79 432.106 163.912C431.907 164.037 431.741 164.208 431.623 164.412L431.323 164.93L431.3 164.986C431.073 165.546 430.959 166.146 430.964 166.75L430.964 166.753C430.964 167.639 431.189 168.424 431.535 168.977C431.884 169.534 432.32 169.808 432.742 169.808C433.165 169.808 433.601 169.534 433.95 168.977C434.295 168.425 434.521 167.64 434.521 166.754C434.519 166.395 434.478 166.037 434.397 165.687L434.352 165.492L434.371 165.473ZM427.737 158.941L427.794 158.788C427.991 158.264 428.09 157.708 428.088 157.149L428.088 157.147C428.088 156.261 427.863 155.476 427.517 154.924C427.168 154.367 426.732 154.092 426.31 154.092C425.887 154.092 425.451 154.367 425.102 154.924C424.757 155.476 424.531 156.261 424.531 157.147V157.15H424.531C424.526 157.789 424.656 158.421 424.914 159.005L424.97 159.132L425.258 159.575C425.376 159.756 425.534 159.907 425.721 160.016C425.9 160.121 426.101 160.184 426.308 160.201C426.552 160.179 426.786 160.097 426.991 159.963C427.202 159.824 427.375 159.633 427.492 159.409L427.737 158.941ZM410.857 186.404L410.583 186.098C410.471 185.974 410.335 185.873 410.183 185.802C410.033 185.731 409.871 185.692 409.706 185.685C409.286 185.687 408.852 185.962 408.505 186.516C408.16 187.068 407.934 187.854 407.934 188.739C407.934 189.626 408.16 190.411 408.505 190.963C408.854 191.52 409.29 191.795 409.713 191.795C410.135 191.795 410.571 191.52 410.92 190.963C411.265 190.411 411.491 189.626 411.491 188.739V188.737L411.491 188.734C411.504 187.979 411.316 187.234 410.949 186.575L410.855 186.407L410.857 186.404Z" fill="#ED26B7"/>
<path d="M406.442 98.0873C406.442 99.143 405.871 99.6586 405.14 99.6586C404.41 99.6586 403.839 98.431 403.839 97.363C403.839 96.2949 404.41 95.8223 405.14 95.8223C405.871 95.8223 406.442 97.0254 406.442 98.0873Z" fill="#F2F4F6"/>
<path d="M406.442 192.2C406.442 193.256 405.871 193.772 405.14 193.772C404.41 193.772 403.839 192.544 403.839 191.476C403.839 190.408 404.41 189.935 405.14 189.935C405.871 189.935 406.442 191.138 406.442 192.2Z" fill="#F2F4F6"/>
<path d="M478.029 140.766C478.029 141.821 477.459 142.337 476.728 142.337C475.998 142.337 475.427 141.109 475.427 140.041C475.427 138.973 475.998 138.501 476.728 138.501C477.459 138.501 478.029 139.704 478.029 140.766Z" fill="#F2F4F6"/>
<path d="M478.029 232.254C478.029 233.31 477.459 233.825 476.728 233.825C475.998 233.825 475.427 232.598 475.427 231.53C475.427 230.462 475.998 229.989 476.728 229.989C477.459 229.989 478.029 231.192 478.029 232.254Z" fill="#F2F4F6"/>
<path fill-rule="evenodd" clip-rule="evenodd" d="M302.196 231.105C302.706 230.242 303.82 229.956 304.683 230.466L344.82 254.194C346.529 255.204 348.653 255.205 350.362 254.195L387.71 232.142C388.573 231.632 389.687 231.919 390.196 232.782C390.706 233.646 390.42 234.759 389.556 235.269L352.209 257.322C349.359 259.005 345.821 259.004 342.972 257.32L302.835 233.592C301.972 233.082 301.685 231.969 302.196 231.105Z" fill="url(#paint0_radial_4522_649)"/>
<circle cx="333.569" cy="249.418" r="1.37721" fill="#EC26B6"/>
<circle cx="341.766" cy="254.405" r="1.37721" fill="#F696DC"/>
<g filter="url(#filter0_f_4522_649)">
<circle cx="333.569" cy="249.418" r="1.57935" fill="#F352C7"/>
</g>
<g filter="url(#filter1_f_4522_649)">
<circle cx="341.766" cy="254.405" r="1.57935" fill="#F27CD2"/>
</g>
<circle cx="330.814" cy="247.839" r="1.37721" fill="#EC26B6" fill-opacity="0.6"/>
<circle cx="328.06" cy="246.215" r="1.37721" fill="#EC26B6" fill-opacity="0.3"/>
<circle cx="317.756" cy="240.24" r="1.37721" fill="#EC26B6" fill-opacity="0.3"/>
<circle cx="325.306" cy="244.578" r="1.37721" fill="#EC26B6" fill-opacity="0.15"/>
<circle cx="1.37721" cy="1.37721" r="1.37721" transform="matrix(1 0 0 -1 367.826 246.648)" fill="#EC26B6"/>
<g filter="url(#filter2_f_4522_649)">
<circle cx="1.57935" cy="1.57935" r="1.57935" transform="matrix(1 0 0 -1 367.623 246.85)" fill="#F352C7"/>
</g>
<circle cx="1.37721" cy="1.37721" r="1.37721" transform="matrix(1 0 0 -1 365.071 248.227)" fill="#EC26B6" fill-opacity="0.6"/>
<circle cx="1.37721" cy="1.37721" r="1.37721" transform="matrix(1 0 0 -1 378.056 240.428)" fill="#EC26B6" fill-opacity="0.6"/>
<circle cx="1.37721" cy="1.37721" r="1.37721" transform="matrix(1 0 0 -1 362.317 249.851)" fill="#EC26B6" fill-opacity="0.3"/>
<circle cx="1.37721" cy="1.37721" r="1.37721" transform="matrix(1 0 0 -1 375.302 242.148)" fill="#EC26B6" fill-opacity="0.3"/>
<circle cx="1.37721" cy="1.37721" r="1.37721" transform="matrix(1 0 0 -1 359.562 251.488)" fill="#EC26B6" fill-opacity="0.15"/>
<path fill-rule="evenodd" clip-rule="evenodd" d="M158.857 231.105C159.367 230.242 160.481 229.956 161.344 230.466L201.482 254.194C203.191 255.204 205.314 255.205 207.023 254.195L244.371 232.142C245.234 231.632 246.348 231.919 246.858 232.782C247.368 233.646 247.081 234.759 246.217 235.269L208.87 257.322C206.021 259.005 202.482 259.004 199.634 257.32L159.496 233.592C158.633 233.082 158.347 231.969 158.857 231.105Z" fill="url(#paint1_radial_4522_649)"/>
<circle cx="190.23" cy="249.418" r="1.37721" fill="#EC26B6"/>
<circle cx="198.428" cy="254.405" r="1.37721" fill="#F696DC"/>
<g filter="url(#filter3_f_4522_649)">
<circle cx="190.23" cy="249.418" r="1.57935" fill="#F352C7"/>
</g>
<g filter="url(#filter4_f_4522_649)">
<circle cx="198.428" cy="254.405" r="1.57935" fill="#F27CD2"/>
</g>
<circle cx="187.476" cy="247.839" r="1.37721" fill="#EC26B6" fill-opacity="0.6"/>
<circle cx="184.721" cy="246.215" r="1.37721" fill="#EC26B6" fill-opacity="0.3"/>
<circle cx="174.417" cy="240.24" r="1.37721" fill="#EC26B6" fill-opacity="0.3"/>
<circle cx="181.967" cy="244.578" r="1.37721" fill="#EC26B6" fill-opacity="0.15"/>
<circle cx="1.37721" cy="1.37721" r="1.37721" transform="matrix(1 0 0 -1 224.487 246.648)" fill="#EC26B6"/>
<g filter="url(#filter5_f_4522_649)">
<circle cx="1.57935" cy="1.57935" r="1.57935" transform="matrix(1 0 0 -1 224.285 246.85)" fill="#F352C7"/>
</g>
<circle cx="1.37721" cy="1.37721" r="1.37721" transform="matrix(1 0 0 -1 221.732 248.227)" fill="#EC26B6" fill-opacity="0.6"/>
<circle cx="1.37721" cy="1.37721" r="1.37721" transform="matrix(1 0 0 -1 234.717 240.428)" fill="#EC26B6" fill-opacity="0.6"/>
<circle cx="1.37721" cy="1.37721" r="1.37721" transform="matrix(1 0 0 -1 218.978 249.851)" fill="#EC26B6" fill-opacity="0.3"/>
<circle cx="1.37721" cy="1.37721" r="1.37721" transform="matrix(1 0 0 -1 231.963 242.148)" fill="#EC26B6" fill-opacity="0.3"/>
<circle cx="1.37721" cy="1.37721" r="1.37721" transform="matrix(1 0 0 -1 216.224 251.488)" fill="#EC26B6" fill-opacity="0.15"/>
<path d="M213.268 219.418L277.338 256.409L340.535 219.896L277.338 182.427L213.268 219.418Z" fill="white"/>
<path fill-rule="evenodd" clip-rule="evenodd" d="M277.338 255.666L214.554 219.418L277.338 183.169L339.219 219.94L277.338 255.666ZM213.268 219.418L277.338 182.427L340.505 219.94L277.338 256.409L213.268 219.418Z" fill="#D9D9D9"/>
<path d="M212.255 212.145L276.325 249.137L340.396 212.145L276.325 175.154L212.255 212.145Z" fill="#ED26B7"/>
<path fill-rule="evenodd" clip-rule="evenodd" d="M276.325 248.394L213.541 212.145L276.325 175.897L339.11 212.145L276.325 248.394ZM212.255 212.145L276.325 175.154L340.396 212.145L276.325 249.137L212.255 212.145Z" fill="#D9D9D9"/>
<path d="M212.742 218.633L212.923 212.404L276.423 249.052L340.18 212.241L340.144 219.907L276.764 256.5L212.742 218.633Z" fill="#1D0E40"/>
<path fill-rule="evenodd" clip-rule="evenodd" d="M212.128 219.08L276.429 257.265L340.3 220.389L340.543 219.892L340.608 212.209L339.87 211.849L276.423 248.48L212.907 211.766L212.128 212.219L212.128 219.08ZM213.053 213.016L276.422 249.624L339.791 213.038L339.805 219.532L276.43 256.121L213.053 218.471L213.053 213.016Z" fill="#D9D9D9"/>
<path fill-rule="evenodd" clip-rule="evenodd" d="M276.941 256.497L276.84 248.435L275.857 248.553L275.957 256.615L276.941 256.497Z" fill="#D9D9D9"/>
<path d="M228.302 212.688C229.352 212.082 229.352 211.099 228.302 210.493C227.253 209.887 225.551 209.887 224.502 210.493C223.452 211.099 223.452 212.082 224.502 212.688C225.551 213.293 227.253 213.293 228.302 212.688Z" fill="white"/>
<path fill-rule="evenodd" clip-rule="evenodd" d="M227.659 210.865C228.354 211.265 228.354 211.915 227.659 212.316C226.965 212.717 225.839 212.717 225.145 212.316C224.451 211.915 224.451 211.265 225.145 210.865C225.839 210.464 226.965 210.464 227.659 210.865ZM228.302 210.493C229.352 211.099 229.352 212.082 228.302 212.688C227.253 213.293 225.551 213.293 224.502 212.688C223.452 212.082 223.452 211.099 224.502 210.493C225.551 209.887 227.253 209.887 228.302 210.493Z" fill="#D9D9D9"/>
<path d="M278.382 183.775C279.432 183.169 279.432 182.186 278.382 181.58C277.333 180.974 275.631 180.974 274.581 181.58C273.532 182.186 273.532 183.169 274.581 183.775C275.631 184.381 277.333 184.381 278.382 183.775Z" fill="white"/>
<path fill-rule="evenodd" clip-rule="evenodd" d="M277.739 181.952C278.433 182.352 278.433 183.002 277.739 183.403C277.045 183.804 275.919 183.804 275.225 183.403C274.53 183.002 274.53 182.352 275.225 181.952C275.919 181.551 277.045 181.551 277.739 181.952ZM278.382 181.58C279.432 182.186 279.432 183.169 278.382 183.775C277.333 184.381 275.631 184.381 274.581 183.775C273.532 183.169 273.532 182.186 274.581 181.58C275.631 180.974 277.333 180.974 278.382 181.58Z" fill="#D9D9D9"/>
<path d="M278.229 241.977C279.279 241.371 279.279 240.389 278.229 239.783C277.18 239.177 275.478 239.177 274.429 239.783C273.379 240.389 273.379 241.371 274.429 241.977C275.478 242.583 277.18 242.583 278.229 241.977Z" fill="white"/>
<path fill-rule="evenodd" clip-rule="evenodd" d="M277.586 240.154C278.28 240.555 278.28 241.205 277.586 241.606C276.892 242.007 275.766 242.007 275.072 241.606C274.377 241.205 274.377 240.555 275.072 240.154C275.766 239.753 276.892 239.753 277.586 240.154ZM278.229 239.783C279.279 240.389 279.279 241.371 278.229 241.977C277.18 242.583 275.478 242.583 274.429 241.977C273.379 241.371 273.379 240.389 274.429 239.783C275.478 239.177 277.18 239.177 278.229 239.783Z" fill="#D9D9D9"/>
<path d="M328.308 213.064C329.358 212.458 329.358 211.475 328.308 210.87C327.259 210.264 325.557 210.264 324.508 210.87C323.458 211.475 323.458 212.458 324.508 213.064C325.557 213.67 327.259 213.67 328.308 213.064Z" fill="white"/>
<path fill-rule="evenodd" clip-rule="evenodd" d="M327.665 211.241C328.359 211.642 328.359 212.292 327.665 212.692C326.971 213.093 325.845 213.093 325.151 212.692C324.456 212.292 324.456 211.642 325.151 211.241C325.845 210.84 326.971 210.84 327.665 211.241ZM328.308 210.87C329.358 211.475 329.358 212.458 328.308 213.064C327.259 213.67 325.557 213.67 324.508 213.064C323.458 212.458 323.458 211.475 324.508 210.87C325.557 210.264 327.259 210.264 328.308 210.87Z" fill="#D9D9D9"/>
<path d="M239.812 202.024C237.444 203.391 237.444 205.608 239.812 206.975L284.514 232.783C286.882 234.15 290.721 234.15 293.089 232.783L296.513 230.807C298.881 229.439 298.881 227.223 296.513 225.855L251.812 200.047C249.444 198.68 245.604 198.68 243.236 200.047L239.812 202.024Z" fill="white"/>
<path fill-rule="evenodd" clip-rule="evenodd" d="M285.157 232.412L240.456 206.604C238.443 205.441 238.443 203.557 240.456 202.395L243.879 200.419C245.892 199.256 249.156 199.256 251.168 200.419L295.87 226.227C297.883 227.389 297.883 229.273 295.87 230.435L292.446 232.412C290.433 233.574 287.17 233.574 285.157 232.412ZM239.812 206.975C237.444 205.608 237.444 203.391 239.812 202.024L243.236 200.047C245.604 198.68 249.444 198.68 251.812 200.047L296.513 225.855C298.881 227.223 298.881 229.439 296.513 230.807L293.089 232.783C290.721 234.15 286.882 234.15 284.514 232.783L239.812 206.975Z" fill="#D9D9D9"/>
<path d="M243.522 202.892C241.865 203.849 241.865 205.401 243.522 206.358L244.74 207.061C246.398 208.018 249.085 208.018 250.743 207.061L251.961 206.358C253.619 205.401 253.619 203.849 251.961 202.892L250.743 202.189C249.085 201.232 246.398 201.232 244.74 202.189L243.522 202.892Z" fill="white"/>
<path fill-rule="evenodd" clip-rule="evenodd" d="M245.383 206.69L244.166 205.987C242.863 205.235 242.863 204.015 244.166 203.264L245.383 202.56C246.686 201.808 248.798 201.808 250.1 202.56L251.318 203.264C252.62 204.015 252.62 205.235 251.318 205.987L250.1 206.69C248.798 207.442 246.686 207.442 245.383 206.69ZM243.522 206.358C241.865 205.401 241.865 203.849 243.522 202.892L244.74 202.189C246.398 201.232 249.085 201.232 250.743 202.189L251.961 202.892C253.619 203.849 253.619 205.401 251.961 206.358L250.743 207.061C249.085 208.018 246.398 208.018 244.74 207.061L243.522 206.358Z" fill="#ED26B7"/>
<path fill-rule="evenodd" clip-rule="evenodd" d="M254.245 208.319C253.535 208.729 253.535 209.394 254.245 209.804L288.771 229.737C289.481 230.148 290.633 230.148 291.343 229.737C292.054 229.327 292.054 228.662 291.343 228.252L256.818 208.319C256.108 207.909 254.956 207.909 254.245 208.319Z" fill="#D9D9D9"/>
<path d="M257.512 191.805C255.144 193.172 255.144 195.389 257.512 196.756L302.214 222.564C304.582 223.931 308.421 223.931 310.789 222.564L314.213 220.587C316.581 219.22 316.581 217.004 314.213 215.636L269.512 189.828C267.144 188.461 263.304 188.461 260.936 189.828L257.512 191.805Z" fill="white"/>
<path fill-rule="evenodd" clip-rule="evenodd" d="M302.857 222.193L258.156 196.384C256.143 195.222 256.143 193.338 258.156 192.176L261.579 190.199C263.592 189.037 266.856 189.037 268.868 190.199L313.57 216.008C315.583 217.17 315.583 219.054 313.57 220.216L310.146 222.193C308.133 223.355 304.87 223.355 302.857 222.193ZM257.512 196.756C255.144 195.389 255.144 193.172 257.512 191.805L260.936 189.828C263.304 188.461 267.144 188.461 269.512 189.828L314.213 215.636C316.581 217.004 316.581 219.22 314.213 220.587L310.789 222.564C308.421 223.931 304.582 223.931 302.214 222.564L257.512 196.756Z" fill="#D9D9D9"/>
<path d="M261.223 192.673C259.565 193.63 259.565 195.182 261.223 196.139L262.441 196.842C264.098 197.799 266.786 197.799 268.444 196.842L269.661 196.139C271.319 195.182 271.319 193.63 269.661 192.673L268.444 191.97C266.786 191.013 264.098 191.013 262.441 191.97L261.223 192.673Z" fill="white"/>
<path fill-rule="evenodd" clip-rule="evenodd" d="M263.084 196.471L261.866 195.768C260.564 195.016 260.564 193.796 261.866 193.044L263.084 192.341C264.386 191.589 266.498 191.589 267.8 192.341L269.018 193.044C270.321 193.796 270.321 195.016 269.018 195.768L267.8 196.471C266.498 197.223 264.386 197.223 263.084 196.471ZM261.223 196.139C259.565 195.182 259.565 193.63 261.223 192.673L262.441 191.97C264.098 191.013 266.786 191.013 268.444 191.97L269.661 192.673C271.319 193.63 271.319 195.182 269.661 196.139L268.444 196.842C266.786 197.799 264.098 197.799 262.441 196.842L261.223 196.139Z" fill="#ED26B7"/>
<path fill-rule="evenodd" clip-rule="evenodd" d="M271.945 198.1C271.234 198.51 271.234 199.175 271.945 199.585L306.47 219.519C307.18 219.929 308.332 219.929 309.043 219.519C309.753 219.108 309.753 218.443 309.043 218.033L274.517 198.1C273.807 197.69 272.655 197.69 271.945 198.1Z" fill="#D9D9D9"/>
<g filter="url(#filter6_f_4522_649)">
<path d="M208.06 213.622L276.326 253.696L345.618 213.69L276.326 173.683L208.06 213.622Z" fill="#ED26B7" fill-opacity="0.5"/>
</g>
<path d="M213.266 208.393L277.337 245.384L340.532 208.877L277.337 171.402L213.266 208.393Z" fill="white"/>
<path fill-rule="evenodd" clip-rule="evenodd" d="M277.337 244.642L214.552 208.393L277.337 172.145L339.217 208.915L277.337 244.642ZM213.266 208.393L277.337 171.402L340.504 208.915L277.337 245.384L213.266 208.393Z" fill="#D9D9D9"/>
<path d="M212.254 201.121L276.325 238.112L340.395 201.121L276.325 164.13L212.254 201.121Z" fill="#ED26B7"/>
<path fill-rule="evenodd" clip-rule="evenodd" d="M276.325 237.369L213.54 201.121L276.325 164.872L339.109 201.121L276.325 237.369ZM212.254 201.121L276.325 164.13L340.395 201.121L276.325 238.112L212.254 201.121Z" fill="#D9D9D9"/>
<path d="M212.587 207.281L212.587 201.115L276.421 238.027L340.179 201.217L340.143 208.883L276.763 245.476L212.587 207.281Z" fill="#1D0E40"/>
<path fill-rule="evenodd" clip-rule="evenodd" d="M212.189 207.687L276.428 246.241L340.3 209.364L340.542 208.867L340.607 201.184L339.869 200.824L276.422 237.455L212.894 200.749L212.126 201.2L212.189 207.687ZM213.114 201.957L276.422 238.599L339.791 202.013L339.804 208.507L276.43 245.096L213.114 207.079L213.114 201.957Z" fill="#D9D9D9"/>
<path fill-rule="evenodd" clip-rule="evenodd" d="M276.94 245.473L276.839 237.411L275.856 237.529L275.956 245.591L276.94 245.473Z" fill="#D9D9D9"/>
<path d="M228.302 201.663C229.352 201.057 229.352 200.074 228.302 199.468C227.253 198.863 225.551 198.863 224.502 199.468C223.452 200.074 223.452 201.057 224.502 201.663C225.551 202.269 227.253 202.269 228.302 201.663Z" fill="white"/>
<path fill-rule="evenodd" clip-rule="evenodd" d="M227.659 199.84C228.354 200.241 228.354 200.891 227.659 201.291C226.965 201.692 225.839 201.692 225.145 201.291C224.451 200.891 224.451 200.241 225.145 199.84C225.839 199.439 226.965 199.439 227.659 199.84ZM228.302 199.468C229.352 200.074 229.352 201.057 228.302 201.663C227.253 202.269 225.551 202.269 224.502 201.663C223.452 201.057 223.452 200.074 224.502 199.468C225.551 198.863 227.253 198.863 228.302 199.468Z" fill="#D9D9D9"/>
<path d="M278.382 172.75C279.432 172.144 279.432 171.162 278.382 170.556C277.333 169.95 275.631 169.95 274.581 170.556C273.532 171.162 273.532 172.144 274.581 172.75C275.631 173.356 277.333 173.356 278.382 172.75Z" fill="white"/>
<path fill-rule="evenodd" clip-rule="evenodd" d="M277.739 170.927C278.433 171.328 278.433 171.978 277.739 172.379C277.045 172.779 275.919 172.779 275.225 172.379C274.53 171.978 274.53 171.328 275.225 170.927C275.919 170.526 277.045 170.526 277.739 170.927ZM278.382 170.556C279.432 171.162 279.432 172.144 278.382 172.75C277.333 173.356 275.631 173.356 274.581 172.75C273.532 172.144 273.532 171.162 274.581 170.556C275.631 169.95 277.333 169.95 278.382 170.556Z" fill="#D9D9D9"/>
<path d="M278.229 230.953C279.278 230.347 279.278 229.364 278.229 228.758C277.179 228.152 275.477 228.152 274.428 228.758C273.378 229.364 273.378 230.347 274.428 230.953C275.477 231.559 277.179 231.559 278.229 230.953Z" fill="white"/>
<path fill-rule="evenodd" clip-rule="evenodd" d="M277.585 229.13C278.28 229.531 278.28 230.18 277.585 230.581C276.891 230.982 275.765 230.982 275.071 230.581C274.377 230.18 274.377 229.531 275.071 229.13C275.765 228.729 276.891 228.729 277.585 229.13ZM278.229 228.758C279.278 229.364 279.278 230.347 278.229 230.953C277.179 231.559 275.477 231.559 274.428 230.953C273.378 230.347 273.378 229.364 274.428 228.758C275.477 228.152 277.179 228.152 278.229 228.758Z" fill="#D9D9D9"/>
<path d="M328.308 202.039C329.357 201.433 329.357 200.451 328.308 199.845C327.258 199.239 325.556 199.239 324.507 199.845C323.457 200.451 323.457 201.433 324.507 202.039C325.556 202.645 327.258 202.645 328.308 202.039Z" fill="white"/>
<path fill-rule="evenodd" clip-rule="evenodd" d="M327.664 200.216C328.359 200.617 328.359 201.267 327.664 201.668C326.97 202.069 325.844 202.069 325.15 201.668C324.456 201.267 324.456 200.617 325.15 200.216C325.844 199.815 326.97 199.815 327.664 200.216ZM328.308 199.845C329.357 200.451 329.357 201.433 328.308 202.039C327.258 202.645 325.556 202.645 324.507 202.039C323.457 201.433 323.457 200.451 324.507 199.845C325.556 199.239 327.258 199.239 328.308 199.845Z" fill="#D9D9D9"/>
<path d="M239.812 190.999C237.444 192.367 237.444 194.583 239.812 195.95L284.514 221.759C286.882 223.126 290.721 223.126 293.089 221.759L296.513 219.782C298.881 218.415 298.881 216.198 296.513 214.831L251.812 189.023C249.444 187.656 245.604 187.656 243.236 189.023L239.812 190.999Z" fill="white"/>
<path fill-rule="evenodd" clip-rule="evenodd" d="M285.157 221.387L240.456 195.579C238.443 194.417 238.443 192.533 240.456 191.371L243.879 189.394C245.892 188.232 249.156 188.232 251.168 189.394L295.87 215.202C297.883 216.364 297.883 218.249 295.87 219.411L292.446 221.387C290.433 222.55 287.17 222.55 285.157 221.387ZM239.812 195.95C237.444 194.583 237.444 192.367 239.812 190.999L243.236 189.023C245.604 187.656 249.444 187.656 251.812 189.023L296.513 214.831C298.881 216.198 298.881 218.415 296.513 219.782L293.089 221.759C290.721 223.126 286.882 223.126 284.514 221.759L239.812 195.95Z" fill="#D9D9D9"/>
<path d="M243.523 191.868C241.865 192.825 241.865 194.377 243.523 195.334L244.741 196.037C246.398 196.994 249.086 196.994 250.743 196.037L251.961 195.334C253.619 194.377 253.619 192.825 251.961 191.868L250.743 191.165C249.086 190.208 246.398 190.208 244.741 191.165L243.523 191.868Z" fill="white"/>
<path fill-rule="evenodd" clip-rule="evenodd" d="M245.384 195.666L244.166 194.963C242.864 194.211 242.864 192.991 244.166 192.239L245.384 191.536C246.686 190.784 248.798 190.784 250.1 191.536L251.318 192.239C252.621 192.991 252.621 194.211 251.318 194.963L250.1 195.666C248.798 196.418 246.686 196.418 245.384 195.666ZM243.523 195.334C241.865 194.377 241.865 192.825 243.523 191.868L244.741 191.165C246.398 190.208 249.086 190.208 250.743 191.165L251.961 191.868C253.619 192.825 253.619 194.377 251.961 195.334L250.743 196.037C249.086 196.994 246.398 196.994 244.741 196.037L243.523 195.334Z" fill="#ED26B7"/>
<path fill-rule="evenodd" clip-rule="evenodd" d="M254.245 197.294C253.535 197.705 253.535 198.37 254.245 198.78L288.771 218.713C289.481 219.123 290.633 219.123 291.343 218.713C292.054 218.303 292.054 217.638 291.343 217.228L256.818 197.294C256.108 196.884 254.956 196.884 254.245 197.294Z" fill="#D9D9D9"/>
<path d="M257.512 180.78C255.144 182.147 255.144 184.364 257.512 185.731L302.213 211.539C304.581 212.907 308.421 212.907 310.789 211.539L314.213 209.563C316.581 208.195 316.581 205.979 314.213 204.612L269.511 178.803C267.143 177.436 263.304 177.436 260.936 178.803L257.512 180.78Z" fill="white"/>
<path fill-rule="evenodd" clip-rule="evenodd" d="M302.856 211.168L258.155 185.36C256.142 184.198 256.142 182.313 258.155 181.151L261.579 179.175C263.592 178.013 266.855 178.013 268.868 179.175L313.569 204.983C315.582 206.145 315.582 208.029 313.569 209.191L310.146 211.168C308.133 212.33 304.869 212.33 302.856 211.168ZM257.512 185.731C255.144 184.364 255.144 182.147 257.512 180.78L260.936 178.803C263.304 177.436 267.143 177.436 269.511 178.803L314.213 204.612C316.581 205.979 316.581 208.195 314.213 209.563L310.789 211.539C308.421 212.907 304.581 212.907 302.213 211.539L257.512 185.731Z" fill="#D9D9D9"/>
<path d="M261.223 181.648C259.565 182.605 259.565 184.157 261.223 185.114L262.44 185.817C264.098 186.774 266.786 186.774 268.443 185.817L269.661 185.114C271.319 184.157 271.319 182.605 269.661 181.648L268.443 180.945C266.786 179.988 264.098 179.988 262.44 180.945L261.223 181.648Z" fill="white"/>
<path fill-rule="evenodd" clip-rule="evenodd" d="M263.083 185.446L261.866 184.743C260.563 183.991 260.563 182.772 261.866 182.02L263.083 181.317C264.386 180.565 266.498 180.565 267.8 181.317L269.018 182.02C270.32 182.772 270.32 183.991 269.018 184.743L267.8 185.446C266.498 186.198 264.386 186.198 263.083 185.446ZM261.223 185.114C259.565 184.157 259.565 182.605 261.223 181.648L262.44 180.945C264.098 179.988 266.786 179.988 268.443 180.945L269.661 181.648C271.319 182.605 271.319 184.157 269.661 185.114L268.443 185.817C266.786 186.774 264.098 186.774 262.44 185.817L261.223 185.114Z" fill="#ED26B7"/>
<path fill-rule="evenodd" clip-rule="evenodd" d="M271.944 187.075C271.234 187.485 271.234 188.15 271.944 188.56L306.47 208.494C307.18 208.904 308.332 208.904 309.042 208.494C309.753 208.083 309.753 207.418 309.042 207.008L274.517 187.075C273.807 186.665 272.655 186.665 271.944 187.075Z" fill="#D9D9D9"/>
<g filter="url(#filter7_f_4522_649)">
<path d="M208.059 200.771L276.324 240.845L345.617 200.839L276.324 160.833L208.059 200.771Z" fill="#ED26B7" fill-opacity="0.5"/>
</g>
<path d="M213.266 197.011L277.336 234.003L340.524 197.487L277.336 160.02L213.266 197.011Z" fill="white"/>
<path fill-rule="evenodd" clip-rule="evenodd" d="M277.336 233.26L214.552 197.011L277.336 160.763L339.217 197.533L277.336 233.26ZM213.266 197.011L277.336 160.02L340.503 197.533L277.336 234.003L213.266 197.011Z" fill="#D9D9D9"/>
<path d="M212.253 189.739L276.324 226.731L340.394 189.739L276.324 152.748L212.253 189.739Z" fill="#ED26B7"/>
<path fill-rule="evenodd" clip-rule="evenodd" d="M276.324 225.988L213.539 189.739L276.324 153.491L339.108 189.739L276.324 225.988ZM212.253 189.739L276.324 152.748L340.394 189.739L276.324 226.731L212.253 189.739Z" fill="#D9D9D9"/>
<path d="M212.587 196.28L212.587 189.734L276.421 226.646L340.179 189.835L340.143 197.501L276.762 234.094L212.587 196.28Z" fill="#1D0E40"/>
<path fill-rule="evenodd" clip-rule="evenodd" d="M212.122 196.821L276.428 234.859L340.299 197.983L340.542 197.486L340.607 189.803L339.869 189.443L276.421 226.074L212.889 189.366L212.122 189.822L212.122 196.821ZM213.047 190.538L276.421 227.217L339.79 190.631L339.804 197.125L276.429 233.715L213.047 196.212L213.047 190.538Z" fill="#D9D9D9"/>
<path fill-rule="evenodd" clip-rule="evenodd" d="M276.939 234.091L276.839 226.029L275.856 226.147L275.956 234.209L276.939 234.091Z" fill="#D9D9D9"/>
<path d="M228.302 190.282C229.351 189.676 229.351 188.693 228.302 188.087C227.252 187.481 225.551 187.481 224.501 188.087C223.452 188.693 223.452 189.676 224.501 190.282C225.551 190.888 227.252 190.888 228.302 190.282Z" fill="white"/>
<path fill-rule="evenodd" clip-rule="evenodd" d="M227.659 188.459C228.353 188.86 228.353 189.51 227.659 189.91C226.964 190.311 225.839 190.311 225.144 189.91C224.45 189.51 224.45 188.86 225.144 188.459C225.839 188.058 226.964 188.058 227.659 188.459ZM228.302 188.087C229.351 188.693 229.351 189.676 228.302 190.282C227.252 190.888 225.551 190.888 224.501 190.282C223.452 189.676 223.452 188.693 224.501 188.087C225.551 187.481 227.252 187.481 228.302 188.087Z" fill="#D9D9D9"/>
<path d="M278.381 161.369C279.43 160.763 279.43 159.78 278.381 159.174C277.331 158.568 275.63 158.568 274.58 159.174C273.531 159.78 273.531 160.763 274.58 161.369C275.63 161.975 277.331 161.975 278.381 161.369Z" fill="white"/>
<path fill-rule="evenodd" clip-rule="evenodd" d="M277.737 159.546C278.432 159.946 278.432 160.596 277.737 160.997C277.043 161.398 275.918 161.398 275.223 160.997C274.529 160.596 274.529 159.946 275.223 159.546C275.918 159.145 277.043 159.145 277.737 159.546ZM278.381 159.174C279.43 159.78 279.43 160.763 278.381 161.369C277.331 161.975 275.63 161.975 274.58 161.369C273.531 160.763 273.531 159.78 274.58 159.174C275.63 158.568 277.331 158.568 278.381 159.174Z" fill="#D9D9D9"/>
<path d="M278.228 219.571C279.277 218.965 279.277 217.983 278.228 217.377C277.178 216.771 275.477 216.771 274.427 217.377C273.378 217.983 273.378 218.965 274.427 219.571C275.477 220.177 277.178 220.177 278.228 219.571Z" fill="white"/>
<path fill-rule="evenodd" clip-rule="evenodd" d="M277.585 217.748C278.279 218.149 278.279 218.799 277.585 219.2C276.89 219.601 275.765 219.601 275.07 219.2C274.376 218.799 274.376 218.149 275.07 217.748C275.765 217.348 276.89 217.348 277.585 217.748ZM278.228 217.377C279.277 217.983 279.277 218.965 278.228 219.571C277.178 220.177 275.477 220.177 274.427 219.571C273.378 218.965 273.378 217.983 274.427 217.377C275.477 216.771 277.178 216.771 278.228 217.377Z" fill="#D9D9D9"/>
<path d="M328.308 190.658C329.357 190.052 329.357 189.069 328.308 188.464C327.258 187.858 325.556 187.858 324.507 188.464C323.457 189.069 323.457 190.052 324.507 190.658C325.556 191.264 327.258 191.264 328.308 190.658Z" fill="white"/>
<path fill-rule="evenodd" clip-rule="evenodd" d="M327.664 188.835C328.359 189.236 328.359 189.886 327.664 190.286C326.97 190.687 325.844 190.687 325.15 190.286C324.456 189.886 324.456 189.236 325.15 188.835C325.844 188.434 326.97 188.434 327.664 188.835ZM328.308 188.464C329.357 189.069 329.357 190.052 328.308 190.658C327.258 191.264 325.556 191.264 324.507 190.658C323.457 190.052 323.457 189.069 324.507 188.464C325.556 187.858 327.258 187.858 328.308 188.464Z" fill="#D9D9D9"/>
<path d="M239.811 179.618C237.443 180.985 237.443 183.202 239.811 184.569L284.513 210.377C286.881 211.744 290.72 211.744 293.088 210.377L296.512 208.401C298.88 207.033 298.88 204.817 296.512 203.449L251.811 177.641C249.442 176.274 245.603 176.274 243.235 177.641L239.811 179.618Z" fill="white"/>
<path fill-rule="evenodd" clip-rule="evenodd" d="M285.156 210.006L240.454 184.198C238.442 183.035 238.442 181.151 240.454 179.989L243.878 178.012C245.891 176.85 249.154 176.85 251.167 178.012L295.869 203.821C297.881 204.983 297.881 206.867 295.869 208.029L292.445 210.006C290.432 211.168 287.169 211.168 285.156 210.006ZM239.811 184.569C237.443 183.202 237.443 180.985 239.811 179.618L243.235 177.641C245.603 176.274 249.442 176.274 251.811 177.641L296.512 203.449C298.88 204.817 298.88 207.033 296.512 208.401L293.088 210.377C290.72 211.744 286.881 211.744 284.513 210.377L239.811 184.569Z" fill="#D9D9D9"/>
<path d="M243.522 180.486C241.864 181.443 241.864 182.995 243.522 183.952L244.74 184.655C246.397 185.612 249.085 185.612 250.742 184.655L251.96 183.952C253.618 182.995 253.618 181.443 251.96 180.486L250.742 179.783C249.085 178.826 246.397 178.826 244.74 179.783L243.522 180.486Z" fill="white"/>
<path fill-rule="evenodd" clip-rule="evenodd" d="M245.383 184.284L244.165 183.581C242.862 182.829 242.862 181.609 244.165 180.858L245.383 180.154C246.685 179.402 248.797 179.402 250.099 180.154L251.317 180.858C252.619 181.609 252.619 182.829 251.317 183.581L250.099 184.284C248.797 185.036 246.685 185.036 245.383 184.284ZM243.522 183.952C241.864 182.995 241.864 181.443 243.522 180.486L244.74 179.783C246.397 178.826 249.085 178.826 250.742 179.783L251.96 180.486C253.618 181.443 253.618 182.995 251.96 183.952L250.742 184.655C249.085 185.612 246.397 185.612 244.74 184.655L243.522 183.952Z" fill="#ED26B7"/>
<path fill-rule="evenodd" clip-rule="evenodd" d="M254.244 185.913C253.533 186.323 253.533 186.988 254.244 187.399L288.769 207.332C289.479 207.742 290.631 207.742 291.342 207.332C292.052 206.922 292.052 206.257 291.342 205.846L256.816 185.913C256.106 185.503 254.954 185.503 254.244 185.913Z" fill="#D9D9D9"/>
<path d="M257.512 169.399C255.144 170.766 255.144 172.982 257.512 174.35L302.213 200.158C304.581 201.525 308.421 201.525 310.789 200.158L314.212 198.181C316.581 196.814 316.581 194.597 314.212 193.23L269.511 167.422C267.143 166.055 263.304 166.055 260.936 167.422L257.512 169.399Z" fill="white"/>
<path fill-rule="evenodd" clip-rule="evenodd" d="M302.856 199.787L258.155 173.978C256.142 172.816 256.142 170.932 258.155 169.77L261.579 167.793C263.592 166.631 266.855 166.631 268.868 167.793L313.569 193.602C315.582 194.764 315.582 196.648 313.569 197.81L310.146 199.787C308.133 200.949 304.869 200.949 302.856 199.787ZM257.512 174.35C255.144 172.982 255.144 170.766 257.512 169.399L260.936 167.422C263.304 166.055 267.143 166.055 269.511 167.422L314.212 193.23C316.581 194.597 316.581 196.814 314.212 198.181L310.789 200.158C308.421 201.525 304.581 201.525 302.213 200.158L257.512 174.35Z" fill="#D9D9D9"/>
<path d="M261.222 170.267C259.565 171.224 259.565 172.776 261.222 173.733L262.44 174.436C264.098 175.393 266.785 175.393 268.443 174.436L269.661 173.733C271.319 172.776 271.319 171.224 269.661 170.267L268.443 169.564C266.785 168.607 264.098 168.607 262.44 169.564L261.222 170.267Z" fill="white"/>
<path fill-rule="evenodd" clip-rule="evenodd" d="M263.083 174.064L261.866 173.361C260.563 172.609 260.563 171.39 261.866 170.638L263.083 169.935C264.386 169.183 266.498 169.183 267.8 169.935L269.018 170.638C270.32 171.39 270.32 172.609 269.018 173.361L267.8 174.064C266.498 174.816 264.386 174.816 263.083 174.064ZM261.222 173.733C259.565 172.776 259.565 171.224 261.222 170.267L262.44 169.564C264.098 168.607 266.785 168.607 268.443 169.564L269.661 170.267C271.319 171.224 271.319 172.776 269.661 173.733L268.443 174.436C266.785 175.393 264.098 175.393 262.44 174.436L261.222 173.733Z" fill="#ED26B7"/>
<path fill-rule="evenodd" clip-rule="evenodd" d="M271.944 175.693C271.234 176.103 271.234 176.768 271.944 177.179L306.47 197.112C307.18 197.522 308.332 197.522 309.042 197.112C309.753 196.702 309.753 196.037 309.042 195.626L274.517 175.693C273.807 175.283 272.655 175.283 271.944 175.693Z" fill="#D9D9D9"/>
<path d="M213.267 185.987L277.337 222.978L340.522 186.474L277.337 148.996L213.267 185.987Z" fill="white"/>
<path fill-rule="evenodd" clip-rule="evenodd" d="M277.337 222.236L214.553 185.987L277.337 149.738L339.218 186.509L277.337 222.236ZM213.267 185.987L277.337 148.996L340.504 186.509L277.337 222.978L213.267 185.987Z" fill="#D9D9D9"/>
<path d="M213.204 178.652L276.325 215.706L340.396 178.715L276.325 141.724L213.204 178.652Z" fill="#ED26B7"/>
<path fill-rule="evenodd" clip-rule="evenodd" d="M276.325 214.963L213.533 178.707L276.325 142.466L339.11 178.715L276.325 214.963ZM212.246 178.707L276.325 141.724L340.396 178.715L276.325 215.706L212.246 178.707Z" fill="#D9D9D9"/>
<g filter="url(#filter8_f_4522_649)">
<path d="M208.06 189.668L276.325 229.742L345.618 189.736L276.325 149.73L208.06 189.668Z" fill="#ED26B7" fill-opacity="0.5"/>
</g>
<path d="M212.711 185.254L212.588 178.637L276.423 215.621L340.18 178.811L340.144 186.477L276.764 223.07L212.711 185.254Z" fill="#1D0E40"/>
<path fill-rule="evenodd" clip-rule="evenodd" d="M212.096 185.66L276.429 223.835L340.3 186.959L340.543 186.461L340.608 178.778L339.87 178.418L276.422 215.049L212.886 178.22L212.125 178.688L212.096 185.66ZM213.021 179.456L276.422 216.193L339.791 179.607L339.805 186.101L276.43 222.69L213.021 185.052L213.021 179.456Z" fill="#D9D9D9"/>
<path fill-rule="evenodd" clip-rule="evenodd" d="M276.94 223.066L276.84 215.005L275.857 215.122L275.957 223.184L276.94 223.066Z" fill="#D9D9D9"/>
<g filter="url(#filter9_f_4522_649)">
<path d="M208.06 178.235L276.325 218.309L345.618 178.303L276.325 138.297L208.06 178.235Z" fill="#ED26B7" fill-opacity="0.5"/>
</g>
<path d="M228.302 179.257C229.352 178.651 229.352 177.669 228.302 177.063C227.253 176.457 225.551 176.457 224.502 177.063C223.452 177.669 223.452 178.651 224.502 179.257C225.551 179.863 227.253 179.863 228.302 179.257Z" fill="white"/>
<path fill-rule="evenodd" clip-rule="evenodd" d="M227.659 177.434C228.354 177.835 228.354 178.485 227.659 178.886C226.965 179.286 225.839 179.286 225.145 178.886C224.451 178.485 224.451 177.835 225.145 177.434C225.839 177.033 226.965 177.033 227.659 177.434ZM228.302 177.063C229.352 177.669 229.352 178.651 228.302 179.257C227.253 179.863 225.551 179.863 224.502 179.257C223.452 178.651 223.452 177.669 224.502 177.063C225.551 176.457 227.253 176.457 228.302 177.063Z" fill="#D9D9D9"/>
<path d="M278.382 150.344C279.431 149.738 279.431 148.755 278.382 148.149C277.332 147.544 275.631 147.544 274.581 148.149C273.532 148.755 273.532 149.738 274.581 150.344C275.631 150.95 277.332 150.95 278.382 150.344Z" fill="white"/>
<path fill-rule="evenodd" clip-rule="evenodd" d="M277.739 148.521C278.433 148.922 278.433 149.572 277.739 149.972C277.044 150.373 275.919 150.373 275.224 149.972C274.53 149.572 274.53 148.922 275.224 148.521C275.919 148.12 277.044 148.12 277.739 148.521ZM278.382 148.149C279.431 148.755 279.431 149.738 278.382 150.344C277.332 150.95 275.631 150.95 274.581 150.344C273.532 149.738 273.532 148.755 274.581 148.149C275.631 147.544 277.332 147.544 278.382 148.149Z" fill="#D9D9D9"/>
<path d="M278.229 208.546C279.278 207.941 279.278 206.958 278.229 206.352C277.179 205.746 275.477 205.746 274.428 206.352C273.378 206.958 273.378 207.941 274.428 208.546C275.477 209.152 277.179 209.152 278.229 208.546Z" fill="white"/>
<path fill-rule="evenodd" clip-rule="evenodd" d="M277.585 206.724C278.28 207.124 278.28 207.774 277.585 208.175C276.891 208.576 275.765 208.576 275.071 208.175C274.377 207.774 274.377 207.124 275.071 206.724C275.765 206.323 276.891 206.323 277.585 206.724ZM278.229 206.352C279.278 206.958 279.278 207.941 278.229 208.546C277.179 209.152 275.477 209.152 274.428 208.546C273.378 207.941 273.378 206.958 274.428 206.352C275.477 205.746 277.179 205.746 278.229 206.352Z" fill="#D9D9D9"/>
<path d="M328.308 179.633C329.357 179.027 329.357 178.045 328.308 177.439C327.258 176.833 325.556 176.833 324.507 177.439C323.457 178.045 323.457 179.027 324.507 179.633C325.556 180.239 327.258 180.239 328.308 179.633Z" fill="white"/>
<path fill-rule="evenodd" clip-rule="evenodd" d="M327.664 177.81C328.359 178.211 328.359 178.861 327.664 179.262C326.97 179.663 325.844 179.663 325.15 179.262C324.456 178.861 324.456 178.211 325.15 177.81C325.844 177.41 326.97 177.41 327.664 177.81ZM328.308 177.439C329.357 178.045 329.357 179.027 328.308 179.633C327.258 180.239 325.556 180.239 324.507 179.633C323.457 179.027 323.457 178.045 324.507 177.439C325.556 176.833 327.258 176.833 328.308 177.439Z" fill="#D9D9D9"/>
<path d="M239.812 168.593C237.444 169.96 237.444 172.177 239.812 173.544L284.513 199.353C286.881 200.72 290.721 200.72 293.089 199.353L296.512 197.376C298.881 196.009 298.881 193.792 296.512 192.425L251.811 166.617C249.443 165.249 245.604 165.249 243.236 166.617L239.812 168.593Z" fill="white"/>
<path fill-rule="evenodd" clip-rule="evenodd" d="M285.156 198.981L240.455 173.173C238.442 172.011 238.442 170.127 240.455 168.965L243.879 166.988C245.892 165.826 249.155 165.826 251.168 166.988L295.869 192.796C297.882 193.958 297.882 195.842 295.869 197.005L292.446 198.981C290.433 200.143 287.169 200.143 285.156 198.981ZM239.812 173.544C237.444 172.177 237.444 169.96 239.812 168.593L243.236 166.617C245.604 165.249 249.443 165.249 251.811 166.617L296.512 192.425C298.881 193.792 298.881 196.009 296.512 197.376L293.089 199.353C290.721 200.72 286.881 200.72 284.513 199.353L239.812 173.544Z" fill="#D9D9D9"/>
<path d="M243.522 169.462C241.864 170.419 241.864 171.97 243.522 172.927L244.74 173.63C246.398 174.587 249.085 174.587 250.743 173.63L251.961 172.927C253.618 171.97 253.618 170.419 251.961 169.462L250.743 168.758C249.085 167.801 246.398 167.801 244.74 168.758L243.522 169.462Z" fill="white"/>
<path fill-rule="evenodd" clip-rule="evenodd" d="M245.383 173.259L244.165 172.556C242.863 171.804 242.863 170.585 244.165 169.833L245.383 169.13C246.686 168.378 248.797 168.378 250.1 169.13L251.317 169.833C252.62 170.585 252.62 171.804 251.317 172.556L250.1 173.259C248.797 174.011 246.686 174.011 245.383 173.259ZM243.522 172.927C241.864 171.97 241.864 170.419 243.522 169.462L244.74 168.758C246.398 167.801 249.085 167.801 250.743 168.758L251.961 169.462C253.618 170.419 253.618 171.97 251.961 172.927L250.743 173.63C249.085 174.587 246.398 174.587 244.74 173.63L243.522 172.927Z" fill="#ED26B7"/>
<path fill-rule="evenodd" clip-rule="evenodd" d="M254.244 174.888C253.534 175.298 253.534 175.963 254.244 176.374L288.77 196.307C289.48 196.717 290.632 196.717 291.342 196.307C292.053 195.897 292.053 195.232 291.342 194.821L256.817 174.888C256.107 174.478 254.955 174.478 254.244 174.888Z" fill="#D9D9D9"/>
<path d="M257.512 158.374C255.144 159.741 255.144 161.958 257.512 163.325L302.213 189.133C304.581 190.501 308.421 190.501 310.789 189.133L314.212 187.157C316.581 185.789 316.581 183.573 314.212 182.206L269.511 156.397C267.143 155.03 263.304 155.03 260.936 156.397L257.512 158.374Z" fill="white"/>
<path fill-rule="evenodd" clip-rule="evenodd" d="M302.856 188.762L258.155 162.954C256.142 161.792 256.142 159.907 258.155 158.745L261.579 156.769C263.592 155.607 266.855 155.607 268.868 156.769L313.569 182.577C315.582 183.739 315.582 185.623 313.569 186.785L310.146 188.762C308.133 189.924 304.869 189.924 302.856 188.762ZM257.512 163.325C255.144 161.958 255.144 159.741 257.512 158.374L260.936 156.397C263.304 155.03 267.143 155.03 269.511 156.397L314.212 182.206C316.581 183.573 316.581 185.789 314.212 187.157L310.789 189.133C308.421 190.501 304.581 190.501 302.213 189.133L257.512 163.325Z" fill="#D9D9D9"/>
<path d="M261.223 159.243C259.565 160.2 259.565 161.751 261.223 162.708L262.44 163.412C264.098 164.369 266.786 164.369 268.443 163.412L269.661 162.708C271.319 161.751 271.319 160.2 269.661 159.243L268.443 158.54C266.786 157.583 264.098 157.583 262.44 158.54L261.223 159.243Z" fill="white"/>
<path fill-rule="evenodd" clip-rule="evenodd" d="M263.083 163.04L261.866 162.337C260.563 161.585 260.563 160.366 261.866 159.614L263.083 158.911C264.386 158.159 266.498 158.159 267.8 158.911L269.018 159.614C270.32 160.366 270.32 161.585 269.018 162.337L267.8 163.04C266.498 163.792 264.386 163.792 263.083 163.04ZM261.223 162.708C259.565 161.751 259.565 160.2 261.223 159.243L262.44 158.54C264.098 157.583 266.786 157.583 268.443 158.54L269.661 159.243C271.319 160.2 271.319 161.751 269.661 162.708L268.443 163.412C266.786 164.369 264.098 164.369 262.44 163.412L261.223 162.708Z" fill="#ED26B7"/>
<path fill-rule="evenodd" clip-rule="evenodd" d="M271.944 164.669C271.234 165.08 271.234 165.745 271.944 166.155L306.47 186.088C307.18 186.498 308.332 186.498 309.042 186.088C309.753 185.678 309.753 185.013 309.042 184.603L274.517 164.669C273.807 164.259 272.655 164.259 271.944 164.669Z" fill="#D9D9D9"/>
<path d="M213.267 175.197L277.337 212.188L340.537 175.673L277.337 138.206L213.267 175.197Z" fill="white"/>
<path fill-rule="evenodd" clip-rule="evenodd" d="M277.337 211.446L214.553 175.197L277.337 138.948L339.218 175.719L277.337 211.446ZM213.267 175.197L277.337 138.206L340.504 175.719L277.337 212.188L213.267 175.197Z" fill="#D9D9D9"/>
<path d="M212.254 167.925L276.324 204.916L340.395 167.925L276.324 130.933L212.254 167.925Z" fill="#1D0E40"/>
<path fill-rule="evenodd" clip-rule="evenodd" d="M276.325 204.173L213.541 167.925L276.325 131.676L339.109 167.925L276.325 204.173ZM212.254 167.925L276.325 130.933L340.396 167.925L276.325 204.916L212.254 167.925Z" fill="#D9D9D9"/>
<path d="M212.855 174.292L212.855 168.287L276.421 204.831L340.179 168.021L340.143 175.687L276.762 212.28L212.855 174.292Z" fill="#1D0E40"/>
<path fill-rule="evenodd" clip-rule="evenodd" d="M212.119 174.421L276.428 213.045L340.3 176.169L340.542 175.671L340.607 167.988L339.869 167.628L276.422 204.259L212.9 167.549L212.119 168.007L212.119 174.421ZM213.044 168.843L276.422 205.403L339.791 168.817L339.805 175.311L276.43 211.9L213.044 173.813L213.044 168.843Z" fill="#D9D9D9"/>
<path fill-rule="evenodd" clip-rule="evenodd" d="M276.94 212.276L276.839 204.214L275.856 204.332L275.956 212.394L276.94 212.276Z" fill="#D9D9D9"/>
<path fill-rule="evenodd" clip-rule="evenodd" d="M227.659 167.295C228.353 167.696 228.353 168.345 227.659 168.746C226.964 169.147 225.839 169.147 225.144 168.746C224.45 168.345 224.45 167.696 225.144 167.295C225.839 166.894 226.964 166.894 227.659 167.295ZM228.302 166.923C229.351 167.529 229.351 168.512 228.302 169.118C227.252 169.724 225.551 169.724 224.501 169.118C223.452 168.512 223.452 167.529 224.501 166.923C225.551 166.317 227.252 166.317 228.302 166.923Z" fill="#D9D9D9"/>
<path fill-rule="evenodd" clip-rule="evenodd" d="M277.591 137.619C278.285 138.02 278.285 138.67 277.591 139.071C276.896 139.472 275.771 139.472 275.076 139.071C274.382 138.67 274.382 138.02 275.076 137.619C275.771 137.218 276.896 137.218 277.591 137.619ZM278.234 137.248C279.283 137.854 279.283 138.836 278.234 139.442C277.184 140.048 275.483 140.048 274.433 139.442C273.384 138.836 273.384 137.854 274.433 137.248C275.483 136.642 277.184 136.642 278.234 137.248Z" fill="#D9D9D9"/>
<path fill-rule="evenodd" clip-rule="evenodd" d="M277.585 195.934C278.28 196.335 278.28 196.985 277.585 197.385C276.891 197.786 275.765 197.786 275.071 197.385C274.377 196.985 274.377 196.335 275.071 195.934C275.765 195.533 276.891 195.533 277.585 195.934ZM278.229 195.563C279.278 196.168 279.278 197.151 278.229 197.757C277.179 198.363 275.477 198.363 274.428 197.757C273.378 197.151 273.378 196.168 274.428 195.563C275.477 194.957 277.179 194.957 278.229 195.563Z" fill="#D9D9D9"/>
<path fill-rule="evenodd" clip-rule="evenodd" d="M327.664 167.361C328.359 167.762 328.359 168.412 327.664 168.813C326.97 169.214 325.844 169.214 325.15 168.813C324.456 168.412 324.456 167.762 325.15 167.361C325.844 166.961 326.97 166.961 327.664 167.361ZM328.308 166.99C329.357 167.596 329.357 168.578 328.308 169.184C327.258 169.79 325.556 169.79 324.507 169.184C323.457 168.578 323.457 167.596 324.507 166.99C325.556 166.384 327.258 166.384 328.308 166.99Z" fill="#D9D9D9"/>
<path d="M239.812 157.803C237.444 159.17 237.444 161.387 239.812 162.754L284.513 188.563C286.881 189.93 290.72 189.93 293.088 188.563L296.512 186.586C298.88 185.219 298.88 183.002 296.512 181.635L251.811 155.827C249.443 154.459 245.603 154.459 243.235 155.827L239.812 157.803Z" fill="#1D0E40"/>
<path fill-rule="evenodd" clip-rule="evenodd" d="M285.156 188.191L240.455 162.383C238.442 161.221 238.442 159.337 240.455 158.174L243.878 156.198C245.891 155.036 249.155 155.036 251.168 156.198L295.869 182.006C297.882 183.168 297.882 185.052 295.869 186.215L292.445 188.191C290.432 189.353 287.169 189.353 285.156 188.191ZM239.812 162.754C237.444 161.387 237.444 159.17 239.812 157.803L243.235 155.827C245.603 154.459 249.443 154.459 251.811 155.827L296.512 181.635C298.88 183.002 298.88 185.219 296.512 186.586L293.088 188.563C290.72 189.93 286.881 189.93 284.513 188.563L239.812 162.754Z" fill="#D9D9D9"/>
<path d="M243.522 158.672C241.864 159.629 241.864 161.18 243.522 162.137L244.74 162.84C246.398 163.797 249.085 163.797 250.743 162.84L251.961 162.137C253.618 161.18 253.618 159.629 251.961 158.672L250.743 157.968C249.085 157.011 246.398 157.011 244.74 157.968L243.522 158.672Z" fill="#1D0E40"/>
<path fill-rule="evenodd" clip-rule="evenodd" d="M245.383 162.469L244.165 161.766C242.863 161.014 242.863 159.795 244.165 159.043L245.383 158.34C246.686 157.588 248.797 157.588 250.1 158.34L251.317 159.043C252.62 159.795 252.62 161.014 251.317 161.766L250.1 162.469C248.797 163.221 246.686 163.221 245.383 162.469ZM243.522 162.137C241.864 161.18 241.864 159.629 243.522 158.672L244.74 157.968C246.398 157.011 249.085 157.011 250.743 157.968L251.961 158.672C253.618 159.629 253.618 161.18 251.961 162.137L250.743 162.84C249.085 163.797 246.398 163.797 244.74 162.84L243.522 162.137Z" fill="#ED26B7"/>
<path fill-rule="evenodd" clip-rule="evenodd" d="M254.244 164.099C253.534 164.509 253.534 165.174 254.244 165.584L288.769 185.517C289.48 185.927 290.632 185.927 291.342 185.517C292.052 185.107 292.052 184.442 291.342 184.032L256.817 164.099C256.106 163.688 254.954 163.688 254.244 164.099Z" fill="#D9D9D9"/>
<path d="M257.512 147.584C255.144 148.951 255.144 151.168 257.512 152.535L302.213 178.344C304.581 179.711 308.421 179.711 310.789 178.344L314.212 176.367C316.581 175 316.581 172.783 314.212 171.416L269.511 145.608C267.143 144.24 263.304 144.24 260.936 145.608L257.512 147.584Z" fill="#1D0E40"/>
<path fill-rule="evenodd" clip-rule="evenodd" d="M302.856 177.972L258.155 152.164C256.142 151.002 256.142 149.118 258.155 147.956L261.579 145.979C263.592 144.817 266.855 144.817 268.868 145.979L313.569 171.787C315.582 172.949 315.582 174.834 313.569 175.996L310.146 177.972C308.133 179.134 304.869 179.134 302.856 177.972ZM257.512 152.535C255.144 151.168 255.144 148.951 257.512 147.584L260.936 145.608C263.304 144.24 267.143 144.24 269.511 145.608L314.212 171.416C316.581 172.783 316.581 175 314.212 176.367L310.789 178.344C308.421 179.711 304.581 179.711 302.213 178.344L257.512 152.535Z" fill="#D9D9D9"/>
<path d="M261.223 148.453C259.565 149.41 259.565 150.961 261.223 151.918L262.44 152.622C264.098 153.579 266.786 153.579 268.443 152.622L269.661 151.918C271.319 150.961 271.319 149.41 269.661 148.453L268.443 147.75C266.786 146.793 264.098 146.793 262.44 147.75L261.223 148.453Z" fill="#1D0E40"/>
<path fill-rule="evenodd" clip-rule="evenodd" d="M263.083 152.25L261.866 151.547C260.563 150.795 260.563 149.576 261.866 148.824L263.083 148.121C264.386 147.369 266.498 147.369 267.8 148.121L269.018 148.824C270.32 149.576 270.32 150.795 269.018 151.547L267.8 152.25C266.498 153.002 264.386 153.002 263.083 152.25ZM261.223 151.918C259.565 150.961 259.565 149.41 261.223 148.453L262.44 147.75C264.098 146.793 266.786 146.793 268.443 147.75L269.661 148.453C271.319 149.41 271.319 150.961 269.661 151.918L268.443 152.622C266.786 153.579 264.098 153.579 262.44 152.622L261.223 151.918Z" fill="#ED26B7"/>
<path fill-rule="evenodd" clip-rule="evenodd" d="M271.945 153.879C271.235 154.289 271.235 154.954 271.945 155.365L306.47 175.298C307.181 175.708 308.333 175.708 309.043 175.298C309.753 174.888 309.753 174.223 309.043 173.813L274.518 153.879C273.807 153.469 272.655 153.469 271.945 153.879Z" fill="#D9D9D9"/>
<path d="M307.373 171.928L303.368 174.236L300.145 172.256L304.159 170.135L307.373 171.928Z" fill="#1D0E40"/>
<path d="M290.18 182.216L286.174 184.524L282.951 182.544L286.965 180.423L290.18 182.216Z" fill="#1D0E40"/>
<path d="M302.511 169.462L298.506 171.77L295.283 169.79L299.297 167.669L302.511 169.462Z" fill="#1D0E40"/>
<path d="M285.317 179.75L281.312 182.058L278.089 180.078L282.103 177.957L285.317 179.75Z" fill="#1D0E40"/>
<path d="M427.228 263.391C414.818 269.948 396.023 269.395 385.317 262.166C383.343 261.033 381.663 259.451 380.412 257.548C379.161 255.646 378.375 253.476 378.116 251.213V231.446C378.281 233.26 378.816 235.02 379.687 236.619C380.558 238.217 381.747 239.62 383.181 240.742C383.868 241.343 384.59 241.904 385.341 242.423C396.095 249.628 414.842 250.205 427.252 243.672C429.128 242.706 430.877 241.512 432.461 240.117C435.163 237.927 436.938 234.795 437.429 231.35V249.316C437.766 254.456 434.285 259.692 427.228 263.391Z" fill="#1D0E40"/>
<path fill-rule="evenodd" clip-rule="evenodd" d="M432.637 240.325C431.038 241.733 429.272 242.938 427.378 243.913C421.123 247.205 413.286 248.701 405.667 248.471C398.05 248.242 390.62 246.288 385.19 242.649L385.187 242.647C384.428 242.124 383.701 241.558 383.007 240.951C381.547 239.808 380.335 238.378 379.448 236.749C379.01 235.946 378.656 235.103 378.389 234.233V251.198C378.644 253.412 379.415 255.536 380.64 257.399C381.867 259.266 383.516 260.818 385.453 261.93L385.462 261.934L385.47 261.94C390.768 265.518 398.089 267.455 405.642 267.676C413.193 267.897 420.945 266.402 427.101 263.15L427.101 263.149C434.107 259.478 437.484 254.325 437.158 249.334L437.157 249.325V233.733C436.325 236.305 434.762 238.601 432.637 240.325ZM432.289 239.905C434.938 237.759 436.678 234.689 437.16 231.312L437.702 231.35V249.307C438.043 254.593 434.459 259.908 427.354 263.632C421.1 266.936 413.251 268.444 405.626 268.22C398.006 267.997 390.58 266.045 385.173 262.397C383.166 261.243 381.457 259.633 380.185 257.698C378.91 255.76 378.109 253.549 377.846 251.244L377.844 251.229V231.446L378.388 231.422C378.549 233.198 379.073 234.922 379.926 236.488C380.779 238.054 381.944 239.429 383.349 240.527L383.355 240.532L383.36 240.537C384.039 241.131 384.752 241.685 385.495 242.198C390.817 245.764 398.138 247.7 405.684 247.927C413.229 248.154 420.97 246.671 427.125 243.431L427.127 243.43C428.983 242.474 430.714 241.293 432.281 239.913L432.285 239.909L432.289 239.905Z" fill="#F2F4F6"/>
<path d="M407.688 248.547C424.087 248.547 437.381 240.934 437.381 231.542C437.381 222.151 424.087 214.537 407.688 214.537C391.289 214.537 377.995 222.151 377.995 231.542C377.995 240.934 391.289 248.547 407.688 248.547Z" fill="#1D0E40"/>
<path fill-rule="evenodd" clip-rule="evenodd" d="M386.873 219.833C381.553 222.879 378.359 227.033 378.359 231.542C378.359 236.052 381.553 240.205 386.873 243.252C392.182 246.292 399.54 248.184 407.688 248.184C415.836 248.184 423.194 246.292 428.503 243.252C433.823 240.205 437.017 236.052 437.017 231.542C437.017 227.033 433.823 222.879 428.503 219.833C423.194 216.793 415.836 214.901 407.688 214.901C399.54 214.901 392.182 216.793 386.873 219.833ZM386.512 219.203C391.949 216.089 399.437 214.174 407.688 214.174C415.939 214.174 423.427 216.089 428.864 219.203C434.292 222.311 437.744 226.66 437.744 231.542C437.744 236.424 434.292 240.773 428.864 243.882C423.427 246.996 415.939 248.91 407.688 248.91C399.437 248.91 391.949 246.996 386.512 243.882C381.084 240.773 377.632 236.424 377.632 231.542C377.632 226.66 381.084 222.311 386.512 219.203Z" fill="#F2F4F6"/>
<path d="M418.682 234.593L432.196 240.741V259.686C432.196 259.686 424.346 267.26 408.697 267.667C408.457 262.551 407.929 248.547 407.929 248.547L404.472 238.075C406.953 238.478 409.49 238.377 411.931 237.778C414.372 237.18 416.668 236.097 418.682 234.593Z" fill="#ED26B7"/>
<path d="M407.689 238.411C415.245 238.411 421.371 235.336 421.371 231.542C421.371 227.748 415.245 224.673 407.689 224.673C400.132 224.673 394.007 227.748 394.007 231.542C394.007 235.336 400.132 238.411 407.689 238.411Z" fill="#1C0D3F"/>
<path fill-rule="evenodd" clip-rule="evenodd" d="M417.038 235.75C419.435 234.546 420.645 233.017 420.645 231.542C420.645 230.067 419.435 228.538 417.038 227.334C414.683 226.151 411.378 225.399 407.689 225.399C403.999 225.399 400.695 226.151 398.34 227.334C395.942 228.538 394.733 230.067 394.733 231.542C394.733 233.017 395.942 234.546 398.34 235.75C400.695 236.933 403.999 237.685 407.689 237.685C411.378 237.685 414.683 236.933 417.038 235.75ZM421.371 231.542C421.371 235.336 415.245 238.411 407.689 238.411C400.132 238.411 394.007 235.336 394.007 231.542C394.007 227.748 400.132 224.673 407.689 224.673C415.245 224.673 421.371 227.748 421.371 231.542Z" fill="#D9D9D9"/>
<defs>
<filter id="filter0_f_4522_649" x="327.989" y="243.839" width="11.1587" height="11.1587" filterUnits="userSpaceOnUse" color-interpolation-filters="sRGB">
<feFlood flood-opacity="0" result="BackgroundImageFix"/>
<feBlend mode="normal" in="SourceGraphic" in2="BackgroundImageFix" result="shape"/>
<feGaussianBlur stdDeviation="2" result="effect1_foregroundBlur_4522_649"/>
</filter>
<filter id="filter1_f_4522_649" x="336.187" y="248.826" width="11.1587" height="11.1587" filterUnits="userSpaceOnUse" color-interpolation-filters="sRGB">
<feFlood flood-opacity="0" result="BackgroundImageFix"/>
<feBlend mode="normal" in="SourceGraphic" in2="BackgroundImageFix" result="shape"/>
<feGaussianBlur stdDeviation="2" result="effect1_foregroundBlur_4522_649"/>
</filter>
<filter id="filter2_f_4522_649" x="363.623" y="239.691" width="11.1587" height="11.1587" filterUnits="userSpaceOnUse" color-interpolation-filters="sRGB">
<feFlood flood-opacity="0" result="BackgroundImageFix"/>
<feBlend mode="normal" in="SourceGraphic" in2="BackgroundImageFix" result="shape"/>
<feGaussianBlur stdDeviation="2" result="effect1_foregroundBlur_4522_649"/>
</filter>
<filter id="filter3_f_4522_649" x="184.651" y="243.839" width="11.1587" height="11.1587" filterUnits="userSpaceOnUse" color-interpolation-filters="sRGB">
<feFlood flood-opacity="0" result="BackgroundImageFix"/>
<feBlend mode="normal" in="SourceGraphic" in2="BackgroundImageFix" result="shape"/>
<feGaussianBlur stdDeviation="2" result="effect1_foregroundBlur_4522_649"/>
</filter>
<filter id="filter4_f_4522_649" x="192.848" y="248.826" width="11.1587" height="11.1587" filterUnits="userSpaceOnUse" color-interpolation-filters="sRGB">
<feFlood flood-opacity="0" result="BackgroundImageFix"/>
<feBlend mode="normal" in="SourceGraphic" in2="BackgroundImageFix" result="shape"/>
<feGaussianBlur stdDeviation="2" result="effect1_foregroundBlur_4522_649"/>
</filter>
<filter id="filter5_f_4522_649" x="220.285" y="239.691" width="11.1587" height="11.1587" filterUnits="userSpaceOnUse" color-interpolation-filters="sRGB">
<feFlood flood-opacity="0" result="BackgroundImageFix"/>
<feBlend mode="normal" in="SourceGraphic" in2="BackgroundImageFix" result="shape"/>
<feGaussianBlur stdDeviation="2" result="effect1_foregroundBlur_4522_649"/>
</filter>
<filter id="filter6_f_4522_649" x="203.06" y="168.683" width="147.558" height="90.0123" filterUnits="userSpaceOnUse" color-interpolation-filters="sRGB">
<feFlood flood-opacity="0" result="BackgroundImageFix"/>
<feBlend mode="normal" in="SourceGraphic" in2="BackgroundImageFix" result="shape"/>
<feGaussianBlur stdDeviation="2.5" result="effect1_foregroundBlur_4522_649"/>
</filter>
<filter id="filter7_f_4522_649" x="203.059" y="155.833" width="147.558" height="90.0123" filterUnits="userSpaceOnUse" color-interpolation-filters="sRGB">
<feFlood flood-opacity="0" result="BackgroundImageFix"/>
<feBlend mode="normal" in="SourceGraphic" in2="BackgroundImageFix" result="shape"/>
<feGaussianBlur stdDeviation="2.5" result="effect1_foregroundBlur_4522_649"/>
</filter>
<filter id="filter8_f_4522_649" x="203.06" y="144.73" width="147.558" height="90.0123" filterUnits="userSpaceOnUse" color-interpolation-filters="sRGB">
<feFlood flood-opacity="0" result="BackgroundImageFix"/>
<feBlend mode="normal" in="SourceGraphic" in2="BackgroundImageFix" result="shape"/>
<feGaussianBlur stdDeviation="2.5" result="effect1_foregroundBlur_4522_649"/>
</filter>
<filter id="filter9_f_4522_649" x="203.06" y="133.297" width="147.558" height="90.0123" filterUnits="userSpaceOnUse" color-interpolation-filters="sRGB">
<feFlood flood-opacity="0" result="BackgroundImageFix"/>
<feBlend mode="normal" in="SourceGraphic" in2="BackgroundImageFix" result="shape"/>
<feGaussianBlur stdDeviation="2.5" result="effect1_foregroundBlur_4522_649"/>
</filter>
<radialGradient id="paint0_radial_4522_649" cx="0" cy="0" r="1" gradientUnits="userSpaceOnUse" gradientTransform="translate(346.196 257.941) rotate(-89.006) scale(96.8398 54.4346)">
<stop stop-color="#ED26B7"/>
<stop offset="1" stop-color="#871668" stop-opacity="0"/>
</radialGradient>
<radialGradient id="paint1_radial_4522_649" cx="0" cy="0" r="1" gradientUnits="userSpaceOnUse" gradientTransform="translate(202.857 257.941) rotate(-89.006) scale(96.8398 54.4346)">
<stop stop-color="#ED26B7"/>
<stop offset="1" stop-color="#871668" stop-opacity="0"/>
</radialGradient>
</defs>
</svg>
