<svg width="720" height="325" viewBox="0 0 720 325" fill="none" xmlns="http://www.w3.org/2000/svg"><path d="M394.601 94.9699c0 7.4641-4.636 14.3211-12.337 19.3471-7.695 5.021-18.369 8.152-30.197 8.152s-22.503-3.131-30.197-8.152c-7.701-5.026-12.338-11.883-12.338-19.3471 0-7.4644 4.637-14.3209 12.338-19.3469 7.694-5.0216 18.369-8.152 30.197-8.152s22.502 3.1304 30.197 8.152c7.701 5.026 12.337 11.8825 12.337 19.3469Z" fill="#fff" stroke="#1B127D" stroke-width="1.5"/><path d="M330.213 94.0368c-1.496.763-3.676.6058-4.869-.3511-1.193-.9568-.947-2.351.549-3.114 1.496-.763 3.676-.6058 4.869.351 1.193.9569.947 2.3511-.549 3.1141Z" fill="#1B127D"/><path d="M357.303 80.2216c1.496-.763 1.742-2.1572.549-3.1141-1.193-.9569-3.373-1.114-4.869-.351-1.496.763-1.742 2.1572-.549 3.114 1.193.9569 3.373 1.114 4.869.3511Z" fill="#ED26B7"/><path d="M350.699 110.468c-1.496.763-3.676.606-4.869-.351-1.193-.957-.947-2.351.549-3.114 1.496-.763 3.676-.606 4.869.351 1.193.957.948 2.351-.549 3.114Z" fill="#1B127D"/><path d="M377.789 96.6526c1.496-.763 1.742-2.1572.549-3.1141-1.193-.9568-3.373-1.114-4.869-.351-1.496.763-1.742 2.1572-.549 3.1141 1.193.9568 3.373 1.114 4.869.351Z" fill="#ED26B7"/><path d="M334.969 104.96c-1.496.763-3.676.605-4.869-.352-1.193-.956-.947-2.351.549-3.114 1.496-.763 3.676-.605 4.869.351 1.193.957.947 2.352-.549 3.115Z" fill="#1B127D"/><path d="M372.894 85.618c1.496-.763 1.742-2.1572.549-3.1141-1.193-.9568-3.373-1.114-4.869-.351-1.496.763-1.742 2.1572-.549 3.1141 1.193.9568 3.373 1.114 4.869.351Z" fill="#ED26B7"/><path fill-rule="evenodd" clip-rule="evenodd" d="m344.218 84.4637 6.601-3.3663-.615-.4927-7.031 3.5859 4.249 11.0897-11.058 5.6387.615.493 11.488-5.8587-4.249-11.0896Z" fill="#1B127D"/><path fill-rule="evenodd" clip-rule="evenodd" d="m337.536 88.1455 32.355 9.8004.327-.5485-32.878-9.9584-4.316 2.2015.614.4927 3.898-1.9877Z" fill="#1B127D"/><path fill-rule="evenodd" clip-rule="evenodd" d="m355.575 91.6538 9.595-4.8933-.614-.4928-9.98 5.0892 2.832 12.3611-4.177 2.13.614.493 4.561-2.326-2.831-12.3612Z" fill="#1B127D"/><path d="M330.433 25.9099h-38.494c-5.523 0-10 4.4771-10 10V157.738c0 5.522 4.477 10 10 10h120.256c5.522 0 10-4.478 10-10V35.9099c0-5.5229-4.478-10-10-10h-40.316" stroke="#ED26B7"/><path d="M318.97 54.9295c-1.815 0-2.672-.9579-2.864-1.2403l.888-.8066c.211.2722.796.9377 2.006.9377.918 0 1.573-.3327 1.573-1.0184 0-1.6133-4.285-.3932-4.285-3.1358 0-1.2403 1.099-2.1377 2.783-2.1377 1.603 0 2.42.7664 2.712 1.1899l-.887.7663c-.353-.4034-.837-.8571-1.845-.8571-.847 0-1.422.3428-1.422.9176 0 1.5729 4.285.3226 4.285 3.1358 0 1.4016-1.18 2.2486-2.944 2.2486ZM325.446 54.9295c-1.724 0-2.783-1.2403-2.783-2.7628 0-1.6032 1.18-2.783 2.753-2.783 1.623 0 2.642 1.21 2.642 2.7729 0 .1412 0 .3025-.01.4537h-4.084c.05.6252.565 1.2806 1.502 1.2806.757 0 1.2-.4336 1.382-.6857l.867.6655c-.323.4437-1.109 1.0588-2.269 1.0588Zm-1.472-3.3073h2.793c-.04-.5747-.514-1.2302-1.361-1.2302-.908 0-1.371.716-1.432 1.2302ZM330.322 54.7782h-1.27V49.535h1.169l.061.6251h.01c.182-.2924.655-.7764 1.502-.7764.898 0 1.362.5042 1.573.7966h.01c.182-.242.676-.7966 1.594-.7966.746 0 1.29.2723 1.643.7159.283.3731.383.7966.383 1.3613v3.3173h-1.26v-3.0148c0-.2925-.02-.595-.161-.8269-.182-.2924-.474-.4436-.807-.4436-.373 0-.726.1916-.908.5041-.161.2824-.201.6252-.201 1.0184v2.7628h-1.271v-3.0148c0-.2925-.01-.595-.161-.8269-.171-.2924-.464-.4436-.807-.4436-.373 0-.716.1916-.897.5041-.171.2824-.202.6252-.202 1.0184v2.7628ZM339.881 54.9295c-.998 0-1.825-.5647-1.825-1.6638 0-.6453.343-1.1091.816-1.3813.505-.3025 1.039-.3429 1.936-.3933l.767-.0403v-.0706c0-.5848-.454-.9882-1.13-.9882-.665 0-1.179.363-1.492.7563l-.716-.6958c.141-.2117.837-1.0688 2.279-1.0688.726 0 1.412.2521 1.835.7764.252.3328.414.726.414 1.4722v3.1459h-1.17l-.071-.6352h-.01c-.222.3226-.746.7865-1.633.7865Zm.252-1.0184c.433 0 .766-.1412 1.018-.3731.262-.242.424-.6453.424-1.1192v-.0605l-.736.0403c-.666.0302-1.513.1008-1.513.8369 0 .484.373.6756.807.6756ZM345.348 54.7782h-1.26V49.535h1.17l.06.6453h.01c.151-.2218.605-.7966 1.583-.7966.716 0 1.25.2622 1.613.7563.242.3428.363.7764.363 1.4721v3.1661h-1.26v-2.9543c0-.3126-.03-.6252-.171-.847-.182-.3227-.515-.4941-.888-.4941-.413 0-.806.2117-1.008.5445-.181.3025-.212.6655-.212 1.1091v2.6418ZM352.461 54.9295c-.635 0-1.23-.232-1.563-.7664-.262-.3529-.343-.7764-.343-1.3309v-2.2385h-.978V49.535h.978v-1.6032h1.261v1.6032h1.613v1.0587h-1.613v2.1679c0 .3428.05.605.191.7764.131.1815.353.2924.626.2924.322 0 .564-.1109.705-.2118l.474.8974c-.232.1815-.736.4135-1.351.4135ZM355.229 48.6477c-.463 0-.816-.3429-.816-.8067 0-.4537.353-.8066.816-.8066.464 0 .827.3529.827.8066 0 .4638-.363.8067-.827.8067Zm.636 6.1305h-1.261V49.535h1.261v5.2432ZM359.744 54.9295c-1.694 0-2.853-1.2504-2.853-2.7729 0-1.5326 1.18-2.7729 2.853-2.7729 1.493 0 2.209.9075 2.37 1.21l-.988.6453c-.091-.1411-.454-.7562-1.382-.7562-.927 0-1.583.7461-1.583 1.6738 0 .9176.646 1.6738 1.583 1.6738.928 0 1.311-.5949 1.402-.7361l.968.6353c-.151.2722-.877 1.1999-2.37 1.1999ZM367.202 47.6797v5.9692h3.519v1.1293h-4.83v-7.0985h1.311ZM373.252 54.9295c-.999 0-1.825-.5647-1.825-1.6638 0-.6453.342-1.1091.816-1.3813.504-.3025 1.039-.3429 1.936-.3933l.767-.0403v-.0706c0-.5848-.454-.9882-1.13-.9882-.665 0-1.179.363-1.492.7563l-.716-.6958c.141-.2117.837-1.0688 2.279-1.0688.726 0 1.411.2521 1.835.7764.252.3328.413.726.413 1.4722v3.1459h-1.169l-.071-.6352h-.01c-.222.3226-.746.7865-1.633.7865Zm.252-1.0184c.433 0 .766-.1412 1.018-.3731.262-.242.424-.6453.424-1.1192v-.0605l-.737.0403c-.665.0302-1.512.1008-1.512.8369 0 .484.373.6756.807.6756ZM379.367 56.9158h-1.341l.887-2.1981-2.178-5.1827h1.361l1.442 3.7106h.01l1.361-3.7106h1.321l-2.863 7.3808ZM385.295 54.9295c-1.724 0-2.783-1.2403-2.783-2.7628 0-1.6032 1.18-2.783 2.753-2.783 1.623 0 2.642 1.21 2.642 2.7729 0 .1412 0 .3025-.01.4537h-4.084c.05.6252.565 1.2806 1.502 1.2806.756 0 1.2-.4336 1.382-.6857l.867.6655c-.323.4437-1.109 1.0588-2.269 1.0588Zm-1.472-3.3073h2.793c-.04-.5747-.514-1.2302-1.361-1.2302-.908 0-1.372.716-1.432 1.2302ZM390.161 54.7782h-1.26V49.535h1.169l.081.7461h.02c.373-.6453 1.099-.8974 1.644-.8974v1.2503c-.565 0-.999.0908-1.301.4034-.323.3327-.353.7865-.353 1.3511v2.3897Z" fill="#1B127D"/><path d="M359.561 26.5031c-.05-2.1552-1.24-3.866-3.056-4.5347v-3.751c-.459-.2932-.947-.5356-1.457-.722v8.07c0 1.5987-.741 2.3125-1.933 2.3125-1.16 0-2.131-.8764-2.131-2.3419 0-1.6358 1.275-2.6348 2.945-2.6348.154-.0028.312.0053.466.0295v-1.4281c-.154-.0266-.309-.04-.466-.0371-2.478 0-4.42 1.5187-4.42 4.0736 0 2.4565 1.752 3.7672 3.705 3.7672.925 0 1.725-.3145 2.278-.8553.552-.5409 1.019-1.3216 1.019-2.6936v-2.2355c1.008.5037 1.616 1.7237 1.619 3.1199-.006 2.6295-2.446 4.8517-5.308 4.8517-.066 0-.117 0-.184-.0028-1.963-.0025-3.688-.7115-5.086-2.1101-1.006-1.007-1.694-2.2887-1.971-3.6821-.277-1.3962-.136-2.84.411-4.1563.544-1.3136 1.466-2.4379 2.65-3.2292 1.185-.7913 2.577-1.2123 4.001-1.2123v-1.4652c-1.139 0-2.267.2238-3.318.6582-1.051.4343-2.008 1.0735-2.813 1.8757-1.627 1.6224-2.542 3.8257-2.542 6.1224 0 2.2964.912 4.5 2.536 6.1253 1.624 1.6252 3.83 2.5391 6.129 2.5391h.184c.707 0 1.411-.1093 2.089-.3198.002 0 .005-.0028.008-.0028.978-.3037 1.875-.8207 2.627-1.5132 1.298-1.199 2.013-2.784 2.019-4.4705.002-.0056-.001-.144-.001-.1468Z" fill="#ED26B7"/><circle cx="318.17" cy="165.65" r="19.7965" fill="#fff" stroke="#BFC9D1"/><rect x="307.937" y="161.857" width="20.4656" height="14.208" rx="3.25" fill="#fff" stroke="#1B127D" stroke-width="1.5"/><path d="M312.717 161.873v-4.387c0-1.657 1.343-3 3-3h4.842c1.657 0 3 1.343 3 3v4.387" stroke="#1B127D" stroke-width="1.5"/><circle cx="318.17" cy="168.96" r="2.27613" fill="#fff" stroke="#1B127D" stroke-width="1.5"/><circle cx="352.067" cy="165.65" r="19.7965" fill="#fff" stroke="#BFC9D1"/><g clip-path="url(#clip0_1314_19858)" fill-rule="evenodd" clip-rule="evenodd" fill="#1B127D"><path d="m341.454 162.6 3.018.096c.535-.205 1.314-.537 2.06-.288.891.298 1.354.997 2.108 1.39v-2.396c.128-.044 2.335.006 2.779 0 0-.23-1.023-1.221-1.246-1.389-1.178-.889-3.104-2.18-5.413-1.581-.502.13-1.013.298-1.438.479-.482.205-1.712.712-1.772 1.246-.116.171-.084 1.945-.096 2.443Z"/><path d="m342.556 170.026.048-3.066c-.422-1.404-.212-2.614.862-3.306 0-.016.077-.044.077-.06-.176 0-2.511-.088-2.904-.084l.048-2.587h-.048c-.514.462-.937.895-1.293 1.437-1.014 1.545-1.296 4.072-.479 5.989.152.357.701 1.542.958 1.677h2.731ZM355.108 161.69l-2.635.143-.335.527 2.347 2.971h.096l.575-.767-.048-2.874ZM350.94 167.774c0 .942.032 2.827.048 2.827.188-.319 1.123-1.376 1.102-1.581-.144-.433-1.893-2.511-2.348-3.258-.016.016-1.489 1.7-1.677 2.06.767 0 2.688-.054 2.875-.048Z"/><path d="M343.322 170.84h-2.731v.048l.815.863c.687.517 1.479 1.021 2.347 1.341 2.007.739 4.416.047 5.702-.814.231-.156.804-.484.91-.719 0-.479-.092-2.758 0-3.018h-2.539c-.047-.012-.018-.038-.048 0-.274.144-.482.403-.767.527-.776.337-2.017.269-2.683-.144-.39-.242-.651-.833-1.006-1.006v.048c.118.188 0 2.172 0 2.874Z"/></g><g clip-path="url(#clip1_1314_19858)" fill-rule="evenodd" clip-rule="evenodd" fill="#ED26B7"><path d="m362.68 162.216-3.018.096c-.535-.205-1.314-.537-2.06-.287-.891.298-1.584.901-2.108 1.668v-2.516c-.128-.044-2.335.006-2.779 0 0-.437.888-1.278 1.246-1.548 1.178-.889 3.104-2.179 5.413-1.581.502.131 1.013.298 1.438.479.482.206 1.29.758 1.772 1.246.116.171.084 1.945.096 2.443Z"/><path d="m361.578 169.642-.048-3.066c.422-1.404.212-2.613-.862-3.306 0-.015-.077-.044-.077-.06.176 0 2.511-.087 2.904-.083l-.048-2.587h.048c.514.461.937.894 1.293 1.437 1.013 1.545 1.296 4.071.479 5.989-.152.357-.701 1.541-.958 1.676h-2.731ZM349.071 161.8h2.467l2.803 3.498-2.323 3.353-2.995-4.072.048-2.779Z"/><path d="M353.098 167.247c0 .942-.032 2.827-.048 2.827-.188-.319-1.123-1.376-1.102-1.581.144-.433 1.893-2.511 2.348-3.258.016.016 1.49 1.7 1.677 2.06-.767 0-2.688-.054-2.875-.048Z"/><path d="M360.812 170.457h2.731v.048l-.815.862c-.687.517-1.479 1.022-2.347 1.342-2.007.738-4.416.047-5.702-.815-.231-.155-.804-.483-.91-.719 0-.479.092-2.757 0-3.018h2.539c.047-.012.018-.037.048 0 .274.144.482.404.767.527.776.338 2.017.269 2.683-.144.39-.241.651-.832 1.006-1.006v.048c-.118.189 0 2.172 0 2.875Z"/></g><circle cx="385.964" cy="165.65" r="19.7965" fill="#fff" stroke="#BFC9D1"/><path d="m376.351 162.193 7.752-7.752 12.844 10.488-11.704 11.248-2.888-2.736-6.004-11.248Z" fill="#fff"/><path d="m398.067 164.53-10.983-10.981c-.15-.151-.329-.27-.525-.352-.197-.081-.408-.123-.62-.123-.213 0-.424.042-.621.123-.196.082-.375.201-.525.352l-2.28 2.28 2.892 2.893c.34-.116.706-.134 1.056-.052.349.081.669.259.923.513.256.255.434.578.515.93.081.352.061.72-.058 1.061l2.789 2.788c.341-.118.709-.138 1.062-.057.352.08.675.259.93.515.179.179.321.391.418.625.097.234.147.485.147.738s-.05.503-.147.737c-.097.234-.239.446-.418.625-.362.362-.852.565-1.364.565-.511 0-1.002-.203-1.364-.565-.268-.269-.452-.612-.526-.985-.074-.373-.037-.76.108-1.111l-2.6-2.6v6.842c.274.136.512.335.695.581.182.246.303.532.353.834.049.302.026.612-.067.903-.094.292-.256.556-.472.773-.179.179-.392.321-.625.418-.234.097-.485.146-.738.146s-.504-.049-.738-.146c-.233-.097-.446-.239-.625-.418s-.321-.392-.418-.625c-.097-.234-.146-.485-.146-.738s.049-.504.146-.738c.097-.234.239-.446.418-.625.181-.181.395-.324.631-.421v-6.906c-.235-.096-.449-.239-.629-.418-.179-.18-.322-.393-.419-.628-.097-.235-.147-.487-.147-.741.001-.254.051-.506.149-.74l-2.852-2.853-7.53 7.529c-.304.304-.474.717-.474 1.146 0 .43.17.842.474 1.146l10.982 10.983c.304.303.716.473 1.146.473.429 0 .841-.17 1.145-.473l10.932-10.932c.303-.304.474-.716.474-1.145 0-.43-.171-.842-.474-1.146Z" fill="#F03C2E"/><g filter="url(#filter0_dddddd_1314_19858)"><rect x="86.7004" y=".491089" width="53.6323" height="53.6323" rx="8" fill="#fff"/></g><path d="M130.336 30.7449c-.203-.6158-.733-1.0368-1.419-1.1459-.32-.0468-.694-.0312-1.13.0624-.764.1559-1.333.2182-1.746.226 1.559-2.6348 2.829-5.6438 3.562-8.4657 1.185-4.5758.553-6.6572-.187-7.6004-1.949-2.4945-4.802-3.83529-8.239-3.87427-1.832-.02338-3.445.34297-4.279.60027-.78-.1403-1.622-.2183-2.503-.2261-1.652-.0234-3.11.3352-4.357 1.0758-.694-.2339-1.8-.5613-3.079-.7718-3.016-.4989-5.44-.1169-7.2176 1.1381-2.1514 1.5201-3.1491 4.1627-2.962 7.8421.0623 1.1693.7093 4.7318 1.746 8.1071.5924 1.9411 1.2238 3.5547 1.8786 4.7864.927 1.7539 1.917 2.7907 3.032 3.1571.624.2104 1.754.3508 2.946-.6392.149.1792.351.3663.624.53.343.2105.756.3898 1.169.4911 1.497.3742 2.9.2807 4.093-.2416.007.2105.015.4131.015.5924.008.2807.016.5613.023.8263.071 1.7618.188 3.1337.546 4.0926.024.0545.047.1325.07.2182.18.5457.476 1.45 1.232 2.1671.779.7406 1.722.9666 2.588.9666.436 0 .849-.0545 1.208-.1325 1.294-.2806 2.767-.7015 3.827-2.2138 1.006-1.4344 1.497-3.5859 1.582-6.9846.008-.0936.024-.1871.032-.2729.007-.0623.015-.1169.023-.1793l.234.0234.062.0078c1.318.0624 2.931-.2183 3.921-.6782.787-.3742 3.297-1.6994 2.705-3.4845Z" fill="#000"/><path d="M128.084 31.0879c-3.921.8107-4.194-.5223-4.194-.5223 4.139-6.1427 5.869-13.938 4.381-15.8478-4.077-5.1995-11.131-2.744-11.248-2.6738l-.039.0078c-.772-.1637-1.645-.2573-2.619-.2729-1.777-.0311-3.118.4678-4.139 1.2395 0 0-12.5809-5.18389-11.9963 6.5169.1247 2.4867 3.5703 18.8412 7.6773 13.899 1.505-1.8085 2.955-3.3286 2.955-3.3286.717.4755 1.582.725 2.486.6314l.07-.0623c-.023.226-.015.4443.032.7015-1.061 1.1849-.749 1.3876-2.861 1.8241-2.144.4444-.881 1.2239-.062 1.4344.997.2494 3.297.6002 4.856-1.5747l-.063.2495c.413.3352.71 2.1593.655 3.8197-.047 1.6604-.078 2.7985.242 3.6872.327.8886.654 2.8842 3.429 2.2918 2.323-.4989 3.531-1.7851 3.695-3.9444.117-1.5279.39-1.3019.405-2.6738l.219-.647c.249-2.0736.039-2.744 1.473-2.4322l.351.0312c1.052.0468 2.432-.1715 3.242-.5457 1.738-.8107 2.767-2.1593 1.053-1.8085Z" fill="#336791"/><path d="M122.674 20.6579c-.031-.2416-.46-.3118-.873-.2572-.406.0546-.803.2417-.772.4833.023.1871.366.5067.772.5067.031 0 .07 0 .101-.0078.265-.039.468-.2105.561-.304.141-.1481.226-.3118.211-.421Zm6.711 10.3444c-.148-.4521-.631-.6002-1.426-.4287-2.378.4911-3.227.1481-3.5-.0546 1.847-2.8141 3.359-6.2129 4.186-9.3777.389-1.5045.6-2.8999.623-4.0302.016-1.2473-.195-2.1671-.631-2.7284-1.77-2.2606-4.358-3.4689-7.499-3.5001-2.159-.0234-3.983.5301-4.334.686-.748-.1871-1.559-.2962-2.439-.3118-1.622-.0234-3.017.3586-4.178 1.1537-.523-.2027-1.824-.6548-3.415-.9043-2.751-.4443-4.941-.1091-6.5.9978-1.8633 1.3175-2.7207 3.6794-2.557 7.008.0546 1.1226.6937 4.5681 1.6993 7.8733 1.3247 4.3498 2.7667 6.8053 4.2867 7.312.18.0624.382.1013.608.1013.554 0 1.232-.2494 1.941-1.0991 1.169-1.411 2.269-2.5958 2.674-3.0246.6.3196 1.255.4989 1.925.5145 0 .0156 0 .039.008.0546-.133.1559-.242.2962-.335.4209-.468.5925-.561.7094-2.058 1.0212-.429.0858-1.551.3196-1.575 1.1147-.015.8653 1.333 1.2317 1.489 1.2629.538.1325 1.052.2027 1.551.2027 1.201 0 2.253-.3976 3.103-1.1615-.024 3.0869.101 6.1193.475 7.0469.304.7562 1.045 2.6114 3.383 2.6114.343 0 .725-.0389 1.138-.1325 2.44-.5223 3.5-1.6058 3.913-3.9834.218-1.2706.592-4.3108.772-5.94.374.1169.857.1715 1.372.1715 1.083 0 2.338-.2339 3.125-.5925.873-.4053 2.463-1.4109 2.175-2.284Zm-8.138-19.1609c2.814.0624 5.036 1.1148 6.61 3.126 1.208 1.5434-.124 8.567-3.975 14.6318-.039-.0468-.078-.0936-.117-.1481-.016-.0234-.031-.039-.047-.0624.998-1.6448.803-3.274.624-4.7084-.07-.5924-.14-1.1537-.125-1.676.016-.5534.094-1.0367.164-1.4967.086-.569.179-1.1537.148-1.8475.015-.0701.023-.1559.015-.2572-.062-.6626-.818-2.6582-2.369-4.4589-.85-.9822-2.081-2.0892-3.765-2.8297.733-.1559 1.723-.2962 2.837-.2729Zm2.136 12.9559c.148 1.216.296 2.4633-.281 3.7027-.093-.1637-.179-.3352-.257-.5301-.07-.1715-.226-.4521-.444-.8419-.842-1.5122-2.822-5.0591-1.808-6.5012.304-.4288 1.067-.8731 2.985-.6315-.008.4834-.078.9199-.148 1.372-.078.4911-.156.9978-.172 1.6136-.023.5925.055 1.2161.125 1.8164Zm-17.873 8.2786c-.78.9354-1.318.7561-1.489.6938-1.154-.382-2.487-2.8142-3.664-6.6728-1.0207-3.3364-1.6131-6.6962-1.6599-7.6394-.1481-2.9778.5691-5.0514 2.1439-6.1661 2.556-1.8163 6.766-.725 8.457-.1793-.023.0234-.047.0468-.07.0701-2.775 2.7986-2.705 7.5849-2.697 7.8811 0 .1091.008.2728.023.4911.047.8029.141 2.2996-.101 3.999-.218 1.5746.265 3.1181 1.333 4.2329.109.1169.226.226.343.3274-.491.5144-1.52 1.637-2.619 2.9622Zm2.962-3.9523c-.858-.8964-1.255-2.1437-1.076-3.4299.249-1.7929.156-3.352.109-4.1939-.008-.1169-.015-.2182-.015-.304.405-.3586 2.283-1.3642 3.624-1.0601.608.1403.982.5534 1.138 1.2706.803 3.7028.109 5.2462-.452 6.4935-.117.2572-.226.4989-.319.7483l-.071.1949c-.179.4911-.35.9433-.46 1.372-.912 0-1.8-.3898-2.478-1.0914Zm4.482 3.6093c-1.24 1.7383-3.048 1.7149-4.342 1.3875-.265-.0701-.507-.1792-.647-.2806.117-.0546.327-.1325.694-.2027 1.761-.3586 2.026-.6158 2.627-1.3719.132-.1715.288-.3664.506-.6081.32-.3586.46-.2962.725-.1871.211.0858.421.3586.507.6548.031.1326.078.3976-.07.6081Zm8.87.0234c-.07.9198-.584 5.215-.849 6.7351-.343 2.0034-1.084 2.7518-3.157 3.1961-2.152.4599-2.916-.6392-3.414-1.8943-.328-.8107-.484-4.4667-.367-8.4969 0-.0545-.008-.1091-.023-.1559-.016-.0935-.031-.1871-.063-.2884-.171-.5846-.576-1.0757-1.067-1.2784-.195-.078-.554-.2261-.983-.117.094-.3819.25-.8029.421-1.2706l.07-.1949c.078-.2182.188-.4443.289-.686.585-1.3018 1.387-3.0791.514-7.0937-.327-1.5045-1.41-2.2372-3.055-2.0657-.99.1013-1.894.4989-2.339.7327-.093.0468-.187.0936-.265.1403.125-1.5201.601-4.3498 2.378-6.1427 1.122-1.1303 2.611-1.6838 4.427-1.6526 3.578.0624 5.87 1.8943 7.171 3.4222 1.115 1.3174 1.723 2.6504 1.965 3.3597-1.817-.1871-3.048.1715-3.672 1.068-1.364 1.941.741 5.7218 1.754 7.5303.187.3352.343.6158.398.7405.327.7951.756 1.333 1.068 1.7228.093.1169.187.2338.257.3352-.561.1559-1.551.5223-1.458 2.3542Zm4.965-.3508c-.561.2572-1.504.4599-2.393.4989-.99.0467-1.488-.1092-1.605-.2105-.055-1.1381.366-1.255.818-1.3876.07-.0234.14-.0389.203-.0623.039.0312.086.0701.132.1013.795.5223 2.206.5769 4.202.1715.007 0 .015 0 .023-.0078-.265.2573-.725.5925-1.38.8965ZM111.8 21.2192c.039-.3118-.405-.5145-.834-.5768-.351-.0468-.67 0-.834.1169-.094.0701-.117.1481-.125.2027-.023.1481.078.304.148.3897.18.2339.437.3976.694.4288.039.0078.078.0078.109.0078.421.0156.811-.3196.842-.5691Z" fill="#fff"/><g filter="url(#filter1_dddddd_1314_19858)"><rect x="150.184" y=".491089" width="53.6323" height="53.6323" rx="8" fill="#fff"/></g><path d="M160.28 18.6333v1.0882l16.717 9.4151 14.998-8.4058v3.4223l-14.998 8.4846-15.866-9.0208-.851.4573v6.5449l16.717 9.3994 14.998-8.3901v3.3434l-14.998 8.4689-15.866-9.0209-.851.4732v1.167l16.717 9.3994 16.701-9.3994v-6.5291l-.773-.4731-15.928 9.0209-14.935-8.5478v-3.3434l14.935 8.39 16.701-9.4151v-6.4502l-.773-.4574-15.928 9.0209-14.162-8.0116 14.162-8.0115 11.733 6.6079 1.01-.615v-.8674l-12.743-7.22302-16.717 9.47822Z" fill="#EF3E2B"/><path d="M222.129 25.9099h21.423c6.627 0 12 5.3726 12 12v39.2348c0 6.6274 5.373 12 12 12h6.492M222.129 175.672h21.423c6.627 0 12-5.372 12-12v-39.235c0-6.627 5.373-12 12-12h6.492M599.461 25.9099h-11.339c-6.628 0-12 5.3726-12 12v39.2348c0 6.6274-5.373 12-12 12h-6.493M599.461 175.672h-11.339c-6.628 0-12-5.372-12-12v-39.235c0-6.627-5.373-12-12-12h-6.493M465.871 26.4477h-5.29c-6.627 0-12 5.3725-12 12v38.862c0 6.6274-5.373 12-12 12h-6.492M465.871 175.687h-5.29c-6.627 0-12-5.372-12-12v-39.085c0-6.627-5.373-12-12-12h-6.492" stroke="#1B127D" stroke-dasharray="6 6"/><g filter="url(#filter2_dddddd_1314_19858)"><rect x="473.765" y="19.3245" width="72.0997" height="26.4141" rx="4" fill="#fff"/></g><path d="M485.605 36.2119c-2.228 0-3.801-1.6637-3.801-3.7005 0-2.0469 1.583-3.7005 3.801-3.7005 1.483 0 2.541.7361 2.945 1.3612l-.888.7361c-.443-.5344-1.119-.968-2.057-.968-1.482 0-2.46 1.1596-2.46 2.5712 0 1.4419.988 2.5611 2.46 2.5611.999 0 1.644-.4436 2.118-.978l.827.7864c-.383.5345-1.402 1.331-2.945 1.331ZM492.013 36.2119c-1.664 0-2.864-1.2402-2.864-2.7728 0-1.5327 1.21-2.7729 2.864-2.7729 1.663 0 2.873 1.2402 2.873 2.7729 0 1.5225-1.21 2.7728-2.873 2.7728Zm0-1.099c.968 0 1.593-.7462 1.593-1.6638 0-.9377-.625-1.6939-1.593-1.6939-.958 0-1.594.7562-1.594 1.6939 0 .9176.636 1.6638 1.594 1.6638ZM497.807 36.2119c-1.553 0-2.198-.8268-2.289-.9881l.777-.7159c.171.2319.695.6957 1.522.6957.625 0 1.029-.2319 1.029-.6453 0-.9781-3.156-.1714-3.156-2.2183 0-.8369.766-1.6738 2.178-1.6738 1.451 0 2.056.7966 2.177.968l-.766.6352c-.181-.2117-.625-.605-1.391-.605-.565 0-.948.2219-.948.5949 0 .9579 3.156.1412 3.156 2.1881 0 1.0184-.928 1.7645-2.289 1.7645ZM503.33 36.2119c-.636 0-1.23-.2319-1.563-.7663-.262-.3529-.343-.7764-.343-1.331v-2.2384h-.978v-1.0588h.978v-1.6032h1.26v1.6032h1.614v1.0588h-1.614v2.1678c0 .3429.051.605.192.7764.131.1815.353.2925.625.2925.323 0 .565-.111.706-.2118l.474.8974c-.232.1815-.736.4134-1.351.4134Z" fill="#1B127D"/><circle cx="540.982" cy="32.0274" r="8.68713" fill="#00C18D"/><path fill-rule="evenodd" clip-rule="evenodd" d="m546.176 29.4021-6.829 6.8289-3.558-3.5577 1.052-1.052 2.506 2.5057 5.777-5.7769 1.052 1.052Z" fill="#fff"/><g filter="url(#filter3_dddddd_1314_19858)"><rect x="473.765" y="64.8308" width="72.0997" height="26.4141" rx="4" fill="#fff"/></g><path d="M483.508 81.567h-1.311v-7.0985h2.894c.646 0 1.079.0605 1.331.1815.807.3327 1.361 1.1091 1.361 2.0368 0 .9377-.564 1.704-1.32 2.0166-.121.0504-.222.0806-.343.1109l1.946 2.7527h-1.503l-1.835-2.672h-1.22v2.672Zm0-5.9793v2.2183h1.614c.363-.0101.594-.0403.786-.1412.343-.1815.555-.5243.555-.978 0-.4437-.232-.7966-.555-.9579-.182-.111-.423-.1412-.786-.1412h-1.614ZM491.174 81.7182c-1.725 0-2.783-1.2402-2.783-2.7627 0-1.6033 1.179-2.783 2.752-2.783 1.624 0 2.642 1.21 2.642 2.7729 0 .1411 0 .3025-.01.4537h-4.084c.051.6252.565 1.2806 1.503 1.2806.756 0 1.2-.4336 1.381-.6857l.867.6655c-.322.4437-1.109 1.0587-2.268 1.0587Zm-1.472-3.3072h2.793c-.041-.5748-.515-1.2302-1.362-1.2302-.907 0-1.371.7159-1.431 1.2302ZM496.838 80.4478l1.381-4.124h1.281l-1.916 5.2432h-1.553l-1.916-5.2432h1.311l1.392 4.124h.02ZM502.625 81.7182c-1.724 0-2.782-1.2402-2.782-2.7627 0-1.6033 1.179-2.783 2.752-2.783 1.624 0 2.642 1.21 2.642 2.7729 0 .1411 0 .3025-.01.4537h-4.084c.051.6252.565 1.2806 1.503 1.2806.756 0 1.2-.4336 1.381-.6857l.867.6655c-.322.4437-1.109 1.0587-2.269 1.0587Zm-1.472-3.3072h2.793c-.04-.5748-.514-1.2302-1.361-1.2302-.907 0-1.371.7159-1.432 1.2302ZM507.491 81.567h-1.26v-5.2432h1.17l.06.6453h.01c.152-.2218.605-.7966 1.583-.7966.716 0 1.251.2622 1.614.7563.242.3428.363.7764.363 1.4721v3.1661h-1.261v-2.9544c0-.3125-.03-.6251-.171-.8469-.182-.3227-.514-.4941-.887-.4941-.414 0-.807.2117-1.009.5445-.181.3025-.212.6655-.212 1.1091v2.6418ZM514.705 81.7182c-1.119 0-2.037-.6554-2.309-1.6233-.07-.232-.091-.5345-.091-.7462v-3.0249h1.271v3.035c0 .1512.02.3327.05.4336.131.5142.555.8167 1.069.8167.534 0 .968-.2924 1.079-.8167.03-.1009.06-.2824.06-.4336v-3.035h1.261v3.0249c0 .2117-.02.5142-.081.7462-.272.9679-1.2 1.6233-2.309 1.6233ZM520.862 81.7182c-1.724 0-2.783-1.2402-2.783-2.7627 0-1.6033 1.18-2.783 2.753-2.783 1.623 0 2.641 1.21 2.641 2.7729 0 .1411 0 .3025-.01.4537h-4.083c.05.6252.564 1.2806 1.502 1.2806.756 0 1.2-.4336 1.381-.6857l.867.6655c-.322.4437-1.109 1.0587-2.268 1.0587Zm-1.472-3.3072h2.793c-.041-.5748-.515-1.2302-1.362-1.2302-.907 0-1.371.7159-1.431 1.2302Z" fill="#1B127D"/><circle cx="540.982" cy="77.5337" r="8.68713" fill="#00C18D"/><path fill-rule="evenodd" clip-rule="evenodd" d="m546.176 74.9084-6.829 6.8289-3.558-3.5577 1.052-1.052 2.506 2.5057 5.777-5.7769 1.052 1.052Z" fill="#fff"/><g filter="url(#filter4_dddddd_1314_19858)"><rect x="473.765" y="110.337" width="72.0997" height="26.4141" rx="4" fill="#fff"/></g><path d="M485.605 127.729c-2.208 0-3.801-1.664-3.801-3.701s1.593-3.7 3.801-3.7c2.209 0 3.802 1.663 3.802 3.7s-1.593 3.701-3.802 3.701Zm0-1.14c1.483 0 2.461-1.129 2.461-2.561s-.978-2.571-2.461-2.571c-1.472 0-2.46 1.139-2.46 2.571 0 1.432.988 2.561 2.46 2.561ZM491.746 127.577h-1.26v-5.243h1.17l.08.746h.021c.373-.645 1.099-.897 1.643-.897v1.25c-.565 0-.998.091-1.301.404-.322.332-.353.786-.353 1.351v2.389ZM496.38 127.729c-1.624 0-2.652-1.251-2.652-2.773 0-1.533 1.038-2.773 2.631-2.773.857 0 1.452.363 1.775.766h.01v-2.883h1.26v7.511h-1.169l-.061-.655-.02-.01c-.302.434-.927.817-1.774.817Zm.201-1.099c.968 0 1.583-.746 1.583-1.674 0-.938-.615-1.684-1.583-1.684-.938 0-1.583.746-1.583 1.684 0 .928.645 1.674 1.583 1.674ZM503.226 127.729c-1.724 0-2.783-1.241-2.783-2.763 0-1.603 1.18-2.783 2.753-2.783 1.623 0 2.642 1.21 2.642 2.773 0 .141 0 .302-.01.454h-4.084c.05.625.565 1.28 1.502 1.28.757 0 1.2-.433 1.382-.685l.867.665c-.323.444-1.109 1.059-2.269 1.059Zm-1.472-3.308h2.793c-.04-.574-.514-1.23-1.361-1.23-.908 0-1.372.716-1.432 1.23ZM508.092 127.577h-1.26v-5.243h1.169l.081.746h.02c.373-.645 1.099-.897 1.644-.897v1.25c-.565 0-.998.091-1.301.404-.323.332-.353.786-.353 1.351v2.389ZM512.538 127.729c-1.553 0-2.198-.827-2.289-.988l.776-.716c.172.232.696.695 1.523.695.625 0 1.028-.232 1.028-.645 0-.978-3.156-.171-3.156-2.218 0-.837.767-1.674 2.178-1.674 1.452 0 2.057.797 2.178.968l-.766.635c-.182-.212-.625-.605-1.392-.605-.564 0-.947.222-.947.595 0 .958 3.156.141 3.156 2.188 0 1.019-.928 1.765-2.289 1.765Z" fill="#1B127D"/><circle cx="540.982" cy="123.544" r="8.68713" fill="#00C18D"/><path fill-rule="evenodd" clip-rule="evenodd" d="m546.176 120.919-6.829 6.829-3.558-3.558 1.052-1.052 2.506 2.506 5.777-5.777 1.052 1.052Z" fill="#fff"/><g filter="url(#filter5_dddddd_1314_19858)"><rect x="473.765" y="155.843" width="72.0997" height="26.4141" rx="4" fill="#fff"/></g><path d="M483.438 173.084h-1.241v-7.099h2.017l1.996 5.455h.021l1.966-5.455h1.996v7.099h-1.26v-5.798h-.01l-2.108 5.798h-1.26l-2.097-5.798h-.02v5.798ZM493.231 173.235c-.998 0-1.825-.565-1.825-1.664 0-.645.343-1.109.816-1.381.505-.303 1.039-.343 1.936-.393l.767-.041v-.07c0-.585-.454-.988-1.13-.988-.665 0-1.179.363-1.492.756l-.716-.696c.141-.212.837-1.069 2.279-1.069.726 0 1.412.252 1.835.777.252.332.414.726.414 1.472v3.146h-1.17l-.071-.635h-.01c-.222.322-.746.786-1.633.786Zm.252-1.018c.433 0 .766-.141 1.018-.373.262-.242.424-.646.424-1.12v-.06l-.736.04c-.666.03-1.513.101-1.513.837 0 .484.373.676.807.676ZM498.698 173.084h-1.26v-5.243h1.17l.08.746h.02c.373-.646 1.099-.898 1.644-.898v1.251c-.565 0-.998.09-1.301.403-.322.333-.353.786-.353 1.351v2.39ZM503.403 175.373c-1.785 0-2.47-1.029-2.541-1.14l.827-.776c.312.393.867.827 1.653.827.585 0 1.059-.212 1.321-.464.363-.353.404-.787.404-1.291v-.242h-.021c-.332.404-.937.746-1.754.746-1.623 0-2.652-1.199-2.652-2.672 0-1.472 1.029-2.672 2.652-2.672.817 0 1.412.333 1.754.746h.011l.06-.594h1.2v4.497c0 .847-.081 1.613-.706 2.208-.494.474-1.23.827-2.208.827Zm.101-3.408c.948 0 1.573-.726 1.573-1.604 0-.887-.625-1.603-1.573-1.603-.938 0-1.583.716-1.583 1.603 0 .878.645 1.604 1.583 1.604ZM508.304 166.953c-.464 0-.817-.343-.817-.806 0-.454.353-.807.817-.807.464 0 .827.353.827.807 0 .463-.363.806-.827.806Zm.635 6.131h-1.26v-5.243h1.26v5.243ZM511.558 173.084h-1.26v-5.243h1.169l.061.645h.01c.151-.222.605-.797 1.583-.797.716 0 1.25.263 1.613.757.242.342.363.776.363 1.472v3.166h-1.26v-2.955c0-.312-.03-.625-.171-.847-.182-.322-.515-.494-.888-.494-.413 0-.806.212-1.008.545-.182.302-.212.665-.212 1.109v2.642ZM518.308 173.235c-1.553 0-2.198-.827-2.289-.988l.777-.716c.171.232.695.696 1.522.696.625 0 1.029-.232 1.029-.646 0-.978-3.156-.171-3.156-2.218 0-.837.766-1.674 2.178-1.674 1.452 0 2.057.797 2.178.968l-.767.636c-.181-.212-.625-.605-1.391-.605-.565 0-.948.221-.948.594 0 .958 3.156.142 3.156 2.189 0 1.018-.928 1.764-2.289 1.764Z" fill="#1B127D"/><circle cx="540.982" cy="169.05" r="8.68713" fill="#00C18D"/><path fill-rule="evenodd" clip-rule="evenodd" d="m546.176 166.425-6.829 6.829-3.558-3.558 1.052-1.052 2.506 2.506 5.777-5.777 1.052 1.052Z" fill="#fff"/><g filter="url(#filter6_dddddd_1314_19858)"><rect x="55" y="73.9749" width="53.6323" height="53.6323" rx="8" fill="#fff"/></g><path fill-rule="evenodd" clip-rule="evenodd" d="M72.1956 105.524c-1.0706.488-3.1605 1.576-2.9635 2.758.2741.728 1.122 0 1.4389-.343.6835-.662 1.2051-1.474 1.5246-2.372v-.043Zm6.4066-2.561c-.7109 1.859-2.7836 2.741-3.3575 2.424-.2912-.154 0-.745 0-1.148-.4197.163-1.1134.471-1.5331.643.9481.813 1.4946 2.001 1.4946 3.25 0 1.25-.5465 2.437-1.4946 3.251 1.713 2.569.8565 4.779-1.5331 6.5l-.0942.06-.0514-.171c-.2972-1.187-.8591-2.291-1.6445-3.229-.4197-.488-.8993-.934-1.3704-1.379-.6167-.582-1.2162-1.182-1.7729-1.816-2.3554-2.466-3.289-6.809-2.9806-10.166.1661-1.7244.6723-3.3989 1.4903-4.9251.6466-1.218 1.4534-2.3443 2.3982-3.3489 2.1181-2.2723 4.7972-3.9468 7.7683-4.8563 2.6098-.9011 5.4662-.7683 7.9826.3682.4633.2459.9053.5328 1.319.8565l.6081.5739.0685.0685 11.4513-5.867c.9422-.471 1.653-.471 1.97-.1284.3169.3425-.1285 1.2247-.7966 1.7129l-9.8497 7.1175c.1174.6792-.0848 1.3738-.5481 1.8843 1.3104.4539.1541 2.3725-.4197 3.0577-1.6445 1.9442-4.6508 3.4692-7.3316 4.5822-.7194.308-1.1306.437-1.7729.677v.008Z" fill="#383C42"/><path fill-rule="evenodd" clip-rule="evenodd" d="M87.588 96.2399c.7366-.925.2227-1.456-.2912-.9421-1.0424.9935-2.4975 1.4269-3.9142 1.1648-2.0127-.334-2.107-.6424-1.7644-.9422 2.3366.7863 4.9112-.0873 6.2867-2.1326.4968-.7109-1.1648-1.2762-2.1412-2.5695-4.6936-6.3723-19.391-.8479-20.7957 10.2267-.4625 3.457.5542 6.949 2.8007 9.618 1.713 1.944 3.5802 2.758 4.6337 5.816 2.0556-1.765 1.713-3.76.2312-5.507 1.0775-.547 1.7867-1.621 1.868-2.827.0806-1.205-.4787-2.363-1.474-3.049-.8565 3.092-3.8628 5.379-4.5651 3.186-.4539-2.235 3.229-3.717 9.1217-5.995 4.9334-1.85 8.1195-3.3748 10.0038-6.0985" fill="#31D3DB"/><path fill-rule="evenodd" clip-rule="evenodd" d="M87.586 96.2399c.7366-.925.2227-1.456-.2912-.9421-.9045.8727-2.137 1.3215-3.3917 1.2333-2.0299-.1456-3.6487-.5482-5.139-.3854-2.7673.4145-5.3274 1.7121-7.2973 3.7-2.5695 2.6383-5.4131 8.1183-2.5695 9.1813-.2167-.192-.3614-.452-.4111-.736-.454-2.236 3.229-3.718 9.1216-5.996 4.9334-1.85 8.1196-3.3743 10.0039-6.0979" fill="#fff"/><path fill-rule="evenodd" clip-rule="evenodd" d="M74.9522 100.565c1.516.745 1.2162 3.349.9935 4 2.8778-.857 2.0213-5.0792 3.3575-6.381-1.713-.0514-4.8135 1.6359-4.351 2.381Z" fill="#31D3DB"/><path fill-rule="evenodd" clip-rule="evenodd" d="M79.8187 92.8393c.2664-.2304.6458-.2749.9576-.1113.3117.1627.4924.5002.4548.8496-.0377.3503-.2853.6416-.6244.7349-.3855.1062-.794-.0685-.9824-.4214-.1885-.3537-.1079-.7897.1944-1.0518Z" fill="#383C42"/><path fill-rule="evenodd" clip-rule="evenodd" d="m86.807 93.1907 11.5541-8.0425c.3254-.2312.7537-.728.5738-.9678-.1798-.2398-.6766-.1114-1.1049.0856l-12.4876 6.7492c-.4026.8565.4111 2.6123 1.4731 2.1755" fill="#31D3DB"/><path fill-rule="evenodd" clip-rule="evenodd" d="m85.7966 91.6061 12.068-7.0661c.3117-.2124.6766-.3314 1.0534-.3426-.1798-.2055-.6766-.0856-1.0877.1114l-12.4877 6.7063c-.2518.806.0591 1.6822.7623 2.1498-.2578-.4796-.3657-1.0252-.3083-1.5674" fill="#fff"/><path fill-rule="evenodd" clip-rule="evenodd" d="M68.017 94.7582c.1781-.0386.3631.0094.4993.1293.1379.1199.209.2972.1944.4788.0052.4239-.3006.788-.7194.8565-.1747.0342-.3563-.0137-.4908-.1311-.1336-.1173-.2064-.2903-.1944-.4685.0137-.4145.3058-.7665.7109-.8565M70.3545 92.1798c.1567-.0334.3203.0103.4402.1165s.1824.263.1679.4231c-.0283.3632-.2827.6689-.6338.7623-.1568.0334-.3204-.0103-.4403-.1165s-.1824-.2629-.1679-.4231c.0275-.3631.2818-.6689.6339-.7623ZM77.4468 88.7627c.1585.006.3041.0857.3949.2141.0908.1302.1165.2947.0676.4454-.0967.3503-.4162.5918-.7794.591-.1601-.0043-.3083-.0822-.4025-.2116-.0942-.1293-.1225-.2946-.0771-.4479.0976-.3537.4214-.5961.788-.591M79.6221 88.4114c.1328.0214.2484.1053.3109.2244.0625.1199.0642.2621.006.3837-.1293.2766-.4265.4334-.728.3854-.1259-.024-.2347-.1028-.2964-.2158-.0616-.1131-.0693-.2476-.0205-.3666.1216-.2861.4205-.4548.728-.4111ZM70.3789 93.7988c.1174-.0248.239.0069.3289.0865.0891.0797.1353.197.1251.3161-.0069.2732-.203.5044-.4711.5567-.1156.024-.2355-.0069-.3246-.084-.0891-.0779-.1371-.1927-.1294-.31.012-.2732.2048-.5045.4711-.5653ZM66.7319 96.8308c.1208-.0283.2475.0034.34.0848.0934.0814.1422.203.1311.3263-.0094.2835-.2107.5233-.4882.5824-.1259.0249-.2561-.0111-.3503-.0976-.0951-.0857-.1431-.2116-.1293-.3392.0102-.2861.2158-.5267.4967-.5824M88.331 89.4051l-.5396.274c.0634.776.4882 1.4775 1.1477 1.8929-.4171-.6441-.6287-1.3995-.6081-2.1669Zm2.835-1.5588-.4711.2569c.0719.6424.4265 1.2205.9678 1.5759-.3057-.5618-.4616-1.193-.4539-1.8328h-.0428Zm2.8435-1.5417-.3597.197c0 .4625.334 1.1562.7109 1.2504-.2458-.4411-.3529-.9455-.3084-1.4474h-.0428Zm2.7408-1.4732-.3169.1713c.0771.3777.2792.7186.5738.9678-.1635-.358-.2509-.746-.2569-1.1391Z" fill="#21AAAD"/><g filter="url(#filter7_dddddd_1314_19858)"><rect x="118.442" y="73.9749" width="53.6323" height="53.6323" rx="8" fill="#fff"/></g><path d="M143.336 94.1023c0 .6544-.218 1.1635-.654 1.5992-.654.6547-1.745.7999-2.472.2911l-7.27-4.2169c-.037 0-.055-.0182-.073-.0363-.018-.0182-.037-.0363-.073-.0363-1.018-.5815-1.308-1.89-.654-2.9081.581-1.0179 1.89-1.3084 2.908-.6543l4.071 2.3994v-4.7988c0-1.1631.946-2.1082 2.109-2.1082s2.108.9451 2.108 2.1082v8.361ZM138.465 98.9004c.727.3637 1.091 1.0908 1.091 1.8906 0 .8-.364 1.527-1.018 1.89l-7.271 4.217h-.145c-1.09.582-2.326.218-2.908-.872-.582-1.091-.146-2.327.872-2.908l4.144-2.4-4.144-2.3991c-.047 0-.063-.0303-.089-.0517-.013-.0118-.03-.021-.056-.021-1.018-.5817-1.309-1.8901-.654-2.9083.581-1.0177 1.89-1.3084 2.908-.6543l7.27 4.2168ZM143.336 115.841v-8.434c.073-.291-.073-.655-.218-.872-.581-1.091-1.963-1.455-2.98-.873l-7.271 4.217c-.037 0-.055.018-.073.036-.018.019-.036.037-.073.037-1.017.581-1.308 1.89-.654 2.908.582 1.018 1.89 1.308 2.908.654l4.144-2.399v4.726c0 1.163.946 2.108 2.109 2.108s2.108-.945 2.108-2.108ZM147.117 115.841v-8.216c-.073-.363.073-.873.218-1.236.581-1.018 1.89-1.381 2.908-.8l7.27 4.217c.073 0 .073.073.145.073 1.018.581 1.309 1.89.655 2.908-.582 1.018-1.891 1.308-2.908.654l-4.072-2.326v4.726c0 1.163-.945 2.108-2.108 2.108-1.163 0-2.108-.945-2.108-2.108ZM151.988 98.9004c-.727.3637-1.091 1.0908-1.091 1.8906-.072.8.364 1.527 1.018 1.817l7.271 4.217c.072 0 .072.073.145.073 1.09.581 2.326.145 2.908-.872.582-1.091.145-2.327-.872-2.909l-4.145-2.399 4.145-2.3991c.038 0 .056-.0196.074-.0385.018-.0174.036-.0342.071-.0342 1.018-.5817 1.309-1.8901.655-2.9083-.582-1.0177-1.891-1.3084-2.909-.6543l-7.27 4.2168ZM147.117 85.7413v8.2156c-.073.4361.073.8725.218 1.2359.581 1.0178 1.89 1.3814 2.908.7996l7.27-4.2168c.036 0 .054-.0181.072-.0362.019-.0182.037-.0364.073-.0364 1.018-.5815 1.309-1.8901.655-2.9081-.582-1.0179-1.891-1.3085-2.908-.6544l-4.072 2.3266v-4.7258c0-1.1631-.945-2.1082-2.108-2.1082-1.163 0-2.108.9451-2.108 2.1082Z" fill="#31BEF0"/><path fill-rule="evenodd" clip-rule="evenodd" d="M145.954 96.8911c.05.032.097.0717.145.1192l2.835 2.9083c.146.1454.218.2904.218.5084v.727c0 .146-.072.364-.145.509l-2.908 2.909c-.077.076-.154.133-.241.169-.078.032-.165.049-.268.049h-.727c-.218 0-.364-.073-.509-.218l-2.908-2.909c-.145-.145-.218-.29-.218-.509v-.727c0-.218.073-.363.218-.5084l2.908-2.9083c.092-.0923.185-.1554.296-.1891.064-.0193.133-.029.213-.029h.727c.147 0 .26.033.364.0989Zm-.4 2.6149c-.073-.073-.218-.1457-.364-.1457-.104 0-.208.0374-.286.0853-.03.019-.057.0397-.077.0604l-.873.872c-.073.073-.145.219-.145.364s.072.291.145.364l.873.872c.033.033.081.066.138.093.067.031.146.052.225.052.146 0 .291-.073.364-.145l.872-.872c.062-.063.125-.179.142-.303.002-.02.004-.041.004-.061 0-.08-.023-.161-.055-.229-.026-.055-.058-.102-.091-.135l-.872-.872Z" fill="#31BEF0"/><g filter="url(#filter8_dddddd_1314_19858)"><rect x="181.926" y="73.9749" width="53.6323" height="53.6323" rx="8" fill="#fff"/></g><path d="m198.388 116.28-8.225-14.258c-.216-.374-.329-.798-.329-1.231 0-.432.113-.8565.329-1.2308l8.225-14.2575c.216-.3738.526-.6843.899-.9004.373-.2161.797-.3301 1.228-.3307h16.458c.43.0021.852.1169 1.223.3329.372.216.681.5257.895.8982l8.225 14.2575c.216.3743.33.7988.33 1.2308 0 .433-.114.857-.33 1.231l-8.225 14.258c-.215.374-.525.684-.899.9-.373.216-.797.33-1.228.331h-16.453c-.431-.001-.853-.116-1.226-.332-.372-.216-.682-.526-.897-.899Z" fill="#4386FA"/><path opacity=".1" d="M213.877 96.1999s2.287 5.4891-.83 8.6001c-3.118 3.111-8.793 1.12-8.793 1.12s8.438 8.555 11.546 11.586h1.173c.431 0 .855-.114 1.228-.33.373-.217.683-.527.899-.901l5.444-9.435-10.667-10.6401Z" fill="#000"/><path d="m216.578 107.431-2.527-2.529c-.027-.028-.059-.052-.093-.071 1.069-1.385 1.57-3.125 1.402-4.8669-.168-1.7418-.994-3.3537-2.309-4.5074-1.315-1.1536-3.02-1.7621-4.767-1.7015-1.747.0606-3.406.7857-4.638 2.0277-1.232 1.2419-1.944 2.9072-1.992 4.6561-.047 1.75.573 3.451 1.736 4.758 1.162 1.308 2.779 2.122 4.521 2.278 1.741.155 3.477-.359 4.852-1.44.018.033.041.063.067.089l2.527 2.529c.036.037.08.066.128.086.048.02.099.03.151.03.052 0 .104-.01.152-.03.048-.02.091-.049.128-.086l.662-.662c.037-.037.066-.081.086-.129.02-.048.03-.099.03-.151 0-.052-.01-.104-.03-.152-.02-.048-.049-.091-.086-.128Zm-8.051-1.636c-1.023 0-2.022-.303-2.872-.872-.85-.568-1.513-1.376-1.904-2.321-.391-.945-.494-1.986-.294-2.9892.199-1.0035.691-1.9253 1.414-2.6488.723-.7234 1.644-1.2162 2.647-1.4158s2.042-.0971 2.987.2944c.944.3916 1.752 1.0546 2.32 1.9054.568.8507.871 1.8509.871 2.874 0 .679-.134 1.352-.394 1.98-.259.627-.64 1.198-1.12 1.678-.48.481-1.05.862-1.677 1.122-.627.26-1.3.393-1.978.393Z" fill="#fff"/><path d="M205.222 100.347v2.137c.329.582.806 1.066 1.381 1.405v-3.556l-1.381.014Z" fill="#fff"/><path d="M205.222 100.347v2.137c.329.582.806 1.066 1.381 1.405v-3.556l-1.381.014ZM207.807 98.5732v5.7778c.457.084.925.084 1.381 0v-5.7778h-1.381Z" fill="#fff"/><path d="M207.807 98.5732v5.7778c.457.084.925.084 1.381 0v-5.7778h-1.381ZM211.804 102.48v-1.267h-1.381v2.667c.575-.337 1.051-.82 1.381-1.4Z" fill="#fff"/><path d="M211.804 102.48v-1.267h-1.381v2.667c.575-.337 1.051-.82 1.381-1.4Z" fill="#fff"/><g filter="url(#filter9_dddddd_1314_19858)"><rect x="86.7004" y="147.459" width="53.6323" height="53.6323" rx="8" fill="#fff"/></g><path d="m113.591 182.876 12.736 3.032v-23.855l-12.736 3.032v17.791Z" fill="#205B97"/><path d="m126.327 162.053 2.426 1.213v21.429l-2.426 1.213v-23.855Zm-12.736 20.823-12.737 3.032v-23.855l12.737 3.032v17.791Z" fill="#5193CE"/><path d="m100.854 162.053-2.4259 1.213v21.429l2.4259 1.213v-23.855Z" fill="#205B97"/><path d="m116.826 190.76 4.852-2.426v-28.64l-4.852-2.426-1.483 15.904 1.483 17.588Z" fill="#5193CE"/><path d="m110.355 190.76-4.851-2.426v-28.64l4.851-2.426 1.484 15.904-1.484 17.588Z" fill="#205B97"/><path d="M110.355 157.268h6.537v33.425h-6.537v-33.425Z" fill="#2E73B7"/><g filter="url(#filter10_dddddd_1314_19858)"><rect x="150.184" y="147.459" width="53.6323" height="53.6323" rx="8" fill="#fff"/></g><path d="m168.196 159.776.807 1.973 3.226-2.074-2.655 3.479-.706 2.843 1.916.067.47 1.137 3.192-2.107-2.621 3.478-.773 2.71 1.916.067.437 1.07 3.159-2.074-2.554 3.579-.773 2.676 1.882.067.47 1.104 3.293-2.141v.034l-2.621 3.512-.403 2.341h2.184l.739 1.003 1.782-1.17-.975 2.375-.437 2.107 2.05-.034.605.803 1.378-.903-.773 1.706 3.058 4.147-.437-2.91.773-1.94-1.042-.033-.504-3.713 1.042-3.077-1.479-.033-.504-3.513.706-2.608-1.68-.067-1.042-2.576.739-2.743-1.915-.067-.975-2.408.706-2.809-1.882-.067-1.008-2.442.706-2.81-1.882-.067-.37-.836-7.225 2.944Z" fill="url(#paint0_linear_1314_19858)"/><g filter="url(#filter11_dddddd_1314_19858)"><rect x="611.223" y=".491211" width="53.6323" height="53.6323" rx="8" fill="#fff"/></g><g clip-path="url(#clip2_1314_19858)"><path fill-rule="evenodd" clip-rule="evenodd" d="M622.095 13.8632h28.422v2.6888h-1.387v-1.3444h-25.649v19.494h1.387v1.3444h-2.773V13.8632Zm4.159 4.0332h28.422v22.1829h-28.422V17.8964Zm4.853 20.8385v-8.0665h4.852v8.0665h2.08V27.3073h4.853v11.4276h2.079V32.685h4.853v6.0499h3.466V22.6025h-25.649v16.1324h3.466Zm-3.466-17.4768h25.649v-2.0173h-25.649v2.0173Zm20.796 17.4768v-4.7055h-2.079v4.7055h2.079Zm-6.932 0V28.6517h-2.08v10.0832h2.08Zm-6.932 0v-6.7221h-2.08v6.7221h2.08Z" fill="#1B127D"/></g><g filter="url(#filter12_dddddd_1314_19858)"><rect x="611.223" y="73.9749" width="53.6323" height="53.6323" rx="8" fill="#fff"/></g><g clip-path="url(#clip3_1314_19858)"><path fill-rule="evenodd" clip-rule="evenodd" d="M622.095 87.3469h28.422v2.6888h-1.387v-1.3444h-25.649v19.4937h1.387v1.345h-2.773V87.3469Zm4.159 4.0332h28.422v22.1829h-28.422V91.3801Zm4.853 20.8389v-8.067h4.852v8.067h2.08v-11.428h4.853v11.428h2.079v-6.05h4.853v6.05h3.466V96.0863h-25.649v16.1327h3.466Zm-3.466-17.4772h25.649v-2.0173h-25.649v2.0173Zm20.796 17.4772v-4.706h-2.079v4.706h2.079Zm-6.932 0v-10.084h-2.08v10.084h2.08Zm-6.932 0v-6.723h-2.08v6.723h2.08Z" fill="#1B127D"/></g><g filter="url(#filter13_dddddd_1314_19858)"><rect x="611.223" y="147.459" width="53.6323" height="53.6323" rx="8" fill="#fff"/></g><g clip-path="url(#clip4_1314_19858)"><path fill-rule="evenodd" clip-rule="evenodd" d="M622.095 160.831h28.422v2.688h-1.387v-1.344h-25.649v19.494h1.387v1.345h-2.773v-22.183Zm4.159 4.033h28.422v22.183h-28.422v-22.183Zm4.853 20.838v-8.066h4.852v8.066h2.08v-11.427h4.853v11.427h2.079v-6.05h4.853v6.05h3.466V169.57h-25.649v16.132h3.466Zm-3.466-17.476h25.649v-2.018h-25.649v2.018Zm20.796 17.476v-4.705h-2.079v4.705h2.079Zm-6.932 0v-10.083h-2.08v10.083h2.08Zm-6.932 0v-6.722h-2.08v6.722h2.08Z" fill="#1B127D"/></g><defs><filter id="filter0_dddddd_1314_19858" x="31.9776" y=".491089" width="163.078" height="176.759" filterUnits="userSpaceOnUse" color-interpolation-filters="sRGB"><feFlood flood-opacity="0" result="BackgroundImageFix"/><feColorMatrix in="SourceAlpha" values="0 0 0 0 0 0 0 0 0 0 0 0 0 0 0 0 0 0 127 0" result="hardAlpha"/><feOffset dy="1.8929"/><feGaussianBlur stdDeviation=".757161"/><feColorMatrix values="0 0 0 0 0.109804 0 0 0 0 0.0509804 0 0 0 0 0.247059 0 0 0 0.0196802 0"/><feBlend in2="BackgroundImageFix" result="effect1_dropShadow_1314_19858"/><feColorMatrix in="SourceAlpha" values="0 0 0 0 0 0 0 0 0 0 0 0 0 0 0 0 0 0 127 0" result="hardAlpha"/><feOffset dy="4.54891"/><feGaussianBlur stdDeviation="1.81956"/><feColorMatrix values="0 0 0 0 0.109804 0 0 0 0 0.0509804 0 0 0 0 0.247059 0 0 0 0.0282725 0"/><feBlend in2="effect1_dropShadow_1314_19858" result="effect2_dropShadow_1314_19858"/><feColorMatrix in="SourceAlpha" values="0 0 0 0 0 0 0 0 0 0 0 0 0 0 0 0 0 0 127 0" result="hardAlpha"/><feOffset dy="8.56519"/><feGaussianBlur stdDeviation="3.42608"/><feColorMatrix values="0 0 0 0 0.109804 0 0 0 0 0.0509804 0 0 0 0 0.247059 0 0 0 0.035 0"/><feBlend in2="effect2_dropShadow_1314_19858" result="effect3_dropShadow_1314_19858"/><feColorMatrix in="SourceAlpha" values="0 0 0 0 0 0 0 0 0 0 0 0 0 0 0 0 0 0 127 0" result="hardAlpha"/><feOffset dy="15.2788"/><feGaussianBlur stdDeviation="6.11153"/><feColorMatrix values="0 0 0 0 0.109804 0 0 0 0 0.0509804 0 0 0 0 0.247059 0 0 0 0.0417275 0"/><feBlend in2="effect3_dropShadow_1314_19858" result="effect4_dropShadow_1314_19858"/><feColorMatrix in="SourceAlpha" values="0 0 0 0 0 0 0 0 0 0 0 0 0 0 0 0 0 0 127 0" result="hardAlpha"/><feOffset dy="28.5774"/><feGaussianBlur stdDeviation="11.431"/><feColorMatrix values="0 0 0 0 0.109804 0 0 0 0 0.0509804 0 0 0 0 0.247059 0 0 0 0.0503198 0"/><feBlend in2="effect4_dropShadow_1314_19858" result="effect5_dropShadow_1314_19858"/><feColorMatrix in="SourceAlpha" values="0 0 0 0 0 0 0 0 0 0 0 0 0 0 0 0 0 0 127 0" result="hardAlpha"/><feOffset dy="68.4036"/><feGaussianBlur stdDeviation="27.3614"/><feColorMatrix values="0 0 0 0 0.109804 0 0 0 0 0.0509804 0 0 0 0 0.247059 0 0 0 0.07 0"/><feBlend in2="effect5_dropShadow_1314_19858" result="effect6_dropShadow_1314_19858"/><feBlend in="SourceGraphic" in2="effect6_dropShadow_1314_19858" result="shape"/></filter><filter id="filter1_dddddd_1314_19858" x="95.4613" y=".491089" width="163.078" height="176.759" filterUnits="userSpaceOnUse" color-interpolation-filters="sRGB"><feFlood flood-opacity="0" result="BackgroundImageFix"/><feColorMatrix in="SourceAlpha" values="0 0 0 0 0 0 0 0 0 0 0 0 0 0 0 0 0 0 127 0" result="hardAlpha"/><feOffset dy="1.8929"/><feGaussianBlur stdDeviation=".757161"/><feColorMatrix values="0 0 0 0 0.109804 0 0 0 0 0.0509804 0 0 0 0 0.247059 0 0 0 0.0196802 0"/><feBlend in2="BackgroundImageFix" result="effect1_dropShadow_1314_19858"/><feColorMatrix in="SourceAlpha" values="0 0 0 0 0 0 0 0 0 0 0 0 0 0 0 0 0 0 127 0" result="hardAlpha"/><feOffset dy="4.54891"/><feGaussianBlur stdDeviation="1.81956"/><feColorMatrix values="0 0 0 0 0.109804 0 0 0 0 0.0509804 0 0 0 0 0.247059 0 0 0 0.0282725 0"/><feBlend in2="effect1_dropShadow_1314_19858" result="effect2_dropShadow_1314_19858"/><feColorMatrix in="SourceAlpha" values="0 0 0 0 0 0 0 0 0 0 0 0 0 0 0 0 0 0 127 0" result="hardAlpha"/><feOffset dy="8.56519"/><feGaussianBlur stdDeviation="3.42608"/><feColorMatrix values="0 0 0 0 0.109804 0 0 0 0 0.0509804 0 0 0 0 0.247059 0 0 0 0.035 0"/><feBlend in2="effect2_dropShadow_1314_19858" result="effect3_dropShadow_1314_19858"/><feColorMatrix in="SourceAlpha" values="0 0 0 0 0 0 0 0 0 0 0 0 0 0 0 0 0 0 127 0" result="hardAlpha"/><feOffset dy="15.2788"/><feGaussianBlur stdDeviation="6.11153"/><feColorMatrix values="0 0 0 0 0.109804 0 0 0 0 0.0509804 0 0 0 0 0.247059 0 0 0 0.0417275 0"/><feBlend in2="effect3_dropShadow_1314_19858" result="effect4_dropShadow_1314_19858"/><feColorMatrix in="SourceAlpha" values="0 0 0 0 0 0 0 0 0 0 0 0 0 0 0 0 0 0 127 0" result="hardAlpha"/><feOffset dy="28.5774"/><feGaussianBlur stdDeviation="11.431"/><feColorMatrix values="0 0 0 0 0.109804 0 0 0 0 0.0509804 0 0 0 0 0.247059 0 0 0 0.0503198 0"/><feBlend in2="effect4_dropShadow_1314_19858" result="effect5_dropShadow_1314_19858"/><feColorMatrix in="SourceAlpha" values="0 0 0 0 0 0 0 0 0 0 0 0 0 0 0 0 0 0 127 0" result="hardAlpha"/><feOffset dy="68.4036"/><feGaussianBlur stdDeviation="27.3614"/><feColorMatrix values="0 0 0 0 0.109804 0 0 0 0 0.0509804 0 0 0 0 0.247059 0 0 0 0.07 0"/><feBlend in2="effect5_dropShadow_1314_19858" result="effect6_dropShadow_1314_19858"/><feBlend in="SourceGraphic" in2="effect6_dropShadow_1314_19858" result="shape"/></filter><filter id="filter2_dddddd_1314_19858" x="419.042" y="19.3245" width="181.545" height="149.541" filterUnits="userSpaceOnUse" color-interpolation-filters="sRGB"><feFlood flood-opacity="0" result="BackgroundImageFix"/><feColorMatrix in="SourceAlpha" values="0 0 0 0 0 0 0 0 0 0 0 0 0 0 0 0 0 0 127 0" result="hardAlpha"/><feOffset dy="1.8929"/><feGaussianBlur stdDeviation=".757161"/><feColorMatrix values="0 0 0 0 0.109804 0 0 0 0 0.0509804 0 0 0 0 0.247059 0 0 0 0.0196802 0"/><feBlend in2="BackgroundImageFix" result="effect1_dropShadow_1314_19858"/><feColorMatrix in="SourceAlpha" values="0 0 0 0 0 0 0 0 0 0 0 0 0 0 0 0 0 0 127 0" result="hardAlpha"/><feOffset dy="4.54891"/><feGaussianBlur stdDeviation="1.81956"/><feColorMatrix values="0 0 0 0 0.109804 0 0 0 0 0.0509804 0 0 0 0 0.247059 0 0 0 0.0282725 0"/><feBlend in2="effect1_dropShadow_1314_19858" result="effect2_dropShadow_1314_19858"/><feColorMatrix in="SourceAlpha" values="0 0 0 0 0 0 0 0 0 0 0 0 0 0 0 0 0 0 127 0" result="hardAlpha"/><feOffset dy="8.56519"/><feGaussianBlur stdDeviation="3.42608"/><feColorMatrix values="0 0 0 0 0.109804 0 0 0 0 0.0509804 0 0 0 0 0.247059 0 0 0 0.035 0"/><feBlend in2="effect2_dropShadow_1314_19858" result="effect3_dropShadow_1314_19858"/><feColorMatrix in="SourceAlpha" values="0 0 0 0 0 0 0 0 0 0 0 0 0 0 0 0 0 0 127 0" result="hardAlpha"/><feOffset dy="15.2788"/><feGaussianBlur stdDeviation="6.11153"/><feColorMatrix values="0 0 0 0 0.109804 0 0 0 0 0.0509804 0 0 0 0 0.247059 0 0 0 0.0417275 0"/><feBlend in2="effect3_dropShadow_1314_19858" result="effect4_dropShadow_1314_19858"/><feColorMatrix in="SourceAlpha" values="0 0 0 0 0 0 0 0 0 0 0 0 0 0 0 0 0 0 127 0" result="hardAlpha"/><feOffset dy="28.5774"/><feGaussianBlur stdDeviation="11.431"/><feColorMatrix values="0 0 0 0 0.109804 0 0 0 0 0.0509804 0 0 0 0 0.247059 0 0 0 0.0503198 0"/><feBlend in2="effect4_dropShadow_1314_19858" result="effect5_dropShadow_1314_19858"/><feColorMatrix in="SourceAlpha" values="0 0 0 0 0 0 0 0 0 0 0 0 0 0 0 0 0 0 127 0" result="hardAlpha"/><feOffset dy="68.4036"/><feGaussianBlur stdDeviation="27.3614"/><feColorMatrix values="0 0 0 0 0.109804 0 0 0 0 0.0509804 0 0 0 0 0.247059 0 0 0 0.07 0"/><feBlend in2="effect5_dropShadow_1314_19858" result="effect6_dropShadow_1314_19858"/><feBlend in="SourceGraphic" in2="effect6_dropShadow_1314_19858" result="shape"/></filter><filter id="filter3_dddddd_1314_19858" x="419.042" y="64.8308" width="181.545" height="149.541" filterUnits="userSpaceOnUse" color-interpolation-filters="sRGB"><feFlood flood-opacity="0" result="BackgroundImageFix"/><feColorMatrix in="SourceAlpha" values="0 0 0 0 0 0 0 0 0 0 0 0 0 0 0 0 0 0 127 0" result="hardAlpha"/><feOffset dy="1.8929"/><feGaussianBlur stdDeviation=".757161"/><feColorMatrix values="0 0 0 0 0.109804 0 0 0 0 0.0509804 0 0 0 0 0.247059 0 0 0 0.0196802 0"/><feBlend in2="BackgroundImageFix" result="effect1_dropShadow_1314_19858"/><feColorMatrix in="SourceAlpha" values="0 0 0 0 0 0 0 0 0 0 0 0 0 0 0 0 0 0 127 0" result="hardAlpha"/><feOffset dy="4.54891"/><feGaussianBlur stdDeviation="1.81956"/><feColorMatrix values="0 0 0 0 0.109804 0 0 0 0 0.0509804 0 0 0 0 0.247059 0 0 0 0.0282725 0"/><feBlend in2="effect1_dropShadow_1314_19858" result="effect2_dropShadow_1314_19858"/><feColorMatrix in="SourceAlpha" values="0 0 0 0 0 0 0 0 0 0 0 0 0 0 0 0 0 0 127 0" result="hardAlpha"/><feOffset dy="8.56519"/><feGaussianBlur stdDeviation="3.42608"/><feColorMatrix values="0 0 0 0 0.109804 0 0 0 0 0.0509804 0 0 0 0 0.247059 0 0 0 0.035 0"/><feBlend in2="effect2_dropShadow_1314_19858" result="effect3_dropShadow_1314_19858"/><feColorMatrix in="SourceAlpha" values="0 0 0 0 0 0 0 0 0 0 0 0 0 0 0 0 0 0 127 0" result="hardAlpha"/><feOffset dy="15.2788"/><feGaussianBlur stdDeviation="6.11153"/><feColorMatrix values="0 0 0 0 0.109804 0 0 0 0 0.0509804 0 0 0 0 0.247059 0 0 0 0.0417275 0"/><feBlend in2="effect3_dropShadow_1314_19858" result="effect4_dropShadow_1314_19858"/><feColorMatrix in="SourceAlpha" values="0 0 0 0 0 0 0 0 0 0 0 0 0 0 0 0 0 0 127 0" result="hardAlpha"/><feOffset dy="28.5774"/><feGaussianBlur stdDeviation="11.431"/><feColorMatrix values="0 0 0 0 0.109804 0 0 0 0 0.0509804 0 0 0 0 0.247059 0 0 0 0.0503198 0"/><feBlend in2="effect4_dropShadow_1314_19858" result="effect5_dropShadow_1314_19858"/><feColorMatrix in="SourceAlpha" values="0 0 0 0 0 0 0 0 0 0 0 0 0 0 0 0 0 0 127 0" result="hardAlpha"/><feOffset dy="68.4036"/><feGaussianBlur stdDeviation="27.3614"/><feColorMatrix values="0 0 0 0 0.109804 0 0 0 0 0.0509804 0 0 0 0 0.247059 0 0 0 0.07 0"/><feBlend in2="effect5_dropShadow_1314_19858" result="effect6_dropShadow_1314_19858"/><feBlend in="SourceGraphic" in2="effect6_dropShadow_1314_19858" result="shape"/></filter><filter id="filter4_dddddd_1314_19858" x="419.042" y="110.337" width="181.545" height="149.541" filterUnits="userSpaceOnUse" color-interpolation-filters="sRGB"><feFlood flood-opacity="0" result="BackgroundImageFix"/><feColorMatrix in="SourceAlpha" values="0 0 0 0 0 0 0 0 0 0 0 0 0 0 0 0 0 0 127 0" result="hardAlpha"/><feOffset dy="1.8929"/><feGaussianBlur stdDeviation=".757161"/><feColorMatrix values="0 0 0 0 0.109804 0 0 0 0 0.0509804 0 0 0 0 0.247059 0 0 0 0.0196802 0"/><feBlend in2="BackgroundImageFix" result="effect1_dropShadow_1314_19858"/><feColorMatrix in="SourceAlpha" values="0 0 0 0 0 0 0 0 0 0 0 0 0 0 0 0 0 0 127 0" result="hardAlpha"/><feOffset dy="4.54891"/><feGaussianBlur stdDeviation="1.81956"/><feColorMatrix values="0 0 0 0 0.109804 0 0 0 0 0.0509804 0 0 0 0 0.247059 0 0 0 0.0282725 0"/><feBlend in2="effect1_dropShadow_1314_19858" result="effect2_dropShadow_1314_19858"/><feColorMatrix in="SourceAlpha" values="0 0 0 0 0 0 0 0 0 0 0 0 0 0 0 0 0 0 127 0" result="hardAlpha"/><feOffset dy="8.56519"/><feGaussianBlur stdDeviation="3.42608"/><feColorMatrix values="0 0 0 0 0.109804 0 0 0 0 0.0509804 0 0 0 0 0.247059 0 0 0 0.035 0"/><feBlend in2="effect2_dropShadow_1314_19858" result="effect3_dropShadow_1314_19858"/><feColorMatrix in="SourceAlpha" values="0 0 0 0 0 0 0 0 0 0 0 0 0 0 0 0 0 0 127 0" result="hardAlpha"/><feOffset dy="15.2788"/><feGaussianBlur stdDeviation="6.11153"/><feColorMatrix values="0 0 0 0 0.109804 0 0 0 0 0.0509804 0 0 0 0 0.247059 0 0 0 0.0417275 0"/><feBlend in2="effect3_dropShadow_1314_19858" result="effect4_dropShadow_1314_19858"/><feColorMatrix in="SourceAlpha" values="0 0 0 0 0 0 0 0 0 0 0 0 0 0 0 0 0 0 127 0" result="hardAlpha"/><feOffset dy="28.5774"/><feGaussianBlur stdDeviation="11.431"/><feColorMatrix values="0 0 0 0 0.109804 0 0 0 0 0.0509804 0 0 0 0 0.247059 0 0 0 0.0503198 0"/><feBlend in2="effect4_dropShadow_1314_19858" result="effect5_dropShadow_1314_19858"/><feColorMatrix in="SourceAlpha" values="0 0 0 0 0 0 0 0 0 0 0 0 0 0 0 0 0 0 127 0" result="hardAlpha"/><feOffset dy="68.4036"/><feGaussianBlur stdDeviation="27.3614"/><feColorMatrix values="0 0 0 0 0.109804 0 0 0 0 0.0509804 0 0 0 0 0.247059 0 0 0 0.07 0"/><feBlend in2="effect5_dropShadow_1314_19858" result="effect6_dropShadow_1314_19858"/><feBlend in="SourceGraphic" in2="effect6_dropShadow_1314_19858" result="shape"/></filter><filter id="filter5_dddddd_1314_19858" x="419.042" y="155.843" width="181.545" height="149.541" filterUnits="userSpaceOnUse" color-interpolation-filters="sRGB"><feFlood flood-opacity="0" result="BackgroundImageFix"/><feColorMatrix in="SourceAlpha" values="0 0 0 0 0 0 0 0 0 0 0 0 0 0 0 0 0 0 127 0" result="hardAlpha"/><feOffset dy="1.8929"/><feGaussianBlur stdDeviation=".757161"/><feColorMatrix values="0 0 0 0 0.109804 0 0 0 0 0.0509804 0 0 0 0 0.247059 0 0 0 0.0196802 0"/><feBlend in2="BackgroundImageFix" result="effect1_dropShadow_1314_19858"/><feColorMatrix in="SourceAlpha" values="0 0 0 0 0 0 0 0 0 0 0 0 0 0 0 0 0 0 127 0" result="hardAlpha"/><feOffset dy="4.54891"/><feGaussianBlur stdDeviation="1.81956"/><feColorMatrix values="0 0 0 0 0.109804 0 0 0 0 0.0509804 0 0 0 0 0.247059 0 0 0 0.0282725 0"/><feBlend in2="effect1_dropShadow_1314_19858" result="effect2_dropShadow_1314_19858"/><feColorMatrix in="SourceAlpha" values="0 0 0 0 0 0 0 0 0 0 0 0 0 0 0 0 0 0 127 0" result="hardAlpha"/><feOffset dy="8.56519"/><feGaussianBlur stdDeviation="3.42608"/><feColorMatrix values="0 0 0 0 0.109804 0 0 0 0 0.0509804 0 0 0 0 0.247059 0 0 0 0.035 0"/><feBlend in2="effect2_dropShadow_1314_19858" result="effect3_dropShadow_1314_19858"/><feColorMatrix in="SourceAlpha" values="0 0 0 0 0 0 0 0 0 0 0 0 0 0 0 0 0 0 127 0" result="hardAlpha"/><feOffset dy="15.2788"/><feGaussianBlur stdDeviation="6.11153"/><feColorMatrix values="0 0 0 0 0.109804 0 0 0 0 0.0509804 0 0 0 0 0.247059 0 0 0 0.0417275 0"/><feBlend in2="effect3_dropShadow_1314_19858" result="effect4_dropShadow_1314_19858"/><feColorMatrix in="SourceAlpha" values="0 0 0 0 0 0 0 0 0 0 0 0 0 0 0 0 0 0 127 0" result="hardAlpha"/><feOffset dy="28.5774"/><feGaussianBlur stdDeviation="11.431"/><feColorMatrix values="0 0 0 0 0.109804 0 0 0 0 0.0509804 0 0 0 0 0.247059 0 0 0 0.0503198 0"/><feBlend in2="effect4_dropShadow_1314_19858" result="effect5_dropShadow_1314_19858"/><feColorMatrix in="SourceAlpha" values="0 0 0 0 0 0 0 0 0 0 0 0 0 0 0 0 0 0 127 0" result="hardAlpha"/><feOffset dy="68.4036"/><feGaussianBlur stdDeviation="27.3614"/><feColorMatrix values="0 0 0 0 0.109804 0 0 0 0 0.0509804 0 0 0 0 0.247059 0 0 0 0.07 0"/><feBlend in2="effect5_dropShadow_1314_19858" result="effect6_dropShadow_1314_19858"/><feBlend in="SourceGraphic" in2="effect6_dropShadow_1314_19858" result="shape"/></filter><filter id="filter6_dddddd_1314_19858" x=".277142" y="73.9749" width="163.078" height="176.759" filterUnits="userSpaceOnUse" color-interpolation-filters="sRGB"><feFlood flood-opacity="0" result="BackgroundImageFix"/><feColorMatrix in="SourceAlpha" values="0 0 0 0 0 0 0 0 0 0 0 0 0 0 0 0 0 0 127 0" result="hardAlpha"/><feOffset dy="1.8929"/><feGaussianBlur stdDeviation=".757161"/><feColorMatrix values="0 0 0 0 0.109804 0 0 0 0 0.0509804 0 0 0 0 0.247059 0 0 0 0.0196802 0"/><feBlend in2="BackgroundImageFix" result="effect1_dropShadow_1314_19858"/><feColorMatrix in="SourceAlpha" values="0 0 0 0 0 0 0 0 0 0 0 0 0 0 0 0 0 0 127 0" result="hardAlpha"/><feOffset dy="4.54891"/><feGaussianBlur stdDeviation="1.81956"/><feColorMatrix values="0 0 0 0 0.109804 0 0 0 0 0.0509804 0 0 0 0 0.247059 0 0 0 0.0282725 0"/><feBlend in2="effect1_dropShadow_1314_19858" result="effect2_dropShadow_1314_19858"/><feColorMatrix in="SourceAlpha" values="0 0 0 0 0 0 0 0 0 0 0 0 0 0 0 0 0 0 127 0" result="hardAlpha"/><feOffset dy="8.56519"/><feGaussianBlur stdDeviation="3.42608"/><feColorMatrix values="0 0 0 0 0.109804 0 0 0 0 0.0509804 0 0 0 0 0.247059 0 0 0 0.035 0"/><feBlend in2="effect2_dropShadow_1314_19858" result="effect3_dropShadow_1314_19858"/><feColorMatrix in="SourceAlpha" values="0 0 0 0 0 0 0 0 0 0 0 0 0 0 0 0 0 0 127 0" result="hardAlpha"/><feOffset dy="15.2788"/><feGaussianBlur stdDeviation="6.11153"/><feColorMatrix values="0 0 0 0 0.109804 0 0 0 0 0.0509804 0 0 0 0 0.247059 0 0 0 0.0417275 0"/><feBlend in2="effect3_dropShadow_1314_19858" result="effect4_dropShadow_1314_19858"/><feColorMatrix in="SourceAlpha" values="0 0 0 0 0 0 0 0 0 0 0 0 0 0 0 0 0 0 127 0" result="hardAlpha"/><feOffset dy="28.5774"/><feGaussianBlur stdDeviation="11.431"/><feColorMatrix values="0 0 0 0 0.109804 0 0 0 0 0.0509804 0 0 0 0 0.247059 0 0 0 0.0503198 0"/><feBlend in2="effect4_dropShadow_1314_19858" result="effect5_dropShadow_1314_19858"/><feColorMatrix in="SourceAlpha" values="0 0 0 0 0 0 0 0 0 0 0 0 0 0 0 0 0 0 127 0" result="hardAlpha"/><feOffset dy="68.4036"/><feGaussianBlur stdDeviation="27.3614"/><feColorMatrix values="0 0 0 0 0.109804 0 0 0 0 0.0509804 0 0 0 0 0.247059 0 0 0 0.07 0"/><feBlend in2="effect5_dropShadow_1314_19858" result="effect6_dropShadow_1314_19858"/><feBlend in="SourceGraphic" in2="effect6_dropShadow_1314_19858" result="shape"/></filter><filter id="filter7_dddddd_1314_19858" x="63.7194" y="73.9749" width="163.078" height="176.759" filterUnits="userSpaceOnUse" color-interpolation-filters="sRGB"><feFlood flood-opacity="0" result="BackgroundImageFix"/><feColorMatrix in="SourceAlpha" values="0 0 0 0 0 0 0 0 0 0 0 0 0 0 0 0 0 0 127 0" result="hardAlpha"/><feOffset dy="1.8929"/><feGaussianBlur stdDeviation=".757161"/><feColorMatrix values="0 0 0 0 0.109804 0 0 0 0 0.0509804 0 0 0 0 0.247059 0 0 0 0.0196802 0"/><feBlend in2="BackgroundImageFix" result="effect1_dropShadow_1314_19858"/><feColorMatrix in="SourceAlpha" values="0 0 0 0 0 0 0 0 0 0 0 0 0 0 0 0 0 0 127 0" result="hardAlpha"/><feOffset dy="4.54891"/><feGaussianBlur stdDeviation="1.81956"/><feColorMatrix values="0 0 0 0 0.109804 0 0 0 0 0.0509804 0 0 0 0 0.247059 0 0 0 0.0282725 0"/><feBlend in2="effect1_dropShadow_1314_19858" result="effect2_dropShadow_1314_19858"/><feColorMatrix in="SourceAlpha" values="0 0 0 0 0 0 0 0 0 0 0 0 0 0 0 0 0 0 127 0" result="hardAlpha"/><feOffset dy="8.56519"/><feGaussianBlur stdDeviation="3.42608"/><feColorMatrix values="0 0 0 0 0.109804 0 0 0 0 0.0509804 0 0 0 0 0.247059 0 0 0 0.035 0"/><feBlend in2="effect2_dropShadow_1314_19858" result="effect3_dropShadow_1314_19858"/><feColorMatrix in="SourceAlpha" values="0 0 0 0 0 0 0 0 0 0 0 0 0 0 0 0 0 0 127 0" result="hardAlpha"/><feOffset dy="15.2788"/><feGaussianBlur stdDeviation="6.11153"/><feColorMatrix values="0 0 0 0 0.109804 0 0 0 0 0.0509804 0 0 0 0 0.247059 0 0 0 0.0417275 0"/><feBlend in2="effect3_dropShadow_1314_19858" result="effect4_dropShadow_1314_19858"/><feColorMatrix in="SourceAlpha" values="0 0 0 0 0 0 0 0 0 0 0 0 0 0 0 0 0 0 127 0" result="hardAlpha"/><feOffset dy="28.5774"/><feGaussianBlur stdDeviation="11.431"/><feColorMatrix values="0 0 0 0 0.109804 0 0 0 0 0.0509804 0 0 0 0 0.247059 0 0 0 0.0503198 0"/><feBlend in2="effect4_dropShadow_1314_19858" result="effect5_dropShadow_1314_19858"/><feColorMatrix in="SourceAlpha" values="0 0 0 0 0 0 0 0 0 0 0 0 0 0 0 0 0 0 127 0" result="hardAlpha"/><feOffset dy="68.4036"/><feGaussianBlur stdDeviation="27.3614"/><feColorMatrix values="0 0 0 0 0.109804 0 0 0 0 0.0509804 0 0 0 0 0.247059 0 0 0 0.07 0"/><feBlend in2="effect5_dropShadow_1314_19858" result="effect6_dropShadow_1314_19858"/><feBlend in="SourceGraphic" in2="effect6_dropShadow_1314_19858" result="shape"/></filter><filter id="filter8_dddddd_1314_19858" x="127.203" y="73.9749" width="163.078" height="176.759" filterUnits="userSpaceOnUse" color-interpolation-filters="sRGB"><feFlood flood-opacity="0" result="BackgroundImageFix"/><feColorMatrix in="SourceAlpha" values="0 0 0 0 0 0 0 0 0 0 0 0 0 0 0 0 0 0 127 0" result="hardAlpha"/><feOffset dy="1.8929"/><feGaussianBlur stdDeviation=".757161"/><feColorMatrix values="0 0 0 0 0.109804 0 0 0 0 0.0509804 0 0 0 0 0.247059 0 0 0 0.0196802 0"/><feBlend in2="BackgroundImageFix" result="effect1_dropShadow_1314_19858"/><feColorMatrix in="SourceAlpha" values="0 0 0 0 0 0 0 0 0 0 0 0 0 0 0 0 0 0 127 0" result="hardAlpha"/><feOffset dy="4.54891"/><feGaussianBlur stdDeviation="1.81956"/><feColorMatrix values="0 0 0 0 0.109804 0 0 0 0 0.0509804 0 0 0 0 0.247059 0 0 0 0.0282725 0"/><feBlend in2="effect1_dropShadow_1314_19858" result="effect2_dropShadow_1314_19858"/><feColorMatrix in="SourceAlpha" values="0 0 0 0 0 0 0 0 0 0 0 0 0 0 0 0 0 0 127 0" result="hardAlpha"/><feOffset dy="8.56519"/><feGaussianBlur stdDeviation="3.42608"/><feColorMatrix values="0 0 0 0 0.109804 0 0 0 0 0.0509804 0 0 0 0 0.247059 0 0 0 0.035 0"/><feBlend in2="effect2_dropShadow_1314_19858" result="effect3_dropShadow_1314_19858"/><feColorMatrix in="SourceAlpha" values="0 0 0 0 0 0 0 0 0 0 0 0 0 0 0 0 0 0 127 0" result="hardAlpha"/><feOffset dy="15.2788"/><feGaussianBlur stdDeviation="6.11153"/><feColorMatrix values="0 0 0 0 0.109804 0 0 0 0 0.0509804 0 0 0 0 0.247059 0 0 0 0.0417275 0"/><feBlend in2="effect3_dropShadow_1314_19858" result="effect4_dropShadow_1314_19858"/><feColorMatrix in="SourceAlpha" values="0 0 0 0 0 0 0 0 0 0 0 0 0 0 0 0 0 0 127 0" result="hardAlpha"/><feOffset dy="28.5774"/><feGaussianBlur stdDeviation="11.431"/><feColorMatrix values="0 0 0 0 0.109804 0 0 0 0 0.0509804 0 0 0 0 0.247059 0 0 0 0.0503198 0"/><feBlend in2="effect4_dropShadow_1314_19858" result="effect5_dropShadow_1314_19858"/><feColorMatrix in="SourceAlpha" values="0 0 0 0 0 0 0 0 0 0 0 0 0 0 0 0 0 0 127 0" result="hardAlpha"/><feOffset dy="68.4036"/><feGaussianBlur stdDeviation="27.3614"/><feColorMatrix values="0 0 0 0 0.109804 0 0 0 0 0.0509804 0 0 0 0 0.247059 0 0 0 0.07 0"/><feBlend in2="effect5_dropShadow_1314_19858" result="effect6_dropShadow_1314_19858"/><feBlend in="SourceGraphic" in2="effect6_dropShadow_1314_19858" result="shape"/></filter><filter id="filter9_dddddd_1314_19858" x="31.9776" y="147.459" width="163.078" height="176.759" filterUnits="userSpaceOnUse" color-interpolation-filters="sRGB"><feFlood flood-opacity="0" result="BackgroundImageFix"/><feColorMatrix in="SourceAlpha" values="0 0 0 0 0 0 0 0 0 0 0 0 0 0 0 0 0 0 127 0" result="hardAlpha"/><feOffset dy="1.8929"/><feGaussianBlur stdDeviation=".757161"/><feColorMatrix values="0 0 0 0 0.109804 0 0 0 0 0.0509804 0 0 0 0 0.247059 0 0 0 0.0196802 0"/><feBlend in2="BackgroundImageFix" result="effect1_dropShadow_1314_19858"/><feColorMatrix in="SourceAlpha" values="0 0 0 0 0 0 0 0 0 0 0 0 0 0 0 0 0 0 127 0" result="hardAlpha"/><feOffset dy="4.54891"/><feGaussianBlur stdDeviation="1.81956"/><feColorMatrix values="0 0 0 0 0.109804 0 0 0 0 0.0509804 0 0 0 0 0.247059 0 0 0 0.0282725 0"/><feBlend in2="effect1_dropShadow_1314_19858" result="effect2_dropShadow_1314_19858"/><feColorMatrix in="SourceAlpha" values="0 0 0 0 0 0 0 0 0 0 0 0 0 0 0 0 0 0 127 0" result="hardAlpha"/><feOffset dy="8.56519"/><feGaussianBlur stdDeviation="3.42608"/><feColorMatrix values="0 0 0 0 0.109804 0 0 0 0 0.0509804 0 0 0 0 0.247059 0 0 0 0.035 0"/><feBlend in2="effect2_dropShadow_1314_19858" result="effect3_dropShadow_1314_19858"/><feColorMatrix in="SourceAlpha" values="0 0 0 0 0 0 0 0 0 0 0 0 0 0 0 0 0 0 127 0" result="hardAlpha"/><feOffset dy="15.2788"/><feGaussianBlur stdDeviation="6.11153"/><feColorMatrix values="0 0 0 0 0.109804 0 0 0 0 0.0509804 0 0 0 0 0.247059 0 0 0 0.0417275 0"/><feBlend in2="effect3_dropShadow_1314_19858" result="effect4_dropShadow_1314_19858"/><feColorMatrix in="SourceAlpha" values="0 0 0 0 0 0 0 0 0 0 0 0 0 0 0 0 0 0 127 0" result="hardAlpha"/><feOffset dy="28.5774"/><feGaussianBlur stdDeviation="11.431"/><feColorMatrix values="0 0 0 0 0.109804 0 0 0 0 0.0509804 0 0 0 0 0.247059 0 0 0 0.0503198 0"/><feBlend in2="effect4_dropShadow_1314_19858" result="effect5_dropShadow_1314_19858"/><feColorMatrix in="SourceAlpha" values="0 0 0 0 0 0 0 0 0 0 0 0 0 0 0 0 0 0 127 0" result="hardAlpha"/><feOffset dy="68.4036"/><feGaussianBlur stdDeviation="27.3614"/><feColorMatrix values="0 0 0 0 0.109804 0 0 0 0 0.0509804 0 0 0 0 0.247059 0 0 0 0.07 0"/><feBlend in2="effect5_dropShadow_1314_19858" result="effect6_dropShadow_1314_19858"/><feBlend in="SourceGraphic" in2="effect6_dropShadow_1314_19858" result="shape"/></filter><filter id="filter10_dddddd_1314_19858" x="95.4613" y="147.459" width="163.078" height="176.759" filterUnits="userSpaceOnUse" color-interpolation-filters="sRGB"><feFlood flood-opacity="0" result="BackgroundImageFix"/><feColorMatrix in="SourceAlpha" values="0 0 0 0 0 0 0 0 0 0 0 0 0 0 0 0 0 0 127 0" result="hardAlpha"/><feOffset dy="1.8929"/><feGaussianBlur stdDeviation=".757161"/><feColorMatrix values="0 0 0 0 0.109804 0 0 0 0 0.0509804 0 0 0 0 0.247059 0 0 0 0.0196802 0"/><feBlend in2="BackgroundImageFix" result="effect1_dropShadow_1314_19858"/><feColorMatrix in="SourceAlpha" values="0 0 0 0 0 0 0 0 0 0 0 0 0 0 0 0 0 0 127 0" result="hardAlpha"/><feOffset dy="4.54891"/><feGaussianBlur stdDeviation="1.81956"/><feColorMatrix values="0 0 0 0 0.109804 0 0 0 0 0.0509804 0 0 0 0 0.247059 0 0 0 0.0282725 0"/><feBlend in2="effect1_dropShadow_1314_19858" result="effect2_dropShadow_1314_19858"/><feColorMatrix in="SourceAlpha" values="0 0 0 0 0 0 0 0 0 0 0 0 0 0 0 0 0 0 127 0" result="hardAlpha"/><feOffset dy="8.56519"/><feGaussianBlur stdDeviation="3.42608"/><feColorMatrix values="0 0 0 0 0.109804 0 0 0 0 0.0509804 0 0 0 0 0.247059 0 0 0 0.035 0"/><feBlend in2="effect2_dropShadow_1314_19858" result="effect3_dropShadow_1314_19858"/><feColorMatrix in="SourceAlpha" values="0 0 0 0 0 0 0 0 0 0 0 0 0 0 0 0 0 0 127 0" result="hardAlpha"/><feOffset dy="15.2788"/><feGaussianBlur stdDeviation="6.11153"/><feColorMatrix values="0 0 0 0 0.109804 0 0 0 0 0.0509804 0 0 0 0 0.247059 0 0 0 0.0417275 0"/><feBlend in2="effect3_dropShadow_1314_19858" result="effect4_dropShadow_1314_19858"/><feColorMatrix in="SourceAlpha" values="0 0 0 0 0 0 0 0 0 0 0 0 0 0 0 0 0 0 127 0" result="hardAlpha"/><feOffset dy="28.5774"/><feGaussianBlur stdDeviation="11.431"/><feColorMatrix values="0 0 0 0 0.109804 0 0 0 0 0.0509804 0 0 0 0 0.247059 0 0 0 0.0503198 0"/><feBlend in2="effect4_dropShadow_1314_19858" result="effect5_dropShadow_1314_19858"/><feColorMatrix in="SourceAlpha" values="0 0 0 0 0 0 0 0 0 0 0 0 0 0 0 0 0 0 127 0" result="hardAlpha"/><feOffset dy="68.4036"/><feGaussianBlur stdDeviation="27.3614"/><feColorMatrix values="0 0 0 0 0.109804 0 0 0 0 0.0509804 0 0 0 0 0.247059 0 0 0 0.07 0"/><feBlend in2="effect5_dropShadow_1314_19858" result="effect6_dropShadow_1314_19858"/><feBlend in="SourceGraphic" in2="effect6_dropShadow_1314_19858" result="shape"/></filter><filter id="filter11_dddddd_1314_19858" x="556.5" y=".491211" width="163.078" height="176.759" filterUnits="userSpaceOnUse" color-interpolation-filters="sRGB"><feFlood flood-opacity="0" result="BackgroundImageFix"/><feColorMatrix in="SourceAlpha" values="0 0 0 0 0 0 0 0 0 0 0 0 0 0 0 0 0 0 127 0" result="hardAlpha"/><feOffset dy="1.8929"/><feGaussianBlur stdDeviation=".757161"/><feColorMatrix values="0 0 0 0 0.109804 0 0 0 0 0.0509804 0 0 0 0 0.247059 0 0 0 0.0196802 0"/><feBlend in2="BackgroundImageFix" result="effect1_dropShadow_1314_19858"/><feColorMatrix in="SourceAlpha" values="0 0 0 0 0 0 0 0 0 0 0 0 0 0 0 0 0 0 127 0" result="hardAlpha"/><feOffset dy="4.54891"/><feGaussianBlur stdDeviation="1.81956"/><feColorMatrix values="0 0 0 0 0.109804 0 0 0 0 0.0509804 0 0 0 0 0.247059 0 0 0 0.0282725 0"/><feBlend in2="effect1_dropShadow_1314_19858" result="effect2_dropShadow_1314_19858"/><feColorMatrix in="SourceAlpha" values="0 0 0 0 0 0 0 0 0 0 0 0 0 0 0 0 0 0 127 0" result="hardAlpha"/><feOffset dy="8.56519"/><feGaussianBlur stdDeviation="3.42608"/><feColorMatrix values="0 0 0 0 0.109804 0 0 0 0 0.0509804 0 0 0 0 0.247059 0 0 0 0.035 0"/><feBlend in2="effect2_dropShadow_1314_19858" result="effect3_dropShadow_1314_19858"/><feColorMatrix in="SourceAlpha" values="0 0 0 0 0 0 0 0 0 0 0 0 0 0 0 0 0 0 127 0" result="hardAlpha"/><feOffset dy="15.2788"/><feGaussianBlur stdDeviation="6.11153"/><feColorMatrix values="0 0 0 0 0.109804 0 0 0 0 0.0509804 0 0 0 0 0.247059 0 0 0 0.0417275 0"/><feBlend in2="effect3_dropShadow_1314_19858" result="effect4_dropShadow_1314_19858"/><feColorMatrix in="SourceAlpha" values="0 0 0 0 0 0 0 0 0 0 0 0 0 0 0 0 0 0 127 0" result="hardAlpha"/><feOffset dy="28.5774"/><feGaussianBlur stdDeviation="11.431"/><feColorMatrix values="0 0 0 0 0.109804 0 0 0 0 0.0509804 0 0 0 0 0.247059 0 0 0 0.0503198 0"/><feBlend in2="effect4_dropShadow_1314_19858" result="effect5_dropShadow_1314_19858"/><feColorMatrix in="SourceAlpha" values="0 0 0 0 0 0 0 0 0 0 0 0 0 0 0 0 0 0 127 0" result="hardAlpha"/><feOffset dy="68.4036"/><feGaussianBlur stdDeviation="27.3614"/><feColorMatrix values="0 0 0 0 0.109804 0 0 0 0 0.0509804 0 0 0 0 0.247059 0 0 0 0.07 0"/><feBlend in2="effect5_dropShadow_1314_19858" result="effect6_dropShadow_1314_19858"/><feBlend in="SourceGraphic" in2="effect6_dropShadow_1314_19858" result="shape"/></filter><filter id="filter12_dddddd_1314_19858" x="556.5" y="73.9749" width="163.078" height="176.759" filterUnits="userSpaceOnUse" color-interpolation-filters="sRGB"><feFlood flood-opacity="0" result="BackgroundImageFix"/><feColorMatrix in="SourceAlpha" values="0 0 0 0 0 0 0 0 0 0 0 0 0 0 0 0 0 0 127 0" result="hardAlpha"/><feOffset dy="1.8929"/><feGaussianBlur stdDeviation=".757161"/><feColorMatrix values="0 0 0 0 0.109804 0 0 0 0 0.0509804 0 0 0 0 0.247059 0 0 0 0.0196802 0"/><feBlend in2="BackgroundImageFix" result="effect1_dropShadow_1314_19858"/><feColorMatrix in="SourceAlpha" values="0 0 0 0 0 0 0 0 0 0 0 0 0 0 0 0 0 0 127 0" result="hardAlpha"/><feOffset dy="4.54891"/><feGaussianBlur stdDeviation="1.81956"/><feColorMatrix values="0 0 0 0 0.109804 0 0 0 0 0.0509804 0 0 0 0 0.247059 0 0 0 0.0282725 0"/><feBlend in2="effect1_dropShadow_1314_19858" result="effect2_dropShadow_1314_19858"/><feColorMatrix in="SourceAlpha" values="0 0 0 0 0 0 0 0 0 0 0 0 0 0 0 0 0 0 127 0" result="hardAlpha"/><feOffset dy="8.56519"/><feGaussianBlur stdDeviation="3.42608"/><feColorMatrix values="0 0 0 0 0.109804 0 0 0 0 0.0509804 0 0 0 0 0.247059 0 0 0 0.035 0"/><feBlend in2="effect2_dropShadow_1314_19858" result="effect3_dropShadow_1314_19858"/><feColorMatrix in="SourceAlpha" values="0 0 0 0 0 0 0 0 0 0 0 0 0 0 0 0 0 0 127 0" result="hardAlpha"/><feOffset dy="15.2788"/><feGaussianBlur stdDeviation="6.11153"/><feColorMatrix values="0 0 0 0 0.109804 0 0 0 0 0.0509804 0 0 0 0 0.247059 0 0 0 0.0417275 0"/><feBlend in2="effect3_dropShadow_1314_19858" result="effect4_dropShadow_1314_19858"/><feColorMatrix in="SourceAlpha" values="0 0 0 0 0 0 0 0 0 0 0 0 0 0 0 0 0 0 127 0" result="hardAlpha"/><feOffset dy="28.5774"/><feGaussianBlur stdDeviation="11.431"/><feColorMatrix values="0 0 0 0 0.109804 0 0 0 0 0.0509804 0 0 0 0 0.247059 0 0 0 0.0503198 0"/><feBlend in2="effect4_dropShadow_1314_19858" result="effect5_dropShadow_1314_19858"/><feColorMatrix in="SourceAlpha" values="0 0 0 0 0 0 0 0 0 0 0 0 0 0 0 0 0 0 127 0" result="hardAlpha"/><feOffset dy="68.4036"/><feGaussianBlur stdDeviation="27.3614"/><feColorMatrix values="0 0 0 0 0.109804 0 0 0 0 0.0509804 0 0 0 0 0.247059 0 0 0 0.07 0"/><feBlend in2="effect5_dropShadow_1314_19858" result="effect6_dropShadow_1314_19858"/><feBlend in="SourceGraphic" in2="effect6_dropShadow_1314_19858" result="shape"/></filter><filter id="filter13_dddddd_1314_19858" x="556.5" y="147.459" width="163.078" height="176.759" filterUnits="userSpaceOnUse" color-interpolation-filters="sRGB"><feFlood flood-opacity="0" result="BackgroundImageFix"/><feColorMatrix in="SourceAlpha" values="0 0 0 0 0 0 0 0 0 0 0 0 0 0 0 0 0 0 127 0" result="hardAlpha"/><feOffset dy="1.8929"/><feGaussianBlur stdDeviation=".757161"/><feColorMatrix values="0 0 0 0 0.109804 0 0 0 0 0.0509804 0 0 0 0 0.247059 0 0 0 0.0196802 0"/><feBlend in2="BackgroundImageFix" result="effect1_dropShadow_1314_19858"/><feColorMatrix in="SourceAlpha" values="0 0 0 0 0 0 0 0 0 0 0 0 0 0 0 0 0 0 127 0" result="hardAlpha"/><feOffset dy="4.54891"/><feGaussianBlur stdDeviation="1.81956"/><feColorMatrix values="0 0 0 0 0.109804 0 0 0 0 0.0509804 0 0 0 0 0.247059 0 0 0 0.0282725 0"/><feBlend in2="effect1_dropShadow_1314_19858" result="effect2_dropShadow_1314_19858"/><feColorMatrix in="SourceAlpha" values="0 0 0 0 0 0 0 0 0 0 0 0 0 0 0 0 0 0 127 0" result="hardAlpha"/><feOffset dy="8.56519"/><feGaussianBlur stdDeviation="3.42608"/><feColorMatrix values="0 0 0 0 0.109804 0 0 0 0 0.0509804 0 0 0 0 0.247059 0 0 0 0.035 0"/><feBlend in2="effect2_dropShadow_1314_19858" result="effect3_dropShadow_1314_19858"/><feColorMatrix in="SourceAlpha" values="0 0 0 0 0 0 0 0 0 0 0 0 0 0 0 0 0 0 127 0" result="hardAlpha"/><feOffset dy="15.2788"/><feGaussianBlur stdDeviation="6.11153"/><feColorMatrix values="0 0 0 0 0.109804 0 0 0 0 0.0509804 0 0 0 0 0.247059 0 0 0 0.0417275 0"/><feBlend in2="effect3_dropShadow_1314_19858" result="effect4_dropShadow_1314_19858"/><feColorMatrix in="SourceAlpha" values="0 0 0 0 0 0 0 0 0 0 0 0 0 0 0 0 0 0 127 0" result="hardAlpha"/><feOffset dy="28.5774"/><feGaussianBlur stdDeviation="11.431"/><feColorMatrix values="0 0 0 0 0.109804 0 0 0 0 0.0509804 0 0 0 0 0.247059 0 0 0 0.0503198 0"/><feBlend in2="effect4_dropShadow_1314_19858" result="effect5_dropShadow_1314_19858"/><feColorMatrix in="SourceAlpha" values="0 0 0 0 0 0 0 0 0 0 0 0 0 0 0 0 0 0 127 0" result="hardAlpha"/><feOffset dy="68.4036"/><feGaussianBlur stdDeviation="27.3614"/><feColorMatrix values="0 0 0 0 0.109804 0 0 0 0 0.0509804 0 0 0 0 0.247059 0 0 0 0.07 0"/><feBlend in2="effect5_dropShadow_1314_19858" result="effect6_dropShadow_1314_19858"/><feBlend in="SourceGraphic" in2="effect6_dropShadow_1314_19858" result="shape"/></filter><clipPath id="clip0_1314_19858"><path fill="#fff" d="M355.251 158.279h-16.8612v15.1259h16.8612z"/></clipPath><clipPath id="clip1_1314_19858"><path fill="#fff" d="M348.882 157.896h16.8612v15.1259H348.882z"/></clipPath><clipPath id="clip2_1314_19858"><path fill="#fff" d="M621.402 11.1743h33.2743v32.266H621.402z"/></clipPath><clipPath id="clip3_1314_19858"><path fill="#fff" d="M621.402 84.6581h33.2743v32.266H621.402z"/></clipPath><clipPath id="clip4_1314_19858"><path fill="#fff" d="M621.402 158.142h33.2743v32.266H621.402z"/></clipPath><linearGradient id="paint0_linear_1314_19858" x1="174.592" y1="176.487" x2="182.535" y2="173.34" gradientUnits="userSpaceOnUse"><stop stop-color="#C2C2C4"/><stop offset="1" stop-color="#717073"/></linearGradient></defs></svg>