<svg width="35" height="28" viewBox="0 0 35 28" fill="none" xmlns="http://www.w3.org/2000/svg">
<path d="M33.6263 12.793H18.3334V9.20703H21.0404C21.2865 9.20703 21.4974 9.11914 21.6732 8.94336C21.849 8.76758 21.9369 8.55078 21.9369 8.29297V1.10352C21.9369 0.857422 21.849 0.646484 21.6732 0.470703C21.4974 0.294922 21.2865 0.207031 21.0404 0.207031H13.8334C13.5873 0.207031 13.3763 0.294922 13.2006 0.470703C13.0248 0.646484 12.9369 0.857422 12.9369 1.10352V8.29297C12.9369 8.55078 13.0248 8.76758 13.2006 8.94336C13.3763 9.11914 13.5873 9.20703 13.8334 9.20703H16.5404V12.793H1.22986C0.983765 12.793 0.772827 12.8809 0.597046 13.0566C0.421265 13.2324 0.333374 13.4492 0.333374 13.707C0.333374 13.9531 0.421265 14.1641 0.597046 14.3398C0.772827 14.5156 0.983765 14.6035 1.22986 14.6035H7.54041V18.207H4.83337C4.58728 18.207 4.37634 18.2949 4.20056 18.4707C4.02478 18.6465 3.93689 18.8574 3.93689 19.1035V26.293C3.93689 26.5508 4.02478 26.7676 4.20056 26.9434C4.37634 27.1191 4.58728 27.207 4.83337 27.207H12.0404C12.2865 27.207 12.4974 27.1191 12.6732 26.9434C12.849 26.7676 12.9369 26.5508 12.9369 26.293V19.1035C12.9369 18.8574 12.849 18.6465 12.6732 18.4707C12.4974 18.2949 12.2865 18.207 12.0404 18.207H9.33337V14.6035H25.5404V18.207H22.8334C22.5873 18.207 22.3763 18.2949 22.2006 18.4707C22.0248 18.6465 21.9369 18.8574 21.9369 19.1035V26.293C21.9369 26.5508 22.0248 26.7676 22.2006 26.9434C22.3763 27.1191 22.5873 27.207 22.8334 27.207H30.0404C30.2865 27.207 30.4974 27.1191 30.6732 26.9434C30.849 26.7676 30.9369 26.5508 30.9369 26.293V19.1035C30.9369 18.8574 30.849 18.6465 30.6732 18.4707C30.4974 18.2949 30.2865 18.207 30.0404 18.207H27.3334V14.6035H33.6263C33.8842 14.6035 34.101 14.5156 34.2767 14.3398C34.4525 14.1641 34.5404 13.9531 34.5404 13.707C34.5404 13.4492 34.4525 13.2324 34.2767 13.0566C34.101 12.8809 33.8842 12.793 33.6263 12.793ZM14.7299 2H20.1263V7.39648H14.7299V2ZM11.1263 25.3965H5.72986V20H11.1263V25.3965ZM29.1263 25.3965H23.7299V20H29.1263V25.3965Z" fill="#F2F4F6"/>
</svg>
