<svg width="38" height="37" viewBox="0 0 38 37" fill="none" xmlns="http://www.w3.org/2000/svg">
<path d="M6.06831 16.8815C5.23581 13.3265 5.9681 10.109 8.08789 8.04646C10.3541 5.84146 13.8769 5.19646 17.7233 6.21646L14.7479 7.98646L15.5496 9.26896L20.6216 6.26146L17.5229 1.32646L16.2048 2.10646L17.8235 4.69396C13.5531 3.64397 9.59873 4.44646 6.99331 6.98897C4.4881 9.42647 3.60164 13.154 4.55747 17.219L6.0606 16.8815H6.06831ZM31.105 20.9465C31.421 23.8865 30.6116 26.4665 28.8156 28.2065C27.5283 29.459 25.8171 30.2165 23.8283 30.434L25.6012 27.6065L24.2831 26.8265L21.1921 31.7615L26.2641 34.769L27.0658 33.4865L24.3525 31.874C26.5494 31.5665 28.4533 30.689 29.9102 29.264C32.0377 27.194 33.0089 24.179 32.6466 20.7815L31.1127 20.939L31.105 20.9465ZM12.9827 26.279C13.7458 25.529 14.216 24.509 14.216 23.3765V21.884C14.216 19.604 12.3121 17.7515 9.97643 17.7515C7.64081 17.7515 5.73685 19.604 5.73685 21.884V23.3765C5.73685 24.509 6.20706 25.5365 6.97018 26.279C3.51685 26.9165 1.10414 28.6415 1.10414 30.719V35.0015H18.8333V30.719C18.8333 28.6415 16.4206 26.924 12.975 26.279H12.9827ZM7.27852 21.884C7.27852 20.4365 8.48873 19.2515 9.97643 19.2515C11.4641 19.2515 12.6744 20.429 12.6744 21.884V23.3765C12.6744 24.824 11.4641 26.009 9.97643 26.009C8.48873 26.009 7.27852 24.8315 7.27852 23.3765V21.884ZM17.2994 33.5015H2.64581V30.719C2.64581 29.1965 5.65206 27.5015 9.96873 27.5015C14.2854 27.5015 17.2916 29.1965 17.2916 30.719V33.5015H17.2994ZM30.7119 9.77896C31.475 9.02896 31.9452 8.00897 31.9452 6.87646V5.38397C31.9452 3.10397 30.0412 1.25146 27.7056 1.25146C25.37 1.25146 23.466 3.10397 23.466 5.38397V6.87646C23.466 8.00897 23.9362 9.03646 24.6994 9.77896C21.2537 10.424 18.8487 12.1415 18.8487 14.219V18.5015H36.5779V14.219C36.5779 12.1415 34.1652 10.424 30.7196 9.77896H30.7119ZM25.0077 5.38397C25.0077 3.93647 26.2179 2.75146 27.7056 2.75146C29.1933 2.75146 30.4035 3.92897 30.4035 5.38397V6.87646C30.4035 8.32396 29.1933 9.50896 27.7056 9.50896C26.2179 9.50896 25.0077 8.33146 25.0077 6.87646V5.38397ZM35.0285 17.0015H20.3827V14.219C20.3827 12.6965 23.3889 11.0015 27.7056 11.0015C32.0223 11.0015 35.0285 12.6965 35.0285 14.219V17.0015Z" fill="white"/>
</svg>
