<svg width="37" height="28" viewBox="0 0 37 28" fill="none" xmlns="http://www.w3.org/2000/svg">
<path d="M18.6667 16.3965C18.6081 16.3965 18.5495 16.3906 18.4909 16.3789C18.4323 16.3672 18.3737 16.3496 18.3151 16.3262L1.21161 9.13672C1.04755 9.06641 0.912781 8.95508 0.807312 8.80273C0.713562 8.65039 0.666687 8.48047 0.666687 8.29297C0.666687 8.11719 0.713562 7.95312 0.807312 7.80078C0.912781 7.64844 1.04755 7.53711 1.21161 7.4668L18.3151 0.277344C18.4323 0.230469 18.5495 0.207031 18.6667 0.207031C18.7839 0.207031 18.9011 0.230469 19.0182 0.277344L36.1218 7.4668C36.2858 7.53711 36.4147 7.64844 36.5085 7.80078C36.614 7.95312 36.6667 8.11719 36.6667 8.29297C36.6667 8.48047 36.614 8.65039 36.5085 8.80273C36.4147 8.95508 36.2858 9.06641 36.1218 9.13672L19.0182 16.3262C18.9597 16.3496 18.9011 16.3672 18.8425 16.3789C18.7839 16.3906 18.7253 16.3965 18.6667 16.3965ZM3.88348 8.29297L18.6667 14.5156L33.4499 8.29297L18.6667 2.07031L3.88348 8.29297ZM18.6667 21.793C18.6081 21.793 18.5495 21.7871 18.4909 21.7754C18.4323 21.7637 18.3737 21.7461 18.3151 21.7227L1.21161 14.5332C0.988953 14.4395 0.83075 14.2754 0.737 14.041C0.64325 13.8066 0.64325 13.5781 0.737 13.3555C0.83075 13.1211 0.994812 12.957 1.22919 12.8633C1.46356 12.7695 1.69208 12.7695 1.91473 12.8633L18.6667 19.9297L35.4186 12.8633C35.6413 12.7695 35.8698 12.7695 36.1042 12.8633C36.3386 12.957 36.5026 13.1211 36.5964 13.3555C36.6901 13.5781 36.6901 13.8066 36.5964 14.041C36.5026 14.2754 36.3444 14.4395 36.1218 14.5332L19.0182 21.7227C18.9597 21.7461 18.9011 21.7637 18.8425 21.7754C18.7839 21.7871 18.7253 21.793 18.6667 21.793ZM18.6667 27.207C18.6081 27.207 18.5495 27.2012 18.4909 27.1895C18.4323 27.1777 18.3737 27.1602 18.3151 27.1367L1.21161 19.9297C0.988953 19.8359 0.83075 19.6719 0.737 19.4375C0.64325 19.2031 0.64325 18.9746 0.737 18.752C0.83075 18.5176 0.994812 18.3535 1.22919 18.2598C1.46356 18.166 1.69208 18.1719 1.91473 18.2773L18.6667 25.3262L35.4186 18.2773C35.6413 18.1719 35.8698 18.166 36.1042 18.2598C36.3386 18.3535 36.5026 18.5176 36.5964 18.752C36.6901 18.9746 36.6901 19.2031 36.5964 19.4375C36.5026 19.6719 36.3444 19.8359 36.1218 19.9297L19.0182 27.1367C18.9597 27.1602 18.9011 27.1777 18.8425 27.1895C18.7839 27.2012 18.7253 27.207 18.6667 27.207Z" fill="#F2F4F6"/>
</svg>
