<svg width="64" height="65" viewBox="0 0 64 65" fill="none" xmlns="http://www.w3.org/2000/svg">
<path opacity="0.8" d="M45.5938 37.4272C45.375 37.4272 45.1875 37.3491 45.0312 37.1929C44.875 37.0366 44.7969 36.8491 44.7969 36.6304V30.9897C44.7969 28.9585 44.5104 27.1512 43.9375 25.5679C43.375 23.9741 42.5469 22.6304 41.4531 21.5366C40.3594 20.4429 39.0156 19.6147 37.4219 19.0522C35.8385 18.4793 34.0312 18.1929 32 18.1929C29.9688 18.1929 28.1562 18.4793 26.5625 19.0522C24.9792 19.6147 23.6406 20.4429 22.5469 21.5366C21.4531 22.6304 20.6198 23.9741 20.0469 25.5679C19.4844 27.1512 19.2031 28.9585 19.2031 30.9897V36.6304C19.2031 36.8491 19.125 37.0366 18.9688 37.1929C18.8125 37.3491 18.625 37.4272 18.4062 37.4272C18.1771 37.4272 17.9844 37.3491 17.8281 37.1929C17.6719 37.0366 17.5938 36.8491 17.5938 36.6304V30.9897C17.5938 30.3856 17.6146 29.797 17.6562 29.2241C17.7083 28.6512 17.7812 28.0939 17.875 27.5522C17.9792 27.0106 18.099 26.4897 18.2344 25.9897C18.3802 25.4793 18.5417 24.9897 18.7188 24.521C18.9062 24.0731 19.1094 23.646 19.3281 23.2397C19.5469 22.8231 19.7865 22.4272 20.0469 22.0522C20.3073 21.6668 20.5885 21.3022 20.8906 20.9585C21.1927 20.6147 21.5104 20.2918 21.8438 19.9897C22.4688 19.4377 23.151 18.9481 23.8906 18.521C24.6406 18.0939 25.4427 17.7397 26.2969 17.4585C27.151 17.1668 28.0521 16.9481 29 16.8022C29.9583 16.6564 30.9583 16.5835 32 16.5835C33.0417 16.5835 34.0365 16.6564 34.9844 16.8022C35.9427 16.9481 36.849 17.1668 37.7031 17.4585C38.5573 17.7397 39.3542 18.0939 40.0938 18.521C40.8438 18.9481 41.5312 19.4377 42.1562 19.9897C42.4896 20.2918 42.8073 20.6147 43.1094 20.9585C43.4115 21.3022 43.6927 21.6668 43.9531 22.0522C44.2135 22.4272 44.4531 22.8231 44.6719 23.2397C44.8906 23.646 45.0938 24.0731 45.2812 24.521C45.4583 24.9897 45.6146 25.4793 45.75 25.9897C45.8958 26.4897 46.0156 27.0106 46.1094 27.5522C46.2135 28.0939 46.2865 28.6512 46.3281 29.2241C46.3802 29.797 46.4062 30.3856 46.4062 30.9897V36.6304C46.4062 36.8491 46.3281 37.0366 46.1719 37.1929C46.0156 37.3491 45.8229 37.4272 45.5938 37.4272ZM26.4062 29.396C25.875 29.396 25.401 29.547 24.9844 29.8491C24.5781 30.1512 24.2917 30.5366 24.125 31.0054C23.25 31.0679 22.4896 31.2397 21.8438 31.521C21.2083 31.7918 20.6875 32.1825 20.2812 32.6929C19.9062 33.1512 19.6302 33.6981 19.4531 34.3335C19.2865 34.9689 19.2031 35.7189 19.2031 36.5835C19.2031 37.4585 19.2865 38.2137 19.4531 38.8491C19.6302 39.4845 19.9062 40.0314 20.2812 40.4897C20.6875 41.0002 21.2083 41.396 21.8438 41.6772C22.4896 41.9481 23.25 42.1147 24.125 42.1772C24.2917 42.646 24.5781 43.0314 24.9844 43.3335C25.401 43.6356 25.875 43.7866 26.4062 43.7866C27.0625 43.7866 27.625 43.5522 28.0938 43.0835C28.5625 42.6147 28.7969 42.0522 28.7969 41.396V31.7866C28.7969 31.1304 28.5625 30.5679 28.0938 30.0991C27.625 29.6304 27.0625 29.396 26.4062 29.396ZM20.7969 36.5835C20.7969 35.4585 21 34.547 21.4062 33.8491C21.8125 33.1512 22.6771 32.745 24 32.6304V40.5522C22.6771 40.4377 21.8125 40.0314 21.4062 39.3335C21 38.6356 20.7969 37.7189 20.7969 36.5835ZM27.2031 41.396C27.2031 41.6147 27.125 41.8022 26.9688 41.9585C26.8125 42.1147 26.625 42.1929 26.4062 42.1929C26.1771 42.1929 25.9844 42.1147 25.8281 41.9585C25.6719 41.8022 25.5938 41.6147 25.5938 41.396V31.7866C25.5938 31.5679 25.6719 31.3804 25.8281 31.2241C25.9844 31.0679 26.1771 30.9897 26.4062 30.9897C26.625 30.9897 26.8125 31.0679 26.9688 31.2241C27.125 31.3804 27.2031 31.5679 27.2031 31.7866V41.396ZM43.7188 32.6929C43.3125 32.1825 42.7865 31.7918 42.1406 31.521C41.5052 31.2397 40.75 31.0679 39.875 31.0054C39.7083 30.5366 39.4167 30.1512 39 29.8491C38.5938 29.547 38.125 29.396 37.5938 29.396C36.9375 29.396 36.375 29.6304 35.9062 30.0991C35.4375 30.5679 35.2031 31.1304 35.2031 31.7866V41.396C35.2031 42.0522 35.4375 42.6147 35.9062 43.0835C36.375 43.5522 36.9375 43.7866 37.5938 43.7866C38.125 43.7866 38.5938 43.6356 39 43.3335C39.4167 43.0314 39.7083 42.646 39.875 42.1772C40.5833 42.1252 41.2135 42.0054 41.7656 41.8179C42.3177 41.6304 42.7969 41.3647 43.2031 41.021V42.9897C43.2031 43.6564 42.9688 44.2241 42.5 44.6929C42.0312 45.1616 41.4635 45.396 40.7969 45.396H35.0625C34.8958 44.9272 34.6042 44.5418 34.1875 44.2397C33.7812 43.9377 33.3177 43.7866 32.7969 43.7866C32.1406 43.7866 31.5781 44.021 31.1094 44.4897C30.6406 44.9585 30.4062 45.5262 30.4062 46.1929C30.4062 46.8491 30.6406 47.4116 31.1094 47.8804C31.5781 48.3491 32.1406 48.5835 32.7969 48.5835C33.3177 48.5835 33.7812 48.4325 34.1875 48.1304C34.6042 47.8387 34.8958 47.4585 35.0625 46.9897H40.7969C41.349 46.9897 41.8646 46.8856 42.3438 46.6772C42.8333 46.4689 43.2604 46.1825 43.625 45.8179C43.9896 45.4533 44.276 45.0314 44.4844 44.5522C44.6927 44.0627 44.7969 43.5418 44.7969 42.9897V36.5835C44.7969 35.7189 44.7083 34.9689 44.5312 34.3335C44.3646 33.6981 44.0938 33.1512 43.7188 32.6929ZM32.7969 46.9897C32.5781 46.9897 32.3906 46.9116 32.2344 46.7554C32.0781 46.5991 32 46.4116 32 46.1929C32 45.9741 32.0781 45.7866 32.2344 45.6304C32.3906 45.4741 32.5781 45.396 32.7969 45.396C33.0156 45.396 33.2031 45.4741 33.3594 45.6304C33.5156 45.7866 33.5938 45.9741 33.5938 46.1929C33.5938 46.4116 33.5156 46.5991 33.3594 46.7554C33.2031 46.9116 33.0156 46.9897 32.7969 46.9897ZM37.5938 42.1929C37.375 42.1929 37.1875 42.1147 37.0312 41.9585C36.875 41.8022 36.7969 41.6147 36.7969 41.396V31.7866C36.7969 31.5679 36.875 31.3804 37.0312 31.2241C37.1875 31.0679 37.375 30.9897 37.5938 30.9897C37.8229 30.9897 38.0156 31.0679 38.1719 31.2241C38.3281 31.3804 38.4062 31.5679 38.4062 31.7866V41.396C38.4062 41.6147 38.3281 41.8022 38.1719 41.9585C38.0156 42.1147 37.8229 42.1929 37.5938 42.1929ZM40 40.5522V32.6304C41.3229 32.745 42.1875 33.1512 42.5938 33.8491C43 34.547 43.2031 35.4585 43.2031 36.5835C43.2031 37.7189 43 38.6356 42.5938 39.3335C42.1875 40.0314 41.3229 40.4377 40 40.5522Z" fill="white" fill-opacity="0.8"/>
</svg>
