<svg width="64" height="65" viewBox="0 0 64 65" fill="none" xmlns="http://www.w3.org/2000/svg">
<path opacity="0.8" d="M36.7969 26.9429C36.7969 26.8075 36.7656 26.4793 36.7031 25.9585C36.6406 25.4377 36.4844 24.8804 36.2344 24.2866C36.0677 23.87 35.8646 23.5002 35.625 23.1772C35.3854 22.8439 35.1146 22.5575 34.8125 22.3179C34.7396 22.2554 34.6615 22.1981 34.5781 22.146C34.4948 22.0835 34.4115 22.0314 34.3281 21.9897C34.599 21.6981 34.8125 21.3647 34.9688 20.9897C35.125 20.6147 35.2031 20.2137 35.2031 19.7866C35.2031 19.3491 35.1198 18.9377 34.9531 18.5522C34.7865 18.1564 34.5573 17.8179 34.2656 17.5366C33.974 17.245 33.6302 17.0158 33.2344 16.8491C32.849 16.672 32.4375 16.5835 32 16.5835C31.5625 16.5835 31.1458 16.672 30.75 16.8491C30.3646 17.0158 30.026 17.245 29.7344 17.5366C29.4427 17.8179 29.2135 18.1564 29.0469 18.5522C28.8802 18.9377 28.7969 19.3491 28.7969 19.7866C28.7969 20.2137 28.875 20.6147 29.0312 20.9897C29.1875 21.3647 29.401 21.6981 29.6719 21.9897C29.5885 22.0314 29.5052 22.0835 29.4219 22.146C29.3385 22.1981 29.2604 22.2554 29.1875 22.3179C28.8854 22.5575 28.6146 22.8439 28.375 23.1772C28.1354 23.5002 27.9323 23.87 27.7656 24.2866C27.4844 24.9533 27.3177 25.5627 27.2656 26.1147C27.224 26.6668 27.2031 26.9585 27.2031 26.9897C27.2031 27.2085 27.2812 27.396 27.4375 27.5522C27.5938 27.7085 27.7812 27.7866 28 27.7866H36C36.2188 27.7866 36.4062 27.7085 36.5625 27.5522C36.7188 27.396 36.7969 27.2085 36.7969 26.9897C36.7969 26.9793 36.7969 26.9689 36.7969 26.9585C36.7969 26.9481 36.7969 26.9429 36.7969 26.9429ZM30.4062 19.7866C30.4062 19.3491 30.5625 18.9741 30.875 18.6616C31.1875 18.3491 31.5625 18.1929 32 18.1929C32.4375 18.1929 32.8125 18.3491 33.125 18.6616C33.4375 18.9741 33.5938 19.3491 33.5938 19.7866C33.5938 20.2345 33.4375 20.6147 33.125 20.9272C32.8125 21.2397 32.4375 21.396 32 21.396C31.5625 21.396 31.1875 21.2397 30.875 20.9272C30.5625 20.6147 30.4062 20.2345 30.4062 19.7866ZM28.875 26.1929C28.9062 26.0054 28.9479 25.8022 29 25.5835C29.0625 25.3543 29.1406 25.1252 29.2344 24.896C29.5052 24.2502 29.8646 23.771 30.3125 23.4585C30.7708 23.146 31.3333 22.9897 32 22.9897C32.5729 22.9897 33.0469 23.1043 33.4219 23.3335C33.8073 23.5522 34.1146 23.8283 34.3438 24.1616C34.5833 24.4845 34.7604 24.8335 34.875 25.2085C35 25.5731 35.0833 25.9012 35.125 26.1929H28.875ZM25.5938 44.5366C25.5938 44.4012 25.5625 44.0783 25.5 43.5679C25.4375 43.047 25.2812 42.4845 25.0312 41.8804C24.8646 41.4741 24.6615 41.1043 24.4219 40.771C24.1823 40.4377 23.9115 40.1512 23.6094 39.9116C23.5365 39.8491 23.4583 39.7918 23.375 39.7397C23.2917 39.6877 23.2083 39.6356 23.125 39.5835C23.3958 39.2918 23.6094 38.9585 23.7656 38.5835C23.9219 38.2085 24 37.8127 24 37.396C24 36.9481 23.9167 36.5314 23.75 36.146C23.5833 35.7606 23.3542 35.422 23.0625 35.1304C22.7708 34.8387 22.4323 34.6095 22.0469 34.4429C21.6615 34.2762 21.2448 34.1929 20.7969 34.1929C20.3594 34.1929 19.9427 34.2762 19.5469 34.4429C19.1615 34.6095 18.8229 34.8387 18.5312 35.1304C18.25 35.422 18.0208 35.7606 17.8438 36.146C17.6771 36.5314 17.5938 36.9481 17.5938 37.396C17.5938 37.8127 17.6719 38.2085 17.8281 38.5835C17.9844 38.9585 18.1979 39.2918 18.4688 39.5835C18.3854 39.6356 18.3021 39.6877 18.2188 39.7397C18.1458 39.7918 18.0677 39.8491 17.9844 39.9116C17.6823 40.1512 17.4115 40.4377 17.1719 40.771C16.9323 41.1043 16.7292 41.4741 16.5625 41.8804C16.2812 42.547 16.1146 43.1616 16.0625 43.7241C16.0208 44.2762 16 44.5627 16 44.5835C16 44.8127 16.0781 45.0054 16.2344 45.1616C16.3906 45.3179 16.5781 45.396 16.7969 45.396H24.7969C25.0156 45.396 25.2031 45.3179 25.3594 45.1616C25.5156 45.0054 25.5938 44.8127 25.5938 44.5835C25.5938 44.5835 25.5938 44.5783 25.5938 44.5679C25.5938 44.5575 25.5938 44.547 25.5938 44.5366ZM19.2031 37.396C19.2031 36.9481 19.3594 36.5679 19.6719 36.2554C19.9844 35.9429 20.3594 35.7866 20.7969 35.7866C21.2448 35.7866 21.625 35.9429 21.9375 36.2554C22.25 36.5679 22.4062 36.9481 22.4062 37.396C22.4062 37.8335 22.25 38.2085 21.9375 38.521C21.625 38.8335 21.2448 38.9897 20.7969 38.9897C20.3594 38.9897 19.9844 38.8335 19.6719 38.521C19.3594 38.2085 19.2031 37.8335 19.2031 37.396ZM17.6875 43.7866C17.7083 43.5991 17.7448 43.396 17.7969 43.1772C17.8594 42.9481 17.9375 42.7189 18.0312 42.4897C18.3021 41.8543 18.6667 41.3804 19.125 41.0679C19.5833 40.745 20.1406 40.5835 20.7969 40.5835C21.3698 40.5835 21.8438 40.6981 22.2188 40.9272C22.6042 41.146 22.9115 41.422 23.1406 41.7554C23.3802 42.0783 23.5573 42.4272 23.6719 42.8022C23.7969 43.1668 23.8802 43.495 23.9219 43.7866H17.6875ZM48 44.5366C48 44.4012 47.9688 44.0783 47.9062 43.5679C47.8438 43.047 47.6875 42.4845 47.4375 41.8804C47.2708 41.4741 47.0677 41.1043 46.8281 40.771C46.5885 40.4377 46.3177 40.1512 46.0156 39.9116C45.9323 39.8491 45.849 39.7918 45.7656 39.7397C45.6927 39.6877 45.6146 39.6356 45.5312 39.5835C45.8021 39.2918 46.0156 38.9585 46.1719 38.5835C46.3281 38.2085 46.4062 37.8127 46.4062 37.396C46.4062 36.9481 46.3177 36.5314 46.1406 36.146C45.974 35.7606 45.7448 35.422 45.4531 35.1304C45.1719 34.8387 44.8333 34.6095 44.4375 34.4429C44.0521 34.2762 43.6406 34.1929 43.2031 34.1929C42.7552 34.1929 42.3385 34.2762 41.9531 34.4429C41.5677 34.6095 41.2292 34.8387 40.9375 35.1304C40.6458 35.422 40.4167 35.7606 40.25 36.146C40.0833 36.5314 40 36.9481 40 37.396C40 37.8127 40.0781 38.2085 40.2344 38.5835C40.3906 38.9585 40.6042 39.2918 40.875 39.5835C40.7917 39.6356 40.7083 39.6877 40.625 39.7397C40.5417 39.7918 40.4635 39.8491 40.3906 39.9116C40.0885 40.1512 39.8177 40.4377 39.5781 40.771C39.3385 41.1043 39.1354 41.4741 38.9688 41.8804C38.6875 42.547 38.5208 43.1616 38.4688 43.7241C38.4271 44.2762 38.4062 44.5627 38.4062 44.5835C38.4062 44.8127 38.4844 45.0054 38.6406 45.1616C38.7969 45.3179 38.9844 45.396 39.2031 45.396H47.2031C47.4219 45.396 47.6094 45.3179 47.7656 45.1616C47.9219 45.0054 48 44.8127 48 44.5835C48 44.5835 48 44.5783 48 44.5679C48 44.5575 48 44.547 48 44.5366ZM41.5938 37.396C41.5938 36.9481 41.75 36.5679 42.0625 36.2554C42.375 35.9429 42.7552 35.7866 43.2031 35.7866C43.6406 35.7866 44.0156 35.9429 44.3281 36.2554C44.6406 36.5679 44.7969 36.9481 44.7969 37.396C44.7969 37.8335 44.6406 38.2085 44.3281 38.521C44.0156 38.8335 43.6406 38.9897 43.2031 38.9897C42.7552 38.9897 42.375 38.8335 42.0625 38.521C41.75 38.2085 41.5938 37.8335 41.5938 37.396ZM40.0781 43.7866C40.1094 43.5991 40.151 43.396 40.2031 43.1772C40.2656 42.9481 40.3438 42.7189 40.4375 42.4897C40.7083 41.8543 41.0677 41.3804 41.5156 41.0679C41.974 40.745 42.5365 40.5835 43.2031 40.5835C43.776 40.5835 44.25 40.6981 44.625 40.9272C45.0104 41.146 45.3177 41.422 45.5469 41.7554C45.7865 42.0783 45.9635 42.4272 46.0781 42.8022C46.1927 43.1668 46.276 43.495 46.3281 43.7866H40.0781ZM32 48.5835C31.4792 48.5835 30.9583 48.5522 30.4375 48.4897C29.9271 48.4272 29.4219 48.3335 28.9219 48.2085C28.4219 48.0835 27.9271 47.9272 27.4375 47.7397C26.9583 47.5627 26.4896 47.3543 26.0312 47.1147C25.8333 47.0106 25.6979 46.8543 25.625 46.646C25.5625 46.4272 25.5833 46.2241 25.6875 46.0366C25.7917 45.8387 25.9479 45.7085 26.1562 45.646C26.375 45.5731 26.5833 45.5887 26.7812 45.6929C27.1771 45.9116 27.5833 46.1043 28 46.271C28.4271 46.4272 28.8594 46.5575 29.2969 46.6616C29.7448 46.7658 30.1927 46.8491 30.6406 46.9116C31.0885 46.9637 31.5417 46.9897 32 46.9897C32.4583 46.9897 32.9115 46.9637 33.3594 46.9116C33.8073 46.8491 34.25 46.7658 34.6875 46.6616C35.1354 46.5575 35.5677 46.4272 35.9844 46.271C36.4115 46.1043 36.8229 45.9116 37.2188 45.6929C37.4167 45.5887 37.6198 45.5731 37.8281 45.646C38.0469 45.7085 38.2083 45.8387 38.3125 46.0366C38.4167 46.2241 38.4323 46.4272 38.3594 46.646C38.2969 46.8543 38.1667 47.0106 37.9688 47.1147C37.5104 47.3543 37.0365 47.5627 36.5469 47.7397C36.0677 47.9272 35.5781 48.0835 35.0781 48.2085C34.5781 48.3335 34.0677 48.4272 33.5469 48.4897C33.0365 48.5522 32.5208 48.5835 32 48.5835ZM43.5625 33.396C43.3958 33.396 43.2396 33.3439 43.0938 33.2397C42.9479 33.1252 42.849 32.9793 42.7969 32.8022C42.6094 32.1356 42.3646 31.495 42.0625 30.8804C41.7604 30.2554 41.401 29.6668 40.9844 29.1147C40.5781 28.5627 40.1198 28.0522 39.6094 27.5835C39.1094 27.1147 38.5625 26.6929 37.9688 26.3179C37.7812 26.1929 37.6615 26.0262 37.6094 25.8179C37.5677 25.5991 37.6042 25.396 37.7188 25.2085C37.8438 25.021 38.0104 24.9064 38.2188 24.8647C38.4375 24.8127 38.6406 24.8439 38.8281 24.9585C39.5052 25.3856 40.1302 25.87 40.7031 26.4116C41.2865 26.9429 41.8125 27.5262 42.2812 28.1616C42.75 28.7866 43.1562 29.4533 43.5 30.1616C43.8438 30.87 44.125 31.6095 44.3438 32.3804C44.3958 32.5887 44.3646 32.7918 44.25 32.9897C44.1458 33.1772 43.9896 33.3022 43.7812 33.3647C43.75 33.3752 43.7135 33.3856 43.6719 33.396C43.6406 33.396 43.6042 33.396 43.5625 33.396ZM20.4375 33.396C20.3958 33.396 20.3542 33.396 20.3125 33.396C20.2812 33.3856 20.25 33.3752 20.2188 33.3647C20.0104 33.3022 19.849 33.1772 19.7344 32.9897C19.6302 32.7918 19.6042 32.5887 19.6562 32.3804C19.875 31.6095 20.1562 30.87 20.5 30.1616C20.8438 29.4533 21.25 28.7866 21.7188 28.1616C22.1875 27.5262 22.7083 26.9429 23.2812 26.4116C23.8646 25.87 24.4948 25.3856 25.1719 24.9585C25.3594 24.8439 25.5573 24.8127 25.7656 24.8647C25.9844 24.9064 26.1562 25.021 26.2812 25.2085C26.3958 25.396 26.4271 25.5991 26.375 25.8179C26.3333 26.0262 26.2188 26.1929 26.0312 26.3179C25.4375 26.6929 24.8854 27.1147 24.375 27.5835C23.875 28.0522 23.4167 28.5627 23 29.1147C22.5938 29.6668 22.2396 30.2554 21.9375 30.8804C21.6354 31.495 21.3906 32.1356 21.2031 32.8022C21.151 32.9793 21.0521 33.1252 20.9062 33.2397C20.7604 33.3439 20.6042 33.396 20.4375 33.396Z" fill="white" fill-opacity="0.8"/>
</svg>
