<svg width="35" height="28" viewBox="0 0 35 28" fill="none" xmlns="http://www.w3.org/2000/svg">
<path d="M17.7702 27.207C16.6452 27.207 15.5436 27.1484 14.4655 27.0312C13.3874 26.9023 12.3444 26.7207 11.3366 26.4863C10.3288 26.252 9.362 25.9648 8.43622 25.625C7.52216 25.2852 6.66669 24.8926 5.86981 24.4473C5.16669 24.0605 4.52802 23.6445 3.9538 23.1992C3.3913 22.7422 2.89325 22.2676 2.45966 21.7754V22.707C2.45966 22.9531 2.37177 23.1641 2.19598 23.3398C2.0202 23.5156 1.80927 23.6035 1.56317 23.6035C1.31708 23.6035 1.10614 23.5156 0.930359 23.3398C0.754578 23.1641 0.666687 22.9531 0.666687 22.707V17.293C0.666687 17.0469 0.754578 16.8359 0.930359 16.6602C1.10614 16.4844 1.31708 16.3965 1.56317 16.3965C1.80927 16.3965 2.0202 16.4844 2.19598 16.6602C2.37177 16.8359 2.45966 17.0469 2.45966 17.293C2.45966 17.8086 2.55341 18.3184 2.74091 18.8223C2.92841 19.3262 3.2038 19.8184 3.56708 20.2988C3.93036 20.7676 4.37567 21.2188 4.90302 21.6523C5.44208 22.0859 6.05731 22.4961 6.74872 22.8828C7.47528 23.2812 8.26044 23.6387 9.10419 23.9551C9.95966 24.2715 10.8503 24.5352 11.7761 24.7461C12.7136 24.957 13.6862 25.1211 14.694 25.2383C15.7018 25.3438 16.7272 25.3965 17.7702 25.3965C18.5554 25.3965 19.3288 25.3672 20.0905 25.3086C20.864 25.2383 21.614 25.1445 22.3405 25.0273C23.0788 24.8984 23.7936 24.7461 24.485 24.5703C25.1882 24.3828 25.862 24.166 26.5065 23.9199C27.1159 23.6855 27.6901 23.4336 28.2292 23.1641C28.78 22.8945 29.2839 22.6074 29.7409 22.3027C30.1979 21.9863 30.614 21.6582 30.989 21.3184C31.364 20.9785 31.6921 20.627 31.9733 20.2637C32.1257 20.0645 32.3249 19.9473 32.571 19.9121C32.8171 19.877 33.0397 19.9355 33.239 20.0879C33.4382 20.2402 33.5554 20.4395 33.5905 20.6855C33.6257 20.9316 33.5671 21.1543 33.4147 21.3535C32.735 22.2441 31.8561 23.0527 30.778 23.7793C29.6999 24.4941 28.4811 25.1035 27.1218 25.6074C25.7624 26.1113 24.2858 26.5039 22.6921 26.7852C21.11 27.0664 19.4694 27.207 17.7702 27.207ZM33.9597 11C33.7136 11 33.5026 11.0879 33.3268 11.2637C33.1511 11.4395 33.0632 11.6504 33.0632 11.8965V12.8281C32.7585 12.4766 32.4128 12.1367 32.0261 11.8086C31.6393 11.4688 31.2175 11.1465 30.7604 10.8418C30.3151 10.5254 29.8347 10.2324 29.319 9.96289C28.8034 9.69336 28.2526 9.44141 27.6667 9.20703V4.70703C27.6667 4.51953 27.614 4.34961 27.5085 4.19727C27.403 4.04492 27.2682 3.93359 27.1042 3.86328L18.1042 0.259766C17.9987 0.224609 17.8874 0.207031 17.7702 0.207031C17.653 0.207031 17.5417 0.224609 17.4362 0.259766L8.43622 3.86328C8.26044 3.93359 8.11981 4.04492 8.01434 4.19727C7.92059 4.34961 7.87372 4.51953 7.87372 4.70703V9.20703C7.25262 9.45312 6.66669 9.72266 6.11591 10.0156C5.56512 10.3086 5.0495 10.625 4.56903 10.9648C4.10028 11.293 3.66669 11.6387 3.26825 12.002C2.86981 12.3652 2.51825 12.7461 2.21356 13.1445C2.06122 13.3438 1.99677 13.5664 2.0202 13.8125C2.05536 14.0586 2.16669 14.2578 2.35419 14.4102C2.43622 14.4688 2.52411 14.5156 2.61786 14.5508C2.72333 14.5859 2.82294 14.6035 2.91669 14.6035C3.04559 14.6035 3.1745 14.5742 3.30341 14.5156C3.43231 14.457 3.53778 14.3691 3.61981 14.252C4.08856 13.6543 4.68036 13.0977 5.3952 12.582C6.12177 12.0547 6.94794 11.5801 7.87372 11.1582V15.5C7.87372 15.6875 7.92059 15.8574 8.01434 16.0098C8.11981 16.1621 8.26044 16.2734 8.43622 16.3438L17.4362 19.9297C17.4831 19.9531 17.5358 19.9707 17.5944 19.9824C17.653 19.9941 17.7116 20 17.7702 20C17.8288 20 17.8815 19.9941 17.9284 19.9824C17.987 19.9707 18.0456 19.9531 18.1042 19.9297L27.1042 16.3438C27.2682 16.2734 27.403 16.1621 27.5085 16.0098C27.614 15.8574 27.6667 15.6875 27.6667 15.5V11.1582C28.4167 11.498 29.1022 11.8789 29.7233 12.3008C30.3444 12.7109 30.8893 13.1504 31.3581 13.6191C31.9206 14.2051 32.3425 14.8086 32.6237 15.4297C32.9167 16.0391 33.0632 16.6602 33.0632 17.293C33.0632 17.5508 33.1511 17.7676 33.3268 17.9434C33.5026 18.1191 33.7136 18.207 33.9597 18.207C34.2175 18.207 34.4343 18.1191 34.61 17.9434C34.7858 17.7676 34.8737 17.5508 34.8737 17.293V11.8965C34.8737 11.6504 34.7858 11.4395 34.61 11.2637C34.4343 11.0879 34.2175 11 33.9597 11ZM17.7702 2.07031L24.3444 4.70703L17.7702 7.32617L11.196 4.70703L17.7702 2.07031ZM9.66669 6.02539L16.8737 8.9082V17.7676L9.66669 14.8848V6.02539ZM18.6667 17.7676V8.9082L25.8737 6.02539V14.8848L18.6667 17.7676Z" fill="#F2F4F6"/>
</svg>
