<svg width="30" height="35" viewBox="0 0 30 35" fill="none" xmlns="http://www.w3.org/2000/svg">
<path d="M29.1328 8.9707L21.0293 0.867188C20.9473 0.785156 20.8477 0.720703 20.7305 0.673828C20.625 0.626953 20.5137 0.603516 20.3965 0.603516H3.29297C2.55469 0.603516 1.92188 0.867188 1.39453 1.39453C0.867188 1.92188 0.603516 2.55469 0.603516 3.29297V32.1035C0.603516 32.8418 0.867188 33.4746 1.39453 34.002C1.92188 34.5293 2.55469 34.793 3.29297 34.793H26.707C27.4453 34.793 28.0781 34.5293 28.6055 34.002C29.1328 33.4746 29.3965 32.8418 29.3965 32.1035V9.60352C29.3965 9.48633 29.373 9.375 29.3262 9.26953C29.2793 9.15234 29.2148 9.05273 29.1328 8.9707ZM27.2344 9.60352H21.293C21.0469 9.60352 20.8359 9.51562 20.6602 9.33984C20.4844 9.16406 20.3965 8.95312 20.3965 8.70703V2.76562L27.2344 9.60352ZM26.707 33H3.29297C3.04688 33 2.83594 32.9121 2.66016 32.7363C2.48438 32.5605 2.39648 32.3496 2.39648 32.1035V3.29297C2.39648 3.04688 2.48438 2.83594 2.66016 2.66016C2.83594 2.48438 3.04688 2.39648 3.29297 2.39648H18.6035V8.70703C18.6035 9.44531 18.8672 10.0781 19.3945 10.6055C19.9219 11.1328 20.5547 11.3965 21.293 11.3965H27.6035V32.1035C27.6035 32.3496 27.5156 32.5605 27.3398 32.7363C27.1641 32.9121 26.9531 33 26.707 33ZM9.60352 29.3965C9.48633 29.3965 9.36914 29.3789 9.25195 29.3438C9.14648 29.2969 9.05273 29.2266 8.9707 29.1328L5.36719 25.5293C5.19141 25.3535 5.10352 25.1426 5.10352 24.8965C5.10352 24.6504 5.19141 24.4395 5.36719 24.2637L8.9707 20.6602C9.14648 20.4844 9.35742 20.3965 9.60352 20.3965C9.84961 20.3965 10.0605 20.4844 10.2363 20.6602C10.4121 20.8359 10.5 21.0527 10.5 21.3105C10.5 21.5566 10.4121 21.7676 10.2363 21.9434L7.26562 24.8965L10.2363 27.8672C10.4121 28.043 10.5 28.2539 10.5 28.5C10.5 28.7461 10.4121 28.957 10.2363 29.1328C10.1543 29.2266 10.0547 29.2969 9.9375 29.3438C9.83203 29.3789 9.7207 29.3965 9.60352 29.3965ZM14.1035 29.3965C14.0684 29.3965 14.0332 29.3965 13.998 29.3965C13.9629 29.3965 13.9277 29.3906 13.8926 29.3789C13.6582 29.3203 13.4707 29.1855 13.3301 28.9746C13.2012 28.7637 13.166 28.541 13.2246 28.3066L14.8594 21.0996C14.918 20.8535 15.0527 20.666 15.2637 20.5371C15.4746 20.4082 15.7031 20.3672 15.9492 20.4141C16.1836 20.4727 16.3652 20.6074 16.4941 20.8184C16.6348 21.0293 16.6758 21.2578 16.6172 21.5039L14.9824 28.6934C14.9355 28.9043 14.8242 29.0742 14.6484 29.2031C14.4844 29.332 14.3027 29.3965 14.1035 29.3965ZM20.3965 29.3965C20.2793 29.3965 20.1621 29.3789 20.0449 29.3438C19.9395 29.2969 19.8457 29.2266 19.7637 29.1328C19.5879 28.957 19.5 28.7461 19.5 28.5C19.5 28.2539 19.5879 28.043 19.7637 27.8672L22.7344 24.8965L19.7637 21.9434C19.5879 21.7676 19.5 21.5566 19.5 21.3105C19.5 21.0527 19.5879 20.8359 19.7637 20.6602C19.9395 20.4844 20.1504 20.3965 20.3965 20.3965C20.6426 20.3965 20.8535 20.4844 21.0293 20.6602L24.6328 24.2637C24.8086 24.4395 24.8965 24.6504 24.8965 24.8965C24.8965 25.1426 24.8086 25.3535 24.6328 25.5293L21.0293 29.1328C20.9473 29.2266 20.8477 29.2969 20.7305 29.3438C20.625 29.3789 20.5137 29.3965 20.3965 29.3965Z" fill="#F2F4F6"/>
</svg>
