<svg width="64" height="65" viewBox="0 0 64 65" fill="none" xmlns="http://www.w3.org/2000/svg">
<g clip-path="url(#clip0_2583_16071)">
<path d="M23.6369 36.6344C23.6369 38.3161 22.2777 39.6753 20.596 39.6753C18.9142 39.6753 17.5551 38.3161 17.5551 36.6344C17.5551 34.9527 18.9142 33.5935 20.596 33.5935H23.6369V36.6344ZM25.1573 36.6344C25.1573 34.9527 26.5165 33.5935 28.1982 33.5935C29.8799 33.5935 31.2391 34.9527 31.2391 36.6344V44.2367C31.2391 45.9184 29.8799 47.2775 28.1982 47.2775C26.5165 47.2775 25.1573 45.9184 25.1573 44.2367V36.6344Z" fill="#E01E5A"/>
<path d="M28.1962 24.4248C26.5145 24.4248 25.1553 23.0656 25.1553 21.3839C25.1553 19.7022 26.5145 18.343 28.1962 18.343C29.8779 18.343 31.2371 19.7022 31.2371 21.3839V24.4248H28.1962ZM28.1962 25.9683C29.8779 25.9683 31.2371 27.3275 31.2371 29.0092C31.2371 30.6909 29.8779 32.0501 28.1962 32.0501H20.5709C18.8892 32.0501 17.53 30.6909 17.53 29.0092C17.53 27.3275 18.8892 25.9683 20.5709 25.9683H28.1962Z" fill="#36C5F0"/>
<path d="M40.3823 29.0092C40.3823 27.3275 41.7415 25.9683 43.4232 25.9683C45.1049 25.9683 46.4641 27.3275 46.4641 29.0092C46.4641 30.6909 45.1049 32.0501 43.4232 32.0501H40.3823V29.0092ZM38.8618 29.0092C38.8618 30.6909 37.5026 32.0501 35.8209 32.0501C34.1392 32.0501 32.78 30.6909 32.78 29.0092V21.3839C32.78 19.7022 34.1392 18.343 35.8209 18.343C37.5026 18.343 38.8618 19.7022 38.8618 21.3839V29.0092Z" fill="#2EB67D"/>
<path d="M35.8209 41.1958C37.5026 41.1958 38.8618 42.5549 38.8618 44.2367C38.8618 45.9184 37.5026 47.2775 35.8209 47.2775C34.1392 47.2775 32.78 45.9184 32.78 44.2367V41.1958H35.8209ZM35.8209 39.6753C34.1392 39.6753 32.78 38.3161 32.78 36.6344C32.78 34.9527 34.1392 33.5935 35.8209 33.5935H43.4462C45.1279 33.5935 46.4871 34.9527 46.4871 36.6344C46.4871 38.3161 45.1279 39.6753 43.4462 39.6753H35.8209Z" fill="#ECB22E"/>
</g>
<defs>
<clipPath id="clip0_2583_16071">
<rect width="29.2571" height="29.2571" fill="white" transform="translate(17.37 18.2048)"/>
</clipPath>
</defs>
</svg>
