<svg width="64" height="65" viewBox="0 0 64 65" fill="none" xmlns="http://www.w3.org/2000/svg">
<path opacity="0.8" d="M24.7969 43.7866H24V29.396H24.7969C25.0156 29.396 25.2031 29.3179 25.3594 29.1616C25.5156 29.0054 25.5938 28.8127 25.5938 28.5835C25.5938 28.3647 25.5156 28.1772 25.3594 28.021C25.2031 27.8647 25.0156 27.7866 24.7969 27.7866H18.4062C18.1771 27.7866 17.9844 27.8647 17.8281 28.021C17.6719 28.1772 17.5938 28.3647 17.5938 28.5835C17.5938 28.8127 17.6719 29.0054 17.8281 29.1616C17.9844 29.3179 18.1771 29.396 18.4062 29.396H19.2031V43.7866H18.4062C18.1771 43.7866 17.9844 43.8647 17.8281 44.021C17.6719 44.1772 17.5938 44.3647 17.5938 44.5835C17.5938 44.8127 17.6719 45.0054 17.8281 45.1616C17.9844 45.3179 18.1771 45.396 18.4062 45.396H24.7969C25.0156 45.396 25.2031 45.3179 25.3594 45.1616C25.5156 45.0054 25.5938 44.8127 25.5938 44.5835C25.5938 44.3647 25.5156 44.1772 25.3594 44.021C25.2031 43.8647 25.0156 43.7866 24.7969 43.7866ZM22.4062 43.7866H20.7969V29.396H22.4062V43.7866ZM34.4062 43.7866H33.5938V29.396H34.4062C34.625 29.396 34.8125 29.3179 34.9688 29.1616C35.125 29.0054 35.2031 28.8127 35.2031 28.5835C35.2031 28.3647 35.125 28.1772 34.9688 28.021C34.8125 27.8647 34.625 27.7866 34.4062 27.7866H28C27.7812 27.7866 27.5938 27.8647 27.4375 28.021C27.2812 28.1772 27.2031 28.3647 27.2031 28.5835C27.2031 28.8127 27.2812 29.0054 27.4375 29.1616C27.5938 29.3179 27.7812 29.396 28 29.396H28.7969V43.7866H28C27.7812 43.7866 27.5938 43.8647 27.4375 44.021C27.2812 44.1772 27.2031 44.3647 27.2031 44.5835C27.2031 44.8127 27.2812 45.0054 27.4375 45.1616C27.5938 45.3179 27.7812 45.396 28 45.396H34.4062C34.625 45.396 34.8125 45.3179 34.9688 45.1616C35.125 45.0054 35.2031 44.8127 35.2031 44.5835C35.2031 44.3647 35.125 44.1772 34.9688 44.021C34.8125 43.8647 34.625 43.7866 34.4062 43.7866ZM32 43.7866H30.4062V29.396H32V43.7866ZM44 43.7866H43.2031V29.396H44C44.2188 29.396 44.4062 29.3179 44.5625 29.1616C44.7188 29.0054 44.7969 28.8127 44.7969 28.5835C44.7969 28.3647 44.7188 28.1772 44.5625 28.021C44.4062 27.8647 44.2188 27.7866 44 27.7866H37.5938C37.375 27.7866 37.1875 27.8647 37.0312 28.021C36.875 28.1772 36.7969 28.3647 36.7969 28.5835C36.7969 28.8127 36.875 29.0054 37.0312 29.1616C37.1875 29.3179 37.375 29.396 37.5938 29.396H38.4062V43.7866H37.5938C37.375 43.7866 37.1875 43.8647 37.0312 44.021C36.875 44.1772 36.7969 44.3647 36.7969 44.5835C36.7969 44.8127 36.875 45.0054 37.0312 45.1616C37.1875 45.3179 37.375 45.396 37.5938 45.396H44C44.2188 45.396 44.4062 45.3179 44.5625 45.1616C44.7188 45.0054 44.7969 44.8127 44.7969 44.5835C44.7969 44.3647 44.7188 44.1772 44.5625 44.021C44.4062 43.8647 44.2188 43.7866 44 43.7866ZM41.5938 43.7866H40V29.396H41.5938V43.7866ZM45.5938 48.5835H16.7969C16.5781 48.5835 16.3906 48.5054 16.2344 48.3491C16.0781 48.1929 16 48.0054 16 47.7866C16 47.5679 16.0781 47.3804 16.2344 47.2241C16.3906 47.0679 16.5781 46.9897 16.7969 46.9897H45.5938C45.8229 46.9897 46.0156 47.0679 46.1719 47.2241C46.3281 47.3804 46.4062 47.5679 46.4062 47.7866C46.4062 48.0054 46.3281 48.1929 46.1719 48.3491C46.0156 48.5054 45.8229 48.5835 45.5938 48.5835ZM44 26.1929H18.4062C18.2188 26.1929 18.0521 26.1408 17.9062 26.0366C17.7708 25.922 17.6771 25.7814 17.625 25.6147C17.5833 25.4377 17.5938 25.2658 17.6562 25.0991C17.7188 24.9325 17.8229 24.8022 17.9688 24.7085L30.7812 16.7085C30.9062 16.6252 31.0417 16.5835 31.1875 16.5835C31.3438 16.5835 31.4896 16.6252 31.625 16.7085L44.4219 24.7085C44.5781 24.8022 44.6875 24.9325 44.75 25.0991C44.8125 25.2658 44.8177 25.4377 44.7656 25.6147C44.7135 25.7814 44.6146 25.922 44.4688 26.0366C44.3333 26.1408 44.1771 26.1929 44 26.1929ZM21.1875 24.5835H41.2031L31.2031 18.3335L21.1875 24.5835Z" fill="white" fill-opacity="0.8"/>
</svg>
