<svg width="36" height="30" viewBox="0 0 36 30" fill="none" xmlns="http://www.w3.org/2000/svg">
<path d="M35.7363 12.3672C35.5605 12.1914 35.3496 12.1035 35.1035 12.1035C34.8574 12.1035 34.6465 12.1914 34.4707 12.3672L32.3965 14.4238C32.373 13.498 32.2617 12.5898 32.0625 11.6992C31.875 10.8086 31.5996 9.94727 31.2363 9.11523C30.8848 8.2832 30.4512 7.49219 29.9355 6.74219C29.4199 5.98047 28.834 5.27148 28.1777 4.61523C27.498 3.93555 26.7656 3.33789 25.9805 2.82227C25.1953 2.29492 24.3691 1.85547 23.502 1.50391C22.6465 1.14062 21.7559 0.865234 20.8301 0.677734C19.9043 0.490234 18.9609 0.396484 18 0.396484C16.6641 0.396484 15.3633 0.578125 14.0977 0.941406C12.8438 1.29297 11.666 1.80273 10.5645 2.4707C9.46289 3.12695 8.46094 3.92969 7.55859 4.87891C6.65625 5.82812 5.88867 6.89453 5.25586 8.07812C5.13867 8.30078 5.11523 8.5293 5.18555 8.76367C5.26758 8.99805 5.41992 9.17383 5.64258 9.29102C5.85352 9.4082 6.07617 9.43164 6.31055 9.36133C6.55664 9.29102 6.73828 9.14453 6.85547 8.92188C7.40625 7.87891 8.07422 6.94727 8.85938 6.12695C9.65625 5.29492 10.5352 4.5918 11.4961 4.01758C12.457 3.43164 13.4883 2.98633 14.5898 2.68164C15.6914 2.36523 16.8281 2.20703 18 2.20703C19.7109 2.20703 21.3164 2.52344 22.8164 3.15625C24.3281 3.78906 25.6465 4.66211 26.7715 5.77539C27.9082 6.87695 28.8164 8.17188 29.4961 9.66016C30.1758 11.1367 30.5391 12.7246 30.5859 14.4238L28.5293 12.3672C28.3535 12.1914 28.1426 12.1035 27.8965 12.1035C27.6504 12.1035 27.4395 12.1914 27.2637 12.3672C27.0879 12.543 27 12.7539 27 13C27 13.2461 27.0879 13.457 27.2637 13.6328L30.8672 17.2363C30.9492 17.3301 31.043 17.4004 31.1484 17.4473C31.2656 17.4824 31.3828 17.5 31.5 17.5C31.6172 17.5 31.7285 17.4824 31.834 17.4473C31.9512 17.4004 32.0508 17.3301 32.1328 17.2363L35.7363 13.6328C35.9121 13.457 36 13.2461 36 13C36 12.7539 35.9121 12.543 35.7363 12.3672ZM30.3574 20.3125C30.1465 20.1953 29.918 20.1719 29.6719 20.2422C29.4375 20.3125 29.2617 20.459 29.1445 20.6816C28.5938 21.7129 27.9258 22.6445 27.1406 23.4766C26.3555 24.3086 25.4766 25.0176 24.5039 25.6035C23.543 26.1777 22.5117 26.623 21.4102 26.9395C20.3086 27.2441 19.1719 27.3965 18 27.3965C16.2891 27.3965 14.6777 27.0801 13.166 26.4473C11.666 25.8027 10.3477 24.9297 9.21094 23.8281C8.08594 22.7266 7.18359 21.4316 6.50391 19.9434C5.82422 18.4551 5.46094 16.8672 5.41406 15.1797L7.4707 17.2363C7.55273 17.3301 7.64648 17.4004 7.75195 17.4473C7.86914 17.4824 7.98633 17.5 8.10352 17.5C8.2207 17.5 8.33203 17.4824 8.4375 17.4473C8.55469 17.4004 8.6543 17.3301 8.73633 17.2363C8.91211 17.0605 9 16.8496 9 16.6035C9 16.3574 8.91211 16.1465 8.73633 15.9707L5.13281 12.3672C4.95703 12.1914 4.74609 12.1035 4.5 12.1035C4.25391 12.1035 4.04297 12.1914 3.86719 12.3672L0.263672 15.9707C0.0878906 16.1465 0 16.3574 0 16.6035C0 16.8496 0.0878906 17.0605 0.263672 17.2363C0.439453 17.4121 0.650391 17.5 0.896484 17.5C1.14258 17.5 1.35352 17.4121 1.5293 17.2363L3.60352 15.1621C3.62695 16.0879 3.73242 17.002 3.91992 17.9043C4.11914 18.7949 4.39453 19.6562 4.74609 20.4883C5.10938 21.3086 5.54883 22.0996 6.06445 22.8613C6.58008 23.6113 7.16602 24.3203 7.82227 24.9883C8.50195 25.668 9.23438 26.2715 10.0195 26.7988C10.8047 27.3145 11.625 27.7539 12.4805 28.1172C13.3477 28.4688 14.2441 28.7383 15.1699 28.9258C16.0957 29.1133 17.0391 29.207 18 29.207C19.3359 29.207 20.6309 29.0312 21.8848 28.6797C23.1504 28.3164 24.334 27.8066 25.4355 27.1504C26.5371 26.4824 27.5391 25.6738 28.4414 24.7246C29.3438 23.7754 30.1113 22.709 30.7441 21.5254C30.8613 21.3027 30.8789 21.0742 30.7969 20.8398C30.7266 20.5938 30.5801 20.418 30.3574 20.3125Z" fill="#F2F4F6"/>
</svg>
