<svg width="37" height="22" viewBox="0 0 37 22" fill="none" xmlns="http://www.w3.org/2000/svg">
<path d="M29.1439 21.6035H11.1263C9.63806 21.6035 8.23767 21.3223 6.92517 20.7598C5.62439 20.1855 4.48181 19.4121 3.49744 18.4395C2.52478 17.4551 1.75134 16.3066 1.17712 14.9941C0.614624 13.6816 0.333374 12.2812 0.333374 10.793C0.333374 9.30469 0.614624 7.91016 1.17712 6.60938C1.75134 5.29688 2.52478 4.1543 3.49744 3.18164C4.48181 2.19727 5.62439 1.42383 6.92517 0.861328C8.23767 0.287109 9.63806 0 11.1263 0C11.8529 0 12.5619 0.0703125 13.2533 0.210938C13.9564 0.351562 14.6361 0.5625 15.2924 0.84375C15.9486 1.11328 16.5697 1.44727 17.1556 1.8457C17.7416 2.23242 18.2924 2.68359 18.808 3.19922C18.8783 3.02344 18.9603 2.85352 19.0541 2.68945C19.1595 2.51367 19.2709 2.34961 19.3881 2.19727C19.892 1.50586 20.5248 0.966797 21.2865 0.580078C22.0599 0.193359 22.8744 0 23.7299 0C24.4799 0 25.183 0.140625 25.8392 0.421875C26.4955 0.703125 27.0638 1.08984 27.5443 1.58203C28.0365 2.07422 28.4232 2.64844 28.7045 3.30469C28.9857 3.96094 29.1263 4.6582 29.1263 5.39648C29.1263 5.71289 29.097 6.0293 29.0385 6.3457C28.9916 6.65039 28.9154 6.94336 28.8099 7.22461C28.8685 7.22461 28.9213 7.22461 28.9681 7.22461C29.0267 7.22461 29.0853 7.22461 29.1439 7.22461C30.14 7.22461 31.0717 7.41211 31.9388 7.78711C32.8177 8.16211 33.5795 8.67773 34.224 9.33398C34.8802 9.97852 35.3959 10.7402 35.7709 11.6191C36.1459 12.4863 36.3334 13.418 36.3334 14.4141C36.3334 15.3984 36.1459 16.3301 35.7709 17.209C35.3959 18.0762 34.8802 18.8379 34.224 19.4941C33.5795 20.1387 32.8177 20.6543 31.9388 21.041C31.0717 21.416 30.14 21.6035 29.1439 21.6035ZM11.1263 1.79297C9.89587 1.79297 8.72986 2.0332 7.6283 2.51367C6.53845 2.98242 5.58337 3.62695 4.76306 4.44727C3.95447 5.25586 3.30994 6.21094 2.82947 7.3125C2.36072 8.40234 2.12634 9.5625 2.12634 10.793C2.12634 12.0352 2.36072 13.207 2.82947 14.3086C3.30994 15.3984 3.95447 16.3535 4.76306 17.1738C5.58337 17.9824 6.53845 18.6211 7.6283 19.0898C8.72986 19.5586 9.89587 19.793 11.1263 19.793H29.1439C29.8822 19.793 30.5795 19.6523 31.2357 19.3711C31.892 19.0898 32.4603 18.709 32.9408 18.2285C33.433 17.7363 33.8197 17.1621 34.101 16.5059C34.3939 15.8496 34.5404 15.1523 34.5404 14.4141C34.5404 13.6641 34.3939 12.9668 34.101 12.3223C33.8197 11.666 33.433 11.0977 32.9408 10.6172C32.4603 10.125 31.892 9.73828 31.2357 9.45703C30.5795 9.16406 29.8822 9.01758 29.1439 9.01758C28.8275 9.01758 28.5111 9.04688 28.1947 9.10547C27.89 9.16406 27.5912 9.24609 27.2982 9.35156C27.099 9.42188 26.8998 9.42773 26.7006 9.36914C26.5013 9.29883 26.349 9.17578 26.2435 9C26.1263 8.82422 26.0736 8.63086 26.0853 8.41992C26.1088 8.20898 26.1908 8.02734 26.3314 7.875C26.6595 7.54688 26.9056 7.17188 27.0697 6.75C27.2455 6.31641 27.3334 5.86523 27.3334 5.39648C27.3334 4.9043 27.2396 4.44141 27.0521 4.00781C26.8646 3.5625 26.6068 3.18164 26.2787 2.86523C25.9506 2.53711 25.5697 2.2793 25.1361 2.0918C24.7025 1.89258 24.2338 1.79297 23.7299 1.79297C23.1556 1.79297 22.6166 1.92187 22.1127 2.17969C21.6088 2.4375 21.181 2.80078 20.8295 3.26953C20.6302 3.55078 20.4662 3.85547 20.3373 4.18359C20.2201 4.5 20.1556 4.82812 20.1439 5.16797C20.1322 5.35547 20.0619 5.52539 19.933 5.67773C19.8158 5.83008 19.6635 5.92969 19.476 5.97656C19.3002 6.03516 19.1185 6.03516 18.931 5.97656C18.7552 5.90625 18.6146 5.78906 18.5092 5.625C18.4037 5.48438 18.2982 5.34961 18.1927 5.2207C18.0873 5.08008 17.976 4.95117 17.8588 4.83398C17.4369 4.35352 16.9681 3.92578 16.4525 3.55078C15.9369 3.16406 15.392 2.8418 14.8177 2.58398C14.2435 2.32617 13.6459 2.13281 13.0248 2.00391C12.4037 1.86328 11.7709 1.79297 11.1263 1.79297Z" fill="#F2F4F6"/>
</svg>
