<svg width="768" height="469" viewBox="0 0 768 469" fill="none" xmlns="http://www.w3.org/2000/svg"><g filter="url(#filter0_dddddd_1722_8684)"><rect x="588.438" y="288.975" width="288.474" height="99.4004" rx="10" transform="rotate(-90 588.438 288.975)" fill="#fff"/></g><g filter="url(#filter1_dddddd_1722_8684)"><rect x="300.322" y="95.8577" width="94.2381" height="94.2381" rx="10" transform="rotate(-90 300.322 95.8577)" fill="#fff"/></g><path d="M371.267 23.0093c-.603-.4121-1.28-.7039-1.993-.8593-.731-.161-1.486-.1901-2.228-.0859-.777.1085-1.531.3485-2.228.7097l-3.252 1.795-3.259 1.7919-3.263 1.7918-3.259 1.8078c-.706.4132-1.462.734-2.25.9548-.762.2212-1.552.3368-2.346.3438-.792.0097-1.582-.0878-2.348-.2897-.791-.2094-1.551-.5218-2.26-.9293l-3.161-1.7187-3.16-1.7186-3.16-1.7123-3.164-1.7187c-1.172-.7481-2.574-1.0497-3.95-.8497-1.269.1974-2.447.7833-3.37 1.6772-.931.8823-1.564 2.0325-1.811 3.2909-.254 1.3645-.004 2.7748.703 3.9689l1.108 2.0305 2.441 4.4558 2.441 4.4558 1.111 2.0305c.413.6985.733 1.4473.955 2.2279.209.7632.316 1.551.318 2.3425-.002.7936-.109 1.5834-.318 2.3488-.197.8057-.5 1.5816-.901 2.3074l-1.735 3.2369-1.737 3.2272-1.738 3.2241-1.738 3.2272c-.292.529-.516 1.0925-.668 1.6773-.143.5526-.208 1.1226-.191 1.6932.021.5605.128 1.1144.318 1.6423.191.5533.468 1.0731.821 1.5404.43.5904.964 1.0974 1.576 1.4959.608.404 1.282.6981 1.992.8688.728.1786 1.483.2271 2.228.1433.777-.0894 1.532-.3191 2.228-.678l3.383-1.8555 3.38-1.8523 3.38-1.8555 3.38-1.8555c-1.017-.7301-1.956-1.5619-2.804-2.4825-.85-.9253-1.63-1.9125-2.333-2.9536-.71-1.0439-1.359-2.1324-1.96-3.24-.538-.9866-1.038-1.986-1.518-2.979.849 1.5914 2.679 3.2814 5.057 4.9778 2.892 1.9899 5.905 3.797 9.023 5.4106 3.278 1.7441 6.642 3.3927 9.548 4.8504 2.906 1.4577 5.369 2.7212 6.83 3.6856 1.179.698 2.581.9188 3.918.6174 1.24-.3083 2.352-.996 3.182-1.9669.87-.9851 1.435-2.2012 1.627-3.501.2-1.3738-.083-2.7746-.802-3.9624l-1.999-3.6156-4.376-7.9567-4.376-7.9567-1.977-3.5742c-.423-.7129-.883-1.4034-1.378-2.0688-.491-.6529-1.023-1.2747-1.591-1.8618-.565-.5846-1.169-1.1301-1.808-1.6328-.65-.5114-1.337-.9732-2.056-1.3812 1.117.5092 2.253 1.0375 3.367 1.6072 1.123.5654 2.215 1.189 3.272 1.8683 1.056.6767 2.057 1.4365 2.992 2.2724.943.8497 1.792 1.7995 2.53 2.8326l1.798-3.2909 1.798-3.2909 1.805-3.2973 1.798-3.2909c.3-.4947.525-1.0309.669-1.5913.143-.5559.207-1.1291.191-1.7028-.022-.5791-.129-1.1518-.319-1.6995-.192-.5606-.473-1.0871-.83-1.5596-.408-.6286-.936-1.1705-1.553-1.5945ZM329.56 69.1075c.047.6727-.197 1.3331-.67 1.8138-.473.4808-1.129.7358-1.802.7005-1.377.0114-2.502-1.0951-2.513-2.4714-.012-1.3763 1.095-2.5013 2.471-2.5127.673-.0475 1.333.1959 1.814.6682.481.4724.736 1.1284.7 1.8016Zm-4.93-40.6399c-.046-.6727.198-1.3331.671-1.8138.473-.4808 1.129-.7358 1.802-.7005.673-.0465 1.334.1976 1.814.6705.481.4728.736 1.1291.701 1.8025.046.6727-.198 1.3331-.671 1.8138-.473.4808-1.129.7358-1.802.7005-.673.0465-1.333-.1976-1.814-.6705-.481-.4728-.736-1.1291-.701-1.8025Zm45.602 40.5635c.01 1.0097-.589 1.9261-1.518 2.3214-.929.3953-2.005.1917-2.726-.5159-.72-.7077-.943-1.7797-.564-2.7158.379-.9361 1.284-1.5517 2.294-1.5595.672-.0475 1.333.1959 1.814.6682.48.4724.736 1.1284.7 1.8016Zm-16.868-21.1872c-.735-1.2031-1.948-1.6741-3.402-1.6582-1.987.0665-3.744 1.3078-4.47 3.1582-.727 1.8503-.283 3.9553 1.128 5.3555-1.577-.2008-3.007-1.0248-3.972-2.2879-.965-1.2631-1.383-2.8601-1.162-4.4339.468-3.1541 3.603-5.6048 6.754-5.1624 2.667.452 4.86 2.3648 5.117 5.0287h.007Zm17.046-19.5863c-.034 1.344-1.127 2.4191-2.472 2.4311-1.344.012-2.456-1.0433-2.515-2.3866.035-1.344 1.128-2.4191 2.472-2.4311 1.345-.012 2.457 1.0433 2.515 2.3866Z" fill="#FF694B"/><g filter="url(#filter2_dddddd_1722_8684)"><rect x="300.322" y="288.018" width="94.2381" height="94.2381" rx="10" transform="rotate(-90 300.322 288.018)" fill="#fff"/></g><path d="M344.519 230.557c0 1.012-.338 1.799-1.012 2.473-1.012 1.012-2.698 1.236-3.822.45l-11.242-6.52c-.056 0-.085-.029-.113-.057-.028-.028-.056-.056-.112-.056-1.574-.899-2.023-2.922-1.011-4.496.898-1.574 2.922-2.024 4.496-1.012l6.295 3.71v-7.42c0-1.799 1.462-3.26 3.26-3.26 1.799 0 3.261 1.461 3.261 3.26v12.928ZM336.986 237.976c1.124.562 1.687 1.687 1.687 2.923 0 1.237-.563 2.361-1.574 2.923l-11.242 6.52h-.225c-1.686.899-3.597.338-4.496-1.348-.9-1.687-.225-3.598 1.348-4.497l6.408-3.71-6.408-3.71c-.072 0-.098-.047-.137-.08-.021-.018-.047-.033-.087-.033-1.574-.899-2.024-2.922-1.012-4.496.9-1.574 2.923-2.024 4.497-1.012l11.241 6.52ZM344.519 264.17v-13.041c.112-.449-.113-1.012-.338-1.349-.899-1.686-3.035-2.248-4.608-1.349l-11.243 6.52c-.056 0-.085.029-.113.057-.028.028-.056.056-.112.056-1.573.899-2.023 2.923-1.011 4.497.899 1.573 2.923 2.023 4.497 1.011l6.407-3.71v7.308c0 1.798 1.462 3.259 3.26 3.259 1.799 0 3.261-1.461 3.261-3.259ZM350.364 264.169v-12.702c-.113-.563.113-1.35.337-1.912.899-1.574 2.923-2.136 4.497-1.236l11.242 6.52c.112 0 .112.112.224.112 1.574.899 2.024 2.923 1.012 4.497-.9 1.574-2.923 2.023-4.497 1.012l-6.295-3.598v7.307c0 1.799-1.461 3.26-3.26 3.26-1.799 0-3.26-1.461-3.26-3.26ZM357.896 237.976c-1.124.562-1.686 1.687-1.686 2.923-.113 1.237.562 2.361 1.574 2.81l11.241 6.52c.113 0 .113.113.225.113 1.686.899 3.597.225 4.497-1.349.899-1.686.224-3.598-1.349-4.497l-6.409-3.709 6.409-3.71c.058 0 .086-.03.115-.06.027-.027.055-.053.109-.053 1.574-.899 2.024-2.922 1.013-4.496-.9-1.574-2.924-2.024-4.497-1.012l-11.242 6.52ZM350.364 217.629v12.703c-.113.674.113 1.349.337 1.911.899 1.574 2.923 2.136 4.497 1.237l11.242-6.521c.055 0 .083-.028.111-.056.028-.028.057-.056.113-.056 1.574-.899 2.024-2.922 1.012-4.497-.9-1.573-2.923-2.023-4.497-1.011l-6.295 3.597v-7.307c0-1.799-1.461-3.26-3.26-3.26-1.799 0-3.26 1.461-3.26 3.26Z" fill="#31BEF0"/><path fill-rule="evenodd" clip-rule="evenodd" d="M348.565 234.869c.078.05.152.111.225.184l4.384 4.497c.225.225.338.45.338.787v1.124c0 .225-.113.562-.225.787l-4.497 4.497c-.119.119-.238.206-.373.262-.12.05-.255.075-.414.075h-1.124c-.337 0-.562-.112-.787-.337l-4.497-4.497c-.224-.225-.337-.449-.337-.787v-1.124c0-.337.113-.562.337-.787l4.497-4.497c.143-.142.286-.24.458-.292.098-.03.206-.045.329-.045h1.124c.227 0 .403.051.562.153Zm-.618 4.043c-.112-.112-.337-.225-.562-.225-.161 0-.322.058-.442.132-.047.029-.088.061-.12.093l-1.349 1.349c-.113.112-.225.338-.225.562 0 .225.112.45.225.563l1.349 1.348c.051.052.126.103.213.144.105.048.227.082.349.082.225 0 .45-.113.562-.226l1.349-1.348c.096-.097.194-.277.219-.468.004-.031.006-.063.006-.095 0-.124-.034-.248-.084-.353-.04-.086-.091-.159-.141-.209l-1.349-1.349Z" fill="#31BEF0"/><path d="M221.973 334.602v3.402h5.418v1.12h-6.678v-9.856h6.496v1.106h-5.236v3.164h4.732v1.064h-4.732Zm7.44 4.522h-1.358l2.562-3.598-2.408-3.472h1.316l1.834 2.618h.014l1.792-2.618h1.344l-2.45 3.43 2.604 3.64h-1.316l-1.96-2.8h-.014l-1.96 2.8Zm8.504.21c-1.316 0-2.506-.7-2.506-2.212 0-.658.224-1.134.588-1.498.714-.714 1.862-.826 4.34-.91v-.098c0-1.106-.714-1.75-1.75-1.75-.924 0-1.638.392-2.184 1.092l-.77-.672c.224-.364 1.148-1.442 2.954-1.442.868 0 1.792.28 2.366 1.022.336.434.546.966.546 1.974v4.284h-1.148l-.028-.98h-.014c-.266.42-.938 1.19-2.394 1.19Zm.112-1.008c1.484 0 2.31-.966 2.31-2.548v-.112c-2.268.084-3.724.14-3.724 1.47 0 .854.686 1.19 1.414 1.19Zm6.784.798h-1.19v-7.07h1.148l.028.994h.014c.182-.364.812-1.204 2.086-1.204 1.638 0 2.198 1.12 2.268 1.26h.014c.084-.196.812-1.26 2.296-1.26.938 0 1.666.378 2.114.966.378.49.518 1.008.518 1.96v4.354h-1.19v-4.046c0-.504 0-1.12-.336-1.596-.308-.434-.77-.588-1.232-.588-.574 0-1.148.266-1.484.742-.308.448-.406.994-.406 1.89v3.598h-1.19v-4.046c0-.504 0-1.12-.336-1.596-.308-.434-.77-.588-1.232-.588-.574 0-1.148.266-1.484.742-.308.448-.406.994-.406 1.89v3.598Zm12.619 2.968h-1.19v-10.038h1.19v1.022h.014c.588-.756 1.582-1.232 2.688-1.232 2.086 0 3.584 1.68 3.584 3.752 0 2.058-1.498 3.738-3.584 3.738-1.106 0-2.114-.476-2.688-1.232h-.014v3.99Zm2.534-3.808c1.498 0 2.548-1.204 2.548-2.688 0-1.484-1.05-2.702-2.548-2.702-1.554 0-2.548 1.218-2.548 2.702s.994 2.688 2.548 2.688Zm6.695.84h-1.19v-10.36h1.19v10.36Zm8.85-3.598v.448h-5.838c.014 1.092.812 2.31 2.45 2.31 1.4 0 2.072-.938 2.142-1.036l.77.658c-.084.14-.994 1.428-2.912 1.428-2.268 0-3.71-1.68-3.71-3.738 0-2.072 1.484-3.752 3.626-3.752 2.044 0 3.472 1.596 3.472 3.682Zm-3.458-2.66c-1.694 0-2.268 1.302-2.366 2.1h4.592c-.056-.882-.714-2.1-2.226-2.1Zm6.08.924c-.504 0-.924-.42-.924-.924s.42-.924.924-.924.924.42.924.924-.42.924-.924.924Zm0 5.46c-.504 0-.924-.42-.924-.924s.42-.924.924-.924.924.42.924.924-.42.924-.924.924Zm14.793-.126h-1.33l-.98-2.618h-4.662l-.98 2.618h-1.316l3.864-9.856h1.54l3.864 9.856Zm-4.634-8.806h-.014l-1.932 5.138h3.864l-1.918-5.138Zm7.985 7.756 2.142-6.02h1.246l-2.674 7.07h-1.47l-2.674-7.07h1.274l2.142 6.02h.014Zm6.705 1.26c-1.316 0-2.506-.7-2.506-2.212 0-.658.224-1.134.588-1.498.714-.714 1.862-.826 4.34-.91v-.098c0-1.106-.714-1.75-1.75-1.75-.924 0-1.638.392-2.184 1.092l-.77-.672c.224-.364 1.148-1.442 2.954-1.442.868 0 1.792.28 2.366 1.022.336.434.546.966.546 1.974v4.284h-1.148l-.028-.98h-.014c-.266.42-.938 1.19-2.394 1.19Zm.112-1.008c1.484 0 2.31-.966 2.31-2.548v-.112c-2.268.084-3.724.14-3.724 1.47 0 .854.686 1.19 1.414 1.19Zm6.196-7.854c-.476 0-.868-.392-.868-.868s.392-.868.868-.868.868.392.868.868-.392.868-.868.868Zm.588 8.652h-1.19v-7.07h1.19v7.07Zm3.404 0h-1.19v-10.36h1.19v10.36Zm4.342.21c-1.316 0-2.506-.7-2.506-2.212 0-.658.224-1.134.588-1.498.714-.714 1.862-.826 4.34-.91v-.098c0-1.106-.714-1.75-1.75-1.75-.924 0-1.638.392-2.184 1.092l-.77-.672c.224-.364 1.148-1.442 2.954-1.442.868 0 1.792.28 2.366 1.022.336.434.546.966.546 1.974v4.284h-1.148l-.028-.98h-.014c-.266.42-.938 1.19-2.394 1.19Zm.112-1.008c1.484 0 2.31-.966 2.31-2.548v-.112c-2.268.084-3.724.14-3.724 1.47 0 .854.686 1.19 1.414 1.19Zm9.486 1.008c-1.106 0-2.114-.476-2.688-1.232h-.014l-.042 1.022h-1.148v-10.36h1.19v4.312h.014c.588-.756 1.582-1.232 2.688-1.232 2.086 0 3.584 1.68 3.584 3.752 0 2.058-1.498 3.738-3.584 3.738Zm-.168-1.05c1.498 0 2.548-1.204 2.548-2.688 0-1.484-1.05-2.702-2.548-2.702-1.554 0-2.548 1.218-2.548 2.702s.994 2.688 2.548 2.688Zm6.695.84h-1.19v-10.36h1.19v10.36Zm8.85-3.598v.448h-5.838c.014 1.092.812 2.31 2.45 2.31 1.4 0 2.072-.938 2.142-1.036l.77.658c-.084.14-.994 1.428-2.912 1.428-2.268 0-3.71-1.68-3.71-3.738 0-2.072 1.484-3.752 3.626-3.752 2.044 0 3.472 1.596 3.472 3.682Zm-3.458-2.66c-1.694 0-2.268 1.302-2.366 2.1h4.592c-.056-.882-.714-2.1-2.226-2.1Zm10.913 6.468c-1.316 0-2.506-.7-2.506-2.212 0-.658.224-1.134.588-1.498.714-.714 1.862-.826 4.34-.91v-.098c0-1.106-.714-1.75-1.75-1.75-.924 0-1.638.392-2.184 1.092l-.77-.672c.224-.364 1.148-1.442 2.954-1.442.868 0 1.792.28 2.366 1.022.336.434.546.966.546 1.974v4.284h-1.148l-.028-.98h-.014c-.266.42-.938 1.19-2.394 1.19Zm.112-1.008c1.484 0 2.31-.966 2.31-2.548v-.112c-2.268.084-3.724.14-3.724 1.47 0 .854.686 1.19 1.414 1.19Zm7.988 1.008c-1.988 0-2.828-1.218-2.94-1.4l.798-.7c.168.224.84 1.092 2.142 1.092 1.078 0 1.764-.406 1.764-1.204 0-1.638-4.48-.434-4.48-3.178 0-1.022.98-2.1 2.772-2.1 1.89 0 2.674 1.148 2.786 1.33l-.77.672c-.098-.14-.714-.98-2.016-.98-.966 0-1.61.364-1.61 1.078 0 1.568 4.48.378 4.48 3.122 0 1.26-1.162 2.268-2.926 2.268Zm11.601 0c-2.184 0-3.752-1.68-3.752-3.738 0-2.072 1.568-3.752 3.752-3.752 2.198 0 3.766 1.68 3.766 3.752 0 2.058-1.568 3.738-3.766 3.738Zm0-1.05c1.498 0 2.562-1.204 2.562-2.688 0-1.484-1.064-2.702-2.562-2.702-1.498 0-2.548 1.218-2.548 2.702s1.05 2.688 2.548 2.688Zm6.705 3.808h-1.19v-10.038h1.19v1.022h.014c.588-.756 1.582-1.232 2.688-1.232 2.086 0 3.584 1.68 3.584 3.752 0 2.058-1.498 3.738-3.584 3.738-1.106 0-2.114-.476-2.688-1.232h-.014v3.99Zm2.534-3.808c1.498 0 2.548-1.204 2.548-2.688 0-1.484-1.05-2.702-2.548-2.702-1.554 0-2.548 1.218-2.548 2.702s.994 2.688 2.548 2.688Zm12.222-2.758v.448h-5.838c.014 1.092.812 2.31 2.45 2.31 1.4 0 2.072-.938 2.142-1.036l.77.658c-.084.14-.994 1.428-2.912 1.428-2.268 0-3.71-1.68-3.71-3.738 0-2.072 1.484-3.752 3.626-3.752 2.044 0 3.472 1.596 3.472 3.682Zm-3.458-2.66c-1.694 0-2.268 1.302-2.366 2.1h4.592c-.056-.882-.714-2.1-2.226-2.1Zm6.338 6.258h-1.19v-7.07h1.148l.028.994h.014c.056-.126.672-1.204 2.282-1.204 1.554 0 2.688 1.008 2.688 2.828v4.452h-1.19v-4.186c0-1.498-.798-2.044-1.722-2.044-1.204 0-2.058.966-2.058 2.408v3.822Zm10.875-3.234h-3.962v-1.078h3.962v1.078Zm4.425 3.444c-1.988 0-2.828-1.218-2.94-1.4l.798-.7c.168.224.84 1.092 2.142 1.092 1.078 0 1.764-.406 1.764-1.204 0-1.638-4.48-.434-4.48-3.178 0-1.022.98-2.1 2.772-2.1 1.89 0 2.674 1.148 2.786 1.33l-.77.672c-.098-.14-.714-.98-2.016-.98-.966 0-1.61.364-1.61 1.078 0 1.568 4.48.378 4.48 3.122 0 1.26-1.162 2.268-2.926 2.268Zm7.964 0c-2.184 0-3.752-1.68-3.752-3.738 0-2.072 1.568-3.752 3.752-3.752 2.198 0 3.766 1.68 3.766 3.752 0 2.058-1.568 3.738-3.766 3.738Zm0-1.05c1.498 0 2.562-1.204 2.562-2.688 0-1.484-1.064-2.702-2.562-2.702-1.498 0-2.548 1.218-2.548 2.702s1.05 2.688 2.548 2.688Zm8.525 1.05c-.91 0-1.652-.294-2.226-.868-.63-.63-.868-1.442-.868-2.478v-3.934h1.19v3.976c0 .714.126 1.302.56 1.736.322.322.784.518 1.344.518s1.008-.196 1.33-.518c.434-.434.56-1.022.56-1.736v-3.976h1.19v3.934c0 1.036-.238 1.848-.868 2.478-.574.574-1.302.868-2.212.868Zm6.397-.21h-1.19v-7.07h1.162l.042 1.176h.014c.504-.854 1.484-1.358 2.478-1.358v1.218c-.63-.014-1.33.112-1.848.616-.616.602-.658 1.456-.658 2.352v3.066Zm7.063.21c-2.184 0-3.752-1.68-3.752-3.738 0-2.072 1.568-3.752 3.752-3.752 1.974 0 2.87 1.26 2.982 1.456l-.84.686c-.392-.49-.966-1.092-2.142-1.092-1.484 0-2.548 1.204-2.548 2.688 0 1.484 1.036 2.702 2.548 2.702 1.26 0 1.82-.63 2.184-1.05l.784.658c-.084.14-.994 1.442-2.968 1.442Zm11.207-3.808v.448h-5.838c.014 1.092.812 2.31 2.45 2.31 1.4 0 2.072-.938 2.142-1.036l.77.658c-.084.14-.994 1.428-2.912 1.428-2.268 0-3.71-1.68-3.71-3.738 0-2.072 1.484-3.752 3.626-3.752 2.044 0 3.472 1.596 3.472 3.682Zm-3.458-2.66c-1.694 0-2.268 1.302-2.366 2.1h4.592c-.056-.882-.714-2.1-2.226-2.1Zm9.387-2.394c-.476 0-.868-.392-.868-.868s.392-.868.868-.868.868.392.868.868-.392.868-.868.868Zm.588 8.652h-1.19v-7.07h1.19v7.07Zm3.404 0h-1.19v-7.07h1.148l.028.994h.014c.056-.126.672-1.204 2.282-1.204 1.554 0 2.688 1.008 2.688 2.828v4.452h-1.19v-4.186c0-1.498-.798-2.044-1.722-2.044-1.204 0-2.058.966-2.058 2.408v3.822Zm15.324-4.116v-1.05h4.256v3.808c-.756.77-2.142 1.568-3.99 1.568-3.122 0-5.222-2.254-5.222-5.152 0-2.926 2.212-5.124 5.138-5.124 2.184 0 3.528 1.232 3.878 1.694l-.868.742c-.686-.812-1.792-1.33-3.024-1.33-2.226 0-3.808 1.666-3.808 4.004 0 2.366 1.568 4.06 3.934 4.06 1.134 0 2.142-.392 2.8-.938v-2.282h-3.094Zm6.989-4.536c-.476 0-.868-.392-.868-.868s.392-.868.868-.868.868.392.868.868-.392.868-.868.868Zm.588 8.652h-1.19v-7.07h1.19v7.07Zm6.274-1.12.462.854c-.28.224-.826.476-1.554.476-1.624 0-2.464-1.12-2.464-2.646v-3.612h-1.428v-1.022h1.428v-2.31h1.19v2.31h2.352v1.022h-2.352v3.416c0 1.008.28 1.792 1.358 1.792.532 0 .896-.21 1.008-.28Zm2.954 1.12h-1.19v-10.36h1.19v4.284h.014c.056-.126.7-1.204 2.268-1.204 1.554 0 2.688 1.008 2.688 2.828v4.452h-1.19v-4.186c0-1.498-.798-2.044-1.722-2.044-1.204 0-2.058.966-2.058 2.408v3.822Zm10.105.21c-.91 0-1.652-.294-2.226-.868-.63-.63-.868-1.442-.868-2.478v-3.934h1.19v3.976c0 .714.126 1.302.56 1.736.322.322.784.518 1.344.518s1.008-.196 1.33-.518c.434-.434.56-1.022.56-1.736v-3.976h1.19v3.934c0 1.036-.238 1.848-.868 2.478-.574.574-1.302.868-2.212.868Zm9.099 0c-1.106 0-2.114-.476-2.688-1.232h-.014l-.042 1.022h-1.148v-10.36h1.19v4.312h.014c.588-.756 1.582-1.232 2.688-1.232 2.086 0 3.584 1.68 3.584 3.752 0 2.058-1.498 3.738-3.584 3.738Zm-.168-1.05c1.498 0 2.548-1.204 2.548-2.688 0-1.484-1.05-2.702-2.548-2.702-1.554 0-2.548 1.218-2.548 2.702s.994 2.688 2.548 2.688Z" fill="#818B93"/><path d="M214.249 143.989h-.75v1.5h.75v-1.5Zm38.85 0h-1.619v1.5h1.619v-1.5Zm-4.856 0h-3.238v1.5h3.238v-1.5Zm-6.475 0h-3.238v1.5h3.238v-1.5Zm-6.475 0h-3.238v1.5h3.238v-1.5Zm-6.475 0h-3.238v1.5h3.238v-1.5Zm-6.476 0h-3.237v1.5h3.237v-1.5Zm-6.475 0h-1.618v1.5h1.618v-1.5ZM287.341 49.2691c.293-.2929.293-.7678 0-1.0607l-4.773-4.7729c-.293-.2929-.768-.2929-1.061 0-.292.2929-.292.7677 0 1.0606l4.243 4.2427-4.243 4.2426c-.292.2929-.292.7678 0 1.0607.293.2929.768.2929 1.061 0l4.773-4.773Zm0 191.9419c.293-.293.293-.768 0-1.061l-4.773-4.773c-.293-.293-.768-.293-1.061 0-.292.293-.292.768 0 1.061l4.243 4.243-4.243 4.242c-.292.293-.292.768 0 1.061.293.293.768.293 1.061 0l4.773-4.773Zm-.53-193.2222h-1.451v1.5h1.451v-1.5Zm-4.353 0h-2.902v1.5h2.902v-1.5Zm-5.805 0h-2.902v1.5h2.902v-1.5Zm-5.804 0h-2.902v1.5h2.902v-1.5Zm-5.804 0h-1.451v1.5h1.451v-1.5Zm-1.451 0c-.475 0-.944.0308-1.403.0908l.194 1.4874c.395-.0516.799-.0782 1.209-.0782v-1.5Zm-4.115.816c-.874.3626-1.69.837-2.43 1.4053l.914 1.1894c.637-.4893 1.339-.8975 2.09-1.2091l-.574-1.3856Zm-4.414 3.3891c-.568.7395-1.042 1.5553-1.405 2.4297l1.386.5746c.311-.7516.719-1.4535 1.209-2.0903l-1.19-.914Zm-2.13 5.1418c-.06.4595-.091.9279-.091 1.4031h1.5c0-.4102.027-.8137.078-1.2091l-1.487-.194Zm-.091 1.4031v1.4839h1.5v-1.4839h-1.5Zm0 4.4518v2.9678h1.5v-2.9678h-1.5Zm0 5.9357v2.9678h1.5v-2.9678h-1.5Zm0 5.9357v2.9679h1.5V75.062h-1.5Zm0 5.9357v2.9679h1.5v-2.9679h-1.5Zm0 5.9357v2.9679h1.5v-2.9679h-1.5Zm0 5.9358v2.9678h1.5v-2.9678h-1.5Zm0 5.9357v1.4841h1.5v-1.4841h-1.5Zm0 31.8711v1.471h1.5v-1.471h-1.5Zm0 4.412v2.942h1.5v-2.942h-1.5Zm0 5.883v2.941h1.5v-2.941h-1.5Zm0 5.882v2.942h1.5v-2.942h-1.5Zm0 5.883v2.941h1.5v-2.941h-1.5Zm0 5.883v2.941h1.5v-2.941h-1.5Zm0 5.882v2.942h1.5v-2.942h-1.5Zm0 5.883v2.941h1.5v-2.941h-1.5Zm0 5.882v2.942h1.5v-2.942h-1.5Zm0 5.883v2.941h1.5v-2.941h-1.5Zm0 5.883v2.941h1.5v-2.941h-1.5Zm0 5.882v2.942h1.5v-2.942h-1.5Zm0 5.883v2.941h1.5v-2.941h-1.5Zm0 5.883v2.941h1.5v-2.941h-1.5Zm0 5.882v2.941h1.5v-2.941h-1.5Zm0 5.883v2.941h1.5v-2.941h-1.5Zm0 5.882v2.942h1.5v-2.942h-1.5Zm0 5.883v1.471h1.5v-1.471h-1.5Zm0 1.471c0 .475.031.943.091 1.403l1.487-.194c-.051-.396-.078-.799-.078-1.209h-1.5Zm.816 4.115c.363.874.837 1.69 1.405 2.429l1.19-.914c-.49-.636-.898-1.338-1.209-2.09l-1.386.575Zm3.389 4.413c.74.569 1.556 1.043 2.43 1.406l.574-1.386c-.751-.312-1.453-.72-2.09-1.209l-.914 1.189Zm5.142 2.131c.459.06.928.091 1.403.091v-1.5c-.41 0-.814-.027-1.209-.079l-.194 1.488Zm1.403.091h1.451v-1.5h-1.451v1.5Zm4.353 0h2.902v-1.5h-2.902v1.5Zm5.804 0h2.902v-1.5h-2.902v1.5Zm5.805 0h2.902v-1.5h-2.902v1.5Zm5.804 0h1.451v-1.5h-1.451v1.5ZM554.556 143.988h-.75v1.5h.75v-1.5Zm23.475 1.281c.293-.293.293-.768 0-1.061l-4.773-4.773c-.293-.293-.768-.293-1.061 0-.292.293-.292.768 0 1.061l4.243 4.242-4.243 4.243c-.292.293-.292.768 0 1.061.293.292.768.292 1.061 0l4.773-4.773Zm-.53-1.281h-1.434v1.5h1.434v-1.5Zm-4.302 0h-2.868v1.5h2.868v-1.5Zm-5.736 0h-2.869v1.5h2.869v-1.5Zm-5.737 0h-2.868v1.5h2.868v-1.5Zm-5.736 0h-1.434v1.5h1.434v-1.5Z" fill="#1B127D"/><path d="M408.072 48.8733h12.998c5.523 0 10 4.4771 10 10v51.7857m-22.998 130.228h12.998c5.523 0 10-4.477 10-10V129.823" stroke="#1B127D" stroke-width="1.5" stroke-dasharray="3 3"/><path d="M454.171 145.269c.293-.293.293-.768 0-1.061l-4.773-4.773c-.293-.293-.768-.293-1.061 0-.292.293-.292.768 0 1.061l4.243 4.242-4.243 4.243c-.292.293-.292.768 0 1.061.293.292.768.292 1.061 0l4.773-4.773Zm-22.606.219h1.38v-1.5h-1.38v1.5Zm4.139 0h2.76v-1.5h-2.76v1.5Zm5.519 0h2.76v-1.5h-2.76v1.5Zm5.519 0h2.76v-1.5h-2.76v1.5Zm5.519 0h1.38v-1.5h-1.38v1.5Z" fill="#1B127D"/><g filter="url(#filter3_dddddd_1722_8684)"><path d="M543.484 144.738c0-21.942-17.788-39.729-39.73-39.729-21.942 0-39.73 17.787-39.73 39.729 0 21.943 17.788 39.73 39.73 39.73 21.942 0 39.73-17.787 39.73-39.73Z" fill="#ED26B7"/></g><path d="M525.171 151.415c-.154-6.581-3.787-11.804-9.333-13.846v-11.453c-1.401-.896-2.891-1.636-4.447-2.205v24.641c0 4.881-2.264 7.061-5.903 7.061-3.543 0-6.507-2.676-6.507-7.151 0-4.995 3.893-8.045 8.991-8.045.472-.008.953.016 1.425.09v-4.36c-.472-.082-.945-.122-1.425-.114-7.566 0-13.494 4.638-13.494 12.439 0 7.5 5.35 11.502 11.312 11.502 2.825 0 5.268-.96 6.955-2.611 1.685-1.652 3.111-4.036 3.111-8.225v-6.826c3.078 1.538 4.935 5.263 4.943 9.526-.016 8.029-7.468 14.814-16.205 14.814-.204 0-.359 0-.562-.008-5.994-.008-11.263-2.172-15.53-6.443-3.071-3.075-5.172-6.988-6.019-11.243-.847-4.263-.415-8.671 1.254-12.691 1.662-4.01 4.479-7.443 8.094-9.859 3.616-2.416 7.868-3.702 12.216-3.702v-4.474c-3.478 0-6.922.684-10.131 2.01-3.209 1.326-6.132 3.278-8.591 5.727-4.968 4.954-7.761 11.681-7.761 18.694 0 7.012 2.784 13.74 7.744 18.703 4.959 4.962 11.694 7.753 18.714 7.753h.562c2.159 0 4.308-.334 6.377-.977.008 0 .016-.008.025-.008 2.988-.928 5.724-2.506 8.021-4.621 3.966-3.661 6.149-8.5 6.165-13.65.007-.017-.001-.44-.001-.448Z" fill="#fff"/><g filter="url(#filter4_dddddd_1722_8684)"><rect x="80.1614" y="288.975" width="288.474" height="122.449" rx="10" transform="rotate(-90 80.1614 288.975)" fill="#fff"/></g><path fill-rule="evenodd" clip-rule="evenodd" d="M136.871 85.0166c1.758-1.8337 4.206-2.9723 6.913-2.9723 3.598 0 6.738 2.0098 8.41 4.9935 1.496-.6692 3.116-1.0141 4.754-1.0121 6.49 0 11.75 5.3153 11.75 11.8732 0 6.5581-5.26 11.8731-11.75 11.8731-.794 0-1.568-.079-2.316-.23-1.472 2.629-4.279 4.406-7.499 4.406-1.348 0-2.623-.311-3.757-.867-1.493 3.517-4.971 5.982-9.023 5.982-4.22 0-7.817-2.675-9.197-6.425-.615.129-1.242.195-1.87.195-5.025 0-9.099-4.122-9.099-9.207-.004-1.612.414-3.196 1.212-4.5958.799-1.3994 1.949-2.5648 3.337-3.38-.576-1.329-.872-2.7625-.87-4.2113 0-5.8491 4.74-10.59 10.587-10.59 1.629-.0019 3.237.3733 4.697 1.0962 1.46.723 2.734 1.7741 3.721 3.0715Z" fill="#00A1E0"/><path fill-rule="evenodd" clip-rule="evenodd" d="m122.083 100.666.22-.613c.035-.105.115-.0704.147-.051.061.037.105.07.185.116.65.412 1.252.416 1.439.416.487 0 .789-.258.789-.6063v-.0179c0-.3786-.465-.5219-1.003-.6867l-.119-.0382c-.737-.2102-1.526-.5141-1.526-1.4491v-.0192c0-.8872.715-1.5064 1.738-1.5064l.112-.0012c.601 0 1.182.1749 1.602.4305.039.0239.076.0681.054.1266l-.226.6132c-.04.1045-.149.0352-.149.0352-.44-.2292-.925-.354-1.421-.3648-.434 0-.713.2305-.713.5433v.0198c0 .3648.479.5206 1.033.7015l.095.0299c.735.2329 1.52.5553 1.52 1.442v.0185c0 .9583-.695 1.5533-1.813 1.5533-.549 0-1.074-.084-1.63-.38-.105-.061-.209-.113-.311-.188-.011-.016-.058-.034-.024-.124h.001Zm16.369 0 .221-.613c.032-.1002.126-.0632.146-.051.061.038.106.07.185.116.651.412 1.252.416 1.442.416.484 0 .786-.258.786-.6063v-.0179c0-.3786-.464-.5219-1.001-.6867l-.119-.0382c-.739-.2102-1.528-.5141-1.528-1.4491v-.0192c0-.8872.716-1.5064 1.739-1.5064l.111-.0012c.601 0 1.182.1749 1.604.4305.037.0239.074.0681.054.1266-.021.0543-.207.5559-.227.6132-.041.1045-.149.0352-.149.0352-.439-.2292-.925-.3541-1.421-.3648-.434 0-.713.2305-.713.5433v.0198c0 .3648.478.5206 1.033.7015l.095.0299c.735.2329 1.519.5553 1.519 1.442v.0185c0 .9583-.694 1.5533-1.812 1.5533-.55 0-1.075-.084-1.63-.38-.105-.061-.209-.113-.312-.188-.011-.016-.058-.034-.023-.124Zm12.108-2.8831c.092.3081.137.6467.137 1.0043 0 .3583-.045.6956-.137 1.0037-.084.2971-.228.5741-.423.8131-.196.232-.441.417-.718.541-.286.131-.622.197-1 .197s-.716-.066-1.001-.197c-.276-.124-.522-.309-.717-.541-.195-.239-.34-.516-.424-.8125-.094-.3264-.14-.6646-.137-1.0043 0-.3582.046-.6962.137-1.0043.092-.3105.234-.5839.423-.812.196-.233.442-.4194.718-.5458.286-.1337.622-.2012 1.001-.2012.379 0 .715.0675 1 .2012.285.1332.527.3165.718.5458.19.2281.333.5015.423.812Zm-.932 1.0043c0-.5415-.1-.9673-.299-1.2658-.197-.2962-.495-.4395-.91-.4395-.415 0-.711.1433-.905.4395-.195.2985-.295.7243-.295 1.2658 0 .541.1.9697.296 1.2708.193.3.489.445.904.445.415 0 .713-.146.91-.445.197-.3011.299-.7298.299-1.2708Zm8.598 1.5708.229.634c.03.077-.038.111-.038.111-.353.138-.844.236-1.321.236-.81 0-1.43-.234-1.844-.695-.411-.46-.621-1.0847-.621-1.8603 0-.3589.052-.6986.153-1.0062.102-.3104.254-.5839.454-.812.208-.2345.464-.4207.752-.5457.298-.1332.648-.2001 1.039-.2001.264 0 .499.0162.701.046.215.0334.502.1111.623.1582.022.0084.083.0383.058.1105-.088.249-.148.4114-.23.6383-.036.0967-.108.0645-.108.0645-.307-.0968-.602-.1409-.986-.1409-.462 0-.809.154-1.036.4555-.229.304-.357.7022-.359 1.2319-.002.5809.144 1.0114.401 1.2773.257.266.616.4 1.068.4.183 0 .356-.011.512-.036.153-.024.298-.072.434-.125 0 0 .087-.033.119.058Zm4.775-2.7512c.204.7129.097 1.3285.094 1.3625-.008.0813-.091.0824-.091.0824l-3.159-.0023c.019.4806.134.821.367 1.0516.228.227.591.372 1.081.372.75.002 1.07-.149 1.298-.233 0 0 .086-.031.119.055l.205.58c.042.097.009.131-.026.151-.198.109-.678.313-1.592.316-.443.001-.828-.062-1.146-.186-.302-.112-.574-.292-.795-.527-.211-.23-.367-.505-.458-.804-.098-.3277-.146-.6683-.143-1.0103 0-.3583.046-.6986.139-1.0097.092-.3135.236-.5899.427-.8222.198-.237.447-.4268.728-.5553.29-.1367.649-.2036 1.043-.2036.338 0 .647.0729.904.1839.198.0848.397.2383.601.458.129.1385.325.4418.404.741Zm-3.142.661h2.254c-.023-.2902-.08-.5506-.21-.7464-.198-.2962-.471-.4592-.885-.4592-.415 0-.71.163-.905.4592-.127.1958-.209.4454-.254.7464Zm-22.162-.661c.202.7129.098 1.3285.094 1.3625-.008.0813-.091.0824-.091.0824l-3.16-.0023c.02.4806.135.821.368 1.0516.228.227.59.372 1.08.372.75.002 1.072-.149 1.298-.233 0 0 .087-.031.119.055l.206.58c.042.097.009.131-.026.151-.199.109-.68.313-1.592.316-.443.001-.829-.062-1.146-.186-.302-.112-.574-.292-.795-.527-.211-.23-.367-.505-.458-.804-.098-.3276-.147-.6682-.143-1.0103 0-.3583.046-.6986.138-1.0097.086-.3001.231-.5798.428-.8222.198-.2368.447-.4265.727-.5553.291-.1367.65-.2036 1.044-.2036.311-.0007.618.0618.905.1839.198.0848.397.2383.6.458.129.1385.325.4418.404.741Zm-3.143.661h2.255c-.024-.2902-.081-.5506-.21-.7464-.197-.2962-.471-.4592-.885-.4592-.415 0-.71.163-.904.4592-.129.1958-.211.4454-.256.7464Zm-5.572-.1511s.249.0221.521.0615v-.1338c0-.4221-.087-.6209-.26-.7541-.176-.1349-.44-.2048-.781-.2048 0 0-.769-.0095-1.377.3213-.028.0167-.051.0262-.051.0262s-.076.0269-.104-.0513l-.223-.6019c-.035-.0866.028-.126.028-.126.284-.2221.973-.3564.973-.3564.28-.0493.563-.0754.847-.0783.631 0 1.119.1469 1.451.4377.333.292.502.7625.502 1.3966l.002 2.8946s.007.084-.073.103c0 0-.116.032-.22.057-.106.024-.486.102-.797.154-.317.053-.638.08-.959.08-.307 0-.589-.028-.837-.085-.231-.049-.45-.144-.643-.28-.176-.128-.318-.298-.412-.495-.097-.198-.146-.441-.146-.7221 0-.2753.058-.5207.17-.7297.112-.2077.266-.3839.459-.5218.199-.1407.422-.2445.659-.3063.246-.0657.508-.0997.778-.0997.199 0 .364.0041.493.0143Zm-1.257 2.2233c-.002 0 .283.224.926.185.452-.028.853-.114.853-.114v-1.4387s-.404-.0662-.858-.0728c-.643-.0078-.918.2293-.916.2287-.189.1349-.282.3349-.282.612 0 .1773.032.3158.096.4128.04.064.057.088.181.187Zm26.741-3.854c-.029.0866-.183.5201-.238.664-.02.0549-.054.0926-.115.086 0 0-.181-.0418-.347-.0418-.114 0-.277.0143-.423.0597-.147.0453-.281.1258-.39.2347-.116.1116-.21.2686-.278.4657-.069.1982-.104.5135-.104.8299v2.3578c0 .012-.003.025-.008.036-.004.012-.011.023-.02.032-.009.008-.02.016-.031.02-.012.005-.024.008-.037.008h-.829c-.013 0-.025-.002-.037-.007-.012-.005-.023-.012-.032-.021-.009-.009-.016-.019-.021-.031-.005-.012-.008-.024-.008-.037v-4.7199c0-.0531.039-.0955.092-.0955h.809c.054 0 .092.0424.092.0955v.3858c.121-.1624.338-.3057.534-.3941.197-.0896.417-.1553.814-.1314.207.0126.476.0693.53.0902.011.0042.021.0106.029.0186.008.008.014.0176.019.0282.004.0106.006.0219.006.0333 0 .0115-.002.0228-.007.0333Zm-7.792-2.1871c.022.0089.083.0382.059.1098l-.243.6646c-.02.0502-.033.08-.136.049-.137-.043-.279-.0651-.422-.0657-.125 0-.238.0161-.338.0496-.101.0321-.192.0883-.265.1636-.098.0948-.174.2102-.222.3379-.116.3344-.161.6908-.167.7135h1.01c.085 0 .112.0394.104.1021l-.118.658c-.019.0956-.106.092-.106.092h-1.041l-.711 4.0337c-.061.362-.154.718-.278 1.063-.111.292-.226.505-.411.709-.158.182-.358.322-.584.407-.219.081-.485.122-.775.122-.138 0-.287-.003-.463-.045-.098-.022-.195-.051-.289-.085-.039-.013-.071-.063-.048-.126.022-.063.209-.576.234-.643.032-.082.114-.051.114-.051.056.024.096.04.17.055.076.015.177.028.254.028.138 0 .263-.017.372-.054.131-.042.209-.119.289-.222.083-.108.151-.254.221-.451.07-.199.133-.461.188-.78l.709-3.9601h-.698c-.083 0-.112-.0394-.103-.1027l.117-.658c.019-.0955.108-.092.108-.092h.716l.038-.2137c.108-.6353.321-1.1184.635-1.4354.317-.3195.767-.4807 1.338-.4807.163 0 .308.0108.43.0328.12.0227.211.0436.312.0747Zm-14.115 6.8431c0 .053-.037.096-.09.096h-.838c-.054 0-.09-.043-.09-.096v-6.7547c0-.052.037-.095.089-.095h.839c.053 0 .09.043.09.0955v6.7542Z" fill="#fff"/><path d="m123.316 153.963-3.458 1.775v31.156l3.458 1.765.021-.026v-34.646l-.021-.024Z" fill="#8C3123"/><path d="m141.82 184.137-18.504 4.522v-34.696l18.504 4.423v25.751Z" fill="#E05243"/><path d="m133.467 177.057 7.849 1.026.049-.117.044-13.213-.093-.104-7.849 1.011v11.397Z" fill="#8C3123"/><path d="m141.315 184.188 18 4.481.029-.047-.001-34.628-.028-.031-18 4.474v25.751Z" fill="#8C3123"/><path d="m149.166 177.057-7.851 1.026v-13.434l7.851 1.011v11.397Z" fill="#E05243"/><path d="m149.167 160.149-7.851 1.469-7.849-1.469 7.839-2.109 7.861 2.109Z" fill="#5E1F18"/><path d="m149.167 182.554-7.851-1.479-7.849 1.479 7.839 2.246 7.861-2.246Z" fill="#F2B0A9"/><path d="m133.467 160.149 7.849-1.994.063-.02v-13.359l-.063-.054-7.849 4.03v11.397Z" fill="#8C3123"/><path d="m149.166 160.149-7.851-1.994v-13.433l7.851 4.03v11.397Z" fill="#E05243"/><path d="m141.315 197.98-7.85-4.029v-11.397l7.85 1.994.115.134-.031 13.065-.084.233Z" fill="#8C3123"/><path d="m141.315 197.98 7.851-4.029v-11.397l-7.851 1.994v13.432Zm18-44.017 3.459 1.775v31.156l-3.459 1.775v-34.706Z" fill="#E05243"/><path d="M114.691 30.4059h-1.69v-3.666l-3.393-5.486h1.859l2.405 4.03h.013l2.379-4.03h1.807l-3.38 5.486v3.666ZM121.08 30.6009c-2.132 0-3.679-1.599-3.679-3.575 0-1.976 1.547-3.575 3.679-3.575 2.145 0 3.692 1.599 3.692 3.575 0 1.963-1.547 3.575-3.692 3.575Zm0-1.417c1.248 0 2.041-.962 2.041-2.145 0-1.209-.793-2.184-2.041-2.184-1.235 0-2.028.975-2.028 2.184 0 1.183.793 2.145 2.028 2.145ZM129.289 30.6009c-.949 0-1.716-.325-2.275-.871-.559-.559-.819-1.3-.819-2.158v-3.926h1.625v3.809c0 .546.091.988.429 1.326.26.26.611.403 1.04.403.442 0 .78-.143 1.027-.403.351-.338.429-.78.429-1.326v-3.809h1.625v3.926c0 .858-.26 1.599-.819 2.158-.559.546-1.326.871-2.262.871ZM135.884 30.4059h-1.625v-6.76h1.508l.104.962h.026c.481-.832 1.482-1.157 2.184-1.157v1.625c-.689-.039-1.365.078-1.768.533-.364.403-.429.91-.429 1.716v3.081ZM149.978 22.5539c.806.819 1.326 2.002 1.326 3.276 0 1.235-.481 2.444-1.339 3.289-.962.962-2.223 1.287-3.757 1.287h-3.185v-9.152h3.185c1.521 0 2.769.286 3.77 1.3Zm-1.326 5.59c.585-.585.923-1.443.923-2.327 0-.897-.338-1.742-.91-2.314-.676-.676-1.56-.819-2.535-.819h-1.417v6.266h1.43c1.027 0 1.859-.143 2.509-.806ZM154.884 30.6009c-1.287 0-2.34-.728-2.34-2.145 0-.689.312-1.235.767-1.586.689-.572 1.638-.663 3.757-.728v-.078c0-.793-.572-1.313-1.443-1.313-.871 0-1.534.455-1.937.962l-.923-.897c.247-.39 1.183-1.365 2.951-1.365.936 0 1.833.312 2.366.988.338.429.52.949.52 1.911v4.056h-1.508l-.078-.819h-.026c-.286.416-.949 1.014-2.106 1.014Zm.299-1.287c1.144 0 1.885-.78 1.885-1.976v-.078c-1.859.039-2.938.169-2.938 1.157 0 .637.494.897 1.053.897ZM164.478 28.9109l.611 1.157c-.377.299-1.014.533-1.742.533-1.612 0-2.47-1.053-2.47-2.587v-3.003h-1.248v-1.365h1.248v-2.067h1.625v2.067h2.08v1.365h-2.08v2.86c0 .689.234 1.313 1.053 1.313.429 0 .741-.156.923-.273ZM168.1 30.6009c-1.287 0-2.34-.728-2.34-2.145 0-.689.312-1.235.767-1.586.689-.572 1.638-.663 3.757-.728v-.078c0-.793-.572-1.313-1.443-1.313-.871 0-1.534.455-1.937.962l-.923-.897c.247-.39 1.183-1.365 2.951-1.365.936 0 1.833.312 2.366.988.338.429.52.949.52 1.911v4.056h-1.508l-.078-.819h-.026c-.286.416-.949 1.014-2.106 1.014Zm.299-1.287c1.144 0 1.885-.78 1.885-1.976v-.078c-1.859.039-2.938.169-2.938 1.157 0 .637.494.897 1.053.897ZM122.623 46.6009c-2.002 0-2.834-1.066-2.951-1.274l.988-.923c.234.299.91.897 1.976.897.793 0 1.326-.299 1.326-.832 0-1.261-4.069-.221-4.069-2.86 0-1.079.988-2.158 2.795-2.158 1.872 0 2.678 1.027 2.808 1.248l-.975.819c-.234-.273-.806-.78-1.807-.78-.715 0-1.209.286-1.209.767 0 1.235 4.069.182 4.069 2.821 0 1.313-1.196 2.275-2.951 2.275ZM130.31 46.6009c-2.132 0-3.679-1.599-3.679-3.575 0-1.976 1.547-3.575 3.679-3.575 2.145 0 3.692 1.599 3.692 3.575 0 1.963-1.547 3.575-3.692 3.575Zm0-1.417c1.248 0 2.041-.962 2.041-2.145 0-1.209-.793-2.184-2.041-2.184-1.235 0-2.028.975-2.028 2.184 0 1.183.793 2.145 2.028 2.145ZM138.519 46.6009c-.949 0-1.716-.325-2.275-.871-.559-.559-.819-1.3-.819-2.158v-3.926h1.625v3.809c0 .546.091.988.429 1.326.26.26.611.403 1.04.403.442 0 .78-.143 1.027-.403.351-.338.429-.78.429-1.326v-3.809h1.625v3.926c0 .858-.26 1.599-.819 2.158-.559.546-1.326.871-2.262.871ZM145.113 46.4059h-1.625v-6.76h1.508l.104.962h.026c.481-.832 1.482-1.157 2.184-1.157v1.625c-.689-.039-1.365.078-1.768.533-.364.403-.429.91-.429 1.716v3.081ZM151.714 46.6009c-2.197 0-3.692-1.612-3.692-3.575 0-1.976 1.521-3.575 3.692-3.575 1.924 0 2.808 1.131 3.016 1.521l-1.235.884c-.247-.351-.715-.988-1.794-.988-1.196 0-2.028.962-2.028 2.158 0 1.183.832 2.158 2.028 2.158 1.118 0 1.586-.637 1.82-.962l1.235.845c-.195.351-1.118 1.534-3.042 1.534ZM162.594 43.0259c0 .169 0 .351-.013.533h-5.291c.026.806.702 1.703 1.95 1.703.988 0 1.573-.559 1.807-.884l1.04.897c-.416.572-1.43 1.326-2.86 1.326-2.223 0-3.588-1.599-3.588-3.562 0-2.067 1.495-3.588 3.549-3.588 2.067 0 3.406 1.56 3.406 3.575Zm-3.419-2.301c-1.183 0-1.781.897-1.872 1.612h3.653c-.052-.702-.637-1.612-1.781-1.612ZM415.087 122.564h-1.37l-.6-1.66h-3.06l-.6 1.66h-1.34l2.7-7.04h1.57l2.7 7.04Zm-3.49-5.86h-.02l-1.13 3.11h2.28l-1.13-3.11ZM417.128 122.564h-1.25v-5.2h1.16l.06.64h.01c.15-.22.6-.79 1.58-.79 1.2 0 1.95.77 1.95 2.08v3.27h-1.25v-3.03c0-.83-.44-1.23-1.05-1.23-.78 0-1.21.59-1.21 1.42v2.84ZM423.599 122.714c-.99 0-1.8-.56-1.8-1.65 0-.53.24-.95.59-1.22.53-.44 1.26-.51 2.89-.56v-.06c0-.61-.44-1.01-1.11-1.01-.67 0-1.18.35-1.49.74l-.71-.69c.19-.3.91-1.05 2.27-1.05.72 0 1.41.24 1.82.76.26.33.4.73.4 1.47v3.12h-1.16l-.06-.63h-.02c-.22.32-.73.78-1.62.78Zm.23-.99c.88 0 1.45-.6 1.45-1.52v-.06c-1.43.03-2.26.13-2.26.89 0 .49.38.69.81.69ZM429.159 122.564h-1.25v-7.45h1.25v7.45ZM432.613 124.684h-1.33l.87-2.17-2.16-5.15h1.35l1.44 3.68h.02l1.33-3.68h1.31l-2.83 7.32ZM439.544 121.414l.47.89c-.29.23-.78.41-1.34.41-1.24 0-1.9-.81-1.9-1.99v-2.31h-.96v-1.05h.96v-1.59h1.25v1.59h1.6v1.05h-1.6v2.2c0 .53.18 1.01.81 1.01.33 0 .57-.12.71-.21ZM441.508 116.484c-.46 0-.82-.35-.82-.81 0-.44.36-.8.82-.8.45 0 .81.36.81.8 0 .46-.36.81-.81.81Zm.63 6.08h-1.25v-5.2h1.25v5.2ZM446.131 122.714c-1.69 0-2.84-1.24-2.84-2.75 0-1.52 1.17-2.75 2.84-2.75 1.48 0 2.16.87 2.32 1.17l-.95.68c-.19-.27-.55-.76-1.38-.76-.92 0-1.56.74-1.56 1.66 0 .91.64 1.66 1.56 1.66.86 0 1.22-.49 1.4-.74l.95.65c-.15.27-.86 1.18-2.34 1.18ZM451.371 122.714c-1.54 0-2.18-.82-2.27-.98l.76-.71c.18.23.7.69 1.52.69.61 0 1.02-.23 1.02-.64 0-.97-3.13-.17-3.13-2.2 0-.83.76-1.66 2.15-1.66 1.44 0 2.06.79 2.16.96l-.75.63c-.18-.21-.62-.6-1.39-.6-.55 0-.93.22-.93.59 0 .95 3.13.14 3.13 2.17 0 1.01-.92 1.75-2.27 1.75ZM628.845 30.4059h-1.69v-3.666l-3.393-5.486h1.859l2.405 4.03h.013l2.379-4.03h1.807l-3.38 5.486v3.666ZM635.234 30.6009c-2.132 0-3.679-1.599-3.679-3.575 0-1.976 1.547-3.575 3.679-3.575 2.145 0 3.692 1.599 3.692 3.575 0 1.963-1.547 3.575-3.692 3.575Zm0-1.417c1.248 0 2.041-.962 2.041-2.145 0-1.209-.793-2.184-2.041-2.184-1.235 0-2.028.975-2.028 2.184 0 1.183.793 2.145 2.028 2.145ZM643.443 30.6009c-.949 0-1.716-.325-2.275-.871-.559-.559-.819-1.3-.819-2.158v-3.926h1.625v3.809c0 .546.091.988.429 1.326.26.26.611.403 1.04.403.442 0 .78-.143 1.027-.403.351-.338.429-.78.429-1.326v-3.809h1.625v3.926c0 .858-.26 1.599-.819 2.158-.559.546-1.326.871-2.262.871ZM650.038 30.4059h-1.625v-6.76h1.508l.104.962h.026c.481-.832 1.482-1.157 2.184-1.157v1.625c-.689-.039-1.365.078-1.768.533-.364.403-.429.91-.429 1.716v3.081ZM607.094 46.6009c-2.86 0-4.888-2.132-4.888-4.758 0-2.639 2.041-4.784 4.901-4.784 1.898 0 3.276.936 3.783 1.742l-1.131.962c-.572-.689-1.456-1.248-2.652-1.248-1.911 0-3.172 1.495-3.172 3.315 0 1.859 1.274 3.302 3.172 3.302 1.287 0 2.119-.572 2.73-1.261l1.066 1.014c-.494.689-1.807 1.716-3.809 1.716ZM615.43 46.6009c-2.132 0-3.679-1.599-3.679-3.575 0-1.976 1.547-3.575 3.679-3.575 2.145 0 3.692 1.599 3.692 3.575 0 1.963-1.547 3.575-3.692 3.575Zm0-1.417c1.248 0 2.041-.962 2.041-2.145 0-1.209-.793-2.184-2.041-2.184-1.235 0-2.028.975-2.028 2.184 0 1.183.793 2.145 2.028 2.145ZM622.261 46.4059h-1.625v-6.76h1.508l.078.832h.013c.195-.286.78-1.027 2.054-1.027 1.56 0 2.535 1.001 2.535 2.704v4.251h-1.625v-3.939c0-1.079-.572-1.599-1.365-1.599-1.014 0-1.573.767-1.573 1.846v3.692ZM631.128 46.6009c-2.002 0-2.834-1.066-2.951-1.274l.988-.923c.234.299.91.897 1.976.897.793 0 1.326-.299 1.326-.832 0-1.261-4.069-.221-4.069-2.86 0-1.079.988-2.158 2.795-2.158 1.872 0 2.678 1.027 2.808 1.248l-.975.819c-.234-.273-.806-.78-1.807-.78-.715 0-1.209.286-1.209.767 0 1.235 4.069.182 4.069 2.821 0 1.313-1.196 2.275-2.951 2.275ZM638.607 46.6009c-.949 0-1.716-.325-2.275-.871-.559-.559-.819-1.3-.819-2.158v-3.926h1.625v3.809c0 .546.091.988.429 1.326.259.26.611.403 1.04.403.442 0 .78-.143 1.027-.403.351-.338.428-.78.428-1.326v-3.809h1.626v3.926c0 .858-.26 1.599-.819 2.158-.559.546-1.326.871-2.262.871ZM645.214 46.4059h-1.638v-6.76h1.508l.078.806h.013c.247-.377.845-1.001 1.937-1.001 1.157 0 1.755.65 2.028 1.027h.013c.234-.312.871-1.027 2.054-1.027.962 0 1.69.351 2.132.923.364.481.494 1.027.494 1.755v4.277h-1.638v-3.887c0-.377-.026-.767-.208-1.066-.221-.377-.611-.572-1.04-.572-.481 0-.936.247-1.17.65-.208.364-.26.806-.26 1.313v3.562h-1.638v-3.887c0-.377-.013-.767-.208-1.066-.221-.377-.598-.572-1.04-.572-.468 0-.923.247-1.157.65-.221.364-.26.806-.26 1.313v3.562ZM662.2 43.0259c0 .169 0 .351-.013.533h-5.291c.026.806.702 1.703 1.95 1.703.988 0 1.573-.559 1.807-.884l1.04.897c-.416.572-1.43 1.326-2.86 1.326-2.223 0-3.588-1.599-3.588-3.562 0-2.067 1.495-3.588 3.549-3.588 2.067 0 3.406 1.56 3.406 3.575Zm-3.419-2.301c-1.183 0-1.781.897-1.872 1.612h3.653c-.052-.702-.637-1.612-1.781-1.612ZM665.285 46.4059h-1.625v-6.76h1.508l.104.962h.026c.481-.832 1.482-1.157 2.184-1.157v1.625c-.689-.039-1.365.078-1.768.533-.364.403-.429.91-.429 1.716v3.081ZM671.207 46.6009c-2.002 0-2.834-1.066-2.951-1.274l.988-.923c.234.299.91.897 1.976.897.793 0 1.326-.299 1.326-.832 0-1.261-4.069-.221-4.069-2.86 0-1.079.988-2.158 2.795-2.158 1.872 0 2.678 1.027 2.808 1.248l-.975.819c-.234-.273-.806-.78-1.807-.78-.715 0-1.209.286-1.209.767 0 1.235 4.069.182 4.069 2.821 0 1.313-1.196 2.275-2.951 2.275Z" fill="#1B127D"/><path fill-rule="evenodd" clip-rule="evenodd" d="M150.524 251.003c-3.088 0-5.592-2.478-5.592-5.534 0-3.056 2.504-5.534 5.592-5.534 3.088 0 5.592 2.478 5.592 5.534 0 3.056-2.504 5.534-5.592 5.534Zm1.674-16.187v-4.923c1.299-.607 2.208-1.907 2.208-3.415v-.114c0-2.082-1.721-3.785-3.825-3.785h-.114c-2.104 0-3.825 1.703-3.825 3.785v.114c0 1.508.909 2.809 2.207 3.416v4.922c-1.933.295-3.699 1.084-5.156 2.246l-13.658-10.514c.09-.343.154-.695.154-1.066.002-2.357-1.926-4.272-4.309-4.275-2.383-.002-4.317 1.906-4.32 4.265-.003 2.358 1.926 4.272 4.309 4.274.776.002 1.495-.217 2.125-.571l13.435 10.342c-1.142 1.707-1.812 3.751-1.812 5.952 0 2.304.736 4.435 1.978 6.188l-4.085 4.044c-.323-.097-.658-.163-1.013-.163-1.958 0-3.546 1.57-3.546 3.508s1.588 3.508 3.546 3.508c1.958 0 3.546-1.57 3.546-3.508 0-.351-.068-.683-.165-1.002l4.041-4c1.835 1.386 4.119 2.218 6.605 2.218 6.024 0 10.906-4.832 10.906-10.793 0-5.396-4.005-9.854-9.232-10.653Z" fill="#F95C35"/><path fill-rule="evenodd" clip-rule="evenodd" d="M622.388 67.5h32.25v26.25h-32.25V67.5Zm1.5 1.5v2.2508h29.25V69h-29.25Zm29.25 3.7508h-29.25V92.25h29.25V72.7508Zm-6 4.4992c-.828 0-1.5.6716-1.5 1.5s.672 1.5 1.5 1.5c.829 0 1.5-.6716 1.5-1.5s-.671-1.5-1.5-1.5Zm-3 1.5c0-1.6569 1.344-3 3-3 1.657 0 3 1.3431 3 3s-1.343 3-3 3c-1.656 0-3-1.3431-3-3Zm-12 .75c-.828 0-1.5.6716-1.5 1.5s.672 1.5 1.5 1.5c.829 0 1.5-.6716 1.5-1.5s-.671-1.5-1.5-1.5Zm-3 1.5c0-1.6569 1.344-3 3-3 1.657 0 3 1.3431 3 3s-1.343 3-3 3c-1.656 0-3-1.3431-3-3Zm15.683 1.4401-.998 1.1198-1.12-.9978.998-1.1197 1.12.9977Zm-8.346 2.2238-1.263-.8085.809-1.2633 1.263.8085-.809 1.2633Zm3.913.0861c-.828 0-1.5.6716-1.5 1.5s.672 1.5 1.5 1.5c.829 0 1.5-.6716 1.5-1.5s-.671-1.5-1.5-1.5Zm-3 1.5c0-1.6569 1.344-3 3-3 1.657 0 3 1.3431 3 3s-1.343 3-3 3c-1.656 0-3-1.3431-3-3Zm-9.163-.7993.838-1.2435 1.244.8381-.838 1.2435-1.244-.8381Zm-1.676 2.4887.838-1.2443 1.244.8378-.838 1.2442-1.244-.8377Z" fill="#1B127D"/><path d="M610.564 109.212v.018c.621.234 1.017.846 1.017 1.494 0 .468-.216.918-.531 1.224-.558.549-1.377.549-1.872.549h-2.574v-6.336h2.475c.495 0 1.287 0 1.818.558.297.306.486.711.486 1.143 0 .567-.288 1.107-.819 1.35Zm-1.413-2.061h-1.377v1.638h1.35c.252 0 .639 0 .882-.252.144-.144.216-.351.216-.576 0-.216-.081-.423-.216-.558-.252-.252-.63-.252-.855-.252Zm.981 4.086c.153-.153.252-.369.252-.621 0-.225-.081-.441-.243-.603-.261-.27-.693-.27-.9-.27h-1.467v1.755h1.458c.243 0 .648-.009.9-.261Zm3.848 1.26h-1.17v-6.336h1.17v6.336Zm5.924.135c-1.449 0-2.367-1.116-2.367-2.475 0-1.368.927-2.475 2.349-2.475.765 0 1.296.324 1.584.684h.009v-2.574h1.125v6.705h-1.044l-.054-.594h-.009c-.279.387-.837.729-1.593.729Zm.189-.981c.855 0 1.404-.666 1.404-1.494 0-.837-.549-1.503-1.404-1.503-.846 0-1.413.666-1.413 1.503 0 .828.567 1.494 1.413 1.494Zm5.235.981c-.891 0-1.62-.504-1.62-1.485 0-.477.216-.855.531-1.098.477-.396 1.134-.459 2.601-.504v-.054c0-.549-.396-.909-.999-.909s-1.062.315-1.341.666l-.639-.621c.171-.27.819-.945 2.043-.945.648 0 1.269.216 1.638.684.234.297.36.657.36 1.323v2.808h-1.044l-.054-.567h-.018c-.198.288-.657.702-1.458.702Zm.207-.891c.792 0 1.305-.54 1.305-1.368v-.054c-1.287.027-2.034.117-2.034.801 0 .441.342.621.729.621Zm5.346.891c-1.386 0-1.962-.738-2.043-.882l.684-.639c.162.207.63.621 1.368.621.549 0 .918-.207.918-.576 0-.873-2.817-.153-2.817-1.98 0-.747.684-1.494 1.935-1.494 1.296 0 1.854.711 1.944.864l-.675.567c-.162-.189-.558-.54-1.251-.54-.495 0-.837.198-.837.531 0 .855 2.817.126 2.817 1.953 0 .909-.828 1.575-2.043 1.575Zm4.224-.135h-1.125v-6.705h1.125v2.574h.009c.144-.198.558-.684 1.395-.684 1.08 0 1.755.693 1.755 1.872v2.943h-1.125v-2.727c0-.747-.396-1.107-.945-1.107-.702 0-1.089.531-1.089 1.278v2.556Zm7.164.135c-.756 0-1.323-.342-1.584-.729h-.018l-.054.594h-1.044v-6.705h1.125v2.565h.009c.288-.351.81-.675 1.602-.675 1.404 0 2.331 1.107 2.331 2.475 0 1.359-.918 2.475-2.367 2.475Zm-.18-.981c.828 0 1.413-.666 1.413-1.494 0-.837-.585-1.503-1.413-1.503-.846 0-1.413.666-1.413 1.503 0 .828.567 1.494 1.413 1.494Zm5.882.981c-1.476 0-2.547-1.107-2.547-2.475s1.071-2.475 2.547-2.475c1.485 0 2.556 1.107 2.556 2.475 0 1.359-1.071 2.475-2.556 2.475Zm0-.981c.864 0 1.413-.666 1.413-1.485 0-.837-.549-1.512-1.413-1.512-.855 0-1.404.675-1.404 1.512 0 .819.549 1.485 1.404 1.485Zm4.963.981c-.891 0-1.62-.504-1.62-1.485 0-.477.216-.855.531-1.098.477-.396 1.134-.459 2.601-.504v-.054c0-.549-.396-.909-.999-.909s-1.062.315-1.341.666l-.639-.621c.171-.27.819-.945 2.043-.945.648 0 1.269.216 1.638.684.234.297.36.657.36 1.323v2.808h-1.044l-.054-.567h-.018c-.198.288-.657.702-1.458.702Zm.207-.891c.792 0 1.305-.54 1.305-1.368v-.054c-1.287.027-2.034.117-2.034.801 0 .441.342.621.729.621Zm4.798.756h-1.125v-4.68h1.044l.072.666h.018c.333-.576 1.026-.801 1.512-.801v1.125c-.477-.027-.945.054-1.224.369-.252.279-.297.63-.297 1.188v2.133Zm4.381.135c-1.449 0-2.367-1.116-2.367-2.475 0-1.368.927-2.475 2.349-2.475.765 0 1.296.324 1.584.684h.009v-2.574h1.125v6.705h-1.044l-.054-.594h-.009c-.279.387-.837.729-1.593.729Zm.189-.981c.855 0 1.404-.666 1.404-1.494 0-.837-.549-1.503-1.404-1.503-.846 0-1.413.666-1.413 1.503 0 .828.567 1.494 1.413 1.494Zm5.55.981c-1.386 0-1.962-.738-2.043-.882l.684-.639c.162.207.63.621 1.368.621.549 0 .918-.207.918-.576 0-.873-2.817-.153-2.817-1.98 0-.747.684-1.494 1.935-1.494 1.296 0 1.854.711 1.944.864l-.675.567c-.162-.189-.558-.54-1.251-.54-.495 0-.837.198-.837.531 0 .855 2.817.126 2.817 1.953 0 .909-.828 1.575-2.043 1.575Z" fill="#1B127D"/><path fill-rule="evenodd" clip-rule="evenodd" d="M627.514 136.065c-2.117 0-3.833 1.716-3.833 3.833v25.624c0 2.119 1.717 3.837 3.836 3.837h25.079v-1.555h-1.295v-4.564h1.283v-27.166h-.777v-.009h-24.293Zm22.233 27.175v4.564h-22.23c-1.26 0-2.282-1.021-2.282-2.282 0-1.26 1.022-2.282 2.282-2.282h22.23Zm1.283-25.62h-23.516c-1.259 0-2.279 1.02-2.279 2.278v22.54c.638-.472 1.427-.752 2.282-.752h23.513V137.62Zm-17.808 12.164c0-2.712 2.198-4.91 4.911-4.91 2.712 0 4.91 2.198 4.91 4.91s-2.198 4.911-4.91 4.911c-2.713 0-4.911-2.199-4.911-4.911Zm4.911-6.465c-3.571 0-6.465 2.895-6.465 6.465 0 3.571 2.894 6.465 6.465 6.465 3.57 0 6.464-2.894 6.464-6.465 0-3.57-2.894-6.465-6.464-6.465Z" fill="#1B127D"/><path d="M615.028 185.413h-1.107v-6.336h1.53l2.772 4.914h.009v-4.914h1.116v6.336h-1.53l-2.772-4.914h-.018v4.914Zm8.031.135c-1.476 0-2.547-1.107-2.547-2.475s1.071-2.475 2.547-2.475c1.485 0 2.556 1.107 2.556 2.475 0 1.359-1.071 2.475-2.556 2.475Zm0-.981c.864 0 1.413-.666 1.413-1.485 0-.837-.549-1.512-1.413-1.512-.855 0-1.404.675-1.404 1.512 0 .819.549 1.485 1.404 1.485Zm6.34-.189.423.801c-.261.207-.702.369-1.206.369-1.116 0-1.71-.729-1.71-1.791v-2.079h-.864v-.945h.864v-1.431h1.125v1.431h1.44v.945h-1.44v1.98c0 .477.162.909.729.909.297 0 .513-.108.639-.189Zm5.578-1.305c0 .117 0 .243-.009.369h-3.663c.018.558.486 1.179 1.35 1.179.684 0 1.089-.387 1.251-.612l.72.621c-.288.396-.99.918-1.98.918-1.539 0-2.484-1.107-2.484-2.466 0-1.431 1.035-2.484 2.457-2.484 1.431 0 2.358 1.08 2.358 2.475Zm-2.367-1.593c-.819 0-1.233.621-1.296 1.116h2.529c-.036-.486-.441-1.116-1.233-1.116Zm6.078 4.068c-.756 0-1.323-.342-1.584-.729h-.018l-.054.594h-1.044v-6.705h1.125v2.565h.009c.288-.351.81-.675 1.602-.675 1.404 0 2.331 1.107 2.331 2.475 0 1.359-.918 2.475-2.367 2.475Zm-.18-.981c.828 0 1.413-.666 1.413-1.494 0-.837-.585-1.503-1.413-1.503-.846 0-1.413.666-1.413 1.503 0 .828.567 1.494 1.413 1.494Zm5.882.981c-1.476 0-2.547-1.107-2.547-2.475s1.071-2.475 2.547-2.475c1.485 0 2.556 1.107 2.556 2.475 0 1.359-1.071 2.475-2.556 2.475Zm0-.981c.864 0 1.413-.666 1.413-1.485 0-.837-.549-1.512-1.413-1.512-.855 0-1.404.675-1.404 1.512 0 .819.549 1.485 1.404 1.485Zm5.897.981c-1.476 0-2.547-1.107-2.547-2.475s1.071-2.475 2.547-2.475c1.485 0 2.556 1.107 2.556 2.475 0 1.359-1.071 2.475-2.556 2.475Zm0-.981c.864 0 1.413-.666 1.413-1.485 0-.837-.549-1.512-1.413-1.512-.855 0-1.404.675-1.404 1.512 0 .819.549 1.485 1.404 1.485Zm4.729.846h-1.125v-6.705h1.125v4.149h.009l1.944-2.124h1.35l-2.097 2.187 2.133 2.493h-1.35l-1.98-2.394h-.009v2.394Zm5.726.135c-1.386 0-1.962-.738-2.043-.882l.684-.639c.162.207.63.621 1.368.621.549 0 .918-.207.918-.576 0-.873-2.817-.153-2.817-1.98 0-.747.684-1.494 1.935-1.494 1.296 0 1.854.711 1.944.864l-.675.567c-.162-.189-.558-.54-1.251-.54-.495 0-.837.198-.837.531 0 .855 2.817.126 2.817 1.953 0 .909-.828 1.575-2.043 1.575Z" fill="#1B127D"/><path fill-rule="evenodd" clip-rule="evenodd" d="M621.583 208.982h1.7v7.003h20.288v-7.003h1.7v8.703h-23.688v-8.703ZM621.583 231.69h23.688v8.703h-1.7v-7.003h-20.288v7.003h-1.7v-8.703ZM631.006 219.126h23.688v11.123h-23.688v-11.123Zm1.7 1.7v7.723h20.288v-7.723h-20.288ZM627.93 219.126h1.57v1.7h-1.57v-1.7ZM624.789 219.126h1.57v1.7h-1.57v-1.7ZM621.648 219.126h1.57v1.7h-1.57v-1.7ZM621.648 225.408h1.57v1.7h-1.57v-1.7ZM621.648 222.267h1.57v1.7h-1.57v-1.7ZM621.648 228.549h1.57v1.7h-1.57v-1.7ZM624.789 228.549h1.57v1.7h-1.57v-1.7ZM627.93 228.549h1.57v1.7h-1.57v-1.7Z" fill="#1B127D"/><path d="M614.719 252.743v1.746h3.321v1.008h-4.491v-6.336h4.374v.999h-3.204v1.611h2.862v.972h-2.862Zm5.525 2.754h-1.134v-4.68h1.044l.054.558h.009c.171-.261.585-.693 1.341-.693.801 0 1.215.45 1.404.711h.009c.162-.216.603-.711 1.422-.711.666 0 1.17.243 1.476.639.252.333.342.711.342 1.215v2.961h-1.134v-2.691c0-.261-.018-.531-.144-.738-.153-.261-.423-.396-.72-.396-.333 0-.648.171-.81.45-.144.252-.18.558-.18.909v2.466h-1.134v-2.691c0-.261-.009-.531-.144-.738-.153-.261-.414-.396-.72-.396-.324 0-.639.171-.801.45-.153.252-.18.558-.18.909v2.466Zm9.968.135c-.756 0-1.323-.342-1.584-.729h-.018l-.054.594h-1.044v-6.705h1.125v2.565h.009c.288-.351.81-.675 1.602-.675 1.404 0 2.331 1.107 2.331 2.475 0 1.359-.918 2.475-2.367 2.475Zm-.18-.981c.828 0 1.413-.666 1.413-1.494 0-.837-.585-1.503-1.413-1.503-.846 0-1.413.666-1.413 1.503 0 .828.567 1.494 1.413 1.494Zm8.15-1.494c0 .117 0 .243-.009.369h-3.663c.018.558.486 1.179 1.35 1.179.684 0 1.089-.387 1.251-.612l.72.621c-.288.396-.99.918-1.98.918-1.539 0-2.484-1.107-2.484-2.466 0-1.431 1.035-2.484 2.457-2.484 1.431 0 2.358 1.08 2.358 2.475Zm-2.367-1.593c-.819 0-1.233.621-1.296 1.116h2.529c-.036-.486-.441-1.116-1.233-1.116Zm5.517 4.068c-1.449 0-2.367-1.116-2.367-2.475 0-1.368.927-2.475 2.349-2.475.765 0 1.296.324 1.584.684h.009v-2.574h1.125v6.705h-1.044l-.054-.594h-.009c-.279.387-.837.729-1.593.729Zm.189-.981c.855 0 1.404-.666 1.404-1.494 0-.837-.549-1.503-1.404-1.503-.846 0-1.413.666-1.413 1.503 0 .828.567 1.494 1.413 1.494Zm5.92.981c-1.449 0-2.367-1.116-2.367-2.475 0-1.368.927-2.475 2.349-2.475.765 0 1.296.324 1.584.684h.009v-2.574h1.125v6.705h-1.044l-.054-.594h-.009c-.279.387-.837.729-1.593.729Zm.189-.981c.855 0 1.404-.666 1.404-1.494 0-.837-.549-1.503-1.404-1.503-.846 0-1.413.666-1.413 1.503 0 .828.567 1.494 1.413 1.494Zm8.367-1.494c0 .117 0 .243-.009.369h-3.663c.018.558.486 1.179 1.35 1.179.684 0 1.089-.387 1.251-.612l.72.621c-.288.396-.99.918-1.98.918-1.539 0-2.484-1.107-2.484-2.466 0-1.431 1.035-2.484 2.457-2.484 1.431 0 2.358 1.08 2.358 2.475Zm-2.367-1.593c-.819 0-1.233.621-1.296 1.116h2.529c-.036-.486-.441-1.116-1.233-1.116Zm5.518 4.068c-1.449 0-2.367-1.116-2.367-2.475 0-1.368.927-2.475 2.349-2.475.765 0 1.296.324 1.584.684h.009v-2.574h1.125v6.705h-1.044l-.054-.594h-.009c-.279.387-.837.729-1.593.729Zm.189-.981c.855 0 1.404-.666 1.404-1.494 0-.837-.549-1.503-1.404-1.503-.846 0-1.413.666-1.413 1.503 0 .828.567 1.494 1.413 1.494Zm-39.796 11.981c-.891 0-1.62-.504-1.62-1.485 0-.477.216-.855.531-1.098.477-.396 1.134-.459 2.601-.504v-.054c0-.549-.396-.909-.999-.909s-1.062.315-1.341.666l-.639-.621c.171-.27.819-.945 2.043-.945.648 0 1.269.216 1.638.684.234.297.36.657.36 1.323v2.808h-1.044l-.054-.567h-.018c-.198.288-.657.702-1.458.702Zm.207-.891c.792 0 1.305-.54 1.305-1.368v-.054c-1.287.027-2.034.117-2.034.801 0 .441.342.621.729.621Zm4.798.756h-1.125v-4.68h1.044l.054.576h.009c.135-.198.54-.711 1.422-.711 1.08 0 1.755.693 1.755 1.872v2.943h-1.125v-2.727c0-.747-.396-1.107-.945-1.107-.702 0-1.089.531-1.089 1.278v2.556Zm5.823.135c-.891 0-1.62-.504-1.62-1.485 0-.477.216-.855.531-1.098.477-.396 1.134-.459 2.601-.504v-.054c0-.549-.396-.909-.999-.909s-1.062.315-1.341.666l-.639-.621c.171-.27.819-.945 2.043-.945.648 0 1.269.216 1.638.684.234.297.36.657.36 1.323v2.808h-1.044l-.054-.567h-.018c-.198.288-.657.702-1.458.702Zm.207-.891c.792 0 1.305-.54 1.305-1.368v-.054c-1.287.027-2.034.117-2.034.801 0 .441.342.621.729.621Zm4.798.756h-1.125v-6.705h1.125v6.705Zm3.108 1.908h-1.197l.783-1.953-1.944-4.635h1.215l1.296 3.312h.018l1.197-3.312h1.179l-2.547 6.588Zm6.238-2.943.423.801c-.261.207-.702.369-1.206.369-1.116 0-1.71-.729-1.71-1.791v-2.079h-.864v-.945h.864v-1.431h1.125v1.431h1.44v.945h-1.44v1.98c0 .477.162.909.729.909.297 0 .513-.108.639-.189Zm1.768-4.437c-.414 0-.738-.315-.738-.729 0-.396.324-.72.738-.72.405 0 .729.324.729.72 0 .414-.324.729-.729.729Zm.567 5.472h-1.125v-4.68h1.125v4.68Zm3.594.135c-1.521 0-2.556-1.116-2.556-2.475 0-1.368 1.053-2.475 2.556-2.475 1.332 0 1.944.783 2.088 1.053l-.855.612c-.171-.243-.495-.684-1.242-.684-.828 0-1.404.666-1.404 1.494 0 .819.576 1.494 1.404 1.494.774 0 1.098-.441 1.26-.666l.855.585c-.135.243-.774 1.062-2.106 1.062Zm4.715 0c-1.386 0-1.962-.738-2.043-.882l.684-.639c.162.207.63.621 1.368.621.549 0 .918-.207.918-.576 0-.873-2.817-.153-2.817-1.98 0-.747.684-1.494 1.935-1.494 1.296 0 1.854.711 1.944.864l-.675.567c-.162-.189-.558-.54-1.251-.54-.495 0-.837.198-.837.531 0 .855 2.817.126 2.817 1.953 0 .909-.828 1.575-2.043 1.575ZM238.206 112.962v1.94h3.69v1.12h-4.99v-7.04h4.86v1.11h-3.56v1.79h3.18v1.08h-3.18ZM243.745 116.022h-1.39l1.88-2.66-1.78-2.54h1.38l1.16 1.71h.03l1.15-1.71h1.35l-1.78 2.53 1.88 2.67h-1.41l-1.22-1.83h-.03l-1.22 1.83ZM251.604 114.872l.47.89c-.29.23-.78.41-1.34.41-1.24 0-1.9-.81-1.9-1.99v-2.31h-.96v-1.05h.96v-1.59h1.25v1.59h1.6v1.05h-1.6v2.2c0 .53.18 1.01.81 1.01.33 0 .57-.12.71-.21ZM254.188 116.022h-1.25v-5.2h1.16l.08.74h.02c.37-.64 1.14-.89 1.68-.89v1.25c-.53-.03-1.05.06-1.36.41-.28.31-.33.7-.33 1.32v2.37ZM258.247 116.172c-.99 0-1.8-.56-1.8-1.65 0-.53.24-.95.59-1.22.53-.44 1.26-.51 2.89-.56v-.06c0-.61-.44-1.01-1.11-1.01-.67 0-1.18.35-1.49.74l-.71-.69c.19-.3.91-1.05 2.27-1.05.72 0 1.41.24 1.82.76.26.33.4.73.4 1.47v3.12h-1.16l-.06-.63h-.02c-.22.32-.73.78-1.62.78Zm.23-.99c.88 0 1.45-.6 1.45-1.52v-.06c-1.43.03-2.26.13-2.26.89 0 .49.38.69.81.69ZM265.037 116.172c-1.69 0-2.84-1.24-2.84-2.75 0-1.52 1.17-2.75 2.84-2.75 1.48 0 2.16.87 2.32 1.17l-.95.68c-.19-.27-.55-.76-1.38-.76-.92 0-1.56.74-1.56 1.66 0 .91.64 1.66 1.56 1.66.86 0 1.22-.49 1.4-.74l.95.65c-.15.27-.86 1.18-2.34 1.18ZM271.487 114.872l.47.89c-.29.23-.78.41-1.34.41-1.24 0-1.9-.81-1.9-1.99v-2.31h-.96v-1.05h.96v-1.59h1.25v1.59h1.6v1.05h-1.6v2.2c0 .53.18 1.01.81 1.01.33 0 .57-.12.71-.21ZM243.763 120.982v5.92h3.49v1.12h-4.79v-7.04h1.3ZM250.652 128.172c-1.64 0-2.83-1.23-2.83-2.75s1.19-2.75 2.83-2.75c1.65 0 2.84 1.23 2.84 2.75 0 1.51-1.19 2.75-2.84 2.75Zm0-1.09c.96 0 1.57-.74 1.57-1.65 0-.93-.61-1.68-1.57-1.68-.95 0-1.56.75-1.56 1.68 0 .91.61 1.65 1.56 1.65ZM256.167 128.172c-.99 0-1.8-.56-1.8-1.65 0-.53.24-.95.59-1.22.53-.44 1.26-.51 2.89-.56v-.06c0-.61-.44-1.01-1.11-1.01-.67 0-1.18.35-1.49.74l-.71-.69c.19-.3.91-1.05 2.27-1.05.72 0 1.41.24 1.82.76.26.33.4.73.4 1.47v3.12h-1.16l-.06-.63h-.02c-.22.32-.73.78-1.62.78Zm.23-.99c.88 0 1.45-.6 1.45-1.52v-.06c-1.43.03-2.26.13-2.26.89 0 .49.38.69.81.69ZM262.747 128.172c-1.61 0-2.63-1.24-2.63-2.75 0-1.52 1.03-2.75 2.61-2.75.85 0 1.44.36 1.76.76h.01v-2.86h1.25v7.45h-1.16l-.06-.66h-.01c-.31.43-.93.81-1.77.81Zm.21-1.09c.95 0 1.56-.74 1.56-1.66 0-.93-.61-1.67-1.56-1.67-.94 0-1.57.74-1.57 1.67 0 .92.63 1.66 1.57 1.66Z" fill="#1B127D"/><circle cx="253.559" cy="144.696" r="4.10679" fill="#F2F4F6" stroke="#1B127D" stroke-width="2"/><circle cx="430.638" cy="144.696" r="4.10679" fill="#F2F4F6" stroke="#1B127D" stroke-width="2"/><path d="m370.013 148.113-1.621-.689c.205-1.613.222-3.258.043-4.908l1.633-.66c1.467-.594 2.186-2.279 1.589-3.748l-2.155-5.34c-.452-1.118-1.537-1.8-2.679-1.8-.357 0-.721.067-1.071.209l-1.632.658c-1.017-1.308-2.171-2.482-3.439-3.499l.689-1.619c.617-1.46-.069-3.158-1.527-3.777l-5.302-2.252c-.364-.153-.743-.227-1.117-.227-1.122 0-2.193.659-2.659 1.754l-.688 1.62c-.869-.111-1.748-.166-2.631-.166-.756 0-1.514.04-2.274.123l-.661-1.633c-.45-1.117-1.535-1.799-2.674-1.799-.358 0-.721.067-1.074.211l-5.34 2.153c-1.469.595-2.183 2.281-1.591 3.75l.66 1.633c-1.312 1.017-2.484 2.173-3.5 3.439l-1.622-.687c-.363-.154-.743-.228-1.116-.228-1.123 0-2.194.66-2.659 1.753l-2.251 5.301c-.618 1.458.069 3.157 1.525 3.777l1.622.686c-.204 1.613-.222 3.26-.042 4.909l-1.632.659c-1.471.594-2.185 2.28-1.591 3.748l2.156 5.342c.45 1.117 1.537 1.8 2.677 1.8.357 0 .721-.067 1.071-.21l1.634-.662c1.017 1.314 2.172 2.485 3.439 3.502l-.687 1.621c-.621 1.46.067 3.156 1.524 3.776l5.302 2.252c.364.153.742.227 1.116.227 1.123 0 2.195-.659 2.659-1.754l.689-1.623c.869.112 1.749.167 2.632.167.757 0 1.515-.04 2.275-.122l.66 1.63c.451 1.12 1.537 1.801 2.677 1.801.358 0 .72-.067 1.071-.207l5.339-2.158c1.469-.593 2.185-2.279 1.592-3.749l-.659-1.633c1.31-1.016 2.481-2.172 3.499-3.44l1.622.689c.364.156.742.228 1.116.228 1.123 0 2.195-.66 2.659-1.753l2.251-5.301c.617-1.457-.07-3.16-1.527-3.774Zm.545 3.357-2.251 5.302c-.284.671-.943 1.104-1.679 1.104-.241 0-.477-.048-.698-.143l-1.622-.69c-.134-.057-.277-.085-.417-.085-.315 0-.624.142-.831.398-.974 1.213-2.092 2.311-3.321 3.265-.377.293-.514.8-.336 1.24l.66 1.634c.374.928-.075 1.987-1.002 2.36l-5.341 2.159c-.214.088-.44.13-.671.13-.736 0-1.415-.454-1.689-1.135l-.661-1.631c-.164-.404-.557-.665-.988-.665l-.113.006c-.717.077-1.444.115-2.161.115-.834 0-1.674-.052-2.498-.156l-.135-.01c-.422 0-.811.254-.98.649l-.688 1.622c-.285.672-.944 1.106-1.679 1.106-.241 0-.477-.049-.7-.143l-5.302-2.252c-.443-.188-.787-.54-.969-.99-.182-.452-.179-.943.011-1.39l.686-1.619c.186-.44.058-.948-.313-1.246-1.21-.973-2.308-2.091-3.264-3.325-.207-.266-.52-.413-.842-.413-.136 0-.27.026-.401.079l-1.632.661c-.214.086-.441.131-.672.131-.738 0-1.416-.456-1.69-1.134l-2.155-5.342c-.181-.446-.176-.939.015-1.386.189-.448.54-.794.988-.975l1.631-.659c.442-.178.712-.628.661-1.103-.17-1.55-.156-3.117.039-4.659.06-.472-.203-.928-.641-1.114l-1.62-.687c-.921-.391-1.352-1.458-.962-2.379l2.251-5.301c.284-.67.943-1.103 1.678-1.103.241 0 .477.048.7.143l1.622.687c.134.057.274.085.415.085.317 0 .624-.14.831-.398.972-1.211 2.09-2.309 3.322-3.264.377-.292.514-.799.336-1.241l-.66-1.632c-.375-.928.076-1.989 1.002-2.364l5.342-2.155c.215-.088.442-.131.672-.131.736 0 1.414.454 1.688 1.134l.661 1.632c.165.405.557.665.988.665l.115-.007c.716-.077 1.442-.116 2.159-.116.832 0 1.672.053 2.497.157l.135.009c.422 0 .81-.252.98-.648l.689-1.621c.284-.671.943-1.104 1.677-1.104.242 0 .477.048.7.143l5.301 2.251c.922.391 1.353 1.459.963 2.379l-.688 1.62c-.186.439-.057.948.313 1.247 1.206.967 2.304 2.085 3.265 3.322.207.265.52.412.842.412.133 0 .268-.025.397-.078l1.633-.658c.216-.086.442-.131.672-.131.737 0 1.418.456 1.692 1.133l2.156 5.341c.181.446.175.938-.014 1.385-.19.448-.541.794-.989.976l-1.632.66c-.442.178-.711.629-.659 1.102.168 1.553.155 3.12-.041 4.659-.06.472.201.928.64 1.114l1.622.69c.443.187.786.538.969.989.182.45.18.943-.009 1.387Z" fill="#1B127D" stroke="#1B127D" stroke-width=".7"/><path fill-rule="evenodd" clip-rule="evenodd" d="M347.43 136.011c-5.146 0-9.318 4.173-9.318 9.319 0 5.147 4.172 9.319 9.318 9.319 5.147 0 9.319-4.172 9.319-9.319 0-5.146-4.172-9.319-9.319-9.319Zm-11.118 9.319c0-6.141 4.978-11.119 11.118-11.119 6.141 0 11.119 4.978 11.119 11.119s-4.978 11.119-11.119 11.119c-6.14 0-11.118-4.978-11.118-11.119Z" fill="#1B127D"/><defs><filter id="filter0_dddddd_1722_8684" x="508.438" y=".501465" width="259.4" height="468.474" filterUnits="userSpaceOnUse" color-interpolation-filters="sRGB"><feFlood flood-opacity="0" result="BackgroundImageFix"/><feColorMatrix in="SourceAlpha" values="0 0 0 0 0 0 0 0 0 0 0 0 0 0 0 0 0 0 127 0" result="hardAlpha"/><feOffset dy="2.76726"/><feGaussianBlur stdDeviation="1.1069"/><feColorMatrix values="0 0 0 0 0.109804 0 0 0 0 0.0509804 0 0 0 0 0.247059 0 0 0 0.0196802 0"/><feBlend in2="BackgroundImageFix" result="effect1_dropShadow_1722_8684"/><feColorMatrix in="SourceAlpha" values="0 0 0 0 0 0 0 0 0 0 0 0 0 0 0 0 0 0 127 0" result="hardAlpha"/><feOffset dy="6.6501"/><feGaussianBlur stdDeviation="2.66004"/><feColorMatrix values="0 0 0 0 0.109804 0 0 0 0 0.0509804 0 0 0 0 0.247059 0 0 0 0.0282725 0"/><feBlend in2="effect1_dropShadow_1722_8684" result="effect2_dropShadow_1722_8684"/><feColorMatrix in="SourceAlpha" values="0 0 0 0 0 0 0 0 0 0 0 0 0 0 0 0 0 0 127 0" result="hardAlpha"/><feOffset dy="12.5216"/><feGaussianBlur stdDeviation="5.00862"/><feColorMatrix values="0 0 0 0 0.109804 0 0 0 0 0.0509804 0 0 0 0 0.247059 0 0 0 0.035 0"/><feBlend in2="effect2_dropShadow_1722_8684" result="effect3_dropShadow_1722_8684"/><feColorMatrix in="SourceAlpha" values="0 0 0 0 0 0 0 0 0 0 0 0 0 0 0 0 0 0 127 0" result="hardAlpha"/><feOffset dy="22.3363"/><feGaussianBlur stdDeviation="8.93452"/><feColorMatrix values="0 0 0 0 0.109804 0 0 0 0 0.0509804 0 0 0 0 0.247059 0 0 0 0.0417275 0"/><feBlend in2="effect3_dropShadow_1722_8684" result="effect4_dropShadow_1722_8684"/><feColorMatrix in="SourceAlpha" values="0 0 0 0 0 0 0 0 0 0 0 0 0 0 0 0 0 0 127 0" result="hardAlpha"/><feOffset dy="41.7776"/><feGaussianBlur stdDeviation="16.711"/><feColorMatrix values="0 0 0 0 0.109804 0 0 0 0 0.0509804 0 0 0 0 0.247059 0 0 0 0.0503198 0"/><feBlend in2="effect4_dropShadow_1722_8684" result="effect5_dropShadow_1722_8684"/><feColorMatrix in="SourceAlpha" values="0 0 0 0 0 0 0 0 0 0 0 0 0 0 0 0 0 0 127 0" result="hardAlpha"/><feOffset dy="100"/><feGaussianBlur stdDeviation="40"/><feColorMatrix values="0 0 0 0 0.109804 0 0 0 0 0.0509804 0 0 0 0 0.247059 0 0 0 0.07 0"/><feBlend in2="effect5_dropShadow_1722_8684" result="effect6_dropShadow_1722_8684"/><feBlend in="SourceGraphic" in2="effect6_dropShadow_1722_8684" result="shape"/></filter><filter id="filter1_dddddd_1722_8684" x="220.322" y="1.61963" width="254.238" height="274.238" filterUnits="userSpaceOnUse" color-interpolation-filters="sRGB"><feFlood flood-opacity="0" result="BackgroundImageFix"/><feColorMatrix in="SourceAlpha" values="0 0 0 0 0 0 0 0 0 0 0 0 0 0 0 0 0 0 127 0" result="hardAlpha"/><feOffset dy="2.76726"/><feGaussianBlur stdDeviation="1.1069"/><feColorMatrix values="0 0 0 0 0.109804 0 0 0 0 0.0509804 0 0 0 0 0.247059 0 0 0 0.0196802 0"/><feBlend in2="BackgroundImageFix" result="effect1_dropShadow_1722_8684"/><feColorMatrix in="SourceAlpha" values="0 0 0 0 0 0 0 0 0 0 0 0 0 0 0 0 0 0 127 0" result="hardAlpha"/><feOffset dy="6.6501"/><feGaussianBlur stdDeviation="2.66004"/><feColorMatrix values="0 0 0 0 0.109804 0 0 0 0 0.0509804 0 0 0 0 0.247059 0 0 0 0.0282725 0"/><feBlend in2="effect1_dropShadow_1722_8684" result="effect2_dropShadow_1722_8684"/><feColorMatrix in="SourceAlpha" values="0 0 0 0 0 0 0 0 0 0 0 0 0 0 0 0 0 0 127 0" result="hardAlpha"/><feOffset dy="12.5216"/><feGaussianBlur stdDeviation="5.00862"/><feColorMatrix values="0 0 0 0 0.109804 0 0 0 0 0.0509804 0 0 0 0 0.247059 0 0 0 0.035 0"/><feBlend in2="effect2_dropShadow_1722_8684" result="effect3_dropShadow_1722_8684"/><feColorMatrix in="SourceAlpha" values="0 0 0 0 0 0 0 0 0 0 0 0 0 0 0 0 0 0 127 0" result="hardAlpha"/><feOffset dy="22.3363"/><feGaussianBlur stdDeviation="8.93452"/><feColorMatrix values="0 0 0 0 0.109804 0 0 0 0 0.0509804 0 0 0 0 0.247059 0 0 0 0.0417275 0"/><feBlend in2="effect3_dropShadow_1722_8684" result="effect4_dropShadow_1722_8684"/><feColorMatrix in="SourceAlpha" values="0 0 0 0 0 0 0 0 0 0 0 0 0 0 0 0 0 0 127 0" result="hardAlpha"/><feOffset dy="41.7776"/><feGaussianBlur stdDeviation="16.711"/><feColorMatrix values="0 0 0 0 0.109804 0 0 0 0 0.0509804 0 0 0 0 0.247059 0 0 0 0.0503198 0"/><feBlend in2="effect4_dropShadow_1722_8684" result="effect5_dropShadow_1722_8684"/><feColorMatrix in="SourceAlpha" values="0 0 0 0 0 0 0 0 0 0 0 0 0 0 0 0 0 0 127 0" result="hardAlpha"/><feOffset dy="100"/><feGaussianBlur stdDeviation="40"/><feColorMatrix values="0 0 0 0 0.109804 0 0 0 0 0.0509804 0 0 0 0 0.247059 0 0 0 0.07 0"/><feBlend in2="effect5_dropShadow_1722_8684" result="effect6_dropShadow_1722_8684"/><feBlend in="SourceGraphic" in2="effect6_dropShadow_1722_8684" result="shape"/></filter><filter id="filter2_dddddd_1722_8684" x="220.322" y="193.78" width="254.238" height="274.238" filterUnits="userSpaceOnUse" color-interpolation-filters="sRGB"><feFlood flood-opacity="0" result="BackgroundImageFix"/><feColorMatrix in="SourceAlpha" values="0 0 0 0 0 0 0 0 0 0 0 0 0 0 0 0 0 0 127 0" result="hardAlpha"/><feOffset dy="2.76726"/><feGaussianBlur stdDeviation="1.1069"/><feColorMatrix values="0 0 0 0 0.109804 0 0 0 0 0.0509804 0 0 0 0 0.247059 0 0 0 0.0196802 0"/><feBlend in2="BackgroundImageFix" result="effect1_dropShadow_1722_8684"/><feColorMatrix in="SourceAlpha" values="0 0 0 0 0 0 0 0 0 0 0 0 0 0 0 0 0 0 127 0" result="hardAlpha"/><feOffset dy="6.6501"/><feGaussianBlur stdDeviation="2.66004"/><feColorMatrix values="0 0 0 0 0.109804 0 0 0 0 0.0509804 0 0 0 0 0.247059 0 0 0 0.0282725 0"/><feBlend in2="effect1_dropShadow_1722_8684" result="effect2_dropShadow_1722_8684"/><feColorMatrix in="SourceAlpha" values="0 0 0 0 0 0 0 0 0 0 0 0 0 0 0 0 0 0 127 0" result="hardAlpha"/><feOffset dy="12.5216"/><feGaussianBlur stdDeviation="5.00862"/><feColorMatrix values="0 0 0 0 0.109804 0 0 0 0 0.0509804 0 0 0 0 0.247059 0 0 0 0.035 0"/><feBlend in2="effect2_dropShadow_1722_8684" result="effect3_dropShadow_1722_8684"/><feColorMatrix in="SourceAlpha" values="0 0 0 0 0 0 0 0 0 0 0 0 0 0 0 0 0 0 127 0" result="hardAlpha"/><feOffset dy="22.3363"/><feGaussianBlur stdDeviation="8.93452"/><feColorMatrix values="0 0 0 0 0.109804 0 0 0 0 0.0509804 0 0 0 0 0.247059 0 0 0 0.0417275 0"/><feBlend in2="effect3_dropShadow_1722_8684" result="effect4_dropShadow_1722_8684"/><feColorMatrix in="SourceAlpha" values="0 0 0 0 0 0 0 0 0 0 0 0 0 0 0 0 0 0 127 0" result="hardAlpha"/><feOffset dy="41.7776"/><feGaussianBlur stdDeviation="16.711"/><feColorMatrix values="0 0 0 0 0.109804 0 0 0 0 0.0509804 0 0 0 0 0.247059 0 0 0 0.0503198 0"/><feBlend in2="effect4_dropShadow_1722_8684" result="effect5_dropShadow_1722_8684"/><feColorMatrix in="SourceAlpha" values="0 0 0 0 0 0 0 0 0 0 0 0 0 0 0 0 0 0 127 0" result="hardAlpha"/><feOffset dy="100"/><feGaussianBlur stdDeviation="40"/><feColorMatrix values="0 0 0 0 0.109804 0 0 0 0 0.0509804 0 0 0 0 0.247059 0 0 0 0.07 0"/><feBlend in2="effect5_dropShadow_1722_8684" result="effect6_dropShadow_1722_8684"/><feBlend in="SourceGraphic" in2="effect6_dropShadow_1722_8684" result="shape"/></filter><filter id="filter3_dddddd_1722_8684" x="384.024" y="105.009" width="239.459" height="259.459" filterUnits="userSpaceOnUse" color-interpolation-filters="sRGB"><feFlood flood-opacity="0" result="BackgroundImageFix"/><feColorMatrix in="SourceAlpha" values="0 0 0 0 0 0 0 0 0 0 0 0 0 0 0 0 0 0 127 0" result="hardAlpha"/><feOffset dy="2.76726"/><feGaussianBlur stdDeviation="1.1069"/><feColorMatrix values="0 0 0 0 0.109804 0 0 0 0 0.0509804 0 0 0 0 0.247059 0 0 0 0.0196802 0"/><feBlend in2="BackgroundImageFix" result="effect1_dropShadow_1722_8684"/><feColorMatrix in="SourceAlpha" values="0 0 0 0 0 0 0 0 0 0 0 0 0 0 0 0 0 0 127 0" result="hardAlpha"/><feOffset dy="6.6501"/><feGaussianBlur stdDeviation="2.66004"/><feColorMatrix values="0 0 0 0 0.109804 0 0 0 0 0.0509804 0 0 0 0 0.247059 0 0 0 0.0282725 0"/><feBlend in2="effect1_dropShadow_1722_8684" result="effect2_dropShadow_1722_8684"/><feColorMatrix in="SourceAlpha" values="0 0 0 0 0 0 0 0 0 0 0 0 0 0 0 0 0 0 127 0" result="hardAlpha"/><feOffset dy="12.5216"/><feGaussianBlur stdDeviation="5.00862"/><feColorMatrix values="0 0 0 0 0.109804 0 0 0 0 0.0509804 0 0 0 0 0.247059 0 0 0 0.035 0"/><feBlend in2="effect2_dropShadow_1722_8684" result="effect3_dropShadow_1722_8684"/><feColorMatrix in="SourceAlpha" values="0 0 0 0 0 0 0 0 0 0 0 0 0 0 0 0 0 0 127 0" result="hardAlpha"/><feOffset dy="22.3363"/><feGaussianBlur stdDeviation="8.93452"/><feColorMatrix values="0 0 0 0 0.109804 0 0 0 0 0.0509804 0 0 0 0 0.247059 0 0 0 0.0417275 0"/><feBlend in2="effect3_dropShadow_1722_8684" result="effect4_dropShadow_1722_8684"/><feColorMatrix in="SourceAlpha" values="0 0 0 0 0 0 0 0 0 0 0 0 0 0 0 0 0 0 127 0" result="hardAlpha"/><feOffset dy="41.7776"/><feGaussianBlur stdDeviation="16.711"/><feColorMatrix values="0 0 0 0 0.109804 0 0 0 0 0.0509804 0 0 0 0 0.247059 0 0 0 0.0503198 0"/><feBlend in2="effect4_dropShadow_1722_8684" result="effect5_dropShadow_1722_8684"/><feColorMatrix in="SourceAlpha" values="0 0 0 0 0 0 0 0 0 0 0 0 0 0 0 0 0 0 127 0" result="hardAlpha"/><feOffset dy="100"/><feGaussianBlur stdDeviation="40"/><feColorMatrix values="0 0 0 0 0.109804 0 0 0 0 0.0509804 0 0 0 0 0.247059 0 0 0 0.07 0"/><feBlend in2="effect5_dropShadow_1722_8684" result="effect6_dropShadow_1722_8684"/><feBlend in="SourceGraphic" in2="effect6_dropShadow_1722_8684" result="shape"/></filter><filter id="filter4_dddddd_1722_8684" x=".161377" y=".501465" width="282.449" height="468.474" filterUnits="userSpaceOnUse" color-interpolation-filters="sRGB"><feFlood flood-opacity="0" result="BackgroundImageFix"/><feColorMatrix in="SourceAlpha" values="0 0 0 0 0 0 0 0 0 0 0 0 0 0 0 0 0 0 127 0" result="hardAlpha"/><feOffset dy="2.76726"/><feGaussianBlur stdDeviation="1.1069"/><feColorMatrix values="0 0 0 0 0.109804 0 0 0 0 0.0509804 0 0 0 0 0.247059 0 0 0 0.0196802 0"/><feBlend in2="BackgroundImageFix" result="effect1_dropShadow_1722_8684"/><feColorMatrix in="SourceAlpha" values="0 0 0 0 0 0 0 0 0 0 0 0 0 0 0 0 0 0 127 0" result="hardAlpha"/><feOffset dy="6.6501"/><feGaussianBlur stdDeviation="2.66004"/><feColorMatrix values="0 0 0 0 0.109804 0 0 0 0 0.0509804 0 0 0 0 0.247059 0 0 0 0.0282725 0"/><feBlend in2="effect1_dropShadow_1722_8684" result="effect2_dropShadow_1722_8684"/><feColorMatrix in="SourceAlpha" values="0 0 0 0 0 0 0 0 0 0 0 0 0 0 0 0 0 0 127 0" result="hardAlpha"/><feOffset dy="12.5216"/><feGaussianBlur stdDeviation="5.00862"/><feColorMatrix values="0 0 0 0 0.109804 0 0 0 0 0.0509804 0 0 0 0 0.247059 0 0 0 0.035 0"/><feBlend in2="effect2_dropShadow_1722_8684" result="effect3_dropShadow_1722_8684"/><feColorMatrix in="SourceAlpha" values="0 0 0 0 0 0 0 0 0 0 0 0 0 0 0 0 0 0 127 0" result="hardAlpha"/><feOffset dy="22.3363"/><feGaussianBlur stdDeviation="8.93452"/><feColorMatrix values="0 0 0 0 0.109804 0 0 0 0 0.0509804 0 0 0 0 0.247059 0 0 0 0.0417275 0"/><feBlend in2="effect3_dropShadow_1722_8684" result="effect4_dropShadow_1722_8684"/><feColorMatrix in="SourceAlpha" values="0 0 0 0 0 0 0 0 0 0 0 0 0 0 0 0 0 0 127 0" result="hardAlpha"/><feOffset dy="41.7776"/><feGaussianBlur stdDeviation="16.711"/><feColorMatrix values="0 0 0 0 0.109804 0 0 0 0 0.0509804 0 0 0 0 0.247059 0 0 0 0.0503198 0"/><feBlend in2="effect4_dropShadow_1722_8684" result="effect5_dropShadow_1722_8684"/><feColorMatrix in="SourceAlpha" values="0 0 0 0 0 0 0 0 0 0 0 0 0 0 0 0 0 0 127 0" result="hardAlpha"/><feOffset dy="100"/><feGaussianBlur stdDeviation="40"/><feColorMatrix values="0 0 0 0 0.109804 0 0 0 0 0.0509804 0 0 0 0 0.247059 0 0 0 0.07 0"/><feBlend in2="effect5_dropShadow_1722_8684" result="effect6_dropShadow_1722_8684"/><feBlend in="SourceGraphic" in2="effect6_dropShadow_1722_8684" result="shape"/></filter></defs></svg>