<svg width="570" height="395" viewBox="0 0 570 395" fill="none" xmlns="http://www.w3.org/2000/svg">
<path d="M263.746 8.9561C262.498 7.68932 260.683 7.68932 259.605 7.68932H254.557V21H257.015V15.9896H259.643C260.683 15.9896 262.498 16.0085 263.765 14.7039C264.502 13.9665 264.937 12.9077 264.937 11.8489C264.937 10.7523 264.464 9.69348 263.746 8.9561ZM261.931 13.2669C261.496 13.7207 260.891 13.9287 259.851 13.9287H257.015V9.78802H259.851C260.683 9.78802 261.345 9.88256 261.874 10.3931C262.233 10.7523 262.46 11.2439 262.46 11.8678C262.46 12.4539 262.271 12.9266 261.931 13.2669ZM269.685 21.2836C271.367 21.2836 272.332 20.4139 272.748 19.8088H272.785L272.899 21H275.092V15.1009C275.092 13.7018 274.827 12.9455 274.336 12.3216C273.561 11.3384 272.256 10.8846 270.895 10.8846C268.323 10.8846 266.962 12.3027 266.603 12.8699L267.945 14.1745C268.531 13.4371 269.496 12.7754 270.762 12.7754C272.029 12.7754 272.861 13.5316 272.861 14.685V14.7984C269.779 14.893 268.399 15.0253 267.397 15.8572C266.735 16.3677 266.281 17.1618 266.281 18.1639C266.281 20.2248 267.813 21.2836 269.685 21.2836ZM270.12 19.4118C269.307 19.4118 268.588 19.0336 268.588 18.1072C268.588 16.6702 270.157 16.4812 272.861 16.4245V16.5379C272.861 18.2774 271.783 19.4118 270.12 19.4118ZM280.198 21V16.519C280.198 15.3467 280.292 14.6094 280.822 14.0232C281.408 13.3615 282.391 13.1913 283.393 13.248V10.8846C282.372 10.8846 280.916 11.3573 280.217 12.5674H280.179L280.028 11.1682H277.834V21H280.198ZM294.544 16.0841C294.544 13.1535 292.596 10.8846 289.59 10.8846C286.603 10.8846 284.428 13.0968 284.428 16.103C284.428 18.958 286.414 21.2836 289.647 21.2836C291.727 21.2836 293.201 20.187 293.806 19.3551L292.294 18.0505C291.954 18.5232 291.103 19.3362 289.666 19.3362C287.851 19.3362 286.868 18.0316 286.83 16.8593H294.525C294.544 16.5946 294.544 16.3299 294.544 16.0841ZM289.571 12.7375C291.235 12.7375 292.086 14.0611 292.162 15.082H286.849C286.981 14.0421 287.851 12.7375 289.571 12.7375ZM299.031 21V15.6304C299.031 14.0611 299.844 12.9455 301.319 12.9455C302.472 12.9455 303.304 13.7018 303.304 15.2711V21H305.668V14.8173C305.668 12.3405 304.249 10.8846 301.981 10.8846C300.128 10.8846 299.277 11.9623 298.993 12.3783H298.974L298.861 11.1682H296.668V21H299.031ZM314.215 18.8257C313.951 18.9958 313.497 19.2227 312.873 19.2227C311.682 19.2227 311.341 18.3152 311.341 17.3131V13.1535H314.367V11.1682H311.341V8.162H308.978V11.1682H307.163V13.1535H308.978V17.5211C308.978 19.7521 310.226 21.2836 312.57 21.2836C313.629 21.2836 314.556 20.9433 315.104 20.5084L314.215 18.8257Z" fill="#1C0D3F"/>
<path d="M56.6998 389.974C59.6115 389.974 61.5211 388.481 62.2396 387.479L60.6892 386.004C59.8006 387.006 58.5905 387.838 56.7187 387.838C53.9582 387.838 52.1053 385.739 52.1053 383.035C52.1053 380.388 53.9393 378.214 56.7187 378.214C58.4581 378.214 59.7438 379.027 60.5758 380.029L62.2207 378.63C61.4833 377.458 59.4791 376.097 56.7187 376.097C52.5591 376.097 49.5907 379.216 49.5907 383.054C49.5907 386.874 52.5402 389.974 56.6998 389.974ZM68.5203 389.974C69.8817 389.974 70.9972 389.502 71.8102 388.708C72.6232 387.895 73.0013 386.817 73.0013 385.569V379.859H70.6379V385.399C70.6379 386.193 70.5245 386.836 70.014 387.327C69.6548 387.706 69.1632 387.914 68.5203 387.914C67.8964 387.914 67.3859 387.706 67.0078 387.327C66.5162 386.836 66.3838 386.193 66.3838 385.399V379.859H64.0204V385.569C64.0204 386.817 64.3986 387.895 65.2116 388.708C66.0246 389.502 67.1401 389.974 68.5203 389.974ZM79.265 389.974C81.8174 389.974 83.5569 388.575 83.5569 386.666C83.5569 382.827 77.6389 384.359 77.6389 382.563C77.6389 381.863 78.3574 381.447 79.3973 381.447C80.8532 381.447 81.6851 382.185 82.0254 382.582L83.4434 381.391C83.2544 381.069 82.0821 379.575 79.3595 379.575C76.7314 379.575 75.2944 381.145 75.2944 382.714C75.2944 386.552 81.2124 385.04 81.2124 386.874C81.2124 387.649 80.4372 388.084 79.2839 388.084C77.7335 388.084 76.7503 387.214 76.41 386.779L74.973 388.121C75.1432 388.424 76.3532 389.974 79.265 389.974ZM91.5787 387.516C91.314 387.687 90.8602 387.914 90.2363 387.914C89.0452 387.914 88.7048 387.006 88.7048 386.004V381.844H91.73V379.859H88.7048V376.853H86.3414V379.859H84.5263V381.844H86.3414V386.212C86.3414 388.443 87.5893 389.974 89.9338 389.974C90.9926 389.974 91.919 389.634 92.4674 389.199L91.5787 387.516ZM98.5316 389.974C101.651 389.974 103.901 387.63 103.901 384.775C103.901 381.901 101.651 379.575 98.5316 379.575C95.4308 379.575 93.1808 381.901 93.1808 384.775C93.1808 387.649 95.4308 389.974 98.5316 389.974ZM98.5316 387.914C96.7354 387.914 95.582 386.514 95.582 384.794C95.582 383.035 96.7354 381.617 98.5316 381.617C100.347 381.617 101.5 383.035 101.5 384.794C101.5 386.514 100.347 387.914 98.5316 387.914ZM108.485 389.691V384.51C108.485 383.773 108.542 383.13 108.864 382.601C109.204 382.014 109.866 381.655 110.546 381.655C111.189 381.655 111.738 381.939 112.059 382.487C112.343 382.922 112.361 383.489 112.361 384.038V389.691H114.744V384.51C114.744 383.773 114.819 383.13 115.122 382.601C115.462 382.014 116.124 381.655 116.824 381.655C117.447 381.655 118.015 381.939 118.336 382.487C118.601 382.922 118.639 383.489 118.639 384.038V389.691H121.021V383.47C121.021 382.412 120.832 381.617 120.302 380.918C119.66 380.086 118.601 379.575 117.202 379.575C115.481 379.575 114.555 380.615 114.214 381.069H114.195C113.798 380.521 112.929 379.575 111.246 379.575C109.658 379.575 108.788 380.483 108.429 381.031H108.41L108.296 379.859H106.103V389.691H108.485ZM133.19 384.775C133.19 381.844 131.242 379.575 128.236 379.575C125.248 379.575 123.074 381.788 123.074 384.794C123.074 387.649 125.059 389.974 128.293 389.974C130.372 389.974 131.847 388.878 132.452 388.046L130.94 386.741C130.599 387.214 129.748 388.027 128.311 388.027C126.496 388.027 125.513 386.722 125.475 385.55H133.171C133.19 385.285 133.19 385.021 133.19 384.775ZM128.217 381.428C129.881 381.428 130.732 382.752 130.807 383.773H125.494C125.627 382.733 126.496 381.428 128.217 381.428ZM137.677 389.691V385.21C137.677 384.038 137.771 383.3 138.301 382.714C138.887 382.052 139.87 381.882 140.872 381.939V379.575C139.851 379.575 138.395 380.048 137.696 381.258H137.658L137.507 379.859H135.313V389.691H137.677ZM154.601 389.691V376.38H152.37C151.274 377.496 149.572 378.422 148.211 378.876L148.986 380.767C149.95 380.502 151.311 379.878 152.219 379.084H152.238V389.691H154.601Z" fill="#1C0D3F"/>
<path d="M237.669 389.974C240.58 389.974 242.49 388.481 243.209 387.479L241.658 386.004C240.77 387.006 239.559 387.838 237.688 387.838C234.927 387.838 233.074 385.739 233.074 383.035C233.074 380.388 234.908 378.214 237.688 378.214C239.427 378.214 240.713 379.027 241.545 380.029L243.19 378.63C242.452 377.458 240.448 376.097 237.688 376.097C233.528 376.097 230.56 379.216 230.56 383.054C230.56 386.874 233.509 389.974 237.669 389.974ZM249.489 389.974C250.851 389.974 251.966 389.502 252.779 388.708C253.592 387.895 253.97 386.817 253.97 385.569V379.859H251.607V385.399C251.607 386.193 251.493 386.836 250.983 387.327C250.624 387.706 250.132 387.914 249.489 387.914C248.865 387.914 248.355 387.706 247.977 387.327C247.485 386.836 247.353 386.193 247.353 385.399V379.859H244.989V385.569C244.989 386.817 245.368 387.895 246.181 388.708C246.994 389.502 248.109 389.974 249.489 389.974ZM260.234 389.974C262.786 389.974 264.526 388.575 264.526 386.666C264.526 382.827 258.608 384.359 258.608 382.563C258.608 381.863 259.326 381.447 260.366 381.447C261.822 381.447 262.654 382.185 262.994 382.582L264.412 381.391C264.223 381.069 263.051 379.575 260.328 379.575C257.7 379.575 256.263 381.145 256.263 382.714C256.263 386.552 262.181 385.04 262.181 386.874C262.181 387.649 261.406 388.084 260.253 388.084C258.702 388.084 257.719 387.214 257.379 386.779L255.942 388.121C256.112 388.424 257.322 389.974 260.234 389.974ZM272.548 387.516C272.283 387.687 271.829 387.914 271.205 387.914C270.014 387.914 269.674 387.006 269.674 386.004V381.844H272.699V379.859H269.674V376.853H267.31V379.859H265.495V381.844H267.31V386.212C267.31 388.443 268.558 389.974 270.903 389.974C271.962 389.974 272.888 389.634 273.436 389.199L272.548 387.516ZM279.501 389.974C282.62 389.974 284.87 387.63 284.87 384.775C284.87 381.901 282.62 379.575 279.501 379.575C276.4 379.575 274.15 381.901 274.15 384.775C274.15 387.649 276.4 389.974 279.501 389.974ZM279.501 387.914C277.704 387.914 276.551 386.514 276.551 384.794C276.551 383.035 277.704 381.617 279.501 381.617C281.316 381.617 282.469 383.035 282.469 384.794C282.469 386.514 281.316 387.914 279.501 387.914ZM289.454 389.691V384.51C289.454 383.773 289.511 383.13 289.833 382.601C290.173 382.014 290.835 381.655 291.515 381.655C292.158 381.655 292.706 381.939 293.028 382.487C293.312 382.922 293.33 383.489 293.33 384.038V389.691H295.713V384.51C295.713 383.773 295.788 383.13 296.091 382.601C296.431 382.014 297.093 381.655 297.793 381.655C298.416 381.655 298.984 381.939 299.305 382.487C299.57 382.922 299.608 383.489 299.608 384.038V389.691H301.99V383.47C301.99 382.412 301.801 381.617 301.271 380.918C300.629 380.086 299.57 379.575 298.171 379.575C296.45 379.575 295.524 380.615 295.183 381.069H295.164C294.767 380.521 293.898 379.575 292.215 379.575C290.627 379.575 289.757 380.483 289.398 381.031H289.379L289.265 379.859H287.072V389.691H289.454ZM314.159 384.775C314.159 381.844 312.211 379.575 309.205 379.575C306.217 379.575 304.043 381.788 304.043 384.794C304.043 387.649 306.028 389.974 309.262 389.974C311.341 389.974 312.816 388.878 313.421 388.046L311.909 386.741C311.568 387.214 310.717 388.027 309.28 388.027C307.465 388.027 306.482 386.722 306.444 385.55H314.14C314.159 385.285 314.159 385.021 314.159 384.775ZM309.186 381.428C310.85 381.428 311.701 382.752 311.776 383.773H306.463C306.596 382.733 307.465 381.428 309.186 381.428ZM318.646 389.691V385.21C318.646 384.038 318.74 383.3 319.27 382.714C319.856 382.052 320.839 381.882 321.841 381.939V379.575C320.82 379.575 319.364 380.048 318.665 381.258H318.627L318.476 379.859H316.282V389.691H318.646ZM338.217 389.691V387.592H332.186L332.167 387.573C333.282 386.741 334.284 385.947 335.211 385.077C336.95 383.395 337.896 381.92 337.896 380.18C337.896 377.401 335.684 376.097 333.226 376.097C330.749 376.097 329.331 377.533 328.745 378.762L330.427 379.878C331.014 378.876 331.883 378.138 333.207 378.138C334.587 378.138 335.495 378.97 335.495 380.18C335.495 382.601 331.619 385.645 328.877 387.687V389.691H338.217Z" fill="#1C0D3F"/>
<path d="M405.117 389.974C408.029 389.974 409.938 388.481 410.657 387.479L409.106 386.004C408.218 387.006 407.008 387.838 405.136 387.838C402.375 387.838 400.522 385.739 400.522 383.035C400.522 380.388 402.356 378.214 405.136 378.214C406.875 378.214 408.161 379.027 408.993 380.029L410.638 378.63C409.9 377.458 407.896 376.097 405.136 376.097C400.976 376.097 398.008 379.216 398.008 383.054C398.008 386.874 400.957 389.974 405.117 389.974ZM416.937 389.974C418.299 389.974 419.414 389.502 420.227 388.708C421.04 387.895 421.419 386.817 421.419 385.569V379.859H419.055V385.399C419.055 386.193 418.942 386.836 418.431 387.327C418.072 387.706 417.58 387.914 416.937 387.914C416.314 387.914 415.803 387.706 415.425 387.327C414.933 386.836 414.801 386.193 414.801 385.399V379.859H412.438V385.569C412.438 386.817 412.816 387.895 413.629 388.708C414.442 389.502 415.557 389.974 416.937 389.974ZM427.682 389.974C430.235 389.974 431.974 388.575 431.974 386.666C431.974 382.827 426.056 384.359 426.056 382.563C426.056 381.863 426.775 381.447 427.814 381.447C429.27 381.447 430.102 382.185 430.443 382.582L431.861 381.391C431.672 381.069 430.499 379.575 427.777 379.575C425.149 379.575 423.712 381.145 423.712 382.714C423.712 386.552 429.63 385.04 429.63 386.874C429.63 387.649 428.854 388.084 427.701 388.084C426.151 388.084 425.167 387.214 424.827 386.779L423.39 388.121C423.56 388.424 424.77 389.974 427.682 389.974ZM439.996 387.516C439.731 387.687 439.277 387.914 438.653 387.914C437.462 387.914 437.122 387.006 437.122 386.004V381.844H440.147V379.859H437.122V376.853H434.759V379.859H432.943V381.844H434.759V386.212C434.759 388.443 436.006 389.974 438.351 389.974C439.41 389.974 440.336 389.634 440.885 389.199L439.996 387.516ZM446.949 389.974C450.068 389.974 452.318 387.63 452.318 384.775C452.318 381.901 450.068 379.575 446.949 379.575C443.848 379.575 441.598 381.901 441.598 384.775C441.598 387.649 443.848 389.974 446.949 389.974ZM446.949 387.914C445.153 387.914 443.999 386.514 443.999 384.794C443.999 383.035 445.153 381.617 446.949 381.617C448.764 381.617 449.917 383.035 449.917 384.794C449.917 386.514 448.764 387.914 446.949 387.914ZM456.903 389.691V384.51C456.903 383.773 456.959 383.13 457.281 382.601C457.621 382.014 458.283 381.655 458.964 381.655C459.606 381.655 460.155 381.939 460.476 382.487C460.76 382.922 460.779 383.489 460.779 384.038V389.691H463.161V384.51C463.161 383.773 463.237 383.13 463.539 382.601C463.879 382.014 464.541 381.655 465.241 381.655C465.865 381.655 466.432 381.939 466.753 382.487C467.018 382.922 467.056 383.489 467.056 384.038V389.691H469.438V383.47C469.438 382.412 469.249 381.617 468.72 380.918C468.077 380.086 467.018 379.575 465.619 379.575C463.898 379.575 462.972 380.615 462.632 381.069H462.613C462.216 380.521 461.346 379.575 459.663 379.575C458.075 379.575 457.205 380.483 456.846 381.031H456.827L456.714 379.859H454.52V389.691H456.903ZM481.607 384.775C481.607 381.844 479.659 379.575 476.653 379.575C473.666 379.575 471.491 381.788 471.491 384.794C471.491 387.649 473.477 389.974 476.71 389.974C478.789 389.974 480.264 388.878 480.869 388.046L479.357 386.741C479.016 387.214 478.166 388.027 476.729 388.027C474.914 388.027 473.93 386.722 473.893 385.55H481.588C481.607 385.285 481.607 385.021 481.607 384.775ZM476.634 381.428C478.298 381.428 479.149 382.752 479.224 383.773H473.911C474.044 382.733 474.914 381.428 476.634 381.428ZM486.094 389.691V385.21C486.094 384.038 486.188 383.3 486.718 382.714C487.304 382.052 488.287 381.882 489.289 381.939V379.575C488.268 379.575 486.812 380.048 486.113 381.258H486.075L485.924 379.859H483.73V389.691H486.094ZM498.802 389.691V379.367H498.84L504.663 389.691H507.878V376.38H505.533V386.703H505.514L499.691 376.38H496.476V389.691H498.802ZM516.769 382.79V378.8H514.613V382.79H510.681V384.775H514.613V388.764H516.769V384.775H520.682V382.79H516.769ZM530.05 389.691V376.38H527.819C526.722 377.496 525.02 378.422 523.659 378.876L524.434 380.767C525.399 380.502 526.76 379.878 527.667 379.084H527.686V389.691H530.05Z" fill="#1C0D3F"/>
<g filter="url(#filter0_dddddd_3585_21079)">
<rect x="203.969" y="41.866" width="162.062" height="108.041" rx="5.40206" fill="#1C0D3F"/>
<rect x="225.577" y="62.1237" width="40.5155" height="4.05155" fill="white"/>
<rect x="225.577" y="74.2783" width="118.845" height="13.5052" fill="white"/>
<rect x="225.577" y="90.4845" width="118.845" height="13.5052" fill="white"/>
<rect x="225.577" y="106.691" width="118.845" height="13.5052" fill="white"/>
<rect x="225.577" y="122.897" width="118.845" height="13.5052" fill="white"/>
<rect x="206.67" y="44.567" width="12.1546" height="5.40206" rx="2.70103" fill="#ED26B7"/>
</g>
<g filter="url(#filter1_dddddd_3585_21079)">
<rect x="23" y="247.144" width="162.062" height="108.041" rx="5.40206" fill="#1C0D3F"/>
<rect x="31.103" y="263.351" width="40.5155" height="4.05155" fill="white"/>
<rect x="31.103" y="275.505" width="145.856" height="71.5773" fill="white"/>
<path d="M137.344 313.318L154 306.565V332.225H54.0619V302.516L70.7182 318.72L87.3746 310.617L104.031 318.72L120.687 306.565L137.344 313.318Z" fill="url(#paint0_linear_3585_21079)"/>
<rect x="31.103" y="252.547" width="16.2062" height="5.40206" rx="2.70103" fill="#ED26B7"/>
</g>
<g filter="url(#filter2_dddddd_3585_21079)">
<rect x="203.969" y="247.144" width="162.062" height="108.041" rx="5.40206" fill="#1C0D3F"/>
<rect x="212.072" y="263.351" width="40.5155" height="4.05155" fill="white"/>
<rect x="212.072" y="275.505" width="145.856" height="71.5773" fill="white"/>
<path d="M251.687 313.32L235.031 310.619V332.227H334.969V291.711L318.313 309.268L301.656 310.619L285 318.722L268.343 306.567L251.687 313.32Z" fill="url(#paint1_linear_3585_21079)"/>
<rect x="212.072" y="252.547" width="16.2062" height="5.40206" rx="2.70103" fill="#ED26B7"/>
</g>
<g filter="url(#filter3_dddddd_3585_21079)">
<rect x="384.938" y="247.144" width="162.062" height="108.041" rx="5.40206" fill="#1C0D3F"/>
<rect x="393.041" y="263.351" width="40.5155" height="4.05155" fill="white"/>
<rect x="393.041" y="275.505" width="145.856" height="71.5773" fill="white"/>
<path d="M432.656 309.268L416 321.423V332.227H515.938V298.464L499.282 320.072L482.625 305.217L465.969 324.124H449.313L432.656 309.268Z" fill="url(#paint2_linear_3585_21079)"/>
<rect x="393.041" y="252.547" width="16.2062" height="5.40206" rx="2.70103" fill="#ED26B7"/>
</g>
<path d="M284.293 235.322C284.683 235.712 285.317 235.712 285.707 235.322L292.071 228.958C292.462 228.567 292.462 227.934 292.071 227.544C291.681 227.153 291.047 227.153 290.657 227.544L285 233.201L279.343 227.544C278.953 227.153 278.319 227.153 277.929 227.544C277.538 227.934 277.538 228.567 277.929 228.958L284.293 235.322ZM284 159.063L284 234.615L286 234.615L286 159.063L284 159.063Z" fill="#1B127D"/>
<path d="M285 159.063L285.466 158.178L285 157.933L284.534 158.178L285 159.063ZM430.203 236.243C430.731 236.079 431.026 235.519 430.862 234.991L428.192 226.396C428.028 225.869 427.468 225.574 426.941 225.738C426.413 225.902 426.118 226.462 426.282 226.99L428.655 234.63L421.015 237.002C420.488 237.166 420.193 237.727 420.357 238.254C420.521 238.782 421.081 239.076 421.608 238.912L430.203 236.243ZM139.138 234.991C138.974 235.519 139.269 236.079 139.797 236.243L148.392 238.912C148.919 239.076 149.479 238.782 149.643 238.254C149.807 237.727 149.512 237.166 148.985 237.002L141.345 234.63L143.718 226.99C143.882 226.462 143.587 225.902 143.059 225.738C142.532 225.574 141.972 225.869 141.808 226.396L139.138 234.991ZM284.534 159.948L429.441 236.173L430.372 234.403L285.466 158.178L284.534 159.948ZM284.534 158.178L139.628 234.403L140.559 236.173L285.466 159.948L284.534 158.178Z" fill="#1B127D"/>
<defs>
<filter id="filter0_dddddd_3585_21079" x="181.01" y="35.1134" width="207.979" height="153.959" filterUnits="userSpaceOnUse" color-interpolation-filters="sRGB">
<feFlood flood-opacity="0" result="BackgroundImageFix"/>
<feColorMatrix in="SourceAlpha" type="matrix" values="0 0 0 0 0 0 0 0 0 0 0 0 0 0 0 0 0 0 127 0" result="hardAlpha"/>
<feOffset dy="0.448467"/>
<feGaussianBlur stdDeviation="0.317664"/>
<feColorMatrix type="matrix" values="0 0 0 0 0.109804 0 0 0 0 0.0509804 0 0 0 0 0.247059 0 0 0 0.0281146 0"/>
<feBlend mode="normal" in2="BackgroundImageFix" result="effect1_dropShadow_3585_21079"/>
<feColorMatrix in="SourceAlpha" type="matrix" values="0 0 0 0 0 0 0 0 0 0 0 0 0 0 0 0 0 0 127 0" result="hardAlpha"/>
<feOffset dy="1.07773"/>
<feGaussianBlur stdDeviation="0.763391"/>
<feColorMatrix type="matrix" values="0 0 0 0 0.109804 0 0 0 0 0.0509804 0 0 0 0 0.247059 0 0 0 0.0403893 0"/>
<feBlend mode="normal" in2="effect1_dropShadow_3585_21079" result="effect2_dropShadow_3585_21079"/>
<feColorMatrix in="SourceAlpha" type="matrix" values="0 0 0 0 0 0 0 0 0 0 0 0 0 0 0 0 0 0 127 0" result="hardAlpha"/>
<feOffset dy="2.02927"/>
<feGaussianBlur stdDeviation="1.4374"/>
<feColorMatrix type="matrix" values="0 0 0 0 0.109804 0 0 0 0 0.0509804 0 0 0 0 0.247059 0 0 0 0.05 0"/>
<feBlend mode="normal" in2="effect2_dropShadow_3585_21079" result="effect3_dropShadow_3585_21079"/>
<feColorMatrix in="SourceAlpha" type="matrix" values="0 0 0 0 0 0 0 0 0 0 0 0 0 0 0 0 0 0 127 0" result="hardAlpha"/>
<feOffset dy="3.61986"/>
<feGaussianBlur stdDeviation="2.56407"/>
<feColorMatrix type="matrix" values="0 0 0 0 0.109804 0 0 0 0 0.0509804 0 0 0 0 0.247059 0 0 0 0.0596107 0"/>
<feBlend mode="normal" in2="effect3_dropShadow_3585_21079" result="effect4_dropShadow_3585_21079"/>
<feColorMatrix in="SourceAlpha" type="matrix" values="0 0 0 0 0 0 0 0 0 0 0 0 0 0 0 0 0 0 127 0" result="hardAlpha"/>
<feOffset dy="6.77056"/>
<feGaussianBlur stdDeviation="4.79581"/>
<feColorMatrix type="matrix" values="0 0 0 0 0.109804 0 0 0 0 0.0509804 0 0 0 0 0.247059 0 0 0 0.0718854 0"/>
<feBlend mode="normal" in2="effect4_dropShadow_3585_21079" result="effect5_dropShadow_3585_21079"/>
<feColorMatrix in="SourceAlpha" type="matrix" values="0 0 0 0 0 0 0 0 0 0 0 0 0 0 0 0 0 0 127 0" result="hardAlpha"/>
<feOffset dy="16.2062"/>
<feGaussianBlur stdDeviation="11.4794"/>
<feColorMatrix type="matrix" values="0 0 0 0 0.109804 0 0 0 0 0.0509804 0 0 0 0 0.247059 0 0 0 0.1 0"/>
<feBlend mode="normal" in2="effect5_dropShadow_3585_21079" result="effect6_dropShadow_3585_21079"/>
<feBlend mode="normal" in="SourceGraphic" in2="effect6_dropShadow_3585_21079" result="shape"/>
</filter>
<filter id="filter1_dddddd_3585_21079" x="0.0412369" y="240.392" width="207.979" height="153.959" filterUnits="userSpaceOnUse" color-interpolation-filters="sRGB">
<feFlood flood-opacity="0" result="BackgroundImageFix"/>
<feColorMatrix in="SourceAlpha" type="matrix" values="0 0 0 0 0 0 0 0 0 0 0 0 0 0 0 0 0 0 127 0" result="hardAlpha"/>
<feOffset dy="0.448467"/>
<feGaussianBlur stdDeviation="0.317664"/>
<feColorMatrix type="matrix" values="0 0 0 0 0.109804 0 0 0 0 0.0509804 0 0 0 0 0.247059 0 0 0 0.0281146 0"/>
<feBlend mode="normal" in2="BackgroundImageFix" result="effect1_dropShadow_3585_21079"/>
<feColorMatrix in="SourceAlpha" type="matrix" values="0 0 0 0 0 0 0 0 0 0 0 0 0 0 0 0 0 0 127 0" result="hardAlpha"/>
<feOffset dy="1.07773"/>
<feGaussianBlur stdDeviation="0.763391"/>
<feColorMatrix type="matrix" values="0 0 0 0 0.109804 0 0 0 0 0.0509804 0 0 0 0 0.247059 0 0 0 0.0403893 0"/>
<feBlend mode="normal" in2="effect1_dropShadow_3585_21079" result="effect2_dropShadow_3585_21079"/>
<feColorMatrix in="SourceAlpha" type="matrix" values="0 0 0 0 0 0 0 0 0 0 0 0 0 0 0 0 0 0 127 0" result="hardAlpha"/>
<feOffset dy="2.02927"/>
<feGaussianBlur stdDeviation="1.4374"/>
<feColorMatrix type="matrix" values="0 0 0 0 0.109804 0 0 0 0 0.0509804 0 0 0 0 0.247059 0 0 0 0.05 0"/>
<feBlend mode="normal" in2="effect2_dropShadow_3585_21079" result="effect3_dropShadow_3585_21079"/>
<feColorMatrix in="SourceAlpha" type="matrix" values="0 0 0 0 0 0 0 0 0 0 0 0 0 0 0 0 0 0 127 0" result="hardAlpha"/>
<feOffset dy="3.61986"/>
<feGaussianBlur stdDeviation="2.56407"/>
<feColorMatrix type="matrix" values="0 0 0 0 0.109804 0 0 0 0 0.0509804 0 0 0 0 0.247059 0 0 0 0.0596107 0"/>
<feBlend mode="normal" in2="effect3_dropShadow_3585_21079" result="effect4_dropShadow_3585_21079"/>
<feColorMatrix in="SourceAlpha" type="matrix" values="0 0 0 0 0 0 0 0 0 0 0 0 0 0 0 0 0 0 127 0" result="hardAlpha"/>
<feOffset dy="6.77056"/>
<feGaussianBlur stdDeviation="4.79581"/>
<feColorMatrix type="matrix" values="0 0 0 0 0.109804 0 0 0 0 0.0509804 0 0 0 0 0.247059 0 0 0 0.0718854 0"/>
<feBlend mode="normal" in2="effect4_dropShadow_3585_21079" result="effect5_dropShadow_3585_21079"/>
<feColorMatrix in="SourceAlpha" type="matrix" values="0 0 0 0 0 0 0 0 0 0 0 0 0 0 0 0 0 0 127 0" result="hardAlpha"/>
<feOffset dy="16.2062"/>
<feGaussianBlur stdDeviation="11.4794"/>
<feColorMatrix type="matrix" values="0 0 0 0 0.109804 0 0 0 0 0.0509804 0 0 0 0 0.247059 0 0 0 0.1 0"/>
<feBlend mode="normal" in2="effect5_dropShadow_3585_21079" result="effect6_dropShadow_3585_21079"/>
<feBlend mode="normal" in="SourceGraphic" in2="effect6_dropShadow_3585_21079" result="shape"/>
</filter>
<filter id="filter2_dddddd_3585_21079" x="181.01" y="240.392" width="207.979" height="153.959" filterUnits="userSpaceOnUse" color-interpolation-filters="sRGB">
<feFlood flood-opacity="0" result="BackgroundImageFix"/>
<feColorMatrix in="SourceAlpha" type="matrix" values="0 0 0 0 0 0 0 0 0 0 0 0 0 0 0 0 0 0 127 0" result="hardAlpha"/>
<feOffset dy="0.448467"/>
<feGaussianBlur stdDeviation="0.317664"/>
<feColorMatrix type="matrix" values="0 0 0 0 0.109804 0 0 0 0 0.0509804 0 0 0 0 0.247059 0 0 0 0.0281146 0"/>
<feBlend mode="normal" in2="BackgroundImageFix" result="effect1_dropShadow_3585_21079"/>
<feColorMatrix in="SourceAlpha" type="matrix" values="0 0 0 0 0 0 0 0 0 0 0 0 0 0 0 0 0 0 127 0" result="hardAlpha"/>
<feOffset dy="1.07773"/>
<feGaussianBlur stdDeviation="0.763391"/>
<feColorMatrix type="matrix" values="0 0 0 0 0.109804 0 0 0 0 0.0509804 0 0 0 0 0.247059 0 0 0 0.0403893 0"/>
<feBlend mode="normal" in2="effect1_dropShadow_3585_21079" result="effect2_dropShadow_3585_21079"/>
<feColorMatrix in="SourceAlpha" type="matrix" values="0 0 0 0 0 0 0 0 0 0 0 0 0 0 0 0 0 0 127 0" result="hardAlpha"/>
<feOffset dy="2.02927"/>
<feGaussianBlur stdDeviation="1.4374"/>
<feColorMatrix type="matrix" values="0 0 0 0 0.109804 0 0 0 0 0.0509804 0 0 0 0 0.247059 0 0 0 0.05 0"/>
<feBlend mode="normal" in2="effect2_dropShadow_3585_21079" result="effect3_dropShadow_3585_21079"/>
<feColorMatrix in="SourceAlpha" type="matrix" values="0 0 0 0 0 0 0 0 0 0 0 0 0 0 0 0 0 0 127 0" result="hardAlpha"/>
<feOffset dy="3.61986"/>
<feGaussianBlur stdDeviation="2.56407"/>
<feColorMatrix type="matrix" values="0 0 0 0 0.109804 0 0 0 0 0.0509804 0 0 0 0 0.247059 0 0 0 0.0596107 0"/>
<feBlend mode="normal" in2="effect3_dropShadow_3585_21079" result="effect4_dropShadow_3585_21079"/>
<feColorMatrix in="SourceAlpha" type="matrix" values="0 0 0 0 0 0 0 0 0 0 0 0 0 0 0 0 0 0 127 0" result="hardAlpha"/>
<feOffset dy="6.77056"/>
<feGaussianBlur stdDeviation="4.79581"/>
<feColorMatrix type="matrix" values="0 0 0 0 0.109804 0 0 0 0 0.0509804 0 0 0 0 0.247059 0 0 0 0.0718854 0"/>
<feBlend mode="normal" in2="effect4_dropShadow_3585_21079" result="effect5_dropShadow_3585_21079"/>
<feColorMatrix in="SourceAlpha" type="matrix" values="0 0 0 0 0 0 0 0 0 0 0 0 0 0 0 0 0 0 127 0" result="hardAlpha"/>
<feOffset dy="16.2062"/>
<feGaussianBlur stdDeviation="11.4794"/>
<feColorMatrix type="matrix" values="0 0 0 0 0.109804 0 0 0 0 0.0509804 0 0 0 0 0.247059 0 0 0 0.1 0"/>
<feBlend mode="normal" in2="effect5_dropShadow_3585_21079" result="effect6_dropShadow_3585_21079"/>
<feBlend mode="normal" in="SourceGraphic" in2="effect6_dropShadow_3585_21079" result="shape"/>
</filter>
<filter id="filter3_dddddd_3585_21079" x="361.979" y="240.392" width="207.979" height="153.959" filterUnits="userSpaceOnUse" color-interpolation-filters="sRGB">
<feFlood flood-opacity="0" result="BackgroundImageFix"/>
<feColorMatrix in="SourceAlpha" type="matrix" values="0 0 0 0 0 0 0 0 0 0 0 0 0 0 0 0 0 0 127 0" result="hardAlpha"/>
<feOffset dy="0.448467"/>
<feGaussianBlur stdDeviation="0.317664"/>
<feColorMatrix type="matrix" values="0 0 0 0 0.109804 0 0 0 0 0.0509804 0 0 0 0 0.247059 0 0 0 0.0281146 0"/>
<feBlend mode="normal" in2="BackgroundImageFix" result="effect1_dropShadow_3585_21079"/>
<feColorMatrix in="SourceAlpha" type="matrix" values="0 0 0 0 0 0 0 0 0 0 0 0 0 0 0 0 0 0 127 0" result="hardAlpha"/>
<feOffset dy="1.07773"/>
<feGaussianBlur stdDeviation="0.763391"/>
<feColorMatrix type="matrix" values="0 0 0 0 0.109804 0 0 0 0 0.0509804 0 0 0 0 0.247059 0 0 0 0.0403893 0"/>
<feBlend mode="normal" in2="effect1_dropShadow_3585_21079" result="effect2_dropShadow_3585_21079"/>
<feColorMatrix in="SourceAlpha" type="matrix" values="0 0 0 0 0 0 0 0 0 0 0 0 0 0 0 0 0 0 127 0" result="hardAlpha"/>
<feOffset dy="2.02927"/>
<feGaussianBlur stdDeviation="1.4374"/>
<feColorMatrix type="matrix" values="0 0 0 0 0.109804 0 0 0 0 0.0509804 0 0 0 0 0.247059 0 0 0 0.05 0"/>
<feBlend mode="normal" in2="effect2_dropShadow_3585_21079" result="effect3_dropShadow_3585_21079"/>
<feColorMatrix in="SourceAlpha" type="matrix" values="0 0 0 0 0 0 0 0 0 0 0 0 0 0 0 0 0 0 127 0" result="hardAlpha"/>
<feOffset dy="3.61986"/>
<feGaussianBlur stdDeviation="2.56407"/>
<feColorMatrix type="matrix" values="0 0 0 0 0.109804 0 0 0 0 0.0509804 0 0 0 0 0.247059 0 0 0 0.0596107 0"/>
<feBlend mode="normal" in2="effect3_dropShadow_3585_21079" result="effect4_dropShadow_3585_21079"/>
<feColorMatrix in="SourceAlpha" type="matrix" values="0 0 0 0 0 0 0 0 0 0 0 0 0 0 0 0 0 0 127 0" result="hardAlpha"/>
<feOffset dy="6.77056"/>
<feGaussianBlur stdDeviation="4.79581"/>
<feColorMatrix type="matrix" values="0 0 0 0 0.109804 0 0 0 0 0.0509804 0 0 0 0 0.247059 0 0 0 0.0718854 0"/>
<feBlend mode="normal" in2="effect4_dropShadow_3585_21079" result="effect5_dropShadow_3585_21079"/>
<feColorMatrix in="SourceAlpha" type="matrix" values="0 0 0 0 0 0 0 0 0 0 0 0 0 0 0 0 0 0 127 0" result="hardAlpha"/>
<feOffset dy="16.2062"/>
<feGaussianBlur stdDeviation="11.4794"/>
<feColorMatrix type="matrix" values="0 0 0 0 0.109804 0 0 0 0 0.0509804 0 0 0 0 0.247059 0 0 0 0.1 0"/>
<feBlend mode="normal" in2="effect5_dropShadow_3585_21079" result="effect6_dropShadow_3585_21079"/>
<feBlend mode="normal" in="SourceGraphic" in2="effect6_dropShadow_3585_21079" result="shape"/>
</filter>
<linearGradient id="paint0_linear_3585_21079" x1="104.031" y1="291.711" x2="104.031" y2="332.227" gradientUnits="userSpaceOnUse">
<stop stop-color="#2637EF"/>
<stop offset="1" stop-color="#2637EF" stop-opacity="0.3"/>
</linearGradient>
<linearGradient id="paint1_linear_3585_21079" x1="286.885" y1="291.711" x2="286.885" y2="332.227" gradientUnits="userSpaceOnUse">
<stop stop-color="#ED26B7"/>
<stop offset="1" stop-color="#ED26B7" stop-opacity="0.3"/>
</linearGradient>
<linearGradient id="paint2_linear_3585_21079" x1="467.855" y1="291.711" x2="467.855" y2="332.227" gradientUnits="userSpaceOnUse">
<stop stop-color="#1B127D"/>
<stop offset="1" stop-color="#1B127D" stop-opacity="0.3"/>
</linearGradient>
</defs>
</svg>
