<svg width="640" height="468" viewBox="0 0 640 468" fill="none" xmlns="http://www.w3.org/2000/svg">
<path d="M298.746 45.9562C297.498 44.6894 295.683 44.6894 294.605 44.6894H289.557V58.0001H292.015V52.9896H294.643C295.683 52.9896 297.498 53.0086 298.765 51.704C299.502 50.9666 299.937 49.9078 299.937 48.849C299.937 47.7523 299.464 46.6935 298.746 45.9562ZM296.931 50.267C296.496 50.7208 295.891 50.9288 294.851 50.9288H292.015V46.7881H294.851C295.683 46.7881 296.345 46.8826 296.874 47.3931C297.233 47.7523 297.46 48.2439 297.46 48.8679C297.46 49.454 297.271 49.9267 296.931 50.267ZM304.685 58.2837C306.367 58.2837 307.332 57.4139 307.748 56.8089H307.785L307.899 58.0001H310.092V52.101C310.092 50.7019 309.827 49.9456 309.336 49.3216C308.561 48.3385 307.256 47.8847 305.895 47.8847C303.323 47.8847 301.962 49.3027 301.603 49.87L302.945 51.1746C303.531 50.4372 304.496 49.7754 305.762 49.7754C307.029 49.7754 307.861 50.5317 307.861 51.6851V51.7985C304.779 51.893 303.399 52.0254 302.397 52.8573C301.735 53.3678 301.281 54.1619 301.281 55.164C301.281 57.2249 302.813 58.2837 304.685 58.2837ZM305.12 56.4119C304.307 56.4119 303.588 56.0337 303.588 55.1073C303.588 53.6703 305.157 53.4812 307.861 53.4245V53.538C307.861 55.2774 306.783 56.4119 305.12 56.4119ZM315.198 58.0001V53.5191C315.198 52.3468 315.292 51.6094 315.822 51.0233C316.408 50.3615 317.391 50.1914 318.393 50.2481V47.8847C317.372 47.8847 315.916 48.3574 315.217 49.5674H315.179L315.028 48.1683H312.834V58.0001H315.198ZM329.544 53.0842C329.544 50.1536 327.596 47.8847 324.59 47.8847C321.603 47.8847 319.428 50.0968 319.428 53.1031C319.428 55.9581 321.414 58.2837 324.647 58.2837C326.727 58.2837 328.201 57.1871 328.806 56.3551L327.294 55.0505C326.954 55.5232 326.103 56.3362 324.666 56.3362C322.851 56.3362 321.868 55.0316 321.83 53.8594H329.525C329.544 53.5947 329.544 53.33 329.544 53.0842ZM324.571 49.7376C326.235 49.7376 327.086 51.0611 327.162 52.0821H321.849C321.981 51.0422 322.851 49.7376 324.571 49.7376ZM334.031 58.0001V52.6304C334.031 51.0611 334.844 49.9456 336.319 49.9456C337.472 49.9456 338.304 50.7019 338.304 52.2712V58.0001H340.668V51.8174C340.668 49.3406 339.249 47.8847 336.981 47.8847C335.128 47.8847 334.277 48.9624 333.993 49.3784H333.974L333.861 48.1683H331.668V58.0001H334.031ZM349.215 55.8257C348.951 55.9959 348.497 56.2228 347.873 56.2228C346.682 56.2228 346.341 55.3152 346.341 54.3132V50.1536H349.367V48.1683H346.341V45.1621H343.978V48.1683H342.163V50.1536H343.978V54.5211C343.978 56.7522 345.226 58.2837 347.57 58.2837C348.629 58.2837 349.556 57.9433 350.104 57.5085L349.215 55.8257Z" fill="#1C0D3F"/>
<path d="M91.6997 426.974C94.6114 426.974 96.521 425.481 97.2395 424.479L95.6891 423.004C94.8004 424.006 93.5904 424.838 91.7186 424.838C88.9581 424.838 87.1052 422.739 87.1052 420.035C87.1052 417.388 88.9392 415.214 91.7186 415.214C93.458 415.214 94.7437 416.027 95.5756 417.029L97.2206 415.63C96.4832 414.458 94.479 413.097 91.7186 413.097C87.559 413.097 84.5905 416.216 84.5905 420.054C84.5905 423.874 87.5401 426.974 91.6997 426.974ZM103.52 426.974C104.882 426.974 105.997 426.502 106.81 425.708C107.623 424.895 108.001 423.817 108.001 422.569V416.859H105.638V422.399C105.638 423.193 105.524 423.836 105.014 424.327C104.655 424.706 104.163 424.914 103.52 424.914C102.896 424.914 102.386 424.706 102.008 424.327C101.516 423.836 101.384 423.193 101.384 422.399V416.859H99.0203V422.569C99.0203 423.817 99.3984 424.895 100.211 425.708C101.024 426.502 102.14 426.974 103.52 426.974ZM114.265 426.974C116.817 426.974 118.557 425.575 118.557 423.666C118.557 419.827 112.639 421.359 112.639 419.563C112.639 418.863 113.357 418.447 114.397 418.447C115.853 418.447 116.685 419.185 117.025 419.582L118.443 418.391C118.254 418.069 117.082 416.575 114.359 416.575C111.731 416.575 110.294 418.145 110.294 419.714C110.294 423.552 116.212 422.04 116.212 423.874C116.212 424.649 115.437 425.084 114.284 425.084C112.733 425.084 111.75 424.214 111.41 423.779L109.973 425.121C110.143 425.424 111.353 426.974 114.265 426.974ZM126.579 424.516C126.314 424.687 125.86 424.914 125.236 424.914C124.045 424.914 123.705 424.006 123.705 423.004V418.844H126.73V416.859H123.705V413.853H121.341V416.859H119.526V418.844H121.341V423.212C121.341 425.443 122.589 426.974 124.934 426.974C125.992 426.974 126.919 426.634 127.467 426.199L126.579 424.516ZM133.531 426.974C136.651 426.974 138.901 424.63 138.901 421.775C138.901 418.901 136.651 416.575 133.531 416.575C130.431 416.575 128.181 418.901 128.181 421.775C128.181 424.649 130.431 426.974 133.531 426.974ZM133.531 424.914C131.735 424.914 130.582 423.514 130.582 421.794C130.582 420.035 131.735 418.617 133.531 418.617C135.347 418.617 136.5 420.035 136.5 421.794C136.5 423.514 135.347 424.914 133.531 424.914ZM143.485 426.691V421.51C143.485 420.773 143.542 420.13 143.863 419.601C144.204 419.014 144.866 418.655 145.546 418.655C146.189 418.655 146.737 418.939 147.059 419.487C147.342 419.922 147.361 420.489 147.361 421.038V426.691H149.744V421.51C149.744 420.773 149.819 420.13 150.122 419.601C150.462 419.014 151.124 418.655 151.823 418.655C152.447 418.655 153.015 418.939 153.336 419.487C153.601 419.922 153.639 420.489 153.639 421.038V426.691H156.021V420.47C156.021 419.412 155.832 418.617 155.302 417.918C154.66 417.086 153.601 416.575 152.202 416.575C150.481 416.575 149.555 417.615 149.214 418.069H149.195C148.798 417.521 147.929 416.575 146.246 416.575C144.658 416.575 143.788 417.483 143.429 418.031H143.41L143.296 416.859H141.103V426.691H143.485ZM168.189 421.775C168.189 418.844 166.242 416.575 163.236 416.575C160.248 416.575 158.074 418.788 158.074 421.794C158.074 424.649 160.059 426.974 163.292 426.974C165.372 426.974 166.847 425.878 167.452 425.046L165.939 423.741C165.599 424.214 164.748 425.027 163.311 425.027C161.496 425.027 160.513 423.722 160.475 422.55H168.17C168.189 422.285 168.189 422.021 168.189 421.775ZM163.217 418.428C164.881 418.428 165.731 419.752 165.807 420.773H160.494C160.627 419.733 161.496 418.428 163.217 418.428ZM172.677 426.691V422.21C172.677 421.038 172.771 420.3 173.301 419.714C173.887 419.052 174.87 418.882 175.872 418.939V416.575C174.851 416.575 173.395 417.048 172.696 418.258H172.658L172.506 416.859H170.313V426.691H172.677ZM189.601 426.691V413.38H187.37C186.273 414.496 184.572 415.422 183.21 415.876L183.986 417.767C184.95 417.502 186.311 416.878 187.219 416.084H187.238V426.691H189.601Z" fill="#1C0D3F"/>
<path d="M272.669 426.974C275.58 426.974 277.49 425.481 278.209 424.479L276.658 423.004C275.77 424.006 274.559 424.838 272.688 424.838C269.927 424.838 268.074 422.739 268.074 420.035C268.074 417.388 269.908 415.214 272.688 415.214C274.427 415.214 275.713 416.027 276.545 417.029L278.19 415.63C277.452 414.458 275.448 413.097 272.688 413.097C268.528 413.097 265.56 416.216 265.56 420.054C265.56 423.874 268.509 426.974 272.669 426.974ZM284.489 426.974C285.851 426.974 286.966 426.502 287.779 425.708C288.592 424.895 288.97 423.817 288.97 422.569V416.859H286.607V422.399C286.607 423.193 286.493 423.836 285.983 424.327C285.624 424.706 285.132 424.914 284.489 424.914C283.865 424.914 283.355 424.706 282.977 424.327C282.485 423.836 282.353 423.193 282.353 422.399V416.859H279.989V422.569C279.989 423.817 280.368 424.895 281.181 425.708C281.994 426.502 283.109 426.974 284.489 426.974ZM295.234 426.974C297.786 426.974 299.526 425.575 299.526 423.666C299.526 419.827 293.608 421.359 293.608 419.563C293.608 418.863 294.326 418.447 295.366 418.447C296.822 418.447 297.654 419.185 297.994 419.582L299.412 418.391C299.223 418.069 298.051 416.575 295.328 416.575C292.7 416.575 291.263 418.145 291.263 419.714C291.263 423.552 297.181 422.04 297.181 423.874C297.181 424.649 296.406 425.084 295.253 425.084C293.702 425.084 292.719 424.214 292.379 423.779L290.942 425.121C291.112 425.424 292.322 426.974 295.234 426.974ZM307.548 424.516C307.283 424.687 306.829 424.914 306.205 424.914C305.014 424.914 304.674 424.006 304.674 423.004V418.844H307.699V416.859H304.674V413.853H302.31V416.859H300.495V418.844H302.31V423.212C302.31 425.443 303.558 426.974 305.903 426.974C306.962 426.974 307.888 426.634 308.436 426.199L307.548 424.516ZM314.501 426.974C317.62 426.974 319.87 424.63 319.87 421.775C319.87 418.901 317.62 416.575 314.501 416.575C311.4 416.575 309.15 418.901 309.15 421.775C309.15 424.649 311.4 426.974 314.501 426.974ZM314.501 424.914C312.704 424.914 311.551 423.514 311.551 421.794C311.551 420.035 312.704 418.617 314.501 418.617C316.316 418.617 317.469 420.035 317.469 421.794C317.469 423.514 316.316 424.914 314.501 424.914ZM324.454 426.691V421.51C324.454 420.773 324.511 420.13 324.833 419.601C325.173 419.014 325.835 418.655 326.515 418.655C327.158 418.655 327.706 418.939 328.028 419.487C328.312 419.922 328.33 420.489 328.33 421.038V426.691H330.713V421.51C330.713 420.773 330.788 420.13 331.091 419.601C331.431 419.014 332.093 418.655 332.793 418.655C333.416 418.655 333.984 418.939 334.305 419.487C334.57 419.922 334.608 420.489 334.608 421.038V426.691H336.99V420.47C336.99 419.412 336.801 418.617 336.271 417.918C335.629 417.086 334.57 416.575 333.171 416.575C331.45 416.575 330.524 417.615 330.183 418.069H330.164C329.767 417.521 328.898 416.575 327.215 416.575C325.627 416.575 324.757 417.483 324.398 418.031H324.379L324.265 416.859H322.072V426.691H324.454ZM349.159 421.775C349.159 418.844 347.211 416.575 344.205 416.575C341.217 416.575 339.043 418.788 339.043 421.794C339.043 424.649 341.028 426.974 344.262 426.974C346.341 426.974 347.816 425.878 348.421 425.046L346.909 423.741C346.568 424.214 345.717 425.027 344.28 425.027C342.465 425.027 341.482 423.722 341.444 422.55H349.14C349.159 422.285 349.159 422.021 349.159 421.775ZM344.186 418.428C345.85 418.428 346.701 419.752 346.776 420.773H341.463C341.596 419.733 342.465 418.428 344.186 418.428ZM353.646 426.691V422.21C353.646 421.038 353.74 420.3 354.27 419.714C354.856 419.052 355.839 418.882 356.841 418.939V416.575C355.82 416.575 354.364 417.048 353.665 418.258H353.627L353.476 416.859H351.282V426.691H353.646ZM373.217 426.691V424.592H367.186L367.167 424.573C368.282 423.741 369.284 422.947 370.211 422.077C371.95 420.395 372.896 418.92 372.896 417.18C372.896 414.401 370.684 413.097 368.226 413.097C365.749 413.097 364.331 414.533 363.745 415.762L365.427 416.878C366.014 415.876 366.883 415.138 368.207 415.138C369.587 415.138 370.495 415.97 370.495 417.18C370.495 419.601 366.619 422.645 363.877 424.687V426.691H373.217Z" fill="#1C0D3F"/>
<path d="M440.117 426.974C443.029 426.974 444.938 425.481 445.657 424.479L444.106 423.004C443.218 424.006 442.008 424.838 440.136 424.838C437.375 424.838 435.522 422.739 435.522 420.035C435.522 417.388 437.356 415.214 440.136 415.214C441.875 415.214 443.161 416.027 443.993 417.029L445.638 415.63C444.9 414.458 442.896 413.097 440.136 413.097C435.976 413.097 433.008 416.216 433.008 420.054C433.008 423.874 435.957 426.974 440.117 426.974ZM451.937 426.974C453.299 426.974 454.414 426.502 455.227 425.708C456.04 424.895 456.419 423.817 456.419 422.569V416.859H454.055V422.399C454.055 423.193 453.942 423.836 453.431 424.327C453.072 424.706 452.58 424.914 451.937 424.914C451.314 424.914 450.803 424.706 450.425 424.327C449.933 423.836 449.801 423.193 449.801 422.399V416.859H447.438V422.569C447.438 423.817 447.816 424.895 448.629 425.708C449.442 426.502 450.557 426.974 451.937 426.974ZM462.682 426.974C465.235 426.974 466.974 425.575 466.974 423.666C466.974 419.827 461.056 421.359 461.056 419.563C461.056 418.863 461.775 418.447 462.814 418.447C464.27 418.447 465.102 419.185 465.443 419.582L466.861 418.391C466.672 418.069 465.499 416.575 462.777 416.575C460.149 416.575 458.712 418.145 458.712 419.714C458.712 423.552 464.63 422.04 464.63 423.874C464.63 424.649 463.854 425.084 462.701 425.084C461.151 425.084 460.167 424.214 459.827 423.779L458.39 425.121C458.56 425.424 459.77 426.974 462.682 426.974ZM474.996 424.516C474.731 424.687 474.277 424.914 473.653 424.914C472.462 424.914 472.122 424.006 472.122 423.004V418.844H475.147V416.859H472.122V413.853H469.759V416.859H467.943V418.844H469.759V423.212C469.759 425.443 471.006 426.974 473.351 426.974C474.41 426.974 475.336 426.634 475.885 426.199L474.996 424.516ZM481.949 426.974C485.068 426.974 487.318 424.63 487.318 421.775C487.318 418.901 485.068 416.575 481.949 416.575C478.848 416.575 476.598 418.901 476.598 421.775C476.598 424.649 478.848 426.974 481.949 426.974ZM481.949 424.914C480.153 424.914 478.999 423.514 478.999 421.794C478.999 420.035 480.153 418.617 481.949 418.617C483.764 418.617 484.917 420.035 484.917 421.794C484.917 423.514 483.764 424.914 481.949 424.914ZM491.903 426.691V421.51C491.903 420.773 491.959 420.13 492.281 419.601C492.621 419.014 493.283 418.655 493.964 418.655C494.606 418.655 495.155 418.939 495.476 419.487C495.76 419.922 495.779 420.489 495.779 421.038V426.691H498.161V421.51C498.161 420.773 498.237 420.13 498.539 419.601C498.879 419.014 499.541 418.655 500.241 418.655C500.865 418.655 501.432 418.939 501.753 419.487C502.018 419.922 502.056 420.489 502.056 421.038V426.691H504.438V420.47C504.438 419.412 504.249 418.617 503.72 417.918C503.077 417.086 502.018 416.575 500.619 416.575C498.898 416.575 497.972 417.615 497.632 418.069H497.613C497.216 417.521 496.346 416.575 494.663 416.575C493.075 416.575 492.205 417.483 491.846 418.031H491.827L491.714 416.859H489.52V426.691H491.903ZM516.607 421.775C516.607 418.844 514.659 416.575 511.653 416.575C508.666 416.575 506.491 418.788 506.491 421.794C506.491 424.649 508.477 426.974 511.71 426.974C513.789 426.974 515.264 425.878 515.869 425.046L514.357 423.741C514.016 424.214 513.166 425.027 511.729 425.027C509.914 425.027 508.93 423.722 508.893 422.55H516.588C516.607 422.285 516.607 422.021 516.607 421.775ZM511.634 418.428C513.298 418.428 514.149 419.752 514.224 420.773H508.911C509.044 419.733 509.914 418.428 511.634 418.428ZM521.094 426.691V422.21C521.094 421.038 521.188 420.3 521.718 419.714C522.304 419.052 523.287 418.882 524.289 418.939V416.575C523.268 416.575 521.812 417.048 521.113 418.258H521.075L520.924 416.859H518.73V426.691H521.094ZM533.802 426.691V416.367H533.84L539.663 426.691H542.878V413.38H540.533V423.703H540.514L534.691 413.38H531.476V426.691H533.802ZM551.769 419.79V415.8H549.613V419.79H545.681V421.775H549.613V425.764H551.769V421.775H555.682V419.79H551.769ZM565.05 426.691V413.38H562.819C561.722 414.496 560.02 415.422 558.659 415.876L559.434 417.767C560.399 417.502 561.76 416.878 562.667 416.084H562.686V426.691H565.05Z" fill="#1C0D3F"/>
<g filter="url(#filter0_dddddd_3349_21185)">
<rect x="238.969" y="78.866" width="162.062" height="108.041" rx="5.40206" fill="#1C0D3F"/>
<rect x="260.577" y="99.1238" width="40.5155" height="4.05155" fill="white"/>
<rect x="260.577" y="111.278" width="118.845" height="13.5052" fill="white"/>
<rect x="260.577" y="127.485" width="118.845" height="13.5052" fill="white"/>
<rect x="260.577" y="143.691" width="118.845" height="13.5052" fill="white"/>
<rect x="260.577" y="159.897" width="118.845" height="13.5052" fill="white"/>
<rect x="241.67" y="81.5671" width="12.1546" height="5.40206" rx="2.70103" fill="#ED26B7"/>
</g>
<g filter="url(#filter1_dddddd_3349_21185)">
<rect x="58" y="284.144" width="162.062" height="108.041" rx="5.40206" fill="#1C0D3F"/>
<rect x="66.1031" y="300.351" width="40.5155" height="4.05155" fill="white"/>
<rect x="66.1031" y="312.505" width="145.856" height="71.5773" fill="white"/>
<path d="M172.344 350.318L189 343.565V369.225H89.0619V339.516L105.718 355.72L122.375 347.617L139.031 355.72L155.687 343.565L172.344 350.318Z" fill="url(#paint0_linear_3349_21185)"/>
<rect x="66.1031" y="289.547" width="16.2062" height="5.40206" rx="2.70103" fill="#ED26B7"/>
</g>
<g filter="url(#filter2_dddddd_3349_21185)">
<rect x="238.969" y="284.144" width="162.062" height="108.041" rx="5.40206" fill="#1C0D3F"/>
<rect x="247.072" y="300.351" width="40.5155" height="4.05155" fill="white"/>
<rect x="247.072" y="312.505" width="145.856" height="71.5773" fill="white"/>
<path d="M286.687 350.32L270.031 347.619V369.227H369.969V328.711L353.313 346.268L336.656 347.619L320 355.722L303.344 343.567L286.687 350.32Z" fill="url(#paint1_linear_3349_21185)"/>
<rect x="247.072" y="289.547" width="16.2062" height="5.40206" rx="2.70103" fill="#ED26B7"/>
</g>
<g filter="url(#filter3_dddddd_3349_21185)">
<rect x="419.938" y="284.144" width="162.062" height="108.041" rx="5.40206" fill="#1C0D3F"/>
<rect x="428.041" y="300.351" width="40.5155" height="4.05155" fill="white"/>
<rect x="428.041" y="312.505" width="145.856" height="71.5773" fill="white"/>
<path d="M467.656 346.268L451 358.423V369.227H550.938V335.464L534.282 357.072L517.625 342.217L500.969 361.124H484.313L467.656 346.268Z" fill="url(#paint2_linear_3349_21185)"/>
<rect x="428.041" y="289.547" width="16.2062" height="5.40206" rx="2.70103" fill="#ED26B7"/>
</g>
<path d="M493.031 266.98L320 196.252L146.969 266.98L144.53 261.013L134.979 273.34L150.431 275.448L147.991 269.48L318.65 199.722V259.835H312.203L320 273.34L327.797 259.835H321.351V199.722L492.009 269.48L489.569 275.448L505.021 273.34L495.47 261.013L493.031 266.98Z" fill="#BFC9D1"/>
<defs>
<filter id="filter0_dddddd_3349_21185" x="216.01" y="72.1135" width="207.979" height="153.959" filterUnits="userSpaceOnUse" color-interpolation-filters="sRGB">
<feFlood flood-opacity="0" result="BackgroundImageFix"/>
<feColorMatrix in="SourceAlpha" type="matrix" values="0 0 0 0 0 0 0 0 0 0 0 0 0 0 0 0 0 0 127 0" result="hardAlpha"/>
<feOffset dy="0.448467"/>
<feGaussianBlur stdDeviation="0.317664"/>
<feColorMatrix type="matrix" values="0 0 0 0 0.109804 0 0 0 0 0.0509804 0 0 0 0 0.247059 0 0 0 0.0281146 0"/>
<feBlend mode="normal" in2="BackgroundImageFix" result="effect1_dropShadow_3349_21185"/>
<feColorMatrix in="SourceAlpha" type="matrix" values="0 0 0 0 0 0 0 0 0 0 0 0 0 0 0 0 0 0 127 0" result="hardAlpha"/>
<feOffset dy="1.07773"/>
<feGaussianBlur stdDeviation="0.763391"/>
<feColorMatrix type="matrix" values="0 0 0 0 0.109804 0 0 0 0 0.0509804 0 0 0 0 0.247059 0 0 0 0.0403893 0"/>
<feBlend mode="normal" in2="effect1_dropShadow_3349_21185" result="effect2_dropShadow_3349_21185"/>
<feColorMatrix in="SourceAlpha" type="matrix" values="0 0 0 0 0 0 0 0 0 0 0 0 0 0 0 0 0 0 127 0" result="hardAlpha"/>
<feOffset dy="2.02927"/>
<feGaussianBlur stdDeviation="1.4374"/>
<feColorMatrix type="matrix" values="0 0 0 0 0.109804 0 0 0 0 0.0509804 0 0 0 0 0.247059 0 0 0 0.05 0"/>
<feBlend mode="normal" in2="effect2_dropShadow_3349_21185" result="effect3_dropShadow_3349_21185"/>
<feColorMatrix in="SourceAlpha" type="matrix" values="0 0 0 0 0 0 0 0 0 0 0 0 0 0 0 0 0 0 127 0" result="hardAlpha"/>
<feOffset dy="3.61986"/>
<feGaussianBlur stdDeviation="2.56407"/>
<feColorMatrix type="matrix" values="0 0 0 0 0.109804 0 0 0 0 0.0509804 0 0 0 0 0.247059 0 0 0 0.0596107 0"/>
<feBlend mode="normal" in2="effect3_dropShadow_3349_21185" result="effect4_dropShadow_3349_21185"/>
<feColorMatrix in="SourceAlpha" type="matrix" values="0 0 0 0 0 0 0 0 0 0 0 0 0 0 0 0 0 0 127 0" result="hardAlpha"/>
<feOffset dy="6.77056"/>
<feGaussianBlur stdDeviation="4.79581"/>
<feColorMatrix type="matrix" values="0 0 0 0 0.109804 0 0 0 0 0.0509804 0 0 0 0 0.247059 0 0 0 0.0718854 0"/>
<feBlend mode="normal" in2="effect4_dropShadow_3349_21185" result="effect5_dropShadow_3349_21185"/>
<feColorMatrix in="SourceAlpha" type="matrix" values="0 0 0 0 0 0 0 0 0 0 0 0 0 0 0 0 0 0 127 0" result="hardAlpha"/>
<feOffset dy="16.2062"/>
<feGaussianBlur stdDeviation="11.4794"/>
<feColorMatrix type="matrix" values="0 0 0 0 0.109804 0 0 0 0 0.0509804 0 0 0 0 0.247059 0 0 0 0.1 0"/>
<feBlend mode="normal" in2="effect5_dropShadow_3349_21185" result="effect6_dropShadow_3349_21185"/>
<feBlend mode="normal" in="SourceGraphic" in2="effect6_dropShadow_3349_21185" result="shape"/>
</filter>
<filter id="filter1_dddddd_3349_21185" x="35.0412" y="277.392" width="207.979" height="153.959" filterUnits="userSpaceOnUse" color-interpolation-filters="sRGB">
<feFlood flood-opacity="0" result="BackgroundImageFix"/>
<feColorMatrix in="SourceAlpha" type="matrix" values="0 0 0 0 0 0 0 0 0 0 0 0 0 0 0 0 0 0 127 0" result="hardAlpha"/>
<feOffset dy="0.448467"/>
<feGaussianBlur stdDeviation="0.317664"/>
<feColorMatrix type="matrix" values="0 0 0 0 0.109804 0 0 0 0 0.0509804 0 0 0 0 0.247059 0 0 0 0.0281146 0"/>
<feBlend mode="normal" in2="BackgroundImageFix" result="effect1_dropShadow_3349_21185"/>
<feColorMatrix in="SourceAlpha" type="matrix" values="0 0 0 0 0 0 0 0 0 0 0 0 0 0 0 0 0 0 127 0" result="hardAlpha"/>
<feOffset dy="1.07773"/>
<feGaussianBlur stdDeviation="0.763391"/>
<feColorMatrix type="matrix" values="0 0 0 0 0.109804 0 0 0 0 0.0509804 0 0 0 0 0.247059 0 0 0 0.0403893 0"/>
<feBlend mode="normal" in2="effect1_dropShadow_3349_21185" result="effect2_dropShadow_3349_21185"/>
<feColorMatrix in="SourceAlpha" type="matrix" values="0 0 0 0 0 0 0 0 0 0 0 0 0 0 0 0 0 0 127 0" result="hardAlpha"/>
<feOffset dy="2.02927"/>
<feGaussianBlur stdDeviation="1.4374"/>
<feColorMatrix type="matrix" values="0 0 0 0 0.109804 0 0 0 0 0.0509804 0 0 0 0 0.247059 0 0 0 0.05 0"/>
<feBlend mode="normal" in2="effect2_dropShadow_3349_21185" result="effect3_dropShadow_3349_21185"/>
<feColorMatrix in="SourceAlpha" type="matrix" values="0 0 0 0 0 0 0 0 0 0 0 0 0 0 0 0 0 0 127 0" result="hardAlpha"/>
<feOffset dy="3.61986"/>
<feGaussianBlur stdDeviation="2.56407"/>
<feColorMatrix type="matrix" values="0 0 0 0 0.109804 0 0 0 0 0.0509804 0 0 0 0 0.247059 0 0 0 0.0596107 0"/>
<feBlend mode="normal" in2="effect3_dropShadow_3349_21185" result="effect4_dropShadow_3349_21185"/>
<feColorMatrix in="SourceAlpha" type="matrix" values="0 0 0 0 0 0 0 0 0 0 0 0 0 0 0 0 0 0 127 0" result="hardAlpha"/>
<feOffset dy="6.77056"/>
<feGaussianBlur stdDeviation="4.79581"/>
<feColorMatrix type="matrix" values="0 0 0 0 0.109804 0 0 0 0 0.0509804 0 0 0 0 0.247059 0 0 0 0.0718854 0"/>
<feBlend mode="normal" in2="effect4_dropShadow_3349_21185" result="effect5_dropShadow_3349_21185"/>
<feColorMatrix in="SourceAlpha" type="matrix" values="0 0 0 0 0 0 0 0 0 0 0 0 0 0 0 0 0 0 127 0" result="hardAlpha"/>
<feOffset dy="16.2062"/>
<feGaussianBlur stdDeviation="11.4794"/>
<feColorMatrix type="matrix" values="0 0 0 0 0.109804 0 0 0 0 0.0509804 0 0 0 0 0.247059 0 0 0 0.1 0"/>
<feBlend mode="normal" in2="effect5_dropShadow_3349_21185" result="effect6_dropShadow_3349_21185"/>
<feBlend mode="normal" in="SourceGraphic" in2="effect6_dropShadow_3349_21185" result="shape"/>
</filter>
<filter id="filter2_dddddd_3349_21185" x="216.01" y="277.392" width="207.979" height="153.959" filterUnits="userSpaceOnUse" color-interpolation-filters="sRGB">
<feFlood flood-opacity="0" result="BackgroundImageFix"/>
<feColorMatrix in="SourceAlpha" type="matrix" values="0 0 0 0 0 0 0 0 0 0 0 0 0 0 0 0 0 0 127 0" result="hardAlpha"/>
<feOffset dy="0.448467"/>
<feGaussianBlur stdDeviation="0.317664"/>
<feColorMatrix type="matrix" values="0 0 0 0 0.109804 0 0 0 0 0.0509804 0 0 0 0 0.247059 0 0 0 0.0281146 0"/>
<feBlend mode="normal" in2="BackgroundImageFix" result="effect1_dropShadow_3349_21185"/>
<feColorMatrix in="SourceAlpha" type="matrix" values="0 0 0 0 0 0 0 0 0 0 0 0 0 0 0 0 0 0 127 0" result="hardAlpha"/>
<feOffset dy="1.07773"/>
<feGaussianBlur stdDeviation="0.763391"/>
<feColorMatrix type="matrix" values="0 0 0 0 0.109804 0 0 0 0 0.0509804 0 0 0 0 0.247059 0 0 0 0.0403893 0"/>
<feBlend mode="normal" in2="effect1_dropShadow_3349_21185" result="effect2_dropShadow_3349_21185"/>
<feColorMatrix in="SourceAlpha" type="matrix" values="0 0 0 0 0 0 0 0 0 0 0 0 0 0 0 0 0 0 127 0" result="hardAlpha"/>
<feOffset dy="2.02927"/>
<feGaussianBlur stdDeviation="1.4374"/>
<feColorMatrix type="matrix" values="0 0 0 0 0.109804 0 0 0 0 0.0509804 0 0 0 0 0.247059 0 0 0 0.05 0"/>
<feBlend mode="normal" in2="effect2_dropShadow_3349_21185" result="effect3_dropShadow_3349_21185"/>
<feColorMatrix in="SourceAlpha" type="matrix" values="0 0 0 0 0 0 0 0 0 0 0 0 0 0 0 0 0 0 127 0" result="hardAlpha"/>
<feOffset dy="3.61986"/>
<feGaussianBlur stdDeviation="2.56407"/>
<feColorMatrix type="matrix" values="0 0 0 0 0.109804 0 0 0 0 0.0509804 0 0 0 0 0.247059 0 0 0 0.0596107 0"/>
<feBlend mode="normal" in2="effect3_dropShadow_3349_21185" result="effect4_dropShadow_3349_21185"/>
<feColorMatrix in="SourceAlpha" type="matrix" values="0 0 0 0 0 0 0 0 0 0 0 0 0 0 0 0 0 0 127 0" result="hardAlpha"/>
<feOffset dy="6.77056"/>
<feGaussianBlur stdDeviation="4.79581"/>
<feColorMatrix type="matrix" values="0 0 0 0 0.109804 0 0 0 0 0.0509804 0 0 0 0 0.247059 0 0 0 0.0718854 0"/>
<feBlend mode="normal" in2="effect4_dropShadow_3349_21185" result="effect5_dropShadow_3349_21185"/>
<feColorMatrix in="SourceAlpha" type="matrix" values="0 0 0 0 0 0 0 0 0 0 0 0 0 0 0 0 0 0 127 0" result="hardAlpha"/>
<feOffset dy="16.2062"/>
<feGaussianBlur stdDeviation="11.4794"/>
<feColorMatrix type="matrix" values="0 0 0 0 0.109804 0 0 0 0 0.0509804 0 0 0 0 0.247059 0 0 0 0.1 0"/>
<feBlend mode="normal" in2="effect5_dropShadow_3349_21185" result="effect6_dropShadow_3349_21185"/>
<feBlend mode="normal" in="SourceGraphic" in2="effect6_dropShadow_3349_21185" result="shape"/>
</filter>
<filter id="filter3_dddddd_3349_21185" x="396.979" y="277.392" width="207.979" height="153.959" filterUnits="userSpaceOnUse" color-interpolation-filters="sRGB">
<feFlood flood-opacity="0" result="BackgroundImageFix"/>
<feColorMatrix in="SourceAlpha" type="matrix" values="0 0 0 0 0 0 0 0 0 0 0 0 0 0 0 0 0 0 127 0" result="hardAlpha"/>
<feOffset dy="0.448467"/>
<feGaussianBlur stdDeviation="0.317664"/>
<feColorMatrix type="matrix" values="0 0 0 0 0.109804 0 0 0 0 0.0509804 0 0 0 0 0.247059 0 0 0 0.0281146 0"/>
<feBlend mode="normal" in2="BackgroundImageFix" result="effect1_dropShadow_3349_21185"/>
<feColorMatrix in="SourceAlpha" type="matrix" values="0 0 0 0 0 0 0 0 0 0 0 0 0 0 0 0 0 0 127 0" result="hardAlpha"/>
<feOffset dy="1.07773"/>
<feGaussianBlur stdDeviation="0.763391"/>
<feColorMatrix type="matrix" values="0 0 0 0 0.109804 0 0 0 0 0.0509804 0 0 0 0 0.247059 0 0 0 0.0403893 0"/>
<feBlend mode="normal" in2="effect1_dropShadow_3349_21185" result="effect2_dropShadow_3349_21185"/>
<feColorMatrix in="SourceAlpha" type="matrix" values="0 0 0 0 0 0 0 0 0 0 0 0 0 0 0 0 0 0 127 0" result="hardAlpha"/>
<feOffset dy="2.02927"/>
<feGaussianBlur stdDeviation="1.4374"/>
<feColorMatrix type="matrix" values="0 0 0 0 0.109804 0 0 0 0 0.0509804 0 0 0 0 0.247059 0 0 0 0.05 0"/>
<feBlend mode="normal" in2="effect2_dropShadow_3349_21185" result="effect3_dropShadow_3349_21185"/>
<feColorMatrix in="SourceAlpha" type="matrix" values="0 0 0 0 0 0 0 0 0 0 0 0 0 0 0 0 0 0 127 0" result="hardAlpha"/>
<feOffset dy="3.61986"/>
<feGaussianBlur stdDeviation="2.56407"/>
<feColorMatrix type="matrix" values="0 0 0 0 0.109804 0 0 0 0 0.0509804 0 0 0 0 0.247059 0 0 0 0.0596107 0"/>
<feBlend mode="normal" in2="effect3_dropShadow_3349_21185" result="effect4_dropShadow_3349_21185"/>
<feColorMatrix in="SourceAlpha" type="matrix" values="0 0 0 0 0 0 0 0 0 0 0 0 0 0 0 0 0 0 127 0" result="hardAlpha"/>
<feOffset dy="6.77056"/>
<feGaussianBlur stdDeviation="4.79581"/>
<feColorMatrix type="matrix" values="0 0 0 0 0.109804 0 0 0 0 0.0509804 0 0 0 0 0.247059 0 0 0 0.0718854 0"/>
<feBlend mode="normal" in2="effect4_dropShadow_3349_21185" result="effect5_dropShadow_3349_21185"/>
<feColorMatrix in="SourceAlpha" type="matrix" values="0 0 0 0 0 0 0 0 0 0 0 0 0 0 0 0 0 0 127 0" result="hardAlpha"/>
<feOffset dy="16.2062"/>
<feGaussianBlur stdDeviation="11.4794"/>
<feColorMatrix type="matrix" values="0 0 0 0 0.109804 0 0 0 0 0.0509804 0 0 0 0 0.247059 0 0 0 0.1 0"/>
<feBlend mode="normal" in2="effect5_dropShadow_3349_21185" result="effect6_dropShadow_3349_21185"/>
<feBlend mode="normal" in="SourceGraphic" in2="effect6_dropShadow_3349_21185" result="shape"/>
</filter>
<linearGradient id="paint0_linear_3349_21185" x1="139.031" y1="328.711" x2="139.031" y2="369.227" gradientUnits="userSpaceOnUse">
<stop stop-color="#2637EF"/>
<stop offset="1" stop-color="#2637EF" stop-opacity="0.3"/>
</linearGradient>
<linearGradient id="paint1_linear_3349_21185" x1="321.886" y1="328.711" x2="321.886" y2="369.227" gradientUnits="userSpaceOnUse">
<stop stop-color="#ED26B7"/>
<stop offset="1" stop-color="#ED26B7" stop-opacity="0.3"/>
</linearGradient>
<linearGradient id="paint2_linear_3349_21185" x1="502.855" y1="328.711" x2="502.855" y2="369.227" gradientUnits="userSpaceOnUse">
<stop stop-color="#1B127D"/>
<stop offset="1" stop-color="#1B127D" stop-opacity="0.3"/>
</linearGradient>
</defs>
</svg>
