<svg width="451" height="913" viewBox="0 0 451 913" fill="none" xmlns="http://www.w3.org/2000/svg">
<g clip-path="url(#clip0_1692_5245)">
<path d="M896.767 520.316C896.324 530.673 898.467 598.753 931.441 654.479C992.108 757.004 849.99 817.102 779.908 832.828C709.827 848.554 642.725 794.586 598.171 781.416C553.617 768.247 535.287 702.8 495.546 671.985C483.794 662.753 471.507 654.397 458.771 646.974C441.006 636.15 422.558 626.799 403.581 618.999C387.461 612.44 370.901 608.715 353.231 610.655C344.749 611.432 336.354 613.013 328.139 615.38C311.193 620.162 294.966 627.011 278.734 633.345C265.052 638.665 251.6 643.728 237.68 648.531C226.54 652.594 214.846 654.604 203.058 654.479C193.575 654.122 184.219 651.69 175.527 647.325C163.435 640.975 152.405 632.345 142.937 621.828C128.126 605.996 116.326 588.637 109.622 568.735C106.918 560.77 105.348 552.407 104.968 543.948C104.957 538.509 105.295 533.083 105.979 527.71C106.911 518.481 109.02 509.466 112.245 500.936C118.296 484.025 126.112 467.984 135.536 453.135C146.18 436.455 158.885 421.53 173.29 408.788C189.678 394.204 207.004 380.4 223.625 365.817C237.704 353.28 251.549 340.483 265.393 327.686C272.316 321.288 279.468 314.633 286.388 307.977C299.076 295.946 311.764 283.914 324.685 271.885C330.222 266.766 335.993 261.649 341.766 256.79C351.448 248.367 361.909 241.094 372.982 235.088C381.371 230.563 390.534 227.994 399.91 227.54C407.699 227.348 415.47 228.893 422.761 232.082C432.612 236.586 441.842 242.644 450.161 250.065C465.411 263.064 479.504 276.829 495.909 288.805C508.415 298.141 521.751 306.012 535.695 312.289C550.654 319.097 566.304 325.137 581.492 331.431C600.653 339.558 618.662 348.967 636.677 358.891C646.738 364.634 657.03 370.12 667.553 375.351C681.174 382.099 695.332 387.379 709.827 391.116C720.435 393.639 731.188 395.265 741.991 395.981C754.682 396.719 767.386 396.03 779.908 393.924C796.727 391.087 813.215 386.363 829.118 379.826C848.592 371.71 866.415 361.262 884.476 351.331C893.512 345.712 903.408 341.938 913.697 340.188C918.776 339.559 923.935 340.122 928.841 341.841C933.676 343.58 938.143 346.423 941.952 350.183C952.756 360.573 955.893 372.456 952.991 385.587C951.211 394.342 946.395 402.044 941.347 409.745C934.691 419.755 927.803 429.764 921.383 440.034C913.102 453.049 906.72 467.446 902.465 482.707C900.776 489.39 899.44 496.183 898.467 503.051C897.556 508.751 896.989 514.519 896.767 520.316Z" stroke="#DFE4E8" stroke-width="1.25" stroke-linecap="round" stroke-linejoin="round"/>
<path d="M687.162 -139.716C691.642 -133.496 695.888 -127.536 700.366 -121.574C710.263 -108.612 719.926 -95.6515 730.286 -82.9443C740.052 -71.0222 751.096 -60.4649 763.165 -51.5144C774.885 -42.6656 786.835 -34.0731 798.325 -24.9681C815.908 -11.437 830.719 4.39556 840.671 23.2887C846.078 33.4292 850.029 44.4201 852.381 55.8607C854.229 64.1518 855.168 72.6434 855.179 81.1505C855.208 84.2451 855.932 87.0866 855.729 90.1795C855.576 98.6879 855.19 107.195 854.807 115.959C854.404 122.661 854.004 129.62 853.834 136.324C853.463 146.378 853.324 156.433 853.421 166.748C853.719 173.713 854.716 180.682 855.479 187.649C856.233 193.586 856.754 199.52 857.506 205.198C858.252 210.361 859.232 215.525 859.976 220.429C860.478 224.301 861.445 228.175 861.714 232.045C862.641 240.096 863.106 248.195 863.105 256.294C862.632 280.272 854.459 302.133 836.71 320.576C825.748 331.981 812.873 340.909 798.787 346.872C789.014 351.185 778.678 353.808 768.138 354.652C762.74 355.344 757.301 355.65 751.855 355.57C738.851 355.003 725.964 352.306 713.61 347.569C694.459 340.473 678.062 329.271 661.665 318.069C645.268 306.867 628.631 294.89 609.475 287.278C601.064 283.868 592.19 280.712 583.551 277.815C566.975 272.285 550.403 267.27 534.741 259.941C523.212 254.677 512.222 248.029 501.971 240.116C491.42 231.791 481.093 222.694 470.542 214.369C460.458 206.305 450.607 198.243 438.218 192.484C428.805 187.966 418.699 185.579 408.501 185.463C398.304 185.348 388.224 187.508 378.863 191.813C370.965 195.503 363.376 199.936 356.179 205.064C349.39 209.668 342.906 214.793 336.772 220.401C328.232 228.077 320.394 236.017 312.089 243.953C309.09 246.768 306.324 249.585 303.322 252.143C285.322 268.521 267.557 285.159 249.086 301.018C234.208 314.031 218.534 325.897 202.172 336.534C183.433 348.523 164.458 360.253 145.951 372.244C128.754 383.337 113.909 398.343 102.376 416.293C93.6618 430.157 86.1186 444.803 78.8058 459.192C70.1207 476.15 61.4332 492.851 53.2136 509.813C49.8149 516.639 47.3734 524.011 45.9711 531.681C43.94 543.069 45.6174 554.953 50.7077 565.236C57.5182 579.579 65.7653 593.045 75.2897 605.375C88.491 623.259 101.692 641.143 115.357 658.773C123.838 669.662 132.781 680.297 142.188 690.677C150.504 699.938 160.387 707.286 171.251 712.281C177.663 715.162 184.441 716.864 191.314 717.32C204.716 718.153 218.063 715.6 230.345 709.856C247.036 702.752 263.491 695.388 280.18 688.026C296.634 680.917 313.748 675.763 331.239 672.652C343.854 670.68 356.649 670.25 369.396 671.37C384.518 672.543 399.445 676.121 413.717 681.992C426.963 687.108 439.734 693.676 451.838 701.597C466.249 711.098 479.503 722.634 491.26 735.909C492.198 736.808 553.571 806.532 596.026 817.789C616.275 824.87 666.591 842.942 705.868 858.584C754.964 878.135 843.598 892.038 900.08 884.218C956.562 876.397 968.728 872.487 968.728 872.487" stroke="#DFE4E8" stroke-width="1.25" stroke-linecap="round" stroke-linejoin="round"/>
<path d="M724.638 -139.192C734.767 -122.194 746.544 -106.459 759.756 -92.2753C768.983 -82.654 778.957 -73.9547 789.558 -66.2819C799.869 -58.7322 809.721 -50.67 819.799 -43.1219C832.46 -33.4069 843.918 -21.8797 853.868 -8.84731C864.355 4.67454 872.336 20.3346 877.342 37.2153C879.511 45.2241 881.681 53.2329 883.385 61.2384C884.367 66.6604 884.418 72.0758 884.935 77.4945C885.206 81.6221 885.713 86.0094 885.752 90.1354C885.807 96.0666 885.63 101.996 885.22 107.924C885.045 114.112 884.64 120.555 884 126.74C882.913 138.889 882.639 151.126 883.179 163.35C883.475 170.057 884.469 176.768 885.23 183.478C887.012 199.735 892.048 215.5 896.385 231.26C898.787 239.27 900.957 247.279 902.664 255.542C905.638 268.706 903.934 282.548 897.906 294.188C891.591 305.684 883.857 316.131 874.923 325.23C862.646 338.285 848.721 349.303 833.569 357.949C815.586 368.914 795.827 375.952 775.345 378.688C769.533 379.421 763.722 380.155 757.672 380.37C751.552 380.715 745.413 380.672 739.285 380.243C730.824 379.161 722.417 377.552 714.103 375.426C697.656 371.066 681.779 364.277 666.9 355.242L624.772 330.195C609.893 321.551 594.41 314.284 578.485 308.47C564.003 302.955 549.056 297.436 535.035 291.407C520.223 285.046 506.211 276.537 493.37 266.105C482.345 257.003 471.551 247.645 460.76 238.545C452.737 231.423 444.191 225.066 435.213 219.543C424.638 213.283 412.812 210.177 400.915 210.538C394.783 210.795 388.744 212.146 383.032 214.539C370.666 219.17 359.155 226.157 349.012 235.189C341.392 241.583 333.769 247.718 326.616 254.373C314.847 265.121 303.548 276.389 292.015 287.397C288.785 290.468 285.325 293.797 281.863 296.867C276.325 301.986 270.787 307.104 265.247 311.965C257.171 319.387 249.097 327.067 240.552 334.227C228.082 344.713 215.145 354.937 202.44 365.164C192.737 372.832 182.799 380.241 173.331 388.169C165.477 394.561 157.624 400.953 150.241 407.863C139.846 417.705 130.645 428.992 122.859 441.453C117.586 449.926 112.545 458.4 107.975 467.393C99.2079 483.657 92.3345 501.109 87.515 519.339C84.9488 529.794 84.1053 540.705 85.0244 551.555C86.3303 563.025 89.7625 574.112 95.1048 584.115C102.146 598.043 110.459 611.15 119.91 623.225C127.98 633.495 136.541 643.282 145.554 652.541C153.183 660.334 161.699 666.984 170.875 672.315C179.617 677.383 189.311 680.018 199.109 679.989C211.843 680.029 224.439 677.495 236.277 672.512C248.57 667.956 260.625 662.882 272.682 658.067C287.383 651.876 302.41 646.643 317.688 642.393C327.972 639.549 338.462 637.639 349.054 636.68C358.664 636.018 368.32 636.258 377.921 637.396C396.796 639.848 414.08 646.415 430.909 654.01C448.986 662.114 466.25 672.35 482.398 684.538C496.676 695.25 509.633 708.001 520.924 722.454C543.031 750.041 561.021 782.177 595.626 796.2C608.01 801.561 643.828 816.567 688.034 833.709C743.292 855.135 836.892 859.646 878.618 846.677C911.998 836.302 946.656 816.417 959.813 807.771" stroke="#DFE4E8" stroke-width="1.25" stroke-linecap="round" stroke-linejoin="round"/>
<path d="M703.229 -139.342C712.427 -126.385 721.623 -113.686 731.054 -100.727C742.305 -85.78 755.264 -72.5111 769.594 -61.2643C779.913 -52.941 791.155 -45.3848 801.704 -37.3177C817.878 -25.0857 832.433 -11.8336 843.522 4.23092C857.305 24.4042 865.611 48.4557 867.446 73.5041C867.764 82.5315 868.311 91.3027 868.163 100.327C868.226 107.032 867.588 113.474 867.186 120.175C866.778 126.361 866.136 132.287 866.194 138.477C865.83 149.304 865.698 160.133 865.798 170.707C866.13 176.849 866.81 182.968 867.831 189.029C868.593 195.739 869.587 202.45 870.581 209.161C871.565 214.841 872.784 220.78 873.536 226.458C874.287 232.137 875.504 237.818 876.023 243.495C876.549 249.945 876.845 256.651 876.905 263.098C876.717 275.251 873.788 287.109 868.384 297.592C861.309 312.499 850.258 325.315 837.094 336.312C823.989 347.144 809.153 355.171 793.328 359.989C784.065 362.816 774.582 364.734 764.988 365.722C745.871 367.339 726.594 364.572 708.355 357.593C690.137 350.762 674.451 340.854 658.761 330.688C646.586 322.868 634.409 315.047 622.005 307.741C609.257 300.694 595.956 294.99 582.279 290.703C566.869 285.439 551.464 280.69 536.737 273.884C522.918 267.728 509.792 259.758 497.646 250.146C488.969 243.124 480.522 235.845 471.842 228.564C461.756 220.243 451.901 211.665 440.2 204.879C431.528 199.761 422.031 196.651 412.294 195.741C402.558 194.831 392.79 196.139 383.594 199.586C372.073 204.092 361.235 210.445 351.42 218.444C345.647 223.303 339.403 227.643 333.866 232.762C322.557 242.998 311.72 253.753 300.879 264.25L291.421 273.209C274.111 288.818 257.268 304.431 239.488 319.521C221.209 334.923 202.15 349.167 182.401 362.187C166.212 373.162 150.256 384.139 136.181 397.192C126.529 406.212 117.947 416.547 110.635 427.958C106.048 435.146 101.928 442.596 97.809 450.045C88.6838 466.702 80.4525 483.951 73.1572 501.704C69.4363 510.51 66.5587 519.737 64.5712 529.235C63.3231 536.706 63.2378 544.379 64.3186 551.925C66.8252 571.024 76.7559 587.597 87.6127 603.66C95.6401 615.835 104.128 627.498 113.079 638.906C122.971 651.352 133.096 663.8 144.144 675.48C151.977 684.162 161.205 691.139 171.335 696.04C177.281 698.936 183.578 700.806 190.006 701.585C203.29 703.483 215.83 700.476 227.89 695.918C243.89 689.583 259.652 682.73 275.417 676.135C290.918 669.48 306.903 664.244 323.215 660.48C332.581 658.607 342.053 657.381 351.575 656.81C368.746 655.979 385.973 658.187 402.607 663.353C425.407 670.2 447.121 681.061 466.913 695.517C509.947 726.553 542.771 788.639 596.221 807.146C649.672 825.652 680.719 842.008 724.724 856.677C745.897 863.734 821.67 875.998 886.514 861.901C938.388 850.624 950.229 846.114 967.709 839.347" stroke="#DFE4E8" stroke-width="1.25" stroke-linecap="round" stroke-linejoin="round"/>
<path d="M897.194 740.796C899.032 738.23 901.102 735.666 902.94 733.1C907.765 726.429 912.59 719.758 917.182 713.086C921.206 707.544 923.506 700.694 923.748 693.534C923.528 688.356 922.373 683.262 920.349 678.555C916.778 670.02 912.514 661.997 908.479 653.717C895.137 628.019 885.085 600.434 878.618 571.768C877.399 565.828 876.179 559.889 875.425 553.953C874.422 546.21 873.884 538.471 873.113 530.729C872.448 525.943 872.247 521.101 872.512 516.285C872.903 508.294 874.221 500.052 874.845 492.062C876.002 481.377 878.086 470.856 881.067 460.646C882.636 454.211 885.141 448.297 886.942 441.863C890.102 431.313 893.496 421.022 895.957 410.467C897.521 403.515 897.456 396.553 892.277 390.328C888.84 386.249 884.162 383.731 879.177 383.275C870.786 381.927 863.127 384.195 855.465 386.204C840.375 390.225 825.757 395.023 810.669 399.301C796.684 403.523 782.388 406.442 767.927 408.029C761.184 408.756 754.206 409.223 747.461 409.692C742.575 409.916 737.459 410.396 732.336 410.103C718.615 409.462 704.958 407.381 691.548 403.888C680.815 400.977 670.307 397.294 660.029 393.354C640.175 385.738 621.69 375.295 602.522 366.395C585.223 358.281 567.466 350.937 549.706 343.336C527.74 333.9 506.462 323.438 487.713 309.641C476.355 301.357 465.395 292.415 454.878 282.853C448.773 277.137 442.668 271.422 436.333 265.963C427.939 258.456 418.631 252.311 408.698 247.72C398.112 243.108 386.534 242.305 375.627 245.427C364.579 248.522 354.147 253.776 344.818 260.942C328.631 272.176 314.794 285.746 300.484 298.54C291.945 306.216 283.876 314.412 275.571 322.348C266.576 331.052 257.348 339.756 248.356 348.718C226.677 369.97 203.357 389.921 180.74 410.393C167.443 421.981 155.317 435.122 144.568 449.594C132.693 465.568 123.272 483.617 116.674 503.035C113.882 510.771 112.079 518.915 111.315 527.237C111.119 531.103 110.224 534.965 110.261 538.833C110.478 555.601 115.256 571.99 123.968 585.859C129.024 594.048 134.957 601.537 141.633 608.158C149.425 615.803 158.194 622.123 167.643 626.905C174.973 630.491 182.791 632.64 190.744 633.255C206.118 634.651 220.28 630.881 234.435 626.338C251.451 620.46 268.167 613.605 284.514 605.8C293.786 601.738 303.055 597.419 312.559 593.36C322.751 588.811 333.431 585.681 344.357 584.04C356.873 582.451 369.601 584.311 381.414 589.455C395.901 595.486 408.547 603.826 421.424 611.909C437.813 622.337 454.206 633.024 470.368 643.966C566.155 708.821 547.651 743.912 607.033 770.834" stroke="#DFE4E8" stroke-width="1.25" stroke-linecap="round" stroke-linejoin="round"/>
<path d="M665.759 -138.835C669.526 -134.167 673.526 -129.498 677.297 -124.572C688.84 -109.794 699.917 -95.0186 711.46 -80.2402C727.389 -60.2342 745.728 -42.7479 765.944 -28.2891C780.006 -17.8768 793.835 -7.46624 805.82 4.73658C812.654 11.6745 818.603 19.6128 823.497 28.3249C828.173 36.4973 831.709 45.3911 833.984 54.6997C836.54 64.1076 837.962 73.8293 838.212 83.6096C838.117 98.307 837.559 113.259 837.464 127.957C837.59 141.366 837.949 154.778 838.54 168.19C838.833 174.639 839.359 181.089 840.118 187.541C841.134 196.573 842.847 205.61 844.096 214.644C845.337 222.904 846.346 231.163 846.891 239.676C847.144 246.301 847.051 252.93 846.612 259.529C846.28 266.498 845.01 273.355 842.846 279.874C838.354 294.439 830.349 307.308 819.688 317.103C812.084 324.379 803.404 330.159 794.014 334.201C787.602 336.795 781.006 338.819 774.288 340.253C766.908 342.083 759.298 342.639 751.727 341.901C746.028 341.557 740.347 340.828 734.717 339.72C719.935 336.704 705.749 330.658 692.889 321.894C678.601 312.254 664.774 302.102 650.717 292.205C636.996 282.53 622.211 274.884 606.748 269.465C592.271 264.465 577.336 260.236 562.629 255.492C551.744 252.088 541.116 247.702 530.853 242.378C515.997 234.179 501.876 224.408 488.686 213.204C480.244 206.441 472.498 199.425 463.828 193.176C453.008 184.715 440.865 178.592 428.049 175.135C417.702 172.488 407.016 172.15 396.62 174.143C384.285 176.66 372.503 181.646 361.846 188.857C348.13 198.094 335.22 208.707 323.275 220.563C311.514 232.085 299.517 243.348 287.287 254.609C276.442 264.59 265.126 274.052 253.81 283.514C244.803 290.93 235.33 298.342 225.852 305.238C211.005 316.211 195.374 325.845 179.109 334.051C165.672 340.662 152.232 347.015 139.03 353.886C126.412 359.813 114.653 367.719 104.107 377.366C93.0336 387.862 85.9388 400.705 79.077 413.551C72.4431 425.882 66.9758 438.479 60.5747 450.812C53.0111 465.382 43.8342 478.829 33.2536 490.848C1.29079 520.265 3.08358 556.135 24.5397 581.816C35.1202 593.235 45.9335 604.656 55.823 616.844C70.6584 635.256 84.8005 654.178 99.4056 672.845C107.886 683.735 116.597 694.368 125.541 705.002C133.192 714.159 142.252 721.735 152.284 727.364C159.968 731.694 168.274 734.46 176.798 735.528C189.847 737.166 201.691 734.412 213.29 730.367C228.601 725.058 242.725 717.163 257.323 710.302C275.8 700.898 295.273 694.021 315.317 689.818C322.974 688.235 330.756 687.426 338.568 687.402C344.387 687.442 350.434 686.968 356.258 687.525C364.08 688.275 371.864 689.535 379.568 691.297C396.993 695.677 413.72 703.106 429.115 713.302C488.269 749.957 522.542 808.301 595.838 827.198C614.555 833.315 657.726 847.982 680.666 857.715C709.342 869.88 811.444 908.549 887.478 903.769C948.305 899.946 969.595 896.383 972.636 895.08" stroke="#DFE4E8" stroke-width="1.25" stroke-linecap="round" stroke-linejoin="round"/>
<path d="M870.175 714.821C850.813 765.227 837.766 764.535 810.265 782.005C769.614 807.83 762.727 815.096 691.885 797.385C621.044 779.675 570.463 721.247 565.5 713.218C558.384 701.786 550.502 690.956 541.922 680.822C528.975 665.26 513.488 651.744 497.306 638.738C484.175 628.332 470.118 618.436 457.217 607.774C442.683 595.698 428.732 582.775 415.426 569.062C407.892 561.003 399.545 553.935 390.558 548.002C380.959 541.852 370.054 538.741 359.053 539.016C353.087 539.249 347.169 540.158 341.391 541.729C331.602 544.591 322.184 548.769 313.345 554.169C295.522 564.618 277.701 575.324 259.408 585.254C243.883 593.736 227.063 599.034 209.748 600.895C198.187 602.402 186.421 600.727 175.489 596.016C166.95 592.308 159.198 586.627 152.757 579.355C146.924 573.032 142.332 565.445 139.282 557.085C135.943 548.07 134.73 538.296 135.757 528.695C136.633 522.771 137.273 516.586 138.614 510.665C142.867 492.644 151.554 475.944 162.582 460.549C175.368 442.178 191.632 426.636 208.142 410.858L208.428 410.584C212.116 406.742 216.274 403.419 219.962 399.577C231.027 388.829 241.86 378.08 252.692 367.331L252.709 367.314C259.857 360.143 267.005 352.973 274.385 345.804C285.223 335.049 296.061 324.295 307.367 313.801C315.211 306.377 323.99 299.476 332.537 292.573C342.598 283.953 353.843 277.158 365.863 272.434C371.646 270.311 377.651 268.968 383.747 268.433C390.344 268.099 396.95 269.378 403.099 272.177C413.139 276.64 422.477 282.89 430.736 290.678C440.124 298.995 449.053 308.082 458.443 316.656C465.016 322.633 472.052 328.355 478.855 334.075C500.004 351.864 523.557 365.786 548.599 375.302C560.041 379.507 571.485 383.969 582.93 388.432L582.935 388.434C596.716 393.687 610.5 399.198 624.514 404.453C636.891 408.922 649.504 413.652 662.111 417.865C675.166 422.319 688.506 425.603 702.002 427.683C710.659 429.039 719.369 429.875 728.092 430.186C741.371 430.836 754.66 430.584 767.884 429.431C773.231 428.695 778.584 428.732 783.932 428.253C790.91 427.786 797.881 426.545 804.861 426.336C811.841 426.126 818.827 426.433 825.814 426.997C837.226 427.85 844.726 433.317 848.774 443.144C851.635 450.384 851.936 457.607 852.471 465.088C852.992 471.023 852.12 477.205 852.175 483.137C852.536 496.806 852.9 510.733 853.261 524.402C853.285 526.981 853.777 529.821 854.036 532.659C854.798 539.369 855.789 545.822 856.783 552.533C857.527 557.438 858.041 562.599 859.018 567.505C861.212 578.092 863.641 588.939 865.835 599.527C868.758 613.472 871.915 627.418 874.606 641.362C876.391 650.835 877.724 660.399 878.599 670.012C878.886 676.157 878.474 682.306 877.374 688.312C875.435 697.302 870.175 714.821 870.175 714.821Z" stroke="#DFE4E8" stroke-width="1.25" stroke-linecap="round" stroke-linejoin="round"/>
<path d="M835.917 560.392C836.654 564.523 837.624 568.655 838.361 572.786C853.516 646.601 830.066 767.029 747.229 791.19C706.347 803.114 624.121 773.367 589.965 715.204C583.346 704.327 576.494 693.45 569.413 682.828C557.836 665.917 544.398 650.661 529.421 637.424C521.909 630.667 513.703 624.164 506.192 617.407C494.925 607.272 483.658 597.137 472.855 586.748C459.469 574.019 449.555 559.252 439.872 544.229C433.438 533.468 426.095 523.401 417.945 514.165C409.913 505.803 400.187 499.715 389.617 496.433C377.953 493.005 365.801 492.393 353.99 494.638C340.189 497.073 326.822 501.759 314.322 508.545C302.975 514.654 292.333 521.543 281.692 528.431C268.041 537.103 254.861 546.295 239.092 552.374C228.815 556.729 217.867 558.926 206.801 558.854C201.32 558.647 195.888 557.478 190.71 555.39C175.287 548.836 169.357 536.933 167.83 522.998C167.395 513.251 168.975 503.559 172.452 494.665C177.419 482.222 184.058 470.707 192.147 460.507C202.445 447.484 213.36 435.08 224.848 423.344C237.061 410.278 249.276 397.47 261.721 384.405C275.321 370.318 288.916 355.714 302.984 341.887C314.53 330.274 327.238 320.156 340.87 311.723C349.895 306.113 359.389 301.022 371.013 299.555C380.018 298.203 389.228 299.697 397.586 303.866C407.257 308.788 416.134 315.476 423.839 323.646C432.303 332.73 440.997 341.558 449.46 350.642C461.452 363.618 472.983 377.107 487.518 388.296C497.978 396.484 509.503 402.828 521.675 407.1C534.282 411.313 547.113 414.497 560.179 417.94C576.043 421.918 592.134 425.382 608 429.618C624.332 433.858 640.438 438.869 656.54 443.365C674.866 448.493 693.495 452.071 712.265 454.067C721.12 455.16 730.202 455.739 739.049 456.058C747.896 456.377 756.976 456.698 765.821 456.76C773.396 456.806 780.962 457.635 788.42 459.238C798.157 460.803 807.125 466.171 813.698 474.369C819.592 482.404 822.235 491.19 824.414 500.23C826.109 507.204 827.105 514.173 828.57 521.404C830.034 528.634 831.496 535.606 832.725 542.577C833.944 548.516 834.931 554.454 835.917 560.392Z" stroke="#DFE4E8" stroke-width="1.25" stroke-linecap="round" stroke-linejoin="round"/>
<path d="M255.237 462.219C258.801 469.98 264.159 470.533 271.595 469.295C284.841 467.067 297.366 462.512 310.131 458.733C322.896 454.954 335.201 451.687 347.969 448.166C363.292 444.147 378.62 440.643 393.939 436.108C403.688 433.34 412.019 428.24 416.359 419.503C419.029 414.202 419.8 407.955 418.522 401.984C417.83 397.672 416.777 393.435 415.378 389.327C411.446 377.499 405.135 366.782 396.93 357.997C392.137 352.77 386.485 348.614 380.291 345.762C370.709 341.579 360.163 341.232 350.49 344.781C340.877 348.28 331.882 353.533 323.871 360.326C304.239 376.434 289.291 395.67 275.75 415.947C268.458 426.346 262.387 437.739 257.681 449.859C256.148 453.559 255.39 457.608 255.464 461.705" stroke="#DFE4E8" stroke-width="1.25" stroke-linecap="round" stroke-linejoin="round"/>
</g>
<defs>
<clipPath id="clip0_1692_5245">
<rect width="974" height="913" fill="white"/>
</clipPath>
</defs>
</svg>
