<svg width="234" height="914" viewBox="0 0 234 914" fill="none" xmlns="http://www.w3.org/2000/svg">
<g clip-path="url(#clip0_1678_4666)">
<path d="M896.767 520.795C896.324 531.152 898.467 599.232 931.441 654.958C992.108 757.483 849.99 817.581 779.908 833.307C709.827 849.033 642.725 795.065 598.171 781.895C553.617 768.726 535.287 703.279 495.546 672.464C483.794 663.232 471.507 654.876 458.771 647.453C441.006 636.629 422.558 627.278 403.581 619.478C387.461 612.919 370.901 609.194 353.231 611.134C344.749 611.911 336.354 613.492 328.139 615.859C311.193 620.641 294.966 627.49 278.734 633.824C265.052 639.144 251.6 644.207 237.68 649.01C226.54 653.073 214.846 655.083 203.058 654.958C193.575 654.601 184.219 652.169 175.527 647.804C163.435 641.454 152.405 632.824 142.937 622.307C128.126 606.475 116.326 589.116 109.622 569.214C106.918 561.249 105.348 552.886 104.968 544.427C104.957 538.988 105.295 533.562 105.979 528.189C106.911 518.96 109.02 509.945 112.245 501.415C118.296 484.504 126.112 468.463 135.536 453.614C146.18 436.934 158.885 422.009 173.29 409.267C189.678 394.683 207.004 380.879 223.625 366.296C237.704 353.759 251.549 340.962 265.393 328.165C272.316 321.767 279.468 315.112 286.388 308.456C299.076 296.425 311.764 284.393 324.685 272.364C330.222 267.245 335.993 262.128 341.766 257.269C351.448 248.846 361.909 241.573 372.982 235.567C381.371 231.042 390.534 228.473 399.91 228.019C407.699 227.827 415.47 229.372 422.761 232.561C432.612 237.065 441.842 243.123 450.161 250.544C465.411 263.543 479.504 277.308 495.909 289.284C508.415 298.62 521.751 306.491 535.695 312.768C550.654 319.576 566.304 325.616 581.492 331.91C600.653 340.037 618.662 349.446 636.677 359.37C646.738 365.113 657.03 370.599 667.553 375.83C681.174 382.578 695.332 387.858 709.827 391.595C720.435 394.118 731.188 395.744 741.991 396.46C754.682 397.198 767.386 396.509 779.908 394.403C796.727 391.566 813.215 386.842 829.118 380.305C848.592 372.189 866.415 361.741 884.476 351.81C893.512 346.191 903.408 342.417 913.697 340.667C918.776 340.038 923.935 340.601 928.841 342.32C933.676 344.059 938.143 346.902 941.952 350.662C952.756 361.052 955.893 372.935 952.991 386.066C951.211 394.821 946.395 402.523 941.347 410.224C934.691 420.234 927.803 430.243 921.383 440.513C913.102 453.528 906.72 467.925 902.465 483.186C900.776 489.869 899.44 496.662 898.467 503.53C897.556 509.23 896.989 514.998 896.767 520.795Z" stroke="#DFE4E8" stroke-width="1.25" stroke-linecap="round" stroke-linejoin="round"/>
<path d="M687.162 -139.237C691.642 -133.017 695.888 -127.057 700.366 -121.095C710.263 -108.133 719.926 -95.1725 730.286 -82.4653C740.052 -70.5432 751.096 -59.9859 763.165 -51.0354C774.885 -42.1866 786.835 -33.5941 798.325 -24.4891C815.908 -10.958 830.719 4.87457 840.671 23.7677C846.078 33.9082 850.029 44.8991 852.381 56.3397C854.229 64.6308 855.168 73.1224 855.179 81.6295C855.208 84.7241 855.932 87.5656 855.729 90.6585C855.576 99.1669 855.19 107.674 854.807 116.438C854.404 123.14 854.004 130.099 853.834 136.803C853.463 146.857 853.324 156.912 853.421 167.227C853.719 174.192 854.716 181.161 855.479 188.128C856.233 194.065 856.754 199.999 857.506 205.677C858.252 210.84 859.232 216.004 859.976 220.908C860.478 224.78 861.445 228.654 861.714 232.524C862.641 240.575 863.106 248.674 863.105 256.773C862.632 280.751 854.459 302.612 836.71 321.055C825.748 332.46 812.873 341.388 798.787 347.351C789.014 351.664 778.678 354.287 768.138 355.131C762.74 355.823 757.301 356.129 751.855 356.049C738.851 355.482 725.964 352.785 713.61 348.048C694.459 340.952 678.062 329.75 661.665 318.548C645.268 307.346 628.631 295.369 609.475 287.757C601.064 284.347 592.19 281.191 583.551 278.294C566.975 272.764 550.403 267.749 534.741 260.42C523.212 255.156 512.222 248.508 501.971 240.595C491.42 232.27 481.093 223.173 470.542 214.848C460.458 206.784 450.607 198.722 438.218 192.963C428.805 188.445 418.699 186.058 408.501 185.942C398.304 185.827 388.224 187.987 378.863 192.292C370.965 195.982 363.376 200.415 356.179 205.543C349.39 210.147 342.906 215.272 336.772 220.88C328.232 228.556 320.394 236.496 312.089 244.432C309.09 247.247 306.324 250.064 303.322 252.622C285.322 269 267.557 285.638 249.086 301.497C234.208 314.51 218.534 326.376 202.172 337.013C183.433 349.002 164.458 360.732 145.951 372.723C128.754 383.816 113.909 398.822 102.376 416.772C93.6618 430.636 86.1186 445.282 78.8058 459.671C70.1207 476.629 61.4332 493.33 53.2136 510.292C49.8149 517.118 47.3734 524.49 45.9711 532.16C43.94 543.548 45.6174 555.432 50.7077 565.715C57.5182 580.058 65.7653 593.524 75.2897 605.854C88.491 623.738 101.692 641.622 115.357 659.252C123.838 670.141 132.781 680.776 142.188 691.156C150.504 700.417 160.387 707.765 171.251 712.76C177.663 715.641 184.441 717.343 191.314 717.799C204.716 718.632 218.063 716.079 230.345 710.335C247.036 703.231 263.491 695.867 280.18 688.505C296.634 681.396 313.748 676.242 331.239 673.131C343.854 671.159 356.649 670.729 369.396 671.849C384.518 673.022 399.445 676.6 413.717 682.471C426.963 687.587 439.734 694.155 451.838 702.076C466.249 711.577 479.503 723.113 491.26 736.388C492.198 737.287 553.571 807.011 596.026 818.268C616.275 825.349 666.591 843.421 705.868 859.063C754.964 878.614 843.598 892.517 900.08 884.697C956.562 876.876 968.728 872.966 968.728 872.966" stroke="#DFE4E8" stroke-width="1.25" stroke-linecap="round" stroke-linejoin="round"/>
<path d="M724.638 -138.713C734.767 -121.715 746.544 -105.98 759.756 -91.7963C768.983 -82.175 778.957 -73.4757 789.558 -65.8029C799.869 -58.2532 809.721 -50.191 819.799 -42.6429C832.46 -32.9279 843.918 -21.4007 853.868 -8.3683C864.355 5.15354 872.336 20.8136 877.342 37.6943C879.511 45.7031 881.681 53.7119 883.385 61.7175C884.367 67.1394 884.418 72.5548 884.935 77.9735C885.206 82.1011 885.713 86.4884 885.752 90.6144C885.807 96.5456 885.63 102.475 885.22 108.403C885.045 114.591 884.64 121.034 884 127.219C882.913 139.368 882.639 151.605 883.179 163.829C883.475 170.536 884.469 177.247 885.23 183.957C887.012 200.214 892.048 215.979 896.385 231.739C898.787 239.749 900.957 247.758 902.664 256.021C905.638 269.185 903.934 283.027 897.906 294.667C891.591 306.163 883.857 316.61 874.923 325.709C862.646 338.764 848.721 349.782 833.569 358.428C815.586 369.393 795.827 376.431 775.345 379.167C769.533 379.9 763.722 380.634 757.672 380.849C751.552 381.194 745.413 381.151 739.285 380.722C730.824 379.64 722.417 378.031 714.103 375.905C697.656 371.545 681.779 364.756 666.9 355.721L624.772 330.674C609.893 322.03 594.41 314.763 578.485 308.949C564.003 303.434 549.056 297.915 535.035 291.886C520.223 285.525 506.211 277.016 493.37 266.584C482.345 257.482 471.551 248.124 460.76 239.024C452.737 231.902 444.191 225.545 435.213 220.022C424.638 213.762 412.812 210.656 400.915 211.017C394.783 211.274 388.744 212.625 383.032 215.018C370.666 219.649 359.155 226.636 349.012 235.668C341.392 242.062 333.769 248.197 326.616 254.852C314.847 265.6 303.548 276.868 292.015 287.876C288.785 290.947 285.325 294.276 281.863 297.346C276.325 302.465 270.787 307.583 265.247 312.444C257.171 319.866 249.097 327.546 240.552 334.706C228.082 345.192 215.145 355.417 202.44 365.643C192.737 373.311 182.799 380.72 173.331 388.648C165.477 395.04 157.624 401.432 150.241 408.342C139.846 418.184 130.645 429.471 122.859 441.932C117.586 450.405 112.545 458.879 107.975 467.872C99.2079 484.136 92.3345 501.588 87.515 519.818C84.9488 530.273 84.1053 541.184 85.0244 552.034C86.3303 563.504 89.7625 574.591 95.1048 584.594C102.146 598.522 110.459 611.629 119.91 623.704C127.98 633.974 136.541 643.761 145.554 653.02C153.183 660.813 161.699 667.463 170.875 672.794C179.617 677.862 189.311 680.497 199.109 680.468C211.843 680.508 224.439 677.974 236.277 672.991C248.57 668.435 260.625 663.361 272.682 658.546C287.383 652.355 302.41 647.122 317.688 642.872C327.972 640.028 338.462 638.118 349.054 637.159C358.664 636.497 368.32 636.737 377.921 637.875C396.796 640.327 414.08 646.894 430.909 654.489C448.986 662.593 466.25 672.829 482.398 685.017C496.676 695.729 509.633 708.48 520.924 722.933C543.031 750.52 561.021 782.656 595.626 796.679C608.01 802.04 643.828 817.046 688.034 834.188C743.292 855.614 836.892 860.125 878.618 847.156C911.998 836.781 946.656 816.896 959.813 808.25" stroke="#DFE4E8" stroke-width="1.25" stroke-linecap="round" stroke-linejoin="round"/>
<path d="M703.229 -138.863C712.427 -125.906 721.623 -113.207 731.054 -100.248C742.305 -85.301 755.264 -72.0321 769.594 -60.7853C779.913 -52.462 791.155 -44.9058 801.704 -36.8387C817.878 -24.6067 832.433 -11.3546 843.522 4.70993C857.305 24.8832 865.611 48.9347 867.446 73.9831C867.764 83.0105 868.311 91.7817 868.163 100.806C868.226 107.511 867.588 113.953 867.186 120.654C866.778 126.84 866.136 132.767 866.194 138.956C865.83 149.783 865.698 160.612 865.798 171.186C866.13 177.328 866.81 183.447 867.831 189.508C868.593 196.218 869.587 202.929 870.581 209.64C871.565 215.32 872.784 221.259 873.536 226.937C874.287 232.616 875.504 238.297 876.023 243.974C876.549 250.424 876.845 257.13 876.905 263.577C876.717 275.73 873.788 287.588 868.384 298.071C861.309 312.978 850.258 325.794 837.094 336.791C823.989 347.623 809.153 355.65 793.328 360.468C784.065 363.295 774.582 365.213 764.988 366.201C745.871 367.818 726.594 365.051 708.355 358.072C690.137 351.241 674.451 341.333 658.761 331.167C646.586 323.347 634.409 315.526 622.005 308.22C609.257 301.173 595.956 295.469 582.279 291.182C566.869 285.918 551.464 281.169 536.737 274.363C522.918 268.207 509.792 260.237 497.646 250.625C488.969 243.603 480.522 236.324 471.842 229.043C461.756 220.722 451.901 212.144 440.2 205.358C431.528 200.24 422.031 197.13 412.294 196.22C402.558 195.31 392.79 196.618 383.594 200.065C372.073 204.571 361.235 210.924 351.42 218.923C345.647 223.782 339.403 228.122 333.866 233.241C322.557 243.477 311.72 254.232 300.879 264.729L291.421 273.688C274.111 289.297 257.268 304.91 239.488 320C221.209 335.402 202.15 349.646 182.401 362.666C166.212 373.641 150.256 384.618 136.181 397.671C126.529 406.691 117.947 417.026 110.635 428.437C106.048 435.625 101.928 443.075 97.809 450.524C88.6838 467.181 80.4525 484.43 73.1572 502.183C69.4363 510.989 66.5587 520.216 64.5712 529.714C63.3231 537.185 63.2378 544.859 64.3186 552.404C66.8252 571.503 76.7559 588.076 87.6127 604.139C95.6401 616.314 104.128 627.977 113.079 639.385C122.971 651.831 133.096 664.279 144.144 675.959C151.977 684.641 161.205 691.618 171.335 696.519C177.281 699.415 183.578 701.285 190.006 702.064C203.29 703.962 215.83 700.955 227.89 696.397C243.89 690.062 259.652 683.209 275.417 676.614C290.918 669.959 306.903 664.724 323.215 660.959C332.581 659.086 342.053 657.86 351.575 657.289C368.746 656.458 385.973 658.666 402.607 663.832C425.407 670.679 447.121 681.54 466.913 695.996C509.947 727.032 542.771 789.118 596.221 807.625C649.672 826.131 680.719 842.487 724.724 857.156C745.897 864.213 821.67 876.477 886.514 862.381C938.388 851.103 950.229 846.593 967.709 839.826" stroke="#DFE4E8" stroke-width="1.25" stroke-linecap="round" stroke-linejoin="round"/>
<path d="M897.194 741.275C899.032 738.709 901.102 736.145 902.94 733.579C907.765 726.908 912.59 720.237 917.182 713.565C921.206 708.023 923.506 701.173 923.748 694.013C923.528 688.835 922.373 683.741 920.349 679.034C916.778 670.499 912.514 662.476 908.479 654.196C895.137 628.498 885.085 600.913 878.618 572.247C877.399 566.307 876.179 560.368 875.425 554.432C874.422 546.689 873.884 538.95 873.113 531.208C872.448 526.422 872.247 521.58 872.512 516.764C872.903 508.773 874.221 500.531 874.845 492.541C876.002 481.856 878.086 471.335 881.067 461.125C882.636 454.69 885.141 448.776 886.942 442.342C890.102 431.792 893.496 421.501 895.957 410.946C897.521 403.994 897.456 397.032 892.277 390.807C888.84 386.728 884.162 384.21 879.177 383.754C870.786 382.406 863.127 384.674 855.465 386.683C840.375 390.704 825.757 395.502 810.669 399.78C796.684 404.002 782.388 406.921 767.927 408.508C761.184 409.235 754.206 409.702 747.461 410.171C742.575 410.395 737.459 410.875 732.336 410.582C718.615 409.941 704.958 407.86 691.548 404.367C680.815 401.456 670.307 397.773 660.029 393.833C640.175 386.217 621.69 375.774 602.522 366.874C585.223 358.76 567.466 351.416 549.706 343.815C527.74 334.379 506.462 323.917 487.713 310.12C476.355 301.836 465.395 292.894 454.878 283.332C448.773 277.616 442.668 271.901 436.333 266.442C427.939 258.935 418.631 252.79 408.698 248.199C398.112 243.587 386.534 242.784 375.627 245.906C364.579 249.001 354.147 254.255 344.818 261.421C328.631 272.655 314.794 286.225 300.484 299.019C291.945 306.695 283.876 314.891 275.571 322.827C266.576 331.531 257.348 340.235 248.356 349.197C226.677 370.449 203.357 390.4 180.74 410.872C167.443 422.46 155.317 435.601 144.568 450.073C132.693 466.047 123.272 484.096 116.674 503.514C113.882 511.25 112.079 519.394 111.315 527.716C111.119 531.582 110.224 535.444 110.261 539.312C110.478 556.08 115.256 572.469 123.968 586.338C129.024 594.527 134.957 602.016 141.633 608.637C149.425 616.282 158.194 622.602 167.643 627.384C174.973 630.97 182.791 633.119 190.744 633.734C206.118 635.13 220.28 631.36 234.435 626.817C251.451 620.939 268.167 614.084 284.514 606.279C293.786 602.217 303.055 597.898 312.559 593.839C322.751 589.29 333.431 586.16 344.357 584.519C356.873 582.93 369.601 584.79 381.414 589.934C395.901 595.965 408.547 604.305 421.424 612.388C437.813 622.816 454.206 633.503 470.368 644.445C566.155 709.3 547.651 744.391 607.033 771.313" stroke="#DFE4E8" stroke-width="1.25" stroke-linecap="round" stroke-linejoin="round"/>
<path d="M665.759 -138.356C669.526 -133.688 673.526 -129.019 677.297 -124.093C688.84 -109.315 699.917 -94.5396 711.46 -79.7612C727.389 -59.7552 745.728 -42.2689 765.944 -27.8101C780.006 -17.3978 793.835 -6.98723 805.82 5.21559C812.654 12.1535 818.603 20.0919 823.497 28.8039C828.173 36.9763 831.709 45.8701 833.984 55.1787C836.54 64.5866 837.962 74.3083 838.212 84.0886C838.117 98.786 837.559 113.738 837.464 128.436C837.59 141.845 837.949 155.257 838.54 168.669C838.833 175.118 839.359 181.568 840.118 188.02C841.134 197.052 842.847 206.089 844.096 215.123C845.337 223.383 846.346 231.642 846.891 240.155C847.144 246.78 847.051 253.409 846.612 260.008C846.28 266.977 845.01 273.834 842.846 280.353C838.354 294.918 830.349 307.787 819.688 317.582C812.084 324.858 803.404 330.638 794.014 334.68C787.602 337.274 781.006 339.298 774.288 340.732C766.908 342.562 759.298 343.118 751.727 342.38C746.028 342.036 740.347 341.307 734.717 340.199C719.935 337.183 705.749 331.137 692.889 322.373C678.601 312.733 664.774 302.581 650.717 292.684C636.996 283.009 622.211 275.363 606.748 269.944C592.271 264.944 577.336 260.715 562.629 255.971C551.744 252.567 541.116 248.181 530.853 242.857C515.997 234.658 501.876 224.887 488.686 213.683C480.244 206.92 472.498 199.904 463.828 193.655C453.008 185.194 440.865 179.071 428.049 175.614C417.702 172.967 407.016 172.629 396.62 174.622C384.285 177.139 372.503 182.125 361.846 189.336C348.13 198.573 335.22 209.186 323.275 221.042C311.514 232.564 299.517 243.827 287.287 255.088C276.442 265.069 265.126 274.531 253.81 283.993C244.803 291.409 235.33 298.821 225.852 305.717C211.005 316.69 195.374 326.324 179.109 334.53C165.672 341.141 152.232 347.494 139.03 354.365C126.412 360.292 114.653 368.198 104.107 377.845C93.0336 388.341 85.9388 401.184 79.077 414.03C72.4431 426.361 66.9758 438.958 60.5747 451.291C53.0111 465.861 43.8342 479.308 33.2536 491.327C1.29079 520.744 3.08358 556.614 24.5397 582.295C35.1202 593.714 45.9335 605.135 55.823 617.323C70.6584 635.735 84.8005 654.657 99.4056 673.324C107.886 684.214 116.597 694.847 125.541 705.481C133.192 714.638 142.252 722.214 152.284 727.843C159.968 732.173 168.274 734.939 176.798 736.007C189.847 737.645 201.691 734.891 213.29 730.846C228.601 725.537 242.725 717.642 257.323 710.781C275.8 701.377 295.273 694.5 315.317 690.297C322.974 688.714 330.756 687.905 338.568 687.881C344.387 687.921 350.434 687.447 356.258 688.004C364.08 688.754 371.864 690.014 379.568 691.776C396.993 696.156 413.72 703.585 429.115 713.781C488.269 750.436 522.542 808.78 595.838 827.677C614.555 833.794 657.726 848.461 680.666 858.194C709.342 870.359 811.444 909.028 887.478 904.248C948.305 900.425 969.595 896.862 972.636 895.559" stroke="#DFE4E8" stroke-width="1.25" stroke-linecap="round" stroke-linejoin="round"/>
<path d="M870.175 715.3C850.813 765.706 837.766 765.014 810.265 782.484C769.614 808.309 762.727 815.575 691.885 797.864C621.044 780.154 570.463 721.726 565.5 713.697C558.384 702.265 550.502 691.435 541.922 681.301C528.975 665.739 513.488 652.223 497.306 639.217C484.175 628.811 470.118 618.915 457.217 608.253C442.683 596.177 428.732 583.254 415.426 569.541C407.892 561.482 399.545 554.414 390.558 548.481C380.959 542.331 370.054 539.22 359.053 539.495C353.087 539.728 347.169 540.637 341.391 542.208C331.602 545.07 322.184 549.248 313.345 554.648C295.522 565.097 277.701 575.803 259.408 585.733C243.883 594.215 227.063 599.513 209.748 601.374C198.187 602.881 186.421 601.206 175.489 596.495C166.95 592.787 159.198 587.106 152.757 579.834C146.924 573.511 142.332 565.924 139.282 557.564C135.943 548.549 134.73 538.775 135.757 529.174C136.633 523.25 137.273 517.065 138.614 511.144C142.867 493.123 151.554 476.423 162.582 461.028C175.368 442.657 191.632 427.115 208.142 411.337L208.428 411.063C212.116 407.221 216.274 403.898 219.962 400.056C231.027 389.308 241.86 378.559 252.692 367.81L252.709 367.793C259.857 360.622 267.005 353.452 274.385 346.283C285.223 335.528 296.061 324.774 307.367 314.28C315.211 306.856 323.99 299.955 332.537 293.052C342.598 284.432 353.843 277.637 365.863 272.913C371.646 270.79 377.651 269.447 383.747 268.912C390.344 268.578 396.95 269.857 403.099 272.656C413.139 277.119 422.477 283.369 430.736 291.157C440.124 299.474 449.053 308.561 458.443 317.135C465.016 323.112 472.052 328.834 478.855 334.554C500.004 352.343 523.557 366.265 548.599 375.781C560.041 379.986 571.485 384.448 582.93 388.911L582.935 388.913C596.716 394.166 610.5 399.677 624.514 404.932C636.891 409.401 649.504 414.131 662.111 418.344C675.166 422.798 688.506 426.082 702.002 428.162C710.659 429.518 719.369 430.354 728.092 430.665C741.371 431.315 754.66 431.063 767.884 429.91C773.231 429.174 778.584 429.211 783.932 428.732C790.91 428.265 797.881 427.024 804.861 426.815C811.841 426.605 818.827 426.912 825.814 427.476C837.226 428.329 844.726 433.796 848.774 443.623C851.635 450.863 851.936 458.086 852.471 465.567C852.992 471.502 852.12 477.684 852.175 483.616C852.536 497.285 852.9 511.212 853.261 524.881C853.285 527.46 853.777 530.3 854.036 533.138C854.798 539.848 855.789 546.301 856.783 553.012C857.527 557.917 858.041 563.078 859.018 567.984C861.212 578.571 863.641 589.418 865.835 600.006C868.758 613.951 871.915 627.897 874.606 641.841C876.391 651.314 877.724 660.878 878.599 670.491C878.886 676.636 878.474 682.785 877.374 688.791C875.435 697.781 870.175 715.3 870.175 715.3Z" stroke="#DFE4E8" stroke-width="1.25" stroke-linecap="round" stroke-linejoin="round"/>
<path d="M835.917 560.871C836.654 565.002 837.624 569.134 838.361 573.265C853.516 647.08 830.066 767.508 747.229 791.669C706.347 803.593 624.121 773.846 589.965 715.683C583.346 704.806 576.494 693.929 569.413 683.307C557.836 666.396 544.398 651.14 529.421 637.903C521.909 631.146 513.703 624.643 506.192 617.886C494.925 607.751 483.658 597.616 472.855 587.227C459.469 574.498 449.555 559.731 439.872 544.708C433.438 533.947 426.095 523.88 417.945 514.644C409.913 506.282 400.187 500.194 389.617 496.912C377.953 493.484 365.801 492.872 353.99 495.117C340.189 497.552 326.822 502.238 314.322 509.024C302.975 515.133 292.333 522.022 281.692 528.91C268.041 537.582 254.861 546.774 239.092 552.853C228.815 557.208 217.867 559.405 206.801 559.333C201.32 559.126 195.888 557.957 190.71 555.869C175.287 549.315 169.357 537.412 167.83 523.477C167.395 513.73 168.975 504.038 172.452 495.144C177.419 482.701 184.058 471.186 192.147 460.986C202.445 447.963 213.36 435.559 224.848 423.823C237.061 410.757 249.276 397.949 261.721 384.884C275.321 370.797 288.916 356.193 302.984 342.366C314.53 330.753 327.238 320.635 340.87 312.202C349.895 306.592 359.389 301.501 371.013 300.034C380.018 298.682 389.228 300.176 397.586 304.345C407.257 309.267 416.134 315.955 423.839 324.125C432.303 333.209 440.997 342.037 449.46 351.121C461.452 364.097 472.983 377.586 487.518 388.775C497.978 396.963 509.503 403.307 521.675 407.579C534.282 411.792 547.113 414.976 560.179 418.419C576.043 422.397 592.134 425.861 608 430.097C624.332 434.337 640.438 439.348 656.54 443.844C674.866 448.972 693.495 452.55 712.265 454.546C721.12 455.639 730.202 456.218 739.049 456.537C747.896 456.856 756.976 457.177 765.821 457.239C773.396 457.285 780.962 458.114 788.42 459.717C798.157 461.282 807.125 466.65 813.698 474.848C819.592 482.883 822.235 491.669 824.414 500.709C826.109 507.683 827.105 514.652 828.57 521.883C830.034 529.113 831.496 536.085 832.725 543.056C833.944 548.995 834.931 554.933 835.917 560.871Z" stroke="#DFE4E8" stroke-width="1.25" stroke-linecap="round" stroke-linejoin="round"/>
</g>
<defs>
<clipPath id="clip0_1678_4666">
<rect width="974" height="913" fill="white" transform="translate(0 0.479004)"/>
</clipPath>
</defs>
</svg>
