<svg width="569" height="914" viewBox="0 0 569 914" fill="none" xmlns="http://www.w3.org/2000/svg">
<g clip-path="url(#clip0_1678_4485)">
<path d="M896.767 520.83C896.324 531.187 898.467 599.268 931.441 654.994C992.108 757.519 849.99 817.617 779.908 833.343C709.827 849.069 642.725 795.101 598.171 781.931C553.617 768.762 535.287 703.314 495.546 672.499C483.794 663.268 471.507 654.912 458.771 647.489C441.006 636.665 422.558 627.314 403.581 619.514C387.461 612.955 370.901 609.23 353.231 611.17C344.749 611.947 336.354 613.528 328.139 615.895C311.193 620.677 294.966 627.526 278.734 633.86C265.052 639.18 251.6 644.243 237.68 649.046C226.54 653.109 214.846 655.118 203.058 654.994C193.575 654.637 184.219 652.205 175.527 647.84C163.435 641.489 152.405 632.86 142.937 622.343C128.126 606.511 116.326 589.152 109.622 569.25C106.918 561.285 105.348 552.922 104.968 544.463C104.957 539.024 105.295 533.597 105.979 528.224C106.911 518.996 109.02 509.981 112.245 501.45C118.296 484.54 126.112 468.499 135.536 453.65C146.18 436.97 158.885 422.045 173.29 409.303C189.678 394.719 207.004 380.914 223.625 366.332C237.704 353.795 251.549 340.998 265.393 328.201C272.316 321.803 279.468 315.148 286.388 308.492C299.076 296.46 311.764 284.429 324.685 272.4C330.222 267.281 335.993 262.164 341.766 257.304C351.448 248.882 361.909 241.609 372.982 235.603C381.371 231.078 390.534 228.509 399.91 228.055C407.699 227.863 415.47 229.408 422.761 232.597C432.612 237.101 441.842 243.158 450.161 250.58C465.411 263.579 479.504 277.344 495.909 289.32C508.415 298.656 521.751 306.527 535.695 312.804C550.654 319.612 566.304 325.652 581.492 331.946C600.653 340.073 618.662 349.482 636.677 359.406C646.738 365.148 657.03 370.635 667.553 375.865C681.174 382.614 695.332 387.894 709.827 391.631C720.435 394.154 731.188 395.78 741.991 396.496C754.682 397.234 767.386 396.545 779.908 394.439C796.727 391.602 813.215 386.878 829.118 380.341C848.592 372.225 866.415 361.777 884.476 351.846C893.512 346.226 903.408 342.453 913.697 340.703C918.776 340.074 923.935 340.637 928.841 342.355C933.676 344.095 938.143 346.938 941.952 350.698C952.756 361.088 955.893 372.971 952.991 386.102C951.211 394.857 946.395 402.559 941.347 410.26C934.691 420.27 927.803 430.279 921.383 440.549C913.102 453.564 906.72 467.961 902.465 483.222C900.776 489.905 899.44 496.698 898.467 503.565C897.556 509.266 896.989 515.034 896.767 520.83Z" stroke="#DFE4E8" stroke-width="1.25" stroke-linecap="round" stroke-linejoin="round"/>
<path d="M687.162 -139.201C691.642 -132.981 695.888 -127.021 700.366 -121.059C710.263 -108.097 719.926 -95.1366 730.286 -82.4294C740.052 -70.5073 751.096 -59.95 763.165 -50.9995C774.885 -42.1507 786.835 -33.5582 798.325 -24.4532C815.908 -10.9221 830.719 4.91046 840.671 23.8036C846.078 33.9441 850.029 44.935 852.381 56.3756C854.229 64.6667 855.168 73.1583 855.179 81.6654C855.208 84.76 855.932 87.6015 855.729 90.6944C855.576 99.2028 855.19 107.71 854.807 116.474C854.404 123.176 854.004 130.135 853.834 136.839C853.463 146.893 853.324 156.948 853.421 167.263C853.719 174.228 854.716 181.197 855.479 188.164C856.233 194.1 856.754 200.035 857.506 205.713C858.252 210.875 859.232 216.039 859.976 220.944C860.478 224.815 861.445 228.69 861.714 232.56C862.641 240.61 863.106 248.71 863.105 256.809C862.632 280.786 854.459 302.648 836.71 321.09C825.748 332.496 812.873 341.424 798.787 347.386C789.014 351.7 778.678 354.323 768.138 355.167C762.74 355.858 757.301 356.165 751.855 356.085C738.851 355.518 725.964 352.821 713.61 348.083C694.459 340.988 678.062 329.786 661.665 318.584C645.268 307.382 628.631 295.404 609.475 287.793C601.064 284.383 592.19 281.227 583.551 278.33C566.975 272.8 550.403 267.785 534.741 260.456C523.212 255.192 512.222 248.543 501.971 240.631C491.42 232.306 481.093 223.209 470.542 214.884C460.458 206.82 450.607 198.758 438.218 192.999C428.805 188.481 418.699 186.093 408.501 185.978C398.304 185.863 388.224 188.023 378.863 192.328C370.965 196.018 363.376 200.451 356.179 205.579C349.39 210.183 342.906 215.307 336.772 220.916C328.232 228.592 320.394 236.532 312.089 244.467C309.09 247.283 306.324 250.1 303.322 252.658C285.322 269.036 267.557 285.674 249.086 301.533C234.208 314.546 218.534 326.412 202.172 337.049C183.433 349.038 164.458 360.768 145.951 372.759C128.754 383.852 113.909 398.858 102.376 416.808C93.6618 430.672 86.1186 445.317 78.8058 459.707C70.1207 476.665 61.4332 493.366 53.2136 510.328C49.8149 517.154 47.3734 524.526 45.9711 532.195C43.94 543.584 45.6174 555.468 50.7077 565.75C57.5182 580.093 65.7653 593.56 75.2897 605.89C88.491 623.774 101.692 641.658 115.357 659.288C123.838 670.177 132.781 680.812 142.188 691.191C150.504 700.453 160.387 707.8 171.251 712.796C177.663 715.677 184.441 717.379 191.314 717.835C204.716 718.667 218.063 716.115 230.345 710.371C247.036 703.267 263.491 695.903 280.18 688.541C296.634 681.432 313.748 676.278 331.239 673.166C343.854 671.195 356.649 670.765 369.396 671.885C384.518 673.058 399.445 676.635 413.717 682.507C426.963 687.623 439.734 694.191 451.838 702.112C466.249 711.613 479.503 723.149 491.26 736.424C492.198 737.323 553.571 807.047 596.026 818.304C616.275 825.385 666.591 843.457 705.868 859.098C754.964 878.65 843.598 892.553 900.08 884.733C956.562 876.912 968.728 873.002 968.728 873.002" stroke="#DFE4E8" stroke-width="1.25" stroke-linecap="round" stroke-linejoin="round"/>
<path d="M724.638 -138.678C734.767 -121.679 746.544 -105.944 759.756 -91.7604C768.983 -82.1392 778.957 -73.4398 789.558 -65.767C799.869 -58.2173 809.721 -50.1551 819.799 -42.607C832.46 -32.892 843.918 -21.3648 853.868 -8.33241C864.355 5.18943 872.336 20.8495 877.342 37.7302C879.511 45.739 881.681 53.7478 883.385 61.7533C884.367 67.1753 884.418 72.5907 884.935 78.0094C885.206 82.137 885.713 86.5243 885.752 90.6503C885.807 96.5815 885.63 102.511 885.22 108.439C885.045 114.627 884.64 121.07 884 127.254C882.913 139.404 882.639 151.641 883.179 163.865C883.475 170.572 884.469 177.283 885.23 183.993C887.012 200.25 892.048 216.015 896.385 231.774C898.787 239.785 900.957 247.794 902.664 256.057C905.638 269.22 903.934 283.063 897.906 294.703C891.591 306.199 883.857 316.645 874.923 325.745C862.646 338.8 848.721 349.818 833.569 358.463C815.586 369.429 795.827 376.467 775.345 379.203C769.533 379.936 763.722 380.67 757.672 380.885C751.552 381.23 745.413 381.187 739.285 380.757C730.824 379.675 722.417 378.067 714.103 375.941C697.656 371.581 681.779 364.792 666.9 355.757L624.772 330.71C609.893 322.066 594.41 314.799 578.485 308.985C564.003 303.469 549.056 297.95 535.035 291.922C520.223 285.561 506.211 277.052 493.37 266.62C482.345 257.518 471.551 248.16 460.76 239.06C452.737 231.938 444.191 225.581 435.213 220.058C424.638 213.798 412.812 210.692 400.915 211.052C394.783 211.31 388.744 212.661 383.032 215.054C370.666 219.685 359.155 226.672 349.012 235.704C341.392 242.098 333.769 248.233 326.616 254.888C314.847 265.636 303.548 276.904 292.015 287.911C288.785 290.983 285.325 294.311 281.863 297.382C276.325 302.5 270.787 307.619 265.247 312.48C257.171 319.902 249.097 327.582 240.552 334.742C228.082 345.228 215.145 355.452 202.44 365.679C192.737 373.347 182.799 380.756 173.331 388.684C165.477 395.076 157.624 401.467 150.241 408.378C139.846 418.22 130.645 429.507 122.859 441.968C117.586 450.441 112.545 458.915 107.975 467.908C99.2079 484.172 92.3345 501.623 87.515 519.854C84.9488 530.309 84.1053 541.22 85.0244 552.069C86.3303 563.54 89.7625 574.627 95.1048 584.63C102.146 598.558 110.459 611.665 119.91 623.74C127.98 634.01 136.541 643.797 145.554 653.056C153.183 660.849 161.699 667.499 170.875 672.83C179.617 677.897 189.311 680.533 199.109 680.504C211.843 680.544 224.439 678.01 236.277 673.027C248.57 668.471 260.625 663.397 272.682 658.582C287.383 652.391 302.41 647.157 317.688 642.908C327.972 640.064 338.462 638.154 349.054 637.195C358.664 636.533 368.32 636.772 377.921 637.911C396.796 640.363 414.08 646.93 430.909 654.525C448.986 662.629 466.25 672.865 482.398 685.053C496.676 695.765 509.633 708.516 520.924 722.969C543.031 750.556 561.021 782.692 595.626 796.715C608.01 802.076 643.828 817.082 688.034 834.224C743.292 855.65 836.892 860.161 878.618 847.192C911.998 836.817 946.656 816.932 959.813 808.286" stroke="#DFE4E8" stroke-width="1.25" stroke-linecap="round" stroke-linejoin="round"/>
<path d="M703.229 -138.827C712.427 -125.87 721.623 -113.171 731.054 -100.212C742.305 -85.2651 755.264 -71.9962 769.594 -60.7494C779.913 -52.4261 791.155 -44.8699 801.704 -36.8028C817.878 -24.5709 832.433 -11.3187 843.522 4.74581C857.305 24.9191 865.611 48.9706 867.446 74.019C867.764 83.0464 868.311 91.8176 868.163 100.842C868.226 107.547 867.588 113.989 867.186 120.69C866.778 126.876 866.136 132.802 866.194 138.991C865.83 149.819 865.698 160.648 865.798 171.221C866.13 177.363 866.81 183.483 867.831 189.544C868.593 196.253 869.587 202.965 870.581 209.676C871.565 215.356 872.784 221.295 873.536 226.973C874.287 232.651 875.504 238.333 876.023 244.009C876.549 250.46 876.845 257.166 876.905 263.613C876.717 275.766 873.788 287.624 868.384 298.107C861.309 313.014 850.258 325.83 837.094 336.827C823.989 347.659 809.153 355.686 793.328 360.504C784.065 363.331 774.582 365.249 764.988 366.237C745.871 367.854 726.594 365.087 708.355 358.108C690.137 351.276 674.451 341.369 658.761 331.203C646.586 323.382 634.409 315.562 622.005 308.256C609.257 301.209 595.956 295.505 582.279 291.218C566.869 285.954 551.464 281.205 536.737 274.398C522.918 268.243 509.792 260.273 497.646 250.661C488.969 243.639 480.522 236.36 471.842 229.079C461.756 220.758 451.901 212.18 440.2 205.394C431.528 200.276 422.031 197.166 412.294 196.256C402.558 195.345 392.79 196.654 383.594 200.101C372.073 204.607 361.235 210.96 351.42 218.959C345.647 223.818 339.403 228.158 333.866 233.277C322.557 243.513 311.72 254.268 300.879 264.765L291.421 273.724C274.111 289.333 257.268 304.946 239.488 320.036C221.209 335.438 202.15 349.682 182.401 362.702C166.212 373.677 150.256 384.654 136.181 397.707C126.529 406.727 117.947 417.062 110.635 428.473C106.048 435.661 101.928 443.111 97.809 450.56C88.6838 467.217 80.4525 484.466 73.1572 502.219C69.4363 511.025 66.5587 520.252 64.5712 529.75C63.3231 537.221 63.2378 544.894 64.3186 552.44C66.8252 571.539 76.7559 588.112 87.6127 604.174C95.6401 616.35 104.128 628.013 113.079 639.421C122.971 651.867 133.096 664.315 144.144 675.995C151.977 684.676 161.205 691.654 171.335 696.555C177.281 699.45 183.578 701.321 190.006 702.1C203.29 703.998 215.83 700.991 227.89 696.433C243.89 690.098 259.652 683.245 275.417 676.65C290.918 669.995 306.903 664.759 323.215 660.995C332.581 659.122 342.053 657.896 351.575 657.325C368.746 656.493 385.973 658.702 402.607 663.868C425.407 670.715 447.121 681.576 466.913 696.032C509.947 727.068 542.771 789.154 596.221 807.661C649.672 826.167 680.719 842.523 724.724 857.192C745.897 864.249 821.67 876.513 886.514 862.416C938.388 851.139 950.229 846.628 967.709 839.862" stroke="#DFE4E8" stroke-width="1.25" stroke-linecap="round" stroke-linejoin="round"/>
<path d="M897.194 741.311C899.032 738.745 901.102 736.181 902.94 733.615C907.765 726.944 912.59 720.273 917.182 713.601C921.206 708.059 923.506 701.209 923.748 694.049C923.528 688.871 922.373 683.777 920.349 679.069C916.778 670.535 912.514 662.512 908.479 654.232C895.137 628.534 885.085 600.948 878.618 572.282C877.399 566.343 876.179 560.404 875.425 554.468C874.422 546.725 873.884 538.985 873.113 531.244C872.448 526.458 872.247 521.616 872.512 516.8C872.903 508.809 874.221 500.566 874.845 492.577C876.002 481.892 878.086 471.371 881.067 461.161C882.636 454.726 885.141 448.812 886.942 442.378C890.102 431.828 893.496 421.537 895.957 410.982C897.521 404.03 897.456 397.068 892.277 390.843C888.84 386.764 884.162 384.246 879.177 383.79C870.786 382.442 863.127 384.709 855.465 386.719C840.375 390.74 825.757 395.538 810.669 399.816C796.684 404.038 782.388 406.957 767.927 408.544C761.184 409.271 754.206 409.738 747.461 410.207C742.575 410.431 737.459 410.911 732.336 410.618C718.615 409.977 704.958 407.896 691.548 404.403C680.815 401.492 670.307 397.809 660.029 393.869C640.175 386.253 621.69 375.81 602.522 366.91C585.223 358.796 567.466 351.452 549.706 343.851C527.74 334.415 506.462 323.952 487.713 310.155C476.355 301.872 465.395 292.93 454.878 283.367C448.773 277.652 442.668 271.937 436.333 266.477C427.939 258.97 418.631 252.826 408.698 248.235C398.112 243.622 386.534 242.82 375.627 245.942C364.579 249.037 354.147 254.291 344.818 261.457C328.631 272.691 314.794 286.261 300.484 299.055C291.945 306.731 283.876 314.927 275.571 322.863C266.576 331.567 257.348 340.271 248.356 349.233C226.677 370.485 203.357 390.436 180.74 410.908C167.443 422.496 155.317 435.637 144.568 450.109C132.693 466.083 123.272 484.132 116.674 503.55C113.882 511.285 112.079 519.43 111.315 527.752C111.119 531.618 110.224 535.48 110.261 539.348C110.478 556.116 115.256 572.505 123.968 586.374C129.024 594.563 134.957 602.052 141.633 608.673C149.425 616.318 158.194 622.638 167.643 627.42C174.973 631.006 182.791 633.155 190.744 633.77C206.118 635.166 220.28 631.396 234.435 626.853C251.451 620.975 268.167 614.119 284.514 606.315C293.786 602.253 303.055 597.934 312.559 593.875C322.751 589.326 333.431 586.195 344.357 584.555C356.873 582.966 369.601 584.826 381.414 589.97C395.901 596.001 408.547 604.341 421.424 612.424C437.813 622.852 454.206 633.539 470.368 644.481C566.155 709.335 547.651 744.427 607.033 771.349" stroke="#DFE4E8" stroke-width="1.25" stroke-linecap="round" stroke-linejoin="round"/>
<path d="M665.759 -138.32C669.526 -133.652 673.526 -128.983 677.297 -124.057C688.84 -109.279 699.917 -94.5037 711.46 -79.7253C727.389 -59.7193 745.728 -42.233 765.944 -27.7742C780.006 -17.3619 793.835 -6.95134 805.82 5.25148C812.654 12.1894 818.603 20.1277 823.497 28.8398C828.173 37.0122 831.709 45.906 833.984 55.2146C836.54 64.6225 837.962 74.3442 838.212 84.1245C838.117 98.8219 837.559 113.774 837.464 128.471C837.59 141.881 837.949 155.292 838.54 168.705C838.833 175.154 839.359 181.604 840.118 188.056C841.134 197.088 842.847 206.125 844.096 215.159C845.337 223.419 846.346 231.678 846.891 240.191C847.144 246.816 847.051 253.444 846.612 260.044C846.28 267.013 845.01 273.87 842.846 280.389C838.354 294.954 830.349 307.823 819.688 317.618C812.084 324.894 803.404 330.674 794.014 334.716C787.602 337.31 781.006 339.334 774.288 340.768C766.908 342.597 759.298 343.153 751.727 342.416C746.028 342.072 740.347 341.343 734.717 340.235C719.935 337.219 705.749 331.173 692.889 322.409C678.601 312.769 664.774 302.616 650.717 292.72C636.996 283.045 622.211 275.399 606.748 269.98C592.271 264.98 577.336 260.751 562.629 256.007C551.744 252.603 541.116 248.217 530.853 242.893C515.997 234.694 501.876 224.923 488.686 213.719C480.244 206.956 472.498 199.94 463.828 193.691C453.008 185.23 440.865 179.107 428.049 175.65C417.702 173.003 407.016 172.665 396.62 174.658C384.285 177.175 372.503 182.16 361.846 189.372C348.13 198.609 335.22 209.222 323.275 221.078C311.514 232.6 299.517 243.863 287.287 255.124C276.442 265.105 265.126 274.567 253.81 284.029C244.803 291.444 235.33 298.857 225.852 305.753C211.005 316.726 195.374 326.36 179.109 334.566C165.672 341.177 152.232 347.53 139.03 354.401C126.412 360.328 114.653 368.234 104.107 377.881C93.0336 388.376 85.9388 401.22 79.077 414.066C72.4431 426.397 66.9758 438.994 60.5747 451.327C53.0111 465.897 43.8342 479.344 33.2536 491.363C1.29079 520.78 3.08358 556.65 24.5397 582.33C35.1202 593.75 45.9335 605.171 55.823 617.359C70.6584 635.771 84.8005 654.693 99.4056 673.36C107.886 684.249 116.597 694.882 125.541 705.517C133.192 714.674 142.252 722.25 152.284 727.879C159.968 732.209 168.274 734.975 176.798 736.043C189.847 737.681 201.691 734.927 213.29 730.882C228.601 725.573 242.725 717.678 257.323 710.817C275.8 701.413 295.273 694.536 315.317 690.333C322.974 688.75 330.756 687.941 338.568 687.916C344.387 687.957 350.434 687.483 356.258 688.039C364.08 688.79 371.864 690.05 379.568 691.812C396.993 696.192 413.72 703.621 429.115 713.816C488.269 750.472 522.542 808.816 595.838 827.713C614.555 833.83 657.726 848.497 680.666 858.23C709.342 870.395 811.444 909.064 887.478 904.284C948.305 900.461 969.595 896.898 972.636 895.595" stroke="#DFE4E8" stroke-width="1.25" stroke-linecap="round" stroke-linejoin="round"/>
<path d="M870.175 715.336C850.813 765.742 837.766 765.05 810.265 782.52C769.614 808.345 762.727 815.611 691.885 797.9C621.044 780.19 570.463 721.762 565.5 713.733C558.384 702.301 550.502 691.471 541.922 681.337C528.975 665.775 513.488 652.258 497.306 639.253C484.175 628.847 470.118 618.951 457.217 608.288C442.683 596.213 428.732 583.29 415.426 569.577C407.892 561.518 399.545 554.45 390.558 548.517C380.959 542.367 370.054 539.256 359.053 539.53C353.087 539.764 347.169 540.673 341.391 542.244C331.602 545.106 322.184 549.283 313.345 554.684C295.522 565.133 277.701 575.839 259.408 585.768C243.883 594.251 227.063 599.549 209.748 601.41C198.187 602.917 186.421 601.241 175.489 596.531C166.95 592.823 159.198 587.142 152.757 579.87C146.924 573.547 142.332 565.96 139.282 557.6C135.943 548.585 134.73 538.811 135.757 529.21C136.633 523.286 137.273 517.101 138.614 511.18C142.867 493.159 151.554 476.459 162.582 461.064C175.368 442.693 191.632 427.151 208.142 411.373L208.428 411.099C212.116 407.257 216.274 403.934 219.962 400.092C231.027 389.344 241.86 378.595 252.692 367.846L252.709 367.829C259.857 360.658 267.005 353.488 274.385 346.319C285.223 335.564 296.061 324.809 307.367 314.316C315.211 306.892 323.99 299.991 332.537 293.088C342.598 284.468 353.843 277.673 365.863 272.949C371.646 270.826 377.651 269.483 383.747 268.948C390.344 268.614 396.95 269.893 403.099 272.692C413.139 277.155 422.477 283.405 430.736 291.193C440.124 299.509 449.053 308.597 458.443 317.171C465.016 323.148 472.052 328.87 478.855 334.59C500.004 352.378 523.557 366.301 548.599 375.817C560.041 380.022 571.485 384.484 582.93 388.947L582.935 388.949C596.716 394.202 610.5 399.713 624.514 404.968C636.891 409.437 649.504 414.167 662.111 418.38C675.166 422.834 688.506 426.118 702.002 428.198C710.659 429.554 719.369 430.39 728.092 430.701C741.371 431.351 754.66 431.099 767.884 429.946C773.231 429.209 778.584 429.247 783.932 428.768C790.91 428.301 797.881 427.06 804.861 426.851C811.841 426.641 818.827 426.948 825.814 427.512C837.226 428.365 844.726 433.832 848.774 443.659C851.635 450.899 851.936 458.121 852.471 465.603C852.992 471.538 852.12 477.72 852.175 483.651C852.536 497.321 852.9 511.248 853.261 524.917C853.285 527.496 853.777 530.335 854.036 533.174C854.798 539.883 855.789 546.337 856.783 553.048C857.527 557.953 858.041 563.114 859.018 568.02C861.212 578.607 863.641 589.454 865.835 600.042C868.758 613.987 871.915 627.933 874.606 641.877C876.391 651.35 877.724 660.914 878.599 670.527C878.886 676.672 878.474 682.821 877.374 688.827C875.435 697.817 870.175 715.336 870.175 715.336Z" stroke="#DFE4E8" stroke-width="1.25" stroke-linecap="round" stroke-linejoin="round"/>
<path d="M835.917 560.907C836.654 565.038 837.624 569.17 838.361 573.301C853.516 647.116 830.066 767.544 747.229 791.705C706.347 803.629 624.121 773.882 589.965 715.718C583.346 704.842 576.494 693.964 569.413 683.343C557.836 666.432 544.398 651.176 529.421 637.939C521.909 631.182 513.703 624.679 506.192 617.922C494.925 607.787 483.658 597.652 472.855 587.263C459.469 574.534 449.555 559.767 439.872 544.744C433.438 533.983 426.095 523.916 417.945 514.68C409.913 506.317 400.187 500.229 389.617 496.948C377.953 493.52 365.801 492.908 353.99 495.153C340.189 497.588 326.822 502.274 314.322 509.06C302.975 515.169 292.333 522.058 281.692 528.946C268.041 537.618 254.861 546.81 239.092 552.889C228.815 557.244 217.867 559.441 206.801 559.368C201.32 559.162 195.888 557.993 190.71 555.904C175.287 549.351 169.357 537.448 167.83 523.513C167.395 513.765 168.975 504.074 172.452 495.18C177.419 482.736 184.058 471.222 192.147 461.021C202.445 447.999 213.36 435.595 224.848 423.859C237.061 410.793 249.276 397.985 261.721 384.92C275.321 370.832 288.916 356.229 302.984 342.402C314.53 330.789 327.238 320.67 340.87 312.238C349.895 306.628 359.389 301.537 371.013 300.07C380.018 298.718 389.228 300.212 397.586 304.381C407.257 309.303 416.134 315.991 423.839 324.161C432.303 333.245 440.997 342.073 449.46 351.157C461.452 364.133 472.983 377.622 487.518 388.811C497.978 396.999 509.503 403.343 521.675 407.615C534.282 411.828 547.113 415.012 560.179 418.455C576.043 422.433 592.134 425.897 608 430.133C624.332 434.373 640.438 439.384 656.54 443.88C674.866 449.008 693.495 452.586 712.265 454.581C721.12 455.674 730.202 456.253 739.049 456.573C747.896 456.892 756.976 457.213 765.821 457.275C773.396 457.32 780.962 458.15 788.42 459.753C798.157 461.318 807.125 466.686 813.698 474.884C819.592 482.919 822.235 491.705 824.414 500.745C826.109 507.719 827.105 514.688 828.57 521.919C830.034 529.149 831.496 536.121 832.725 543.092C833.944 549.031 834.931 554.969 835.917 560.907Z" stroke="#DFE4E8" stroke-width="1.25" stroke-linecap="round" stroke-linejoin="round"/>
<path d="M816.336 632.967C815.946 640.164 815.08 647.312 813.744 654.351C807.107 682.597 809.317 682.104 790.112 740.313C770.908 798.522 689.237 806.366 629.483 736.359C605.182 707.888 598.952 675.401 574.407 645.983C561.93 630.94 547.143 617.686 532.819 604.178C523.895 595.606 514.74 587.291 506.511 578.467C496.858 568.316 488.867 556.389 482.906 543.233C477.984 532.388 474.578 520.798 472.808 508.867L472.776 508.612C471.781 500.702 470.818 493.042 472.588 485.4C473.464 481.419 475.108 477.708 477.408 474.52C479.708 471.332 482.609 468.742 485.914 466.927C493.299 463.19 501.228 460.89 509.358 460.128C519.855 458.871 530.415 458.256 540.993 458.285C548.206 458.077 555.662 458.903 562.882 459.469C570.568 460.038 578.026 461.121 585.714 461.948C601.795 464.194 617.758 467.491 633.519 471.821C650.314 475.806 666.65 480.561 683.44 484.03C699.064 487.233 714.678 489.405 730.292 491.576C740.03 492.652 749.694 494.529 759.205 497.192C770.764 500.484 781.166 507.678 788.956 517.77C796.969 528.398 801.505 540.549 805.343 552.695C809.863 566.42 813.039 580.621 814.817 595.051C815.58 602.018 816.577 608.987 816.875 615.952C817.044 621.637 816.864 627.322 816.336 632.967Z" stroke="#DFE4E8" stroke-width="1.25" stroke-linecap="round" stroke-linejoin="round"/>
<path d="M775.453 664.908C770.245 680.344 764.333 695.258 759.358 710.695C730.972 802.729 651.222 720.962 628.01 677.292C620.863 663.538 612.804 650.38 603.902 637.929C590.7 620.045 574.493 604.202 558.285 588.36C549.952 580.824 542.309 572.391 535.473 563.189C527.69 552.305 522.23 540.921 523.038 527.775C523.44 521.601 525.869 515.84 529.868 511.578C535.857 504.915 543.97 501.361 553.03 499.619C561.543 498.043 570.2 497.498 578.85 497.994C587.602 498.52 596.322 499.7 604.95 501.527C623.376 505.781 640.894 512.35 658.406 518.402C673.819 523.925 689.69 528.676 705.786 532.656C716.049 535.048 726.315 537.698 736.585 540.864C745.516 543.507 753.832 548.323 760.923 554.958C768.486 562.235 774.397 571.383 778.163 581.638C781.512 590.376 783.639 599.609 784.471 609.015C785.37 618.157 784.986 627.375 783.331 636.34C781.306 646.064 778.674 655.609 775.453 664.908Z" stroke="#DFE4E8" stroke-width="1.25" stroke-linecap="round" stroke-linejoin="round"/>
<path d="M255.237 462.734C258.801 470.495 264.159 471.048 271.595 469.81C284.841 467.582 297.366 463.027 310.131 459.248C322.896 455.469 335.201 452.202 347.969 448.681C363.292 444.662 378.62 441.158 393.939 436.623C403.688 433.855 412.019 428.755 416.359 420.018C419.029 414.717 419.8 408.47 418.522 402.499C417.83 398.187 416.777 393.95 415.378 389.842C411.446 378.014 405.135 367.296 396.93 358.512C392.137 353.285 386.485 349.129 380.291 346.277C370.709 342.094 360.163 341.747 350.49 345.296C340.877 348.795 331.882 354.048 323.871 360.841C304.239 376.949 289.291 396.185 275.75 416.462C268.458 426.861 262.387 438.254 257.681 450.374C256.148 454.074 255.39 458.123 255.464 462.22" stroke="#DFE4E8" stroke-width="1.25" stroke-linecap="round" stroke-linejoin="round"/>
</g>
<defs>
<clipPath id="clip0_1678_4485">
<rect width="974" height="913" fill="white" transform="translate(0 0.514893)"/>
</clipPath>
</defs>
</svg>
