<svg width="385" height="914" viewBox="0 0 385 914" fill="none" xmlns="http://www.w3.org/2000/svg">
<g clip-path="url(#clip0_1678_4833)">
<path d="M-512.256 393.14C-511.813 382.783 -513.955 314.703 -546.93 258.977C-607.597 156.452 -465.478 96.3532 -395.397 80.6272C-325.316 64.9012 -258.214 118.87 -213.66 132.039C-169.105 145.209 -150.776 210.656 -111.035 241.471C-99.2824 250.702 -86.9958 259.058 -74.259 266.481C-56.4943 277.305 -38.0468 286.656 -19.0698 294.456C-2.94912 301.015 13.6107 304.74 31.2809 302.8C39.7631 302.023 48.1578 300.443 56.3728 298.075C73.3182 293.294 89.5454 286.444 105.778 280.111C119.46 274.791 132.912 269.727 146.831 264.924C157.971 260.861 169.666 258.852 181.454 258.976C190.937 259.334 200.293 261.765 208.985 266.13C221.077 272.481 232.106 281.11 241.575 291.627C256.386 307.46 268.186 324.819 274.889 344.721C277.594 352.685 279.164 361.049 279.544 369.508C279.554 374.947 279.216 380.373 278.532 385.746C277.601 394.975 275.491 403.989 272.267 412.52C266.216 429.43 258.4 445.471 248.975 460.32C238.332 477 225.627 491.925 211.222 504.668C194.834 519.252 177.508 533.056 160.887 547.638C146.807 560.176 132.963 572.973 119.118 585.769C112.196 592.168 105.044 598.822 98.1239 605.479C85.4359 617.51 72.7477 629.541 59.827 641.571C54.2892 646.69 48.5189 651.807 42.7459 656.666C33.0639 665.089 22.6023 672.362 11.5293 678.367C3.14019 682.893 -6.02222 685.461 -15.3982 685.916C-23.1876 686.108 -30.9586 684.563 -38.2497 681.373C-48.1003 676.87 -57.3302 670.812 -65.649 663.39C-80.8992 650.391 -94.9928 636.626 -111.397 624.651C-123.904 615.315 -137.239 607.444 -151.183 601.166C-166.143 594.358 -181.793 588.318 -196.98 582.024C-216.141 573.897 -234.151 564.489 -252.165 554.565C-262.227 548.822 -272.519 543.335 -283.041 538.105C-296.662 531.356 -310.82 526.076 -325.316 522.339C-335.923 519.817 -346.676 518.19 -357.48 517.474C-370.171 516.736 -382.874 517.426 -395.397 519.531C-412.215 522.369 -428.703 527.092 -444.606 533.629C-464.081 541.745 -481.904 552.194 -499.964 562.125C-509.001 567.744 -518.896 571.517 -529.185 573.267C-534.264 573.896 -539.424 573.333 -544.329 571.615C-549.165 569.875 -553.632 567.033 -557.441 563.272C-568.244 552.883 -571.382 540.999 -568.479 527.868C-566.699 519.114 -561.884 511.411 -556.836 503.71C-550.18 493.7 -543.292 483.691 -536.871 473.422C-528.591 460.406 -522.209 446.01 -517.954 430.748C-516.264 424.065 -514.929 417.273 -513.955 410.405C-513.044 404.704 -512.477 398.937 -512.256 393.14Z" stroke="#DFE4E8" stroke-width="1.25" stroke-linecap="round" stroke-linejoin="round"/>
<path d="M-302.65 1053.17C-307.131 1046.95 -311.376 1040.99 -315.854 1035.03C-325.751 1022.07 -335.415 1009.11 -345.775 996.4C-355.541 984.478 -366.585 973.92 -378.653 964.97C-390.374 956.121 -402.324 947.529 -413.814 938.424C-431.396 924.893 -446.208 909.06 -456.16 890.167C-461.566 880.026 -465.518 869.035 -467.87 857.595C-469.717 849.304 -470.657 840.812 -470.667 832.305C-470.696 829.21 -471.421 826.369 -471.217 823.276C-471.064 814.768 -470.679 806.261 -470.295 797.496C-469.893 790.795 -469.492 783.835 -469.323 777.132C-468.951 767.078 -468.813 757.022 -468.91 746.707C-469.208 739.743 -470.204 732.774 -470.968 725.806C-471.722 719.87 -472.243 713.936 -472.994 708.257C-473.741 703.095 -474.72 697.931 -475.465 693.026C-475.966 689.155 -476.934 685.28 -477.203 681.41C-478.13 673.36 -478.595 665.261 -478.594 657.162C-478.121 633.184 -469.947 611.323 -452.199 592.88C-441.237 581.474 -428.362 572.547 -414.276 566.584C-404.502 562.271 -394.167 559.647 -383.627 558.803C-378.228 558.112 -372.789 557.805 -367.343 557.885C-354.34 558.452 -341.452 561.149 -329.099 565.887C-309.948 572.982 -293.55 584.184 -277.153 595.386C-260.756 606.589 -244.119 618.566 -224.963 626.177C-216.552 629.588 -207.678 632.744 -199.04 635.64C-182.463 641.171 -165.892 646.185 -150.229 653.514C-138.701 658.778 -127.711 665.427 -117.459 673.34C-106.908 681.665 -96.5817 690.762 -86.0302 699.087C-75.9467 707.15 -66.0958 715.213 -53.7064 720.972C-44.2931 725.489 -34.1871 727.877 -23.9898 727.992C-13.7926 728.107 -3.71272 725.948 5.64908 721.642C13.5468 717.952 21.1352 713.519 28.3331 708.391C35.1212 703.787 41.6059 698.663 47.7399 693.054C56.2793 685.378 64.118 677.439 72.4223 669.503C75.4215 666.687 78.1881 663.87 81.1898 661.312C99.19 644.934 116.955 628.297 135.426 612.438C150.303 599.424 165.977 587.558 182.339 576.921C201.079 564.932 220.053 553.202 238.56 541.212C255.757 530.118 270.602 515.112 282.136 497.162C290.85 483.299 298.393 468.653 305.706 454.263C314.391 437.305 323.078 420.604 331.298 403.643C334.697 396.816 337.138 389.444 338.541 381.775C340.572 370.387 338.894 358.503 333.804 348.22C326.994 333.877 318.746 320.411 309.222 308.08C296.021 290.196 282.819 272.312 269.155 254.682C260.674 243.793 251.73 233.159 242.323 222.779C234.008 213.517 224.124 206.17 213.26 201.174C206.848 198.294 200.071 196.591 193.198 196.135C179.796 195.303 166.449 197.855 154.167 203.6C137.476 210.704 121.021 218.067 104.332 225.429C87.8779 232.539 70.7635 237.692 53.2731 240.804C40.6576 242.775 27.8622 243.205 15.1156 242.086C-0.00622296 240.912 -14.933 237.335 -29.205 231.463C-42.451 226.347 -55.2221 219.779 -67.3259 211.858C-81.7374 202.358 -94.9916 190.822 -106.749 177.546C-107.687 176.647 -169.06 106.924 -211.515 95.6666C-231.763 88.5855 -282.08 70.513 -321.357 54.8718C-370.453 35.3202 -459.086 21.4169 -515.569 29.2375C-572.051 37.0581 -584.216 40.9684 -584.216 40.9684" stroke="#DFE4E8" stroke-width="1.25" stroke-linecap="round" stroke-linejoin="round"/>
<path d="M-340.126 1052.65C-350.255 1035.65 -362.033 1019.91 -375.245 1005.73C-384.472 996.11 -394.446 987.41 -405.047 979.737C-415.358 972.188 -425.209 964.126 -435.288 956.577C-447.948 946.862 -459.406 935.335 -469.357 922.303C-479.844 908.781 -487.824 893.121 -492.83 876.24C-495 868.231 -497.17 860.223 -498.874 852.217C-499.856 846.795 -499.907 841.38 -500.423 835.961C-500.695 831.833 -501.201 827.446 -501.24 823.32C-501.296 817.389 -501.119 811.459 -500.709 805.531C-500.534 799.344 -500.129 792.9 -499.488 786.716C-498.401 774.566 -498.127 762.33 -498.668 750.105C-498.964 743.399 -499.958 736.688 -500.719 729.978C-502.501 713.72 -507.536 697.956 -511.873 682.196C-514.276 674.185 -516.445 666.177 -518.152 657.913C-521.127 644.75 -519.423 630.907 -513.394 619.267C-507.08 607.771 -499.346 597.325 -490.411 588.226C-478.134 575.17 -464.209 564.153 -449.058 555.507C-431.075 544.541 -411.315 537.503 -390.834 534.767C-385.022 534.034 -379.21 533.301 -373.161 533.085C-367.04 532.741 -360.901 532.783 -354.773 533.213C-346.312 534.295 -337.905 535.903 -329.592 538.029C-313.145 542.389 -297.267 549.178 -282.389 558.213L-240.26 583.261C-225.382 591.905 -209.899 599.171 -193.973 604.985C-179.492 610.501 -164.545 616.02 -150.524 622.048C-135.712 628.409 -121.699 636.919 -108.858 647.35C-97.8338 656.452 -87.0396 665.81 -76.2481 674.911C-68.2258 682.032 -59.6791 688.389 -50.7012 693.912C-40.1264 700.173 -28.3006 703.278 -16.4038 702.918C-10.2713 702.66 -4.23288 701.309 1.4797 698.917C13.8453 694.285 25.3563 687.298 35.4995 678.266C43.1201 671.873 50.7429 665.737 57.8955 659.082C69.6645 648.334 80.9632 637.067 92.4971 626.059C95.7266 622.987 99.1863 619.659 102.649 616.589C108.186 611.47 113.724 606.351 119.264 601.49C127.341 594.068 135.415 586.389 143.959 579.228C156.429 568.742 169.367 558.518 182.072 548.292C191.775 540.623 201.713 533.215 211.181 525.287C219.034 518.895 226.888 512.503 234.271 505.592C244.665 495.75 253.867 484.463 261.652 472.002C266.926 463.53 271.967 455.055 276.537 446.062C285.304 429.798 292.177 412.347 296.997 394.116C299.563 383.661 300.406 372.75 299.487 361.901C298.181 350.43 294.749 339.343 289.407 329.34C282.366 315.412 274.053 302.305 264.602 290.231C256.532 279.96 247.971 270.174 238.958 260.914C231.329 253.121 222.813 246.471 213.636 241.14C204.895 236.073 195.2 233.438 185.403 233.466C172.668 233.426 160.073 235.96 148.234 240.943C135.942 245.499 123.887 250.573 111.829 255.388C97.1287 261.579 82.1014 266.813 66.824 271.063C56.5392 273.906 46.0493 275.817 35.4574 276.776C25.8476 277.437 16.1913 277.198 6.59086 276.059C-12.2842 273.607 -29.5686 267.04 -46.3973 259.445C-64.4744 251.341 -81.7383 241.106 -97.8869 228.917C-112.165 218.205 -125.121 205.454 -136.413 191.002C-158.519 163.415 -176.509 131.278 -211.115 117.255C-223.498 111.894 -259.317 96.8877 -303.523 79.7465C-358.781 58.32 -452.381 53.8091 -494.106 66.7778C-527.487 77.1528 -562.145 97.0381 -575.302 105.684" stroke="#DFE4E8" stroke-width="1.25" stroke-linecap="round" stroke-linejoin="round"/>
<path d="M-318.717 1052.8C-327.916 1039.84 -337.111 1027.14 -346.542 1014.18C-357.794 999.236 -370.753 985.967 -385.083 974.72C-395.401 966.397 -406.644 958.84 -417.193 950.773C-433.367 938.541 -447.921 925.289 -459.011 909.225C-472.793 889.051 -481.1 865 -482.935 839.951C-483.252 830.924 -483.8 822.153 -483.652 813.129C-483.715 806.424 -483.077 799.982 -482.674 793.28C-482.267 787.094 -481.624 781.168 -481.682 774.979C-481.318 764.151 -481.187 753.322 -481.286 742.749C-481.619 736.607 -482.298 730.487 -483.32 724.427C-484.081 717.717 -485.075 711.006 -486.069 704.294C-487.053 698.615 -488.273 692.675 -489.024 686.997C-489.776 681.319 -490.993 675.637 -491.511 669.961C-492.037 663.511 -492.333 656.804 -492.394 650.357C-492.206 638.204 -489.277 626.346 -483.873 615.863C-476.798 600.956 -465.746 588.14 -452.583 577.144C-439.478 566.311 -424.641 558.285 -408.817 553.467C-399.553 550.64 -390.07 548.721 -380.476 547.733C-361.36 546.116 -342.082 548.884 -323.844 555.863C-305.626 562.694 -289.939 572.602 -274.25 582.767C-262.074 590.588 -249.898 598.408 -237.494 605.715C-224.746 612.761 -211.445 618.466 -197.768 622.752C-182.357 628.016 -166.952 632.765 -152.225 639.572C-138.406 645.727 -125.281 653.697 -113.135 663.309C-104.458 670.332 -96.0106 677.611 -87.3308 684.891C-77.2449 693.213 -67.3892 701.791 -55.6885 708.577C-47.0166 713.694 -37.519 716.804 -27.7828 717.715C-18.0466 718.625 -8.27855 717.316 0.917619 713.87C12.4383 709.363 23.2766 703.011 33.0917 695.011C38.8647 690.152 45.1082 685.812 50.646 680.693C61.9543 670.457 72.7919 659.703 83.6323 649.206L93.0909 640.246C110.4 624.637 127.244 609.025 145.024 593.935C163.303 578.532 182.361 564.288 202.111 551.269C218.3 540.293 234.256 529.316 248.331 516.263C257.983 507.243 266.564 496.908 273.877 485.497C278.464 478.309 282.583 470.86 286.703 463.41C295.828 446.753 304.059 429.505 311.354 411.752C315.075 402.945 317.953 393.718 319.941 384.22C321.189 376.749 321.274 369.076 320.193 361.53C317.687 342.431 307.756 325.859 296.899 309.796C288.872 297.62 280.384 285.958 271.433 274.55C261.541 262.103 251.416 249.656 240.367 237.975C232.535 229.294 223.307 222.316 213.177 217.415C207.231 214.52 200.933 212.649 194.505 211.87C181.221 209.973 168.681 212.98 156.621 217.537C140.622 223.873 124.859 230.725 109.095 237.32C93.594 243.975 77.6082 249.211 61.2965 252.975C51.9305 254.849 42.4591 256.075 32.9365 256.646C15.7653 257.477 -1.46124 255.268 -18.0952 250.102C-40.8952 243.255 -62.6096 232.394 -82.401 217.938C-125.435 186.902 -158.259 124.816 -211.71 106.31C-265.16 87.8033 -296.207 71.4471 -340.213 56.7785C-361.386 49.7208 -437.159 37.4574 -502.002 51.5538C-553.877 62.8309 -565.718 67.3418 -583.197 74.1081" stroke="#DFE4E8" stroke-width="1.25" stroke-linecap="round" stroke-linejoin="round"/>
<path d="M-512.682 172.659C-514.52 175.225 -516.591 177.789 -518.429 180.355C-523.254 187.026 -528.079 193.697 -532.671 200.369C-536.694 205.911 -538.995 212.761 -539.237 219.921C-539.017 225.1 -537.861 230.194 -535.838 234.901C-532.267 243.435 -528.002 251.458 -523.968 259.738C-510.626 285.436 -500.574 313.022 -494.107 341.688C-492.887 347.627 -491.668 353.567 -490.914 359.503C-489.91 367.245 -489.372 374.985 -488.602 382.726C-487.937 387.512 -487.736 392.354 -488.001 397.171C-488.391 405.162 -489.71 413.404 -490.333 421.393C-491.49 432.079 -493.574 442.599 -496.555 452.809C-498.124 459.245 -500.629 465.158 -502.431 471.592C-505.59 482.143 -508.985 492.434 -511.446 502.989C-513.01 509.94 -512.945 516.903 -507.766 523.127C-504.328 527.206 -499.651 529.725 -494.666 530.181C-486.275 531.529 -478.616 529.261 -470.954 527.251C-455.864 523.231 -441.246 518.433 -426.158 514.154C-412.173 509.933 -397.876 507.014 -383.415 505.426C-376.672 504.7 -369.694 504.232 -362.949 503.763C-358.064 503.54 -352.948 503.059 -347.825 503.353C-334.103 503.993 -320.446 506.074 -307.037 509.567C-296.303 512.478 -285.795 516.162 -275.518 520.101C-255.663 527.717 -237.178 538.16 -218.01 547.061C-200.711 555.175 -182.954 562.518 -165.194 570.12C-143.228 579.556 -121.951 590.018 -103.202 603.815C-91.8439 612.099 -80.8833 621.041 -70.3666 630.603C-64.2617 636.318 -58.1564 642.034 -51.8212 647.493C-43.4273 655 -34.1198 661.144 -24.1864 665.735C-13.6001 670.348 -2.02285 671.151 8.88437 668.028C19.9325 664.933 30.3642 659.68 39.6936 652.513C55.8802 641.28 69.7174 627.709 84.0274 614.916C92.5668 607.239 100.636 599.044 108.94 591.108C117.936 582.403 127.163 573.7 136.156 564.737C157.835 543.485 181.154 523.534 203.771 503.063C217.069 491.474 229.194 478.334 239.944 463.861C251.819 447.888 261.239 429.839 267.838 410.42C270.629 402.685 272.432 394.54 273.196 386.219C273.393 382.352 274.287 378.49 274.251 374.622C274.033 357.855 269.256 341.466 260.544 327.596C255.487 319.407 249.555 311.918 242.879 305.297C235.086 297.652 226.318 291.332 216.869 286.55C209.539 282.965 201.721 280.816 193.768 280.201C178.394 278.805 164.232 282.574 150.077 287.117C133.061 292.995 116.345 299.851 99.9972 307.656C90.7256 311.717 81.4568 316.036 71.9524 320.096C61.7608 324.645 51.0809 327.775 40.1543 329.416C27.6388 331.004 14.9109 329.145 3.09718 324.001C-11.3894 317.969 -24.0353 309.63 -36.912 301.546C-53.3017 291.118 -69.6942 280.432 -85.8561 269.489C-181.644 204.635 -163.14 169.544 -222.522 142.621" stroke="#DFE4E8" stroke-width="1.25" stroke-linecap="round" stroke-linejoin="round"/>
<path d="M-281.247 1052.29C-285.015 1047.62 -289.015 1042.95 -292.785 1038.03C-304.328 1023.25 -315.405 1008.47 -326.948 993.696C-342.877 973.69 -361.216 956.203 -381.432 941.745C-395.495 931.332 -409.324 920.922 -421.308 908.719C-428.143 901.781 -434.092 893.843 -438.985 885.131C-443.662 876.958 -447.198 868.064 -449.473 858.756C-452.029 849.348 -453.45 839.626 -453.7 829.846C-453.606 815.148 -453.048 800.196 -452.953 785.499C-453.078 772.089 -453.437 758.678 -454.028 745.265C-454.322 738.816 -454.848 732.366 -455.607 725.914C-456.622 716.882 -458.336 707.845 -459.584 698.811C-460.826 690.551 -461.834 682.293 -462.38 673.779C-462.633 667.155 -462.54 660.526 -462.1 653.926C-461.768 646.958 -460.498 640.101 -458.334 633.581C-453.842 619.017 -445.837 606.147 -435.177 596.352C-427.572 589.077 -418.892 583.296 -409.503 579.254C-403.09 576.66 -396.494 574.637 -389.776 573.203C-382.396 571.373 -374.787 570.817 -367.216 571.554C-361.517 571.899 -355.836 572.627 -350.205 573.736C-335.424 576.752 -321.237 582.798 -308.377 591.561C-294.09 601.201 -280.263 611.354 -266.205 621.25C-252.484 630.925 -237.7 638.571 -222.236 643.99C-207.759 648.99 -192.824 653.22 -178.117 657.964C-167.233 661.367 -156.605 665.754 -146.341 671.078C-131.486 679.277 -117.364 689.047 -104.175 700.251C-95.7326 707.014 -87.986 714.031 -79.3159 720.28C-68.4959 728.74 -56.3531 734.864 -43.5376 738.321C-33.1906 740.968 -22.5047 741.305 -12.1081 739.313C0.226553 736.795 12.0087 731.81 22.6653 724.599C36.3814 715.361 49.2916 704.749 61.2362 692.892C72.9979 681.37 84.9946 670.108 97.2243 658.847C108.07 648.866 119.386 639.403 130.701 629.941C139.709 622.526 149.182 615.114 158.659 608.217C173.507 597.245 189.137 587.61 205.403 579.404C218.84 572.793 232.279 566.44 245.481 559.57C258.1 553.643 269.859 545.736 280.405 536.089C291.478 525.594 298.573 512.75 305.435 499.905C312.069 487.574 317.536 474.976 323.937 462.644C331.501 448.074 340.678 434.626 351.258 422.607C383.221 393.191 381.428 357.32 359.972 331.64C349.392 320.22 338.578 308.799 328.689 296.611C313.853 278.2 299.711 259.278 285.106 240.61C276.625 229.721 267.914 219.088 258.971 208.453C251.32 199.296 242.26 191.72 232.228 186.091C224.543 181.762 216.238 178.995 207.713 177.927C194.665 176.289 182.821 179.043 171.222 183.089C155.91 188.397 141.787 196.293 127.189 203.153C108.711 212.557 89.2389 219.435 69.1949 223.637C61.5379 225.22 53.7556 226.029 45.9434 226.054C40.1245 226.013 34.0774 226.487 28.2537 225.931C20.4314 225.18 12.6479 223.92 4.944 222.159C-12.4813 217.778 -29.2084 210.349 -44.6036 200.154C-103.758 163.498 -138.031 105.154 -211.326 86.2573C-230.044 80.1403 -273.214 65.473 -296.155 55.7407C-324.83 43.5753 -426.933 4.90664 -502.967 9.68594C-563.794 13.5094 -585.083 17.0722 -588.125 18.3756" stroke="#DFE4E8" stroke-width="1.25" stroke-linecap="round" stroke-linejoin="round"/>
<path d="M-485.663 198.634C-466.302 148.228 -453.254 148.92 -425.754 131.45C-385.102 105.625 -378.216 98.3595 -307.374 116.07C-236.532 133.78 -185.952 192.209 -180.989 200.237C-173.873 211.669 -165.991 222.499 -157.411 232.634C-144.464 248.195 -128.976 261.712 -112.795 274.717C-99.6637 285.123 -85.6067 295.02 -72.7059 305.682C-58.1712 317.757 -44.2205 330.68 -30.9146 344.394C-23.38 352.452 -15.0335 359.52 -6.04615 365.454C3.5524 371.604 14.4575 374.714 25.4583 374.44C31.4241 374.206 37.3422 373.297 43.1209 371.726C52.9094 368.864 62.3273 364.687 71.1663 359.286C88.9894 348.838 106.81 338.131 125.104 328.202C140.629 319.72 157.449 314.422 174.764 312.56C186.325 311.053 198.09 312.729 209.022 317.44C217.562 321.147 225.313 326.829 231.755 334.101C237.588 340.423 242.179 348.01 245.23 356.371C248.569 365.386 249.782 375.159 248.755 384.76C247.879 390.685 247.239 396.869 245.898 402.79C241.645 420.811 232.957 437.512 221.93 452.907C209.144 471.277 192.88 486.82 176.369 502.598L176.083 502.871C172.395 506.713 168.237 510.037 164.549 513.879C153.484 524.627 142.651 535.376 131.819 546.126L131.803 546.142C124.655 553.312 117.507 560.483 110.126 567.651C99.2884 578.406 88.4503 589.161 77.1444 599.655C69.3008 607.078 60.5215 613.979 51.9748 620.882C41.914 629.502 30.669 636.298 18.6491 641.022C12.8654 643.145 6.86096 644.488 0.764994 645.023C-5.83204 645.356 -12.4383 644.078 -18.5873 641.278C-28.6279 636.816 -37.965 630.565 -46.2245 622.778C-55.6122 614.461 -64.5417 605.374 -73.9319 596.799C-80.5047 590.823 -87.5405 585.101 -94.3437 579.38C-115.492 561.592 -139.045 547.669 -164.088 538.153C-175.53 533.948 -186.975 529.485 -198.421 525.023L-198.424 525.021C-212.205 519.768 -225.988 514.257 -240.002 509.003C-252.379 504.533 -264.992 499.804 -277.6 495.59C-290.654 491.136 -303.994 487.853 -317.49 485.772C-326.148 484.416 -334.857 483.581 -343.581 483.27C-356.86 482.619 -370.149 482.871 -383.373 484.025C-388.719 484.761 -394.072 484.724 -399.421 485.202C-406.399 485.67 -413.369 486.91 -420.35 487.12C-427.33 487.329 -434.315 487.023 -441.303 486.458C-452.715 485.605 -460.214 480.138 -464.263 470.311C-467.124 463.071 -467.424 455.849 -467.96 448.367C-468.481 442.433 -467.608 436.25 -467.664 430.319C-468.025 416.65 -468.388 402.723 -468.749 389.054C-468.773 386.475 -469.266 383.635 -469.525 380.797C-470.286 374.087 -471.277 367.633 -472.271 360.922C-473.015 356.018 -473.53 350.857 -474.507 345.951C-476.701 335.363 -479.129 324.516 -481.323 313.928C-484.247 299.984 -487.404 286.037 -490.095 272.094C-491.88 262.62 -493.213 253.057 -494.088 243.443C-494.375 237.298 -493.963 231.15 -492.862 225.144C-490.924 216.154 -485.663 198.634 -485.663 198.634Z" stroke="#DFE4E8" stroke-width="1.25" stroke-linecap="round" stroke-linejoin="round"/>
<path d="M-451.406 353.064C-452.143 348.933 -453.113 344.8 -453.85 340.669C-469.005 266.855 -445.555 146.426 -362.717 122.265C-321.835 110.341 -239.609 140.088 -205.453 198.252C-198.834 209.128 -191.983 220.006 -184.901 230.628C-173.324 247.539 -159.887 262.794 -144.909 276.031C-137.398 282.788 -129.191 289.292 -121.68 296.048C-110.413 306.183 -99.1467 316.318 -88.3431 326.708C-74.9574 339.436 -65.0438 354.203 -55.3604 369.226C-48.9261 379.987 -41.5832 390.055 -33.4333 399.291C-25.4016 407.653 -15.6751 413.741 -5.10501 417.022C6.55844 420.45 18.7104 421.063 30.5215 418.817C44.3227 416.382 57.6894 411.696 70.1896 404.911C81.5367 398.801 92.1784 391.913 102.82 385.025C116.47 376.352 129.65 367.161 145.42 361.082C155.697 356.726 166.645 354.529 177.71 354.602C183.192 354.808 188.623 355.977 193.802 358.066C209.224 364.62 215.154 376.523 216.682 390.458C217.117 400.205 215.536 409.896 212.06 418.79C207.093 431.234 200.453 442.749 192.364 452.949C182.067 465.971 171.152 478.376 159.664 490.112C147.451 503.178 135.236 515.986 122.79 529.05C109.191 543.138 95.5954 557.742 81.5278 571.568C69.9819 583.182 57.2735 593.3 43.6412 601.732C34.6169 607.343 25.1222 612.434 13.4989 613.9C4.49314 615.252 -4.7164 613.758 -13.0739 609.59C-22.7455 604.667 -31.6224 597.979 -39.327 589.81C-47.7909 580.726 -56.485 571.898 -64.9489 562.814C-76.9404 549.837 -88.4712 536.348 -103.006 525.159C-113.466 516.972 -124.991 510.627 -137.163 506.356C-149.771 502.142 -162.601 498.959 -175.667 495.516C-191.531 491.537 -207.623 488.073 -223.489 483.837C-239.821 479.598 -255.927 474.587 -272.028 470.091C-290.354 464.963 -308.983 461.385 -327.754 459.389C-336.608 458.296 -345.691 457.717 -354.538 457.398C-363.385 457.078 -372.465 456.757 -381.31 456.696C-388.884 456.65 -396.45 455.82 -403.909 454.218C-413.646 452.652 -422.613 447.284 -429.187 439.086C-435.081 431.051 -437.723 422.266 -439.903 413.225C-441.598 406.251 -442.594 399.282 -444.058 392.052C-445.522 384.822 -446.984 377.849 -448.213 370.878C-449.432 364.939 -450.419 359.002 -451.406 353.064L-451.406 353.064Z" stroke="#DFE4E8" stroke-width="1.25" stroke-linecap="round" stroke-linejoin="round"/>
<path d="M129.275 451.236C125.711 443.475 120.353 442.923 112.916 444.16C99.6711 446.389 87.146 450.943 74.3807 454.722C61.6153 458.501 49.3105 461.768 36.5427 465.289C21.2195 469.309 5.89125 472.812 -9.42719 477.347C-19.1764 480.116 -27.5072 485.215 -31.8473 493.952C-34.5171 499.253 -35.2885 505.501 -34.0104 511.472C-33.3187 515.783 -32.2658 520.021 -30.8659 524.129C-26.9346 535.957 -20.6237 546.674 -12.4181 555.458C-7.62578 560.685 -1.9738 564.841 4.22097 567.693C13.8022 571.876 24.349 572.223 34.0212 568.674C43.6345 565.175 52.63 559.922 60.6408 553.13C80.2728 537.021 95.2204 517.785 108.762 497.508C116.054 487.11 122.125 475.717 126.831 463.596C128.364 459.896 129.121 455.848 129.047 451.75" stroke="#DFE4E8" stroke-width="1.25" stroke-linecap="round" stroke-linejoin="round"/>
</g>
<defs>
<clipPath id="clip0_1678_4833">
<rect width="770" height="913" fill="white" transform="translate(384.512 913.456) rotate(-180)"/>
</clipPath>
</defs>
</svg>
