<svg width="771" height="914" viewBox="0 0 771 914" fill="none" xmlns="http://www.w3.org/2000/svg">
<g clip-path="url(#clip0_1678_4439)">
<path d="M-126.459 520.729C-126.015 531.086 -128.158 599.166 -161.133 654.892C-221.8 757.417 -79.6811 817.516 -9.59988 833.241C60.4814 848.967 127.583 794.999 172.137 781.83C216.692 768.66 235.021 703.213 274.762 672.398C286.515 663.167 298.801 654.811 311.538 647.387C329.303 636.564 347.75 627.213 366.727 619.412C382.848 612.854 399.408 609.129 417.078 611.069C425.56 611.845 433.955 613.426 442.17 615.794C459.115 620.575 475.342 627.424 491.575 633.758C505.257 639.078 518.709 644.142 532.628 648.944C543.768 653.008 555.463 655.017 567.251 654.892C576.733 654.535 586.09 652.104 594.782 647.738C606.874 641.388 617.903 632.759 627.372 622.242C642.183 606.409 653.983 589.05 660.686 569.148C663.39 561.184 664.961 552.82 665.341 544.361C665.351 538.922 665.013 533.496 664.329 528.123C663.398 518.894 661.288 509.88 658.064 501.349C652.013 484.439 644.197 468.397 634.772 453.549C624.129 436.868 611.423 421.944 597.019 409.201C580.631 394.617 563.305 380.813 546.684 366.23C532.604 353.693 518.76 340.896 504.915 328.099C497.993 321.701 490.841 315.046 483.921 308.39C471.233 296.359 458.545 284.328 445.624 272.298C440.086 267.179 434.316 262.062 428.543 257.203C418.861 248.78 408.399 241.507 397.326 235.502C388.937 230.976 379.775 228.408 370.399 227.953C362.609 227.761 354.838 229.306 347.547 232.496C337.697 236.999 328.467 243.057 320.148 250.479C304.898 263.478 290.804 277.242 274.4 289.218C261.893 298.554 248.558 306.425 234.614 312.702C219.654 319.511 204.004 325.55 188.817 331.845C169.656 339.972 151.646 349.38 133.632 359.304C123.57 365.047 113.278 370.533 102.756 375.764C89.135 382.513 74.977 387.793 60.4814 391.53C49.8736 394.052 39.121 395.679 28.3173 396.395C15.6264 397.132 2.92267 396.443 -9.59986 394.338C-26.4184 391.5 -42.906 386.777 -58.8093 380.24C-78.2835 372.123 -96.1064 361.675 -114.167 351.744C-123.204 346.125 -133.099 342.352 -143.388 340.601C-148.467 339.972 -153.627 340.535 -158.532 342.254C-163.368 343.994 -167.835 346.836 -171.644 350.597C-182.447 360.986 -185.585 372.87 -182.682 386C-180.902 394.755 -176.087 402.458 -171.039 410.158C-164.383 420.169 -157.495 430.177 -151.074 440.447C-142.794 453.463 -136.412 467.859 -132.157 483.121C-130.467 489.803 -129.132 496.596 -128.158 503.464C-127.247 509.165 -126.68 514.932 -126.459 520.729Z" stroke="#DFE4E8" stroke-width="1.25" stroke-linecap="round" stroke-linejoin="round"/>
<path d="M83.1467 -139.303C78.6663 -133.083 74.4208 -127.122 69.9428 -121.16C60.046 -108.199 50.3822 -95.2383 40.0224 -82.531C30.2564 -70.609 19.2124 -60.0516 7.14369 -51.1011C-4.57641 -42.2523 -16.5269 -33.6598 -28.0166 -24.5548C-45.5992 -11.0237 -60.4105 4.80883 -70.3628 23.7019C-75.7693 33.8425 -79.7204 44.8334 -82.0725 56.2739C-83.92 64.5651 -84.8595 73.0567 -84.87 81.5638C-84.8991 84.6583 -85.6238 87.4998 -85.4201 90.5928C-85.2671 99.1011 -84.8814 107.608 -84.4982 116.373C-84.0955 123.074 -83.6953 130.034 -83.5255 136.737C-83.1543 146.791 -83.0158 156.846 -83.1125 167.162C-83.4106 174.126 -84.407 181.095 -85.1706 188.063C-85.9245 193.999 -86.4458 199.933 -87.1972 205.611C-87.9439 210.774 -88.9232 215.938 -89.6675 220.842C-90.1693 224.714 -91.1365 228.588 -91.4056 232.458C-92.3329 240.509 -92.7975 248.608 -92.7967 256.707C-92.3234 280.685 -84.15 302.546 -66.4019 320.989C-55.4399 332.395 -42.5648 341.322 -28.4785 347.285C-18.7051 351.598 -8.36983 354.222 2.17037 355.065C7.56907 355.757 13.008 356.064 18.4537 355.984C31.4572 355.416 44.3449 352.72 56.6982 347.982C75.8496 340.886 92.247 329.684 108.644 318.482C125.041 307.28 141.678 295.303 160.834 287.692C169.245 284.281 178.119 281.125 186.757 278.228C203.334 272.698 219.905 267.683 235.568 260.354C247.096 255.091 258.086 248.442 268.338 240.529C278.889 232.204 289.215 223.107 299.767 214.782C309.85 206.718 319.701 198.656 332.091 192.897C341.504 188.379 351.61 185.992 361.807 185.877C372.004 185.761 382.084 187.921 391.446 192.226C399.344 195.916 406.932 200.349 414.13 205.478C420.918 210.081 427.403 215.206 433.537 220.814C442.076 228.491 449.915 236.43 458.219 244.366C461.218 247.181 463.985 249.999 466.987 252.556C484.987 268.934 502.752 285.572 521.223 301.431C536.1 314.444 551.774 326.31 568.136 336.947C586.876 348.937 605.85 360.666 624.357 372.657C641.554 383.75 656.399 398.757 667.933 416.706C676.647 430.57 684.19 445.216 691.503 459.605C700.188 476.564 708.875 493.264 717.095 510.226C720.494 517.052 722.935 524.424 724.338 532.094C726.369 543.482 724.691 555.366 719.601 565.649C712.79 579.992 704.543 593.458 695.019 605.788C681.818 623.673 668.616 641.557 654.952 659.186C646.471 670.076 637.527 680.71 628.12 691.09C619.805 700.352 609.921 707.699 599.057 712.695C592.645 715.575 585.868 717.277 578.995 717.733C565.592 718.566 552.246 716.013 539.964 710.269C523.273 703.165 506.817 695.801 490.129 688.439C473.675 681.33 456.56 676.177 439.07 673.065C426.455 671.093 413.659 670.664 400.913 671.783C385.791 672.956 370.864 676.534 356.592 682.406C343.346 687.521 330.575 694.089 318.471 702.01C304.06 711.511 290.805 723.047 279.049 736.322C278.11 737.222 216.737 806.945 174.282 818.202C154.034 825.283 103.717 843.356 64.4405 858.997C15.3444 878.548 -73.2892 892.452 -129.771 884.631C-186.254 876.81 -198.419 872.9 -198.419 872.9" stroke="#DFE4E8" stroke-width="1.25" stroke-linecap="round" stroke-linejoin="round"/>
<path d="M45.6709 -138.779C35.5419 -121.781 23.7642 -106.046 10.5525 -91.862C1.32511 -82.2408 -8.6487 -73.5415 -19.2494 -65.8687C-29.5608 -58.319 -39.4119 -50.2567 -49.4907 -42.7086C-62.1512 -32.9936 -73.6093 -21.4664 -83.5597 -8.43404C-94.0469 5.08781 -102.027 20.7479 -107.033 37.6286C-109.203 45.6374 -111.373 53.6462 -113.077 61.6517C-114.059 67.0736 -114.11 72.4891 -114.626 77.9077C-114.898 82.0354 -115.404 86.4226 -115.443 90.5487C-115.499 96.4799 -115.321 102.409 -114.911 108.337C-114.737 114.525 -114.331 120.969 -113.691 127.153C-112.604 139.302 -112.33 151.539 -112.871 163.763C-113.167 170.47 -114.161 177.181 -114.922 183.891C-116.703 200.149 -121.739 215.913 -126.076 231.673C-128.479 239.683 -130.648 247.692 -132.355 255.955C-135.329 269.119 -133.625 282.962 -127.597 294.602C-121.283 306.098 -113.549 316.544 -104.614 325.643C-92.337 338.699 -78.4123 349.716 -63.2604 358.362C-45.2776 369.327 -25.518 376.366 -5.03655 379.102C0.775127 379.835 6.58707 380.568 12.6363 380.784C18.757 381.128 24.896 381.085 31.0239 380.656C39.4847 379.574 47.8919 377.966 56.2053 375.839C72.6523 371.48 88.5299 364.691 103.408 355.656L145.537 330.608C160.416 321.964 175.898 314.698 191.824 308.884C206.305 303.368 221.252 297.849 235.273 291.821C250.085 285.459 264.098 276.95 276.939 266.518C287.963 257.416 298.757 248.058 309.549 238.958C317.571 231.836 326.118 225.479 335.096 219.957C345.671 213.696 357.496 210.591 369.393 210.951C375.526 211.208 381.564 212.559 387.277 214.952C399.642 219.583 411.153 226.57 421.297 235.602C428.917 241.996 436.54 248.132 443.692 254.786C455.462 265.535 466.76 276.802 478.294 287.81C481.524 290.882 484.983 294.21 488.446 297.28C493.983 302.399 499.521 307.518 505.061 312.378C513.138 319.8 521.212 327.48 529.756 334.641C542.226 345.126 555.164 355.351 567.869 365.577C577.572 373.245 587.51 380.654 596.978 388.582C604.831 394.974 612.685 401.366 620.068 408.277C630.462 418.118 639.664 429.405 647.449 441.866C652.723 450.339 657.764 458.813 662.334 467.807C671.101 484.071 677.974 501.522 682.794 519.752C685.36 530.207 686.203 541.119 685.284 551.968C683.978 563.439 680.546 574.525 675.204 584.529C668.163 598.457 659.85 611.563 650.399 623.638C642.329 633.908 633.768 643.695 624.755 652.955C617.125 660.748 608.61 667.397 599.433 672.728C590.692 677.796 580.997 680.431 571.2 680.403C558.465 680.442 545.87 677.908 534.031 672.925C521.739 668.369 509.684 663.296 497.626 658.48C482.926 652.289 467.898 647.056 452.621 642.806C442.336 639.963 431.846 638.052 421.254 637.093C411.645 636.431 401.988 636.671 392.388 637.809C373.513 640.262 356.228 646.828 339.4 654.423C321.323 662.527 304.059 672.763 287.91 684.951C273.632 695.663 260.676 708.415 249.384 722.867C227.278 750.454 209.288 782.591 174.682 796.613C162.299 801.974 126.481 816.981 82.2742 834.122C27.0163 855.549 -66.5838 860.059 -108.309 847.091C-141.689 836.716 -176.348 816.83 -189.504 808.185" stroke="#DFE4E8" stroke-width="1.25" stroke-linecap="round" stroke-linejoin="round"/>
<path d="M67.0799 -138.929C57.8814 -125.972 48.6858 -113.273 39.2546 -100.314C28.0033 -85.3667 15.0445 -72.0978 0.714463 -60.851C-9.60426 -52.5277 -20.8467 -44.9715 -31.3957 -36.9044C-47.5697 -24.6725 -62.1241 -11.4203 -73.2136 4.64419C-86.9963 24.8175 -95.3027 48.869 -97.1376 73.9174C-97.455 82.9448 -98.0026 91.7159 -97.8545 100.74C-97.9174 107.445 -97.2796 113.887 -96.877 120.589C-96.4695 126.774 -95.8269 132.701 -95.885 138.89C-95.5211 149.717 -95.3898 160.547 -95.4889 171.12C-95.8218 177.262 -96.5012 183.381 -97.5228 189.442C-98.284 196.152 -99.2781 202.863 -100.272 209.574C-101.256 215.254 -102.476 221.194 -103.227 226.872C-103.979 232.55 -105.196 238.231 -105.714 243.908C-106.24 250.358 -106.536 257.064 -106.596 263.511C-106.409 275.665 -103.479 287.522 -98.0757 298.006C-91.0005 312.912 -79.9489 325.729 -66.7858 336.725C-53.6809 347.557 -38.8439 355.584 -23.0198 360.402C-13.7559 363.229 -4.27291 365.148 5.32081 366.136C24.4372 367.753 43.7151 364.985 61.9535 358.006C80.1715 351.175 95.858 341.267 111.547 331.101C123.723 323.281 135.899 315.46 148.303 308.154C161.051 301.108 174.352 295.403 188.029 291.117C203.44 285.852 218.845 281.104 233.572 274.297C247.391 268.142 260.516 260.171 272.662 250.56C281.339 243.537 289.786 236.258 298.466 228.978C308.552 220.656 318.408 212.078 330.109 205.292C338.78 200.175 348.278 197.065 358.014 196.154C367.75 195.244 377.518 196.552 386.715 199.999C398.235 204.505 409.074 210.858 418.889 218.857C424.662 223.716 430.905 228.057 436.443 233.175C447.751 243.411 458.589 254.166 469.429 264.663L478.888 273.622C496.197 289.232 513.041 304.844 530.82 319.934C549.1 335.336 568.158 349.581 587.907 362.6C604.096 373.576 620.053 384.553 634.128 397.606C643.78 406.626 652.361 416.96 659.674 428.371C664.261 435.56 668.38 443.009 672.5 450.458C681.625 467.115 689.856 484.364 697.151 502.117C700.872 510.924 703.75 520.15 705.737 529.649C706.985 537.119 707.071 544.793 705.99 552.339C703.483 571.438 693.553 588.01 682.696 604.073C674.668 616.248 666.181 627.911 657.23 639.319C647.338 651.765 637.213 664.213 626.164 675.894C618.331 684.575 609.104 691.552 598.974 696.454C593.028 699.349 586.73 701.219 580.302 701.999C567.018 703.896 554.478 700.889 542.418 696.331C526.419 689.996 510.656 683.143 494.892 676.549C479.391 669.893 463.405 664.658 447.093 660.894C437.727 659.02 428.256 657.794 418.733 657.223C401.562 656.392 384.336 658.601 367.702 663.766C344.902 670.614 323.187 681.475 303.396 695.931C260.362 726.966 227.538 789.053 174.087 807.559C120.637 826.065 89.59 842.422 45.5841 857.09C24.4111 864.148 -51.3616 876.411 -116.205 862.315C-168.08 851.038 -179.921 846.527 -197.4 839.761" stroke="#DFE4E8" stroke-width="1.25" stroke-linecap="round" stroke-linejoin="round"/>
<path d="M-126.885 741.209C-128.723 738.643 -130.794 736.079 -132.631 733.513C-137.457 726.843 -142.281 720.172 -146.874 713.499C-150.897 707.957 -153.197 701.108 -153.44 693.947C-153.22 688.769 -152.064 683.675 -150.041 678.968C-146.47 670.434 -142.205 662.41 -138.171 654.131C-124.829 628.432 -114.777 600.847 -108.309 572.181C-107.09 566.242 -105.87 560.302 -105.117 554.366C-104.113 546.623 -103.575 538.884 -102.804 531.143C-102.14 526.357 -101.938 521.514 -102.203 516.698C-102.594 508.707 -103.913 500.465 -104.536 492.475C-105.693 481.79 -107.777 471.27 -110.758 461.06C-112.327 454.624 -114.832 448.711 -116.634 442.277C-119.793 431.726 -123.188 421.435 -125.649 410.88C-127.213 403.929 -127.148 396.966 -121.969 390.741C-118.531 386.663 -113.854 384.144 -108.869 383.688C-100.478 382.34 -92.8185 384.608 -85.1569 386.617C-70.0663 390.638 -55.4485 395.436 -40.3604 399.715C-26.3756 403.936 -12.079 406.855 2.38206 408.443C9.12476 409.169 16.1028 409.636 22.8479 410.105C27.7334 410.329 32.8492 410.809 37.9723 410.516C51.6937 409.876 65.351 407.795 78.7604 404.301C89.4939 401.39 100.002 397.707 110.279 393.768C130.134 386.152 148.619 375.709 167.787 366.808C185.086 358.694 202.843 351.351 220.603 343.749C242.569 334.313 263.847 323.851 282.595 310.054C293.953 301.77 304.914 292.828 315.43 283.266C321.535 277.55 327.641 271.835 333.976 266.376C342.37 258.869 351.677 252.725 361.611 248.133C372.197 243.521 383.774 242.718 394.681 245.84C405.729 248.936 416.161 254.189 425.491 261.356C441.677 272.589 455.514 286.16 469.824 298.953C478.364 306.63 486.433 314.825 494.737 322.761C503.733 331.466 512.96 340.169 521.953 349.132C543.631 370.383 566.951 390.334 589.568 410.806C602.866 422.394 614.991 435.535 625.741 450.007C637.615 465.981 647.036 484.03 653.635 503.448C656.426 511.184 658.229 519.329 658.993 527.65C659.19 531.517 660.084 535.378 660.048 539.247C659.83 556.014 655.053 572.403 646.341 586.273C641.284 594.462 635.352 601.95 628.676 608.572C620.883 616.217 612.115 622.537 602.666 627.319C595.336 630.904 587.518 633.053 579.565 633.668C564.191 635.064 550.029 631.295 535.874 626.752C518.858 620.873 502.142 614.018 485.794 606.213C476.523 602.152 467.254 597.833 457.749 593.773C447.558 589.224 436.878 586.094 425.951 584.453C413.436 582.864 400.708 584.724 388.894 589.868C374.408 595.9 361.762 604.239 348.885 612.322C332.495 622.751 316.103 633.437 299.941 644.38C204.153 709.234 222.657 744.325 163.275 771.247" stroke="#DFE4E8" stroke-width="1.25" stroke-linecap="round" stroke-linejoin="round"/>
<path d="M104.55 -138.421C100.782 -133.754 96.7821 -129.084 93.012 -124.159C81.4691 -109.38 70.3917 -94.6053 58.8487 -79.8269C42.9201 -59.821 24.5808 -42.3346 4.36472 -27.8758C-9.69746 -17.4636 -23.5267 -7.05297 -35.511 5.14985C-42.3455 12.0878 -48.2946 20.0261 -53.188 28.7382C-57.8646 36.9106 -61.4008 45.8043 -63.6756 55.113C-66.2316 64.5209 -67.6532 74.2426 -67.9033 84.0228C-67.8084 98.7203 -67.2504 113.672 -67.1555 128.37C-67.2813 141.779 -67.64 155.191 -68.2313 168.604C-68.5245 175.052 -69.0507 181.502 -69.8094 187.954C-70.8251 196.987 -72.5387 206.024 -73.7872 215.057C-75.0284 223.318 -76.0371 231.576 -76.5824 240.089C-76.8354 246.714 -76.7423 253.343 -76.3033 259.943C-75.9709 266.911 -74.7013 273.768 -72.5371 280.288C-68.0453 294.852 -60.0403 307.721 -49.3796 317.517C-41.7751 324.792 -33.0949 330.573 -23.7054 334.615C-17.2932 337.209 -10.6972 339.232 -3.97909 340.666C3.40097 342.496 11.0102 343.052 18.5814 342.314C24.2806 341.97 29.9613 341.241 35.5921 340.133C50.3732 337.117 64.56 331.071 77.4198 322.308C91.7075 312.668 105.535 302.515 119.592 292.618C133.313 282.944 148.097 275.298 163.561 269.879C178.038 264.879 192.973 260.649 207.68 255.905C218.564 252.501 229.192 248.115 239.456 242.791C254.311 234.592 268.433 224.821 281.622 213.617C290.064 206.854 297.811 199.838 306.481 193.589C317.301 185.128 329.444 179.005 342.259 175.548C352.606 172.901 363.292 172.564 373.689 174.556C386.024 177.073 397.806 182.059 408.462 189.27C422.178 198.508 435.089 209.12 447.033 220.977C458.795 232.499 470.792 243.761 483.021 255.022C493.867 265.003 505.183 274.465 516.498 283.928C525.506 291.343 534.979 298.755 544.456 305.651C559.304 316.624 574.934 326.259 591.2 334.465C604.637 341.076 618.076 347.429 631.278 354.299C643.897 360.226 655.656 368.133 666.202 377.78C677.275 388.275 684.37 401.119 691.232 413.964C697.865 426.295 703.333 438.892 709.734 451.225C717.298 465.795 726.474 479.242 737.055 491.262C769.018 520.678 767.225 556.548 745.769 582.229C735.188 593.648 724.375 605.069 714.486 617.258C699.65 635.669 685.508 654.591 670.903 673.259C662.422 684.148 653.711 694.781 644.767 705.415C637.117 714.573 628.057 722.149 618.025 727.777C610.34 732.107 602.035 734.873 593.51 735.942C580.461 737.579 568.618 734.825 557.018 730.78C541.707 725.471 527.584 717.576 512.986 710.715C494.508 701.312 475.036 694.434 454.992 690.232C447.335 688.649 439.553 687.84 431.74 687.815C425.921 687.855 419.874 687.382 414.051 687.938C406.228 688.689 398.445 689.948 390.741 691.71C373.316 696.091 356.589 703.519 341.193 713.715C282.039 750.37 247.766 808.714 174.471 827.611C155.753 833.728 112.583 848.396 89.6422 858.128C60.9666 870.293 -41.1358 908.962 -117.17 904.183C-177.997 900.359 -199.286 896.796 -202.327 895.493" stroke="#DFE4E8" stroke-width="1.25" stroke-linecap="round" stroke-linejoin="round"/>
<path d="M-99.8663 715.235C-80.5044 765.64 -67.4572 764.949 -39.9569 782.419C0.695012 808.243 7.58162 815.509 78.4233 797.799C149.265 780.088 199.845 721.66 204.808 713.632C211.924 702.199 219.807 691.369 228.386 681.235C241.333 665.673 256.821 652.157 273.002 639.151C286.133 628.745 300.19 618.849 313.091 608.187C327.626 596.111 341.576 583.189 354.882 569.475C362.417 561.417 370.764 554.348 379.751 548.415C389.349 542.265 400.254 539.155 411.255 539.429C417.221 539.662 423.139 540.572 428.918 542.142C438.706 545.004 448.124 549.182 456.963 554.583C474.786 565.031 492.607 575.737 510.901 585.667C526.426 594.149 543.246 599.447 560.561 601.309C572.122 602.816 583.887 601.14 594.819 596.429C603.359 592.722 611.11 587.04 617.551 579.768C623.385 573.445 627.976 565.858 631.027 557.498C634.366 548.483 635.579 538.71 634.551 529.109C633.676 523.184 633.036 517 631.695 511.078C627.442 493.058 618.754 476.357 607.727 460.962C594.941 442.591 578.677 427.049 562.166 411.271L561.88 410.998C558.192 407.155 554.034 403.832 550.346 399.99C539.281 389.242 528.449 378.493 517.617 367.744L517.6 367.727C510.452 360.557 503.304 353.386 495.923 346.217C485.085 335.463 474.247 324.708 462.941 314.214C455.098 306.791 446.318 299.889 437.772 292.987C427.711 284.367 416.466 277.571 404.446 272.847C398.662 270.724 392.658 269.381 386.562 268.846C379.965 268.513 373.359 269.791 367.21 272.591C357.169 277.053 347.832 283.304 339.573 291.091C330.185 299.408 321.255 308.495 311.865 317.07C305.292 323.046 298.257 328.768 291.453 334.488C270.305 352.277 246.752 366.2 221.709 375.716C210.268 379.92 198.823 384.383 187.379 388.845L187.373 388.847C173.592 394.1 159.809 399.611 145.795 404.866C133.418 409.336 120.805 414.065 108.197 418.278C95.1431 422.733 81.8029 426.016 68.3067 428.097C59.6493 429.453 50.9397 430.288 42.2162 430.599C28.9373 431.25 15.6482 430.998 2.4242 429.844C-2.92193 429.108 -8.27513 429.145 -13.6237 428.666C-20.6016 428.199 -27.5722 426.958 -34.5525 426.749C-41.5328 426.54 -48.5179 426.846 -55.5055 427.411C-66.9179 428.263 -74.417 433.731 -78.4658 443.558C-81.3266 450.798 -81.6271 458.02 -82.1627 465.502C-82.6839 471.436 -81.811 477.619 -81.8667 483.55C-82.2276 497.219 -82.5911 511.146 -82.9521 524.815C-82.9763 527.394 -83.4684 530.234 -83.7278 533.072C-84.489 539.782 -85.4802 546.235 -86.4741 552.947C-87.2183 557.851 -87.7325 563.012 -88.7095 567.918C-90.9035 578.506 -93.3322 589.353 -95.5262 599.94C-98.4499 613.885 -101.607 627.832 -104.298 641.775C-106.083 651.249 -107.416 660.812 -108.29 670.425C-108.578 676.571 -108.166 682.719 -107.065 688.725C-105.127 697.715 -99.8663 715.235 -99.8663 715.235Z" stroke="#DFE4E8" stroke-width="1.25" stroke-linecap="round" stroke-linejoin="round"/>
<path d="M-65.6088 560.805C-66.3458 564.936 -67.3155 569.069 -68.0525 573.199C-83.2077 647.014 -59.7577 767.442 23.0798 791.603C63.9617 803.527 146.188 773.78 180.344 715.617C186.963 704.741 193.814 693.863 200.896 683.241C212.473 666.33 225.91 651.074 240.888 637.837C248.399 631.081 256.606 624.577 264.117 617.82C275.384 607.685 286.65 597.551 297.454 587.161C310.84 574.433 320.753 559.666 330.437 544.642C336.871 533.882 344.214 523.814 352.364 514.578C360.395 506.216 370.122 500.128 380.692 496.846C392.355 493.418 404.507 492.806 416.318 495.051C430.12 497.487 443.486 502.173 455.987 508.958C467.334 515.068 477.975 521.956 488.617 528.844C502.267 537.517 515.447 546.708 531.217 552.787C541.494 557.143 552.442 559.339 563.507 559.267C568.989 559.061 574.42 557.891 579.599 555.803C595.021 549.249 600.951 537.346 602.478 523.411C602.914 513.664 601.333 503.973 597.857 495.078C592.89 482.635 586.25 471.12 578.161 460.92C567.864 447.897 556.949 435.493 545.461 423.757C533.248 410.691 521.033 397.883 508.587 384.819C494.987 370.731 481.392 356.127 467.325 342.301C455.779 330.687 443.07 320.569 429.438 312.136C420.414 306.526 410.919 301.435 399.296 299.969C390.29 298.616 381.081 300.11 372.723 304.279C363.051 309.201 354.175 315.889 346.47 324.059C338.006 333.143 329.312 341.971 320.848 351.055C308.857 364.031 297.326 377.52 282.791 388.71C272.331 396.897 260.806 403.242 248.634 407.513C236.026 411.727 223.196 414.91 210.13 418.353C194.266 422.331 178.174 425.795 162.308 430.032C145.976 434.271 129.87 439.282 113.769 443.778C95.4427 448.906 76.8136 452.484 58.0433 454.48C49.1888 455.573 40.1065 456.152 31.2593 456.471C22.4121 456.791 13.3322 457.112 4.4874 457.173C-3.08718 457.219 -10.653 458.048 -18.1117 459.651C-27.8488 461.217 -36.8162 466.584 -43.3899 474.783C-49.2838 482.817 -51.9263 491.603 -54.1058 500.643C-55.8004 507.617 -56.7966 514.587 -58.2609 521.817C-59.7252 529.047 -61.1869 536.02 -62.416 542.99C-63.6354 548.93 -64.6222 554.867 -65.6088 560.805Z" stroke="#DFE4E8" stroke-width="1.25" stroke-linecap="round" stroke-linejoin="round"/>
<path d="M-46.0277 632.865C-45.6379 640.063 -44.7715 647.21 -43.4354 654.25C-36.7988 682.495 -39.0086 682.003 -19.8038 740.211C-0.598948 798.42 81.0715 806.264 140.825 736.258C165.127 707.787 171.356 675.299 195.902 645.881C208.379 630.838 223.165 617.585 237.489 604.076C246.414 595.505 255.569 587.189 263.798 578.365C273.451 568.214 281.441 556.287 287.402 543.132C292.325 532.286 295.731 520.696 297.5 508.766L297.532 508.51C298.527 500.6 299.491 492.94 297.72 485.299C296.844 481.317 295.2 477.606 292.9 474.418C290.601 471.23 287.7 468.641 284.394 466.826C277.009 463.088 269.08 460.789 260.951 460.026C250.454 458.77 239.893 458.154 229.316 458.183C222.103 457.976 214.647 458.801 207.427 459.367C199.741 459.936 192.283 461.019 184.594 461.847C168.513 464.092 152.55 467.389 136.79 471.72C119.995 475.705 103.659 480.46 86.8686 483.929C71.2448 487.132 55.6305 489.303 40.0164 491.475C30.2783 492.55 20.6141 494.428 11.1039 497.091C-0.455318 500.382 -10.8571 507.577 -18.6472 517.669C-26.6601 528.297 -31.1965 540.448 -35.0343 552.594C-39.554 566.319 -42.7303 580.519 -44.5083 594.949C-45.2719 601.917 -46.2683 608.886 -46.5664 615.85C-46.7356 621.535 -46.5556 627.22 -46.0277 632.865Z" stroke="#DFE4E8" stroke-width="1.25" stroke-linecap="round" stroke-linejoin="round"/>
<path d="M-5.14444 664.807C0.0638461 680.242 5.97546 695.157 10.951 710.594C39.3366 802.628 119.086 720.861 142.298 677.19C149.446 663.437 157.504 650.279 166.407 637.827C179.608 619.943 195.816 604.101 212.024 588.258C220.357 580.722 227.999 572.289 234.836 563.087C242.618 552.203 248.078 540.819 247.271 527.674C246.868 521.499 244.439 515.738 240.44 511.476C234.452 504.813 226.339 501.26 217.278 499.518C208.766 497.941 200.109 497.396 191.459 497.892C182.707 498.418 173.987 499.599 165.359 501.426C146.932 505.68 129.415 512.248 111.902 518.301C96.4896 523.823 80.6191 528.575 64.5225 532.555C54.2594 534.947 43.9935 537.597 33.7231 540.763C24.7926 543.405 16.4768 548.221 9.38601 554.856C1.82285 562.134 -4.08868 571.282 -7.85452 581.536C-11.203 590.274 -13.3301 599.507 -14.1623 608.913C-15.0613 618.056 -14.677 627.274 -13.0225 636.239C-10.9976 645.962 -8.36532 655.508 -5.14444 664.807Z" stroke="#DFE4E8" stroke-width="1.25" stroke-linecap="round" stroke-linejoin="round"/>
<path d="M515.072 462.633C511.508 470.393 506.15 470.946 498.713 469.709C485.468 467.48 472.943 462.926 460.178 459.146C447.412 455.367 435.108 452.101 422.34 448.579C407.016 444.56 391.688 441.057 376.37 436.522C366.621 433.753 358.29 428.654 353.95 419.917C351.28 414.615 350.509 408.368 351.787 402.397C352.478 398.085 353.531 393.848 354.931 389.74C358.862 377.912 365.173 367.195 373.379 358.41C378.171 353.184 383.823 349.027 390.018 346.175C399.599 341.993 410.146 341.645 419.818 345.194C429.431 348.693 438.427 353.946 446.438 360.739C466.07 376.848 481.017 396.083 494.559 416.36C501.851 426.759 507.922 438.152 512.628 450.272C514.161 453.973 514.918 458.021 514.844 462.118" stroke="#DFE4E8" stroke-width="1.25" stroke-linecap="round" stroke-linejoin="round"/>
</g>
<defs>
<clipPath id="clip0_1678_4439">
<rect width="770" height="913" fill="white" transform="matrix(-1 0 0 1 770.309 0.413269)"/>
</clipPath>
</defs>
</svg>
