<svg width="974" height="914" viewBox="0 0 974 914" fill="none" xmlns="http://www.w3.org/2000/svg">
<g clip-path="url(#clip0_631_16473)">
<path d="M896.767 520.493C896.324 530.85 898.467 598.93 931.441 654.657C992.108 757.181 849.99 817.28 779.908 833.006C709.827 848.732 642.725 794.764 598.171 781.594C553.617 768.424 535.287 702.977 495.546 672.162C483.794 662.931 471.507 654.575 458.771 647.152C441.006 636.328 422.558 626.977 403.581 619.177C387.461 612.618 370.901 608.893 353.231 610.833C344.749 611.61 336.354 613.191 328.139 615.558C311.193 620.34 294.966 627.189 278.734 633.523C265.052 638.842 251.6 643.906 237.68 648.709C226.54 652.772 214.846 654.781 203.058 654.657C193.575 654.299 184.219 651.868 175.527 647.503C163.435 641.152 152.405 632.523 142.937 622.006C128.126 606.173 116.326 588.815 109.622 568.913C106.918 560.948 105.348 552.585 104.968 544.126C104.957 538.687 105.295 533.26 105.979 527.887C106.911 518.658 109.02 509.644 112.245 501.113C118.296 484.203 126.112 468.162 135.536 453.313C146.18 436.633 158.885 421.708 173.29 408.966C189.678 394.381 207.004 380.577 223.625 365.995C237.704 353.457 251.549 340.661 265.393 327.864C272.316 321.465 279.468 314.811 286.388 308.155C299.076 296.123 311.764 284.092 324.685 272.062C330.222 266.944 335.993 261.827 341.766 256.967C351.448 248.544 361.909 241.272 372.982 235.266C381.371 230.741 390.534 228.172 399.91 227.718C407.699 227.526 415.47 229.07 422.761 232.26C432.612 236.763 441.842 242.821 450.161 250.243C465.411 263.242 479.504 277.007 495.909 288.983C508.415 298.318 521.751 306.19 535.695 312.467C550.654 319.275 566.304 325.315 581.492 331.609C600.653 339.736 618.662 349.144 636.677 359.068C646.738 364.811 657.03 370.298 667.553 375.528C681.174 382.277 695.332 387.557 709.827 391.294C720.435 393.817 731.188 395.443 741.991 396.159C754.682 396.897 767.386 396.208 779.908 394.102C796.727 391.264 813.215 386.541 829.118 380.004C848.592 371.888 866.415 361.44 884.476 351.509C893.512 345.889 903.408 342.116 913.697 340.366C918.776 339.737 923.935 340.3 928.841 342.018C933.676 343.758 938.143 346.601 941.952 350.361C952.756 360.751 955.893 372.634 952.991 385.765C951.211 394.52 946.395 402.222 941.347 409.923C934.691 419.933 927.803 429.942 921.383 440.212C913.102 453.227 906.72 467.623 902.465 482.885C900.776 489.568 899.44 496.36 898.467 503.228C897.556 508.929 896.989 514.697 896.767 520.493Z" stroke="#F2F4F6" stroke-width="1.25" stroke-linecap="round" stroke-linejoin="round"/>
<path d="M687.162 -139.538C691.642 -133.318 695.888 -127.358 700.366 -121.396C710.263 -108.434 719.926 -95.4738 730.286 -82.7666C740.052 -70.8445 751.096 -60.2871 763.165 -51.3367C774.885 -42.4879 786.835 -33.8954 798.325 -24.7903C815.908 -11.2593 830.719 4.5733 840.671 23.4664C846.078 33.6069 850.029 44.5978 852.381 56.0384C854.229 64.3296 855.168 72.8212 855.179 81.3283C855.208 84.4228 855.932 87.2643 855.729 90.3572C855.576 98.8656 855.19 107.372 854.807 116.137C854.404 122.839 854.004 129.798 853.834 136.501C853.463 146.555 853.324 156.611 853.421 166.926C853.719 173.89 854.716 180.86 855.479 187.827C856.233 193.763 856.754 199.698 857.506 205.376C858.252 210.538 859.232 215.702 859.976 220.607C860.478 224.478 861.445 228.353 861.714 232.223C862.641 240.273 863.106 248.373 863.105 256.471C862.632 280.449 854.459 302.311 836.71 320.753C825.748 332.159 812.873 341.087 798.787 347.049C789.014 351.362 778.678 353.986 768.138 354.83C762.74 355.521 757.301 355.828 751.855 355.748C738.851 355.181 725.964 352.484 713.61 347.746C694.459 340.651 678.062 329.449 661.665 318.247C645.268 307.045 628.631 295.067 609.475 287.456C601.064 284.045 592.19 280.889 583.551 277.993C566.975 272.462 550.403 267.448 534.741 260.119C523.212 254.855 512.222 248.206 501.971 240.293C491.42 231.969 481.093 222.872 470.542 214.547C460.458 206.483 450.607 198.421 438.218 192.662C428.805 188.144 418.699 185.756 408.501 185.641C398.304 185.526 388.224 187.685 378.863 191.991C370.965 195.681 363.376 200.114 356.179 205.242C349.39 209.846 342.906 214.97 336.772 220.579C328.232 228.255 320.394 236.194 312.089 244.13C309.09 246.946 306.324 249.763 303.322 252.321C285.322 268.699 267.557 285.336 249.086 301.195C234.208 314.209 218.534 326.075 202.172 336.712C183.433 348.701 164.458 360.431 145.951 372.422C128.754 383.515 113.909 398.521 102.376 416.471C93.6618 430.335 86.1186 444.98 78.8058 459.37C70.1207 476.328 61.4332 493.029 53.2136 509.99C49.8149 516.817 47.3734 524.189 45.9711 531.858C43.94 543.246 45.6174 555.131 50.7077 565.413C57.5182 579.756 65.7653 593.222 75.2897 605.553C88.491 623.437 101.692 641.321 115.357 658.951C123.838 669.84 132.781 680.474 142.188 690.854C150.504 700.116 160.387 707.463 171.251 712.459C177.663 715.34 184.441 717.042 191.314 717.498C204.716 718.33 218.063 715.778 230.345 710.033C247.036 702.929 263.491 695.566 280.18 688.204C296.634 681.095 313.748 675.941 331.239 672.829C343.854 670.858 356.649 670.428 369.396 671.548C384.518 672.721 399.445 676.298 413.717 682.17C426.963 687.286 439.734 693.854 451.838 701.775C466.249 711.276 479.503 722.812 491.26 736.087C492.198 736.986 553.571 806.709 596.026 817.966C616.275 825.048 666.591 843.12 705.868 858.761C754.964 878.313 843.598 892.216 900.08 884.396C956.562 876.575 968.728 872.665 968.728 872.665" stroke="#F2F4F6" stroke-width="1.25" stroke-linecap="round" stroke-linejoin="round"/>
<path d="M724.638 -139.015C734.767 -122.016 746.544 -106.282 759.756 -92.0976C768.983 -82.4763 778.957 -73.777 789.558 -66.1042C799.869 -58.5545 809.721 -50.4922 819.799 -42.9442C832.46 -33.2291 843.918 -21.702 853.868 -8.66957C864.355 4.85228 872.336 20.5124 877.342 37.3931C879.511 45.4019 881.681 53.4106 883.385 61.4162C884.367 66.8381 884.418 72.2535 884.935 77.6722C885.206 81.7999 885.713 86.1871 885.752 90.3132C885.807 96.2444 885.63 102.174 885.22 108.102C885.045 114.289 884.64 120.733 884 126.917C882.913 139.067 882.639 151.304 883.179 163.528C883.475 170.234 884.469 176.946 885.23 183.655C887.012 199.913 892.048 215.678 896.385 231.437C898.787 239.448 900.957 247.457 902.664 255.72C905.638 268.883 903.934 282.726 897.906 294.366C891.591 305.862 883.857 316.308 874.923 325.408C862.646 338.463 848.721 349.48 833.569 358.126C815.586 369.092 795.827 376.13 775.345 378.866C769.533 379.599 763.722 380.332 757.672 380.548C751.552 380.892 745.413 380.85 739.285 380.42C730.824 379.338 722.417 377.73 714.103 375.604C697.656 371.244 681.779 364.455 666.9 355.42L624.772 330.372C609.893 321.729 594.41 314.462 578.485 308.648C564.003 303.132 549.056 297.613 535.035 291.585C520.223 285.224 506.211 276.715 493.37 266.283C482.345 257.181 471.551 247.823 460.76 238.723C452.737 231.601 444.191 225.244 435.213 219.721C424.638 213.46 412.812 210.355 400.915 210.715C394.783 210.973 388.744 212.324 383.032 214.717C370.666 219.348 359.155 226.335 349.012 235.367C341.392 241.76 333.769 247.896 326.616 254.551C314.847 265.299 303.548 276.566 292.015 287.574C288.785 290.646 285.325 293.974 281.863 297.045C276.325 302.163 270.787 307.282 265.247 312.143C257.171 319.565 249.097 327.244 240.552 334.405C228.082 344.891 215.145 355.115 202.44 365.341C192.737 373.01 182.799 380.419 173.331 388.346C165.477 394.738 157.624 401.13 150.241 408.041C139.846 417.883 130.645 429.17 122.859 441.631C117.586 450.103 112.545 458.578 107.975 467.571C99.2079 483.835 92.3345 501.286 87.515 519.517C84.9488 529.972 84.1053 540.883 85.0244 551.732C86.3303 563.203 89.7625 574.29 95.1048 584.293C102.146 598.221 110.459 611.328 119.91 623.402C127.98 633.673 136.541 643.459 145.554 652.719C153.183 660.512 161.699 667.162 170.875 672.493C179.617 677.56 189.311 680.195 199.109 680.167C211.843 680.207 224.439 677.673 236.277 672.69C248.57 668.134 260.625 663.06 272.682 658.245C287.383 652.054 302.41 646.82 317.688 642.57C327.972 639.727 338.462 637.816 349.054 636.857C358.664 636.196 368.32 636.435 377.921 637.574C396.796 640.026 414.08 646.593 430.909 654.188C448.986 662.292 466.25 672.527 482.398 684.716C496.676 695.428 509.633 708.179 520.924 722.631C543.031 750.218 561.021 782.355 595.626 796.378C608.01 801.738 643.828 816.745 688.034 833.886C743.292 855.313 836.892 859.824 878.618 846.855C911.998 836.48 946.656 816.595 959.813 807.949" stroke="#F2F4F6" stroke-width="1.25" stroke-linecap="round" stroke-linejoin="round"/>
<path d="M703.229 -139.164C712.427 -126.207 721.623 -113.508 731.054 -100.549C742.305 -85.6022 755.264 -72.3333 769.594 -61.0866C779.913 -52.7632 791.155 -45.207 801.704 -37.14C817.878 -24.908 832.433 -11.6559 843.522 4.40866C857.305 24.582 865.611 48.6335 867.446 73.6819C867.764 82.7092 868.311 91.4804 868.163 100.505C868.226 107.209 867.588 113.651 867.186 120.353C866.778 126.539 866.136 132.465 866.194 138.654C865.83 149.482 865.698 160.311 865.798 170.884C866.13 177.026 866.81 183.146 867.831 189.207C868.593 195.916 869.587 202.628 870.581 209.339C871.565 215.019 872.784 220.958 873.536 226.636C874.287 232.314 875.504 237.996 876.023 243.672C876.549 250.123 876.845 256.829 876.905 263.276C876.717 275.429 873.788 287.287 868.384 297.77C861.309 312.677 850.258 325.493 837.094 336.49C823.989 347.322 809.153 355.349 793.328 360.166C784.065 362.994 774.582 364.912 764.988 365.9C745.871 367.517 726.594 364.75 708.355 357.77C690.137 350.939 674.451 341.032 658.761 330.866C646.586 323.045 634.409 315.225 622.005 307.918C609.257 300.872 595.956 295.168 582.279 290.881C566.869 285.617 551.464 280.868 536.737 274.061C522.918 267.906 509.792 259.936 497.646 250.324C488.969 243.301 480.522 236.023 471.842 228.742C461.756 220.42 451.901 211.842 440.2 205.057C431.528 199.939 422.031 196.829 412.294 195.919C402.558 195.008 392.79 196.317 383.594 199.764C372.073 204.27 361.235 210.623 351.42 218.622C345.647 223.481 339.403 227.821 333.866 232.94C322.557 243.176 311.72 253.931 300.879 264.427L291.421 273.387C274.111 288.996 257.268 304.608 239.488 319.699C221.209 335.101 202.15 349.345 182.401 362.365C166.212 373.34 150.256 384.317 136.181 397.37C126.529 406.39 117.947 416.725 110.635 428.136C106.048 435.324 101.928 442.773 97.809 450.223C88.6838 466.88 80.4525 484.129 73.1572 501.882C69.4363 510.688 66.5587 519.915 64.5712 529.413C63.3231 536.884 63.2378 544.557 64.3186 552.103C66.8252 571.202 76.7559 587.774 87.6127 603.837C95.6401 616.013 104.128 627.675 113.079 639.084C122.971 651.53 133.096 663.978 144.144 675.658C151.977 684.339 161.205 691.317 171.335 696.218C177.281 699.113 183.578 700.984 190.006 701.763C203.29 703.661 215.83 700.653 227.89 696.096C243.89 689.761 259.652 682.908 275.417 676.313C290.918 669.658 306.903 664.422 323.215 660.658C332.581 658.784 342.053 657.559 351.575 656.987C368.746 656.156 385.973 658.365 402.607 663.531C425.407 670.378 447.121 681.239 466.913 695.695C509.947 726.731 542.771 788.817 596.221 807.323C649.672 825.83 680.719 842.186 724.724 856.855C745.897 863.912 821.67 876.176 886.514 862.079C938.388 850.802 950.229 846.291 967.709 839.525" stroke="#F2F4F6" stroke-width="1.25" stroke-linecap="round" stroke-linejoin="round"/>
<path d="M897.194 740.974C899.032 738.408 901.102 735.844 902.94 733.278C907.765 726.607 912.59 719.936 917.182 713.264C921.206 707.722 923.506 700.872 923.748 693.712C923.528 688.534 922.373 683.44 920.349 678.732C916.778 670.198 912.514 662.175 908.479 653.895C895.137 628.197 885.085 600.611 878.618 571.945C877.399 566.006 876.179 560.067 875.425 554.131C874.422 546.388 873.884 538.648 873.113 530.907C872.448 526.121 872.247 521.279 872.512 516.463C872.903 508.472 874.221 500.229 874.845 492.24C876.002 481.554 878.086 471.034 881.067 460.824C882.636 454.388 885.141 448.475 886.942 442.041C890.102 431.491 893.496 421.2 895.957 410.645C897.521 403.693 897.456 396.73 892.277 390.506C888.84 386.427 884.162 383.909 879.177 383.452C870.786 382.105 863.127 384.372 855.465 386.382C840.375 390.403 825.757 395.2 810.669 399.479C796.684 403.7 782.388 406.62 767.927 408.207C761.184 408.934 754.206 409.401 747.461 409.87C742.575 410.094 737.459 410.574 732.336 410.28C718.615 409.64 704.958 407.559 691.548 404.066C680.815 401.155 670.307 397.472 660.029 393.532C640.175 385.916 621.69 375.473 602.522 366.573C585.223 358.459 567.466 351.115 549.706 343.513C527.74 334.078 506.462 323.615 487.713 309.818C476.355 301.535 465.395 292.593 454.878 283.03C448.773 277.315 442.668 271.599 436.333 266.14C427.939 258.633 418.631 252.489 408.698 247.898C398.112 243.285 386.534 242.483 375.627 245.605C364.579 248.7 354.147 253.953 344.818 261.12C328.631 272.354 314.794 285.924 300.484 298.718C291.945 306.394 283.876 314.59 275.571 322.525C266.576 331.23 257.348 339.933 248.356 348.896C226.677 370.148 203.357 390.099 180.74 410.57C167.443 422.159 155.317 435.3 144.568 449.772C132.693 465.746 123.272 483.794 116.674 503.213C113.882 510.948 112.079 519.093 111.315 527.415C111.119 531.281 110.224 535.143 110.261 539.011C110.478 555.779 115.256 572.168 123.968 586.037C129.024 594.226 134.957 601.715 141.633 608.336C149.425 615.981 158.194 622.301 167.643 627.083C174.973 630.669 182.791 632.817 190.744 633.432C206.118 634.829 220.28 631.059 234.435 626.516C251.451 620.638 268.167 613.782 284.514 605.977C293.786 601.916 303.055 597.597 312.559 593.537C322.751 588.988 333.431 585.858 344.357 584.218C356.873 582.629 369.601 584.489 381.414 589.632C395.901 595.664 408.547 604.004 421.424 612.087C437.813 622.515 454.206 633.201 470.368 644.144C566.155 708.998 547.651 744.089 607.033 771.012" stroke="#F2F4F6" stroke-width="1.25" stroke-linecap="round" stroke-linejoin="round"/>
<path d="M665.759 -138.657C669.526 -133.989 673.526 -129.32 677.297 -124.394C688.84 -109.616 699.917 -94.8408 711.46 -80.0625C727.389 -60.0565 745.728 -42.5702 765.944 -28.1113C780.006 -17.6991 793.835 -7.2885 805.82 4.91432C812.654 11.8522 818.603 19.7906 823.497 28.5026C828.173 36.675 831.709 45.5688 833.984 54.8775C836.54 64.2854 837.962 74.0071 838.212 83.7873C838.117 98.4847 837.559 113.437 837.464 128.134C837.59 141.544 837.949 154.955 838.54 168.368C838.833 174.817 839.359 181.267 840.118 187.719C841.134 196.751 842.847 205.788 844.096 214.822C845.337 223.082 846.346 231.341 846.891 239.854C847.144 246.478 847.051 253.107 846.612 259.707C846.28 266.675 845.01 273.532 842.846 280.052C838.354 294.616 830.349 307.486 819.688 317.281C812.084 324.556 803.404 330.337 794.014 334.379C787.602 336.973 781.006 338.997 774.288 340.431C766.908 342.26 759.298 342.816 751.727 342.079C746.028 341.734 740.347 341.006 734.717 339.898C719.935 336.881 705.749 330.836 692.889 322.072C678.601 312.432 664.774 302.279 650.717 292.383C636.996 282.708 622.211 275.062 606.748 269.643C592.271 264.643 577.336 260.413 562.629 255.67C551.744 252.266 541.116 247.88 530.853 242.556C515.997 234.357 501.876 224.586 488.686 213.382C480.244 206.619 472.498 199.603 463.828 193.354C453.008 184.893 440.865 178.77 428.049 175.312C417.702 172.665 407.016 172.328 396.62 174.32C384.285 176.838 372.503 181.823 361.846 189.034C348.13 198.272 335.22 208.884 323.275 220.741C311.514 232.263 299.517 243.526 287.287 254.786C276.442 264.768 265.126 274.23 253.81 283.692C244.803 291.107 235.33 298.519 225.852 305.416C211.005 316.388 195.374 326.023 179.109 334.229C165.672 340.84 152.232 347.193 139.03 354.064C126.412 359.991 114.653 367.897 104.107 377.544C93.0336 388.039 85.9388 400.883 79.077 413.728C72.4431 426.06 66.9758 438.657 60.5747 450.99C53.0111 465.559 43.8342 479.007 33.2536 491.026C1.29079 520.443 3.08358 556.313 24.5397 581.993C35.1202 593.413 45.9335 604.834 55.823 617.022C70.6584 635.433 84.8005 654.356 99.4056 673.023C107.886 683.912 116.597 694.545 125.541 705.18C133.192 714.337 142.252 721.913 152.284 727.542C159.968 731.872 168.274 734.638 176.798 735.706C189.847 737.344 201.691 734.59 213.29 730.545C228.601 725.236 242.725 717.341 257.323 710.48C275.8 701.076 295.273 694.198 315.317 689.996C322.974 688.413 330.756 687.604 338.568 687.579C344.387 687.62 350.434 687.146 356.258 687.702C364.08 688.453 371.864 689.713 379.568 691.474C396.993 695.855 413.72 703.284 429.115 713.479C488.269 750.135 522.542 808.479 595.838 827.376C614.555 833.493 657.726 848.16 680.666 857.892C709.342 870.058 811.444 908.726 887.478 903.947C948.305 900.124 969.595 896.561 972.636 895.257" stroke="#F2F4F6" stroke-width="1.25" stroke-linecap="round" stroke-linejoin="round"/>
<path d="M870.175 714.999C850.813 765.405 837.766 764.713 810.265 782.183C769.614 808.008 762.727 815.274 691.885 797.563C621.044 779.853 570.463 721.424 565.5 713.396C558.384 701.964 550.502 691.134 541.922 681C528.975 665.438 513.488 651.921 497.306 638.916C484.175 628.51 470.118 618.613 457.217 607.951C442.683 595.876 428.732 582.953 415.426 569.239C407.892 561.181 399.545 554.113 390.558 548.18C380.959 542.03 370.054 538.919 359.053 539.193C353.087 539.427 347.169 540.336 341.391 541.907C331.602 544.769 322.184 548.946 313.345 554.347C295.522 564.796 277.701 575.502 259.408 585.431C243.883 593.913 227.063 599.211 209.748 601.073C198.187 602.58 186.421 600.904 175.489 596.193C166.95 592.486 159.198 586.805 152.757 579.532C146.924 573.21 142.332 565.623 139.282 557.262C135.943 548.248 134.73 538.474 135.757 528.873C136.633 522.948 137.273 516.764 138.614 510.843C142.867 492.822 151.554 476.121 162.582 460.726C175.368 442.356 191.632 426.814 208.142 411.036L208.428 410.762C212.116 406.92 216.274 403.597 219.962 399.754C231.027 389.007 241.86 378.258 252.692 367.508L252.709 367.492C259.857 360.321 267.005 353.151 274.385 345.982C285.223 335.227 296.061 324.472 307.367 313.979C315.211 306.555 323.99 299.654 332.537 292.751C342.598 284.131 353.843 277.335 365.863 272.612C371.646 270.489 377.651 269.145 383.747 268.61C390.344 268.277 396.95 269.555 403.099 272.355C413.139 276.818 422.477 283.068 430.736 290.855C440.124 299.172 449.053 308.259 458.443 316.834C465.016 322.811 472.052 328.533 478.855 334.253C500.004 352.041 523.557 365.964 548.599 375.48C560.041 379.685 571.485 384.147 582.93 388.61L582.935 388.612C596.716 393.865 610.5 399.376 624.514 404.63C636.891 409.1 649.504 413.829 662.111 418.043C675.166 422.497 688.506 425.781 702.002 427.861C710.659 429.217 719.369 430.052 728.092 430.363C741.371 431.014 754.66 430.762 767.884 429.609C773.231 428.872 778.584 428.909 783.932 428.431C790.91 427.964 797.881 426.723 804.861 426.514C811.841 426.304 818.827 426.611 825.814 427.175C837.226 428.028 844.726 433.495 848.774 443.322C851.635 450.562 851.936 457.784 852.471 465.266C852.992 471.2 852.12 477.383 852.175 483.314C852.536 496.983 852.9 510.911 853.261 524.58C853.285 527.158 853.777 529.998 854.036 532.837C854.798 539.546 855.789 546 856.783 552.711C857.527 557.616 858.041 562.776 859.018 567.683C861.212 578.27 863.641 589.117 865.835 599.705C868.758 613.65 871.915 627.596 874.606 641.539C876.391 651.013 877.724 660.577 878.599 670.19C878.886 676.335 878.474 682.483 877.374 688.489C875.435 697.479 870.175 714.999 870.175 714.999Z" stroke="#F2F4F6" stroke-width="1.25" stroke-linecap="round" stroke-linejoin="round"/>
<path d="M835.917 560.57C836.654 564.7 837.624 568.833 838.361 572.964C853.516 646.779 830.066 767.207 747.229 791.368C706.347 803.292 624.121 773.545 589.965 715.381C583.346 704.505 576.494 693.627 569.413 683.006C557.836 666.095 544.398 650.839 529.421 637.602C521.909 630.845 513.703 624.342 506.192 617.585C494.925 607.45 483.658 597.315 472.855 586.925C459.469 574.197 449.555 559.43 439.872 544.407C433.438 533.646 426.095 523.578 417.945 514.342C409.913 505.98 400.187 499.892 389.617 496.611C377.953 493.183 365.801 492.571 353.99 494.816C340.189 497.251 326.822 501.937 314.322 508.722C302.975 514.832 292.333 521.72 281.692 528.609C268.041 537.281 254.861 546.473 239.092 552.552C228.815 556.907 217.867 559.104 206.801 559.031C201.32 558.825 195.888 557.656 190.71 555.567C175.287 549.013 169.357 537.111 167.83 523.175C167.395 513.428 168.975 503.737 172.452 494.843C177.419 482.399 184.058 470.885 192.147 460.684C202.445 447.662 213.36 435.257 224.848 423.522C237.061 410.456 249.276 397.648 261.721 384.583C275.321 370.495 288.916 355.892 302.984 342.065C314.53 330.451 327.238 320.333 340.87 311.901C349.895 306.291 359.389 301.199 371.013 299.733C380.018 298.381 389.228 299.875 397.586 304.044C407.257 308.966 416.134 315.654 423.839 323.824C432.303 332.908 440.997 341.735 449.46 350.819C461.452 363.796 472.983 377.285 487.518 388.474C497.978 396.661 509.503 403.006 521.675 407.278C534.282 411.491 547.113 414.675 560.179 418.118C576.043 422.096 592.134 425.56 608 429.796C624.332 434.035 640.438 439.047 656.54 443.542C674.866 448.671 693.495 452.248 712.265 454.244C721.12 455.337 730.202 455.916 739.049 456.236C747.896 456.555 756.976 456.876 765.821 456.938C773.396 456.983 780.962 457.813 788.42 459.415C798.157 460.981 807.125 466.349 813.698 474.547C819.592 482.582 822.235 491.368 824.414 500.408C826.109 507.382 827.105 514.351 828.57 521.581C830.034 528.812 831.496 535.784 832.725 542.755C833.944 548.694 834.931 554.632 835.917 560.57Z" stroke="#F2F4F6" stroke-width="1.25" stroke-linecap="round" stroke-linejoin="round"/>
<path d="M816.336 632.63C815.946 639.827 815.08 646.975 813.744 654.014C807.107 682.26 809.317 681.767 790.112 739.976C770.908 798.184 689.237 806.028 629.483 736.022C605.182 707.551 598.952 675.064 574.407 645.646C561.93 630.603 547.143 617.349 532.819 603.841C523.895 595.269 514.74 586.954 506.511 578.129C496.858 567.979 488.867 556.052 482.906 542.896C477.984 532.05 474.578 520.461 472.808 508.53L472.776 508.275C471.781 500.365 470.818 492.704 472.588 485.063C473.464 481.082 475.108 477.37 477.408 474.183C479.708 470.995 482.609 468.405 485.914 466.59C493.299 462.853 501.228 460.553 509.358 459.791C519.855 458.534 530.415 457.919 540.993 457.948C548.206 457.74 555.662 458.566 562.882 459.131C570.568 459.701 578.026 460.784 585.714 461.611C601.795 463.857 617.758 467.153 633.519 471.484C650.314 475.469 666.65 480.224 683.44 483.693C699.064 486.896 714.678 489.067 730.292 491.239C740.03 492.315 749.694 494.192 759.205 496.855C770.764 500.146 781.166 507.341 788.956 517.433C796.969 528.061 801.505 540.212 805.343 552.358C809.863 566.083 813.039 580.284 814.817 594.713C815.58 601.681 816.577 608.65 816.875 615.615C817.044 621.3 816.864 626.985 816.336 632.63Z" stroke="#F2F4F6" stroke-width="1.25" stroke-linecap="round" stroke-linejoin="round"/>
<path d="M775.453 664.571C770.245 680.006 764.333 694.921 759.358 710.358C730.972 802.392 651.222 720.625 628.01 676.954C620.863 663.201 612.804 650.043 603.902 637.592C590.7 619.708 574.493 603.865 558.285 588.023C549.952 580.487 542.309 572.054 535.473 562.852C527.69 551.968 522.23 540.584 523.038 527.438C523.44 521.263 525.869 515.502 529.868 511.24C535.857 504.578 543.97 501.024 553.03 499.282C561.543 497.706 570.2 497.161 578.85 497.657C587.602 498.183 596.322 499.363 604.95 501.19C623.376 505.444 640.894 512.013 658.406 518.065C673.819 523.587 689.69 528.339 705.786 532.319C716.049 534.711 726.315 537.361 736.585 540.527C745.516 543.17 753.832 547.985 760.923 554.621C768.486 561.898 774.397 571.046 778.163 581.3C781.512 590.039 783.639 599.272 784.471 608.678C785.37 617.82 784.986 627.038 783.331 636.003C781.306 645.727 778.674 655.272 775.453 664.571Z" stroke="#F2F4F6" stroke-width="1.25" stroke-linecap="round" stroke-linejoin="round"/>
<path d="M255.237 462.397C258.801 470.158 264.159 470.711 271.595 469.473C284.841 467.244 297.366 462.69 310.131 458.911C322.896 455.132 335.201 451.865 347.969 448.344C363.292 444.325 378.62 440.821 393.939 436.286C403.688 433.517 412.019 428.418 416.359 419.681C419.029 414.38 419.8 408.132 418.522 402.162C417.83 397.85 416.777 393.612 415.378 389.504C411.446 377.677 405.135 366.959 396.93 358.175C392.137 352.948 386.485 348.792 380.291 345.94C370.709 341.757 360.163 341.41 350.49 344.959C340.877 348.458 331.882 353.711 323.871 360.503C304.239 376.612 289.291 395.848 275.75 416.125C268.458 426.523 262.387 437.916 257.681 450.037C256.148 453.737 255.39 457.785 255.464 461.883" stroke="#F2F4F6" stroke-width="1.25" stroke-linecap="round" stroke-linejoin="round"/>
</g>
<defs>
<clipPath id="clip0_631_16473">
<rect width="974" height="913" fill="white" transform="translate(0 0.177734)"/>
</clipPath>
</defs>
</svg>
