<svg width="776" height="1100" viewBox="0 0 776 1100" fill="none" xmlns="http://www.w3.org/2000/svg"><g opacity=".5" stroke="#BFC9D1"><path d="M636.092 866.387c-26.419-41.923-10.339-69.547 1.004-78.119 64.527-58.968 60.568-88.81 45.988-134.534-14.579-45.724-6.074-59.016-6.722-61.658 6.077-37.346-8.165-38.771-19.076-43.5-16.508-7.155-53.092-26.416-67.363-46.221-17.838-24.756-49.974-39.282-71.82-52.97-21.846-13.689-37.839-37.777-86.418-94.208-48.579-56.431-44.285-132.557-53.181-180.235-8.895-47.679-40.324-73.023-47.831-76.223-6.007-2.5602-27.078-14.4595-36.862-20.0892-25.693-15.21-59.8-5.4979-73.643 1.2595-13.463 10.5859-49.135 34.0157-84.119 43.0467-34.984 9.03-50.6298 19.703-54.0794 23.911-20.0002 16.672-17.6755 58.119 4.8398 99.655 22.5156 41.537 69.1876 51.376 111.7316 39.818 34.035-9.246 50.162-3.342 53.97.766 22.718 19.525 4.622 49.287-7.265 61.727-10.728 18.692-30.386 61.574-23.198 83.564 7.187 21.991 4.086 41.016 1.637 47.779-11.275 43.103-38.924 28.597-80.322 19.705-41.398-8.892-38.545 32.426-39.023 51.031-.477 18.605 6.302 7.418 9.075 36.99 2.773 29.573 20.132 43.242 37.631 55.196s19.334 14.865 50.132 3.388c30.799-11.478 50.043 23.578 55.249 40.228 5.205 16.651 41.001 68.935 54.004 83.112 13.002 14.178 29.675 63.87 54.084 94.858 24.409 30.987 70.481-2.725 105.248-16.296 34.767-13.572 40.034 49.003 40.425 109.973.392 60.969 41.161 62.729 96.906 50.179 55.745-12.557 62.023-89.729 28.998-142.133Z"/><path d="M354.929 613.333c-22.081-61.572-8.192-75.369 1.378-89.685 24.307-28.538 56.335-23.227 69.311-17.004 53.41 20.298 68.675 82.52 72.109 106.728 3.434 24.208-31.831 37.034-77.512 48.241-36.546 8.966-58.751-28.451-65.286-48.28Z"/><path d="M450.998 627.253c35.752-29.861 2.22-73.337-19.015-91.343-9.442-6.44-33.099-15.457-52.193-.003-23.867 19.317-8.872 64.437 17.183 88.334 20.845 19.117 44.702 9.974 54.025 3.012ZM609.325 931.85c-3.282-15.188-14.631-24.176-19.895-26.772-23.373-9.259-26.713 6.554-23.54 28.543 3.174 21.989 19.51 25.201 27.1 24.449 7.59-.751 20.438-7.235 16.335-26.22Z" stroke-width="2"/><path d="M467.995 767.722c-17.245-28.644-30.819-11.69-35.45.368-3.191 8.707-9.863 27.14-11.027 31.21-1.455 5.088 2.618 6.948-11.168 18.659-13.786 11.712-33.77 4.953-42.833-16.146-7.251-16.88-26.853-40.799-35.748-50.649-7.732-6.617-26.116-28.133-37.795-61.252-14.599-41.399-23.405-61.45-45.148-84.437-21.744-22.987-27.24-52.18-.696-79.794 26.545-27.614 29.123-48.793 16.234-92.277s25.564-72.354 50.646-94.611c25.082-22.257 11.294-39.976 2.063-52.705s-19.352-31.348-37.448-50.787c-18.097-19.438-35.549-6.827-81.405 9.976-45.856 16.802-53.239.288-71.968-23.993-18.729-24.281 7.697-54.643 18.449-60.612 10.752-5.97 28.581-14.786 55.452-27.487 26.87-12.7 57.715-6.94 63.971-1.811 6.256 5.129 17.483 10.149 38.919 13.775 17.149 2.901 29.159 12.468 33.02 16.888 30.766 23.55 21.311 91.396 9.818 116.983-9.194 20.47 4.65 43.099 12.722 51.855 4.951 4.339 18.104 17.66 31.103 36.239 12.998 18.58 29.801 34.708 36.578 40.449 24.705 23.741 78.856 75.613 97.824 93.172 23.71 21.949 30.213 30.349 35.402 40.182 5.189 9.833 8.965 13.905 42.883 34.46 27.135 16.444 36.555 35.827 37.873 43.463-.668 3.311 1.017 18.631 13.107 53.426 15.113 43.494-11.026 68.232-34.912 86.308-23.886 18.077-29.321 34.404-44.638 67.038-15.317 32.633-33.542 12.671-51.154 1.998-17.611-10.673-33.118-24.083-54.674-59.888Z" stroke-width="2"/><path d="M163.407 207.625c-3.252-5.989-2.327-13.599 1.95-21.12 4.273-7.513 11.857-14.862 21.753-20.236 9.897-5.373 20.19-7.732 28.818-7.224 8.637.508 15.523 3.877 18.775 9.866 3.252 5.989 2.327 13.599-1.95 21.119-4.272 7.514-11.856 14.862-21.753 20.236-9.896 5.374-20.19 7.733-28.818 7.224-8.637-.508-15.523-3.877-18.775-9.865ZM400.541 689.325c-33.69 7.82-46.305-10.338-48.401-20.395-2.876-11.72-12.536-40.21-28.173-60.409-15.638-20.199-16.76-49.432-7.597-60.45 3.957-5.793 15.463-23.6 29.832-48.49 17.96-31.112 53.735-30.43 75.569-18.539 21.834 11.891 77.662 71.635 90.922 96.201 10.607 19.653 31.36 40.896 40.411 49.062 5.02.808 19.647 8.421 37.994 32.406 22.934 29.982-13.791 66.253-42.673 77.79-28.883 11.537-27.349-9.425-36.361-46.16-7.21-29.388-31.872-24.08-43.301-17.752-8.704 2.32-34.533 8.917-68.222 16.736Z"/><path d="M296.295 546.009c12.806-23.683 25.45-56.528 30.172-69.99 32.297-60.089 79.969-28.977 114.338-6.547l.665.434c34.417 22.457 76.082 78.524 89.956 100.539 11.099 17.612 31.526 30.311 40.352 34.459 7.661 2.108 27.107 15.818 43.601 53.796 16.494 37.979-.103 59.796-10.463 65.957-7.83 4.061-26.761 16.515-39.841 33.846-16.35 21.664-47.924 23.793-61.735-16.148-13.811-39.942-20.994-39.785-38.73-46.667-17.737-6.882-59.634 21.852-87.466 32.691-22.266 8.672-43.124-36.227-50.769-59.761-3.961-16.146-13.88-50.034-21.866-56.42-9.982-7.983-24.221-36.585-8.214-66.189Z"/><path d="M388.492 767.811c-17.237 11.07-43.785-18.713-54.905-34.989-18.044-23.657-27.147-51.97-29.443-63.17-2.501-18.71-10.672-34.985-33.046-66.577-22.374-31.593-4.511-65.222 5.388-78.096 9.898-12.874 23.523-33.973 16.421-69.312-5.683-28.271-.653-47.366 2.572-53.38 25.979-43.977 57.763-24.268 70.408-8.917 10.135 7.959 38.082 29.201 68.793 50.496 38.389 26.619 97.014 95.277 99.32 102.546 2.305 7.268 37.218 41.007 48.279 43.516 11.061 2.509 32.142 20.317 36.13 36.574 3.191 13.005 11.731 32.865 15.603 41.17 14.587 42.029-29.56 79.94-41.507 86.434s-35.42 38.62-46.543 48.475c-11.122 9.855-45.468-5.236-60.575-43.575-15.106-38.339-28.207-36.551-44.999-35.282-16.792 1.269-30.348 30.25-51.896 44.087Z"/><path d="M185.581 619.281c-31.058 8.873-47.342-10.856-51.602-21.83-25.585-71.756 6.999-75.177 26.489-67.918 7.766 2.856 25.621 8.275 34.916 7.1 11.62-1.468 59.573-21.987 49.526-81.724-10.048-59.737 1.472-87.905 24.677-107.881 23.206-19.977 20.893-36.918 13.848-63.757-7.045-26.838-32.531-31.183-51.654-26.492-19.122 4.691-23.829 13.679-63.886 15.673-40.057 1.994-54.909-26.615-73.5247-63.055-14.8926-29.153 13.3797-56.27 29.3777-66.185 15.329-5.757 54.122-21.294 86.666-37.387 32.543-16.0937 58.294-10.9227 67.101-6.3256 2.378 2.1816 13.83 9.0476 40.615 19.0636 33.482 12.52 36.861 33.807 44.89 59.022 6.423 20.172 8.948 46.492 9.408 57.13-.628 11.212-.174 39.483 6.669 62.87 8.554 29.233 12.63 40.212 41.996 75.398 29.366 35.185 98.307 103.973 118.119 115.239 19.812 11.266 27.807 19.441 37.181 35.111 9.373 15.67 29.474 28.113 50.826 41.9 17.081 11.031 23.289 29.196 24.257 36.9.23 5.319 3.652 23.524 15.501 53.792 14.811 37.834 12.302 72.686-19.209 98.246-25.209 20.448-38.255 42.111-41.626 50.386-22.645 34.08 14.242 79.979 21.681 99.984 7.438 20.005 22.796 69.705-30.924 84.15-53.721 14.449-59.646-27.762-63.594-45.143-3.948-17.381 4.745-28.372-2.953-57.172-7.698-28.8-11.566-30.382-41.538-60.994-29.973-30.612-40.604-14.217-47.313-.03-6.709 14.188-12.094 20.996-38.348 29.004-26.253 8.008-45.896-17.742-56.304-44.191-10.407-26.449-31.863-59.593-49.664-84.228-17.801-24.635-36.232-74.198-46.513-87.352-10.282-13.155-26.269-30.396-65.091-19.304Z"/></g></svg>