<svg width="336" height="601" viewBox="0 0 336 601" fill="none" xmlns="http://www.w3.org/2000/svg">
<path d="M326.956 600.277H157L178.918 35.9286C179.058 32.3161 181.604 29.2465 185.128 28.4405L299.799 2.21337C304.669 1.09948 309.357 4.6725 309.575 9.6637L334.949 591.929C335.147 596.48 331.511 600.277 326.956 600.277Z" stroke="#F2F4F6"/>
<line x1="196.324" y1="101.111" x2="292.932" y2="101.111" stroke="#F2F4F6"/>
<line x1="196.324" y1="86.1111" x2="292.932" y2="86.1111" stroke="#F2F4F6"/>
<line x1="196.324" y1="71.1111" x2="292.932" y2="71.1111" stroke="#F2F4F6"/>
<line x1="196.324" y1="56.1111" x2="292.932" y2="56.1111" stroke="#F2F4F6"/>
<line x1="196.324" y1="116.111" x2="292.932" y2="116.111" stroke="#F2F4F6"/>
<line x1="196.324" y1="131.111" x2="292.932" y2="131.111" stroke="#F2F4F6"/>
<line x1="196.324" y1="146.111" x2="292.932" y2="146.111" stroke="#F2F4F6"/>
<line x1="196.324" y1="161.111" x2="292.932" y2="161.111" stroke="#F2F4F6"/>
<line x1="196.324" y1="176.111" x2="292.932" y2="176.111" stroke="#F2F4F6"/>
<line x1="196.324" y1="191.111" x2="292.932" y2="191.111" stroke="#F2F4F6"/>
<line x1="196.324" y1="206.111" x2="292.932" y2="206.111" stroke="#F2F4F6"/>
<line x1="196.324" y1="221.111" x2="292.932" y2="221.111" stroke="#F2F4F6"/>
<line x1="196.324" y1="236.111" x2="292.932" y2="236.111" stroke="#F2F4F6"/>
<line x1="196.324" y1="251.111" x2="292.932" y2="251.111" stroke="#F2F4F6"/>
<line x1="196.324" y1="266.111" x2="292.932" y2="266.111" stroke="#F2F4F6"/>
<line x1="196.324" y1="281.111" x2="292.932" y2="281.111" stroke="#F2F4F6"/>
<line x1="196.324" y1="296.111" x2="292.932" y2="296.111" stroke="#F2F4F6"/>
<line x1="196.324" y1="311.111" x2="292.932" y2="311.111" stroke="#F2F4F6"/>
<line x1="196.324" y1="326.111" x2="292.932" y2="326.111" stroke="#F2F4F6"/>
<line x1="196.324" y1="341.111" x2="292.932" y2="341.111" stroke="#F2F4F6"/>
<line x1="196.324" y1="356.111" x2="292.932" y2="356.111" stroke="#F2F4F6"/>
<line x1="196.324" y1="371.111" x2="292.932" y2="371.111" stroke="#F2F4F6"/>
<line x1="196.324" y1="386.111" x2="292.932" y2="386.111" stroke="#F2F4F6"/>
<line x1="196.324" y1="401.111" x2="292.932" y2="401.111" stroke="#F2F4F6"/>
<line x1="196.324" y1="416.111" x2="292.932" y2="416.111" stroke="#F2F4F6"/>
<line x1="196.324" y1="431.111" x2="292.932" y2="431.111" stroke="#F2F4F6"/>
<line x1="196.324" y1="446.111" x2="292.932" y2="446.111" stroke="#F2F4F6"/>
<line x1="196.324" y1="461.111" x2="292.932" y2="461.111" stroke="#F2F4F6"/>
<line x1="196.324" y1="476.111" x2="292.932" y2="476.111" stroke="#F2F4F6"/>
<line x1="196.324" y1="491.111" x2="292.932" y2="491.111" stroke="#F2F4F6"/>
<line x1="196.324" y1="506.111" x2="292.932" y2="506.111" stroke="#F2F4F6"/>
<line x1="196.324" y1="521.111" x2="292.932" y2="521.111" stroke="#F2F4F6"/>
<line x1="196.324" y1="536.111" x2="292.932" y2="536.111" stroke="#F2F4F6"/>
<line x1="196.324" y1="551.111" x2="292.932" y2="551.111" stroke="#F2F4F6"/>
<line x1="196.324" y1="566.111" x2="292.932" y2="566.111" stroke="#F2F4F6"/>
<line x1="196.324" y1="581.111" x2="292.932" y2="581.111" stroke="#F2F4F6"/>
<path d="M179 600.277H9.04656C4.49053 600.277 0.854363 596.478 1.05427 591.926L22.5736 101.946C22.7326 98.3256 25.3058 95.2641 28.8451 94.4846L148.508 68.1293C153.374 67.0575 158.025 70.6467 158.223 75.6254L179 600.277Z" fill="#1C0D3F"/>
<path d="M179 600.277V600.777H179.52L179.5 600.258L179 600.277ZM158.223 75.6254L158.722 75.6057L158.722 75.6057L158.223 75.6254ZM148.508 68.1293L148.616 68.6175L148.616 68.6175L148.508 68.1293ZM28.8451 94.4846L28.9527 94.9729L28.9527 94.9729L28.8451 94.4846ZM22.5736 101.946L23.0731 101.968L23.0731 101.968L22.5736 101.946ZM1.05427 591.926L1.55378 591.948L1.55378 591.948L1.05427 591.926ZM9.04656 600.777H179V599.777H9.04656V600.777ZM179.5 600.258L158.722 75.6057L157.723 75.6452L178.5 600.297L179.5 600.258ZM148.401 67.641L28.7376 93.9963L28.9527 94.9729L148.616 68.6175L148.401 67.641ZM22.074 101.924L0.554747 591.905L1.55378 591.948L23.0731 101.968L22.074 101.924ZM28.7376 93.9963C24.977 94.8245 22.243 98.0774 22.074 101.924L23.0731 101.968C23.2222 98.5739 25.6345 95.7037 28.9527 94.9729L28.7376 93.9963ZM158.722 75.6057C158.513 70.3158 153.571 66.5023 148.401 67.641L148.616 68.6175C153.178 67.6128 157.538 70.9777 157.723 75.6452L158.722 75.6057ZM9.04656 599.777C4.77528 599.777 1.36638 596.216 1.55378 591.948L0.554747 591.905C0.342351 596.741 4.20578 600.777 9.04656 600.777V599.777Z" fill="#F2F4F6"/>
<line x1="42.5396" y1="116.111" x2="139.148" y2="116.111" stroke="#F2F4F6"/>
<line x1="42.5396" y1="131.111" x2="139.148" y2="131.111" stroke="#F2F4F6"/>
<line x1="42.5396" y1="146.111" x2="139.148" y2="146.111" stroke="#F2F4F6"/>
<line x1="42.5396" y1="161.111" x2="139.148" y2="161.111" stroke="#F2F4F6"/>
<line x1="42.5396" y1="176.111" x2="139.148" y2="176.111" stroke="#F2F4F6"/>
<line x1="42.5396" y1="191.111" x2="139.148" y2="191.111" stroke="#F2F4F6"/>
<line x1="42.5396" y1="206.111" x2="139.148" y2="206.111" stroke="#F2F4F6"/>
<line x1="42.5396" y1="221.111" x2="139.148" y2="221.111" stroke="#F2F4F6"/>
<line x1="42.5396" y1="236.111" x2="139.148" y2="236.111" stroke="#F2F4F6"/>
<line x1="42.5396" y1="251.111" x2="139.148" y2="251.111" stroke="#F2F4F6"/>
<line x1="42.5396" y1="266.111" x2="139.148" y2="266.111" stroke="#F2F4F6"/>
<line x1="42.5396" y1="281.111" x2="139.148" y2="281.111" stroke="#F2F4F6"/>
<line x1="42.5396" y1="296.111" x2="139.148" y2="296.111" stroke="#F2F4F6"/>
<line x1="42.5396" y1="311.111" x2="139.148" y2="311.111" stroke="#F2F4F6"/>
<line x1="42.5396" y1="326.111" x2="139.148" y2="326.111" stroke="#F2F4F6"/>
<line x1="42.5396" y1="341.111" x2="139.148" y2="341.111" stroke="#F2F4F6"/>
<line x1="42.5396" y1="356.111" x2="139.148" y2="356.111" stroke="#F2F4F6"/>
<line x1="42.5396" y1="371.111" x2="139.148" y2="371.111" stroke="#F2F4F6"/>
<line x1="42.5396" y1="386.111" x2="139.148" y2="386.111" stroke="#F2F4F6"/>
<line x1="42.5396" y1="401.111" x2="139.148" y2="401.111" stroke="#F2F4F6"/>
<line x1="42.5396" y1="416.111" x2="139.148" y2="416.111" stroke="#F2F4F6"/>
<line x1="42.5396" y1="431.111" x2="139.148" y2="431.111" stroke="#F2F4F6"/>
<line x1="42.5396" y1="446.111" x2="139.148" y2="446.111" stroke="#F2F4F6"/>
<line x1="42.5396" y1="461.111" x2="139.148" y2="461.111" stroke="#F2F4F6"/>
<line x1="42.5396" y1="476.111" x2="139.148" y2="476.111" stroke="#F2F4F6"/>
<line x1="42.5396" y1="491.111" x2="139.148" y2="491.111" stroke="#F2F4F6"/>
<line x1="42.5396" y1="506.111" x2="139.148" y2="506.111" stroke="#F2F4F6"/>
<line x1="42.5396" y1="521.111" x2="139.148" y2="521.111" stroke="#F2F4F6"/>
<line x1="42.5396" y1="536.111" x2="139.148" y2="536.111" stroke="#F2F4F6"/>
<line x1="42.5396" y1="551.111" x2="139.148" y2="551.111" stroke="#F2F4F6"/>
<line x1="42.5396" y1="566.111" x2="139.148" y2="566.111" stroke="#F2F4F6"/>
<line x1="42.5396" y1="581.111" x2="139.148" y2="581.111" stroke="#F2F4F6"/>
<path d="M173.367 466.468L175.463 467.758L177.56 466.468L226.03 436.64C269.8 409.705 296.463 361.99 296.463 310.595V245.452C296.463 237.901 292.211 230.994 285.469 227.594L184.469 176.662C178.805 173.806 172.122 173.806 166.458 176.662L65.4581 227.594C58.716 230.994 54.4634 237.901 54.4634 245.452V310.595C54.4634 361.99 81.1263 409.705 124.897 436.64L173.367 466.468Z" fill="#1C0D3F" stroke="#1C0D3F" stroke-width="8"/>
<path fill-rule="evenodd" clip-rule="evenodd" d="M177.198 249.475C176.484 247.925 174.281 247.925 173.566 249.475L156.102 287.338C155.81 287.97 155.212 288.405 154.521 288.487L113.114 293.396C111.419 293.597 110.739 295.692 111.992 296.85L142.605 325.161C143.115 325.633 143.344 326.337 143.209 327.019L135.082 367.916C134.75 369.59 136.532 370.885 138.021 370.051L174.405 349.685C175.012 349.345 175.752 349.345 176.359 349.685L212.744 370.051C214.233 370.885 216.015 369.59 215.682 367.916L207.556 327.019C207.42 326.337 207.649 325.633 208.16 325.161L238.773 296.85C240.026 295.692 239.345 293.597 237.65 293.396L196.244 288.487C195.553 288.405 194.954 287.97 194.663 287.338L177.198 249.475ZM192.847 288.176L175.382 250.313L157.918 288.176C157.335 289.439 156.138 290.309 154.756 290.473L113.35 295.382L143.963 323.692C144.984 324.637 145.441 326.044 145.17 327.409L137.044 368.306L173.428 347.939C174.642 347.26 176.122 347.26 177.336 347.939L213.721 368.306L205.594 327.409C205.323 326.044 205.78 324.637 206.802 323.692L237.415 295.382L196.008 290.473C194.627 290.309 193.429 289.439 192.847 288.176Z" fill="#ED26B7"/>
<path fill-rule="evenodd" clip-rule="evenodd" d="M203.563 420.832L175.463 438.124L147.363 420.832C104.776 394.624 78.8335 348.199 78.8335 298.193V260.117C78.8335 254.076 82.2356 248.55 87.6293 245.83L168.259 205.171C172.79 202.886 178.136 202.886 182.668 205.171L263.297 245.83C268.691 248.55 272.093 254.076 272.093 260.117V298.193C272.093 348.199 246.151 394.624 203.563 420.832ZM270.093 260.117V298.193C270.093 347.504 244.511 393.285 202.515 419.129L176.458 435.164C176.462 435.095 176.463 435.024 176.463 434.953V360.953C176.463 360.401 176.016 359.953 175.463 359.953C174.911 359.953 174.463 360.401 174.463 360.953V434.953C174.463 435.024 174.465 435.095 174.469 435.164L148.412 419.129C106.416 393.285 80.8335 347.504 80.8335 298.193V260.117C80.8335 254.831 83.8103 249.996 88.5298 247.616L169.16 206.956C170.836 206.111 172.641 205.623 174.465 205.493C174.464 205.532 174.463 205.571 174.463 205.611V239.611C174.463 241.018 176.463 241.018 176.463 239.611V205.611C176.463 205.571 176.463 205.532 176.462 205.493C178.286 205.623 180.09 206.111 181.767 206.956L262.397 247.616C267.116 249.996 270.093 254.831 270.093 260.117Z" fill="#ED26B7"/>
<path fill-rule="evenodd" clip-rule="evenodd" d="M175.463 463.061L223.933 433.234C266.521 407.026 292.463 360.6 292.463 310.595V245.452C292.463 239.411 289.061 233.885 283.668 231.165L182.668 180.234C178.137 177.949 172.79 177.949 168.259 180.234L67.2592 231.165C61.8655 233.885 58.4634 239.411 58.4634 245.452V310.595C58.4634 360.6 84.4057 407.026 126.993 433.234L175.463 463.061ZM290.463 310.595V245.452C290.463 240.166 287.487 235.331 282.767 232.951L181.767 182.019C177.802 180.02 173.124 180.02 169.16 182.019L68.1597 232.951C63.4402 235.331 60.4634 240.166 60.4634 245.452V310.595C60.4634 359.906 86.0454 405.687 128.042 431.53L175.463 460.713L222.885 431.53C264.881 405.687 290.463 359.906 290.463 310.595Z" fill="#ED26B7"/>
</svg>
