<svg width="914" height="636" viewBox="0 0 914 636" fill="none" xmlns="http://www.w3.org/2000/svg">
<g clip-path="url(#clip0_292_4553)">
<path d="M700.151 113.736C701.571 112.916 702.849 111.809 703.908 110.424C708.191 104.822 707.109 96.8088 701.512 92.5347C692.234 85.4439 683.841 77.8072 674.952 69.7298C662.602 58.5 649.836 46.8876 634.324 36.6406C634.095 36.4841 633.862 36.3412 633.626 36.212C612.573 24.1875 592.465 16.2593 568.357 7.14212C568.169 7.07721 567.977 7.00364 567.789 6.93874C546.235 -0.0737877 525.911 -2.19609 504.397 -4.43961L499.704 -4.9285C499.375 -4.95804 499.046 -4.98759 498.718 -4.99482C472.968 -5.71616 449.712 -3.09714 423.321 3.51365C423.259 3.52633 423.189 3.544 423.132 3.56534C378.145 15.5664 337.362 38.4082 301.919 71.4578C301.812 71.5538 301.711 71.6585 301.605 71.7544C262.137 111.134 236.277 159.724 226.834 212.288C225.584 219.222 230.203 225.862 237.137 227.113C244.071 228.363 250.711 223.744 251.957 216.801C260.459 169.468 283.804 125.622 319.481 89.9776C351.776 59.9126 388.826 39.1453 429.614 28.2519C453.763 22.2192 474.115 19.8909 497.521 20.5111L501.736 20.9525C522.638 23.1342 540.717 25.0284 559.609 31.1299C582.374 39.7408 601.363 47.2299 620.59 58.1724C634.308 67.2726 645.701 77.6458 657.775 88.6189C666.674 96.7135 675.868 105.077 686.024 112.828C690.241 116.051 695.829 116.231 700.151 113.736Z" stroke="#DFE4E8" stroke-linecap="round" stroke-linejoin="round"/>
<path d="M859.373 139.958C861.928 138.483 863.978 136.133 865.03 133.135C867.368 126.485 863.867 119.2 857.208 116.867C839.547 110.678 822.28 103.569 805.897 95.7537C779.215 83.0187 754.883 68.4759 733.578 52.5329C725.504 46.4899 718.088 39.7443 710.236 32.6038C703.526 26.5014 696.592 20.1927 689.165 14.3081C683.638 9.93559 675.607 10.8657 671.235 16.3923C666.862 21.919 667.792 29.9499 673.319 34.3224C680.064 39.6656 686.381 45.4064 693.063 51.4792C701.015 58.7123 709.237 66.1935 718.286 72.9665C740.924 89.9182 766.706 105.333 794.901 118.788C812.114 127.002 830.24 134.457 848.757 140.949C852.409 142.235 856.259 141.744 859.36 139.954L859.373 139.958Z" stroke="#DFE4E8" stroke-linecap="round" stroke-linejoin="round"/>
<path d="M634.633 1.63625C636.66 0.466249 638.392 -1.273 639.562 -3.50713C642.825 -9.75571 640.395 -17.4637 634.147 -20.7265C580.903 -48.5067 517.945 -60.4935 456.878 -54.4849C393.735 -48.2711 336.295 -24.0801 290.775 15.4568C285.452 20.0773 284.888 28.1397 289.508 33.4626C294.129 38.7855 302.191 39.3499 307.514 34.7294C390.979 -37.7654 520.435 -51.2614 622.342 1.90805C626.357 4.00127 630.984 3.75492 634.638 1.64492L634.633 1.63625Z" stroke="#DFE4E8" stroke-linecap="round" stroke-linejoin="round"/>
<path d="M324.935 532.463C326.199 531.733 327.356 530.776 328.347 529.592C332.865 524.178 332.135 516.135 326.73 511.612C261.043 456.779 221.374 399.811 205.446 337.462C190.018 277.041 194.697 211.385 218.614 152.59C231.502 120.912 250.079 91.9884 275.402 64.1697C280.152 58.9564 279.766 50.8884 274.553 46.1387C269.344 41.3976 261.271 41.7747 256.522 46.988C229.526 76.6498 208.817 108.941 194.968 142.974C169.005 206.785 163.945 278.1 180.718 343.772C198.008 411.5 240.424 472.806 310.37 531.195C314.591 534.728 320.426 535.054 324.93 532.454L324.935 532.463Z" stroke="#DFE4E8" stroke-linecap="round" stroke-linejoin="round"/>
<path d="M568.615 682.909C570.823 681.634 572.677 679.686 573.826 677.175C576.766 670.767 573.95 663.189 567.546 660.258C509.203 633.506 441.058 599.734 378.043 552.03C372.421 547.771 364.414 548.883 360.164 554.501C355.913 560.119 357.017 568.13 362.635 572.381C427.624 621.566 497.314 656.132 556.914 683.463C560.826 685.258 565.164 684.912 568.628 682.912L568.615 682.909Z" stroke="#DFE4E8" stroke-linecap="round" stroke-linejoin="round"/>
<path d="M882.867 200.71C885.63 199.115 887.797 196.49 888.75 193.18C890.696 186.41 886.786 179.337 880.002 177.388C830.841 163.278 787.694 145.685 751.741 125.092C745.63 121.588 737.823 123.706 734.324 129.825C730.824 135.944 732.937 143.743 739.056 147.242C777.311 169.161 821.112 187.047 872.958 201.928C876.418 202.921 879.966 202.385 882.858 200.715L882.867 200.71Z" stroke="#DFE4E8" stroke-linecap="round" stroke-linejoin="round"/>
<path d="M476.323 577.376C478.073 576.366 479.599 574.93 480.749 573.1C484.494 567.127 482.681 559.248 476.713 555.511C367.938 487.347 251.619 403.757 248.417 274.19C248.24 267.144 242.391 261.572 235.345 261.749C228.299 261.925 222.728 267.775 222.904 274.821C224.519 340.237 251.409 399.572 305.093 456.196C350.029 503.587 407.618 542.334 463.165 577.144C467.308 579.74 472.371 579.669 476.337 577.379L476.323 577.376Z" stroke="#DFE4E8" stroke-linecap="round" stroke-linejoin="round"/>
<path d="M652.223 662.004C654.7 660.574 656.706 658.307 657.792 655.428C660.263 648.829 656.905 641.472 650.305 639.001C610.841 624.246 572.26 607.203 535.619 588.359C529.346 585.134 521.658 587.598 518.433 593.871C515.207 600.144 517.671 607.832 523.944 611.058C561.464 630.364 600.969 647.809 641.359 662.906C645.072 664.297 649.036 663.844 652.215 662.009L652.223 662.004Z" stroke="#DFE4E8" stroke-linecap="round" stroke-linejoin="round"/>
<path d="M894.684 256.357C897.637 254.652 899.898 251.788 900.731 248.212C902.336 241.351 898.071 234.483 891.209 232.879C863.005 226.288 835.255 217.864 808.735 207.83C766.802 191.96 727.987 172.189 693.359 149.053C678.513 139.138 665.627 129.5 653.962 119.595C650.068 116.29 646.35 112.79 642.417 109.079C637.45 104.395 632.307 99.547 626.673 95.0286C621.179 90.6138 613.141 91.4906 608.731 96.9926C604.316 102.486 605.193 110.525 610.695 114.934C615.539 118.824 620.092 123.111 624.913 127.66C628.916 131.434 633.048 135.331 637.452 139.058C649.862 149.594 663.517 159.805 679.181 170.276C715.409 194.485 755.96 215.16 799.703 231.705C827.273 242.138 856.104 250.895 885.398 257.734C888.684 258.505 891.973 257.922 894.675 256.362L894.684 256.357Z" stroke="#DFE4E8" stroke-linecap="round" stroke-linejoin="round"/>
<path d="M293.221 293.713C297.56 291.208 300.185 286.275 299.496 281.003C292.196 225.277 314.387 167.813 360.381 123.337C414.388 72.18 493.262 57.5535 561.216 86.1935C567.715 88.9306 575.193 85.8832 577.93 79.3839C580.667 72.8847 577.62 65.4065 571.121 62.6694C493.836 30.1093 404.184 46.6865 342.724 104.895C290.763 155.136 265.82 220.494 274.181 284.314C275.097 291.302 281.508 296.226 288.496 295.31C290.212 295.081 291.809 294.528 293.221 293.713Z" stroke="#DFE4E8" stroke-linecap="round" stroke-linejoin="round"/>
<path d="M716.982 630.469C719.658 628.924 721.792 626.399 722.784 623.217C724.88 616.488 721.13 609.334 714.401 607.238C711.995 606.491 709.586 605.699 707.186 604.902C699.521 602.365 691.618 599.757 683.048 598.273C680.128 596.956 677.329 595.467 674.389 593.896C670.673 591.919 666.823 589.87 662.413 587.993C662.027 587.824 661.633 587.682 661.236 587.553C590.591 565.293 531.065 528.912 468.047 490.401C462.745 487.158 457.435 483.919 452.105 480.668L451.185 479.075C450.335 477.603 449.196 476.309 447.844 475.288C442.436 471.182 436.953 467.084 431.446 462.966C381.252 425.447 329.358 386.645 309.883 327.972C307.663 321.287 300.442 317.661 293.748 319.886C287.063 322.106 283.437 329.327 285.662 336.021C307.66 402.302 362.831 443.541 416.173 483.412C420.943 486.974 425.686 490.529 430.388 494.073L431.648 496.255C432.718 498.109 434.24 499.666 436.072 500.779C442.331 504.579 448.55 508.39 454.758 512.184C518.963 551.43 579.623 588.496 652.963 611.705C656.175 613.107 659.224 614.73 662.441 616.441C666.157 618.417 670.008 620.467 674.417 622.343C675.401 622.768 676.449 623.064 677.512 623.224C684.624 624.302 691.709 626.655 699.21 629.126C701.751 629.968 704.293 630.81 706.84 631.602C710.387 632.706 714.048 632.187 717.027 630.467L716.982 630.469Z" stroke="#DFE4E8" stroke-linecap="round" stroke-linejoin="round"/>
<path d="M898.17 309.435C901.201 307.685 903.5 304.707 904.282 301.022C905.741 294.129 901.334 287.355 894.441 285.896C876.339 282.063 858.221 277.501 840.576 272.32C777.658 253.843 719.212 227.231 666.844 193.207C660.932 189.368 653.023 191.048 649.193 196.954C645.354 202.865 647.029 210.766 652.94 214.605C707.387 249.97 768.092 277.634 833.385 296.805C851.655 302.169 870.424 306.898 889.156 310.863C892.364 311.54 895.546 310.95 898.17 309.435Z" stroke="#DFE4E8" stroke-linecap="round" stroke-linejoin="round"/>
<path d="M374.964 367.636C375.431 367.366 375.884 367.07 376.317 366.739C381.925 362.473 383.022 354.473 378.765 348.859C352.866 314.761 343.788 271.158 353.833 229.216C368.631 174.207 411.863 133.567 464.09 125.526C467.781 125.3 471.957 125.014 477.475 123.93C496.002 122.24 512.845 125.633 530.613 129.288C548.16 135.081 564.363 144.005 582.947 158.113C592.744 168.242 602.908 178.666 615.342 187.423C621.105 191.485 629.068 190.098 633.122 184.339C637.185 178.576 635.797 170.613 630.039 166.559C619.285 158.992 610.218 149.608 600.622 139.687C600.182 139.225 599.7 138.811 599.197 138.42C577.668 121.97 558.749 111.601 537.845 104.814C537.393 104.671 536.937 104.541 536.47 104.453C517.182 100.485 497.245 96.3727 474.386 98.6004C473.941 98.6496 473.501 98.7073 473.067 98.7961C468.682 99.7 465.588 99.8812 461.994 100.097C461.615 100.12 461.245 100.16 460.872 100.214C398.294 109.565 346.591 157.672 329.151 222.786C329.122 222.895 329.101 222.999 329.067 223.1C317.158 272.573 327.868 324.043 358.456 364.303C362.391 369.479 369.5 370.813 374.982 367.648L374.964 367.636Z" stroke="#DFE4E8" stroke-linecap="round" stroke-linejoin="round"/>
<path d="M768.356 592.691C771.153 591.076 773.341 588.405 774.268 585.052C776.154 578.258 772.175 571.226 765.391 569.335C636.469 533.517 524.153 476.38 431.553 399.511C426.126 395.012 418.08 395.755 413.58 401.182C409.081 406.608 409.824 414.655 415.251 419.154C510.642 498.337 626.149 557.142 758.565 593.933C762.005 594.891 765.498 594.341 768.365 592.686L768.356 592.691Z" stroke="#DFE4E8" stroke-linecap="round" stroke-linejoin="round"/>
<path d="M894.346 360.752C897.394 358.992 899.701 355.986 900.468 352.276C901.886 345.372 897.444 338.618 890.54 337.2C843.64 327.547 799.833 314.41 756.591 297.033C750.049 294.402 742.618 297.572 739.987 304.114C737.355 310.656 740.525 318.087 747.067 320.718C791.737 338.668 836.986 352.242 885.392 362.204C888.577 362.859 891.731 362.262 894.337 360.757L894.346 360.752Z" stroke="#DFE4E8" stroke-linecap="round" stroke-linejoin="round"/>
<path d="M712.628 299.587C714.594 298.452 716.28 296.773 717.447 294.634C720.812 288.442 718.518 280.69 712.326 277.325L707.469 274.691C665.59 251.954 626.022 230.481 592.241 200.552C570.498 180.531 548.011 159.843 517.125 151.567C517.003 151.534 516.893 151.505 516.775 151.48C471.421 140.704 422.616 159.112 395.342 197.272C395.251 197.394 395.156 197.53 395.07 197.66C375.874 226.733 370.081 261.278 378.77 294.909C378.817 295.09 378.864 295.271 378.924 295.455C385.78 317.87 400.332 338.174 421.014 354.177C426.586 358.489 434.612 357.469 438.918 351.889C443.23 346.316 442.216 338.299 436.63 333.984C419.992 321.108 408.814 305.726 403.401 288.251C396.665 261.864 401.222 234.777 416.234 211.918C437.537 182.275 475.441 167.967 510.683 176.268C535.461 182.966 554.678 200.669 575.022 219.407C575.08 219.467 575.141 219.512 575.198 219.572C611.185 251.483 652.031 273.65 695.272 297.125L700.121 299.764C704.173 301.962 708.886 301.747 712.602 299.602L712.628 299.587Z" stroke="#DFE4E8" stroke-linecap="round" stroke-linejoin="round"/>
<path d="M809.34 550.797C812.215 549.137 814.436 546.364 815.321 542.897C817.071 536.068 812.944 529.12 806.115 527.371C759.61 515.503 715.503 501.247 675.01 485.031C630.697 467.279 589.254 446.577 551.821 423.502C529.317 409.624 507.743 394.575 487.709 378.776C482.173 374.408 474.144 375.361 469.785 380.891C465.418 386.426 466.365 394.447 471.9 398.815C492.701 415.222 515.084 430.832 538.43 445.228C577.1 469.066 619.86 490.429 665.519 508.731C707.041 525.369 752.221 539.965 799.8 552.113C803.157 552.969 806.551 552.407 809.34 550.797Z" stroke="#DFE4E8" stroke-linecap="round" stroke-linejoin="round"/>
<path d="M543.27 314.851C544.699 314.026 545.994 312.908 547.057 311.51C550.258 307.294 550.425 301.724 547.935 297.411C547.11 295.983 545.993 294.688 544.594 293.625C527.247 280.477 512.946 268.168 499.578 254.894C498.777 254.086 497.894 253.418 496.943 252.87C495.295 251.916 493.475 251.362 491.633 251.213C489.778 251.06 487.903 251.312 486.141 251.96C486.141 251.96 486.141 251.96 486.132 251.965C484.546 252.557 483.067 253.457 481.775 254.699C480.902 255.527 480.178 256.453 479.589 257.451C478.494 259.296 477.91 261.365 477.829 263.444C477.768 265.119 478.026 266.806 478.629 268.409C479.156 269.802 479.93 271.122 480.955 272.297C493.878 287.341 509.264 298.931 524.144 310.143C525.838 311.417 527.518 312.687 529.198 313.957C533.413 317.158 538.983 317.326 543.296 314.836L543.27 314.851Z" stroke="#DFE4E8" stroke-linecap="round" stroke-linejoin="round"/>
<path d="M706.797 409.428C709.075 408.113 710.965 406.086 712.099 403.492C714.92 397.037 711.981 389.507 705.526 386.687C663.914 368.472 621.183 345.281 578.515 317.757C572.592 313.937 564.697 315.643 560.877 321.567C557.057 327.491 558.763 335.385 564.678 339.21C608.488 367.471 652.436 391.311 695.299 410.073C699.164 411.768 703.416 411.392 706.811 409.432L706.797 409.428Z" stroke="#DFE4E8" stroke-linecap="round" stroke-linejoin="round"/>
<path d="M866.172 459.314C869.255 457.534 871.572 454.487 872.318 450.719C873.682 443.801 869.175 437.095 862.266 435.727C821.239 427.648 780.125 415.855 740.035 400.677C733.442 398.178 726.079 401.505 723.581 408.098C721.082 414.69 724.401 422.058 731.002 424.552C772.408 440.229 814.917 452.417 857.326 460.772C860.477 461.39 863.587 460.795 866.167 459.305L866.172 459.314Z" stroke="#DFE4E8" stroke-linecap="round" stroke-linejoin="round"/>
<path d="M883.676 410.791C887.209 408.751 889.707 405.057 890.031 400.679C890.559 393.653 885.29 387.527 878.256 387.004C876.29 386.858 873.521 385.882 870.839 384.936C868.939 384.266 866.985 383.581 864.945 383.027C864.767 382.98 864.589 382.932 864.408 382.898C780.179 364.209 707.704 336.158 642.854 297.135C636.816 293.497 628.972 295.451 625.333 301.489C621.695 307.527 623.649 315.371 629.687 319.009C696.851 359.421 771.715 388.448 858.561 407.751C859.61 408.047 860.941 408.513 862.338 409.012C866.196 410.375 870.993 412.063 876.353 412.467C879.008 412.666 881.533 412.04 883.681 410.8L883.676 410.791Z" stroke="#DFE4E8" stroke-linecap="round" stroke-linejoin="round"/>
<path d="M538.322 374.38C539.751 373.555 541.046 372.438 542.104 371.03C546.354 365.413 545.256 357.41 539.633 353.151C532.062 347.418 524.209 342.056 516.622 336.875C504.588 328.651 493.221 320.883 482.867 311.769C472.148 302.323 453.984 283.423 452.783 262.882C451.918 248.024 460.675 234.573 475.129 228.607C482.753 225.452 490.031 224.437 496.757 225.588C503.946 226.819 508.973 230.787 516.596 237.17C537.57 254.737 562.575 275.288 588.932 294.48C594.629 298.627 602.614 297.378 606.761 291.681C610.908 285.984 609.659 277.999 603.962 273.852C578.218 255.102 553.637 234.907 532.988 217.603C524.757 210.704 515.417 202.887 501.067 200.433C489.692 198.49 477.363 200.077 465.394 205.025C440.755 215.209 425.809 238.502 427.317 264.374C428.966 292.671 449.275 316.187 466.011 330.935C477.544 341.089 490.097 349.672 502.239 357.962C509.578 362.974 517.165 368.155 524.234 373.519C528.458 376.715 534.019 376.887 538.332 374.397L538.322 374.38Z" stroke="#DFE4E8" stroke-linecap="round" stroke-linejoin="round"/>
<path d="M841.648 506.036C844.644 504.306 846.923 501.373 847.731 497.732C849.253 490.848 844.906 484.04 838.023 482.517C748.428 462.734 664.766 429.907 589.371 384.94C583.317 381.334 575.479 383.319 571.868 389.364C568.262 395.419 570.233 403.253 576.292 406.867C654.043 453.234 740.243 487.078 832.512 507.453C835.754 508.168 838.985 507.584 841.644 506.049L841.648 506.036Z" stroke="#DFE4E8" stroke-linecap="round" stroke-linejoin="round"/>
</g>
<defs>
<clipPath id="clip0_292_4553">
<rect width="918" height="635" fill="white" transform="translate(0 0.00341797)"/>
</clipPath>
</defs>
</svg>
