<svg width="327" height="354" viewBox="0 0 327 354" fill="none" xmlns="http://www.w3.org/2000/svg">
<g opacity="0.45">
<path d="M-21.1994 575.825C-11.797 573.306 9.34938 566.273 15.6199 561.623C16.1555 561.225 16.6857 560.838 17.2347 560.457C20.5909 558.129 28.035 551.081 36.8676 537.116C38.8859 534.248 44.5481 527.589 51.051 523.899C59.1796 519.286 65.5869 514.41 68.6808 511.687C71.7746 508.963 81.1932 504.428 88.4347 509.687C95.6762 514.945 99.2388 530.306 95.7678 539.544C93.187 546.412 84.8246 552.238 80.1343 554.766C79.4746 555.121 78.8458 555.521 78.3031 556.022C73.2583 560.683 65.9915 570.555 71.9051 578.166C79.7145 588.217 95.5935 597.647 113.572 588.685C131.55 579.722 141.248 569.823 153.213 548.022C165.178 526.222 179.385 496.376 194.383 482.982C209.381 469.589 217.639 461.508 234.236 436.146C237.427 431.832 245.578 421.593 252.649 415.147C254.113 414.09 258.667 408.755 265.173 395.871C266.437 393.674 269.87 388.342 273.487 384.585C277.104 380.828 278.939 377.549 279.404 376.379C280.099 374.254 282.645 370.216 287.268 371.065C291.891 371.914 293.695 375.883 294.018 377.761C294.658 380.565 298.417 386.101 308.33 385.81C320.722 385.445 324.592 388.373 321.483 391.463C318.374 394.553 308.298 399.39 301.97 409.632L277.428 451.6C275.007 456.012 269.999 467.357 269.337 477.447C268.509 490.059 260.942 506.848 256.764 515.662C252.585 524.476 242.327 552.67 228.475 569.882C214.623 587.093 220.609 598.446 223.048 600.57C225.488 602.693 253.185 632.875 248.29 636.684C243.396 640.493 238.773 637.969 231.08 635.199C223.387 632.43 200.425 628.652 194.669 645.709C190.064 659.354 195.033 667.427 198.093 669.757" stroke="#BFC9D1" stroke-width="2"/>
<path d="M-41.3481 568.662C-28.7976 564.94 -0.307939 552.716 13.2475 533.587C26.803 514.459 35.7952 504.109 38.5969 501.325C42.3567 497.955 50.0955 489.773 50.9731 483.997C52.07 476.776 66.1384 470.119 74.6253 473.18C80.8806 475.436 87.6711 475.399 90.9386 475.04C91.4452 474.985 91.9465 474.941 92.4487 474.981C97.6159 475.398 108.763 479.149 117.614 491.658C129.25 508.103 133.36 525.714 146.591 510.569C159.823 495.424 162.391 485.965 170.28 480.554C178.169 475.142 199.319 458.12 214.097 421.633C215.096 419.813 217.745 414.986 220.351 410.238C223.608 404.303 227.818 385.28 214.656 376.395C201.494 367.51 204.811 352.504 214.359 356.021C223.907 359.539 253.116 374.441 268.752 345.953C281.261 323.162 298.186 301.487 305.085 293.498C315.466 280.46 335.482 250.723 332.498 236.084C328.767 217.784 317.694 204.25 316.836 198.479C315.978 192.708 303.08 175.869 301.669 174.772C300.259 173.674 291.299 160.328 309.721 148.767C328.143 137.205 340.329 139.005 341.148 130.845C341.967 122.685 338.756 117.867 347.899 108.21C357.042 98.5528 373.229 93.3968 385.161 100.327C397.094 107.256 400.094 122.46 391.718 135.721C383.342 148.982 376.478 148.487 369.742 154.759C363.006 161.03 344.621 177.192 355.912 195.959C367.203 214.727 377.542 225.228 369.395 239.405C361.247 253.583 353.467 258.424 347.746 271.516C342.024 284.608 301.023 340.976 318.059 358.612C321.873 362.206 336.941 367.19 367.179 359.412C369.138 358.908 371.318 358.619 373.268 358.08C378.75 356.567 390.009 352.053 395.114 345.57C401.758 337.131 410.208 342.072 415.551 346.006C418.109 348.485 425.249 354.449 433.341 358.47C443.456 363.495 448.068 367.51 442.545 376.653C437.022 385.796 423.767 396.61 419.238 402.102C414.709 407.595 408.484 418.017 411.298 426.227C414.112 434.437 406.911 437.439 398.114 431.851C389.318 426.264 378.668 418.073 346.197 416.987C320.22 416.119 303.454 437.683 298.319 448.573C294.948 455.48 287.782 471.911 286.075 482.378C283.942 495.463 278.905 514.299 270.328 535.905C261.752 557.511 259.668 564.067 254.338 571.938C249.008 579.809 245.504 599.531 261.776 610.816C278.048 622.101 284.364 623.009 294.503 618.334C304.641 613.659 313.41 603.201 319.377 611.186C325.344 619.171 314.847 642.435 301.317 655.589C298.153 658.595 290.405 665.17 284.724 667.426C277.623 670.245 274.247 680.536 281.603 684.15C288.959 687.764 291.822 689.446 303.368 682.666C314.914 675.886 322.274 679.953 326.388 685.335C330.502 690.716 332.764 693.495 324.89 701.402C317.017 709.309 312.002 718.445 315.396 722.839" stroke="#BFC9D1"/>
<path d="M-9.921 580.212C0.409413 577.497 22.4397 570.17 27.9176 562.582C34.765 553.097 43.6493 537.37 52.2833 534.754C59.1906 532.661 66.3231 529.039 69.0259 527.489C73.2851 525.328 81.5695 523.548 80.6336 533.721C79.949 537.193 76.8379 545.331 69.8709 550.11C62.9039 554.888 58.3174 565.255 56.895 569.84C55.8448 574.285 56.4432 584.47 67.238 589.652C80.7316 596.13 100.991 608.228 121.188 593.748C141.385 579.268 149.273 572.49 157.695 556.225C165.881 540.416 181.166 510.366 182.016 508.695C182.044 508.641 182.066 508.598 182.095 508.544C184.138 504.77 189.83 496.161 196.627 491.273C205.181 485.12 228.768 461.703 237.504 446.477C246.239 431.25 255.006 426.093 260.987 422.789C265.771 420.145 272.603 411.211 275.421 407.074C278.694 402.568 286.091 394.352 289.497 397.533C293.755 401.51 290.541 406.907 286.036 416.495C281.531 426.083 268.057 447.182 265.793 463.043C264.405 470.962 259.718 490.941 252.081 507.498C242.534 528.194 238.73 536.446 236.237 544.289C234.242 550.563 223.809 564.071 218.842 570.04C213.781 576.401 205.254 591.43 211.64 600.659C219.622 612.194 224.952 620.968 214.586 621.7C204.22 622.431 178.663 623.44 188.945 666.437" stroke="#BFC9D1"/>
<path d="M211.559 676.341C210.125 675.481 193.518 657.141 206.585 644.739C210.18 641.495 221.626 637.666 238.654 648.297C259.939 661.585 276.422 650.895 276.582 643.659C276.711 637.87 271.471 635.78 268.835 635.459C267.774 635.4 264.943 634.64 262.11 632.07C258.683 628.961 235.817 606.864 233.187 600.856C233.032 600.501 232.914 600.136 232.767 599.778C230.866 595.12 228.415 584.764 232.359 576.504C237.486 565.765 251.086 548.372 253.283 541.374C255.48 534.376 262.899 516.128 267.594 506.512C271.35 498.82 274.421 483.112 275.486 476.219C276.491 471.442 280.97 457.671 290.849 440.803C298.296 426.352 318.225 397.922 338.361 399.812C363.53 402.174 391.019 392.849 394.139 386.016C397.259 379.182 397.755 378.565 396.163 377.774C394.572 376.983 393.489 373.746 371.586 373.925C349.683 374.104 323.486 377.767 316.063 374.576C308.639 371.385 294.664 365.805 297.037 350.409C299.41 335.013 296.303 325.043 288.773 338.329C281.243 351.615 271.369 371.994 264.199 376.374C257.029 380.754 251.17 386.87 250.475 395.951C250.42 397.065 249.457 400.673 246.043 406.198C241.776 413.105 232.528 421.921 224.29 436.715C216.052 451.508 205.745 465.945 200.251 469.66C194.757 473.374 182.428 481.293 171.63 500.316C162.991 515.534 150.152 537.714 144.812 546.901C140.976 553.892 129.187 569.719 112.728 577.098C107.557 579.588 95.6555 582.982 89.4215 576.637C83.1874 570.291 88.6665 563.526 92.1853 560.936C100.267 556.076 115.152 542.766 110.033 528.417C103.635 510.48 106.333 501.298 90.7774 496.313C75.2214 491.328 62.0965 502.444 58.2921 506.176C54.4876 509.909 50.2119 513.7 46.4486 515.225C42.6853 516.749 36.6008 523.036 29.859 535.586C23.1172 548.136 9.8485 556.048 1.44556 560.161C-5.2768 563.45 -21.1494 569.868 -28.2454 572.665" stroke="#BFC9D1"/>
<path d="M-56.2427 562.63C-41.4641 558.023 -9.55955 544.909 -0.170323 529.311C11.0745 510.63 21.0326 498.622 21.8471 497.648C21.8873 497.601 21.9185 497.563 21.957 497.514C23.5116 495.535 26.937 488.959 28.656 477.814C30.8309 463.713 26.4095 454.803 37.0683 453.797C47.7272 452.79 85.3103 451.9 97.8347 457.668C110.359 463.436 138.971 481.599 146.23 479.143C153.488 476.687 164.079 476.284 185.991 440.883C207.902 405.483 202.051 390.653 190.104 375.827C178.157 361.001 170.157 350.497 183.198 343.181C196.24 335.866 195.629 327.933 199.892 326.333C204.155 324.733 206.785 323.643 215.207 330.089C223.629 336.536 241.182 358.415 259.643 335.058C278.104 311.7 282.649 304.438 288.452 298.511C294.254 292.584 303.166 270.272 305.553 262.35C307.939 254.428 311.287 247.972 313.46 242.94C315.633 237.909 311.965 214.577 285.241 204.669C276.598 201.597 262.483 188.535 275.161 160.86C291.01 126.266 286.678 108.789 282.976 90.8808C280.118 82.9855 279.253 66.6478 298.653 64.4597C300.166 64.2891 308.991 62.0607 312.058 60.0455C315.125 58.0303 321.392 60.5484 335.511 66.2666C346.429 70.6882 362.883 72.7686 370.471 73.3203C370.974 73.3568 371.478 73.3356 371.985 73.3384C375.696 73.3591 385.014 75.6505 398.36 85.0353C416.33 97.6723 430.928 103.947 436.779 113.655C442.629 123.363 464.226 134.752 482.636 133.367C501.047 131.982 508.678 127.367 522.301 140.065C535.923 152.763 545.308 159.604 564.192 158.071C583.075 156.538 624.08 152.934 635.039 168.698C637.087 171.041 643.318 175.766 651.858 175.928C662.534 176.13 667.011 182.266 671.087 187.702C674.348 192.051 679.727 196.972 682.009 198.889" stroke="#BFC9D1" stroke-width="2"/>
<path d="M-34.2948 569.971C-20.374 564.283 9.00719 550.34 15.1652 540.071C22.8626 527.234 29.8881 517.999 37.0316 512.511C44.1751 507.022 51.7158 496.452 56.1466 491.548C60.5774 486.645 79.723 480.285 89.3832 482.492C99.0434 484.699 109.445 491.894 115.438 506.725C121.432 521.556 126.304 549.522 140.63 532.531C154.956 515.541 166.071 491.724 175.124 483.944C184.178 476.164 209.911 449.877 219.379 428.269C219.984 427.167 226.962 412.076 231.559 406.077C236.156 400.077 236.442 392.03 235.102 388.925C233.762 385.82 233.123 371.929 246.872 370.253C260.621 368.576 266.152 358.893 271.607 350.539C277.062 342.185 292.263 317.916 300.49 310.378C307.071 304.347 319.703 284.774 325.196 275.741C327.313 272.304 332.155 266.033 334.581 268.442C337.613 271.453 330.74 286.507 327.093 294.099C323.447 301.691 303.488 333.63 305.915 348.179C308.341 362.728 313.696 367.514 335.452 367.396C357.207 367.277 389.515 361.212 395.254 357.395C400.993 353.578 408.574 356.837 413.067 358.768C417.56 360.699 427.097 367.667 423.326 377.068C419.554 386.47 416.544 386.262 412.104 390.874C407.665 395.486 403.84 398.344 401.639 402.987C399.438 407.629 393.747 413.256 383.786 409.906C373.825 406.555 344.843 404.033 329.701 408.857C314.56 413.682 304.331 429.156 293.485 446.073C284.808 459.606 281.3 476.179 280.631 482.773C279.513 488.813 275.659 504.668 269.177 519.766C261.075 538.638 261.81 542.99 250.149 562.972C238.488 582.954 234.845 590.857 245.3 603.424C255.755 615.991 268.235 628.03 281.525 627.844C294.815 627.657 300.031 623.845 302.303 627.926C304.575 632.008 298.104 645.061 284.037 652.986C272.784 659.327 267.66 663.645 266.506 665.011C263.872 668.122 256.419 672.133 247.673 663.281C236.74 652.217 214.268 650.164 212.878 659.968C211.488 669.772 225.032 683.666 242.977 679.426C260.921 675.185 256.485 671.571 262.555 678.216C268.625 684.862 272.218 696.652 284.536 697.29C296.853 697.927 300.537 695.008 303.437 698.894C306.337 702.779 301.679 715.06 301.679 715.06" stroke="#BFC9D1"/>
<path d="M483.839 558.76C483.039 559.697 464.096 586.907 449.958 594.407C435.819 601.907 428.724 609.617 419.991 614.573C411.258 619.529 399.845 621.54 389.415 616.545C378.985 611.549 369.683 617.542 363.6 621.843C357.516 626.145 346.63 636.068 344.159 616.049C341.688 596.03 333.08 573.629 326.483 571.562C319.886 569.494 318.85 569.818 313.019 576.79C307.188 583.762 286.97 596.078 280.379 580.436C273.788 564.794 282.21 549.97 287.427 538.378C292.643 526.787 292.355 505.4 292.675 502.208C292.996 499.015 297.448 464.296 315.404 443.579C333.361 422.862 360.991 427.822 375.161 438.524C386.497 447.085 392.414 459.261 393.956 464.278C396.351 470.175 405.485 479.584 422.862 470.043C444.584 458.117 463.782 448.181 457.356 424.412C450.929 400.644 458.278 381.515 472.834 368.559C487.289 355.692 500.066 346.398 528.78 352.014C529.175 352.091 529.57 352.2 529.943 352.335C532.964 353.426 539.437 355.875 545.201 358.415C552.889 361.803 556.128 355.565 554.473 349.629C552.817 343.692 543.417 313.528 534.377 309.393C525.337 305.258 515.636 302.665 504.683 311.474C493.729 320.284 483.177 339.346 467.044 342.418C450.91 345.49 447.562 349.61 430.754 331.266C428.728 328.542 426.029 320.063 431.442 307.935C438.208 292.776 427.547 290.973 418.037 292.167C408.527 293.36 395.067 300.336 387.97 314.683C380.872 329.03 382.585 338.08 365.469 343.509C348.353 348.938 326.089 345.066 330.638 334.513C335.187 323.96 352.56 298.443 361.682 277.95C364.348 273.086 371.678 262.703 379.668 260.085C389.657 256.813 410.731 241.046 396.188 221.318C381.645 201.59 363.685 180.866 379.887 168.68C396.09 156.493 428.633 149.203 443.508 157.251C458.382 165.3 454.809 168.729 460.608 182.334C466.408 195.94 477.551 219.644 508.855 214.422C540.16 209.199 562.192 196.209 587.121 209.052C612.049 221.895 632.043 243.729 641.628 269.601" stroke="#BFC9D1" stroke-width="2"/>
<path d="M460.047 606.393C453.713 607.649 437.512 613.234 423.379 625.521C409.246 637.809 394.407 634.983 388.754 632.034C385.522 630.327 377.229 628.985 369.915 637.268C360.772 647.623 347.862 669.69 337.633 665.055C327.404 660.42 321.677 655.339 328.048 634.033C334.42 612.726 333.843 594.385 324.165 591.653C314.488 588.922 312.89 590.378 303.525 599.684C294.16 608.991 279.215 618.28 268.224 599.033C257.233 579.786 265.424 571.165 269.43 562.412C273.435 553.659 283.394 524.847 285.846 509.713C288.298 494.578 296.505 448.11 315.716 435.894C334.928 423.678 351.089 418.959 373.705 429.633C391.02 437.805 398.985 448.121 401.11 452.826C401.29 453.223 401.473 453.611 401.717 453.976C406.085 460.519 417.207 468.889 429.686 453.696C442.519 438.071 436.614 430.406 432.057 428.527C427.785 426.452 422.452 418.875 435.301 405.162C451.362 388.02 446.734 386.269 453.535 378.241C460.336 370.213 468.535 362.548 464.213 358.786C459.892 355.024 452.089 358.574 442.063 352.598C432.038 346.622 421.887 338.45 417.801 324.076C413.715 309.702 405.267 312.974 402.083 317.32C398.9 321.665 392.098 342.786 374.985 349.239C357.872 355.691 334.739 360.508 325.864 350.979C318.765 343.357 322.208 332.267 324.817 327.675C332.269 316.038 348.202 290.303 352.328 280.458C357.486 268.153 365.801 261.728 373.785 253.97C381.768 246.212 394.759 234.179 378.083 215.108C361.407 196.036 357.804 174.966 377.858 160.731C397.911 146.496 430.57 138.869 422.797 119.577C415.024 100.285 378.863 86.1704 359.66 86.2488C340.791 86.3258 315.688 84.1833 306.433 103.995C306.107 104.693 305.926 105.442 305.827 106.186C305.063 111.906 302.112 124.064 295.149 134.94C285.826 149.502 269.142 182.327 294.579 197.07C320.017 211.813 323.851 234.888 322.441 246.185C321.313 255.223 306.629 280.813 299.428 292.478C291.146 303.044 272.676 327.355 265.055 340.078C255.528 355.981 240.193 356.769 230.606 351.934C222.936 348.066 216.992 344.416 214.978 343.074C212.277 340.723 205.214 337.496 198.567 343.4C190.259 350.78 189.373 360.636 195.648 367.143C201.923 373.649 214.735 392.488 207.396 413.617C200.057 434.746 183.451 464.033 172.563 470.78C163.853 476.178 156.582 484.544 154.036 488.052C151.216 493.029 142.787 500.596 131.639 491.042C117.703 479.1 108.351 463.653 84.7481 463.507C61.145 463.36 63.1961 464.956 56.533 463.52C49.8699 462.085 43.8381 464.71 38.7693 480.441C37.9501 483.933 35.2392 492.27 30.949 497.688C25.5864 504.461 17.8152 514.124 10.2897 526.836C2.76421 539.548 -15.3599 554.084 -48.3186 566.168" stroke="#BFC9D1"/>
<path d="M632.645 289.244C633.602 279.609 631.453 257.044 615.204 243.859C594.893 227.379 578.094 213.269 552.513 216.912C526.933 220.555 504.913 232.617 474.902 216.273C451.665 203.618 443.485 185.926 442.106 177.92C442.019 177.413 441.911 176.911 441.704 176.44C438.755 169.719 427.31 159.453 402.236 167.27C376.254 175.369 383.309 191.374 390.084 198.363L415.38 226.9C415.669 227.227 415.991 227.524 416.326 227.81C420.75 231.588 426.298 240.281 416.413 248.1C403.575 258.256 397.785 266.471 385.856 271.856C373.927 277.241 367.846 292.213 362.908 299.265C358.957 304.906 349.569 318.507 345.369 324.602C342.671 328.221 340.013 335.451 350.969 335.42C364.664 335.381 372.944 326.134 374.077 317.063C375.209 307.993 377.653 290.694 402.407 284.131C427.16 277.568 438.302 281.402 442.803 284.101C447.304 286.8 454.938 293.522 445.743 306.773C436.548 320.023 440.711 334.237 451.741 334.773C462.77 335.308 473.684 332.163 488.261 313.389C502.837 294.615 512.314 294.866 522.382 293.65C530.436 292.678 534.053 291.849 534.855 291.557C537.919 290.644 545.031 291 548.96 299.723C553.872 310.626 564.356 328.895 570.872 357.118C576.085 379.696 580.798 380.945 582.503 378.747" stroke="#BFC9D1"/>
</g>
</svg>
