<svg width="526" height="392" viewBox="0 0 526 392" fill="none" xmlns="http://www.w3.org/2000/svg">
<mask id="mask0_523_8729" style="mask-type:alpha" maskUnits="userSpaceOnUse" x="0" y="0" width="526" height="392">
<rect x="0.903564" width="525" height="392" rx="20" fill="#EB31B6"/>
</mask>
<g mask="url(#mask0_523_8729)">
<g opacity="0.3">
<path d="M197.994 -300.537C203.887 -306.594 209.78 -312.387 215.483 -318.707C223.113 -327.539 229.943 -337.62 235.823 -348.728C241.526 -359.262 246.849 -370.322 252.172 -381.119C263.577 -404.556 276.314 -426.15 291.712 -441.687C300.671 -450.85 310.447 -458.374 320.797 -464.071C327.725 -467.641 334.844 -470.459 342.088 -472.498C347.49 -473.822 352.953 -474.613 358.436 -474.868C362.808 -475.395 367.371 -475.658 371.743 -475.658C378.016 -475.658 384.289 -475.131 390.753 -474.868C397.596 -474.605 404.44 -473.815 411.473 -474.341C422.309 -475.131 433.145 -477.238 443.41 -483.558C451.961 -488.299 459.396 -496.229 464.891 -506.469C469.244 -515.071 471.749 -525.206 472.115 -535.7C472.685 -545.97 472.875 -556.503 473.445 -566.773C473.93 -578.497 475.726 -590.046 478.768 -601.007C480.26 -606.241 482.106 -611.267 484.281 -616.018C489.925 -627.976 497.901 -637.472 507.283 -643.405C514.137 -648.134 521.536 -651.164 529.144 -652.359C533.236 -653.19 537.365 -653.63 541.5 -653.675C546.633 -653.412 551.576 -652.359 556.518 -651.569C561.08 -650.779 565.643 -649.726 570.395 -649.462C577.049 -648.936 583.892 -648.672 590.546 -648.672C594.066 -648.987 597.562 -649.691 601.001 -650.779C603.852 -651.306 606.894 -651.832 609.746 -652.359C613.167 -653.149 616.779 -653.939 620.201 -654.466L625.333 -655.256C628.185 -655.519 631.036 -655.519 633.888 -656.046C646.434 -658.153 659.171 -657.626 671.717 -657.363C677.253 -657.053 682.773 -656.349 688.256 -655.256C691.297 -654.729 694.339 -654.465 697.381 -653.675C701.563 -652.885 705.935 -652.096 710.117 -650.779C718.731 -648.163 727.136 -644.369 735.21 -639.455C746.547 -632.511 756.761 -622.481 765.246 -609.961C771.839 -600.09 777.116 -588.677 780.834 -576.254C783.819 -566.906 785.124 -556.695 784.636 -546.496C784.238 -537.396 782.142 -528.594 778.552 -520.952C770.948 -504.625 761.063 -494.092 750.228 -485.665C742.339 -479.508 733.989 -474.563 725.325 -470.918C719.075 -468.545 712.726 -466.698 706.315 -465.387C698.804 -463.377 691.141 -462.67 683.503 -463.281C679.229 -463.593 674.974 -464.296 670.767 -465.387C665.699 -466.562 660.684 -468.145 655.749 -470.128C644.476 -475.104 633.83 -482.478 624.193 -491.985C616.589 -499.359 609.175 -507.259 601.761 -514.895C596.058 -520.689 590.356 -526.219 583.892 -528.326C574.197 -531.749 565.453 -528.326 557.849 -516.212C555.096 -511.943 553.023 -506.918 551.766 -501.465C550.524 -495.934 550.135 -490.102 550.625 -484.348C551.968 -472.688 554.8 -461.451 558.989 -451.167C566.403 -430.627 574.197 -410.35 580.28 -388.229C585.181 -370.166 588.748 -351.46 590.926 -332.401C592.542 -318.21 593.116 -303.828 592.637 -289.477C592.164 -277.26 591.02 -265.111 589.215 -253.136C586.534 -236.774 582.715 -220.811 577.809 -205.471C574.007 -193.621 570.015 -182.034 565.833 -170.71C558.609 -150.433 551.766 -130.156 545.873 -108.562C541.31 -91.4447 536.938 -73.8013 531.995 -56.9475C527.439 -41.2365 521.705 -26.2316 514.887 -12.1798C506.142 6.25404 496.067 22.0544 486.562 39.1715C481.133 48.5052 476.715 58.8843 473.445 69.9822C471.131 78.1979 470.032 86.9742 470.214 95.7896C470.597 106.403 472.537 116.797 475.917 126.337C480.401 138.93 485.816 150.844 492.075 161.888C495.687 168.472 499.489 175.055 503.291 181.375C512.225 196.122 521.16 210.606 530.095 225.09C535.037 232.99 539.98 241.153 544.732 249.053C554.237 264.854 563.742 280.654 573.057 296.718C583.892 315.679 594.158 335.429 604.993 354.126C614.461 370.56 625.529 385.094 637.88 397.314C648.875 408.135 660.741 417.149 673.238 424.174C679.544 427.914 686.2 430.396 693.008 431.548C696.973 432.379 700.975 432.819 704.985 432.865C711.219 432.525 717.376 430.837 723.234 427.862C737.871 420.488 750.608 407.321 762.204 390.73C769.909 380.129 776.214 367.741 780.834 354.126C784.007 344.339 785.751 333.778 785.966 323.052C785.998 309.716 784.457 296.463 781.404 283.815C777.792 268.014 773.99 252.74 769.998 237.203C765.246 218.769 760.113 200.336 756.501 181.112C754.714 171.792 753.505 162.277 752.889 152.671C751.368 132.657 754.03 113.96 758.782 95.7896C764.435 74.4006 771.234 53.627 779.123 33.6418C784.53 19.3093 790.627 5.49615 797.372 -7.70313C806.196 -25.1984 816.682 -40.9648 828.548 -54.5771C833.491 -60.3706 838.813 -65.3746 844.136 -70.9047C844.866 -71.7402 845.506 -72.7152 846.037 -73.8011" stroke="#F2F4F6" stroke-width="1.5" stroke-linecap="round" stroke-linejoin="round"/>
<path d="M197.994 -233.125C202.556 -238.129 206.928 -242.869 211.3 -247.872C220.805 -258.933 230.31 -269.73 239.625 -281.317C248.364 -292.24 256.09 -304.624 262.627 -318.184C269.09 -331.351 275.363 -344.781 282.017 -357.685C291.902 -377.436 303.498 -394.026 317.375 -405.086C324.823 -411.096 332.905 -415.45 341.327 -417.99C347.43 -419.992 353.685 -420.965 359.957 -420.887C362.238 -420.887 364.329 -421.677 366.61 -421.413C372.884 -421.15 379.157 -420.623 385.62 -420.097C390.563 -419.57 395.695 -419.043 400.638 -418.78C408.052 -418.253 415.466 -417.99 423.069 -417.99C428.202 -418.253 433.335 -419.307 438.467 -420.097C442.84 -420.887 447.212 -421.413 451.394 -422.203C455.196 -422.993 458.998 -424.047 462.61 -424.837C465.461 -425.363 468.313 -426.417 471.164 -426.68C477.094 -427.644 483.063 -428.084 489.033 -427.997C506.713 -427.207 522.871 -417.727 536.558 -397.45C545.023 -384.926 551.67 -370.263 556.138 -354.262C559.368 -343.158 561.355 -331.436 562.031 -319.501C562.568 -313.385 562.822 -307.228 562.791 -301.067C562.44 -286.36 560.518 -271.807 557.088 -257.88C551.956 -236.286 543.782 -217.851 535.607 -199.418C527.433 -180.984 518.689 -162.287 513.176 -140.693C510.705 -131.213 508.423 -121.206 506.332 -111.462C502.34 -92.7651 498.728 -74.0682 493.406 -56.4244C489.584 -43.4359 484.739 -31.0718 478.958 -19.5569C472.875 -7.70656 466.222 3.88079 460.139 15.7311C454.246 27.0547 448.352 38.1151 444.17 52.0721C440.888 62.6751 439.18 74.0844 439.147 85.621C439.114 97.1576 440.758 108.586 443.98 119.224C446.741 128.199 450.048 136.832 453.865 145.031C457.294 152.76 461.105 160.152 465.271 167.152C470.974 176.895 476.867 185.849 482.76 195.329C484.851 198.752 486.942 201.912 488.843 205.336C501.01 225.876 513.366 246.154 525.152 267.221C534.822 284.192 543.65 302.053 551.576 320.679C560.51 342.009 569.255 363.603 578.189 384.67C586.456 404.246 597.594 421.201 610.886 434.442C621.151 444.448 631.987 453.139 642.632 461.566C655.179 471.573 667.535 481.579 680.082 491.06C685.132 494.978 690.579 497.818 696.24 499.486C704.646 501.905 713.398 500.134 720.953 494.483C731.492 486.93 741.377 477.741 750.418 467.095C763.535 452.348 776.651 437.601 789.578 422.328C797.562 412.847 805.356 402.841 812.96 392.307C819.745 382.996 825.111 371.892 828.738 359.653C830.829 352.428 832.049 344.778 832.35 337.006C832.895 321.85 830.945 306.722 826.647 292.765C821.324 273.804 815.812 255.107 810.299 236.146C804.973 217.454 801.086 198.034 798.703 178.212C797.185 163.917 796.802 149.435 797.562 135.024C798.35 117.927 800.911 101.076 805.166 84.9896C808.869 70.0565 813.646 55.6761 819.423 42.0651C826.354 25.8598 834.79 10.9855 844.516 -2.17618C845.175 -3.22815 845.748 -4.37615 846.227 -5.59973" stroke="#F2F4F6" stroke-width="1.5" stroke-linecap="round" stroke-linejoin="round"/>
<path d="M198.182 -275.516C210.662 -286.797 222.201 -299.956 232.59 -314.754C239.636 -325.092 245.998 -336.285 251.6 -348.198C257.113 -359.785 263.006 -370.845 268.519 -382.169C275.616 -396.391 284.055 -409.233 293.612 -420.353C303.526 -432.076 315.03 -440.939 327.449 -446.424C333.342 -448.794 339.235 -451.164 345.128 -453.007C349.12 -454.061 353.112 -454.061 357.104 -454.588C360.146 -454.851 363.378 -455.378 366.419 -455.378C370.791 -455.378 375.164 -455.114 379.536 -454.588C384.098 -454.324 388.851 -453.797 393.413 -453.007C402.375 -451.648 411.398 -451.208 420.407 -451.691C425.349 -451.954 430.292 -453.007 435.234 -453.797C447.211 -455.641 458.807 -461.171 470.403 -465.911C476.296 -468.545 482.189 -470.914 488.272 -472.758C497.961 -475.984 508.174 -473.909 516.786 -466.964C525.294 -459.698 533.034 -450.836 539.788 -440.63C549.476 -426.601 557.669 -410.728 564.121 -393.493C572.297 -373.029 577.587 -350.597 579.709 -327.394C580.279 -320.811 580.849 -314.227 581.04 -307.38C581.325 -300.451 581.325 -293.506 581.04 -286.577C580.285 -277.015 579.143 -267.519 577.618 -258.136C574.488 -239.573 569.565 -221.68 562.98 -204.941L544.731 -157.54C538.435 -140.797 533.157 -123.356 528.953 -105.399C524.961 -89.0715 520.969 -72.2181 516.596 -56.4177C511.983 -39.7259 505.782 -23.9617 498.157 -9.54305C491.503 2.83392 484.66 14.9479 478.006 27.0616C472.797 36.063 468.155 45.6658 464.129 55.7654C459.568 67.664 457.34 81.0116 457.666 94.4762C457.887 101.418 458.914 108.264 460.708 114.753C464.185 128.794 469.395 141.892 476.106 153.465C480.858 162.155 485.42 170.845 490.363 179.009C498.347 192.439 506.711 205.343 514.885 218.51C517.167 222.196 519.638 226.146 521.919 230.096C525.721 236.416 529.523 242.736 533.135 249.057C538.648 258.274 544.351 267.491 549.673 277.234C557.467 291.455 565.071 306.202 572.675 320.686C578.378 331.746 583.891 343.069 589.784 353.866C594.537 362.82 599.289 371.773 604.422 380.2C611.73 392.066 620.098 402.597 629.324 411.538C635.598 417.595 641.871 423.388 648.524 428.655C660.559 438.747 673.459 446.709 686.924 452.356C694.644 455.37 702.693 456.44 710.686 455.515C719.136 454.16 727.291 450.394 734.639 444.455C744.87 436.636 754.49 427.37 763.343 416.805C770.873 407.782 778.044 398.2 784.824 388.1C790.53 379.55 795.389 369.986 799.272 359.659C802.963 349.822 804.856 338.882 804.785 327.796C804.749 313.387 802.816 299.109 799.082 285.661C795.66 271.704 791.858 258.011 788.246 244.317C783.607 227.618 779.672 210.56 776.46 193.229C774.311 181.562 772.849 169.672 772.088 157.678C771.551 146.798 771.678 135.874 772.468 125.024C774.179 103.693 778.931 84.2063 784.444 65.2459C790.326 44.8782 797.783 25.4533 806.686 7.31107C814.51 -8.73034 823.843 -23.2547 834.44 -35.8771C837.672 -39.8272 841.093 -43.5137 844.515 -47.4638C844.94 -48.117 845.322 -48.8223 845.656 -49.5706" stroke="#F2F4F6" stroke-width="1.5" stroke-linecap="round" stroke-linejoin="round"/>
<path d="M198.182 -251.292C207.687 -261.562 217.002 -271.832 226.507 -282.365C237.469 -294.937 247.184 -309.459 255.402 -325.553C261.485 -337.14 266.998 -349.78 272.891 -361.631C281.825 -379.801 291.52 -396.128 303.307 -408.505C318.108 -423.886 335.796 -433.029 354.253 -434.839C360.906 -435.103 367.37 -435.629 374.023 -435.366C378.965 -435.366 383.718 -434.576 388.66 -434.049C393.223 -433.523 397.595 -432.733 402.157 -432.733C410.142 -432.206 418.126 -431.942 425.92 -431.942C430.446 -432.254 434.954 -432.958 439.417 -434.049C444.359 -434.839 449.302 -435.893 454.244 -436.946C458.426 -438 462.799 -439.316 466.981 -440.106C471.163 -440.896 475.345 -442.213 479.527 -442.74C484.28 -443.266 489.222 -443.53 493.975 -443.53C502.935 -443.188 511.692 -439.748 519.448 -433.523C530.473 -425.359 539.978 -412.719 548.153 -397.708C556.205 -382.765 562.199 -365.893 565.832 -347.937C567.963 -337.425 569.426 -326.675 570.204 -315.81C571.494 -294.163 569.553 -272.38 564.501 -251.818C559.558 -231.278 552.335 -213.634 544.921 -195.99C539.218 -182.297 533.515 -168.602 528.192 -154.645C523.063 -140.296 518.926 -125.307 515.836 -109.878C512.034 -92.4971 508.612 -75.1167 503.67 -58.5263C499.203 -42.9555 493.394 -28.1894 486.371 -14.5486C481.238 -4.80504 475.915 4.67519 470.593 14.4188C464.51 25.7424 458.236 36.8027 453.294 49.9697C449.565 59.7272 447.321 70.4405 446.7 81.447C446.079 92.4536 447.094 103.52 449.682 113.961C453.063 127.044 457.802 139.375 463.749 150.565C467.361 157.149 470.593 164.259 474.395 170.579C481.999 183.483 489.983 195.86 497.777 208.237L504.43 219.034C516.026 238.784 527.622 258.008 538.838 278.285C550.286 299.131 560.885 320.846 570.584 343.33C578.758 361.764 586.933 379.934 596.627 395.998C603.327 407.015 610.989 416.834 619.439 425.229C624.762 430.496 630.275 435.236 635.788 439.976C648.114 450.477 660.872 459.974 673.997 468.417C680.509 472.72 687.326 476.074 694.338 478.424C699.852 479.915 705.509 480.093 711.066 478.95C725.134 476.317 737.3 465.256 749.086 453.143C758.021 444.189 766.575 434.709 774.939 424.703C784.064 413.642 793.189 402.318 801.743 389.941C808.103 381.171 813.199 370.804 816.761 359.394C818.865 352.697 820.211 345.592 820.753 338.327C822.084 323.317 819.802 309.096 816.381 295.402C811.628 277.232 806.495 259.325 801.553 241.418C796.567 223.808 792.626 205.665 789.767 187.169C788.338 176.552 787.385 165.823 786.915 155.042C786.215 135.605 787.755 116.137 791.478 97.3708C796.409 71.646 804.304 47.1922 814.86 24.9523C823.018 7.53952 832.869 -8.23369 844.135 -21.9223C844.515 -22.449 844.895 -23.5025 845.275 -24.0291" stroke="#F2F4F6" stroke-width="1.5" stroke-linecap="round" stroke-linejoin="round"/>
<path d="M552.147 802.593C551.006 798.643 549.675 794.693 548.535 790.742C545.683 779.682 543.022 768.622 540.17 757.561C535.848 740.895 532.665 723.702 530.666 706.21C529.525 696.203 528.765 686.196 528.194 676.19C526.483 651.699 527.814 626.945 527.244 602.191C526.673 575.857 522.491 551.893 512.606 531.353C506.713 518.976 499.68 508.442 491.125 501.858C487.308 498.607 483.028 496.541 478.579 495.802C474.41 495.232 470.218 495.055 466.032 495.275C461.205 495.864 456.431 497.099 451.775 498.962C439.799 503.438 427.823 508.442 415.846 512.919C410.634 514.377 405.366 515.432 400.068 516.079C397.691 516.734 395.267 516.999 392.845 516.869C384.1 515.816 375.356 513.972 367.752 505.545C363.942 501.356 360.939 495.928 359.007 489.745C357.746 485.532 357.178 480.984 357.342 476.429C357.507 471.875 358.4 467.428 359.958 463.411C363.076 454.872 367.891 447.746 373.835 442.87C382.922 434.736 393.055 429.103 403.68 426.28C409.817 424.425 416.044 423.193 422.31 422.593C431.054 421.803 439.799 421.803 448.543 421.803C453.296 421.803 458.048 422.856 462.801 423.12C466.464 423.645 470.144 423.909 473.826 423.91C483.711 423.12 493.216 419.696 501.2 408.372C508.234 398.629 512.226 385.988 513.177 370.188C513.848 354.346 512.166 338.482 508.234 323.577C503.291 302.773 495.878 284.603 487.703 266.959C479.149 248.262 469.074 231.671 459.379 214.817C450.634 199.807 441.51 185.851 432.955 170.577C424.438 155.999 417.52 139.76 412.425 122.386C408.956 110.077 406.842 97.1162 406.151 83.9376C405.011 63.3971 408.433 44.7004 414.136 27.0566C419.078 11.5195 425.732 -1.91132 432.385 -15.605C440.939 -32.9854 449.494 -50.892 455.197 -71.6959C458.608 -84.4817 461.34 -97.5963 463.371 -110.934C466.222 -128.578 468.504 -146.748 472.496 -163.865C476.215 -179.773 481.457 -194.919 488.084 -208.896C494.927 -223.117 501.961 -237.074 508.614 -251.557C513.347 -261.59 516.878 -272.618 519.07 -284.212C522.301 -301.592 521.351 -318.445 515.077 -333.719C511.478 -342.949 505.898 -350.403 499.109 -355.05C493.351 -359.246 486.983 -361.587 480.48 -361.897C477.818 -361.897 475.157 -362.687 472.686 -362.424C467.553 -361.897 462.42 -361.107 457.288 -360.317C452.155 -359.527 447.022 -358.473 441.89 -357.42C438.088 -356.63 434.286 -355.313 430.674 -354.523C427.632 -353.733 424.401 -353.47 421.359 -352.943C417.367 -352.153 413.185 -351.363 409.193 -350.836C406.722 -350.573 404.441 -350.31 401.969 -350.047C397.977 -349.783 394.175 -349.783 390.183 -349.257C384.67 -348.73 379.158 -347.94 373.645 -346.886C367.499 -345.929 361.404 -344.434 355.395 -342.409C350.247 -340.47 345.273 -337.731 340.568 -334.246C331.019 -326.971 322.565 -317.227 315.665 -305.542C309.582 -295.535 303.689 -285.528 297.606 -275.521C288.596 -260.585 278.675 -246.753 267.95 -234.177C258.826 -223.644 249.321 -213.373 240.386 -202.313C228.03 -186.776 215.863 -170.712 203.697 -154.648C201.986 -152.278 200.085 -149.908 198.374 -147.538" stroke="#F2F4F6" stroke-width="1.5" stroke-linecap="round" stroke-linejoin="round"/>
<path d="M544.161 803.125C541.689 793.644 539.028 784.164 536.557 774.684C530.284 751.51 524.581 727.81 521.539 702.529C520.208 691.995 519.258 681.198 518.307 670.401C517.547 661.184 517.167 651.967 516.597 642.75C515.456 624.053 514.315 605.356 510.894 587.186C507.092 567.699 500.628 551.372 490.933 539.258C484.914 531.797 477.563 526.705 469.642 524.511C463.177 522.978 456.594 522.624 450.062 523.458C443.99 524.259 437.958 525.579 432.003 527.408L417.175 531.358C413.563 532.411 409.952 533.464 406.34 534.254C405.009 534.518 403.488 534.781 402.158 535.045C396.406 535.746 390.627 535.922 384.859 535.571C376.108 535.033 367.601 531.407 360.146 525.038C351.401 517.401 343.988 507.131 340.566 490.277C339.182 483.776 338.908 476.919 339.766 470.246C340.623 463.573 342.589 457.268 345.508 451.829C351.592 439.979 359.386 432.605 367.56 426.285C375.344 420.344 383.565 415.577 392.082 412.065C399.876 408.905 407.861 406.535 415.655 404.165C420.407 402.585 425.159 401.531 429.912 400.478C433.524 399.688 436.946 399.688 440.557 398.898C445.12 398.108 449.872 397.054 454.435 396.001C459.567 394.684 464.89 393.368 470.023 391.524C477.046 389.14 483.399 383.915 488.272 376.514C493.198 368.89 496.258 359.304 497.016 349.126C498.157 335.169 496.066 322.266 493.214 309.625C488.995 292.582 483.179 276.381 475.916 261.435C468.517 245.928 460.521 230.984 451.963 216.667C443.029 201.393 433.714 186.646 424.969 171.109C416.469 156.37 409.613 139.948 404.629 122.391C400.634 107.079 398.389 90.9973 397.975 74.7263C398.036 64.8878 398.864 55.0875 400.447 45.496C403.984 26.9107 409.631 9.22165 417.175 -6.90908C422.878 -19.5494 428.581 -31.9265 434.094 -44.5668C442.043 -63.0852 447.758 -83.2765 451.013 -104.345C453.484 -121.462 455.955 -138.579 458.807 -155.696C461.222 -171.193 464.989 -186.226 470.023 -200.464C475.366 -214.707 481.399 -228.431 488.082 -241.545C493.732 -252.427 498.452 -264.181 502.149 -276.569C504.057 -283.297 505.149 -290.415 505.381 -297.636C505.689 -306.371 504.028 -315.022 500.628 -322.39C495.948 -331.785 488.77 -338.224 480.668 -340.297C474.393 -341.792 468.01 -342.234 461.658 -341.614C456.68 -341.036 451.73 -340.069 446.831 -338.717C442.839 -337.927 438.846 -337.4 434.854 -336.347C430.862 -335.294 426.68 -334.241 422.498 -333.451C419.457 -332.924 416.225 -332.397 413.183 -331.87C408.621 -331.08 404.249 -330.29 399.686 -329.763C397.785 -329.5 396.074 -329.237 394.173 -328.974C387.14 -327.657 380.106 -326.603 373.073 -325.287C365.81 -323.867 358.715 -321.122 351.972 -317.124C340.868 -310.151 330.906 -300.115 322.697 -287.629C312.812 -273.409 303.307 -258.398 293.232 -244.968C284.297 -232.854 274.792 -222.057 265.477 -211.26C251.6 -195.46 237.723 -180.187 224.606 -162.28C215.862 -150.429 207.117 -138.579 198.183 -126.729" stroke="#F2F4F6" stroke-width="1.5" stroke-linecap="round" stroke-linejoin="round"/>
<path d="M846.039 -461.41C844.138 -463.517 842.237 -465.887 840.336 -467.994C835.393 -473.524 830.451 -479.054 825.508 -484.321C821.402 -488.932 816.341 -491.607 811.061 -491.957C807.244 -491.763 803.495 -490.51 800.035 -488.271C793.762 -484.32 787.869 -479.58 781.786 -475.104C762.909 -460.28 742.624 -449.199 721.525 -442.186C717.152 -440.869 712.78 -439.553 708.408 -438.763C702.705 -437.709 697.002 -437.183 691.299 -436.393C687.774 -435.692 684.206 -435.515 680.654 -435.866C674.761 -436.393 668.678 -437.973 662.785 -438.763C654.901 -440.185 647.135 -442.655 639.593 -446.136C634.84 -447.98 630.468 -450.877 625.715 -452.983C617.921 -456.67 610.317 -460.62 602.523 -463.517C597.391 -465.36 592.258 -465.36 587.696 -459.567C584.707 -455.721 582.874 -450.455 582.563 -444.819C581.613 -435.339 583.324 -426.649 584.844 -417.959C587.886 -400.842 591.498 -384.251 594.729 -367.134C597.913 -351.266 600.139 -335.059 601.383 -318.68C601.953 -311.043 602.333 -303.143 602.714 -295.506C602.904 -289.976 603.284 -284.182 603.094 -278.389C602.692 -262.87 601.228 -247.44 598.722 -232.304C596.63 -220.191 593.969 -208.34 591.118 -196.753C585.605 -174.369 578.001 -153.565 571.538 -131.972C565.645 -112.484 560.322 -92.4709 554.809 -72.4571C547.965 -47.7031 540.361 -23.7392 530.286 -2.672C524.238 10.0911 517.702 22.3978 510.706 34.1956C506.524 41.0424 502.342 47.8897 498.35 54.9999C492.859 64.4176 488.377 74.8835 485.043 86.0741C481.697 98.0032 481.165 111.094 483.522 123.468C485.861 136.002 489.787 147.861 495.118 158.493C503.482 176.926 513.558 192.727 523.063 209.054C528.766 218.797 534.849 228.014 540.742 237.495C547.205 247.765 553.668 258.298 560.322 268.568C576.1 293.322 590.928 319.92 606.135 345.727C614.747 360.896 624.496 374.755 635.22 387.071C647.057 400.676 660.411 411.527 674.761 419.199C680.478 422.44 686.491 424.567 692.63 425.519C695.481 425.782 698.333 426.836 701.184 426.836C713.544 426.767 725.602 421.536 735.782 411.825C741.793 406.191 747.283 399.558 752.13 392.075C757.727 383.339 762.341 373.484 765.818 362.844C768.423 354.588 769.967 345.766 770.38 336.774C771.33 319.393 768.479 303.329 765.057 287.266C760.636 267.95 755.497 248.964 749.659 230.384C746.618 219.85 743.386 209.317 740.344 198.52C736.939 186.94 734.576 174.823 733.311 162.443C732.075 148.265 733.381 133.883 737.113 120.571C741.485 104.244 747.568 90.0242 753.461 75.5405C761.065 57.1067 768.859 38.6725 776.843 20.502C781.215 10.7585 785.968 1.54169 790.72 -7.67521C800.443 -26.4247 812.026 -43.18 825.128 -57.4462C831.211 -64.293 837.675 -70.087 843.948 -76.4072C844.534 -77.1884 845.17 -77.8931 845.849 -78.5134" stroke="#F2F4F6" stroke-width="1.5" stroke-linecap="round" stroke-linejoin="round"/>
<path d="M536.559 803.125C533.897 793.381 531.046 783.637 528.574 773.894C523.457 755.521 519.015 736.799 515.268 717.802C512.796 703.582 510.895 689.098 509.375 674.615C507.474 655.391 505.763 636.167 503.291 617.47C500.82 597.983 495.878 580.076 487.133 566.119C481.404 556.705 473.801 549.835 465.272 546.368C457.098 542.945 448.733 543.472 440.369 543.735C435.768 544.314 431.197 545.281 426.682 546.631C423.07 547.421 419.268 547.948 415.656 548.738C412.044 549.528 408.052 550.581 404.441 551.372C402.809 551.851 401.158 552.203 399.498 552.425C392.921 553.125 386.32 553.3 379.728 552.952C368.471 551.846 357.666 546.37 348.552 537.151C338.462 527.476 330.816 513.661 326.691 497.65C324.496 489.693 323.697 481.127 324.357 472.658C325.018 464.188 327.121 456.057 330.492 448.933C336.385 436.292 344.179 428.129 352.354 421.282C361.281 413.552 370.857 407.361 380.868 402.848C388.662 399.161 396.456 396.001 404.25 392.841C411.284 390.208 418.508 387.837 425.541 385.467C433.335 382.834 441.129 380.201 448.923 377.304C456.482 374.711 463.591 370.055 469.834 363.61C476.238 356.819 480.578 346.956 482 335.959C483.146 326.567 482.757 316.938 480.86 307.782C477.584 290.736 472.319 274.547 465.272 259.854C455.577 238.26 444.171 219.827 432.955 200.866C423.084 184.819 414.123 167.738 406.151 149.778C398.647 132.674 393.611 113.714 391.324 93.9502C388.136 63.8108 391.859 33.0457 401.969 5.9949C407.672 -9.27882 414.136 -24.0259 420.409 -38.7729C428.978 -58.0066 435.327 -78.9752 439.228 -100.921C441.51 -114.352 443.03 -128.309 444.741 -142.003C446.072 -151.483 447.022 -160.963 448.543 -170.443C450.576 -182.92 453.309 -195.159 456.717 -207.047C461.326 -221.882 466.596 -236.306 472.496 -250.235C476.192 -258.51 479.19 -267.346 481.43 -276.569C483.331 -285.786 483.711 -295.003 479.339 -303.167C476.799 -308.201 473.009 -311.764 468.694 -313.174C462.718 -315.669 456.406 -316.21 450.254 -314.753C447.61 -314.228 444.942 -313.964 442.27 -313.963C437.708 -313.436 433.335 -312.384 428.773 -311.857L423.07 -311.067C418.508 -310.54 413.755 -310.276 409.193 -309.486C405.011 -308.96 401.019 -307.906 396.837 -307.38C393.225 -306.853 389.423 -306.59 385.811 -305.8C381.058 -304.747 376.116 -303.43 371.363 -301.85C361.612 -298.436 352.353 -292.735 343.989 -284.996C336.736 -277.909 329.932 -269.98 323.649 -261.295C311.673 -245.231 299.697 -228.641 286.77 -214.421C275.174 -201.517 263.388 -189.404 251.982 -176.237C239.816 -162.28 228.41 -146.479 217.004 -130.942C210.921 -122.515 204.458 -114.615 198.374 -106.452" stroke="#F2F4F6" stroke-width="1.5" stroke-linecap="round" stroke-linejoin="round"/>
<path d="M565.073 803.125C560.511 783.901 555.949 764.94 551.766 745.453C549.027 732.571 547.244 719.335 546.444 705.952C545.873 694.892 546.254 683.832 546.444 672.771C546.746 663.499 547.831 654.307 549.675 645.384C551.805 633.249 555.614 621.802 560.891 611.677C565.976 602.234 573.321 595.606 581.612 592.979C587.885 590.873 594.348 589.819 600.812 588.503C610.507 586.133 620.011 582.709 628.946 574.809C633.484 570.845 637.266 565.426 639.972 559.009C644.534 547.948 644.344 537.678 639.592 526.618C636.131 519.006 631.447 512.607 625.905 507.92C616.97 499.494 607.275 494.49 597.39 489.487C588.645 485.01 580.091 480.796 572.297 472.369C565.783 464.989 560.689 455.49 557.469 444.719C553.097 431.025 551.006 416.015 548.345 401.531C545.493 385.994 542.832 370.194 539.03 355.447C532.129 328.891 522.802 303.669 511.276 280.395C506.903 271.441 502.531 262.751 497.779 254.061C492.646 244.581 487.513 235.101 482 225.884C474.967 214.033 467.553 202.709 460.329 191.122C449.304 172.952 438.088 154.782 429.914 132.134C425.772 120.979 422.949 108.977 421.549 96.5835C419.843 80.6536 420.952 64.388 424.781 49.1823C428.429 35.5368 433.35 22.611 439.419 10.7344C447.213 -5.06597 455.387 -20.866 462.991 -36.9297C469.666 -51.7989 474.726 -67.9477 478.008 -84.8575C481.43 -101.448 484.472 -118.302 487.513 -135.156C491.542 -156.678 498.093 -177.139 506.903 -195.724C513.937 -210.998 521.351 -225.745 528.384 -241.282C534.099 -253.981 538.153 -267.977 540.36 -282.626C544.543 -311.857 540.931 -337.927 528.955 -360.311C523.231 -371.115 515.562 -379.65 506.713 -385.065C502.301 -388.059 497.536 -389.933 492.646 -390.595C487.416 -391.558 482.143 -391.999 476.868 -391.912C471.711 -391.602 466.571 -390.898 461.47 -389.805C457.098 -389.015 452.725 -388.488 448.543 -387.698C444.361 -386.908 440.369 -385.592 436.187 -384.802C432.955 -384.012 429.724 -383.748 426.492 -383.222C407.102 -380.588 387.712 -382.432 368.132 -381.642C357.274 -381.444 346.527 -378.591 336.385 -373.215C325.321 -366.54 315.503 -356.452 307.681 -343.721C300.374 -331.731 293.582 -319.157 287.34 -306.063C277.369 -285.862 265.619 -267.463 252.362 -251.289C242.287 -239.439 232.212 -227.588 222.137 -215.474C214.343 -205.994 206.739 -195.724 199.135 -185.98C198.945 -185.717 198.565 -185.454 198.374 -185.19" stroke="#F2F4F6" stroke-width="1.5" stroke-linecap="round" stroke-linejoin="round"/>
<path d="M846.039 -420.065C844.748 -421.133 843.415 -422.1 842.047 -422.962C837.104 -425.858 831.971 -428.755 827.029 -431.125C820.624 -434.45 814.086 -437.263 807.449 -439.552C803.015 -440.861 798.481 -441.392 793.952 -441.132C786.869 -440.245 779.826 -438.838 772.851 -436.919C762.586 -434.022 752.32 -430.598 742.055 -427.438C734.261 -425.068 726.277 -422.435 718.483 -420.065C714.871 -419.012 711.069 -418.485 707.457 -417.695C702.515 -416.641 697.762 -415.588 692.82 -414.798C690.729 -414.535 688.638 -414.008 686.737 -414.008C676.661 -413.745 666.396 -413.481 656.321 -413.218C651.949 -413.218 647.386 -414.271 643.014 -413.745C637.501 -413.218 632.179 -412.955 626.856 -409.795C619.632 -405.318 615.64 -396.891 615.07 -383.987C614.69 -376.087 614.499 -368.187 614.689 -360.287C614.88 -352.386 615.83 -344.486 616.21 -336.586C616.591 -330.529 616.591 -324.473 617.161 -318.416C618.079 -303.441 618.333 -288.402 617.921 -273.384C617.737 -263.517 617.166 -253.672 616.21 -243.89C614.746 -228.642 612.393 -213.583 609.177 -198.86C606.135 -184.639 602.713 -170.419 599.482 -156.462C595.68 -140.661 591.688 -125.124 587.886 -109.587C584.654 -96.6834 581.422 -83.7798 578.381 -70.8762C571.494 -42.6424 561.351 -16.1406 548.345 7.59927C544.163 15.2361 539.981 23.1362 535.609 30.5097C529.336 41.0433 522.682 51.0504 516.599 61.584C510.901 70.8467 506.341 81.345 503.102 92.6582C501.07 99.5859 500.161 107.047 500.441 114.515C500.866 121.418 501.888 128.226 503.482 134.793C507.026 148.443 512.094 161.238 518.5 172.713C523.633 182.457 528.765 192.464 534.278 201.417C542.072 214.321 550.056 226.698 558.04 239.075C563.363 247.502 568.686 255.666 574.009 263.829C581.993 276.206 589.977 288.583 597.961 301.223C600.812 305.437 603.284 310.177 606.135 314.39C617.921 333.351 629.517 352.048 643.204 366.795C654.61 379.435 666.966 389.442 680.273 394.445C684.646 396.025 689.208 396.816 693.58 397.869C700.663 399.134 707.862 397.865 714.491 394.182C720.639 390.819 726.208 385.705 730.839 379.172C736.167 371.961 740.316 363.25 743.006 353.628C746.422 341.309 747.597 328.014 746.427 314.917C744.966 295.306 740.974 276.218 734.641 258.562C727.227 237.759 719.243 217.481 711.449 197.204C707.422 187.146 704.294 176.445 702.135 165.34C700.947 158.785 700.246 152.079 700.043 145.326C699.785 132.876 702.022 120.57 706.507 109.775C710.835 99.6694 716.003 90.3006 721.905 81.861C731.946 66.9513 741.401 51.3037 750.229 34.9864C758.023 20.5027 765.247 4.70265 772.851 -10.0444C782.356 -28.2149 792.241 -45.5953 803.647 -60.079C811.074 -69.6793 819.017 -78.4828 827.409 -86.413C833.302 -91.9431 839.385 -96.9468 845.278 -102.477C845.832 -103.111 846.341 -103.817 846.799 -104.584" stroke="#F2F4F6" stroke-width="1.5" stroke-linecap="round" stroke-linejoin="round"/>
<path d="M529.146 802.593C528.765 801.539 528.195 800.749 527.815 799.696C524.013 787.055 520.211 774.415 516.789 761.511C511.657 741.761 506.524 722.01 503.673 700.68C501.201 682.246 498.92 663.549 496.449 645.115C494.168 628.262 491.316 611.407 485.613 596.66C478.96 579.28 469.835 568.746 458.429 563.743C450.255 560.056 441.891 560.583 433.526 560.847C428.108 561.423 422.714 562.39 417.368 563.743C412.426 564.796 407.673 566.377 402.731 567.43C398.929 568.22 395.127 568.483 391.515 569.01C387.143 569.273 382.77 570.063 378.588 569.8C368.634 569.29 358.889 565.69 350.074 559.266C338.767 550.856 329.06 538.853 321.749 524.242C316.06 513.671 312.044 501.557 309.963 488.691C308.705 480.961 308.647 472.948 309.794 465.185C310.941 457.421 313.267 450.084 316.616 443.66C321.801 433.386 328.388 424.619 336.006 417.853C345.806 408.589 356.408 401.069 367.562 395.469C381.059 388.622 394.556 382.039 408.243 376.245C420.22 370.978 432.386 366.502 443.982 359.392C450.577 355.752 456.444 349.972 461.091 342.537C465.182 335.736 467.699 327.386 468.314 318.574C469.265 303.563 466.413 290.133 462.421 277.493C458.121 263.748 452.563 250.826 445.883 239.045C440.37 229.038 435.047 219.031 429.534 209.024C426.113 202.704 422.121 197.174 418.699 190.854C410.335 175.58 401.97 160.043 395.507 142.136C389.481 126.132 385.372 108.877 383.341 91.0478C382.229 81.6502 381.784 72.1252 382.01 62.6076C382.467 46.1483 384.776 29.8886 388.853 14.4162C393.986 -5.33429 401.21 -22.4515 408.243 -40.3586C412.426 -50.8922 416.037 -61.689 419.839 -72.486C424.159 -85.9374 427.226 -100.096 428.964 -114.62C430.485 -125.944 431.435 -137.268 432.576 -148.592C434.857 -170.975 437.138 -193.359 440.94 -215.216C442.651 -225.486 444.172 -236.02 445.693 -246.554C447.784 -262.091 444.362 -272.624 435.808 -277.891C431.319 -280.403 426.571 -281.914 421.74 -282.368C417.456 -283.19 413.138 -283.629 408.814 -283.684C401.59 -283.421 394.556 -282.368 387.333 -281.578C380.632 -280.852 374.04 -278.813 367.753 -275.521C359.606 -271.675 351.919 -266.173 344.941 -259.194C331.824 -246.554 320.038 -230.227 307.301 -216.27C294.565 -202.313 281.828 -188.882 269.092 -175.189C256.133 -161.352 243.816 -146.4 232.213 -130.421C221.377 -115.41 210.922 -100.137 199.516 -86.7067C199.326 -86.4433 198.946 -86.1799 198.756 -85.9165" stroke="#F2F4F6" stroke-width="1.5" stroke-linecap="round" stroke-linejoin="round"/>
<path d="M518.307 803.125C514.505 790.484 510.703 777.844 506.902 764.94C501.109 746.268 496.404 726.982 492.834 707.269C490.363 693.312 488.462 679.091 486.371 665.134C483.9 648.807 481.238 632.48 475.916 617.733C470.973 604.039 464.13 594.033 455.385 588.503C449.221 584.733 442.543 582.846 435.805 582.972C428.595 583.011 421.404 583.981 414.324 585.869C407.67 587.713 401.017 589.556 394.364 590.873C388.944 591.966 383.487 592.669 378.015 592.979C373.901 593.374 369.773 593.374 365.659 592.979C358.858 591.891 352.238 589.22 346.079 585.079C335.44 577.235 325.909 566.798 317.944 554.269C308.943 540.908 301.271 525.941 295.133 509.764C291.493 500.337 289.11 490.078 288.099 479.48C287.184 467.974 288.914 456.363 293.041 446.299C298.554 432.869 306.348 423.652 314.332 415.225C323.368 406.011 333.125 398.237 343.417 392.051C358.245 382.571 373.453 374.934 388.661 367.56C398.356 362.82 408.051 357.817 417.556 352.287C425.256 348.279 432.444 342.589 438.846 335.433C444.121 329.641 447.973 321.731 449.872 312.786C451.02 307.139 451.407 301.247 451.013 295.405C449.492 277.235 444.169 262.488 437.706 248.531C433.334 239.05 428.391 230.097 423.639 221.143C419.266 212.98 414.704 205.079 410.332 197.179C401.436 181.523 393.488 164.876 386.57 147.408C379.839 129.935 375.154 111.09 372.692 91.5804C371.932 85.5236 371.552 79.4664 371.172 73.4095C370.761 68.5158 370.633 63.5847 370.791 58.6629C371.113 41.606 373.095 24.687 376.685 8.3647C381.057 -11.9125 387.71 -29.8196 394.173 -48.2534C400.067 -65.1071 405.579 -82.2241 408.811 -101.448C410.507 -111.063 411.714 -120.83 412.423 -130.679C412.803 -138.316 413.373 -146.216 413.754 -153.853C414.134 -165.967 414.324 -178.08 414.134 -190.193C414.135 -200.589 412.649 -210.882 409.762 -220.477C408.175 -225.546 405.746 -230.025 402.674 -233.548C399.602 -237.071 395.973 -239.541 392.082 -240.755C387.44 -242.501 382.594 -242.948 377.825 -242.072C372.975 -241.118 368.202 -239.531 363.568 -237.332C356.298 -233.877 349.394 -229.094 343.037 -223.111C336.574 -217.317 330.301 -210.734 323.837 -204.414C314.332 -194.934 304.828 -185.19 295.323 -175.973C277.644 -159.119 260.155 -141.476 244.376 -119.619C234.872 -106.715 225.557 -93.2846 216.052 -80.6443C210.349 -73.0075 204.266 -66.1607 198.183 -59.0506" stroke="#F2F4F6" stroke-width="1.5" stroke-linecap="round" stroke-linejoin="round"/>
<path d="M559.181 803.125C555.569 787.851 551.767 772.84 548.155 757.567C544.391 741.482 541.531 725.018 539.6 708.322C537.984 694.308 537.411 680.101 537.89 665.924C538.27 656.444 539.03 647.227 539.791 637.747C541.882 614.047 546.634 591.662 549.866 568.489C552.149 554.196 550.876 539.255 546.254 526.091C542.262 514.768 538.27 503.18 534.278 491.593C529.853 478.534 527.953 464.106 528.765 449.723C529.335 438.662 531.046 427.602 531.616 416.542C531.997 406.366 531.997 396.17 531.616 385.994C531.153 374.767 529.814 363.642 527.624 352.813C525.721 342.35 523.177 332.13 520.02 322.266C514.43 304.815 507.751 288.074 500.06 272.231C497.019 265.911 493.977 259.591 490.745 253.534C486.183 245.107 481.621 236.417 476.678 228.517C468.884 215.613 460.71 202.973 452.916 190.069C443.031 173.215 432.765 156.625 424.971 136.084C419.759 123.025 416.343 108.738 414.896 93.9501C413.349 77.5616 414.519 60.9002 418.318 45.2322C422.335 30.3918 427.701 16.3216 434.286 3.36141C440.94 -10.0689 447.783 -23.2361 454.056 -36.9297C460.897 -51.7439 466.088 -67.901 469.454 -84.8575C473.066 -103.028 475.918 -121.725 479.339 -139.896C483.422 -162.311 490.237 -183.596 499.49 -202.834C506.143 -216.791 513.177 -230.485 519.64 -244.705C525.666 -257.334 529.863 -271.465 531.997 -286.313C535.608 -314.753 531.426 -338.981 518.31 -357.942C511.29 -368.149 502.098 -374.978 492.076 -377.428C485.9 -379.305 479.569 -380.014 473.256 -379.535C467.553 -379.009 461.85 -377.692 456.148 -376.638C450.825 -375.585 445.692 -374.795 440.369 -373.742C436.187 -372.952 431.815 -371.635 427.633 -370.845C423.726 -370.045 419.792 -369.517 415.847 -369.265C405.582 -368.738 395.506 -368.212 385.241 -367.685C380.489 -367.422 375.926 -367.422 371.174 -366.895C366.041 -366.105 360.909 -365.051 355.586 -363.998C349.607 -362.765 343.784 -360.371 338.287 -356.888C328.681 -350.884 320.122 -342.082 313.194 -331.08C308.061 -322.917 302.929 -314.227 298.176 -305.536C293.994 -298.426 290.382 -290.526 286.2 -283.416C276.762 -267.101 266.193 -252.107 254.644 -238.648C239.436 -221.268 224.418 -203.888 209.971 -184.664C205.979 -179.397 201.797 -173.867 197.805 -168.337" stroke="#F2F4F6" stroke-width="1.5" stroke-linecap="round" stroke-linejoin="round"/>
</g>
</g>
<circle cx="405.904" cy="23" r="4" fill="#646FF1"/>
<circle cx="507.904" cy="238" r="4" fill="#646FF1"/>
<circle cx="439.904" cy="334" r="4" fill="#646FF1"/>
<circle cx="447.904" cy="104" r="4" fill="#646FF1"/>
</svg>
