<svg width="505" height="330" viewBox="0 0 505 330" fill="none" xmlns="http://www.w3.org/2000/svg">
<g opacity="0.45">
<path d="M579.466 404.545C577.374 394.663 570.996 371.767 566.531 366.449C565.066 363.583 558.325 355.201 543.074 344.603C540.228 342.415 533.684 336.371 530.278 329.702C526.02 321.367 521.377 314.711 518.751 311.472C516.126 308.232 512.033 298.63 517.968 291.851C523.904 285.071 540.088 282.617 549.453 286.677C556.946 289.926 562.745 299.692 564.708 304.169C568.822 309.408 579.238 318.485 587.997 312.877C598.946 305.868 609.779 290.857 601.65 272.507C593.52 254.156 583.876 243.909 562.021 230.604C540.167 217.3 510.104 201.228 497.179 185.512C484.254 169.796 476.404 161.093 451.153 142.974C446.883 139.529 436.784 130.783 430.554 123.365C429.553 121.848 424.311 116.989 411.357 109.683C409.159 108.284 403.847 104.53 400.183 100.704C396.518 96.8778 393.234 94.8418 392.049 94.3021C389.888 93.4699 385.862 90.6802 387.046 86.1793C388.231 81.6784 392.47 80.1734 394.441 79.9835C397.395 79.5457 403.39 76.2206 403.737 66.4229C404.17 54.1759 407.465 50.5606 410.469 53.8404C413.474 57.1202 417.837 67.3918 428.058 74.3397L470.031 101.44C474.454 104.132 485.907 109.854 496.342 111.203C509.384 112.889 526.323 121.511 535.202 126.24C544.081 130.97 572.686 143.031 589.652 157.881C606.617 172.731 618.798 167.61 621.163 165.35C623.529 163.091 656.685 137.855 660.32 142.945C663.954 148.035 661.03 152.421 657.65 159.817C654.271 167.214 648.843 189.6 666.178 196.454C680.046 201.937 688.755 197.593 691.375 194.736" stroke="#BFC9D1" stroke-width="2"/>
<path d="M546.645 -69.3999C568.854 -74.5527 586.026 -58.6808 591.836 -50.1008C607.942 -35.4956 612.762 -18.7746 612.984 -10.8588C613.206 -2.94299 610.149 -4.80387 605.269 13.4055C600.389 31.6148 585.278 18.9576 568.034 17.1046C550.79 15.2515 537.264 29.9267 541.593 43.8005C545.055 54.8995 538.619 62.7382 534.968 65.2701C512.667 78.9258 481.095 58.4085 480.344 39.3641C479.593 20.3197 491.467 22.3621 514.297 19.835C537.127 17.308 529.161 -26.8773 528.502 -35.4913C527.843 -44.1053 518.884 -62.959 546.645 -69.3999Z" stroke="#BFC9D1"/>
<path d="M572.328 30.2848C556.159 25.4434 555.884 41.7135 557.768 50.4537C558.716 52.4742 559.816 58.9999 556.634 68.9388C552.655 81.3625 523.962 78.3331 508.31 74.0917C492.658 69.8503 467.482 58.5872 468.025 35.1347C468.568 11.6823 489.53 7.1248 500.553 6.39611C509.372 5.81316 514.474 1.25129 515.922 -0.956766C525.916 -16.216 515.261 -43.3148 515.118 -58.6474C514.975 -73.9799 525.135 -81.0799 551.163 -80.4206C571.986 -79.8932 584.293 -72.1627 587.843 -68.3634C587.843 -68.3634 596.509 -59.5147 613.434 -40.2773C630.36 -21.0398 626.754 -14.3014 624.321 -8.18926C621.888 -2.07706 618.554 5.71973 616.757 21.5993C614.961 37.4789 592.54 36.3364 572.328 30.2848Z" stroke="#BFC9D1"/>
<path d="M569.65 -89.8306C584.606 -89.3242 601.541 -71.0794 608.139 -62.0202C611.277 -58.1194 619.797 -48.2348 628.774 -39.9031C639.996 -29.4884 640.125 -12.2919 636.43 -5.3855C632.734 1.52089 629.039 8.4273 630.934 19.5333C632.829 30.6392 627.926 35.6165 623.143 38.278C618.36 40.9394 614.502 42.5712 604.894 45.8785C595.287 49.1859 584.47 44.989 575.305 48.1677C566.141 51.3464 578.21 70.6363 585.453 82.2112L585.453 82.2122C592.696 93.787 577.457 90.8792 569.053 87.7533C560.649 84.6274 546.096 88.109 520.927 83.5343C495.757 78.9596 487.552 71.9736 472.471 63.1907C457.39 54.4077 456.095 37.298 463.845 16.5378C471.594 -4.22247 488.159 -1.70174 501.706 -5.39726C515.253 -9.09277 510.661 -27.0157 507.276 -43.0097C503.891 -59.0036 498.822 -67.6634 504.364 -79.4168C509.906 -91.1701 524.139 -91.2637 528.199 -91.1802C532.26 -91.0967 550.955 -90.4637 569.65 -89.8306Z" stroke="#BFC9D1"/>
<path d="M570.708 423.923C567.665 411.288 556.837 382.345 537.862 367.656C518.886 352.967 508.727 343.384 506.02 340.429C502.767 336.488 494.777 328.291 488.837 327.027C481.411 325.447 475.419 311.112 479.154 302.953C482.142 296.425 482.365 289.089 482.103 286.237C482.508 281.548 486.887 270.101 501.159 261.827C518.998 251.485 537.555 248.647 522.695 234.552C507.835 220.457 498.18 217.272 493.078 209.117C487.976 200.962 471.684 178.928 434.764 161.836C432.939 160.726 428.1 157.78 423.34 154.882C417.39 151.26 397.912 145.796 387.823 158.164C377.734 170.533 362.369 166.227 366.647 157.052C370.926 147.877 388.314 120.096 359.755 102.71C336.908 88.8004 315.509 70.6122 307.665 63.2567C294.806 52.1183 265.238 30.3251 249.84 32.259C230.593 34.6765 215.813 44.6637 209.764 45.1121C203.715 45.5604 185.384 57.1203 184.152 58.4357C182.92 59.7511 168.474 67.6679 157.675 48.7008C146.876 29.7337 149.544 17.8387 141.123 16.4679C132.703 15.0971 127.49 17.9317 118.061 8.24815C108.631 -1.43546 104.338 -17.7564 112.316 -29.0476C120.294 -40.3387 136.278 -42.2489 149.5 -33.073C162.722 -23.8972 161.758 -17.1611 167.829 -10.0849C173.901 -3.00874 189.479 16.2389 209.708 6.39736C229.936 -3.44419 241.518 -12.9169 255.707 -3.90339C269.895 5.11008 274.412 13.1175 287.633 19.6638C300.853 26.2101 356.701 70.5375 376.131 54.9519C380.244 51.3222 386.684 35.9527 379.538 3.51235C380.145 2.3793 375.964 -14.8115 367.636 -21.947C359.308 -29.0826 364.993 -37.0755 369.428 -42.074C372.17 -44.4263 378.831 -51.0568 383.536 -58.7608C389.418 -68.3908 393.889 -72.6625 403.022 -66.5845C412.154 -60.5066 422.516 -46.6869 427.922 -41.8412C433.329 -36.9955 443.744 -30.137 452.454 -32.3462C461.164 -34.5553 463.809 -27.2461 457.431 -18.9552C451.052 -10.6643 441.848 -0.72555 438.594 31.2259C435.99 56.7871 457.284 74.8104 468.257 80.6269C475.208 84.4272 491.801 92.6292 502.559 95.0341C516.006 98.0403 535.237 104.308 557.111 114.258C578.985 124.207 585.657 126.715 593.482 132.514C601.306 138.314 621.556 143.13 634.341 127.86C647.126 112.589 648.483 106.422 644.292 96.1C640.102 85.778 629.816 76.408 638.499 71.0736C647.181 65.7393 670.652 77.697 683.425 91.9487C686.339 95.2769 692.66 103.373 694.63 109.131C697.092 116.329 707.558 120.369 711.792 113.363C716.027 106.357 717.962 103.649 711.677 91.7936C705.393 79.938 710.099 72.9595 715.957 69.273C721.815 65.5865 724.848 63.5479 732.543 71.8589C740.238 80.1699 749.397 85.7456 754.182 82.7015" stroke="#BFC9D1"/>
<path d="M584.761 393.723C582.618 383.347 576.452 361.113 568.932 355.187C559.531 347.779 543.781 337.932 541.631 329.236C539.91 322.279 536.616 314.994 535.183 312.221C533.218 307.871 531.913 299.578 542.416 301.203C545.976 302.117 554.223 305.747 558.729 312.948C563.235 320.149 573.699 325.388 578.368 327.107C582.914 328.45 593.53 328.562 599.618 318.273C607.229 305.411 621.119 286.263 607.406 265.344C593.693 244.425 587.171 236.178 570.833 226.75C554.494 217.321 522.996 199.441 522.996 199.441C519.252 197.205 510.598 190.96 505.935 183.871C500.106 175.009 477.334 150.13 462.095 140.464C446.856 130.798 442.075 121.796 439.035 115.669C436.604 110.767 427.774 103.413 423.663 100.348C419.198 96.8096 411.15 88.9469 414.677 85.8066C419.086 81.8813 424.48 85.4243 434.141 90.5285C443.803 95.6327 464.829 110.377 481.151 113.705C489.285 115.621 509.724 121.621 526.417 130.296C547.282 141.139 555.602 145.461 563.584 148.461C569.969 150.86 583.312 162.082 589.185 167.393C595.459 172.824 610.507 182.27 620.508 176.609C633.01 169.532 642.471 164.88 642.551 175.154C642.631 185.429 642.005 210.705 687.328 203.53" stroke="#BFC9D1"/>
<path d="M589.943 381.824C588.92 373.871 586.356 357.084 584.279 353.568C581.682 349.172 583.937 345.266 587.153 345.113C590.369 344.959 597.886 346.017 603.566 334.167C609.247 322.318 617.237 310.468 620.078 305.159C622.918 299.851 629.094 284.609 614.798 264.469C600.502 244.329 599.929 234.303 571.952 218.151C543.976 201.999 522.683 189.387 517.757 181.638C512.831 173.889 492.58 149.772 484.582 144.374C476.583 138.977 468.387 128.709 469.273 125.202C470.16 121.695 481.321 126.73 487.186 128.717C493.051 130.704 509.062 132.534 526.445 142.588C540.351 150.632 547.761 153.513 549.728 153.948C555.61 156.415 569.644 163.645 578.718 172.829C590.06 184.308 607.618 188.487 614.904 189.052C622.189 189.617 631.024 196.227 634.438 200.944C637.852 205.662 656.924 219.032 681.797 210.774" stroke="#BFC9D1"/>
<path d="M699.094 181.909C698.107 183.263 677.975 198.378 665.952 184.635C662.819 180.866 659.592 169.312 671.747 153.25C686.941 133.173 676.92 116.18 669.416 115.522C663.413 114.996 660.9 120.02 660.393 122.597C660.263 123.64 659.288 126.38 656.434 128.997C652.866 132.268 626.884 154.612 621.546 155.524C616.897 157.118 605.436 159.146 596.783 154.508C585.967 148.71 568.796 134.096 561.673 131.446C554.55 128.796 536.087 120.221 526.41 114.927C518.668 110.692 502.557 106.58 495.469 105.053C490.574 103.733 476.567 98.3651 459.698 87.4581C445.18 79.1159 416.963 57.4992 420.245 37.7697C424.347 13.1079 416.464 -14.6472 409.573 -18.1961C402.681 -21.7449 402.072 -22.276 401.147 -20.7607C400.221 -19.2455 396.789 -18.4007 395.54 3.21417C394.291 24.829 396.378 50.9203 392.578 58.0218C388.779 65.1232 382.068 78.5222 366.236 75.1195C350.404 71.7169 339.847 74.0937 353.15 82.437C366.453 90.7803 386.969 101.925 391.047 109.299C395.126 116.672 401.093 122.873 410.478 124.185C411.631 124.316 415.314 125.515 420.828 129.263C427.721 133.948 436.27 143.677 451.093 152.823C465.915 161.969 480.232 173.131 483.729 178.805C487.226 184.48 494.641 197.187 513.688 209.149C528.925 218.719 551.116 232.912 560.307 238.812C567.315 243.079 582.978 255.798 589.562 272.54C591.809 277.812 594.554 289.784 587.556 295.495C580.559 301.206 573.892 295.336 571.434 291.686C566.915 283.38 554.07 267.781 538.834 271.84C519.788 276.913 510.43 273.619 504.234 288.618C498.039 303.617 508.722 317.328 512.348 321.338C515.975 325.348 519.632 329.827 520.968 333.643C522.305 337.46 528.435 343.895 541.026 351.41C553.617 358.925 560.963 372.558 564.683 381.129C567.659 387.987 573.283 404.084 575.723 411.276" stroke="#BFC9D1"/>
<path d="M563.468 438.198C559.652 423.304 548.125 390.932 532.542 380.595C513.063 367.675 501.042 356.638 501.042 356.638C499.18 355.002 492.555 351.106 480.954 348.612C466.454 345.494 456.911 349.24 456.565 338.658C456.219 328.076 457.756 290.946 464.566 278.991C471.377 267.036 492.112 240.069 490.037 232.741C487.962 225.412 488.238 214.938 452.912 190.885C417.587 166.832 401.803 171.58 385.625 182.341C369.447 193.101 358.014 200.267 351.272 186.9C344.531 173.533 336.252 173.587 334.87 169.273C333.488 164.958 332.528 162.289 339.774 154.427C347.02 146.565 370.89 130.762 347.845 110.942C324.799 91.1233 317.556 86.1396 311.781 80.0076C306.006 73.8756 283.421 63.5471 275.35 60.6466C267.28 57.746 260.795 53.9991 255.713 51.5088C250.631 49.0186 226.161 51.0266 214.122 76.7012C210.366 85.0136 195.877 98.0349 167.969 83.6207C133.084 65.6029 114.651 68.6698 95.812 71.0866C87.426 73.3603 70.4037 73.0864 69.4026 53.8012C69.3245 52.2973 67.5886 43.4396 65.697 40.2755C63.8053 37.1114 66.8306 31.1046 73.6936 17.573C79.184 6.74781 82.4602 -10.0943 83.412 -17.1622C83.2751 -20.1972 85.8611 -29.6378 97.3012 -43.1198C111.601 -59.9723 119.074 -73.9377 129.538 -79.0381C140.003 -84.1385 153.244 -104.654 153.012 -122.908C152.779 -141.162 148.487 -149.007 162.566 -161.567C176.644 -174.127 184.363 -182.911 184.008 -201.642C183.654 -220.372 182.598 -261.063 199.686 -270.785C202.252 -272.644 207.568 -278.464 208.295 -286.876C209.205 -297.391 215.869 -301.383 221.782 -305.029C226.512 -307.945 231.974 -312.911 234.114 -315.029" stroke="#BFC9D1" stroke-width="2"/>
<path d="M572.529 417.057C567.534 402.934 554.981 372.994 544.72 366.212C531.894 357.735 522.765 350.168 517.533 342.744C512.302 335.32 501.82 327.153 497.018 322.445C492.216 317.737 486.866 298.415 489.791 289.039C492.716 279.664 500.868 269.9 516.662 265.012C532.455 260.124 561.815 257.248 545.111 241.946C528.406 226.645 504.401 214.039 496.916 204.573C489.43 195.107 463.818 167.913 442.001 157.084C440.896 156.412 425.682 148.489 419.753 143.54C413.824 138.592 405.487 137.756 402.175 138.863C398.863 139.971 384.396 139.642 383.556 125.966C382.715 112.29 373.023 106.166 364.705 100.21C356.387 94.2537 332.181 77.5864 324.892 68.9528C319.061 62.0459 299.563 48.2371 290.543 42.1961C287.113 39.8706 280.918 34.6628 283.578 32.4362C286.904 29.653 302.086 37.471 309.731 41.5909C317.376 45.7109 349.235 67.5994 364.502 66.2099C379.769 64.8203 385.09 59.8684 386.392 38.4028C387.694 16.9372 383.513 -15.3459 379.925 -21.2696C376.337 -27.1932 380.218 -34.4463 382.518 -38.7444C384.818 -43.0424 392.678 -51.9681 402.194 -47.5998C411.709 -43.2315 411.297 -40.2772 415.795 -35.5801C420.293 -30.8829 423.01 -26.9137 427.687 -24.4226C432.364 -21.9315 437.834 -15.9305 433.703 -6.33708C429.571 3.25632 425.053 31.6677 429.071 46.9345C433.088 62.2013 448.487 73.3569 465.344 85.2214C478.828 94.713 495.808 99.3163 502.612 100.432C508.811 101.95 525.023 106.845 540.276 114.279C559.343 123.572 563.911 123.148 583.896 136.027C603.882 148.907 611.851 153.046 625.585 143.6C639.32 134.155 652.64 122.677 653.317 109.556C653.994 96.4349 650.377 91.0275 654.764 89.0685C659.151 87.1095 672.282 94.3915 679.59 108.812C685.437 120.349 689.585 125.7 690.929 126.933C693.987 129.745 697.663 137.373 687.898 145.388C675.693 155.408 672.089 177.431 682.178 179.478C692.268 181.525 707.584 169.125 704.356 151.134C701.128 133.143 697.084 137.269 704.383 131.741C711.681 126.212 724.16 123.481 725.629 111.377C727.098 99.2719 724.308 95.437 728.533 92.845C732.758 90.2531 745.205 95.694 745.205 95.694" stroke="#BFC9D1"/>
<path d="M594.833 -94.7515C595.753 -93.8975 622.768 -73.3374 629.63 -58.8754C636.492 -44.4133 644.033 -36.8839 648.608 -27.9284C653.182 -18.9729 654.523 -7.57804 648.652 2.3645C642.781 12.307 648.395 21.8949 652.463 28.1917C656.532 34.4886 666.122 45.9103 645.172 46.9665C624.222 48.0226 600.396 54.9678 597.817 61.3317C595.238 67.6955 595.506 68.7399 602.364 74.972C609.222 81.204 620.687 101.994 604.012 107.416C587.337 112.838 572.495 103.508 560.8 97.5638C549.105 91.6194 526.877 90.4287 523.583 89.8924C520.289 89.3561 484.527 82.5701 464.19 63.4307C443.853 44.2914 450.814 17.3817 462.855 4.14376C472.489 -6.44659 485.52 -11.4424 490.831 -12.6165C497.112 -14.572 507.48 -22.9322 498.711 -40.7295C487.75 -62.9761 478.69 -82.5964 453.587 -77.8978C428.483 -73.1992 409.101 -81.7667 396.6 -97.0169C384.1 -112.267 375.25 -125.589 383.249 -153.923C384.428 -156.529 387.591 -163.212 390.808 -169.092C394.83 -176.441 388.564 -180.066 382.292 -178.843C376.019 -177.62 344.079 -170.429 339.193 -161.798C334.307 -153.167 330.978 -143.778 339.409 -132.367C347.84 -120.956 366.943 -109.233 369.076 -93.109C371.209 -76.9849 375.267 -73.398 355.118 -58.0859C352.157 -56.2754 343.174 -54.1983 330.936 -60.3737C315.637 -68.0931 313.066 -57.7021 313.683 -48.2402C314.299 -38.7783 320.661 -25.0217 335.094 -17.0318C349.528 -9.04192 359.037 -10.1072 363.554 7.14905C368.07 24.4053 362.591 46.0974 351.93 40.8827C341.27 35.6681 315.91 16.7731 295.227 6.36227C290.351 3.39728 280.049 -4.54818 277.854 -12.6101C275.11 -22.6875 260.118 -44.5608 238.679 -31.5778C217.241 -18.5948 194.544 -2.30994 182.95 -19.131C171.357 -35.952 165.918 -68.5523 175.251 -82.668C184.583 -96.7836 187.91 -93.0222 202.418 -97.804C216.926 -102.586 242.271 -111.941 238.899 -143.177C235.527 -174.412 223.481 -197.039 238.451 -220.74C253.421 -244.441 277.404 -262.655 304.899 -270.324" stroke="#BFC9D1" stroke-width="2"/>
<path d="M642.738 -67.9999C643.628 -61.6662 648.365 -45.302 660.199 -30.5146C672.033 -15.7272 668.126 -1.28648 664.693 4.08542C662.709 7.15567 660.772 15.2424 668.895 23.0275C679.048 32.7589 701.117 47.0139 695.634 56.7833C690.151 66.5527 684.5 71.851 662.792 64.0969C641.084 56.3429 622 55.6474 618.529 65.0038C615.059 74.3603 616.466 76.0361 625.517 85.9151C634.567 95.7941 643.234 111.174 622.528 120.687C601.821 130.2 593.405 121.527 584.578 116.972C575.751 112.418 546.485 100.608 530.929 97.1456C515.373 93.683 467.657 82.384 456.23 62.5928C444.803 42.8016 440.962 26.5363 453.527 4.96689C463.579 -12.2887 475.394 -19.314 480.045 -20.6697C487.168 -24.2527 497.567 -34.8524 482.183 -48.5874C466.798 -62.3225 458.452 -57.0268 456.202 -52.662C453.768 -48.5914 445.55 -43.8546 432.152 -57.4731C415.403 -74.4962 413.282 -70.0531 405.391 -77.3147C397.5 -84.5763 390.077 -93.1913 385.887 -89.1883C381.697 -85.1853 384.873 -77.2446 378.01 -67.7686C371.148 -58.2926 361.997 -48.8448 346.803 -45.8064C331.608 -42.7681 334.453 -34.2095 338.757 -30.7701C343.061 -27.3306 364.548 -19.1647 370.127 -1.84125C375.707 15.4822 379.193 38.6312 368.717 46.7266C360.336 53.2029 349.046 49.0417 344.448 46.1516C332.852 37.9999 307.172 20.5093 297.219 15.7609C284.779 9.82536 278.652 1.18038 271.119 -7.22867C263.586 -15.6377 251.941 -29.2806 231.044 -14.1489C210.148 0.982861 188.031 3.08348 174.563 -17.6773C161.094 -38.4382 155.315 -71.1758 134.772 -64.8399C114.229 -58.504 97.2028 -23.8122 96.0261 -4.8671C94.8494 14.0779 90.8628 39.2315 112.048 49.398C117.316 50.2384 130.753 53.9592 142.362 62.1189C156.873 72.3186 189.866 91.0388 206.843 66.9666C223.819 42.8943 248.032 40.7041 259.671 42.8745C268.982 44.6108 294.594 60.8583 306.235 68.765C316.664 77.6627 340.7 97.5568 353.412 105.951C369.302 116.444 369.117 131.623 363.467 140.746C358.948 148.044 354.768 153.655 353.243 155.548C350.624 158.05 346.811 164.794 352.506 171.757C359.626 180.46 369.803 182.014 376.97 176.274C384.138 170.534 404.54 159.197 426 167.892C447.461 176.588 476.785 194.987 483.078 206.191C488.113 215.154 496.324 222.902 499.8 225.656C504.784 228.781 512.089 237.616 501.438 247.953C488.124 260.874 471.471 269.032 469.772 292.301C468.074 315.571 469.865 313.658 467.938 320.131C466.011 326.603 468.342 332.734 484.345 338.818C487.917 339.867 496.398 343.116 501.743 347.721C508.424 353.477 517.949 361.808 530.657 370.108C543.365 378.407 557.272 397.285 567.661 430.626" stroke="#BFC9D1"/>
<path d="M350.043 -244.458C344.926 -244.758 333.108 -245.921 318 -248.685C302.893 -251.449 284.542 -242.516 277.687 -226.182C272.203 -213.114 265.772 -202.741 263.243 -199.187C261.118 -197.8 257.131 -190.443 258.18 -172.112C259.49 -149.198 257.071 -113.677 244.207 -94.5677C231.343 -75.4581 223.222 -74.3705 209.092 -70.5076C194.962 -66.6446 192.208 -50.2262 195.622 -45.3333C199.035 -40.4404 210.571 -33.8192 225.831 -53.8831C241.09 -73.9469 240.675 -91.4899 261.595 -79.1563C263.767 -77.8688 268.605 -74.5662 270.576 -71.6559C273.039 -68.018 284.424 -58.949 294.24 -76.9206C304.057 -94.8921 315.109 -102.062 327.487 -94.0989C333.218 -90.3245 344.585 -84.2453 344.202 -90.1233C343.724 -97.4707 339.553 -102.789 328.538 -108.426C317.522 -114.063 309.182 -124.7 310.818 -135.251C311.148 -143.317 310.992 -160.632 307.72 -165.36C303.631 -171.271 300.925 -185.32 308.87 -188.18C316.815 -191.041 325.736 -187.107 341.626 -192.828C357.516 -198.549 391.156 -205.224 390.999 -217.294" stroke="#BFC9D1"/>
<path d="M324.708 -260.109C314.765 -261.718 291.192 -261.155 276.436 -246.038C257.992 -227.142 242.239 -211.546 244.346 -186.065C246.453 -160.584 257.536 -138.033 238.598 -109.561C223.447 -86.7836 203.766 -80.2293 195.82 -79.7993C188.735 -77.8663 176.242 -67.4543 182.95 -41.2703C189.658 -15.0863 206.74 -20.9404 214.443 -27.1405L246.272 -50.5165C250.218 -54.6912 260.052 -60.3681 267.816 -49.6781C277.521 -36.3156 285.672 -30.0377 290.483 -17.9007C295.293 -5.76364 310.442 1.26618 317.441 6.62362C323.041 10.9096 336.55 21.1067 342.604 25.6695C346.185 28.5804 353.518 31.7003 354.204 20.8923C355.061 7.38228 346.001 -1.42226 336.656 -3.16484C327.311 -4.90743 309.507 -8.51118 304.314 -33.3781C299.121 -58.2451 303.832 -68.9703 306.93 -73.2232C310.027 -77.4762 317.508 -84.5421 330.665 -74.5589C343.822 -64.5758 358.855 -67.7016 360.134 -78.543C361.413 -89.3844 358.861 -100.365 340.321 -116.038C321.781 -131.71 322.662 -141.039 322.059 -151.053C321.577 -159.064 320.954 -162.688 320.702 -163.499C319.955 -166.585 320.79 -173.575 330.106 -176.848C341.751 -180.941 361.409 -190.021 391.143 -194.501C414.931 -198.085 416.536 -202.648 414.365 -204.481" stroke="#BFC9D1"/>
</g>
</svg>
