<svg width="143" height="75" viewBox="0 0 143 75" fill="none" xmlns="http://www.w3.org/2000/svg">
<g clip-path="url(#clip0_128_3936)">
<path d="M46.9528 11.1677C41.9733 8.44628 36.3229 7.19605 30.6602 7.5626C24.9974 7.92915 19.5554 9.89739 14.9683 13.238C10.3096 16.6024 6.72419 21.2432 4.64485 26.6003C3.55339 29.37 2.89166 32.2902 2.68262 35.2597H10.1259C10.642 29.7333 13.176 24.5907 17.244 20.8145C21.312 17.0383 26.6287 14.8933 32.1782 14.7893C37.8724 14.686 43.3952 16.7384 47.6401 20.5352C51.8849 24.332 54.5382 29.5927 55.0681 35.2631H62.494C62.0094 27.1665 57.4707 16.9384 46.9528 11.1677ZM34.7034 30.0877C34.2159 30.6718 33.5623 31.0938 32.8293 31.2976C32.0963 31.5014 31.3187 31.4774 30.5997 31.2287C30.0678 31.0872 29.5802 30.8135 29.1825 30.4331C28.7847 30.0526 28.4895 29.5778 28.3244 29.0527C28.1593 28.5277 28.1296 27.9694 28.2381 27.4297C28.3466 26.8901 28.5898 26.3867 28.945 25.9662C29.5974 25.2573 30.4921 24.8191 31.4521 24.7383C32.4122 24.6575 33.3676 24.94 34.1293 25.5299C34.3619 25.7209 34.5746 25.9361 34.8076 26.1505C35.067 25.9596 35.3562 25.7466 35.6584 25.5243C35.3041 25.0159 34.8411 24.5928 34.303 24.2856C33.311 23.7335 32.1658 23.5207 31.0417 23.6795C30.4415 23.7359 29.8584 23.9113 29.3267 24.1955C28.795 24.4797 28.3252 24.8671 27.9448 25.3348C27.5706 25.7837 27.297 26.3076 27.1425 26.8712C26.9879 27.4348 26.956 28.025 27.049 28.602C27.1214 29.3403 27.3892 30.046 27.8249 30.6464C28.2605 31.2469 28.8482 31.7204 29.5276 32.0184C30.3464 32.3844 31.2458 32.5331 32.1389 32.45C33.2302 32.4132 34.2751 31.9993 35.0956 31.2788C35.2995 31.0971 35.4783 30.8871 35.6783 30.6801L34.7734 30.0235C34.74 30.0537 34.72 30.0691 34.7034 30.0876V30.0877ZM41.5192 32.297H42.8169L44.1726 29.6074H47.7691L49.1366 32.2973H50.4021C48.927 29.309 47.4663 26.3496 45.9918 23.3624C44.4939 26.3548 43.0107 29.3178 41.5194 32.2969L41.5192 32.297ZM44.7315 28.496C45.1488 27.6664 45.558 26.8531 45.9829 26.0083C46.4099 26.8563 46.8178 27.6667 47.2354 28.496H44.7315ZM14.8788 32.2934H16.1771C16.6297 31.3936 17.0809 30.4968 17.5306 29.6031H21.1222C21.5803 30.5029 22.0376 31.4011 22.494 32.2977H23.7577L19.3476 23.3604C17.8512 26.3519 16.3694 29.3139 14.8789 32.2933L14.8788 32.2934ZM18.0835 28.5018C18.5018 27.6707 18.9127 26.8542 19.3411 26.003C19.7675 26.8559 20.1749 27.6708 20.5903 28.5018H18.0835ZM42.5902 27.3591C42.7863 27.0575 42.9069 26.7132 42.9418 26.3552C42.9767 25.9972 42.9248 25.636 42.7905 25.3023C42.6562 24.9686 42.4434 24.6721 42.1703 24.4381C41.8971 24.204 41.5716 24.0393 41.2212 23.9577C40.803 23.8592 40.3746 23.8098 39.9449 23.8105C39.078 23.787 38.2101 23.7993 37.3424 23.7978C37.2942 23.7978 37.2459 23.8063 37.2021 23.8105V32.2879H38.3386V28.476C38.6314 28.476 38.8971 28.485 39.1619 28.4741C39.7113 28.4514 40.2632 28.4447 40.8086 28.3829C41.1644 28.3613 41.5105 28.2576 41.8196 28.08C42.1287 27.9023 42.3925 27.6556 42.5903 27.359L42.5902 27.3591ZM41.6534 26.5658C41.5662 26.7997 41.4087 27.0009 41.2025 27.1418C40.9964 27.2827 40.7518 27.3564 40.5022 27.3528C39.7914 27.3887 39.0775 27.3618 38.3515 27.3618V24.8726C39.0994 24.8928 39.8331 24.8894 40.5634 24.9385C40.7558 24.9416 40.9447 24.9912 41.1138 25.0832C41.2829 25.1752 41.4272 25.3068 41.5344 25.4667C41.6415 25.6266 41.7083 25.8101 41.7291 26.0015C41.7498 26.1929 41.7239 26.3865 41.6536 26.5657L41.6534 26.5658ZM24.4328 32.2894H25.5804V23.8117H24.4328V32.2894ZM101.004 54.3765H102.994V60.6485H105.219V54.3765H107.208V52.6174H101.004V54.3765ZM107.845 60.6485H110.07V52.6174H107.845V60.6485ZM118.33 60.6485H120.555V52.6174H118.33V60.6485ZM111.493 54.2039H111.494V55.8102H111.493V57.4555H111.494V60.6485H113.719V57.4555H116.479V55.8102H113.719V54.2039H117.302V52.6174H111.494L111.493 54.2039ZM121.971 54.2039H121.972V55.6196H121.971V57.2649H121.972V59.0728H121.971V60.6593H127.78V59.0728H124.197V57.2649H126.957V55.6196H124.197V54.2039H127.78V52.6174H121.971V54.2039ZM86.6688 60.6593H92.4777V59.0728H88.8946V57.2649H91.6549V55.6196H88.8946V54.2039H92.4777V52.6174H86.6688V60.6593ZM132.297 52.6174H128.982V60.6593H132.297C133.245 60.6593 134.154 60.2827 134.824 59.6126C135.494 58.9424 135.871 58.0335 135.871 57.0857V56.191C135.871 55.2433 135.494 54.3343 134.824 53.6642C134.154 52.994 133.245 52.6174 132.297 52.6174L132.297 52.6174ZM131.207 59.0621V54.2039C131.993 54.2039 133.638 53.8581 133.638 56.6238C133.638 59.3894 131.993 59.062 131.207 59.062L131.207 59.0621ZM100.388 55.1246C100.388 54.7953 100.324 54.4694 100.198 54.1652C100.072 53.861 99.8869 53.5846 99.6541 53.3518C99.4212 53.119 99.1449 52.9343 98.8407 52.8084C98.5365 52.6824 98.2105 52.6175 97.8812 52.6175H93.7057V60.6486H95.9305V57.6318H96.741L97.9795 60.6486H100.484L99.1125 57.3072C99.4997 57.0893 99.8219 56.7722 100.046 56.3887C100.27 56.0051 100.389 55.5688 100.389 55.1245L100.388 55.1246ZM97.2556 56.0399H95.9305V54.2094H97.2556C97.4983 54.2096 97.731 54.3061 97.9026 54.4777C98.0742 54.6493 98.1707 54.8819 98.1709 55.1246C98.1706 55.3672 98.0742 55.5998 97.9026 55.7714C97.7311 55.9429 97.4985 56.0395 97.2558 56.0398L97.2556 56.0399ZM82.5563 44.2984H85.6082V35.6947H88.3376V35.0092L90.9518 39.7179V44.2983H94.0036V39.7179L97.5768 33.2817H94.3167L92.4777 36.7414L90.639 33.2817H79.8271V35.6946H82.5565L82.5563 44.2984ZM115.933 35.458V33.2818H107.964V44.3131H115.933V42.137H111.017V39.6571H114.804V37.4H111.017V35.458H115.933ZM82.4334 52.3847H82.1391C81.1995 52.3847 80.2983 52.7579 79.6338 53.4223C78.9694 54.0868 78.5961 54.988 78.5961 55.9276V57.3139C78.5961 57.7792 78.6877 58.2398 78.8658 58.6697C79.0438 59.0995 79.3048 59.4901 79.6338 59.8191C79.9628 60.1481 80.3534 60.4091 80.7832 60.5872C81.2131 60.7652 81.6738 60.8569 82.1391 60.8569H82.4334C83.2925 60.8568 84.1165 60.5164 84.7252 59.9102C85.334 59.3041 85.6778 58.4815 85.6814 57.6224H83.5644C83.3955 58.8042 82.8564 59.2131 82.2162 59.2131C81.4408 59.2131 80.8121 58.6403 80.8121 56.7672C80.8121 54.8942 81.4408 54.0637 82.2162 54.0637C82.8434 54.0637 83.3743 54.6237 83.5544 55.8158H85.682V55.6334C85.682 54.7718 85.3398 53.9455 84.7306 53.3362C84.1214 52.7269 83.2952 52.3846 82.4336 52.3845L82.4334 52.3847ZM108.646 25.9194H109.042C110.198 25.9193 111.307 25.4612 112.126 24.6455C112.945 23.8298 113.408 22.7228 113.413 21.5668H110.564C110.337 23.1571 109.611 23.7073 108.75 23.7073C107.707 23.7073 106.861 22.9365 106.861 20.416C106.861 17.8954 107.707 16.7781 108.75 16.7781C109.594 16.7781 110.308 17.5315 110.551 19.1358H113.414V18.8902C113.414 17.7308 112.953 16.6188 112.133 15.7989C111.314 14.9791 110.202 14.5186 109.042 14.5186H108.646C107.382 14.5186 106.169 15.0209 105.275 15.915C104.381 16.8092 103.879 18.0218 103.879 19.2862V21.1515C103.879 21.7776 104.002 22.3976 104.242 22.9761C104.481 23.5545 104.832 24.0801 105.275 24.5228C105.718 24.9655 106.243 25.3167 106.822 25.5563C107.4 25.7959 108.02 25.9192 108.646 25.9192L108.646 25.9194ZM105.527 39.4792C105.532 39.4751 105.538 39.4718 105.544 39.4677C105.642 39.3923 105.736 39.3118 105.825 39.2264C105.846 39.2074 105.868 39.1906 105.888 39.1711C105.957 39.1026 106.02 39.0279 106.083 38.9536C106.119 38.9129 106.156 38.8748 106.189 38.8324C106.232 38.7781 106.268 38.7187 106.307 38.6618C106.354 38.5944 106.402 38.5286 106.444 38.4579C106.446 38.4551 106.448 38.4527 106.449 38.4498H106.448C106.755 37.9256 106.917 37.3288 106.917 36.7211V36.7209C106.917 36.2693 106.828 35.8221 106.655 35.4049C106.482 34.9876 106.229 34.6085 105.91 34.2892C105.59 33.9698 105.211 33.7164 104.794 33.5436C104.376 33.3708 103.929 33.2819 103.478 33.2819H97.7498V44.2985H100.802V40.1603L103.478 40.1633C104.217 40.1634 104.936 39.9233 105.527 39.4791L105.527 39.4792ZM100.802 37.9766V35.4653H102.619C102.952 35.4657 103.271 35.5981 103.507 35.8335C103.742 36.0689 103.875 36.3881 103.875 36.721C103.875 37.0539 103.742 37.373 103.507 37.6084C103.271 37.8438 102.952 37.9762 102.619 37.9766H100.802ZM124.999 33.2818H121.947V44.2984H124.999V33.2818ZM126.97 44.2984H130.022V33.2817H126.97V44.2984ZM97.7581 25.9194H98.3498C99.0208 25.9194 99.6828 25.7645 100.284 25.4667C100.885 25.1689 101.41 24.7364 101.816 24.2027C102.532 23.3471 102.923 22.2669 102.922 21.1516V19.2862C102.923 18.1732 102.534 17.0951 101.821 16.2402C101.414 15.7051 100.889 15.2712 100.287 14.9725C99.685 14.6739 99.022 14.5184 98.3498 14.5184H97.7581C97.086 14.5184 96.423 14.6738 95.8209 14.9725C95.2187 15.2711 94.6938 15.7049 94.2871 16.24C93.5744 17.0949 93.1847 18.1731 93.1861 19.2861V21.1515C93.1848 22.2668 93.5761 23.347 94.2916 24.2027C94.6983 24.7364 95.2228 25.169 95.8241 25.4667C96.4254 25.7644 97.0873 25.9193 97.7583 25.9192L97.7581 25.9194ZM96.4891 18.1632L96.4924 18.154C96.5521 17.9867 96.6257 17.8247 96.7126 17.6697C96.7272 17.644 96.7428 17.6204 96.7579 17.5958C96.782 17.5563 96.8066 17.5178 96.8317 17.4811C96.8517 17.4525 96.8721 17.4253 96.8927 17.3985C96.9154 17.3688 96.9385 17.3404 96.9621 17.313C96.9837 17.2877 97.0054 17.2624 97.0277 17.2391C97.0548 17.2107 97.0826 17.1848 97.1106 17.1591C97.1299 17.1413 97.1487 17.1223 97.1684 17.1058C97.2151 17.0668 97.2641 17.0306 97.3151 16.9974C97.3276 16.9894 97.3405 16.983 97.3532 16.9754C97.3939 16.9505 97.4359 16.9277 97.4789 16.9071C97.494 16.9 97.5093 16.8938 97.5244 16.8873C97.5667 16.8692 97.6098 16.8532 97.6538 16.8395C97.6676 16.8352 97.6813 16.831 97.6952 16.8272C97.7442 16.8139 97.7939 16.8033 97.8441 16.7956C97.8534 16.7942 97.8624 16.7921 97.8717 16.7908C97.9321 16.7828 97.993 16.7787 98.0539 16.7785C98.1149 16.7787 98.1757 16.7828 98.2362 16.7908C98.2455 16.7921 98.2545 16.7941 98.2638 16.7956C98.314 16.8033 98.3636 16.8139 98.4126 16.8272C98.4265 16.831 98.4403 16.8352 98.4542 16.8397C98.4981 16.8533 98.5412 16.8692 98.5835 16.8873C98.5987 16.8938 98.6141 16.9 98.6292 16.9071C98.6721 16.9277 98.714 16.9505 98.7546 16.9754C98.7673 16.983 98.7804 16.9895 98.793 16.9976C98.844 17.0308 98.8929 17.0669 98.9396 17.1059C98.9593 17.1224 98.9781 17.1415 98.9974 17.1592C99.0254 17.1849 99.0532 17.211 99.0803 17.2394C99.1026 17.2627 99.1243 17.2879 99.146 17.3131C99.1695 17.3406 99.1926 17.369 99.2153 17.3986C99.2359 17.4254 99.2564 17.4527 99.2763 17.4813C99.3016 17.5179 99.326 17.5564 99.3502 17.5959C99.3653 17.6205 99.3808 17.6442 99.3954 17.6699C99.4823 17.8249 99.556 17.9868 99.6157 18.1542L99.6189 18.1634C99.8523 18.8908 99.9608 19.6525 99.9398 20.4161C99.9546 21.0407 99.8804 21.6643 99.7192 22.268C99.715 22.2821 99.7111 22.297 99.7066 22.3109C99.6851 22.3804 99.6613 22.4448 99.6372 22.5083C99.5829 22.6519 99.5158 22.7904 99.4368 22.9221C99.4314 22.9311 99.4261 22.9405 99.4206 22.9494C99.3897 22.9984 99.3576 23.0444 99.3246 23.0881C99.32 23.0942 99.3154 23.1002 99.3108 23.1061C99.2759 23.151 99.2401 23.1938 99.203 23.2331L99.2009 23.235C99.0917 23.3514 98.9644 23.4494 98.8241 23.5255C98.8201 23.5276 98.8163 23.5302 98.8124 23.5322C98.7807 23.549 98.7479 23.5628 98.7153 23.5769C98.6926 23.5866 98.6703 23.5966 98.6474 23.6052C98.6212 23.6149 98.5946 23.6236 98.568 23.632C98.5352 23.6421 98.5021 23.6515 98.4686 23.6593C98.4482 23.6642 98.4277 23.669 98.407 23.6732C98.362 23.6821 98.3164 23.689 98.2702 23.6942C98.2586 23.6956 98.2472 23.6976 98.2354 23.6987C98.1757 23.7043 98.1152 23.7073 98.0539 23.7074C97.9925 23.7076 97.932 23.7042 97.8723 23.6987C97.8606 23.6976 97.8492 23.6955 97.8376 23.6942C97.7914 23.689 97.7457 23.6821 97.7006 23.6732C97.68 23.669 97.6596 23.6642 97.6392 23.6593C97.6057 23.6514 97.5725 23.6421 97.5397 23.632C97.5131 23.6236 97.4865 23.615 97.4604 23.6052C97.4374 23.5966 97.4149 23.5866 97.3922 23.5769C97.3597 23.5628 97.3272 23.549 97.2954 23.5323C97.2913 23.5301 97.2874 23.5275 97.2832 23.5253C97.1431 23.4493 97.016 23.3513 96.9069 23.235L96.9049 23.2331C96.8678 23.1937 96.8319 23.151 96.797 23.1061C96.7924 23.1002 96.7879 23.0942 96.7833 23.0881C96.7502 23.0444 96.7181 22.9984 96.6872 22.9494C96.6817 22.9405 96.6765 22.9311 96.671 22.9221C96.592 22.7904 96.525 22.6519 96.4707 22.5083C96.4465 22.4448 96.4227 22.3804 96.4011 22.3109C96.3968 22.297 96.3928 22.2821 96.3885 22.268C96.2274 21.6643 96.1532 21.0407 96.168 20.4161C96.1471 19.6523 96.2557 18.8905 96.4893 18.163L96.4891 18.1632ZM87.3787 23.7713C85.8814 23.7713 85.4234 22.2882 85.3691 22.0509L83.86 22.397L82.5827 22.6369C82.8422 24.0637 84.0174 26.0815 87.2883 26.0815C91.5139 26.0815 91.9325 23.2785 91.9325 22.397C91.9325 20.1051 90.0483 19.5181 87.9618 18.8015C86.6775 18.3605 86.3121 18.2135 86.3121 17.645C86.3121 17.0764 86.8613 16.7489 87.5189 16.7489C88.4053 16.7489 88.91 17.2398 89.3024 18.0384L91.7555 17.1805C91.2666 15.7825 90.3169 14.4516 87.4072 14.4516C84.4976 14.4516 83.2308 16.3134 83.2308 17.7163C83.2308 19.6638 84.1432 20.481 86.4484 21.2724C88.146 21.8554 88.8744 22.02 88.8744 22.7853C88.8747 23.3443 88.395 23.7711 87.3789 23.7711L87.3787 23.7713ZM123.509 16.9642C124.346 17.212 124.457 18.061 124.184 18.6712C123.911 19.2815 122.75 20.2991 122.199 20.7137C121.318 21.3762 118.718 23.3862 118.718 23.3862V25.8059H127.367V23.3862H122.594C122.594 23.3862 123.295 22.8989 124.91 21.7508C126.526 20.6028 127.183 19.2337 127.183 18.3206C127.183 17.4076 127.16 14.5186 123.044 14.5186C118.928 14.5186 118.578 18.2062 118.578 18.2062L121.263 18.9827C121.536 16.9363 122.881 16.7782 123.509 16.9641L123.509 16.9642Z" fill="#1E74BA"/>
<path d="M33.0387 59.9156C28.2297 60.0541 23.5089 58.6065 19.6042 55.796C14.4759 52.1404 11.4177 47.1567 10.299 40.9635H2.81152C4.37162 55.728 17.5601 68.4762 34.4756 67.4411C50.0934 66.4856 61.1121 53.9839 62.3746 40.9567H54.8825C54.0372 46.1743 51.3877 50.9297 47.3959 54.3942C43.4042 57.8588 38.3232 59.8128 33.0387 59.9156V59.9156ZM30.2013 51.6226C30.7993 51.8732 31.443 51.9963 32.0913 51.9839C32.7395 51.9715 33.3781 51.8239 33.966 51.5507C34.5147 51.321 35.002 50.9661 35.3891 50.5144C35.7761 50.0628 36.0521 49.5269 36.195 48.9495C36.4462 48.0408 36.4284 47.0787 36.1435 46.1801C36.0018 45.6892 35.7616 45.2323 35.4377 44.8373C35.1137 44.4422 34.7128 44.1173 34.2592 43.8822C33.5882 43.5345 32.8379 43.3685 32.0828 43.4005C31.9185 43.4005 31.7541 43.3963 31.5899 43.4021C31.4889 43.4078 31.3882 43.4193 31.2884 43.4365C30.6563 43.5041 30.0498 43.7236 29.5208 44.0762C28.9918 44.4288 28.5559 44.904 28.2503 45.4615C27.828 46.2395 27.6443 47.1246 27.7221 48.0064C27.8363 49.6958 28.6067 50.963 30.2013 51.6226H30.2013ZM30.9295 44.9152C31.4757 44.6864 32.0799 44.6341 32.6574 44.7656C33.2348 44.8972 33.7568 45.2059 34.1501 45.6487C34.6448 46.2853 34.8869 47.0822 34.8299 47.8864C34.773 48.6906 34.421 49.4454 33.8415 50.0059C32.5629 51.1336 29.9136 50.8994 29.3364 48.4699C29.2812 48.2374 29.2612 47.9964 29.2426 47.8754C29.1935 46.501 29.8149 45.3719 30.9294 44.9152H30.9295ZM23.8414 50.6482C23.5083 50.6603 23.1775 50.5866 22.8811 50.434C22.5847 50.2814 22.3325 50.055 22.1489 49.7767C21.801 50.1579 21.4606 50.531 21.1111 50.914C21.386 51.2308 21.7292 51.481 22.1149 51.646C22.8585 51.9657 23.6807 52.0559 24.4759 51.9051C25.8017 51.68 26.6485 50.8222 26.7357 49.5558C26.7924 49.1192 26.7097 48.6758 26.4993 48.2889C26.2889 47.9021 25.9617 47.5917 25.5644 47.402C25.2163 47.2275 24.8383 47.1132 24.4756 46.9674C24.0657 46.8238 23.6646 46.656 23.2746 46.465C23.0909 46.3638 22.9525 46.1969 22.8871 45.9976C22.8218 45.7984 22.8345 45.5818 22.9226 45.3915C22.9746 45.251 23.0596 45.125 23.1704 45.0241C23.2812 44.9232 23.4146 44.8503 23.5593 44.8116C23.9188 44.677 24.3108 44.6556 24.6827 44.7503C25.0547 44.8451 25.3887 45.0515 25.6399 45.3417C25.9863 44.9765 26.3338 44.6102 26.6968 44.2277C26.6175 44.1599 26.5574 44.1037 26.4925 44.0539C25.8562 43.5836 25.0766 43.3484 24.2863 43.3883C23.6 43.3861 22.9267 43.5752 22.3418 43.9342C21.0293 44.7472 20.8748 47.0811 22.5632 47.8337C22.9657 48.0131 23.3938 48.1341 23.8025 48.3007C24.1592 48.4235 24.5019 48.5837 24.8251 48.7784C24.9429 48.8623 25.0398 48.9723 25.1081 49.0999C25.1764 49.2274 25.2143 49.369 25.2188 49.5136C25.2233 49.6583 25.1943 49.802 25.1341 49.9335C25.0739 50.0651 24.984 50.181 24.8716 50.272C24.5849 50.5177 24.2191 50.6513 23.8416 50.6482H23.8414ZM38.3272 50.6879C39.6642 52.0058 41.2665 52.2495 43.0111 51.7047C43.6473 51.4895 44.1949 51.0709 44.5695 50.5134L43.3691 49.6578C43.3272 49.7052 43.2927 49.7416 43.261 49.7803C42.0839 51.2191 40.1788 50.6683 39.4106 49.6719C39.1369 49.3142 38.9396 48.9042 38.8308 48.4672C38.722 48.0303 38.704 47.5756 38.7779 47.1314C38.8567 46.4511 39.1839 45.824 39.6968 45.3703C40.506 44.6464 42.1166 44.2903 43.1743 45.4375C43.2017 45.4628 43.2312 45.4857 43.2625 45.506L44.3855 44.678C44.0791 44.3086 43.7025 44.0037 43.2774 43.7807C42.4972 43.4022 41.6162 43.2835 40.7636 43.442C40.2275 43.5026 39.7095 43.6726 39.2417 43.9414C38.7739 44.2102 38.3662 44.5722 38.0439 45.0049C37.4253 45.8661 37.1336 46.9195 37.2213 47.9762C37.2248 48.9892 37.6213 49.9613 38.3271 50.6879H38.3272ZM35.2631 53.719C35.0846 53.887 34.9726 54.1136 34.9477 54.3574C34.9228 54.6013 34.9866 54.846 35.1274 55.0466C35.2118 55.1576 35.3199 55.2484 35.4439 55.3123C35.5679 55.3762 35.7045 55.4116 35.8439 55.4159C35.9826 55.4296 36.1226 55.4091 36.2516 55.3563C36.3805 55.3034 36.4946 55.2198 36.5838 55.1127C36.6021 55.6075 36.5188 55.8596 36.2712 55.9736C36.0923 56.0601 35.8895 56.0839 35.6954 56.0409C35.5014 55.9979 35.3275 55.8908 35.2018 55.7368C35.124 55.8259 35.0539 55.906 34.9761 55.9953C35.1321 56.1469 35.324 56.2566 35.5338 56.314C35.7436 56.3714 35.9646 56.3746 36.176 56.3234C36.3404 56.3014 36.4938 56.2288 36.6151 56.1157C36.7364 56.0026 36.8195 55.8545 36.8528 55.6921C36.8836 55.5631 36.8988 55.4308 36.8983 55.2982C36.9032 54.7669 36.9007 54.2355 36.8997 53.7041C36.8997 53.6561 36.891 53.608 36.8867 53.5634H36.598C36.591 53.6515 36.585 53.7279 36.5773 53.8237C36.4139 53.6404 36.1861 53.5271 35.9412 53.5076C35.6964 53.4881 35.4534 53.5639 35.263 53.719L35.2631 53.719ZM36.5896 54.454C36.5936 54.5427 36.5794 54.6313 36.5478 54.7144C36.5162 54.7974 36.468 54.873 36.4061 54.9368C36.3443 55.0005 36.27 55.0509 36.1879 55.0848C36.1058 55.1188 36.0176 55.1356 35.9288 55.1342C35.7566 55.129 35.5933 55.0565 35.474 54.9323C35.3547 54.8081 35.2889 54.642 35.2907 54.4698C35.2857 54.3827 35.2986 54.2955 35.3286 54.2136C35.3586 54.1318 35.4049 54.0569 35.4649 53.9936C35.5249 53.9303 35.5972 53.88 35.6773 53.8456C35.7575 53.8113 35.8438 53.7937 35.931 53.794C36.0182 53.7919 36.1049 53.8075 36.1859 53.8399C36.2668 53.8724 36.3403 53.9209 36.4019 53.9827C36.4635 54.0444 36.5119 54.1181 36.5442 54.1991C36.5764 54.2802 36.5919 54.3669 36.5895 54.4541L36.5896 54.454ZM26.2883 53.5609H26.0024V56.2974H26.3028V55.1268C26.7911 55.5277 27.2821 55.5512 27.652 55.2012C27.8198 55.0274 27.9226 54.8012 27.9434 54.5606C27.9641 54.3199 27.9015 54.0794 27.766 53.8795C27.6343 53.6988 27.4397 53.5741 27.2206 53.5299C27.0588 53.489 26.889 53.4922 26.7288 53.539C26.5686 53.5858 26.4239 53.6747 26.3096 53.7963C26.3006 53.6981 26.2946 53.6321 26.2882 53.561L26.2883 53.5609ZM26.9584 53.7921C27.0473 53.7918 27.1353 53.8098 27.2169 53.8451C27.2985 53.8803 27.372 53.932 27.4327 53.997C27.4934 54.0619 27.5401 54.1386 27.5699 54.2224C27.5996 54.3062 27.6117 54.3952 27.6055 54.4839C27.6097 54.5711 27.5961 54.6582 27.5657 54.74C27.5352 54.8218 27.4885 54.8966 27.4283 54.9598C27.3681 55.0231 27.2957 55.0733 27.2155 55.1078C27.1353 55.1422 27.0489 55.16 26.9616 55.16C26.8728 55.1604 26.7849 55.1428 26.703 55.1085C26.6211 55.0741 26.547 55.0236 26.4851 54.96C26.4232 54.8963 26.3748 54.8209 26.3427 54.7381C26.3107 54.6553 26.2956 54.5669 26.2985 54.4782C26.2959 54.3896 26.311 54.3013 26.3429 54.2186C26.3748 54.136 26.4229 54.0604 26.4844 53.9966C26.5458 53.9327 26.6194 53.8817 26.7008 53.8466C26.7822 53.8115 26.8697 53.793 26.9583 53.7922L26.9584 53.7921ZM31.3471 54.4648C31.3421 54.5966 31.3646 54.728 31.4132 54.8507C31.4617 54.9734 31.5352 55.0846 31.6291 55.1773C31.7229 55.27 31.8351 55.3422 31.9583 55.3892C32.0816 55.4363 32.2133 55.4572 32.3451 55.4506C32.4752 55.4578 32.6053 55.4377 32.7272 55.3916C32.849 55.3455 32.9598 55.2744 33.0525 55.1828C33.1451 55.0912 33.2176 54.9812 33.2651 54.8599C33.3127 54.7386 33.3343 54.6087 33.3285 54.4786C33.3354 54.3485 33.3147 54.2184 33.2678 54.0968C33.2209 53.9753 33.1488 53.865 33.0564 53.7732C32.9639 53.6814 32.8531 53.6102 32.7312 53.5642C32.6094 53.5182 32.4791 53.4985 32.3491 53.5062C32.219 53.4977 32.0885 53.5163 31.966 53.5609C31.8434 53.6055 31.7315 53.6751 31.6373 53.7652C31.5431 53.8553 31.4686 53.9641 31.4187 54.0845C31.3687 54.205 31.3443 54.3345 31.3471 54.4648L31.3471 54.4648ZM32.9877 54.4768C32.9937 54.5653 32.9812 54.6542 32.9511 54.7376C32.9209 54.821 32.8737 54.8973 32.8125 54.9615C32.7512 55.0257 32.6773 55.0765 32.5954 55.1106C32.5135 55.1448 32.4254 55.1615 32.3367 55.1598C32.2496 55.1589 32.1636 55.1406 32.0837 55.106C32.0038 55.0715 31.9316 55.0213 31.8712 54.9586C31.8109 54.8958 31.7637 54.8217 31.7324 54.7405C31.7011 54.6592 31.6862 54.5726 31.6888 54.4855C31.6836 54.3969 31.6966 54.3082 31.7268 54.2248C31.7571 54.1413 31.8041 54.065 31.8649 54.0003C31.9257 53.9356 31.999 53.884 32.0804 53.8486C32.1618 53.8133 32.2496 53.7949 32.3383 53.7946C32.427 53.7925 32.5151 53.8089 32.5971 53.8429C32.679 53.8769 32.7529 53.9277 32.8141 53.992C32.8752 54.0562 32.9222 54.1325 32.9521 54.216C32.982 54.2995 32.9941 54.3884 32.9876 54.4769L32.9877 54.4768ZM40.3903 54.4721C40.3864 54.604 40.41 54.7352 40.4595 54.8574C40.5091 54.9797 40.5835 55.0903 40.678 55.1823C40.7726 55.2743 40.8852 55.3457 41.0087 55.3919C41.1323 55.438 41.2641 55.4581 41.3958 55.4506C41.5259 55.4569 41.6559 55.4357 41.7774 55.3887C41.8989 55.3416 42.0091 55.2697 42.1011 55.1774C42.1931 55.0851 42.2647 54.9746 42.3114 54.853C42.3581 54.7314 42.3788 54.6014 42.3722 54.4713C42.378 54.3411 42.3563 54.2112 42.3085 54.09C42.2607 53.9688 42.1878 53.8591 42.0947 53.768C42.0015 53.6769 41.8901 53.6065 41.7679 53.5614C41.6457 53.5164 41.5153 53.4976 41.3853 53.5064C41.2552 53.4989 41.1249 53.5186 41.0027 53.5641C40.8806 53.6096 40.7692 53.68 40.6756 53.7708C40.5821 53.8616 40.5084 53.9708 40.4593 54.0915C40.4101 54.2123 40.3866 54.3419 40.3901 54.4722L40.3903 54.4721ZM42.0313 54.4846C42.0362 54.5716 42.0233 54.6586 41.9933 54.7405C41.9633 54.8223 41.917 54.8971 41.857 54.9603C41.7971 55.0235 41.7248 55.0739 41.6447 55.1082C41.5647 55.1425 41.4784 55.16 41.3913 55.1598C41.3026 55.1606 41.2146 55.1432 41.1328 55.109C41.051 55.0747 40.977 55.0241 40.9153 54.9603C40.8537 54.8965 40.8057 54.8208 40.7742 54.7378C40.7427 54.6549 40.7284 54.5664 40.7323 54.4778C40.7283 54.3891 40.7425 54.3006 40.7738 54.2176C40.805 54.1346 40.8529 54.0588 40.9143 53.9948C40.9758 53.9308 41.0496 53.8801 41.1313 53.8455C41.213 53.8109 41.3009 53.7932 41.3896 53.7936C41.4783 53.7929 41.5662 53.8106 41.6477 53.8458C41.7291 53.8809 41.8023 53.9327 41.8627 53.9977C41.9231 54.0627 41.9692 54.1396 41.9982 54.2234C42.0272 54.3072 42.0384 54.3963 42.0311 54.4847L42.0313 54.4846ZM21.5286 55.4119C21.6819 55.4622 21.8467 55.4651 22.0017 55.4203C22.1567 55.3756 22.2946 55.2853 22.3975 55.1611C22.4097 55.2561 22.4181 55.3214 22.4267 55.3878H22.689C22.689 55.0042 22.6893 54.6322 22.689 54.2601C22.6886 53.8681 22.5569 53.6396 22.2748 53.5495C21.9358 53.4412 21.3711 53.5192 21.1966 53.8182C21.2521 53.8722 21.3105 53.929 21.3664 53.9833C21.9807 53.6691 22.3724 53.7647 22.3767 54.2489C22.2847 54.2428 22.1924 54.2436 22.1006 54.2511C21.8761 54.2741 21.6542 54.3175 21.4377 54.3808C21.3217 54.42 21.2241 54.5004 21.1634 54.6067C21.1027 54.7131 21.0831 54.838 21.1084 54.9578C21.1198 55.0688 21.1669 55.173 21.2426 55.255C21.3184 55.3369 21.4187 55.392 21.5285 55.412L21.5286 55.4119ZM21.6899 54.5708C21.915 54.5314 22.1421 54.5039 22.3702 54.4884C22.4056 54.9579 22.1709 55.2096 21.7702 55.1781C21.6937 55.1828 21.6182 55.1589 21.5584 55.1109C21.4986 55.063 21.4589 54.9945 21.4469 54.9188C21.4385 54.8798 21.4383 54.8396 21.4461 54.8006C21.454 54.7616 21.4698 54.7246 21.4926 54.6919C21.5154 54.6593 21.5446 54.6317 21.5786 54.6109C21.6125 54.59 21.6503 54.5764 21.6897 54.5709L21.6899 54.5708ZM29.2803 54.2508C29.0557 54.2728 28.8336 54.3147 28.6164 54.3759C28.5005 54.4144 28.4023 54.4932 28.3398 54.5982C28.2772 54.7031 28.2546 54.827 28.2759 54.9473C28.2854 55.0585 28.3308 55.1635 28.4052 55.2467C28.4796 55.3299 28.5789 55.3867 28.6883 55.4086C28.8406 55.4624 29.0057 55.4681 29.1613 55.425C29.317 55.3819 29.4557 55.2921 29.5586 55.1676C29.5772 55.256 29.592 55.3257 29.6054 55.3893H29.8649C29.8649 54.989 29.8694 54.5985 29.8633 54.2083C29.8763 54.0814 29.8505 53.9536 29.7893 53.8417C29.728 53.7299 29.6343 53.6392 29.5204 53.5817C29.3292 53.5019 29.1191 53.4787 28.9151 53.515C28.7112 53.5513 28.5219 53.6455 28.37 53.7864L28.5455 53.9939C28.6586 53.8952 28.7975 53.8308 28.9459 53.8081C29.0943 53.7854 29.2462 53.8055 29.3836 53.8659C29.4492 53.9031 29.501 53.9604 29.5314 54.0293C29.5618 54.0983 29.5693 54.1752 29.5526 54.2487C29.4618 54.2428 29.3708 54.2435 29.2801 54.2508L29.2803 54.2508ZM28.9067 55.1753C28.8329 55.1735 28.7624 55.1447 28.7086 55.0943C28.6548 55.0439 28.6214 54.9755 28.6148 54.902C28.6004 54.8322 28.6142 54.7595 28.6532 54.6998C28.6922 54.6401 28.7532 54.5983 28.823 54.5834C29.059 54.5316 29.303 54.5162 29.5455 54.4851C29.5779 54.9687 29.3167 55.2334 28.9066 55.1753L28.9067 55.1753ZM39.5332 55.1284C39.4181 55.1659 39.2939 55.1643 39.1797 55.1241C39.0656 55.0839 38.9679 55.0071 38.9018 54.9057C38.8111 54.9795 38.7351 55.0414 38.6565 55.1053C38.7661 55.2552 38.9208 55.3662 39.098 55.4218C39.2752 55.4775 39.4656 55.4751 39.6413 55.4149C39.7753 55.3985 39.8983 55.3326 39.9862 55.2302C40.0742 55.1278 40.1207 54.9963 40.1167 54.8613C40.1143 54.5942 39.9645 54.426 39.6524 54.342C39.5103 54.3139 39.3705 54.2753 39.2342 54.2265C39.1604 54.194 39.053 54.0834 39.0662 54.0404C39.0824 53.9927 39.1083 53.9488 39.1421 53.9115C39.176 53.8743 39.2172 53.8443 39.2632 53.8237C39.3607 53.7884 39.4675 53.7882 39.5652 53.8229C39.663 53.8577 39.7456 53.9254 39.7989 54.0144C39.8886 53.9559 39.9715 53.9015 40.0522 53.8487C39.8567 53.4208 39.165 53.4212 38.888 53.6928C38.8275 53.7486 38.7824 53.819 38.7571 53.8973C38.7317 53.9756 38.727 54.059 38.7434 54.1396C38.7598 54.2203 38.7967 54.2954 38.8505 54.3576C38.9044 54.4198 38.9734 54.4671 39.0508 54.4948C39.2161 54.5557 39.3914 54.5888 39.5601 54.641C39.6825 54.6789 39.8043 54.7585 39.7642 54.8922C39.744 54.9453 39.7131 54.9937 39.6733 55.0344C39.6335 55.0751 39.5858 55.1071 39.5331 55.1285L39.5332 55.1284ZM44.1438 54.0108C44.2206 53.9399 44.2979 53.8686 44.3755 53.797C44.1836 53.6078 43.9243 53.5026 43.6548 53.5045C43.3853 53.5064 43.1275 53.6153 42.9383 53.8072C42.7663 54.0167 42.6822 54.2846 42.7036 54.5548C42.7249 54.8249 42.8501 55.0763 43.0529 55.2562C43.2453 55.4024 43.4856 55.4711 43.7263 55.4485C43.9669 55.4259 44.1903 55.3138 44.3522 55.1343C44.2855 55.0714 44.2174 55.0073 44.1393 54.9336C44.086 54.9978 44.0201 55.0505 43.9457 55.0885C43.8713 55.1264 43.79 55.1488 43.7067 55.1542C43.6234 55.1597 43.5398 55.1481 43.4611 55.1201C43.3824 55.0922 43.3103 55.0485 43.2491 54.9917C43.1285 54.8607 43.0564 54.6923 43.0451 54.5146C43.0337 54.3368 43.0837 54.1606 43.1868 54.0154C43.2458 53.9463 43.319 53.8907 43.4014 53.8525C43.4838 53.8143 43.5734 53.7943 43.6642 53.7939C43.7551 53.7935 43.8449 53.8127 43.9276 53.8502C44.0104 53.8876 44.0841 53.9425 44.1437 54.011L44.1438 54.0108ZM24.8535 53.8164C24.963 53.7862 25.079 53.7893 25.1866 53.8256C25.2942 53.8618 25.3885 53.9294 25.4574 54.0196C25.5498 53.9369 25.6241 53.8703 25.6988 53.8036C25.518 53.617 25.2715 53.5085 25.0118 53.5013C24.7522 53.4942 24.5 53.5888 24.3093 53.7652C24.1274 53.9609 24.027 54.2188 24.0287 54.486C24.0304 54.7532 24.1341 55.0097 24.3186 55.203C24.5031 55.3688 24.7434 55.4587 24.9914 55.4547C25.2394 55.4507 25.4767 55.353 25.6557 55.1813L25.4787 54.9382C25.1305 55.2063 24.8015 55.2203 24.5671 54.9869C24.4499 54.8574 24.3805 54.6917 24.3703 54.5173C24.3601 54.343 24.4098 54.1703 24.5111 54.0281C24.6034 53.9272 24.7219 53.854 24.8534 53.8165L24.8535 53.8164ZM38.5943 52.5374C38.4999 52.5009 38.4258 52.4724 38.3359 52.4376C37.9381 53.451 37.5439 54.4551 37.1464 55.4681L37.4076 55.5668C37.8074 54.5461 38.1992 53.5459 38.5942 52.5377L38.5943 52.5374ZM34.122 54.234C34.1282 54.1687 34.148 54.1054 34.1802 54.0483C34.2123 53.9911 34.2561 53.9414 34.3087 53.9023C34.3613 53.8631 34.4215 53.8354 34.4855 53.821C34.5495 53.8065 34.6158 53.8057 34.6801 53.8185C34.7149 53.8206 34.7496 53.8245 34.7938 53.8283V53.5183C34.66 53.4971 34.523 53.5112 34.3963 53.5591C34.2696 53.6071 34.1576 53.6873 34.0714 53.7918C34.0573 53.6955 34.0477 53.629 34.0382 53.5639H33.7801V55.4027H34.0826C34.0826 55.2651 34.0793 55.1457 34.0833 55.0265C34.0801 54.7619 34.093 54.4973 34.1219 54.2342L34.122 54.234ZM23.2705 55.3958H23.5631V53.5614H23.2705V55.3958ZM30.4291 55.1757C30.4248 55.2071 30.4277 55.2392 30.4374 55.2694C30.4472 55.2996 30.4636 55.3272 30.4855 55.3502C30.5074 55.3732 30.5342 55.3911 30.5639 55.4023C30.5936 55.4136 30.6255 55.418 30.6571 55.4153C30.8026 55.4173 30.8867 55.3334 30.9002 55.1665C30.9005 55.1362 30.8945 55.1063 30.8826 55.0784C30.8707 55.0506 30.8531 55.0255 30.8311 55.0047C30.809 54.984 30.7829 54.968 30.7543 54.9579C30.7258 54.9477 30.6955 54.9435 30.6653 54.9456C30.6338 54.9415 30.6018 54.9447 30.5717 54.9547C30.5416 54.9647 30.5141 54.9814 30.4914 55.0035C30.4687 55.0257 30.4512 55.0527 30.4404 55.0825C30.4296 55.1124 30.4257 55.1442 30.429 55.1758L30.4291 55.1757ZM23.6355 52.848C23.6308 52.6993 23.5602 52.6101 23.4193 52.6044C23.3891 52.6005 23.3585 52.6033 23.3296 52.6126C23.3006 52.6219 23.2741 52.6375 23.2518 52.6581C23.2295 52.6788 23.212 52.7041 23.2006 52.7322C23.1892 52.7604 23.184 52.7908 23.1856 52.8211C23.181 52.8511 23.1833 52.8817 23.1921 52.9108C23.201 52.9398 23.2162 52.9665 23.2368 52.9889C23.2573 53.0112 23.2826 53.0287 23.3107 53.04C23.3389 53.0514 23.3692 53.0563 23.3995 53.0543C23.4289 53.058 23.4587 53.0555 23.487 53.0469C23.5153 53.0382 23.5415 53.0237 23.5638 53.0043C23.5861 52.9848 23.604 52.9608 23.6163 52.9339C23.6287 52.907 23.6351 52.8778 23.6354 52.8482L23.6355 52.848ZM71.6069 47.747V48.3732H142.795V47.747H71.6069ZM71.6069 65.8947H142.795V65.2685H71.6068L71.6069 65.8947Z" fill="#242021"/>
<path d="M65.6021 40.5801V35.6463H-0.25V40.5801H65.6021Z" fill="#818386"/>
</g>
<defs>
<clipPath id="clip0_128_3936">
<rect width="142" height="74" fill="white" transform="translate(0.75 0.5)"/>
</clipPath>
</defs>
</svg>
