<svg width="118" height="50" viewBox="0 0 118 50" fill="none" xmlns="http://www.w3.org/2000/svg">
<path d="M92.9067 0.665405H24.7709C11.4336 0.665405 0.621613 11.4774 0.621613 24.8147V25.4272C0.621613 38.7645 11.4336 49.5765 24.7709 49.5765H92.9067C106.244 49.5765 117.056 38.7645 117.056 25.4272V24.8147C117.056 11.4774 106.244 0.665405 92.9067 0.665405Z" fill="#1D1D1B"/>
<path d="M92.9067 0.665405H24.7709C11.4336 0.665405 0.621613 11.4774 0.621613 24.8147V25.4272C0.621613 38.7645 11.4336 49.5765 24.7709 49.5765H92.9067C106.244 49.5765 117.056 38.7645 117.056 25.4272V24.8147C117.056 11.4774 106.244 0.665405 92.9067 0.665405Z" fill="#64B4F3"/>
<path d="M22.1704 16.355C20.3366 16.355 18.544 16.8988 17.0193 17.9176C15.4946 18.9363 14.3063 20.3844 13.6045 22.0786C12.9028 23.7727 12.7192 25.6369 13.0769 27.4354C13.4346 29.234 14.3177 30.886 15.6143 32.1827C16.911 33.4793 18.5631 34.3624 20.3616 34.7201C22.1601 35.0779 24.0243 34.8943 25.7185 34.1925C27.4126 33.4908 28.8607 32.3024 29.8794 30.7777C30.8982 29.253 31.442 27.4604 31.442 25.6267C31.442 23.1677 30.4652 20.8094 28.7264 19.0706C26.9876 17.3319 24.6294 16.355 22.1704 16.355ZM22.1704 33.6046C20.5925 33.6046 19.05 33.1367 17.7381 32.26C16.4261 31.3834 15.4036 30.1374 14.7997 28.6797C14.1959 27.2219 14.0379 25.6178 14.3458 24.0702C14.6536 22.5227 15.4134 21.1012 16.5291 19.9854C17.6449 18.8697 19.0664 18.1099 20.614 17.802C22.1615 17.4942 23.7656 17.6522 25.2234 18.256C26.6812 18.8599 27.9271 19.8824 28.8038 21.1944C29.6804 22.5063 30.1483 24.0488 30.1483 25.6267C30.1459 27.7418 29.3046 29.7696 27.809 31.2652C26.3133 32.7609 24.2855 33.6022 22.1704 33.6046ZM26.6639 21.523C26.5937 21.4752 26.5147 21.4418 26.4315 21.4245C26.3484 21.4073 26.2626 21.4066 26.1792 21.4225C26.0958 21.4385 26.0163 21.4707 25.9453 21.5173C25.8744 21.564 25.8133 21.6242 25.7656 21.6945L20.5261 29.4037L18.1353 26.8166C18.0178 26.6952 17.8574 26.6245 17.6885 26.6197C17.5196 26.615 17.3555 26.6765 17.2314 26.7912C17.1072 26.9059 17.0329 27.0646 17.0243 27.2333C17.0157 27.4021 17.0734 27.5675 17.1852 27.6943L20.1285 30.8793C20.189 30.9449 20.2625 30.9972 20.3443 31.033C20.426 31.0688 20.5143 31.0873 20.6036 31.0873C20.6196 31.0873 20.6356 31.0869 20.6516 31.0857C20.7487 31.0784 20.8429 31.0493 20.9272 31.0005C21.0115 30.9517 21.0837 30.8845 21.1384 30.8039L26.8354 22.4213C26.8832 22.3511 26.9167 22.2721 26.9339 22.189C26.9512 22.1058 26.9518 22.0201 26.9359 21.9366C26.92 21.8532 26.8878 21.7737 26.8411 21.7027C26.7944 21.6318 26.7343 21.5707 26.664 21.523H26.6639ZM48.0712 20.2123C48.2595 19.8165 48.3702 19.3881 48.3972 18.9506H46.7852C46.7494 19.1739 46.6753 19.3893 46.5662 19.5874C46.4644 19.7708 46.3306 19.9345 46.1712 20.0708C46.0106 20.2063 45.8267 20.3112 45.6283 20.3804C45.4152 20.4546 45.1908 20.4915 44.9651 20.4894C44.6709 20.4944 44.3803 20.4244 44.1207 20.286C43.8665 20.1456 43.6486 19.9477 43.4844 19.7082C43.2965 19.4301 43.16 19.1206 43.0814 18.7943C42.8949 17.9983 42.8949 17.17 43.0814 16.374C43.1607 16.048 43.2972 15.7387 43.4844 15.4602C43.6475 15.2197 43.8657 15.0216 44.1207 14.8823C44.3791 14.7463 44.6676 14.6774 44.9596 14.6819C45.184 14.6802 45.4068 14.7192 45.6174 14.7968C45.8181 14.8711 46.0031 14.982 46.1632 15.124C46.3254 15.2698 46.46 15.4436 46.5607 15.637C46.6694 15.8457 46.7433 16.0708 46.7797 16.3032H48.3918C48.3679 15.8598 48.2581 15.4253 48.0684 15.0238C47.7077 14.2551 47.0631 13.656 46.2701 13.3523C45.8522 13.1909 45.4075 13.11 44.9596 13.1136C44.4271 13.1051 43.899 13.2107 43.4106 13.4231C42.9579 13.6247 42.5581 13.9284 42.2424 14.3104C41.9066 14.7262 41.656 15.204 41.505 15.7166C41.1614 16.9379 41.1614 18.2303 41.505 19.4516C41.6556 19.9653 41.9062 20.4442 42.2424 20.8607C42.5581 21.2427 42.9579 21.5464 43.4106 21.748C44.3242 22.1301 45.347 22.1595 46.2811 21.8306C46.6721 21.6881 47.0323 21.472 47.3419 21.1938C47.6461 20.9168 47.8938 20.5835 48.0713 20.2123H48.0712ZM55.4406 21.194C55.7449 20.9169 55.9926 20.5836 56.17 20.2123C56.3583 19.8165 56.4689 19.3881 56.496 18.9506H54.8839C54.8481 19.1739 54.774 19.3893 54.6649 19.5874C54.5631 19.7708 54.4293 19.9345 54.2699 20.0708C54.1093 20.2063 53.9253 20.3112 53.727 20.3804C53.5138 20.4546 53.2895 20.4915 53.0637 20.4894C52.7696 20.4944 52.479 20.4244 52.2194 20.286C51.9652 20.1456 51.7473 19.9477 51.583 19.7082C51.3952 19.4301 51.2587 19.1205 51.1801 18.7943C50.9936 17.9983 50.9936 17.17 51.1801 16.374C51.2594 16.048 51.3959 15.7387 51.583 15.4602C51.7462 15.2198 51.9644 15.0217 52.2194 14.8823C52.4778 14.7463 52.7663 14.6774 53.0583 14.6819C53.2827 14.6802 53.5055 14.7192 53.7161 14.7968C53.9167 14.8711 54.1018 14.982 54.2619 15.124C54.424 15.2698 54.5587 15.4436 54.6594 15.637C54.768 15.8457 54.842 16.0708 54.8784 16.3032H56.4905C56.4666 15.8598 56.3568 15.4253 56.1671 15.0238C55.8064 14.2551 55.1618 13.656 54.3688 13.3523C53.9509 13.1909 53.5062 13.11 53.0582 13.1136C52.5257 13.1051 51.9976 13.2107 51.5093 13.4231C51.0566 13.6247 50.6567 13.9284 50.3411 14.3104C50.0053 14.7261 49.7547 15.204 49.6037 15.7166C49.26 16.9379 49.26 18.2303 49.6037 19.4516C49.7542 19.9653 50.0048 20.4442 50.3411 20.8607C50.6567 21.2427 51.0566 21.5464 51.5093 21.748C52.4229 22.1301 53.4457 22.1595 54.3798 21.8306C54.7709 21.6882 55.131 21.4721 55.4407 21.194H55.4406ZM63.0762 14.1398C62.8325 13.8826 62.5374 13.6797 62.21 13.5442C61.857 13.3995 61.4784 13.3274 61.0969 13.332H57.7957V21.8397H59.452V19.1982H61.0144C61.4054 19.2029 61.7937 19.1318 62.1577 18.9889C62.4942 18.8554 62.7987 18.6525 63.0514 18.3934C63.3069 18.1282 63.5047 17.8131 63.6325 17.4677C63.7738 17.0858 63.8436 16.6811 63.8385 16.2738C63.8434 15.8632 63.7756 15.455 63.638 15.0681C63.5161 14.7236 63.3249 14.4076 63.0762 14.1398ZM61.7627 17.3766C61.4571 17.6442 61.058 17.7799 60.6526 17.7539H59.452V14.7942H60.6581C60.8585 14.7812 61.0594 14.8078 61.2495 14.8726C61.4395 14.9373 61.6149 15.0389 61.7657 15.1715C61.903 15.3198 62.0084 15.4946 62.0753 15.6853C62.1423 15.8759 62.1693 16.0783 62.1548 16.2798C62.1687 16.4798 62.1411 16.6804 62.0736 16.8692C62.0061 17.0579 61.9003 17.2306 61.7627 17.3765V17.3766ZM68.8356 13.332H66.8887L64.1417 21.8397H65.8921L66.3594 20.2412H69.3652L69.8325 21.8397H71.5827L68.8356 13.332ZM66.8073 18.7091L67.8622 15.1008L68.9171 18.7091H66.8073ZM43.8709 35.9992C43.5759 36.0064 43.2842 35.9346 43.0262 35.7912C42.7857 35.6529 42.5943 35.4432 42.4785 35.1911C42.3482 34.9028 42.2843 34.5889 42.2915 34.2725V33.2408C42.2657 32.767 42.4094 32.2996 42.6969 31.9222C42.8422 31.7567 43.0236 31.6267 43.2271 31.5423C43.4306 31.4579 43.6507 31.4213 43.8706 31.4354C44.0816 31.4315 44.2918 31.4645 44.4915 31.5327C44.6484 31.5832 44.7897 31.6729 44.9021 31.7934C44.9862 31.8863 45.0578 31.9898 45.1152 32.1012C45.162 32.1955 45.1966 32.2954 45.218 32.3985H46.118C46.105 32.1622 46.0431 31.9311 45.9362 31.72C45.8293 31.5088 45.6798 31.3221 45.497 31.1718C44.9931 30.797 44.3749 30.6084 43.7477 30.6382C43.1204 30.668 42.5228 30.9143 42.0568 31.3352C41.5989 31.8488 41.3615 32.522 41.396 33.2092V34.262C41.3613 34.9517 41.5985 35.6275 42.0568 36.1441C42.2904 36.3822 42.5719 36.5681 42.8827 36.6892C43.1935 36.8104 43.5265 36.8642 43.8596 36.847C44.4628 36.887 45.0601 36.7075 45.5414 36.3417C45.7224 36.1992 45.8711 36.0199 45.9776 35.8157C46.0842 35.6115 46.1462 35.387 46.1597 35.157H45.2597C45.1163 35.7185 44.6534 35.9992 43.8709 35.9992ZM49.8932 30.6353C49.5548 30.6241 49.2177 30.6824 48.9026 30.8063C48.5876 30.9303 48.3012 31.1175 48.0612 31.3563C47.8178 31.6082 47.6284 31.9072 47.5044 32.2348C47.3805 32.5625 47.3246 32.9119 47.3403 33.2619V34.215C47.3197 34.5684 47.3717 34.9223 47.493 35.255C47.6143 35.5876 47.8024 35.8919 48.0456 36.1492C48.5529 36.5996 49.2079 36.848 49.8863 36.847C50.5647 36.8461 51.219 36.596 51.725 36.1442C51.9704 35.889 52.1605 35.586 52.2837 35.254C52.4069 34.9221 52.4604 34.5684 52.4409 34.215V33.2619C52.4606 32.9092 52.4077 32.5563 52.2855 32.2249C52.1633 31.8935 51.9744 31.5906 51.7304 31.3352C51.4872 31.1008 51.199 30.9179 50.8833 30.7976C50.5675 30.6774 50.2308 30.6221 49.8932 30.6353V30.6353ZM51.5356 34.1147C51.5632 34.6216 51.4093 35.1218 51.1014 35.5255C50.9535 35.6993 50.7676 35.8368 50.5581 35.9272C50.3486 36.0176 50.1211 36.0585 49.8932 36.0469C49.58 36.055 49.2712 35.9727 49.0037 35.8097C48.7514 35.6483 48.5527 35.4156 48.4327 35.1412C48.2937 34.8172 48.2263 34.467 48.2352 34.1145V33.3615C48.2106 32.8558 48.3726 32.3585 48.6904 31.9643C48.8384 31.7909 49.0238 31.6532 49.2326 31.5616C49.4414 31.47 49.6682 31.4269 49.8961 31.4354C50.1219 31.4261 50.3468 31.4685 50.5538 31.5592C50.7608 31.6499 50.9444 31.7865 51.0906 31.9588C51.4035 32.3573 51.5615 32.8556 51.5353 33.3616L51.5356 34.1147ZM60.1587 30.6353C59.7484 30.6194 59.3432 30.7296 58.9976 30.9512C58.7005 31.1496 58.4688 31.4315 58.3318 31.7614H58.2846C58.243 31.6013 58.1715 31.4504 58.074 31.3167C57.8664 31.0299 57.5689 30.8206 57.2288 30.722C57.0281 30.6622 56.8196 30.633 56.6102 30.6353C55.7612 30.6353 55.2207 30.9844 54.9888 31.6827H54.931V30.7296H54.0361V36.7467H54.931V32.8564C54.9248 32.6676 54.956 32.4796 55.0229 32.303C55.0898 32.1264 55.1909 31.9648 55.3206 31.8276C55.5824 31.571 55.9327 31.425 56.2992 31.4196C56.6657 31.4142 57.0202 31.5498 57.2894 31.7985C57.412 31.9305 57.5072 32.0855 57.5696 32.2545C57.632 32.4235 57.6603 32.6031 57.6528 32.7831V36.7468H58.5473V32.8673C58.5416 32.6769 58.5741 32.4873 58.6428 32.3096C58.7116 32.1319 58.8151 31.9697 58.9474 31.8326C59.0769 31.6974 59.2333 31.5908 59.4065 31.5197C59.5797 31.4485 59.7659 31.4144 59.953 31.4195C60.1302 31.4076 60.3079 31.4333 60.4744 31.495C60.6409 31.5567 60.7924 31.6529 60.919 31.7774C61.1498 32.0376 61.2698 32.3776 61.2534 32.725V36.7467H62.1534V32.5093C62.1695 32.254 62.1309 31.9981 62.0401 31.7588C61.9493 31.5196 61.8084 31.3025 61.6269 31.1221C61.2183 30.7772 60.6925 30.6028 60.1587 30.6353V30.6353ZM85.5226 30.6353C84.5611 30.6353 83.9521 31.037 83.6957 31.8406H83.638V30.7295H82.7432V36.7466H83.6381V33.3725C83.6173 32.8696 83.7687 32.3746 84.0672 31.9693C84.2166 31.7846 84.408 31.6384 84.6254 31.5427C84.8429 31.447 85.08 31.4047 85.3171 31.4193C85.5016 31.408 85.6864 31.436 85.8593 31.5013C86.0322 31.5666 86.1893 31.6679 86.3203 31.7983C86.576 32.1055 86.7033 32.4996 86.6757 32.8983V36.7466H87.5756V32.6145C87.5939 32.3438 87.5537 32.0722 87.4579 31.8184C87.3621 31.5645 87.2128 31.3342 87.0202 31.1431C86.6045 30.7882 86.0684 30.6064 85.5226 30.6353V30.6353ZM78.6838 30.6353C78.1436 30.6085 77.6077 30.7431 77.1443 31.0219C76.9546 31.1493 76.7971 31.3191 76.6843 31.5178C76.5715 31.7166 76.5063 31.9388 76.494 32.1669H77.3683C77.5224 31.686 77.9469 31.4456 78.6418 31.4456C78.9946 31.4235 79.344 31.526 79.6289 31.7353C79.7512 31.8471 79.8463 31.9853 79.9071 32.1394C79.9678 32.2936 79.9925 32.4596 79.9793 32.6247V33.2408H78.3681C77.973 33.2307 77.5805 33.307 77.218 33.4644C76.9223 33.592 76.672 33.8057 76.4995 34.0776C76.3368 34.3551 76.2546 34.6724 76.2623 34.994C76.2593 35.2549 76.3094 35.5137 76.4097 35.7546C76.5011 35.9742 76.6374 36.1723 76.8098 36.3362C76.9899 36.5012 77.2013 36.6282 77.4314 36.7097C77.686 36.8027 77.9551 36.8492 78.2261 36.847C78.5734 36.8681 78.92 36.7945 79.2287 36.634C79.5375 36.4736 79.7969 36.2324 79.9793 35.9361H80.0105V36.7468H80.8898V32.6147C80.9125 32.3341 80.8686 32.0522 80.7616 31.7918C80.6546 31.5315 80.4875 31.3002 80.2741 31.1167C79.8141 30.7802 79.2532 30.6104 78.6838 30.6353V30.6353ZM79.9792 34.6883C79.9826 34.8746 79.945 35.0594 79.869 35.2295C79.7931 35.3997 79.6806 35.5511 79.5396 35.6729C79.2407 35.9384 78.8517 36.0797 78.4522 36.0679C78.1328 36.0768 77.8197 35.9785 77.5628 35.7887C77.4542 35.6957 77.3656 35.5815 77.3025 35.4532C77.2394 35.3249 77.2031 35.1851 77.1957 35.0423C77.1882 34.8996 77.21 34.7568 77.2595 34.6226C77.309 34.4885 77.3852 34.3658 77.4836 34.2621C77.7396 34.0589 78.0635 33.961 78.3892 33.9883H79.9794L79.9792 34.6883ZM91.6079 35.9992C91.3128 36.0064 91.0211 35.9346 90.7631 35.7912C90.5227 35.6529 90.3314 35.4431 90.2156 35.1911C90.0853 34.9028 90.0214 34.5889 90.0286 34.2725V33.2408C90.0028 32.7671 90.1465 32.2996 90.434 31.9222C90.5793 31.7567 90.7608 31.6267 90.9642 31.5423C91.1677 31.4579 91.3879 31.4213 91.6077 31.4354C91.8188 31.4315 92.0289 31.4645 92.2287 31.5327C92.3856 31.5832 92.5269 31.6729 92.6393 31.7934C92.7234 31.8863 92.795 31.9898 92.8524 32.1012C92.8992 32.1955 92.9338 32.2954 92.9552 32.3985H93.8551C93.8422 32.1622 93.7804 31.9312 93.6735 31.72C93.5667 31.5088 93.4172 31.3221 93.2344 31.1718C92.7305 30.797 92.1123 30.6084 91.485 30.6382C90.8578 30.668 90.2602 30.9143 89.7941 31.3352C89.3362 31.8488 89.0989 32.522 89.1334 33.2092V34.262C89.0987 34.9517 89.3359 35.6275 89.7941 36.1441C90.0277 36.3822 90.3093 36.5681 90.6201 36.6892C90.9309 36.8104 91.2639 36.8642 91.597 36.847C92.2002 36.887 92.7976 36.7075 93.2788 36.3417C93.4598 36.1992 93.6085 36.0199 93.7151 35.8157C93.8216 35.6115 93.8837 35.387 93.8971 35.157H92.9971C92.8534 35.7185 92.3904 35.9992 91.6079 35.9992ZM99.9728 33.9883V33.2514C99.9893 32.9052 99.9373 32.5592 99.8199 32.2331C99.7025 31.9071 99.5219 31.6074 99.2885 31.3512C98.8163 30.8921 98.1836 30.6353 97.525 30.6353C96.8664 30.6353 96.2337 30.8921 95.7615 31.3512C95.5281 31.6074 95.3475 31.9071 95.2301 32.2331C95.1126 32.5592 95.0607 32.9052 95.0772 33.2514V34.225C95.04 34.926 95.2803 35.6134 95.7459 36.1387C95.9865 36.3803 96.2755 36.5684 96.5939 36.6905C96.9123 36.8125 97.2529 36.8659 97.5934 36.847C97.9195 36.8508 98.2441 36.801 98.554 36.6996C98.8114 36.6191 99.0503 36.4884 99.2569 36.3151C99.422 36.1733 99.5657 36.0083 99.6836 35.8253C99.783 35.6718 99.8509 35.5 99.8832 35.32H98.9306C98.8463 35.5407 98.6845 35.7232 98.4753 35.8331C98.2064 35.9835 97.9014 36.0573 97.5935 36.0466C97.3711 36.0589 97.1488 36.0206 96.9432 35.9349C96.7376 35.8491 96.5541 35.718 96.4063 35.5514C96.1156 35.1982 95.9648 34.7505 95.9826 34.2934V33.9881L99.9728 33.9883ZM95.9826 33.1882C95.9586 32.7246 96.1098 32.269 96.4063 31.9117C96.5452 31.7551 96.7171 31.6312 96.9096 31.5488C97.1021 31.4665 97.3105 31.4277 97.5197 31.4354C97.8037 31.4296 98.0837 31.5035 98.3279 31.6486C98.5651 31.795 98.7537 32.0083 98.8699 32.2617C99.003 32.5521 99.0686 32.8688 99.0619 33.1882V33.2935H95.9826V33.1882ZM73.6719 36.7467H74.5723V30.7295H73.6719V36.7467ZM70.6979 36.7467H71.6086V28.5086H70.6977L70.6979 36.7467ZM74.1196 28.1767C74.0305 28.1749 73.942 28.1909 73.8592 28.2239C73.7764 28.2569 73.7011 28.3061 73.6378 28.3688C73.5729 28.4318 73.5218 28.5076 73.4878 28.5914C73.4538 28.6752 73.4376 28.7652 73.4403 28.8556C73.4377 28.9448 73.454 29.0336 73.4881 29.1162C73.5221 29.1988 73.5731 29.2733 73.6378 29.3348C73.7015 29.3968 73.7769 29.4455 73.8596 29.4781C73.9423 29.5107 74.0307 29.5265 74.1196 29.5246C74.2403 29.526 74.3596 29.4979 74.467 29.4426C74.57 29.3906 74.6552 29.3091 74.7117 29.2085C74.7713 29.1006 74.8014 28.9789 74.7989 28.8556C74.8018 28.7656 74.7863 28.676 74.7532 28.5922C74.7201 28.5085 74.6701 28.4325 74.6065 28.3688C74.5428 28.3052 74.4667 28.2553 74.3829 28.2223C74.2992 28.1892 74.2095 28.1737 74.1196 28.1767ZM66.7497 30.6353C66.3352 30.6197 65.925 30.7238 65.5681 30.9352C65.2786 31.106 65.055 31.3693 64.9335 31.6827H64.8863V30.7296H64.0335V38.8524H64.9334V35.8574H64.9755C65.267 36.5169 65.8443 36.8467 66.7077 36.847C67.0256 36.8616 67.3429 36.808 67.6385 36.6899C67.934 36.5719 68.2009 36.3919 68.4212 36.1623C68.8691 35.6462 69.0984 34.976 69.0605 34.2937V33.1882C69.0966 32.5096 68.8716 31.8428 68.4318 31.3247C68.2181 31.0948 67.9571 30.914 67.6666 30.795C67.3762 30.6759 67.0634 30.6214 66.7498 30.6353L66.7497 30.6353ZM68.1659 34.0726C68.2037 34.5994 68.0515 35.1223 67.7368 35.5465C67.5953 35.7113 67.4183 35.8419 67.2191 35.9285C67.0199 36.0152 66.8037 36.0556 66.5867 36.0467C66.3643 36.0565 66.1424 36.0191 65.9355 35.9369C65.7287 35.8547 65.5415 35.7297 65.3865 35.57C65.2348 35.4075 65.1168 35.2167 65.039 35.0085C64.9613 34.8003 64.9253 34.5788 64.9333 34.3567V33.2407C64.9074 32.7626 65.0616 32.2922 65.3654 31.9222C65.5151 31.7585 65.6991 31.63 65.9043 31.5459C66.1094 31.4617 66.3307 31.424 66.5522 31.4354C66.7747 31.4242 66.997 31.4636 67.2021 31.5506C67.4073 31.6377 67.5901 31.77 67.7368 31.9378C68.0502 32.3596 68.2024 32.8796 68.1659 33.4037V34.0726ZM96.2098 24.2674C96.6673 24.2674 97.106 24.0856 97.4295 23.7621C97.753 23.4386 97.9348 22.9999 97.9348 22.5424V13.9176C97.9348 13.4601 97.753 13.0214 97.4295 12.6979C97.106 12.3744 96.6673 12.1927 96.2098 12.1927H95.9438C95.9685 11.9922 95.9815 11.7905 95.9826 11.5885V9.86358C95.9826 8.49112 95.4374 7.17487 94.4669 6.2044C93.4964 5.23392 92.1802 4.68872 90.8077 4.68872H88.6749C87.3024 4.68872 85.9862 5.23392 85.0157 6.2044C84.0452 7.17487 83.5 8.49112 83.5 9.86358V11.5885C83.5012 11.7905 83.5141 11.9922 83.5389 12.1927H83.2728C82.8153 12.1927 82.3765 12.3744 82.053 12.6979C81.7296 13.0214 81.5478 13.4601 81.5478 13.9176V22.5424C81.5478 22.9999 81.7296 23.4386 82.053 23.7621C82.3765 24.0856 82.8153 24.2674 83.2728 24.2674H96.2098ZM90.8193 18.6205V21.1098C90.8193 21.3957 90.7057 21.67 90.5035 21.8721C90.3014 22.0743 90.0272 22.1879 89.7412 22.1879C89.4553 22.1879 89.1811 22.0743 88.9789 21.8721C88.7767 21.67 88.6631 21.3957 88.6631 21.1098V18.6205C88.2521 18.3832 87.9308 18.0169 87.7492 17.5784C87.5675 17.1398 87.5357 16.6536 87.6585 16.1952C87.7814 15.7367 88.0521 15.3316 88.4286 15.0426C88.8052 14.7537 89.2666 14.597 89.7412 14.597C90.2159 14.597 90.6773 14.7537 91.0538 15.0426C91.4304 15.3316 91.7011 15.7367 91.824 16.1952C91.9468 16.6536 91.9149 17.1398 91.7333 17.5784C91.5517 18.0169 91.2304 18.3832 90.8193 18.6205ZM85.2249 9.86358C85.2259 8.94893 85.5898 8.07204 86.2365 7.42529C86.8833 6.77853 87.7602 6.41471 88.6748 6.41367H90.8076C91.7223 6.41471 92.5992 6.77853 93.2459 7.42529C93.8927 8.07204 94.2565 8.94893 94.2575 9.86358V11.5885C94.2558 11.7913 94.2357 11.9935 94.1976 12.1927H85.285C85.2469 11.9935 85.2268 11.7913 85.225 11.5885L85.2249 9.86358Z" fill="white"/>
</svg>
