<svg width="149" height="59" viewBox="0 0 149 59" fill="none" xmlns="http://www.w3.org/2000/svg">
<g clip-path="url(#clip0_182_4751)">
<path d="M38.9604 5.98645H0.574219V53.188H47.9282V14.9252L38.9604 5.98645Z" fill="#0B83F1"/>
<path d="M38.9604 5.98645H0.574219V53.188H47.9282V14.9252L38.9604 5.98645Z" fill="#0B83F1"/>
<path d="M38.9604 5.98645H0.574219V53.188H47.9282V14.9252L38.9604 5.98645Z" fill="#0B83F1"/>
<path d="M22.7247 15.1461L24.3146 14.3102L25.9044 15.1461L25.6009 13.3756L26.8872 12.1218L25.1096 11.8635L24.3146 10.2527L23.5196 11.8635L21.742 12.1218L23.0283 13.3756L22.7247 15.1461ZM32.7403 12.5104L31.9454 14.1212L30.1678 14.3795L31.454 15.6333L31.1505 17.4037L32.7403 16.5679L34.3302 17.4037L34.0266 15.6333L35.3129 14.3795L33.5353 14.1212L32.7403 12.5104ZM37.3184 23.5718L38.9084 22.7359L40.4982 23.5718L40.1947 21.8014L41.4809 20.5476L39.7033 20.2893L38.9084 18.6785L38.1134 20.2893L36.3358 20.5476L37.6221 21.8014L37.3184 23.5718ZM7.46319 31.1616L9.05302 31.9975L8.74947 30.2271L10.0357 28.9733L8.25814 28.715L7.46319 27.1042L6.66821 28.715L4.89062 28.9733L6.17691 30.2271L5.87334 31.9975L7.46319 31.1616ZM8.1309 23.5718L9.72083 22.7359L11.3108 23.5718L11.0071 21.8013L12.2934 20.5475L10.5158 20.2893L9.72083 18.6785L8.92587 20.2893L7.14826 20.5475L8.43455 21.8013L8.1309 23.5718ZM14.299 17.4037L15.8888 16.5678L17.4787 17.4037L17.1751 15.6333L18.4614 14.3795L16.6838 14.1212L15.8888 12.5104L15.0938 14.1212L13.3162 14.3795L14.6025 15.6333L14.299 17.4037ZM43.7102 28.9733L41.9326 28.715L41.1376 27.1042L40.3427 28.715L38.5651 28.9733L39.8514 30.2271L39.5478 31.9975L41.1376 31.1616L42.7275 31.9975L42.4239 30.2271L43.7102 28.9733ZM39.7033 37.1407L38.9083 35.5299L38.1133 37.1407L36.3357 37.399L37.622 38.6528L37.3185 40.4232L38.9083 39.5873L40.4982 40.4232L40.1946 38.6528L41.4809 37.399L39.7033 37.1407ZM33.5352 43.3087L32.7403 41.698L31.9453 43.3087L30.1677 43.567L31.454 44.8208L31.1504 46.5912L32.7403 45.7554L34.3301 46.5912L34.0265 44.8208L35.3128 43.567L33.5352 43.3087ZM16.6838 43.3087L15.8888 41.6979L15.0938 43.3087L13.3163 43.567L14.6025 44.8208L14.299 46.5912L15.8888 45.7554L17.4788 46.5912L17.1751 44.8208L18.4614 43.567L16.6838 43.3087ZM10.5157 37.1407L9.72076 35.5299L8.92581 37.1407L7.1482 37.399L8.43448 38.6528L8.13083 40.4232L9.72076 39.5873L11.3107 40.4232L11.007 38.6528L12.2933 37.399L10.5157 37.1407ZM25.1095 45.5664L24.3145 43.9556L23.5196 45.5664L21.742 45.8247L23.0282 47.0784L22.7246 48.8488L24.3145 48.013L25.9044 48.8488L25.6008 47.0784L26.8871 45.8247L25.1095 45.5664ZM32.547 22.8553L20.5049 35.3253L14.0322 29.4973L11.8283 31.9451L20.5907 39.8348L20.6305 39.8733L20.6319 39.8719L20.6334 39.8733L20.6732 39.829L34.8847 25.1127L32.547 22.8553Z" fill="white"/>
<path d="M47.9287 14.9255H38.9609V5.98669L47.9287 14.9255Z" fill="#80CBFF"/>
<path d="M104.75 29.7375V22.4628H98.8763V24.3184H102.618V28.767C102.128 28.9573 101.617 29.0862 101.095 29.151C100.379 29.2363 99.6575 29.279 98.9357 29.2789C98.1759 29.2907 97.4219 29.1436 96.7223 28.847C96.0729 28.5645 95.4978 28.1356 95.0417 27.5939C94.5416 27.0002 94.1677 26.3108 93.943 25.5678C93.6736 24.6615 93.5452 23.7192 93.5623 22.7738C93.5623 20.8615 94.0427 19.3294 95.0035 18.1775C95.9643 17.0259 97.2243 16.4501 98.7834 16.4501C100.775 16.4501 102.24 17.2292 103.607 18.3148L104.551 16.54C103.267 15.4874 101.02 14.6265 99.0444 14.6265C97.9632 14.6149 96.8894 14.8066 95.8791 15.1916C94.9572 15.5403 94.1248 16.0905 93.4427 16.802C92.7435 17.5486 92.2081 18.4331 91.8708 19.3987C91.4894 20.5045 91.3035 21.6683 91.3215 22.8379C91.3005 24.0543 91.4844 25.2656 91.8655 26.421C92.1899 27.3961 92.7246 28.288 93.4318 29.0336C94.1176 29.7332 94.9548 30.2659 95.8791 30.5906C96.8894 30.9419 97.9531 31.1151 99.0227 31.1024C99.6575 31.1081 100.292 31.0689 100.921 30.9851C101.406 30.8932 101.885 30.7757 102.357 30.6333C102.795 30.5134 103.225 30.3674 103.646 30.1959C104.106 30.0112 104.474 29.8584 104.75 29.7375ZM67.399 28.9163H59.4259V23.7051H66.855V21.8282H59.4259V16.7914H67.399V14.9145H57.2723V30.7932H67.399V28.9163ZM144.541 27.661C145.164 29.3415 145.353 30.0778 145.747 30.7932H148.317C147.921 30.7932 146.429 26.1317 145.919 24.9233C145.41 23.7149 143.978 23.5399 143.978 23.5399C145.015 23.1631 145.978 22.7411 146.58 21.959C147.182 21.1768 147.339 20.4816 147.339 19.3156C147.339 18.4838 147.174 17.6942 146.844 17.1326C146.515 16.5717 146.054 16.0995 145.501 15.7569C144.959 15.4036 144.35 15.1675 143.711 15.0637C142.939 14.9544 142.159 14.9045 141.378 14.9145H135.486V30.7932H137.64V23.9656H140.956C143.843 23.9655 143.918 25.9806 144.541 27.661ZM137.64 16.7273H141.487C142.089 16.7273 145.087 16.5589 145.087 19.4855C145.087 22.4121 141.864 22.3776 141.248 22.3776H137.64V16.7273ZM133.937 19.3595C133.937 14.7587 128.964 14.9145 127.781 14.9145H121.998V30.7932H124.151V24.017H127.694C129.55 24.0171 133.937 23.9603 133.937 19.3595H133.937ZM127.748 22.3776H124.14V16.7273H127.987C128.589 16.7273 131.587 16.5589 131.587 19.4855C131.587 22.4121 128.364 22.3776 127.748 22.3776H127.748ZM119.79 26.7941C120.401 25.5772 120.708 24.231 120.688 22.8698C120.688 21.3201 120.401 19.9853 119.829 18.8654C119.275 17.7673 118.437 16.8376 117.403 16.1728C116.719 15.7502 115.971 15.4388 115.189 15.2505C114.323 15.0264 113.128 14.9144 111.605 14.9145H106.889V30.7932H111.649C112.733 30.8124 113.817 30.7267 114.885 30.5373C115.77 30.3503 116.616 30.0072 117.381 29.5242C118.412 28.8441 119.244 27.9018 119.79 26.7941H119.79ZM116.196 27.9245C115.601 28.3297 114.932 28.6125 114.227 28.7564C113.399 28.9158 112.557 28.9908 111.714 28.9803H109.043V16.7273H111.714C112.532 16.7124 113.349 16.7875 114.151 16.9512C114.798 17.0986 115.419 17.3469 115.989 17.6872C116.791 18.16 117.432 18.8644 117.827 19.7079C118.241 20.5718 118.447 21.6151 118.447 22.8378C118.447 24.0749 118.259 25.1075 117.881 25.9358C117.52 26.7456 116.935 27.4355 116.196 27.9245H116.196ZM75.7694 31.1238C82.5789 31.1238 82.1469 25.9234 82.1469 24.8213V14.9145H79.9931V24.8746C79.9931 25.5856 80.0054 29.15 75.7694 29.15C71.5335 29.15 71.5567 25.5535 71.5567 24.8213V14.9145H69.403V24.8213C69.403 25.9517 68.9599 31.1238 75.7694 31.1238H75.7694ZM76.4442 35.9147C76.0112 35.3728 75.4594 34.9377 74.8315 34.6428C74.1216 34.3226 73.3489 34.1657 72.5703 34.1836C71.7917 34.1657 71.0189 34.3226 70.3089 34.6428C69.6811 34.9376 69.1294 35.3728 68.6964 35.9147C68.2475 36.4889 67.9168 37.1464 67.7235 37.8491C67.5015 38.6394 67.3922 39.4571 67.3991 40.278C67.3922 41.0988 67.5014 41.9165 67.7235 42.7068C67.9168 43.4096 68.2475 44.0671 68.6964 44.6413C69.1292 45.1834 69.6809 45.6186 70.3089 45.9132C71.0189 46.2335 71.7917 46.3905 72.5703 46.3724C73.3489 46.3905 74.1216 46.2335 74.8315 45.9132C75.4595 45.6185 76.0113 45.1833 76.4442 44.6413C76.8932 44.0671 77.2238 43.4096 77.4171 42.7068C77.6392 41.9165 77.7484 41.0988 77.7415 40.278C77.7484 39.4571 77.6391 38.6394 77.4171 37.8491C77.2238 37.1464 76.8931 36.4889 76.4442 35.9147H76.4442ZM76.6335 42.4332C76.4802 43.0484 76.2078 43.6276 75.8316 44.1379C75.4759 44.6109 75.0127 44.9924 74.4803 45.2507C73.8825 45.5279 73.229 45.6639 72.5703 45.6481C71.9116 45.6639 71.2581 45.528 70.6603 45.2507C70.1279 44.9924 69.6647 44.6109 69.309 44.1379C68.9327 43.6277 68.6602 43.0484 68.5071 42.4332C68.3274 41.729 68.2396 41.0046 68.2459 40.278C68.2392 39.5542 68.3271 38.8327 68.5071 38.1317C68.6615 37.5196 68.9339 36.9436 69.309 36.4359C69.666 35.9618 70.1287 35.5777 70.6603 35.3141C71.2564 35.0311 71.9106 34.8919 72.5703 34.9078C73.23 34.892 73.8842 35.0311 74.4803 35.3141C75.0119 35.5777 75.4746 35.9618 75.8316 36.4359C76.2066 36.9436 76.479 37.5196 76.6335 38.1317C76.8133 38.8327 76.9011 39.5542 76.8946 40.278C76.9007 41.0046 76.8129 41.729 76.6335 42.4332H76.6335ZM97.1279 34.3249H92.7482V46.2311H93.595V40.8285H97.0018C97.5902 40.8285 101.002 40.8637 101.002 37.5502C101.002 34.2367 97.7405 34.3249 97.1279 34.3249H97.1279ZM97.0018 40.0865H93.595V35.0669H97.128C98.125 35.0669 100.155 35.2843 100.155 37.5502C100.155 39.8162 97.9866 40.0865 97.0018 40.0865H97.0018ZM104.254 34.3249H103.407V46.2311H110.633V45.4715H104.253L104.254 34.3249ZM89.7912 34.3254H89.7911L85.0423 44.9914L80.2936 34.3254H80.2933V34.3249H79.4465V46.231H80.2933V36.4068L84.6678 46.232L85.0423 46.0653L85.4169 46.232L89.7912 36.407V46.2311H90.638V34.3249H89.7912V34.3254ZM136.309 44.7836L128.711 34.3256V34.3249H127.864V46.2311H128.711V35.7662L136.309 46.2243L136.309 46.224H137.156V34.3178H136.309V44.7836ZM112.794 46.2311H113.641V34.3249H112.794V46.2311ZM120.596 34.325L115.983 46.2311H116.848L118.163 42.7158H123.839L125.154 46.2311H126.019L121.407 34.325H120.596ZM123.551 42.0092H118.452L120.091 37.7519L120.974 35.2081H121.01L121.875 37.7165L123.551 42.0092ZM138.604 35.0845L142.938 35.0669V46.2311H143.785V35.0669L148.119 35.0844V34.3249H138.604V35.0845ZM65.4572 44.2084C65.049 44.6619 64.5398 45.0129 63.9708 45.2331C63.8627 45.2756 63.7517 45.3129 63.639 45.3476C63.5885 45.3623 63.5397 45.3778 63.4879 45.392C63.3795 45.4217 63.267 45.4475 63.1514 45.4701C63.144 45.4715 63.1366 45.4731 63.1291 45.4745C62.7393 45.5459 62.3436 45.5804 61.9473 45.5776C61.2797 45.5871 60.6164 45.4702 59.9922 45.2331C59.4232 45.0129 58.914 44.6619 58.5058 44.2084C58.0789 43.723 57.7568 43.1547 57.5599 42.5391C57.3267 41.8085 57.214 41.0448 57.2264 40.278C57.2264 38.5352 57.6499 37.2103 58.4968 36.3035C59.3297 35.4115 60.4913 34.9585 61.9815 34.9445C63.4712 34.9592 64.6328 35.4121 65.4662 36.3035C65.4826 36.3211 65.4978 36.3399 65.514 36.3578L66.0777 35.7941C65.7094 35.3949 65.2735 35.064 64.7899 34.8167L64.7942 34.802C64.591 34.7041 64.3822 34.6185 64.1688 34.5455C64.0948 34.5188 64.0196 34.4936 63.9433 34.4699L63.9196 34.4625C63.8544 34.4425 63.7885 34.4233 63.7216 34.4054C63.6793 34.3934 63.6393 34.3808 63.5958 34.3692C63.0926 34.2404 62.5747 34.178 62.0553 34.1836C62.0303 34.1836 62.0063 34.1849 61.9815 34.1851C61.9566 34.1849 61.9326 34.1836 61.9076 34.1836V34.1865C61.12 34.1861 60.3392 34.3319 59.6049 34.6164C58.925 34.8848 58.3173 35.3082 57.83 35.8529C57.3414 36.4138 56.9733 37.0693 56.7489 37.7785C56.4936 38.5867 56.3689 39.4305 56.3796 40.278C56.369 41.12 56.4813 41.9591 56.7129 42.7687C56.9138 43.4712 57.2641 44.122 57.7399 44.6765C58.2156 45.216 58.8111 45.6366 59.4787 45.9043C60.2652 46.2093 61.104 46.3564 61.9473 46.3371C61.9706 46.3371 61.9926 46.3365 62.0157 46.3363V46.3371C62.0486 46.3371 62.0801 46.3356 62.1128 46.3352C62.153 46.3346 62.1932 46.334 62.2325 46.3329C63.003 46.33 63.7664 46.1847 64.4842 45.9043C65.1078 45.6529 65.6691 45.2685 66.129 44.778L65.5027 44.1517C65.4869 44.1698 65.4732 44.1905 65.4571 44.2083L65.4572 44.2084Z" fill="#454543"/>
</g>
<defs>
<clipPath id="clip0_182_4751">
<rect width="148.135" height="58" fill="white" transform="translate(0.182617 0.5)"/>
</clipPath>
</defs>
</svg>
