<svg width="48" height="48" viewBox="0 0 48 48" fill="none" xmlns="http://www.w3.org/2000/svg">
<g clip-path="url(#clip0_4_4142)">
<circle cx="24" cy="24" r="24" fill="#FF492C"/>
<path d="M34.7336 20.2474H28.5402V19.9725C28.5402 18.9644 28.7511 18.1305 29.173 17.4798C29.5948 16.82 30.3235 16.2427 31.3781 15.7295L31.8574 15.5004C32.7107 15.088 32.9312 14.7306 32.9312 14.3091C32.9312 13.805 32.471 13.4385 31.7328 13.4385C30.8508 13.4385 30.1892 13.8783 29.7291 14.7673L28.5402 13.6309C28.7991 13.0994 29.2209 12.6779 29.777 12.3388C30.3426 11.9997 30.9658 11.8348 31.6465 11.8348C32.4998 11.8348 33.238 12.0455 33.842 12.4854C34.4652 12.9253 34.772 13.5301 34.772 14.2907C34.772 15.5096 34.0529 16.2518 32.7107 16.9117L31.9533 17.2782C31.148 17.6631 30.7549 18.0114 30.6398 18.6253H34.7336V20.2474ZM34.1871 22.1169H27.4089L24.0246 27.7253H30.8028L34.1967 33.3337L37.5811 27.7253L34.1871 22.1169ZM24.6094 31.4734C20.2951 31.4734 16.7862 28.1193 16.7862 23.9955C16.7862 19.8717 20.2951 16.5176 24.6094 16.5176L27.2939 11.1566C26.4214 10.9917 25.5298 10.9092 24.6094 10.9092C17.0451 10.9092 10.9092 16.7742 10.9092 23.9955C10.9092 31.226 17.0355 37.091 24.6094 37.091C27.6198 37.091 30.4097 36.1563 32.6724 34.58L29.7003 29.6681C28.3389 30.7861 26.5557 31.4734 24.6094 31.4734Z" fill="white"/>
</g>
<defs>
<clipPath id="clip0_4_4142">
<rect width="48" height="48" fill="white"/>
</clipPath>
</defs>
</svg>
