<svg width="131" height="30" viewBox="0 0 131 30" fill="none" xmlns="http://www.w3.org/2000/svg">
<g clip-path="url(#clip0_4_2765)">
<path d="M129.523 9.92127L129.149 14.4082H127.317C124.392 14.4082 122.871 16.7534 122.871 19.0009V29.1348H117.686V9.92127H122.597L122.709 12.3194C123.739 10.6749 125.542 9.92127 127.766 9.92127H129.523ZM93.5744 29.1347H88.3844V18.9775C88.3844 16.8503 88.2007 14.1731 85.2088 14.1731C82.3275 14.1731 81.1796 16.2525 81.1796 18.6739V29.1347H75.9913V9.92109H80.8016L80.9115 12.3774C81.9425 10.7329 83.8627 9.4524 86.6952 9.4524C91.9241 9.4524 93.5744 13.1857 93.5744 17.0707V29.1347ZM73.7284 24.6464L73.3655 29.0182C72.1211 29.352 71.0162 29.4718 69.6794 29.4718C64.7895 29.4718 63.3712 27.2295 63.3712 22.7228V4.50303H68.5605V9.9215H73.7243L73.3655 14.4078H68.5605V22.3326C68.5605 24.1411 69.0565 25.118 70.9115 25.118C71.7181 25.118 72.6154 25.0209 73.7284 24.6464ZM61.6672 9.92127L61.2654 14.4082H59.8552C56.9355 14.4082 55.4835 16.7505 55.4835 19.0009V29.1348H50.2935V9.92127H55.2073L55.3096 12.3194C56.3458 10.6749 58.1491 9.92127 60.3757 9.92127H61.6672ZM26.8749 27.0061C23.355 28.889 19.8392 29.9752 15.1953 29.8403C6.58607 29.5775 0.375 24.2317 0.375 15.202C0.375 6.21194 6.64598 0.467831 15.1994 0.33292C19.5351 0.266628 23.4149 1.36684 26.4474 4.04294L22.7944 7.7384C20.9179 6.13868 18.1569 5.20362 14.8574 5.35307C9.47442 5.6037 6.23077 9.51548 6.15924 14.8938C6.08888 20.7211 9.66224 24.737 15.2482 24.8836C17.8766 24.9493 19.7595 24.5963 21.3889 23.8647V17.9084H15.5832L15.9751 13.0231H26.8749V27.0061ZM115.368 21.3539H101.14C101.546 23.8091 103.476 25.2861 105.879 25.3529C108.216 25.4163 109.523 24.7104 111.232 22.9798L114.618 25.5617C112.212 28.5256 109.324 29.6043 106.034 29.6043C100.248 29.6043 95.9138 25.5588 95.9138 19.5274C95.9138 13.5024 100.227 9.45222 105.818 9.45222C111.98 9.45222 115.368 13.1855 115.368 19.8124V21.3539ZM110.169 17.3369C110.01 14.9097 108.192 13.3751 105.687 13.4728C103.166 13.5681 101.488 15.2097 101.14 17.3369H110.169ZM47.0265 16.5531V29.1346H42.4512L42.3378 27.2401C40.9341 28.9788 38.6551 29.6045 36.3087 29.6045C32.7755 29.6045 29.4371 27.8623 29.3673 23.8045C29.2621 17.4265 36.5454 16.9735 41.1196 16.9735H42.0337V16.7212C42.0337 14.6121 40.6381 13.4729 38.0102 13.4729C36.1238 13.4729 34.2618 14.2294 32.8848 15.5204L29.8907 12.4785C32.6092 10.2746 35.4377 9.45234 38.451 9.45234C44.4028 9.45234 47.0265 12.2029 47.0265 16.5531ZM42.0337 20.7557H41.312C38.8552 20.7609 34.5398 20.8819 34.5561 23.451C34.5794 27.0703 42.0337 25.92 42.0337 21.5552V20.7557ZM125.475 26.8996C125.475 25.6767 126.398 24.755 127.581 24.755C128.75 24.755 129.675 25.6767 129.675 26.8996C129.675 28.1441 128.75 29.0629 127.581 29.0629C126.398 29.0629 125.475 28.1441 125.475 26.8996ZM127.581 29.4926C128.99 29.4926 130.192 28.3982 130.192 26.8996C130.192 25.4162 128.99 24.3241 127.581 24.3241C126.16 24.3241 124.957 25.4162 124.957 26.8996C124.957 28.3982 126.16 29.4926 127.581 29.4926ZM127.034 27.1067H127.555L128.339 28.3982H128.846L127.999 27.0857C128.437 27.0322 128.771 26.7973 128.771 26.264C128.771 25.6767 128.423 25.4162 127.718 25.4162H126.584V28.3982H127.034V27.1067ZM127.034 26.7223V25.8006H127.649C127.964 25.8006 128.299 25.8686 128.299 26.2379C128.299 26.6955 127.957 26.7223 127.576 26.7223H127.034Z" fill="#182954"/>
</g>
<defs>
<clipPath id="clip0_4_2765">
<rect width="130.435" height="30" fill="white"/>
</clipPath>
</defs>
</svg>
