<svg width="200" height="34" viewBox="0 0 200 34" fill="none" xmlns="http://www.w3.org/2000/svg">
<g clip-path="url(#clip0_4_4145)">
<path d="M16.0669 0.443359C16.2002 0.510026 16.3336 0.576697 16.4336 0.676697L22.2002 6.44336C22.4336 6.67669 22.5669 6.9767 22.5669 7.31003V33.91C22.5669 34.1434 22.4002 34.31 22.1669 34.31C22.0669 34.31 21.9669 34.2767 21.9002 34.21L16.4669 28.7767C16.2336 28.5434 16.1002 28.2434 16.1002 27.91V0.443359H16.0669Z" fill="url(#paint0_linear_4_4145)"/>
<path d="M31.9335 0.710032C32.0335 0.610032 32.1668 0.510026 32.3002 0.443359V27.91C32.3002 28.2434 32.1668 28.5434 31.9335 28.7767L26.5002 34.21C26.3335 34.3767 26.1002 34.3767 25.9335 34.21C25.8668 34.1434 25.8335 34.0434 25.8335 33.9434V7.34336C25.8335 7.04336 25.9668 6.71003 26.2002 6.51003L31.9335 0.710032Z" fill="url(#paint1_linear_4_4145)"/>
<path d="M42.3999 21.844L41.9999 21.444V15.7773H36.4999C36.3999 15.7773 36.2999 15.8107 36.1999 15.9107L32.2666 19.844L44.8666 32.4773C45.0999 32.7107 45.3999 32.8107 45.7333 32.8107H52.3666C52.5999 32.8107 52.7666 32.644 52.7666 32.4107C52.7666 32.3107 52.7333 32.2107 52.6666 32.144L42.3999 21.844Z" fill="url(#paint2_linear_4_4145)"/>
<path d="M32.7666 0.34375C32.4332 0.34375 32.1332 0.477085 31.8999 0.710419L26.1332 6.47708C26.0332 6.57708 25.9666 6.71041 25.8999 6.81041H41.9999V21.4104L42.3999 21.8104L48.1332 16.1104C48.3666 15.8771 48.4999 15.5771 48.4999 15.2438V7.34375C48.4999 7.01042 48.3666 6.71041 48.1332 6.47708L42.3666 0.710419C42.1332 0.477085 41.8332 0.34375 41.4999 0.34375H32.7666Z" fill="url(#paint3_linear_4_4145)"/>
<path d="M16.4 0.710419C16.1667 0.477085 15.8667 0.34375 15.5333 0.34375H0.4C0.166667 0.34375 0 0.510421 0 0.743754C0 0.843754 0.0333332 0.943752 0.133333 1.04375L5.56667 6.47708C5.8 6.71041 6.1 6.84375 6.43333 6.84375H21.7667C22.2 6.84375 22.5667 7.21041 22.5667 7.64375V7.34375C22.5667 7.01042 22.4333 6.71041 22.2 6.47708L16.4 0.710419Z" fill="url(#paint4_linear_4_4145)"/>
<path d="M31.9002 0.710419C32.1335 0.477085 32.4335 0.34375 32.7668 0.34375H41.5002C41.8335 0.34375 42.1335 0.477085 42.3668 0.710419L48.1335 6.47708C48.3668 6.71041 48.5002 7.01042 48.5002 7.34375V7.64375C48.5002 7.21041 48.1335 6.84375 47.7002 6.84375H26.6335C26.2002 6.84375 25.8335 7.21041 25.8335 7.64375V7.34375C25.8335 7.01042 25.9668 6.71041 26.2002 6.47708L31.9002 0.710419Z" fill="url(#paint5_linear_4_4145)"/>
<path d="M48.5 14.9434C48.5 15.3767 48.1333 15.7434 47.7 15.7434H36.8333C36.7333 15.7434 36.6333 15.8434 36.6333 15.9434C36.6333 16.01 36.6666 16.0434 36.7 16.0767L42.4333 21.81L48.1666 16.11C48.4 15.8767 48.5333 15.5767 48.5333 15.2434V14.9434H48.5Z" fill="url(#paint6_linear_4_4145)"/>
<path d="M200 22.077C200 19.3437 198.434 18.3104 194.6 17.3437C192.3 16.777 191.7 16.3104 191.7 15.5104C191.7 14.7104 192.434 14.177 193.934 14.177C195.6 14.2437 197.2 14.677 198.667 15.477L199.134 12.5437C197.5 11.8437 195.734 11.5104 193.934 11.5104C190.467 11.5104 188.434 13.277 188.434 15.7437C188.434 18.4104 189.934 19.4104 193.534 20.3104C196.034 20.9104 196.734 21.3104 196.734 22.377C196.734 23.3437 195.767 23.9437 194.067 23.9437C192.134 23.877 190.234 23.3104 188.567 22.2437L188.1 25.2104C189.9 26.1104 191.9 26.577 193.9 26.6104C197.9 26.6104 200 24.9104 200 22.077ZM186.367 26.3104V11.7104H182.834V21.6104C181.667 22.7437 180.434 23.477 179.2 23.477C177.767 23.477 177.167 22.6104 177.167 21.3104V11.677H173.634V22.2104C173.634 24.9104 175.134 26.5437 178 26.5437C180 26.5437 181.634 25.5104 183.067 24.2104L183.567 26.2437L186.367 26.3104ZM171.5 26.3104V11.7104H168V26.3104H171.5ZM169.767 5.31035C170.9 5.31035 171.8 6.21036 171.8 7.34369C171.8 8.47702 170.9 9.37702 169.767 9.37702C168.634 9.37702 167.734 8.47702 167.734 7.34369C167.734 6.21036 168.634 5.31035 169.767 5.31035ZM162.4 21.4437C161.367 22.7104 160.234 23.5104 158.8 23.5104C157.034 23.5104 155.734 22.1437 155.734 19.277C155.734 16.077 157.267 14.5104 159.334 14.5104C160.4 14.477 161.467 14.7104 162.4 15.1437V21.4437ZM165.9 26.3104V4.61035L162.4 5.21036V12.2437C161.267 11.877 160.067 11.677 158.834 11.677C155.3 11.677 152.167 14.077 152.167 19.477C152.167 24.3437 154.734 26.6104 157.934 26.6104C160.067 26.6104 161.534 25.5437 162.634 24.3104L162.934 26.3104H165.9ZM147.2 22.3104C146.2 23.3104 144.867 23.877 143.467 23.9437C142.267 23.9437 141.5 23.277 141.5 22.2437C141.5 20.8437 142.6 19.6104 147.234 19.077V22.3104H147.2ZM150.7 26.3104V16.377C150.7 12.9437 148.834 11.5437 144.967 11.5437C142.934 11.5437 140.9 11.9437 139.034 12.7104L139.467 15.5104C141.067 14.8104 142.8 14.4104 144.567 14.3437C146.234 14.3437 147.234 14.9437 147.234 16.5104V16.977C141.034 17.577 138.034 19.077 138.034 22.577C138.034 25.077 139.767 26.577 142.367 26.577C144.3 26.577 146.134 25.777 147.467 24.4104L147.8 26.277H150.7V26.3104ZM137.434 25.777L131.834 18.1437C134.367 17.3437 136.034 15.577 136.034 12.7104C136.034 8.97702 133.334 6.84369 128.867 6.84369H122.7V26.3104H126.334V18.777H128.1L133.567 26.477L137.434 25.777ZM132.4 12.9104C132.4 14.9437 130.867 16.0437 128.4 16.0437H126.334V9.84369H128.6C131.1 9.87702 132.4 10.977 132.4 12.9104ZM120.867 26.3104L120.434 23.4104C120.034 23.477 119.6 23.5104 119.167 23.5104C117.734 23.5104 117.167 22.877 117.167 21.677V14.5437H120.867L120.267 11.7104H117.167V6.64369L113.7 7.24369V11.7104H111.334V14.5437H113.7V22.2437C113.7 25.5104 115.634 26.5104 118.534 26.5104C119.334 26.5437 120.1 26.477 120.867 26.3104ZM110.6 22.077C110.6 19.3437 109.034 18.3104 105.2 17.3437C102.9 16.777 102.3 16.3104 102.3 15.5104C102.3 14.7104 103.034 14.177 104.534 14.177C106.2 14.2437 107.8 14.677 109.267 15.477L109.767 12.5437C108.134 11.8437 106.367 11.5104 104.567 11.5104C101.1 11.5104 99.0669 13.277 99.0669 15.7437C99.0669 18.4104 100.567 19.4104 104.167 20.3104C106.667 20.9104 107.367 21.3104 107.367 22.377C107.367 23.3437 106.4 23.9437 104.7 23.9437C102.767 23.877 100.9 23.3104 99.2669 22.2437L98.7669 25.2104C100.567 26.1104 102.567 26.577 104.6 26.6104C108.5 26.6104 110.6 24.9104 110.6 22.077ZM97.1669 26.3104V11.7104H93.6336V21.6104C92.4669 22.7437 91.2336 23.477 90.0002 23.477C88.5669 23.477 87.9669 22.6104 87.9669 21.3104V11.677H84.4336V22.2104C84.4336 24.9104 85.9336 26.5437 88.8002 26.5437C90.8002 26.5437 92.4336 25.5104 93.8669 24.2104L94.3669 26.2437L97.1669 26.3104ZM82.7669 14.9437L81.9669 11.5104C79.7336 11.9104 78.4002 13.077 77.3669 14.7437L76.7002 11.7104H74.0669V26.3104H77.5002V17.977C78.6669 16.2104 80.6336 15.077 82.7669 14.9437Z" fill="url(#paint7_linear_4_4145)"/>
<path d="M76.2667 10.0771L75.4667 6.84375H58.2334V10.0771H64.7334V26.3104H68.3667V10.0771H76.2667Z" fill="url(#paint8_linear_4_4145)"/>
</g>
<defs>
<linearGradient id="paint0_linear_4_4145" x1="19.3008" y1="34.4246" x2="19.3008" y2="0.359759" gradientUnits="userSpaceOnUse">
<stop offset="0.71" stop-color="#116BF2"/>
<stop offset="1" stop-color="#1E50E5"/>
</linearGradient>
<linearGradient id="paint1_linear_4_4145" x1="29.0329" y1="34.4311" x2="29.0329" y2="0.36906" gradientUnits="userSpaceOnUse">
<stop offset="0.71" stop-color="#116BF2"/>
<stop offset="1" stop-color="#1E50E5"/>
</linearGradient>
<linearGradient id="paint2_linear_4_4145" x1="35.8291" y1="16.4688" x2="51.6449" y2="32.2846" gradientUnits="userSpaceOnUse">
<stop offset="0.41" stop-color="#116BF2"/>
<stop offset="1" stop-color="#185DEC"/>
</linearGradient>
<linearGradient id="paint3_linear_4_4145" x1="37.196" y1="21.728" x2="37.196" y2="0.121149" gradientUnits="userSpaceOnUse">
<stop offset="0.58" stop-color="#116BF2"/>
<stop offset="1" stop-color="#1E50E5"/>
</linearGradient>
<linearGradient id="paint4_linear_4_4145" x1="15.4387" y1="-0.0542161" x2="8.9502" y2="6.43432" gradientUnits="userSpaceOnUse">
<stop offset="0.03" stop-color="#59C5FF"/>
<stop offset="0.99" stop-color="#21B1FF"/>
</linearGradient>
<linearGradient id="paint5_linear_4_4145" x1="31.2866" y1="1.38368" x2="37.7752" y2="7.87222" gradientUnits="userSpaceOnUse">
<stop offset="0.04" stop-color="#59C5FF"/>
<stop offset="0.99" stop-color="#21B1FF"/>
</linearGradient>
<linearGradient id="paint6_linear_4_4145" x1="45.7458" y1="18.6812" x2="40.8794" y2="13.8148" gradientUnits="userSpaceOnUse">
<stop offset="0.04" stop-color="#57C4FF"/>
<stop offset="0.99" stop-color="#21B1FF"/>
</linearGradient>
<linearGradient id="paint7_linear_4_4145" x1="74.0467" y1="15.6025" x2="199.999" y2="15.6025" gradientUnits="userSpaceOnUse">
<stop offset="0.71" stop-color="#116BF2"/>
<stop offset="1" stop-color="#1E50E5"/>
</linearGradient>
<linearGradient id="paint8_linear_4_4145" x1="58.231" y1="16.5656" x2="76.2729" y2="16.5656" gradientUnits="userSpaceOnUse">
<stop offset="0.71" stop-color="#116BF2"/>
<stop offset="1" stop-color="#1E50E5"/>
</linearGradient>
<clipPath id="clip0_4_4145">
<rect width="200" height="34" fill="white"/>
</clipPath>
</defs>
</svg>
