<svg width="33" height="33" viewBox="0 0 33 33" fill="none" xmlns="http://www.w3.org/2000/svg">
<circle cx="16.5" cy="16.5" r="16.5" fill="#1C0D3F"/>
<path d="M10.4228 11.8039C10.7465 9.27171 12.904 7.3125 15.5257 7.3125C17.5363 7.3125 19.2729 8.46552 20.1213 10.1428C20.454 10.0111 20.8168 9.9375 21.1974 9.9375C22.8255 9.9375 24.1449 11.2574 24.1449 12.8849C24.1449 13.0185 24.1359 13.1499 24.1185 13.2786C25.7759 13.7128 27 15.217 27 17.0119C27 19.1448 25.2703 20.875 23.1369 20.875H21.7504L21.75 20H23.1365C24.7866 20 26.125 18.6616 26.125 17.0119C26.125 15.4991 24.9992 14.251 23.5388 14.0544L23.0278 13.9856L23.1788 13.4926C23.2378 13.3003 23.2699 13.0967 23.2699 12.8849C23.2699 11.7405 22.3422 10.8125 21.1974 10.8125C20.8089 10.8125 20.4462 10.9217 20.1335 11.1096L19.691 11.3755L19.5012 10.8954C18.8744 9.30912 17.3318 8.1875 15.5257 8.1875C13.2291 8.1875 11.3597 10.0001 11.2601 12.2737L11.2404 12.7218L10.793 12.691L10.7487 12.6879C10.6665 12.6821 10.6021 12.6776 10.536 12.6776C8.514 12.6776 6.875 14.3166 6.875 16.3386C6.875 18.361 8.51403 20 10.536 20H11.2496L11.25 20.875H10.5362C8.03095 20.875 6 18.8442 6 16.3386C6 13.8711 7.96989 11.864 10.4228 11.8039Z" fill="white"/>
<path fill-rule="evenodd" clip-rule="evenodd" d="M13.5571 14.7907C14.3319 14.4894 15.3725 14.3125 16.5 14.3125C17.6275 14.3125 18.6681 14.4894 19.4429 14.7907C19.8289 14.9409 20.1711 15.1304 20.4242 15.3632C20.6778 15.5963 20.875 15.9061 20.875 16.2812V23.7188C20.875 24.0939 20.6778 24.4037 20.4242 24.6368C20.1711 24.8696 19.8289 25.0591 19.4429 25.2093C18.6681 25.5106 17.6275 25.6875 16.5 25.6875C15.3725 25.6875 14.3319 25.5106 13.5571 25.2093C13.1711 25.0591 12.8289 24.8696 12.5758 24.6368C12.3222 24.4037 12.125 24.0939 12.125 23.7188V16.2812C12.125 15.9061 12.3222 15.5963 12.5758 15.3632C12.8289 15.1304 13.1711 14.9409 13.5571 14.7907ZM13 17.5069V23.7188C13 23.7664 13.0231 23.8595 13.168 23.9927C13.3133 24.1263 13.5477 24.2668 13.8743 24.3938C14.5246 24.6467 15.4527 24.8125 16.5 24.8125C17.5473 24.8125 18.4754 24.6467 19.1257 24.3938C19.4523 24.2668 19.6867 24.1263 19.832 23.9927C19.9769 23.8595 20 23.7664 20 23.7188V17.5069C19.8302 17.6061 19.6424 17.6942 19.4429 17.7718C18.6681 18.0731 17.6275 18.25 16.5 18.25C15.3725 18.25 14.3319 18.0731 13.5571 17.7718C13.3576 17.6942 13.1698 17.6061 13 17.5069ZM20 16.2812C20 16.3289 19.9769 16.422 19.832 16.5552C19.6867 16.6888 19.4523 16.8293 19.1257 16.9563C18.4754 17.2092 17.5473 17.375 16.5 17.375C15.4527 17.375 14.5246 17.2092 13.8743 16.9563C13.5477 16.8293 13.3133 16.6888 13.168 16.5552C13.0231 16.422 13 16.3289 13 16.2812C13 16.2336 13.0231 16.1405 13.168 16.0073C13.3133 15.8737 13.5477 15.7332 13.8743 15.6062C14.5246 15.3533 15.4527 15.1875 16.5 15.1875C17.5473 15.1875 18.4754 15.3533 19.1257 15.6062C19.4523 15.7332 19.6867 15.8737 19.832 16.0073C19.9769 16.1405 20 16.2336 20 16.2812Z" fill="white"/>
</svg>
