<svg width="33" height="33" viewBox="0 0 33 33" fill="none" xmlns="http://www.w3.org/2000/svg">
<circle cx="16.5" cy="16.5" r="16.5" fill="#1C0D3F"/>
<g clip-path="url(#clip0_329_134)">
<path fill-rule="evenodd" clip-rule="evenodd" d="M17 8.125C15.5505 8.125 14.375 9.30052 14.375 10.75V11.5C14.375 12.9499 15.5506 14.125 17 14.125C18.4494 14.125 19.625 12.9499 19.625 11.5V10.75C19.625 9.30052 18.4495 8.125 17 8.125ZM15.125 10.75C15.125 9.71473 15.9647 8.875 17 8.875C18.0353 8.875 18.875 9.71473 18.875 10.75V11.5C18.875 12.5356 18.0353 13.375 17 13.375C15.9647 13.375 15.125 12.5356 15.125 11.5V10.75Z" fill="white"/>
<path fill-rule="evenodd" clip-rule="evenodd" d="M17.0004 14.875C15.6088 14.875 14.3305 15.1549 13.3863 15.6251C12.4648 16.0839 11.7508 16.7876 11.7508 17.6774L11.75 23.875H22.2493L22.25 17.6774C22.25 16.7875 21.5359 16.0839 20.6144 15.6251C19.6701 15.1549 18.3918 14.875 17.0004 14.875ZM12.5008 17.6774C12.5008 17.2262 12.8778 16.7161 13.7206 16.2965C14.5405 15.8882 15.6995 15.625 17.0004 15.625C18.3011 15.625 19.4602 15.8882 20.2801 16.2965C21.1229 16.7161 21.5 17.2262 21.5 17.6774L21.4993 23.125H12.5001L12.5008 17.6774Z" fill="white"/>
<path d="M26 18.4274C26 17.7636 25.5965 17.2016 25.0254 16.7783C24.4508 16.3524 23.6607 16.0284 22.7602 15.8345L22.6023 16.5677C23.4324 16.7464 24.1142 17.0364 24.5788 17.3808C25.0469 17.7278 25.25 18.0927 25.25 18.4274L25.2493 21.2501H23V22.0001H25.9992L26 18.4274Z" fill="white"/>
<path d="M8.97889 16.7756C9.55547 16.3492 10.3482 16.0253 11.2517 15.8321L11.4085 16.5655C10.5757 16.7436 9.89133 17.0337 9.42484 17.3787C8.95477 17.7263 8.75084 18.092 8.75084 18.4274L8.75018 21.2501H11.0001V22.0001H8L8.00084 18.4274C8.00087 17.7624 8.40593 17.1994 8.97889 16.7756Z" fill="white"/>
<path fill-rule="evenodd" clip-rule="evenodd" d="M20.375 11.875C20.375 10.6326 21.3821 9.625 22.625 9.625C23.8679 9.625 24.875 10.6326 24.875 11.875V12.625C24.875 13.8679 23.8679 14.875 22.625 14.875C21.3821 14.875 20.375 13.8679 20.375 12.625V11.875ZM22.625 10.375C21.7964 10.375 21.125 11.0467 21.125 11.875V12.625C21.125 13.4536 21.7964 14.125 22.625 14.125C23.4536 14.125 24.125 13.4536 24.125 12.625V11.875C24.125 11.0467 23.4536 10.375 22.625 10.375Z" fill="white"/>
<path fill-rule="evenodd" clip-rule="evenodd" d="M11.375 9.625C10.1321 9.625 9.125 10.6326 9.125 11.875V12.625C9.125 13.8679 10.1321 14.875 11.375 14.875C12.6179 14.875 13.625 13.8679 13.625 12.625V11.875C13.625 10.6326 12.6179 9.625 11.375 9.625ZM9.875 11.875C9.875 11.0467 10.5464 10.375 11.375 10.375C12.2036 10.375 12.875 11.0467 12.875 11.875V12.625C12.875 13.4536 12.2036 14.125 11.375 14.125C10.5464 14.125 9.875 13.4536 9.875 12.625V11.875Z" fill="white"/>
<path fill-rule="evenodd" clip-rule="evenodd" d="M17 8.125C15.5505 8.125 14.375 9.30052 14.375 10.75V11.5C14.375 12.9499 15.5506 14.125 17 14.125C18.4494 14.125 19.625 12.9499 19.625 11.5V10.75C19.625 9.30052 18.4495 8.125 17 8.125ZM15.125 10.75C15.125 9.71473 15.9647 8.875 17 8.875C18.0353 8.875 18.875 9.71473 18.875 10.75V11.5C18.875 12.5356 18.0353 13.375 17 13.375C15.9647 13.375 15.125 12.5356 15.125 11.5V10.75Z" stroke="white" stroke-width="0.3" stroke-miterlimit="10"/>
<path fill-rule="evenodd" clip-rule="evenodd" d="M17.0004 14.875C15.6088 14.875 14.3305 15.1549 13.3863 15.6251C12.4648 16.0839 11.7508 16.7876 11.7508 17.6774L11.75 23.875H22.2493L22.25 17.6774C22.25 16.7875 21.5359 16.0839 20.6144 15.6251C19.6701 15.1549 18.3918 14.875 17.0004 14.875ZM12.5008 17.6774C12.5008 17.2262 12.8778 16.7161 13.7206 16.2965C14.5405 15.8882 15.6995 15.625 17.0004 15.625C18.3011 15.625 19.4602 15.8882 20.2801 16.2965C21.1229 16.7161 21.5 17.2262 21.5 17.6774L21.4993 23.125H12.5001L12.5008 17.6774Z" stroke="white" stroke-width="0.3" stroke-miterlimit="10"/>
<path d="M26 18.4274C26 17.7636 25.5965 17.2016 25.0254 16.7783C24.4508 16.3524 23.6607 16.0284 22.7602 15.8345L22.6023 16.5677C23.4324 16.7464 24.1142 17.0364 24.5788 17.3808C25.0469 17.7278 25.25 18.0927 25.25 18.4274L25.2493 21.2501H23V22.0001H25.9992L26 18.4274Z" stroke="white" stroke-width="0.3" stroke-miterlimit="10"/>
<path d="M8.97889 16.7756C9.55547 16.3492 10.3482 16.0253 11.2517 15.8321L11.4085 16.5655C10.5757 16.7436 9.89133 17.0337 9.42484 17.3787C8.95477 17.7263 8.75084 18.092 8.75084 18.4274L8.75018 21.2501H11.0001V22.0001H8L8.00084 18.4274C8.00087 17.7624 8.40593 17.1994 8.97889 16.7756Z" stroke="white" stroke-width="0.3" stroke-miterlimit="10"/>
<path fill-rule="evenodd" clip-rule="evenodd" d="M20.375 11.875C20.375 10.6326 21.3821 9.625 22.625 9.625C23.8679 9.625 24.875 10.6326 24.875 11.875V12.625C24.875 13.8679 23.8679 14.875 22.625 14.875C21.3821 14.875 20.375 13.8679 20.375 12.625V11.875ZM22.625 10.375C21.7964 10.375 21.125 11.0467 21.125 11.875V12.625C21.125 13.4536 21.7964 14.125 22.625 14.125C23.4536 14.125 24.125 13.4536 24.125 12.625V11.875C24.125 11.0467 23.4536 10.375 22.625 10.375Z" stroke="white" stroke-width="0.3" stroke-miterlimit="10"/>
<path fill-rule="evenodd" clip-rule="evenodd" d="M11.375 9.625C10.1321 9.625 9.125 10.6326 9.125 11.875V12.625C9.125 13.8679 10.1321 14.875 11.375 14.875C12.6179 14.875 13.625 13.8679 13.625 12.625V11.875C13.625 10.6326 12.6179 9.625 11.375 9.625ZM9.875 11.875C9.875 11.0467 10.5464 10.375 11.375 10.375C12.2036 10.375 12.875 11.0467 12.875 11.875V12.625C12.875 13.4536 12.2036 14.125 11.375 14.125C10.5464 14.125 9.875 13.4536 9.875 12.625V11.875Z" stroke="white" stroke-width="0.3" stroke-miterlimit="10"/>
</g>
<defs>
<clipPath id="clip0_329_134">
<rect width="18" height="18" fill="white" transform="translate(8 7)"/>
</clipPath>
</defs>
</svg>
