<svg width="33" height="33" viewBox="0 0 33 33" fill="none" xmlns="http://www.w3.org/2000/svg">
<circle cx="16.5" cy="16.5" r="16.5" fill="#1C0D3F"/>
<path d="M16.3627 7.50042C16.3403 7.50001 16.3176 7.5 16.2897 7.5V6.5H16.2913C16.317 6.5 16.3466 6.5 16.3774 6.50054C21.4975 6.5496 25.6334 10.8961 25.6334 16.25C25.6334 18.8699 24.643 21.2482 23.0324 23H25.6042V24H21.2917V19.5H22.25V22.405C23.75 20.8232 24.6751 18.6498 24.6751 16.25C24.6751 11.4446 20.9624 7.54352 16.3668 7.50048L16.3627 7.50042Z" fill="white"/>
<path d="M10.0418 9H7.39584V8H11.7083V12.5H10.75V9.68084C9.00446 11.2847 7.90426 13.633 7.90426 16.25C7.90426 21.0828 11.6582 25 16.2897 25C16.3777 25 16.4657 24.9985 16.5537 24.9957L16.5834 25.9952C16.4855 25.9984 16.3876 26 16.2897 26C11.1289 26 6.94592 21.6351 6.94592 16.25C6.94592 13.371 8.14161 10.784 10.0418 9Z" fill="white"/>
<path d="M20.0699 24.0728L19.1892 24.4678L19.5677 25.3865L20.4484 24.9915L20.0699 24.0728Z" fill="white"/>
<path d="M17.4392 24.9296L18.3807 24.7446L18.5581 25.7274L17.6165 25.9124L17.4392 24.9296Z" fill="white"/>
<path d="M13.3727 6.99146L12.4781 7.35096L12.8225 8.28415L13.7171 7.92465L13.3727 6.99146Z" fill="white"/>
<path d="M14.3973 6.69761L15.3447 6.54761L15.4884 7.53629L14.5411 7.68629L14.3973 6.69761Z" fill="white"/>
</svg>
