<svg width="85" height="85" viewBox="0 0 85 85" fill="none" xmlns="http://www.w3.org/2000/svg">
<rect x="0.589111" y="0.589111" width="83.8218" height="83.8218" rx="41.9109" fill="#ED26B7"/>
<path d="M66.3805 49.3914C66.2229 42.6624 62.5092 37.3211 56.8398 35.2334V23.5218C55.4082 22.6064 53.8847 21.8496 52.2944 21.2678V46.4638C52.2944 51.4551 49.9795 53.6839 46.2594 53.6839C42.6377 53.6839 39.6082 50.9477 39.6082 46.3719C39.6082 41.2647 43.5877 38.1457 48.7986 38.1457C49.2812 38.137 49.7727 38.1621 50.2553 38.2376V33.7789C49.7727 33.6958 49.29 33.6542 48.7986 33.6629C41.0649 33.6629 35.0047 38.4049 35.0047 46.3818C35.0047 54.0514 40.4739 58.1437 46.568 58.1437C49.4564 58.1437 51.954 57.1616 53.6778 55.4731C55.4005 53.7845 56.8584 51.3468 56.8584 47.0631V40.0836C60.0051 41.6562 61.9029 45.4653 61.9117 49.8245C61.8952 58.0343 54.2776 64.9723 45.3455 64.9723C45.1375 64.9723 44.9788 64.9723 44.7709 64.9635C38.6439 64.9559 33.2579 62.7424 28.8953 58.3755C25.7563 55.2314 23.6089 51.2298 22.7432 46.8794C21.8774 42.5202 22.3185 38.0123 24.0248 33.9025C25.7235 29.8014 28.6031 26.2908 32.2992 23.8203C35.9952 21.3499 40.3415 20.0353 44.7862 20.0353V15.4607C41.2313 15.4607 37.7103 16.1595 34.4301 17.5156C31.1499 18.8717 28.162 20.8676 25.6479 23.372C20.5695 28.4376 17.714 35.3165 17.714 42.4874C17.714 49.6572 20.5608 56.5372 25.6304 61.6116C30.7001 66.686 37.5844 69.5393 44.761 69.5393H45.3356C47.5421 69.5393 49.7398 69.1981 51.8544 68.5408C51.8632 68.5408 51.8708 68.532 51.8796 68.532C54.9343 67.5839 57.7318 65.9697 60.0795 63.8076C64.1335 60.0641 66.3651 55.1155 66.3816 49.8497C66.3892 49.8322 66.3805 49.4002 66.3805 49.3914Z" fill="white"/>
</svg>
