<svg width="95" height="95" viewBox="0 0 95 95" fill="none" xmlns="http://www.w3.org/2000/svg">
<rect x="1" y="1" width="93" height="93" rx="12" fill="#F2F4F6" stroke="#BFC9D1" stroke-width="1.5"/>
<path d="M30.2155 36.03C31.1095 29.0361 37.0683 23.625 44.309 23.625C49.8623 23.625 54.6584 26.8095 57.0017 31.442C57.9206 31.0783 58.9225 30.875 59.9739 30.875C64.4706 30.875 68.1144 34.5203 68.1144 39.0155C68.1144 39.3845 68.0895 39.7474 68.0416 40.1029C72.6191 41.3021 76 45.4565 76 50.4138C76 56.3046 71.2227 61.0833 65.3304 61.0833H61.5011L61.5 58.6667H65.3295C69.8869 58.6667 73.5833 54.9701 73.5833 50.4138C73.5833 46.2356 70.4741 42.7884 66.4404 42.2455L65.0291 42.0555L65.4463 40.694C65.609 40.1627 65.6978 39.6004 65.6978 39.0155C65.6978 35.8547 63.1356 33.2917 59.9739 33.2917C58.9008 33.2917 57.899 33.5933 57.0353 34.1123L55.8132 34.8467L55.2892 33.5207C53.5577 29.1395 49.2973 26.0417 44.309 26.0417C37.966 26.0417 32.803 31.048 32.5278 37.3272L32.4736 38.5649L31.2377 38.4798L31.1154 38.4713C30.8885 38.4553 30.7106 38.4428 30.528 38.4428C24.9434 38.4428 20.4167 42.9696 20.4167 48.5541C20.4167 54.14 24.9435 58.6667 30.528 58.6667H32.499L32.5 61.0833H30.5286C23.6093 61.0833 18 55.4745 18 48.5541C18 41.7393 23.4406 36.1958 30.2155 36.03Z" fill="#1C0D3F"/>
<path fill-rule="evenodd" clip-rule="evenodd" d="M38.872 44.2792C41.0118 43.447 43.8858 42.9583 47 42.9583C50.1142 42.9583 52.9882 43.447 55.128 44.2792C56.194 44.6938 57.1391 45.2172 57.8383 45.8602C58.5386 46.5041 59.0833 47.3596 59.0833 48.3958V68.9375C59.0833 69.9737 58.5386 70.8293 57.8383 71.4732C57.1391 72.1161 56.194 72.6396 55.128 73.0541C52.9882 73.8863 50.1142 74.375 47 74.375C43.8858 74.375 41.0118 73.8863 38.872 73.0541C37.806 72.6396 36.8609 72.1161 36.1617 71.4732C35.4614 70.8293 34.9167 69.9737 34.9167 68.9375V48.3958C34.9167 47.3596 35.4614 46.5041 36.1617 45.8602C36.8609 45.2172 37.806 44.6938 38.872 44.2792ZM37.3333 51.781V68.9375C37.3333 69.0691 37.3971 69.3262 37.7974 69.6942C38.1987 70.0632 38.8461 70.4511 39.748 70.8018C41.5441 71.5003 44.1075 71.9583 47 71.9583C49.8925 71.9583 52.4559 71.5003 54.252 70.8018C55.1539 70.4511 55.8013 70.0632 56.2026 69.6942C56.6029 69.3262 56.6667 69.0691 56.6667 68.9375V51.781C56.1976 52.0549 55.6789 52.2982 55.128 52.5125C52.9882 53.3446 50.1142 53.8333 47 53.8333C43.8858 53.8333 41.0118 53.3446 38.872 52.5125C38.3211 52.2982 37.8024 52.0549 37.3333 51.781ZM56.6667 48.3958C56.6667 48.5274 56.6029 48.7845 56.2026 49.1525C55.8013 49.5215 55.1539 49.9094 54.252 50.2601C52.4559 50.9586 49.8925 51.4167 47 51.4167C44.1075 51.4167 41.5441 50.9586 39.748 50.2601C38.8461 49.9094 38.1987 49.5215 37.7974 49.1525C37.3971 48.7845 37.3333 48.5274 37.3333 48.3958C37.3333 48.2642 37.3971 48.0072 37.7974 47.6391C38.1987 47.2701 38.8461 46.8823 39.748 46.5315C41.5441 45.833 44.1075 45.375 47 45.375C49.8925 45.375 52.4559 45.833 54.252 46.5315C55.1539 46.8823 55.8013 47.2701 56.2026 47.6391C56.6029 48.0072 56.6667 48.2642 56.6667 48.3958Z" fill="#1C0D3F"/>
</svg>
