<svg width="93" height="93" viewBox="0 0 93 93" fill="none" xmlns="http://www.w3.org/2000/svg">
<rect width="93" height="93" rx="12" fill="#ED26B7"/>
<path d="M72.9953 54.6461C72.8204 47.1802 68.7002 41.2541 62.41 38.9377V25.9438C60.8216 24.9282 59.1313 24.0885 57.3668 23.443V51.3979C57.3668 56.9357 54.7985 59.4085 50.671 59.4085C46.6528 59.4085 43.2915 56.3727 43.2915 51.2959C43.2915 45.6295 47.7068 42.169 53.4883 42.169C54.0238 42.1593 54.569 42.1872 55.1045 42.2709V37.324C54.569 37.2317 54.0335 37.1856 53.4883 37.1953C44.9078 37.1953 38.184 42.4565 38.184 51.3069C38.184 59.8162 44.252 64.3567 51.0134 64.3567C54.2181 64.3567 56.9892 63.2671 58.9018 61.3936C60.8131 59.5202 62.4306 56.8156 62.4306 52.0628V44.319C65.9218 46.0639 68.0275 50.29 68.0372 55.1265C68.019 64.2353 59.5672 71.933 49.657 71.933C49.4263 71.933 49.2502 71.933 49.0195 71.9232C42.2217 71.9148 36.2459 69.4589 31.4056 64.6139C27.9229 61.1255 25.5404 56.6857 24.5799 51.8589C23.6193 47.0224 24.1087 42.0209 26.0018 37.4611C27.8865 32.9109 31.0814 29.016 35.1822 26.275C39.283 23.534 44.1051 22.0755 49.0365 22.0755V17C45.0924 17 41.1859 17.7753 37.5465 19.2799C33.9071 20.7845 30.592 22.9989 27.8027 25.7775C22.1682 31.3979 19 39.03 19 46.986C19 54.9409 22.1585 62.5742 27.7833 68.2043C33.4081 73.8343 41.0462 77 49.0086 77H49.6461C52.0942 77 54.5326 76.6214 56.8787 75.8922C56.8884 75.8922 56.8969 75.8825 56.9066 75.8825C60.2958 74.8305 63.3996 73.0396 66.0044 70.6407C70.5023 66.4874 72.9783 60.9968 72.9965 55.1545C73.005 55.135 72.9953 54.6558 72.9953 54.6461Z" fill="white"/>
</svg>
