<svg width="96" height="95" viewBox="0 0 96 95" fill="none" xmlns="http://www.w3.org/2000/svg">
<rect x="1.5202" y="1" width="93" height="93" rx="12" fill="#F2F4F6" stroke="#BFC9D1" stroke-width="1.5"/>
<path d="M47.68 26.7511C47.6244 26.75 47.5683 26.75 47.4989 26.75V24.25H47.503C47.5667 24.25 47.6401 24.25 47.7164 24.2513C60.4053 24.374 70.6552 35.2402 70.6552 48.625C70.6552 55.1747 68.2007 61.1206 64.2091 65.5H70.5827V68H59.8952V56.75H62.2702V64.0125C65.9877 60.058 68.2802 54.6246 68.2802 48.625C68.2802 36.6116 59.0791 26.8588 47.6902 26.7512L47.68 26.7511Z" fill="#1C0D3F"/>
<path d="M32.015 30.5H25.4577V28H36.1452V39.25H33.7702V32.2021C29.4443 36.2116 26.7177 42.0824 26.7177 48.6249C26.7177 60.707 36.0209 70.4999 47.4989 70.4999C47.7171 70.4999 47.9352 70.4963 48.1533 70.4892L48.2268 72.988C47.9842 72.9959 47.7415 72.9999 47.4989 72.9999C34.7092 72.9999 24.3427 62.0877 24.3427 48.6249C24.3427 41.4274 27.3059 34.9601 32.015 30.5Z" fill="#1C0D3F"/>
<path d="M56.8674 68.1819L54.6848 69.1694L55.6227 71.4662L57.8053 70.4787L56.8674 68.1819Z" fill="#1C0D3F"/>
<path d="M50.3477 70.3241L52.6811 69.8616L53.1206 72.3184L50.7871 72.7809L50.3477 70.3241Z" fill="#1C0D3F"/>
<path d="M40.2699 25.4786L38.0529 26.3774L38.9064 28.7104L41.1234 27.8116L40.2699 25.4786Z" fill="#1C0D3F"/>
<path d="M42.8092 24.744L45.1569 24.369L45.5132 26.8407L43.1656 27.2157L42.8092 24.744Z" fill="#1C0D3F"/>
</svg>
