<svg width="96" height="95" viewBox="0 0 96 95" fill="none" xmlns="http://www.w3.org/2000/svg">
<rect x="1.5" y="1" width="93" height="93" rx="12" fill="#F2F4F6" stroke="#BFC9D1" stroke-width="1.5"/>
<g clip-path="url(#clip0_220_581)">
<path fill-rule="evenodd" clip-rule="evenodd" d="M48 24.3125C43.7321 24.3125 40.2708 27.7737 40.2708 32.0417V34.25C40.2708 38.5191 43.7322 41.9792 48 41.9792C52.2678 41.9792 55.7292 38.5191 55.7292 34.25V32.0417C55.7292 27.7737 52.2679 24.3125 48 24.3125ZM42.4792 32.0417C42.4792 28.9934 44.9517 26.5208 48 26.5208C51.0483 26.5208 53.5208 28.9934 53.5208 32.0417V34.25C53.5208 37.2993 51.0484 39.7708 48 39.7708C44.9516 39.7708 42.4792 37.2993 42.4792 34.25V32.0417Z" fill="#1C0D3F"/>
<path fill-rule="evenodd" clip-rule="evenodd" d="M48.0012 44.1875C43.9037 44.1875 40.1399 45.0118 37.3596 46.3962C34.6465 47.7471 32.5441 49.8189 32.544 52.4389L32.5417 70.6875H63.4561L63.4585 52.4389C63.4585 49.8188 61.3557 47.7471 58.6425 46.3962C55.862 45.0118 52.0982 44.1875 48.0012 44.1875ZM34.7523 52.4389C34.7523 51.1105 35.8625 49.6086 38.3439 48.373C40.7581 47.1709 44.1708 46.3958 48.0012 46.3958C51.8311 46.3958 55.2438 47.1709 57.6582 48.373C60.1397 49.6086 61.2501 51.1106 61.2501 52.4389L61.2481 68.4792H34.7503L34.7523 52.4389Z" fill="#1C0D3F"/>
<path d="M74.5 54.6475C74.5 52.6929 73.312 51.0381 71.6304 49.7916C69.9386 48.5375 67.6122 47.5837 64.9606 47.0126L64.4956 49.1714C66.9398 49.6979 68.9473 50.5516 70.3153 51.5657C71.6936 52.5874 72.2916 53.6617 72.2917 54.6475L72.2897 62.9585H65.6667V65.1669H74.4975L74.5 54.6475Z" fill="#1C0D3F"/>
<path d="M24.3823 49.7838C26.08 48.5283 28.4143 47.5744 31.0744 47.0056L31.5361 49.1651C29.084 49.6895 27.0689 50.5436 25.6954 51.5594C24.3113 52.583 23.7108 53.6598 23.7108 54.6474L23.7089 62.9585H30.3336V65.1668H21.5L21.5025 54.6474C21.5026 52.6893 22.6952 51.0314 24.3823 49.7838Z" fill="#1C0D3F"/>
<path fill-rule="evenodd" clip-rule="evenodd" d="M57.9375 35.3542C57.9375 31.6959 60.9028 28.7292 64.5625 28.7292C68.2222 28.7292 71.1875 31.6959 71.1875 35.3542V37.5625C71.1875 41.222 68.222 44.1875 64.5625 44.1875C60.903 44.1875 57.9375 41.222 57.9375 37.5625V35.3542ZM64.5625 30.9375C62.1227 30.9375 60.1458 32.9152 60.1458 35.3542V37.5625C60.1458 40.0024 62.1226 41.9792 64.5625 41.9792C67.0024 41.9792 68.9792 40.0024 68.9792 37.5625V35.3542C68.9792 32.9152 67.0023 30.9375 64.5625 30.9375Z" fill="#1C0D3F"/>
<path fill-rule="evenodd" clip-rule="evenodd" d="M31.4375 28.7292C27.7778 28.7292 24.8125 31.6959 24.8125 35.3542V37.5625C24.8125 41.222 27.778 44.1875 31.4375 44.1875C35.097 44.1875 38.0625 41.222 38.0625 37.5625V35.3542C38.0625 31.6959 35.0972 28.7292 31.4375 28.7292ZM27.0208 35.3542C27.0208 32.9152 28.9977 30.9375 31.4375 30.9375C33.8772 30.9375 35.8542 32.9152 35.8542 35.3542V37.5625C35.8542 40.0024 33.8774 41.9792 31.4375 41.9792C28.9976 41.9792 27.0208 40.0024 27.0208 37.5625V35.3542Z" fill="#1C0D3F"/>
<path fill-rule="evenodd" clip-rule="evenodd" d="M48 24.3125C43.7321 24.3125 40.2708 27.7737 40.2708 32.0417V34.25C40.2708 38.5191 43.7322 41.9792 48 41.9792C52.2678 41.9792 55.7292 38.5191 55.7292 34.25V32.0417C55.7292 27.7737 52.2679 24.3125 48 24.3125ZM42.4792 32.0417C42.4792 28.9934 44.9517 26.5208 48 26.5208C51.0483 26.5208 53.5208 28.9934 53.5208 32.0417V34.25C53.5208 37.2993 51.0484 39.7708 48 39.7708C44.9516 39.7708 42.4792 37.2993 42.4792 34.25V32.0417Z" stroke="#1C0D3F" stroke-width="0.3" stroke-miterlimit="10"/>
<path fill-rule="evenodd" clip-rule="evenodd" d="M48.0012 44.1875C43.9037 44.1875 40.1399 45.0118 37.3596 46.3962C34.6465 47.7471 32.5441 49.8189 32.544 52.4389L32.5417 70.6875H63.4561L63.4585 52.4389C63.4585 49.8188 61.3557 47.7471 58.6425 46.3962C55.862 45.0118 52.0982 44.1875 48.0012 44.1875ZM34.7523 52.4389C34.7523 51.1105 35.8625 49.6086 38.3439 48.373C40.7581 47.1709 44.1708 46.3958 48.0012 46.3958C51.8311 46.3958 55.2438 47.1709 57.6582 48.373C60.1397 49.6086 61.2501 51.1106 61.2501 52.4389L61.2481 68.4792H34.7503L34.7523 52.4389Z" stroke="#1C0D3F" stroke-width="0.3" stroke-miterlimit="10"/>
<path d="M74.5 54.6475C74.5 52.6929 73.312 51.0381 71.6304 49.7916C69.9386 48.5375 67.6122 47.5837 64.9606 47.0126L64.4956 49.1714C66.9398 49.6979 68.9473 50.5516 70.3153 51.5657C71.6936 52.5874 72.2916 53.6617 72.2917 54.6475L72.2897 62.9585H65.6667V65.1669H74.4975L74.5 54.6475Z" stroke="#1C0D3F" stroke-width="0.3" stroke-miterlimit="10"/>
<path d="M24.3823 49.7838C26.08 48.5283 28.4143 47.5744 31.0744 47.0056L31.5361 49.1651C29.084 49.6895 27.0689 50.5436 25.6954 51.5594C24.3113 52.583 23.7108 53.6598 23.7108 54.6474L23.7089 62.9585H30.3336V65.1668H21.5L21.5025 54.6474C21.5026 52.6893 22.6952 51.0314 24.3823 49.7838Z" stroke="#1C0D3F" stroke-width="0.3" stroke-miterlimit="10"/>
<path fill-rule="evenodd" clip-rule="evenodd" d="M57.9375 35.3542C57.9375 31.6959 60.9028 28.7292 64.5625 28.7292C68.2222 28.7292 71.1875 31.6959 71.1875 35.3542V37.5625C71.1875 41.222 68.222 44.1875 64.5625 44.1875C60.903 44.1875 57.9375 41.222 57.9375 37.5625V35.3542ZM64.5625 30.9375C62.1227 30.9375 60.1458 32.9152 60.1458 35.3542V37.5625C60.1458 40.0024 62.1226 41.9792 64.5625 41.9792C67.0024 41.9792 68.9792 40.0024 68.9792 37.5625V35.3542C68.9792 32.9152 67.0023 30.9375 64.5625 30.9375Z" stroke="#1C0D3F" stroke-width="0.3" stroke-miterlimit="10"/>
<path fill-rule="evenodd" clip-rule="evenodd" d="M31.4375 28.7292C27.7778 28.7292 24.8125 31.6959 24.8125 35.3542V37.5625C24.8125 41.222 27.778 44.1875 31.4375 44.1875C35.097 44.1875 38.0625 41.222 38.0625 37.5625V35.3542C38.0625 31.6959 35.0972 28.7292 31.4375 28.7292ZM27.0208 35.3542C27.0208 32.9152 28.9977 30.9375 31.4375 30.9375C33.8772 30.9375 35.8542 32.9152 35.8542 35.3542V37.5625C35.8542 40.0024 33.8774 41.9792 31.4375 41.9792C28.9976 41.9792 27.0208 40.0024 27.0208 37.5625V35.3542Z" stroke="#1C0D3F" stroke-width="0.3" stroke-miterlimit="10"/>
</g>
<defs>
<clipPath id="clip0_220_581">
<rect width="53" height="53" fill="white" transform="translate(21.5 21)"/>
</clipPath>
</defs>
</svg>
