<svg width="1440" height="514" viewBox="0 0 1440 514" fill="none" xmlns="http://www.w3.org/2000/svg">
<mask id="mask0_312_469" style="mask-type:alpha" maskUnits="userSpaceOnUse" x="0" y="0" width="1440" height="514">
<rect width="1440" height="513.971" fill="#1C0D3F"/>
</mask>
<g mask="url(#mask0_312_469)">
<path d="M-190.598 142.657C-172.133 162.853 -125.514 207.457 -107.219 213.556C-99.7175 218.189 -71.6246 228.226 -19.2673 231.305C-9.21509 232.375 15.2526 237.208 32.705 247.988C54.5205 261.462 75.0527 270.445 85.9604 274.295C96.8682 278.145 119.967 294.827 114.192 319.209C108.418 343.591 71.2028 372.465 42.3294 376.314C19.2306 379.394 -8.35962 364.765 -19.2673 357.065C-36.5754 350.649 -74.7942 344.233 -89.2054 369.898C-107.219 401.98 -114.229 452.669 -69.3148 484.109C-24.4005 515.549 13.4559 525.815 85.9604 525.815C158.465 525.815 255.215 520.583 308.604 538.993C361.993 557.403 393.29 566.608 480.738 573.051C496.039 575.035 533.021 581.128 558.544 589.636C563.081 591.763 582.706 595.677 624.904 594.315C632.277 594.457 650.597 595.677 664.89 599.42C679.182 603.163 690.129 603.248 693.815 602.823C700.338 601.689 714.149 602.483 717.212 614.734C720.274 626.985 711.682 636.57 707.002 639.831C700.196 645.078 689.647 661.441 701.898 684.922C717.212 714.273 713.808 727.46 701.898 724.057C689.987 720.654 665.315 702.788 630.433 701.086L489.112 697.457C474.44 697.457 438.115 700.391 410.198 712.129C375.301 726.802 321.37 730.767 292.818 732.353C264.266 733.939 176.531 746.499 114.192 735.891C51.8536 725.283 28.2272 754.696 25.3342 763.375C22.4411 772.054 -26.7405 878.614 -42.6521 871.863C-58.5638 865.113 -57.1173 850.648 -58.5638 828.468C-60.0103 806.288 -76.4041 746.016 -128.961 754.696C-171.006 761.639 -186.982 784.269 -189.715 794.716" stroke="#DFE4E8" stroke-opacity="0.15" stroke-width="2"/>
<path d="M-189.625 81.829C-165.093 107.127 -99.2423 159.562 -32.0881 166.922C35.0662 174.281 73.3196 182.254 84.052 185.321C97.4676 189.92 128.438 197.739 144.997 192.22C165.695 185.321 199.884 210.393 201.463 234.87C202.726 254.451 211.991 271.98 216.465 278.296C221.729 289.877 226.098 322.986 201.463 362.781C170.67 412.524 128.033 445.686 184.093 457.529C240.152 469.373 268.577 463.056 292.264 474.9C315.951 486.744 386.223 515.168 501.501 502.535C507.554 502.535 523.609 502.535 539.4 502.535C559.14 502.535 615.199 487.533 623.885 444.107C632.57 400.68 676.786 388.837 678.365 416.472C679.944 444.107 673.628 534.118 768.377 534.118C844.176 534.118 922.08 546.225 951.558 552.278C998.651 560.043 1101.82 568.941 1137.77 542.411C1182.7 509.25 1206.31 464.71 1220.85 455.019C1235.38 445.328 1265.78 392.026 1267.1 387.18C1268.42 382.334 1293.97 343.129 1346.39 372.202C1398.81 401.276 1408.06 432.993 1430.97 424.183C1453.88 415.373 1463.13 401.276 1499.69 410.527C1536.25 419.778 1568.85 451.935 1564.01 489.82C1559.16 527.704 1521.72 555.016 1476.34 552.373C1430.97 549.729 1424.36 532.549 1399.69 524.62C1375.03 516.691 1310.27 493.784 1272.83 545.765C1235.38 597.745 1219.08 636.511 1171.51 635.63C1123.93 634.749 1101.91 622.414 1060.06 625.938C1018.21 629.462 819.097 605.234 791.345 669.549C785.912 683.939 790.376 729.195 851.695 795.095C851.695 798.619 885.174 832.98 915.569 837.825C945.965 842.671 942.441 869.542 938.036 887.603C934.323 897.039 926.532 922.108 925.073 946.902C923.25 977.894 917.781 994.302 886.788 993.087C855.796 991.871 811.363 974.248 791.345 970.602C771.326 966.956 736.08 965.74 717.242 983.363C698.403 1000.99 681.995 987.617 686.857 959.056C691.718 930.494 701.442 894.032 666.803 814.425C639.092 750.738 561.672 738.868 526.426 740.893C503.941 741.906 451.436 746.363 421.295 756.086C383.617 768.24 327.102 781.001 259.04 788.901C190.978 796.801 170.925 800.447 143.578 798.017C116.232 795.586 59.1088 813.209 47.5626 867.294C36.0164 921.379 40.8779 937.786 65.1857 956.017C89.4935 974.248 127.778 981.54 113.194 1006.46C98.6089 1031.37 23.8625 1036.84 -27.1838 1021.65C-38.9326 1018 -65.59 1008.04 -78.2301 997.34C-94.0302 983.971 -125.63 989.44 -126.846 1011.93C-128.061 1034.41 -129.277 1043.53 -97.6764 1062.36C-66.0763 1081.2 -68.507 1104.29 -78.2301 1121.31C-87.9533 1138.33 -92.8148 1147.44 -123.2 1138.93C-153.584 1130.43 -183.969 1130.43 -191.869 1144.4" stroke="#DFE4E8" stroke-opacity="0.15"/>
<path d="M-189.36 175.606C-170.104 196.889 -124.904 240.245 -98.149 243.407C-64.705 247.359 -12.1067 247.967 4.91936 265.297C18.5402 279.161 36.5392 291.546 43.8361 296.005C54.5786 303.403 68.9493 320.997 40.4915 332.185C30.357 335.124 4.85848 338.388 -16.0592 327.929C-36.9769 317.47 -70.1778 320.125 -84.1635 322.76C-97.3384 326.104 -124.053 341.002 -125.512 373.838C-127.337 414.883 -136.458 479.643 -74.1302 509.134C-11.8028 538.626 15.5605 548.659 69.0709 547.443C122.581 546.227 225.346 543.187 225.346 543.187C237.71 543.085 267.729 545.376 288.889 555.348C315.341 567.814 405.639 593.657 456.718 594.569C507.796 595.481 531.815 609.771 547.625 619.804C560.272 627.83 592.217 632.472 606.608 633.789C622.519 635.715 653.186 642.667 648.565 655.072C642.788 670.578 624.546 669.97 593.534 671.794C562.523 673.618 490.162 669.058 444.86 684.564C421.943 691.686 362.76 706.802 309.372 710.291C242.636 714.653 216.029 716.398 192.04 720.76C172.848 724.249 124.432 716.979 102.623 712.908C79.6511 709.128 29.3452 708.459 11.8981 736.026C-9.91083 770.484 -27.358 794.91 -41.3157 770.92C-55.2734 746.93 -87.5505 686.738 -191.361 768.303" stroke="#DFE4E8" stroke-opacity="0.15"/>
<path d="M-188.898 212.352C-175.689 229.552 -146.795 265.271 -136.888 270.554C-124.505 277.158 -124.917 289.542 -132.76 294.495C-140.603 299.448 -160.829 307.704 -159.178 343.616C-157.527 379.527 -161.655 418.742 -161.655 435.253C-161.655 451.764 -156.701 496.344 -93.959 523.175C-31.2166 550.005 -16.3565 572.708 75.2805 570.644C166.917 568.58 237.09 567.755 259.793 578.9C282.496 590.045 365.464 617.701 392.708 618.939C419.951 620.178 454.212 632.561 456.688 642.055C459.165 651.549 424.492 655.677 407.155 659.392C389.818 663.107 347.302 681.682 290.339 682.92C244.768 683.911 222.368 687.736 216.864 689.525C198.839 692.139 154.039 695.221 119.035 686.635C75.2805 675.903 25.7471 691.176 6.75932 700.257C-12.2285 709.338 -43.187 706.449 -58.047 700.257C-72.907 694.065 -138.539 689.937 -189.724 744.837" stroke="#DFE4E8" stroke-opacity="0.15"/>
<path d="M-190.549 469.927C-185.183 489.328 -156.949 534.57 -86.9418 560.327C0.567408 592.523 -6.86261 599.127 14.6019 599.953C36.0664 600.778 51.752 621.417 28.2236 631.324C4.6952 641.231 -19.2459 650.312 -70.4305 656.091C-111.378 660.714 -167.571 694.066 -190.549 710.165" stroke="#DFE4E8" stroke-opacity="0.15"/>
<path d="M-191.855 835.832C-191.199 831.246 -161.058 767.03 -112.569 782.101C-99.6819 786.47 -76.1363 808.968 -85.0478 864.009C-96.1871 932.811 -48.3536 958.366 -28.6959 949.192C-12.9697 941.853 -13.4066 926.477 -15.5908 919.706C-16.66 917.073 -17.8888 909.254 -14.2501 899.037C-9.7018 886.267 25.3978 796.737 37.5357 786.974C47.0349 776.595 72.9992 755.469 100.864 753.991C135.694 752.144 198.23 761.906 219.603 757.948C240.977 753.991 298.662 747.739 329.968 746.337C355.013 745.216 400.835 731.853 420.616 725.312C434.633 721.418 476.873 714.005 533.691 715.5C581.193 714.335 680.749 724.748 698.954 775.722C721.71 839.439 778.6 893.295 800.598 891.778C822.596 890.261 824.831 890.637 825.118 885.76C825.405 880.884 832.863 873.999 807.046 821.506C781.23 769.012 741.071 710.782 741.071 688.694C741.071 666.607 739.923 625.587 784.098 610.958C828.273 596.329 851.508 575.675 807.046 575.101C762.585 574.528 696.322 577.683 676.243 566.209C656.163 554.735 632.929 548.711 607.686 559.038C604.626 560.376 593.802 562.824 574.985 561.906C551.463 560.759 517.041 550.146 467.703 549.859C418.365 549.572 367.593 543.835 351.242 535.516C334.892 527.197 299.322 507.978 235.642 507.118C184.697 506.429 110.161 504.826 79.2608 504.11C56.0093 504.11 -0.217138 496.642 -39.1107 466.767C-51.7934 457.608 -74.6926 433.44 -64.8283 410.048C-54.964 386.655 -30.4207 390.907 -19.3821 395.956C3.04742 408.991 56.0798 427.24 88.7729 395.956C129.639 356.852 157.471 351.215 152.891 307.178C148.311 263.141 103.217 246.231 88.7729 242.003C74.3287 237.776 59.18 232.492 50.7249 225.446C42.2698 218.4 18.3136 212.059 -23.2574 212.411C-64.8283 212.763 -101.467 191.273 -122.253 176.477C-138.881 164.64 -174.51 134.906 -190.246 121.519" stroke="#DFE4E8" stroke-opacity="0.15"/>
<path d="M-190.621 38C-161.129 67.492 -88.9367 126.974 -36.101 128.968C29.9438 131.46 74.8043 140.183 74.8043 140.183C81.6555 141.362 103.45 141.04 135.82 130.323C176.281 116.927 195.145 94.5088 210.181 118.84C225.218 143.172 271.087 232.476 270.052 270.25C269.017 308.024 253.235 400.905 268.241 415.135C283.246 429.365 296.582 454.33 417.189 460.306C537.796 466.282 570.936 432.599 597.013 384.248C623.09 335.896 642.105 302.756 676.874 324.487C711.644 346.218 732.288 334.266 741.524 342.415C750.76 350.565 756.735 355.454 749.13 384.248C741.524 413.041 702.951 484.21 787.159 497.792C871.366 511.374 896.166 512.72 918.829 518.858C941.491 524.996 1011.84 516.97 1035.92 512.248C1060 507.527 1081.24 507.055 1097.3 505.638C1113.35 504.222 1171.89 464.563 1167.64 387.133C1165.91 362.267 1184.73 311.024 1273.87 304.981C1385.3 297.427 1427.32 263.905 1471.23 231.328C1489.17 214.016 1532.13 190.347 1560.46 234.161C1564.24 234.161 1578.87 255.879 1587.84 260.6C1596.81 265.322 1597.29 283.735 1598.23 325.283C1598.99 358.521 1613.34 402.713 1620.42 420.654C1624.83 427.579 1631 453.42 1620.42 501.389C1607.2 561.35 1607.2 604.787 1587.84 631.698C1568.49 658.61 1562.82 725.653 1587.84 768.145C1612.87 810.638 1634.11 822.913 1615.7 872.487C1597.29 922.061 1589.73 953.694 1615.7 997.131C1641.67 1040.57 1698.8 1134.52 1669.05 1181.74C1665.12 1189.76 1659.61 1211.01 1669.05 1231.78C1680.85 1257.75 1669.52 1276.63 1659.61 1293.63C1651.68 1307.23 1644.66 1326.68 1642.14 1334.71" stroke="#DFE4E8" stroke-opacity="0.15" stroke-width="2"/>
<path d="M-189.993 103.395C-158.585 129.394 -87.0801 181.706 -52.3223 182.962C-8.87503 184.532 24.1029 189.243 47.1353 199.189C70.1676 209.135 107.333 213.322 125.654 217.51C143.976 221.698 183.235 259.387 188.47 285.56C193.705 311.733 186.376 346.282 153.398 380.307C120.42 414.332 50.7996 463.014 113.092 475.053C175.383 487.093 252.332 482.382 283.74 493.898C315.148 505.414 415.652 532.634 484.749 526.876C488.414 526.876 537.096 523.735 558.557 526.876C580.019 530.017 602.005 520.071 608.81 512.742C615.615 505.414 652.257 485.522 672.672 516.407C693.087 547.291 725.542 547.814 754.332 549.908C783.123 552.002 866.015 556.532 895.815 566.376C919.655 574.252 986.939 578.8 1017.6 580.089C1029.3 580.646 1051.77 584.016 1048.1 593.039C1043.5 604.319 995.041 607.661 970.394 608.914C945.746 610.167 836.712 604.319 800.367 629.384C764.022 654.45 757.338 673.666 782.821 725.886C808.304 778.106 861.995 847.871 878.905 856.644C895.815 865.417 895.815 887.976 895.815 901.344C895.815 914.712 888.096 946.879 858.435 950.221C828.774 953.564 825.85 946.044 808.304 941.449C790.758 936.853 778.643 931.422 763.604 932.258C748.565 933.093 726.841 926.827 724.335 898.42C721.828 870.012 695.092 796.905 664.596 766.826C634.099 736.748 580.627 732.57 522.558 728.81C476.104 725.803 427.449 739.254 408.929 746.356C391.383 751.648 344.26 763.317 296.134 767.662C235.977 773.093 225.116 780.612 157.857 778.941C90.5979 777.27 65.1147 778.941 43.3913 820.717C21.668 862.492 3.70439 908.446 19.5792 940.195C35.454 971.945 51.7465 979.464 43.3913 990.326C35.0362 1001.19 -7.57501 1002.86 -45.1731 979.464C-75.2516 960.749 -92.7974 954.121 -97.8104 953.146C-109.229 950.918 -128.641 938.274 -114.938 905.521C-97.8104 864.581 -118.281 807.766 -146.27 817.375C-174.26 826.983 -195.983 877.949 -163.816 915.548C-131.649 953.146 -127.053 937.689 -137.915 961.083C-148.777 984.477 -176.349 1008.71 -163.816 1039.2C-151.283 1069.7 -139.168 1074.71 -146.27 1086.83C-153.372 1098.94 -191.806 1103.96 -191.806 1103.96" stroke="#DFE4E8" stroke-opacity="0.15"/>
<path d="M288.803 1338.78C278.097 1325.19 244.33 1293.57 194.915 1275.78C145.501 1257.99 135.942 1218.53 137.339 1201.03C138.193 1190.99 132.214 1169.25 101.463 1162.59C63.024 1154.26 -11.2912 1152.34 -10.6506 1121.58C-10.0099 1090.83 -2.96284 1070.33 61.7427 1057.52C126.448 1044.71 175.138 1019.08 171.294 992.173C167.45 965.266 161.684 963.345 125.808 953.095C89.9312 942.844 47.6485 919.14 86.7281 867.247C125.808 815.355 158.481 823.684 186.669 821.762C214.858 819.84 303.908 805.746 347.472 791.651C391.036 777.557 525.572 735.914 580.668 766.025C635.764 796.135 667.155 828.808 664.593 897.358C662.543 952.197 642.384 985.554 632.56 995.377C619.534 1013.96 607.703 1053.68 664.593 1063.93C721.482 1074.18 735.278 1049.83 735.064 1036.38C735.705 1023.35 749.927 1000.5 801.692 1013.31C866.397 1029.33 865.756 1015.88 895.226 1021.64C924.696 1027.41 954.807 1037.02 959.932 1021.64C965.057 1006.27 946.478 992.174 950.963 960.141C955.447 928.109 965.698 892.873 999.652 864.044C1033.61 835.215 1015.03 819.199 999.652 817.277C984.276 815.355 919.571 826.886 882.413 794.213C845.256 761.54 805.536 712.21 820.911 678.256C833.212 651.092 867.038 644.729 882.413 644.943C922.347 647.505 1010.03 651.861 1041.29 648.786C1080.37 644.943 1107.28 656.474 1137.39 665.443C1167.5 674.412 1214.91 689.787 1246.94 624.441C1278.97 559.095 1331.51 522.579 1393.01 552.049C1454.51 581.518 1512.81 650.068 1555.73 605.863C1598.66 561.658 1594.81 455.951 1572.39 409.825C1549.97 363.698 1526.26 298.992 1459.64 305.399C1445.33 310.951 1406.72 321.414 1366.74 318.852C1316.77 315.649 1209.14 318.852 1198.89 399.574C1188.64 480.295 1130.98 520.015 1098.95 531.547C1073.33 540.772 987.479 539.235 947.759 537.313C909.747 531.334 822.961 518.99 779.909 517.453C726.095 515.531 706.235 479.655 708.157 450.185C709.694 426.609 712.641 407.475 713.923 400.855C717.126 391.245 717.638 369.976 694.062 361.775C664.593 351.525 637.045 362.416 626.794 386.12C616.544 409.824 580.668 465.56 515.322 475.811C449.975 486.061 351.956 484.78 321.205 467.482C296.604 453.644 265.682 447.195 253.296 445.7C236.639 445.487 206.529 435.194 219.342 395.73C235.358 346.4 266.109 303.476 239.202 246.459C212.295 189.441 210.373 196.487 206.529 178.549C202.685 160.611 188.643 149.559 140.448 158.141C130.105 160.783 104.532 165.273 84.9903 162.103C60.5625 158.141 25.5714 152.2 -17.3422 150.88C-60.2557 149.559 -120.335 125.132 -190.977 61.7519" stroke="#DFE4E8" stroke-opacity="0.15"/>
</g>
</svg>
