<svg width="751" height="459" viewBox="0 0 751 459" fill="none" xmlns="http://www.w3.org/2000/svg">
<g filter="url(#filter0_dddddd_2965_4212)">
<path fill-rule="evenodd" clip-rule="evenodd" d="M687.5 0.456055H63.5C59.1 0.456055 55.5 4.05605 55.5 8.45605V208.456C55.5 212.856 59.1 216.456 63.5 216.456H355.843C356.904 216.456 357.921 216.877 358.672 217.628L372.672 231.628C374.234 233.19 376.766 233.19 378.328 231.628L392.328 217.628C393.079 216.877 394.096 216.456 395.157 216.456H687.5C691.9 216.456 695.5 212.856 695.5 208.456V8.45605C695.5 4.05605 691.9 0.456055 687.5 0.456055Z" fill="white"/>
</g>
<mask id="mask0_2965_4212" style="mask-type:luminance" maskUnits="userSpaceOnUse" x="55" y="0" width="641" height="217">
<path d="M63.5 0.456055H687.5C691.9 0.456055 695.5 4.05605 695.5 8.45605V208.456C695.5 212.856 691.9 216.456 687.5 216.456H63.5C59.1 216.456 55.5 212.856 55.5 208.456V8.45605C55.5 4.05605 59.1 0.456055 63.5 0.456055Z" fill="white"/>
</mask>
<g mask="url(#mask0_2965_4212)">
<path d="M102.6 46.4561L102.8 45.3561H101.2L101.8 42.2561H100.7L100.1 45.3561H97.8L98.4 42.2561H97.3L96.7 45.3561H95.1L94.9 46.4561H96.5L96 49.0561H94.4L94.2 50.2561H95.8L95.2 53.4561H96.3L96.9 50.2561H99.2L98.6 53.4561H99.7L100.3 50.2561H101.9L102.1 49.0561H100.5L101 46.4561H102.6ZM97.5 46.4561H99.8L99.3 49.1561H97L97.5 46.4561ZM118.5 52.4561C116.7 52.4561 115.7 51.2561 115.7 48.8561V46.8561C115.7 44.5561 116.7 43.2561 118.5 43.2561C119.9 43.2561 121 44.2561 121 45.7561H122.4C122.4 43.3561 120.9 41.8561 118.5 41.8561C115.9 41.8561 114.3 43.6561 114.3 46.7561V48.7561C114.3 51.8561 115.8 53.6561 118.5 53.6561C120.8 53.6561 122.4 52.1561 122.4 49.9561H121C120.9 51.5561 120 52.4561 118.5 52.4561ZM124.6 53.4561H125.9V48.4561C125.9 47.0561 126.8 46.0561 128.2 46.0561C129.5 46.0561 130.2 46.7561 130.2 48.2561V53.4561H131.5V47.9561C131.5 45.9561 130.5 44.8561 128.7 44.8561C127.4 44.8561 126.4 45.4561 126 46.4561H125.9V41.6561H124.6V53.4561ZM140.3 51.2561C140.1 51.9561 139.3 52.4561 138.2 52.4561C136.8 52.4561 135.8 51.4561 135.8 49.8561V49.5561H141.6V48.7561C141.6 46.2561 140.3 44.8561 138.1 44.8561C135.9 44.8561 134.5 46.3561 134.5 48.5561V49.8561C134.5 52.2561 135.9 53.6561 138.2 53.6561C140 53.6561 141.3 52.7561 141.6 51.3561H140.3V51.2561ZM138.1 45.9561C139.5 45.9561 140.3 46.9561 140.3 48.5561H135.8C135.8 46.9561 136.7 45.9561 138.1 45.9561ZM151.4 47.6561C151.2 45.9561 149.9 44.8561 148 44.8561C145.7 44.8561 144.4 46.2561 144.4 48.6561V49.7561C144.4 52.1561 145.7 53.5561 148 53.5561C149.9 53.5561 151.2 52.4561 151.4 50.7561H150.1C149.9 51.7561 149.1 52.3561 148 52.3561C146.5 52.3561 145.7 51.3561 145.7 49.5561V48.7561C145.7 46.9561 146.5 45.9561 148 45.9561C149.1 45.9561 149.9 46.5561 150.1 47.5561H151.4V47.6561ZM156.4 48.8561H156.3V41.7561H155V53.5561H156.3V50.4561L157.5 49.3561L160.4 53.5561H162L158.5 48.4561L161.8 45.0561H160.2L156.4 48.8561ZM177.7 42.9561C178.3 42.9561 178.8 42.4561 178.8 41.8561C178.8 41.2561 178.3 40.7561 177.7 40.7561C177.1 40.7561 176.6 41.2561 176.6 41.8561C176.6 42.4561 177.1 42.9561 177.7 42.9561ZM181.3 53.4561V52.3561H178.5V44.9561H174.3V46.0561H177.2V52.3561H174.3V53.4561H181.3ZM186.2 53.4561H187.5V46.1561H191.2V45.0561H187.5V44.1561C187.5 43.2561 188.1 42.8561 189.3 42.8561C189.8 42.8561 190.9 42.8561 191.2 42.9561V41.8561C190.9 41.8561 189.7 41.7561 189.2 41.7561C187.1 41.7561 186.1 42.5561 186.1 44.1561V45.0561H183.8V46.1561H186.1V53.4561H186.2ZM203.4 44.9561L206.5 53.4561H208L211.1 44.9561H209.7L207.3 52.0561H207.2L204.8 44.9561H203.4ZM217.3 42.9561C217.9 42.9561 218.4 42.4561 218.4 41.8561C218.4 41.2561 217.9 40.7561 217.3 40.7561C216.7 40.7561 216.2 41.2561 216.2 41.8561C216.2 42.4561 216.7 42.9561 217.3 42.9561ZM220.8 53.4561V52.3561H218V44.9561H213.8V46.0561H216.7V52.3561H213.8V53.4561H220.8ZM223.9 47.2561C223.9 48.4561 224.7 49.2561 226.2 49.5561L227.5 49.8561C228.6 50.0561 229 50.4561 229 51.1561C229 51.9561 228.3 52.4561 227.1 52.4561C226 52.4561 225.3 51.9561 225.1 51.2561H223.7C223.8 52.7561 225.1 53.6561 227 53.6561C229 53.6561 230.3 52.6561 230.3 51.0561C230.3 49.8561 229.5 49.1561 227.9 48.7561L226.7 48.4561C225.6 48.2561 225.2 47.8561 225.2 47.2561C225.2 46.4561 225.9 45.9561 227 45.9561C228 45.9561 228.7 46.4561 228.9 47.1561H230.2C230 45.7561 228.8 44.8561 227.1 44.8561C225.2 44.8561 223.9 45.8561 223.9 47.2561ZM240.4 44.9561H239.1V49.9561C239.1 51.3561 238.2 52.3561 236.8 52.3561C235.5 52.3561 234.9 51.6561 234.9 50.1561V44.9561H233.6V50.4561C233.6 52.4561 234.6 53.5561 236.4 53.5561C237.7 53.5561 238.7 52.9561 239.1 51.9561H239.2V53.4561H240.5V44.9561H240.4ZM245.9 53.6561C247.1 53.6561 248.1 53.1561 248.5 52.2561H248.6V53.5561H249.9V47.7561C249.9 45.9561 248.8 44.9561 246.8 44.9561C245.1 44.9561 243.8 45.8561 243.6 47.2561H244.9C245.1 46.5561 245.8 46.1561 246.8 46.1561C248 46.1561 248.6 46.7561 248.6 47.7561V48.5561L246.3 48.6561C244.4 48.7561 243.3 49.6561 243.3 51.1561C243.3 52.6561 244.3 53.6561 245.9 53.6561ZM246.3 52.4561C245.2 52.4561 244.6 51.9561 244.6 51.0561C244.6 50.1561 245.2 49.6561 246.4 49.6561L248.6 49.5561V50.5561C248.6 51.6561 247.6 52.4561 246.3 52.4561ZM260.4 53.4561V52.3561H257.6V41.6561H253.4V42.7561H256.3V52.3561H253.4V53.4561H260.4ZM266.7 42.9561C267.3 42.9561 267.8 42.4561 267.8 41.8561C267.8 41.2561 267.3 40.7561 266.7 40.7561C266.1 40.7561 265.6 41.2561 265.6 41.8561C265.6 42.4561 266.1 42.9561 266.7 42.9561ZM270.3 53.4561V52.3561H267.5V44.9561H263.3V46.0561H266.2V52.3561H263.3V53.4561H270.3ZM273.2 53.4561H279.8V52.3561H274.9V52.2561L279.8 46.0561V45.0561H273.3V46.1561H278.3V46.2561L273.3 52.5561V53.4561H273.2ZM285.5 53.6561C286.7 53.6561 287.7 53.1561 288.1 52.2561H288.2V53.5561H289.5V47.7561C289.5 45.9561 288.4 44.9561 286.4 44.9561C284.7 44.9561 283.4 45.8561 283.2 47.2561H284.5C284.7 46.5561 285.4 46.1561 286.4 46.1561C287.6 46.1561 288.2 46.7561 288.2 47.7561V48.5561L285.9 48.6561C284 48.7561 282.9 49.6561 282.9 51.1561C282.8 52.6561 283.9 53.6561 285.5 53.6561ZM285.9 52.4561C284.8 52.4561 284.2 51.9561 284.2 51.0561C284.2 50.1561 284.8 49.6561 286 49.6561L288.2 49.5561V50.5561C288.1 51.6561 287.2 52.4561 285.9 52.4561ZM294.8 42.7561V45.0561H292.5V46.1561H294.8V50.9561C294.8 52.7561 295.8 53.5561 297.9 53.5561C298.3 53.5561 299.3 53.5561 299.5 53.4561V52.3561C299.3 52.3561 298.4 52.3561 297.9 52.3561C296.7 52.3561 296.1 51.8561 296.1 50.9561V46.1561H299.5V45.0561H296.1V42.7561H294.8ZM306.3 42.9561C306.9 42.9561 307.4 42.4561 307.4 41.8561C307.4 41.2561 306.9 40.7561 306.3 40.7561C305.7 40.7561 305.2 41.2561 305.2 41.8561C305.2 42.4561 305.7 42.9561 306.3 42.9561ZM309.9 53.4561V52.3561H307.1V44.9561H302.9V46.0561H305.8V52.3561H302.9V53.4561H309.9ZM316 53.6561C318.2 53.6561 319.7 52.1561 319.7 49.8561V48.5561C319.7 46.2561 318.3 44.7561 316 44.7561C313.7 44.7561 312.3 46.2561 312.3 48.5561V49.8561C312.4 52.1561 313.8 53.6561 316 53.6561ZM316 46.0561C317.5 46.0561 318.4 47.0561 318.4 48.7561V49.7561C318.4 51.4561 317.5 52.4561 316 52.4561C314.5 52.4561 313.6 51.4561 313.6 49.7561V48.7561C313.7 47.0561 314.6 46.0561 316 46.0561ZM322.5 53.4561H323.8V48.4561C323.8 47.0561 324.7 46.0561 326.1 46.0561C327.4 46.0561 328 46.7561 328 48.2561V53.4561H329.3V47.9561C329.3 45.9561 328.3 44.8561 326.5 44.8561C325.2 44.8561 324.2 45.4561 323.8 46.4561H323.7V44.9561H322.5V53.4561ZM332.7 47.2561C332.7 48.4561 333.5 49.2561 335 49.5561L336.3 49.8561C337.4 50.0561 337.8 50.4561 337.8 51.1561C337.8 51.9561 337.1 52.4561 335.9 52.4561C334.8 52.4561 334.1 51.9561 333.9 51.2561H332.5C332.6 52.7561 333.9 53.6561 335.8 53.6561C337.8 53.6561 339.1 52.6561 339.1 51.0561C339.1 49.8561 338.3 49.1561 336.7 48.7561L335.5 48.4561C334.4 48.2561 334 47.8561 334 47.2561C334 46.4561 334.7 45.9561 335.8 45.9561C336.8 45.9561 337.5 46.4561 337.7 47.1561H339C338.8 45.7561 337.6 44.8561 335.9 44.8561C334 44.8561 332.7 45.8561 332.7 47.2561ZM354.7 53.6561C355.9 53.6561 356.9 53.1561 357.3 52.2561H357.4V53.5561H358.7V47.7561C358.7 45.9561 357.6 44.9561 355.6 44.9561C353.9 44.9561 352.6 45.8561 352.4 47.2561H353.7C353.9 46.5561 354.6 46.1561 355.6 46.1561C356.8 46.1561 357.4 46.7561 357.4 47.7561V48.5561L355.1 48.6561C353.2 48.7561 352.1 49.6561 352.1 51.1561C352 52.6561 353.1 53.6561 354.7 53.6561ZM355.1 52.4561C354 52.4561 353.4 51.9561 353.4 51.0561C353.4 50.1561 354 49.6561 355.2 49.6561L357.4 49.5561V50.5561C357.4 51.6561 356.4 52.4561 355.1 52.4561ZM365.2 49.6561C365.2 47.4561 366.3 46.1561 368.2 46.1561C368.7 46.1561 369.2 46.2561 369.6 46.3561V44.8561C369.3 44.7561 368.9 44.6561 368.4 44.6561C366.8 44.6561 365.7 45.4561 365.4 47.0561H365.2V44.8561H362V45.9561H363.9V52.3561H362.2V53.4561H367.8V52.3561H365.2V49.6561ZM377.7 51.2561C377.5 51.9561 376.7 52.4561 375.6 52.4561C374.2 52.4561 373.2 51.4561 373.2 49.8561V49.5561H379V48.7561C379 46.2561 377.7 44.8561 375.5 44.8561C373.3 44.8561 371.9 46.3561 371.9 48.5561V49.8561C371.9 52.2561 373.3 53.6561 375.6 53.6561C377.4 53.6561 378.7 52.7561 379 51.3561H377.7V51.2561ZM375.5 45.9561C376.9 45.9561 377.7 46.9561 377.7 48.5561H373.2C373.2 46.9561 374.1 45.9561 375.5 45.9561ZM391.3 44.9561L394.4 53.4561H395.9L399 44.9561H397.6L395.2 52.0561H395.1L392.7 44.9561H391.3ZM404.2 53.6561C405.4 53.6561 406.4 53.1561 406.8 52.2561H406.9V53.5561H408.2V47.7561C408.2 45.9561 407.1 44.9561 405.1 44.9561C403.4 44.9561 402.1 45.8561 401.9 47.2561H403.2C403.4 46.5561 404.1 46.1561 405.1 46.1561C406.3 46.1561 406.9 46.7561 406.9 47.7561V48.5561H404.5C402.6 48.6561 401.5 49.5561 401.5 51.0561C401.5 52.6561 402.6 53.6561 404.2 53.6561ZM404.6 52.4561C403.5 52.4561 402.9 51.9561 402.9 51.0561C402.9 50.1561 403.5 49.6561 404.7 49.6561L406.9 49.5561V50.5561C406.8 51.6561 405.9 52.4561 404.6 52.4561ZM418.6 53.4561V52.3561H415.8V41.6561H411.6V42.7561H414.5V52.3561H411.6V53.4561H418.6ZM425 42.9561C425.6 42.9561 426.1 42.4561 426.1 41.8561C426.1 41.2561 425.6 40.7561 425 40.7561C424.4 40.7561 423.9 41.2561 423.9 41.8561C423.9 42.4561 424.4 42.9561 425 42.9561ZM428.5 53.4561V52.3561H425.7V44.9561H421.5V46.0561H424.4V52.3561H421.5V53.4561H428.5ZM434.2 53.6561C435.4 53.6561 436.3 53.1561 436.7 52.2561H436.8V53.5561H438.1V41.6561H436.7V46.2561H436.6C436.2 45.3561 435.3 44.7561 434.1 44.7561C432.1 44.7561 430.9 46.1561 430.9 48.3561V49.9561C431 52.2561 432.2 53.6561 434.2 53.6561ZM434.6 52.4561C433.2 52.4561 432.3 51.4561 432.3 49.8561V48.6561C432.3 47.0561 433.2 46.0561 434.6 46.0561C436 46.0561 436.9 47.0561 436.9 48.6561V49.8561C436.9 51.4561 436 52.4561 434.6 52.4561ZM344.9 123.256V118.256H343.5V123.256H344.9ZM348 123.256V118.256H346.5V123.256H348ZM359.9 129.456V128.256H356.7V118.156H355.3L351.9 120.356V121.856L355.1 119.756H355.2V128.256H351.9V129.456H359.9ZM361.9 121.356H363.2C363.2 120.056 364.1 119.156 365.4 119.156C366.7 119.156 367.6 119.956 367.6 121.156C367.6 122.056 367.3 122.656 365.8 124.256L362 128.456V129.456H369.1V128.256H363.9V128.156L366.6 125.256C368.4 123.256 368.9 122.356 368.9 121.156C368.9 119.256 367.5 117.956 365.4 117.956C363.4 117.956 361.9 119.356 361.9 121.356ZM374 124.256H375.3C376.9 124.256 377.9 125.056 377.9 126.356C377.9 127.656 376.9 128.456 375.4 128.456C374 128.456 373 127.656 372.9 126.456H371.5C371.6 128.356 373.1 129.656 375.4 129.656C377.6 129.656 379.3 128.256 379.3 126.356C379.3 124.856 378.4 123.756 376.9 123.556C378.1 123.256 378.8 122.256 378.8 120.956C378.8 119.256 377.4 118.056 375.3 118.056C373.2 118.056 371.8 119.256 371.7 121.256H373C373.1 120.056 374 119.256 375.2 119.256C376.5 119.256 377.3 120.056 377.3 121.156C377.3 122.356 376.4 123.156 375.2 123.156H374V124.256ZM384.5 123.256V118.256H383.1V123.256H384.5ZM387.5 123.256V118.256H386.1V123.256H387.5ZM235.7 205.456H237V198.156H240.7V197.056H237V196.156C237 195.256 237.6 194.856 238.8 194.856C239.3 194.856 240.4 194.856 240.7 194.956V193.856C240.4 193.856 239.2 193.756 238.7 193.756C236.6 193.756 235.6 194.556 235.6 196.156V197.056H233.3V198.156H235.6V205.456H235.7ZM246 199.256V194.256H244.6V199.256H246ZM249 199.256V194.256H247.6V199.256H249ZM256.7 203.856L253.7 194.256H252.3L255.9 205.556H257.4L261 194.256H259.6L256.7 203.856ZM266.7 194.956C267.3 194.956 267.8 194.456 267.8 193.856C267.8 193.256 267.3 192.756 266.7 192.756C266.1 192.756 265.6 193.256 265.6 193.856C265.6 194.456 266.1 194.956 266.7 194.956ZM270.3 205.456V204.356H267.5V196.956H263.3V198.056H266.2V204.356H263.3V205.456H270.3ZM273.4 199.256C273.4 200.456 274.2 201.256 275.7 201.556L277 201.856C278.1 202.056 278.5 202.456 278.5 203.156C278.5 203.956 277.8 204.456 276.6 204.456C275.5 204.456 274.8 203.956 274.6 203.256H273.2C273.3 204.756 274.6 205.656 276.5 205.656C278.5 205.656 279.8 204.656 279.8 203.056C279.8 201.856 279 201.156 277.4 200.756L276.2 200.456C275.1 200.256 274.7 199.856 274.7 199.256C274.7 198.456 275.4 197.956 276.5 197.956C277.5 197.956 278.2 198.456 278.4 199.156H279.7C279.5 197.756 278.3 196.856 276.6 196.856C274.6 196.856 273.4 197.856 273.4 199.256ZM289.8 196.956H288.5V201.956C288.5 203.356 287.6 204.356 286.2 204.356C284.9 204.356 284.3 203.656 284.3 202.156V196.956H283V202.456C283 204.456 284 205.556 285.8 205.556C287.1 205.556 288.1 204.956 288.5 203.956H288.6V205.456H289.9V196.956H289.8ZM295.4 205.656C296.6 205.656 297.6 205.156 298 204.256H298.1V205.556H299.4V199.756C299.4 197.956 298.3 196.956 296.3 196.956C294.6 196.956 293.3 197.856 293.1 199.256H294.4C294.6 198.556 295.3 198.156 296.3 198.156C297.5 198.156 298.1 198.756 298.1 199.756V200.556L295.8 200.656C293.9 200.756 292.8 201.656 292.8 203.156C292.7 204.656 293.8 205.656 295.4 205.656ZM295.8 204.456C294.7 204.456 294.1 203.956 294.1 203.056C294.1 202.156 294.7 201.656 295.9 201.656L298.1 201.556V202.556C298 203.656 297.1 204.456 295.8 204.456ZM309.9 205.456V204.356H307.1V193.656H302.9V194.756H305.8V204.356H302.9V205.456H309.9ZM316.2 194.956C316.8 194.956 317.3 194.456 317.3 193.856C317.3 193.256 316.8 192.756 316.2 192.756C315.6 192.756 315.1 193.256 315.1 193.856C315.1 194.456 315.6 194.956 316.2 194.956ZM319.7 205.456V204.356H316.9V196.956H312.7V198.056H315.6V204.356H312.7V205.456H319.7ZM322.6 205.456H329.2V204.356H324.3V204.256L329.2 198.056V197.056H322.7V198.156H327.7V198.256L322.7 204.556V205.456H322.6ZM335 205.656C336.2 205.656 337.2 205.156 337.6 204.256H337.7V205.556H339V199.756C339 197.956 337.9 196.956 335.9 196.956C334.2 196.956 332.9 197.856 332.7 199.256H334C334.2 198.556 334.9 198.156 335.9 198.156C337.1 198.156 337.7 198.756 337.7 199.756V200.556L335.4 200.656C333.5 200.756 332.4 201.656 332.4 203.156C332.3 204.656 333.3 205.656 335 205.656ZM335.3 204.456C334.2 204.456 333.6 203.956 333.6 203.056C333.6 202.156 334.2 201.656 335.4 201.656L337.6 201.556V202.556C337.6 203.656 336.6 204.456 335.3 204.456ZM344.3 194.756V197.056H342V198.156H344.3V202.956C344.3 204.756 345.3 205.556 347.4 205.556C347.8 205.556 348.8 205.556 349 205.456V204.356C348.8 204.356 347.9 204.356 347.4 204.356C346.2 204.356 345.6 203.856 345.6 202.956V198.156H349V197.056H345.6V194.756H344.3ZM355.7 194.956C356.3 194.956 356.8 194.456 356.8 193.856C356.8 193.256 356.3 192.756 355.7 192.756C355.1 192.756 354.6 193.256 354.6 193.856C354.6 194.456 355.1 194.956 355.7 194.956ZM359.3 205.456V204.356H356.5V196.956H352.3V198.056H355.2V204.356H352.3V205.456H359.3ZM365.5 205.656C367.7 205.656 369.2 204.156 369.2 201.856V200.556C369.2 198.256 367.8 196.756 365.5 196.756C363.2 196.756 361.8 198.256 361.8 200.556V201.856C361.8 204.156 363.3 205.656 365.5 205.656ZM365.5 198.056C367 198.056 367.9 199.056 367.9 200.756V201.756C367.9 203.456 367 204.456 365.5 204.456C364 204.456 363.1 203.456 363.1 201.756V200.756C363.1 199.056 364 198.056 365.5 198.056ZM371.9 205.456H373.2V200.456C373.2 199.056 374.1 198.056 375.5 198.056C376.8 198.056 377.4 198.756 377.4 200.256V205.456H378.7V199.956C378.7 197.956 377.7 196.856 375.9 196.856C374.6 196.856 373.6 197.456 373.2 198.456H373.1V196.956H371.8V205.456H371.9ZM553.6 194.956C554.2 194.956 554.7 194.456 554.7 193.856C554.7 193.256 554.2 192.756 553.6 192.756C553 192.756 552.5 193.256 552.5 193.856C552.5 194.456 552.9 194.956 553.6 194.956ZM557.1 205.456V204.356H554.3V196.956H550.1V198.056H553V204.356H550.1V205.456H557.1ZM560.2 199.256C560.2 200.456 561 201.256 562.5 201.556L563.8 201.856C564.9 202.056 565.3 202.456 565.3 203.156C565.3 203.956 564.6 204.456 563.4 204.456C562.3 204.456 561.6 203.956 561.4 203.256H560C560.1 204.756 561.4 205.656 563.3 205.656C565.3 205.656 566.6 204.656 566.6 203.056C566.6 201.856 565.8 201.156 564.2 200.756L563 200.456C561.9 200.256 561.5 199.856 561.5 199.256C561.5 198.456 562.2 197.956 563.3 197.956C564.3 197.956 565 198.456 565.2 199.156H566.5C566.3 197.756 565.1 196.856 563.4 196.856C561.5 196.856 560.2 197.856 560.2 199.256ZM99 224.656C101 224.656 102.2 223.256 102.2 221.056V219.456C102.2 217.256 100.9 215.856 99 215.856C97.8 215.856 96.9 216.356 96.5 217.356H96.4V212.756H95V224.556H96.3V223.256H96.4C96.9 224.156 97.8 224.656 99 224.656ZM98.6 223.456C97.2 223.456 96.3 222.456 96.3 220.856V219.656C96.3 218.056 97.2 217.056 98.6 217.056C100 217.056 100.9 218.056 100.9 219.656V220.856C100.9 222.356 100 223.456 98.6 223.456ZM108 220.656C108 218.456 109.1 217.156 111 217.156C111.5 217.156 112 217.256 112.4 217.356V215.856C112.1 215.756 111.7 215.656 111.2 215.656C109.6 215.656 108.5 216.456 108.2 218.056H108V215.856H104.8V216.956H106.7V223.356H105V224.456H110.6V223.356H108V220.656ZM118.2 224.656C120.4 224.656 121.9 223.156 121.9 220.856V219.556C121.9 217.256 120.5 215.756 118.2 215.756C116 215.756 114.5 217.256 114.5 219.556V220.856C114.6 223.156 116 224.656 118.2 224.656ZM118.2 217.056C119.7 217.056 120.6 218.056 120.6 219.756V220.756C120.6 222.456 119.7 223.456 118.2 223.456C116.7 223.456 115.8 222.456 115.8 220.756V219.756C115.9 218.056 116.8 217.056 118.2 217.056ZM126.7 219.856H126.6V212.756H125.3V224.556H126.6V221.456L127.8 220.356L130.7 224.556H132.3L128.8 219.456L132.1 216.056H130.5L126.7 219.856ZM140.3 222.256C140.1 222.956 139.3 223.456 138.2 223.456C136.8 223.456 135.8 222.456 135.8 220.856V220.556H141.6V219.756C141.6 217.256 140.3 215.856 138.1 215.856C135.9 215.856 134.5 217.356 134.5 219.556V220.856C134.5 223.256 135.9 224.656 138.2 224.656C140 224.656 141.3 223.756 141.6 222.356H140.3V222.256ZM138.1 216.956C139.5 216.956 140.3 217.956 140.3 219.556H135.8C135.8 217.956 136.7 216.956 138.1 216.956ZM144.4 224.456H145.7V219.456C145.7 218.056 146.6 217.056 148 217.056C149.3 217.056 149.9 217.756 149.9 219.256V224.456H151.2V218.956C151.2 216.956 150.2 215.856 148.4 215.856C147.1 215.856 146.1 216.456 145.7 217.456H145.6V215.956H144.3V224.456H144.4ZM157.8 224.556C158.6 224.556 159.2 223.956 159.2 223.156C159.2 222.356 158.6 221.756 157.8 221.756C157 221.756 156.4 222.356 156.4 223.156C156.4 223.856 157 224.556 157.8 224.556ZM166.9 218.256V213.256H165.5V218.256H166.9ZM169.9 218.256V213.256H168.5V218.256H169.9Z" fill="#0BA94A"/>
<path d="M97.2 72.4561H98.5V65.1561H102.2V64.0561H98.5V63.1561C98.5 62.2561 99.1 61.8561 100.3 61.8561C100.8 61.8561 101.9 61.8561 102.2 61.9561V60.8561C101.9 60.8561 100.7 60.7561 100.2 60.7561C98.1 60.7561 97.1 61.5561 97.1 63.1561V64.0561H94.8V65.1561H97.1V72.4561H97.2ZM108.3 72.6561C110.5 72.6561 112 71.1561 112 68.8561V67.5561C112 65.2561 110.6 63.7561 108.3 63.7561C106.1 63.7561 104.6 65.2561 104.6 67.5561V68.8561C104.7 71.1561 106.1 72.6561 108.3 72.6561ZM108.3 65.0561C109.8 65.0561 110.7 66.0561 110.7 67.7561V68.7561C110.7 70.4561 109.8 71.4561 108.3 71.4561C106.8 71.4561 105.9 70.4561 105.9 68.7561V67.7561C106 66.0561 106.9 65.0561 108.3 65.0561ZM117.9 68.6561C117.9 66.4561 119 65.1561 120.9 65.1561C121.4 65.1561 121.9 65.2561 122.3 65.3561V63.8561C122 63.7561 121.6 63.6561 121.1 63.6561C119.5 63.6561 118.4 64.4561 118.1 66.0561H117.9V63.8561H114.7V64.9561H116.6V71.3561H114.9V72.4561H120.5V71.3561H117.9V68.6561ZM217.3 61.9561C217.9 61.9561 218.4 61.4561 218.4 60.8561C218.4 60.2561 217.9 59.7561 217.3 59.7561C216.7 59.7561 216.2 60.2561 216.2 60.8561C216.2 61.4561 216.7 61.9561 217.3 61.9561ZM220.8 72.4561V71.3561H218V63.9561H213.8V65.0561H216.7V71.3561H213.8V72.4561H220.8ZM223.6 72.4561H224.9V67.4561C224.9 66.0561 225.8 65.0561 227.2 65.0561C228.5 65.0561 229.1 65.7561 229.1 67.2561V72.4561H230.4V66.9561C230.4 64.9561 229.4 63.8561 227.6 63.8561C226.3 63.8561 225.3 64.4561 224.9 65.4561H224.8V63.9561H223.5V72.4561H223.6ZM136.6 80.7561V83.0561H134.3V84.1561H136.6V88.9561C136.6 90.7561 137.6 91.5561 139.7 91.5561C140.1 91.5561 141.1 91.5561 141.3 91.4561V90.3561C141.1 90.3561 140.2 90.3561 139.7 90.3561C138.5 90.3561 137.9 89.8561 137.9 88.9561V84.1561H141.3V83.0561H137.9V80.7561H136.6ZM147.6 87.6561C147.6 85.4561 148.7 84.1561 150.6 84.1561C151.1 84.1561 151.6 84.2561 152 84.3561V82.8561C151.7 82.7561 151.3 82.6561 150.8 82.6561C149.2 82.6561 148.1 83.4561 147.8 85.0561H147.5V82.8561H144.3V83.9561H146.2V90.3561H144.5V91.4561H150.1V90.3561H147.5V87.6561H147.6ZM155.4 94.4561C157 94.4561 157.7 93.8561 158.4 91.7561L161.6 82.9561H160.2L157.8 90.0561H157.7L155.3 82.9561H153.9L157 91.4561L156.9 91.9561C156.5 92.9561 156.1 93.2561 155.3 93.2561C155.2 93.2561 154.9 93.2561 154.8 93.2561V94.4561C155 94.4561 155.2 94.4561 155.4 94.4561ZM221.7 120.956H220.4L219.3 127.756H219.2L217.8 120.956H216.5L215.1 127.756H215L213.9 120.956H212.6L214.4 129.456H215.7L217.1 122.856H217.2L218.6 129.456H219.9L221.7 120.956ZM227 129.656C229.2 129.656 230.7 128.156 230.7 125.856V124.556C230.7 122.256 229.3 120.756 227 120.756C224.8 120.756 223.3 122.256 223.3 124.556V125.856C223.4 128.156 224.8 129.656 227 129.656ZM227 122.056C228.5 122.056 229.4 123.056 229.4 124.756V125.756C229.4 127.456 228.5 128.456 227 128.456C225.5 128.456 224.6 127.456 224.6 125.756V124.756C224.7 123.056 225.6 122.056 227 122.056ZM236.6 125.656C236.6 123.456 237.7 122.156 239.6 122.156C240.1 122.156 240.6 122.256 241 122.356V120.856C240.7 120.756 240.3 120.656 239.8 120.656C238.2 120.656 237.1 121.456 236.8 123.056H236.6V120.856H233.4V121.956H235.3V128.356H233.6V129.456H239.2V128.356H236.6V125.656ZM245.4 124.856H245.3V117.756H244V129.556H245.3V126.456L246.5 125.356L249.4 129.556H251L247.5 124.456L250.8 121.056H249.2L245.4 124.856ZM253.6 123.256C253.6 124.456 254.4 125.256 255.9 125.556L257.2 125.856C258.3 126.056 258.7 126.456 258.7 127.156C258.7 127.956 258 128.456 256.8 128.456C255.7 128.456 255 127.956 254.8 127.256H253.4C253.5 128.756 254.8 129.656 256.7 129.656C258.7 129.656 260 128.656 260 127.056C260 125.856 259.2 125.156 257.6 124.756L256.4 124.456C255.3 124.256 254.9 123.856 254.9 123.256C254.9 122.456 255.6 121.956 256.7 121.956C257.7 121.956 258.4 122.456 258.6 123.156H259.9C259.7 121.756 258.5 120.856 256.8 120.856C254.9 120.856 253.6 121.856 253.6 123.256ZM267.1 120.856C265.9 120.856 265 121.356 264.6 122.256H264.5V120.956H263.2V132.256H264.6V128.056H264.7C265.1 128.956 266 129.556 267.2 129.556C269.2 129.556 270.4 128.156 270.4 125.956V124.356C270.4 122.256 269.1 120.856 267.1 120.856ZM266.7 122.056C268.1 122.056 269 123.056 269 124.656V125.856C269 127.456 268.1 128.456 266.7 128.456C265.3 128.456 264.4 127.456 264.4 125.856V124.656C264.4 123.056 265.3 122.056 266.7 122.056ZM275.6 129.656C276.8 129.656 277.8 129.156 278.2 128.256H278.3V129.556H279.6V123.756C279.6 121.956 278.5 120.956 276.5 120.956C274.8 120.956 273.5 121.856 273.3 123.256H274.6C274.8 122.556 275.5 122.156 276.5 122.156C277.7 122.156 278.3 122.756 278.3 123.756V124.556L276 124.656C274.1 124.756 273 125.656 273 127.156C272.9 128.656 274 129.656 275.6 129.656ZM276 128.456C274.9 128.456 274.3 127.956 274.3 127.056C274.3 126.156 274.9 125.656 276.1 125.656L278.3 125.556V126.556C278.3 127.656 277.3 128.456 276 128.456ZM289.9 123.656C289.7 121.956 288.4 120.856 286.5 120.856C284.2 120.856 282.9 122.256 282.9 124.656V125.756C282.9 128.156 284.2 129.556 286.5 129.556C288.4 129.556 289.7 128.456 289.9 126.756H288.6C288.4 127.756 287.6 128.356 286.5 128.356C285 128.356 284.2 127.356 284.2 125.556V124.756C284.2 122.956 285 121.956 286.5 121.956C287.6 121.956 288.4 122.556 288.6 123.556H289.9V123.656ZM298.5 127.256C298.3 127.956 297.5 128.456 296.4 128.456C295 128.456 294 127.456 294 125.856V125.556H299.8V124.756C299.8 122.256 298.5 120.856 296.3 120.856C294.1 120.856 292.7 122.356 292.7 124.556V125.856C292.7 128.256 294.1 129.656 296.4 129.656C298.2 129.656 299.5 128.756 299.8 127.356H298.5V127.256ZM296.4 121.956C297.8 121.956 298.6 122.956 298.6 124.556H294.1C294.1 122.956 294.9 121.956 296.4 121.956ZM310.2 131.956V130.856H302.1V131.956H310.2ZM316.2 118.956C316.8 118.956 317.3 118.456 317.3 117.856C317.3 117.256 316.8 116.756 316.2 116.756C315.6 116.756 315.1 117.256 315.1 117.856C315.1 118.456 315.6 118.956 316.2 118.956ZM319.7 129.456V128.356H316.9V120.956H312.7V122.056H315.6V128.356H312.7V129.456H319.7ZM325.4 129.656C326.6 129.656 327.5 129.156 327.9 128.256H328V129.556H329.3V117.756H327.9V122.356H327.8C327.4 121.456 326.5 120.856 325.3 120.856C323.3 120.856 322.1 122.256 322.1 124.456V126.056C322.2 128.256 323.4 129.656 325.4 129.656ZM325.8 128.456C324.4 128.456 323.5 127.456 323.5 125.856V124.656C323.5 123.056 324.4 122.056 325.8 122.056C327.2 122.056 328.1 123.056 328.1 124.656V125.856C328.1 127.456 327.2 128.456 325.8 128.456ZM217.3 137.956C217.9 137.956 218.4 137.456 218.4 136.856C218.4 136.256 217.9 135.756 217.3 135.756C216.7 135.756 216.2 136.256 216.2 136.856C216.2 137.456 216.7 137.956 217.3 137.956ZM220.8 148.456V147.356H218V139.956H213.8V141.056H216.7V147.356H213.8V148.456H220.8ZM223.6 148.456H224.9V143.456C224.9 142.056 225.8 141.056 227.2 141.056C228.5 141.056 229.1 141.756 229.1 143.256V148.456H230.4V142.956C230.4 140.956 229.4 139.856 227.6 139.856C226.3 139.856 225.3 140.456 224.9 141.456H224.8V139.956H223.5V148.456H223.6ZM233.8 142.256C233.8 143.456 234.6 144.256 236.1 144.556L237.4 144.856C238.5 145.056 238.9 145.456 238.9 146.156C238.9 146.956 238.2 147.456 237 147.456C235.9 147.456 235.2 146.956 235 146.256H233.6C233.7 147.756 235 148.656 236.9 148.656C238.9 148.656 240.2 147.656 240.2 146.056C240.2 144.856 239.4 144.156 237.8 143.756L236.6 143.456C235.5 143.256 235.1 142.856 235.1 142.256C235.1 141.456 235.8 140.956 236.9 140.956C237.9 140.956 238.6 141.456 238.8 142.156H240.1C239.9 140.756 238.7 139.856 237 139.856C235.1 139.856 233.8 140.856 233.8 142.256ZM247 137.956C247.6 137.956 248.1 137.456 248.1 136.856C248.1 136.256 247.6 135.756 247 135.756C246.4 135.756 245.9 136.256 245.9 136.856C245.9 137.456 246.3 137.956 247 137.956ZM250.5 148.456V147.356H247.7V139.956H243.5V141.056H246.4V147.356H243.5V148.456H250.5ZM256.4 151.656C258.7 151.656 260.1 150.456 260.1 148.456V139.956H258.8V141.256H258.7C258.3 140.356 257.4 139.756 256.2 139.756C254.2 139.756 252.9 141.156 252.9 143.356V144.856C252.9 147.056 254.2 148.456 256.1 148.456C257.3 148.456 258.3 147.956 258.6 147.056H258.7V148.356C258.7 149.756 257.9 150.456 256.4 150.456C255.3 150.456 254.4 149.956 254.2 149.256H252.9C253.2 150.756 254.5 151.656 256.4 151.656ZM254.2 144.756V143.556C254.2 141.956 255.1 140.956 256.5 140.956C257.9 140.956 258.8 141.956 258.8 143.556V144.756C258.8 146.356 257.9 147.356 256.5 147.356C255.1 147.356 254.2 146.356 254.2 144.756ZM263.1 148.456H264.4V143.456C264.4 142.056 265.3 141.056 266.7 141.056C268 141.056 268.7 141.756 268.7 143.256V148.456H270V142.956C270 140.956 269 139.856 267.2 139.856C265.9 139.856 264.9 140.456 264.5 141.456H264.4V136.656H263.1V148.456ZM275 137.756V140.056H272.7V141.156H275V145.956C275 147.756 276 148.556 278.1 148.556C278.5 148.556 279.5 148.556 279.7 148.456V147.356C279.5 147.356 278.6 147.356 278.1 147.356C276.9 147.356 276.3 146.856 276.3 145.956V141.156H279.7V140.056H276.3V137.756H275ZM140.3 184.256C140.1 184.956 139.3 185.456 138.2 185.456C136.8 185.456 135.8 184.456 135.8 182.856V182.556H141.6V181.756C141.6 179.256 140.3 177.856 138.1 177.856C135.9 177.856 134.5 179.356 134.5 181.556V182.856C134.5 185.256 135.9 186.656 138.2 186.656C140 186.656 141.3 185.756 141.6 184.356H140.3V184.256ZM138.1 178.956C139.5 178.956 140.3 179.956 140.3 181.556H135.8C135.8 179.956 136.7 178.956 138.1 178.956ZM147.9 183.256L150 186.556H151.5L148.6 182.256L151.5 178.056H150L147.9 181.256H147.8L145.7 178.056H144.1L147 182.256L144.1 186.456H145.6L147.7 183.156H147.9V183.256ZM161.3 180.656C161.1 178.956 159.8 177.856 157.9 177.856C155.6 177.856 154.3 179.256 154.3 181.656V182.756C154.3 185.156 155.6 186.556 157.9 186.556C159.8 186.556 161.1 185.456 161.3 183.756H160C159.8 184.756 159 185.356 157.9 185.356C156.4 185.356 155.6 184.356 155.6 182.556V181.756C155.6 179.956 156.4 178.956 157.9 178.956C159 178.956 159.8 179.556 160 180.556H161.3V180.656ZM170 184.256C169.8 184.956 169 185.456 167.9 185.456C166.5 185.456 165.5 184.456 165.5 182.856V182.556H171.3V181.756C171.3 179.256 170 177.856 167.8 177.856C165.6 177.856 164.2 179.356 164.2 181.556V182.856C164.2 185.256 165.6 186.656 167.9 186.656C169.7 186.656 171 185.756 171.3 184.356H170V184.256ZM167.8 178.956C169.2 178.956 170 179.956 170 181.556H165.5C165.5 179.956 166.4 178.956 167.8 178.956ZM178.1 177.856C176.9 177.856 176 178.356 175.6 179.256H175.5V177.956H174.2V189.256H175.6V185.056H175.7C176.1 185.956 177 186.556 178.2 186.556C180.2 186.556 181.4 185.156 181.4 182.956V181.356C181.3 179.256 180.1 177.856 178.1 177.856ZM177.7 179.056C179.1 179.056 180 180.056 180 181.656V182.856C180 184.456 179.1 185.456 177.7 185.456C176.3 185.456 175.4 184.456 175.4 182.856V181.656C175.4 180.056 176.3 179.056 177.7 179.056ZM186 175.756V178.056H183.7V179.156H186V183.956C186 185.756 187 186.556 189.1 186.556C189.5 186.556 190.5 186.556 190.7 186.456V185.356C190.5 185.356 189.6 185.356 189.1 185.356C187.9 185.356 187.3 184.856 187.3 183.956V179.156H190.7V178.056H187.3V175.756H186ZM178.1 196.856C176.9 196.856 176 197.356 175.6 198.256H175.5V196.956H174.2V208.256H175.6V204.056H175.7C176.1 204.956 177 205.556 178.2 205.556C180.2 205.556 181.4 204.156 181.4 201.956V200.356C181.3 198.256 180.1 196.856 178.1 196.856ZM177.7 198.056C179.1 198.056 180 199.056 180 200.656V201.856C180 203.456 179.1 204.456 177.7 204.456C176.3 204.456 175.4 203.456 175.4 201.856V200.656C175.4 199.056 176.3 198.056 177.7 198.056ZM187.1 201.656C187.1 199.456 188.2 198.156 190.1 198.156C190.6 198.156 191.1 198.256 191.5 198.356V196.856C191.2 196.756 190.8 196.656 190.3 196.656C188.7 196.656 187.6 197.456 187.3 199.056H187.1V196.856H183.9V197.956H185.8V204.356H184.1V205.456H189.7V204.356H187.1V201.656ZM197.5 194.956C198.1 194.956 198.6 194.456 198.6 193.856C198.6 193.256 198.1 192.756 197.5 192.756C196.9 192.756 196.4 193.256 196.4 193.856C196.4 194.456 196.9 194.956 197.5 194.956ZM201.1 205.456V204.356H198.3V196.956H194.1V198.056H197V204.356H194.1V205.456H201.1ZM203.8 205.456H205.1V200.456C205.1 199.056 206 198.056 207.4 198.056C208.7 198.056 209.3 198.756 209.3 200.256V205.456H210.6V199.956C210.6 197.956 209.6 196.856 207.8 196.856C206.5 196.856 205.5 197.456 205.1 198.456H205V196.956H203.7V205.456H203.8ZM215.7 194.756V197.056H213.4V198.156H215.7V202.956C215.7 204.756 216.7 205.556 218.8 205.556C219.2 205.556 220.2 205.556 220.4 205.456V204.356C220.2 204.356 219.3 204.356 218.8 204.356C217.6 204.356 217 203.856 217 202.956V198.156H220.4V197.056H217V194.756H215.7Z" fill="#1A15FD"/>
<path d="M138.2 61.9561C138.8 61.9561 139.3 61.4561 139.3 60.8561C139.3 60.2561 138.8 59.7561 138.2 59.7561C137.6 59.7561 137.1 60.2561 137.1 60.8561C137.1 61.4561 137.5 61.9561 138.2 61.9561ZM141.7 72.4561V71.3561H138.9V63.9561H134.7V65.0561H137.6V71.3561H134.7V72.4561H141.7ZM144.4 72.4561H145.7V67.4561C145.7 66.0561 146.6 65.0561 148 65.0561C149.3 65.0561 149.9 65.7561 149.9 67.2561V72.4561H151.2V66.9561C151.2 64.9561 150.2 63.8561 148.4 63.8561C147.1 63.8561 146.1 64.4561 145.7 65.4561H145.6V63.9561H144.3V72.4561H144.4ZM154.7 66.2561C154.7 67.4561 155.5 68.2561 157 68.5561L158.3 68.8561C159.4 69.0561 159.8 69.4561 159.8 70.1561C159.8 70.9561 159.1 71.4561 157.9 71.4561C156.8 71.4561 156.1 70.9561 155.9 70.2561H154.5C154.6 71.7561 155.9 72.6561 157.8 72.6561C159.8 72.6561 161.1 71.6561 161.1 70.0561C161.1 68.8561 160.3 68.1561 158.7 67.7561L157.5 67.4561C156.4 67.2561 156 66.8561 156 66.2561C156 65.4561 156.7 64.9561 157.8 64.9561C158.8 64.9561 159.5 65.4561 159.7 66.1561H161C160.8 64.7561 159.6 63.8561 157.9 63.8561C156 63.8561 154.7 64.8561 154.7 66.2561ZM167.8 61.9561C168.4 61.9561 168.9 61.4561 168.9 60.8561C168.9 60.2561 168.4 59.7561 167.8 59.7561C167.2 59.7561 166.7 60.2561 166.7 60.8561C166.7 61.4561 167.2 61.9561 167.8 61.9561ZM171.4 72.4561V71.3561H168.6V63.9561H164.4V65.0561H167.3V71.3561H164.4V72.4561H171.4ZM177.3 75.6561C179.6 75.6561 181 74.4561 181 72.4561V63.9561H179.7V65.2561H179.5C179.1 64.3561 178.2 63.7561 177 63.7561C175 63.7561 173.7 65.1561 173.7 67.3561V68.8561C173.7 71.0561 175 72.4561 176.9 72.4561C178.1 72.4561 179.1 71.9561 179.4 71.0561H179.5V72.3561C179.5 73.7561 178.7 74.4561 177.2 74.4561C176.1 74.4561 175.2 73.9561 175 73.2561H173.7C174 74.7561 175.4 75.6561 177.3 75.6561ZM175 68.7561V67.5561C175 65.9561 175.9 64.9561 177.3 64.9561C178.7 64.9561 179.6 65.9561 179.6 67.5561V68.7561C179.6 70.3561 178.7 71.3561 177.3 71.3561C176 71.3561 175 70.3561 175 68.7561ZM184 72.4561H185.3V67.4561C185.3 66.0561 186.2 65.0561 187.6 65.0561C188.9 65.0561 189.6 65.7561 189.6 67.2561V72.4561H190.9V66.9561C190.9 64.9561 189.9 63.8561 188.1 63.8561C186.8 63.8561 185.8 64.4561 185.4 65.4561H185.3V60.6561H184V72.4561ZM195.9 61.7561V64.0561H193.6V65.1561H195.9V69.9561C195.9 71.7561 196.9 72.5561 199 72.5561C199.4 72.5561 200.4 72.5561 200.6 72.4561V71.3561C200.4 71.3561 199.5 71.3561 199 71.3561C197.8 71.3561 197.2 70.8561 197.2 69.9561V65.1561H200.6V64.0561H197.2V61.7561H195.9ZM247 61.9561C247.6 61.9561 248.1 61.4561 248.1 60.8561C248.1 60.2561 247.6 59.7561 247 59.7561C246.4 59.7561 245.9 60.2561 245.9 60.8561C245.9 61.4561 246.3 61.9561 247 61.9561ZM250.5 72.4561V71.3561H247.7V63.9561H243.5V65.0561H246.4V71.3561H243.5V72.4561H250.5ZM253.2 72.4561H254.5V67.4561C254.5 66.0561 255.4 65.0561 256.8 65.0561C258.1 65.0561 258.7 65.7561 258.7 67.2561V72.4561H260V66.9561C260 64.9561 259 63.8561 257.2 63.8561C255.9 63.8561 254.9 64.4561 254.5 65.4561V63.9561H253.2V72.4561ZM263.5 66.2561C263.5 67.4561 264.3 68.2561 265.8 68.5561L267.1 68.8561C268.2 69.0561 268.6 69.4561 268.6 70.1561C268.6 70.9561 267.9 71.4561 266.7 71.4561C265.6 71.4561 264.9 70.9561 264.7 70.2561H263.3C263.4 71.7561 264.7 72.6561 266.6 72.6561C268.6 72.6561 269.9 71.6561 269.9 70.0561C269.9 68.8561 269.1 68.1561 267.5 67.7561L266.3 67.4561C265.2 67.2561 264.8 66.8561 264.8 66.2561C264.8 65.4561 265.5 64.9561 266.6 64.9561C267.6 64.9561 268.3 65.4561 268.5 66.1561H269.8C269.6 64.7561 268.4 63.8561 266.7 63.8561C264.7 63.8561 263.5 64.8561 263.5 66.2561ZM276.6 61.9561C277.2 61.9561 277.7 61.4561 277.7 60.8561C277.7 60.2561 277.2 59.7561 276.6 59.7561C276 59.7561 275.5 60.2561 275.5 60.8561C275.5 61.4561 276 61.9561 276.6 61.9561ZM280.2 72.4561V71.3561H277.4V63.9561H273.2V65.0561H276.1V71.3561H273.2V72.4561H280.2ZM286.1 75.6561C288.4 75.6561 289.8 74.4561 289.8 72.4561V63.9561H288.5V65.2561H288.4C288 64.3561 287.1 63.7561 285.9 63.7561C283.9 63.7561 282.6 65.1561 282.6 67.3561V68.8561C282.6 71.0561 283.9 72.4561 285.8 72.4561C287 72.4561 288 71.9561 288.3 71.0561H288.4V72.3561C288.4 73.7561 287.6 74.4561 286.1 74.4561C285 74.4561 284.1 73.9561 283.9 73.2561H282.6C282.8 74.7561 284.2 75.6561 286.1 75.6561ZM283.8 68.7561V67.5561C283.8 65.9561 284.7 64.9561 286.1 64.9561C287.5 64.9561 288.4 65.9561 288.4 67.5561V68.7561C288.4 70.3561 287.5 71.3561 286.1 71.3561C284.7 71.3561 283.8 70.3561 283.8 68.7561ZM292.8 72.4561H294.1V67.4561C294.1 66.0561 295 65.0561 296.4 65.0561C297.7 65.0561 298.4 65.7561 298.4 67.2561V72.4561H299.7V66.9561C299.7 64.9561 298.7 63.8561 296.9 63.8561C295.6 63.8561 294.6 64.4561 294.2 65.4561H294.1V60.6561H292.8V72.4561ZM304.7 61.7561V64.0561H302.4V65.1561H304.7V69.9561C304.7 71.7561 305.7 72.5561 307.8 72.5561C308.2 72.5561 309.2 72.5561 309.4 72.4561V71.3561C309.2 71.3561 308.3 71.3561 307.8 71.3561C306.6 71.3561 306 70.8561 306 69.9561V65.1561H309.4V64.0561H306V61.7561H304.7ZM313 66.2561C313 67.4561 313.8 68.2561 315.3 68.5561L316.6 68.8561C317.7 69.0561 318.1 69.4561 318.1 70.1561C318.1 70.9561 317.4 71.4561 316.2 71.4561C315.1 71.4561 314.4 70.9561 314.2 70.2561H312.8C312.9 71.7561 314.2 72.6561 316.1 72.6561C318.1 72.6561 319.4 71.6561 319.4 70.0561C319.4 68.8561 318.6 68.1561 317 67.7561L315.8 67.4561C314.7 67.2561 314.3 66.8561 314.3 66.2561C314.3 65.4561 315 64.9561 316.1 64.9561C317.1 64.9561 317.8 65.4561 318 66.1561H319.3C319.1 64.7561 317.9 63.8561 316.2 63.8561C314.2 63.8561 313 64.8561 313 66.2561ZM325.9 66.5561C326.7 66.5561 327.3 65.8561 327.3 65.1561C327.3 64.3561 326.7 63.7561 325.9 63.7561C325.1 63.7561 324.5 64.4561 324.5 65.1561C324.5 65.8561 325.2 66.5561 325.9 66.5561ZM325.9 72.5561C326.7 72.5561 327.3 71.9561 327.3 71.1561C327.3 70.3561 326.7 69.7561 325.9 69.7561C325.1 69.7561 324.5 70.3561 324.5 71.1561C324.5 71.8561 325.2 72.5561 325.9 72.5561ZM167.7 85.5561C168.5 85.5561 169.1 84.8561 169.1 84.1561C169.1 83.3561 168.5 82.7561 167.7 82.7561C166.9 82.7561 166.3 83.4561 166.3 84.1561C166.3 84.8561 166.9 85.5561 167.7 85.5561ZM167.7 91.5561C168.5 91.5561 169.1 90.9561 169.1 90.1561C169.1 89.3561 168.5 88.7561 167.7 88.7561C166.9 88.7561 166.3 89.3561 166.3 90.1561C166.3 90.8561 166.9 91.5561 167.7 91.5561ZM174.5 104.256C174.5 105.456 175.3 106.256 176.8 106.556L178.1 106.856C179.2 107.056 179.6 107.456 179.6 108.156C179.6 108.956 178.9 109.456 177.7 109.456C176.6 109.456 175.9 108.956 175.7 108.256H174.3C174.4 109.756 175.7 110.656 177.6 110.656C179.6 110.656 180.9 109.656 180.9 108.056C180.9 106.856 180.1 106.156 178.5 105.756L177.3 105.456C176.2 105.256 175.8 104.856 175.8 104.256C175.8 103.456 176.5 102.956 177.6 102.956C178.6 102.956 179.3 103.456 179.5 104.156H180.8C180.6 102.756 179.4 101.856 177.7 101.856C175.7 101.856 174.5 102.856 174.5 104.256ZM186.9 110.656C188.1 110.656 189 110.156 189.4 109.256H189.5V110.556H190.8V98.7561H189.4V103.356H189.3C188.9 102.456 188 101.856 186.8 101.856C184.8 101.856 183.6 103.256 183.6 105.456V107.056C183.7 109.256 185 110.656 186.9 110.656ZM187.3 109.456C185.9 109.456 185 108.456 185 106.856V105.656C185 104.056 185.9 103.056 187.3 103.056C188.7 103.056 189.6 104.056 189.6 105.656V106.856C189.6 108.456 188.7 109.456 187.3 109.456ZM195.9 105.856H195.8V98.7561H194.5V110.556H195.8V107.456L197 106.356L199.9 110.556H201.5L198 105.456L201.3 102.056H199.7L195.9 105.856ZM207.2 110.556C208 110.556 208.6 109.956 208.6 109.156C208.6 108.356 208 107.756 207.2 107.756C206.4 107.756 205.8 108.356 205.8 109.156C205.8 109.856 206.5 110.556 207.2 110.556ZM276.5 110.556C277.3 110.556 277.9 109.956 277.9 109.156C277.9 108.356 277.3 107.756 276.5 107.756C275.7 107.756 275.1 108.356 275.1 109.156C275.1 109.856 275.7 110.556 276.5 110.556ZM393.5 104.856C393.5 107.556 394.3 109.856 395.9 111.556H397.2C395.6 109.256 394.9 107.256 394.9 104.856C394.9 102.456 395.6 100.456 397.2 98.1561H395.9C394.3 99.8561 393.5 102.156 393.5 104.856ZM340 123.356V122.056H331.7V123.356H340ZM340 126.956V125.656H331.7V126.956H340ZM394.5 132.056L396 126.956H394.2L393.2 132.056H394.5ZM290.5 142.356V141.056H282.2V142.356H290.5ZM290.5 145.956V144.656H282.2V145.956H290.5ZM296.4 137.956C297 137.956 297.5 137.456 297.5 136.856C297.5 136.256 297 135.756 296.4 135.756C295.8 135.756 295.3 136.256 295.3 136.856C295.3 137.456 295.8 137.956 296.4 137.956ZM300 148.456V147.356H297.2V139.956H293V141.056H295.9V147.356H293V148.456H300ZM302.7 148.456H304V143.456C304 142.056 304.9 141.056 306.3 141.056C307.6 141.056 308.2 141.756 308.2 143.256V148.456H309.5V142.956C309.5 140.956 308.5 139.856 306.7 139.856C305.4 139.856 304.4 140.456 304 141.456H303.9V139.956H302.6V148.456H302.7ZM313 142.256C313 143.456 313.8 144.256 315.3 144.556L316.6 144.856C317.7 145.056 318.1 145.456 318.1 146.156C318.1 146.956 317.4 147.456 316.2 147.456C315.1 147.456 314.4 146.956 314.2 146.256H312.8C312.9 147.756 314.2 148.656 316.1 148.656C318.1 148.656 319.4 147.656 319.4 146.056C319.4 144.856 318.6 144.156 317 143.756L315.8 143.456C314.7 143.256 314.3 142.856 314.3 142.256C314.3 141.456 315 140.956 316.1 140.956C317.1 140.956 317.8 141.456 318 142.156H319.3C319.1 140.756 317.9 139.856 316.2 139.856C314.2 139.856 313 140.856 313 142.256ZM326.1 137.956C326.7 137.956 327.2 137.456 327.2 136.856C327.2 136.256 326.7 135.756 326.1 135.756C325.5 135.756 325 136.256 325 136.856C325 137.456 325.5 137.956 326.1 137.956ZM329.6 148.456V147.356H326.8V139.956H322.6V141.056H325.5V147.356H322.6V148.456H329.6ZM335.6 151.656C337.9 151.656 339.3 150.456 339.3 148.456V139.956H338V141.256H337.9C337.5 140.356 336.6 139.756 335.4 139.756C333.4 139.756 332.1 141.156 332.1 143.356V144.856C332.1 147.056 333.4 148.456 335.3 148.456C336.5 148.456 337.5 147.956 337.8 147.056H337.9V148.356C337.9 149.756 337.1 150.456 335.6 150.456C334.5 150.456 333.6 149.956 333.4 149.256H332.1C332.3 150.756 333.6 151.656 335.6 151.656ZM333.3 144.756V143.556C333.3 141.956 334.2 140.956 335.6 140.956C337 140.956 337.9 141.956 337.9 143.556V144.756C337.9 146.356 337 147.356 335.6 147.356C334.2 147.356 333.3 146.356 333.3 144.756ZM342.2 148.456H343.5V143.456C343.5 142.056 344.4 141.056 345.8 141.056C347.1 141.056 347.8 141.756 347.8 143.256V148.456H349.1V142.956C349.1 140.956 348.1 139.856 346.3 139.856C345 139.856 344 140.456 343.6 141.456H343.5V136.656H342.2V148.456ZM354.2 137.756V140.056H351.9V141.156H354.2V145.956C354.2 147.756 355.2 148.556 357.3 148.556C357.7 148.556 358.7 148.556 358.9 148.456V147.356C358.7 147.356 357.8 147.356 357.3 147.356C356.1 147.356 355.5 146.856 355.5 145.956V141.156H358.9V140.056H355.5V137.756H354.2ZM179.3 161.856C179.3 159.256 178.5 156.856 176.9 155.156H175.6C177.2 157.456 177.9 159.456 177.9 161.856C177.9 164.356 177.2 166.256 175.6 168.556H176.9C178.5 166.756 179.3 164.456 179.3 161.856ZM210.7 185.256H205.5V181.356H210.5V180.156H205.5V176.456H210.8V175.156H204.1V186.456H210.8V185.256H210.7ZM217.2 183.256L219.3 186.556H220.8L217.9 182.256L220.8 178.056H219.3L217.2 181.256H217.1L215 178.056H213.4L216.3 182.256L213.4 186.456H214.9L217 183.156H217.2V183.256ZM230.6 180.656C230.4 178.956 229.1 177.856 227.2 177.856C224.9 177.856 223.6 179.256 223.6 181.656V182.756C223.6 185.156 224.9 186.556 227.2 186.556C229.1 186.556 230.4 185.456 230.6 183.756H229.3C229.1 184.756 228.3 185.356 227.2 185.356C225.7 185.356 224.9 184.356 224.9 182.556V181.756C224.9 179.956 225.7 178.956 227.2 178.956C228.3 178.956 229.1 179.556 229.3 180.556H230.6V180.656ZM239.2 184.256C239 184.956 238.2 185.456 237.1 185.456C235.7 185.456 234.7 184.456 234.7 182.856V182.556H240.5V181.756C240.5 179.256 239.2 177.856 237 177.856C234.8 177.856 233.4 179.356 233.4 181.556V182.856C233.4 185.256 234.8 186.656 237.1 186.656C238.9 186.656 240.2 185.756 240.5 184.356H239.2V184.256ZM237 178.956C238.4 178.956 239.2 179.956 239.2 181.556H234.7C234.7 179.956 235.6 178.956 237 178.956ZM247.3 177.856C246.1 177.856 245.2 178.356 244.8 179.256H244.7V177.956H243.4V189.256H244.8V185.056H244.9C245.3 185.956 246.2 186.556 247.4 186.556C249.4 186.556 250.6 185.156 250.6 182.956V181.356C250.6 179.256 249.3 177.856 247.3 177.856ZM247 179.056C248.4 179.056 249.3 180.056 249.3 181.656V182.856C249.3 184.456 248.4 185.456 247 185.456C245.6 185.456 244.7 184.456 244.7 182.856V181.656C244.7 180.056 245.6 179.056 247 179.056ZM255.3 175.756V178.056H253V179.156H255.3V183.956C255.3 185.756 256.3 186.556 258.4 186.556C258.8 186.556 259.8 186.556 260 186.456V185.356C259.8 185.356 258.9 185.356 258.4 185.356C257.2 185.356 256.6 184.856 256.6 183.956V179.156H260V178.056H256.6V175.756H255.3ZM266.7 175.956C267.3 175.956 267.8 175.456 267.8 174.856C267.8 174.256 267.3 173.756 266.7 173.756C266.1 173.756 265.6 174.256 265.6 174.856C265.6 175.456 266.1 175.956 266.7 175.956ZM270.3 186.456V185.356H267.5V177.956H263.3V179.056H266.2V185.356H263.3V186.456H270.3ZM276.5 186.656C278.7 186.656 280.2 185.156 280.2 182.856V181.556C280.2 179.256 278.8 177.756 276.5 177.756C274.3 177.756 272.8 179.256 272.8 181.556V182.856C272.8 185.156 274.2 186.656 276.5 186.656ZM276.5 179.056C278 179.056 278.9 180.056 278.9 181.756V182.756C278.9 184.456 278 185.456 276.5 185.456C275 185.456 274.1 184.456 274.1 182.756V181.756C274.1 180.056 275 179.056 276.5 179.056ZM282.9 186.456H284.2V181.456C284.2 180.056 285.1 179.056 286.5 179.056C287.8 179.056 288.4 179.756 288.4 181.256V186.456H289.7V180.956C289.7 178.956 288.7 177.856 286.9 177.856C285.6 177.856 284.6 178.456 284.2 179.456H284.1V177.956H282.8V186.456H282.9ZM296.3 180.556C297.1 180.556 297.7 179.856 297.7 179.156C297.7 178.356 297.1 177.756 296.3 177.756C295.5 177.756 294.9 178.456 294.9 179.156C294.8 179.856 295.5 180.556 296.3 180.556ZM296.3 186.556C297.1 186.556 297.7 185.956 297.7 185.156C297.7 184.356 297.1 183.756 296.3 183.756C295.5 183.756 294.9 184.356 294.9 185.156C294.8 185.856 295.5 186.556 296.3 186.556ZM225.3 199.856C225.3 202.556 226.1 204.856 227.7 206.556H229C227.4 204.256 226.7 202.256 226.7 199.856C226.7 197.356 227.4 195.456 229 193.156H227.7C226.1 194.856 225.3 197.156 225.3 199.856ZM398.2 206.556V205.456H397.3C396.1 205.456 395.9 205.156 395.9 203.856V201.756C395.9 200.656 395.1 199.956 393.5 199.856V199.756C395.1 199.756 395.9 198.956 395.9 197.856V195.756C395.9 194.356 396.1 194.156 397.3 194.156H398.2V193.056H397.1C395.2 193.056 394.6 193.656 394.6 195.556V197.356C394.6 198.556 393.9 199.256 392.1 199.056V200.456C393.9 200.256 394.6 200.956 394.6 202.156V203.956C394.6 205.856 395.2 206.456 397.1 206.456H398.2V206.556ZM405.2 194.956C405.8 194.956 406.3 194.456 406.3 193.856C406.3 193.256 405.8 192.756 405.2 192.756C404.6 192.756 404.1 193.256 404.1 193.856C404.1 194.456 404.6 194.956 405.2 194.956ZM408.8 205.456V204.356H406V196.956H401.8V198.056H404.7V204.356H401.8V205.456H408.8ZM411.5 205.456H412.8V200.456C412.8 199.056 413.7 198.056 415.1 198.056C416.4 198.056 417 198.756 417 200.256V205.456H418.3V199.956C418.3 197.956 417.3 196.856 415.5 196.856C414.2 196.856 413.2 197.456 412.8 198.456H412.7V196.956H411.5V205.456ZM421.7 199.256C421.7 200.456 422.5 201.256 424 201.556L425.3 201.856C426.4 202.056 426.8 202.456 426.8 203.156C426.8 203.956 426.1 204.456 424.9 204.456C423.8 204.456 423.1 203.956 422.9 203.256H421.5C421.6 204.756 422.9 205.656 424.8 205.656C426.8 205.656 428.1 204.656 428.1 203.056C428.1 201.856 427.3 201.156 425.7 200.756L424.5 200.456C423.4 200.256 423 199.856 423 199.256C423 198.456 423.7 197.956 424.8 197.956C425.8 197.956 426.5 198.456 426.7 199.156H428C427.8 197.756 426.6 196.856 424.9 196.856C423 196.856 421.7 197.856 421.7 199.256ZM434.9 194.956C435.5 194.956 436 194.456 436 193.856C436 193.256 435.5 192.756 434.9 192.756C434.3 192.756 433.8 193.256 433.8 193.856C433.8 194.456 434.3 194.956 434.9 194.956ZM438.4 205.456V204.356H435.6V196.956H431.4V198.056H434.3V204.356H431.4V205.456H438.4ZM444.4 208.656C446.7 208.656 448.1 207.456 448.1 205.456V196.956H446.8V198.256H446.7C446.3 197.356 445.4 196.756 444.2 196.756C442.2 196.756 440.9 198.156 440.9 200.356V201.856C440.9 204.056 442.2 205.456 444.1 205.456C445.3 205.456 446.3 204.956 446.6 204.056H446.7V205.356C446.7 206.756 445.9 207.456 444.4 207.456C443.3 207.456 442.4 206.956 442.2 206.256H440.9C441.1 207.756 442.4 208.656 444.4 208.656ZM442.1 201.756V200.556C442.1 198.956 443 197.956 444.4 197.956C445.8 197.956 446.7 198.956 446.7 200.556V201.756C446.7 203.356 445.8 204.356 444.4 204.356C443 204.356 442.1 203.356 442.1 201.756ZM451 205.456H452.3V200.456C452.3 199.056 453.2 198.056 454.6 198.056C455.9 198.056 456.6 198.756 456.6 200.256V205.456H457.9V199.956C457.9 197.956 456.9 196.856 455.1 196.856C453.8 196.856 452.8 197.456 452.4 198.456H452.3V193.656H451V205.456ZM463 194.756V197.056H460.7V198.156H463V202.956C463 204.756 464 205.556 466.1 205.556C466.5 205.556 467.5 205.556 467.7 205.456V204.356C467.5 204.356 466.6 204.356 466.1 204.356C464.9 204.356 464.3 203.856 464.3 202.956V198.156H467.7V197.056H464.3V194.756H463ZM474.3 205.556C475.1 205.556 475.7 204.956 475.7 204.156C475.7 203.356 475.1 202.756 474.3 202.756C473.5 202.756 472.9 203.356 472.9 204.156C472.9 204.856 473.5 205.556 474.3 205.556ZM530.6 206.556H531.7C533.6 206.556 534.2 205.956 534.2 204.056V202.256C534.2 201.056 534.9 200.356 536.7 200.556V199.156C534.9 199.356 534.2 198.656 534.2 197.456V195.656C534.2 193.756 533.6 193.156 531.7 193.156H530.6V194.256H531.5C532.7 194.256 532.9 194.556 532.9 195.856V197.956C532.9 199.056 533.7 199.756 535.3 199.856V199.956C533.7 199.956 532.9 200.756 532.9 201.856V203.956C532.9 205.356 532.7 205.556 531.5 205.556H530.6V206.556ZM179.3 218.856C179.3 216.256 178.5 213.856 176.9 212.156H175.6C177.2 214.456 177.9 216.456 177.9 218.856C177.9 221.356 177.2 223.256 175.6 225.556H176.9C178.5 223.756 179.3 221.456 179.3 218.856Z" fill="black"/>
<path d="M215.7 99.7561V102.056H213.4V103.156H215.7V107.956C215.7 109.756 216.7 110.556 218.8 110.556C219.2 110.556 220.2 110.556 220.4 110.456V109.356C220.2 109.356 219.3 109.356 218.8 109.356C217.6 109.356 217 108.856 217 107.956V103.156H220.4V102.056H217V99.7561H215.7ZM226.2 110.656C227.4 110.656 228.4 110.156 228.8 109.256H228.9V110.556H230.2V104.756C230.2 102.956 229.1 101.956 227.1 101.956C225.4 101.956 224.1 102.856 223.9 104.256H225.2C225.4 103.556 226.1 103.156 227.1 103.156C228.3 103.156 228.9 103.756 228.9 104.756V105.556H226.5C224.6 105.656 223.5 106.556 223.5 108.056C223.5 109.656 224.5 110.656 226.2 110.656ZM226.5 109.456C225.4 109.456 224.8 108.956 224.8 108.056C224.8 107.156 225.4 106.656 226.6 106.656L228.8 106.556V107.556C228.8 108.656 227.8 109.456 226.5 109.456ZM237.4 110.656C239.4 110.656 240.6 109.256 240.6 107.056V105.456C240.6 103.256 239.3 101.856 237.4 101.856C236.2 101.856 235.3 102.356 234.9 103.356H234.8V98.7561H233.5V110.556H234.8V109.256H234.9C235.3 110.156 236.2 110.656 237.4 110.656ZM237.1 109.456C235.7 109.456 234.8 108.456 234.8 106.856V105.656C234.8 104.056 235.7 103.056 237.1 103.056C238.5 103.056 239.4 104.056 239.4 105.656V106.856C239.4 108.356 238.5 109.456 237.1 109.456ZM250.5 110.456V109.356H247.7V98.6561H243.5V99.7561H246.4V109.356H243.5V110.456H250.5ZM259 108.256C258.8 108.956 258 109.456 256.9 109.456C255.5 109.456 254.5 108.456 254.5 106.856V106.556H260.3V105.756C260.3 103.256 259 101.856 256.8 101.856C254.6 101.856 253.2 103.356 253.2 105.556V106.856C253.2 109.256 254.6 110.656 256.9 110.656C258.7 110.656 260 109.756 260.3 108.356H259V108.256ZM256.8 102.956C258.2 102.956 259 103.956 259 105.556H254.5C254.5 103.956 255.4 102.956 256.8 102.956ZM263.5 104.256C263.5 105.456 264.3 106.256 265.8 106.556L267.1 106.856C268.2 107.056 268.6 107.456 268.6 108.156C268.6 108.956 267.9 109.456 266.7 109.456C265.6 109.456 264.9 108.956 264.7 108.256H263.3C263.4 109.756 264.7 110.656 266.6 110.656C268.6 110.656 269.9 109.656 269.9 108.056C269.9 106.856 269.1 106.156 267.5 105.756L266.3 105.456C265.2 105.256 264.8 104.856 264.8 104.256C264.8 103.456 265.5 102.956 266.6 102.956C267.6 102.956 268.3 103.456 268.5 104.156H269.8C269.6 102.756 268.4 101.856 266.7 101.856C264.7 101.856 263.5 102.856 263.5 104.256ZM482.7 194.756V197.056H480.5V198.156H482.8V202.956C482.8 204.756 483.8 205.556 485.9 205.556C486.3 205.556 487.3 205.556 487.5 205.456V204.356C487.3 204.356 486.4 204.356 485.9 204.356C484.7 204.356 484.1 203.856 484.1 202.956V198.156H487.5V197.056H484.1V194.756H482.7ZM494.2 194.956C494.8 194.956 495.3 194.456 495.3 193.856C495.3 193.256 494.8 192.756 494.2 192.756C493.6 192.756 493.1 193.256 493.1 193.856C493.1 194.456 493.6 194.956 494.2 194.956ZM497.8 205.456V204.356H495V196.956H490.8V198.056H493.7V204.356H490.8V205.456H497.8ZM502.5 194.756V197.056H500.2V198.156H502.5V202.956C502.5 204.756 503.5 205.556 505.6 205.556C506 205.556 507 205.556 507.2 205.456V204.356C507 204.356 506.1 204.356 505.6 204.356C504.4 204.356 503.8 203.856 503.8 202.956V198.156H507.2V197.056H503.8V194.756H502.5ZM517.6 205.456V204.356H514.8V193.656H510.6V194.756H513.5V204.356H510.5V205.456H517.6ZM526 203.256C525.8 203.956 525 204.456 523.9 204.456C522.5 204.456 521.5 203.456 521.5 201.856V201.556H527.3V200.756C527.3 198.256 526 196.856 523.8 196.856C521.6 196.856 520.2 198.356 520.2 200.556V201.856C520.2 204.256 521.6 205.656 523.9 205.656C525.7 205.656 527 204.756 527.3 203.356H526V203.256ZM523.8 197.956C525.2 197.956 526 198.956 526 200.556H521.5C521.6 198.956 522.4 197.956 523.8 197.956Z" fill="#919191"/>
<path d="M285.1 110.456H286.4V103.156H290.1V102.056H286.4V101.156C286.4 100.256 287 99.8561 288.2 99.8561C288.7 99.8561 289.8 99.8561 290.1 99.9561V98.8561C289.8 98.8561 288.6 98.7561 288.1 98.7561C286 98.7561 285 99.5561 285 101.156V102.056H282.7V103.156H285V110.456H285.1ZM296.3 110.656C298.5 110.656 300 109.156 300 106.856V105.556C300 103.256 298.6 101.756 296.3 101.756C294 101.756 292.6 103.256 292.6 105.556V106.856C292.6 109.156 294 110.656 296.3 110.656ZM296.3 103.056C297.8 103.056 298.7 104.056 298.7 105.756V106.756C298.7 108.456 297.8 109.456 296.3 109.456C294.8 109.456 293.9 108.456 293.9 106.756V105.756C293.9 104.056 294.8 103.056 296.3 103.056ZM305.8 106.656C305.8 104.456 306.9 103.156 308.8 103.156C309.3 103.156 309.8 103.256 310.2 103.356V101.856C309.9 101.756 309.5 101.656 309 101.656C307.4 101.656 306.3 102.456 306 104.056H305.8V101.856H302.6V102.956H304.5V109.356H302.8V110.456H308.4V109.356H305.8V106.656ZM320.1 112.956V111.856H312V112.956H320.1ZM326.1 99.9561C326.7 99.9561 327.2 99.4561 327.2 98.8561C327.2 98.2561 326.7 97.7561 326.1 97.7561C325.5 97.7561 325 98.2561 325 98.8561C325 99.4561 325.5 99.9561 326.1 99.9561ZM329.6 110.456V109.356H326.8V101.956H322.6V103.056H325.5V109.356H322.6V110.456H329.6ZM332.4 110.456H333.7V105.456C333.7 104.056 334.6 103.056 336 103.056C337.3 103.056 337.9 103.756 337.9 105.256V110.456H339.2V104.956C339.2 102.956 338.2 101.856 336.4 101.856C335.1 101.856 334.1 102.456 333.7 103.456H333.6V101.956H332.3V110.456H332.4ZM342.6 104.256C342.6 105.456 343.4 106.256 344.9 106.556L346.2 106.856C347.3 107.056 347.7 107.456 347.7 108.156C347.7 108.956 347 109.456 345.8 109.456C344.7 109.456 344 108.956 343.8 108.256H342.4C342.5 109.756 343.8 110.656 345.7 110.656C347.7 110.656 349 109.656 349 108.056C349 106.856 348.2 106.156 346.6 105.756L345.4 105.456C344.3 105.256 343.9 104.856 343.9 104.256C343.9 103.456 344.6 102.956 345.7 102.956C346.7 102.956 347.4 103.456 347.6 104.156H348.9C348.7 102.756 347.5 101.856 345.8 101.856C343.9 101.856 342.6 102.856 342.6 104.256ZM355.7 99.9561C356.3 99.9561 356.8 99.4561 356.8 98.8561C356.8 98.2561 356.3 97.7561 355.7 97.7561C355.1 97.7561 354.6 98.2561 354.6 98.8561C354.6 99.4561 355.1 99.9561 355.7 99.9561ZM359.3 110.456V109.356H356.5V101.956H352.3V103.056H355.2V109.356H352.3V110.456H359.3ZM365.2 113.656C367.5 113.656 368.9 112.456 368.9 110.456V101.956H367.6V103.256H367.5C367.1 102.356 366.2 101.756 365 101.756C363 101.756 361.7 103.156 361.7 105.356V106.856C361.7 109.056 363 110.456 364.9 110.456C366.1 110.456 367.1 109.956 367.4 109.056H367.5V110.356C367.5 111.756 366.7 112.456 365.2 112.456C364.1 112.456 363.2 111.956 363 111.256H361.7C362 112.756 363.3 113.656 365.2 113.656ZM363 106.756V105.556C363 103.956 363.9 102.956 365.3 102.956C366.7 102.956 367.6 103.956 367.6 105.556V106.756C367.6 108.356 366.7 109.356 365.3 109.356C363.9 109.356 363 108.356 363 106.756ZM371.9 110.456H373.2V105.456C373.2 104.056 374.1 103.056 375.5 103.056C376.8 103.056 377.5 103.756 377.5 105.256V110.456H378.8V104.956C378.8 102.956 377.8 101.856 376 101.856C374.7 101.856 373.7 102.456 373.3 103.456H373.2V98.6561H371.9V110.456ZM383.8 99.7561V102.056H381.5V103.156H383.8V107.956C383.8 109.756 384.8 110.556 386.9 110.556C387.3 110.556 388.3 110.556 388.5 110.456V109.356C388.3 109.356 387.4 109.356 386.9 109.356C385.7 109.356 385.1 108.856 385.1 107.956V103.156H388.5V102.056H385.1V99.7561H383.8Z" fill="#BB0894"/>
<path d="M656.5 148.456H92.5V216.456H656.5V148.456Z" fill="url(#paint0_linear_2965_4212)"/>
</g>
<path d="M541.8 296.949H437.6" stroke="#1C0D3F" stroke-width="2" stroke-dasharray="6.8 6.8"/>
<path d="M311.5 296.949H207.3" stroke="#1C0D3F" stroke-width="2" stroke-dasharray="6.8 6.8"/>
<path d="M485.329 304.949L494.229 296.949L485.329 288.949" stroke="#1C0D3F" stroke-width="2" stroke-linecap="round" stroke-linejoin="round"/>
<path d="M264.719 304.949L255.819 296.949L264.719 288.949" stroke="#1C0D3F" stroke-width="2" stroke-linecap="round" stroke-linejoin="round"/>
<g filter="url(#filter1_dddddd_2965_4212)">
<path d="M605.2 335.249C626.352 335.249 643.5 318.102 643.5 296.949C643.5 275.797 626.352 258.649 605.2 258.649C584.047 258.649 566.9 275.797 566.9 296.949C566.9 318.102 584.047 335.249 605.2 335.249Z" fill="#ED26B7"/>
</g>
<path d="M625.6 303.499C625.5 297.199 622 292.099 616.6 290.199V279.199C615.3 278.299 613.8 277.599 612.3 277.099V300.799C612.3 305.499 610.1 307.599 606.6 307.599C603.2 307.599 600.3 304.999 600.3 300.699C600.3 295.899 604.1 292.899 609 292.899C609.5 292.899 609.9 292.899 610.4 292.999V288.799C609.9 288.699 609.5 288.699 609 288.699C601.7 288.699 596 293.199 596 300.699C596 307.899 601.2 311.799 606.9 311.799C609.6 311.799 612 310.899 613.6 309.299C615.2 307.699 616.6 305.399 616.6 301.399V294.799C619.6 296.299 621.4 299.899 621.4 303.999C621.4 311.699 614.2 318.299 605.8 318.299C605.6 318.299 605.5 318.299 605.3 318.299C599.5 318.299 594.4 316.199 590.3 312.099C587.3 309.099 585.3 305.399 584.5 301.299C583.7 297.199 584.1 292.899 585.7 289.099C587.3 285.199 590 281.899 593.5 279.599C597 277.299 601.1 275.999 605.3 275.999V271.499C601.9 271.499 598.6 272.199 595.5 273.399C592.4 274.699 589.6 276.599 587.2 278.899C582.4 283.699 579.7 290.199 579.7 296.899C579.7 303.699 582.4 310.099 587.2 314.899C592 319.699 598.5 322.399 605.2 322.399H605.7C607.8 322.399 609.9 322.099 611.8 321.499C614.7 320.599 617.3 319.099 619.5 316.999C623.3 313.499 625.4 308.799 625.4 303.799C625.6 303.899 625.6 303.499 625.6 303.499Z" fill="white"/>
<g filter="url(#filter2_dddddd_2965_4212)">
<path d="M375.5 335.25C396.653 335.25 413.801 318.102 413.801 296.949C413.801 275.796 396.653 258.649 375.5 258.649C354.347 258.649 337.199 275.796 337.199 296.949C337.199 318.102 354.347 335.25 375.5 335.25Z" fill="white"/>
</g>
<path d="M375.301 268.124C360.639 268.124 361.536 274.508 361.536 274.508V281.09H375.6V283.085H355.951C355.951 283.085 346.575 281.988 346.575 296.85C346.575 311.711 354.754 311.112 354.754 311.112H359.641V304.23C359.641 304.23 359.342 296.052 367.72 296.052C376.099 296.052 381.684 296.052 381.684 296.052C381.684 296.052 389.464 296.151 389.464 288.471C389.464 280.791 389.464 275.804 389.464 275.804C389.464 275.804 390.661 268.124 375.301 268.124ZM367.521 272.612C368.917 272.612 370.014 273.71 370.014 275.106C370.014 276.502 368.917 277.599 367.521 277.599C366.124 277.599 365.027 276.502 365.027 275.106C365.027 273.71 366.124 272.612 367.521 272.612Z" fill="url(#paint1_linear_2965_4212)"/>
<path d="M375.699 325.774C390.361 325.774 389.464 319.391 389.464 319.391V312.808H375.4V310.813H395.049C395.049 310.813 404.425 311.91 404.425 297.049C404.425 282.188 396.246 282.786 396.246 282.786H391.359V289.668C391.359 289.668 391.658 297.847 383.28 297.847C374.901 297.847 369.316 297.847 369.316 297.847C369.316 297.847 361.536 297.747 361.536 305.427C361.536 313.107 361.536 318.094 361.536 318.094C361.536 318.094 360.339 325.774 375.699 325.774ZM383.479 321.286C382.083 321.286 380.986 320.189 380.986 318.793C380.986 317.396 382.083 316.299 383.479 316.299C384.876 316.299 385.973 317.396 385.973 318.793C385.973 320.189 384.876 321.286 383.479 321.286Z" fill="url(#paint2_linear_2965_4212)"/>
<g filter="url(#filter3_dddddd_2965_4212)">
<path d="M183.87 302.324C186.838 281.544 172.4 262.293 151.62 259.325C130.841 256.357 111.59 270.796 108.622 291.575C105.654 312.354 120.092 331.605 140.872 334.573C161.651 337.542 180.902 323.103 183.87 302.324Z" fill="white"/>
</g>
<path fill-rule="evenodd" clip-rule="evenodd" d="M124.254 301.823C124.254 302.261 124.336 302.712 124.513 303.148L124.51 303.142L126.364 307.788L126.361 307.785C126.909 309.161 128.217 309.994 129.598 309.994C130.029 309.994 130.474 309.912 130.898 309.738L131.634 309.435C132.263 310.192 132.94 310.888 133.665 311.53L133.358 312.268V312.265C133.17 312.711 133.076 313.181 133.076 313.645C133.076 315.015 133.873 316.323 135.203 316.899L139.754 318.855C140.192 319.044 140.655 319.135 141.106 319.135C142.464 319.135 143.755 318.33 144.324 316.988L144.327 316.985L144.638 316.239C144.728 316.247 144.818 316.255 144.907 316.263L144.908 316.263C145.354 316.302 145.8 316.342 146.25 316.342C146.581 316.342 146.912 316.318 147.242 316.294C147.338 316.288 147.434 316.281 147.53 316.274L147.828 317.017C148.376 318.39 149.685 319.225 151.065 319.225C151.497 319.225 151.938 319.141 152.362 318.969L156.949 317.091C158.305 316.537 159.129 315.213 159.129 313.817C159.129 313.376 159.047 312.927 158.873 312.497L158.58 311.751C159.322 311.115 160.011 310.429 160.643 309.695L161.373 310.01C161.814 310.198 162.276 310.29 162.727 310.29C164.087 310.29 165.381 309.482 165.949 308.139L167.882 303.528V303.525C168.068 303.079 168.154 302.613 168.154 302.158C168.154 300.781 167.359 299.472 166.028 298.901H166.035L165.302 298.585L165.32 298.371C165.361 297.904 165.402 297.437 165.402 296.966C165.402 296.629 165.377 296.291 165.352 295.953L165.352 295.951C165.345 295.851 165.337 295.751 165.331 295.651L166.066 295.351C167.422 294.792 168.24 293.469 168.238 292.076C168.238 291.632 168.158 291.186 167.991 290.76L167.988 290.756L166.136 286.111C165.587 284.734 164.278 283.903 162.9 283.903C162.465 283.903 162.021 283.985 161.594 284.16L161.599 284.159L160.863 284.458C160.237 283.707 159.56 283.01 158.835 282.37L159.146 281.63V281.627C159.334 281.182 159.422 280.714 159.422 280.259C159.422 278.884 158.625 277.574 157.297 276.999L152.746 275.041C152.305 274.851 151.843 274.761 151.388 274.761C150.033 274.761 148.741 275.564 148.174 276.915L148.176 276.911L147.861 277.655C147.786 277.649 147.712 277.642 147.637 277.635L147.637 277.635C147.179 277.594 146.721 277.552 146.256 277.552C145.929 277.552 145.601 277.576 145.272 277.6L145.272 277.6C145.171 277.607 145.07 277.614 144.969 277.621L144.673 276.879C144.124 275.504 142.815 274.671 141.436 274.674C141.001 274.671 140.557 274.756 140.133 274.933L140.139 274.93L135.548 276.804C134.191 277.362 133.369 278.688 133.369 280.085C133.369 280.522 133.449 280.972 133.622 281.405L133.921 282.146C133.175 282.784 132.486 283.468 131.854 284.201L131.125 283.888C130.684 283.699 130.221 283.609 129.768 283.609C128.414 283.607 127.115 284.411 126.554 285.761L126.556 285.757L124.621 290.37C124.435 290.814 124.343 291.282 124.343 291.742C124.343 293.114 125.137 294.425 126.468 295.001L127.202 295.314C127.194 295.404 127.186 295.494 127.178 295.584C127.139 296.035 127.099 296.486 127.099 296.94C127.099 297.263 127.123 297.589 127.146 297.914C127.154 298.024 127.162 298.134 127.17 298.243L126.439 298.542C125.079 299.101 124.254 300.426 124.254 301.823ZM127.195 300.447L128.598 299.875C129.019 299.704 129.275 299.266 129.226 298.811C129.159 298.189 129.128 297.565 129.128 296.942C129.128 296.217 129.173 295.494 129.261 294.784C129.318 294.328 129.068 293.889 128.651 293.711L127.259 293.114C126.704 292.878 126.369 292.323 126.369 291.745C126.369 291.556 126.406 291.363 126.485 291.172L128.421 286.56L128.422 286.557C128.648 286.003 129.193 285.661 129.768 285.661C129.958 285.661 130.145 285.699 130.334 285.778L131.723 286.375C132.14 286.555 132.619 286.432 132.905 286.076C133.742 285.034 134.684 284.085 135.749 283.249C136.105 282.967 136.236 282.478 136.065 282.055L135.5 280.636C135.426 280.454 135.393 280.273 135.393 280.089C135.393 279.5 135.741 278.938 136.307 278.71L140.894 276.836L140.899 276.833C141.072 276.762 141.253 276.725 141.435 276.725C142.014 276.725 142.57 277.08 142.796 277.65L143.365 279.071C143.536 279.495 143.96 279.755 144.408 279.705C145.027 279.639 145.645 279.604 146.257 279.604C146.973 279.604 147.685 279.651 148.387 279.74C148.838 279.797 149.269 279.547 149.446 279.124L150.04 277.716V277.71C150.271 277.154 150.818 276.814 151.389 276.814C151.579 276.814 151.767 276.851 151.954 276.929L156.507 278.888C157.055 279.123 157.396 279.682 157.396 280.258C157.396 280.453 157.36 280.642 157.282 280.83L156.692 282.236C156.515 282.658 156.636 283.152 156.991 283.437C158.016 284.273 158.954 285.234 159.778 286.313C160.056 286.674 160.537 286.805 160.956 286.634L162.357 286.062L162.362 286.059C162.536 285.988 162.717 285.954 162.902 285.954C163.482 285.954 164.04 286.31 164.262 286.875L166.111 291.522V291.516C166.184 291.704 166.219 291.893 166.219 292.075C166.219 292.66 165.871 293.222 165.309 293.449L163.905 294.023C163.488 294.197 163.229 294.63 163.278 295.085C163.344 295.714 163.379 296.342 163.379 296.966C163.379 297.688 163.336 298.405 163.246 299.113C163.188 299.569 163.436 300.006 163.854 300.185L165.241 300.785L165.245 300.788C165.794 301.019 166.133 301.579 166.133 302.156C166.133 302.349 166.096 302.542 166.02 302.727L166.021 302.725L164.089 307.335C163.855 307.893 163.307 308.234 162.732 308.234C162.542 308.234 162.354 308.198 162.17 308.121L160.777 307.521C160.36 307.342 159.873 307.467 159.589 307.825C158.77 308.86 157.819 309.81 156.756 310.65C156.395 310.932 156.268 311.415 156.436 311.842L156.999 313.261C157.073 313.446 157.107 313.633 157.107 313.815C157.105 314.401 156.762 314.959 156.196 315.185L151.608 317.063C151.427 317.137 151.246 317.171 151.068 317.171C150.489 317.171 149.931 316.815 149.706 316.243L149.138 314.824C148.969 314.401 148.542 314.142 148.092 314.19C147.476 314.258 146.864 314.29 146.252 314.29C145.534 314.29 144.819 314.245 144.112 314.153C143.663 314.096 143.23 314.349 143.053 314.771L142.462 316.181L142.465 316.179C142.228 316.742 141.677 317.083 141.108 317.083C140.919 317.083 140.733 317.046 140.548 316.966L135.997 315.01C135.439 314.772 135.106 314.221 135.105 313.644C135.105 313.452 135.142 313.263 135.223 313.071V313.065L135.812 311.656C135.984 311.234 135.866 310.742 135.513 310.455C134.483 309.622 133.547 308.663 132.722 307.582C132.445 307.22 131.963 307.087 131.542 307.261L130.138 307.835C129.956 307.909 129.777 307.941 129.597 307.943C129.017 307.94 128.462 307.587 128.241 307.02V307.018L126.386 302.369L126.383 302.364C126.314 302.187 126.279 302.005 126.279 301.821C126.281 301.236 126.629 300.677 127.195 300.447ZM146.196 306.354C151.388 306.354 155.598 302.089 155.598 296.831C155.598 291.569 151.388 287.308 146.196 287.308C141.003 287.308 136.792 291.57 136.792 296.831C136.792 302.091 141.003 306.354 146.196 306.354ZM146.196 289.357C150.263 289.357 153.574 292.71 153.574 296.831C153.574 300.949 150.263 304.304 146.196 304.304C142.126 304.304 138.818 300.949 138.818 296.831C138.818 292.71 142.126 289.357 146.196 289.357Z" fill="#1C0D3F"/>
<path d="M114.173 366.483H113.183V363.304L110.323 358.739H111.445L113.7 362.424H113.711L115.933 358.739H117.022L114.173 363.304V366.483ZM119.436 366.648C117.72 366.648 116.488 365.328 116.488 363.711C116.488 362.083 117.72 360.763 119.436 360.763C121.163 360.763 122.395 362.083 122.395 363.711C122.395 365.328 121.163 366.648 119.436 366.648ZM119.436 365.823C120.613 365.823 121.449 364.877 121.449 363.711C121.449 362.545 120.613 361.588 119.436 361.588C118.259 361.588 117.434 362.545 117.434 363.711C117.434 364.877 118.259 365.823 119.436 365.823ZM126.134 366.648C125.419 366.648 124.836 366.417 124.385 365.966C123.89 365.471 123.703 364.833 123.703 364.019V360.928H124.638V364.052C124.638 364.613 124.737 365.075 125.078 365.416C125.331 365.669 125.694 365.823 126.134 365.823C126.574 365.823 126.926 365.669 127.179 365.416C127.52 365.075 127.619 364.613 127.619 364.052V360.928H128.554V364.019C128.554 364.833 128.367 365.471 127.872 365.966C127.421 366.417 126.849 366.648 126.134 366.648ZM131.16 366.483H130.225V360.928H131.138L131.171 361.852H131.182C131.578 361.181 132.348 360.785 133.129 360.785V361.742C132.634 361.731 132.084 361.83 131.677 362.226C131.193 362.699 131.16 363.37 131.16 364.074V366.483ZM141.851 362.468V362.49C142.61 362.776 143.094 363.524 143.094 364.316C143.094 364.888 142.852 365.438 142.489 365.812C141.84 366.483 140.894 366.483 140.311 366.483H137.319V358.739H140.256C140.795 358.739 141.686 358.75 142.302 359.421C142.643 359.795 142.852 360.29 142.852 360.818C142.852 361.511 142.5 362.171 141.851 362.468ZM141.51 359.982C141.103 359.586 140.52 359.586 140.212 359.586H138.309V362.127H140.168C140.542 362.127 141.136 362.116 141.51 361.742C141.741 361.511 141.862 361.192 141.862 360.851C141.862 360.51 141.73 360.191 141.51 359.982ZM141.708 365.218C141.939 364.987 142.082 364.657 142.082 364.283C142.082 363.931 141.961 363.601 141.719 363.359C141.312 362.952 140.663 362.952 140.344 362.952H138.309V365.614H140.388C140.707 365.614 141.323 365.603 141.708 365.218ZM146.217 366.648C145.183 366.648 144.248 366.098 144.248 364.91C144.248 364.393 144.424 364.019 144.71 363.733C145.271 363.172 146.173 363.084 148.12 363.018V362.941C148.12 362.072 147.559 361.566 146.745 361.566C146.019 361.566 145.458 361.874 145.029 362.424L144.424 361.896C144.6 361.61 145.326 360.763 146.745 360.763C147.427 360.763 148.153 360.983 148.604 361.566C148.868 361.907 149.033 362.325 149.033 363.117V366.483H148.131L148.109 365.713H148.098C147.889 366.043 147.361 366.648 146.217 366.648ZM146.305 365.856C147.471 365.856 148.12 365.097 148.12 363.854V363.766C146.338 363.832 145.194 363.876 145.194 364.921C145.194 365.592 145.733 365.856 146.305 365.856ZM153.285 366.648C151.569 366.648 150.337 365.328 150.337 363.711C150.337 362.083 151.569 360.763 153.285 360.763C154.836 360.763 155.54 361.753 155.628 361.907L154.968 362.446C154.66 362.061 154.209 361.588 153.285 361.588C152.119 361.588 151.283 362.534 151.283 363.7C151.283 364.866 152.097 365.823 153.285 365.823C154.275 365.823 154.715 365.328 155.001 364.998L155.617 365.515C155.551 365.625 154.836 366.648 153.285 366.648ZM157.812 366.483H156.877V358.343H157.812V363.447H157.823L160.485 360.928H161.695L158.868 363.535L161.75 366.483H160.562L157.823 363.634H157.812V366.483ZM167.516 363.656V364.008H162.929C162.94 364.866 163.567 365.823 164.854 365.823C165.954 365.823 166.482 365.086 166.537 365.009L167.142 365.526C167.076 365.636 166.361 366.648 164.854 366.648C163.072 366.648 161.939 365.328 161.939 363.711C161.939 362.083 163.105 360.763 164.788 360.763C166.394 360.763 167.516 362.017 167.516 363.656ZM164.799 361.566C163.468 361.566 163.017 362.589 162.94 363.216H166.548C166.504 362.523 165.987 361.566 164.799 361.566ZM169.779 366.483H168.844V360.928H169.746L169.768 361.709H169.779C169.823 361.61 170.307 360.763 171.572 360.763C172.793 360.763 173.684 361.555 173.684 362.985V366.483H172.749V363.194C172.749 362.017 172.122 361.588 171.396 361.588C170.45 361.588 169.779 362.347 169.779 363.48V366.483ZM177.806 366.648C176.167 366.648 174.99 365.328 174.99 363.711C174.99 362.083 176.167 360.763 177.806 360.763C178.675 360.763 179.456 361.137 179.918 361.731H179.929V358.343H180.864V366.483H179.962L179.929 365.68H179.918C179.456 366.274 178.675 366.648 177.806 366.648ZM177.938 365.823C179.159 365.823 179.94 364.877 179.94 363.711C179.94 362.545 179.159 361.588 177.938 361.588C176.761 361.588 175.936 362.545 175.936 363.711C175.936 364.877 176.761 365.823 177.938 365.823Z" fill="#1C0D3F"/>
<path d="M582.177 363.249V362.424H585.521V365.416C584.927 366.021 583.838 366.648 582.386 366.648C579.933 366.648 578.283 364.877 578.283 362.6C578.283 360.301 580.021 358.574 582.32 358.574C584.036 358.574 585.092 359.542 585.367 359.905L584.685 360.488C584.146 359.85 583.277 359.443 582.309 359.443C580.56 359.443 579.317 360.752 579.317 362.589C579.317 364.448 580.549 365.779 582.408 365.779C583.299 365.779 584.091 365.471 584.608 365.042V363.249H582.177ZM589.78 366.648C588.064 366.648 586.832 365.328 586.832 363.711C586.832 362.083 588.064 360.763 589.78 360.763C591.507 360.763 592.739 362.083 592.739 363.711C592.739 365.328 591.507 366.648 589.78 366.648ZM589.78 365.823C590.957 365.823 591.793 364.877 591.793 363.711C591.793 362.545 590.957 361.588 589.78 361.588C588.603 361.588 587.778 362.545 587.778 363.711C587.778 364.877 588.603 365.823 589.78 365.823ZM596.762 366.648C595.046 366.648 593.814 365.328 593.814 363.711C593.814 362.083 595.046 360.763 596.762 360.763C598.489 360.763 599.721 362.083 599.721 363.711C599.721 365.328 598.489 366.648 596.762 366.648ZM596.762 365.823C597.939 365.823 598.775 364.877 598.775 363.711C598.775 362.545 597.939 361.588 596.762 361.588C595.585 361.588 594.76 362.545 594.76 363.711C594.76 364.877 595.585 365.823 596.762 365.823ZM603.613 366.648C601.974 366.648 600.797 365.328 600.797 363.711C600.797 362.083 601.974 360.763 603.613 360.763C604.482 360.763 605.263 361.137 605.725 361.731H605.736V358.343H606.671V366.483H605.769L605.736 365.68H605.725C605.263 366.274 604.482 366.648 603.613 366.648ZM603.745 365.823C604.966 365.823 605.747 364.877 605.747 363.711C605.747 362.545 604.966 361.588 603.745 361.588C602.568 361.588 601.743 362.545 601.743 363.711C601.743 364.877 602.568 365.823 603.745 365.823ZM614.054 359.806C614.747 360.499 615.209 361.544 615.209 362.633C615.209 363.623 614.824 364.646 614.098 365.372C613.339 366.131 612.316 366.483 610.897 366.483H608.554V358.739H610.897C612.129 358.739 613.218 358.97 614.054 359.806ZM613.284 364.844C613.856 364.272 614.186 363.425 614.186 362.6C614.186 361.808 613.889 360.983 613.317 360.411C612.679 359.773 611.832 359.608 610.897 359.608H609.544V365.614H610.897C611.887 365.614 612.668 365.46 613.284 364.844ZM618.333 366.648C617.299 366.648 616.364 366.098 616.364 364.91C616.364 364.393 616.54 364.019 616.826 363.733C617.387 363.172 618.289 363.084 620.236 363.018V362.941C620.236 362.072 619.675 361.566 618.861 361.566C618.135 361.566 617.574 361.874 617.145 362.424L616.54 361.896C616.716 361.61 617.442 360.763 618.861 360.763C619.543 360.763 620.269 360.983 620.72 361.566C620.984 361.907 621.149 362.325 621.149 363.117V366.483H620.247L620.225 365.713H620.214C620.005 366.043 619.477 366.648 618.333 366.648ZM618.421 365.856C619.587 365.856 620.236 365.097 620.236 363.854V363.766C618.454 363.832 617.31 363.876 617.31 364.921C617.31 365.592 617.849 365.856 618.421 365.856ZM626.006 365.603L626.369 366.274C626.149 366.45 625.72 366.648 625.148 366.648C623.872 366.648 623.212 365.768 623.212 364.569V361.731H622.09V360.928H623.212V359.113H624.147V360.928H625.995V361.731H624.147V364.415C624.147 365.207 624.367 365.823 625.214 365.823C625.632 365.823 625.918 365.658 626.006 365.603ZM629 366.648C627.966 366.648 627.031 366.098 627.031 364.91C627.031 364.393 627.207 364.019 627.493 363.733C628.054 363.172 628.956 363.084 630.903 363.018V362.941C630.903 362.072 630.342 361.566 629.528 361.566C628.802 361.566 628.241 361.874 627.812 362.424L627.207 361.896C627.383 361.61 628.109 360.763 629.528 360.763C630.21 360.763 630.936 360.983 631.387 361.566C631.651 361.907 631.816 362.325 631.816 363.117V366.483H630.914L630.892 365.713H630.881C630.672 366.043 630.144 366.648 629 366.648ZM629.088 365.856C630.254 365.856 630.903 365.097 630.903 363.854V363.766C629.121 363.832 627.977 363.876 627.977 364.921C627.977 365.592 628.516 365.856 629.088 365.856Z" fill="#1C0D3F"/>
<defs>
<filter id="filter0_dddddd_2965_4212" x="0.777142" y="0.456055" width="749.446" height="355.47" filterUnits="userSpaceOnUse" color-interpolation-filters="sRGB">
<feFlood flood-opacity="0" result="BackgroundImageFix"/>
<feColorMatrix in="SourceAlpha" type="matrix" values="0 0 0 0 0 0 0 0 0 0 0 0 0 0 0 0 0 0 127 0" result="hardAlpha"/>
<feOffset dy="1.8929"/>
<feGaussianBlur stdDeviation="0.757161"/>
<feColorMatrix type="matrix" values="0 0 0 0 0.109804 0 0 0 0 0.0509804 0 0 0 0 0.247059 0 0 0 0.0196802 0"/>
<feBlend mode="normal" in2="BackgroundImageFix" result="effect1_dropShadow_2965_4212"/>
<feColorMatrix in="SourceAlpha" type="matrix" values="0 0 0 0 0 0 0 0 0 0 0 0 0 0 0 0 0 0 127 0" result="hardAlpha"/>
<feOffset dy="4.54891"/>
<feGaussianBlur stdDeviation="1.81956"/>
<feColorMatrix type="matrix" values="0 0 0 0 0.109804 0 0 0 0 0.0509804 0 0 0 0 0.247059 0 0 0 0.0282725 0"/>
<feBlend mode="normal" in2="effect1_dropShadow_2965_4212" result="effect2_dropShadow_2965_4212"/>
<feColorMatrix in="SourceAlpha" type="matrix" values="0 0 0 0 0 0 0 0 0 0 0 0 0 0 0 0 0 0 127 0" result="hardAlpha"/>
<feOffset dy="8.56519"/>
<feGaussianBlur stdDeviation="3.42608"/>
<feColorMatrix type="matrix" values="0 0 0 0 0.109804 0 0 0 0 0.0509804 0 0 0 0 0.247059 0 0 0 0.035 0"/>
<feBlend mode="normal" in2="effect2_dropShadow_2965_4212" result="effect3_dropShadow_2965_4212"/>
<feColorMatrix in="SourceAlpha" type="matrix" values="0 0 0 0 0 0 0 0 0 0 0 0 0 0 0 0 0 0 127 0" result="hardAlpha"/>
<feOffset dy="15.2788"/>
<feGaussianBlur stdDeviation="6.11153"/>
<feColorMatrix type="matrix" values="0 0 0 0 0.109804 0 0 0 0 0.0509804 0 0 0 0 0.247059 0 0 0 0.0417275 0"/>
<feBlend mode="normal" in2="effect3_dropShadow_2965_4212" result="effect4_dropShadow_2965_4212"/>
<feColorMatrix in="SourceAlpha" type="matrix" values="0 0 0 0 0 0 0 0 0 0 0 0 0 0 0 0 0 0 127 0" result="hardAlpha"/>
<feOffset dy="28.5774"/>
<feGaussianBlur stdDeviation="11.431"/>
<feColorMatrix type="matrix" values="0 0 0 0 0.109804 0 0 0 0 0.0509804 0 0 0 0 0.247059 0 0 0 0.0503198 0"/>
<feBlend mode="normal" in2="effect4_dropShadow_2965_4212" result="effect5_dropShadow_2965_4212"/>
<feColorMatrix in="SourceAlpha" type="matrix" values="0 0 0 0 0 0 0 0 0 0 0 0 0 0 0 0 0 0 127 0" result="hardAlpha"/>
<feOffset dy="68.4036"/>
<feGaussianBlur stdDeviation="27.3614"/>
<feColorMatrix type="matrix" values="0 0 0 0 0.109804 0 0 0 0 0.0509804 0 0 0 0 0.247059 0 0 0 0.07 0"/>
<feBlend mode="normal" in2="effect5_dropShadow_2965_4212" result="effect6_dropShadow_2965_4212"/>
<feBlend mode="normal" in="SourceGraphic" in2="effect6_dropShadow_2965_4212" result="shape"/>
</filter>
<filter id="filter1_dddddd_2965_4212" x="512.177" y="258.649" width="186.046" height="199.726" filterUnits="userSpaceOnUse" color-interpolation-filters="sRGB">
<feFlood flood-opacity="0" result="BackgroundImageFix"/>
<feColorMatrix in="SourceAlpha" type="matrix" values="0 0 0 0 0 0 0 0 0 0 0 0 0 0 0 0 0 0 127 0" result="hardAlpha"/>
<feOffset dy="1.8929"/>
<feGaussianBlur stdDeviation="0.757161"/>
<feColorMatrix type="matrix" values="0 0 0 0 0.109804 0 0 0 0 0.0509804 0 0 0 0 0.247059 0 0 0 0.0196802 0"/>
<feBlend mode="normal" in2="BackgroundImageFix" result="effect1_dropShadow_2965_4212"/>
<feColorMatrix in="SourceAlpha" type="matrix" values="0 0 0 0 0 0 0 0 0 0 0 0 0 0 0 0 0 0 127 0" result="hardAlpha"/>
<feOffset dy="4.54891"/>
<feGaussianBlur stdDeviation="1.81956"/>
<feColorMatrix type="matrix" values="0 0 0 0 0.109804 0 0 0 0 0.0509804 0 0 0 0 0.247059 0 0 0 0.0282725 0"/>
<feBlend mode="normal" in2="effect1_dropShadow_2965_4212" result="effect2_dropShadow_2965_4212"/>
<feColorMatrix in="SourceAlpha" type="matrix" values="0 0 0 0 0 0 0 0 0 0 0 0 0 0 0 0 0 0 127 0" result="hardAlpha"/>
<feOffset dy="8.56519"/>
<feGaussianBlur stdDeviation="3.42608"/>
<feColorMatrix type="matrix" values="0 0 0 0 0.109804 0 0 0 0 0.0509804 0 0 0 0 0.247059 0 0 0 0.035 0"/>
<feBlend mode="normal" in2="effect2_dropShadow_2965_4212" result="effect3_dropShadow_2965_4212"/>
<feColorMatrix in="SourceAlpha" type="matrix" values="0 0 0 0 0 0 0 0 0 0 0 0 0 0 0 0 0 0 127 0" result="hardAlpha"/>
<feOffset dy="15.2788"/>
<feGaussianBlur stdDeviation="6.11153"/>
<feColorMatrix type="matrix" values="0 0 0 0 0.109804 0 0 0 0 0.0509804 0 0 0 0 0.247059 0 0 0 0.0417275 0"/>
<feBlend mode="normal" in2="effect3_dropShadow_2965_4212" result="effect4_dropShadow_2965_4212"/>
<feColorMatrix in="SourceAlpha" type="matrix" values="0 0 0 0 0 0 0 0 0 0 0 0 0 0 0 0 0 0 127 0" result="hardAlpha"/>
<feOffset dy="28.5774"/>
<feGaussianBlur stdDeviation="11.431"/>
<feColorMatrix type="matrix" values="0 0 0 0 0.109804 0 0 0 0 0.0509804 0 0 0 0 0.247059 0 0 0 0.0503198 0"/>
<feBlend mode="normal" in2="effect4_dropShadow_2965_4212" result="effect5_dropShadow_2965_4212"/>
<feColorMatrix in="SourceAlpha" type="matrix" values="0 0 0 0 0 0 0 0 0 0 0 0 0 0 0 0 0 0 127 0" result="hardAlpha"/>
<feOffset dy="68.4036"/>
<feGaussianBlur stdDeviation="27.3614"/>
<feColorMatrix type="matrix" values="0 0 0 0 0.109804 0 0 0 0 0.0509804 0 0 0 0 0.247059 0 0 0 0.07 0"/>
<feBlend mode="normal" in2="effect5_dropShadow_2965_4212" result="effect6_dropShadow_2965_4212"/>
<feBlend mode="normal" in="SourceGraphic" in2="effect6_dropShadow_2965_4212" result="shape"/>
</filter>
<filter id="filter2_dddddd_2965_4212" x="282.477" y="258.649" width="186.047" height="199.728" filterUnits="userSpaceOnUse" color-interpolation-filters="sRGB">
<feFlood flood-opacity="0" result="BackgroundImageFix"/>
<feColorMatrix in="SourceAlpha" type="matrix" values="0 0 0 0 0 0 0 0 0 0 0 0 0 0 0 0 0 0 127 0" result="hardAlpha"/>
<feOffset dy="1.8929"/>
<feGaussianBlur stdDeviation="0.757161"/>
<feColorMatrix type="matrix" values="0 0 0 0 0.109804 0 0 0 0 0.0509804 0 0 0 0 0.247059 0 0 0 0.0196802 0"/>
<feBlend mode="normal" in2="BackgroundImageFix" result="effect1_dropShadow_2965_4212"/>
<feColorMatrix in="SourceAlpha" type="matrix" values="0 0 0 0 0 0 0 0 0 0 0 0 0 0 0 0 0 0 127 0" result="hardAlpha"/>
<feOffset dy="4.54891"/>
<feGaussianBlur stdDeviation="1.81956"/>
<feColorMatrix type="matrix" values="0 0 0 0 0.109804 0 0 0 0 0.0509804 0 0 0 0 0.247059 0 0 0 0.0282725 0"/>
<feBlend mode="normal" in2="effect1_dropShadow_2965_4212" result="effect2_dropShadow_2965_4212"/>
<feColorMatrix in="SourceAlpha" type="matrix" values="0 0 0 0 0 0 0 0 0 0 0 0 0 0 0 0 0 0 127 0" result="hardAlpha"/>
<feOffset dy="8.56519"/>
<feGaussianBlur stdDeviation="3.42608"/>
<feColorMatrix type="matrix" values="0 0 0 0 0.109804 0 0 0 0 0.0509804 0 0 0 0 0.247059 0 0 0 0.035 0"/>
<feBlend mode="normal" in2="effect2_dropShadow_2965_4212" result="effect3_dropShadow_2965_4212"/>
<feColorMatrix in="SourceAlpha" type="matrix" values="0 0 0 0 0 0 0 0 0 0 0 0 0 0 0 0 0 0 127 0" result="hardAlpha"/>
<feOffset dy="15.2788"/>
<feGaussianBlur stdDeviation="6.11153"/>
<feColorMatrix type="matrix" values="0 0 0 0 0.109804 0 0 0 0 0.0509804 0 0 0 0 0.247059 0 0 0 0.0417275 0"/>
<feBlend mode="normal" in2="effect3_dropShadow_2965_4212" result="effect4_dropShadow_2965_4212"/>
<feColorMatrix in="SourceAlpha" type="matrix" values="0 0 0 0 0 0 0 0 0 0 0 0 0 0 0 0 0 0 127 0" result="hardAlpha"/>
<feOffset dy="28.5774"/>
<feGaussianBlur stdDeviation="11.431"/>
<feColorMatrix type="matrix" values="0 0 0 0 0.109804 0 0 0 0 0.0509804 0 0 0 0 0.247059 0 0 0 0.0503198 0"/>
<feBlend mode="normal" in2="effect4_dropShadow_2965_4212" result="effect5_dropShadow_2965_4212"/>
<feColorMatrix in="SourceAlpha" type="matrix" values="0 0 0 0 0 0 0 0 0 0 0 0 0 0 0 0 0 0 127 0" result="hardAlpha"/>
<feOffset dy="68.4036"/>
<feGaussianBlur stdDeviation="27.3614"/>
<feColorMatrix type="matrix" values="0 0 0 0 0.109804 0 0 0 0 0.0509804 0 0 0 0 0.247059 0 0 0 0.07 0"/>
<feBlend mode="normal" in2="effect5_dropShadow_2965_4212" result="effect6_dropShadow_2965_4212"/>
<feBlend mode="normal" in="SourceGraphic" in2="effect6_dropShadow_2965_4212" result="shape"/>
</filter>
<filter id="filter3_dddddd_2965_4212" x="53.5122" y="258.938" width="185.468" height="199.148" filterUnits="userSpaceOnUse" color-interpolation-filters="sRGB">
<feFlood flood-opacity="0" result="BackgroundImageFix"/>
<feColorMatrix in="SourceAlpha" type="matrix" values="0 0 0 0 0 0 0 0 0 0 0 0 0 0 0 0 0 0 127 0" result="hardAlpha"/>
<feOffset dy="1.8929"/>
<feGaussianBlur stdDeviation="0.757161"/>
<feColorMatrix type="matrix" values="0 0 0 0 0.109804 0 0 0 0 0.0509804 0 0 0 0 0.247059 0 0 0 0.0196802 0"/>
<feBlend mode="normal" in2="BackgroundImageFix" result="effect1_dropShadow_2965_4212"/>
<feColorMatrix in="SourceAlpha" type="matrix" values="0 0 0 0 0 0 0 0 0 0 0 0 0 0 0 0 0 0 127 0" result="hardAlpha"/>
<feOffset dy="4.54891"/>
<feGaussianBlur stdDeviation="1.81956"/>
<feColorMatrix type="matrix" values="0 0 0 0 0.109804 0 0 0 0 0.0509804 0 0 0 0 0.247059 0 0 0 0.0282725 0"/>
<feBlend mode="normal" in2="effect1_dropShadow_2965_4212" result="effect2_dropShadow_2965_4212"/>
<feColorMatrix in="SourceAlpha" type="matrix" values="0 0 0 0 0 0 0 0 0 0 0 0 0 0 0 0 0 0 127 0" result="hardAlpha"/>
<feOffset dy="8.56519"/>
<feGaussianBlur stdDeviation="3.42608"/>
<feColorMatrix type="matrix" values="0 0 0 0 0.109804 0 0 0 0 0.0509804 0 0 0 0 0.247059 0 0 0 0.035 0"/>
<feBlend mode="normal" in2="effect2_dropShadow_2965_4212" result="effect3_dropShadow_2965_4212"/>
<feColorMatrix in="SourceAlpha" type="matrix" values="0 0 0 0 0 0 0 0 0 0 0 0 0 0 0 0 0 0 127 0" result="hardAlpha"/>
<feOffset dy="15.2788"/>
<feGaussianBlur stdDeviation="6.11153"/>
<feColorMatrix type="matrix" values="0 0 0 0 0.109804 0 0 0 0 0.0509804 0 0 0 0 0.247059 0 0 0 0.0417275 0"/>
<feBlend mode="normal" in2="effect3_dropShadow_2965_4212" result="effect4_dropShadow_2965_4212"/>
<feColorMatrix in="SourceAlpha" type="matrix" values="0 0 0 0 0 0 0 0 0 0 0 0 0 0 0 0 0 0 127 0" result="hardAlpha"/>
<feOffset dy="28.5774"/>
<feGaussianBlur stdDeviation="11.431"/>
<feColorMatrix type="matrix" values="0 0 0 0 0.109804 0 0 0 0 0.0509804 0 0 0 0 0.247059 0 0 0 0.0503198 0"/>
<feBlend mode="normal" in2="effect4_dropShadow_2965_4212" result="effect5_dropShadow_2965_4212"/>
<feColorMatrix in="SourceAlpha" type="matrix" values="0 0 0 0 0 0 0 0 0 0 0 0 0 0 0 0 0 0 127 0" result="hardAlpha"/>
<feOffset dy="68.4036"/>
<feGaussianBlur stdDeviation="27.3614"/>
<feColorMatrix type="matrix" values="0 0 0 0 0.109804 0 0 0 0 0.0509804 0 0 0 0 0.247059 0 0 0 0.07 0"/>
<feBlend mode="normal" in2="effect5_dropShadow_2965_4212" result="effect6_dropShadow_2965_4212"/>
<feBlend mode="normal" in="SourceGraphic" in2="effect6_dropShadow_2965_4212" result="shape"/>
</filter>
<linearGradient id="paint0_linear_2965_4212" x1="374.5" y1="148.481" x2="374.5" y2="216.481" gradientUnits="userSpaceOnUse">
<stop stop-color="white" stop-opacity="0"/>
<stop offset="0.599" stop-color="white"/>
</linearGradient>
<linearGradient id="paint1_linear_2965_4212" x1="351.991" y1="273.296" x2="380.634" y2="302.034" gradientUnits="userSpaceOnUse">
<stop stop-color="#387EB8"/>
<stop offset="1" stop-color="#366994"/>
</linearGradient>
<linearGradient id="paint2_linear_2965_4212" x1="369.569" y1="291.63" x2="400.331" y2="321.102" gradientUnits="userSpaceOnUse">
<stop stop-color="#FFE052"/>
<stop offset="1" stop-color="#FFC331"/>
</linearGradient>
</defs>
</svg>
