<svg width="751" height="458" viewBox="0 0 751 458" fill="none" xmlns="http://www.w3.org/2000/svg"><g filter="url(#filter0_dddddd_2968_4218)"><path d="M687.7.848267H63.6999c-4.4 0-7.9999 3.600003-7.9999 8.000003V208.848c0 4.4 3.5999 8 7.9999 8H356.043c1.061 0 2.078.422 2.829 1.172l14 14c1.562 1.562 4.094 1.562 5.656 0l14-14c.751-.75 1.768-1.172 2.829-1.172H687.7c4.4 0 8-3.6 8-8V8.84827c0-4.4-3.6-8.000003-8-8.000003Z" fill="#fff"/></g><mask id="mask0_2968_4218" style="mask-type:luminance" maskUnits="userSpaceOnUse" x="55" y="0" width="641" height="217"><path d="M63.5.448242h624c4.4 0 8 3.599998 8 7.999998V208.448c0 4.4-3.6 8-8 8h-624c-4.4 0-8-3.6-8-8V8.44824c0-4.4 3.6-7.999998 8-7.999998Z" fill="#fff"/></mask><g mask="url(#mask0_2968_4218)"><path d="m102.6 46.4482.2-1.1h-1.6l.6-3.1h-1.1l-.6 3.1h-2.3001l.6-3.1h-1.1l-.5999 3.1h-1.6l-.2001 1.1h1.6l-.5 2.6h-1.6l-.1999 1.2h1.5999l-.5999 3.2h1.0999l.6-3.2H99.2l-.6 3.2h1.1l.6-3.2h1.6l.2-1.2h-1.6l.5-2.6h1.6Zm-5.1001 0h2.3l-.5 2.7h-2.3l.5-2.7Zm20.7001 5.9c-1.6 0-2.6-1.1-2.6-2.9v-7.3h-1.4v7.4c0 2.6 1.5 4.1 4 4.1s4-1.6 4-4.1v-7.4h-1.4v7.3c0 1.9-.9 2.9-2.6 2.9Zm10.4-7.5c-1.2 0-2.1.5-2.5 1.4h-.1v-1.3h-1.3v11.3h1.4v-4.2h.1c.4.9 1.3 1.5 2.5 1.5 2 0 3.2-1.4 3.2-3.6v-1.6c0-2.1-1.3-3.5-3.3-3.5Zm-.3 1.2c1.4 0 2.3 1 2.3 2.6v1.2c0 1.6-.9 2.6-2.3 2.6s-2.3-1-2.3-2.6v-1.2c0-1.6.9-2.6 2.3-2.6Zm9.2 7.5c1.2 0 2.1-.5 2.5-1.4h.1v1.3h1.4v-11.8h-1.4v4.6h-.1c-.4-.9-1.3-1.5-2.5-1.5-2 0-3.2 1.4-3.2 3.6v1.6c-.1 2.2 1.2 3.6 3.2 3.6Zm.4-1.2c-1.4 0-2.3-1-2.3-2.6v-1.2c0-1.6.9-2.6 2.3-2.6s2.3 1 2.3 2.6v1.2c-.1 1.6-1 2.6-2.3 2.6Zm9.1 1.3c1.2 0 2.2-.5 2.6-1.4h.1v1.3h1.3v-5.8c0-1.8-1.1-2.8-3.1-2.8-1.7 0-3 .9-3.2 2.3h1.3c.2-.7.9-1.1 1.9-1.1 1.2 0 1.8.6 1.8 1.6v.8l-2.3.1c-1.9.1-3 1-3 2.5-.1 1.4 1 2.5 2.6 2.5Zm.4-1.2c-1.1 0-1.7-.5-1.7-1.4 0-.9.6-1.4 1.8-1.4l2.2-.1v1c0 1-1 1.9-2.3 1.9Zm8.9-9.7v2.3H154v1.1h2.3v4.8c0 1.8 1 2.6 3.1 2.6.4 0 1.4 0 1.6-.1v-1.1h-1.6c-1.2 0-1.8-.5-1.8-1.4v-4.8h3.4v-1.1h-3.4v-2.3h-1.3Zm13.7 8.5c-.2.7-1 1.2-2.1 1.2-1.4 0-2.4-1-2.4-2.6v-.3h5.8v-.8c0-2.5-1.3-3.9-3.5-3.9s-3.6 1.5-3.6 3.7v1.3c0 2.4 1.4 3.8 3.7 3.8 1.8 0 3.1-.9 3.4-2.3l-1.3-.1Zm-2.2-5.3c1.4 0 2.2 1 2.2 2.6h-4.5c0-1.6.8-2.6 2.3-2.6Zm19.6 7.7c2.2 0 3.7-1.5 3.7-3.8v-1.3c0-2.3-1.4-3.8-3.7-3.8-2.3 0-3.7 1.5-3.7 3.8v1.3c.1 2.3 1.5 3.8 3.7 3.8Zm0-7.6c1.5 0 2.4 1 2.4 2.7v1c0 1.7-.9 2.7-2.4 2.7s-2.4-1-2.4-2.7v-1c.1-1.7 1-2.7 2.4-2.7Zm9.6 3.6c0-2.2 1.1-3.5 3-3.5.5 0 1 .1 1.4.2v-1.4c-.3-.1-.7-.2-1.2-.2-1.6 0-2.7.8-3 2.4h-.2v-2.2h-3.2v1.1h1.9v6.4H194v1.1h5.6v-1.1H197v-2.8Zm10 7c2.3 0 3.7-1.2 3.7-3.2v-8.5h-1.3v1.3h-.1c-.4-.9-1.3-1.5-2.5-1.5-2 0-3.3 1.4-3.3 3.6v1.6c0 2.2 1.3 3.6 3.2 3.6 1.2 0 2.2-.5 2.5-1.4h.1v1.3c0 1.4-.8 2.1-2.3 2.1-1.1 0-2-.5-2.2-1.2h-1.3c.2 1.4 1.5 2.3 3.5 2.3Zm-2.3-6.9v-1.2c0-1.6.9-2.6 2.3-2.6s2.3 1 2.3 2.6v1.2c0 1.6-.9 2.6-2.3 2.6s-2.3-1-2.3-2.6Zm11.6 3.9c1.2 0 2.2-.5 2.6-1.4h.1v1.3h1.3v-5.8c0-1.8-1.1-2.8-3.1-2.8-1.7 0-3 .9-3.2 2.3h1.3c.2-.7.9-1.1 1.9-1.1 1.2 0 1.8.6 1.8 1.6v.8l-2.3.1c-1.9.1-3 1-3 2.5-.1 1.4.9 2.5 2.6 2.5Zm.3-1.2c-1.1 0-1.7-.5-1.7-1.4 0-.9.6-1.4 1.8-1.4l2.2-.1v1c0 1-1 1.9-2.3 1.9Zm6.9 1h1.3v-5c0-1.4.9-2.4 2.3-2.4 1.3 0 1.9.7 1.9 2.2v5.2h1.3v-5.5c0-2-1-3.1-2.8-3.1-1.3 0-2.3.6-2.7 1.6h-.1v-1.5h-1.2v8.5Zm13.5-10.6c.6 0 1.1-.5 1.1-1.1 0-.6-.5-1.1-1.1-1.1-.6 0-1.1.5-1.1 1.1 0 .7.5 1.1 1.1 1.1Zm3.6 10.6v-1.1h-2.8v-7.4h-4.2v1.1h2.9v6.3h-2.9v1.1h7Zm2.9 0h6.6v-1.1h-4.9v-.1l4.9-6.2v-1h-6.6v1.1h5v.1l-5 6.3v.9Zm12.3.2c1.2 0 2.2-.5 2.6-1.4h.1v1.3h1.3v-5.8c0-1.8-1.1-2.8-3.1-2.8-1.7 0-3 .9-3.2 2.3h1.3c.2-.7.9-1.1 1.9-1.1 1.2 0 1.8.6 1.8 1.6v.8l-2.3.1c-1.9.1-3 1-3 2.5-.1 1.4 1 2.5 2.6 2.5Zm.4-1.2c-1.1 0-1.7-.5-1.7-1.4 0-.9.6-1.4 1.8-1.4l2.2-.1v1c0 1-1 1.9-2.3 1.9Zm8.9-9.7v2.3h-2.3v1.1h2.3v4.8c0 1.8 1 2.6 3.1 2.6.4 0 1.4 0 1.6-.1v-1.1h-1.6c-1.2 0-1.8-.5-1.8-1.4v-4.8h3.4v-1.1h-3.4v-2.3h-1.3Zm11.5.1c.6 0 1.1-.5 1.1-1.1 0-.6-.5-1.1-1.1-1.1-.6 0-1.1.5-1.1 1.1 0 .7.5 1.1 1.1 1.1Zm3.6 10.6v-1.1h-2.8v-7.4h-4.2v1.1h2.9v6.3h-2.9v1.1h7Zm6.2.2c2.2 0 3.7-1.5 3.7-3.8v-1.3c0-2.3-1.4-3.8-3.7-3.8-2.3 0-3.7 1.5-3.7 3.8v1.3c0 2.3 1.4 3.8 3.7 3.8Zm0-7.6c1.5 0 2.4 1 2.4 2.7v1c0 1.7-.9 2.7-2.4 2.7s-2.4-1-2.4-2.7v-1c0-1.7.9-2.7 2.4-2.7Zm6.4 7.4h1.3v-5c0-1.4.9-2.4 2.3-2.4 1.3 0 1.9.7 1.9 2.2v5.2h1.3v-5.5c0-2-1-3.1-2.8-3.1-1.3 0-2.3.6-2.7 1.6h-.1v-1.5h-1.3v8.5h.1Zm19.8 0h1.3v-5c0-1.4.9-2.4 2.3-2.4 1.3 0 1.9.7 1.9 2.2v5.2h1.3v-5.5c0-2-1-3.1-2.8-3.1-1.3 0-2.3.6-2.7 1.6h-.1v-1.5h-1.3v8.5h.1Zm12.5.2c1.2 0 2.2-.5 2.6-1.4h.1v1.3h1.3v-5.8c0-1.8-1.1-2.8-3.1-2.8-1.7 0-3 .9-3.2 2.3h1.3c.2-.7.9-1.1 1.9-1.1 1.2 0 1.8.6 1.8 1.6v.8l-2.3.1c-1.9.1-3 1-3 2.5-.1 1.4.9 2.5 2.6 2.5Zm.3-1.2c-1.1 0-1.7-.5-1.7-1.4 0-.9.6-1.4 1.8-1.4l2.2-.1v1c0 1-1 1.9-2.3 1.9Zm14.5-5.2c0-1.6-.6-2.4-1.8-2.4-.9 0-1.5.5-1.8 1.3h-.1c-.2-.8-.7-1.3-1.5-1.3s-1.4.5-1.6 1.4h-.1v-1.3h-1.2v8.5h1.2v-5.7c0-1.1.5-1.7 1.2-1.7s1.1.5 1.1 1.6v5.9h1.2v-5.7c0-1.1.5-1.7 1.2-1.7s1.1.5 1.1 1.6v5.9h1.2v-6.4h-.1Zm8.1 4c-.2.7-1 1.2-2.1 1.2-1.4 0-2.4-1-2.4-2.6v-.3h5.8v-.8c0-2.5-1.3-3.9-3.5-3.9s-3.6 1.5-3.6 3.7v1.3c0 2.4 1.4 3.8 3.7 3.8 1.8 0 3.1-.9 3.4-2.3l-1.3-.1Zm-2.2-5.3c1.4 0 2.2 1 2.2 2.6h-4.5c0-1.6.9-2.6 2.3-2.6Zm-159.2 39.3v-5h-1.4v5h1.4Zm3.1 0v-5h-1.4v5h1.4Zm4.2 6.2h1.3v-5c0-1.4.9-2.4 2.3-2.4 1.3 0 1.9.7 1.9 2.2v5.2h1.3v-5.5c0-2-1-3.1-2.8-3.1-1.3 0-2.3.6-2.7 1.6h-.1v-1.5h-1.3v8.5h.1Zm15.6-2.2c-.2.7-1 1.2-2.1 1.2-1.4 0-2.4-1-2.4-2.6v-.3h5.8v-.8c0-2.5-1.3-3.9-3.5-3.9s-3.6 1.5-3.6 3.7v1.3c0 2.4 1.4 3.8 3.7 3.8 1.8 0 3.1-.9 3.4-2.3l-1.3-.1Zm-2.2-5.3c1.4 0 2.2 1 2.2 2.6H205c.1-1.6.9-2.6 2.3-2.6Zm14.4-1h-1.3l-1.1 6.8h-.1l-1.4-6.8h-1.3l-1.4 6.8h-.1l-1.1-6.8h-1.4l1.8 8.5h1.3l1.4-6.6h.1l1.4 6.6h1.3l1.9-8.5Zm9.4 10.9v-1.1H223v1.1h8.1Zm5.8-2.2c2.2 0 3.7-1.5 3.7-3.8v-1.3c0-2.3-1.4-3.8-3.7-3.8-2.3 0-3.7 1.5-3.7 3.8v1.3c0 2.3 1.5 3.8 3.7 3.8Zm0-7.6c1.5 0 2.4 1 2.4 2.7v1c0 1.7-.9 2.7-2.4 2.7s-2.4-1-2.4-2.7v-1c0-1.7.9-2.7 2.4-2.7Zm9.6 3.6c0-2.2 1.1-3.5 3-3.5.5 0 1 .1 1.4.2v-1.4c-.3-.1-.7-.2-1.2-.2-1.6 0-2.7.8-3 2.4h-.2v-2.2h-3.2v1.1h1.9v6.4h-1.7v1.1h5.6v-1.1h-2.6v-2.8Zm9.9 7c2.3 0 3.7-1.2 3.7-3.2v-8.5h-1.3v1.3h-.1c-.4-.9-1.3-1.5-2.5-1.5-2 0-3.3 1.4-3.3 3.6v1.6c0 2.2 1.3 3.6 3.2 3.6 1.2 0 2.2-.5 2.5-1.4h.1v1.3c0 1.4-.8 2.1-2.3 2.1-1.1 0-2-.5-2.2-1.2h-1.3c.3 1.4 1.6 2.3 3.5 2.3Zm-2.2-6.9v-1.2c0-1.6.9-2.6 2.3-2.6s2.3 1 2.3 2.6v1.2c0 1.6-.9 2.6-2.3 2.6s-2.3-1-2.3-2.6Zm11.5 3.9c1.2 0 2.2-.5 2.6-1.4h.1v1.3h1.3v-5.8c0-1.8-1.1-2.8-3.1-2.8-1.7 0-3 .9-3.2 2.3h1.3c.2-.7.9-1.1 1.9-1.1 1.2 0 1.8.6 1.8 1.6v.8l-2.3.1c-1.9.1-3 1-3 2.5-.1 1.4 1 2.5 2.6 2.5Zm.4-1.2c-1.1 0-1.7-.5-1.7-1.4 0-.9.6-1.4 1.8-1.4l2.2-.1v1c0 1-1 1.9-2.3 1.9Zm6.9 1h1.3v-5c0-1.4.9-2.4 2.3-2.4 1.3 0 1.9.7 1.9 2.2v5.2h1.3v-5.5c0-2-1-3.1-2.8-3.1-1.3 0-2.3.6-2.7 1.6h-.1v-1.5h-1.3v8.5h.1Zm13.5-10.6c.6 0 1.1-.5 1.1-1.1 0-.6-.5-1.1-1.1-1.1-.6 0-1.1.5-1.1 1.1 0 .7.5 1.1 1.1 1.1Zm3.6 10.6v-1.1h-2.8v-7.4h-4.2v1.1h2.9v6.3h-2.9v1.1h7Zm2.8 0h6.6v-1.1h-4.9v-.1l4.9-6.3v-1H293v1.1h5v.1l-5 6.3v1h-.1Zm12.4.2c1.2 0 2.2-.5 2.6-1.4h.1v1.3h1.3v-5.8c0-1.8-1.1-2.8-3.1-2.8-1.7 0-3 .9-3.2 2.3h1.3c.2-.7.9-1.1 1.9-1.1 1.2 0 1.8.6 1.8 1.6v.8l-2.3.1c-1.9.1-3 1-3 2.5-.1 1.4 1 2.5 2.6 2.5Zm.4-1.2c-1.1 0-1.7-.5-1.7-1.4 0-.9.6-1.4 1.8-1.4l2.2-.1v1c-.1 1-1.1 1.9-2.3 1.9Zm8.9-9.7v2.3h-2.3v1.1h2.3v4.8c0 1.8 1 2.6 3.1 2.6.4 0 1.4 0 1.6-.1v-1.1h-1.6c-1.2 0-1.8-.5-1.8-1.4v-4.8h3.4v-1.1h-3.4v-2.3h-1.3Zm11.5.1c.6 0 1.1-.5 1.1-1.1 0-.6-.5-1.1-1.1-1.1-.6 0-1.1.5-1.1 1.1 0 .7.4 1.1 1.1 1.1Zm3.5 10.6v-1.1h-2.8v-7.4h-4.2v1.1h2.9v6.3h-2.9v1.1h7Zm6.2.2c2.2 0 3.7-1.5 3.7-3.8v-1.3c0-2.3-1.4-3.8-3.7-3.8-2.3 0-3.7 1.5-3.7 3.8v1.3c0 2.3 1.5 3.8 3.7 3.8Zm0-7.6c1.5 0 2.4 1 2.4 2.7v1c0 1.7-.9 2.7-2.4 2.7s-2.4-1-2.4-2.7v-1c0-1.7 1-2.7 2.4-2.7Zm6.4 7.4h1.3v-5c0-1.4.9-2.4 2.3-2.4 1.3 0 1.9.7 1.9 2.2v5.2h1.3v-5.5c0-2-1-3.1-2.8-3.1-1.3 0-2.3.6-2.7 1.6v-1.5h-1.3v8.5Zm17.4 2.4v-1.1h-8.1v1.1h8.1Zm2.4-2.4h1.3v-5c0-1.4.9-2.4 2.3-2.4 1.3 0 1.9.7 1.9 2.2v5.2h1.3v-5.5c0-2-1-3.1-2.8-3.1-1.3 0-2.3.6-2.7 1.6h-.1v-1.5h-1.3v8.5h.1Zm12.5.2c1.2 0 2.2-.5 2.6-1.4h.1v1.3h1.3v-5.8c0-1.8-1.1-2.8-3.1-2.8-1.7 0-3 .9-3.2 2.3h1.3c.2-.7.9-1.1 1.9-1.1 1.2 0 1.8.6 1.8 1.6v.8l-2.3.1c-1.9.1-3 1-3 2.5-.1 1.4 1 2.5 2.6 2.5Zm.4-1.2c-1.1 0-1.7-.5-1.7-1.4 0-.9.6-1.4 1.8-1.4l2.2-.1v1c-.1 1-1 1.9-2.3 1.9Zm14.4-5.2c0-1.6-.6-2.4-1.8-2.4-.9 0-1.5.5-1.8 1.3h-.1c-.2-.8-.7-1.3-1.5-1.3s-1.4.5-1.6 1.4h-.1v-1.3h-1.2v8.5h1.2v-5.7c0-1.1.5-1.7 1.2-1.7s1.1.5 1.1 1.6v5.9h1.2v-5.7c0-1.1.5-1.7 1.2-1.7s1.1.5 1.1 1.6v5.9h1.2v-6.4h-.1Zm8.1 4c-.2.7-1 1.2-2.1 1.2-1.4 0-2.4-1-2.4-2.6v-.3h5.8v-.8c0-2.5-1.3-3.9-3.5-3.9s-3.6 1.5-3.6 3.7v1.3c0 2.4 1.4 3.8 3.7 3.8 1.8 0 3.1-.9 3.4-2.3l-1.3-.1Zm-2.2-5.3c1.4 0 2.2 1 2.2 2.6h-4.5c.1-1.6.9-2.6 2.3-2.6Zm9 1.3v-5h-1.4v5h1.4Zm3.1 0v-5h-1.4v5h1.4ZM102.6 122.448l.2-1.1h-1.6l.6-3.1h-1.1l-.6 3.1h-2.3001l.6-3.1h-1.1l-.5999 3.1h-1.6l-.2001 1.1h1.6l-.5 2.6h-1.6l-.1999 1.2h1.5999l-.5999 3.2h1.0999l.6-3.2H99.2l-.6 3.2h1.1l.6-3.2h1.6l.2-1.2h-1.6l.5-2.6h1.6Zm-5.1001 0h2.3l-.5 2.7h-2.3l.5-2.7Zm20.1001 5.9c-1.6 0-2.6-1.1-2.6-2.9v-7.3h-1.4v7.4c0 2.6 1.5 4.1 4 4.1s4-1.6 4-4.1v-7.4h-1.4v7.3c0 1.9-1 2.9-2.6 2.9Zm10.1-7.5c-1.2 0-2.1.5-2.5 1.4h-.1v-1.3h-1.3v11.3h1.4v-4.2h.1c.4.9 1.3 1.5 2.5 1.5 2 0 3.2-1.4 3.2-3.6v-1.6c-.1-2.1-1.4-3.5-3.3-3.5Zm-.4 1.2c1.4 0 2.3 1 2.3 2.6v1.2c0 1.6-.9 2.6-2.3 2.6s-2.3-1-2.3-2.6v-1.2c0-1.6.9-2.6 2.3-2.6Zm8.9 7.5c1.2 0 2.1-.5 2.5-1.4h.1v1.3h1.3v-11.8h-1.4v4.6h-.1c-.4-.9-1.3-1.5-2.5-1.5-2 0-3.2 1.4-3.2 3.6v1.6c0 2.2 1.3 3.6 3.3 3.6Zm.4-1.2c-1.4 0-2.3-1-2.3-2.6v-1.2c0-1.6.9-2.6 2.3-2.6s2.3 1 2.3 2.6v1.2c0 1.6-.9 2.6-2.3 2.6Zm8.8 1.3c1.2 0 2.2-.5 2.6-1.4h.1v1.3h1.3v-5.8c0-1.8-1.1-2.8-3.1-2.8-1.7 0-3 .9-3.2 2.3h1.3c.2-.7.9-1.1 1.9-1.1 1.2 0 1.8.6 1.8 1.6v.8l-2.3.1c-1.9.1-3 1-3 2.5-.1 1.4 1 2.5 2.6 2.5Zm.4-1.2c-1.1 0-1.7-.5-1.7-1.4 0-.9.6-1.4 1.8-1.4l2.2-.1v1c0 1-1 1.9-2.3 1.9Zm8.6-9.7v2.3h-2.3v1.1h2.3v4.8c0 1.8 1 2.6 3.1 2.6.4 0 1.4 0 1.6-.1v-1.1h-1.6c-1.2 0-1.8-.5-1.8-1.4v-4.8h3.4v-1.1h-3.4v-2.3h-1.3Zm13.3 8.5c-.2.7-1 1.2-2.1 1.2-1.4 0-2.4-1-2.4-2.6v-.3h5.8v-.8c0-2.5-1.3-3.9-3.5-3.9s-3.6 1.5-3.6 3.7v1.3c0 2.4 1.4 3.8 3.7 3.8 1.8 0 3.1-.9 3.4-2.3l-1.3-.1Zm-2.2-5.3c1.4 0 2.2 1 2.2 2.6h-4.5c.1-1.6.9-2.6 2.3-2.6Zm23.2 2.8v-1.8c0-3.1-1.6-5-4.1-5-2.6 0-4.1 1.8-4.1 5v1.8c0 3.1 1.6 5 4.1 5 2.5-.1 4.1-1.9 4.1-5Zm-4.1 3.6c-1.7 0-2.7-1.3-2.7-3.7v-1.7c0-2.4 1-3.7 2.7-3.7 1.7 0 2.7 1.3 2.7 3.7v1.8c0 2.3-1 3.6-2.7 3.6Zm12.5 1.1v-1.2h-2.3v-8.8h2.3v-1.2h-5.9v1.2h2.3v8.8h-2.3v1.2h5.9Zm2.9-11.3v11.3h3.2c3.2 0 4.8-1.9 4.8-5.7 0-3.7-1.6-5.6-4.8-5.6H200Zm1.4 1.3h1.6c2.4 0 3.5 1.4 3.5 4.4 0 3-1.1 4.4-3.5 4.4h-1.6v-8.8Zm12.1 8.9c-1.8 0-2.8-1.2-2.8-3.6v-2c0-2.3 1-3.6 2.8-3.6 1.4 0 2.5 1 2.5 2.5h1.4c0-2.4-1.5-3.9-3.9-3.9-2.6 0-4.2 1.8-4.2 4.9v2c0 3.1 1.5 4.9 4.2 4.9 2.3 0 3.9-1.5 3.9-3.7H216c0 1.6-1 2.5-2.5 2.5Zm19.4-7.5c-1.2 0-2.1.5-2.5 1.4h-.1v-1.3H229v11.3h1.4v-4.2h.1c.4.9 1.3 1.5 2.5 1.5 2 0 3.2-1.4 3.2-3.6v-1.6c0-2.1-1.3-3.5-3.3-3.5Zm-.3 1.2c1.4 0 2.3 1 2.3 2.6v1.2c0 1.6-.9 2.6-2.3 2.6s-2.3-1-2.3-2.6v-1.2c0-1.6.9-2.6 2.3-2.6Zm9.1 3.6c0-2.2 1.1-3.5 3-3.5.5 0 1 .1 1.4.2v-1.4c-.3-.1-.7-.2-1.2-.2-1.6 0-2.7.8-3 2.4h-.2v-2.2h-3.2v1.1h1.9v6.4h-1.7v1.1h5.6v-1.1h-2.6v-2.8Zm9.9 4c2.2 0 3.7-1.5 3.7-3.8v-1.3c0-2.3-1.4-3.8-3.7-3.8-2.2 0-3.7 1.5-3.7 3.8v1.3c0 2.3 1.4 3.8 3.7 3.8Zm0-7.6c1.5 0 2.4 1 2.4 2.7v1c0 1.7-.9 2.7-2.4 2.7s-2.4-1-2.4-2.7v-1c0-1.7.9-2.7 2.4-2.7Zm5.7-1.1 3.1 8.5h1.5l3.1-8.5h-1.5l-2.4 7.1h-.1l-2.4-7.1h-1.3Zm13.5-2.1c.6 0 1.1-.5 1.1-1.1 0-.6-.5-1.1-1.1-1.1-.6 0-1.1.5-1.1 1.1 0 .7.5 1.1 1.1 1.1Zm3.6 10.6v-1.1h-2.8v-7.4h-4.2v1.1h2.9v6.3h-2.9v1.1h7Zm5.3.1c1.2 0 2.1-.5 2.5-1.4h.1v1.3h1.3v-11.8h-1.4v4.6h-.1c-.4-.9-1.3-1.5-2.5-1.5-2 0-3.2 1.4-3.2 3.6v1.6c.1 2.2 1.4 3.6 3.3 3.6Zm.4-1.2c-1.4 0-2.3-1-2.3-2.6v-1.2c0-1.6.9-2.6 2.3-2.6s2.3 1 2.3 2.6v1.2c0 1.6-.9 2.6-2.3 2.6Zm12-1.1c-.2.7-1 1.2-2.1 1.2-1.4 0-2.4-1-2.4-2.6v-.3h5.8v-.8c0-2.5-1.3-3.9-3.5-3.9s-3.6 1.5-3.6 3.7v1.3c0 2.4 1.4 3.8 3.7 3.8 1.8 0 3.1-.9 3.4-2.3l-1.3-.1Zm-2.2-5.3c1.4 0 2.2 1 2.2 2.6h-4.5c.1-1.6.9-2.6 2.3-2.6Zm9.2 3.7c0-2.2 1.1-3.5 3-3.5.5 0 1 .1 1.4.2v-1.4c-.3-.1-.7-.2-1.2-.2-1.6 0-2.7.8-3 2.4h-.2v-2.2h-3.2v1.1h1.9v6.4h-1.7v1.1h5.6v-1.1h-2.6v-2.8Zm-3.7 35.6v-5H294v5h1.4Zm3.1 0v-5h-1.4v5h1.4Zm7.6 6.4c2.2 0 3.7-1.5 3.7-3.8v-1.3c0-2.3-1.4-3.8-3.7-3.8-2.2 0-3.7 1.5-3.7 3.8v1.3c.1 2.3 1.5 3.8 3.7 3.8Zm0-7.6c1.5 0 2.4 1 2.4 2.7v1c0 1.7-.9 2.7-2.4 2.7s-2.4-1-2.4-2.7v-1c.1-1.7 1-2.7 2.4-2.7Zm9.1 7.6c1.2 0 2.2-.5 2.6-1.4h.1v1.3h1.3v-5.8c0-1.8-1.1-2.8-3.1-2.8-1.7 0-3 .9-3.2 2.3h1.3c.2-.7.9-1.1 1.9-1.1 1.2 0 1.8.6 1.8 1.6v.8l-2.3.1c-1.9.1-3 1-3 2.5-.1 1.4.9 2.5 2.6 2.5Zm.3-1.2c-1.1 0-1.7-.5-1.7-1.4 0-.9.6-1.4 1.8-1.4l2.2-.1v1c0 1-1 1.9-2.3 1.9Zm13.9-7.5h-1.3v5c0 1.4-.9 2.4-2.3 2.4-1.3 0-1.9-.7-1.9-2.2v-5.2h-1.3v5.5c0 2 1 3.1 2.8 3.1 1.3 0 2.3-.6 2.7-1.6h.1v1.5h1.3v-8.5h-.1Zm5-2.2v2.3h-2.3v1.1h2.3v4.8c0 1.8 1 2.6 3.1 2.6.4 0 1.4 0 1.6-.1v-1.1h-1.6c-1.2 0-1.8-.5-1.8-1.4v-4.8h3.4v-1.1h-3.4v-2.3h-1.3Zm7.8 10.7h1.3v-5c0-1.4.9-2.4 2.3-2.4 1.3 0 2 .7 2 2.2v5.2h1.3v-5.5c0-2-1-3.1-2.8-3.1-1.3 0-2.3.6-2.7 1.6h-.1v-4.8h-1.3v11.8Zm17.4 2.4v-1.1h-8.1v1.1h8.1Zm9.4-8.2c-.2-1.7-1.5-2.8-3.4-2.8-2.3 0-3.6 1.4-3.6 3.8v1.1c0 2.4 1.3 3.8 3.6 3.8 1.9 0 3.2-1.1 3.4-2.8h-1.3c-.2 1-1 1.6-2.1 1.6-1.5 0-2.3-1-2.3-2.8v-.8c0-1.8.8-2.8 2.3-2.8 1.1 0 1.9.6 2.1 1.6l1.3.1Zm10.1 5.8v-1.1h-2.8v-10.7h-4.2v1.1h2.9v9.6h-2.9v1.1h7Zm6.3-10.6c.6 0 1.1-.5 1.1-1.1 0-.6-.5-1.1-1.1-1.1-.6 0-1.1.5-1.1 1.1 0 .7.5 1.1 1.1 1.1Zm3.6 10.6v-1.1h-2.8v-7.4H382v1.1h2.9v6.3H382v1.1h7Zm8.4-2.2c-.2.7-1 1.2-2.1 1.2-1.4 0-2.4-1-2.4-2.6v-.3h5.8v-.8c0-2.5-1.3-3.9-3.5-3.9s-3.6 1.5-3.6 3.7v1.3c0 2.4 1.4 3.8 3.7 3.8 1.8 0 3.1-.9 3.4-2.3l-1.3-.1Zm-2.2-5.3c1.4 0 2.2 1 2.2 2.6h-4.5c.1-1.6.9-2.6 2.3-2.6Zm6.4 7.5h1.3v-5c0-1.4.9-2.4 2.3-2.4 1.3 0 1.9.7 1.9 2.2v5.2h1.3v-5.5c0-2-1-3.1-2.8-3.1-1.3 0-2.3.6-2.7 1.6h-.1v-1.5h-1.3v8.5h.1Zm11.9-10.7v2.3h-2.3v1.1h2.3v4.8c0 1.8 1 2.6 3.1 2.6.4 0 1.4 0 1.6-.1v-1.1h-1.6c-1.2 0-1.8-.5-1.8-1.4v-4.8h3.4v-1.1h-3.4v-2.3h-1.3Zm15.4 13.1v-1.1h-8.1v1.1h8.1Zm6-13c.6 0 1.1-.5 1.1-1.1 0-.6-.5-1.1-1.1-1.1-.6 0-1.1.5-1.1 1.1 0 .7.4 1.1 1.1 1.1Zm3.5 10.6v-1.1h-2.8v-7.4h-4.2v1.1h2.9v6.3h-2.9v1.1h7Zm5.7.1c1.2 0 2.1-.5 2.5-1.4h.1v1.3h1.3v-11.8h-1.4v4.6h-.1c-.4-.9-1.3-1.5-2.5-1.5-2 0-3.2 1.4-3.2 3.6v1.6c0 2.2 1.3 3.6 3.3 3.6Zm.4-1.2c-1.4 0-2.3-1-2.3-2.6v-1.2c0-1.6.9-2.6 2.3-2.6s2.3 1 2.3 2.6v1.2c0 1.6-.9 2.6-2.3 2.6Zm9.2-5.1v-5h-1.4v5h1.4Zm3 0v-5h-1.4v5h1.4Zm-101.9 19v-5h-1.4v5h1.4Zm3 0v-5h-1.4v5h1.4Zm7.7 6.4c2.2 0 3.7-1.5 3.7-3.8v-1.3c0-2.3-1.4-3.8-3.7-3.8-2.3 0-3.7 1.5-3.7 3.8v1.3c0 2.3 1.4 3.8 3.7 3.8Zm0-7.6c1.5 0 2.4 1 2.4 2.7v1c0 1.7-.9 2.7-2.4 2.7s-2.4-1-2.4-2.7v-1c0-1.7.9-2.7 2.4-2.7Zm9 7.6c1.2 0 2.2-.5 2.6-1.4h.1v1.3h1.3v-5.8c0-1.8-1.1-2.8-3.1-2.8-1.7 0-3 .9-3.2 2.3h1.3c.2-.7.9-1.1 1.9-1.1 1.2 0 1.8.6 1.8 1.6v.8l-2.3.1c-1.9.1-3 1-3 2.5-.1 1.4 1 2.5 2.6 2.5Zm.4-1.2c-1.1 0-1.7-.5-1.7-1.4 0-.9.6-1.4 1.8-1.4l2.2-.1v1c-.1 1-1 1.9-2.3 1.9Zm13.8-7.5h-1.3v5c0 1.4-.9 2.4-2.3 2.4-1.3 0-1.9-.7-1.9-2.2v-5.2h-1.3v5.5c0 2 1 3.1 2.8 3.1 1.3 0 2.3-.6 2.7-1.6h.1v1.5h1.3v-8.5h-.1Zm5-2.2v2.3h-2.3v1.1h2.3v4.8c0 1.8 1 2.6 3.1 2.6.4 0 1.4 0 1.6-.1v-1.1h-1.6c-1.2 0-1.8-.5-1.8-1.4v-4.8h3.4v-1.1H395v-2.3h-1.3Zm7.9 10.7h1.3v-5c0-1.4.9-2.4 2.3-2.4 1.3 0 2 .7 2 2.2v5.2h1.3v-5.5c0-2-1-3.1-2.8-3.1-1.3 0-2.3.6-2.7 1.6h-.1v-4.8h-1.3v11.8Zm17.4 2.4v-1.1h-8.1v1.1h8.1Zm6-13c.6 0 1.1-.5 1.1-1.1 0-.6-.5-1.1-1.1-1.1-.6 0-1.1.5-1.1 1.1 0 .7.4 1.1 1.1 1.1Zm3.5 10.6v-1.1h-2.8v-7.4h-4.2v1.1h2.9v6.3h-2.9v1.1h7Zm3.1-6.2c0 1.2.8 2 2.3 2.3l1.3.3c1.1.2 1.5.6 1.5 1.3 0 .8-.7 1.3-1.9 1.3-1.1 0-1.8-.5-2-1.2h-1.4c.1 1.5 1.4 2.4 3.3 2.4 2 0 3.3-1 3.3-2.6 0-1.2-.8-1.9-2.4-2.3l-1.2-.3c-1.1-.2-1.5-.6-1.5-1.2 0-.8.7-1.3 1.8-1.3 1 0 1.7.5 1.9 1.2h1.3c-.2-1.4-1.4-2.3-3.1-2.3-1.9 0-3.2.9-3.2 2.4Zm9.9 0c0 1.2.8 2 2.3 2.3l1.3.3c1.1.2 1.5.6 1.5 1.3 0 .8-.7 1.3-1.9 1.3-1.1 0-1.8-.5-2-1.2h-1.4c.1 1.5 1.4 2.4 3.3 2.4 2 0 3.3-1 3.3-2.6 0-1.2-.8-1.9-2.4-2.3l-1.2-.3c-1.1-.2-1.5-.6-1.5-1.2 0-.8.7-1.3 1.8-1.3 1 0 1.7.5 1.9 1.2h1.3c-.2-1.4-1.4-2.3-3.1-2.3-1.9 0-3.2.9-3.2 2.4Zm16.5-2.3h-1.3v5c0 1.4-.9 2.4-2.3 2.4-1.3 0-1.9-.7-1.9-2.2v-5.2h-1.3v5.5c0 2 1 3.1 2.8 3.1 1.3 0 2.3-.6 2.7-1.6h.1v1.5h1.3v-8.5h-.1Zm8.7 6.3c-.2.7-1 1.2-2.1 1.2-1.4 0-2.4-1-2.4-2.6v-.3h5.8v-.8c0-2.5-1.3-3.9-3.5-3.9s-3.6 1.5-3.6 3.7v1.3c0 2.4 1.4 3.8 3.7 3.8 1.8 0 3.1-.9 3.4-2.3l-1.3-.1Zm-2.2-5.3c1.4 0 2.2 1 2.2 2.6h-4.5c0-1.6.9-2.6 2.3-2.6Zm9.4 3.7c0-2.2 1.1-3.5 3-3.5.5 0 1 .1 1.4.2v-1.4c-.3-.1-.7-.2-1.2-.2-1.6 0-2.7.8-3 2.4h-.2v-2.2h-3.2v1.1h1.9v6.4h-1.7v1.1h5.6v-1.1h-2.6v-2.8Zm14.3 6.2v-1.1h-8.1v1.1h8.1Zm9.6-2.4v-1.1H495v-10.7h-4.2v1.1h2.9v9.6h-2.9v1.1h7Zm6.1.2c2.2 0 3.7-1.5 3.7-3.8v-1.3c0-2.3-1.4-3.8-3.7-3.8-2.3 0-3.7 1.5-3.7 3.8v1.3c.1 2.3 1.5 3.8 3.7 3.8Zm0-7.6c1.5 0 2.4 1 2.4 2.7v1c0 1.7-.9 2.7-2.4 2.7s-2.4-1-2.4-2.7v-1c.1-1.7 1-2.7 2.4-2.7Zm13.5 1.6c-.2-1.7-1.5-2.8-3.4-2.8-2.3 0-3.6 1.4-3.6 3.8v1.1c0 2.4 1.3 3.8 3.6 3.8 1.9 0 3.2-1.1 3.4-2.8h-1.3c-.2 1-1 1.6-2.1 1.6-1.5 0-2.3-1-2.3-2.8v-.8c0-1.8.8-2.8 2.3-2.8 1.1 0 1.9.6 2.1 1.6l1.3.1Zm5.5 6c1.2 0 2.2-.5 2.6-1.4h.1v1.3h1.3v-5.8c0-1.8-1.1-2.8-3.1-2.8-1.7 0-3 .9-3.2 2.3h1.3c.2-.7.9-1.1 1.9-1.1 1.2 0 1.8.6 1.8 1.6v.8l-2.3.1c-1.9.1-3 1-3 2.5-.1 1.4 1 2.5 2.6 2.5Zm.4-1.2c-1.1 0-1.7-.5-1.7-1.4 0-.9.6-1.4 1.8-1.4l2.2-.1v1c-.1 1-1.1 1.9-2.3 1.9Zm8.9-9.7v2.3h-2.3v1.1h2.3v4.8c0 1.8 1 2.6 3.1 2.6.4 0 1.4 0 1.6-.1v-1.1h-1.6c-1.2 0-1.8-.5-1.8-1.4v-4.8h3.4v-1.1h-3.4v-2.3h-1.3Zm11.5.1c.6 0 1.1-.5 1.1-1.1 0-.6-.5-1.1-1.1-1.1-.6 0-1.1.5-1.1 1.1 0 .7.4 1.1 1.1 1.1Zm3.5 10.6v-1.1h-2.8v-7.4h-4.2v1.1h2.9v6.3h-2.9v1.1h7Zm6.2.2c2.2 0 3.7-1.5 3.7-3.8v-1.3c0-2.3-1.4-3.8-3.7-3.8-2.3 0-3.7 1.5-3.7 3.8v1.3c0 2.3 1.5 3.8 3.7 3.8Zm0-7.6c1.5 0 2.4 1 2.4 2.7v1c0 1.7-.9 2.7-2.4 2.7s-2.4-1-2.4-2.7v-1c0-1.7.9-2.7 2.4-2.7Zm6.4 7.4h1.3v-5c0-1.4.9-2.4 2.3-2.4 1.3 0 1.9.7 1.9 2.2v5.2h1.3v-5.5c0-2-1-3.1-2.8-3.1-1.3 0-2.3.6-2.7 1.6h-.1v-1.5h-1.3v8.5h.1Zm12.6-6.2v-5H571v5h1.4Zm3 0v-5H574v5h1.4Zm-240.4 19v-5h-1.4v5h1.4Zm3 0v-5h-1.4v5h1.4Zm7.7 6.4c2.2 0 3.7-1.5 3.7-3.8v-1.3c0-2.3-1.4-3.8-3.7-3.8-2.3 0-3.7 1.5-3.7 3.8v1.3c0 2.3 1.5 3.8 3.7 3.8Zm0-7.6c1.5 0 2.4 1 2.4 2.7v1c0 1.7-.9 2.7-2.4 2.7s-2.4-1-2.4-2.7v-1c0-1.7.9-2.7 2.4-2.7Zm9 7.6c1.2 0 2.2-.5 2.6-1.4h.1v1.3h1.3v-5.8c0-1.8-1.1-2.8-3.1-2.8-1.7 0-3 .9-3.2 2.3h1.3c.2-.7.9-1.1 1.9-1.1 1.2 0 1.8.6 1.8 1.6v.8l-2.3.1c-1.9.1-3 1-3 2.5-.1 1.4 1 2.5 2.6 2.5Zm.4-1.2c-1.1 0-1.7-.5-1.7-1.4 0-.9.6-1.4 1.8-1.4l2.2-.1v1c0 1-1 1.9-2.3 1.9Zm13.8-7.5h-1.3v5c0 1.4-.9 2.4-2.3 2.4-1.3 0-1.9-.7-1.9-2.2v-5.2h-1.3v5.5c0 2 1 3.1 2.8 3.1 1.3 0 2.3-.6 2.7-1.6h.1v1.5h1.3v-8.5h-.1Zm5-2.2v2.3h-2.3v1.1h2.3v4.8c0 1.8 1 2.6 3.1 2.6.4 0 1.4 0 1.6-.1v-1.1H377c-1.2 0-1.8-.5-1.8-1.4v-4.8h3.4v-1.1h-3.4v-2.3h-1.3Zm7.9 10.7h1.3v-5c0-1.4.9-2.4 2.3-2.4 1.3 0 2 .7 2 2.2v5.2h1.3v-5.5c0-2-1-3.1-2.8-3.1-1.3 0-2.3.6-2.7 1.6h-.1v-4.8h-1.3v11.8Zm17.4 2.4v-1.1h-8.1v1.1h8.1Zm9.4-8.2c-.2-1.7-1.5-2.8-3.4-2.8-2.3 0-3.6 1.4-3.6 3.8v1.1c0 2.4 1.3 3.8 3.6 3.8 1.9 0 3.2-1.1 3.4-2.8h-1.3c-.2 1-1 1.6-2.1 1.6-1.5 0-2.3-1-2.3-2.8v-.8c0-1.8.8-2.8 2.3-2.8 1.1 0 1.9.6 2.1 1.6l1.3.1Zm10 5.8v-1.1h-2.8v-10.7h-4.2v1.1h2.9v9.6h-2.9v1.1h7Zm6.4-10.6c.6 0 1.1-.5 1.1-1.1 0-.6-.5-1.1-1.1-1.1-.6 0-1.1.5-1.1 1.1 0 .7.4 1.1 1.1 1.1Zm3.5 10.6v-1.1h-2.8v-7.4h-4.2v1.1h2.9v6.3h-2.9v1.1h7Zm8.5-2.2c-.2.7-1 1.2-2.1 1.2-1.4 0-2.4-1-2.4-2.6v-.3h5.8v-.8c0-2.5-1.3-3.9-3.5-3.9s-3.6 1.5-3.6 3.7v1.3c0 2.4 1.4 3.8 3.7 3.8 1.8 0 3.1-.9 3.4-2.3l-1.3-.1Zm-2.2-5.3c1.4 0 2.2 1 2.2 2.6h-4.5c0-1.6.9-2.6 2.3-2.6Zm6.3 7.5h1.3v-5c0-1.4.9-2.4 2.3-2.4 1.3 0 1.9.7 1.9 2.2v5.2h1.3v-5.5c0-2-1-3.1-2.8-3.1-1.3 0-2.3.6-2.7 1.6h-.1v-1.5H441v8.5h.1Zm11.9-10.7v2.3h-2.3v1.1h2.3v4.8c0 1.8 1 2.6 3.1 2.6.4 0 1.4 0 1.6-.1v-1.1h-1.6c-1.2 0-1.8-.5-1.8-1.4v-4.8h3.4v-1.1h-3.4v-2.3H453Zm15.4 13.1v-1.1h-8.1v1.1h8.1Zm2.8-8.6c0 1.2.8 2 2.3 2.3l1.3.3c1.1.2 1.5.6 1.5 1.3 0 .8-.7 1.3-1.9 1.3-1.1 0-1.8-.5-2-1.2H471c.1 1.5 1.4 2.4 3.3 2.4 2 0 3.3-1 3.3-2.6 0-1.2-.8-1.9-2.4-2.3l-1.2-.3c-1.1-.2-1.5-.6-1.5-1.2 0-.8.7-1.3 1.8-1.3 1 0 1.7.5 1.9 1.2h1.3c-.2-1.4-1.4-2.3-3.1-2.3-2 0-3.2.9-3.2 2.4Zm15.3 4c-.2.7-1 1.2-2.1 1.2-1.4 0-2.4-1-2.4-2.6v-.3h5.8v-.8c0-2.5-1.3-3.9-3.5-3.9s-3.6 1.5-3.6 3.7v1.3c0 2.4 1.4 3.8 3.7 3.8 1.8 0 3.1-.9 3.4-2.3l-1.3-.1Zm-2.2-5.3c1.4 0 2.2 1 2.2 2.6H482c0-1.6.8-2.6 2.3-2.6Zm13.3 1.7c-.2-1.7-1.5-2.8-3.4-2.8-2.3 0-3.6 1.4-3.6 3.8v1.1c0 2.4 1.3 3.8 3.6 3.8 1.9 0 3.2-1.1 3.4-2.8h-1.3c-.2 1-1 1.6-2.1 1.6-1.5 0-2.3-1-2.3-2.8v-.8c0-1.8.8-2.8 2.3-2.8 1.1 0 1.9.6 2.1 1.6l1.3.1Zm6 2c0-2.2 1.1-3.5 3-3.5.5 0 1 .1 1.4.2v-1.4c-.3-.1-.7-.2-1.2-.2-1.6 0-2.7.8-3 2.4h-.2v-2.2h-3.2v1.1h1.9v6.4h-1.7v1.1h5.6v-1.1h-2.6v-2.8Zm12.5 1.6c-.2.7-1 1.2-2.1 1.2-1.4 0-2.4-1-2.4-2.6v-.3h5.8v-.8c0-2.5-1.3-3.9-3.5-3.9s-3.6 1.5-3.6 3.7v1.3c0 2.4 1.4 3.8 3.7 3.8 1.8 0 3.1-.9 3.4-2.3l-1.3-.1Zm-2.2-5.3c1.4 0 2.2 1 2.2 2.6h-4.5c.1-1.6.9-2.6 2.3-2.6Zm8.4-3.2v2.3H520v1.1h2.3v4.8c0 1.8 1 2.6 3.1 2.6.4 0 1.4 0 1.6-.1v-1.1h-1.6c-1.2 0-1.8-.5-1.8-1.4v-4.8h3.4v-1.1h-3.4v-2.3h-1.3Zm10.5 4.5v-5h-1.4v5h1.4Zm3.1 0v-5h-1.4v5h1.4Z" fill="#0BA94A"/><path d="M95.3001 66.2482c0 1.2.8 2 2.3 2.3l1.3.3c1.0999.2 1.4999.6 1.4999 1.3 0 .8-.6999 1.3-1.8999 1.3-1.1 0-1.8-.5-2-1.2h-1.4c.1 1.5 1.4 2.4 3.3 2.4 1.9999 0 3.2999-1 3.2999-2.6 0-1.2-.8-1.9-2.3999-2.3l-1.2-.3c-1.1-.2-1.5-.6-1.5-1.2 0-.8.7-1.3 1.8-1.3 1 0 1.6999.5 1.8999 1.2h1.3c-.2-1.4-1.4-2.3-3.0999-2.3-1.9 0-3.2.9-3.2 2.4Zm12.4999 6.3c1.2 0 2.1-.5 2.5-1.4h.2v1.3h1.3v-11.8h-1.4v4.6h-.1c-.4-.9-1.3-1.5-2.5-1.5-2 0-3.2 1.4-3.2 3.6v1.6c-.1 2.2 1.2 3.6 3.2 3.6Zm.4-1.2c-1.4 0-2.3-1-2.3-2.6v-1.2c0-1.6.9-2.6 2.3-2.6s2.3 1 2.3 2.6v1.2c0 1.6-.9 2.6-2.3 2.6Zm8.6-3.6-.1-7.1h-1.3v11.8h1.3v-3.1l1.2-1.1 2.9 4.2h1.6l-3.5-5.1 3.3-3.4h-1.7l-3.7 3.8Zm11.3 4.8c.8 0 1.4-.6 1.4-1.4 0-.8-.6-1.4-1.4-1.4-.8 0-1.4.6-1.4 1.4 0 .7.6 1.4 1.4 1.4Zm13.4-5.9c-.2-1.7-1.5-2.8-3.4-2.8-2.3 0-3.6 1.4-3.6 3.8v1.1c0 2.4 1.3 3.8 3.6 3.8 1.9 0 3.2-1.1 3.4-2.8h-1.3c-.2 1-1 1.6-2.1 1.6-1.5 0-2.3-1-2.3-2.8v-.8c0-1.8.8-2.8 2.3-2.8 1.1 0 1.9.6 2.1 1.6h1.3v.1Zm5.5 6c1.2 0 2.2-.5 2.6-1.4h.1v1.3h1.3v-5.8c0-1.8-1.1-2.8-3.1-2.8-1.7 0-3 .9-3.2 2.3h1.3c.2-.7.9-1.1 1.9-1.1 1.2 0 1.8.6 1.8 1.6v.8l-2.3.1c-1.9.1-3 1-3 2.5-.1 1.4 1 2.5 2.6 2.5Zm.4-1.2c-1.1 0-1.7-.5-1.7-1.4 0-.9.6-1.4 1.8-1.4l2.2-.1v1c0 1-1 1.9-2.3 1.9Zm8.9-9.7v2.3H154v1.1h2.3v4.8c0 1.8 1 2.6 3.1 2.6.4 0 1.4 0 1.6-.1v-1.1h-1.6c-1.2 0-1.8-.5-1.8-1.4v-4.8h3.4v-1.1h-3.4v-2.3h-1.3Zm10.5 10.9c1.2 0 2.2-.5 2.6-1.4h.1v1.3h1.3v-5.8c0-1.8-1.1-2.8-3.1-2.8-1.7 0-3 .9-3.2 2.3h1.3c.2-.7.9-1.1 1.9-1.1 1.2 0 1.8.6 1.8 1.6v.8l-2.3.1c-1.9.1-3 1-3 2.5-.1 1.4 1 2.5 2.6 2.5Zm.4-1.2c-1.1 0-1.7-.5-1.7-1.4 0-.9.6-1.4 1.8-1.4l2.2-.1v1c-.1 1-1 1.9-2.3 1.9Zm14.1 1v-1.1h-2.8v-10.7h-4.2v1.1h2.9v9.6h-2.9v1.1h7Zm6.1.2c2.2 0 3.7-1.5 3.7-3.8v-1.3c0-2.3-1.4-3.8-3.7-3.8-2.3 0-3.7 1.5-3.7 3.8v1.3c.1 2.3 1.5 3.8 3.7 3.8Zm0-7.6c1.5 0 2.4 1 2.4 2.7v1c0 1.7-.9 2.7-2.4 2.7s-2.4-1-2.4-2.7v-1c.1-1.7 1-2.7 2.4-2.7Zm9.7 10.6c2.3 0 3.7-1.2 3.7-3.2v-8.5h-1.3v1.3h-.1c-.4-.9-1.3-1.5-2.5-1.5-2 0-3.3 1.4-3.3 3.6v1.6c0 2.2 1.3 3.6 3.2 3.6 1.2 0 2.2-.5 2.5-1.4h.1v1.3c0 1.4-.8 2.1-2.3 2.1-1.1 0-2-.5-2.2-1.2h-1.3c.2 1.4 1.5 2.3 3.5 2.3Zm-2.3-6.9v-1.2c0-1.6.9-2.6 2.3-2.6s2.3 1 2.3 2.6v1.2c0 1.6-.9 2.6-2.3 2.6s-2.3-1-2.3-2.6Zm16.5 6.1v-1.1h-8.1v1.1h8.1Zm5.8-2.2c2.2 0 3.7-1.5 3.7-3.8v-1.3c0-2.3-1.4-3.8-3.7-3.8-2.2 0-3.7 1.5-3.7 3.8v1.3c0 2.3 1.5 3.8 3.7 3.8Zm0-7.6c1.5 0 2.4 1 2.4 2.7v1c0 1.7-.9 2.7-2.4 2.7s-2.4-1-2.4-2.7v-1c.1-1.7 1-2.7 2.4-2.7Zm9.6 3.6c0-2.2 1.1-3.5 3-3.5.5 0 1 .1 1.4.2v-1.4c-.3-.1-.7-.2-1.2-.2-1.6 0-2.7.8-3 2.4h-.2v-2.2h-3.2v1.1h1.9v6.4h-1.7v1.1h5.6v-1.1h-2.6v-2.8Zm9.9 7c2.3 0 3.7-1.2 3.7-3.2v-8.5H239v1.3h-.1c-.4-.9-1.3-1.5-2.5-1.5-2 0-3.3 1.4-3.3 3.6v1.6c0 2.2 1.3 3.6 3.2 3.6 1.2 0 2.2-.5 2.5-1.4h.1v1.3c0 1.4-.8 2.1-2.3 2.1-1.1 0-2-.5-2.2-1.2h-1.3c.3 1.4 1.6 2.3 3.5 2.3Zm-2.2-6.9v-1.2c0-1.6.9-2.6 2.3-2.6s2.3 1 2.3 2.6v1.2c0 1.6-.9 2.6-2.3 2.6s-2.3-1-2.3-2.6Zm11.5 3.9c1.2 0 2.2-.5 2.6-1.4h.1v1.3h1.3v-5.8c0-1.8-1.1-2.8-3.1-2.8-1.7 0-3 .9-3.2 2.3h1.3c.2-.7.9-1.1 1.9-1.1 1.2 0 1.8.6 1.8 1.6v.8l-2.3.1c-1.9.1-3 1-3 2.5-.1 1.4 1 2.5 2.6 2.5Zm.4-1.2c-1.1 0-1.7-.5-1.7-1.4 0-.9.6-1.4 1.8-1.4l2.2-.1v1c0 1-1 1.9-2.3 1.9Zm6.9 1h1.3v-5c0-1.4.9-2.4 2.3-2.4 1.3 0 1.9.7 1.9 2.2v5.2h1.3v-5.5c0-2-1-3.1-2.8-3.1-1.3 0-2.3.6-2.7 1.6v-1.5h-1.3v8.5Zm13.5-10.6c.6 0 1.1-.5 1.1-1.1 0-.6-.5-1.1-1.1-1.1-.6 0-1.1.5-1.1 1.1 0 .7.5 1.1 1.1 1.1Zm3.6 10.6v-1.1h-2.8v-7.4h-4.2v1.1h2.9v6.3h-2.9v1.1h7Zm2.9 0h6.6v-1.1h-4.9v-.1l4.9-6.2v-1h-6.5v1.1h5v.1l-5 6.3v.9h-.1Zm12.3.2c1.2 0 2.2-.5 2.6-1.4h.1v1.3h1.3v-5.8c0-1.8-1.1-2.8-3.1-2.8-1.7 0-3 .9-3.2 2.3h1.3c.2-.7.9-1.1 1.9-1.1 1.2 0 1.8.6 1.8 1.6v.8l-2.3.1c-1.9.1-3 1-3 2.5-.1 1.4 1 2.5 2.6 2.5Zm.4-1.2c-1.1 0-1.7-.5-1.7-1.4 0-.9.6-1.4 1.8-1.4l2.2-.1v1c-.1 1-1 1.9-2.3 1.9Zm8.9-9.7v2.3h-2.3v1.1h2.3v4.8c0 1.8 1 2.6 3.1 2.6.4 0 1.4 0 1.6-.1v-1.1h-1.6c-1.2 0-1.8-.5-1.8-1.4v-4.8h3.4v-1.1h-3.4v-2.3h-1.3Zm11.5.1c.6 0 1.1-.5 1.1-1.1 0-.6-.5-1.1-1.1-1.1-.6 0-1.1.5-1.1 1.1 0 .7.5 1.1 1.1 1.1Zm3.5 10.6v-1.1H307v-7.4h-4.2v1.1h2.9v6.3h-2.9v1.1h7Zm6.2.2c2.2 0 3.7-1.5 3.7-3.8v-1.3c0-2.3-1.4-3.8-3.7-3.8-2.3 0-3.7 1.5-3.7 3.8v1.3c.1 2.3 1.5 3.8 3.7 3.8Zm0-7.6c1.5 0 2.4 1 2.4 2.7v1c0 1.7-.9 2.7-2.4 2.7s-2.4-1-2.4-2.7v-1c.1-1.7 1-2.7 2.4-2.7Zm6.4 7.4h1.3v-5c0-1.4.9-2.4 2.3-2.4 1.3 0 1.9.7 1.9 2.2v5.2h1.3v-5.5c0-2-1-3.1-2.8-3.1-1.3 0-2.3.6-2.7 1.6h-.1v-1.5h-1.3v8.5h.1Zm13.4.1c.8 0 1.4-.6 1.4-1.4 0-.8-.6-1.4-1.4-1.4-.8 0-1.4.6-1.4 1.4 0 .7.6 1.4 1.4 1.4Zm117-5.7c0 2.7.8 5 2.4 6.7h1.3c-1.6-2.3-2.3-4.3-2.3-6.7 0-2.5.7-4.4 2.3-6.7h-1.3c-1.6 1.7-2.4 4-2.4 6.7Zm-271.1 18.5v-1.3h-8.3v1.3h8.3Zm0 3.5v-1.3h-8.3v1.3h8.3Zm-81.6 15.9998c0-2.6-.7999-4.9998-2.3999-6.6998h-1.2c1.6 2.2998 2.3 4.2998 2.3 6.6998 0 2.5-.7 4.4-2.3 6.7h1.3c1.5-1.8 2.2999-4.1 2.2999-6.7Zm-4.7999 37.4c0 1.2.8 2 2.3 2.3l1.3.3c1.0999.2 1.4999.6 1.4999 1.3 0 .8-.6999 1.3-1.8999 1.3-1.1 0-1.8-.5-2-1.2h-1.4c.1 1.5 1.4 2.4 3.3 2.4 1.9999 0 3.2999-1 3.2999-2.6 0-1.2-.8-1.9-2.3999-2.3l-1.2-.3c-1.1-.2-1.5-.6-1.5-1.2 0-.8.7-1.3 1.8-1.3 1 0 1.6999.5 1.8999 1.2h1.3c-.2-1.4-1.4-2.3-3.0999-2.3-1.9 0-3.2.9-3.2 2.4Zm12.1999 6.3c1.2 0 2.1-.5 2.5-1.4h.1v1.3h1.4v-11.8h-1.4v4.6h-.1c-.4-.9-1.3-1.5-2.5-1.5-2 0-3.2 1.4-3.2 3.6v1.6c-.1 2.2 1.2 3.6 3.2 3.6Zm.4-1.2c-1.4 0-2.3-1-2.3-2.6v-1.2c0-1.6.9-2.6 2.3-2.6s2.3 1 2.3 2.6v1.2c-.1 1.6-.9 2.6-2.3 2.6Zm8.3-3.6-.1-7.1h-1.3v11.8h1.3v-3.1l1.2-1.1 2.9 4.2h1.6l-3.5-5.1 3.2-3.4h-1.6l-3.7 3.8Zm10.9 4.8c.8 0 1.4-.6 1.4-1.4 0-.8-.6-1.4-1.4-1.4-.8 0-1.4.6-1.4 1.4 0 .7.7 1.4 1.4 1.4Zm13.1-5.9c-.2-1.7-1.5-2.8-3.4-2.8-2.3 0-3.6 1.4-3.6 3.8v1.1c0 2.4 1.3 3.8 3.6 3.8 1.9 0 3.2-1.1 3.4-2.8h-1.3c-.2 1-1 1.6-2.1 1.6-1.5 0-2.3-1-2.3-2.8v-.8c0-1.8.8-2.8 2.3-2.8 1.1 0 1.9.6 2.1 1.6l1.3.1Zm5.2 6c1.2 0 2.2-.5 2.6-1.4h.1v1.3h1.3v-5.8c0-1.8-1.1-2.8-3.1-2.8-1.7 0-3 .9-3.2 2.3h1.3c.2-.7.9-1.1 1.9-1.1 1.2 0 1.8.6 1.8 1.6v.8l-2.3.1c-1.9.1-3 1-3 2.5-.1 1.4 1 2.5 2.6 2.5Zm.4-1.2c-1.1 0-1.7-.5-1.7-1.4 0-.9.6-1.4 1.8-1.4l2.2-.1v1c0 1-1 1.9-2.3 1.9Zm8.6-9.7v2.3h-2.3v1.1h2.3v4.8c0 1.8 1 2.6 3.1 2.6.4 0 1.4 0 1.6-.1v-1.1h-1.6c-1.2 0-1.8-.5-1.8-1.4v-4.8h3.4v-1.1h-3.4v-2.3h-1.3Zm10.2 10.9c1.2 0 2.2-.5 2.6-1.4h.1v1.3h1.3v-5.8c0-1.8-1.1-2.8-3.1-2.8-1.7 0-3 .9-3.2 2.3h1.3c.2-.7.9-1.1 1.9-1.1 1.2 0 1.8.6 1.8 1.6v.8l-2.3.1c-1.9.1-3 1-3 2.5-.1 1.4.9 2.5 2.6 2.5Zm.3-1.2c-1.1 0-1.7-.5-1.7-1.4 0-.9.6-1.4 1.8-1.4l2.2-.1v1c0 1-1 1.9-2.3 1.9Zm13.8 1v-1.1h-2.8v-10.7h-4.2v1.1h2.9v9.6h-2.9v1.1h7Zm5.9.2c2.2 0 3.7-1.5 3.7-3.8v-1.3c0-2.3-1.4-3.8-3.7-3.8-2.2 0-3.7 1.5-3.7 3.8v1.3c0 2.3 1.4 3.8 3.7 3.8Zm0-7.6c1.5 0 2.4 1 2.4 2.7v1c0 1.7-.9 2.7-2.4 2.7s-2.4-1-2.4-2.7v-1c0-1.7.9-2.7 2.4-2.7Zm9.3 10.6c2.3 0 3.7-1.2 3.7-3.2v-8.5h-1.3v1.3h-.1c-.4-.9-1.3-1.5-2.5-1.5-2 0-3.3 1.4-3.3 3.6v1.5c0 2.2 1.3 3.6 3.2 3.6 1.2 0 2.2-.5 2.5-1.4h.1v1.3c0 1.4-.8 2.1-2.3 2.1-1.1 0-2-.5-2.2-1.2h-1.3c.2 1.5 1.5 2.4 3.5 2.4Zm-2.3-6.9v-1.2c0-1.6.9-2.6 2.3-2.6s2.3 1 2.3 2.6v1.2c0 1.6-.9 2.6-2.3 2.6s-2.3-1-2.3-2.6Zm16.2 6.1v-1.1h-8.1v1.1h8.1Zm5.5-2.2c2.2 0 3.7-1.5 3.7-3.8v-1.3c0-2.3-1.4-3.8-3.7-3.8-2.3 0-3.7 1.5-3.7 3.8v1.3c0 2.3 1.4 3.8 3.7 3.8Zm0-7.6c1.5 0 2.4 1 2.4 2.7v1c0 1.7-.9 2.7-2.4 2.7s-2.4-1-2.4-2.7v-1c0-1.7.9-2.7 2.4-2.7Zm9.2 3.6c0-2.2 1.1-3.5 3-3.5.5 0 1 .1 1.4.2v-1.4c-.3-.1-.7-.2-1.2-.2-1.6 0-2.7.8-3 2.4h-.2v-2.2h-3.2v1.1h1.9v6.4h-1.7v1.1h5.6v-1.1h-2.6v-2.8Zm9.7 7c2.3 0 3.7-1.2 3.7-3.2v-8.5h-1.4v1.3h-.1c-.4-.9-1.3-1.5-2.5-1.5-2 0-3.3 1.4-3.3 3.6v1.5c0 2.2 1.3 3.6 3.2 3.6 1.2 0 2.2-.5 2.5-1.4h.1v1.3c0 1.4-.8 2.1-2.3 2.1-1.1 0-2-.5-2.2-1.2h-1.3c.3 1.5 1.6 2.4 3.6 2.4Zm-2.3-6.9v-1.2c0-1.6.9-2.6 2.3-2.6s2.3 1 2.3 2.6v1.2c0 1.6-.9 2.6-2.3 2.6s-2.3-1-2.3-2.6Zm11.2 3.9c1.2 0 2.2-.5 2.6-1.4h.1v1.3h1.3v-5.8c0-1.8-1.1-2.8-3.1-2.8-1.7 0-3 .9-3.2 2.3h1.3c.2-.7.9-1.1 1.9-1.1 1.2 0 1.8.6 1.8 1.6v.8l-2.3.1c-1.9.1-3 1-3 2.5-.1 1.4 1 2.5 2.6 2.5Zm.4-1.2c-1.1 0-1.7-.5-1.7-1.4 0-.9.6-1.4 1.8-1.4l2.2-.1v1c0 1-1 1.9-2.3 1.9Zm6.6 1h1.3v-5c0-1.4.9-2.4 2.3-2.4 1.3 0 1.9.7 1.9 2.2v5.2h1.3v-5.5c0-2-1-3.1-2.8-3.1-1.3 0-2.3.6-2.7 1.6h-.1v-1.5H248v8.5h.1Zm13.2-10.6c.6 0 1.1-.5 1.1-1.1 0-.6-.5-1.1-1.1-1.1-.6 0-1.1.5-1.1 1.1 0 .7.5 1.1 1.1 1.1Zm3.5 10.6v-1.1H262v-7.4h-4.2v1.1h2.9v6.3h-2.9v1.1h7Zm2.6 0h6.6v-1.1h-4.9v-.1l4.9-6.2v-1h-6.5v1.1h5v.1l-5 6.3v.9h-.1Zm12 .2c1.2 0 2.2-.5 2.6-1.4h.1v1.3h1.3v-5.8c0-1.8-1.1-2.8-3.1-2.8-1.7 0-3 .9-3.2 2.3h1.3c.2-.7.9-1.1 1.9-1.1 1.2 0 1.8.6 1.8 1.6v.8l-2.3.1c-1.9.1-3 1-3 2.5-.1 1.4 1 2.5 2.6 2.5Zm.4-1.2c-1.1 0-1.7-.5-1.7-1.4 0-.9.6-1.4 1.8-1.4l2.2-.1v1c0 1-1 1.9-2.3 1.9Zm8.6-9.7v2.3h-2.3v1.1h2.3v4.8c0 1.8 1 2.6 3.1 2.6.4 0 1.4 0 1.6-.1v-1.1h-1.6c-1.2 0-1.8-.5-1.8-1.4v-4.8h3.4v-1.1h-3.4v-2.3h-1.3Zm11.2.1c.6 0 1.1-.5 1.1-1.1 0-.6-.5-1.1-1.1-1.1-.6 0-1.1.5-1.1 1.1 0 .7.4 1.1 1.1 1.1Zm3.5 10.6v-1.1h-2.8v-7.4h-4.2v1.1h2.9v6.3h-2.9v1.1h7Zm5.9.2c2.2 0 3.7-1.5 3.7-3.8v-1.3c0-2.3-1.4-3.8-3.7-3.8-2.3 0-3.7 1.5-3.7 3.8v1.3c0 2.3 1.4 3.8 3.7 3.8Zm0-7.6c1.5 0 2.4 1 2.4 2.7v1c0 1.7-.9 2.7-2.4 2.7s-2.4-1-2.4-2.7v-1c0-1.7.9-2.7 2.4-2.7Zm6.1 7.4h1.3v-5c0-1.4.9-2.4 2.3-2.4 1.3 0 1.9.7 1.9 2.2v5.2h1.3v-5.5c0-2-1-3.1-2.8-3.1-1.3 0-2.3.6-2.7 1.6h-.1v-1.5H315v8.5h.1Zm13 .1c.8 0 1.4-.6 1.4-1.4 0-.8-.6-1.4-1.4-1.4-.8 0-1.4.6-1.4 1.4 0 .7.7 1.4 1.4 1.4Zm218.4-5.7c0 2.7.8 5 2.4 6.7h1.3c-1.6-2.3-2.3-4.3-2.3-6.7 0-2.5.7-4.4 2.3-6.7h-1.3c-1.6 1.7-2.4 4-2.4 6.7Zm-256 18.5v-1.3h-8.3v1.3h8.3Zm0 3.5v-1.3h-8.3v1.3h8.3Zm173.2 5.2 1.5-5.1h-1.8l-1 5.1h1.3Zm-113.9 10.3v-1.3h-8.3v1.3h8.3Zm0 3.5v-1.3h-8.3v1.3h8.3Zm232.6 5.2 1.5-5.1h-1.8l-1 5.1h1.3Zm-252.4 10.3v-1.3h-8.3v1.3h8.3Zm0 3.5v-1.3h-8.3v1.3h8.3Zm-229.9 16c0-2.6-.7999-5-2.3999-6.7h-1.2c1.6 2.3 2.3 4.3 2.3 6.7 0 2.5-.7 4.4-2.3 6.7h1.3c1.5-1.8 2.2999-4.1 2.2999-6.7Z" fill="#000"/><path d="M349.2 63.9482h-1.3v5c0 1.4-.9 2.4-2.3 2.4-1.3 0-1.9-.7-1.9-2.2v-5.2h-1.3v5.5c0 2 1 3.1 2.8 3.1 1.3 0 2.3-.6 2.7-1.6h.1v1.5h1.3v-8.5h-.1Zm6.9-.1c-1.2 0-2.1.5-2.5 1.4h-.1v-1.3h-1.3v11.3h1.4v-4.2h.1c.4.9 1.3 1.5 2.5 1.5 2 0 3.2-1.4 3.2-3.6v-1.6c0-2.1-1.3-3.5-3.3-3.5Zm-.4 1.2c1.4 0 2.3 1 2.3 2.6v1.2c0 1.6-.9 2.6-2.3 2.6s-2.3-1-2.3-2.6v-1.2c0-1.6.9-2.6 2.3-2.6Zm9.2 7.5c1.2 0 2.1-.5 2.5-1.4h.1v1.3h1.3v-11.8h-1.4v4.6h-.1c-.4-.9-1.3-1.5-2.5-1.5-2 0-3.2 1.4-3.2 3.6v1.6c.1 2.2 1.4 3.6 3.3 3.6Zm.4-1.2c-1.4 0-2.3-1-2.3-2.6v-1.2c0-1.6.9-2.6 2.3-2.6s2.3 1 2.3 2.6v1.2c0 1.6-.9 2.6-2.3 2.6Zm9.2 1.3c1.2 0 2.2-.5 2.6-1.4h.1v1.3h1.3v-5.8c0-1.8-1.1-2.8-3.1-2.8-1.7 0-3 .9-3.2 2.3h1.3c.2-.7.9-1.1 1.9-1.1 1.2 0 1.8.6 1.8 1.6v.8l-2.3.1c-1.9.1-3 1-3 2.5-.1 1.4 1 2.5 2.6 2.5Zm.4-1.2c-1.1 0-1.7-.5-1.7-1.4 0-.9.6-1.4 1.8-1.4l2.2-.1v1c-.1 1-1 1.9-2.3 1.9Zm8.9-9.7v2.3h-2.3v1.1h2.3v4.8c0 1.8 1 2.6 3.1 2.6.4 0 1.4 0 1.6-.1v-1.1h-1.6c-1.2 0-1.8-.5-1.8-1.4v-4.8h3.4v-1.1h-3.4v-2.3h-1.3Zm13.6 8.5c-.2.7-1 1.2-2.1 1.2-1.4 0-2.4-1-2.4-2.6v-.3h5.8v-.8c0-2.5-1.3-3.9-3.5-3.9s-3.6 1.5-3.6 3.7v1.3c0 2.4 1.4 3.8 3.7 3.8 1.8 0 3.1-.9 3.4-2.3l-1.3-.1Zm-2.2-5.3c1.4 0 2.2 1 2.2 2.6h-4.5c.1-1.6.9-2.6 2.3-2.6Zm13.9 9.9v-1.1H401v1.1h8.1Zm2.4-2.4h1.3v-5c0-1.4.9-2.4 2.3-2.4 1.3 0 1.9.7 1.9 2.2v5.2h1.3v-5.5c0-2-1-3.1-2.8-3.1-1.3 0-2.3.6-2.7 1.6h-.1v-1.5h-1.2v8.5Zm12.5.2c1.2 0 2.2-.5 2.6-1.4h.1v1.3h1.3v-5.8c0-1.8-1.1-2.8-3.1-2.8-1.7 0-3 .9-3.2 2.3h1.3c.2-.7.9-1.1 1.9-1.1 1.2 0 1.8.6 1.8 1.6v.8l-2.3.1c-1.9.1-3 1-3 2.5-.1 1.4.9 2.5 2.6 2.5Zm.3-1.2c-1.1 0-1.7-.5-1.7-1.4 0-.9.6-1.4 1.8-1.4l2.2-.1v1c0 1-1 1.9-2.3 1.9Zm14.5-5.2c0-1.6-.6-2.4-1.8-2.4-.9 0-1.5.5-1.8 1.3h-.1c-.2-.8-.7-1.3-1.5-1.3s-1.4.5-1.6 1.4h-.1v-1.3h-1.2v8.5h1.2v-5.7c0-1.1.5-1.7 1.2-1.7s1.1.5 1.1 1.6v5.9h1.2v-5.7c0-1.1.5-1.7 1.2-1.7s1.1.5 1.1 1.6v5.9h1.2v-6.4h-.1Zm8.1 4c-.2.7-1 1.2-2.1 1.2-1.4 0-2.4-1-2.4-2.6v-.3h5.8v-.8c0-2.5-1.3-3.9-3.5-3.9s-3.6 1.5-3.6 3.7v1.3c0 2.4 1.4 3.8 3.7 3.8 1.8 0 3.1-.9 3.4-2.3l-1.3-.1Zm-2.2-5.3c1.4 0 2.2 1 2.2 2.6h-4.5c0-1.6.9-2.6 2.3-2.6ZM341.2 139.948h-1.3v5c0 1.4-.9 2.4-2.3 2.4-1.3 0-1.9-.7-1.9-2.2v-5.2h-1.3v5.5c0 2 1 3.1 2.8 3.1 1.3 0 2.3-.6 2.7-1.6h.1v1.5h1.3v-8.5h-.1Zm6.6-.1c-1.2 0-2.1.5-2.5 1.4h-.1v-1.3h-1.3v11.3h1.4v-4.2h.1c.4.9 1.3 1.5 2.5 1.5 2 0 3.2-1.4 3.2-3.6v-1.6c-.1-2.1-1.3-3.5-3.3-3.5Zm-.4 1.2c1.4 0 2.3 1 2.3 2.6v1.2c0 1.6-.9 2.6-2.3 2.6s-2.3-1-2.3-2.6v-1.2c0-1.6.9-2.6 2.3-2.6Zm8.9 7.5c1.2 0 2.1-.5 2.5-1.4h.1v1.3h1.3v-11.8h-1.4v4.6h-.1c-.4-.9-1.3-1.5-2.5-1.5-2 0-3.2 1.4-3.2 3.6v1.6c.1 2.2 1.3 3.6 3.3 3.6Zm.4-1.2c-1.4 0-2.3-1-2.3-2.6v-1.2c0-1.6.9-2.6 2.3-2.6s2.3 1 2.3 2.6v1.2c0 1.6-.9 2.6-2.3 2.6Zm8.8 1.3c1.2 0 2.2-.5 2.6-1.4h.1v1.3h1.3v-5.8c0-1.8-1.1-2.8-3.1-2.8-1.7 0-3 .9-3.2 2.3h1.3c.2-.7.9-1.1 1.9-1.1 1.2 0 1.8.6 1.8 1.6v.8l-2.3.1c-1.9.1-3 1-3 2.5 0 1.4 1 2.5 2.6 2.5Zm.4-1.2c-1.1 0-1.7-.5-1.7-1.4 0-.9.6-1.4 1.8-1.4l2.2-.1v1c0 1-1 1.9-2.3 1.9Zm8.6-9.7v2.3h-2.3v1.1h2.3v4.8c0 1.8 1 2.6 3.1 2.6.4 0 1.4 0 1.6-.1v-1.1h-1.6c-1.2 0-1.8-.5-1.8-1.4v-4.8h3.4v-1.1h-3.4v-2.3h-1.3Zm13.3 8.5c-.2.7-1 1.2-2.1 1.2-1.4 0-2.4-1-2.4-2.6v-.3h5.8v-.8c0-2.5-1.3-3.9-3.5-3.9s-3.6 1.5-3.6 3.7v1.3c0 2.4 1.4 3.8 3.7 3.8 1.8 0 3.1-.9 3.4-2.3l-1.3-.1Zm-2.2-5.3c1.4 0 2.2 1 2.2 2.6h-4.5c.1-1.6.9-2.6 2.3-2.6Zm13.6 9.9v-1.1h-8.1v1.1h8.1Zm5.5-2.2c2.2 0 3.7-1.5 3.7-3.8v-1.3c0-2.3-1.4-3.8-3.7-3.8-2.2 0-3.7 1.5-3.7 3.8v1.3c0 2.3 1.4 3.8 3.7 3.8Zm0-7.6c1.5 0 2.4 1 2.4 2.7v1c0 1.7-.9 2.7-2.4 2.7s-2.4-1-2.4-2.7v-1c0-1.7.9-2.7 2.4-2.7Zm9.7-3.2c.6 0 1.1-.5 1.1-1.1 0-.6-.5-1.1-1.1-1.1-.6 0-1.1.5-1.1 1.1 0 .7.5 1.1 1.1 1.1Zm3.6 10.6v-1.1h-2.8v-7.4H411v1.1h2.9v6.3H411v1.1h7Zm5.3.1c1.2 0 2.1-.5 2.5-1.4h.1v1.3h1.3v-11.8h-1.4v4.6h-.1c-.4-.9-1.3-1.5-2.5-1.5-2 0-3.2 1.4-3.2 3.6v1.6c.1 2.2 1.3 3.6 3.3 3.6Zm.4-1.2c-1.4 0-2.3-1-2.3-2.6v-1.2c0-1.6.9-2.6 2.3-2.6s2.3 1 2.3 2.6v1.2c0 1.6-.9 2.6-2.3 2.6Zm13.2-4.7c-.2-1.7-1.5-2.8-3.4-2.8-2.3 0-3.6 1.4-3.6 3.8v1.1c0 2.4 1.3 3.8 3.6 3.8 1.9 0 3.2-1.1 3.4-2.8h-1.3c-.2 1-1 1.6-2.1 1.6-1.5 0-2.3-1-2.3-2.8v-.8c0-1.8.8-2.8 2.3-2.8 1.1 0 1.9.6 2.1 1.6l1.3.1Zm10.1 8.2v-1.1h-8.1v1.1h8.1Zm6.1-11c-1.2 0-2.1.5-2.5 1.4h-.1v-1.3h-1.3v11.3h1.4v-4.2h.1c.4.9 1.3 1.5 2.5 1.5 2 0 3.2-1.4 3.2-3.6v-1.6c-.1-2.1-1.4-3.5-3.3-3.5Zm-.4 1.2c1.4 0 2.3 1 2.3 2.6v1.2c0 1.6-.9 2.6-2.3 2.6s-2.3-1-2.3-2.6v-1.2c0-1.6.9-2.6 2.3-2.6Zm8.6 7.6c1.2 0 2.2-.5 2.6-1.4h.1v1.3h1.3v-5.8c0-1.8-1.1-2.8-3.1-2.8-1.7 0-3 .9-3.2 2.3h1.3c.2-.7.9-1.1 1.9-1.1 1.2 0 1.8.6 1.8 1.6v.8l-2.3.1c-1.9.1-3 1-3 2.5-.1 1.4.9 2.5 2.6 2.5Zm.3-1.2c-1.1 0-1.7-.5-1.7-1.4 0-.9.6-1.4 1.8-1.4l2.2-.1v1c0 1-1 1.9-2.3 1.9Zm9.7-2.8c0-2.2 1.1-3.5 3-3.5.5 0 1 .1 1.4.2v-1.4c-.3-.1-.7-.2-1.2-.2-1.6 0-2.7.8-3 2.4h-.2v-2.2h-3.2v1.1h1.9v6.4h-1.7v1.1h5.6v-1.1h-2.6v-2.8Zm9.1 4c1.2 0 2.2-.5 2.6-1.4h.1v1.3h1.3v-5.8c0-1.8-1.1-2.8-3.1-2.8-1.7 0-3 .9-3.2 2.3h1.3c.2-.7.9-1.1 1.9-1.1 1.2 0 1.8.6 1.8 1.6v.8l-2.3.1c-1.9.1-3 1-3 2.5-.1 1.4 1 2.5 2.6 2.5Zm.4-1.2c-1.1 0-1.7-.5-1.7-1.4 0-.9.6-1.4 1.8-1.4l2.2-.1v1c-.1 1-1 1.9-2.3 1.9Zm14.1-5.2c0-1.6-.6-2.4-1.8-2.4-.9 0-1.5.5-1.8 1.3h-.1c-.2-.8-.7-1.3-1.5-1.3s-1.4.5-1.6 1.4h-.1v-1.3h-1.2v8.5h1.2v-5.7c0-1.1.5-1.7 1.2-1.7s1.1.5 1.1 1.6v5.9h1.2v-5.7c0-1.1.5-1.7 1.2-1.7s1.1.5 1.1 1.6v5.9h1.2v-6.4h-.1Zm7.8 4c-.2.7-1 1.2-2.1 1.2-1.4 0-2.4-1-2.4-2.6v-.3h5.8v-.8c0-2.5-1.3-3.9-3.5-3.9s-3.6 1.5-3.6 3.7v1.3c0 2.4 1.4 3.8 3.7 3.8 1.8 0 3.1-.9 3.4-2.3l-1.3-.1Zm-2.2-5.3c1.4 0 2.2 1 2.2 2.6h-4.5c0-1.6.9-2.6 2.3-2.6Zm8-3.2v2.3h-2.3v1.1h2.3v4.8c0 1.8 1 2.6 3.1 2.6.4 0 1.4 0 1.6-.1v-1.1h-1.6c-1.2 0-1.8-.5-1.8-1.4v-4.8h3.4v-1.1h-3.4v-2.3h-1.3Zm13.3 8.5c-.2.7-1 1.2-2.1 1.2-1.4 0-2.4-1-2.4-2.6v-.3h5.8v-.8c0-2.5-1.3-3.9-3.5-3.9s-3.6 1.5-3.6 3.7v1.3c0 2.4 1.4 3.8 3.7 3.8 1.8 0 3.1-.9 3.4-2.3l-1.3-.1Zm-2.2-5.3c1.4 0 2.2 1 2.2 2.6h-4.5c.1-1.6.9-2.6 2.3-2.6Zm9.2 3.7c0-2.2 1.1-3.5 3-3.5.5 0 1 .1 1.4.2v-1.4c-.3-.1-.7-.2-1.2-.2-1.6 0-2.7.8-3 2.4h-.2v-2.2h-3.2v1.1h1.9v6.4h-1.7v1.1h5.6v-1.1h-2.6v-2.8Zm6.8-2.4c0 1.2.8 2 2.3 2.3l1.3.3c1.1.2 1.5.6 1.5 1.3 0 .8-.7 1.3-1.9 1.3-1.1 0-1.8-.5-2-1.2h-1.4c.1 1.5 1.4 2.4 3.3 2.4 2 0 3.3-1 3.3-2.6 0-1.2-.8-1.9-2.4-2.3l-1.2-.3c-1.1-.2-1.5-.6-1.5-1.2 0-.8.7-1.3 1.8-1.3 1 0 1.7.5 1.9 1.2h1.3c-.2-1.4-1.4-2.3-3.1-2.3-2 0-3.2.9-3.2 2.4Z" fill="#919191"/><path d="M134.5 91.4481h1.3v-5c0-1.4.9-2.4 2.3-2.4 1.3 0 1.9.7 1.9 2.2v5.2h1.5v-5.5c0-2-1-3.1-2.8-3.1-1.3 0-2.3.6-2.7 1.6h-.1v-1.5h-1.4v8.5Zm12.5.2c1.2 0 2.2-.5 2.6-1.4h.1v1.3h1.3v-5.8c0-1.8-1.1-2.8-3.1-2.8-1.7 0-3 .9-3.2 2.3h1.3c.2-.7.9-1.1 1.9-1.1 1.2 0 1.8.6 1.8 1.6v.8l-2.3.1c-1.9.1-3 1-3 2.5-.1 1.4 1 2.5 2.6 2.5Zm.4-1.2c-1.1 0-1.7-.5-1.7-1.4 0-.9.6-1.4 1.8-1.4l2.2-.1v1c0 1-1 1.9-2.3 1.9Zm14.5-5.2c0-1.6-.6-2.4-1.8-2.4-.9 0-1.5.5-1.8 1.3h-.1c-.2-.8-.7-1.3-1.5-1.3s-1.4.5-1.6 1.4h-.1v-1.3h-1.2v8.5h1.2v-5.7c0-1.1.5-1.7 1.2-1.7s1.1.5 1.1 1.6v5.9h1.2v-5.7c0-1.1.5-1.7 1.2-1.7s1.1.5 1.1 1.6v5.9h1.2l-.1-6.4Zm8.1 4c-.2.7-1 1.2-2.1 1.2-1.4 0-2.4-1-2.4-2.6v-.3h5.8v-.8c0-2.5-1.3-3.9-3.5-3.9s-3.6 1.5-3.6 3.7v1.3c0 2.4 1.4 3.8 3.7 3.8 1.8 0 3.1-.9 3.4-2.3l-1.3-.1Zm-2.2-5.3c1.4 0 2.2 1 2.2 2.6h-4.5c0-1.6.8-2.6 2.3-2.6ZM138 167.648c2.2 0 3.7-1.5 3.7-3.8v-1.3c0-2.3-1.4-3.8-3.7-3.8-2.2 0-3.7 1.5-3.7 3.8v1.3c0 2.3 1.5 3.8 3.7 3.8Zm0-7.6c1.5 0 2.4 1 2.4 2.7v1c0 1.7-.9 2.7-2.4 2.7s-2.4-1-2.4-2.7v-1c0-1.7.9-2.7 2.4-2.7Zm9 7.6c1.2 0 2.2-.5 2.6-1.4h.1v1.3h1.3v-5.8c0-1.8-1.1-2.8-3.1-2.8-1.7 0-3 .9-3.2 2.3h1.3c.2-.7.9-1.1 1.9-1.1 1.2 0 1.8.6 1.8 1.6v.8l-2.3.1c-1.9.1-3 1-3 2.5-.1 1.4 1 2.5 2.6 2.5Zm.4-1.2c-1.1 0-1.7-.5-1.7-1.4 0-.9.6-1.4 1.8-1.4l2.2-.1v1c0 1-1 1.9-2.3 1.9Zm13.8-7.5h-1.3v5c0 1.4-.9 2.4-2.3 2.4-1.3 0-1.9-.7-1.9-2.2v-5.2h-1.3v5.5c0 2 1 3.1 2.8 3.1 1.3 0 2.3-.6 2.7-1.6h.1v1.5h1.3l-.1-8.5Zm5-2.2v2.3h-2.3v1.1h2.3v4.8c0 1.8 1 2.6 3.1 2.6.4 0 1.4 0 1.6-.1v-1.1h-1.6c-1.2 0-1.8-.5-1.8-1.4v-4.8h3.4v-1.1h-3.4v-2.3h-1.3Zm7.9 10.7h1.3v-5c0-1.4.9-2.4 2.3-2.4 1.3 0 2 .7 2 2.2v5.2h1.3v-5.5c0-2-1-3.1-2.8-3.1-1.3 0-2.3.6-2.7 1.6h-.1v-4.8h-1.3v11.8Zm17.4 2.4v-1.1h-8.1v1.1h8.1Zm9.4-8.2c-.2-1.7-1.5-2.8-3.4-2.8-2.3 0-3.6 1.4-3.6 3.8v1.1c0 2.4 1.3 3.8 3.6 3.8 1.9 0 3.2-1.1 3.4-2.8h-1.3c-.2 1-1 1.6-2.1 1.6-1.5 0-2.3-1-2.3-2.8v-.8c0-1.8.8-2.8 2.3-2.8 1.1 0 1.9.6 2.1 1.6l1.3.1Zm10 5.8v-1.1h-2.8v-10.7h-4.2v1.1h2.9v9.6h-2.9v1.1h7Zm6.4-10.6c.6 0 1.1-.5 1.1-1.1 0-.6-.5-1.1-1.1-1.1-.6 0-1.1.5-1.1 1.1 0 .7.4 1.1 1.1 1.1Zm3.5 10.6v-1.1H218v-7.4h-4.2v1.1h2.9v6.3h-2.9v1.1h7Zm8.5-2.2c-.2.7-1 1.2-2.1 1.2-1.4 0-2.4-1-2.4-2.6v-.3h5.8v-.8c0-2.5-1.3-3.9-3.5-3.9s-3.6 1.5-3.6 3.7v1.3c0 2.4 1.4 3.8 3.7 3.8 1.8 0 3.1-.9 3.4-2.3l-1.3-.1Zm-2.2-5.3c1.4 0 2.2 1 2.2 2.6h-4.5c0-1.6.9-2.6 2.3-2.6Zm6.3 7.5h1.3v-5c0-1.4.9-2.4 2.3-2.4 1.3 0 1.9.7 1.9 2.2v5.2h1.3v-5.5c0-2-1-3.1-2.8-3.1-1.3 0-2.3.6-2.7 1.6h-.1v-1.5h-1.3v8.5h.1Zm11.9-10.7v2.3H243v1.1h2.3v4.8c0 1.8 1 2.6 3.1 2.6.4 0 1.4 0 1.6-.1v-1.1h-1.6c-1.2 0-1.8-.5-1.8-1.4v-4.8h3.4v-1.1h-3.4v-2.3h-1.3Zm15.4 13.1v-1.1h-8.1v1.1h8.1Zm6-13c.6 0 1.1-.5 1.1-1.1 0-.6-.5-1.1-1.1-1.1-.6 0-1.1.5-1.1 1.1 0 .7.5 1.1 1.1 1.1Zm3.6 10.6v-1.1h-2.8v-7.4h-4.2v1.1h2.9v6.3h-2.9v1.1h7Zm5.6.1c1.2 0 2.1-.5 2.5-1.4h.1v1.3h1.3v-11.8h-1.4v4.6h-.1c-.4-.9-1.3-1.5-2.5-1.5-2 0-3.2 1.4-3.2 3.6v1.6c.1 2.2 1.4 3.6 3.3 3.6Zm.4-1.2c-1.4 0-2.3-1-2.3-2.6v-1.2c0-1.6.9-2.6 2.3-2.6s2.3 1 2.3 2.6v1.2c0 1.6-.9 2.6-2.3 2.6Zm-138.3 20.3c2.2 0 3.7-1.5 3.7-3.8v-1.3c0-2.3-1.4-3.8-3.7-3.8-2.2 0-3.7 1.5-3.7 3.8v1.3c0 2.3 1.5 3.8 3.7 3.8Zm0-7.6c1.5 0 2.4 1 2.4 2.7v1c0 1.7-.9 2.7-2.4 2.7s-2.4-1-2.4-2.7v-1c0-1.7.9-2.7 2.4-2.7Zm9 7.6c1.2 0 2.2-.5 2.6-1.4h.1v1.3h1.3v-5.8c0-1.8-1.1-2.8-3.1-2.8-1.7 0-3 .9-3.2 2.3h1.3c.2-.7.9-1.1 1.9-1.1 1.2 0 1.8.6 1.8 1.6v.8l-2.3.1c-1.9.1-3 1-3 2.5-.1 1.4 1 2.5 2.6 2.5Zm.4-1.2c-1.1 0-1.7-.5-1.7-1.4 0-.9.6-1.4 1.8-1.4l2.2-.1v1c0 1-1 1.9-2.3 1.9Zm13.8-7.5h-1.3v5c0 1.4-.9 2.4-2.3 2.4-1.3 0-1.9-.7-1.9-2.2v-5.2h-1.3v5.5c0 2 1 3.1 2.8 3.1 1.3 0 2.3-.6 2.7-1.6h.1v1.5h1.3l-.1-8.5Zm5-2.2v2.3h-2.3v1.1h2.3v4.8c0 1.8 1 2.6 3.1 2.6.4 0 1.4 0 1.6-.1v-1.1h-1.6c-1.2 0-1.8-.5-1.8-1.4v-4.8h3.4v-1.1h-3.4v-2.3h-1.3Zm7.9 10.7h1.3v-5c0-1.4.9-2.4 2.3-2.4 1.3 0 2 .7 2 2.2v5.2h1.3v-5.5c0-2-1-3.1-2.8-3.1-1.3 0-2.3.6-2.7 1.6h-.1v-4.8h-1.3v11.8Zm17.4 2.4v-1.1h-8.1v1.1h8.1Zm6-13c.6 0 1.1-.5 1.1-1.1 0-.6-.5-1.1-1.1-1.1-.6 0-1.1.5-1.1 1.1 0 .7.5 1.1 1.1 1.1Zm3.5 10.6v-1.1h-2.8v-7.4H194v1.1h2.9v6.3H194v1.1h7Zm3.1-6.2c0 1.2.8 2 2.3 2.3l1.3.3c1.1.2 1.5.6 1.5 1.3 0 .8-.7 1.3-1.9 1.3-1.1 0-1.8-.5-2-1.2h-1.4c.1 1.5 1.4 2.4 3.3 2.4 2 0 3.3-1 3.3-2.6 0-1.2-.8-1.9-2.4-2.3l-1.2-.3c-1.1-.2-1.5-.6-1.5-1.2 0-.8.7-1.3 1.8-1.3 1 0 1.7.5 1.9 1.2h1.3c-.2-1.4-1.4-2.3-3.1-2.3-1.9 0-3.2.9-3.2 2.4Zm9.9 0c0 1.2.8 2 2.3 2.3l1.3.3c1.1.2 1.5.6 1.5 1.3 0 .8-.7 1.3-1.9 1.3-1.1 0-1.8-.5-2-1.2h-1.4c.1 1.5 1.4 2.4 3.3 2.4 2 0 3.3-1 3.3-2.6 0-1.2-.8-1.9-2.4-2.3l-1.2-.3c-1.1-.2-1.5-.6-1.5-1.2 0-.8.7-1.3 1.8-1.3 1 0 1.7.5 1.9 1.2h1.3c-.2-1.4-1.4-2.3-3.1-2.3-1.9 0-3.2.9-3.2 2.4Zm16.5-2.3h-1.3v5c0 1.4-.9 2.4-2.3 2.4-1.3 0-1.9-.7-1.9-2.2v-5.2h-1.5v5.5c0 2 1 3.1 2.8 3.1 1.3 0 2.3-.6 2.7-1.6h.1v1.5h1.3l.1-8.5Zm8.7 6.3c-.2.7-1 1.2-2.1 1.2-1.4 0-2.4-1-2.4-2.6v-.3h5.8v-.8c0-2.5-1.3-3.9-3.5-3.9s-3.6 1.5-3.6 3.7v1.3c0 2.4 1.4 3.8 3.7 3.8 1.8 0 3.1-.9 3.4-2.3l-1.3-.1Zm-2.2-5.3c1.4 0 2.2 1 2.2 2.6h-4.5c0-1.6.9-2.6 2.3-2.6Zm9.5 3.7c0-2.2 1.1-3.5 3-3.5.5 0 1 .1 1.4.2v-1.4c-.3-.1-.7-.2-1.2-.2-1.6 0-2.7.8-3 2.4h-.2v-2.2h-3.2v1.1h1.9v6.4h-1.7v1.1h5.6v-1.1h-2.6v-2.8Zm14.2 6.2v-1.1h-8.1v1.1h8.1Zm9.6-2.4v-1.1h-2.8v-10.7h-4.2v1.1h2.9v9.6h-2.9v1.1h7Zm6.2.2c2.2 0 3.7-1.5 3.7-3.8v-1.3c0-2.3-1.4-3.8-3.7-3.8-2.2 0-3.7 1.5-3.7 3.8v1.3c0 2.3 1.4 3.8 3.7 3.8Zm0-7.6c1.5 0 2.4 1 2.4 2.7v1c0 1.7-.9 2.7-2.4 2.7s-2.4-1-2.4-2.7v-1c0-1.7.9-2.7 2.4-2.7Zm13.4 1.6c-.2-1.7-1.5-2.8-3.4-2.8-2.3 0-3.6 1.4-3.6 3.8v1.1c0 2.4 1.3 3.8 3.6 3.8 1.9 0 3.2-1.1 3.4-2.8h-1.3c-.2 1-1 1.6-2.1 1.6-1.5 0-2.3-1-2.3-2.8v-.8c0-1.8.8-2.8 2.3-2.8 1.1 0 1.9.6 2.1 1.6l1.3.1Zm5.5 6c1.2 0 2.2-.5 2.6-1.4h.1v1.3h1.3v-5.8c0-1.8-1.1-2.8-3.1-2.8-1.7 0-3 .9-3.2 2.3h1.3c.2-.7.9-1.1 1.9-1.1 1.2 0 1.8.6 1.8 1.6v.8l-2.3.1c-1.9.1-3 1-3 2.5-.1 1.4 1 2.5 2.6 2.5Zm.4-1.2c-1.1 0-1.7-.5-1.7-1.4 0-.9.6-1.4 1.8-1.4l2.2-.1v1c-.1 1-1.1 1.9-2.3 1.9Zm8.9-9.7v2.3h-2.3v1.1h2.3v4.8c0 1.8 1 2.6 3.1 2.6.4 0 1.4 0 1.6-.1v-1.1h-1.6c-1.2 0-1.8-.5-1.8-1.4v-4.8h3.4v-1.1H306v-2.3h-1.3Zm11.5.1c.6 0 1.1-.5 1.1-1.1 0-.6-.5-1.1-1.1-1.1-.6 0-1.1.5-1.1 1.1 0 .7.4 1.1 1.1 1.1Zm3.5 10.6v-1.1h-2.8v-7.4h-4.2v1.1h2.9v6.3h-2.9v1.1h7Zm6.2.2c2.2 0 3.7-1.5 3.7-3.8v-1.3c0-2.3-1.4-3.8-3.7-3.8-2.3 0-3.7 1.5-3.7 3.8v1.3c0 2.3 1.5 3.8 3.7 3.8Zm0-7.6c1.5 0 2.4 1 2.4 2.7v1c0 1.7-.9 2.7-2.4 2.7s-2.4-1-2.4-2.7v-1c.1-1.7 1-2.7 2.4-2.7Zm6.4 7.4h1.3v-5c0-1.4.9-2.4 2.3-2.4 1.3 0 1.9.7 1.9 2.2v5.2h1.3v-5.5c0-2-1-3.1-2.8-3.1-1.3 0-2.3.6-2.7 1.6h-.1v-1.5h-1.3v8.5h.1Zm-194.3 19.2c2.2 0 3.7-1.5 3.7-3.8v-1.3c0-2.3-1.4-3.8-3.7-3.8-2.2 0-3.7 1.5-3.7 3.8v1.3c0 2.3 1.5 3.8 3.7 3.8Zm0-7.6c1.5 0 2.4 1 2.4 2.7v1c0 1.7-.9 2.7-2.4 2.7s-2.4-1-2.4-2.7v-1c0-1.7.9-2.7 2.4-2.7Zm9 7.6c1.2 0 2.2-.5 2.6-1.4h.1v1.3h1.3v-5.8c0-1.8-1.1-2.8-3.1-2.8-1.7 0-3 .9-3.2 2.3h1.3c.2-.7.9-1.1 1.9-1.1 1.2 0 1.8.6 1.8 1.6v.8l-2.3.1c-1.9.1-3 1-3 2.5-.1 1.4 1 2.5 2.6 2.5Zm.4-1.2c-1.1 0-1.7-.5-1.7-1.4 0-.9.6-1.4 1.8-1.4l2.2-.1v1c0 1-1 1.9-2.3 1.9Zm13.8-7.5h-1.3v5c0 1.4-.9 2.4-2.3 2.4-1.3 0-1.9-.7-1.9-2.2v-5.2h-1.3v5.5c0 2 1 3.1 2.8 3.1 1.3 0 2.3-.6 2.7-1.6h.1v1.5h1.3l-.1-8.5Zm5-2.2v2.3h-2.3v1.1h2.3v4.8c0 1.8 1 2.6 3.1 2.6.4 0 1.4 0 1.6-.1v-1.1h-1.6c-1.2 0-1.8-.5-1.8-1.4v-4.8h3.4v-1.1h-3.4v-2.3h-1.3Zm7.9 10.7h1.3v-5c0-1.4.9-2.4 2.3-2.4 1.3 0 2 .7 2 2.2v5.2h1.3v-5.5c0-2-1-3.1-2.8-3.1-1.3 0-2.3.6-2.7 1.6h-.1v-4.8h-1.3v11.8Zm17.4 2.4v-1.1h-8.1v1.1h8.1Zm9.4-8.2c-.2-1.7-1.5-2.8-3.4-2.8-2.3 0-3.6 1.4-3.6 3.8v1.1c0 2.4 1.3 3.8 3.6 3.8 1.9 0 3.2-1.1 3.4-2.8h-1.3c-.2 1-1 1.6-2.1 1.6-1.5 0-2.3-1-2.3-2.8v-.8c0-1.8.8-2.8 2.3-2.8 1.1 0 1.9.6 2.1 1.6l1.3.1Zm10 5.8v-1.1h-2.8v-10.7h-4.2v1.1h2.9v9.6h-2.9v1.1h7Zm6.4-10.6c.6 0 1.1-.5 1.1-1.1 0-.6-.5-1.1-1.1-1.1-.6 0-1.1.5-1.1 1.1 0 .7.4 1.1 1.1 1.1Zm3.5 10.6v-1.1H218v-7.4h-4.2v1.1h2.9v6.3h-2.9v1.1h7Zm8.5-2.2c-.2.7-1 1.2-2.1 1.2-1.4 0-2.4-1-2.4-2.6v-.3h5.8v-.8c0-2.5-1.3-3.9-3.5-3.9s-3.6 1.5-3.6 3.7v1.3c0 2.4 1.4 3.8 3.7 3.8 1.8 0 3.1-.9 3.4-2.3l-1.3-.1Zm-2.2-5.3c1.4 0 2.2 1 2.2 2.6h-4.5c0-1.6.9-2.6 2.3-2.6Zm6.3 7.5h1.3v-5c0-1.4.9-2.4 2.3-2.4 1.3 0 1.9.7 1.9 2.2v5.2h1.3v-5.5c0-2-1-3.1-2.8-3.1-1.3 0-2.3.6-2.7 1.6h-.1v-1.5h-1.3v8.5h.1Zm11.9-10.7v2.3H243v1.1h2.3v4.8c0 1.8 1 2.6 3.1 2.6.4 0 1.4 0 1.6-.1v-1.1h-1.6c-1.2 0-1.8-.5-1.8-1.4v-4.8h3.4v-1.1h-3.4v-2.3h-1.3Zm15.4 13.1v-1.1h-8.1v1.1h8.1Zm2.8-8.6c0 1.2.8 2 2.3 2.3l1.3.3c1.1.2 1.5.6 1.5 1.3 0 .8-.7 1.3-1.9 1.3-1.1 0-1.8-.5-2-1.2h-1.4c.1 1.5 1.4 2.4 3.3 2.4 2 0 3.3-1 3.3-2.6 0-1.2-.8-1.9-2.4-2.3l-1.2-.3c-1.1-.2-1.5-.6-1.5-1.2 0-.8.7-1.3 1.8-1.3 1 0 1.7.5 1.9 1.2h1.3c-.2-1.4-1.4-2.3-3.1-2.3-2 0-3.2.9-3.2 2.4Zm15.3 4c-.2.7-1 1.2-2.1 1.2-1.4 0-2.4-1-2.4-2.6v-.3h5.8v-.8c0-2.5-1.3-3.9-3.5-3.9s-3.6 1.5-3.6 3.7v1.3c0 2.4 1.4 3.8 3.7 3.8 1.8 0 3.1-.9 3.4-2.3l-1.3-.1Zm-2.2-5.3c1.4 0 2.2 1 2.2 2.6h-4.5c0-1.6.8-2.6 2.3-2.6Zm13.3 1.7c-.2-1.7-1.5-2.8-3.4-2.8-2.3 0-3.6 1.4-3.6 3.8v1.1c0 2.4 1.3 3.8 3.6 3.8 1.9 0 3.2-1.1 3.4-2.8h-1.3c-.2 1-1 1.6-2.1 1.6-1.5 0-2.3-1-2.3-2.8v-.8c0-1.8.8-2.8 2.3-2.8 1.1 0 1.9.6 2.1 1.6l1.3.1Zm6 2c0-2.2 1.1-3.5 3-3.5.5 0 1 .1 1.4.2v-1.4c-.3-.1-.7-.2-1.2-.2-1.6 0-2.7.8-3 2.4h-.2v-2.2h-3.2v1.1h1.9v6.4h-1.7v1.1h5.6v-1.1h-2.6v-2.8Zm12.5 1.6c-.2.7-1 1.2-2.1 1.2-1.4 0-2.4-1-2.4-2.6v-.3h5.8v-.8c0-2.5-1.3-3.9-3.5-3.9s-3.6 1.5-3.6 3.7v1.3c0 2.4 1.4 3.8 3.7 3.8 1.8 0 3.1-.9 3.4-2.3l-1.3-.1Zm-2.2-5.3c1.4 0 2.2 1 2.2 2.6h-4.5c.1-1.6.9-2.6 2.3-2.6Zm8.4-3.2v2.3h-2.3v1.1h2.3v4.8c0 1.8 1 2.6 3.1 2.6.4 0 1.4 0 1.6-.1v-1.1h-1.6c-1.2 0-1.8-.5-1.8-1.4v-4.8h3.4v-1.1h-3.4v-2.3h-1.3Z" fill="#1A15FD"/><path d="M657 132.448H93v84h564v-84Z" fill="url(#paint0_linear_2968_4218)"/></g><path d="m357.5 216.448 18 18 18-18h-36Z" fill="#fff"/><path d="M541.8 296.297H437.6M311.5 296.297H207.3" stroke="#1C0D3F" stroke-width="2" stroke-dasharray="6.8 6.8"/><path d="m485.75 304.297 8.9-8-8.9-8M264.535 304.297l-8.9-8 8.9-8" stroke="#1C0D3F" stroke-width="2" stroke-linecap="round" stroke-linejoin="round"/><g filter="url(#filter1_dddddd_2968_4218)"><path d="M605.2 334.597c21.152 0 38.3-17.147 38.3-38.3 0-21.152-17.148-38.3-38.3-38.3-21.153 0-38.3 17.148-38.3 38.3 0 21.153 17.147 38.3 38.3 38.3Z" fill="#ED26B7"/></g><path d="M625.8 302.847c-.1-6.3-3.6-11.4-9-13.3v-11c-1.3-.9-2.8-1.6-4.3-2.1v23.7c0 4.7-2.2 6.8-5.7 6.8-3.4 0-6.3-2.6-6.3-6.9 0-4.8 3.8-7.8 8.7-7.8.5 0 .9 0 1.4.1v-4.2c-.5-.1-.9-.1-1.4-.1-7.3 0-13 4.5-13 12 0 7.2 5.2 11.1 10.9 11.1 2.7 0 5.1-.9 6.7-2.5 1.6-1.6 3-3.9 3-7.9v-6.6c3 1.5 4.8 5.1 4.8 9.2 0 7.7-7.2 14.3-15.6 14.3h-.5c-5.8 0-10.9-2.1-15-6.2-3-3-5-6.7-5.8-10.8-.8-4.1-.4-8.4 1.2-12.2 1.6-3.9 4.3-7.2 7.8-9.5s7.6-3.6 11.8-3.6v-4.5c-3.4 0-6.7.7-9.8 1.9-3.1 1.3-5.9 3.2-8.3 5.5-4.8 4.8-7.5 11.3-7.5 18 0 6.8 2.7 13.2 7.5 18 4.8 4.8 11.3 7.5 18 7.5h.5c2.1 0 4.2-.3 6.1-.9 2.9-.9 5.5-2.4 7.7-4.5 3.8-3.5 5.9-8.2 5.9-13.2.2.1.2-.3.2-.3Z" fill="#fff"/><g filter="url(#filter2_dddddd_2968_4218)"><path d="M375.1 334.697c21.208 0 38.4-17.192 38.4-38.4s-17.192-38.4-38.4-38.4-38.4 17.192-38.4 38.4 17.192 38.4 38.4 38.4Z" fill="#fff"/></g><path d="M374.9 268.097c-14.7 0-13.8 6.4-13.8 6.4v6.6h14.1v2h-19.7s-9.4-1.1-9.4 13.8 8.2 14.3 8.2 14.3h4.9v-6.9s-.3-8.2 8.1-8.2h14s7.8.1 7.8-7.6v-12.7s1.2-7.7-14.2-7.7Zm-7.8 4.5c1.4 0 2.5 1.1 2.5 2.5s-1.1 2.5-2.5 2.5-2.5-1.1-2.5-2.5 1.1-2.5 2.5-2.5Z" fill="url(#paint1_linear_2968_4218)"/><path d="M375.3 325.897c14.7 0 13.8-6.4 13.8-6.4v-6.6H375v-2h19.7s9.4 1.1 9.4-13.8-8.2-14.3-8.2-14.3H391v6.9s.3 8.2-8.1 8.2h-14s-7.8-.1-7.8 7.6v12.7s-1.2 7.7 14.2 7.7Zm7.8-4.5c-1.4 0-2.5-1.1-2.5-2.5s1.1-2.5 2.5-2.5 2.5 1.1 2.5 2.5-1.1 2.5-2.5 2.5Z" fill="url(#paint2_linear_2968_4218)"/><g filter="url(#filter3_dddddd_2968_4218)"><path d="M184.68 301.727c2.999-20.994-11.589-40.443-32.582-43.442-20.994-2.999-40.443 11.589-43.442 32.582-2.999 20.994 11.589 40.444 32.582 43.442 20.994 2.999 40.443-11.589 43.442-32.582Z" fill="#fff"/></g><path fill-rule="evenodd" clip-rule="evenodd" d="M124.449 301.221c0 .443.083.899.261 1.339l-.003-.006 1.874 4.694-.003-.004c.554 1.391 1.875 2.233 3.27 2.233.436 0 .886-.083 1.313-.259l.745-.307c.634.765 1.319 1.468 2.051 2.117l-.31.746v-.003c-.19.451-.285.925-.285 1.394 0 1.384.805 2.706 2.148 3.287l4.599 1.977c.442.19.91.283 1.366.283 1.371 0 2.676-.814 3.251-2.169l.003-.004.314-.753.273.024c.451.04.901.08 1.356.08.334 0 .668-.024 1.002-.048.097-.007.194-.014.291-.02l.301.75c.554 1.387 1.876 2.23 3.27 2.23.437 0 .883-.084 1.311-.258l4.635-1.897c1.369-.561 2.201-1.897 2.201-3.308 0-.446-.083-.9-.258-1.334l-.295-.753c.749-.643 1.445-1.336 2.084-2.078l.736.318c.446.191.913.283 1.369.283 1.373 0 2.681-.815 3.255-2.172l1.952-4.659v-.003c.189-.451.276-.922.276-1.381 0-1.392-.803-2.714-2.148-3.291h.007l-.741-.32.019-.215v-.001c.041-.471.082-.943.082-1.419 0-.34-.025-.682-.05-1.023-.007-.102-.015-.204-.022-.305l.743-.303c1.37-.566 2.197-1.902 2.195-3.31 0-.447-.081-.898-.25-1.329l-.003-.004-1.871-4.693c-.555-1.391-1.877-2.23-3.27-2.23-.439 0-.888.083-1.319.259l.005-.001-.744.302c-.632-.759-1.315-1.463-2.048-2.11l.314-.747v-.003c.189-.45.279-.923.279-1.382 0-1.389-.805-2.713-2.147-3.294l-4.599-1.978c-.445-.192-.912-.283-1.371-.283-1.37 0-2.675.812-3.248 2.176l.002-.004-.318.752c-.075-.006-.151-.013-.226-.02-.462-.042-.926-.084-1.395-.084-.33 0-.662.024-.994.048-.103.008-.205.015-.307.022l-.298-.75c-.555-1.389-1.877-2.231-3.271-2.228-.439-.003-.888.083-1.316.262l.005-.003-4.638 1.894c-1.37.563-2.201 1.903-2.201 3.314 0 .442.08.896.256 1.333l.302.75c-.754.644-1.45 1.335-2.089 2.075l-.736-.316c-.446-.19-.914-.282-1.371-.282-1.368-.002-2.68.811-3.248 2.175l.003-.004-1.955 4.66c-.188.448-.281.921-.281 1.386 0 1.386.802 2.71 2.147 3.293l.741.316c-.007.091-.015.182-.024.273-.04.456-.08.911-.08 1.37 0 .326.024.655.048.984l.024.333-.738.301c-1.375.565-2.208 1.904-2.208 3.315Zm2.972-1.39 1.417-.578c.425-.173.683-.615.634-1.074-.067-.629-.099-1.26-.099-1.889 0-.733.046-1.463.135-2.181.058-.46-.196-.904-.616-1.083l-1.407-.604c-.561-.238-.899-.798-.899-1.383 0-.191.037-.386.117-.579l1.956-4.659.001-.003c.229-.56.78-.905 1.36-.905.192 0 .381.038.571.118l1.405.603c.42.182.904.058 1.193-.302.845-1.053 1.798-2.011 2.874-2.856.359-.285.492-.779.319-1.207l-.571-1.433c-.075-.184-.108-.367-.108-.553 0-.595.351-1.163.923-1.393l4.635-1.894.004-.003c.176-.071.359-.108.543-.108.584 0 1.146.358 1.374.934l.575 1.436c.173.428.601.69 1.054.64.626-.066 1.25-.102 1.868-.102.723 0 1.443.047 2.152.138.456.057.891-.196 1.07-.623l.6-1.423v-.006c.234-.561.786-.905 1.363-.905.192 0 .382.038.57.117l4.6 1.979c.554.237.899.802.899 1.384 0 .197-.037.388-.116.578l-.595 1.42c-.179.427-.057.926.301 1.214 1.036.844 1.983 1.815 2.817 2.905.28.365.766.497 1.19.325l1.415-.578.006-.004c.175-.071.358-.106.545-.106.585 0 1.15.36 1.374.931l1.867 4.695v-.006c.075.19.11.38.11.564 0 .592-.351 1.16-.92 1.389l-1.418.58c-.421.175-.683.613-.634 1.073.068.635.102 1.27.102 1.9 0 .729-.043 1.454-.134 2.169-.058.461.192.902.615 1.083l1.401.606.004.003c.555.234.897.799.897 1.383 0 .195-.037.389-.114.577l.001-.003-1.952 4.658c-.236.564-.79.908-1.371.908-.192 0-.382-.036-.568-.114l-1.407-.606c-.422-.181-.913-.055-1.2.307-.828 1.046-1.789 2.006-2.862 2.854-.365.285-.494.773-.324 1.204l.569 1.434c.074.187.109.376.109.56-.002.592-.349 1.155-.921 1.384l-4.635 1.897c-.183.075-.365.11-.545.11-.586 0-1.149-.36-1.377-.938l-.574-1.433c-.17-.428-.601-.69-1.056-.642-.622.07-1.241.101-1.859.101-.725 0-1.447-.045-2.162-.137-.454-.058-.891.197-1.07.624l-.597 1.424.003-.002c-.239.569-.797.913-1.371.913-.191 0-.379-.037-.566-.117l-4.598-1.977c-.563-.24-.9-.797-.901-1.38 0-.194.037-.385.119-.578v-.007l.595-1.424c.174-.425.055-.923-.302-1.213-1.04-.841-1.986-1.81-2.82-2.902-.279-.366-.767-.501-1.191-.325l-1.419.58c-.184.075-.365.107-.547.109-.586-.003-1.146-.359-1.37-.932v-.002l-1.874-4.697-.003-.005c-.07-.179-.105-.363-.105-.549.002-.591.354-1.156.926-1.388Zm19.197 5.967c5.245 0 9.499-4.308 9.499-9.62 0-5.316-4.254-9.621-9.499-9.621-5.247 0-9.501 4.306-9.501 9.621 0 5.313 4.254 9.62 9.501 9.62Zm-.001-17.171c4.11 0 7.454 3.387 7.454 7.55 0 4.161-3.344 7.551-7.454 7.551-4.111 0-7.453-3.39-7.453-7.551 0-4.163 3.342-7.55 7.453-7.55Z" fill="#1C0D3F"/><path d="M114.325 365.414h-.99v-3.179l-2.86-4.565h1.122l2.255 3.685h.011l2.222-3.685h1.089l-2.849 4.565v3.179Zm5.263.165c-1.716 0-2.948-1.32-2.948-2.937 0-1.628 1.232-2.948 2.948-2.948 1.727 0 2.959 1.32 2.959 2.948 0 1.617-1.232 2.937-2.959 2.937Zm0-.825c1.177 0 2.013-.946 2.013-2.112 0-1.166-.836-2.123-2.013-2.123s-2.002.957-2.002 2.123c0 1.166.825 2.112 2.002 2.112Zm6.698.825c-.715 0-1.298-.231-1.749-.682-.495-.495-.682-1.133-.682-1.947v-3.091h.935v3.124c0 .561.099 1.023.44 1.364.253.253.616.407 1.056.407.44 0 .792-.154 1.045-.407.341-.341.44-.803.44-1.364v-3.124h.935v3.091c0 .814-.187 1.452-.682 1.947-.451.451-1.023.682-1.738.682Zm5.026-.165h-.935v-5.555h.913l.033.924h.011c.396-.671 1.166-1.067 1.947-1.067v.957c-.495-.011-1.045.088-1.452.484-.484.473-.517 1.144-.517 1.848v2.409Zm10.69-4.015v.022c.759.286 1.243 1.034 1.243 1.826 0 .572-.242 1.122-.605 1.496-.649.671-1.595.671-2.178.671h-2.992v-7.744h2.937c.539 0 1.43.011 2.046.682.341.374.55.869.55 1.397 0 .693-.352 1.353-1.001 1.65Zm-.341-2.486c-.407-.396-.99-.396-1.298-.396h-1.903v2.541h1.859c.374 0 .968-.011 1.342-.385.231-.231.352-.55.352-.891 0-.341-.132-.66-.352-.869Zm.198 5.236c.231-.231.374-.561.374-.935 0-.352-.121-.682-.363-.924-.407-.407-1.056-.407-1.375-.407h-2.035v2.662h2.079c.319 0 .935-.011 1.32-.396Zm4.509 1.43c-1.034 0-1.969-.55-1.969-1.738 0-.517.176-.891.462-1.177.561-.561 1.463-.649 3.41-.715v-.077c0-.869-.561-1.375-1.375-1.375-.726 0-1.287.308-1.716.858l-.605-.528c.176-.286.902-1.133 2.321-1.133.682 0 1.408.22 1.859.803.264.341.429.759.429 1.551v3.366h-.902l-.022-.77h-.011c-.209.33-.737.935-1.881.935Zm.088-.792c1.166 0 1.815-.759 1.815-2.002v-.088c-1.782.066-2.926.11-2.926 1.155 0 .671.539.935 1.111.935Zm6.981.792c-1.716 0-2.948-1.32-2.948-2.937 0-1.628 1.232-2.948 2.948-2.948 1.551 0 2.255.99 2.343 1.144l-.66.539c-.308-.385-.759-.858-1.683-.858-1.166 0-2.002.946-2.002 2.112 0 1.166.814 2.123 2.002 2.123.99 0 1.43-.495 1.716-.825l.616.517c-.066.11-.781 1.133-2.332 1.133Zm4.526-.165h-.935v-8.14h.935v5.104h.011l2.662-2.519h1.21l-2.827 2.607 2.882 2.948h-1.188l-2.739-2.849h-.011v2.849Zm9.704-2.827v.352h-4.587c.011.858.638 1.815 1.925 1.815 1.1 0 1.628-.737 1.683-.814l.605.517c-.066.11-.781 1.122-2.288 1.122-1.782 0-2.915-1.32-2.915-2.937 0-1.628 1.166-2.948 2.849-2.948 1.606 0 2.728 1.254 2.728 2.893Zm-2.717-2.09c-1.331 0-1.782 1.023-1.859 1.65h3.608c-.044-.693-.561-1.65-1.749-1.65Zm4.98 4.917h-.935v-5.555h.902l.022.781h.011c.044-.099.528-.946 1.793-.946 1.221 0 2.112.792 2.112 2.222v3.498h-.935v-3.289c0-1.177-.627-1.606-1.353-1.606-.946 0-1.617.759-1.617 1.892v3.003Zm8.028.165c-1.639 0-2.816-1.32-2.816-2.937 0-1.628 1.177-2.948 2.816-2.948.869 0 1.65.374 2.112.968h.011v-3.388h.935v8.14h-.902l-.033-.803h-.011c-.462.594-1.243.968-2.112.968Zm.132-.825c1.221 0 2.002-.946 2.002-2.112 0-1.166-.781-2.123-2.002-2.123-1.177 0-2.002.957-2.002 2.123 0 1.166.825 2.112 2.002 2.112ZM582.166 362.18v-.825h3.344v2.992c-.594.605-1.683 1.232-3.135 1.232-2.453 0-4.103-1.771-4.103-4.048 0-2.299 1.738-4.026 4.037-4.026 1.716 0 2.772.968 3.047 1.331l-.682.583c-.539-.638-1.408-1.045-2.376-1.045-1.749 0-2.992 1.309-2.992 3.146 0 1.859 1.232 3.19 3.091 3.19.891 0 1.683-.308 2.2-.737v-1.793h-2.431Zm7.603 3.399c-1.716 0-2.948-1.32-2.948-2.937 0-1.628 1.232-2.948 2.948-2.948 1.727 0 2.959 1.32 2.959 2.948 0 1.617-1.232 2.937-2.959 2.937Zm0-.825c1.177 0 2.013-.946 2.013-2.112 0-1.166-.836-2.123-2.013-2.123s-2.002.957-2.002 2.123c0 1.166.825 2.112 2.002 2.112Zm6.983.825c-1.716 0-2.948-1.32-2.948-2.937 0-1.628 1.232-2.948 2.948-2.948 1.727 0 2.959 1.32 2.959 2.948 0 1.617-1.232 2.937-2.959 2.937Zm0-.825c1.177 0 2.013-.946 2.013-2.112 0-1.166-.836-2.123-2.013-2.123s-2.002.957-2.002 2.123c0 1.166.825 2.112 2.002 2.112Zm6.85.825c-1.639 0-2.816-1.32-2.816-2.937 0-1.628 1.177-2.948 2.816-2.948.869 0 1.65.374 2.112.968h.011v-3.388h.935v8.14h-.902l-.033-.803h-.011c-.462.594-1.243.968-2.112.968Zm.132-.825c1.221 0 2.002-.946 2.002-2.112 0-1.166-.781-2.123-2.002-2.123-1.177 0-2.002.957-2.002 2.123 0 1.166.825 2.112 2.002 2.112Zm10.309-6.017c.693.693 1.155 1.738 1.155 2.827 0 .99-.385 2.013-1.111 2.739-.759.759-1.782 1.111-3.201 1.111h-2.343v-7.744h2.343c1.232 0 2.321.231 3.157 1.067Zm-.77 5.038c.572-.572.902-1.419.902-2.244 0-.792-.297-1.617-.869-2.189-.638-.638-1.485-.803-2.42-.803h-1.353v6.006h1.353c.99 0 1.771-.154 2.387-.77Zm5.049 1.804c-1.034 0-1.969-.55-1.969-1.738 0-.517.176-.891.462-1.177.561-.561 1.463-.649 3.41-.715v-.077c0-.869-.561-1.375-1.375-1.375-.726 0-1.287.308-1.716.858l-.605-.528c.176-.286.902-1.133 2.321-1.133.682 0 1.408.22 1.859.803.264.341.429.759.429 1.551v3.366h-.902l-.022-.77h-.011c-.209.33-.737.935-1.881.935Zm.088-.792c1.166 0 1.815-.759 1.815-2.002v-.088c-1.782.066-2.926.11-2.926 1.155 0 .671.539.935 1.111.935Zm7.586-.253.363.671c-.22.176-.649.374-1.221.374-1.276 0-1.936-.88-1.936-2.079v-2.838h-1.122v-.803h1.122v-1.815h.935v1.815h1.848v.803h-1.848v2.684c0 .792.22 1.408 1.067 1.408.418 0 .704-.165.792-.22Zm2.993 1.045c-1.034 0-1.969-.55-1.969-1.738 0-.517.176-.891.462-1.177.561-.561 1.463-.649 3.41-.715v-.077c0-.869-.561-1.375-1.375-1.375-.726 0-1.287.308-1.716.858l-.605-.528c.176-.286.902-1.133 2.321-1.133.682 0 1.408.22 1.859.803.264.341.429.759.429 1.551v3.366h-.902l-.022-.77h-.011c-.209.33-.737.935-1.881.935Zm.088-.792c1.166 0 1.815-.759 1.815-2.002v-.088c-1.782.066-2.926.11-2.926 1.155 0 .671.539.935 1.111.935Z" fill="#1C0D3F"/><defs><filter id="filter0_dddddd_2968_4218" x=".977093" y=".848267" width="749.446" height="355.47" filterUnits="userSpaceOnUse" color-interpolation-filters="sRGB"><feFlood flood-opacity="0" result="BackgroundImageFix"/><feColorMatrix in="SourceAlpha" values="0 0 0 0 0 0 0 0 0 0 0 0 0 0 0 0 0 0 127 0" result="hardAlpha"/><feOffset dy="1.8929"/><feGaussianBlur stdDeviation=".757161"/><feColorMatrix values="0 0 0 0 0.109804 0 0 0 0 0.0509804 0 0 0 0 0.247059 0 0 0 0.0196802 0"/><feBlend in2="BackgroundImageFix" result="effect1_dropShadow_2968_4218"/><feColorMatrix in="SourceAlpha" values="0 0 0 0 0 0 0 0 0 0 0 0 0 0 0 0 0 0 127 0" result="hardAlpha"/><feOffset dy="4.54891"/><feGaussianBlur stdDeviation="1.81956"/><feColorMatrix values="0 0 0 0 0.109804 0 0 0 0 0.0509804 0 0 0 0 0.247059 0 0 0 0.0282725 0"/><feBlend in2="effect1_dropShadow_2968_4218" result="effect2_dropShadow_2968_4218"/><feColorMatrix in="SourceAlpha" values="0 0 0 0 0 0 0 0 0 0 0 0 0 0 0 0 0 0 127 0" result="hardAlpha"/><feOffset dy="8.56519"/><feGaussianBlur stdDeviation="3.42608"/><feColorMatrix values="0 0 0 0 0.109804 0 0 0 0 0.0509804 0 0 0 0 0.247059 0 0 0 0.035 0"/><feBlend in2="effect2_dropShadow_2968_4218" result="effect3_dropShadow_2968_4218"/><feColorMatrix in="SourceAlpha" values="0 0 0 0 0 0 0 0 0 0 0 0 0 0 0 0 0 0 127 0" result="hardAlpha"/><feOffset dy="15.2788"/><feGaussianBlur stdDeviation="6.11153"/><feColorMatrix values="0 0 0 0 0.109804 0 0 0 0 0.0509804 0 0 0 0 0.247059 0 0 0 0.0417275 0"/><feBlend in2="effect3_dropShadow_2968_4218" result="effect4_dropShadow_2968_4218"/><feColorMatrix in="SourceAlpha" values="0 0 0 0 0 0 0 0 0 0 0 0 0 0 0 0 0 0 127 0" result="hardAlpha"/><feOffset dy="28.5774"/><feGaussianBlur stdDeviation="11.431"/><feColorMatrix values="0 0 0 0 0.109804 0 0 0 0 0.0509804 0 0 0 0 0.247059 0 0 0 0.0503198 0"/><feBlend in2="effect4_dropShadow_2968_4218" result="effect5_dropShadow_2968_4218"/><feColorMatrix in="SourceAlpha" values="0 0 0 0 0 0 0 0 0 0 0 0 0 0 0 0 0 0 127 0" result="hardAlpha"/><feOffset dy="68.4036"/><feGaussianBlur stdDeviation="27.3614"/><feColorMatrix values="0 0 0 0 0.109804 0 0 0 0 0.0509804 0 0 0 0 0.247059 0 0 0 0.07 0"/><feBlend in2="effect5_dropShadow_2968_4218" result="effect6_dropShadow_2968_4218"/><feBlend in="SourceGraphic" in2="effect6_dropShadow_2968_4218" result="shape"/></filter><filter id="filter1_dddddd_2968_4218" x="512.177" y="257.997" width="186.046" height="199.726" filterUnits="userSpaceOnUse" color-interpolation-filters="sRGB"><feFlood flood-opacity="0" result="BackgroundImageFix"/><feColorMatrix in="SourceAlpha" values="0 0 0 0 0 0 0 0 0 0 0 0 0 0 0 0 0 0 127 0" result="hardAlpha"/><feOffset dy="1.8929"/><feGaussianBlur stdDeviation=".757161"/><feColorMatrix values="0 0 0 0 0.109804 0 0 0 0 0.0509804 0 0 0 0 0.247059 0 0 0 0.0196802 0"/><feBlend in2="BackgroundImageFix" result="effect1_dropShadow_2968_4218"/><feColorMatrix in="SourceAlpha" values="0 0 0 0 0 0 0 0 0 0 0 0 0 0 0 0 0 0 127 0" result="hardAlpha"/><feOffset dy="4.54891"/><feGaussianBlur stdDeviation="1.81956"/><feColorMatrix values="0 0 0 0 0.109804 0 0 0 0 0.0509804 0 0 0 0 0.247059 0 0 0 0.0282725 0"/><feBlend in2="effect1_dropShadow_2968_4218" result="effect2_dropShadow_2968_4218"/><feColorMatrix in="SourceAlpha" values="0 0 0 0 0 0 0 0 0 0 0 0 0 0 0 0 0 0 127 0" result="hardAlpha"/><feOffset dy="8.56519"/><feGaussianBlur stdDeviation="3.42608"/><feColorMatrix values="0 0 0 0 0.109804 0 0 0 0 0.0509804 0 0 0 0 0.247059 0 0 0 0.035 0"/><feBlend in2="effect2_dropShadow_2968_4218" result="effect3_dropShadow_2968_4218"/><feColorMatrix in="SourceAlpha" values="0 0 0 0 0 0 0 0 0 0 0 0 0 0 0 0 0 0 127 0" result="hardAlpha"/><feOffset dy="15.2788"/><feGaussianBlur stdDeviation="6.11153"/><feColorMatrix values="0 0 0 0 0.109804 0 0 0 0 0.0509804 0 0 0 0 0.247059 0 0 0 0.0417275 0"/><feBlend in2="effect3_dropShadow_2968_4218" result="effect4_dropShadow_2968_4218"/><feColorMatrix in="SourceAlpha" values="0 0 0 0 0 0 0 0 0 0 0 0 0 0 0 0 0 0 127 0" result="hardAlpha"/><feOffset dy="28.5774"/><feGaussianBlur stdDeviation="11.431"/><feColorMatrix values="0 0 0 0 0.109804 0 0 0 0 0.0509804 0 0 0 0 0.247059 0 0 0 0.0503198 0"/><feBlend in2="effect4_dropShadow_2968_4218" result="effect5_dropShadow_2968_4218"/><feColorMatrix in="SourceAlpha" values="0 0 0 0 0 0 0 0 0 0 0 0 0 0 0 0 0 0 127 0" result="hardAlpha"/><feOffset dy="68.4036"/><feGaussianBlur stdDeviation="27.3614"/><feColorMatrix values="0 0 0 0 0.109804 0 0 0 0 0.0509804 0 0 0 0 0.247059 0 0 0 0.07 0"/><feBlend in2="effect5_dropShadow_2968_4218" result="effect6_dropShadow_2968_4218"/><feBlend in="SourceGraphic" in2="effect6_dropShadow_2968_4218" result="shape"/></filter><filter id="filter2_dddddd_2968_4218" x="281.977" y="257.897" width="186.246" height="199.926" filterUnits="userSpaceOnUse" color-interpolation-filters="sRGB"><feFlood flood-opacity="0" result="BackgroundImageFix"/><feColorMatrix in="SourceAlpha" values="0 0 0 0 0 0 0 0 0 0 0 0 0 0 0 0 0 0 127 0" result="hardAlpha"/><feOffset dy="1.8929"/><feGaussianBlur stdDeviation=".757161"/><feColorMatrix values="0 0 0 0 0.109804 0 0 0 0 0.0509804 0 0 0 0 0.247059 0 0 0 0.0196802 0"/><feBlend in2="BackgroundImageFix" result="effect1_dropShadow_2968_4218"/><feColorMatrix in="SourceAlpha" values="0 0 0 0 0 0 0 0 0 0 0 0 0 0 0 0 0 0 127 0" result="hardAlpha"/><feOffset dy="4.54891"/><feGaussianBlur stdDeviation="1.81956"/><feColorMatrix values="0 0 0 0 0.109804 0 0 0 0 0.0509804 0 0 0 0 0.247059 0 0 0 0.0282725 0"/><feBlend in2="effect1_dropShadow_2968_4218" result="effect2_dropShadow_2968_4218"/><feColorMatrix in="SourceAlpha" values="0 0 0 0 0 0 0 0 0 0 0 0 0 0 0 0 0 0 127 0" result="hardAlpha"/><feOffset dy="8.56519"/><feGaussianBlur stdDeviation="3.42608"/><feColorMatrix values="0 0 0 0 0.109804 0 0 0 0 0.0509804 0 0 0 0 0.247059 0 0 0 0.035 0"/><feBlend in2="effect2_dropShadow_2968_4218" result="effect3_dropShadow_2968_4218"/><feColorMatrix in="SourceAlpha" values="0 0 0 0 0 0 0 0 0 0 0 0 0 0 0 0 0 0 127 0" result="hardAlpha"/><feOffset dy="15.2788"/><feGaussianBlur stdDeviation="6.11153"/><feColorMatrix values="0 0 0 0 0.109804 0 0 0 0 0.0509804 0 0 0 0 0.247059 0 0 0 0.0417275 0"/><feBlend in2="effect3_dropShadow_2968_4218" result="effect4_dropShadow_2968_4218"/><feColorMatrix in="SourceAlpha" values="0 0 0 0 0 0 0 0 0 0 0 0 0 0 0 0 0 0 127 0" result="hardAlpha"/><feOffset dy="28.5774"/><feGaussianBlur stdDeviation="11.431"/><feColorMatrix values="0 0 0 0 0.109804 0 0 0 0 0.0509804 0 0 0 0 0.247059 0 0 0 0.0503198 0"/><feBlend in2="effect4_dropShadow_2968_4218" result="effect5_dropShadow_2968_4218"/><feColorMatrix in="SourceAlpha" values="0 0 0 0 0 0 0 0 0 0 0 0 0 0 0 0 0 0 127 0" result="hardAlpha"/><feOffset dy="68.4036"/><feGaussianBlur stdDeviation="27.3614"/><feColorMatrix values="0 0 0 0 0.109804 0 0 0 0 0.0509804 0 0 0 0 0.247059 0 0 0 0.07 0"/><feBlend in2="effect5_dropShadow_2968_4218" result="effect6_dropShadow_2968_4218"/><feBlend in="SourceGraphic" in2="effect6_dropShadow_2968_4218" result="shape"/></filter><filter id="filter3_dddddd_2968_4218" x="53.5423" y="257.894" width="186.251" height="199.932" filterUnits="userSpaceOnUse" color-interpolation-filters="sRGB"><feFlood flood-opacity="0" result="BackgroundImageFix"/><feColorMatrix in="SourceAlpha" values="0 0 0 0 0 0 0 0 0 0 0 0 0 0 0 0 0 0 127 0" result="hardAlpha"/><feOffset dy="1.8929"/><feGaussianBlur stdDeviation=".757161"/><feColorMatrix values="0 0 0 0 0.109804 0 0 0 0 0.0509804 0 0 0 0 0.247059 0 0 0 0.0196802 0"/><feBlend in2="BackgroundImageFix" result="effect1_dropShadow_2968_4218"/><feColorMatrix in="SourceAlpha" values="0 0 0 0 0 0 0 0 0 0 0 0 0 0 0 0 0 0 127 0" result="hardAlpha"/><feOffset dy="4.54891"/><feGaussianBlur stdDeviation="1.81956"/><feColorMatrix values="0 0 0 0 0.109804 0 0 0 0 0.0509804 0 0 0 0 0.247059 0 0 0 0.0282725 0"/><feBlend in2="effect1_dropShadow_2968_4218" result="effect2_dropShadow_2968_4218"/><feColorMatrix in="SourceAlpha" values="0 0 0 0 0 0 0 0 0 0 0 0 0 0 0 0 0 0 127 0" result="hardAlpha"/><feOffset dy="8.56519"/><feGaussianBlur stdDeviation="3.42608"/><feColorMatrix values="0 0 0 0 0.109804 0 0 0 0 0.0509804 0 0 0 0 0.247059 0 0 0 0.035 0"/><feBlend in2="effect2_dropShadow_2968_4218" result="effect3_dropShadow_2968_4218"/><feColorMatrix in="SourceAlpha" values="0 0 0 0 0 0 0 0 0 0 0 0 0 0 0 0 0 0 127 0" result="hardAlpha"/><feOffset dy="15.2788"/><feGaussianBlur stdDeviation="6.11153"/><feColorMatrix values="0 0 0 0 0.109804 0 0 0 0 0.0509804 0 0 0 0 0.247059 0 0 0 0.0417275 0"/><feBlend in2="effect3_dropShadow_2968_4218" result="effect4_dropShadow_2968_4218"/><feColorMatrix in="SourceAlpha" values="0 0 0 0 0 0 0 0 0 0 0 0 0 0 0 0 0 0 127 0" result="hardAlpha"/><feOffset dy="28.5774"/><feGaussianBlur stdDeviation="11.431"/><feColorMatrix values="0 0 0 0 0.109804 0 0 0 0 0.0509804 0 0 0 0 0.247059 0 0 0 0.0503198 0"/><feBlend in2="effect4_dropShadow_2968_4218" result="effect5_dropShadow_2968_4218"/><feColorMatrix in="SourceAlpha" values="0 0 0 0 0 0 0 0 0 0 0 0 0 0 0 0 0 0 127 0" result="hardAlpha"/><feOffset dy="68.4036"/><feGaussianBlur stdDeviation="27.3614"/><feColorMatrix values="0 0 0 0 0.109804 0 0 0 0 0.0509804 0 0 0 0 0.247059 0 0 0 0.07 0"/><feBlend in2="effect5_dropShadow_2968_4218" result="effect6_dropShadow_2968_4218"/><feBlend in="SourceGraphic" in2="effect6_dropShadow_2968_4218" result="shape"/></filter><linearGradient id="paint0_linear_2968_4218" x1="374.977" y1="132.443" x2="374.977" y2="216.443" gradientUnits="userSpaceOnUse"><stop stop-color="#fff" stop-opacity="0"/><stop offset=".599" stop-color="#fff"/></linearGradient><linearGradient id="paint1_linear_2968_4218" x1="351.509" y1="273.278" x2="380.226" y2="302.091" gradientUnits="userSpaceOnUse"><stop stop-color="#387EB8"/><stop offset="1" stop-color="#366994"/></linearGradient><linearGradient id="paint2_linear_2968_4218" x1="369.133" y1="291.661" x2="399.975" y2="321.209" gradientUnits="userSpaceOnUse"><stop stop-color="#FFE052"/><stop offset="1" stop-color="#FFC331"/></linearGradient></defs></svg>