<svg width="503" height="681" viewBox="0 0 503 681" fill="none" xmlns="http://www.w3.org/2000/svg">
<path fill-rule="evenodd" clip-rule="evenodd" d="M213.779 367.542C213.822 368.182 213.849 368.802 213.862 369.402L211.863 369.445C211.851 368.876 211.825 368.287 211.784 367.675L213.779 367.542ZM213.741 373.133C213.615 374.495 213.399 375.732 213.109 376.858L211.173 376.359C211.434 375.344 211.632 374.213 211.75 372.949L213.741 373.133ZM211.776 380.448C211.143 381.697 210.403 382.749 209.607 383.649L208.109 382.324C208.799 381.544 209.44 380.633 209.991 379.545L211.776 380.448ZM205.19 387.246C205.694 386.93 206.218 386.587 206.747 386.206L205.576 384.584C205.093 384.933 204.607 385.251 204.125 385.553L202.529 386.574L203.607 388.259L205.19 387.246ZM200.433 390.29L197.258 392.322L196.18 390.637L199.355 388.606L200.433 390.29ZM194.084 394.353L190.91 396.385L189.832 394.7L193.006 392.669L194.084 394.353ZM187.735 398.416L184.561 400.448L183.483 398.763L186.657 396.732L187.735 398.416ZM181.387 402.48L179.8 403.495L178.722 401.811L180.309 400.795L181.387 402.48Z" fill="#BFC9D1"/>
<path fill-rule="evenodd" clip-rule="evenodd" d="M237.547 376.744H235.547V374.949H237.547V376.744ZM237.547 383.903H235.547V380.324H237.547V383.903ZM237.547 391.062H235.547V387.483H237.547V391.062ZM237.547 396.441C237.547 397.115 237.541 397.776 237.531 398.424L235.531 398.391C235.541 397.754 235.547 397.104 235.547 396.441V394.643H237.547V396.441ZM237.394 402.36C237.32 403.734 237.22 405.042 237.098 406.29L235.107 406.094C235.227 404.877 235.325 403.598 235.397 402.253L237.394 402.36ZM236.608 410.222C236.395 411.609 236.152 412.907 235.882 414.121L233.929 413.688C234.189 412.519 234.425 411.265 234.631 409.919L236.608 410.222ZM234.86 417.974C234.426 419.358 233.955 420.605 233.46 421.73L231.63 420.924C232.094 419.871 232.538 418.693 232.951 417.376L234.86 417.974ZM231.564 425.315C230.731 426.629 229.877 427.688 229.047 428.549L227.607 427.161C228.343 426.398 229.114 425.445 229.875 424.244L231.564 425.315ZM224.161 432.121C224.282 432.046 224.437 431.961 224.65 431.843C224.699 431.816 224.75 431.788 224.805 431.757C225.095 431.597 225.445 431.4 225.835 431.156L224.776 429.459C224.429 429.676 224.115 429.853 223.835 430.008C223.791 430.033 223.746 430.058 223.701 430.082C223.48 430.204 223.262 430.325 223.089 430.433L223.076 430.441L221.41 431.554L222.521 433.217L224.161 432.121ZM219.215 435.426L215.908 437.636L214.797 435.973L218.104 433.763L219.215 435.426ZM212.601 439.845L209.295 442.054L208.184 440.391L211.49 438.182L212.601 439.845ZM205.988 444.264L202.681 446.473L201.57 444.81L204.877 442.601L205.988 444.264ZM199.375 448.682L196.068 450.892L194.957 449.229L198.263 447.019L199.375 448.682ZM192.761 453.101L189.455 455.31L188.343 453.647L191.65 451.438L192.761 453.101ZM186.148 457.519L182.841 459.729L181.73 458.066L185.037 455.856L186.148 457.519ZM179.534 461.938L176.228 464.147L175.117 462.484L178.423 460.275L179.534 461.938ZM172.921 466.357L169.614 468.566L168.503 466.903L171.81 464.694L172.921 466.357ZM166.308 470.775L163.001 472.985L161.89 471.322L165.197 469.112L166.308 470.775ZM159.694 475.194L156.388 477.403L155.277 475.74L158.583 473.531L159.694 475.194ZM153.081 479.613L149.774 481.822L148.663 480.159L151.97 477.95L153.081 479.613ZM146.468 484.031L144.814 485.136L143.703 483.473L145.356 482.368L146.468 484.031Z" fill="#BFC9D1"/>
<path fill-rule="evenodd" clip-rule="evenodd" d="M284.22 376.744H286.22V374.949H284.22V376.744ZM284.22 383.903H286.22V380.324H284.22V383.903ZM284.22 391.062H286.22V387.483H284.22V391.062ZM284.22 396.441C284.22 397.115 284.226 397.776 284.237 398.424L286.236 398.391C286.226 397.754 286.22 397.104 286.22 396.441V394.643H284.22V396.441ZM284.373 402.36C284.447 403.734 284.547 405.042 284.67 406.29L286.66 406.094C286.54 404.877 286.443 403.598 286.37 402.253L284.373 402.36ZM285.16 410.222C285.372 411.609 285.616 412.907 285.885 414.121L287.838 413.688C287.578 412.519 287.343 411.265 287.137 409.919L285.16 410.222ZM286.908 417.974C287.341 419.358 287.812 420.605 288.307 421.73L290.138 420.924C289.674 419.871 289.229 418.693 288.816 417.376L286.908 417.974ZM290.203 425.315C291.036 426.629 291.891 427.688 292.72 428.549L294.16 427.161C293.425 426.398 292.653 425.445 291.892 424.244L290.203 425.315ZM297.606 432.121C297.485 432.046 297.33 431.961 297.117 431.843C297.069 431.816 297.017 431.788 296.962 431.757C296.672 431.597 296.323 431.4 295.933 431.156L296.991 429.459C297.338 429.676 297.652 429.853 297.932 430.008C297.976 430.033 298.021 430.058 298.066 430.082C298.287 430.204 298.505 430.325 298.678 430.433L298.691 430.441L300.357 431.554L299.246 433.217L297.606 432.121ZM302.553 435.426L305.859 437.636L306.97 435.973L303.664 433.763L302.553 435.426ZM309.166 439.845L312.473 442.054L313.584 440.391L310.277 438.182L309.166 439.845ZM315.779 444.264L319.086 446.473L320.197 444.81L316.89 442.601L315.779 444.264ZM322.393 448.682L325.699 450.892L326.811 449.229L323.504 447.019L322.393 448.682ZM329.006 453.101L332.313 455.31L333.424 453.647L330.117 451.438L329.006 453.101ZM335.62 457.519L338.926 459.729L340.037 458.066L336.731 455.856L335.62 457.519ZM342.233 461.938L345.54 464.147L346.651 462.484L343.344 460.275L342.233 461.938ZM348.846 466.357L352.153 468.566L353.264 466.903L349.957 464.694L348.846 466.357ZM355.46 470.775L358.766 472.985L359.877 471.322L356.571 469.112L355.46 470.775ZM362.073 475.194L365.38 477.403L366.491 475.74L363.184 473.531L362.073 475.194ZM368.686 479.613L371.993 481.822L373.104 480.159L369.797 477.95L368.686 479.613ZM375.3 484.031L376.953 485.136L378.064 483.473L376.411 482.368L375.3 484.031Z" fill="#BFC9D1"/>
<path fill-rule="evenodd" clip-rule="evenodd" d="M306.344 367.542C306.301 368.182 306.273 368.802 306.26 369.402L308.26 369.445C308.272 368.876 308.298 368.287 308.339 367.675L306.344 367.542ZM306.382 373.133C306.508 374.495 306.724 375.732 307.013 376.858L308.95 376.359C308.689 375.344 308.491 374.213 308.373 372.949L306.382 373.133ZM308.347 380.448C308.979 381.697 309.719 382.749 310.516 383.649L312.014 382.324C311.324 381.544 310.683 380.633 310.132 379.545L308.347 380.448ZM314.933 387.246C314.429 386.93 313.904 386.587 313.376 386.206L314.547 384.584C315.03 384.933 315.516 385.251 315.998 385.553L317.594 386.574L316.516 388.259L314.933 387.246ZM319.69 390.29L322.864 392.322L323.942 390.637L320.768 388.606L319.69 390.29ZM326.039 394.353L329.213 396.385L330.291 394.7L327.117 392.669L326.039 394.353ZM332.387 398.416L335.562 400.448L336.64 398.763L333.465 396.732L332.387 398.416ZM338.736 402.48L340.323 403.495L341.401 401.811L339.814 400.795L338.736 402.48Z" fill="#BFC9D1"/>
<path fill-rule="evenodd" clip-rule="evenodd" d="M259.567 373.836L259.567 371.788L261.567 371.788L261.567 373.836L259.567 373.836ZM259.567 382.026L259.567 377.931L261.567 377.931L261.567 382.026L259.567 382.026ZM259.567 390.215L259.567 386.121L261.567 386.121L261.567 390.215L259.567 390.215ZM259.567 398.405L259.567 394.31L261.567 394.31L261.567 398.405L259.567 398.405ZM259.567 406.595L259.567 402.5L261.567 402.5L261.567 406.595L259.567 406.595ZM259.567 414.785L259.567 410.69L261.567 410.69L261.567 414.785L259.567 414.785ZM259.567 422.975L259.567 418.88L261.567 418.88L261.567 422.975L259.567 422.975ZM259.567 431.165L259.567 427.07L261.567 427.07L261.567 431.165L259.567 431.165ZM259.567 439.355L259.567 435.26L261.567 435.26L261.567 439.355L259.567 439.355ZM259.567 447.545L259.567 443.45L261.567 443.45L261.567 447.545L259.567 447.545ZM259.567 455.735L259.567 451.64L261.567 451.64L261.567 455.735L259.567 455.735ZM259.567 463.925L259.567 459.83L261.567 459.83L261.567 463.925L259.567 463.925ZM259.567 472.115L259.567 468.02L261.567 468.02L261.567 472.115L259.567 472.115ZM259.567 480.305L259.567 476.21L261.567 476.21L261.567 480.305L259.567 480.305ZM259.567 488.495L259.567 484.4L261.567 484.4L261.567 488.495L259.567 488.495ZM259.567 496.685L259.567 492.59L261.567 492.59L261.567 496.685L259.567 496.685ZM259.567 504.875L259.567 500.78L261.567 500.78L261.567 504.875L259.567 504.875ZM259.567 513.065L259.567 508.97L261.567 508.97L261.567 513.065L259.567 513.065ZM259.567 521.255L259.567 517.16L261.567 517.16L261.567 521.255L259.567 521.255ZM259.567 529.445L259.567 525.35L261.567 525.35L261.567 529.445L259.567 529.445ZM259.567 537.635L259.567 533.54L261.567 533.54L261.567 537.635L259.567 537.635ZM259.567 545.825L259.567 541.73L261.567 541.73L261.567 545.825L259.567 545.825ZM259.567 554.015L259.567 549.92L261.567 549.92L261.567 554.015L259.567 554.015ZM259.567 560.157L259.567 558.11L261.567 558.11L261.567 560.157L259.567 560.157Z" fill="#BFC9D1"/>
<g clip-path="url(#clip0_1147_30698)">
<path d="M192.624 433.476L152.886 459.565C150.633 461.044 147.651 461.798 144.645 461.798C141.638 461.798 138.657 461.044 136.404 459.565L96.6664 433.476C94.4225 432.003 93.3702 430.126 93.3648 428.318C93.3618 427.304 93.3618 424.095 93.3626 421.137C93.363 419.659 93.3636 418.244 93.364 417.198L93.3646 415.977H195.925L195.924 417.193C195.923 418.236 195.922 419.647 195.921 421.121C195.92 424.069 195.92 427.271 195.925 428.28C195.934 430.101 194.883 431.993 192.624 433.476Z" fill="white" stroke="#1B127D"/>
<rect x="0.84313" width="66.3898" height="66.3898" rx="9.60847" transform="matrix(0.84313 -0.53771 0.84313 0.53771 87.7894 416.184)" fill="white" stroke="#1B127D"/>
<g clip-path="url(#clip1_1147_30698)">
<path fill-rule="evenodd" clip-rule="evenodd" d="M125.085 402.908C133.098 398.282 141.908 395.796 145.276 397.141L145.309 397.122L145.663 397.327L145.673 397.333L145.684 397.339L173.731 413.532L173.698 413.551C173.841 413.608 173.973 413.672 174.096 413.742C177.115 415.485 172.791 420.807 164.44 425.629C156.088 430.451 146.87 432.947 143.852 431.204C143.729 431.133 143.619 431.057 143.52 430.975L143.487 430.994L133.469 425.21C133.684 425.204 142.925 424.924 141.482 418.688C144.217 419.423 154.238 418.476 152.413 412.377C162.619 413.427 163.709 407.748 163.709 407.748L161.341 406.381C161.341 406.381 159.521 411.849 150.045 410.799C150.412 411.638 151.14 417.95 138.931 417.215C138.868 417.472 138.888 417.808 138.91 418.193C139.018 420.02 139.192 422.953 130.918 423.737L115.064 414.584L115.097 414.565C112.768 412.62 117.072 407.534 125.085 402.908ZM133.83 407.957C139.767 404.529 143.111 400.903 141.3 399.857C139.489 398.811 133.208 400.742 127.271 404.17C121.334 407.598 117.99 411.224 119.801 412.27C121.612 413.315 127.893 411.384 133.83 407.957Z" fill="#1B127D"/>
</g>
</g>
<g clip-path="url(#clip2_1147_30698)">
<path d="M176.573 533.001L136.835 559.09C134.582 560.569 131.601 561.324 128.594 561.324C125.588 561.324 122.607 560.569 120.353 559.09L80.6156 533.001C78.3717 531.528 77.3194 529.652 77.3141 527.843C77.3111 526.83 77.3111 523.62 77.3118 520.663C77.3122 519.184 77.3128 517.769 77.3133 516.724L77.3139 515.502H179.874L179.873 516.718C179.872 517.761 179.871 519.173 179.87 520.647C179.869 523.594 179.869 526.797 179.874 527.806C179.883 529.626 178.832 531.518 176.573 533.001Z" fill="white" stroke="#1B127D"/>
<rect x="0.84313" width="66.3898" height="66.3898" rx="9.60847" transform="matrix(0.84313 -0.53771 0.84313 0.53771 71.7386 515.71)" fill="white" stroke="#1B127D"/>
<g opacity="0.8" clip-path="url(#clip3_1147_30698)">
<path d="M114.054 518.009L108.169 522.012L110.708 528.244L101.557 526.51L99.9852 527.579L113.501 530.13L110.341 522.399L115.424 518.941L114.054 518.009Z" fill="#1B127D"/>
<path d="M118.902 521.308L117.532 520.375L111.69 524.35L116.465 527.598L122.307 523.624L120.937 522.691L116.465 525.733L114.431 524.349L118.902 521.308Z" fill="#1B127D"/>
<path d="M129.882 507.242L128.511 508.175L136.765 513.789L138.136 512.857L129.882 507.242Z" fill="#1B127D"/>
<path d="M127.974 508.54L120.972 513.304L120.993 513.318C121.773 513.261 122.564 513.354 123.291 513.59L125.158 512.32L132.041 517.003L133.412 516.07L126.529 511.388L129.345 509.472L127.974 508.54Z" fill="#1B127D"/>
<path d="M128.888 519.147L130.259 518.215L124.524 517.068C125.041 516.243 124.799 515.246 123.818 514.58C122.511 513.691 120.403 513.691 119.095 514.58L115.994 516.689L115.077 517.314L114.623 517.622L122.877 523.236L124.248 522.304L120.706 519.895L123.417 518.051L128.888 519.147ZM117.365 517.622L120.465 515.513C121.014 515.14 121.899 515.139 122.447 515.512C122.996 515.885 122.995 516.488 122.447 516.861L119.346 518.97L117.365 517.622Z" fill="#1B127D"/>
<path d="M140.166 499.831L142.504 506.214L142.515 506.221C142.841 507.118 142.493 508.1 141.47 508.796C139.909 509.858 137.379 509.858 135.819 508.797C134.258 507.736 134.259 506.015 135.82 504.953C136.78 504.3 138.098 504.049 139.352 504.199L138.857 502.858C137.276 502.815 135.683 503.21 134.471 504.035C132.161 505.606 132.16 508.145 134.469 509.715C136.777 511.286 140.51 511.285 142.819 509.714C144.338 508.681 144.855 507.225 144.381 505.898L142.811 501.631L152.311 503.243L153.871 502.153L140.166 499.831Z" fill="#1B127D"/>
</g>
</g>
<path d="M435.002 533.002L395.265 559.09C393.011 560.569 390.03 561.324 387.024 561.324C384.017 561.324 381.036 560.569 378.783 559.09L339.045 533.002C336.801 531.528 335.749 529.652 335.744 527.843C335.741 526.83 335.741 523.62 335.742 520.663C335.742 519.184 335.742 517.769 335.743 516.724L335.744 515.502H438.303L438.302 516.718C438.302 517.761 438.301 519.173 438.3 520.647C438.299 523.594 438.299 526.797 438.304 527.806C438.313 529.626 437.262 531.518 435.002 533.002Z" fill="white" stroke="#1B127D"/>
<rect x="0.84313" width="66.3898" height="66.3898" rx="9.60847" transform="matrix(0.84313 -0.53771 0.84313 0.53771 330.17 515.71)" fill="white" stroke="#1B127D"/>
<path d="M377.221 512.122C377.94 512.612 378.26 513.156 378.259 513.808C378.26 514.787 377.22 515.711 375.862 515.874L363.231 518.158C363.191 518.185 363.151 518.186 363.11 518.186C363.071 518.186 363.031 518.186 362.991 518.213C361.232 518.539 359.474 517.778 359.074 516.527C358.594 515.331 359.714 514.135 361.552 513.862L368.667 512.612L363.391 509.023C362.112 508.153 362.112 506.739 363.391 505.869C364.67 504.999 366.748 504.999 368.027 505.869L377.221 512.122Z" fill="#1B127D"/>
<path d="M377.14 519.355C378.339 519.083 379.539 519.355 380.418 519.953C381.297 520.551 381.697 521.367 381.378 522.128L378.019 530.72L377.86 530.828C377.3 532.079 375.542 532.732 373.703 532.351C371.864 531.97 370.985 530.719 371.464 529.524L373.383 524.629L366.188 525.934C366.137 525.969 366.085 525.959 366.034 525.962C366.005 525.964 365.977 525.969 365.949 525.989C364.19 526.315 362.431 525.554 362.031 524.303C361.552 523.107 362.671 521.91 364.51 521.638L377.14 519.355Z" fill="#1B127D"/>
<path d="M401.123 528.381L391.85 522.073C391.61 521.802 391.05 521.638 390.65 521.584C388.812 521.203 386.893 521.965 386.414 523.161L383.056 531.753C383.016 531.78 383.016 531.808 383.016 531.835C383.016 531.862 383.016 531.889 382.976 531.916C382.496 533.112 383.616 534.309 385.455 534.58C387.213 534.907 388.972 534.145 389.372 532.895L391.29 528.001L396.486 531.535C397.765 532.405 399.844 532.405 401.123 531.535C402.402 530.665 402.402 529.251 401.123 528.381Z" fill="#1B127D"/>
<path d="M405.28 525.554L396.247 519.409C395.766 519.192 395.367 518.702 395.127 518.322C394.647 517.125 395.686 515.874 397.445 515.548L410.076 513.264C410.156 513.21 410.236 513.264 410.316 513.21C412.074 512.884 413.833 513.645 414.233 514.896C414.712 516.092 413.593 517.288 411.754 517.56L404.72 518.865L409.916 522.4C411.195 523.27 411.195 524.684 409.916 525.554C408.637 526.424 406.559 526.424 405.28 525.554Z" fill="#1B127D"/>
<path d="M392.009 509.24C391.61 510.056 392.009 510.872 392.889 511.47C393.688 512.122 394.967 512.34 396.006 512.068L408.637 509.784C408.717 509.729 408.797 509.784 408.876 509.73C410.715 509.349 411.595 508.098 411.115 506.902C410.556 505.651 408.717 505.053 406.958 505.379L399.763 506.685L401.682 501.79C401.724 501.762 401.722 501.734 401.722 501.706C401.722 501.679 401.724 501.653 401.762 501.627C402.242 500.431 401.123 499.235 399.284 498.962C397.525 498.636 395.766 499.398 395.367 500.648L392.009 509.24Z" fill="#1B127D"/>
<path d="M372.184 503.041L381.218 509.186C381.617 509.567 382.257 509.784 382.816 509.947C384.575 510.274 386.413 509.567 386.893 508.37L390.251 499.778C390.29 499.751 390.29 499.724 390.29 499.697C390.29 499.67 390.29 499.643 390.33 499.616C390.81 498.419 389.691 497.223 387.852 496.951C386.093 496.625 384.335 497.386 383.935 498.637L382.017 503.422L376.82 499.887C375.541 499.017 373.463 499.017 372.184 499.887C370.905 500.758 370.905 502.171 372.184 503.041Z" fill="#1B127D"/>
<path fill-rule="evenodd" clip-rule="evenodd" d="M383.165 512.251C383.255 512.237 383.351 512.231 383.456 512.231L389.771 512.286C390.09 512.285 390.33 512.34 390.57 512.503L391.37 513.047C391.53 513.156 391.689 513.373 391.769 513.536L391.77 517.886C391.769 518.001 391.747 518.101 391.691 518.194C391.64 518.276 391.563 518.353 391.45 518.43L390.65 518.974C390.41 519.137 390.171 519.191 389.851 519.192L383.455 519.192C383.136 519.191 382.896 519.137 382.656 518.974L381.857 518.43C381.617 518.267 381.537 518.104 381.537 517.887L381.537 513.536C381.537 513.398 381.569 513.282 381.654 513.173C381.703 513.111 381.769 513.052 381.857 512.992L382.656 512.449C382.817 512.339 382.979 512.278 383.165 512.251ZM385.6 514.506C385.44 514.505 385.2 514.56 385.04 514.668C384.926 514.746 384.852 514.852 384.82 514.946C384.807 514.983 384.801 515.018 384.801 515.049L384.8 516.354C384.8 516.463 384.881 516.626 385.04 516.735C385.2 516.844 385.44 516.898 385.6 516.898L387.519 516.898C387.592 516.898 387.681 516.887 387.772 516.864C387.881 516.837 387.991 516.794 388.079 516.735C388.238 516.626 388.318 516.463 388.318 516.354L388.318 515.049C388.318 514.956 388.259 514.822 388.141 514.717C388.122 514.7 388.101 514.684 388.078 514.669C387.99 514.609 387.877 514.565 387.767 514.538C387.678 514.516 387.59 514.505 387.518 514.505L385.6 514.506Z" fill="#1B127D"/>
<g clip-path="url(#clip4_1147_30698)">
<path d="M309.35 618.499L269.612 644.587C267.359 646.066 264.378 646.821 261.372 646.821C258.365 646.821 255.384 646.066 253.131 644.587L213.393 618.499C211.149 617.025 210.097 615.149 210.091 613.34C210.088 612.327 210.088 609.117 210.089 606.16C210.09 604.681 210.09 603.266 210.091 602.221L210.091 600.999H312.651L312.65 602.216C312.649 603.258 312.648 604.67 312.648 606.144C312.647 609.092 312.647 612.294 312.652 613.303C312.661 615.123 311.609 617.015 309.35 618.499Z" fill="white" stroke="#1B127D"/>
<rect x="0.84313" width="66.3898" height="66.3898" rx="9.60847" transform="matrix(0.84313 -0.53771 0.84313 0.53771 204.516 601.206)" fill="white" stroke="#1B127D"/>
<g clip-path="url(#clip5_1147_30698)">
<path d="M270.341 606.166L287.679 598.908L261.449 581.065L250.779 592.859L270.341 606.166Z" fill="#1B127D" stroke="white" stroke-width="0.660313"/>
<path d="M261.449 581.065L265.45 580.158L289.013 596.186L287.679 598.908L261.449 581.065ZM270.341 606.166L259.671 617.96L233.44 600.117L250.779 592.859L270.341 606.166Z" fill="#1B127D" stroke="white" stroke-width="0.660313"/>
<path d="M233.44 600.117L232.106 602.839L255.669 618.867L259.671 617.96L233.44 600.117Z" fill="#1B127D" stroke="white" stroke-width="0.660313"/>
<path d="M282.567 609.643L285.235 604.199L253.744 582.778L245.741 584.593L261.597 597.597L282.567 609.643Z" fill="#1B127D" stroke="white" stroke-width="0.660313"/>
<path d="M275.453 614.483L267.45 616.297L235.959 594.876L238.627 589.433L257.745 600.218L275.453 614.483Z" fill="#1B127D" stroke="white" stroke-width="0.660313"/>
<path d="M238.627 589.433L245.813 584.544L282.565 609.544L275.378 614.432L238.627 589.433Z" fill="#1B127D" stroke="white" stroke-width="1.32063"/>
</g>
</g>
<path d="M309.094 498.562L269.356 524.651C267.103 526.13 264.122 526.884 261.116 526.884C258.109 526.884 255.128 526.13 252.875 524.651L213.137 498.562C210.893 497.089 209.841 495.212 209.836 493.404C209.833 492.39 209.833 489.181 209.833 486.223C209.834 484.745 209.834 483.33 209.835 482.284L209.835 481.062H312.395L312.394 482.279C312.393 483.322 312.393 484.733 312.392 486.207C312.391 489.155 312.391 492.357 312.396 493.366C312.405 495.187 311.353 497.079 309.094 498.562Z" fill="white" stroke="#1B127D"/>
<g clip-path="url(#clip6_1147_30698)">
<rect x="0.84313" width="66.3898" height="66.3898" rx="9.60847" transform="matrix(0.84313 -0.53771 0.84313 0.53771 204.262 481.27)" fill="white" stroke="#1B127D"/>
<path d="M271.689 487.319L259.742 499.698L231.106 481.436L250.436 473.765L271.689 487.319Z" fill="#1B127D"/>
<path d="M231.106 481.436L229.642 484.239L255.356 500.638L259.742 499.699L259.738 499.674L231.144 481.438L231.106 481.436Z" fill="#1B127D" stroke="white" stroke-width="1.32063"/>
<path d="M258.766 488.106L266.264 484.404L255.177 477.334L249.361 482.107L258.766 488.106Z" fill="#1B127D" stroke="white" stroke-width="1.32063"/>
<path d="M271.304 487.618L290.254 480.25L290.24 480.21L261.66 461.983L261.61 461.982L250.051 474.064L271.304 487.618" fill="#1B127D"/>
<path d="M272.069 479.622L266.263 484.405L255.177 477.334L262.663 473.624L272.069 479.622Z" fill="#1B127D" stroke="white" stroke-width="1.32063"/>
<path d="M258.115 470.722L252.675 475.738L244.812 479.206L249.713 473.86L258.115 470.722Z" fill="#1B127D"/>
<path d="M276.606 482.515L268.733 485.979L263.303 490.999L271.8 487.945L276.606 482.515Z" fill="#1B127D"/>
<path d="M244.813 479.207L249.818 473.916L249.855 473.871L238.83 466.84L238.731 466.845L235.407 473.208L244.813 479.207Z" fill="#1B127D" stroke="white" stroke-width="1.32063"/>
<path d="M258.116 470.723L249.818 473.916L238.731 466.846L248.71 464.724L258.116 470.723Z" fill="#1B127D" stroke="white" stroke-width="1.32063"/>
<path d="M282.686 494.878L272.71 497L263.304 491.001L271.6 487.808L271.809 487.817L282.565 494.71L282.686 494.878Z" fill="#1B127D" stroke="white" stroke-width="1.32063"/>
<path d="M282.687 494.878L286.014 488.515L276.608 482.516L271.601 487.808L282.687 494.878V494.878ZM261.61 461.982L266.006 461.047L291.72 477.446L290.254 480.25L261.61 461.982Z" fill="#1B127D" stroke="white" stroke-width="1.32063"/>
</g>
<path d="M421.795 433.793L382.058 459.881C379.804 461.36 376.823 462.115 373.817 462.115C370.81 462.115 367.829 461.36 365.576 459.881L325.838 433.793C323.594 432.319 322.542 430.443 322.537 428.634C322.534 427.621 322.534 424.411 322.534 421.454C322.535 419.975 322.535 418.56 322.536 417.515L322.537 416.293H425.096L425.095 417.509C425.095 418.552 425.094 419.964 425.093 421.438C425.092 424.385 425.092 427.588 425.097 428.597C425.106 430.417 424.055 432.309 421.795 433.793Z" fill="white" stroke="#1B127D"/>
<g clip-path="url(#clip7_1147_30698)">
<rect x="0.84313" width="66.3898" height="66.3898" rx="9.60847" transform="matrix(0.84313 -0.53771 0.84313 0.53771 316.963 416.5)" fill="white" stroke="#1B127D"/>
<g clip-path="url(#clip8_1147_30698)">
<path d="M392.329 401.786L368.801 397.737C367.905 397.577 366.96 397.569 366.058 397.714C365.156 397.86 364.329 398.153 363.661 398.565L346.479 409.523C345.833 409.95 345.373 410.477 345.145 411.052C344.917 411.627 344.928 412.23 345.179 412.802L351.485 427.784C351.728 428.354 352.201 428.874 352.856 429.292C353.512 429.71 354.327 430.012 355.221 430.166L378.834 434.27C379.735 434.436 380.688 434.451 381.6 434.314C382.513 434.176 383.355 433.891 384.043 433.484L401.225 422.527C401.865 422.09 402.316 421.554 402.534 420.972C402.752 420.391 402.73 419.783 402.469 419.209L396.12 404.204C395.872 403.626 395.391 403.099 394.727 402.675C394.062 402.251 393.235 401.944 392.329 401.786V401.786Z" fill="#1B127D"/>
<path opacity="0.07" d="M376.472 408.745L365.744 416.974L365.744 419.89L369.663 419.89L371.106 423.31L399.977 423.31L401.198 422.531C401.838 422.094 402.289 421.558 402.507 420.977C402.726 420.395 402.703 419.787 402.443 419.213L398.017 408.755L376.472 408.745Z" fill="#1B127D"/>
<path d="M376.122 408.85L362.588 417.482C362.48 417.547 362.417 417.637 362.412 417.732C362.407 417.828 362.461 417.92 362.562 417.99L365.371 419.781C365.476 419.848 365.618 419.886 365.766 419.886C365.914 419.886 366.056 419.848 366.161 419.781L379.711 411.139C379.815 411.072 379.873 410.982 379.873 410.887C379.873 410.793 379.815 410.703 379.711 410.635L376.912 408.85C376.808 408.784 376.666 408.746 376.517 408.746C376.369 408.746 376.227 408.784 376.122 408.85ZM376.641 411.852C376.481 411.954 376.277 412.024 376.055 412.052C375.833 412.08 375.602 412.065 375.393 412.01C375.184 411.955 375.005 411.861 374.879 411.741C374.753 411.621 374.686 411.48 374.686 411.335C374.686 411.191 374.753 411.05 374.879 410.929C375.005 410.809 375.184 410.716 375.393 410.66C375.602 410.605 375.833 410.591 376.055 410.619C376.277 410.647 376.481 410.717 376.641 410.819C376.856 410.956 376.977 411.142 376.977 411.335C376.977 411.529 376.856 411.715 376.641 411.852" fill="white"/>
<path d="M381.518 412.291L367.984 420.923C367.876 420.988 367.812 421.078 367.808 421.173C367.803 421.268 367.857 421.361 367.958 421.431L370.783 423.233C370.89 423.294 371.03 423.328 371.174 423.326C371.318 423.325 371.456 423.288 371.56 423.224L385.11 414.582C385.214 414.515 385.272 414.425 385.272 414.33C385.272 414.236 385.214 414.146 385.11 414.078L382.295 412.283C382.19 412.216 382.048 412.179 381.9 412.179C381.752 412.179 381.61 412.216 381.505 412.283L381.518 412.291ZM382.024 415.284C381.864 415.387 381.66 415.456 381.438 415.484C381.215 415.512 380.985 415.498 380.776 415.443C380.566 415.387 380.388 415.294 380.262 415.174C380.136 415.054 380.069 414.912 380.069 414.768C380.069 414.623 380.136 414.482 380.262 414.362C380.388 414.242 380.567 414.148 380.776 414.093C380.985 414.038 381.215 414.023 381.438 414.051C381.66 414.08 381.864 414.149 382.024 414.251C382.13 414.319 382.215 414.4 382.272 414.488C382.33 414.577 382.36 414.672 382.36 414.768C382.36 414.864 382.33 414.959 382.272 415.047C382.215 415.136 382.13 415.217 382.024 415.284V415.284Z" fill="white"/>
</g>
</g>
<path fill-rule="evenodd" clip-rule="evenodd" d="M207.032 240.524C212.542 240.892 217.307 236.722 217.675 231.212C218.317 221.581 216.724 212.628 214.094 205.447C211.663 198.81 207.68 191.915 202.115 188.437L201.936 188.326L87.8251 123.516C87.7866 123.488 87.7427 123.457 87.6937 123.422C87.4049 123.213 86.9451 122.869 86.3714 122.399C85.2109 121.447 83.6581 120.04 82.1238 118.257C78.9484 114.566 76.5614 110.122 76.5614 105.255C76.5614 99.7321 72.0842 95.2549 66.5614 95.2549C61.0386 95.2549 56.5614 99.7321 56.5614 105.255C56.5614 116.784 62.1567 125.715 66.9636 131.302C69.4204 134.157 71.8587 136.363 73.6915 137.865C74.6145 138.622 75.402 139.215 75.9862 139.637C76.2788 139.848 76.5219 140.018 76.7073 140.144C76.9132 140.285 77.122 140.421 77.3312 140.556L191.522 205.412C191.53 205.421 191.542 205.434 191.557 205.451C191.867 205.789 193.622 207.704 195.314 212.325C197.037 217.028 198.165 223.19 197.719 229.881C197.352 235.392 201.521 240.157 207.032 240.524Z" fill="#1B127D"/>
<path opacity="0.9" d="M347.959 325.738C347.959 357.539 308.585 383.318 260.014 383.318C211.444 383.318 172.069 357.539 172.069 325.738C172.069 320.252 172.069 273.062 172.069 247.752C182.567 223.643 219.823 229.402 260.014 229.402C301.254 229.402 337.378 219.513 346.886 244.588C348.577 249.046 347.959 320.938 347.959 325.738Z" fill="#DFE4E8"/>
<path d="M347.569 326.816C347.569 342.451 337.858 356.672 322.021 367.008C306.189 377.341 284.287 383.748 260.069 383.748C235.852 383.748 213.95 377.341 198.117 367.008C182.28 356.672 172.569 342.451 172.569 326.816C172.569 311.181 182.28 296.961 198.117 286.625C213.95 276.292 235.852 269.885 260.069 269.885C284.287 269.885 306.189 276.292 322.021 286.625C337.858 296.961 347.569 311.181 347.569 326.816Z" fill="#F2F4F6" stroke="#1B127D"/>
<path d="M214.903 325.205C211.846 326.764 207.391 326.443 204.953 324.488C202.515 322.532 203.017 319.683 206.074 318.124C209.132 316.565 213.587 316.886 216.024 318.841C218.462 320.797 217.96 323.646 214.903 325.205Z" fill="#1B127D"/>
<path d="M270.262 296.974C273.319 295.414 273.821 292.565 271.383 290.61C268.945 288.655 264.49 288.334 261.433 289.893C258.376 291.452 257.874 294.301 260.312 296.256C262.749 298.212 267.204 298.533 270.262 296.974Z" fill="#ED26B7"/>
<path d="M256.766 358.783C253.709 360.342 249.254 360.021 246.816 358.066C244.378 356.11 244.88 353.261 247.938 351.702C250.995 350.143 255.45 350.464 257.888 352.419C260.326 354.375 259.823 357.224 256.766 358.783Z" fill="#1B127D"/>
<path d="M312.125 330.551C315.182 328.992 315.684 326.142 313.246 324.187C310.809 322.232 306.354 321.911 303.296 323.47C300.239 325.029 299.737 327.878 302.175 329.833C304.613 331.789 309.068 332.11 312.125 330.551Z" fill="#ED26B7"/>
<path d="M224.622 347.526C221.564 349.085 217.11 348.764 214.672 346.809C212.234 344.853 212.736 342.004 215.793 340.445C218.851 338.886 223.305 339.207 225.743 341.163C228.181 343.118 227.679 345.967 224.622 347.526Z" fill="#1B127D"/>
<path d="M302.123 308.002C305.18 306.443 305.682 303.594 303.244 301.638C300.807 299.683 296.352 299.362 293.294 300.921C290.237 302.48 289.735 305.329 292.173 307.285C294.611 309.24 299.066 309.561 302.123 308.002Z" fill="#ED26B7"/>
<path fill-rule="evenodd" clip-rule="evenodd" d="M243.521 305.643L257.01 298.764L255.755 297.757L241.386 305.085L250.069 327.746L227.473 339.27L228.728 340.277L252.204 328.304L243.521 305.643Z" fill="#1B127D"/>
<path fill-rule="evenodd" clip-rule="evenodd" d="M229.866 313.167L295.985 333.194L296.653 332.073L229.468 311.723L220.646 316.221L221.902 317.228L229.866 313.167Z" fill="#1B127D"/>
<path fill-rule="evenodd" clip-rule="evenodd" d="M266.728 320.336L286.336 310.336L285.081 309.329L264.688 319.729L270.475 344.988L261.939 349.342L263.194 350.349L272.515 345.595L266.728 320.336Z" fill="#1B127D"/>
<path d="M347.569 248.948C347.569 264.658 337.857 278.944 322.02 289.327C306.188 299.707 284.286 306.144 260.069 306.144C235.852 306.144 213.95 299.707 198.118 289.327C182.281 278.944 172.569 264.658 172.569 248.948C172.569 233.239 182.281 218.953 198.118 208.57C213.95 198.19 235.852 191.753 260.069 191.753C284.286 191.753 306.188 198.19 322.02 208.57C337.857 218.953 347.569 233.239 347.569 248.948Z" fill="#ED26B7" stroke="#1B127D"/>
<path d="M304.805 256.706C304.486 247.781 296.972 240.697 285.5 237.929V222.396C282.604 221.182 279.521 220.178 276.303 219.407V252.823C276.303 259.443 271.619 262.399 264.092 262.399C256.763 262.399 250.633 258.77 250.633 252.701C250.633 245.928 258.686 241.791 269.23 241.791C270.206 241.779 271.201 241.813 272.177 241.913V236C271.201 235.889 270.224 235.834 269.23 235.846C253.581 235.846 241.319 242.135 241.319 252.714C241.319 262.886 252.385 268.313 264.716 268.313C270.561 268.313 275.614 267.011 279.102 264.771C282.588 262.532 285.538 259.299 285.538 253.618V244.361C291.905 246.447 295.745 251.499 295.763 257.28C295.73 268.168 280.316 277.37 262.242 277.37C261.822 277.37 261.501 277.37 261.08 277.358C248.682 277.348 237.784 274.412 228.957 268.621C222.605 264.451 218.26 259.144 216.508 253.374C214.756 247.593 215.649 241.614 219.101 236.163C222.539 230.724 228.365 226.069 235.844 222.792C243.323 219.516 252.117 217.772 261.111 217.772V211.705C253.918 211.705 246.793 212.632 240.156 214.43C233.519 216.229 227.473 218.876 222.386 222.197C212.11 228.916 206.332 238.039 206.332 247.549C206.332 257.058 212.092 266.183 222.35 272.913C232.609 279.643 246.538 283.427 261.06 283.427H262.222C266.687 283.427 271.134 282.974 275.413 282.102C275.43 282.102 275.446 282.091 275.464 282.091C281.645 280.833 287.305 278.693 292.056 275.825C300.259 270.86 304.774 264.297 304.808 257.313C304.823 257.29 304.805 256.717 304.805 256.706Z" fill="white"/>
<path fill-rule="evenodd" clip-rule="evenodd" d="M208.695 230.613C208.747 229.832 208.782 229.055 208.8 228.286L206.801 228.237C206.783 228.979 206.749 229.727 206.699 230.48L208.695 230.613ZM208.718 223.632C208.624 222.049 208.465 220.503 208.249 219.002L206.269 219.288C206.477 220.734 206.631 222.225 206.722 223.751L208.718 223.632ZM207.39 214.426C207.025 212.86 206.601 211.36 206.13 209.938L204.231 210.567C204.683 211.93 205.091 213.372 205.442 214.88L207.39 214.426ZM204.436 205.58C203.746 204.053 203.003 202.661 202.229 201.427L200.535 202.489C201.256 203.639 201.957 204.951 202.614 206.404L204.436 205.58ZM199.287 197.645C198.651 197.012 198.001 196.48 197.345 196.07L197.327 196.059L195.523 195.034L194.535 196.773L196.302 197.776C196.801 198.09 197.329 198.518 197.876 199.062L199.287 197.645ZM191.951 193.005L188.38 190.977L187.392 192.716L190.964 194.744L191.951 193.005ZM184.808 188.948L181.237 186.92L180.249 188.659L183.821 190.688L184.808 188.948ZM177.665 184.892L174.094 182.863L173.106 184.602L176.678 186.631L177.665 184.892ZM170.522 180.835L166.951 178.806L165.963 180.545L169.534 182.574L170.522 180.835ZM163.379 176.778L159.808 174.749L158.82 176.488L162.391 178.517L163.379 176.778ZM156.236 172.721L152.665 170.692L151.677 172.431L155.248 174.46L156.236 172.721ZM149.093 168.664L145.522 166.635L144.534 168.374L148.105 170.403L149.093 168.664ZM141.95 164.607L138.378 162.578L137.391 164.317L140.962 166.346L141.95 164.607ZM134.807 160.55L131.235 158.521L130.248 160.26L133.819 162.289L134.807 160.55ZM127.664 156.493L124.092 154.464L123.105 156.204L126.676 158.232L127.664 156.493ZM120.521 152.436L116.949 150.408L115.962 152.147L119.533 154.175L120.521 152.436ZM113.378 148.379L109.806 146.351L108.819 148.09L112.39 150.118L113.378 148.379ZM106.235 144.322L102.663 142.294L101.675 144.033L105.247 146.061L106.235 144.322ZM99.0917 140.265L95.5201 138.237L94.5324 139.976L98.104 142.004L99.0917 140.265ZM91.9486 136.208L88.3771 134.18L87.3894 135.919L90.9609 137.947L91.9486 136.208ZM83.0489 131.154L84.8056 132.151L83.8178 133.89L82.0065 132.862L81.9818 132.846L82.5259 132.007C81.9817 132.846 81.9818 132.846 81.9818 132.846L81.9804 132.845L81.9707 132.838L81.9453 132.822C81.9237 132.807 81.8927 132.787 81.8529 132.76C81.7733 132.706 81.6583 132.627 81.5118 132.524C81.2188 132.317 80.7995 132.013 80.2851 131.614L81.5106 130.033C81.9991 130.412 82.3939 130.699 82.6642 130.889C82.7993 130.985 82.9033 131.056 82.9723 131.102C83.0062 131.125 83.0316 131.142 83.0481 131.153C83.0484 131.153 83.0486 131.153 83.0489 131.154ZM78.5074 127.466C77.6329 126.647 76.6941 125.701 75.7471 124.636L74.2526 125.965C75.2446 127.081 76.2267 128.07 77.1402 128.926L78.5074 127.466ZM73.2736 121.564C72.5271 120.533 71.809 119.43 71.1489 118.258L69.4064 119.24C70.1073 120.484 70.8672 121.651 71.6538 122.737L73.2736 121.564ZM69.4492 114.736C68.9721 113.552 68.5669 112.316 68.2557 111.029L66.3118 111.5C66.6474 112.887 67.0833 114.216 67.5942 115.483L69.4492 114.736ZM67.6394 107.198C67.5882 106.561 67.5614 105.913 67.5614 105.255H65.5614C65.5614 105.967 65.5904 106.669 65.6459 107.358L67.6394 107.198Z" fill="#BFC9D1"/>
<path fill-rule="evenodd" clip-rule="evenodd" d="M312.488 230.613C312.436 229.832 312.401 229.055 312.382 228.286L314.382 228.237C314.4 228.979 314.433 229.727 314.484 230.48L312.488 230.613ZM312.464 223.632C312.558 222.049 312.718 220.503 312.934 219.002L314.913 219.288C314.705 220.734 314.551 222.225 314.46 223.751L312.464 223.632ZM313.793 214.426C314.158 212.86 314.582 211.36 315.053 209.938L316.951 210.567C316.5 211.93 316.092 213.372 315.741 214.88L313.793 214.426ZM316.746 205.58C317.437 204.053 318.18 202.661 318.953 201.427L320.648 202.489C319.927 203.639 319.226 204.951 318.569 206.404L316.746 205.58ZM321.896 197.645C322.531 197.012 323.181 196.48 323.838 196.07L323.856 196.058L325.722 195.001L326.708 196.741L324.88 197.777C324.381 198.091 323.853 198.518 323.307 199.062L321.896 197.645ZM329.417 192.908L333.111 190.814L334.097 192.554L330.402 194.648L329.417 192.908ZM336.806 188.721L340.5 186.627L341.486 188.368L337.792 190.461L336.806 188.721ZM344.195 184.534L347.889 182.441L348.875 184.181L345.181 186.274L344.195 184.534ZM351.584 180.347L355.278 178.254L356.264 179.994L352.57 182.087L351.584 180.347ZM358.973 176.161L362.667 174.067L363.653 175.807L359.959 177.901L358.973 176.161ZM366.362 171.974L370.056 169.88L371.042 171.621L367.348 173.714L366.362 171.974ZM373.751 167.787L377.445 165.694L378.431 167.434L374.737 169.527L373.751 167.787ZM381.14 163.6L384.834 161.507L385.82 163.247L382.126 165.34L381.14 163.6ZM388.529 159.414L392.223 157.32L393.209 159.06L389.515 161.154L388.529 159.414ZM395.918 155.227L399.612 153.133L400.598 154.874L396.904 156.967L395.918 155.227ZM403.307 151.04L407.002 148.947L407.988 150.687L404.293 152.78L403.307 151.04ZM412.513 145.824L410.696 146.853L411.682 148.593L413.555 147.532L413.581 147.516L413.036 146.677C413.581 147.516 413.58 147.516 413.581 147.516L413.582 147.515L413.584 147.513L413.592 147.508L413.617 147.492C413.639 147.477 413.67 147.457 413.709 147.43C413.789 147.376 413.904 147.297 414.05 147.194C414.343 146.987 414.763 146.683 415.277 146.284L414.052 144.703C413.563 145.082 413.168 145.369 412.898 145.559C412.763 145.655 412.659 145.726 412.59 145.772C412.556 145.795 412.531 145.812 412.515 145.823C412.514 145.823 412.514 145.823 412.513 145.824ZM417.055 142.136C417.929 141.317 418.868 140.371 419.815 139.306L421.31 140.635C420.318 141.751 419.336 142.74 418.422 143.596L417.055 142.136ZM422.289 136.234C423.035 135.203 423.753 134.1 424.413 132.928L426.156 133.91C425.455 135.154 424.695 136.321 423.908 137.407L422.289 136.234ZM426.113 129.406C426.59 128.222 426.995 126.986 427.307 125.7L429.25 126.17C428.915 127.557 428.479 128.886 427.968 130.153L426.113 129.406ZM427.923 121.868C427.974 121.231 428.001 120.583 428.001 119.925H430.001C430.001 120.637 429.972 121.339 429.916 122.029L427.923 121.868Z" fill="#BFC9D1"/>
<path fill-rule="evenodd" clip-rule="evenodd" d="M284.629 208.809L284.629 206.516L286.629 206.516L286.629 208.809L284.629 208.809ZM284.629 201.932L284.629 197.348L286.629 197.348L286.629 201.932L284.629 201.932ZM284.629 192.763L284.629 188.179L286.629 188.179L286.629 192.763L284.629 192.763ZM284.629 183.594L284.629 179.01L286.629 179.01L286.629 183.594L284.629 183.594ZM284.629 174.426L284.629 172.133L285.629 172.133C284.629 172.133 284.629 172.133 284.629 172.133L284.629 172.132L284.629 172.127L284.629 172.117L284.63 172.085C284.63 172.059 284.631 172.022 284.633 171.976C284.636 171.883 284.642 171.752 284.655 171.586C284.679 171.255 284.728 170.783 284.825 170.202L286.798 170.53C286.712 171.046 286.67 171.458 286.649 171.736C286.639 171.874 286.634 171.979 286.631 172.047C286.63 172.081 286.63 172.105 286.629 172.12L286.629 172.134L286.629 172.136L286.629 174.426L284.629 174.426ZM285.793 166.591C286.183 165.537 286.705 164.394 287.403 163.221L289.122 164.244C288.492 165.303 288.02 166.335 287.668 167.286L285.793 166.591ZM289.594 160.199C290.363 159.316 291.251 158.446 292.275 157.614L293.536 159.165C292.603 159.924 291.798 160.714 291.101 161.513L289.594 160.199ZM296.909 154.655C296.357 154.929 295.829 155.214 295.325 155.509L296.334 157.236C296.812 156.956 297.315 156.685 297.844 156.424L297.892 156.4L297.938 156.371C298.518 156.002 299.109 155.63 299.711 155.256L298.655 153.557C298.064 153.925 297.481 154.291 296.909 154.655ZM302.263 151.354C303.461 150.634 304.674 149.911 305.885 149.191L306.907 150.911C305.696 151.63 304.487 152.35 303.295 153.068L302.263 151.354ZM309.506 147.04C310.731 146.31 311.938 145.586 313.109 144.874L314.148 146.582C312.97 147.299 311.758 148.026 310.53 148.758L309.506 147.04ZM316.67 142.663C317.273 142.279 317.858 141.9 318.423 141.527C319.1 141.08 319.738 140.649 320.34 140.23L321.483 141.87C320.866 142.301 320.214 142.742 319.525 143.196C318.95 143.576 318.355 143.961 317.744 144.35L316.67 142.663ZM323.969 137.455C325.232 136.365 326.223 135.318 327.008 134.23L328.63 135.4C327.733 136.644 326.626 137.804 325.277 138.969L323.969 137.455ZM328.939 130.351C329.34 129.076 329.611 127.644 329.784 125.967L331.774 126.173C331.59 127.943 331.299 129.513 330.847 130.951L328.939 130.351ZM330.035 121.38C330.049 120.645 330.056 119.873 330.056 119.062L332.056 119.062C332.056 119.883 332.049 120.668 332.035 121.419L330.035 121.38Z" fill="#BFC9D1"/>
<path fill-rule="evenodd" clip-rule="evenodd" d="M238.115 208.809L238.115 206.516L236.115 206.516L236.115 208.809L238.115 208.809ZM238.115 201.932L238.115 197.348L236.115 197.348L236.115 201.932L238.115 201.932ZM238.115 192.763L238.115 188.179L236.115 188.179L236.115 192.763L238.115 192.763ZM238.115 183.594L238.115 179.01L236.115 179.01L236.115 183.594L238.115 183.594ZM238.115 174.426L238.115 172.133L237.115 172.133C238.115 172.133 238.115 172.133 238.115 172.133L238.115 172.132L238.115 172.127L238.115 172.117L238.114 172.085C238.114 172.059 238.113 172.022 238.111 171.976C238.108 171.883 238.102 171.752 238.089 171.586C238.064 171.255 238.015 170.783 237.919 170.202L235.946 170.53C236.032 171.046 236.074 171.458 236.095 171.736C236.105 171.874 236.11 171.979 236.113 172.047C236.114 172.081 236.114 172.105 236.115 172.12L236.115 172.134L236.115 172.136L236.115 174.426L238.115 174.426ZM236.951 166.591C236.561 165.537 236.039 164.394 235.341 163.221L233.622 164.244C234.252 165.303 234.723 166.335 235.076 167.286L236.951 166.591ZM233.15 160.199C232.381 159.316 231.493 158.446 230.469 157.614L229.207 159.165C230.141 159.924 230.946 160.714 231.643 161.513L233.15 160.199ZM225.835 154.655C226.387 154.929 226.915 155.214 227.419 155.509L226.41 157.236C225.932 156.956 225.429 156.685 224.9 156.424L224.852 156.4L224.806 156.371C224.226 156.002 223.635 155.63 223.033 155.256L224.088 153.557C224.68 153.925 225.263 154.291 225.835 154.655ZM220.481 151.354C219.283 150.634 218.07 149.911 216.859 149.191L215.837 150.911C217.048 151.63 218.257 152.35 219.449 153.068L220.481 151.354ZM213.238 147.04C212.013 146.31 210.806 145.586 209.635 144.874L208.596 146.582C209.774 147.299 210.986 148.026 212.214 148.758L213.238 147.04ZM206.074 142.663C205.471 142.279 204.885 141.9 204.321 141.527C203.643 141.08 203.006 140.649 202.404 140.23L201.261 141.87C201.878 142.301 202.53 142.742 203.219 143.196C203.794 143.576 204.389 143.961 205 144.35L206.074 142.663ZM198.774 137.455C197.512 136.365 196.52 135.318 195.736 134.23L194.114 135.4C195.011 136.644 196.118 137.804 197.467 138.969L198.774 137.455ZM193.805 130.351C193.404 129.076 193.133 127.644 192.96 125.967L190.97 126.173C191.154 127.943 191.445 129.513 191.897 130.951L193.805 130.351ZM192.709 121.38C192.695 120.645 192.688 119.873 192.688 119.062L190.688 119.062C190.688 119.883 190.695 120.668 190.709 121.419L192.709 121.38Z" fill="#BFC9D1"/>
<g clip-path="url(#clip9_1147_30698)">
<path d="M353.739 3.24577C350.109 1.15011 347.167 2.84898 347.167 7.04028V45.3739C347.167 49.5652 350.109 54.6618 353.739 56.7575L469.532 123.611C470.046 123.907 470.545 124.128 471.025 124.276C471.274 124.974 472.095 125.278 472.738 124.908C473.021 124.745 473.297 124.586 473.531 124.45C473.617 124.4 473.694 124.341 473.76 124.273C475.194 123.709 476.105 122.148 476.105 119.816V81.4825C476.105 77.2912 473.162 72.1946 469.532 70.099L353.739 3.24577Z" fill="#BFC9D1"/>
<g clip-path="url(#clip10_1147_30698)">
<g clip-path="url(#clip11_1147_30698)">
<rect width="148.884" height="53.5117" rx="7.76653" transform="matrix(0.866025 0.5 -2.20305e-08 1 344.612 1.13525)" fill="white"/>
<path d="M418.861 63.6172L418.861 61.2965L420.025 61.9685L421.442 65.1073L422.201 65.5456L420.734 62.3358C420.871 62.3901 420.98 62.4193 421.066 62.4276C421.623 62.4819 422.014 62.0895 422.014 61.3466C422.014 60.5953 421.623 59.7438 421.066 59.1552C420.886 58.9591 420.582 58.7337 420.141 58.4791L418.211 57.3646L418.211 63.2416L418.861 63.6172ZM418.861 58.3831L420.141 59.1219C420.524 59.3514 420.683 59.485 420.813 59.6269C421.153 59.99 421.377 60.4867 421.377 60.9793C421.377 61.4718 421.153 61.7097 420.813 61.6805C420.683 61.6721 420.524 61.6221 420.141 61.4092L418.861 60.6704L418.861 58.3831ZM424.467 66.9791C425.458 67.5509 425.935 67.0417 425.978 66.9833L425.559 66.3739C425.516 66.4073 425.19 66.7704 424.467 66.353C423.665 65.8897 423.202 64.913 423.202 64.2535L426.217 65.994L426.217 65.7185C426.217 64.4747 425.48 63.0973 424.424 62.4879C423.318 61.8493 422.552 62.4086 422.552 63.6441C422.552 64.8712 423.296 66.3029 424.467 66.9791ZM423.21 63.6483C423.21 63.2392 423.557 62.5964 424.431 63.1015C425.169 63.5272 425.581 64.4497 425.581 65.0173L423.21 63.6483ZM428.308 68.445L428.301 68.4408L427.194 64.2126L426.537 63.8327L427.917 68.8457L428.676 69.2839L430.057 65.8655L429.414 65.494L428.308 68.445ZM432.318 71.5117C433.309 72.0836 433.786 71.5744 433.829 71.5159L433.41 70.9065C433.367 70.9399 433.041 71.303 432.318 70.8857C431.516 70.4223 431.053 69.4456 431.053 68.7861L434.068 70.5267L434.068 70.2512C434.068 69.0074 433.33 67.63 432.275 67.0206C431.169 66.3819 430.402 66.9413 430.402 68.1768C430.402 69.4039 431.147 70.8356 432.318 71.5117ZM431.06 68.1809C431.06 67.7719 431.407 67.1291 432.282 67.6341C433.02 68.0599 433.432 68.9823 433.432 69.55L431.06 68.1809ZM435.436 73.1863L435.436 71.1828C435.436 70.5985 435.493 70.2812 435.667 70.0892C435.855 69.8889 436.18 69.9014 436.498 70.0851C436.773 70.2437 437.041 70.515 437.2 70.8739C437.373 71.2413 437.388 71.6169 437.388 71.9258L437.388 74.3133L438.002 74.6681L438.002 72.2472C438.002 71.5376 437.93 71.212 437.735 70.7905C437.489 70.2645 437.091 69.8012 436.592 69.5132C435.783 69.0457 435.465 69.5049 435.436 69.5633L435.428 69.5591L435.414 68.9581L434.821 68.6158L434.821 72.8315L435.436 73.1863ZM440.562 76.2714C441.3 76.6971 441.907 76.5218 442.102 75.8498C442.138 75.687 442.16 75.4491 442.16 75.2738L442.16 72.8529L441.538 72.494L441.538 74.9483C441.538 75.0818 441.509 75.2488 441.488 75.3364C441.386 75.8123 441.003 75.8832 440.562 75.6286C440.121 75.374 439.753 74.8606 439.63 74.2637C439.608 74.151 439.586 73.9549 439.586 73.8213L439.586 71.367L438.957 71.0039L438.957 73.4248C438.957 73.6001 438.979 73.863 439.022 74.0717C439.218 74.9691 439.818 75.8415 440.562 76.2714ZM444.815 78.7265C445.805 79.2983 446.282 78.7891 446.326 78.7307L445.906 78.1213C445.863 78.1547 445.538 78.5178 444.815 78.1004C444.012 77.6371 443.549 76.6604 443.549 76.0009L446.564 77.7415L446.564 77.466C446.564 76.2221 445.827 74.8447 444.771 74.2353C443.665 73.5967 442.899 74.156 442.899 75.3915C442.899 76.6187 443.643 78.0503 444.815 78.7265ZM443.557 75.3957C443.557 74.9866 443.904 74.3438 444.778 74.8489C445.516 75.2746 445.928 76.1971 445.928 76.7647L443.557 75.3957Z" fill="#1B127D"/>
<path d="M403.584 61.2239C404.081 61.5108 404.597 61.8826 405.13 62.3395C405.664 62.7963 406.133 63.3276 406.538 63.9332L405.213 65.0328C404.992 64.6822 404.739 64.3768 404.454 64.1165C404.169 63.8455 403.879 63.6144 403.584 63.4232L403.584 65.9572L404.909 67.1684C405.517 67.7315 406 68.361 406.359 69.0569C406.727 69.7475 406.911 70.4647 406.911 71.2084C406.911 71.7715 406.823 72.2151 406.648 72.5391C406.474 72.8632 406.234 73.0863 405.931 73.2085C405.627 73.3307 405.273 73.3599 404.868 73.2961C404.463 73.2324 404.035 73.0969 403.584 72.8897L403.584 74.0053L402.674 73.4794L402.674 72.3638C402.066 72.0132 401.459 71.567 400.852 71.0251C400.254 70.4886 399.725 69.8484 399.265 69.1047L400.727 68.0529C400.967 68.531 401.257 68.9427 401.597 69.288C401.937 69.6227 402.296 69.9148 402.674 70.1645L402.674 67.4712L401.666 66.5389C400.967 65.8801 400.433 65.2161 400.065 64.5468C399.706 63.8721 399.527 63.131 399.527 62.3235C399.527 61.8242 399.614 61.4231 399.789 61.1203C399.964 60.8175 400.194 60.605 400.479 60.4828C400.773 60.366 401.109 60.3261 401.487 60.3633C401.873 60.4058 402.269 60.5174 402.674 60.698L402.674 59.5824L403.584 60.1083L403.584 61.2239ZM402.674 62.9451C402.416 62.8601 402.186 62.8388 401.983 62.8813C401.781 62.9238 401.68 63.1151 401.68 63.4551C401.68 63.6994 401.721 63.9146 401.804 64.1005C401.887 64.2864 401.983 64.4538 402.094 64.6025C402.204 64.7407 402.315 64.8575 402.425 64.9531C402.536 65.0488 402.618 65.1231 402.674 65.1763L402.674 62.9451ZM403.584 70.6586C403.722 70.7064 403.861 70.7436 403.999 70.7701C404.146 70.7914 404.275 70.7861 404.385 70.7542C404.495 70.7223 404.583 70.6612 404.647 70.5709C404.721 70.4753 404.758 70.3372 404.758 70.1566C404.758 69.9866 404.73 69.8272 404.675 69.6785C404.629 69.535 404.564 69.4022 404.482 69.28C404.399 69.1472 404.302 69.0224 404.192 68.9055C404.081 68.778 403.966 68.6532 403.847 68.531L403.584 68.268L403.584 70.6586ZM411.628 77.5816C414.043 78.976 415.617 78.227 415.617 75.7568C415.617 73.5415 414.347 71.1829 412.373 70.0434C411.67 69.637 410.966 69.5175 410.662 69.7725L410.634 69.7565L410.814 67.868L415.079 70.3302L415.079 68.115L408.951 64.577L408.385 70.6888L410.345 72.0913C410.634 71.5415 411.173 71.4857 411.821 71.8602C412.691 72.3622 413.381 73.3981 413.381 74.5137C413.381 75.6771 412.649 76.0038 411.628 75.4141C410.897 74.9918 410.248 74.2985 409.627 73.0953L408.081 73.7487C408.619 75.0316 409.751 76.4978 411.628 77.5816ZM424.495 84.7711L424.495 82.5718L422.162 81.2251L422.162 72.2048L420.12 71.0255C419.333 71.4319 418.118 71.4797 417.111 71.2805L417.773 73.671C418.408 73.8304 419.319 73.8782 419.94 73.7268L419.954 73.7348L419.954 79.9502L417.539 78.5557L417.539 80.755L424.495 84.7711ZM432.752 89.5383L432.752 87.3868L434.091 88.1597L434.091 85.9763L432.752 85.2034L432.752 78.3186L429.605 76.5018L425.644 81.1953L425.644 83.283L430.571 86.1278L430.571 88.2792L432.752 89.5383ZM430.543 79.2589L430.571 79.2749L430.571 83.9444L427.963 82.4383L430.543 79.2589ZM435.64 93.8034C435.93 93.8114 437.738 93.3412 437.738 90.7594L437.738 90.2016L435.529 88.9267L435.529 89.3729C435.529 90.5522 435.24 91.5164 434.522 91.8511L435.64 93.8034ZM443.009 95.6991C445.617 97.2051 447.039 95.6513 447.039 92.177C447.039 88.7028 445.617 85.5074 443.009 84.0013C440.4 82.4953 438.978 84.0492 438.978 87.5234C438.978 90.9977 440.4 94.193 443.009 95.6991ZM443.009 93.5635C441.518 92.7029 441.214 90.2646 441.214 88.8143C441.214 87.364 441.518 85.2763 443.009 86.1369C444.499 86.9975 444.803 89.4359 444.803 90.8861C444.803 92.3364 444.499 94.4241 443.009 93.5635ZM452.066 100.928C454.675 102.434 456.096 100.881 456.096 97.4063C456.096 93.9321 454.675 90.7367 452.066 89.2307C449.457 87.7246 448.036 89.2785 448.036 92.7527C448.036 96.227 449.457 99.4223 452.066 100.928ZM452.066 98.7928C450.575 97.9322 450.272 95.4939 450.272 94.0436C450.272 92.5934 450.575 90.5056 452.066 91.3662C453.557 92.2268 453.86 94.6652 453.86 96.1154C453.86 97.5657 453.557 99.6534 452.066 98.7928ZM461.123 106.158C463.732 107.664 465.154 106.11 465.154 102.636C465.154 99.1614 463.732 95.966 461.123 94.46C458.515 92.9539 457.093 94.5078 457.093 97.982C457.093 101.456 458.515 104.652 461.123 106.158ZM461.123 104.022C459.633 103.162 459.329 100.723 459.329 99.2729C459.329 97.8227 459.633 95.7349 461.123 96.5955C462.614 97.4561 462.918 99.8945 462.918 101.345C462.918 102.795 462.614 104.883 461.123 104.022Z" fill="#1B127D"/>
</g>
<g opacity="0.9" clip-path="url(#clip12_1147_30698)">
<path d="M370.832 42.4695L360.004 34.0117L360.004 50.3146C360.004 51.0591 360.527 51.9645 361.172 52.3367L379.855 63.1237C380.5 63.496 381.023 63.1942 381.023 62.4496L381.023 56.4432L370.832 42.4695Z" fill="#185C37"/>
<path d="M370.832 28.4955L361.172 22.9182C360.527 22.5459 360.004 22.8477 360.004 23.5922L360.004 29.5987L370.832 43.2047L376.564 48.7206L381.023 49.0883L381.023 41.7338L370.832 28.4955Z" fill="#21A366"/>
<path d="M360.004 29.5986L370.832 35.85L370.832 43.2046L360.004 36.9532L360.004 29.5986Z" fill="#107C41"/>
<path opacity="0.1" d="M367.754 32.6021L360.004 28.1279L360.004 46.5144L367.754 50.9885C368.397 51.3579 368.919 51.0568 368.921 50.3145L368.921 34.6242C368.919 33.8795 368.397 32.9763 367.754 32.6021Z" fill="#1B127D"/>
<path opacity="0.2" d="M367.117 32.9697L360.004 28.8633L360.004 47.2497L367.117 51.3561C367.761 51.7255 368.282 51.4244 368.284 50.6821L368.284 34.9918C368.282 34.2471 367.761 33.3439 367.117 32.9697Z" fill="#1B127D"/>
<path opacity="0.2" d="M367.117 32.9697L360.004 28.8633L360.004 45.7788L367.117 49.8852C367.761 50.2546 368.282 49.9535 368.284 49.2112L368.284 34.9918C368.282 34.2471 367.761 33.3439 367.117 32.9697Z" fill="#1B127D"/>
<path opacity="0.2" d="M366.48 32.602L360.004 28.8633L360.004 45.7788L366.48 49.5175C367.124 49.8868 367.645 49.5858 367.647 48.8434L367.647 34.6241C367.645 33.8794 367.124 32.9762 366.48 32.602Z" fill="#1B127D"/>
<path d="M354.802 25.8601L366.48 32.602C367.124 32.9743 367.647 33.8796 367.647 34.6241L367.647 48.108C367.647 48.8525 367.124 49.1543 366.48 48.7821L354.802 42.0401C354.157 41.6679 353.635 40.7625 353.635 40.018L353.635 26.5341C353.635 25.7896 354.157 25.4878 354.802 25.8601Z" fill="url(#paint0_linear_1147_30698)"/>
<path d="M357.251 39.7454L359.707 36.769L357.457 31.0997L359.267 32.1448L360.495 35.6485C360.608 35.9795 360.686 36.2215 360.728 36.3759L360.744 36.3851C360.824 36.2199 360.909 36.0632 360.999 35.9151L362.311 33.904L363.973 34.8634L361.665 37.8755L364.032 43.6602L362.263 42.6394L360.845 38.7529C360.778 38.5838 360.722 38.414 360.676 38.2455L360.655 38.2333C360.613 38.3485 360.558 38.4499 360.49 38.5356L359.03 40.7725L357.251 39.7454Z" fill="white"/>
<path d="M379.855 33.7052L370.832 28.4956L370.832 35.8502L381.023 41.7338L381.023 35.7274C381.023 34.9828 380.5 34.0775 379.855 33.7052Z" fill="#33C481"/>
<path d="M370.832 43.2046L381.023 49.0882L381.023 56.4428L370.832 50.5592L370.832 43.2046Z" fill="#107C41"/>
</g>
</g>
</g>
<path d="M480.575 90.4124C478.26 90.9883 475.425 90.4766 472.362 88.7082C464.558 84.2025 458.231 73.2449 458.231 64.2336C458.231 60.5885 459.266 57.8201 461.016 56.114C460.944 56.0709 460.874 56.0319 460.804 55.9981L462.229 55.1693C464.797 53.6021 468.388 53.7809 472.362 56.0754C480.166 60.581 486.492 71.5387 486.492 80.55C486.492 85.1431 484.849 88.344 482.204 89.782L480.658 90.6793L480.575 90.4124Z" fill="#0E9C60"/>
<circle r="16.3164" transform="matrix(0.866025 0.5 -2.20305e-08 1 470.655 73.3828)" fill="#20CA8B"/>
<path fill-rule="evenodd" clip-rule="evenodd" d="M478.796 74.0542L468.488 80.0056L463.044 70.5757L465.264 69.2937L468.488 74.8779L476.576 70.2084L478.796 74.0542Z" fill="white"/>
<g clip-path="url(#clip13_1147_30698)">
<path d="M240.694 3.24577C237.064 1.15011 234.122 2.84898 234.122 7.04028V45.3739C234.122 49.5652 237.064 54.6618 240.694 56.7575L356.487 123.611C357.001 123.907 357.5 124.128 357.98 124.276C358.229 124.974 359.05 125.278 359.693 124.908C359.976 124.745 360.252 124.586 360.486 124.45C360.572 124.4 360.649 124.341 360.715 124.273C362.149 123.709 363.06 122.148 363.06 119.816V81.4825C363.06 77.2912 360.117 72.1946 356.487 70.099L240.694 3.24577Z" fill="#BFC9D1"/>
<g clip-path="url(#clip14_1147_30698)">
<g clip-path="url(#clip15_1147_30698)">
<rect width="148.884" height="53.5117" rx="7.76653" transform="matrix(0.866025 0.5 -2.20305e-08 1 231.567 1.13525)" fill="white"/>
<path d="M305.817 63.6172L305.817 61.2965L306.981 61.9685L308.397 65.1073L309.157 65.5456L307.689 62.3358C307.826 62.3901 307.935 62.4193 308.022 62.4276C308.578 62.4819 308.969 62.0895 308.969 61.3466C308.969 60.5953 308.578 59.7438 308.022 59.1552C307.841 58.9591 307.537 58.7337 307.096 58.4791L305.166 57.3646L305.166 63.2416L305.817 63.6172ZM305.817 58.3831L307.096 59.1219C307.479 59.3514 307.638 59.485 307.769 59.6269C308.108 59.99 308.332 60.4867 308.332 60.9793C308.332 61.4718 308.108 61.7097 307.769 61.6805C307.638 61.6721 307.479 61.6221 307.096 61.4092L305.817 60.6704L305.817 58.3831ZM311.423 66.9791C312.413 67.5509 312.89 67.0417 312.934 66.9833L312.514 66.3739C312.471 66.4073 312.146 66.7704 311.423 66.353C310.62 65.8897 310.157 64.913 310.157 64.2535L313.172 65.994L313.172 65.7185C313.172 64.4747 312.435 63.0973 311.379 62.4879C310.273 61.8493 309.507 62.4086 309.507 63.6441C309.507 64.8712 310.251 66.3029 311.423 66.9791ZM310.165 63.6483C310.165 63.2392 310.512 62.5964 311.386 63.1015C312.124 63.5272 312.536 64.4497 312.536 65.0173L310.165 63.6483ZM315.263 68.445L315.256 68.4408L314.15 64.2126L313.492 63.8327L314.872 68.8457L315.632 69.2839L317.012 65.8655L316.369 65.494L315.263 68.445ZM319.273 71.5117C320.264 72.0836 320.741 71.5744 320.784 71.5159L320.365 70.9065C320.322 70.9399 319.996 71.303 319.273 70.8857C318.471 70.4223 318.008 69.4456 318.008 68.7861L321.023 70.5267L321.023 70.2512C321.023 69.0074 320.286 67.63 319.23 67.0206C318.124 66.3819 317.358 66.9413 317.358 68.1768C317.358 69.4039 318.102 70.8356 319.273 71.5117ZM318.015 68.1809C318.015 67.7719 318.362 67.1291 319.237 67.6341C319.975 68.0599 320.387 68.9823 320.387 69.55L318.015 68.1809ZM322.391 73.1863L322.391 71.1828C322.391 70.5985 322.449 70.2812 322.622 70.0892C322.81 69.8889 323.135 69.9014 323.453 70.0851C323.728 70.2437 323.996 70.515 324.155 70.8739C324.328 71.2413 324.343 71.6169 324.343 71.9258L324.343 74.3133L324.957 74.6681L324.957 72.2472C324.957 71.5376 324.885 71.212 324.69 70.7905C324.444 70.2645 324.046 69.8012 323.547 69.5132C322.738 69.0457 322.42 69.5049 322.391 69.5633L322.383 69.5591L322.369 68.9581L321.776 68.6158L321.776 72.8315L322.391 73.1863ZM327.517 76.2714C328.255 76.6971 328.862 76.5218 329.057 75.8498C329.093 75.687 329.115 75.4491 329.115 75.2738L329.115 72.8529L328.493 72.494L328.493 74.9483C328.493 75.0818 328.464 75.2488 328.443 75.3364C328.342 75.8123 327.958 75.8832 327.517 75.6286C327.076 75.374 326.708 74.8606 326.585 74.2637C326.563 74.151 326.541 73.9549 326.541 73.8213L326.541 71.367L325.912 71.0039L325.912 73.4248C325.912 73.6001 325.934 73.863 325.977 74.0717C326.173 74.9691 326.773 75.8415 327.517 76.2714ZM331.77 78.7265C332.76 79.2983 333.237 78.7891 333.281 78.7307L332.861 78.1213C332.818 78.1547 332.493 78.5178 331.77 78.1004C330.967 77.6371 330.505 76.6604 330.505 76.0009L333.519 77.7415L333.519 77.466C333.519 76.2221 332.782 74.8447 331.726 74.2353C330.62 73.5967 329.854 74.156 329.854 75.3915C329.854 76.6187 330.599 78.0503 331.77 78.7265ZM330.512 75.3957C330.512 74.9866 330.859 74.3438 331.734 74.8489C332.471 75.2746 332.883 76.1971 332.883 76.7647L330.512 75.3957Z" fill="#1B127D"/>
<path d="M290.54 61.2239C291.036 61.5108 291.552 61.8826 292.085 62.3395C292.619 62.7963 293.088 63.3276 293.493 63.9332L292.168 65.0328C291.947 64.6822 291.694 64.3768 291.409 64.1165C291.124 63.8455 290.834 63.6144 290.54 63.4232L290.54 65.9572L291.865 67.1684C292.472 67.7315 292.955 68.361 293.314 69.0569C293.682 69.7475 293.866 70.4647 293.866 71.2084C293.866 71.7715 293.778 72.2151 293.604 72.5391C293.429 72.8632 293.189 73.0863 292.886 73.2085C292.582 73.3307 292.228 73.3599 291.823 73.2961C291.418 73.2324 290.99 73.0969 290.54 72.8897L290.54 74.0053L289.629 73.4794L289.629 72.3638C289.021 72.0132 288.414 71.567 287.807 71.0251C287.209 70.4886 286.68 69.8484 286.22 69.1047L287.683 68.0529C287.922 68.531 288.212 68.9427 288.552 69.288C288.893 69.6227 289.251 69.9148 289.629 70.1645L289.629 67.4712L288.621 66.5389C287.922 65.8801 287.388 65.2161 287.02 64.5468C286.661 63.8721 286.482 63.131 286.482 62.3235C286.482 61.8242 286.569 61.4231 286.744 61.1203C286.919 60.8175 287.149 60.605 287.434 60.4828C287.729 60.366 288.064 60.3261 288.442 60.3633C288.828 60.4058 289.224 60.5174 289.629 60.698L289.629 59.5824L290.54 60.1083L290.54 61.2239ZM289.629 62.9451C289.371 62.8601 289.141 62.8388 288.939 62.8813C288.736 62.9238 288.635 63.1151 288.635 63.4551C288.635 63.6994 288.676 63.9146 288.759 64.1005C288.842 64.2864 288.939 64.4538 289.049 64.6025C289.159 64.7407 289.27 64.8575 289.38 64.9531C289.491 65.0488 289.573 65.1231 289.629 65.1763L289.629 62.9451ZM290.54 70.6586C290.678 70.7064 290.816 70.7436 290.954 70.7701C291.101 70.7914 291.23 70.7861 291.34 70.7542C291.45 70.7223 291.538 70.6612 291.602 70.5709C291.676 70.4753 291.713 70.3372 291.713 70.1566C291.713 69.9866 291.685 69.8272 291.63 69.6785C291.584 69.535 291.519 69.4022 291.437 69.28C291.354 69.1472 291.257 69.0224 291.147 68.9055C291.036 68.778 290.921 68.6532 290.802 68.531L290.54 68.268L290.54 70.6586ZM298.583 77.5816C300.999 78.976 302.572 78.227 302.572 75.7568C302.572 73.5415 301.302 71.1829 299.328 70.0434C298.625 69.637 297.921 69.5175 297.617 69.7725L297.589 69.7565L297.769 67.868L302.034 70.3302L302.034 68.115L295.906 64.577L295.34 70.6888L297.3 72.0913C297.589 71.5415 298.128 71.4857 298.776 71.8602C299.646 72.3622 300.336 73.3981 300.336 74.5137C300.336 75.6771 299.605 76.0038 298.583 75.4141C297.852 74.9918 297.203 74.2985 296.582 73.0953L295.036 73.7487C295.574 75.0316 296.706 76.4978 298.583 77.5816ZM311.45 84.7711L311.45 82.5718L309.117 81.2251L309.117 72.2048L307.075 71.0255C306.288 71.4319 305.073 71.4797 304.066 71.2805L304.728 73.671C305.363 73.8304 306.274 73.8782 306.895 73.7268L306.909 73.7348L306.909 79.9502L304.494 78.5557L304.494 80.755L311.45 84.7711ZM319.707 89.5383L319.707 87.3868L321.046 88.1597L321.046 85.9763L319.707 85.2034L319.707 78.3186L316.56 76.5018L312.599 81.1953L312.599 83.283L317.526 86.1278L317.526 88.2792L319.707 89.5383ZM317.499 79.2589L317.526 79.2749L317.526 83.9444L314.918 82.4383L317.499 79.2589ZM322.595 93.8034C322.885 93.8114 324.693 93.3412 324.693 90.7594L324.693 90.2016L322.484 88.9267L322.484 89.3729C322.484 90.5522 322.195 91.5164 321.477 91.8511L322.595 93.8034ZM329.964 95.6991C332.572 97.2051 333.994 95.6513 333.994 92.177C333.994 88.7028 332.572 85.5074 329.964 84.0013C327.355 82.4953 325.934 84.0492 325.934 87.5234C325.934 90.9977 327.355 94.193 329.964 95.6991ZM329.964 93.5635C328.473 92.7029 328.169 90.2646 328.169 88.8143C328.169 87.364 328.473 85.2763 329.964 86.1369C331.454 86.9975 331.758 89.4359 331.758 90.8861C331.758 92.3364 331.454 94.4241 329.964 93.5635ZM339.021 100.928C341.63 102.434 343.051 100.881 343.051 97.4063C343.051 93.9321 341.63 90.7367 339.021 89.2307C336.413 87.7246 334.991 89.2785 334.991 92.7527C334.991 96.227 336.413 99.4223 339.021 100.928ZM339.021 98.7928C337.53 97.9322 337.227 95.4939 337.227 94.0436C337.227 92.5934 337.53 90.5056 339.021 91.3662C340.512 92.2268 340.815 94.6652 340.815 96.1154C340.815 97.5657 340.512 99.6534 339.021 98.7928ZM348.079 106.158C350.687 107.664 352.109 106.11 352.109 102.636C352.109 99.1614 350.687 95.966 348.079 94.46C345.47 92.9539 344.048 94.5078 344.048 97.982C344.048 101.456 345.47 104.652 348.079 106.158ZM348.079 104.022C346.588 103.162 346.284 100.723 346.284 99.2729C346.284 97.8227 346.588 95.7349 348.079 96.5955C349.569 97.4561 349.873 99.8945 349.873 101.345C349.873 102.795 349.569 104.883 348.079 104.022Z" fill="#1B127D"/>
</g>
<g clip-path="url(#clip16_1147_30698)">
<path d="M253.668 46.679L255.305 47.6238L255.305 42.4703L259.421 44.8466L259.421 43.0143L255.305 40.6379L255.305 35.4844L253.668 34.5396L253.668 39.6931L249.602 37.3454L249.602 39.1778L253.668 41.5255L253.668 46.679Z" fill="#E8762D"/>
<path d="M246.081 49.7424L247.47 50.5441L247.47 45.9632L251.139 48.0818L251.139 46.6503L247.47 44.5316L247.47 39.8935L246.081 39.0918L246.081 43.73L242.412 41.6113L242.412 43.0428L246.081 45.1615L246.081 49.7424Z" fill="#C72037"/>
<path d="M261.504 42.0982L262.892 42.8999L262.892 38.319L266.611 40.4663L266.611 39.092L262.892 36.9447L262.892 32.3066L261.504 31.5049L261.504 36.1431L257.834 34.0244L257.834 35.3987L261.504 37.5173L261.504 42.0982Z" fill="#5B879B"/>
<path d="M253.916 57.8737L255.107 58.5608L255.107 55.297L257.636 56.7571L257.636 55.5546L255.107 54.0945L255.107 50.8306L253.916 50.1434L253.916 53.4073L251.437 51.9758L251.437 53.1783L253.916 54.6098L253.916 57.8737Z" fill="#5C6692"/>
<path d="M246.131 33.2226L247.42 33.9669L247.42 29.3288L251.139 31.4761L251.139 30.1591L247.42 28.0118L247.42 23.3736L246.131 22.6292L246.131 27.2674L242.412 25.1201L242.412 26.4371L246.131 28.5844L246.131 33.2226Z" fill="#EB9129"/>
<path d="M265.719 51.4029L266.909 52.09L266.909 48.8834L269.438 50.3435L269.438 49.0838L266.909 47.6236L266.909 44.417L265.719 43.7299L265.719 46.9365L263.239 45.505L263.239 46.7647L265.719 48.1962L265.719 51.4029Z" fill="#5C6692"/>
<path fill-rule="evenodd" clip-rule="evenodd" d="M261.504 58.6467L262.892 59.4483L262.892 54.8675L266.611 57.0147L266.611 55.5832L262.892 53.4359L262.892 48.7978L261.504 47.9961L261.504 52.6343L257.834 50.5156L257.834 51.9471L261.504 54.0658L261.504 58.6467Z" fill="#1F457E"/>
<path d="M257.437 29.9589L257.437 28.9855L254.958 27.554L254.958 24.4046L254.065 23.8893L254.065 27.0386L251.586 25.6071L251.586 26.5805L254.065 28.0121L254.065 31.1614L254.958 31.6768L254.958 28.5274L257.437 29.9589ZM242.015 37.4888L242.907 38.0041L242.907 34.8548L245.387 36.2863L245.387 35.3129L242.907 33.8813L242.907 30.7892L242.015 30.2739L242.015 33.366L239.535 31.9345L239.535 32.9652L242.015 34.3394L242.015 37.4888Z" fill="#7199A6"/>
</g>
</g>
</g>
<path d="M367.528 90.4124C365.213 90.9883 362.378 90.4766 359.315 88.7082C351.511 84.2025 345.184 73.2449 345.184 64.2336C345.184 60.5885 346.22 57.8201 347.969 56.114C347.897 56.0709 347.827 56.0319 347.758 55.9981L349.182 55.1693C351.75 53.6021 355.341 53.7809 359.315 56.0754C367.119 60.581 373.445 71.5387 373.445 80.55C373.445 85.1431 371.802 88.344 369.157 89.782L367.611 90.6793L367.528 90.4124Z" fill="#0E9C60"/>
<circle r="16.3164" transform="matrix(0.866025 0.5 -2.20305e-08 1 357.608 73.3828)" fill="#20CA8B"/>
<path fill-rule="evenodd" clip-rule="evenodd" d="M365.75 74.0542L355.441 80.0056L349.997 70.5757L352.217 69.2937L355.441 74.8779L363.529 70.2084L365.75 74.0542Z" fill="white"/>
<g clip-path="url(#clip17_1147_30698)">
<path d="M125.061 3.24577C121.432 1.15011 118.489 2.84898 118.489 7.04028V45.3739C118.489 49.5652 121.432 54.6618 125.061 56.7575L240.855 123.611C241.368 123.907 241.867 124.128 242.347 124.276C242.596 124.974 243.417 125.278 244.06 124.908C244.343 124.745 244.619 124.586 244.854 124.45C244.94 124.4 245.016 124.341 245.083 124.273C246.516 123.709 247.427 122.148 247.427 119.816V81.4825C247.427 77.2912 244.484 72.1946 240.855 70.099L125.061 3.24577Z" fill="#BFC9D1"/>
<g clip-path="url(#clip18_1147_30698)">
<g clip-path="url(#clip19_1147_30698)">
<rect width="148.884" height="53.5117" rx="7.76653" transform="matrix(0.866025 0.5 -2.20305e-08 1 115.934 1.13525)" fill="white"/>
<path d="M190.184 63.6172L190.184 61.2965L191.348 61.9685L192.765 65.1073L193.524 65.5456L192.056 62.3358C192.194 62.3901 192.302 62.4193 192.389 62.4276C192.945 62.4819 193.336 62.0895 193.336 61.3466C193.336 60.5953 192.945 59.7438 192.389 59.1552C192.208 58.9591 191.904 58.7337 191.463 58.4791L189.533 57.3646L189.533 63.2416L190.184 63.6172ZM190.184 58.3831L191.463 59.1219C191.847 59.3514 192.006 59.485 192.136 59.6269C192.475 59.99 192.7 60.4867 192.7 60.9793C192.7 61.4718 192.475 61.7097 192.136 61.6805C192.006 61.6721 191.847 61.6221 191.463 61.4092L190.184 60.6704L190.184 58.3831ZM195.79 66.9791C196.78 67.5509 197.257 67.0417 197.301 66.9833L196.881 66.3739C196.838 66.4073 196.513 66.7704 195.79 66.353C194.987 65.8897 194.525 64.913 194.525 64.2535L197.539 65.994L197.539 65.7185C197.539 64.4747 196.802 63.0973 195.746 62.4879C194.64 61.8493 193.874 62.4086 193.874 63.6441C193.874 64.8712 194.619 66.3029 195.79 66.9791ZM194.532 63.6483C194.532 63.2392 194.879 62.5964 195.754 63.1015C196.491 63.5272 196.903 64.4497 196.903 65.0173L194.532 63.6483ZM199.63 68.445L199.623 68.4408L198.517 64.2126L197.859 63.8327L199.24 68.8457L199.999 69.2839L201.38 65.8655L200.736 65.494L199.63 68.445ZM203.641 71.5117C204.631 72.0836 205.108 71.5744 205.152 71.5159L204.732 70.9065C204.689 70.9399 204.364 71.303 203.641 70.8857C202.838 70.4223 202.375 69.4456 202.375 68.7861L205.39 70.5267L205.39 70.2512C205.39 69.0074 204.653 67.63 203.597 67.0206C202.491 66.3819 201.725 66.9413 201.725 68.1768C201.725 69.4039 202.469 70.8356 203.641 71.5117ZM202.383 68.1809C202.383 67.7719 202.73 67.1291 203.604 67.6341C204.342 68.0599 204.754 68.9823 204.754 69.55L202.383 68.1809ZM206.758 73.1863L206.758 71.1828C206.758 70.5985 206.816 70.2812 206.989 70.0892C207.177 69.8889 207.503 69.9014 207.821 70.0851C208.095 70.2437 208.363 70.515 208.522 70.8739C208.695 71.2413 208.71 71.6169 208.71 71.9258L208.71 74.3133L209.324 74.6681L209.324 72.2472C209.324 71.5376 209.252 71.212 209.057 70.7905C208.811 70.2645 208.413 69.8012 207.915 69.5132C207.105 69.0457 206.787 69.5049 206.758 69.5633L206.751 69.5591L206.736 68.9581L206.143 68.6158L206.143 72.8315L206.758 73.1863ZM211.885 76.2714C212.622 76.6971 213.229 76.5218 213.424 75.8498C213.461 75.687 213.482 75.4491 213.482 75.2738L213.482 72.8529L212.861 72.494L212.861 74.9483C212.861 75.0818 212.832 75.2488 212.81 75.3364C212.709 75.8123 212.326 75.8832 211.885 75.6286C211.444 75.374 211.075 74.8606 210.952 74.2637C210.93 74.151 210.909 73.9549 210.909 73.8213L210.909 71.367L210.28 71.0039L210.28 73.4248C210.28 73.6001 210.301 73.863 210.345 74.0717C210.54 74.9691 211.14 75.8415 211.885 76.2714ZM216.137 78.7265C217.127 79.2983 217.605 78.7891 217.648 78.7307L217.229 78.1213C217.185 78.1547 216.86 78.5178 216.137 78.1004C215.334 77.6371 214.872 76.6604 214.872 76.0009L217.886 77.7415L217.886 77.466C217.886 76.2221 217.149 74.8447 216.094 74.2353C214.987 73.5967 214.221 74.156 214.221 75.3915C214.221 76.6187 214.966 78.0503 216.137 78.7265ZM214.879 75.3957C214.879 74.9866 215.226 74.3438 216.101 74.8489C216.838 75.2746 217.25 76.1971 217.25 76.7647L214.879 75.3957Z" fill="#1B127D"/>
<path d="M174.907 61.2239C175.404 61.5108 175.919 61.8826 176.453 62.3395C176.986 62.7963 177.455 63.3276 177.86 63.9332L176.535 65.0328C176.315 64.6822 176.061 64.3768 175.776 64.1165C175.491 63.8455 175.201 63.6144 174.907 63.4232L174.907 65.9572L176.232 67.1684C176.839 67.7315 177.322 68.361 177.681 69.0569C178.049 69.7475 178.233 70.4647 178.233 71.2084C178.233 71.7715 178.146 72.2151 177.971 72.5391C177.796 72.8632 177.557 73.0863 177.253 73.2085C176.949 73.3307 176.595 73.3599 176.19 73.2961C175.785 73.2324 175.358 73.0969 174.907 72.8897L174.907 74.0053L173.996 73.4794L173.996 72.3638C173.389 72.0132 172.781 71.567 172.174 71.0251C171.576 70.4886 171.047 69.8484 170.587 69.1047L172.05 68.0529C172.289 68.531 172.579 68.9427 172.919 69.288C173.26 69.6227 173.619 69.9148 173.996 70.1645L173.996 67.4712L172.988 66.5389C172.289 65.8801 171.755 65.2161 171.387 64.5468C171.028 63.8721 170.849 63.131 170.849 62.3235C170.849 61.8242 170.936 61.4231 171.111 61.1203C171.286 60.8175 171.516 60.605 171.801 60.4828C172.096 60.366 172.432 60.3261 172.809 60.3633C173.195 60.4058 173.591 60.5174 173.996 60.698L173.996 59.5824L174.907 60.1083L174.907 61.2239ZM173.996 62.9451C173.738 62.8601 173.508 62.8388 173.306 62.8813C173.103 62.9238 173.002 63.1151 173.002 63.4551C173.002 63.6994 173.043 63.9146 173.126 64.1005C173.209 64.2864 173.306 64.4538 173.416 64.6025C173.527 64.7407 173.637 64.8575 173.747 64.9531C173.858 65.0488 173.941 65.1231 173.996 65.1763L173.996 62.9451ZM174.907 70.6586C175.045 70.7064 175.183 70.7436 175.321 70.7701C175.468 70.7914 175.597 70.7861 175.707 70.7542C175.818 70.7223 175.905 70.6612 175.969 70.5709C176.043 70.4753 176.08 70.3372 176.08 70.1566C176.08 69.9866 176.052 69.8272 175.997 69.6785C175.951 69.535 175.887 69.4022 175.804 69.28C175.721 69.1472 175.624 69.0224 175.514 68.9055C175.404 68.778 175.289 68.6532 175.169 68.531L174.907 68.268L174.907 70.6586ZM182.95 77.5816C185.366 78.976 186.939 78.227 186.939 75.7568C186.939 73.5415 185.669 71.1829 183.696 70.0434C182.992 69.637 182.288 69.5175 181.984 69.7725L181.957 69.7565L182.136 67.868L186.401 70.3302L186.401 68.115L180.273 64.577L179.707 70.6888L181.667 72.0913C181.957 71.5415 182.495 71.4857 183.144 71.8602C184.013 72.3622 184.703 73.3981 184.703 74.5137C184.703 75.6771 183.972 76.0038 182.95 75.4141C182.219 74.9918 181.57 74.2985 180.949 73.0953L179.403 73.7487C179.942 75.0316 181.073 76.4978 182.95 77.5816ZM195.817 84.7711L195.817 82.5718L193.485 81.2251L193.485 72.2048L191.442 71.0255C190.655 71.4319 189.441 71.4797 188.433 71.2805L189.096 73.671C189.731 73.8304 190.641 73.8782 191.263 73.7268L191.276 73.7348L191.276 79.9502L188.861 78.5557L188.861 80.755L195.817 84.7711ZM204.074 89.5383L204.074 87.3868L205.413 88.1597L205.413 85.9763L204.074 85.2034L204.074 78.3186L200.927 76.5018L196.966 81.1953L196.966 83.283L201.893 86.1278L201.893 88.2792L204.074 89.5383ZM201.866 79.2589L201.893 79.2749L201.893 83.9444L199.285 82.4383L201.866 79.2589ZM206.962 93.8034C207.252 93.8114 209.06 93.3412 209.06 90.7594L209.06 90.2016L206.852 88.9267L206.852 89.3729C206.852 90.5522 206.562 91.5164 205.844 91.8511L206.962 93.8034ZM214.331 95.6991C216.939 97.2051 218.361 95.6513 218.361 92.177C218.361 88.7028 216.939 85.5074 214.331 84.0013C211.722 82.4953 210.301 84.0492 210.301 87.5234C210.301 90.9977 211.722 94.193 214.331 95.6991ZM214.331 93.5635C212.84 92.7029 212.537 90.2646 212.537 88.8143C212.537 87.364 212.84 85.2763 214.331 86.1369C215.821 86.9975 216.125 89.4359 216.125 90.8861C216.125 92.3364 215.821 94.4241 214.331 93.5635ZM223.388 100.928C225.997 102.434 227.418 100.881 227.418 97.4063C227.418 93.9321 225.997 90.7367 223.388 89.2307C220.78 87.7246 219.358 89.2785 219.358 92.7527C219.358 96.227 220.78 99.4223 223.388 100.928ZM223.388 98.7928C221.898 97.9322 221.594 95.4939 221.594 94.0436C221.594 92.5934 221.898 90.5056 223.388 91.3662C224.879 92.2268 225.183 94.6652 225.183 96.1154C225.183 97.5657 224.879 99.6534 223.388 98.7928ZM232.446 106.158C235.054 107.664 236.476 106.11 236.476 102.636C236.476 99.1614 235.054 95.966 232.446 94.46C229.837 92.9539 228.416 94.5078 228.416 97.982C228.416 101.456 229.837 104.652 232.446 106.158ZM232.446 104.022C230.955 103.162 230.651 100.723 230.651 99.2729C230.651 97.8227 230.955 95.7349 232.446 96.5955C233.936 97.4561 234.24 99.8945 234.24 101.345C234.24 102.795 233.936 104.883 232.446 104.022Z" fill="#1B127D"/>
</g>
<g clip-path="url(#clip20_1147_30698)">
<path d="M147.622 31.3836L140.868 27.4845C140.288 27.1492 139.817 27.421 139.817 28.0915L139.817 55.0816C139.817 55.7522 140.288 56.5675 140.868 56.9028L147.622 60.8019C148.202 61.1371 148.673 60.8653 148.673 60.1948L148.673 33.2047C148.673 32.5342 148.202 31.7188 147.622 31.3836Z" fill="url(#paint1_linear_1147_30698)"/>
<path d="M143.456 57.1829L143.456 58.397L142.405 57.79L135.652 53.8909C135.071 53.5556 134.6 52.7403 134.6 52.0698L134.6 32.4109C134.6 31.7403 135.071 31.4686 135.652 31.8038L142.405 35.7029C142.986 36.0382 143.456 36.8535 143.456 37.524L143.456 57.1829Z" fill="url(#paint2_linear_1147_30698)"/>
<path fill-rule="evenodd" clip-rule="evenodd" d="M138.32 54.2181L138.32 55.4322L137.269 54.8251L130.516 50.9261C129.935 50.5908 129.464 49.7754 129.464 49.1049L129.464 36.824C129.464 36.1534 129.935 35.8816 130.516 36.2169L137.269 40.116C137.85 40.4513 138.32 41.2666 138.32 41.9371L138.32 54.2181Z" fill="url(#paint3_linear_1147_30698)"/>
</g>
</g>
</g>
<path d="M251.895 90.4124C249.58 90.9883 246.745 90.4766 243.682 88.7082C235.878 84.2025 229.552 73.2449 229.552 64.2336C229.552 60.5885 230.587 57.8201 232.336 56.114C232.265 56.0709 232.194 56.0319 232.125 55.9981L233.55 55.1693C236.117 53.6021 239.708 53.7809 243.682 56.0754C251.486 60.581 257.812 71.5387 257.812 80.55C257.812 85.1431 256.169 88.344 253.524 89.782L251.978 90.6793L251.895 90.4124Z" fill="#0E9C60"/>
<circle r="16.3164" transform="matrix(0.866025 0.5 -2.20305e-08 1 241.975 73.3828)" fill="#20CA8B"/>
<path fill-rule="evenodd" clip-rule="evenodd" d="M250.117 74.0552L239.809 80.0066L234.364 70.5767L236.584 69.2947L239.809 74.8789L247.896 70.2093L250.117 74.0552Z" fill="white"/>
<g clip-path="url(#clip21_1147_30698)">
<path d="M10.288 3.24577C6.65821 1.15011 3.7157 2.84898 3.7157 7.04028V45.3739C3.7157 49.5652 6.65821 54.6618 10.288 56.7575L126.081 123.611C126.594 123.907 127.094 124.128 127.573 124.276C127.822 124.974 128.644 125.278 129.287 124.908C129.569 124.745 129.846 124.586 130.08 124.45C130.166 124.4 130.243 124.341 130.309 124.273C131.743 123.709 132.653 122.148 132.653 119.816V81.4825C132.653 77.2912 129.711 72.1946 126.081 70.099L10.288 3.24577Z" fill="#BFC9D1"/>
<g clip-path="url(#clip22_1147_30698)">
<g clip-path="url(#clip23_1147_30698)">
<rect width="148.884" height="53.5117" rx="7" transform="matrix(0.866025 0.5 -2.20305e-08 1 1.15906 1.13525)" fill="white"/>
<path d="M75.4083 63.6172L75.4083 61.2965L76.5723 61.9685L77.9893 65.1073L78.7484 65.5456L77.2808 62.3358C77.4181 62.3901 77.5266 62.4193 77.6133 62.4276C78.17 62.4819 78.5604 62.0895 78.5604 61.3466C78.5604 60.5953 78.17 59.7438 77.6133 59.1552C77.4326 58.9591 77.1289 58.7337 76.6879 58.4791L74.7577 57.3646L74.7577 63.2416L75.4083 63.6172ZM75.4083 58.3831L76.6879 59.1219C77.0711 59.3514 77.2302 59.485 77.3603 59.6269C77.7001 59.99 77.9242 60.4867 77.9242 60.9793C77.9242 61.4718 77.7001 61.7097 77.3603 61.6805C77.2302 61.6721 77.0711 61.6221 76.6879 61.4092L75.4083 60.6704L75.4083 58.3831ZM81.0144 66.9791C82.0048 67.5509 82.482 67.0417 82.5253 66.9833L82.106 66.3739C82.0626 66.4073 81.7373 66.7704 81.0144 66.353C80.2119 65.8897 79.7492 64.913 79.7492 64.2535L82.7639 65.994L82.7639 65.7185C82.7639 64.4747 82.0265 63.0973 80.971 62.4879C79.8649 61.8493 79.0985 62.4086 79.0985 63.6441C79.0985 64.8712 79.8432 66.3029 81.0144 66.9791ZM79.7564 63.6483C79.7564 63.2392 80.1034 62.5964 80.9782 63.1015C81.7156 63.5272 82.1277 64.4497 82.1277 65.0173L79.7564 63.6483ZM84.8546 68.445L84.8474 68.4408L83.7413 64.2126L83.0834 63.8327L84.4643 68.8457L85.2233 69.2839L86.6042 65.8655L85.9608 65.494L84.8546 68.445ZM88.8652 71.5117C89.8556 72.0836 90.3328 71.5744 90.3761 71.5159L89.9568 70.9065C89.9134 70.9399 89.5881 71.303 88.8652 70.8857C88.0627 70.4223 87.6 69.4456 87.6 68.7861L90.6147 70.5267L90.6147 70.2512C90.6147 69.0074 89.8773 67.63 88.8218 67.0206C87.7157 66.3819 86.9493 66.9413 86.9493 68.1768C86.9493 69.4039 87.694 70.8356 88.8652 71.5117ZM87.6072 68.1809C87.6072 67.7719 87.9542 67.1291 88.829 67.6341C89.5664 68.0599 89.9785 68.9823 89.9785 69.55L87.6072 68.1809ZM91.9825 73.1863L91.9825 71.1828C91.9825 70.5985 92.0403 70.2812 92.2138 70.0892C92.4018 69.8889 92.7271 69.9014 93.0452 70.0851C93.32 70.2437 93.5874 70.515 93.7465 70.8739C93.92 71.2413 93.9345 71.6169 93.9345 71.9258L93.9345 74.3133L94.549 74.6681L94.549 72.2472C94.549 71.5376 94.4767 71.212 94.2815 70.7905C94.0357 70.2645 93.6381 69.8012 93.1392 69.5132C92.3295 69.0457 92.0114 69.5049 91.9825 69.5633L91.9753 69.5591L91.9608 68.9581L91.368 68.6158L91.368 72.8315L91.9825 73.1863ZM97.1091 76.2714C97.8465 76.6971 98.4538 76.5218 98.649 75.8498C98.6852 75.687 98.7068 75.4491 98.7068 75.2738L98.7068 72.8529L98.0851 72.494L98.0851 74.9483C98.0851 75.0818 98.0562 75.2488 98.0345 75.3364C97.9333 75.8123 97.5501 75.8832 97.1091 75.6286C96.6681 75.374 96.2994 74.8606 96.1765 74.2637C96.1548 74.151 96.1331 73.9549 96.1331 73.8213L96.1331 71.367L95.5042 71.0039L95.5042 73.4248C95.5042 73.6001 95.5259 73.863 95.5692 74.0717C95.7644 74.9691 96.3645 75.8415 97.1091 76.2714ZM101.361 78.7265C102.352 79.2983 102.829 78.7891 102.872 78.7307L102.453 78.1213C102.41 78.1547 102.084 78.5178 101.361 78.1004C100.559 77.6371 100.096 76.6604 100.096 76.0009L103.111 77.7415L103.111 77.466C103.111 76.2221 102.374 74.8447 101.318 74.2353C100.212 73.5967 99.4457 74.156 99.4457 75.3915C99.4457 76.6187 100.19 78.0503 101.361 78.7265ZM100.104 75.3957C100.104 74.9866 100.451 74.3438 101.325 74.8489C102.063 75.2746 102.475 76.1971 102.475 76.7647L100.104 75.3957Z" fill="#1B127D"/>
<path d="M60.1314 61.2239C60.6282 61.5108 61.1435 61.8826 61.6772 62.3395C62.2108 62.7963 62.6801 63.3276 63.085 63.9332L61.76 65.0328C61.5392 64.6822 61.2861 64.3768 61.0009 64.1165C60.7156 63.8455 60.4258 63.6144 60.1314 63.4232L60.1314 65.9572L61.4563 67.1684C62.0636 67.7315 62.5467 68.361 62.9055 69.0569C63.2736 69.7475 63.4576 70.4647 63.4576 71.2084C63.4576 71.7715 63.3702 72.2151 63.1954 72.5391C63.0206 72.8632 62.7813 73.0863 62.4777 73.2085C62.174 73.3307 61.8198 73.3599 61.4149 73.2961C61.0101 73.2324 60.5822 73.0969 60.1314 72.8897L60.1314 74.0053L59.2205 73.4794L59.2205 72.3638C58.6132 72.0132 58.0059 71.567 57.3986 71.0251C56.8005 70.4886 56.2715 69.8484 55.8114 69.1047L57.2744 68.0529C57.5136 68.531 57.8035 68.9427 58.1439 69.288C58.4844 69.6227 58.8432 69.9148 59.2205 70.1645L59.2205 67.4712L58.2129 66.5389C57.5136 65.8801 56.98 65.2161 56.6119 64.5468C56.2531 63.8721 56.0736 63.131 56.0736 62.3235C56.0736 61.8242 56.1611 61.4231 56.3359 61.1203C56.5107 60.8175 56.7407 60.605 57.026 60.4828C57.3204 60.366 57.6562 60.3261 58.0335 60.3633C58.4199 60.4058 58.8156 60.5174 59.2205 60.698L59.2205 59.5824L60.1314 60.1083L60.1314 61.2239ZM59.2205 62.9451C58.9628 62.8601 58.7328 62.8388 58.5304 62.8813C58.3279 62.9238 58.2267 63.1151 58.2267 63.4551C58.2267 63.6994 58.2681 63.9146 58.3509 64.1005C58.4338 64.2864 58.5304 64.4538 58.6408 64.6025C58.7512 64.7407 58.8616 64.8575 58.972 64.9531C59.0824 65.0488 59.1652 65.1231 59.2205 65.1763L59.2205 62.9451ZM60.1314 70.6586C60.2694 70.7064 60.4074 70.7436 60.5454 70.7701C60.6926 70.7914 60.8215 70.7861 60.9319 70.7542C61.0423 70.7223 61.1297 70.6612 61.1941 70.5709C61.2677 70.4753 61.3045 70.3372 61.3045 70.1566C61.3045 69.9866 61.2769 69.8272 61.2217 69.6785C61.1757 69.535 61.1113 69.4022 61.0285 69.28C60.9457 69.1472 60.8491 69.0224 60.7387 68.9055C60.6282 68.778 60.5132 68.6532 60.3936 68.531L60.1314 68.268L60.1314 70.6586ZM68.175 77.5816C70.5903 78.976 72.1637 78.227 72.1637 75.7568C72.1637 73.5415 70.894 71.1829 68.9203 70.0434C68.2164 69.637 67.5125 69.5175 67.2089 69.7725L67.1813 69.7565L67.3607 67.868L71.6255 70.3302L71.6255 68.115L65.4975 64.577L64.9316 70.6888L66.8915 72.0913C67.1813 71.5415 67.7196 71.4857 68.3682 71.8602C69.2378 72.3622 69.9279 73.3981 69.9279 74.5137C69.9279 75.6771 69.1964 76.0038 68.175 75.4141C67.4435 74.9918 66.7948 74.2985 66.1738 73.0953L64.628 73.7487C65.1662 75.0316 66.298 76.4978 68.175 77.5816ZM81.0418 84.7711L81.0418 82.5718L78.7093 81.2251L78.7093 72.2048L76.6666 71.0255C75.8799 71.4319 74.6653 71.4797 73.6578 71.2805L74.3203 73.671C74.9552 73.8304 75.8661 73.8782 76.4872 73.7268L76.501 73.7348L76.501 79.9502L74.0856 78.5557L74.0856 80.755L81.0418 84.7711ZM89.2987 89.5383L89.2987 87.3868L90.6375 88.1597L90.6375 85.9763L89.2987 85.2034L89.2987 78.3186L86.1519 76.5018L82.1908 81.1953L82.1908 83.283L87.118 86.1278L87.118 88.2792L89.2987 89.5383ZM87.0904 79.2589L87.118 79.2749L87.118 83.9444L84.5095 82.4383L87.0904 79.2589ZM92.1867 93.8034C92.4765 93.8114 94.2846 93.3412 94.2846 90.7594L94.2846 90.2016L92.0763 88.9267L92.0763 89.3729C92.0763 90.5522 91.7865 91.5164 91.0688 91.8511L92.1867 93.8034ZM99.5555 95.6991C102.164 97.2051 103.586 95.6513 103.586 92.177C103.586 88.7028 102.164 85.5074 99.5555 84.0013C96.9469 82.4953 95.5253 84.0492 95.5253 87.5234C95.5253 90.9977 96.9469 94.193 99.5555 95.6991ZM99.5555 93.5635C98.0649 92.7029 97.7612 90.2646 97.7612 88.8143C97.7612 87.364 98.0649 85.2763 99.5555 86.1369C101.046 86.9975 101.35 89.4359 101.35 90.8861C101.35 92.3364 101.046 94.4241 99.5555 93.5635ZM108.613 100.928C111.221 102.434 112.643 100.881 112.643 97.4063C112.643 93.9321 111.221 90.7367 108.613 89.2307C106.004 87.7246 104.583 89.2785 104.583 92.7527C104.583 96.227 106.004 99.4223 108.613 100.928ZM108.613 98.7928C107.122 97.9322 106.819 95.4939 106.819 94.0436C106.819 92.5934 107.122 90.5056 108.613 91.3662C110.104 92.2268 110.407 94.6652 110.407 96.1154C110.407 97.5657 110.104 99.6534 108.613 98.7928ZM117.67 106.158C120.279 107.664 121.7 106.11 121.7 102.636C121.7 99.1614 120.279 95.966 117.67 94.46C115.062 92.9539 113.64 94.5078 113.64 97.982C113.64 101.456 115.062 104.652 117.67 106.158ZM117.67 104.022C116.18 103.162 115.876 100.723 115.876 99.2729C115.876 97.8227 116.18 95.7349 117.67 96.5955C119.161 97.4561 119.465 99.8945 119.465 101.345C119.465 102.795 119.161 104.883 117.67 104.022Z" fill="#1B127D"/>
</g>
<path d="M38.0784 52.7555C37.8557 48.9048 36.0024 44.8803 33.3075 42.1696L33.048 35.5415C32.3589 34.6374 31.6304 33.7981 30.8745 33.0399L31.4329 47.2993C31.5435 50.1241 30.5114 50.7611 28.7735 49.7576C27.0815 48.7808 25.6056 46.4151 25.5041 43.8255C25.391 40.9352 27.181 40.2434 29.6154 41.6489C29.8407 41.7741 30.0708 41.9209 30.298 42.0938L30.1992 39.5704C29.9719 39.3932 29.7454 39.2395 29.516 39.1119C25.9031 37.0259 23.177 38.075 23.3538 42.5894C23.5237 46.93 26.1695 50.7211 29.0165 52.3649C30.3659 53.1439 31.5109 53.2618 32.2788 52.7711C33.0462 52.2802 33.6733 51.2938 33.5784 48.8695L33.4237 44.9195C34.9286 46.6583 35.8996 49.3259 36.0003 51.7953C36.1746 56.4371 32.7696 58.3089 28.5967 55.8997C28.4995 55.8436 28.4254 55.8008 28.328 55.7397C25.4655 54.0828 22.9003 51.3774 20.7654 47.7293C19.2292 45.1032 18.1373 42.2594 17.6365 39.5638C17.1354 36.8633 17.2416 34.431 17.9477 32.5654C18.6503 30.7026 19.9178 29.4925 21.5898 29.0913C23.2618 28.6901 25.2631 29.1184 27.3396 30.3172L27.2382 27.7283C25.5774 26.7695 23.948 26.2153 22.4456 26.098C20.9432 25.9807 19.5916 26.3043 18.4726 27.0435C16.2123 28.5406 15.0307 31.6634 15.1896 35.7217C15.3485 39.7794 16.8309 44.4409 19.3118 48.6801C21.7927 52.9193 25.0721 56.391 28.4248 58.3267L28.6933 58.4816C29.7241 59.0768 30.7433 59.4765 31.7166 59.6748C31.7207 59.6772 31.7241 59.6743 31.7281 59.6767C33.1342 59.964 34.4054 59.805 35.4542 59.2146C37.2652 58.1895 38.1981 55.9908 38.0891 53.0151C38.0923 53.0073 38.0786 52.7605 38.0784 52.7555Z" fill="#ED26B7"/>
</g>
</g>
<path d="M137.122 90.4124C134.807 90.9883 131.972 90.4766 128.909 88.7082C121.105 84.2025 114.778 73.2449 114.778 64.2336C114.778 60.5885 115.813 57.8201 117.563 56.114C117.491 56.0709 117.42 56.0319 117.351 55.9981L118.776 55.1693C121.343 53.6021 124.934 53.7809 128.909 56.0754C136.713 60.581 143.039 71.5387 143.039 80.55C143.039 85.1431 141.395 88.344 138.75 89.782L137.205 90.6793L137.122 90.4124Z" fill="#0E9C60"/>
<circle r="16.3164" transform="matrix(0.866025 0.5 -2.20305e-08 1 127.202 73.3828)" fill="#20CA8B"/>
<path fill-rule="evenodd" clip-rule="evenodd" d="M135.343 74.0552L125.035 80.0066L119.591 70.5767L121.811 69.2947L125.035 74.8789L133.123 70.2093L135.343 74.0552Z" fill="white"/>
<defs>
<linearGradient id="paint0_linear_1147_30698" x1="356.069" y1="25.5381" x2="358.23" y2="49.728" gradientUnits="userSpaceOnUse">
<stop stop-color="#18884F"/>
<stop offset="0.5" stop-color="#117E43"/>
<stop offset="1" stop-color="#0B6631"/>
</linearGradient>
<linearGradient id="paint1_linear_1147_30698" x1="144.245" y1="29.434" x2="131.506" y2="51.4977" gradientUnits="userSpaceOnUse">
<stop stop-color="#EBBB14"/>
<stop offset="1" stop-color="#B25400"/>
</linearGradient>
<linearGradient id="paint2_linear_1147_30698" x1="139.028" y1="33.7534" x2="129.464" y2="50.3187" gradientUnits="userSpaceOnUse">
<stop stop-color="#F9E583"/>
<stop offset="1" stop-color="#DE9800"/>
</linearGradient>
<linearGradient id="paint3_linear_1147_30698" x1="133.892" y1="38.1665" x2="127.523" y2="49.1983" gradientUnits="userSpaceOnUse">
<stop stop-color="#F9E68B"/>
<stop offset="1" stop-color="#F3CD32"/>
</linearGradient>
<clipPath id="clip0_1147_30698">
<rect width="136.907" height="136.907" fill="white" transform="matrix(0.84313 -0.53771 0.84313 0.53771 29.1122 422.223)"/>
</clipPath>
<clipPath id="clip1_1147_30698">
<rect width="56.8035" height="56.8035" fill="white" transform="matrix(0.866025 -0.5 0.866025 0.5 95.5985 414.251)"/>
</clipPath>
<clipPath id="clip2_1147_30698">
<rect width="136.907" height="136.907" fill="white" transform="matrix(0.84313 -0.53771 0.84313 0.53771 13.0594 521.748)"/>
</clipPath>
<clipPath id="clip3_1147_30698">
<rect width="55.2277" height="55.2277" fill="white" transform="matrix(0.826838 -0.56244 0.826838 0.56244 81.2391 514.905)"/>
</clipPath>
<clipPath id="clip4_1147_30698">
<rect width="136.907" height="136.907" fill="white" transform="matrix(0.84313 -0.53771 0.84313 0.53771 145.837 607.245)"/>
</clipPath>
<clipPath id="clip5_1147_30698">
<rect width="55.2277" height="55.2277" fill="white" transform="matrix(0.826838 -0.56244 0.826838 0.56244 215.96 598.839)"/>
</clipPath>
<clipPath id="clip6_1147_30698">
<rect width="69.2198" height="69.2198" fill="white" transform="matrix(0.84313 -0.53771 0.84313 0.53771 204.13 480.816)"/>
</clipPath>
<clipPath id="clip7_1147_30698">
<rect width="69.2198" height="69.2198" fill="white" transform="matrix(0.84313 -0.53771 0.84313 0.53771 316.831 416.047)"/>
</clipPath>
<clipPath id="clip8_1147_30698">
<rect width="51.2162" height="51.2162" fill="white" transform="matrix(0.84313 -0.53771 0.84313 0.53771 330.468 416.047)"/>
</clipPath>
<clipPath id="clip9_1147_30698">
<rect width="132.049" height="128.255" fill="white" transform="translate(344.431 0.838379)"/>
</clipPath>
<clipPath id="clip10_1147_30698">
<rect width="148.885" height="53.5117" transform="matrix(0.866025 0.5 -2.20305e-08 1 344.565 0.952637)" fill="white"/>
</clipPath>
<clipPath id="clip11_1147_30698">
<path d="M344.612 8.72427C344.612 4.53297 347.555 2.83412 351.184 4.92977L466.978 71.783C470.607 73.8786 473.55 78.9752 473.55 83.1665L473.55 121.5C473.55 125.691 470.607 127.39 466.978 125.295L351.184 58.4415C347.555 56.3458 344.612 51.2492 344.612 47.0579L344.612 8.72427Z" fill="white"/>
</clipPath>
<clipPath id="clip12_1147_30698">
<rect width="36.4273" height="36.4273" fill="white" transform="matrix(0.866025 0.5 -2.20305e-08 1 351.542 13.854)"/>
</clipPath>
<clipPath id="clip13_1147_30698">
<rect width="132.049" height="128.255" fill="white" transform="translate(231.384 0.838379)"/>
</clipPath>
<clipPath id="clip14_1147_30698">
<rect width="148.885" height="53.5117" transform="matrix(0.866025 0.5 -2.20305e-08 1 231.52 0.952637)" fill="white"/>
</clipPath>
<clipPath id="clip15_1147_30698">
<path d="M231.567 8.72427C231.567 4.53297 234.51 2.83412 238.14 4.92977L353.933 71.783C357.562 73.8786 360.505 78.9752 360.505 83.1665L360.505 121.5C360.505 125.691 357.562 127.39 353.933 125.295L238.14 58.4415C234.51 56.3458 231.567 51.2492 231.567 47.0579L231.567 8.72427Z" fill="white"/>
</clipPath>
<clipPath id="clip16_1147_30698">
<rect width="36.4273" height="36.4273" fill="white" transform="matrix(0.866025 0.5 -2.20305e-08 1 238.724 13.853)"/>
</clipPath>
<clipPath id="clip17_1147_30698">
<rect width="132.049" height="128.255" fill="white" transform="translate(115.751 0.838379)"/>
</clipPath>
<clipPath id="clip18_1147_30698">
<rect width="148.885" height="53.5117" transform="matrix(0.866025 0.5 -2.20305e-08 1 115.888 0.952637)" fill="white"/>
</clipPath>
<clipPath id="clip19_1147_30698">
<path d="M115.934 8.72427C115.934 4.53297 118.877 2.83412 122.507 4.92977L238.3 71.783C241.93 73.8786 244.872 78.9752 244.872 83.1665L244.872 121.5C244.872 125.691 241.93 127.39 238.3 125.295L122.507 58.4415C118.877 56.3458 115.934 51.2492 115.934 47.0579L115.934 8.72427Z" fill="white"/>
</clipPath>
<clipPath id="clip20_1147_30698">
<rect width="36.4273" height="36.4273" fill="white" transform="matrix(0.866025 0.5 -2.20305e-08 1 123.327 13.853)"/>
</clipPath>
<clipPath id="clip21_1147_30698">
<rect width="132.049" height="128.255" fill="white" transform="translate(0.977417 0.838379)"/>
</clipPath>
<clipPath id="clip22_1147_30698">
<rect width="148.885" height="53.5117" transform="matrix(0.866025 0.5 -2.20305e-08 1 1.11218 0.952637)" fill="white"/>
</clipPath>
<clipPath id="clip23_1147_30698">
<path d="M1.15906 8.72427C1.15906 4.53297 4.10157 2.83412 7.73135 4.92977L123.525 71.783C127.154 73.8786 130.097 78.9752 130.097 83.1665L130.097 121.5C130.097 125.691 127.154 127.39 123.525 125.295L7.73135 58.4415C4.10157 56.3458 1.15906 51.2492 1.15906 47.0579L1.15906 8.72427Z" fill="white"/>
</clipPath>
</defs>
</svg>
