<svg width="762" height="488" viewBox="0 0 762 488" fill="none" xmlns="http://www.w3.org/2000/svg"><path stroke="#1B127D" stroke-width=".840314" stroke-dasharray="6.8 4.86" d="M547.277 310.672H443.078M317.031 310.672H212.832"/><path d="m487.195 318.729 8.921-7.995-8.921-7.995M263.629 318.729l-8.92-7.995 8.92-7.995" stroke="#1B127D" stroke-width=".840314" stroke-linecap="round" stroke-linejoin="round"/><path d="M128.351 379.673h2.476v1.826c-.526.437-1.333.751-2.241.751-1.893 0-3.148-1.356-3.148-3.249 0-1.872 1.266-3.205 3.048-3.205.986 0 1.871.415 2.42 1.065l.694-.594c-.28-.37-1.355-1.356-3.103-1.356-2.342 0-4.112 1.759-4.112 4.101 0 2.319 1.681 4.123 4.179 4.123 1.479 0 2.588-.639 3.193-1.255v-3.048h-3.406v.841Zm7.744 3.462c1.759 0 3.014-1.345 3.014-2.992 0-1.658-1.255-3.002-3.014-3.002-1.748 0-3.002 1.344-3.002 3.002 0 1.647 1.254 2.992 3.002 2.992Zm0-.84c-1.199 0-2.039-.964-2.039-2.152 0-1.187.84-2.162 2.039-2.162 1.199 0 2.051.975 2.051 2.162 0 1.188-.852 2.152-2.051 2.152Zm7.112.84c1.759 0 3.014-1.345 3.014-2.992 0-1.658-1.255-3.002-3.014-3.002-1.748 0-3.002 1.344-3.002 3.002 0 1.647 1.254 2.992 3.002 2.992Zm0-.84c-1.198 0-2.039-.964-2.039-2.152 0-1.187.841-2.162 2.039-2.162 1.199 0 2.051.975 2.051 2.162 0 1.188-.852 2.152-2.051 2.152Zm6.978.84c.885 0 1.681-.381 2.151-.986h.011l.034.818h.919v-8.291h-.953v3.451h-.011c-.47-.605-1.266-.986-2.151-.986-1.669 0-2.868 1.344-2.868 3.002 0 1.647 1.199 2.992 2.868 2.992Zm.134-.84c-1.198 0-2.039-.964-2.039-2.152 0-1.187.841-2.162 2.039-2.162 1.244 0 2.04.975 2.04 2.162 0 1.188-.796 2.152-2.04 2.152Zm10.501-6.129c-.852-.852-1.961-1.087-3.216-1.087h-2.386v7.888h2.386c1.445 0 2.487-.359 3.261-1.132.739-.739 1.131-1.781 1.131-2.79 0-1.109-.47-2.173-1.176-2.879Zm-.785 5.131c-.627.628-1.422.785-2.431.785h-1.378v-6.118h1.378c.952 0 1.815.168 2.465.818.583.583.885 1.423.885 2.23 0 .84-.336 1.703-.919 2.285Zm5.143 1.838c1.165 0 1.703-.616 1.916-.952h.011l.023.784h.918v-3.429c0-.806-.168-1.232-.437-1.579-.459-.594-1.198-.818-1.893-.818-1.445 0-2.185.862-2.364 1.154l.616.537c.437-.56 1.008-.873 1.748-.873.829 0 1.4.515 1.4 1.4v.078c-1.983.068-2.901.157-3.473.729-.291.291-.47.672-.47 1.199 0 1.21.952 1.77 2.005 1.77Zm.09-.807c-.583 0-1.132-.269-1.132-.952 0-1.065 1.165-1.109 2.98-1.177v.09c0 1.266-.661 2.039-1.848 2.039Zm7.726-.258c-.09.056-.381.225-.807.225-.863 0-1.087-.628-1.087-1.435v-2.733h1.883v-.818H171.1v-1.849h-.952v1.849h-1.143v.818h1.143v2.89c0 1.222.672 2.118 1.972 2.118.583 0 1.02-.202 1.244-.381l-.37-.684Zm3.049 1.065c1.165 0 1.703-.616 1.916-.952h.011l.023.784h.918v-3.429c0-.806-.168-1.232-.437-1.579-.459-.594-1.198-.818-1.893-.818-1.445 0-2.185.862-2.364 1.154l.616.537c.437-.56 1.008-.873 1.748-.873.829 0 1.4.515 1.4 1.4v.078c-1.983.068-2.901.157-3.473.729-.291.291-.47.672-.47 1.199 0 1.21.952 1.77 2.005 1.77Zm.09-.807c-.583 0-1.132-.269-1.132-.952 0-1.065 1.165-1.109 2.98-1.177v.09c0 1.266-.661 2.039-1.848 2.039Z" fill="#1C0D3F"/><g filter="url(#filter0_dddddd_949_10486)"><circle cx="152.523" cy="313.58" r="38.2891" fill="#ED26B7"/><path d="M173.164 320.015c-.149-6.342-3.65-11.376-8.995-13.344v-11.038c-1.35-.863-2.786-1.576-4.285-2.125v23.747c0 4.705-2.183 6.805-5.69 6.805-3.414 0-6.27-2.579-6.27-6.891 0-4.814 3.752-7.753 8.664-7.753.455-.009.918.015 1.374.086V305.3c-.456-.078-.911-.118-1.374-.109-7.291 0-13.004 4.469-13.004 11.987 0 7.229 5.156 11.086 10.901 11.086 2.723 0 5.078-.926 6.703-2.517 1.624-1.592 2.999-3.889 2.999-7.927v-6.578c2.966 1.482 4.755 5.072 4.764 9.181-.016 7.738-7.197 14.277-15.618 14.277-.196 0-.346 0-.542-.009-5.776-.007-10.854-2.093-14.967-6.209-2.959-2.963-4.984-6.735-5.8-10.835-.816-4.108-.4-8.357 1.208-12.231 1.602-3.865 4.317-7.173 7.801-9.502 3.485-2.328 7.582-3.567 11.772-3.567v-4.312c-3.351 0-6.67.659-9.763 1.937-3.092 1.278-5.909 3.159-8.279 5.519-4.788 4.775-7.48 11.258-7.48 18.017 0 6.757 2.684 13.242 7.463 18.024 4.78 4.783 11.27 7.472 18.036 7.472h.541c2.081 0 4.153-.322 6.146-.941.008 0 .016-.008.024-.008 2.88-.894 5.517-2.415 7.73-4.453 3.822-3.528 5.926-8.192 5.942-13.155.007-.017-.001-.424-.001-.432Z" fill="#fff"/></g><g filter="url(#filter1_dddddd_949_10486)"><circle cx="380.617" cy="313.103" r="38.3743" fill="#fff"/></g><path d="M380.402 284.925c-14.743 0-13.822 6.394-13.822 6.394l.016 6.624h14.069v1.988h-19.657s-9.434-1.07-9.434 13.807c0 14.876 8.234 14.348 8.234 14.348h4.914v-6.903s-.264-8.234 8.103-8.234h13.955s7.839.126 7.839-7.577v-12.738s1.191-7.709-14.217-7.709Zm-7.757 4.454c1.399 0 2.531 1.132 2.531 2.532 0 1.399-1.132 2.531-2.531 2.531-1.4 0-2.532-1.132-2.532-2.531 0-1.4 1.132-2.532 2.532-2.532Z" fill="url(#paint0_linear_949_10486)"/><path d="M380.827 342.696c14.744 0 13.823-6.394 13.823-6.394l-.017-6.623h-14.069v-1.989h19.658s9.434 1.07 9.434-13.806c0-14.877-8.234-14.349-8.234-14.349h-4.915v6.903s.265 8.235-8.103 8.235H374.45s-7.84-.127-7.84 7.577v12.737s-1.19 7.709 14.217 7.709Zm7.758-4.454c-1.4 0-2.531-1.132-2.531-2.531 0-1.4 1.131-2.532 2.531-2.532 1.4 0 2.531 1.132 2.531 2.532 0 1.399-1.131 2.531-2.531 2.531Z" fill="url(#paint1_linear_949_10486)"/><path d="M577.697 382.967v-3.238l2.902-4.65h-1.109l-2.263 3.753h-.012l-2.296-3.753h-1.143l2.913 4.65v3.238h1.008Zm5.361.168c1.759 0 3.014-1.345 3.014-2.992 0-1.658-1.255-3.002-3.014-3.002-1.748 0-3.002 1.344-3.002 3.002 0 1.647 1.254 2.992 3.002 2.992Zm0-.84c-1.199 0-2.039-.964-2.039-2.152 0-1.187.84-2.162 2.039-2.162 1.199 0 2.051.975 2.051 2.162 0 1.188-.852 2.152-2.051 2.152Zm6.823.84c.728 0 1.31-.235 1.77-.695.504-.504.694-1.154.694-1.983v-3.148h-.952v3.182c0 .571-.101 1.042-.448 1.389-.258.258-.616.415-1.064.415-.449 0-.818-.157-1.076-.415-.347-.347-.448-.818-.448-1.389v-3.182h-.953v3.148c0 .829.191 1.479.695 1.983.459.46 1.053.695 1.782.695Zm5.119-.168v-2.454c0-.717.034-1.4.526-1.882.415-.404.975-.504 1.479-.493v-.975c-.795 0-1.579.403-1.983 1.087h-.011l-.034-.941h-.929v5.658H595Zm10.889-4.09c.661-.302 1.019-.974 1.019-1.68 0-.538-.213-1.042-.56-1.423-.628-.684-1.535-.695-2.084-.695h-2.992v7.888h3.048c.594 0 1.557 0 2.218-.684.37-.381.617-.941.617-1.523 0-.807-.493-1.569-1.266-1.86v-.023Zm-.348-2.532c.224.213.359.538.359.885 0 .348-.124.673-.359.908-.381.381-.986.392-1.367.392h-1.893v-2.588h1.938c.314 0 .908 0 1.322.403Zm.202 5.333c-.392.392-1.02.404-1.345.404h-2.117v-2.712h2.073c.324 0 .986 0 1.4.415.247.246.37.582.37.941 0 .381-.146.717-.381.952Zm4.593 1.457c1.165 0 1.703-.616 1.916-.952h.011l.022.784h.919v-3.429c0-.806-.168-1.232-.437-1.579-.459-.594-1.199-.818-1.893-.818-1.446 0-2.185.862-2.365 1.154l.617.537c.437-.56 1.008-.873 1.748-.873.829 0 1.4.515 1.4 1.4v.078c-1.983.068-2.902.157-3.473.729-.292.291-.471.672-.471 1.199 0 1.21.953 1.77 2.006 1.77Zm.089-.807c-.582 0-1.131-.269-1.131-.952 0-1.065 1.165-1.109 2.98-1.177v.09c0 1.266-.661 2.039-1.849 2.039Zm7.11.807c1.58 0 2.308-1.042 2.375-1.154l-.627-.527c-.291.336-.739.841-1.748.841-1.21 0-2.039-.975-2.039-2.163 0-1.188.852-2.151 2.039-2.151.941 0 1.401.482 1.714.874l.673-.549c-.09-.157-.807-1.165-2.387-1.165-1.748 0-3.003 1.344-3.003 3.002 0 1.647 1.255 2.992 3.003 2.992Zm4.611-.168v-2.902h.011l2.79 2.902h1.21l-2.935-3.003 2.879-2.655h-1.232l-2.712 2.565h-.011v-5.198h-.952v8.291h.952Zm9.884-2.88c0-1.669-1.143-2.946-2.779-2.946-1.714 0-2.902 1.344-2.902 3.002 0 1.647 1.154 2.992 2.97 2.992 1.534 0 2.263-1.031 2.33-1.143l-.616-.527c-.056.079-.594.83-1.714.83-1.311 0-1.95-.975-1.961-1.849h4.672v-.359Zm-2.768-2.128c1.211 0 1.737.974 1.782 1.68h-3.675c.078-.638.538-1.68 1.893-1.68Zm5.073 5.008v-3.059c0-1.154.683-1.927 1.647-1.927.739 0 1.378.437 1.378 1.636v3.35h.952v-3.563c0-1.457-.907-2.263-2.151-2.263-1.288 0-1.781.862-1.826.963h-.011l-.023-.795h-.918v5.658h.952Zm8.177.168c.885 0 1.68-.381 2.151-.986h.011l.034.818h.918v-8.291h-.952v3.451h-.011c-.471-.605-1.266-.986-2.151-.986-1.67 0-2.869 1.344-2.869 3.002 0 1.647 1.199 2.992 2.869 2.992Zm.134-.84c-1.199 0-2.039-.964-2.039-2.152 0-1.187.84-2.162 2.039-2.162 1.244 0 2.039.975 2.039 2.162 0 1.188-.795 2.152-2.039 2.152Z" fill="#1C0D3F"/><g filter="url(#filter2_dddddd_949_10486)"><circle cx="609.742" cy="313.103" r="38.3743" fill="#fff"/></g><path fill-rule="evenodd" clip-rule="evenodd" d="M588.031 317.654c0 .442.083.898.262 1.339l-.003-.007 1.874 4.694-.003-.003c.553 1.39 1.875 2.232 3.269 2.232.436 0 .886-.083 1.314-.258l.744-.307c.635.765 1.319 1.468 2.052 2.116l-.31.747v-.004c-.191.451-.285.925-.285 1.394 0 1.384.805 2.706 2.148 3.288l4.598 1.977c.443.19.91.282 1.366.282 1.372 0 2.676-.813 3.251-2.169l.003-.003.315-.754c.09.008.181.016.272.024.451.04.902.08 1.357.08.334 0 .668-.024 1.002-.048.097-.007.194-.014.29-.02l.302.75c.554 1.388 1.876 2.231 3.27 2.231.437 0 .882-.084 1.31-.259l4.635-1.897c1.37-.56 2.202-1.897 2.202-3.307 0-.446-.083-.9-.259-1.334l-.295-.754c.749-.643 1.445-1.336 2.084-2.078l.737.319c.446.19.912.283 1.368.283 1.374 0 2.681-.816 3.255-2.173l1.953-4.659v-.003c.188-.451.275-.922.275-1.381 0-1.392-.803-2.714-2.148-3.291h.007l-.74-.319.018-.216c.041-.472.082-.944.082-1.42 0-.34-.025-.682-.049-1.023-.008-.102-.015-.203-.022-.305l.743-.303c1.369-.565 2.197-1.902 2.194-3.309 0-.448-.08-.899-.25-1.33l-.003-.004-1.871-4.693c-.555-1.39-1.877-2.23-3.269-2.23-.44 0-.888.083-1.319.26l.005-.001-.744.301c-.633-.759-1.316-1.463-2.048-2.109l.314-.747v-.003c.189-.45.278-.923.278-1.383 0-1.389-.805-2.712-2.147-3.293l-4.598-1.978c-.446-.193-.912-.283-1.372-.283-1.369 0-2.674.811-3.247 2.176l.002-.005-.318.753c-.076-.007-.151-.014-.226-.02-.463-.042-.926-.084-1.395-.084-.33 0-.663.024-.995.048l-.306.021-.299-.749c-.555-1.39-1.877-2.231-3.27-2.228-.44-.003-.889.083-1.316.261l.005-.003-4.638 1.894c-1.371.563-2.202 1.903-2.202 3.315 0 .441.081.895.257 1.333l.301.749c-.753.644-1.449 1.336-2.088 2.076l-.737-.317c-.446-.19-.913-.281-1.37-.281-1.369-.002-2.68.81-3.248 2.174l.002-.004-1.955 4.66c-.188.449-.28.922-.28 1.386 0 1.387.802 2.711 2.147 3.293l.741.317-.024.273c-.04.455-.08.91-.08 1.369 0 .327.024.656.048.984.008.111.016.222.023.333l-.738.302c-1.374.564-2.208 1.903-2.208 3.315Zm2.972-1.391 1.418-.578c.424-.172.683-.615.634-1.074-.068-.628-.099-1.259-.099-1.889 0-.732.045-1.463.134-2.18.058-.461-.195-.904-.616-1.084l-1.407-.603c-.56-.239-.898-.799-.898-1.383 0-.192.036-.386.116-.579l1.956-4.66.001-.003c.229-.56.78-.905 1.36-.905.193 0 .382.038.572.118l1.404.603c.42.182.905.058 1.194-.301.845-1.053 1.797-2.012 2.873-2.857.36-.285.492-.779.32-1.206l-.572-1.434c-.074-.184-.107-.367-.107-.553 0-.595.351-1.162.923-1.392l4.635-1.894.004-.003c.175-.072.358-.109.542-.109.585 0 1.147.359 1.375.935l.575 1.435c.172.428.601.691 1.054.64.625-.066 1.25-.102 1.868-.102.723 0 1.443.048 2.152.138.455.058.89-.195 1.07-.622l.6-1.423v-.006c.233-.562.785-.905 1.362-.905.192 0 .383.038.571.116l4.6 1.979c.554.238.899.802.899 1.385 0 .196-.037.387-.116.578l-.596 1.419c-.179.427-.057.926.302 1.214 1.036.844 1.983 1.815 2.816 2.905.281.365.767.497 1.19.325l1.416-.578.005-.003c.176-.072.358-.106.546-.106.585 0 1.149.359 1.373.931l1.868 4.695v-.007c.074.191.109.381.109.565 0 .592-.351 1.159-.92 1.388l-1.417.58c-.422.176-.683.613-.634 1.073.067.635.102 1.27.102 1.901 0 .729-.043 1.453-.135 2.169-.057.46.193.902.615 1.082l1.401.607.004.003c.555.233.898.799.898 1.382 0 .195-.038.39-.115.577l.001-.002-1.951 4.658c-.237.563-.791.908-1.372.908-.191 0-.381-.037-.567-.115l-1.408-.606c-.421-.181-.913-.055-1.2.308-.827 1.046-1.789 2.005-2.862 2.853-.364.285-.494.774-.323 1.205l.568 1.433c.075.187.109.377.109.561-.002.591-.349 1.155-.92 1.384l-4.635 1.897c-.183.074-.366.109-.546.109-.585 0-1.148-.359-1.376-.937l-.574-1.434c-.171-.428-.601-.689-1.057-.641-.622.069-1.241.101-1.859.101-.725 0-1.447-.045-2.162-.138-.454-.058-.891.198-1.07.624l-.597 1.425.004-.003c-.24.569-.797.914-1.372.914-.19 0-.378-.037-.565-.118l-4.598-1.977c-.564-.24-.9-.797-.901-1.38 0-.193.037-.385.119-.578v-.006l.594-1.424c.175-.426.055-.923-.301-1.213-1.041-.842-1.987-1.811-2.82-2.903-.28-.366-.767-.5-1.192-.325l-1.419.58c-.184.075-.364.108-.546.11-.587-.003-1.147-.36-1.371-.933v-.002l-1.874-4.697-.003-.005c-.069-.178-.105-.362-.105-.548.002-.591.354-1.157.926-1.389Zm19.197 5.968c5.246 0 9.499-4.308 9.499-9.621 0-5.316-4.253-9.621-9.499-9.621s-9.501 4.306-9.501 9.621c0 5.314 4.255 9.621 9.501 9.621Zm0-17.171c4.109 0 7.453 3.387 7.453 7.55 0 4.161-3.344 7.55-7.453 7.55-4.112 0-7.454-3.389-7.454-7.55 0-4.163 3.342-7.55 7.454-7.55Z" fill="#1C0D3F"/><g filter="url(#filter3_dddddd_949_10486)"><rect x="61" y="17" width="640" height="216" rx="8" fill="#fff"/><path d="m108.102 62.9766.234-1.1485h-1.641l.625-3.1015h-1.117l-.625 3.1015h-2.305l.618-3.1015h-1.118l-.617 3.1015h-1.64l-.227 1.1485h1.641l-.516 2.6484h-1.6406l-.2422 1.1641h1.6408L100.531 70h1.117l.633-3.2109h2.313L103.953 70h1.117l.641-3.2109h1.641l.226-1.1641h-1.64l.523-2.6484h1.641Zm-5.079-.0235h2.344l-.531 2.7031H102.5l.523-2.7031Zm20.961 5.9766c-1.828 0-2.781-1.2266-2.781-3.5625v-2.0078c0-2.336.953-3.5625 2.774-3.5625 1.445 0 2.453 1.0234 2.5 2.5469h1.398c-.047-2.4063-1.516-3.8516-3.891-3.8516-2.648 0-4.187 1.789-4.187 4.8672v2.0078c0 3.0781 1.539 4.8672 4.187 4.8672 2.305 0 3.883-1.4766 3.883-3.6563h-1.39c-.039 1.4531-.993 2.3516-2.493 2.3516Zm9.297-2.7266c0-2.1562 1.11-3.4531 2.985-3.4531.461 0 1.007.0938 1.398.2344v-1.4922c-.281-.1172-.742-.1875-1.226-.1875-1.633 0-2.688.8125-3 2.3828h-.172v-2.1641h-3.164v1.0625h1.882v6.3516h-1.711V70h5.633v-1.0625h-2.625v-2.7344Zm12.516 1.6094c-.235.7422-1.024 1.1953-2.094 1.1953-1.445 0-2.367-1-2.367-2.5547v-.3437h5.773v-.8282c0-2.4531-1.297-3.914-3.5-3.914-2.156 0-3.586 1.4687-3.586 3.7031v1.2735c0 2.414 1.352 3.8124 3.68 3.8124 1.781 0 3.125-.9453 3.383-2.3437h-1.289Zm-2.195-5.3047c1.367 0 2.195.9766 2.195 2.5938h-4.461c0-1.625.852-2.5938 2.266-2.5938Zm8.937 7.6406c1.234 0 2.156-.5078 2.563-1.414h.132v1.2734h1.266v-5.8047c0-1.7656-1.141-2.7812-3.133-2.7812-1.734 0-3.047.9297-3.203 2.289h1.305c.219-.7265.906-1.1406 1.883-1.1406 1.179 0 1.828.5859 1.828 1.6485v.7656l-2.328.1172c-1.93.1015-3.008.9922-3.008 2.4922 0 1.539 1.078 2.5546 2.695 2.5546Zm.383-1.164c-1.07 0-1.734-.5469-1.734-1.4375 0-.8828.624-1.3907 1.812-1.4453L155.18 66v1c0 1.1328-.977 1.9844-2.258 1.9844Zm8.922-9.7344v2.2969h-2.258v1.1328h2.258v4.7969c0 1.7656.976 2.5625 3.078 2.5625.406 0 1.437-.0391 1.648-.0782v-1.125c-.226.0235-1.078.0469-1.554.0469-1.196 0-1.844-.5-1.844-1.4219v-4.7812h3.422v-1.1328h-3.438V59.25h-1.312Zm13.625 8.5625c-.235.7422-1.024 1.1953-2.094 1.1953-1.445 0-2.367-1-2.367-2.5547v-.3437h5.773v-.8282c0-2.4531-1.297-3.914-3.5-3.914-2.156 0-3.586 1.4687-3.586 3.7031v1.2735c0 2.414 1.352 3.8124 3.68 3.8124 1.781 0 3.125-.9453 3.383-2.3437h-1.289Zm-2.196-5.3047c1.368 0 2.196.9766 2.196 2.5938h-4.461c0-1.625.851-2.5938 2.265-2.5938Zm16.289-3.7812V70h1.383v-4.0469h2.336c2.203 0 3.649-1.4297 3.649-3.6093 0-2.1876-1.43-3.6172-3.618-3.6172h-3.75Zm1.383 1.2265h2.024c1.64 0 2.562.8516 2.562 2.3907 0 1.5312-.922 2.3828-2.562 2.3828h-2.024v-4.7735Zm11.047 10.1953c1.235 0 2.156-.5078 2.563-1.414h.133v1.2734h1.265v-5.8047c0-1.7656-1.141-2.7812-3.133-2.7812-1.734 0-3.047.9297-3.203 2.289h1.305c.219-.7265.906-1.1406 1.883-1.1406 1.179 0 1.828.5859 1.828 1.6485v.7656l-2.328.1172c-1.93.1015-3.008.9922-3.008 2.4922 0 1.539 1.078 2.5546 2.695 2.5546Zm.383-1.164c-1.07 0-1.734-.5469-1.734-1.4375 0-.8828.625-1.3907 1.812-1.4453l2.18-.1016v1c0 1.1328-.977 1.9844-2.258 1.9844ZM209.273 70h1.329v-4.9922c0-1.4453.937-2.4219 2.336-2.4219 1.32 0 1.945.7188 1.945 2.25V70h1.328v-5.5c0-2.0312-1-3.1328-2.844-3.1328-1.289 0-2.258.5937-2.711 1.6484h-.109v-1.4922h-1.274V70Zm12.829.1406c1.21 0 2.101-.5 2.539-1.4375h.148V70h1.305V58.1953h-1.352v4.6406h-.14c-.368-.9297-1.274-1.4531-2.5-1.4531-1.961 0-3.243 1.4141-3.243 3.586v1.5781c0 2.1797 1.282 3.5937 3.243 3.5937Zm.39-1.2109c-1.398 0-2.297-1.0078-2.297-2.5703v-1.2188c0-1.5625.899-2.5625 2.297-2.5625 1.391 0 2.289 1 2.289 2.5625v1.2188c0 1.5703-.898 2.5703-2.289 2.5703Zm9.172 1.2187c1.234 0 2.156-.5078 2.563-1.414h.132v1.2734h1.266v-5.8047c0-1.7656-1.141-2.7812-3.133-2.7812-1.734 0-3.047.9297-3.203 2.289h1.305c.218-.7265.906-1.1406 1.883-1.1406 1.179 0 1.828.5859 1.828 1.6485v.7656l-2.328.1172c-1.93.1015-3.008.9922-3.008 2.4922 0 1.539 1.078 2.5546 2.695 2.5546Zm.383-1.164c-1.07 0-1.735-.5469-1.735-1.4375 0-.8828.626-1.3907 1.813-1.4453l2.18-.1016v1c0 1.1328-.977 1.9844-2.258 1.9844Zm7.281-5.1719c0 1.2031.758 1.9766 2.289 2.3281l1.258.2891c1.078.2422 1.492.6015 1.492 1.2734 0 .8125-.734 1.336-1.89 1.336-1.094 0-1.844-.4532-2.039-1.2344h-1.352c.148 1.4531 1.422 2.3515 3.344 2.3515 2.008 0 3.312-1.0156 3.312-2.5781 0-1.2265-.75-1.9453-2.398-2.3203l-1.196-.2734c-1.062-.2344-1.5-.6016-1.5-1.25 0-.7735.696-1.2735 1.774-1.2735.992 0 1.703.4532 1.859 1.1953h1.281c-.156-1.414-1.351-2.2968-3.117-2.2968-1.867 0-3.117.9844-3.117 2.4531ZM265.164 70v-1.2266h-2.281v-8.8203h2.281v-1.2265h-5.937v1.2265h2.281v8.8203h-2.281V70h5.937Zm3.453 0h1.328v-4.9922c0-1.4453.938-2.4219 2.336-2.4219 1.321 0 1.946.7188 1.946 2.25V70h1.328v-5.5c0-2.0312-1-3.1328-2.844-3.1328-1.289 0-2.258.5937-2.711 1.6484h-.109v-1.4922h-1.274V70Zm10.274-6.1875c0 1.2031.757 1.9766 2.289 2.3281l1.258.2891c1.078.2422 1.492.6015 1.492 1.2734 0 .8125-.735 1.336-1.891 1.336-1.094 0-1.844-.4532-2.039-1.2344h-1.352c.149 1.4531 1.422 2.3515 3.344 2.3515 2.008 0 3.313-1.0156 3.313-2.5781 0-1.2265-.75-1.9453-2.399-2.3203l-1.195-.2734c-1.063-.2344-1.5-.6016-1.5-1.25 0-.7735.695-1.2735 1.773-1.2735.993 0 1.704.4532 1.86 1.1953h1.281c-.156-1.414-1.352-2.2968-3.117-2.2968-1.867 0-3.117.9844-3.117 2.4531Zm11.531-4.5625v2.2969h-2.258v1.1328h2.258v4.7969c0 1.7656.976 2.5625 3.078 2.5625.406 0 1.438-.0391 1.648-.0782v-1.125c-.226.0235-1.078.0469-1.554.0469-1.196 0-1.844-.5-1.844-1.4219v-4.7812h3.422v-1.1328h-3.438V59.25h-1.312Zm10.476 10.8984c1.235 0 2.157-.5078 2.563-1.414h.133v1.2734h1.265v-5.8047c0-1.7656-1.14-2.7812-3.132-2.7812-1.735 0-3.047.9297-3.204 2.289h1.305c.219-.7265.906-1.1406 1.883-1.1406 1.18 0 1.828.5859 1.828 1.6485v.7656l-2.328.1172c-1.93.1015-3.008.9922-3.008 2.4922 0 1.539 1.078 2.5546 2.695 2.5546Zm.383-1.164c-1.07 0-1.734-.5469-1.734-1.4375 0-.8828.625-1.3907 1.812-1.4453l2.18-.1016v1c0 1.1328-.977 1.9844-2.258 1.9844ZM308.18 70h1.328v-4.9922c0-1.4453.937-2.4219 2.336-2.4219 1.32 0 1.945.7188 1.945 2.25V70h1.328v-5.5c0-2.0312-1-3.1328-2.844-3.1328-1.289 0-2.257.5937-2.711 1.6484h-.109v-1.4922h-1.273V70Zm16.89-5.8359c-.218-1.7422-1.5-2.8047-3.375-2.8047-2.304 0-3.648 1.414-3.648 3.8437v1.1094c0 2.4297 1.344 3.8437 3.648 3.8437 1.875 0 3.164-1.0546 3.375-2.7812h-1.312c-.164.9688-.992 1.5859-2.086 1.5859-1.477 0-2.297-1-2.297-2.8203v-.7656c0-1.8203.82-2.8281 2.297-2.8281 1.094 0 1.922.625 2.086 1.6172h1.312Zm8.649 3.6484c-.235.7422-1.024 1.1953-2.094 1.1953-1.445 0-2.367-1-2.367-2.5547v-.3437h5.773v-.8282c0-2.4531-1.297-3.914-3.5-3.914-2.156 0-3.586 1.4687-3.586 3.7031v1.2735c0 2.414 1.352 3.8124 3.68 3.8124 1.781 0 3.125-.9453 3.383-2.3437h-1.289Zm-2.196-5.3047c1.368 0 2.196.9766 2.196 2.5938h-4.461c0-1.625.851-2.5938 2.265-2.5938ZM203.562 101.812v-5.0854h-1.421v5.0854h1.421Zm12.93 6.188V96.7266h-1.367v4.8824h-4.766v-4.8824h-1.367V108h1.367v-5.125h4.766V108h1.367Zm10.274-4.727v-1.82c0-3.1171-1.571-4.9608-4.133-4.9608-2.563 0-4.133 1.8437-4.133 4.9608v1.82c0 3.118 1.57 4.961 4.133 4.961 2.562 0 4.133-1.843 4.133-4.961Zm-4.133 3.657c-1.711 0-2.742-1.313-2.742-3.664v-1.805c0-2.3516 1.031-3.6641 2.742-3.6641s2.742 1.3125 2.742 3.6641v1.805c0 2.351-1.031 3.664-2.742 3.664Zm6.031-1.93c.117 2 1.641 3.234 3.969 3.234 2.359 0 3.883-1.289 3.883-3.312 0-1.695-.922-2.649-3.11-3.188l-.984-.25c-1.469-.367-2.094-.929-2.094-1.9059 0-1.1484.867-1.8359 2.313-1.8359 1.328 0 2.187.6875 2.328 1.8516h1.343c-.093-1.875-1.554-3.1016-3.679-3.1016-2.25 0-3.695 1.2422-3.695 3.164 0 1.6328.945 2.6248 3.039 3.1558l.968.243c1.524.375 2.18.961 2.18 1.937 0 1.211-.984 1.992-2.484 1.992s-2.493-.75-2.633-1.984h-1.344Zm14.438 3V97.9922h3.406v-1.2656h-8.188v1.2656h3.407V108h1.375Zm9.914-6.188v-5.0854h-1.422v5.0854h1.422Zm128.578 0v-5.0854h-1.422v5.0854h1.422Zm9.867 6.188V97.9922h3.406v-1.2656h-8.187v1.2656h3.406V108h1.375Zm13.336-4.727v-1.82c0-3.1171-1.57-4.9608-4.133-4.9608-2.562 0-4.133 1.8437-4.133 4.9608v1.82c0 3.118 1.571 4.961 4.133 4.961 2.563 0 4.133-1.843 4.133-4.961Zm-4.133 3.657c-1.711 0-2.742-1.313-2.742-3.664v-1.805c0-2.3516 1.031-3.6641 2.742-3.6641s2.742 1.3125 2.742 3.6641v1.805c0 2.351-1.031 3.664-2.742 3.664Zm7.984 1.07v-3.836l1.172-1.391 3.797 5.227h1.711l-4.578-6.289 4.172-4.9844h-1.61l-4.562 5.6094h-.102v-5.6094h-1.351V108h1.351Zm15.305-1.266h-5.273v-3.875h4.984v-1.211h-4.984v-3.6558h5.273v-1.2656h-6.656V108h6.656v-1.266Zm3.875 1.266v-8.7969h.11L432.781 108h1.305V96.7266h-1.242V105.5h-.11l-4.828-8.7734h-1.32V108h1.242Zm13.11-6.188v-5.0854h-1.422v5.0854h1.422Zm-332.836 37.165.234-1.149h-1.641l.625-3.101h-1.117l-.625 3.101h-2.305l.618-3.101h-1.118l-.617 3.101h-1.64l-.227 1.149h1.641l-.516 2.648h-1.6406l-.2422 1.164h1.6408l-.641 3.211h1.117l.633-3.211h2.313l-.641 3.211h1.117l.641-3.211h1.641l.226-1.164h-1.64l.523-2.648h1.641Zm-5.079-.024h2.344l-.531 2.703H102.5l.523-2.703Zm20.961 5.977c-1.828 0-2.781-1.227-2.781-3.563v-2.008c0-2.336.953-3.562 2.774-3.562 1.445 0 2.453 1.023 2.5 2.547h1.398c-.047-2.406-1.516-3.852-3.891-3.852-2.648 0-4.187 1.789-4.187 4.867v2.008c0 3.078 1.539 4.867 4.187 4.867 2.305 0 3.883-1.476 3.883-3.656h-1.39c-.039 1.453-.993 2.352-2.493 2.352Zm9.297-2.727c0-2.156 1.11-3.453 2.985-3.453.461 0 1.007.094 1.398.234v-1.492c-.281-.117-.742-.187-1.226-.187-1.633 0-2.688.812-3 2.383h-.172v-2.165h-3.164v1.063h1.882v6.352h-1.711V146h5.633v-1.062h-2.625v-2.735Zm12.516 1.609c-.235.743-1.024 1.196-2.094 1.196-1.445 0-2.367-1-2.367-2.555v-.344h5.773v-.828c0-2.453-1.297-3.914-3.5-3.914-2.156 0-3.586 1.469-3.586 3.703v1.274c0 2.414 1.352 3.812 3.68 3.812 1.781 0 3.125-.945 3.383-2.344h-1.289Zm-2.195-5.304c1.367 0 2.195.976 2.195 2.594h-4.461c0-1.625.852-2.594 2.266-2.594Zm8.937 7.64c1.234 0 2.156-.507 2.563-1.414h.132v1.274h1.266v-5.805c0-1.765-1.141-2.781-3.133-2.781-1.734 0-3.047.93-3.203 2.289h1.305c.219-.727.906-1.141 1.883-1.141 1.179 0 1.828.586 1.828 1.649v.765l-2.328.118c-1.93.101-3.008.992-3.008 2.492 0 1.539 1.078 2.554 2.695 2.554Zm.383-1.164c-1.07 0-1.734-.546-1.734-1.437 0-.883.624-1.391 1.812-1.445l2.18-.102v1c0 1.133-.977 1.984-2.258 1.984Zm8.922-9.734v2.297h-2.258v1.133h2.258v4.797c0 1.765.976 2.562 3.078 2.562.406 0 1.437-.039 1.648-.078v-1.125c-.226.023-1.078.047-1.554.047-1.196 0-1.844-.5-1.844-1.422v-4.781h3.422v-1.133h-3.438v-2.297h-1.312Zm13.625 8.562c-.235.743-1.024 1.196-2.094 1.196-1.445 0-2.367-1-2.367-2.555v-.344h5.773v-.828c0-2.453-1.297-3.914-3.5-3.914-2.156 0-3.586 1.469-3.586 3.703v1.274c0 2.414 1.352 3.812 3.68 3.812 1.781 0 3.125-.945 3.383-2.344h-1.289Zm-2.196-5.304c1.368 0 2.196.976 2.196 2.594h-4.461c0-1.625.851-2.594 2.265-2.594Zm19.157 7.633c1.211 0 2.101-.5 2.539-1.438h.148V146h1.305v-11.805h-1.352v4.641h-.14c-.368-.93-1.274-1.453-2.5-1.453-1.961 0-3.242 1.414-3.242 3.586v1.578c0 2.18 1.281 3.594 3.242 3.594Zm.39-1.211c-1.398 0-2.297-1.008-2.297-2.571v-1.218c0-1.563.899-2.563 2.297-2.563 1.391 0 2.289 1 2.289 2.563v1.218c0 1.571-.898 2.571-2.289 2.571Zm9.172 1.218c1.235 0 2.156-.507 2.563-1.414h.133v1.274h1.265v-5.805c0-1.765-1.141-2.781-3.133-2.781-1.734 0-3.047.93-3.203 2.289h1.305c.219-.727.906-1.141 1.883-1.141 1.179 0 1.828.586 1.828 1.649v.765l-2.328.118c-1.93.101-3.008.992-3.008 2.492 0 1.539 1.078 2.554 2.695 2.554Zm.383-1.164c-1.07 0-1.734-.546-1.734-1.437 0-.883.625-1.391 1.812-1.445l2.18-.102v1c0 1.133-.977 1.984-2.258 1.984Zm8.922-9.734v2.297h-2.258v1.133h2.258v4.797c0 1.765.976 2.562 3.078 2.562.406 0 1.437-.039 1.648-.078v-1.125c-.226.023-1.078.047-1.554.047-1.196 0-1.844-.5-1.844-1.422v-4.781h3.422v-1.133h-3.438v-2.297h-1.312Zm10.476 10.898c1.235 0 2.157-.507 2.563-1.414h.133v1.274h1.265v-5.805c0-1.765-1.14-2.781-3.132-2.781-1.735 0-3.047.93-3.204 2.289h1.305c.219-.727.906-1.141 1.883-1.141 1.18 0 1.828.586 1.828 1.649v.765l-2.328.118c-1.93.101-3.008.992-3.008 2.492 0 1.539 1.078 2.554 2.695 2.554Zm.383-1.164c-1.07 0-1.734-.546-1.734-1.437 0-.883.625-1.391 1.812-1.445l2.18-.102v1c0 1.133-.976 1.984-2.258 1.984Zm9.117 1.016h1.329v-7.32h3.726v-1.133h-3.742v-.875c0-.852.625-1.289 1.805-1.289.476 0 1.57.031 1.937.07v-1.086c-.281-.039-1.461-.078-1.953-.078-2.086 0-3.102.766-3.102 2.406v.852H229v1.133h2.273V146Zm10.805-3.797c0-2.156 1.11-3.453 2.984-3.453.461 0 1.008.094 1.399.234v-1.492c-.281-.117-.742-.187-1.227-.187-1.632 0-2.687.812-3 2.383h-.172v-2.165h-3.164v1.063h1.883v6.352h-1.711V146h5.633v-1.062h-2.625v-2.735Zm9.367 3.945c1.235 0 2.157-.507 2.563-1.414h.133v1.274h1.265v-5.805c0-1.765-1.14-2.781-3.133-2.781-1.734 0-3.046.93-3.203 2.289h1.305c.219-.727.906-1.141 1.883-1.141 1.18 0 1.828.586 1.828 1.649v.765l-2.328.118c-1.93.101-3.008.992-3.008 2.492 0 1.539 1.078 2.554 2.695 2.554Zm.383-1.164c-1.07 0-1.734-.546-1.734-1.437 0-.883.625-1.391 1.812-1.445l2.18-.102v1c0 1.133-.977 1.984-2.258 1.984Zm14.453-5.226c0-1.57-.617-2.391-1.797-2.391-.851 0-1.531.516-1.75 1.328h-.14c-.18-.836-.742-1.328-1.539-1.328-.797 0-1.407.5-1.617 1.352h-.141v-1.196h-1.188V146h1.196v-5.719c0-1.054.468-1.703 1.218-1.703.719 0 1.094.539 1.094 1.563V146h1.188v-5.719c0-1.054.453-1.703 1.195-1.703.711 0 1.086.539 1.086 1.57V146h1.195v-6.242Zm8.094 4.054c-.234.743-1.023 1.196-2.094 1.196-1.445 0-2.367-1-2.367-2.555v-.344h5.774v-.828c0-2.453-1.297-3.914-3.5-3.914-2.157 0-3.586 1.469-3.586 3.703v1.274c0 2.414 1.351 3.812 3.679 3.812 1.781 0 3.125-.945 3.383-2.344h-1.289Zm-2.195-5.304c1.367 0 2.195.976 2.195 2.594h-4.461c0-1.625.852-2.594 2.266-2.594ZM290.617 146h1.328v-7.32h3.727v-1.133h-3.742v-.875c0-.852.625-1.289 1.804-1.289.477 0 1.571.031 1.938.07v-1.086c-.281-.039-1.461-.078-1.953-.078-2.086 0-3.102.766-3.102 2.406v.852h-2.273v1.133h2.273V146Zm11.141.156c2.242 0 3.672-1.461 3.672-3.75v-1.281c0-2.289-1.43-3.75-3.672-3.75s-3.672 1.461-3.672 3.75v1.281c0 2.289 1.43 3.75 3.672 3.75Zm0-7.609c1.453 0 2.359 1.031 2.359 2.695v1.039c0 1.672-.906 2.696-2.359 2.696-1.453 0-2.36-1.024-2.36-2.696v-1.039c0-1.664.907-2.695 2.36-2.695Zm9.554 3.656c0-2.156 1.11-3.453 2.985-3.453.461 0 1.008.094 1.398.234v-1.492c-.281-.117-.742-.187-1.226-.187-1.633 0-2.688.812-3 2.383h-.172v-2.165h-3.164v1.063h1.883v6.352h-1.711V146h5.633v-1.062h-2.626v-2.735ZM335.133 146v-1.102h-2.797v-10.703h-4.203v1.102h2.875v9.601h-2.899V146h7.024Zm6.336-10.555c.625 0 1.101-.468 1.101-1.093 0-.618-.476-1.086-1.101-1.086s-1.102.468-1.102 1.086c0 .625.477 1.093 1.102 1.093ZM345.023 146v-1.102h-2.804v-7.375h-4.196v1.102h2.883v6.273H338V146h7.023Zm2.719 0h1.328v-4.992c0-1.446.938-2.422 2.336-2.422 1.321 0 1.946.719 1.946 2.25V146h1.328v-5.5c0-2.031-1-3.133-2.844-3.133-1.289 0-2.258.594-2.711 1.649h-.109v-1.493h-1.274V146Zm15.649-2.188c-.235.743-1.024 1.196-2.094 1.196-1.445 0-2.367-1-2.367-2.555v-.344h5.773v-.828c0-2.453-1.297-3.914-3.5-3.914-2.156 0-3.586 1.469-3.586 3.703v1.274c0 2.414 1.352 3.812 3.68 3.812 1.781 0 3.125-.945 3.383-2.344h-1.289Zm-2.196-5.304c1.367 0 2.196.976 2.196 2.594h-4.461c0-1.625.851-2.594 2.265-2.594Zm8.938 7.64c1.234 0 2.156-.507 2.562-1.414h.133v1.274h1.266v-5.805c0-1.765-1.141-2.781-3.133-2.781-1.734 0-3.047.93-3.203 2.289h1.304c.219-.727.907-1.141 1.883-1.141 1.18 0 1.828.586 1.828 1.649v.765l-2.328.118c-1.929.101-3.007.992-3.007 2.492 0 1.539 1.078 2.554 2.695 2.554Zm.383-1.164c-1.071 0-1.735-.546-1.735-1.437 0-.883.625-1.391 1.813-1.445l2.179-.102v1c0 1.133-.976 1.984-2.257 1.984Zm10.031-2.781c0-2.156 1.109-3.453 2.984-3.453.461 0 1.008.094 1.399.234v-1.492c-.282-.117-.742-.187-1.227-.187-1.633 0-2.687.812-3 2.383h-.172v-2.165h-3.164v1.063h1.883v6.352h-1.711V146h5.633v-1.062h-2.625v-2.735Zm19.781 0c0-2.156 1.11-3.453 2.984-3.453.461 0 1.008.094 1.399.234v-1.492c-.281-.117-.742-.187-1.227-.187-1.632 0-2.687.812-3 2.383h-.172v-2.165h-3.164v1.063h1.883v6.352h-1.711V146h5.633v-1.062h-2.625v-2.735Zm12.516 1.609c-.235.743-1.024 1.196-2.094 1.196-1.445 0-2.367-1-2.367-2.555v-.344h5.773v-.828c0-2.453-1.297-3.914-3.5-3.914-2.156 0-3.586 1.469-3.586 3.703v1.274c0 2.414 1.352 3.812 3.68 3.812 1.781 0 3.125-.945 3.383-2.344h-1.289Zm-2.196-5.304c1.368 0 2.196.976 2.196 2.594h-4.461c0-1.625.851-2.594 2.265-2.594Zm9.547 10.672c2.297 0 3.657-1.188 3.657-3.18v-8.477h-1.313v1.313h-.148c-.368-.914-1.297-1.453-2.524-1.453-1.984 0-3.281 1.406-3.281 3.586v1.523c0 2.172 1.289 3.586 3.25 3.586 1.234 0 2.172-.539 2.547-1.43h.14v1.321c0 1.359-.82 2.109-2.304 2.109-1.133 0-1.985-.461-2.157-1.164h-1.312c.172 1.406 1.484 2.266 3.445 2.266Zm-2.273-6.875v-1.164c0-1.555.906-2.563 2.312-2.563 1.399 0 2.297 1 2.297 2.563v1.164c0 1.562-.898 2.57-2.297 2.57-1.406 0-2.312-1.016-2.312-2.57Zm12.078-.102c0-2.156 1.109-3.453 2.984-3.453.461 0 1.008.094 1.399.234v-1.492c-.281-.117-.742-.187-1.227-.187-1.633 0-2.687.812-3 2.383h-.172v-2.165h-3.164v1.063h1.883v6.352h-1.711V146h5.633v-1.062H430v-2.735Zm12.516 1.609c-.235.743-1.024 1.196-2.094 1.196-1.445 0-2.367-1-2.367-2.555v-.344h5.773v-.828c0-2.453-1.297-3.914-3.5-3.914-2.156 0-3.586 1.469-3.586 3.703v1.274c0 2.414 1.352 3.812 3.68 3.812 1.781 0 3.125-.945 3.383-2.344h-1.289Zm-2.196-5.304c1.368 0 2.196.976 2.196 2.594h-4.461c0-1.625.851-2.594 2.265-2.594Zm6.711 1.304c0 1.204.758 1.977 2.289 2.329l1.258.289c1.078.242 1.492.601 1.492 1.273 0 .813-.734 1.336-1.89 1.336-1.094 0-1.844-.453-2.039-1.234h-1.352c.149 1.453 1.422 2.351 3.344 2.351 2.008 0 3.312-1.015 3.312-2.578 0-1.226-.75-1.945-2.398-2.32l-1.195-.274c-1.063-.234-1.5-.601-1.5-1.25 0-.773.695-1.273 1.773-1.273.992 0 1.703.453 1.859 1.195h1.282c-.157-1.414-1.352-2.297-3.118-2.297-1.867 0-3.117.985-3.117 2.453Zm13.125-4.367c.625 0 1.102-.468 1.102-1.093 0-.618-.477-1.086-1.102-1.086-.625 0-1.101.468-1.101 1.086 0 .625.476 1.093 1.101 1.093ZM463.711 146v-1.102h-2.805v-7.375h-4.195v1.102h2.883v6.273h-2.906V146h7.023Zm6.187.156c2.243 0 3.672-1.461 3.672-3.75v-1.281c0-2.289-1.429-3.75-3.672-3.75-2.242 0-3.671 1.461-3.671 3.75v1.281c0 2.289 1.429 3.75 3.671 3.75Zm0-7.609c1.454 0 2.36 1.031 2.36 2.695v1.039c0 1.672-.906 2.696-2.36 2.696-1.453 0-2.359-1.024-2.359-2.696v-1.039c0-1.664.906-2.695 2.359-2.695ZM476.32 146h1.328v-4.992c0-1.446.938-2.422 2.336-2.422 1.321 0 1.946.719 1.946 2.25V146h1.328v-5.5c0-2.031-1-3.133-2.844-3.133-1.289 0-2.258.594-2.711 1.649h-.109v-1.493h-1.274V146Zm12.649 2.594 1.469-5.078h-1.758l-.969 5.078h1.258Zm19.633-2.446c1.234 0 2.156-.507 2.562-1.414h.133v1.274h1.265v-5.805c0-1.765-1.14-2.781-3.132-2.781-1.735 0-3.047.93-3.203 2.289h1.304c.219-.727.907-1.141 1.883-1.141 1.18 0 1.828.586 1.828 1.649v.765l-2.328.118c-1.93.101-3.008.992-3.008 2.492 0 1.539 1.078 2.554 2.696 2.554Zm.382-1.164c-1.07 0-1.734-.546-1.734-1.437 0-.883.625-1.391 1.812-1.445l2.18-.102v1c0 1.133-.976 1.984-2.258 1.984Zm6.899 1.016h1.328v-4.992c0-1.446.937-2.422 2.336-2.422 1.32 0 1.945.719 1.945 2.25V146h1.328v-5.5c0-2.031-1-3.133-2.843-3.133-1.289 0-2.258.594-2.711 1.649h-.11v-1.493h-1.273V146Zm12.5.148c1.234 0 2.156-.507 2.562-1.414h.133v1.274h1.266v-5.805c0-1.765-1.141-2.781-3.133-2.781-1.734 0-3.047.93-3.203 2.289h1.304c.219-.727.907-1.141 1.883-1.141 1.18 0 1.828.586 1.828 1.649v.765l-2.328.118c-1.929.101-3.007.992-3.007 2.492 0 1.539 1.078 2.554 2.695 2.554Zm.383-1.164c-1.071 0-1.735-.546-1.735-1.437 0-.883.625-1.391 1.813-1.445l2.179-.102v1c0 1.133-.976 1.984-2.257 1.984Zm14.07 1.016v-1.102h-2.797v-10.703h-4.203v1.102h2.875v9.601h-2.899V146h7.024Zm3.812 3.016c1.571 0 2.282-.618 3.024-2.704l3.195-8.789h-1.414l-2.367 7.094h-.102l-2.375-7.094h-1.445l3.117 8.532-.148.461c-.352.984-.789 1.343-1.586 1.343-.125 0-.367-.007-.469-.031v1.164c.117.016.375.024.57.024Zm9.18-9.204c0 1.204.758 1.977 2.289 2.329l1.258.289c1.078.242 1.492.601 1.492 1.273 0 .813-.734 1.336-1.89 1.336-1.094 0-1.844-.453-2.039-1.234h-1.352c.148 1.453 1.422 2.351 3.344 2.351 2.008 0 3.312-1.015 3.312-2.578 0-1.226-.75-1.945-2.398-2.32l-1.196-.274c-1.062-.234-1.5-.601-1.5-1.25 0-.773.696-1.273 1.774-1.273.992 0 1.703.453 1.859 1.195h1.281c-.156-1.414-1.351-2.297-3.117-2.297-1.867 0-3.117.985-3.117 2.453Zm13.125-4.367c.625 0 1.102-.468 1.102-1.093 0-.618-.477-1.086-1.102-1.086-.625 0-1.101.468-1.101 1.086 0 .625.476 1.093 1.101 1.093ZM572.508 146v-1.102h-2.805v-7.375h-4.195v1.102h2.883v6.273h-2.907V146h7.024Zm3.101-6.188c0 1.204.758 1.977 2.289 2.329l1.258.289c1.078.242 1.492.601 1.492 1.273 0 .813-.734 1.336-1.89 1.336-1.094 0-1.844-.453-2.039-1.234h-1.352c.149 1.453 1.422 2.351 3.344 2.351 2.008 0 3.312-1.015 3.312-2.578 0-1.226-.75-1.945-2.398-2.32l-1.195-.274c-1.063-.234-1.5-.601-1.5-1.25 0-.773.695-1.273 1.773-1.273.992 0 1.703.453 1.859 1.195h1.282c-.156-1.414-1.352-2.297-3.117-2.297-1.868 0-3.118.985-3.118 2.453Zm12.266 8.782 1.469-5.078h-1.758l-.969 5.078h1.258Zm22.781-4.782c-.234.743-1.023 1.196-2.094 1.196-1.445 0-2.367-1-2.367-2.555v-.344h5.774v-.828c0-2.453-1.297-3.914-3.5-3.914-2.157 0-3.586 1.469-3.586 3.703v1.274c0 2.414 1.351 3.812 3.679 3.812 1.782 0 3.126-.945 3.383-2.344h-1.289Zm-2.195-5.304c1.367 0 2.195.976 2.195 2.594h-4.461c0-1.625.852-2.594 2.266-2.594Zm8.351-3.258v2.297h-2.257v1.133h2.257v4.797c0 1.765.977 2.562 3.079 2.562.406 0 1.437-.039 1.648-.078v-1.125c-.227.023-1.078.047-1.555.047-1.195 0-1.843-.5-1.843-1.422v-4.781h3.421v-1.133h-3.437v-2.297h-1.313Zm14.868 4.914c-.219-1.742-1.5-2.805-3.375-2.805-2.305 0-3.649 1.414-3.649 3.844v1.109c0 2.43 1.344 3.844 3.649 3.844 1.875 0 3.164-1.054 3.375-2.781h-1.313c-.164.969-.992 1.586-2.086 1.586-1.476 0-2.297-1-2.297-2.82v-.766c0-1.82.821-2.828 2.297-2.828 1.094 0 1.922.625 2.086 1.617h1.313Zm6.359 5.883c.773 0 1.414-.649 1.414-1.445 0-.79-.641-1.438-1.414-1.438-.773 0-1.414.648-1.414 1.438 0 .796.641 1.445 1.414 1.445Zm9.891 0c.773 0 1.414-.649 1.414-1.445 0-.79-.641-1.438-1.414-1.438-.774 0-1.414.648-1.414 1.438 0 .796.64 1.445 1.414 1.445Zm9.89 0c.774 0 1.414-.649 1.414-1.445 0-.79-.64-1.438-1.414-1.438-.773 0-1.414.648-1.414 1.438 0 .796.641 1.445 1.414 1.445Zm-188.734 12.711v-5.031h-1.43v5.031h1.43Zm3.055 0v-5.031h-1.438v5.031h1.438ZM484.047 165v-1.211h-3.172v-10.062h-1.352l-3.359 2.179v1.469l3.227-2.086h.125v8.5h-3.328V165h7.859Zm2.039-8.102v.047h1.328v-.047c0-1.328.859-2.195 2.156-2.195 1.313 0 2.164.797 2.164 2.008 0 .891-.343 1.492-1.773 3.094l-3.813 4.242V165h7.133v-1.25h-5.164v-.133l2.656-2.89c1.797-1.961 2.329-2.899 2.329-4.071 0-1.883-1.422-3.164-3.493-3.164-2.054 0-3.523 1.422-3.523 3.406Zm12.109 2.875h1.289c1.563 0 2.555.836 2.555 2.149 0 1.273-.961 2.07-2.508 2.07-1.406 0-2.406-.781-2.531-1.984h-1.305c.102 1.945 1.649 3.226 3.875 3.226 2.25 0 3.86-1.367 3.86-3.281 0-1.539-.891-2.594-2.391-2.789v-.125c1.211-.297 1.922-1.266 1.922-2.625 0-1.711-1.438-2.922-3.453-2.922-2.086 0-3.461 1.211-3.594 3.164h1.32c.11-1.211.954-1.953 2.219-1.953 1.274 0 2.117.758 2.117 1.906 0 1.18-.882 2.008-2.148 2.008h-1.227v1.156Zm10.453-1.015v-5.031h-1.429v5.031h1.429Zm3.055 0v-5.031h-1.437v5.031h1.437Zm-92.07 19v-5.031h-1.43v5.031h1.43Zm3.055 0v-5.031h-1.438v5.031h1.438Zm11.179.406c-.219-1.742-1.5-2.805-3.375-2.805-2.304 0-3.648 1.414-3.648 3.844v1.109c0 2.43 1.344 3.844 3.648 3.844 1.875 0 3.164-1.054 3.375-2.781h-1.312c-.164.969-.993 1.586-2.086 1.586-1.477 0-2.297-1-2.297-2.82v-.766c0-1.82.82-2.828 2.297-2.828 1.093 0 1.922.625 2.086 1.617h1.312Zm5.5 5.984c1.235 0 2.156-.507 2.563-1.414h.132v1.274h1.266v-5.805c0-1.765-1.14-2.781-3.133-2.781-1.734 0-3.047.93-3.203 2.289h1.305c.219-.727.906-1.141 1.883-1.141 1.179 0 1.828.586 1.828 1.649v.765l-2.328.118c-1.93.101-3.008.992-3.008 2.492 0 1.539 1.078 2.554 2.695 2.554Zm.383-1.164c-1.07 0-1.734-.546-1.734-1.437 0-.883.625-1.391 1.812-1.445l2.18-.102v1c0 1.133-.977 1.984-2.258 1.984Zm14.453-5.226c0-1.57-.617-2.391-1.797-2.391-.851 0-1.531.516-1.75 1.328h-.14c-.18-.836-.743-1.328-1.539-1.328-.797 0-1.407.5-1.618 1.352h-.14v-1.196h-1.188V184h1.196v-5.719c0-1.054.468-1.703 1.218-1.703.719 0 1.094.539 1.094 1.563V184h1.188v-5.719c0-1.054.453-1.703 1.195-1.703.711 0 1.086.539 1.086 1.57V184h1.195v-6.242Zm6.336-2.375c-1.211 0-2.094.5-2.539 1.437h-.141v-1.297h-1.312v11.336h1.351v-4.171h.149c.367.929 1.265 1.453 2.492 1.453 1.961 0 3.242-1.414 3.242-3.586v-1.578c0-2.18-1.281-3.594-3.242-3.594Zm-.383 1.219c1.399 0 2.289 1 2.289 2.562v1.219c0 1.562-.89 2.57-2.289 2.57-1.398 0-2.289-1-2.289-2.57v-1.219c0-1.562.891-2.562 2.289-2.562Zm8.883 7.546c1.234 0 2.156-.507 2.563-1.414h.132v1.274H473v-5.805c0-1.765-1.141-2.781-3.133-2.781-1.734 0-3.047.93-3.203 2.289h1.305c.219-.727.906-1.141 1.883-1.141 1.179 0 1.828.586 1.828 1.649v.765l-2.328.118c-1.93.101-3.008.992-3.008 2.492 0 1.539 1.078 2.554 2.695 2.554Zm.383-1.164c-1.07 0-1.734-.546-1.734-1.437 0-.883.624-1.391 1.812-1.445l2.18-.102v1c0 1.133-.977 1.984-2.258 1.984Zm10.516-9.539c.624 0 1.101-.468 1.101-1.093 0-.618-.477-1.086-1.101-1.086-.626 0-1.102.468-1.102 1.086 0 .625.476 1.093 1.102 1.093ZM483.492 184v-1.102h-2.804v-7.375h-4.196v1.102h2.883v6.273h-2.906V184h7.023Zm5.938 3.18c2.297 0 3.656-1.188 3.656-3.18v-8.477h-1.313v1.313h-.148c-.367-.914-1.297-1.453-2.523-1.453-1.985 0-3.282 1.406-3.282 3.586v1.523c0 2.172 1.289 3.586 3.25 3.586 1.235 0 2.172-.539 2.547-1.43h.141v1.321c0 1.359-.82 2.109-2.305 2.109-1.133 0-1.984-.461-2.156-1.164h-1.313c.172 1.406 1.485 2.266 3.446 2.266Zm-2.274-6.875v-1.164c0-1.555.906-2.563 2.313-2.563 1.398 0 2.297 1 2.297 2.563v1.164c0 1.562-.899 2.57-2.297 2.57-1.407 0-2.313-1.016-2.313-2.57Zm8.946 3.695h1.328v-4.992c0-1.446.937-2.422 2.336-2.422 1.32 0 1.945.719 1.945 2.25V184h1.328v-5.5c0-2.031-1-3.133-2.844-3.133-1.289 0-2.257.594-2.711 1.649h-.109v-1.493h-1.273V184Zm17.414 2.438v-1.149h-8.11v1.149h8.11Zm2.75-8.626c0 1.204.757 1.977 2.289 2.329l1.257.289c1.079.242 1.493.601 1.493 1.273 0 .813-.735 1.336-1.891 1.336-1.094 0-1.844-.453-2.039-1.234h-1.352c.149 1.453 1.422 2.351 3.344 2.351 2.008 0 3.313-1.015 3.313-2.578 0-1.226-.75-1.945-2.399-2.32l-1.195-.274c-1.063-.234-1.5-.601-1.5-1.25 0-.773.695-1.273 1.773-1.273.993 0 1.703.453 1.86 1.195h1.281c-.156-1.414-1.352-2.297-3.117-2.297-1.867 0-3.117.985-3.117 2.453Zm13.507-2.429c-1.211 0-2.093.5-2.539 1.437h-.14v-1.297h-1.313v11.336h1.352v-4.171h.148c.367.929 1.266 1.453 2.492 1.453 1.961 0 3.243-1.414 3.243-3.586v-1.578c0-2.18-1.282-3.594-3.243-3.594Zm-.382 1.219c1.398 0 2.289 1 2.289 2.562v1.219c0 1.562-.891 2.57-2.289 2.57-1.399 0-2.289-1-2.289-2.57v-1.219c0-1.562.89-2.562 2.289-2.562Zm12.031 5.21c-.234.743-1.024 1.196-2.094 1.196-1.445 0-2.367-1-2.367-2.555v-.344h5.773v-.828c0-2.453-1.296-3.914-3.5-3.914-2.156 0-3.586 1.469-3.586 3.703v1.274c0 2.414 1.352 3.812 3.68 3.812 1.781 0 3.125-.945 3.383-2.344h-1.289Zm-2.195-5.304c1.367 0 2.195.976 2.195 2.594h-4.461c0-1.625.851-2.594 2.266-2.594Zm6.328 7.492h1.328v-4.992c0-1.446.937-2.422 2.336-2.422 1.32 0 1.945.719 1.945 2.25V184h1.328v-5.5c0-2.031-1-3.133-2.844-3.133-1.289 0-2.257.594-2.71 1.649h-.11v-1.493h-1.273V184Zm12.828.141c1.211 0 2.101-.5 2.539-1.438h.148V184h1.305v-11.805h-1.352v4.641h-.14c-.367-.93-1.274-1.453-2.5-1.453-1.961 0-3.242 1.414-3.242 3.586v1.578c0 2.18 1.281 3.594 3.242 3.594Zm.39-1.211c-1.398 0-2.296-1.008-2.296-2.571v-1.218c0-1.563.898-2.563 2.296-2.563 1.391 0 2.289 1 2.289 2.563v1.218c0 1.571-.898 2.571-2.289 2.571Zm9.219-5.172v-5.031h-1.43v5.031h1.43Zm3.055 0v-5.031h-1.438v5.031h1.438Z" fill="#0BA94A"/><path d="M104.477 80.3828c-1.211 0-2.094.5-2.539 1.4375h-.141v-1.2969h-1.313v11.336h1.352v-4.1719h.148c.368.9297 1.266 1.4531 2.493 1.4531 1.961 0 3.242-1.414 3.242-3.5859v-1.5781c0-2.1797-1.281-3.5938-3.242-3.5938Zm-.383 1.2188c1.398 0 2.289 1 2.289 2.5625v1.2187c0 1.5625-.891 2.5703-2.289 2.5703-1.399 0-2.289-1-2.289-2.5703v-1.2187c0-1.5625.89-2.5625 2.289-2.5625Zm8.883 7.5468c1.234 0 2.156-.5078 2.562-1.414h.133v1.2734h1.266v-5.8047c0-1.7656-1.141-2.7812-3.133-2.7812-1.735 0-3.047.9297-3.203 2.289h1.304c.219-.7265.906-1.1406 1.883-1.1406 1.18 0 1.828.5859 1.828 1.6485v.7656l-2.328.1172c-1.93.1015-3.008.9922-3.008 2.4922 0 1.539 1.078 2.5546 2.696 2.5546Zm.382-1.164c-1.07 0-1.734-.5469-1.734-1.4375 0-.8828.625-1.3907 1.813-1.4453L115.617 85v1c0 1.1328-.976 1.9844-2.258 1.9844ZM120.258 89h1.328v-4.9922c0-1.4453.937-2.4219 2.336-2.4219 1.32 0 1.945.7188 1.945 2.25V89h1.328v-5.5c0-2.0312-1-3.1328-2.843-3.1328-1.29 0-2.258.5937-2.711 1.6484h-.11v-1.4922h-1.273V89Zm12.828.1406c1.211 0 2.102-.5 2.539-1.4375h.148V89h1.305V77.1953h-1.351v4.6406h-.141c-.367-.9297-1.274-1.4531-2.5-1.4531-1.961 0-3.242 1.4141-3.242 3.586v1.5781c0 2.1797 1.281 3.5937 3.242 3.5937Zm.391-1.2109c-1.399 0-2.297-1.0078-2.297-2.5703v-1.2188c0-1.5625.898-2.5625 2.297-2.5625 1.39 0 2.289 1 2.289 2.5625v1.2188c0 1.5703-.899 2.5703-2.289 2.5703Zm9.171 1.2187c1.235 0 2.157-.5078 2.563-1.414h.133v1.2734h1.265v-5.8047c0-1.7656-1.14-2.7812-3.132-2.7812-1.735 0-3.047.9297-3.204 2.289h1.305c.219-.7265.906-1.1406 1.883-1.1406 1.18 0 1.828.5859 1.828 1.6485v.7656l-2.328.1172c-1.93.1015-3.008.9922-3.008 2.4922 0 1.539 1.078 2.5546 2.695 2.5546Zm.383-1.164c-1.07 0-1.734-.5469-1.734-1.4375 0-.8828.625-1.3907 1.812-1.4453l2.18-.1016v1c0 1.1328-.977 1.9844-2.258 1.9844Zm7.281-5.1719c0 1.2031.758 1.9766 2.29 2.3281l1.257.2891c1.079.2422 1.493.6015 1.493 1.2734 0 .8125-.735 1.336-1.891 1.336-1.094 0-1.844-.4532-2.039-1.2344h-1.352c.149 1.4531 1.422 2.3515 3.344 2.3515 2.008 0 3.313-1.0156 3.313-2.5781 0-1.2265-.75-1.9453-2.399-2.3203l-1.195-.2734c-1.063-.2344-1.5-.6016-1.5-1.25 0-.7735.695-1.2735 1.773-1.2735.992 0 1.703.4532 1.86 1.1953h1.281c-.156-1.414-1.352-2.2968-3.117-2.2968-1.868 0-3.118.9844-3.118 2.4531Zm27 .0547v-1.2891h-8.265v1.2891h8.265Zm0 3.5625v-1.2891h-8.265v1.2891h8.265Zm18.329-.8828c0 1.4765-.953 2.3828-2.493 2.3828-1.82 0-2.773-1.2266-2.773-3.5625v-2.0078c0-2.336.945-3.5625 2.766-3.5625 1.437 0 2.437.9922 2.5 2.4609h1.39c-.054-2.3359-1.523-3.7656-3.867-3.7656-2.648 0-4.18 1.7812-4.18 4.8672v2.0078c0 3.0859 1.532 4.8672 4.18 4.8672 2.274 0 3.867-1.4532 3.867-3.5703v-2.3985h-3.992v1.1797h2.602v1.1016Zm7.211 3.6093c2.242 0 3.671-1.4609 3.671-3.75V84.125c0-2.2891-1.429-3.75-3.671-3.75-2.243 0-3.672 1.4609-3.672 3.75v1.2812c0 2.2891 1.429 3.75 3.672 3.75Zm0-7.6093c1.453 0 2.359 1.0312 2.359 2.6953v1.039c0 1.6719-.906 2.6954-2.359 2.6954-1.454 0-2.36-1.0235-2.36-2.6954v-1.039c0-1.6641.906-2.6953 2.36-2.6953Zm9.89 7.6093c2.242 0 3.672-1.4609 3.672-3.75V84.125c0-2.2891-1.43-3.75-3.672-3.75s-3.672 1.4609-3.672 3.75v1.2812c0 2.2891 1.43 3.75 3.672 3.75Zm0-7.6093c1.453 0 2.36 1.0312 2.36 2.6953v1.039c0 1.6719-.907 2.6954-2.36 2.6954-1.453 0-2.359-1.0235-2.359-2.6954v-1.039c0-1.6641.906-2.6953 2.359-2.6953Zm9.36 7.5937c1.21 0 2.101-.5 2.539-1.4375h.148V89h1.305V77.1953h-1.352v4.6406h-.14c-.368-.9297-1.274-1.4531-2.5-1.4531-1.961 0-3.243 1.4141-3.243 3.586v1.5781c0 2.1797 1.282 3.5937 3.243 3.5937Zm.39-1.2109c-1.398 0-2.297-1.0078-2.297-2.5703v-1.2188c0-1.5625.899-2.5625 2.297-2.5625 1.391 0 2.289 1 2.289 2.5625v1.2188c0 1.5703-.898 2.5703-2.289 2.5703Zm6.633-10.2031V89h1.383v-4.0469h2.336c2.203 0 3.648-1.4297 3.648-3.6093 0-2.1876-1.43-3.6172-3.617-3.6172h-3.75Zm1.383 1.2265h2.023c1.641 0 2.563.8516 2.563 2.3907 0 1.5312-.922 2.3828-2.563 2.3828h-2.023v-4.7735Zm11.047 10.1953c1.234 0 2.156-.5078 2.562-1.414h.133v1.2734h1.266v-5.8047c0-1.7656-1.141-2.7812-3.133-2.7812-1.735 0-3.047.9297-3.203 2.289h1.304c.219-.7265.907-1.1406 1.883-1.1406 1.18 0 1.828.5859 1.828 1.6485v.7656l-2.328.1172c-1.929.1015-3.008.9922-3.008 2.4922 0 1.539 1.079 2.5546 2.696 2.5546Zm.383-1.164c-1.071 0-1.735-.5469-1.735-1.4375 0-.8828.625-1.3907 1.813-1.4453L244.195 85v1c0 1.1328-.976 1.9844-2.257 1.9844ZM248.836 89h1.328v-4.9922c0-1.4453.938-2.4219 2.336-2.4219 1.32 0 1.945.7188 1.945 2.25V89h1.328v-5.5c0-2.0312-1-3.1328-2.843-3.1328-1.289 0-2.258.5937-2.711 1.6484h-.11v-1.4922h-1.273V89Zm12.828.1406c1.211 0 2.102-.5 2.539-1.4375h.149V89h1.304V77.1953h-1.351v4.6406h-.141c-.367-.9297-1.273-1.4531-2.5-1.4531-1.961 0-3.242 1.4141-3.242 3.586v1.5781c0 2.1797 1.281 3.5937 3.242 3.5937Zm.391-1.2109c-1.399 0-2.297-1.0078-2.297-2.5703v-1.2188c0-1.5625.898-2.5625 2.297-2.5625 1.39 0 2.289 1 2.289 2.5625v1.2188c0 1.5703-.899 2.5703-2.289 2.5703Zm9.172 1.2187c1.234 0 2.156-.5078 2.562-1.414h.133v1.2734h1.266v-5.8047c0-1.7656-1.141-2.7812-3.133-2.7812-1.735 0-3.047.9297-3.203 2.289h1.304c.219-.7265.906-1.1406 1.883-1.1406 1.18 0 1.828.5859 1.828 1.6485v.7656l-2.328.1172c-1.93.1015-3.008.9922-3.008 2.4922 0 1.539 1.078 2.5546 2.696 2.5546Zm.382-1.164c-1.07 0-1.734-.5469-1.734-1.4375 0-.8828.625-1.3907 1.813-1.4453L273.867 85v1c0 1.1328-.976 1.9844-2.258 1.9844Zm7.282-5.1719c0 1.2031.757 1.9766 2.289 2.3281l1.258.2891c1.078.2422 1.492.6015 1.492 1.2734 0 .8125-.735 1.336-1.891 1.336-1.094 0-1.844-.4532-2.039-1.2344h-1.352c.149 1.4531 1.422 2.3515 3.344 2.3515 2.008 0 3.313-1.0156 3.313-2.5781 0-1.2265-.75-1.9453-2.399-2.3203l-1.195-.2734c-1.063-.2344-1.5-.6016-1.5-1.25 0-.7735.695-1.2735 1.773-1.2735.993 0 1.704.4532 1.86 1.1953h1.281c-.156-1.414-1.352-2.2968-3.117-2.2968-1.867 0-3.117.9844-3.117 2.4531Zm11.273.5469c0 2.6562.797 4.9531 2.352 6.7187h1.32c-1.617-2.2734-2.297-4.2656-2.297-6.7187 0-2.4532.68-4.4453 2.297-6.7188h-1.32c-1.555 1.7656-2.352 4.0703-2.352 6.7188ZM103.945 108.156c2.243 0 3.672-1.461 3.672-3.75v-1.281c0-2.289-1.429-3.75-3.672-3.75-2.242 0-3.672 1.461-3.672 3.75v1.281c0 2.289 1.43 3.75 3.672 3.75Zm0-7.609c1.453 0 2.36 1.031 2.36 2.695v1.039c0 1.672-.907 2.696-2.36 2.696-1.453 0-2.359-1.024-2.359-2.696v-1.039c0-1.664.906-2.695 2.359-2.695Zm6.805 1.265c0 1.204.758 1.977 2.289 2.329l1.258.289c1.078.242 1.492.601 1.492 1.273 0 .813-.734 1.336-1.891 1.336-1.093 0-1.843-.453-2.039-1.234h-1.351c.148 1.453 1.422 2.351 3.344 2.351 2.007 0 3.312-1.015 3.312-2.578 0-1.226-.75-1.945-2.398-2.32l-1.196-.274c-1.062-.234-1.5-.601-1.5-1.25 0-.773.696-1.273 1.774-1.273.992 0 1.703.453 1.859 1.195h1.281c-.156-1.414-1.351-2.2966-3.117-2.2966-1.867 0-3.117.9846-3.117 2.4526Zm12.977 6.235c.773 0 1.414-.649 1.414-1.445 0-.79-.641-1.438-1.414-1.438-.774 0-1.415.648-1.415 1.438 0 .796.641 1.445 1.415 1.445Zm67.531-5.688c0 2.657.797 4.953 2.351 6.719h1.321c-1.618-2.273-2.297-4.266-2.297-6.719 0-2.4528.679-4.4449 2.297-6.7184h-1.321c-1.554 1.7656-2.351 4.0703-2.351 6.7184Zm72.64 0c0-2.6481-.796-4.9528-2.351-6.7184h-1.32c1.617 2.2735 2.296 4.2656 2.296 6.7184 0 2.453-.679 4.446-2.296 6.719h1.32c1.555-1.766 2.351-4.062 2.351-6.719Zm7.477 8.235 1.469-5.078h-1.758l-.969 5.078h1.258Zm10.602-2.438c2.242 0 3.671-1.461 3.671-3.75v-1.281c0-2.289-1.429-3.75-3.671-3.75-2.243 0-3.672 1.461-3.672 3.75v1.281c0 2.289 1.429 3.75 3.672 3.75Zm0-7.609c1.453 0 2.359 1.031 2.359 2.695v1.039c0 1.672-.906 2.696-2.359 2.696-1.454 0-2.36-1.024-2.36-2.696v-1.039c0-1.664.906-2.695 2.36-2.695Zm6.804 1.265c0 1.204.758 1.977 2.289 2.329l1.258.289c1.078.242 1.492.601 1.492 1.273 0 .813-.734 1.336-1.89 1.336-1.094 0-1.844-.453-2.039-1.234h-1.352c.149 1.453 1.422 2.351 3.344 2.351 2.008 0 3.312-1.015 3.312-2.578 0-1.226-.75-1.945-2.398-2.32l-1.195-.274c-1.063-.234-1.5-.601-1.5-1.25 0-.773.695-1.273 1.773-1.273.992 0 1.703.453 1.859 1.195h1.282c-.157-1.414-1.352-2.2966-3.118-2.2966-1.867 0-3.117.9846-3.117 2.4526Zm12.977 6.235c.773 0 1.414-.649 1.414-1.445 0-.79-.641-1.438-1.414-1.438-.774 0-1.414.648-1.414 1.438 0 .796.64 1.445 1.414 1.445Zm67.531-5.688c0 2.657.797 4.953 2.352 6.719h1.32c-1.617-2.273-2.297-4.266-2.297-6.719 0-2.4528.68-4.4449 2.297-6.7184h-1.32c-1.555 1.7656-2.352 4.0703-2.352 6.7184Zm82.531 0c0-2.6481-.797-4.9528-2.351-6.7184h-1.321c1.618 2.2735 2.297 4.2656 2.297 6.7184 0 2.453-.679 4.446-2.297 6.719h1.321c1.554-1.766 2.351-4.062 2.351-6.719Zm-346.172 19c0-2.648-.796-4.953-2.351-6.718h-1.32c1.617 2.273 2.296 4.265 2.296 6.718 0 2.453-.679 4.446-2.296 6.719h1.32c1.555-1.766 2.351-4.062 2.351-6.719Zm-2.234 43.782c1.211 0 2.102-.5 2.539-1.438h.149V165h1.304v-11.805h-1.351v4.641h-.141c-.367-.93-1.273-1.453-2.5-1.453-1.961 0-3.242 1.414-3.242 3.586v1.578c0 2.18 1.281 3.594 3.242 3.594Zm.391-1.211c-1.399 0-2.297-1.008-2.297-2.571v-1.218c0-1.563.898-2.563 2.297-2.563 1.39 0 2.289 1 2.289 2.563v1.218c0 1.571-.899 2.571-2.289 2.571Zm8.781 1.07h1.328v-7.32h3.727v-1.133h-3.743v-.875c0-.852.625-1.289 1.805-1.289.477 0 1.57.031 1.938.07v-1.086c-.282-.039-1.461-.078-1.953-.078-2.086 0-3.102.766-3.102 2.406v.852h-2.274v1.133h2.274V165Zm25.164-6.133v-1.289h-8.266v1.289h8.266Zm0 3.563v-1.289h-8.266v1.289h8.266Zm16.18-6.047c-1.211 0-2.094.5-2.539 1.437h-.141v-1.297h-1.312v11.336h1.351v-4.171h.149c.367.929 1.265 1.453 2.492 1.453 1.961 0 3.242-1.414 3.242-3.586v-1.578c0-2.18-1.281-3.594-3.242-3.594Zm-.383 1.219c1.398 0 2.289 1 2.289 2.562v1.219c0 1.562-.891 2.57-2.289 2.57-1.399 0-2.289-1-2.289-2.57v-1.219c0-1.562.89-2.562 2.289-2.562Zm8.883 7.546c1.234 0 2.156-.507 2.562-1.414h.133v1.274h1.266v-5.805c0-1.765-1.141-2.781-3.133-2.781-1.735 0-3.047.93-3.203 2.289h1.304c.219-.727.907-1.141 1.883-1.141 1.18 0 1.828.586 1.828 1.649v.765l-2.328.118c-1.93.101-3.008.992-3.008 2.492 0 1.539 1.078 2.554 2.696 2.554Zm.382-1.164c-1.07 0-1.734-.546-1.734-1.437 0-.883.625-1.391 1.813-1.445l2.179-.102v1c0 1.133-.976 1.984-2.258 1.984Zm6.899 1.016h1.328v-4.992c0-1.446.938-2.422 2.336-2.422 1.32 0 1.945.719 1.945 2.25V165h1.328v-5.5c0-2.031-1-3.133-2.843-3.133-1.289 0-2.258.594-2.711 1.649h-.11v-1.493h-1.273V165Zm12.828.141c1.211 0 2.102-.5 2.539-1.438h.149V165h1.304v-11.805h-1.351v4.641h-.141c-.367-.93-1.273-1.453-2.5-1.453-1.961 0-3.242 1.414-3.242 3.586v1.578c0 2.18 1.281 3.594 3.242 3.594Zm.391-1.211c-1.399 0-2.297-1.008-2.297-2.571v-1.218c0-1.563.898-2.563 2.297-2.563 1.39 0 2.289 1 2.289 2.563v1.218c0 1.571-.899 2.571-2.289 2.571Zm9.172 1.218c1.234 0 2.156-.507 2.562-1.414h.133v1.274h1.265v-5.805c0-1.765-1.14-2.781-3.132-2.781-1.735 0-3.047.93-3.203 2.289h1.304c.219-.727.907-1.141 1.883-1.141 1.18 0 1.828.586 1.828 1.649v.765l-2.328.118c-1.93.101-3.008.992-3.008 2.492 0 1.539 1.078 2.554 2.696 2.554Zm.382-1.164c-1.07 0-1.734-.546-1.734-1.437 0-.883.625-1.391 1.812-1.445l2.18-.102v1c0 1.133-.976 1.984-2.258 1.984Zm7.282-5.172c0 1.204.757 1.977 2.289 2.329l1.257.289c1.079.242 1.493.601 1.493 1.273 0 .813-.735 1.336-1.891 1.336-1.094 0-1.844-.453-2.039-1.234h-1.352c.149 1.453 1.422 2.351 3.344 2.351 2.008 0 3.313-1.015 3.313-2.578 0-1.226-.75-1.945-2.399-2.32l-1.195-.274c-1.063-.234-1.5-.601-1.5-1.25 0-.773.695-1.273 1.773-1.273.993 0 1.703.453 1.86 1.195H206c-.156-1.414-1.352-2.297-3.117-2.297-1.867 0-3.117.985-3.117 2.453Zm12.976 6.235c.774 0 1.414-.649 1.414-1.445 0-.79-.64-1.438-1.414-1.438-.773 0-1.414.648-1.414 1.438 0 .796.641 1.445 1.414 1.445Zm116.985-5.688c0 2.657.796 4.953 2.351 6.719h1.32c-1.617-2.273-2.296-4.266-2.296-6.719 0-2.453.679-4.445 2.296-6.718h-1.32c-1.555 1.765-2.351 4.07-2.351 6.718Zm134.414-.492v-1.289h-8.266v1.289h8.266Zm0 3.563v-1.289h-8.266v1.289h8.266Zm56.914-3.071c0-2.648-.797-4.953-2.352-6.718h-1.32c1.617 2.273 2.297 4.265 2.297 6.718 0 2.453-.68 4.446-2.297 6.719h1.32c1.555-1.766 2.352-4.062 2.352-6.719Zm-413.578 18.805c-.219-1.742-1.5-2.805-3.375-2.805-2.305 0-3.649 1.414-3.649 3.844v1.109c0 2.43 1.344 3.844 3.649 3.844 1.875 0 3.164-1.054 3.375-2.781h-1.313c-.164.969-.992 1.586-2.086 1.586-1.476 0-2.297-1-2.297-2.82v-.766c0-1.82.821-2.828 2.297-2.828 1.094 0 1.922.625 2.086 1.617h1.313Zm5.5 5.984c1.234 0 2.156-.507 2.562-1.414h.133v1.274h1.266v-5.805c0-1.765-1.141-2.781-3.133-2.781-1.735 0-3.047.93-3.203 2.289h1.304c.219-.727.906-1.141 1.883-1.141 1.18 0 1.828.586 1.828 1.649v.765l-2.328.118c-1.93.101-3.008.992-3.008 2.492 0 1.539 1.078 2.554 2.696 2.554Zm.382-1.164c-1.07 0-1.734-.546-1.734-1.437 0-.883.625-1.391 1.813-1.445l2.179-.102v1c0 1.133-.976 1.984-2.258 1.984Zm14.453-5.226c0-1.57-.617-2.391-1.796-2.391-.852 0-1.532.516-1.75 1.328h-.141c-.18-.836-.742-1.328-1.539-1.328-.797 0-1.406.5-1.617 1.352h-.141v-1.196h-1.187V184h1.195v-5.719c0-1.054.469-1.703 1.219-1.703.718 0 1.093.539 1.093 1.563V184h1.188v-5.719c0-1.054.453-1.703 1.195-1.703.711 0 1.086.539 1.086 1.57V184h1.195v-6.242Zm6.336-2.375c-1.21 0-2.093.5-2.539 1.437h-.14v-1.297h-1.313v11.336h1.352v-4.171h.148c.367.929 1.266 1.453 2.492 1.453 1.961 0 3.243-1.414 3.243-3.586v-1.578c0-2.18-1.282-3.594-3.243-3.594Zm-.382 1.219c1.398 0 2.289 1 2.289 2.562v1.219c0 1.562-.891 2.57-2.289 2.57-1.399 0-2.289-1-2.289-2.57v-1.219c0-1.562.89-2.562 2.289-2.562Zm8.882 7.546c1.235 0 2.157-.507 2.563-1.414h.133v1.274h1.265v-5.805c0-1.765-1.14-2.781-3.132-2.781-1.735 0-3.047.93-3.204 2.289h1.305c.219-.727.906-1.141 1.883-1.141 1.18 0 1.828.586 1.828 1.649v.765l-2.328.118c-1.93.101-3.008.992-3.008 2.492 0 1.539 1.078 2.554 2.695 2.554Zm.383-1.164c-1.07 0-1.734-.546-1.734-1.437 0-.883.625-1.391 1.812-1.445l2.18-.102v1c0 1.133-.977 1.984-2.258 1.984Zm10.516-9.539c.625 0 1.101-.468 1.101-1.093 0-.618-.476-1.086-1.101-1.086s-1.102.468-1.102 1.086c0 .625.477 1.093 1.102 1.093ZM157.102 184v-1.102h-2.805v-7.375h-4.195v1.102h2.882v6.273h-2.906V184h7.024Zm5.937 3.18c2.297 0 3.656-1.188 3.656-3.18v-8.477h-1.312v1.313h-.149c-.367-.914-1.296-1.453-2.523-1.453-1.984 0-3.281 1.406-3.281 3.586v1.523c0 2.172 1.289 3.586 3.25 3.586 1.234 0 2.172-.539 2.547-1.43h.14v1.321c0 1.359-.82 2.109-2.305 2.109-1.132 0-1.984-.461-2.156-1.164h-1.312c.172 1.406 1.484 2.266 3.445 2.266Zm-2.273-6.875v-1.164c0-1.555.906-2.563 2.312-2.563 1.399 0 2.297 1 2.297 2.563v1.164c0 1.562-.898 2.57-2.297 2.57-1.406 0-2.312-1.016-2.312-2.57Zm8.945 3.695h1.328v-4.992c0-1.446.938-2.422 2.336-2.422 1.32 0 1.945.719 1.945 2.25V184h1.328v-5.5c0-2.031-1-3.133-2.843-3.133-1.289 0-2.258.594-2.711 1.649h-.11v-1.493h-1.273V184Zm17.414 2.438v-1.149h-8.109v1.149h8.109Zm2.75-8.626c0 1.204.758 1.977 2.289 2.329l1.258.289c1.078.242 1.492.601 1.492 1.273 0 .813-.734 1.336-1.891 1.336-1.093 0-1.843-.453-2.039-1.234h-1.351c.148 1.453 1.422 2.351 3.344 2.351 2.007 0 3.312-1.015 3.312-2.578 0-1.226-.75-1.945-2.398-2.32l-1.196-.274c-1.062-.234-1.5-.601-1.5-1.25 0-.773.696-1.273 1.774-1.273.992 0 1.703.453 1.859 1.195h1.281c-.156-1.414-1.351-2.297-3.117-2.297-1.867 0-3.117.985-3.117 2.453Zm13.508-2.429c-1.211 0-2.094.5-2.539 1.437h-.141v-1.297h-1.312v11.336h1.351v-4.171h.149c.367.929 1.265 1.453 2.492 1.453 1.961 0 3.242-1.414 3.242-3.586v-1.578c0-2.18-1.281-3.594-3.242-3.594Zm-.383 1.219c1.398 0 2.289 1 2.289 2.562v1.219c0 1.562-.891 2.57-2.289 2.57-1.398 0-2.289-1-2.289-2.57v-1.219c0-1.562.891-2.562 2.289-2.562Zm12.031 5.21c-.234.743-1.023 1.196-2.093 1.196-1.446 0-2.368-1-2.368-2.555v-.344h5.774v-.828c0-2.453-1.297-3.914-3.5-3.914-2.156 0-3.586 1.469-3.586 3.703v1.274c0 2.414 1.351 3.812 3.68 3.812 1.781 0 3.124-.945 3.382-2.344h-1.289Zm-2.195-5.304c1.367 0 2.195.976 2.195 2.594h-4.461c0-1.625.852-2.594 2.266-2.594Zm6.328 7.492h1.328v-4.992c0-1.446.938-2.422 2.336-2.422 1.32 0 1.945.719 1.945 2.25V184h1.329v-5.5c0-2.031-1-3.133-2.844-3.133-1.289 0-2.258.594-2.711 1.649h-.109v-1.493h-1.274V184Zm12.828.141c1.211 0 2.102-.5 2.539-1.438h.149V184h1.304v-11.805h-1.351v4.641h-.141c-.367-.93-1.273-1.453-2.5-1.453-1.961 0-3.242 1.414-3.242 3.586v1.578c0 2.18 1.281 3.594 3.242 3.594Zm.391-1.211c-1.399 0-2.297-1.008-2.297-2.571v-1.218c0-1.563.898-2.563 2.297-2.563 1.39 0 2.289 1 2.289 2.563v1.218c0 1.571-.899 2.571-2.289 2.571Zm24.055-5.063v-1.289h-8.266v1.289h8.266Zm0 3.563v-1.289h-8.266v1.289h8.266Zm15.117 2.711c1.211 0 2.101-.5 2.539-1.438h.148V184h1.305v-11.805h-1.352v4.641h-.14c-.367-.93-1.274-1.453-2.5-1.453-1.961 0-3.243 1.414-3.243 3.586v1.578c0 2.18 1.282 3.594 3.243 3.594Zm.39-1.211c-1.398 0-2.297-1.008-2.297-2.571v-1.218c0-1.563.899-2.563 2.297-2.563 1.391 0 2.289 1 2.289 2.563v1.218c0 1.571-.898 2.571-2.289 2.571Zm8.782 1.07h1.328v-7.32h3.726v-1.133h-3.742v-.875c0-.852.625-1.289 1.805-1.289.476 0 1.57.031 1.937.07v-1.086c-.281-.039-1.461-.078-1.953-.078-2.086 0-3.101.766-3.101 2.406v.852h-2.274v1.133h2.274V184Zm11.14.047c.774 0 1.414-.649 1.414-1.445 0-.79-.64-1.438-1.414-1.438-.773 0-1.414.648-1.414 1.438 0 .796.641 1.445 1.414 1.445Zm116.985-5.688c0 2.657.796 4.953 2.351 6.719h1.32c-1.617-2.273-2.296-4.266-2.296-6.719 0-2.453.679-4.445 2.296-6.718h-1.32c-1.555 1.765-2.351 4.07-2.351 6.718Zm171.546 0c0-2.648-.796-4.953-2.351-6.718h-1.32c1.617 2.273 2.296 4.265 2.296 6.718 0 2.453-.679 4.446-2.296 6.719h1.32c1.555-1.766 2.351-4.062 2.351-6.719Z" fill="#000"/><path d="M133.367 111.18c2.297 0 3.656-1.188 3.656-3.18v-8.4766h-1.312v1.3126h-.149c-.367-.9141-1.296-1.4532-2.523-1.4532-1.984 0-3.281 1.4062-3.281 3.5862v1.523c0 2.172 1.289 3.586 3.25 3.586 1.234 0 2.172-.539 2.547-1.43h.14v1.321c0 1.359-.82 2.109-2.304 2.109-1.133 0-1.985-.461-2.157-1.164h-1.312c.172 1.406 1.484 2.266 3.445 2.266Zm-2.273-6.875v-1.164c0-1.555.906-2.563 2.312-2.563 1.399 0 2.297 1 2.297 2.563v1.164c0 1.562-.898 2.57-2.297 2.57-1.406 0-2.312-1.016-2.312-2.57Zm14.703 1.507c-.235.743-1.024 1.196-2.094 1.196-1.445 0-2.367-1-2.367-2.555v-.344h5.773v-.828c0-2.453-1.297-3.9138-3.5-3.9138-2.156 0-3.586 1.4688-3.586 3.7028v1.274c0 2.414 1.352 3.812 3.68 3.812 1.781 0 3.125-.945 3.383-2.344h-1.289Zm-2.195-5.304c1.367 0 2.195.976 2.195 2.594h-4.461c0-1.625.852-2.594 2.266-2.594Zm8.351-3.258v2.2969h-2.258v1.1331h2.258v4.797c0 1.765.977 2.562 3.078 2.562.407 0 1.438-.039 1.649-.078v-1.125c-.227.023-1.078.047-1.555.047-1.195 0-1.844-.5-1.844-1.422v-4.781h3.422v-1.1331h-3.437V97.25h-1.313Zm13.625 8.562c-.234.743-1.023 1.196-2.094 1.196-1.445 0-2.367-1-2.367-2.555v-.344h5.774v-.828c0-2.453-1.297-3.9138-3.5-3.9138-2.157 0-3.586 1.4688-3.586 3.7028v1.274c0 2.414 1.351 3.812 3.679 3.812 1.782 0 3.125-.945 3.383-2.344h-1.289Zm-2.195-5.304c1.367 0 2.195.976 2.195 2.594h-4.461c0-1.625.852-2.594 2.266-2.594Zm6.328 7.492h1.328v-4.992c0-1.446.938-2.422 2.336-2.422 1.32 0 1.945.719 1.945 2.25V108h1.328v-5.5c0-2.031-1-3.1328-2.843-3.1328-1.289 0-2.258.5937-2.711 1.6488h-.11v-1.4926h-1.273V108Zm9.531-8.4766L182.344 108h1.461l3.093-8.4766h-1.414l-2.351 7.0546h-.102l-2.367-7.0546h-1.422ZM311.398 111.18c2.297 0 3.657-1.188 3.657-3.18v-8.4766h-1.313v1.3126h-.148c-.367-.9141-1.297-1.4532-2.524-1.4532-1.984 0-3.281 1.4062-3.281 3.5862v1.523c0 2.172 1.289 3.586 3.25 3.586 1.234 0 2.172-.539 2.547-1.43h.141v1.321c0 1.359-.821 2.109-2.305 2.109-1.133 0-1.984-.461-2.156-1.164h-1.313c.172 1.406 1.485 2.266 3.445 2.266Zm-2.273-6.875v-1.164c0-1.555.906-2.563 2.313-2.563 1.398 0 2.296 1 2.296 2.563v1.164c0 1.562-.898 2.57-2.296 2.57-1.407 0-2.313-1.016-2.313-2.57Zm14.703 1.507c-.234.743-1.023 1.196-2.094 1.196-1.445 0-2.367-1-2.367-2.555v-.344h5.774v-.828c0-2.453-1.297-3.9138-3.5-3.9138-2.157 0-3.586 1.4688-3.586 3.7028v1.274c0 2.414 1.351 3.812 3.679 3.812 1.782 0 3.125-.945 3.383-2.344h-1.289Zm-2.195-5.304c1.367 0 2.195.976 2.195 2.594h-4.461c0-1.625.852-2.594 2.266-2.594Zm8.351-3.258v2.2969h-2.257v1.1331h2.257v4.797c0 1.765.977 2.562 3.078 2.562.407 0 1.438-.039 1.649-.078v-1.125c-.227.023-1.078.047-1.555.047-1.195 0-1.844-.5-1.844-1.422v-4.781h3.422v-1.1331h-3.437V97.25h-1.313Zm13.625 8.562c-.234.743-1.023 1.196-2.093 1.196-1.446 0-2.368-1-2.368-2.555v-.344h5.774v-.828c0-2.453-1.297-3.9138-3.5-3.9138-2.156 0-3.586 1.4688-3.586 3.7028v1.274c0 2.414 1.352 3.812 3.68 3.812 1.781 0 3.125-.945 3.382-2.344h-1.289Zm-2.195-5.304c1.367 0 2.195.976 2.195 2.594h-4.461c0-1.625.852-2.594 2.266-2.594Zm6.328 7.492h1.328v-4.992c0-1.446.938-2.422 2.336-2.422 1.321 0 1.946.719 1.946 2.25V108h1.328v-5.5c0-2.031-1-3.1328-2.844-3.1328-1.289 0-2.258.5937-2.711 1.6488h-.109v-1.4926h-1.274V108Zm9.531-8.4766L360.375 108h1.461l3.094-8.4766h-1.414l-2.352 7.0546h-.102l-2.367-7.0546h-1.422ZM222.102 165.141c1.21 0 2.101-.5 2.539-1.438h.148V165h1.305v-11.805h-1.352v4.641h-.14c-.368-.93-1.274-1.453-2.5-1.453-1.961 0-3.243 1.414-3.243 3.586v1.578c0 2.18 1.282 3.594 3.243 3.594Zm.39-1.211c-1.398 0-2.297-1.008-2.297-2.571v-1.218c0-1.563.899-2.563 2.297-2.563 1.391 0 2.289 1 2.289 2.563v1.218c0 1.571-.898 2.571-2.289 2.571Zm9.172 1.218c1.234 0 2.156-.507 2.563-1.414h.132v1.274h1.266v-5.805c0-1.765-1.141-2.781-3.133-2.781-1.734 0-3.047.93-3.203 2.289h1.305c.218-.727.906-1.141 1.883-1.141 1.179 0 1.828.586 1.828 1.649v.765l-2.328.118c-1.93.101-3.008.992-3.008 2.492 0 1.539 1.078 2.554 2.695 2.554Zm.383-1.164c-1.07 0-1.735-.546-1.735-1.437 0-.883.626-1.391 1.813-1.445l2.18-.102v1c0 1.133-.977 1.984-2.258 1.984Zm8.922-9.734v2.297h-2.258v1.133h2.258v4.797c0 1.765.976 2.562 3.078 2.562.406 0 1.437-.039 1.648-.078v-1.125c-.226.023-1.078.047-1.554.047-1.196 0-1.844-.5-1.844-1.422v-4.781h3.422v-1.133h-3.438v-2.297h-1.312Zm10.476 10.898c1.235 0 2.157-.507 2.563-1.414h.133v1.274h1.265v-5.805c0-1.765-1.14-2.781-3.133-2.781-1.734 0-3.046.93-3.203 2.289h1.305c.219-.727.906-1.141 1.883-1.141 1.18 0 1.828.586 1.828 1.649v.765l-2.328.118c-1.93.101-3.008.992-3.008 2.492 0 1.539 1.078 2.554 2.695 2.554Zm.383-1.164c-1.07 0-1.734-.546-1.734-1.437 0-.883.625-1.391 1.812-1.445l2.18-.102v1c0 1.133-.977 1.984-2.258 1.984Zm14.422 3.454v-1.149h-8.109v1.149h8.109Zm4.586-2.438h1.328v-7.32h3.727v-1.133h-3.743v-.875c0-.852.625-1.289 1.805-1.289.477 0 1.57.031 1.938.07v-1.086c-.282-.039-1.461-.078-1.953-.078-2.086 0-3.102.766-3.102 2.406v.852h-2.274v1.133h2.274V165Zm10.805-3.797c0-2.156 1.109-3.453 2.984-3.453.461 0 1.008.094 1.398.234v-1.492c-.281-.117-.742-.187-1.226-.187-1.633 0-2.688.812-3 2.383h-.172v-2.165h-3.164v1.063h1.883v6.352h-1.711V165h5.633v-1.062h-2.625v-2.735Zm9.367 3.945c1.234 0 2.156-.507 2.562-1.414h.133v1.274h1.266v-5.805c0-1.765-1.141-2.781-3.133-2.781-1.734 0-3.047.93-3.203 2.289h1.305c.218-.727.906-1.141 1.882-1.141 1.18 0 1.828.586 1.828 1.649v.765l-2.328.118c-1.929.101-3.008.992-3.008 2.492 0 1.539 1.079 2.554 2.696 2.554Zm.383-1.164c-1.071 0-1.735-.546-1.735-1.437 0-.883.625-1.391 1.813-1.445l2.179-.102v1c0 1.133-.976 1.984-2.257 1.984Zm14.453-5.226c0-1.57-.617-2.391-1.797-2.391-.852 0-1.531.516-1.75 1.328h-.141c-.179-.836-.742-1.328-1.539-1.328-.797 0-1.406.5-1.617 1.352h-.141v-1.196h-1.187V165h1.195v-5.719c0-1.054.469-1.703 1.219-1.703.719 0 1.094.539 1.094 1.563V165h1.187v-5.719c0-1.054.453-1.703 1.195-1.703.711 0 1.086.539 1.086 1.57V165h1.196v-6.242Zm8.094 4.054c-.235.743-1.024 1.196-2.094 1.196-1.446 0-2.367-1-2.367-2.555v-.344h5.773v-.828c0-2.453-1.297-3.914-3.5-3.914-2.156 0-3.586 1.469-3.586 3.703v1.274c0 2.414 1.352 3.812 3.68 3.812 1.781 0 3.125-.945 3.383-2.344h-1.289Zm-2.196-5.304c1.367 0 2.196.976 2.196 2.594h-4.461c0-1.625.851-2.594 2.265-2.594Zm6.711 1.304c0 1.204.758 1.977 2.289 2.329l1.258.289c1.078.242 1.492.601 1.492 1.273 0 .813-.734 1.336-1.89 1.336-1.094 0-1.844-.453-2.04-1.234h-1.351c.148 1.453 1.422 2.351 3.344 2.351 2.007 0 3.312-1.015 3.312-2.578 0-1.226-.75-1.945-2.398-2.32l-1.196-.274c-1.062-.234-1.5-.601-1.5-1.25 0-.773.696-1.273 1.774-1.273.992 0 1.703.453 1.859 1.195h1.282c-.157-1.414-1.352-2.297-3.118-2.297-1.867 0-3.117.985-3.117 2.453ZM300.508 184h1.328v-7.32h3.726v-1.133h-3.742v-.875c0-.852.625-1.289 1.805-1.289.477 0 1.57.031 1.937.07v-1.086c-.281-.039-1.46-.078-1.953-.078-2.086 0-3.101.766-3.101 2.406v.852h-2.274v1.133h2.274V184Zm11.14.156c2.243 0 3.672-1.461 3.672-3.75v-1.281c0-2.289-1.429-3.75-3.672-3.75-2.242 0-3.671 1.461-3.671 3.75v1.281c0 2.289 1.429 3.75 3.671 3.75Zm0-7.609c1.454 0 2.36 1.031 2.36 2.695v1.039c0 1.672-.906 2.696-2.36 2.696-1.453 0-2.359-1.024-2.359-2.696v-1.039c0-1.664.906-2.695 2.359-2.695Zm9.555 3.656c0-2.156 1.109-3.453 2.985-3.453.46 0 1.007.094 1.398.234v-1.492c-.281-.117-.742-.187-1.227-.187-1.632 0-2.687.812-3 2.383h-.171v-2.165h-3.165v1.063h1.883v6.352h-1.711V184h5.633v-1.062h-2.625v-2.735Zm14.281 6.235v-1.149h-8.109v1.149h8.109Zm5.985-12.993c.625 0 1.101-.468 1.101-1.093 0-.618-.476-1.086-1.101-1.086s-1.102.468-1.102 1.086c0 .625.477 1.093 1.102 1.093ZM345.023 184v-1.102h-2.804v-7.375h-4.196v1.102h2.883v6.273H338V184h7.023Zm2.719 0h1.328v-4.992c0-1.446.938-2.422 2.336-2.422 1.321 0 1.946.719 1.946 2.25V184h1.328v-5.5c0-2.031-1-3.133-2.844-3.133-1.289 0-2.258.594-2.711 1.649h-.109v-1.493h-1.274V184Zm10.274-6.188c0 1.204.757 1.977 2.289 2.329l1.257.289c1.079.242 1.493.601 1.493 1.273 0 .813-.735 1.336-1.891 1.336-1.094 0-1.844-.453-2.039-1.234h-1.352c.149 1.453 1.422 2.351 3.344 2.351 2.008 0 3.313-1.015 3.313-2.578 0-1.226-.75-1.945-2.399-2.32l-1.195-.274c-1.063-.234-1.5-.601-1.5-1.25 0-.773.695-1.273 1.773-1.273.993 0 1.703.453 1.86 1.195h1.281c-.156-1.414-1.352-2.297-3.117-2.297-1.867 0-3.117.985-3.117 2.453Zm13.125-4.367c.625 0 1.101-.468 1.101-1.093 0-.618-.476-1.086-1.101-1.086s-1.102.468-1.102 1.086c0 .625.477 1.093 1.102 1.093ZM374.695 184v-1.102h-2.804v-7.375h-4.196v1.102h2.883v6.273h-2.906V184h7.023Zm5.938 3.18c2.297 0 3.656-1.188 3.656-3.18v-8.477h-1.312v1.313h-.149c-.367-.914-1.297-1.453-2.523-1.453-1.985 0-3.282 1.406-3.282 3.586v1.523c0 2.172 1.289 3.586 3.25 3.586 1.235 0 2.172-.539 2.547-1.43h.141v1.321c0 1.359-.82 2.109-2.305 2.109-1.133 0-1.984-.461-2.156-1.164h-1.312c.171 1.406 1.484 2.266 3.445 2.266Zm-2.274-6.875v-1.164c0-1.555.907-2.563 2.313-2.563 1.398 0 2.297 1 2.297 2.563v1.164c0 1.562-.899 2.57-2.297 2.57-1.406 0-2.313-1.016-2.313-2.57Zm8.938 3.695h1.328v-4.984c0-1.446.945-2.422 2.344-2.422 1.328 0 1.953.726 1.953 2.25V184h1.328v-5.492c0-2.024-1-3.133-2.844-3.133-1.297 0-2.273.594-2.718 1.648h-.11v-4.828h-1.281V184Zm11.922-10.75v2.297h-2.258v1.133h2.258v4.797c0 1.765.976 2.562 3.078 2.562.406 0 1.437-.039 1.648-.078v-1.125c-.226.023-1.078.047-1.554.047-1.196 0-1.844-.5-1.844-1.422v-4.781h3.422v-1.133h-3.438v-2.297h-1.312Z" fill="#919191"/><path d="M345.898 156.523h-1.296l-1.149 6.797h-.141l-1.367-6.789h-1.25l-1.367 6.789h-.14l-1.149-6.797h-1.297l1.82 8.477h1.274l1.437-6.609h.094l1.438 6.609h1.273l1.82-8.477Zm5.313 8.633c2.242 0 3.672-1.461 3.672-3.75v-1.281c0-2.289-1.43-3.75-3.672-3.75s-3.672 1.461-3.672 3.75v1.281c0 2.289 1.43 3.75 3.672 3.75Zm0-7.609c1.453 0 2.359 1.031 2.359 2.695v1.039c0 1.672-.906 2.696-2.359 2.696-1.453 0-2.359-1.024-2.359-2.696v-1.039c0-1.664.906-2.695 2.359-2.695Zm9.555 3.656c0-2.156 1.109-3.453 2.984-3.453.461 0 1.008.094 1.398.234v-1.492c-.281-.117-.742-.187-1.226-.187-1.633 0-2.688.812-3 2.383h-.172v-2.165h-3.164v1.063h1.883v6.352h-1.711V165h5.633v-1.062h-2.625v-2.735Zm8.812-.875h-.101v-7.133h-1.329V165h1.329v-3.086l1.171-1.125 2.891 4.211h1.578l-3.523-5.117 3.289-3.36h-1.61l-3.695 3.805Zm8.219-1.516c0 1.204.758 1.977 2.289 2.329l1.258.289c1.078.242 1.492.601 1.492 1.273 0 .813-.734 1.336-1.891 1.336-1.093 0-1.843-.453-2.039-1.234h-1.351c.148 1.453 1.422 2.351 3.343 2.351 2.008 0 3.313-1.015 3.313-2.578 0-1.226-.75-1.945-2.399-2.32l-1.195-.274c-1.062-.234-1.5-.601-1.5-1.25 0-.773.695-1.273 1.774-1.273.992 0 1.703.453 1.859 1.195h1.281c-.156-1.414-1.351-2.297-3.117-2.297-1.867 0-3.117.985-3.117 2.453Zm13.508-2.429c-1.211 0-2.094.5-2.539 1.437h-.141v-1.297h-1.313v11.336h1.352v-4.171h.148c.368.929 1.266 1.453 2.493 1.453 1.961 0 3.242-1.414 3.242-3.586v-1.578c0-2.18-1.281-3.594-3.242-3.594Zm-.383 1.219c1.398 0 2.289 1 2.289 2.562v1.219c0 1.562-.891 2.57-2.289 2.57-1.399 0-2.289-1-2.289-2.57v-1.219c0-1.562.89-2.562 2.289-2.562Zm8.883 7.546c1.234 0 2.156-.507 2.562-1.414h.133v1.274h1.266v-5.805c0-1.765-1.141-2.781-3.133-2.781-1.735 0-3.047.93-3.203 2.289h1.304c.219-.727.907-1.141 1.883-1.141 1.18 0 1.828.586 1.828 1.649v.765l-2.328.118c-1.929.101-3.008.992-3.008 2.492 0 1.539 1.079 2.554 2.696 2.554Zm.383-1.164c-1.071 0-1.735-.546-1.735-1.437 0-.883.625-1.391 1.813-1.445l2.179-.102v1c0 1.133-.976 1.984-2.257 1.984Zm13.898-4.82c-.219-1.742-1.5-2.805-3.375-2.805-2.305 0-3.649 1.414-3.649 3.844v1.109c0 2.43 1.344 3.844 3.649 3.844 1.875 0 3.164-1.054 3.375-2.781h-1.313c-.164.969-.992 1.586-2.085 1.586-1.477 0-2.297-1-2.297-2.82v-.766c0-1.82.82-2.828 2.297-2.828 1.093 0 1.921.625 2.085 1.617h1.313Zm8.648 3.648c-.234.743-1.023 1.196-2.093 1.196-1.446 0-2.368-1-2.368-2.555v-.344h5.774v-.828c0-2.453-1.297-3.914-3.5-3.914-2.156 0-3.586 1.469-3.586 3.703v1.274c0 2.414 1.351 3.812 3.68 3.812 1.781 0 3.125-.945 3.382-2.344h-1.289Zm-2.195-5.304c1.367 0 2.195.976 2.195 2.594h-4.461c0-1.625.852-2.594 2.266-2.594Zm13.852 9.93v-1.149h-8.11v1.149h8.11Zm5.984-12.993c.625 0 1.102-.468 1.102-1.093 0-.618-.477-1.086-1.102-1.086-.625 0-1.102.468-1.102 1.086 0 .625.477 1.093 1.102 1.093ZM443.93 165v-1.102h-2.805v-7.375h-4.195v1.102h2.882v6.273h-2.906V165h7.024Zm5.656.141c1.211 0 2.102-.5 2.539-1.438h.148V165h1.305v-11.805h-1.351v4.641h-.141c-.367-.93-1.274-1.453-2.5-1.453-1.961 0-3.242 1.414-3.242 3.586v1.578c0 2.18 1.281 3.594 3.242 3.594Zm.391-1.211c-1.399 0-2.297-1.008-2.297-2.571v-1.218c0-1.563.898-2.563 2.297-2.563 1.39 0 2.289 1 2.289 2.563v1.218c0 1.571-.899 2.571-2.289 2.571Z" fill="#1A15FD"/><path fill="url(#paint2_linear_949_10486)" d="M99 149h564v84H99z"/></g><path d="m363 233 18 18 18-18h-36Z" fill="#fff"/><rect x="258" width="246" height="34" rx="17" fill="#1B127D"/><path d="M309.416 22.225c2.31 0 3.825-1.185 4.395-1.98l-1.23-1.17c-.705.795-1.665 1.455-3.15 1.455-2.19 0-3.66-1.665-3.66-3.81 0-2.1 1.455-3.825 3.66-3.825 1.38 0 2.4.645 3.06 1.44l1.305-1.11c-.585-.93-2.175-2.01-4.365-2.01-3.3 0-5.655 2.475-5.655 5.52 0 3.03 2.34 5.49 5.64 5.49Zm7.787-.225v-3.555c0-.93.075-1.515.495-1.98.465-.525 1.245-.66 2.04-.615v-1.875c-.81 0-1.965.375-2.52 1.335h-.03l-.12-1.11h-1.74V22h1.875Zm11.382-3.9c0-2.325-1.545-4.125-3.93-4.125-2.37 0-4.095 1.755-4.095 4.14 0 2.265 1.575 4.11 4.14 4.11 1.65 0 2.82-.87 3.3-1.53l-1.2-1.035c-.27.375-.945 1.02-2.085 1.02-1.44 0-2.22-1.035-2.25-1.965h6.105c.015-.21.015-.42.015-.615Zm-3.945-2.655c1.32 0 1.995 1.05 2.055 1.86h-4.215c.105-.825.795-1.86 2.16-1.86Zm7.895 6.78c1.335 0 2.1-.69 2.43-1.17h.03l.09.945h1.74v-4.68c0-1.11-.21-1.71-.6-2.205-.615-.78-1.65-1.14-2.73-1.14-2.04 0-3.12 1.125-3.405 1.575l1.065 1.035c.465-.585 1.23-1.11 2.235-1.11s1.665.6 1.665 1.515v.09c-2.445.075-3.54.18-4.335.84-.525.405-.885 1.035-.885 1.83 0 1.635 1.215 2.475 2.7 2.475Zm.345-1.485c-.645 0-1.215-.3-1.215-1.035 0-1.14 1.245-1.29 3.39-1.335v.09c0 1.38-.855 2.28-2.175 2.28Zm10.725-.465c-.21.135-.57.315-1.065.315-.945 0-1.215-.72-1.215-1.515v-3.3h2.4V14.2h-2.4v-2.385h-1.875V14.2h-1.44v1.575h1.44v3.465c0 1.77.99 2.985 2.85 2.985.84 0 1.575-.27 2.01-.615l-.705-1.335Zm9.296-2.175c0-2.325-1.545-4.125-3.93-4.125-2.37 0-4.095 1.755-4.095 4.14 0 2.265 1.575 4.11 4.14 4.11 1.65 0 2.82-.87 3.3-1.53l-1.2-1.035c-.27.375-.945 1.02-2.085 1.02-1.44 0-2.22-1.035-2.25-1.965h6.105c.015-.21.015-.42.015-.615Zm-3.945-2.655c1.32 0 1.995 1.05 2.055 1.86h-4.215c.105-.825.795-1.86 2.16-1.86Zm13.034 6.78c1.26 0 2.19-.57 2.655-1.215h.015l.09.99h1.74V10.825h-1.875v4.29h-.015c-.48-.6-1.365-1.14-2.64-1.14-2.37 0-3.915 1.845-3.915 4.125 0 2.265 1.53 4.125 3.945 4.125Zm.315-1.635c-1.41 0-2.355-1.11-2.355-2.49 0-1.395.945-2.505 2.355-2.505 1.425 0 2.34 1.11 2.34 2.505 0 1.38-.915 2.49-2.34 2.49Zm8.726 1.635c1.335 0 2.1-.69 2.43-1.17h.03l.09.945h1.74v-4.68c0-1.11-.21-1.71-.6-2.205-.615-.78-1.65-1.14-2.73-1.14-2.04 0-3.12 1.125-3.405 1.575l1.065 1.035c.465-.585 1.23-1.11 2.235-1.11s1.665.6 1.665 1.515v.09c-2.445.075-3.54.18-4.335.84-.525.405-.885 1.035-.885 1.83 0 1.635 1.215 2.475 2.7 2.475Zm.345-1.485c-.645 0-1.215-.3-1.215-1.035 0-1.14 1.245-1.29 3.39-1.335v.09c0 1.38-.855 2.28-2.175 2.28Zm10.725-.465c-.21.135-.57.315-1.065.315-.945 0-1.215-.72-1.215-1.515v-3.3h2.4V14.2h-2.4v-2.385h-1.875V14.2h-1.44v1.575h1.44v3.465c0 1.77.99 2.985 2.85 2.985.84 0 1.575-.27 2.01-.615l-.705-1.335Zm4.179 1.95c1.335 0 2.1-.69 2.43-1.17h.03l.09.945h1.74v-4.68c0-1.11-.21-1.71-.6-2.205-.615-.78-1.65-1.14-2.73-1.14-2.04 0-3.12 1.125-3.405 1.575l1.065 1.035c.465-.585 1.23-1.11 2.235-1.11s1.665.6 1.665 1.515v.09c-2.445.075-3.54.18-4.335.84-.525.405-.885 1.035-.885 1.83 0 1.635 1.215 2.475 2.7 2.475Zm.345-1.485c-.645 0-1.215-.3-1.215-1.035 0-1.14 1.245-1.29 3.39-1.335v.09c0 1.38-.855 2.28-2.175 2.28Zm11.994 4.44v-4.11h.015c.48.585 1.35 1.155 2.64 1.155 2.415 0 3.915-1.86 3.915-4.125 0-2.28-1.5-4.125-3.915-4.125-1.26 0-2.175.555-2.67 1.2h-.03l-.075-.975h-1.755v10.98h1.875Zm2.31-4.59c-1.41 0-2.34-1.11-2.34-2.49 0-1.395.93-2.505 2.34-2.505 1.395 0 2.37 1.11 2.37 2.505 0 1.38-.975 2.49-2.37 2.49Zm6.941-7.71c.675 0 1.215-.525 1.215-1.215 0-.66-.54-1.2-1.215-1.2-.69 0-1.23.54-1.23 1.2 0 .69.54 1.215 1.23 1.215Zm.945 9.12v-7.8h-1.875V22h1.875Zm4.145 3.18v-4.11h.015c.48.585 1.35 1.155 2.64 1.155 2.415 0 3.915-1.86 3.915-4.125 0-2.28-1.5-4.125-3.915-4.125-1.26 0-2.175.555-2.67 1.2h-.03l-.075-.975h-1.755v10.98h1.875Zm2.31-4.59c-1.41 0-2.34-1.11-2.34-2.49 0-1.395.93-2.505 2.34-2.505 1.395 0 2.37 1.11 2.37 2.505 0 1.38-.975 2.49-2.37 2.49Zm13.598-2.49c0-2.325-1.545-4.125-3.93-4.125-2.37 0-4.095 1.755-4.095 4.14 0 2.265 1.575 4.11 4.14 4.11 1.65 0 2.82-.87 3.3-1.53l-1.2-1.035c-.27.375-.945 1.02-2.085 1.02-1.44 0-2.22-1.035-2.25-1.965h6.105c.015-.21.015-.42.015-.615Zm-3.945-2.655c1.32 0 1.995 1.05 2.055 1.86h-4.215c.105-.825.795-1.86 2.16-1.86ZM432.428 22V10.825h-1.875V22h1.875Zm3.23-9.12c.675 0 1.215-.525 1.215-1.215 0-.66-.54-1.2-1.215-1.2-.69 0-1.23.54-1.23 1.2 0 .69.54 1.215 1.23 1.215Zm.945 9.12v-7.8h-1.875V22h1.875Zm4.145 0v-4.26c0-1.245.645-2.13 1.815-2.13.915 0 1.575.6 1.575 1.845V22h1.875v-4.905c0-1.965-1.125-3.12-2.925-3.12-1.47 0-2.145.855-2.37 1.185h-.015l-.09-.96h-1.74V22h1.875Zm14.927-3.9c0-2.325-1.545-4.125-3.93-4.125-2.37 0-4.095 1.755-4.095 4.14 0 2.265 1.575 4.11 4.14 4.11 1.65 0 2.82-.87 3.3-1.53l-1.2-1.035c-.27.375-.945 1.02-2.085 1.02-1.44 0-2.22-1.035-2.25-1.965h6.105c.015-.21.015-.42.015-.615Zm-3.945-2.655c1.32 0 1.995 1.05 2.055 1.86h-4.215c.105-.825.795-1.86 2.16-1.86Zm8.42 6.78c2.025 0 3.405-1.11 3.405-2.625 0-3.045-4.695-1.83-4.695-3.255 0-.555.57-.885 1.395-.885 1.155 0 1.815.585 2.085.9l1.125-.945c-.15-.255-1.08-1.44-3.24-1.44-2.085 0-3.225 1.245-3.225 2.49 0 3.045 4.695 1.845 4.695 3.3 0 .615-.615.96-1.53.96-1.23 0-2.01-.69-2.28-1.035l-1.14 1.065c.135.24 1.095 1.47 3.405 1.47Z" fill="#fff"/><defs><filter id="filter0_dddddd_949_10486" x="71.1061" y="254.805" width="162.835" height="162.835" filterUnits="userSpaceOnUse" color-interpolation-filters="sRGB"><feFlood flood-opacity="0" result="BackgroundImageFix"/><feColorMatrix in="SourceAlpha" values="0 0 0 0 0 0 0 0 0 0 0 0 0 0 0 0 0 0 127 0" result="hardAlpha"/><feOffset dy=".626571"/><feGaussianBlur stdDeviation=".596735"/><feColorMatrix values="0 0 0 0 0.109804 0 0 0 0 0.0509804 0 0 0 0 0.247059 0 0 0 0.0196802 0"/><feBlend in2="BackgroundImageFix" result="effect1_dropShadow_949_10486"/><feColorMatrix in="SourceAlpha" values="0 0 0 0 0 0 0 0 0 0 0 0 0 0 0 0 0 0 127 0" result="hardAlpha"/><feOffset dy="1.50574"/><feGaussianBlur stdDeviation="1.43404"/><feColorMatrix values="0 0 0 0 0.109804 0 0 0 0 0.0509804 0 0 0 0 0.247059 0 0 0 0.0282725 0"/><feBlend in2="effect1_dropShadow_949_10486" result="effect2_dropShadow_949_10486"/><feColorMatrix in="SourceAlpha" values="0 0 0 0 0 0 0 0 0 0 0 0 0 0 0 0 0 0 127 0" result="hardAlpha"/><feOffset dy="2.83517"/><feGaussianBlur stdDeviation="2.70016"/><feColorMatrix values="0 0 0 0 0.109804 0 0 0 0 0.0509804 0 0 0 0 0.247059 0 0 0 0.035 0"/><feBlend in2="effect2_dropShadow_949_10486" result="effect3_dropShadow_949_10486"/><feColorMatrix in="SourceAlpha" values="0 0 0 0 0 0 0 0 0 0 0 0 0 0 0 0 0 0 127 0" result="hardAlpha"/><feOffset dy="5.05746"/><feGaussianBlur stdDeviation="4.81663"/><feColorMatrix values="0 0 0 0 0.109804 0 0 0 0 0.0509804 0 0 0 0 0.247059 0 0 0 0.0417275 0"/><feBlend in2="effect3_dropShadow_949_10486" result="effect4_dropShadow_949_10486"/><feColorMatrix in="SourceAlpha" values="0 0 0 0 0 0 0 0 0 0 0 0 0 0 0 0 0 0 127 0" result="hardAlpha"/><feOffset dy="9.45942"/><feGaussianBlur stdDeviation="9.00898"/><feColorMatrix values="0 0 0 0 0.109804 0 0 0 0 0.0509804 0 0 0 0 0.247059 0 0 0 0.0503198 0"/><feBlend in2="effect4_dropShadow_949_10486" result="effect5_dropShadow_949_10486"/><feColorMatrix in="SourceAlpha" values="0 0 0 0 0 0 0 0 0 0 0 0 0 0 0 0 0 0 127 0" result="hardAlpha"/><feOffset dy="22.6423"/><feGaussianBlur stdDeviation="21.5641"/><feColorMatrix values="0 0 0 0 0.109804 0 0 0 0 0.0509804 0 0 0 0 0.247059 0 0 0 0.07 0"/><feBlend in2="effect5_dropShadow_949_10486" result="effect6_dropShadow_949_10486"/><feBlend in="SourceGraphic" in2="effect6_dropShadow_949_10486" result="shape"/></filter><filter id="filter1_dddddd_949_10486" x="281.897" y="274.729" width="197.439" height="212.525" filterUnits="userSpaceOnUse" color-interpolation-filters="sRGB"><feFlood flood-opacity="0" result="BackgroundImageFix"/><feColorMatrix in="SourceAlpha" values="0 0 0 0 0 0 0 0 0 0 0 0 0 0 0 0 0 0 127 0" result="hardAlpha"/><feOffset dy="2.08738"/><feGaussianBlur stdDeviation=".834951"/><feColorMatrix values="0 0 0 0 0.109804 0 0 0 0 0.0509804 0 0 0 0 0.247059 0 0 0 0.0196802 0"/><feBlend in2="BackgroundImageFix" result="effect1_dropShadow_949_10486"/><feColorMatrix in="SourceAlpha" values="0 0 0 0 0 0 0 0 0 0 0 0 0 0 0 0 0 0 127 0" result="hardAlpha"/><feOffset dy="5.01626"/><feGaussianBlur stdDeviation="2.0065"/><feColorMatrix values="0 0 0 0 0.109804 0 0 0 0 0.0509804 0 0 0 0 0.247059 0 0 0 0.0282725 0"/><feBlend in2="effect1_dropShadow_949_10486" result="effect2_dropShadow_949_10486"/><feColorMatrix in="SourceAlpha" values="0 0 0 0 0 0 0 0 0 0 0 0 0 0 0 0 0 0 127 0" result="hardAlpha"/><feOffset dy="9.44516"/><feGaussianBlur stdDeviation="3.77807"/><feColorMatrix values="0 0 0 0 0.109804 0 0 0 0 0.0509804 0 0 0 0 0.247059 0 0 0 0.035 0"/><feBlend in2="effect2_dropShadow_949_10486" result="effect3_dropShadow_949_10486"/><feColorMatrix in="SourceAlpha" values="0 0 0 0 0 0 0 0 0 0 0 0 0 0 0 0 0 0 127 0" result="hardAlpha"/><feOffset dy="16.8486"/><feGaussianBlur stdDeviation="6.73942"/><feColorMatrix values="0 0 0 0 0.109804 0 0 0 0 0.0509804 0 0 0 0 0.247059 0 0 0 0.0417275 0"/><feBlend in2="effect3_dropShadow_949_10486" result="effect4_dropShadow_949_10486"/><feColorMatrix in="SourceAlpha" values="0 0 0 0 0 0 0 0 0 0 0 0 0 0 0 0 0 0 127 0" result="hardAlpha"/><feOffset dy="31.5134"/><feGaussianBlur stdDeviation="12.6054"/><feColorMatrix values="0 0 0 0 0.109804 0 0 0 0 0.0509804 0 0 0 0 0.247059 0 0 0 0.0503198 0"/><feBlend in2="effect4_dropShadow_949_10486" result="effect5_dropShadow_949_10486"/><feColorMatrix in="SourceAlpha" values="0 0 0 0 0 0 0 0 0 0 0 0 0 0 0 0 0 0 127 0" result="hardAlpha"/><feOffset dy="75.4313"/><feGaussianBlur stdDeviation="30.1725"/><feColorMatrix values="0 0 0 0 0.109804 0 0 0 0 0.0509804 0 0 0 0 0.247059 0 0 0 0.07 0"/><feBlend in2="effect5_dropShadow_949_10486" result="effect6_dropShadow_949_10486"/><feBlend in="SourceGraphic" in2="effect6_dropShadow_949_10486" result="shape"/></filter><filter id="filter2_dddddd_949_10486" x="511.022" y="274.729" width="197.439" height="212.525" filterUnits="userSpaceOnUse" color-interpolation-filters="sRGB"><feFlood flood-opacity="0" result="BackgroundImageFix"/><feColorMatrix in="SourceAlpha" values="0 0 0 0 0 0 0 0 0 0 0 0 0 0 0 0 0 0 127 0" result="hardAlpha"/><feOffset dy="2.08738"/><feGaussianBlur stdDeviation=".834951"/><feColorMatrix values="0 0 0 0 0.109804 0 0 0 0 0.0509804 0 0 0 0 0.247059 0 0 0 0.0196802 0"/><feBlend in2="BackgroundImageFix" result="effect1_dropShadow_949_10486"/><feColorMatrix in="SourceAlpha" values="0 0 0 0 0 0 0 0 0 0 0 0 0 0 0 0 0 0 127 0" result="hardAlpha"/><feOffset dy="5.01626"/><feGaussianBlur stdDeviation="2.0065"/><feColorMatrix values="0 0 0 0 0.109804 0 0 0 0 0.0509804 0 0 0 0 0.247059 0 0 0 0.0282725 0"/><feBlend in2="effect1_dropShadow_949_10486" result="effect2_dropShadow_949_10486"/><feColorMatrix in="SourceAlpha" values="0 0 0 0 0 0 0 0 0 0 0 0 0 0 0 0 0 0 127 0" result="hardAlpha"/><feOffset dy="9.44516"/><feGaussianBlur stdDeviation="3.77807"/><feColorMatrix values="0 0 0 0 0.109804 0 0 0 0 0.0509804 0 0 0 0 0.247059 0 0 0 0.035 0"/><feBlend in2="effect2_dropShadow_949_10486" result="effect3_dropShadow_949_10486"/><feColorMatrix in="SourceAlpha" values="0 0 0 0 0 0 0 0 0 0 0 0 0 0 0 0 0 0 127 0" result="hardAlpha"/><feOffset dy="16.8486"/><feGaussianBlur stdDeviation="6.73942"/><feColorMatrix values="0 0 0 0 0.109804 0 0 0 0 0.0509804 0 0 0 0 0.247059 0 0 0 0.0417275 0"/><feBlend in2="effect3_dropShadow_949_10486" result="effect4_dropShadow_949_10486"/><feColorMatrix in="SourceAlpha" values="0 0 0 0 0 0 0 0 0 0 0 0 0 0 0 0 0 0 127 0" result="hardAlpha"/><feOffset dy="31.5134"/><feGaussianBlur stdDeviation="12.6054"/><feColorMatrix values="0 0 0 0 0.109804 0 0 0 0 0.0509804 0 0 0 0 0.247059 0 0 0 0.0503198 0"/><feBlend in2="effect4_dropShadow_949_10486" result="effect5_dropShadow_949_10486"/><feColorMatrix in="SourceAlpha" values="0 0 0 0 0 0 0 0 0 0 0 0 0 0 0 0 0 0 127 0" result="hardAlpha"/><feOffset dy="75.4313"/><feGaussianBlur stdDeviation="30.1725"/><feColorMatrix values="0 0 0 0 0.109804 0 0 0 0 0.0509804 0 0 0 0 0.247059 0 0 0 0.07 0"/><feBlend in2="effect5_dropShadow_949_10486" result="effect6_dropShadow_949_10486"/><feBlend in="SourceGraphic" in2="effect6_dropShadow_949_10486" result="shape"/></filter><filter id="filter3_dddddd_949_10486" x=".654984" y="17" width="760.69" height="351.776" filterUnits="userSpaceOnUse" color-interpolation-filters="sRGB"><feFlood flood-opacity="0" result="BackgroundImageFix"/><feColorMatrix in="SourceAlpha" values="0 0 0 0 0 0 0 0 0 0 0 0 0 0 0 0 0 0 127 0" result="hardAlpha"/><feOffset dy="2.08738"/><feGaussianBlur stdDeviation=".834951"/><feColorMatrix values="0 0 0 0 0.109804 0 0 0 0 0.0509804 0 0 0 0 0.247059 0 0 0 0.0196802 0"/><feBlend in2="BackgroundImageFix" result="effect1_dropShadow_949_10486"/><feColorMatrix in="SourceAlpha" values="0 0 0 0 0 0 0 0 0 0 0 0 0 0 0 0 0 0 127 0" result="hardAlpha"/><feOffset dy="5.01626"/><feGaussianBlur stdDeviation="2.0065"/><feColorMatrix values="0 0 0 0 0.109804 0 0 0 0 0.0509804 0 0 0 0 0.247059 0 0 0 0.0282725 0"/><feBlend in2="effect1_dropShadow_949_10486" result="effect2_dropShadow_949_10486"/><feColorMatrix in="SourceAlpha" values="0 0 0 0 0 0 0 0 0 0 0 0 0 0 0 0 0 0 127 0" result="hardAlpha"/><feOffset dy="9.44516"/><feGaussianBlur stdDeviation="3.77807"/><feColorMatrix values="0 0 0 0 0.109804 0 0 0 0 0.0509804 0 0 0 0 0.247059 0 0 0 0.035 0"/><feBlend in2="effect2_dropShadow_949_10486" result="effect3_dropShadow_949_10486"/><feColorMatrix in="SourceAlpha" values="0 0 0 0 0 0 0 0 0 0 0 0 0 0 0 0 0 0 127 0" result="hardAlpha"/><feOffset dy="16.8486"/><feGaussianBlur stdDeviation="6.73942"/><feColorMatrix values="0 0 0 0 0.109804 0 0 0 0 0.0509804 0 0 0 0 0.247059 0 0 0 0.0417275 0"/><feBlend in2="effect3_dropShadow_949_10486" result="effect4_dropShadow_949_10486"/><feColorMatrix in="SourceAlpha" values="0 0 0 0 0 0 0 0 0 0 0 0 0 0 0 0 0 0 127 0" result="hardAlpha"/><feOffset dy="31.5134"/><feGaussianBlur stdDeviation="12.6054"/><feColorMatrix values="0 0 0 0 0.109804 0 0 0 0 0.0509804 0 0 0 0 0.247059 0 0 0 0.0503198 0"/><feBlend in2="effect4_dropShadow_949_10486" result="effect5_dropShadow_949_10486"/><feColorMatrix in="SourceAlpha" values="0 0 0 0 0 0 0 0 0 0 0 0 0 0 0 0 0 0 127 0" result="hardAlpha"/><feOffset dy="75.4313"/><feGaussianBlur stdDeviation="30.1725"/><feColorMatrix values="0 0 0 0 0.109804 0 0 0 0 0.0509804 0 0 0 0 0.247059 0 0 0 0.07 0"/><feBlend in2="effect5_dropShadow_949_10486" result="effect6_dropShadow_949_10486"/><feBlend in="SourceGraphic" in2="effect6_dropShadow_949_10486" result="shape"/></filter><linearGradient id="paint0_linear_949_10486" x1="357.155" y1="289.975" x2="385.872" y2="318.788" gradientUnits="userSpaceOnUse"><stop stop-color="#387EB8"/><stop offset="1" stop-color="#366994"/></linearGradient><linearGradient id="paint1_linear_949_10486" x1="374.827" y1="308.302" x2="405.669" y2="337.85" gradientUnits="userSpaceOnUse"><stop stop-color="#FFE052"/><stop offset="1" stop-color="#FFC331"/></linearGradient><linearGradient id="paint2_linear_949_10486" x1="381" y1="149" x2="381" y2="233" gradientUnits="userSpaceOnUse"><stop stop-color="#fff" stop-opacity="0"/><stop offset=".598958" stop-color="#fff"/></linearGradient></defs></svg>