<svg width="1171" height="1171" viewBox="0 0 1171 1171" fill="none" xmlns="http://www.w3.org/2000/svg">
<path fill-rule="evenodd" clip-rule="evenodd" d="M561.009 2.18306C569.131 1.84793 577.295 1.67871 585.499 1.67871C603.142 1.67871 620.601 2.46124 637.845 3.99347C635.541 3.89973 633.245 3.83629 630.961 3.80763C602.524 1.74419 574.32 1.38957 553.063 10.3054C541.821 15.0208 532.508 22.3335 526.135 33.3558C519.765 44.3714 516.355 59.0506 516.836 78.4624C517.8 117.3 536.383 164.758 576.047 228.024C598.398 263.676 627.457 304.366 663.859 351.386C663.089 354.466 662.253 357.554 661.349 360.649C652.846 378.464 641.72 395.612 628.293 412.093C622.277 404.179 616.293 396.202 610.374 388.155C568.532 331.277 529.886 270.93 505.232 204.712C468.739 106.696 482.852 56.2018 505.864 30.2042C517.385 17.1885 531.179 10.2605 542.101 6.58622C547.561 4.7494 552.299 3.72725 555.67 3.16451C557.355 2.88317 558.698 2.71676 559.618 2.62078C560.078 2.57279 560.432 2.54242 560.67 2.52409C560.789 2.51493 560.879 2.50878 560.939 2.50494L561.005 2.50084L561.021 2.49993L561.025 2.49973C561.026 2.49971 561.026 2.4997 561.009 2.18306ZM627.642 412.889C621.574 404.909 615.539 396.863 609.568 388.747C567.706 331.841 528.997 271.407 504.295 205.061C467.743 106.888 481.749 55.9397 505.116 29.5414C516.784 16.359 530.746 9.35089 541.782 5.63842C546.287 4.1229 550.307 3.15562 553.489 2.54139C544.906 3.00519 536.372 3.65439 527.891 4.48506L527.941 5.06575C526.947 5.1522 525.867 5.23475 524.712 5.32303C510.054 6.44344 483.317 8.48704 466.489 31.1598C448.336 55.6181 441.579 104.298 474.561 202.371C496.832 268.594 532.229 330.71 570.682 389.614C581.576 406.301 592.713 422.729 603.866 438.918C612.424 430.435 620.367 421.759 627.642 412.889ZM604.443 439.754C613.013 431.268 620.97 422.585 628.264 413.707C630.255 416.324 632.25 418.933 634.248 421.537C627.801 432.048 620.616 442.116 612.763 451.783C609.991 447.788 607.217 443.779 604.443 439.754ZM603.144 439.632C591.954 423.391 580.777 406.907 569.845 390.16C531.374 331.229 495.923 269.03 473.613 202.689C440.617 104.574 447.215 55.4503 465.686 30.5638C475.612 17.1901 488.929 10.8777 501.218 7.71736C484.772 10.0953 468.548 13.1588 452.575 16.8779L452.627 17.0721C435.33 21.6365 416.201 32.5723 407.629 61.0064C399.04 89.4979 401.028 135.625 426.248 210.619C448.516 276.834 485.676 338.578 526.778 396.927C542.868 419.769 559.56 442.088 576.197 463.949C585.519 456.21 594.324 448.293 602.569 440.198C602.761 440.009 602.953 439.821 603.144 439.632ZM576.804 464.746C586.158 456.98 594.995 449.036 603.27 440.911C603.42 440.764 603.57 440.616 603.72 440.468C606.516 444.524 609.312 448.564 612.105 452.59C604.583 461.786 596.456 470.618 587.786 479.126C584.133 474.354 580.47 469.561 576.804 464.746ZM575.427 464.588C558.778 442.711 542.069 420.37 525.96 397.503C484.836 339.122 447.613 277.286 425.3 210.938C400.059 135.882 397.992 89.5104 406.672 60.7177C413.861 36.8708 428.406 25.1281 443.139 19.1586C393.612 31.5684 346.594 50.3047 302.994 74.4585C299.031 80.2701 296.073 86.2807 294.01 92.4929C298.169 92.3509 302.161 92.6527 305.968 93.3804L306.03 93.3923L306.186 93.4226C309.006 83.6547 313.417 74.3608 319.71 65.5506L320.524 66.1318C314.32 74.8178 309.961 83.9832 307.168 93.6253C326.073 97.727 340.147 112.473 347.331 135.295C355.831 162.298 354.719 200.679 340.559 246.44C341.726 248.556 342.901 250.683 344.082 252.823C377.234 312.85 415.378 381.915 425.877 460.128C430.602 495.324 427.571 525.953 418.852 552.926C434.809 547.652 450.755 541.951 466.607 535.854C507.489 514.069 544.309 490.313 575.427 464.588ZM474.187 532.906C512.27 512.155 546.677 489.648 576.033 465.384C579.716 470.222 583.396 475.037 587.066 479.831C586.793 480.098 586.519 480.364 586.244 480.631C585.834 481.028 585.423 481.425 585.011 481.821C562.63 493.771 539.56 504.999 516.081 515.398C502.239 521.529 488.255 527.372 474.187 532.906ZM459.316 539.696C445.741 544.799 432.108 549.608 418.466 554.106C417.711 556.39 416.915 558.647 416.079 560.878C430.902 554.043 445.336 546.982 459.316 539.696ZM415.574 562.212C433.312 554.053 450.498 545.57 467.024 536.765C483.646 530.371 500.165 523.542 516.486 516.312C538.878 506.394 560.9 495.723 582.311 484.389C551.445 513.455 514.194 538.697 473.15 561.686C448.33 575.589 422.132 588.662 395.13 601.257C403.293 589.166 410.213 576.197 415.574 562.212ZM414.785 561.474C415.66 559.176 416.493 556.85 417.282 554.496C413.227 555.827 409.172 557.131 405.118 558.406C404.548 561.206 403.929 563.967 403.261 566.69C407.127 564.966 410.969 563.227 414.785 561.474ZM402.956 567.921C406.751 566.232 410.523 564.528 414.27 562.811C408.783 576.89 401.704 589.932 393.359 602.081C392.398 602.528 391.435 602.975 390.472 603.421C395.57 592.344 399.781 580.545 402.956 567.921ZM402.104 567.205C402.796 564.427 403.438 561.609 404.027 558.749C335.724 580.155 267.665 593.571 206.234 596.596C152.556 599.24 114.086 590.167 86.7131 574.584C73.1103 566.84 62.2582 557.494 53.6479 547.193C45.5252 544.425 38.6232 539.388 33.1747 532.031C32.2479 530.779 31.3637 529.461 30.5232 528.077C15.0578 559.568 5.33483 588.623 3.24212 614.522C4.78892 633.592 10.6298 652.212 23.6438 667.993C38.3031 685.769 62.1109 699.999 99.2917 707.173C103.038 707.896 106.92 708.548 110.942 709.124C154.659 672.488 224.659 635.628 326.228 597.984C352.312 588.316 377.694 578.057 402.104 567.205ZM112.277 709.311C155.903 672.98 225.57 636.357 326.575 598.922C352.419 589.343 377.579 579.182 401.793 568.438C398.553 581.12 394.26 592.962 389.069 604.07C353.579 620.461 316.786 636.075 279.975 651.698C254.798 662.383 229.612 673.072 204.83 684.014C183.725 693.333 165.639 702.751 150.178 712.162C136.355 711.873 123.754 710.896 112.277 709.311ZM109.918 709.986C106.194 709.439 102.59 708.828 99.1022 708.155C61.7566 700.949 37.716 686.629 22.8723 668.629C11.0878 654.339 5.12968 637.766 2.88746 620.673C2.86568 621.315 2.84889 621.956 2.83711 622.594C3.38826 631.385 4.13393 640.122 5.06987 648.803C7.97571 663.77 13.9199 678.125 24.2664 690.729C37.7199 707.118 58.6541 720.592 90.1454 728.584C92.6014 725.985 95.185 723.387 97.8981 720.787C101.654 717.188 105.659 713.588 109.918 709.986ZM91.2585 728.863C93.5868 726.413 96.0301 723.962 98.59 721.509C102.53 717.734 106.746 713.957 111.243 710.176C122.57 711.779 134.992 712.788 148.603 713.126C137.318 720.075 127.457 727.019 118.859 733.915C113.026 733.178 107.466 732.291 102.169 731.264C98.4004 730.533 94.7648 729.732 91.2585 728.863ZM89.3631 729.416C58.0092 721.367 37.034 707.858 23.4935 691.364C14.9754 680.987 9.41413 669.446 6.05778 657.372C13.512 718.093 30.2888 775.929 54.9128 829.407C51.6507 813.402 52.2664 797.451 57.2055 781.519C62.5978 764.125 73.1354 746.778 89.3631 729.416ZM56.9099 833.698C52.5841 816.335 52.8137 799.063 58.1607 781.815C63.5401 764.463 74.1072 747.109 90.4703 729.697C94.1628 730.623 97.9975 731.474 101.979 732.245C107.008 733.22 112.272 734.07 117.781 734.785C89.0475 758.107 74.7092 780.865 68.6007 801.428C61.444 825.518 65.6088 846.52 71.0436 861.753C66.0897 852.547 61.3757 843.193 56.9099 833.698ZM58.4467 839.251C63.3179 849.35 68.4707 859.287 73.8951 869.054C75.503 872.854 77.0733 876.137 78.3651 878.838L78.4976 879.115L79.3717 878.697C86.5139 890.999 94.0919 903.018 102.084 914.731C103.325 916.987 104.613 919.027 105.909 920.827L106.169 920.639C124.542 946.867 145.012 971.518 167.337 994.348C170.053 997.726 172.771 1000.64 175.228 1002.99L175.583 1002.62C189.405 1016.2 203.9 1029.1 219.012 1041.27L218.887 1041.45C219.5 1041.88 220.146 1042.3 220.823 1042.72C320.815 1122.58 447.582 1170.32 585.499 1170.32C805.138 1170.32 996.497 1049.24 1096.47 870.191C1098.31 867.4 1100.09 864.556 1101.82 861.658L1101.31 861.353C1141.07 787.156 1165.29 703.384 1169.62 614.388C1170.17 606.708 1170.4 598.838 1170.3 590.774C1170.31 589.018 1170.32 587.26 1170.32 585.5C1170.32 404.528 1088.12 242.755 959.019 135.482C958.975 135.437 958.931 135.393 958.887 135.349L958.777 135.241C958.62 135.086 958.468 134.938 958.32 134.797L958.265 134.855C919.625 102.858 876.803 75.7344 830.74 54.4277L830.553 54.2635L830.352 54.0886C830.196 53.952 830.039 53.8156 829.881 53.6793L829.663 53.931C755.357 19.7438 672.655 0.678711 585.499 0.678711C483.577 0.678711 387.744 26.7519 304.307 72.5921L304.431 72.4205L303.623 71.8316C303.171 72.4516 302.731 73.0738 302.303 73.6983C281.027 85.4958 260.565 98.5814 241.021 112.85C238.46 114.536 235.867 116.349 233.242 118.29L233.402 118.507C138.778 189.963 66.557 289.513 29.1443 404.752C29.4231 403.643 29.69 402.659 29.9377 401.81L28.9777 401.53C28.1291 404.439 27.0572 408.911 26.0483 414.585C9.55197 468.649 0.677734 526.038 0.677734 585.5C0.677734 597.968 1.06785 610.344 1.83655 622.617C1.80419 624.403 1.81074 626.172 1.85688 627.926C2.04256 634.982 2.73871 642.027 4.07982 648.95C11.1518 714.5 29.0551 776.804 55.9637 834.037C56.6711 836.865 57.4982 839.696 58.4423 842.529L59.391 842.212C59.0618 841.225 58.747 840.237 58.4467 839.251ZM628.915 412.911C641.07 398.015 651.356 382.57 659.534 366.575C657.454 373.073 655.064 379.602 652.342 386.158C647.356 398.163 641.484 409.634 634.806 420.622C632.84 418.058 630.876 415.488 628.915 412.911ZM662.287 361.002C659.811 369.463 656.821 377.98 653.265 386.542C648.209 398.717 642.245 410.343 635.459 421.473C640.904 428.566 646.366 435.61 651.823 442.61C670.747 430.4 688.851 417.675 705.918 404.516C691.605 386.783 678.182 369.849 665.622 353.661C664.56 356.121 663.448 358.568 662.287 361.002ZM666.073 352.611C678.729 368.93 692.266 386.01 706.71 403.904C713.985 398.279 721.07 392.574 727.95 386.797C709.092 364.267 691.804 343.101 676.035 323.176C673.505 333.179 670.168 342.99 666.073 352.611ZM675.252 322.186C672.758 332.217 669.448 342.057 665.371 351.706C665.229 351.523 665.088 351.34 664.946 351.157C667.826 339.532 669.765 328.024 670.901 316.663C672.338 318.494 673.789 320.334 675.252 322.186ZM676.341 321.951C692.23 342.042 709.671 363.401 728.715 386.154C737.659 378.619 746.252 370.961 754.456 363.194C726.799 331.921 702.628 303.476 681.807 277.456C681.763 292.684 679.892 307.515 676.341 321.951ZM680.805 276.203C680.862 291.52 679.062 306.437 675.554 320.955C674.035 319.032 672.531 317.122 671.041 315.222C672.702 297.576 672.436 280.29 670.764 263.481C674.019 267.656 677.366 271.896 680.805 276.203ZM681.805 275.852C702.784 302.113 727.195 330.858 755.182 362.506C759.22 358.67 763.162 354.808 767.005 350.921C732.15 311.94 703.053 277.569 679.482 246.915C680.989 256.714 681.752 266.36 681.805 275.852ZM678.205 245.252C679.824 255.186 680.674 264.963 680.792 274.583C677.289 270.188 673.882 265.863 670.572 261.606C669.352 250.083 667.478 238.786 665.119 227.754C667.886 231.551 670.747 235.407 673.701 239.324C675.179 241.284 676.68 243.26 678.205 245.252ZM679.152 244.844C702.892 275.83 732.329 310.639 767.709 350.207C771.406 346.453 775.01 342.677 778.518 338.878C781.251 335.918 783.958 332.917 786.633 329.879C754.917 296.122 728.171 266.304 706.256 239.56C687.695 216.91 672.586 196.451 660.855 177.661C664.447 189.768 668.343 202.705 672.527 216.525C675.427 226.102 677.625 235.542 679.152 244.844ZM658.848 174.41C662.729 187.529 666.976 201.641 671.57 216.814C674.263 225.709 676.348 234.484 677.85 243.14C676.72 241.659 675.603 240.186 674.499 238.722C671.07 234.174 667.767 229.71 664.591 225.328C655.283 183.213 639.035 145.02 625.352 112.857L625.351 112.856C624.573 111.026 623.803 109.217 623.044 107.427C615.585 89.857 609.099 74.2194 605.215 60.8501C605.138 60.5842 605.062 60.3193 604.987 60.0554C609.431 39.358 619.71 26.7389 633.085 19.5058C637.783 16.9649 642.872 15.0834 648.238 13.7507C648.326 13.8037 648.414 13.8567 648.501 13.9097C645.873 14.972 643.539 16.284 641.493 17.8768C633.762 23.8957 630.271 33.8219 630.433 49.0097C630.485 53.9253 630.92 59.4039 631.721 65.4966C630.257 73.6002 629.609 82.87 629.919 93.4426C630.625 117.545 640.155 143.753 658.848 174.41ZM659.77 174C671.718 193.578 687.433 215.013 707.029 238.926C728.914 265.632 755.622 295.41 787.296 329.124C788.873 327.325 790.44 325.513 791.995 323.688C765.101 294.832 741.971 268.751 722.526 244.972C670.972 181.929 645.237 134.974 644.053 95.3152C642.952 58.4427 653.312 37.531 669.132 26.7203C666.718 25.1798 664.282 23.641 661.826 22.104C661.104 22.4672 660.39 22.8467 659.686 23.2432C646.693 30.5572 636.717 43.6693 632.733 65.5173C634.404 78.1492 637.66 93.4655 642.374 111.945C646.882 129.616 652.719 150.163 659.77 174ZM632.186 68.8215C633.967 80.8848 637.076 95.223 641.405 112.192C645.684 128.963 651.157 148.318 657.725 170.605C640.399 141.458 631.593 116.434 630.918 93.4133C630.649 84.2456 631.104 76.0803 632.186 68.8215ZM632.341 62.3592C636.709 42.0481 646.49 29.5239 659.196 22.3717C659.737 22.0667 660.285 21.7715 660.837 21.486C657.131 19.1736 653.379 16.8655 649.578 14.5617C646.737 15.6394 644.252 16.996 642.107 18.6658C634.736 24.4047 631.273 33.9443 631.433 48.9991C631.476 53.051 631.781 57.4942 632.341 62.3592ZM650.789 14.1265C654.532 16.4 658.23 18.6778 661.882 20.9598C665.249 19.3103 668.792 18.0077 672.468 17.0085C670.043 15.5178 667.598 14.0289 665.134 12.5417C664.168 12.265 663.203 11.9928 662.24 11.7251C657.946 12.2039 654.136 12.9875 650.789 14.1265ZM665.251 11.4448C668.883 11.1695 672.83 11.0839 677.104 11.162L677.104 11.1568C678.456 11.2021 679.813 11.2659 681.172 11.347C682.233 11.4735 683.296 11.6046 684.359 11.7397L684.38 11.5696C690.037 12.0157 695.728 12.7423 701.359 13.6579L701.435 13.1896C705.336 13.9757 709.224 14.8006 713.097 15.664C701.418 14.0336 689.58 13.6775 678.636 15.6297C674.249 14.2008 669.881 12.8633 665.537 11.617L665.251 11.4448ZM650.056 13.3224C649.931 13.3664 649.807 13.4109 649.683 13.456C649.663 13.444 649.643 13.432 649.624 13.42C649.768 13.3871 649.911 13.3546 650.056 13.3224ZM664.923 352.759C664.613 353.48 664.3 354.199 663.983 354.918C664.206 354.075 664.424 353.233 664.637 352.391C664.732 352.514 664.827 352.636 664.923 352.759ZM634.9 422.386C628.43 432.901 621.225 442.97 613.356 452.639C615.576 455.837 617.794 459.026 620.008 462.207C630.543 456.011 640.877 449.656 650.979 443.154C645.618 436.276 640.251 429.355 634.9 422.386ZM612.698 453.444C605.177 462.621 597.056 471.436 588.399 479.926L588.441 479.981C598.837 474.378 609.081 468.619 619.144 462.715C616.998 459.633 614.849 456.543 612.698 453.444ZM473.639 562.559C448.332 576.734 421.59 590.049 394.028 602.873C390.839 607.502 387.469 612.002 383.933 616.381C374.141 634.18 361.979 650.022 348.169 664.394C338.504 674.453 328.031 683.792 317.002 692.58C373.192 680.611 439.016 662.701 516.017 637.56C570.125 619.894 618.548 600.219 661.102 578.878C657.507 573.74 653.833 568.58 650.089 563.397C633.191 540 614.895 516.135 596.164 491.703L593.073 487.671C591.787 485.994 590.5 484.314 589.211 482.632L588.165 481.265C587.641 481.547 587.117 481.828 586.592 482.109C586.263 482.286 585.933 482.462 585.604 482.638C554.151 512.832 515.878 538.9 473.639 562.559ZM392.231 603.707C391.428 604.08 390.624 604.452 389.82 604.824C388.777 607.045 387.698 609.236 386.585 611.399C388.523 608.875 390.406 606.312 392.231 603.707ZM205.234 684.929C184.773 693.964 167.167 703.086 152.05 712.197C186.301 712.757 227.958 709.138 278.46 700.139C303.264 685.419 327.516 669.267 349.004 650.693C361.443 639.942 372.951 628.383 383.099 615.825C384.955 612.447 386.725 608.999 388.404 605.477C353.218 621.701 316.771 637.169 280.324 652.636L280.318 652.639L280.317 652.64L280.31 652.642C255.146 663.322 229.982 674.001 205.234 684.929ZM150.449 713.168C138.976 720.164 128.964 727.151 120.246 734.087C146.892 737.324 179.193 737.476 218.208 733.654L219.499 732.959C237.966 723.02 257.126 712.709 276.009 701.588C225.864 710.392 184.485 713.856 150.449 713.168ZM69.5593 801.712C61.2793 829.584 68.3156 853.28 74.7976 868.619C82.3329 882.182 90.3929 895.414 98.9501 908.287C92.8868 894.158 89.2215 874.261 94.1508 851.951C100.804 821.838 123.098 787.4 176.121 756.828C188.687 749.583 202.097 742.328 215.936 734.877C177.446 738.514 145.529 738.255 119.155 734.96C90.0471 758.393 75.65 781.21 69.5593 801.712ZM664.165 350.148C667.016 338.478 668.916 326.927 670.008 315.526C645.878 284.758 625.473 257.007 608.597 231.791C566.29 168.574 546.119 121.228 545.107 82.2073C544.601 62.7102 547.932 47.7809 554.131 36.4517C560.334 25.1162 569.387 17.4203 580.258 12.3638C591.434 7.16561 604.534 4.75564 618.448 4.03378C594.403 2.84154 571.39 3.70303 553.45 11.2275C542.376 15.8723 533.248 23.0518 527.001 33.8564C520.749 44.6678 517.357 59.1502 517.836 78.4376C518.793 116.998 537.254 164.266 576.894 227.493C599.125 262.952 628.005 303.412 664.165 350.148ZM729.357 386.92C738.307 379.38 746.907 371.717 755.119 363.944C778.489 390.355 804.34 418.78 832.752 449.461C825.122 459.068 816.66 468.533 807.374 477.842C807.16 477.596 806.945 477.349 806.73 477.102C806.477 476.812 806.224 476.521 805.97 476.231C778.009 444.253 752.502 414.559 729.357 386.92ZM755.845 363.255C779.185 389.633 805.002 418.023 833.38 448.668C837.054 444.011 840.532 439.321 843.815 434.6C815.918 404.807 790.559 377.247 767.673 351.667C763.828 355.555 759.884 359.419 755.845 363.255ZM808.031 478.599C817.323 469.288 825.795 459.817 833.439 450.204C839.675 456.936 846.034 463.776 852.517 470.728C844.373 480.53 835.388 490.187 825.569 499.68C819.964 492.651 814.118 485.624 808.031 478.599ZM834.068 449.41C840.308 456.148 846.672 462.994 853.16 469.951C856.955 465.355 860.564 460.726 863.988 456.067C857.365 449.043 850.874 442.137 844.514 435.346C841.226 440.067 837.744 444.755 834.068 449.41ZM826.195 500.465C836.032 490.959 845.038 481.287 853.204 471.465C856.176 474.65 859.173 477.858 862.196 481.09C918.203 540.965 954.271 601.644 972.553 661.687C956.814 675.701 939.903 688.297 921.972 699.655C910.661 634.052 879.247 567.204 826.195 500.465ZM862.926 480.407C918.881 540.226 954.999 600.885 973.374 660.953C979.825 655.174 986.077 649.155 992.121 642.883C973.621 590.097 940.911 537.15 891.644 485.284C882.426 475.58 873.441 466.09 864.686 456.807C861.258 461.465 857.645 466.093 853.848 470.688C856.847 473.904 859.873 477.143 862.926 480.407ZM922.154 700.723C940.128 689.363 957.085 676.763 972.872 662.741C973.933 666.265 974.933 669.787 975.871 673.306C959.597 687.978 942.256 701.06 923.968 712.77C923.438 708.759 922.834 704.744 922.154 700.723ZM973.695 662.008C974.759 665.525 975.762 669.04 976.705 672.552C983.246 666.621 989.612 660.43 995.798 653.967C994.752 650.626 993.649 647.284 992.489 643.941C986.43 650.212 980.161 656.23 973.695 662.008ZM924.11 713.866C942.445 702.155 959.835 689.07 976.159 674.393C979.215 686 981.61 697.58 983.359 709.121C965.321 720.153 946.262 730.463 926.419 740.104C926.205 735.565 925.893 731.019 925.485 726.466C925.109 722.272 924.651 718.071 924.11 713.866ZM976.995 673.64C980.085 685.307 982.51 696.949 984.284 708.554C985.247 707.963 986.206 707.369 987.163 706.774C989.257 697.939 991.155 688.905 992.851 679.669C994.25 672.048 995.544 664.497 996.737 657.014C996.539 656.362 996.339 655.711 996.138 655.058C989.935 661.52 983.552 667.709 976.995 673.64ZM926.469 741.191C946.343 731.549 965.44 721.235 983.52 710.195C983.879 712.617 984.209 715.039 984.511 717.458C969.081 776.908 944.638 827.081 913.779 869.268C910.887 870.196 907.981 871.109 905.064 872.007C921.12 829.425 928.424 785.675 926.469 741.191ZM984.446 709.627C984.706 711.367 984.952 713.105 985.182 714.843C985.745 712.627 986.296 710.398 986.833 708.156C986.04 708.648 985.244 709.138 984.446 709.627ZM915.399 868.747C945.52 827.281 969.478 778.155 984.837 720.16C985.383 724.859 985.823 729.552 986.157 734.237C988.88 772.443 984.582 810.155 973.828 846.989C955.131 855.005 935.579 862.23 915.399 868.747ZM987.154 734.166C989.868 772.226 985.634 809.789 975.018 846.477C983.596 842.777 991.992 838.909 1000.18 834.865C1007.99 804.419 1011.68 773.368 1010.74 741.983C1010.29 726.634 1008.72 711.204 1006 695.723C1000.14 699.704 994.15 703.597 988.041 707.405C987.232 710.808 986.394 714.181 985.527 717.525C986.218 723.081 986.759 728.629 987.154 734.166ZM914.398 870.12C934.792 863.573 954.558 856.307 973.462 848.233C960.717 891.276 939.156 933.114 909.68 973.131C906.123 977.96 902.256 982.885 898.081 987.872C875.104 993.105 851.268 997.075 826.965 1000.01C837.843 987.779 847.605 975.338 856.279 962.98C872.355 940.074 885.769 916.696 896.432 892.925C902.632 885.596 908.627 877.997 914.398 870.12ZM910.485 973.724C907.156 978.243 903.558 982.845 899.69 987.503C910.013 985.121 920.161 982.482 930.096 979.565C962.886 934.188 986.882 885.983 999.854 836.142C991.649 840.175 983.242 844.032 974.655 847.722C961.905 891.168 940.203 933.379 910.485 973.724ZM825.958 1001.14C850.225 998.241 874.041 994.317 897.014 989.138C814.806 1086.32 616.023 1205.84 311.457 1098.08C310.781 1097.48 310.108 1096.86 309.44 1096.23C451.445 1147.07 565.92 1143.94 655.308 1113.98C728.658 1089.41 785.086 1046.78 825.958 1001.14ZM898.631 988.772C817.082 1085.97 619.03 1206.18 315.412 1100.52C321.712 1104.03 328.256 1107.54 334.94 1111.07C658.991 1220.56 867.091 1065.01 926.954 983.868C927.686 982.875 928.414 981.882 929.138 980.887C919.166 983.786 908.985 986.407 898.631 988.772ZM305.153 1096.88L305.165 1096.85C302.062 1095.01 298.945 1093.13 295.831 1091.22C293.682 1090.41 291.528 1089.59 289.367 1088.75C298.872 1094.36 308.551 1099.7 318.392 1104.77C317.847 1104.4 317.302 1104.02 316.757 1103.62C315.179 1102.68 313.611 1101.73 312.053 1100.78L312.008 1100.86C309.795 1099.58 307.568 1098.27 305.334 1096.95L305.153 1096.88ZM622.123 107.818C614.859 90.7073 608.492 75.3692 604.559 62.1642C603.04 70.135 602.354 79.2559 602.648 89.6693C603.657 125.46 623.208 167.852 663.104 223.269C653.739 182.144 637.849 144.79 624.4 113.173L624.399 113.173L624.384 113.136L624.336 113.024C623.59 111.271 622.852 109.535 622.123 107.818ZM601.648 89.6975C601.33 78.3979 602.158 68.586 603.958 60.0922C600.29 47.1276 599.103 36.2136 602.039 27.7666C602.959 25.1186 604.28 22.7241 606.043 20.5913C599.004 25.317 593.152 31.8146 588.891 40.5846C583.497 51.6854 580.637 66.454 581.178 85.9238C582.257 124.805 604.404 171.828 650.475 234.972C656.389 243.078 662.697 251.449 669.403 260.101C668.1 248.401 666.126 236.936 663.659 225.746C622.817 169.364 602.678 126.206 601.648 89.6975ZM632.609 18.6262C619.325 25.81 609.121 38.1612 604.423 58.0174C601.169 45.9047 600.286 35.8571 602.984 28.0949C604.289 24.3383 606.444 21.0928 609.616 18.3983C610.358 17.9828 611.111 17.5841 611.875 17.2019C620.579 12.8462 630.693 10.6148 641.624 9.78734C643.438 10.8658 645.242 11.9452 647.036 13.0255C641.947 14.3596 637.105 16.1945 632.609 18.6262ZM625.675 10.1349C629.754 9.23152 634.395 8.61662 639.646 8.29986L640.017 7.67226C640.33 7.85737 640.643 8.04251 640.955 8.22769C643.164 8.11722 645.478 8.05769 647.9 8.0498C643.179 6.94236 638.494 5.94558 633.853 5.05874L633.859 5.02644C632.881 4.95166 631.902 4.87863 630.924 4.80765C612.503 4.57823 594.973 6.6226 580.68 13.2705C569.979 18.2479 561.097 25.805 555.008 36.9317C548.917 48.0648 545.604 62.807 546.106 82.1813C547.111 120.904 567.142 168.05 609.429 231.235C626.136 256.2 646.31 283.658 670.143 314.077C671.739 296.31 671.383 278.91 669.608 261.995C662.524 252.88 655.879 244.076 649.667 235.562C603.58 172.395 581.267 125.158 580.178 85.9515C579.635 66.3775 582.506 51.4364 587.991 40.1476C593.031 29.7753 600.268 22.509 609.041 17.5741C613.019 14.2229 618.485 11.7274 625.675 10.1349ZM648.401 12.681C646.735 11.6755 645.061 10.6708 643.377 9.66699C646.677 9.46328 650.047 9.38211 653.472 9.40411C655.286 9.86029 657.105 10.3327 658.928 10.8212C655.333 11.2422 651.814 11.8527 648.401 12.681ZM661.692 10.5359C660.389 10.1771 659.089 9.8266 657.791 9.48429C658.586 9.50831 659.383 9.53733 660.182 9.5711C660.717 9.88988 661.251 10.2087 661.783 10.5277L661.692 10.5359ZM658.95 7.67393C659.358 7.91594 659.765 8.158 660.171 8.40011C666.618 8.76455 673.679 9.41445 681.394 10.3584C684.687 10.5582 687.994 10.8584 691.296 11.2405C680.613 9.28508 669.829 7.6204 658.952 6.25498L658.92 6.56498C652.243 5.88016 645.53 5.3364 638.888 5.03935C643.336 5.95661 647.821 6.97352 652.338 8.09071C654.347 8.13306 656.423 8.20765 658.569 8.31483L658.95 7.67393ZM663.497 10.3891C663.098 10.1498 662.699 9.91048 662.299 9.67123C664.522 9.78738 666.762 9.93839 669.013 10.1193C667.161 10.1673 665.321 10.2561 663.497 10.3891ZM651.597 443.946C641.48 450.459 631.13 456.824 620.581 463.03C623.31 466.948 626.033 470.853 628.746 474.744L628.747 474.745L629.383 475.657C648.87 503.605 667.86 530.861 685.087 557.53C686.491 559.704 687.884 561.874 689.264 564.04C702.433 556.746 714.958 549.278 726.832 541.649C710.056 518.669 691.937 495.446 673.382 471.773L671.992 469.999L669.037 466.231C663.25 458.849 657.427 451.423 651.597 443.946ZM727.422 542.459C715.531 550.1 702.988 557.58 689.802 564.885C694.453 572.2 698.963 579.472 703.304 586.703C717.052 579.224 730.139 571.564 742.558 563.736C739.696 559.603 736.781 555.463 733.817 551.317C731.709 548.368 729.577 545.415 727.422 542.459ZM688.387 564.525C687.019 562.378 685.639 560.227 684.247 558.073C667.032 531.421 648.051 504.179 628.562 476.229L627.923 475.312C625.196 471.401 622.46 467.477 619.717 463.538C609.667 469.435 599.438 475.188 589.056 480.785L590.005 482.023C592.328 485.056 594.647 488.081 596.959 491.097L596.96 491.098C615.689 515.527 633.993 539.402 650.9 562.811C654.674 568.038 658.38 573.242 662.005 578.424C671.067 573.866 679.861 569.231 688.387 564.525ZM662.584 579.252C671.631 574.699 680.411 570.071 688.925 565.37C693.577 572.684 698.085 579.954 702.424 587.181C694.172 591.656 685.683 596.067 676.958 600.409C672.337 593.396 667.536 586.344 662.584 579.252ZM315.238 693.976C371.912 681.997 438.411 663.95 516.327 638.511C570.528 620.815 619.042 601.099 661.681 579.706C666.635 586.798 671.435 593.848 676.056 600.858C633.362 622.046 585.046 641.617 531.277 659.253C423.189 694.706 336.488 716.26 267.149 727.29C283.772 716.918 300.018 705.959 315.238 693.976ZM314.805 693.045C326.38 683.922 337.355 674.205 347.448 663.701C359.913 650.728 371.032 636.554 380.265 620.813C370.988 631.75 360.685 641.919 349.658 651.45C328.788 669.489 305.307 685.255 281.255 699.637C292.035 697.687 303.214 695.493 314.805 693.045ZM278.812 701.092C289.794 699.134 301.193 696.921 313.022 694.443C297.685 706.39 281.332 717.324 264.611 727.69C249.152 730.106 234.565 731.995 220.803 733.395C239.758 723.193 259.447 712.58 278.812 701.092ZM2.88425 608.232C5.94593 583.608 15.4719 556.35 29.9142 527.049C28.4337 524.487 27.0967 521.708 25.9093 518.711C10.6389 551.392 2.16651 581.21 2.85538 607.266C2.86389 607.588 2.87351 607.91 2.88425 608.232ZM25.4112 517.417C11.1182 547.815 2.62762 575.819 1.87161 600.695C1.74262 595.646 1.67773 590.581 1.67773 585.5C1.67773 528.751 9.77466 473.892 24.8763 422.017C21.9558 443.116 20.8703 475.046 31.0477 505.89C29.2991 509.338 27.6193 512.757 26.011 516.147C19.7226 498.632 18.2607 473.935 22.8822 441.805L21.8924 441.663C17.1826 474.407 18.7494 499.611 25.4112 517.417ZM26.4965 517.46C27.6634 520.524 28.9833 523.36 30.449 525.967C31.9613 522.919 33.5264 519.849 35.1426 516.758C34.6996 515.719 34.271 514.677 33.8565 513.633C33.0119 511.505 32.2257 509.367 31.4947 507.223C29.7582 510.665 28.0913 514.077 26.4965 517.46ZM32.1282 505.971C32.9413 508.412 33.8257 510.844 34.7859 513.264C35.0972 514.048 35.4164 514.831 35.7437 515.612C38.2615 510.825 40.9009 505.988 43.6555 501.102C41.5279 499.407 39.554 497.461 37.7428 495.259C35.8002 498.86 33.9277 502.431 32.1282 505.971ZM38.2574 494.308C40.0561 496.538 42.0245 498.507 44.1546 500.218C50.5155 488.979 57.4822 477.486 64.9771 465.768C104.47 404.024 158.691 335.954 216.43 265.842C245.284 230.806 264.006 202.237 275.404 179.339C285.437 159.183 289.782 143.447 290.387 131.573C290.045 129.237 289.778 126.922 289.589 124.628C287.951 136.638 282.228 152.887 270.498 174.005C258.129 196.273 239.064 223.984 211.014 257.888C154.94 325.666 102.317 391.43 63.9994 451.063C54.4764 465.883 45.841 480.319 38.2574 494.308ZM289.098 117.806C289.09 119.312 289.001 120.913 288.825 122.611C287.578 134.6 281.958 151.314 269.624 173.519C257.293 195.718 238.267 223.378 210.244 257.251C154.171 325.028 101.512 390.833 63.1581 450.522C53.7155 465.218 45.136 479.548 37.5843 493.451C37.5246 493.373 37.4652 493.295 37.4059 493.216C26.0023 478.093 21.7912 451.715 27.4203 413.521C64.1164 294.301 137.965 191.361 235.453 118.215L235.935 118.834C243.083 113.257 250.035 108.653 256.75 104.97C258.475 104.13 260.179 103.353 261.863 102.639C267.642 100.964 273.625 101.271 278.601 103.871C283.294 106.323 287.154 110.85 289.098 117.806ZM289.458 110.753C289.798 105.83 290.572 101.015 291.826 96.3078C287.538 96.1517 283.002 96.5311 278.241 97.4764C279.747 97.8703 281.166 98.4866 282.466 99.3387C285.85 101.558 288.347 105.321 289.458 110.753ZM275.688 98.0327C277.973 98.2678 280.085 98.9735 281.918 100.175C285.647 102.62 288.336 107.195 288.961 114.307C286.76 108.901 283.257 105.175 279.064 102.985C275.338 101.038 271.103 100.322 266.815 100.694C269.848 99.6003 272.807 98.7153 275.688 98.0327ZM271.637 97.0775C268.57 97.4274 265.365 98.4566 262.219 100.085L262.614 100.849C261.611 101.324 260.602 101.82 259.588 102.337C258.41 102.772 257.247 103.287 256.111 103.878L256.231 104.11C254.762 104.827 253.28 105.588 251.784 106.395C267.661 95.3159 284.114 85.0054 301.09 75.518C297.534 81.0199 294.848 86.6938 292.942 92.5389C286.242 92.8875 279.117 94.3761 271.637 97.0775ZM275.623 97.0203C275.427 97.0022 275.231 96.9873 275.034 96.9756C281.177 95.0061 287.052 93.8839 292.618 93.559C292.437 94.1434 292.264 94.7294 292.098 95.3172C286.932 95.1053 281.428 95.6586 275.623 97.0203ZM37.0634 494.412C35.208 497.845 33.4156 501.251 31.6888 504.631C25.0815 484.127 23.4318 463.184 23.9416 445.35C24.0517 466.983 28.5312 483.107 36.6075 493.818C36.7582 494.018 36.9102 494.216 37.0634 494.412ZM728.264 541.917C743.192 532.289 757.088 522.405 769.939 512.289C774.877 508.401 779.662 504.479 784.291 500.524C789.834 507.769 795.169 515.006 800.294 522.234C797.613 524.451 794.884 526.657 792.108 528.852C777.233 540.616 760.992 552.078 743.404 563.202C740.532 559.052 737.605 554.897 734.63 550.735C732.532 547.799 730.409 544.86 728.264 541.917ZM783.682 499.729C779.051 503.687 774.263 507.612 769.32 511.503C756.482 521.61 742.595 531.486 727.674 541.107C710.877 518.095 692.736 494.843 674.169 471.156C672.774 469.376 671.377 467.594 669.977 465.808L669.826 465.616L669.825 465.615L669.821 465.609L669.778 465.554C664.023 458.215 658.235 450.833 652.441 443.402C671.366 431.188 689.473 418.459 706.546 405.294C723.738 426.582 742.209 449.018 762.004 472.692C769.549 481.715 776.776 490.728 783.682 499.729ZM785.051 499.873C790.598 507.121 795.937 514.362 801.067 521.595C809.466 514.62 817.394 507.545 824.846 500.377C819.246 493.353 813.405 486.329 807.322 479.308C800.354 486.255 792.929 493.112 785.051 499.873ZM806.665 478.551C799.714 485.483 792.305 492.328 784.442 499.078C777.537 490.079 770.312 481.069 762.771 472.051C742.984 448.385 724.521 425.959 707.338 404.683C714.617 399.053 721.707 393.345 728.592 387.564C751.744 415.211 777.254 444.91 805.217 476.889C805.426 477.129 805.636 477.368 805.844 477.608C806.119 477.922 806.392 478.237 806.665 478.551ZM845.097 434.506C851.462 441.302 857.959 448.215 864.589 455.247C871.003 446.458 876.756 437.562 881.842 428.571C874.869 421.462 868.045 414.491 861.372 407.656C856.636 416.708 851.208 425.662 845.097 434.506ZM860.637 406.903C855.917 415.954 850.501 424.911 844.397 433.759C816.544 404.011 791.226 376.493 768.377 350.954C772.097 347.178 775.724 343.378 779.252 339.557C781.969 336.614 784.66 333.631 787.321 330.611C809.355 354.05 833.779 379.385 860.637 406.903ZM861.858 406.722C868.539 413.566 875.37 420.545 882.353 427.664C883.596 425.446 884.798 423.223 885.959 420.995C878.887 413.848 871.974 406.838 865.221 399.959C864.143 402.219 863.022 404.474 861.858 406.722ZM864.475 399.199C863.4 401.461 862.283 403.717 861.122 405.968C834.329 378.515 809.966 353.241 787.984 329.856C789.561 328.059 791.127 326.248 792.681 324.424C814.201 347.498 838.119 372.343 864.475 399.199ZM865.678 398.997C872.439 405.885 879.36 412.905 886.443 420.062C895.559 402.385 902.126 384.358 906.1 366.067C918.333 309.768 906.009 250.88 867.685 191.939C867.647 192.085 867.609 192.231 867.57 192.377C865.619 199.737 863.232 207.127 860.456 214.515C884.303 261.867 890.908 308.948 880.996 354.359C877.702 369.447 872.586 384.343 865.678 398.997ZM859.973 215.789C883.395 262.694 889.814 309.272 880.019 354.146C876.768 369.04 871.73 383.753 864.931 398.235C838.647 371.45 814.795 346.671 793.333 323.658C821.521 290.45 845.703 253.16 859.973 215.789ZM859.842 213.303C862.47 206.231 864.737 199.162 866.603 192.12C866.719 191.683 866.834 191.245 866.947 190.808C829.559 133.803 767.843 76.7642 680.49 21.988C677.969 22.9311 675.53 24.0533 673.192 25.3721C672.44 25.7963 671.699 26.2411 670.968 26.7071C765.419 87.1857 827.812 150.473 859.842 213.303ZM670.05 27.3068C765.065 88.0819 827.535 151.614 859.364 214.577C845.203 252.063 820.969 289.539 792.647 322.921C765.8 294.112 742.711 268.076 723.3 244.339C671.748 181.299 646.225 134.576 645.053 95.2854C643.95 58.3376 654.409 37.7918 670.05 27.3068ZM670.041 26.1143C670.912 25.5474 671.799 25.01 672.701 24.5012C674.865 23.2803 677.112 22.2255 679.428 21.3229C677.513 20.1249 675.585 18.928 673.644 17.7322C669.904 18.6919 666.301 19.9616 662.884 21.5867C665.289 23.0941 667.675 24.6033 670.041 26.1143ZM702.939 588.039C694.699 592.509 686.222 596.914 677.512 601.251C703.035 640.087 723.027 677.764 732.756 714.726C737.907 734.293 740.181 753.659 738.881 772.889C745.943 771.148 752.949 769.338 759.896 767.455C761.525 749.044 760.119 730.469 756.234 711.677C747.953 671.615 728.403 630.564 702.939 588.039ZM531.589 660.203C422.271 696.06 334.78 717.718 264.967 728.646C249.044 738.513 232.802 747.859 216.805 757.063L216.804 757.064L216.791 757.072L216.769 757.084L216.74 757.101L216.733 757.105L216.726 757.109L216.711 757.117L216.69 757.129C208.209 762.01 199.797 766.85 191.538 771.708C138.213 803.076 115.931 838.321 109.289 868.989C102.643 899.678 111.642 925.853 120.993 939.1L120.933 939.142C131.489 952.987 142.649 966.346 154.375 979.18C150.531 974.714 146.649 969.717 143.19 964.323C134.763 951.184 128.796 935.618 132.074 919.599C135.355 903.563 147.87 887.222 176.078 872.472C204.283 857.723 248.24 844.53 314.546 834.805C361.725 827.886 410.115 822.311 458.586 816.727L458.597 816.725C546.384 806.612 634.434 796.468 716.031 778.251C723.362 776.615 730.641 774.913 737.862 773.14C739.201 753.917 736.942 734.554 731.789 714.98C722.089 678.128 702.133 640.525 676.61 601.699C633.837 622.934 585.439 642.54 531.589 660.203ZM262.425 729.041C246.922 731.424 232.299 733.274 218.51 734.629C203.921 742.481 189.795 750.098 176.62 757.695C123.781 788.16 101.707 822.388 95.1272 852.167C89.4543 877.843 95.2878 900.264 102.936 914.205C107.048 920.23 111.27 926.174 115.599 932.034C108.121 917.406 102.704 894.671 108.312 868.778C115.025 837.78 137.52 802.324 191.031 770.846C199.335 765.962 207.786 761.099 216.302 756.198L216.311 756.193L216.318 756.189L216.325 756.185L216.334 756.18C231.652 747.365 247.179 738.43 262.425 729.041ZM31.0494 527.009C32.5329 524.008 34.0682 520.985 35.6537 517.941C39.8751 527.58 45.357 536.952 52.4003 545.674C45.1274 542.866 38.9326 538.125 33.9783 531.436C32.9487 530.045 31.9718 528.57 31.0494 527.009ZM44.4547 501.721C41.5914 506.803 38.8539 511.83 36.249 516.801C40.6842 527.101 46.5547 537.101 54.2335 546.334C65.0054 549.93 78.0026 549.488 92.7341 545.056C118.516 537.299 149.51 517.335 182.872 485.569C216.225 453.81 251.916 410.282 287.094 355.445C310.847 318.419 327.356 283.513 337.738 251.987C335.242 245.817 332.805 239.735 330.453 233.741C329.801 232.08 329.156 230.425 328.517 228.777C318.401 260.42 301.115 296.169 275.311 334.312C241.757 383.912 208.002 423.337 176.606 452.144C145.218 480.944 116.159 499.157 91.9919 506.29C72.5786 512.02 56.2525 510.611 44.4547 501.721ZM91.7088 505.331C72.4329 511.02 56.4411 509.56 44.9518 500.841C51.3196 489.582 58.301 478.061 65.8195 466.307C105.276 404.619 159.462 336.59 217.202 266.478C246.087 231.403 264.857 202.771 276.299 179.785C285.282 161.739 289.758 147.153 291.053 135.648C291.579 138.556 292.213 141.497 292.949 144.47C298.739 167.857 310.822 193.302 325.463 220.799C326.276 222.95 327.102 225.113 327.941 227.287C317.92 259.097 300.581 295.174 274.483 333.751C240.963 383.301 207.258 422.663 175.93 451.407C144.596 480.158 115.669 498.259 91.7088 505.331ZM291.43 126.895C291.481 128.372 291.47 129.915 291.39 131.527C292.003 135.688 292.853 139.922 293.92 144.23C299.2 165.558 309.752 188.638 322.746 213.507C313.199 187.496 305.943 163.278 303.296 140.921C301.529 126.006 301.813 111.909 304.837 98.6523C302.994 98.0206 301.087 97.5122 299.118 97.1302C297.094 96.7375 295.004 96.478 292.849 96.3555C290.942 103.423 290.135 110.745 290.27 118.325C290.918 120.885 291.319 123.739 291.43 126.895ZM743.127 564.559C730.69 572.4 717.585 580.072 703.819 587.561C729.3 630.119 748.903 671.271 757.214 711.474C761.092 730.234 762.511 748.786 760.924 767.175C780.082 761.957 798.782 756.175 816.927 749.716C816.791 735.378 815.105 721.181 812.082 707.078C801.806 659.138 776.07 612.249 743.127 564.559ZM813.06 706.868C802.745 658.751 776.934 611.744 743.974 564.025C761.576 552.89 777.834 541.416 792.728 529.637C795.49 527.453 798.206 525.258 800.874 523.053C847.71 589.312 876.872 654.847 886.789 718.937C886.828 719.189 886.866 719.441 886.905 719.693C865.041 730.957 841.972 740.757 817.924 749.361C817.763 735.074 816.073 720.925 813.06 706.868ZM887.777 718.784C877.828 654.485 848.574 588.786 801.646 522.413C810.06 515.43 818.003 508.344 825.471 501.163C878.515 567.91 909.843 634.719 921.056 700.234C910.337 706.985 899.254 713.298 887.842 719.209C887.82 719.067 887.799 718.926 887.777 718.784ZM892.369 484.595C883.107 474.845 874.081 465.311 865.287 455.987C871.707 447.201 877.47 438.306 882.571 429.314C899.148 446.21 916.573 463.889 934.856 482.41C964.586 512.527 988.098 543.401 1006.03 574.645C1004.78 594.02 1002.81 613.922 1000.07 634.357C997.71 636.971 995.32 639.544 992.897 642.075C974.317 589.301 941.574 536.396 892.369 484.595ZM935.568 481.708C917.21 463.111 899.718 445.364 883.083 428.407C884.328 426.191 885.533 423.969 886.698 421.741C908.437 443.702 931.686 466.942 956.462 491.579C976.04 511.047 992.892 530.776 1007.21 550.673C1006.96 557.984 1006.61 565.373 1006.14 572.841C988.264 541.966 964.941 511.464 935.568 481.708ZM957.167 490.87C932.305 466.147 908.983 442.833 887.183 420.809C896.413 402.969 903.061 384.762 907.078 366.279C919.435 309.407 906.861 250.001 868.025 190.629C871.915 175.424 873.927 160.352 873.659 145.69C887.203 160.716 900.12 176.951 912.215 194.418C972.33 281.237 1012.12 398.509 1007.27 549.04C993.078 529.453 976.439 510.033 957.167 490.87ZM872.635 144.557C873.024 159.198 871.104 174.27 867.281 189.496C829.825 132.722 768.347 75.9939 681.684 21.5568C683.671 20.8646 685.707 20.2797 687.782 19.7935C750.745 42.0695 816.918 83.1333 872.635 144.557ZM686.06 19.1885C684.207 19.6693 682.386 20.231 680.605 20.8797C678.75 19.718 676.884 18.5573 675.007 17.3978C676.18 17.1223 677.367 16.8764 678.565 16.6586C681.057 17.4722 683.556 18.3155 686.06 19.1885ZM676.598 16.0222C675.661 16.2165 674.731 16.4285 673.809 16.659C672.168 15.6485 670.518 14.6387 668.859 13.6298C671.431 14.3954 674.012 15.1928 676.598 16.0222ZM816.935 750.775C798.752 757.237 780.017 763.019 760.829 768.238C760.42 772.655 759.836 777.064 759.071 781.464C778.733 776.29 797.918 770.512 816.547 763.985C816.826 759.567 816.953 755.164 816.935 750.775ZM817.571 763.625C817.84 759.209 817.959 754.808 817.933 750.419C842.025 741.815 865.144 732.01 887.062 720.737C887.679 724.874 888.216 729.005 888.672 733.131C866.086 744.854 842.323 754.905 817.571 763.625ZM816.475 765.069C797.803 771.599 778.577 777.376 758.879 782.548C757.543 789.941 755.691 797.31 753.288 804.657C773.683 798.781 793.965 792.471 813.952 785.685C815.172 778.774 816.005 771.904 816.475 765.069ZM815.032 785.317C816.231 778.41 817.047 771.542 817.502 764.709C842.311 755.988 866.137 745.931 888.788 734.197C889.589 741.665 890.124 749.114 890.393 756.541C877.984 761.861 865.344 766.952 852.525 771.826C840.178 776.521 827.664 781.015 815.032 785.317ZM813.75 786.809C793.703 793.606 773.361 799.924 752.907 805.807C747.178 822.909 738.449 839.895 726.266 856.805C707.783 882.458 687.097 902.336 664.989 917.671C693.867 914.596 723.197 910.851 752.441 906.231C762.043 895.653 771.138 883.755 779.641 870.384C797.881 841.699 808.799 813.942 813.75 786.809ZM754.015 905.981C763.346 895.595 772.196 883.955 780.484 870.921C798.917 841.934 809.906 813.875 814.833 786.441C827.654 782.081 840.352 777.525 852.881 772.761C865.588 767.929 878.121 762.884 890.429 757.613C891.814 800.027 884.466 841.743 867.902 882.549C864.244 883.503 860.572 884.438 856.887 885.354C823.333 893.694 788.742 900.457 754.015 905.981ZM751.361 907.413C721.889 912.044 692.338 915.79 663.259 918.859C603.825 959.315 534.328 967.372 469.8 966.681C447.491 966.442 425.768 965.158 405.257 963.804C401.929 963.584 398.633 963.362 395.372 963.143C378.53 962.011 362.613 960.941 347.972 960.505C330.495 959.984 314.867 960.369 301.685 962.622C288.502 964.876 277.814 968.992 270.175 975.896C254.743 989.844 246.644 1002.76 244.112 1014.85C241.584 1026.92 244.594 1038.23 251.539 1049.02C251.976 1049.69 252.429 1050.37 252.897 1051.04C249.545 1043.82 248.902 1036.37 251.766 1028.61C255.685 1018 266.136 1006.93 284.891 995.134C308.932 980.02 343.818 977.514 384.518 978.986C402.254 979.627 421.12 981.025 440.702 982.477C443.605 982.692 446.524 982.908 449.456 983.124C472.18 984.791 495.773 986.391 519.633 986.862C602.119 988.489 687.706 976.613 751.361 907.413ZM256.792 1055.95C251.059 1047.23 249.252 1038.31 252.704 1028.96C256.507 1018.66 266.729 1007.73 285.423 995.981C309.177 981.047 343.773 978.513 384.482 979.985C402.196 980.625 421.04 982.022 440.623 983.474L440.627 983.474C443.53 983.689 446.449 983.906 449.383 984.121C472.108 985.788 495.724 987.391 519.613 987.862C602.569 989.498 688.922 977.497 752.946 907.163C788.112 901.599 823.152 894.77 857.129 886.324C860.574 885.468 864.008 884.595 867.43 883.705C858.01 906.663 845.668 929.333 830.32 951.675C828.869 953.787 827.4 955.892 825.911 957.99C801.153 976.658 774.729 992.628 747.269 1006.22C650.982 1010.04 554.13 1002.15 479.584 996.069C451.828 993.806 427.164 991.795 406.774 990.736C361.386 988.377 330.989 993.383 311.6 1002.57C292.182 1011.76 283.795 1025.16 282.507 1039.5C281.814 1047.21 283.174 1055.16 285.938 1062.84C280.815 1061.82 275.909 1060.76 271.237 1059.67C266.136 1058.47 261.315 1057.22 256.792 1055.95ZM257.735 1057.33L257.665 1057.23C261.872 1058.4 266.325 1059.54 271.008 1060.64C275.874 1061.78 280.992 1062.89 286.344 1063.94C288.684 1070.13 291.921 1076.12 295.714 1081.66C297.764 1084.65 299.98 1087.52 302.308 1090.21C298.487 1088.8 294.644 1087.34 290.78 1085.85C287.958 1083.89 285.214 1081.92 282.562 1079.93C272.808 1072.62 264.311 1065.11 257.735 1057.33ZM300.368 1091.85C298.504 1090.73 296.673 1089.61 294.88 1088.49C297.835 1089.62 300.777 1090.72 303.706 1091.79C304.309 1092.46 304.918 1093.11 305.533 1093.76C303.815 1093.13 302.094 1092.5 300.368 1091.85ZM308.257 1096.48C307.205 1095.88 306.161 1095.28 305.126 1094.67C305.803 1094.92 306.48 1095.16 307.155 1095.41C307.521 1095.77 307.888 1096.13 308.257 1096.48ZM256.943 1057.94C257.21 1058.32 257.483 1058.69 257.764 1059.07C263.883 1067.27 273.274 1075.22 284.744 1083.07C270.247 1073.71 256.328 1063.7 244.769 1053.29C248.261 1054.47 251.994 1055.62 255.953 1056.75C256.149 1056.99 256.347 1057.23 256.547 1057.47L256.725 1057.68C256.798 1057.77 256.87 1057.86 256.943 1057.94ZM316.907 1102.5C320.84 1104.67 324.861 1106.84 328.945 1109.02C328.076 1108.72 327.205 1108.42 326.334 1108.11C323.299 1106.34 320.287 1104.57 317.309 1102.79C317.175 1102.69 317.041 1102.59 316.907 1102.5ZM334.543 1111.99C332.684 1111.36 330.821 1110.73 328.954 1110.08C331.695 1111.43 334.448 1112.75 337.213 1114.05L337.398 1113.5C336.444 1113 335.492 1112.49 334.543 1111.99ZM340.72 1114.56L340.735 1114.53C342.627 1115.17 344.516 1115.8 346.402 1116.42C344.511 1115.81 342.617 1115.19 340.72 1114.56ZM332.157 233.211C334.553 237.607 336.998 242.054 339.478 246.551C339.069 247.865 338.65 249.185 338.22 250.511C335.88 244.719 333.594 239.008 331.384 233.376C330.644 231.49 329.912 229.613 329.19 227.745C330.17 229.558 331.159 231.381 332.157 233.211ZM333.035 232.733C335.279 236.851 337.567 241.014 339.887 245.222C353.731 200.019 354.745 162.179 346.377 135.595C339.262 112.992 325.39 98.5775 306.895 94.5893C306.58 95.7224 306.286 96.862 306.014 98.0081C320.377 103.275 330.764 115.956 335.965 134.391C342.371 157.101 340.938 188.605 329.388 226.007C330.589 228.235 331.805 230.477 333.035 232.733ZM328.722 224.769C327.933 223.302 327.151 221.841 326.376 220.386C315.519 191.642 307.166 165.101 304.289 140.803C302.538 126.023 302.816 112.083 305.785 98.9904C319.728 104.153 329.881 116.512 335.002 134.663C341.292 156.957 339.96 187.928 328.722 224.769ZM305.065 97.6732C303.21 97.0424 301.29 96.5331 299.309 96.1485C297.307 95.7601 295.244 95.4995 293.123 95.3696C293.301 94.7465 293.487 94.1255 293.682 93.5064C297.903 93.336 301.941 93.6288 305.78 94.3627L305.913 94.3882C305.611 95.4773 305.329 96.5723 305.065 97.6732ZM340.146 247.763C339.71 249.152 339.262 250.548 338.802 251.95C341.068 257.55 343.383 263.224 345.728 268.972L345.732 268.981C369.896 328.204 397.246 395.235 407.025 469.555C411.372 502.595 410.435 531.584 405.343 557.287C409.453 555.992 413.563 554.667 417.673 553.314C426.524 526.301 429.63 495.596 424.886 460.261C414.414 382.246 376.365 313.349 343.205 253.303L343.194 253.284C342.173 251.435 341.157 249.595 340.146 247.763ZM344.82 269.394C342.621 264.005 340.448 258.679 338.317 253.417C327.88 284.754 311.437 319.351 287.936 355.985C252.723 410.875 216.984 454.468 183.561 486.293C150.146 518.111 119.017 538.193 93.0222 546.013C78.8283 550.284 66.135 550.903 55.4405 547.761C63.811 557.498 74.2504 566.338 87.2079 573.715C114.37 589.178 152.638 598.234 206.185 595.598C267.677 592.57 335.845 579.11 404.255 557.629C409.42 531.898 410.396 502.845 406.033 469.686C396.273 395.505 368.982 328.616 344.82 269.394ZM716.249 779.227C723.479 777.613 730.66 775.935 737.785 774.188C737.454 778.519 736.939 782.843 736.232 787.16C658.496 805.534 574.1 815.618 487.752 825.936L487.752 825.936L487.75 825.936L487.749 825.936L487.748 825.937C443.669 831.204 399.081 836.531 354.61 843.054C288.302 852.779 242.22 865.971 210.822 880.711C179.426 895.45 162.67 911.756 155.09 927.733C147.505 943.722 149.148 959.3 154.378 972.485C156.023 976.634 158.024 980.547 160.206 984.166C154.853 978.46 149.001 971.531 144.032 963.783C135.666 950.74 129.851 935.448 133.054 919.799C136.253 904.167 148.483 888.03 176.541 873.358C204.603 858.685 248.433 845.512 314.691 835.795C361.805 828.885 410.168 823.312 458.629 817.729C546.455 807.61 634.607 797.454 716.249 779.227ZM738.807 773.938C738.484 778.268 737.98 782.593 737.286 786.911C737.858 786.775 738.43 786.638 739.002 786.501C745.383 784.974 751.72 783.389 758.007 781.743C758.785 777.343 759.38 772.935 759.799 768.517C752.859 770.396 745.86 772.201 738.807 773.938ZM487.789 826.94C574.023 816.635 658.375 806.555 736.053 788.23C734.747 795.868 732.84 803.487 730.286 811.091C602.552 845.785 473.074 864.157 386.26 876.476L386.259 876.476C377.278 877.75 368.754 878.96 360.735 880.116C267.003 893.631 219.338 923.081 199.789 953.453C182.656 980.072 187.173 1007.32 201.117 1024.94C189.705 1014.95 178.686 1004.52 168.086 993.684C167.918 993.475 167.75 993.264 167.582 993.051C168.192 993.642 168.778 994.204 169.336 994.738L170.027 994.015C168.201 992.269 166.078 990.214 163.786 987.888C160.582 983.198 157.595 977.885 155.307 972.117C150.153 959.121 148.555 943.841 155.994 928.162C163.438 912.47 179.97 896.299 211.247 881.616C242.523 866.934 288.499 853.761 354.755 844.043C399.165 837.53 443.723 832.205 487.789 826.94ZM737.11 787.98C735.83 795.596 733.956 803.193 731.445 810.776C738.346 808.896 745.242 806.968 752.125 804.991C754.567 797.626 756.45 790.239 757.812 782.828C751.664 784.434 745.471 785.981 739.234 787.474C738.527 787.643 737.819 787.812 737.11 787.98ZM386.41 877.465L386.414 877.464C473.069 865.168 602.305 846.831 729.897 812.233C724.56 827.727 716.528 843.163 705.422 858.577C686.173 885.292 665.053 905.218 642.698 919.923C566.896 927.184 495.249 930.097 437.781 932.434C416.685 933.291 397.5 934.071 380.72 934.96C353.253 936.416 330.221 939.642 311.053 944.19C283.911 944.692 260.08 949.309 241.277 962.151C223.985 973.96 215.655 986.236 214.01 998.644C212.367 1011.04 217.42 1023.44 226.59 1035.45C229.207 1038.88 232.163 1042.28 235.401 1045.65C236.218 1047.07 237.084 1048.45 237.994 1049.8C231.236 1047.22 225.663 1044.56 221.403 1041.91C216.972 1038.37 212.593 1034.76 208.269 1031.1L208.271 1031.1C189.909 1014.66 181.339 983.965 200.63 953.994C219.943 923.988 267.248 894.606 360.878 881.106C368.897 879.95 377.424 878.74 386.408 877.465L386.409 877.465H386.41ZM706.233 859.161C687.355 885.363 666.681 905.059 644.815 919.719C650.82 919.138 656.85 918.53 662.901 917.892C685.497 902.477 706.623 882.356 725.454 856.22C737.421 839.611 746.037 822.932 751.739 806.142C744.856 808.116 737.962 810.04 731.063 811.916C725.696 827.716 717.552 843.452 706.233 859.161ZM437.793 933.434C494.779 931.118 565.742 928.233 640.889 921.1C584.483 957.388 520.372 960.9 458.704 956.615C437.831 955.165 417.246 952.821 397.335 950.554L397.332 950.554L397.329 950.554L397.328 950.554L397.326 950.553L397.324 950.553L397.323 950.553L397.321 950.553L397.317 950.552L394.934 950.281C374.283 947.932 354.374 945.706 335.669 944.702C328.864 944.337 322.215 944.133 315.743 944.143C333.916 940.15 355.437 937.301 380.773 935.959C397.503 935.073 416.634 934.294 437.673 933.439L437.709 933.438L437.732 933.437L437.746 933.436L437.755 933.436L437.761 933.435L437.777 933.435L437.787 933.435L437.793 933.434ZM335.616 945.701C327.204 945.249 319.043 945.045 311.173 945.188C264.881 956.192 241.466 974.888 232.46 994.676C224.599 1011.95 227.665 1030.17 236.199 1045.04C238.32 1047.24 240.563 1049.43 242.913 1051.6C246.609 1052.89 250.601 1054.16 254.872 1055.4C253.36 1053.47 251.965 1051.52 250.698 1049.56C243.646 1038.61 240.54 1027.03 243.134 1014.65C245.724 1002.28 253.985 989.181 269.505 975.154C277.341 968.072 288.239 963.907 301.517 961.637C314.797 959.366 330.504 958.984 348.002 959.505C362.662 959.942 378.6 961.013 395.441 962.145H395.442H395.442L395.555 962.153C398.779 962.37 402.036 962.589 405.323 962.806C425.831 964.16 447.53 965.443 469.811 965.681C533.69 966.365 602.291 958.464 661.14 919.082C655.085 919.714 649.051 920.318 643.043 920.894C585.994 958.327 520.985 961.945 458.635 957.613C437.735 956.16 417.127 953.814 397.217 951.547L397.213 951.547L397.207 951.546L394.821 951.275C374.165 948.925 354.286 946.703 335.616 945.701ZM241.841 962.977C259.365 951.009 281.36 946.239 306.49 945.316C262.945 956.486 240.435 974.739 231.549 994.262C224.107 1010.61 226.266 1027.75 233.535 1042.19C231.322 1039.76 229.265 1037.31 227.385 1034.85C218.295 1022.94 213.407 1010.81 215.002 998.775C216.595 986.753 224.68 974.696 241.841 962.977ZM239.625 1050.42C239.251 1049.88 238.883 1049.35 238.522 1048.8C239.189 1049.45 239.865 1050.11 240.551 1050.76C240.24 1050.64 239.932 1050.53 239.625 1050.42ZM240.669 1051.86C241.235 1052.07 241.808 1052.27 242.388 1052.48C253.666 1062.88 267.341 1072.89 281.662 1082.26C280.581 1081.83 279.497 1081.39 278.412 1080.95L278.037 1081.88C280.688 1082.95 283.329 1084.01 285.961 1085.04C287.743 1086.18 289.532 1087.31 291.325 1088.43C290.951 1088.29 290.576 1088.15 290.202 1088L289.528 1087.74L289.18 1088.64C278.134 1082.12 267.321 1075.25 256.757 1068.04L256.979 1067.71C250.927 1063.56 245.315 1058.14 240.669 1051.86ZM734.898 20.9692C767.897 29.6788 799.751 41.205 830.189 55.275C858.707 80.3619 871.361 110.608 872.585 143.016C817.368 82.44 751.994 41.7333 689.628 19.3892C703.846 16.4858 719.795 18.0052 734.815 21.3431L734.898 20.9692ZM833.292 56.7204C860.668 81.8889 872.683 112.012 873.623 144.158C887.478 159.456 900.686 176.012 913.037 193.849C973.457 281.109 1013.35 399.018 1008.22 550.366C1017.78 563.66 1026.2 577.03 1033.56 590.448C1092.52 497.068 1082.32 392.746 1053.25 307.313C1042.38 275.368 1028.88 246.074 1015.37 220.997C1010.06 211.33 1004.77 202.291 999.651 193.971C980.66 163.105 964.021 142.159 957.292 135.723L957.492 135.514C919.787 104.309 878.094 77.7515 833.292 56.7204ZM888.001 720.253C888.621 724.386 889.162 728.514 889.623 732.636C901.074 726.659 912.22 720.25 923.037 713.364C922.513 709.348 921.913 705.327 921.237 701.301C910.508 708.045 899.418 714.349 888.001 720.253ZM993.268 643.133C994.43 646.47 995.536 649.806 996.587 653.141C996.889 652.823 997.192 652.504 997.494 652.184C998.325 646.79 999.103 641.432 999.828 636.11C997.67 638.486 995.483 640.827 993.268 643.133ZM1001.02 634.797C1000.3 640.128 999.527 645.495 998.702 650.898C1008.59 640.334 1018 629.054 1026.9 616.998C1025.63 613.932 1024.31 610.868 1022.94 607.806C1016.01 617.266 1008.7 626.254 1001.02 634.797ZM1022.47 606.757C1015.76 615.954 1008.68 624.705 1001.25 633.035C1003.83 613.617 1005.71 594.681 1006.93 576.22C1012.69 586.365 1017.86 596.548 1022.47 606.757ZM1023.62 606.876C1024.99 609.934 1026.32 612.995 1027.59 616.058C1028.22 615.202 1028.85 614.342 1029.47 613.478C1032.46 609.337 1035.29 605.166 1037.99 600.97C1036.54 598.117 1035.04 595.265 1033.5 592.416C1030.62 596.909 1027.59 601.376 1024.39 605.815C1024.13 606.169 1023.88 606.523 1023.62 606.876ZM1032.95 591.413C1030 596.047 1026.88 600.654 1023.58 605.23L1023.32 605.588L1023.15 605.826C1018.38 595.321 1013.03 584.844 1007.05 574.408C1007.53 566.86 1007.9 559.392 1008.17 552.004C1017.5 565.077 1025.74 578.222 1032.95 591.413ZM1034.11 591.452C1035.66 594.297 1037.16 597.144 1038.61 599.993C1098.36 506.112 1086.72 399.299 1056.03 311.543C1054.15 306.158 1052.19 300.846 1050.18 295.613C1051.55 299.366 1052.89 303.159 1054.2 306.99C1083.37 392.713 1093.63 497.596 1034.11 591.452ZM1016.25 220.524C1010.73 210.272 1005.21 200.725 999.867 191.987C985.487 168.462 972.396 150.79 964.1 141.065C1050.03 214.339 1114.45 312.098 1146.57 423.546L1146.56 423.546C1157.06 511.52 1127.08 582.022 1072.72 638.817C1068.56 643.157 1064.27 647.418 1059.83 651.601C1054.51 634.714 1047.65 617.838 1039.14 601.028C1099.48 506.66 1087.77 399.26 1056.97 311.212C1045.21 277.57 1030.65 246.741 1016.25 220.524ZM923.178 714.459C912.351 721.335 901.197 727.734 889.74 733.702C890.553 741.195 891.099 748.667 891.378 756.118C902.948 751.141 914.316 745.964 925.44 740.579C925.226 735.912 924.909 731.237 924.489 726.555C924.128 722.529 923.691 718.497 923.178 714.459ZM997.093 654.762C997.038 654.585 996.983 654.409 996.928 654.232L997.224 653.922L997.093 654.762ZM997.76 656.944C997.989 655.509 998.214 654.075 998.434 652.644C1008.58 641.889 1018.23 630.388 1027.34 618.078C1033.95 634.184 1039.17 650.34 1043.1 666.494C1031.67 676.106 1019.51 685.276 1006.71 694.027C1004.48 681.691 1001.5 669.324 997.76 656.944ZM1043.95 665.774C1039.98 649.544 1034.71 633.314 1028.04 617.138C1028.79 616.118 1029.54 615.094 1030.28 614.063C1033.16 610.069 1035.9 606.049 1038.51 602.004C1046.95 618.746 1053.75 635.55 1059.02 652.362C1054.16 656.925 1049.13 661.395 1043.95 665.774ZM869.109 882.233C885.577 841.396 892.855 799.642 891.416 757.19C902.987 752.218 914.359 747.047 925.489 741.666C927.382 786.107 920.005 829.823 903.854 872.379C892.442 875.875 880.847 879.154 869.109 882.233ZM828.544 955.99C829.417 954.743 830.284 953.493 831.144 952.241C846.686 929.616 859.156 906.652 868.64 883.39C880.381 880.32 891.982 877.049 903.402 873.563C900.986 879.861 898.378 886.135 895.58 892.381C875.256 916.387 852.712 937.491 828.544 955.99ZM823.995 960.673C800.518 978.123 775.579 993.183 749.711 1006.12C755.788 1005.86 761.862 1005.56 767.928 1005.21C774.999 1004.8 782.058 1004.32 789.095 1003.77C801.725 989.943 813.341 975.487 823.995 960.673ZM790.553 1003.65C803.659 989.238 815.667 974.15 826.638 958.694C850.917 940.376 873.598 919.468 894.086 895.673C883.69 918.297 870.789 940.564 855.46 962.405C846.608 975.019 836.619 987.718 825.465 1000.19C813.917 1001.57 802.266 1002.71 790.553 1003.65ZM788.105 1004.85C781.414 1005.37 774.705 1005.82 767.985 1006.21C761.171 1006.6 754.346 1006.93 747.518 1007.21C701.278 1030.06 652.125 1046.18 603.069 1057.04C516.466 1076.21 430.143 1079.03 360.629 1073.71C333.332 1071.62 308.622 1068.27 287.501 1064.17C289.788 1070.06 292.899 1075.78 296.539 1081.1C298.925 1084.58 301.535 1087.88 304.283 1090.94C436.222 1139.32 542.606 1138.93 627.466 1110.78C693.318 1088.94 746.241 1050.37 788.105 1004.85ZM305.76 1092.54C437.028 1140.32 543.058 1139.83 627.781 1111.73C694.203 1089.7 747.495 1050.7 789.567 1004.73C801.268 1003.81 812.911 1002.68 824.454 1001.32C783.742 1046.53 727.699 1088.67 654.991 1113.04C565.41 1143.05 450.488 1146.09 307.703 1094.54C307.05 1093.89 306.402 1093.22 305.76 1092.54ZM904.615 873.192C902.52 878.689 900.279 884.166 897.893 889.624C903 883.484 907.963 877.158 912.771 870.64C910.063 871.503 907.344 872.354 904.615 873.192ZM997.396 659.217C996.294 666.038 995.107 672.915 993.835 679.849C992.199 688.761 990.374 697.484 988.368 706.022C994.298 702.311 1000.11 698.519 1005.8 694.645C1003.69 682.859 1000.89 671.046 997.396 659.217ZM1001.37 834.28C1009.05 804.017 1012.67 773.153 1011.74 741.953C1011.28 726.408 1009.69 710.781 1006.9 695.106C1019.72 686.359 1031.91 677.191 1043.36 667.58C1049.67 693.911 1052.54 720.236 1052.34 746.329C1052.17 767.358 1050.02 788.24 1046.06 808.859C1032.02 818.022 1017.07 826.477 1001.37 834.28ZM931.662 979.102C964.308 933.694 988.18 885.449 1001.04 835.558C1016.76 827.783 1031.73 819.357 1045.79 810.224C1035.54 862.557 1013.69 913.169 983.384 960.142C977.008 962.992 970.491 965.684 963.848 968.225C953.416 972.214 942.671 975.83 931.662 979.102ZM394.887 1129.75C684.959 1202.23 871.478 1060.75 927.759 984.461C928.749 983.119 929.731 981.775 930.706 980.428C942.172 977.053 953.357 973.307 964.205 969.159C970.378 966.798 976.443 964.306 982.389 961.678C975.113 972.869 967.358 983.85 959.167 994.598C912.531 1055.78 708.433 1211.99 394.887 1129.75ZM723.429 18.2122L723.457 18.0737C723.979 18.2002 724.501 18.3274 725.023 18.4554C724.492 18.3715 723.961 18.2904 723.429 18.2122ZM680.686 16.3038C692.972 14.4237 706.351 15.3549 719.363 17.6746C708.606 16.4151 697.791 16.47 687.84 18.7535C685.451 17.9099 683.066 17.0934 680.686 16.3038ZM1053.34 746.337C1053.18 767.107 1051.08 787.73 1047.22 808.096C1055.13 802.892 1062.75 797.461 1070.04 791.792C1071.83 779.233 1072.92 766.594 1073.25 753.897C1074.1 720.661 1069.77 687.027 1059.36 653.422C1054.47 657.995 1049.42 662.473 1044.22 666.86C1050.63 693.43 1053.54 719.998 1053.34 746.337ZM1046.96 809.464C1036.85 861.796 1015.17 912.406 985.057 959.389C994.728 955.006 1004.07 950.254 1013.05 945.106C1041.95 897.081 1062.1 845.866 1069.84 793.217C1062.52 798.866 1054.88 804.278 1046.96 809.464ZM959.962 995.204C924.965 1041.12 801.995 1140.01 611.131 1152.78C671.419 1149.36 725.46 1137.88 772.427 1122.39C882.289 1086.17 953.425 1028.05 975.274 999.964C988.631 982.79 1000.93 965.057 1011.98 946.861C1003.02 951.933 993.702 956.615 984.063 960.933C976.532 972.592 968.482 984.025 959.962 995.204ZM1071.18 790.906C1072.89 778.648 1073.93 766.313 1074.25 753.923C1075.11 720.419 1070.72 686.52 1060.17 652.661C1064.74 648.361 1069.16 643.977 1073.44 639.508C1126.76 583.801 1156.73 514.897 1148.2 429.331C1161.97 479.039 1169.32 531.411 1169.32 585.5C1169.32 586.156 1169.32 586.81 1169.32 587.465L1169.24 587.467C1169.26 588.574 1169.28 589.678 1169.3 590.778C1169.23 598.665 1169 606.515 1168.62 614.325C1163.46 686.535 1130.03 741.902 1079.09 784.504C1076.49 786.671 1073.86 788.805 1071.18 790.906ZM1014.83 944.074C1043.48 896.091 1063.41 844.931 1070.98 792.333C1073.95 790.019 1076.86 787.666 1079.73 785.272C1125.65 746.863 1157.42 698.085 1167.17 636.009C1159.95 720.282 1134.82 799.443 1095.61 869.672C1075.16 900.664 1047.5 925.033 1014.83 944.074ZM340.173 1115.43C515.683 1173.78 663.349 1159.41 772.74 1123.34C882.747 1087.07 954.067 1028.86 976.063 1000.58C989.817 982.894 1002.46 964.614 1013.77 945.844C1043.97 928.485 1069.99 906.637 1090.13 879.289C988.915 1052.76 800.82 1169.32 585.499 1169.32C497.875 1169.32 414.759 1150.02 340.173 1115.43ZM479.437 997.061C553.41 1003.09 649.44 1010.92 745.062 1007.3C699.494 1029.59 651.135 1045.37 602.853 1056.06C516.361 1075.21 430.138 1078.03 360.705 1072.71C333.178 1070.6 308.295 1067.22 287.084 1063.07C284.223 1055.32 282.809 1047.32 283.503 1039.59C284.755 1025.65 292.887 1012.54 312.028 1003.47C331.2 994.39 361.404 989.38 406.722 991.734C427.07 992.792 451.702 994.8 479.435 997.061L479.436 997.061H479.437ZM226.34 1045.81C229.979 1047.65 234.211 1049.47 238.993 1051.25C241.996 1055.48 245.431 1059.36 249.145 1062.75C241.402 1057.29 233.799 1051.64 226.34 1045.81ZM617.989 13.5004C621.11 12.3697 624.369 11.4548 627.742 10.7291C627.112 10.8501 626.495 10.9775 625.891 11.1113C622.961 11.7604 620.333 12.5584 617.989 13.5004Z" fill="url(#paint0_linear_1147_31180)"/>
<circle cx="460.371" cy="290.006" r="8" fill="#ED26B7"/>
<circle cx="483" cy="121" r="5" fill="#ED26B7"/>
<circle cx="759" cy="716" r="8" fill="#ED26B7"/>
<circle cx="788" cy="1038" r="5" fill="#ED26B7"/>
<circle cx="806" cy="393" r="8" fill="#ED26B7"/>
<circle cx="832" cy="55" r="4" fill="#ED26B7"/>
<circle cx="137" cy="365" r="5" fill="#ED26B7"/>
<defs>
<linearGradient id="paint0_linear_1147_31180" x1="1030" y1="242.5" x2="126.999" y2="959.5" gradientUnits="userSpaceOnUse">
<stop stop-color="#BFC9D1"/>
<stop offset="0.390997" stop-color="#BFC9D1" stop-opacity="0.4182"/>
<stop offset="0.649181" stop-color="#BFC9D1" stop-opacity="0.2"/>
<stop offset="1" stop-color="#BFC9D1" stop-opacity="0.5"/>
</linearGradient>
</defs>
</svg>
