<?xml version="1.0" standalone="no"?>
<svg id="Topologytexture" width="2560" height="1555" viewBox="0 0 2560 1555" fill="none" xmlns="http://www.w3.org/2000/svg" style="max-width: 100%; max-height: 100%;">
<g opacity="0.2" clip-path="url(#clip0_1147_29976)">
<path d="M1841.28 -1.30566C1852.31 13.5663 1862.86 28.4383 1874.36 42.8305C1890.44 62.0882 1908.79 79.3247 1929.02 94.1628C1948.2 108.555 1968.33 121.988 1987.99 135.421C2030.66 164.205 2069.97 196.348 2098.26 235.207C2114.94 257.817 2128.64 282.488 2139.01 308.607C2145.51 326.092 2150.64 344.057 2154.35 362.338C2156.76 375.972 2158.2 389.759 2158.67 403.596C2159.63 414.63 2160.11 426.144 2160.11 437.178C2160.11 453.009 2159.15 468.841 2158.67 485.152C2158.19 502.423 2156.75 519.693 2157.71 537.444C2159.15 564.789 2162.98 592.134 2174.49 618.04C2183.12 639.62 2197.56 658.384 2216.2 672.251C2231.86 683.238 2250.31 689.558 2269.42 690.481C2288.11 691.921 2307.29 692.4 2325.99 693.84C2347.33 695.063 2368.36 699.594 2388.31 707.272C2397.84 711.037 2406.99 715.695 2415.64 721.185C2437.41 735.43 2454.7 755.557 2465.5 779.233C2474.11 796.531 2479.63 815.203 2481.8 834.404C2483.32 844.731 2484.12 855.15 2484.2 865.587C2483.72 878.54 2481.8 891.013 2480.37 903.487C2478.93 915 2477.01 926.514 2476.53 938.508C2475.57 955.299 2475.09 972.569 2475.09 989.36C2475.66 998.244 2476.95 1007.07 2478.93 1015.75C2479.89 1022.94 2480.84 1030.62 2481.8 1037.81C2483.24 1046.45 2484.68 1055.56 2485.64 1064.2L2487.08 1077.15C2487.56 1084.35 2487.56 1091.55 2488.52 1098.74C2492.35 1130.4 2491.39 1162.55 2490.91 1194.21C2490.35 1208.18 2489.07 1222.11 2487.08 1235.95C2486.12 1243.62 2485.64 1251.3 2484.2 1258.97C2482.76 1269.53 2481.33 1280.56 2478.93 1291.12C2474.16 1312.86 2467.26 1334.07 2458.31 1354.44C2445.67 1383.05 2427.41 1408.83 2404.62 1430.24C2386.64 1446.88 2365.87 1460.2 2343.25 1469.58C2326.23 1477.12 2307.64 1480.41 2289.07 1479.18C2272.5 1478.17 2256.48 1472.88 2242.57 1463.82C2212.84 1444.63 2193.67 1419.69 2178.32 1392.34C2167.11 1372.43 2158.11 1351.36 2151.48 1329.5C2147.16 1313.72 2143.79 1297.7 2141.41 1281.52C2137.75 1262.57 2136.46 1243.23 2137.57 1223.95C2138.14 1213.17 2139.42 1202.43 2141.41 1191.81C2143.55 1179.02 2146.43 1166.37 2150.04 1153.91C2159.1 1125.46 2172.52 1098.6 2189.83 1074.27C2203.25 1055.08 2217.64 1036.37 2231.54 1017.66C2242.09 1003.27 2252.16 988.88 2255.99 972.569C2262.22 948.102 2255.99 926.034 2233.94 906.845C2226.16 899.898 2217.02 894.667 2207.09 891.493C2197.02 888.359 2186.4 887.379 2175.93 888.615C2154.7 892.004 2134.24 899.152 2115.52 909.723C2078.12 928.433 2041.21 948.103 2000.93 963.454C1968.05 975.822 1933.99 984.823 1899.29 990.32C1873.46 994.399 1847.27 995.846 1821.15 994.637C1798.91 993.445 1776.79 990.558 1754.98 986.002C1725.2 979.237 1696.13 969.597 1668.21 957.218C1646.63 947.623 1625.54 937.548 1604.92 926.994C1568.01 908.764 1531.09 891.493 1491.78 876.621C1460.61 865.107 1428.49 854.073 1397.81 841.6C1369.2 830.102 1341.89 815.63 1316.3 798.423C1282.74 776.355 1253.98 750.929 1222.81 726.942C1205.82 713.241 1186.93 702.09 1166.72 693.84C1151.76 687.999 1135.79 685.226 1119.74 685.684C1100.41 686.651 1081.49 691.548 1064.12 700.076C1041.2 711.392 1019.51 725.058 999.398 740.854C987.412 749.969 975.427 759.564 963.921 769.159C937.072 791.707 910.703 814.255 884.334 836.802C869.951 849.276 855.09 861.749 840.707 873.743C811.941 897.73 783.174 921.717 753.929 945.224C719.41 972.569 683.452 998.475 649.412 1025.82C619.494 1049.71 593.033 1077.65 570.786 1108.82C551.086 1136.56 534.675 1166.51 521.884 1198.05C515.076 1213.96 510.557 1230.76 508.46 1247.94C506.947 1257.95 506.146 1268.05 506.062 1278.16C506.682 1293.9 509.755 1309.44 515.171 1324.22C528.595 1361.16 552.567 1393.3 582.772 1422.57C602.072 1442.01 624.626 1457.92 649.412 1469.58C667.232 1477.59 686.459 1481.99 705.986 1482.53C730.265 1482.61 754.394 1478.72 777.421 1471.02C806.187 1461.91 833.995 1452.31 862.281 1442.24C895.841 1430.24 929.401 1417.29 964.399 1408.17C981.368 1403.66 998.691 1400.61 1016.18 1399.06C1052.62 1395.22 1086.66 1401.94 1119.74 1413.93C1158.68 1428.2 1196.5 1445.36 1232.88 1465.26C1258.98 1478.91 1284.12 1494.3 1308.15 1511.32C1340.01 1533.59 1368.71 1560.05 1393.49 1590C1404.04 1602.47 1413.15 1615.9 1423.22 1629.34C1424.74 1631.18 1426.51 1632.79 1428.49 1634.13" stroke="#DFE4E8" stroke-width="2" stroke-linecap="round" stroke-linejoin="round" stroke-dasharray="0,0,0,5809.4658203125"><animate attributeType="XML" attributeName="stroke-dasharray" repeatCount="1" dur="16.666666666666668s" values="0,0,0,5809.4658203125; 
          0,2904.73291015625,2904.73291015625,0; 
          5809.4658203125,0,0,0" keyTimes="0; 0.5; 1" fill="freeze"></animate></path>
<path d="M1718.55 -1.30566C1727.66 10.2081 1736.29 21.2422 1745.4 32.2762C1765.54 56.2633 1785.19 80.2503 1806.29 103.758C1826.18 125.812 1848.72 145.31 1873.41 161.806C1897.38 178.118 1921.83 193.949 1945.33 210.74C1981.28 235.686 2011.49 264.951 2031.62 299.972C2042.56 318.768 2050.49 339.165 2055.12 360.419C2058.76 375.821 2060.53 391.607 2060.39 407.434C2060.39 413.191 2061.83 418.468 2061.35 424.225C2060.87 440.056 2059.91 455.888 2058.95 472.199C2057.99 484.672 2057.03 497.625 2056.55 510.099C2055.59 528.809 2055.12 547.518 2055.12 566.708C2055.59 579.661 2057.51 592.614 2058.95 605.567C2060.39 616.601 2061.35 627.635 2062.79 638.189C2064.22 647.784 2066.14 657.379 2067.58 666.494C2068.54 673.69 2070.46 680.886 2070.94 688.083C2072.69 703.048 2073.49 718.111 2073.33 733.178C2071.9 777.794 2054.64 818.572 2017.72 853.114C1994.92 874.476 1968.22 891.251 1939.09 902.527C1918.88 910.678 1897.54 915.693 1875.81 917.399C1864.67 918.755 1853.46 919.396 1842.25 919.318C1815.47 918.43 1788.98 913.58 1763.62 904.926C1724.31 891.973 1690.75 871.344 1657.19 850.715C1623.63 830.086 1589.59 808.018 1550.27 794.105C1533.01 787.869 1514.79 782.112 1497.06 776.835C1463.02 766.76 1428.98 757.645 1396.85 744.212C1373.21 734.568 1350.7 722.341 1329.73 707.752C1308.16 692.4 1287.06 675.609 1265.49 660.258C1244.87 645.386 1224.74 630.514 1199.33 619.959C1180.02 611.676 1159.25 607.365 1138.25 607.283C1117.25 607.2 1096.44 611.348 1077.07 619.48C1060.73 626.447 1045.01 634.792 1030.09 644.426C1016.02 653.079 1002.56 662.697 989.816 673.211C972.077 687.603 955.776 702.475 938.517 717.347C932.284 722.624 926.531 727.901 920.298 732.699C882.902 763.402 845.986 794.585 807.631 824.329C776.733 848.733 744.217 871.012 710.306 891.013C671.472 913.561 632.16 935.629 593.805 958.177C558.166 979.038 527.296 1007.15 503.192 1040.69C484.973 1066.6 469.152 1093.94 453.81 1120.81C435.591 1152.47 417.373 1183.66 400.114 1215.32C392.981 1228.06 387.809 1241.81 384.772 1256.1C380.368 1277.31 383.594 1299.4 393.881 1318.46C407.633 1345.06 424.361 1370.01 443.742 1392.82C470.591 1425.92 497.439 1459.03 525.246 1491.65C542.506 1511.8 560.724 1531.47 579.901 1550.66C596.852 1567.78 617.069 1581.32 639.351 1590.48C652.504 1595.75 666.432 1598.83 680.582 1599.59C708.173 1600.97 735.716 1596.04 761.127 1585.2C795.646 1571.77 829.686 1557.85 864.205 1543.94C898.237 1530.5 933.591 1520.69 969.68 1514.68C995.705 1510.85 1022.07 1509.88 1048.31 1511.8C1079.43 1513.79 1110.11 1520.25 1139.4 1530.99C1166.59 1540.33 1192.77 1552.39 1217.55 1566.97C1247.05 1584.46 1274.13 1605.75 1298.09 1630.29C1300.01 1631.96 1302.1 1633.4 1304.32 1634.61" stroke="#DFE4E8" stroke-width="2" stroke-linecap="round" stroke-linejoin="round" stroke-dasharray="0,0,0,4159.38330078125"><animate attributeType="XML" attributeName="stroke-dasharray" repeatCount="1" dur="16.666666666666668s" values="0,0,0,4159.38330078125; 
          0,2079.691650390625,2079.691650390625,0; 
          4159.38330078125,0,0,0" keyTimes="0; 0.5; 1" fill="freeze"></animate></path>
<path d="M1795.73 -0.828857C1816.27 30.6646 1840.22 59.7863 1867.17 86.0043C1885.99 103.785 1906.36 119.841 1928.05 133.978C1949.15 147.891 1969.28 162.763 1989.9 176.676C2015.79 194.586 2039.17 215.884 2059.42 240.001C2080.76 265.023 2096.9 294.054 2106.88 325.395C2111.2 340.267 2115.51 355.139 2118.87 370.011C2120.79 380.086 2120.79 390.16 2121.74 400.235C2122.22 407.911 2123.18 416.066 2123.18 423.742C2123.18 434.776 2122.7 445.81 2121.74 456.844C2121.27 468.358 2120.31 480.352 2118.87 491.866C2116.39 514.483 2115.59 537.253 2116.47 559.989C2116.95 572.462 2118.87 584.935 2120.31 597.409C2123.66 627.632 2133.73 656.897 2142.36 686.161C2147.15 701.033 2151.47 715.905 2154.82 731.256C2160.7 755.708 2156.92 781.484 2144.28 803.218C2131.05 824.687 2114.91 844.222 2096.33 861.266C2070.79 885.715 2041.9 906.392 2010.52 922.673C1973.26 943.307 1932.42 956.657 1890.18 962.012C1878.19 963.451 1866.21 964.891 1853.74 965.37C1841.13 966.09 1828.48 966.09 1815.87 965.37C1798.46 963.467 1781.17 960.584 1764.09 956.735C1730.29 948.837 1697.72 936.411 1667.24 919.795L1580.94 873.74C1550.46 857.851 1518.71 844.532 1486.02 833.921C1456.29 823.847 1425.61 813.772 1396.84 802.738C1366.45 791.095 1337.75 775.445 1311.5 756.203C1288.97 739.412 1266.92 722.141 1244.86 705.35C1228.47 692.205 1210.99 680.488 1192.6 670.329C1170.94 658.819 1146.64 653.195 1122.13 654.018C1109.49 654.577 1097.03 657.169 1085.21 661.694C1059.65 670.47 1035.8 683.618 1014.73 700.553C998.913 712.547 983.091 724.06 968.229 736.534C943.778 756.683 920.286 777.791 896.314 798.42C889.602 804.177 882.411 810.414 875.22 816.171C863.713 825.766 852.207 835.36 840.701 844.475C823.921 858.388 807.139 872.78 789.4 886.213C763.511 905.882 736.663 925.072 710.294 944.262C690.158 958.654 669.543 972.567 649.886 987.439C633.586 999.432 617.285 1011.43 601.943 1024.38C580.34 1042.82 561.168 1063.94 544.89 1087.22C533.863 1103.06 523.315 1118.89 513.727 1135.68C495.354 1166.05 480.858 1198.61 470.578 1232.59C465.09 1252.07 463.141 1272.38 464.825 1292.55C467.293 1313.88 474.149 1334.46 484.961 1353C499.196 1378.82 516.066 1403.1 535.301 1425.44C551.727 1444.45 569.173 1462.54 587.56 1479.65C603.125 1494.05 620.538 1506.31 639.339 1516.11C657.248 1525.43 677.166 1530.21 697.35 1530.03C723.581 1529.93 749.576 1525.06 774.059 1515.63C799.469 1507 824.399 1497.4 849.33 1488.29C879.731 1476.58 910.788 1466.65 942.34 1458.54C963.581 1453.12 985.226 1449.43 1007.06 1447.51C1026.87 1446.15 1046.76 1446.48 1066.51 1448.47C1105.35 1452.79 1140.82 1464.78 1175.34 1478.69C1212.42 1493.54 1247.79 1512.36 1280.82 1534.82C1310.02 1554.57 1336.47 1578.12 1359.45 1604.87C1366.64 1613.02 1373.35 1621.66 1380.54 1630.29C1381.73 1631.36 1383.01 1632.33 1384.38 1633.17" stroke="#DFE4E8" stroke-width="2" stroke-linecap="round" stroke-linejoin="round" stroke-dasharray="0,0,0,4160.9287109375"><animate attributeType="XML" attributeName="stroke-dasharray" repeatCount="1" dur="16.666666666666668s" values="0,0,0,4160.9287109375; 
          0,2080.46435546875,2080.46435546875,0; 
          4160.9287109375,0,0,0" keyTimes="0; 0.5; 1" fill="freeze"></animate></path>
<path d="M1751.63 -0.828857C1770.32 23.1582 1789.02 46.6656 1808.2 70.6527C1831.09 98.3158 1857.53 122.834 1886.83 143.573C1907.92 158.925 1930.93 172.838 1952.51 187.71C1985.59 210.257 2015.31 234.724 2037.85 264.468C2065.85 301.822 2082.5 346.461 2085.79 393.039C2086.27 409.83 2087.23 426.141 2086.75 442.932C2086.75 455.405 2085.31 467.399 2084.35 479.872C2083.39 491.386 2081.96 502.42 2081.96 513.934C2081 534.083 2080.52 554.232 2080.52 573.901C2081.08 585.324 2082.37 596.7 2084.35 607.963C2085.79 620.436 2087.71 632.91 2089.63 645.383C2091.54 655.937 2093.94 666.971 2095.38 677.526C2096.82 688.08 2099.22 698.634 2100.17 709.189C2101.13 721.182 2101.61 733.655 2101.61 745.649C2100.99 768.262 2094.73 790.361 2083.39 809.934C2068.53 837.759 2045.52 861.746 2018.19 882.375C1990.99 902.698 1960.27 917.823 1927.58 926.991C1908.44 932.371 1888.87 936.063 1869.09 938.025C1829.68 941.281 1790.02 936.382 1752.59 923.633C1715.19 911.16 1683.07 892.93 1650.95 874.22C1626.02 859.827 1601.08 845.435 1575.67 832.002C1549.55 819.058 1522.26 808.617 1494.17 800.819C1462.53 791.224 1430.89 782.589 1400.68 770.116C1372.33 758.843 1345.45 744.184 1320.62 726.459C1302.88 713.506 1285.62 700.073 1267.88 686.641C1247.26 671.289 1227.13 655.457 1203.16 642.984C1185.39 633.575 1165.89 627.912 1145.85 626.344C1125.81 624.777 1105.66 627.338 1086.65 633.869C1062.83 642.402 1040.39 654.361 1020.01 669.37C1008.03 678.485 995.081 686.641 983.575 696.235C960.083 715.425 937.55 735.574 915.017 755.244L895.36 772.035C859.402 801.299 824.404 830.563 787.487 858.868C749.536 887.76 710.001 914.507 669.068 938.985C635.507 959.614 602.427 980.242 573.181 1004.71C553.124 1021.62 535.247 1040.95 519.964 1062.28C510.375 1075.71 501.746 1089.62 493.116 1103.54C473.997 1134.64 456.708 1166.84 441.337 1199.96C433.502 1216.4 427.396 1233.6 423.118 1251.3C420.403 1265.21 420.079 1279.49 422.16 1293.51C426.954 1329.01 447.091 1359.72 469.144 1389.46C485.445 1412.01 502.704 1433.6 520.922 1454.71C541.058 1477.73 561.675 1500.76 584.208 1522.35C600.175 1538.4 619.049 1551.26 639.822 1560.25C652.014 1565.56 664.95 1568.96 678.176 1570.32C705.504 1573.68 731.394 1567.93 756.324 1559.29C789.405 1547.3 822.006 1534.34 854.608 1521.87C886.667 1509.29 919.698 1499.34 953.372 1492.13C972.701 1488.52 992.235 1486.12 1011.86 1484.93C1047.25 1483.16 1082.69 1487.05 1116.86 1496.44C1163.69 1508.89 1208.21 1528.81 1248.7 1555.45C1280.4 1576.04 1309.12 1600.9 1334.04 1629.33C1335 1630.29 1336.92 1631.25 1337.88 1632.21" stroke="#DFE4E8" stroke-width="2" stroke-linecap="round" stroke-linejoin="round" stroke-dasharray="0,0,0,4150.31982421875"><animate attributeType="XML" attributeName="stroke-dasharray" repeatCount="1" dur="16.666666666666668s" values="0,0,0,4150.31982421875; 
          0,2075.159912109375,2075.159912109375,0; 
          4150.31982421875,0,0,0" keyTimes="0; 0.5; 1" fill="freeze"></animate></path>
<path d="M-167.059 892.455C-159.867 889.576 -152.676 886.218 -145.484 883.34C-125.348 876.143 -105.211 869.427 -85.0751 862.231C-54.7321 851.321 -23.4312 843.29 8.41424 838.244C26.6327 835.365 44.8507 833.446 63.0691 832.007C107.656 827.689 152.723 831.048 197.79 829.608C245.733 828.169 289.361 817.615 326.757 792.668C349.29 777.796 368.469 760.046 380.454 738.458C386.373 728.825 390.135 718.022 391.48 706.795C392.518 696.274 392.84 685.696 392.44 675.132C391.366 662.95 389.118 650.9 385.728 639.151C377.577 608.927 368.468 578.704 360.317 548.48C357.663 535.324 355.742 522.031 354.564 508.661C353.372 502.662 352.889 496.543 353.126 490.431C355.044 468.363 358.4 446.295 373.742 427.105C381.369 417.492 391.25 409.912 402.508 405.037C410.177 401.856 418.458 400.421 426.75 400.835C435.042 401.25 443.137 403.505 450.451 407.436C465.996 415.306 478.971 427.457 487.847 442.457C502.656 465.39 512.911 490.962 518.051 517.777C521.427 533.264 523.67 548.977 524.763 564.791C526.201 586.859 526.202 608.927 526.202 630.996C526.202 642.989 524.284 654.983 523.804 666.976C522.847 676.22 522.367 685.508 522.366 694.801C523.804 719.748 530.037 743.735 550.653 763.884C568.392 781.634 591.405 791.709 620.171 794.108C649.012 795.802 677.894 791.556 705.03 781.634C742.905 769.161 775.986 750.451 808.108 729.822C842.148 708.234 872.352 682.808 903.036 658.341C930.364 636.273 955.773 613.245 983.58 591.657C1010.12 570.163 1039.68 552.704 1071.32 539.845C1093.73 531.092 1117.32 525.755 1141.31 524.013C1178.71 521.135 1212.75 529.77 1244.87 544.162C1273.16 556.636 1297.61 573.427 1322.54 590.218C1354.18 611.806 1386.78 633.394 1424.66 647.786C1447.94 656.395 1471.81 663.29 1496.09 668.415C1528.22 675.612 1561.3 681.368 1592.46 691.443C1621.42 700.828 1649 714.059 1674.44 730.782C1700.33 748.053 1725.74 765.803 1752.11 782.594C1770.38 794.538 1790.45 803.448 1811.56 808.98C1843.2 817.135 1873.89 814.736 1901.69 798.905C1918.5 789.821 1932.07 775.74 1940.53 758.607C1948.17 744.074 1952.43 728.003 1952.99 711.592C1952.99 704.876 1954.43 698.159 1953.95 691.923C1952.99 678.97 1951.55 666.017 1950.12 653.064C1948.68 640.111 1946.76 627.158 1944.84 614.205C1943.4 604.61 1941.01 595.015 1939.57 585.9C1938.13 578.224 1937.65 570.068 1936.69 562.393C1935.25 552.318 1933.82 541.764 1932.86 531.689C1932.38 525.453 1931.9 519.696 1931.42 513.459C1930.94 503.384 1930.94 493.79 1929.98 483.715C1929.02 469.803 1927.58 455.89 1925.67 441.977C1923.92 426.469 1921.2 411.087 1917.52 395.922C1913.98 382.929 1909 370.377 1902.65 358.502C1889.41 334.404 1871.67 313.07 1850.39 295.656C1832.18 280.305 1813.96 265.433 1795.74 250.081C1768.55 227.345 1743.36 202.306 1720.47 175.241C1701.29 152.214 1682.59 128.227 1662.46 105.679C1634.17 74.4955 1604.92 43.7921 1575.68 13.0887C1571.36 8.77099 1567.05 3.97356 1562.73 -0.344116" stroke="#DFE4E8" stroke-width="2" stroke-linecap="round" stroke-linejoin="round" stroke-dasharray="0,0,0,3852.269775390625"><animate attributeType="XML" attributeName="stroke-dasharray" repeatCount="1" dur="16.666666666666668s" values="0,0,0,3852.269775390625; 
          0,1926.1348876953125,1926.1348876953125,0; 
          3852.269775390625,0,0,0" keyTimes="0; 0.5; 1" fill="freeze"></animate></path>
<path d="M-168.027 872.3C-150.768 866.064 -133.508 859.347 -116.248 853.111C-74.0583 837.279 -30.9099 822.887 15.1157 815.211C34.293 811.853 53.9507 809.454 73.6074 807.056C90.3875 805.137 107.168 804.177 123.948 802.738C157.988 799.859 192.027 796.981 225.107 788.346C260.585 778.751 290.31 762.44 312.364 737.973C325.948 722.783 335.219 704.23 339.213 684.242C342.003 667.925 342.648 651.313 341.13 634.828C339.671 619.503 337.269 604.283 333.938 589.253L326.747 551.833C324.829 542.718 322.912 533.603 321.474 524.488C320.994 521.13 320.515 517.292 320.035 513.934C318.758 499.418 318.437 484.835 319.077 470.277C320.056 448.193 326.657 426.726 338.254 407.911C352.157 385.843 370.855 367.133 401.539 358.497C413.374 355.004 425.859 354.313 438.007 356.478C450.155 358.643 461.634 363.604 471.536 370.971C493.111 386.322 506.535 405.992 518.041 426.621C528.857 446.264 537.536 467.012 543.93 488.507C549.683 508.177 553.998 528.326 558.313 547.995C561.19 559.989 563.108 571.982 565.026 583.976C566.464 593.091 566.463 601.726 567.902 610.841C569.34 622.355 571.258 634.349 573.176 645.862C575.573 658.815 577.97 672.248 581.326 685.201C585.667 702.926 595.179 718.958 608.653 731.256C622.534 743.688 639.986 751.412 658.515 753.324C683.925 756.203 707.417 750.926 730.43 743.73C761.458 733.081 790.955 718.404 818.165 700.073C846.397 681.401 873.604 661.223 899.669 639.626C927.476 617.078 954.324 593.571 982.611 571.503C1009.45 550.051 1039.34 532.748 1071.31 520.17C1099.18 510.088 1128.46 504.423 1158.08 503.379C1176 503.531 1193.84 505.622 1211.3 509.616C1245.14 518.544 1277.34 532.794 1306.71 551.833C1329.72 566.225 1352.25 580.618 1375.27 594.53C1408.98 614.592 1445.74 629.014 1484.1 637.227C1515.26 643.464 1546.42 649.7 1577.59 656.896C1605.8 662.993 1633.17 672.497 1659.09 685.201C1685.02 698.686 1710.01 713.913 1733.88 730.777C1753.69 745.035 1775.09 756.948 1797.65 766.278C1809.89 771.092 1822.85 773.848 1836 774.433C1851.9 775.212 1867.65 771.02 1881.07 762.44C1898.17 750.629 1909.89 732.514 1913.67 712.067C1916.39 696.23 1917.19 680.122 1916.07 664.093C1915.01 651.53 1913.25 639.037 1910.79 626.673C1909.35 616.598 1908.4 606.524 1906.48 596.449C1904.56 586.375 1902.64 575.82 1901.2 565.266C1900.25 557.59 1899.29 549.434 1898.33 541.759C1896.89 530.245 1895.45 519.211 1894.49 507.697C1894.01 502.9 1893.53 498.582 1893.05 493.784C1890.66 476.034 1888.74 458.284 1886.34 440.533C1883.76 422.204 1878.76 404.299 1871.48 387.282C1858.79 359.259 1840.51 334.12 1817.78 313.402C1791.89 288.455 1764.57 264.468 1740.11 239.042C1718.06 216.494 1698.4 192.507 1678.75 169C1649.98 133.978 1622.17 98.9574 1589.57 65.8552C1568 43.7871 1546.42 21.719 1524.85 -0.828857" stroke="#DFE4E8" stroke-width="2" stroke-linecap="round" stroke-linejoin="round" stroke-dasharray="0,0,0,3726.50244140625"><animate attributeType="XML" attributeName="stroke-dasharray" repeatCount="1" dur="16.666666666666668s" values="0,0,0,3726.50244140625; 
          0,1863.251220703125,1863.251220703125,0; 
          3726.50244140625,0,0,0" keyTimes="0; 0.5; 1" fill="freeze"></animate></path>
<path d="M2134.17 1634.14C2138 1629.34 2142.32 1624.54 2146.15 1619.74C2156.22 1607.27 2166.29 1594.8 2175.88 1582.33C2184.27 1571.96 2189.14 1559.19 2189.78 1545.86C2189.43 1536.23 2187.14 1526.77 2183.07 1518.04C2175.88 1502.21 2167.25 1487.34 2159.1 1471.98C2132.11 1424.35 2111.94 1373.15 2099.17 1319.91C2096.77 1308.87 2094.37 1297.84 2092.93 1286.8C2091.02 1272.41 2090.06 1258.02 2088.62 1243.63C2087.34 1234.73 2087.02 1225.73 2087.66 1216.76C2088.62 1201.89 2091.5 1186.54 2092.93 1171.67C2095.52 1151.77 2100.02 1132.17 2106.36 1113.14C2109.71 1101.14 2114.99 1090.11 2118.82 1078.12C2125.54 1058.45 2132.73 1039.26 2138 1019.59C2141.36 1006.64 2141.36 993.682 2130.81 982.169C2123.81 974.625 2114.22 970 2103.96 969.216C2086.7 966.817 2070.88 971.135 2055.06 974.972C2023.9 982.648 1993.69 991.763 1962.53 999.919C1933.64 1007.95 1904.13 1013.57 1874.31 1016.71C1860.41 1018.15 1846.03 1019.11 1832.12 1020.07C1822.06 1020.55 1811.51 1021.51 1800.96 1021.03C1772.71 1020.01 1744.61 1016.32 1717.06 1009.99C1695.01 1004.72 1673.43 998 1652.34 990.804C1611.58 976.891 1573.71 957.702 1534.39 941.391C1498.92 926.519 1462.48 913.086 1426.04 899.173C1380.98 881.903 1337.35 862.713 1298.99 837.287C1275.76 822.022 1253.35 805.528 1231.87 787.873C1219.41 777.319 1206.94 766.765 1194 756.69C1176.85 742.832 1157.8 731.522 1137.42 723.108C1115.71 714.664 1091.87 713.32 1069.35 719.27C1046.53 725.172 1024.94 735.08 1005.58 748.534C972.02 769.643 943.254 795.069 913.53 819.057C895.791 833.449 879.01 848.8 861.751 863.672C843.053 879.984 823.876 896.295 805.179 913.086C760.112 952.904 711.689 990.324 664.705 1028.7C637.088 1050.44 611.857 1075.04 589.434 1102.1C564.664 1131.98 544.909 1165.68 530.942 1201.89C525.042 1216.32 521.17 1231.49 519.436 1246.99C518.957 1254.18 517.039 1261.38 517.039 1268.57C517.164 1299.77 526.688 1330.2 544.366 1355.89C554.624 1371.06 566.7 1384.91 580.324 1397.14C596.229 1411.27 614.17 1422.91 633.541 1431.69C648.571 1438.26 664.634 1442.16 681.005 1443.2C712.647 1445.6 741.893 1438.4 771.138 1429.77C806.304 1418.61 840.87 1405.64 874.696 1390.91C893.874 1383.23 913.05 1375.08 932.707 1367.4C953.789 1358.81 975.849 1352.84 998.389 1349.65C1024.2 1346.53 1050.38 1349.83 1074.62 1359.25C1104.34 1370.28 1130.23 1385.63 1156.6 1400.5C1190.16 1419.69 1223.72 1439.36 1256.8 1459.51C1274.54 1470.55 1291.32 1482.54 1308.1 1494.53C1342.24 1519.07 1372.74 1548.3 1398.72 1581.37C1411.18 1596.72 1421.73 1613.03 1433.24 1628.86C1434.66 1630.34 1435.94 1631.94 1437.07 1633.66" stroke="#DFE4E8" stroke-width="2" stroke-linecap="round" stroke-linejoin="round" stroke-dasharray="0,0,0,3778.762939453125"><animate attributeType="XML" attributeName="stroke-dasharray" repeatCount="1" dur="16.666666666666668s" values="0,0,0,3778.762939453125; 
          0,1889.3814697265625,1889.3814697265625,0; 
          3778.762939453125,0,0,0" keyTimes="0; 0.5; 1" fill="freeze"></animate></path>
<path d="M-168.027 853.116C-150.288 846.399 -132.549 839.203 -114.81 832.967C-81.3599 820.051 -47.2761 808.842 -12.6905 799.385C13.1989 793.148 39.5672 788.351 65.936 784.513C100.935 779.715 135.933 775.398 169.973 769.161C205.451 762.924 238.052 750.451 263.462 728.383C280.602 713.925 293.107 694.737 299.419 673.213C305.652 652.584 304.693 631.475 304.214 610.367C303.16 598.756 301.4 587.221 298.941 575.825C297.502 566.71 296.543 557.115 295.105 548C293.667 538.885 291.749 528.811 290.311 519.696C289.438 515.577 288.797 511.413 288.392 507.222C287.119 490.623 286.799 473.965 287.434 457.329C289.446 428.92 299.416 401.653 316.2 378.651C333.815 353.187 358.966 333.892 388.115 323.481C402.603 317.943 418.197 315.925 433.616 317.593C449.035 319.262 463.839 324.568 476.81 333.076C499.822 347.948 514.685 367.617 527.15 388.246C541.224 410.776 552.494 434.942 560.71 460.207C567.422 479.877 573.176 499.546 578.929 519.216C583.723 536.966 588.038 555.196 592.353 572.947C597.148 592.616 601.941 612.286 607.215 631.955C611.936 651.029 620.412 668.97 632.146 684.726C644.51 700.888 662.466 711.839 682.487 715.43C699.587 718.322 717.117 717.338 733.786 712.551C764.82 704.284 794.294 690.996 821.042 673.213C860.356 648.746 893.916 619.961 928.435 591.657C957.651 566.746 988.748 544.131 1021.45 524.013C1052.59 505.075 1087.1 492.367 1123.09 486.593C1177.96 478.548 1233.97 487.945 1283.22 513.459C1311.02 527.851 1337.87 544.162 1364.72 559.994C1399.74 581.619 1437.91 597.643 1477.87 607.488C1502.32 613.245 1527.73 617.083 1552.66 621.401C1569.92 624.759 1587.18 627.157 1604.43 630.995C1627.15 636.126 1649.43 643.023 1671.08 651.624C1698.08 663.255 1724.34 676.554 1749.7 691.443C1764.77 700.771 1780.86 708.337 1797.65 713.991C1814.43 718.788 1831.21 719.748 1846.07 708.714C1855.24 702.303 1861.72 692.739 1864.29 681.848C1868.83 666.768 1869.82 650.838 1867.16 635.313C1866.21 628.639 1865.73 621.906 1865.73 615.164C1864.77 603.65 1862.85 592.616 1861.89 581.102L1860.45 566.71C1859.49 555.196 1859.01 543.203 1857.58 531.689C1856.62 521.135 1854.7 511.06 1853.74 500.506C1852.78 491.391 1852.3 481.796 1850.86 472.681C1848.95 460.687 1846.55 448.214 1843.67 436.22C1837.46 411.61 1827.08 388.246 1812.99 367.138C1800.09 348.833 1785.65 331.66 1769.84 315.805C1740.59 285.582 1710.39 255.358 1684.5 222.736C1661.01 193.471 1638.96 163.727 1614.98 134.943C1589.57 104.239 1560.81 75.455 1532.52 46.6705C1517.18 31.3188 1502.8 15.0076 1487.93 -0.344116" stroke="#DFE4E8" stroke-width="2" stroke-linecap="round" stroke-linejoin="round" stroke-dasharray="0,0,0,3586.649658203125"><animate attributeType="XML" attributeName="stroke-dasharray" repeatCount="1" dur="16.666666666666668s" values="0,0,0,3586.649658203125; 
          0,1793.3248291015625,1793.3248291015625,0; 
          3586.649658203125,0,0,0" keyTimes="0; 0.5; 1" fill="freeze"></animate></path>
<path d="M-168.027 945.228C-155.562 941.39 -143.097 937.552 -131.111 933.235C-97.4006 921.523 -62.7565 912.696 -27.5533 906.849C-13.2899 904.521 1.14399 903.397 15.5956 903.491C40.5261 903.97 64.9772 906.369 87.5105 915.964C114.428 925.876 136.323 946.06 148.398 972.094C156.886 992.675 163.31 1014.05 167.576 1035.9C175.597 1073.14 190.385 1108.59 211.204 1140.48C223.315 1158.81 237.827 1175.43 254.353 1189.9C262.02 1196.26 270.383 1201.73 279.284 1206.21C286.32 1209.91 294.167 1211.81 302.118 1211.73C310.068 1211.64 317.873 1209.58 324.83 1205.73C337.548 1199.04 349.185 1190.46 359.349 1180.3C381.376 1157.8 400.54 1132.67 416.402 1105.46C429.826 1082.43 441.332 1058.93 455.235 1035.9C469.618 1011.91 484.481 987.925 507.494 968.256C529.404 950.172 553.78 935.31 579.888 924.12C607.215 911.167 635.023 899.173 662.83 886.7C696.494 871.223 728.878 853.095 759.675 832.489C779.332 819.536 798.989 805.623 817.687 791.711C841.179 773.96 864.671 756.21 887.205 737.5C912.615 716.392 937.544 695.283 961.995 673.694C986.829 651.481 1013.63 631.57 1042.06 614.207C1064.15 600.653 1088.52 591.225 1113.98 586.382C1135.43 582.541 1157.44 583.03 1178.7 587.821C1205.03 594.087 1229.93 605.322 1252.05 620.923C1269.79 632.437 1285.61 645.39 1302.87 657.863C1329.83 678.537 1358.73 696.532 1389.17 711.594C1410.21 721.366 1432.02 729.389 1454.37 735.581C1484.58 744.217 1515.26 751.892 1544.99 761.007C1576.74 770.889 1607.04 784.923 1635.12 802.745C1663.89 820.975 1692.17 839.685 1721.42 857.436C1747.74 873.573 1776.85 884.638 1807.24 890.058C1818.81 892.047 1830.5 893.329 1842.23 893.896C1857.82 895.17 1873.5 894.037 1888.74 890.538C1902.61 887.783 1916.23 883.933 1929.49 879.024C1948.91 871.382 1966.9 860.515 1982.71 846.881C2004.86 828.52 2021.6 804.473 2031.13 777.319C2035.71 765.161 2038.46 752.387 2039.28 739.419C2040.31 727.135 2040.63 714.801 2040.24 702.479C2039.28 686.648 2037.36 671.296 2034.97 655.944C2032.57 639.153 2029.21 622.362 2027.3 605.571C2025.86 593.578 2024.9 581.584 2024.42 569.591C2023.46 544.644 2022.98 519.698 2022.98 494.751C2023.46 467.406 2024.9 439.581 2025.38 412.235C2025.05 394.043 2022.31 375.975 2017.23 358.505C2012.72 341.216 2005.61 324.715 1996.13 309.571C1986.22 293.426 1974.12 278.734 1960.18 265.914C1935.72 243.366 1907.44 224.177 1878.67 204.987C1837.31 178.349 1799.87 146.053 1767.44 109.039C1743.95 81.6938 1721.42 54.3485 1697.92 27.0032C1690.25 17.8881 1682.1 9.25278 1674.43 0.617432" stroke="#DFE4E8" stroke-width="2" stroke-linecap="round" stroke-linejoin="round" stroke-dasharray="0,0,0,3661.6435546875"><animate attributeType="XML" attributeName="stroke-dasharray" repeatCount="1" dur="16.666666666666668s" values="0,0,0,3661.6435546875; 
          0,1830.82177734375,1830.82177734375,0; 
          3661.6435546875,0,0,0" keyTimes="0; 0.5; 1" fill="freeze"></animate></path>
<path d="M-168.027 925.077C-133.029 913.563 -98.5089 902.049 -63.0309 891.495C-39.578 884.583 -15.4817 880.082 8.88401 878.062C29.0202 876.623 49.1556 877.583 69.2918 878.062C86.1731 878.826 102.908 881.563 119.154 886.218C141.246 891.592 162.086 901.205 180.52 914.523C197.711 927.356 209.778 945.893 214.56 966.814C218.396 982.646 220.313 998.957 222.71 1015.27C227.025 1039.74 233.258 1063.72 247.641 1086.27C254.857 1097.72 264.724 1107.27 276.406 1114.1C296.543 1125.61 315.241 1125.13 335.377 1113.14C349.234 1104.4 360.885 1092.58 369.417 1078.59C384.759 1056.05 393.868 1031.58 402.977 1006.63C411.128 984.565 418.799 962.977 434.141 943.307C447.577 926.868 464.872 914.012 484.481 905.887C509.411 894.853 536.739 889.576 563.107 882.86C591.394 875.664 620.16 868.947 647.008 859.352C695.355 841.937 741.275 818.398 783.646 789.31C799.947 778.276 815.768 767.242 831.59 755.248C848.849 742.295 866.109 729.342 882.889 715.43C904.463 697.68 925.08 678.97 946.175 660.739C979.256 632.914 1012.34 604.61 1053.57 583.981C1073.88 573.53 1095.73 566.403 1118.29 562.872C1147.29 558.565 1176.91 561.364 1204.59 571.028C1229.43 580.233 1252.96 592.652 1274.59 607.968C1303.35 627.637 1332.12 648.266 1361.36 667.456C1388.43 684.303 1417.83 697.073 1448.62 705.355C1478.82 713.991 1509.51 721.667 1540.19 729.342C1579.37 739.51 1616.63 756.041 1650.46 778.276C1678.27 796.027 1705.12 814.736 1733.4 832.487C1756.52 846.909 1782 857.14 1808.67 862.711C1861.89 873.265 1909.35 864.15 1950.11 833.926C1969.77 819.481 1985.31 800.127 1995.17 777.796C2000.62 766.661 2004.03 754.637 2005.24 742.296C2006.99 729.097 2007.8 715.79 2007.64 702.477C2007.07 689.463 2005.79 676.491 2003.8 663.618C2002.36 652.584 2001.41 641.55 1999.97 630.995C1998.53 620.441 1996.13 610.367 1994.69 599.812C1993.26 591.657 1992.78 583.501 1991.82 575.345C1987.02 526.412 1990.38 477.478 1988.94 428.065C1988.58 400.664 1983.39 373.542 1973.6 347.948C1961.45 320.024 1943.08 295.247 1919.9 275.507C1898.07 257.066 1875.18 239.926 1851.34 224.175C1814.57 199.011 1781.07 169.359 1751.62 135.902C1730.05 110.476 1708.47 85.0498 1686.42 59.6235C1669.16 39.9541 1650.46 20.7645 1632.72 1.57482C1632.24 1.09508 1631.76 0.135625 1631.28 -0.344116" stroke="#DFE4E8" stroke-width="2" stroke-linecap="round" stroke-linejoin="round" stroke-dasharray="0,0,0,3560.384765625"><animate attributeType="XML" attributeName="stroke-dasharray" repeatCount="1" dur="16.666666666666668s" values="0,0,0,3560.384765625; 
          0,1780.1923828125,1780.1923828125,0; 
          3560.384765625,0,0,0" keyTimes="0; 0.5; 1" fill="freeze"></animate></path>
<path d="M2058.89 1634.14C2060.84 1630.88 2062.6 1627.52 2064.17 1624.06C2069.44 1611.59 2074.71 1598.64 2079.03 1586.16C2085.08 1570 2090.2 1553.5 2094.37 1536.75C2096.75 1525.56 2097.72 1514.12 2097.25 1502.69C2095.63 1484.81 2093.07 1467.04 2089.58 1449.44C2084.3 1423.53 2078.07 1397.62 2072.32 1371.72C2068 1352.05 2063.21 1331.9 2058.89 1312.23C2056.98 1303.11 2056.02 1293.52 2054.58 1284.4C2052.66 1271.93 2050.74 1259.94 2049.31 1247.46C2048.83 1242.19 2047.87 1236.91 2047.87 1232.11C2047.39 1206.69 2046.91 1180.78 2046.43 1155.35C2046.43 1144.32 2048.35 1132.81 2047.39 1121.77C2046.43 1107.86 2045.95 1094.43 2040.2 1080.99C2032.04 1062.76 2016.7 1052.69 1993.21 1051.25C1978.83 1050.29 1964.44 1049.81 1950.06 1050.29C1935.68 1050.77 1921.3 1053.17 1906.91 1054.13C1895.89 1055.09 1884.86 1055.09 1873.83 1056.53C1846.57 1058.84 1819.19 1059.49 1791.85 1058.45C1773.89 1057.98 1755.96 1056.54 1738.15 1054.13C1710.39 1050.43 1682.98 1044.5 1656.17 1036.38C1630.28 1028.7 1604.39 1020.07 1578.98 1011.91C1550.22 1002.32 1521.93 992.242 1493.64 982.647C1470.15 974.492 1446.66 966.336 1423.17 958.66C1371.76 941.28 1323.51 915.682 1280.29 882.861C1266.39 872.307 1252.01 861.753 1238.58 850.719C1219.41 834.887 1201.19 818.096 1182.01 802.744C1165.15 788.363 1146.03 776.856 1125.44 768.683C1112.83 763.554 1099.24 761.261 1085.65 761.966C1073.08 763.041 1060.68 765.618 1048.73 769.642C1023.88 778.586 1000.58 791.374 979.69 807.542C961.951 820.495 943.733 833.448 927.433 847.36C903.94 867.03 881.407 887.179 858.874 907.328C843.532 920.761 828.669 934.193 813.806 947.626C791.273 967.775 768.74 987.925 745.727 1008.07C738.056 1015.27 729.426 1021.51 721.755 1028.7C687.236 1058.45 653.197 1087.71 626.349 1122.25C603.336 1151.04 585.118 1182.22 576.008 1215.8C573.132 1226.84 571.693 1238.35 569.775 1249.38C567.473 1267.26 569.783 1285.43 576.487 1302.16C582.61 1317.67 591.921 1331.73 603.816 1343.41C616.943 1356.86 632.802 1367.33 650.32 1374.12C672.748 1382.74 696.952 1385.7 720.797 1382.75C756.5 1379.06 791.251 1368.99 823.395 1353.01C861.27 1334.3 898.187 1314.15 935.103 1294.48C953.415 1284.32 972.896 1276.42 993.115 1270.97C1005.05 1267.97 1017.26 1266.21 1029.55 1265.69C1052.22 1265.04 1074.62 1270.69 1094.27 1282.01C1112.67 1292.93 1129.73 1305.97 1145.09 1320.87C1172.24 1346.21 1200.73 1370.07 1230.43 1392.35C1256.8 1412.02 1285.57 1430.25 1312.42 1449.44C1345.5 1473.42 1377.14 1498.37 1403.51 1527.15C1420.99 1545.9 1437.01 1565.94 1451.45 1587.12C1461.52 1601.99 1470.63 1617.35 1480.7 1632.22C1481.85 1633.61 1483.14 1634.9 1484.53 1636.06" stroke="#DFE4E8" stroke-width="2" stroke-linecap="round" stroke-linejoin="round" stroke-dasharray="0,0,0,3501.328125"><animate attributeType="XML" attributeName="stroke-dasharray" repeatCount="1" dur="16.666666666666668s" values="0,0,0,3501.328125; 
          0,1750.6640625,1750.6640625,0; 
          3501.328125,0,0,0" keyTimes="0; 0.5; 1" fill="freeze"></animate></path>
<path d="M-167.059 834.408C-165.141 833.448 -163.702 832.009 -161.784 831.05C-138.772 821.455 -115.759 811.86 -92.2666 803.225C-56.3092 790.272 -20.3513 777.319 18.4828 770.123C52.0431 763.886 86.0821 758.129 119.642 751.892C150.326 746.136 181.01 738.939 207.859 724.547C239.501 707.756 258.679 684.729 267.788 655.944C274.5 635.315 273.54 614.207 273.061 593.098C272.011 579.423 270.252 565.812 267.788 552.32C265.87 539.847 262.993 527.853 261.075 515.38C259.637 505.785 259.158 496.19 258.199 487.075C257.72 476.041 256.281 465.007 256.761 454.453C257.689 429.332 264.243 404.74 275.938 382.492C291.25 353.958 313.102 329.461 339.703 311.01C358.947 296.653 381.002 286.517 404.426 281.266C418.5 278.091 433.087 277.946 447.222 280.841C461.356 283.736 474.713 289.604 486.408 298.057C505.113 311.142 521.075 327.766 533.393 346.991C550.259 371.723 563.95 398.478 574.145 426.628C586.61 460.689 598.596 494.751 609.144 529.292C618.732 559.516 626.882 590.22 639.827 619.484C646.452 636.127 656.976 650.934 670.511 662.661C682.893 672.986 698.096 679.338 714.139 680.891C741.467 683.289 765.918 676.093 788.931 666.019C813.955 655.166 837.479 641.139 858.927 624.281C877.146 610.369 895.365 596.936 913.583 583.023C925.09 574.388 935.157 564.314 946.664 555.678C974.471 534.57 1002.76 513.461 1035.36 497.15C1064.5 481.942 1095.91 471.573 1128.37 466.446C1145.48 463.642 1162.82 462.517 1180.15 463.088C1210.11 464.241 1239.71 470.068 1267.88 480.359C1303.84 493.312 1335 511.542 1367.61 529.292C1386.78 539.847 1406.44 548.962 1426.1 558.557C1450.59 569.459 1476.36 577.197 1502.81 581.584C1523.42 585.422 1544.04 587.821 1564.65 590.699C1605.4 596.456 1646.16 602.213 1685.95 611.808C1704.65 616.126 1723.82 619.963 1743 623.801C1771.29 629.079 1790.47 620.443 1800.05 598.855C1804.63 587.526 1807.38 575.544 1808.2 563.354C1809.7 552.542 1810.5 541.646 1810.6 530.732C1810.12 512.501 1808.2 494.751 1806.77 476.521C1805.44 459.611 1801.73 442.974 1795.74 427.107C1788.74 406.55 1778.72 387.148 1766.01 369.539C1743 336.436 1713.28 306.692 1687.87 274.55C1662.46 242.407 1638.01 210.264 1613.08 178.122C1587.88 145.419 1560.66 114.335 1531.57 85.0519C1504.24 57.7067 1476.44 31.3208 1451.99 2.53637C1451.51 2.05663 1451.03 1.09717 1450.55 0.617432" stroke="#DFE4E8" stroke-width="2" stroke-linecap="round" stroke-linejoin="round" stroke-dasharray="0,0,0,3393.439453125"><animate attributeType="XML" attributeName="stroke-dasharray" repeatCount="1" dur="16.666666666666668s" values="0,0,0,3393.439453125; 
          0,1696.7197265625,1696.7197265625,0; 
          3393.439453125,0,0,0" keyTimes="0; 0.5; 1" fill="freeze"></animate></path>
<path d="M1990.34 1634.13C1990.99 1634.03 1991.63 1633.87 1992.26 1633.66C1996.57 1609.67 2005.2 1587.12 2012.39 1564.09C2018.15 1545.38 2023.9 1527.15 2028.21 1508.44C2030.62 1496.75 2032.07 1484.87 2032.53 1472.94C2033.73 1464.84 2034.21 1456.66 2033.97 1448.47C2033.01 1434.56 2031.57 1421.13 2030.13 1407.22C2029.17 1399.06 2028.69 1390.91 2027.26 1382.75C2025.82 1373.64 2024.38 1364.52 2022.46 1355.41C2020.54 1344.37 2018.63 1333.34 2016.23 1322.3C2014.79 1314.63 2012.87 1306.95 2011.43 1299.28C2009.52 1288.24 2007.6 1277.21 2005.2 1266.17C2002.8 1253.22 1999.93 1240.27 1997.05 1226.83C1994.17 1213.4 1992.26 1200.45 1988.9 1187.5C1984.59 1170.7 1979.31 1154.39 1967.33 1139.52C1953.94 1124.35 1935.58 1114.48 1915.55 1111.7C1900.21 1108.81 1884.65 1107.37 1869.04 1107.38C1850.82 1107.38 1832.13 1106.9 1813.91 1106.42C1795.69 1105.94 1776.99 1104.98 1758.77 1103.06C1720.15 1099.59 1681.84 1093.18 1644.19 1083.87C1611.11 1075.72 1578.03 1066.6 1544.47 1058.92C1511.87 1051.25 1478.79 1045.01 1446.18 1037.82C1419.34 1031.58 1392.97 1025.82 1367.08 1018.15C1342.09 1010.36 1318.47 998.702 1297.08 983.605C1267.35 962.976 1243.86 938.03 1219.41 914.043C1202.15 897.252 1184.41 880.941 1167.15 864.15C1151.44 849.05 1133.28 836.722 1113.46 827.689C1096.32 820.042 1077.38 817.381 1058.8 820.014C1034.83 822.892 1015.17 832.487 996.476 843.041C968.231 858.906 941.857 877.895 917.849 899.651C888.604 925.557 860.316 952.902 832.03 979.288C806.141 1003.75 780.731 1027.74 755.321 1052.21C731.43 1074.19 708.706 1097.41 687.242 1121.77C670.382 1140.85 656.482 1162.36 646.01 1185.58C638.677 1202.17 635.234 1220.22 635.942 1238.35C638.819 1264.25 650.805 1286.32 682.447 1298.32C693.075 1302.13 704.24 1304.24 715.528 1304.55C738.32 1304.54 760.915 1300.32 782.169 1292.08C814.771 1280.57 842.098 1263.29 870.385 1246.98C892.438 1234.03 914.493 1221.08 937.985 1209.56C963.866 1196.78 991.491 1187.89 1019.97 1183.18C1044.34 1178.85 1069.36 1179.83 1093.32 1186.06C1115.03 1192.02 1134.95 1203.23 1151.33 1218.68C1167.94 1235.76 1182.87 1254.39 1195.92 1274.33C1215.58 1302.15 1235.71 1329.5 1263.04 1353.01C1285.09 1372.2 1308.11 1390.91 1331.12 1409.62C1346.46 1422.09 1363.24 1434.08 1378.58 1446.56C1409.18 1470.99 1436.57 1499.2 1460.09 1530.51C1474.47 1550.18 1488.37 1570.33 1501.8 1590.48C1510.43 1603.91 1517.62 1617.82 1525.77 1631.26C1526.92 1632.65 1528.21 1633.94 1529.6 1635.09" stroke="#DFE4E8" stroke-width="2" stroke-linecap="round" stroke-linejoin="round" stroke-dasharray="0,0,0,3273.632080078125"><animate attributeType="XML" attributeName="stroke-dasharray" repeatCount="1" dur="16.666666666666668s" values="0,0,0,3273.632080078125; 
          0,1636.8160400390625,1636.8160400390625,0; 
          3273.632080078125,0,0,0" keyTimes="0; 0.5; 1" fill="freeze"></animate></path>
<path d="M-168.027 807.056C-145.015 797.461 -122.002 787.866 -98.5096 778.271C-64.5143 763.652 -29.4027 751.78 6.48684 742.77C31.8968 736.534 57.7861 731.736 83.1961 726.459C112.921 720.222 142.646 713.506 169.494 700.073C194.424 687.6 212.642 670.329 222.71 648.261C229.574 632.705 233.008 615.851 232.779 598.848C232.709 580.653 230.943 562.504 227.505 544.637C224.149 527.846 220.793 511.055 218.396 494.264C216.405 480.587 215.125 466.816 214.56 453.006C213.841 442.624 213.841 432.205 214.56 421.823C216.541 404.66 221.404 387.954 228.943 372.41C243.223 345.561 262.225 321.509 285.037 301.408C309.36 278.691 336.61 259.33 366.061 243.839C383.224 234.655 401.901 228.641 421.196 226.089C442.142 223.781 463.282 228.146 481.604 238.562C506.055 252.475 522.835 272.144 538.177 292.293C554.952 315.096 569.105 339.718 580.367 365.694C597.627 403.113 611.531 441.493 624.955 479.872C633.585 504.339 642.693 528.806 652.761 552.793C660.058 572.227 670.417 590.367 683.446 606.524C693.989 619.835 708.391 629.555 724.676 634.349C734.957 637.247 745.684 638.222 756.319 637.227C789.4 633.389 816.248 619.957 841.658 603.645C858.918 592.611 875.218 580.138 891.519 568.144C906.381 557.11 920.765 545.597 935.148 534.562C963.651 512.112 993.958 492.055 1025.76 474.595C1057.57 457.608 1091.88 445.787 1127.4 439.574C1138.43 437.655 1149.45 436.695 1160.48 435.736C1169.39 434.699 1178.37 434.378 1187.33 434.776C1218.38 435.588 1249.18 440.591 1278.9 449.648C1315.82 460.682 1348.42 477.473 1381.98 493.784C1412.66 508.656 1443.83 522.569 1478.82 530.725C1496.33 535.004 1514.11 538.05 1532.04 539.84C1545.94 540.799 1560.33 542.238 1574.23 543.198C1596.29 544.157 1618.34 544.637 1640.39 544.157C1659.32 544.16 1678.06 540.41 1695.53 533.123C1704.76 529.118 1712.91 522.99 1719.32 515.238C1725.74 507.485 1730.23 498.326 1732.44 488.507C1735.62 476.792 1736.44 464.561 1734.84 452.527C1733.1 440.288 1730.22 428.241 1726.21 416.546C1719.92 398.201 1711.21 380.777 1700.32 364.734C1689.77 348.423 1677.79 332.591 1666.28 316.28C1649.02 292.293 1631.28 268.306 1614.5 244.319C1583.82 199.703 1551.7 155.567 1511.91 115.748C1488.41 91.7612 1463.96 68.2539 1440.95 44.2669C1427.05 29.8746 1414.58 14.5229 1401.64 -0.828857" stroke="#DFE4E8" stroke-width="2" stroke-linecap="round" stroke-linejoin="round" stroke-dasharray="0,0,0,3210.988037109375"><animate attributeType="XML" attributeName="stroke-dasharray" repeatCount="1" dur="16.666666666666668s" values="0,0,0,3210.988037109375; 
          0,1605.4940185546875,1605.4940185546875,0; 
          3210.988037109375,0,0,0" keyTimes="0; 0.5; 1" fill="freeze"></animate></path>
<path d="M-168.027 910.206C-140.22 901.091 -112.892 891.496 -85.0853 882.381C-55.8018 872.882 -25.8279 865.664 4.56843 860.792C30.0825 856.713 55.9481 855.266 81.7576 856.475C99.0171 857.434 115.797 859.353 133.057 861.272C176.206 866.549 216.958 878.543 259.148 886.698C285.168 892.459 312.37 889.247 336.336 877.583C356.951 867.509 378.047 857.434 399.142 847.36C422.918 836.192 449.186 831.398 475.371 833.447C495.507 834.886 515.644 839.204 535.78 840.643C554.306 841.603 572.869 841.603 591.395 840.643C611.835 839.473 632.088 836.095 651.803 830.569C670.852 825.766 689.458 819.346 707.417 811.379C739.187 797.27 769.667 780.415 798.509 761.006C810.016 753.33 821.522 745.654 832.548 737.499C847.89 725.985 863.712 714.471 878.095 701.998C901.587 682.329 924.6 661.7 948.092 642.03C978.776 617.084 1008.98 591.178 1046.38 571.508C1070.15 558.354 1096.16 549.733 1123.09 546.082C1152.92 542.178 1183.26 545.131 1211.78 554.717C1238.8 564.854 1264.41 578.396 1288.01 595.016C1312.46 611.807 1336.43 629.077 1361.36 644.909C1388.33 662.173 1417.75 675.273 1448.62 683.768C1481.7 692.883 1515.74 700.079 1548.82 708.714C1589.63 719.018 1628.38 736.216 1663.41 759.567C1688.82 776.358 1713.75 794.108 1739.64 810.419C1762.63 825.627 1788.35 836.218 1815.39 841.603C1867.16 850.718 1911.27 840.164 1945.79 807.061C1964.38 789.348 1976.81 766.148 1981.27 740.857C1984.69 725.272 1985.98 709.295 1985.11 693.363C1984.15 678.97 1981.75 664.578 1979.83 650.186C1977.91 636.753 1976.48 623.8 1974.56 610.367C1973.12 599.813 1970.72 588.779 1969.28 578.225C1967.83 568.365 1966.87 558.437 1966.41 548.481C1965.45 522.575 1964.49 497.148 1963.53 471.242C1963.05 459.249 1963.05 447.735 1962.09 435.742C1960.65 422.789 1958.74 409.835 1956.82 396.403C1954.57 381.315 1950.22 366.618 1943.87 352.746C1932.94 328.503 1916.92 306.904 1896.89 289.42C1882.03 276.467 1866.21 263.514 1850.38 251.521C1837.44 240.966 1823.06 231.851 1810.11 221.297C1780.41 197.479 1753.11 170.806 1728.61 141.66C1696.97 103.281 1665.32 65.3812 1630.33 28.9208C1620.74 18.8463 1610.67 8.29198 1600.6 -1.78259" stroke="#DFE4E8" stroke-width="2" stroke-linecap="round" stroke-linejoin="round" stroke-dasharray="0,0,0,3268.965087890625"><animate attributeType="XML" attributeName="stroke-dasharray" repeatCount="1" dur="16.666666666666668s" values="0,0,0,3268.965087890625; 
          0,1634.4825439453125,1634.4825439453125,0; 
          3268.965087890625,0,0,0" keyTimes="0; 0.5; 1" fill="freeze"></animate></path>
<path d="M1855.61 -0.828857C1870.38 21.3316 1887.94 41.4882 1907.87 59.1389C1926.33 75.3302 1945.87 90.2371 1966.36 103.755C1992.51 120.825 2017.65 139.407 2041.63 159.405C2065.31 180.142 2086.39 203.659 2104.44 229.447C2119.97 251.775 2132.99 275.747 2143.27 300.929C2151.12 319.552 2156.76 339.036 2160.05 358.977C2161.97 372.41 2163.89 385.843 2165.33 399.276C2166.29 408.87 2166.29 418.945 2166.77 429.019C2167.25 453.486 2167.24 478.433 2168.2 502.9C2168.68 514.413 2171.08 525.927 2172.04 537.921C2173.72 552.339 2177.61 566.415 2183.55 579.658C2193.61 603.166 2212.31 621.875 2240.12 633.869C2257.4 640.531 2275.43 645.042 2293.82 647.302C2327.86 653.059 2361.42 659.775 2392.1 673.688C2417.42 684.815 2440 701.353 2458.26 722.141C2471.19 737.171 2482.89 753.214 2493.26 770.116C2504.29 788.825 2514.83 808.015 2525.86 827.205L2557.5 880.456C2565.2 891.405 2570.59 903.812 2573.32 916.916C2573.85 923.029 2572.69 929.168 2569.97 934.667C2564.51 947.512 2558.26 960.009 2551.27 972.087C2537.29 995.607 2526.64 1020.96 2519.63 1047.41C2515.79 1062.28 2511.96 1077.63 2509.08 1092.5C2506.68 1106.41 2505.24 1120.33 2503.33 1134.24C2500.93 1151.03 2498.53 1167.34 2496.61 1184.13C2495.18 1193.73 2495.18 1203.8 2493.74 1213.88C2492.3 1224.91 2490.38 1235.94 2488.46 1246.98C2487.03 1255.61 2486.07 1263.77 2484.15 1272.4C2482.13 1286.13 2479.41 1299.74 2476 1313.18C2470.25 1333.33 2463.53 1353 2455.86 1372.67C2440.81 1409.14 2418.64 1442.25 2390.66 1470.06C2374.84 1486.37 2358.06 1502.2 2342.24 1518.51C2332.11 1527.62 2324.79 1539.44 2321.14 1552.57C2318.75 1563.61 2322.58 1572.72 2327.38 1582.32C2334.57 1595.27 2346.07 1605.35 2357.1 1615.9C2362.37 1620.7 2367.65 1625.49 2373.4 1629.81C2375.32 1631.25 2377.72 1632.21 2380.11 1633.65" stroke="#DFE4E8" stroke-width="2" stroke-linecap="round" stroke-linejoin="round" stroke-dasharray="0,0,0,2061.068115234375"><animate attributeType="XML" attributeName="stroke-dasharray" repeatCount="1" dur="16.666666666666668s" values="0,0,0,2061.068115234375; 
          0,1030.5340576171875,1030.5340576171875,0; 
          2061.068115234375,0,0,0" keyTimes="0; 0.5; 1" fill="freeze"></animate></path>
<path d="M1913.62 1633.65C1914.95 1630.86 1916.07 1627.97 1916.98 1625.01C1922.25 1590.95 1936.16 1558.81 1947.19 1526.19C1953.42 1508.92 1959.17 1491.17 1963.97 1473.42C1966.85 1460.3 1968.78 1446.99 1969.72 1433.6C1970.91 1423.09 1971.4 1412.51 1971.16 1401.93C1970.68 1388.98 1968.76 1376.03 1967.32 1363.07C1963.94 1336.25 1957.67 1309.87 1948.62 1284.4C1940.95 1261.85 1931.84 1239.3 1915.54 1219.63C1899.69 1200.96 1878.4 1187.71 1854.65 1181.73C1835.12 1176.9 1815.24 1173.53 1795.21 1171.66C1763.08 1167.82 1730.96 1163.98 1698.84 1158.23C1664.32 1151.99 1630.76 1143.35 1596.24 1136.16C1563.86 1128.3 1531.04 1122.38 1497.96 1118.41C1482.14 1116.97 1466.79 1115.05 1450.97 1114.09C1436.11 1113.13 1420.77 1111.69 1405.91 1112.17C1384.12 1112.25 1362.35 1113.53 1340.7 1116.01C1323.94 1117.53 1307.56 1121.91 1292.28 1128.96C1285.44 1132.38 1279.41 1137.24 1274.61 1143.2C1269.81 1149.16 1266.35 1156.08 1264.47 1163.5C1260.64 1177.89 1262.55 1192.29 1264.47 1207.16C1267.89 1229.33 1274.68 1250.85 1284.61 1270.96C1296.63 1295.36 1312.86 1317.45 1332.55 1336.21C1349.33 1352.52 1368.03 1367.87 1386.25 1383.7C1415.49 1408.65 1445.7 1433.12 1471.11 1460.94C1488.4 1479.77 1504.12 1499.98 1518.09 1521.39C1528.16 1537.7 1539.19 1553.53 1548.78 1569.84C1560.28 1589.03 1571.31 1608.7 1582.82 1628.37C1584.32 1630.51 1586.09 1632.45 1588.09 1634.13" stroke="#DFE4E8" stroke-width="2" stroke-linecap="round" stroke-linejoin="round" stroke-dasharray="0,0,0,1711.1768798828125"><animate attributeType="XML" attributeName="stroke-dasharray" repeatCount="1" dur="16.666666666666668s" values="0,0,0,1711.1768798828125; 
          0,855.5884399414062,855.5884399414062,0; 
          1711.1768798828125,0,0,0" keyTimes="0; 0.5; 1" fill="freeze"></animate></path>
<path d="M-189.168 1154.88C-159.118 1165.44 -130.461 1179.61 -103.829 1197.09C-75.7159 1216.58 -50.1131 1239.46 -27.5994 1265.22C-12.4758 1282.83 4.03812 1299.19 21.7824 1314.15C38.99 1328.5 59.6509 1338.09 81.7115 1341.97C103.198 1345.66 125.204 1345.01 146.435 1340.06C166.571 1334.78 186.228 1329.5 205.405 1322.79C222.185 1317.03 238.966 1310.31 257.184 1308.87C270.55 1307.77 283.932 1310.79 295.539 1317.51C311.888 1325.75 326.786 1336.61 339.646 1349.65C361.221 1370.76 383.275 1391.87 403.411 1414.42C433.616 1448.48 462.381 1483.5 492.106 1518.04C509.366 1538.19 527.104 1557.86 545.323 1577.53C560.906 1594.47 579.423 1608.44 599.979 1618.79C615.725 1626.74 632.78 1631.78 650.319 1633.66C677.167 1636.54 701.618 1631.26 725.59 1623.58C757.232 1613.51 786.478 1598.64 816.682 1585.68C854.926 1567.95 895.17 1554.9 936.54 1546.82C952.344 1543.78 968.39 1542.17 984.483 1542.03C996.469 1542.03 1008.93 1541.07 1020.92 1542.03C1037.02 1543.32 1053.03 1545.57 1068.86 1548.74C1104.67 1556.67 1138.99 1570.27 1170.5 1589.04C1191.67 1600.82 1211.32 1615.16 1228.99 1631.74C1230.58 1632.98 1232.37 1633.95 1234.27 1634.62" stroke="#DFE4E8" stroke-width="2" stroke-linecap="round" stroke-linejoin="round" stroke-dasharray="0,0,0,1661.4207763671875"><animate attributeType="XML" attributeName="stroke-dasharray" repeatCount="1" dur="16.666666666666668s" values="0,0,0,1661.4207763671875; 
          0,830.7103881835938,830.7103881835938,0; 
          1661.4207763671875,0,0,0" keyTimes="0; 0.5; 1" fill="freeze"></animate></path>
<path d="M1832.61 1634.14C1833.09 1633.66 1834.52 1633.66 1834.52 1633.18C1839.8 1614.95 1844.59 1596.72 1850.82 1578.97C1861.37 1550.18 1873.84 1522.36 1884.86 1493.57C1891.68 1476.23 1897.29 1458.44 1901.64 1440.32C1905.23 1423.62 1906.2 1406.47 1904.52 1389.47C1902.99 1371.98 1898.79 1354.83 1892.06 1338.62C1884.5 1319.59 1872.5 1302.64 1857.06 1289.2C1842.58 1276.95 1825.54 1268.1 1807.2 1263.3C1786.1 1257.54 1765.01 1252.74 1743.91 1248.43C1710.83 1241.23 1678.23 1232.59 1646.59 1222.52C1610.63 1211.49 1574.67 1199.49 1536.8 1191.82C1519.06 1188.53 1501.12 1186.45 1483.1 1185.58C1465.29 1184.77 1447.45 1185.9 1429.88 1188.94C1411.18 1192.3 1394.4 1199.01 1381.94 1211.49C1373.62 1219.47 1368.5 1230.22 1367.56 1241.71C1365.64 1266.18 1376.67 1287.29 1392.49 1307.43C1406.39 1324.47 1421.97 1340.06 1438.99 1353.97C1472.07 1383.23 1505.15 1412.5 1532 1445.6C1550.1 1468.65 1566.45 1493.03 1580.9 1518.52C1598.16 1548.26 1615.42 1578.01 1633.64 1607.75C1638.92 1616.87 1646.11 1625.02 1652.34 1633.66" stroke="#DFE4E8" stroke-width="2" stroke-linecap="round" stroke-linejoin="round" stroke-dasharray="0,0,0,1395.6893310546875"><animate attributeType="XML" attributeName="stroke-dasharray" repeatCount="1" dur="16.666666666666668s" values="0,0,0,1395.6893310546875; 
          0,697.8446655273438,697.8446655273438,0; 
          1395.6893310546875,0,0,0" keyTimes="0; 0.5; 1" fill="freeze"></animate></path>
<path d="M1907.88 -0.828857C1928.57 24.867 1952.97 47.3408 1980.27 65.8552C2006.16 84.0854 2032.05 102.315 2056.98 121.985C2083.11 143.134 2106.33 167.654 2126.02 194.906C2142.09 216.4 2156.36 239.185 2168.69 263.029C2181.79 287.882 2191.62 314.327 2197.94 341.706C2201.29 358.497 2203.69 375.768 2206.09 392.559C2207.52 403.593 2208 414.627 2208.96 425.661C2210.4 441.013 2211.36 456.844 2213.28 472.196C2214.89 492.098 2219.41 511.656 2226.7 530.245C2238.21 557.59 2260.26 578.219 2292.86 590.692C2315.88 599.328 2339.37 607.003 2362.86 615.159C2394.29 624.912 2424.16 639.129 2451.55 657.376C2476.9 675.433 2499.79 696.721 2519.63 720.702C2537.85 741.331 2555.11 762.919 2578.12 780.67C2595.97 794.831 2617.37 803.795 2639.97 806.576C2652.09 807.775 2664.29 807.775 2676.41 806.576C2689.83 805.616 2703.26 803.697 2716.68 801.778" stroke="#DFE4E8" stroke-width="2" stroke-linecap="round" stroke-linejoin="round" stroke-dasharray="0,0,0,1237.550537109375"><animate attributeType="XML" attributeName="stroke-dasharray" repeatCount="1" dur="16.666666666666668s" values="0,0,0,1237.550537109375; 
          0,618.7752685546875,618.7752685546875,0; 
          1237.550537109375,0,0,0" keyTimes="0; 0.5; 1" fill="freeze"></animate></path>
<path d="M1981.24 0.132812C1991.79 8.76816 2002.33 17.4036 2013.84 25.0794C2036.85 41.3906 2061.3 56.2626 2083.36 73.0536C2108.77 91.7635 2127.47 115.271 2144.73 138.778C2157.67 157.008 2170.13 175.718 2181.64 194.428C2200.88 224.073 2217.1 255.574 2230.06 288.457C2237.13 305.88 2242.12 324.076 2244.93 342.668C2247.32 358.979 2249.72 374.811 2251.64 391.122C2253.08 403.116 2254.04 414.629 2255.95 426.623C2258.05 448.302 2263.05 469.601 2270.82 489.949C2282.32 516.814 2302.94 538.403 2332.66 553.754C2349.92 562.39 2368.14 570.545 2385.88 578.701C2420.88 594.532 2454.92 610.844 2484.16 632.912C2504.86 648.774 2524.41 666.088 2542.65 684.724C2558 699.596 2573.34 714.468 2590.12 727.901C2611.04 745.017 2635.94 756.569 2662.51 761.482C2680.54 764.701 2698.86 765.988 2717.17 765.32" stroke="#DFE4E8" stroke-width="2" stroke-linecap="round" stroke-linejoin="round" stroke-dasharray="0,0,0,1134.742919921875"><animate attributeType="XML" attributeName="stroke-dasharray" repeatCount="1" dur="16.666666666666668s" values="0,0,0,1134.742919921875; 
          0,567.3714599609375,567.3714599609375,0; 
          1134.742919921875,0,0,0" keyTimes="0; 0.5; 1" fill="freeze"></animate></path>
<path d="M-189.168 1129.92C-146.498 1144.31 -105.746 1162.06 -70.2684 1186.53C-51.2183 1200.18 -32.9701 1214.92 -15.6136 1230.67C3.56374 1247.46 20.8236 1265.69 43.3569 1280.08C59.7364 1291.36 79.0885 1297.54 98.9716 1297.83C115.505 1297.9 131.629 1292.69 144.996 1282.96C155.828 1275.96 163.685 1265.19 167.051 1252.73C170.036 1240.39 168.856 1227.4 163.695 1215.79C156.503 1197.56 148.352 1179.33 140.202 1161.58C127.251 1133.85 116.511 1105.14 108.08 1075.71C100.889 1050.28 95.6155 1024.86 84.5886 1000.39C77.4269 982.409 65.3593 966.802 49.7618 955.351C34.1643 943.9 15.6641 937.065 -3.62775 935.626C-13.0182 934.509 -22.4586 933.869 -31.9138 933.707C-54.5819 933.412 -77.1781 936.319 -99.0344 942.342C-128.28 950.018 -156.566 959.613 -185.332 968.248C-186.291 968.728 -187.25 969.688 -188.209 970.167" stroke="#DFE4E8" stroke-width="2" stroke-linecap="round" stroke-linejoin="round" stroke-dasharray="0,0,0,998.9298095703125"><animate attributeType="XML" attributeName="stroke-dasharray" repeatCount="1" dur="16.666666666666668s" values="0,0,0,998.9298095703125; 
          0,499.46490478515625,499.46490478515625,0; 
          998.9298095703125,0,0,0" keyTimes="0; 0.5; 1" fill="freeze"></animate></path>
<path d="M-188.209 777.319C-181.018 773.481 -174.306 769.643 -166.635 766.285C-136.431 752.852 -106.226 738.94 -75.0628 726.467C-46.7762 715.817 -17.7791 707.16 11.715 700.561C39.0427 693.844 66.3694 687.607 92.2588 678.492C118.148 669.377 140.202 654.985 152.188 633.397C158.4 623.412 162.026 612.035 162.736 600.295C163.773 592.987 164.094 585.596 163.695 578.226C162.231 564.169 159.829 550.225 156.503 536.489C148.324 505.184 136.581 474.923 121.505 446.298C116.485 435.561 110.034 425.556 102.327 416.554C93.2181 405.999 81.7117 402.161 66.3699 409.837C49.1103 418.473 32.3302 427.588 16.0295 436.703C-7.1686 450.626 -32.1749 461.28 -58.2826 468.366C-73.4153 472.536 -89.1057 474.317 -104.787 473.643C-124.105 472.941 -143.194 469.218 -161.361 462.609C-170.47 458.771 -179.579 454.933 -189.168 450.615" stroke="#DFE4E8" stroke-width="2" stroke-linecap="round" stroke-linejoin="round" stroke-dasharray="0,0,0,920.314697265625"><animate attributeType="XML" attributeName="stroke-dasharray" repeatCount="1" dur="16.666666666666668s" values="0,0,0,920.314697265625; 
          0,460.1573486328125,460.1573486328125,0; 
          920.314697265625,0,0,0" keyTimes="0; 0.5; 1" fill="freeze"></animate></path>
<path d="M-188.195 1175.98C-178.607 1180.78 -169.017 1185.1 -159.908 1189.9C-146.963 1197.09 -134.499 1204.29 -122.033 1212.44C-90.8702 1233.07 -68.8156 1259.46 -45.8029 1285.36C-31.4199 1302.16 -17.0378 1318.95 -1.21656 1334.78C16.982 1353.54 40.0672 1366.84 65.4253 1373.16C76.5695 1375.96 87.9797 1377.57 99.4643 1377.95C129.189 1379.87 157.955 1374.12 187.201 1369.32C208.477 1364.74 230.162 1362.33 251.924 1362.12C274.042 1362.68 295.719 1368.44 315.209 1378.91C338.038 1391.5 359.148 1406.98 378.015 1424.97C406.302 1449.92 429.794 1477.74 453.286 1505.57C473.901 1530.51 494.038 1555.46 514.653 1580.89C529.607 1599.12 546.485 1615.69 564.994 1630.3C567.719 1632.02 570.611 1633.47 573.624 1634.62" stroke="#DFE4E8" stroke-width="2" stroke-linecap="round" stroke-linejoin="round" stroke-dasharray="0,0,0,946.037109375"><animate attributeType="XML" attributeName="stroke-dasharray" repeatCount="1" dur="16.666666666666668s" values="0,0,0,946.037109375; 
          0,473.0185546875,473.0185546875,0; 
          946.037109375,0,0,0" keyTimes="0; 0.5; 1" fill="freeze"></animate></path>
<path d="M2717.16 1010.95C2676.41 1012.87 2639.98 1022.46 2610.25 1045.97C2588.91 1062.88 2571.83 1084.57 2560.39 1109.29C2549.75 1132.53 2541.56 1156.8 2535.94 1181.74C2532.1 1197.09 2528.27 1212.44 2525.39 1227.79C2522.51 1243.14 2520.12 1258.01 2517.24 1272.89C2513.88 1289.68 2510.53 1306.47 2506.21 1323.26C2501.9 1340.05 2498.06 1355.88 2492.79 1372.19C2482.84 1402.78 2470.33 1432.47 2455.39 1460.94C2444.85 1481.57 2433.82 1502.2 2424.71 1523.31C2420.14 1534.25 2417.86 1546 2418 1557.85C2418.67 1575.44 2425.45 1592.23 2437.18 1605.35C2444.37 1613.98 2453 1622.14 2461.15 1630.29C2463.26 1631.78 2465.51 1633.06 2467.86 1634.13" stroke="#DFE4E8" stroke-width="2" stroke-linecap="round" stroke-linejoin="round" stroke-dasharray="0,0,0,763.7195434570312"><animate attributeType="XML" attributeName="stroke-dasharray" repeatCount="1" dur="16.666666666666668s" values="0,0,0,763.7195434570312; 
          0,381.8597717285156,381.8597717285156,0; 
          763.7195434570312,0,0,0" keyTimes="0; 0.5; 1" fill="freeze"></animate></path>
<path d="M-188.195 1191.81C-184.783 1193.92 -181.261 1195.84 -177.647 1197.57C-143.067 1213.99 -112.226 1237.34 -87.0346 1266.17C-68.8161 1287.76 -51.5563 1309.83 -32.8584 1330.94C-22.0825 1343.16 -10.5539 1354.7 1.66048 1365.48C20.3615 1381.3 42.816 1392.04 66.8638 1396.66C85.4321 1400.75 104.549 1401.72 123.436 1399.54C141.175 1397.14 159.394 1396.18 177.133 1394.26C191.037 1392.83 204.94 1389.95 218.844 1388.99C243.295 1388.03 267.746 1388.51 290.759 1396.18C312.252 1403.79 332.461 1414.62 350.688 1428.33C391.439 1458.55 422.602 1495.49 452.327 1532.43C477.258 1563.13 500.27 1595.28 528.556 1624.06C532.337 1627.52 536.341 1630.72 540.542 1633.66" stroke="#DFE4E8" stroke-width="2" stroke-linecap="round" stroke-linejoin="round" stroke-dasharray="0,0,0,907.2572631835938"><animate attributeType="XML" attributeName="stroke-dasharray" repeatCount="1" dur="16.666666666666668s" values="0,0,0,907.2572631835938; 
          0,453.6286315917969,453.6286315917969,0; 
          907.2572631835938,0,0,0" keyTimes="0; 0.5; 1" fill="freeze"></animate></path>
<path d="M-189.168 1213.87C-177.662 1220.59 -165.196 1226.83 -154.169 1234.5C-121.568 1256.57 -99.0344 1284.88 -77.4599 1313.66C-63.0769 1332.85 -48.6937 1351.56 -32.8725 1369.79C-16.3237 1388.88 4.328 1403.97 27.5354 1413.93C45.0271 1421.33 63.6973 1425.55 82.6701 1426.4C92.0766 1427.2 101.518 1427.52 110.957 1427.36C123.423 1426.88 135.408 1425.44 147.873 1424.48C160.339 1423.52 172.324 1422.08 184.789 1421.12C199.172 1420.16 214.035 1418.24 228.418 1418.24C262.927 1417.75 296.913 1426.71 326.702 1444.15C355.758 1462.01 381.808 1484.35 403.89 1510.36C432.656 1542.02 456.628 1576.08 482.518 1609.18C488.75 1616.86 494.982 1624.05 501.215 1631.73C502.174 1632.69 503.612 1633.17 504.571 1634.13" stroke="#DFE4E8" stroke-width="2" stroke-linecap="round" stroke-linejoin="round" stroke-dasharray="0,0,0,866.3397216796875"><animate attributeType="XML" attributeName="stroke-dasharray" repeatCount="1" dur="16.666666666666668s" values="0,0,0,866.3397216796875; 
          0,433.16986083984375,433.16986083984375,0; 
          866.3397216796875,0,0,0" keyTimes="0; 0.5; 1" fill="freeze"></animate></path>
<path d="M-189.168 1107.38C-156.087 1120.81 -122.527 1133.77 -89.4457 1147.68C-65.3391 1158.33 -42.0965 1170.84 -19.928 1185.1C-6.02446 1194.21 7.87885 1203.33 21.7824 1211.96C32.5005 1219.44 44.5404 1224.81 57.2611 1227.8C71.6441 1230.67 83.15 1227.8 90.3415 1213.4C93.9621 1204.26 94.7962 1194.24 92.7387 1184.62C89.8621 1165.43 85.0677 1146.72 80.7528 1127.53C78.3557 1116.02 75.4793 1104.02 72.6027 1092.51C68.2878 1074.28 64.4521 1056.05 59.1784 1038.3C53.7788 1017.67 42.8346 998.925 27.5354 984.087C13.0322 970.849 -5.23419 962.464 -24.7223 960.1C-51.3232 956.891 -78.2851 958.516 -104.309 964.897C-131.66 971.12 -158.442 979.625 -184.374 990.323C-185.839 991.004 -187.146 991.985 -188.209 993.202" stroke="#DFE4E8" stroke-width="2" stroke-linecap="round" stroke-linejoin="round" stroke-dasharray="0,0,0,785.2761840820312"><animate attributeType="XML" attributeName="stroke-dasharray" repeatCount="1" dur="16.666666666666668s" values="0,0,0,785.2761840820312; 
          0,392.6380920410156,392.6380920410156,0; 
          785.2761840820312,0,0,0" keyTimes="0; 0.5; 1" fill="freeze"></animate></path>
<path d="M2717.17 1059.4C2696.17 1063.83 2676.07 1071.77 2657.72 1082.91C2631.36 1098.83 2609.56 1121.31 2594.44 1148.15C2584.18 1165.6 2575.82 1184.09 2569.51 1203.32C2562.32 1226.83 2555.12 1250.82 2549.37 1274.8C2543.62 1297.83 2539.78 1320.86 2534.51 1343.89C2528.75 1367.87 2522.52 1391.86 2516.29 1415.85C2508.62 1444.63 2499.51 1473.42 2493.28 1502.2C2487.52 1526.67 2488 1551.62 2500.95 1575.12C2508.71 1588.78 2519.54 1600.44 2532.59 1609.18C2548.02 1620.04 2565.46 1627.7 2583.89 1631.73C2588.68 1632.69 2593.96 1633.17 2598.75 1634.13" stroke="#DFE4E8" stroke-width="2" stroke-linecap="round" stroke-linejoin="round" stroke-dasharray="0,0,0,718.8120727539062"><animate attributeType="XML" attributeName="stroke-dasharray" repeatCount="1" dur="16.666666666666668s" values="0,0,0,718.8120727539062; 
          0,359.4060363769531,359.4060363769531,0; 
          718.8120727539062,0,0,0" keyTimes="0; 0.5; 1" fill="freeze"></animate></path>
<path d="M-188.195 1233.55C-181.483 1238.35 -175.73 1243.63 -168.538 1247.94C-154.726 1257.17 -142.296 1268.32 -131.622 1281.05C-111.006 1303.11 -95.1847 1327.58 -78.4045 1351.09C-63.0627 1372.68 -47.2414 1394.26 -25.667 1412.02C-1.13437 1432.9 29.0938 1445.93 61.1096 1449.44C71.1195 1450.79 81.2133 1451.43 91.3141 1451.35C106.177 1451.35 121.039 1451.35 135.902 1450.39C148.846 1449.44 161.791 1447.04 174.736 1446.56C195.831 1445.6 216.926 1443.68 238.021 1444.64C270.616 1446.38 302.186 1456.64 329.592 1474.38C361.986 1495.83 390.381 1522.78 413.493 1554.02C433.149 1578.97 452.327 1604.87 471.504 1630.3C472.905 1631.81 474.521 1633.1 476.299 1634.14" stroke="#DFE4E8" stroke-width="2" stroke-linecap="round" stroke-linejoin="round" stroke-dasharray="0,0,0,831.841552734375"><animate attributeType="XML" attributeName="stroke-dasharray" repeatCount="1" dur="16.666666666666668s" values="0,0,0,831.841552734375; 
          0,415.9207763671875,415.9207763671875,0; 
          831.841552734375,0,0,0" keyTimes="0; 0.5; 1" fill="freeze"></animate></path>
<path d="M-188.195 1257.54C-185.319 1259.45 -182.921 1261.85 -180.044 1263.77C-160.543 1279.41 -143.282 1297.65 -128.745 1317.98C-110.047 1344.85 -92.3083 1372.67 -72.6516 1399.54C-53.9357 1425.91 -28.6457 1446.91 0.701873 1460.47C19.5525 1469.26 39.8754 1474.47 60.631 1475.82C70.6408 1477.17 80.7346 1477.82 90.8355 1477.74C106.177 1477.26 121.998 1475.82 137.34 1474.86C151.244 1473.9 165.147 1472.46 179.051 1471.5C192.431 1470.14 205.874 1469.5 219.322 1469.58C255.721 1469.64 291.395 1479.77 322.401 1498.85C356.44 1520.43 380.891 1547.78 403.904 1576.56C417.808 1594.31 430.752 1613.02 444.656 1631.25C445.845 1632.33 447.129 1633.29 448.492 1634.13" stroke="#DFE4E8" stroke-width="2" stroke-linecap="round" stroke-linejoin="round" stroke-dasharray="0,0,0,796.5553588867188"><animate attributeType="XML" attributeName="stroke-dasharray" repeatCount="1" dur="16.666666666666668s" values="0,0,0,796.5553588867188; 
          0,398.2776794433594,398.2776794433594,0; 
          796.5553588867188,0,0,0" keyTimes="0; 0.5; 1" fill="freeze"></animate></path>
<path d="M-188.195 1282.97L-168.538 1304.07C-152.667 1322.28 -138.692 1342.05 -126.828 1363.08C-108.13 1393.79 -90.8695 1425.45 -62.583 1451.84C-37.3535 1475.83 -5.71231 1492 28.5092 1498.37C52.2215 1502.69 76.3662 1504.14 100.424 1502.69C119.122 1501.73 137.34 1499.33 155.559 1497.41C179.296 1495.09 203.167 1494.45 226.994 1495.49C260.61 1497.32 293.023 1508.63 320.483 1528.11C354.044 1551.62 378.015 1581.37 400.548 1611.59C406.301 1619.26 412.055 1626.46 417.808 1634.14" stroke="#DFE4E8" stroke-width="2" stroke-linecap="round" stroke-linejoin="round" stroke-dasharray="0,0,0,758.9765014648438"><animate attributeType="XML" attributeName="stroke-dasharray" repeatCount="1" dur="16.666666666666668s" values="0,0,0,758.9765014648438; 
          0,379.4882507324219,379.4882507324219,0; 
          758.9765014648438,0,0,0" keyTimes="0; 0.5; 1" fill="freeze"></animate></path>
<path d="M2717.17 1110.74C2702.49 1116.59 2688.62 1124.33 2675.94 1133.77C2644.77 1155.83 2625.12 1184.14 2610.26 1214.84C2596.39 1243.92 2585.93 1274.51 2579.09 1305.99C2575.74 1320.86 2571.42 1336.22 2568.55 1351.09C2565.67 1364.52 2563.75 1377.95 2561.83 1391.39C2559.92 1404.82 2557.04 1418.73 2555.12 1432.16C2554.16 1436.96 2554.16 1441.76 2553.68 1446.56C2553.2 1460.95 2551.77 1475.34 2552.72 1489.73C2554.64 1518.04 2562.31 1544.42 2588.68 1565.53C2607.38 1580.41 2630.39 1588.56 2655.8 1592.88C2674.95 1596.56 2694.34 1598.81 2713.81 1599.59C2714.77 1599.59 2715.73 1600.07 2716.69 1600.07" stroke="#DFE4E8" stroke-width="2" stroke-linecap="round" stroke-linejoin="round" stroke-dasharray="0,0,0,656.9172973632812"><animate attributeType="XML" attributeName="stroke-dasharray" repeatCount="1" dur="16.666666666666668s" values="0,0,0,656.9172973632812; 
          0,328.4586486816406,328.4586486816406,0; 
          656.9172973632812,0,0,0" keyTimes="0; 0.5; 1" fill="freeze"></animate></path>
<path d="M-188.195 1323.74C-179.566 1336.7 -170.456 1349.65 -162.785 1363.08C-153.676 1378.43 -145.525 1394.26 -136.895 1409.62C-118.677 1443.2 -97.5816 1475.34 -62.583 1499.81C-46.2477 1511.37 -28.1003 1520.13 -8.8868 1525.71C8.62073 1530.73 26.6291 1533.78 44.8094 1534.83C65.7447 1536.27 86.7681 1535.79 107.616 1533.39C121.04 1531.95 134.943 1531.47 148.846 1530.03C168.707 1527.4 188.754 1526.44 208.775 1527.15C241.647 1527.45 273.812 1536.74 301.786 1554.02C330.552 1572.25 351.646 1595.76 370.344 1620.7C374.179 1625.5 375.617 1631.26 382.33 1634.14" stroke="#DFE4E8" stroke-width="2" stroke-linecap="round" stroke-linejoin="round" stroke-dasharray="0,0,0,709.4579467773438"><animate attributeType="XML" attributeName="stroke-dasharray" repeatCount="1" dur="16.666666666666668s" values="0,0,0,709.4579467773438; 
          0,354.7289733886719,354.7289733886719,0; 
          709.4579467773438,0,0,0" keyTimes="0; 0.5; 1" fill="freeze"></animate></path>
<path d="M-188.195 747.093C-186.555 745.66 -184.79 744.375 -182.921 743.255C-151.279 726.944 -119.157 710.633 -87.5144 694.322C-61.572 681.978 -34.6262 671.867 -6.96952 664.098C12.2078 658.341 31.865 652.584 51.0423 645.868C70.2196 639.152 86.9995 628.597 97.547 613.246C101.817 607.457 104.832 600.84 106.401 593.818C107.969 586.796 108.056 579.525 106.656 572.468C104.921 560.341 99.9524 548.906 92.2728 539.365C87.1842 532.888 80.8064 527.54 73.5438 523.658C66.2812 519.777 58.2931 517.448 50.0837 516.818C35.2213 514.899 21.3177 518.257 6.93473 520.655C-10.3248 523.534 -27.1059 527.852 -44.3655 530.73C-61.0173 533.292 -77.9076 533.935 -94.7059 532.649C-122.179 529.851 -149.127 523.231 -174.771 512.98C-179.565 511.061 -183.88 508.182 -188.195 506.263" stroke="#DFE4E8" stroke-width="2" stroke-linecap="round" stroke-linejoin="round" stroke-dasharray="0,0,0,691.2427368164062"><animate attributeType="XML" attributeName="stroke-dasharray" repeatCount="1" dur="16.666666666666668s" values="0,0,0,691.2427368164062; 
          0,345.6213684082031,345.6213684082031,0; 
          691.2427368164062,0,0,0" keyTimes="0; 0.5; 1" fill="freeze"></animate></path>
<path d="M-188.195 1388.51C-185.319 1395.23 -182.442 1401.94 -179.565 1409.14C-172.374 1424.97 -165.182 1440.8 -157.511 1456.15C-142.903 1487.13 -120.685 1513.9 -92.9327 1533.95C-65.1804 1554 -32.8004 1566.68 1.18058 1570.81C22.6056 1573.92 44.2875 1574.89 65.904 1573.69C84.6019 1572.73 102.82 1570.33 121.039 1568.41C133.983 1567.45 146.929 1566.01 159.873 1565.06C169.941 1564.1 179.53 1563.14 189.598 1563.14C196.324 1562.98 203.053 1563.3 209.734 1564.1C224.374 1565.49 238.833 1568.38 252.883 1572.73C268.824 1578.2 283.736 1586.31 296.991 1596.72C309.794 1606.66 321.523 1617.92 331.989 1630.3C333.491 1631.7 335.094 1632.98 336.783 1634.14" stroke="#DFE4E8" stroke-width="2" stroke-linecap="round" stroke-linejoin="round" stroke-dasharray="0,0,0,637.1483764648438"><animate attributeType="XML" attributeName="stroke-dasharray" repeatCount="1" dur="16.666666666666668s" values="0,0,0,637.1483764648438; 
          0,318.5741882324219,318.5741882324219,0; 
          637.1483764648438,0,0,0" keyTimes="0; 0.5; 1" fill="freeze"></animate></path>
<path d="M-188.195 1485.89C-186.529 1491.01 -184.444 1495.99 -181.962 1500.77C-167.579 1525.23 -150.319 1548.74 -124.909 1567.45C-96.2912 1588.22 -63.0553 1601.72 -28.0641 1606.79C-9.50568 1609.67 9.24803 1611.12 28.0293 1611.11C43.3711 1610.63 58.7129 1609.67 73.5754 1607.75L138.779 1600.55C159.129 1597.99 179.674 1597.35 200.145 1598.63C225.908 1599.63 250.854 1607.95 272.06 1622.62C277.813 1626.46 284.046 1630.3 290.279 1634.61" stroke="#DFE4E8" stroke-width="2" stroke-linecap="round" stroke-linejoin="round" stroke-dasharray="0,0,0,537.8311767578125"><animate attributeType="XML" attributeName="stroke-dasharray" repeatCount="1" dur="16.666666666666668s" values="0,0,0,537.8311767578125; 
          0,268.91558837890625,268.91558837890625,0; 
          537.8311767578125,0,0,0" keyTimes="0; 0.5; 1" fill="freeze"></animate></path>
<path d="M389.035 523.05C391.432 531.206 393.829 539.361 396.705 547.037C399.464 555.657 404.62 563.311 411.568 569.105C415.339 572.266 419.758 574.559 424.513 575.822C427.679 576.243 430.901 575.744 433.791 574.383C436.682 573.022 439.12 570.856 440.814 568.146C444.051 563.759 446.188 558.659 447.046 553.274C450.82 532.729 446.341 511.524 434.581 494.266C430.587 488.09 424.699 483.377 417.801 480.833C414.351 479.874 410.704 479.874 407.254 480.833C403.108 482.048 399.383 484.398 396.503 487.62C393.622 490.842 391.7 494.805 390.952 499.063C389.994 506.739 389.993 514.894 389.514 522.57" stroke="#DFE4E8" stroke-width="2" stroke-linecap="round" stroke-linejoin="round" stroke-dasharray="0,0,0,245.90855407714844"><animate attributeType="XML" attributeName="stroke-dasharray" repeatCount="1" dur="16.666666666666668s" values="0,0,0,245.90855407714844; 
          0,122.95427703857422,122.95427703857422,0; 
          245.90855407714844,0,0,0" keyTimes="0; 0.5; 1" fill="freeze"></animate></path>
<path d="M-170.945 1053.17C-166.151 1066.12 -153.206 1073.8 -139.782 1081C-116.266 1093.49 -91.0775 1102.53 -64.9902 1107.86C-54.1972 1110.67 -42.9555 1111.33 -31.9098 1109.78C-24.4782 1108.87 -17.5199 1105.65 -12.015 1100.57C-6.51014 1095.49 -2.73678 1088.81 -1.22661 1081.48C1.67248 1063.98 -2.46347 1046.04 -12.7325 1031.58C-18.3034 1023.23 -25.7663 1016.31 -34.5142 1011.4C-43.262 1006.48 -53.0474 1003.7 -63.073 1003.28C-80.6209 1001.26 -98.3944 1002.77 -115.353 1007.71C-132.311 1012.65 -148.115 1020.93 -161.837 1032.06C-165.03 1034.26 -167.536 1037.32 -169.063 1040.89C-170.59 1044.45 -171.076 1048.38 -170.465 1052.21" stroke="#DFE4E8" stroke-width="2" stroke-linecap="round" stroke-linejoin="round" stroke-dasharray="0,0,0,441.6347961425781"><animate attributeType="XML" attributeName="stroke-dasharray" repeatCount="1" dur="16.666666666666668s" values="0,0,0,441.6347961425781; 
          0,220.81739807128906,220.81739807128906,0; 
          441.6347961425781,0,0,0" keyTimes="0; 0.5; 1" fill="freeze"></animate></path>
<path d="M2153.83 1264.73C2154.79 1269.05 2155.75 1273.84 2156.71 1278.16C2159.59 1290.16 2160.55 1302.63 2165.34 1314.62C2171.13 1329.82 2178.02 1344.57 2185.96 1358.76C2196.36 1376.71 2210.81 1391.99 2228.15 1403.37C2246.71 1416.11 2268.96 1422.35 2291.43 1421.12C2309.61 1420.23 2327.33 1415.14 2343.21 1406.25C2368.22 1391.98 2388.79 1371.06 2402.66 1345.81C2414.6 1324.47 2422.86 1301.28 2427.11 1277.2C2429.51 1262.81 2430.95 1248.42 2432.38 1234.03C2433.36 1227.03 2433.84 1219.98 2433.82 1212.92C2432.86 1198.52 2431.43 1184.13 2429.99 1169.74C2427.5 1148.49 2421.68 1127.76 2412.73 1108.33C2403.59 1087.96 2388.99 1070.52 2370.54 1057.96C2361.08 1051.58 2350.39 1047.26 2339.16 1045.28C2327.93 1043.3 2316.4 1043.69 2305.33 1046.45C2284.82 1051.31 2265.45 1060.11 2248.28 1072.35C2221.05 1090.34 2198.26 1114.29 2181.64 1142.39C2170.58 1160.74 2162.79 1180.87 2158.63 1201.88C2153.83 1222.99 2154.79 1243.62 2154.79 1264.73" stroke="#DFE4E8" stroke-width="2" stroke-linecap="round" stroke-linejoin="round" stroke-dasharray="0,0,0,1036.884765625"><animate attributeType="XML" attributeName="stroke-dasharray" repeatCount="1" dur="16.666666666666668s" values="0,0,0,1036.884765625; 
          0,518.4423828125,518.4423828125,0; 
          1036.884765625,0,0,0" keyTimes="0; 0.5; 1" fill="freeze"></animate></path>
<path d="M2194.1 1256.1C2195.06 1261.85 2196.02 1267.13 2196.97 1272.89C2198.95 1286.81 2203.33 1300.29 2209.92 1312.71C2217.76 1328.48 2229.27 1342.14 2243.48 1352.53C2257.01 1362.42 2273.23 1367.95 2289.98 1368.36C2305.67 1368.6 2321.12 1364.45 2334.57 1356.36C2354.72 1344.11 2370.49 1325.81 2379.64 1304.07C2386.73 1288.79 2391.11 1272.4 2392.58 1255.62C2393.62 1243.01 2393.94 1230.36 2393.54 1217.72C2392.51 1196.38 2386.25 1175.62 2375.32 1157.27C2365.18 1139.01 2348.33 1125.41 2328.34 1119.37C2312.76 1114.82 2296.15 1115.32 2280.87 1120.81C2250.56 1131.06 2225.45 1152.75 2210.88 1181.26C2203.38 1194.98 2198.35 1209.92 2196.02 1225.39C2194.58 1235.47 2195.06 1245.54 2194.1 1256.1" stroke="#DFE4E8" stroke-width="2" stroke-linecap="round" stroke-linejoin="round" stroke-dasharray="0,0,0,713.2034912109375"><animate attributeType="XML" attributeName="stroke-dasharray" repeatCount="1" dur="16.666666666666668s" values="0,0,0,713.2034912109375; 
          0,356.60174560546875,356.60174560546875,0; 
          713.2034912109375,0,0,0" keyTimes="0; 0.5; 1" fill="freeze"></animate></path>
<path d="M2234.36 1259.45C2235.52 1264.64 2236.96 1269.77 2238.68 1274.8C2243.13 1289.97 2253.04 1302.96 2266.49 1311.26C2274.86 1316.56 2284.61 1319.25 2294.51 1319C2304.41 1318.74 2314.01 1315.55 2322.1 1309.82C2336.99 1299.69 2347.46 1284.24 2351.35 1266.65C2354.03 1257.62 2355.32 1248.24 2355.18 1238.82C2354.22 1220.11 2349.91 1201.88 2334.57 1186.05C2329.88 1180.98 2324.15 1176.99 2317.78 1174.34C2311.41 1171.69 2304.54 1170.45 2297.65 1170.7C2288.11 1170.83 2278.8 1173.66 2270.8 1178.85C2250.19 1192.77 2238.2 1211 2235.8 1232.59C2234.84 1241.22 2234.84 1250.34 2234.36 1259.45Z" stroke="#DFE4E8" stroke-width="2" stroke-linecap="round" stroke-linejoin="round" stroke-dasharray="0,0,0,424.3511047363281"><animate attributeType="XML" attributeName="stroke-dasharray" repeatCount="1" dur="16.666666666666668s" values="0,0,0,424.3511047363281; 
          0,212.17555236816406,212.17555236816406,0; 
          424.3511047363281,0,0,0" keyTimes="0; 0.5; 1" fill="freeze"></animate></path>
<path d="M817.176 1124.16C824.367 1138.56 835.394 1139.52 850.736 1137.12C878.064 1132.8 903.952 1124.16 930.321 1116.97C956.69 1109.77 982.1 1103.54 1008.47 1096.82C1040.11 1089.14 1071.75 1082.43 1103.4 1073.79C1123.53 1068.51 1140.79 1058.92 1149.9 1042.61C1155.5 1032.71 1157.21 1021.08 1154.7 1009.99C1153.35 1001.97 1151.27 994.103 1148.46 986.478C1140.59 964.524 1127.8 944.667 1111.07 928.43C1101.3 918.767 1089.73 911.108 1077.03 905.882C1057.37 898.224 1035.65 897.715 1015.66 904.443C995.79 911.077 977.159 920.966 960.526 933.707C919.774 963.931 888.611 999.911 860.325 1037.81C845.103 1057.25 832.378 1078.53 822.449 1101.14C819.22 1108.04 817.581 1115.58 817.655 1123.2" stroke="#DFE4E8" stroke-width="2" stroke-linecap="round" stroke-linejoin="round" stroke-dasharray="0,0,0,893.3781127929688"><animate attributeType="XML" attributeName="stroke-dasharray" repeatCount="1" dur="16.666666666666668s" values="0,0,0,893.3781127929688; 
          0,446.6890563964844,446.6890563964844,0; 
          893.3781127929688,0,0,0" keyTimes="0; 0.5; 1" fill="freeze"></animate></path>
</g>
<defs>
<clipPath id="clip0_1147_29976">
<rect width="2560" height="1554" fill="white" transform="translate(0 0.21875)" stroke-dasharray="0,0,0,8228"><animate attributeType="XML" attributeName="stroke-dasharray" repeatCount="1" dur="16.666666666666668s" values="0,0,0,8228; 
          0,4114,4114,0; 
          8228,0,0,0" keyTimes="0; 0.5; 1" fill="freeze"></animate></rect>
</clipPath>
</defs>
<setting>{"type":"direct","speed":3,"random":1,"shift":1,"size":1,"rupture":50}</setting></svg>