<svg width="386" height="255" viewBox="0 0 386 255" fill="none" xmlns="http://www.w3.org/2000/svg">
<path opacity="0.5" d="M345.776 48.9355L0.387573 254.5" stroke="url(#paint0_radial_2611_5569)" stroke-width="0.490608"/>
<g opacity="0.15">
<g opacity="0.1">
<path d="M194.178 13.196L214.241 1.23511L233.602 12.4924L214.241 24.8286L194.178 13.196Z" fill="#1B127D"/>
</g>
<path d="M214.227 113.452L195.289 102.514L194.974 14.0645L214.227 25.2276V113.452Z" fill="#2637EF" fill-opacity="0.2" stroke="url(#paint1_linear_2611_5569)" stroke-width="0.981217" stroke-miterlimit="10" stroke-linejoin="round"/>
<path d="M214.228 25.2273V113.452L232.807 102.649V13.3889L214.228 25.2273Z" fill="#2637EF" fill-opacity="0.2" stroke="url(#paint2_linear_2611_5569)" stroke-width="0.981217" stroke-miterlimit="10" stroke-linejoin="round"/>
<path d="M213.802 91.6187L232.936 102.412L213.802 113.205L196.14 102.412L213.802 91.6187Z" stroke="#ED26B7" stroke-width="0.981217" stroke-dasharray="0.98 0.98"/>
</g>
<g opacity="0.6">
<path d="M183.319 131.605L164.38 120.667L164.065 32.2173L183.319 43.3804V131.605Z" fill="#2637EF" fill-opacity="0.2" stroke="url(#paint3_linear_2611_5569)" stroke-width="0.981217" stroke-miterlimit="10" stroke-linejoin="round"/>
<path d="M183.32 43.3794V131.604L201.899 120.801V31.541L183.32 43.3794Z" fill="#2637EF" fill-opacity="0.2" stroke="url(#paint4_linear_2611_5569)" stroke-width="0.981217" stroke-miterlimit="10" stroke-linejoin="round"/>
<path d="M183.321 42.7641L164.238 31.6997L183.336 20.314L201.75 31.0211L183.321 42.7641Z" fill="#1B127D" stroke="#ED26B7" stroke-width="0.981217"/>
<path d="M182.894 109.771L202.028 120.564L182.894 131.358L165.232 120.564L182.894 109.771Z" stroke="#ED26B7" stroke-width="0.981217" stroke-dasharray="0.98 0.98"/>
</g>
<path d="M150.939 149.512L132 138.574L131.685 50.1243L150.939 61.2874V149.512Z" fill="#2637EF" fill-opacity="0.2" stroke="#ED26B7" stroke-width="0.981217" stroke-miterlimit="10" stroke-linejoin="round"/>
<path d="M150.94 61.2868V149.512L169.519 138.709V49.4485L150.94 61.2868Z" fill="#2637EF" fill-opacity="0.2" stroke="#ED26B7" stroke-width="0.981217" stroke-miterlimit="10" stroke-linejoin="round"/>
<path opacity="0.5" d="M150.941 60.6711L131.857 49.6067L150.956 38.2209L169.37 48.9281L150.941 60.6711Z" fill="#1B127D" stroke="#ED26B7" stroke-width="0.981217"/>
<path d="M150.514 127.678L169.647 138.472L150.514 149.265L132.852 138.472L150.514 127.678Z" stroke="#ED26B7" stroke-width="0.981217" stroke-dasharray="0.98 0.98"/>
<path d="M119.087 168.576L100.193 157.638L99.8329 101.192L119.087 112.356V168.576Z" fill="#1B127D" fill-opacity="0.7" stroke="#ED26B7" stroke-width="0.981217" stroke-miterlimit="10" stroke-linejoin="round"/>
<path d="M119.086 112.356V168.577L137.665 157.774V100.518L119.086 112.356Z" fill="#1B127D" fill-opacity="0.7" stroke="#ED26B7" stroke-width="0.981217" stroke-miterlimit="10" stroke-linejoin="round"/>
<path opacity="0.7" d="M119.09 111.787L99.9664 100.699L119.105 89.2447L137.558 100.019L119.09 111.787Z" fill="#1B127D" stroke="#ED26B7" stroke-width="0.981217" stroke-linejoin="round"/>
<path d="M86.4518 187.289L67.5129 176.351L67.198 87.9011L86.4518 99.0643V187.289Z" fill="#1C0D3F" stroke="#ED26B7" stroke-width="0.981217" stroke-miterlimit="10" stroke-linejoin="round"/>
<path d="M86.4526 99.0634V187.288L105.032 176.485V87.2251L86.4526 99.0634Z" fill="#1C0D3F" stroke="#ED26B7" stroke-width="0.981217" stroke-miterlimit="10" stroke-linejoin="round"/>
<path d="M86.4536 98.4479L67.3702 87.3835L86.4688 75.9978L104.883 86.705L86.4536 98.4479Z" fill="#ED26B7" stroke="#ED26B7" stroke-width="0.981217"/>
<path d="M56.1325 204.619L37.1936 193.681L36.8787 121.21L56.1325 132.373V204.619Z" fill="#1C0D3F" stroke="#ED26B7" stroke-width="0.981217" stroke-miterlimit="10" stroke-linejoin="round"/>
<path d="M56.1328 132.374V204.619L74.7117 193.771V120.535L56.1328 132.374Z" fill="#1C0D3F" stroke="#ED26B7" stroke-width="0.981217" stroke-miterlimit="10" stroke-linejoin="round"/>
<path d="M56.1341 131.726L37.1047 120.693L56.1492 109.34L74.5111 120.016L56.1341 131.726Z" fill="#ED26B7" stroke="#ED26B7" stroke-width="0.981217"/>
<path d="M26.2622 221.858L7.36834 210.92L7.00848 154.474L26.2622 165.638V221.858Z" fill="#1C0D3F" stroke="#ED26B7" stroke-width="0.981217" stroke-miterlimit="10" stroke-linejoin="round"/>
<path d="M26.2615 165.638V221.859L44.8404 211.055V153.799L26.2615 165.638Z" fill="#1C0D3F" stroke="#ED26B7" stroke-width="0.981217" stroke-miterlimit="10" stroke-linejoin="round"/>
<path d="M26.2654 165.068L7.1419 153.981L26.2805 142.526L44.7333 153.301L26.2654 165.068Z" fill="#ED26B7" stroke="#ED26B7" stroke-width="0.981217" stroke-linejoin="round"/>
<path fill-rule="evenodd" clip-rule="evenodd" d="M113.743 187.348L113.713 187.398L195.474 234.572L196.881 233.784L115.604 186.231L113.743 187.348Z" fill="url(#paint5_linear_2611_5569)"/>
<path fill-rule="evenodd" clip-rule="evenodd" d="M285.083 84.9283L285.054 84.9789L366.814 132.161L368.222 131.365L286.945 83.8115L285.083 84.9283Z" fill="url(#paint6_linear_2611_5569)"/>
<path d="M162.371 143.297L228.6 182.558" stroke="#ED26B7" stroke-width="0.981217" stroke-dasharray="0.98 0.98"/>
<g filter="url(#filter0_f_2611_5569)">
<path d="M162.371 143.297L228.6 182.558" stroke="#ED26B7" stroke-width="0.981217"/>
</g>
<g filter="url(#filter1_f_2611_5569)">
<path d="M128.995 163.157L156.027 178.879L220.846 139.711L194.091 125.092" stroke="#ED26B7" stroke-width="0.981217" stroke-dasharray="0.98 0.98"/>
</g>
<path d="M128.995 163.157L154.769 178.147C155.544 178.598 156.504 178.59 157.271 178.127L218.649 141.039C219.622 140.451 219.589 139.028 218.591 138.486L194.63 125.468" stroke="#ED26B7" stroke-width="0.981217" stroke-dasharray="0.98 0.98"/>
<path d="M283.578 227.795C281.538 228.908 278.19 228.379 276.771 227.974L215.792 193.372L215.005 192.495V196.103L216.106 197.278L276.771 231.532C279.624 232.725 282.498 232.029 283.578 231.532L338.014 199.444L339.077 198.208V194.84C338.583 195.133 337.98 195.784 337.405 196.125C323.211 204.552 285.538 226.724 283.578 227.795Z" fill="#1C0D3F"/>
<path d="M271.585 161.364C273.819 160.101 277.446 160.101 279.679 161.364M214.89 191.455V195.121C214.89 195.936 215.442 196.778 216.545 197.409L276.011 231.167C278.245 232.429 281.872 232.429 284.105 231.167C284.105 231.167 310.553 215.046 334.955 201.152C335.807 200.667 337.51 199.698 337.51 199.698C338.613 199.067 339.165 198.251 339.165 197.409V193.637" stroke="#F2F4F6" stroke-width="0.735913" stroke-miterlimit="10" stroke-linejoin="round"/>
<path fill-rule="evenodd" clip-rule="evenodd" d="M339.165 193.726C339.165 194.568 338.613 195.384 337.51 196.015C337.51 196.015 335.807 196.985 334.955 197.469C310.553 211.363 284.105 227.484 284.105 227.484C281.872 228.746 278.245 228.746 276.011 227.484L216.545 193.726C215.442 193.095 214.89 192.253 214.89 191.438C214.89 190.596 215.442 189.781 216.545 189.149L271.585 157.681C273.819 156.418 277.446 156.418 279.679 157.681L337.51 191.438C338.613 192.043 339.165 192.885 339.165 193.726Z" fill="#1C0D3F" stroke="#F2F4F6" stroke-width="0.735913" stroke-miterlimit="10" stroke-linejoin="round"/>
<path d="M284.419 216.115L323.087 194.203V178.443H237.272V193.677L277.183 216.126C279.43 217.39 282.175 217.386 284.419 216.115Z" fill="url(#paint7_linear_2611_5569)"/>
<path d="M283.578 200.18C281.538 201.297 278.19 200.766 276.771 200.36L215.78 165.759L215.005 165.086V168.546L216.106 169.573L276.771 203.929C279.624 205.125 282.498 204.427 283.578 203.929L338.014 171.746L339.077 170.705V167.343C338.583 167.637 337.98 168.075 337.405 168.417C323.211 176.869 285.538 199.107 283.578 200.18Z" fill="#1C0D3F"/>
<path d="M271.585 133.824C273.819 132.562 277.446 132.562 279.679 133.824M214.89 163.916V167.582C214.89 168.397 215.442 169.239 216.545 169.87L276.012 203.628C278.245 204.89 281.872 204.89 284.105 203.628C284.105 203.628 310.553 187.506 334.955 173.613C335.807 173.128 337.51 172.159 337.51 172.159C338.614 171.528 339.165 170.712 339.165 169.87V166.098" stroke="#F2F4F6" stroke-width="0.735913" stroke-miterlimit="10" stroke-linejoin="round"/>
<path fill-rule="evenodd" clip-rule="evenodd" d="M339.165 166.187C339.165 167.029 338.614 167.845 337.51 168.476C337.51 168.476 335.807 169.446 334.955 169.93C310.553 183.824 284.105 199.945 284.105 199.945C281.872 201.207 278.245 201.207 276.012 199.945L216.545 166.187C215.442 165.556 214.89 164.714 214.89 163.899C214.89 163.057 215.442 162.242 216.545 161.61L271.585 130.142C273.819 128.879 277.446 128.879 279.679 130.142L337.51 163.899C338.614 164.504 339.165 165.346 339.165 166.187Z" fill="#1C0D3F" stroke="#F2F4F6" stroke-width="0.735913" stroke-miterlimit="10" stroke-linejoin="round"/>
<rect x="259.917" y="148.774" width="2.74033" height="2.76967" fill="#ED26B7"/>
<rect width="4.48393" height="1.42756" rx="0.490608" transform="matrix(0.866025 0.5 -0.866025 0.5 262.803 142.096)" fill="#BFC9D1"/>
<rect width="4.48393" height="1.42756" rx="0.490608" transform="matrix(0.866025 0.5 -0.866025 0.5 256.239 145.886)" fill="#BFC9D1"/>
<circle cx="1.12098" cy="1.12098" r="1.12098" transform="matrix(0.866025 0.5 -0.866025 0.5 261.286 147.721)" fill="#ED26B7"/>
<path d="M241.095 164.095L248.716 168.503L244.773 159.907L245.491 147.565L253.523 132.023L264.058 122.041L275.954 114.139L286.711 109.92H299.769L290.22 106.063L272.039 103.768L261.296 107.992L249.634 115.246L241.645 122.041L236.136 132.508L235.31 146.098L237.054 155.464L241.095 164.095Z" fill="#1C0D3F" stroke="#ED26B7" stroke-width="1.47183" stroke-linejoin="bevel"/>
<path d="M241.071 164.178L244.792 159.957L237.059 155.484" stroke="#ED26B7" stroke-width="0.735913" stroke-linejoin="bevel"/>
<path d="M244.833 159.957L237.351 141.105L236.181 132.578" stroke="#ED26B7" stroke-width="0.735913" stroke-linejoin="bevel"/>
<path d="M237.393 141.189L245.544 147.5" stroke="#ED26B7" stroke-width="0.735913" stroke-linejoin="bevel"/>
<path d="M253.486 132.076L237.393 141.189L241.696 122.101L245.795 127.855L253.486 132.076Z" stroke="#ED26B7" stroke-width="0.735913" stroke-linejoin="bevel"/>
<path d="M237.393 141.189L237.059 155.442" stroke="black" stroke-width="0.490608" stroke-linejoin="bevel"/>
<path d="M237.394 141.27L245.711 127.874L256.199 117.275L268.013 109.805L279.126 105.609L290.239 106.078" stroke="#ED26B7" stroke-width="0.735913" stroke-linejoin="bevel"/>
<path d="M253.453 132.091L256.373 117.169L261.235 108.042L279.087 105.612L299.615 109.908" stroke="#ED26B7" stroke-width="0.735913" stroke-linejoin="bevel"/>
<path d="M286.763 109.908L279.122 105.647L275.847 114.168L268.066 109.731L261.27 108.112" stroke="#ED26B7" stroke-width="0.735913" stroke-linejoin="bevel"/>
<path d="M275.87 114.182L256.311 117.155L241.721 122.045" stroke="#ED26B7" stroke-width="0.735913" stroke-linejoin="bevel"/>
<path d="M249.662 115.238L256.35 117.116L264.213 121.849" stroke="#ED26B7" stroke-width="0.735913" stroke-linejoin="bevel"/>
<path d="M244.74 159.927L248.74 168.509L252.431 166.49L306.702 114.236L299.775 109.939H286.697L275.834 114.236L264.043 122.051L253.468 132.107L245.504 147.526L244.74 159.927Z" fill="#1C0D3F" stroke="#ED26B7" stroke-width="1.47183" stroke-linejoin="bevel"/>
<path d="M244.302 160.192L236.738 155.68L237.203 141.746L245.696 127.945" stroke="#ED26B7" stroke-width="2.45304" stroke-linejoin="bevel"/>
<circle cx="245.298" cy="128.409" r="1.59244" fill="#ED26B7"/>
<circle cx="268.078" cy="109.885" r="1.59244" fill="#ED26B7"/>
<circle cx="279.429" cy="105.647" r="1.59244" fill="#ED26B7"/>
<circle cx="244.568" cy="160.192" r="1.59244" fill="#ED26B7"/>
<path d="M249.441 115.292L256.112 117.338L268.078 109.885" stroke="#ED26B7" stroke-width="2.45304" stroke-linejoin="bevel"/>
<path d="M250.163 163.29L254.323 171.698L262.837 175.325L276.536 176.678L290.61 173.468L307.161 166.122L318.49 157.449L324.951 139.924L324.154 128.772L320.172 121.78L313.976 116.559L305.391 113.195H292.646L281.494 117.621L269.988 125.144L257.686 136.296L251.136 150.457L250.163 163.29Z" fill="#1C0D3F" stroke="#ED26B7" stroke-width="1.47183" stroke-linejoin="bevel"/>
<path d="M321.287 136.999L320.203 121.939L302.586 118.781L292.758 113.292" stroke="#ED26B7" stroke-width="0.735913" stroke-linejoin="bevel"/>
<path d="M281.717 117.673L302.52 118.801L314.212 125.938L321.308 136.944" stroke="#ED26B7" stroke-width="0.735913" stroke-linejoin="bevel"/>
<path d="M276.439 169.904L276.659 158.746V145.496L279.228 130.594L281.651 117.711" stroke="#ED26B7" stroke-width="0.735913" stroke-linejoin="bevel"/>
<path d="M260.258 154.918L276.418 169.876V176.724" stroke="#ED26B7" stroke-width="0.735913" stroke-linejoin="bevel"/>
<path d="M321.296 137.014L321.503 149.203" stroke="#ED26B7" stroke-width="0.735913" stroke-linejoin="bevel"/>
<path d="M262.806 175.393L259.806 167.105L260.227 154.947L265.177 141.019L279.346 130.529L290.384 123.327L302.362 118.787L313.994 116.66" stroke="#ED26B7" stroke-width="0.735913" stroke-linejoin="bevel"/>
<path d="M309.48 158.368L321.265 137.033L324.196 128.911" stroke="#ED26B7" stroke-width="0.735913" stroke-linejoin="bevel"/>
<path d="M307.278 166.263L309.375 158.486L308.532 146.041L301.691 132.969L290.786 123.419L281.71 117.662" stroke="#ED26B7" stroke-width="0.735913" stroke-linejoin="bevel"/>
<path d="M276.359 169.877L262.795 175.303L250.176 163.351L259.798 167.121L276.359 169.877ZM276.359 169.877L290.809 173.451L309.378 158.379L318.443 157.577" stroke="#ED26B7" stroke-width="0.735913" stroke-linejoin="bevel"/>
<path d="M276.284 169.934L293.838 165.095L309.367 158.4L321.577 149.173" stroke="#ED26B7" stroke-width="0.735913" stroke-linejoin="bevel"/>
<path d="M251.145 150.564L260.233 154.927L276.651 158.714L293.36 153.276L308.498 146.061L321.307 136.951L325.043 140.011" stroke="#ED26B7" stroke-width="0.735913" stroke-linejoin="bevel"/>
<path d="M257.765 136.356L260.258 154.918L250.256 163.328" stroke="#ED26B7" stroke-width="0.735913" stroke-linejoin="bevel"/>
<path d="M260.29 154.969L276.621 145.575L289.29 139.198L301.743 132.993L314.179 126.021L320.185 121.918" stroke="#ED26B7" stroke-width="0.735913" stroke-linejoin="bevel"/>
<path d="M276.427 169.873L293.375 153.385C296.165 146.63 301.746 133.119 301.746 133.119L302.461 118.775L305.371 113.364" stroke="#ED26B7" stroke-width="0.735913" stroke-linejoin="bevel"/>
<path d="M290.793 173.474L293.737 165.168L293.515 153.252L289.254 139.279L279.283 130.635L270.056 125.23" stroke="#ED26B7" stroke-width="0.735913" stroke-linejoin="bevel"/>
<path d="M309.48 158.349L293.602 153.18L276.72 145.52L265.229 141.058L257.792 136.409" stroke="#ED26B7" stroke-width="0.735913" stroke-linejoin="bevel"/>
<path d="M257.844 136.425L279.242 130.662L301.761 132.903L321.344 137.065" stroke="#ED26B7" stroke-width="0.735913" stroke-linejoin="bevel"/>
<path d="M290.645 123.387L302.516 118.899L314.07 126.11L321.354 137.198" stroke="#ED26B7" stroke-width="2.45304" stroke-linejoin="bevel"/>
<path d="M301.685 132.983L289.254 139.244L279.206 130.562L265.245 140.985" stroke="#ED26B7" stroke-width="2.45304" stroke-linejoin="bevel"/>
<path d="M259.839 167.317L260.467 155.388L276.713 158.684V145.5" stroke="#ED26B7" stroke-width="2.45304" stroke-linejoin="bevel"/>
<circle cx="259.839" cy="166.916" r="1.59244" fill="#ED26B7"/>
<circle cx="276.713" cy="145.499" r="1.59244" fill="#ED26B7"/>
<circle cx="265.157" cy="141.269" r="1.59244" fill="#ED26B7"/>
<circle cx="279.045" cy="130.824" r="1.59244" fill="#ED26B7"/>
<circle cx="290.607" cy="123.366" r="1.59244" fill="#ED26B7"/>
<circle cx="301.697" cy="133.032" r="1.59244" fill="#ED26B7"/>
<circle cx="321.287" cy="137.198" r="1.59244" fill="#ED26B7"/>
<circle cx="293.429" cy="153.326" r="1.59244" fill="#ED26B7"/>
<path d="M293.453 153.206L308.463 145.813L309.422 158.341L318.46 157.246" stroke="#ED26B7" stroke-width="2.45304" stroke-linejoin="bevel"/>
<path opacity="0.7" d="M240.925 194.082V186.413" stroke="#ED26B7" stroke-width="1.96243" stroke-dasharray="1.96 1.96"/>
<path opacity="0.7" d="M244.646 195.834V188.165" stroke="#ED26B7" stroke-width="1.96243" stroke-dasharray="1.96 1.96"/>
<path opacity="0.7" d="M248.793 198.075V190.406" stroke="#ED26B7" stroke-width="1.96243" stroke-dasharray="1.96 1.96"/>
<path opacity="0.7" d="M252.78 200.635V192.966" stroke="#ED26B7" stroke-width="1.96243" stroke-dasharray="1.96 1.96"/>
<path opacity="0.7" d="M256.82 202.838V195.169" stroke="#ED26B7" stroke-width="1.96243" stroke-dasharray="1.96 1.96"/>
<path opacity="0.7" d="M261.126 205.744V198.075" stroke="#ED26B7" stroke-width="1.96243" stroke-dasharray="1.96 1.96"/>
<path opacity="0.7" d="M265.591 207.462V199.793" stroke="#ED26B7" stroke-width="1.96243" stroke-dasharray="1.96 1.96"/>
<path opacity="0.7" d="M270.312 210.624V202.955" stroke="#ED26B7" stroke-width="1.96243" stroke-dasharray="1.96 1.96"/>
<path opacity="0.7" d="M275.185 213.447V205.778" stroke="#ED26B7" stroke-width="1.96243" stroke-dasharray="1.96 1.96"/>
<path opacity="0.7" d="M280.46 215.246V207.577" stroke="#ED26B7" stroke-width="1.96243" stroke-dasharray="1.96 1.96"/>
<path opacity="0.7" d="M285.814 213.447V205.778" stroke="#ED26B7" stroke-width="1.96243" stroke-dasharray="1.96 1.96"/>
<path opacity="0.7" d="M290.719 210.285V202.616" stroke="#ED26B7" stroke-width="1.96243" stroke-dasharray="1.96 1.96"/>
<path opacity="0.7" d="M295.504 207.182V199.513" stroke="#ED26B7" stroke-width="1.96243" stroke-dasharray="1.96 1.96"/>
<path opacity="0.7" d="M300.274 204.749V197.08" stroke="#ED26B7" stroke-width="1.96243" stroke-dasharray="1.96 1.96"/>
<path opacity="0.7" d="M304.931 201.909V194.24" stroke="#ED26B7" stroke-width="1.96243" stroke-dasharray="1.96 1.96"/>
<path opacity="0.7" d="M309.766 198.812V191.143" stroke="#ED26B7" stroke-width="1.96243" stroke-dasharray="1.96 1.96"/>
<path opacity="0.7" d="M314.6 195.91V188.241" stroke="#ED26B7" stroke-width="1.96243" stroke-dasharray="1.96 1.96"/>
<path opacity="0.7" d="M319.612 193.343V185.674" stroke="#ED26B7" stroke-width="1.96243" stroke-dasharray="1.96 1.96"/>
<rect width="3" height="12" rx="1.5" transform="matrix(0.866025 0.5 -0.866025 0.5 197.892 217.747)" fill="#DFE4E8"/>
<rect width="3" height="8" rx="1.5" transform="matrix(0.866025 0.5 -0.866025 0.5 199.624 222.747)" fill="#DFE4E8"/>
<rect width="3" height="5" rx="1.5" transform="matrix(0.866025 0.5 -0.866025 0.5 186.634 218.247)" fill="#DFE4E8"/>
<rect width="3" height="15" rx="1.5" transform="matrix(0.866025 0.5 -0.866025 0.5 210.882 222.247)" fill="#DFE4E8"/>
<g opacity="0.7">
<rect width="3" height="14" rx="1.5" transform="matrix(0.866025 0.5 -0.866025 0.5 370.024 114.439)" fill="#D9DDE2"/>
<rect width="3" height="12" rx="1.5" transform="matrix(0.866025 0.5 -0.866025 0.5 373.488 118.439)" fill="#D9DDE2"/>
<rect width="3" height="8" rx="1.5" transform="matrix(0.866025 0.5 -0.866025 0.5 359.632 114.439)" fill="#D9DDE2"/>
<rect width="3" height="17" rx="1.5" transform="matrix(0.866025 0.5 -0.866025 0.5 383.014 118.939)" fill="#D9DDE2"/>
</g>
<defs>
<filter id="filter0_f_2611_5569" x="159.667" y="140.422" width="71.6358" height="45.0116" filterUnits="userSpaceOnUse" color-interpolation-filters="sRGB">
<feFlood flood-opacity="0" result="BackgroundImageFix"/>
<feBlend mode="normal" in="SourceGraphic" in2="BackgroundImageFix" result="shape"/>
<feGaussianBlur stdDeviation="1.22652" result="effect1_foregroundBlur_2611_5569"/>
</filter>
<filter id="filter1_f_2611_5569" x="126.786" y="122.699" width="97.0061" height="58.7122" filterUnits="userSpaceOnUse" color-interpolation-filters="sRGB">
<feFlood flood-opacity="0" result="BackgroundImageFix"/>
<feBlend mode="normal" in="SourceGraphic" in2="BackgroundImageFix" result="shape"/>
<feGaussianBlur stdDeviation="0.981217" result="effect1_foregroundBlur_2611_5569"/>
</filter>
<radialGradient id="paint0_radial_2611_5569" cx="0" cy="0" r="1" gradientUnits="userSpaceOnUse" gradientTransform="translate(173.082 151.718) rotate(-35.593) scale(235.364 332.195)">
<stop stop-color="white"/>
<stop offset="1" stop-color="white" stop-opacity="0"/>
</radialGradient>
<linearGradient id="paint1_linear_2611_5569" x1="204.601" y1="14.0645" x2="204.601" y2="113.452" gradientUnits="userSpaceOnUse">
<stop stop-color="white" stop-opacity="0"/>
<stop offset="1" stop-color="#ED26B7"/>
</linearGradient>
<linearGradient id="paint2_linear_2611_5569" x1="223.518" y1="13.3889" x2="223.518" y2="113.452" gradientUnits="userSpaceOnUse">
<stop stop-color="white" stop-opacity="0"/>
<stop offset="1" stop-color="#ED26B7"/>
</linearGradient>
<linearGradient id="paint3_linear_2611_5569" x1="173.692" y1="32.2173" x2="173.692" y2="131.605" gradientUnits="userSpaceOnUse">
<stop stop-color="#ED26B7" stop-opacity="0.4"/>
<stop offset="1" stop-color="#ED26B7"/>
</linearGradient>
<linearGradient id="paint4_linear_2611_5569" x1="192.609" y1="31.541" x2="192.609" y2="131.604" gradientUnits="userSpaceOnUse">
<stop stop-color="#ED26B7" stop-opacity="0.4"/>
<stop offset="1" stop-color="#ED26B7"/>
</linearGradient>
<linearGradient id="paint5_linear_2611_5569" x1="196.662" y1="235.195" x2="107.305" y2="180.058" gradientUnits="userSpaceOnUse">
<stop stop-color="#DFE4E8"/>
<stop offset="1" stop-color="#62676B" stop-opacity="0"/>
</linearGradient>
<linearGradient id="paint6_linear_2611_5569" x1="368.002" y1="132.776" x2="276.321" y2="75.8612" gradientUnits="userSpaceOnUse">
<stop stop-color="#DFE4E8"/>
<stop offset="1" stop-color="#62676B" stop-opacity="0"/>
</linearGradient>
<linearGradient id="paint7_linear_2611_5569" x1="280.18" y1="184.456" x2="280.18" y2="272.44" gradientUnits="userSpaceOnUse">
<stop stop-color="#ED26B7" stop-opacity="0"/>
<stop offset="1" stop-color="#ED26B7"/>
</linearGradient>
</defs>
</svg>
