<svg width="706" height="550" viewBox="0 0 706 550" fill="none" xmlns="http://www.w3.org/2000/svg"><g opacity=".4"><path opacity=".152811" d="M699.38 317.237 440.826 464.254c-7.623 4.304-19.999 4.304-27.622 0L154.651 316.623c-3.767-2.152-5.65-5.021-5.65-7.801 0-2.869 1.883-5.648 5.65-7.8l258.553-147.017c7.623-4.304 19.999-4.304 27.622 0L699.38 301.636c7.498 3.471 7.498 11.766 0 15.601Z" fill="#fff" fill-opacity=".25"/><path opacity=".593913" d="M699.38 317.237 440.826 464.254c-7.623 4.304-19.999 4.304-27.622 0L154.651 316.623c-3.767-2.152-5.65-5.021-5.65-7.801 0-2.869 1.883-5.648 5.65-7.8l258.553-147.017c7.623-4.304 19.999-4.304 27.622 0L699.38 301.636c7.498 3.471 7.498 11.766 0 15.601Z" stroke="#1B127D"/><path opacity=".593913" d="M699.38 307.048 440.826 454.065c-7.623 4.303-19.999 4.303-27.622 0L154.651 306.433c-3.767-2.151-5.65-5.021-5.65-7.8 0-2.869 1.883-5.649 5.65-7.8l258.553-147.017c7.623-4.304 19.999-4.304 27.622 0L699.38 291.447c7.498 3.47 7.498 11.766 0 15.601Z" stroke="#1B127D"/><path fill-rule="evenodd" clip-rule="evenodd" d="m570.944 219.421.001.003c.347-.198.569-.325.661-.378.022-.012.04-.022.05-.028l.006-.004c.002-.001.008-.005.015-.01.002-.001.013-.008.027-.019.005-.004.027-.02.051-.044.016-.016.058-.068.081-.106.044-.098.035-.426-.09-.613-.127-.087-.336-.136-.397-.133-.029.004-.073.013-.089.018-.026.008-.046.016-.051.018-.014.006-.024.011-.027.012-.011.006-.021.011-.021.011l-.01.006c-.023.013-.08.045-.168.094l-.002.001-.719.409.495.869.187-.106Zm-3.555.877.189-.107.495.869-1.591.905-.003-.006-.036.021-.495-.87 1.438-.817.003.005Zm-4.312 2.455.171-.098.495.869-1.528.869-.005-.007-.081.046-.494-.869 1.438-.818.004.008Zm-4.314 2.453.15-.085.494.869-1.432.815-.005-.008-.155.088-.494-.87 1.438-.817.004.008Zm-4.313 2.454.03-.018.495.87-1.357.772-.006-.01-.111.063-.494-.869 1.438-.818.005.01Zm-4.313 2.453.135-.077.494.869-1.492.849-.006-.01-.081.046-.494-.869 1.438-.818.006.01Zm-4.314 2.453.084-.048.495.869-1.398.795-.007-.01-.124.07-.494-.869 1.438-.817.006.01Zm-4.314 2.453.112-.063.494.869-1.49.847-.006-.011-.06.034-.494-.869 1.438-.818.006.011Zm-4.313 2.453.073-.042.494.87-1.403.798-.007-.012-.107.061-.495-.869 1.438-.817.007.011Zm-4.314 2.453.11-.063.494.87-1.469.835-.007-.012-.078.045-.494-.869 1.438-.818.006.012Zm-4.314 2.453.034-.019.494.869-1.397.794-.007-.012-.074.042-.494-.869 1.438-.817.006.012Zm-4.313 2.452.105-.06.495.87-1.447.822-.007-.012-.097.055-.494-.869 1.438-.818.007.012Zm-4.314 2.453.033-.019.494.87-1.454.826-.007-.012-.017.009-.494-.869 1.438-.817.007.012Zm-4.314 2.453.079-.045.494.87-1.426.81-.007-.013-.091.052-.494-.869 1.438-.818.007.013Zm-4.313 2.453.077-.045.495.87-1.462.831-.008-.013-.054.03-.494-.869 1.438-.817.008.013Zm-5.216 4.098-.049.028-.495-.869 1.438-.818.008.013.02-.012.495.87-1.41.801-.007-.013Zm-3.412.807.077-.044.494.869-1.438.818-.008-.013-.076.043-.495-.869 1.438-.817.008.013Zm-4.314 2.452.05-.028.494.869-1.465.833-.007-.013-.023.013-.494-.869 1.438-.818.007.013Zm-4.314 2.453.034-.019.494.869-1.421.808-.007-.013-.051.028-.494-.869 1.438-.817.007.013Zm-4.314 2.453.064-.037.495.87-1.442.819-.008-.013-.06.034-.494-.869 1.438-.818.007.014Zm-4.313 2.452.032-.018.495.869-1.462.831-.007-.014-.01.005-.494-.869 1.438-.817.008.013Zm-4.314 2.453.031-.018.494.869-1.427.811-.007-.013-.043.024-.494-.869 1.438-.818.008.014Zm-4.314 2.452.05-.028.494.869-1.442.82-.007-.014-.047.026-.494-.869 1.438-.817.008.013Zm-4.314 2.453.024-.014.495.869-1.456.828-.008-.014-.006.004-.495-.869 1.438-.818.008.014Zm-5.235 4.108-.03.018-.495-.87 1.438-.817.008.013.022-.013.495.87-1.43.813-.008-.014Zm-3.393.797.036-.021.495.869-1.441.819-.007-.013-.034.019-.494-.869 1.438-.818.007.014Zm-5.258 4.121-.007.005-.494-.87 1.438-.817.007.013.02-.011.494.869-1.45.825-.008-.014Zm-4.303 2.447-.018.01-.494-.869 1.438-.818.007.014.013-.008.494.87-1.432.814-.008-.013Zm-4.311 2.45-.021.013-.494-.87 1.438-.817.007.013.023-.013.494.87-1.439.818-.008-.014Zm-4.328 2.461-.007.004-.494-.869 1.438-.818.007.013.014-.007.494.869-1.444.821-.008-.013Zm-4.314 2.453-.007.004-.494-.87 1.438-.817.008.013.004-.002.494.869-1.436.816-.007-.013Zm-4.312 2.451-.008.005-.495-.869 1.438-.818.008.013.008-.005.494.87-1.438.817-.007-.013Zm-4.319 2.456-.003.002-.495-.87 1.438-.817.008.013.005-.003.494.869-1.44.819-.007-.013Zm-2.88 1.637h.001l-.495-.87-1.437.818.007.013-.003.001.495.869 1.439-.818-.007-.013Zm-4.318 2.455.005-.003-.494-.869-1.438.817.007.013-.006.003.495.869 1.438-.818-.007-.012Zm-4.315 2.453.006-.003-.494-.87-1.438.818.007.012-.005.003.495.869 1.437-.817-.008-.012Zm-4.309 2.45.001-.001-.494-.869-1.438.817.007.013-.008.004.495.869 1.444-.821-.007-.012Zm-4.329 2.461.016-.009-.494-.87-1.438.818.007.012-.019.011.494.869 1.441-.819-.007-.012Zm-4.316 2.454.018-.011-.494-.869-1.438.817.007.012-.015.009.494.869 1.435-.815-.007-.012Zm-4.298 2.443.002-.001-.494-.87-1.438.818.007.012-.009.005.494.869 1.445-.821-.007-.012Zm-4.338 2.467.027-.016-.495-.869-1.438.817.007.012-.032.018.495.869 1.442-.82-.006-.011Zm-4.319 2.455.032-.018-.495-.87-1.437.818.006.011-.027.016.494.869 1.433-.815-.006-.011Zm-4.29 2.439.008-.005-.494-.869-1.438.817.006.012-.009.004.494.87 1.439-.818-.006-.011Zm-4.343 2.469.037-.021-.494-.87-1.438.818.006.011-.044.025.494.869 1.446-.821-.007-.011Zm-4.323 2.457.046-.026-.494-.869-1.438.817.006.011-.039.022.494.87 1.431-.814-.006-.011Zm-4.28 2.434.012-.007-.494-.87-1.438.818.006.01-.011.007.494.869 1.437-.817-.006-.01Zm-4.35 2.473.048-.028-.494-.869-1.438.817.006.011-.058.032.494.87 1.448-.823-.006-.01Zm-4.324 2.458.058-.033-.494-.869-1.438.817.006.01-.049.027.495.87 1.428-.812-.006-.01Zm-4.265 2.425.01-.006-.495-.869-1.438.818.006.009-.022.013.494.869 1.451-.825-.006-.009Zm-4.369 2.484.065-.037-.495-.869-1.438.817.006.009-.074.042.494.87 1.447-.823-.005-.009Zm-4.315 2.453.066-.038-.494-.869-1.438.818.005.009-.049.028.494.869 1.421-.808-.005-.009Zm-4.262 2.423.014-.008-.494-.869-1.438.817.005.009-.049.027.494.87 1.473-.838-.005-.008Zm-4.386 2.493.086-.049-.494-.869-1.438.818.005.008-.089.05.495.87 1.44-.819-.005-.009Zm-4.286 2.437.058-.033-.494-.869-1.438.817.005.008-.025.014.494.87 1.405-.799-.005-.008Zm-4.319 2.455.063-.036-.494-.869-1.438.818.004.007-.089.051.494.87 1.465-.833-.005-.008Zm-4.35 2.473.099-.056-.494-.869-1.438.817.004.008-.081.046.495.869 1.419-.807-.004-.008Zm-4.217 2.398.003-.002-.495-.869-1.438.818.004.007-.059.034.494.869 1.495-.85-.004-.007Zm-4.427 2.516.116-.065-.495-.869-1.438.817.004.007-.112.064.494.869 1.435-.816-.004-.007Zm-4.244 2.413.046-.026-.494-.869-1.438.818.003.006-.022.012.494.87 1.415-.804-.004-.007Zm-4.39 2.496.122-.069-.494-.869-1.438.817.003.006-.13.074.494.869 1.446-.822-.003-.006Zm-4.253 2.418.061-.034-.494-.87-1.438.818.003.005-.021.012.494.869 1.399-.795-.004-.005Zm-4.393 2.497.14-.079-.494-.869-1.438.817.003.005-.139.079.494.869 1.437-.817-.003-.005Zm-4.186 2.38.012-.006-.494-.87-1.438.818.002.004-.099.057.494.869 1.526-.867-.003-.005Zm-4.447 2.529.145-.083-.494-.869-1.438.817.002.004-.072.041.494.869 1.365-.776-.002-.003Zm-4.333 2.463.165-.093-.495-.87-1.438.818.002.003-.15.085.494.869 1.424-.809-.002-.003Zm-4.316 2.454.167-.095-.495-.869-1.438.817.002.002-.148.084.494.869 1.42-.806-.002-.002Zm-4.229 2.404.082-.046-.494-.87-.719.409h-.001l-.033.019-.003.002-.003.002-.006.003-.003.002-.009.006-.008.004c-.002.001-.011.007-.022.015-.007.005-.028.021-.041.033-.035.035-.167.361-.081.654.209.175.524.207.568.195.015-.005.039-.014.046-.018.012-.005.021-.009.024-.011l.008-.004.006-.003.008-.005.006-.003.003-.002.088-.05.584-.331v-.001ZM499.092 179.547l.002.003c.346-.198.569-.325.66-.378.022-.012.04-.022.05-.028l.007-.004c.001-.001.007-.005.014-.01.002-.001.014-.008.027-.019h.001c.005-.004.026-.02.05-.044.016-.016.058-.068.082-.106.043-.098.034-.426-.09-.613-.128-.087-.337-.136-.398-.133-.028.004-.072.013-.088.018-.027.008-.046.016-.051.018-.014.006-.025.011-.027.012-.011.006-.021.011-.021.011l-.01.006c-.024.013-.081.045-.169.094l-.001.001-.719.409.494.869.187-.106Zm-3.554.877.188-.107.495.869-1.59.905-.004-.006-.036.021-.494-.87 1.438-.817.003.005Zm-4.313 2.455.172-.098.494.869-1.528.869-.004-.007-.082.046-.494-.869 1.438-.818.004.008Zm-4.313 2.453.149-.085.495.869-1.433.815-.005-.008-.155.088-.494-.87 1.438-.817.005.008Zm-4.314 2.454.031-.018.494.87-1.357.772-.005-.01-.111.063-.495-.869 1.438-.818.005.01Zm-4.313 2.453.136-.077.494.869-1.492.849-.006-.01-.081.046-.495-.87 1.438-.817.006.01Zm-4.314 2.453.085-.048.494.869-1.398.795-.006-.01-.124.07-.494-.869 1.438-.818.005.011Zm-4.313 2.453.111-.063.494.869-1.489.847-.006-.011-.06.034-.494-.87 1.438-.817.006.011Zm-4.314 2.453.074-.042.494.869-1.404.799-.006-.012-.108.061-.494-.869 1.438-.818.006.012Zm-4.313 2.453.109-.063.495.87-1.47.835-.006-.012-.079.045-.494-.87 1.438-.817.007.012Zm-4.314 2.453.033-.019.495.869-1.398.794-.007-.012-.074.042-.494-.869 1.438-.817.007.012Zm-4.314 2.452.106-.06.494.87-1.446.822-.007-.012-.098.055-.494-.869 1.438-.818.007.012Zm-4.314 2.453.033-.019.495.87-1.454.826-.007-.012-.017.009-.495-.869 1.438-.817.007.012Zm-4.313 2.453.078-.045.494.87-1.426.81-.007-.013-.09.052-.494-.869 1.437-.818.008.013Zm-4.314 2.452.078-.044.494.87-1.462.831-.007-.013-.054.03-.494-.869 1.438-.817.007.012Zm-5.216 4.099-.049.028-.494-.869 1.438-.818.007.013.021-.012.494.87-1.41.801-.007-.013Zm-3.412.807.077-.044.494.869-1.438.818-.007-.013-.077.043-.494-.869 1.438-.817.007.013Zm-4.313 2.452.049-.028.494.869-1.464.833-.008-.013-.023.013-.494-.869 1.438-.818.008.013Zm-4.314 2.453.033-.019.495.869-1.421.808-.008-.014-.051.029-.494-.869 1.438-.817.008.013Zm-4.314 2.453.064-.037.494.869-1.442.82-.007-.013-.061.034-.494-.869 1.438-.818.008.014Zm-4.314 2.452.033-.019.494.87-1.461.831-.008-.014-.009.005-.495-.869 1.438-.817.008.013Zm-4.314 2.453.031-.018.494.869-1.426.811-.008-.013-.042.024-.494-.869 1.437-.818.008.014Zm-4.314 2.452.05-.028.494.869-1.441.82-.008-.014-.046.026-.494-.869 1.438-.817.007.013Zm-4.314 2.453.025-.014.494.869-1.456.828-.007-.014-.007.004-.494-.869 1.438-.818.007.014Zm-5.234 4.108-.031.017-.494-.869 1.438-.817.008.013.022-.013.494.87-1.43.813-.007-.014Zm-3.393.797.036-.021.494.869-1.44.819-.008-.013-.034.019-.494-.869 1.438-.818.008.014Zm-5.258 4.121-.008.005-.494-.87 1.438-.817.008.013.019-.011.494.869-1.45.825-.007-.014Zm-4.303 2.447-.019.01-.494-.869 1.438-.818.008.014.012-.008.494.87-1.432.814-.007-.013Zm-4.311 2.45-.021.013-.495-.87 1.438-.817.008.013.022-.013.494.87-1.439.818-.007-.014Zm-4.328 2.461-.007.004-.495-.869 1.438-.818.008.013.014-.007.494.869-1.445.821-.007-.013Zm-4.315 2.453-.006.004-.494-.87 1.438-.817.007.013.004-.002.494.869-1.435.816-.008-.013Zm-4.312 2.451-.008.005-.494-.869 1.438-.818.007.013.009-.005.494.87-1.439.817-.007-.013Zm-4.319 2.456-.003.002-.494-.87 1.438-.817.007.013.006-.003.494.869-1.44.819-.008-.013Zm-2.88 1.637h.001l-.494-.87-1.438.818.007.012-.002.002.494.869 1.439-.818-.007-.013Zm-4.317 2.455.004-.003-.494-.869-1.438.817.007.013-.005.003.494.869 1.439-.818-.007-.012Zm-4.315 2.453.005-.003-.494-.87-1.438.818.007.012-.004.003.494.869 1.437-.817-.007-.012Zm-4.31 2.45.002-.001-.495-.869-1.438.817.007.013-.007.004.494.869 1.444-.821-.007-.012Zm-4.329 2.461.017-.009-.495-.87-1.438.818.007.012-.018.011.494.869 1.44-.819-.007-.012Zm-4.316 2.454.019-.011-.494-.869-1.438.817.006.012-.015.009.494.869 1.435-.815-.007-.012Zm-4.298 2.443.003-.001-.494-.87-1.438.818.006.012-.009.005.495.869 1.444-.821-.007-.012Zm-4.338 2.466.027-.015-.494-.869-1.438.817.006.012-.031.018.494.869 1.443-.82-.007-.012Zm-4.319 2.456.032-.018-.494-.87-1.438.818.006.011-.027.016.494.869 1.434-.815-.007-.011Zm-4.29 2.439.008-.005-.494-.869-1.438.817.006.012-.008.004.494.87 1.439-.818-.007-.011Zm-4.342 2.469.036-.021-.494-.87-1.438.818.006.011-.044.025.495.869 1.445-.821-.006-.011Zm-4.323 2.457.045-.026-.494-.869-1.438.817.006.011-.039.022.494.87 1.432-.814-.006-.011Zm-4.28 2.434.012-.007-.495-.87-1.438.818.006.01-.01.006.494.87 1.437-.817-.006-.01Zm-4.35 2.473.048-.028-.495-.869-1.437.817.005.011-.057.032.494.87 1.447-.823-.005-.01Zm-4.324 2.458.058-.033-.494-.87-1.438.818.005.01-.048.027.494.87 1.428-.812-.005-.01Zm-4.265 2.425.009-.006-.494-.869-1.438.818.005.009-.022.013.495.869 1.45-.825-.005-.009Zm-4.37 2.484.065-.037-.494-.869-1.438.817.005.009-.073.042.494.87 1.447-.823-.006-.009Zm-4.315 2.453.066-.038-.494-.869-1.438.818.005.009-.049.028.494.869 1.421-.808-.005-.009Zm-4.261 2.423.013-.008-.494-.869-1.438.817.005.009-.048.027.494.87 1.473-.838-.005-.008Zm-4.387 2.493.086-.049-.494-.869-1.438.818.005.008-.088.05.494.87 1.44-.819-.005-.009Zm-4.285 2.437.058-.033-.495-.869-1.438.817.005.008-.025.014.494.87 1.405-.799-.004-.008Zm-4.319 2.455.063-.036-.495-.869-1.437.818.004.007-.09.051.494.87 1.465-.833-.004-.008Zm-4.35 2.473.099-.056-.494-.869-1.438.817.004.007-.081.047.494.869 1.42-.807-.004-.008Zm-4.218 2.398.003-.002-.494-.869-1.438.818.004.007-.06.034.494.869 1.495-.85-.004-.007Zm-4.426 2.516.115-.065-.494-.869-1.438.817.004.007-.113.064.494.869 1.436-.816-.004-.007Zm-4.244 2.413.045-.026-.494-.869-1.438.818.004.006-.023.012.494.87 1.415-.804-.003-.007Zm-4.39 2.496.121-.069-.494-.869-1.438.817.003.006-.129.074.494.869 1.446-.822-.003-.006Zm-4.253 2.418.06-.035-.494-.869-1.438.818.003.005-.02.012.494.869 1.398-.795-.003-.005Zm-4.393 2.497.14-.079-.495-.869-1.438.817.003.005-.139.079.495.869 1.437-.817-.003-.005Zm-4.186 2.38.012-.006-.495-.87-1.437.818.002.004-.1.057.494.869 1.526-.867-.002-.005Zm-4.448 2.529.146-.083-.494-.869-1.438.817.002.004-.073.041.494.869 1.366-.776-.003-.003Zm-4.333 2.463.165-.093-.494-.87-1.438.818.001.003-.15.085.494.869 1.424-.809-.002-.003Zm-4.315 2.454.166-.095-.494-.869-1.438.817.001.002-.147.084.494.869 1.419-.806-.001-.002Zm-4.23 2.404.082-.046-.494-.87-.719.409h-.001l-.032.019-.003.002h-.001l-.002.002-.006.003-.004.002-.009.005-.007.005c-.002.001-.011.007-.022.015-.007.005-.028.021-.041.033-.036.035-.168.361-.082.654.209.175.524.207.568.195.016-.005.039-.014.047-.018.012-.005.021-.009.023-.011l.008-.004.006-.003.008-.005.007-.003.003-.002.088-.05.584-.331-.001-.001ZM641.967 259.711l.002.003c.346-.198.569-.325.66-.378.022-.012.04-.022.05-.028l.007-.004c.001-.001.007-.005.014-.01.002-.001.014-.008.027-.019h.001c.005-.004.026-.02.05-.044.016-.016.058-.068.082-.106.043-.098.034-.426-.09-.613-.128-.087-.337-.136-.398-.133-.028.004-.072.013-.088.018-.027.008-.046.016-.051.018-.014.006-.025.011-.027.012-.011.006-.021.011-.021.011l-.01.006c-.024.013-.081.045-.169.094l-.001.001-.719.409.494.869.187-.106Zm-3.554.877.188-.107.495.869-1.59.905-.004-.006-.036.021-.494-.869 1.438-.818.003.005Zm-4.313 2.455.172-.098.494.869-1.528.869-.004-.007-.082.046-.494-.869 1.438-.817.004.007Zm-4.313 2.453.149-.085.495.869-1.433.815-.005-.008-.155.088-.494-.869 1.438-.818.005.008Zm-4.314 2.454.031-.018.494.87-1.357.772-.005-.01-.111.063-.495-.869 1.438-.817.005.009Zm-4.313 2.453.136-.077.494.869-1.492.849-.006-.01-.081.046-.495-.869 1.438-.818.006.01Zm-4.314 2.453.085-.048.494.869-1.398.795-.006-.01-.124.07-.494-.869 1.438-.817.005.01Zm-4.313 2.453.111-.063.494.869-1.489.847-.006-.011-.06.034-.494-.869 1.438-.818.006.011Zm-4.314 2.453.074-.042.494.87-1.404.798-.006-.012-.108.061-.494-.869 1.438-.817.006.011Zm-4.313 2.453.109-.063.495.87-1.47.835-.006-.012-.079.045-.494-.869 1.438-.818.007.012Zm-4.314 2.453.033-.019.495.869-1.398.794-.007-.012-.074.042-.494-.869 1.438-.817.007.012Zm-4.314 2.452.106-.06.494.87-1.446.822-.007-.012-.098.055-.494-.869 1.438-.818.007.012Zm-4.314 2.453.033-.019.495.87-1.454.826-.007-.012-.017.009-.495-.869 1.438-.817.007.012Zm-4.313 2.453.078-.045.494.87-1.426.81-.007-.012-.09.051-.494-.869 1.437-.818.008.013Zm-4.314 2.453.078-.045.494.87-1.462.831-.007-.013-.054.03-.494-.869 1.438-.817.007.013Zm-5.216 4.098-.049.028-.494-.869 1.438-.818.007.013.021-.012.494.87-1.41.801-.007-.013Zm-3.412.807.077-.044.494.87-1.438.817-.007-.013-.077.043-.494-.869 1.438-.817.007.013Zm-4.313 2.452.049-.028.494.87-1.464.832-.008-.013-.023.013-.494-.869 1.438-.818.008.013Zm-4.314 2.453.033-.019.495.869-1.421.808-.008-.013-.051.028-.494-.869 1.438-.817.008.013Zm-4.314 2.453.064-.037.494.87-1.442.819-.007-.013-.061.034-.494-.869 1.438-.818.008.014Zm-4.314 2.452.033-.018.494.869-1.461.831-.008-.014-.009.006-.495-.87 1.438-.817.008.013Zm-4.314 2.453.031-.018.494.869-1.426.811-.008-.013-.042.024-.494-.869 1.437-.818.008.014Zm-4.314 2.452.05-.028.494.869-1.441.82-.008-.014-.046.027-.494-.87 1.438-.817.007.013Zm-4.314 2.453.025-.014.494.869-1.456.828-.007-.014-.007.004-.494-.869 1.438-.818.007.014Zm-5.234 4.108-.031.018-.494-.87 1.438-.817.008.013.022-.012.494.869-1.43.813-.007-.014Zm-3.393.797.036-.021.494.869-1.44.819-.008-.013-.034.019-.494-.869 1.438-.818.008.014Zm-5.258 4.121-.008.005-.494-.87 1.438-.817.008.013.019-.011.494.87-1.45.824-.007-.014Zm-4.303 2.447-.019.01-.494-.869 1.438-.818.008.014.012-.007.494.869-1.432.814-.007-.013Zm-4.311 2.45-.021.013-.495-.87 1.438-.817.008.013.022-.013.494.87-1.439.818-.007-.014Zm-4.328 2.461-.007.004-.495-.869 1.438-.818.008.013.014-.007.494.869-1.445.821-.007-.013Zm-4.315 2.453-.006.004-.494-.87 1.438-.817.007.013.004-.002.494.869-1.435.816-.008-.013Zm-4.312 2.452-.008.004-.494-.869 1.438-.818.007.013.009-.005.494.87-1.439.817-.007-.012Zm-4.319 2.455-.003.002-.494-.87 1.438-.817.007.013.006-.003.494.869-1.44.819-.008-.013Zm-2.88 1.637h.001l-.494-.87-1.438.818.007.013-.002.001.494.869 1.439-.818-.007-.013Zm-4.317 2.455.004-.003-.494-.869-1.438.817.007.013-.005.003.494.869 1.439-.818-.007-.012Zm-4.315 2.453.005-.003-.494-.87-1.438.818.007.012-.004.003.494.869 1.437-.817-.007-.012Zm-4.31 2.45.002-.001-.495-.869-1.438.817.007.013-.007.004.494.869 1.444-.821-.007-.012Zm-4.329 2.461.017-.009-.495-.87-1.438.818.007.012-.018.011.494.869 1.44-.819-.007-.012Zm-4.316 2.454.019-.011-.494-.869-1.438.817.006.012-.015.009.494.869 1.435-.815-.007-.012Zm-4.298 2.443.003-.001-.494-.87-1.438.818.006.012-.009.005.495.869 1.444-.821-.007-.012Zm-4.338 2.467.027-.016-.494-.869-1.438.817.006.012-.031.018.494.869 1.443-.82-.007-.011Zm-4.319 2.455.032-.018-.494-.87-1.438.818.006.011-.027.016.494.869 1.434-.815-.007-.011Zm-4.29 2.439.008-.005-.494-.869-1.438.817.006.012-.008.005.494.869 1.439-.818-.007-.011Zm-4.342 2.469.036-.021-.494-.87-1.438.818.006.011-.044.025.495.869 1.445-.821-.006-.011Zm-4.323 2.457.045-.026-.494-.869-1.438.818.006.01-.039.023.494.869 1.432-.814-.006-.011Zm-4.28 2.434.012-.007-.495-.869-1.438.817.006.01-.01.007.494.869 1.437-.817-.006-.01Zm-4.35 2.473.048-.028-.495-.869-1.437.818.005.01-.057.032.494.87 1.447-.823-.005-.01Zm-4.324 2.458.058-.033-.494-.869-1.438.817.005.01-.048.028.494.869 1.428-.812-.005-.01Zm-4.265 2.425.009-.006-.494-.869-1.438.818.005.009-.022.013.495.869 1.45-.825-.005-.009Zm-4.37 2.484.065-.037-.494-.869-1.438.817.005.009-.073.042.494.87 1.447-.823-.006-.009Zm-4.315 2.453.066-.038-.494-.869-1.438.818.005.009-.049.028.494.869 1.421-.808-.005-.009Zm-4.261 2.423.013-.008-.494-.869-1.438.817.005.009-.048.027.494.87 1.473-.838-.005-.008Zm-4.387 2.493.086-.049-.494-.869-1.438.818.005.008-.088.05.494.87 1.44-.819-.005-.009Zm-4.285 2.437.058-.033-.495-.869-1.438.817.005.008-.025.014.494.87 1.405-.799-.004-.008Zm-4.319 2.455.063-.036-.495-.869-1.437.818.004.007-.09.051.494.87 1.465-.833-.004-.008Zm-4.35 2.473.099-.056-.494-.869-1.438.817.004.008-.081.046.494.869 1.42-.807-.004-.008Zm-4.218 2.398.003-.002-.494-.869-1.438.818.004.007-.06.034.494.869 1.495-.85-.004-.007Zm-4.426 2.517.115-.066-.494-.869-1.438.817.004.007-.113.064.494.869 1.436-.816-.004-.006Zm-4.244 2.412.045-.025-.494-.87-1.438.818.004.006-.023.013.494.869 1.415-.804-.003-.007Zm-4.39 2.496.121-.069-.494-.869-1.438.817.003.006-.129.074.494.869 1.446-.822-.003-.006Zm-4.253 2.418.06-.034-.494-.87-1.438.818.003.005-.02.012.494.869 1.398-.795-.003-.005Zm-4.393 2.498.14-.08-.495-.869-1.438.817.003.005-.139.079.495.869 1.437-.817-.003-.004Zm-4.186 2.379.012-.006-.495-.87-1.437.818.002.004-.1.057.494.869 1.526-.867-.002-.005Zm-4.448 2.529.146-.083-.494-.869-1.438.817.002.004-.073.041.494.869 1.366-.775-.003-.004Zm-4.333 2.463.165-.093-.494-.87-1.438.818.001.003-.15.085.494.869 1.424-.809-.002-.003Zm-4.315 2.454.166-.095-.494-.869-1.438.817.001.002-.147.084.494.869 1.419-.806-.001-.002Zm-4.23 2.404.082-.046-.494-.87-.719.409-.001.001-.032.018-.003.002h-.001l-.002.002-.006.003-.004.002-.009.006-.007.004c-.002.001-.011.007-.022.015-.007.005-.028.022-.041.033-.036.035-.168.361-.082.654.209.175.524.207.568.195.016-.005.039-.014.047-.018.012-.005.021-.009.023-.011l.008-.004.006-.003.008-.005.007-.003.003-.002.088-.05.584-.331-.001-.001Z" fill="#1B127D"/><path fill-rule="evenodd" clip-rule="evenodd" d="m211.678 259.437.324.183.398.225.492-.871-.399-.225-.324-.183-.237-.134-.021-.012-.007-.003-.003-.002-.004-.002-.004-.003-.003-.002-.003-.001-.004-.002-.011-.006c-.012-.006-.523.047-.72.508.068.198.221.357.23.362l.01.007.003.002.005.002.001.001.003.001.001.001.002.001.003.001.003.002.006.004.022.012.237.134Zm4.465 1.373-.361-.204-.492.871 1.543.871.001-.001.263.149.492-.871-1.445-.816-.001.001Zm4.697 2.652-.314-.177-.492.871 1.519.857.001-.001.24.135.492-.871-1.446-.815v.001Zm4.696 2.652-.349-.197-.492.871 1.518.856.001-.002.277.157.492-.871-1.446-.816-.001.002Zm4.697 2.652-.32-.181-.491.871 1.426.805.001-.002.339.191.492-.871-1.446-.816-.001.003Zm4.697 2.652-.213-.121-.492.871 1.412.797.002-.003.246.139.492-.87-1.446-.816-.001.003Zm4.696 2.651-.319-.18-.491.871 1.464.827.002-.004.3.17.492-.871-1.446-.816-.002.003Zm4.697 2.652-.204-.115-.492.87 1.391.786.002-.004.259.146.492-.871-1.446-.816-.002.004Zm4.697 2.652-.297-.168-.492.871 1.465.827.002-.004.278.156.491-.87-1.445-.816-.002.004Zm4.697 2.652-.187-.106-.492.871 1.398.789.003-.005.234.133.491-.871-1.445-.816-.002.005Zm4.696 2.651-.277-.156-.492.87 1.453.821.003-.005.27.152.491-.871-1.445-.816-.003.005Zm4.697 2.652-.193-.109-.491.871 1.45.819.003-.006.188.106.491-.87-1.445-.816-.003.005Zm4.697 2.652-.249-.141-.492.871 1.439.812.003-.006.256.145.491-.871-1.445-.816-.003.006Zm4.697 2.651-.226-.127-.491.871 1.478.834.003-.006.193.109.491-.871-1.445-.815-.003.005Zm4.697 2.652-.203-.115-.492.871 1.426.805.003-.006.223.125.491-.87-1.445-.816-.003.006Zm4.696 2.652-.231-.131-.491.871 1.456.822.004-.006.22.124.491-.871-1.445-.816-.004.007Zm4.697 2.651-.162-.091-.491.871 1.44.813.003-.007.168.094.491-.871-1.445-.815-.004.006Zm4.697 2.652-.205-.116-.492.871 1.44.813.004-.007.21.118.492-.87-1.445-.816-.004.007Zm4.697 2.652-.197-.111-.491.87 1.462.826.004-.007.179.101.492-.871-1.445-.816-.004.008Zm4.696 2.651-.154-.087-.492.871 1.429.806.004-.007.171.096.492-.871-1.445-.815-.005.007Zm4.697 2.652-.187-.106-.492.871 1.447.817.004-.009.186.105.492-.87-1.445-.816-.005.008Zm4.697 2.651-.165-.093-.492.871 1.462.825.005-.008.148.084.492-.871-1.445-.816-.005.008Zm4.697 2.652-.15-.085-.492.871 1.437.811.005-.008.158.089.492-.871-1.446-.815-.004.008Zm4.696 2.652-.163-.093-.492.871 1.449.818.005-.009.16.09.492-.87-1.446-.816-.005.009Zm4.697 2.651-.14-.079-.492.871 1.459.823.005-.009.127.072.492-.871-1.446-.816-.005.009Zm4.697 2.652-.135-.077-.492.871 1.442.814.005-.009.139.078.491-.871-1.445-.815-.005.009Zm4.697 2.651-.139-.078-.492.871 1.449.817.005-.009.136.076.491-.87-1.445-.816-.005.009Zm4.697 2.652-.121-.068-.492.87 1.454.821.006-.009.112.063.491-.871-1.445-.816-.005.01Zm4.696 2.651-.116-.066-.492.871 1.445.816.005-.01.118.066.491-.871-1.445-.815-.006.009Zm4.697 2.652-.114-.065-.492.871 1.447.817.006-.01.113.063.491-.87-1.445-.816-.006.01Zm4.697 2.652-.105-.06-.492.871 1.449.818.006-.011.102.058.491-.871-1.445-.816-.006.011Zm4.697 2.651-.097-.054-.491.87 1.447.817.006-.01.095.053.491-.871-1.445-.815-.006.01Zm4.697 2.652-.091-.052-.492.871 1.446.816.006-.01.09.05.492-.87-1.445-.816-.006.011Zm4.697 2.651-.092-.051-.491.87 1.447.817.006-.01.089.05.492-.871-1.445-.816-.006.011Zm4.696 2.652-.074-.043-.492.871 1.449.818.006-.011.071.04.492-.871-1.445-.815-.007.011Zm4.697 2.651-.067-.038-.492.871 1.444.815.006-.012.069.039.492-.87-1.445-.816-.007.011Zm4.697 2.652-.08-.046-.492.871 1.452.82.007-.012.073.042.492-.871-1.445-.816-.007.012Zm4.697 2.651-.052-.029-.491.871 1.45.818.007-.011.046.026.492-.871-1.446-.815-.006.011Zm4.697 2.651-.046-.025-.492.87 1.441.813.006-.011.051.029.492-.871-1.446-.816-.006.011Zm4.697 2.652-.071-.04-.492.871 1.464.826.007-.012.052.03.492-.871-1.446-.816-.006.012Zm4.697 2.651-.026-.014-.492.871 1.45.818.007-.012.021.012.492-.871-1.446-.815-.006.011Zm4.697 2.652-.028-.016-.492.871 1.434.81.007-.012.039.022.491-.871-1.445-.816-.006.012Zm4.696 2.651-.044-.025-.491.871 1.466.828.007-.012.023.013.491-.871-1.445-.816-.007.012Zm4.214 3.511-.001-.001.491-.87 1.445.815-.006.012.002.001-.492.871-1.446-.816.007-.012Zm6.099 3.443.042.024.491-.871-1.445-.816-.007.012-.02-.012-.492.871 1.425.804.006-.012Zm3.778 1 .007-.012 1.445.816-.007.012.014.008-.491.871-1.464-.827.492-.87.004.002Zm4.236 3.524-.024-.014.492-.87 1.445.815-.007.012.015.008-.492.871-1.435-.81.006-.012Zm5.158 1.779-.04-.023-.491.871 1.472.831.006-.012.014.008.491-.871-1.445-.816-.007.012Zm4.254 3.534-.042-.024.492-.871 1.445.816-.007.012.048.027-.491.871-1.452-.82.007-.011Zm6.089 3.437.011.006.492-.871-1.445-.815-.492.87.02.012-.007.011 1.414.798.007-.011Zm3.297 1.861-.034-.019.492-.871 1.445.816-.007.011.059.034-.491.87-1.471-.83.007-.011Zm4.725 2.667-.062-.035.492-.871 1.445.816-.006.011.037.022-.491.87-1.422-.802.007-.011Zm4.648 2.624-.013-.008.492-.87 1.445.815-.006.011.059.034-.492.871-1.491-.842.006-.011Zm4.773 2.694-.089-.05.492-.871 1.445.816-.006.011.069.038-.492.871-1.425-.804.006-.011Zm4.617 2.606-.009-.005.491-.871 1.446.816-.006.011.071.04-.492.87-1.507-.85.006-.011Zm4.796 2.707-.108-.061.491-.87 1.446.815-.006.01.078.044-.492.871-1.415-.798.006-.011Zm4.647 2.624-.058-.033.491-.871 1.446.816-.006.009.116.065-.492.871-1.503-.848.006-.009Zm4.733 2.671-.094-.053.491-.871 1.446.816-.005.009.015.009-.491.871-1.367-.772.005-.009Zm4.752 2.683-.149-.085.491-.87 1.445.815-.004.008.134.076-.491.871-1.431-.807.005-.008Zm4.659 2.63-.111-.063.491-.871 1.445.816-.003.007.169.095-.491.871-1.504-.848.004-.007Zm4.698 2.652-.112-.064.491-.871 1.445.816-.003.005.182.103-.491.871-1.515-.855.003-.005Zm4.696 2.651-.001.002c.295.166.496.279.6.338l.061.033.019.011.01.005.008.004.026.013c.004.002.013.005.023.009h.001c.006.003.034.014.071.022.024.004.093.011.138.01.097-.016.341-.165.439-.329.03-.154-.015-.376-.048-.438-.02-.029-.055-.071-.068-.085-.024-.023-.044-.039-.049-.043-.008-.006-.015-.011-.019-.014-.007-.005-.013-.009-.016-.011-.009-.005-.017-.01-.018-.01l-.017-.011-.055-.031-.002-.001-.723-.408-.491.87.111.064Zm.659.372c.004.002.006.003.007.004l-.002-.001-.005-.003Zm.007.004ZM284.275 218.084l-.002.004c-.329-.188-.528-.302-.586-.336-.007-.004-.016-.009-.023-.013l-.011-.007c-.002-.002-.007-.005-.013-.009-.002-.001-.02-.013-.04-.03-.006-.005-.021-.019-.029-.027-.012-.012-.043-.048-.061-.072-.03-.049-.084-.225-.083-.353.064-.185.302-.392.42-.425.056-.005.14-.001.169.003.017.004.044.011.055.014.021.006.036.013.042.015.013.006.023.011.026.012l.011.005c.014.007.036.02.052.028l.002.002c.044.024.124.069.239.134l.002.001.721.41-.494.87-.397-.226Zm4.136 1.21-.358-.204-.495.869 1.541.877.005-.008.262.149.494-.87-1.444-.82-.005.007Zm4.692 2.669-.311-.177-.495.869 1.517.863.006-.01.239.136.494-.869-1.444-.821-.006.009Zm4.693 2.669-.348-.198-.494.87 1.516.862.007-.011.275.156.494-.869-1.444-.821-.006.011Zm4.692 2.668-.317-.18-.495.869 1.425.81.007-.012.337.191.494-.869-1.444-.821-.007.012Zm4.693 2.668-.212-.12-.494.869 1.411.803.008-.014.244.139.494-.869-1.444-.821-.007.013Zm4.693 2.668-.318-.18-.494.869 1.463.832.008-.014.298.169.494-.869-1.444-.821-.007.014Zm4.692 2.668-.202-.115-.495.869 1.39.79.008-.015.257.147.494-.87-1.444-.821-.008.015Zm4.693 2.667-.295-.167-.494.869 1.463.832.009-.015.276.157.494-.87-1.444-.82-.009.014Zm4.693 2.668-.185-.105-.494.869 1.397.794.008-.015.233.132.494-.87-1.444-.82-.009.015Zm4.693 2.668-.276-.157-.494.869 1.452.825.009-.015.268.152.494-.869-1.444-.821-.009.016Zm4.693 2.667-.191-.109-.495.87 1.45.823.009-.016.186.106.494-.869-1.444-.821-.009.016Zm4.693 2.667-.247-.14-.495.869 1.438.817.009-.016.254.144.494-.869-1.444-.821-.009.016Zm4.693 2.668-.224-.127-.494.869 1.477.839.009-.016.191.108.494-.869-1.444-.821-.009.017Zm4.693 2.667-.201-.114-.494.869 1.424.81.01-.017.22.125.495-.869-1.445-.821-.009.017Zm4.693 2.667-.229-.13-.494.869 1.455.827.009-.016.219.124.494-.87-1.444-.82-.01.016Zm4.693 2.668-.16-.092-.494.87 1.439.818.009-.017.166.094.494-.87-1.444-.82-.01.017Zm4.693 2.667-.203-.116-.494.869 1.438.818.01-.017.209.119.494-.87-1.444-.82-.01.017Zm4.693 2.667-.195-.111-.494.87 1.462.83.009-.017.178.101.494-.869-1.444-.821-.01.017Zm4.694 2.667-.154-.087-.494.869 1.428.812.01-.017.169.096.494-.869-1.444-.821-.009.017Zm4.693 2.667-.186-.105-.494.869 1.445.821.01-.017.184.105.494-.869-1.444-.821-.009.017Zm4.693 2.667-.164-.093-.494.87 1.461.83.01-.017.147.083.494-.869-1.444-.821-.01.017Zm4.693 2.668-.148-.085-.495.87 1.436.815.01-.017.157.09.494-.87-1.444-.821-.01.018Zm4.693 2.667-.162-.093-.494.87 1.447.822.01-.017.159.091.494-.87-1.444-.82-.01.017Zm4.693 2.667-.139-.079-.494.869 1.458.828.01-.017.125.072.494-.87-1.444-.82-.01.017Zm4.694 2.667-.135-.077-.494.87 1.441.818.009-.016.138.078.494-.869-1.444-.821-.009.017Zm4.693 2.667-.138-.079-.494.87 1.447.822.01-.016.134.076.494-.869-1.444-.821-.009.017Zm4.693 2.667-.12-.068-.494.869 1.453.826.01-.017.11.063.495-.869-1.444-.821-.01.017Zm4.693 2.667-.116-.066-.494.869 1.444.821.009-.017.117.066.494-.869-1.444-.821-.01.017Zm4.694 2.667-.114-.065-.494.87 1.446.822.01-.017.111.063.494-.869-1.444-.821-.009.017Zm4.693 2.667-.104-.059-.494.869 1.447.823.009-.017.101.058.494-.87-1.444-.82-.009.016Zm4.693 2.667-.096-.055-.494.87 1.447.822.009-.016.093.053.494-.87-1.444-.82-.009.016Zm4.693 2.667-.09-.051-.494.869 1.445.821.009-.016.089.051.494-.87-1.444-.82-.009.016Zm4.694 2.667-.091-.052-.494.87 1.446.821.009-.015.088.05.495-.869-1.445-.821-.008.016Zm4.693 2.666-.074-.042-.494.87 1.448.823.009-.016.07.04.494-.869-1.444-.821-.009.015Zm4.693 2.667-.067-.038-.494.87 1.443.82.008-.016.069.039.494-.869-1.444-.821-.009.015Zm4.693 2.667-.079-.045-.494.87 1.451.824.008-.015.073.041.494-.869-1.444-.821-.009.015Zm4.694 2.667-.051-.029-.494.87 1.449.823.009-.014.045.026.494-.87-1.444-.821-.008.015Zm4.693 2.667-.045-.026-.494.87 1.439.818.008-.015.05.029.494-.87-1.444-.82-.008.014Zm4.693 2.667-.07-.04-.494.869 1.463.832.008-.014.051.029.494-.87-1.444-.82-.008.014Zm4.694 2.667-.025-.015-.495.87 1.449.823.008-.014.021.012.494-.869-1.444-.821-.008.014Zm4.693 2.666-.027-.015-.494.869 1.433.815.008-.014.038.022.494-.869-1.444-.821-.008.013Zm4.693 2.667-.043-.024-.494.869 1.465.832.007-.013.023.013.494-.869-1.444-.821-.008.013Zm4.209 3.525-.002-.001.494-.87 1.444.821-.007.013.003.001-.494.87-1.445-.821.007-.013Zm6.095 3.463.04.023.494-.869-1.444-.821-.007.013-.02-.011-.494.869 1.423.809.008-.013Zm3.776 1.013.007-.012 1.444.82-.006.012.014.008-.494.87-1.463-.831.495-.87.003.003Zm4.231 3.538-.025-.014.495-.869 1.444.82-.007.012.015.008-.494.87-1.435-.815.007-.012Zm5.156 1.795-.039-.022-.494.869 1.471.836.006-.011.013.007.494-.87-1.444-.82-.007.011Zm4.248 3.549-.042-.024.494-.869 1.444.821-.006.01.048.028-.494.869-1.45-.824.006-.011Zm6.084 3.458.011.006.494-.869-1.444-.821-.494.869.02.012-.006.01 1.413.803.006-.01Zm3.294 1.872-.034-.019.494-.87 1.444.821-.005.01.059.033-.494.87-1.47-.835.006-.01Zm4.721 2.683-.062-.035.494-.87 1.444.821-.005.009.038.022-.494.869-1.42-.807.005-.009Zm4.645 2.64-.014-.008.494-.87 1.444.821-.005.009.06.034-.494.869-1.49-.847.005-.008Zm4.769 2.71-.09-.051.495-.869 1.444.82-.005.008.069.04-.494.869-1.424-.809.005-.008Zm4.613 2.621-.009-.005.494-.869 1.444.82-.005.008.072.04-.494.87-1.506-.856.004-.008Zm4.792 2.724-.108-.062.494-.869 1.444.82-.004.007.078.045-.494.869-1.414-.803.004-.007Zm4.643 2.639-.058-.034.494-.869 1.444.821-.004.006.116.066-.494.869-1.501-.853.003-.006Zm4.729 2.687-.094-.054.494-.869 1.444.821-.003.005.016.009-.494.87-1.366-.776.003-.006Zm4.748 2.698-.149-.084.494-.87 1.444.821-.002.005.134.076-.494.87-1.43-.813.003-.005Zm4.656 2.646-.112-.063.494-.87 1.444.821-.002.004.17.096-.494.87-1.502-.854.002-.004Zm4.694 2.668-.112-.064.494-.87 1.444.821-.002.003.182.103-.494.87-1.514-.86.002-.003Zm4.692 2.666-.001.001c.295.168.496.281.599.34l.012.007c.038.021.074.042.087.048l.01.005c.003.002.014.007.03.013.01.004.04.015.061.021.06.012.407-.069.594-.303.03-.241-.088-.508-.123-.544-.014-.013-.036-.031-.044-.037-.012-.009-.022-.016-.025-.018l-.009-.005-.008-.005-.009-.005-.015-.009-.054-.031-.722-.41-.494.869.111.063ZM353.985 176.606l.236.134.727.41-.492.871-.392-.221c-.333-.189-.533-.301-.591-.334l-.004-.002-.007-.004-.001-.001-.005-.003-.003-.001-.003-.002-.005-.003-.01-.006-.017-.011c-.011-.008-.071-.059-.113-.108-.043-.543.507-.792.575-.771.014.005.034.014.039.017.008.004.014.007.015.007l.008.004.002.002.009.005.006.003.026.014Zm-.005.561Zm4.234 1.831-.353-.2-.493.87 1.551.877.001-.002.256.144.491-.871-1.452-.82-.001.002Zm4.719 2.667-.306-.174-.492.871 1.526.862.001-.002.233.131.492-.87-1.452-.821-.002.003Zm4.719 2.666-.342-.193-.492.87 1.524.862.002-.003.27.152.492-.87-1.452-.821-.002.003Zm4.72 2.667-.313-.177-.492.871 1.433.81.002-.004.332.187.492-.87-1.452-.821-.002.004Zm4.719 2.667-.207-.117-.492.871 1.42.802.003-.004.238.135.492-.871-1.452-.82-.002.004Zm4.719 2.666-.312-.176-.492.87 1.471.832.002-.005.294.166.492-.871-1.452-.82-.003.004Zm4.719 2.667-.197-.112-.492.871 1.397.789.003-.005.252.143.492-.871-1.452-.82-.003.005Zm4.72 2.666-.291-.164-.492.871 1.472.831.003-.005.271.153.492-.871-1.453-.82-.002.005Zm4.719 2.667-.18-.102-.492.871 1.405.793.003-.005.227.128.492-.871-1.452-.82-.003.006Zm4.719 2.666-.271-.153-.492.871 1.46.824.003-.006.264.149.492-.871-1.453-.82-.003.006Zm4.719 2.667-.187-.106-.491.871 1.457.823.004-.006.181.102.492-.87-1.452-.821-.004.007Zm4.72 2.666-.243-.137-.492.87 1.445.817.004-.007.25.141.492-.87-1.453-.821-.003.007Zm4.719 2.666-.22-.123-.492.87 1.486.839.004-.007.186.105.492-.87-1.452-.821-.004.007Zm4.719 2.667-.196-.111-.492.871 1.432.809.004-.008.217.123.491-.871-1.452-.82-.004.007Zm4.719 2.666-.225-.127-.492.871 1.464.826.004-.007.214.121.492-.871-1.452-.82-.005.007Zm4.72 2.667-.156-.089-.492.871 1.447.818.005-.008.16.091.492-.871-1.452-.82-.004.008Zm4.719 2.666-.2-.113-.491.871 1.446.817.005-.008.205.116.492-.871-1.452-.82-.005.008Zm4.719 2.666-.191-.107-.492.87 1.47.83.004-.008.174.098.492-.871-1.452-.82-.005.008Zm4.72 2.667-.149-.084-.492.87 1.435.811.005-.008.166.093.492-.871-1.452-.82-.005.009Zm4.719 2.666-.182-.103-.492.871 1.453.821.005-.009.181.102.492-.87-1.452-.821-.005.009Zm4.719 2.667-.16-.091-.492.871 1.469.83.006-.01.143.081.492-.87-1.453-.821-.005.01Zm4.72 2.666-.145-.082-.492.871 1.444.815.005-.009.153.086.492-.87-1.452-.821-.005.01Zm4.719 2.666-.159-.089-.492.87 1.456.823.005-.01.156.088.492-.871-1.453-.821-.005.01Zm4.719 2.667-.135-.077-.492.871 1.466.828.005-.01.122.069.492-.871-1.452-.82-.006.01Zm4.72 2.666-.131-.074-.492.871 1.448.818.006-.01.135.076.491-.871-1.452-.82-.005.01Zm4.719 2.666-.135-.076-.491.871 1.455.822.006-.01.131.074.492-.871-1.452-.82-.006.01Zm4.719 2.666-.116-.065-.492.87 1.461.826.006-.011.107.061.492-.871-1.452-.82-.006.01Zm4.72 2.667-.113-.064-.492.871 1.452.82.006-.011.113.064.492-.871-1.452-.82-.006.011Zm4.719 2.666-.111-.062-.491.87 1.454.822.006-.011.108.061.492-.871-1.452-.82-.006.011Zm4.719 2.666-.101-.057-.491.871 1.455.822.006-.011.098.055.492-.87-1.452-.821-.007.011Zm4.72 2.666-.093-.052-.492.871 1.455.821.006-.011.09.051.492-.87-1.452-.821-.006.011Zm4.719 2.667-.087-.049-.492.87 1.453.821.006-.011.087.048.492-.87-1.453-.821-.006.012Zm4.719 2.666-.087-.049-.492.87 1.454.822.007-.012.085.049.492-.871-1.452-.82-.007.011Zm4.72 2.666-.071-.04-.492.871 1.456.822.007-.011.067.038.491-.871-1.452-.82-.006.011Zm4.719 2.666-.064-.036-.492.871 1.451.819.006-.011.066.037.492-.871-1.452-.82-.007.011Zm4.72 2.667-.077-.044-.492.871 1.459.824.007-.012.07.04.491-.871-1.452-.82-.006.012Zm4.719 2.666-.048-.027-.492.87 1.457.824.007-.012.043.024.492-.871-1.452-.82-.007.012Zm4.719 2.666-.042-.024-.492.871 1.447.817.007-.012.047.027.492-.871-1.452-.82-.007.012Zm4.72 2.666-.068-.038-.492.871 1.471.83.007-.012.049.028.492-.87-1.452-.821-.007.012Zm4.719 2.666-.022-.013-.492.871 1.457.823.006-.012.018.01.492-.87-1.452-.821-.007.012Zm4.72 2.666-.025-.014-.492.871 1.441.814.007-.012.036.02.492-.87-1.452-.821-.007.012Zm4.719 2.667-.041-.024-.492.871 1.473.832.007-.012.02.012.492-.871-1.452-.82-.007.012Zm4.239 3.527-.004-.003.491-.87 1.453.82-.007.012.005.003-.492.87-1.453-.82.007-.012Zm6.128 3.462.039.022.492-.871-1.452-.82-.007.012-.017-.01-.492.87 1.431.809.006-.012Zm3.792 1.009.006-.012 1.453.82-.007.012.016.009-.492.871-1.47-.831.492-.87.002.001Zm4.261 3.54-.027-.015.492-.871 1.452.82-.007.012.017.01-.492.87-1.442-.814.007-.012Zm5.178 1.792-.038-.022-.492.871 1.479.836.007-.012.011.006.491-.871-1.452-.82-.006.012Zm4.278 3.55-.044-.025.492-.871 1.452.821-.007.011.051.029-.492.87-1.459-.824.007-.011Zm6.117 3.456.011.005.491-.87-1.452-.821-.492.871.022.012-.006.012 1.42.802.006-.011Zm3.313 1.871-.035-.02.492-.871 1.452.821-.006.011.061.035-.492.87-1.478-.834.006-.012Zm4.748 2.682-.064-.036.492-.871 1.452.821-.006.011.039.022-.491.871-1.428-.807.006-.011Zm4.671 2.639-.015-.009.492-.87 1.452.82-.006.011.061.034-.492.871-1.498-.846.006-.011Zm4.795 2.709-.091-.052.492-.87 1.452.82-.006.011.071.039-.492.871-1.432-.809.006-.01Zm4.639 2.62-.01-.006.492-.87 1.452.82-.006.01.073.041-.492.871-1.515-.855.006-.011Zm4.819 2.722-.11-.061.492-.871 1.452.82-.005.01.079.044-.492.871-1.422-.803.006-.01Zm4.669 2.638-.059-.033.492-.871 1.452.82-.005.01.116.066-.491.87-1.51-.852.005-.01Zm4.755 2.686-.095-.053.492-.871 1.452.82-.005.009.016.009-.492.871-1.373-.776.005-.009Zm4.775 2.698-.15-.085.491-.871 1.453.821-.005.007.136.077-.492.87-1.438-.811.005-.008Zm4.682 2.645-.113-.064.492-.871 1.452.821-.004.006.171.097-.492.87-1.51-.852.004-.007Zm4.72 2.666-.113-.064.491-.871 1.453.821-.003.005.182.103-.491.871-1.522-.859.003-.006Zm4.717 2.665-.001.003c.296.166.498.28.603.339l.061.034.019.01.009.005.007.004c.001.001.011.005.023.011.003.001.01.004.018.008.005.002.024.01.049.017.014.004.052.012.076.016.047.004.2-.015.301-.055.159-.134.263-.471.231-.617-.026-.058-.077-.137-.097-.16-.03-.032-.057-.054-.062-.058-.01-.007-.018-.013-.022-.016-.008-.005-.014-.009-.017-.011-.008-.006-.016-.01-.017-.011l-.017-.01-.055-.031-.728-.411-.492.87.111.063Z" fill="#1B127D"/><path fill-rule="evenodd" clip-rule="evenodd" d="m434.193 214.105 2.85 1.644-5.795 3.392 5.795 3.278-2.458 1.613-6.314-3.225-5.801 3.214-2.785-1.602 5.61-3.278-4.984-2.79 2.623-1.449 5.337 2.573 5.922-3.37Zm-67.759 41.934-2.85-1.644-5.922 3.369-5.337-2.573-2.623 1.449 4.984 2.79-5.611 3.278 2.786 1.603 5.801-3.215 6.314 3.225 2.458-1.613-5.796-3.278 5.796-3.391Zm-72.215 41.104-2.85-1.643-5.922 3.369-5.337-2.573-2.623 1.449 4.984 2.79-5.611 3.278 2.786 1.602 5.801-3.214 6.314 3.225 2.458-1.613-5.795-3.278 5.795-3.392Zm214.27-41.104-2.851-1.644-5.921 3.37-5.338-2.574-2.623 1.45 4.985 2.79-5.611 3.278 2.785 1.602 5.802-3.215 6.313 3.225 2.459-1.612-5.796-3.279 5.796-3.391Zm-73.46 38.645 2.85 1.644-5.795 3.391 5.795 3.279-2.458 1.612-6.314-3.225-5.801 3.215-2.785-1.602 5.61-3.278-4.984-2.79 2.623-1.449 5.337 2.573 5.922-3.37Zm-72.215 41.105 2.85 1.644-5.795 3.391 5.795 3.279-2.458 1.612-6.313-3.225-5.802 3.215-2.785-1.602 5.61-3.278-4.984-2.79 2.623-1.45 5.338 2.574 5.921-3.37Zm216.339-39.46-2.851-1.644-5.921 3.369-5.338-2.573-2.622 1.449 4.984 2.79-5.611 3.278 2.785 1.603 5.802-3.215 6.313 3.225 2.459-1.613-5.796-3.278 5.796-3.391Zm-73.46 38.645 2.85 1.644-5.795 3.391 5.795 3.278-2.458 1.613-6.314-3.225-5.801 3.215-2.785-1.603 5.61-3.278-4.984-2.789 2.623-1.45 5.337 2.573 5.922-3.369Zm-72.215 41.105 2.851 1.644-5.796 3.391 5.796 3.278-2.459 1.613-6.313-3.225-5.802 3.215-2.785-1.603 5.611-3.278-4.985-2.79 2.623-1.449 5.338 2.573 5.921-3.369Z" fill="#1B127D"/></g><path opacity=".593913" d="m267.74 479.87-115.272 66.391c-7.623 4.304-19.999 4.304-27.622 0L7.11189 479.87c-3.76665-2.152-5.64998-5.021-5.64998-7.8 0-2.869 1.88333-5.649 5.64998-7.801L122.384 397.878c7.623-4.304 19.999-4.304 27.622 0l117.734 66.391c7.498 3.471 7.498 11.766 0 15.601Z" stroke="#1B127D"/><path opacity=".593913" d="m267.274 469.873-115.736 65.653c-7.623 4.303-20 4.303-27.623 0L6.64705 468.942c-3.76665-2.152-5.64998-5.021-5.64998-7.8 0-2.869 1.88333-5.649 5.64998-7.801L122.384 387.689c7.623-4.304 19.999-4.304 27.622 0l117.268 66.583c7.498 3.471 7.498 11.766 0 15.601Z" stroke="#1B127D"/><path d="m67.1497 502.21 141.4043-79.526c8.395-4.739-145.5521 81.896-141.4043 79.526Z" stroke="#1B127D" stroke-dasharray="1.66 3.32"/><path d="M208.164 503.14 63.1557 421.048C52.4975 415.034 213.43 506.147 208.164 503.14Z" stroke="#1B127D" stroke-dasharray="1.66 3.74"/><path d="m143.377 457.979 2.85 1.643-5.796 3.392 5.796 3.278-2.458 1.613-6.314-3.225-5.801 3.214-2.786-1.602 5.611-3.278-4.984-2.79 2.623-1.449 5.337 2.573 5.922-3.369Z" fill="#1B127D"/><path d="m267.74 479.87-115.272 66.391c-7.623 4.304-19.999 4.304-27.622 0L7.11189 479.87c-3.76665-2.152-5.64998-5.021-5.64998-7.8 0-2.869 1.88333-5.649 5.64998-7.801L122.384 397.878c7.623-4.304 19.999-4.304 27.622 0l117.734 66.391c7.498 3.471 7.498 11.766 0 15.601Z" fill="#fff" stroke="#BFC9D1"/><path d="m267.274 469.873-115.736 65.653c-7.623 4.303-20 4.303-27.623 0L6.64705 468.942c-3.76665-2.152-5.64998-5.021-5.64998-7.8 0-2.869 1.88333-5.649 5.64998-7.801L122.384 387.689c7.623-4.304 19.999-4.304 27.622 0l117.268 66.583c7.498 3.471 7.498 11.766 0 15.601Z" stroke="#BFC9D1"/><path d="m67.1497 502.21 141.4043-79.526c8.395-4.739-145.5521 81.896-141.4043 79.526Z" stroke="#BFC9D1" stroke-dasharray="1.66 3.32"/><path d="M208.164 503.14 63.1557 421.048C52.4975 415.034 213.43 506.147 208.164 503.14Z" stroke="#BFC9D1" stroke-dasharray="1.66 3.74"/><path d="m143.377 457.979 2.85 1.643-5.796 3.392 5.796 3.278-2.458 1.613-6.314-3.225-5.801 3.214-2.786-1.602 5.611-3.278-4.984-2.79 2.623-1.449 5.337 2.573 5.922-3.369Z" fill="#1B127D"/><path d="m143.377 457.979.249-.434-.248-.143-.249.142.248.435Zm2.85 1.643.252.432.743-.435-.745-.43-.25.433Zm-5.796 3.392-.252-.432-.75.439.756.428.246-.435Zm5.796 3.278.274.418.686-.449-.714-.404-.246.435Zm-2.458 1.613-.228.445.259.132.243-.159-.274-.418Zm-6.314-3.225.227-.446-.237-.121-.232.129.242.438Zm-5.801 3.214-.25.434.245.141.247-.137-.242-.438Zm-2.786-1.602-.252-.432-.745.436.748.43.249-.434Zm5.611-3.278.252.432.755-.441-.763-.427-.244.436Zm-4.984-2.79-.242-.437-.787.435.785.439.244-.437Zm2.623-1.449.217-.45-.233-.113-.226.125.242.438Zm5.337 2.573-.217.451.236.113.228-.129-.247-.435Zm5.672-2.936 2.85 1.644.5-.867-2.851-1.644-.499.867Zm2.847.779-5.795 3.391.505.863 5.795-3.391-.505-.863Zm-5.789 4.258 5.796 3.278.492-.87-5.795-3.279-.493.871Zm5.768 2.425-2.459 1.613.549.836 2.458-1.613-.548-.836Zm-1.957 1.585-6.314-3.225-.454.891 6.313 3.225.455-.891Zm-6.783-3.217-5.802 3.215.485.875 5.801-3.215-.484-.875Zm-5.31 3.219-2.786-1.602-.498.867 2.785 1.602.499-.867Zm-2.783-.737 5.611-3.278-.504-.864-5.611 3.278.504.864Zm5.603-4.146-4.984-2.79-.488.873 4.984 2.789.488-.872Zm-4.986-1.916 2.623-1.449-.484-.876-2.623 1.45.484.875Zm2.164-1.437 5.337 2.574.434-.901-5.337-2.573-.434.9Zm5.801 2.558 5.922-3.37-.495-.869-5.921 3.37.494.869Z" fill="#BFC9D1"/><path d="M179.702 452.023c0 1.653-1.104 3.302-3.314 4.558l-32.12 18.208c-4.418 2.505-11.645 2.505-16.06 0l-32.1232-18.208c-2.2074-1.241-3.3143-2.905-3.3143-4.558 0-1.652 1.1068-3.302 3.3143-4.554l32.1232-18.215c4.415-2.505 11.642-2.505 16.06 0l32.12 18.215c2.204 1.252 3.314 2.905 3.314 4.554Z" fill="#fff" stroke="#1B127D" stroke-miterlimit="10"/><path d="M179.702 452.022v12.631c0 1.65-1.107 3.299-3.314 4.552l-16.06 9.109-16.06 9.109c-2.208 1.24-5.122 1.878-8.033 1.878-2.911 0-5.82-.62-8.027-1.878l-16.063-9.109-16.0602-9.106c-2.2074-1.24-3.3143-2.902-3.3143-4.551v-12.635c0 1.653 1.1068 3.302 3.3143 4.558l32.1232 18.209c4.415 2.505 11.642 2.505 16.06 0l32.12-18.215c2.204-1.25 3.314-2.899 3.314-4.552Z" fill="#fff" stroke="#1B127D" stroke-miterlimit="10"/><path d="M155.385 476.98c.54-1.874-.266-3.752-1.8-4.194-1.534-.441-3.216.72-3.755 2.595-.54 1.875.266 3.752 1.8 4.194 1.535.442 3.216-.72 3.755-2.595Z" fill="#1B127D"/><path d="M147.371 481.342c.54-1.75-.183-3.527-1.616-3.97-1.433-.442-3.032.618-3.572 2.368-.541 1.75.183 3.527 1.615 3.969 1.433.443 3.033-.617 3.573-2.367Z" fill="#ED26B7"/><path d="m457.31 309.253 86.274-49.29 83.249 46.386-83.249 50.742-86.274-47.838Z" fill="#F2F4F6" style="mix-blend-mode:multiply"/><path d="m457.31 257.282 86.274-49.303 83.249 46.385-83.249 50.756-86.274-47.838Z" fill="#fff" stroke="#1B127D" stroke-miterlimit="10"/><path d="M626.833 254.378v19.208l-83.87 51.424-85.228-47.952-.425-19.756 86.274 47.838 83.249-50.762Z" fill="#fff" stroke="#1B127D" stroke-miterlimit="10"/><path d="M543.579 305.119v19.458l83.249-50.992v-19.208l-83.249 50.742Z" fill="#fff" stroke="#1B127D" stroke-miterlimit="10"/><path d="m457.31 257.282 86.274-49.303 83.249 46.385-83.249 50.756-86.274-47.838Z" fill="#fff" stroke="#1B127D" stroke-miterlimit="10"/><path d="M626.833 223.384v19.208l-83.87 51.424-85.228-47.953-.425-19.755 86.274 47.845 83.249-50.769Z" fill="#fff" stroke="#1B127D" stroke-linejoin="round"/><path d="m457.31 226.307 86.274-49.303 83.249 46.386-83.249 50.742-86.274-47.825Z" fill="#fff" stroke="#1B127D" stroke-linejoin="round"/><path d="m457.31 194.99 86.274-49.303 83.249 46.385-83.249 50.756-86.274-47.838Z" fill="#fff" stroke="#1B127D" stroke-miterlimit="10"/><path d="M626.833 192.086v19.201l-83.87 51.425-85.228-47.953-.425-19.749 86.274 47.838 83.249-50.762Z" fill="#fff" stroke="#1B127D" stroke-miterlimit="10"/><path d="M543.579 274.133v19.458l83.249-50.999v-19.208l-83.249 50.749Z" fill="#fff" stroke="#1B127D" stroke-linejoin="round"/><path d="M543.579 242.828v19.458l83.249-50.999v-19.201l-83.249 50.742Z" fill="#fff" stroke="#1B127D" stroke-miterlimit="10"/><path d="M557.481 246.994c.505-1.889-.34-3.754-1.886-4.167-1.546-.413-3.208.783-3.712 2.672-.505 1.888.34 3.754 1.886 4.166 1.546.413 3.208-.783 3.712-2.671Z" fill="#ED26B7"/><path d="M556.522 278.551c.54-1.875-.266-3.753-1.801-4.194-1.534-.442-3.215.72-3.755 2.594-.539 1.875.267 3.753 1.801 4.194 1.534.442 3.215-.72 3.755-2.594Z" fill="#1B127D"/><path d="M555.816 309.68c.541-1.75-.183-3.528-1.616-3.97-1.432-.442-3.032.618-3.572 2.368-.541 1.749.183 3.527 1.616 3.969 1.432.443 3.032-.617 3.572-2.367Z" fill="#ED26B7"/><path d="M65.2729 321.739c.0811-3.014 5.6904-7.481 8.2805-6.209l127.8876 72.775c1.098.726 1.807 1.953 1.887 3.267l-.018 79.422c-.023.653-.199 1.292-.512 1.865-.314.573-.757 1.066-1.295 1.437l-.666.385c-.594.343-1.262.538-1.947.569-.685.03-1.367-.105-1.989-.395L67.0033 400.627c-1.1047-.736-1.8186-1.972-1.9039-3.297l.1735-75.591Z" fill="#BFC9D1"/><path d="M65.1953 321.877c.0811-3.014 3.7847-4.912 6.3747-3.64l125.884 72.342c1.098.726 1.807 1.954 1.887 3.268l-.018 79.422c-.107 3.017-3.657 5.143-6.409 3.861L67.1209 404.735c-1.1047-.736-1.8186-1.973-1.904-3.298l-.0216-79.56Z" fill="#fff" stroke="#1B127D"/><path d="M83.4867 399.729c-.1398-.242-.2446-.423-.2795-.484-.035-.06.3632-.21.4843-.279l99.1415 57.202c.05-.001.099.012.143.036.043.025.079.061.104.104.025.043.038.092.038.142-.001.05-.015.099-.04.142-.111.106-.246.184-.394.227l-.256-.094-98.9413-56.996ZM81.4635 387.681c.0465-.04.1061-.06.167-.058.061.002.1189.027.1625.069l4.0848 2.321c.1827.073.3355.205.4338.375.0982.17.1362.369.1077.563l.0163.797c-.0118.13-.0715.251-.1676.339 0 0-.212.123-.3598.006l-4.0545-2.338c-.1565-.086-.2865-.213-.3758-.368-.0893-.155-.1345-.331-.1308-.51l.0011-.767s.0117-.329.1153-.429ZM86.2998 382.222s-.1816.105-.3342-.09l-4.1022-2.351c-.1527-.108-.2803-.248-.3738-.409-.0935-.162-.1507-.343-.1677-.529l.0058-.689c.0116-.329.1886-.512.5449-.315l4.0847 2.321c.1857.099.3399.247.445.429.105.182.1566.39.1489.6l-.036.707c-.0035.068-.0253.135-.0632.192-.0379.057-.0904.103-.1522.134ZM85.8635 370.414c.1698.089.3108.224.4066.39.0959.166.1426.356.1348.547l.0164.798c-.0219.138-.092.264-.198.356l-.1513.087c-.1514.088 0 0-.0874-.151l-4.0847-2.321c-.1647-.095-.3014-.232-.3965-.396-.095-.165-.145-.352-.145-.542l.0011-.767c-.0873-.151-.1223-.212.0722-.364.0206-.03.0476-.055.079-.073.0314-.018.0664-.029.1026-.032.0319.018.0583.045.0767.077.0184.032.0281.068.0281.104l4.1454 2.287ZM81.1708 348.797c-.0105-.437.1711-.542.5449-.314l4.0801 2.243c.165.112.3025.26.4023.433s.1593.366.1741.565l-.0057.689c.001.074-.0147.147-.0459.214-.0313.067-.0773.126-.1346.173 0 0-.2119.122-.4297-.115l-4.0021-2.248c-.1527-.108-.2803-.248-.3738-.41-.0934-.161-.1506-.342-.1676-.528l-.042-.702ZM81.8215 340.478c-.1647-.095-.3014-.232-.3964-.396-.0951-.165-.1451-.352-.1451-.542l-.0245-.672c-.0873-.151-.1222-.211.1025-.381.0617-.038.1327-.057.2047-.056.0721.002.1423.023.2028.062l4.1022 2.352c.1582.102.2898.24.384.403.0941.163.1481.346.1575.534l-.0058.689c.0105.438-.1711.543-.5449.315l-4.037-2.308ZM175.211 456.048c.155.097.284.231.376.389.091.158.142.336.149.519l.003.845c-.003.071-.022.14-.057.202-.034.062-.082.115-.141.154 0 0-.182.105-.334-.089l-4.055-2.338c-.169-.09-.31-.225-.406-.391-.096-.166-.143-.356-.135-.547l-.012-.72c.022-.138.092-.264.198-.356 0 0 .182-.105.334.089l4.08 2.243ZM158.915 446.902c.024-.051.063-.093.112-.121.048-.028.104-.041.16-.037l3.977 2.344c.182.072.335.204.433.374.099.171.137.369.108.564l.016.797c-.021.138-.092.264-.197.356 0 0-.182.105-.438.011l-3.994-2.374c-.17-.089-.311-.224-.407-.39-.096-.166-.142-.356-.135-.547l.001-.768c.105-.095.229-.166.364-.209ZM147.347 442.04c-.165-.095-.301-.232-.396-.396-.096-.165-.146-.352-.145-.542l.005-.689c-.087-.151-.122-.212.072-.364.195-.153.212-.123.43.115l4.007 2.326c.165.095.301.231.396.396.095.165.145.351.145.541l-.001.768c.088.151-.077.286-.072.364.005.078-.242.14-.46-.098l-3.981-2.421ZM139.98 436.411l-.005.69s-.095.256-.09.334c.005.078-.242.14-.442-.068l-3.977-2.343c-.178-.088-.326-.227-.425-.4-.099-.172-.146-.369-.134-.568l-.024-.671c.022-.139.092-.265.198-.357 0 0 .181-.105.429.115l4.002 2.248c.265.279.429.638.468 1.02ZM123.056 426.254s.242-.14.412.085l4.002 2.247c.173.096.316.236.414.407.099.17.149.365.145.561l-.006.69c-.011.129-.071.25-.167.338 0 0-.182.105-.335-.089l-4.006-2.326c-.168-.1-.307-.242-.405-.411-.098-.17-.151-.361-.154-.557l.001-.767s-.005-.078.099-.178ZM111.073 419.338s.243-.14.443.067l3.972 2.265c.155.097.283.231.375.389.091.158.142.336.149.519l-.006.689c.007.067-.004.134-.034.194-.03.06-.076.11-.134.145-.016.039-.046.07-.084.088-.038.019-.081.023-.122.012-.04-.011-.076-.036-.099-.071-.024-.035-.034-.077-.029-.119l-4.007-2.325c-.161-.108-.296-.251-.393-.419-.097-.168-.154-.356-.166-.549l-.016-.798s.061-.035.151-.087ZM99.1402 412.513c.0225-.026.05-.046.0807-.06.0308-.014.0641-.022.0979-.022.0338-.001.0674.006.0986.019.0311.013.0593.032.0826.057l3.976 2.343c.155.097.284.23.375.388.092.158.143.337.149.519l-.001.767c-.011.13-.071.251-.167.339-.064.046-.139.072-.218.074-.078.002-.155-.02-.22-.063l-3.9766-2.343c-.1517-.092-.2778-.22-.3664-.374-.0886-.153-.1368-.326-.1401-.504l.0011-.767s.0897-.334.2282-.373ZM87.0492 406.666l-.0163-.797c.0198-.128.0783-.246.1676-.339.0206-.03.0476-.055.079-.073.0315-.018.0665-.029.1027-.032l4.0241 2.356c.1528.108.2803.248.3738.41.0935.162.1507.342.1678.528l-.0058.689c.0105.438-.1886.512-.5449.315l-3.9765-2.343c-.2031-.188-.3344-.44-.3715-.714Z" fill="#BFC9D1"/><path d="m93.7078 400.846.0284-31.48 3.116 1.831c1.0859.759 1.8809 1.865 2.2544 3.136.5836 1.576.8641 3.248.827 4.928l.0304 3.129c.114 1.878.646 3.707 1.557 5.353.923 1.676 2.264 3.083 3.893 4.086l.778.438c.558.411 1.219.662 1.91.725.691.063 1.386-.063 2.01-.366.566-.368 1.013-.892 1.287-1.509.274-.616.364-1.299.259-1.965l.018-3.117c-.077-.68.028-1.369.304-1.996.276-.627.713-1.17 1.267-1.573 1.06-.612 2.317-.531 3.795.35l1.49.834c.557.394 1.206.639 1.884.714.678.074 1.364-.026 1.994-.29.563-.389 1.009-.924 1.289-1.548.281-.624.384-1.313.3-1.992v-3.146c-.056-.661.078-1.324.385-1.912.308-.588.776-1.077 1.351-1.408.574-.332 1.232-.494 1.894-.466.663.028 1.305.244 1.849.622l1.295.705c1.624.975 2.973 2.349 3.918 3.99.978 1.629 1.555 3.466 1.683 5.362l-.033 19.099c.105 1.917.645 3.785 1.58 5.462.954 1.651 2.257 3.074 3.819 4.168l2.781 1.461c.351.174.736.268 1.128.276.588-.032 1.143-.282 1.558-.7.415-.418.66-.976.687-1.564-.029-.432.095-.86.35-1.211.318-.502.808-.87 1.379-1.038.293-.083.599-.105.901-.064.302.041.591.144.851.303l2.599 1.565c.542.402 1.182.649 1.853.716.672.067 1.348-.049 1.959-.335.56-.398 1.001-.94 1.278-1.569.276-.628.378-1.32.294-2.001l-.019-18.908c-.073-.674.052-1.354.359-1.959.306-.604.782-1.106 1.369-1.445.587-.339 1.26-.5 1.937-.464.677.037 1.328.269 1.875.669l1.365.826c1.593 1.024 2.904 2.43 3.815 4.091.952 1.652 1.533 3.492 1.7 5.392l-.002 10.973c-.019 1.685.24 3.362.767 4.963.241 1.17.854 2.231 1.747 3.025l3.046 1.711-.011 31.511-83.5982-48.388Z" fill="#F2F4F6"/><path d="M93.2286 369.176s.1398.242.262.454l3.3197 1.835c.9796.783 1.7026 1.84 2.0763 3.037.5899 1.514.8779 3.129.848 4.755l.0048 3.224c.1466 1.928.7406 3.795 1.7356 5.452.928 1.753 2.308 3.226 3.997 4.268l.678.335c.598.457 1.315.733 2.066.793.75.06 1.503-.097 2.166-.454.628-.416 1.128-.997 1.447-1.679.318-.682.442-1.439.358-2.186v-3.147c-.015-1.564.453-2.641 1.378-3.135.395-.196.828-.303 1.268-.314.441-.01.878.077 1.281.254.294.743.814 1.374 1.486 1.805.181.109.385.172.596.184.211.012.422-.028.614-.116.135-.042.259-.114.363-.21.54.293 1.144.448 1.759.452.615.004 1.221-.144 1.765-.43.633-.417 1.135-1.004 1.451-1.693.316-.688.432-1.451.337-2.203l.017-3.116c-.02-1.642.448-2.719 1.374-3.213.557-.251 1.17-.352 1.778-.293.608.06 1.189.278 1.687.632l1.295.705c1.544.939 2.828 2.25 3.735 3.813 1.011 1.557 1.554 3.371 1.565 5.228l-.01 19.207c.106 1.988.684 3.923 1.684 5.644 1.015 1.676 2.371 3.119 3.98 4.237l2.672 1.482c.657.335 1.411.428 2.13.263.576-.14 1.087-.474 1.447-.946.359-.472.546-1.053.528-1.646-.016-.245.024-.49.116-.718.092-.228.234-.432.416-.598.154-.207.349-.381.573-.51.223-.13.472-.212.728-.241.301.021.592.116.847.278l.504.314c.284.761.813 1.406 1.503 1.834.181.11.386.173.597.185.211.012.421-.028.613-.117.109-.044.211-.102.303-.174.54.273 1.139.409 1.744.397.606-.012 1.199-.172 1.728-.466.614-.441 1.101-1.036 1.412-1.726.311-.689.434-1.448.358-2.2l-.019-18.908c-.073-.615.019-1.238.265-1.805.247-.568.64-1.06 1.139-1.426.431-.239.916-.361 1.407-.355.492.006.974.14 1.398.389.288.733.803 1.354 1.469 1.774.172.116.371.185.578.2.207.015.414-.024.601-.114.068-.02.13-.056.182-.105 1.181.922 2.188 2.049 2.97 3.327.94 1.549 1.471 3.31 1.543 5.12l.021 11.082c-.049 1.747.23 3.487.823 5.131.294 1.279 1.033 2.411 2.086 3.193l2.872 1.69.239.064c.055-.003.108-.019.155-.047.047-.027.088-.065.118-.111.044-.04.08-.09.103-.145.024-.056.036-.116.034-.176-.011-.09-.039-.176-.084-.254-.045-.078-.106-.146-.178-.2l-2.785-1.538c-.905-.784-1.52-1.85-1.747-3.026-.532-1.502-.791-3.087-.765-4.681l-.008-11.129c-.11-1.949-.691-3.842-1.692-5.518-.806-1.491-1.937-2.782-3.311-3.776l-.087-.152c-.02-.609-.189-1.204-.494-1.731-.305-.528-.735-.972-1.253-1.294-.181-.114-.387-.183-.601-.2-.214-.017-.429.018-.626.102-.183.124-.328.297-.418.498-.09.202-.123.425-.093.644l.122.212c-.485-.171-1-.239-1.512-.2-.513.039-1.012.184-1.465.426-.621.429-1.114 1.017-1.429 1.703-.314.686-.438 1.443-.358 2.193l-.012 18.926c.073.609-.015 1.226-.256 1.79-.241.564-.627 1.055-1.118 1.423-.408.237-.871.363-1.343.366-.472.004-.937-.115-1.349-.344 0-.614-.161-1.216-.467-1.747-.307-.531-.748-.972-1.279-1.279-.181-.117-.387-.187-.602-.204-.214-.017-.429.019-.626.106-.18.127-.322.3-.412.501-.09.201-.124.423-.099.641-.607-.33-1.32-.411-1.986-.224-.354.087-.686.246-.974.468-.289.223-.528.503-.703.822-.24.422-.368.899-.371 1.385.009.315-.068.626-.221.901-.154.276-.38.504-.653.662-.273.157-.583.238-.899.234-.315-.005-.623-.094-.891-.259l-2.803-1.569c-1.526-1.029-2.796-2.392-3.715-3.987-.934-1.579-1.466-3.364-1.547-5.198l-.007-19.237c-.095-1.955-.654-3.858-1.633-5.553-.978-1.694-2.346-3.13-3.992-4.189l-1.299-.783c-.622-.398-1.332-.634-2.068-.688-.736-.054-1.474.076-2.147.379-.634.41-1.139.99-1.458 1.674-.319.683-.439 1.443-.347 2.191v3.147c.052.593-.05 1.19-.294 1.733-.244.544-.623 1.016-1.102 1.372-.425.24-.906.365-1.394.364-.488 0-.968-.127-1.393-.368 0-.614-.161-1.216-.468-1.747-.306-.531-.748-.972-1.279-1.279-.181-.114-.388-.183-.601-.2-.214-.017-.429.018-.626.102-.183.124-.328.297-.418.498-.09.202-.123.425-.093.644-.482-.177-.997-.246-1.509-.202-.511.045-1.007.201-1.451.459-.633.398-1.141.966-1.466 1.639-.325.673-.455 1.423-.373 2.166l-.018 3.116c.073.609-.015 1.226-.256 1.791-.241.564-.627 1.054-1.118 1.423-.557.251-1.17.352-1.778.292-.608-.059-1.189-.277-1.687-.632l-.695-.365c-1.482-1.018-2.697-2.378-3.541-3.966-.967-1.543-1.516-3.312-1.591-5.132l.005-3.069c.049-1.786-.276-3.564-.9542-5.217-.4462-1.319-1.2919-2.466-2.4198-3.283l-3.116-1.831c-.1252-.115-.291-.175-.4609-.168-.1699.007-.3299.082-.445.207-.115.125-.1756.291-.1683.461.0072.17.0816.33.2068.444Z" fill="#ED26B7"/><path d="M474.357 120.313c-.602-.402-1.004-.803-1.606-1.004L270.371 1.85655C268.163.45114 265.553.0495804 262.943.651901h-.603c-3.614.401549-7.027 1.806959-9.838 4.015469-.2 0-.2.20079-.2.20079-.803.60232-1.406 1.20463-2.008 1.80695l5.822-2.61007h.803c-1.606 2.00774-2.61 4.41702-2.61 7.02706V178.336c0 5.622 3.012 10.641 7.831 13.452l211.213 119.059-6.424 3.212c6.424 2.209 10.44-.2 12.648-3.011 1.205-1.406 2.008-3.012 2.61-4.819l.402-170.055c0-6.224-3.212-12.247-8.232-15.861Z" fill="#BFC9D1"/><path d="M326.388 234.152v25.097l65.251 37.344v-24.896l-65.251-37.545Z" fill="#fff" stroke="#1B127D" stroke-miterlimit="10"/><path d="m466.928 313.859-211.816-119.46c-4.818-2.811-7.83-7.83-7.83-13.452V13.703c0-5.82242 4.819-10.64099 10.641-10.64099 1.807 0 3.614.40157 5.421 1.40544L465.724 122.121c6.023 3.413 9.637 9.838 9.838 16.865l-.402 170.055c0 3.011-2.409 5.622-5.421 5.622-1.004 0-2.007-.201-2.811-.804Z" fill="#fff" stroke="#1B127D" stroke-miterlimit="10"/><path d="m326.39 259.248-10.842 6.224 65.854 36.942 10.239-5.822-65.251-37.344ZM315.548 265.473v3.212l65.854 36.742v-3.012l-65.854-36.942Z" fill="#fff" stroke="#1B127D" stroke-miterlimit="10" stroke-linejoin="round"/><path d="m381.399 305.428 10.24-6.224v-2.61l-10.24 5.822v3.012Z" fill="#fff" stroke="#1B127D" stroke-miterlimit="10" stroke-linejoin="round"/><path d="m258.527 77.749 64.047 35.537c1.606 1.004 3.614.401 4.618-1.205.201-.401.401-1.004.401-1.606V56.2662c0-2.2085-1.204-4.0154-3.011-5.2201l-64.649-38.5485c-1.606-1.0038-3.614-.4015-4.417 1.2046-.201.4016-.402 1.0039-.402 1.6062l.402 57.2205c-.201 2.2085 1.004 4.2162 3.011 5.2201ZM258.527 185.161l64.047 35.537c1.606 1.004 3.614.402 4.618-1.205.201-.401.401-1.003.401-1.606v-90.348c0-2.208-1.204-4.015-3.011-5.22l-64.649-36.3399c-1.606-1.0039-3.614-.4016-4.417 1.2046-.201.4015-.402 1.0039-.402 1.6062l.402 90.9501c-.201 2.41 1.004 4.417 3.011 5.421Z" stroke="#1B127D" stroke-miterlimit="10"/><path d="m264.345 28.7607 16.463 10.0387M264.345 39.0024l49.992 29.313M264.345 57.0713 280.808 67.11M264.345 67.3101l49.992 29.3129M285.228 120.313l30.116 16.464" stroke="#1B127D" stroke-linecap="round" stroke-linejoin="round"/><path d="m277.197 125.734-14.255-7.83v-15.46l14.255 8.031v15.259Z" fill="#1B127D" stroke="#1B127D" stroke-linecap="round" stroke-linejoin="round"/><path d="m285.228 150.028 30.116 16.463" stroke="#1B127D" stroke-linecap="round" stroke-linejoin="round"/><path d="m277.197 155.448-14.255-7.83v-15.459l14.255 8.031v15.258Z" fill="#1B127D" stroke="#1B127D" stroke-linecap="round" stroke-linejoin="round"/><path d="m285.228 178.739 30.116 16.464" stroke="#1B127D" stroke-linecap="round" stroke-linejoin="round"/><path d="m277.197 184.162-14.255-7.83v-15.46l14.255 7.83v15.46ZM336.023 230.54l124.279 70.471c1.606.803 3.614.402 4.618-1.205.201-.401.402-1.003.402-1.606V137.18c0-2.209-1.205-4.016-3.012-5.22L337.429 58.6774c-1.606-.8031-3.413-.4015-4.417 1.2047-.201.4015-.402 1.0038-.402 1.6061l.402 164.0318c0 2.008 1.004 4.016 3.011 5.02Z" fill="#1B127D" stroke="#1B127D" stroke-linecap="round" stroke-linejoin="round"/><path d="m391.638 299.204 2.208-1.405v-24.495l-2.208-1.204v27.104Z" fill="#fff" stroke="#1B127D" stroke-miterlimit="10" stroke-linejoin="round"/><path d="M462.91 138.986c0 1.807-1.004 2.61-2.208 2.61-1.205 0-2.209-2.008-2.209-3.815s1.004-2.61 2.209-2.61c1.204 0 2.208 2.008 2.208 3.815ZM339.438 66.1062c0 1.8069-1.004 2.6101-2.209 2.6101s-2.208-2.0077-2.208-3.8147c0-1.807 1.003-2.6101 2.208-2.6101 1.205 0 2.209 2.0077 2.209 3.8147ZM462.91 294.184c0 1.807-1.004 2.61-2.208 2.61-1.205 0-2.209-2.008-2.209-3.815s1.004-2.61 2.209-2.61c1.204 0 2.208 2.209 2.208 3.815Z" fill="#fff"/><path d="M341.445 225.115c0 1.807-1.004 2.61-2.208 2.61-1.205 0-2.209-2.007-2.209-3.814s1.004-2.61 2.209-2.61c1.204 0 2.208 2.008 2.208 3.814Z" fill="#1B127D"/><path d="m434.002 299.003-110.626-65.652" stroke="#BFC9D1" stroke-miterlimit="10"/><path d="M321.164 80.3611c0 1.8069-1.004 2.6101-2.208 2.6101-1.205 0-2.209-2.0078-2.209-3.8148 0-1.8069 1.004-2.61 2.209-2.61 1.204 0 2.208 2.0077 2.208 3.8147ZM321.164 238.367c0 1.807-1.004 2.61-2.208 2.61-1.205 0-2.209-2.007-2.209-3.814s1.004-2.61 2.209-2.61c1.204 0 2.208 2.007 2.208 3.814ZM441.027 152.237c0 1.807-1.004 2.61-2.208 2.61-1.205 0-2.209-2.008-2.209-3.815s1.004-2.61 2.209-2.61c1.204 0 2.208 2.008 2.208 3.815ZM441.027 305.426c0 1.807-1.004 2.61-2.208 2.61-1.205 0-2.209-2.008-2.209-3.815s1.004-2.61 2.209-2.61c1.204 0 2.208 2.008 2.208 3.815Z" fill="#1B127D"/><path d="M307.595 76.6967c.648 96.4713.57 131.5743.57 131.5743.087 8.815 3.856 16.382 11.596 20.793l112.813 64.215c3.847 2.166 14.781 8.071 17.253 6.649 2.551-1.468 9.287-5.865 9.267-10.233l.236-136.336c-.087-8.814-9.382-20.567-17.123-24.978L325.334 62.9491c-10.689-5.1156-17.918 3.6937-17.739 13.7476Z" fill="#BFC9D1"/><path d="M311.442 65.7004c-2.552 1.4679-4.056 4.5238-4.036 8.8923 0 0 .045 6.7324.068 10.0985.649 96.4718-.501 123.1558-.501 123.1558.086 8.815 6.44 19.552 14.181 23.963l119.03 67.3c3.847 2.166 7.365 2.332 9.837.91 2.551-1.468 4.056-4.524 4.035-8.892l.434-133.255c-.087-8.815-6.441-19.551-14.182-23.962L321.279 66.6108c-3.768-2.2125-7.286-2.3783-9.837-.9104Z" fill="#fff" stroke="#1B127D"/><path d="M313.709 81.6678c.081-3.0136 3.784-4.9118 6.374-3.6401L445.968 150.37c1.098.726 1.806 1.954 1.886 3.267l-.018 79.423c-.106 3.016-3.656 5.142-6.408 3.861l-125.794-72.395c-1.104-.736-1.818-1.973-1.904-3.298l-.021-79.5602Z" fill="#F2F4F6"/><path fill-rule="evenodd" clip-rule="evenodd" d="M312.226 177.515v30.112c-.124 7.676-.399 11.826 6.195 15.757l120.208 67.928c4.551 2.802 8.604 2.801 8.604-6.652l.001-31.164c0-4.551-1.602-10.504-7.205-13.305l-117.756-68.735c-5.953-3.746-10.047 0-10.047 6.059Z" fill="#F2F4F6"/><path d="m379.854 264.969-1.17-163.9c-.102-9.6968 1.195 168.706 1.17 163.9Z" stroke="#1B127D" stroke-dasharray="2.96 4.73"/><path d="M307.028 141.913c-4.942-2.788 133.393 76.195 147.126 84.036l-147.126-84.036Z" stroke="#1B127D" stroke-dasharray="2.96 4.73"/><path opacity=".462705" d="m380.799 175.592-2.921-1.632-.036 6.756-5.884-3.35-.169 2.955 6.101 3.827.124 6.671 2.851 1.596.03-6.538 5.034 2.897-.06-3.015-5.022-3.313-.048-6.854Z" fill="#fff"/><path fill-rule="evenodd" clip-rule="evenodd" d="m301.661 185.879.313 33.766c-.124 7.675 5.128 17.097 11.721 21.028l112.753 64.883c6.208 3.659 12.022.403 12.174-6.786v-38.858c0-5.953-3.689-12.605-7.794-14.006l-116.992-66.814c-6.172-3.791-12.024-.324-12.175 6.787Z" fill="#BFC9D1" stroke="#BFC9D1"/><path fill-rule="evenodd" clip-rule="evenodd" d="M300.576 186.03v39.216c-.123 7.676-.398 11.826 6.196 15.757L423.41 307.82c6.208 3.659 12.022.403 12.174-6.786v-39.022c0-4.552-1.602-10.505-7.204-13.306l-117.757-68.735c-5.952-3.745-10.047 0-10.047 6.059Z" fill="#fff" stroke="#1B127D"/><g style="mix-blend-mode:multiply" fill-rule="evenodd" clip-rule="evenodd" fill="#1B127D"><path d="M422.734 290.828c.034 1.778-.687 2.782-1.611 2.242l-39.591-23.112c-.924-.539-1.701-2.418-1.735-4.196l-.284-14.665c-.034-1.778.687-2.782 1.611-2.243l39.591 23.112c.924.54 1.701 2.418 1.735 4.196l.284 14.666Zm-41.939-23.68c.073.563.659 1.531.968 1.711l39.402 23.04c.309.18.548-.151.534-.74l-.326-16.219c-.014-.589-.658-1.531-.967-1.711l-39.505-23.169c-.309-.18-.509.897-.495 1.486l.389 15.602ZM346.412 227.559l-12.635-6.994c-1.403-.814-2.65-.396-2.784.933-.134 1.329.895 3.066 2.299 3.88l12.635 6.994c1.403.813 2.65.395 2.784-.934.134-1.329-.895-3.066-2.299-3.879ZM356.928 255.008l-42.58-24.656c-1.411-.82-2.663-.401-2.796.937-.134 1.337.903 3.086 2.314 3.907l42.58 24.656c1.412.82 2.664.401 2.797-.937.133-1.337-.903-3.087-2.315-3.907ZM338.326 233.532l-23.94-13.656c-1.42-.816-2.685-.39-2.825.953-.141 1.342.897 3.091 2.317 3.907l23.939 13.656c1.42.816 2.685.39 2.826-.952.14-1.342-.897-3.092-2.317-3.908ZM342.594 215.751l-28.119-15.927c-1.419-.828-2.675-.408-2.807.937-.131 1.345.912 3.107 2.331 3.934l28.119 15.928c1.419.827 2.675.407 2.806-.938.132-1.345-.912-3.106-2.33-3.934ZM327.084 216.946l-12.635-6.995c-1.403-.813-2.65-.395-2.784.934-.134 1.329.895 3.066 2.299 3.879l12.635 6.994c1.403.814 2.65.396 2.784-.933.134-1.329-.895-3.066-2.299-3.879Z"/></g><path d="M287.331 98.6887c.082-3.0136 5.691-7.4805 8.281-6.2089L423.5 165.255c1.098.726 1.806 1.953 1.886 3.267l-.018 79.422c-.023.653-.198 1.292-.512 1.865-.313.574-.757 1.066-1.294 1.438l-.666.384c-.594.343-1.262.539-1.947.569-.685.03-1.368-.105-1.989-.394l-129.898-74.228c-1.105-.737-1.819-1.973-1.904-3.298l.173-75.5913Z" fill="#BFC9D1"/><path d="M287.254 98.8271c.081-3.0136 3.785-4.9118 6.375-3.6402l125.884 72.3421c1.098.726 1.806 1.954 1.886 3.268l-.018 79.422c-.106 3.017-3.656 5.143-6.408 3.861l-125.794-72.395c-1.104-.736-1.818-1.972-1.903-3.297l-.022-79.5609Z" fill="#fff" stroke="#1B127D"/><path d="M305.545 176.679c-.139-.242-.244-.423-.279-.484-.035-.06.363-.209.484-.279l99.142 57.202c.05 0 .099.012.142.037.044.024.08.06.105.103.025.043.038.093.037.142 0 .05-.014.099-.04.142-.11.107-.245.185-.393.227l-.256-.094-98.942-56.996ZM303.522 164.631c.047-.04.106-.06.167-.058.061.002.119.027.163.069l4.084 2.321c.183.073.336.205.434.375.098.17.136.369.108.563l.016.798c-.012.129-.071.25-.167.338 0 0-.212.123-.36.006l-4.055-2.338c-.156-.086-.286-.213-.376-.368-.089-.155-.134-.331-.13-.509l.001-.767s.011-.33.115-.43ZM308.358 159.171s-.181.105-.334-.089l-4.102-2.351c-.153-.108-.28-.248-.374-.41-.093-.162-.15-.342-.167-.528l.005-.689c.012-.33.189-.513.545-.315l4.085 2.321c.186.098.34.247.445.429.105.182.157.39.149.6l-.036.706c-.004.069-.026.135-.063.193-.038.057-.091.103-.153.133ZM307.922 147.364c.17.089.311.224.407.39.096.166.142.356.135.548l.016.797c-.022.138-.092.264-.198.356l-.151.088c-.152.087 0 0-.088-.152l-4.085-2.321c-.164-.095-.301-.231-.396-.396-.095-.165-.145-.351-.145-.542l.001-.767c-.087-.151-.122-.211.072-.364.021-.03.048-.055.079-.073.032-.018.067-.029.103-.032.032.019.058.045.077.077.018.032.028.068.028.105l4.145 2.286ZM303.229 125.747c-.01-.438.171-.543.545-.315l4.08 2.243c.165.113.303.261.403.434.099.173.159.366.174.565l-.006.689c.001.074-.015.147-.046.214s-.077.126-.134.172c0 0-.212.123-.43-.115l-4.002-2.247c-.153-.108-.28-.248-.374-.41-.093-.162-.151-.342-.168-.528l-.042-.702ZM303.88 117.428c-.165-.095-.301-.232-.396-.397-.095-.164-.145-.351-.145-.541l-.025-.672c-.087-.151-.122-.212.103-.382.061-.037.132-.056.204-.055.072.001.143.023.203.062l4.102 2.351c.159.102.29.241.384.404.094.163.148.346.158.534l-.006.689c.011.438-.171.543-.545.315l-4.037-2.308ZM397.27 232.999c.155.097.284.23.375.388.091.158.143.337.149.519l.004.845c-.003.071-.023.14-.057.202-.035.062-.083.115-.141.155 0 0-.182.105-.334-.09l-4.055-2.338c-.17-.089-.311-.225-.407-.391-.095-.166-.142-.356-.134-.547l-.012-.72c.022-.138.092-.264.198-.356 0 0 .181-.105.334.09l4.08 2.243ZM380.973 223.852c.025-.051.064-.093.112-.121.049-.028.105-.041.161-.036l3.976 2.343c.183.072.336.204.434.375.098.17.136.368.108.563l.016.797c-.022.138-.092.265-.198.356 0 0-.181.105-.438.011l-3.994-2.373c-.169-.089-.31-.225-.406-.391-.096-.166-.143-.356-.135-.547l.001-.767c.105-.096.228-.167.363-.21ZM369.406 218.99c-.165-.095-.302-.231-.397-.396-.095-.165-.145-.351-.145-.542l.006-.689c-.087-.151-.122-.211.072-.364.195-.153.212-.122.43.115l4.006 2.326c.165.095.302.231.397.396.095.165.145.351.145.542l-.001.767c.087.151-.077.286-.072.364.004.078-.242.14-.46-.097l-3.981-2.422ZM362.039 213.362l-.006.689s-.094.256-.089.334c.004.078-.243.14-.443-.067l-3.976-2.343c-.178-.089-.326-.228-.426-.4-.099-.173-.145-.37-.133-.569l-.025-.671c.022-.139.092-.265.198-.357 0 0 .182-.104.43.115l4.002 2.248c.264.28.429.638.468 1.021ZM345.114 203.204s.243-.14.413.085l4.002 2.248c.172.095.315.235.414.406.098.17.148.365.145.562l-.006.689c-.012.13-.072.25-.168.339 0 0-.181.104-.334-.09l-4.007-2.326c-.167-.1-.307-.242-.404-.411-.098-.17-.151-.361-.155-.557l.001-.767s-.004-.078.099-.178ZM333.132 196.288s.242-.14.442.067l3.972 2.265c.155.097.284.231.375.389.092.158.143.336.149.519l-.006.689c.008.067-.004.134-.034.194-.029.06-.076.111-.133.145-.017.039-.047.07-.084.089-.038.018-.082.022-.122.011-.041-.011-.076-.036-.1-.071-.023-.035-.033-.077-.028-.118l-4.007-2.326c-.162-.107-.296-.251-.393-.419-.097-.168-.154-.356-.166-.549l-.016-.798s.06-.035.151-.087ZM321.199 189.463c.022-.025.05-.046.081-.06.03-.014.064-.022.097-.022.034-.001.068.006.099.019s.059.032.083.057l3.976 2.343c.155.097.284.23.375.388.091.159.143.337.149.52l-.001.767c-.012.129-.072.25-.168.338-.063.047-.139.072-.217.074-.078.002-.155-.02-.221-.063l-3.976-2.343c-.152-.091-.278-.22-.366-.373-.089-.154-.137-.327-.141-.504l.002-.767s.089-.335.228-.374ZM309.108 183.616l-.017-.797c.02-.127.079-.246.168-.339.021-.03.048-.055.079-.073.032-.018.067-.029.103-.032l4.024 2.356c.153.108.28.248.374.41.093.162.15.342.167.528l-.005.689c.01.438-.189.513-.545.315l-3.977-2.343c-.203-.188-.334-.44-.371-.714Z" fill="#BFC9D1"/><path d="m315.766 177.797.029-31.481 3.116 1.831c1.086.759 1.881 1.865 2.254 3.136.584 1.576.864 3.248.827 4.928l.031 3.129c.114 1.878.646 3.707 1.557 5.353.922 1.676 2.264 3.083 3.892 4.086l.778.439c.559.411 1.219.661 1.91.724.691.064 1.386-.063 2.011-.366.565-.368 1.012-.892 1.287-1.509.274-.616.364-1.299.259-1.965l.017-3.116c-.076-.681.029-1.37.305-1.997.276-.627.713-1.17 1.267-1.573 1.059-.612 2.317-.531 3.795.35l1.49.834c.557.394 1.205.64 1.884.714.678.074 1.364-.026 1.993-.29.564-.389 1.01-.924 1.29-1.548s.384-1.313.3-1.992l-.001-3.146c-.055-.661.078-1.324.386-1.912.307-.588.776-1.076 1.35-1.408.575-.332 1.232-.493 1.895-.466.663.028 1.304.244 1.849.622l1.295.705c1.624.975 2.972 2.349 3.918 3.99.978 1.629 1.555 3.467 1.683 5.362l-.033 19.099c.105 1.917.645 3.785 1.579 5.462.955 1.651 2.258 3.074 3.82 4.169l2.78 1.46c.351.174.737.269 1.129.276.588-.032 1.143-.281 1.558-.7.415-.418.659-.975.686-1.564-.028-.432.096-.86.351-1.211.318-.501.808-.87 1.378-1.037.293-.084.6-.106.902-.065.301.041.591.145.851.303l2.599 1.566c.542.401 1.182.648 1.853.715.671.067 1.348-.049 1.959-.335.559-.398 1.001-.94 1.277-1.569.277-.628.379-1.319.295-2.001l-.019-18.908c-.073-.673.051-1.354.358-1.958.307-.605.783-1.107 1.37-1.446.587-.339 1.26-.5 1.937-.463.677.036 1.328.269 1.875.669l1.365.825c1.593 1.024 2.904 2.43 3.814 4.091.953 1.652 1.533 3.492 1.701 5.392l-.002 10.973c-.019 1.685.24 3.362.766 4.963.242 1.17.854 2.231 1.747 3.025l3.046 1.711-.011 31.511-83.598-48.387Z" fill="#F2F4F6"/><path d="M315.287 146.127s.14.242.262.453l3.32 1.835c.979.783 1.703 1.841 2.076 3.037.59 1.515.878 3.13.848 4.755l.005 3.224c.147 1.928.741 3.795 1.735 5.453.929 1.753 2.309 3.226 3.998 4.267l.677.335c.598.457 1.316.733 2.066.793.751.06 1.503-.097 2.167-.454.627-.416 1.128-.997 1.446-1.679.319-.682.443-1.438.359-2.186l-.001-3.146c-.015-1.565.453-2.642 1.379-3.136.394-.196.827-.303 1.268-.313.44-.011.877.076 1.281.253.293.743.813 1.374 1.485 1.805.181.109.386.172.597.184.211.012.421-.028.613-.116.136-.042.26-.114.364-.21.54.293 1.144.448 1.759.452.615.004 1.221-.143 1.765-.43.632-.417 1.135-1.004 1.451-1.692.316-.689.432-1.452.336-2.203l.017-3.116c-.019-1.643.449-2.72 1.374-3.214.557-.251 1.17-.352 1.778-.293.608.06 1.19.278 1.687.632l1.295.705c1.544.939 2.829 2.25 3.736 3.813 1.011 1.557 1.554 3.371 1.565 5.228l-.011 19.208c.107 1.988.684 3.922 1.685 5.643 1.014 1.676 2.37 3.119 3.98 4.237l2.672 1.483c.657.334 1.411.427 2.13.263.576-.141 1.087-.475 1.446-.947.36-.472.546-1.053.528-1.646-.015-.245.025-.49.117-.718.092-.228.234-.432.415-.597.154-.208.349-.382.573-.511.224-.129.472-.211.729-.241.301.021.592.116.847.278l.504.314c.284.761.812 1.406 1.503 1.835.181.109.385.172.596.184.211.012.422-.028.614-.116.108-.044.21-.103.302-.175.541.273 1.14.409 1.745.397.605-.011 1.198-.171 1.728-.466.614-.441 1.101-1.036 1.412-1.725.31-.69.434-1.449.357-2.201l-.018-18.908c-.073-.615.018-1.237.265-1.805.247-.568.64-1.06 1.139-1.426.43-.238.915-.361 1.407-.355.492.006.974.141 1.398.389.288.733.802 1.354 1.468 1.775.172.116.371.185.578.2.207.015.415-.025.602-.115.068-.02.13-.056.181-.105 1.182.922 2.188 2.049 2.971 3.328.94 1.548 1.471 3.309 1.543 5.119l.02 11.082c-.049 1.747.231 3.488.824 5.131.293 1.279 1.033 2.411 2.085 3.193l2.873 1.69.239.064c.054-.003.107-.019.155-.046.047-.028.087-.066.117-.111.045-.041.08-.091.104-.146.024-.056.035-.116.034-.176-.011-.089-.04-.176-.085-.254-.045-.078-.105-.146-.177-.2l-2.786-1.538c-.905-.784-1.52-1.85-1.746-3.025-.532-1.503-.792-3.088-.766-4.682l-.007-11.129c-.11-1.949-.691-3.842-1.693-5.518-.805-1.491-1.937-2.782-3.31-3.776l-.087-.151c-.02-.61-.19-1.204-.494-1.732-.305-.528-.735-.972-1.253-1.294-.182-.114-.388-.183-.602-.2-.213-.017-.428.018-.625.102-.183.124-.328.297-.418.499-.091.201-.123.424-.093.643l.122.212c-.485-.171-1-.239-1.512-.2-.513.039-1.012.184-1.466.426-.62.429-1.114 1.018-1.428 1.703-.315.686-.439 1.443-.359 2.193l-.011 18.926c.073.609-.015 1.227-.257 1.791-.241.564-.626 1.054-1.117 1.423-.409.236-.872.362-1.343.366-.472.003-.937-.115-1.349-.345 0-.613-.161-1.216-.468-1.747-.307-.531-.748-.972-1.279-1.279-.18-.117-.387-.187-.601-.204-.214-.017-.429.019-.626.106-.18.127-.323.3-.413.501-.09.201-.124.423-.098.641-.608-.33-1.32-.411-1.987-.224-.353.087-.685.246-.974.469-.289.222-.528.502-.702.822-.241.422-.369.898-.372 1.384.009.315-.067.626-.221.902-.154.275-.379.503-.652.661-.273.158-.584.239-.899.234-.315-.004-.623-.094-.892-.259l-2.802-1.569c-1.526-1.029-2.797-2.392-3.715-3.987-.935-1.579-1.466-3.364-1.548-5.197l-.007-19.238c-.094-1.955-.654-3.858-1.632-5.552-.978-1.695-2.347-3.131-3.992-4.19l-1.3-.783c-.621-.397-1.332-.634-2.068-.688-.736-.054-1.474.076-2.147.379-.633.41-1.138.99-1.457 1.674-.319.683-.44 1.443-.347 2.191v3.147c.051.593-.05 1.19-.294 1.734-.245.543-.624 1.015-1.102 1.371-.426.24-.906.365-1.394.365-.489-.001-.969-.128-1.393-.369 0-.613-.162-1.216-.468-1.747-.307-.531-.748-.972-1.279-1.279-.182-.114-.388-.182-.602-.199-.213-.018-.428.017-.625.101-.183.124-.328.297-.419.499-.09.201-.122.424-.093.643-.481-.177-.996-.246-1.508-.201-.511.044-1.007.201-1.451.458-.633.398-1.141.966-1.466 1.639-.326.673-.455 1.423-.374 2.166l-.017 3.116c.073.609-.015 1.227-.256 1.791-.242.564-.627 1.055-1.118 1.423-.557.251-1.17.352-1.778.292-.608-.059-1.19-.277-1.687-.631l-.695-.365c-1.483-1.018-2.697-2.379-3.541-3.967-.968-1.543-1.516-3.312-1.591-5.132l.004-3.068c.05-1.787-.275-3.564-.954-5.218-.446-1.319-1.291-2.466-2.419-3.282l-3.116-1.832c-.126-.115-.291-.175-.461-.168-.17.007-.33.082-.445.207-.115.125-.176.291-.169.461.008.17.082.33.207.445Z" fill="#ED26B7"/><path d="m502.915 388.188.253 8.724c0 1.179-.758 2.122-1.768 2.83l-71.231 39.847c-4.547 2.594-10.104 2.358-14.65-.472l-136.905-80.166c-1.01-.707-1.768-1.65-2.021-2.829v-.236l-.252-8.488 4.041 2.358.253.943 71.736-37.961c4.294-2.122 9.346-1.886 13.387.471l134.379 78.752v-1.886l2.778-1.887Z" fill="#BFC9D1"/><path d="m278.59 344.778.007-.003 74.003-39.137c4.139-2.043 9.011-1.815 12.908.458l135.133 79.221v.001c1.239.736 1.91 1.995 1.966 3.217.055 1.216-.494 2.374-1.685 2.98l-.009.005-.009.005-70.978 39.847-.003.002c-4.377 2.497-9.737 2.277-14.139-.462l-.011-.007-136.905-80.166-.034-.02-.037-.014c-2.588-1.007-2.641-4.688-.207-5.927Z" fill="#fff" stroke="#1B127D"/><path d="M299.837 333.014c2.021 2.593 8.335 2.593 11.114 1.179l26.017-14.147c2.778-1.651 1.768-4.244-.505-6.366l-36.626 19.334Z" fill="#fff" stroke="#1B127D" stroke-miterlimit="10"/><path d="M459.417 405.841c.345-2.716-2.746-5.29-6.902-5.749-4.156-.459-7.804 1.371-8.149 4.086-.344 2.716 2.746 5.29 6.903 5.749 4.156.459 7.804-1.371 8.148-4.086Z" stroke="#1B127D" stroke-miterlimit="10.0003"/><path d="m473.365 410.35-21.723 12.261c-.505.236-.505.707-.252 1.179.252.472.757.472 1.263.472l21.722-12.261c.506-.236.506-.708.253-1.179-.253-.472-.758-.707-1.263-.472Z" fill="#1B127D"/><path d="M300.707 356.23c-1.776-1.093-2.434-5.877-.741-6.929l72.797-39.54c.83-.38 1.819-.363 2.635.047l47.211 27.48c.383.24.702.563.932.943.231.379-.113 3.763-.084 4.202l-.009.517c-.008.462-.131.915-.359 1.32-.229.406-.555.752-.952 1.01l-70.731 38.62c-.838.381-4.666-.912-5.49-1.323l-45.209-26.347Z" fill="#BFC9D1"/><path d="M300.762 352.891c-1.775-1.093-1.58-3.887.113-4.939l70.963-38.575c.829-.381 1.819-.363 2.635.047l47.56 27.588c1.768 1.109 1.765 3.893.007 5.035l-70.961 38.504c-.839.381-1.836.364-2.66-.047l-47.657-27.613Z" fill="#fff" stroke="#1B127D"/><path d="M345.139 374.528c-.195-.003-.341-.006-.39-.006-.049-.001.005-.283.007-.377l69.914-37.29c.018-.029.043-.053.073-.069.031-.017.065-.025.1-.025.035.001.069.01.099.028.029.018.054.043.07.072.024.101.022.206-.006.306l-.148.115-69.719 37.246ZM338.898 370.647c-.007-.041.002-.082.025-.117.024-.034.059-.059.1-.069l2.86-1.549c.109-.08.243-.122.38-.12.137.003.27.05.376.134l.483.267c.074.052.125.128.143.214 0 0-.003.165-.126.21l-2.858 1.525c-.108.061-.231.091-.356.089-.125-.002-.246-.037-.352-.101l-.459-.267s-.193-.122-.216-.216ZM337.373 365.963s-.002.141-.174.161l-2.883 1.549c-.12.05-.249.075-.38.073-.13-.002-.259-.032-.377-.087l-.41-.243c-.193-.121-.239-.286.007-.423l2.859-1.549c.126-.073.271-.11.417-.107.147.002.29.045.413.122l.41.266c.04.026.072.062.093.103.021.042.029.088.025.135ZM330.14 362.115c.114-.067.246-.101.38-.099.134.002.264.041.376.112l.483.268c.075.06.126.145.143.238l-.002.117c-.003.118 0 0-.122-.002l-2.86 1.549c-.116.062-.247.093-.38.091-.132-.003-.262-.039-.376-.105l-.459-.267c-.122-.002-.171-.003-.192-.168-.011-.022-.016-.046-.016-.071.001-.024.007-.048.018-.07.023-.012.048-.018.074-.017.025 0 .051.007.073.02l2.86-1.596ZM315.505 357.312c-.266-.145-.263-.287.008-.423l2.811-1.573c.126-.056.264-.084.404-.082.139.003.276.036.401.096l.411.243c.044.025.082.059.111.101.029.041.048.088.055.137 0 0-.003.165-.223.208l-2.786 1.527c-.119.05-.249.075-.379.073-.131-.003-.26-.032-.377-.087l-.436-.22ZM310.761 354.051c-.116.062-.247.093-.38.091-.133-.003-.263-.039-.377-.105l-.411-.219c-.122-.002-.17-.003-.191-.191-.001-.049.014-.096.04-.138.027-.041.065-.074.11-.095l2.884-1.548c.118-.056.248-.084.379-.082.132.003.261.035.377.095l.411.243c.266.146.263.287-.008.423l-2.834 1.526ZM410 343.77c.114-.056.24-.084.367-.081.128.002.253.034.365.094l.507.291c.042.027.076.062.101.103.024.041.039.088.042.135 0 0-.003.141-.174.162l-2.859 1.525c-.114.067-.246.101-.38.099-.134-.003-.264-.041-.376-.112l-.435-.244c-.075-.06-.126-.144-.143-.237 0 0 .003-.141.174-.162L410 343.77ZM398.667 349.989c-.021-.031-.033-.068-.032-.106.001-.038.013-.074.036-.105l2.833-1.479c.109-.08.243-.122.381-.12.137.003.269.05.376.134l.483.267c.075.061.125.145.142.238 0 0-.002.141-.151.256l-2.858 1.478c-.114.067-.246.101-.38.099-.134-.002-.264-.041-.376-.112l-.459-.267c-.02-.094-.018-.19.005-.283ZM391.594 354.969c-.116.062-.247.093-.38.091-.132-.002-.262-.038-.376-.104l-.411-.243c-.122-.002-.17-.003-.192-.168-.021-.165.003-.165.223-.208l2.834-1.502c.116-.062.248-.093.38-.091.133.002.263.038.377.104l.459.267c.122.003.144.144.192.169.048.024-.003.188-.224.231l-2.882 1.454ZM385.575 357.261l.411.243s.119.143.168.167c.048.025-.004.188-.2.232l-2.833 1.479c-.117.071-.254.108-.393.106-.139-.003-.274-.044-.388-.12l-.411-.219c-.075-.061-.125-.145-.142-.238 0 0 .002-.141.223-.208l2.786-1.527c.262-.055.536-.025.779.085ZM373.406 363.491s.004-.188.199-.208l2.786-1.527c.119-.066.254-.1.392-.098.138.003.272.041.388.112l.411.242c.074.052.125.129.143.215 0 0-.003.141-.174.161l-2.834 1.503c-.12.061-.255.092-.392.09-.137-.003-.27-.038-.389-.104l-.459-.267s-.048-.025-.071-.119ZM364.95 367.997s.003-.188.199-.231l2.785-1.503c.114-.056.24-.084.368-.082.128.003.253.035.364.095l.411.242c.043.019.079.049.104.087.025.038.039.082.039.127.017.023.025.052.022.08-.002.028-.015.054-.036.074-.021.02-.049.031-.079.033-.029.001-.058-.008-.081-.025l-2.834 1.502c-.122.056-.256.084-.392.082-.135-.003-.268-.035-.389-.096l-.483-.267s.001-.047.002-.118ZM356.568 372.507c-.007-.022-.009-.045-.007-.067.003-.023.011-.045.022-.065.012-.019.028-.036.047-.05.019-.013.041-.023.064-.028l2.833-1.478c.114-.056.24-.084.368-.082.128.003.253.035.364.095l.459.267c.074.052.125.128.143.214.005.052-.007.105-.034.151-.027.046-.068.082-.117.105l-2.833 1.479c-.11.056-.232.084-.356.081-.124-.002-.245-.034-.352-.094l-.459-.267s-.168-.167-.142-.261ZM348.72 377.447l-.484-.267c-.069-.056-.119-.131-.142-.215-.011-.022-.016-.046-.016-.07.001-.025.007-.049.018-.071l2.858-1.502c.12-.05.25-.075.38-.073.131.002.259.032.377.087l.411.243c.265.145.239.286-.008.423l-2.833 1.479c-.186.052-.384.04-.561-.034Z" fill="#BFC9D1"/><path d="m351.273 367.603-18.843-10.947 2.217-1.161c.845-.362 1.793-.437 2.689-.211 1.154.211 2.256.63 3.249 1.235l1.885 1.069c1.165.586 2.452.915 3.766.961 1.335.05 2.66-.235 3.847-.825l.542-.297c.447-.179.835-.473 1.121-.849.286-.376.461-.821.504-1.286-.017-.454-.17-.894-.441-1.266s-.647-.661-1.084-.832l-1.86-1.092c-.435-.192-.81-.492-1.086-.868-.276-.377-.444-.818-.487-1.277.015-.823.516-1.52 1.575-2.066l1.035-.57c.437-.184.817-.472 1.105-.838.289-.365.476-.795.544-1.25-.03-.459-.191-.902-.464-1.281-.273-.378-.648-.677-1.085-.864l-1.884-1.092c-.416-.198-.765-.505-1.007-.886-.241-.382-.365-.821-.357-1.268.008-.446.147-.881.402-1.254.255-.372.615-.667 1.038-.849l.888-.502c1.168-.598 2.475-.898 3.799-.873 1.327.001 2.635.307 3.816.891l11.427 6.651c1.186.605 2.498.942 3.839.986 1.332.023 2.653-.235 3.87-.755l1.875-1.095c.23-.142.425-.332.571-.555.192-.35.242-.757.141-1.141-.101-.385-.347-.719-.69-.939-.269-.134-.481-.354-.599-.623-.186-.357-.231-.768-.126-1.155.056-.197.153-.382.286-.542.133-.159.299-.29.488-.385l1.872-.955c.435-.173.813-.456 1.095-.82.281-.363.455-.794.504-1.245-.038-.461-.204-.904-.48-1.281-.277-.378-.655-.677-1.093-.865l-11.331-6.554c-.43-.192-.792-.5-1.044-.887-.252-.386-.381-.835-.373-1.291.008-.457.154-.9.419-1.278.265-.377.639-.672 1.075-.848l.985-.5c1.186-.563 2.5-.831 3.822-.779 1.332.024 2.643.329 3.841.892l6.571 3.811c1.002.596 2.1 1.029 3.248 1.281.788.267 1.643.283 2.44.044l2.12-1.162 18.868 10.947-59.045 31.391Z" fill="#F2F4F6"/><path d="M332.136 356.883s.195.004.366.007l2.293-1.277c.821-.293 1.714-.342 2.565-.142 1.119.185 2.19.58 3.153 1.162l1.932 1.116c1.208.585 2.539.891 3.89.893 1.384.074 2.762-.21 3.993-.822l.445-.275c.489-.186.912-.503 1.218-.915.306-.412.482-.9.507-1.407-.023-.506-.191-.996-.485-1.417-.294-.42-.703-.754-1.181-.965l-1.884-1.093c-.943-.534-1.419-1.178-1.382-1.883.024-.296.116-.582.268-.84.152-.257.361-.479.612-.65.551.089 1.116.008 1.616-.23.13-.066.242-.162.325-.28.082-.117.134-.252.15-.394.024-.092.026-.189.005-.282.37-.21.681-.504.904-.857.223-.353.353-.754.377-1.167-.022-.51-.193-1.003-.492-1.424-.298-.421-.714-.753-1.198-.959l-1.86-1.092c-.991-.559-1.468-1.202-1.431-1.908.05-.408.21-.796.465-1.126.254-.33.594-.59.985-.753l.887-.502c1.118-.564 2.365-.849 3.628-.83 1.296-.042 2.578.275 3.694.913L368 344.16c1.229.629 2.595.967 3.986.988 1.368-.003 2.721-.283 3.969-.823l1.849-1.025c.436-.263.763-.665.923-1.137.124-.381.107-.791-.046-1.163-.154-.371-.435-.68-.796-.875-.152-.076-.285-.185-.388-.317-.104-.132-.175-.285-.209-.447-.069-.161-.103-.333-.1-.507.003-.174.044-.346.118-.504.121-.166.283-.301.471-.392l.369-.181c.559.1 1.135.02 1.64-.23.13-.066.242-.162.325-.28.083-.117.135-.252.151-.394.013-.077.014-.157.004-.235.358-.216.655-.514.866-.867.21-.353.328-.751.342-1.158-.044-.507-.225-.995-.526-1.413-.301-.419-.711-.753-1.189-.971l-11.331-6.554c-.394-.171-.735-.44-.986-.78-.251-.339-.404-.737-.444-1.151.012-.331.113-.653.294-.935.18-.281.434-.512.735-.671.543.089 1.1.008 1.591-.23.131-.059.244-.15.328-.264.083-.114.134-.247.147-.386.013-.046.013-.095.003-.141.977-.361 2.014-.55 3.061-.557 1.265-.005 2.511.301 3.621.888l6.644 3.836c1.029.635 2.172 1.078 3.37 1.307.871.274 1.815.241 2.662-.094l2.045-1.069.124-.116c.018-.032.028-.068.028-.105.001-.037-.007-.073-.024-.106-.008-.04-.025-.078-.05-.111s-.056-.06-.093-.08c-.057-.025-.12-.038-.182-.04-.063-.001-.126.011-.184.033l-1.923 1.072c-.795.249-1.655.234-2.44-.044-1.091-.215-2.134-.616-3.079-1.184l-6.668-3.86c-1.207-.613-2.55-.936-3.913-.94-1.183-.054-2.363.15-3.453.597l-.122-.002c-.372-.2-.789-.309-1.215-.317-.425-.007-.846.086-1.225.273-.133.065-.249.16-.336.278-.087.117-.143.253-.164.396.008.148.06.292.148.414.089.122.21.218.352.277l.171.003c-.277.22-.503.493-.664.802-.161.309-.253.647-.271.993.033.507.208.995.506 1.415.297.419.706.753 1.184.968l11.331 6.578c.391.169.729.434.98.769s.406.728.45 1.139c-.005.317-.096.628-.264.901-.167.273-.405.5-.691.658-.367-.213-.786-.329-1.214-.337-.429-.008-.852.094-1.226.293-.135.064-.251.158-.339.276-.087.117-.143.254-.161.398.011.148.063.29.151.412.088.121.209.218.349.279-.417.235-.721.618-.849 1.067-.075.234-.099.481-.07.724.03.244.111.479.24.691.166.285.406.524.695.694.192.105.351.257.461.441.11.184.165.394.162.606-.004.212-.067.419-.184.599-.116.18-.28.327-.475.424l-1.948 1.071c-1.165.523-2.438.781-3.724.757-1.282-.009-2.542-.323-3.669-.912l-11.524-6.676c-1.205-.624-2.546-.963-3.913-.987-1.366-.024-2.719.266-3.945.847l-.936.477c-.461.22-.859.548-1.156.953-.297.406-.484.876-.545 1.369.018.508.184 1.001.478 1.422.295.421.707.754 1.188.961l1.885 1.092c.374.177.695.442.932.772.238.33.384.712.425 1.111-.009.329-.107.649-.283.931-.176.281-.425.514-.722.675-.367-.213-.786-.33-1.214-.337-.428-.008-.851.093-1.226.293-.133.065-.249.16-.336.277-.087.118-.143.254-.164.396.009.149.06.292.148.415.089.122.21.218.352.277-.279.216-.506.489-.663.799-.157.311-.242.651-.248.996.011.503.169.993.455 1.414.286.421.689.757 1.163.968l1.86 1.092c.391.169.729.434.98.769s.406.728.45 1.138c-.05.409-.21.797-.464 1.127-.254.33-.594.59-.985.753l-.469.274c-1.142.501-2.394.729-3.648.664-1.273.022-2.529-.276-3.646-.865l-1.836-1.068c-1.053-.648-2.234-1.078-3.468-1.261-.951-.201-1.942-.112-2.836.255l-2.218 1.16c-.114.032-.21.107-.266.207-.057.101-.07.219-.037.329.034.11.112.202.216.257.104.055.227.067.341.035Z" fill="#ED26B7"/><path d="M447.206 396.894c-14.39 7.603-36.183 6.962-48.597-1.421-2.289-1.314-4.237-3.148-5.688-5.354-1.45-2.206-2.362-4.722-2.662-7.345v-22.921c.191 2.102.811 4.143 1.821 5.997 1.01 1.854 2.389 3.481 4.052 4.781.797.697 1.633 1.348 2.505 1.949 12.469 8.355 34.207 9.024 48.597 1.448 2.175-1.119 4.204-2.504 6.04-4.121 3.134-2.54 5.192-6.171 5.761-10.166v20.832c.39 5.96-3.646 12.032-11.829 16.321Z" fill="#fff" stroke="#1B127D"/><path d="M424.556 379.682c19.015 0 34.43-8.828 34.43-19.718s-15.415-19.718-34.43-19.718-34.43 8.828-34.43 19.718 15.415 19.718 34.43 19.718Z" fill="#fff" stroke="#1B127D"/><path d="m437.31 363.501 15.671 7.13v22.559s-9.046 9.023-27.249 9.023c-.279-5.932-.891-22.531-.891-22.531l-4.008-12.143c2.877.467 5.818.35 8.649-.344 2.83-.694 5.493-1.95 7.828-3.694Z" fill="#ED27B7" style="mix-blend-mode:multiply"/><path d="M424.554 367.93c8.762 0 15.865-3.566 15.865-7.965S433.316 352 424.554 352s-15.866 3.566-15.866 7.965 7.104 7.965 15.866 7.965Z" fill="#1B127D"/><path fill-rule="evenodd" clip-rule="evenodd" d="m265.033 225.364 2.196-.267c.416-.051.82-.084 1.213-.1l.085.706c-.333.013-.682.041-1.044.085l-2.197.268-.253-.692Zm5.835-.228-.345.678c.319.054.614.125.883.211l.002.001c.447.142.831.326 1.144.545l.945-.449c-.413-.29-.918-.531-1.499-.716-.35-.111-.728-.202-1.13-.27Zm3.898 3.081-1.224.018c.013.296-.037.616-.162.959l-.464 1.267 1.199.146.463-1.267c.143-.393.203-.769.188-1.123Zm-1.579 4.926-1.198-.146-.928 2.536 1.199.146.927-2.536Zm-1.855 5.072-1.198-.146-.928 2.536 1.199.146.927-2.536Zm-1.855 5.072-1.198-.146-.927 2.535 1.198.147.927-2.536Zm-1.854 5.071-1.199-.146-.927 2.536 1.198.146.928-2.536Zm-1.855 5.072-1.199-.146-.927 2.536 1.198.146.928-2.536Zm-1.855 5.072-1.199-.146-.927 2.535 1.198.147.928-2.536Zm-1.855 5.071-1.198-.146-.928 2.536 1.198.146.928-2.536Zm-1.855 5.072-1.198-.146-.928 2.536 1.199.146.927-2.536Zm-1.855 5.072-1.198-.146-.928 2.536 1.199.146.927-2.536Zm-1.855 5.071-1.198-.146-.464 1.268c-.153.42-.395.825-.712 1.213l1.108.301c.355-.433.629-.891.803-1.368l.463-1.268Zm-4.268 4.932-.816-.527c-1.177.608-2.523 1.065-3.861 1.327l.394.67c1.505-.296 2.992-.803 4.283-1.47Zm-9.206 1.579.387-.67c-.61-.118-1.162-.309-1.637-.583l-1.443-.833-.866.5 1.443.833c.615.355 1.333.603 2.116.753Zm-6.447-3.253.866-.5-2.887-1.667-.866.5 2.887 1.667Zm-5.775-3.334.866-.5-2.887-1.668-.866.5 2.887 1.668Zm-5.775-3.335.866-.5-2.31-1.333-2.505 1.446.866.5 1.639-.946 1.444.833Zm-6.361 2.006-.866-.5-3.278 1.892.866.5 3.278-1.892Zm-6.556 3.785-.866-.5-3.278 1.893.866.5 3.278-1.893Zm-6.556 3.785-.866-.5-3.278 1.893.866.5 3.278-1.893Zm-6.556 3.785-.866-.5-3.279 1.893.866.5 3.279-1.893Zm-6.557 3.786-.866-.5-3.278 1.892.866.5 3.278-1.892Zm-6.556 3.785-.866-.5-3.278 1.893.866.5 3.278-1.893Zm-6.556 3.785-.866-.5-3.278 1.893.866.5 3.278-1.893Zm-6.556 3.785-.866-.5-3.278 1.893.866.5 3.278-1.893Zm-6.556 3.786-.866-.5-3.279 1.892.866.5 3.279-1.892Zm-6.557 3.785-.866-.5-3.278 1.892.866.5 3.278-1.892Zm-6.556 3.785-.866-.5-1.639.946c-.738.427-1.536.78-2.354 1.059l.622.609c.908-.309 1.788-.7 2.598-1.168l1.639-.946Zm-10.554 2.904.226-.695c-.896-.097-1.66-.319-2.252-.661l-1.546-.893-.866.5 1.546.893c.786.453 1.782.736 2.892.856Zm-7.532-3.535.866-.5-3.093-1.786-.866.5 3.093 1.786Zm-6.186-3.572.866-.5-3.094-1.786-.866.5 3.094 1.786Zm-6.187-3.572.866-.5-3.093-1.785-.866.5 3.093 1.785Zm-6.187-3.571.866-.5-1.546-.893c-.592-.342-.977-.783-1.146-1.301l-1.203.131c.208.641.697 1.216 1.483 1.67l1.546.893Zm-1.66-6.21 1.055.359c.482-.472 1.094-.933 1.833-1.359l1.639-.946-.866-.5-1.639.946c-.811.468-1.487.975-2.022 1.5Zm6.939-4.339.866.5 3.278-1.893-.866-.5-3.278 1.893Zm6.556-3.785.866.5 3.278-1.893-.866-.5-3.278 1.893Zm6.556-3.785.866.5 3.279-1.893-.867-.5-3.278 1.893Zm6.557-3.786.866.5 3.278-1.892-.866-.5-3.278 1.892Zm6.556-3.785.866.5 3.278-1.893-.866-.5-3.278 1.893Zm6.556-3.785.866.5 3.278-1.893-.866-.5-3.278 1.893Zm6.556-3.785.866.5 3.278-1.893-.866-.5-3.278 1.893Zm6.556-3.786.866.5 3.279-1.892-.866-.5-3.279 1.892Zm6.557-3.785.866.5 3.278-1.892-.866-.5-3.278 1.892Zm6.556-3.785.866.5 3.278-1.893-.866-.5-3.278 1.893Zm6.556-3.785.866.5 2.505-1.447-2.31-1.333-.866.5 1.444.833-1.639.947Zm-2.692-3.447.866-.5-2.888-1.667-.866.5 2.888 1.667Zm-5.775-3.335.866-.5-2.888-1.667-.866.5 2.888 1.667Zm-5.775-3.334.866-.5-1.444-.833c-.475-.274-.805-.593-1.008-.945l-1.162.223c.261.453.689.867 1.304 1.222l1.444.833Zm-2.558-4.897 1.159.227c.455-.772 1.247-1.549 2.3-2.228l-.913-.472c-1.155.745-2.034 1.604-2.546 2.473Zm6.521-4.206.523.639c.671-.182 1.374-.322 2.1-.41l2.196-.268-.253-.692-2.196.268c-.825.1-1.618.258-2.37.463Zm8.958-1.267.253.692 4.393-.535-.253-.692-4.393.535Zm8.785-1.07.253.691 4.392-.535-.253-.692-4.392.536Zm8.784-1.071.253.692 4.392-.536-.253-.692-4.392.536Zm8.785-1.071.253.692 4.392-.536-.253-.692-4.392.536Zm8.784-1.071.253.692 4.392-.536-.253-.692-4.392.536Zm8.784-1.071.253.692 4.393-.536-.253-.692-4.393.536Zm8.785-1.071.253.692 4.392-.536-.253-.691-4.392.535Zm8.784-1.071.253.692 4.393-.535-.254-.692-4.392.535Zm8.785-1.071.253.692 4.392-.535-.253-.692-4.392.535Z" fill="#ED26B7"/></svg>