<svg width="188" height="174" viewBox="0 0 188 174" fill="none" xmlns="http://www.w3.org/2000/svg"><path fill-rule="evenodd" clip-rule="evenodd" d="M81.4074 12.6327c-43.8313 0-79.36367 35.5323-79.36367 79.3637 0 43.8316 35.53237 79.3636 79.36367 79.3636 43.8316 0 79.3636-35.532 79.3636-79.3636 0-43.8314-35.532-79.3637-79.3636-79.3637ZM.390259 91.9964c0-44.7445 36.272641-81.0172 81.017141-81.0172 44.7446 0 81.0176 36.2727 81.0176 81.0172 0 44.7446-36.273 81.0176-81.0176 81.0176-44.7445 0-81.017141-36.273-81.017141-81.0176Z" fill="#BFC9D1"/><path d="m78.0557 93.2463.6896-88.5015 3.4481-2.52863c1.3792-.91949 2.2987-1.379256 3.678-1.379256.9195 0 1.839.229916 2.5286.689666l94.248 54.71002c2.759 1.6091 4.598 4.5974 4.598 7.8157l-.23 79.3067c0 .919-.46 1.839-1.149 2.069l-5.517 4.367L78.0557 93.2463Z" fill="#BFC9D1"/><path d="M178.051 149.566 79.4346 93.9361c-2.2987-1.3793-3.678-3.678-3.678-6.2066V9.80225c0-2.75849 2.2987-5.05725 5.0572-5.05725.9195 0 1.839.22984 2.5286.68959L177.591 60.1446c2.758 1.6092 4.597 4.5975 4.597 7.8157l-.23 79.3067c0 1.379-1.149 2.529-2.528 2.529-.69 0-1.15-.001-1.379-.23Z" fill="#fff" stroke="#1B127D" stroke-width="1.5" stroke-linecap="round" stroke-linejoin="round"/><path d="m88.6299 27.8018 46.2041 26.6649c.689.4597 1.609.2299 1.839-.4597 0-.2299.229-.4598.229-.6897v-.2298c0-.9195-.459-1.6091-1.149-2.0689L89.3195 23.4343c-.4598-.4597-1.1494-.2298-1.6092.2299-.2298.2299-.2298.4597-.2298.6896v1.3792c0 .6896.4598 1.6091 1.1494 2.0688Z" fill="#2B2D6D" stroke="#1B127D" stroke-width="1.5" stroke-linecap="round" stroke-linejoin="round"/><path fill-rule="evenodd" clip-rule="evenodd" d="M108.095 48.1043c-.175.2948-.077.675.218.8494l27.584 16.3208c.295.1743.675.0768.849-.2179.175-.2948.077-.675-.218-.8494l-27.584-16.3208c-.295-.1743-.675-.0768-.849.2179ZM108.093 53.1628c-.173.2958-.073.6755.223.848L135.9 70.1017c.296.1726.676.0726.848-.2232.173-.2958.073-.6754-.223-.848l-27.584-16.0908c-.296-.1726-.676-.0727-.848.2231ZM119.13 64.6531c-.176.294-.08.6746.214.8502l16.551 9.8844c.294.1756.674.0796.85-.2144.176-.294.08-.6747-.214-.8503l-16.551-9.8844c-.294-.1755-.675-.0796-.85.2145Z" fill="#1B127D"/><path fill-rule="evenodd" clip-rule="evenodd" d="M126 82.8257c-.174.295-.076.6751.219.8492l23.461 13.8465c.295.174.675.0761.849-.2188.174-.295.076-.6751-.219-.8492l-23.461-13.8465c-.295-.174-.675-.0761-.849.2188ZM108.245 72.5774c-.174.2953-.075.6753.221.8486l15.142 8.8873c.295.1733.675.0745.849-.2209.173-.2953.074-.6753-.221-.8486l-15.143-8.8873c-.295-.1733-.675-.0744-.848.2209ZM113.041 81.1299c-.171.2969-.069.6759.228.8467l36.418 20.9514c.297.171.676.068.847-.228.17-.297.068-.676-.229-.847l-36.418-20.9513c-.297-.1708-.676-.0686-.846.2282Zm41.078 18.1089c-.174.2949-.076.6751.219.8492l6.293 3.714c.295.174.676.076.85-.219.174-.295.076-.675-.219-.849l-6.293-3.714c-.295-.1741-.676-.0761-.85.2188Zm0 5.5852c-.174.295-.076.675.219.849l6.293 3.714c.295.174.676.076.85-.219.174-.294.076-.675-.219-.849l-6.293-3.714c-.295-.174-.676-.076-.85.219Zm0 17.437c-.174.294-.076.675.219.849l6.293 3.714c.295.174.676.076.85-.219.174-.295.076-.675-.219-.849l-6.293-3.714c-.295-.174-.676-.076-.85.219ZM106.292 83.0072c-.17.2971-.068.676.229.8463l16.323 9.3589c.297.1703.676.0675.847-.2295.17-.2971.067-.676-.23-.8464l-16.323-9.3588c-.297-.1703-.676-.0676-.846.2295Zm19.709 11.2518c-.174.2949-.076.6751.219.8491l23.461 13.8469c.295.174.675.076.849-.219.174-.295.076-.675-.219-.849L126.85 94.0402c-.295-.1741-.675-.0761-.849.2188Zm28.118 16.595c-.174.295-.076.675.219.849l6.293 3.715c.295.174.676.076.85-.219.174-.295.076-.675-.219-.849l-6.293-3.715c-.295-.174-.676-.076-.85.219ZM111.997 91.9827c-.172.2963-.071.6757.225.8474l11.447 6.6369c.296.1718.676.0708.848-.2254.171-.2963.07-.6757-.226-.8474l-11.447-6.6369c-.296-.1717-.675-.0708-.847.2254Zm14.004 8.2913c-.174.295-.076.675.219.849l4.087 2.412c.295.174.675.076.849-.218.174-.295.076-.676-.219-.85l-4.087-2.412c-.295-.1736-.675-.0756-.849.219Zm8.174 4.824c-.174.295-.076.675.219.849l15.287 9.023c.295.174.675.076.849-.219.174-.295.076-.675-.219-.849l-15.287-9.023c-.295-.174-.675-.076-.849.219Zm19.944 11.771c-.174.295-.076.676.219.85l6.293 3.714c.295.174.676.076.85-.219.174-.295.076-.675-.219-.849l-6.293-3.714c-.295-.174-.676-.076-.85.218ZM115.851 100.444c-.169.297-.066.676.231.846l33.607 19.199c.298.17.676.066.846-.231.17-.297.067-.676-.231-.846l-33.607-19.199c-.297-.17-.676-.067-.846.231Z" fill="#ED26B7"/><path fill-rule="evenodd" clip-rule="evenodd" d="M172.32 83.1861c.289 3.9077-.776 6.9653-3.038 8.4899-2.263 1.5246-5.497 1.363-9.01-.3721-3.495-1.7261-7.139-4.9585-10.07-9.3075-2.93-4.349-4.558-8.9404-4.845-12.828-.289-3.9078.775-6.9654 3.038-8.49 2.262-1.5246 5.496-1.363 9.009.3721 3.495 1.7261 7.14 4.9586 10.07 9.3076 2.931 4.3489 4.558 8.9403 4.846 12.828Zm1.236-.0915c-.306-4.1395-2.025-8.9347-5.053-13.4295-3.029-4.4948-6.828-7.8886-10.55-9.7265-3.703-1.829-7.46-2.1692-10.251-.2886-2.791 1.8806-3.887 5.4905-3.582 9.6098.306 4.1395 2.025 8.9348 5.054 13.4296 3.028 4.4947 6.827 7.8885 10.549 9.7264 3.704 1.829 7.461 2.1692 10.252.2886 2.79-1.8806 3.886-5.4904 3.581-9.6098Z" fill="#1B127D"/><mask id="mask0_2301_6129" style="mask-type:alpha" maskUnits="userSpaceOnUse" x="1" y="11" width="161" height="162"><circle cx="81.4072" cy="91.9963" r="80.1904" fill="#D9D9D9"/></mask><mask id="mask1_2301_6129" style="mask-type:alpha" maskUnits="userSpaceOnUse" x="1" y="11" width="161" height="162"><circle cx="81.4072" cy="91.9963" r="80.1904" fill="#D9D9D9"/></mask><g mask="url(#mask1_2301_6129)"><path d="M58.1799 155.118c.1652-.331.2478-.661.3304-.992.6608-2.231.6608-4.463-.0826-6.611l-.4956 3.966c0 .331 0 .662-.0826.91v.247c-.4956 2.976-1.9825 5.29-4.378 7.025-2.4781 1.736-5.204 2.314-8.1777 1.818s-5.2866-1.983-6.9387-4.38c-.9912-1.405-1.652-2.892-1.8999-4.38l-7.5168 37.107.1652.082c4.7909 6.116 10.9862 7.521 18.5031 4.38h.2478l10.3254-39.172Z" fill="#20CA8B"/><path d="M55.2064 86.7728c-2.8911-.4958-5.617.0827-8.0125 1.8181-2.4781 1.7355-3.965 4.0495-4.4606 6.942-.0826.4959-.1652 1.0744-.2478 1.5702l-.1652-.0826-6.1127 52.8085.0826.083c-.0826.909 0 1.818.1653 2.644.2478 1.488.9086 2.975 1.8998 4.38 1.7347 2.479 4.0476 3.884 6.9387 4.38 2.9737.496 5.6996-.082 8.1777-1.818 2.3955-1.735 3.8824-4.049 4.378-7.024v-.248c.0826-.331.0826-.579.0826-.909l.4956-3.967 5.4518-47.272c.0826-.2477.1652-.5783.2478-.8262.4956-2.8098-.0826-5.537-1.8172-8.0163-1.7347-2.4793-4.1302-3.9668-7.1039-4.4627Z" fill="#20CA8B"/><path d="M109.2 173.072c.121-.857.121-1.713.243-2.57.363-9.176-2.565-17.25-8.782-24.1-6.2173-6.849-13.8962-10.395-23.0366-10.882-9.1404-.364-17.1831 2.574-24.0061 8.816-6.8229 6.242-10.355 14.073-10.718 23.249.0001.367.0002.612.0003.979-.2433 1.468-.3648 2.936-.4862 4.404-.3629 9.543 2.4424 17.618 8.416 24.223 6.0954 6.605 14.1399 10.028 23.8895 10.025 7.6779-.002 14.5023-1.227 20.5951-3.676 2.681-.735 5.118-2.081 7.555-3.795 3.655-3.794 5.604-7.587 5.846-11.502.243-3.793.364-5.995.364-6.607.121-3.671.242-6.607.12-8.564Z" fill="#37474F"/><path d="M63.9144 100.137c.0416-.2403.1041-.601.1457-.8414.4996-2.8853-.0254-5.5765-1.6954-8.0945-1.811-2.4187-4.1495-3.938-7.0361-4.4379-2.8866-.4999-5.5998.1447-8.1187 1.8135-2.5397 1.789-4.0594 4.1262-4.559 7.0114-.0833.4809-.1665.9618-.1504 1.5837l-.2405-.0416-6.1694 52.7948.2405.042c-.1966 2.566.5112 4.918 2.003 7.033 1.6908 2.398 4.0293 3.918 6.9159 4.418 3.0069.52 5.7201-.124 8.1187-1.814s3.9183-4.027 4.4387-7.032c.0208-.12.0208-.12.0417-.241.0624-.36.1249-.721.0462-.982l6.0191-51.212Z" fill="#20CA8B"/><path d="M105.296 178.416c.123-.86.123-1.719.122-2.579.366-9.207-2.581-17.309-8.8415-24.182-6.26-6.873-13.9916-10.431-23.1948-10.797-9.2031-.365-17.301 2.584-24.1708 8.847-6.8698 6.263-10.4261 14.121-10.7915 23.328.0001.368.0002.614.0003.982-.245 1.474-.3673 2.947-.4896 4.42-.3654 9.576 2.4592 17.678 8.5965 24.305 6.1373 6.628 14.1142 9.94 23.9308 9.937 7.7306-.002 14.6018-1.232 20.7365-3.689 2.6993-.737 5.1531-2.088 7.6067-3.93 3.6804-3.807 5.6424-7.613 5.8864-11.419.245-3.806.367-6.016.367-6.63.244-3.683.366-6.629.242-8.593Z" fill="#37474F"/><path d="M66.4401 82.0619c-.0826-1.3222-2.7259-1.6528-7.8473-.909-5.204.8264-9.3341 3.5536-12.3905 8.0163-3.0563 4.4627-4.6257 10.0824-4.5431 16.7768 0 6.694-1.2391 31.982-3.7172 76.031 9.0864 6.942 21.8899 10.66 38.3279 11.074 6.6909.165 12.8861-.248 18.7509-1.405 5.5342-.992 9.5822-2.397 12.0602-4.132l.909-55.453c0-4.05.33-9.835.991-17.438.495-6.281.413-10.413-.083-12.562-2.561-7.3548-10.7382-13.553-24.6982-18.5941-.9086.909-1.8999 1.6528-2.9737 2.1487-4.1302 1.9007-7.9299 1.7355-11.4818-.4959-3.0564-1.6528-4.1302-2.7272-3.3042-3.0578Z" fill="#A3FFB0"/><path d="M85.0819 81.6395c-5.453-3.1783-12.0642-3.6813-20.0763-1.6366-1.7284.5781-3.3419 1.5266-4.5976 2.9731-1.3783 1.444-2.2688 3.0206-2.7941 4.7274-.5278 1.8294-1.0782 4.7624-1.4034 8.6815-.1651 2.0821-.3253 3.9191-.3603 5.6361l4.7452-4.1972 4.2474 2.1723 5.8983-.6157 3.8946 7.4406c7.4392-4.02 12.6972-9.3101 15.654-15.9971-.4227-3.3209-1.3507-5.9161-3.0316-7.6679l-2.1762-1.5165Z" fill="url(#paint0_linear_2301_6129)"/><path d="M74.8736 107.193c7.4392-4.019 12.6972-9.3094 15.654-15.9964-.4227-3.3209-1.3507-5.9161-3.0316-7.6679l-2.4188-1.6442c-5.4531-3.1782-12.0618-3.8038-20.0763-1.6366-1.7285.5782-3.3419 1.5266-4.5976 2.9731-1.3783 1.444-2.2688 3.0207-2.7941 4.7275-.5279 1.8293-1.0782 4.7624-1.4034 8.6814-.1652 2.0822-.3253 3.9191-.3603 5.6361l4.7452-4.1971 4.2473 2.1721 5.8984-.6155 4.1372 7.5675Z" fill="#000" fill-opacity=".5176"/><path d="M64.6622 90.791c.05 3.5587.11 6.6269.3051 9.0844 14.3656-6.9447 20.8543-12.4555 19.4611-16.2869-3.9797-3.2709-9.7229-4.2469-17.2321-2.8053-1.656 3.0331-2.459 6.329-2.5341 10.0078Z" fill="#DDAD92"/><path d="M107.576 103.879c-.413-2.975-1.735-5.3714-4.047-7.1896-2.396-1.8181-5.1218-2.5619-8.0956-2.1487-2.9737.4132-5.2866 1.7355-7.1038 4.1321-1.8999 2.3962-2.6433 5.1242-2.2303 8.0162l.2478 1.488h-.2478l9.6646 51.073-.3305 44.296c6.8566-4.463 13.2166-4.215 19.0816.826l3.056-43.552c.083-.331.083-.661.083-1.074.082-1.075.082-2.149-.083-3.141v-.165s0-.083-.083-.083v-.165c-.082-.331-.165-.661-.247-.992l-9.582-50.494c0-.248 0-.579-.083-.827Z" fill="#20CA8B"/><path d="M75.7988 19.922c1.459-1.1205 3.1626-1.6436 5.1038-1.6712 2.5453-.1702 4.7515.7051 6.6049 2.4225 1.5548 1.8396 2.2001 3.8423 1.8409 6.1168 2.1245-.3467 3.8621-.3606 5.3215.0532 1.6699.5021 2.9734 1.6424 4.1073 3.3056.6994 1.283 1.0934 2.5865 1.087 4.0191-.0065 1.4325-.4338 2.6886-1.1665 3.9652 1.5343-.0003 2.8173.8345 3.8353 2.3008.903 1.2694 1.29 2.471 1.169 3.7067-.021 1.2289-.36 2.2745-1.106 3.3474-.753.971-1.629 1.6434-2.83 2.0306.944.3461 1.704 1.0113 2.186 2.1043.584 1.0861.761 2.1996.632 3.3334-.23 1.1407-.671 2.1931-1.526 3.1709-.76.8692-1.7375 1.5484-2.9456 1.8338.6653.7738 1.1407 1.765 1.3243 2.9802.1903 1.3171-.0402 2.4578-.7934 3.4288-.7531.9711-1.7236 1.752-2.8231 2.1325-1.2013.3872-2.423.4689-3.672.1433.0953 1.4257-.3388 2.58-1.1938 3.5579-.855.9778-2.0359 1.6706-3.5426 2.0782-1.0045.2718-2.2467.048-3.6179-.5763-1.4799-.7194-2.4575-1.5747-2.9329-2.5658-.5908-1.188-2.3488-1.4796-5.2878-1.0784-.4072.0272-.9026.2649-1.7103.4213-.5973.2445-1.0045.2718-1.31.2922-7.6495.3071-14.9194-1.3548-21.8028-4.8839-2.8716-1.6492-5.4649-3.7262-7.8887-6.326-2.2062-.8754-3.3333-2.4367-3.585-4.6704-.238-2.03.3725-3.6052 1.7365-4.6171-.9572-.5497-1.833-1.4118-2.3083-2.403-.5772-.9843-.8558-2.0909-.8357-3.3198.0269-1.127.461-2.2813 1.0106-3.2387.6513-.9642 1.4182-1.7316 2.504-2.3157-.7535-.5634-1.2085-1.249-1.3716-2.1587-.2649-.903-.1158-1.7313.237-2.5732.4545-.8488 1.0313-1.3989 1.8186-1.8607.7872-.4618 1.6967-.625 2.6267-.4826-1.0726-.7466-1.6498-1.7309-1.942-3.0412-.1904-1.3171.0401-2.4578.7933-3.4288l.095-.1087c.9568-.9846 2.0427-1.5687 3.3663-1.6572 1.3235-.0886 2.5725.2371 3.6451.9837-.0817-1.2221.1488-2.3628.7933-3.4288.6446-1.0661 1.5132-1.8402 2.7077-2.3293 1.1945-.4891 2.4163-.5708 3.6653-.2452 1.249.3256 2.308.8686 3.1906 1.8325-.1155-.1969.2577-.7333 1.2077-1.8198.3732-.5365.95-1.0865 1.7305-1.6502 1.3708-.91 2.7758-1.3109 4.4116-1.318 1.5272-.1022 2.9798.2098 4.3646 1.0378 1.3713.6244 2.3625 1.6833 3.0756 3.17Z" fill="#263238"/><path d="M80.5668 54.1415c-1.1392-2.9675-1.8275-4.577-1.8241-4.6992-.8914-3.0829-1.2942-6.1521-1.205-9.3298-5.0586-2.7107-10.8914-3.9754-17.6274-3.5531-5.9996.3207-10.313 1.545-12.818 3.6763-.2683.8486-.4145 1.7007-.5607 2.5528-.1428.7299-.1634 1.4632-.3061 2.1931-.1668 1.5854-.4524 3.0452-.4936 4.5118-.4866 4.2673-.5897 7.9339-.5499 10.8705-.0172.6111.0913 1.1034.0741 1.7145.2772 3.188.7918 6.6273 1.6661 10.3213.7762 2.835 1.8138 5.0659 3.3572 6.6993.2375.2513.5937.6283.8346.7573l.7192.5095.1187.1257s.1222.0034.1187.1256c.1222.0034.1188.1257.2409.1291l.1222.0034 1.0857.5198c.6039.2616 1.2113.401 1.9408.5438 2.562.1943 5.0086.1407 7.4621-.1573.2443.0068.6142-.1051.8586-.0982l-.4003 9.8962c-.5382 6.1007 2.9632 7.6668 10.26 4.6916.4989-.3529 1.2422-.699 2.1111-1.1638 5.3421-3.0301 8.0915-5.1545 8.1327-6.6211l.7093-20.8959 1.1735 1.7453c1.3163 1.0155 3.2675 1.1927 5.8569.4092 1.9717-.5562 3.6079-2.2226 5.0237-4.7514 1.5449-2.7699 1.8614-5.3296.8237-7.5604-.807-1.7351-1.879-2.7437-3.4602-3.0328-.2443-.0068-.6074-.1394-.8551-.024-1.4694.081-2.8269.5321-3.8351 1.6047-1.0082 1.0725-1.7617 1.7852-2.1385 2.1415-.8757.7093-1.3781 1.1845-1.385 1.4289-.0069.2444-.6142.1051-1.7068-.1703-1.0891-.3975-2.2627-2.1429-3.524-5.1139Z" fill="#DDAD92"/><path d="M70.5342 83.5249c3.9492-1.3564 6.6772-2.7472 7.9431-4.3013 1.3914-1.6728 2.4199-3.4781 3.3366-5.6534-1.1609 2.1684-2.9153 3.7088-5.0224 4.7501-1.4861.692-4.2003 1.594-8.1358 2.4616l-5.53 1.0675.1687 2.6949c1.8353-.0707 4.166-.3721 7.2398-1.0194Z" fill="#000" fill-opacity=".149"/><path d="M85.152 49.8819c-1.1816-3.091-2.4628-2.6378-3.8505 1.6043.0784 6.2402-.5419 10.2592-1.9911 12.1755-1.0517 1.3159-2.6002 2.2509-4.6487 2.9273-2.1753.6727-4.7137.7237-7.4884.1565-1.7676-.2943-4.5389-.9837-8.3207-1.8238-1.6408-.2908-3.2954-.0926-4.9568.3499-2.8159.8995-4.4774 1.342-4.7309 1.3349-.7673.2231-1.4011.2053-1.9046.0688-.6303-.14-1.127-.5209-1.3599-1.2613-.8254-2.2249-1.1026-5.9021-.8385-10.7873l-.8152-2.5915.0578 6.9736c-.0175 5.1367.0131 8.5624.3453 10.2841.291 3.1884.6163 5.1545.9725 6.0207.5788 1.9733 1.6783 3.472 3.2985 4.4961 1.9902 1.4013 4.758 2.213 8.3035 2.4349 3.7956.3513 7.8618.0986 12.2021-.8803 7.7865-1.7383 12.3016-4.4247 13.5453-8.0592 1.3774-3.8754 2.121-7.7685 2.3542-11.5537.216-3.1742.5279-5.2447.9322-6.0896.5276-.7191.0755-2.6888-1.1061-5.7799Z" fill="#263238"/></g><path fill-rule="evenodd" clip-rule="evenodd" d="M160.484 71.367c-.359-.3483-.749-.3513-.871-.0067l-3.429 9.692c-.122.3446.07.9062.43 1.2544.359.3482.749.3512.871.0067l3.429-9.6921c.122-.3445-.07-.9061-.43-1.2543Zm2.377 3.344c.212-.2408.639-.0903.954.3363l5.212 7.0659c.198.2691.313.5978.302.8677-.011.27-.145.4422-.355.4547l-5.212.3101c-.332.0197-.75-.3611-.933-.8505-.183-.4895-.062-.9023.27-.9221l4.227-.2515-4.279-5.8021c-.315-.4266-.398-.9676-.186-1.2085Zm-8.045-4.6447c-.212-.4858-.639-.8283-.954-.7651l-5.212 1.0477c-.198.0399-.313.2364-.302.5186.011.2823.145.6096.354.8641l5.212 6.3283c.333.4035.751.5052.934.2274.183-.2779.062-.8302-.27-1.2336l-4.228-5.1331 4.28-.8602c.315-.0633.398-.5084.186-.9941Z" fill="#2B2D6D"/><defs><linearGradient id="paint0_linear_2301_6129" x1="57.8963" y1="78.2587" x2="57.018" y2="103.997" gradientUnits="userSpaceOnUse"><stop stop-color="#94E69A"/><stop offset="1" stop-color="#17ADC9"/></linearGradient></defs></svg>