<svg width="192" height="175" viewBox="0 0 192 175" fill="none" xmlns="http://www.w3.org/2000/svg"><circle cx="81.9604" cy="92.6092" r="80.404" stroke="#BFC9D1" stroke-width="2"/><path d="m82.2374 93.515.6916-88.75884 3.4582-2.53598c1.3832-.92217 2.3054-1.383266 3.6887-1.383266.9221 0 1.8443.230586 2.536.691666L187.134 56.3977c2.767 1.6138 4.611 4.6108 4.611 7.8384l-.23 79.5369c0 .922-.462 1.845-1.153 2.075l-5.533 4.38L82.2374 93.515Z" fill="#BFC9D1"/><path d="M182.523 149.998 83.6202 94.2069c-2.3054-1.3832-3.6887-3.6886-3.6887-6.2246V9.82843c0-2.76651 2.3054-5.07196 5.0719-5.07196.9221 0 1.8443.23051 2.5359.6916L182.062 60.3172c2.766 1.6138 4.611 4.6109 4.611 7.8384l-.231 79.5374c0 1.383-1.153 2.536-2.536 2.536-.691 0-1.153 0-1.383-.231Z" fill="#fff" stroke="#1B127D" stroke-width="1.5" stroke-linecap="round" stroke-linejoin="round"/><path d="M92.8424 27.8803 139.18 54.6227c.692.4611 1.614.2306 1.845-.461 0-.2305.23-.4611.23-.6917v-.2305c0-.9222-.461-1.6138-1.152-2.0748L93.534 23.5001c-.4611-.4611-1.1527-.2305-1.6138.2306-.2305.2305-.2305.461-.2305.6915v1.3833c0 .6916.4611 1.6137 1.1527 2.0748Z" fill="#2B2D6D" stroke="#1B127D" stroke-width="1.5" stroke-linecap="round" stroke-linejoin="round"/><path d="m112.899 48.5583 27.665 16.3683M112.899 53.6283l27.665 16.1377M123.965 65.1573l16.599 9.9132" stroke="#1B127D" stroke-width="1.5" stroke-linecap="round" stroke-linejoin="round"/><path d="M130.881 90.6681v21.9309l-8.991-5.302V84.6741l8.991 5.994ZM145.635 89.4446v31.6844l-9.221-5.303V83.6812l9.221 5.7634ZM160.621 107.685v22.204l-9.222-5.533v-22.435l9.222 5.764Z" fill="#ED26B7"/><path d="M154.078 82.58c-5.976-8.8695-6.713-18.8281-1.644-22.2432 5.068-3.4151 14.021 1.0066 19.998 9.876 5.976 8.8694 6.713 18.828 1.644 22.2431-5.068 3.4151-14.021-1.0065-19.998-9.8759Z" stroke="#1B127D" stroke-width="1.5" stroke-miterlimit="10"/><mask id="mask0_2301_6286" style="mask-type:alpha" maskUnits="userSpaceOnUse" x="1" y="12" width="162" height="162"><circle cx="81.6789" cy="92.5895" r="80.4236" fill="#D9D9D9"/></mask><g mask="url(#mask0_2301_6286)"><path d="M111.512 65.5359c-.126-.1298-.122-.2561-.118-.3825-.972-2.3019-2.34-4.3618-3.84-6.299-4.384-5.4291-9.9895-8.9955-16.5639-10.4396-8.1117-2.1182-16.1665-1.7067-23.9017 1.1153-5.5338-1.542-10.6037-1.1751-15.3429 1.2232-4.3432 2.1564-7.4228 5.4851-9.239 9.986-1.9458 4.4974-2.2028 8.9146-.9044 13.3743 1.4244 4.5897 4.5595 8.3413 9.2827 10.9987-.1478.628-.292 1.1297-.4398 1.7577-.7646 4.0241-.0961 7.8346 2.1279 11.6877.367.7684.8673 1.4142 1.3676 2.0603-3.3593-.472-6.3697.457-9.1574 2.656-3.0578 2.571-4.8375 5.809-5.2169 9.97-.1879 2.017.0204 3.793.3656 5.319-2.452-.446-4.325 1.525-5.3488 5.542-1.1571 4.14-.3881 8.964 2.0478 14.466 2.4359 5.502 10.1041 9.505 23.1343 12.01 11.6268 10.684 26.634 12.106 44.8989 4.01 4.767 1.142 8.382 1.747 10.712 1.937 2.333.064 5.718-.349 10.017-.99 4.303-.767 7.595-2.446 10.131-4.905 2.676-2.834 4.07-6.209 4.183-10.125.206-2.648-.502-5.07-1.866-7.256-1.616-2.446-4.154-4.411-7.355-5.889 2.525-2.08 4.027-4.694 4.511-7.967.354-3.277-.603-6.084-2.737-8.544l-.63-.649c-1.134-1.169-2.916-2.356-5.476-3.563-2.941-1.471-4.986-2.539-5.875-3.195-1.397-1.049-2.524-2.471-3.513-4.1411-.211-15.1746-1.961-26.4727-5.254-33.768Z" fill="#1C0D3F"/><path d="M69.5664 114.783c-5.6841.845-10.3085 3.661-13.7768 8.261-1.1561 1.502-2.1195 3.192-2.8903 4.882-1.1561 1.689-2.2158 3.379-3.0829 5.069-.289.563-.5781 1.126-.7707 1.69l-.5781 1.408c-2.6012 4.318-3.7573 8.73-3.4683 13.424.1927 2.91.9634 5.82 2.3122 8.543-.9634 6.853-2.3122 11.922-3.95 15.208-1.8305 3.567-2.4085 7.134-1.9268 10.796-.0964.093-.1927.187-.1927.281-1.0598 1.502-1.9269 3.004-2.4086 4.6-1.2524 3.38-1.5414 7.041-.867 10.89.289 1.783.867 3.379 1.7341 4.694 1.8305 3.098 4.8171 5.163 8.9598 6.383 5.9732 4.037 18.3049 6.478 36.8988 7.323 18.7869.845 31.0219-2.16 36.7059-8.919.578-1.689 1.06-3.285 1.349-4.693.578-3.286.482-6.009-.289-8.168-3.95-7.604-4.046-17.836-.289-30.697 3.854-12.955 4.913-21.404 3.276-25.441-.193-1.22-.482-2.347-.867-3.285-.097-.282-.097-.47-.097-.564-2.697-7.322-11.272-13.518-25.723-18.681-.4817-.188-1.0597-.376-1.5414-.47 0-.093-.0964-.093-.0964-.093-3.3719-.845-7.7073-1.69-13.0061-2.441-4.5281-.751-9.6342-.845-15.4147 0Z" fill="#ED26B7"/><path d="m93.004 89.5355-4.5175-.7555c-3.7255-1.2394-7.2922-3.4854-10.9558-6.8715-2.9042-2.7334-5.9089-6.4806-8.8881-11.1117-2.2344-3.4733-4.5052-5.6838-6.6792-6.7544-2.4987 1.1954-4.5117 3.5415-6.1687 7.0346-2.3414 4.7382-3.5673 11.2763-3.6816 19.7403-.0669 6.8225.8134 12.2807 2.6408 16.3747 1.3455 2.817 2.8496 4.628 4.7681 5.565 2.0443 1.067 5.9285 1.3 11.6524.698l-.0392 10.362c-.4084 5.17 1.866 7.254 7.0861 6.133 1.9585-.451 4.8423-1.51 8.6478-3.049 3.9351-1.535 5.9408-3.628 6.0209-6.406l.0073-.253c.0182-.631.0364-1.263.0546-1.894.0145-.505.0291-1.01.04-1.389l.6558-13.757c1.4074.67 2.8293.836 4.2621.622 1.5623-.21 2.7502-.936 3.8162-1.918 2.006-2.0931 3.108-4.3377 3.573-6.9788.466-2.6412.009-4.8021-1.499-6.4863-1.508-1.6841-3.178-2.2354-5.5213-1.9204-2.0807.1958-3.7982 1.2862-5.2747 3.015Z" fill="#FED8C3"/></g><path d="M170.96 86.824c0 .2761-.194.388-.433.25l-1.206-.6965c-.239-.138-.433-.4738-.433-.75V73.6693c0-.2761.194-.3881.433-.25l1.206.6964c.239.1381.433.4739.433.75V86.824ZM166.435 84.0323c.109.3902-.101.6209-.404.4456l-1.251-.7217c-.182-.1054-.345-.3313-.407-.5652l-.853-3.218-4.878-2.8162-.853 2.2329c-.062.1623-.225.2002-.407.0949l-1.202-.6941c-.304-.1754-.513-.6478-.405-.9125l3.972-9.6651c.064-.1562.225-.191.404-.0875l1.908 1.1012c.179.1035.34.3239.404.5543l3.972 14.2514Zm-5.338-13.189-.032-.0184-1.801 4.6845 3.634 2.0984-1.801-6.7645Z" fill="#1B127D"/></svg>