<svg width="227" height="209" viewBox="0 0 227 209" fill="none" xmlns="http://www.w3.org/2000/svg">
<circle cx="98.9597" cy="110.227" r="96.9967" stroke="#BFC9D1" stroke-width="2"/>
<path d="M94.5151 112.132L95.3457 5.52193L99.4994 2.47592C101.161 1.36829 102.268 0.814453 103.93 0.814453C105.038 0.814453 106.145 1.09141 106.976 1.64523L220.508 67.5493C223.831 69.4877 226.046 73.0875 226.046 76.9642L225.77 172.498C225.77 173.605 225.216 174.713 224.385 174.99L217.739 180.251L94.5151 112.132Z" fill="#BFC9D1"/>
<path d="M214.969 179.974L96.1758 112.963C93.4067 111.301 91.7453 108.532 91.7453 105.486V11.6142C91.7453 8.29133 94.5143 5.52222 97.8372 5.52222C98.9448 5.52222 100.052 5.79909 100.883 6.35291L214.416 72.2571C217.738 74.1955 219.954 77.7953 219.954 81.672L219.677 177.205C219.677 178.867 218.292 180.251 216.631 180.251C215.8 180.251 215.246 180.251 214.969 179.974Z" fill="white" stroke="#1B127D" stroke-width="1.5" stroke-linecap="round" stroke-linejoin="round"/>
<path fill-rule="evenodd" clip-rule="evenodd" d="M193.817 85.444C193.382 85.0228 192.91 85.0192 192.763 85.4359L188.615 97.1592C188.467 97.576 188.7 98.2553 189.135 98.6765C189.57 99.0977 190.041 99.1013 190.189 98.6846L194.337 86.9613C194.484 86.5445 194.252 85.8652 193.817 85.444ZM196.692 89.4888C196.948 89.1974 197.465 89.3795 197.845 89.8955L204.15 98.4423C204.39 98.7677 204.528 99.1654 204.515 99.4919C204.502 99.8184 204.34 100.027 204.086 100.042L197.782 100.417C197.38 100.441 196.875 99.9802 196.653 99.3881C196.431 98.7961 196.577 98.2968 196.979 98.2728L202.093 97.9686L196.916 90.9505C196.536 90.4346 196.435 89.7801 196.692 89.4888ZM186.961 83.8706C186.704 83.283 186.188 82.8687 185.807 82.9452L179.503 84.2124C179.263 84.2607 179.124 84.4984 179.137 84.8398C179.15 85.1812 179.312 85.5771 179.566 85.8849L185.87 93.5395C186.272 94.0275 186.778 94.1507 186.999 93.8146C187.221 93.4784 187.075 92.8104 186.673 92.3224L181.559 86.1136L186.736 85.073C187.117 84.9965 187.217 84.4582 186.961 83.8706Z" fill="#2B2D6D"/>
<path d="M107.253 33.2966L162.91 65.4174C163.741 65.9712 164.848 65.6943 165.125 64.8636C165.125 64.5867 165.402 64.3098 165.402 64.0329V63.756C165.402 62.6483 164.848 61.8176 164.018 61.2638L108.083 28.0355C107.53 27.4817 106.699 27.7586 106.145 28.3124C105.868 28.5893 105.868 28.8662 105.868 29.1431V30.8045C105.868 31.6352 106.422 32.7428 107.253 33.2966Z" fill="#2B2D6D" stroke="#1B127D" stroke-width="1.5" stroke-linecap="round" stroke-linejoin="round"/>
<path d="M131.343 58.1334L164.571 77.7935" stroke="#1B127D" stroke-width="1.5" stroke-linecap="round" stroke-linejoin="round"/>
<path d="M131.343 64.223L164.571 83.6062" stroke="#1B127D" stroke-width="1.5" stroke-linecap="round" stroke-linejoin="round"/>
<path d="M144.634 78.0708L164.571 89.9776" stroke="#1B127D" stroke-width="1.5" stroke-linecap="round" stroke-linejoin="round"/>
<path d="M133.42 108.769V123.263L122.343 116.895V101.846L133.42 108.769Z" fill="#ED26B7"/>
<path d="M151.142 108.005L151.142 133.509L140.343 127.141L140.343 100.805L151.142 108.005Z" fill="#ED26B7"/>
<path d="M168.863 106.509L168.863 143.755L157.787 137.386V99.5864L168.863 106.509Z" fill="#ED26B7"/>
<path d="M186.862 132.71V154.277L175.786 147.631V125.787L186.862 132.71Z" fill="#ED26B7"/>
<path d="M180.804 98.9972C173.625 88.3439 172.741 76.3825 178.829 72.2806C184.916 68.1786 195.67 73.4895 202.849 84.1428C210.027 94.796 210.911 106.757 204.824 110.859C198.736 114.961 187.982 109.65 180.804 98.9972Z" stroke="#1B127D" stroke-width="1.5" stroke-miterlimit="10"/>
<mask id="mask0_2290_5510" style="mask-type:alpha" maskUnits="userSpaceOnUse" x="1" y="14" width="195" height="194">
<circle cx="98.5523" cy="110.626" r="96.5981" fill="#D9D9D9"/>
</mask>
<g mask="url(#mask0_2290_5510)">
<path d="M56.6479 125.738C56.5586 126.363 56.4694 126.898 56.3802 127.434L56.2017 127.344L49.2414 187.667H49.4198C49.3306 188.649 49.4198 189.72 49.5091 190.701L38.5331 245.135C38.5331 245.135 38.5331 245.224 38.5331 245.313C37.73 248.079 37.9977 250.846 39.3363 253.434C40.764 256.021 42.8164 257.806 45.6719 258.609C48.5275 259.412 51.2045 259.145 53.7924 257.806C56.3802 256.378 58.0756 254.237 58.8788 251.47C58.8788 251.381 58.968 251.292 58.968 251.203C58.968 251.113 58.968 251.024 59.0572 250.935L74.2272 193.646C74.4057 193.2 74.5841 192.843 74.6734 192.486C75.3873 189.987 75.3873 187.489 74.5841 185.079L80.8306 130.914C80.9198 130.646 81.0091 130.289 81.0983 130.021C81.6337 126.63 81.0091 123.596 79.0459 120.741C77.0827 117.975 74.3164 116.279 70.9255 115.654C67.6238 115.119 64.5006 115.744 61.7343 117.796C58.968 119.67 57.2725 122.347 56.6479 125.738Z" fill="#C79376"/>
<path d="M126.199 171.985C127.709 166.559 128.654 161.401 128.894 156.508C131.894 146.635 132.471 138.95 130.626 133.316C129.764 127.561 122.731 122.52 109.803 118.338C108.276 117.747 107.302 117.448 107.026 117.302C100.492 115.21 92.8273 113.654 84.0327 112.635C75.9259 112.19 70.4425 113.477 67.5794 116.637C62.3015 121.567 58.2738 126.942 55.2167 132.756C54.9256 133.31 54.6315 134.004 54.3404 134.558L53.7524 135.945C50.8579 140.643 49.6362 145.656 49.9503 150.84C50.3956 156.446 52.5279 161.667 56.4814 166.785C56.5784 168.886 56.9153 172.95 57.4862 179.259C57.706 182.202 58.06 185.427 58.5424 189.215C57.5947 194.513 56.5272 198.829 55.334 202.443C54.7374 204.25 54.1466 205.777 53.5614 207.024C57.3122 208.36 60.3665 209.542 62.7214 210.71C70.2002 214.5 79.1148 216.501 89.1854 216.707C99.3959 216.915 108.941 215.431 117.822 212.254C120.499 211.329 122.757 210.395 124.735 209.456C124.866 209.879 124.858 210.298 125.129 210.724C124.998 210.301 125.006 209.882 124.875 209.459C125.018 209.322 125.018 209.322 125.158 209.325C125.443 209.051 125.865 208.92 126.291 208.648C125.503 206.114 124.846 204.001 124.318 202.451C124.187 202.029 124.053 201.746 124.059 201.466C123.268 199.072 122.871 197.944 122.868 198.084C121.938 195.686 121.712 193.023 122.195 189.954C122.677 186.886 123.299 183.82 124.059 180.897C124.21 180.34 124.358 179.924 124.507 179.507C124.98 176.858 125.588 174.492 126.199 171.985Z" fill="#455A64"/>
<path d="M126.199 171.986C127.709 166.559 128.654 161.401 128.894 156.509C131.894 146.635 132.47 138.951 130.626 133.316C130.495 132.893 130.366 132.331 130.235 131.909C118.629 145.245 110.859 155.721 107.065 163.339C103.272 170.958 95.9442 173.467 85.0915 170.447C95.5075 174.298 102.198 175.554 105.304 174.218C109.626 181.862 115.275 186.175 122.106 187.434C122.131 186.175 122.294 185.059 122.314 184.08C122.454 184.083 122.605 183.526 122.902 182.693C124.386 178.525 125.44 174.909 126.199 171.986Z" fill="black" fill-opacity="0.0862745"/>
<path d="M121.915 189.949C122.397 186.88 123.019 183.815 123.918 180.894C124.07 180.338 124.218 179.921 124.369 179.364C95.1366 185.624 72.8887 185.59 57.6229 179.402C57.9826 182.348 58.3366 185.573 58.6791 189.358C57.7314 194.656 56.524 198.969 55.3308 202.583C72.6176 212.591 95.5677 212.499 124.175 202.588C124.041 202.306 123.907 202.023 123.913 201.744C123.122 199.349 122.728 198.081 122.585 198.218C121.798 195.683 121.572 193.02 121.915 189.949Z" fill="#263238"/>
<path d="M82.2114 34.1282L75.4468 36.8746C67.1974 40.2239 61.4067 45.8422 57.8787 54.1935C54.4487 62.3127 54.3594 70.6132 57.6418 78.6978L59.6514 83.6476C62.9338 91.7323 68.7841 97.6212 76.9033 101.051C85.0224 104.482 93.1577 104.638 101.407 101.289L108.502 98.4085C116.751 95.0592 122.475 89.2759 125.74 81.2236C129.17 73.1043 129.326 64.9689 125.977 56.7192L122.864 49.5265C125.045 49.2177 126.793 48.3158 128.273 46.754C131.135 43.8624 132.507 40.6147 132.585 36.547C132.663 32.4792 131.256 29.0144 128.432 26.3174C125.607 23.6204 122.127 22.1503 118.06 22.0721C113.992 21.9939 110.692 23.3336 107.83 26.2252L106.68 27.6531C106.48 27.1581 106.279 26.6631 106.011 26.0031C105.078 24.6522 103.717 23.6671 102.062 23.3781C100.407 23.089 98.9533 23.2949 97.4374 24.2947L97.3394 24.5267L103.205 33.2925C96.0493 30.8162 88.9759 31.3818 82.2114 34.1282Z" fill="#263238"/>
<path d="M97.9149 100.206C97.012 102.552 95.424 104.46 93.4335 105.799C91.0131 107.545 85.9366 109.494 78.2041 111.649L78.1782 107.603C81.8139 107.286 85.6007 106.556 89.3993 105.407C94.1852 103.867 97.0238 102.134 97.9149 100.206Z" fill="black" fill-opacity="0.0862745"/>
<path d="M113.372 83.5958C111.75 81.7369 109.819 80.9852 107.437 81.3368C105.196 81.6923 103.213 82.7526 101.764 84.6648L98.2742 89.7279C96.2735 86.4634 95.5586 82.1191 95.8467 76.8265C96.1388 71.3945 96.6274 68.8973 97.3164 69.1957C95.2688 67.6038 93.2133 66.2906 90.8751 65.109C85.0993 62.1569 79.0213 60.0333 72.6371 58.8776C69.0328 58.0789 66.8066 57.8769 65.6798 58.2637C65.5482 57.981 65.556 57.7023 65.289 57.2763C61.1765 59.6716 58.8939 66.4427 58.1548 77.8603C58.1469 78.139 57.9958 78.5533 57.9841 78.9714C57.9527 80.0865 57.9214 81.2015 57.8862 82.456C57.8784 82.7347 57.8744 82.8741 57.8666 83.1529C57.8431 83.9892 57.8196 84.8255 57.9355 85.6657L57.7962 85.6618C57.7922 85.8011 57.7883 85.9405 57.7844 86.0799C57.7648 86.7768 57.7413 87.6131 57.7218 88.31C57.7139 88.5888 57.71 88.7282 57.8416 89.0108C57.8103 90.1259 57.7829 91.1016 57.8948 92.0812L58.0342 92.0851C58.3193 96.8358 59.1814 100.905 60.6246 104.154C62.0717 107.264 63.6895 109.262 65.7489 110.436C67.9477 111.613 72.1252 111.87 78.2776 111.346L78.2095 118.737L101.645 118.698C101.665 118.001 101.681 117.443 101.84 116.75C101.855 116.193 101.871 115.635 101.883 115.217L102.309 100.024C103.823 100.764 105.352 100.947 106.893 100.711C108.574 100.479 109.852 99.6781 110.998 98.5943C113.155 96.2836 114.341 93.806 114.841 90.8907C115.485 87.84 114.994 85.4548 113.372 83.5958Z" fill="#C79376"/>
<path d="M102.334 70.5143L98.8008 47.9767L74.5909 41.3728C65.0301 41.0648 57.7241 45.0517 52.7975 53.1796C48.2449 60.8458 46.996 69.3096 49.1895 78.5569L50.1534 82.558L64.3984 79.2848C67.6857 78.5295 70.3053 76.7109 72.3817 73.6752C74.3335 70.7933 74.9802 67.4778 74.6136 63.8404L77.9498 76.0816C80.6821 75.3822 82.7749 73.8993 84.3528 71.4791C85.9307 69.0589 86.3564 66.3309 85.9074 63.2672L85.71 61.3086C86.7562 64.7361 88.8418 67.3523 91.8281 69.171C94.6756 71.0038 97.8123 71.5355 100.975 70.934L102.334 70.5143Z" fill="#263238"/>
<path d="M86.737 112.923C91.2409 111.515 94.3548 109.928 95.7997 108.155C97.388 106.246 98.5619 104.187 99.6082 101.705C98.2831 104.179 96.2806 105.936 93.8755 107.124C92.1792 107.914 89.081 108.943 84.5888 109.933L78.2765 111.151L78.4691 114.225C80.5641 114.145 83.2245 113.801 86.737 112.923Z" fill="black" fill-opacity="0.149"/>
<path d="M103.692 115.412C102.891 114.134 102.071 113.553 101.373 113.533C100.402 113.366 99.6889 113.904 98.9527 115.279C98.1633 113.582 97.211 112.719 96.3746 112.695C95.2633 112.524 94.1206 113.469 92.9467 115.529C92.0296 113.41 90.9457 112.263 89.9699 112.236C88.998 112.069 87.8514 113.153 86.8169 115.217C85.8959 113.238 84.812 112.091 83.6968 112.06C82.7249 111.893 81.7334 112.423 80.5868 113.507C79.3557 112.635 78.3916 112.19 77.6946 112.17C76.3045 111.992 75.4446 112.805 74.9794 114.466L76.6115 120.929C81.9816 123.452 86.5506 124.696 90.3144 124.802C94.4965 124.919 98.0051 124.181 100.844 122.447L103.692 115.412Z" fill="#37474F"/>
<path d="M128.244 144.187C130.357 141.443 131.128 138.437 130.701 135.151C130.255 131.722 128.74 129.013 125.995 126.901C123.25 124.788 120.244 124.017 116.816 124.463C113.387 124.909 110.678 126.424 108.708 129.15C106.596 131.895 105.825 134.901 106.271 138.33C106.717 141.758 108.374 144.448 111.101 146.418C113.845 148.531 116.851 149.302 120.137 148.874C123.423 148.447 126.132 146.932 128.244 144.187Z" fill="#C79376"/>
<path d="M139.398 204.288C141.511 201.543 142.282 198.537 141.854 195.251C141.408 191.822 139.893 189.114 137.149 187.001C134.404 184.888 131.398 184.117 127.969 184.563C124.54 185.009 121.832 186.524 119.862 189.25C117.749 191.995 116.978 195.001 117.424 198.43C117.87 201.859 119.528 204.549 122.254 206.518C124.999 208.631 128.005 209.402 131.291 208.975C134.577 208.547 137.285 207.032 139.398 204.288Z" fill="#C79376"/>
<path d="M141.33 197.621C137.688 192.522 134.721 195.119 131.133 194.707C126.315 194.193 121.394 194.502 116.269 195.634L113.94 254.957C113.94 254.957 113.94 255.06 113.838 255.06C113.757 255.842 109.415 266.196 109.281 268.194C109.221 269.1 111.877 269.651 114.248 265.28C113.991 270.599 113.043 274.013 114.248 275.478C116.196 277.845 120.148 276.626 123.121 276.935C126.094 277.243 128.673 270.149 131.133 268.194C133.389 266.239 135.161 260.103 135.468 257.118C135.468 257.015 135.571 256.912 135.571 256.809C135.571 256.706 135.571 256.603 135.571 256.501L141.33 197.621Z" fill="#C79376"/>
<path d="M130.682 135.36L106.335 139.943L116.566 195.861L141.908 194.995L130.682 135.36Z" fill="#C79376"/>
</g>
</svg>
