<svg width="706" height="550" viewBox="0 0 706 550" fill="none" xmlns="http://www.w3.org/2000/svg">
<path d="M699.38 316.856L440.826 463.873C433.203 468.177 420.827 468.177 413.204 463.873L154.651 316.242C150.884 314.09 149.001 311.221 149.001 308.442C149.001 305.573 150.884 302.793 154.651 300.641L413.204 153.624C420.827 149.321 433.203 149.321 440.826 153.624L699.38 301.255C706.877 304.726 706.877 313.021 699.38 316.856Z" fill="white" stroke="#1B127D" stroke-opacity="0.24"/>
<path d="M699.38 306.667L440.826 453.684C433.203 457.987 420.827 457.987 413.204 453.684L154.651 306.053C150.884 303.901 149.001 301.032 149.001 298.252C149.001 295.383 150.884 292.604 154.651 290.452L413.204 143.435C420.827 139.131 433.203 139.131 440.826 143.435L699.38 291.066C706.877 294.536 706.877 302.832 699.38 306.667Z" stroke="#1B127D" stroke-opacity="0.24"/>
<path d="M286.513 380.171L571.228 218.305C579.623 213.567 282.365 382.54 286.513 380.171Z" stroke="#1B127D" stroke-opacity="0.24" stroke-dasharray="1.66 3.74"/>
<path d="M214.661 340.296L499.377 178.43C507.772 173.692 210.514 342.665 214.661 340.296Z" stroke="#1B127D" stroke-opacity="0.24" stroke-dasharray="1.66 3.74"/>
<path d="M357.536 420.46L642.252 258.594C650.646 253.856 353.388 422.829 357.536 420.46Z" stroke="#1B127D" stroke-opacity="0.24" stroke-dasharray="1.66 3.74"/>
<path d="M498.437 420.352L211.923 258.62C201.265 252.606 503.703 423.359 498.437 420.352Z" stroke="#1B127D" stroke-opacity="0.24" stroke-dasharray="1.66 3.74"/>
<path d="M570.48 379.779L284.198 217.084C273.54 211.07 575.746 382.786 570.48 379.779Z" stroke="#1B127D" stroke-opacity="0.24" stroke-dasharray="1.66 3.74"/>
<path d="M641.863 339.428L353.976 176.795C343.318 170.781 647.13 342.435 641.863 339.428Z" stroke="#1B127D" stroke-opacity="0.24" stroke-dasharray="1.66 3.74"/>
<path fill-rule="evenodd" clip-rule="evenodd" d="M434.193 213.725L437.043 215.369L431.248 218.76L437.043 222.038L434.585 223.651L428.271 220.426L422.47 223.641L419.685 222.038L425.295 218.76L420.311 215.97L422.934 214.521L428.271 217.094L434.193 213.725ZM366.434 255.658L363.584 254.014L357.662 257.383L352.325 254.81L349.702 256.26L354.686 259.049L349.075 262.327L351.861 263.93L357.662 260.715L363.976 263.94L366.434 262.327L360.638 259.049L366.434 255.658ZM294.219 296.763L291.369 295.119L285.447 298.489L280.11 295.916L277.487 297.365L282.471 300.155L276.86 303.433L279.646 305.035L285.447 301.82L291.761 305.045L294.219 303.433L288.424 300.154L294.219 296.763ZM508.489 255.658L505.638 254.014L499.717 257.383L494.379 254.81L491.756 256.26L496.741 259.049L491.13 262.327L493.915 263.93L499.717 260.715L506.03 263.94L508.489 262.327L502.693 259.049L508.489 255.658ZM435.029 294.303L437.879 295.947L432.084 299.338L437.879 302.616L435.421 304.229L429.107 301.004L423.306 304.219L420.52 302.616L426.131 299.338L421.147 296.549L423.77 295.099L429.107 297.672L435.029 294.303ZM362.814 335.408L365.664 337.052L359.869 340.443L365.664 343.722L363.206 345.334L356.892 342.109L351.091 345.324L348.306 343.722L353.916 340.444L348.932 337.654L351.555 336.205L356.892 338.778L362.814 335.408ZM579.153 295.949L576.302 294.305L570.381 297.674L565.043 295.101L562.421 296.551L567.405 299.34L561.794 302.618L564.579 304.221L570.381 301.006L576.694 304.231L579.153 302.618L573.357 299.34L579.153 295.949ZM505.693 334.594L508.543 336.238L502.748 339.629L508.543 342.907L506.085 344.52L499.771 341.295L493.97 344.51L491.185 342.907L496.795 339.629L491.811 336.84L494.434 335.39L499.771 337.963L505.693 334.594ZM433.478 375.699L436.328 377.343L430.533 380.734L436.328 384.013L433.87 385.625L427.557 382.4L421.755 385.615L418.97 384.013L424.581 380.735L419.596 377.945L422.219 376.496L427.557 379.069L433.478 375.699Z" fill="white"/>
<path fill-rule="evenodd" clip-rule="evenodd" d="M434.193 213.725L437.043 215.369L431.248 218.76L437.043 222.038L434.585 223.651L428.271 220.426L422.47 223.641L419.685 222.038L425.295 218.76L420.311 215.97L422.934 214.521L428.271 217.094L434.193 213.725ZM366.434 255.658L363.584 254.014L357.662 257.383L352.325 254.81L349.702 256.26L354.686 259.049L349.075 262.327L351.861 263.93L357.662 260.715L363.976 263.94L366.434 262.327L360.638 259.049L366.434 255.658ZM294.219 296.763L291.369 295.119L285.447 298.489L280.11 295.916L277.487 297.365L282.471 300.155L276.86 303.433L279.646 305.035L285.447 301.82L291.761 305.045L294.219 303.433L288.424 300.154L294.219 296.763ZM508.489 255.658L505.638 254.014L499.717 257.383L494.379 254.81L491.756 256.26L496.741 259.049L491.13 262.327L493.915 263.93L499.717 260.715L506.03 263.94L508.489 262.327L502.693 259.049L508.489 255.658ZM435.029 294.303L437.879 295.947L432.084 299.338L437.879 302.616L435.421 304.229L429.107 301.004L423.306 304.219L420.52 302.616L426.131 299.338L421.147 296.549L423.77 295.099L429.107 297.672L435.029 294.303ZM362.814 335.408L365.664 337.052L359.869 340.443L365.664 343.722L363.206 345.334L356.892 342.109L351.091 345.324L348.306 343.722L353.916 340.444L348.932 337.654L351.555 336.205L356.892 338.778L362.814 335.408ZM579.153 295.949L576.302 294.305L570.381 297.674L565.043 295.101L562.421 296.551L567.405 299.34L561.794 302.618L564.579 304.221L570.381 301.006L576.694 304.231L579.153 302.618L573.357 299.34L579.153 295.949ZM505.693 334.594L508.543 336.238L502.748 339.629L508.543 342.907L506.085 344.52L499.771 341.295L493.97 344.51L491.185 342.907L496.795 339.629L491.811 336.84L494.434 335.39L499.771 337.963L505.693 334.594ZM433.478 375.699L436.328 377.343L430.533 380.734L436.328 384.013L433.87 385.625L427.557 382.4L421.755 385.615L418.97 384.013L424.581 380.735L419.596 377.945L422.219 376.496L427.557 379.069L433.478 375.699Z" fill="#1B127D" fill-opacity="0.24"/>
<path opacity="0.593913" d="M267.74 479.489L152.468 545.88C144.845 550.184 132.469 550.184 124.846 545.88L7.11186 479.489C3.34521 477.337 1.46188 474.468 1.46188 471.689C1.46188 468.82 3.34521 466.04 7.11186 463.888L122.384 397.497C130.007 393.194 142.383 393.194 150.006 397.497L267.74 463.888C275.238 467.359 275.238 475.654 267.74 479.489Z" stroke="#1B127D"/>
<path opacity="0.593913" d="M267.274 469.492L151.537 535.145C143.914 539.448 131.538 539.448 123.915 535.145L6.64702 468.561C2.88036 466.409 0.99704 463.54 0.99704 460.761C0.99704 457.892 2.88036 455.112 6.64702 452.96L122.384 387.308C130.007 383.004 142.383 383.004 150.006 387.308L267.274 453.891C274.772 457.362 274.772 465.657 267.274 469.492Z" stroke="#1B127D"/>
<path d="M67.1497 501.83L208.554 422.303C216.949 417.564 63.0019 504.199 67.1497 501.83Z" stroke="#1B127D" stroke-dasharray="1.66 3.32"/>
<path d="M208.163 502.76L63.1555 420.668C52.4974 414.654 213.43 505.768 208.163 502.76Z" stroke="#1B127D" stroke-dasharray="1.66 3.74"/>
<path d="M143.377 457.6L146.227 459.244L140.431 462.635L146.227 465.913L143.769 467.526L137.455 464.301L131.654 467.516L128.868 465.913L134.479 462.635L129.495 459.845L132.118 458.396L137.455 460.969L143.377 457.6Z" fill="#1B127D"/>
<path d="M267.74 479.489L152.468 545.88C144.845 550.184 132.469 550.184 124.846 545.88L7.11186 479.489C3.34521 477.337 1.46188 474.468 1.46188 471.689C1.46188 468.82 3.34521 466.04 7.11186 463.888L122.384 397.497C130.007 393.194 142.383 393.194 150.006 397.497L267.74 463.888C275.238 467.359 275.238 475.654 267.74 479.489Z" fill="white" stroke="#BFC9D1"/>
<path d="M267.274 469.492L151.537 535.145C143.914 539.448 131.538 539.448 123.915 535.145L6.64702 468.561C2.88036 466.409 0.99704 463.54 0.99704 460.761C0.99704 457.892 2.88036 455.112 6.64702 452.96L122.384 387.308C130.007 383.004 142.383 383.004 150.006 387.308L267.274 453.891C274.772 457.362 274.772 465.657 267.274 469.492Z" stroke="#BFC9D1"/>
<path d="M67.1497 501.83L208.554 422.303C216.949 417.564 63.0019 504.199 67.1497 501.83Z" stroke="#BFC9D1" stroke-dasharray="1.66 3.32"/>
<path d="M208.163 502.76L63.1555 420.668C52.4974 414.654 213.43 505.768 208.163 502.76Z" stroke="#BFC9D1" stroke-dasharray="1.66 3.74"/>
<path d="M143.377 457.6L146.227 459.244L140.431 462.635L146.227 465.913L143.769 467.526L137.455 464.301L131.654 467.516L128.868 465.913L134.479 462.635L129.495 459.845L132.118 458.396L137.455 460.969L143.377 457.6Z" fill="#1B127D"/>
<path d="M143.377 457.6L143.626 457.166L143.378 457.023L143.129 457.165L143.377 457.6ZM146.227 459.244L146.479 459.675L147.222 459.24L146.477 458.81L146.227 459.244ZM140.431 462.635L140.179 462.203L139.429 462.642L140.185 463.07L140.431 462.635ZM146.227 465.913L146.501 466.331L147.187 465.882L146.473 465.478L146.227 465.913ZM143.769 467.526L143.541 467.971L143.8 468.103L144.043 467.944L143.769 467.526ZM137.455 464.301L137.682 463.855L137.445 463.734L137.213 463.863L137.455 464.301ZM131.654 467.516L131.404 467.949L131.649 468.09L131.896 467.953L131.654 467.516ZM128.868 465.913L128.616 465.482L127.871 465.917L128.619 466.347L128.868 465.913ZM134.479 462.635L134.731 463.067L135.486 462.626L134.723 462.199L134.479 462.635ZM129.495 459.845L129.253 459.408L128.466 459.843L129.251 460.282L129.495 459.845ZM132.118 458.396L132.335 457.946L132.102 457.833L131.876 457.958L132.118 458.396ZM137.455 460.969L137.238 461.42L137.474 461.534L137.702 461.404L137.455 460.969ZM143.127 458.033L145.977 459.677L146.477 458.81L143.626 457.166L143.127 458.033ZM145.974 458.812L140.179 462.203L140.684 463.066L146.479 459.675L145.974 458.812ZM140.185 463.07L145.981 466.348L146.473 465.478L140.678 462.2L140.185 463.07ZM145.953 465.495L143.494 467.108L144.043 467.944L146.501 466.331L145.953 465.495ZM143.996 467.08L137.682 463.855L137.228 464.746L143.541 467.971L143.996 467.08ZM137.213 463.863L131.411 467.078L131.896 467.953L137.697 464.738L137.213 463.863ZM131.903 467.082L129.117 465.48L128.619 466.347L131.404 467.949L131.903 467.082ZM129.12 466.345L134.731 463.067L134.227 462.203L128.616 465.482L129.12 466.345ZM134.723 462.199L129.739 459.409L129.251 460.282L134.235 463.072L134.723 462.199ZM129.737 460.283L132.359 458.834L131.876 457.958L129.253 459.408L129.737 460.283ZM131.901 458.846L137.238 461.42L137.672 460.519L132.335 457.946L131.901 458.846ZM137.702 461.404L143.624 458.034L143.129 457.165L137.208 460.535L137.702 461.404Z" fill="#BFC9D1"/>
<path d="M179.702 451.642C179.702 453.295 178.598 454.944 176.388 456.2L144.268 474.408C139.85 476.913 132.623 476.913 128.208 474.408L96.0848 456.2C93.8773 454.96 92.7705 453.295 92.7705 451.642C92.7705 449.99 93.8773 448.34 96.0848 447.088L128.208 428.873C132.623 426.368 139.85 426.368 144.268 428.873L176.388 447.088C178.592 448.34 179.702 449.993 179.702 451.642Z" fill="white" stroke="#1B127D" stroke-miterlimit="10"/>
<path d="M179.702 451.641V464.272C179.702 465.921 178.595 467.57 176.388 468.823L160.328 477.932L144.268 487.041C142.06 488.281 139.146 488.92 136.235 488.92C133.324 488.92 130.415 488.3 128.208 487.041L112.145 477.932L96.0848 468.826C93.8773 467.586 92.7705 465.924 92.7705 464.275V451.641C92.7705 453.293 93.8773 454.943 96.0848 456.198L128.208 474.407C132.623 476.912 139.85 476.912 144.268 474.407L176.388 456.192C178.592 454.943 179.702 453.293 179.702 451.641Z" fill="white" stroke="#1B127D" stroke-miterlimit="10"/>
<path d="M155.385 476.599C155.925 474.725 155.119 472.847 153.585 472.405C152.051 471.964 150.369 473.125 149.83 475C149.29 476.875 150.096 478.753 151.63 479.194C153.165 479.636 154.846 478.474 155.385 476.599Z" fill="#1B127D"/>
<path d="M147.371 480.961C147.911 479.211 147.188 477.434 145.755 476.991C144.322 476.549 142.723 477.609 142.182 479.359C141.642 481.109 142.366 482.886 143.798 483.328C145.231 483.771 146.831 482.711 147.371 480.961Z" fill="#ED26B7"/>
<g style="mix-blend-mode:multiply">
<path d="M457.31 308.87L543.584 259.58L626.833 305.966L543.584 356.708L457.31 308.87Z" fill="#F2F4F6"/>
</g>
<path d="M457.31 256.899L543.584 207.596L626.833 253.982L543.584 304.737L457.31 256.899Z" fill="white" stroke="#1B127D" stroke-miterlimit="10"/>
<path d="M626.833 253.996V273.204L542.963 324.628L457.735 276.676L457.31 256.921L543.584 304.758L626.833 253.996Z" fill="white" stroke="#1B127D" stroke-miterlimit="10"/>
<path d="M543.579 304.738V324.196L626.828 273.204V253.996L543.579 304.738Z" fill="white" stroke="#1B127D" stroke-miterlimit="10"/>
<path d="M457.31 256.899L543.584 207.596L626.833 253.982L543.584 304.737L457.31 256.899Z" fill="white" stroke="#1B127D" stroke-miterlimit="10"/>
<path d="M626.833 223.002V242.21L542.963 293.634L457.735 245.682L457.31 225.926L543.584 273.771L626.833 223.002Z" fill="white" stroke="#1B127D" stroke-linejoin="round"/>
<path d="M457.31 225.925L543.584 176.621L626.833 223.007L543.584 273.749L457.31 225.925Z" fill="white" stroke="#1B127D" stroke-linejoin="round"/>
<path d="M457.31 194.608L543.584 145.305L626.833 191.691L543.584 242.446L457.31 194.608Z" fill="white" stroke="#1B127D" stroke-miterlimit="10"/>
<path d="M626.833 191.703V210.904L542.963 262.329L457.735 214.376L457.31 194.628L543.584 242.465L626.833 191.703Z" fill="white" stroke="#1B127D" stroke-miterlimit="10"/>
<path d="M543.579 273.751V293.209L626.828 242.21V223.002L543.579 273.751Z" fill="white" stroke="#1B127D" stroke-linejoin="round"/>
<path d="M543.579 242.445V261.903L626.828 210.904V191.703L543.579 242.445Z" fill="white" stroke="#1B127D" stroke-miterlimit="10"/>
<path d="M557.481 246.611C557.986 244.722 557.141 242.857 555.595 242.444C554.049 242.031 552.387 243.228 551.883 245.116C551.378 247.004 552.223 248.87 553.769 249.283C555.315 249.695 556.977 248.499 557.481 246.611Z" fill="#ED26B7"/>
<path d="M556.522 278.17C557.062 276.295 556.256 274.417 554.721 273.976C553.187 273.534 551.506 274.696 550.966 276.57C550.427 278.445 551.233 280.323 552.767 280.765C554.301 281.206 555.982 280.044 556.522 278.17Z" fill="#1B127D"/>
<path d="M555.816 309.297C556.357 307.547 555.633 305.77 554.2 305.327C552.768 304.885 551.168 305.945 550.628 307.695C550.087 309.445 550.811 311.222 552.244 311.664C553.676 312.107 555.276 311.047 555.816 309.297Z" fill="#ED26B7"/>
<path d="M65.2729 321.358C65.354 318.344 70.9633 313.877 73.5533 315.149L201.441 387.924C202.539 388.65 203.248 389.877 203.328 391.191L203.31 470.613C203.287 471.266 203.111 471.905 202.798 472.478C202.484 473.052 202.041 473.544 201.503 473.915L200.837 474.3C200.243 474.643 199.575 474.838 198.89 474.869C198.205 474.899 197.523 474.764 196.901 474.475L67.0033 400.247C65.8986 399.51 65.1847 398.274 65.0994 396.949L65.2729 321.358Z" fill="#BFC9D1"/>
<path d="M65.1953 321.496C65.2764 318.482 68.98 316.584 71.57 317.856L197.454 390.198C198.552 390.924 199.261 392.152 199.341 393.466L199.323 472.888C199.216 475.905 195.666 478.031 192.914 476.749L67.1209 404.354C66.0162 403.618 65.3022 402.381 65.2169 401.057L65.1953 321.496Z" fill="white" stroke="#1B127D"/>
<path d="M83.4866 399.349C83.3469 399.107 83.2421 398.926 83.2071 398.865C83.1722 398.805 83.5704 398.656 83.6915 398.586L182.833 455.788C182.883 455.787 182.932 455.8 182.976 455.825C183.019 455.849 183.055 455.885 183.08 455.928C183.105 455.971 183.118 456.02 183.118 456.07C183.117 456.12 183.103 456.169 183.078 456.212C182.967 456.319 182.832 456.397 182.684 456.439L182.428 456.345L83.4866 399.349Z" fill="#BFC9D1"/>
<path d="M81.4635 387.3C81.5099 387.26 81.5695 387.24 81.6305 387.242C81.6915 387.244 81.7494 387.269 81.793 387.311L85.8778 389.632C86.0605 389.705 86.2133 389.837 86.3115 390.007C86.4098 390.177 86.4477 390.376 86.4193 390.57L86.4356 391.368C86.4238 391.497 86.364 391.618 86.268 391.706C86.268 391.706 86.056 391.829 85.9081 391.712L81.8537 389.374C81.6971 389.288 81.5672 389.161 81.4779 389.006C81.3886 388.851 81.3433 388.675 81.3471 388.497L81.3482 387.729C81.3482 387.729 81.3598 387.4 81.4635 387.3Z" fill="#BFC9D1"/>
<path d="M86.2998 381.842C86.2998 381.842 86.1181 381.947 85.9656 381.752L81.8634 379.401C81.7106 379.293 81.5831 379.154 81.4896 378.992C81.3961 378.83 81.3389 378.649 81.3219 378.463L81.3276 377.774C81.3393 377.445 81.5163 377.262 81.8726 377.459L85.9573 379.78C86.143 379.879 86.2972 380.027 86.4023 380.209C86.5073 380.391 86.5589 380.599 86.5512 380.809L86.5152 381.516C86.5117 381.584 86.4899 381.651 86.452 381.708C86.4141 381.765 86.3615 381.812 86.2998 381.842Z" fill="#BFC9D1"/>
<path d="M85.8634 370.035C86.0332 370.124 86.1742 370.259 86.2701 370.425C86.3659 370.591 86.4127 370.781 86.4049 370.972L86.4213 371.77C86.3994 371.908 86.3292 372.034 86.2233 372.126C86.2233 372.126 86.2233 372.126 86.0719 372.214C85.9206 372.301 86.0719 372.214 85.9846 372.062L81.8999 369.741C81.7352 369.646 81.5984 369.51 81.5034 369.345C81.4083 369.18 81.3583 368.994 81.3584 368.803L81.3595 368.036C81.2722 367.885 81.2372 367.825 81.4316 367.672C81.4523 367.642 81.4792 367.617 81.5106 367.599C81.5421 367.581 81.5771 367.57 81.6133 367.567C81.6451 367.585 81.6716 367.612 81.69 367.644C81.7084 367.676 81.7181 367.712 81.7181 367.749L85.8634 370.035Z" fill="#BFC9D1"/>
<path d="M81.1708 348.416C81.1603 347.979 81.3419 347.874 81.7157 348.102L85.7958 350.345C85.9608 350.457 86.0983 350.605 86.1981 350.778C86.2979 350.951 86.3574 351.144 86.3722 351.343L86.3664 352.032C86.3675 352.106 86.3518 352.179 86.3205 352.246C86.2893 352.313 86.2433 352.372 86.186 352.419C86.186 352.419 85.9741 352.541 85.7563 352.304L81.7542 350.056C81.6015 349.948 81.4739 349.809 81.3804 349.647C81.2869 349.485 81.2297 349.304 81.2127 349.118L81.1708 348.416Z" fill="#BFC9D1"/>
<path d="M81.8215 340.097C81.6568 340.002 81.5201 339.865 81.425 339.701C81.33 339.536 81.28 339.349 81.28 339.159L81.2555 338.487C81.1681 338.336 81.1332 338.276 81.3579 338.106C81.4197 338.068 81.4906 338.049 81.5627 338.051C81.6347 338.052 81.705 338.073 81.7654 338.112L85.8677 340.464C86.0259 340.566 86.1575 340.704 86.2516 340.867C86.3458 341.03 86.3998 341.213 86.4092 341.402L86.4034 342.091C86.4139 342.528 86.2323 342.633 85.8585 342.405L81.8215 340.097Z" fill="#BFC9D1"/>
<path d="M175.211 455.668C175.366 455.764 175.495 455.898 175.586 456.056C175.678 456.214 175.729 456.393 175.735 456.575L175.739 457.42C175.736 457.491 175.717 457.56 175.682 457.622C175.648 457.684 175.6 457.737 175.541 457.777C175.541 457.777 175.359 457.881 175.207 457.687L171.152 455.349C170.983 455.26 170.842 455.124 170.746 454.958C170.65 454.792 170.603 454.602 170.611 454.411L170.599 453.691C170.621 453.553 170.691 453.427 170.797 453.335C170.797 453.335 170.979 453.23 171.131 453.425L175.211 455.668Z" fill="#BFC9D1"/>
<path d="M158.915 446.523C158.939 446.472 158.978 446.43 159.027 446.402C159.075 446.374 159.131 446.361 159.187 446.365L163.164 448.709C163.346 448.781 163.499 448.913 163.597 449.084C163.696 449.254 163.734 449.452 163.705 449.647L163.721 450.444C163.7 450.582 163.629 450.708 163.524 450.8C163.524 450.8 163.342 450.905 163.086 450.811L159.092 448.437C158.922 448.348 158.781 448.213 158.685 448.047C158.589 447.881 158.542 447.691 158.55 447.5L158.551 446.732C158.656 446.637 158.78 446.566 158.915 446.523Z" fill="#BFC9D1"/>
<path d="M147.347 441.66C147.182 441.565 147.046 441.429 146.951 441.264C146.855 441.099 146.805 440.913 146.805 440.722L146.811 440.033C146.724 439.882 146.689 439.822 146.883 439.669C147.078 439.516 147.095 439.547 147.313 439.784L151.32 442.11C151.485 442.205 151.621 442.341 151.716 442.506C151.811 442.671 151.861 442.857 151.861 443.048L151.86 443.815C151.948 443.966 151.783 444.101 151.788 444.179C151.793 444.257 151.546 444.319 151.328 444.082L147.347 441.66Z" fill="#BFC9D1"/>
<path d="M139.98 436.031L139.975 436.72C139.975 436.72 139.88 436.976 139.885 437.054C139.89 437.132 139.643 437.194 139.443 436.987L135.466 434.643C135.288 434.555 135.14 434.416 135.041 434.244C134.941 434.071 134.895 433.874 134.907 433.675L134.883 433.004C134.905 432.865 134.975 432.739 135.081 432.647C135.081 432.647 135.262 432.543 135.51 432.762L139.512 435.01C139.776 435.289 139.941 435.648 139.98 436.031Z" fill="#BFC9D1"/>
<path d="M123.056 425.874C123.056 425.874 123.298 425.734 123.468 425.959L127.47 428.206C127.643 428.302 127.786 428.442 127.884 428.613C127.983 428.783 128.033 428.978 128.029 429.175L128.023 429.864C128.012 429.994 127.952 430.114 127.856 430.203C127.856 430.203 127.674 430.307 127.521 430.113L123.515 427.787C123.347 427.687 123.208 427.545 123.11 427.376C123.012 427.206 122.959 427.015 122.956 426.819L122.957 426.052C122.957 426.052 122.952 425.974 123.056 425.874Z" fill="#BFC9D1"/>
<path d="M111.073 418.958C111.073 418.958 111.316 418.818 111.516 419.025L115.488 421.29C115.642 421.387 115.771 421.521 115.863 421.679C115.954 421.837 116.005 422.015 116.012 422.198L116.006 422.887C116.013 422.954 116.002 423.021 115.972 423.081C115.942 423.141 115.896 423.191 115.838 423.226C115.822 423.265 115.792 423.296 115.754 423.314C115.716 423.333 115.673 423.337 115.632 423.326C115.592 423.315 115.556 423.29 115.533 423.255C115.509 423.22 115.499 423.178 115.504 423.136L111.497 420.811C111.336 420.704 111.201 420.56 111.104 420.392C111.007 420.224 110.95 420.036 110.938 419.843L110.922 419.045C110.922 419.045 110.983 419.01 111.073 418.958Z" fill="#BFC9D1"/>
<path d="M99.1402 412.133C99.1627 412.107 99.1902 412.087 99.2209 412.073C99.2517 412.059 99.285 412.051 99.3188 412.051C99.3526 412.05 99.3861 412.057 99.4173 412.07C99.4485 412.083 99.4767 412.102 99.5 412.127L103.476 414.47C103.631 414.567 103.76 414.7 103.851 414.858C103.943 415.017 103.994 415.195 104 415.377L103.999 416.145C103.988 416.274 103.928 416.395 103.832 416.483C103.768 416.529 103.693 416.555 103.614 416.557C103.536 416.559 103.459 416.537 103.394 416.494L99.4174 414.151C99.2656 414.059 99.1396 413.931 99.051 413.778C98.9624 413.624 98.9142 413.451 98.9109 413.274L98.912 412.506C98.912 412.506 99.0016 412.172 99.1402 412.133Z" fill="#BFC9D1"/>
<path d="M87.0492 406.286L87.0329 405.489C87.0527 405.362 87.1112 405.243 87.2005 405.15C87.2211 405.12 87.2481 405.095 87.2795 405.077C87.3109 405.059 87.346 405.048 87.3821 405.045L91.4063 407.401C91.5591 407.509 91.6866 407.649 91.7801 407.811C91.8736 407.973 91.9308 408.153 91.9478 408.339L91.942 409.028C91.9525 409.466 91.7534 409.54 91.3971 409.343L87.4207 407C87.2176 406.812 87.0863 406.56 87.0492 406.286Z" fill="#BFC9D1"/>
<path d="M93.7077 400.466L93.7362 368.985L96.8521 370.816C97.938 371.575 98.7331 372.681 99.1066 373.952C99.6901 375.528 99.9707 377.2 99.9335 378.88L99.964 382.009C100.078 383.887 100.61 385.716 101.521 387.362C102.444 389.038 103.785 390.445 105.414 391.448L106.192 391.886C106.75 392.297 107.411 392.548 108.102 392.611C108.793 392.675 109.488 392.548 110.112 392.245C110.678 391.877 111.125 391.353 111.399 390.736C111.673 390.12 111.763 389.437 111.658 388.771L111.675 385.655C111.599 384.974 111.704 384.285 111.98 383.658C112.256 383.031 112.693 382.488 113.247 382.085C114.307 381.473 115.564 381.554 117.042 382.435L118.532 383.269C119.089 383.663 119.738 383.909 120.416 383.983C121.094 384.057 121.78 383.957 122.41 383.693C122.973 383.304 123.419 382.769 123.699 382.145C123.98 381.521 124.083 380.832 123.999 380.153L123.999 377.007C123.943 376.346 124.077 375.683 124.384 375.095C124.692 374.507 125.16 374.019 125.735 373.687C126.309 373.355 126.967 373.194 127.629 373.221C128.292 373.249 128.934 373.465 129.478 373.843L130.773 374.548C132.397 375.523 133.746 376.897 134.691 378.538C135.669 380.167 136.246 382.004 136.374 383.9L136.341 402.999C136.446 404.916 136.986 406.784 137.921 408.461C138.875 410.112 140.178 411.535 141.74 412.63L144.521 414.09C144.872 414.264 145.257 414.359 145.649 414.366C146.237 414.334 146.792 414.084 147.207 413.666C147.622 413.248 147.867 412.69 147.894 412.102C147.865 411.67 147.989 411.242 148.244 410.891C148.562 410.39 149.052 410.021 149.623 409.853C149.915 409.77 150.222 409.748 150.524 409.789C150.826 409.83 151.115 409.933 151.375 410.092L153.974 411.657C154.516 412.059 155.156 412.306 155.827 412.373C156.498 412.44 157.175 412.324 157.786 412.038C158.346 411.64 158.787 411.098 159.064 410.469C159.34 409.841 159.442 409.15 159.358 408.468L159.339 389.56C159.266 388.886 159.391 388.206 159.698 387.602C160.004 386.997 160.48 386.495 161.067 386.156C161.654 385.817 162.327 385.656 163.004 385.693C163.681 385.729 164.332 385.962 164.879 386.362L166.244 387.187C167.837 388.211 169.148 389.617 170.059 391.278C171.011 392.93 171.592 394.77 171.759 396.67L171.757 407.643C171.738 409.328 171.997 411.005 172.524 412.606C172.765 413.776 173.378 414.837 174.27 415.631L177.317 417.342L177.306 448.853L93.7077 400.466Z" fill="#F2F4F6"/>
<path d="M93.2286 368.796C93.2286 368.796 93.3683 369.038 93.4906 369.249L96.8103 371.084C97.7899 371.867 98.5129 372.924 98.8866 374.121C99.4764 375.636 99.7645 377.251 99.7345 378.876L99.7394 382.1C99.886 384.028 100.48 385.895 101.475 387.552C102.403 389.305 103.783 390.779 105.472 391.82L106.15 392.155C106.748 392.612 107.465 392.888 108.216 392.948C108.966 393.008 109.719 392.851 110.382 392.494C111.01 392.078 111.51 391.497 111.829 390.815C112.147 390.133 112.271 389.377 112.187 388.629L112.187 385.482C112.172 383.918 112.64 382.841 113.565 382.347C113.96 382.151 114.393 382.044 114.833 382.034C115.274 382.023 115.711 382.11 116.114 382.287C116.408 383.03 116.927 383.661 117.6 384.092C117.781 384.201 117.985 384.264 118.196 384.276C118.407 384.288 118.618 384.248 118.81 384.16C118.945 384.118 119.069 384.046 119.173 383.95C119.713 384.243 120.317 384.398 120.932 384.402C121.547 384.406 122.153 384.259 122.697 383.972C123.33 383.555 123.832 382.968 124.148 382.28C124.464 381.591 124.58 380.828 124.485 380.077L124.502 376.96C124.482 375.318 124.95 374.241 125.876 373.747C126.433 373.496 127.046 373.395 127.654 373.454C128.262 373.514 128.843 373.732 129.341 374.086L130.636 374.791C132.18 375.73 133.464 377.041 134.371 378.604C135.382 380.161 135.925 381.975 135.936 383.832L135.926 403.04C136.032 405.028 136.61 406.962 137.61 408.683C138.625 410.359 139.981 411.802 141.59 412.92L144.262 414.403C144.919 414.737 145.673 414.83 146.392 414.666C146.968 414.525 147.479 414.191 147.839 413.719C148.198 413.247 148.385 412.666 148.367 412.073C148.351 411.828 148.391 411.583 148.483 411.355C148.575 411.127 148.717 410.923 148.899 410.758C149.053 410.55 149.248 410.376 149.471 410.247C149.695 410.117 149.943 410.036 150.2 410.006C150.501 410.027 150.792 410.122 151.047 410.284L151.551 410.598C151.835 411.359 152.364 412.004 153.054 412.433C153.235 412.542 153.44 412.605 153.651 412.617C153.862 412.629 154.072 412.589 154.264 412.5C154.373 412.457 154.475 412.398 154.567 412.326C155.107 412.599 155.706 412.735 156.311 412.723C156.917 412.712 157.51 412.551 158.039 412.257C158.653 411.816 159.14 411.221 159.451 410.532C159.762 409.842 159.885 409.083 159.809 408.331L159.79 389.423C159.717 388.808 159.809 388.186 160.055 387.618C160.302 387.05 160.695 386.558 161.194 386.192C161.625 385.954 162.11 385.831 162.601 385.837C163.093 385.843 163.575 385.977 163.999 386.226C164.287 386.959 164.802 387.58 165.468 388.001C165.639 388.117 165.839 388.185 166.046 388.2C166.253 388.215 166.46 388.176 166.647 388.086C166.715 388.066 166.777 388.03 166.829 387.981C168.01 388.903 169.017 390.03 169.799 391.309C170.739 392.857 171.27 394.618 171.342 396.428L171.363 407.51C171.314 409.257 171.593 410.998 172.186 412.641C172.48 413.92 173.219 415.052 174.272 415.834L177.144 417.524L177.383 417.588C177.438 417.585 177.491 417.569 177.538 417.542C177.585 417.514 177.626 417.476 177.656 417.43C177.7 417.39 177.736 417.34 177.759 417.285C177.783 417.229 177.794 417.169 177.793 417.109C177.782 417.02 177.754 416.933 177.709 416.855C177.664 416.777 177.603 416.709 177.531 416.655L174.746 415.117C173.841 414.333 173.226 413.267 172.999 412.091C172.467 410.589 172.208 409.004 172.234 407.41L172.226 396.281C172.116 394.332 171.535 392.439 170.534 390.763C169.728 389.272 168.597 387.981 167.223 386.987C167.223 386.987 167.223 386.987 167.136 386.836C167.116 386.226 166.947 385.632 166.642 385.104C166.337 384.576 165.907 384.132 165.389 383.81C165.208 383.696 165.001 383.627 164.788 383.61C164.574 383.593 164.359 383.628 164.162 383.712C163.979 383.836 163.834 384.009 163.744 384.21C163.654 384.412 163.621 384.635 163.651 384.854L163.773 385.066C163.288 384.895 162.773 384.827 162.261 384.866C161.748 384.905 161.249 385.05 160.796 385.292C160.175 385.721 159.682 386.309 159.367 386.995C159.053 387.681 158.929 388.438 159.009 389.188L158.997 408.114C159.07 408.723 158.982 409.34 158.741 409.905C158.5 410.469 158.114 410.959 157.623 411.328C157.215 411.564 156.752 411.69 156.28 411.694C155.808 411.697 155.343 411.579 154.931 411.349C154.931 410.736 154.77 410.133 154.463 409.602C154.157 409.071 153.716 408.63 153.185 408.323C153.004 408.206 152.798 408.136 152.583 408.119C152.369 408.102 152.154 408.138 151.957 408.225C151.777 408.352 151.635 408.525 151.545 408.726C151.455 408.927 151.421 409.149 151.446 409.367C150.839 409.037 150.126 408.956 149.46 409.143C149.106 409.23 148.774 409.389 148.486 409.612C148.197 409.834 147.958 410.114 147.783 410.433C147.543 410.855 147.415 411.332 147.412 411.818C147.421 412.133 147.344 412.444 147.191 412.72C147.037 412.995 146.811 413.223 146.538 413.381C146.265 413.539 145.955 413.62 145.639 413.615C145.324 413.611 145.016 413.521 144.748 413.356L141.945 411.787C140.419 410.758 139.149 409.395 138.23 407.8C137.296 406.221 136.764 404.436 136.683 402.603L136.676 383.365C136.581 381.41 136.022 379.507 135.043 377.813C134.065 376.118 132.697 374.682 131.051 373.623L129.752 372.84C129.13 372.442 128.42 372.206 127.684 372.152C126.948 372.098 126.21 372.228 125.537 372.531C124.903 372.941 124.398 373.521 124.079 374.205C123.76 374.888 123.64 375.648 123.732 376.396L123.732 379.543C123.784 380.136 123.682 380.733 123.438 381.277C123.194 381.82 122.815 382.292 122.336 382.648C121.911 382.888 121.43 383.013 120.942 383.013C120.453 383.012 119.974 382.885 119.549 382.644C119.549 382.03 119.388 381.428 119.081 380.897C118.775 380.366 118.333 379.925 117.802 379.618C117.621 379.504 117.414 379.436 117.201 379.418C116.987 379.401 116.772 379.436 116.575 379.52C116.392 379.644 116.247 379.817 116.157 380.019C116.067 380.22 116.034 380.443 116.064 380.662C115.582 380.485 115.067 380.416 114.555 380.461C114.044 380.505 113.548 380.661 113.104 380.919C112.471 381.317 111.963 381.885 111.638 382.558C111.313 383.231 111.183 383.981 111.265 384.724L111.247 387.84C111.32 388.449 111.232 389.067 110.991 389.631C110.75 390.195 110.364 390.686 109.873 391.054C109.316 391.305 108.703 391.406 108.095 391.346C107.487 391.287 106.906 391.069 106.408 390.715L105.713 390.349C104.231 389.332 103.016 387.971 102.172 386.383C101.205 384.84 100.656 383.071 100.581 381.251L100.586 378.183C100.635 376.396 100.31 374.618 99.6317 372.965C99.1856 371.646 98.3399 370.499 97.212 369.683L94.096 367.851C93.9708 367.736 93.805 367.676 93.6351 367.683C93.4652 367.69 93.3051 367.765 93.1901 367.89C93.0751 368.015 93.0145 368.181 93.0217 368.351C93.029 368.521 93.1034 368.681 93.2286 368.796Z" fill="#ED26B7"/>
<path d="M474.357 119.932C473.755 119.53 473.353 119.129 472.751 118.928L270.371 1.47569C268.163 0.0702804 265.553 -0.331279 262.943 0.271042C262.742 0.271042 262.541 0.271042 262.34 0.271042C258.726 0.672589 255.313 2.078 252.502 4.28651C252.302 4.28651 252.302 4.4873 252.302 4.4873C251.499 5.08962 250.896 5.69193 250.294 6.29425L256.116 3.68419C256.317 3.68419 256.719 3.68419 256.919 3.68419C255.313 5.69192 254.309 8.1012 254.309 10.7113V177.956C254.309 183.577 257.321 188.597 262.14 191.407L473.353 310.466L466.929 313.678C473.353 315.887 477.369 313.478 479.577 310.667C480.782 309.261 481.585 307.655 482.187 305.848L482.589 135.793C482.589 129.569 479.376 123.546 474.357 119.932Z" fill="#BFC9D1"/>
<path d="M326.388 233.771V258.868L391.639 296.212V271.316L326.388 233.771Z" fill="white" stroke="#1B127D" stroke-miterlimit="10"/>
<path d="M466.928 313.479L255.112 194.019C250.294 191.208 247.282 186.189 247.282 180.567V13.3226C247.282 7.50021 252.101 2.68164 257.923 2.68164C259.73 2.68164 261.537 3.08321 263.344 4.08708L465.724 121.74C471.747 125.154 475.361 131.578 475.562 138.605L475.16 308.66C475.16 311.672 472.751 314.282 469.739 314.282C468.735 314.282 467.731 314.081 466.928 313.479Z" fill="white" stroke="#1B127D" stroke-miterlimit="10"/>
<path d="M326.39 258.867L315.548 265.091L381.402 302.033L391.641 296.211L326.39 258.867Z" fill="white" stroke="#1B127D" stroke-miterlimit="10" stroke-linejoin="round"/>
<path d="M315.548 265.092V268.304L381.402 305.046V302.034L315.548 265.092Z" fill="white" stroke="#1B127D" stroke-miterlimit="10" stroke-linejoin="round"/>
<path d="M381.399 305.047L391.639 298.823V296.213L381.399 302.035V305.047Z" fill="white" stroke="#1B127D" stroke-miterlimit="10" stroke-linejoin="round"/>
<path d="M258.527 77.3672L322.574 112.904C324.18 113.908 326.188 113.306 327.192 111.699C327.393 111.298 327.593 110.696 327.593 110.093V55.8844C327.593 53.6759 326.389 51.8689 324.582 50.6643L259.933 12.1158C258.327 11.1119 256.319 11.7142 255.516 13.3204C255.315 13.722 255.114 14.3243 255.114 14.9266L255.516 72.147C255.315 74.3556 256.52 76.3633 258.527 77.3672Z" stroke="#1B127D" stroke-miterlimit="10"/>
<path d="M258.527 184.78L322.574 220.317C324.18 221.321 326.188 220.719 327.192 219.113C327.393 218.711 327.593 218.109 327.593 217.506V127.158C327.593 124.95 326.389 123.143 324.582 121.938L259.933 85.5982C258.327 84.5943 256.319 85.1966 255.516 86.8028C255.315 87.2044 255.114 87.8067 255.114 88.409L255.516 179.359C255.315 181.769 256.52 183.776 258.527 184.78Z" stroke="#1B127D" stroke-miterlimit="10"/>
<path d="M264.345 28.3789L280.808 38.4176" stroke="#1B127D" stroke-linecap="round" stroke-linejoin="round"/>
<path d="M264.345 38.6211L314.337 67.934" stroke="#1B127D" stroke-linecap="round" stroke-linejoin="round"/>
<path d="M264.345 56.6914L280.808 66.7301" stroke="#1B127D" stroke-linecap="round" stroke-linejoin="round"/>
<path d="M264.345 66.9297L314.337 96.2426" stroke="#1B127D" stroke-linecap="round" stroke-linejoin="round"/>
<path d="M285.228 119.934L315.344 136.397" stroke="#1B127D" stroke-linecap="round" stroke-linejoin="round"/>
<path d="M277.197 125.352L262.942 117.522V102.062L277.197 110.093V125.352Z" fill="#1B127D" stroke="#1B127D" stroke-linecap="round" stroke-linejoin="round"/>
<path d="M285.228 149.646L315.344 166.11" stroke="#1B127D" stroke-linecap="round" stroke-linejoin="round"/>
<path d="M277.197 155.067L262.942 147.237V131.777L277.197 139.808V155.067Z" fill="#1B127D" stroke="#1B127D" stroke-linecap="round" stroke-linejoin="round"/>
<path d="M285.228 178.359L315.344 194.823" stroke="#1B127D" stroke-linecap="round" stroke-linejoin="round"/>
<path d="M277.197 183.782L262.942 175.952V160.492L277.197 168.322V183.782Z" fill="#1B127D" stroke="#1B127D" stroke-linecap="round" stroke-linejoin="round"/>
<path d="M336.023 230.158L460.302 300.63C461.908 301.433 463.916 301.031 464.92 299.425C465.121 299.024 465.322 298.421 465.322 297.819V136.799C465.322 134.59 464.117 132.783 462.31 131.578L337.429 58.2961C335.823 57.493 334.016 57.8945 333.012 59.5007C332.811 59.9023 332.61 60.5046 332.61 61.1069L333.012 225.139C333.012 227.147 334.016 229.154 336.023 230.158Z" fill="#1B127D" stroke="#1B127D" stroke-linecap="round" stroke-linejoin="round"/>
<path d="M391.638 298.823L393.846 297.418V272.923L391.638 271.719V298.823Z" fill="white" stroke="#1B127D" stroke-miterlimit="10" stroke-linejoin="round"/>
<path d="M462.91 138.604C462.91 140.411 461.906 141.214 460.702 141.214C459.497 141.214 458.493 139.206 458.493 137.399C458.493 135.592 459.497 134.789 460.702 134.789C461.906 134.789 462.91 136.797 462.91 138.604Z" fill="white"/>
<path d="M339.437 65.7248C339.437 67.5318 338.434 68.3349 337.229 68.3349C336.024 68.3349 335.02 66.3272 335.02 64.5202C335.02 62.7133 336.024 61.9102 337.229 61.9102C338.434 61.9102 339.437 63.9179 339.437 65.7248Z" fill="white"/>
<path d="M462.91 293.803C462.91 295.61 461.906 296.413 460.702 296.413C459.497 296.413 458.493 294.405 458.493 292.598C458.493 290.791 459.497 289.988 460.702 289.988C461.906 289.988 462.91 292.197 462.91 293.803Z" fill="white"/>
<path d="M341.445 224.735C341.445 226.542 340.441 227.345 339.237 227.345C338.032 227.345 337.028 225.337 337.028 223.53C337.028 221.723 338.032 220.92 339.237 220.92C340.441 220.92 341.445 222.928 341.445 224.735Z" fill="#1B127D"/>
<path d="M434.002 298.622L323.376 232.969" stroke="#BFC9D1" stroke-miterlimit="10"/>
<path d="M321.164 79.9807C321.164 81.7877 320.16 82.5908 318.956 82.5908C317.751 82.5908 316.747 80.583 316.747 78.776C316.747 76.9691 317.751 76.166 318.956 76.166C320.16 76.166 321.164 78.1737 321.164 79.9807Z" fill="#1B127D"/>
<path d="M321.164 237.987C321.164 239.794 320.16 240.597 318.956 240.597C317.751 240.597 316.747 238.589 316.747 236.782C316.747 234.975 317.751 234.172 318.956 234.172C320.16 234.172 321.164 236.18 321.164 237.987Z" fill="#1B127D"/>
<path d="M441.027 151.856C441.027 153.663 440.023 154.466 438.819 154.466C437.614 154.466 436.61 152.458 436.61 150.651C436.61 148.844 437.614 148.041 438.819 148.041C440.023 148.041 441.027 150.049 441.027 151.856Z" fill="#1B127D"/>
<path d="M441.027 305.045C441.027 306.852 440.023 307.655 438.819 307.655C437.614 307.655 436.61 305.647 436.61 303.84C436.61 302.034 437.614 301.23 438.819 301.23C440.023 301.23 441.027 303.238 441.027 305.045Z" fill="#1B127D"/>
<path d="M307.595 76.3156C308.243 172.787 308.165 207.89 308.165 207.89C308.252 216.705 312.021 224.272 319.761 228.683L432.574 292.898C436.421 295.064 447.355 300.969 449.827 299.547C452.378 298.079 459.114 293.682 459.094 289.314L459.33 152.978C459.243 144.163 449.948 132.411 442.207 128L325.334 62.568C314.645 57.4524 307.417 66.2617 307.595 76.3156Z" fill="#BFC9D1"/>
<path d="M311.442 65.3193C308.89 66.7872 307.386 69.8431 307.406 74.2116C307.406 74.2116 307.451 80.9439 307.474 84.3101C308.123 180.782 306.973 207.466 306.973 207.466C307.059 216.281 313.413 227.017 321.154 231.429L440.184 298.728C444.031 300.895 447.549 301.061 450.021 299.639C452.572 298.171 454.077 295.115 454.056 290.747L454.49 157.492C454.403 148.677 448.049 137.941 440.308 133.53L321.279 66.2297C317.511 64.0172 313.993 63.8514 311.442 65.3193Z" fill="white" stroke="#1B127D"/>
<path d="M313.709 81.2877C313.79 78.2741 317.493 76.3759 320.083 77.6475L445.968 149.99C447.066 150.716 447.774 151.943 447.854 153.257L447.836 232.68C447.73 235.696 444.18 237.822 441.428 236.541L315.634 164.146C314.53 163.41 313.816 162.173 313.73 160.848L313.709 81.2877Z" fill="#F2F4F6"/>
<path fill-rule="evenodd" clip-rule="evenodd" d="M312.226 177.134L312.226 207.247C312.102 214.922 311.827 219.073 318.421 223.004L438.629 290.932C443.18 293.733 447.233 293.733 447.233 284.28L447.234 253.116C447.234 248.565 445.632 242.612 440.029 239.811L322.273 171.076C316.32 167.33 312.226 171.076 312.226 177.134Z" fill="#F2F4F6"/>
<path d="M379.854 264.589L378.684 100.689C378.582 90.9923 379.879 269.395 379.854 264.589Z" stroke="#1B127D" stroke-dasharray="2.96 4.73"/>
<path d="M307.028 141.532C302.086 138.744 440.421 217.727 454.154 225.568L307.028 141.532Z" stroke="#1B127D" stroke-dasharray="2.96 4.73"/>
<path opacity="0.462705" d="M380.799 175.211L377.878 173.579L377.842 180.336L371.958 176.985L371.789 179.94L377.89 183.767L378.014 190.438L380.865 192.034L380.895 185.496L385.929 188.393L385.869 185.379L380.847 182.065L380.799 175.211Z" fill="white"/>
<path fill-rule="evenodd" clip-rule="evenodd" d="M301.661 185.497L301.974 219.263C301.85 226.938 307.102 236.36 313.695 240.291L426.448 305.174C432.656 308.833 438.469 305.577 438.622 298.388L438.622 259.53C438.622 253.577 434.933 246.925 430.828 245.524L313.835 178.71C307.663 174.919 301.812 178.386 301.661 185.497Z" fill="#BFC9D1" stroke="#BFC9D1"/>
<path fill-rule="evenodd" clip-rule="evenodd" d="M300.576 185.649L300.576 224.865C300.453 232.54 300.178 236.691 306.772 240.622L423.409 307.439C429.618 311.098 435.431 307.842 435.584 300.652L435.584 261.631C435.584 257.079 433.982 251.126 428.38 248.325L310.623 179.59C304.671 175.844 300.576 179.59 300.576 185.649Z" fill="white" stroke="#1B127D"/>
<g style="mix-blend-mode:multiply">
<path fill-rule="evenodd" clip-rule="evenodd" d="M422.733 290.446C422.768 292.223 422.047 293.228 421.123 292.688L381.532 269.576C380.608 269.037 379.831 267.158 379.797 265.38L379.513 250.715C379.479 248.937 380.2 247.932 381.124 248.472L420.715 271.584C421.639 272.124 422.416 274.002 422.45 275.78L422.733 290.446ZM380.795 266.766C380.868 267.329 381.454 268.297 381.763 268.477L421.165 291.517C421.474 291.698 421.713 291.366 421.699 290.777L421.373 274.558C421.359 273.969 420.715 273.028 420.406 272.847L380.901 249.678C380.592 249.498 380.392 250.575 380.406 251.164L380.795 266.766Z" fill="#1B127D"/>
<path fill-rule="evenodd" clip-rule="evenodd" d="M346.412 227.177L333.777 220.183C332.374 219.369 331.127 219.787 330.993 221.116C330.859 222.445 331.888 224.182 333.292 224.995L345.927 231.99C347.33 232.803 348.577 232.385 348.711 231.056C348.845 229.727 347.816 227.99 346.412 227.177Z" fill="#1B127D"/>
<path fill-rule="evenodd" clip-rule="evenodd" d="M356.928 254.626L314.348 229.97C312.937 229.15 311.685 229.569 311.552 230.907C311.418 232.244 312.455 233.993 313.866 234.814L356.446 259.47C357.858 260.29 359.11 259.871 359.243 258.533C359.376 257.196 358.34 255.446 356.928 254.626Z" fill="#1B127D"/>
<path fill-rule="evenodd" clip-rule="evenodd" d="M338.326 233.15L314.386 219.494C312.966 218.678 311.701 219.104 311.561 220.446C311.42 221.788 312.457 223.538 313.878 224.354L337.817 238.01C339.237 238.826 340.502 238.4 340.643 237.058C340.783 235.716 339.746 233.966 338.326 233.15Z" fill="#1B127D"/>
<path fill-rule="evenodd" clip-rule="evenodd" d="M342.594 215.369L314.475 199.442C313.056 198.614 311.8 199.034 311.668 200.379C311.537 201.724 312.58 203.486 313.999 204.313L342.118 220.24C343.537 221.068 344.793 220.648 344.924 219.303C345.056 217.958 344.012 216.197 342.594 215.369Z" fill="#1B127D"/>
<path fill-rule="evenodd" clip-rule="evenodd" d="M327.084 216.563L314.449 209.569C313.046 208.756 311.799 209.174 311.665 210.503C311.531 211.832 312.56 213.569 313.964 214.382L326.599 221.376C328.002 222.19 329.249 221.772 329.383 220.443C329.517 219.114 328.488 217.377 327.084 216.563Z" fill="#1B127D"/>
</g>
<path d="M287.331 98.3066C287.413 95.293 293.022 90.8261 295.612 92.0978L423.5 164.873C424.598 165.599 425.306 166.826 425.386 168.14L425.368 247.562C425.345 248.215 425.17 248.854 424.856 249.427C424.542 250 424.099 250.493 423.561 250.864L422.895 251.249C422.302 251.592 421.634 251.787 420.949 251.818C420.264 251.848 419.581 251.713 418.96 251.424L289.062 177.196C287.957 176.459 287.243 175.223 287.158 173.898L287.331 98.3066Z" fill="#BFC9D1"/>
<path d="M287.254 98.445C287.335 95.4314 291.039 93.5332 293.629 94.8049L419.513 167.147C420.611 167.873 421.319 169.101 421.399 170.415L421.381 249.837C421.275 252.854 417.725 254.98 414.973 253.698L289.179 181.303C288.075 180.567 287.361 179.33 287.275 178.006L287.254 98.445Z" fill="white" stroke="#1B127D"/>
<path d="M305.545 176.298C305.405 176.056 305.301 175.875 305.266 175.814C305.231 175.754 305.629 175.605 305.75 175.535L404.892 232.737C404.942 232.736 404.991 232.749 405.034 232.773C405.078 232.798 405.114 232.834 405.139 232.877C405.164 232.92 405.177 232.969 405.176 233.019C405.176 233.069 405.162 233.118 405.136 233.161C405.026 233.268 404.89 233.346 404.743 233.388L404.487 233.294L305.545 176.298Z" fill="#BFC9D1"/>
<path d="M303.522 164.249C303.569 164.209 303.628 164.189 303.689 164.191C303.75 164.193 303.808 164.218 303.852 164.26L307.936 166.581C308.119 166.654 308.272 166.786 308.37 166.956C308.468 167.126 308.506 167.325 308.478 167.519L308.494 168.317C308.482 168.446 308.423 168.567 308.327 168.655C308.327 168.655 308.115 168.778 307.967 168.661L303.912 166.323C303.756 166.237 303.626 166.11 303.536 165.955C303.447 165.8 303.402 165.624 303.406 165.446L303.407 164.678C303.407 164.678 303.418 164.349 303.522 164.249Z" fill="#BFC9D1"/>
<path d="M308.358 158.791C308.358 158.791 308.177 158.896 308.024 158.701L303.922 156.35C303.769 156.242 303.642 156.103 303.548 155.941C303.455 155.779 303.398 155.598 303.38 155.412L303.386 154.723C303.398 154.394 303.575 154.211 303.931 154.408L308.016 156.729C308.202 156.828 308.356 156.976 308.461 157.158C308.566 157.34 308.618 157.548 308.61 157.758L308.574 158.465C308.57 158.533 308.548 158.6 308.511 158.657C308.473 158.714 308.42 158.761 308.358 158.791Z" fill="#BFC9D1"/>
<path d="M307.922 146.984C308.092 147.073 308.233 147.208 308.329 147.374C308.425 147.54 308.471 147.73 308.464 147.921L308.48 148.719C308.458 148.857 308.388 148.983 308.282 149.075C308.282 149.075 308.282 149.075 308.131 149.162C307.979 149.25 308.131 149.162 308.043 149.011L303.958 146.69C303.794 146.595 303.657 146.459 303.562 146.294C303.467 146.129 303.417 145.942 303.417 145.752L303.418 144.985C303.331 144.834 303.296 144.773 303.49 144.621C303.511 144.591 303.538 144.566 303.569 144.548C303.601 144.53 303.636 144.519 303.672 144.516C303.704 144.534 303.73 144.561 303.749 144.593C303.767 144.625 303.777 144.661 303.777 144.698L307.922 146.984Z" fill="#BFC9D1"/>
<path d="M303.229 125.365C303.219 124.928 303.4 124.823 303.774 125.051L307.854 127.294C308.019 127.406 308.157 127.554 308.257 127.727C308.356 127.9 308.416 128.093 308.431 128.292L308.425 128.981C308.426 129.055 308.41 129.128 308.379 129.195C308.348 129.262 308.302 129.321 308.245 129.368C308.245 129.368 308.033 129.49 307.815 129.253L303.813 127.005C303.66 126.897 303.532 126.758 303.439 126.596C303.346 126.434 303.288 126.253 303.271 126.067L303.229 125.365Z" fill="#BFC9D1"/>
<path d="M303.88 117.046C303.715 116.951 303.579 116.814 303.484 116.65C303.389 116.485 303.339 116.298 303.339 116.108L303.314 115.436C303.227 115.285 303.192 115.225 303.417 115.055C303.478 115.017 303.549 114.998 303.621 115C303.693 115.001 303.764 115.022 303.824 115.061L307.926 117.413C308.084 117.515 308.216 117.653 308.31 117.816C308.404 117.979 308.458 118.162 308.468 118.351L308.462 119.04C308.472 119.477 308.291 119.582 307.917 119.354L303.88 117.046Z" fill="#BFC9D1"/>
<path d="M397.27 232.617C397.425 232.713 397.554 232.847 397.645 233.005C397.736 233.163 397.788 233.342 397.794 233.524L397.798 234.369C397.795 234.44 397.775 234.509 397.741 234.571C397.706 234.633 397.658 234.686 397.6 234.726C397.6 234.726 397.418 234.83 397.265 234.636L393.211 232.298C393.041 232.209 392.9 232.073 392.804 231.907C392.708 231.741 392.662 231.551 392.669 231.36L392.658 230.64C392.68 230.502 392.75 230.376 392.856 230.284C392.856 230.284 393.037 230.179 393.19 230.374L397.27 232.617Z" fill="#BFC9D1"/>
<path d="M380.973 223.472C380.998 223.421 381.037 223.379 381.085 223.351C381.134 223.323 381.19 223.31 381.246 223.314L385.222 225.658C385.405 225.73 385.558 225.862 385.656 226.033C385.754 226.203 385.792 226.401 385.764 226.596L385.78 227.393C385.758 227.531 385.688 227.657 385.582 227.749C385.582 227.749 385.4 227.854 385.144 227.76L381.15 225.386C380.981 225.297 380.84 225.162 380.744 224.996C380.648 224.83 380.601 224.64 380.609 224.449L380.61 223.681C380.714 223.586 380.838 223.515 380.973 223.472Z" fill="#BFC9D1"/>
<path d="M369.406 218.609C369.241 218.514 369.104 218.378 369.009 218.213C368.914 218.048 368.864 217.862 368.864 217.671L368.87 216.982C368.782 216.831 368.748 216.77 368.942 216.618C369.136 216.465 369.154 216.496 369.372 216.733L373.378 219.059C373.543 219.154 373.68 219.29 373.775 219.455C373.87 219.62 373.92 219.806 373.92 219.997L373.919 220.764C374.006 220.915 373.842 221.05 373.847 221.128C373.851 221.206 373.604 221.268 373.387 221.03L369.406 218.609Z" fill="#BFC9D1"/>
<path d="M362.039 212.98L362.033 213.669C362.033 213.669 361.939 213.925 361.944 214.003C361.948 214.081 361.701 214.143 361.501 213.936L357.525 211.592C357.347 211.504 357.199 211.365 357.099 211.193C357 211.02 356.954 210.823 356.966 210.624L356.941 209.953C356.963 209.814 357.033 209.688 357.139 209.596C357.139 209.596 357.321 209.492 357.569 209.711L361.571 211.959C361.835 212.238 362 212.597 362.039 212.98Z" fill="#BFC9D1"/>
<path d="M345.114 202.823C345.114 202.823 345.357 202.683 345.527 202.908L349.529 205.155C349.701 205.251 349.844 205.391 349.943 205.562C350.041 205.732 350.091 205.927 350.088 206.124L350.082 206.813C350.07 206.943 350.01 207.063 349.914 207.152C349.914 207.152 349.733 207.256 349.58 207.062L345.573 204.736C345.406 204.636 345.266 204.494 345.169 204.325C345.071 204.155 345.018 203.964 345.014 203.768L345.015 203.001C345.015 203.001 345.011 202.923 345.114 202.823Z" fill="#BFC9D1"/>
<path d="M333.132 195.907C333.132 195.907 333.374 195.767 333.574 195.974L337.546 198.239C337.701 198.336 337.83 198.47 337.921 198.628C338.013 198.786 338.064 198.964 338.07 199.147L338.064 199.836C338.072 199.903 338.06 199.97 338.03 200.03C338.001 200.09 337.954 200.14 337.897 200.175C337.88 200.214 337.85 200.245 337.812 200.263C337.775 200.282 337.731 200.286 337.691 200.275C337.65 200.264 337.615 200.239 337.591 200.204C337.568 200.169 337.558 200.127 337.563 200.085L333.556 197.76C333.394 197.652 333.26 197.509 333.163 197.341C333.066 197.173 333.009 196.985 332.997 196.792L332.981 195.994C332.981 195.994 333.041 195.959 333.132 195.907Z" fill="#BFC9D1"/>
<path d="M321.199 189.082C321.221 189.056 321.249 189.036 321.28 189.022C321.31 189.008 321.344 189 321.377 189C321.411 188.999 321.445 189.006 321.476 189.019C321.507 189.032 321.535 189.051 321.559 189.076L325.535 191.419C325.69 191.516 325.819 191.649 325.91 191.807C326.001 191.966 326.053 192.144 326.059 192.326L326.058 193.093C326.046 193.223 325.986 193.344 325.89 193.432C325.827 193.478 325.751 193.504 325.673 193.506C325.595 193.508 325.518 193.486 325.452 193.443L321.476 191.1C321.324 191.008 321.198 190.88 321.11 190.727C321.021 190.573 320.973 190.4 320.969 190.223L320.971 189.455C320.971 189.455 321.06 189.121 321.199 189.082Z" fill="#BFC9D1"/>
<path d="M309.108 183.235L309.091 182.438C309.111 182.311 309.17 182.192 309.259 182.099C309.28 182.069 309.307 182.044 309.338 182.026C309.37 182.008 309.405 181.997 309.441 181.994L313.465 184.35C313.618 184.458 313.745 184.598 313.839 184.76C313.932 184.922 313.989 185.102 314.006 185.288L314.001 185.977C314.011 186.415 313.812 186.489 313.456 186.292L309.479 183.949C309.276 183.761 309.145 183.509 309.108 183.235Z" fill="#BFC9D1"/>
<path d="M315.766 177.415L315.795 145.934L318.911 147.765C319.997 148.524 320.792 149.63 321.165 150.901C321.749 152.477 322.029 154.149 321.992 155.829L322.023 158.958C322.137 160.836 322.669 162.665 323.58 164.311C324.502 165.987 325.843 167.394 327.472 168.397L328.25 168.835C328.809 169.246 329.469 169.497 330.16 169.56C330.851 169.624 331.546 169.497 332.171 169.194C332.736 168.826 333.183 168.302 333.458 167.685C333.732 167.069 333.822 166.386 333.717 165.72L333.734 162.604C333.657 161.923 333.763 161.234 334.039 160.607C334.315 159.98 334.752 159.437 335.306 159.034C336.365 158.422 337.623 158.503 339.1 159.384L340.591 160.218C341.148 160.612 341.796 160.858 342.474 160.932C343.153 161.006 343.839 160.906 344.468 160.642C345.032 160.253 345.478 159.718 345.758 159.094C346.038 158.47 346.142 157.781 346.057 157.102L346.057 153.956C346.002 153.295 346.135 152.632 346.443 152.044C346.75 151.456 347.219 150.968 347.793 150.636C348.368 150.304 349.025 150.142 349.688 150.17C350.351 150.198 350.992 150.414 351.537 150.792L352.831 151.497C354.456 152.472 355.804 153.846 356.75 155.487C357.728 157.116 358.305 158.953 358.433 160.849L358.4 179.948C358.505 181.865 359.045 183.733 359.979 185.41C360.934 187.061 362.237 188.484 363.799 189.579L366.579 191.039C366.93 191.213 367.316 191.308 367.707 191.315C368.296 191.283 368.851 191.033 369.266 190.615C369.68 190.197 369.925 189.639 369.952 189.051C369.924 188.619 370.048 188.191 370.303 187.84C370.621 187.339 371.111 186.97 371.681 186.802C371.974 186.719 372.281 186.697 372.583 186.738C372.884 186.779 373.174 186.882 373.434 187.041L376.033 188.606C376.574 189.008 377.215 189.255 377.886 189.322C378.557 189.389 379.234 189.273 379.845 188.987C380.404 188.589 380.846 188.047 381.122 187.418C381.399 186.79 381.501 186.099 381.416 185.417L381.398 166.509C381.325 165.835 381.449 165.155 381.756 164.551C382.063 163.946 382.539 163.444 383.126 163.105C383.713 162.766 384.386 162.605 385.063 162.641C385.74 162.678 386.391 162.91 386.938 163.311L388.303 164.136C389.896 165.16 391.207 166.566 392.117 168.227C393.07 169.879 393.65 171.719 393.818 173.619L393.816 184.592C393.797 186.277 394.056 187.954 394.582 189.555C394.824 190.725 395.436 191.786 396.329 192.58L399.375 194.291L399.364 225.802L315.766 177.415Z" fill="#F2F4F6"/>
<path d="M315.287 145.745C315.287 145.745 315.427 145.987 315.549 146.198L318.869 148.033C319.848 148.816 320.571 149.873 320.945 151.07C321.535 152.584 321.823 154.2 321.793 155.825L321.798 159.049C321.945 160.977 322.539 162.844 323.533 164.501C324.462 166.254 325.842 167.728 327.531 168.769L328.208 169.104C328.806 169.561 329.524 169.837 330.274 169.897C331.025 169.957 331.777 169.8 332.441 169.443C333.068 169.027 333.569 168.446 333.887 167.764C334.206 167.082 334.33 166.326 334.245 165.578L334.245 162.431C334.23 160.867 334.698 159.79 335.624 159.296C336.018 159.1 336.451 158.993 336.892 158.983C337.332 158.972 337.769 159.059 338.173 159.236C338.466 159.979 338.986 160.61 339.658 161.041C339.839 161.15 340.044 161.213 340.255 161.225C340.466 161.237 340.676 161.197 340.868 161.109C341.003 161.067 341.128 160.995 341.231 160.899C341.772 161.192 342.376 161.347 342.991 161.351C343.605 161.355 344.212 161.208 344.756 160.921C345.388 160.504 345.891 159.917 346.207 159.229C346.522 158.54 346.639 157.777 346.543 157.026L346.56 153.909C346.541 152.267 347.009 151.19 347.934 150.696C348.491 150.445 349.104 150.344 349.712 150.403C350.32 150.463 350.902 150.681 351.399 151.035L352.694 151.74C354.238 152.679 355.523 153.99 356.43 155.553C357.441 157.11 357.984 158.924 357.995 160.781L357.984 179.989C358.091 181.977 358.668 183.911 359.668 185.632C360.683 187.308 362.039 188.751 363.649 189.869L366.321 191.352C366.978 191.686 367.732 191.779 368.451 191.614C369.027 191.474 369.538 191.14 369.897 190.668C370.257 190.196 370.443 189.615 370.425 189.022C370.41 188.777 370.45 188.532 370.542 188.304C370.634 188.076 370.776 187.872 370.957 187.707C371.111 187.499 371.306 187.325 371.53 187.196C371.754 187.066 372.002 186.985 372.259 186.955C372.56 186.976 372.851 187.071 373.105 187.233L373.61 187.547C373.894 188.308 374.422 188.953 375.113 189.381C375.294 189.491 375.498 189.554 375.709 189.566C375.92 189.578 376.131 189.538 376.323 189.449C376.431 189.406 376.533 189.347 376.625 189.275C377.166 189.548 377.764 189.684 378.37 189.672C378.975 189.66 379.568 189.5 380.098 189.206C380.712 188.765 381.199 188.17 381.51 187.48C381.82 186.791 381.944 186.032 381.867 185.28L381.849 166.372C381.776 165.757 381.867 165.134 382.114 164.567C382.36 163.999 382.754 163.507 383.253 163.141C383.683 162.902 384.168 162.78 384.66 162.786C385.152 162.792 385.634 162.926 386.058 163.175C386.346 163.908 386.86 164.529 387.526 164.95C387.698 165.066 387.897 165.134 388.104 165.149C388.311 165.164 388.519 165.125 388.706 165.035C388.773 165.015 388.836 164.979 388.887 164.93C390.069 165.852 391.075 166.979 391.858 168.258C392.798 169.806 393.329 171.567 393.401 173.377L393.421 184.459C393.372 186.206 393.652 187.946 394.245 189.59C394.538 190.869 395.278 192.001 396.33 192.783L399.203 194.473L399.442 194.537C399.496 194.534 399.549 194.518 399.597 194.49C399.644 194.463 399.684 194.425 399.714 194.379C399.759 194.339 399.794 194.289 399.818 194.234C399.842 194.178 399.853 194.118 399.852 194.058C399.841 193.969 399.812 193.882 399.767 193.804C399.722 193.726 399.662 193.658 399.59 193.604L396.804 192.066C395.899 191.282 395.284 190.216 395.057 189.04C394.526 187.538 394.266 185.953 394.292 184.359L394.285 173.23C394.175 171.281 393.594 169.388 392.592 167.712C391.787 166.221 390.655 164.93 389.282 163.936C389.282 163.936 389.282 163.936 389.195 163.785C389.175 163.175 389.005 162.581 388.701 162.053C388.396 161.525 387.966 161.081 387.448 160.759C387.266 160.645 387.06 160.576 386.846 160.559C386.633 160.542 386.418 160.577 386.221 160.661C386.038 160.785 385.893 160.958 385.802 161.159C385.712 161.361 385.68 161.584 385.709 161.803L385.832 162.015C385.347 161.844 384.832 161.776 384.319 161.815C383.807 161.854 383.308 161.999 382.854 162.241C382.234 162.67 381.74 163.258 381.426 163.944C381.111 164.63 380.987 165.387 381.067 166.137L381.056 185.063C381.129 185.672 381.04 186.289 380.799 186.854C380.558 187.418 380.173 187.908 379.682 188.277C379.273 188.513 378.81 188.639 378.338 188.643C377.867 188.646 377.402 188.528 376.99 188.298C376.99 187.685 376.829 187.082 376.522 186.551C376.215 186.02 375.774 185.579 375.243 185.272C375.063 185.155 374.856 185.085 374.642 185.068C374.428 185.051 374.212 185.087 374.016 185.174C373.836 185.301 373.693 185.474 373.603 185.675C373.513 185.876 373.479 186.098 373.505 186.316C372.897 185.986 372.185 185.905 371.518 186.092C371.165 186.179 370.833 186.338 370.544 186.561C370.255 186.783 370.016 187.063 369.842 187.382C369.601 187.804 369.473 188.281 369.47 188.767C369.479 189.082 369.403 189.393 369.249 189.669C369.095 189.944 368.87 190.172 368.597 190.33C368.324 190.488 368.013 190.568 367.698 190.564C367.383 190.56 367.075 190.47 366.806 190.305L364.004 188.736C362.478 187.707 361.207 186.344 360.289 184.749C359.354 183.17 358.823 181.385 358.741 179.552L358.734 160.314C358.64 158.359 358.08 156.456 357.102 154.762C356.124 153.067 354.755 151.631 353.11 150.572L351.81 149.789C351.189 149.391 350.478 149.155 349.742 149.101C349.006 149.047 348.268 149.177 347.595 149.48C346.962 149.89 346.457 150.47 346.138 151.154C345.819 151.837 345.698 152.597 345.791 153.345L345.791 156.492C345.842 157.085 345.741 157.682 345.497 158.226C345.252 158.769 344.873 159.241 344.395 159.597C343.969 159.837 343.489 159.962 343 159.962C342.512 159.961 342.032 159.834 341.607 159.593C341.608 158.979 341.446 158.377 341.14 157.846C340.833 157.315 340.392 156.874 339.861 156.567C339.679 156.453 339.473 156.385 339.259 156.367C339.046 156.35 338.831 156.385 338.633 156.469C338.45 156.593 338.306 156.766 338.215 156.968C338.125 157.169 338.093 157.392 338.122 157.611C337.641 157.434 337.126 157.365 336.614 157.41C336.102 157.454 335.607 157.61 335.163 157.868C334.53 158.266 334.022 158.834 333.697 159.507C333.371 160.18 333.242 160.93 333.323 161.673L333.306 164.789C333.379 165.398 333.291 166.016 333.049 166.58C332.808 167.144 332.423 167.634 331.932 168.003C331.375 168.254 330.762 168.355 330.154 168.295C329.546 168.236 328.964 168.018 328.467 167.664L327.772 167.298C326.289 166.281 325.075 164.92 324.231 163.332C323.263 161.789 322.715 160.02 322.64 158.2L322.644 155.132C322.694 153.345 322.369 151.567 321.69 149.914C321.244 148.595 320.398 147.448 319.271 146.632L316.155 144.8C316.029 144.685 315.864 144.625 315.694 144.632C315.524 144.639 315.364 144.714 315.249 144.839C315.134 144.964 315.073 145.13 315.08 145.3C315.088 145.47 315.162 145.63 315.287 145.745Z" fill="#ED26B7"/>
<path d="M502.915 387.807L503.168 396.531C503.168 397.71 502.41 398.653 501.4 399.361L430.169 439.208C425.622 441.802 420.065 441.566 415.519 438.737L278.614 358.57C277.604 357.863 276.846 356.92 276.593 355.741V355.505L276.341 347.017L280.382 349.375L280.635 350.318L352.371 312.357C356.665 310.235 361.717 310.471 365.758 312.829L500.137 391.58V389.694L502.915 387.807Z" fill="#BFC9D1"/>
<path d="M278.59 344.397L278.59 344.398L278.597 344.394L352.6 305.257C356.739 303.214 361.611 303.442 365.508 305.716L500.641 384.936C500.641 384.937 500.641 384.937 500.641 384.937C501.88 385.673 502.551 386.932 502.607 388.155C502.662 389.37 502.113 390.528 500.922 391.135L500.913 391.139L500.904 391.144L429.926 430.991L429.923 430.993C425.546 433.49 420.185 433.27 415.784 430.531L415.784 430.531L415.773 430.524L278.868 350.358L278.834 350.338L278.797 350.324C276.209 349.317 276.156 345.636 278.59 344.397Z" fill="white" stroke="#1B127D"/>
<path d="M299.837 332.633C301.858 335.227 308.172 335.227 310.951 333.812L336.968 319.665C339.746 318.014 338.736 315.421 336.463 313.299L299.837 332.633Z" fill="white" stroke="#1B127D" stroke-miterlimit="10"/>
<path d="M459.417 405.46C459.762 402.744 456.671 400.17 452.515 399.711C448.359 399.252 444.711 401.082 444.366 403.798C444.022 406.513 447.112 409.087 451.269 409.546C455.425 410.005 459.073 408.176 459.417 405.46Z" stroke="#1B127D" stroke-miterlimit="10.0003"/>
<path d="M473.365 409.969L451.642 422.23C451.137 422.466 451.137 422.938 451.39 423.409C451.642 423.881 452.147 423.881 452.653 423.881L474.375 411.62C474.881 411.384 474.881 410.913 474.628 410.441C474.375 409.969 473.87 409.734 473.365 409.969Z" fill="#1B127D"/>
<path d="M300.707 355.849C298.931 354.756 298.273 349.972 299.966 348.92L372.763 309.38C373.593 309 374.582 309.017 375.398 309.428L422.609 336.907C422.992 337.147 423.311 337.47 423.541 337.85C423.772 338.23 423.428 341.613 423.457 342.052L423.448 342.57C423.44 343.031 423.317 343.484 423.089 343.889C422.86 344.295 422.534 344.641 422.137 344.899L351.406 383.519C350.568 383.9 346.74 382.607 345.916 382.196L300.707 355.849Z" fill="#BFC9D1"/>
<path d="M300.762 352.51C298.987 351.417 299.182 348.623 300.875 347.572L371.838 308.996C372.667 308.615 373.657 308.633 374.473 309.043L422.033 336.631C423.801 337.74 423.798 340.524 422.04 341.666L351.079 380.17C350.24 380.552 349.243 380.534 348.419 380.123L300.762 352.51Z" fill="white" stroke="#1B127D"/>
<path d="M345.139 374.148C344.944 374.144 344.798 374.142 344.749 374.141C344.7 374.14 344.754 373.858 344.756 373.764L414.67 336.474C414.688 336.445 414.713 336.421 414.743 336.405C414.774 336.388 414.808 336.38 414.843 336.38C414.878 336.381 414.912 336.391 414.942 336.408C414.971 336.426 414.996 336.451 415.012 336.48C415.036 336.581 415.034 336.686 415.006 336.786L414.858 336.901L345.139 374.148Z" fill="#BFC9D1"/>
<path d="M338.898 370.265C338.891 370.225 338.9 370.183 338.923 370.149C338.947 370.114 338.982 370.089 339.023 370.079L341.883 368.53C341.992 368.45 342.126 368.408 342.263 368.41C342.4 368.413 342.533 368.46 342.639 368.544L343.122 368.811C343.196 368.863 343.247 368.939 343.265 369.025C343.265 369.025 343.262 369.19 343.139 369.235L340.281 370.76C340.173 370.821 340.05 370.851 339.925 370.849C339.8 370.847 339.679 370.812 339.573 370.748L339.114 370.481C339.114 370.481 338.921 370.36 338.898 370.265Z" fill="#BFC9D1"/>
<path d="M337.373 365.58C337.373 365.58 337.371 365.721 337.199 365.741L334.316 367.29C334.196 367.34 334.067 367.365 333.936 367.363C333.806 367.361 333.677 367.331 333.559 367.276L333.149 367.034C332.956 366.913 332.91 366.747 333.156 366.61L336.015 365.061C336.141 364.989 336.286 364.951 336.432 364.954C336.579 364.956 336.722 364.999 336.845 365.076L337.255 365.342C337.295 365.368 337.327 365.404 337.348 365.446C337.369 365.487 337.377 365.534 337.373 365.58Z" fill="#BFC9D1"/>
<path d="M330.14 361.733C330.254 361.666 330.386 361.632 330.52 361.634C330.654 361.637 330.784 361.675 330.896 361.747L331.379 362.014C331.454 362.075 331.505 362.159 331.522 362.252C331.522 362.252 331.522 362.252 331.52 362.369C331.517 362.487 331.52 362.369 331.398 362.367L328.538 363.916C328.422 363.978 328.291 364.009 328.158 364.007C328.026 364.005 327.896 363.969 327.782 363.903L327.323 363.636C327.201 363.633 327.152 363.632 327.131 363.467C327.12 363.445 327.115 363.421 327.115 363.397C327.116 363.372 327.122 363.348 327.133 363.326C327.156 363.314 327.181 363.308 327.207 363.309C327.232 363.309 327.258 363.316 327.28 363.329L330.14 361.733Z" fill="#BFC9D1"/>
<path d="M315.505 356.931C315.239 356.785 315.242 356.644 315.513 356.507L318.324 354.934C318.45 354.878 318.588 354.85 318.728 354.853C318.867 354.855 319.004 354.888 319.129 354.948L319.54 355.191C319.584 355.216 319.622 355.251 319.651 355.292C319.68 355.333 319.699 355.38 319.706 355.429C319.706 355.429 319.703 355.594 319.483 355.637L316.697 357.164C316.578 357.214 316.448 357.239 316.318 357.237C316.187 357.235 316.058 357.205 315.941 357.15L315.505 356.931Z" fill="#BFC9D1"/>
<path d="M310.761 353.669C310.645 353.731 310.514 353.762 310.381 353.76C310.248 353.758 310.118 353.721 310.004 353.655L309.593 353.436C309.471 353.434 309.423 353.433 309.402 353.245C309.401 353.196 309.416 353.149 309.442 353.108C309.469 353.066 309.507 353.033 309.552 353.012L312.436 351.464C312.554 351.408 312.684 351.38 312.815 351.383C312.947 351.385 313.076 351.417 313.192 351.477L313.603 351.72C313.869 351.866 313.866 352.007 313.595 352.143L310.761 353.669Z" fill="#BFC9D1"/>
<path d="M410 343.391C410.114 343.335 410.24 343.307 410.367 343.31C410.495 343.312 410.62 343.344 410.732 343.404L411.239 343.695C411.281 343.722 411.315 343.757 411.34 343.798C411.364 343.839 411.379 343.886 411.382 343.933C411.382 343.933 411.379 344.074 411.208 344.095L408.349 345.62C408.235 345.687 408.103 345.721 407.969 345.719C407.835 345.717 407.705 345.678 407.593 345.607L407.158 345.364C407.083 345.303 407.032 345.219 407.015 345.126C407.015 345.126 407.018 344.985 407.189 344.964L410 343.391Z" fill="#BFC9D1"/>
<path d="M398.667 349.611C398.646 349.579 398.634 349.542 398.635 349.504C398.636 349.466 398.648 349.43 398.671 349.399L401.504 347.92C401.613 347.84 401.747 347.798 401.885 347.8C402.022 347.803 402.154 347.85 402.261 347.934L402.744 348.201C402.819 348.262 402.869 348.346 402.886 348.439C402.886 348.439 402.884 348.58 402.735 348.695L399.877 350.173C399.763 350.24 399.631 350.275 399.497 350.272C399.363 350.27 399.233 350.231 399.121 350.16L398.662 349.893C398.642 349.799 398.644 349.703 398.667 349.611Z" fill="#BFC9D1"/>
<path d="M391.594 354.589C391.478 354.651 391.347 354.683 391.214 354.68C391.082 354.678 390.952 354.642 390.838 354.576L390.427 354.333C390.305 354.331 390.257 354.33 390.235 354.165C390.214 354 390.238 354 390.458 353.957L393.292 352.455C393.408 352.393 393.54 352.362 393.672 352.364C393.805 352.367 393.935 352.403 394.049 352.469L394.508 352.736C394.63 352.738 394.652 352.879 394.7 352.904C394.748 352.928 394.697 353.092 394.476 353.135L391.594 354.589Z" fill="#BFC9D1"/>
<path d="M385.575 356.882L385.986 357.125C385.986 357.125 386.105 357.268 386.154 357.292C386.202 357.317 386.15 357.481 385.954 357.524L383.121 359.003C383.004 359.075 382.867 359.112 382.728 359.109C382.589 359.107 382.454 359.065 382.34 358.989L381.929 358.77C381.854 358.709 381.804 358.625 381.787 358.532C381.787 358.532 381.789 358.391 382.01 358.324L384.796 356.798C385.058 356.742 385.332 356.772 385.575 356.882Z" fill="#BFC9D1"/>
<path d="M373.406 363.11C373.406 363.11 373.41 362.922 373.605 362.902L376.391 361.375C376.51 361.309 376.645 361.275 376.783 361.277C376.921 361.28 377.055 361.318 377.171 361.389L377.582 361.632C377.656 361.683 377.707 361.76 377.725 361.846C377.725 361.846 377.722 361.987 377.551 362.007L374.717 363.51C374.597 363.571 374.462 363.602 374.325 363.6C374.188 363.598 374.055 363.562 373.936 363.496L373.477 363.229C373.477 363.229 373.429 363.204 373.406 363.11Z" fill="#BFC9D1"/>
<path d="M364.95 367.617C364.95 367.617 364.953 367.429 365.149 367.386L367.934 365.883C368.048 365.827 368.174 365.799 368.302 365.801C368.43 365.804 368.555 365.836 368.666 365.896L369.077 366.138C369.12 366.157 369.156 366.187 369.181 366.225C369.206 366.263 369.22 366.307 369.22 366.353C369.237 366.376 369.245 366.404 369.242 366.432C369.24 366.46 369.227 366.486 369.206 366.506C369.185 366.526 369.157 366.537 369.127 366.539C369.098 366.54 369.069 366.532 369.046 366.514L366.212 368.016C366.09 368.072 365.956 368.1 365.82 368.098C365.685 368.095 365.552 368.063 365.431 368.002L364.948 367.735C364.948 367.735 364.949 367.688 364.95 367.617Z" fill="#BFC9D1"/>
<path d="M356.568 372.127C356.561 372.105 356.559 372.082 356.561 372.06C356.564 372.037 356.572 372.015 356.583 371.996C356.595 371.976 356.611 371.959 356.63 371.945C356.649 371.932 356.671 371.922 356.694 371.917L359.527 370.439C359.641 370.383 359.767 370.355 359.895 370.358C360.023 370.36 360.148 370.392 360.259 370.452L360.718 370.719C360.792 370.771 360.843 370.847 360.861 370.933C360.866 370.986 360.854 371.038 360.827 371.084C360.8 371.13 360.759 371.166 360.71 371.189L357.877 372.668C357.767 372.724 357.645 372.752 357.521 372.75C357.397 372.747 357.276 372.715 357.169 372.655L356.71 372.388C356.71 372.388 356.542 372.221 356.568 372.127Z" fill="#BFC9D1"/>
<path d="M348.72 377.066L348.236 376.799C348.167 376.743 348.117 376.668 348.094 376.585C348.083 376.562 348.078 376.538 348.078 376.514C348.079 376.489 348.085 376.465 348.096 376.443L350.954 374.942C351.074 374.891 351.204 374.866 351.334 374.868C351.465 374.871 351.593 374.9 351.711 374.955L352.122 375.198C352.387 375.344 352.361 375.484 352.114 375.621L349.281 377.1C349.095 377.152 348.897 377.14 348.72 377.066Z" fill="#BFC9D1"/>
<path d="M351.273 367.222L332.43 356.275L334.647 355.114C335.492 354.752 336.44 354.678 337.336 354.904C338.49 355.114 339.592 355.533 340.585 356.138L342.47 357.207C343.635 357.793 344.922 358.122 346.236 358.168C347.571 358.218 348.896 357.934 350.083 357.343L350.625 357.047C351.072 356.867 351.46 356.574 351.746 356.197C352.032 355.821 352.207 355.376 352.25 354.911C352.233 354.457 352.08 354.017 351.809 353.645C351.538 353.273 351.162 352.984 350.725 352.813L348.865 351.721C348.43 351.529 348.055 351.23 347.779 350.853C347.503 350.476 347.335 350.035 347.292 349.576C347.307 348.753 347.808 348.056 348.867 347.51L349.902 346.94C350.339 346.756 350.719 346.468 351.007 346.102C351.296 345.737 351.483 345.307 351.551 344.852C351.521 344.393 351.36 343.95 351.087 343.571C350.814 343.193 350.439 342.894 350.002 342.707L348.118 341.615C347.702 341.417 347.353 341.11 347.111 340.729C346.87 340.347 346.746 339.908 346.754 339.461C346.762 339.015 346.901 338.58 347.156 338.207C347.411 337.835 347.771 337.54 348.194 337.358L349.082 336.856C350.25 336.258 351.557 335.958 352.881 335.983C354.208 335.984 355.516 336.29 356.697 336.874L368.124 343.525C369.31 344.13 370.622 344.467 371.963 344.511C373.295 344.534 374.616 344.277 375.833 343.757L377.708 342.661C377.938 342.519 378.133 342.329 378.279 342.106C378.471 341.756 378.521 341.349 378.42 340.965C378.319 340.58 378.073 340.246 377.73 340.026C377.461 339.892 377.249 339.672 377.131 339.404C376.945 339.046 376.9 338.635 377.005 338.248C377.061 338.051 377.158 337.866 377.291 337.707C377.424 337.547 377.59 337.416 377.779 337.321L379.651 336.366C380.086 336.193 380.464 335.91 380.746 335.546C381.027 335.183 381.201 334.753 381.25 334.301C381.212 333.84 381.046 333.398 380.77 333.02C380.493 332.642 380.115 332.344 379.677 332.156L368.346 325.601C367.916 325.409 367.554 325.101 367.302 324.714C367.05 324.328 366.921 323.879 366.929 323.423C366.937 322.967 367.083 322.523 367.348 322.145C367.613 321.768 367.987 321.473 368.423 321.297L369.408 320.797C370.594 320.234 371.908 319.966 373.23 320.018C374.562 320.042 375.873 320.347 377.071 320.91L383.642 324.721C384.644 325.317 385.742 325.75 386.89 326.002C387.678 326.27 388.533 326.285 389.33 326.046L391.45 324.884L410.318 335.832L351.273 367.222Z" fill="#F2F4F6"/>
<path d="M332.136 356.502C332.136 356.502 332.331 356.506 332.502 356.509L334.795 355.232C335.616 354.939 336.509 354.89 337.36 355.09C338.479 355.276 339.55 355.67 340.513 356.252L342.445 357.369C343.653 357.953 344.984 358.259 346.335 358.261C347.719 358.335 349.097 358.051 350.328 357.439L350.773 357.164C351.262 356.979 351.685 356.661 351.991 356.249C352.297 355.837 352.473 355.349 352.498 354.842C352.475 354.336 352.307 353.846 352.013 353.426C351.719 353.005 351.31 352.671 350.832 352.46L348.948 351.368C348.005 350.833 347.529 350.189 347.566 349.484C347.59 349.189 347.682 348.902 347.834 348.644C347.986 348.387 348.195 348.165 348.446 347.994C348.997 348.083 349.562 348.002 350.062 347.764C350.192 347.698 350.304 347.602 350.387 347.484C350.469 347.367 350.521 347.232 350.537 347.09C350.561 346.998 350.563 346.901 350.542 346.808C350.912 346.598 351.223 346.304 351.446 345.951C351.669 345.598 351.799 345.197 351.823 344.784C351.801 344.275 351.63 343.781 351.331 343.36C351.033 342.939 350.617 342.607 350.133 342.401L348.273 341.309C347.282 340.75 346.805 340.107 346.842 339.402C346.892 338.993 347.052 338.605 347.307 338.275C347.561 337.945 347.901 337.685 348.292 337.522L349.179 337.02C350.297 336.456 351.544 336.171 352.807 336.191C354.103 336.148 355.385 336.465 356.501 337.104L368 343.779C369.229 344.408 370.595 344.747 371.986 344.768C373.354 344.764 374.707 344.484 375.955 343.944L377.804 342.919C378.24 342.656 378.567 342.254 378.727 341.782C378.851 341.401 378.834 340.991 378.681 340.62C378.527 340.248 378.246 339.939 377.885 339.744C377.733 339.668 377.6 339.559 377.497 339.427C377.393 339.295 377.322 339.142 377.288 338.98C377.219 338.819 377.185 338.647 377.188 338.473C377.191 338.299 377.232 338.127 377.306 337.969C377.427 337.803 377.589 337.668 377.777 337.577L378.146 337.396C378.705 337.496 379.281 337.416 379.786 337.166C379.916 337.1 380.028 337.004 380.111 336.887C380.194 336.769 380.246 336.634 380.262 336.492C380.275 336.415 380.276 336.336 380.266 336.257C380.624 336.041 380.921 335.743 381.132 335.39C381.342 335.037 381.46 334.639 381.474 334.232C381.43 333.725 381.249 333.237 380.948 332.819C380.647 332.4 380.237 332.066 379.759 331.849L368.428 325.294C368.034 325.123 367.693 324.854 367.442 324.514C367.191 324.175 367.038 323.778 366.998 323.363C367.01 323.032 367.111 322.71 367.292 322.428C367.472 322.147 367.726 321.916 368.027 321.758C368.57 321.846 369.127 321.765 369.618 321.527C369.749 321.468 369.862 321.377 369.946 321.263C370.029 321.149 370.08 321.016 370.093 320.877C370.106 320.831 370.106 320.782 370.096 320.736C371.073 320.375 372.11 320.186 373.157 320.179C374.422 320.174 375.668 320.48 376.778 321.067L383.422 324.903C384.451 325.538 385.594 325.981 386.792 326.21C387.663 326.485 388.607 326.451 389.454 326.116L391.499 325.047L391.623 324.932C391.641 324.899 391.651 324.863 391.651 324.826C391.652 324.789 391.644 324.753 391.627 324.72C391.619 324.68 391.602 324.642 391.577 324.609C391.552 324.577 391.521 324.549 391.484 324.529C391.427 324.504 391.364 324.491 391.302 324.49C391.239 324.488 391.176 324.5 391.118 324.523L389.195 325.594C388.4 325.843 387.54 325.828 386.755 325.55C385.664 325.335 384.621 324.934 383.676 324.366L377.008 320.506C375.801 319.893 374.458 319.57 373.095 319.566C371.912 319.512 370.732 319.717 369.642 320.163C369.642 320.163 369.642 320.163 369.52 320.161C369.148 319.961 368.731 319.852 368.305 319.844C367.88 319.837 367.459 319.931 367.08 320.117C366.947 320.182 366.831 320.277 366.744 320.395C366.657 320.512 366.601 320.648 366.58 320.791C366.588 320.939 366.64 321.083 366.728 321.205C366.817 321.327 366.938 321.423 367.08 321.482L367.251 321.485C366.974 321.705 366.748 321.978 366.587 322.287C366.426 322.596 366.334 322.934 366.316 323.28C366.349 323.787 366.524 324.275 366.822 324.695C367.119 325.114 367.528 325.449 368.006 325.663L379.337 332.241C379.728 332.41 380.066 332.676 380.317 333.01C380.568 333.345 380.723 333.738 380.767 334.149C380.762 334.466 380.671 334.777 380.503 335.05C380.336 335.324 380.098 335.55 379.812 335.708C379.445 335.495 379.026 335.379 378.598 335.371C378.169 335.363 377.746 335.465 377.372 335.664C377.237 335.728 377.121 335.822 377.033 335.94C376.946 336.058 376.89 336.194 376.872 336.338C376.883 336.486 376.935 336.628 377.023 336.75C377.111 336.871 377.232 336.968 377.372 337.029C376.955 337.264 376.651 337.647 376.523 338.096C376.448 338.33 376.424 338.577 376.453 338.821C376.483 339.064 376.564 339.299 376.693 339.511C376.859 339.796 377.099 340.035 377.388 340.206C377.58 340.31 377.739 340.462 377.849 340.646C377.959 340.83 378.014 341.04 378.011 341.252C378.007 341.464 377.944 341.671 377.827 341.851C377.711 342.032 377.547 342.178 377.352 342.275L375.404 343.346C374.239 343.869 372.966 344.128 371.68 344.103C370.398 344.094 369.138 343.781 368.011 343.191L356.487 336.515C355.282 335.891 353.941 335.553 352.574 335.528C351.208 335.504 349.855 335.794 348.63 336.375L347.693 336.852C347.232 337.072 346.834 337.4 346.537 337.805C346.24 338.211 346.053 338.681 345.992 339.175C346.01 339.682 346.176 340.175 346.47 340.596C346.765 341.017 347.177 341.35 347.658 341.557L349.543 342.649C349.917 342.826 350.238 343.092 350.475 343.421C350.713 343.751 350.859 344.133 350.9 344.532C350.891 344.861 350.793 345.182 350.617 345.463C350.441 345.744 350.192 345.977 349.895 346.138C349.528 345.925 349.109 345.809 348.681 345.801C348.253 345.793 347.83 345.894 347.455 346.094C347.322 346.159 347.206 346.254 347.119 346.372C347.032 346.489 346.976 346.625 346.955 346.768C346.964 346.916 347.015 347.06 347.103 347.182C347.192 347.304 347.313 347.4 347.455 347.459C347.176 347.675 346.949 347.948 346.792 348.258C346.635 348.569 346.55 348.909 346.544 349.254C346.555 349.757 346.713 350.247 346.999 350.668C347.285 351.089 347.688 351.425 348.162 351.636L350.022 352.728C350.413 352.897 350.751 353.162 351.002 353.497C351.253 353.832 351.408 354.225 351.452 354.635C351.402 355.044 351.242 355.432 350.988 355.762C350.734 356.092 350.394 356.352 350.003 356.515L349.534 356.789C348.392 357.29 347.14 357.518 345.886 357.454C344.613 357.475 343.357 357.177 342.24 356.589L340.404 355.521C339.351 354.872 338.17 354.442 336.936 354.259C335.985 354.058 334.994 354.147 334.1 354.514L331.882 355.674C331.768 355.707 331.672 355.781 331.616 355.882C331.559 355.982 331.546 356.1 331.579 356.21C331.613 356.32 331.691 356.412 331.795 356.467C331.899 356.522 332.022 356.535 332.136 356.502Z" fill="#ED26B7"/>
<path d="M447.206 396.512C432.816 404.115 411.023 403.474 398.609 395.091C396.32 393.777 394.372 391.943 392.921 389.737C391.471 387.531 390.559 385.015 390.259 382.392V359.471C390.45 361.573 391.07 363.615 392.08 365.468C393.09 367.322 394.469 368.949 396.132 370.249C396.929 370.946 397.765 371.597 398.637 372.198C411.106 380.554 432.844 381.222 447.234 373.647C449.409 372.527 451.438 371.142 453.274 369.525C456.408 366.985 458.466 363.354 459.035 359.359V380.191C459.425 386.151 455.389 392.223 447.206 396.512Z" fill="white" stroke="#1B127D"/>
<path d="M424.556 379.301C443.571 379.301 458.986 370.473 458.986 359.583C458.986 348.693 443.571 339.865 424.556 339.865C405.541 339.865 390.126 348.693 390.126 359.583C390.126 370.473 405.541 379.301 424.556 379.301Z" fill="white" stroke="#1B127D"/>
<g style="mix-blend-mode:multiply">
<path d="M437.31 363.121L452.981 370.251V392.81C452.981 392.81 443.935 401.833 425.732 401.833C425.453 395.901 424.841 379.302 424.841 379.302L420.833 367.159C423.71 367.626 426.651 367.509 429.482 366.815C432.312 366.121 434.975 364.865 437.31 363.121Z" fill="#ED27B7"/>
</g>
<path d="M424.554 367.55C433.316 367.55 440.419 363.983 440.419 359.584C440.419 355.185 433.316 351.619 424.554 351.619C415.792 351.619 408.688 355.185 408.688 359.584C408.688 363.983 415.792 367.55 424.554 367.55Z" fill="#1B127D"/>
<path d="M245.762 241.805C244.75 241.482 243.444 241.378 241.965 241.558L172.022 250.085C166.223 250.791 162.416 255.067 165.83 257.038L179.625 265.003L122.203 298.155C119.188 299.896 118.508 302.326 120.684 303.582L140.387 314.958C142.564 316.215 146.773 315.822 149.788 314.081L207.21 280.929L221.004 288.893C224.419 290.864 231.824 288.666 233.048 285.318L247.816 244.937C248.34 243.5 247.467 242.346 245.762 241.805Z" fill="white" stroke="#ED26B7" stroke-width="2" stroke-linecap="round" stroke-linejoin="round" stroke-dasharray="5 5"/>
</svg>
