<svg width="543" height="478" viewBox="0 0 543 478" fill="none" xmlns="http://www.w3.org/2000/svg"><g clip-path="url(#clip0_1830_35919)"><path fill-rule="evenodd" clip-rule="evenodd" d="M485.72 352.612c0 3.004-1.969 5.914-5.908 8.167 0 0-6.076 3.46-9.115 5.189-87.074 49.576-187.284 107.1-187.284 107.1-7.97 4.506-20.911 4.506-28.881 0L57.9075 361.438C53.9692 359.185 52 356.181 52 353.271c0-3.003 1.9692-5.913 5.9075-8.166L254.307 232.816c7.97-4.506 20.91-4.506 28.881 0l196.624 111.63c3.939 2.159 5.908 5.163 5.908 8.166Z" fill="#fff" stroke="#BFC9D1" stroke-miterlimit="10" stroke-linejoin="round"/><path d="m285.837 267.459 152.196 87.871-148.702 85.853-152.197-87.87 148.703-85.854Z" fill="#fff"/><path fill="#ED26B7" d="M212.623 299.302h9.77831v9.88299H212.623z"/><path fill="#000" fill-opacity=".2" d="M212.623 299.302h9.77831v9.88299H212.623z"/><path fill="#ED26B7" d="M323.928 339.866h9.77831v9.88299H323.928z"/><path fill="#000" fill-opacity=".2" d="M323.928 339.866h9.77831v9.88299H323.928z"/><path fill="#ED26B7" d="M398.723 366.497h9.77831v8.48486H398.723z"/><path fill="#000" fill-opacity=".2" d="M398.723 366.497h9.77831v8.48486H398.723z"/><circle r="4" transform="matrix(.866025 .5 -.866025 .5 403.61 374.981)" fill="#ED26B7"/><circle r="4" transform="matrix(.866025 .5 -.866025 .5 403.61 374.981)" fill="#000" fill-opacity=".2"/><path d="m349.014 371.577-20.01-23.596-59.268-.93-42.096-10.844-10.363-28.954-79.851 46.102 152.014 87.766 114.171-65.917-54.597-3.627Z" fill="#F2F4F6"/><path d="m349.014 363.577-20.01-23.596-59.268-.93-42.096-10.844-10.363-28.954-79.852 46.102 152.014 87.766 114.172-65.917-54.597-3.627Z" fill="#F2F4F6" stroke="#1B127D" stroke-linejoin="round"/><path d="m289.434 433.125-.102 8.054 114.263-65.965v-8.006l-114.161 65.917Z" fill="#BFC9D1" stroke="#1B127D" stroke-linejoin="round"/><path d="M400.385 377.085v-8.429c1.043-.091 3.805-.273 3.805-.273v8.702h-3.805Z" fill="#ED26B7"/><path d="M400.385 377.085v-8.429c1.043-.091 3.805-.273 3.805-.273v8.702h-3.805Z" fill="#000" fill-opacity=".2"/><path stroke="#1B127D" d="M400.761 368.384v8.702"/><path d="m217.277 299.253 10.363 28.954 42.096 10.844 59.268.93 20.01 23.596 54.597 3.627" stroke="#ED26B7" stroke-width="2.5"/><rect width="175.741" height="2.03758" rx="1.01879" transform="matrix(.866025 .5 -.866025 .5 130.076 357.388)" fill="#BFC9D1"/><rect width="16" height="5.09394" rx="1" transform="matrix(.866025 .5 -.866025 .5 222.924 275.474)" fill="#BFC9D1"/><rect width="16" height="5.09394" rx="1" transform="matrix(.866025 .5 -.866025 .5 199.5 288.997)" fill="#BFC9D1"/><rect width="16" height="5.09394" rx="1" transform="matrix(.866025 .5 -.866025 .5 176.078 302.521)" fill="#BFC9D1"/><rect width="16" height="5.09394" rx="1" transform="matrix(.866025 .5 -.866025 .5 152.656 316.044)" fill="#BFC9D1"/><circle r="4" transform="matrix(.866025 .5 -.866025 .5 328.816 339.866)" fill="#ED26B7"/><circle r="4" transform="matrix(.866025 .5 -.866025 .5 349.361 363.104)" fill="#ED26B7"/><circle r="4" transform="matrix(.866025 .5 -.866025 .5 403.61 366.497)" fill="#ED26B7"/><circle r="4" transform="matrix(.866025 .5 -.866025 .5 269.655 338.972)" fill="#ED26B7"/><circle r="4" transform="matrix(.866025 .5 -.866025 .5 227.847 328.098)" fill="#ED26B7"/><circle r="4" transform="matrix(.866025 .5 -.866025 .5 217.512 299.544)" fill="#ED26B7"/><rect width="16" height="5.09394" rx="1" transform="matrix(.866025 .5 -.866025 .5 129.23 329.567)" fill="#BFC9D1"/><rect width="20.3758" height="5.09394" rx="1" transform="matrix(.866025 .5 -.866025 .5 119.575 363.449)" fill="#BFC9D1"/><rect width="20.3758" height="5.09394" rx="1" transform="matrix(.866025 .5 -.866025 .5 164.426 389.344)" fill="#BFC9D1"/><rect width="20.3758" height="5.09394" rx="1" transform="matrix(.866025 .5 -.866025 .5 209.278 415.238)" fill="#BFC9D1"/><rect width="20.3758" height="5.09394" rx="1" transform="matrix(.866025 .5 -.866025 .5 254.129 441.133)" fill="#BFC9D1"/><rect width="49.5182" height="5.09394" rx="1" transform="matrix(.866025 .5 -.866025 .5 359.477 314.897)" fill="#1B127D"/><rect width="78.2569" height="5.09394" rx="1" transform="matrix(.866025 .5 -.866025 .5 344.657 294.67)" fill="#1B127D"/><path d="M425.961 358.715c.232.401.392.798.481 1.189.08.385.085.758.014 1.118-.072.361-.223.716-.455 1.065-.223.345-.526.68-.909 1.004-.374.329-.833.65-1.376.964-.188.108-.415.162-.682.162-.267 0-.499-.056-.695-.169l-23.258-13.428c-.196-.113-.294-.247-.294-.401 0-.155.094-.286.281-.394.544-.314 1.096-.581 1.657-.803.571-.216 1.154-.388 1.751-.517.606-.133 1.221-.221 1.845-.262.624-.041 1.27-.039 1.938.008.677.051 1.363.144 2.059.278.703.128 1.403.285 2.098.47.695.186 1.377.389 2.045.61.677.216 1.328.437 1.952.664.205.067.53.085.975.054.446-.031.9-.129 1.364-.294.196-.072.521-.239.975-.501.464-.268.669-.623.615-1.065-.044-.324-.009-.633.107-.926.125-.288.308-.564.548-.826.018-.278.08-.566.187-.864.116-.304.259-.607.428-.911.187-.303.397-.61.628-.918.25-.309.526-.607.829-.895.33-.324.677-.628 1.043-.911.374-.278.757-.525 1.149-.741.401-.221.802-.411 1.203-.571.419-.159.838-.288 1.256-.386.758-.17 1.498-.226 2.219-.17.74.057 1.426.227 2.059.51.427-.103.882-.16 1.363-.17.49-.015.989.015 1.497.093.553.092 1.11.234 1.671.424.561.19 1.105.427 1.631.71.401.211.775.442 1.122.695.357.247.682.506.976.779.294.273.553.556.775.849.241.293.441.589.602.887.187.355.312.705.374 1.05.071.339.08.674.027 1.003-.036.329-.138.646-.308.949-.16.309-.369.605-.628.888-.481.494-1.029.939-1.644 1.335-.606.401-1.274.746-2.005 1.034-.436.17-.891.324-1.363.463s-.967.26-1.484.363c-.517.103-1.06.19-1.631.262-.561.067-1.14.118-1.737.154-.49.119-1.003.204-1.537.255-.526.057-1.07.072-1.631.046-.775-.036-1.39.067-1.845.309-.445.237-.739.427-.882.571-.294.273-.472.54-.534.803-.045.262 0 .457.133.586.392.36.776.736 1.15 1.127.383.386.735.779 1.056 1.181.321.401.592.805.815 1.211Z" fill="#1B127D"/><path d="M147 105.874h14.273c7.128 0 13.585 4.207 16.465 10.727L209 187.374M100 212.874h37.363c7.255 0 14.341 2.192 20.329 6.289l47.808 32.711M425.5 212.874h-47.863c-7.255 0-14.341 2.192-20.329 6.289L309.5 251.874M392 105.874h-14.273c-7.128 0-13.585 4.207-16.465 10.727L330 187.374M271 73.874v38" stroke="#BFC9D1" stroke-linecap="round" stroke-linejoin="round"/><path d="M264.76 105.874C216.92 150.219 193 172.391 193 172.391v57.691c4.268 35.83 28.188 53.984 71.76 54.462 47.434-42.068 71.151-81.157 71.151-117.268v-55.201l-71.151-6.201Z" fill="#DFE4E8"/><path d="m336 111.874 10.5 6-15-1 4.5-5Z" fill="#DFE4E8"/><path d="M275.155 111.749c-47.84 44.345-71.76 66.517-71.76 66.517v57.691c4.267 35.83 28.188 53.984 71.76 54.462 47.433-42.068 71.15-81.157 71.15-117.268V117.95l-71.15-6.201Z" fill="#fff" stroke="#1B127D" stroke-miterlimit="10" stroke-linejoin="round"/><path clip-rule="evenodd" d="M274.715 125.397c-40.753 37.715-61.129 56.573-61.129 56.573v48.881c3.636 30.346 24.012 45.656 61.129 45.932 40.406-35.785 60.61-68.976 60.61-99.572V130.44l-60.61-5.043Z" stroke="#1B127D" stroke-linecap="round" stroke-linejoin="round"/><path d="M274.961 125.733v28.941M274.571 245.405v31.288" stroke="#1B127D" stroke-linecap="round" stroke-linejoin="round"/><path fill-rule="evenodd" clip-rule="evenodd" d="M291.234 183.701c.854.606 1.055 1.79.448 2.644l-21.247 29.925c-.563.793-1.635 1.032-2.481.553l-9.628-5.454c-.912-.516-1.232-1.673-.716-2.585.516-.911 1.674-1.231 2.585-.715l8.138 4.609 20.257-28.529c.606-.854 1.79-1.055 2.644-.448Z" fill="#ED26B7" stroke="#ED26B7" stroke-width="3" stroke-linecap="round" stroke-linejoin="round"/><circle r="44.8666" transform="matrix(.866025 -.5 2e-8 1 274.75 200.042)" stroke="#1B127D"/><path d="M137.374 353.414v-8.096l152.064 87.804-.106 8.053-151.958-87.761Z" fill="#BFC9D1" stroke="#1B127D" stroke-linejoin="round"/><rect x="411.5" y="176.374" width="131" height="73" rx="8.5" fill="#fff"/><path d="M459.999 194.465c-3.481-1.902-7.431-2.776-11.39-2.52-3.959.256-7.763 1.632-10.97 3.968-3.257 2.352-5.764 5.596-7.217 9.341-.763 1.936-1.226 3.978-1.372 6.054h5.204c.36-3.864 2.132-7.459 4.976-10.099 2.844-2.64 6.56-4.139 10.44-4.212 3.981-.072 7.842 1.363 10.809 4.017 2.968 2.654 4.823 6.332 5.193 10.296h5.191c-.338-5.66-3.511-12.81-10.864-16.845Zm-8.564 13.227c-.34.408-.797.703-1.31.846-.512.142-1.056.126-1.558-.048-.372-.099-.713-.29-.991-.556-.278-.266-.485-.598-.6-.965-.116-.367-.136-.758-.06-1.135.075-.377.245-.729.494-1.023.456-.496 1.081-.802 1.752-.859.672-.056 1.34.141 1.872.554.163.133.311.284.474.434.182-.134.384-.283.595-.438-.248-.355-.571-.651-.948-.866-.693-.386-1.494-.535-2.279-.424-.42.04-.828.162-1.199.361-.372.199-.701.469-.966.796-.262.314-.453.68-.561 1.075-.108.394-.131.806-.066 1.209.051.517.238 1.01.543 1.43.304.419.715.751 1.19.959.572.256 1.201.36 1.826.302.762-.026 1.493-.316 2.067-.819.142-.127.267-.274.407-.419l-.633-.459c-.023.021-.037.032-.049.045Zm4.765 1.545h.907l.948-1.881h2.514l.956 1.881h.885c-1.031-2.089-2.052-4.158-3.083-6.246-1.047 2.091-2.084 4.163-3.127 6.246Zm2.246-2.658c.292-.58.578-1.148.875-1.739.298.593.583 1.16.875 1.739h-1.75Zm-20.87 2.655h.908c.316-.629.632-1.256.946-1.881h2.511c.32.629.64 1.257.959 1.884h.883l-3.083-6.248c-1.046 2.091-2.082 4.162-3.124 6.245Zm2.241-2.651c.292-.581.579-1.151.879-1.746.298.596.583 1.165.873 1.746h-1.752Zm17.132-.798c.137-.211.221-.452.246-.702.024-.251-.012-.503-.106-.736-.094-.234-.243-.441-.434-.604-.191-.164-.418-.279-.663-.336-.292-.069-.592-.104-.892-.103-.606-.017-1.213-.008-1.82-.009-.033 0-.067.006-.098.009v5.926h.795v-2.665c.204 0 .39.007.575-.001.384-.016.77-.02 1.151-.064.249-.015.491-.087.707-.211.216-.125.401-.297.539-.504Zm-.655-.555c-.061.164-.171.304-.315.403-.144.098-.315.15-.49.147-.497.025-.996.006-1.503.006v-1.74c.523.014 1.036.012 1.546.046.135.003.267.037.385.102.118.064.219.156.294.268.075.111.121.24.136.374.014.133-.004.269-.053.394Zm-12.039 4.001h.803v-5.926h-.803v5.926Zm53.53 15.441h1.391v4.385h1.556v-4.385h1.391v-1.23h-4.338v1.23Zm4.783 4.385h1.555v-5.615h-1.555v5.615Zm7.33 0h1.555v-5.615h-1.555v5.615Zm-4.78-4.506h.001v1.123h-.001v1.151h.001v2.232h1.555v-2.232h1.93v-1.151h-1.93v-1.123h2.505v-1.109h-4.06l-.001 1.109Zm7.325 0h.001v.99h-.001v1.15h.001v1.264h-.001v1.109h4.061v-1.109h-2.505v-1.264h1.93v-1.15h-1.93v-.99h2.505v-1.109h-4.061v1.109Zm-24.679 4.513h4.061v-1.109h-2.505v-1.264h1.929v-1.15h-1.929v-.99h2.505v-1.109h-4.061v5.622Zm31.898-5.622h-2.318v5.622h2.318c.663 0 1.298-.263 1.766-.731.469-.469.732-1.104.732-1.767v-.625c0-.663-.263-1.298-.731-1.767-.469-.468-1.104-.732-1.767-.732Zm-.762 4.506v-3.397c.549 0 1.699-.241 1.699 1.692 0 1.934-1.15 1.705-1.699 1.705Zm-21.545-2.753c0-.23-.045-.458-.133-.671-.089-.212-.218-.405-.38-.568-.163-.163-.356-.292-.569-.38-.213-.088-.441-.134-.671-.134h-2.919v5.615h1.556v-2.109h.566l.866 2.109h1.751l-.959-2.336c.271-.152.496-.374.653-.642.157-.268.239-.573.239-.884Zm-2.19.64h-.926v-1.28h.926c.17 0 .332.068.452.188s.188.282.188.452c0 .17-.068.332-.188.452s-.282.188-.452.188Zm-10.276-8.208h2.133v-6.015h1.908v-.479l1.828 3.291v3.203h2.133v-3.203l2.498-4.499h-2.279l-1.285 2.419-1.286-2.419h-7.558v1.687h1.908v6.015Zm23.333-6.181v-1.521h-5.571v7.712h5.571v-1.521h-3.436v-1.734h2.647v-1.578h-2.647v-1.358h3.436Zm-23.419 11.834h-.206c-.657 0-1.287.261-1.751.725-.465.465-.726 1.095-.726 1.751v.97c0 .325.064.647.189.947.124.301.307.574.537.804.23.23.503.412.803.537.301.124.623.188.948.188h.206c.6 0 1.177-.238 1.602-.661.426-.424.666-.999.669-1.6h-1.48c-.119.826-.495 1.112-.943 1.112-.542 0-.982-.4-.982-1.71 0-1.309.44-1.89.982-1.89.438 0 .81.392.936 1.225h1.487v-.127c0-.603-.239-1.18-.665-1.606-.426-.426-1.004-.665-1.606-.665Zm18.325-18.502h.277c.808 0 1.583-.32 2.156-.89.572-.571.896-1.345.899-2.153h-1.991c-.159 1.112-.666 1.497-1.268 1.497-.73 0-1.321-.539-1.321-2.301s.591-2.543 1.321-2.543c.59 0 1.089.526 1.258 1.648h2.002v-.172c0-.81-.322-1.588-.895-2.161s-1.351-.895-2.161-.895h-.277c-.884 0-1.732.351-2.357.976-.625.625-.976 1.473-.976 2.357v1.304c0 .438.086.871.254 1.275.167.405.413.772.722 1.082.31.309.677.555 1.082.722.404.168.837.254 1.275.254Zm-2.181 9.48c.004-.003.008-.006.012-.008.069-.053.134-.109.197-.169.014-.013.03-.025.043-.039.049-.048.093-.1.137-.152.025-.028.051-.055.074-.085.03-.038.055-.079.083-.119.032-.047.066-.093.095-.142.001-.002.003-.004.004-.006h-.001c.215-.367.328-.784.328-1.209 0-.315-.062-.628-.183-.92-.121-.291-.298-.556-.521-.78-.224-.223-.489-.4-.78-.521-.292-.121-.605-.183-.92-.183h-4.005v7.702h2.134v-2.893l1.871.002c.516 0 1.019-.168 1.432-.478Zm-3.303-1.051v-1.755h1.271c.232 0 .456.092.62.257.165.164.257.388.257.62 0 .233-.092.456-.257.621-.165.164-.388.257-.62.257h-1.271Zm16.916-3.282h-2.134v7.702h2.134v-7.702Zm1.378 7.702h2.133v-7.702h-2.133v7.702Zm-20.422-12.849h.414c.469 0 .932-.108 1.352-.316.42-.209.787-.511 1.071-.884.5-.598.774-1.353.773-2.133v-1.304c.001-.778-.271-1.532-.769-2.129-.285-.375-.652-.678-1.073-.887-.421-.209-.884-.317-1.354-.317h-.414c-.47 0-.933.108-1.354.317-.421.209-.788.512-1.072.886-.499.598-.771 1.352-.77 2.13v1.304c-.001.78.273 1.535.773 2.133.284.373.651.675 1.071.884.421.208.883.316 1.352.316Zm-.887-5.422.002-.007c.042-.117.094-.23.154-.338.01-.018.021-.035.032-.052.017-.027.034-.054.052-.08.013-.02.028-.039.042-.058.016-.021.032-.04.049-.06.015-.017.03-.035.046-.051.018-.02.038-.038.058-.056.013-.013.026-.026.04-.037.033-.028.067-.053.102-.076.009-.006.018-.01.027-.016.029-.017.058-.033.088-.047.011-.005.021-.01.032-.014.029-.013.06-.024.09-.034.01-.003.02-.006.029-.008.034-.009.069-.017.104-.022.007-.001.013-.003.02-.004.042-.005.084-.008.127-.008s.085.003.127.008c.007.001.013.003.02.004.035.005.069.013.104.022.009.002.019.005.029.009.03.009.061.02.09.033.011.004.022.009.032.014.03.014.059.03.088.047.009.006.018.01.027.016.035.023.07.048.102.076.014.011.027.025.041.037.019.018.039.036.058.056.015.016.03.034.045.052.017.019.033.039.049.059.014.019.029.038.043.058.017.026.034.053.051.08.011.017.022.034.032.052.061.108.112.222.154.339l.002.006c.163.508.239 1.041.224 1.575.011.436-.041.872-.154 1.294-.003.01-.006.021-.009.03-.015.049-.031.094-.048.138-.038.101-.085.198-.14.29-.004.006-.008.013-.012.019-.021.034-.044.066-.067.097l-.009.012c-.025.032-.05.062-.076.089l-.001.002c-.077.081-.166.149-.264.203-.002.001-.005.003-.008.004-.022.012-.045.022-.068.031-.016.007-.031.014-.047.02-.018.007-.037.013-.056.019-.023.007-.046.014-.069.019-.014.004-.029.007-.043.01-.032.006-.064.011-.096.014-.008.001-.016.003-.024.004-.042.004-.084.006-.127.006s-.085-.003-.127-.006c-.008-.001-.016-.003-.024-.004-.033-.003-.064-.008-.096-.014-.014-.003-.029-.006-.043-.01-.023-.005-.047-.012-.07-.019-.018-.006-.037-.012-.055-.019-.016-.006-.032-.013-.048-.02-.022-.009-.045-.019-.067-.031-.003-.001-.006-.003-.009-.005-.098-.053-.187-.121-.263-.202l-.001-.002c-.026-.027-.051-.057-.076-.089l-.009-.012c-.023-.031-.046-.063-.067-.097-.004-.006-.008-.013-.012-.019-.055-.092-.102-.189-.14-.29-.017-.044-.033-.089-.048-.138-.004-.009-.006-.02-.009-.03-.113-.422-.165-.858-.154-1.294-.015-.534.061-1.067.224-1.575Zm-6.369 3.92c-1.047 0-1.367-1.036-1.405-1.202l-1.055.242-.893.167c.182.998 1.003 2.408 3.29 2.408 2.954 0 3.247-1.959 3.247-2.575 0-1.603-1.318-2.013-2.776-2.514-.898-.308-1.154-.411-1.154-.808 0-.398.384-.627.844-.627.62 0 .973.343 1.247.902l1.715-.6c-.342-.977-1.006-1.908-3.04-1.908s-2.92 1.302-2.92 2.282c0 1.362.638 1.933 2.25 2.486 1.186.408 1.696.523 1.696 1.058 0 .391-.335.689-1.046.689Zm25.258-4.758c.586.173.663.766.472 1.193-.191.427-1.002 1.138-1.388 1.428-.615.463-2.433 1.868-2.433 1.868v1.692h6.046v-1.692h-3.336s.489-.34 1.619-1.143c1.129-.803 1.589-1.76 1.589-2.398 0-.638-.016-2.658-2.894-2.658-2.877 0-3.122 2.578-3.122 2.578l1.877.543c.191-1.431 1.131-1.541 1.57-1.411Z" fill="#1E74BA"/><path d="M450.271 228.544c-3.362.097-6.663-.915-9.392-2.88-3.585-2.556-5.723-6.04-6.505-10.369h-5.235c1.091 10.321 10.311 19.234 22.136 18.51 10.918-.668 18.621-9.408 19.504-18.515h-5.238c-.591 3.648-2.443 6.972-5.233 9.394-2.791 2.422-6.343 3.788-10.037 3.86Zm-1.984-5.798c.418.176.868.262 1.321.253.453-.009.9-.112 1.311-.303.383-.16.724-.409.995-.724.27-.316.463-.691.563-1.094.176-.636.163-1.308-.036-1.936-.099-.344-.267-.663-.493-.939-.227-.276-.507-.503-.824-.668-.469-.243-.994-.359-1.522-.337-.114 0-.229-.002-.344.002-.071.004-.141.012-.211.024-.442.047-.866.2-1.236.447-.37.246-.674.579-.888.968-.295.544-.424 1.163-.369 1.779.08 1.181.618 2.067 1.733 2.528Zm.509-4.689c.382-.16.804-.196 1.208-.104.404.092.769.308 1.044.617.345.445.515 1.002.475 1.565-.04.562-.286 1.089-.691 1.481-.894.789-2.746.625-3.15-1.074-.038-.162-.052-.331-.065-.415-.034-.961.4-1.75 1.179-2.07Zm-4.955 4.008c-.233.009-.464-.043-.671-.15-.208-.106-.384-.264-.512-.459-.243.266-.481.527-.726.795.192.221.432.396.702.512.52.223 1.095.286 1.65.181.927-.157 1.519-.757 1.58-1.642.04-.306-.018-.616-.165-.886-.147-.271-.376-.488-.654-.62-.243-.122-.507-.202-.761-.304-.286-.1-.567-.218-.839-.351-.129-.071-.226-.188-.271-.327-.046-.139-.037-.291.025-.424.036-.098.095-.186.173-.256.077-.071.17-.122.272-.149.251-.094.525-.109.785-.043s.494.211.669.414c.242-.256.485-.512.739-.779-.055-.048-.097-.087-.143-.122-.445-.329-.99-.493-1.542-.465-.48-.002-.951.131-1.359.382-.918.568-1.026 2.2.154 2.726.282.125.581.21.867.326.249.086.489.198.715.334.082.059.15.136.197.225.048.089.075.188.078.289.003.101-.017.202-.059.294-.042.092-.105.173-.184.236-.2.172-.456.265-.72.263Zm10.127.028c.934.921 2.055 1.092 3.274.711.445-.151.828-.443 1.09-.833l-.84-.598c-.029.033-.053.058-.075.085-.823 1.006-2.155.621-2.692-.075-.191-.25-.329-.537-.405-.842-.076-.306-.089-.624-.037-.934.055-.476.284-.914.642-1.232.566-.506 1.692-.755 2.431.048.019.017.04.033.062.047l.785-.578c-.214-.259-.477-.472-.775-.628-.545-.264-1.161-.347-1.757-.237-.375.043-.737.162-1.064.35-.327.188-.612.441-.837.743-.433.602-.637 1.339-.575 2.077.002.708.279 1.388.773 1.896Zm-2.142 2.119c-.125.117-.203.276-.221.446-.017.171.027.342.126.482.059.078.134.141.221.186.087.045.182.069.28.072.097.01.195-.004.285-.041.09-.037.17-.096.232-.171.013.346-.046.522-.219.602-.125.061-.266.077-.402.047s-.257-.105-.345-.212c-.055.062-.104.118-.158.18.109.106.243.183.39.223.147.04.301.042.449.007.115-.016.222-.066.307-.146.085-.079.143-.182.166-.296.022-.09.032-.182.032-.275.003-.371.002-.743.001-1.114 0-.034-.006-.068-.009-.099h-.202c-.005.062-.009.115-.015.182-.114-.128-.273-.207-.444-.221-.171-.013-.341.04-.474.148Zm.927.514c.003.062-.007.124-.029.182-.022.058-.056.111-.099.155-.044.045-.095.08-.153.104-.057.024-.119.035-.181.034-.12-.003-.234-.054-.318-.141-.083-.087-.129-.203-.128-.323-.004-.061.005-.122.026-.179.021-.057.054-.11.096-.154s.092-.079.148-.103c.056-.024.117-.037.178-.037.061-.001.121.01.178.033.056.022.108.056.151.099.043.043.077.095.099.152.023.056.034.117.032.178Zm-7.202-.625h-.199v1.914h.21v-.819c.341.28.684.297.943.052.117-.121.189-.279.204-.448.014-.168-.03-.336-.124-.476-.093-.126-.229-.213-.382-.244-.113-.029-.232-.027-.344.006-.112.033-.213.095-.293.18-.006-.069-.01-.115-.015-.164v-.001Zm.469.162c.062 0 .124.012.181.037.057.025.108.061.151.106.042.046.075.099.095.158.021.058.03.121.025.183.003.061-.006.122-.027.179-.022.057-.054.109-.097.153-.042.045-.092.08-.148.104-.056.024-.117.036-.178.036-.062.001-.123-.012-.181-.036-.057-.024-.109-.059-.152-.103-.043-.045-.077-.098-.099-.156-.023-.057-.033-.119-.031-.181-.002-.062.008-.124.031-.182.022-.058.056-.11.099-.155.043-.045.094-.08.151-.105.057-.024.118-.037.18-.038Zm3.068.47c-.003.093.012.184.046.27.034.086.086.164.151.228.066.065.144.116.23.149.087.033.179.047.271.042.091.006.182-.008.267-.041.085-.032.162-.082.227-.146.065-.064.116-.141.149-.225.033-.085.048-.176.044-.267.005-.091-.009-.182-.042-.267-.033-.085-.083-.162-.148-.226-.065-.064-.142-.114-.227-.146-.086-.032-.177-.046-.267-.041-.091-.006-.183.007-.268.038-.086.032-.164.08-.23.143-.066.063-.118.139-.153.224-.035.084-.052.174-.05.265Zm1.147.009c.004.062-.005.124-.026.182-.021.058-.054.112-.097.157-.042.045-.094.08-.151.104-.058.024-.119.035-.181.034-.061 0-.121-.013-.177-.037-.056-.025-.106-.06-.149-.103-.042-.044-.075-.096-.097-.153-.022-.057-.032-.117-.03-.178-.004-.062.005-.124.027-.182.021-.059.054-.112.096-.157.043-.046.094-.082.151-.106.057-.025.118-.038.18-.038.062-.002.124.01.181.034.057.023.109.059.152.104.042.045.075.098.096.156.021.059.029.121.025.183Zm5.175-.004c-.003.093.014.184.048.27.035.085.087.163.153.227s.145.114.231.146c.087.033.179.047.271.042.091.004.182-.011.267-.044.085-.033.162-.083.226-.147.064-.065.114-.142.147-.227.033-.085.047-.176.043-.267.004-.091-.012-.182-.045-.267-.033-.084-.084-.161-.149-.225-.066-.063-.143-.113-.229-.144-.085-.032-.176-.045-.267-.039-.091-.005-.182.009-.268.041-.085.031-.163.081-.228.144-.066.064-.117.14-.152.224-.034.085-.051.175-.048.267v-.001Zm1.147.009c.004.061-.005.122-.026.179-.021.057-.054.11-.096.154-.041.044-.092.079-.148.103-.056.024-.116.036-.177.036-.062.001-.124-.011-.181-.035-.057-.024-.109-.06-.152-.104-.043-.045-.077-.098-.099-.156-.022-.058-.032-.12-.029-.182-.003-.062.007-.123.029-.181.022-.058.055-.111.098-.156.043-.045.095-.08.152-.105.057-.024.119-.036.181-.036s.123.012.18.037c.057.024.108.06.15.106.043.045.075.099.095.158.02.058.028.12.023.182Zm-14.333.648c.107.036.222.038.331.006.108-.031.205-.094.276-.181.009.067.015.112.021.159h.183v-.789c0-.274-.092-.434-.289-.497-.237-.075-.632-.021-.754.188.039.038.08.078.119.116.429-.22.703-.153.706.185-.064-.004-.129-.003-.193.002-.157.016-.312.046-.464.091-.081.027-.149.083-.191.158-.043.074-.056.161-.039.245.008.078.041.15.094.208.053.057.123.096.2.11v-.001Zm.113-.588c.157-.027.316-.046.475-.057.025.328-.139.504-.419.482-.054.003-.106-.013-.148-.047-.042-.033-.07-.081-.078-.134-.006-.027-.006-.056-.001-.083.006-.027.017-.053.033-.076s.036-.042.06-.057c.024-.014.05-.024.078-.027v-.001Zm5.306-.223c-.157.015-.312.044-.464.087-.081.027-.15.082-.193.156-.044.073-.06.16-.045.244.007.077.038.151.09.209.052.058.122.098.198.113.107.038.222.042.331.012.109-.03.206-.093.278-.18.013.061.023.11.032.155h.182c0-.28.003-.553-.001-.826.009-.089-.009-.178-.052-.256-.043-.078-.108-.142-.188-.182-.134-.056-.281-.072-.423-.047-.143.026-.275.092-.381.19l.122.145c.08-.069.177-.114.28-.13.104-.016.21-.002.306.041.046.026.082.066.104.114.021.048.026.102.014.153-.063-.004-.127-.003-.19.002Zm-.261.646c-.052-.001-.101-.021-.138-.057-.038-.035-.061-.083-.066-.134-.01-.049 0-.1.027-.141.027-.042.07-.071.118-.082.165-.036.336-.047.506-.068.022.338-.16.523-.447.482Zm7.429-.033c-.081.026-.167.025-.247-.003-.08-.028-.148-.082-.195-.152-.063.051-.116.094-.171.139.077.105.185.182.309.221.123.039.257.038.379-.004.094-.012.18-.058.242-.13.061-.071.094-.163.091-.257-.002-.187-.107-.305-.325-.363-.099-.02-.197-.047-.292-.081-.052-.023-.127-.1-.118-.13.012-.034.03-.064.053-.09.024-.026.053-.047.085-.062.068-.024.143-.025.211 0 .069.024.126.071.164.134.062-.041.12-.079.177-.116-.137-.3-.621-.299-.814-.109-.043.039-.074.088-.092.143-.017.054-.021.113-.009.169.011.056.037.109.075.152.037.044.085.077.14.096.115.043.238.066.356.103.085.026.17.082.142.175-.014.037-.035.071-.063.1-.028.028-.061.05-.098.065Zm3.223-.781c.054-.05.108-.099.162-.149-.134-.133-.315-.206-.504-.205-.188.001-.368.078-.501.212-.12.146-.179.333-.164.522.015.189.103.365.244.491.135.102.303.15.471.134.168-.016.325-.094.438-.22-.047-.044-.094-.088-.149-.14-.037.045-.083.082-.135.108-.052.027-.109.043-.168.046-.058.004-.116-.004-.171-.023-.055-.02-.106-.051-.148-.09-.085-.092-.135-.21-.143-.334-.008-.124.027-.247.099-.349.041-.048.092-.087.15-.114.058-.026.12-.04.184-.041.063 0 .126.013.184.04.058.026.109.064.151.112Zm-13.486-.136c.077-.021.158-.019.233.006.076.026.141.073.19.136.064-.058.116-.104.168-.151-.126-.13-.298-.206-.48-.211-.181-.005-.358.061-.491.184-.127.137-.197.317-.196.504.001.187.074.366.203.501.128.116.296.179.47.176.173-.002.339-.071.464-.191l-.123-.17c-.244.188-.474.198-.638.034-.082-.09-.13-.206-.137-.328-.007-.122.027-.242.098-.342.065-.07.147-.122.239-.148Zm9.606-.894c-.066-.026-.117-.045-.18-.07-.278.709-.554 1.411-.832 2.119l.183.069c.279-.714.553-1.413.829-2.118Zm-3.126 1.186c.004-.046.018-.09.041-.13.022-.04.053-.075.089-.102.037-.027.079-.047.124-.057.045-.01.091-.01.136-.001.024.001.049.004.08.006v-.216c-.094-.015-.19-.005-.278.028-.089.034-.167.09-.227.163-.01-.067-.017-.114-.024-.159h-.18v1.285H451c0-.096-.002-.18.001-.263-.002-.185.007-.37.027-.554Zm-7.586.812h.204v-1.282h-.204v1.282Zm5.004-.154c-.003.022-.001.045.006.066.007.021.018.04.034.056.015.016.034.029.055.037.02.008.043.011.065.009.101.001.16-.057.17-.174 0-.021-.004-.042-.013-.062-.008-.019-.02-.037-.036-.051-.015-.015-.033-.026-.053-.033-.02-.007-.042-.01-.063-.008-.022-.003-.044-.001-.065.006-.021.007-.04.019-.056.034-.016.015-.028.034-.036.055-.007.021-.01.043-.008.065Zm-4.749-1.627c-.003-.104-.053-.166-.151-.17-.021-.003-.043-.001-.063.006-.02.006-.039.017-.054.031-.016.015-.028.032-.036.052-.008.02-.012.041-.011.062-.003.021-.001.043.005.063.006.02.017.039.031.055.015.015.032.027.052.035.02.008.041.012.062.01.02.003.041.001.061-.005.02-.006.038-.016.054-.03.015-.013.028-.03.037-.049.008-.019.013-.039.013-.06Zm33.536-3.566v.438H527v-.438h-49.767Zm0 12.687H527v-.438h-49.767v.438Z" fill="#242021"/><path d="M473.036 215.027v-3.449H427v3.449h46.036Z" fill="#818386"/><rect x="411.5" y="176.374" width="131" height="73" rx="8.5" stroke="#BFC9D1"/><rect x="205.5" y="1.37402" width="131" height="73" rx="8.5" fill="#fff"/><path d="M264.728 45.6273c.305-.1763.652-.2664 1.004-.2608.278-.0029.553.0565.804.174.252.1175.475.2901.651.5049l.653-.654c-.249-.3109-.569-.5578-.933-.7202-.433-.1844-.902-.268-1.372-.2443-.47.0237-.928.154-1.34.381-.439.2523-.801.6202-1.047 1.0636-.249.4717-.38.9972-.381 1.5309-.001.5338.129 1.0596.378 1.5319.243.4438.603.8119 1.042 1.0637.454.2591.968.392 1.49.3848.422.0051.839-.0796 1.226-.2484.365-.1615.687-.4085.937-.7201l-.653-.6623c-.175.2169-.397.3914-.649.5104-.252.119-.528.1795-.806.1768-.352.0057-.699-.0845-1.004-.2607-.294-.172-.534-.423-.693-.7244-.163-.3262-.249-.6862-.249-1.0512 0-.365.086-.725.249-1.0512.159-.3014.399-.5524.693-.7244Zm-1.009-6.7228h2.787v2.4833h1.001v-5.7943h-1.001v2.3922h-2.787v-2.3923h-1.001v5.7944h1.001v-2.4833Zm5.017 2.4833h1.001v-5.7943h-1.001v5.7943Zm5.241-5.546c-.383-.1732-.8-.2581-1.22-.2484h-1.787v5.7944h1.001v-1.6721h.786c.42.0098.837-.0751 1.22-.2483.332-.1525.61-.4022.797-.716.182-.3377.277-.7153.277-1.0989 0-.3835-.095-.7611-.277-1.0988-.188-.312-.466-.5601-.797-.7119Zm-.273 2.6654c-.226.1986-.557.2979-.993.2979h-.74V36.504h.74c.436 0 .767.0993.993.298.226.1987.339.4829.339.8526 0 .3697-.113.6539-.339.8526Zm10.045-2.9138-2.677 5.7944h1.139l.587-1.341h2.974l.595 1.341h1.156l-2.686-5.7944h-1.088Zm-.577 3.6091 1.113-2.5329 1.122 2.5329h-2.235Zm-10.089 5.6053c-.46-.2525-.977-.3848-1.502-.3848s-1.041.1323-1.502.3848c-.442.2523-.805.6219-1.05 1.0679-.25.4701-.381.9946-.381 1.5272 0 .5326.131 1.0571.381 1.5272.245.446.608.8156 1.05 1.0679.461.2525.977.3848 1.502.3848s1.042-.1323 1.502-.3848c.441-.2516.804-.6196 1.05-1.0637.251-.4717.381-.9975.381-1.5314s-.13-1.0597-.381-1.5314c-.246-.4441-.609-.8121-1.05-1.0637Zm.163 3.6421c-.156.3016-.393.5538-.684.7286-.299.1708-.637.2607-.981.2607s-.682-.0899-.98-.2607c-.292-.1747-.529-.427-.685-.7286-.164-.3248-.249-.6834-.249-1.0471 0-.3637.085-.7223.249-1.0471.156-.3015.393-.5537.685-.7284.298-.1709.636-.2608.98-.2608s.682.0899.981.2608c.291.1748.528.4269.684.7284.164.3248.249.6834.249 1.0471 0 .3637-.085.7223-.249 1.0471Zm33.778-3.9443v.9106h1.805v4.8839h1.012v-4.8839h1.805v-.9106h-4.622Zm-1.608 3.9237-3.003-3.9236h-.833V50.3h1.004v-3.9235l3.003 3.9236h.833v-5.7943h-1.004v3.9235Zm-25.076-3.9236-1.695 3.0884-1.733-3.0884h-1.262V50.3h1.072v-4.006l1.897 3.3439 1.919-3.3937.007 4.0559h1.065l-.008-5.7944h-1.262Zm5.49.2484c-.387-.1734-.809-.2583-1.233-.2484h-1.811V50.3h1.012v-1.6721h.799c.424.0099.846-.075 1.233-.2484.335-.1516.616-.4013.806-.7159.183-.3371.28-.7149.28-1.0989 0-.3839-.097-.7617-.28-1.0988-.191-.3128-.472-.5608-.806-.7118Zm-.276 2.6653c-.228.1986-.563.2979-1.004.2979h-.752v-2.301h.752c.441 0 .776.0993 1.004.2979.228.1987.342.4829.342.8527s-.114.654-.342.8525Zm-6.382-7.3725.595 1.3409h1.156l-2.686-5.7944h-1.087l-2.677 5.7944h1.138l.587-1.3409h2.974Zm-1.487-3.3773 1.122 2.5329h-2.235l1.113-2.5329Zm11.172 7.8361h-1.012v5.7944h3.86v-.9106h-2.848v-4.8838Zm3.689 5.7944h1.011v-5.7944h-1.011v5.7944Zm-40.75 6.5224c.025 1.3926.043 2.4058.051 2.9036.015.065.016.1324.004.1978.001.0815.002.1317.002.1457.003.2749.044.548.124.8111.078-.2636.121-.5363.128-.8111.004-.0912.038-1.5528.092-3.8778-.016.0201-.031.0403-.046.0603-.132.1813-.25.3719-.355.5704Zm-4.138-29.0112c.326-.3468.607-.7329.836-1.1494-.166.3485-.771 1.7065-.173 1.8218.647.1247 1.398-.0787 2.73-1.7646-.038-2.1656-.071-4.0493-.097-5.4836l-.71.0003c-.03.0003-.061.0006-.094.0006-.406 0-1.063-.043-1.489-.691-.47-.714-.493-1.4553-.511-1.9966-.025-.7692-.213-2.1784-1.197-2.975-.673-.5445-2.506-.9442-4.198-.2784-.558.2196-1.674.7872-2.753 1.3361-.987.502-2.256 1.1125-2.664 1.1125.657-.3003 1.524-.7347 2.485-1.2678 1.087-.6026 2.249-1.2394 2.821-1.4644 1.156-.4551 3.364-.5951 4.501.3252 1.078.8728 1.283 2.3808 1.31 3.2019.017.5332.038 1.1968.461 1.839.369.5617.967.5564 1.325.5532l.074-.0005h.634c-.003-.1783-.006-.3478-.009-.5101-.631.0412-1.55.0796-1.939-.7755-.473-1.0415.03-3.6688-1.556-4.7813-1.586-1.1125-4.142-.8285-6.391.4734-2.248 1.3018-5.231 2.9824-8.9 4.45-3.669 1.4675-5.965 2.0593-6.391 2.1303-.426.071.332.3593 1.906.3905 1.574.0312 2.876-.0828 2.876-.0828l11.527-5.2548s-9.941 4.9471-10.77 5.4915c-.828.5444-1.515.722-1.444 1.2072.071.4852.687.4379 2.438.3906 1.752-.0474 2.121-.1997 2.725-.3721.604-.1724 7.051-3.1666 7.051-3.1666s-6.924 3.4321-7.918 4.2251c-.994.7929.071 1.0533.758 1.077.686.0236 2.536-.071 3.57-.5918 1.034-.5207 4.253-2.58 4.253-2.58s-3.184 2.2876-3.799 2.8049c-.488.4098-.764.7825-.628 1.219.174.5562 1.125.4971 2.403.0473 0 0 1.314-.4497 1.811-.8995.497-.4497 1.893-1.6806 1.893-1.6806s-1.657 1.7043-2.059 2.4381c-.402.7337-.473.9231-.287 1.3274.278.6048 2.394-.0256 2.985-.6647.441-.4963.852-1.0179 1.231-1.5622 0 0-.639 1.0415-.781 1.6332-.142.5918-.307 1.0652.284 1.1362.592.071 1.207.0947 1.87-.639Zm3.929 13.5341c.062-.0414.121-.0815.18-.1208l.002-.0014c.11-.0742.214-.1452.308-.2115.154-.1075.312-.2142.471-.3198.026-1.1394.052-2.2846.078-3.4224-.31-.1361-.651-.2715-1.01-.4085v-.0002c-.022-.0085-.045-.0171-.068-.0256-.035-.0133-.069-.0266-.105-.0399v.0004c-.231-.0872-.467-.175-.71-.2648-.297-.1096-.599-.2213-.901-.3361-1.993 1.0476-2.39 1.545-2.39 2.5245 0 1.3679 1.18 1.9781 3.208 3.2736.326-.2363.648-.4527.937-.6475Zm-2.442-2.4466s-.141-.8719 2.114-1.8838c.061-.0274.123-.0547.187-.082.024 1.3685.048 2.749.072 4.1197-1.121-.7536-2.373-1.475-2.373-2.1539Zm3.4 16.8731c-.104.1155-.202.2298-.291.3432.572.7718.543 1.5238.213 2.5112.301-.3348.887-1.1958.397-2.296-.091-.1945-.198-.3812-.319-.5584Zm-.911-8.14c.225.2279.469.4717.732.7315l.009.0088c.158.1577.323.322.495.4929.019.0157.054.0453.102.0866 1.355-1.1734 2.583-2.2811 2.583-3.6817 0-1.0987-1.048-2.0937-2.111-2.8859-.097.0621-.194.1253-.295.1911-.234.1528-.451.2972-.653.4348-.007.0045-.013.0087-.019.0132-.048.0325-.096.065-.142.0966v.0003c-.288.1983-.545.3825-.77.5525.023 1.3544.047 2.6822.069 3.9593Zm.857-4.3992c1.313.9552 1.821 1.5765 1.821 2.2503 0 .7034-.733 1.5014-1.933 2.7003.036-1.5812.073-3.2469.112-4.9506Zm7.264-19.0903s1.396 1.2309 1.893 1.6806c.497.4496 1.811.8994 1.811.8994 1.278.4498 2.229.5089 2.403-.0473.136-.4364-.14-.8091-.628-1.219-.615-.5173-3.799-2.8049-3.799-2.8049s3.219 2.0593 4.253 2.5801c1.034.5207 2.884.6154 3.57.5917.687-.0237 1.752-.284.758-1.077-.994-.7929-7.918-4.2251-7.918-4.2251s6.447 2.9942 7.051 3.1666c.604.1724.973.3247 2.725.3721 1.751.0473 2.367.0947 2.438-.3906.071-.4852-.616-.6627-1.444-1.2072-.828-.5444-10.77-5.4915-10.77-5.4915l11.527 5.2548s1.302.114 2.876.0828c1.574-.0312 2.332-.3196 1.906-.3906-.426-.071-2.722-.6627-6.391-2.1303-3.669-1.4675-6.652-3.1481-8.9-4.45-2.249-1.3018-4.805-1.5859-6.391-.4734-1.586 1.1125-1.083 3.74-1.556 4.7814-.391.8597-1.318.8162-1.949.7749-.004.1623-.008.3326-.012.5107h.647l.074.0005c.358.0032.956.0086 1.325-.5532.423-.6422.444-1.3058.461-1.839.027-.8212.232-2.3291 1.311-3.202 1.136-.9202 3.344-.7802 4.501-.3251.571.225 1.733.8618 2.82 1.4644.961.5331 1.828.9675 2.485 1.2678-.408 0-1.677-.6105-2.664-1.1126-1.079-.5488-2.195-1.1164-2.753-1.336-1.692-.6659-3.525-.2661-4.198.2784-.984.7966-1.172 2.2058-1.197 2.975-.017.5412-.041 1.2826-.511 1.9966-.426.648-1.082.691-1.489.691-.033 0-.064-.0004-.093-.0006l-.725-.0003c-.032 1.428-.074 3.2928-.123 5.4327 1.357 1.7321 2.117 1.9414 2.77 1.8155.598-.1154-.007-1.4733-.173-1.8218.229.4165.51.8026.836 1.1493.663.7338 1.278.7101 1.87.6391.592-.071.426-.5444.284-1.1361-.142-.5918-.781-1.6333-.781-1.6333.379.5443.79 1.066 1.231 1.5623.591.6391 2.707 1.2694 2.986.6646.186-.4043.114-.5936-.288-1.3274-.402-.7338-2.059-2.438-2.059-2.438Zm-7.67-6.0919c.319 0 .631-.0946.896-.2718.265-.1772.472-.429.594-.7237.122-.2946.154-.6188.092-.9316-.063-.3128-.216-.6002-.442-.8257-.225-.2255-.513-.3791-.825-.4413-.313-.0622-.637-.0303-.932.0918-.295.122-.547.3287-.724.5939-.177.2652-.272.5769-.272.8959 0 .2117.042.4214.123.6171.081.1956.2.3734.35.5231.15.1497.327.2685.523.3496.196.081.405.1227.617.1227Zm5.298 12.0765s-.035-1.1142-1.846-1.2385c-1.848-.1268-1.921.685-1.898.9725v.0005c.144.0038.257.0415.257.088 0 .0427-.095.0783-.222.0868.09.2888.377.6631 1.171 1.0493.656.3196.976.3018 1.349.2308 0 0 .444.2486.444.6746 0 .3984-.702 1.1703-3.956 2.7926.198-8.7927.371-16.4976.371-16.4976h.197c.086 0 .168-.034.228-.0945.061-.0605.094-.1425.094-.228v-.1006c0-.0442-.009-.0879-.026-.1284-.018-.0404-.044-.0768-.077-.1068-.171.2-.383.3606-.622.4707-.239.1101-.499.1671-.762.1671s-.523-.057-.762-.1671-.451-.2707-.622-.4707c-.033.03-.059.0664-.076.1068-.018.0405-.027.0842-.027.1284v.1006c0 .0855.034.1676.094.2281.061.0604.143.0944.228.0944h.197s.132 7.4885.284 16.1252c.272.1367.563.2803.877.4315.049.0235.097.0465.144.0695.731.3525 1.35.6572 1.873.9297 1.753-.672 3.45-1.4479 3.971-2.5461.946-1.9971-.883-3.1688-.883-3.1688Zm-2.432-.4438c-.196 0-.355-.0954-.355-.2131 0-.1176.159-.213.355-.213.196 0 .355.0954.355.213 0 .1177-.159.2131-.355.2131Zm-3.159 25.1523c.151-.2021.303-.3982.449-.5857.026-1.142.055-2.4118.086-3.7737-.19-.1958-.408-.4043-.654-.6255v.0007c-.073-.0661-.147-.133-.226-.202-.103-.0898-.206-.1786-.308-.2673-.557.5158-1.656 1.6618-1.656 2.6695 0 1.1723 1.142 2.3584 1.992 3.2193.104-.1487.21-.2934.317-.4353Zm-.114-4.7146c.03 1.6813.057 3.2299.081 4.5808-.664-.8674-1.353-1.7745-1.353-2.3832 0-.6043.328-1.2556 1.272-2.1976Zm.46-14.9877c-3.87-1.864-4.669-2.7161-4.669-3.1422 0-.426.444-.6746.444-.6746.373.071.692.0888 1.349-.2308.794-.3862 1.08-.7605 1.171-1.0493-.127-.0085-.222-.0441-.222-.0868 0-.0465.113-.0842.257-.088 0-.0061.001-.0126.001-.0185.018-.3018-.088-1.0788-1.899-.9545-1.811.1243-1.846 1.2385-1.846 1.2385s-1.829 1.1717-.883 3.1688c.841 1.7739 4.753 2.7073 7.007 3.7192 2.255 1.0119 2.114 1.8838 2.114 1.8838 0 .7456-1.51 1.5425-2.7 2.3768-1.189.8344-3.71 2.2901-3.71 3.9944 0 1.58 1.562 2.7871 3.107 4.1363 1.544 1.3492 2.041 2.1659 2.041 2.9122 0 1.0289-1.704 2.4314-2.583 4.1534-.879 1.722.861 4.4026.311 3.0002-.55-1.4025-.258-2.4101.462-3.4085.869-1.2072 2.733-2.4144 2.733-4.0121 0-1.3492-1.97-2.947-1.97-2.947-1.74-1.7397-2.858-2.7516-2.858-3.6215 0-.8699.841-1.6503 3.178-3.1778 2.323-1.5187 3.692-2.1125 3.692-3.5859 0-1.2605-.657-1.722-4.527-3.5861Zm-2.982-5.876c.196 0 .355.0953.355.213 0 .1176-.159.213-.355.213-.196 0-.355-.0954-.355-.213 0-.1177.159-.2131.355-.2131v.0001Zm47.863 15.2485L294.342 50.3h1.138l.587-1.3409h2.974l.595 1.3409h1.156l-2.686-5.7943h-1.087Zm-.578 3.6091 1.113-2.5329 1.122 2.5329h-2.235Z" fill="#0C405F"/><rect x="205.5" y="1.37402" width="131" height="73" rx="8.5" stroke="#BFC9D1"/><rect x="33.5" y="69.374" width="131" height="73" rx="8.5" fill="#fff"/><path d="M98.977 127.421c-.1341 0-.2686-.001-.4033-.004l.0057-.32c.4245.008.8497.003 1.272-.014l.0131.32c-.2942.012-.5929.018-.8875.018Zm-1.3547-.042c-.4287-.027-.861-.067-1.2849-.118l.0388-.319c.4177.052.8436.091 1.266.117l-.0199.32Zm3.3687-.052-.03-.319c.42-.039.844-.092 1.262-.157l.049.316c-.424.066-.855.12-1.281.16Zm-5.7706-.233c-.422-.074-.8472-.162-1.2638-.261l.0744-.312c.4103.098.8291.185 1.2448.258l-.0554.315Zm8.1626-.129-.066-.314c.413-.086.828-.187 1.236-.298l.084.309c-.413.113-.835.215-1.254.303Zm-10.5175-.423c-.4113-.121-.8239-.256-1.2264-.402l.109-.301c.3965.143.8029.277 1.2079.396l-.0905.307Zm12.8505-.206-.101-.305c.4-.132.801-.278 1.193-.435l.119.297c-.398.16-.806.308-1.211.443Zm-15.1305-.609c-.3948-.167-.7901-.349-1.1746-.539l.1424-.288c.3788.189.7681.367 1.1571.532l-.1249.295Zm17.3775-.28-.134-.29c.383-.177.765-.368 1.136-.567l.152.282c-.377.202-.765.396-1.154.576v-.001Zm-19.5518-.789c-.3729-.21-.7449-.435-1.1058-.668l.1738-.269c.3555.23.722.451 1.0893.658l-.1573.279Zm21.6858-.345-.166-.274c.362-.219.72-.452 1.067-.691l.182.264c-.352.243-.716.478-1.083.701Zm-23.7247-.961c-.3467-.25-.691-.515-1.0235-.787l.2027-.248c.3277.268.6669.529 1.0085.775l-.1877.26Zm25.7197-.406-.195-.253c.334-.258.665-.529.984-.806l.21.242c-.323.281-.66.556-.999.818v-.001Zm-27.5989-1.119c-.3171-.289-.6298-.59-.9291-.897l.2292-.223c.2949.301.6029.599.9154.883l-.2155.237Zm29.4299-.461-.222-.23c.305-.294.604-.6.889-.91l.236.217c-.29.314-.593.625-.903.923Zm-31.1268-1.264c-.2832-.321-.5602-.656-.8235-.993l.2526-.197c.2594.332.5324.662.8113.979l-.2404.211Zm32.7728-.511-.247-.204c.27-.326.533-.663.782-1.003l.258.189c-.252.345-.52.688-.793 1.019v-.001Zm-34.2673-1.39c-.2454-.351-.4835-.714-.7076-1.079l.273-.168c.2208.36.4553.717.6971 1.063l-.2625.184Zm35.7043-.557-.268-.176c.231-.353.455-.718.665-1.085l.278.159c-.213.373-.44.743-.675 1.102Zm-36.9772-1.499c-.2048-.376-.4008-.763-.5826-1.15l.29-.136c.1791.381.3722.762.574 1.133l-.2814.153Zm38.1872-.599-.285-.144c.19-.378.371-.766.538-1.154l.294.127c-.17.394-.353.788-.547 1.171Zm-39.2221-1.584c-.1611-.396-.3123-.803-.4496-1.208l.3035-.103c.1352.399.2842.8.4429 1.19l-.2968.121Zm40.1891-.638-.301-.111c.146-.396.282-.802.404-1.206l.307.093c-.124.41-.262.822-.41 1.224Zm-40.9716-1.647c-.1158-.413-.2204-.835-.3109-1.253l.3132-.068c.0891.412.1921.828.3062 1.234l-.3085.087Zm41.6786-.667-.311-.076c.101-.41.19-.828.265-1.243l.315.057c-.076.422-.167.846-.269 1.262Zm-42.1991-1.696c-.0682-.422-.1245-.853-.1673-1.279l.3188-.032c.0421.42.0975.844.1648 1.26l-.3163.051Zm42.6411-.682-.318-.04c.054-.419.096-.845.125-1.266l.32.022c-.03.428-.072.86-.127 1.284Zm-42.8915-1.723c-.016-.339-.024-.683-.024-1.02 0-.09.0005-.181.0016-.271l.3204.004c-.0011.089-.0016.178-.0016.267 0 .333.0079.671.0237 1.004l-.3201.016Zm43.0665-.689-.321-.006c.002-.118.003-.236.003-.354 0-.303-.006-.612-.02-.917l.32-.014c.014.31.021.623.021.931 0 .12-.001.24-.003.36Zm-42.7256-1.71-.3198-.021c.0276-.428.0683-.861.121-1.285l.3179.04c-.0519.418-.092.844-.1192 1.266h.0001Zm42.3106-.677c-.04-.421-.094-.845-.159-1.261l.316-.05c.066.422.121.853.162 1.281l-.319.03Zm-42.0256-1.689-.3154-.056c.0751-.422.1638-.847.264-1.263l.3114.075c-.0985.41-.186.828-.26 1.244Zm41.6646-.666c-.088-.414-.189-.829-.301-1.235l.308-.085c.114.412.217.833.306 1.254l-.313.066Zm-41.116-1.6525-.3071-.0912c.1222-.4114.2584-.8237.4049-1.2255l.301.1096c-.1442.3959-.2784.802-.3988 1.2071Zm40.491-.6444c-.133-.3992-.28-.8001-.438-1.1917l.297-.1195c.16.3975.31.8046.445 1.2098l-.304.1014Zm-39.683-1.5997-.2947-.1254c.1677-.3941.3499-.789.5417-1.1735l.2868.143c-.189.3788-.3685.7678-.5338 1.1559Zm38.804-.6116c-.177-.3818-.369-.7639-.569-1.1357l.282-.1521c.203.3774.398.7653.577 1.1529l-.29.1349Zm-37.7468-1.5279-.2788-.1579c.2115-.3731.4369-.7447.6704-1.1044l.2687.1744c-.23.3544-.4522.7203-.6604 1.0879h.0001Zm36.6238-.5723c-.219-.36-.451-.7185-.692-1.0655l.263-.1827c.244.3523.481.7162.703 1.0817l-.274.1665ZM81.7709 93.436l-.2593-.1882c.251-.3458.5167-.6896.7894-1.0219l.2477.2034c-.2688.3272-.5305.666-.7779 1.0067h.0001Zm33.9841-.5293c-.258-.3334-.53-.6639-.808-.9822l.242-.2108c.282.3232.557.6586.819.997l-.253.196Zm-32.4775-1.3191-.2367-.2158c.2889-.3167.5911-.6286.8982-.9273l.2234.2296c-.3026.2943-.6003.6016-.8849.9135Zm30.9165-.4822c-.294-.3032-.601-.6016-.912-.8867l.217-.2363c.315.2895.627.5922.925.9001l-.23.2229Zm-29.2141-1.1862-.2112-.2409c.3217-.2819.6565-.5584.9953-.8214l.1965.2529c-.3337.2593-.6636.5316-.9806.8094Zm27.4621-.431c-.325-.268-.663-.5305-1.005-.7799l.189-.2589c.347.2533.69.5196 1.02.7917l-.204.2471Zm-25.5854-1.0375-.183-.2629c.3518-.245.7152-.4823 1.0801-.7054l.1671.2733c-.3595.2198-.7176.4536-1.0642.695Zm23.6634-.3746c-.353-.2305-.719-.4535-1.086-.6626l.158-.2785c.373.2124.744.4387 1.103.6726l-.175.2685Zm-21.6358-.8752-.1527-.2818c.377-.2042.7645-.3994 1.1518-.5801l.1355.2903c-.3816.178-.7633.3703-1.1347.5716h.0001Zm19.5668-.313c-.378-.1896-.766-.37-1.154-.536l.126-.2946c.394.1686.788.3517 1.172.5442l-.144.2864Zm-17.4135-.702-.1201-.2971c.3972-.1607.804-.3111 1.2089-.447l.102.3036c-.3989.134-.7996.2822-1.1909.4405h.0001Zm15.2225-.2454c-.395-.1452-.801-.2802-1.206-.4013l.092-.307c.411.123.823.2601 1.225.4075l-.111.3008Zm-12.9704-.5208-.0859-.3086c.413-.115.8347-.2187 1.2532-.3084l.0671.3134c-.4124.0882-.8277.1904-1.2346.3036h.0002Zm10.6904-.1714c-.409-.0995-.828-.1878-1.243-.2625l.056-.3154c.422.0759.847.1656 1.263.2666l-.076.3113Zm-8.3624-.3365-.0505-.3163c.4231-.0675.8537-.1229 1.2801-.1647l.0313.3188c-.4202.0413-.8444.0958-1.2611.1623l.0002-.0001Zm6.0194-.0942c-.417-.0529-.843-.0938-1.266-.1218l.022-.3197c.429.0285.861.07 1.284.1236l-.04.3179Zm-3.649-.1474-.0145-.3201c.3239-.0146.6568-.0175.9755-.022.1049 0 .21.0008.3151.0023l-.0045.3204c-.1053-.0015-.2064-.0012-.3157-.0023-.3173 0-.6388.0073-.956.0217h.0001ZM88.5195 93.5282h.7209c.085 0 .1665.0337.2265.0938.0601.0601.0939.1416.0939.2266v5.2216c0 .085-.0338.1665-.0939.2266-.06.0601-.1415.0938-.2265.0938h-.7209v1.1214h4.6456v-1.1214h-.7208c-.085 0-.1665-.0337-.2266-.0938-.0601-.0601-.0938-.1416-.0938-.2266v-5.2216c0-.085.0337-.1665.0938-.2266.0601-.0601.1416-.0938.2266-.0938h.7208v-1.1214h-4.6456v1.1214Zm18.5875-1.2479h-.961c-1.062 0-2.081.4219-2.832 1.1729-.751.7511-1.173 1.7697-1.173 2.8319v.4806c0 1.0621.422 2.0808 1.173 2.8318.751.7515 1.77 1.1735 2.832 1.1735h.961c1.062 0 2.081-.422 2.832-1.1735.751-.751 1.173-1.7697 1.173-2.8318v-.4806c0-1.0621-.422-2.0808-1.173-2.8318-.751-.751-1.77-1.173-2.832-1.173Zm-.48 7.2455c-.885 0-1.602-.7598-1.602-3.0437 0-2.2838.717-3.0436 1.602-3.0436.884 0 1.602.7774 1.602 3.0436s-.718 3.0437-1.602 3.0437Zm-7.4716-3.9365c-1.3226-.3836-2.8371-.3417-2.8371-1.2308 0-.8892 1.236-.8613 1.236-.8613.6348 0 1.136.1103 1.546.4806.4101.3704.6423 1.2419.6423 1.2419h1.2814v-2.8835h-1.2814v.5473c-.4483-.0828-.7203-.6843-2.6836-.6843-2.4514 0-3.245 1.5858-3.245 2.5105 0 .9248.1984 2.0104 2.1868 2.5572 1.9885.5468 2.8483.7716 2.8483 1.5251 0 .5687-.5159.8278-1.3786.8278-.629 0-1.5467-.4804-2.1427-1.5112v-.4802h-1.2816v2.8836h1.2816s.0924-.435.4394-.291c.2501.104.4365.489 2.3411.489 2.7427 0 3.2197-1.6443 3.2197-2.7024 0-1.2344-.85-2.0347-2.1726-2.4182v-.0001ZM93.4659 89.2335c.2332.3063.5405.5483.893.7031-.474.523-.8885 1.0972-1.2356 1.7118l.3485.1972c.3548-.6276.7829-1.2108 1.2753-1.7375.4607.1766.9364.3115 1.4213.403-.1775.3817-.3338.7729-.4682 1.1718l.3794.1282c.1416-.4186.3085-.8283.4998-1.2267.7187.1122 1.4447.1717 2.1722.1779v.7033h.4005v-.7033c.7303-.0062 1.4589-.0662 2.1809-.1794.191.3989.358.8091.5 1.2282l.38-.1282c-.135-.3995-.292-.7913-.469-1.1735.484-.0918.959-.227 1.419-.4039.494.5273.923 1.1115 1.278 1.7401l.348-.1972c-.347-.6158-.763-1.191-1.238-1.7148.35-.1546.655-.3955.887-.7001.942.7114 1.737 1.5998 2.34 2.6156l.344-.2042c-.645-1.0878-1.502-2.0354-2.519-2.787l.002-.0072-.119-.0855c-1.348-.9727-2.929-1.571-4.5835-1.734-.0152-.0016-.0303-.003-.0455-.0045-.0821-.0077-.1643-.0149-.2469-.0206-.0492-.0034-.0986-.0058-.148-.0085-.0573-.0031-.1145-.0066-.1719-.0086-.046-.0016-.0921-.0022-.1382-.0032-.0692-.0021-.1367-.0034-.2002-.0034s-.131.0013-.2003.0034c-.0461.0009-.0922.0016-.1382.0032-.0574.002-.1146.0055-.1719.0086-.0494.0027-.0988.0051-.1481.0085-.0825.0057-.1647.0129-.2468.0206-.0152.0015-.0303.0029-.0455.0045-1.6542.163-3.2356.7613-4.5835 1.734l-.1188.0855.0023.0071c-1.0175.7517-1.8743 1.6993-2.52 2.7871l.3446.2042c.6026-1.0158 1.3976-1.9042 2.3403-2.6156Zm2.8893.8958c-.442-.0786-.8775-.1897-1.3031-.3324.6209-.6019 1.3283-1.1075 2.0988-1.5.1232.0516.2503.0933.3801.1248-.4665.5141-.8619 1.0884-1.1758 1.7076Zm2.3964.2327c-.6621-.01-1.3228-.0643-1.9777-.1625.3234-.6209.7381-1.1898 1.2302-1.6877.2479.034.4974.0546.7475.0617v1.7885Zm.4005 0v-1.7885c.2527-.0072.5049-.0282.7553-.0629.4926.4978.9076 1.0667 1.2306 1.6877-.657.0989-1.321.1536-1.9859.1637Zm2.4049-.2342c-.314-.6193-.71-1.1937-1.177-1.7078.129-.0317.255-.0736.378-.1253.771.3922 1.479.8978 2.1 1.4998-.425.1431-.86.2545-1.301.3333Zm-.348-2.4557c1.039.2696 2.023.7197 2.907 1.3297-.142.2384-.443.4507-.85.6327-.63-.6353-1.35-1.174-2.138-1.5987.061-.0717.095-.1622.096-.2562 0-.0364-.005-.0726-.015-.1075Zm-2.5132-.2844c.0852-.0023.1705-.0048.256-.0048.0853 0 .1701.0024.255.0048 1.0322.0359 1.5642.2827 1.6152.392-.056.1179-.669.3967-1.8702.3967-1.2203 0-1.8342-.2878-1.8728-.3912.0359-.1062.5671-.3609 1.6168-.3975Zm-2.0011.2844c-.0102.0349-.0154.0711-.0155.1075.0017.0954.0367.1872.099.2596-.7861.4247-1.5051.9632-2.1339 1.5979-.4105-.1825-.7137-.3957-.8564-.6353.8836-.6101 1.8675-1.0601 2.9068-1.3297Zm7.7603 16.0399c-.227-.314-.534-.562-.888-.72.384-.424.729-.882 1.03-1.368l-.341-.211c-.311.503-.671.974-1.073 1.407-.464-.18-.942-.317-1.43-.41.122-.263.238-.536.344-.822l-.376-.139c-.115.31-.239.606-.374.889-.726-.115-1.4599-.175-2.195-.181v-.711h-.4005v.711c-.7322.006-1.4629.066-2.1864.179-.1339-.281-.2584-.577-.3734-.887l-.3757.139c.1055.285.2211.558.343.821-.4886.092-.9677.229-1.4313.408-.4019-.432-.7608-.902-1.0715-1.404l-.3404.211c.3005.485.6442.942 1.0268 1.365-.3566.158-.6651.407-.8938.723-.8371-.639-1.5576-1.418-2.1296-2.302l-.336.218c1.0498 1.626 2.5718 2.891 4.3618 3.627l.0078.004c.1064.043.2136.085.3217.125l.0243.009c.112.041.2247.08.3384.116.0044.002.0088.003.0132.004.0994.032.1994.062.3.091.0421.012.0845.023.1268.034.0638.017.1277.034.1919.05.0493.012.0987.024.1482.035.0599.014.1201.027.1803.04.0498.01.0993.021.1493.03.0804.016.1612.03.2421.043.0607.01.1216.02.1826.028.0725.011.1451.021.2181.03.047.006.0942.011.1414.016.0673.007.1348.014.2025.019.0457.004.0914.008.1371.011.0745.006.1492.01.224.013.0384.002.0769.004.1155.006.1136.004.2273.006.3415.006.1142 0 .228-.002.3415-.006.0386-.002.077-.004.1155-.006.0748-.003.1495-.007.224-.013.0457-.003.0914-.007.1371-.011.0677-.005.1352-.012.2026-.019.0476-.005.0946-.01.1416-.016.073-.009.146-.019.218-.03.061-.008.121-.018.181-.028.082-.013.163-.027.244-.043.049-.009.099-.02.148-.03.061-.013.121-.026.181-.04.05-.011.099-.023.148-.035.064-.016.129-.032.193-.05.042-.011.084-.022.126-.034.101-.029.201-.059.301-.091l.012-.003c.114-.037.227-.076.339-.117l.024-.009c.108-.04.215-.082.322-.125l.007-.003c1.79-.736 3.312-2.002 4.362-3.628l-.336-.218c-.572.884-1.292 1.663-2.129 2.302Zm-5.3029-1.154c.6708.006 1.3409.058 2.0039.157-.32.62-.73 1.19-1.2166 1.69-.2609-.037-.5238-.06-.7873-.067v-1.78Zm-.4005 0v1.78c-.2608.007-.521.029-.7793.066-.4865-.5-.8963-1.07-1.2163-1.691.6608-.097 1.3276-.149 1.9956-.155Zm-2.0371 2.728c-.0285-.007-.0572-.014-.0856-.022-.0439-.011-.0877-.023-.1314-.035-.0643-.018-.1283-.037-.1922-.056-.0342-.011-.0685-.021-.1026-.032-.8651-.275-1.6838-.678-2.4288-1.197.1281-.223.4239-.447.8589-.648.6262.635 1.3423 1.174 2.1252 1.601-.0503.068-.0779.15-.0788.235.001.053.0131.105.0353.154Zm-1.6797-2.154c.426-.151.8635-.267 1.3081-.348.3103.619.7008 1.195 1.1615 1.712-.1338.034-.2644.079-.3902.136-.7636-.395-1.4644-.9-2.0794-1.5Zm3.917 2.396c-1.2203 0-1.8342-.287-1.8728-.391.0387-.114.6525-.402 1.8728-.402 1.2012 0 1.8142.279 1.8702.397-.056.118-.669.396-1.8702.396Zm1.8422-.894c-.125-.057-.254-.102-.387-.136.461-.518.852-1.093 1.162-1.713.444.082.881.198 1.307.349-.616.6-1.317 1.106-2.082 1.5Zm.907.507c-.034.011-.068.021-.103.032-.063.019-.128.038-.192.056-.044.012-.087.024-.131.036-.029.007-.057.014-.086.021.022-.048.034-.101.035-.154 0-.083-.027-.164-.076-.231.785-.427 1.502-.967 2.129-1.602.432.2.725.423.853.645-.745.519-1.564.922-2.429 1.197ZM70.0533 111.562H59l1.7621-3.684L59 104.193h11.0533v7.369ZM127.947 111.562H139l-1.762-3.684 1.762-3.685h-11.053v7.369Z" fill="#0063FF"/><path d="m127.947 104.193 6.42 2.616-6.42 4.753v-7.369ZM69.9806 104.193l-6.4196 2.616 6.4196 4.753v-7.369Z" fill="#001D8C"/><path d="M134.366 106.81H63.561v9.451h70.805v-9.451Z" fill="#0063FF"/><path d="m124.361 103.875 1.862-2.318-2.487-1.6302 1.476-2.5814-2.712-1.2207 1.054-2.7805-2.869-.7815.607-2.9112-2.956-.3231.143-2.9702-2.97.1433-.323-2.956-2.911.6062-.782-2.869-2.78 1.0541-1.221-2.7115-2.582 1.4761-1.629-2.4872-2.319 1.8618-1.999-2.2016-1.9989 2.2016-2.3186-1.8618-1.6299 2.4872-2.5814-1.4761-1.2207 2.7115-2.7805-1.0542-.7815 2.8691-2.9112-.6062-.323 2.956-2.9702-.1433.1433 2.9702-2.956.323.6062 2.9112-2.8691.7815 1.0541 2.7805-2.7115 1.2207 1.4762 2.5814-2.4872 1.6303 1.8618 2.318-2.2016 1.999.3135.285h5.023c-.0012-.095-.0036-.19-.0036-.285 0-5.9055 2.3459-11.5691 6.5218-15.745 4.1758-4.1758 9.8395-6.5218 15.745-6.5218 5.906 0 11.569 2.346 15.745 6.5218 4.176 4.1759 6.522 9.8395 6.522 15.745 0 .095-.003.19-.004.285h5.023l.314-.285-2.202-1.999Zm-1.861 11.749.03-.014h-3.537c-1.827 3.758-4.674 6.925-8.216 9.141-3.542 2.216-7.636 3.391-11.814 3.39-4.1781.001-8.272-1.174-11.8141-3.39-3.542-2.216-6.3891-5.383-8.216-9.141h-3.5371l.0298.014-1.054 2.78 2.869.782-.6062 2.911 2.956.323-.1433 2.97 2.9702-.143.323 2.956 2.9112-.606.7815 2.869 2.7806-1.054 1.2206 2.711 2.5814-1.476 1.6299 2.487 2.3186-1.862 1.9989 2.202 1.999-2.202 2.319 1.862 1.629-2.487 2.582 1.476 1.22-2.711 2.781 1.054.781-2.869 2.912.606.323-2.956 2.97.143-.143-2.97 2.956-.323-.607-2.911 2.869-.782-1.054-2.78Z" fill="#0063FF"/><path d="m77.4639 112.903 2.2467-2.018c.1211-.111.2357-.228.3431-.351.1125-.126.1737-.289.1716-.458.0038-.088-.0134-.176-.0504-.257-.0369-.08-.0924-.15-.162-.205-.1418-.111-.3179-.17-.4984-.167-.0993-.006-.1986.01-.291.047-.0924.037-.1757.093-.2441.165-.1293.145-.2056.329-.2165.523l-1.2254-.09c.009-.27.073-.535.1878-.78.1029-.213.2506-.401.4331-.551.1871-.151.4023-.264.6331-.331.2559-.076.5216-.113.7884-.111.2494-.001.4975.036.7353.111.2186.068.4214.179.5964.327.1718.148.3074.334.3963.543.0996.24.1483.499.143.76.0018.169-.0174.338-.0573.502-.0353.143-.0888.28-.1593.409-.0674.121-.1483.235-.241.339-.0952.106-.1961.207-.3023.302l-1.7565 1.511h2.5653v1.079h-4.0359v-1.299ZM84.8167 109.544h-2.8594v-1.127h4.2318v1.078l-2.3119 4.706h-1.4298l2.3693-4.657ZM86.5159 111.309c.0006-.351.0321-.7.094-1.046.057-.337.1702-.663.3349-.964.1581-.285.384-.528.6577-.706.3194-.194.6888-.289 1.0621-.274.3732-.015.7427.08 1.0621.274.2737.178.4996.421.6576.706.1647.301.278.627.3351.964.0617.346.0931.695.0939 1.046-.0008.351-.0322.701-.0939 1.046-.057.338-.1703.664-.3351.964-.158.286-.3838.529-.6576.707-.3194.193-.6889.289-1.0621.273-.3733.015-.7427-.08-1.0621-.273-.2738-.179-.4996-.421-.6577-.707-.1648-.3-.278-.626-.3349-.964-.0619-.345-.0934-.695-.094-1.046Zm1.2255 0c0 .153.0068.335.0204.548.0127.207.0497.413.1103.612.0533.185.1467.355.2736.499.0664.069.1472.124.2368.159.0896.035.1859.051.282.045.0954.005.1908-.011.2796-.046.0888-.035.169-.089.2351-.158.1291-.143.2241-.314.2778-.499.0605-.199.0975-.405.1103-.612.0136-.213.0204-.395.0205-.548 0-.152-.0068-.335-.0205-.547-.0128-.208-.0498-.414-.1103-.613-.0537-.185-.1487-.355-.2778-.498-.0661-.069-.1463-.123-.2351-.159-.0888-.035-.1842-.051-.2796-.046-.0961-.005-.1923.01-.2819.045-.0896.036-.1705.09-.2369.16-.1268.144-.2202.314-.2736.498-.0606.199-.0976.405-.1103.613-.0137.212-.0205.395-.0204.547ZM91.1074 111.309c.0007-.351.0321-.7.094-1.046.057-.337.1702-.663.335-.964.1581-.285.3839-.528.6576-.706.3195-.194.6889-.289 1.0621-.274.3733-.015.7427.08 1.0621.274.2738.178.4996.421.6577.706.1647.301.278.627.3351.964.0617.346.0931.695.0938 1.046-.0007.351-.0321.701-.0938 1.046-.0571.338-.1703.664-.3351.964-.158.286-.3839.529-.6577.707-.3194.193-.6888.289-1.0621.273-.3732.015-.7426-.08-1.0621-.273-.2737-.179-.4996-.421-.6576-.707-.1648-.3-.278-.626-.335-.964-.0619-.345-.0933-.695-.094-1.046Zm1.2255 0c0 .153.0068.335.0205.548.0126.207.0496.413.1103.612.0533.185.1467.355.2736.499.0664.069.1472.124.2368.159.0896.035.1858.051.2819.045.0955.005.1909-.011.2797-.046.0888-.035.169-.089.235-.158.1292-.143.2242-.314.2779-.499.0604-.199.0975-.405.1102-.612.0137-.213.0205-.395.0205-.548 0-.152-.0068-.335-.0205-.547-.0128-.208-.0498-.414-.1102-.613-.0538-.185-.1488-.355-.2779-.498-.0661-.069-.1463-.123-.2351-.159-.0888-.035-.1841-.051-.2796-.046-.0961-.005-.1923.01-.2819.045-.0896.036-.1704.09-.2368.16-.1269.144-.2203.314-.2736.498-.0607.199-.0977.405-.1103.613-.0137.212-.0205.395-.0204.547h-.0001ZM97.7823 109.789l-1.1601 1.022-.6945-.801 1.8871-1.593h1.1439v5.784h-1.1764v-4.412ZM100.478 110.884c0-.1.019-.2.057-.294.037-.09.091-.172.16-.241.069-.068.151-.122.241-.159.093-.038.193-.058.294-.057.101-.001.201.019.294.057.09.037.172.091.241.159.069.069.123.151.159.241.038.094.058.194.058.294 0 .101-.02.201-.058.295-.036.09-.09.172-.159.241-.069.068-.151.122-.241.159-.093.038-.193.058-.294.057-.101.001-.201-.019-.294-.057-.091-.037-.172-.091-.241-.159-.069-.069-.123-.151-.16-.241-.038-.094-.057-.194-.057-.295Zm0 2.615c0-.101.019-.201.057-.294.037-.09.091-.172.16-.241s.151-.123.241-.16c.093-.038.193-.057.294-.057.101 0 .201.019.294.057.09.037.172.091.241.16s.123.151.159.241c.038.093.058.193.058.294 0 .101-.02.201-.058.294-.036.09-.09.172-.159.241s-.151.123-.241.159c-.093.039-.193.058-.294.057-.101.001-.201-.018-.294-.057-.09-.036-.172-.09-.241-.159s-.123-.151-.16-.241c-.038-.093-.057-.193-.057-.294ZM102.594 112.903l2.247-2.018c.121-.111.235-.228.343-.351.112-.126.174-.289.172-.458.003-.088-.014-.176-.051-.257-.037-.08-.092-.15-.162-.205-.142-.111-.318-.17-.498-.167-.1-.006-.199.01-.291.047-.093.037-.176.093-.244.165-.13.145-.206.329-.217.523l-1.225-.09c.009-.27.073-.535.187-.78.103-.213.251-.401.433-.551.188-.151.403-.264.634-.331.256-.076.521-.113.788-.111.249-.001.497.036.735.111.219.068.422.179.597.327.172.148.307.334.396.543.1.24.148.499.143.76.002.169-.017.338-.057.502-.036.143-.089.28-.16.409-.067.121-.148.235-.241.339-.095.106-.196.207-.302.302l-1.757 1.511h2.566v1.079h-4.036v-1.299ZM107.055 111.309c0-.351.032-.7.094-1.046.057-.337.17-.663.335-.964.158-.285.384-.528.657-.706.32-.194.689-.289 1.062-.274.374-.015.743.08 1.062.274.274.178.5.421.658.706.165.301.278.627.335.964.062.346.093.695.094 1.046-.001.351-.032.701-.094 1.046-.057.338-.17.664-.335.964-.158.286-.384.528-.658.707-.319.193-.688.289-1.062.273-.373.015-.742-.08-1.062-.273-.273-.179-.499-.421-.657-.707-.165-.3-.278-.626-.335-.964-.062-.345-.094-.695-.094-1.046Zm1.225 0c0 .153.007.335.021.548.012.207.049.413.11.612.053.185.147.355.274.499.066.069.147.124.236.159.09.035.186.051.282.045.096.005.191-.011.28-.046.089-.035.169-.089.235-.158.129-.143.224-.314.278-.499.06-.199.097-.405.11-.613.014-.212.021-.394.021-.547 0-.152-.007-.335-.021-.547-.013-.208-.05-.414-.11-.613-.054-.185-.149-.355-.278-.498-.066-.069-.146-.123-.235-.159-.089-.035-.184-.051-.28-.046-.096-.005-.192.01-.281.045-.09.036-.171.09-.237.16-.127.144-.221.314-.274.498-.061.199-.098.405-.11.613-.014.212-.021.395-.021.547ZM113.73 109.789l-1.16 1.022-.695-.801 1.887-1.593h1.144v5.784h-1.176v-4.412ZM117.733 110.697h.4c.112 0 .224-.008.335-.025.104-.014.205-.046.298-.094.089-.045.163-.112.217-.196.058-.1.087-.215.081-.331.002-.083-.016-.166-.053-.241-.036-.075-.089-.141-.155-.192-.144-.116-.325-.177-.511-.171-.171-.007-.339.049-.473.155-.122.098-.208.233-.245.384l-1.348-.278c.056-.23.156-.448.294-.641.125-.172.283-.318.465-.429.187-.111.389-.193.601-.241.229-.053.463-.079.698-.078.25 0 .498.031.74.094.225.057.437.157.625.294.179.133.325.305.429.503.111.223.165.47.159.719.008.295-.081.585-.253.825-.18.236-.443.393-.736.441v.025c.164.018.321.071.462.155.131.079.245.182.339.302.094.123.166.261.212.409.05.156.075.318.074.482.006.263-.052.523-.167.76-.108.212-.261.398-.45.543-.198.149-.422.259-.662.323-.262.072-.533.107-.804.106-.471.013-.935-.112-1.336-.36-.193-.13-.358-.298-.485-.493-.126-.195-.213-.413-.255-.642l1.291-.303c.033.188.127.36.266.491.168.131.379.195.592.179.108.009.216-.005.319-.041.102-.036.195-.093.273-.167.131-.147.2-.339.193-.535.008-.135-.028-.268-.103-.38-.068-.09-.16-.159-.265-.2-.118-.046-.242-.072-.368-.078-.136-.008-.272-.012-.408-.012h-.286v-1.062Z" fill="#fff"/><rect x="33.5" y="69.374" width="131" height="73" rx="8.5" stroke="#BFC9D1"/><rect x=".5" y="176.374" width="131" height="73" rx="8.5" fill="#fff"/><path d="M41.7833 195.177H13v35.393h35.5076v-28.691l-6.7243-6.702Z" fill="#0B83F1"/><path d="M41.7833 195.177H13v35.393h35.5076v-28.691l-6.7243-6.702Z" fill="#0B83F1"/><path d="M41.7833 195.177H13v35.393h35.5076v-28.691l-6.7243-6.702Z" fill="#0B83F1"/><path d="m29.6089 202.045 1.1922-.627 1.1921.627-.2276-1.327.9645-.941-1.3329-.193-.5961-1.208-.5961 1.208-1.3329.193.9645.941-.2277 1.327Zm7.5101-1.976-.5961 1.208-1.3329.193.9645.941-.2277 1.327 1.1922-.627 1.1921.627-.2277-1.327.9645-.941-1.3328-.193-.5961-1.208Zm3.4328 8.294 1.1922-.627 1.1921.627-.2276-1.327.9645-.941-1.3329-.193-.5961-1.208-.5961 1.208-1.3329.193.9645.941-.2277 1.327Zm-22.3865 5.691 1.1921.627-.2276-1.328.9645-.94-1.3329-.193-.5961-1.208-.5961 1.208-1.3329.193.9645.94-.2276 1.328 1.1921-.627Zm.5007-5.691 1.1922-.627 1.1922.627-.2277-1.328.9645-.94-1.3329-.193-.5961-1.208-.5961 1.208-1.3329.193.9645.94-.2277 1.328Zm4.625-4.625 1.1921-.627 1.1922.627-.2277-1.327.9645-.941-1.3329-.193-.5961-1.208-.5961 1.208-1.3329.193.9645.941-.2276 1.327Zm22.0535 8.675-1.3329-.193-.5961-1.208-.5961 1.208-1.3328.193.9645.94-.2277 1.328 1.1921-.627 1.1922.627-.2277-1.328.9645-.94Zm-3.0045 6.124-.5961-1.207-.5961 1.207-1.3329.194.9645.94-.2276 1.328 1.1921-.627 1.1922.627-.2277-1.328.9645-.94-1.3329-.194Zm-4.625 4.625-.5961-1.207-.5961 1.207-1.3329.194.9645.94-.2276 1.328 1.1921-.627 1.1921.627-.2276-1.328.9645-.94-1.3329-.194Zm-12.6358 0-.5961-1.207-.5961 1.207-1.3329.194.9645.94-.2276 1.328 1.1921-.627 1.1922.627-.2277-1.328.9645-.94-1.3329-.194Zm-4.625-4.625-.5961-1.207-.5961 1.207-1.3329.194.9645.94-.2277 1.328 1.1922-.627 1.1922.627-.2277-1.328.9645-.94-1.3329-.194Zm10.9429 6.318-.5961-1.207-.5961 1.207-1.3329.194.9645.94-.2277 1.328 1.1922-.627 1.1921.627-.2276-1.328.9645-.94-1.3329-.194Zm5.5769-17.029-9.0296 9.35-4.8534-4.37-1.6526 1.836 6.5703 5.916.0299.028.001-.001.0012.001.0299-.033 10.6561-11.035-1.7528-1.692Z" fill="#fff"/><path d="M48.5075 201.879h-6.7243v-6.702l6.7243 6.702Z" fill="#80CBFF"/><path d="M86.3317 212.985v-5.454h-4.4042v1.391h2.8057v3.336c-.3673.142-.7508.239-1.1418.288-.5374.064-1.0782.096-1.6193.096-.5698.008-1.1351-.102-1.6598-.324-.4869-.212-.9181-.534-1.2601-.94-.3751-.445-.6554-.962-.8239-1.519-.202-.68-.2983-1.386-.2855-2.095 0-1.434.3603-2.583 1.0807-3.447.7205-.863 1.6653-1.295 2.8343-1.295 1.4931 0 2.5921.584 3.6167 1.398l.7079-1.331c-.9627-.789-2.6475-1.434-4.1289-1.434-.8107-.009-1.6158.135-2.3734.423-.6913.262-1.3155.674-1.8269 1.208-.5243.56-.9257 1.223-1.1787 1.947-.286.829-.4254 1.702-.4119 2.579-.0157.912.1222 1.82.4079 2.687.2433.731.6443 1.399 1.1745 1.959.5142.524 1.142.924 1.8351 1.167.7576.263 1.5552.393 2.3572.384.476.004.9517-.025 1.4235-.088.3632-.069.7226-.157 1.0765-.264.3285-.09.6512-.199.9665-.328.3453-.138.6213-.253.8279-.344Zm-28.0069-.615h-5.9785v-3.908h5.5706v-1.407h-5.5706v-3.777h5.9785v-1.407h-7.5934v11.906h7.5934v-1.407Zm57.8442-.942c.467 1.26.608 1.813.904 2.349H119c-.297 0-1.416-3.495-1.798-4.401-.382-.907-1.456-1.038-1.456-1.038.778-.282 1.5-.599 1.952-1.185.451-.587.569-1.108.569-1.982 0-.624-.124-1.216-.372-1.637-.247-.421-.592-.775-1.007-1.032-.406-.265-.863-.442-1.342-.52-.579-.081-1.164-.119-1.749-.111h-4.418v11.906h1.615v-5.12h2.486c2.165 0 2.221 1.511 2.689 2.771Zm-5.175-8.198h2.884c.452 0 2.7-.126 2.7 2.068 0 2.195-2.417 2.169-2.879 2.169h-2.705v-4.237Zm-2.777 1.974c0-3.45-3.729-3.333-4.616-3.333h-4.3364v11.906h1.6144v-5.081h2.657c1.391 0 4.681-.043 4.681-3.492Zm-4.641 2.263h-2.705v-4.237h2.885c.451 0 2.699-.126 2.699 2.068 0 2.195-2.417 2.169-2.879 2.169Zm-5.9664 3.311c.4575-.912.6884-1.922.6729-2.942 0-1.162-.2148-2.163-.6443-3.003-.415-.823-1.0431-1.52-1.8188-2.019-.5132-.317-1.0734-.55-1.6598-.691-.6499-.169-1.5457-.252-2.6875-.252h-3.5365v11.906h3.5692c.8131.014 1.6257-.05 2.4264-.192.664-.14 1.2979-.397 1.8718-.76.7732-.51 1.3968-1.216 1.8066-2.047Zm-2.6955.848c-.4459.304-.9477.516-1.4764.624-.6207.119-1.2519.176-1.884.168h-2.0032v-9.188h2.0032c.6133-.011 1.226.045 1.8269.168.4856.11.9508.297 1.3785.552.6017.354 1.0822.882 1.3784 1.515.3099.648.4649 1.43.4649 2.347 0 .927-.1414 1.702-.4242 2.323-.271.607-.7095 1.124-1.2642 1.491h.0001Zm-30.3129 2.399c5.106 0 4.782-3.9 4.782-4.726v-7.428h-1.615v7.468c0 .533.0092 3.206-3.167 3.206-3.1763 0-3.1589-2.697-3.1589-3.246v-7.428h-1.6149v7.428c0 .848-.3322 4.726 4.7738 4.726Zm.506 3.592c-.3248-.406-.7385-.732-1.2093-.953-.5323-.241-1.1117-.358-1.6955-.345-.5839-.013-1.1633.104-1.6957.345-.4708.221-.8845.547-1.2091.953-.3366.431-.5845.924-.7295 1.451-.1665.592-.2484 1.205-.2433 1.821-.0051.615.0768 1.229.2433 1.821.1449.527.3929 1.02.7295 1.451.3245.406.7382.733 1.2091.953.5324.241 1.1118.358 1.6957.345.5838.013 1.1632-.104 1.6955-.345.4709-.22.8847-.547 1.2093-.953.3366-.431.5845-.924.7295-1.451.1665-.592.2484-1.206.2432-1.821.0052-.616-.0767-1.229-.2432-1.821-.145-.527-.393-1.02-.7295-1.451Zm.1419 4.888c-.1149.461-.3192.896-.6013 1.278-.2667.355-.614.641-1.0133.835-.4482.208-.9382.31-1.4321.298-.494.012-.984-.09-1.4322-.298-.3992-.194-.7466-.48-1.0132-.835-.2822-.382-.4865-.817-.6013-1.278-.1348-.528-.2006-1.071-.1959-1.616-.005-.543.0609-1.084.1959-1.609.1157-.459.32-.891.6013-1.272.2676-.355.6146-.643 1.0132-.841.447-.212.9375-.317 1.4322-.305.4946-.012.9852.093 1.4321.305.3987.198.7456.486 1.0133.841.2812.381.4854.813.6013 1.272.1348.525.2007 1.066.1958 1.609.0046.545-.0613 1.088-.1958 1.616Zm15.3674-6.08h-3.2841v8.928h.635v-4.051h2.5545c.4412 0 2.9994.026 2.9994-2.458 0-2.485-2.4455-2.419-2.9048-2.419Zm-.0946 4.32h-2.5545v-3.763h2.6491c.7476 0 2.2698.163 2.2698 1.862s-1.626 1.901-2.3644 1.901Zm5.4376-4.32h-.635v8.928h5.4183v-.57h-4.7833v-8.358Zm-10.8443.001h-.0001l-3.5608 7.997-3.5608-7.997h-.0001v-.001h-.635v8.928h.635v-7.367l3.2801 7.368.2808-.126.2809.126 3.28-7.368v7.367h.635v-8.928h-.635v.001Zm34.8808 7.841-5.698-7.841v-.001h-.635v8.928h.635v-7.847l5.698 7.842v-.001h.635v-8.927h-.635v7.847Zm-17.6324 1.086h.6351v-8.928h-.6351v8.928Zm5.8499-8.928-3.4586 8.928h.6484l.9863-2.636h4.2554l.987 2.636h.648l-3.4584-8.928h-.6081Zm2.2155 5.762h-3.8232l1.2294-3.192.6621-1.908h.027l.6486 1.881 1.2561 3.219Zm11.288-5.192 3.25-.013v8.371h.635v-8.371l3.25.013v-.57h-7.135v.57Zm-54.8483 6.841c-.306.34-.6879.603-1.1145.768-.0811.032-.1643.06-.2489.086-.0378.011-.0744.023-.1132.034-.0813.022-.1656.041-.2523.058-.0056.001-.0111.002-.0168.004-.2923.053-.589.079-.8861.077-.5006.007-.998-.081-1.466-.259-.4267-.165-.8085-.428-1.1145-.768-.3202-.364-.5617-.79-.7094-1.252-.1748-.547-.2593-1.12-.25-1.695 0-1.307.3175-2.3.9526-2.98.6245-.669 1.4955-1.009 2.6129-1.019 1.1171.011 1.988.35 2.6129 1.019.0124.013.0238.027.0359.041l.4227-.423c-.2761-.299-.603-.548-.9656-.733l.0032-.011c-.1524-.073-.309-.138-.469-.192-.0554-.02-.1118-.039-.1691-.057l-.0177-.006c-.0489-.015-.0983-.029-.1485-.042-.0317-.009-.0617-.019-.0943-.028-.3773-.096-.7657-.143-1.1551-.139-.0188 0-.0368.001-.0554.001s-.0366-.001-.0554-.001v.002c-.5905 0-1.176.109-1.7267.323-.5097.201-.9654.518-1.3308.927-.3664.421-.6423.912-.8106 1.444-.1915.606-.285 1.239-.277 1.874-.0079.631.0763 1.261.25 1.868.1506.526.4133 1.014.77 1.43.3567.405.8033.72 1.3039.921.5897.228 1.2187.339 1.851.324h.0512c.0247 0 .0484-.001.0729-.001.0301-.001.0603-.001.0897-.002.5778-.002 1.1502-.111 1.6884-.321.4677-.189.8885-.477 1.2334-.845l-.4696-.469c-.0119.013-.0222.029-.0343.042h.0001Z" fill="#454543"/><rect x=".5" y="176.374" width="131" height="73" rx="8.5" stroke="#BFC9D1"/><rect x="377.5" y="69.374" width="131" height="73" rx="8.5" fill="#fff"/><path d="M471.759 85h-58.518c-11.455 0-20.741 9.2859-20.741 20.741v.526c0 11.455 9.286 20.74 20.741 20.74h58.518c11.455 0 20.741-9.285 20.741-20.74v-.526C492.5 94.2859 483.214 85 471.759 85Z" fill="#1D1D1B"/><path d="M471.759 85h-58.518c-11.455 0-20.741 9.2859-20.741 20.741v.526c0 11.455 9.286 20.74 20.741 20.74h58.518c11.455 0 20.741-9.285 20.741-20.74v-.526C492.5 94.2859 483.214 85 471.759 85Z" fill="#64B4F3"/><path d="M411.007 98.4747c-1.575 0-3.114.467-4.424 1.342-1.309.8753-2.33 2.1183-2.933 3.5733-.602 1.455-.76 3.057-.453 4.601.307 1.545 1.066 2.964 2.179 4.077 1.114 1.114 2.533 1.872 4.078 2.18 1.544.307 3.145.149 4.6-.453 1.455-.603 2.699-1.624 3.574-2.933.875-1.31 1.342-2.849 1.342-4.424 0-2.112-.839-4.138-2.332-5.631-1.494-1.4933-3.519-2.3323-5.631-2.3323Zm0 14.8153c-1.355 0-2.68-.402-3.807-1.155-1.126-.753-2.005-1.823-2.523-3.075-.519-1.252-.654-2.63-.39-3.959.264-1.329.917-2.55 1.875-3.508.958-.959 2.179-1.6111 3.508-1.8755 1.33-.2644 2.707-.1287 3.959.3895 1.252.519 2.322 1.397 3.075 2.524.753 1.127 1.155 2.452 1.155 3.807-.002 1.816-.725 3.558-2.009 4.842-1.285 1.285-3.026 2.007-4.843 2.01Zm3.859-10.377c-.06-.041-.128-.07-.199-.084-.072-.015-.145-.016-.217-.002-.071.014-.14.041-.201.081s-.113.092-.154.152l-4.5 6.622-2.053-2.222c-.101-.105-.239-.165-.384-.169-.145-.004-.286.048-.393.147-.106.098-.17.235-.178.38-.007.145.043.287.139.395l2.527 2.736c.052.056.116.101.186.132.07.031.146.047.222.047.014 0 .028-.001.042-.002.083-.006.164-.031.236-.073.073-.042.135-.1.182-.169l4.893-7.199c.041-.061.07-.128.084-.2.015-.071.016-.145.002-.217-.014-.071-.041-.139-.081-.2s-.092-.114-.153-.155Zm18.386-1.125c.162-.34.257-.708.28-1.084h-1.384c-.031.192-.095.377-.188.547-.088.157-.203.298-.34.415-.138.116-.296.206-.466.266-.183.064-.376.095-.57.094-.252.004-.502-.056-.725-.175-.218-.121-.405-.291-.546-.496-.162-.239-.279-.505-.346-.785-.16-.684-.16-1.3953 0-2.079.068-.2799.185-.5457.346-.7848.14-.2065.327-.3767.546-.4963.222-.1168.47-.176.721-.1722.192-.0014.384.032.565.0987.172.0638.331.1591.468.2811.14.1252.255.2744.342.4405.093.1793.157.3726.188.5722h1.384c-.02-.3808-.114-.754-.277-1.0988-.31-.6602-.864-1.1748-1.545-1.4355-.359-.1387-.741-.2082-1.125-.2051-.458-.0073-.911.0834-1.331.2658-.388.1732-.732.434-1.003.7621-.288.3571-.504.7674-.633 1.2077-.295 1.0489-.295 2.1586 0 3.2076.129.441.344.853.633 1.21.271.329.615.589 1.003.762.785.329 1.663.354 2.466.071.336-.122.645-.308.911-.546.261-.238.474-.525.626-.843Zm6.329.843c.262-.238.474-.525.627-.843.162-.34.257-.708.28-1.084h-1.385c-.031.192-.094.377-.188.547-.087.157-.202.298-.339.415-.138.116-.296.206-.466.266-.183.064-.376.095-.57.094-.253.004-.502-.056-.725-.175-.218-.121-.406-.291-.547-.496-.161-.239-.278-.505-.346-.785-.16-.6839-.16-1.3953 0-2.079.068-.2799.186-.5456.346-.7848.14-.2065.328-.3767.547-.4963.222-.1168.47-.176.72-.1722.193-.0014.384.032.565.0987.173.0638.332.1591.469.2811.139.1252.255.2744.341.4405.094.1793.157.3726.189.5722h1.384c-.02-.3808-.115-.754-.278-1.0988-.309-.6602-.863-1.1748-1.544-1.4355-.359-.1387-.741-.2082-1.126-.2051-.457-.0073-.911.0834-1.33.2658-.389.1732-.732.434-1.003.7621-.289.357-.504.7674-.634 1.2077-.295 1.0489-.295 2.1586 0 3.2076.13.441.345.853.634 1.21.271.329.614.589 1.003.762.785.329 1.663.354 2.465.071.336-.122.645-.307.911-.546Zm6.558-6.0589c-.209-.2208-.463-.3951-.744-.5114-.303-.1243-.628-.1863-.956-.1823h-2.835v7.3066h1.423v-2.268h1.341c.336.004.67-.057.982-.18.289-.115.551-.289.768-.512.219-.2274.389-.498.499-.7946.121-.3281.181-.6757.177-1.0254.004-.3527-.054-.7033-.172-1.0356-.105-.2959-.269-.5672-.483-.7973Zm-1.128 2.78c-.262.2298-.605.3463-.953.3241h-1.031v-2.542h1.035c.173-.0112.345.0117.508.0673.164.0556.314.1429.444.2568.118.1273.208.2775.266.4412.057.1637.08.3375.068.5106.012.1717-.012.3441-.07.5062-.058.1621-.149.3104-.267.4357v.0001Zm6.075-3.4737h-1.672l-2.36 7.3066h1.504l.401-1.373h2.582l.401 1.373h1.503l-2.359-7.3066Zm-1.742 4.6186.906-3.0995.906 3.0995h-1.812Zm-19.699 14.849c-.254.006-.504-.055-.726-.178-.206-.119-.371-.299-.47-.516-.112-.248-.167-.517-.161-.789v-.886c-.022-.407.101-.808.348-1.132.125-.143.281-.254.456-.327.175-.072.364-.104.552-.091.182-.004.362.025.534.083.134.043.256.121.352.224.073.08.134.169.183.264.041.081.07.167.089.256h.773c-.012-.203-.065-.402-.156-.583-.092-.181-.221-.342-.378-.471-.432-.322-.963-.484-1.502-.458-.539.025-1.052.237-1.452.598-.394.442-.598 1.02-.568 1.61v.904c-.03.593.174 1.173.568 1.617.2.204.442.364.709.468.267.104.553.15.839.135.518.035 1.031-.12 1.444-.434.156-.122.284-.276.375-.451.092-.176.145-.369.156-.566h-.773c-.123.482-.52.723-1.192.723Zm5.172-4.607c-.291-.009-.58.041-.851.147-.27.107-.516.267-.722.473-.209.216-.372.473-.479.754-.106.282-.154.582-.141.882v.819c-.017.303.027.607.132.893.104.286.265.547.474.768.436.387.998.6 1.581.599.583 0 1.145-.215 1.579-.603.211-.22.374-.48.48-.765.106-.285.152-.589.135-.892v-.819c.017-.303-.028-.606-.133-.89-.105-.285-.268-.545-.477-.765-.209-.201-.457-.358-.728-.461-.271-.104-.56-.151-.85-.14Zm1.411 2.989c.023.435-.109.865-.373 1.211-.127.15-.287.268-.467.345-.18.078-.375.113-.571.103-.269.007-.534-.064-.764-.204-.217-.138-.387-.338-.49-.574-.12-.278-.178-.579-.17-.882v-.646c-.021-.435.118-.862.391-1.2.127-.149.286-.267.466-.346.179-.079.374-.116.569-.109.194-.007.388.029.565.107.178.078.336.195.461.343.269.342.405.77.382 1.205l.001.647Zm7.405-2.989c-.352-.013-.7.081-.997.272-.255.17-.454.412-.572.696h-.04c-.036-.138-.097-.268-.181-.382-.178-.247-.434-.427-.726-.511-.172-.052-.351-.077-.531-.075-.729 0-1.193.3-1.393.9h-.049v-.819h-.769v5.168h.769v-3.341c-.006-.162.021-.324.079-.475.057-.152.144-.291.255-.409.225-.22.526-.345.841-.35.315-.005.619.112.85.325.106.114.187.247.241.392.053.145.078.299.071.454v3.404h.769v-3.332c-.005-.163.023-.326.082-.479.059-.152.148-.292.261-.409.111-.116.246-.208.395-.269.148-.061.308-.091.469-.086.152-.01.305.012.448.065.143.053.273.135.382.242.198.224.301.516.287.814v3.454h.773v-3.639c.014-.219-.02-.439-.098-.645-.078-.205-.199-.392-.354-.547-.351-.296-.803-.446-1.262-.418Zm21.784 0c-.825 0-1.348.345-1.569 1.036h-.049v-.955h-.769v5.168h.769v-2.898c-.018-.432.112-.857.368-1.205.129-.159.293-.284.48-.366.187-.082.39-.119.594-.106.158-.01.317.014.466.07.148.056.283.143.395.255.22.264.329.603.306.945v3.305h.773v-3.549c.015-.232-.019-.466-.101-.684-.083-.218-.211-.415-.376-.58-.357-.304-.818-.46-1.287-.436Zm-5.873 0c-.464-.023-.924.093-1.322.332-.163.11-.298.256-.395.426-.097.171-.153.362-.164.558h.751c.132-.413.497-.62 1.094-.62.303-.019.603.069.848.249.105.096.186.215.238.347.053.133.074.275.063.417v.529h-1.384c-.34-.009-.677.057-.988.192-.254.11-.469.293-.617.527-.14.238-.21.511-.204.787-.002.224.041.446.127.653.078.189.195.359.343.5.155.141.337.25.534.32.219.08.45.12.683.118.298.018.596-.045.861-.183.265-.137.488-.345.644-.599h.027v.696h.755v-3.549c.02-.241-.018-.483-.11-.706-.092-.224-.235-.423-.418-.58-.395-.289-.877-.435-1.366-.414Zm1.112 3.481c.003.16-.029.319-.094.465-.065.146-.162.276-.283.381-.257.228-.591.349-.934.339-.274.008-.543-.077-.764-.24-.093-.08-.169-.178-.223-.288-.055-.11-.086-.23-.092-.353-.007-.122.012-.245.055-.36.042-.115.108-.221.192-.31.22-.174.498-.258.778-.235h1.366l-.001.601Zm9.988 1.126c-.254.006-.504-.055-.726-.178-.206-.119-.371-.299-.47-.516-.112-.248-.167-.517-.161-.789v-.886c-.022-.407.102-.808.349-1.132.124-.143.28-.254.455-.327.175-.072.364-.104.553-.091.181-.004.361.025.533.083.135.043.256.121.353.224.072.08.133.169.183.264.04.081.069.167.088.256h.773c-.011-.203-.064-.402-.156-.583-.092-.181-.22-.342-.377-.471-.433-.322-.964-.484-1.503-.458-.538.025-1.052.237-1.452.598-.393.442-.597 1.02-.567 1.61v.904c-.03.593.173 1.173.567 1.617.201.204.442.364.709.468.267.104.553.15.839.135.518.035 1.031-.12 1.445-.434.155-.122.283-.276.374-.451.092-.176.145-.369.157-.566h-.773c-.124.482-.521.723-1.193.723Zm7.184-1.727v-.633c.014-.297-.03-.594-.131-.874s-.256-.538-.457-.758c-.405-.394-.949-.615-1.514-.615-.566 0-1.109.221-1.515.615-.2.22-.355.478-.456.758-.101.28-.146.577-.132.874v.836c-.032.602.175 1.193.575 1.644.206.208.455.369.728.474.273.105.566.151.858.134.281.004.559-.039.825-.126.222-.069.427-.182.604-.331.142-.121.265-.263.367-.42.085-.132.143-.28.171-.434h-.818c-.072.189-.212.346-.391.441-.231.129-.493.192-.758.183-.191.01-.381-.022-.558-.096-.177-.074-.334-.186-.461-.329-.25-.304-.379-.688-.364-1.081v-.262h3.427Zm-3.427-.687c-.021-.398.109-.79.364-1.096.119-.135.267-.241.432-.312.166-.071.344-.104.524-.097.244-.005.484.058.694.183.204.125.366.309.466.526.114.25.17.522.165.796v.09h-2.645v-.09Zm-19.162 3.056h.774v-5.168h-.774v5.168Zm-2.554 0h.782v-7.075h-.782v7.075Zm2.939-7.36c-.077-.002-.153.012-.224.04-.071.029-.136.071-.19.125-.056.054-.099.119-.129.191-.029.072-.043.149-.041.227-.002.077.012.153.041.224.03.071.074.135.129.187.055.054.12.096.191.124.071.027.147.041.223.039.104.002.206-.023.298-.07.089-.045.162-.115.21-.201.052-.093.077-.197.075-.303.003-.077-.011-.154-.039-.226-.028-.072-.071-.138-.126-.192-.055-.055-.12-.098-.192-.126-.072-.028-.149-.042-.226-.039Zm-6.33 2.111c-.356-.013-.708.076-1.015.258-.248.147-.44.373-.545.642h-.04v-.819h-.733v6.977h.773v-2.573h.036c.251.567.747.85 1.488.85.273.013.546-.033.8-.135.253-.101.483-.256.672-.453.385-.443.581-1.019.549-1.605v-.949c.031-.583-.162-1.156-.54-1.601-.184-.197-.408-.352-.657-.454-.25-.103-.518-.15-.788-.138Zm1.217 2.952c.032.453-.099.902-.369 1.266-.122.142-.274.254-.445.328-.171.075-.356.11-.543.102-.191.008-.381-.024-.559-.094-.178-.071-.338-.178-.472-.315-.13-.14-.231-.304-.298-.483-.067-.178-.098-.369-.091-.559v-.959c-.022-.411.11-.815.371-1.132.129-.141.287-.251.463-.324.176-.072.366-.104.557-.095.191-.009.382.025.558.1.176.074.333.188.459.332.269.362.4.809.369 1.259v.574Zm24.085-8.421c.393 0 .77-.156 1.048-.434s.434-.654.434-1.047v-7.4076c0-.393-.156-.7698-.434-1.0476-.278-.2778-.655-.4339-1.048-.4339h-.228c.021-.1722.032-.3454.033-.5189v-1.4815c0-1.1787-.468-2.3092-1.302-3.1427-.833-.8335-1.964-1.3017-3.142-1.3017h-1.832c-1.179 0-2.309.4682-3.143 1.3017-.833.8335-1.302 1.964-1.302 3.1427v1.4815c.001.1735.012.3467.034.5189h-.229c-.393 0-.77.1561-1.047.4339-.278.2778-.434.6546-.434 1.0476v7.4076c0 .393.156.769.434 1.047.277.278.654.434 1.047.434h11.111Zm-4.63-4.85v2.138c0 .246-.097.481-.271.655-.173.174-.409.271-.654.271-.246 0-.482-.097-.655-.271-.174-.174-.271-.409-.271-.655v-2.138c-.353-.203-.629-.518-.785-.8946-.156-.3766-.184-.7942-.078-1.188.105-.3937.338-.7417.661-.9899.324-.2481.72-.3827 1.128-.3827.407 0 .803.1346 1.127.3827.323.2482.556.5962.661.9899.106.3938.078.8114-.078 1.188-.156.3766-.431.6916-.785.8946Zm-4.804-7.5205c.001-.7855.313-1.5386.869-2.0941.555-.5555 1.308-.8679 2.094-.8688h1.831c.786.0009 1.539.3133 2.095.8688.555.5555.868 1.3086.868 2.0941v1.4815c-.001.1742-.018.3478-.051.5189h-7.655c-.032-.1711-.05-.3447-.051-.5189v-1.4815Z" fill="#fff"/><rect x="377.5" y="69.374" width="131" height="73" rx="8.5" stroke="#BFC9D1"/></g><defs><clipPath id="clip0_1830_35919"><path fill="#fff" d="M0 .108398h543v477H0z"/></clipPath></defs></svg>