<svg width="141" height="29" viewBox="0 0 141 29" fill="#726988" xmlns="http://www.w3.org/2000/svg">
<path d="M39.9744 22.2313H35.0312V7.25H40.0343C42.8204 7.25 45.2471 8.14352 45.2471 10.973C45.2471 12.9089 44.1985 13.9811 42.5808 14.3981V14.4279C44.3783 14.696 45.8762 15.8873 45.8762 18.0318C45.8762 21.1293 43.4196 22.2313 39.9744 22.2313ZM39.7048 9.69228H37.8473V13.4153H39.6149C41.3225 13.4153 42.0715 12.8196 42.0715 11.4793C42.1014 10.2582 41.2925 9.69228 39.7048 9.69228ZM39.6748 15.6788H37.8773V19.789H39.555C41.3824 19.789 42.3711 19.2231 42.3711 17.7935C42.3411 16.3936 41.5322 15.6788 39.6748 15.6788Z" fill="#726988"/>
<path d="M54.0843 13.9188C53.9046 13.7997 53.575 13.6805 52.9159 13.6805C51.5678 13.6805 50.7889 14.8421 50.5193 15.3484V22.2285H47.5234V11.2681H50.5193V12.7572C50.9986 11.9531 51.8974 11 53.3054 11C54.1143 11 54.5337 11.1489 54.8033 11.2978L54.0843 13.9188Z" fill="#726988"/>
<path d="M60.1686 22.4966C56.3339 22.4966 54.6562 19.6075 54.6562 16.7781C54.6562 13.9784 56.304 11 60.1386 11C63.9733 11 65.7109 13.889 65.7109 16.6887C65.7109 19.4586 64.0332 22.4966 60.1686 22.4966ZM60.1087 13.2338C58.401 13.2338 57.8318 14.6634 57.8318 16.6887C57.8318 18.714 58.5209 20.2032 60.1985 20.2032C61.9062 20.2032 62.5353 18.8034 62.5353 16.7483C62.5353 14.723 61.8163 13.2338 60.1087 13.2338Z" fill="#726988"/>
<path d="M73.1065 22.23C73.0166 21.9619 72.9567 21.396 72.9267 21.0684C72.4174 21.6641 71.3988 22.498 69.841 22.498C67.9536 22.498 66.5156 21.3662 66.5156 19.4303C66.5156 16.571 69.4815 15.5286 72.3875 15.5286H72.7769V14.9031C72.7769 13.9501 72.3875 13.3842 70.9794 13.3842C69.5714 13.3842 68.5827 14.1288 68.1633 14.4266L66.8452 12.6098C67.5043 12.0141 68.9423 11.0312 71.309 11.0312C74.3048 11.0312 75.7428 12.1928 75.7428 15.0819V19.0133C75.7428 20.5025 75.8926 21.5449 76.0723 22.2598H73.1065V22.23ZM72.4773 17.3752H72.0879C70.3203 17.3752 69.092 17.8815 69.092 19.1622C69.092 19.9664 69.7511 20.294 70.4102 20.294C71.4887 20.294 72.1178 19.6686 72.4474 19.3112V17.3752H72.4773Z" fill="#726988"/>
<path d="M82.2452 11.0017C83.5933 11.0017 84.4022 11.4783 84.7917 11.7761V6.11719H87.7875V19.1029C87.7875 20.5326 87.9672 21.6346 88.117 22.2302H85.1811C85.0912 21.9622 84.9714 21.3665 84.9415 21.0389C84.2524 21.8431 83.3237 22.5281 81.8557 22.5281C79.0996 22.5281 77.332 20.473 77.332 16.8096C77.332 13.2653 79.4291 11.0017 82.2452 11.0017ZM82.7545 20.1156C83.833 20.1156 84.552 19.3412 84.8216 19.0136V14.0695C84.4322 13.7418 83.863 13.3547 82.9043 13.3547C81.3764 13.3547 80.5376 14.6354 80.5376 16.7798C80.5076 18.8647 81.1967 20.1156 82.7545 20.1156Z" fill="#726988"/>
<path d="M96.6559 13.9188C96.4762 13.7997 96.1466 13.6805 95.5175 13.6805C94.1694 13.6805 93.3905 14.8421 93.1208 15.3484V22.2285H90.125V11.2681H93.1208V12.7572C93.6002 11.9531 94.4989 11 95.907 11C96.7158 11 97.1652 11.1489 97.4049 11.2978L96.6559 13.9188Z" fill="#726988"/>
<path d="M100.044 9.8685C99.0549 9.8685 98.3359 9.09413 98.3359 8.20061C98.3359 7.33688 99.0549 6.5625 100.044 6.5625C101.032 6.5625 101.751 7.3071 101.751 8.20061C101.781 9.09413 101.032 9.8685 100.044 9.8685Z" fill="#726988"/>
<path d="M101.569 11.2734H98.543V22.2339H101.569V11.2734Z" fill="#726988"/>
<path d="M108.162 11.0017C109.51 11.0017 110.319 11.4783 110.708 11.7761V6.11719H113.704V19.1029C113.704 20.5326 113.884 21.6346 114.034 22.2302H111.068C110.978 21.9622 110.858 21.3665 110.828 21.0389C110.139 21.8431 109.21 22.5281 107.742 22.5281C104.986 22.5281 103.219 20.473 103.219 16.8096C103.219 13.2653 105.346 11.0017 108.162 11.0017ZM108.671 20.1156C109.75 20.1156 110.469 19.3412 110.738 19.0136V14.0695C110.349 13.7418 109.78 13.3547 108.821 13.3547C107.293 13.3547 106.454 14.6354 106.454 16.7798C106.424 18.8647 107.113 20.1156 108.671 20.1156Z" fill="#726988"/>
<path d="M126.103 11V13.2338H124.635C124.904 13.7401 125.054 14.3656 125.054 14.991C125.054 17.3142 123.377 18.9523 120.291 18.9523C119.812 18.9523 119.392 18.8927 118.973 18.8332C118.793 18.9821 118.553 19.1608 118.553 19.4884C118.553 20.0841 119.182 20.1734 120.77 20.2628C123.047 20.3819 125.953 20.4117 125.953 23.6284C125.953 25.9515 123.526 27.5896 119.931 27.5896C116.906 27.5896 115.078 26.6365 115.078 24.6708C115.078 23.4496 115.827 22.5859 116.936 21.9902C116.336 21.6328 115.977 21.1265 115.977 20.3223C115.977 19.2799 116.576 18.6544 117.205 18.2673C115.977 17.5822 115.228 16.4207 115.228 14.991C115.228 12.6381 117.055 11 120.111 11C120.89 11 126.103 11 126.103 11ZM117.685 24.1049C117.685 24.9984 118.284 25.5941 119.842 25.5941C121.669 25.5941 122.718 24.9091 122.718 23.9858C122.718 22.8242 121.669 22.854 120.081 22.7348C119.572 22.7051 119.063 22.6455 118.583 22.5859C117.984 22.9731 117.685 23.4496 117.685 24.1049ZM122.148 14.991C122.148 13.7103 121.399 12.9657 120.171 12.9657C118.943 12.9657 118.194 13.7103 118.194 14.991C118.194 16.242 118.943 17.0163 120.171 17.0163C121.399 17.0163 122.148 16.242 122.148 14.991Z" fill="#726988"/>
<path d="M132.666 20.2613C134.164 20.2613 135.003 19.755 135.542 19.4869L136.501 21.4229C135.782 21.8399 134.643 22.4653 132.397 22.4653C128.712 22.4653 126.645 20.1422 126.645 16.6575C126.645 13.2025 129.041 10.9688 132.097 10.9688C135.542 10.9688 137.22 13.3515 136.86 17.4021H129.88C129.97 19.1295 130.839 20.2613 132.666 20.2613ZM133.924 15.4065C133.894 14.1854 133.415 13.1728 132.037 13.1728C130.779 13.1728 130.06 13.9769 129.85 15.4065H133.924Z" fill="#726988"/>
<path d="M139.407 14.1288C138.568 14.1288 137.879 13.4437 137.879 12.58C137.879 11.7163 138.568 11.0312 139.407 11.0312C140.246 11.0312 140.965 11.7163 140.965 12.58C140.935 13.4437 140.246 14.1288 139.407 14.1288ZM139.407 11.2695C138.658 11.2695 138.119 11.8056 138.119 12.58C138.119 13.3544 138.658 13.8905 139.407 13.8905C140.156 13.8905 140.695 13.3544 140.695 12.58C140.695 11.8354 140.126 11.2695 139.407 11.2695ZM139.826 13.4735L139.407 12.8481C139.317 12.7289 139.257 12.6694 139.137 12.6694V13.4735H138.838V11.6269H139.437C139.826 11.6269 140.006 11.8652 140.006 12.1333C140.006 12.4013 139.826 12.58 139.527 12.6098C139.587 12.6694 139.676 12.7289 139.736 12.8481L140.156 13.4437L139.826 13.4735ZM139.377 11.895H139.107V12.4609H139.287C139.497 12.4609 139.706 12.4311 139.706 12.1928C139.706 12.0141 139.616 11.895 139.377 11.895Z" fill="#726988"/>
<path d="M25.445 0.193846L0.0703125 0.164062V0.193846V28.5183H25.445V0.193846ZM19.9327 19.5236V20.7149C17.1466 20.7149 15.409 19.8214 14.3005 18.7194C14.4803 19.2257 14.69 19.7618 14.9596 20.2682C16.847 23.9911 20.1724 25.8973 25.0256 25.9569V27.5056C18.2251 27.4461 15.0495 23.9018 13.5516 20.9234C13.222 20.2682 12.9524 19.6129 12.7427 18.9874C10.4958 24.4975 4.35436 24.557 4.26448 24.557V22.8296C4.56407 22.8296 11.8439 22.5913 11.8439 14.3114H13.7014C13.7014 6.03148 20.9513 5.97191 21.2509 5.97191V4.24445C21.161 4.24445 15.0195 4.3338 12.7727 9.81402C12.5629 9.18856 12.2933 8.53332 11.9638 7.87808C10.4659 4.95926 7.29028 1.41498 0.489729 1.35542V0.581036H25.0256V14.3412H13.6714C13.6714 14.5497 13.7912 19.5236 19.9327 19.5236ZM0.489729 2.90418C5.31302 2.96374 8.66836 4.86991 10.5557 8.59289C10.8254 9.129 11.0351 9.63532 11.2148 10.1416C10.1064 9.03965 8.36878 8.14613 5.58265 8.14613V9.33748C11.7241 9.33748 11.8439 14.1029 11.8439 14.3114H0.489729V2.90418Z" fill="#726988"/>
</svg>
