<svg width="68" height="22" viewBox="0 0 68 22" fill="none" xmlns="http://www.w3.org/2000/svg">
<g clip-path="url(#clip0_505_3021)">
<path fill-rule="evenodd" clip-rule="evenodd" d="M33.6125 0.465221L29.0764 21.6698H23.5903L28.1283 0.465221H33.6125ZM56.6912 14.1564L59.5788 6.19465L61.2411 14.1564H56.6912ZM62.8122 21.6698H67.8857L63.4571 0.465221H58.7752C57.722 0.465221 56.8342 1.07714 56.44 2.02031L48.2092 21.6698H53.9679L55.1122 18.5018H62.1494L62.8122 21.6698ZM48.4943 14.746C48.5188 9.15019 40.7559 8.84125 40.8094 6.34079C40.8263 5.58053 41.5504 4.77219 43.136 4.56508C43.9208 4.46262 46.0884 4.38311 48.5439 5.51359L49.5078 1.01742C48.1869 0.538135 46.4894 0.0773926 44.3756 0.0773926C38.9541 0.0773926 35.1374 2.96002 35.107 7.08628C35.0708 10.1405 37.8306 11.8424 39.9099 12.8578C42.0461 13.8968 42.7626 14.5634 42.7548 15.4928C42.7388 16.9162 41.0501 17.5435 39.4714 17.568C36.7136 17.6111 35.1129 16.8225 33.8376 16.2282L32.8444 20.8749C34.1248 21.4633 36.4908 21.9762 38.9444 22.0013C44.7074 22.0013 48.4764 19.1558 48.4943 14.746ZM25.7743 0.465221L16.8866 21.6698H11.0883L6.71471 4.74705C6.44914 3.70519 6.21877 3.32271 5.41137 2.88459C4.09294 2.16833 1.91557 1.49702 0 1.07996L0.129171 0.465221H9.46377C10.6527 0.465221 11.7232 1.25628 11.9931 2.62688L14.3031 14.8975L20.0125 0.465221H25.7743Z" fill="#F2F4F6"/>
<path fill-rule="evenodd" clip-rule="evenodd" d="M33.6125 0.465221L29.0764 21.6698H23.5903L28.1283 0.465221H33.6125ZM56.6912 14.1564L59.5788 6.19465L61.2411 14.1564H56.6912ZM62.8122 21.6698H67.8857L63.4571 0.465221H58.7752C57.722 0.465221 56.8342 1.07714 56.44 2.02031L48.2092 21.6698H53.9679L55.1122 18.5018H62.1494L62.8122 21.6698ZM48.4943 14.746C48.5188 9.15019 40.7559 8.84125 40.8094 6.34079C40.8263 5.58053 41.5504 4.77219 43.136 4.56508C43.9208 4.46262 46.0884 4.38311 48.5439 5.51359L49.5078 1.01742C48.1869 0.538135 46.4894 0.0773926 44.3756 0.0773926C38.9541 0.0773926 35.1374 2.96002 35.107 7.08628C35.0708 10.1405 37.8306 11.8424 39.9099 12.8578C42.0461 13.8968 42.7626 14.5634 42.7548 15.4928C42.7388 16.9162 41.0501 17.5435 39.4714 17.568C36.7136 17.6111 35.1129 16.8225 33.8376 16.2282L32.8444 20.8749C34.1248 21.4633 36.4908 21.9762 38.9444 22.0013C44.7074 22.0013 48.4764 19.1558 48.4943 14.746ZM25.7743 0.465221L16.8866 21.6698H11.0883L6.71471 4.74705C6.44914 3.70519 6.21877 3.32271 5.41137 2.88459C4.09294 2.16833 1.91557 1.49702 0 1.07996L0.129171 0.465221H9.46377C10.6527 0.465221 11.7232 1.25628 11.9931 2.62688L14.3031 14.8975L20.0125 0.465221H25.7743Z" fill="#1C0D3F" fill-opacity="0.5"/>
</g>
<defs>
<clipPath id="clip0_505_3021">
<rect width="67.8857" height="22" fill="white"/>
</clipPath>
</defs>
</svg>
