<svg width="141" height="30" viewBox="0 0 141 30" fill="none" xmlns="http://www.w3.org/2000/svg">
<g clip-path="url(#clip0_505_3023)">
<path fill-rule="evenodd" clip-rule="evenodd" d="M15.9185 22.066C22.8421 23.3055 27.9102 16.8041 31.1569 11.178C32.4563 8.92394 34.4296 3.02249 32.2195 0.792328C30.6312 -0.900744 29.3262 0.478578 28.2582 1.60746C27.9653 1.91702 27.6902 2.20777 27.432 2.41115L28.3581 3.4744C30.2077 5.73789 28.5989 10.0385 27.5025 12.3366C25.8571 15.1657 22.7512 19.4469 19.1214 18.8511C18.3336 18.6719 17.6813 17.9315 17.4058 17.153C19.3608 15.2778 21.6759 11.9834 22.977 9.79197C24.066 8.00927 25.9556 4.56431 24.213 3.14516C22.7664 2.17347 19.8695 3.57263 18.3171 4.84296C17.3721 5.6673 16.7353 6.34232 16.002 7.3029C14.0042 9.92772 12.1019 14.4285 12.3005 17.893C11.3421 18.5668 10.2459 19.2381 8.94422 18.8511C7.65514 18.571 7.4222 17.5083 7.2392 16.6734L7.23873 16.6713C6.43626 11.7704 11.3653 5.61226 14.3093 1.93407L14.5201 1.67072C14.5201 1.67072 12.2226 2.27442 10.5458 2.34229C9.27651 2.39495 8.11476 2.24177 7.05292 2.10176C4.89004 1.81659 3.14173 1.58607 1.74335 3.26116C1.11595 4.14992 0.753614 5.08384 0.63623 6.19424C1.40164 5.56002 2.49738 5.63016 3.58682 5.69991C3.71328 5.708 3.83973 5.7161 3.96549 5.72308C4.32871 5.75388 4.65993 5.78671 4.96918 5.81737C6.44131 5.96328 7.41567 6.05985 8.97427 5.65397C7.29398 7.95102 4.4946 12.4802 3.98 15.3064C3.70729 17.1817 3.73098 20.138 5.38504 21.4653C8.12585 23.2334 10.8481 21.9974 13.2795 20.3695C14.0014 21.18 14.8923 21.8888 15.9185 22.066ZM20.5687 6.38107C21.298 6.03504 21.0793 7.08472 21.0793 7.08472C20.9839 8.17235 20.2325 9.45 19.6193 10.4925C19.5611 10.5915 19.5042 10.6883 19.4491 10.7827C18.7973 11.8955 16.513 14.5196 15.5179 15.0838C15.561 13.4958 17.3146 10.0289 18.2109 8.70626C18.6697 7.92856 19.8405 6.72734 20.5687 6.38107Z" fill="#F2F4F6"/>
<path fill-rule="evenodd" clip-rule="evenodd" d="M15.9185 22.066C22.8421 23.3055 27.9102 16.8041 31.1569 11.178C32.4563 8.92394 34.4296 3.02249 32.2195 0.792328C30.6312 -0.900744 29.3262 0.478578 28.2582 1.60746C27.9653 1.91702 27.6902 2.20777 27.432 2.41115L28.3581 3.4744C30.2077 5.73789 28.5989 10.0385 27.5025 12.3366C25.8571 15.1657 22.7512 19.4469 19.1214 18.8511C18.3336 18.6719 17.6813 17.9315 17.4058 17.153C19.3608 15.2778 21.6759 11.9834 22.977 9.79197C24.066 8.00927 25.9556 4.56431 24.213 3.14516C22.7664 2.17347 19.8695 3.57263 18.3171 4.84296C17.3721 5.6673 16.7353 6.34232 16.002 7.3029C14.0042 9.92772 12.1019 14.4285 12.3005 17.893C11.3421 18.5668 10.2459 19.2381 8.94422 18.8511C7.65514 18.571 7.4222 17.5083 7.2392 16.6734L7.23873 16.6713C6.43626 11.7704 11.3653 5.61226 14.3093 1.93407L14.5201 1.67072C14.5201 1.67072 12.2226 2.27442 10.5458 2.34229C9.27651 2.39495 8.11476 2.24177 7.05292 2.10176C4.89004 1.81659 3.14173 1.58607 1.74335 3.26116C1.11595 4.14992 0.753614 5.08384 0.63623 6.19424C1.40164 5.56002 2.49738 5.63016 3.58682 5.69991C3.71328 5.708 3.83973 5.7161 3.96549 5.72308C4.32871 5.75388 4.65993 5.78671 4.96918 5.81737C6.44131 5.96328 7.41567 6.05985 8.97427 5.65397C7.29398 7.95102 4.4946 12.4802 3.98 15.3064C3.70729 17.1817 3.73098 20.138 5.38504 21.4653C8.12585 23.2334 10.8481 21.9974 13.2795 20.3695C14.0014 21.18 14.8923 21.8888 15.9185 22.066ZM20.5687 6.38107C21.298 6.03504 21.0793 7.08472 21.0793 7.08472C20.9839 8.17235 20.2325 9.45 19.6193 10.4925C19.5611 10.5915 19.5042 10.6883 19.4491 10.7827C18.7973 11.8955 16.513 14.5196 15.5179 15.0838C15.561 13.4958 17.3146 10.0289 18.2109 8.70626C18.6697 7.92856 19.8405 6.72734 20.5687 6.38107Z" fill="#1C0D3F" fill-opacity="0.5"/>
<path fill-rule="evenodd" clip-rule="evenodd" d="M130.842 9.48195C130.461 9.96915 129.161 11.3392 128.74 11.7669C128.721 11.7839 128.523 11.9676 128.523 11.9676C125.016 15.3772 122.337 17.3556 120.785 17.6745C119.727 17.8996 119.242 17.9593 118.747 17.0343C118.738 17.017 118.727 16.984 118.727 16.984C118.727 16.977 118.676 16.551 118.676 16.551C118.676 15.3214 120.324 12.5648 122.528 10.7227C123.37 10.0101 123.469 9.6947 123.481 9.61621C123.166 9.13814 122.976 8.91355 122.548 8.74053C121.935 8.70944 120.995 9.34053 120.376 9.76109C119.964 10.0342 118.843 11.0272 117.616 12.1142L117.374 12.3289L117.362 12.3391C116.267 13.3137 115.137 14.3192 114.505 14.8229C114.505 14.8229 113.621 15.5233 113.43 15.6773C113.439 15.4972 113.461 15.1354 113.461 15.1354C113.485 14.5018 114.172 13.4445 115.156 12.0216C115.512 11.4971 116.39 10.0101 116.496 9.74653L116.509 9.72037L116.494 9.6947C116.208 9.24156 115.662 8.88862 115.226 8.86887C115.181 8.88541 114.835 9.16011 114.835 9.16011C114.094 9.74653 112.513 11.1267 110.986 12.4659C109.584 13.695 108.261 14.852 107.932 15.0835C105.357 16.9361 103.127 18.144 100.926 18.8952C100.532 19.0063 99.187 19.3193 98.5209 18.5931C98.5209 18.5931 98.3697 18.4298 98.2907 18.336C98.3905 18.2925 98.608 18.2027 98.608 18.2027C100.532 17.409 102.956 16.3176 104.713 14.857L104.716 14.8549C104.81 14.7753 107.411 12.5844 107.411 10.424C107.411 10.3268 107.404 10.2347 107.397 10.1392C107.231 9.35336 106.536 9.11248 105.548 8.98882C102.314 9.00931 99.409 10.9386 97.9001 12.5826L97.6348 12.8642L97.634 12.865C96.933 13.6038 94.8056 15.8459 93.9412 17.8364C93.9412 17.8364 93.904 17.9253 93.8913 17.9411C93.8867 17.9361 93.8123 17.9667 93.8123 17.9667C92.3548 18.564 90.7711 19.1386 89.0106 19.3183C88.0603 19.4328 86.7138 19.5113 85.9596 18.8434C85.9596 18.8434 85.7753 18.6859 85.6933 18.6114C85.8405 18.5344 89.3696 16.7056 89.3696 16.7056C92.2785 14.9942 94.2274 12.3886 94.2274 11.0314C94.1673 9.45677 92.6472 9.10038 91.3801 9.08335C89.4984 9.09421 87.7619 9.76677 85.5695 11.3315C84.2989 12.2393 81.6396 15.1847 80.9282 18.2081C80.9282 18.2081 80.9093 18.3073 80.8956 18.3518C80.8385 18.3685 80.6196 18.4179 80.6196 18.4179C79.2268 18.7536 76.8867 19.3025 76.4554 17.9855C75.7626 15.846 77.9728 13.7852 79.7456 12.1321L79.7477 12.1302C79.7477 12.128 80.7464 11.1797 80.7464 11.1797C80.8854 11.028 81.0555 10.6748 81.0081 10.3961C80.9898 10.2636 80.9221 10.1649 80.7988 10.094C79.8496 9.68902 78.939 10.0012 77.9745 10.3354C77.2514 10.583 76.5017 10.8364 75.7083 10.7821C75.7083 10.7821 75.5535 10.7641 75.4598 10.758C75.469 10.6772 75.4827 10.5116 75.4827 10.5116C75.5229 10.0597 75.7944 9.78923 76.0373 9.55155C76.0424 9.54957 76.1162 9.47134 76.1162 9.47134C76.158 9.42222 76.1819 9.32819 76.1819 9.22033C76.1819 9.1258 76.1656 9.01918 76.1208 8.92613C76.0582 8.78323 75.9629 8.6966 75.8458 8.68796C75.2907 8.62083 74.3313 9.15271 73.4599 10.0049C72.6227 10.831 72.0967 11.7227 72.0967 12.3351L72.1048 12.4614C72.1094 12.4775 72.1074 12.5108 72.1074 12.5108C72.005 13.8988 70.7573 15.2291 69.0259 17.0738L68.2739 17.8779C68.2783 17.8779 67.9849 18.1672 67.9849 18.1672C66.9471 19.1939 66.2904 19.9634 66.0877 20.3884L66.0269 20.5118L66.1689 20.4753C66.904 20.2611 69.0192 19.2699 72.8076 14.6486C72.8076 14.6486 72.8641 14.583 72.8881 14.5423C72.9375 14.5479 73.0281 14.5618 73.0281 14.5618C73.1937 14.5816 73.3943 14.5054 73.6069 14.4246L73.6519 14.4075C74.0374 14.2587 74.479 14.0926 74.8955 14.3591C74.8955 14.3591 75.0554 14.4584 75.1237 14.5065C75.0509 14.5929 74.3802 15.4231 74.3802 15.4231L74.379 15.4245C73.3227 16.708 72.2382 18.0256 72.2382 19.6065C72.2382 19.9086 72.2775 20.2216 72.3691 20.5459C72.5708 21.4724 73.5486 21.9108 74.3262 22.0085C75.8908 22.2706 77.8506 21.4376 79.5854 20.7003L80.4973 20.3129C80.9845 20.185 81.1268 20.4691 81.2308 20.6769L81.2342 20.6836C81.3565 20.9373 81.5296 21.2937 82.2884 21.6136C84.8311 22.7292 88.5629 22.1783 93.3835 19.9758C93.3835 19.9758 93.5282 19.9086 93.6183 19.8677C93.6529 19.9506 93.7166 20.1135 93.7166 20.1135C94.0639 21.0183 94.7173 21.5776 95.7832 21.8767C99.9339 22.4121 103.357 20.1109 106.665 17.8867L106.668 17.8848C106.672 17.8828 108.178 16.7712 108.426 16.5881C108.487 16.6468 108.756 16.9311 108.794 16.977C108.74 17.0545 107.339 18.9634 107.339 18.9634C106.85 19.6574 106.393 20.3099 106.107 21.042C106.107 21.0361 106.024 21.349 106.024 21.349L106.06 21.5104C106.132 21.6353 106.309 21.7207 106.569 21.7577C109.087 21.4199 111.513 19.4296 113.114 18.1156L113.119 18.1119L113.599 17.718C114.287 17.1355 114.947 16.59 115.208 16.5343C115.208 16.5343 115.309 16.5066 115.359 16.4933C115.397 16.5343 115.475 16.6221 115.475 16.6221C115.484 16.631 115.484 16.6458 115.484 16.6587C115.484 16.7791 115.299 17.0615 115.164 17.2589L114.912 17.6538L114.901 17.6766C114.682 18.1195 114.269 18.9591 114.269 19.7043C114.269 19.9797 114.327 20.2478 114.484 20.4763C115.237 21.607 115.894 21.6431 116.603 21.6821L116.606 21.6822L116.859 21.6955C119.83 21.5105 122.748 19.0124 125.573 16.5926L125.579 16.5881L127.682 14.8229C127.682 14.8229 129.383 13.3808 129.728 13.0829C129.775 13.1856 129.847 13.3808 129.847 13.3808C130.059 13.9077 130.104 14.3883 130.104 14.697L130.051 15.2706C130.02 15.5233 129.55 17.2999 128.907 17.8039C128.905 17.8039 128.773 17.8759 128.773 17.8759C128.768 17.8759 128.363 17.9746 128.363 17.9746L128.348 17.9785C126.797 18.364 125.045 18.7996 124.391 20.2986C124.389 20.3045 124.333 20.6412 124.333 20.6412C124.333 20.8436 124.411 21.1338 124.763 21.3609C125.861 21.6353 126.998 21.3717 128.001 21.1387L129.29 20.8712C130.32 20.877 131.323 20.9932 132.292 21.1056L132.394 21.1173C133.756 21.275 135.039 21.4237 136.401 21.2878C138.183 20.8376 139.602 18.879 140.042 17.2589L140.081 17.1251L139.949 17.1898C137.739 18.2491 135.187 18.2945 133.119 17.3132C133.119 17.3132 132.975 17.2436 132.909 17.2095L133.001 16.9894C133.017 16.9578 134.277 13.9734 134.277 10.1066C134.277 9.93089 134.275 9.75171 134.27 9.57277H134.277C134.251 9.47923 134.24 9.39162 134.24 9.30523C134.24 8.94934 134.426 8.65711 134.596 8.39204C134.767 8.12771 134.914 7.89694 134.914 7.62274C134.914 7.59739 134.912 7.57334 134.911 7.54826C134.911 7.53909 134.91 7.52978 134.91 7.52023C134.909 7.51317 134.909 7.50597 134.909 7.49859C134.9 7.49464 134.9 7.48354 134.9 7.47514C134.9 7.44257 134.91 7.39814 134.91 7.39814C134.914 7.3932 134.914 7.38753 134.914 7.38185C134.914 7.28609 134.759 7.23771 134.684 7.21748C132.955 6.79469 131.972 8.0391 130.842 9.48195ZM85.2976 16.1552C85.4086 15.241 86.8197 13.4701 87.5729 12.7304C88.2579 12.0611 89.1496 11.5184 90.0092 11.2429C90.465 11.138 90.8296 11.2232 91.0206 11.4791C91.0949 11.587 91.1357 11.7116 91.1357 11.8449C91.1357 12.0095 91.0751 12.1845 90.9641 12.357C90.0214 13.7905 87.5918 15.8106 85.6098 16.4183C85.6098 16.4183 85.3796 16.4893 85.2477 16.5343C85.2635 16.4118 85.2976 16.1552 85.2976 16.1552ZM98.6207 15.8086C98.8164 14.4721 100.786 12.4988 100.892 12.3929L100.896 12.3886C101.581 11.721 102.473 11.1797 103.337 10.8994C103.691 10.7513 104.034 10.7826 104.243 10.9791C104.323 11.0608 104.433 11.2104 104.433 11.4604C104.433 11.601 104.398 11.7689 104.31 11.9806C104.091 12.5108 102.434 14.0674 101.963 14.4645C101.438 14.9478 100.003 15.9133 98.9028 16.0875C98.9028 16.0875 98.6961 16.1201 98.5688 16.1374C98.5856 16.0328 98.6207 15.8086 98.6207 15.8086Z" fill="#F2F4F6"/>
<path fill-rule="evenodd" clip-rule="evenodd" d="M130.842 9.48195C130.461 9.96915 129.161 11.3392 128.74 11.7669C128.721 11.7839 128.523 11.9676 128.523 11.9676C125.016 15.3772 122.337 17.3556 120.785 17.6745C119.727 17.8996 119.242 17.9593 118.747 17.0343C118.738 17.017 118.727 16.984 118.727 16.984C118.727 16.977 118.676 16.551 118.676 16.551C118.676 15.3214 120.324 12.5648 122.528 10.7227C123.37 10.0101 123.469 9.6947 123.481 9.61621C123.166 9.13814 122.976 8.91355 122.548 8.74053C121.935 8.70944 120.995 9.34053 120.376 9.76109C119.964 10.0342 118.843 11.0272 117.616 12.1142L117.374 12.3289L117.362 12.3391C116.267 13.3137 115.137 14.3192 114.505 14.8229C114.505 14.8229 113.621 15.5233 113.43 15.6773C113.439 15.4972 113.461 15.1354 113.461 15.1354C113.485 14.5018 114.172 13.4445 115.156 12.0216C115.512 11.4971 116.39 10.0101 116.496 9.74653L116.509 9.72037L116.494 9.6947C116.208 9.24156 115.662 8.88862 115.226 8.86887C115.181 8.88541 114.835 9.16011 114.835 9.16011C114.094 9.74653 112.513 11.1267 110.986 12.4659C109.584 13.695 108.261 14.852 107.932 15.0835C105.357 16.9361 103.127 18.144 100.926 18.8952C100.532 19.0063 99.187 19.3193 98.5209 18.5931C98.5209 18.5931 98.3697 18.4298 98.2907 18.336C98.3905 18.2925 98.608 18.2027 98.608 18.2027C100.532 17.409 102.956 16.3176 104.713 14.857L104.716 14.8549C104.81 14.7753 107.411 12.5844 107.411 10.424C107.411 10.3268 107.404 10.2347 107.397 10.1392C107.231 9.35336 106.536 9.11248 105.548 8.98882C102.314 9.00931 99.409 10.9386 97.9001 12.5826L97.6348 12.8642L97.634 12.865C96.933 13.6038 94.8056 15.8459 93.9412 17.8364C93.9412 17.8364 93.904 17.9253 93.8913 17.9411C93.8867 17.9361 93.8123 17.9667 93.8123 17.9667C92.3548 18.564 90.7711 19.1386 89.0106 19.3183C88.0603 19.4328 86.7138 19.5113 85.9596 18.8434C85.9596 18.8434 85.7753 18.6859 85.6933 18.6114C85.8405 18.5344 89.3696 16.7056 89.3696 16.7056C92.2785 14.9942 94.2274 12.3886 94.2274 11.0314C94.1673 9.45677 92.6472 9.10038 91.3801 9.08335C89.4984 9.09421 87.7619 9.76677 85.5695 11.3315C84.2989 12.2393 81.6396 15.1847 80.9282 18.2081C80.9282 18.2081 80.9093 18.3073 80.8956 18.3518C80.8385 18.3685 80.6196 18.4179 80.6196 18.4179C79.2268 18.7536 76.8867 19.3025 76.4554 17.9855C75.7626 15.846 77.9728 13.7852 79.7456 12.1321L79.7477 12.1302C79.7477 12.128 80.7464 11.1797 80.7464 11.1797C80.8854 11.028 81.0555 10.6748 81.0081 10.3961C80.9898 10.2636 80.9221 10.1649 80.7988 10.094C79.8496 9.68902 78.939 10.0012 77.9745 10.3354C77.2514 10.583 76.5017 10.8364 75.7083 10.7821C75.7083 10.7821 75.5535 10.7641 75.4598 10.758C75.469 10.6772 75.4827 10.5116 75.4827 10.5116C75.5229 10.0597 75.7944 9.78923 76.0373 9.55155C76.0424 9.54957 76.1162 9.47134 76.1162 9.47134C76.158 9.42222 76.1819 9.32819 76.1819 9.22033C76.1819 9.1258 76.1656 9.01918 76.1208 8.92613C76.0582 8.78323 75.9629 8.6966 75.8458 8.68796C75.2907 8.62083 74.3313 9.15271 73.4599 10.0049C72.6227 10.831 72.0967 11.7227 72.0967 12.3351L72.1048 12.4614C72.1094 12.4775 72.1074 12.5108 72.1074 12.5108C72.005 13.8988 70.7573 15.2291 69.0259 17.0738L68.2739 17.8779C68.2783 17.8779 67.9849 18.1672 67.9849 18.1672C66.9471 19.1939 66.2904 19.9634 66.0877 20.3884L66.0269 20.5118L66.1689 20.4753C66.904 20.2611 69.0192 19.2699 72.8076 14.6486C72.8076 14.6486 72.8641 14.583 72.8881 14.5423C72.9375 14.5479 73.0281 14.5618 73.0281 14.5618C73.1937 14.5816 73.3943 14.5054 73.6069 14.4246L73.6519 14.4075C74.0374 14.2587 74.479 14.0926 74.8955 14.3591C74.8955 14.3591 75.0554 14.4584 75.1237 14.5065C75.0509 14.5929 74.3802 15.4231 74.3802 15.4231L74.379 15.4245C73.3227 16.708 72.2382 18.0256 72.2382 19.6065C72.2382 19.9086 72.2775 20.2216 72.3691 20.5459C72.5708 21.4724 73.5486 21.9108 74.3262 22.0085C75.8908 22.2706 77.8506 21.4376 79.5854 20.7003L80.4973 20.3129C80.9845 20.185 81.1268 20.4691 81.2308 20.6769L81.2342 20.6836C81.3565 20.9373 81.5296 21.2937 82.2884 21.6136C84.8311 22.7292 88.5629 22.1783 93.3835 19.9758C93.3835 19.9758 93.5282 19.9086 93.6183 19.8677C93.6529 19.9506 93.7166 20.1135 93.7166 20.1135C94.0639 21.0183 94.7173 21.5776 95.7832 21.8767C99.9339 22.4121 103.357 20.1109 106.665 17.8867L106.668 17.8848C106.672 17.8828 108.178 16.7712 108.426 16.5881C108.487 16.6468 108.756 16.9311 108.794 16.977C108.74 17.0545 107.339 18.9634 107.339 18.9634C106.85 19.6574 106.393 20.3099 106.107 21.042C106.107 21.0361 106.024 21.349 106.024 21.349L106.06 21.5104C106.132 21.6353 106.309 21.7207 106.569 21.7577C109.087 21.4199 111.513 19.4296 113.114 18.1156L113.119 18.1119L113.599 17.718C114.287 17.1355 114.947 16.59 115.208 16.5343C115.208 16.5343 115.309 16.5066 115.359 16.4933C115.397 16.5343 115.475 16.6221 115.475 16.6221C115.484 16.631 115.484 16.6458 115.484 16.6587C115.484 16.7791 115.299 17.0615 115.164 17.2589L114.912 17.6538L114.901 17.6766C114.682 18.1195 114.269 18.9591 114.269 19.7043C114.269 19.9797 114.327 20.2478 114.484 20.4763C115.237 21.607 115.894 21.6431 116.603 21.6821L116.606 21.6822L116.859 21.6955C119.83 21.5105 122.748 19.0124 125.573 16.5926L125.579 16.5881L127.682 14.8229C127.682 14.8229 129.383 13.3808 129.728 13.0829C129.775 13.1856 129.847 13.3808 129.847 13.3808C130.059 13.9077 130.104 14.3883 130.104 14.697L130.051 15.2706C130.02 15.5233 129.55 17.2999 128.907 17.8039C128.905 17.8039 128.773 17.8759 128.773 17.8759C128.768 17.8759 128.363 17.9746 128.363 17.9746L128.348 17.9785C126.797 18.364 125.045 18.7996 124.391 20.2986C124.389 20.3045 124.333 20.6412 124.333 20.6412C124.333 20.8436 124.411 21.1338 124.763 21.3609C125.861 21.6353 126.998 21.3717 128.001 21.1387L129.29 20.8712C130.32 20.877 131.323 20.9932 132.292 21.1056L132.394 21.1173C133.756 21.275 135.039 21.4237 136.401 21.2878C138.183 20.8376 139.602 18.879 140.042 17.2589L140.081 17.1251L139.949 17.1898C137.739 18.2491 135.187 18.2945 133.119 17.3132C133.119 17.3132 132.975 17.2436 132.909 17.2095L133.001 16.9894C133.017 16.9578 134.277 13.9734 134.277 10.1066C134.277 9.93089 134.275 9.75171 134.27 9.57277H134.277C134.251 9.47923 134.24 9.39162 134.24 9.30523C134.24 8.94934 134.426 8.65711 134.596 8.39204C134.767 8.12771 134.914 7.89694 134.914 7.62274C134.914 7.59739 134.912 7.57334 134.911 7.54826C134.911 7.53909 134.91 7.52978 134.91 7.52023C134.909 7.51317 134.909 7.50597 134.909 7.49859C134.9 7.49464 134.9 7.48354 134.9 7.47514C134.9 7.44257 134.91 7.39814 134.91 7.39814C134.914 7.3932 134.914 7.38753 134.914 7.38185C134.914 7.28609 134.759 7.23771 134.684 7.21748C132.955 6.79469 131.972 8.0391 130.842 9.48195ZM85.2976 16.1552C85.4086 15.241 86.8197 13.4701 87.5729 12.7304C88.2579 12.0611 89.1496 11.5184 90.0092 11.2429C90.465 11.138 90.8296 11.2232 91.0206 11.4791C91.0949 11.587 91.1357 11.7116 91.1357 11.8449C91.1357 12.0095 91.0751 12.1845 90.9641 12.357C90.0214 13.7905 87.5918 15.8106 85.6098 16.4183C85.6098 16.4183 85.3796 16.4893 85.2477 16.5343C85.2635 16.4118 85.2976 16.1552 85.2976 16.1552ZM98.6207 15.8086C98.8164 14.4721 100.786 12.4988 100.892 12.3929L100.896 12.3886C101.581 11.721 102.473 11.1797 103.337 10.8994C103.691 10.7513 104.034 10.7826 104.243 10.9791C104.323 11.0608 104.433 11.2104 104.433 11.4604C104.433 11.601 104.398 11.7689 104.31 11.9806C104.091 12.5108 102.434 14.0674 101.963 14.4645C101.438 14.9478 100.003 15.9133 98.9028 16.0875C98.9028 16.0875 98.6961 16.1201 98.5688 16.1374C98.5856 16.0328 98.6207 15.8086 98.6207 15.8086Z" fill="#1C0D3F" fill-opacity="0.5"/>
<path fill-rule="evenodd" clip-rule="evenodd" d="M58.2092 3.10207H58.2127C58.5203 3.08775 59.5376 3.11786 59.8785 3.97725C60.3366 5.2108 56.8466 10.1773 53.9969 13.1297C52.2998 14.8514 50.6472 16.2706 49.0395 17.3639L49.0036 17.434C48.9086 17.6315 48.9028 17.8501 48.986 18.0678C49.1403 18.4479 49.5416 18.7569 49.9228 18.9089C52.8133 19.4649 54.5652 17.4836 56.2621 15.5643L56.2788 15.5454L56.9852 14.6925C57.0382 14.6286 57.0923 14.5633 57.1473 14.4971C57.6627 13.8756 58.2459 13.1721 58.5766 12.8643C62.0693 9.58747 65.9198 9.12964 68.1582 9.73753C69.3692 10.0643 69.6868 10.1954 69.9798 10.3775C70.1263 10.4676 70.223 10.5779 70.223 10.6611C70.2194 10.7386 70.1275 10.8343 69.9798 10.9274C69.9798 10.9274 69.7962 11.0631 69.7962 11.0599C69.7955 11.0607 69.7909 11.0646 69.7829 11.0715C69.6357 11.1981 68.3308 12.3204 68.2125 12.869C68.2125 12.869 68.296 13.3074 68.2881 13.2987C68.2881 13.2987 68.3894 13.4253 68.4014 13.4332L68.407 13.5043C68.407 13.587 68.377 13.7299 68.1926 13.9659L67.5932 15.1466L67.5927 15.1477C64.5392 21.1317 60.3598 29.3224 52.9088 29.9976C52.6613 30.0104 52.0698 29.9946 51.845 29.5114C51.7513 29.2808 51.707 29.0331 51.707 28.7695C51.707 27.5019 52.8263 26.0916 53.9136 25.4672C54.4498 25.2026 54.9377 24.9785 55.4841 24.8975L55.5977 24.8896L55.5468 24.9913L55.5403 25.0049C55.2992 25.5149 55.0271 26.0907 55.0271 26.5966L55.1139 27.0206C55.2158 27.2388 55.4083 27.4031 55.7113 27.5107L55.7927 27.4989C56.9533 27.3352 58.1438 25.4887 58.8008 24.4696L58.8266 24.4296L59.0209 24.1245L59.44 23.2952C59.9088 22.389 60.3918 21.4511 60.6531 20.4722C60.6531 20.4722 60.7702 20.0413 60.8214 19.8335C60.6185 19.9771 60.2655 20.2165 60.2655 20.2165C58.7375 21.2689 56.0219 22.5054 54.8096 21.5962C54.3355 21.227 54.2213 20.6684 54.1003 20.0767L54.0964 20.0576C54.0964 20.0576 53.9676 19.4796 53.934 19.3088C53.825 19.4095 53.6073 19.6035 53.6073 19.6035C51.9364 21.1001 50.0583 22.4408 47.6582 22.1155C46.7402 21.9654 45.9336 21.0843 45.2499 20.2654C45.2499 20.2654 45.1562 20.1484 45.1037 20.0877C45.038 20.1282 44.9128 20.2136 44.9128 20.2136C42.7632 21.6377 38.8694 23.2311 36.9783 21.7769C36.5778 21.4111 36.4762 20.8197 36.4762 20.2318C36.4762 19.9199 36.5027 19.6049 36.5317 19.3295C36.5317 19.3295 36.5885 18.6962 36.606 18.4607C36.4278 18.6271 36.1279 18.904 36.1279 18.904C33.8339 21.032 30.4744 22.7804 28.765 21.8173C27.9423 21.2754 28.0964 20.1065 28.3296 18.9539C28.7617 16.9384 30.8268 13.7173 33.2164 12.1348C35.2033 10.8215 37.6925 9.88759 39.8795 9.64127C41.2054 9.48159 43.0858 9.46283 44.4868 10.2941L44.5227 10.3175L44.5087 10.3563C44.03 11.7115 42.1488 13.933 40.9482 14.2655C40.9482 14.2655 40.8678 14.2902 40.8596 14.282C40.8428 14.3092 40.5984 14.7043 40.5938 14.7063C40.5796 14.7292 40.5654 14.7523 40.5511 14.7754C40.0991 15.508 39.5959 16.3235 39.5959 17.2336C39.5959 17.6374 39.6919 18.0194 39.8918 18.3946C40.0667 18.6829 40.3572 18.8774 40.746 18.9716C42.0431 19.289 44.0908 18.4361 44.7712 18.0816C44.7712 18.0816 44.8448 18.0431 44.8779 18.0273C44.8858 17.9923 44.899 17.9099 44.899 17.9099C45.6726 13.606 50.3664 7.94619 51.3816 7.01498C53.867 4.50962 55.972 3.30124 58.2092 3.10207ZM39.6822 12.9406C38.2105 12.1071 36.2366 12.0531 34.6569 12.8024C34.6569 12.8024 34.1275 13.1158 34.1379 13.1092C33.1803 13.7388 31.3533 15.7972 31.3533 17.129L31.3757 17.5204C31.4878 17.9849 31.9369 18.2904 32.5794 18.3442V18.3472C33.9566 18.4686 37.181 16.5189 38.8521 14.5503C38.8521 14.5503 39.8673 13.1798 39.9361 13.0852C39.8513 13.0349 39.6822 12.9406 39.6822 12.9406ZM55.7484 6.15164C55.3726 6.32218 54.1155 7.12629 53.3491 8.03726C51.8738 9.79405 48.722 13.725 48.5147 15.3371C48.5147 15.3371 48.4651 15.7004 48.4401 15.8806C48.6145 15.7592 48.9066 15.5602 48.9066 15.5602C51.3439 13.8755 55.5806 9.06769 56.2508 6.80173L56.2368 6.79951C56.2804 6.74768 56.3178 6.62823 56.3178 6.50729C56.3178 6.40462 56.2967 6.3017 56.2333 6.22642C56.1923 6.17731 56.0377 6.01886 55.7484 6.15164ZM58.0729 18.2988L58.1139 18.324C59.7866 19.0788 63.1502 16.0613 64.4944 14.2235C64.4944 14.2235 65.4067 13.2753 65.4844 13.1948C65.4411 13.1589 65.3759 13.1076 65.3188 13.0628C65.2544 13.0122 65.2005 12.9698 65.2005 12.967L65.1954 12.9629C64.8409 12.6758 64.1084 12.0826 62.2883 12.4248C60.2734 12.8049 57.7264 15.5336 57.4799 16.4226C57.2075 17.1872 57.415 17.8378 58.0729 18.2988Z" fill="#F2F4F6"/>
<path fill-rule="evenodd" clip-rule="evenodd" d="M58.2092 3.10207H58.2127C58.5203 3.08775 59.5376 3.11786 59.8785 3.97725C60.3366 5.2108 56.8466 10.1773 53.9969 13.1297C52.2998 14.8514 50.6472 16.2706 49.0395 17.3639L49.0036 17.434C48.9086 17.6315 48.9028 17.8501 48.986 18.0678C49.1403 18.4479 49.5416 18.7569 49.9228 18.9089C52.8133 19.4649 54.5652 17.4836 56.2621 15.5643L56.2788 15.5454L56.9852 14.6925C57.0382 14.6286 57.0923 14.5633 57.1473 14.4971C57.6627 13.8756 58.2459 13.1721 58.5766 12.8643C62.0693 9.58747 65.9198 9.12964 68.1582 9.73753C69.3692 10.0643 69.6868 10.1954 69.9798 10.3775C70.1263 10.4676 70.223 10.5779 70.223 10.6611C70.2194 10.7386 70.1275 10.8343 69.9798 10.9274C69.9798 10.9274 69.7962 11.0631 69.7962 11.0599C69.7955 11.0607 69.7909 11.0646 69.7829 11.0715C69.6357 11.1981 68.3308 12.3204 68.2125 12.869C68.2125 12.869 68.296 13.3074 68.2881 13.2987C68.2881 13.2987 68.3894 13.4253 68.4014 13.4332L68.407 13.5043C68.407 13.587 68.377 13.7299 68.1926 13.9659L67.5932 15.1466L67.5927 15.1477C64.5392 21.1317 60.3598 29.3224 52.9088 29.9976C52.6613 30.0104 52.0698 29.9946 51.845 29.5114C51.7513 29.2808 51.707 29.0331 51.707 28.7695C51.707 27.5019 52.8263 26.0916 53.9136 25.4672C54.4498 25.2026 54.9377 24.9785 55.4841 24.8975L55.5977 24.8896L55.5468 24.9913L55.5403 25.0049C55.2992 25.5149 55.0271 26.0907 55.0271 26.5966L55.1139 27.0206C55.2158 27.2388 55.4083 27.4031 55.7113 27.5107L55.7927 27.4989C56.9533 27.3352 58.1438 25.4887 58.8008 24.4696L58.8266 24.4296L59.0209 24.1245L59.44 23.2952C59.9088 22.389 60.3918 21.4511 60.6531 20.4722C60.6531 20.4722 60.7702 20.0413 60.8214 19.8335C60.6185 19.9771 60.2655 20.2165 60.2655 20.2165C58.7375 21.2689 56.0219 22.5054 54.8096 21.5962C54.3355 21.227 54.2213 20.6684 54.1003 20.0767L54.0964 20.0576C54.0964 20.0576 53.9676 19.4796 53.934 19.3088C53.825 19.4095 53.6073 19.6035 53.6073 19.6035C51.9364 21.1001 50.0583 22.4408 47.6582 22.1155C46.7402 21.9654 45.9336 21.0843 45.2499 20.2654C45.2499 20.2654 45.1562 20.1484 45.1037 20.0877C45.038 20.1282 44.9128 20.2136 44.9128 20.2136C42.7632 21.6377 38.8694 23.2311 36.9783 21.7769C36.5778 21.4111 36.4762 20.8197 36.4762 20.2318C36.4762 19.9199 36.5027 19.6049 36.5317 19.3295C36.5317 19.3295 36.5885 18.6962 36.606 18.4607C36.4278 18.6271 36.1279 18.904 36.1279 18.904C33.8339 21.032 30.4744 22.7804 28.765 21.8173C27.9423 21.2754 28.0964 20.1065 28.3296 18.9539C28.7617 16.9384 30.8268 13.7173 33.2164 12.1348C35.2033 10.8215 37.6925 9.88759 39.8795 9.64127C41.2054 9.48159 43.0858 9.46283 44.4868 10.2941L44.5227 10.3175L44.5087 10.3563C44.03 11.7115 42.1488 13.933 40.9482 14.2655C40.9482 14.2655 40.8678 14.2902 40.8596 14.282C40.8428 14.3092 40.5984 14.7043 40.5938 14.7063C40.5796 14.7292 40.5654 14.7523 40.5511 14.7754C40.0991 15.508 39.5959 16.3235 39.5959 17.2336C39.5959 17.6374 39.6919 18.0194 39.8918 18.3946C40.0667 18.6829 40.3572 18.8774 40.746 18.9716C42.0431 19.289 44.0908 18.4361 44.7712 18.0816C44.7712 18.0816 44.8448 18.0431 44.8779 18.0273C44.8858 17.9923 44.899 17.9099 44.899 17.9099C45.6726 13.606 50.3664 7.94619 51.3816 7.01498C53.867 4.50962 55.972 3.30124 58.2092 3.10207ZM39.6822 12.9406C38.2105 12.1071 36.2366 12.0531 34.6569 12.8024C34.6569 12.8024 34.1275 13.1158 34.1379 13.1092C33.1803 13.7388 31.3533 15.7972 31.3533 17.129L31.3757 17.5204C31.4878 17.9849 31.9369 18.2904 32.5794 18.3442V18.3472C33.9566 18.4686 37.181 16.5189 38.8521 14.5503C38.8521 14.5503 39.8673 13.1798 39.9361 13.0852C39.8513 13.0349 39.6822 12.9406 39.6822 12.9406ZM55.7484 6.15164C55.3726 6.32218 54.1155 7.12629 53.3491 8.03726C51.8738 9.79405 48.722 13.725 48.5147 15.3371C48.5147 15.3371 48.4651 15.7004 48.4401 15.8806C48.6145 15.7592 48.9066 15.5602 48.9066 15.5602C51.3439 13.8755 55.5806 9.06769 56.2508 6.80173L56.2368 6.79951C56.2804 6.74768 56.3178 6.62823 56.3178 6.50729C56.3178 6.40462 56.2967 6.3017 56.2333 6.22642C56.1923 6.17731 56.0377 6.01886 55.7484 6.15164ZM58.0729 18.2988L58.1139 18.324C59.7866 19.0788 63.1502 16.0613 64.4944 14.2235C64.4944 14.2235 65.4067 13.2753 65.4844 13.1948C65.4411 13.1589 65.3759 13.1076 65.3188 13.0628C65.2544 13.0122 65.2005 12.9698 65.2005 12.967L65.1954 12.9629C64.8409 12.6758 64.1084 12.0826 62.2883 12.4248C60.2734 12.8049 57.7264 15.5336 57.4799 16.4226C57.2075 17.1872 57.415 17.8378 58.0729 18.2988Z" fill="#1C0D3F" fill-opacity="0.5"/>
</g>
<defs>
<clipPath id="clip0_505_3023">
<rect width="139.444" height="30" fill="white" transform="translate(0.63623)"/>
</clipPath>
</defs>
</svg>
