<svg height="73" viewBox="0 0 89 73" width="89" xmlns="http://www.w3.org/2000/svg"><g fill="#FFF"><path d="M88.24 44.27C88.234 24.817 75.49 7.664 56.866 2.044c-18.623-5.62-38.729 1.62-49.494 17.822C-3.393 36.07-2.277 57.41 10.12 72.4a1 1 0 101.5-1.24C-2.537 53.999-.927 28.792 15.297 13.571c16.224-15.221 41.482-15.221 57.706 0C89.227 28.792 90.837 54 76.68 71.16a1 1 0 101.44 1.24 44.17 44.17 0 0010.12-28.13z"/><path d="M77.71 35.48a1 1 0 00-.53-1.88l-26.06 7.45a7.71 7.71 0 10.63 3.05 7.58 7.58 0 00-.1-1.17l26.06-7.45zM48.17 48.16a5.76 5.76 0 111.68-4.07 5.71 5.71 0 01-1.68 4.07zM71.4 29.25a1 1 0 101.72-.95 33 33 0 00-28.9-17.13 1 1 0 000 2A31 31 0 0171.4 29.25zM48.58 22.4a1.005 1.005 0 10-.2 2 15.15 15.15 0 0111.74 7.57 1 1 0 001.33.37 1 1 0 00.38-1.33 17.11 17.11 0 00-13.25-8.61z"/></g></svg>