<svg height="61" viewBox="0 0 50 61" width="50" xmlns="http://www.w3.org/2000/svg"><g fill="#FFF"><path d="M38.333 33.63H25.965V20.668a.666.666 0 10-1.334 0V33.63H11.667a.666.666 0 100 1.333H24.63v12.37a.667.667 0 001.333 0V34.964h12.37a.666.666 0 100-1.334z"/><path d="M35.577 0H4.807C2.164 0 0 2.179 0 4.841V56.16C0 58.823 2.163 61 4.808 61h40.384C47.837 61 50 58.823 50 56.159V14.524L35.577 0zm13.076 15.085v.006H38.186a3.152 3.152 0 01-2.24-.939 3.191 3.191 0 01-.932-2.256V1.356h.005l13.634 13.73zm-3.46 44.56H4.807c-1.909 0-3.461-1.564-3.461-3.486V4.84c0-1.921 1.552-3.485 3.46-3.485h28.86v10.54c.005 2.507 2.03 4.548 4.52 4.55h10.467V56.16c0 1.922-1.552 3.486-3.462 3.486z"/><circle cx="17.5" cy="27.5" r="1.5"/><circle cx="19.5" cy="40.5" r="1.5"/><circle cx="33.5" cy="42.5" r="1.5"/><circle cx="32.5" cy="27.5" r="1.5"/></g></svg>