<svg height="83" viewBox="0 0 93 83" width="93" xmlns="http://www.w3.org/2000/svg"><path d="M13.71 31.97l48.91-25.8-4.42 14.55a1 1 0 00.66 1.21 1 1 0 001.23-.63l4.72-15.56c.064-.21.098-.43.1-.65a2.2 2.2 0 00-1.85-2.19L46.9.01a1 1 0 00-1.14.79 1 1 0 00.8 1.13l14.88 2.66L12.78 30.3a1 1 0 00-.41 1.32 1 1 0 001.34.35zm18.13 10.02a7 7 0 00-7 7v19.68a7 7 0 007 7h5.51a7 7 0 007-7V48.95a7 7 0 00-7-7h-5.51v.04zm10.57 7v19.68a5 5 0 01-5.06 5h-5.51a5 5 0 01-5.06-5V48.95a5 5 0 015.06-5h5.51a5 5 0 015.07 5l-.01.04zM8.05 75.63h5.51a7 7 0 007-7V60.2a7 7 0 00-7-7H8.05a7 7 0 00-7 7v8.47a7 7 0 007 6.96zM2.99 60.2a5 5 0 015.06-5h5.51a5 5 0 015.06 5v8.47a5 5 0 01-5.06 5H8.05a5 5 0 01-5.06-5V60.2zm52.65-30.73a7 7 0 00-7 7v32.2a7 7 0 007 7h5.51a7 7 0 007-7V36.43a7 7 0 00-7-7h-5.51v.04zm10.57 7v32.2a5 5 0 01-5.06 5h-5.51a5 5 0 01-5.06-5V36.43a5 5 0 015.06-5h5.51a5 5 0 015.06 5v.04zm13.23 39.16h5.55a7 7 0 007-7V23.78a7 7 0 00-7-7h-5.55a7 7 0 00-7 7v44.89a7 7 0 007 6.96zm-5.07-51.85a5 5 0 015.06-5h5.55a5 5 0 015.06 5v44.89a5 5 0 01-5.06 5h-5.54a5 5 0 01-5.06-5V23.78h-.01zm16.77 56.87H1.98a1 1 0 100 1.95h89.16a1 1 0 100-1.95z" fill="#FFF"/></svg>