<svg width="74" height="75" viewBox="0 0 74 75" fill="none" xmlns="http://www.w3.org/2000/svg">
<path d="M49.7787 42.9264C55.884 42.9264 61.7811 45.0771 66.6376 48.546C70.7309 51.5292 73.5754 55.2757 73.5754 57.7039C73.5754 60.7565 72.2572 62.491 69.7596 62.491H28.6184L28.2715 62.3522C26.1208 61.5197 24.9414 59.924 24.9414 57.7039C24.9414 55.6919 28.1328 52.0149 32.3649 48.9623C37.6376 45.2158 43.7428 42.9264 49.7787 42.9264ZM49.7787 44.5221C44.0897 44.5221 38.3314 46.6728 33.4055 50.2111L32.8505 50.6273C32.5036 50.9048 32.0873 51.1823 31.7404 51.4599L31.2548 51.8761L30.7692 52.2924L30.2835 52.7087C29.7285 53.1943 29.2428 53.68 28.8266 54.1656L28.4797 54.5819L28.0634 54.9981C27.9247 55.2063 27.7859 55.345 27.6472 55.5532L27.3696 55.9694C26.8146 56.7326 26.5371 57.357 26.5371 57.7733C26.5371 59.4383 27.3003 60.479 28.9653 61.034H28.896H28.8266H69.6208C71.0778 61.034 71.7715 60.2015 71.8409 58.0508V57.8426C71.8409 56.0388 69.2739 52.7087 65.5275 50.0029C61.0873 46.534 55.4677 44.5221 49.7787 44.5221ZM49.7787 12.9551C57.4103 12.9551 63.5849 19.1297 63.5849 26.7613C63.5849 34.3929 57.4103 40.5675 49.7787 40.5675C42.1471 40.5675 35.9725 34.3929 35.9725 26.7613C35.9725 19.1297 42.1471 12.9551 49.7787 12.9551ZM49.7787 14.5508C43.0491 14.5508 37.5682 20.0316 37.5682 26.7613C37.5682 33.491 43.0491 38.9718 49.7787 38.9718C56.5084 38.9718 61.9893 33.491 61.9893 26.7613C61.9893 20.0316 56.5084 14.5508 49.7787 14.5508Z" fill="#F2F4F6"/>
<path d="M20.9867 45.91C22.9293 45.91 24.9413 46.2569 26.8838 46.8119L25.2882 47.9914C23.9006 47.6445 22.4437 47.5057 20.9867 47.5057C16.4771 47.5057 11.8982 49.2402 7.94366 52.0847C4.89103 54.3048 2.60155 56.9411 2.60155 57.9124C2.60155 59.0918 3.15658 59.855 4.336 60.2713H21.6805L22.3743 61.867H4.19725L3.91973 61.7976C1.97715 61.1732 1.00586 59.7856 1.00586 57.843C1.00586 56.178 3.57284 53.1947 7.04174 50.6971C11.2044 47.7832 16.1303 45.91 20.9867 45.91ZM20.9867 21.9746C27.1614 21.9746 32.1566 26.9698 32.1566 33.1445C32.1566 39.3191 27.1614 44.3143 20.9867 44.3143C14.8121 44.3143 9.81686 39.3191 9.81686 33.1445C9.81686 26.9698 14.8121 21.9746 20.9867 21.9746ZM20.9867 23.5703C15.714 23.5703 11.4126 27.8717 11.4126 33.1445C11.4126 38.4172 15.714 42.7186 20.9867 42.7186C26.2594 42.7186 30.5609 38.4172 30.5609 33.1445C30.5609 27.8717 26.2594 23.5703 20.9867 23.5703Z" fill="#ED26B7"/>
</svg>
