<svg height="78" viewBox="0 0 88 78" width="88" xmlns="http://www.w3.org/2000/svg"><g fill="#FFF"><path d="M79.52 36.06H63.98v41.9h15.54a8.35 8.35 0 008.26-8.38v-25.1a8.35 8.35 0 00-8.26-8.42zm6.32 33.52a6.37 6.37 0 01-6.32 6.41H65.97v-38h13.55a6.37 6.37 0 016.32 6.49v25.1z"/><path d="M63.98 75.99H17.53a6.37 6.37 0 01-6.32-6.41 6.44 6.44 0 01.43-2.23h7a1 1 0 000-2h-6.89l-1.07-.53a6.27 6.27 0 01-3.19-7.9h6.76a1 1 0 000-2H7.77l-1.23-.6a6.34 6.34 0 01-2.15-9.68l.24-.3h9.62a1 1 0 000-2h-9.7l-.16-.19a4.91 4.91 0 01-1.44-3.41 6.37 6.37 0 016.32-6.41h22.92l-.07-2-.73-20.51a6.42 6.42 0 011.55-4.64 6.24 6.24 0 014.32-2.19h.44a6.38 6.38 0 016.31 6v.3l4.19 18.76a11 11 0 0010.76 10h5v-2h-5a9.06 9.06 0 01-8.83-8.36l-4.22-18.9A8.34 8.34 0 0037.66.98h-.57a8.37 8.37 0 00-7.68 8.94l.7 20.4H9.26A8.35 8.35 0 00.99 38.7a6.83 6.83 0 001.87 4.66 8.33 8.33 0 002.83 12.79 8.29 8.29 0 004.13 10.48 8.33 8.33 0 007.7 11.34h46.46v-2 .02z"/></g></svg>