<svg width="60" height="70" viewBox="0 0 60 70" fill="none" xmlns="http://www.w3.org/2000/svg">
<g clip-path="url(#clip0_1634_49912)">
<path d="M29.4847 0.955078C40.2852 0.955078 49.6667 9.70587 49.6667 20.4276V25.2366H54.0815C57.0772 25.2366 59.6 27.6805 59.6 30.7551V63.945C59.6 66.9408 57.1561 69.4635 54.0815 69.4635H5.51852C2.44392 69.4635 0 67.0196 0 63.945V30.7551C0 27.7593 2.44392 25.2366 5.51852 25.2366H9.93333V20.4276C9.93333 9.70587 18.6841 0.955078 29.4847 0.955078ZM54.0815 26.8133H5.51852C3.31111 26.8133 1.57672 28.6265 1.57672 30.7551V63.945C1.57672 66.1524 3.38995 67.8868 5.51852 67.8868H54.0815C56.2889 67.8868 58.0233 66.0736 58.0233 63.945V30.7551C58.0233 28.5477 56.2889 26.8133 54.0815 26.8133ZM29.4847 2.5318C24.518 2.5318 20.0243 4.5027 16.7921 7.81381C13.481 10.9672 11.5101 15.4609 11.5101 20.4276V25.2366H48.0899V20.4276C48.0899 15.4609 46.0402 10.9672 42.8079 7.73497C39.5757 4.5027 34.4513 2.5318 29.4847 2.5318Z" fill="#F2F4F6"/>
<path fill-rule="evenodd" clip-rule="evenodd" d="M29.7998 39.5098C32.8744 39.5098 35.3183 41.9537 35.3183 45.0283C35.3183 47.7875 33.2686 50.0738 30.5881 50.468V56.5383C30.5881 56.9325 30.2728 57.3267 29.7998 57.3267C29.3268 57.3267 29.0114 57.0114 29.0114 56.5383V50.468C26.331 50.0738 24.2812 47.7875 24.2812 45.0283C24.2812 42.0325 26.7252 39.5098 29.7998 39.5098ZM29.7997 41.0879C27.5923 41.0879 25.8579 42.9011 25.8579 45.0297C25.8579 47.2371 27.6711 48.9715 29.7997 48.9715C31.9283 48.9715 33.7415 47.1583 33.7415 45.0297C33.7415 42.8223 32.0071 41.0879 29.7997 41.0879Z" fill="#ED26B7"/>
</g>
<defs>
<clipPath id="clip0_1634_49912">
<rect width="59.6" height="68.4296" fill="white" transform="translate(0 0.955078)"/>
</clipPath>
</defs>
</svg>
