<svg width="462" height="581" viewBox="0 0 462 581" fill="none" xmlns="http://www.w3.org/2000/svg">
<g clip-path="url(#clip0_840_32274)">
<g opacity="0.3">
<path d="M285.844 -449.465C282.606 -410.768 239.401 -356.631 212.351 -336.749C205.755 -331.473 198.516 -326.925 190.8 -323.21C186.494 -321.112 182.058 -319.267 177.521 -317.688C172.11 -315.7 166.595 -313.995 161.007 -312.58C148.072 -309.625 134.841 -308.496 121.788 -309.231C111.538 -309.732 101.274 -310.662 91.1102 -311.429C83.3225 -311.968 75.6348 -312.344 68.5021 -310.187C57.703 -307.114 50.4353 -300.3 47.5851 -288.702C46.5094 -284.575 46.3866 -280.344 47.2249 -276.284C48.109 -272.183 49.9428 -268.354 52.6074 -265.044C58.3514 -258.524 65.3933 -253.066 73.4029 -248.927C88.4669 -240.148 103.803 -231.737 118.164 -221.264C129.825 -212.676 140.422 -202.975 149.794 -192.308C156.767 -184.364 162.79 -175.742 167.771 -166.574C171.947 -158.736 175.439 -150.579 178.218 -142.175C181.805 -130.579 184.124 -118.62 185.143 -106.465C185.918 -97.0684 186.407 -87.7337 186.609 -78.4605C187.231 -61.9973 188.226 -45.7377 190.653 -29.1703C192.682 -16.0961 195.098 -2.79706 196.656 10.3175C198.158 22.5153 198.237 34.9065 196.893 47.2871C195.325 63.4212 191.454 78.6338 188.641 94.3581C186.866 103.064 186.478 111.878 187.489 120.521C188.342 126.863 190.598 132.902 194.123 138.278C198.529 144.662 204.377 150.076 211.311 154.187C220.486 159.602 230.316 164.096 240.643 167.597C246.682 169.748 252.907 171.797 259.032 173.683C273.386 178.049 287.64 182.251 301.894 186.454C309.737 188.709 317.68 191.127 325.336 193.484C340.649 198.199 355.962 202.913 371.188 207.893C389.005 213.855 406.563 220.615 424.28 226.414C439.797 231.541 456.16 234.631 472.902 235.596C487.784 236.419 502.833 235.654 517.746 233.315C525.344 232.256 532.808 230.229 539.916 227.293C544.116 225.684 548.205 223.811 552.15 221.69C558.129 218.136 563.522 213.786 568.131 208.798C579.673 196.372 587.152 181.367 592.213 164.849C595.737 154.135 597.21 143.063 596.566 132.133C595.959 124.354 593.658 116.861 589.795 110.087C584.762 101.789 578.219 94.3868 570.425 88.1704C560.886 80.2966 551.361 72.8513 541.549 65.3448C529.893 56.4474 517.864 47.7541 507.025 37.7546C501.735 32.9261 496.937 27.6661 492.686 22.0323C483.596 10.4212 479.103 -2.61501 476.86 -16.4452C474.276 -32.7567 473.049 -49.3005 473.189 -65.9388C473.044 -77.7371 473.773 -89.5827 475.369 -101.395C477.371 -116.989 481.658 -132.4 488.115 -147.215C490.758 -153.462 494.073 -159.423 497.188 -165.71C497.586 -166.62 497.843 -167.569 497.951 -168.528" stroke="#F2F4F6" stroke-width="1.5" stroke-linecap="round" stroke-linejoin="round"/>
<path d="M-197.502 80.0133C-194.931 74.4604 -192.448 69.1729 -190.064 63.7219C-184.951 51.7583 -179.738 39.9583 -175.012 27.7696C-170.597 16.3017 -167.73 4.46983 -166.475 -7.45449C-165.142 -19.0954 -164.096 -30.7978 -162.477 -42.3771C-160.292 -59.9403 -155.23 -76.4587 -145.834 -90.7666C-140.818 -98.4914 -134.553 -105.528 -127.265 -111.621C-122.046 -116.136 -116.287 -120.094 -110.112 -123.408C-107.877 -124.632 -106.128 -126.243 -103.793 -127.303C-97.5468 -130.503 -91.2004 -133.539 -84.6677 -136.678C-79.625 -139.001 -74.3961 -141.426 -69.4534 -143.912C-61.9894 -147.56 -54.6254 -151.372 -47.1752 -155.449C-42.2463 -158.364 -37.6174 -161.771 -32.8885 -165.013C-28.9046 -167.848 -24.8208 -170.519 -21.0232 -173.252C-17.5981 -175.781 -14.273 -178.474 -11.0341 -180.901C-8.44028 -182.757 -6.0464 -184.94 -3.35256 -186.632C2.09179 -190.41 7.77267 -193.883 13.6555 -197.031C31.2773 -206.019 50.709 -208.797 71.8195 -203.545C84.8691 -200.308 96.95 -194.768 107.404 -187.228C114.785 -182.065 121.184 -175.853 126.378 -168.805C129.227 -165.296 131.814 -161.609 134.123 -157.767C139.364 -148.447 143.007 -138.38 144.936 -127.894C148.107 -111.734 147.098 -95.9058 146.089 -80.0775C145.08 -64.2491 143.612 -47.9518 146.411 -31.5883C147.59 -24.377 149.155 -16.9404 150.806 -9.76945C153.995 3.98004 157.556 17.5255 159.041 31.3344C160.229 41.4479 160.177 51.7227 158.885 61.9719C157.425 72.5914 155.306 83.3533 153.846 93.9728C152.372 104.163 150.798 114.19 152.001 125.099C152.811 133.442 155.47 141.442 159.819 148.622C164.168 155.803 170.118 162.017 177.315 166.895C183.428 170.988 189.947 174.575 196.8 177.618C203.095 180.579 209.636 183.125 216.376 185.238C225.663 188.23 234.837 190.629 244.211 193.356C247.56 194.36 250.809 195.201 253.972 196.308C273.692 202.538 293.499 208.503 313.047 215.264C328.966 220.617 344.398 226.973 359.236 234.289C376.091 242.742 392.858 251.461 409.612 259.751C425.145 267.473 442.498 272.029 460.549 273.123C474.406 273.833 488.323 273.419 501.954 272.943C518.046 272.429 533.953 272.017 549.846 271.176C556.282 270.902 562.698 269.745 568.878 267.745C578.032 264.74 585.935 258.947 591.191 251.388C598.649 241.047 604.845 230.042 609.661 218.585C616.912 202.395 624.164 186.206 631.029 169.792C635.252 159.624 639.088 149.232 642.538 138.615C645.651 129.196 646.691 119.424 645.598 109.88C644.903 104.273 643.193 98.8691 640.536 93.882C635.315 84.1799 627.66 75.8321 618.149 69.4704C605.733 60.5517 593.232 51.8985 580.63 43.0818C568.314 34.3307 557.132 24.3575 547.268 13.3275C540.353 5.26575 534.479 -3.52114 529.751 -12.876C524.03 -23.914 520.14 -35.75 518.201 -48.0195C516.159 -59.2772 515.378 -70.7669 515.87 -82.3158C516.506 -96.0934 519.124 -109.852 523.656 -123.239C523.901 -124.245 524.027 -125.266 524.032 -126.282" stroke="#F2F4F6" stroke-width="1.5" stroke-linecap="round" stroke-linejoin="round"/>
<path d="M-213.413 53.5818C-205.469 39.8868 -199.16 25.5291 -194.6 10.7708C-191.623 0.574005 -189.64 -9.78677 -188.675 -20.1872C-187.673 -30.3374 -186.1 -40.3647 -184.998 -50.3514C-183.445 -62.987 -180.053 -75.4856 -174.913 -87.5142C-169.65 -100.109 -161.744 -111.78 -151.659 -121.844C-146.785 -126.475 -141.911 -131.107 -136.837 -135.411C-133.326 -138.205 -129.415 -140.346 -125.703 -142.813C-122.823 -144.608 -119.857 -146.667 -116.877 -148.298C-112.593 -150.643 -108.209 -152.823 -103.725 -154.841C-99.1548 -157.123 -94.2984 -159.344 -89.5282 -161.3C-80.231 -165.262 -71.2237 -169.826 -62.5799 -174.956C-57.8372 -177.769 -53.3946 -181.074 -48.852 -184.214C-37.8179 -191.78 -28.5564 -201.431 -18.9948 -210.592C-14.2208 -215.387 -9.34678 -220.018 -4.0866 -224.424C4.18147 -231.622 14.9767 -235.81 26.0518 -236.116C37.1465 -236.165 48.096 -234.813 58.5888 -232.098C73.4084 -228.581 87.4636 -223.119 100.33 -215.877C116.111 -207.555 129.813 -196.463 140.703 -183.194C143.762 -179.412 146.821 -175.63 149.607 -171.481C152.518 -167.331 155.155 -163.019 157.507 -158.564C160.399 -152.222 162.885 -145.714 164.954 -139.07C168.937 -125.866 170.908 -112.117 170.813 -98.1933L170.933 -58.977C171.122 -45.2055 172.574 -31.5467 175.274 -18.1426C177.562 -5.86465 180.051 6.74005 181.767 18.8948C183.585 31.7324 183.496 44.8454 181.5 57.8861C179.681 69.1383 177.576 80.3293 175.657 91.418C173.972 99.7999 173.07 108.252 172.961 116.681C173.01 126.514 175.895 135.997 181.328 144.182C184.181 148.373 187.787 152.074 192.008 155.141C200.747 161.994 210.826 167.334 221.795 170.921C229.752 173.769 237.522 176.718 245.465 179.137C258.387 183.195 271.483 186.722 284.492 190.515C288.127 191.581 292.048 192.708 295.783 193.937C301.908 195.823 308.033 197.709 313.972 199.696C322.874 202.463 331.962 205.129 340.877 208.324C353.913 212.975 366.964 218.054 379.914 222.97C389.702 226.78 399.403 230.855 409.277 234.399C417.333 237.41 425.39 240.421 433.619 242.901C445.285 246.35 457.483 248.402 469.919 249.007C478.365 249.404 486.711 249.637 495.23 249.34C510.854 249.153 526.518 247.18 541.854 243.467C550.563 241.199 558.855 237.548 566.336 232.688C574.1 227.316 580.661 220.605 585.604 212.978C592.66 202.637 598.567 191.726 603.229 180.419C607.181 170.78 610.568 160.985 613.376 151.079C615.719 142.711 616.848 134.168 616.731 125.674C616.612 117.587 614.312 109.779 610.032 102.934C604.526 94.007 597.21 86.1778 588.445 79.8303C579.792 72.999 570.867 66.5352 562.128 59.9694C551.241 52.0885 540.908 43.6069 531.18 34.568C524.644 28.4761 518.696 21.8781 513.396 14.8388C508.738 8.37131 504.714 1.52083 501.368 -5.63992C494.944 -19.8014 492.201 -34.449 490.402 -49.1774C488.43 -64.9773 488.361 -81.0367 490.194 -97.0744C491.768 -111.23 495.398 -125.252 500.987 -138.771C502.653 -142.956 504.606 -147.08 506.459 -151.367C506.627 -152.001 506.733 -152.643 506.776 -153.287" stroke="#F2F4F6" stroke-width="1.5" stroke-linecap="round" stroke-linejoin="round"/>
<path d="M-204.209 68.6241C-198.797 57.151 -193.57 45.7802 -188.257 34.1436C-182.291 20.4604 -178.287 6.23467 -176.347 -8.16463C-174.787 -18.6206 -174.185 -29.4247 -172.911 -39.9423C-171.057 -56.0148 -167.758 -71.3506 -160.91 -85.3549C-152.249 -102.841 -138.39 -118.002 -120.994 -129.022C-114.575 -132.753 -108.442 -136.545 -101.823 -139.949C-96.9807 -142.599 -92.0243 -144.657 -86.9816 -146.98C-82.3115 -149.099 -77.7276 -150.953 -73.2575 -153.399C-65.2347 -157.353 -57.3119 -161.47 -49.6754 -165.649C-45.3589 -168.269 -41.2094 -171.123 -37.2513 -174.194C-32.7087 -177.334 -28.2661 -180.639 -23.8235 -183.943C-20.1258 -186.839 -16.3419 -190.001 -12.5443 -192.734C-8.74664 -195.467 -5.14901 -198.527 -1.25138 -201.096C3.20502 -203.971 7.94757 -206.785 12.604 -209.333C21.5131 -213.925 31.3991 -216.484 41.3624 -216.778C55.2653 -217.62 69.3782 -214.868 83.0872 -209.931C96.6517 -204.971 108.931 -197.708 119.309 -188.507C125.39 -183.124 130.905 -177.233 135.793 -170.904C145.277 -158.155 151.647 -143.589 154.506 -128.113C157.463 -112.71 157.085 -97.8817 156.521 -82.9516C156.134 -71.3914 155.746 -59.8309 155.831 -48.3111C156.255 -36.6516 157.893 -25.1263 160.725 -13.8896C163.6 -1.05955 166.847 11.5666 168.305 24.5177C169.841 36.5806 169.757 48.8632 168.055 61.0986C166.727 69.9004 165.111 78.6406 163.596 87.5443C161.936 97.8368 159.99 108.068 160.147 118.893C160.2 126.951 162.069 134.806 165.64 141.973C169.211 149.14 174.408 155.467 180.909 160.562C189.189 166.873 198.515 171.988 208.592 175.747C214.63 177.898 220.497 180.58 226.622 182.466C238.972 186.401 251.495 189.805 263.831 193.31L274.45 196.447C293.312 202.493 311.974 208.211 330.663 214.788C349.796 221.592 368.427 229.393 386.468 238.153C401.477 245.215 416.386 252.115 431.985 256.89C442.732 260.139 453.969 262.127 465.436 262.809C472.651 263.225 479.853 263.212 487.054 263.199C503.119 263.111 519.226 262.166 535.292 260.371C543.306 259.552 551.258 257.979 559.021 255.679C564.99 253.648 570.601 250.725 575.612 247.036C588.394 237.859 596.115 224.468 603.063 210.627C608.417 200.277 613.198 189.805 617.593 179.107C622.334 167.347 626.974 155.423 630.655 143.152C633.556 134.296 634.613 125.127 633.769 116.133C633.288 110.847 631.909 105.713 629.681 100.912C625.285 90.8786 617.649 83.2722 609.097 76.6044C597.54 67.8705 585.711 59.504 574.068 51.0356C562.497 42.7752 551.745 33.6237 541.92 23.6721C536.488 17.8463 531.481 11.6948 526.927 5.25313C518.859 -6.4399 512.975 -19.3532 509.496 -33.0011C504.559 -51.6175 503.009 -71.0343 504.906 -90.5026C506.287 -105.689 509.949 -120.764 515.789 -135.304C515.961 -135.834 515.934 -136.692 516.106 -137.223" stroke="#F2F4F6" stroke-width="1.5" stroke-linecap="round" stroke-linejoin="round"/>
<path d="M542.794 533.199C540.176 531.358 537.373 529.619 534.755 527.778C527.761 522.44 520.954 516.999 513.96 511.661C503.395 503.63 493.748 494.661 485.147 484.873C480.229 479.271 475.684 473.466 471.325 467.558C460.349 453.269 452.253 437.186 442.294 422.122C431.735 406.077 418.537 393.44 401.052 385.987C390.578 381.462 379.686 378.692 368.805 379.191C363.83 379.219 358.852 380.231 354.212 382.158C349.911 384.039 345.737 386.177 341.719 388.558C337.213 391.512 333.004 394.839 329.15 398.491C319.116 407.692 309.282 417.22 299.248 426.421C294.694 430.122 289.933 433.601 284.988 436.843C282.908 438.524 280.633 439.989 278.211 441.207C269.243 445.241 259.975 448.785 249.325 447.63C244.002 447.072 238.997 445.312 234.757 442.508C231.922 440.569 229.638 438.049 228.069 435.133C226.501 432.217 225.687 428.977 225.688 425.648C225.501 418.674 227.512 411.668 231.485 405.454C237.299 395.531 245.088 386.6 254.427 379.15C259.735 374.708 265.368 370.605 271.28 366.873C279.548 361.693 288.115 357.005 296.683 352.316C301.34 349.768 306.396 347.874 311.152 345.489C314.941 343.852 318.647 342.042 322.255 340.068C331.641 334.278 339.653 327.055 343.176 315.744C346.367 305.923 345.479 295.934 340.41 285.614C335.052 275.418 327.379 266.47 317.867 259.323C305.124 249.056 290.96 241.749 276.251 235.177C260.77 228.154 244.598 223.255 228.699 217.989C214.431 213.358 200.191 209.585 186.009 204.688C172.129 200.203 159.184 193.83 147.593 185.774C139.521 179.991 132.528 173.077 126.847 165.265C117.929 153.123 114.182 139.679 113.069 125.667C112.012 113.37 113.431 101.463 114.75 89.3932C116.531 74.0151 118.113 58.3102 115.8 42.3353C114.287 32.5676 111.984 22.9599 108.909 13.5896C105.003 1.10567 100.338 -11.3992 97.7493 -24.1677C95.3521 -36.0393 94.7375 -48.2543 95.9221 -60.4856C97.2272 -72.9843 98.8187 -85.4214 99.8376 -97.9817C100.665 -106.749 99.9367 -115.489 97.6814 -123.863C94.2477 -136.387 86.9165 -146.342 74.97 -152.462C67.9385 -156.262 59.6411 -157.899 51.2244 -157.144C43.9887 -156.662 36.8603 -154.701 30.3712 -151.407C27.7636 -149.98 24.8561 -149.043 22.5347 -147.555C17.7058 -144.476 12.977 -141.233 8.24806 -137.991C3.51915 -134.748 -1.10967 -131.342 -5.73857 -127.936C-9.16369 -125.407 -12.3889 -122.551 -15.6278 -120.124C-18.3079 -118.003 -21.3741 -116.106 -24.1542 -114.148C-27.7656 -111.517 -31.5632 -108.784 -35.2745 -106.317C-37.5958 -104.828 -39.7311 -103.442 -42.0525 -101.954C-45.8638 -99.6497 -49.5889 -97.6111 -53.3003 -95.1437C-58.5017 -91.8608 -63.603 -88.4142 -68.6044 -84.8043C-74.2618 -80.9149 -79.6662 -76.7184 -84.785 -72.2399C-89.0927 -68.2749 -92.9264 -63.9079 -96.213 -59.2212C-102.806 -49.5841 -107.389 -39.0013 -109.712 -28.0464C-111.872 -18.5714 -113.846 -9.19862 -116.007 0.276302C-119.162 14.3807 -123.63 28.2892 -129.362 41.8474C-134.303 53.2801 -139.715 64.7533 -144.269 76.4112C-150.476 92.6833 -156.296 109.181 -162.116 125.678C-162.893 128.067 -163.855 130.558 -164.632 132.946" stroke="#F2F4F6" stroke-width="1.5" stroke-linecap="round" stroke-linejoin="round"/>
<path d="M535.177 537.816C529.156 533.255 522.948 528.795 516.927 524.234C501.98 513.209 487.392 501.551 474.812 487.485C469.508 481.658 464.477 475.464 459.446 469.269C455.201 463.954 451.328 458.435 447.269 453.018C439.052 442.021 430.834 431.024 420.582 421.576C409.456 411.515 396.924 404.843 382.825 402.52C374.094 401.115 364.957 401.895 356.364 404.779C349.447 407.294 342.863 410.604 336.78 414.624C331.134 418.377 325.726 422.43 320.585 426.759L307.557 437.162C304.418 439.753 301.279 442.343 298.041 444.77C296.837 445.647 295.447 446.626 294.243 447.503C288.874 451.023 283.279 454.23 277.494 457.105C268.715 461.463 259.004 463.773 249.28 463.815C237.813 463.762 226.649 461.361 216.896 452.731C213.071 449.437 210.199 445.326 208.505 440.723C206.812 436.12 206.344 431.151 207.138 426.208C208.598 415.589 213.435 406.832 219.044 398.525C224.414 390.663 230.659 383.295 237.671 376.547C244.108 370.406 251.03 364.654 257.767 359.003C261.823 355.474 266.079 352.272 270.336 349.069C273.575 346.642 276.927 344.808 280.166 342.381C284.336 339.444 288.593 336.242 292.663 333.141C297.192 329.572 301.907 325.901 306.236 322.004C312.212 316.758 316.452 310.107 318.416 302.899C320.348 295.524 319.706 287.931 316.584 281.206C312.401 271.928 305.452 265.037 297.859 258.718C287.253 250.398 275.402 243.457 262.609 238.072C249.472 232.41 235.963 227.419 222.141 223.118C207.587 218.425 192.86 214.263 178.392 209.304C164.467 204.71 151.513 198.19 139.963 189.962C130.234 182.596 121.928 173.815 115.344 163.934C111.667 157.793 108.757 151.264 106.665 144.46C103.074 131.023 101.889 117.013 103.155 102.952C103.943 92.0458 104.83 81.3031 105.432 70.4989C106.188 54.7385 104.12 39.1377 99.3084 24.3113C95.2297 12.3583 91.1509 0.40525 87.4447 -11.7516C83.9268 -22.6689 81.9083 -34.0221 81.4337 -45.5616C81.2605 -57.2699 81.9603 -69.0266 83.528 -80.7515C84.9309 -90.538 85.0929 -100.367 84.0107 -110.041C83.3251 -115.241 81.6918 -120.246 79.177 -124.854C76.1625 -130.443 71.2498 -134.924 65.1203 -137.676C56.9678 -140.999 47.4895 -141.149 38.7636 -138.092C32.0474 -135.655 25.6259 -132.507 19.638 -128.717C14.9799 -125.689 10.4966 -122.435 6.20994 -118.968C2.59857 -116.337 -1.11263 -113.87 -4.624 -111.075C-8.13537 -108.281 -11.8331 -105.385 -15.6308 -102.652C-18.4109 -100.694 -21.3772 -98.6339 -24.1572 -96.676C-28.3274 -93.7393 -32.3112 -90.9044 -36.5813 -88.1312C-38.3439 -86.9485 -39.9204 -85.8679 -41.683 -84.6851C-48.0744 -80.0964 -54.5657 -75.6709 -60.9572 -71.0821C-67.5341 -66.3065 -73.4436 -60.798 -78.5317 -54.6998C-86.7639 -44.417 -92.7127 -32.8444 -96.0148 -20.6901C-100.3 -6.56056 -103.913 7.85558 -108.684 21.5965C-112.838 33.9084 -118.051 45.7086 -123.078 57.4068C-130.674 74.6578 -138.471 91.5816 -144.523 109.733C-148.59 121.779 -152.658 133.826 -156.912 145.974" stroke="#F2F4F6" stroke-width="1.5" stroke-linecap="round" stroke-linejoin="round"/>
<path d="M350.755 -409.199C348.092 -409.488 345.33 -409.94 342.667 -410.229C335.724 -411.013 328.782 -411.796 321.939 -412.416C316.165 -413.078 310.19 -412.025 304.884 -409.412C301.218 -407.245 298.02 -404.457 295.481 -401.211C290.834 -395.395 286.86 -389.292 282.6 -383.251C269.734 -363.926 254.067 -346.17 236.057 -330.502C232.273 -327.34 228.489 -324.178 224.505 -321.343C219.318 -317.632 213.93 -314.247 208.642 -310.699C205.455 -308.374 202.025 -306.35 198.412 -304.664C192.438 -301.831 185.878 -299.55 179.804 -296.881C171.54 -293.538 162.993 -290.907 154.281 -289.025C148.924 -287.621 143.54 -287.075 138.084 -285.835C129.048 -283.946 120.097 -282.321 111.361 -279.941C105.632 -278.333 100.603 -275.581 98.3328 -269.538C96.8646 -265.547 97.0687 -261.295 98.904 -257.629C101.573 -251.233 106.549 -246.755 111.339 -242.175C120.819 -233.178 130.658 -224.813 140.325 -215.918C149.47 -207.772 157.805 -198.903 165.244 -189.4C168.702 -184.964 172.075 -180.263 175.348 -175.725C177.634 -172.393 180.206 -169 182.22 -165.301C187.72 -155.45 192.145 -145.084 195.436 -134.342C197.988 -125.7 199.88 -116.915 201.486 -108.192C204.585 -91.3378 205.035 -74.3435 206.902 -57.4704C208.528 -42.2111 210.913 -26.9308 213.112 -11.5484C215.807 7.4907 217.457 26.4469 215.585 44.9296C214.505 56.0972 212.775 67.2429 210.401 78.319C208.903 84.8126 207.406 91.3064 206.194 97.8615C204.391 106.653 203.974 115.555 204.957 124.29C206.208 133.491 210.658 141.905 217.667 148.324C224.717 154.852 233.068 160.11 242.328 163.853C257.524 170.814 273.395 175.222 288.908 180.263C298.196 183.255 307.656 185.717 317.03 188.443C327.263 191.354 337.596 194.429 348.015 197.238C372.874 204.148 397.502 212.712 422.202 220.582C436.4 225.383 451.215 228.761 466.4 230.658C483.164 232.759 500.369 232.336 517.341 229.406C524.173 228.353 530.873 226.449 537.249 223.749C540.143 222.384 543.337 221.509 546.131 219.98C558.215 213.31 568.042 203.597 574.329 192.11C578.079 185.388 580.94 178.326 582.847 171.081C585.013 162.656 585.792 154.064 585.157 145.593C584.576 139.07 582.738 132.764 579.728 126.959C574.059 115.658 565.165 107.213 555.712 99.0737C544.046 89.4508 531.8 80.418 519.025 72.0118C512.045 67.1023 504.879 62.295 497.799 57.222C490.065 51.8581 483.149 45.6013 477.207 38.5927C470.613 30.4522 466.431 20.8226 465.032 10.5562C463.116 -1.92553 463.676 -14.0163 463.95 -26.1689C464.4 -41.6915 465.036 -57.3162 465.959 -72.8791C466.543 -81.2732 467.699 -89.5441 468.856 -97.815C471.262 -114.67 476.248 -131.284 483.668 -147.166C487.028 -154.679 491.161 -161.742 494.907 -169.03C495.185 -169.829 495.54 -170.608 495.97 -171.357" stroke="#F2F4F6" stroke-width="1.5" stroke-linecap="round" stroke-linejoin="round"/>
<path d="M527.732 541.885C521.424 537.262 514.93 532.741 508.809 528.017C496.818 519.353 485.357 510.11 474.471 500.324C466.649 492.82 459.287 484.846 452.297 476.669C443.134 465.752 434.158 454.733 424.637 444.449C414.815 433.675 403.172 425.206 389.305 421.229C380.116 418.455 370.058 418.267 360.385 420.687C351.076 422.945 343.081 427.756 334.986 432.404C330.698 435.231 326.586 438.282 322.675 441.541C319.436 443.969 315.911 446.334 312.672 448.761C309.433 451.188 305.922 453.983 302.683 456.41C301.266 457.583 299.783 458.686 298.241 459.714C292.062 463.675 285.661 467.324 279.07 470.642C267.621 475.991 254.955 478.384 242.524 477.547C228.964 476.949 216.226 472.471 206.104 464.742C200.932 460.978 196.896 456.088 194.328 450.475C191.759 444.862 190.731 438.686 191.329 432.455C192.303 421.447 196.84 412.199 202.249 403.565C208.06 393.978 215.092 385.001 223.187 376.831C229.423 370.362 235.86 364.221 242.296 358.08C248.188 352.674 254.365 347.329 260.357 342.086C266.993 336.272 273.63 330.459 280.167 324.481C286.587 318.818 291.785 312.116 295.454 304.766C299.15 297.116 299.657 288.666 296.875 281.075C294.431 274.629 290.393 268.859 285.057 264.191C275.374 255.364 264.068 248.135 251.584 242.791C233.885 234.581 215.71 229.251 197.52 223.492C181.755 218.821 166.489 213.021 151.858 206.143C138.01 199.547 125.876 190.474 116.13 179.43C101.561 162.426 93.5268 141.327 93.16 119.111C92.9477 106.569 93.6803 93.9475 94.2267 81.4275C95.3187 64.8909 93.5773 48.4669 89.0657 32.7489C86.2008 23.1869 82.3906 13.7054 78.8669 4.28565C76.5707 -2.31411 73.9021 -8.7097 71.7921 -15.4114C69.0456 -24.2486 67.0758 -33.3133 65.9009 -42.522C64.7832 -54.2039 64.4691 -65.9848 64.96 -77.797C65.4393 -84.9168 65.0212 -92.0104 63.714 -98.9383C62.0765 -105.68 58.9489 -111.607 51.565 -114.332C47.1643 -116.096 42.0984 -116.276 37.3345 -114.837C30.5321 -113.183 24.1424 -110.134 18.6678 -105.931C16.2762 -104.187 13.7623 -102.593 11.1452 -101.16C6.87504 -98.3864 2.99096 -95.3884 -1.27918 -92.6151L-6.56681 -89.0668C-10.8369 -86.2935 -15.3932 -83.5817 -19.5634 -80.645C-23.461 -78.0756 -26.9723 -75.2811 -30.8699 -72.7117C-34.2088 -70.4481 -37.8341 -68.2463 -41.0729 -65.8192C-45.3293 -62.617 -49.672 -59.1494 -53.7284 -55.6202C-61.9865 -48.2717 -68.8929 -39.7682 -74.149 -30.4782C-78.5645 -22.1892 -82.2208 -13.6177 -85.0783 -4.85649C-90.7123 11.5388 -96.1466 28.2608 -103.412 44.0212C-109.874 58.2505 -116.821 72.0912 -122.997 86.3822C-129.617 101.571 -134.792 117.498 -140.067 133.26C-142.828 141.754 -146.16 150.124 -149.021 158.455" stroke="#F2F4F6" stroke-width="1.5" stroke-linecap="round" stroke-linejoin="round"/>
<path d="M563.488 522.316C559.398 518.881 555.308 515.445 551.131 512.274C539.553 503.266 528.9 493.326 519.287 482.563C515.408 478.193 511.961 473.509 508.983 468.56C503.969 459.956 499.801 451.107 498.826 441.384C497.059 430.098 500.329 418.343 507.918 408.693C514.138 401.426 521.096 394.694 528.689 388.597C541.475 377.949 552.153 365.374 560.193 351.498C564.783 343.474 568.208 334.994 570.377 326.284C571.249 322.317 571.629 318.302 571.51 314.316C571.481 311.129 570.581 308.05 568.89 305.356C567.199 302.662 564.771 300.439 561.824 298.885C556.573 295.969 550.818 293.821 544.752 292.514C531.423 289.782 517.666 288.587 503.796 288.957C492.056 289.271 480.529 290.342 468.689 290.492C456.376 290.683 443.963 290.711 431.527 287.041C419.936 283.411 409.081 278.255 399.291 271.729C388.562 265.161 378.106 258.226 367.463 251.392C354.432 243.199 340.64 236.006 326.216 229.881C317.087 225.929 307.585 222.181 298.284 218.76C286.492 214.52 274.701 210.279 262.737 206.569C249.242 202.388 235.846 198.371 222.365 194.618C208.561 190.868 195.24 185.959 182.569 179.951C172.699 175.297 163.956 168.99 156.766 161.337C150.799 154.836 146.399 147.227 143.824 138.957C140.765 128.645 139.934 117.768 141.376 106.908C142.146 98.412 143.875 90.2641 145.118 81.7277C147.522 68.1433 148.48 54.4629 147.978 40.8806C147.384 31.6289 145.949 22.4868 143.691 13.5471C140.743 1.4115 137.323 -10.6836 134.662 -22.7577C131.876 -35.6852 131.003 -49.0027 132.066 -62.3648C133.144 -76.0484 134.508 -89.6705 135.299 -103.416C136.074 -115.821 134.299 -128.099 130.064 -139.614C128.422 -143.985 126.482 -148.244 124.254 -152.366C121.499 -157.951 117.787 -163.059 113.251 -167.513C109.289 -171.656 104.952 -175.486 100.28 -178.965C93.2628 -183.964 85.291 -187.791 76.7009 -190.285C64.9522 -193.938 52.1251 -194.538 39.5939 -192.02C33.9176 -191 28.3852 -189.224 23.1795 -186.748C18.1949 -184.49 13.3395 -181.978 8.6378 -179.226C2.69135 -175.536 -2.8687 -171.62 -8.32888 -167.541C-14.3478 -163.156 -20.1669 -158.444 -26.2859 -154.223C-30.6423 -151.184 -35.0986 -148.309 -39.655 -145.597C-49.1403 -139.97 -58.7255 -134.506 -68.4108 -129.206C-79.1274 -123.56 -90.2303 -118.139 -100.947 -112.493C-107.942 -108.516 -114.385 -103.743 -120.108 -98.2974C-125.88 -93.0874 -130.803 -87.1558 -134.706 -80.7068C-138.907 -73.8962 -142.087 -66.6477 -144.155 -59.1684C-147.809 -46.039 -149.359 -32.3151 -150.809 -18.4276C-152.524 1.33909 -157.253 20.9691 -164.86 39.8917C-170.577 53.7133 -176.493 67.2079 -182.21 81.0296C-184.148 85.5823 -185.801 90.1964 -187.554 94.6472" stroke="#F2F4F6" stroke-width="1.5" stroke-linecap="round" stroke-linejoin="round"/>
<path d="M555.67 526.596C543.9 517.107 532.23 507.78 520.732 497.923C513.157 491.393 506.383 484.131 500.517 476.251C495.758 469.689 491.931 462.618 487.917 455.649C484.692 449.729 482.264 443.44 480.683 436.911C478.161 428.235 477.547 419.085 478.872 409.969C480.269 401.379 484.949 393.326 492.074 387.25C497.42 382.578 503.353 378.459 509.186 374.176C517.785 367.506 525.798 360.284 531.552 350.588C534.493 345.694 536.14 340.301 536.354 334.866C536.625 325.553 532.538 319.278 523.682 314.958C517.401 312.088 510.381 310.626 503.171 310.688C491.217 310.246 479.818 312.338 468.233 314.531C457.965 316.44 447.983 318.411 437.147 317.357C427.962 316.267 419.363 313.101 412.119 308.139C402.635 301.981 394.886 293.782 386.778 286.216C378.085 278.098 369.477 269.715 360.152 262.597C343.306 249.809 324.589 239.149 304.458 230.878C296.774 227.663 289.19 224.612 281.234 221.764C272.605 218.63 263.976 215.496 255.075 212.729C243.683 209.142 232.119 206.086 220.641 202.765C202.938 197.395 185.049 192.126 168.44 182.448C160.146 177.742 152.822 171.803 146.745 164.859C139.023 155.883 133.933 145.189 131.911 133.695C130.303 123.266 130.216 112.602 131.652 101.974C133.289 87.9846 135.298 73.7915 136.648 59.7405C137.542 46.929 136.368 34.1891 133.162 21.9301C130.215 9.79443 126.795 -2.30104 123.375 -14.3964C119.149 -29.9198 117.797 -46.1362 119.373 -62.3996C120.464 -75.6543 122.128 -88.7859 123.119 -102.204C123.896 -113.153 122.553 -124.017 119.153 -134.296C112.151 -154.688 98.7119 -168.938 78.4777 -176.415C68.767 -180.054 58.012 -181.242 47.2857 -179.86C41.8253 -179.353 36.4456 -177.962 31.4027 -175.751C25.9129 -173.545 20.5793 -170.991 15.4434 -168.109C10.5088 -165.151 5.73945 -161.958 1.15676 -158.545C-2.82712 -155.71 -6.91099 -153.038 -10.7086 -150.305C-14.5062 -147.573 -17.9178 -144.615 -21.7154 -141.882C-24.5817 -139.659 -27.648 -137.762 -30.6143 -135.702C-48.6124 -123.671 -68.3107 -114.419 -87.195 -103.431C-97.7582 -97.4861 -107.205 -89.9521 -115.1 -81.1764C-123.406 -71.0994 -129.195 -59.5717 -132.024 -47.4728C-134.631 -36.1107 -136.51 -24.6617 -137.653 -13.1851C-139.752 4.70375 -144.277 22.4281 -151.124 39.5785C-156.496 52.3384 -161.867 65.0985 -167.139 78.0219C-171.175 88.0872 -174.726 98.5409 -178.476 108.668C-178.562 108.933 -178.834 109.301 -178.921 109.566" stroke="#F2F4F6" stroke-width="1.5" stroke-linecap="round" stroke-linejoin="round"/>
<path d="M366.464 -383.525C364.794 -383.496 363.121 -383.382 361.453 -383.183C355.51 -382.331 349.381 -381.378 343.639 -380.199C336.1 -378.829 328.627 -377.071 321.254 -374.933C316.413 -373.369 311.769 -371.267 307.43 -368.678C300.828 -364.329 294.461 -359.679 288.356 -354.748C279.398 -347.445 270.64 -339.815 261.782 -332.349C255.046 -326.699 248.223 -320.783 241.486 -315.133C238.348 -312.542 234.823 -310.176 231.584 -307.749C227.141 -304.445 222.885 -301.243 218.342 -298.103C216.393 -296.818 214.544 -295.37 212.682 -294.35C202.91 -288.785 192.952 -283.117 183.181 -277.552C178.897 -275.207 174.027 -273.415 169.943 -270.744C164.742 -267.461 159.626 -264.443 155.611 -259.627C150.234 -252.975 149.522 -245.602 153.864 -237.284C156.491 -232.175 159.305 -227.168 162.491 -222.365C165.677 -217.561 169.609 -213.166 172.981 -208.464C175.654 -204.908 177.954 -201.147 180.812 -197.692C187.399 -188.887 193.358 -179.685 198.658 -170.14C202.224 -163.914 205.403 -157.495 208.182 -150.91C212.537 -140.657 215.951 -130.045 218.39 -119.179C220.81 -108.719 222.858 -98.0544 224.991 -87.6557C227.266 -75.8067 229.255 -64.0193 231.43 -52.3338C233.164 -42.5892 234.897 -32.8446 236.817 -23.2019C240.791 -1.97903 240.917 19.9145 237.189 41.6277C235.991 48.6118 234.894 55.7593 233.41 62.6818C231.264 72.5857 228.545 82.3665 226.585 92.1684C224.519 100.975 224.037 109.938 225.16 118.699C225.8 124.09 227.743 129.21 230.853 133.697C233.891 137.755 237.477 141.434 241.533 144.657C250.189 151.232 260.013 156.46 270.647 160.149C279.376 163.447 288.205 166.908 297.007 169.512C309.543 173.345 322.066 176.749 334.589 180.153C343.004 182.531 351.319 184.746 359.635 186.961C372.157 190.365 384.68 193.769 397.303 197.336C401.697 198.424 405.918 200.042 410.312 201.129C429.06 206.582 447.521 211.974 466.532 213.791C482.507 215.524 498.414 215.112 513.352 211.084C518.236 209.721 523.006 207.765 527.69 206.075C535.11 203.062 541.682 198.415 546.778 192.574C551.524 187.19 555.039 181.028 557.096 174.488C559.578 167.155 560.335 159.522 559.316 152.105C557.986 142.624 554.089 133.739 547.969 126.235C539.09 114.842 527.93 105.131 515.021 97.5636C499.857 88.6216 484.334 80.3123 468.997 71.9012C461.232 67.8151 454.104 62.8484 447.771 57.111C444.118 53.6777 440.885 49.8898 438.122 45.8058C433.141 38.2142 430.66 29.374 430.954 20.2667C431.357 11.6714 432.863 3.08344 435.441 -5.32124C439.618 -19.9628 442.94 -34.7479 445.393 -49.6126C447.529 -62.7845 448.607 -76.4679 450.457 -89.7014C452.87 -106.08 455.955 -122.171 461.631 -137.28C465.262 -147.223 469.702 -156.948 474.912 -166.371C478.586 -172.965 482.646 -179.333 486.32 -185.926C486.622 -186.617 486.853 -187.328 487.01 -188.05" stroke="#F2F4F6" stroke-width="1.5" stroke-linecap="round" stroke-linejoin="round"/>
<path d="M520.263 545.525C519.491 545.075 518.632 544.89 517.86 544.44C509.334 538.63 500.809 532.82 492.557 526.643C480.028 517.132 467.499 507.621 456.605 495.905C447.183 485.785 437.848 475.399 428.427 465.279C419.792 456.037 410.598 447.101 399.41 441.003C386.291 433.779 373.351 432.131 360.275 435.14C350.866 437.233 342.871 442.045 334.776 446.694C329.686 449.957 324.768 453.449 320.044 457.156C315.601 460.46 311.545 463.989 307.102 467.293C303.677 469.822 300.052 472.024 296.713 474.288C292.529 476.795 288.545 479.63 284.348 481.709C274.401 486.73 263.487 489.719 252.409 490.458C238.138 491.298 224.069 489.05 211.357 483.898C201.769 480.385 193.234 475.017 186.309 468.144C182.141 464.019 179.042 459.074 177.218 453.639C175.393 448.204 174.886 442.401 175.728 436.617C176.907 427.458 180.032 418.482 184.926 410.197C191.01 399.19 198.542 388.836 207.344 379.379C217.969 367.891 228.693 356.566 239.903 345.63C249.637 335.939 259.858 326.636 268.519 316.004C273.599 310.209 277.153 303.474 278.882 296.366C280.308 289.95 279.603 283.415 276.86 277.614C272.091 267.784 264.197 260.974 255.486 255.266C246.053 249.038 235.7 243.995 224.681 240.262C215.48 237.004 206.465 233.645 197.263 230.387C191.51 228.298 185.499 227.005 179.747 224.915C165.751 219.917 151.656 214.754 138.523 207.101C126.542 200.395 115.963 191.885 107.202 181.904C102.545 176.665 98.4913 170.989 95.0987 164.959C89.296 154.494 85.3838 143.161 83.5037 131.367C81.0325 116.352 81.6102 101.851 81.7016 86.9612C81.7992 78.1785 81.238 69.5382 80.8631 60.7959C79.9877 50.1276 77.6154 39.6925 73.8032 29.7422C70.9932 21.896 67.6243 14.3553 64.4418 6.71289C58.1768 -8.40838 51.912 -23.5293 47.337 -39.139C45.1133 -46.4331 42.6031 -53.7891 40.0932 -61.1448C36.2419 -71.9129 28.8894 -76.6184 18.5079 -75.302C13.1557 -74.4549 7.92989 -72.8472 3.02491 -70.539C-1.48466 -68.7522 -5.88216 -66.7102 -10.1405 -64.4256C-17.1182 -60.3889 -23.6098 -55.964 -30.3875 -51.6003C-36.6769 -47.5566 -42.3616 -42.7557 -47.2719 -37.3412C-53.7928 -30.5855 -59.2359 -23.047 -63.4226 -14.9727C-71.4742 -0.0914592 -76.8219 16.3655 -84.001 31.8604C-91.1801 47.3553 -98.5591 62.5234 -105.838 77.8548C-113.28 93.394 -119.671 109.282 -124.972 125.425C-129.888 140.554 -134.332 155.644 -140.408 170.098C-140.494 170.363 -140.766 170.731 -140.853 170.996" stroke="#F2F4F6" stroke-width="1.5" stroke-linecap="round" stroke-linejoin="round"/>
<path d="M380.754 -360.149C380.579 -360.35 380.383 -360.535 380.168 -360.701C369.955 -357.076 359.401 -355.229 348.961 -352.789C340.497 -350.776 332.219 -348.865 324.055 -346.361C319.012 -344.699 314.101 -342.668 309.372 -340.291C305.979 -338.978 302.7 -337.402 299.573 -335.583C294.372 -332.3 289.456 -328.956 284.355 -325.509C281.389 -323.45 278.322 -321.553 275.456 -319.33C272.217 -316.903 268.978 -314.476 265.839 -311.885C261.956 -308.887 258.072 -305.889 254.288 -302.727C251.608 -300.605 249.028 -298.321 246.348 -296.199C242.464 -293.201 238.58 -290.202 234.796 -287.041C230.267 -283.471 225.838 -279.738 221.223 -275.903C216.608 -272.068 211.979 -268.662 207.65 -264.766C202.031 -259.727 196.798 -254.463 193.524 -247.215C190.427 -239.429 190.426 -231.067 193.522 -223.645C195.6 -217.802 198.286 -212.186 201.545 -206.867C205.345 -200.654 209.059 -194.175 212.673 -187.86C216.287 -181.545 219.814 -174.964 222.869 -168.343C229.579 -154.432 235.078 -140.005 239.319 -125.188C243.053 -112.173 246.414 -98.9544 250.434 -85.8781C254.254 -73.1287 258.733 -60.5217 262.739 -47.8743C265.918 -37.3928 269.183 -27.1768 271.603 -16.7165C273.791 -6.53878 274.193 3.99237 272.793 14.4944C270.984 29.0147 266.198 42.3266 261.986 55.7618C259.067 65.2155 256.434 74.7306 253.515 84.1843C250.93 92.7513 249.931 101.563 250.56 110.244C251.165 117.713 254.083 124.738 258.98 130.514C265.097 138.078 272.922 142.743 280.92 146.878C292.971 153.14 305.844 158.1 319.298 161.666C335.456 166.136 351.973 169.973 368.117 174.014C383.016 177.646 397.629 181.215 412.428 184.683C425.946 188.16 439.701 190.977 453.635 193.122C464.561 194.817 475.81 194.988 487.008 193.627C494.979 192.603 502.705 189.942 509.596 185.849C519.053 179.364 525.121 170.588 523.178 157.248C522.443 152.812 520.932 148.557 518.699 144.641C513.942 136.87 507.587 130.062 499.956 124.563C488.686 115.891 476.281 110.241 464.048 104.059C454.419 99.2899 444.79 94.5203 435.42 88.9546C425.058 82.8446 415.844 75.3123 408.076 66.601C401.311 59.2085 396.473 50.4669 393.893 40.9726C391.682 32.3005 391.876 23.1277 394.458 14.2571C397.624 4.96409 401.745 -4.08747 406.764 -12.7726C413.467 -25.3881 419.883 -38.0652 423.31 -52.3795C426.16 -63.9779 428.624 -75.8012 431.088 -87.6247C432.73 -95.507 433.887 -103.778 435.529 -111.66C438.633 -127.286 443.873 -142.619 451.124 -157.293C455.76 -166.378 460.683 -175.4 465.706 -184.259C469.121 -190.056 473.023 -195.465 476.538 -201.098C476.839 -201.789 477.07 -202.5 477.228 -203.222" stroke="#F2F4F6" stroke-width="1.5" stroke-linecap="round" stroke-linejoin="round"/>
<path d="M509.846 551.678C501.321 545.868 492.796 540.058 484.171 534.084C471.404 525.597 459.471 516.144 448.488 505.819C440.766 498.478 433.504 490.668 426.155 483.123C417.533 474.31 408.726 465.6 397.91 459.297C387.868 453.445 377.363 450.901 366.695 452.156C359.224 453.121 351.964 455.53 345.41 459.221C338.361 463.11 331.683 467.568 325.464 472.537C319.645 477.249 313.826 481.961 307.807 486.346C302.912 489.93 297.832 493.293 292.589 496.419C288.708 498.87 284.663 501.084 280.482 503.045C273.405 506.015 265.905 507.906 258.298 508.638C244.895 509.472 231.594 508.101 219.032 504.592C205.139 501.123 191.938 495.943 179.781 489.19C172.635 485.289 166.405 480.196 161.389 474.158C156.124 467.505 153.409 459.368 153.632 450.906C153.933 439.612 158.07 429.71 162.692 420.197C168.046 409.631 174.654 399.573 182.389 390.213C193.317 376.377 205.318 363.481 217.418 350.749C225.117 342.607 232.716 334.303 239.929 325.773C245.952 319.156 250.834 311.768 254.39 303.893C257.358 297.468 258.128 290.492 256.593 283.919C255.573 279.797 253.715 275.932 251.11 272.516C242.72 262.05 231.905 255.747 220.272 250.547C212.388 247.005 204.145 244.096 196.089 241.084C188.705 238.36 181.235 235.901 173.951 233.34C159.289 228.389 145.181 222.314 131.769 215.178C118.538 207.937 106.793 198.748 96.9719 187.955C93.9269 184.602 91.2542 181.045 88.5817 177.488C86.3206 174.67 84.3235 171.676 82.6092 168.535C76.4472 157.772 71.9646 146.205 69.2829 134.146C65.8667 119.211 65.5856 104.525 64.9182 89.6143C64.2921 75.9901 63.1935 62.4063 59.0598 48.7375C57.0703 41.8586 54.5436 35.1466 51.4985 28.6514C48.971 23.7059 46.5297 18.4948 44.0022 13.5492C39.7746 5.82397 35.361 -1.79897 30.5747 -9.2184C26.628 -15.6736 21.2634 -21.2677 14.7907 -25.6775C11.311 -27.9738 7.23123 -29.4524 2.8833 -29.993C-1.46462 -30.5336 -5.95807 -30.1212 -10.2313 -28.7889C-15.4426 -27.3837 -20.3613 -25.0629 -24.7005 -21.962C-29.0899 -18.7694 -33.1644 -15.2244 -36.8696 -11.3743C-42.6801 -5.33151 -47.6287 1.33999 -51.5851 8.46329C-55.7178 15.5259 -59.3643 22.9769 -63.297 30.3666C-69.0098 41.3492 -74.6225 52.4953 -80.4353 63.3144C-91.357 83.2579 -101.793 103.59 -108.952 125.621C-113.364 138.729 -117.391 152.062 -121.904 165.007C-124.591 172.807 -127.952 180.319 -131.212 187.996" stroke="#F2F4F6" stroke-width="1.5" stroke-linecap="round" stroke-linejoin="round"/>
<path d="M549.897 529.755C540.558 522.208 531.132 514.927 521.794 507.38C511.998 499.411 502.943 490.722 494.712 481.391C487.806 473.556 481.85 465.042 476.935 455.983C473.708 449.893 470.953 443.763 468.098 437.469C461.147 421.632 457.303 405.185 451.669 389.064C448.478 378.966 441.557 370.371 432.03 364.676C423.819 359.786 415.507 354.731 407.196 349.678C397.901 343.941 390.561 336.001 385.894 326.636C382.253 319.463 379.729 311.678 376.088 304.505C372.596 297.983 368.724 291.652 364.488 285.538C359.77 278.815 354.234 272.626 347.976 267.076C342.138 261.6 335.765 256.619 328.926 252.186C316.822 244.349 303.92 237.535 290.369 231.822C284.989 229.529 279.609 227.236 274.143 225.208C266.472 222.422 258.702 219.472 250.86 217.217C238.323 213.384 225.514 209.918 212.977 206.085C196.892 200.921 180.534 196.124 165.097 187.549C155.031 182.235 146.259 175.196 139.226 166.79C131.487 157.444 126.306 146.471 124.078 134.706C122.378 123.338 122.293 111.725 123.824 100.147C125.243 88.2408 126.948 76.396 127.894 64.53C128.971 51.664 127.922 38.8488 124.781 26.5157C121.419 13.2971 117.113 0.158883 113.566 -12.9578C109.054 -29.0643 107.648 -45.9339 109.409 -62.8401C110.628 -75.0735 112.319 -87.3473 113.251 -99.6422C114.36 -110.715 113.106 -121.739 109.558 -132.101C102.297 -151.697 88.9989 -164.497 68.9472 -169.237C58.1937 -171.812 46.5937 -171.123 35.8439 -167.271C29.0804 -165.125 22.6084 -162.17 16.6045 -158.488C11.2169 -155.104 6.12928 -151.228 0.941612 -147.516C-3.87355 -144.008 -8.60258 -140.766 -13.4177 -137.258C-17.2154 -134.525 -20.9992 -131.363 -24.7968 -128.63C-28.3212 -126.039 -31.9749 -123.602 -35.7445 -121.33C-45.6023 -115.499 -55.274 -109.77 -65.1319 -103.939C-69.6883 -101.227 -74.1583 -98.781 -78.6147 -95.9058C-83.3436 -92.6633 -87.9725 -89.2571 -92.7876 -85.7492C-98.1772 -81.7779 -102.974 -77.1694 -107.037 -72.0593C-114.169 -63.181 -119.212 -53.1265 -121.823 -42.5813C-123.751 -34.7606 -125.48 -26.6129 -126.837 -18.669C-128.234 -12.0119 -128.773 -5.17028 -130.171 1.4868C-133.223 16.677 -137.884 31.6539 -144.089 46.2028C-152.39 65.1483 -160.504 83.992 -167.359 103.674C-169.27 109.085 -171.268 114.761 -173.079 120.335" stroke="#F2F4F6" stroke-width="1.5" stroke-linecap="round" stroke-linejoin="round"/>
<path d="M396.571 -333.88C395.21 -333.739 393.856 -333.508 392.519 -333.19C378.194 -327.752 362.815 -325.665 347.85 -322.495C339.845 -320.951 331.753 -319.142 323.862 -317.006C318.168 -315.204 312.6 -313.033 307.202 -310.508C302.873 -308.683 298.665 -306.599 294.609 -304.271C289.681 -301.356 285.052 -297.95 280.323 -294.707C270.615 -287.854 261.681 -280.112 253.677 -271.615C246.523 -264.208 239.669 -256.311 235.433 -246.572C231.489 -237.199 230.784 -227.123 233.418 -217.755C235.618 -210.065 238.455 -202.572 241.907 -195.34C247.117 -183.569 252.327 -171.799 256.792 -159.62C261.571 -146.523 265.218 -133.243 269.625 -119.941C273.33 -107.229 277.874 -94.7771 283.233 -82.651C285.975 -76.9495 288.43 -71.3094 291.357 -65.7098C294.085 -60.4372 296.726 -54.899 300.012 -49.9322C304.589 -42.519 309.627 -35.3679 315.102 -28.5107C319.19 -23.1183 324.307 -18.4637 330.231 -14.7483C332.986 -13.1408 336.129 -12.1171 339.444 -11.747C342.759 -11.3769 346.169 -11.6689 349.442 -12.6033C355.83 -14.3531 361.017 -18.0649 366.391 -21.8786C374.288 -27.7539 381.225 -34.6421 386.963 -42.3023C393.927 -51.5872 399.117 -61.8146 402.294 -72.515C405.126 -81.7033 407.187 -91.3416 409.533 -100.918C413.118 -116.193 416.317 -131.692 421.82 -146.269C425.521 -156.167 430.092 -165.822 435.488 -175.136C439.721 -182.035 443.567 -189.159 447.9 -195.895C452.95 -203.896 458.287 -211.836 463.523 -219.939C464.041 -220.905 464.423 -221.921 464.658 -222.96" stroke="#F2F4F6" stroke-width="1.5" stroke-linecap="round" stroke-linejoin="round"/>
<path d="M649.293 484.984C647.125 472.492 646.652 459.707 647.883 446.91C649.584 433.183 653.127 419.59 658.432 406.439C662.114 397.54 665.022 388.432 667.129 379.202C669.111 370.285 668.526 361.2 665.432 352.852C662.382 344.74 657.539 337.374 651.187 331.186C644.938 325.44 638.789 319.857 632.182 314.744C626.447 310.244 620.339 305.948 615.98 300.04C612.766 295.716 611.144 290.512 611.333 285.125C611.124 277.797 612.232 270.41 614.612 263.253C618.307 251.411 621.902 239.405 626.456 227.747C633.38 210.209 640.977 192.958 648.187 175.482C652.41 165.315 656.347 155.086 660.183 144.694C663.509 135.781 665.073 126.496 664.801 117.288C664.605 110.228 663.004 103.341 660.075 96.9604C655.592 87.1924 648.443 79.9749 640.463 73.4303C629.952 64.7792 618.078 57.9649 606.749 50.4159C591.887 41.1409 578.427 30.188 566.662 17.7949C562.183 13.0521 558.213 7.92062 554.799 2.46343C552.299 -1.62427 549.326 -5.67178 547.199 -9.96332C544.344 -15.7291 541.876 -21.6653 539.806 -27.7411C535.414 -41.6376 533.538 -56.2303 534.252 -70.9663C534.411 -80.6897 535.881 -90.4356 538.628 -99.9856C538.778 -100.791 538.784 -101.605 538.646 -102.396" stroke="#F2F4F6" stroke-width="1.5" stroke-linecap="round" stroke-linejoin="round"/>
<path d="M283.392 422.026C286.059 419.476 288.725 416.926 291.105 414.314C293.876 411.542 295.773 408.157 296.573 404.557C297.014 402.599 296.982 400.605 296.481 398.715C295.984 397.545 295.118 396.553 293.987 395.856C292.855 395.16 291.506 394.788 290.1 394.786C287.722 394.614 285.296 394.969 283.027 395.821C274.263 398.899 266.965 404.931 262.717 412.608C261.153 415.283 260.551 418.292 261.002 421.185C261.349 422.566 262.11 423.809 263.202 424.782C264.538 425.938 266.228 426.709 268.079 427.007C269.931 427.305 271.871 427.118 273.68 426.469C276.86 425.165 280.026 423.432 283.106 421.965" stroke="#F2F4F6" stroke-width="1.5" stroke-linecap="round" stroke-linejoin="round"/>
<path d="M427.466 148.304C431.553 142.794 429.626 138.829 425.495 134.107C418.118 125.704 409.366 118.709 401.072 111.245C392.778 103.781 385.057 96.4403 376.949 88.8744C367.369 79.7137 358.161 70.349 348.208 61.3922C341.96 55.646 334.634 51.7983 326.402 52.1572C321.391 52.3494 316.518 54.2379 312.736 57.453C309.905 59.613 307.285 61.9968 304.91 64.5731C298.028 71.9214 292.987 80.5033 290.173 89.6597C288.46 95.0449 287.898 100.615 288.519 106.059C289.646 114.389 293.978 121.905 300.76 127.294C307.48 132.661 315.206 136.914 323.622 139.88C343.856 147.357 364.325 150.34 384.94 151.935C395.662 152.996 406.576 152.816 417.426 151.398C420.78 151.033 424.049 149.989 426.993 148.345" stroke="#F2F4F6" stroke-width="1.5" stroke-linecap="round" stroke-linejoin="round"/>
</g>
</g>
<defs>
<clipPath id="clip0_840_32274">
<rect width="462" height="581" fill="white"/>
</clipPath>
</defs>
</svg>
