<svg width="2560" height="170" viewBox="0 0 2560 170" fill="none" xmlns="http://www.w3.org/2000/svg">
<g clip-path="url(#clip0_1531_34279)">
<path opacity="0.2" d="M2561.09 123.551C2516.78 115.277 2412.36 125.192 2348.19 135.213C2284.02 145.233 2283.25 123.986 2229.65 119.49C2178.24 115.177 2088.91 131.84 2033.12 135.213C1922.4 142.222 1881.89 119.116 1803.32 116.986C1704.36 114.303 1665.66 171.833 1571.43 160.449C1466.97 147.831 1444.13 116.986 1344.76 116.986C1236.13 116.986 1195.75 160.449 1093.43 143.954C991.105 127.458 895.374 167.475 750.984 128.129C653.66 101.609 588.786 108.796 531.129 116.097C473.473 123.398 434.471 116.381 380.419 123.359C292.073 134.766 53.0077 124.512 -0.797852 132.003" stroke="#F2F4F6" stroke-width="1.5" stroke-linecap="round" stroke-linejoin="round"/>
<path opacity="0.2" d="M-17.8555 153.132C15.0732 147.643 119.567 139.959 274.115 153.132C428.662 166.305 459.917 155.269 526.879 146.333C612.439 132.444 699.356 151.281 771.685 161.707C919.156 182.963 939.001 145.903 1097.79 153.132C1256.58 160.361 1236.13 137.78 1344.76 137.78C1444.13 137.78 1466.97 156.079 1571.43 166.707C1665.66 176.295 1704.36 135.52 1803.32 137.78C1881.88 139.575 1922.4 159.036 2033.12 153.132C2063.43 151.515 2133.03 149.156 2200.17 147.632C2248.1 146.544 2294.77 155.883 2325.04 156.221C2397.71 157.033 2517.73 141.99 2570.17 146.219" stroke="#F2F4F6" stroke-width="1.5" stroke-linecap="round" stroke-linejoin="round"/>
<path opacity="0.2" d="M2570.79 47.1905C2537.99 42.5768 2511.62 62.4951 2483.55 62.4951C2439.3 62.4951 2398 78.8191 2359.48 83.2072C2320.97 87.5954 2295.58 54.3496 2250.75 47.1905C2199.9 39.0687 2150.95 62.0569 2115.58 67.4401C2087.28 71.7466 2048.12 69.2345 2032.08 67.4401C1956.87 67.4401 1869.29 35.6597 1770.94 32.9699C1600.52 28.3091 1586.47 57.3232 1488.91 46.0483C1341.25 28.9846 1298.95 32.5424 1165.1 51.7733C983.347 77.887 667.812 19.3955 538.368 19.3906C408.924 19.3858 386.507 26.6182 347.792 33.1804C234.951 52.3068 193.243 63.5175 157.755 66.3795C93.357 71.5729 55.3747 46.115 -2.5166 43.4835" stroke="#F2F4F6" stroke-width="1.5" stroke-linecap="round" stroke-linejoin="round"/>
<path opacity="0.2" d="M2559.44 4.06C2547.59 3.02958 2539.72 4.56186 2529 7.7189C2517.17 11.2011 2505.57 14.0708 2484.53 11.2729C2466.08 8.81868 2441.12 10.1133 2401.16 17.3908C2348.64 26.9561 2317.29 23.638 2237.95 11.2729C2174.47 1.38091 2129.38 12.8638 2052.4 17.3908C1950.47 23.3842 1869.12 8.96781 1770.94 6.65158C1682.33 4.56134 1623.66 13.6008 1502.49 10.1259C1363.51 6.14024 1298.95 6.49357 1165.1 13.6008C983.346 23.2518 885.159 7.03756 538.367 1.63303C494.196 1.21241 394.667 1.20596 349.922 4.54516C293.99 8.71917 249.329 7.4573 211.345 4.54516C173.362 1.63303 89.4619 9.13928 62.3309 10.3915C40.6261 11.3932 5.98263 10.8089 -8.62598 10.3915" stroke="#F2F4F6" stroke-width="1.5" stroke-linecap="round" stroke-linejoin="round"/>
<path opacity="0.2" d="M2326.31 28.9095C2344.08 30.5615 2380.1 28.0368 2371.26 34.9022C2362.09 42.0318 2354.62 45.1012 2338.09 45.5144C2321.56 45.9277 2296.84 39.2895 2289.41 31.0239C2281.97 22.7582 2308.55 27.2575 2326.31 28.9095Z" stroke="#F2F4F6" stroke-width="1.5" stroke-linecap="round" stroke-linejoin="round"/>
<path opacity="0.2" d="M2571.3 14.3823C2557.46 13.357 2528.24 34.8876 2521.58 38.476C2498.93 50.6733 2483.23 35.2982 2457.81 31.4165C2405.44 23.4195 2399.18 54.001 2360 68.0261C2322.77 81.351 2293.05 45.8068 2244.46 38.476C2195.86 31.1453 2077.17 45.8258 2032.07 48.2221C1956.87 48.2221 1869.12 27.1312 1770.94 22.4443C1682.33 18.2147 1623.65 36.506 1502.49 29.4745C1363.51 21.4097 1298.94 22.1246 1165.1 36.506C983.345 56.0347 885.158 23.2254 538.366 12.2893C514.909 11.4303 450.479 11.2005 380.417 17.1535C292.84 24.5946 218.778 17.0431 181.223 21.2007C143.667 25.3583 80.8546 46.8878 48.9956 40.6215C14.999 33.9349 -9.57773 29.5552 -17.3994 26.884" stroke="#F2F4F6" stroke-width="1.5" stroke-linecap="round" stroke-linejoin="round"/>
<path opacity="0.2" d="M127.09 40.425C138.264 37.775 154.485 38.0111 149.449 45.4455C144.412 52.8798 131.27 59.1489 108.54 55.7755C95.5497 53.8475 115.916 43.075 127.09 40.425Z" stroke="#F2F4F6" stroke-width="1.5" stroke-linecap="round" stroke-linejoin="round"/>
<path opacity="0.2" d="M2454.62 38.4526C2465.43 39.5 2498.77 47.4763 2494.54 51.9725C2490.3 56.4686 2446.61 59.0101 2446.61 59.0101C2446.61 59.0101 2435.26 59.0038 2432.32 54.476C2429.74 50.4959 2432.32 36.2902 2454.62 38.4526Z" stroke="#F2F4F6" stroke-width="1.5" stroke-linecap="round" stroke-linejoin="round"/>
<path opacity="0.2" d="M2410.3 48.2703L2410.64 48.9411L2410.3 48.2703ZM2421.33 62.8445L2421.04 62.1521L2421.04 62.1521L2421.33 62.8445ZM2409.97 47.5994C2405.69 49.7386 2398.49 54.9176 2393.7 59.5659C2392.49 60.732 2391.43 61.8765 2390.59 62.9422C2389.77 63.9972 2389.13 65.0209 2388.83 65.9431C2388.53 66.868 2388.53 67.871 2389.27 68.6116C2389.94 69.2866 2391.06 69.5406 2392.44 69.5406V68.0406C2391.15 68.0406 2390.56 67.7844 2390.33 67.5503C2390.16 67.3819 2390.04 67.0769 2390.26 66.406C2390.48 65.7323 2390.99 64.8723 2391.77 63.8669C2392.55 62.8722 2393.57 61.7796 2394.74 60.643C2399.45 56.0805 2406.52 50.9994 2410.64 48.9411L2409.97 47.5994ZM2392.44 69.5406C2399.38 69.5406 2412.45 67.3548 2421.62 63.5368L2421.04 62.1521C2412.07 65.8895 2399.19 68.0406 2392.44 68.0406V69.5406ZM2421.62 63.5368C2423.64 62.6961 2424.88 61.8345 2425.46 60.7952C2426.08 59.6985 2425.88 58.5944 2425.54 57.5946C2424.84 55.5368 2423.53 53.5445 2424.23 50.49L2422.77 50.1558C2421.95 53.7531 2423.53 56.3659 2424.12 58.0781C2424.42 58.9634 2424.45 59.5354 2424.16 60.0576C2423.83 60.6373 2423 61.3372 2421.04 62.1521L2421.62 63.5368ZM2424.23 50.49C2424.63 48.7516 2424.58 47.2946 2423.98 46.2085C2423.34 45.0794 2422.21 44.5323 2420.86 44.4001C2419.52 44.2696 2417.9 44.528 2416.09 45.0749C2414.27 45.625 2412.2 46.4831 2409.97 47.5994L2410.64 48.9411C2412.82 47.8498 2414.8 47.0292 2416.52 46.5109C2418.25 45.9895 2419.66 45.7898 2420.71 45.8929C2421.75 45.9943 2422.35 46.3725 2422.67 46.9417C2423.01 47.554 2423.13 48.5685 2422.77 50.1558L2424.23 50.49Z" fill="#F2F4F6"/>
<path opacity="0.2" d="M2561.44 8.39156C2556.75 8.81741 2543.78 12.4756 2525.83 21.6584C2503.72 32.9709 2502.42 29.9527 2459.05 24.9976C2415.68 20.0424 2385.97 37.9981 2369.72 47.1198C2353.96 55.9682 2333.32 67.7689 2277.96 34.1264C2233.67 7.21247 2125.66 29.0036 2032.08 29.0036C1929.88 29.0036 1869.13 15.0246 1770.94 11.9182C1682.33 9.11484 1623.66 21.2383 1502.49 16.5778C1363.51 11.2324 1298.95 11.7063 1165.1 21.2383C983.347 34.1818 885.159 12.4359 538.368 5.1875C493.097 5.46237 403.716 6.15481 380.049 8.26795C350.465 10.9094 308.325 16.3108 258.641 12.929C195.828 8.65352 168.455 9.71009 138.342 14.4647C108.23 19.2192 62.7431 30.522 31.6979 26.0869C0.652758 21.6519 -7.21909 23.4455 -17.4326 23.4455" stroke="#F2F4F6" stroke-width="1.5" stroke-linecap="round" stroke-linejoin="round"/>
<path opacity="0.2" d="M2561.69 79.686C2531.61 78.4149 2455.29 83.0758 2413.77 93.669C2396.5 98.0742 2348.51 109.849 2298.56 93.669C2248.09 77.324 2204.06 75.7121 2163.51 79.0597C2122.97 82.4072 2108.46 89.4742 2033.12 86.2421C1942.06 82.336 1881.88 50.2662 1803.32 45.5047C1704.36 39.5073 1655.47 141.102 1561.23 115.659C1456.78 87.4557 1444.13 45.5047 1344.76 45.5047C1236.13 45.5047 1143.16 89.7237 1057.51 86.2421C971.856 82.7605 830.843 64.7261 772.348 53.8636C699.23 40.2854 558.374 37.98 526.879 35.0627C454.642 28.3715 426.783 42.0191 342.068 53.8636C236.174 68.6693 116.54 81.8344 92.4989 80.6896C73.2663 79.7738 12.7458 72.2944 -15.1104 68.6692" stroke="#F2F4F6" stroke-width="1.5" stroke-linecap="round" stroke-linejoin="round"/>
<path opacity="0.2" d="M2560.42 96.2097C2457.46 90.2196 2388.51 123.714 2341.33 117.019C2294.15 110.324 2301.03 107.139 2261.27 101.926C2172.93 90.3417 2087.84 94.6509 2033.12 101.926C1922.4 114.482 1881.88 73.0962 1803.32 69.2805C1704.36 64.4743 1663.08 166.706 1568.85 146.316C1464.39 123.716 1444.13 69.2805 1344.76 69.2805C1272.5 69.2805 1228.55 70.6798 1168.14 86.0211C1137.74 93.7421 1110.79 131.698 1044.31 123.578C977.82 115.457 848.396 101.825 767.156 68.6676C685.916 35.51 597.571 54.3055 535.653 51.1363C473.734 47.967 446.359 62.8185 403.315 68.6676C349.509 75.979 120.547 92.7084 78.7623 89.274C45.3342 86.5265 -2.32598 79.2659 -21.9775 75.979" stroke="#F2F4F6" stroke-width="1.5" stroke-linecap="round" stroke-linejoin="round"/>
<path opacity="0.2" d="M465.728 89.3284C493.747 89.6767 534.723 72.1689 538.224 66.9144C540.675 59.2044 529.467 64.1135 501.449 64.1135C473.43 64.1135 436.307 74.9708 419.495 81.275C402.684 87.5793 437.708 88.9802 465.728 89.3284Z" stroke="#F2F4F6" stroke-width="1.5" stroke-linecap="round" stroke-linejoin="round"/>
<path opacity="0.2" d="M168.331 35.8732C207.966 20.5982 254.075 29.6983 277.232 31.5858C326.938 35.6371 246.022 41.9781 190.829 50.8731C169.953 54.2373 147.291 43.9819 168.331 35.8732Z" stroke="#F2F4F6" stroke-width="1.5" stroke-linecap="round" stroke-linejoin="round"/>
<path opacity="0.2" d="M2563.26 107.39C2477.72 104.125 2352.2 132.672 2320.23 127.171C2288.26 121.67 2283.11 113.555 2239.78 107.39C2183.4 99.3693 2124.83 104.265 2033.12 114.733C1941.4 125.201 1881.88 92.9037 1803.32 90.0145C1704.36 86.3755 1665.66 171.347 1571.43 155.909C1466.97 138.797 1444.13 90.0145 1344.76 90.0145C1236.13 90.0145 1182.72 150.905 1089.79 136.285C996.856 121.665 892.145 146.902 767.079 114.338C644.605 82.449 594.654 69.0315 527.337 88.0984C460.021 107.165 430.415 99.61 389.202 103.273C337.686 107.853 286.546 117.898 243.044 117.898C199.542 117.898 152.605 117.898 121.695 117.898C90.7856 117.898 24.9585 117.898 -6.52344 117.898" stroke="#F2F4F6" stroke-width="1.5" stroke-linecap="round" stroke-linejoin="round"/>
</g>
<defs>
<clipPath id="clip0_1531_34279">
<rect width="2560" height="170" fill="white"/>
</clipPath>
</defs>
</svg>
