<svg width="118" height="115" viewBox="0 0 118 115" fill="none" xmlns="http://www.w3.org/2000/svg">
<path d="M71.9984 35.8535C74.4684 35.8535 76.4837 37.8002 76.5937 40.243L76.5984 40.4535V45.4535H75.3984V40.4535C75.3984 38.5757 73.8762 37.0535 71.9984 37.0535H23.9984C22.1833 37.0535 20.7003 38.476 20.6035 40.267L20.5984 40.4535V62.4535C20.5984 64.2687 22.0209 65.7516 23.8119 65.8485L23.9984 65.8535H36.9984V67.0535H23.9984C21.5285 67.0535 19.5132 65.1069 19.4032 62.6641L19.3984 62.4535V40.4535C19.3984 37.9836 21.3451 35.9683 23.7879 35.8582L23.9984 35.8535H71.9984Z" fill="#1B127D"/>
<path d="M56.9984 68.9833V70.1833H47.9984V68.9833H56.9984Z" fill="#1B127D"/>
<path d="M67.9984 68.9833V70.1833H58.9984V68.9833H67.9984Z" fill="#1B127D"/>
<path d="M79.9984 68.9833V70.1833H70.9984V68.9833H79.9984Z" fill="#1B127D"/>
<path d="M90.9984 68.9833V70.1833H81.9984V68.9833H90.9984Z" fill="#1B127D"/>
<path fill-rule="evenodd" clip-rule="evenodd" d="M93.9984 48.9536C96.5389 48.9536 98.5984 51.0131 98.5984 53.5536V75.5536C98.5984 78.0941 96.5389 80.1536 93.9984 80.1536H45.9984C43.4579 80.1536 41.3984 78.0941 41.3984 75.5536V53.5536C41.3984 51.0131 43.4579 48.9536 45.9984 48.9536H93.9984ZM93.9984 50.1536H45.9984C44.1207 50.1536 42.5984 51.6758 42.5984 53.5536V75.5536C42.5984 77.4314 44.1207 78.9536 45.9984 78.9536H93.9984C95.8762 78.9536 97.3984 77.4314 97.3984 75.5536V53.5536C97.3984 51.6758 95.8762 50.1536 93.9984 50.1536Z" fill="#1B127D"/>
<path d="M34.998 55.8828V57.0828H25.998V55.8828H34.998Z" fill="#1B127D"/>
<path fill-rule="evenodd" clip-rule="evenodd" d="M34.5984 52.0535V45.8535H25.3984V52.0535H34.5984ZM26.5977 47.0566H33.3977V50.8566H26.5977V47.0566Z" fill="#ED26B7"/>
<path fill-rule="evenodd" clip-rule="evenodd" d="M56.5984 65.0535V58.8535H47.3984V65.0535H56.5984ZM48.5977 60.0566H55.3977V63.8566H48.5977V60.0566Z" fill="#ED26B7"/>
</svg>
