<svg width="114" height="115" viewBox="0 0 114 115" fill="none" xmlns="http://www.w3.org/2000/svg">
<path d="M49.0994 30.855H36.8994V39.455H38.0994V32.055H47.8994V39.3611H49.0994V30.855Z" fill="#ED26B7"/>
<path d="M49.0994 84.0551V61.4551H47.8994V82.8551H38.0994V61.5551H36.8994V84.0551H49.0994Z" fill="#ED26B7"/>
<path d="M77.0994 59.4551V30.8551H64.8994V59.3551H66.0994V32.0551H75.8994V59.4551H77.0994Z" fill="#ED26B7"/>
<path d="M77.0994 84.0552H64.8994V78.4552H66.0994V82.8552H75.8994V78.5138H77.0994V84.0552Z" fill="#ED26B7"/>
<path fill-rule="evenodd" clip-rule="evenodd" d="M93 37.2051C88.7198 37.2051 85.25 40.6749 85.25 44.9551C85.25 46.9781 86.0252 48.8201 87.2947 50.2003L75.8842 62.9375C74.5513 61.8543 72.8515 61.2051 71 61.2051C68.7506 61.2051 66.725 62.1634 65.3092 63.6941L49.7461 52.7726C50.3851 51.6458 50.75 50.343 50.75 48.9551C50.75 44.6749 47.2802 41.2051 43 41.2051C38.7198 41.2051 35.25 44.6749 35.25 48.9551C35.25 51.0569 36.0867 52.9633 37.4451 54.3593L25.4108 68.5818C24.1588 67.7137 22.6388 67.2051 21 67.2051C16.7198 67.2051 13.25 70.6749 13.25 74.9551C13.25 79.2353 16.7198 82.7051 21 82.7051C25.2802 82.7051 28.75 79.2353 28.75 74.9551C28.75 72.8535 27.9135 70.9473 26.5553 69.5513L38.5898 55.3287C39.8416 56.1966 41.3614 56.7051 43 56.7051C45.3536 56.7051 47.4622 55.6559 48.8835 53.9998L64.4009 64.8892C63.6711 66.0711 63.25 67.4639 63.25 68.9551C63.25 73.2353 66.7198 76.7051 71 76.7051C75.2802 76.7051 78.75 73.2353 78.75 68.9551C78.75 67.0671 78.0749 65.3369 76.953 63.9925L88.4116 51.2015C89.6962 52.1466 91.2829 52.7051 93 52.7051C97.2802 52.7051 100.75 49.2353 100.75 44.9551C100.75 40.6749 97.2802 37.2051 93 37.2051ZM86.75 44.9551C86.75 41.5033 89.5482 38.7051 93 38.7051C96.4518 38.7051 99.25 41.5033 99.25 44.9551C99.25 48.4069 96.4518 51.2051 93 51.2051C89.5482 51.2051 86.75 48.4069 86.75 44.9551ZM36.75 48.9551C36.75 45.5033 39.5482 42.7051 43 42.7051C46.4518 42.7051 49.25 45.5033 49.25 48.9551C49.25 52.4069 46.4518 55.2051 43 55.2051C39.5482 55.2051 36.75 52.4069 36.75 48.9551ZM21 68.7051C17.5482 68.7051 14.75 71.5033 14.75 74.9551C14.75 78.4069 17.5482 81.2051 21 81.2051C24.4518 81.2051 27.25 78.4069 27.25 74.9551C27.25 71.5033 24.4518 68.7051 21 68.7051ZM71 62.7051C67.5482 62.7051 64.75 65.5033 64.75 68.9551C64.75 72.4069 67.5482 75.2051 71 75.2051C74.4518 75.2051 77.25 72.4069 77.25 68.9551C77.25 65.5033 74.4518 62.7051 71 62.7051Z" fill="#1B127D"/>
</svg>
