<svg width="114" height="115" viewBox="0 0 114 115" fill="none" xmlns="http://www.w3.org/2000/svg">
<path fill-rule="evenodd" clip-rule="evenodd" d="M44.2733 38.8262C47.319 33.6577 51.6204 30.3052 56.5006 30.3052C61.3808 30.3052 65.6821 33.6577 68.7278 38.8262C71.7823 44.0095 73.6506 51.1277 73.6506 58.9552H72.3506C72.3506 51.3187 70.5252 44.4369 67.6078 39.4862C64.6817 34.5207 60.7331 31.6052 56.5006 31.6052C52.2681 31.6052 48.3194 34.5207 45.3933 39.4862C42.476 44.4369 40.6506 51.3187 40.6506 58.9552H39.3506C39.3506 51.1277 41.2189 44.0095 44.2733 38.8262Z" fill="#ED26B7"/>
<path fill-rule="evenodd" clip-rule="evenodd" d="M57.1506 28.9552C57.1506 28.5962 56.8596 28.3052 56.5006 28.3052C56.1416 28.3052 55.8506 28.5962 55.8506 28.9552V30.3122C40.062 30.6518 27.3506 43.3352 27.3506 58.9552C27.3507 59.3141 27.6417 59.605 28.0006 59.605H56.3506V81.9552C56.3506 83.8053 54.8507 85.3052 53.0006 85.3052C51.1504 85.3052 49.6506 83.8053 49.6506 81.9552C49.6506 81.5962 49.3596 81.3052 49.0006 81.3052C48.6416 81.3052 48.3506 81.5962 48.3506 81.9552C48.3506 84.5233 50.4325 86.6052 53.0006 86.6052C55.5687 86.6052 57.6506 84.5233 57.6506 81.9552V59.605H85.0006C85.3596 59.605 85.6506 59.314 85.6506 58.9549C85.6505 43.3351 72.9391 30.6518 57.1506 30.3122V28.9552ZM56.5 31.6052C41.3299 31.6055 29.0099 43.5108 28.6583 58.305H84.3429C83.9912 43.5106 71.6704 31.6052 56.5 31.6052C56.5002 31.6052 56.4998 31.6052 56.5 31.6052Z" fill="#1B127D"/>
</svg>
