<svg width="114" height="115" viewBox="0 0 114 115" fill="none" xmlns="http://www.w3.org/2000/svg">
<path fill-rule="evenodd" clip-rule="evenodd" d="M56.5006 34.6047C54.9266 34.6047 53.6506 35.8807 53.6506 37.4547C53.6506 39.0287 54.9266 40.3047 56.5006 40.3047C58.0746 40.3047 59.3506 39.0287 59.3506 37.4547C59.3506 35.8807 58.0746 34.6047 56.5006 34.6047ZM52.3506 37.4547C52.3506 35.1627 54.2086 33.3047 56.5006 33.3047C58.7926 33.3047 60.6506 35.1627 60.6506 37.4547C60.6506 39.7467 58.7926 41.6047 56.5006 41.6047C54.2086 41.6047 52.3506 39.7467 52.3506 37.4547Z" fill="#ED26B7"/>
<path fill-rule="evenodd" clip-rule="evenodd" d="M83.3673 34.4121L56.5006 28.2881L29.6339 34.4121C28.8832 34.5832 28.3506 35.2508 28.3506 36.0208V43.9548C28.3506 44.866 29.0893 45.6048 30.0006 45.6048H32.8506V78.3047H30.0006C29.0893 78.3047 28.3506 79.0434 28.3506 79.9547V85.9547C28.3506 86.866 29.0893 87.6047 30.0006 87.6047H83.0006C83.9119 87.6047 84.6506 86.866 84.6506 85.9547V79.9547C84.6506 79.0434 83.9119 78.3047 83.0006 78.3047H80.1506V45.6048H83.0006C83.9119 45.6048 84.6506 44.866 84.6506 43.9548V36.0208C84.6506 35.2508 84.118 34.5832 83.3673 34.4121ZM78.8506 45.6048H73.1506V78.3047H78.8506V45.6048ZM71.8506 45.6048H61.1506V78.3047H71.8506V45.6048ZM59.8506 45.6048H54.1506V78.3047H59.8506V45.6048ZM52.8506 45.6048H41.1506V78.3047H52.8506V45.6048ZM39.8506 45.6048H34.1506V78.3047H39.8506V45.6048ZM29.9228 35.6796L56.5006 29.6214L83.0784 35.6796C83.2376 35.7159 83.3506 35.8575 83.3506 36.0208V43.9548C83.3506 44.1481 83.1939 44.3048 83.0006 44.3048H30.0006C29.8073 44.3048 29.6506 44.1481 29.6506 43.9548V36.0208C29.6506 35.8575 29.7636 35.7159 29.9228 35.6796ZM29.6506 79.9547C29.6506 79.7614 29.8073 79.6047 30.0006 79.6047H83.0006C83.1939 79.6047 83.3506 79.7614 83.3506 79.9547V85.9547C83.3506 86.148 83.1939 86.3047 83.0006 86.3047H30.0006C29.8073 86.3047 29.6506 86.148 29.6506 85.9547V79.9547Z" fill="#1B127D"/>
</svg>
