<svg xmlns="http://www.w3.org/2000/svg" width="12" height="13" viewBox="0 0 12 13">
  <path fill="#14B2E2" d="M335.833597,422.162953 L339.156236,418.840313 L342.478875,422.162953 C342.886585,422.570695 343.547987,422.570695 343.95573,422.162953 L344.694173,421.424509 C345.101916,421.016767 345.101916,420.355721 344.694173,419.947654 L341.371534,416.625015 L344.694173,413.302376 C345.101916,412.894666 345.101916,412.233588 344.694173,411.825521 L343.95573,411.087078 C343.547987,410.679335 342.886942,410.679335 342.478875,411.087078 L339.156236,414.409717 L335.833597,411.087078 C335.425887,410.679335 334.764809,410.679335 334.356742,411.087078 L333.618299,411.825521 C333.210556,412.233264 333.210556,412.894309 333.618299,413.302376 L336.940938,416.625015 L333.618299,419.947654 C333.210556,420.355364 333.210556,421.016442 333.618299,421.424509 L334.356742,422.162953 C334.764485,422.570695 335.425887,422.570695 335.833597,422.162953 Z" opacity="1" transform="translate(-333 -410)"/>
</svg>
