<?xml version="1.0" encoding="UTF-8"?>
<svg width="95px" height="95px" viewBox="0 0 95 95" version="1.1" xmlns="http://www.w3.org/2000/svg" xmlns:xlink="http://www.w3.org/1999/xlink">
    <title>Artboard</title>
    <defs>
        <linearGradient x1="12.0766175%" y1="0%" x2="87.9233825%" y2="100%" id="linearGradient-1">
            <stop stop-color="#1B127D" offset="0%"></stop>
            <stop stop-color="#1B127D" offset="0%"></stop>
        </linearGradient>
    </defs>
    <g id="Artboard" stroke="none" stroke-width="1" fill="none" fill-rule="evenodd">
        <path d="M47.392,-2.84217094e-14 C61.077,-2.84217094e-14 72.958,11.05 72.958,24.681 L72.958,24.681 L72.958,30.8 L78.601,30.8 C82.45,30.8 85.601,33.937 85.602,37.772 L85.602,37.772 L85.602,79.838 C85.602,83.672 82.452,86.809 78.602,86.809 L78.602,86.809 L17,86.809 C13.15,86.809 10,83.672 10,79.838 L10,79.838 L10,37.773 C10,33.938 13.15,30.8 17,30.8 L17,30.8 L22.611,30.8 L22.611,24.681 C22.615,11.05 33.707,-2.84217094e-14 47.392,-2.84217094e-14 Z M78.601,32.753 L16.999,32.753 C14.22,32.753 11.96,35.004 11.96,37.772 L11.96,37.772 L11.96,79.838 C11.96,82.604 14.22,84.856 16.999,84.856 L16.999,84.856 L78.601,84.856 C81.38,84.856 83.64,82.604 83.64,79.838 L83.64,79.838 L83.64,37.772 C83.64,35.004 81.38,32.753 78.601,32.753 L78.601,32.753 Z M47.8,48.943 C51.667,48.943 54.8,52.062 54.8,55.914 C54.8,59.429 52.177,62.308 48.78,62.787 L48.78,62.787 L48.78,70.51 C48.78,71.047 48.341,71.485 47.8,71.485 C47.259,71.485 46.82,71.047 46.82,70.51 L46.82,70.51 L46.82,62.787 C43.423,62.309 40.8,59.43 40.8,55.914 C40.8,52.062 43.933,48.943 47.8,48.943 Z M47.8,50.893 C45.021,50.893 42.761,53.145 42.761,55.913 C42.761,58.681 45.021,60.933 47.8,60.933 C50.579,60.933 52.839,58.681 52.839,55.913 C52.839,53.145 50.579,50.893 47.8,50.893 Z M47.392,1.952 C41.087,1.952 35.388,4.495 31.257,8.607 C27.124,12.725 24.571,18.399 24.571,24.68 L24.571,24.68 L24.571,30.799 L71,30.799 L71,24.68 C71,18.399 68.447,12.725 64.314,8.607 C60.183,4.495 53.695,1.952 47.392,1.952 Z" id="Combined-Shape" fill="url(#linearGradient-1)"></path>
    </g>
</svg>