<?xml version="1.0" encoding="UTF-8"?>
<svg width="95px" height="95px" viewBox="0 0 95 95" version="1.1" xmlns="http://www.w3.org/2000/svg" xmlns:xlink="http://www.w3.org/1999/xlink">
    <title>Artboard</title>
    <defs>
        <linearGradient x1="5.96449704%" y1="0%" x2="94.035503%" y2="100%" id="linearGradient-1">
            <stop stop-color="#1B127D" offset="0%"></stop>
            <stop stop-color="#1B127D" offset="0%"></stop>
        </linearGradient>
    </defs>
    <g id="Artboard" stroke="none" stroke-width="1" fill="none" fill-rule="evenodd">
        <path d="M47.7579376,0 L47.757,0.001 L48.1571995,0.00409144739 C56.9031865,0.143066437 65.0614847,3.81563566 71.2270934,9.97446445 C77.0775255,15.8184633 80.5771385,23.4048579 80.6647989,30.5355702 L80.6664858,30.8095991 L80.6666622,38.2913807 C86.0476842,38.7907799 90.4,43.0797366 90.4,47.4350211 L90.4,58.8161411 L90.3404393,58.9837343 C88.5435912,64.0397483 85.1700907,66.7703644 80.3635425,67.021456 C78.7686437,77.761333 70.8725012,84.6931749 56.0996405,87.1016638 L56.1009498,87.1987342 C56.1009498,89.2325097 54.4942689,90.893244 52.4738456,90.9950538 L52.2770692,91 L42.543555,91 C40.431684,91 38.7196744,89.2981153 38.7196744,87.1987342 C38.7196744,85.1649587 40.3263553,83.5042243 42.3467786,83.4024145 L42.543555,83.3974684 L52.2770692,83.3974684 C53.6094163,83.3974684 54.7826125,84.0748449 55.4671746,85.1020637 C71.1919439,82.6261718 78.4323265,75.0920236 78.5784731,63.1095392 L78.5807327,62.7374743 L78.5806744,33.405 L72.2807271,33.4050633 L72.211131,32.4426911 C71.5988383,23.975933 68.1087482,17.7059092 62.5023133,13.5576709 C58.1334766,10.3251397 52.6298551,8.58903143 47.9084627,8.52583967 L47.7,8.524 L47.4915373,8.52583967 C42.9224479,8.58699298 37.6207818,10.2148735 33.3239555,13.2495226 L32.8976867,13.5576709 C27.2912518,17.7059092 23.8011617,23.975933 23.188869,32.4426911 L23.188869,32.4426911 L23.1192729,33.4050633 L16.8199376,33.405 L16.8192673,67.0405063 L15.7763908,67.0405063 C10.5750238,67.0405063 6.94724595,64.295348 5.05956066,58.9837343 L5.05956066,58.9837343 L5,58.8161411 L5,47.4350211 C5,43.0797366 9.35231582,38.7907799 14.7333378,38.2913807 L14.7333378,38.2913807 L14.7335142,30.8095991 L14.7352011,30.5355702 C14.8228615,23.4048579 18.3224745,15.8184633 24.1729066,9.97446445 C30.4594096,3.69487432 38.8175129,0 47.7579376,0 L47.642,0.001 L47.6420624,0 L47.7579376,0 Z M52.2770692,85.4708861 L42.543555,85.4708861 C41.5836136,85.4708861 40.8054274,86.24447 40.8054274,87.1987342 C40.8054274,88.1027739 41.5038549,88.8446519 42.3935827,88.92024 L42.543555,88.9265823 L52.2770692,88.9265823 C53.2370105,88.9265823 54.0151967,88.1529983 54.0151967,87.1987342 C54.0151967,86.24447 53.2370105,85.4708861 52.2770692,85.4708861 Z M80.6664858,40.3758937 L80.6664858,64.9210127 L80.7574547,64.913274 C84.2978947,64.5660358 86.749297,62.5342071 88.2246608,58.696509 L88.3142469,58.4579392 L88.3142469,47.4350211 C88.3142469,44.259022 84.965601,40.9048077 80.7487986,40.3856097 L80.6664858,40.3758937 Z M14.7335142,40.3758937 L14.6512014,40.3856097 C10.434399,40.9048077 7.08575305,44.259022 7.08575305,47.4350211 L7.08575305,47.4350211 L7.08575305,58.4579392 L7.17533917,58.696509 C8.65070302,62.5342071 11.1021053,64.5660358 14.6425453,64.913274 L14.6425453,64.913274 L14.7335142,64.9210127 L14.7335142,40.3758937 Z M47.7,2.073 L47.4557846,2.07492394 C39.2034097,2.15721472 31.4873783,5.60740071 25.6513153,11.4370462 C20.0984458,16.9838096 16.8192673,24.1752142 16.8192673,30.8095991 L16.8192673,30.8095991 L16.8199376,31.331 L21.1910057,31.3316456 L21.2203231,31.0428475 C22.1226895,22.593046 25.8449481,16.1913299 31.6523378,11.8944039 C36.4749356,8.32613184 42.5422412,6.45063291 47.7579376,6.45063291 L47.642,6.451 L47.6420624,6.45063291 L47.7,6.451 L47.7579376,6.45063291 L47.757,6.451 L48.1185043,6.45579449 C53.2243313,6.56585394 59.0712037,8.43426129 63.7476622,11.8944039 C69.5550519,16.1913299 73.2773105,22.593046 74.1796769,31.0428475 L74.2089943,31.3316456 L78.5806744,31.331 L78.5807327,30.8095991 C78.5807327,24.1752142 75.3015542,16.9838096 69.7486847,11.4370462 C63.9126217,5.60740071 56.1965903,2.15721472 47.9442154,2.07492394 L47.7,2.073 Z" id="Combined-Shape" fill="url(#linearGradient-1)"></path>
    </g>
</svg>