<?xml version="1.0" encoding="utf-8"?>
<!-- Generator: Adobe Illustrator 25.2.0, SVG Export Plug-In . SVG Version: 6.00 Build 0)  -->
<svg version="1.1" id="Vrstva_1" xmlns="http://www.w3.org/2000/svg" xmlns:xlink="http://www.w3.org/1999/xlink" x="0px" y="0px"
	 viewBox="0 0 119.1 34.9" style="enable-background:new 0 0 119.1 34.9;" xml:space="preserve">
<style type="text/css">
	.st0{opacity:0.7;}
	.st1{fill:#FFFFFF;}
</style>
<g id="symbols" class="st0">
	<g id="logos-FinTech" transform="translate(-896.000000, 2.000000)">
		<g id="Group-7" transform="translate(0.862622, -6.000000)">
			<g id="reggora-logo-white" transform="translate(896.000000, 4.000000)">
				<g id="Group" transform="translate(67.851000, 16.632000)">
					<path id="Shape" class="st1" d="M-27.5,7.3V-7.5h5.5c1,0,1.9,0.2,2.7,0.5c0.8,0.4,1.4,0.9,1.8,1.6S-17-3.9-17-2.9
						c0,0.7-0.1,1.4-0.4,2c-0.2,0.6-0.6,1.1-1,1.5s-1,0.7-1.7,1l4.8,5.8h-4.4L-23.8,2h-0.3v5.3L-27.5,7.3L-27.5,7.3z M-24.1-0.9h0.9
						c0.5,0,1-0.1,1.4-0.2c0.4-0.2,0.7-0.4,0.9-0.7c0.2-0.3,0.3-0.6,0.3-1c0-0.6-0.2-1.1-0.7-1.4s-1.1-0.5-1.9-0.5h-0.9L-24.1-0.9
						L-24.1-0.9z"/>
					<path id="Shape_1_" class="st1" d="M-10.7,7.6c-1,0-1.9-0.2-2.7-0.6c-0.8-0.4-1.4-1-1.9-1.7C-15.8,4.5-16,3.6-16,2.7
						c0-0.7,0.1-1.3,0.4-1.9c0.3-0.6,0.6-1.1,1.1-1.5c0.5-0.4,1-0.8,1.7-1c0.6-0.2,1.3-0.4,2.1-0.4c1,0,1.8,0.2,2.5,0.6
						c0.7,0.4,1.3,1,1.7,1.7C-6.2,0.8-6,1.6-6,2.5c0,0.1,0,0.2,0,0.2S-6,3-6,3.2h-6.6c0,0.4,0.1,0.7,0.3,1c0.2,0.3,0.4,0.5,0.7,0.6
						c0.3,0.2,0.7,0.2,1.1,0.2c0.4,0,0.7-0.1,1-0.2c0.3-0.2,0.6-0.4,1-0.8l2.4,1.2C-6.6,5.9-7.2,6.5-8,7C-8.8,7.4-9.7,7.6-10.7,7.6z
						 M-12.5,1.5h3.3c0-0.3-0.1-0.5-0.3-0.8C-9.6,0.5-9.8,0.4-10,0.3s-0.5-0.2-0.8-0.2c-0.3,0-0.6,0.1-0.9,0.2
						c-0.2,0.1-0.4,0.3-0.6,0.5C-12.4,1-12.5,1.2-12.5,1.5z"/>
					<path id="Shape_2_" class="st1" d="M0.2,12.2c-1.3,0-2.3-0.2-3.2-0.7c-0.9-0.5-1.5-1.1-1.9-2l2.7-1.3c0.2,0.3,0.6,0.6,1,0.8
						c0.4,0.2,0.9,0.3,1.4,0.3c0.5,0,0.9-0.1,1.2-0.3c0.3-0.2,0.6-0.4,0.8-0.8c0.2-0.3,0.3-0.7,0.3-1.1v-1C2,6.7,1.5,7,1,7.3
						C0.5,7.5-0.1,7.6-0.6,7.6c-0.8,0-1.6-0.2-2.3-0.6c-0.7-0.4-1.2-1-1.6-1.7c-0.4-0.7-0.6-1.6-0.6-2.5c0-0.9,0.2-1.8,0.6-2.5
						s0.9-1.3,1.6-1.7C-2.2-2-1.4-2.2-0.5-2.2c0.6,0,1.1,0.1,1.6,0.3C1.6-1.7,2-1.4,2.4-1.1v-0.8h3.3v9.4c0,0.9-0.2,1.6-0.6,2.4
						c-0.4,0.7-1,1.3-1.8,1.7C2.5,12,1.4,12.2,0.2,12.2z M0.4,4.8c0.4,0,0.8-0.1,1.1-0.3S2,4.1,2.2,3.8c0.2-0.3,0.3-0.7,0.3-1.1
						c0-0.4-0.1-0.8-0.3-1.1C2,1.3,1.8,1.1,1.5,0.9C1.1,0.7,0.8,0.6,0.4,0.6s-0.8,0.1-1.1,0.3C-1,1.1-1.2,1.3-1.4,1.6
						c-0.2,0.3-0.3,0.7-0.3,1.1c0,0.4,0.1,0.7,0.3,1.1C-1.2,4.1-1,4.4-0.7,4.5C-0.4,4.7,0,4.8,0.4,4.8z"/>
					<path id="Shape_3_" class="st1" d="M12.5,12.2c-1.3,0-2.3-0.2-3.2-0.7s-1.5-1.1-1.9-2l2.7-1.3c0.2,0.3,0.6,0.6,1,0.8
						c0.4,0.2,0.9,0.3,1.4,0.3c0.5,0,0.9-0.1,1.2-0.3c0.3-0.2,0.6-0.4,0.8-0.8s0.3-0.7,0.3-1.1v-1c-0.4,0.4-0.9,0.7-1.4,0.9
						s-1.1,0.3-1.6,0.3c-0.8,0-1.6-0.2-2.3-0.6S8.3,6,7.9,5.2C7.5,4.5,7.2,3.6,7.2,2.7c0-0.9,0.2-1.8,0.6-2.5s0.9-1.3,1.6-1.7
						C10.2-2,11-2.2,11.8-2.2c0.6,0,1.1,0.1,1.6,0.3c0.5,0.2,0.9,0.5,1.3,0.8v-0.8h3.3v9.4c0,0.9-0.2,1.6-0.6,2.4s-1,1.3-1.8,1.7
						C14.9,12,13.8,12.2,12.5,12.2z M12.8,4.8c0.4,0,0.8-0.1,1.1-0.3c0.3-0.2,0.6-0.4,0.7-0.7c0.2-0.3,0.3-0.7,0.3-1.1
						c0-0.4-0.1-0.8-0.3-1.1c-0.2-0.3-0.4-0.6-0.7-0.8c-0.3-0.2-0.7-0.3-1.1-0.3S12,0.7,11.7,0.9c-0.3,0.2-0.6,0.4-0.7,0.8
						c-0.2,0.3-0.3,0.7-0.3,1.1c0,0.4,0.1,0.7,0.3,1.1c0.2,0.3,0.4,0.6,0.7,0.7C12,4.7,12.4,4.8,12.8,4.8z"/>
					<path id="Shape_4_" class="st1" d="M24.9,7.6c-1,0-2-0.2-2.8-0.6c-0.8-0.4-1.5-1-2-1.7c-0.5-0.7-0.7-1.6-0.7-2.5
						c0-1,0.2-1.8,0.7-2.5c0.5-0.7,1.1-1.3,2-1.7C23-2,23.9-2.2,24.9-2.2c1,0,2,0.2,2.8,0.6c0.8,0.4,1.5,1,2,1.7
						c0.5,0.7,0.7,1.6,0.7,2.5c0,1-0.2,1.8-0.7,2.5c-0.5,0.7-1.1,1.3-2,1.7S26,7.6,24.9,7.6z M24.9,4.8c0.4,0,0.7-0.1,1-0.3
						c0.3-0.2,0.6-0.4,0.7-0.7C26.9,3.5,27,3.1,27,2.7c0-0.4-0.1-0.8-0.3-1.1C26.5,1.3,26.3,1,26,0.9c-0.3-0.2-0.7-0.3-1-0.3
						c-0.4,0-0.7,0.1-1,0.3c-0.3,0.2-0.6,0.4-0.7,0.7c-0.2,0.3-0.3,0.7-0.3,1.1s0.1,0.8,0.3,1.1c0.2,0.3,0.4,0.6,0.7,0.7
						C24.2,4.7,24.5,4.8,24.9,4.8z"/>
					<path id="Path" class="st1" d="M31.8,7.3v-9.2h3.3v1.3c0.4-0.5,0.8-0.9,1.3-1.2c0.5-0.3,1-0.4,1.6-0.4c0.3,0,0.7,0.1,1.1,0.2
						c0.4,0.1,0.7,0.2,0.9,0.4l-1.4,2.8c-0.2-0.2-0.5-0.3-0.8-0.4c-0.3-0.1-0.6-0.1-0.8-0.1c-0.3,0-0.7,0.1-1,0.3
						c-0.3,0.2-0.5,0.4-0.7,0.7c-0.2,0.3-0.3,0.6-0.3,0.9v4.8L31.8,7.3L31.8,7.3z"/>
					<path id="Shape_5_" class="st1" d="M44.2,7.6c-0.8,0-1.6-0.2-2.3-0.6s-1.2-1-1.6-1.7c-0.4-0.7-0.6-1.6-0.6-2.5
						c0-0.9,0.2-1.7,0.6-2.5s0.9-1.3,1.6-1.7c0.7-0.4,1.5-0.6,2.4-0.6c0.6,0,1.1,0.1,1.7,0.3c0.5,0.2,1,0.5,1.3,0.8v-0.8h3.3v9.2
						h-3.3v-1c-0.4,0.4-0.9,0.7-1.4,0.9C45.3,7.5,44.7,7.6,44.2,7.6z M45.1,4.8c0.4,0,0.8-0.1,1.1-0.3s0.6-0.4,0.7-0.7
						c0.2-0.3,0.3-0.7,0.3-1.1S47.1,1.9,47,1.6c-0.2-0.3-0.4-0.6-0.7-0.7c-0.3-0.2-0.7-0.3-1.1-0.3c-0.4,0-0.7,0.1-1.1,0.3
						c-0.3,0.2-0.6,0.4-0.7,0.7c-0.2,0.3-0.3,0.7-0.3,1.1c0,0.4,0.1,0.8,0.3,1.1c0.2,0.3,0.4,0.6,0.7,0.8
						C44.4,4.7,44.8,4.8,45.1,4.8z"/>
				</g>
				<g id="Layer_1" transform="translate(26.649000, 7.465500)">
					<path id="Shape_6_" class="st1" d="M-10,27.4h-0.4l-0.4,0l-0.4,0l-0.4,0l-0.4,0l-0.4,0l-0.4,0l-0.4-0.1l-0.4-0.1l-0.3-0.1
						L-14,27l-0.4-0.1l-0.3-0.1l-0.4-0.1l-0.3-0.1l-0.3-0.1l-0.4-0.1l-0.3-0.1l-0.3-0.1l-0.3-0.1l-0.3-0.2l-0.3-0.2l-0.3-0.2
						l-0.3-0.2l-0.3-0.2l-0.3-0.2l-0.3-0.2l-0.3-0.2l-0.3-0.2l-0.6-0.4l-0.3-0.2l-0.3-0.2l-0.3-0.2l-0.5-0.5l-0.3-0.3l-0.5-0.5
						l-0.2-0.3l-0.2-0.3l-0.2-0.3l-0.5-0.6l-0.2-0.3l-0.2-0.3l-0.2-0.3l-0.2-0.3l-0.2-0.3l-0.2-0.3l-0.2-0.3l-0.2-0.3l-0.2-0.3
						l-0.2-0.3L-26,17l-0.2-0.3l-0.1-0.3l-0.1-0.3l-0.1-0.4l-0.1-0.3l-0.1-0.3l-0.1-0.3l-0.1-0.4l-0.2-0.7l-0.1-0.3l-0.1-0.4
						l-0.1-0.3l0-0.4l0-0.4l0-0.4l0-0.4l0-0.4l0-0.4V9.8l0-0.4l0-0.4l0-0.4l0-0.4l0-0.4l0-0.4l0.1-0.4l0.1-0.3l0.1-0.4l0.2-0.7
						l0.1-0.3l0.1-0.3l0.1-0.3l0.1-0.4l0.1-0.3l0.1-0.3l0.1-0.4L-26,3l0.2-0.3l0.2-0.3l0.2-0.3l0.2-0.3l0.2-0.3L-25,1l0.2-0.3
						l0.2-0.3l0.2-0.3l0.2-0.3l0.2-0.3l0.5-0.6l0.2-0.3l0.2-0.3l0.3-0.3l0.5-0.5l0.3-0.3l0.5-0.5l0.3-0.2l0.3-0.2l0.3-0.2l0.6-0.4
						l0.3-0.2l0.3-0.2l0.3-0.2l0.3-0.2l0.3-0.2l0.3-0.2l0.3-0.2l0.3-0.2l0.3-0.2l0.3-0.1l0.3-0.1l0.4-0.1l0.3-0.1l0.3-0.1l0.4-0.1
						l0.3-0.1l0.4-0.1L-14-7l0.3-0.1l0.4-0.1l0.3-0.1l0.4-0.1l0.3,0l0.4,0l0.4,0l0.4,0l0.4,0l0.4,0h0.4l0.7,0l0.4,0l0.4,0l0.4,0
						l0.4,0l0.4,0.1l0.4,0.1l0.4,0.1l0.4,0.1l0.7,0.2l0.4,0.1l0.3,0.1l0.4,0.1l0.3,0.1l0.3,0.1l0.3,0.1L-3.2-6l0.7,0.3l0.3,0.2
						l0.3,0.2l0.6,0.4l0.6,0.4l0.3,0.2L0-4.3L0.3-4l0.3,0.2l0.6,0.5l0.5,0.5L2-2.6l0.3,0.3l0.3,0.3l0.2,0.3L3-1.5l0.2,0.3L3.5-1
						l0.2,0.3l0.2,0.3l0.2,0.3l0.2,0.3l0.2,0.3l0.2,0.3l0.2,0.3l0.2,0.3l0.2,0.3l0.2,0.3l0.2,0.3l0.2,0.3l0.1,0.3l0.1,0.3l0.1,0.3
						l0.1,0.4l0.2,0.7l0.1,0.4l0.1,0.3l0.1,0.4l0.1,0.4L7,6.7L7.1,7l0.1,0.4l0,0.4l0,0.4l0,0.4l0,0.4l0,0.4l0,0.4V10v0.4l0,0.4
						l0,0.4l0,0.4l0,0.4l0,0.4l0,0.4l-0.1,0.4L7,13.3l-0.1,0.4L6.9,14l-0.1,0.4l-0.1,0.4l-0.1,0.3l-0.1,0.4l-0.1,0.3l-0.1,0.3
						l-0.1,0.4L6,16.8l-0.2,0.3l-0.2,0.3l-0.2,0.3l-0.2,0.3l-0.2,0.3L5,18.8l-0.2,0.3l-0.2,0.3l-0.2,0.3L4.2,20l-0.2,0.3l-0.2,0.3
						l-0.2,0.3l-0.2,0.3L3,21.5l-0.2,0.3L2.5,22l-0.3,0.3L2,22.5l-0.3,0.3l-0.6,0.5l-0.6,0.5L0.3,24L0,24.2l-0.3,0.2l-0.3,0.2
						L-1.2,25l-0.6,0.4l-0.3,0.2l-0.3,0.2L-3.2,26l-0.3,0.1l-0.3,0.1l-0.3,0.1l-0.4,0.1l-0.3,0.1l-0.4,0.1l-0.4,0.1L-6.3,27
						l-0.4,0.1l-0.3,0.1l-0.4,0.1l-0.4,0.1l-0.3,0l-0.4,0l-0.4,0l-0.4,0l-0.4,0L-10,27.4z M-11,26.4l0.3,0l0.3,0h0.3l0.3,0l0.3,0
						l0.3,0l0.3,0l0.3,0l0.3,0l0.3,0l0.3-0.1l0.3-0.1l0.3-0.1l0.7-0.2l0.3-0.1l0.3-0.1l0.3-0.1l0.3-0.1l0.3-0.1l0.3-0.1l0.3-0.1
						l0.6-0.3l0.3-0.2l0.3-0.2l0.6-0.3l0.6-0.4l0.3-0.2l0.3-0.2l0.3-0.2L0,23l0.5-0.4l0.5-0.5l0.3-0.2l0.3-0.2l0.2-0.2L2,21.1
						l0.2-0.3l0.2-0.3l0.2-0.3l0.2-0.3l0.2-0.3l0.2-0.3l0.2-0.3l0.2-0.3l0.2-0.3l0.2-0.3L4.3,18l0.2-0.3l0.2-0.3l0.2-0.3l0.1-0.3
						L5,16.5l0.1-0.3l0.1-0.3l0.1-0.3l0.1-0.3l0.1-0.3l0.1-0.3l0.1-0.3l0.1-0.3L6,13.5l0.1-0.3l0.1-0.3l0.1-0.3l0-0.3l0-0.3l0-0.3
						l0-0.3l0-0.3l0-0.3V10V9.7l0-0.3l0-0.3l0-0.3l0-0.3l0-0.3l0-0.3L6.1,7.2L6.1,6.9L6,6.6L5.9,6.2L5.8,5.9L5.7,5.5L5.6,5.2
						L5.4,4.5L5.3,4.2L5.2,3.9L5.1,3.6L4.9,3.3L4.8,2.9L4.6,2.6L4.5,2.3L4.3,2L4.1,1.7L3.9,1.4L3.7,1.1L3.6,0.8L3.4,0.5L3.1,0.3
						L2.9,0L2.7-0.3L2.5-0.6L2.3-0.8L2-1.1L1.8-1.4L1.6-1.6L1.3-1.9L1.1-2.1L0.5-2.6L0-3l-0.3-0.2l-0.3-0.2l-0.3-0.2l-0.3-0.2
						l-0.6-0.4l-0.6-0.3l-0.3-0.2L-3-4.8l-0.6-0.3l-0.3-0.1l-0.3-0.1l-0.3-0.1l-0.3-0.1l-0.3-0.1l-0.3-0.1l-0.3-0.1l-0.7-0.2
						l-0.3-0.1l-0.3-0.1l-0.3-0.1l-0.3,0l-0.3,0l-0.3,0l-0.3,0l-0.3,0l-0.3,0l-0.3,0h-0.3l-0.3,0l-0.3,0l-0.3,0l-0.3,0l-0.3,0
						l-0.3,0l-0.3,0.1l-0.3,0.1l-0.3,0.1l-0.3,0.1L-14.1-6l-0.3,0.1l-0.3,0.1l-0.3,0.1l-0.3,0.1l-0.3,0.1l-0.3,0.1l-0.3,0.1
						l-0.3,0.1l-0.3,0.1l-0.3,0.2l-0.3,0.2L-18-4.5l-0.3,0.2l-0.3,0.2l-0.3,0.2l-0.3,0.2l-0.3,0.2l-0.6,0.4l-0.3,0.2l-0.3,0.2
						l-0.3,0.2L-21.4-2l-0.2,0.2l-0.5,0.5L-22.4-1l-0.2,0.3l-0.2,0.3l-0.4,0.5l-0.2,0.3l-0.2,0.3l-0.2,0.3l-0.2,0.3l-0.2,0.3
						l-0.2,0.3l-0.2,0.3l-0.2,0.3l-0.2,0.3L-25,3.1l-0.1,0.3l-0.1,0.3L-25.5,4l-0.1,0.3l-0.1,0.3L-25.8,5l-0.1,0.3L-26,5.7L-26.1,6
						l-0.2,0.7L-26.3,7l-0.1,0.3l0,0.3l0,0.3l0,0.3l0,0.3l0,0.3l0,0.3l0,0.3v0.3l0,0.3l0,0.3l0,0.3l0,0.4l0,0.3l0,0.3l0,0.3l0.1,0.3
						l0.1,0.3l0.2,0.7l0.1,0.3l0.1,0.3l0.1,0.3l0.1,0.3l0.1,0.3l0.1,0.3l0.1,0.3l0.1,0.3l0.1,0.3l0.2,0.3l0.2,0.3l0.2,0.3l0.2,0.3
						l0.2,0.3l0.2,0.3l0.2,0.3l0.2,0.3l0.2,0.3l0.2,0.3l0.4,0.5l0.2,0.3l0.2,0.3l0.2,0.3l0.5,0.5l0.2,0.2l0.5,0.5l0.3,0.2l0.3,0.2
						l0.3,0.2l0.6,0.4l0.3,0.2l0.3,0.2l0.3,0.2l0.3,0.2l0.3,0.2l0.3,0.2l0.3,0.2l0.3,0.2l0.3,0.1l0.3,0.1l0.3,0.1l0.3,0.1l0.3,0.1
						l0.3,0.1l0.3,0.1l0.3,0.1l0.3,0.1l0.3,0.1l0.3,0.1l0.3,0.1l0.3,0.1l0.3,0.1l0.3,0l0.3,0l0.3,0L-11,26.4z"/>
					<path id="DOOR_OUTLINE_LEFT_-_WHITE" class="st1" d="M-22.5,4.4l6.8-3.7v16.9h-6.8V4.4L-22.5,4.4z M-20.5,5.5v10.1h2.7V3.9
						L-20.5,5.5L-20.5,5.5z"/>
					<path id="DOOR_OUTLINE_CENTER_-_WHITE" class="st1" d="M-12.2,1.4l2.2-1.3l2.2,1.3v14.1h-4.4L-12.2,1.4L-12.2,1.4z M-14.3,0
						v17.5h8.5V0L-10-2.2L-14.3,0L-14.3,0z"/>
					<path id="DOOR_OUTLINE_RIGHT_-_WHITE" class="st1" d="M-4.3,0.7l6.8,3.7v13.2h-6.8V0.7L-4.3,0.7z M-2.2,4.1v11.4h2.7V5.5
						L-2.2,4.1L-2.2,4.1z"/>
				</g>
			</g>
		</g>
	</g>
</g>
</svg>
