<?xml version="1.0" encoding="utf-8"?>
<!-- Generator: Adobe Illustrator 25.2.0, SVG Export Plug-In . SVG Version: 6.00 Build 0)  -->
<svg version="1.1" id="Vrstva_1" xmlns="http://www.w3.org/2000/svg" xmlns:xlink="http://www.w3.org/1999/xlink" x="0px" y="0px"
	 viewBox="0 0 91 43" style="enable-background:new 0 0 91 43;" xml:space="preserve">
<style type="text/css">
	.st0{opacity:0.7;}
	.st1{fill-rule:evenodd;clip-rule:evenodd;fill:#D8D8D8;fill-opacity:0;}
	.st2{filter:url(#Adobe_OpacityMaskFilter);}
	.st3{fill-rule:evenodd;clip-rule:evenodd;fill:#FFFFFF;}
	.st4{mask:url(#mask-2_1_);fill-rule:evenodd;clip-rule:evenodd;fill:#FFFFFF;}
</style>
<g id="symbols" class="st0">
	<g id="logos-FinTech" transform="translate(-285.000000, -2.000000)">
		<g id="Group-7" transform="translate(0.862622, -6.000000)">
			<g id="Group-7-Copy" transform="translate(285.137378, 8.000000)">
				<rect id="Rectangle" x="-1" class="st1" width="91" height="43"/>
				<g id="Group-3" transform="translate(8.000000, 9.000000)">
					<g id="Clip-2">
					</g>
					<defs>
						<filter id="Adobe_OpacityMaskFilter" filterUnits="userSpaceOnUse" x="-1" y="0" width="76" height="25">
							<feColorMatrix  type="matrix" values="1 0 0 0 0  0 1 0 0 0  0 0 1 0 0  0 0 0 1 0"/>
						</filter>
					</defs>
					<mask maskUnits="userSpaceOnUse" x="-1" y="0" width="76" height="25" id="mask-2_1_">
						<g class="st2">
							<polygon id="path-1_1_" class="st3" points="-1,0 75,0 75,25 -1,25 							"/>
						</g>
					</mask>
					<path id="Fill-1" class="st4" d="M36.6,0.4l-5.1,24.2h-6.1l5.1-24.2H36.6z M62.5,16.1L65.7,7l1.9,9.1H62.5z M69.3,24.6H75
						L70,0.4h-5.2c-1.2,0-2.2,0.7-2.6,1.8L53,24.6h6.4l1.3-3.6h7.9L69.3,24.6z M53.3,16.7c0-6.4-8.7-6.7-8.6-9.6
						c0-0.9,0.8-1.8,2.6-2c0.9-0.1,3.3-0.2,6.1,1.1l1.1-5.1C52.9,0.5,51,0,48.7,0c-6.1,0-10.3,3.3-10.4,8c0,3.5,3,5.4,5.4,6.6
						c2.4,1.2,3.2,1.9,3.2,3c0,1.6-1.9,2.3-3.7,2.4c-3.1,0-4.9-0.8-6.3-1.5l-1.1,5.3c1.4,0.7,4.1,1.3,6.8,1.3
						C49.1,25,53.3,21.8,53.3,16.7L53.3,16.7z M27.9,0.4l-9.9,24.2h-6.5L6.5,5.3C6.2,4.1,6,3.7,5.1,3.2C3.6,2.4,1.1,1.6-1,1.1
						l0.1-0.7H9.6c1.3,0,2.5,0.9,2.8,2.5l2.6,14l6.4-16.5H27.9z"/>
				</g>
			</g>
		</g>
	</g>
</g>
</svg>
