<svg width="105" height="49" viewBox="0 0 105 49" xmlns="http://www.w3.org/2000/svg" xmlns:xlink="http://www.w3.org/1999/xlink"><defs><path id="a" d="M0 0h87v28H0z"/></defs><g transform="translate(9 11)" fill="none" fill-rule="evenodd"><mask id="b" fill="#fff"><use xlink:href="#a"/></mask><path d="M43.078.495l-5.814 27.081h-7.03L36.05.496h7.029zm29.576 17.486l3.701-10.169 2.13 10.17h-5.83zm7.843 9.595H87L81.326.496h-6.002a3.202 3.202 0 00-2.993 1.986L61.784 27.576h7.381l1.467-4.044h9.019l.846 4.044zm-18.346-8.841c.03-7.148-9.92-7.542-9.85-10.735.02-.972.95-2.005 2.98-2.27 1.01-.13 3.783-.231 6.933 1.213l1.233-5.742C61.756.588 59.58 0 56.872 0c-6.948 0-11.84 3.681-11.88 8.953-.044 3.898 3.49 6.073 6.154 7.37 2.739 1.327 3.659 2.177 3.647 3.364-.018 1.818-2.185 2.619-4.206 2.65-3.535.056-5.586-.95-7.221-1.71l-1.274 5.934c1.642.752 4.674 1.405 7.819 1.439 7.384 0 12.216-3.637 12.24-9.265zM33.032.495L21.643 27.576h-7.432L8.607 5.964c-.34-1.332-.637-1.819-1.672-2.38C5.247 2.672 2.456 1.815 0 1.283L.168.495H12.13c1.524 0 2.896 1.011 3.241 2.761l2.96 15.672L25.648.495h7.385z" fill="#FFF" mask="url(#b)"/></g></svg>