<svg width="182" height="36" viewBox="0 0 182 36" fill="none" xmlns="http://www.w3.org/2000/svg">
<g clip-path="url(#clip0_1285_7239)">
<path fill-rule="evenodd" clip-rule="evenodd" d="M60.6546 29.8313H45.1701C44.6539 29.8303 44.2632 29.4376 44.2623 28.9187V27.0192C44.2511 26.5528 44.4003 26.3457 44.6852 25.9904L57.0108 11.5868H44.9341C44.417 11.5859 44.0263 11.1931 44.0254 10.6743V9.32823C44.0263 8.80939 44.417 8.41664 44.9341 8.4157H60.5758C61.0929 8.41664 61.4836 8.80939 61.4836 9.32823V11.2672C61.4916 11.6182 61.3699 11.9154 61.092 12.2275L48.7365 26.6602H60.6546C61.1708 26.6611 61.5615 27.0539 61.5624 27.5727V28.9178C61.5615 29.4376 61.1708 29.8303 60.6546 29.8313ZM91.1794 30.2273H91.1808C92.2909 30.2048 93.1106 29.9845 93.4323 29.6222C93.5456 29.4938 93.5988 29.3462 93.5843 29.1995C93.5769 29.0786 93.5769 29.0786 93.2719 27.6453L93.2654 27.6116C93.1997 27.2371 92.9325 27.067 92.7134 27.067L92.6835 27.0693C92.6835 27.0693 92.4052 27.0557 92.1305 27.0557H92.1282C91.3374 27.0304 90.6823 26.9151 90.6688 25.7523V1.42481C90.6679 1.01987 90.4254 0.602738 89.9582 0.592896L89.8202 0.593833L87.6586 1.14969C87.2903 1.18766 86.9065 1.45152 86.9233 1.94036V25.8315C86.9266 28.6614 88.4387 30.2217 91.177 30.2273H91.1794ZM134.886 29.8313H132.957C132.44 29.8303 132.051 29.4376 132.049 28.9187V14.2752C132.014 11.7982 131.277 11.1092 128.623 11.0727C125.622 11.0727 122.583 11.8282 121.582 12.1033V28.9178C121.581 29.4465 121.216 29.8303 120.713 29.8313H118.744C118.227 29.8303 117.836 29.4376 117.836 28.9187V12.4947C117.808 10.9742 117.949 9.92299 120.1 9.22277C122.16 8.5085 126.101 7.90249 128.705 7.90015C133.668 7.90671 135.788 9.70692 135.794 13.918V28.9178C135.793 29.4376 135.403 29.8303 134.886 29.8313ZM154.277 11.6716C153.556 11.4875 151.546 11.0324 149.281 11.0324C145.123 11.0713 143.377 12.2064 143.334 19.1434C143.383 26.7619 145.639 27.1734 149.318 27.2137L149.321 27.3735V27.2137C151.609 27.2137 153.574 26.7337 154.274 26.5406L154.277 11.6716ZM155.29 29.5463L155.061 29.6044C153.833 29.9175 152.152 30.3459 149.204 30.3459H149.198C141.074 30.3332 139.479 26.2149 139.471 19.1036C139.482 10.9485 142.053 7.9114 148.96 7.90015C151.398 7.90015 153.077 8.21745 154.282 8.50944L154.274 1.9413C154.265 1.65259 154.395 1.27483 155.072 1.14501L157.229 0.592896H157.347C157.843 0.605081 158.019 1.04893 158.02 1.42481V26.109C158.053 27.6664 157.871 29.004 155.29 29.5463ZM171.042 27.1743C165.718 27.1509 165.451 24.4034 165.414 19.1448C165.451 13.8557 165.718 11.0947 171.042 11.0727C176.367 11.0947 176.633 13.8557 176.67 19.1415C176.633 24.4034 176.366 27.1509 171.042 27.1743ZM171.042 7.90015C162.265 7.91233 161.521 13.7104 161.512 19.1434C161.521 24.5567 162.265 30.3332 171.042 30.3459C179.813 30.3332 180.561 24.5726 180.573 19.1425C180.565 13.4611 179.82 7.91233 171.042 7.90015ZM110.205 19.2578C109.326 19.2676 105.062 19.337 103.365 19.7016L103.231 19.7307C101.322 20.16 99.815 20.4979 99.7963 23.3391C99.7996 26.9118 102.521 27.2324 105.307 27.254L105.309 27.4138V27.254C107.054 27.254 108.7 27.0056 110.205 26.5135V19.2578ZM113.971 14.038V25.3966C114.008 28.2199 113.287 29.1222 110.459 29.7821C109.22 30.0403 107.323 30.3459 105.267 30.3459C102.238 30.3389 95.9352 30.3267 95.9328 23.4956C95.9129 18.1161 99.1277 17.181 103.014 16.5806C105.558 16.1705 108.147 16.1087 109.463 16.1087C109.819 16.1087 110.049 16.112 110.186 16.1143V14.1955C110.174 12.9141 110.166 12.138 108.975 11.6852C108.239 11.3731 107.144 11.2301 105.513 11.2301C102.825 11.2301 100.418 11.8352 98.8251 12.2364L98.2167 12.3798C98.1509 12.3962 98.081 12.4131 97.9896 12.4178H97.9887C97.7084 12.4178 97.4002 12.2509 97.2865 11.8788L97.2776 11.8441L96.9186 10.0167L96.9172 9.92205C96.9228 9.49133 97.2333 9.23871 97.5238 9.14591C98.8074 8.66504 102.201 7.90249 105.858 7.90015C108.53 7.90249 110.459 8.25119 111.757 8.96922C113.98 10.1498 113.974 12.3058 113.971 14.038ZM78.6994 26.5135C77.1943 27.0056 75.5479 27.254 73.8037 27.254V27.4138L73.8013 27.254C71.0159 27.2324 68.2938 26.9118 68.2906 23.3391C68.3083 20.4979 69.8167 20.16 71.7255 19.7307L71.8579 19.7016C73.5565 19.337 77.8205 19.2676 78.6994 19.2578V26.5135ZM80.2511 8.96922C78.9531 8.25119 77.0227 7.90249 74.351 7.90015C70.6956 7.90249 67.3002 8.66504 66.0166 9.14591C65.7261 9.23871 65.4161 9.49133 65.4114 9.92205V10.0167L65.7718 11.8441L65.7807 11.8788C65.8931 12.2509 66.2027 12.4178 66.4829 12.4178H66.4838C66.5738 12.4131 66.6451 12.3962 66.7109 12.3798L67.318 12.2364C68.9112 11.8352 71.3185 11.2301 74.006 11.2301C75.637 11.2301 76.7327 11.3731 77.468 11.6852C78.6602 12.138 78.6682 12.9141 78.6803 14.1955V16.1143C78.5437 16.112 78.3133 16.1087 77.9571 16.1087C76.6413 16.1087 74.0526 16.1705 71.5064 16.5806C67.622 17.181 64.4071 18.1161 64.427 23.4956C64.4281 30.3267 70.731 30.3389 73.7603 30.3459C75.817 30.3459 77.7137 30.0403 78.953 29.7821C81.7795 29.1222 82.5013 28.2199 82.4649 25.3966V14.038C82.4682 12.3058 82.4738 10.1498 80.2511 8.96922Z" fill="white"/>
<path fill-rule="evenodd" clip-rule="evenodd" d="M7.74579 35.8645C6.43326 35.8645 5.70356 35.5557 5.31424 35.3288C4.77477 35.0172 3.7793 34.2209 2.88688 31.8601C1.45639 28.0806 0.611986 23.465 0.574219 18.0405V18.0203C0.611986 12.5949 1.45639 7.98019 2.88688 4.19932C3.7793 1.83996 4.77477 1.04273 5.31424 0.731057C5.70356 0.503746 6.43233 0.196289 7.74486 0.196289C8.24562 0.196289 8.83171 0.241283 9.51572 0.351892C13.4883 0.998207 17.887 2.57017 22.579 5.25058L22.5967 5.25948C27.2509 8.00456 30.8052 11.0473 33.3482 14.1828C34.9344 16.1395 35.1223 17.4045 35.1223 18.0307C35.1223 18.6554 34.9344 19.9213 33.3482 21.8771C30.8052 25.0126 27.2509 28.0563 22.5967 30.8013L22.579 30.8117C17.887 33.4907 13.4883 35.0626 9.51572 35.7089C8.83171 35.82 8.24655 35.8645 7.74579 35.8645Z" fill="white"/>
</g>
<defs>
<clipPath id="clip0_1285_7239">
<rect width="181" height="36" fill="white" transform="translate(0.5)"/>
</clipPath>
</defs>
</svg>
