<svg width="512" height="376" viewBox="0 0 512 376" fill="none" xmlns="http://www.w3.org/2000/svg">
<g clip-path="url(#clip0_502_397)">
<path d="M144.3 264.828L261.829 196.64C266.902 193.697 270.024 188.276 270.024 182.412V118.945" stroke="#1B127D" stroke-width="0.498451" stroke-dasharray="4.11 2.94"/>
<line x1="283.732" y1="141.043" x2="283.732" y2="293.57" stroke="#1B127D" stroke-width="0.498451" stroke-dasharray="4.03 2.88"/>
<path d="M419.992 264.828L303.723 198.285C298.603 195.355 295.445 189.908 295.445 184.009V122.933" stroke="#1B127D" stroke-width="0.498451" stroke-dasharray="4.11 2.94"/>
<path d="M288.562 216.085L283.819 221.376L279.077 216.085" stroke="#1B127D" stroke-width="0.498451" stroke-linecap="round" stroke-linejoin="round"/>
<path d="M229.691 220.335L222.738 218.874L224.949 212.121" stroke="#1B127D" stroke-width="0.498451" stroke-linecap="round" stroke-linejoin="round"/>
<path d="M332.965 220.335L339.918 218.874L337.707 212.121" stroke="#1B127D" stroke-width="0.498451" stroke-linecap="round" stroke-linejoin="round"/>
<path opacity="0.49" d="M155.75 336.719L74.8771 290.054C73.51 289.266 72.4004 287.155 72.4004 285.327V221.119L153.275 267.783C154.642 268.572 155.75 270.683 155.75 272.511V336.719Z" fill="white"/>
<path d="M155.725 338.677L74.4616 291.728C73.0969 290.939 71.9893 288.83 71.9893 287V221.194M73.2361 219.049C73.5979 218.991 74.0158 219.066 74.4616 219.324L155.907 266.386C157.272 267.176 158.38 269.285 158.38 271.114V336.921C158.38 337.706 158.034 338.385 154.856 340.327" stroke="#1B127D" stroke-width="0.498451"/>
<path fill-rule="evenodd" clip-rule="evenodd" d="M153.143 340.203L71.6969 293.141C70.3323 292.351 69.2246 290.243 69.2246 288.413V222.607C69.2246 220.784 70.3323 219.947 71.6969 220.737L153.143 267.799C154.507 268.588 155.615 270.697 155.615 272.527V338.333C155.615 340.154 154.507 340.993 153.143 340.203Z" fill="#F2F4F6" stroke="#1B127D" stroke-width="0.498451"/>
<path d="M150.647 304.096V304.095V279.549C150.647 278.028 150.185 276.394 149.445 274.979C148.706 273.567 147.676 272.349 146.516 271.683C146.516 271.683 146.516 271.683 146.516 271.683L111.332 251.384C110.167 250.711 109.052 250.705 108.225 251.33C107.413 251.943 106.953 253.11 106.953 254.625V279.17C106.953 280.691 107.414 282.326 108.154 283.74C108.893 285.152 109.923 286.369 111.083 287.035L146.267 307.338C146.267 307.338 146.267 307.338 146.267 307.338C147.429 308.014 148.541 308.02 149.367 307.394C150.178 306.78 150.64 305.611 150.647 304.096Z" fill="white" stroke="#1B127D" stroke-width="0.498451"/>
<path opacity="0.81" d="M150.367 279.589L143.902 288.418L132.714 272.218L122.645 284.763L112.195 259.01L107.202 272.625V279.252C107.202 282.162 108.971 285.545 111.157 286.806L146.442 307.132C148.619 308.39 150.397 307.054 150.397 304.145L150.367 279.589Z" fill="#8104CA"/>
<path d="M99.4117 262.212L77.7908 249.347C75.7515 248.166 74.0977 244.996 74.0977 242.276V233.426C74.0977 230.707 75.7515 229.449 77.7908 230.629L99.4117 243.495C101.451 244.675 103.105 247.846 103.105 250.565V259.415C103.105 262.14 101.451 263.393 99.4117 262.212Z" fill="white" stroke="#1B127D" stroke-width="0.498451"/>
<path opacity="0.75" d="M78.1963 235.28L96.3604 245.691" stroke="#BFC9D1" stroke-width="0.498451" stroke-linecap="round"/>
<path opacity="0.75" d="M78.1963 239.268L96.3604 249.679" stroke="#BFC9D1" stroke-width="0.498451" stroke-linecap="round"/>
<path opacity="0.75" d="M78.1963 242.59L96.3604 253.001" stroke="#BFC9D1" stroke-width="0.498451" stroke-linecap="round"/>
<path opacity="0.75" d="M78.1963 246.134L96.3604 256.545" stroke="#BFC9D1" stroke-width="0.498451" stroke-linecap="round"/>
<path d="M123.017 316.323L109.774 308.629C108.11 307.661 106.76 305.066 106.76 302.833V294.535C106.76 292.301 108.11 291.274 109.774 292.241L123.017 299.934C124.683 300.902 126.031 303.497 126.031 305.73V314.03C126.031 316.263 124.683 317.29 123.017 316.323Z" fill="white" stroke="#1B127D" stroke-width="0.498451"/>
<path opacity="0.75" d="M113.626 308.491L111.411 307.254V302.067L113.626 303.305V308.491Z" fill="#BFC9D1"/>
<path opacity="0.75" d="M117.171 310.706L114.956 309.483V301.846L117.171 303.069V310.706Z" fill="#BFC9D1"/>
<path opacity="0.75" d="M120.937 312.7L118.722 311.478V300.295L120.937 301.517V312.7Z" fill="#BFC9D1"/>
<path d="M146.718 330.279L133.477 322.584C131.812 321.617 130.462 319.022 130.462 316.788V308.49C130.462 306.257 131.812 305.23 133.477 306.197L146.718 313.89C148.383 314.857 149.734 317.452 149.734 319.685V327.985C149.741 330.219 148.39 331.246 146.718 330.279Z" fill="white" stroke="#1B127D" stroke-width="0.498451"/>
<path opacity="0.75" d="M137.551 322.225L135.336 320.987V315.801L137.551 317.038V322.225Z" fill="#BFC9D1"/>
<path opacity="0.75" d="M141.095 324.44L138.88 323.217V315.579L141.095 316.802V324.44Z" fill="#BFC9D1"/>
<path opacity="0.75" d="M144.639 326.434L142.424 325.212V314.029L144.639 315.251V326.434Z" fill="#BFC9D1"/>
<path d="M98.3557 304.296L76.8423 291.859C74.7703 290.662 73.0898 287.448 73.0898 284.693V255.963C73.0898 253.195 74.7703 251.924 76.8423 253.119L98.3557 265.558C100.428 266.755 102.108 269.97 102.108 272.737V301.457C102.108 304.222 100.428 305.495 98.3557 304.296Z" fill="white" stroke="#1B127D" stroke-width="0.498451"/>
<path d="M93.6449 282.147C93.6449 286.587 90.9386 288.633 87.5991 286.709C84.2596 284.786 81.5533 279.621 81.5533 275.178L78.0127 273.138C78.0127 280.184 82.3051 288.371 87.5991 291.421C92.8931 294.472 97.1855 291.235 97.1855 284.187L93.6449 282.147Z" fill="#ED26B7"/>
<path d="M81.5533 275.27C81.5533 270.831 84.2618 268.783 87.5991 270.709C90.9365 272.634 93.6449 277.794 93.6449 282.239L97.1855 284.279C97.1855 277.232 92.8952 269.047 87.5991 265.995C82.303 262.943 78.0127 266.183 78.0127 273.23L81.5533 275.27Z" fill="#BFC9D1"/>
<path d="M87.5996 291.427C92.8936 294.462 97.186 291.242 97.186 284.234L93.6454 282.206C93.6454 286.62 90.9391 288.655 87.5996 286.742V291.427Z" fill="#ED26B7"/>
<ellipse cx="77.9772" cy="285.73" rx="1.03637" ry="1.81365" transform="rotate(-23.05 77.9772 285.73)" fill="#8104CA" stroke="#8104CA" stroke-width="0.498451"/>
<ellipse cx="79.9919" cy="261.763" rx="1.03637" ry="1.81365" transform="rotate(-23.05 79.9919 261.763)" fill="#8104CA" stroke="#8104CA" stroke-width="0.498451"/>
<ellipse cx="96.6315" cy="295.058" rx="1.03637" ry="1.81365" transform="rotate(-23.05 96.6315 295.058)" fill="#8104CA" stroke="#8104CA" stroke-width="0.498451"/>
<path fill-rule="evenodd" clip-rule="evenodd" d="M80.0859 262.256L83.4541 267.438L80.0859 262.256Z" fill="#8104CA"/>
<path d="M80.0859 262.256L83.4541 267.438" stroke="#8104CA" stroke-width="0.498451" stroke-linecap="round"/>
<path fill-rule="evenodd" clip-rule="evenodd" d="M96.4073 294.384L93.0391 288.425L96.4073 294.384Z" fill="#8104CA"/>
<path d="M96.4073 294.384L93.0391 288.425" stroke="#8104CA" stroke-width="0.498451" stroke-linecap="round"/>
<path fill-rule="evenodd" clip-rule="evenodd" d="M78.79 285.056L81.8991 282.206L78.79 285.056Z" fill="#8104CA"/>
<path d="M78.79 285.056L81.8991 282.206" stroke="#8104CA" stroke-width="0.498451" stroke-linecap="round"/>
<path opacity="0.49" d="M329.188 336.719L248.316 290.054C246.948 289.266 245.839 287.155 245.839 285.327V221.119L326.713 267.783C328.08 268.572 329.188 270.683 329.188 272.511V336.719Z" fill="white"/>
<path d="M329.164 338.677L247.9 291.728C246.535 290.939 245.428 288.83 245.428 287V221.194M246.675 219.049C247.036 218.991 247.454 219.066 247.9 219.324L329.346 266.386C330.71 267.176 331.818 269.285 331.818 271.114V336.921C331.818 337.706 331.472 338.385 328.294 340.327" stroke="#1B127D" stroke-width="0.498451"/>
<path fill-rule="evenodd" clip-rule="evenodd" d="M326.581 340.203L245.135 293.141C243.771 292.351 242.663 290.243 242.663 288.413V222.607C242.663 220.784 243.771 219.947 245.135 220.737L326.581 267.799C327.946 268.588 329.054 270.697 329.054 272.527V338.333C329.054 340.154 327.946 340.993 326.581 340.203Z" fill="#F2F4F6" stroke="#1B127D" stroke-width="0.498451"/>
<path d="M324.085 304.095V304.094V279.548C324.085 278.027 323.624 276.393 322.884 274.979C322.145 273.567 321.115 272.349 319.955 271.683C319.955 271.683 319.955 271.683 319.955 271.683L284.77 251.384C283.605 250.711 282.491 250.704 281.663 251.329C280.852 251.942 280.391 253.11 280.391 254.625V279.169C280.391 280.691 280.853 282.325 281.593 283.739C282.332 285.151 283.362 286.369 284.522 287.035L319.705 307.337C319.706 307.337 319.706 307.337 319.706 307.337C320.868 308.013 321.979 308.02 322.806 307.394C323.616 306.78 324.079 305.611 324.085 304.095Z" fill="white" stroke="#1B127D" stroke-width="0.498451"/>
<path opacity="0.81" d="M323.805 279.589L317.341 279.674L306.152 272.218L296.083 275.601L285.633 268.175L280.641 272.625V279.252C280.641 282.162 282.41 285.545 284.596 286.806L319.881 307.131C322.058 308.39 323.836 307.053 323.836 304.145L323.805 279.589Z" fill="#2637EF"/>
<path d="M272.851 262.213L251.23 249.347C249.191 248.167 247.537 244.996 247.537 242.277V233.427C247.537 230.707 249.191 229.449 251.23 230.629L272.851 243.495C274.89 244.675 276.544 247.846 276.544 250.565V259.416C276.544 262.14 274.89 263.393 272.851 262.213Z" fill="white" stroke="#1B127D" stroke-width="0.498451"/>
<path opacity="0.75" d="M251.635 235.28L269.799 245.691" stroke="#BFC9D1" stroke-width="0.498451" stroke-linecap="round"/>
<path opacity="0.75" d="M251.635 239.269L269.799 249.68" stroke="#BFC9D1" stroke-width="0.498451" stroke-linecap="round"/>
<path opacity="0.75" d="M251.635 242.591L269.799 253.002" stroke="#BFC9D1" stroke-width="0.498451" stroke-linecap="round"/>
<path opacity="0.75" d="M251.635 246.135L269.799 256.546" stroke="#BFC9D1" stroke-width="0.498451" stroke-linecap="round"/>
<path d="M296.454 316.323L283.212 308.629C281.547 307.661 280.197 305.066 280.197 302.833V294.535C280.197 292.301 281.547 291.274 283.212 292.241L296.454 299.934C298.121 300.902 299.469 303.497 299.469 305.73V314.03C299.469 316.263 298.121 317.29 296.454 316.323Z" fill="white" stroke="#1B127D" stroke-width="0.498451"/>
<path opacity="0.75" d="M287.064 308.491L284.849 307.254V302.067L287.064 303.305V308.491Z" fill="#BFC9D1"/>
<path opacity="0.75" d="M290.609 310.706L288.394 309.483V301.846L290.609 303.069V310.706Z" fill="#BFC9D1"/>
<path opacity="0.75" d="M294.375 312.7L292.16 311.478V300.295L294.375 301.517V312.7Z" fill="#BFC9D1"/>
<path d="M320.157 330.279L306.916 322.584C305.251 321.617 303.9 319.022 303.9 316.788V308.49C303.9 306.257 305.251 305.23 306.916 306.197L320.157 313.89C321.822 314.857 323.172 317.452 323.172 319.685V327.985C323.179 330.219 321.829 331.246 320.157 330.279Z" fill="white" stroke="#1B127D" stroke-width="0.498451"/>
<path opacity="0.75" d="M310.989 322.225L308.773 320.988V315.801L310.989 317.039V322.225Z" fill="#BFC9D1"/>
<path opacity="0.75" d="M314.533 324.44L312.318 323.217V315.579L314.533 316.802V324.44Z" fill="#BFC9D1"/>
<path opacity="0.75" d="M318.078 326.434L315.863 325.212V314.029L318.078 315.251V326.434Z" fill="#BFC9D1"/>
<path d="M271.793 304.296L250.28 291.859C248.208 290.662 246.527 287.448 246.527 284.693V255.963C246.527 253.195 248.208 251.924 250.28 253.119L271.793 265.558C273.865 266.755 275.546 269.97 275.546 272.737V301.457C275.546 304.222 273.865 305.495 271.793 304.296Z" fill="white" stroke="#1B127D" stroke-width="0.498451"/>
<path d="M267.082 282.147C267.082 286.587 264.376 288.633 261.037 286.709C257.697 284.786 254.991 279.621 254.991 275.178L251.45 273.138C251.45 280.184 255.743 288.371 261.037 291.421C266.331 294.472 270.623 291.235 270.623 284.187L267.082 282.147Z" fill="#ED26B7"/>
<path d="M254.991 275.27C254.991 270.831 257.699 268.783 261.037 270.709C264.374 272.634 267.082 277.794 267.082 282.239L270.623 284.279C270.623 277.232 266.333 269.047 261.037 265.995C255.74 262.943 251.45 266.183 251.45 273.23L254.991 275.27Z" fill="#BFC9D1"/>
<path d="M261.036 291.427C266.33 294.462 270.623 291.242 270.623 284.234L267.082 282.206C267.082 286.62 264.376 288.655 261.036 286.742V291.427Z" fill="#BFC9D1"/>
<ellipse cx="251.416" cy="285.73" rx="1.03637" ry="1.81365" transform="rotate(-23.05 251.416 285.73)" fill="#2637EF" stroke="#2637EF" stroke-width="0.498451"/>
<ellipse cx="253.429" cy="261.763" rx="1.03637" ry="1.81365" transform="rotate(-23.05 253.429 261.763)" fill="#2637EF" stroke="#2637EF" stroke-width="0.498451"/>
<ellipse cx="270.069" cy="295.058" rx="1.03637" ry="1.81365" transform="rotate(-23.05 270.069 295.058)" fill="#2637EF" stroke="#2637EF" stroke-width="0.498451"/>
<path fill-rule="evenodd" clip-rule="evenodd" d="M253.523 262.256L256.892 267.438L253.523 262.256Z" fill="#8104CA"/>
<path d="M253.523 262.256L256.892 267.438" stroke="#8104CA" stroke-width="0.498451" stroke-linecap="round"/>
<path fill-rule="evenodd" clip-rule="evenodd" d="M269.845 294.384L266.477 288.425L269.845 294.384Z" fill="#2637EF"/>
<path d="M269.845 294.384L266.477 288.425" stroke="#2637EF" stroke-width="0.498451" stroke-linecap="round"/>
<path fill-rule="evenodd" clip-rule="evenodd" d="M252.228 285.057L255.337 282.207L252.228 285.057Z" fill="#2637EF"/>
<path d="M252.228 285.057L255.337 282.207" stroke="#2637EF" stroke-width="0.498451" stroke-linecap="round"/>
<path opacity="0.49" d="M496.002 336.718L415.129 290.054C413.762 289.265 412.652 287.154 412.652 285.326V221.118L493.527 267.783C494.894 268.571 496.002 270.682 496.002 272.51V336.718Z" fill="white"/>
<path d="M495.978 338.676L414.715 291.728C413.35 290.938 412.242 288.829 412.242 287V221.193M413.489 219.048C413.851 218.99 414.269 219.066 414.715 219.324L496.16 266.385C497.525 267.175 498.633 269.284 498.633 271.114V336.92C498.633 337.706 498.287 338.384 495.109 340.326" stroke="#1B127D" stroke-width="0.498451"/>
<path fill-rule="evenodd" clip-rule="evenodd" d="M493.395 340.202L411.949 293.141C410.584 292.351 409.477 290.242 409.477 288.412V222.606C409.477 220.784 410.584 219.947 411.949 220.736L493.395 267.798C494.759 268.588 495.867 270.697 495.867 272.526V338.333C495.867 340.153 494.759 340.992 493.395 340.202Z" fill="#F2F4F6" stroke="#1B127D" stroke-width="0.498451"/>
<path d="M490.9 304.095V304.094V279.548C490.9 278.027 490.438 276.393 489.698 274.978C488.959 273.566 487.929 272.348 486.769 271.682C486.769 271.682 486.769 271.682 486.769 271.682L451.585 251.383C450.42 250.71 449.305 250.704 448.478 251.329C447.666 251.942 447.206 253.109 447.206 254.624V279.169C447.206 280.69 447.667 282.325 448.407 283.739C449.146 285.151 450.176 286.368 451.336 287.034L486.52 307.337C486.52 307.337 486.52 307.337 486.52 307.337C487.682 308.013 488.794 308.019 489.62 307.393C490.431 306.779 490.893 305.61 490.9 304.095Z" fill="white" stroke="#1B127D" stroke-width="0.498451"/>
<path opacity="0.81" d="M490.619 284.928L484.155 276.953L472.967 282.436L462.898 260.609L452.448 268.175L447.455 263.661V279.251C447.455 282.162 449.224 285.545 451.41 286.805L486.695 307.131C488.872 308.389 490.65 307.053 490.65 304.144L490.619 284.928Z" fill="#1B127D"/>
<path d="M439.664 262.212L418.043 249.347C416.003 248.166 414.35 244.996 414.35 242.276V233.426C414.35 230.707 416.003 229.449 418.043 230.629L439.664 243.495C441.703 244.675 443.357 247.846 443.357 250.565V259.415C443.357 262.14 441.703 263.393 439.664 262.212Z" fill="white" stroke="#1B127D" stroke-width="0.498451"/>
<path opacity="0.75" d="M418.449 235.28L436.613 245.691" stroke="#BFC9D1" stroke-width="0.498451" stroke-linecap="round"/>
<path opacity="0.75" d="M418.449 239.268L436.613 249.679" stroke="#BFC9D1" stroke-width="0.498451" stroke-linecap="round"/>
<path opacity="0.75" d="M418.449 242.59L436.613 253.001" stroke="#BFC9D1" stroke-width="0.498451" stroke-linecap="round"/>
<path opacity="0.75" d="M418.449 246.135L436.613 256.546" stroke="#BFC9D1" stroke-width="0.498451" stroke-linecap="round"/>
<path d="M463.267 316.322L450.024 308.628C448.36 307.661 447.01 305.066 447.01 302.832V294.534C447.01 292.301 448.36 291.274 450.024 292.241L463.267 299.934C464.933 300.901 466.281 303.496 466.281 305.729V314.029C466.281 316.262 464.933 317.29 463.267 316.322Z" fill="white" stroke="#1B127D" stroke-width="0.498451"/>
<path opacity="0.75" d="M453.875 308.491L451.66 307.253V302.067L453.875 303.304V308.491Z" fill="#BFC9D1"/>
<path opacity="0.75" d="M457.422 310.706L455.207 309.483V301.846L457.422 303.069V310.706Z" fill="#BFC9D1"/>
<path opacity="0.75" d="M461.188 312.699L458.973 311.477V300.294L461.188 301.516V312.699Z" fill="#BFC9D1"/>
<path d="M486.969 330.278L473.728 322.584C472.063 321.616 470.713 319.021 470.713 316.788V308.49C470.713 306.257 472.063 305.229 473.728 306.197L486.969 313.889C488.634 314.857 489.985 317.452 489.985 319.685V327.985C489.992 330.218 488.641 331.246 486.969 330.278Z" fill="white" stroke="#1B127D" stroke-width="0.498451"/>
<path opacity="0.75" d="M477.801 322.225L475.586 320.987V315.801L477.801 317.038V322.225Z" fill="#BFC9D1"/>
<path opacity="0.75" d="M481.346 324.44L479.131 323.217V315.579L481.346 316.802V324.44Z" fill="#BFC9D1"/>
<path opacity="0.75" d="M484.891 326.434L482.676 325.212V314.029L484.891 315.251V326.434Z" fill="#BFC9D1"/>
<path d="M438.606 304.296L417.092 291.859C415.02 290.662 413.34 287.447 413.34 284.692V255.962C413.34 253.195 415.02 251.924 417.092 253.119L438.606 265.557C440.678 266.755 442.358 269.969 442.358 272.737V301.456C442.358 304.221 440.678 305.495 438.606 304.296Z" fill="white" stroke="#1B127D" stroke-width="0.498451"/>
<path d="M433.894 282.147C433.894 286.587 431.188 288.633 427.848 286.709C424.509 284.786 421.802 279.621 421.802 275.178L418.262 273.138C418.262 280.184 422.554 288.371 427.848 291.421C433.142 294.472 437.435 291.235 437.435 284.187L433.894 282.147Z" fill="#ED26B7"/>
<path d="M433.894 282.147C433.894 286.587 431.188 288.633 427.848 286.709C424.509 284.786 421.802 279.621 421.802 275.178L418.262 273.138C418.262 280.184 422.554 288.371 427.848 291.421C433.142 294.472 437.435 291.235 437.435 284.187L433.894 282.147Z" fill="#ED26B7"/>
<path d="M421.802 275.27C421.802 270.831 424.511 268.783 427.848 270.709C431.185 272.634 433.894 277.794 433.894 282.239L437.435 284.279C437.435 277.232 433.144 269.047 427.848 265.995C422.552 262.943 418.262 266.183 418.262 273.23L421.802 275.27Z" fill="#BFC9D1"/>
<path d="M427.253 265.656C421.89 262.864 417.959 266.298 418.281 273.299L421.77 275.293C421.604 271.305 424.428 268.979 427.419 270.474L427.253 265.656Z" fill="#ED26B7"/>
<ellipse cx="418.226" cy="285.73" rx="1.03637" ry="1.81365" transform="rotate(-23.05 418.226 285.73)" fill="#1B127D" stroke="#1B127D" stroke-width="0.498451"/>
<ellipse cx="420.242" cy="261.762" rx="1.03637" ry="1.81365" transform="rotate(-23.05 420.242 261.762)" fill="#1B127D" stroke="#1B127D" stroke-width="0.498451"/>
<ellipse cx="436.881" cy="295.057" rx="1.03637" ry="1.81365" transform="rotate(-23.05 436.881 295.057)" fill="#1B127D" stroke="#1B127D" stroke-width="0.498451"/>
<path fill-rule="evenodd" clip-rule="evenodd" d="M420.336 262.256L423.704 267.438L420.336 262.256Z" fill="#1B127D"/>
<path d="M420.336 262.256L423.704 267.438" stroke="#1B127D" stroke-width="0.498451" stroke-linecap="round"/>
<path fill-rule="evenodd" clip-rule="evenodd" d="M436.657 294.383L433.289 288.424L436.657 294.383Z" fill="#1B127D"/>
<path d="M436.657 294.383L433.289 288.424" stroke="#1B127D" stroke-width="0.498451" stroke-linecap="round"/>
<path fill-rule="evenodd" clip-rule="evenodd" d="M419.039 285.056L422.148 282.206L419.039 285.056Z" fill="#1B127D"/>
<path d="M419.039 285.056L422.148 282.206" stroke="#1B127D" stroke-width="0.498451" stroke-linecap="round"/>
<path d="M309.632 21.7936C309.62 21.3346 309.488 20.8866 309.251 20.4931C309.014 20.0997 308.68 19.7743 308.28 19.5486L307.794 19.268C307.389 19.0636 306.943 18.9558 306.489 18.9531C306.036 18.9505 305.589 19.053 305.182 19.2527L222.268 67.1184C221.887 67.3706 221.569 67.7078 221.341 68.1036C221.112 68.4994 220.979 68.9429 220.951 69.3992L220.964 133.55C220.98 134.006 221.102 134.451 221.321 134.852C221.54 135.252 221.85 135.595 222.225 135.855L222.69 136.123C223.104 136.363 223.57 136.499 224.049 136.52C224.527 136.541 225.003 136.447 225.437 136.245L308.288 88.3427C308.671 88.087 308.991 87.7463 309.221 87.3471C309.452 86.9479 309.587 86.5009 309.617 86.0408L309.632 21.7936Z" fill="white" stroke="#1B127D" stroke-width="0.595603"/>
<path d="M223.978 70.8928C224.027 70.4485 224.153 70.0162 224.349 69.6149L221.37 67.8947C221.124 68.2774 220.977 68.7155 220.944 69.1693L221.022 133.499C221.024 133.95 221.142 134.394 221.363 134.787C221.584 135.181 221.902 135.512 222.287 135.749L222.794 136.042C223.149 136.251 223.552 136.367 223.964 136.378C224.376 136.39 224.784 136.297 225.151 136.108C225.024 136.158 224.888 136.178 224.752 136.168C224.617 136.158 224.485 136.118 224.367 136.049C224.26 135.945 224.176 135.819 224.12 135.68C224.065 135.542 224.039 135.393 224.044 135.243L223.978 70.8928Z" stroke="#1B127D" stroke-width="0.595603"/>
<path d="M301.823 82.2169C301.92 82.0479 301.994 81.9212 302.018 81.879C302.042 81.8367 301.764 81.7326 301.68 81.6838L232.477 121.613C232.442 121.612 232.407 121.621 232.377 121.638C232.347 121.655 232.321 121.68 232.304 121.71C232.287 121.74 232.278 121.775 232.278 121.81C232.278 121.844 232.288 121.878 232.306 121.908C232.383 121.983 232.477 122.037 232.581 122.067L232.759 122.001L301.823 82.2169Z" fill="#BFC9D1"/>
<path d="M303.234 73.8065C303.202 73.7789 303.16 73.7644 303.118 73.7659C303.075 73.7674 303.035 73.7847 303.004 73.8145L300.153 75.4346C300.026 75.4852 299.919 75.5774 299.85 75.6962C299.782 75.815 299.755 75.9535 299.775 76.0892L299.764 76.6458C299.772 76.7364 299.814 76.8207 299.881 76.8823C299.881 76.8823 300.029 76.9677 300.132 76.8865L302.962 75.2542C303.071 75.1942 303.162 75.1053 303.224 74.9974C303.287 74.8894 303.318 74.7664 303.316 74.6418L303.315 74.1063C303.315 74.1063 303.307 73.8764 303.234 73.8065Z" fill="#BFC9D1"/>
<path d="M299.855 69.9975C299.855 69.9975 299.982 70.0707 300.089 69.9351L302.952 68.2939C303.059 68.2186 303.148 68.1211 303.213 68.0081C303.278 67.895 303.318 67.7692 303.33 67.6392L303.326 67.1582C303.318 66.9282 303.194 66.8006 302.946 66.9386L300.094 68.5587C299.965 68.6273 299.857 68.731 299.784 68.858C299.71 68.985 299.674 69.1301 299.68 69.2767L299.705 69.7699C299.707 69.8178 299.723 69.8642 299.749 69.9042C299.775 69.9443 299.812 69.9764 299.855 69.9975Z" fill="#BFC9D1"/>
<path d="M300.162 61.7555C300.043 61.8177 299.945 61.9122 299.878 62.0281C299.811 62.144 299.778 62.2765 299.784 62.4102L299.773 62.9667C299.788 63.0633 299.837 63.1514 299.911 63.2155C299.911 63.2155 299.911 63.2155 300.016 63.2765C300.122 63.3375 300.016 63.2765 300.077 63.1709L302.929 61.5508C303.044 61.4844 303.139 61.389 303.205 61.2741C303.272 61.1592 303.307 61.0288 303.307 60.8961L303.306 60.3606C303.367 60.2551 303.391 60.2128 303.255 60.1063C303.241 60.0855 303.222 60.0681 303.2 60.0554C303.178 60.0428 303.154 60.0352 303.129 60.0331C303.106 60.0459 303.088 60.0644 303.075 60.0866C303.062 60.1089 303.055 60.1341 303.055 60.1598L300.162 61.7555Z" fill="#BFC9D1"/>
<path d="M303.436 46.6661C303.443 46.3606 303.317 46.2874 303.056 46.4465L300.208 48.0122C300.093 48.0907 299.997 48.194 299.927 48.3147C299.857 48.4354 299.816 48.5702 299.805 48.7092L299.809 49.1902C299.809 49.2417 299.82 49.2928 299.841 49.3395C299.863 49.3862 299.895 49.4274 299.935 49.46C299.935 49.46 300.083 49.5454 300.235 49.3797L303.029 47.8107C303.135 47.7354 303.225 47.6379 303.29 47.5249C303.355 47.4119 303.395 47.286 303.407 47.1561L303.436 46.6661Z" fill="#BFC9D1"/>
<path d="M302.983 40.8592C303.098 40.7929 303.194 40.6975 303.26 40.5826C303.326 40.4676 303.361 40.3373 303.361 40.2045L303.378 39.7357C303.439 39.6301 303.464 39.5879 303.307 39.4692C303.264 39.4432 303.214 39.4299 303.164 39.4308C303.114 39.4316 303.065 39.4465 303.022 39.4739L300.159 41.1151C300.049 41.1865 299.957 41.283 299.891 41.3968C299.825 41.5107 299.788 41.6385 299.781 41.7698L299.785 42.2508C299.778 42.5563 299.904 42.6295 300.165 42.4704L302.983 40.8592Z" fill="#BFC9D1"/>
<path d="M282.118 44.7088C282.265 44.6214 282.387 44.4978 282.472 44.35C282.558 44.2021 282.604 44.0348 282.606 43.8641L282.603 43.1864C282.61 43.1188 282.599 43.0502 282.57 42.9886C282.541 42.927 282.495 42.8748 282.438 42.8378C282.438 42.8378 282.269 42.7401 282.129 42.8847L252.144 60.1226C252 60.2184 251.879 60.3465 251.793 60.4968C251.706 60.647 251.655 60.8153 251.644 60.9885L251.644 61.7206C251.632 61.786 251.645 61.8536 251.68 61.9102C251.715 61.9669 251.77 62.0085 251.834 62.027C251.834 62.027 252.003 62.1246 252.197 61.9833L282.118 44.7088Z" fill="#BFC9D1"/>
<path d="M237.794 121.529C237.686 121.596 237.596 121.69 237.532 121.8C237.469 121.91 237.433 122.035 237.428 122.162L237.426 122.752C237.428 122.802 237.442 122.85 237.466 122.893C237.49 122.936 237.523 122.973 237.564 123.001C237.564 123.001 237.691 123.074 237.797 122.938L240.628 121.306C240.746 121.244 240.844 121.149 240.911 121.034C240.978 120.918 241.011 120.785 241.005 120.651L241.014 120.149C240.998 120.053 240.949 119.965 240.875 119.901C240.875 119.901 240.749 119.827 240.642 119.963L237.794 121.529Z" fill="#BFC9D1"/>
<path d="M249.172 115.145C249.155 115.11 249.127 115.08 249.093 115.061C249.059 115.041 249.02 115.032 248.981 115.035L246.206 116.671C246.078 116.722 245.971 116.814 245.903 116.933C245.834 117.051 245.808 117.19 245.828 117.326L245.816 117.882C245.832 117.979 245.881 118.067 245.954 118.131C245.954 118.131 246.081 118.204 246.26 118.138L249.048 116.482C249.166 116.419 249.265 116.325 249.332 116.209C249.399 116.093 249.431 115.961 249.426 115.827L249.425 115.291C249.352 115.225 249.266 115.175 249.172 115.145Z" fill="#BFC9D1"/>
<path d="M257.243 111.752C257.358 111.686 257.454 111.591 257.52 111.476C257.586 111.361 257.621 111.23 257.621 111.098L257.617 110.617C257.678 110.511 257.703 110.469 257.567 110.362C257.431 110.256 257.419 110.277 257.267 110.443L254.47 112.066C254.355 112.132 254.26 112.228 254.193 112.343C254.127 112.458 254.092 112.588 254.092 112.721L254.093 113.256C254.032 113.362 254.147 113.456 254.143 113.511C254.14 113.565 254.312 113.608 254.464 113.443L257.243 111.752Z" fill="#BFC9D1"/>
<path d="M262.386 107.823L262.391 108.304C262.391 108.304 262.456 108.482 262.453 108.537C262.45 108.591 262.622 108.635 262.762 108.49L265.538 106.854C265.662 106.792 265.765 106.695 265.834 106.575C265.904 106.455 265.936 106.317 265.928 106.179L265.945 105.71C265.93 105.613 265.881 105.525 265.807 105.461C265.807 105.461 265.68 105.388 265.507 105.541L262.713 107.11C262.529 107.305 262.414 107.556 262.386 107.823Z" fill="#BFC9D1"/>
<path d="M274.199 100.733C274.199 100.733 274.03 100.635 273.911 100.792L271.118 102.361C270.997 102.427 270.897 102.525 270.829 102.645C270.76 102.764 270.725 102.899 270.727 103.037L270.731 103.518C270.74 103.608 270.781 103.693 270.849 103.754C270.849 103.754 270.975 103.827 271.082 103.692L273.879 102.068C273.996 101.998 274.093 101.899 274.161 101.781C274.229 101.663 274.266 101.529 274.269 101.393L274.268 100.857C274.268 100.857 274.271 100.803 274.199 100.733Z" fill="#BFC9D1"/>
<path d="M282.566 95.9051C282.566 95.9051 282.397 95.8075 282.257 95.9521L279.485 97.5332C279.377 97.6009 279.287 97.694 279.223 97.8045C279.159 97.9149 279.123 98.0393 279.119 98.1668L279.123 98.6478C279.118 98.6943 279.126 98.7413 279.147 98.7832C279.167 98.8252 279.2 98.8602 279.24 98.8843C279.252 98.9113 279.272 98.9332 279.299 98.9461C279.325 98.9589 279.355 98.9618 279.384 98.9542C279.412 98.9466 279.437 98.9291 279.453 98.9048C279.47 98.8804 279.477 98.851 279.473 98.8219L282.27 97.1985C282.383 97.1236 282.477 97.0236 282.544 96.9064C282.612 96.7891 282.652 96.6578 282.66 96.5227L282.672 95.9661C282.672 95.9661 282.629 95.9417 282.566 95.9051Z" fill="#BFC9D1"/>
<path d="M290.895 91.1404C290.88 91.1228 290.86 91.1086 290.839 91.0987C290.817 91.0889 290.794 91.0836 290.771 91.0832C290.747 91.0828 290.724 91.0873 290.702 91.0964C290.68 91.1055 290.66 91.119 290.644 91.1361L287.868 92.7717C287.76 92.8394 287.67 92.9325 287.607 93.043C287.543 93.1534 287.507 93.2778 287.503 93.4053L287.504 93.9407C287.512 94.0313 287.553 94.1157 287.621 94.1773C287.665 94.2094 287.718 94.2274 287.772 94.2287C287.827 94.2301 287.88 94.2147 287.926 94.1847L290.702 92.5491C290.808 92.4853 290.896 92.3956 290.958 92.2885C291.019 92.1814 291.053 92.0604 291.055 91.9367L291.055 91.4013C291.055 91.4013 290.992 91.1681 290.895 91.1404Z" fill="#BFC9D1"/>
<path d="M299.336 87.0597L299.348 86.5032C299.334 86.4142 299.293 86.3316 299.231 86.2667C299.216 86.2458 299.198 86.2284 299.176 86.2158C299.154 86.2031 299.129 86.1955 299.104 86.1935L296.295 87.8379C296.188 87.9132 296.099 88.0108 296.034 88.1238C295.969 88.2368 295.929 88.3626 295.917 88.4926L295.921 88.9736C295.914 89.2791 296.053 89.3312 296.301 89.1932L299.077 87.5576C299.219 87.4269 299.31 87.2508 299.336 87.0597Z" fill="#BFC9D1"/>
<path d="M294.684 82.9977L294.664 61.0232L292.489 62.3017C291.731 62.8314 291.176 63.6033 290.916 64.4905C290.508 65.5904 290.313 66.7575 290.339 67.9303L290.317 70.1144C290.238 71.4255 289.866 72.7021 289.23 73.8513C288.586 75.0207 287.65 76.0033 286.513 76.7033L285.97 77.0093C285.58 77.2962 285.119 77.4711 284.637 77.5152C284.155 77.5593 283.669 77.4709 283.234 77.2596C282.839 77.0025 282.527 76.6367 282.335 76.2064C282.144 75.776 282.081 75.2995 282.154 74.8344L282.142 72.6593C282.196 72.1842 282.123 71.7034 281.93 71.2657C281.737 70.828 281.432 70.4491 281.045 70.1675C280.306 69.7405 279.428 69.7968 278.396 70.4121L277.356 70.9941C276.967 71.269 276.515 71.4405 276.041 71.4922C275.568 71.544 275.089 71.4744 274.65 71.2899C274.256 71.0188 273.945 70.6451 273.749 70.2094C273.554 69.7738 273.482 69.2929 273.54 68.8192L273.54 66.6229C273.579 66.1616 273.486 65.6987 273.271 65.2883C273.057 64.8779 272.73 64.537 272.329 64.3054C271.928 64.0738 271.469 63.9611 271.006 63.9805C270.543 63.9998 270.096 64.1505 269.716 64.4147L268.812 64.9066C267.678 65.5874 266.737 66.5461 266.077 67.6919C265.394 68.8286 264.991 70.1114 264.902 71.4345L264.925 84.7663C264.852 86.1044 264.475 87.4082 263.823 88.5788C263.156 89.7312 262.247 90.7242 261.157 91.4885L259.216 92.5079C258.971 92.6295 258.702 92.6954 258.428 92.7008C258.018 92.6782 257.63 92.504 257.34 92.212C257.051 91.92 256.88 91.531 256.861 91.1203C256.881 90.8188 256.794 90.5197 256.617 90.2752C256.394 89.9249 256.052 89.6674 255.654 89.5507C255.45 89.4924 255.236 89.4771 255.025 89.5058C254.815 89.5345 254.612 89.6065 254.431 89.7173L252.617 90.8099C252.239 91.09 251.792 91.2626 251.323 91.3094C250.855 91.3561 250.382 91.2754 249.956 91.0757C249.565 90.7976 249.257 90.4193 249.064 89.9806C248.871 89.542 248.8 89.0594 248.859 88.5839L248.872 75.3854C248.923 74.9152 248.836 74.4402 248.622 74.0183C248.408 73.5964 248.075 73.2459 247.666 73.0093C247.256 72.7727 246.786 72.6602 246.314 72.6857C245.841 72.7112 245.386 72.8735 245.005 73.1528L244.052 73.7291C242.94 74.4439 242.025 75.4254 241.389 76.5843C240.724 77.7375 240.319 79.0219 240.203 80.3481L240.204 88.0076C240.217 89.184 240.036 90.3545 239.669 91.4719C239.5 92.2887 239.073 93.0293 238.45 93.5837L236.323 94.7777L236.331 116.773L294.684 82.9977Z" fill="#F2F4F6"/>
<path d="M224.28 69.4901L309.166 20.4539" stroke="#1B127D" stroke-width="0.595603"/>
<path d="M295.022 60.8916C295.022 60.8916 294.924 61.0606 294.839 61.2084L292.522 62.4892C291.838 63.0355 291.333 63.7737 291.072 64.609C290.661 65.6661 290.46 66.7935 290.481 67.9278L290.477 70.1785C290.375 71.5242 289.96 72.8273 289.266 73.9844C288.618 75.208 287.654 76.2363 286.476 76.9631L286.003 77.1968C285.585 77.5163 285.085 77.7086 284.561 77.7507C284.037 77.7928 283.511 77.6828 283.048 77.434C282.61 77.1436 282.261 76.738 282.039 76.2619C281.816 75.7858 281.73 75.2577 281.789 74.7357L281.789 72.5395C281.799 71.4475 281.473 70.6957 280.826 70.3508C280.551 70.2139 280.249 70.1393 279.941 70.1321C279.634 70.1249 279.329 70.1853 279.047 70.3091C278.842 70.8274 278.479 71.268 278.01 71.5688C277.884 71.645 277.741 71.6892 277.594 71.6975C277.447 71.7057 277.3 71.6778 277.166 71.6162C277.071 71.587 276.985 71.537 276.912 71.4698C276.535 71.6743 276.113 71.7828 275.684 71.7855C275.255 71.7882 274.832 71.6852 274.452 71.4854C274.011 71.1938 273.66 70.7845 273.439 70.3038C273.219 69.8231 273.138 69.2904 273.204 68.766L273.192 66.5909C273.206 65.4445 272.88 64.6927 272.233 64.3478C271.845 64.1725 271.417 64.102 270.992 64.1435C270.568 64.1851 270.162 64.3371 269.815 64.5845L268.911 65.0763C267.833 65.7321 266.937 66.6472 266.303 67.7382C265.598 68.825 265.219 70.0915 265.211 71.3874L265.218 84.7947C265.144 86.1825 264.741 87.5326 264.043 88.7339C263.334 89.9037 262.388 90.9114 261.264 91.6915L259.399 92.7264C258.941 92.9599 258.414 93.0249 257.913 92.91C257.51 92.812 257.154 92.5788 256.903 92.2493C256.652 91.9199 256.522 91.5143 256.534 91.1005C256.545 90.9295 256.517 90.7582 256.453 90.5992C256.389 90.4403 256.289 90.2978 256.163 90.1821C256.055 90.0372 255.919 89.9158 255.763 89.8256C255.607 89.7353 255.434 89.6781 255.254 89.6576C255.044 89.6721 254.841 89.7388 254.663 89.8514L254.311 90.0706C254.113 90.6019 253.744 91.0524 253.262 91.3513C253.136 91.4275 252.993 91.4718 252.846 91.48C252.699 91.4883 252.552 91.4604 252.418 91.3987C252.342 91.3681 252.271 91.327 252.206 91.2767C251.829 91.4674 251.411 91.5627 250.989 91.5544C250.566 91.546 250.152 91.4343 249.783 91.229C249.354 90.921 249.014 90.5055 248.797 90.0243C248.58 89.5432 248.494 89.0134 248.547 88.4885L248.56 75.29C248.611 74.8611 248.547 74.4263 248.375 74.03C248.203 73.6338 247.929 73.2903 247.58 73.0347C247.28 72.8683 246.941 72.783 246.598 72.7872C246.255 72.7914 245.918 72.885 245.622 73.0587C245.421 73.57 245.062 74.0038 244.597 74.2972C244.477 74.3781 244.338 74.4262 244.194 74.4367C244.049 74.4472 243.905 74.4196 243.774 74.3569C243.727 74.3427 243.683 74.3176 243.647 74.2837C242.822 74.9273 242.12 75.714 241.574 76.6062C240.918 77.6868 240.547 78.9165 240.497 80.1799L240.482 87.915C240.516 89.1346 240.322 90.3496 239.908 91.4971C239.703 92.3894 239.187 93.1795 238.452 93.7258L236.447 94.9052L236.28 94.9498C236.242 94.9476 236.205 94.9366 236.172 94.9175C236.139 94.8984 236.111 94.8719 236.09 94.84C236.059 94.8117 236.034 94.777 236.017 94.7383C236.001 94.6996 235.993 94.6577 235.994 94.6157C236.001 94.5532 236.021 94.4929 236.053 94.4385C236.084 94.384 236.126 94.3365 236.177 94.2989L238.121 93.2251C238.753 92.6776 239.182 91.934 239.34 91.1132C239.712 90.0646 239.892 88.958 239.874 87.8456L239.88 80.0771C239.957 78.7167 240.362 77.3952 241.061 76.2257C241.623 75.1845 242.413 74.2835 243.372 73.5896C243.372 73.5896 243.372 73.5896 243.433 73.484C243.446 73.0588 243.565 72.6436 243.777 72.2752C243.99 71.9068 244.291 71.5966 244.652 71.3722C244.779 71.2925 244.923 71.2446 245.072 71.2326C245.221 71.2207 245.371 71.2451 245.509 71.3036C245.636 71.3902 245.737 71.5107 245.8 71.6516C245.863 71.7924 245.886 71.948 245.865 72.1009L245.78 72.2487C246.118 72.1295 246.478 72.082 246.836 72.1092C247.193 72.1364 247.542 72.2377 247.858 72.4068C248.292 72.7061 248.636 73.1167 248.856 73.5953C249.075 74.0739 249.162 74.6028 249.106 75.1262L249.114 88.3369C249.063 88.7619 249.124 89.193 249.293 89.5867C249.461 89.9805 249.73 90.323 250.073 90.58C250.358 90.7448 250.681 90.8329 251.01 90.8355C251.34 90.8381 251.664 90.7552 251.952 90.5949C251.952 90.1668 252.064 89.7462 252.278 89.3755C252.492 89.0048 252.8 88.697 253.171 88.483C253.297 88.4013 253.441 88.3523 253.591 88.3403C253.74 88.3283 253.891 88.3538 254.028 88.4145C254.154 88.503 254.253 88.6238 254.316 88.7641C254.379 88.9045 254.402 89.0591 254.385 89.2118C254.809 88.981 255.306 88.9247 255.771 89.055C256.018 89.1156 256.25 89.2271 256.451 89.3822C256.653 89.5373 256.82 89.7327 256.941 89.9559C257.109 90.2505 257.199 90.5832 257.201 90.9221C257.194 91.142 257.248 91.3596 257.355 91.5517C257.462 91.7438 257.62 91.9033 257.81 92.0133C258.001 92.1234 258.218 92.1798 258.438 92.1767C258.658 92.1736 258.873 92.1111 259.06 91.9958L261.017 90.9008C262.082 90.1826 262.968 89.2308 263.609 88.1178C264.262 87.0156 264.633 85.7696 264.69 84.4897L264.695 71.0613C264.761 69.697 265.151 68.3684 265.834 67.1857C266.517 66.003 267.472 65.0004 268.621 64.2612L269.528 63.7149C269.962 63.4372 270.458 63.272 270.971 63.2343C271.485 63.1966 272 63.2875 272.47 63.4989C272.912 63.7852 273.265 64.1902 273.487 64.6673C273.71 65.1445 273.794 65.6747 273.73 66.1972L273.73 68.3934C273.694 68.8077 273.764 69.2243 273.935 69.6036C274.105 69.983 274.37 70.3125 274.704 70.5609C275.001 70.7283 275.336 70.816 275.677 70.8155C276.018 70.8149 276.353 70.7263 276.65 70.558C276.65 70.1299 276.762 69.7093 276.976 69.3386C277.19 68.9679 277.498 68.6601 277.869 68.4462C277.996 68.3665 278.14 68.3186 278.289 68.3067C278.438 68.2947 278.588 68.3191 278.726 68.3776C278.853 68.4642 278.954 68.5847 279.017 68.7255C279.08 68.8664 279.103 69.022 279.082 69.1749C279.419 69.0512 279.778 69.0031 280.135 69.0341C280.492 69.0651 280.838 69.1743 281.148 69.354C281.59 69.6319 281.945 70.0283 282.172 70.498C282.399 70.9677 282.489 71.4917 282.432 72.0101L282.444 74.1852C282.393 74.6102 282.455 75.0413 282.623 75.435C282.792 75.8288 283.061 76.1713 283.403 76.4283C283.792 76.6036 284.22 76.6741 284.645 76.6326C285.069 76.591 285.475 76.439 285.822 76.1916L286.307 75.9368C287.342 75.2262 288.19 74.2766 288.779 73.1684C289.454 72.0911 289.837 70.8564 289.89 69.5858L289.886 67.444C289.852 66.1967 290.079 64.9562 290.552 63.8019C290.864 62.8813 291.454 62.0806 292.241 61.5108L294.416 60.2323C294.504 60.1521 294.62 60.1099 294.738 60.115C294.857 60.1201 294.968 60.1721 295.049 60.2595C295.129 60.3469 295.171 60.4626 295.166 60.5812C295.161 60.6997 295.109 60.8114 295.022 60.8916Z" fill="#ED26B7"/>
<path opacity="0.9" d="M329.447 152.572C329.447 170.623 307.714 185.256 280.904 185.256C254.095 185.256 232.361 170.623 232.361 152.572C232.361 149.458 232.361 144.671 232.361 130.304C238.156 116.619 258.72 119.888 280.904 119.888C303.667 119.888 323.606 114.275 328.855 128.508C329.788 131.039 329.447 149.848 329.447 152.572Z" fill="#DFE4E8"/>
<path d="M329.24 131.195C329.24 140.152 323.872 148.292 315.13 154.204C306.39 160.116 294.3 163.781 280.933 163.781C267.566 163.781 255.477 160.116 246.737 154.204C237.995 148.292 232.627 140.152 232.627 131.195C232.627 122.238 237.995 114.098 246.737 108.186C255.477 102.274 267.566 98.6091 280.933 98.6091C294.3 98.6091 306.39 102.274 315.13 108.186C323.872 114.098 329.24 122.238 329.24 131.195Z" fill="#BFC9D1" stroke="#1B127D" stroke-width="0.533561"/>
<path d="M305.627 135.612C305.451 130.53 301.304 126.497 294.972 124.92V116.076C293.373 115.385 291.671 114.813 289.895 114.374V133.401C289.895 137.171 287.31 138.854 283.155 138.854C279.11 138.854 275.726 136.787 275.726 133.332C275.726 129.475 280.171 127.12 285.991 127.12C286.53 127.113 287.079 127.132 287.618 127.189V123.822C287.079 123.759 286.54 123.728 285.991 123.734C277.353 123.734 270.585 127.315 270.585 133.339C270.585 139.131 276.693 142.222 283.5 142.222C286.725 142.222 289.515 141.48 291.44 140.205C293.364 138.93 294.993 137.089 294.993 133.854V128.583C298.507 129.771 300.627 132.647 300.636 135.939C300.618 142.139 292.11 147.379 282.134 147.379C281.902 147.379 281.725 147.379 281.492 147.372C274.649 147.366 268.634 145.695 263.761 142.397C260.256 140.022 257.857 137 256.89 133.715C255.923 130.423 256.416 127.019 258.322 123.915C260.219 120.818 263.435 118.167 267.563 116.301C271.691 114.436 276.545 113.443 281.509 113.443V109.988C277.539 109.988 273.607 110.516 269.943 111.54C266.28 112.564 262.942 114.071 260.135 115.963C254.463 119.788 251.273 124.983 251.273 130.398C251.273 135.813 254.453 141.008 260.115 144.841C265.777 148.673 273.466 150.827 281.481 150.827H282.123C284.587 150.827 287.042 150.57 289.404 150.073C289.414 150.073 289.422 150.067 289.432 150.067C292.844 149.351 295.968 148.132 298.59 146.499C303.118 143.672 305.61 139.935 305.629 135.958C305.637 135.945 305.627 135.619 305.627 135.612Z" fill="white"/>
<path d="M296.459 113.032L305.218 107.654L305.375 64.1816L296.459 69.6648V113.032Z" fill="white" stroke="#1B127D" stroke-width="0.641794" stroke-miterlimit="10"/>
<path d="M296.459 69.665V113.032L287.856 107.715V63.8496L296.459 69.665Z" fill="white" stroke="#1B127D" stroke-width="0.641794" stroke-miterlimit="10"/>
<path d="M310.498 121.54L319.258 116.162L319.414 80.5479L310.498 86.031V121.54Z" fill="white" stroke="#1B127D" stroke-width="0.641794" stroke-miterlimit="10"/>
<path d="M310.498 86.0312V121.54L301.895 116.223V80.2158L310.498 86.0312Z" fill="white" stroke="#1B127D" stroke-width="0.641794" stroke-miterlimit="10"/>
<path d="M324.322 130.03L333.082 124.652L333.238 96.8955L324.322 102.379V130.03Z" fill="white" stroke="#1B127D" stroke-width="0.641794" stroke-miterlimit="10"/>
<path d="M324.324 102.379V130.03L315.721 124.713V96.5635L324.324 102.379Z" fill="white" stroke="#1B127D" stroke-width="0.641794" stroke-miterlimit="10"/>
<path d="M338.363 122.773V138.638L329.76 133.321V116.958L338.363 122.773Z" fill="white" stroke="#1B127D" stroke-width="0.641794" stroke-miterlimit="10"/>
<path d="M347.279 117.291L338.363 122.774V138.638L347.123 133.26L347.279 117.291Z" fill="white" stroke="#1B127D" stroke-width="0.641794" stroke-miterlimit="10"/>
<path d="M305.375 63.7837L296.459 58.1343L287.856 63.4515L296.459 69.2669L305.375 63.7837Z" fill="#ED26B7" stroke="#ED26B7" stroke-width="0.641794" stroke-linecap="round" stroke-linejoin="round"/>
<path d="M319.414 80.1504L310.498 74.501L301.894 79.8182L310.498 85.6336L319.414 80.1504Z" fill="#ED26B7" stroke="#ED26B7" stroke-width="0.641794" stroke-linecap="round" stroke-linejoin="round"/>
<path d="M333.238 96.4981L324.322 90.8486L315.719 96.1659L324.322 101.981L333.238 96.4981Z" fill="#ED26B7" stroke="#ED26B7" stroke-width="0.641794" stroke-linecap="round" stroke-linejoin="round"/>
<path d="M347.279 116.894L338.363 111.244L329.76 116.561L338.363 122.377L347.279 116.894Z" fill="#ED26B7" stroke="#ED26B7" stroke-width="0.641794" stroke-linecap="round" stroke-linejoin="round"/>
<path d="M266.288 146.845C250.616 155.126 226.88 154.428 213.361 145.298C210.868 143.867 208.746 141.87 207.166 139.467C205.587 137.065 204.593 134.324 204.267 131.467V116.705C204.475 118.995 205.15 121.218 206.25 123.237C207.35 125.255 208.852 127.027 210.663 128.443C211.531 129.203 212.441 129.912 213.391 130.566C226.971 139.666 250.646 140.394 266.318 132.144C268.687 130.924 270.897 129.416 272.896 127.655C276.309 124.889 278.551 120.934 279.171 116.583V129.071C279.595 135.562 275.2 142.174 266.288 146.845Z" fill="white" stroke="#1B127D" stroke-width="0.605583"/>
<path d="M241.613 138.301C262.322 138.301 279.111 128.687 279.111 116.826C279.111 104.966 262.322 95.3516 241.613 95.3516C220.904 95.3516 204.115 104.966 204.115 116.826C204.115 128.687 220.904 138.301 241.613 138.301Z" fill="white" stroke="#1B127D" stroke-width="0.605583"/>
<path d="M241.613 125.502C251.155 125.502 258.891 121.618 258.891 116.827C258.891 112.036 251.155 108.152 241.613 108.152C232.07 108.152 224.334 112.036 224.334 116.827C224.334 121.618 232.07 125.502 241.613 125.502Z" fill="#BFC9D1"/>
<mask id="mask0_502_397" style="mask-type:alpha" maskUnits="userSpaceOnUse" x="224" y="108" width="35" height="18">
<path d="M241.613 125.501C251.155 125.501 258.891 121.617 258.891 116.826C258.891 112.035 251.155 108.151 241.613 108.151C232.07 108.151 224.334 112.035 224.334 116.826C224.334 121.617 232.07 125.501 241.613 125.501Z" fill="#BFC9D1"/>
</mask>
<g mask="url(#mask0_502_397)">
<path d="M241.613 135.345C251.155 135.345 258.891 131.461 258.891 126.67C258.891 121.879 251.155 117.995 241.613 117.995C232.07 117.995 224.334 121.879 224.334 126.67C224.334 131.461 232.07 135.345 241.613 135.345Z" fill="#1C0D3F"/>
</g>
<path d="M255.496 119.658L273.693 128.554V144.962C273.693 144.962 263.841 154.789 244.017 154.789C243.713 148.329 244.017 138.412 244.017 138.412L237.551 124.056C240.684 124.564 243.887 124.437 246.97 123.681C250.053 122.926 252.952 121.558 255.496 119.658Z" fill="#ED26B7"/>
<path d="M273.693 144.962V128.554C264.458 136.446 248.025 139.017 244.016 138.412C244.016 138.412 243.714 148.329 244.017 154.79C263.842 154.79 273.693 144.962 273.693 144.962Z" fill="#D31AA1"/>
<path d="M243.03 152.979L244.02 154.793L244.086 138.471L237.558 124.064V125.262L243.251 138.471L243.03 152.979Z" fill="#FF9BE4"/>
<g clip-path="url(#clip1_502_397)">
<rect x="12" y="280.5" width="80" height="80" rx="40" fill="#8104CA"/>
<path d="M30.8708 357.364C30.8096 357.793 30.7483 358.161 30.6871 358.528L30.5645 358.467L25.7867 399.875H25.9092C25.8479 400.549 25.9092 401.284 25.9704 401.958L18.4361 439.323C18.4361 439.323 18.4361 439.385 18.4361 439.446C17.8848 441.345 18.0686 443.244 18.9874 445.02C19.9675 446.796 21.3763 448.021 23.3365 448.573C25.2966 449.124 27.1343 448.94 28.9107 448.021C30.6871 447.041 31.8509 445.571 32.4022 443.672C32.4022 443.611 32.4634 443.55 32.4634 443.489C32.4634 443.427 32.4634 443.366 32.5247 443.305L42.938 403.979C43.0605 403.673 43.1831 403.428 43.2443 403.183C43.7343 401.468 43.7343 399.753 43.1831 398.099L47.4709 360.917C47.5321 360.733 47.5934 360.488 47.6547 360.304C48.0222 357.977 47.5934 355.894 46.2458 353.934C44.8982 352.035 42.9993 350.871 40.6716 350.442C38.4052 350.075 36.2612 350.504 34.3623 351.913C32.4634 353.199 31.2996 355.037 30.8708 357.364Z" fill="#C79376"/>
<path d="M78.614 389.11C79.6505 385.386 80.2991 381.845 80.4637 378.486C82.523 371.709 82.9188 366.434 81.653 362.566C81.0612 358.616 76.2331 355.155 67.3588 352.285C66.3105 351.879 65.6423 351.673 65.4523 351.573C60.9671 350.137 55.706 349.069 49.669 348.37C44.1041 348.064 40.3401 348.948 38.3748 351.117C34.7518 354.501 31.987 358.191 29.8885 362.182C29.6886 362.562 29.4868 363.038 29.2869 363.418L28.8833 364.371C26.8964 367.596 26.0578 371.037 26.2733 374.595C26.579 378.443 28.0427 382.027 30.7566 385.541C30.8232 386.983 31.0544 389.773 31.4463 394.103C31.5972 396.123 31.8402 398.338 32.1713 400.938C31.5208 404.575 30.788 407.537 29.969 410.018C29.5595 411.258 29.1539 412.306 28.7522 413.163C31.3269 414.08 33.4235 414.891 35.04 415.692C40.1738 418.294 46.2931 419.668 53.206 419.809C60.215 419.952 66.7673 418.933 72.8631 416.752C74.7011 416.117 76.251 415.477 77.6089 414.832C77.699 415.122 77.6932 415.41 77.8793 415.702C77.7892 415.412 77.795 415.124 77.7049 414.834C77.8029 414.74 77.8029 414.74 77.8989 414.742C78.0948 414.554 78.3848 414.464 78.6768 414.278C78.136 412.538 77.6853 411.088 77.3228 410.024C77.2327 409.734 77.1406 409.54 77.1445 409.348C76.6017 407.704 76.3293 406.93 76.3274 407.026C75.6886 405.38 75.5338 403.552 75.8649 401.445C76.1961 399.339 76.6232 397.234 77.1444 395.228C77.2483 394.846 77.3502 394.56 77.4521 394.274C77.7773 392.455 78.1947 390.831 78.614 389.11Z" fill="#455A64"/>
<path d="M48.4187 294.479L43.7753 296.365C38.1125 298.664 34.1375 302.52 31.7158 308.253C29.3612 313.826 29.2999 319.524 31.5531 325.074L32.9326 328.472C35.1858 334.021 39.2017 338.064 44.775 340.418C50.3484 342.773 55.9328 342.88 61.5956 340.581L66.4655 338.604C72.1283 336.305 76.0573 332.335 78.2985 326.808C80.653 321.234 80.7603 315.65 78.4612 309.987L76.3246 305.049C77.8216 304.837 79.0215 304.218 80.0374 303.146C82.0019 301.161 82.9437 298.932 82.9973 296.14C83.051 293.347 82.0853 290.969 80.1463 289.118C78.2074 287.266 75.8188 286.257 73.0266 286.204C70.2344 286.15 67.9693 287.07 66.0048 289.054L65.2154 290.035C65.0775 289.695 64.9395 289.355 64.7556 288.902C64.1152 287.975 63.1811 287.298 62.0451 287.1C60.9091 286.902 59.9111 287.043 58.8706 287.729L58.8033 287.889L62.8294 293.906C57.9177 292.206 53.0622 292.594 48.4187 294.479Z" fill="#263238"/>
<path d="M59.1982 339.838C58.5785 341.448 57.4884 342.758 56.122 343.677C54.4606 344.876 50.9759 346.214 45.6679 347.693L45.6501 344.915C48.1458 344.698 50.7453 344.197 53.3528 343.408C56.6381 342.351 58.5866 341.161 59.1982 339.838Z" fill="black" fill-opacity="0.0862745"/>
<path d="M69.8088 328.436C68.6956 327.16 67.3696 326.644 65.735 326.885C64.1961 327.129 62.8351 327.857 61.8407 329.17L59.445 332.645C58.0716 330.405 57.5808 327.422 57.7786 323.789C57.9791 320.061 58.3145 318.346 58.7875 318.551C57.3819 317.458 55.9709 316.557 54.3659 315.746C50.4012 313.72 46.229 312.262 41.8466 311.468C39.3724 310.92 37.8442 310.781 37.0707 311.047C36.9804 310.853 36.9858 310.662 36.8025 310.369C33.9795 312.013 32.4126 316.661 31.9052 324.499C31.8999 324.69 31.7961 324.975 31.7881 325.262C31.7666 326.027 31.7451 326.793 31.7209 327.654C31.7155 327.845 31.7128 327.941 31.7075 328.132C31.6913 328.706 31.6752 329.28 31.7548 329.857L31.6591 329.854C31.6564 329.95 31.6537 330.046 31.651 330.141C31.6376 330.62 31.6215 331.194 31.608 331.672C31.6027 331.863 31.6 331.959 31.6903 332.153C31.6688 332.919 31.65 333.588 31.7268 334.261L31.8225 334.263C32.0182 337.525 32.61 340.318 33.6007 342.548C34.594 344.683 35.7045 346.054 37.1182 346.86C38.6275 347.669 41.4952 347.845 45.7185 347.485L45.6717 352.558L61.7591 352.531C61.7725 352.053 61.7832 351.67 61.8924 351.195C61.9031 350.812 61.9139 350.429 61.9219 350.142L62.2148 339.713C63.2538 340.221 64.3036 340.346 65.3614 340.185C66.515 340.026 67.3922 339.476 68.1791 338.732C69.66 337.145 70.4738 335.445 70.8172 333.444C71.259 331.349 70.922 329.712 69.8088 328.436Z" fill="#C79376"/>
<path d="M62.2319 319.456L59.8065 303.986L43.1877 299.452C36.6247 299.241 31.6096 301.978 28.2278 307.557C25.1027 312.819 24.2454 318.629 25.7511 324.977L26.4128 327.724L36.1912 325.477C38.4477 324.958 40.2459 323.71 41.6712 321.626C43.011 319.648 43.455 317.372 43.2033 314.875L45.4934 323.278C47.369 322.798 48.8056 321.78 49.8887 320.119C50.9719 318.457 51.2641 316.585 50.9559 314.482L50.8203 313.137C51.5385 315.49 52.9702 317.286 55.0201 318.534C56.9747 319.792 59.1279 320.157 61.2989 319.744L62.2319 319.456Z" fill="#263238"/>
<path d="M51.5252 348.567C54.6169 347.601 56.7544 346.512 57.7463 345.294C58.8365 343.984 59.6424 342.57 60.3606 340.867C59.451 342.565 58.0764 343.771 56.4254 344.587C55.261 345.129 53.1343 345.835 50.0506 346.515L45.7176 347.351L45.8498 349.461C47.2879 349.406 49.1141 349.17 51.5252 348.567Z" fill="black" fill-opacity="0.149"/>
<path d="M63.1643 350.276C62.6143 349.399 62.0509 349 61.5724 348.986C60.9053 348.872 60.4161 349.241 59.9107 350.185C59.3688 349.02 58.7151 348.427 58.141 348.411C57.3781 348.294 56.5938 348.942 55.7879 350.356C55.1584 348.902 54.4143 348.115 53.7445 348.096C53.0773 347.982 52.2903 348.726 51.5801 350.142C50.9479 348.784 50.2039 347.997 49.4384 347.975C48.7712 347.861 48.0906 348.225 47.3036 348.969C46.4585 348.37 45.7967 348.064 45.3182 348.051C44.364 347.928 43.7737 348.486 43.4544 349.627L44.5747 354.063C48.261 355.795 51.3973 356.649 53.981 356.722C56.8518 356.802 59.2602 356.295 61.209 355.105L63.1643 350.276Z" fill="#37474F"/>
<path d="M80.0178 370.029C81.4681 368.145 81.9974 366.081 81.7039 363.826C81.3976 361.472 80.3579 359.613 78.4737 358.162C76.5896 356.712 74.5262 356.183 72.1725 356.489C69.8189 356.795 67.9596 357.835 66.6074 359.706C65.1572 361.591 64.6278 363.654 64.9341 366.008C65.2404 368.361 66.3782 370.208 68.2496 371.56C70.1337 373.01 72.1972 373.54 74.4527 373.246C76.7083 372.953 78.5676 371.913 80.0178 370.029Z" fill="#C79376"/>
</g>
<g clip-path="url(#clip2_502_397)">
<rect x="354" y="280.5" width="80" height="80" rx="40" fill="#1B127D"/>
<path d="M387.423 342.212C386.931 342.707 386.438 343.837 385.805 345.533C380.527 360.156 377.501 379.372 376.797 403.32C376.446 413.069 376.234 420.77 376.164 426.421C381.512 429.177 388.057 430.872 395.727 431.579C395.657 399.435 396.642 377.747 398.542 366.373C400.583 354.363 405.579 347.864 413.39 346.875C413.601 346.875 413.883 346.804 414.164 346.804C413.883 346.663 413.671 346.592 413.39 346.522C413.179 346.38 412.897 346.31 412.686 346.169H405.86V345.603C405.72 345.745 405.509 345.815 405.297 345.886C401.99 347.369 398.964 347.228 396.079 345.533C393.686 344.049 392.842 343.201 393.546 342.919C393.475 341.789 391.434 341.577 387.423 342.212Z" fill="white"/>
<path d="M373.983 348.006C371.942 350.69 370.394 354.576 369.338 359.733C368.494 363.477 367.931 367.857 367.65 372.943C366.735 387.92 365.468 407.559 363.85 431.791C364.272 434.899 368.353 436.948 376.164 437.937C375.953 437.442 375.953 433.627 376.164 426.422C376.235 420.77 376.446 413.07 376.798 403.321C377.572 379.443 380.598 360.156 385.805 345.533C386.368 343.837 386.931 342.778 387.424 342.213C387.494 342.071 387.564 341.93 387.635 341.859C386.579 341.859 385.242 342.001 383.694 342.213C379.753 342.919 376.516 344.826 373.983 348.006Z" fill="#2637EF"/>
<path d="M388.121 350.589C386.39 353.894 387.813 356.084 392.293 357.158C400.092 358.594 405.268 354.279 407.823 344.115C404.648 341.496 399.671 340.805 392.988 342.241C391.573 344.471 389.95 347.287 388.121 350.589Z" fill="#FED8C3"/>
<path d="M427.481 359.154C426.373 355.889 423.986 352.992 420.421 350.267C420.132 350.065 419.842 349.862 419.457 349.56C417.531 348.047 415.984 347.131 414.818 346.715L414.72 346.713C412.792 345.298 411.539 344.388 410.866 343.785C410.099 342.984 409.229 342.475 408.255 342.259L408.233 343.339C408.221 343.928 407.614 344.898 406.512 346.152C405.211 347.599 404.41 348.467 404.308 348.662C404.105 349.05 403.879 350.519 403.536 352.968C401.318 356.165 399.663 360.551 398.764 366.231C396.573 377.679 395.642 399.37 395.672 431.493C395.688 435.521 395.702 439.647 395.809 443.972C408.976 446.107 419.372 444.944 426.896 440.676C426.817 420.537 426.804 401.97 426.659 385.071C426.729 381.634 426.929 376.628 427.454 370.057C427.958 364.566 427.934 360.931 427.481 359.154Z" fill="#2637EF"/>
<path d="M383.501 351.575C383.387 352.359 383.177 353.042 383.068 353.629C384.503 350.417 385.922 347.99 387.232 346.15C388.741 344.118 390.823 342.785 393.283 342.148C393.49 341.562 392.818 340.959 391.456 340.539L387.813 341.643C386.723 342.309 385.925 343.078 385.511 344.15C385.002 345.122 384.363 347.663 383.501 351.575Z" fill="url(#paint0_linear_502_397)"/>
<path d="M383.501 351.575C383.387 352.359 383.177 353.042 383.068 353.629C384.503 350.417 385.922 347.99 387.232 346.15C388.741 344.118 390.823 342.785 393.283 342.148C393.49 341.562 392.818 340.959 391.456 340.539L387.813 341.643C386.723 342.309 385.925 343.078 385.511 344.15C385.002 345.122 384.363 347.663 383.501 351.575Z" fill="white" fill-opacity="0.6"/>
<path d="M413.848 304.266C412.79 303.747 411.623 303.616 410.35 303.776L400.641 305.56L404.322 309.973C404.083 311.534 404.126 313.494 404.358 315.655C404.509 317.227 405.331 319.209 406.63 321.596L408.5 324.489L408.313 338.098C409.591 337.742 410.591 336.889 411.212 335.633C413.074 331.865 414.557 327.695 415.463 323.215C416.572 318.447 417.151 315.231 417.295 313.57C417.678 310.348 417.351 308.086 416.417 306.591C415.86 305.596 415.005 304.788 413.848 304.266Z" fill="#455A64"/>
<path d="M400.681 302.478C403.607 305.392 405.095 308.847 405.154 313.037C405.213 317.228 403.792 320.791 400.89 323.727C397.988 326.663 394.45 328.16 390.376 328.311C386.201 328.369 382.651 326.942 379.726 324.028C376.8 321.114 375.308 317.562 375.253 313.469C375.198 309.375 376.619 305.812 379.517 302.779C382.419 299.843 385.86 298.35 390.031 298.195C394.206 298.137 397.756 299.564 400.681 302.478Z" fill="#455A64"/>
<path d="M397.278 343.929C400.428 342.94 402.606 341.826 403.619 340.483C404.73 339.143 405.551 337.697 406.186 335.952C405.259 337.689 403.858 338.923 402.176 339.757C400.99 340.312 398.823 341.034 395.681 341.73L391.267 342.585L391.499 344.746C392.961 344.788 394.822 344.546 397.278 343.929Z" fill="black" fill-opacity="0.0862745"/>
<path d="M376.586 320.948H376.797C376.445 326.882 376.797 331.686 377.853 335.43C379.19 339.81 381.582 342.283 385.101 342.848C387.071 343.06 389.041 343.06 390.941 342.778L390.801 347.793C388.971 350.69 388.479 352.95 389.323 354.505C390.097 355.918 391.786 356.553 394.39 356.553C396.923 356.553 399.527 355.847 402.13 354.434C405.086 352.95 407.338 349.559 408.816 344.261L410.082 331.333C410.716 332.11 411.56 332.605 412.545 332.746C413.53 332.958 414.375 332.746 415.219 332.11C416.627 331.192 417.753 329.708 418.597 327.589C419.441 325.258 419.441 323.138 418.527 321.372C417.682 319.677 416.486 318.899 414.938 319.041C413.671 319.111 412.686 319.535 411.912 320.383C411.49 320.807 410.997 321.655 410.293 322.856C409.59 323.703 409.097 324.127 408.816 323.986C408.464 323.845 407.971 323.209 407.338 322.008C406.704 320.807 406.423 318.264 406.493 314.237C405.086 313.813 403.819 313.107 402.693 312.118C401.356 310.917 400.441 309.433 399.879 307.738C397.979 309.08 394.601 309.716 389.604 309.645C383.904 309.645 380.597 308.232 379.401 305.406C378.064 308.515 377.219 311.694 376.867 314.873C376.797 316.427 376.727 317.91 376.727 319.323C376.727 319.889 376.656 320.454 376.586 320.948Z" fill="#FED8C3"/>
<path d="M381.23 291.307C381.712 291.191 382.208 291.465 383.013 292.215C384.921 293.899 387.479 294.779 390.587 294.761C394.265 294.429 396.981 294.328 398.828 294.356C401.354 294.36 403.703 294.857 405.78 295.852C408.253 297.028 409.96 298.524 410.912 300.634C412.07 303.029 411.848 304.89 410.246 306.217C408.54 307.353 406.722 308.103 404.79 308.37C397.364 309.817 392.435 310.488 390.007 310.481C384.18 310.503 379.839 308.715 376.885 305.022C375.867 303.792 375.235 302.451 374.983 300.9C374.745 299.739 374.892 298.466 375.427 297.178L375.52 297.077C375.61 296.879 375.8 296.774 376.088 296.666C376.285 296.756 376.483 296.846 376.583 296.94C377.784 297.87 378.876 298.512 379.965 299.057C379.619 297.607 379.565 296.146 379.798 294.578C380.013 292.522 380.458 291.433 381.23 291.307Z" fill="#263238"/>
<path d="M391.853 344.539L391.769 342.299C397.262 341.119 400.912 340.008 402.816 338.962C404.529 338.021 405.84 336.705 406.748 335.013C406.328 336.784 405.513 338.374 404.591 339.676C403.757 340.78 401.372 341.941 397.532 343.157C395.513 343.72 393.588 344.182 391.853 344.539Z" fill="#F28F8F"/>
<path d="M408.848 320.992C410.225 321.429 410.728 321.897 410.268 322.597C409.349 323.996 408.258 328.62 407.004 336.662C406.778 338.426 405.956 339.821 404.735 340.94C403.137 342.364 400.651 343.432 397.177 344.049C393.606 344.669 389.916 344.709 386.205 344.165C382.785 343.61 380.226 342.73 378.724 341.518C377.423 340.494 376.593 339.063 376.136 337.227C375.906 336.261 375.744 334.511 375.549 331.886C375.491 330.328 375.479 327.403 375.707 323.105L375.971 317.147L376.845 319.747C376.573 322.877 376.588 325.899 376.794 328.817L376.805 329.109C376.823 329.596 377.125 329.877 377.524 330.155C377.923 330.433 378.314 330.515 378.799 330.497L380.341 330.147C381.878 329.7 383.035 329.462 383.71 329.339C384.967 329.195 386.329 329.242 387.795 329.48C390.935 330.338 393.095 330.94 394.467 331.279C396.821 331.874 398.861 331.895 400.69 331.437C402.324 330.986 403.552 330.063 404.468 328.566C405.664 326.766 406.338 324.011 406.689 320.39C407.472 320.556 408.158 320.726 408.848 320.992Z" fill="#455A64"/>
<path d="M427.887 360.509C427.887 360.439 426.691 359.52 424.298 357.754C415.08 357.33 409.802 360.368 408.605 366.867C412.335 386.577 414.728 398.87 415.713 403.674C415.713 404.027 415.643 404.38 415.643 404.733H415.502L415.643 407.912C415.643 409.749 415.572 411.515 415.502 413.211C415.924 413.069 416.346 412.999 416.768 412.857C420.287 412.08 423.735 411.868 426.972 412.222C429.435 412.575 431.617 413.281 433.587 414.27C434.291 414.624 434.994 415.118 435.698 415.613C435.698 412.575 435.698 410.102 435.557 408.195C435.487 407.418 435.487 406.711 435.417 406.076C435.698 405.087 435.768 404.168 435.698 403.108C435.698 403.038 435.698 402.897 435.698 402.897C435.628 402.614 435.628 402.331 435.557 402.049C435.417 401.554 435.346 401.13 435.205 400.636H435.417L435.346 400.565C434.572 395.267 432.039 381.915 427.887 360.509Z" fill="#2637EF"/>
<path d="M408.194 342.545C409.263 342.763 410.131 343.271 410.898 343.972C411.569 344.574 412.915 345.581 414.934 347.092C414.597 349.24 413.778 351.085 412.474 352.822C411.57 354.077 410.672 355.038 409.583 355.8C408.593 356.466 408.004 356.65 407.815 356.352C407.721 356.154 407.534 355.758 407.451 355.071C407.367 354.383 407.186 353.694 406.903 353.198C406.437 352.111 406.159 351.419 406.063 351.319C405.774 351.118 405.476 351.405 405.067 352.279C404.657 353.25 403.727 355.779 402.277 359.864C402.493 358.889 402.927 356.742 403.381 353.616C403.728 350.978 404.052 349.417 404.257 348.931C404.361 348.639 405.159 347.774 406.458 346.331C407.654 345.082 408.26 344.114 408.272 343.527L408.194 342.545Z" fill="url(#paint1_linear_502_397)"/>
<path d="M408.194 342.545C409.263 342.763 410.131 343.271 410.898 343.972C411.569 344.574 412.915 345.581 414.934 347.092C414.597 349.24 413.778 351.085 412.474 352.822C411.57 354.077 410.672 355.038 409.583 355.8C408.593 356.466 408.004 356.65 407.815 356.352C407.721 356.154 407.534 355.758 407.451 355.071C407.367 354.383 407.186 353.694 406.903 353.198C406.437 352.111 406.159 351.419 406.063 351.319C405.774 351.118 405.476 351.405 405.067 352.279C404.657 353.25 403.727 355.779 402.277 359.864C402.493 358.889 402.927 356.742 403.381 353.616C403.728 350.978 404.052 349.417 404.257 348.931C404.361 348.639 405.159 347.774 406.458 346.331C407.654 345.082 408.26 344.114 408.272 343.527L408.194 342.545Z" fill="white" fill-opacity="0.6"/>
</g>
<g clip-path="url(#clip3_502_397)">
<rect x="183" y="280.5" width="80" height="80" rx="40" fill="#2637EF"/>
<path d="M211.861 349.404C209.538 349.005 207.348 349.47 205.423 350.865C203.432 352.259 202.237 354.118 201.839 356.442C201.773 356.841 201.706 357.306 201.64 357.704L201.507 357.638L196.596 400.069L196.662 400.136C196.596 400.866 196.662 401.597 196.795 402.261C196.994 403.456 197.525 404.651 198.321 405.78C199.715 407.772 201.574 408.901 203.897 409.299C206.286 409.698 208.476 409.233 210.467 407.838C212.392 406.444 213.587 404.585 213.985 402.194C213.985 402.128 213.985 402.061 213.985 401.995C214.051 401.729 214.051 401.53 214.051 401.265L214.45 398.077L218.83 360.095C218.897 359.895 218.963 359.63 219.029 359.431C219.428 357.173 218.963 354.982 217.569 352.989C216.175 350.997 214.251 349.802 211.861 349.404Z" fill="#20CA8B"/>
<path d="M218.858 360.142C218.891 359.949 218.942 359.659 218.975 359.466C219.376 357.148 218.955 354.985 217.613 352.962C216.158 351.019 214.279 349.798 211.959 349.396C209.64 348.994 207.46 349.512 205.436 350.853C203.395 352.291 202.174 354.169 201.773 356.487C201.706 356.873 201.639 357.26 201.652 357.759L201.459 357.726L196.502 400.147L196.695 400.18C196.537 402.242 197.106 404.132 198.304 405.832C199.663 407.758 201.542 408.979 203.861 409.381C206.277 409.799 208.457 409.281 210.384 407.924C212.312 406.566 213.533 404.688 213.951 402.273C213.968 402.177 213.968 402.177 213.984 402.08C214.035 401.79 214.085 401.501 214.022 401.291L218.858 360.142Z" fill="#20CA8B"/>
<path d="M220.887 345.619C220.821 344.556 218.697 344.291 214.582 344.888C210.401 345.552 207.082 347.744 204.626 351.329C202.171 354.915 200.91 359.431 200.976 364.809C200.976 370.188 199.98 390.507 197.989 425.9C205.29 431.478 215.578 434.466 228.786 434.798C234.162 434.931 239.14 434.599 243.852 433.669C248.299 432.873 251.551 431.744 253.542 430.349L254.272 385.793C254.272 382.539 254.538 377.891 255.069 371.782C255.467 366.735 255.401 363.415 255.003 361.688C252.945 355.778 246.374 350.798 235.157 346.748C234.427 347.478 233.631 348.076 232.768 348.474C229.449 350.001 226.396 349.869 223.542 348.076C221.087 346.748 220.224 345.884 220.887 345.619Z" fill="#A3FFB0"/>
<path d="M235.866 345.279C231.485 342.725 226.173 342.321 219.735 343.964C218.346 344.429 217.05 345.191 216.041 346.353C214.933 347.513 214.218 348.78 213.796 350.152C213.371 351.621 212.929 353.978 212.668 357.127C212.535 358.8 212.407 360.276 212.378 361.656L216.191 358.283L219.604 360.029L224.343 359.534L227.473 365.512C233.45 362.283 237.675 358.032 240.051 352.659C239.711 349.991 238.965 347.905 237.615 346.498L235.866 345.279Z" fill="url(#paint2_linear_502_397)"/>
<path d="M227.664 365.812C233.641 362.582 237.866 358.331 240.242 352.958C239.902 350.29 239.157 348.205 237.806 346.797L235.862 345.476C231.481 342.922 226.171 342.42 219.731 344.161C218.342 344.626 217.046 345.388 216.037 346.55C214.929 347.71 214.214 348.977 213.792 350.348C213.368 351.818 212.926 354.175 212.664 357.324C212.531 358.997 212.403 360.473 212.375 361.852L216.187 358.48L219.6 360.226L224.34 359.731L227.664 365.812Z" fill="black" fill-opacity="0.5176"/>
<path d="M219.459 352.633C219.499 355.492 219.547 357.957 219.704 359.932C231.247 354.352 236.461 349.924 235.341 346.845C232.143 344.217 227.529 343.433 221.495 344.591C220.165 347.028 219.519 349.677 219.459 352.633Z" fill="#DDAD92"/>
<path d="M253.94 363.149C253.608 360.759 252.546 358.833 250.688 357.372C248.763 355.911 246.573 355.313 244.184 355.645C241.794 355.977 239.936 357.04 238.476 358.966C236.949 360.891 236.352 363.083 236.684 365.407C236.75 365.805 236.816 366.204 236.883 366.602H236.684L244.449 407.639L244.184 443.231C249.692 439.645 254.803 439.845 259.515 443.895L261.971 408.901C262.038 408.635 262.038 408.37 262.038 408.038C262.104 407.174 262.104 406.311 261.971 405.514C261.971 405.514 261.971 405.448 261.971 405.381C261.971 405.381 261.971 405.315 261.905 405.315V405.249C261.905 405.249 261.905 405.249 261.905 405.182C261.838 404.917 261.772 404.651 261.706 404.385L254.007 363.813C254.007 363.614 254.007 363.348 253.94 363.149Z" fill="#20CA8B"/>
<path d="M228.407 295.689C229.579 294.789 230.948 294.369 232.508 294.347C234.553 294.21 236.326 294.913 237.815 296.293C239.064 297.771 239.583 299.38 239.294 301.208C241.001 300.929 242.397 300.918 243.57 301.251C244.912 301.654 245.959 302.57 246.87 303.907C247.432 304.938 247.749 305.985 247.744 307.136C247.738 308.287 247.395 309.296 246.806 310.322C248.039 310.322 249.07 310.993 249.888 312.171C250.614 313.191 250.925 314.156 250.827 315.149C250.811 316.136 250.538 316.977 249.939 317.839C249.333 318.619 248.63 319.159 247.665 319.47C248.423 319.748 249.034 320.283 249.421 321.161C249.891 322.034 250.033 322.928 249.929 323.839C249.744 324.756 249.39 325.602 248.703 326.387C248.092 327.086 247.307 327.631 246.336 327.861C246.871 328.482 247.253 329.279 247.4 330.255C247.553 331.314 247.368 332.23 246.763 333.01C246.158 333.791 245.378 334.418 244.494 334.724C243.529 335.035 242.547 335.101 241.544 334.839C241.62 335.985 241.272 336.912 240.585 337.698C239.898 338.483 238.949 339.04 237.738 339.368C236.931 339.586 235.933 339.406 234.831 338.904C233.642 338.326 232.857 337.639 232.475 336.843C232 335.888 230.587 335.654 228.226 335.976C227.899 335.998 227.501 336.189 226.852 336.315C226.372 336.511 226.045 336.533 225.799 336.55C219.653 336.796 213.811 335.461 208.28 332.625C205.973 331.3 203.889 329.631 201.942 327.543C200.169 326.839 199.264 325.585 199.061 323.79C198.87 322.159 199.361 320.893 200.457 320.08C199.688 319.638 198.984 318.946 198.602 318.149C198.138 317.358 197.914 316.469 197.93 315.482C197.952 314.576 198.301 313.649 198.742 312.879C199.266 312.105 199.882 311.488 200.754 311.019C200.149 310.566 199.783 310.015 199.652 309.284C199.439 308.559 199.559 307.893 199.843 307.217C200.208 306.535 200.671 306.093 201.304 305.722C201.937 305.351 202.667 305.219 203.415 305.334C202.553 304.734 202.089 303.943 201.854 302.89C201.701 301.832 201.886 300.915 202.492 300.135L202.568 300.048C203.337 299.257 204.209 298.787 205.273 298.716C206.336 298.645 207.34 298.907 208.202 299.507C208.136 298.525 208.321 297.608 208.839 296.752C209.357 295.895 210.055 295.273 211.015 294.88C211.974 294.487 212.956 294.421 213.96 294.683C214.963 294.945 215.814 295.381 216.523 296.155C216.431 295.997 216.73 295.566 217.494 294.693C217.794 294.262 218.257 293.82 218.884 293.367C219.986 292.636 221.115 292.314 222.429 292.308C223.656 292.226 224.823 292.477 225.936 293.142C227.038 293.644 227.834 294.495 228.407 295.689Z" fill="#263238"/>
<path d="M232.238 323.185C231.323 320.8 230.77 319.507 230.773 319.409C230.056 316.932 229.733 314.466 229.804 311.912C225.74 309.734 221.053 308.718 215.641 309.057C210.82 309.315 207.354 310.299 205.341 312.011C205.126 312.693 205.008 313.378 204.891 314.063C204.776 314.649 204.76 315.238 204.645 315.825C204.511 317.099 204.282 318.271 204.248 319.45C203.857 322.879 203.775 325.825 203.807 328.184C203.793 328.675 203.88 329.071 203.866 329.562C204.089 332.123 204.502 334.887 205.205 337.855C205.828 340.133 206.662 341.925 207.902 343.238C208.093 343.44 208.379 343.743 208.573 343.846L209.151 344.256L209.246 344.357C209.246 344.357 209.344 344.36 209.342 344.458C209.44 344.461 209.437 344.559 209.535 344.561C209.535 344.561 209.535 344.561 209.633 344.564L210.506 344.982C210.991 345.192 211.479 345.304 212.065 345.419C214.124 345.575 216.089 345.532 218.061 345.292C218.257 345.298 218.554 345.208 218.751 345.214L218.429 353.165C217.997 358.067 220.81 359.325 226.673 356.935C227.074 356.651 227.671 356.373 228.369 356C232.662 353.565 234.871 351.858 234.904 350.68L235.474 333.89L236.417 335.292C237.474 336.108 239.042 336.25 241.123 335.621C242.707 335.174 244.022 333.835 245.159 331.803C246.401 329.578 246.655 327.521 245.821 325.728C245.173 324.334 244.311 323.524 243.041 323.292C242.845 323.286 242.553 323.18 242.354 323.272C241.173 323.337 240.082 323.7 239.272 324.562C238.462 325.423 237.857 325.996 237.554 326.282C236.85 326.852 236.447 327.234 236.441 327.43C236.436 327.627 235.948 327.515 235.07 327.294C234.195 326.974 233.252 325.572 232.238 323.185Z" fill="#DDAD92"/>
<path d="M224.177 346.794C227.35 345.704 229.542 344.587 230.559 343.338C231.677 341.994 232.504 340.544 233.24 338.796C232.307 340.538 230.898 341.776 229.205 342.612C228.011 343.168 225.83 343.893 222.668 344.59L218.224 345.448L218.36 347.613C219.835 347.557 221.707 347.314 224.177 346.794Z" fill="black" fill-opacity="0.149"/>
<path d="M235.923 319.763C234.973 317.279 233.944 317.643 232.829 321.052C232.892 326.066 232.393 329.295 231.229 330.835C230.384 331.892 229.14 332.643 227.494 333.187C225.746 333.727 223.706 333.768 221.477 333.313C220.056 333.076 217.83 332.522 214.791 331.847C213.473 331.614 212.143 331.773 210.808 332.128C208.546 332.851 207.211 333.207 207.007 333.201C206.39 333.38 205.881 333.366 205.477 333.256C204.97 333.144 204.571 332.838 204.384 332.243C203.721 330.455 203.498 327.5 203.71 323.575L203.055 321.493L203.102 327.096C203.088 331.224 203.112 333.976 203.379 335.36C203.613 337.921 203.874 339.501 204.16 340.197C204.625 341.783 205.509 342.987 206.811 343.81C208.41 344.936 210.634 345.588 213.483 345.766C216.532 346.048 219.8 345.845 223.287 345.059C229.543 343.662 233.171 341.504 234.171 338.583C235.277 335.469 235.875 332.341 236.062 329.3C236.236 326.749 236.486 325.086 236.811 324.407C237.235 323.829 236.872 322.246 235.923 319.763Z" fill="#263238"/>
</g>
</g>
<defs>
<linearGradient id="paint0_linear_502_397" x1="384.144" y1="340.164" x2="383.51" y2="351.476" gradientUnits="userSpaceOnUse">
<stop stop-color="#6D6AFE"/>
<stop offset="1" stop-color="#3FB0F7"/>
</linearGradient>
<linearGradient id="paint1_linear_502_397" x1="413.964" y1="342.371" x2="414.258" y2="357.213" gradientUnits="userSpaceOnUse">
<stop stop-color="#6D6AFE"/>
<stop offset="1" stop-color="#3FB0F7"/>
</linearGradient>
<linearGradient id="paint2_linear_502_397" x1="214.023" y1="342.563" x2="213.317" y2="363.243" gradientUnits="userSpaceOnUse">
<stop stop-color="#94E69A"/>
<stop offset="1" stop-color="#17ADC9"/>
</linearGradient>
<clipPath id="clip0_502_397">
<rect width="512" height="376" fill="white"/>
</clipPath>
<clipPath id="clip1_502_397">
<rect x="12" y="280.5" width="80" height="80" rx="40" fill="white"/>
</clipPath>
<clipPath id="clip2_502_397">
<rect x="354" y="280.5" width="80" height="80" rx="40" fill="white"/>
</clipPath>
<clipPath id="clip3_502_397">
<rect x="183" y="280.5" width="80" height="80" rx="40" fill="white"/>
</clipPath>
</defs>
</svg>
