<svg width="216" height="240" viewBox="0 0 216 240" fill="none" xmlns="http://www.w3.org/2000/svg">
<path d="M215.82 150.585C215.12 120.719 198.654 97.018 173.514 87.7523V35.7723C167.163 31.711 160.408 28.3513 153.357 25.7672V137.59C153.357 159.74 143.095 169.633 126.592 169.633C110.533 169.633 97.0946 157.487 97.0946 137.183C97.0946 114.516 114.741 100.671 137.851 100.671C139.993 100.634 142.17 100.745 144.312 101.078V81.2907C142.17 80.9217 140.029 80.7365 137.851 80.7741C103.555 80.7741 76.6794 101.817 76.6794 137.221C76.6794 171.258 100.935 189.422 127.958 189.422C140.768 189.422 151.843 185.066 159.485 177.572C167.127 170.077 173.587 159.261 173.587 140.249V109.276C187.542 116.253 195.959 133.161 195.996 152.507C195.923 188.944 162.143 219.732 122.53 219.732C121.607 219.732 120.906 219.732 119.983 219.695C92.8119 219.66 68.9257 209.839 49.5811 190.456C35.6637 176.501 26.139 158.744 22.299 139.437C18.4591 120.093 20.4166 100.084 27.9838 81.8462C35.5147 63.6461 48.2876 48.0663 64.6792 37.1019C81.0707 26.1376 100.341 20.3039 120.055 20.3039V0C104.291 0 88.6754 3.10065 74.1301 9.11815C59.5847 15.1357 46.3315 23.9962 35.1819 35.1082C12.6629 57.591 0 88.1213 0 119.944C0 151.766 12.6253 182.296 35.1082 204.817C57.591 227.336 88.1213 240 119.944 240H122.492C132.275 240 142.021 238.487 151.398 235.57C151.436 235.57 151.472 235.532 151.51 235.532C165.058 231.323 177.462 224.163 187.874 214.563C205.852 197.95 215.748 175.985 215.82 152.617C215.856 152.541 215.82 150.623 215.82 150.585Z" fill="#1C0D3F"/>
</svg>
