<?xml version="1.0" encoding="UTF-8"?>
<svg width="94px" height="90px" viewBox="0 0 94 90" version="1.1" xmlns="http://www.w3.org/2000/svg" xmlns:xlink="http://www.w3.org/1999/xlink">
    <title>icons</title>
    <g id="icons" stroke="none" stroke-width="1" fill="none" fill-rule="evenodd">
        <g id="Analyst-reports" transform="translate(10.000000, 0.000000)" fill-rule="nonzero">
            <path d="M56.6,50.758 L38.418,50.758 L38.418,31.701 C38.418,31.159 37.979,30.721 37.438,30.721 C36.897,30.721 36.458,31.159 36.458,31.701 L36.458,50.758 L17.4,50.758 C16.858,50.758 16.42,51.197 16.42,51.738 C16.42,52.279 16.858,52.718 17.4,52.718 L36.457,52.718 L36.457,70.9 C36.457,71.441 36.896,71.88 37.437,71.88 C37.978,71.88 38.417,71.441 38.417,70.9 L38.417,52.719 L56.6,52.719 C57.142,52.719 57.58,52.28 57.58,51.739 C57.58,51.198 57.142,50.758 56.6,50.758 Z" id="Path" fill="#14B2E2"></path>
            <path d="M52.4,0.9 L7.6,0.9 C3.75,0.9 0.6,4.05 0.6,7.9 L0.6,82.1 C0.6,85.952 3.75,89.1 7.6,89.1 L66.4,89.1 C70.25,89.1 73.4,85.952 73.4,82.1 L73.4,21.9 L52.4,0.9 Z M71.439,22.712 L71.439,22.72 L56.199,22.72 C54.929,22.72 53.779,22.202 52.937,21.363 C52.096,20.521 51.58,19.371 51.58,18.1 L51.58,2.86 L51.588,2.86 L71.439,22.712 Z M66.4,87.141 L7.6,87.141 C4.821,87.141 2.561,84.879 2.561,82.1 L2.561,7.9 C2.561,5.122 4.821,2.86 7.6,2.86 L49.62,2.86 L49.62,18.1 C49.626,21.726 52.574,24.676 56.2,24.68 L71.44,24.68 L71.44,82.1 C71.439,84.879 69.18,87.141 66.4,87.141 Z" id="Shape" fill="#333333"></path>
            <circle id="Oval" fill="#14B2E2" cx="25.1" cy="40.8" r="2.1"></circle>
            <circle id="Oval" fill="#14B2E2" cx="27.856" cy="60.356" r="2.101"></circle>
            <circle id="Oval" fill="#14B2E2" cx="48.856" cy="63.2" r="2.101"></circle>
            <circle id="Oval" fill="#14B2E2" cx="47.456" cy="40.8" r="2.1"></circle>
        </g>
    </g>
</svg>