<?xml version="1.0" encoding="UTF-8"?>
<svg width="94px" height="90px" viewBox="0 0 94 90" version="1.1" xmlns="http://www.w3.org/2000/svg" xmlns:xlink="http://www.w3.org/1999/xlink">
    <title>icons</title>
    <g id="icons" stroke="none" stroke-width="1" fill="none" fill-rule="evenodd">
        <g id="Briefs" transform="translate(7.000000, 0.000000)" fill-rule="nonzero">
            <path d="M72.2,0.9 L16.2,0.9 C12.35,0.9 9.2,4.05 9.2,7.9 L9.2,9.3 L7.8,9.3 C3.95,9.3 0.8,12.449 0.8,16.3 L0.8,82.1 C0.8,85.95 3.95,89.1 7.8,89.1 L63.8,89.1 C67.651,89.1 70.8,85.95 70.8,82.1 L70.8,80.7 L72.2,80.7 C76.05,80.7 79.2,77.552 79.2,73.7 L79.2,7.9 C79.2,4.05 76.05,0.9 72.2,0.9 Z M68.84,82.1 C68.84,84.879 66.58,87.139 63.8,87.139 L7.8,87.139 C5.021,87.139 2.761,84.879 2.761,82.1 L2.761,16.3 C2.761,13.522 5.021,11.26 7.8,11.26 L63.8,11.26 C66.58,11.26 68.84,13.522 68.84,16.3 L68.84,82.1 Z M77.239,73.699 C77.239,76.478 74.979,78.74 72.2,78.74 L70.8,78.74 L70.8,16.3 C70.8,12.449 67.651,9.3 63.8,9.3 L11.161,9.3 L11.161,7.9 C11.161,5.122 13.421,2.861 16.2,2.861 L72.2,2.861 C74.979,2.861 77.239,5.122 77.239,7.9 L77.239,73.699 Z" id="Shape" fill="#333333"></path>
            <path d="M57.438,59.832 C57.028,59.478 56.41,59.525 56.057,59.937 L48.217,69.082 L40.4,63.955 C40.034,63.715 39.55,63.748 39.22,64.035 L29.978,72.068 L22.109,69.445 C21.796,69.34 21.446,69.402 21.187,69.609 L14.187,75.209 C13.765,75.549 13.697,76.164 14.034,76.588 C14.374,77.01 14.99,77.078 15.413,76.74 L21.996,71.472 L29.89,74.105 C30.22,74.214 30.58,74.14 30.843,73.914 L39.946,66.002 L47.864,71.193 C48.276,71.466 48.823,71.388 49.144,71.011 L57.544,61.212 C57.896,60.803 57.849,60.184 57.438,59.832 Z" id="Path" fill="#14B2E2"></path>
            <path d="M53.944,33.754 L47.222,24.794 C46.862,24.318 46.388,23.975 45.873,23.715 C45.353,23.459 44.795,23.286 44.199,23.281 L27.4,23.281 C26.802,23.286 26.245,23.459 25.726,23.715 C25.21,23.975 24.738,24.319 24.375,24.794 L17.654,33.754 L17.656,33.752 C17.296,34.231 17.142,34.793 17.142,35.336 C17.143,35.981 17.357,36.637 17.833,37.154 L34.128,54.704 C34.57,55.183 35.188,55.44 35.798,55.4380116 C36.408,55.44 37.024,55.182 37.469,54.704 L53.763,37.154 C54.24,36.634 54.452,35.98 54.4530049,35.336 C54.454,34.792 54.301,34.233 53.944,33.754 Z M52.04,34.482 L38.167,34.482 L46.094,26.555 L52.04,34.482 Z M44.2,25.2429674 C44.29,25.242 44.425,25.264 44.572,25.305 L35.8,34.076 L27.029,25.305 C27.176,25.264 27.31,25.242 27.401,25.2429674 L44.2,25.2429674 Z M25.505,26.554 L33.434,34.482 L19.561,34.482 L25.505,26.554 Z M19.848,36.443 L34.82,36.443 L34.82,52.568 L19.848,36.443 Z M36.78,52.566 L36.78,36.443 L51.753,36.443 L36.78,52.566 Z" id="Shape" fill="#14B2E2"></path>
        </g>
    </g>
</svg>