<?xml version="1.0" encoding="UTF-8"?>
<svg width="94px" height="90px" viewBox="0 0 94 90" version="1.1" xmlns="http://www.w3.org/2000/svg" xmlns:xlink="http://www.w3.org/1999/xlink">
    <title>icons</title>
    <g id="icons" stroke="none" stroke-width="1" fill="none" fill-rule="evenodd">
        <g id="Case-studies" transform="translate(7.000000, 0.000000)" fill-rule="nonzero">
            <path d="M19.673,72.842 L39.509,72.842 C40.053,72.842 40.493,72.404 40.493,71.863 C40.493,71.32 40.053,70.883 39.509,70.883 L19.673,70.883 C19.129,70.883 18.6889983,71.321 18.6889983,71.863 C18.688,72.404 19.129,72.842 19.673,72.842" id="Path" fill="#14B2E2"></path>
            <path d="M19.673,63.014 L56.398,63.014 C56.942,63.014 57.385,62.575 57.385,62.034 C57.385,61.493 56.942,61.054 56.398,61.054 L19.673,61.054 C19.129,61.054 18.689,61.493 18.689,62.034 C18.689,62.575 19.129,63.014 19.673,63.014" id="Path" fill="#14B2E2"></path>
            <path d="M79.424,54.656 L72.897,50.814 L72.897,7.9 C72.897,4.05 69.731,0.9 65.859,0.9 L7.131,0.9 C3.259,0.9 0.092,4.05 0.092,7.9 L0.092,82.1 C0.092,85.95 3.259,89.1 7.131,89.1 L65.859,89.1 C69.731,89.1 72.897,85.95 72.897,82.1 L72.897,53.092 L78.42,56.344 C78.888,56.619 79.492,56.465 79.772,55.998 C80.047,55.533 79.895,54.932 79.424,54.656 Z M70.926,82.1 C70.926,84.879 68.654,87.139 65.859,87.139 L7.131,87.139 C4.336,87.139 2.064,84.879 2.064,82.1 L2.064,7.9 C2.064,5.122 4.336,2.861 7.131,2.861 L65.859,2.861 C68.654,2.861 70.926,5.122 70.926,7.9 L70.926,49.654 L56.778,41.324 C58.175,38.409 58.982,35.158 58.982,31.713 C58.982,19.35 48.903,9.328 36.473,9.328 C24.04,9.328 13.964,19.349 13.964,31.713 C13.964,44.077 24.04,54.1 36.473,54.1 C44.736,54.1 51.938,49.659 55.854,43.058 L70.926,51.932 L70.926,82.1 Z M36.473,52.139 C25.148,52.139 15.936,42.976 15.936,31.714 C15.936,20.452 25.148,11.288 36.473,11.288 C47.798,11.288 57.01,20.451 57.01,31.713 C57.01,42.975 47.798,52.139 36.473,52.139 Z" id="Shape" fill="#333333"></path>
            <path d="M46.841,35.128 C45.949,33.928 44.567,33.004 42.896,32.355 C42.376,32.154 41.819,31.99 41.246,31.846 C42.767,30.656 43.761,28.834 43.761,26.757 C43.761,23.153 40.825,20.232 37.198,20.232 C33.573,20.232 30.635,23.154 30.635,26.757 C30.635,28.812 31.609,30.618 33.108,31.809 C31.875,32.11 30.754,32.544 29.788,33.097 C28.817,33.652 28.003,34.327 27.409,35.128 C26.819,35.926 26.455,36.867 26.4579816,37.868 L26.4579816,37.912 C26.4579816,39.116 27.439,40.089 28.648,40.091 L45.603,40.091 C46.814,40.09 47.7930082,39.115 47.7930082,37.912 L47.7930082,37.868 C47.795,36.868 47.432,35.926 46.841,35.128 Z M32.606,26.757 C32.609,24.236 34.66,22.194 37.197,22.193 C39.735,22.195 41.785,24.237 41.791,26.757 C41.785,29.279 39.735,31.32 37.197,31.325 C34.66,31.321 32.609,29.28 32.606,26.757 Z M45.821,37.913 L45.602,38.132 L28.647,38.132 L28.428,37.913 L28.428,37.869 C28.428,37.336 28.609,36.819 28.996,36.289 C29.576,35.498 30.647,34.727 32.067,34.182 C33.483,33.634 35.233,33.3 37.123,33.3019888 C39.644,33.299 41.913,33.897 43.477,34.796 C44.262,35.243 44.864,35.764 45.251,36.289 C45.64,36.819 45.82,37.336 45.82,37.869 L45.82,37.913 L45.821,37.913 Z" id="Shape" fill="#14B2E2"></path>
        </g>
    </g>
</svg>