<?xml version="1.0" encoding="UTF-8"?>
<svg width="94px" height="90px" viewBox="0 0 94 90" version="1.1" xmlns="http://www.w3.org/2000/svg" xmlns:xlink="http://www.w3.org/1999/xlink">
    <title>icons</title>
    <g id="icons" stroke="none" stroke-width="1" fill="none" fill-rule="evenodd">
        <g id="eBook" transform="translate(9.000000, 2.000000)" fill-rule="nonzero">
            <path d="M70,80.3 C70,80.3 69.9,79.5 69,79.5 C68.1,79.5 68,80.3 68,80.3 L68,82.1 C68,82.1 18.3,82.1 9,82.1 C4.3,82.1 1.9,80 1.9,75.9 C1.9,75.2 2,12.2 2,12 C2.4,12.4 2.8,12.8 3.3,13.1 C4.9,14 6.5,14.1 8.3,14.1 C10.1,14.1 67.9,14.1 67.9,14.1 L68,44 C68,44 68,45 69,45 C70,45 70,44 70,44 L70,0.1 C70,0.1 70,0.1 7.2,0.1 C3.3,0.1 0,3.1 0,7.1 C0,7.1 0,7.1 0,7.1 C0,7.1 0,74.9 0,76.4 C0,81.1 3.2,84.1 9,84.1 C16.7,84.1 70,84.1 70,84.1 C70,84.1 70,80.9 70,80.3 Z M7.5,2.1 C8.9,2.1 68,2.1 68,2.1 L68,12.1 C68,12.1 67.9,12.1 7.3,12.1 C4.8,12.1 2.6,10.6 2.1,8.2 C2,7.9 2,7.5 2,7.3 C2,7.2 2,7.2 2,7.1 C2,4 4.6,2.1 7.5,2.1 Z" id="Shape" fill="#000000"></path>
            <path d="M74.4,68.2 L74.4,68.2 L65.2,57.9 C66,57.4 66.9,57.1 67.6,56.9 L72.2,55.7 C72.9,55.5 73.4,55.3 73.9,54.9 C74.3,54.5 74.7,54 74.7,53.3 C74.7,52.8 74.5,52.3 74.2,51.9 C73.9,51.5 73.4,51.2 72.9,50.9 L42,33.4 C41.3,33 40.7,32.8 40,32.8 C39.4,32.8 38.8,33 38.4,33.5 C38,34 37.9,34.5 37.9,35.1 C37.9,35.5 38,35.9 38.1,36.4 L38.1,36.4 L48,72.9 C48.2,73.6 48.4,74.1 48.8,74.6 C49.2,75 49.7,75.4 50.4,75.4 C50.9,75.4 51.4,75.2 51.8,74.9 C52.2,74.6 52.5,74.2 52.8,73.6 L56,68 L56,68 C56.5,67.2 57.2,66.1 57.9,65.1 L66.8,75 C67.8,76.1 69.2,76.7 70.5,76.7 C71.7,76.7 72.9,76.3 73.8,75.4 C74.9,74.4 75.5,73.1 75.5,71.7 C75.6,70.3 75.2,69.2 74.4,68.2 L74.4,68.2 Z M72.7,73.8 C72.1,74.3 71.4,74.6 70.7,74.6 C69.9,74.6 69,74.3 68.4,73.6 L58.7,62.8 C58.5,62.6 58.2,62.5 57.9,62.5 C57.6,62.5 57.3,62.7 57.2,62.9 C56.2,64.3 55.2,65.8 54.5,67 L54.5,67 L51.3,72.6 C51.1,73 50.9,73.2 50.7,73.3 L50.5,73.4 L50.5,73.4 C50.5,73.4 50.4,73.3 50.3,73.2 C50.2,73 50.1,72.8 50,72.4 L50,72.4 L40.1,35.9 L40.1,35.9 C40,35.5 40,35.2 40,35 C40,34.9 40,34.8 40,34.7 L40,34.6 L40,34.6 L40.1,34.6 C40.2,34.6 40.6,34.7 41.1,35 L71.8,52.5 C72.2,52.7 72.4,52.9 72.5,53.1 L72.6,53.3 L72.6,53.3 C72.6,53.3 72.5,53.4 72.4,53.5 C72.2,53.6 72,53.7 71.6,53.8 L67,55 C65.7,55.3 64.4,56 63.1,56.8 C62.9,57 62.7,57.2 62.7,57.5 C62.7,57.8 62.7,58.1 62.9,58.3 L72.9,69.5 L72.9,69.5 C73.4,70.1 73.7,70.8 73.7,71.5 C73.7,72.3 73.3,73.2 72.7,73.8 L72.7,73.8 Z" id="Shape" fill="#14B2E2"></path>
            <path d="M35.3,29 C35.7,28.7 35.8,28 35.4,27.6 L31.7,23 C31.4,22.6 30.7,22.5 30.3,22.9 C29.9,23.2 29.8,23.9 30.2,24.3 L33.9,28.9 C34.3,29.3 34.9,29.4 35.3,29 L35.3,29 Z" id="Shape_1_" fill="#14B2E2"></path>
            <path d="M32,39.7 C32.5,39.6 32.9,39.1 32.8,38.6 C32.7,38.1 32.2,37.7 31.7,37.8 L25.9,38.8 C25.4,38.9 25,39.4 25.1,39.9 C25.2,40.4 25.7,40.8 26.2,40.7 L32,39.7 L32,39.7 Z" id="Shape_2_" fill="#14B2E2"></path>
            <path d="M46.2,22.4 L44,27.9 C43.8,28.4 44,29 44.5,29.2 C45,29.4 45.6,29.2 45.8,28.7 L48,23.2 C48.2,22.7 48,22.1 47.5,21.9 C47,21.6 46.4,21.9 46.2,22.4 L46.2,22.4 Z" id="Shape_3_" fill="#14B2E2"></path>
        </g>
    </g>
</svg>