<?xml version="1.0" encoding="UTF-8"?>
<svg width="94px" height="90px" viewBox="0 0 94 90" version="1.1" xmlns="http://www.w3.org/2000/svg" xmlns:xlink="http://www.w3.org/1999/xlink">
    <title>icons</title>
    <g id="icons" stroke="none" stroke-width="1" fill="none" fill-rule="evenodd">
        <g id="Videos" transform="translate(0.000000, 9.000000)" fill-rule="nonzero">
            <path d="M86.199,10.1 L54,10.1 C51.199,10.1 51.199,10.1 49.811,7.669 L46.989,2.731 C46.225,1.394 44.341,0.3 42.801,0.3 L9.199,0.3 C7.66,0.3 5.775,1.394 5.011,2.731 L2.189,7.669 C1.424,9.006 0.801,11.36 0.801,12.9 L0.801,64.7 C0.801,68.55 3.949,71.7 7.801,71.7 L86.199,71.7 C90.051,71.7 93.199,68.55 93.199,64.7 L93.199,17.1 C93.199,13.25 90.051,10.1 86.199,10.1 Z M91.24,64.7 C91.24,67.478 88.978,69.739 86.199,69.739 L7.801,69.739 C5.02,69.739 2.76,67.478 2.76,64.7 L2.76,12.9 C2.76,11.706 3.299,9.675 3.891,8.642 L6.713,3.704 C7.129,2.975 8.361,2.261 9.199,2.261 L42.801,2.261 C43.639,2.261 44.871,2.975 45.287,3.704 L48.109,8.642 C49.843,11.676 50.504,12.06 54,12.06 L86.199,12.06 C88.978,12.06 91.24,14.322 91.24,17.099 L91.24,64.7 Z" id="Shape" fill="#333333"></path>
            <path d="M46.998,22.7 C36.943,22.7 28.801,30.848 28.801,40.898 C28.801,50.95 36.944,59.099 46.998,59.099 C57.055,59.099 65.199,50.95 65.199,40.898 C65.199,30.849 57.055,22.7 46.998,22.7 Z M46.998,57.14 C38.045,57.14 30.76,49.856 30.76,40.899 C30.76,31.946 38.045,24.661 46.998,24.661 C55.953,24.661 63.24,31.946 63.24,40.899 C63.24,49.855 55.953,57.14 46.998,57.14 Z" id="Shape" fill="#14B2E2"></path>
            <path d="M54.705,38.57 L44.894,32.029 C44.285,31.622 43.71,31.43 43.21,31.43 C42.132,31.43 41.399,32.322 41.399,33.9 L41.399,47.9 C41.399,49.477 42.131,50.369 43.21,50.369 C43.71,50.369 44.284,50.178 44.894,49.77 L54.705,43.229 C56.627,41.948 56.627,39.852 54.705,38.57 Z M53.619,41.599 L43.806,48.14 C43.64,48.25 43.503,48.319 43.402,48.359 C43.379,48.252 43.361,48.1 43.361,47.901 L43.361,33.901 C43.361,33.701 43.379,33.549 43.402,33.443 C43.504,33.482 43.64,33.55 43.806,33.662 L53.619,40.202 C54.039,40.482 54.187005,40.753 54.187005,40.901 C54.188,41.048 54.039,41.318 53.619,41.599 Z" id="Shape" fill="#14B2E2"></path>
        </g>
    </g>
</svg>