<svg width="592" height="903" fill="none" xmlns="http://www.w3.org/2000/svg"><g opacity=".5" fill="#DFE4E8"><path opacity=".4" d="M209.949 207.595c-.441-6.713-1.466-13.377-3.066-19.919-1.657-7.735-3.359-15.733-3.013-23.683.095-2.226.219-4.334.328-6.384.482-8.081.886-15.05-.664-24.175-2.967-17.343-3.784-19.673-18.288-32.501-.582-.513-1.179-1.0563-1.79-1.6138-3.925-3.5226-8.804-7.9255-13.674-9.7221l-.015-.0147c-11.565-4.1739-22.836-9.089-33.741-14.7135-7.527-3.8774-15.26-7.3591-23.166-10.4304-34.0601-12.5614-62.6094 18.361-73.3148 32.2338-3.9884 5.1897-10.233 9.7887-16.2829 14.2417-8.6107 6.351-17.52086 12.907-20.84417 21.612-5.72935 15.025 7.15189 24.687 18.52557 33.232 1.1194.838 2.224 1.675 3.2986 2.497 4.6624 3.754 9.0637 7.809 13.1748 12.137 8.4285 8.466 17.1405 17.226 30.1084 21.499 6.9918 2.314 14.2085 4.394 21.8285 6.592 20.29 5.87 41.253 11.918 57.81 22.348 1.628 1.029 3.673 2.454 6.031 4.098 10.002 6.977 24.915 17.389 36.666 17.414 2.129.077 4.249-.318 6.2-1.155 1.951-.838 3.684-2.097 5.069-3.682 5.77-6.533 9.073-32.97 8.819-39.911Zm-9.953 38.942c-10.522 11.926-32.69-3.554-45.931-12.792-2.373-1.659-4.433-3.098-6.091-4.142-16.736-10.548-37.803-16.625-58.1983-22.525-7.6051-2.198-14.8068-4.277-21.7837-6.562-12.6243-4.17-21.202-12.798-29.4962-21.147-4.1615-4.372-8.6125-8.47-13.324-12.269-1.0746-.822-2.1941-1.659-3.3285-2.511-10.9558-8.223-23.37425-17.547-18.02089-31.563 3.17289-8.295 11.90339-14.719 20.34929-20.939 6.1248-4.511 12.4593-9.183 16.5675-14.519 8.8163-11.4316 29.9331-34.6536 56.0819-34.5983 5.3039.0258 10.5589.9893 15.5129 2.8443 7.854 3.0564 15.536 6.5184 23.016 10.3714 10.958 5.6483 22.285 10.5831 33.906 14.7723 4.601 1.7081 9.361 5.9936 13.18 9.4423.627.558 1.224 1.101 1.806 1.615 14.205 12.563 14.889 14.498 17.811 31.665 1.535 8.964 1.132 15.859.665 23.838-.124 2.05-.248 4.173-.343 6.413-.361 8.125 1.37 16.226 3.042 24.049 1.577 6.456 2.593 13.032 3.037 19.656.282 7.732-3.287 33.055-8.458 38.901Z"/><path opacity=".5" d="M200.703 197.018c-.962-5.35-2.274-10.635-3.927-15.821-2.077-7.033-4.229-14.3-4.378-21.402-.041-1.728-.067-3.382-.079-4.978.145-7.129-.45-14.254-1.777-21.265-2.973-14.619-4.192-17.447-16.308-28.498-.537-.485-1.074-.998-1.626-1.512-3.537-3.287-7.535-7.0148-11.748-8.7075-8.977-3.5769-16.579-7.0632-22.822-9.9902l-2.958-1.3825c-7.844-3.9234-15.942-7.3398-24.242-10.2276C78.9258 62.888 55.0856 94.0401 48.5305 103.836c-3.1351 4.694-8.0481 8.842-12.7814 12.859-6.5755 5.549-13.3609 11.29-15.6646 18.635-4.0052 12.833 7.2346 21.085 17.1459 28.369.8807.631 1.7315 1.263 2.5823 1.894 3.9949 3.128 7.8014 6.48 11.4002 10.04 6.9226 6.618 14.0988 13.442 24.0175 17.357.7469.295 1.5088.575 2.3006.84 5.7518 1.915 11.6983 3.714 18.0033 5.616 17.7047 5.367 36.0077 10.897 50.8497 19.64 1.522.897 3.344 2.087 5.464 3.468 8.525 5.538 21.215 13.793 31.471 13.815 1.907.068 3.808-.264 5.573-.975 1.766-.711 3.355-1.784 4.662-3.147 6.174-6.43 8.226-28.301 7.149-35.229Zm-8.238 34.231c-9.411 9.834-28.431-2.535-39.792-9.924-2.12-1.381-3.971-2.585-5.524-3.496-14.991-8.832-33.384-14.391-51.178-19.773-6.2901-1.902-12.2216-3.701-17.9584-5.616-.762-.251-1.5089-.531-2.2259-.81-9.6498-3.813-16.7067-10.534-23.5249-17.035-3.6457-3.606-7.502-7.003-11.5495-10.171-.8359-.617-1.7016-1.263-2.5823-1.895-9.5232-6.99-20.3152-14.919-16.6112-26.771 2.1682-6.936 8.8038-12.545 15.1997-17.949 4.8231-4.089 9.8111-8.31 13.0661-13.165 5.5201-8.2609 23.6181-32.0748 48.3167-32.0226 4.1737.0172 8.3167.6935 12.2697 2.0028 8.238 2.8706 16.276 6.2623 24.064 10.1538l2.957 1.3829c6.273 2.9417 13.89 6.4278 22.897 10.0341 3.959 1.5898 7.853 5.215 11.285 8.414.567.514 1.104 1.027 1.626 1.511 11.877 10.832 12.948 13.308 15.876 27.722 1.305 6.92 1.89 13.951 1.748 20.986.012 1.611.038 3.265.079 4.993.148 7.293 2.33 14.662 4.437 21.783 1.631 5.124 2.928 10.345 3.883 15.631.988 6.357-1.094 28.11-6.758 34.014Z"/><path opacity=".7" d="M191.443 186.428c-1.232-4.088-2.943-8.206-4.593-12.192-2.692-6.478-5.235-12.604-5.94-18.667-.146-1.289-.278-2.534-.41-3.764-.537-6.111-1.523-12.176-2.95-18.148-2.964-11.866-4.407-15.017-14.344-24.482-.417-.411-.865-.837-1.313-1.277-2.983-2.891-6.355-6.163-9.955-7.796-3.375-1.545-6.601-3.045-9.708-4.4868-3.36-1.559-6.571-3.0593-9.738-4.4862-7.616-3.6966-15.542-6.7457-23.692-9.1135-22.9505-6.0959-41.9774 11.8152-51.2997 29.0005-2.5271 4.153-5.5963 7.966-9.13 11.343-4.7954 5.026-9.3359 9.761-10.62 15.805-2.2511 10.64 7.377 17.484 15.8707 23.52l1.7465 1.248c3.3586 2.423 6.522 5.227 9.5959 7.927 6.0433 5.357 12.2955 10.891 20.6457 14.174.6274.25 1.2698.486 1.9271.721 4.437 1.518 9.0387 2.992 13.9238 4.554 15.224 4.878 30.956 9.92 44.157 17.034 1.359.735 3.002 1.705 4.719 2.719 7.51 4.423 17.753 10.448 26.29 10.466 1.723.061 3.441-.22 5.051-.825 1.609-.606 3.077-1.524 4.316-2.699 6.562-6.311 7.483-23.851 5.45-30.575Zm-6.509 29.534c-8.241 7.919-23.635-1.148-33.818-7.159-1.747-1.014-3.39-1.983-4.778-2.733-13.321-7.188-29.127-12.259-44.411-17.152-4.8707-1.562-9.4723-3.036-13.9093-4.554-.6275-.221-1.2549-.442-1.8524-.677-8.0963-3.209-14.259-8.655-20.2128-13.909-3.0891-2.835-6.3269-5.51-9.7003-8.015l-1.7465-1.263c-8.1354-5.772-17.3457-12.322-15.2909-22.04 1.2085-5.635 5.5992-10.238 10.2446-15.089 3.6341-3.467 6.7846-7.389 9.3699-11.665 7.8362-14.464 22.7154-29.4848 40.9104-29.4463 2.9293.0136 5.8433.4037 8.6693 1.1604 8.066 2.3536 15.912 5.3779 23.452 9.0397 3.167 1.427 6.378 2.9273 9.724 4.4718 3.121 1.4561 6.347 2.9564 9.738 4.5014 3.345 1.529 6.627 4.699 9.521 7.502.448.44.896.866 1.328 1.277 9.713 9.274 11.007 12.088 13.927 23.793 1.409 5.91 2.381 11.911 2.906 17.958.131 1.23.278 2.475.425 3.778.719 6.268 3.425 12.761 6.028 19.048 1.636 3.957 3.331 8.031 4.548 12.06 1.9 6.271 1.026 23.254-5.072 29.113Z"/><path d="M182.166 175.836c-1.563-3.196-3.484-6.421-5.361-9.544-3.158-5.278-6.137-10.262-7.383-14.965-.356-1.363-.697-2.666-1.023-3.941-1.141-4.41-2.208-8.57-3.842-13.626-2.955-9.245-4.831-12.836-12.364-20.466l-.94-.968c-2.376-2.698-5.141-5.041-8.207-6.958-6.436-3.469-11.41-5.925-16.115-7.9558-6.434-2.9874-13.21-5.2088-20.184-6.6166-19.1439-3.4962-34.2928 11.7724-40.2777 27.4274-1.4049 3.344-3.1712 6.531-5.2686 9.506-2.8352 4.328-5.5204 8.422-5.7853 13.312-.4522 8.448 7.654 13.927 14.8048 18.759l.7165.484c2.6274 1.778 5.1796 3.789 7.6422 5.742 5.2087 4.111 10.5966 8.368 17.4082 11.062.4929.206 1.0158.398 1.5386.589 2.8233.987 5.7963 2.018 8.8593 3.079 12.459 4.302 26.577 9.178 38.465 14.855 1.105.53 2.33 1.147 3.629 1.809 6.079 3.073 14.322 7.249 21.424 7.264 3.114.117 6.157-.928 8.513-2.925 7.011-6.135 6.905-19.445 3.75-25.923Zm-4.749 24.837c-7.071 6.179-19.317-.026-28.247-4.555-1.314-.676-2.554-1.294-3.659-1.823-11.963-5.706-26.126-10.597-38.63-14.914-3.062-1.061-6.02-2.092-8.844-3.079-.5079-.192-1.0158-.383-1.4938-.574-6.6025-2.606-11.9008-6.79-17.0349-10.842-2.4775-1.967-5.0446-3.993-7.7168-5.815l-.7165-.484c-6.8224-4.612-14.5703-9.842-14.1648-17.469.2491-4.495 2.8293-8.428 5.5446-12.595 2.1603-3.061 3.9771-6.342 5.4188-9.785 5.218-13.664 17.6118-27.021 33.4594-26.9875 1.726.003 3.447.1635 5.142.4795 6.86 1.3891 13.525 3.5758 19.855 6.5137 4.661 2.0163 9.589 4.4563 15.995 7.8963 2.924 1.86 5.567 4.113 7.85 6.694l.954.983c7.354 7.468 9.082 10.752 12.007 19.88 1.618 5.025 2.686 9.157 3.812 13.537.326 1.29.667 2.593 1.023 3.956 1.305 4.908 4.329 9.98 7.546 15.346 1.847 3.094 3.769 6.289 5.302 9.426 2.887 5.937 2.994 18.602-3.402 24.211Z"/><path d="M169.151 166.056c-.715-1.173-1.385-2.287-1.936-3.327-.622-1.218-1.168-2.471-1.637-3.752-.603-1.768-1.396-3.468-2.366-5.072-.746-1.085-1.568-2.119-2.46-3.094-1.1-1.154-2.06-2.429-2.862-3.799-2.516-4.691-4.525-9.117-6.34-13.191-2.413-6.032-5.921-11.585-10.355-16.392l-.372-.411c-1.952-2.374-4.185-4.512-6.654-6.368-3.997-2.769-8.288-5.105-12.798-6.968-5.296-2.272-10.942-3.659-16.706-4.1055-16.0847-.9859-26.8786 12.3015-29.2259 25.9135-.3636 2.152-.8463 4.098-1.299 5.986-1.0863 4.449-2.0217 8.298-1.0144 12.531 1.3776 5.831 7.125 9.781 13.3958 13.631 1.7021 1.043 3.3592 2.13 5.0313 3.217 4.6301 3.252 9.5892 6.03 14.7982 8.29.388.147.777.294 1.165.456 9.008 3.358 20.331 7.847 31.28 12.175l5.303 2.106c.777.294 1.553.618 2.33.927 4.9 2.001 10.382 4.238 15.884 4.25.493.001 1.001-.027 1.51-.055 2.535-.115 4.953-1.076 6.853-2.724 1.106-.915 1.996-2.055 2.608-3.341.612-1.285.932-2.686.937-4.104.01-4.349-2.716-8.864-5.07-12.779Zm.511 19.153c-1.657 1.418-3.758 2.24-5.956 2.33-5.637.428-11.253-1.868-16.706-4.076-.791-.324-1.568-.633-2.33-.942l-5.318-2.105c-10.949-4.328-22.272-8.818-31.295-12.19-.388-.147-.762-.294-1.135-.442-5.119-2.221-9.9921-4.95-14.5442-8.142-1.6721-1.102-3.3441-2.189-5.0612-3.247-6.002-3.688-11.4957-7.433-12.7399-12.721-.9184-3.897-.0132-7.585 1.0129-11.858.4677-1.917.9504-3.893 1.329-6.089 2.1506-12.529 11.776-24.764 26.1584-24.733.494.001 1.002.002 1.495.047 5.599.429 11.085 1.777 16.228 3.987 4.405 1.835 8.6 4.121 12.514 6.821 2.366 1.793 4.509 3.851 6.385 6.134l.373.41c4.323 4.701 7.749 10.124 10.116 16.011 1.815 4.104 3.839 8.559 6.37 13.279.855 1.47 1.881 2.838 3.056 4.077.845.927 1.627 1.907 2.341 2.933.913 1.517 1.662 3.123 2.232 4.793.489 1.339 1.055 2.651 1.695 3.928.581 1.07 1.251 2.199 1.981 3.386 3.665 6.085 7.821 12.975 1.799 18.409Z"/><path d="M158.068 161.011c-.819-.84-1.581-1.732-2.282-2.67-1.138-1.871-2.018-3.882-2.618-5.979-1.025-3.077-2.094-6.257-4.989-8.723-3.974-3.133-7.483-6.792-10.427-10.872-.939-1.363-1.863-2.771-2.787-4.178-4.947-7.537-10.073-15.323-19.155-18.637-8.635-3.137-17.1739-2.188-23.4339 2.601-6.0054 4.615-8.9072 12.002-7.9386 20.263 1.9374 16.359 15.9495 21.909 29.4975 27.267.941.368 1.867.736 2.793 1.119l.777.309c2.749 1.148 5.556 2.457 8.26 3.707 7.587 3.531 15.443 7.178 23.933 8.28 1.535.219 3.083.339 4.634.361 2.187.159 4.367-.387 6.208-1.554.525-.403.959-.909 1.274-1.486.316-.576.505-1.211.557-1.863.321-3.03-2.125-5.641-4.303-7.945Zm1.547 10.15c-2.411 1.855-7.717 1.155-9.72.888-8.265-1.087-16.002-4.676-23.484-8.147-2.719-1.265-5.541-2.574-8.32-3.737l-.791-.324c-.927-.368-1.868-.736-2.794-1.118-13.16-5.197-26.7533-10.585-28.5731-26.08-.9099-7.733 1.7666-14.638 7.3676-18.931 5.8257-4.483 13.8415-5.344 21.9825-2.384 8.62 3.137 13.612 10.717 18.425 18.063.939 1.408 1.862 2.815 2.801 4.194 3.02 4.18 6.614 7.932 10.681 11.15 2.596 2.217 3.547 5.06 4.557 8.078.635 2.225 1.576 4.354 2.796 6.331.74 1.009 1.552 1.965 2.431 2.86 1.954 2.069 4.162 4.431 3.902 6.803-.028.457-.155.904-.372 1.31s-.52.762-.889 1.044Z"/><path opacity=".3" d="M204.693 271.184c-3.933.723-14.495-2.886-23.061-6.491-5.439-2.289-9.927-6.022-14.268-9.633-3.57-3.178-7.462-5.99-11.617-8.392-7.588-3.799-15.431-7.091-23.474-9.853-2.407-.889-4.782-1.766-7.086-2.649-10.405-3.99-21.152-7.578-31.5444-11.048-13.8441-4.621-28.1587-9.4-41.8128-15.18l-.5927 1.344c13.7079 5.804 28.0517 10.592 41.9229 15.222 10.377 3.465 21.108 7.047 31.482 11.025 2.309.886 4.691 1.765 7.104 2.656 7.977 2.739 15.757 6.003 23.285 9.769 4.063 2.356 7.872 5.111 11.365 8.223 4.425 3.68 9.001 7.486 14.646 9.862 3.923 1.651 16.385 6.682 22.513 6.695.472.005.944-.031 1.409-.11 8.347-1.508 11.823-14.407 12.496-21.018 1.863-18.33.016-37.818-1.77-56.664-.243-2.564-.48-5.099-.711-7.605-.411-7.594-.156-15.209.761-22.761 1.107-12.215 2.251-24.847-1.808-35.706l-1.404.503c3.944 10.553 2.815 23.019 1.723 35.074-.927 7.638-1.182 15.339-.762 23.02.228 2.505.466 5.041.712 7.61 1.78 18.778 3.62 38.194 1.771 56.384-.634 6.231-3.807 18.373-11.279 19.723Z"/><path opacity=".5" d="M488.822 807.048c-2.223 18.166-3.594 36.276 2.312 56.421-.464.175-.942.335-1.421.481-6.01-20.41-4.624-38.71-2.371-57.081 2.146-17.434 7.32-31.26 16.139-50.701 15.519-34.215 34.84-76.812 16.49-115.125-10.016-20.931-27.308-37.088-44.033-52.718-1.642-1.54-3.298-3.081-4.924-4.622-6.854-6.656-13.337-13.669-19.42-21.009-9.171-10.664-17.835-20.741-29.433-29.156-8.643-6.256-12.994-12.839-18.493-21.168-.804-1.231-1.639-2.478-2.503-3.768-3.423-4.834-7.195-9.422-11.288-13.729-3.681-3.926-7.131-8.055-10.333-12.365-6.916-9.649-13.143-19.941-19.161-29.91-4.722-7.786-9.593-15.834-14.749-23.518-2.459-3.665-4.783-7.507-7.047-11.216-4.812-7.931-9.803-16.142-16.276-23.037-11.425-12.162-23.482-29.92-36.869-54.312-1.95-3.548-4.111-6.803-6.391-10.234-1.52-2.288-3.099-4.648-4.604-7.097-8.612-14.267-14.086-30.137-16.074-46.596-1.028-8.319 2.008-15.838 4.94-23.109.962-2.385 1.954-4.843 2.782-7.286 2.349-7.56 4.125-15.279 5.313-23.094.606-3.396 1.226-6.909 1.937-10.304 7.313-35.111 11.893-64.313-.855-93.8-1.925-4.798-3.518-9.717-4.767-14.725-1.323-5.4241-3.101-10.7318-5.317-15.8688-2.582-5.2367-5.523-10.2963-8.803-15.1441l-.298-.4542c-1.833-2.8447-3.665-5.6891-5.349-8.4306-2.935-4.7942-6.199-9.2963-9.359-13.637-3.443-4.7367-6.991-9.6347-10.148-14.927-1.818-3.0495-3.605-6.2306-5.347-9.3092-3.647-6.7215-7.644-13.2544-11.978-19.57277l-.7-.98238c-.343-.48404-.686-.96807-1.028-1.43711.612.00129 1.225.01723 1.838.01853l.403.57175.715.99742c4.363 6.35466 8.385 12.92676 12.052 19.68976 1.743 3.0784 3.53 6.245 5.347 9.2796 3.113 5.2486 6.646 10.1173 10.059 14.8246 3.175 4.3701 6.454 8.8868 9.434 13.7395 1.668 2.7124 3.501 5.5568 5.274 8.2988l.358.5427c3.305 4.9094 6.275 10.0271 8.891 15.3198 2.246 5.2149 4.055 10.6005 5.407 16.1027 1.225 4.944 2.793 9.801 4.692 14.535 12.912 29.868 8.302 59.289.943 94.649-.71 3.396-1.331 6.894-1.936 10.275-1.201 7.885-2.992 15.672-5.359 23.299-.843 2.487-1.85 4.96-2.812 7.359-2.992 7.432-5.818 14.454-4.849 22.407 1.967 16.252 7.376 31.923 15.881 46.01 1.49 2.434 3.055 4.78 4.575 7.067 2.205 3.299 4.47 6.716 6.451 10.322 13.327 24.29 25.309 41.959 36.645 54.019 6.577 7.013 11.613 15.281 16.469 23.272 2.249 3.709 4.573 7.536 7.017 11.172 5.171 7.713 10.057 15.776 14.779 23.576 6.004 9.94 12.215 20.203 19.087 29.822 3.179 4.257 6.599 8.337 10.244 12.219 4.131 4.367 7.942 9.013 11.407 13.905.879 1.29 1.698 2.551 2.518 3.768 5.424 8.211 9.701 14.692 18.119 20.801 11.748 8.503 20.457 18.653 29.688 29.391 6.06 7.29 12.507 14.263 19.315 20.891 1.626 1.541 3.282 3.082 4.923 4.623 16.83 15.717 34.212 31.963 44.362 53.157 18.632 38.914-.838 81.848-16.493 116.326-8.744 19.309-13.887 33.047-16.018 50.291Z"/><path opacity=".3" d="M476.199 693.34c-1.479 6.469-4.81 11.616-8.035 16.587-1.949 2.899-3.723 5.907-5.313 9.009-5.587 11.57-8.141 24.142-10.62 36.305-2.494 12.264-5.078 24.939-10.77 36.67-4.326 8.937-10.264 16.89-15.992 24.594-6.943 9.327-14.126 18.976-18.711 30.592-1.985 5.019-3.731 10.257-5.431 15.334-2.363 7.067-4.816 14.383-7.926 21.258-.286.644-.586 1.288-.901 1.931h-.015c-.494-.087-.983-.2-1.465-.34.346-.731.691-1.448 1.022-2.179 3.065-6.817 5.503-14.089 7.866-21.127 1.7-5.092 3.461-10.359 5.461-15.407 4.645-11.806 11.888-21.528 18.891-30.928 5.698-7.646 11.576-15.54 15.856-24.346 5.602-11.57 8.172-24.157 10.651-36.334 2.493-12.25 5.063-24.91 10.74-36.641 1.604-3.164 3.408-6.226 5.403-9.169 3.3-5.089 6.405-9.899 7.825-16.119 3.713-16.245-6.867-32.008-14.586-43.504-5.022-7.492-9.76-14.97-14.364-22.213-4.678-7.375-9.52-14.999-14.632-22.609-2.026-3.006-4.173-6.012-6.453-9.18-7.512-10.499-15.308-21.351-18.75-33.145-.854-3.099-1.497-6.251-1.923-9.434-.944-6.049-1.754-11.278-6.421-17.189-7.067-8.932-14.103-18.098-20.902-26.942-6.798-8.843-13.834-17.995-20.886-26.927-4.756-5.999-9.812-11.91-14.688-17.602-6.01-7.011-12.213-14.272-17.938-21.81-19.558-25.753-44.063-59.453-60.034-91.743-4.853-9.806-12.19-18.226-19.274-26.353-5.831-6.689-11.841-13.598-16.399-21.192-10.189-17.021-5.402-38.36-1.189-57.181.649-2.897 1.283-5.722 1.842-8.459l.892-4.303c7.057-34.277 12.649-61.353-.134-95.526-1.352-3.604-2.525-7.37-3.668-11.004-1.695-5.894-3.79-11.67-6.271-17.291l1.362-.612c2.51 5.678 4.63 11.513 6.345 17.467 1.128 3.619 2.301 7.37 3.639 10.931 12.916 34.568 7.022 63.181.191 96.317l-.891 4.302c-.559 2.752-1.194 5.591-1.843 8.489-4.167 18.558-8.878 39.603 1.013 56.126 4.483 7.491 10.464 14.342 16.25 20.972 7.143 8.215 14.54 16.694 19.482 26.676 15.926 32.187 40.371 65.814 59.885 91.522 5.695 7.495 11.883 14.726 17.878 21.723 4.892 5.721 9.962 11.633 14.718 17.661 7.082 8.932 14.103 18.083 20.901 26.927 6.813 8.858 13.835 18.01 20.902 26.942 4.905 6.204 5.79 11.872 6.719 17.862.424 3.122 1.051 6.215 1.878 9.258 3.383 11.546 11.089 22.295 18.542 32.692 2.28 3.182 4.441 6.188 6.483 9.223 5.126 7.625 9.968 15.264 14.647 22.639 4.588 7.228 9.341 14.705 14.348 22.169 7.869 11.73 18.643 27.786 14.793 44.631Z"/><path opacity=".4" d="M509.198 705.592c-4.882 24.003-19.716 45.584-34.07 66.462-6.3 9.167-12.674 18.423-18.242 27.972-.506-.097-1.005-.225-1.494-.384 5.628-9.71 12.092-19.111 18.497-28.41 14.264-20.747 29.023-42.211 33.844-65.921 5.336-26.242-2.024-51.589-23.192-79.761l-.85-1.129c-4.084-5.456-8.721-11.63-13.03-16.588-6.83-7.863-13.782-14.935-20.51-21.787-13.977-14.232-27.179-27.673-38.096-46.57-8.922-15.436-20.928-28.669-31.532-40.332-7.473-8.23-13.552-17.658-19.437-26.763-2.786-4.311-5.662-8.782-8.658-13.079-4.904-7.435-9.12-15.284-12.596-23.454-4.107-8.94-8.363-18.174-14.938-26.519-5.069-6.439-10.796-12.571-16.345-18.513-9.397-10.08-19.137-20.511-26.017-32.766-3.142-5.585-5.206-12.222-7.21-18.625-3.474-11.165-7.066-22.711-16.47-29.656-2.732-2.027-5.509-3.804-8.211-5.523-11.6-7.389-21.633-13.78-15.162-32.83 1.909-5.154 4.24-10.149 6.97-14.935 2.829-4.941 5.212-10.115 7.12-15.462 3.177-9.789 3.525-18.852 3.905-28.456.175-4.568.365-9.297.884-14.172 3.085-29.746 3.514-61.168-14.2-89.523-2.891-4.604-4.434-9.966-5.932-15.1526-1.161-4.8353-2.929-9.5112-5.262-13.9212-3.411-5.8202-8.767-11.2636-13.943-16.5165-1.492-1.511-2.939-2.9933-4.311-4.4454-4.167-4.233-8.608-8.1991-13.295-11.8738-4.625-3.6392-9.02-7.5505-13.161-11.7122-2.282-2.3917-4.564-4.9149-6.756-7.35-10.082-11.1935-20.522-22.75338-36.048-26.47602l.347-1.41955335C157.801 3.82665 168.375 15.5777 178.621 26.9321c2.193 2.4207 4.46 4.944 6.712 7.3059 4.108 4.115 8.463 7.9869 13.041 11.5951 4.737 3.7139 9.222 7.7242 13.43 12.0056 1.357 1.4378 2.819 2.9197 4.296 4.4164 5.236 5.3263 10.651 10.8285 14.166 16.8098 2.384 4.5166 4.201 9.2993 5.411 14.2436 1.222 5.1667 3.157 10.1465 5.753 14.8005 17.937 28.722 17.524 60.436 14.408 90.432-.504 4.83-.694 9.53-.869 14.083-.38 9.693-.744 18.858-3.98 28.837-1.928 5.43-4.341 10.682-7.211 15.696-2.698 4.714-4.999 9.635-6.88 14.716-6.095 17.982 3.012 23.8 14.568 31.159 2.717 1.719 5.524 3.512 8.285 5.567 9.792 7.225 13.459 19.005 17.007 30.389 2.064 6.638 4.009 12.909 7.076 18.362 6.806 12.094 16.472 22.452 25.824 32.472 5.563 5.972 11.32 12.133 16.419 18.601 6.695 8.492 10.98 17.814 15.116 26.828 3.45 8.083 7.62 15.853 12.463 23.219 3.025 4.326 5.901 8.798 8.687 13.123 5.856 9.076 11.905 18.445 19.288 26.572 10.664 11.722 22.73 25.013 31.726 40.597 10.828 18.736 23.97 32.102 37.873 46.276 6.743 6.852 13.709 13.954 20.569 21.846 4.339 5.002 8.99 11.205 13.09 16.661l.865 1.144c21.421 28.524 28.87 54.237 23.444 80.903Z"/><path d="M750.929 444.609c-2.658-8.118-8.043-13.913-15.325-20.093-4.984-4.242-11.137-7.535-17.08-10.724-2.822-1.5-5.466-2.926-8.019-4.439-8.753-5.495-18.019-10.162-27.673-13.94-15.207-5.669-28.448-15.258-39.075-22.983-4.172-3.166-8.512-6.112-13.003-8.827-2.084-1.313-4.015-2.844-5.761-4.566-5.252-4.74-11.191-10.112-19.977-5.475-13.457 7.132-17.041 25.617-19.415 37.839l-.257 1.39c-1.072 4.68-2.445 9.289-4.112 13.799-1.229 3.296-2.716 6.494-4.447 9.567-2.15 3.651-3.793 7.567-4.884 11.644-.197.952-.483 1.962-.769 3.015-1.327 4.829-2.97 10.844.757 15.918 1.726 2.289 3.847 4.265 6.266 5.841 8.435 5.626 19.164 8.196 28.623 10.471 3.437.827 6.664 1.61 9.623 2.48 3.511.834 7.104 1.294 10.716 1.37 2.198.136 4.276.273 6.039.511 1.719.252 3.468.446 5.217.655 5.548.408 11.021 1.502 16.289 3.256 5.378 2.194 10.541 4.861 15.427 7.968 2.239 1.323 4.554 2.704 6.883 3.983 7.41 4.318 15.298 7.798 23.51 10.372l.493.148c4.467 1.487 9.126 2.349 13.839 2.562 3.237.022 6.445-.609 9.423-1.854 12.675-5.303 20.093-20.354 22.694-26.586l.195-.469c3.111-7.446 6.313-15.141 3.803-22.833Zm-5.192 22.274-.195.468c-2.525 6.071-9.719 20.713-21.9 25.797-7.887 3.293-14.864 1.316-22.245-.764l-.508-.148c-8.103-2.549-15.885-5.989-23.196-10.255-2.3-1.263-4.599-2.63-6.824-3.938-4.965-3.151-10.208-5.862-15.665-8.101-5.385-1.794-10.978-2.917-16.648-3.344-1.749-.194-3.483-.388-5.187-.641-1.823-.252-3.931-.389-6.158-.525-3.496-.072-6.974-.511-10.373-1.311-3.003-.885-6.261-1.668-9.698-2.495-9.339-2.245-19.919-4.786-28.144-10.265-2.275-1.481-4.269-3.338-5.894-5.489-3.309-4.502-1.832-9.901-.521-14.672.287-1.083.573-2.122.784-3.102 1.068-3.944 2.665-7.732 4.75-11.265 1.769-3.137 3.285-6.404 4.536-9.771 1.694-4.575 3.083-9.253 4.158-14.004l.272-1.39c2.314-11.944 5.807-30.019 18.65-36.815 1.775-1.006 3.784-1.551 5.834-1.584 4.844.01 8.679 3.474 12.409 6.849 1.834 1.795 3.861 3.39 6.045 4.757 4.44 2.687 8.731 5.604 12.853 8.74 10.703 7.768 24.018 17.431 39.434 23.174 9.567 3.744 18.748 8.373 27.419 13.821 2.583 1.528 5.376 3.028 8.079 4.468 5.971 2.928 11.611 6.464 16.826 10.549 7.088 6.018 12.324 11.623 14.878 19.433 2.346 7.179-.765 14.625-3.771 21.823ZM596.451 902.334l-3.065-.007c-23.071-12.685-46.769-25.913-63.648-46.404-16.476-19.992-22.239-30.766-12.821-57.278 5.807-16.372 12.287-32.772 18.556-48.617 5.443-13.796 11.066-28.045 16.255-42.252 1.79-4.901 3.805-9.89 5.774-14.718 11.064-27.269 21.526-53.032-2.077-75.323-7.997-7.558-17.642-13.333-26.974-18.916-7.834-4.431-15.315-9.434-22.379-14.968-7.357-6.092-13.514-14.07-19.477-21.8-2.863-3.71-5.546-7.2-8.335-10.442-14.032-16.341-28.082-31.936-45.669-42.954-3.584-2.248-6.824-4.173-9.959-6.025-13.095-7.759-22.547-13.357-32.813-29.28-3.044-4.527-6.323-8.898-9.823-13.096-3.99-4.725-7.65-9.708-10.956-14.915-2.534-4.497-4.655-9.205-6.338-14.069-2.2-5.803-4.474-11.812-8.305-16.959-5.024-6.79-10.287-13.17-15.357-19.36-5.144-6.263-10.482-12.746-15.461-19.507-2.862-3.901-5.47-7.845-7.988-11.672-3.956-6.274-8.317-12.294-13.057-18.023-2.52-2.919-5.594-5.898-8.861-9.053-7.086-6.852-14.412-13.955-17.265-21.721-4.384-11.943 1.086-17.759 8.009-25.109.704-.745 1.424-1.52 2.158-2.309 11.12-12.042 16.292-24.901 22.275-39.794.812-2.019 1.638-4.067 2.495-6.159 1.834-4.492 3.728-8.968 5.636-13.459 12.053-28.41 24.512-57.8 20.245-88.909-1.636-10.218-3.962-20.318-6.96-30.236-2.062-7.384-4.183-15.0316-5.691-22.678-2.41-12.2021-4.519-25.3552-6.401-39.6789.508.0447 1.016.075 1.524.0908 1.853 14.1924 3.962 27.2136 6.343 39.3131 1.508 7.6024 3.614 15.206 5.661 22.575 3.018 9.975 5.358 20.135 7.005 30.412 4.311 31.505-8.223 61.085-20.351 89.685-1.894 4.476-3.788 8.952-5.622 13.429-.856 2.092-1.683 4.14-2.495 6.159-6.028 15.011-11.245 27.987-22.545 40.233-.749.804-1.468 1.564-2.173 2.324-7.103 7.525-11.794 12.509-7.707 23.616 2.75 7.459 9.956 14.429 16.923 21.179 3.267 3.17 6.37 6.178 8.935 9.156 4.791 5.769 9.193 11.838 13.177 18.169 2.503 3.798 5.096 7.742 7.943 11.599 4.964 6.731 10.272 13.2 15.416 19.463 5.085 6.189 10.348 12.599 15.402 19.404 3.95 5.323 6.254 11.419 8.498 17.31 1.655 4.782 3.736 9.411 6.219 13.836 3.281 5.143 6.901 10.071 10.837 14.752 3.541 4.238 6.855 8.654 9.928 13.228 10.057 15.616 18.912 20.862 32.305 28.797 3.151 1.866 6.406 3.791 10.004 6.053 17.767 11.137 31.891 26.804 45.998 43.233 2.818 3.271 5.517 6.791 8.394 10.502 5.903 7.67 12.016 15.59 19.239 21.579 7.008 5.481 14.429 10.435 22.199 14.821 9.392 5.628 19.112 11.447 27.243 19.122 24.304 22.966 13.18 50.397 2.417 76.92-1.954 4.813-3.983 9.787-5.758 14.674-5.19 14.221-10.828 28.486-16.27 42.282-6.255 15.844-12.735 32.214-18.542 48.572-9.207 25.927-3.861 35.909 12.571 55.872 17.028 20.667 41.189 33.94 64.544 46.772.328.176.672.367 1.015.559Z"/><path opacity=".7" d="M511.58 777.945c-8.584 21.462-8.954 33.365-1.686 53.016 7.193 19.431 17.893 35.003 32.315 51.199-.673-.046-1.345-.062-2.033-.049-14.063-15.96-24.555-31.43-31.674-50.655-7.431-20.061-7.06-32.183 1.689-54.041 3.623-9.041 7.74-18.125 12.112-27.75 11.312-24.897 23.001-50.643 25.688-76.041 3.634-34.124-19.366-58.844-39.81-76.575-4.805-4.169-9.819-8.294-14.669-12.272-7.387-6.033-15.014-12.287-22.101-18.906-6.63-6.539-12.733-13.572-18.253-21.035-2.117-2.728-4.309-5.544-6.5-8.228-8.753-10.707-18.678-18.591-29.185-26.945-10.591-8.719-20.399-18.312-29.315-28.673-15.295-17.431-27.716-37.095-36.815-58.28-3.004-7.108-8.374-12.596-13.566-17.907-3.164-3.111-6.133-6.408-8.889-9.873-5.999-8.237-11.559-16.772-16.658-25.571-2.056-3.401-4.097-6.803-6.182-10.131l-1.148-1.862c-3.512-5.97-7.488-11.667-11.893-17.039-2.788-3.213-5.458-6.044-8.174-8.656-10.204-9.832-12.944-15.182-14.588-28.671-1.744-13.008.95-26.216 7.663-37.57 5.958-10.384 9.241-21.197 12.72-32.64.572-1.858 1.129-3.717 1.716-5.604.633-2.064 1.28-4.127 1.928-6.175 9.787-31.299 19.017-60.857 10.578-91.901-.845-3.136-1.66-6.33-2.476-9.523-1.784-7.628-3.958-15.163-6.513-22.5773-1.323-3.6927-2.855-7.4004-4.327-10.9908-.877-2.1543-1.755-4.3088-2.602-6.4629-1.383-3.4876-2.587-6.6384-3.687-9.6278-1.56-4.2787-3.225-8.5283-4.831-12.6316-2.646-6.7558-5.367-13.7308-7.728-20.94-1.544-4.7326-3.044-9.6114-4.484-14.3148-.786-2.5348-1.573-5.0988-2.375-7.6629.523.0304 1.047.0608 1.57.0619.757 2.4027 1.499 4.8058 2.227 7.1796 1.454 4.7032 2.954 9.5672 4.498 14.2999 2.332 7.1505 5.052 14.1259 7.684 20.852 1.605 4.1179 3.271 8.3679 4.846 12.6613 1.1 2.9747 2.304 6.1252 3.672 9.5984.847 2.1395 1.724 4.2937 2.602 6.4479 1.472 3.6051 3.004 7.3274 4.341 11.0347 2.675 7.3264 4.661 15.1504 6.573 22.7094.801 3.193 1.601 6.387 2.461 9.508 8.543 31.44-.748 61.202-10.595 92.706-.647 2.049-1.295 4.112-1.927 6.175-.587 1.873-1.145 3.746-1.717 5.59-3.494 11.53-6.807 22.417-12.855 32.947-6.551 11.085-9.181 23.978-7.482 36.677 1.616 13.225 4.131 18.151 14.157 27.807 2.745 2.641 5.46 5.502 8.264 8.744 4.457 5.43 8.479 11.19 12.027 17.23l1.162 1.862c2.071 3.328 4.126 6.729 6.182 10.145 5.073 8.753 10.604 17.244 16.569 25.439 2.719 3.418 5.648 6.671 8.77 9.741 5.296 5.414 10.755 11.004 13.879 18.347 9.028 21.049 21.365 40.585 36.561 57.899 8.864 10.291 18.606 19.824 29.122 28.496 10.566 8.398 20.551 16.326 29.408 27.165 2.206 2.699 4.398 5.515 6.53 8.243 5.466 7.408 11.514 14.388 18.089 20.874 7.058 6.575 14.669 12.814 22.026 18.847 4.85 3.978 9.88 8.103 14.715 12.287 20.697 17.965 43.995 43.038 40.3 77.82-2.718 25.633-14.466 51.481-25.809 76.495-4.372 9.596-8.489 18.68-12.097 27.677Z"/><path d="M447.431 199.356c-1.278-10.208-6.779-17.673-15.488-21.001-10.486-4.019-24.127-1.236-33.953 6.913-7.909 6.572-14.392 17.95-18.581 25.936-4.685 8.936-7.22 19.547-9.664 29.82l-.393 1.683c-2.037 8.62-3.311 16.964-4.555 25.029-.243 1.58-.485 3.132-.713 4.669-.5 3.191-1.121 6.411-1.696 9.543-1.398 6.601-2.346 13.286-2.839 20.01-.689 14.011 4.007 27.053 8.97 40.856l.223.601c4.294 11.957 9.346 19.435 15.423 22.874l.463.265c1.63 1.12 3.542 1.782 5.528 1.915.998-.006 1.987-.193 2.916-.55 1.497-.559 2.844-1.444 3.94-2.589 1.096-1.144 1.911-2.518 2.384-4.016.934-3.043 1.453-6.192 1.546-9.368l.185-2.489c.159-3.353.536-6.692 1.128-9.998 1.75-7.906 4.26-15.632 7.496-23.075l.647-1.565c5.2-12.259 10.58-24.943 16.616-36.585 6.411-12.359 14.496-30.879 16.584-48.914.426-3.66 1.182-7.304 1.922-10.846.317-1.507.635-3.015.922-4.522.672-3.33 1.069-6.708 1.189-10.101.046-1.501-.021-3.004-.2-4.495Zm-2.454 14.329c-.287 1.493-.604 2.986-.922 4.493-.74 3.572-1.511 7.26-1.952 10.978-2.058 17.815-10.067 36.16-16.433 48.416-6.051 11.686-11.447 24.399-16.647 36.688l-.661 1.55c-3.267 7.534-5.802 15.353-7.572 23.353-.608 3.374-.995 6.782-1.158 10.203l-.185 2.474c-.462 6.12-.94 12.444-6.925 14.701-.75.303-1.552.46-2.363.464-1.725-.134-3.379-.73-4.781-1.724l-.477-.264c-5.749-3.248-10.577-10.477-14.753-22.097l-.223-.601c-4.904-13.657-9.555-26.566-8.882-40.285.487-6.66 1.426-13.281 2.81-19.819.59-3.132 1.195-6.381 1.696-9.587.242-1.537.485-3.088.728-4.669 1.228-8.051 2.502-16.365 4.525-24.912l.407-1.697c2.415-10.172 4.92-20.694 9.529-29.47 4.129-7.883 10.522-19.1 18.221-25.482 6.346-5.318 14.393-8.29 22.744-8.401 3.309-.025 6.594.558 9.684 1.719 8.186 3.136 13.359 10.176 14.563 19.813.167 1.429.229 2.867.185 4.305-.116 3.309-.503 6.603-1.158 9.851ZM903.863 741.787c-1.022 9.295-5.439 19.081-9.721 28.546-2.752 5.765-5.152 11.686-7.185 17.731-3.891 13.312-6.588 26.931-8.059 40.703-.477.411-1.024.737-1.616.963 1.474-14.237 4.232-28.318 8.24-42.079 2.059-6.104 4.483-12.083 7.261-17.907 4.222-9.362 8.594-19.045 9.601-28.107 1.159-10.466-6.677-23.398-13.444-32.402-7.573-10.075-17.822-13.67-28.667-17.456-4.064-1.428-8.277-2.887-12.399-4.741-7.976-3.574-16.026-7.53-23.822-11.354-13.859-6.808-28.211-13.852-42.896-19.14-11.204-4.021-22.903-7.369-34.214-10.614-17.436-4.986-35.456-10.149-52.303-17.93-6.198-2.869-12.247-5.971-18.101-8.97-8.363-4.294-17.009-8.734-26.091-12.458-1.091-.456-3.629-1.837-7.467-3.939-14.963-8.188-47.128-25.797-63.962-25.833-2.438-.116-4.861.431-7.001 1.581-2.635 1.591-3.822 4.444-3.622 8.691.329 6.853 12.053 19.118 19.81 27.232 2.118 2.215 3.952 4.137 5.205 5.575 26.247 30.233 30.087 58.178 13.7 99.683-3.383 8.544-6.915 17.146-10.342 25.441-9.5 23.056-19.316 46.902-26.337 71.618-6.63 23.34-.394 29.532 19.136 41.258 16.503 10.108 32.274 21.321 47.2 33.557-.628.233-1.242.436-1.646.582-14.661-11.993-30.148-22.984-46.349-32.896-19.814-11.902-26.646-18.696-19.775-42.885 7.036-24.804 16.882-48.679 26.381-71.779 3.427-8.295 6.96-16.882 10.343-25.426 16.147-40.92 12.38-68.455-13.449-98.204-1.223-1.423-3.043-3.316-5.161-5.531-7.906-8.26-19.854-20.761-20.211-28.156-.229-4.759 1.229-8.123 4.343-10.006 13.384-8.113 54.792 14.538 72.473 24.21 3.658 2.014 6.301 3.454 7.317 3.881 9.142 3.739 17.818 8.194 26.196 12.502 5.839 2.999 11.872 6.101 18.041 8.94 16.758 7.737 34.717 12.885 52.094 17.857 11.34 3.245 23.054 6.608 34.303 10.644 14.775 5.317 29.157 12.375 43.061 19.213 7.781 3.809 15.816 7.765 23.762 11.325 4.077 1.824 8.245 3.283 12.279 4.697 11.07 3.86 21.528 7.527 29.384 17.955 6.916 9.21 14.931 22.493 13.71 33.428Z"/><path d="M882.773 739.547c-.737 8.93-4.69 18.234-8.522 27.231-2.059 4.871-4.013 9.45-5.473 13.942-7.36 22.665-9.622 44.711-12.02 68.046-.764 7.495-1.559 15.225-2.533 22.939-.755 6-2.511 11.838-5.196 17.281-.478-.103-.956-.236-1.419-.384 2.668-5.378 4.404-11.154 5.136-17.091.973-7.685 1.768-15.414 2.532-22.894 2.399-23.409 4.66-45.528 12.081-68.339 1.475-4.551 3.429-9.173 5.518-14.06 3.772-8.894 7.695-18.081 8.402-26.792.629-7.451-3.252-17.123-11.569-28.738-6.424-8.989-15.177-12.653-24.423-16.524-3.361-1.412-6.841-2.869-10.261-4.604-5.645-2.882-11.364-5.984-16.904-8.968-13.141-7.114-26.715-14.464-40.653-19.691-9.576-3.593-19.616-6.616-29.312-9.55-14.493-4.38-29.479-8.907-43.563-15.467-5.167-2.412-10.215-5-15.113-7.514-7.154-3.661-14.546-7.44-22.298-10.663-1.151-.47-3.629-1.838-7.064-3.719-12.245-6.703-38.646-21.166-52.984-21.197-2.021-.079-4.031.334-5.848 1.203-2.335 1.226-3.596 3.404-3.827 6.669-.37 4.948 6.562 14.129 11.615 20.846 1.834 2.434 3.429 4.546 4.427 6.115 8.165 12.917 13.058 24.421 15.395 36.242 2.17 10.361 2.354 21.026.543 31.453-1.383 7.34-3.467 14.537-6.222 21.496-1.158 3.014-2.33 5.999-3.503 8.998-.917 2.311-1.824 4.628-2.722 6.949l-2.435 6.218c-8.36 21.272-17.005 43.261-22.675 65.388-5.218 20.297.361 26.21 16.439 36.786 5.853 3.849 11.465 7.858 16.913 11.955-.27.424-.525.833-.81 1.228-5.448-4.097-11.09-8.12-16.942-11.969-16.348-10.768-22.478-17.252-17.065-38.355 5.716-22.214 14.376-44.247 22.75-65.563l2.436-6.203c.902-2.327 1.805-4.643 2.707-6.95 1.187-2.999 2.355-5.998 3.503-8.997 2.73-6.871 4.788-13.981 6.147-21.233 1.785-10.251 1.605-20.739-.53-30.925-2.307-11.631-7.141-22.989-15.201-35.745-.969-1.524-2.549-3.607-4.368-6.027-5.47-7.274-12.298-16.322-11.897-21.812.277-3.748 1.823-6.395 4.607-7.854 12.079-6.373 44.618 11.442 60.267 20.012 3.405 1.852 5.854 3.204 6.93 3.646 7.797 3.238 15.219 7.045 22.402 10.721 4.883 2.5 9.931 5.073 15.069 7.47 13.979 6.531 28.92 11.043 43.353 15.393 9.727 2.949 19.782 5.972 29.417 9.594 14.027 5.257 27.646 12.636 40.832 19.766 5.525 2.998 11.244 6.085 16.875 8.952 3.36 1.721 6.81 3.163 10.156 4.561 9.455 3.958 18.388 7.697 25.065 17.038 8.511 11.892 12.495 21.887 11.835 29.69Z"/><path d="M900.501 686.696c-.255.482-.481.965-.676 1.316-7.067-2.197-14.284-4.144-21.62-6.137-5.678-1.535-11.55-3.128-17.407-4.854-14.224-4.188-27.756-10.264-40.855-16.163-6.781-3.045-13.801-6.194-20.821-9.049-17.716-7.198-36.512-12.479-54.696-17.584-24.788-6.963-50.428-14.163-73.65-26.321-19.936-10.424-40.666-20.322-60.694-29.881-22.686-10.839-46.134-22.032-68.489-34.041-.508-.28-1.239-.691-2.15-1.206-6.078-3.424-24.549-13.859-29.401-10.223-1.303.978-1.532 3.086-.672 6.25 4.094 15.12 21.896 30.62 27.253 35.024l1.149.939c12.372 10.144 24.058 19.715 33.613 32.606l1.133 1.525c20.496 27.644 39.86 53.748 24.725 89.545-8.221 19.457-15.428 40.263-22.394 60.381-3.521 10.139-7.147 20.616-10.878 30.813-.947 2.605-2 5.296-3.127 8.15-3.985 10.167-8.51 21.667-8.741 31.315-.311 12.402 8.36 19.243 18.404 27.171l.598.47c6.188 4.676 12.675 8.959 19.422 12.824 3.897 2.336 7.914 4.76 11.765 7.302 4.655 3.187 9.019 6.763 13.044 10.687-.404.057-.868.144-1.421.245-.128.032-.258.056-.389.073-3.742-3.584-7.781-6.859-12.074-9.792-3.821-2.526-7.823-4.936-11.705-7.272-6.805-3.894-13.347-8.212-19.587-12.927l-.597-.47c-9.91-7.825-19.283-15.225-18.955-28.343.231-9.898 4.817-21.529 8.846-31.799 1.113-2.853 2.18-5.545 3.113-8.12 3.715-10.183 7.342-20.659 10.862-30.799 6.967-20.132 14.189-40.968 22.44-60.468 14.804-35.037-4.306-60.818-24.564-88.125l-1.133-1.525c-9.436-12.744-21.062-22.257-33.359-32.342l-1.149-.939c-5.447-4.463-23.533-20.241-27.745-35.771-1.023-3.795-.628-6.414 1.214-7.787 5.002-3.753 19.219 3.438 31.045 10.11.911.515 1.628.926 2.136 1.191 22.324 11.995 45.758 23.187 68.414 33.997 20.058 9.574 40.788 19.487 60.754 29.925 23.087 12.085 48.637 19.269 73.35 26.203 18.229 5.12 37.056 10.401 54.861 17.628 7.05 2.871 14.085 6.033 20.881 9.079 13.039 5.87 26.541 11.945 40.661 16.089 5.827 1.711 11.699 3.305 17.362 4.854 7.441 2.008 14.747 4 21.904 6.226Z"/><path d="m933.116 683.763-.511 1.376c-14.087-5.081-28.807-8.275-43.048-11.38-9.22-2.011-18.754-4.081-28.003-6.634-11.087-3.069-21.691-8.011-31.937-12.777-11.336-5.28-23.06-10.723-35.553-13.736-5.005-1.196-9.976-2.373-14.913-3.531-21.458-5.023-41.736-9.767-63.174-17.279-28.429-9.944-55.203-24.643-81.082-38.857-26.057-14.301-52.996-29.103-81.545-38.974-11.877-4.11-22.915-9.024-34.61-14.246-6.975-3.104-14.189-6.326-21.613-9.358-1.404-.574-3.226-1.486-5.332-2.545-6.765-3.396-17.01-8.543-22.487-6.431-.785.313-1.489.795-2.059 1.409-.571.615-.994 1.347-1.238 2.142-.872 2.385 4.149 10.537 14.928 24.25.522.66.939 1.188 1.222 1.569 11.909 15.447 25.644 29.459 40.918 41.743 3.642 2.893 7.463 5.814 11.164 8.634 22.195 16.885 45.136 34.358 50.38 63.126 3.619 19.833-4.951 41.763-12.499 61.119-1.909 4.887-3.714 9.495-5.293 13.987-11.72 33.198-19.94 58.848-26.646 83.184-.272.995-.543 2.005-.829 2.986-3.255 11.531-6.329 22.418.628 33.751 8.298 13.547 21.619 20.237 35.732 27.325l2.554 1.279c2.374 1.205 4.699 2.474 6.973 3.807-.55.223-1.081.492-1.586.802-1.986-1.161-4.012-2.264-6.078-3.308l-2.554-1.279c-13.665-6.867-27.792-13.969-36.328-27.868-7.27-11.875-4.121-23.055-.791-34.893.287-.995.573-1.991.844-2.986 6.707-24.365 14.942-50.044 26.661-83.272 1.595-4.521 3.399-9.144 5.309-14.03 7.488-19.181 15.983-40.921 12.437-60.344-5.155-28.226-27.857-45.508-49.828-62.232-3.702-2.819-7.537-5.741-11.179-8.648-15.378-12.357-29.203-26.458-41.187-42.007-.283-.367-.7-.895-1.207-1.54-8.275-10.546-16.548-21.823-15.164-25.641.319-.993.858-1.905 1.578-2.67.72-.765 1.604-1.366 2.588-1.758 6.106-2.359 16.291 2.758 23.728 6.493 2.076 1.044 3.868 1.955 5.212 2.5 7.439 3.046 14.668 6.269 21.658 9.373 11.665 5.208 22.688 10.107 34.49 14.202 28.669 9.915 55.667 24.731 81.785 39.077 25.818 14.185 52.533 28.854 80.858 38.753 21.363 7.484 41.596 12.212 63.009 17.236 4.947 1.152 9.908 2.319 14.928 3.531 12.627 3.042 24.426 8.529 35.822 13.824 10.201 4.751 20.745 9.664 31.713 12.689 9.204 2.552 18.708 4.622 27.913 6.618 14.301 3.12 29.065 6.329 43.242 11.439Z"/><path d="M970.609 366.546c-9.656-14.604-25.593-21.592-41.022-28.346-5.601-2.457-11.397-5.002-16.773-7.868-2.613-1.383-5.376-2.779-8.213-4.22-12.306-6.205-26.24-13.248-34.291-23.251-7.753-9.636-9.893-22.248-11.96-34.434-.841-4.951-1.712-10.078-2.957-14.869-4.24-16.466-13.864-24.774-28.02-32.843-13.394-7.627-26.696-16.221-39.551-24.521-21.961-14.191-44.654-28.852-68.731-39.342-10.366-4.517-21-9.386-31.291-14.079-38.624-17.667-78.562-35.922-120.242-43.873-8.653-1.658-16.162-.2683-22.316 4.126-16.337 11.679-20.007 42.142-22.2 60.337-2.65 22.017-7.947 44.32-13.063 65.892-6.61 27.791-13.446 56.534-14.569 84.674-.839 21.01-11.015 38.925-20.87 53.678-10.59 15.864-18.104 33.478-24.331 57.126-.543 2.064-1.146 4.185-1.734 6.336-4.746 16.917-10.111 36.116 1.891 51.267 8.573 10.838 25.886 17.478 41.168 23.339 5.482 2.105 10.651 4.092 14.952 6.108 19.64 9.178 39.759 18.284 59.205 27.081l12.218 5.531c16.22 7.355 31.961 15.208 47.194 22.81 30.018 14.955 58.364 29.085 90.499 40.018 15.522 5.275 31.502 6.172 46.959 7.039 12.961.716 26.355 1.462 39.49 4.784 17.602 4.444 31.499 14.328 44.949 23.889 6.673 4.743 13.569 9.648 20.886 13.895l.239.089c1.356.282 2.738.432 4.125.448 5.427.011 8.902-2.632 13.5-6.605 34.097 2.869 45.297-32.146 55.188-63.064 3.764-11.794 7.331-22.914 11.895-31.382 1.471-2.735 2.942-5.383 4.398-7.986 7.295-13.075 14.185-25.418 16.373-41.373 1.613-13.713 2.517-27.498 2.707-41.3.339-11.361.694-23.118 1.9-34.537 2.337-22.164 3.857-47.257-7.602-64.574Zm6.122 64.424c-1.221 11.477-1.576 23.263-1.915 34.654-.182 13.749-1.086 27.48-2.707 41.139-2.128 15.692-8.957 27.918-16.192 40.862-1.456 2.617-2.942 5.264-4.413 7.999-4.624 8.586-8.207 19.779-11.986 31.631-9.755 30.479-20.76 65.056-53.944 62.028l-.329-.03-.24.204c-5.572 4.835-9.106 7.492-16.459 6.042-7.227-4.188-14.063-9.049-20.676-13.749-13.554-9.634-27.571-19.605-45.457-24.124-13.269-3.352-26.738-4.097-39.759-4.828-15.367-.852-31.243-1.75-46.571-6.965-32.03-10.888-60.331-25.005-90.289-39.93-15.248-7.602-31.019-15.469-47.269-22.824l-12.218-5.532c-19.431-8.811-39.535-17.903-59.175-27.096-4.346-2.029-9.545-4.017-15.057-6.137-15.088-5.786-32.207-12.368-40.526-22.869-11.54-14.579-6.28-33.397-1.639-49.992.603-2.166 1.205-4.287 1.748-6.366 6.182-23.472 13.636-40.954 24.121-56.687 9.975-14.914 20.271-33.048 21.126-54.41 1.123-28.008 7.929-56.677 14.524-84.41 5.13-21.601 10.442-43.949 13.107-66.053 2.163-17.961 5.788-48.013 21.586-59.313 5.81-4.146 12.929-5.4489 21.148-3.88 41.501 7.922 81.35 26.147 119.899 43.756 10.291 4.707 20.94 9.576 31.321 14.093 23.958 10.446 46.606 25.078 68.507 39.225 12.87 8.314 26.187 16.923 39.626 24.58 16.305 9.288 23.717 17.943 27.334 31.933 1.215 4.732 2.086 9.83 2.913 14.751 2.096 12.377 4.265 25.165 12.272 35.109 8.245 10.238 22.343 17.354 34.768 23.633 2.838 1.441 5.585 2.823 8.199 4.205 5.421 2.896 11.246 5.441 16.877 7.913 15.22 6.665 30.948 13.565 40.365 27.803 11.206 16.935 9.686 41.721 7.38 63.635Z"/><path d="M924.529 373.8c-8.69-12.201-22.297-18.35-35.455-24.293-4.66-2.104-9.484-4.281-13.994-6.692-2.285-1.22-4.704-2.455-7.198-3.719-10.394-5.279-22.177-11.278-29.231-19.536-6.8-8.009-9.154-18.366-11.419-28.372-.918-4.072-1.881-8.291-3.113-12.232-3.727-11.869-10.662-19.482-24.744-27.185-15.634-8.569-30.967-18.529-45.792-28.151-17.094-11.105-34.755-22.593-52.661-31.723-8.318-4.235-16.621-8.704-24.64-13.026-9.363-5.027-18.204-9.79-27.164-14.275-3.644-1.823-7.303-3.705-10.962-5.587-22.341-11.453-45.444-23.303-71.048-26.183-31.538-3.537-37.114 36.731-40.092 58.381-2.69 19.864-7.16 39.972-11.493 59.423-1.722 7.698-3.489 15.66-5.09 23.358-3.612 17.475-6.969 34.57-8.307 51.611-1.491 18.27-10.57 33.654-20.184 47.559-6.492 9.409-11.847 19.525-15.959 30.143-2.541 6.496-4.903 13.432-7.042 20.631-.452 1.492-.919 3.014-1.386 4.551-4.773 15.525-10.18 33.114.345 47.221 7.87 10.53 23.794 17.08 37.835 22.864 4.287 1.751 8.32 3.414 11.844 5.076 17.355 8.163 35.324 15.962 52.68 23.51 4.048 1.751 8.096 3.517 12.113 5.267 5.273 2.281 10.635 4.708 15.982 7.179 10.544 4.943 21.553 9.578 32.203 14.052 4.541 1.913 9.017 3.811 13.428 5.694 20.906 9.035 42.306 16.931 64.102 23.651 14.164 4.291 28.648 5.479 42.64 6.606 5.112.421 10.404.857 15.62 1.424 6.982.712 13.904 1.906 20.714 3.573 12.701 3.204 23.497 9.171 32.396 14.579 3.255 1.983 6.51 4.084 9.66 6.111 6.207 4.171 12.642 8.007 19.276 11.491l.209.074c1.177.227 2.373.347 3.573.359 5.113.011 8.542-2.354 12.75-5.742.703.03 1.376.046 2.049.048 27.539.058 37.485-29.029 46.273-54.781 3.341-9.774 6.486-18.992 10.389-26.203 1.126-2.091 2.267-4.138 3.377-6.157 6.395-11.524 12.414-22.405 14.627-36.223 3.533-22.16 4.09-44.298 4.187-61.107.02-2.387.07-4.759.135-7.116.493-20.118-.553-40.853-11.433-56.133Zm9.938 56.1c-.065 2.357-.115 4.744-.135 7.131-.097 16.765-.654 38.83-4.171 60.902-2.168 13.569-8.127 24.348-14.462 35.755-1.111 2.019-2.251 4.066-3.377 6.158-3.963 7.312-7.138 16.603-10.494 26.436-8.863 25.956-18.9 55.395-47.109 53.71l-.299-.015-.224.175c-5.018 4.074-8.567 6.468-15.217 5.283-6.549-3.45-12.904-7.242-19.037-11.359-3.165-2.042-6.42-4.157-9.69-6.141-9.003-5.465-19.919-11.507-32.814-14.755-6.879-1.682-13.871-2.886-20.923-3.602-5.232-.582-10.538-1.018-15.666-1.425-13.916-1.141-28.311-2.299-42.326-6.561-21.737-6.712-43.081-14.588-63.937-23.592-4.406-1.883-8.902-3.781-13.443-5.694-10.635-4.474-21.629-9.11-32.158-14.022-5.347-2.486-10.724-4.913-15.997-7.209-4.033-1.751-8.07-3.507-12.113-5.267-17.356-7.534-35.31-15.332-52.65-23.48-3.555-1.677-7.617-3.355-11.904-5.107-13.877-5.71-29.591-12.186-37.208-22.378-10.092-13.522-4.807-30.744-.124-45.933.467-1.536.934-3.073 1.386-4.565 2.124-7.17 4.486-14.076 6.997-20.514 4.086-10.514 9.391-20.535 15.809-29.866 9.719-14.065 18.918-29.654 20.425-48.246 1.338-16.968 4.679-34.019 8.291-51.435 1.602-7.699 3.369-15.646 5.075-23.329 4.349-19.494 8.833-39.632 11.524-59.555 2.902-21.137 8.296-60.513 38.444-57.111 25.336 2.836 48.304 14.627 70.511 26.022 3.673 1.882 7.332 3.764 10.991 5.587 8.946 4.47 17.771 9.233 27.119 14.26 8.034 4.322 16.337 8.791 24.67 13.04 17.831 9.086 35.478 20.559 52.527 31.635 14.84 9.652 30.202 19.626 45.897 28.21 13.693 7.497 20.435 14.891 24.028 26.334 1.232 3.898 2.18 8.073 3.083 12.115 2.309 10.196 4.693 20.715 11.732 29.002 7.262 8.493 19.18 14.551 29.708 19.903 2.464 1.25 4.884 2.485 7.168 3.705 4.555 2.426 9.394 4.617 14.069 6.736 12.979 5.87 26.392 11.93 34.858 23.794 10.642 14.943 11.658 35.4 11.166 55.268ZM465.764 143.535c-16.587-10.519-42.769-9.037-58.499-1.53-8.561 4.096-17.343 13.771-25.092 22.32-2.727 2.996-5.305 5.846-7.718 8.272-8.556 8.65-12.395 20.985-16.114 32.91-.934 2.985-1.883 6.073-2.891 9.014-4.379 12.744-6.232 25.962-8.024 38.726l-.349 2.445c-1.05 6.466-2.482 12.868-4.289 19.172-2.231 8.4-4.522 17.063-4.945 25.598-.689 14.085 5.831 27.335 12.141 40.145 3.588 6.848 6.665 13.94 9.208 21.222 6.073 19.135 17.436 39.395 29.651 52.862.686.763 1.357 1.57 2.043 2.391 3.072 3.653 6.471 7.716 11.51 7.726 1.188-.009 2.366-.214 3.485-.607 7.092-2.387 8.732-7.303 8.743-12.472-.052-2.349-.267-4.693-.642-7.014-.177-1.231-.339-2.403-.441-3.516-.529-5.473-.442-10.987.261-16.442 1.703-11.076 5.252-21.802 10.505-31.752 3.769-7.371 7.075-14.876 10.275-22.117 4.321-10.327 9.225-20.411 14.689-30.205 13.761-23.515 21.054-55.991 18.601-82.747-.803-8.392 1.92-16.264 5.288-24.968l.451-1.156c2.015-4.836 3.665-9.809 4.937-14.881.571-2.438.912-4.922 1.018-7.421.317-5.148-.799-10.284-3.23-14.859-2.431-4.575-6.085-8.417-10.572-11.116Zm12.307 25.928c-.106 2.409-.432 4.804-.973 7.157-1.27 4.999-2.899 9.903-4.876 14.676l-.451 1.156c-3.443 8.866-6.212 16.913-5.394 25.612 2.439 26.479-4.779 58.617-18.405 81.899-5.49 9.837-10.418 19.965-14.764 30.337-3.185 7.241-6.491 14.716-10.23 22.044-5.337 10.093-8.937 20.979-10.656 32.219-.723 5.561-.816 11.184-.276 16.765.102 1.128.279 2.343.455 3.574.972 6.957 2.076 14.822-7.111 17.921-6.059 2.023-9.593-2.202-13.351-6.675-.686-.836-1.387-1.658-2.088-2.435-12.066-13.321-23.309-33.375-29.337-52.32-2.557-7.355-5.659-14.516-9.283-21.427-6.236-12.649-12.666-25.723-11.993-39.427.407-8.389 2.684-16.98 4.9-25.306 1.82-6.363 3.266-12.823 4.333-19.348l.335-2.444c1.792-12.692 3.63-25.836 7.949-38.463 1.023-2.956 1.986-6.043 2.92-9.043 3.659-11.764 7.453-23.924 15.754-32.311 2.443-2.455 5.021-5.305 7.763-8.33 7.659-8.447 16.321-18.005 24.628-21.97 8.908-3.975 18.601-5.98 28.389-5.87 10.271.022 20.613 2.226 28.645 7.309 4.266 2.567 7.739 6.221 10.05 10.571 2.31 4.351 3.37 9.234 3.067 14.129Z"/><path d="M409.085 231.574c-.887-.923-1.981-1.632-3.195-2.071-.752-.308-1.565-.449-2.379-.412-.814.036-1.61.248-2.331.622-5.583 2.799-8.733 14.433-10.813 22.145-.513 1.873-.95 3.483-1.296 4.492-1.822 5.495-3.313 11.09-4.462 16.756-.649 2.883-1.329 5.869-2.068 8.781-.316 1.2-.648 2.356-.964 3.498-1.492 5.194-2.878 10.111-1.486 16.088.785 3.384 1.932 5.056 3.487 5.103h.075c3.11.007 5.308-6.827 5.563-7.617 1.197-3.465 2.826-6.771 4.851-9.844.781-1.301 1.576-2.617 2.311-3.978 1.873-3.849 3.142-7.954 3.765-12.174.423-2.18.877-4.42 1.51-6.571 1.764-6.483 4.26-12.754 7.441-18.697 2.162-3.934 4.063-11.793-.009-16.121Zm-1.32 15.43c-3.225 6.032-5.757 12.396-7.547 18.975-.648 2.224-1.101 4.493-1.54 6.703-.588 4.078-1.806 8.045-3.614 11.764-.735 1.346-1.516 2.633-2.281 3.92-2.086 3.18-3.765 6.599-5.001 10.18-1.114 3.571-2.99 6.568-4.126 6.566h-.03c-.553-.016-1.403-1.072-2.084-3.973-1.303-5.596-.023-10.132 1.469-15.371.331-1.141.663-2.312.98-3.527.754-2.926 1.418-5.927 2.082-8.824 1.14-5.61 2.61-11.151 4.402-16.595.377-1.054.814-2.693 1.326-4.595 1.899-6.995 5.065-18.717 10.064-21.21.579-.307 1.227-.467 1.885-.464.548.006 1.09.112 1.599.311 1.002.362 1.906.945 2.642 1.704 3.55 3.77 1.756 10.853-.226 14.436Z"/><path d="M454.451 154.96c-13.634-7.657-35.254-7.029-50.268 1.461-8.248 4.653-16.284 14.564-23.375 23.305-1.634 2.017-3.208 3.961-4.692 5.73-7.18 8.506-10.554 19.993-13.823 31.085-.723 2.488-1.446 4.946-2.214 7.375-3.614 11.53-5.299 23.241-6.924 34.556l-.41 2.781c-.789 5.489-2.162 11.079-3.49 16.494-1.87 7.61-3.801 15.483-4.177 23.214-.642 13.059 4.893 25.429 10.248 37.403 2.648 5.653 5 11.435 7.049 17.322 5.539 16.923 14.833 32.947 24.873 42.851.552.543 1.089 1.115 1.641 1.702 2.581 2.729 5.445 5.751 9.541 5.76 1.081-.003 2.154-.189 3.171-.55 9.097-3.129 8.457-11.359 7.948-17.949-.072-1.01-.145-1.991-.188-2.928-.281-4.981-.084-9.976.586-14.92 1.724-10.019 4.928-19.739 9.513-28.854 3.019-6.216 5.799-12.536 8.473-18.636 4.139-9.878 8.786-19.545 13.923-28.962 12.068-21.294 18.946-48.674 17.919-71.489-.342-7.615 2.111-14.799 4.489-21.735 1.676-4.58 3.005-9.276 3.978-14.047.401-2.13.606-4.291.612-6.456-.081-10.792-5.056-19.266-14.403-24.513Zm12.326 30.716c-.97 4.701-2.284 9.328-3.933 13.844-2.302 6.73-4.905 14.368-4.549 22.261.997 22.551-5.805 49.639-17.753 70.714-5.161 9.459-9.828 19.17-13.983 29.093-2.675 6.085-5.44 12.39-8.458 18.578-4.644 9.244-7.884 19.103-9.618 29.264-.697 5.035-.903 10.123-.617 15.197.043.967.115 1.962.188 2.973.523 6.736 1.061 13.707-6.944 16.458-4.952 1.702-7.95-1.467-11.127-4.812-.552-.601-1.119-1.188-1.671-1.746-9.891-9.743-19.051-25.547-24.516-42.265-1.931-5.875-4.564-11.767-7.108-17.469-5.281-11.812-10.741-24.021-10.115-36.729.36-7.598 2.276-15.398 4.132-22.95 1.342-5.444 2.715-11.064 3.52-16.626l.41-2.781c1.609-11.271 3.295-22.908 6.878-34.336.753-2.429 1.491-4.902 2.214-7.39 3.224-10.96 6.568-22.286 13.538-30.559 1.499-1.783 3.073-3.727 4.707-5.759 7.016-8.639 14.947-18.432 22.955-22.954 8.191-4.425 17.408-6.705 26.762-6.62 7.672-.14 15.253 1.64 22.026 5.171 4.243 2.266 7.763 5.637 10.171 9.741 2.408 4.103 3.61 8.779 3.473 13.51-.004 2.077-.198 4.15-.582 6.192Z"/><path d="M436.718 209.276c-2.161-9.918-7.723-16.577-15.672-18.746-8.622-2.347-18.407 1.088-26.154 9.198-15.405 16.089-20.258 47.091-23.791 69.735-.47 2.971-.91 5.811-1.364 8.504-3.319 19.921-5.649 39.463 2.186 59.305 1.829 4.675 4.119 10.478 8.689 12.362 1.023.416 2.121.628 3.228.622 1.716-.037 3.406-.417 4.966-1.117 6.495-2.725 7.575-10.98 8.518-18.27.226-2.186.585-4.356 1.076-6.499 4.69-18.439 13.388-37.353 21.183-53.619.917-1.901 1.863-3.847 2.854-5.851 6.653-13.559 14.207-28.932 15.093-44.012.261-3.889-.012-7.794-.812-11.612Zm-.683 11.536c-.87 14.772-8.349 30.013-14.942 43.456-.991 2.004-1.953 3.964-2.854 5.851-7.825 16.338-16.568 35.325-21.304 53.896-.49 2.198-.854 4.422-1.091 6.66-.897 6.909-1.916 14.726-7.618 17.115-1.075.554-2.257.883-3.469.966-1.213.083-2.429-.081-3.574-.483-3.973-1.633-6.129-7.114-7.868-11.525-7.687-19.505-5.387-38.828-2.099-58.544.455-2.693.894-5.547 1.365-8.519 3.503-22.453 8.325-53.192 23.4-68.959 5.799-6.079 13.028-9.446 19.756-9.431 1.661.001 3.315.222 4.917.654 7.366 2.007 12.555 8.27 14.598 17.631.776 3.692 1.039 7.471.783 11.232Z"/><path d="M407.246 218.437c-1.557-.084-3.117.076-4.621.474-.444.117-.878.262-1.302.436-10.056 4.152-14.331 24.1-17.156 37.301-.574 2.693-1.073 5.006-1.555 6.937-2.288 9.363-4.076 18.836-5.355 28.38l-.107.791c-1.017 7.128-1.883 13.276.209 20.66 1.098 3.839 2.573 5.921 4.501 6.379.255.059.516.089.777.089 2.273.005 4.595-2.128 6.408-4.057 2.533-2.703 3.767-6.668 4.957-10.502.512-1.624.994-3.161 1.55-4.521.812-2.004 1.668-4.038 2.54-6.101 2.044-4.871 3.715-9.934 5.325-14.835 1.31-3.995 2.679-8.106 4.213-11.998.827-2.122 1.744-4.301 2.661-6.51 3.009-6.624 5.42-13.493 7.206-20.528.455-2.004.745-4.04.866-6.089.409-9.297-4.062-15.837-11.117-16.306Zm9.622 16.244c-.12 1.97-.399 3.928-.835 5.855-1.768 6.944-4.149 13.725-7.117 20.265-.931 2.223-1.848 4.403-2.69 6.539-1.549 3.921-2.904 8.076-4.228 12.085-1.611 4.873-3.266 9.906-5.295 14.719-.872 2.063-1.729 4.111-2.54 6.13-.587 1.419-1.068 2.97-1.58 4.623-1.145 3.688-2.334 7.492-4.627 9.933-2.578 2.732-4.404 3.856-5.749 3.531-1.33-.311-2.477-2.114-3.397-5.352-2.033-7.076-1.167-13.092-.18-20.045l.106-.805c1.271-9.496 3.049-18.92 5.325-28.234.498-1.946.996-4.273 1.571-6.981 2.764-12.894 6.933-32.388 16.271-36.248.355-.148.72-.269 1.092-.364 1.117-.299 2.268-.454 3.425-.461.254 0 .493.015.733.03 6.188.408 10.092 6.347 9.715 14.78Z"/><path d="M427.541 221.98c-.882-6.825-3.875-12.147-8.399-14.982-2.002-1.208-4.253-1.963-6.591-2.212-2.337-.248-4.702.018-6.921.778-2.142.686-4.176 1.657-6.047 2.886-.528.339-1.038.704-1.527 1.095-12.551 9.93-17.031 34.724-20.315 52.83-.545 3.03-1.06 5.869-1.559 8.401-2.236 10.288-3.638 20.733-4.195 31.238-.609 7.871.291 15.784 2.655 23.33 1.723 5.099 3.75 7.9 6.394 8.828.651.233 1.34.348 2.033.341 2.097-.116 4.119-.807 5.835-1.993 4.536-2.787 5.761-9.022 6.835-14.525.31-1.826.724-3.634 1.237-5.416.844-2.692 1.777-5.472 2.8-8.296 5.219-14.426 9.609-25.53 13.831-34.965.857-1.916 1.758-3.891 2.705-5.91 4.656-10.079 9.944-21.517 11.21-32.555.366-2.946.372-5.925.019-8.873Zm-1.514 8.709c-1.22 10.818-6.463 22.125-11.09 32.116-.931 2.033-1.847 4.008-2.704 5.924-4.222 9.465-8.642 20.613-13.877 35.068-1.023 2.839-1.971 5.648-2.814 8.355-.519 1.831-.942 3.688-1.268 5.561-1.028 5.211-2.177 11.124-6.16 13.561-2.68 1.649-4.819 2.142-6.581 1.523-2.167-.766-3.895-3.273-5.47-7.918-2.307-7.377-3.183-15.111-2.581-22.804.561-10.429 1.954-20.8 4.165-31.017.514-2.547 1.028-5.387 1.573-8.431 3.239-17.871 7.659-42.358 19.775-51.938.464-.365.929-.701 1.423-1.022 1.752-1.155 3.662-2.062 5.672-2.697 1.614-.511 3.299-.774 4.995-.78 2.565-.018 5.082.689 7.247 2.036 4.15 2.601 6.905 7.555 7.729 13.927.333 2.836.321 5.702-.034 8.536Z"/><path d="M458.142 189.422c-.605-10.426-5.924-18.549-15.005-22.888-12.321-5.897-29.623-4.118-42.051 4.304-8.355 5.678-16.124 16.995-22.379 26.089l-.945 1.403c-5.849 8.495-8.774 19.28-11.607 29.714-.483 1.771-.95 3.527-1.447 5.268-2.556 9.916-4.491 19.975-5.793 30.122l-.501 3.396c-.682 4.508-1.694 9.074-2.661 13.509-1.728 6.938-2.878 14.001-3.44 21.121-.611 12.474 4.102 24.417 8.667 35.965 1.576 3.957 3.197 8.06 4.578 12.119 4.887 14.403 12.231 26.381 20.111 32.855.388.323.776.661 1.179.998 2.089 1.806 4.402 3.816 7.557 3.823 1.002-.006 1.995-.187 2.931-.535 7.901-2.824 7.857-10.175 7.826-16.647l.005-2.093c-.043-4.483.272-8.962.941-13.396 1.711-8.966 4.563-17.686 8.49-25.957 2.133-4.652 4.192-9.362 6.175-13.912 4.388-10.094 8.551-19.617 13.654-28.962 10.418-19.028 16.867-41.548 17.267-60.202.372-5.914 1.495-11.76 3.342-17.402l.317-1.142c1.167-3.956 2.031-7.992 2.583-12.074.226-1.816.295-3.648.206-5.476Zm-1.686 5.312c-.546 4.008-1.4 7.971-2.553 11.854l-.316 1.142c-1.872 5.758-3.01 11.721-3.388 17.753-.4 18.434-6.788 40.706-17.086 59.544-5.134 9.404-9.506 19.41-13.714 29.079-1.983 4.55-4.042 9.245-6.16 13.882-3.98 8.384-6.872 17.222-8.61 26.309-.681 4.512-1.001 9.069-.957 13.63l-.005 2.123c.031 6.281.062 12.783-6.851 15.257-3.89 1.398-6.367-.745-8.979-3.006-.403-.352-.806-.69-1.208-1.027-7.671-6.312-14.852-18.041-19.665-32.196-1.381-4.088-3.016-8.206-4.578-12.177-4.519-11.416-9.173-23.213-8.578-35.365.555-7.041 1.696-14.027 3.41-20.887.981-4.449 1.993-9.059 2.676-13.611l.501-3.396c1.289-10.089 3.214-20.09 5.762-29.946.482-1.742.965-3.512 1.447-5.283 2.804-10.317 5.698-20.97 11.397-29.275l.96-1.389c6.165-8.992 13.844-20.191 21.975-25.709 7.367-4.895 16.066-7.509 24.969-7.502 5.379-.057 10.701 1.075 15.571 3.312 6.064 2.898 13.436 9.004 14.171 21.657.079 1.744.015 3.492-.191 5.227Z"/><path d="M512.87 90.5569c-2.269-1.6448-2.472-4.4271-2.588-5.9209-.175-2.3286-.393-5.2428-4.3-9.7463-5.891-6.9794-13.581-12.2886-22.272-15.3774-27.608-9.6637-59.395 4.6625-75.877 14.0572-35.223 20.0878-42.195 49.6355-47.628 86.1855-2.611 16.839-7.017 33.363-13.146 49.302-1.76 4.711-3.773 9.48-5.727 14.103-3.006 7.124-6.117 14.497-8.391 21.799-.72 2.549-1.216 5.154-1.482 7.786-.268 2.552-.749 5.078-1.437 7.553-.987 3.461-1.744 6.981-2.266 10.537-.556 3.861-1.419 7.673-2.582 11.401l-.421 1.2c-2.513 7.359-3.912 11.398-2.646 20.244 2.636 18.455 7.608 34.748 14.784 48.395 3.797 7.226 8.222 14.381 12.497 21.301 4.082 6.612 8.298 13.444 11.886 20.217 3.097 5.819 6.284 11.844 9.754 17.752 2.175 3.694 4.288 7.887 6.521 12.328.7 1.378 1.385 2.799 2.084 4.236 4.435 9.204 9.451 19.611 19.428 24.2 2.921 1.446 6.128 2.252 9.398 2.363 2.176.026 4.325-.477 6.253-1.466 5.688-2.945 9.501-10.083 11.335-21.221.879-5.343 1.339-10.818 1.784-16.103.43-5.124.876-10.424 1.709-15.576 1.425-8.826 4.849-15.876 8.484-23.351.976-2.004 1.967-4.052 2.944-6.158 2.809-6.114 5.334-12.215 7.784-18.125 2.886-6.978 5.862-14.205 9.347-21.475 1.682-3.525 3.604-7.05 5.465-10.472 4.128-7.561 8.391-15.386 10.473-23.786 1.946-7.874 3.953-16.01 6.333-24.161 3.163-10.829 4.833-22.392 6.458-33.561l.486-3.396c.589-3.457 1.456-6.863 2.594-10.185 1.187-3.293 1.997-6.704 2.414-10.172.082-3.504-.302-7.005-1.143-10.413-.911-3.87-1.354-7.832-1.32-11.804.567-13.074 4.694-26.756 8.7-39.984 2.812-8.676 5.128-17.5 6.936-26.429.196-1.069.709-3.088 1.674-6.864 1.599-6.205 5.836-22.6973 6.014-28.6124l.001-.3806-.314-.2201Zm-7.15 28.8591c-.98 3.805-1.493 5.839-1.69 6.952-1.802 8.874-4.107 17.644-6.905 26.268-4.022 13.316-8.193 27.085-8.761 40.349-.043 4.095.41 8.181 1.349 12.171.805 3.274 1.179 6.636 1.114 10.003-.409 3.358-1.198 6.662-2.354 9.849-1.161 3.394-2.044 6.874-2.639 10.405l-.486 3.396c-1.624 11.125-3.279 22.645-6.413 33.371-2.395 8.18-4.401 16.331-6.362 24.219-2.022 8.21-6.24 15.947-10.323 23.435-1.877 3.437-3.813 6.991-5.51 10.531-3.5 7.328-6.491 14.555-9.377 21.548-2.435 5.895-4.96 11.996-7.755 18.081-.976 2.107-1.967 4.14-2.928 6.129-3.68 7.577-7.164 14.715-8.62 23.746-.833 5.211-1.279 10.54-1.709 15.693-.445 5.256-.905 10.702-1.784 15.985-1.212 7.334-4.014 16.787-10.54 20.155-3.862 1.998-8.675 1.68-14.336-.909-9.484-4.368-14.38-14.541-18.711-23.496-.7-1.466-1.399-2.887-2.099-4.28-2.233-4.456-4.361-8.663-6.551-12.401-3.455-5.893-6.642-11.889-9.724-17.694-3.618-6.831-7.849-13.677-11.945-20.304-4.261-6.891-8.656-14.031-12.438-21.214-7.101-13.5-12.014-29.632-14.635-47.925-1.208-8.51.056-12.197 2.584-19.572l.422-1.214c1.187-3.8 2.065-7.685 2.627-11.62.522-3.492 1.268-6.948 2.235-10.347.719-2.555 1.215-5.165 1.483-7.802.262-2.546.738-5.067 1.421-7.537 2.259-7.229 5.355-14.572 8.361-21.668 1.954-4.637 3.968-9.421 5.742-14.146 6.161-16.04 10.593-32.667 13.221-49.61 5.387-36.14 12.254-65.3654 46.909-85.1324 12.485-7.1192 33.871-17.1183 55.37-17.0729 6.548-.0437 13.054 1.0151 19.235 3.13 8.446 3.0007 15.919 8.1577 21.646 14.937 3.579 4.1511 3.782 6.8018 3.942 8.9256-.013 1.2546.237 2.4986.733 3.6554s1.229 2.2019 2.153 3.0712c-.342 6.0754-4.55 22.4801-5.952 27.9391Z"/><path d="m519.894 85.2566-.164-.1615-.254-.0299c-1.39-.2077-1.464-.6472-1.624-2.7559-.203-2.5775-.537-6.9123-5.533-12.7064-12.736-14.7276-29.884-21.6018-50.937-20.4165-21.427 1.1848-41.736 10.4545-54.984 18.011-37.619 21.4591-45.255 53.8896-50.764 90.9816-4.978 33.476-16.232 58.827-30.396 88.492-20.832 43.589-26.778 75.438 4.424 109.298 11.962 12.969 19.541 27.261 27.566 42.404 3.171 5.98 6.447 12.151 10.007 18.192 2.115 3.606 4.213 7.783 6.446 12.225 7.19 14.247 15.318 30.415 28.46 36.709 3.697 1.943 7.793 3.047 11.984 3.232 2.478.051 4.922-.573 7.061-1.8 10.254-6.026 10.971-25.938 11.448-39.115.112-3.089.207-5.754.406-7.906 1.64-18.211 15.193-42.064 25.246-58.427 12.064-19.639 17.208-40.449 22.654-62.474 1.976-7.933 3.998-16.142 6.378-24.322 3.314-11.312 5.03-23.227 6.699-34.747l.486-3.395c.572-3.253 1.399-6.458 2.473-9.586 1.308-3.694 2.199-7.517 2.657-11.4.113-3.986-.306-7.969-1.245-11.849-.832-3.555-1.25-7.19-1.247-10.837.536-12.665 4.648-26.244 8.624-39.385 2.906-8.983 5.297-18.119 7.162-27.365.181-.951.815-3.439 1.629-6.6 5.142-20.0053 7.666-32.0358 5.338-34.2664Zm-6.787 33.9114c-.86 3.307-1.463 5.693-1.645 6.703-1.869 9.189-4.249 18.271-7.131 27.205-4.006 13.213-8.133 26.895-8.685 39.735-.013 3.76.415 7.51 1.276 11.174.91 3.755 1.318 7.61 1.216 11.468-.443 3.775-1.314 7.491-2.596 11.078-1.09 3.202-1.932 6.48-2.518 9.805l-.486 3.396c-1.655 11.476-3.371 23.333-6.655 34.557-2.395 8.194-4.431 16.418-6.392 24.38-5.416 21.908-10.545 42.615-22.489 62.064-10.128 16.481-23.786 40.538-25.456 59.042-.2 2.196-.295 4.876-.407 7.994-.462 12.855-1.162 32.284-10.728 37.901-4.326 2.553-10.261 2.043-17.609-1.487-12.68-6.074-20.703-21.993-27.774-36.049-2.247-4.441-4.361-8.648-6.506-12.299-3.53-6.011-6.806-12.182-9.962-18.148-7.713-14.541-15.693-29.581-27.789-42.697-30.651-33.258-24.751-64.668-4.188-107.702 14.238-29.766 25.523-55.22 30.531-88.901 5.448-36.696 12.994-68.8049 50.029-89.9288 12.275-7.0023 35.503-18.1105 59.065-18.0607 15.923.0337 32.013 5.1778 44.957 20.1548 4.698 5.4278 4.988 9.3085 5.192 11.8713.145 1.9185.276 3.5879 2.623 4.0321 1.802 2.8441-3.762 24.4733-5.873 32.7123ZM763.017 433.989c-4.703-9.629-12.838-15.548-21.451-21.803-.985-.72-1.985-1.454-2.985-2.188-7.922-5.545-16.234-10.534-24.875-14.929-8.946-4.919-18.27-9.149-27.885-12.651-30.64-10.93-53.202-37.582-66.668-53.497-2.087-2.465-3.877-4.592-5.458-6.367-2.336-2.86-4.425-5.906-6.244-9.106-6.555-10.658-14.704-23.912-29.058-16.475-19.204 9.96-22.528 39.662-24.724 59.307-.214 1.947-.412 3.806-.626 5.534-1.204 7.529-3.433 14.867-6.626 21.817-2.795 6.51-7.323 12.035-11.715 17.37-4.112 4.646-7.684 9.726-10.648 15.147-.691 1.389-1.502 2.881-2.357 4.446-4.549 8.366-10.208 18.75-5.728 27.705 1.94 3.788 4.632 7.158 7.917 9.915 10.849 9.321 27.21 13.953 41.658 18.054 4.707 1.328 9.159 2.597 13.148 3.938 4.811 1.62 12.122 1.284 18.567 1.005 2.317-.097 4.501-.195 6.295-.191 3.797.037 7.625-.116 11.348-.255 7.358-.482 14.746-.349 22.081.398 8.161 1.057 15.72 3.65 23.728 6.391 2.585.869 5.154 1.753 7.769 2.578l.269.089c10.024 3.228 20.378 6.559 30.973 9.055 1.793.429 3.541.901 5.274 1.373 4.562 1.457 9.301 2.314 14.093 2.549 3.504.027 6.968-.732 10.127-2.219 7.543-3.557 13.687-10.001 18.501-16.873 4.171-6.094 7.668-12.605 10.434-19.423.511-1.243 1.052-2.501 1.593-3.745 3.787-8.791 7.694-17.876 3.273-26.949Zm-4.663 26.376c-.541 1.258-1.082 2.516-1.593 3.774-4.253 10.299-13.563 28.626-28.185 35.521-7.932 3.687-15.343 1.695-23.188-.43-1.748-.472-3.511-.944-5.319-1.373-10.535-2.497-20.859-5.813-30.854-9.026l-.269-.088c-2.599-.826-5.169-1.71-7.739-2.579-7.723-2.637-15.716-5.363-24.026-6.45-3.802-.476-7.633-.704-11.466-.683-3.648-.007-7.296.131-10.87.27-3.708.139-7.536.277-11.273.255-1.869-.019-4.052.093-6.385.191-6.01.266-13.472.601-18.013-.931-4.019-1.356-8.487-2.624-13.223-3.952-14.284-4.057-30.481-8.645-41.076-17.746-3.134-2.632-5.703-5.847-7.559-9.46-4.153-8.281 1.312-18.314 5.695-26.373.871-1.579 1.681-3.086 2.387-4.505 2.916-5.316 6.427-10.298 10.468-14.854 4.453-5.423 9.055-11.036 11.925-17.736 3.261-7.071 5.525-14.544 6.732-22.212.213-1.728.427-3.587.64-5.534 2.151-19.352 5.415-48.571 23.93-58.181 13.097-6.781 20.516 5.285 27.071 15.944 1.869 3.269 4.007 6.383 6.393 9.312 1.581 1.76 3.371 3.872 5.443 6.336 13.57 16.033 36.281 42.862 67.309 53.938 9.574 3.488 18.857 7.698 27.766 12.592 8.546 4.356 16.769 9.296 24.606 14.782 1.001.734 2.001 1.469 3.001 2.188 8.448 6.153 16.449 11.968 20.989 21.261 4.137 8.472.35 17.264-3.317 25.749Z"/><path d="M756.966 439.292c-3.956-9.496-11.552-15.487-19.597-21.829l-.269-.206c-5.962-4.413-12.296-8.326-18.931-11.695-2.046-1.117-4.092-2.234-6.063-3.351-8.861-5.189-18.154-9.636-27.779-13.295-22.886-8.336-41.386-26.15-53.62-37.934-3.267-3.155-6.087-5.87-8.459-7.895-2.254-2.141-4.292-4.489-6.085-7.012-5.754-7.494-12.925-16.822-24.451-10.814-16.27 8.517-19.716 32.523-21.994 48.419-.182 1.259-.364 2.474-.531 3.63-1.146 6.099-2.943 12.063-5.362 17.794-2.141 4.865-4.856 9.469-8.089 13.717-3.108 4.056-5.712 8.46-7.758 13.118-.466 1.199-1.022 2.487-1.623 3.818-2.915 6.583-6.536 14.76-2.44 21.753 1.83 3.046 4.24 5.72 7.099 7.878 9.627 7.473 23.149 11.06 35.088 14.233 4.094 1.092 7.964 2.125 11.445 3.246 3.944 1.252 9.655 1.25 14.709 1.246 2.228.005 4.351-.006 6.114.115 2.751.167 5.592.232 8.327.281 6.422-.066 12.834.516 19.134 1.74 6.774 1.785 13.349 4.227 19.629 7.289 2.36 1.059 4.809 2.148 7.274 3.163 8.868 3.903 18.015 7.167 27.368 9.766 1.076.28 2.152.561 3.228.856 4.421 1.409 9.015 2.236 13.659 2.459 3.36.028 6.685-.67 9.738-2.044 13.648-6.091 22.026-22.312 25.814-31.44.331-.79.661-1.58.992-2.37 3.397-8.032 6.898-16.341 3.433-24.636Zm-4.807 24.077c-.346.789-.676 1.579-1.007 2.369-3.698 8.939-11.881 24.794-25.05 30.667-7.753 3.453-14.865 1.535-22.381-.502-1.075-.28-2.151-.575-3.242-.856-9.283-2.575-18.361-5.814-27.159-9.692-2.435-1-4.884-2.104-7.244-3.149-6.373-3.09-13.037-5.566-19.899-7.392-6.402-1.243-12.919-1.836-19.447-1.769-2.721-.049-5.546-.114-8.267-.281-1.39-.091-2.99-.109-4.679-.112l-1.54-.003c-4.934.004-10.525.007-14.231-1.173-3.525-1.134-7.41-2.168-11.519-3.26-11.79-3.143-25.163-6.701-34.551-13.968-2.704-2.05-4.987-4.584-6.726-7.467-3.724-6.363-.268-14.16 2.512-20.436.601-1.36 1.172-2.662 1.653-3.876 1.999-4.557 4.549-8.862 7.593-12.825 3.3-4.337 6.065-9.039 8.239-14.01 2.466-5.833 4.293-11.905 5.452-18.115.167-1.157.349-2.372.532-3.645 2.232-15.59 5.618-39.156 21.214-47.308 10.388-5.44 16.575 2.612 22.553 10.385 1.857 2.611 3.97 5.038 6.308 7.246 2.328 1.997 5.133 4.697 8.385 7.822 12.323 11.872 30.957 29.819 54.142 38.272 9.563 3.591 18.784 8.001 27.556 13.178 1.986 1.132 4.031 2.249 6.077 3.366 6.558 3.338 12.821 7.205 18.723 11.563l.269.205c7.895 6.225 15.342 12.098 19.164 21.243 3.228 7.738-.154 15.754-3.43 23.523Z"/><path d="M769.07 428.702c-5.525-10.144-14.542-16.196-24.081-22.615-1.642-1.101-3.285-2.203-4.927-3.349-16.253-11.249-33.999-20.272-52.747-26.818-38.632-13.523-65.924-51.343-79.026-69.527-1.162-1.599-2.221-3.08-3.189-4.385-2.353-3.496-4.468-7.139-6.33-10.907-5.256-9.997-11.211-21.328-20.4-24.159-2.218-.609-4.54-.768-6.823-.469-2.284.3-4.481 1.053-6.457 2.213-22.227 11.447-25.4 46.874-27.515 70.326-.23 2.592-.445 5.051-.674 7.291-.733 7.144-3.399 15.836-7.891 25.841-3.561 7.9-9.541 14.505-15.326 20.877-4.885 5.392-9.936 10.975-13.568 17.337-.901 1.565-1.921 3.246-3.001 5.016-6.212 10.163-13.955 22.797-9.09 33.745 8.703 19.508 35.448 27.427 56.933 33.783 5.349 1.578 10.399 3.082 14.88 4.644 5.648 1.974 14.933 1.276 22.38.691 2.393-.17 4.666-.356 6.52-.41 4.784-.152 9.689-.551 14.429-.922 8.283-.85 16.617-1.131 24.94-.84 9.747.591 18.742 2.953 28.275 5.477 2.6.679 5.2 1.373 7.844 2.023 3.064.753 6.127 1.521 9.19 2.303 8.443 2.112 17.184 4.312 25.926 6.234 2.406.532 4.782 1.181 7.068 1.802 4.765 1.549 9.721 2.461 14.735 2.71 3.664.032 7.284-.789 10.561-2.394 15.67-7.624 26.073-26.593 32.055-41.15.662-1.638 1.383-3.262 2.104-4.9 4.222-9.626 8.595-19.574 3.205-29.468Zm-4.579 28.894c-.721 1.638-1.443 3.276-2.119 4.93-5.877 14.322-16.085 32.954-31.336 40.39-8.202 3.994-15.987 1.84-24.22-.418-2.316-.634-4.706-1.298-7.142-1.83-8.727-1.908-17.453-4.107-25.896-6.219-3.063-.783-6.126-1.551-9.19-2.304-2.629-.65-5.229-1.343-7.829-2.022-9.175-2.421-18.663-4.93-28.559-5.522-1.929-.107-3.872-.155-5.816-.159-6.458-.014-12.978.5-19.333.999-4.726.37-9.615.77-14.355.921-1.899.055-4.172.24-6.594.425-7.312.556-16.404 1.254-21.767-.617-4.512-1.59-9.577-3.08-14.941-4.673-21.201-6.267-47.587-14.069-55.992-32.975-4.568-10.244 2.95-22.528 8.997-32.399 1.08-1.769 2.115-3.465 3.016-5.045 3.572-6.23 8.563-11.754 13.388-17.074 5.86-6.474 11.93-13.167 15.566-21.257 4.568-10.152 7.263-19.004 8.012-26.295.229-2.254.459-4.714.689-7.319 2.069-23.131 5.211-58.075 26.705-69.157 4.4-2.275 8.378-2.809 12.158-1.644 8.591 2.654 14.398 13.692 19.504 23.439 1.89 3.839 4.045 7.547 6.45 11.098.953 1.305 2.012 2.772 3.174 4.37 13.207 18.302 40.662 56.385 79.743 70.056 18.625 6.502 36.256 15.465 52.404 26.642 1.642 1.146 3.284 2.248 4.926 3.349 9.39 6.316 18.273 12.279 23.618 22.101 5.048 9.279 1.006 18.466-3.261 28.209Z"/><path d="m894.164 434.984-.218-2.87c-.072-1.128-.16-2.255-.247-3.368-1.062-13.459-3.799-33.041-15.264-47.693-7.693-9.826-18.984-15.136-29.902-20.269-3.719-1.736-7.557-3.545-11.171-5.485-2.001-1.088-4.107-2.162-6.257-3.264-8.468-4.338-18.07-9.263-24.126-15.806-5.861-6.338-8.4-14.441-10.865-22.279-1.009-3.209-2.049-6.52-3.298-9.627-3.732-9.306-9.938-15.542-21.437-21.511-19.174-9.968-37.447-22.233-55.123-34.115-11.525-7.741-22.423-15.056-33.516-21.756-7.436-4.497-14.647-9.139-21.604-13.619-8.032-5.186-15.631-10.078-23.052-14.413-4.719-2.763-9.362-5.759-14.259-8.933-17.363-11.237-35.323-22.857-57.195-23.211-27.344-.38-32.727 33.857-35.638 52.285-2.715 17.579-6.327 35.362-9.834 52.574-1.421 6.952-2.811 13.787-4.112 20.432-.71 3.717-1.451 7.435-2.192 11.167-2.238 11.255-4.551 22.891-6.025 34.045-1.931 14.609-9.18 27.127-19.468 41.425-5.955 8.216-10.94 17.067-14.859 26.383-2.601 6.306-4.841 12.202-6.828 18.069l-.903 2.634c-4.89 14.148-10.412 30.185-1.336 43.294 7.228 10.411 21.97 16.943 34.98 22.696 2.927 1.295 5.69 2.531 8.259 3.736 15.488 7.354 31.725 14.036 47.424 20.497 3.615 1.487 7.205 2.963 10.77 4.43 4.989 2.061 9.813 4.135 14.339 6.151 8.413 3.591 17.009 6.756 25.754 9.484 5.513 1.813 10.727 3.537 15.657 5.392 17.821 6.729 36.08 11.541 55.4 16.634l2.556.664c12.685 3.351 25.525 4.768 37.946 6.157 4.858.537 9.865 1.089 14.797 1.759 6.322.794 12.59 1.956 18.771 3.48 10.424 2.86 20.444 6.978 29.83 12.26 3.106 1.632 6.197 3.41 9.183 5.115 5.731 3.443 11.682 6.522 17.816 9.218l.164.044c1.018.173 2.047.263 3.08.27 4.41.01 7.703-1.74 11.941-4.894l.195.001c23.995.05 33.215-24.675 41.351-46.505 2.462-7.15 5.404-14.134 8.807-20.904.751-1.405 1.517-2.794 2.267-4.169 5.524-10.033 10.733-19.51 12.956-31.219 3.041-16.085 5.953-35.114 4.486-54.386Zm-5.965 54.12c-2.178 11.489-7.327 20.864-12.791 30.794-.751 1.375-1.516 2.764-2.282 4.168-3.435 6.831-6.403 13.879-8.882 21.096-7.971 21.375-16.995 45.589-39.944 45.54l-.703-.001-.195.146c-5.001 3.752-8.384 5.385-13.988 4.509-6.044-2.664-11.909-5.699-17.563-9.086-3.001-1.719-6.107-3.497-9.228-5.144-9.493-5.342-19.629-9.504-30.173-12.392-6.229-1.543-12.547-2.715-18.92-3.511-4.962-.669-9.984-1.221-14.842-1.773-12.362-1.374-25.141-2.792-37.723-6.098l-2.555-.679c-19.29-5.078-37.504-9.875-55.251-16.575-4.975-1.884-10.189-3.609-15.716-5.421-8.696-2.705-17.243-5.851-25.605-9.425-4.541-2.031-9.38-4.105-14.399-6.166-3.555-1.472-7.155-2.958-10.77-4.445-15.669-6.446-31.891-13.128-47.334-20.452-2.584-1.221-5.362-2.457-8.304-3.751-12.831-5.68-27.363-12.123-34.353-22.182-8.674-12.509-3.257-28.179 1.513-42.006l.903-2.648c1.971-5.823 4.197-11.705 6.797-17.967 3.876-9.217 8.805-17.974 14.694-26.105 10.423-14.473 17.762-27.167 19.723-42.083 1.46-11.111 3.773-22.717 6.011-33.943.74-3.732 1.481-7.464 2.192-11.167 1.301-6.659 2.691-13.48 4.112-20.417 3.506-17.227 7.134-35.039 9.849-52.647 2.82-17.887 8.051-51.099 33.721-51.045l.419.001c21.439.338 39.205 11.841 56.389 22.975 4.911 3.173 9.569 6.185 14.318 8.963 7.391 4.32 14.975 9.197 22.992 14.368 6.972 4.496 14.183 9.152 21.649 13.663 11.064 6.671 21.932 13.971 33.457 21.712 17.705 11.897 36.023 24.191 55.257 34.189 11.156 5.793 17.167 11.808 20.751 20.763 1.234 3.062 2.258 6.345 3.253 9.509 2.524 8 5.107 16.249 11.193 22.836 6.234 6.749 15.956 11.733 24.543 16.129 2.136 1.103 4.241 2.162 6.228 3.235 3.658 1.969 7.511 3.778 11.245 5.544 10.769 5.045 21.896 10.281 29.365 19.829 11.226 14.343 13.905 33.647 14.952 46.915.087 1.113.174 2.226.262 3.354l.202 2.885c1.468 19.096-1.429 38.008-4.469 54.006ZM477.031 132.181c-17.734-12.395-48.414-12.036-66.685-4.577-9.068 3.685-18.688 13.446-27.169 22.052-3.672 3.74-7.163 7.262-10.369 10.096-9.991 8.808-14.296 22.094-18.466 34.926-1.129 3.468-2.288 7.053-3.536 10.447-5.114 13.914-7.044 27.922-9.08 42.766l-.304 2.224c-1.211 7.35-2.91 14.615-5.086 21.748-2.592 9.219-5.274 18.731-5.729 28.101-.751 15.285 6.828 29.562 14.153 43.371 4.273 8.047 8.68 16.373 11.248 24.637 7.368 22.879 19.045 44.204 34.428 62.873.82.983 1.625 2.024 2.445 3.08 3.534 4.59 7.469 9.679 13.435 9.692 1.309-.01 2.607-.23 3.843-.651 11.64-3.826 9.763-13.435 8.255-21.155-.266-1.406-.532-2.739-.694-3.984-2.221-16.433 1.63-34.142 11.449-52.629 4.429-8.337 8.17-16.836 11.791-25.058 4.587-10.962 9.842-21.644 15.739-31.989 15.727-26.366 23.283-63.263 19.255-93.991-1.382-10.589 2.886-20.595 7.004-30.28 2.349-5.173 4.324-10.502 5.91-15.947.732-2.747 1.199-5.555 1.394-8.387.047-.762.078-1.523.08-2.27.09-4.937-1.081-9.818-3.405-14.201-2.325-4.382-5.729-8.126-9.906-10.894Zm11.736 27.274c-.196 2.742-.647 5.461-1.348 8.123-1.571 5.374-3.52 10.634-5.836 15.743-4.208 9.86-8.536 20.056-7.11 31.026 3.985 30.435-3.496 66.966-19.058 93.07-5.933 10.394-11.219 21.131-15.829 32.15-3.606 8.192-7.348 16.676-11.746 24.969-9.954 18.75-13.866 36.752-11.6 53.478.176 1.289.427 2.636.708 4.072 1.464 7.529 3.134 16.069-7.264 19.488-7.196 2.371-11.281-2.923-15.605-8.525-.835-1.071-1.655-2.142-2.49-3.124-15.198-18.56-26.773-39.705-34.144-62.375-2.613-8.395-7.065-16.78-11.368-24.901-7.236-13.632-14.71-27.734-13.975-42.609.454-9.209 3.106-18.648 5.668-27.779 2.203-7.198 3.918-14.532 5.132-21.952l.304-2.225c2.036-14.755 3.95-28.69 9.004-42.473 1.263-3.423 2.422-7.008 3.551-10.491 4.11-12.657 8.355-25.738 18.047-34.268 3.25-2.878 6.742-6.428 10.443-10.184 8.391-8.504 17.891-18.133 26.675-21.716 9.325-3.538 19.257-5.286 29.255-5.151 13.082.028 26.457 2.911 35.981 9.579 4.316 2.819 7.77 6.735 9.99 11.328 2.22 4.592 3.124 9.69 2.615 14.747Z"/><path d="M852.455 432.817c-.325-1.802-.65-3.56-1.034-5.288-3.345-15.513-9.775-28.72-19.081-39.223-6.651-7.511-15.687-11.981-24.424-16.304-2.748-1.353-5.585-2.765-8.288-4.235-1.717-.926-3.509-1.867-5.346-2.808-6.855-3.558-13.948-7.233-18.991-12.061-4.893-4.696-7.632-10.529-10.28-16.172-1.102-2.345-2.232-4.764-3.498-7.05-3.753-6.758-9.185-11.485-18.145-15.823-24.583-11.898-47.555-28.843-67.81-43.792-3.717-2.731-7.374-5.433-10.972-8.047-7.12-5.183-13.672-10.366-20.03-15.387-6.178-4.889-12.029-9.514-17.477-13.376-4.255-3.025-8.433-6.607-12.85-10.408-13.221-11.361-28.204-24.219-48.078-22.124-20.532 2.168-27.279 24.556-31.184 46.174l-.394 2.181c-3.769 20.887-7.673 42.461-10.914 61.064-1.363 7.816-3.145 15.895-4.881 23.71-1.103 4.976-2.25 10.142-3.233 15.06-2.69 13.333-10.399 24.313-18.766 35.321-5.429 7.016-10.039 14.603-13.745 22.623-2.028 4.505-4.402 9.859-6.627 15.492l-.211.512c-5.096 12.845-10.87 27.416-3.227 39.586 6.735 10.688 20.774 17.336 33.17 23.204 1.239.588 2.449 1.162 3.629 1.736 13.71 6.559 28.335 12.154 42.466 17.572 3.063 1.178 6.11 2.341 9.113 3.504 5.019 1.929 9.067 3.548 12.726 5.108 7.842 3.34 17.197 5.424 26.238 7.45 3.9.857 7.591 1.685 10.998 2.57 11.117 2.908 22.175 5.07 33.892 7.364 5.828 1.125 11.851 2.309 17.873 3.581 10.775 2.278 21.565 3.882 31.998 5.427 4.977.742 10.118 1.515 15.214 2.345 6.427 1.039 11.762 2.119 16.813 3.389 9.375 2.521 18.504 5.853 27.278 9.956 2.912 1.265 5.795 2.677 8.587 4.045 5.335 2.777 10.89 5.129 16.61 7.033.803.111 1.612.167 2.422.167 4.276.009 7.598-1.551 11.282-4.032 19.274-1.204 27.615-21.041 34.965-38.553 2.344-5.573 4.554-10.825 7.016-15.33l.945-1.74c4.759-8.702 9.247-16.907 11.511-26.654l.559-2.458c3.456-14.811 7.019-30.134 4.181-45.309Zm-5.63 44.983-.574 2.459c-2.204 9.557-6.647 17.674-11.361 26.288l-.945 1.74c-2.624 5.034-4.985 10.195-7.076 15.462-7.23 17.175-15.406 36.646-33.887 37.661l-.209.015-.18.116c-4.237 2.876-7.694 4.406-12.702 3.766-5.593-1.89-11.027-4.208-16.251-6.931-2.807-1.368-5.72-2.779-8.647-4.074-8.854-4.126-18.062-7.477-27.518-10.015-5.095-1.284-10.475-2.379-16.931-3.432-5.111-.831-10.268-1.604-15.26-2.332-10.402-1.544-21.163-3.149-31.893-5.426-6.037-1.272-12.06-2.456-17.903-3.581-11.686-2.295-22.73-4.441-33.787-7.334-3.437-.901-7.143-1.728-11.058-2.601-8.981-1.996-18.261-4.065-25.969-7.346-3.689-1.575-7.752-3.209-12.786-5.138-3.003-1.163-6.05-2.326-9.112-3.504-14.102-5.403-28.697-10.998-42.347-17.528-1.18-.573-2.405-1.147-3.644-1.735-12.202-5.781-26.032-12.326-32.543-22.662-7.256-11.553-1.618-25.744 3.358-38.268l.211-.526c2.21-5.603 4.569-10.943 6.597-15.434 3.657-7.918 8.212-15.409 13.58-22.33 8.457-11.154 16.286-22.294 19.022-35.921.982-4.903 2.13-10.054 3.232-15.03 1.737-7.83 3.519-15.938 4.897-23.783 3.24-18.589 7.13-40.163 10.899-61.035l.393-2.196c3.814-21.076 10.336-42.909 29.881-44.976 1.43-.153 2.868-.229 4.307-.225 17.058.036 30.041 11.192 42.621 22.01 4.447 3.816 8.64 7.427 12.954 10.481 5.419 3.848 11.254 8.458 17.433 13.332 6.358 5.036 12.925 10.233 20.06 15.417 3.597 2.614 7.254 5.316 10.971 8.047 20.315 14.993 43.347 31.968 68.049 43.938 8.662 4.192 13.9 8.742 17.489 15.207 1.236 2.243 2.367 4.632 3.453 6.962 2.708 5.76 5.506 11.725 10.608 16.612 5.177 4.96 12.375 8.694 19.334 12.296 1.822.942 3.614 1.882 5.317 2.809 2.732 1.484 5.57 2.881 8.333 4.249 8.602 4.264 17.518 8.675 23.976 15.952 9.142 10.327 15.452 23.299 18.753 38.577.37 1.714.695 3.457 1.034 5.347 2.764 14.779-.768 29.956-4.179 44.62Z"/><path d="M810.793 430.811c-.594-1.759-1.114-3.195-1.664-4.528-5.369-13.16-15.064-23.342-22.897-30.753-5.64-5.313-12.584-9.003-19.319-12.575-1.672-.897-3.345-1.793-5.002-2.705-1.523-.852-3.106-1.69-4.719-2.528-4.76-2.346-9.31-5.079-13.602-8.17-3.56-2.963-6.767-6.31-9.562-9.977-1.237-1.525-2.535-3.109-3.892-4.605-4.093-4.401-9.144-7.844-14.779-10.076-26.871-11.668-49.928-30.722-68.937-47.821-7.222-6.487-13.667-12.958-19.35-18.68-3.953-3.977-7.698-7.733-10.995-10.785-3.542-3.484-6.85-7.189-9.903-11.091-10.318-12.57-22.008-26.827-40.543-21.844-17.219 4.649-23.484 25.076-26.686 40.048-3.173 15.061-5.42 30.767-7.379 44.614-.441 3.074-.866 6.046-1.291 8.886-1.594 10.934-5.148 22.801-8.01 32.327-3.343 11.151-10.824 20.33-18.05 29.217-4.919 5.801-9.161 12.123-12.645 18.847-.601 1.229-1.246 2.501-1.907 3.803-1.487 2.925-3.018 5.938-4.505 9.112-5.483 11.615-10.369 23.831-4.651 34.254 6.001 10.95 18.829 17.859 30.358 23.462 11.993 5.809 25.05 10.332 37.674 14.692 2.465.855 4.9 1.704 7.305 2.549 4.616 1.605 8.037 2.857 11.115 4.079 6.707 2.65 15.929 3.475 24.076 4.209 3.244.3 6.308.57 8.968.942 7.175.996 14.574 1.583 21.734 2.154 7.803.617 15.86 1.264 23.841 2.437 13.063 1.902 25.347 4.359 38.349 6.963l3.332.666c5.47 1.095 10.326 2.174 14.869 3.311 8.682 2.186 16.838 4.956 24.727 7.623 2.674.899 5.318 1.929 7.872 2.93 4.942 2.122 10.087 3.756 15.359 4.879.583.045 1.166.076 1.734.077 3.789-.055 7.483-1.164 10.652-3.199 14.748-2.795 22.391-18.138 29.134-31.683 1.532-3.071 2.974-5.967 4.46-8.673 3.998-6.769 7.242-13.939 9.675-21.386.542-1.844 1.115-3.673 1.687-5.517 3.599-11.604 7.333-23.588 3.367-35.485Zm-4.802 35.072c-.572 1.829-1.144 3.673-1.686 5.517-2.405 7.35-5.609 14.427-9.555 21.108-1.502 2.735-2.958 5.646-4.49 8.717-6.608 13.282-14.101 28.318-28.205 30.909l-.24.087c-3.389 2.246-7.453 3.305-11.534 3.007-5.147-1.113-10.171-2.718-15-4.791-2.569-1.001-5.243-2.031-7.947-2.945-7.918-2.696-16.105-5.466-24.846-7.666-4.558-1.137-9.444-2.231-14.929-3.326l-3.347-.666c-13.017-2.605-25.301-5.062-38.408-6.978-8.041-1.174-16.128-1.82-23.946-2.452-7.13-.571-14.515-1.158-21.644-2.139-2.705-.372-5.785-.657-9.043-.942-8.042-.735-17.16-1.559-23.658-4.121-3.092-1.221-6.528-2.488-11.174-4.108-2.391-.84-4.826-1.685-7.306-2.534-12.579-4.361-25.591-8.854-37.494-14.634-11.335-5.5-23.924-12.262-29.717-22.831-5.39-9.837-.64-21.672 4.693-32.949 1.487-3.16 3.003-6.173 4.49-9.084.661-1.302 1.306-2.574 1.907-3.803 3.433-6.631 7.614-12.865 12.465-18.584 7.331-8.989 14.902-18.286 18.321-29.714 2.876-9.585 6.446-21.496 8.055-32.533.425-2.839.855-5.806 1.29-8.899 1.959-13.818 4.192-29.495 7.365-44.511 3.127-14.592 9.196-34.507 25.621-38.924 2.269-.624 4.613-.944 6.969-.951 13.725.029 23.373 11.763 32.021 22.294 3.084 3.962 6.437 7.717 10.037 11.237 3.282 3.023 6.997 6.78 10.95 10.741 5.699 5.723 12.158 12.223 19.41 18.739 19.099 17.187 42.26 36.329 69.325 48.071 5.442 2.16 10.322 5.481 14.287 9.723 1.327 1.467 2.595 3.036 3.832 4.547 2.858 3.755 6.146 7.177 9.8 10.197 4.36 3.152 8.985 5.934 13.826 8.317 1.598.838 3.166 1.676 4.689 2.514 1.658.925 3.345 1.822 5.033 2.719 6.63 3.514 13.485 7.159 18.975 12.34 11.652 11.006 18.39 20.04 22.569 30.254.52 1.29 1.04 2.696 1.62 4.44 3.817 11.444.158 23.208-3.381 34.607ZM321.7 243.741c-2.239 4.269-4.554 8.683-6.715 13.078-5.024 9.765-10.551 19.274-16.561 28.49-2.087 3.323-4.172 6.644-6.209 9.981-4.002 6.558-4.212 9.857-1.069 16.809 3.179 6.522 6.935 12.76 11.226 18.64 3.335 4.669 6.4 9.518 9.178 14.524 5.809 11.146 13.75 21.096 23.391 29.309 11.355 9.454 19.936 25.644 26.83 38.654l1.311 2.469c1.678 3.44 2.969 7.048 3.85 10.761.928 3.995 2.357 7.862 4.254 11.514 7.523 13.228 19.064 22.579 30.227 31.623 5.206 4.218 10.589 8.579 15.517 13.291.611.583 1.206 1.166 1.795 1.744 3.689 3.614 7.174 7.027 12.453 8.707 1.167.403 2.389.628 3.626.667 1.038.051 2.061-.263 2.884-.885 2.195-1.768 1.891-5.868 1.392-9.916-.445-3.145-1.086-6.26-1.92-9.327-1.318-5.259-2.563-10.225-1.822-15.866 1.3-10.252 3.162-20.427 5.579-30.483 2.356-9.509 7.47-27.596 15.248-41.898 2.161-3.973 4.589-8.066 6.938-12.024 5.089-8.578 10.354-17.449 13.869-26.587 2.82-7.804 5.146-15.77 6.964-23.853 1.306-5.292 2.656-10.765 4.298-16.087 1.289-4.702 2.121-9.512 2.484-14.368.682-6.365 1.325-12.378 3.985-17.936 3.51-7.335 3.999-14.203 4.518-21.476.176-2.477.358-5.039.665-7.698.811-7.042 2.327-14.404 3.792-21.524.523-2.538 1.047-5.081 1.543-7.624 1.65-9.23 2.563-18.572 2.732-27.942.289-4.402.893-8.779 1.806-13.099.659-3.533 1.34-7.187 1.678-10.828l-1.489-.132c-.332 3.575-1.007 7.196-1.659 10.697-.928 4.388-1.54 8.834-1.831 13.305-.166 9.296-1.071 18.566-2.705 27.725-.496 2.537-1.019 5.076-1.54 7.609-1.473 7.151-2.994 14.544-3.813 21.648-.31 2.69-.493 5.269-.671 7.761-.508 7.132-.989 13.868-4.38 20.957-2.766 5.782-3.454 12.199-4.117 18.405-.357 4.763-1.17 9.482-2.428 14.096-1.656 5.362-3.01 10.855-4.32 16.167-1.805 8.025-4.114 15.933-6.913 23.681-3.469 9.024-8.701 17.841-13.762 26.367-2.354 3.97-4.79 8.074-6.963 12.072-7.856 14.444-13.009 32.664-15.382 42.241-2.43 10.108-4.302 20.337-5.609 30.642-.775 5.911.561 11.244 1.853 16.4.819 3.011 1.45 6.068 1.889 9.154.429 3.486.752 7.313-.859 8.61-.933.75-2.646.734-5.098-.045-4.938-1.57-8.299-4.863-11.858-8.349-.594-.581-1.193-1.169-1.807-1.756-4.973-4.754-10.38-9.135-15.609-13.371-11.056-8.957-22.488-18.22-29.874-31.207-1.841-3.546-3.224-7.303-4.117-11.184-.906-3.816-2.237-7.523-3.968-11.055l-1.309-2.468c-6.955-13.122-15.61-29.454-27.187-39.096-9.495-8.089-17.315-17.888-23.034-28.867-2.804-5.055-5.897-9.952-9.264-14.667-4.241-5.81-7.955-11.972-11.1-18.416-2.959-6.542-2.783-9.288.985-15.464 2.033-3.333 4.116-6.648 6.199-9.965 6.038-9.258 11.59-18.811 16.635-28.623 2.153-4.377 4.463-8.783 6.697-13.043 4.242-8.088 8.627-16.452 12.161-25.04 5.528-13.44 7.813-28.799 10.024-43.652.619-4.162 1.205-8.094 1.86-11.999 1.269-7.558 1.79-15.323 2.293-22.834.843-12.576 1.714-25.581 6.155-37.714.383-1.048.755-2.094 1.124-3.132 3.218-9.0505 6.258-17.5981 15.476-22.7534l-.742-1.2717c-9.703 5.4274-12.832 14.2268-16.145 23.5435-.368 1.0346-.738 2.0766-1.121 3.1206-4.511 12.326-5.39 25.435-6.239 38.112-.501 7.475-1.019 15.204-2.277 22.691-.657 3.919-1.243 7.856-1.863 12.026-2.198 14.768-4.47 30.038-9.932 43.315-3.508 8.527-7.878 16.86-12.103 24.919Z"/></g></svg>