<svg width="596" height="817" fill="none" xmlns="http://www.w3.org/2000/svg"><g opacity=".5" fill="#DFE4E8"><path opacity=".4" d="M256.722 725.625c-2.163 6.37-4.878 12.542-8.117 18.447-3.602 7.043-7.316 14.328-9.039 22.097-.485 2.174-.91 4.242-1.335 6.25-1.627 7.931-3.041 14.767-6.899 23.18-7.355 15.984-8.747 18.023-26.077 26.66-.695.345-1.412.715-2.147 1.096-4.702 2.387-10.555 5.377-15.724 5.852l-.018.01c-12.251 1.038-24.411 2.869-36.4 5.479-8.274 1.797-16.645 3.159-25.076 4.079-36.1506 3.318-55.7238-33.939-62.474-50.11-2.5092-6.045-7.3507-12.104-12.042-17.971-6.6734-8.364-13.5833-17.002-14.5404-26.27-1.6452-15.997 13.2978-21.995 26.4956-27.306 1.298-.519 2.5815-1.041 3.8324-1.558 5.4751-2.419 10.7759-5.196 15.8671-8.313 10.3325-5.996 21.0153-12.202 34.6473-12.974 7.352-.426 14.861-.567 22.79-.717 21.119-.419 42.932-.835 61.625-6.625 1.838-.572 4.182-1.419 6.886-2.398 11.467-4.149 28.567-10.348 39.924-7.33 2.076.476 4.021 1.406 5.689 2.72 1.668 1.315 3.016 2.979 3.943 4.869 3.883 7.803.231 34.194-1.811 40.833Zm.465-40.191c-7.076-14.243-32.495-5.028-47.676.468-2.722.989-5.085 1.846-6.955 2.425-18.897 5.857-40.819 6.274-62.046 6.695-7.915.154-15.409.299-22.74.7-13.273.761-23.7916 6.875-33.9641 12.792-5.1511 3.146-10.5112 5.953-16.0454 8.402-1.2508.517-2.5488 1.035-3.8649 1.564-12.7107 5.107-27.1193 10.9-25.576 25.824.9178 8.834 7.6881 17.298 14.2365 25.492 4.7484 5.943 9.6579 12.095 12.2452 18.312 5.5571 13.324 19.9441 41.221 45.2157 47.935 5.13 1.348 10.456 1.777 15.721 1.268 8.377-.92 16.694-2.276 24.916-4.061 12.047-2.62 24.265-4.455 36.574-5.494 4.886-.459 10.593-3.366 15.175-5.709.75-.377 1.467-.747 2.162-1.092 16.973-8.459 18.134-10.151 25.4-25.976 3.803-8.262 5.198-15.027 6.812-22.855.411-2.012.84-4.094 1.329-6.282 1.753-7.943 5.522-15.32 9.162-22.443 3.194-5.828 5.877-11.917 8.021-18.2 2.273-7.396 5.38-32.78 1.898-39.765Z"/><path opacity=".5" d="M245.054 733.448c-2.314 4.92-4.949 9.685-7.888 14.267-3.827 6.255-7.786 12.717-9.768 19.539-.487 1.658-.94 3.249-1.365 4.788-1.705 6.923-4.124 13.651-7.22 20.08-6.655 13.351-8.565 15.768-23.128 23.307-.645.329-1.296.685-1.962 1.039-4.267 2.26-9.094 4.826-13.601 5.37-9.597 1.132-17.843 2.532-24.631 3.743l-3.214.57c-8.593 1.759-17.299 2.964-26.064 3.605-33.5021 1.734-48.4673-34.527-52.2636-45.686-1.8134-5.345-5.4854-10.623-9.0178-15.728-4.9151-7.063-9.9836-14.364-10.3076-22.055-.5475-13.432 12.4453-18.494 23.9039-22.964 1.0141-.382 1.9994-.772 2.9846-1.162 4.6685-1.987 9.2128-4.24 13.6102-6.747 8.3993-4.6 17.0973-9.334 27.6913-10.549.798-.092 1.606-.165 2.44-.216 6.051-.362 12.261-.56 18.843-.766 18.491-.602 37.601-1.206 54.2-5.81 1.703-.472 3.771-1.15 6.176-1.935 9.667-3.143 24.061-7.832 33.974-5.199 1.86.428 3.61 1.241 5.131 2.385 1.521 1.143 2.779 2.591 3.689 4.246 4.299 7.808.62 29.465-2.213 35.878Zm.902-35.196c-6.545-11.935-28.118-4.91-41.004-.713-2.406.785-4.505 1.469-6.241 1.947-16.766 4.651-35.971 5.26-54.552 5.853-6.568.209-12.763.412-18.8.777-.801.045-1.595.122-2.359.207-10.308 1.185-18.864 5.851-27.1327 10.365-4.4549 2.54-9.0588 4.823-13.7885 6.836-.967.379-1.9704.779-2.9846 1.161-11.0078 4.287-23.4843 9.153-22.9742 21.56.2992 7.261 5.2571 14.396 10.0364 21.271 3.6004 5.199 7.3258 10.567 9.2136 16.098 3.1938 9.409 14.5116 37.095 38.382 43.437 4.036 1.064 8.213 1.483 12.371 1.241 8.699-.64 17.341-1.836 25.871-3.579l3.214-.571c6.821-1.218 15.081-2.613 24.715-3.766 4.235-.511 8.934-3.004 13.077-5.206.681-.35 1.332-.707 1.962-1.039 14.276-7.388 15.951-9.504 22.51-22.668 3.051-6.347 5.437-12.987 7.12-19.819.428-1.553.882-3.144 1.369-4.803 2.03-7.005 6.045-13.559 9.923-19.891 2.902-4.528 5.506-9.235 7.796-14.094 2.6-5.885 6.22-27.436 2.276-34.604Z"/><path opacity=".7" d="M233.368 741.281c-2.248 3.63-4.966 7.165-7.592 10.588-4.277 5.56-8.319 10.819-10.568 16.494-.476 1.206-.925 2.375-1.371 3.529-2.101 5.764-4.623 11.367-7.547 16.766-5.934 10.695-8.144 13.365-20.191 19.936-.51.289-1.052.584-1.599.894-3.63 2.02-7.734 4.308-11.633 4.953-3.66.619-7.165 1.233-10.539 1.821-3.649.636-7.139 1.255-10.567 1.813-8.314 1.6-16.759 2.493-25.243 2.671-23.747-.052-37.4899-22.277-42.0468-41.289-1.3659-4.666-3.3436-9.144-5.8831-13.32-3.3309-6.096-6.4914-11.844-6.1673-18.015.5795-10.861 11.6508-14.979 21.4173-18.611l2.01-.754c3.8713-1.471 7.6529-3.36 11.3209-5.173 7.224-3.61 14.695-7.337 23.61-8.347.671-.079 1.353-.141 2.048-.198 4.679-.317 9.505-.55 14.629-.795 15.968-.772 32.468-1.57 47.061-5.025 1.503-.358 3.34-.87 5.261-1.405 8.4-2.329 19.853-5.497 28.104-3.305 1.68.387 3.266 1.103 4.664 2.105 1.398 1.001 2.579 2.268 3.471 3.723 4.706 7.795 1.055 24.975-2.649 30.944Zm1.357-30.212c-5.91-9.782-23.127-5.008-34.519-1.838-1.95.527-3.787 1.039-5.323 1.403-14.726 3.496-31.307 4.303-47.336 5.073-5.109.249-9.936.482-14.614.799-.664.051-1.327.102-1.965.175-8.651 1.004-16.013 4.669-23.124 8.204-3.717 1.938-7.537 3.684-11.444 5.231l-2.0138.768c-9.3521 3.469-19.9437 7.412-20.4742 17.331-.2911 5.756 2.7587 11.338 5.9901 17.226 2.6129 4.29 4.641 8.894 6.0317 13.693 3.8255 15.999 14.3102 34.359 31.8952 39.031 2.833.745 5.749 1.123 8.674 1.123 8.4-.186 16.762-1.076 24.993-2.661 3.428-.559 6.918-1.177 10.549-1.803 3.392-.599 6.897-1.213 10.571-1.828 3.628-.611 7.619-2.824 11.14-4.782.546-.309 1.088-.604 1.613-.889 11.782-6.445 13.76-8.828 19.61-19.379 2.891-5.343 5.382-10.889 7.454-16.593.446-1.154.91-2.319 1.389-3.54 2.317-5.869 6.612-11.439 10.753-16.838 2.604-3.399 5.296-6.896 7.514-10.472 3.459-5.566 7.009-22.197 2.636-29.434Z"/><path d="M221.666 749.111c-2.336 2.682-5.027 5.301-7.648 7.831-4.417 4.281-8.584 8.324-11.005 12.545-.696 1.224-1.363 2.395-2.008 3.542-2.244 3.964-4.351 7.706-7.237 12.166-5.247 8.166-7.989 11.149-17.24 16.57l-1.159.692c-2.993 1.99-6.271 3.538-9.728 4.596-7.115 1.685-12.555 2.77-17.625 3.514-6.988 1.22-14.108 1.612-21.208 1.167-19.397-1.578-30.0781-20.247-31.8073-36.918-.4917-3.593-1.3729-7.129-2.6287-10.546-1.6184-4.914-3.1526-9.563-2.1428-14.355 1.7496-8.277 10.9978-11.471 19.1558-14.288l.817-.283c2.998-1.036 5.984-2.319 8.868-3.567 6.095-2.623 12.401-5.341 19.678-6.18.529-.072 1.084-.121 1.639-.171 2.983-.223 6.121-.449 9.354-.681 13.148-.93 28.047-1.987 40.999-4.393 1.205-.226 2.548-.505 3.974-.808 6.666-1.395 15.71-3.295 22.573-1.472 3.039.693 5.707 2.49 7.467 5.029 5.183 7.74 1.637 20.569-3.088 26.01Zm1.841-25.22c-5.23-7.798-18.665-4.974-28.463-2.911-1.444.313-2.802.589-4.006.814-13.032 2.415-27.978 3.475-41.174 4.408-3.233.232-6.357.462-9.339.685-.54.053-1.081.107-1.592.168-7.052.807-13.252 3.478-19.26 6.063-2.903 1.259-5.907 2.552-8.959 3.619l-.818.283c-7.783 2.689-16.6207 5.735-18.2031 13.208-.9227 4.406.5516 8.873 2.0957 13.601 1.2945 3.516 2.2004 7.154 2.7019 10.853 1.5035 14.55 10.0185 30.659 25.3345 34.728 1.667.444 3.372.734 5.091.868 6.985.434 13.99.047 20.864-1.153 5.023-.741 10.416-1.823 17.494-3.488 3.306-1.039 6.441-2.531 9.314-4.433l1.177-.703c9.036-5.31 11.554-8.035 16.743-16.095 2.864-4.435 4.964-8.15 7.186-12.089.649-1.161 1.315-2.332 2.012-3.557 2.53-4.402 6.764-8.519 11.261-12.87 2.585-2.51 5.268-5.099 7.56-7.733 4.326-4.986 7.707-17.193 2.98-24.266Z"/><path d="M206.563 755.189c-.994.948-1.93 1.851-2.731 2.713-.916 1.015-1.768 2.084-2.552 3.201-1.04 1.551-2.246 2.988-3.598 4.286-1.002.855-2.063 1.641-3.177 2.353-1.361.83-2.619 1.812-3.748 2.928-3.644 3.88-6.73 7.635-9.538 11.101-3.891 5.201-8.717 9.658-14.244 13.153l-.467.3c-2.499 1.789-5.21 3.276-8.075 4.43-4.577 1.639-9.326 2.785-14.165 3.418-5.703.823-11.517.702-17.199-.359-15.792-3.21-22.779-18.838-21.524-32.594.206-2.173.244-4.178.295-6.118.102-4.579.195-8.539 2.264-12.367 2.839-5.276 9.413-7.604 16.467-9.7 1.914-.567 3.796-1.188 5.692-1.805 5.314-1.943 10.823-3.342 16.44-4.177.413-.042.826-.084 1.243-.139 9.57-.912 21.669-2.318 33.366-3.665l5.667-.661c.826-.083 1.66-.195 2.49-.292 5.251-.665 11.125-1.408 16.443.005.476.127.96.286 1.444.445 2.419.767 4.506 2.321 5.915 4.404.832 1.171 1.396 2.502 1.655 3.902.258 1.4.204 2.836-.158 4.207-1.116 4.203-4.918 7.859-8.205 11.031Zm5.451-18.368c-1.233-1.798-3.05-3.136-5.149-3.792-5.335-1.872-11.354-1.108-17.192-.387-.849.109-1.679.206-2.495.307l-5.681.657c-11.697 1.347-23.796 2.753-33.384 3.675-.413.042-.812.087-1.211.133-5.519.821-10.933 2.195-16.156 4.1-1.9.632-3.797 1.249-5.729 1.827-6.752 2.008-13.028 4.204-15.598 8.99-1.896 3.527-1.976 7.323-2.091 11.717-.044 1.972-.09 4.006-.292 6.224-1.166 12.659 4.965 26.969 18.866 30.662.476.126.968.257 1.456.341 5.519 1.035 11.167 1.153 16.707.348 4.73-.631 9.373-1.754 13.852-3.349 2.75-1.119 5.353-2.553 7.756-4.272l.466-.3c5.393-3.422 10.106-7.774 13.916-12.847 2.815-3.494 5.923-7.274 9.589-11.178 1.207-1.198 2.551-2.254 4.007-3.147 1.056-.677 2.065-1.421 3.02-2.228 1.276-1.228 2.414-2.586 3.397-4.051.819-1.167 1.706-2.287 2.654-3.355.838-.884 1.778-1.801 2.79-2.759 5.115-4.928 10.913-10.508 6.502-17.316Z"/><path d="M194.552 757.194c-1.009.6-1.976 1.264-2.895 1.988-1.583 1.514-2.954 3.228-4.076 5.098-1.787 2.707-3.643 5.502-7.077 7.135-4.649 1.997-8.986 4.623-12.885 7.802-1.26 1.074-2.517 2.195-3.774 3.315-6.729 6-13.695 12.194-23.326 13.044-9.152.795-17.155-2.331-21.962-8.578-4.607-6.011-5.497-13.898-2.424-21.626 6.106-15.301 21.076-17.035 35.55-18.704 1.004-.112 1.994-.228 2.988-.358l.83-.097c2.952-.398 6.003-.936 8.938-1.443 8.242-1.447 16.775-2.937 25.26-1.804 1.539.186 3.066.47 4.57.851 2.153.412 4.118 1.504 5.594 3.107.403.526.691 1.127.847 1.766.155.638.174 1.3.055 1.943-.475 3.01-3.513 4.9-6.213 6.561Zm4.122-9.404c-1.849-2.415-7.155-3.113-9.159-3.373-8.265-1.09-16.667.375-24.793 1.791-2.953.518-6.019 1.052-9.003 1.456l-.849.108c-.99.116-1.994.228-2.987.358-14.057 1.613-28.582 3.299-34.35 17.795-2.88 7.234-2.082 14.597 2.217 20.193 4.467 5.838 11.986 8.745 20.617 7.993 9.137-.799 15.921-6.829 22.471-12.679 1.271-1.117 2.528-2.237 3.792-3.326 3.998-3.257 8.441-5.951 13.202-8.006 3.082-1.47 4.736-3.969 6.493-6.623 1.189-1.985 2.649-3.798 4.34-5.392.975-.783 2.007-1.496 3.088-2.134 2.423-1.492 5.166-3.202 5.53-5.56.091-.45.084-.914-.021-1.362-.105-.448-.305-.871-.588-1.239Z"/><path opacity=".3" d="M268.103 662.842c-3.611-1.716-14.747-.964-23.954.301-5.846.804-11.148 3.248-16.276 5.612-4.27 2.146-8.758 3.855-13.392 5.099-8.314 1.706-16.741 2.856-25.225 3.443-2.555.235-5.077.468-7.53.724-11.083 1.162-22.392 1.846-33.329 2.507-14.569.881-29.632 1.792-44.317 3.842l-.225-1.452c14.743-2.058 29.837-2.971 44.434-3.853 10.921-.661 22.213-1.344 33.263-2.501 2.46-.258 4.988-.491 7.55-.727 8.414-.581 16.773-1.72 25.019-3.41 4.535-1.223 8.927-2.899 13.107-5 5.226-2.41 10.631-4.902 16.699-5.736 4.216-.579 17.555-2.214 23.479-.64.457.117.903.274 1.332.47 7.672 3.618 7.692 16.977 6.63 23.536-2.944 18.188-9.772 36.535-16.375 54.276-.899 2.414-1.784 4.801-2.655 7.162-2.362 7.229-4.087 14.65-5.156 22.182-2.093 12.086-4.257 24.583-10.987 34.022l-1.226-.85c6.54-9.172 8.676-21.506 10.742-33.433 1.081-7.617 2.828-15.122 5.222-22.432.868-2.361 1.754-4.75 2.657-7.167 6.579-17.677 13.381-35.956 16.304-54.005 1-6.183 1.078-18.732-5.791-21.97Z"/><path opacity=".5" d="M681.243 218.775c2.554-18.122 5.918-35.969 16.837-53.9-.403-.289-.824-.567-1.249-.832-11.088 18.159-14.485 36.194-17.064 54.522-2.439 17.396-1.02 32.09 2.467 53.151 6.135 37.066 13.772 83.212-13.868 115.471-15.092 17.624-35.977 28.756-56.178 39.524-1.984 1.063-3.982 2.123-5.952 3.19-8.343 4.655-16.42 9.752-24.195 15.267-11.619 7.927-22.596 15.419-35.977 20.545-9.968 3.805-15.874 9.039-23.341 15.66-1.096.981-2.225 1.969-3.394 2.992-4.557 3.784-9.388 7.239-14.456 10.34-4.572 2.839-8.973 5.934-13.182 9.269-9.177 7.53-17.856 15.86-26.249 23.932-6.576 6.298-13.365 12.811-20.333 18.898-3.324 2.905-6.563 6.014-9.71 9.01-6.701 6.416-13.646 13.055-21.684 18.04-14.184 8.791-30.425 22.823-49.669 42.92-2.803 2.922-5.732 5.507-8.822 8.231-2.06 1.816-4.197 3.687-6.284 5.663-12.011 11.552-21.407 25.465-27.587 40.848-3.146 7.769-2.159 15.819-1.209 23.6.312 2.553.634 5.184.801 7.758.313 7.91.03 15.826-.845 23.682-.294 3.437-.603 6.991-.796 10.455-2.023 35.807-5.158 65.199-25.103 90.381-3.101 4.137-5.912 8.477-8.415 12.99-2.682 4.897-5.773 9.564-9.244 13.952-3.849 4.39-7.999 8.516-12.422 12.35l-.405.362c-2.507 2.273-5.013 4.546-7.349 6.759-4.075 3.871-8.394 7.375-12.57 10.75-4.551 3.684-9.246 7.497-13.666 11.791-2.544 2.476-5.094 5.086-7.574 7.608-5.262 5.549-10.814 10.825-16.635 15.806l-.931.768c-.456.379-.912.758-1.365 1.122.592.157 1.189.301 1.781.458l.537-.448.949-.778c5.858-5.01 11.445-10.317 16.737-15.9 2.48-2.523 5.026-5.119 7.567-7.58 4.365-4.264 9.037-8.052 13.553-11.716 4.198-3.399 8.534-6.913 12.668-10.829 2.314-2.188 4.82-4.462 7.242-6.651l.486-.432c4.463-3.887 8.657-8.061 12.554-12.496 3.52-4.456 6.66-9.19 9.391-14.155 2.462-4.459 5.233-8.744 8.294-12.826 20.202-25.508 23.364-55.12 25.407-91.18.193-3.463.499-7.003.789-10.425.881-7.927 1.166-15.912.854-23.892-.17-2.621-.503-5.27-.811-7.836-.966-7.953-1.879-15.468 1.116-22.899 6.106-15.189 15.386-28.926 27.248-40.332 2.069-1.965 4.187-3.826 6.248-5.642 2.984-2.616 6.056-5.33 8.902-8.3 19.16-20.014 35.307-33.98 49.378-42.694 8.168-5.072 15.172-11.756 21.931-18.217 3.133-3 6.368-6.095 9.67-8.975 6.991-6.112 13.797-12.636 20.377-18.948 8.372-8.047 17.028-16.352 26.155-23.866 4.172-3.289 8.532-6.344 13.057-9.151 5.12-3.149 10.005-6.65 14.617-10.479 1.183-1.019 2.301-2.024 3.408-2.988 7.364-6.527 13.173-11.68 22.886-15.402 13.548-5.173 24.587-12.723 36.282-20.706 7.741-5.473 15.774-10.54 24.064-15.18 1.97-1.068 3.969-2.127 5.953-3.191 20.324-10.826 41.318-22.019 56.608-39.864 28.069-32.766 20.374-79.276 14.176-116.632-3.448-20.914-4.861-35.515-2.456-52.723Z"/><path opacity=".3" d="M639.621 325.342c.245-6.631-1.639-12.465-3.468-18.102-1.133-3.304-2.068-6.668-2.8-10.076-2.402-12.622-1.616-25.427-.862-37.817.765-12.492 1.549-25.404-.913-38.208-1.865-9.753-5.542-18.971-9.081-27.895-4.292-10.806-8.733-21.986-10.156-34.393-.618-5.361-.948-10.872-1.277-16.216-.453-7.438-.929-15.14-2.154-22.586-.109-.696-.233-1.395-.371-2.098l-.014-.004c-.5-.044-1.001-.061-1.503-.051.145.796.293 1.578.423 2.37 1.196 7.378 1.669 15.033 2.13 22.443.325 5.358.662 10.902 1.287 16.295 1.432 12.606 5.912 23.871 10.243 34.764 3.525 8.86 7.16 18.006 9.015 27.62 2.417 12.625 1.641 25.448.883 37.852-.761 12.478-1.556 25.372.892 38.173.73 3.471 1.68 6.896 2.845 10.255 1.871 5.769 3.625 11.219 3.386 17.595-.617 16.652-14.917 29.14-25.348 38.246-6.79 5.937-13.302 11.934-19.624 17.739-6.427 5.912-13.078 12.023-19.985 18.051-2.735 2.379-5.586 4.727-8.609 7.197-9.974 8.198-20.312 16.662-26.69 27.163-1.627 2.773-3.063 5.651-4.299 8.615-2.477 5.599-4.613 10.44-10.651 14.941-9.138 6.799-18.307 13.831-27.162 20.614-8.855 6.783-18.021 13.802-27.144 20.604-6.147 4.563-12.56 8.965-18.743 13.201-7.62 5.217-15.491 10.625-22.972 16.424-25.557 19.814-57.949 46.023-81.734 73.079-7.225 8.216-16.491 14.45-25.437 20.467-7.363 4.951-14.957 10.07-21.325 16.226-14.247 13.803-15.147 35.654-15.949 54.923-.122 2.968-.241 5.86-.409 8.648l-.253 4.387c-2.054 34.936-3.661 62.537-24.852 92.237-2.24 3.132-4.347 6.465-6.392 9.679-3.162 5.255-6.681 10.293-10.533 15.079l1.157.944c3.894-4.835 7.452-9.922 10.65-15.23 2.027-3.203 4.131-6.523 6.344-9.616 21.423-30.048 23.136-59.211 25.114-92.985l.252-4.387c.172-2.803.295-5.709.417-8.677.778-19.003 1.675-40.551 15.505-53.951 6.27-6.076 13.819-11.145 21.124-16.052 9.026-6.086 18.366-12.361 25.722-20.724 23.715-26.969 56.03-53.123 81.533-72.905 7.441-5.765 15.29-11.148 22.892-16.355 6.205-4.26 12.632-8.658 18.786-13.25 9.153-6.794 18.304-13.817 27.159-20.599 8.874-6.793 18.025-13.816 27.163-20.615 6.343-4.723 8.665-9.969 11.112-15.515 1.218-2.906 2.624-5.73 4.211-8.456 6.256-10.276 16.481-18.665 26.371-26.779 3.026-2.483 5.892-4.827 8.649-7.231 6.925-6.038 13.58-12.163 20.007-18.076 6.304-5.794 12.83-11.787 19.598-17.7 10.636-9.295 25.199-22.015 25.84-39.282Z"/><path opacity=".4" d="M674.666 322.048c1.497-24.449-7.246-49.133-15.707-73.015-3.713-10.486-7.475-21.075-10.381-31.741-.514-.037-1.029-.042-1.543-.015 2.923 10.836 6.734 21.59 10.514 32.229 8.408 23.733 17.109 48.284 15.629 72.435-1.638 26.728-15.307 49.306-43.045 71.04l-1.113.871c-5.358 4.212-11.434 8.976-16.88 12.65-8.633 5.827-17.178 10.859-25.45 15.737-17.184 10.129-33.415 19.695-48.851 35.122-12.613 12.602-27.635 22.276-40.897 30.797-9.347 6.016-17.659 13.549-25.701 20.821-3.807 3.442-7.742 7.017-11.748 10.392-6.661 5.912-12.764 12.403-18.237 19.395-6.281 7.573-12.781 15.39-21.292 21.749-6.563 4.908-13.683 9.349-20.58 13.652-11.685 7.304-23.793 14.859-33.611 24.915-4.481 4.582-8.192 10.459-11.785 16.125-6.245 9.885-12.704 20.108-23.584 24.383-3.163 1.25-6.306 2.249-9.361 3.209-13.117 4.135-24.462 7.712-23.143 27.788.511 5.472 1.469 10.9 2.867 16.23 1.455 5.504 2.417 11.119 2.877 16.778.534 10.277-1.475 19.122-3.593 28.497-1.014 4.458-2.055 9.074-2.815 13.917-4.718 29.532-12.437 59.993-36.887 82.798-3.983 3.699-6.861 8.479-9.651 13.101-2.373 4.37-5.29 8.429-8.686 12.085-4.801 4.739-11.383 8.611-17.742 12.345-1.832 1.073-3.614 2.13-5.315 3.178-5.121 3.01-10.437 5.692-15.915 8.028-5.41 2.318-10.667 4.959-15.744 7.907-2.823 1.719-5.68 3.566-8.428 5.351-12.636 8.202-25.712 16.666-41.672 16.244l-.033 1.461c16.449.446 29.704-8.168 42.54-16.483 2.744-1.771 5.587-3.621 8.374-5.32 5.034-2.911 10.242-5.524 15.598-7.825 5.536-2.361 10.907-5.074 16.079-8.12 1.683-1.038 3.479-2.091 5.293-3.154 6.436-3.79 13.091-7.703 18.034-12.571 3.472-3.746 6.465-7.895 8.913-12.358 2.518-4.674 5.676-8.983 9.388-12.807 24.76-23.101 32.569-53.841 37.322-83.621.764-4.797 1.797-9.386 2.807-13.829 2.141-9.46 4.161-18.407 3.618-28.884-.456-5.744-1.428-11.442-2.903-17.028-1.386-5.251-2.334-10.6-2.837-15.994-1.232-18.947 9.07-22.21 22.137-26.328 3.07-.957 6.245-1.962 9.444-3.233 11.328-4.444 17.919-14.873 24.292-24.952 3.712-5.877 7.213-11.431 11.588-15.904 9.704-9.921 21.721-17.424 33.348-24.683 6.919-4.327 14.075-8.789 20.674-13.717 8.664-6.47 15.216-14.365 21.544-22.001 5.425-6.915 11.464-13.341 18.048-19.203 4.042-3.395 7.977-6.97 11.788-10.427 8.005-7.251 16.273-14.735 25.508-20.675 13.334-8.562 28.429-18.278 41.152-31.002 15.308-15.294 31.462-24.804 48.559-34.897 8.287-4.873 16.854-9.93 25.523-15.778 5.486-3.708 11.584-8.496 16.956-12.705l1.131-.881c28.074-22.008 41.924-44.917 43.585-72.079Z"/><path d="m809.866 154.593-2.962-.787c-25.568 6.282-51.882 12.926-73.489 28.35-21.09 15.046-29.444 23.962-27.209 52.008 1.372 17.317 3.386 34.835 5.341 51.763 1.687 14.734 3.43 29.953 4.765 45.019.461 5.198 1.115 10.538 1.768 15.711 3.629 29.204 7.067 56.796-21.501 72.219-9.681 5.231-20.492 8.312-30.951 11.29-8.714 2.252-17.234 5.149-25.49 8.666-8.683 3.981-16.695 10.093-24.456 16.016-3.725 2.843-7.221 5.52-10.753 7.929-17.784 12.152-35.391 23.579-55.231 29.671-4.043 1.243-7.671 2.264-11.179 3.241-14.657 4.105-25.235 7.067-39.272 19.791-4.113 3.584-8.411 6.957-12.879 10.107-5.077 3.531-9.902 7.397-14.443 11.57-3.611 3.688-6.878 7.687-9.763 11.95-3.627 5.036-7.379 10.251-12.412 14.232-6.609 5.258-13.345 10.059-19.844 14.725-6.59 4.719-13.424 9.599-19.983 14.841-3.774 3.027-7.313 6.162-10.736 9.207-5.445 5.036-11.216 9.722-17.277 14.029-3.19 2.167-6.93 4.249-10.902 6.451-8.619 4.785-17.533 9.75-22.299 16.513-7.326 10.401-3.547 17.434 1.238 26.326.487.902.981 1.837 1.486 2.789 7.625 14.509 9.292 28.269 11.217 44.203.261 2.161.53 4.353.816 6.595.609 4.813 1.279 9.628 1.961 14.459 4.289 30.562 8.717 62.175-3.456 91.119-4.226 9.446-9.086 18.601-14.549 27.405-3.903 6.598-7.931 13.437-11.367 20.432-5.486 11.163-10.928 23.322-16.453 36.67.503.089 1.001.191 1.497.307 5.462-13.229 10.87-25.261 16.301-36.332 3.424-6.953 7.427-13.752 11.311-20.341 5.497-8.853 10.387-18.061 14.637-27.562 12.319-29.316 7.867-61.132 3.554-91.896-.67-4.814-1.341-9.628-1.953-14.427-.286-2.243-.555-4.435-.817-6.595-1.937-16.059-3.618-29.943-11.363-44.697-.516-.97-1.014-1.89-1.498-2.807-4.913-9.107-8.154-15.135-1.331-24.806 4.586-6.493 13.35-11.361 21.827-16.078 3.976-2.215 7.752-4.318 11-6.531 6.121-4.332 11.944-9.056 17.43-14.139 3.401-3.021 6.927-6.16 10.675-9.148 6.537-5.217 13.338-10.092 19.928-14.81 6.514-4.662 13.257-9.492 19.899-14.757 5.194-4.119 8.997-9.411 12.689-14.52 2.836-4.191 6.044-8.124 9.588-11.755 4.5-4.119 9.273-7.942 14.286-11.445 4.517-3.177 8.861-6.585 13.014-10.208 13.756-12.48 23.666-15.256 38.657-19.454 3.526-.987 7.168-2.004 11.229-3.258 20.044-6.159 37.742-17.637 55.621-29.855 3.569-2.43 7.086-5.132 10.826-7.971 7.687-5.881 15.641-11.949 24.168-15.865 8.188-3.48 16.638-6.345 25.279-8.57 10.528-3.005 21.423-6.11 31.264-11.419 29.42-15.893 25.775-45.268 22.243-73.674-.642-5.155-1.315-10.485-1.764-15.664-1.332-15.08-3.086-30.317-4.773-45.052-1.94-16.923-3.962-34.413-5.338-51.716-2.183-27.426 5.564-35.685 26.603-50.715 21.797-15.555 48.57-22.123 74.45-28.473.363-.085.744-.181 1.125-.277Z"/><path opacity=".7" d="M695.693 252.777c-2.737-22.952-.013-34.546 12.093-51.646 11.977-16.907 26.343-29.179 44.465-41.09-.661-.13-1.315-.289-1.976-.48-17.715 11.777-31.853 24.004-43.705 40.732-12.37 17.454-15.15 29.259-12.356 52.636 1.16 9.671 2.785 19.511 4.517 29.94 4.483 26.977 9.11 54.87 5.132 80.099-5.322 33.901-33.936 51.826-58.272 63.662-5.72 2.783-11.631 5.469-17.346 8.057-8.697 3.916-17.682 7.982-26.241 12.541-8.097 4.6-15.812 9.814-23.076 15.595-2.75 2.086-5.596 4.239-8.408 6.265-11.225 8.077-22.853 13.123-35.164 18.473-12.487 5.68-24.443 12.408-35.737 20.108-19.285 12.879-36.372 28.658-50.645 46.766-4.741 6.088-11.349 9.999-17.738 13.786-3.862 2.186-7.582 4.603-11.141 7.236-7.927 6.403-15.507 13.208-22.709 20.388-2.866 2.754-5.718 5.511-8.594 8.185l-1.59 1.502c-4.937 4.858-10.253 9.332-15.898 13.381-3.525 2.381-6.837 4.425-10.136 6.245-12.401 6.856-16.432 11.315-21.512 23.919-5.051 12.113-5.867 25.568-2.322 38.273 3.068 11.572 3.44 22.867 3.839 34.82.072 1.943.129 3.882.208 5.857.077 2.157.168 4.318.263 6.464 1.353 32.765 2.618 63.705-13.568 91.507-1.628 2.81-3.242 5.684-4.856 8.558-3.698 6.906-7.748 13.621-12.135 20.122-2.233 3.224-4.672 6.409-7.024 9.496-1.405 1.854-2.81 3.708-4.186 5.569-2.238 3.011-4.217 5.743-6.053 8.346-2.614 3.729-5.323 7.403-7.936 10.951-4.304 5.84-8.737 11.874-12.884 18.226-2.717 4.172-5.428 8.496-8.036 12.667-1.416 2.244-2.84 4.518-4.278 6.787.514.106 1.027.212 1.533.346 1.353-2.125 2.692-4.254 4.009-6.358 2.622-4.167 5.33-8.477 8.046-12.649 4.103-6.303 8.536-12.337 12.819-18.153 2.617-3.562 5.325-7.236 7.958-10.975 1.832-2.589 3.811-5.32 6.031-8.321 1.372-1.847 2.777-3.701 4.182-5.555 2.355-3.101 4.798-6.3 7.049-9.535 4.481-6.385 8.424-13.427 12.227-20.234 1.6-2.878 3.199-5.755 4.838-8.547 16.389-28.158 15.118-59.311 13.76-92.29-.095-2.146-.186-4.307-.263-6.463-.083-1.962-.136-3.915-.212-5.844-.39-12.042-.773-23.415-3.89-35.151-3.458-12.403-2.661-25.538 2.266-37.364 4.984-12.357 8.689-16.463 20.872-23.195 3.335-1.841 6.698-3.902 10.245-6.308 5.711-4.091 11.086-8.615 16.077-13.53l1.604-1.497c2.862-2.679 5.728-5.432 8.598-8.2 7.165-7.142 14.705-13.912 22.588-20.284 3.511-2.598 7.182-4.982 10.992-7.139 6.517-3.859 13.237-7.846 18.155-14.13 14.169-17.995 31.141-33.672 50.301-46.463 11.225-7.646 23.103-14.333 35.504-19.988 12.38-5.377 24.077-10.451 35.437-18.628 2.83-2.036 5.676-4.189 8.441-6.272 7.197-5.741 14.846-10.917 22.876-15.481 8.518-4.524 17.485-8.581 26.153-12.504 5.715-2.587 11.64-5.27 17.393-8.06 24.642-11.996 53.635-30.185 59.068-64.738 4.01-25.463-.649-53.47-5.131-80.568-1.739-10.4-3.364-20.24-4.521-29.865Z"/><path d="M483.98 795.048c-3.877 9.53-11.121 15.317-20.395 16.277-11.169 1.168-23.626-5.05-31.007-15.465-5.938-8.395-9.256-21.064-11.236-29.861-2.211-9.845-1.914-20.75-1.616-31.306l.056-1.727c.263-8.854 1.192-17.243 2.078-25.355.175-1.59.342-3.151.52-4.695.342-3.211.577-6.482.832-9.657.358-6.737 1.172-13.44 2.436-20.062 2.961-13.712 10.872-25.094 19.239-37.142l.37-.523c7.243-10.438 14.058-16.354 20.819-18.103l.516-.136c1.864-.66 3.881-.805 5.834-.419.963.264 1.87.7 2.675 1.286 1.301.927 2.374 2.131 3.136 3.52.762 1.389 1.194 2.927 1.263 4.497.114 3.18-.199 6.357-.931 9.448l-.466 2.452c-.714 3.28-1.214 6.603-1.498 9.95-.356 8.089.069 16.202 1.269 24.228l.219 1.68c1.85 13.187 3.764 26.831 6.581 39.639 2.994 13.597 6.01 33.578 3.359 51.539-.535 3.645-.749 7.361-.95 10.974-.084 1.538-.167 3.076-.28 4.607-.213 3.39-.703 6.756-1.466 10.064-.344 1.462-.797 2.896-1.357 4.29Zm1.339-14.476c.109-1.516.189-3.04.272-4.578.209-3.642.42-7.404.955-11.109 2.624-17.741-.365-37.533-3.342-51.02-2.82-12.854-4.741-26.53-6.583-39.746l-.238-1.668c-1.205-8.124-1.631-16.332-1.269-24.518.286-3.415.794-6.807 1.521-10.155l.462-2.438c1.138-6.03 2.313-12.263-2.884-15.992-.646-.486-1.38-.846-2.163-1.059-1.7-.317-3.452-.169-5.063.427l-.53.132c-6.394 1.649-12.928 7.383-19.969 17.526l-.371.522c-8.271 11.923-16.105 23.188-19.006 36.614-1.253 6.559-2.06 13.197-2.415 19.871-.241 3.178-.498 6.473-.844 9.699-.163 1.548-.33 3.109-.505 4.699-.897 8.094-1.818 16.455-2.077 25.234l-.046 1.745c-.3 10.449-.604 21.262 1.577 30.931 1.948 8.683 5.221 21.173 11.005 29.331 4.754 6.778 11.757 11.732 19.795 14 3.19.881 6.514 1.168 9.799.846 8.719-.91 15.537-6.371 19.195-15.368.531-1.337.963-2.711 1.293-4.11.744-3.227 1.222-6.509 1.431-9.816ZM1078.49 452.851l-.14-1.461c-14.92 1.262-29.97.538-44.52-.149-9.43-.444-19.18-.912-28.77-.841-11.504.096-23.026 2.125-34.156 4.076-12.316 2.167-25.05 4.39-37.896 4.067-5.145-.14-10.252-.29-15.319-.449-22.028-.702-42.842-1.368-65.494.34-30.034 2.247-59.7 9.515-88.376 16.546-28.871 7.071-58.723 14.396-88.854 16.541-12.536.896-24.469 2.786-37.118 4.804-7.54 1.193-15.343 2.438-23.298 3.445-1.505.191-3.501.6-5.809 1.077-7.414 1.53-18.642 3.85-23.385.393-.678-.506-1.233-1.153-1.625-1.895-.392-.741-.611-1.557-.641-2.389-.225-2.529 6.734-9.103 20.695-19.559.675-.503 1.215-.905 1.587-1.2 15.502-11.839 32.395-21.818 50.328-29.731 4.266-1.851 8.713-3.684 13.018-5.449 25.809-10.566 52.49-21.506 65.002-47.936 8.629-18.221 6.026-41.622 3.745-62.272-.579-5.214-1.129-10.133-1.493-14.88-2.728-35.1-4.029-62.004-4.208-87.247-.005-1.031-.006-2.076-.028-3.098-.16-11.98-.311-23.292 9.342-32.438 11.521-10.938 26.12-13.952 41.587-17.146l2.798-.574c2.605-.55 5.179-1.175 7.721-1.873-.474-.358-.917-.755-1.325-1.185-2.219.607-4.461 1.148-6.727 1.622l-2.798.574c-14.976 3.096-30.461 6.3-42.303 17.516-10.096 9.589-9.947 21.203-9.795 33.5.019 1.035.038 2.071.043 3.102.172 25.271 1.48 52.207 4.2 87.335.371 4.78.917 9.712 1.497 14.927 2.268 20.464 4.847 43.662-3.605 61.506-12.285 25.93-38.687 36.747-64.237 47.215-4.305 1.765-8.767 3.594-13.037 5.46-18.052 7.956-35.056 17.998-50.655 29.916-.369.281-.909.683-1.565 1.175-10.722 8.044-21.632 16.796-21.283 20.843.051 1.041.335 2.061.833 2.987.497.926 1.196 1.734 2.045 2.368 5.286 3.859 16.449 1.552 24.599-.13 2.276-.472 4.243-.888 5.682-1.066 7.974-1.018 15.791-2.259 23.346-3.448 12.616-2.012 24.531-3.891 36.991-4.792 30.258-2.157 60.171-9.481 89.111-16.578 28.61-7.019 58.211-14.274 88.133-16.505 22.572-1.699 43.34-1.03 65.324-.34 5.076.167 10.17.323 15.333.453 12.984.329 25.801-1.917 38.179-4.083 11.083-1.948 22.54-3.965 33.911-4.048 9.56-.083 19.27.377 28.68.832 14.62.687 29.71 1.41 44.73.142Z"/><path d="M1032.6 768.963c-13.1 11.607-30.31 14.233-46.958 16.763-6.046.923-12.303 1.882-18.238 3.26-2.882.658-5.912 1.292-9.026 1.95-13.492 2.808-28.774 6.005-39.14 13.583-9.983 7.302-15.314 18.929-20.464 30.166-2.094 4.564-4.262 9.291-6.705 13.596-8.357 14.808-19.804 20.342-35.565 24.472-14.912 3.901-29.985 8.759-44.55 13.449-24.886 8.023-50.6 16.311-76.572 20.213-11.182 1.68-22.714 3.631-33.869 5.5-41.88 7.068-85.182 14.365-127.5 11.257-8.787-.638-15.68-3.923-20.487-9.761-12.758-15.509-8.419-45.884-5.828-64.027 3.139-21.952 3.795-44.866 4.437-67.027.808-28.555 1.644-58.088 7.842-85.56 4.628-20.511-.565-40.449-6.266-57.251-6.123-18.064-8.823-37.022-8.716-61.476.009-2.134-.024-4.34-.035-6.57-.206-17.568-.419-37.501 15.095-49.03 11.086-8.25 29.528-10.183 45.806-11.888 5.84-.615 11.347-1.197 16.023-2.03 21.347-3.782 43.137-7.371 64.197-10.835l13.233-2.181c17.572-2.906 34.808-6.417 51.49-9.818 32.866-6.676 63.903-12.989 97.772-15.231 16.359-1.078 32.027 2.191 47.182 5.354 12.704 2.663 25.835 5.409 39.382 5.6 18.152.263 34.134-5.687 49.6-11.441 7.673-2.855 15.6-5.808 23.77-8.017l.25-.023c1.39.079 2.76.292 4.11.635 5.24 1.394 7.91 4.846 11.33 9.874 33.67 6.053 35.43 42.774 36.98 75.199.58 12.366 1.15 24.03 3.37 33.391.71 3.023 1.45 5.961 2.18 8.852 3.66 14.517 7.12 28.223 5.11 44.201-1.99 13.663-4.69 27.212-8.08 40.594-2.61 11.061-5.31 22.51-7.1 33.851-3.48 22.013-8.51 46.645-24.06 60.406Zm22.59-60.644c1.79-11.402 4.5-22.879 7.12-33.969 3.38-13.328 6.06-26.825 8.03-40.438 2.01-15.707-1.42-29.285-5.06-43.66-.73-2.905-1.48-5.846-2.19-8.869-2.25-9.489-2.81-21.229-3.39-33.655-1.54-31.966-3.22-68.212-36.06-73.876l-.32-.056-.18-.26c-4.13-6.112-6.86-9.593-14.34-10.095-8.06 2.174-15.922 5.1-23.526 7.928-15.586 5.798-31.706 11.802-50.152 11.537-13.684-.197-26.887-2.962-39.653-5.627-15.065-3.154-30.632-6.396-46.788-5.325-33.757 2.227-64.747 8.538-97.547 15.2-16.696 3.397-33.965 6.914-51.566 9.813l-13.233 2.181c-21.05 3.482-42.821 7.061-64.171 10.857-4.724.836-10.26 1.41-16.133 2.031-16.071 1.684-34.31 3.611-45.064 11.601-14.92 11.095-14.71 30.634-14.522 47.864.022 2.248.055 4.454.041 6.601-.104 24.273 2.572 43.089 8.628 60.999 5.775 16.988 11.027 37.169 6.323 58.024-6.164 27.344-7.01 56.798-7.818 85.293-.635 22.193-1.288 45.154-4.434 67.194-2.56 17.909-6.837 47.876 5.498 62.88 4.539 5.508 11.078 8.609 19.424 9.221 42.137 3.089 85.345-4.202 127.138-11.233 11.158-1.883 22.705-3.83 33.901-5.507 25.845-3.889 51.509-12.161 76.325-20.157 14.583-4.7 29.674-9.569 44.637-13.486 18.154-4.752 27.553-11.193 34.668-23.771 2.399-4.257 4.56-8.955 6.632-13.495 5.227-11.413 10.632-23.203 20.94-30.736 10.614-7.755 26.073-10.98 39.7-13.829 3.114-.657 6.126-1.281 9.008-1.939 5.985-1.395 12.271-2.346 18.35-3.276 16.424-2.499 33.404-5.093 46.184-16.408 15.21-13.458 20.16-37.793 23.6-59.557Z"/><path d="M989.971 750.03c-11.551 9.536-26.286 11.954-40.534 14.289-5.046.826-10.269 1.681-15.249 2.842-2.523.587-5.18 1.154-7.916 1.73-11.406 2.408-24.34 5.153-33.291 11.305-8.641 5.976-13.595 15.371-18.373 24.449-1.941 3.696-3.963 7.522-6.173 11.01-6.671 10.499-15.341 16.059-30.936 19.854-17.32 4.231-34.708 9.883-51.518 15.34-19.386 6.303-39.419 12.828-59.078 17.013-9.13 1.937-18.307 4.105-27.171 6.204-10.345 2.433-20.117 4.745-29.933 6.758-3.992.818-8.013 1.689-12.034 2.56-24.545 5.28-49.927 10.747-75.405 6.902-31.379-4.746-26.342-45.086-23.615-66.768 2.542-19.883 3.43-40.464 4.278-60.373.329-7.881.683-16.029 1.129-23.879 1.034-17.815 2.216-35.196 5.334-52.003 3.289-18.033-1.499-35.243-7.187-51.162-3.835-10.769-6.39-21.926-7.613-33.247-.774-6.932-1.261-14.243-1.463-21.75-.05-1.559-.107-3.15-.161-4.755-.593-16.232-1.262-34.62 12.555-45.523 10.328-8.134 27.403-10.339 42.463-12.292 4.594-.582 8.92-1.145 12.755-1.838 18.876-3.393 38.251-6.275 56.969-9.074 4.363-.644 8.73-1.302 13.064-1.953 5.684-.838 11.491-1.795 17.295-2.798 11.465-2.045 23.298-3.673 34.743-5.238 4.881-.672 9.696-1.348 14.444-2.025 22.532-3.316 45.246-5.404 68.039-6.254 14.792-.479 29.09 2.123 42.897 4.655 5.047.917 10.271 1.865 15.457 2.667 6.928 1.119 13.923 1.758 20.932 1.911 13.098.192 25.071-2.778 35.066-5.698 3.657-1.073 7.345-2.26 10.912-3.403 7.076-2.422 14.284-4.462 21.594-6.11l.221-.017c1.195.085 2.382.279 3.544.577 4.941 1.313 7.641 4.485 10.829 8.847.687.152 1.341.311 1.991.484 26.618 7.071 28.698 37.742 30.518 64.891.7 10.305 1.35 20.023 3.25 27.998.55 2.311 1.12 4.584 1.67 6.822 3.2 12.786 6.19 24.854 4.76 38.774-2.33 22.32-7.52 43.848-11.78 60.109-.59 2.31-1.16 4.615-1.71 6.908-4.73 19.56-11.1 39.318-25.569 51.261Zm24.119-51.616c.55-2.294 1.12-4.612 1.72-6.923 4.24-16.219 9.41-37.676 11.73-59.907 1.42-13.667-1.55-25.621-4.72-38.279-.55-2.237-1.12-4.51-1.66-6.822-1.94-8.089-2.6-17.885-3.3-28.251-1.84-27.366-3.92-58.4-31.601-64.073l-.292-.063-.172-.227c-3.792-5.234-6.6-8.465-13.331-9.041-7.218 1.637-14.338 3.655-21.328 6.044-3.586 1.153-7.277 2.354-10.949 3.424-10.111 2.949-22.218 5.959-35.515 5.76-7.08-.156-14.145-.803-21.143-1.936-5.204-.792-10.442-1.744-15.5-2.679-13.738-2.499-27.942-5.106-42.582-4.617-22.734.858-45.389 2.941-67.865 6.24-4.743.678-9.577 1.348-14.459 2.021-11.43 1.569-23.249 3.201-34.691 5.221-5.808 1.017-11.63 1.97-17.317 2.823-4.349.647-8.703 1.298-13.064 1.952-18.715 2.785-38.075 5.671-56.933 9.054-3.867.7-8.226 1.268-12.82 1.851-14.882 1.924-31.737 4.112-41.733 11.986-13.247 10.449-12.599 28.452-12.007 44.335.054 1.605.107 3.21.157 4.769.196 7.476.69 14.758 1.45 21.625 1.225 11.214 3.755 22.267 7.54 32.94 5.748 16.102 10.598 33.541 7.241 51.889-3.099 16.736-4.284 34.071-5.303 51.829-.446 7.85-.796 15.984-1.136 23.847-.845 19.956-1.725 40.568-4.283 60.508-2.667 21.168-7.648 60.599 22.353 65.115 25.206 3.819 50.444-1.627 74.843-6.885 4.035-.867 8.057-1.738 12.063-2.552 9.798-2.003 19.555-4.319 29.886-6.756 8.879-2.095 18.055-4.262 27.204-6.21 19.575-4.162 39.59-10.676 58.925-16.963 16.832-5.481 34.253-11.14 51.634-15.369 15.167-3.697 23.593-9.095 30.025-19.218 2.199-3.446 4.195-7.233 6.113-10.904 4.871-9.251 9.896-18.794 18.839-24.977 9.213-6.325 22.293-9.092 33.847-11.536 2.704-.57 5.361-1.136 7.883-1.724 5.028-1.164 10.269-2.028 15.333-2.865 14.056-2.31 28.58-4.693 39.828-13.961 14.15-11.679 20.42-31.176 25.09-50.495ZM487.242 853.713c-18.745 5.867-43.651-2.341-56.902-13.664-7.209-6.172-13.188-17.79-18.46-28.053-1.859-3.6-3.611-7.02-5.314-9.987-6.025-10.57-6.542-23.479-7.047-35.961-.13-3.125-.247-6.352-.46-9.454-.931-13.443.7-26.69 2.273-39.483l.295-2.452c.66-6.518.934-13.072.82-19.629.019-8.691.048-17.652 1.849-26.006 2.98-13.783 12.706-24.895 22.118-35.635 5.237-5.685 10.045-11.739 14.386-18.115 10.819-16.912 27.038-33.54 42.322-43.387.86-.559 1.717-1.165 2.592-1.781 3.913-2.733 8.248-5.778 13.118-4.484 1.145.316 2.23.82 3.209 1.489 6.232 4.141 6.545 9.314 5.218 14.31-.659 2.256-1.473 4.464-2.436 6.609-.489 1.143-.949 2.233-1.336 3.281-1.928 5.15-3.271 10.499-4.004 15.95-1.221 11.139-.569 22.419 1.93 33.389 1.732 8.096 2.983 16.2 4.2 24.022 1.501 11.094 3.628 22.104 6.371 32.978 7.206 26.276 5.845 59.533-3.449 84.742-2.948 7.898-2.355 16.206-1.355 25.486l.137 1.233c.694 5.193 1.001 10.424.917 15.652-.079 2.502-.393 4.99-.938 7.432-1.025 5.055-3.433 9.726-6.965 13.516-3.532 3.79-8.056 6.556-13.089 8.002Zm18.598-21.859c.521-2.355.827-4.753.913-7.166.067-5.157-.238-10.316-.912-15.438l-.136-1.233c-1.031-9.455-1.623-17.945 1.419-26.136 9.208-24.945 10.555-57.856 3.418-83.871-2.756-10.924-4.895-21.982-6.408-33.124-1.203-7.819-2.461-15.895-4.176-23.941-2.543-11.131-3.203-22.577-1.954-33.88.74-5.559 2.106-11.014 4.072-16.265.391-1.063.876-2.191 1.365-3.334 2.739-6.468 5.841-13.78-2.23-19.151-5.33-3.522-9.837-.356-14.625 2.992-.878.63-1.768 1.242-2.646 1.812-15.103 9.744-31.154 26.205-41.88 42.944-4.373 6.442-9.223 12.556-14.511 18.294-9.298 10.604-18.893 21.569-21.79 34.98-1.777 8.209-1.802 17.095-1.816 25.712.11 6.617-.164 13.231-.822 19.81l-.31 2.448c-1.553 12.722-3.18 25.895-2.277 39.209.224 3.12.355 6.352.481 9.49.489 12.311 1.007 25.039 6.855 35.288 1.724 3.003 3.476 6.424 5.342 10.055 5.211 10.142 11.105 21.616 18.102 27.596 7.576 6.145 16.42 10.59 25.903 13.017 9.927 2.638 20.486 3.186 29.56.355 4.785-1.376 9.086-4.006 12.444-7.611 3.357-3.604 5.645-8.046 6.619-12.852Z"/><path d="M455.28 754.003c-1.096.663-2.336 1.064-3.622 1.174-.806.103-1.628.028-2.405-.217-.777-.246-1.491-.657-2.09-1.204-4.668-4.149-4.7-16.202-4.714-24.19-.01-1.942-.015-3.61-.088-4.675-.339-5.779-.33-11.569.026-17.339.119-2.953.236-6.013.275-9.017.005-1.241-.016-2.444-.026-3.628-.096-5.404-.163-10.512 2.729-15.925 1.634-3.066 3.175-4.383 4.689-4.027l.072.02c3.006.798 3.36 7.968 3.403 8.797.259 3.656.977 7.272 2.138 10.764.417 1.459.844 2.936 1.203 4.44.812 4.204.976 8.497.485 12.734-.156 2.216-.297 4.497-.243 6.738.026 6.719.814 13.423 2.349 19.986 1.07 4.36.872 12.443-4.181 15.569Zm2.719-15.246c-1.555-6.661-2.353-13.463-2.379-20.281-.05-2.316.099-4.625.247-6.873.488-4.092.337-8.239-.446-12.299-.362-1.49-.783-2.935-1.189-4.377-1.191-3.611-1.929-7.349-2.195-11.127-.153-3.737-1.188-7.118-2.286-7.41l-.029-.008c-.539-.128-1.633.673-3.042 3.298-2.707 5.068-2.644 9.781-2.559 15.228.025 1.188.042 2.404.033 3.66-.029 3.022-.164 6.092-.272 9.063-.351 5.714-.365 11.446-.043 17.168.091 1.116.089 2.812.091 4.782.025 7.248.048 19.39 4.232 23.092.479.446 1.064.768 1.7.936.531.136 1.082.174 1.625.114 1.062-.091 2.086-.42 2.994-.962 4.405-2.723 4.504-10.029 3.518-14.004Z"/><path d="M479.27 839.748c-15.151 3.868-35.872-2.334-48.177-14.421-6.763-6.63-11.959-18.282-16.546-28.561-1.057-2.371-2.074-4.656-3.05-6.749-4.733-10.075-5.02-22.044-5.306-33.604-.055-2.59-.117-5.151-.23-7.696-.506-12.073.897-23.821 2.256-35.17l.324-2.793c.658-5.506.779-11.261.898-16.835.162-7.835.335-15.94 1.973-23.504 2.76-12.781 11.307-23.297 19.58-33.476 4.02-4.776 7.789-9.752 11.291-14.908 9.731-14.913 22.856-27.985 35.117-34.954.674-.381 1.34-.795 2.025-1.219 3.199-1.968 6.748-4.146 10.707-3.094 1.044.282 2.032.74 2.92 1.351 7.978 5.377 5.23 13.161 3.033 19.395-.332.958-.656 1.887-.94 2.781-1.56 4.737-2.664 9.613-3.295 14.562-.929 10.124-.35 20.342 1.72 30.333 1.307 6.786 2.357 13.61 3.361 20.195 1.441 10.612 3.428 21.152 5.953 31.578 6.145 23.691 5.702 51.919-1.194 73.691-2.301 7.267-1.792 14.841-1.29 22.156.433 4.858.502 9.737.206 14.598-.164 2.161-.525 4.301-1.079 6.395-2.871 10.403-9.87 17.3-20.257 19.949Zm19.856-26.479c.28-4.792.208-9.601-.215-14.39-.482-7.097-1.02-15.148 1.367-22.68 6.8-21.524 7.24-49.45 1.154-72.899-2.537-10.473-4.532-21.06-5.977-31.721-1.008-6.57-2.047-13.376-3.362-20.134-2.092-10.131-2.67-20.492-1.716-30.756.631-5.044 1.748-10.012 3.338-14.839.291-.923.619-1.866.951-2.823 2.249-6.371 4.573-12.965-2.447-17.694-4.344-2.926-8.06-.641-11.994 1.767-.689.439-1.389.859-2.066 1.255-12.076 6.851-25.014 19.745-34.62 34.479-3.385 5.176-7.454 10.185-11.387 15.034-8.158 10.043-16.592 20.423-19.277 32.86-1.618 7.433-1.786 15.463-1.948 23.237-.112 5.606-.241 11.39-.903 16.971l-.324 2.792c-1.363 11.304-2.747 22.981-2.243 34.947.099 2.541.171 5.121.226 7.71.277 11.422.576 23.227 5.167 33.022.987 2.11 2.004 4.396 3.057 6.781 4.541 10.16 9.666 21.673 16.232 28.113 6.766 6.394 15.079 10.982 24.136 13.322 7.374 2.12 15.158 2.363 22.614.705 4.684-1.09 8.957-3.436 12.345-6.776 3.388-3.341 5.759-7.546 6.851-12.151.535-2.007.883-4.06 1.041-6.132Z"/><path d="M476.2 782.694c-4.654 9.02-11.75 14.013-19.989 14.051-8.935.035-17.498-5.816-22.883-15.655-10.716-19.527-7.379-50.728-4.931-73.515.315-2.992.625-5.849.883-8.568 1.951-20.101 4.758-39.58 17.461-56.718 2.977-4.042 6.69-9.055 11.593-9.692 1.096-.137 2.211-.057 3.279.235 1.648.48 3.182 1.284 4.508 2.364 5.568 4.313 4.474 12.567 3.498 19.852-.347 2.169-.562 4.359-.643 6.556-.242 19.025 3.265 39.546 6.585 57.274.393 2.074.803 4.199 1.242 6.39 2.917 14.82 6.235 31.624 3.187 46.419-.754 3.824-2.029 7.526-3.79 11.007Zm2.326-11.32c2.983-14.494-.296-31.152-3.185-45.843-.439-2.192-.86-4.334-1.242-6.39-3.33-17.807-6.861-38.41-6.629-57.573.095-2.251.319-4.493.67-6.716.921-6.906 1.96-14.72-2.929-18.503-.896-.814-1.952-1.437-3.101-1.831-1.15-.394-2.368-.551-3.577-.459-4.26.55-7.761 5.286-10.583 9.096-12.473 16.851-15.252 36.111-17.179 56.006-.259 2.719-.572 5.59-.887 8.582-2.428 22.595-5.726 53.534 4.755 72.666 4.028 7.372 10.139 12.496 16.641 14.223 1.606.428 3.26.644 4.919.64 7.635-.031 14.268-4.738 18.664-13.251 1.705-3.366 2.937-6.947 3.663-10.647Z"/><path d="M450.103 766.217c-1.525-.322-2.991-.88-4.341-1.654-.398-.227-.78-.481-1.145-.758-8.638-6.613-7.605-26.988-6.917-40.471.143-2.75.26-5.112.294-7.103.213-9.635.938-19.248 2.172-28.799l.102-.791c.862-7.149 1.617-13.311 5.549-19.902 2.054-3.424 4.018-5.053 5.999-4.997.261.009.52.048.773.115 2.197.583 3.888 3.245 5.14 5.577 1.747 3.267 1.913 7.417 2.07 11.428.074 1.701.141 3.31.327 4.768.265 2.146.566 4.332.874 6.55.714 5.235 1.017 10.557 1.304 15.708.231 4.198.49 8.524.964 12.68.25 2.263.571 4.606.885 6.977 1.193 7.176 1.744 14.435 1.648 21.693-.079 2.053-.326 4.095-.74 6.106-2.011 9.086-8.022 14.246-14.958 12.873Zm13.498-13.2c.395-1.934.632-3.898.709-5.872.09-7.165-.455-14.331-1.629-21.416-.325-2.389-.646-4.732-.906-7.013-.481-4.188-.714-8.552-.956-12.768-.295-5.123-.591-10.413-1.305-15.588-.308-2.217-.606-4.418-.867-6.578-.199-1.522-.263-3.145-.33-4.875-.151-3.858-.315-7.84-1.898-10.791-1.783-3.307-3.256-4.864-4.639-4.899-1.365-.044-2.94 1.401-4.667 4.29-3.795 6.309-4.516 12.345-5.362 19.316l-.105.805c-1.23 9.501-1.953 19.064-2.164 28.65-.024 2.009-.144 4.385-.29 7.149-.667 13.171-1.686 33.08 6.335 39.225.304.234.625.446.961.634 1 .578 2.072 1.026 3.188 1.332.246.066.481.113.716.16 6.083 1.208 11.391-3.518 13.209-11.761Z"/><path d="M470.624 768.047c-2.619 6.364-6.887 10.73-11.991 12.298-2.246.648-4.617.795-6.939.43-2.322-.365-4.537-1.234-6.484-2.542-1.891-1.217-3.605-2.681-5.094-4.353-.422-.464-.82-.949-1.192-1.453-9.552-12.84-7.463-37.949-5.949-56.288.258-3.067.496-5.943.669-8.518.503-10.516 1.851-20.968 4.033-31.259 1.449-7.76 4.366-15.171 8.602-21.848 2.984-4.48 5.667-6.661 8.462-6.873.689-.056 1.384.011 2.051.197 1.996.655 3.77 1.846 5.121 3.436 3.66 3.866 3.229 10.206 2.842 15.799-.172 1.844-.241 3.697-.206 5.551.118 2.819.3 5.746.557 8.738 1.308 15.285 2.675 27.148 4.311 37.354.331 2.073.69 4.214 1.082 6.408 1.89 10.941 4.037 23.358 2.402 34.347-.409 2.941-1.173 5.82-2.277 8.576Zm.791-8.804c1.622-10.765-.516-23.044-2.399-33.892-.374-2.205-.748-4.35-1.079-6.422-1.629-10.235-3.013-22.147-4.328-37.465-.253-3.006-.442-5.965-.556-8.798-.027-1.904.045-3.806.215-5.7.355-5.299.775-11.308-2.441-14.693-2.161-2.286-4.1-3.316-5.963-3.175-2.29.179-4.609 2.154-7.332 6.233-4.138 6.528-6.986 13.772-8.395 21.358-2.158 10.22-3.497 20.598-4.005 31.039-.163 2.593-.401 5.469-.662 8.551-1.497 18.1-3.566 42.897 5.658 55.286.354.473.715.917 1.109 1.356 1.394 1.568 3.004 2.939 4.782 4.072 1.426.912 2.986 1.602 4.623 2.047 2.473.681 5.086.649 7.526-.091 4.683-1.438 8.626-5.511 11.07-11.452 1.056-2.654 1.787-5.424 2.177-8.254Z"/><path d="M491.755 807.416c-3.283 9.914-10.523 16.384-20.417 18.225-13.428 2.507-29.68-3.69-39.505-15.041-6.6-7.647-11.176-20.589-14.864-30.992l-.549-1.601c-3.452-9.719-3.485-20.894-3.522-31.705-.007-1.835-.004-3.653-.034-5.464.098-10.239.833-20.456 2.201-30.594l.395-3.409c.508-4.532.712-9.204.926-13.738.127-7.149.844-14.269 2.144-21.292 2.638-12.207 10.282-22.524 17.68-32.496 2.546-3.414 5.173-6.958 7.558-10.521 8.449-12.648 18.643-22.317 27.93-26.531.458-.212.92-.437 1.397-.659 2.485-1.203 5.24-2.547 8.289-1.737.966.265 1.878.697 2.693 1.276 6.9 4.772 4.955 11.861 3.251 18.105l-.538 2.023c-1.202 4.319-2.057 8.727-2.557 13.183-.668 9.103-.171 18.265 1.481 27.27.857 5.046 1.626 10.128 2.365 15.036 1.626 10.886 3.182 21.162 5.693 31.51 5.138 21.075 5.538 44.497 1.096 62.619-1.171 5.809-1.599 11.746-1.275 17.674l.01 1.185c.104 4.123-.107 8.245-.63 12.331-.251 1.813-.659 3.6-1.218 5.343Zm-.254-5.567c.51-4.014.712-8.062.603-12.112l-.011-1.184c-.317-6.047.127-12.101 1.323-18.026 4.385-17.909 3.979-41.075-1.093-61.936-2.525-10.412-4.159-21.209-5.72-31.638-.739-4.908-1.512-9.977-2.358-15.004-1.674-9.127-2.18-18.413-1.507-27.64.51-4.535 1.381-9.019 2.603-13.413l.545-2.053c1.656-6.059 3.368-12.331-2.668-16.51-3.396-2.357-6.344-.928-9.451.58-.481.236-.957.457-1.434.679-9.043 4.112-19.014 13.583-27.327 26.01-2.392 3.591-5.038 7.145-7.573 10.577-7.321 9.857-14.869 20.048-17.44 31.939-1.286 6.946-1.992 13.988-2.112 21.058-.203 4.552-.419 9.267-.938 13.84l-.395 3.41c-1.366 10.079-2.095 20.237-2.185 30.417.016 1.807.023 3.642.031 5.477.038 10.691.076 21.731 3.432 31.228l.567 1.59c3.628 10.281 8.147 23.086 14.572 30.52 5.849 6.636 13.576 11.412 22.177 13.71 5.181 1.447 10.615 1.73 15.898.83 6.607-1.229 15.309-5.22 19.293-17.251.528-1.664.919-3.369 1.168-5.098Z"/><path d="M519.031 917.077c-2.618 1.001-3.534 3.636-4.033 5.049-.771 2.204-1.736 4.963-6.675 8.302-7.497 5.216-16.299 8.354-25.494 9.088-29.168 2.189-56.164-19.876-69.653-33.216-28.824-28.52-27.911-58.865-23.699-95.576 1.836-16.941 1.857-34.042.062-51.024-.48-5.006-1.191-10.134-1.882-15.105-1.059-7.66-2.156-15.587-2.462-23.228-.036-2.649.159-5.293.583-7.905.402-2.534.592-5.098.567-7.667-.057-3.598.123-7.194.539-10.765.462-3.872.614-7.778.457-11.68l-.097-1.268c-.522-7.759-.829-12.022 2.684-20.24 7.322-17.143 16.342-31.594 26.806-42.918 5.538-5.998 11.663-11.764 17.584-17.342 5.654-5.33 11.495-10.838 16.714-16.451 4.497-4.82 9.134-9.814 14.016-14.623 3.056-3.006 6.183-6.508 9.489-10.22 1.033-1.15 2.062-2.346 3.11-3.552 6.666-7.743 14.204-16.497 25.029-18.348 3.195-.64 6.502-.589 9.69.15 2.108.538 4.053 1.581 5.66 3.034 4.732 4.318 6.568 12.199 5.456 23.433-.534 5.388-1.506 10.796-2.444 16.016-.911 5.06-1.852 10.294-2.381 15.487-.908 8.894.575 16.59 2.151 24.751.425 2.188.852 4.423 1.25 6.71 1.131 6.633 1.991 13.18 2.828 19.522.982 7.488 1.986 15.239 3.47 23.163.713 3.84 1.656 7.742 2.569 11.53 2.03 8.372 4.123 17.033 3.96 25.686-.158 8.109-.326 16.487-.137 24.976.253 11.279-1.127 22.881-2.448 34.089l-.41 3.406c-.325 3.492-.369 7.006-.13 10.51.294 3.487.194 6.992-.301 10.449-.828 3.407-2.105 6.689-3.799 9.763-1.882 3.503-3.335 7.215-4.33 11.061-2.836 12.775-2.391 27.058-1.945 40.873.471 9.108.424 18.23-.141 27.323-.087 1.083-.114 3.166-.159 7.063-.062 6.408-.237 23.435-1.597 29.195l-.098.367-.359.132Zm.562-29.727c.038-3.928.069-6.026.167-7.152.557-9.038.6-18.106.129-27.16-.438-13.903-.904-28.283 1.981-41.242 1.019-3.966 2.513-7.795 4.453-11.407 1.625-2.954 2.856-6.104 3.665-9.374.474-3.35.567-6.745.276-10.123-.244-3.578-.196-7.168.143-10.733l.41-3.406c1.31-11.166 2.693-22.722 2.442-33.893-.196-8.521-.024-16.915.123-25.041.172-8.454-1.9-17.019-3.906-25.308-.923-3.806-1.873-7.74-2.596-11.598-1.484-7.985-2.503-15.74-3.481-23.241-.826-6.325-1.686-12.871-2.81-19.472-.398-2.288-.829-4.508-1.243-6.679-1.593-8.27-3.111-16.067-2.179-25.167.543-5.249 1.492-10.512 2.41-15.601.931-5.191 1.895-10.571 2.414-15.902.727-7.397.468-17.253-4.964-22.196-3.213-2.929-7.945-3.868-14.083-2.833-10.291 1.766-17.654 10.324-24.155 17.853-1.055 1.235-2.098 2.427-3.135 3.591-3.31 3.726-6.455 7.239-9.537 10.283-4.863 4.798-9.493 9.765-13.972 14.574-5.263 5.662-11.122 11.18-16.794 16.521-5.899 5.553-11.992 11.313-17.504 17.272-10.354 11.202-19.275 25.512-26.541 42.504-3.369 7.907-3.102 11.796-2.569 19.574l.093 1.282c.163 3.977.006 7.958-.47 11.904-.4 3.508-.573 7.039-.519 10.573.033 2.654-.163 5.303-.587 7.919-.405 2.528-.598 5.086-.578 7.649.311 7.567 1.401 15.462 2.468 23.093.687 4.985 1.394 10.127 1.885 15.151 1.8 17.088 1.777 34.295-.069 51.341-4.15 36.302-5.081 66.31 23.276 94.372 10.217 10.108 28.287 25.302 49.065 30.822 6.313 1.737 12.872 2.399 19.39 1.955 8.934-.712 17.487-3.759 24.774-8.825 4.531-3.084 5.414-5.591 6.118-7.601.312-1.216.875-2.353 1.654-3.342.779-.988 1.757-1.808 2.874-2.409 1.242-5.957 1.424-22.892 1.482-28.528Z"/><path d="m524.444 924.015-.201.113-.253-.037c-1.396-.159-1.581.247-2.281 2.242-.864 2.437-2.309 6.538-8.634 10.841-16.114 10.93-34.457 13.132-54.486 6.538-20.39-6.69-37.608-20.9-48.448-31.628-30.783-30.465-29.766-63.767-25.487-101.021 3.856-33.623-.453-61.023-6.456-93.343-8.841-47.496-6.342-79.799 32.561-104.429 14.911-9.431 25.93-21.275 37.601-33.824 4.611-4.956 9.373-10.069 14.375-14.982 2.976-2.936 6.084-6.428 9.391-10.141 10.632-11.901 22.667-25.414 36.991-28.092 4.074-.92 8.316-.926 12.412-.02 2.407.592 4.606 1.827 6.354 3.566 8.345 8.475 3.884 27.894.935 40.745-.692 3.013-1.289 5.612-1.654 7.742-3.129 18.015 3.788 44.563 9.264 62.971 6.569 22.092 6.152 43.524 5.712 66.208-.144 8.173-.317 16.627-.135 25.144.274 11.784-1.153 23.737-2.521 35.296l-.41 3.406c-.289 3.29-.32 6.599-.092 9.899.307 3.907.178 7.83-.385 11.7-.922 3.879-2.357 7.618-4.269 11.122-1.723 3.219-3.068 6.622-4.009 10.146-2.76 12.371-2.303 26.552-1.864 40.274.483 9.43.428 18.873-.164 28.286-.071.967-.103 3.533-.135 6.798-.211 20.654-.887 32.928-3.712 34.48Zm2.22-34.513c.026-3.417.061-5.877.147-6.9.573-9.359.624-18.748.152-28.123-.449-13.8-.894-28.084 1.896-40.629.96-3.636 2.344-7.147 4.125-10.464 1.85-3.391 3.242-7.009 4.142-10.762.549-3.762.67-7.576.36-11.373-.224-3.375-.189-6.758.105-10.123l.41-3.406c1.371-11.513 2.783-23.409 2.516-35.101-.193-8.535-.031-17.006.135-25.204.439-22.563.844-43.892-5.659-65.77-5.517-18.54-12.483-45.313-9.308-63.619.376-2.172.977-4.785 1.677-7.826 2.881-12.537 7.233-31.485-.554-39.386-3.518-3.586-9.382-4.629-17.393-3.121-13.82 2.585-25.69 15.884-36.158 27.632-3.321 3.708-6.451 7.225-9.468 10.195-4.965 4.893-9.726 10.006-14.319 14.952-11.214 12.05-22.815 24.511-37.893 34.049-38.214 24.192-40.645 56.059-31.921 102.948 6.049 32.438 10.361 59.945 6.481 93.774-4.235 36.856-5.256 69.824 25.049 99.814 10.045 9.94 29.606 26.682 52.379 32.732 15.388 4.089 32.262 3.284 48.642-7.832 5.942-4.027 7.227-7.7 8.087-10.123.637-1.816 1.195-3.394 3.577-3.216 2.477-2.281 2.7-24.613 2.793-33.118ZM849.541 650.09c-7.036 8.084-16.425 11.695-26.364 15.508-1.137.44-2.293.891-3.449 1.341-9.087 3.306-18.408 5.973-27.892 7.982-9.914 2.436-20.014 4.108-30.209 5.003-32.425 2.627-61.116 22.532-78.242 34.419-2.654 1.84-4.933 3.432-6.92 4.737-2.997 2.158-5.802 4.56-8.388 7.18-9.09 8.599-20.392 19.292-32.332 8.393-15.971-14.591-11.495-44.142-8.532-63.686.297-1.936.587-3.783.828-5.506.785-7.585.532-15.249-.754-22.789-1.015-7.012-3.958-13.52-6.82-19.81-2.769-5.553-4.904-11.384-6.365-17.387-.308-1.521-.705-3.172-1.126-4.905-2.228-9.258-5.007-20.753 1.638-28.244 2.855-3.156 6.327-5.715 10.214-7.528 12.891-6.195 29.893-6.435 44.911-6.656 4.89-.065 9.519-.138 13.719-.401 5.066-.32 12.042 1.897 18.194 3.834 2.214.695 4.297 1.354 6.031 1.815 3.678.947 7.335 2.085 10.896 3.182 6.983 2.371 14.153 4.154 21.432 5.331 8.156 1.091 16.129.543 24.573-.031 2.721-.171 5.432-.36 8.171-.481l.283-.015c10.519-.524 21.381-1.061 32.261-.731 1.843.05 3.654.046 5.45.039 4.784-.227 9.583.172 14.273 1.186 3.392.881 6.541 2.51 9.207 4.765 6.365 5.387 10.632 13.202 13.504 21.085 2.451 6.966 4.145 14.16 5.051 21.462.172 1.333.369 2.688.57 4.03 1.382 9.472 2.805 19.258-3.813 26.878Zm2.322-26.684c-.197-1.355-.394-2.71-.562-4.058-1.443-11.049-5.692-31.161-18.032-41.605-6.707-5.615-14.381-5.609-22.508-5.587-1.811.004-3.636.004-5.494-.05-10.822-.315-21.652.216-32.138.733l-.283.015c-2.724.125-5.435.314-8.142.488-8.143.549-16.569 1.113-24.878.012-3.795-.524-7.554-1.295-11.251-2.308-3.526-.937-7.014-2.015-10.43-3.074-3.546-1.094-7.207-2.218-10.823-3.164-1.81-.465-3.89-1.139-6.118-1.837-5.737-1.812-12.857-4.067-17.641-3.763-4.232.27-8.876.338-13.795.395-14.847.222-31.679.462-44.268 6.51-3.709 1.731-7.023 4.172-9.75 7.181-6.155 6.925-3.474 18.03-1.326 26.949.432 1.751.826 3.415 1.14 4.969 1.441 5.89 3.543 11.611 6.267 17.057 2.897 6.391 5.89 13.003 6.928 20.218 1.32 7.675 1.573 15.479.754 23.198-.241 1.724-.516 3.575-.814 5.511-2.931 19.249-7.341 48.317 8.056 62.392 10.896 9.94 21.185.205 30.275-8.394 2.651-2.674 5.523-5.129 8.585-7.34 1.983-1.291 4.258-2.868 6.898-4.712 17.257-11.974 46.138-32.01 78.976-34.679 10.15-.891 20.207-2.555 30.079-4.977 9.382-1.995 18.603-4.638 27.593-7.909 1.156-.451 2.312-.901 3.465-1.337 9.753-3.757 18.986-7.303 25.776-15.104 6.189-7.113 4.807-16.585 3.461-25.73Z"/><path d="M854.018 656.763c-7.961 8.369-18.237 11.881-29.113 15.612-1.871.639-3.743 1.278-5.625 1.959-18.612 6.66-38.089 10.783-57.891 12.253-40.817 3.064-76.967 32.531-94.328 46.705-1.537 1.243-2.943 2.4-4.216 3.41-3.177 2.767-6.163 5.739-8.938 8.897-7.664 8.296-16.349 17.699-25.957 18.056-2.3.014-4.584-.433-6.712-1.314-2.128-.88-4.055-2.176-5.664-3.808-18.507-16.81-12.403-51.851-8.375-75.052.448-2.562.877-4.993 1.236-7.216 1.14-7.09.815-16.176-.934-27.004-1.395-8.551-5.462-16.479-9.401-24.131-3.323-6.473-6.757-13.173-8.619-20.258-.465-1.745-1.015-3.633-1.601-5.622-3.37-11.425-7.578-25.633-.046-34.948 13.456-16.59 41.339-17.318 63.737-17.897 5.575-.139 10.842-.285 15.576-.633 5.965-.446 14.754 2.632 21.796 5.124 2.267.784 4.414 1.551 6.191 2.084 4.582 1.384 9.216 3.04 13.699 4.624 7.781 2.966 15.758 5.394 23.873 7.267 9.567 1.951 18.867 1.998 28.729 2.027 2.687.017 5.378.02 8.1.077 3.154.066 6.312.117 9.473.153 8.702.146 17.715.283 26.656.689 2.462.109 4.925.097 7.293.089 5.004-.263 10.028.139 14.935 1.196 3.548.918 6.831 2.647 9.581 5.045 13.163 11.421 18.302 32.436 20.313 48.045.215 1.754.491 3.509.764 5.278 1.587 10.391 3.236 21.131-4.532 29.293Zm3.056-29.094c-.273-1.769-.545-3.539-.771-5.311-1.97-15.355-7.007-35.995-19.815-47.124-6.888-5.981-14.965-5.915-23.502-5.865-2.401.013-4.882.036-7.373-.08-8.923-.417-17.921-.55-26.623-.696-3.161-.037-6.319-.088-9.472-.153-2.709-.053-5.4-.056-8.087-.073-9.488-.036-19.303-.068-29.015-2.058-1.89-.396-3.78-.852-5.658-1.351-6.242-1.659-12.407-3.842-18.416-5.969-4.469-1.581-9.088-3.233-13.628-4.606-1.82-.544-3.967-1.311-6.259-2.117-6.919-2.429-15.52-5.457-21.185-5.038-4.769.369-10.048.497-15.641.647-22.101.567-49.607 1.274-62.619 17.36-7.063 8.713-2.981 22.524.305 33.624.585 1.988 1.146 3.895 1.607 5.653 1.838 6.943 5.229 13.57 8.514 19.958 3.984 7.77 8.115 15.806 9.533 24.561 1.785 10.988 2.097 20.237.934 27.472-.363 2.237-.777 4.673-1.229 7.249-3.988 22.878-9.998 57.445 7.895 73.712 3.662 3.337 7.367 4.882 11.319 4.735 8.985-.34 17.451-9.499 24.906-17.593 2.819-3.219 5.86-6.242 9.102-9.05 1.259-1.014 2.661-2.156 4.198-3.4 17.493-14.259 53.869-43.94 95.157-47.029 19.673-1.46 39.023-5.555 57.513-12.172 1.883-.681 3.754-1.321 5.626-1.96 10.704-3.67 20.828-7.131 28.533-15.235 7.278-7.656 5.751-17.576 4.151-28.091Z"/><path d="m976.476 683.072-.953 2.716c-.362 1.071-.738 2.137-1.11 3.19-4.509 12.725-12.222 30.931-27.088 42.116-9.974 7.501-22.255 9.708-34.129 11.84-4.041.714-8.217 1.468-12.21 2.407-2.214.533-4.526 1.024-6.889 1.533-9.301 1.998-19.851 4.27-27.394 9.023-7.302 4.605-11.852 11.774-16.261 18.708-1.806 2.838-3.667 5.768-5.677 8.445-6.014 8.023-13.622 12.441-26.274 15.23-21.101 4.665-41.926 11.783-62.075 18.686-13.135 4.494-25.555 8.739-38.005 12.34-8.346 2.419-16.513 5.036-24.393 7.563-9.1 2.93-17.706 5.689-25.997 7.956-5.272 1.447-10.533 3.14-16.084 4.938-19.68 6.361-40.036 12.936-61.254 7.617-26.511-6.711-22.849-41.174-20.892-59.728 1.928-17.683 3.041-35.794 4.109-53.327.427-7.083.853-14.045 1.316-20.8.276-3.775.523-7.558.773-11.354.752-11.451 1.529-23.289 2.991-34.445 1.916-14.611-1.846-28.579-8.082-45.052-3.626-9.478-6.15-19.317-7.525-29.33-.88-6.763-1.518-13.039-1.918-19.22l-.191-2.778c-1.061-14.932-2.245-31.851 9.915-42.164 9.677-8.186 25.607-10.68 39.662-12.87 3.163-.493 6.152-.971 8.945-1.471 16.864-3.095 34.276-5.347 51.113-7.525 3.876-.5 7.726-.997 11.549-1.491 5.352-.699 10.549-1.454 15.443-2.23 9.056-1.291 18.178-2.124 27.331-2.495 5.794-.324 11.277-.64 16.519-1.157 18.956-1.887 37.838-1.809 57.818-1.727l2.64.019c13.121.047 25.89 2.001 38.247 3.875 4.831.738 9.811 1.5 14.748 2.131 6.312.868 12.667 1.368 19.032 1.496 10.809-.065 21.553-1.449 31.986-4.122 3.423-.772 6.869-1.69 10.195-2.564 6.427-1.842 12.972-3.276 19.594-4.293h.171c1.027.097 2.045.276 3.044.536 4.262 1.133 6.99 3.675 10.268 7.819l.188.049c23.191 6.162 25.697 32.431 27.906 55.623.527 7.544 1.562 15.051 3.097 22.471.361 1.551.741 3.091 1.11 4.613 2.739 11.121 5.318 21.624 4.435 33.509-1.226 16.324-3.338 35.458-9.744 53.694Zm8.246-53.819c.87-11.662-1.677-22.05-4.385-33.056-.369-1.522-.749-3.062-1.125-4.617-1.551-7.487-2.593-15.062-3.12-22.675-2.167-22.71-4.617-48.434-26.796-54.327l-.68-.181-.15-.191c-3.86-4.919-6.704-7.372-12.345-7.976-6.527 1.009-12.978 2.422-19.315 4.23-3.344.884-6.804 1.798-10.245 2.581-10.553 2.702-21.421 4.1-32.353 4.161-6.415-.123-12.822-.626-19.184-1.507-4.966-.637-9.96-1.404-14.795-2.128-12.296-1.873-25.007-3.81-38.015-3.873l-2.644-.005c-19.947-.089-38.783-.169-57.659 1.709-5.293.533-10.775.849-16.584 1.169-9.099.363-18.169 1.189-27.172 2.477-4.911.786-10.122 1.538-15.504 2.229-3.814.501-7.676 1.006-11.553 1.506-16.803 2.171-34.202 4.427-51.014 7.504-2.812.511-5.815.985-8.993 1.475-13.863 2.165-29.568 4.627-38.923 12.535-11.616 9.837-10.439 26.375-9.411 40.965l.187 2.792c.397 6.135 1.025 12.392 1.916 19.114 1.358 9.906 3.853 19.641 7.437 29.018 6.321 16.679 10.125 30.839 8.159 45.755-1.466 11.109-2.235 22.919-2.98 34.341-.25 3.797-.5 7.594-.772 11.355-.468 6.769-.89 13.717-1.313 20.785-1.071 17.547-2.178 35.691-4.113 53.402-1.905 18.008-5.448 51.442 19.362 58.033l.404.108c20.796 5.222 40.934-1.29 60.414-7.598 5.566-1.794 10.844-3.497 16.15-4.951 8.257-2.26 16.845-5.008 25.928-7.928 7.898-2.538 16.068-5.17 24.447-7.594 12.413-3.58 24.8-7.819 37.936-12.313 20.182-6.91 41.057-14.044 62.224-18.723 12.274-2.708 19.638-6.963 25.417-14.684 1.985-2.639 3.824-5.544 5.604-8.344 4.508-7.074 9.138-14.373 16.721-19.161 7.769-4.905 18.45-7.203 27.882-9.227 2.348-.512 4.656-.99 6.852-1.512 4.044-.956 8.234-1.706 12.298-2.445 11.707-2.086 23.81-4.264 33.496-11.553 14.556-10.949 22.14-28.902 26.585-41.447.372-1.052.745-2.105 1.121-3.172l.942-2.734c6.361-18.066 8.457-37.083 9.661-53.322ZM495.186 867.595c-20.338 7.383-49.879-.904-65.598-12.838-7.805-5.906-14.571-17.824-20.536-28.332-2.578-4.564-5.039-8.869-7.402-12.436-7.371-11.093-8.091-25.041-8.797-38.515-.193-3.642-.385-7.405-.712-11.007-1.339-14.763.423-28.794 2.298-43.658l.282-2.228c.733-7.412.972-14.869.716-22.323-.118-9.575-.247-19.457 1.74-28.625 3.23-14.959 14.246-26.789 24.895-38.231 6.211-6.667 12.622-13.569 17.242-20.886 13.038-20.192 29.836-37.769 49.527-51.82 1.047-.737 2.094-1.535 3.159-2.342 4.601-3.52 9.72-7.417 15.485-5.885 1.262.348 2.46.896 3.545 1.623 10.253 6.709 5.952 15.505 2.498 22.571-.621 1.29-1.223 2.508-1.702 3.669-6.399 15.298-7.262 33.401-2.563 53.799 2.121 9.199 3.535 18.377 4.905 27.255 1.593 11.776 3.905 23.455 6.923 34.973 8.367 29.538 6.116 67.134-5.728 95.772-4.076 9.871-2.543 20.64-1.072 31.061.931 5.605 1.459 11.264 1.582 16.934-.004 2.842-.28 5.675-.824 8.462-.153.747-.319 1.491-.511 2.212-1.191 4.793-3.585 9.205-6.965 12.836-3.379 3.631-7.637 6.367-12.387 7.959Zm18.395-23.307c.52-2.699.788-5.443.8-8.195-.126-5.597-.648-11.183-1.562-16.717-1.513-10.613-3.055-21.582 1.162-31.809 11.726-28.367 13.955-65.589 5.68-94.831-3.041-11.576-5.368-23.314-6.969-35.151-1.363-8.847-2.781-18.01-4.884-27.159-4.761-20.688-3.881-39.088 2.637-54.658.504-1.199 1.095-2.436 1.738-3.75 3.362-6.894 7.186-14.71-1.973-20.704-6.337-4.153-11.653-.096-17.279 4.196-1.084.818-2.153 1.64-3.214 2.373-19.484 13.994-36.138 31.423-49.125 51.412-4.697 7.433-11.167 14.38-17.425 21.11-10.518 11.296-21.387 22.983-24.527 37.541-1.944 9.012-1.826 18.816-1.715 28.299.265 7.524.023 15.051-.724 22.533l-.283 2.227c-1.852 14.779-3.61 28.735-2.295 43.356.334 3.634.526 7.397.715 11.053.694 13.289 1.408 27.023 8.562 37.771 2.395 3.621 4.849 7.955 7.452 12.54 5.904 10.386 12.588 22.146 20.145 27.88 8.092 5.831 17.233 10.09 26.926 12.547 12.643 3.36 26.308 4.036 37.233.06 4.9-1.606 9.248-4.494 12.582-8.356 3.333-3.861 5.526-8.551 6.343-13.568Z"/><path d="M935.628 674.371c-.78 1.656-1.549 3.269-2.368 4.839-7.246 14.119-16.875 25.211-28.582 32.948-8.369 5.533-18.253 7.513-27.811 9.428-3.005.595-6.111 1.225-9.102 1.945-1.899.45-3.873.895-5.891 1.328-7.542 1.663-15.345 3.377-21.465 6.735-5.943 3.27-10.097 8.196-14.116 12.961-1.671 1.98-3.389 4.023-5.204 5.904-5.374 5.557-11.843 8.716-21.622 10.588-26.824 5.129-53.399 15.552-76.833 24.749-4.297 1.676-8.529 3.339-12.68 4.933-8.219 3.164-15.889 6.474-23.33 9.679-7.234 3.123-14.082 6.076-20.345 8.396-4.892 1.821-9.855 4.199-15.105 6.728-15.712 7.552-33.511 16.095-52.166 8.926-19.272-7.407-19.994-30.779-18.171-52.671l.184-2.209c1.766-21.15 3.578-43 5.263-61.808.706-7.903 1.076-16.167 1.421-24.165.223-5.092.452-10.379.776-15.384.852-13.575-3.753-26.176-8.985-38.975-3.428-8.181-5.918-16.703-7.422-25.408-.793-4.878-1.7-10.663-2.392-16.68l-.07-.549c-1.599-13.726-3.404-29.295 7.128-39.072 9.271-8.581 24.553-11.369 38.045-13.829 1.35-.247 2.667-.488 3.955-.737 14.941-2.788 30.515-4.406 45.567-5.983 3.263-.345 6.508-.679 9.709-1.026 5.347-.564 9.677-1.08 13.615-1.64 8.439-1.197 18.015-.789 27.271-.405 3.99.181 7.769.337 11.289.363 11.491.069 22.732.843 34.643 1.66 5.921.421 12.045.836 18.191 1.166 10.997.589 21.836 1.832 32.312 3.04 5 .571 10.166 1.156 15.304 1.673 6.476.66 11.909.997 17.116 1.078 9.709-.009 19.389-.865 28.925-2.557 3.141-.468 6.291-1.086 9.342-1.684 5.872-1.302 11.846-2.137 17.865-2.495.803.1 1.599.256 2.382.466 4.132 1.098 6.938 3.464 9.854 6.814 18.305 6.152 21.229 27.472 23.795 46.289.822 5.99 1.597 11.635 2.809 16.623l.463 1.926c2.345 9.637 4.556 18.724 4.221 28.725l-.097 2.519c-.495 15.201-1.02 30.924-7.688 44.848Zm6.204-44.908.082-2.524c.345-9.801-1.846-18.792-4.17-28.333l-.463-1.925c-1.231-5.542-2.176-11.138-2.833-16.767-2.537-18.46-5.395-39.384-22.984-45.148l-.199-.068-.143-.159c-3.349-3.875-6.292-6.247-11.294-6.925-5.893.378-11.741 1.21-17.492 2.489-3.066.594-6.244 1.204-9.407 1.697-9.619 1.693-19.381 2.547-29.172 2.551-5.254-.078-10.734-.413-17.243-1.066-5.152-.521-10.332-1.109-15.343-1.698-10.447-1.2-21.257-2.436-32.21-3.013-6.161-.334-12.285-.749-18.22-1.174-11.882-.809-23.106-1.594-34.535-1.661-3.553-.02-7.346-.18-11.354-.351-9.192-.396-18.691-.799-26.985.376-3.971.566-8.318 1.092-13.68 1.652-3.202.347-6.446.682-9.709 1.027-15.02 1.569-30.565 3.196-45.44 5.971-1.289.248-2.62.485-3.97.733-13.282 2.425-28.335 5.167-37.299 13.467-9.998 9.281-8.226 24.448-6.66 37.832l.067.564c.684 5.984 1.581 11.752 2.378 16.615 1.483 8.595 3.944 17.009 7.338 25.083 5.281 12.963 9.96 25.751 9.076 39.621-.32 4.99-.545 10.263-.768 15.355-.349 8.012-.726 16.305-1.426 24.24-1.681 18.794-3.507 40.64-5.269 61.776l-.188 2.222c-1.771 21.346-1.122 44.122 17.222 51.178 1.342.518 2.711.963 4.101 1.332 16.487 4.38 31.915-3.035 46.866-10.229 5.283-2.535 10.268-4.938 15.225-6.772 6.23-2.314 13.06-5.256 20.29-8.365 7.445-3.219 15.133-6.539 23.367-9.7 4.151-1.593 8.383-3.257 12.68-4.933 23.503-9.224 50.143-19.659 77.102-24.829 9.452-1.807 15.689-4.846 20.828-10.162 1.775-1.846 3.485-3.861 5.138-5.831 4.107-4.863 8.353-9.901 14.546-13.3 6.285-3.451 14.204-5.196 21.858-6.874 2.004-.437 3.978-.882 5.862-1.336 3.024-.727 6.126-1.342 9.149-1.948 9.413-1.892 19.167-3.846 27.288-9.203 11.503-7.609 20.956-18.505 28.098-32.409.801-1.56 1.566-3.16 2.383-4.897 6.495-13.561 7.011-29.134 7.512-44.181Z"/><path d="M894.865 665.525c-1.029 1.545-1.903 2.797-2.779 3.943-8.592 11.322-20.592 18.648-30.076 23.779-6.823 3.672-14.485 5.439-21.915 7.146-1.848.433-3.695.867-5.532 1.318-1.692.429-3.438.829-5.213 1.221-5.204 1.034-10.306 2.496-15.253 4.371-4.205 1.941-8.17 4.343-11.818 7.162-1.59 1.153-3.253 2.347-4.951 3.441-5.093 3.191-10.863 5.21-16.883 5.908-28.976 4.316-56.178 16.753-78.966 28.349-8.655 4.397-16.554 8.979-23.525 13.035-4.848 2.818-9.437 5.477-13.412 7.572-4.323 2.449-8.477 5.171-12.436 8.15-13.22 9.471-28.202 20.217-44.815 10.606-15.429-8.947-16.193-30.299-15.411-45.59.833-15.368 2.727-31.121 4.419-45.004.37-3.083.728-6.063 1.053-8.916 1.29-10.974.928-23.357.63-33.299-.344-11.636-5.194-22.439-9.874-32.894-3.25-6.876-5.711-14.08-7.336-21.477-.262-1.342-.556-2.739-.858-4.167-.678-3.21-1.378-6.517-1.993-9.968-2.29-12.638-3.847-25.702 4.374-34.29 8.63-9.024 22.809-12.377 35.396-14.805 13.087-2.507 26.87-3.497 40.192-4.442 2.602-.187 5.174-.377 7.716-.57 4.875-.357 8.503-.681 11.792-1.064 7.164-.824 16.286.766 24.345 2.166 3.211.549 6.241 1.082 8.907 1.411 7.187.895 14.486 2.243 21.55 3.544 7.697 1.424 15.647 2.885 23.66 3.817 13.11 1.544 25.611 2.35 38.844 3.199l3.391.22c5.567.358 10.537.572 15.219.65 8.952.136 17.548-.429 25.857-.963 2.816-.176 5.637-.487 8.363-.793 5.322-.771 10.715-1.018 16.098-.738.575.108 1.146.229 1.695.375 3.646 1.033 6.927 3.061 9.461 5.847 13.522 6.516 16.934 23.315 19.941 38.143.685 3.364 1.328 6.534 2.063 9.532 2.11 7.573 3.388 15.338 3.811 23.162.047 1.921.126 3.836.201 5.765.473 12.14.978 24.682-5.932 35.148Zm4.44-35.12c-.079-1.915-.155-3.844-.202-5.765-.42-7.723-1.683-15.387-3.766-22.862-.742-3.031-1.396-6.219-2.08-9.583-2.945-14.538-6.292-31.002-19.245-37.155l-.209-.146c-2.692-3.046-6.343-5.122-10.362-5.89-5.261-.257-10.529-.007-15.729.745-2.741.302-5.59.605-8.439.788-8.346.555-16.971 1.112-25.984.975-4.696-.082-9.699-.29-15.28-.651l-3.406-.224c-13.247-.853-25.748-1.659-38.905-3.2-8.071-.948-16.05-2.416-23.765-3.83-7.035-1.293-14.32-2.638-21.46-3.535-2.709-.341-5.757-.863-8.979-1.431-7.958-1.372-16.979-2.936-23.918-2.143-3.303.38-6.95.714-11.857 1.077-2.526.192-5.097.378-7.712.556-13.279.957-27.011 1.93-40.004 4.431-12.373 2.379-26.283 5.652-34.614 14.363-7.752 8.106-6.227 20.767-3.995 33.041.619 3.437 1.304 6.74 1.986 9.936.301 1.428.596 2.825.858 4.167 1.599 7.294 4.025 14.397 7.231 21.176 4.754 10.581 9.66 21.52 10.005 33.444.298 10.002.663 22.432-.639 33.509-.325 2.853-.677 5.83-1.057 8.93-1.684 13.855-3.585 29.575-4.407 44.901-.756 14.904-.048 35.711 14.674 44.228 2.03 1.19 4.212 2.106 6.486 2.723 13.264 3.524 25.62-5.313 36.699-13.247 4.005-3.029 8.216-5.788 12.604-8.257 3.953-2.07 8.513-4.737 13.357-7.541 6.985-4.052 14.907-8.659 23.598-13.076 22.897-11.658 50.223-24.153 79.405-28.49 5.815-.678 11.389-2.624 16.316-5.695 1.662-1.073 3.293-2.261 4.879-3.4 3.732-2.887 7.794-5.341 12.105-7.313 5.027-1.916 10.215-3.406 15.508-4.455 1.76-.396 3.492-.799 5.18-1.214 1.84-.466 3.703-.895 5.565-1.325 7.313-1.677 14.878-3.425 21.522-7.007 14.104-7.616 22.95-14.598 29.63-23.383.837-1.111 1.703-2.335 2.714-3.869 6.649-10.066 6.159-22.377 5.692-34.303ZM374.02 719.634c-1.057-4.703-2.15-9.566-3.101-14.37-2.325-10.733-5.202-21.349-8.622-31.806-1.156-3.75-2.311-7.497-3.415-11.248-2.168-7.371-1.517-10.611 3.318-16.512 4.759-5.478 10.002-10.531 15.668-15.1 4.43-3.646 8.645-7.537 12.625-11.654 8.496-9.263 18.741-16.818 30.18-22.256 13.414-6.193 25.893-19.611 35.919-30.393l1.906-2.046c2.511-2.887 4.692-6.038 6.504-9.397 1.93-3.619 4.311-6.985 7.089-10.021 10.69-10.83 24.258-16.876 37.381-22.722 6.121-2.727 12.449-5.546 18.429-8.822.741-.405 1.466-.814 2.185-1.22 4.499-2.536 8.748-4.931 14.282-5.187 1.231-.087 2.471.012 3.675.294 1.016.219 1.923.787 2.556 1.601 1.664 2.276.309 6.158-1.221 9.939-1.244 2.922-2.669 5.765-4.268 8.512-2.635 4.738-5.122 9.214-5.866 14.854-1.398 10.239-2.233 20.549-2.501 30.888-.186 9.795.073 28.589 3.884 44.416 1.059 4.397 2.345 8.979 3.589 13.411 2.696 9.603 5.485 19.534 6.515 29.271.705 8.267.89 16.563.554 24.842-.109 5.45-.221 11.086-.013 16.651.029 4.875-.413 9.737-1.318 14.521-.99 6.325-1.924 12.299-.794 18.356 1.492 7.994.187 14.755-1.194 21.914-.471 2.439-.958 4.961-1.35 7.609-1.039 7.011-1.48 14.514-1.908 21.771-.152 2.587-.304 5.179-.483 7.763-.795 9.343-2.331 18.604-4.593 27.698-.86 4.327-1.41 8.711-1.646 13.12-.278 3.583-.566 7.288-1.181 10.893l-1.473-.258c.605-3.539.889-7.211 1.166-10.762.24-4.478.799-8.931 1.675-13.325 2.246-9.023 3.771-18.21 4.563-27.48.178-2.58.33-5.167.482-7.749.428-7.288.872-14.824 1.92-21.897.397-2.679.887-5.217 1.36-7.671 1.356-7.02 2.635-13.651 1.194-21.376-1.176-6.3-.179-12.677.787-18.843.888-4.693 1.324-9.462 1.303-14.245-.212-5.607-.098-11.264.012-16.733.333-8.219.149-16.456-.549-24.663-1.016-9.615-3.787-19.486-6.468-29.032-1.248-4.443-2.538-9.038-3.602-13.462-3.85-15.985-4.112-34.918-3.926-44.783.27-10.392 1.109-20.757 2.514-31.049.781-5.91 3.452-10.716 6.034-15.362 1.57-2.697 2.971-5.486 4.194-8.353 1.316-3.256 2.619-6.87 1.399-8.539-.708-.966-2.366-1.394-4.936-1.277-5.176.239-9.276 2.55-13.615 4.996-.724.408-1.455.82-2.2 1.228-6.034 3.305-12.39 6.138-18.538 8.876-12.998 5.791-26.437 11.779-36.933 22.412-2.696 2.949-5.004 6.22-6.871 9.738-1.863 3.451-4.108 6.687-6.694 9.651l-1.903 2.045c-10.115 10.875-22.702 24.41-36.38 30.727-11.265 5.355-21.355 12.798-29.72 21.922-4.017 4.157-8.272 8.087-12.745 11.769-5.6 4.515-10.783 9.506-15.488 14.916-4.551 5.554-5.092 8.251-3.051 15.192 1.101 3.745 2.255 7.486 3.409 11.229 3.436 10.506 6.326 21.171 8.66 31.954.947 4.785 2.038 9.639 3.093 14.332 2.004 8.91 4.075 18.124 5.266 27.334 1.861 14.413.093 29.84-1.616 44.759-.479 4.18-.931 8.13-1.309 12.071-.731 7.629-2.237 15.265-3.695 22.649-2.441 12.366-4.965 25.154-3.816 38.023.099 1.111.188 2.218.275 3.317.767 9.574 1.49 18.617 9.06 25.983l-1.046 1.036c-7.968-7.754-8.713-17.063-9.501-26.92-.088-1.095-.176-2.197-.275-3.304-1.167-13.073 1.377-25.963 3.838-38.428 1.45-7.35 2.95-14.95 3.673-22.508.38-3.955.832-7.91 1.313-12.098 1.699-14.833 3.457-30.171 1.617-44.41-1.181-9.144-3.246-18.324-5.242-27.202Z"/></g></svg>