<svg width="442" height="348" viewBox="0 0 442 348" fill="none" xmlns="http://www.w3.org/2000/svg"><path d="M180.977 14.21c3.066 0 5.278-2.324 5.278-5.152 0-2.814-2.212-5.124-5.278-5.124-3.066 0-5.278 2.324-5.278 5.152 0 2.814 2.212 5.124 5.278 5.124Zm0-1.582c-2.044 0-3.416-1.568-3.416-3.556s1.372-3.57 3.416-3.57c2.058 0 3.416 1.582 3.416 3.57 0 1.988-1.358 3.556-3.416 3.556ZM189.736 14v-3.318c0-.868.07-1.414.462-1.848.434-.49 1.162-.616 1.904-.574V6.51c-.756 0-1.834.35-2.352 1.246h-.028l-.112-1.036h-1.624V14h1.75Zm6.942 3.178c1.344 0 2.366-.49 3.066-1.148.854-.826.966-1.89.966-3.066V6.72h-1.666l-.084.826h-.014c-.476-.574-1.302-1.036-2.436-1.036-2.254 0-3.682 1.666-3.682 3.71s1.428 3.71 3.682 3.71c1.148 0 1.974-.476 2.436-1.036h.028v.294c0 .7-.07 1.19-.42 1.61-.35.546-1.064.868-1.974.868-1.092 0-1.848-.588-2.31-1.134l-1.092 1.12c.126.154 1.092 1.526 3.5 1.526Zm.126-4.732c-1.302 0-2.198-1.008-2.198-2.226 0-1.232.896-2.226 2.198-2.226 1.316 0 2.184.994 2.184 2.226 0 1.218-.868 2.226-2.184 2.226Zm8.144 1.764c1.246 0 1.96-.644 2.268-1.092h.028l.084.882h1.624V9.632c0-1.036-.196-1.596-.56-2.058-.574-.728-1.54-1.064-2.548-1.064-1.904 0-2.912 1.05-3.178 1.47l.994.966c.434-.546 1.148-1.036 2.086-1.036s1.554.56 1.554 1.414v.084c-2.282.07-3.304.168-4.046.784-.49.378-.826.966-.826 1.708 0 1.526 1.134 2.31 2.52 2.31Zm.322-1.386c-.602 0-1.134-.28-1.134-.966 0-1.064 1.162-1.204 3.164-1.246v.084c0 1.288-.798 2.128-2.03 2.128ZM212.732 14v-3.976c0-1.162.602-1.988 1.694-1.988.854 0 1.47.56 1.47 1.722V14h1.75V9.422c0-1.834-1.05-2.912-2.73-2.912-1.372 0-2.002.798-2.212 1.106h-.014l-.084-.896h-1.624V14h1.75Zm7.827-8.512c.63 0 1.134-.49 1.134-1.134 0-.616-.504-1.12-1.134-1.12-.644 0-1.148.504-1.148 1.12 0 .644.504 1.134 1.148 1.134Zm.882 8.512V6.72h-1.75V14h1.75Zm7.789-5.838V6.72h-5.922v1.47h3.682l-3.85 4.34V14h6.272v-1.498h-4.004l3.822-4.34Zm3.964 6.048c1.246 0 1.96-.644 2.268-1.092h.028l.084.882h1.624V9.632c0-1.036-.196-1.596-.56-2.058-.574-.728-1.54-1.064-2.548-1.064-1.904 0-2.912 1.05-3.178 1.47l.994.966c.434-.546 1.148-1.036 2.086-1.036s1.554.56 1.554 1.414v.084c-2.282.07-3.304.168-4.046.784-.49.378-.826.966-.826 1.708 0 1.526 1.134 2.31 2.52 2.31Zm.322-1.386c-.602 0-1.134-.28-1.134-.966 0-1.064 1.162-1.204 3.164-1.246v.084c0 1.288-.798 2.128-2.03 2.128Zm10.01-.434c-.196.126-.532.294-.994.294-.882 0-1.134-.672-1.134-1.414V8.19h2.24V6.72h-2.24V4.494h-1.75V6.72h-1.344v1.47h1.344v3.234c0 1.652.924 2.786 2.66 2.786.784 0 1.47-.252 1.876-.574l-.658-1.246Zm2.75-6.902c.63 0 1.134-.49 1.134-1.134 0-.616-.504-1.12-1.134-1.12-.644 0-1.148.504-1.148 1.12 0 .644.504 1.134 1.148 1.134Zm.882 8.512V6.72h-1.75V14h1.75Zm5.577.21c2.31 0 3.976-1.736 3.976-3.85 0-2.128-1.666-3.85-3.976-3.85-2.296 0-3.962 1.722-3.962 3.85s1.666 3.85 3.962 3.85Zm0-1.526c-1.33 0-2.184-1.036-2.184-2.31 0-1.302.854-2.352 2.184-2.352 1.344 0 2.198 1.05 2.198 2.352 0 1.274-.854 2.31-2.198 2.31ZM260.091 14v-3.976c0-1.162.602-1.988 1.694-1.988.854 0 1.47.56 1.47 1.722V14h1.75V9.422c0-1.834-1.05-2.912-2.73-2.912-1.372 0-2.002.798-2.212 1.106h-.014l-.084-.896h-1.624V14h1.75Z" fill="#1C0D3F"/><rect x="12" y="146" width="418" height="185" rx="7" fill="#F2F4F6"/><rect x="12" y="146" width="418" height="185" rx="7" stroke="#ED26B7" stroke-width="2"/><path d="m84 173 137-56M221 117l137 56M221 117v56" stroke="#F2F4F6" stroke-width="6"/><path d="M52.228 285.21c2.156 0 3.57-1.106 4.102-1.848l-1.148-1.092c-.658.742-1.554 1.358-2.94 1.358-2.044 0-3.416-1.554-3.416-3.556 0-1.96 1.358-3.57 3.416-3.57 1.288 0 2.24.602 2.856 1.344l1.218-1.036c-.546-.868-2.03-1.876-4.074-1.876-3.08 0-5.278 2.31-5.278 5.152 0 2.828 2.184 5.124 5.264 5.124Zm8.7526 0c1.008 0 1.834-.35 2.436-.938.602-.602.882-1.4.882-2.324v-4.228h-1.75v4.102c0 .588-.084 1.064-.462 1.428-.266.28-.63.434-1.106.434-.462 0-.84-.154-1.12-.434-.364-.364-.462-.84-.462-1.428v-4.102h-1.75v4.228c0 .924.28 1.722.882 2.324.602.588 1.428.938 2.45.938Zm7.956 0c1.89 0 3.178-1.036 3.178-2.45 0-2.842-4.382-1.708-4.382-3.038 0-.518.532-.826 1.302-.826 1.078 0 1.694.546 1.946.84l1.05-.882c-.14-.238-1.008-1.344-3.024-1.344-1.946 0-3.01 1.162-3.01 2.324 0 2.842 4.382 1.722 4.382 3.08 0 .574-.574.896-1.428.896-1.148 0-1.876-.644-2.128-.966l-1.064.994c.126.224 1.022 1.372 3.178 1.372Zm9.1178-1.82c-.196.126-.532.294-.994.294-.882 0-1.134-.672-1.134-1.414v-3.08h2.24v-1.47h-2.24v-2.226h-1.75v2.226h-1.344v1.47h1.344v3.234c0 1.652.924 2.786 2.66 2.786.784 0 1.47-.252 1.876-.574l-.658-1.246Zm5.1483 1.82c2.31 0 3.976-1.736 3.976-3.85 0-2.128-1.666-3.85-3.976-3.85-2.296 0-3.962 1.722-3.962 3.85s1.666 3.85 3.962 3.85Zm0-1.526c-1.33 0-2.184-1.036-2.184-2.31 0-1.302.854-2.352 2.184-2.352 1.344 0 2.198 1.05 2.198 2.352 0 1.274-.854 2.31-2.198 2.31ZM90.5731 285v-3.836c0-.546.042-1.022.28-1.414.252-.434.742-.7 1.246-.7.476 0 .882.21 1.12.616.21.322.224.742.224 1.148V285h1.764v-3.836c0-.546.056-1.022.28-1.414.252-.434.742-.7 1.26-.7.462 0 .882.21 1.12.616.196.322.224.742.224 1.148V285h1.764v-4.606c0-.784-.14-1.372-.532-1.89-.476-.616-1.26-.994-2.296-.994-1.274 0-1.96.77-2.212 1.106h-.014c-.294-.406-.938-1.106-2.184-1.106-1.176 0-1.82.672-2.086 1.078h-.014l-.084-.868h-1.624V285h1.764Zm18.2919-3.64c0-2.17-1.442-3.85-3.668-3.85-2.212 0-3.822 1.638-3.822 3.864 0 2.114 1.47 3.836 3.864 3.836 1.54 0 2.632-.812 3.08-1.428l-1.12-.966c-.252.35-.882.952-1.946.952-1.344 0-2.072-.966-2.1-1.834h5.698c.014-.196.014-.392.014-.574Zm-3.682-2.478c1.232 0 1.862.98 1.918 1.736h-3.934c.098-.77.742-1.736 2.016-1.736Zm7.005 6.118v-3.318c0-.868.07-1.414.462-1.848.434-.49 1.162-.616 1.904-.574v-1.75c-.756 0-1.834.35-2.352 1.246h-.028l-.112-1.036h-1.624V285h1.75Zm12.532 0v-9.856h-1.652c-.812.826-2.072 1.512-3.08 1.848l.574 1.4c.714-.196 1.722-.658 2.394-1.246h.014V285h1.75ZM186.228 285.21c2.156 0 3.57-1.106 4.102-1.848l-1.148-1.092c-.658.742-1.554 1.358-2.94 1.358-2.044 0-3.416-1.554-3.416-3.556 0-1.96 1.358-3.57 3.416-3.57 1.288 0 2.24.602 2.856 1.344l1.218-1.036c-.546-.868-2.03-1.876-4.074-1.876-3.08 0-5.278 2.31-5.278 5.152 0 2.828 2.184 5.124 5.264 5.124Zm8.753 0c1.008 0 1.834-.35 2.436-.938.602-.602.882-1.4.882-2.324v-4.228h-1.75v4.102c0 .588-.084 1.064-.462 1.428-.266.28-.63.434-1.106.434-.462 0-.84-.154-1.12-.434-.364-.364-.462-.84-.462-1.428v-4.102h-1.75v4.228c0 .924.28 1.722.882 2.324.602.588 1.428.938 2.45.938Zm7.956 0c1.89 0 3.178-1.036 3.178-2.45 0-2.842-4.382-1.708-4.382-3.038 0-.518.532-.826 1.302-.826 1.078 0 1.694.546 1.946.84l1.05-.882c-.14-.238-1.008-1.344-3.024-1.344-1.946 0-3.01 1.162-3.01 2.324 0 2.842 4.382 1.722 4.382 3.08 0 .574-.574.896-1.428.896-1.148 0-1.876-.644-2.128-.966l-1.064.994c.126.224 1.022 1.372 3.178 1.372Zm9.117-1.82c-.196.126-.532.294-.994.294-.882 0-1.134-.672-1.134-1.414v-3.08h2.24v-1.47h-2.24v-2.226h-1.75v2.226h-1.344v1.47h1.344v3.234c0 1.652.924 2.786 2.66 2.786.784 0 1.47-.252 1.876-.574l-.658-1.246Zm5.149 1.82c2.31 0 3.976-1.736 3.976-3.85 0-2.128-1.666-3.85-3.976-3.85-2.296 0-3.962 1.722-3.962 3.85s1.666 3.85 3.962 3.85Zm0-1.526c-1.33 0-2.184-1.036-2.184-2.31 0-1.302.854-2.352 2.184-2.352 1.344 0 2.198 1.05 2.198 2.352 0 1.274-.854 2.31-2.198 2.31Zm7.37 1.316v-3.836c0-.546.042-1.022.28-1.414.252-.434.742-.7 1.246-.7.476 0 .882.21 1.12.616.21.322.224.742.224 1.148V285h1.764v-3.836c0-.546.056-1.022.28-1.414.252-.434.742-.7 1.26-.7.462 0 .882.21 1.12.616.196.322.224.742.224 1.148V285h1.764v-4.606c0-.784-.14-1.372-.532-1.89-.476-.616-1.26-.994-2.296-.994-1.274 0-1.96.77-2.212 1.106h-.014c-.294-.406-.938-1.106-2.184-1.106-1.176 0-1.82.672-2.086 1.078h-.014l-.084-.868h-1.624V285h1.764Zm18.292-3.64c0-2.17-1.442-3.85-3.668-3.85-2.212 0-3.822 1.638-3.822 3.864 0 2.114 1.47 3.836 3.864 3.836 1.54 0 2.632-.812 3.08-1.428l-1.12-.966c-.252.35-.882.952-1.946.952-1.344 0-2.072-.966-2.1-1.834h5.698c.014-.196.014-.392.014-.574Zm-3.682-2.478c1.232 0 1.862.98 1.918 1.736h-3.934c.098-.77.742-1.736 2.016-1.736Zm7.005 6.118v-3.318c0-.868.07-1.414.462-1.848.434-.49 1.162-.616 1.904-.574v-1.75c-.756 0-1.834.35-2.352 1.246h-.028l-.112-1.036h-1.624V285h1.75Zm14.492 0v-1.554h-4.466l-.014-.014c.826-.616 1.568-1.204 2.254-1.848 1.288-1.246 1.988-2.338 1.988-3.626 0-2.058-1.638-3.024-3.458-3.024-1.834 0-2.884 1.064-3.318 1.974l1.246.826c.434-.742 1.078-1.288 2.058-1.288 1.022 0 1.694.616 1.694 1.512 0 1.792-2.87 4.046-4.9 5.558V285h6.916ZM320.228 285.21c2.156 0 3.57-1.106 4.102-1.848l-1.148-1.092c-.658.742-1.554 1.358-2.94 1.358-2.044 0-3.416-1.554-3.416-3.556 0-1.96 1.358-3.57 3.416-3.57 1.288 0 2.24.602 2.856 1.344l1.218-1.036c-.546-.868-2.03-1.876-4.074-1.876-3.08 0-5.278 2.31-5.278 5.152 0 2.828 2.184 5.124 5.264 5.124Zm8.753 0c1.008 0 1.834-.35 2.436-.938.602-.602.882-1.4.882-2.324v-4.228h-1.75v4.102c0 .588-.084 1.064-.462 1.428-.266.28-.63.434-1.106.434-.462 0-.84-.154-1.12-.434-.364-.364-.462-.84-.462-1.428v-4.102h-1.75v4.228c0 .924.28 1.722.882 2.324.602.588 1.428.938 2.45.938Zm7.956 0c1.89 0 3.178-1.036 3.178-2.45 0-2.842-4.382-1.708-4.382-3.038 0-.518.532-.826 1.302-.826 1.078 0 1.694.546 1.946.84l1.05-.882c-.14-.238-1.008-1.344-3.024-1.344-1.946 0-3.01 1.162-3.01 2.324 0 2.842 4.382 1.722 4.382 3.08 0 .574-.574.896-1.428.896-1.148 0-1.876-.644-2.128-.966l-1.064.994c.126.224 1.022 1.372 3.178 1.372Zm9.117-1.82c-.196.126-.532.294-.994.294-.882 0-1.134-.672-1.134-1.414v-3.08h2.24v-1.47h-2.24v-2.226h-1.75v2.226h-1.344v1.47h1.344v3.234c0 1.652.924 2.786 2.66 2.786.784 0 1.47-.252 1.876-.574l-.658-1.246Zm5.149 1.82c2.31 0 3.976-1.736 3.976-3.85 0-2.128-1.666-3.85-3.976-3.85-2.296 0-3.962 1.722-3.962 3.85s1.666 3.85 3.962 3.85Zm0-1.526c-1.33 0-2.184-1.036-2.184-2.31 0-1.302.854-2.352 2.184-2.352 1.344 0 2.198 1.05 2.198 2.352 0 1.274-.854 2.31-2.198 2.31Zm7.37 1.316v-3.836c0-.546.042-1.022.28-1.414.252-.434.742-.7 1.246-.7.476 0 .882.21 1.12.616.21.322.224.742.224 1.148V285h1.764v-3.836c0-.546.056-1.022.28-1.414.252-.434.742-.7 1.26-.7.462 0 .882.21 1.12.616.196.322.224.742.224 1.148V285h1.764v-4.606c0-.784-.14-1.372-.532-1.89-.476-.616-1.26-.994-2.296-.994-1.274 0-1.96.77-2.212 1.106h-.014c-.294-.406-.938-1.106-2.184-1.106-1.176 0-1.82.672-2.086 1.078h-.014l-.084-.868h-1.624V285h1.764Zm18.292-3.64c0-2.17-1.442-3.85-3.668-3.85-2.212 0-3.822 1.638-3.822 3.864 0 2.114 1.47 3.836 3.864 3.836 1.54 0 2.632-.812 3.08-1.428l-1.12-.966c-.252.35-.882.952-1.946.952-1.344 0-2.072-.966-2.1-1.834h5.698c.014-.196.014-.392.014-.574Zm-3.682-2.478c1.232 0 1.862.98 1.918 1.736h-3.934c.098-.77.742-1.736 2.016-1.736Zm7.005 6.118v-3.318c0-.868.07-1.414.462-1.848.434-.49 1.162-.616 1.904-.574v-1.75c-.756 0-1.834.35-2.352 1.246h-.028l-.112-1.036h-1.624V285h1.75Zm10.852.21c2.058 0 3.696-1.134 3.696-2.94 0-1.106-.7-1.988-1.764-2.366v-.014c.91-.378 1.512-1.19 1.512-2.184 0-1.708-1.54-2.772-3.444-2.772-1.96 0-2.982 1.064-3.374 1.764l1.246.91c.336-.476 1.008-1.176 2.086-1.176.952 0 1.736.476 1.736 1.414 0 .574-.35.994-.854 1.218-.266.126-.658.182-1.19.182h-1.106v1.456h1.106c.7 0 1.036.056 1.316.168.616.21.98.686.98 1.316 0 .994-.896 1.512-1.988 1.512-1.12 0-1.806-.644-2.226-1.176l-1.218 1.036c.378.616 1.484 1.652 3.486 1.652Z" fill="#1C0D3F"/><g filter="url(#filter0_dddddd_926_11563)"><rect x="161" y="29" width="120" height="80" rx="4" fill="#1C0D3F"/><path fill="#fff" d="M177 44h30v3h-30zM177 53h88v10h-88zM177 65h88v10h-88zM177 77h88v10h-88zM177 89h88v10h-88z"/><rect x="163" y="31" width="9" height="4" rx="2" fill="#ED26B7"/></g><g filter="url(#filter1_dddddd_926_11563)"><rect x="27" y="181" width="120" height="80" rx="4" fill="#1C0D3F"/><path fill="#fff" d="M33 193h30v3H33zM33 202h108v53H33z"/><path d="m111.667 229.999 12.333-5v19H50V222l12.3333 11.999 12.3334-6 12.3333 6 12.3333-9 12.3337 5Z" fill="url(#paint0_linear_926_11563)"/><rect x="33" y="185" width="12" height="4" rx="2" fill="#ED26B7"/></g><g filter="url(#filter2_dddddd_926_11563)"><rect x="161" y="181" width="120" height="80" rx="4" fill="#1C0D3F"/><path fill="#fff" d="M167 193h30v3h-30zM167 202h108v53H167z"/><path d="M196.333 230 184 228v16h74v-30l-12.333 13-12.334 1L221 234l-12.333-9-12.334 5Z" fill="url(#paint1_linear_926_11563)"/><rect x="167" y="185" width="12" height="4" rx="2" fill="#ED26B7"/></g><g filter="url(#filter3_dddddd_926_11563)"><rect x="295" y="181" width="120" height="80" rx="4" fill="#1C0D3F"/><path fill="#fff" d="M301 193h30v3h-30zM301 202h108v53H301z"/><path d="M330.333 227 318 236v8h74v-25l-12.333 16-12.334-11L355 238h-12.333l-12.334-11Z" fill="url(#paint2_linear_926_11563)"/><rect x="301" y="185" width="12" height="4" rx="2" fill="#ED26B7"/></g><path d="m84 173 11.4411 1.561-4.3691-10.689L84 173Zm8.7093-2.48 128.6687-52.594-.756-1.852-128.6695 52.595.7568 1.851Z" fill="#BFC9D1"/><path d="m358 173-11.441 1.561 4.369-10.689L358 173Zm-136.622-56.926 128.669 52.595-.756 1.851-128.669-52.594.756-1.852Z" fill="#BFC9D1"/><path d="m221 173 5.774-10h-11.548L221 173Zm-1-56v47h2v-47h-2Z" fill="#BFC9D1"/><rect x="162" y="314" width="119" height="34" rx="16" fill="#ED26B7"/><path d="m183.838 336 2.044-8.134h.028l2.03 8.134h2.478l2.492-9.856h-1.82l-1.974 8.092h-.028l-2.002-8.092h-2.352l-2.03 8.092h-.028l-1.946-8.092h-1.918L181.36 336h2.478Zm13.377.21c2.31 0 3.976-1.736 3.976-3.85 0-2.128-1.666-3.85-3.976-3.85-2.296 0-3.962 1.722-3.962 3.85s1.666 3.85 3.962 3.85Zm0-1.526c-1.33 0-2.184-1.036-2.184-2.31 0-1.302.854-2.352 2.184-2.352 1.344 0 2.198 1.05 2.198 2.352 0 1.274-.854 2.31-2.198 2.31Zm7.357 1.316v-3.318c0-.868.07-1.414.462-1.848.434-.49 1.162-.616 1.904-.574v-1.75c-.756 0-1.834.35-2.352 1.246h-.028l-.112-1.036h-1.624V336h1.75Zm5.523 0v-3.724h.014l3.08 3.724h2.1l-3.318-3.878 3.262-3.402h-2.1l-3.024 3.304h-.014v-6.454h-1.75V336h1.75Zm8.907.21c1.89 0 3.178-1.036 3.178-2.45 0-2.842-4.382-1.708-4.382-3.038 0-.518.532-.826 1.302-.826 1.078 0 1.694.546 1.946.84l1.05-.882c-.14-.238-1.008-1.344-3.024-1.344-1.946 0-3.01 1.162-3.01 2.324 0 2.842 4.382 1.722 4.382 3.08 0 .574-.574.896-1.428.896-1.148 0-1.876-.644-2.128-.966l-1.064.994c.126.224 1.022 1.372 3.178 1.372Zm6.57 2.758v-3.836h.014c.448.546 1.26 1.078 2.464 1.078 2.254 0 3.654-1.736 3.654-3.85 0-2.128-1.4-3.85-3.654-3.85-1.176 0-2.03.518-2.492 1.12h-.028l-.07-.91h-1.638v10.248h1.75Zm2.156-4.284c-1.316 0-2.184-1.036-2.184-2.324 0-1.302.868-2.338 2.184-2.338 1.302 0 2.212 1.036 2.212 2.338 0 1.288-.91 2.324-2.212 2.324Zm7.71 1.526c1.246 0 1.96-.644 2.268-1.092h.028l.084.882h1.624v-4.368c0-1.036-.196-1.596-.56-2.058-.574-.728-1.54-1.064-2.548-1.064-1.904 0-2.912 1.05-3.178 1.47l.994.966c.434-.546 1.148-1.036 2.086-1.036s1.554.56 1.554 1.414v.084c-2.282.07-3.304.168-4.046.784-.49.378-.826.966-.826 1.708 0 1.526 1.134 2.31 2.52 2.31Zm.322-1.386c-.602 0-1.134-.28-1.134-.966 0-1.064 1.162-1.204 3.164-1.246v.084c0 1.288-.798 2.128-2.03 2.128Zm9.184 1.386c2.072 0 3.066-1.274 3.276-1.652l-1.33-.91c-.252.35-.756 1.036-1.96 1.036-1.288 0-2.184-1.05-2.184-2.324 0-1.288.896-2.324 2.184-2.324 1.162 0 1.666.686 1.932 1.064l1.33-.952c-.224-.42-1.176-1.638-3.248-1.638-2.338 0-3.976 1.722-3.976 3.85 0 2.114 1.61 3.85 3.976 3.85Zm11.717-3.85c0-2.17-1.442-3.85-3.668-3.85-2.212 0-3.822 1.638-3.822 3.864 0 2.114 1.47 3.836 3.864 3.836 1.54 0 2.632-.812 3.08-1.428l-1.12-.966c-.252.35-.882.952-1.946.952-1.344 0-2.072-.966-2.1-1.834h5.698c.014-.196.014-.392.014-.574Zm-3.682-2.478c1.232 0 1.862.98 1.918 1.736h-3.934c.098-.77.742-1.736 2.016-1.736Zm7.859 6.328c1.89 0 3.178-1.036 3.178-2.45 0-2.842-4.382-1.708-4.382-3.038 0-.518.532-.826 1.302-.826 1.078 0 1.694.546 1.946.84l1.05-.882c-.14-.238-1.008-1.344-3.024-1.344-1.946 0-3.01 1.162-3.01 2.324 0 2.842 4.382 1.722 4.382 3.08 0 .574-.574.896-1.428.896-1.148 0-1.876-.644-2.128-.966l-1.064.994c.126.224 1.022 1.372 3.178 1.372Z" fill="#fff"/><defs><filter id="filter0_dddddd_926_11563" x="144" y="24" width="154" height="114" filterUnits="userSpaceOnUse" color-interpolation-filters="sRGB"><feFlood flood-opacity="0" result="BackgroundImageFix"/><feColorMatrix in="SourceAlpha" values="0 0 0 0 0 0 0 0 0 0 0 0 0 0 0 0 0 0 127 0" result="hardAlpha"/><feOffset dy=".332071"/><feGaussianBlur stdDeviation=".235217"/><feColorMatrix values="0 0 0 0 0.109804 0 0 0 0 0.0509804 0 0 0 0 0.247059 0 0 0 0.0281146 0"/><feBlend in2="BackgroundImageFix" result="effect1_dropShadow_926_11563"/><feColorMatrix in="SourceAlpha" values="0 0 0 0 0 0 0 0 0 0 0 0 0 0 0 0 0 0 127 0" result="hardAlpha"/><feOffset dy=".798012"/><feGaussianBlur stdDeviation=".565259"/><feColorMatrix values="0 0 0 0 0.109804 0 0 0 0 0.0509804 0 0 0 0 0.247059 0 0 0 0.0403893 0"/><feBlend in2="effect1_dropShadow_926_11563" result="effect2_dropShadow_926_11563"/><feColorMatrix in="SourceAlpha" values="0 0 0 0 0 0 0 0 0 0 0 0 0 0 0 0 0 0 127 0" result="hardAlpha"/><feOffset dy="1.50259"/><feGaussianBlur stdDeviation="1.06433"/><feColorMatrix values="0 0 0 0 0.109804 0 0 0 0 0.0509804 0 0 0 0 0.247059 0 0 0 0.05 0"/><feBlend in2="effect2_dropShadow_926_11563" result="effect3_dropShadow_926_11563"/><feColorMatrix in="SourceAlpha" values="0 0 0 0 0 0 0 0 0 0 0 0 0 0 0 0 0 0 127 0" result="hardAlpha"/><feOffset dy="2.68036"/><feGaussianBlur stdDeviation="1.89859"/><feColorMatrix values="0 0 0 0 0.109804 0 0 0 0 0.0509804 0 0 0 0 0.247059 0 0 0 0.0596107 0"/><feBlend in2="effect3_dropShadow_926_11563" result="effect4_dropShadow_926_11563"/><feColorMatrix in="SourceAlpha" values="0 0 0 0 0 0 0 0 0 0 0 0 0 0 0 0 0 0 127 0" result="hardAlpha"/><feOffset dy="5.01331"/><feGaussianBlur stdDeviation="3.5511"/><feColorMatrix values="0 0 0 0 0.109804 0 0 0 0 0.0509804 0 0 0 0 0.247059 0 0 0 0.0718854 0"/><feBlend in2="effect4_dropShadow_926_11563" result="effect5_dropShadow_926_11563"/><feColorMatrix in="SourceAlpha" values="0 0 0 0 0 0 0 0 0 0 0 0 0 0 0 0 0 0 127 0" result="hardAlpha"/><feOffset dy="12"/><feGaussianBlur stdDeviation="8.5"/><feColorMatrix values="0 0 0 0 0.109804 0 0 0 0 0.0509804 0 0 0 0 0.247059 0 0 0 0.1 0"/><feBlend in2="effect5_dropShadow_926_11563" result="effect6_dropShadow_926_11563"/><feBlend in="SourceGraphic" in2="effect6_dropShadow_926_11563" result="shape"/></filter><filter id="filter1_dddddd_926_11563" x="10" y="176" width="154" height="114" filterUnits="userSpaceOnUse" color-interpolation-filters="sRGB"><feFlood flood-opacity="0" result="BackgroundImageFix"/><feColorMatrix in="SourceAlpha" values="0 0 0 0 0 0 0 0 0 0 0 0 0 0 0 0 0 0 127 0" result="hardAlpha"/><feOffset dy=".332071"/><feGaussianBlur stdDeviation=".235217"/><feColorMatrix values="0 0 0 0 0.109804 0 0 0 0 0.0509804 0 0 0 0 0.247059 0 0 0 0.0281146 0"/><feBlend in2="BackgroundImageFix" result="effect1_dropShadow_926_11563"/><feColorMatrix in="SourceAlpha" values="0 0 0 0 0 0 0 0 0 0 0 0 0 0 0 0 0 0 127 0" result="hardAlpha"/><feOffset dy=".798012"/><feGaussianBlur stdDeviation=".565259"/><feColorMatrix values="0 0 0 0 0.109804 0 0 0 0 0.0509804 0 0 0 0 0.247059 0 0 0 0.0403893 0"/><feBlend in2="effect1_dropShadow_926_11563" result="effect2_dropShadow_926_11563"/><feColorMatrix in="SourceAlpha" values="0 0 0 0 0 0 0 0 0 0 0 0 0 0 0 0 0 0 127 0" result="hardAlpha"/><feOffset dy="1.50259"/><feGaussianBlur stdDeviation="1.06433"/><feColorMatrix values="0 0 0 0 0.109804 0 0 0 0 0.0509804 0 0 0 0 0.247059 0 0 0 0.05 0"/><feBlend in2="effect2_dropShadow_926_11563" result="effect3_dropShadow_926_11563"/><feColorMatrix in="SourceAlpha" values="0 0 0 0 0 0 0 0 0 0 0 0 0 0 0 0 0 0 127 0" result="hardAlpha"/><feOffset dy="2.68036"/><feGaussianBlur stdDeviation="1.89859"/><feColorMatrix values="0 0 0 0 0.109804 0 0 0 0 0.0509804 0 0 0 0 0.247059 0 0 0 0.0596107 0"/><feBlend in2="effect3_dropShadow_926_11563" result="effect4_dropShadow_926_11563"/><feColorMatrix in="SourceAlpha" values="0 0 0 0 0 0 0 0 0 0 0 0 0 0 0 0 0 0 127 0" result="hardAlpha"/><feOffset dy="5.01331"/><feGaussianBlur stdDeviation="3.5511"/><feColorMatrix values="0 0 0 0 0.109804 0 0 0 0 0.0509804 0 0 0 0 0.247059 0 0 0 0.0718854 0"/><feBlend in2="effect4_dropShadow_926_11563" result="effect5_dropShadow_926_11563"/><feColorMatrix in="SourceAlpha" values="0 0 0 0 0 0 0 0 0 0 0 0 0 0 0 0 0 0 127 0" result="hardAlpha"/><feOffset dy="12"/><feGaussianBlur stdDeviation="8.5"/><feColorMatrix values="0 0 0 0 0.109804 0 0 0 0 0.0509804 0 0 0 0 0.247059 0 0 0 0.1 0"/><feBlend in2="effect5_dropShadow_926_11563" result="effect6_dropShadow_926_11563"/><feBlend in="SourceGraphic" in2="effect6_dropShadow_926_11563" result="shape"/></filter><filter id="filter2_dddddd_926_11563" x="144" y="176" width="154" height="114" filterUnits="userSpaceOnUse" color-interpolation-filters="sRGB"><feFlood flood-opacity="0" result="BackgroundImageFix"/><feColorMatrix in="SourceAlpha" values="0 0 0 0 0 0 0 0 0 0 0 0 0 0 0 0 0 0 127 0" result="hardAlpha"/><feOffset dy=".332071"/><feGaussianBlur stdDeviation=".235217"/><feColorMatrix values="0 0 0 0 0.109804 0 0 0 0 0.0509804 0 0 0 0 0.247059 0 0 0 0.0281146 0"/><feBlend in2="BackgroundImageFix" result="effect1_dropShadow_926_11563"/><feColorMatrix in="SourceAlpha" values="0 0 0 0 0 0 0 0 0 0 0 0 0 0 0 0 0 0 127 0" result="hardAlpha"/><feOffset dy=".798012"/><feGaussianBlur stdDeviation=".565259"/><feColorMatrix values="0 0 0 0 0.109804 0 0 0 0 0.0509804 0 0 0 0 0.247059 0 0 0 0.0403893 0"/><feBlend in2="effect1_dropShadow_926_11563" result="effect2_dropShadow_926_11563"/><feColorMatrix in="SourceAlpha" values="0 0 0 0 0 0 0 0 0 0 0 0 0 0 0 0 0 0 127 0" result="hardAlpha"/><feOffset dy="1.50259"/><feGaussianBlur stdDeviation="1.06433"/><feColorMatrix values="0 0 0 0 0.109804 0 0 0 0 0.0509804 0 0 0 0 0.247059 0 0 0 0.05 0"/><feBlend in2="effect2_dropShadow_926_11563" result="effect3_dropShadow_926_11563"/><feColorMatrix in="SourceAlpha" values="0 0 0 0 0 0 0 0 0 0 0 0 0 0 0 0 0 0 127 0" result="hardAlpha"/><feOffset dy="2.68036"/><feGaussianBlur stdDeviation="1.89859"/><feColorMatrix values="0 0 0 0 0.109804 0 0 0 0 0.0509804 0 0 0 0 0.247059 0 0 0 0.0596107 0"/><feBlend in2="effect3_dropShadow_926_11563" result="effect4_dropShadow_926_11563"/><feColorMatrix in="SourceAlpha" values="0 0 0 0 0 0 0 0 0 0 0 0 0 0 0 0 0 0 127 0" result="hardAlpha"/><feOffset dy="5.01331"/><feGaussianBlur stdDeviation="3.5511"/><feColorMatrix values="0 0 0 0 0.109804 0 0 0 0 0.0509804 0 0 0 0 0.247059 0 0 0 0.0718854 0"/><feBlend in2="effect4_dropShadow_926_11563" result="effect5_dropShadow_926_11563"/><feColorMatrix in="SourceAlpha" values="0 0 0 0 0 0 0 0 0 0 0 0 0 0 0 0 0 0 127 0" result="hardAlpha"/><feOffset dy="12"/><feGaussianBlur stdDeviation="8.5"/><feColorMatrix values="0 0 0 0 0.109804 0 0 0 0 0.0509804 0 0 0 0 0.247059 0 0 0 0.1 0"/><feBlend in2="effect5_dropShadow_926_11563" result="effect6_dropShadow_926_11563"/><feBlend in="SourceGraphic" in2="effect6_dropShadow_926_11563" result="shape"/></filter><filter id="filter3_dddddd_926_11563" x="278" y="176" width="154" height="114" filterUnits="userSpaceOnUse" color-interpolation-filters="sRGB"><feFlood flood-opacity="0" result="BackgroundImageFix"/><feColorMatrix in="SourceAlpha" values="0 0 0 0 0 0 0 0 0 0 0 0 0 0 0 0 0 0 127 0" result="hardAlpha"/><feOffset dy=".332071"/><feGaussianBlur stdDeviation=".235217"/><feColorMatrix values="0 0 0 0 0.109804 0 0 0 0 0.0509804 0 0 0 0 0.247059 0 0 0 0.0281146 0"/><feBlend in2="BackgroundImageFix" result="effect1_dropShadow_926_11563"/><feColorMatrix in="SourceAlpha" values="0 0 0 0 0 0 0 0 0 0 0 0 0 0 0 0 0 0 127 0" result="hardAlpha"/><feOffset dy=".798012"/><feGaussianBlur stdDeviation=".565259"/><feColorMatrix values="0 0 0 0 0.109804 0 0 0 0 0.0509804 0 0 0 0 0.247059 0 0 0 0.0403893 0"/><feBlend in2="effect1_dropShadow_926_11563" result="effect2_dropShadow_926_11563"/><feColorMatrix in="SourceAlpha" values="0 0 0 0 0 0 0 0 0 0 0 0 0 0 0 0 0 0 127 0" result="hardAlpha"/><feOffset dy="1.50259"/><feGaussianBlur stdDeviation="1.06433"/><feColorMatrix values="0 0 0 0 0.109804 0 0 0 0 0.0509804 0 0 0 0 0.247059 0 0 0 0.05 0"/><feBlend in2="effect2_dropShadow_926_11563" result="effect3_dropShadow_926_11563"/><feColorMatrix in="SourceAlpha" values="0 0 0 0 0 0 0 0 0 0 0 0 0 0 0 0 0 0 127 0" result="hardAlpha"/><feOffset dy="2.68036"/><feGaussianBlur stdDeviation="1.89859"/><feColorMatrix values="0 0 0 0 0.109804 0 0 0 0 0.0509804 0 0 0 0 0.247059 0 0 0 0.0596107 0"/><feBlend in2="effect3_dropShadow_926_11563" result="effect4_dropShadow_926_11563"/><feColorMatrix in="SourceAlpha" values="0 0 0 0 0 0 0 0 0 0 0 0 0 0 0 0 0 0 127 0" result="hardAlpha"/><feOffset dy="5.01331"/><feGaussianBlur stdDeviation="3.5511"/><feColorMatrix values="0 0 0 0 0.109804 0 0 0 0 0.0509804 0 0 0 0 0.247059 0 0 0 0.0718854 0"/><feBlend in2="effect4_dropShadow_926_11563" result="effect5_dropShadow_926_11563"/><feColorMatrix in="SourceAlpha" values="0 0 0 0 0 0 0 0 0 0 0 0 0 0 0 0 0 0 127 0" result="hardAlpha"/><feOffset dy="12"/><feGaussianBlur stdDeviation="8.5"/><feColorMatrix values="0 0 0 0 0.109804 0 0 0 0 0.0509804 0 0 0 0 0.247059 0 0 0 0.1 0"/><feBlend in2="effect5_dropShadow_926_11563" result="effect6_dropShadow_926_11563"/><feBlend in="SourceGraphic" in2="effect6_dropShadow_926_11563" result="shape"/></filter><linearGradient id="paint0_linear_926_11563" x1="87" y1="214" x2="87" y2="244" gradientUnits="userSpaceOnUse"><stop stop-color="#2637EF"/><stop offset="1" stop-color="#2637EF" stop-opacity=".3"/></linearGradient><linearGradient id="paint1_linear_926_11563" x1="222.396" y1="214" x2="222.396" y2="244" gradientUnits="userSpaceOnUse"><stop stop-color="#ED26B7"/><stop offset="1" stop-color="#ED26B7" stop-opacity=".3"/></linearGradient><linearGradient id="paint2_linear_926_11563" x1="356.396" y1="214" x2="356.396" y2="244" gradientUnits="userSpaceOnUse"><stop stop-color="#1B127D"/><stop offset="1" stop-color="#1B127D" stop-opacity=".3"/></linearGradient></defs></svg>