<svg width="176" height="96" viewBox="0 0 176 96" fill="none" xmlns="http://www.w3.org/2000/svg"><path d="M43.7663 44.5047c-.1125-.0937-1.1249-.8624-3.2996-.8624-.5625 0-1.1437.0563-1.7061.15-.4125-2.8685-2.7935-4.2558-2.8872-4.3308l-.5812-.3375-.375.5437c-.4687.7312-.8249 1.5561-1.0311 2.3998-.3937 1.6311-.15 3.1684.6749 4.4808-.9936.5624-2.606.6936-2.9434.7124H4.99526c-.69368 0-1.25612.5624-1.25612 1.2561-.03749 2.3248.35622 4.6495 1.16238 6.8431.91866 2.3997 2.28727 4.1808 4.04959 5.2682 1.98729 1.2186 5.23069 1.9123 8.88659 1.9123 1.6498 0 3.2997-.15 4.9308-.45 2.2685-.4124 4.4433-1.1998 6.4493-2.3435 1.6498-.9561 3.1309-2.1748 4.3871-3.5996 2.1185-2.381 3.3746-5.0432 4.2933-7.4055h.3749c2.3061 0 3.7309-.9187 4.5183-1.7061.525-.4874.9187-1.0874 1.1999-1.7623l.1687-.4875-.3937-.2812Z" fill="#0091E2"/><path d="M7.47045 46.492h3.56215c.1687 0 .3187-.1313.3187-.3188v-3.1871c0-.1688-.1312-.3187-.3187-.3187H7.47045c-.16873 0-.31872.1312-.31872.3187v3.1871c.01875.1875.14999.3188.31872.3188ZM12.3822 46.492h3.5621c.1688 0 .3187-.1313.3187-.3188v-3.1871c0-.1688-.1312-.3187-.3187-.3187h-3.5621c-.1687 0-.3187.1312-.3187.3187v3.1871c.0187.1875.15.3188.3187.3188ZM17.3877 46.492h3.5621c.1688 0 .3187-.1313.3187-.3188v-3.1871c0-.1688-.1312-.3187-.3187-.3187h-3.5621c-.1687 0-.3187.1312-.3187.3187v3.1871c0 .1875.1312.3188.3187.3188ZM22.3182 46.492h3.5622c.1687 0 .3187-.1313.3187-.3188v-3.1871c0-.1688-.1313-.3187-.3187-.3187h-3.5622c-.1687 0-.3187.1312-.3187.3187v3.1871c0 .1875.15.3188.3187.3188ZM12.3822 41.9363h3.5621c.1688 0 .3187-.15.3187-.3188v-3.1871c0-.1688-.1312-.3188-.3187-.3188h-3.5621c-.1687 0-.3187.1313-.3187.3188v3.1871c.0187.1688.15.3188.3187.3188ZM17.3877 41.9363h3.5621c.1688 0 .3187-.15.3187-.3188v-3.1871c0-.1688-.1312-.3188-.3187-.3188h-3.5621c-.1687 0-.3187.1313-.3187.3188v3.1871c0 .1688.1312.3188.3187.3188ZM22.3182 41.9363h3.5622c.1687 0 .3187-.15.3187-.3188v-3.1871c0-.1688-.15-.3188-.3187-.3188h-3.5622c-.1687 0-.3187.1313-.3187.3188v3.1871c0 .1688.15.3188.3187.3188ZM22.3182 37.3617h3.5622c.1687 0 .3187-.1313.3187-.3188v-3.1871c0-.1688-.15-.3188-.3187-.3188h-3.5622c-.1687 0-.3187.1313-.3187.3188v3.1871c0 .1688.15.3188.3187.3188ZM27.2862 46.492h3.5622c.1687 0 .3187-.1313.3187-.3188v-3.1871c0-.1688-.1312-.3187-.3187-.3187h-3.5622c-.1687 0-.3187.1312-.3187.3187v3.1871c.0188.1875.15.3188.3187.3188Z" fill="#0091E2"/><path stroke="#BFC9D1" d="M88.5-2e-8V96"/><g clip-path="url(#clip0_1202_8717)"><path d="M144.217 68.4303c-1.007 0-1.959-.4483-2.603-1.2608l-9.798-12.1877c-.644-.8125-.896-1.8492-.644-2.8578l3.499-15.2137c.224-1.0086.896-1.8211 1.82-2.2694l14.165-6.7803c.448-.2241.952-.3362 1.456-.3362s1.008.1121 1.456.3362l14.165 6.7523c.924.4483 1.596 1.2608 1.82 2.2694l3.499 15.2137c.224 1.0086 0 2.0452-.644 2.8578l-9.798 12.1877c-.644.7845-1.596 1.2608-2.603 1.2608l-15.79.028Z" fill="#326DE6"/><path d="M152.084 28.2249c.392 0 .784.084 1.148.2521l14.165 6.7523c.728.3642 1.288 1.0366 1.456 1.8211l3.499 15.2137c.196.8125 0 1.653-.532 2.2974l-9.798 12.1877c-.504.6444-1.288 1.0087-2.1 1.0087h-15.705c-.811 0-1.595-.3643-2.099-1.0087l-9.798-12.1877c-.504-.6444-.7-1.4849-.532-2.2974l3.499-15.2137c.196-.8125.728-1.4849 1.456-1.8211l14.165-6.7803c.364-.1401.784-.2241 1.176-.2241Zm0-1.3169c-.588 0-1.176.1401-1.736.3923l-14.165 6.7803c-1.12.5323-1.904 1.5129-2.184 2.7177L130.5 52.0119c-.28 1.2048 0 2.4375.784 3.4182l9.798 12.1877c.756.9526 1.904 1.4849 3.107 1.4849h15.705c1.204 0 2.352-.5323 3.108-1.4849l9.798-12.1877c.784-.9526 1.064-2.2134.784-3.4182l-3.499-15.2136c-.28-1.2048-1.064-2.1854-2.184-2.7177l-14.109-6.7803c-.532-.2522-1.12-.3923-1.708-.3923Z" fill="#fff"/><path d="M166.277 51.0593c-.028 0-.028 0 0 0h-.028c-.028 0-.056 0-.056-.028-.056 0-.112-.028-.168-.028-.196-.028-.364-.0561-.531-.0561-.084 0-.168 0-.28-.028h-.028c-.588-.056-1.064-.1121-1.512-.2521-.196-.0841-.252-.1962-.308-.3082 0-.0281-.028-.0281-.028-.0561l-.364-.112c.168-1.2889.112-2.6337-.196-3.9505-.308-1.3169-.84-2.5497-1.568-3.6704l.28-.2521v-.0561c0-.14.028-.2801.14-.4202.336-.3082.756-.5604 1.26-.8686.084-.056.168-.084.252-.1401.168-.084.308-.1681.476-.2801.028-.0281.084-.0561.14-.1121.028-.028.056-.028.056-.056.392-.3363.476-.8966.196-1.2608-.14-.1962-.392-.3082-.644-.3082-.224 0-.42.084-.616.2241l-.056.056c-.056.0281-.084.0841-.14.1121-.14.1401-.252.2522-.364.3923-.056.056-.112.14-.196.1961-.392.4203-.756.7565-1.12 1.0086-.084.0561-.168.0841-.252.0841-.056 0-.112 0-.168-.028h-.056l-.335.2241c-.364-.3922-.756-.7285-1.148-1.0647-1.68-1.3168-3.724-2.1293-5.851-2.3254l-.028-.3643-.056-.056c-.084-.0841-.196-.1681-.224-.3642-.028-.4483.028-.9526.084-1.513v-.028c0-.0841.028-.1961.056-.2802.028-.1681.056-.3362.084-.5323v-.2522c0-.5043-.392-.9246-.868-.9246-.224 0-.448.1121-.616.2802-.168.1681-.252.3923-.252.6444V34.5289c0 .1961.028.3642.084.5323.028.084.028.1681.056.2802v.028c.056.5603.14 1.0647.084 1.5129-.028.1962-.14.2802-.224.3643l-.056.056-.028.3642c-.504.0561-1.008.1121-1.512.2242-2.155.4763-4.059 1.569-5.543 3.138l-.279-.1962h-.056c-.056 0-.112.0281-.168.0281-.084 0-.168-.0281-.252-.0841-.364-.2522-.728-.6164-1.12-1.0367-.056-.056-.112-.14-.196-.1961-.112-.1401-.224-.2521-.364-.3922-.028-.028-.084-.0561-.14-.1121-.028-.028-.056-.028-.056-.056-.168-.1401-.392-.2242-.616-.2242-.252 0-.504.1121-.644.3082-.28.3643-.196.9246.196 1.2608.028 0 .028.028.056.028.056.0281.084.0841.14.1121.168.1121.308.1961.476.2802.084.028.168.084.252.1401.504.3082.924.5603 1.26.8685.14.1401.14.2802.14.4203v.056l.28.2522c-.056.084-.112.1401-.14.2241-1.4 2.2134-1.932 4.8191-1.568 7.3967l-.364.1121c0 .028-.028.028-.028.056-.056.1121-.14.2242-.308.3082-.42.1401-.924.1961-1.512.2522h-.028c-.084 0-.196 0-.28.028-.168 0-.335.028-.531.056-.056 0-.112.028-.168.028-.028 0-.056 0-.084.0281-.504.112-.812.5883-.728 1.0366.084.3923.448.6444.896.6444.084 0 .14 0 .224-.028.028 0 .056 0 .056-.028.056 0 .111-.028.167-.028.196-.0561.336-.1121.504-.1962.084-.028.168-.084.252-.112h.028c.532-.1962 1.008-.3643 1.456-.4203h.056c.168 0 .28.0841.364.1401.028 0 .028.028.056.028l.392-.056c.672 2.0733 1.96 3.9225 3.667 5.2673.392.3082.784.5604 1.204.8125l-.168.3643c0 .028.028.028.028.056.056.1121.112.2521.056.4483-.168.4202-.42.8405-.728 1.3168v.028c-.056.0841-.112.1401-.168.2242-.112.14-.196.2801-.308.4482-.028.0281-.056.0841-.084.1401 0 .028-.028.0561-.028.0561-.224.4763-.056 1.0086.364 1.2047.112.0561.224.0841.336.0841.336 0 .672-.2242.84-.5324 0-.028.028-.056.028-.056.028-.056.056-.1121.084-.1401.084-.1961.112-.3362.168-.5043.028-.0841.056-.1681.084-.2522.196-.5603.336-1.0086.588-1.4008.112-.1681.252-.1962.364-.2522.028 0 .028 0 .056-.028l.196-.3642c1.231.4763 2.575.7284 3.919.7284.812 0 1.652-.084 2.436-.2802.503-.112.979-.2521 1.455-.4202l.168.3082c.028 0 .028 0 .056.028.14.028.252.084.364.2521.224.3923.392.8686.588 1.4009v.028c.028.0841.056.1681.084.2522.056.1681.084.3362.168.5043.028.0561.056.0841.084.1401 0 .028.028.056.028.056.168.3363.504.5324.84.5324.112 0 .224-.028.336-.0841.196-.112.364-.2801.42-.5043.056-.2241.056-.4763-.056-.7004 0-.0281-.028-.0281-.028-.0561-.028-.056-.056-.112-.084-.1401-.084-.1681-.196-.3082-.308-.4482-.056-.0841-.112-.1401-.168-.2242v-.028c-.308-.4763-.588-.8966-.728-1.3168-.056-.1962 0-.3082.028-.4483 0-.028.028-.028.028-.056l-.14-.3363c1.484-.8685 2.743-2.1013 3.695-3.6142.504-.7845.896-1.6531 1.176-2.5216l.336.056c.028 0 .028-.028.056-.028.112-.0561.196-.1401.364-.1401h.056c.448.056.924.2241 1.456.4203h.028c.084.028.168.084.252.112.168.0841.308.1401.503.1961.056 0 .112.0281.168.0281.028 0 .056 0 .084.028.084.028.14.028.224.028.42 0 .784-.2802.896-.6444 0-.3362-.308-.7845-.812-.9246Zm-12.961-1.3729-1.232.5884-1.232-.5884-.308-1.3168.84-1.0647h1.372l.84 1.0647-.28 1.3168Zm7.306-2.9138c.224.9526.28 1.9052.196 2.8298l-4.283-1.2328c-.392-.1121-.616-.5043-.532-.8966.028-.112.084-.2241.168-.3082l3.388-3.0539c.476.7845.839 1.6811 1.063 2.6617Zm-2.407-4.3428-3.667 2.6057c-.308.1961-.728.1401-.98-.1681-.084-.0841-.112-.1961-.14-.3082l-.252-4.5669c1.931.2242 3.695 1.0927 5.039 2.4375Zm-8.119-2.2974c.308-.056.588-.1121.896-.1681l-.252 4.4828c-.028.3923-.336.7285-.756.7285-.112 0-.252-.028-.336-.0841l-3.723-2.6617c1.148-1.1487 2.576-1.9332 4.171-2.2974Zm-5.515 3.9785 3.332 2.9699c.308.2522.336.7285.084 1.0366-.084.1121-.196.1962-.336.2242l-4.339 1.2608c-.168-1.9052.252-3.8384 1.259-5.4915Zm-.755 7.5928 4.451-.7565c.364-.028.7.2242.784.5884.028.1681.028.3082-.028.4483l-1.708 4.1186c-1.568-1.0086-2.828-2.5496-3.499-4.3988Zm10.218 5.5755c-.644.1401-1.288.2242-1.96.2242-.98 0-1.932-.1681-2.827-.4483l2.211-4.0065c.224-.2522.588-.3643.896-.1962.14.0841.252.1962.336.3082l2.155 3.8945c-.251.0841-.531.1401-.811.2241Zm5.459-3.8944c-.7 1.1207-1.624 2.0173-2.688 2.7177l-1.764-4.2307c-.084-.3362.056-.7004.392-.8685.112-.0561.252-.0841.392-.0841l4.479.7565c-.167.6164-.447 1.1767-.811 1.7091Z" fill="#fff"/></g><defs><clipPath id="clip0_1202_8717"><path fill="#fff" d="M130.304 26.88h43.392v42.24h-43.392z"/></clipPath></defs></svg>