<?xml version="1.0" encoding="UTF-8"?>
<svg width="64px" height="64px" viewBox="0 0 64 64" version="1.1" xmlns="http://www.w3.org/2000/svg" xmlns:xlink="http://www.w3.org/1999/xlink">
    <title>call</title>
    <defs>
        <filter color-interpolation-filters="auto" id="filter-1">
            <feColorMatrix in="SourceGraphic" type="matrix" values="0 0 0 0 0.000000 0 0 0 0 0.000000 0 0 0 0 0.000000 0 0 0 1.000000 0"></feColorMatrix>
        </filter>
    </defs>
    <g id="call" stroke="none" stroke-width="1" fill="none" fill-rule="evenodd">
        <g filter="url(#filter-1)" id="Group-13">
            <g transform="translate(4.000000, 2.000000)">
                <path d="M28.1920468,0 L28.192,0.001 L28.5683167,0.00479275087 C34.2921401,0.126052805 39.6275491,2.54234469 43.6662154,6.57656997 C47.5236432,10.429756 49.8310803,15.4317744 49.8888784,20.133343 L49.8899906,20.3140214 L49.8899196,25.2470468 C53.4379325,25.5762389 56.3076923,28.4041714 56.3076923,31.2758381 L56.3076923,38.7798733 L56.2684215,38.8903743 C55.0836401,42.2241404 52.8592262,44.0245571 49.6898755,44.1899904 C48.6200243,51.3986643 43.2435675,56.0056538 33.1606256,57.5126776 L32.8150847,57.562849 L32.6219939,56.2093029 C43.4427273,54.68387 48.4149173,49.6753088 48.513279,41.6106852 L48.5147688,41.3653676 L48.514,22.025 L44.360919,22.0253165 L44.3150314,21.3907854 C43.911322,15.8083075 41.6101636,11.6742258 37.9136132,8.93912365 C35.0330615,6.8077844 31.4043001,5.66309764 28.2912941,5.62143275 L28.154,5.62 L28.0163982,5.62143275 C25.0331008,5.66136161 21.5761322,6.71430881 18.7579536,8.67785347 L18.3940792,8.93912365 C14.6975287,11.6742258 12.3963703,15.8083075 11.9926609,21.3907854 L11.9926609,21.3907854 L11.9467734,22.0253165 L7.79304676,22.025 L7.79292349,44.2025316 L7.1053126,44.2025316 C3.67583986,44.2025316 1.28389843,42.3925371 0.0392707628,38.8903743 L0.0392707628,38.8903743 L0,38.7798733 L0,31.2758381 C-3.55271368e-15,28.4042194 2.86966401,25.5763333 6.41759506,25.2470633 L6.41759506,25.2470633 L6.4177017,20.3140214 L6.41881394,20.133343 C6.47661199,15.4317744 8.78404914,10.429756 12.6414769,6.57656997 C16.7864239,2.43618087 22.2972612,0 28.1920468,0 L28.115,0.001 L28.1156455,0 L28.1920468,0 Z M49.8899906,26.6214684 L49.8899906,42.8050633 L49.9499701,42.7999609 C52.2843262,42.5710126 53.9006354,41.2313453 54.8734027,38.7009949 L54.9324705,38.5436962 L54.9324705,31.2758381 C54.9324705,29.1817728 52.7245721,26.9702029 49.9442628,26.6278746 L49.8899906,26.6214684 Z M6.4177017,26.6214684 L6.36342951,26.6278746 C3.58312025,26.9702029 1.37522179,29.1817728 1.37522179,31.2758381 L1.37522179,31.2758381 L1.37522179,38.5436962 L1.43428956,38.7009949 C2.40705694,41.2313453 4.02336615,42.5710126 6.35772217,42.7999609 L6.35772217,42.7999609 L6.4177017,42.8050633 L6.4177017,26.6214684 Z M28.1920468,4.25316456 L28.192,4.254 L28.5148573,4.25864554 C31.8610769,4.34993813 35.677285,5.58024598 38.7347223,7.84246408 C42.5637705,10.6756021 45.0180069,14.8965138 45.6129738,20.4678115 L45.6323039,20.6582278 L48.514,20.658 L48.5147688,20.3140214 C48.5147688,15.9397017 46.3526731,11.1981162 42.6914405,7.54090958 C38.8434869,3.69718728 33.7559936,1.42233938 28.3148673,1.36808172 L28.153,1.367 L27.992825,1.36808172 C22.7028411,1.42083222 17.7471168,3.57252026 13.9397649,7.22424501 L13.6162518,7.54090958 C9.95501919,11.1981162 7.79292349,15.9397017 7.79292349,20.3140214 L7.79292349,20.3140214 L7.79304676,20.658 L10.6753884,20.6582278 L10.6947185,20.4678115 C11.2896854,14.8965138 13.7439218,10.6756021 17.57297,7.84246408 C20.7527048,5.48975725 24.7531261,4.25316456 28.1920468,4.25316456 L28.115,4.254 L28.1156455,4.25316456 L28.1920468,4.25316456 Z" id="Combined-Shape" fill="#000000" fill-rule="nonzero"></path>
                <path d="M31.171694,54.9873418 L24.7539923,54.9873418 C23.3615499,54.9873418 22.2327523,56.1094635 22.2327523,57.4936709 C22.2327523,58.8778782 23.3615499,60 24.7539923,60 L31.171694,60 C32.5641364,60 33.6929339,58.8778782 33.6929339,57.4936709 C33.6929339,56.1094635 32.5641364,54.9873418 31.171694,54.9873418 Z M24.7539923,56.3544304 L31.171694,56.3544304 C31.8046223,56.3544304 32.3177121,56.8644857 32.3177121,57.4936709 C32.3177121,58.122856 31.8046223,58.6329114 31.171694,58.6329114 L24.7539923,58.6329114 C24.1210639,58.6329114 23.6079741,58.122856 23.6079741,57.4936709 C23.6079741,56.8644857 24.1210639,56.3544304 24.7539923,56.3544304 Z" id="Rectangle-Copy" fill="#14B2E2" fill-rule="nonzero"></path>
            </g>
        </g>
    </g>
</svg>