<?xml version="1.0" encoding="UTF-8"?>
<svg width="64px" height="64px" viewBox="0 0 64 64" version="1.1" xmlns="http://www.w3.org/2000/svg" xmlns:xlink="http://www.w3.org/1999/xlink">
    <title>demo</title>
    <g id="demo" stroke="none" stroke-width="1" fill="none" fill-rule="evenodd">
        <g id="Icon-list-Dashboards" transform="translate(1.000000, 8.000000)" fill-rule="nonzero">
            <g id="Analytics">
                <g id="Group">
                    <path d="M57.3731343,0 L4.62686567,0 C2.08208955,0 0,2.08018868 0,4.62264151 L0,44.3773585 C0,46.9211321 2.08208955,49 4.62686567,49 L57.3731343,49 C59.9179104,49 62,46.9211321 62,44.3773585 L62,4.62264151 C62,2.08018868 59.9179104,0 57.3731343,0 Z M4.62686567,1.295 L57.3731343,1.295 C59.21,1.295 60.7038166,2.78877358 60.7038166,4.62264151 L60.7038166,10.139434 L1.29618337,10.139434 L1.29618337,4.62264151 C1.29618337,2.78877358 2.78933902,1.295 4.62686567,1.295 Z M57.3731343,47.7063208 L4.62686567,47.7063208 C2.79,47.7063208 1.29618337,46.2125472 1.29618337,44.3773585 L1.29618337,11.4337736 L60.7044776,11.4337736 L60.7044776,44.3773585 C60.7038166,46.2125472 59.210661,47.7063208 57.3731343,47.7063208 Z" id="Shape" fill="#000000"></path>
                    <ellipse id="Oval" fill="#333333" cx="6.89865672" cy="6.00943396" rx="1" ry="1"></ellipse>
                    <ellipse id="Oval" fill="#333333" cx="11.5255224" cy="6.00943396" rx="1" ry="1"></ellipse>
                </g>
                <path d="M46.6897015,18.490566 C44.3901493,18.490566 42.5255224,20.3534906 42.5255224,22.6516038 C42.5255224,23.8026415 42.9934968,24.8440566 43.7503198,25.5975472 L38.9529211,30.3892453 C38.2655011,29.8886792 37.4253945,29.585566 36.510597,29.585566 C35.3466098,29.585566 34.2976333,30.0643396 33.5421322,30.8330189 L27.2661194,26.3536792 C27.5463753,25.7936792 27.7202132,25.1709434 27.7202132,24.5006604 C27.7202132,22.2025472 25.8562473,20.340283 23.5560341,20.340283 C21.2558209,20.340283 19.391855,22.2025472 19.391855,24.5006604 C19.391855,25.6583019 19.8664392,26.7016981 20.6285501,27.4565094 L15.7683582,33.1225472 C15.0908529,32.6437736 14.2685928,32.3591509 13.3762687,32.3591509 C11.0767164,32.3591509 9.21208955,34.2214151 9.21208955,36.5201887 C9.21208955,38.8176415 11.0760554,40.6799057 13.3762687,40.6799057 C15.6764819,40.6799057 17.5404478,38.8176415 17.5404478,36.5201887 C17.5404478,35.5811321 17.2192111,34.7259434 16.6950533,34.030566 L21.6940512,28.204717 C22.2572068,28.4873585 22.8831557,28.6610377 23.5553731,28.6610377 C24.7186994,28.6610377 25.7676759,28.1822642 26.522516,27.4135849 L32.7998507,31.8929245 C32.5202559,32.4529245 32.3464179,33.0756604 32.3464179,33.745283 C32.3464179,36.0433962 34.2103838,37.9063208 36.510597,37.9063208 C38.8108102,37.9063208 40.6747761,36.0440566 40.6747761,33.745283 C40.6747761,32.8293396 40.3707249,31.9926415 39.8697015,31.3051887 L44.8263966,26.3536792 C45.3895522,26.6363208 46.0155011,26.8113208 46.6897015,26.8113208 C48.9892537,26.8113208 50.8538806,24.949717 50.8538806,22.6516038 C50.8538806,20.3534906 48.9899147,18.490566 46.6897015,18.490566 Z M13.3762687,39.3842453 C11.7945416,39.3842453 10.5082729,38.0998113 10.5082729,36.5195283 C10.5082729,34.9392453 11.7945416,33.6534906 13.3762687,33.6534906 C14.9579957,33.6534906 16.2449254,34.9392453 16.2449254,36.5195283 C16.2449254,38.0998113 14.9573348,39.3842453 13.3762687,39.3842453 Z M23.5553731,27.3660377 C21.9736461,27.3660377 20.6867164,26.080283 20.6867164,24.5006604 C20.6867164,22.9203774 21.9736461,21.6346226 23.5553731,21.6346226 C25.1371002,21.6346226 26.4233689,22.9203774 26.4233689,24.5006604 C26.4233689,26.080283 25.1371002,27.3660377 23.5553731,27.3660377 Z M36.510597,36.6113208 C34.9288699,36.6113208 33.6426013,35.325566 33.6426013,33.745283 C33.6426013,32.165 34.9288699,30.8792453 36.510597,30.8792453 C38.0923241,30.8792453 39.3792537,32.165 39.3792537,33.745283 C39.3792537,35.325566 38.0916631,36.6113208 36.510597,36.6113208 Z M46.6897015,25.5163208 C45.1079744,25.5163208 43.8210448,24.2312264 43.8210448,22.6516038 C43.8210448,21.0719811 45.1079744,19.785566 46.6897015,19.785566 C48.2714286,19.785566 49.5576972,21.0713208 49.5576972,22.6516038 C49.5576972,24.2318868 48.2714286,25.5163208 46.6897015,25.5163208 Z" id="Shape" fill="#000000"></path>
            </g>
        </g>
    </g>
</svg>