<?xml version="1.0" encoding="UTF-8"?>
<svg width="52px" height="11px" viewBox="0 0 52 11" version="1.1" xmlns="http://www.w3.org/2000/svg" xmlns:xlink="http://www.w3.org/1999/xlink">
    <title>Line Copy 2</title>
    <g id="get-a-demo-popup" stroke="none" stroke-width="1" fill="none" fill-rule="evenodd" opacity="0.5">
        <g id="get-a-demo-popup-thanks" transform="translate(-719.000000, -477.000000)" fill="#000000" fill-rule="nonzero">
            <g id="Group-19" transform="translate(507.000000, 270.000000)">
                <g id="Group-18" transform="translate(93.000000, 161.750000)">
                    <path id="Line-Copy-2" d="M162.662848,46.0271708 L162.745131,46.0642122 L170.745131,50.5642122 C171.056638,50.7394349 171.082597,51.1651608 170.823007,51.382134 L170.745131,51.4357878 L162.745131,55.9357878 C162.504452,56.0711697 162.199594,55.9858096 162.064212,55.7451306 C161.943873,55.5311938 161.997947,55.2665479 162.180485,55.1152959 L162.254869,55.0642122 L168.591,51.5 L120,51.5 C119.723858,51.5 119.5,51.2761424 119.5,51 C119.5,50.7545401 119.676875,50.5503916 119.910124,50.5080557 L120,50.5 L168.591,50.5 L162.254869,46.9357878 C162.040933,46.8154483 161.949717,46.5612021 162.027171,46.3371522 L162.064212,46.2548694 C162.184552,46.0409325 162.438798,45.9497168 162.662848,46.0271708 Z"></path>
                </g>
            </g>
        </g>
    </g>
</svg>