<?xml version="1.0" encoding="UTF-8"?>
<svg width="64px" height="64px" viewBox="0 0 64 64" version="1.1" xmlns="http://www.w3.org/2000/svg" xmlns:xlink="http://www.w3.org/1999/xlink">
    <title>request</title>
    <g id="request" stroke="none" stroke-width="1" fill="none" fill-rule="evenodd">
        <g id="Group-3" transform="translate(5.000000, 5.000000)">
            <path d="M41.508588,0 C42.6839271,0 43.7555739,0.462207925 44.5484715,1.2128348 C45.2886034,1.91350906 45.7857671,2.86543086 45.8980891,3.93095142 L45.9171135,4.17879468 L45.922075,18 L49.2735455,18 C50.4485015,18 51.5200795,18.4624307 52.3130351,19.2131315 C53.0533181,19.9139664 53.5506725,20.8659799 53.6630378,21.931158 L53.6820695,22.1789143 L53.6870685,49.8142857 C53.6870685,50.9825302 53.2217892,52.0475056 52.4661504,52.8354294 C51.7610282,53.5706782 50.8031039,54.0645727 49.7310831,54.1761408 L49.4817314,54.1950363 L4.41352296,54.2 C3.23787561,54.2 2.1662202,53.73793 1.37339468,52.987381 C0.63333313,52.2867824 0.136303722,51.3348822 0.024014575,50.2691377 L0.00499590433,50.0212384 L0,22.3857143 C0,21.2180169 0.465268307,20.1527686 1.22116263,19.3645595 C1.92608537,18.6295012 2.88372286,18.1354865 3.95575108,18.0238729 L4.20510985,18.0049684 L7.76434133,18.0001357 L7.76434133,4.38571428 C7.76434133,3.2177017 8.22967394,2.15267522 8.98539523,1.36466574 C9.69050796,0.62942707 10.6483836,0.135455095 11.7203368,0.023864779 L11.9696726,0.00496523836 L41.508588,0 Z M35.1497471,34.229097 L29.960291,38.4490144 L29.7527645,38.6067154 C28.9065339,39.2112506 27.8721986,39.5012598 26.8438985,39.5018367 C25.8172212,39.5012608 24.7828688,39.2132761 23.7324392,38.4524152 L23.7324392,38.4524152 L18.5375213,34.229097 L2.80394988,52.3308918 L2.94467223,52.4144117 C3.3288656,52.6274752 3.78854879,52.7625086 4.42018956,52.8007954 L4.42018956,52.8007954 L49.2741617,52.8007954 L49.4799461,52.7933138 C49.9568625,52.7590309 50.4146685,52.6024108 50.9293722,52.2905964 L50.9293722,52.2905964 L35.1497471,34.229097 Z M1.93267012,20.7178528 C1.64329628,21.1413226 1.45559814,21.6505393 1.40757746,22.3921758 L1.40757746,22.3921758 L1.40778643,49.8142857 L1.41360276,49.9960423 C1.44099524,50.4180163 1.56688221,50.8290375 1.82795491,51.3114108 L1.82795491,51.3114108 L17.4480871,33.3419574 L1.93267012,20.7178528 Z M51.7279595,20.7531349 L36.2392098,33.3424517 L51.8906993,51.2604463 L51.9664913,51.1168586 C52.1349006,50.7737097 52.2436137,50.3692361 52.2794857,49.8079081 L52.2794857,49.8079081 L52.2792821,22.3863266 L52.2720624,22.1818721 C52.2336951,21.6420393 52.0435115,21.1475232 51.7279595,20.7531349 L51.7279595,20.7531349 Z M41.5092042,1.4 L12.1778643,1.4 L11.9598286,1.40779249 C11.2397141,1.45949857 10.5892878,1.76607783 10.0979097,2.25438494 C9.56460916,2.78435252 9.21895683,3.52791152 9.17260008,4.39107711 L9.17260008,4.39107711 L9.17260008,24.8067066 L24.6182926,37.3638359 L24.784524,37.4899068 C25.3560255,37.8912476 26.0961039,38.1028506 26.8430123,38.101262 C27.5920266,38.1028554 28.3333819,37.8892571 29.0737069,37.3600749 L29.0737069,37.3600749 L44.5143245,24.8067074 L44.5143245,4.38571428 L44.5073763,4.18167769 C44.4566989,3.439934 44.131855,2.77150144 43.6331366,2.27589984 C43.0889066,1.73507105 42.3375958,1.4 41.5092042,1.4 L41.5092042,1.4 Z M7.76434133,19.4012245 L4.41352296,19.4012245 L4.21621424,19.408158 C3.82365486,19.4361499 3.43914178,19.5504381 2.9852385,19.7788686 L2.9852385,19.7788686 L7.76434133,23.6627314 L7.76434133,19.4012245 Z M49.2735455,19.4012245 L45.9227271,19.4012245 L45.9227271,23.6626668 L50.7050524,19.7742912 L50.5190612,19.6800058 C50.1400779,19.5035346 49.7199213,19.4012245 49.2735455,19.4012245 L49.2735455,19.4012245 Z" id="Combined-Shape" fill="#000000" fill-rule="nonzero"></path>
            <line x1="14.8435343" y1="6.85" x2="38.8435343" y2="6.85" id="Line-2" stroke="#000000" stroke-width="1.5" stroke-linecap="round"></line>
            <line x1="14.8435343" y1="13.85" x2="38.8435343" y2="13.85" id="Line-2-Copy" stroke="#000000" stroke-width="1.5" stroke-linecap="round"></line>
            <line x1="14.8435343" y1="20.85" x2="26.8435343" y2="20.85" id="Line-2-Copy-2" stroke="#000000" stroke-width="1.5" stroke-linecap="round"></line>
        </g>
    </g>
</svg>