<svg width="104" height="26" viewBox="0 0 104 26" fill="none" xmlns="http://www.w3.org/2000/svg">
<path fill-rule="evenodd" clip-rule="evenodd" d="M72.0273 0.0651855C73.9457 0.0651855 75.864 0.0651855 77.7824 0.0651855C77.7824 8.58905 77.7824 17.1193 77.7824 25.6432C75.9696 25.6432 74.1599 25.6432 72.3471 25.6432C72.3471 20.3133 72.3471 14.9835 72.3471 9.65693C72.3471 6.49485 72.5197 2.7189 72.0273 0.0651855Z" fill="black"/>
<path fill-rule="evenodd" clip-rule="evenodd" d="M64.0333 25.6432C66.4856 25.6432 70.4278 25.6432 70.4278 25.6432C70.4278 25.6432 62.4666 15.0635 61.7952 14.1331C64.2507 13.6184 66.2681 12.5058 67.3808 10.4275C67.9243 9.41722 68.4551 6.95214 67.1698 4.80039C64.9445 1.0692 62.0542 -0.164934 48.0918 0.017309C48.6002 0.48091 48.6865 1.66069 48.6865 1.66069V25.6401H54.1218C54.1218 25.6401 54.1442 17.113 54.1218 15.0891C54.7613 15.0891 55.4007 15.0891 56.0402 15.0891C56.0402 15.0923 64.0333 25.429 64.0333 25.6432ZM61.8527 10.6769C60.7913 12.266 57.9617 13.174 54.1218 13.174C54.1218 8.263 54.1218 1.66389 54.1218 1.66389C54.1218 1.66389 59.6946 1.56797 61.8144 4.02026C64.1004 6.66758 62.6233 9.52591 61.8527 10.6769Z" fill="black"/>
<path fill-rule="evenodd" clip-rule="evenodd" d="M40.9688 25.6432C43.4211 25.6432 47.3633 25.6432 47.3633 25.6432C47.3633 25.6432 39.4022 15.0635 38.7307 14.1331C41.1862 13.6184 43.2037 12.5058 44.3163 10.4275C44.8599 9.41722 45.3906 6.95214 44.1053 4.80039C41.88 1.0692 38.9897 -0.164934 25.0273 0.017309C25.5357 0.48091 25.622 1.66069 25.622 1.66069V25.6401H31.0574C31.0574 25.6401 31.0797 17.113 31.0574 15.0891C31.6968 15.0891 32.3363 15.0891 32.9757 15.0891C32.9757 15.0923 40.9688 25.429 40.9688 25.6432ZM38.7883 10.6769C37.7268 12.266 34.8972 13.174 31.0574 13.174C31.0574 8.263 31.0574 1.66389 31.0574 1.66389C31.0574 1.66389 36.6302 1.56797 38.7499 4.02026C41.036 6.66758 39.5588 9.52591 38.7883 10.6769Z" fill="black"/>
<path fill-rule="evenodd" clip-rule="evenodd" d="M80.0195 25.6432H82.5773L85.9089 16.3711C85.9089 16.3711 91.3921 16.3711 94.2697 16.3711C95.5486 19.4629 98.2438 25.6432 98.2438 25.6432H103.999C103.999 25.6432 97.3902 8.58905 94.0874 0.0651855C92.0636 0.0651855 90.0365 0.0651855 88.0127 0.0651855C88.3356 0.100355 88.505 1.76612 88.3324 2.30326M86.7338 14.1331L89.736 5.18078H90.2507L93.448 14.1331H86.7338Z" fill="black"/>
<path fill-rule="evenodd" clip-rule="evenodd" d="M0 25.6432H2.5578L5.88933 16.3711C5.88933 16.3711 11.3726 16.3711 14.2501 16.3711C15.529 19.4629 18.2243 25.6432 18.2243 25.6432H23.9794C23.9794 25.6432 17.3706 8.58905 14.0679 0.0651855C12.044 0.0651855 10.017 0.0651855 7.99312 0.0651855C8.31604 0.100355 8.4855 1.76612 8.31284 2.30326M6.71422 14.1331L9.71644 5.18078H10.2312L13.4284 14.1331H6.71422Z" fill="black"/>
</svg>
