<svg width="81" height="81" viewBox="0 0 81 81" fill="none" xmlns="http://www.w3.org/2000/svg">
<path d="M26.7842 35.5698C26.7842 36.3573 26.8693 36.9959 27.0183 37.4642C27.1886 37.9325 27.4014 38.4433 27.6994 38.9968C27.8059 39.1671 27.8484 39.3373 27.8484 39.4863C27.8484 39.6992 27.7207 39.9121 27.444 40.1249L26.103 41.0189C25.9114 41.1466 25.7199 41.2105 25.5496 41.2105C25.3367 41.2105 25.1239 41.1041 24.911 40.9125C24.613 40.5932 24.3576 40.2526 24.1447 39.9121C23.9319 39.5502 23.719 39.1458 23.4849 38.6562C21.8246 40.6145 19.7386 41.5936 17.2268 41.5936C15.4388 41.5936 14.0127 41.0828 12.9697 40.0611C11.9267 39.0393 11.3945 37.6771 11.3945 35.9742C11.3945 34.1649 12.0331 32.6962 13.3315 31.5893C14.63 30.4825 16.3541 29.929 18.5466 29.929C19.2703 29.929 20.0153 29.9929 20.8029 30.0993C21.5904 30.2058 22.3993 30.376 23.2507 30.5676V29.0138C23.2507 27.396 22.9101 26.2679 22.2503 25.608C21.5691 24.9482 20.4197 24.6289 18.7807 24.6289C18.0357 24.6289 17.2694 24.714 16.4818 24.9056C15.6943 25.0972 14.928 25.3313 14.183 25.6293C13.8424 25.7783 13.587 25.8635 13.438 25.906C13.289 25.9486 13.1825 25.9699 13.0974 25.9699C12.7994 25.9699 12.6504 25.757 12.6504 25.31V24.267C12.6504 23.9265 12.693 23.671 12.7994 23.522C12.9058 23.373 13.0974 23.224 13.3954 23.075C14.1404 22.6919 15.0344 22.3726 16.0774 22.1172C17.1204 21.8405 18.2273 21.7127 19.398 21.7127C21.931 21.7127 23.7829 22.2875 24.9749 23.4369C26.1456 24.5863 26.7416 26.3317 26.7416 28.6732V35.5698H26.7842ZM18.1421 38.8052C18.8446 38.8052 19.5683 38.6775 20.3346 38.4221C21.1009 38.1666 21.782 37.6983 22.3567 37.0598C22.6973 36.6553 22.9527 36.2083 23.0804 35.6975C23.2081 35.1866 23.2933 34.5693 23.2933 33.8456V32.9516C22.676 32.8026 22.0161 32.6749 21.335 32.5898C20.6539 32.5046 19.994 32.462 19.3341 32.462C17.908 32.462 16.865 32.7388 16.1625 33.3135C15.4601 33.8882 15.1195 34.6971 15.1195 35.7613C15.1195 36.7618 15.375 37.5068 15.9071 38.0176C16.418 38.5498 17.163 38.8052 18.1421 38.8052ZM35.2346 41.1041C34.8515 41.1041 34.596 41.0402 34.4258 40.8912C34.2555 40.7635 34.1065 40.4655 33.9788 40.0611L28.9766 23.6072C28.8489 23.1815 28.785 22.9047 28.785 22.7557C28.785 22.4152 28.9553 22.2236 29.2959 22.2236H31.3819C31.7863 22.2236 32.063 22.2875 32.212 22.4365C32.3823 22.5642 32.51 22.8622 32.6378 23.2666L36.2138 37.3578L39.5343 23.2666C39.6408 22.8409 39.7685 22.5642 39.9388 22.4365C40.1091 22.3087 40.4071 22.2236 40.7902 22.2236H42.4931C42.8975 22.2236 43.1742 22.2875 43.3445 22.4365C43.5148 22.5642 43.6638 22.8622 43.7489 23.2666L47.1121 37.5281L50.7945 23.2666C50.9222 22.8409 51.0712 22.5642 51.2202 22.4365C51.3905 22.3087 51.6673 22.2236 52.0504 22.2236H54.03C54.3705 22.2236 54.5621 22.3939 54.5621 22.7557C54.5621 22.8622 54.5408 22.9686 54.5195 23.0963C54.4983 23.224 54.4557 23.3943 54.3705 23.6285L49.2407 40.0823C49.113 40.5081 48.964 40.7848 48.7937 40.9125C48.6234 41.0402 48.3467 41.1254 47.9848 41.1254H46.1542C45.7498 41.1254 45.4731 41.0615 45.3028 40.9125C45.1325 40.7635 44.9835 40.4868 44.8984 40.0611L41.5991 26.3317L38.3211 40.0398C38.2146 40.4655 38.0869 40.7422 37.9166 40.8912C37.7463 41.0402 37.4483 41.1041 37.0652 41.1041H35.2346ZM62.5869 41.6788C61.48 41.6788 60.3731 41.5511 59.3088 41.2956C58.2446 41.0402 57.4144 40.7635 56.861 40.4442C56.5204 40.2526 56.2863 40.0398 56.2011 39.8482C56.116 39.6566 56.0734 39.4438 56.0734 39.2522V38.1666C56.0734 37.7196 56.2437 37.5068 56.563 37.5068C56.6907 37.5068 56.8184 37.5281 56.9461 37.5706C57.0738 37.6132 57.2654 37.6983 57.4783 37.7835C58.202 38.1028 58.9896 38.3582 59.8197 38.5285C60.6711 38.6988 61.5013 38.7839 62.3527 38.7839C63.6937 38.7839 64.7367 38.5498 65.4604 38.0815C66.1842 37.6132 66.5673 36.9321 66.5673 36.0593C66.5673 35.4633 66.3757 34.9738 65.9926 34.5693C65.6094 34.1649 64.8857 33.8031 63.8427 33.4625L60.7563 32.5046C59.2024 32.015 58.053 31.2913 57.3506 30.3335C56.6481 29.3969 56.2863 28.3539 56.2863 27.247C56.2863 26.353 56.4778 25.5655 56.861 24.8843C57.2441 24.2032 57.755 23.6072 58.3936 23.1389C59.0321 22.6493 59.7559 22.2875 60.6073 22.032C61.4587 21.7766 62.3527 21.6702 63.2893 21.6702C63.7576 21.6702 64.2472 21.6915 64.7154 21.7553C65.205 21.8192 65.652 21.9043 66.099 21.9895C66.5247 22.0959 66.9292 22.2023 67.3123 22.33C67.6954 22.4577 67.9935 22.5855 68.2063 22.7132C68.5043 22.8835 68.7172 23.0537 68.8449 23.2453C68.9726 23.4156 69.0365 23.6497 69.0365 23.9477V24.9482C69.0365 25.3952 68.8662 25.6293 68.5469 25.6293C68.3766 25.6293 68.0999 25.5442 67.738 25.3739C66.5247 24.8205 65.1624 24.5437 63.6512 24.5437C62.4379 24.5437 61.48 24.7353 60.8201 25.1397C60.1603 25.5442 59.8197 26.1615 59.8197 27.0342C59.8197 27.6302 60.0326 28.141 60.4583 28.5455C60.884 28.9499 61.6716 29.3543 62.7997 29.7162L65.8223 30.674C67.3549 31.1636 68.4617 31.8448 69.1216 32.7175C69.7815 33.5902 70.1007 34.5906 70.1007 35.6975C70.1007 36.6128 69.9092 37.4429 69.5473 38.1666C69.1642 38.8903 68.6533 39.5289 67.9935 40.0398C67.3336 40.5719 66.546 40.9551 65.6307 41.2318C64.6729 41.5298 63.6724 41.6788 62.5869 41.6788Z" fill="#252F3E"/>
<path fill-rule="evenodd" clip-rule="evenodd" d="M66.6115 52.023C59.6085 57.1955 49.4339 59.9413 40.6855 59.9413C28.4249 59.9413 17.3776 55.4075 9.03353 47.8723C8.37367 47.2763 8.96967 46.4675 9.75725 46.9358C18.7824 52.172 29.9149 55.3436 41.4305 55.3436C49.1998 55.3436 57.7354 53.7259 65.5898 50.4053C66.7605 49.8732 67.761 51.1716 66.6115 52.023Z" fill="#FF9900"/>
<path fill-rule="evenodd" clip-rule="evenodd" d="M69.5265 48.703C68.6325 47.5536 63.609 48.1496 61.3315 48.4263C60.6503 48.5114 60.5439 47.9154 61.1612 47.4684C65.1629 44.6587 71.7402 45.4676 72.5065 46.4042C73.2728 47.362 72.2936 53.9393 68.5473 57.0896C67.9726 57.5792 67.4192 57.3238 67.6746 56.6852C68.526 54.5779 70.4205 49.8312 69.5265 48.703Z" fill="#FF9900"/>
</svg>
