<svg width="81" height="81" viewBox="0 0 81 81" fill="none" xmlns="http://www.w3.org/2000/svg">
<path fill-rule="evenodd" clip-rule="evenodd" d="M21.9698 49.2376C19.9074 50.178 15.8817 52.2733 16.2612 54.5502C16.7892 55.9525 18.4226 54.5502 19.033 53.8902C20.3496 52.6132 21.3544 51.0491 21.9698 49.3201V49.2376ZM34.3108 44.3045C32.9414 47.8847 28.9487 49.584 27.8433 48.9736C27.2824 48.6766 27.8433 47.5382 27.8433 46.7628C27.0349 47.0762 25.6985 47.6702 24.89 48.0002C26.7164 49.5676 27.7691 51.8543 27.7691 54.2614C27.7691 56.6686 26.7164 58.9553 24.89 60.5227C28.1898 65.4723 26.5399 69.729 21.9368 73.0452L21.7553 73.1607L21.6563 72.8307C21.0838 70.544 20.0015 68.4173 18.4885 66.6107C17.6801 65.6703 16.7562 64.8124 15.8488 63.9544C14.6608 62.8325 13.5059 61.6776 12.4335 60.4567C7.89638 55.7051 6.09802 47.3402 6.69198 40.8727C7.01205 37.5515 7.98712 34.3261 9.56275 31.386C10.8084 29.0399 12.3626 26.8703 14.1824 24.935C18.2625 20.5579 23.4233 17.3324 29.1467 15.5802C34.1739 13.8446 39.6762 14.1003 44.5235 16.2897C45.4161 16.7632 46.2674 17.3159 47.0643 17.9395L48.2357 19.045L48.3677 19.1769L70.4264 7.87534C72.2413 6.96791 73.6107 6.96791 74.2211 7.62786C74.8316 8.28781 73.9737 9.98717 72.6868 10.9276L53.7133 24.638C53.9393 25.9464 53.5499 27.2844 52.6573 28.2677C55.1816 29.1422 52.9543 32.8379 51.8489 34.1578C48.6812 37.903 42.8901 40.8397 37.726 42.9846C36.3401 43.5785 35.5482 43.826 34.3108 44.288V44.3045Z" fill="#383C42"/>
<path fill-rule="evenodd" clip-rule="evenodd" d="M51.6198 31.3534C53.0387 29.5715 52.0488 28.5486 51.0588 29.5385C49.0509 31.4523 46.2478 32.2872 43.5189 31.7823C39.6417 31.1389 39.4603 30.5449 40.1202 29.9675C44.6211 31.482 49.5806 29.7992 52.2302 25.8593C53.1872 24.4899 49.9864 23.401 48.1056 20.9097C39.0643 8.63465 10.7525 19.2763 8.04674 40.6091C7.15581 47.268 9.11421 53.9962 13.4418 59.1372C16.7416 62.8807 20.3383 64.4497 22.3676 70.3398C26.3273 66.941 25.6674 63.0969 22.8131 59.7311C24.8886 58.6785 26.2547 56.6096 26.4114 54.2865C26.5665 51.9652 25.4892 49.7346 23.572 48.413C21.9221 54.369 16.1311 58.7742 14.7782 54.5505C13.9038 50.2444 20.9982 47.3901 32.3493 43.0014C41.8526 39.4377 47.9901 36.5009 51.6198 31.2544" fill="#31D3DB"/>
<path fill-rule="evenodd" clip-rule="evenodd" d="M51.6165 31.3533C53.0354 29.5714 52.0455 28.5485 51.0555 29.5384C49.3133 31.2196 46.9391 32.0842 44.5221 31.9142C40.6119 31.6338 37.4936 30.8583 34.6228 31.1718C29.2921 31.9703 24.3606 34.4699 20.5659 38.2992C15.6163 43.3808 10.1388 53.9383 15.6163 55.9858C15.1989 55.6163 14.9201 55.1147 14.8244 54.5669C13.95 50.2608 21.0444 47.4049 32.3955 43.0179C41.8988 39.4541 48.0363 36.5174 51.666 31.2708" fill="white"/>
<path fill-rule="evenodd" clip-rule="evenodd" d="M27.2809 39.6848C30.2012 41.1202 29.6238 46.1358 29.1948 47.3897C34.7384 45.7398 33.0885 37.606 35.6623 35.0982C32.3625 34.9992 26.39 38.2494 27.2809 39.6848Z" fill="#31D3DB"/>
<path fill-rule="evenodd" clip-rule="evenodd" d="M36.6533 24.8028C37.1664 24.359 37.8973 24.2732 38.4979 24.5884C39.0984 24.9018 39.4466 25.5519 39.374 26.225C39.3014 26.8998 38.8246 27.4608 38.1712 27.6406C37.4288 27.8452 36.6418 27.5086 36.2788 26.8289C35.9158 26.1475 36.0709 25.3077 36.6533 24.8028Z" fill="#383C42"/>
<path fill-rule="evenodd" clip-rule="evenodd" d="M50.115 25.4795L72.3717 9.98723C72.9987 9.54177 73.8236 8.58484 73.4771 8.12288C73.1307 7.66091 72.1737 7.90839 71.3488 8.28786L47.2937 21.2888C46.5183 22.9387 48.0856 26.3209 50.1315 25.4795" fill="#31D3DB"/>
<path fill-rule="evenodd" clip-rule="evenodd" d="M48.1681 22.4271L71.4147 8.81569C72.0153 8.40653 72.7181 8.17719 73.4441 8.15575C73.0976 7.75978 72.1407 7.99076 71.3487 8.37023L47.2936 21.2887C46.8086 22.8412 47.4075 24.5291 48.762 25.4299C48.2654 24.506 48.0575 23.455 48.1681 22.4106" fill="white"/>
<path fill-rule="evenodd" clip-rule="evenodd" d="M13.9207 28.4992C14.2639 28.425 14.6202 28.5174 14.8826 28.7484C15.1482 28.9794 15.2851 29.3209 15.2571 29.6707C15.267 30.4873 14.678 31.1885 13.8712 31.3205C13.5346 31.3865 13.1848 31.2941 12.9258 31.0681C12.6684 30.8421 12.5282 30.5088 12.5513 30.1656C12.5777 29.3671 13.1403 28.689 13.9207 28.5157" fill="#21AAAD"/>
<path fill-rule="evenodd" clip-rule="evenodd" d="M18.4241 23.5324C18.7261 23.4681 19.0412 23.5522 19.2722 23.7568C19.5031 23.9614 19.6236 24.2633 19.5955 24.5719C19.5411 25.2714 19.0511 25.8604 18.3746 26.0402C18.0727 26.1046 17.7576 26.0204 17.5266 25.8159C17.2956 25.6113 17.1752 25.3093 17.2032 25.0008C17.256 24.3013 17.746 23.7123 18.4241 23.5324Z" fill="#21AAAD"/>
<path fill-rule="evenodd" clip-rule="evenodd" d="M32.085 16.9499C32.3902 16.9614 32.6707 17.1148 32.8456 17.3623C33.0205 17.6131 33.07 17.9299 32.9759 18.2203C32.7895 18.8951 32.1741 19.3603 31.4746 19.3587C31.166 19.3504 30.8806 19.2003 30.6991 18.9512C30.5176 18.702 30.4632 18.3836 30.5506 18.0883C30.7387 17.4069 31.3624 16.94 32.0685 16.9499" fill="#21AAAD"/>
<path fill-rule="evenodd" clip-rule="evenodd" d="M36.2762 16.2732C36.5319 16.3144 36.7547 16.4761 36.8751 16.7055C36.9956 16.9364 36.9989 17.2103 36.8867 17.4446C36.6375 17.9775 36.065 18.2794 35.4843 18.187C35.2417 18.1408 35.0322 17.9891 34.9134 17.7713C34.7946 17.5535 34.7798 17.2945 34.8738 17.0651C35.1081 16.5141 35.6839 16.1891 36.2762 16.2732Z" fill="#21AAAD"/>
<path fill-rule="evenodd" clip-rule="evenodd" d="M18.4715 26.651C18.6975 26.6031 18.9318 26.6642 19.105 26.8176C19.2766 26.971 19.3657 27.1971 19.3459 27.4264C19.3327 27.9527 18.9549 28.3982 18.4385 28.4988C18.2157 28.545 17.9848 28.4856 17.8132 28.3371C17.6416 28.187 17.5492 27.9659 17.5641 27.7399C17.5871 27.2136 17.9584 26.7681 18.4715 26.651Z" fill="#21AAAD"/>
<path fill-rule="evenodd" clip-rule="evenodd" d="M11.4457 32.4916C11.6784 32.4372 11.9226 32.4982 12.1007 32.655C12.2806 32.8117 12.3746 33.046 12.3532 33.2836C12.335 33.8297 11.9473 34.2916 11.4127 34.4055C11.1702 34.4533 10.9194 34.384 10.7379 34.2174C10.5548 34.0524 10.4624 33.8099 10.4888 33.564C10.5086 33.013 10.9046 32.5494 11.4457 32.4421" fill="#21AAAD"/>
<path fill-rule="evenodd" clip-rule="evenodd" d="M53.0511 18.1873L52.0117 18.7152C52.1338 20.21 52.9521 21.5612 54.2225 22.3614C53.4191 21.1207 53.0115 19.6655 53.0511 18.1873ZM58.5122 15.1845L57.6048 15.6795C57.7434 16.9169 58.4264 18.0305 59.4691 18.7152C58.8801 17.6329 58.5799 16.4169 58.5947 15.1845H58.5122ZM63.9898 12.2147L63.2968 12.5942C63.2968 13.4851 63.9403 14.8215 64.6662 15.003C64.1927 14.1533 63.9865 13.1816 64.0723 12.2147H63.9898ZM69.2694 9.37695L68.6589 9.70693C68.8074 10.4345 69.1968 11.0912 69.7643 11.5713C69.4492 10.8816 69.2809 10.1342 69.2694 9.37695Z" fill="#21AAAD"/>
</svg>
