<svg width="121" height="42" viewBox="0 0 121 42" fill="none" xmlns="http://www.w3.org/2000/svg">
<g clip-path="url(#clip0_1285_7482)">
<path d="M51.3238 21.7742C51.3238 27.4999 46.9164 31.719 41.5076 31.719C36.0988 31.719 31.6914 27.4999 31.6914 21.7742C31.6914 16.0082 36.0988 11.8293 41.5076 11.8293C46.9164 11.8293 51.3238 16.0082 51.3238 21.7742ZM47.0267 21.7742C47.0267 18.1962 44.4723 15.7481 41.5076 15.7481C38.5429 15.7481 35.9885 18.1962 35.9885 21.7742C35.9885 25.3163 38.5429 27.8003 41.5076 27.8003C44.4723 27.8003 47.0267 25.3118 47.0267 21.7742Z" fill="#EA4335"/>
<path d="M72.4995 21.7742C72.4995 27.4999 68.0922 31.719 62.6834 31.719C57.2745 31.719 52.8672 27.4999 52.8672 21.7742C52.8672 16.0126 57.2745 11.8293 62.6834 11.8293C68.0922 11.8293 72.4995 16.0082 72.4995 21.7742ZM68.2025 21.7742C68.2025 18.1962 65.6481 15.7481 62.6834 15.7481C59.7187 15.7481 57.1642 18.1962 57.1642 21.7742C57.1642 25.3163 59.7187 27.8003 62.6834 27.8003C65.6481 27.8003 68.2025 25.3118 68.2025 21.7742Z" fill="#FBBC05"/>
<path d="M92.794 12.4302V30.2842C92.794 37.6285 88.5322 40.6281 83.494 40.6281C78.7513 40.6281 75.8969 37.4043 74.8205 34.7679L78.5616 33.1852C79.2278 34.8038 80.8602 36.7139 83.4896 36.7139C86.7146 36.7139 88.7131 34.6917 88.7131 30.8851V29.4548H88.5631C87.6013 30.6609 85.7484 31.7145 83.4102 31.7145C78.5175 31.7145 74.0352 27.3833 74.0352 21.8101C74.0352 16.1965 78.5175 11.8293 83.4102 11.8293C85.744 11.8293 87.5969 12.883 88.5631 14.0533H88.7131V12.4346H92.794V12.4302ZM89.0175 21.8101C89.0175 18.3083 86.719 15.7481 83.794 15.7481C80.8293 15.7481 78.3455 18.3083 78.3455 21.8101C78.3455 25.2759 80.8293 27.8003 83.794 27.8003C86.719 27.8003 89.0175 25.2759 89.0175 21.8101Z" fill="#4285F4"/>
<path d="M99.5232 1.96533V31.1094H95.332V1.96533H99.5232Z" fill="#34A853"/>
<path d="M115.854 25.0474L119.189 27.3072C118.113 28.9258 115.519 31.7146 111.036 31.7146C105.478 31.7146 101.326 27.3475 101.326 21.7698C101.326 15.8558 105.513 11.825 110.556 11.825C115.634 11.825 118.117 15.932 118.929 18.1514L119.375 19.2813L106.294 24.7873C107.295 26.7826 108.853 27.8004 111.036 27.8004C113.225 27.8004 114.742 26.7063 115.854 25.0474ZM105.588 21.4694L114.332 17.7793C113.851 16.5373 112.404 15.672 110.701 15.672C108.517 15.672 105.478 17.6313 105.588 21.4694Z" fill="#EA4335"/>
<path d="M15.8263 19.1871V14.9679H29.816C29.9528 15.7032 30.0234 16.5731 30.0234 17.5146C30.0234 20.6801 29.1719 24.5944 26.4278 27.3833C23.7587 30.208 20.3484 31.7145 15.8307 31.7145C7.45719 31.7145 0.416016 24.7827 0.416016 16.2727C0.416016 7.7626 7.45719 0.830811 15.8307 0.830811C20.4631 0.830811 23.7631 2.67809 26.2425 5.08584L23.3131 8.06301C21.5351 6.36818 19.1263 5.04997 15.8263 5.04997C9.71161 5.04997 4.92925 10.0583 4.92925 16.2727C4.92925 22.4871 9.71161 27.4953 15.8263 27.4953C19.7925 27.4953 22.0513 25.8767 23.4984 24.4061C24.6719 23.2134 25.444 21.5096 25.7484 19.1826L15.8263 19.1871Z" fill="#4285F4"/>
</g>
<defs>
<clipPath id="clip0_1285_7482">
<rect width="120" height="41.25" fill="white" transform="translate(0.257812 0.620117)"/>
</clipPath>
</defs>
</svg>
