<svg width="131" height="29" viewBox="0 0 131 29" fill="none" xmlns="http://www.w3.org/2000/svg">
<g clip-path="url(#clip0_1285_7484)">
<path d="M54.3148 6.36299V22.8419H51.4268V9.91053H51.3883L46.2284 22.8419H44.303L39.0275 9.91053H38.989V22.8419H36.332V6.36299H40.4908L45.2657 18.5696H45.3427L50.3871 6.36299H54.3148ZM56.7023 7.6218C56.7023 7.16405 56.8563 6.78259 57.2029 6.47743C57.5494 6.17226 57.9345 6.01968 58.3966 6.01968C58.8972 6.01968 59.3208 6.17226 59.6288 6.47743C59.9369 6.78259 60.1294 7.16405 60.1294 7.6218C60.1294 8.07954 59.9754 8.461 59.6288 8.76616C59.2823 9.07133 58.8972 9.22391 58.3966 9.22391C57.896 9.22391 57.5109 9.07133 57.2029 8.76616C56.8948 8.42285 56.7023 8.0414 56.7023 7.6218ZM59.8214 11.0167V22.8419H57.0103V11.0167H59.8214ZM68.3314 20.8202C68.755 20.8202 69.2171 20.7439 69.7177 20.515C70.2183 20.3243 70.6804 20.0572 71.104 19.7521V22.346C70.6419 22.613 70.1413 22.8037 69.5637 22.9182C68.9861 23.0326 68.3699 23.1089 67.6768 23.1089C65.9055 23.1089 64.4807 22.5749 63.4025 21.4686C62.2858 20.3624 61.7467 18.951 61.7467 17.2726C61.7467 15.3653 62.3243 13.8014 63.441 12.5807C64.5577 11.3601 66.1365 10.7497 68.2159 10.7497C68.755 10.7497 69.2941 10.826 69.7947 10.9405C70.3338 11.0549 70.7574 11.2456 71.0654 11.3982V14.0684C70.6419 13.7632 70.1798 13.4962 69.7562 13.3436C69.2941 13.191 68.832 13.0766 68.3699 13.0766C67.2532 13.0766 66.3676 13.4199 65.6744 14.1447C64.9813 14.8694 64.6733 15.8231 64.6733 17.0437C64.6733 18.2263 65.0198 19.1799 65.6744 19.8284C66.3291 20.4768 67.2147 20.8202 68.3314 20.8202ZM79.0749 10.826C79.306 10.826 79.4985 10.826 79.691 10.8642C79.8836 10.9023 80.0376 10.9405 80.1531 10.9786V13.8014C79.9991 13.6869 79.8066 13.5725 79.4985 13.4962C79.1904 13.4199 78.8824 13.3436 78.4588 13.3436C77.7657 13.3436 77.1881 13.6488 76.726 14.221C76.2639 14.7932 75.9944 15.6705 75.9944 16.8912V22.8419H73.1833V11.0167H75.9944V12.8859H76.0329C76.3024 12.2374 76.6875 11.7415 77.1881 11.3601C77.7272 11.0167 78.3433 10.826 79.0749 10.826ZM80.3071 17.12C80.3071 15.1746 80.8848 13.6106 81.963 12.4663C83.0797 11.3219 84.6199 10.7497 86.5838 10.7497C88.4321 10.7497 89.8954 11.2838 90.9351 12.39C91.9748 13.4962 92.5139 14.9839 92.5139 16.853C92.5139 18.7603 91.9363 20.2861 90.8581 21.4305C89.7414 22.5749 88.2396 23.147 86.3143 23.147C84.4659 23.147 83.0026 22.613 81.9244 21.5449C80.8462 20.4387 80.3071 18.951 80.3071 17.12ZM83.2337 17.0056C83.2337 18.2263 83.5032 19.1799 84.0808 19.8284C84.6585 20.4768 85.4671 20.8202 86.5068 20.8202C87.508 20.8202 88.3166 20.515 88.8557 19.8284C89.3948 19.1799 89.6644 18.2263 89.6644 16.9293C89.6644 15.6705 89.3948 14.7169 88.8557 14.0302C88.3166 13.3818 87.508 13.0385 86.5453 13.0385C85.5056 13.0385 84.7355 13.3818 84.1579 14.0684C83.5032 14.7932 83.2337 15.7468 83.2337 17.0056ZM96.7112 14.1447C96.7112 14.5261 96.8267 14.8694 97.0962 15.0983C97.3658 15.3272 97.9049 15.5942 98.7906 15.9375C99.9073 16.3953 100.716 16.8912 101.139 17.4252C101.602 17.9974 101.833 18.6459 101.833 19.4469C101.833 20.5531 101.409 21.4305 100.523 22.1171C99.6762 22.8037 98.4825 23.1089 97.0192 23.1089C96.5186 23.1089 95.9795 23.0326 95.3634 22.9182C94.7473 22.8037 94.2467 22.6511 93.8231 22.4604V19.7139C94.3237 20.0572 94.9013 20.3624 95.479 20.5531C96.0566 20.7439 96.5957 20.8583 97.0962 20.8583C97.7124 20.8583 98.213 20.782 98.4825 20.5913C98.7906 20.4006 98.9446 20.1335 98.9446 19.7139C98.9446 19.3325 98.7906 19.0273 98.4825 18.7221C98.1744 18.4551 97.5583 18.15 96.7112 17.8067C95.6715 17.3871 94.9398 16.8912 94.5163 16.3571C94.0927 15.8231 93.8617 15.1365 93.8617 14.2973C93.8617 13.2292 94.2852 12.3518 95.1324 11.6652C95.9795 10.9786 97.0962 10.6353 98.444 10.6353C98.8676 10.6353 99.3297 10.6734 99.8303 10.7879C100.331 10.9023 100.793 11.0167 101.139 11.1312V13.8395C100.754 13.6106 100.331 13.3818 99.8303 13.191C99.3297 13.0003 98.8291 12.924 98.367 12.924C97.8279 12.924 97.4043 13.0385 97.1348 13.2292C96.8652 13.4962 96.7112 13.7632 96.7112 14.1447ZM103.026 17.12C103.026 15.1746 103.604 13.6106 104.682 12.4663C105.799 11.3219 107.339 10.7497 109.303 10.7497C111.151 10.7497 112.615 11.2838 113.654 12.39C114.694 13.4962 115.233 14.9839 115.233 16.853C115.233 18.7603 114.655 20.2861 113.577 21.4305C112.461 22.5749 110.959 23.147 109.033 23.147C107.185 23.147 105.722 22.613 104.644 21.5449C103.604 20.4387 103.026 18.951 103.026 17.12ZM105.953 17.0056C105.953 18.2263 106.222 19.1799 106.8 19.8284C107.378 20.4768 108.186 20.8202 109.226 20.8202C110.227 20.8202 111.036 20.515 111.575 19.8284C112.114 19.1799 112.384 18.2263 112.384 16.9293C112.384 15.6705 112.114 14.7169 111.575 14.0302C111.036 13.3818 110.227 13.0385 109.264 13.0385C108.225 13.0385 107.455 13.3818 106.877 14.0684C106.261 14.7932 105.953 15.7468 105.953 17.0056ZM124.59 13.3055H120.393V22.8419H117.544V13.3055H115.541V11.0167H117.544V9.37649C117.544 8.15583 117.967 7.1259 118.776 6.32485C119.584 5.52379 120.624 5.14233 121.895 5.14233C122.241 5.14233 122.549 5.18048 122.819 5.18048C123.089 5.18048 123.32 5.25677 123.512 5.33306V7.73623C123.435 7.69809 123.243 7.62179 123.012 7.5455C122.78 7.46921 122.511 7.43107 122.203 7.43107C121.625 7.43107 121.163 7.62179 120.855 7.96511C120.547 8.30841 120.393 8.8806 120.393 9.56722V10.9786H124.59V8.30841L127.401 7.46921V10.9786H130.251V13.2673H127.401V18.7984C127.401 19.5232 127.555 20.0191 127.786 20.3243C128.056 20.6294 128.48 20.782 129.057 20.782C129.211 20.782 129.404 20.7439 129.635 20.6676C129.866 20.5913 130.058 20.515 130.212 20.4006V22.6893C130.02 22.8037 129.75 22.88 129.327 22.9563C128.903 23.0326 128.518 23.0707 128.094 23.0707C126.901 23.0707 126.015 22.7656 125.437 22.1552C124.86 21.5449 124.552 20.5913 124.552 19.3325L124.59 13.3055Z" fill="#737373"/>
<path d="M13.4194 0.870117H0.25V13.9159H13.4194V0.870117Z" fill="#F25022"/>
<path d="M27.9761 0.870117H14.8066V13.9159H27.9761V0.870117Z" fill="#7FBA00"/>
<path d="M13.4194 15.2891H0.25V28.3348H13.4194V15.2891Z" fill="#00A4EF"/>
<path d="M27.9761 15.2891H14.8066V28.3348H27.9761V15.2891Z" fill="#FFB900"/>
</g>
<defs>
<clipPath id="clip0_1285_7484">
<rect width="130" height="27.4648" fill="white" transform="translate(0.25 0.870117)"/>
</clipPath>
</defs>
</svg>
