<svg width="140" height="19" viewBox="0 0 140 19" fill="none" xmlns="http://www.w3.org/2000/svg">
<path d="M60.426 12.3321H69.5964L64.7524 4.5321L55.8468 18.6201H51.7971L62.6283 1.7181C62.8644 1.38082 63.1782 1.10488 63.5432 0.913391C63.9083 0.7219 64.3141 0.620435 64.7266 0.617497C65.1391 0.614559 65.5463 0.710234 65.9141 0.896505C66.2818 1.08278 66.5995 1.35422 66.8404 1.6881L77.7017 18.6201H73.652L71.7445 15.4701H62.4658L60.444 12.3321H60.426ZM102.523 15.4701V0.788098H99.0812V16.9161C99.0806 17.1402 99.1256 17.3621 99.2135 17.5684C99.3014 17.7747 99.4304 17.961 99.5927 18.1161C99.7556 18.2823 99.9503 18.4141 100.165 18.5038C100.38 18.5935 100.611 18.6392 100.844 18.6381H116.489L118.529 15.4881H102.505L102.523 15.4701ZM45.6174 12.8481C47.2212 12.8481 48.7594 12.2128 49.8935 11.082C51.0276 9.95111 51.6648 8.41735 51.6648 6.8181C51.6648 5.21884 51.0276 3.68509 49.8935 2.55424C48.7594 1.4234 47.2212 0.788098 45.6174 0.788098H30.5741V18.6201H34.0099V3.9441H45.4067C46.1744 3.9441 46.9106 4.24816 47.4533 4.78939C47.9961 5.33062 48.3011 6.06468 48.3011 6.8301C48.3011 7.59551 47.9961 8.32958 47.4533 8.87081C46.9106 9.41204 46.1744 9.7161 45.4067 9.7161H35.7128L45.9784 18.6201H50.9667L44.0709 12.8481H45.6174ZM9.44125 18.6201H19.8332C22.1637 18.5598 24.3785 17.5943 26.0054 15.9294C27.6324 14.2644 28.5429 12.0317 28.5429 9.7071C28.5429 7.38248 27.6324 5.14978 26.0054 3.48484C24.3785 1.8199 22.1637 0.854396 19.8332 0.794098H9.44125C8.24788 0.763222 7.0604 0.970927 5.94883 1.40497C4.83725 1.839 3.82409 2.49059 2.96909 3.32129C2.11409 4.15199 1.43457 5.145 0.970593 6.24174C0.506615 7.33849 0.267578 8.51677 0.267578 9.7071C0.267578 10.8974 0.506615 12.0757 0.970593 13.1725C1.43457 14.2692 2.11409 15.2622 2.96909 16.0929C3.82409 16.9236 4.83725 17.5752 5.94883 18.0092C7.0604 18.4433 8.24788 18.651 9.44125 18.6201ZM19.5985 15.4821H9.66991C8.16775 15.4338 6.74333 14.8048 5.69786 13.7282C4.6524 12.6516 4.06786 11.2117 4.06786 9.7131C4.06786 8.21449 4.6524 6.77463 5.69786 5.698C6.74333 4.62138 8.16775 3.99241 9.66991 3.9441H19.5985C20.374 3.91916 21.1466 4.04992 21.8703 4.32862C22.5941 4.60731 23.2544 5.02825 23.8118 5.56641C24.3692 6.10458 24.8124 6.74898 25.1151 7.46134C25.4178 8.17369 25.5737 8.93945 25.5737 9.7131C25.5737 10.4867 25.4178 11.2525 25.1151 11.9649C24.8124 12.6772 24.3692 13.3216 23.8118 13.8598C23.2544 14.3979 22.5941 14.8189 21.8703 15.0976C21.1466 15.3763 20.374 15.507 19.5985 15.4821ZM84.8803 18.6201H95.4889L97.4986 15.4821H85.115C84.3395 15.507 83.5669 15.3763 82.8431 15.0976C82.1193 14.8189 81.4591 14.3979 80.9017 13.8598C80.3443 13.3216 79.9011 12.6772 79.5984 11.9649C79.2957 11.2525 79.1397 10.4867 79.1397 9.7131C79.1397 8.93945 79.2957 8.17369 79.5984 7.46134C79.9011 6.74898 80.3443 6.10458 80.9017 5.56641C81.4591 5.02825 82.1193 4.60731 82.8431 4.32862C83.5669 4.04992 84.3395 3.91916 85.115 3.9441H95.194L97.2279 0.794098H84.8803C83.687 0.763222 82.4995 0.970927 81.3879 1.40497C80.2763 1.839 79.2632 2.49059 78.4082 3.32129C77.5532 4.15199 76.8737 5.145 76.4097 6.24174C75.9457 7.33849 75.7067 8.51677 75.7067 9.7071C75.7067 10.8974 75.9457 12.0757 76.4097 13.1725C76.8737 14.2692 77.5532 15.2622 78.4082 16.0929C79.2632 16.9236 80.2763 17.5752 81.3879 18.0092C82.4995 18.4433 83.687 18.651 84.8803 18.6201ZM126.923 15.4821C125.663 15.4826 124.436 15.0726 123.43 14.3145C122.425 13.5565 121.695 12.4917 121.351 11.2821H136.046L138.067 8.1381H121.351C121.694 6.92799 122.424 5.86267 123.429 5.10444C124.435 4.34621 125.662 3.93663 126.923 3.9381H137.008L139.024 0.788098H126.689C124.358 0.848396 122.143 1.8139 120.516 3.47884C118.889 5.14378 117.979 7.37648 117.979 9.7011C117.979 12.0257 118.889 14.2584 120.516 15.9234C122.143 17.5883 124.358 18.5538 126.689 18.6141H137.297L139.313 15.4761H126.917" fill="#E32124"/>
</svg>
