<svg width="73" height="73" viewBox="0 0 73 73" fill="none" xmlns="http://www.w3.org/2000/svg">
<path d="M32.9179 24.524C32.9179 25.6585 32.5392 26.5411 31.7834 27.2964C30.649 28.4316 28.7582 28.6832 27.4982 27.8011L14.8937 20.4904C14.8302 20.4904 14.7984 20.4589 14.7666 20.4274C14.7354 20.3959 14.7041 20.3646 14.6411 20.3646C12.8764 19.3565 12.3727 17.0878 13.5071 15.3229C14.515 13.5582 16.7839 13.0544 18.5486 14.1884L25.607 18.3483V10.0287C25.607 8.01219 27.2456 6.37378 29.2624 6.37378C31.2792 6.37378 32.9179 8.01219 32.9179 10.0287V24.524Z" fill="#31BEF0"/>
<path d="M24.472 32.8424C25.7325 33.4729 26.3633 34.7334 26.3633 36.1199C26.3633 37.5065 25.7325 38.767 24.599 39.3972L11.9935 46.7074H11.7419C9.85166 47.7158 7.7088 47.0861 6.7004 45.1955C5.692 43.3045 6.4483 41.1614 8.21252 40.1535L15.3974 35.9936L8.21252 31.8342C8.13141 31.8342 8.10259 31.7817 8.05862 31.7446C8.03468 31.724 8.00585 31.7082 7.9609 31.7082C6.1962 30.6998 5.692 28.4313 6.82645 26.6662C7.83485 24.9017 10.1033 24.3977 11.8685 25.5317L24.472 32.8424Z" fill="#31BEF0"/>
<path d="M32.9179 62.2113V47.59C33.0434 47.0861 32.7913 46.4553 32.5392 46.0774C31.5313 44.1869 29.1364 43.5564 27.3722 44.565L14.7666 51.8757C14.7036 51.8757 14.6719 51.9072 14.6401 51.9387C14.6088 51.9703 14.5776 52.0018 14.515 52.0018C12.7503 53.0099 12.2461 55.2788 13.3811 57.0435C14.389 58.8082 16.6579 59.3119 18.4226 58.178L25.607 54.0183V62.2113C25.607 64.2279 27.2456 65.8663 29.2624 65.8663C31.2792 65.8663 32.9179 64.2282 32.9179 62.2113Z" fill="#31BEF0"/>
<path d="M39.472 62.2111V47.9684C39.3455 47.3379 39.598 46.4553 39.8497 45.8253C40.8581 44.0606 43.127 43.4301 44.8917 44.4388L57.4962 51.7494C57.6218 51.7494 57.6218 51.8755 57.7478 51.8755C59.5125 52.8836 60.0172 55.152 58.8823 56.9172C57.8739 58.6819 55.605 59.1857 53.8403 58.0517L46.7819 54.0181V62.2111C46.7819 64.2277 45.1438 65.8661 43.127 65.8661C41.1102 65.8661 39.472 64.2279 39.472 62.2111Z" fill="#31BEF0"/>
<path d="M47.9169 32.8424C46.6564 33.4729 46.0261 34.7334 46.0261 36.1199C45.9001 37.5065 46.6564 38.767 47.7908 39.2705L60.3954 46.5811C60.5214 46.5811 60.5214 46.7072 60.647 46.7072C62.5377 47.7153 64.6806 46.9598 65.689 45.1953C66.6974 43.3043 65.9411 41.1612 64.1769 40.1533L56.9915 35.9936L64.1769 31.8342C64.2423 31.8342 64.2736 31.8003 64.3063 31.7675C64.3366 31.7372 64.3679 31.7082 64.4285 31.7082C66.1932 30.6998 66.6974 28.4313 65.5634 26.6662C64.555 24.9017 62.2856 24.3977 60.5214 25.5317L47.9169 32.8424Z" fill="#31BEF0"/>
<path d="M39.472 10.0287V24.2719C39.3455 25.028 39.598 25.7845 39.8497 26.4145C40.8581 28.179 43.127 28.8095 44.8917 27.8009L57.4962 20.4902C57.5587 20.4902 57.59 20.4589 57.6213 20.4274C57.653 20.3959 57.6848 20.3644 57.7478 20.3644C59.5125 19.3562 60.0172 17.0876 58.8823 15.3226C57.8739 13.5579 55.605 13.0542 53.8403 14.1882L46.7819 18.2218V10.0287C46.7819 8.01219 45.1438 6.37378 43.127 6.37378C41.1102 6.37378 39.472 8.01219 39.472 10.0287Z" fill="#31BEF0"/>
<path fill-rule="evenodd" clip-rule="evenodd" d="M37.4552 29.3589C37.5422 29.4143 37.6247 29.4832 37.7073 29.5656L42.6228 34.6076C42.8749 34.8592 43.0009 35.1113 43.0009 35.4892V36.7502C43.0009 37.0023 42.8749 37.3802 42.7488 37.6323L37.7073 42.6743C37.5739 42.8074 37.4405 42.9054 37.2891 42.9682C37.1537 43.0241 37.0033 43.0522 36.8249 43.0522H35.5644C35.1863 43.0522 34.9342 42.9262 34.6821 42.6743L29.6401 37.6323C29.3885 37.3804 29.2624 37.1286 29.2624 36.7502V35.4892C29.2624 35.1115 29.3885 34.8594 29.6401 34.6076L34.6821 29.5656C34.8423 29.4056 35.0026 29.2961 35.1951 29.2377C35.3055 29.2043 35.4267 29.1874 35.5644 29.1874H36.8249C37.079 29.1874 37.2764 29.2446 37.4552 29.3589ZM36.7619 33.8923C36.6359 33.7658 36.3838 33.6397 36.1317 33.6397C35.9509 33.6397 35.7701 33.7045 35.6363 33.7875C35.5835 33.8205 35.5376 33.8564 35.5019 33.8923L33.9888 35.4042C33.8628 35.5302 33.7367 35.7831 33.7367 36.0349C33.7367 36.287 33.8628 36.5394 33.9888 36.6654L35.5019 38.1775C35.5591 38.2349 35.6426 38.2926 35.7408 38.3383C35.8576 38.3927 35.9944 38.4301 36.1317 38.4301C36.3838 38.4301 36.6359 38.3033 36.7619 38.1775L38.2745 36.6654C38.3825 36.5569 38.4914 36.3554 38.5198 36.1407C38.5242 36.1058 38.5266 36.0703 38.5266 36.0349C38.5266 35.8959 38.488 35.7567 38.4323 35.6387C38.3874 35.5427 38.3307 35.4606 38.2745 35.4042L36.7619 33.8923Z" fill="#31BEF0"/>
</svg>
