<svg width="106" height="105" viewBox="0 0 106 105" fill="none" xmlns="http://www.w3.org/2000/svg">
<g clip-path="url(#clip0_1285_7488)">
<path d="M33.2313 42.7781H19.7852L12.2187 56.1455L4.67639 42.7781H1.08594L12.2428 62.5041L21.6166 45.9092H33.2313V42.7781Z" fill="black"/>
<path d="M33.2306 53.8574V50.7263H19.8809V61.6371H33.2306V58.5059H23.0135V53.8574H33.2306Z" fill="black"/>
<path d="M69.4002 42.7778H66.2676V61.6368H69.4002V42.7778Z" fill="black"/>
<path d="M65.0395 42.7778H49.0391V42.826C50.027 43.6208 50.774 44.6806 51.2078 45.909H55.473V61.6368H58.6056V45.909H65.0395V42.7778Z" fill="black"/>
<path d="M48.2685 61.6368H51.4011L46.7745 53.1587C48.7504 52.3639 50.148 50.4129 50.148 48.173C50.148 45.1864 47.7383 42.7778 44.7503 42.7778H37.6658H35.5694H34.5332V61.6368H37.6658V53.5441H43.8587L48.2685 61.6368ZM37.6658 45.909H44.7503C46.0034 45.909 47.0154 46.9205 47.0154 48.173C47.0154 49.4254 46.0034 50.437 44.7503 50.437H37.6658V45.909Z" fill="black"/>
<path d="M93.5934 42.0796L85.545 55.4711V55.4952C84.4124 57.3739 82.3642 58.6263 80.0268 58.6263C76.4604 58.6263 73.5688 55.7361 73.5688 52.1714C73.5688 48.6068 76.4604 45.7165 80.0268 45.7165C82.2196 45.7165 84.1474 46.8004 85.3281 48.4863L87.0149 45.6683C85.2799 43.7897 82.7979 42.6336 80.0268 42.6336C74.7495 42.6336 70.4844 46.8967 70.4844 52.1714C70.4844 57.4461 74.7495 61.7093 80.0268 61.7093C83.4967 61.7093 86.533 59.8547 88.2198 57.0849L93.5934 48.1251L101.738 61.6852L105.353 61.637L93.5934 42.0796Z" fill="black"/>
</g>
<defs>
<clipPath id="clip0_1285_7488">
<rect width="104.34" height="104.34" fill="white" transform="translate(0.955078 0.0751953)"/>
</clipPath>
</defs>
</svg>
