<svg width="28" height="37" viewBox="0 0 28 37" fill="none" xmlns="http://www.w3.org/2000/svg"><path d="M17.707 24.207h-6.3105v-1.8105h6.3105c.2461 0 .4571-.0879.6328-.2637.1758-.1758.2637-.3867.2637-.6328 0-.2461-.0879-.457-.2637-.6328-.1757-.1758-.3867-.2637-.6328-.2637H15v-.8965c0-.2578-.0879-.4746-.2637-.6504-.1758-.1757-.3867-.2636-.6328-.2636-.2461 0-.457.0879-.6328.2636-.1758.1758-.2637.3926-.2637.6504v.8965H10.5c-.2461 0-.457.0879-.63281.2637-.17578.1758-.26367.3867-.26367.6328v3.6035c0 .2461.08789.457.26367.6328.17581.1758.38671.2637.63281.2637h6.293v1.793H10.5c-.2461 0-.457.0879-.63281.2636-.17578.1758-.26367.3926-.26367.6504 0 .2461.08789.4571.26367.6328.17581.1758.38671.2637.63281.2637h2.707V30.5c0 .2461.0879.457.2637.6328.1758.1758.3867.2637.6328.2637.2461 0 .457-.0879.6328-.2637.1758-.1758.2637-.3867.2637-.6328v-.8965h2.707c.2461 0 .4571-.0879.6328-.2637.1758-.1757.2637-.3867.2637-.6328v-3.6035c0-.2461-.0879-.457-.2637-.6328-.1757-.1758-.3867-.2637-.6328-.2637Zm7.6114-5.1679c-.3164-.5391-.6563-1.0547-1.0196-1.5469-.3633-.5039-.7265-.9785-1.0898-1.4238-.3633-.4571-.7266-.8907-1.0899-1.3008-.3632-.4102-.7089-.7969-1.0371-1.1602-.4922-.539-.9609-1.0664-1.4062-1.582-.4336-.5156-.7442-.9668-.9317-1.3535.3047-.1758.5625-.3574.7735-.5449.2226-.19927.4277-.39848.6152-.5977.1758-.17578.2637-.38672.2637-.63282 0-.24609-.0879-.45703-.2637-.63281-.1523-.15234-.334-.23437-.5449-.24609-.2109-.02344-.4043.01758-.5801.12304.1992-.59765.5156-1.24804.9492-1.95117.4453-.70312 1.0723-1.35937 1.8809-1.96875.1758-.1289.2871-.29882.334-.50976.0469-.21094.0234-.41602-.0703-.61524-.0118-.02343-.0938-.15234-.2461-.38672-.1407-.24609-.3575-.50976-.6504-.79101-.2813-.29297-.6387-.55664-1.0723-.79102-.4336-.234372-.9433-.351559-1.5293-.351559-.7265 0-1.2363.175781-1.5293.527339-.293.35157-.5039.65039-.6328.89649-.0937.1875-.1641.30469-.2109.35156-.0469.03516-.1582.05274-.334.05274-.3399 0-.7031-.08204-1.0899-.2461-.375-.17578-.7675-.36328-1.1777-.5625-.4922-.25781-.9961-.49219-1.5117-.70312-.5039-.210941-1.0313-.316409-1.582-.316409h-.0528c-.5156.011718-1.01951.117187-1.5117.316409-.48047.19922-.91406.42187-1.30078.66797-.38672.24609-.70898.48046-.9668.70312-.24609.21094-.39257.3457-.43945.4043-.09375.09375-.16406.20508-.21094.33398-.04687.11719-.06445.24024-.05273.36914.01172.12891.04688.25196.10547.36914.07031.10547.15234.19922.24609.28125.66797.49219 1.23633 1.06055 1.70508 1.70508.46875.64453.83789 1.35938 1.10742 2.14453.01172.01172.01758.02344.01758.03516 0 .01172.00586.02344.01758.03515-.17578-.10546-.375-.14648-.59766-.12304-.21094.01172-.39258.09375-.54492.24609-.17578.17578-.26367.38672-.26367.63281 0 .2461.08789.45704.26367.63282.19922.19922.4043.39843.61524.5977.22265.1875.48046.3691.77343.5449-.17578.3867-.48633.8379-.93164 1.3535-.44531.5156-.9082 1.043-1.38867 1.582-.32812.3633-.67383.75-1.03711 1.1602-.36328.4101-.73242.8437-1.10742 1.3008-.36328.4453-.72656.9199-1.08985 1.4238-.35156.4922-.68554 1.0078-1.00195 1.5469-.38672.6445-.72656 1.289-1.01953 1.9336-.28125.6445-.51562 1.2949-.70312 1.9511-.187504.6563-.328129 1.3125-.421879 1.9688-.09375.6562-.140625 1.3242-.140625 2.0039 0 .9258.082031 1.7871.246093 2.584.175781.7851.427731 1.5117.755861 2.1797.33984.6679.76172 1.2714 1.26562 1.8105.50391.5273 1.08985.9961 1.75782 1.4063.55078.3281 1.15429.6093 1.81054.8437.65625.2461 1.3711.4453 2.14453.5977.78516.164 1.63482.2812 2.54882.3515.9141.0821 1.9043.1231 2.9707.1231 1.0664 0 2.0567-.041 2.9707-.1231.9141-.0703 1.7578-.1875 2.5313-.3515.7851-.1524 1.5-.3516 2.1445-.5977.6562-.2344 1.2598-.5156 1.8105-.8437.668-.4102 1.254-.879 1.7579-1.4063.5039-.5391.9257-1.1426 1.2656-1.8105.3398-.668.5918-1.3946.7558-2.1797.1758-.7969.2637-1.6582.2637-2.584 0-.6797-.0469-1.3477-.1406-2.0039-.0938-.6563-.2344-1.3125-.4219-1.9688-.1875-.6562-.4277-1.3066-.7207-1.9511-.2812-.6446-.6152-1.2891-1.0019-1.9336ZM8.30273 3.5c.30469-.22266.65039-.42773 1.03711-.61523.39844-.19922.79106-.29883 1.17776-.29883h.0176c.3398 0 .6972.08203 1.0722.24609.3867.16406.7852.35156 1.1953.5625.4922.24609.9903.47461 1.4942.68555.5156.21094 1.0488.3164 1.5996.3164.7265 0 1.2363-.16992 1.5293-.50976.293-.35156.5039-.65039.6328-.89649.0937-.19921.1641-.3164.2109-.35156.0469-.03515.1582-.05273.334-.05273.3281 0 .6153.08203.8613.24609.2579.15235.4629.31641.6153.49219-.6211.5625-1.1309 1.14258-1.5293 1.74023-.3985.59766-.7207 1.17774-.9668 1.74024-.2344.55078-.4043 1.0664-.5098 1.54687-.1054.46875-.1758.85547-.2109 1.16016-.3281.09375-.7149.16406-1.1602.21094-.4453.04687-.9785.07031-1.5996.07031-.6211 0-1.1601-.02344-1.6172-.07031-.4453-.04688-.8261-.11719-1.1425-.21094-.0352-.29297-.1055-.66797-.211-1.125-.1055-.46875-.2695-.97266-.4922-1.51172-.2226-.53906-.5273-1.0957-.91404-1.66992-.375-.58594-.84961-1.1543-1.42383-1.70508ZM14.1035 35c-2.0508 0-3.8144-.1523-5.291-.457-1.47656-.3164-2.68945-.8028-3.63867-1.459-.94922-.6563-1.65235-1.4942-2.10938-2.5137-.44531-1.0312-.66797-2.2558-.66797-3.6738 0-1.3477.19336-2.6016.58008-3.7617.39844-1.1602.89649-2.2383 1.49414-3.2344.59766-.9961 1.24805-1.916 1.95118-2.7598.71484-.8437 1.39453-1.6172 2.03906-2.3203.62109-.6914 1.16601-1.3183 1.63476-1.8808.4688-.5625.8145-1.1016 1.0371-1.6172.3867.082.8203.1523 1.3008.2109.4922.0469 1.0488.0703 1.6699.0703s1.1719-.0234 1.6524-.0703c.4921-.0586.9316-.1289 1.3183-.2109.211.5156.5508 1.0547 1.0196 1.6172.4804.5625 1.0312 1.1894 1.6523 1.8808.6328.7031 1.3066 1.4766 2.0215 2.3203.7148.8438 1.3711 1.7637 1.9687 2.7598.5977.9961 1.0899 2.0742 1.4766 3.2344.3867 1.1601.5801 2.414.5801 3.7617 0 1.418-.2227 2.6426-.668 3.6738-.4453 1.0195-1.1484 1.8574-2.1094 2.5137-.9492.6562-2.1621 1.1426-3.6386 1.459-1.4649.3047-3.2227.457-5.2735.457Z" fill="#F2F4F6"/></svg>