<svg width="35" height="28" viewBox="0 0 35 28" fill="none" xmlns="http://www.w3.org/2000/svg"><path d="M33.793 27.207H1.39648c-.24609 0-.457027-.0879-.632808-.2636C.587891 26.7676.5 26.5508.5 26.293V8.29297c0-.24609.087891-.45703.263672-.63281.175781-.17578.386718-.26368.632808-.26368H33.793c.2578 0 .4746.0879.6504.26368.1757.17578.2636.38672.2636.63281V26.293c0 .2578-.0879.4746-.2636.6504-.1758.1757-.3926.2636-.6504.2636ZM2.29297 25.3965H32.8965V9.20703H2.29297V25.3965Zm18.91403-9h-6.3105v-1.793h6.3105c.2461 0 .4571-.0879.6328-.2637.1758-.1757.2637-.3867.2637-.6328 0-.2578-.0879-.4746-.2637-.6504-.1757-.1757-.3867-.2636-.6328-.2636H18.5v-.8965c0-.2461-.0879-.457-.2637-.6328-.1758-.1758-.3867-.2637-.6328-.2637-.2461 0-.457.0879-.6328.2637-.1758.1758-.2637.3867-.2637.6328v.8965H14c-.2461 0-.457.0879-.6328.2636-.1758.1758-.2637.3926-.2637.6504v3.586c0 .2578.0879.4746.2637.6504.1758.1757.3867.2636.6328.2636h6.293V20H14c-.2461 0-.457.0879-.6328.2637-.1758.1758-.2637.3867-.2637.6328 0 .2461.0879.457.2637.6328.1758.1758.3867.2637.6328.2637h2.707v.914c0 .2461.0879.4571.2637.6328.1758.1758.3867.2637.6328.2637.2461 0 .457-.0879.6328-.2637.1758-.1757.2637-.3867.2637-.6328v-.914h2.707c.2461 0 .4571-.0879.6328-.2637.1758-.1758.2637-.3867.2637-.6328V17.293c0-.2461-.0879-.4571-.2637-.6328-.1757-.1758-.3867-.2637-.6328-.2637ZM32 5.60352H3.20703c-.25781 0-.47461-.0879-.65039-.26368-.17578-.17578-.26367-.38672-.26367-.63281 0-.25781.08789-.47461.26367-.65039.17578-.17578.39258-.26367.65039-.26367H32c.2461 0 .457.08789.6328.26367.1758.17578.2637.39258.2637.65039 0 .24609-.0879.45703-.2637.63281-.1758.17578-.3867.26368-.6328.26368ZM30.207 2H5c-.24609 0-.45703-.08789-.63281-.26367-.17578-.17578-.26367-.38672-.26367-.63281 0-.246098.08789-.457036.26367-.632817C4.54297.294922 4.75391.207031 5 .207031h25.207c.2461 0 .4571.087891.6328.263672.1758.175781.2637.386719.2637.632817 0 .24609-.0879.45703-.2637.63281C30.6641 1.91211 30.4531 2 30.207 2Z" fill="#F2F4F6"/></svg>