<svg width="35" height="35" viewBox="0 0 35 35" fill="none" xmlns="http://www.w3.org/2000/svg"><path d="M32.1934 3.11719c-.3985-.39844-.8321-.75-1.3008-1.05469-.4688-.30469-.961-.55664-1.4766-.75586-.5156-.21094-1.0605-.36914-1.6348-.474609C27.2188.714844 26.6387.65625 26.041.65625c-.6914 0-1.3828.076172-2.0742.228516-.6914.140624-1.3652.351564-2.0215.632814-.6445.28125-1.2715.62695-1.8808 1.03711-.5977.41015-1.1602.87304-1.6875 1.38867L3.83984 18.4805c-.48046.4804-.91406.9961-1.30078 1.5468-.375.5508-.70312 1.125-.98437 1.7227-.28125.5859-.50391 1.1953-.667971 1.8281-.164063.6328-.263672 1.2715-.298828 1.916-.046875.6563-.029297 1.3008.052734 1.9336.082031.6211.228516 1.2188.439455 1.793.21094.5742.47461 1.1191.79101 1.6348.32813.5156.70899.9902 1.14258 1.4238.39844.3984.82617.75 1.28321 1.0547.46874.3047.96093.5625 1.47656.7734.52734.211 1.07226.3692 1.63476.4746.5625.1055 1.14258.1582 1.74024.1582.70312 0 1.39456-.0761 2.07426-.2285.6914-.1406 1.3652-.3515 2.0214-.6328.6563-.2812 1.2832-.6211 1.8809-1.0195.6094-.4102 1.1719-.8789 1.6875-1.4063L31.3496 16.916c.4805-.4805.9141-.9961 1.3008-1.5469.3867-.5507.7148-1.1191.9844-1.705.2812-.5977.5039-1.2129.6679-1.8457.1641-.6329.2696-1.2715.3164-1.91606.0469-.65625.0235-1.29492-.0703-1.91601-.082-.63281-.2285-1.23633-.4394-1.81055-.1992-.57422-.4629-1.11914-.791-1.63476-.3164-.51563-.6914-.99024-1.125-1.42383ZM17.6035 7.26562 28.0273 17.707 17.6035 28.1309 7.17969 17.707 17.6035 7.26562ZM9.14844 32.9297c-.94922 0-1.84571-.1641-2.68946-.4922-.83203-.3281-1.55859-.8027-2.17968-1.4238-.71485-.7149-1.23047-1.5469-1.54688-2.4961-.3164-.9492-.43945-1.9336-.36914-2.9531.08203-1.0196.35156-2.0333.8086-3.0411.46874-1.0078 1.11914-1.9336 1.95117-2.7773l.77343-.7734L16.3203 29.3965l-.7734.791c-.4336.4336-.9024.8203-1.4063 1.1602-.5039.3398-1.0312.6328-1.582.8789-.5508.2343-1.1133.416-1.6875.5449-.5742.1172-1.14844.1758-1.72266.1758v-.0176ZM30.084 15.6504l-.791.7734L18.8691 6l.7911-.77344c.4336-.44531.9023-.83789 1.4062-1.17773.5039-.33985 1.0254-.62696 1.5645-.86133.5507-.23437 1.1132-.41016 1.6875-.52734.5742-.12891 1.1484-.19336 1.7226-.19336.9492 0 1.8399.16406 2.6719.49218.8437.32813 1.5762.80274 2.1973 1.42383.7265.72656 1.2421 1.56446 1.5468 2.51367.3164.94922.4395 1.9336.3692 2.95313-.0703 1.01949-.3399 2.03319-.8086 3.04099-.4571 1.0078-1.1016 1.9278-1.9336 2.7598ZM18.5 10.5c0 .2461-.0879.457-.2637.6328-.1758.1758-.3867.2637-.6328.2637-.2461 0-.457-.0879-.6328-.2637-.1758-.1758-.2637-.3867-.2637-.6328 0-.2461.0879-.457.2637-.63281.1758-.17578.3867-.26367.6328-.26367.2461 0 .457.08789.6328.26367.1758.17581.2637.38671.2637.63281Zm-3.6035 3.6035c0 .2461-.0879.457-.2637.6328C14.457 14.9121 14.2461 15 14 15c-.2461 0-.457-.0879-.6328-.2637-.1758-.1758-.2637-.3867-.2637-.6328 0-.2461.0879-.457.2637-.6328.1758-.1758.3867-.2637.6328-.2637.2461 0 .457.0879.6328.2637.1758.1758.2637.3867.2637.6328ZM11.293 17.707c0 .2461-.0879.4571-.2637.6328-.1758.1758-.3867.2637-.6328.2637-.2461 0-.45705-.0879-.63283-.2637-.17578-.1757-.26367-.3867-.26367-.6328 0-.2578.08789-.4746.26367-.6504.17578-.1757.38673-.2636.63283-.2636.2461 0 .457.0879.6328.2636.1758.1758.2637.3926.2637.6504Zm7.207-3.6035c0 .2461-.0879.457-.2637.6328-.1758.1758-.3867.2637-.6328.2637-.2461 0-.457-.0879-.6328-.2637-.1758-.1758-.2637-.3867-.2637-.6328 0-.2461.0879-.457.2637-.6328.1758-.1758.3867-.2637.6328-.2637.2461 0 .457.0879.6328.2637.1758.1758.2637.3867.2637.6328Zm3.6035 0c0 .2461-.0879.457-.2637.6328-.1757.1758-.3867.2637-.6328.2637-.2578 0-.4746-.0879-.6504-.2637-.1757-.1758-.2636-.3867-.2636-.6328 0-.2461.0879-.457.2636-.6328.1758-.1758.3926-.2637.6504-.2637.2461 0 .4571.0879.6328.2637.1758.1758.2637.3867.2637.6328Zm-7.207 3.6035c0 .2461-.0879.4571-.2637.6328-.1758.1758-.3867.2637-.6328.2637-.2461 0-.457-.0879-.6328-.2637-.1758-.1757-.2637-.3867-.2637-.6328 0-.2578.0879-.4746.2637-.6504.1758-.1757.3867-.2636.6328-.2636.2461 0 .457.0879.6328.2636.1758.1758.2637.3926.2637.6504Zm3.6035 0c0 .2461-.0879.4571-.2637.6328-.1758.1758-.3867.2637-.6328.2637-.2461 0-.457-.0879-.6328-.2637-.1758-.1757-.2637-.3867-.2637-.6328 0-.2578.0879-.4746.2637-.6504.1758-.1757.3867-.2636.6328-.2636.2461 0 .457.0879.6328.2636.1758.1758.2637.3926.2637.6504Zm3.6035 0c0 .2461-.0879.4571-.2637.6328-.1757.1758-.3867.2637-.6328.2637-.2578 0-.4746-.0879-.6504-.2637-.1757-.1757-.2636-.3867-.2636-.6328 0-.2578.0879-.4746.2636-.6504.1758-.1757.3926-.2636.6504-.2636.2461 0 .4571.0879.6328.2636.1758.1758.2637.3926.2637.6504Zm3.6035 0c0 .2461-.0879.4571-.2636.6328-.1758.1758-.3926.2637-.6504.2637-.2461 0-.4571-.0879-.6328-.2637-.1758-.1757-.2637-.3867-.2637-.6328 0-.2578.0879-.4746.2637-.6504.1757-.1757.3867-.2636.6328-.2636.2578 0 .4746.0879.6504.2636.1757.1758.2636.3926.2636.6504Zm-10.8105 3.586c0 .2578-.0879.4746-.2637.6504-.1758.1757-.3867.2636-.6328.2636-.2461 0-.457-.0879-.6328-.2636-.1758-.1758-.2637-.3926-.2637-.6504 0-.2461.0879-.4571.2637-.6328.1758-.1758.3867-.2637.6328-.2637.2461 0 .457.0879.6328.2637.1758.1757.2637.3867.2637.6328Zm3.6035 0c0 .2578-.0879.4746-.2637.6504-.1758.1757-.3867.2636-.6328.2636-.2461 0-.457-.0879-.6328-.2636-.1758-.1758-.2637-.3926-.2637-.6504 0-.2461.0879-.4571.2637-.6328.1758-.1758.3867-.2637.6328-.2637.2461 0 .457.0879.6328.2637.1758.1757.2637.3867.2637.6328Zm3.6035 0c0 .2578-.0879.4746-.2637.6504-.1757.1757-.3867.2636-.6328.2636-.2578 0-.4746-.0879-.6504-.2636-.1757-.1758-.2636-.3926-.2636-.6504 0-.2461.0879-.4571.2636-.6328.1758-.1758.3926-.2637.6504-.2637.2461 0 .4571.0879.6328.2637.1758.1757.2637.3867.2637.6328ZM18.5 24.8965c0 .2461-.0879.457-.2637.6328-.1758.1758-.3867.2637-.6328.2637-.2461 0-.457-.0879-.6328-.2637-.1758-.1758-.2637-.3867-.2637-.6328 0-.2461.0879-.457.2637-.6328.1758-.1758.3867-.2637.6328-.2637.2461 0 .457.0879.6328.2637.1758.1758.2637.3867.2637.6328Z" fill="#F2F4F6"/></svg>