<svg width="36" height="37" viewBox="0 0 36 37" fill="none" xmlns="http://www.w3.org/2000/svg"><path d="M35.4727 16.5605c.0703-.3984.1347-.8144.1933-1.248.0703-.4453.1289-.9082.1758-1.3887.0469-.4922.082-1.0019.1055-1.5293.0351-.5273.0527-1.0898.0527-1.6875 0-.99606-.1172-1.88669-.3516-2.67184-.2226-.79688-.5156-1.50586-.8789-2.12696-.3633-.62109-.7675-1.16015-1.2129-1.61718-.4453-.45704-.8789-.84961-1.3007-1.17774-.4922-.36328-1.0196-.68555-1.5821-.9668-.5625-.29296-1.1484-.53906-1.7578-.73828-.5976-.19922-1.2129-.35156-1.8457-.457028-.6328-.105469-1.2539-.158203-1.8633-.158203-.3632 0-.7441.046875-1.1425.140625-.3985.082036-.8028.246096-1.2129.492186-.3985.23438-.7793.5625-1.1426.98438-.3633.42187-.6856.96679-.9668 1.63476-.1641.375-.3047.77344-.4219 1.19531-.1172.42188-.2168.87305-.2988 1.35352-.0703.48047-.1289.99023-.1758 1.5293-.0352.52734-.0527 1.08398-.0527 1.66992 0 .98433.0703 1.89253.2109 2.72463.1406.832.293 1.5937.457 2.2851-.1992.5039-.3632 1.0137-.4921 1.5293-.1172.5157-.1758 1.0371-.1758 1.5645 0 .5859.0468 1.1426.1406 1.6699.1055.5156.2402 1.0078.4043 1.4766.1641.457.3516.8847.5625 1.2832.2109.3984.4336.7676.668 1.1074-.0118.2812-.0235.5684-.0352.8613-.0117.2813-.0234.5625-.0352.8438-.0468.9961-.082 1.9746-.1054 2.9355-.0117.961.0293 1.875.123 2.7422.0938.8555.2696 1.6465.5274 2.3731.2578.7265.6445 1.3535 1.1601 1.8808.5391.5625 1.1953.9785 1.9688 1.2481.7734.2812 1.6816.4218 2.7246.4218.7383 0 1.4121-.0879 2.0215-.2636.6093-.1758 1.1543-.4395 1.6347-.7911.4219-.3164.7911-.6914 1.1075-1.125.3281-.4453.5976-.9492.8086-1.5117.1874-.4922.3281-.9961.4218-1.5117.0938-.5273.1641-1.0547.211-1.582.0468-.5391.0761-1.0664.0879-1.5821.0117-.5156.0175-1.0078.0175-1.4765 0-.5274.0059-1.0488.0176-1.5645.0234-.5156.0586-1.0195.1055-1.5117.4101-.5391.791-1.2246 1.1426-2.0566.3515-.8321.5273-1.8223.5273-2.9707 0-.3516-.0469-.709-.1406-1.0723-.0821-.375-.211-.7617-.3867-1.1602ZM25.207 2.60352c.8672 0 1.8223.14648 2.8653.43945 1.0429.28125 2.0156.74414 2.9179 1.38867.9141.64453 1.6758 1.48242 2.2852 2.51367.6211 1.03125.9316 2.28516.9316 3.76169 0 .668-.0234 1.3008-.0703 1.8985-.0351.5859-.082 1.1425-.1406 1.6699-.375-.4453-.7969-.9024-1.2656-1.3711-.4688-.4688-.9844-.9434-1.5469-1.4238-.4336-.3633-.8613-.7032-1.2832-1.0196-.4102-.3281-.7969-.62106-1.1602-.87887-.3632-.26953-.6972-.50391-1.0019-.70312-.293-.19922-.5391-.35743-.7383-.47461V7.10352c0-.2461-.0879-.45704-.2637-.63282-.1758-.17578-.3867-.26367-.6328-.26367-.2461 0-.457.08789-.6328.26367-.1758.17578-.2637.38672-.2637.63282v1.38867c-.164.14062-.375.33984-.6328.59765-.2578.2461-.539.53321-.8437.86133-.3047.32813-.627.69723-.9668 1.10743-.3282.3984-.6504.832-.9668 1.3008-.0586-.3985-.1055-.8086-.1407-1.2305-.0351-.4219-.0527-.8672-.0527-1.33593 0-.66797.041-1.41797.1231-2.25.082-.83203.2461-1.61133.4922-2.33789.2578-.73828.621-1.35352 1.0898-1.8457.4805-.50391 1.1133-.75586 1.8984-.75586Zm2.6895 32.34378c-.7852 0-1.459-.0879-2.0215-.2637-.5508-.1875-1.0078-.4688-1.3711-.8438-.375-.3867-.6562-.8789-.8437-1.4765-.1875-.5977-.3164-1.2598-.3868-1.9863-.0586-.7383-.082-1.5235-.0703-2.3555.0117-.8438.041-1.711.0879-2.6016.1289.1172.2344.211.3164.2813.0821.0703.1348.1113.1582.123.1992.1406.416.1934.6504.1582.2461-.0351.4453-.1465.5977-.334.1523-.1992.2109-.4218.1758-.6679-.0352-.2461-.1524-.4453-.3516-.5977 0-.0117-.1699-.164-.5098-.457-.3398-.3047-.7148-.7383-1.125-1.3008-.3984-.5625-.7676-1.2422-1.1074-2.0391-.3281-.7968-.4922-1.6933-.4922-2.6894 0-.8203.1758-1.6348.5274-2.4434.3632-.8086.791-1.5644 1.2832-2.2676.5039-.7148 1.0136-1.3476 1.5293-1.8984.5156-.5508.9316-.9726 1.248-1.2656.3984.2578.9434.6328 1.6348 1.125.7031.4922 1.4355 1.0605 2.1972 1.7051.668.5742 1.2598 1.1367 1.7754 1.6875.5274.539.9668 1.0605 1.3184 1.5644s.6211.9844.8086 1.4414c.1875.4453.2812.8613.2812 1.2481 0 .8086-.1289 1.5644-.3867 2.2675-.2578.7032-.6387 1.3477-1.1426 1.9336-.3867.4454-.75.7735-1.0898.9844-.3281.211-.4922.3164-.4922.3164-.2227.1055-.375.2813-.457.5274-.0703.2343-.0528.4629.0527.6855.082.1524.1934.2754.334.3692.1523.082.3105.123.4746.123.0703 0 .1348-.0059.1934-.0176.0703-.0234.1406-.0469.2109-.0703.0117-.0117.0645-.041.1582-.0879.0937-.0586.2109-.1347.3516-.2285 0 .2109-.0059.4277-.0176.6504v.6504c0 1.1015-.041 2.1445-.1231 3.1289-.0703.9726-.2578 1.8223-.5625 2.5488-.3047.7266-.7558 1.3067-1.3535 1.7403-.5976.4218-1.4179.6328-2.4609.6328ZM15.5391 14.75c.164-.6914.3164-1.4531.457-2.2852.1406-.832.2109-1.7402.2109-2.72457 0-.58593-.0234-1.14257-.0703-1.66992-.0351-.53906-.0937-1.04883-.1758-1.52929-.0703-.48047-.164-.93164-.2812-1.35352-.1172-.42188-.2578-.82031-.4219-1.19531-.2812-.66797-.6035-1.21289-.9668-1.63477-.3633-.42187-.75-.75-1.1601-.98437-.3985-.2461-.7969-.410159-1.1954-.492191-.3984-.09375-.7793-.140625-1.1425-.140625-.6094 0-1.2305.052735-1.86331.158204-.63281.105472-1.25391.257812-1.86328.457032-.59766.19922-1.17774.44531-1.74024.73828-.5625.28125-1.08984.60352-1.58203.9668-.42187.3164-.85547.70898-1.30078 1.17773-.44531.45703-.84961.9961-1.21289 1.61719-.363282.62109-.662111 1.33008-.896486 2.12695C.111328 8.76758 0 9.6582 0 10.6543c0 .5859.0117187 1.1484.0351562 1.6875.0351563.5273.0761718 1.0371.1230468 1.5293.046875.4805.099609.9375.158203 1.3711.070313.4336.140625.8555.210938 1.2656-.175782.3867-.310547.7676-.404297 1.1426C.0410156 18.0254 0 18.3887 0 18.7402c0 1.1485.175781 2.1387.527344 2.9707.351562.8321.732426 1.5176 1.142576 2.0567.04688.4922.07617.9961.08789 1.5117.02344.5039.03516 1.0254.03516 1.5645 0 .4687.00586.9609.01758 1.4765.01172.5156.04101 1.043.08789 1.582.04687.5274.11718 1.0547.21094 1.5821.09374.5156.23437 1.0136.42187 1.4941.21094.5742.47461 1.084.79102 1.5293.32812.4336.70312.8086 1.125 1.125.48046.3516 1.02539.6152 1.63476.791.60938.1758 1.2832.2637 2.02149.2637 1.04296 0 1.95118-.1406 2.72458-.4219.7735-.2695 1.4297-.6855 1.9688-1.248.5156-.5274.9023-1.1543 1.1601-1.8809.2578-.7265.4336-1.5176.5274-2.373.0937-.8672.1289-1.7813.1054-2.7422-.0117-.961-.041-1.9453-.0878-2.9531-.0118-.2696-.0235-.545-.0352-.8262-.0117-.293-.0234-.5801-.0352-.8613.2344-.3399.4571-.709.668-1.1075.2109-.3984.3984-.8261.5625-1.2832.1641-.4687.293-.9609.3867-1.4765.1055-.5274.1582-1.084.1582-1.6699 0-.5274-.0644-1.0489-.1933-1.5645-.1172-.5156-.2754-1.0254-.4746-1.5293Zm-4.5528 10.8281c.1407.1992.334.3164.5801.3516.2461.0351.4688-.0176.668-.1582.0234-.0117.0761-.0527.1582-.1231.082-.0703.1875-.164.3164-.2812.0469.8789.0762 1.7402.0879 2.584.0117.8437-.0176 1.6347-.0879 2.373-.0586.7266-.1817 1.3887-.3692 1.9863-.1875.5977-.4687 1.0899-.8437 1.4766-.3633.375-.8262.6563-1.3887.8438-.55076.1757-1.21873.2636-2.00388.2636-1.04297 0-1.86329-.2109-2.46094-.6328-.59766-.4336-1.04883-1.0137-1.35352-1.7402-.30468-.7266-.49804-1.5762-.58008-2.5488-.07031-.9844-.10546-2.0274-.10546-3.1289 0-.2227-.00586-.4395-.01758-.6504v-.6504c.14062.0937.25781.1699.35156.2285.09375.0469.14648.0762.1582.0879.07032.0234.13477.0468.19336.0703.07032.0117.14063.0176.21094.0176.16406 0 .31641-.0411.45703-.1231.15235-.0937.26953-.2168.35156-.3691.10547-.2227.11719-.4512.03516-.6856-.07031-.2461-.2168-.4218-.43945-.5273-.01172 0-.18164-.1055-.50977-.3164-.31641-.211-.66797-.5332-1.05469-.9668-.38672-.4453-.74414-1.0137-1.07226-1.7051-.31641-.6914-.47461-1.5293-.47461-2.5137 0-.3867.08789-.8027.26367-1.248.1875-.457.45703-.9375.80859-1.4414.36329-.5039.80274-1.0254 1.31836-1.5645.51563-.5508 1.10743-1.1074 1.77539-1.6699.76172-.6445 1.49414-1.2129 2.19727-1.7051.70313-.5039 1.25391-.8847 1.65234-1.14255.31641.29295.73241.71485 1.24801 1.26565.5157.5508 1.0196 1.1836 1.5118 1.8984.5039.7031.9316 1.459 1.2832 2.2676.3632.8086.5449 1.623.5449 2.4434 0 .996-.1699 1.8925-.5098 2.6894-.3281.7969-.6972 1.4766-1.1074 2.0391-.3984.5625-.7676.9961-1.1074 1.3007-.3399.293-.5098.4454-.5098.4571-.1992.1523-.3164.3515-.3516.5976-.0351.2461.0235.4629.1758.6504Zm3.2168-13.2715c-.3164-.4687-.6445-.9023-.9843-1.3007-.3282-.4102-.6446-.7793-.9493-1.10746-.3047-.32813-.5859-.61524-.8437-.86133-.2578-.25781-.4688-.45703-.6328-.59766V7.05078c0-.24609-.0879-.45703-.2637-.63281-.1758-.17578-.3867-.26367-.63282-.26367-.24609 0-.45703.08789-.63281.26367C9.08789 6.59375 9 6.80469 9 7.05078v1.30078c-.19922.11719-.45117.27539-.75586.47461-.29297.19922-.62109.4336-.98437.70313-.36329.25781-.75586.5508-1.17774.8789-.41015.3164-.83203.6563-1.26562 1.0195-.5625.4805-1.07813.9551-1.54688 1.4239-.46875.457-.89062.914-1.26562 1.3711-.0586-.5274-.11133-1.084-.15821-1.67-.03515-.5976-.05273-1.2304-.05273-1.8984 0-1.47657.30469-2.73047.91406-3.76172.62109-1.03125 1.38281-1.86914 2.28516-2.51367.91406-.64454 1.89258-1.10743 2.93554-1.38868 1.04297-.29296 1.99805-.43945 2.86527-.43945.7851 0 1.4121.25195 1.8808.75586.4805.49219.8438 1.10742 1.0899 1.8457.2578.72657.4277 1.50586.5097 2.33789.0821.83204.1231 1.58204.1231 2.25 0 .46877-.0176.91407-.0527 1.33597-.0352.4218-.0821.832-.1407 1.2304Z" fill="#F2F4F6"/></svg>