<svg width="16" height="15" viewBox="0 0 16 15" fill="none" xmlns="http://www.w3.org/2000/svg">
<path id="&#239;&#129;&#177; copy" fill-rule="evenodd" clip-rule="evenodd" d="M15.8383 12.376C15.9865 12.6758 16.0329 12.9804 15.9773 13.2896C15.9217 13.5988 15.7734 13.8612 15.5325 14.0767C15.2916 14.2922 15.0044 14.4 14.6709 14.4H1.32912C0.995577 14.4 0.708361 14.2922 0.467467 14.0767C0.226573 13.8612 0.0783328 13.5988 0.0227419 13.2896C-0.0328491 12.9804 0.013476 12.6758 0.161718 12.376L6.8326 0.681699C6.99937 0.381844 7.23563 0.180382 7.54138 0.0773064C7.84713 -0.0257688 8.15287 -0.0257688 8.45862 0.0773064C8.76437 0.180382 9.00063 0.381844 9.1674 0.681699L15.8383 12.376ZM8.00124 9.95898C7.64917 9.95898 7.34805 10.0855 7.09789 10.3385C6.84773 10.5915 6.72266 10.896 6.72266 11.2521C6.72266 11.6082 6.84773 11.9127 7.09789 12.1657C7.34805 12.4187 7.64917 12.5452 8.00124 12.5452C8.35332 12.5452 8.65443 12.4187 8.90459 12.1657C9.15475 11.9127 9.27983 11.6082 9.27983 11.2521C9.27983 10.896 9.15475 10.5915 8.90459 10.3385C8.65443 10.0855 8.35332 9.95898 8.00124 9.95898ZM6.99971 9.14366L6.77734 5.32052C6.77734 5.20808 6.80977 5.11906 6.87463 5.05347C6.93948 4.98787 7.01824 4.95508 7.11089 4.95508H8.88979C8.98244 4.95508 9.06119 4.98787 9.12605 5.05347C9.1909 5.11906 9.22333 5.20808 9.22333 5.32052L9.00097 9.14366C9.00097 9.21862 8.96854 9.2889 8.90369 9.35449C8.83883 9.42009 8.76008 9.45288 8.66743 9.45288H7.33325C7.2406 9.45288 7.16185 9.42009 7.09699 9.35449C7.03213 9.2889 6.99971 9.21862 6.99971 9.14366Z" fill="#ED2654"/>
</svg>
