<svg width="36" height="45" fill="none" xmlns="http://www.w3.org/2000/svg"><path d="M20.707 33.6035h-5.414c-.2461 0-.4571-.0879-.6328-.2637-.1758-.1757-.2637-.3867-.2637-.6328V30H11.707c-.2578 0-.4746-.0879-.6504-.2637-.1757-.1758-.2636-.3867-.2636-.6328V23.707c0-.2578.0879-.4746.2636-.6504.1758-.1757.3926-.2636.6504-.2636h2.6895v-2.6895c0-.2461.0879-.457.2637-.6328.1757-.1758.3867-.2637.6328-.2637h5.414c.2461 0 .4571.0879.6328.2637.1758.1758.2637.3867.2637.6328v2.6895h2.6895c.2578 0 .4746.0879.6504.2636.1757.1758.2636.3926.2636.6504v5.3965c0 .2461-.0879.457-.2636.6328-.1758.1758-.3926.2637-.6504.2637h-2.6895v2.707c0 .2461-.0879.4571-.2637.6328-.1757.1758-.3867.2637-.6328.2637Zm-4.5-1.8105h3.586v-2.6895c0-.2461.0879-.457.2636-.6328.1758-.1758.3926-.2637.6504-.2637h2.6895v-3.6035H20.707c-.2578 0-.4746-.0879-.6504-.2637-.1757-.1757-.2636-.3867-.2636-.6328V21h-3.586v2.707c0 .2461-.0879.4571-.2636.6328-.1758.1758-.3926.2637-.6504.2637h-2.6895v3.6035h2.6895c.2578 0 .4746.0879.6504.2637.1757.1758.2636.3867.2636.6328v2.6895Zm17.086-18h-8.086v-2.6895c0-.75-.2636-1.38866-.791-1.916-.5273-.52734-1.166-.79102-1.916-.79102h-9c-.75 0-1.3887.26368-1.916.79102-.5274.52734-.791 1.166-.791 1.916v2.6895H2.70703c-.75 0-1.38867.2636-1.916014.791C.263672 15.1113 0 15.75 0 16.5v19.793c0 .75.263672 1.3886.791016 1.916.527344.5273 1.166014.791 1.916014.791H33.293c.75 0 1.3886-.2637 1.916-.791.5273-.5274.791-1.166.791-1.916V16.5c0-.75-.2637-1.3887-.791-1.916-.5274-.5274-1.166-.791-1.916-.791Zm-20.6895-2.6895c0-.2461.0879-.457.2637-.6328.1758-.1758.3867-.2637.6328-.2637h9c.2461 0 .457.0879.6328.2637.1758.1758.2637.3867.2637.6328v2.6895h-10.793v-2.6895ZM34.207 36.293c0 .2578-.0879.4746-.2636.6504-.1758.1757-.3926.2636-.6504.2636H2.70703c-.25781 0-.47461-.0879-.65039-.2636-.17578-.1758-.26367-.3926-.26367-.6504V16.5c0-.2461.08789-.457.26367-.6328.17578-.1758.39258-.2637.65039-.2637H33.293c.2578 0 .4746.0879.6504.2637.1757.1758.2636.3867.2636.6328v19.793Z" fill="#1B127D"/></svg>