<svg width="37" height="45" fill="none" xmlns="http://www.w3.org/2000/svg"><path d="M17.7715 40.793c-.0469 0-.0938-.0059-.1406-.0176-.0469 0-.0938-.0059-.1407-.0176-.832-.2812-1.705-.7148-2.6191-1.3008-.9141-.5742-1.834-1.2656-2.7598-2.0742-.914-.8086-1.8164-1.7168-2.707-2.7246-.89063-1.0195-1.72852-2.1035-2.51368-3.252-.70312-1.0429-1.42382-2.25-2.1621-3.621-.73829-1.3829-1.41211-2.9239-2.02149-4.6231-.59765-1.7109-1.08984-3.5683-1.47656-5.5723-.375001-2.0156-.562501-4.1777-.562501-6.4863 0-.2461.08789-.457.263672-.6328.175779-.1758.386719-.2637.632809-.2637 1.26563 0 2.67188-.1875 4.21875-.56247 1.54688-.38672 3.0586-.84961 4.5352-1.38867 1.4765-.55078 2.8359-1.125 4.0781-1.72266 1.2422-.60937 2.1973-1.13672 2.8652-1.58203.1524-.10547.3164-.1582.4922-.1582.1875 0 .3574.05273.5098.1582.6679.44531 1.623.97266 2.8652 1.58203 1.2539.59766 2.6191 1.17188 4.0957 1.72266 1.4766.53906 2.9824 1.00195 4.5176 1.38867 1.5469.37497 2.9531.56247 4.2187.56247.2579 0 .4746.0879.6504.2637.1758.1758.2637.3867.2637.6328 0 2.3086-.1934 4.4707-.5801 6.4863-.3867 2.004-.8789 3.8614-1.4765 5.5723-.5977 1.6992-1.2657 3.2402-2.0039 4.6231-.7383 1.371-1.4649 2.5781-2.1797 3.621-.7735 1.1485-1.6055 2.2325-2.4961 3.252-.8907 1.0078-1.7989 1.916-2.7246 2.7246-.9141.8086-1.8282 1.5-2.7422 2.0742-.9141.586-1.7871 1.0196-2.6192 1.3008-.0468.0117-.0937.0176-.1406.0176-.0469.0117-.0937.0176-.1406.0176ZM2.47852 11.9648c.04687 2.086.25781 4.043.63281 5.8711.38672 1.8164.86133 3.4981 1.42383 5.045.5625 1.5351 1.17773 2.9355 1.8457 4.2011.67969 1.2539 1.34766 2.3555 2.00391 3.3047.79687 1.1719 1.61723 2.2324 2.46093 3.1817.8555.9492 1.6934 1.7871 2.5137 2.5136.8203.7149 1.6054 1.3125 2.3554 1.793.7618.4805 1.4473.8379 2.0567 1.0723.6094-.2344 1.289-.5918 2.039-1.0723.7618-.4805 1.5528-1.0781 2.3731-1.793.8203-.7265 1.6523-1.5644 2.4961-2.5136.8555-.9493 1.6758-2.0098 2.4609-3.1817.6563-.9492 1.3242-2.0508 2.0039-3.3047.6797-1.2656 1.3008-2.666 1.8633-4.2011.5625-1.5469 1.0313-3.2286 1.4063-5.045.375-1.8281.5918-3.7851.6504-5.8711-.7383-.0468-1.4883-.1347-2.25-.2636-.7618-.1407-1.5118-.3047-2.25-.4922-.7266-.1992-1.4356-.4102-2.127-.6328-.6797-.2227-1.3125-.4395-1.8984-.65042-.6329-.24609-1.2657-.49805-1.8985-.75586-.6328-.26953-1.2422-.53906-1.8281-.80859-.5859-.26953-1.1367-.53906-1.6523-.8086-.5157-.26953-.9786-.5332-1.3887-.79101-.4102.25781-.8789.52148-1.4063.79101-.5156.26954-1.0664.53907-1.6523.8086-.5742.26953-1.1777.53906-1.8106.80859-.6328.25781-1.2714.50977-1.916.75586-.5742.21092-1.207.42772-1.89841.65042-.67969.2226-1.38867.4336-2.12695.6328-.73828.1875-1.48828.3515-2.25.4922-.75.1289-1.49414.2168-2.23242.2636Z" fill="#1B127D"/></svg>