<svg width="37" height="45" fill="none" xmlns="http://www.w3.org/2000/svg"><path d="M31.0586 10.0664c-.8438-.84374-1.7578-1.59374-2.7422-2.24999-.9844-.65625-2.0156-1.20703-3.0937-1.65235-1.0782-.44531-2.1973-.78515-3.3575-1.01953-1.1484-.23437-2.3261-.35156-3.5332-.35156-1.207 0-2.3906.11719-3.5508.35156-1.1484.23438-2.2617.57422-3.3398 1.01953-1.0781.44532-2.10937.9961-3.09374 1.65235-.98438.65625-1.89844 1.40625-2.74219 2.24999-.85547.8555-1.61133 1.7754-2.26758 2.7598-.64453.9726-1.19531 1.998-1.65234 3.0761-.44532 1.0782-.785159 2.1973-1.019534 3.3575-.222657 1.1601-.333985 2.3379-.333985 3.5332 0 1.207.111328 2.3906.333985 3.5508.234375 1.1484.574214 2.2617 1.019534 3.3398.45703 1.0781 1.00781 2.1094 1.65234 3.0937.65625.9844 1.41211 1.8985 2.26758 2.7422.84375.8555 1.75781 1.6114 2.74219 2.2676.98437.6563 2.01564 1.207 3.09374 1.6524 1.0781.4453 2.1914.7793 3.3398 1.0019 1.1602.2344 2.3438.3516 3.5508.3516 1.2071 0 2.3848-.1172 3.5332-.3516 1.1602-.2226 2.2793-.5566 3.3575-1.0019 1.0781-.4454 2.1093-.9961 3.0937-1.6524.9844-.6562 1.8984-1.4121 2.7422-2.2676.8555-.8437 1.6055-1.7578 2.25-2.7422.6562-.9843 1.207-2.0156 1.6523-3.0937.4571-1.0781.7969-2.1914 1.0196-3.3398.2343-1.1602.3515-2.3438.3515-3.5508 0-1.1953-.1172-2.3731-.3515-3.5332-.2227-1.1602-.5625-2.2793-1.0196-3.3575-.4453-1.0781-.9961-2.1035-1.6523-3.0761-.6445-.9844-1.3945-1.9043-2.25-2.7598ZM18.332 31.793c-1.2422 0-2.4082-.2344-3.498-.7032-1.0899-.4687-2.0449-1.1074-2.8652-1.916-.8086-.8203-1.4532-1.7754-1.9336-2.8652-.46879-1.1016-.70317-2.2734-.70317-3.5156 0-1.2305.23438-2.3907.70317-3.4805.4804-1.1016 1.125-2.0566 1.9336-2.8652.8203-.8203 1.7753-1.4649 2.8652-1.9336 1.0898-.4805 2.2558-.7207 3.498-.7207 1.2422 0 2.4082.2402 3.4981.7207 1.0898.4687 2.039 1.1133 2.8476 1.9336.8203.8086 1.4649 1.7636 1.9336 2.8652.4805 1.0898.7207 2.25.7207 3.4805 0 1.2422-.2402 2.414-.7207 3.5156-.4687 1.0898-1.1133 2.0449-1.9336 2.8652-.8086.8086-1.7578 1.4473-2.8476 1.916-1.0899.4688-2.2559.7032-3.4981.7032Zm-16.207-9c0-.3047.00586-.6035.01758-.8965.02344-.3047.05273-.6035.08789-.8965h5.44922c-.04688.293-.08203.5918-.10547.8965-.02344.293-.03516.5918-.03516.8965 0 .3164.01172.6269.03516.9316.02344.293.05859.5859.10547.8789H2.23047c-.03516-.293-.06445-.5918-.08789-.8965-.01172-.3047-.01758-.6093-.01758-.914ZM28.9844 21h5.4492c.0352.293.0586.5918.0703.8965.0234.293.0352.5918.0352.8965 0 .3047-.0118.6093-.0352.914-.0117.3047-.0351.6035-.0703.8965h-5.4492c.0468-.293.082-.5859.1054-.8789.0235-.3047.0352-.6152.0352-.9316 0-.3047-.0117-.6035-.0352-.8965-.0234-.3047-.0586-.6035-.1054-.8965Zm5.1504-1.793h-5.625c-.2696-.7734-.6211-1.5-1.0547-2.1797-.4336-.6796-.9317-1.3007-1.4942-1.8632s-1.1836-1.0606-1.8632-1.4942c-.6797-.4336-1.4004-.7851-2.1622-1.0547V7.00781c1.5118.33985 2.9297.88477 4.254 1.63477 1.3359.75 2.5312 1.65822 3.5859 2.72462 1.0664 1.0547 1.9687 2.25 2.707 3.5859.75 1.3242 1.3008 2.7422 1.6524 4.2539ZM20.125 6.70898v5.44922c-.293-.0586-.5918-.0996-.8965-.123-.293-.0235-.5918-.0352-.8965-.0352-.3047 0-.6093.0117-.914.0352-.293.0234-.586.0644-.8789.123V6.70898c.2929-.03515.5859-.05859.8789-.07031.3047-.02344.6093-.03515.914-.03515.3047 0 .6035.01171.8965.03515.3047.01172.6035.03516.8965.07031Zm-5.3965.29883v5.60739c-.7617.2696-1.4824.6211-2.1621 1.0547-.6797.4336-1.3008.9317-1.8633 1.4942s-1.06052 1.1836-1.49412 1.8632c-.43359.6797-.78515 1.4063-1.05468 2.1797h-5.625c.35156-1.5117.89648-2.9297 1.63476-4.2539.75-1.3359 1.65235-2.5312 2.70703-3.5859C7.9375 10.3008 9.13281 9.39258 10.457 8.64258c1.336-.75 2.7598-1.29492 4.2715-1.63477ZM2.5293 26.3965h5.625c.26953.7734.62109 1.5 1.05468 2.1797.4336.6797.93162 1.3008 1.49412 1.8633.5625.5625 1.1836 1.0605 1.8633 1.4941.6797.4219 1.4004.7734 2.1621 1.0547v5.6074c-1.5117-.3398-2.9355-.8848-4.2715-1.6348-1.32419-.75-2.5195-1.6523-3.58591-2.707-1.05468-1.0664-1.95703-2.2617-2.70703-3.5859-.73828-1.336-1.2832-2.7598-1.63476-4.2715Zm14.0098 12.498v-5.4492c.2929.0469.5859.0879.8789.1231.3047.0234.6093.0351.914.0351.3047 0 .6035-.0117.8965-.0351.3047-.0352.6035-.0762.8965-.1231v5.4492c-.293.0352-.5918.0645-.8965.0879-.293.0117-.5918.0176-.8965.0176-.3047 0-.6093-.0059-.914-.0176-.293-.0234-.586-.0527-.8789-.0879Zm5.3964-.2988v-5.6074c.7618-.2813 1.4825-.6328 2.1622-1.0547.6796-.4336 1.3007-.9316 1.8632-1.4941s1.0606-1.1836 1.4942-1.8633.7851-1.4063 1.0547-2.1797h5.625c-.3516 1.5117-.9024 2.9355-1.6524 4.2715-.7383 1.3242-1.6406 2.5195-2.707 3.5859-1.0547 1.0547-2.25 1.957-3.5859 2.707-1.3243.75-2.7422 1.295-4.254 1.6348Z" fill="#1B127D"/></svg>