<svg width="37" height="21" fill="none" xmlns="http://www.w3.org/2000/svg"><path d="M35.7715 20.6035H1.56445c-.24609 0-.45703-.0879-.632809-.2637-.175782-.1757-.263672-.3867-.263672-.6328v-5.414c0-.2461.08789-.4571.263672-.6328.175779-.1758.386719-.2637.632809-.2637.75 0 1.38867-.2637 1.91602-.791.52734-.5274.79101-1.1602.79101-1.8985 0-.74997-.26367-1.38864-.79101-1.91598C2.95312 8.26367 2.31445 8 1.56445 8c-.24609 0-.45703-.08789-.632809-.26367-.175782-.17578-.263672-.38672-.263672-.63281V1.70703c0-.25781.08789-.47461.263672-.65039.175779-.175781.386719-.263671.632809-.263671H35.7715c.2461 0 .457.08789.6328.263671.1758.17578.2637.39258.2637.65039v5.39649c0 .24609-.0879.45703-.2637.63281-.1758.17578-.3867.26367-.6328.26367-.75 0-1.3887.26367-1.916.79102-.5274.52734-.791 1.16601-.791 1.91598 0 .7383.2636 1.3711.791 1.8985.5273.5273 1.166.791 1.916.791.2461 0 .457.0879.6328.2637.1758.1757.2637.3867.2637.6328v5.414c0 .2461-.0879.4571-.2637.6328-.1758.1758-.3867.2637-.6328.2637ZM2.46094 18.793H34.875v-3.6914c-.5156-.0938-.9961-.2754-1.4414-.545-.4336-.2695-.8145-.5976-1.1426-.9843-.3164-.3985-.5683-.8379-.7558-1.3184-.1758-.4922-.2637-1.0078-.2637-1.5469 0-.5508.0879-1.06638.2637-1.54684.1875-.49219.4394-.93164.7558-1.31836.3281-.38672.709-.71485 1.1426-.98438.4453-.26953.9258-.45703 1.4414-.5625v-3.6914H2.46094v3.6914c.51562.10547.99023.29297 1.42383.5625.44531.26953.82617.59766 1.14257.98438.32813.38672.58008.82617.75586 1.31836.1875.48046.28125.99604.28125 1.54684 0 .5391-.09375 1.0547-.28125 1.5469-.17578.4805-.42773.9199-.75586 1.3184-.3164.3867-.69726.7148-1.14257.9843-.4336.2696-.90821.4512-1.42383.545v3.6914ZM28.5645 17H8.77148c-.24609 0-.45703-.0879-.63281-.2637-.17578-.1758-.26367-.3867-.26367-.6328V5.29297c0-.24609.08789-.45703.26367-.63281.17578-.17578.38672-.26368.63281-.26368H28.5645c.246 0 .457.0879.6328.26368.1757.17578.2636.38672.2636.63281V16.1035c0 .2461-.0879.457-.2636.6328-.1758.1758-.3868.2637-.6328.2637ZM9.66797 15.207H27.668V6.20703H9.66797V15.207Z" fill="#1B127D"/></svg>