<svg width="36" height="45" fill="none" xmlns="http://www.w3.org/2000/svg"><path d="M.896484 26.3965c-.246093 0-.457031-.0879-.632812-.2637C.0878906 25.957 0 25.7461 0 25.5v-3.6035c0-.2461.0878906-.457.263672-.6328C.439453 21.0879.650391 21 .896484 21c.246096 0 .457036.0879.632816.2637.17578.1758.26367.3867.26367.6328V25.5c0 .2461-.08789.457-.26367.6328-.17578.1758-.38672.2637-.632816.2637Zm34.207016 0c-.2461 0-.457-.0879-.6328-.2637-.1758-.1758-.2637-.3867-.2637-.6328v-3.6035c0-.2461.0879-.457.2637-.6328.1758-.1758.3867-.2637.6328-.2637.2461 0 .457.0879.6328.2637.1758.1758.2637.3867.2637.6328V25.5c0 .2461-.0879.457-.2637.6328-.1758.1758-.3867.2637-.6328.2637Zm-3.6035-9c-.1523 0-.3047.0176-.457.0527-.1524.0235-.2989.0586-.4395.1055V16.5c0-.75-.2637-1.3887-.791-1.916-.5273-.5274-1.166-.791-1.916-.791-.7383 0-1.3711.2636-1.8985.791-.5273.5273-.791 1.166-.791 1.916v6.293H10.793V16.5c0-.75-.2637-1.3887-.791-1.916-.52739-.5274-1.1602-.791-1.89848-.791-.75 0-1.38868.2636-1.91602.791-.52734.5273-.79102 1.166-.79102 1.916v1.0547c-.14062-.0469-.2871-.082-.43945-.1055-.15234-.0351-.30469-.0527-.45703-.0527-.75 0-1.38867.2637-1.91602.791-.52734.5273-.79101 1.166-.79101 1.916v7.1895c0 .75.26367 1.3886.79101 1.916C3.11133 29.7363 3.75 30 4.5 30c.15234 0 .30469-.0117.45703-.0352.15235-.0351.29883-.0761.43945-.123v1.0547c0 .75.26368 1.3887.79102 1.916.52734.5273 1.16602.791 1.91602.791.73828 0 1.37109-.2637 1.89848-.791.5273-.5273.791-1.166.791-1.916v-6.293h14.414v6.293c0 .75.2637 1.3887.791 1.916.5274.5273 1.1602.791 1.8985.791.75 0 1.3887-.2637 1.916-.791.5273-.5273.791-1.166.791-1.916v-1.0547c.1406.0469.2871.0879.4395.123.1523.0235.3047.0352.457.0352.75 0 1.3887-.2637 1.916-.791.5274-.5274.791-1.166.791-1.916v-7.1895c0-.75-.2636-1.3887-.791-1.916-.5273-.5273-1.166-.791-1.916-.791ZM4.5 28.207c-.24609 0-.45703-.0879-.63281-.2636-.17578-.1758-.26367-.3926-.26367-.6504v-7.1895c0-.2461.08789-.457.26367-.6328.17578-.1758.38672-.2637.63281-.2637.24609 0 .45703.0879.63281.2637.17578.1758.26367.3867.26367.6328v7.1895c0 .2578-.08789.4746-.26367.6504-.17578.1757-.38672.2636-.63281.2636ZM9 30.8965c0 .2461-.08789.457-.26367.6328-.17578.1758-.38672.2637-.63281.2637-.2461 0-.45704-.0879-.63282-.2637-.17578-.1758-.26367-.3867-.26367-.6328V16.5c0-.2461.08789-.457.26367-.6328.17578-.1758.38672-.2637.63282-.2637.24609 0 .45703.0879.63281.2637C8.91211 16.043 9 16.2539 9 16.5v14.3965Zm19.793 0c0 .2461-.0879.457-.2637.6328-.1758.1758-.3867.2637-.6328.2637-.2461 0-.457-.0879-.6328-.2637-.1758-.1758-.2637-.3867-.2637-.6328V16.5c0-.2461.0879-.457.2637-.6328.1758-.1758.3867-.2637.6328-.2637.2461 0 .457.0879.6328.2637.1758.1758.2637.3867.2637.6328v14.3965Zm3.6035-3.6035c0 .2578-.0879.4746-.2637.6504-.1758.1757-.3867.2636-.6328.2636-.2461 0-.457-.0879-.6328-.2636-.1758-.1758-.2637-.3926-.2637-.6504v-7.1895c0-.2461.0879-.457.2637-.6328.1758-.1758.3867-.2637.6328-.2637.2461 0 .457.0879.6328.2637.1758.1758.2637.3867.2637.6328v7.1895Z" fill="#1B127D"/></svg>