<svg width="37" height="28" fill="none" xmlns="http://www.w3.org/2000/svg"><path d="M6.625 20h23.4141c.7382 0 1.3711-.2637 1.8984-.791.5273-.5274.791-1.166.791-1.916V2.89648c0-.73828-.2637-1.37109-.791-1.898433-.5273-.527344-1.1602-.791016-1.8984-.791016H6.625c-.73828 0-1.37109.263672-1.89844.791016-.52734.527343-.79101 1.160153-.79101 1.898433V17.293c0 .75.26367 1.3886.79101 1.916.52735.5273 1.16016.791 1.89844.791ZM5.72852 2.89648c0-.24609.08789-.45703.26367-.63281C6.16797 2.08789 6.37891 2 6.625 2h23.4141c.2461 0 .457.08789.6328.26367.1758.17578.2636.38672.2636.63281V17.293c0 .2578-.0878.4746-.2636.6504-.1758.1757-.3867.2636-.6328.2636H6.625c-.24609 0-.45703-.0879-.63281-.2636-.17578-.1758-.26367-.3926-.26367-.6504V2.89648ZM35.4355 21.793H1.22852c-.246098 0-.457036.0879-.632817.2636-.175781.1758-.263672.3926-.263672.6504V24.5c0 .75.263672 1.3887.791019 1.916.52734.5274 1.16601.791 1.91601.791H33.625c.75 0 1.3887-.2636 1.916-.791.5274-.5273.791-1.166.791-1.916v-1.793c0-.2578-.0879-.4746-.2636-.6504-.1758-.1757-.3868-.2636-.6329-.2636Zm-1.8105 3.6035H3.03906c-.25781 0-.47461-.0879-.65039-.2637-.17578-.1758-.26367-.3867-.26367-.6328v-.8965h32.4141V24.5c0 .2461-.0879.457-.2637.6328-.1758.1758-.3926.2637-.6504.2637Z" fill="#1B127D"/></svg>