<svg width="28" height="31" fill="none" xmlns="http://www.w3.org/2000/svg"><path d="M27.8477 1.13867c-.0586-.175779-.211-.374998-.4571-.597654-.2461-.222657-.6679-.333985-1.2656-.333985H2.72852c-.58594 0-1.00196.111328-1.24805.333985-.24609.222656-.4043.421875-.47461.597654-.070313.16406-.093751.41602-.070313.75586.035156.32813.269533.69141.703123 1.08985L13.5391 14.0938V26.293c0 .7382-.1817 1.3769-.545 1.916-.3515.5273-.7734.791-1.2656.791H9.03906c-.25781 0-.47461.0879-.65039.2637-.17578.1758-.26367.3867-.26367.6328 0 .2461.08789.457.26367.6328.17578.1758.39258.2637.65039.2637H19.832c.2461 0 .4571-.0879.6328-.2637.1758-.1758.2637-.3867.2637-.6328 0-.2461-.0879-.457-.2637-.6328-.1757-.1758-.3867-.2637-.6328-.2637h-2.707c-.4805 0-.9023-.2637-1.2656-.791-.3516-.5391-.5274-1.1778-.5274-1.916V14.0938L27.2324 2.98438c.4336-.39844.6621-.76172.6856-1.08985.0234-.33984 0-.5918-.0703-.75586ZM14.4355 12.4766 3.2207 2h22.4297L14.4355 12.4766Z" fill="#1B127D"/></svg>