<svg width="35" height="26" fill="none" xmlns="http://www.w3.org/2000/svg"><path d="M9.89648 6c-.73828 0-1.37695-.26367-1.91601-.79102-.52735-.52734-.79102-1.16601-.79102-1.91601 0-.73828.26367-1.37109.79102-1.89844C8.51953.867188 9.1582.603516 9.89648.603516c.75002 0 1.38872.263672 1.91602.791014.5273.52735.791 1.16016.791 1.89844 0 .75-.2637 1.38867-.791 1.91601C11.2852 5.73633 10.6465 6 9.89648 6Zm0-3.60352c-.24609 0-.45703.0879-.63281.26368C9.08789 2.83594 9 3.04688 9 3.29297c0 .25781.08789.47461.26367.65039.17578.17578.38672.26367.63281.26367.24612 0 .45702-.08789.63282-.26367.1875-.17578.2812-.39258.2812-.65039 0-.24609-.0937-.45703-.2812-.63281-.1758-.17578-.3867-.26368-.63282-.26368ZM17.1035 20.3965c-.2461 0-.457-.0879-.6328-.2637-.1758-.1758-.2637-.3867-.2637-.6328v-5.3965c0-.6914.2285-1.3418.6856-1.9512.457-.6093 1.0195-1.0136 1.6875-1.2128l2.707-.7735-5.8711-3.90233-3.0762 3.07617c-.082.08204-.1816.14649-.2988.19336-.1055.04688-.2168.07032-.334.07032H8.10352c-.25782 0-.47461-.0879-.6504-.26368-.17578-.17578-.26367-.38672-.26367-.63281 0-.25781.08789-.47461.26367-.65039.17579-.17578.39258-.26367.6504-.26367h3.21678l3.3399-3.32227c.1523-.15234.3339-.24023.5449-.26367.2226-.02344.4219.02344.5976.14063l6.5918 4.41211c.5039.32812.791.66211.8614 1.00195.082.33988.1113.58008.0879.72068-.0235.1524-.1231.3809-.2989.6856-.1758.2929-.5508.5215-1.125.6855l-2.8476.8262c-.2813.082-.5332.2695-.7559.5625-.2109.2812-.3164.5683-.3164.8613V19.5c0 .2461-.0879.457-.2637.6328-.1758.1758-.3867.2637-.6328.2637ZM27 25.793c-.9961 0-1.9336-.1875-2.8125-.5625-.8672-.375-1.6289-.8848-2.2852-1.5293-.6445-.6563-1.1601-1.4239-1.5468-2.3028-.375-.8789-.5625-1.8105-.5625-2.7949 0-.9961.1875-1.9277.5625-2.7949.3867-.8789.9023-1.6406 1.5468-2.2852.6563-.6562 1.418-1.1718 2.2852-1.5468.8789-.3868 1.8164-.5801 2.8125-.5801s1.9277.1933 2.7949.5801c.8789.375 1.6406.8906 2.2852 1.5468.6562.6446 1.1719 1.4063 1.5469 2.2852.3867.8672.58 1.7988.58 2.7949 0 .9844-.1933 1.916-.58 2.7949-.375.8789-.8907 1.6465-1.5469 2.3028-.6446.6445-1.4063 1.1543-2.2852 1.5293-.8672.375-1.7988.5625-2.7949.5625Zm0-12.586c-.75 0-1.4531.1407-2.1094.4219-.6445.2813-1.2129.668-1.7051 1.1602-.4921.4804-.8789 1.0488-1.1601 1.705-.2813.6563-.4219 1.3594-.4219 2.1094 0 .7383.1406 1.4356.4219 2.0918.2812.6563.668 1.2305 1.1601 1.7227.4922.4922 1.0606.8789 1.7051 1.1601C25.5469 23.8594 26.25 24 27 24s1.4473-.1406 2.0918-.4219c.6562-.2812 1.2305-.6679 1.7227-1.1601.4921-.4922.8789-1.0664 1.1601-1.7227.2813-.6562.4219-1.3535.4219-2.0918 0-.75-.1406-1.4531-.4219-2.1094-.2812-.6562-.668-1.2246-1.1601-1.705-.4922-.4922-1.0665-.8789-1.7227-1.1602-.6445-.2812-1.3418-.4219-2.0918-.4219ZM7.18945 25.793c-.98437 0-1.91601-.1875-2.79492-.5625-.86719-.375-1.62891-.8848-2.28515-1.5293C1.45312 23.0449.9375 22.2832.5625 21.416.1875 20.5371 0 19.5996 0 18.6035s.1875-1.9277.5625-2.7949c.375-.8789.89062-1.6406 1.54688-2.2852.65624-.6562 1.41796-1.1718 2.28515-1.5468.87891-.3868 1.81055-.5801 2.79492-.5801.9961 0 1.92774.1933 2.79493.5801.87892.375 1.64652.8906 2.30272 1.5468.6563.6446 1.1719 1.4063 1.5469 2.2852.375.8672.5625 1.7988.5625 2.7949 0 .9961-.1875 1.9336-.5625 2.8125-.375.8672-.8906 1.6289-1.5469 2.2852-.6562.6445-1.4238 1.1543-2.30272 1.5293-.86719.375-1.79883.5625-2.79493.5625Zm0-12.586c-.73828 0-1.43554.1407-2.09179.4219-.65625.2813-1.23047.668-1.72266 1.1602-.48047.4921-.86719 1.0664-1.16016 1.7226-.28125.6445-.42187 1.3418-.42187 2.0918 0 .7383.14062 1.4356.42187 2.0918.29297.6563.67969 1.2305 1.16016 1.7227.49219.4922 1.06641.8789 1.72266 1.1601.65625.2813 1.35351.4219 2.09179.4219.75 0 1.45313-.1406 2.10938-.4219.65625-.2812 1.22457-.6679 1.70507-1.1601.4922-.4922.8789-1.0664 1.1602-1.7227.2929-.6562.4394-1.3535.4394-2.0918 0-.75-.1465-1.4473-.4394-2.0918-.2813-.6562-.668-1.2305-1.1602-1.7226-.4805-.4922-1.04882-.8789-1.70507-1.1602-.65625-.2812-1.35938-.4219-2.10938-.4219Z" fill="#1B127D"/></svg>