<svg width="35" height="35" fill="none" xmlns="http://www.w3.org/2000/svg"><path fill-rule="evenodd" clip-rule="evenodd" d="M2.66797.689453C1.5634.689453.667969 1.58488.667969 2.68945v3c0 1.10457.895431 2 2.000001 2h1V17.9298c0 .5523.44771 1 1 1h.59917v13.58h-.69917c-.49706 0-.9.4029-.9.9 0 .497.40294.9.9.9h3.2c.49706 0 .9-.403.9-.9 0-.4971-.40294-.9-.9-.9h-.70083v-13.58h.60083c.55228 0 1-.4477 1-1V7.68945H26.668V17.9297c0 .5523.4477 1 1 1h.5766v13.5801h-.6766c-.4971 0-.9.4029-.9.9 0 .497.4029.9.9.9h3.2c.497 0 .9-.403.9-.9 0-.4971-.403-.9-.9-.9h-.7234V18.9297h.6234c.5523 0 1-.4477 1-1V7.68945h1c1.1045 0 2-.89543 2-2v-3c0-1.10457-.8955-1.999997-2-1.999997H2.66797ZM32.668 2.48945H2.66797c-.11046 0-.2.08955-.2.2v3c0 .11046.08954.2.2.2H32.668c.1104 0 .2-.08954.2-.2v-3c0-.11045-.0896-.2-.2-.2ZM6.86797 7.71406h-1.4v9.41574h1.4V7.71406Zm21.60003 0h1.4v9.41564h-1.4V7.71406Z" fill="#1B127D"/></svg>