<svg width="37" height="45" fill="none" xmlns="http://www.w3.org/2000/svg"><path d="M33.5918 26.3086c-.457-.2695-.9492-.5098-1.4766-.7207-.5273-.2227-1.084-.4043-1.6699-.5449-.5742-.1407-1.1719-.2461-1.793-.3164-.6093-.0821-1.2363-.1231-1.8808-.1231-.6445 0-1.2774.041-1.8985.1231-.621.0703-1.2187.1757-1.7929.3164-.5742.1406-1.125.3222-1.6524.5449-.5273.2109-1.0254.4512-1.4941.7207-.4922.293-.9316.6152-1.3184.9668-.375.3516-.6914.7207-.9492 1.1074-.2578.3867-.457.791-.5976 1.2129-.1289.4219-.1934.8555-.1934 1.3008V34.5c0 .4453.0645.8789.1934 1.3008.1406.4219.3398.8262.5976 1.2129.2578.3867.5742.7558.9492 1.1074.3868.3516.8262.6738 1.3184.9668.4687.2812.9668.5273 1.4941.7383.5274.2109 1.0782.3867 1.6524.5273.5742.1524 1.1719.2637 1.7929.334.6211.0703 1.254.1055 1.8985.1055.6445 0 1.2715-.0352 1.8808-.1055.6211-.0703 1.2188-.1816 1.793-.334.5859-.1406 1.1426-.3164 1.6699-.5273.5274-.211 1.0196-.4571 1.4766-.7383.4922-.293.9316-.6152 1.3184-.9668.3867-.3516.7089-.7207.9668-1.1074.2578-.3867.4511-.791.58-1.2129.1407-.4219.211-.8555.211-1.3008v-3.6035c0-.4453-.0703-.8789-.211-1.3008-.1289-.4219-.3222-.8262-.58-1.2129-.2579-.3867-.5801-.7558-.9668-1.1074-.3868-.3516-.8262-.6738-1.3184-.9668Zm-6.8203.0879c1.0898 0 2.1269.123 3.1113.3691.9844.2344 1.8457.5567 2.584.9668.7383.4102 1.3242.8906 1.7578 1.4414.4336.5391.6504 1.1133.6504 1.7227 0 .6094-.2168 1.1894-.6504 1.7402-.4336.5391-1.0195 1.0137-1.7578 1.4238-.7383.4102-1.5996.7383-2.584.9844-.9844.2344-2.0215.3516-3.1113.3516-1.1016 0-2.1445-.1172-3.1289-.3516-.9727-.2461-1.8281-.5742-2.5664-.9844-.7383-.4101-1.3242-.8847-1.7578-1.4238-.4336-.5508-.6504-1.1308-.6504-1.7402 0-.6094.2168-1.1836.6504-1.7227.4336-.5508 1.0195-1.0312 1.7578-1.4414.7383-.4101 1.5937-.7324 2.5664-.9668.9844-.2461 2.0273-.3691 3.1289-.3691Zm0 12.6035c-1.0899 0-2.1211-.1172-3.0938-.3516-.9726-.2343-1.8281-.5507-2.5664-.9492-.7383-.4101-1.3301-.8847-1.7754-1.4238-.4336-.5391-.6562-1.1133-.6679-1.7227.1875.1758.3867.3399.5976.4922.211.1524.4336.2989.668.4395.4687.2812.9668.5273 1.4941.7383.5274.2109 1.0782.3925 1.6524.5449.5742.1406 1.1719.2519 1.7929.334.6211.0703 1.254.1054 1.8985.1054.6445 0 1.2715-.0351 1.8808-.1054.6211-.0821 1.2188-.1934 1.793-.334.5859-.1524 1.1426-.334 1.6699-.5449.5274-.211 1.0196-.4571 1.4766-.7383.2461-.1406.4746-.2871.6855-.4395.211-.1523.4102-.3164.5977-.4922-.0234.6094-.252 1.1836-.6855 1.7227-.4336.5391-1.0196 1.0137-1.7579 1.4238-.7382.3985-1.5937.7149-2.5664.9492-.9726.2344-2.0039.3516-3.0937.3516Zm-1.8106-5.3965c-.1054 0-.2168-.0234-.3339-.0703-.1055-.0469-.2051-.1113-.2989-.1934-.1758-.1757-.2636-.3867-.2636-.6328 0-.2578.0878-.4746.2636-.6504l3.6035-3.5859c.1758-.1758.3868-.2637.6329-.2637.246 0 .457.0879.6328.2637.1757.1758.2636.3867.2636.6328 0 .2461-.0879.457-.2636.6328l-3.586 3.6035c-.0937.0821-.1992.1465-.3164.1934-.1054.0469-.2168.0703-.334.0703Zm-.9316-26.96483c-.5977-.58594-1.2832-1.03711-2.0566-1.35351-.7618-.32813-1.5645-.49219-2.4082-.49219-.8438 0-1.6465.16406-2.4083.49219-.7617.3164-1.4414.76757-2.039 1.35351L2.51367 19.2422c-.59765.5976-1.05469 1.2832-1.37109 2.0566-.316408.7617-.474611 1.5645-.474611 2.4082 0 .8321.158203 1.6348.474611 2.4082.3164.7618.77344 1.4414 1.37109 2.0391.59766.5977 1.27735 1.0547 2.03906 1.3711.77344.3164 1.57618.4746 2.40821.4746.84375 0 1.64648-.1582 2.4082-.4746.77346-.3164 1.45896-.7734 2.05666-1.3711l12.6035-12.6035c.6094-.6094 1.0664-1.3008 1.3711-2.0742.3047-.7735.457-1.5645.457-2.3731s-.1523-1.59959-.457-2.37303c-.3047-.77344-.7617-1.4707-1.3711-2.0918ZM10.1426 26.8887c-.4219.4218-.90822.75-1.45901.9843-.53906.2227-1.11328.334-1.72265.334-.59766 0-1.17188-.1113-1.72266-.334-.53906-.2343-1.02539-.5625-1.45898-.9843-.42188-.4336-.75-.9199-.98438-1.459-.22265-.5508-.33398-1.125-.33398-1.7227 0-.6093.11133-1.1836.33398-1.7226.23438-.5508.5625-1.0371.98438-1.459l6.5742-6.5742c.7969.164 1.5469.4394 2.25.8261.7031.375 1.3301.8438 1.8809 1.4063.5625.5508 1.0312 1.1777 1.4062 1.8809.3867.7031.6621 1.4531.8262 2.25l-6.5742 6.5742Zm12.6035-12.6035-4.5527 4.5527c-.2461-.7383-.5743-1.4356-.9844-2.0918-.3985-.668-.8789-1.2832-1.4414-1.8457s-1.1778-1.043-1.8457-1.4414c-.6563-.4102-1.3535-.7383-2.0918-.9844l4.5527-4.55272c.4219-.42188.9082-.74415 1.459-.9668.5508-.23438 1.125-.35156 1.7227-.35156.5976 0 1.1718.11718 1.7226.35156.5508.22265 1.0371.54492 1.459.9668.4453.43359.7734.93164.9844 1.49414.2226.55078.334 1.11328.334 1.68748s-.1114 1.1367-.334 1.6875c-.211.5508-.5391 1.0488-.9844 1.4942Z" fill="#1B127D"/></svg>