<svg width="31" height="30" fill="none" xmlns="http://www.w3.org/2000/svg"><path d="M3.72852 18.3965c-.50391 0-.97852-.1406-1.42383-.4219-.4336-.2812-.81446-.6621-1.14258-1.1426-.316407-.4922-.56836-1.0664-.75586-1.7226-.1875-.6563-.28125-1.3653-.28125-2.127 0-.7617.09375-1.4707.28125-2.1269.1875-.6563.439453-1.2305.75586-1.72269.32812-.49219.70898-.87304 1.14258-1.14258.44531-.28125.91992-.42187 1.42383-.42187.5039 0 .97265.14062 1.40625.42187.44531.26954.82617.65039 1.14257 1.14258.32813.49219.58594 1.06639.77344 1.72269.1875.6562.28125 1.3652.28125 2.1269s-.09375 1.4707-.28125 2.127c-.1875.6562-.44531 1.2304-.77344 1.7226-.3164.4805-.69726.8614-1.14257 1.1426-.4336.2813-.90235.4219-1.40625.4219Zm0-9.03517c-.42188 0-.82618.3457-1.2129 1.03707-.38671.6914-.58007 1.5528-.58007 2.584 0 1.0313.19336 1.8926.58007 2.584.38672.6914.79102 1.0371 1.2129 1.0371.42187 0 .82617-.3457 1.21289-1.0371.39843-.6914.59765-1.5527.59765-2.584 0-1.0312-.19922-1.8926-.59765-2.584-.38672-.69137-.79102-1.03707-1.21289-1.03707ZM10.9355 11.207c-.5039 0-.97847-.1406-1.42378-.4218-.4336-.2813-.81445-.6622-1.14258-1.14262-.31641-.49219-.56836-1.06641-.75586-1.72266s-.28125-1.36523-.28125-2.12695c0-.75.09375-1.45313.28125-2.10938.1875-.65625.43945-1.22461.75586-1.70507.32813-.49219.70898-.87891 1.14258-1.160161.44531-.28125.91988-.421875 1.42378-.421875.504 0 .9727.140625 1.4063.421875.4336.281251.8144.667971 1.1426 1.160161.3281.48046.5801 1.04882.7558 1.70507.1875.65625.2813 1.35938.2813 2.10938 0 .76172-.0938 1.4707-.2813 2.12695-.1757.65625-.4277 1.23047-.7558 1.72266-.3282.48042-.709.86132-1.1426 1.14262-.4336.2812-.9023.4218-1.4063.4218Zm0-8.99997c-.4335 0-.8437.33984-1.23042 1.01953-.38672.67969-.58008 1.53516-.58008 2.56641 0 1.03125.19336 1.89258.58008 2.58398.38672.67969.79692 1.01953 1.23042 1.01953.4219 0 .8262-.33984 1.2129-1.01953.3868-.6914.5801-1.55273.5801-2.58398s-.1933-1.88672-.5801-2.56641c-.3867-.67969-.791-1.01953-1.2129-1.01953Zm9 8.99997c-.5039 0-.9785-.1406-1.4238-.4218-.4336-.2813-.8144-.6622-1.1426-1.14262-.3164-.49219-.5683-1.06641-.7558-1.72266s-.2813-1.36523-.2813-2.12695c0-.75.0938-1.45313.2813-2.10938.1875-.65625.4394-1.22461.7558-1.70507.3282-.49219.709-.87891 1.1426-1.160161.4453-.28125.9199-.421875 1.4238-.421875.504 0 .9727.140625 1.4063.421875.4453.281251.8262.667971 1.1426 1.160161.3281.48046.5859 1.04882.7734 1.70507s.2813 1.35938.2813 2.10938c0 .76172-.0938 1.4707-.2813 2.12695s-.4453 1.23047-.7734 1.72266c-.3164.48042-.6973.86132-1.1426 1.14262-.4336.2812-.9023.4218-1.4063.4218Zm0-8.99997c-.4218 0-.832.33984-1.2304 1.01953-.3867.67969-.5801 1.53516-.5801 2.56641 0 1.03125.1934 1.89258.5801 2.58398.3984.67969.8086 1.01953 1.2304 1.01953.4219 0 .8262-.33984 1.2129-1.01953.3868-.6914.5801-1.55273.5801-2.58398s-.1933-1.88672-.5801-2.56641c-.3867-.67969-.791-1.01953-1.2129-1.01953ZM27.125 18.3965c-.5039 0-.9727-.1406-1.4062-.4219-.4336-.2812-.8145-.6621-1.1426-1.1426-.3282-.4922-.586-1.0664-.7735-1.7226-.1757-.6563-.2636-1.3653-.2636-2.127 0-.7617.0879-1.4707.2636-2.1269.1875-.6563.4453-1.2305.7735-1.72269.3281-.49219.709-.87304 1.1426-1.14258.4335-.28125.9023-.42187 1.4062-.42187.5039 0 .9727.14062 1.4062.42187.4454.26954.8262.65039 1.1426 1.14258.3282.49219.586 1.06639.7735 1.72269.1875.6562.2812 1.3652.2812 2.1269s-.0937 1.4707-.2812 2.127c-.1875.6562-.4453 1.2304-.7735 1.7226-.3164.4805-.6972.8614-1.1426 1.1426-.4335.2813-.9023.4219-1.4062.4219Zm0-9.03517c-.4219 0-.8262.3457-1.2129 1.03707-.3867.6914-.5801 1.5528-.5801 2.584 0 1.0313.1934 1.8926.5801 2.584.3867.6914.791 1.0371 1.2129 1.0371.4336 0 .8438-.3457 1.2305-1.0371.3867-.6914.58-1.5527.58-2.584 0-1.0312-.1933-1.8926-.58-2.584-.3867-.69137-.7969-1.03707-1.2305-1.03707ZM21.7285 29.207c-.7734 0-1.4414-.1054-2.0039-.3164-.5625-.2226-1.0781-.4511-1.5469-.6855-.4336-.211-.8613-.3985-1.2832-.5625-.4101-.1641-.8965-.2461-1.459-.2461-.5742 0-1.0722.082-1.4941.2461-.4102.164-.8262.3515-1.248.5625-.4688.2344-.9844.4629-1.5469.6855-.5625.211-1.23634.3164-2.0215.3164-.49219 0-.9668-.1289-1.42383-.3867-.44531-.2695-.83203-.6387-1.16015-1.1074-.28125-.4219-.49219-.8906-.63282-1.4063-.14062-.5156-.21679-1.0664-.22851-1.6523 0-.5977.06445-1.2246.19336-1.8809.14062-.6562.3457-1.3242.61523-2.0039.50391-1.2422 1.07813-2.3437 1.72266-3.3047.64453-.9609 1.34765-1.7695 2.10936-2.4257.7617-.668 1.5703-1.1719 2.4258-1.5118.8672-.3515 1.7637-.5273 2.6894-.5273.9258 0 1.8165.1758 2.6719.5273.8672.3399 1.6817.8438 2.4434 1.5118.7617.6562 1.4648 1.4648 2.1094 2.4257.6445.961 1.2128 2.0625 1.705 3.3047.2813.6797.4864 1.3477.6153 2.0039.1406.6563.205 1.2832.1933 1.8809 0 .5859-.0761 1.1367-.2285 1.6523-.1406.5157-.3515.9844-.6328 1.4063-.3164.4687-.7031.8379-1.1602 1.1074-.4453.2578-.9199.3867-1.4238.3867Zm-6.293-3.6035c.7852 0 1.4532.1113 2.004.334.5625.2109 1.0781.4277 1.5468.6504.4336.2226.8555.416 1.2657.5801.4218.1523.914.2285 1.4765.2285.1992 0 .3926-.0586.5801-.1758.1992-.1289.375-.3047.5273-.5273.3868-.5743.5684-1.3243.545-2.25-.0235-.9375-.252-1.9395-.6856-3.0059-.4219-1.0547-.9023-1.9922-1.4414-2.8125-.5273-.832-1.1016-1.5293-1.7227-2.0918-.621-.5625-1.2773-.9902-1.9687-1.2832-.6914-.3047-1.4004-.457-2.127-.457-.7382 0-1.4531.1523-2.1445.457-.6797.293-1.3301.7207-1.9512 1.2832-.621.5625-1.2011 1.2598-1.74019 2.0918-.52734.8203-1.00195 1.7578-1.42383 2.8125-.43359 1.0664-.66211 2.0684-.68555 3.0059-.02343.9257.15821 1.6757.54493 2.25.15234.2226.32226.3984.50976.5273.19922.1172.39258.1758.58008.1758.57422 0 1.0664-.0762 1.4766-.2285.4218-.1641.8496-.3575 1.2832-.5801.4687-.2344.9785-.457 1.5293-.668.5625-.2109 1.2363-.3164 2.0214-.3164Z" fill="#1B127D"/></svg>