<svg width="36" height="37" fill="none" xmlns="http://www.w3.org/2000/svg"><path d="M27.1035 27.793H9.10352c-.6211 0-1.20704-.1172-1.75782-.3516-.53906-.2344-1.01367-.5508-1.42382-.9492-.41016-.4102-.73243-.8906-.9668-1.4414-.23438-.5508-.35156-1.1367-.35156-1.7578V5.29297c0-.62109.11718-1.20117.35156-1.74024.23437-.55078.55664-1.02539.9668-1.42382.41015-.41016.88476-.73243 1.42382-.9668C7.89648.916016 8.48242.792969 9.10352.792969H27.1035c.6211 0 1.2012.123047 1.7403.369141.5507.23437 1.0312.55664 1.4414.9668.4101.39843.7324.87304.9668 1.42382.2343.53907.3515 1.11915.3515 1.74024V23.293c0 .6211-.1172 1.207-.3515 1.7578-.2344.5508-.5567 1.0312-.9668 1.4414-.4102.3984-.8907.7148-1.4414.9492-.5391.2344-1.1192.3516-1.7403.3516ZM9.10352 2.60352c-.75 0-1.38868.26367-1.91602.79101-.52734.52735-.79102 1.16016-.79102 1.89844V23.293c0 .75.26368 1.3886.79102 1.916.52734.5273 1.16602.791 1.91602.791H27.1035c.7383 0 1.3711-.2637 1.8985-.791.5273-.5274.791-1.166.791-1.916V5.29297c0-.73828-.2637-1.37109-.791-1.89844-.5274-.52734-1.1602-.79101-1.8985-.79101H9.10352ZM35.1016 35.4922l-3.6036-7.1895c-.1054-.2226-.2753-.375-.5097-.457-.2344-.082-.4629-.0645-.6856.0527-.2226.1055-.375.2813-.457.5274-.082.2344-.0645.4629.0527.6855l.2461.4922H6.0625l.24609-.4922c.10547-.2226.11719-.4511.03516-.6855-.07031-.2461-.2168-.4219-.43945-.5274-.22266-.1172-.45118-.1347-.68555-.0527-.23437.082-.41016.2344-.52734.457l-3.60352 7.1895c-.105468.2226-.123046.4512-.05273.6855.08203.2461.23437.4219.45703.5274.07031.0351.13476.0586.19336.0703.07031.0117.14062.0176.21093.0176.16407 0 .31641-.041.45704-.1231.15234-.082.26953-.2051.35156-.3691L3.35547 35H32.8516l.6504 1.3008c.0703.164.1757.2871.3164.3691.1523.0821.3105.1231.4746.1231.0703 0 .1406-.0059.2109-.0176.0703-.0117.1348-.0352.1934-.0703.2226-.1055.375-.2813.457-.5274.082-.2343.0645-.4629-.0527-.6855ZM4.25195 33.207l.89649-1.8105H31.041l.8965 1.8105H4.25195Zm6.64455-9c-.7383 0-1.37111-.2636-1.89845-.791-.52735-.5273-.79102-1.166-.79102-1.916s.26367-1.3887.79102-1.916c.52734-.5274 1.16015-.791 1.89845-.791.75 0 1.3887.2636 1.916.791.5273.5273.791 1.166.791 1.916s-.2637 1.3887-.791 1.916c-.5273.5274-1.166.791-1.916.791Zm0-3.6035c-.2461 0-.457.0879-.6328.2637-.1758.1758-.2637.3867-.2637.6328 0 .2461.0879.457.2637.6328.1758.1758.3867.2637.6328.2637.2461 0 .457-.0879.6328-.2637.1758-.1758.2637-.3867.2637-.6328 0-.2461-.0879-.457-.2637-.6328-.1758-.1758-.3867-.2637-.6328-.2637ZM25.293 24.207c-.7383 0-1.3711-.2636-1.8985-.791-.5273-.5273-.791-1.166-.791-1.916s.2637-1.3887.791-1.916c.5274-.5274 1.1602-.791 1.8985-.791.75 0 1.3886.2636 1.916.791.5273.5273.791 1.166.791 1.916s-.2637 1.3887-.791 1.916c-.5274.5274-1.166.791-1.916.791Zm0-3.6035c-.2461 0-.4571.0879-.6328.2637-.1758.1758-.2637.3867-.2637.6328 0 .2461.0879.457.2637.6328.1757.1758.3867.2637.6328.2637.2578 0 .4746-.0879.6504-.2637.1757-.1758.2636-.3867.2636-.6328 0-.2461-.0879-.457-.2636-.6328-.1758-.1758-.3926-.2637-.6504-.2637ZM23.5 6.20703H12.707c-.2578 0-.4746-.08789-.6504-.26367-.1757-.17578-.2636-.39258-.2636-.65039 0-.24609.0879-.45703.2636-.63281.1758-.17578.3926-.26368.6504-.26368H23.5c.2461 0 .457.0879.6328.26368.1758.17578.2637.38672.2637.63281 0 .25781-.0879.47461-.2637.65039-.1758.17578-.3867.26367-.6328.26367ZM27.1035 8H9.10352c-.2461 0-.45704.08789-.63282.26367-.17578.17578-.26367.38672-.26367.63281v7.20702c0 .2461.08789.457.26367.6328.17578.1758.38672.2637.63282.2637H27.1035c.2461 0 .457-.0879.6328-.2637.1758-.1758.2637-.3867.2637-.6328V8.89648c0-.24609-.0879-.45703-.2637-.63281C27.5605 8.08789 27.3496 8 27.1035 8ZM10 9.79297h7.207V15.207H10V9.79297ZM26.207 15.207H19V9.79297h7.207V15.207Z" fill="#1B127D"/></svg>