<svg width="37" height="45" fill="none" xmlns="http://www.w3.org/2000/svg"><path d="M15.625 35.3965h-1.793c-.2461 0-.457-.0879-.6328-.2637-.1758-.1758-.2637-.3867-.2637-.6328 0-.2461.0879-.457.2637-.6328.1758-.1758.3867-.2637.6328-.2637h1.793c.2578 0 .4746.0879.6504.2637.1758.1758.2637.3867.2637.6328 0 .2461-.0879.457-.2637.6328-.1758.1758-.3926.2637-.6504.2637Zm0-3.6035h-1.793c-.2461 0-.457-.0879-.6328-.2637-.1758-.1758-.2637-.3867-.2637-.6328 0-.2461.0879-.457.2637-.6328.1758-.1758.3867-.2637.6328-.2637h1.793c.2578 0 .4746.0879.6504.2637.1758.1758.2637.3867.2637.6328 0 .2461-.0879.457-.2637.6328-.1758.1758-.3926.2637-.6504.2637Zm1.8105-3.586H13.832c-.2461 0-.457-.0879-.6328-.2636-.1758-.1758-.2637-.3926-.2637-.6504 0-.2461.0879-.4571.2637-.6328.1758-.1758.3867-.2637.6328-.2637h3.6035c.2461 0 .4571.0879.6329.2637.1757.1757.2636.3867.2636.6328 0 .2578-.0879.4746-.2636.6504-.1758.1757-.3868.2636-.6329.2636Zm7.9102-12.5156c-.1055-.5273-.2695-1.0371-.4922-1.5293-.2109-.4922-.4746-.9551-.791-1.3887-.3047-.4453-.6504-.8554-1.0371-1.2304-.3867-.375-.8086-.709-1.2656-1.002.0586-.1992.0996-.4043.123-.61522.0352-.21094.0527-.42187.0527-.63281 0-.62109-.1171-1.20117-.3515-1.74024-.2344-.55078-.5567-1.02539-.9668-1.42382-.4102-.41016-.8906-.73243-1.4414-.9668-.5391-.24609-1.1192-.36914-1.7403-.36914-.621 0-1.207.12305-1.7578.36914-.539.23437-1.0136.55664-1.4238.9668-.4101.39843-.7324.87304-.9668 1.42382-.2344.53907-.3516 1.11915-.3516 1.74024 0 .21094.0118.42187.0352.63281.0352.21092.082.41602.1406.61522-.457.293-.8847.627-1.2832 1.002-.3867.375-.7324.7851-1.0371 1.2304-.3047.4336-.5683.8965-.791 1.3887-.21094.4922-.375 1.002-.49219 1.5293-.5625.1641-1.03125.4863-1.40625.9668s-.5625 1.0254-.5625 1.6348v1.8105c0 .586.16406 1.1133.49219 1.582.33984.4571.77344.7793 1.30078.9668V36.293c0 .6211.11719 1.207.35156 1.7578.23438.5508.55661 1.0254.96681 1.4238.4101.4102.8848.7324 1.4238.9668.5508.2344 1.1367.3516 1.7578.3516h7.2071c.6211 0 1.2011-.1172 1.7402-.3516.5508-.2344 1.0254-.5566 1.4238-.9668.4102-.3984.7324-.873.9668-1.4238.2461-.5508.3692-1.1367.3692-1.7578V22.6523c.5156-.1875.9433-.5097 1.2832-.9668.3398-.4687.5097-.996.5097-1.582V18.293c0-.6094-.1875-1.1543-.5625-1.6348-.375-.4805-.8496-.8027-1.4238-.9668Zm-10.7051-3.9375c.1055-.0586.1934-.1289.2637-.2109.082-.0938.1406-.1992.1758-.3164.0469-.1172.0644-.2344.0527-.3516-.0117-.1172-.0469-.2285-.1055-.334-.0937-.1992-.1699-.3984-.2285-.59764-.0468-.21094-.0703-.42774-.0703-.65039 0-.73828.2637-1.37109.791-1.89844.5274-.52734 1.166-.79101 1.916-.79101.7383 0 1.3711.26367 1.8985.79101.5273.52735.791 1.16016.791 1.89844 0 .22265-.0234.43945-.0703.65039-.0469.19924-.1231.39844-.2285.59764-.0469.1055-.0762.2168-.0879.334-.0117.1172 0 .2344.0351.3516.0352.1172.0938.2226.1758.3164.082.082.1758.1523.2813.2109.7851.3984 1.459.9316 2.0215 1.5996.5625.668.9668 1.418 1.2128 2.25H11.3887c.2461-.832.6504-1.582 1.2129-2.25.5625-.668 1.2422-1.2012 2.039-1.5996ZM21.0391 39H13.832c-.75 0-1.3886-.2637-1.916-.791-.5273-.5274-.791-1.166-.791-1.916v-13.5h12.6035v13.5c0 .75-.2637 1.3886-.791 1.916-.5273.5273-1.1602.791-1.8984.791Zm4.5-18.8965c0 .2461-.0879.457-.2637.6328-.1758.1758-.3926.2637-.6504.2637H10.2285c-.24608 0-.45702-.0879-.6328-.2637-.17578-.1758-.26367-.3867-.26367-.6328V18.293c0-.2461.08789-.4571.26367-.6328.17578-.1758.38672-.2637.6328-.2637H24.625c.2578 0 .4746.0879.6504.2637.1758.1757.2637.3867.2637.6328v1.8105Z" fill="#1B127D"/></svg>