<svg width="37" height="45" fill="none" xmlns="http://www.w3.org/2000/svg"><path d="M25.9288 16.2939c-.0581-.073-.1027-.1633-.111-.2588-.2795-3.1631-.7261-5.2608-.7261-5.2608-.0702-.3622-.3802-.6285-.7358-.6713l-2.5037-.30549c-.0217-.00266-.0437-.00413-.0662-.00413-.292 0-.5289.23892-.5289.53362v.8774c-.0002.0176-.0145.0317-.0319.0317-.008 0-.0152-.0029-.0209-.0077-1.4996-1.36239-3.1879-2.68481-5.0584-3.84973C15.7899 7.1387 15.3671 7 14.9068 7l-.0012.00013c-.4603 0-.8833.13857-1.2393.37854C5.02288 12.7616.265205 21.5121.0815766 21.9927.0292568 22.1045 0 22.2293 0 22.3612c0 .4038.274649.7429.645841.8376l2.489939.4834c.33259.0919.58456.3805.62227.7334.02032.4435.49083 10.3476 1.08197 12.9167.09678.37.43171.6429.82896.6429h.01875c1.45259-.0367 2.78322-.0611 4.21993-.0805h-.00422l.01334-.0002c.03673-.0005.07344-.001.11042-.0015.1535 0 .2779-.127.2779-.282 0-.0022 0-.0046-.0001-.0071-.0583-.8648-.1839-2.8422-.2856-4.9241-.0025-.0521-.0066-.1178-.0091-.1707-.0094-.1811-.10818-.3388-.25296-.4276-.74707-.451-1.25917-1.2574-1.30673-2.1875-.13063-3.4735-.19695-7.4874-.00846-10.6284.01507-.2614.22773-.4709.49151-.4756.27658-.0048.50471.2175.50958.4965.00027.0133 0 .0265-.00078.0396-.12285 2.0937-.13395 4.569-.08902 7.0113.00566.33.27566.5932.60297.5875.32719-.0059.58789-.2782.58229-.6084-.045-2.4588-.0329-4.9502.0932-7.0509.0149-.2614.2276-.4709.4914-.4756.2766-.0048.5048.2175.5096.4965.0002.0133 0 .0265-.0008.0396-.1222 2.0826-.1337 4.543-.0897 6.9728v.0015c.0065.3291.2759.5909.6023.5852.3257-.0058.5854-.2757.5818-.6037-.0442-2.4477-.0315-4.9254.0938-7.0163.0151-.2614.2277-.4709.4915-.4756.2766-.0048.5047.2175.5096.4965.0003.0133 0 .0265-.0008.0396-.1791 3.0534-.1206 6.9184.0027 10.3089 0 .0021.001.0295.001.0317.0006.0172.0009.0343.0012.0515v.0003c.0001.0111.0001.0223.0001.0335 0 .9272-.4612 1.7458-1.1648 2.235-.1255.0878-.2105.2288-.2216.3929 0 0-.0618.5206.1666 3.0437.1063 1.1014.1876 1.8646.2251 2.2098.0149.1309.125.2323.2586.2323.0778-.0003.1557-.0005.2354-.0008h-.0033c.4796-.0019.9744-.0029 1.4885-.0032H15.0023c.6497.0003 1.2688.0018 1.8654.0047l1.4124.0126h.0016c.1345 0 .2445-.1026.2639-.235.3271-3.0235.404-4.7213.404-4.7213 0-.1528-.1157-.2675-.2676-.2911l-1.7157-.2387c-.2713-.0482-.4325-.2167-.4905-.4241-.0355-.1257-.0215-.2672-.0215-.2672.6956-10.0776 3.9894-13.4737 3.9894-13.4737.0972-.0999.1599-.1393.1599-.1393.0869-.0637.194-.1013.3097-.1013.2234 0 .4144.1404.4914.3382 0 0 .0271.0703.0425.2423.2843 3.1678.1456 8.5583-.0304 12.7636-.1492 3.5693-.3298 6.3709-.3298 6.3709-.0001.002-.0001.0039-.0001.0057 0 .1146.0922.2076.2059.2076.935.0158 1.8558.0352 2.8317.0596h.0187c.3973 0 .7324-.2729.829-.6429.5912-2.5691 1.0617-12.4732 1.0822-12.9167.0375-.3529.2895-.6415.6222-.7334l2.4897-.4834c.3713-.0947.6459-.4338.6459-.8376 0-.1319-.0293-.2567-.0815-.3685-.0941-.2465-1.3924-2.6701-3.8019-5.6988Z" fill="#1B127D"/></svg>