<svg width="37" height="37" fill="none" xmlns="http://www.w3.org/2000/svg"><path d="M35.1035 36.793H.896484c-.246093 0-.457031-.0879-.632812-.2637C.0878906 36.3535 0 36.1426 0 35.8965V1.70703c0-.21094.0644531-.39844.193359-.5625C.322266.980469.486328.875.685547.828125.896484.78125 1.0957.804688 1.2832.898438c.1875.082031.32813.216792.42188.404292l1.79297 3.60352c.11718.21094.13476.43945.05273.68555-.08203.23437-.23437.40429-.45703.50976-.21094.11719-.43945.13477-.68555.05274-.23437-.08203-.40429-.23438-.50976-.45703l-.10547-.19336V35H31.2891l-.1934-.0879c-.2227-.1172-.375-.293-.457-.5273-.0703-.2344-.0528-.4629.0527-.6856.1172-.2226.293-.3691.5274-.4394.2343-.0821.4628-.0703.6855.0351l3.6035 1.793c.1875.0937.3223.2344.4043.4219.0938.1992.1172.3984.0703.5976-.0469.1992-.1523.3633-.3164.4922-.164.1289-.3515.1934-.5625.1934Zm-4.5-27.89652c0-.73828-.2637-1.37109-.791-1.89843-.5273-.52735-1.166-.79102-1.916-.79102-.7383 0-1.3711.26367-1.8985.79102-.5273.52734-.791 1.16015-.791 1.89843 0 .4336.0938.8379.2813 1.21292.1875.3633.4394.6679.7558.914l-3.7968 11.3731c-.2461.0117-.4864.0527-.7207.123-.2344.0703-.4512.1641-.6504.2813l-5.0274-4.0078c.0469-.1407.0821-.2871.1055-.4395.0352-.1523.0527-.3047.0527-.457 0-.7383-.2636-1.3711-.791-1.8985-.5273-.5273-1.166-.791-1.916-.791s-1.3887.2637-1.916.791c-.5274.5274-.791 1.1602-.791 1.8985 0 .3633.0703.709.2109 1.0371.1406.3164.3223.5976.5449.8437l-3.1113 6.2403h-.17578C8.21484 26.0059 8.16211 26 8.10352 26c-.75 0-1.38868.2637-1.91602.791-.52734.5274-.79102 1.166-.79102 1.916 0 .7383.26368 1.3711.79102 1.8985.52734.5273 1.16602.791 1.91602.791.73828 0 1.37109-.2637 1.89848-.791.5273-.5274.791-1.1602.791-1.8985 0-.3632-.0703-.7031-.211-1.0195-.1289-.3281-.3105-.6152-.5449-.8613l3.1289-6.2403c.0586 0 .1113.0059.1582.0176H13.5c.2578 0 .5039-.0351.7383-.1055.2461-.0703.4746-.1699.6855-.2988l5.0274 4.0078c-.0469.1407-.0879.2871-.1231.4395-.0234.1523-.0351.3047-.0351.457 0 .7383.2636 1.3711.791 1.8985.5273.5273 1.166.791 1.916.791s1.3887-.2637 1.916-.791c.5274-.5274.791-1.1602.791-1.8985 0-.4336-.0996-.832-.2988-1.1953-.1875-.375-.4394-.6855-.7559-.9316l3.7969-11.3731c.7383-.0117 1.3653-.2812 1.8809-.8086.5156-.5273.7734-1.16013.7734-1.89842ZM27.8965 8c.2461 0 .457.08789.6328.26367.1758.17578.2637.38672.2637.63281 0 .2461-.0879.45704-.2637.63282-.1758.17578-.3867.26367-.6328.26367-.2461 0-.457-.08789-.6328-.26367C27.0879 9.35352 27 9.14258 27 8.89648c0-.24609.0879-.45703.2637-.63281.1758-.17578.3867-.26367.6328-.26367ZM13.5 17c.2461 0 .457.0879.6328.2637.1758.1758.2637.3867.2637.6328 0 .2461-.0879.457-.2637.6328-.1758.1758-.3867.2637-.6328.2637-.2461 0-.457-.0879-.6328-.2637-.1758-.1758-.2637-.3867-.2637-.6328 0-.2461.0879-.457.2637-.6328.1758-.1758.3867-.2637.6328-.2637ZM8.10352 29.6035c-.2461 0-.45704-.0879-.63282-.2637-.17578-.1757-.26367-.3867-.26367-.6328 0-.2578.08789-.4746.26367-.6504.17578-.1757.38672-.2636.63282-.2636.24609 0 .45703.0879.63281.2636.17578.1758.26367.3926.26367.6504 0 .2461-.08789.4571-.26367.6328-.17578.1758-.38672.2637-.63281.2637ZM22.5 26c-.2461 0-.457-.0879-.6328-.2637-.1758-.1758-.2637-.3867-.2637-.6328 0-.2461.0879-.457.2637-.6328.1758-.1758.3867-.2637.6328-.2637.2461 0 .457.0879.6328.2637.1758.1758.2637.3867.2637.6328 0 .2461-.0879.457-.2637.6328-.1758.1758-.3867.2637-.6328.2637Z" fill="#1B127D"/></svg>