<svg width="36" height="45" fill="none" xmlns="http://www.w3.org/2000/svg"><path d="M17.1035 39c-.082 0-.1582-.0059-.2285-.0176-.0703-.0234-.1406-.0527-.2109-.0879-.0586-.0351-.3868-.2285-.9844-.58-.5859-.3516-1.3359-.8438-2.25-1.4766-.9141-.6328-1.9336-1.3945-3.0586-2.2852-1.12501-.9023-2.25001-1.9043-3.37501-3.0058-.17578-.1758-.26367-.3867-.26367-.6328 0-.2579.08789-.4746.26367-.6504.17579-.1758.38672-.2637.63282-.2637.24609 0 .45703.0879.63281.2637.89062.8789 1.78708 1.6933 2.68948 2.4433.914.75 1.7695 1.418 2.5664 2.0039.8086.5743 1.5234 1.0606 2.1445 1.459.6328.3985 1.1133.6973 1.4414.8965.3281-.1992.8027-.498 1.4238-.8965.6329-.4101 1.3477-.9023 2.1446-1.4765.7969-.586 1.6523-1.2481 2.5664-1.9864.914-.75 1.8105-1.5644 2.6894-2.4433.1758-.1758.3868-.2637.6328-.2637.2579 0 .4747.0879.6504.2637.1758.1758.2637.3925.2637.6504 0 .2461-.0937.457-.2812.6328-1.1133 1.1015-2.2383 2.1035-3.375 3.0058-1.125.8907-2.1446 1.6524-3.0586 2.2852-.9141.6328-1.67 1.125-2.2676 1.4766-.586.3515-.9024.5449-.9492.58-.0703.0352-.1465.0645-.2285.0879-.0704.0117-.1407.0176-.211.0176ZM2.30273 24.6035c-.16406 0-.32226-.0469-.47461-.1406-.15234-.0938-.26367-.2227-.33398-.3867-.24609-.5157-.46289-1.0371-.65039-1.5645-.1875-.5273-.345703-1.0488-.474609-1.5644-.117188-.5274-.210938-1.0489-.2812504-1.5645C.0292969 18.8672 0 18.3574 0 17.8535c0-1.3008.246094-2.5254.738281-3.6738.503909-1.1485 1.183599-2.1504 2.039059-3.0059.85547-.8554 1.85157-1.52927 2.98828-2.02146 1.14844-.5039 2.37891-.75586 3.69141-.75586.43359 0 .87307.04102 1.31837.12305.457.08203.9082.20508 1.3535.36914.4453.15235.8848.34571 1.3184.58008.4453.22266.873.48633 1.2832.79105.4804.3515.9199.7382 1.3183 1.1601.3985.4102.75.8379 1.0547 1.2832.293-.4453.6387-.873 1.0371-1.2832.4102-.4219.8555-.8086 1.336-1.1601.4101-.30472.832-.56839 1.2656-.79105.4336-.23437.873-.42773 1.3183-.58008.4454-.16406.8907-.28711 1.336-.36914.457-.08203.9082-.12305 1.3535-.12305 1.3008 0 2.5254.25196 3.6738.75586 1.1485.49219 2.1504 1.16606 3.0059 2.02146.8555.8555 1.5293 1.8574 2.0215 3.0059.5039 1.1484.7558 2.373.7558 3.6738 0 .5039-.0351 1.0137-.1054 1.5293-.0586.5156-.1524 1.0371-.2813 1.5645-.1172.5156-.2695 1.0371-.457 1.5644-.1875.5274-.4043 1.0488-.6504 1.5645-.1055.2343-.2754.3926-.5098.4746-.2343.082-.4629.0703-.6855-.0352-.2227-.1054-.3809-.2754-.4746-.5097-.0821-.2344-.0703-.4629.0351-.6856.2227-.4687.416-.9316.5801-1.3887.1641-.4687.2988-.9257.4043-1.3711.1172-.457.1992-.9082.2461-1.3535.0586-.457.0879-.9082.0879-1.3535 0-1.0547-.1992-2.0449-.5977-2.9707-.3984-.9375-.9492-1.7519-1.6523-2.4433-.6914-.6915-1.5-1.2364-2.4258-1.6348-.9258-.3985-1.916-.5977-2.9707-.5977-.7617 0-1.5117.1407-2.25.4219-.7266.2813-1.4004.6504-2.0215 1.1074-.6094.4571-1.1367.9727-1.582 1.5469-.4453.5742-.7617 1.1426-.9492 1.7051-.0586.1758-.17.3222-.334.4394-.1524.1172-.3223.1758-.5098.1758-.1992 0-.3808-.0586-.5449-.1758-.1524-.1172-.2578-.2636-.3164-.4394-.1875-.5625-.5039-1.1309-.9492-1.7051-.4453-.5742-.9727-1.0898-1.5821-1.5469-.6093-.457-1.2832-.8261-2.0214-1.1074-.7266-.2812-1.4707-.4219-2.23247-.4219-1.05469 0-2.05078.1992-2.98828.5977-.92578.3984-1.73437.9433-2.42578 1.6348-.69141.6914-1.24219 1.5058-1.65235 2.4433-.39843.9258-.59765 1.916-.59765 2.9707 0 .4453.0293.8965.08789 1.3535.05859.4453.14062.8965.24609 1.3535.11719.4454.25782.9024.42188 1.3711.16406.4571.35156.92.5625 1.3887.10547.2227.11719.4512.03515.6856-.08203.2343-.23437.4043-.45703.5097-.07031.0235-.14062.0469-.21093.0703-.0586.0118-.11719.0176-.17579.0176ZM18.9316 31.793H18.8965c-.1758 0-.4043-.0821-.6856-.2461-.2812-.1641-.5039-.5391-.6679-1.125l-2.1797-7.8047-1.459 5.9062c-.1406.5743-.3516.9551-.6328 1.1426-.2695.1758-.4981.2754-.6856.2988-.1875.0235-.4336-.0234-.7382-.1406-.3047-.1172-.5918-.4394-.8614-.9668l-1.08982-2.1972c-.02343-.0469-.04687-.0879-.07031-.1231-.02344-.0351-.04687-.0644-.07031-.0879v.0352h-.01758c-.32812.4922-.82031.9023-1.47656 1.2304-.65625.3282-1.3125.4922-1.96875.4922H4.5c-.24609 0-.45703-.0879-.63281-.2636-.17578-.1758-.26367-.3926-.26367-.6504 0-.2461.08789-.4571.26367-.6328.17578-.1758.38672-.2637.63281-.2637h1.79297c.38672 0 .77344-.0996 1.16015-.2988.38672-.1993.65626-.4102.8086-.6329.19922-.2929.43945-.5097.7207-.6503.28125-.1524.57422-.2227.87891-.211.33987.0235.65037.1465.93167.3692.2929.2226.5332.5214.7207.8964l.791 1.5997 1.6875-6.8555c.1406-.5742.3398-.9492.5976-1.125.2579-.1875.4981-.2813.7207-.2813.211 0 .4454.0879.7032.2637.2695.1641.4804.5332.6328 1.1074l2.3203 8.2442 2.127-6.5039c.1757-.5625.4042-.9258.6855-1.0899.293-.164.5332-.2461.7207-.2461.1875-.0117.4277.0528.7207.1934.3047.1289.5742.4687.8086 1.0195l1.3008 3.0938c.1172.2929.3457.5507.6855.7734.3399.2227.668.334.9844.334h2.707c.2461 0 .4571.0879.6328.2637.1758.1757.2637.3867.2637.6328 0 .2578-.0879.4746-.2637.6504-.1757.1757-.3867.2636-.6328.2636H27c-.668 0-1.3242-.2109-1.9688-.6328-.6445-.4336-1.0957-.9609-1.3535-1.582l-1.0722-2.5313-2.2852 7.0137c-.1875.5742-.4219.9375-.7031 1.0899-.2813.1523-.5098.2285-.6856.2285Z" fill="#1B127D"/></svg>