<svg width="26" height="37" fill="none" xmlns="http://www.w3.org/2000/svg"><path d="M25.2715 15.207c0-.8437-.1406-1.6406-.4219-2.3906-.2695-.7617-.6445-1.4473-1.125-2.0566-.4805-.6094-1.0488-1.13089-1.7051-1.56449-.6562-.44531-1.3769-.76758-2.1621-.96679v-.10547c.0117-.04688.0176-.08789.0176-.12305 0-.99609-.1934-1.92773-.5801-2.79492-.375-.87891-.8847-1.64063-1.5293-2.28516-.6445-.65625-1.4062-1.17187-2.2851-1.54687-.8672-.386722-1.793-.580081-2.7774-.580081-.9961 0-1.9277.193359-2.7949.580081-.86718.375-1.6289.89062-2.28515 1.54687-.64453.64453-1.16016 1.40625-1.54688 2.28516-.375.86719-.5625 1.79883-.5625 2.79492v.10547c.01172.03515.01758.07031.01758.10547-.78516.19922-1.51172.51562-2.17969.94922-.66797.43359-1.24804.96094-1.74023 1.58204-.48047.6094-.86133 1.2949-1.14258 2.0566-.269531.7617-.4042969 1.5645-.4042969 2.4082 0 .8086.1289059 1.5821.3867189 2.3203.257812.7383.615238 1.4122 1.072268 2.0215.45703.5977.99609 1.1192 1.61718 1.5645.63282.4336 1.31836.7617 2.05665.9844L8.625 34.4023c.1875.6797.58008 1.2481 1.17773 1.7051.60937.4571 1.26567.6856 1.96877.6856h1.793c.7031 0 1.3535-.2285 1.9511-.6856.6094-.457 1.0078-1.0254 1.1953-1.7051l3.4278-12.3046c.7383-.2227 1.4179-.5508 2.039-.9844.6328-.4453 1.1778-.9668 1.6348-1.5645.457-.6093.8145-1.2832 1.0723-2.0215.2578-.7382.3867-1.5117.3867-2.3203ZM16.166 29.6387l-6.36327 2.2851-.8789-3.164 8.31447-2.9883-1.0723 3.8672ZM13.5645 35h-1.793c-.293 0-.586-.1055-.8789-.3164-.2813-.2227-.4629-.4746-.5449-.7559l-.0704-.2636 5.3086-1.8985-.5976 2.1621c-.0821.2813-.2695.5332-.5625.7559-.2813.2109-.5684.3164-.8613.3164Zm4.2714-11.3555-9.40426 3.375-1.2832-4.623H18.1875l-.3516 1.248Zm.2286-3.041H7.27148c-.75 0-1.45312-.1406-2.10937-.4219-.65625-.2929-1.23047-.6796-1.72266-1.1601-.48047-.4922-.86133-1.0664-1.14257-1.7227-.28126-.6562-.42188-1.3535-.42188-2.0918 0-.75.14062-1.4531.42188-2.1093.28124-.6563.6621-1.2247 1.14257-1.7051.49219-.4922 1.06641-.8789 1.72266-1.1602.65625-.29295 1.35937-.43943 2.10937-.43943.70313 0 1.37696.13476 2.02149.40433.65625.2695 1.24223.6504 1.75783 1.1425.1758.1758.3867.2637.6328.2637.2461 0 .457-.0937.6328-.2812.1758-.1758.2637-.3868.2637-.6328 0-.2461-.0938-.4571-.2813-.6329-.6679-.65621-1.4297-1.16012-2.2851-1.51168C9.1582 8.19336 8.26172 8.01172 7.32422 8c0-.75.14062-1.44727.42187-2.0918.28125-.65625.66211-1.23047 1.14258-1.72265.49219-.49219 1.06055-.87891 1.70513-1.16016.6562-.28125 1.3593-.42187 2.1093-.42187.7383 0 1.4297.14062 2.0742.42187.6563.28125 1.2247.66797 1.7051 1.16016.4922.49218.8789 1.0664 1.1602 1.72265.2812.64453.4219 1.3418.4219 2.0918-.1641 0-.334.00586-.5098.01758-.1758.01172-.3457.0293-.5098.05273-.2461.03516-.4453.15235-.5976.35157-.1524.19921-.211.42187-.1758.66796.0351.2461.1523.44532.3515.59766.1993.15234.4219.21094.668.17578.1289-.02344.2578-.04101.3867-.05273.1289-.01172.2578-.01758.3868-.01758.75 0 1.4531.14648 2.1093.43943.6563.2813 1.2246.668 1.7051 1.1602.4922.4804.8789 1.0488 1.1602 1.7051.2812.6562.4218 1.3593.4218 2.1093 0 .7383-.1406 1.4356-.4218 2.0918-.2813.6563-.668 1.2305-1.1602 1.7227-.4805.4805-1.0488.8672-1.7051 1.1601-.6562.2813-1.3593.4219-2.1093.4219Z" fill="#1B127D"/></svg>