<svg width="30" height="37" fill="none" xmlns="http://www.w3.org/2000/svg"><path d="M27.041 36.793H3.62695c-.73828 0-1.37109-.2637-1.89843-.791-.52735-.5274-.79102-1.1602-.79102-1.8985V3.5c0-.75.26367-1.38867.79102-1.91602.52734-.52734 1.16015-.791011 1.89843-.791011H27.041c.7383 0 1.3711.263671 1.8985.791011.5273.52735.791 1.16602.791 1.91602v30.6035c0 .7383-.2637 1.3711-.791 1.8985-.5274.5273-1.1602.791-1.8985.791ZM3.62695 2.60352c-.24609 0-.45703.08789-.63281.26367-.17578.17578-.26367.38672-.26367.63281v30.6035c0 .2461.08789.457.26367.6328.17578.1758.38672.2637.63281.2637H27.041c.2461 0 .457-.0879.6328-.2637.1758-.1758.2637-.3867.2637-.6328V3.5c0-.24609-.0879-.45703-.2637-.63281-.1758-.17578-.3867-.26367-.6328-.26367H3.62695ZM16.2305 33.207h-1.793c-.2461 0-.457-.0879-.6328-.2636-.1758-.1758-.2637-.3926-.2637-.6504 0-.2461.0879-.4571.2637-.6328.1758-.1758.3867-.2637.6328-.2637h1.793c.2461 0 .457.0879.6328.2637.1758.1757.2637.3867.2637.6328 0 .2578-.0879.4746-.2637.6504-.1758.1757-.3867.2636-.6328.2636Zm9-3.6035H5.4375c-.24609 0-.45703-.0879-.63281-.2637-.17578-.1757-.26367-.3867-.26367-.6328V5.29297c0-.24609.08789-.45703.26367-.63281.17578-.17578.38672-.26368.63281-.26368h19.793c.2461 0 .457.0879.6328.26368.1758.17578.2637.38672.2637.63281V28.707c0 .2461-.0879.4571-.2637.6328-.1758.1758-.3867.2637-.6328.2637ZM6.33398 27.793H24.334V6.20703H6.33398V27.793Z" fill="#1B127D"/></svg>