<svg width="35" height="37" fill="none" xmlns="http://www.w3.org/2000/svg"><path d="M23.3965 7.10352c0-.86719-.1641-1.68165-.4922-2.44336-.3281-.77344-.7793-1.44141-1.3535-2.00391-.5742-.57422-1.2422-1.02539-2.0039-1.35352-.7617-.339839-1.5762-.509761-2.4434-.509761s-1.6875.169922-2.4609.509761c-.7617.32813-1.4297.7793-2.0039 1.35352-.5625.5625-1.0137 1.23047-1.3535 2.00391-.3282.76171-.4922 1.57617-.4922 2.44336 0 .78515.1406 1.53515.4218 2.25.2813.70308.6622 1.33598 1.1426 1.89848.4805.5507 1.0488 1.0078 1.7051 1.371.668.3633 1.3828.6036 2.1445.7208V21.5c0 .2461.0879.457.2637.6328.1758.1758.3867.2637.6328.2637.2461 0 .457-.0879.6328-.2637.1758-.1758.2637-.3867.2637-.6328v-8.1562c.7617-.1172 1.4707-.3575 2.127-.7208.6562-.3632 1.2246-.8203 1.705-1.371.4922-.5625.8731-1.1954 1.1426-1.89848.2813-.71485.4219-1.46485.4219-2.25Zm-6.293 4.49998c-.6211 0-1.207-.1172-1.7578-.3515-.5391-.2344-1.0137-.5567-1.4238-.9668-.4102-.4102-.7324-.88481-.9668-1.42387-.2344-.55078-.3516-1.13672-.3516-1.75781 0-.6211.1172-1.20118.3516-1.74024.2344-.55078.5566-1.03125.9668-1.4414.4101-.41016.8847-.73243 1.4238-.9668.5508-.23438 1.1367-.35156 1.7578-.35156s1.2012.11718 1.7403.35156c.5507.23437 1.0312.55664 1.4414.9668.4101.41015.7324.89062.9668 1.4414.2343.53906.3515 1.11914.3515 1.74024 0 .62109-.1172 1.20703-.3515 1.75781-.2344.53906-.5567 1.01367-.9668 1.42387-.4102.4101-.8907.7324-1.4414.9668-.5391.2343-1.1192.3515-1.7403.3515Zm-.8965-6.31053c0 .25781-.0879.47461-.2636.65039-.1758.17578-.3926.26367-.6504.26367-.2461 0-.4571-.08789-.6328-.26367-.1758-.17578-.2637-.39258-.2637-.65039 0-.24609.0879-.45703.2637-.63281.1757-.17578.3867-.26368.6328-.26368.2578 0 .4746.0879.6504.26368.1757.17578.2636.38672.2636.63281ZM17.1035 26c-.5742 0-1.1308-.082-1.6699-.2461-.5274-.1758-1.002-.416-1.4238-.7207-.4453-.3398-.791-.7383-1.0371-1.1953-.2461-.457-.3692-.9375-.3692-1.4414 0-.4688.1055-.9141.3164-1.336.211-.4335.5156-.8144.9141-1.1425.1992-.1641.4219-.2344.668-.211.246.0235.4453.1289.5976.3164.1641.1875.2344.4043.2109.6504-.0234.2461-.1289.4512-.3164.6153-.1406.1171-.2753.2695-.4043.457-.1289.1875-.1933.4043-.1933.6504 0 .4922.2637.9199.791 1.2832.5391.3515 1.1777.5273 1.916.5273.7266 0 1.3535-.1758 1.8809-.5273.539-.3633.8086-.791.8086-1.2832 0-.2461-.0645-.4629-.1934-.6504s-.2578-.3399-.3867-.457c-.1992-.1641-.3106-.3692-.334-.6153-.0117-.2461.0586-.4629.2109-.6504.1641-.1875.3692-.2929.6153-.3164.2461-.0234.4629.0469.6504.211.3984.3281.7031.709.914 1.1425.2227.4219.334.8672.334 1.336 0 .5039-.123.9844-.3691 1.4414-.2461.457-.5977.8555-1.0547 1.1953-.4102.3047-.8848.5449-1.4238.7207-.5274.1641-1.0782.2461-1.6524.2461Zm14.9942-5.2031-11.0039-5.502c-.211-.1054-.4395-.1172-.6856-.0351-.2344.0703-.4043.2168-.5098.4394-.1172.2227-.1347.4512-.0527.6856.082.2343.2344.4101.457.5273l10.9864 5.4844c.0703.0351.1406.082.2109.1406.082.0586.1582.1231.2285.1934l-13.4824 7.4531c-.3047.1758-.6914.2637-1.1602.2637-.457 0-.832-.0879-1.125-.2637L2.47852 22.7305c.05859-.0703.12304-.1348.19336-.1934.08203-.0586.16406-.1055.24609-.1406l10.98633-5.4844c.2227-.1172.3691-.293.4395-.5273.082-.2344.0703-.4629-.0352-.6856-.1172-.2226-.293-.3691-.5274-.4394-.2343-.0821-.4628-.0703-.6855.0351l-10.98632 5.502c-.59766.2929-1.10157.7676-1.511724 1.4238C.199219 22.877 0 23.5391 0 24.207v.8965c0 .6563.1875 1.3184.5625 1.9863.386719.668.86719 1.1661 1.44141 1.4942l13.09569 7.6289c.2813.1641.5918.2871.9316.3691.3516.0821.709.1231 1.0723.1231.3633 0 .7149-.041 1.0547-.1231.3516-.082.668-.205.9492-.3691l13.0957-7.6289c.5625-.3281 1.0371-.8262 1.4239-1.4942.3867-.6679.58-1.33.58-1.9863v-.8965c0-.6679-.205-1.33-.6152-1.9863-.4102-.6562-.9082-1.1309-1.4941-1.4238Zm-.8086 6.2402L18.1934 34.666c-.2813.1641-.6446.2461-1.0899.2461-.4453 0-.8144-.082-1.1074-.2461L2.90039 27.0371c-.28125-.1758-.53906-.457-.77344-.8437-.22265-.3985-.33398-.7618-.33398-1.0899v-.6855L15.082 31.7656c.293.1641.6094.2871.9492.3692.3516.0703.709.1054 1.0723.1054.3516 0 .7031-.0351 1.0547-.1054.3516-.0821.668-.2051.9492-.3692l13.2891-7.3476v.6855c0 .3281-.1113.6914-.334 1.0899-.2227.3867-.4805.6679-.7734.8437Z" fill="#1B127D"/></svg>