<svg width="35" height="37" fill="none" xmlns="http://www.w3.org/2000/svg"><path d="M33.1875 9.07227h-.0879c-.0234-.01172-.0527-.01758-.0879-.01758-.2344-.0586-.4219-.1875-.5625-.38672-.1406-.21094-.1875-.43945-.1406-.68555.0352-.14062.0586-.28125.0703-.42187.0117-.15235.0176-.30469.0176-.45703 0-.6211-.1172-1.20118-.3516-1.74024-.2344-.55078-.5566-1.03125-.9668-1.4414-.4101-.41016-.8906-.73243-1.4414-.9668-.539-.23438-1.1191-.35156-1.7402-.35156-.2695 0-.5332.02343-.791.07031-.2578.04687-.5098.11133-.7559.19336-.2344.09375-.4629.08789-.6855-.01758-.2227-.10547-.3809-.27539-.4746-.50977-.0821-.23437-.0704-.46289.0351-.68554.1055-.22266.2754-.38086.5098-.47461.3398-.12891.6914-.222659 1.0547-.281252.3632-.070313.7324-.105469 1.1074-.105469.8672 0 1.6816.169922 2.4433.509761.7735.32813 1.4414.7793 2.004 1.35352.5742.5625 1.0253 1.23047 1.3535 2.00391.3398.76171.5097 1.57617.5097 2.44336 0 .21093-.0117.42187-.0351.63281-.0235.19922-.0528.39844-.0879.59765-.0469.22266-.1582.4043-.334.54493-.1641.1289-.3516.19336-.5625.19336Zm-32.18555.01757c-.199216 0-.386716-.06445-.562497-.19336-.164062-.14062-.269531-.3164-.316406-.52734-.0351564-.21094-.0644532-.42187-.0878908-.63281C.0117187 7.52539 0 7.31445 0 7.10352c0-.86719.164063-1.68165.492188-2.44336.328124-.77344.779292-1.44141 1.353512-2.00391.57422-.57422 1.24219-1.02539 2.00391-1.35352C4.61133.962891 5.42578.792969 6.29297.792969c.375 0 .74414.035156 1.10742.105469.36328.058593.7207.152342 1.07227.281252.23437.09375.40429.25195.50976.47461.10547.22265.11133.45117.01758.68554-.08203.23438-.24023.4043-.47461.50977-.22266.10547-.44531.11133-.66797.01758-.25781-.08203-.51562-.14649-.77344-.19336-.25781-.04688-.52148-.07031-.79101-.07031-.62109 0-1.20703.11718-1.75781.35156-.53907.23437-1.01368.55664-1.42383.9668-.39844.41015-.72071.89062-.9668 1.4414-.23437.53906-.35156 1.11914-.35156 1.74024 0 .15234.00586.30468.01758.45703.02343.15234.05273.29883.08789.43945.04687.24609 0 .47461-.14063.68555-.14062.21093-.32812.33984-.5625.38672-.03515 0-.07031.00585-.10547.01757h-.08789ZM29.373 31.6074c.7852-.8086 1.4766-1.6699 2.0743-2.584.5976-.9257 1.1015-1.8925 1.5117-2.9004.4101-1.0078.7207-2.0507.9316-3.1289.211-1.0781.3164-2.1738.3164-3.2871 0-1.1484-.1113-2.2675-.334-3.3574-.2226-1.1016-.5449-2.1621-.9668-3.1816-.4218-1.0313-.9433-2.0098-1.5644-2.9356-.6211-.93748-1.3359-1.81052-2.1445-2.61912-.8086-.80859-1.6817-1.52344-2.6192-2.14453-.9258-.62109-1.9043-1.14258-2.9355-1.56445-1.0196-.4336-2.0801-.75586-3.1817-.9668-1.1015-.22266-2.2207-.33398-3.3574-.33398-1.1484 0-2.2734.11132-3.375.33398-1.0898.21094-2.1504.5332-3.1816.9668-1.01956.42187-1.99807.94336-2.93557 1.56445-.92578.62109-1.79297 1.33594-2.60156 2.14453-.8086.8086-1.52344 1.68164-2.14454 2.61912-.62109.9258-1.14843 1.9043-1.58203 2.9356-.421872 1.0195-.744138 2.08-.966794 3.1816C.105469 17.4395 0 18.5586 0 19.707c0 1.1133.105469 2.209.316406 3.2871.210938 1.0782.521485 2.1211.931644 3.1289.41015 1.0079.91406 1.9747 1.51172 2.9004.59765.9141 1.2832 1.7754 2.05664 2.584l-3.65625 3.6563c-.175785.1758-.263676.3867-.263676.6328 0 .2461.087891.457.263676.6328.09375.0937.19336.1582.29882.1934.11719.0468.22852.0703.33399.0703.11719 0 .22851-.0235.33398-.0703.11719-.0352.22266-.0997.31641-.1934l3.70898-3.6914c.76172.6328 1.57032 1.2012 2.42578 1.7051.85547.4922 1.74608.9023 2.67188 1.2304.9258.3399 1.875.5918 2.8477.7559.9843.1758 1.9863.2637 3.0058.2637 1.0078 0 2.0039-.0879 2.9883-.2637.9844-.1641 1.9336-.416 2.8477-.7559.9257-.3281 1.8164-.7382 2.6718-1.2304.8672-.5039 1.6817-1.0723 2.4434-1.7051l3.709 3.6914c.082.0937.1758.1582.2812.1934.1172.0468.2344.0703.3516.0703.1172 0 .2285-.0235.334-.0703.1172-.0352.2168-.0997.2988-.1934.1758-.1758.2637-.3867.2637-.6328 0-.2461-.0879-.457-.2637-.6328l-3.6563-3.6563ZM1.79297 19.707c0-2.1093.39844-4.0898 1.19531-5.9414.8086-1.8633 1.9043-3.4863 3.28711-4.86912 1.39453-1.39453 3.01758-2.49023 4.86911-3.2871 1.8633-.8086 3.8496-1.2129 5.959-1.2129 2.1094 0 4.0899.4043 5.9414 1.2129 1.8633.79687 3.4863 1.89257 4.8692 3.2871 1.3828 1.38282 2.4726 3.00582 3.2695 4.86912.8086 1.8516 1.2129 3.8321 1.2129 5.9414 0 2.1094-.4043 4.0957-1.2129 5.959-.7969 1.8516-1.8867 3.4688-3.2695 4.8516-1.3829 1.3828-3.0059 2.4785-4.8692 3.2871C21.1934 34.6016 19.2129 35 17.1035 35s-4.0957-.3984-5.959-1.1953c-1.85153-.8086-3.47458-1.9043-4.86911-3.2871-1.38281-1.3828-2.47851-3-3.28711-4.8516-.79687-1.8633-1.19531-3.8496-1.19531-5.959ZM12.6035 26c-.1172 0-.2344-.0176-.3515-.0527-.1055-.0469-.1993-.1172-.2813-.211l-4.5-4.5c-.17578-.1758-.26367-.3867-.26367-.6328 0-.2461.08789-.457.26367-.6328.17578-.1758.38672-.2637.63282-.2637.24609 0 .45703.0879.63281.2637l3.86717 3.8496 11.0567-11.0566c.1757-.1758.3867-.2637.6328-.2637.2578 0 .4746.0879.6504.2637.1757.1758.2636.3867.2636.6328 0 .2461-.0879.457-.2636.6328l-11.7071 11.707c-.082.0938-.1816.1641-.2988.211-.1055.0351-.2168.0527-.334.0527Z" fill="#1B127D"/></svg>