<svg width="43" height="45" fill="none" xmlns="http://www.w3.org/2000/svg"><path d="M18.9667 30.7755c-.6081.6159-1.2655.6689-1.7293-.0478-.3674-.5667-.6107-1.2822-.6828-1.9551-.2994-2.7939.0187-5.5375.8953-8.2146.3328-1.0141.147-1.3817-.8392-1.7786-.6722-.2707-1.2749-.1035-1.8321.5429-1.2976 1.5078-2.2518 3.2134-2.9039 5.0862-.1818.5229-.3421 1.0538-.5118 1.5808-.0415-.0106-.0829-.0226-.1243-.0332-.0508-.2296-.127-.4553-.1497-.6875-.1256-1.2676-.1937-2.4595.5225-3.6899 1.0491-1.8011 1.9471-3.7151 2.6741-5.6662.5385-1.4441.8592-3.013.9915-4.55.147-1.71218-.8004-2.85233-2.2651-3.22132-1.7145-.43137-3.11634.12344-3.91012 1.69628-.40091.79374-.68421 1.67634-.84992 2.55104-.58666 3.1059-.16437 6.1918.31939 9.2712.08552.5428.31938 1.1388.17907 1.6246-.45169 1.5675-1.38312 2.8682-2.5885 3.9991-1.21207-.819-2.20765-1.752-2.91591-2.9479-.21916-.3703-.37819-.8044-.44367-1.2291-.11225-.7194.3675-1.3658.96752-1.4282.64812-.069 1.16529.3982 1.26953 1.1627.03207.239.01737.4845.04142.7261.01871.1818.06548.361.10424.5601 1.07843-.4831.73499-2.8696-.41828-3.3899-1.04636-.4712-2.05129-.3544-2.956.2986-.892674.6451-1.294914 1.545-1.090453 2.6573C1.00753 25.25 2.01246 26.3702 3.07619 27.444c.44367.4473.93678.8468 1.3163 1.1866-.79245.88-1.61965 1.6591-2.27312 2.5617-.78443 1.083-1.06774 2.324-.4891 3.6221.90337 2.0255 3.95291 2.8537 5.97079 1.5689.51583-.3292 1.00092-.8415 1.27621-1.383.87397-1.7162.63343-3.4245-.35547-5.0278-.42496-.6889-.95281-1.314-1.42454-1.9551.68822-.888 1.37643-1.7773 2.1034-2.717.21783.7526.38888 1.4574.62541 2.1396.58533 1.6804 1.18403 3.3567 1.81473 5.0212.2005.5282.592.8162 1.2121.5348.6855-.3119.755-.4472.4771-1.245-.5025-1.444-.9194-2.8974-.8072-4.453.1069-1.4667.564-2.8046 1.3938-4.0244.0602 1.2835-.0254 2.5617.0802 3.824.1443 1.7188.6615 3.3288 1.9765 4.5685.7283.6862 1.6156.8163 2.5404.5734.5599-.1473.9782-.5429 1.0624-1.1521.0267-.1871-.0963-.3942-.1511-.5933-.155.0929-.3394.1566-.4623.2814h.004ZM6.7752 33.6398c-.30335.953-1.07442 1.4653-2.01521 1.3379-1.07175-.1447-1.68513-.7937-1.73725-1.833-.04143-.815.24455-1.533.76973-2.125.50514-.5707 1.09447-1.0671 1.63703-1.5861 1.27621 1.0751 1.79605 2.7926 1.34703 4.2062H6.7752Zm4.3712-19.713c.0989-.9689.4383-1.9232.755-2.8536.135-.3956.4477-.7712.7698-1.0512.2151-.18719.6307-.31859.8819-.24028.2018.06371.3822.47248.409.74328.0588.588.0775 1.1959 0 1.7812-.3742 2.7887-1.3965 5.3397-2.924 7.697-.0895-.012-.1777-.0239-.2672-.0358.1162-2.0149.1697-4.035.3755-6.0406Zm10.7175 15.8599c-.1216-.7274-.123-1.4906-.0695-2.2299.1603-2.2524.7777-4.4053 1.5408-6.5223.0681-.1898.1189-.4712.0267-.6185-.3995-.6398-1.1025-.665-1.7573-.726-.5706-.0531-.9234.284-1.0878.787-.1496.458-.2565.9318-.3407 1.4056-.409 2.3201-.7992 4.6363-.4544 7.0121.2633 1.8171 1.3831 3.017 2.9413 3.0249.7444.0106 1.4219-.1739 1.8762-.795.147-.2005.147-.5071.2139-.7659-.2459.0717-.5399.0797-.7297.2243-.9622.73-1.9577.4062-2.1595-.7977v.0014Zm20.7628 2.5855c-.1831.0916-.3942.1527-.5466.2814-.4878.4141-.906.9251-1.4366 1.2689-1.7532 1.1348-3.7431.5296-4.3671-1.2715-.1243-.3597-.1243-.6425.1937-.9411.4998-.4672.9542-.9862 1.3978-1.5091 1.1159-1.3154 2.2638-2.6188 2.8077-4.2951.1189-.3677.1858-.9106 0-1.1906-.9715-1.4654-2.6994-2.0892-4.14-.8216-.7791.6849-1.4807 1.5343-1.9764 2.4409-.9288 1.6989-1.0143 3.581-.731 5.4697.1283.8548-.0949 1.1057-.874 1.3565-.5466.1752-.9221-.1632-1.1212-.9211-.0561-.211-.0909-.4327-.1042-.6504-.1791-2.9957.5853-5.7591 2.1528-8.3022.3408-.5535.3154-.9623-.1336-1.4016-1.1239-1.1003-1.8361-1.1441-3.0429-.1646-.1029.0836-.1977.1765-.298.2641-1.3884 1.2119-2.4147 2.6705-3.0388 4.4173-.0388-.1129-.0495-.2124-.0374-.3093.1871-1.6034.9474-2.9612 1.8561-4.254.5079-.7233.4557-.9331-.3554-1.3538-.1764-.0916-.3568-.1792-.5439-.2442-.7911-.2801-1.2134-.1593-1.6076.572-.3542.6557-.6936 1.3353-.9168 2.0427-.7737 2.4502-.6428 4.9628-.3902 7.47.0521.5164.2071 1.0393.4076 1.5198.2472.5906.8018.6331 1.3604.5482.5947-.0916.4316-.5695.461-.9411.0187-.2416.004-.4858.0174-.7273.1203-2.0998.5319-4.1093 1.9083-5.799.2753-.3384.6-.6384.9702-1.0273-.3033 1.4587-.6388 2.7581-.8325 4.0774-.2245 1.537-.2379 3.0807.5332 4.5168.6655 1.2384 2.3011 2.1701 3.8967.9012.0749.081.131.1208.1591.1766.8232 1.6232 2.1729 2.4568 3.9756 2.3612 1.9965-.1062 3.4184-1.2198 4.3966-2.9054.0949-.1633.0067-.4314.0026-.6504l-.0026-.004Zm-2.9453-7.2284c.0908 1.1587-2.0433 4.5022-3.5921 5.6728-.4183-2.4435 2.0473-6.006 3.5921-5.6728Zm-19.9543-9.8326c.31.1181.5933.4274.7804.7168.4183.6463.731 1.3591 1.1546 2.0015.4837.734.6254.6929 1.2294.0637.4544-.4738.7671-1.176 1.5916-1.1627.8793.2734 1.752.5734 2.6393.8136 1.1011.2987 1.935-.2349 2.2116-1.3591.3114-.9689.6241-1.9365.9355-2.9054.7617-1.6459.5319-2.3772-1.0784-3.1271-2.4482-1.14019-5.0608-1.58351-7.7442-1.6512-.3113-.00796-.6267.16591-.9408.25484-.8352.58136-.8592 1.55296-1.1652 2.38916-.1992.6092-.3969 1.2197-.5961 1.829-.4423 1.16-.1657 1.6976.9836 2.1369h-.0013Zm.6989-3.6925c.0922-.2469.2245-.4871.2699-.742.131-.7366.5466-1.06578 1.2949-.97951 2.05.26011 3.9997.86141 5.908 1.63521.6014.2429.8045.5535.5386 1.1428-.3408.9636-.6829 1.9286-1.0237 2.8922-.2967.0809-.6067.2588-.8887.223-.5238-.0664-1.0476-.2111-1.5408-.4049-.8205-.3212-1.4205-.0902-1.8949.6-.2646.3384-.5292.6769-.902 1.1534-.2499-.6477-.5439-1.168-.6428-1.7228-.1377-.7738-.5145-1.2158-1.2802-1.3645-.147-.0279-.2807-.1221-.4196-.1845.1937-.7499.3888-1.4998.5826-2.2497l-.0013.0013Z" fill="#1B127D"/></svg>