<svg width="27" height="37" fill="none" xmlns="http://www.w3.org/2000/svg"><path d="M11.0625 1.70703c0-.25781-.0879-.47461-.2637-.65039-.1758-.175781-.3867-.263671-.6328-.263671-.24608 0-.45702.08789-.6328.263671-.17578.17578-.26367.39258-.26367.65039 0 .58594.02344 1.14844.07031 1.6875.0586.53906.12305 1.05469.19336 1.54688.08203.49218.16992.96093.26368 1.40625.10546.43359.19921.84961.28122 1.24804.1875.76172.3223 1.43555.4043 2.02149.0938.57421.041.98441-.1582 1.23051-.1758.2109-.50389.3808-.98436.5097-.46875.1172-1.08984.1934-1.86328.2285 0-.1523-.00586-.2988-.01758-.4394V3.5c0-.24609-.08789-.45703-.26367-.63281-.17578-.17578-.38672-.26367-.63281-.26367-.24609 0-.45703.08789-.63281.26367-.17578.17578-.26367.38672-.26367.63281V11.5859c-.78516-.0351-1.41797-.1113-1.89844-.2285-.46875-.1289-.78516-.2988-.94922-.5097-.19922-.2579-.25781-.6739-.17578-1.24809.09375-.57422.22851-1.24805.4043-2.02149.09374-.38671.1875-.80273.28124-1.24804.09376-.44531.18165-.91406.26368-1.40625.08203-.49219.14648-1.00195.19336-1.5293.05859-.53906.08789-1.10156.08789-1.6875 0-.25781-.08789-.47461-.26367-.65039-.17579-.175781-.39258-.263671-.6504-.263671-.24609 0-.45703.08789-.63281.263671-.17578.17578-.26367.39258-.26367.65039 0 1.06641-.08789 2.0625-.26367 2.98828-.16406.91407-.33399 1.74024-.50977 2.47852C1.06641 8.18164.914062 9.08398.832031 9.88086.75 10.6777.943359 11.375 1.41211 11.9727c.35156.4335.86133.7675 1.5293 1.0019.66797.2227 1.55859.3574 2.67187.4043-.04687 1.2539-.1289 2.4668-.24609 3.6387-.10547 1.1601-.22852 2.2793-.36914 3.3574-.14063 1.0781-.29297 2.1152-.45703 3.1113-.15235.9844-.30469 1.9219-.45704 2.8125-.19921 1.1953-.375 2.2852-.52734 3.2696-.15234.9843-.24609 1.875-.28125 2.6718-.02344.7852.02344 1.4766.14063 2.0743.11718.5859.3457 1.0839.68554 1.4941.28125.3281.62696.5742 1.03711.7383.41016.164.88477.2461 1.42383.2461s1.01367-.0821 1.42383-.2461c.42187-.1641.76758-.4102 1.03711-.7383.33984-.4102.56836-.9082.68554-1.4941.12891-.5977.17579-1.2891.14063-2.0743-.03516-.7968-.12891-1.6875-.28125-2.6718-.14063-.9961-.31055-2.086-.50977-3.2696-.15234-.9023-.31054-1.8457-.47461-2.83-.15234-.9844-.29882-2.0157-.43945-3.0938-.14062-1.0781-.26953-2.1973-.38672-3.3574-.10547-1.1719-.18164-2.3848-.22851-3.6387 1.10156-.0469 1.98632-.1816 2.6543-.4043.6797-.2226 1.1953-.5566 1.5469-1.0019.4687-.5977.6621-1.2891.58-2.07426-.082-.79688-.2402-1.69922-.4746-2.70703-.1757-.75-.3515-1.58203-.5273-2.4961-.1641-.92578-.2461-1.92187-.2461-2.98828ZM7.65234 34.6309c-.05859.082-.16992.164-.33398.2461-.15234.082-.4043.123-.75586.123s-.60352-.041-.75586-.123c-.15234-.0821-.26367-.1641-.33398-.2461-.19922-.2344-.32227-.6036-.36914-1.1075-.04688-.5156-.04102-1.125.01757-1.8281.0586-.7148.15235-1.5058.28125-2.373.14063-.8672.29297-1.7754.45704-2.7246.11718-.6915.23437-1.4063.35156-2.1446.11718-.7383.23437-1.5058.35156-2.3027.11719.7969.23438 1.5644.35156 2.3027.12891.7383.25196 1.4531.36914 2.1446.15235.9492.29883 1.8574.43946 2.7246.14062.8672.24023 1.6582.29882 2.373.0586.7031.06446 1.3125.01758 1.8281-.04687.5039-.17578.8731-.38672 1.1075ZM25.248 26.2988c-.1757-1.0547-.3574-2.1679-.5449-3.3398-.1875-1.1836-.3574-2.4258-.5097-3.7266-.1524-1.3008-.2813-2.6601-.3868-4.0781-.0937-1.4297-.1406-2.9121-.1406-4.4473V1.70703c0-.21094-.0644-.39258-.1933-.54492-.1172-.164063-.2754-.275391-.4747-.333985-.1992-.046875-.3925-.029297-.58.052734-.1875.070313-.334.193361-.4395.369141-.9023 1.59375-1.6933 3.32812-2.373 5.20312-.6797 1.87501-1.2481 3.63278-1.7051 5.27348-.457 1.6406-.8027 3.0293-1.0371 4.166-.2344 1.125-.3633 1.7402-.3867 1.8457-.0235.1289-.0176.2578.0175.3867.0352.1289.0938.2461.1758.3516.0938.1054.1992.1875.3164.2461.1172.0468.2461.0703.3867.0703h4.0079c-.0704.7031-.1524 1.3828-.2461 2.039-.0938.6563-.1875 1.3008-.2813 1.9336-.0937.6211-.1933 1.2305-.2988 1.8282-.0938.5859-.1875 1.1542-.2813 1.705-.1992 1.1953-.375 2.2852-.5273 3.2696-.1406.9843-.2285 1.875-.2637 2.6718-.0351.7852.0059 1.4766.1231 2.0743.1289.5859.3633 1.0839.7031 1.4941.2695.3281.6094.5742 1.0195.7383.4219.164.9024.2461 1.4414.2461.5391 0 1.0137-.0821 1.4239-.2461.4101-.1641.7558-.4102 1.0371-.7383.3398-.4102.5683-.9082.6855-1.4941.1172-.5977.1582-1.2891.1231-2.0743-.0235-.7968-.1114-1.6875-.2637-2.6718-.1524-.9961-.3281-2.086-.5274-3.2696ZM18.4629 17c.1172-.5273.2695-1.207.457-2.0391.1992-.8437.4395-1.7754.7207-2.7949.293-1.0195.6211-2.0918.9844-3.21678.375-1.125.791-2.23242 1.248-3.32227V10.707c0 .5508-.0117 1.0957-.0351 1.6348-.0117.5391-.0293 1.0723-.0527 1.5996-.0235.5274-.0528 1.0488-.0879 1.5645-.0352.5039-.0762 1.0019-.1231 1.4941h-3.1113Zm5.3965 17.6309c-.0703.082-.1817.164-.334.2461-.1524.082-.4043.123-.7559.123-.3515 0-.6093-.041-.7734-.123-.1523-.0821-.2578-.1641-.3164-.2461-.2109-.2344-.3399-.6036-.3867-1.1075-.0352-.5156-.0293-1.125.0175-1.8281.0586-.7148.1583-1.5058.2989-2.373.1406-.8672.2871-1.7754.4394-2.7246.1172-.6915.2344-1.4063.3516-2.1446.1289-.7383.2519-1.5058.3691-2.3027.1172.7969.2344 1.5644.3516 2.3027.1172.7383.2344 1.4531.3516 2.1446.164.9492.3105 1.8574.4394 2.7246.1406.8672.2402 1.6582.2988 2.373.0586.7031.0645 1.3125.0176 1.8281-.0469.5039-.1699.8731-.3691 1.1075Z" fill="#1B127D"/></svg>