<svg width="35" height="22" fill="none" xmlns="http://www.w3.org/2000/svg"><path d="M34.8047 14.9766 29.4082.580078c-.0586-.175781-.1699-.316406-.334-.421875C28.9219.0527344 28.752 0 28.5645 0H6.96094c-.1875 0-.35742.0527344-.50977.158203-.15234.105469-.26367.246094-.33398.421875L.720703 14.9766c-.082031.2226-.082031.4394 0 .6504.09375.2109.240235.3691.439457.4746L11.9707 21.498c.1875.1055.3867.1348.5977.0879.2109-.0586.3867-.1757.5273-.3515l4.6758-6.2403 4.6758 6.2403c.082.1172.1875.2109.3164.2812.1289.0586.2636.0879.4043.0879.0703 0 .1347-.0058.1933-.0176.0703-.0234.1407-.0527.211-.0879l10.7929-5.3964c.211-.1055.3575-.2637.4395-.4746.082-.211.082-.4278 0-.6504ZM7.59375 1.79297H27.9492l.668 1.81055H6.9082l.68555-1.81055ZM23.4316 19.5645l-4.9394-6.6094c-.082-.1055-.1875-.1875-.3164-.2461-.1289-.0703-.2637-.1055-.4043-.1055s-.2754.0352-.4043.1055c-.1289.0586-.2344.1406-.3164.2461l-4.957 6.6094-9.40435-4.711 3.55078-9.45702h8.24417c-.0469.07032-.0996.14063-.1582.21094-.0469.07031-.0938.14063-.1407.21094-.3164.50391-.5449.97266-.6855 1.40625-.1289.42187-.1992.63867-.2109.65039-.0586.24609-.0235.47461.1054.68555.1289.21093.3164.3457.5625.40429.2344.07032.4571.04102.668-.08789.2227-.1289.3633-.3164.4219-.5625 0 0 .0469-.15234.1406-.45703.1055-.30469.2695-.63867.4922-1.00195.2226-.36328.5039-.69727.8437-1.00195.3399-.30469.7559-.45704 1.2481-.45704.4805 0 .8906.15235 1.2305.45704.3515.29296.6328.62109.8437.98437.2227.36328.3867.69727.4922 1.00195.1055.30469.1582.46289.1582.47461.0469.21094.1523.38086.3164.50977.1641.11719.3516.17578.5625.17578h.1055c.0351-.01172.0703-.02344.1054-.03516.2461-.05859.4278-.19336.545-.40429.1289-.21094.164-.43946.1054-.68555 0-.01172-.0703-.22852-.2109-.65039-.1406-.43359-.3692-.90234-.6856-1.40625-.0468-.07031-.0937-.14063-.1406-.21094-.0469-.07031-.0937-.14062-.1406-.21094h8.2441l3.5332 9.45702-9.4043 4.711Z" fill="#1B127D"/></svg>