<svg width="35" height="28" fill="none" xmlns="http://www.w3.org/2000/svg"><path d="M33.627 27.207H1.23047c-.246095 0-.457032-.0879-.632814-.2636-.175781-.1758-.263672-.3926-.263672-.6504V8.29297c0-.24609.087891-.45703.263672-.63281.175782-.17578.386719-.26368.632814-.26368H33.627c.2578 0 .4746.0879.6503.26368.1758.17578.2637.38672.2637.63281V26.293c0 .2578-.0879.4746-.2637.6504-.1757.1757-.3925.2636-.6503.2636ZM2.12695 25.3965H32.7305V9.20703H2.12695V25.3965Zm18.91405-9h-6.3105v-1.793h6.3105c.2461 0 .457-.0879.6328-.2637.1758-.1757.2637-.3867.2637-.6328 0-.2578-.0879-.4746-.2637-.6504-.1758-.1757-.3867-.2636-.6328-.2636h-2.707v-.8965c0-.2461-.0879-.457-.2637-.6328-.1758-.1758-.3867-.2637-.6328-.2637-.2461 0-.457.0879-.6328.2637-.1758.1758-.2637.3867-.2637.6328v.8965h-2.707c-.2461 0-.457.0879-.6328.2636-.1758.1758-.2637.3926-.2637.6504v3.586c0 .2578.0879.4746.2637.6504.1758.1757.3867.2636.6328.2636h6.293V20h-6.293c-.2461 0-.457.0879-.6328.2637-.1758.1758-.2637.3867-.2637.6328 0 .2461.0879.457.2637.6328.1758.1758.3867.2637.6328.2637h2.707v.914c0 .2461.0879.4571.2637.6328.1758.1758.3867.2637.6328.2637.2461 0 .457-.0879.6328-.2637.1758-.1757.2637-.3867.2637-.6328v-.914h2.707c.2461 0 .457-.0879.6328-.2637.1758-.1758.2637-.3867.2637-.6328V17.293c0-.2461-.0879-.4571-.2637-.6328-.1758-.1758-.3867-.2637-.6328-.2637ZM31.834 5.60352H3.04102c-.25782 0-.47461-.0879-.6504-.26368-.17578-.17578-.26367-.38672-.26367-.63281 0-.25781.08789-.47461.26367-.65039.17579-.17578.39258-.26367.6504-.26367H31.834c.2461 0 .457.08789.6328.26367.1758.17578.2637.39258.2637.65039 0 .24609-.0879.45703-.2637.63281-.1758.17578-.3867.26368-.6328.26368ZM30.041 2H4.83398c-.24609 0-.45703-.08789-.63281-.26367-.17578-.17578-.26367-.38672-.26367-.63281 0-.246098.08789-.457036.26367-.632817.17578-.175781.38672-.263672.63281-.263672H30.041c.2461 0 .457.087891.6328.263672.1758.175781.2637.386719.2637.632817 0 .24609-.0879.45703-.2637.63281C30.498 1.91211 30.2871 2 30.041 2Z" fill="#1B127D"/></svg>