<svg width="37" height="26" fill="none" xmlns="http://www.w3.org/2000/svg"><path d="M33.959.207031H3.37305c-.75 0-1.38867.263672-1.91602.791016C.929688 1.52539.666016 2.1582.666016 2.89648V22.707c0 .7383.263672 1.3711.791014 1.8985.52735.5273 1.16602.791 1.91602.791H33.959c.75 0 1.3887-.2637 1.916-.791.5273-.5274.791-1.1602.791-1.8985V2.89648c0-.73828-.2637-1.37109-.791-1.898433-.5273-.527344-1.166-.791016-1.916-.791016ZM3.37305 2H33.959c.2578 0 .4746.08789.6504.26367.1758.17578.2636.38672.2636.63281v.89649H2.45898v-.89649c0-.24609.0879-.45703.26368-.63281C2.89844 2.08789 3.11523 2 3.37305 2ZM34.873 5.60352V11H2.45898V5.60352H34.873Zm-.914 17.99998H3.37305c-.25782 0-.47461-.0879-.65039-.2637-.17578-.1757-.26368-.3867-.26368-.6328v-9.914H34.873v9.914c0 .2461-.0878.4571-.2636.6328-.1758.1758-.3926.2637-.6504.2637ZM31.2695 20h1.793v1.793h-1.793V20Zm-7.207 0h5.3965v1.793h-5.3965V20Zm-5.3965 0h3.6035v1.793H18.666V20Z" fill="#1B127D"/></svg>