<svg width="37" height="45" fill="none" xmlns="http://www.w3.org/2000/svg"><path d="M33.625 8.39648h-4.5V7.5c0-.24609-.0879-.45703-.2637-.63281-.1758-.17578-.3867-.26367-.6328-.26367-.2461 0-.457.08789-.6328.26367-.1758.17578-.2637.38672-.2637.63281v.89648H9.33203V7.5c0-.24609-.08789-.45703-.26367-.63281-.17578-.17578-.38672-.26367-.63281-.26367-.2461 0-.45703.08789-.63282.26367-.17578.17578-.26367.38672-.26367.63281v.89648h-4.5c-.75 0-1.38867.26368-1.91601.79102-.527347.52734-.791019 1.166-.791019 1.916V36.293c0 .75.263672 1.3886.791019 1.916.52734.5273 1.16601.791 1.91601.791H33.625c.75 0 1.3887-.2637 1.916-.791.5274-.5274.791-1.166.791-1.916V11.1035c0-.75-.2636-1.38866-.791-1.916-.5273-.52734-1.166-.79102-1.916-.79102ZM3.03906 10.207h4.5v2.6895c0 .2461.08789.457.26367.6328.17579.1758.38672.2637.63282.2637.24609 0 .45703-.0879.63281-.2637.17578-.1758.26367-.3867.26367-.6328V10.207H27.332v2.6895c0 .2461.0879.457.2637.6328.1758.1758.3867.2637.6328.2637.2461 0 .457-.0879.6328-.2637.1758-.1758.2637-.3867.2637-.6328V10.207h4.5c.2578 0 .4746.0879.6504.2637.1758.1758.2637.3867.2637.6328v4.5H2.125v-4.5c0-.2461.08789-.457.26367-.6328.17578-.1758.39258-.2637.65039-.2637Zm30.58594 27H3.03906c-.25781 0-.47461-.0879-.65039-.2636-.17578-.1758-.26367-.3926-.26367-.6504V17.3965h32.4141V36.293c0 .2578-.0879.4746-.2637.6504-.1758.1757-.3926.2636-.6504.2636ZM13.832 22.793h-1.7929c-.2579 0-.4746-.0879-.6504-.2637-.1758-.1758-.2637-.3867-.2637-.6328 0-.2461.0879-.457.2637-.6328.1758-.1758.3925-.2637.6504-.2637h1.7929c.2461 0 .4571.0879.6328.2637.1758.1758.2637.3867.2637.6328 0 .2461-.0879.457-.2637.6328-.1757.1758-.3867.2637-.6328.2637Zm5.3965 0h-1.793c-.246 0-.457-.0879-.6328-.2637-.1757-.1758-.2636-.3867-.2636-.6328 0-.2461.0879-.457.2636-.6328.1758-.1758.3868-.2637.6328-.2637h1.793c.2461 0 .457.0879.6328.2637.1758.1758.2637.3867.2637.6328 0 .2461-.0879.457-.2637.6328-.1758.1758-.3867.2637-.6328.2637Zm5.3965 0h-1.793c-.2461 0-.457-.0879-.6328-.2637-.1758-.1758-.2637-.3867-.2637-.6328 0-.2461.0879-.457.2637-.6328.1758-.1758.3867-.2637.6328-.2637h1.793c.2578 0 .4746.0879.6504.2637.1758.1758.2637.3867.2637.6328 0 .2461-.0879.457-.2637.6328-.1758.1758-.3926.2637-.6504.2637Zm5.4141 0h-1.8106c-.2461 0-.457-.0879-.6328-.2637-.1758-.1758-.2637-.3867-.2637-.6328 0-.2461.0879-.457.2637-.6328.1758-.1758.3867-.2637.6328-.2637h1.8106c.2461 0 .457.0879.6328.2637.1758.1758.2636.3867.2636.6328 0 .2461-.0878.457-.2636.6328s-.3867.2637-.6328.2637ZM8.43555 26.3965H6.625c-.24609 0-.45703-.0879-.63281-.2637-.17578-.1758-.26367-.3867-.26367-.6328 0-.2461.08789-.457.26367-.6328.17578-.1758.38672-.2637.63281-.2637h1.81055c.24609 0 .45703.0879.63281.2637.17578.1758.26367.3867.26367.6328 0 .2461-.08789.457-.26367.6328-.17578.1758-.38672.2637-.63281.2637Zm5.39645 0h-1.7929c-.2579 0-.4746-.0879-.6504-.2637-.1758-.1758-.2637-.3867-.2637-.6328 0-.2461.0879-.457.2637-.6328.1758-.1758.3925-.2637.6504-.2637h1.7929c.2461 0 .4571.0879.6328.2637.1758.1758.2637.3867.2637.6328 0 .2461-.0879.457-.2637.6328-.1757.1758-.3867.2637-.6328.2637Zm5.3965 0h-1.793c-.246 0-.457-.0879-.6328-.2637-.1757-.1758-.2636-.3867-.2636-.6328 0-.2461.0879-.457.2636-.6328.1758-.1758.3868-.2637.6328-.2637h1.793c.2461 0 .457.0879.6328.2637.1758.1758.2637.3867.2637.6328 0 .2461-.0879.457-.2637.6328-.1758.1758-.3867.2637-.6328.2637Zm5.3965 0h-1.793c-.2461 0-.457-.0879-.6328-.2637-.1758-.1758-.2637-.3867-.2637-.6328 0-.2461.0879-.457.2637-.6328.1758-.1758.3867-.2637.6328-.2637h1.793c.2578 0 .4746.0879.6504.2637.1758.1758.2637.3867.2637.6328 0 .2461-.0879.457-.2637.6328-.1758.1758-.3926.2637-.6504.2637Zm5.4141 0h-1.8106c-.2461 0-.457-.0879-.6328-.2637-.1758-.1758-.2637-.3867-.2637-.6328 0-.2461.0879-.457.2637-.6328.1758-.1758.3867-.2637.6328-.2637h1.8106c.2461 0 .457.0879.6328.2637.1758.1758.2636.3867.2636.6328 0 .2461-.0878.457-.2636.6328s-.3867.2637-.6328.2637ZM8.43555 30H6.625c-.24609 0-.45703-.0879-.63281-.2637-.17578-.1758-.26367-.3867-.26367-.6328 0-.2461.08789-.457.26367-.6328.17578-.1758.38672-.2637.63281-.2637h1.81055c.24609 0 .45703.0879.63281.2637.17578.1758.26367.3867.26367.6328 0 .2461-.08789.457-.26367.6328-.17578.1758-.38672.2637-.63281.2637Zm5.39645 0h-1.7929c-.2579 0-.4746-.0879-.6504-.2637-.1758-.1758-.2637-.3867-.2637-.6328 0-.2461.0879-.457.2637-.6328.1758-.1758.3925-.2637.6504-.2637h1.7929c.2461 0 .4571.0879.6328.2637.1758.1758.2637.3867.2637.6328 0 .2461-.0879.457-.2637.6328-.1757.1758-.3867.2637-.6328.2637Zm5.3965 0h-1.793c-.246 0-.457-.0879-.6328-.2637-.1757-.1758-.2636-.3867-.2636-.6328 0-.2461.0879-.457.2636-.6328.1758-.1758.3868-.2637.6328-.2637h1.793c.2461 0 .457.0879.6328.2637.1758.1758.2637.3867.2637.6328 0 .2461-.0879.457-.2637.6328-.1758.1758-.3867.2637-.6328.2637Zm5.3965 0h-1.793c-.2461 0-.457-.0879-.6328-.2637-.1758-.1758-.2637-.3867-.2637-.6328 0-.2461.0879-.457.2637-.6328.1758-.1758.3867-.2637.6328-.2637h1.793c.2578 0 .4746.0879.6504.2637.1758.1758.2637.3867.2637.6328 0 .2461-.0879.457-.2637.6328-.1758.1758-.3926.2637-.6504.2637Zm5.4141 0h-1.8106c-.2461 0-.457-.0879-.6328-.2637-.1758-.1758-.2637-.3867-.2637-.6328 0-.2461.0879-.457.2637-.6328.1758-.1758.3867-.2637.6328-.2637h1.8106c.2461 0 .457.0879.6328.2637.1758.1758.2636.3867.2636.6328 0 .2461-.0878.457-.2636.6328S30.2852 30 30.0391 30ZM8.43555 33.6035H6.625c-.24609 0-.45703-.0879-.63281-.2637-.17578-.1757-.26367-.3867-.26367-.6328 0-.2578.08789-.4746.26367-.6504.17578-.1757.38672-.2636.63281-.2636h1.81055c.24609 0 .45703.0879.63281.2636.17578.1758.26367.3926.26367.6504 0 .2461-.08789.4571-.26367.6328-.17578.1758-.38672.2637-.63281.2637Zm5.39645 0h-1.7929c-.2579 0-.4746-.0879-.6504-.2637-.1758-.1757-.2637-.3867-.2637-.6328 0-.2578.0879-.4746.2637-.6504.1758-.1757.3925-.2636.6504-.2636h1.7929c.2461 0 .4571.0879.6328.2636.1758.1758.2637.3926.2637.6504 0 .2461-.0879.4571-.2637.6328-.1757.1758-.3867.2637-.6328.2637Zm5.3965 0h-1.793c-.246 0-.457-.0879-.6328-.2637-.1757-.1757-.2636-.3867-.2636-.6328 0-.2578.0879-.4746.2636-.6504.1758-.1757.3868-.2636.6328-.2636h1.793c.2461 0 .457.0879.6328.2636.1758.1758.2637.3926.2637.6504 0 .2461-.0879.4571-.2637.6328-.1758.1758-.3867.2637-.6328.2637Zm5.3965 0h-1.793c-.2461 0-.457-.0879-.6328-.2637-.1758-.1757-.2637-.3867-.2637-.6328 0-.2578.0879-.4746.2637-.6504.1758-.1757.3867-.2636.6328-.2636h1.793c.2578 0 .4746.0879.6504.2636.1758.1758.2637.3926.2637.6504 0 .2461-.0879.4571-.2637.6328-.1758.1758-.3926.2637-.6504.2637Zm5.4141 0h-1.8106c-.2461 0-.457-.0879-.6328-.2637-.1758-.1757-.2637-.3867-.2637-.6328 0-.2578.0879-.4746.2637-.6504.1758-.1757.3867-.2636.6328-.2636h1.8106c.2461 0 .457.0879.6328.2636.1758.1758.2636.3926.2636.6504 0 .2461-.0878.4571-.2636.6328-.1758.1758-.3867.2637-.6328.2637Z" fill="#1B127D"/></svg>