<svg width="26" height="37" viewBox="0 0 26 37" fill="none" xmlns="http://www.w3.org/2000/svg">
<path d="M10.8965 1.70703C10.8965 1.44922 10.8086 1.23242 10.6328 1.05664C10.457 0.880859 10.2461 0.792969 10 0.792969C9.75391 0.792969 9.54297 0.880859 9.36719 1.05664C9.19141 1.23242 9.10352 1.44922 9.10352 1.70703C9.10352 2.29297 9.12695 2.85547 9.17383 3.39453C9.23242 3.93359 9.29688 4.44922 9.36719 4.94141C9.44922 5.43359 9.53711 5.90234 9.63086 6.34766C9.73633 6.78125 9.83008 7.19727 9.91211 7.5957C10.0996 8.35742 10.2344 9.03125 10.3164 9.61719C10.4102 10.1914 10.3574 10.6016 10.1582 10.8477C9.98242 11.0586 9.6543 11.2285 9.17383 11.3574C8.70508 11.4746 8.08398 11.5508 7.31055 11.5859C7.31055 11.4336 7.30469 11.2871 7.29297 11.1465C7.29297 10.9941 7.29297 10.8477 7.29297 10.707V3.5C7.29297 3.25391 7.20508 3.04297 7.0293 2.86719C6.85352 2.69141 6.64258 2.60352 6.39648 2.60352C6.15039 2.60352 5.93945 2.69141 5.76367 2.86719C5.58789 3.04297 5.5 3.25391 5.5 3.5V10.707C5.5 10.8477 5.5 10.9941 5.5 11.1465C5.5 11.2871 5.5 11.4336 5.5 11.5859C4.71484 11.5508 4.08203 11.4746 3.60156 11.3574C3.13281 11.2285 2.81641 11.0586 2.65234 10.8477C2.45312 10.5898 2.39453 10.1738 2.47656 9.59961C2.57031 9.02539 2.70508 8.35156 2.88086 7.57812C2.97461 7.19141 3.06836 6.77539 3.16211 6.33008C3.25586 5.88477 3.34375 5.41602 3.42578 4.92383C3.50781 4.43164 3.57227 3.92188 3.61914 3.39453C3.67773 2.85547 3.70703 2.29297 3.70703 1.70703C3.70703 1.44922 3.61914 1.23242 3.44336 1.05664C3.26758 0.880859 3.05078 0.792969 2.79297 0.792969C2.54688 0.792969 2.33594 0.880859 2.16016 1.05664C1.98438 1.23242 1.89648 1.44922 1.89648 1.70703C1.89648 2.77344 1.80859 3.76953 1.63281 4.69531C1.46875 5.60938 1.29883 6.43555 1.12305 7.17383C0.900391 8.18164 0.748047 9.08398 0.666016 9.88086C0.583984 10.6777 0.777344 11.375 1.24609 11.9727C1.59766 12.4062 2.10742 12.7402 2.77539 12.9746C3.44336 13.1973 4.33398 13.332 5.44727 13.3789C5.40039 14.6328 5.31836 15.8457 5.20117 17.0176C5.0957 18.1777 4.97266 19.2969 4.83203 20.375C4.69141 21.4531 4.53906 22.4902 4.375 23.4863C4.22266 24.4707 4.07031 25.4082 3.91797 26.2988C3.71875 27.4941 3.54297 28.584 3.39062 29.5684C3.23828 30.5527 3.14453 31.4434 3.10938 32.2402C3.08594 33.0254 3.13281 33.7168 3.25 34.3145C3.36719 34.9004 3.5957 35.3984 3.93555 35.8086C4.2168 36.1367 4.5625 36.3828 4.97266 36.5469C5.38281 36.7109 5.85742 36.793 6.39648 36.793C6.93555 36.793 7.41016 36.7109 7.82031 36.5469C8.24219 36.3828 8.58789 36.1367 8.85742 35.8086C9.19727 35.3984 9.42578 34.9004 9.54297 34.3145C9.67188 33.7168 9.71875 33.0254 9.68359 32.2402C9.64844 31.4434 9.55469 30.5527 9.40234 29.5684C9.26172 28.5723 9.0918 27.4824 8.89258 26.2988C8.74023 25.3965 8.58203 24.4531 8.41797 23.4688C8.26562 22.4844 8.11914 21.4531 7.97852 20.375C7.83789 19.2969 7.70898 18.1777 7.5918 17.0176C7.48633 15.8457 7.41016 14.6328 7.36328 13.3789C8.46484 13.332 9.34961 13.1973 10.0176 12.9746C10.6973 12.752 11.2129 12.418 11.5645 11.9727C12.0332 11.375 12.2266 10.6836 12.1445 9.89844C12.0625 9.10156 11.9043 8.19922 11.6699 7.19141C11.4941 6.44141 11.3184 5.60938 11.1426 4.69531C10.9785 3.76953 10.8965 2.77344 10.8965 1.70703ZM7.48633 34.6309C7.42773 34.7129 7.31641 34.7949 7.15234 34.877C7 34.959 6.74805 35 6.39648 35C6.04492 35 5.79297 34.959 5.64062 34.877C5.48828 34.7949 5.37695 34.7129 5.30664 34.6309C5.10742 34.3965 4.98438 34.0273 4.9375 33.5234C4.89062 33.0078 4.89648 32.3984 4.95508 31.6953C5.01367 30.9805 5.10742 30.1895 5.23633 29.3223C5.37695 28.4551 5.5293 27.5469 5.69336 26.5977C5.81055 25.9062 5.92773 25.1914 6.04492 24.4531C6.16211 23.7148 6.2793 22.9473 6.39648 22.1504C6.51367 22.9473 6.63086 23.7148 6.74805 24.4531C6.87695 25.1914 7 25.9062 7.11719 26.5977C7.26953 27.5469 7.41602 28.4551 7.55664 29.3223C7.69727 30.1895 7.79688 30.9805 7.85547 31.6953C7.91406 32.3984 7.91992 33.0078 7.87305 33.5234C7.82617 34.0273 7.69727 34.3965 7.48633 34.6309ZM25.082 26.2988C24.9062 25.2441 24.7246 24.1309 24.5371 22.959C24.3496 21.7754 24.1797 20.5332 24.0273 19.2324C23.875 17.9316 23.7461 16.5723 23.6406 15.1543C23.5469 13.7246 23.5 12.2422 23.5 10.707V1.70703C23.5 1.49609 23.4355 1.31445 23.3066 1.16211C23.1895 0.998047 23.0312 0.886719 22.832 0.828125C22.6328 0.78125 22.4395 0.798828 22.252 0.880859C22.0645 0.951172 21.918 1.07422 21.8125 1.25C20.9102 2.84375 20.1191 4.57812 19.4395 6.45312C18.7598 8.32813 18.1914 10.0859 17.7344 11.7266C17.2773 13.3672 16.9316 14.7559 16.6973 15.8926C16.4629 17.0176 16.334 17.6328 16.3105 17.7383C16.2871 17.8672 16.293 17.9961 16.3281 18.125C16.3633 18.2539 16.4219 18.3711 16.5039 18.4766C16.5977 18.582 16.7031 18.6641 16.8203 18.7227C16.9375 18.7695 17.0664 18.793 17.207 18.793H21.2148C21.1445 19.4961 21.0625 20.1758 20.9688 20.832C20.875 21.4883 20.7812 22.1328 20.6875 22.7656C20.5938 23.3867 20.4941 23.9961 20.3887 24.5938C20.2949 25.1797 20.2012 25.748 20.1074 26.2988C19.9082 27.4941 19.7324 28.584 19.5801 29.5684C19.4395 30.5527 19.3516 31.4434 19.3164 32.2402C19.2812 33.0254 19.3223 33.7168 19.4395 34.3145C19.5684 34.9004 19.8027 35.3984 20.1426 35.8086C20.4121 36.1367 20.752 36.3828 21.1621 36.5469C21.584 36.7109 22.0645 36.793 22.6035 36.793C23.1426 36.793 23.6172 36.7109 24.0273 36.5469C24.4375 36.3828 24.7832 36.1367 25.0645 35.8086C25.4043 35.3984 25.6328 34.9004 25.75 34.3145C25.8672 33.7168 25.9082 33.0254 25.873 32.2402C25.8496 31.4434 25.7617 30.5527 25.6094 29.5684C25.457 28.5723 25.2812 27.4824 25.082 26.2988ZM18.2969 17C18.4141 16.4727 18.5664 15.793 18.7539 14.9609C18.9531 14.1172 19.1934 13.1855 19.4746 12.166C19.7676 11.1465 20.0957 10.0742 20.459 8.94922C20.834 7.82422 21.25 6.7168 21.707 5.62695V10.707C21.707 11.2578 21.6953 11.8027 21.6719 12.3418C21.6602 12.8809 21.6426 13.4141 21.6191 13.9414C21.5957 14.4688 21.5664 14.9902 21.5312 15.5059C21.4961 16.0098 21.4551 16.5078 21.4082 17H18.2969ZM23.6934 34.6309C23.623 34.7129 23.5117 34.7949 23.3594 34.877C23.207 34.959 22.9551 35 22.6035 35C22.252 35 21.9941 34.959 21.8301 34.877C21.6777 34.7949 21.5723 34.7129 21.5137 34.6309C21.3027 34.3965 21.1738 34.0273 21.127 33.5234C21.0918 33.0078 21.0977 32.3984 21.1445 31.6953C21.2031 30.9805 21.3027 30.1895 21.4434 29.3223C21.584 28.4551 21.7305 27.5469 21.8828 26.5977C22 25.9062 22.1172 25.1914 22.2344 24.4531C22.3633 23.7148 22.4863 22.9473 22.6035 22.1504C22.7207 22.9473 22.8379 23.7148 22.9551 24.4531C23.0723 25.1914 23.1895 25.9062 23.3066 26.5977C23.4707 27.5469 23.6172 28.4551 23.7461 29.3223C23.8867 30.1895 23.9863 30.9805 24.0449 31.6953C24.1035 32.3984 24.1094 33.0078 24.0625 33.5234C24.0156 34.0273 23.8926 34.3965 23.6934 34.6309Z" fill="#F2F4F6"/>
</svg>
