<svg width="30" height="37" viewBox="0 0 30 37" fill="none" xmlns="http://www.w3.org/2000/svg">
<path d="M26.707 36.793H3.29297C2.55469 36.793 1.92188 36.5293 1.39453 36.002C0.867188 35.4746 0.603516 34.8418 0.603516 34.1035V3.5C0.603516 2.75 0.867188 2.11133 1.39453 1.58398C1.92188 1.05664 2.55469 0.792969 3.29297 0.792969H26.707C27.4453 0.792969 28.0781 1.05664 28.6055 1.58398C29.1328 2.11133 29.3965 2.75 29.3965 3.5V34.1035C29.3965 34.8418 29.1328 35.4746 28.6055 36.002C28.0781 36.5293 27.4453 36.793 26.707 36.793ZM3.29297 2.60352C3.04688 2.60352 2.83594 2.69141 2.66016 2.86719C2.48438 3.04297 2.39648 3.25391 2.39648 3.5V34.1035C2.39648 34.3496 2.48438 34.5605 2.66016 34.7363C2.83594 34.9121 3.04688 35 3.29297 35H26.707C26.9531 35 27.1641 34.9121 27.3398 34.7363C27.5156 34.5605 27.6035 34.3496 27.6035 34.1035V3.5C27.6035 3.25391 27.5156 3.04297 27.3398 2.86719C27.1641 2.69141 26.9531 2.60352 26.707 2.60352H3.29297ZM15.8965 33.207H14.1035C13.8574 33.207 13.6465 33.1191 13.4707 32.9434C13.2949 32.7676 13.207 32.5508 13.207 32.293C13.207 32.0469 13.2949 31.8359 13.4707 31.6602C13.6465 31.4844 13.8574 31.3965 14.1035 31.3965H15.8965C16.1426 31.3965 16.3535 31.4844 16.5293 31.6602C16.7051 31.8359 16.793 32.0469 16.793 32.293C16.793 32.5508 16.7051 32.7676 16.5293 32.9434C16.3535 33.1191 16.1426 33.207 15.8965 33.207ZM24.8965 29.6035H5.10352C4.85742 29.6035 4.64648 29.5156 4.4707 29.3398C4.29492 29.1641 4.20703 28.9531 4.20703 28.707V5.29297C4.20703 5.04688 4.29492 4.83594 4.4707 4.66016C4.64648 4.48438 4.85742 4.39648 5.10352 4.39648H24.8965C25.1426 4.39648 25.3535 4.48438 25.5293 4.66016C25.7051 4.83594 25.793 5.04688 25.793 5.29297V28.707C25.793 28.9531 25.7051 29.1641 25.5293 29.3398C25.3535 29.5156 25.1426 29.6035 24.8965 29.6035ZM6 27.793H24V6.20703H6V27.793Z" fill="#F2F4F6"/>
</svg>
