<svg width="35" height="33" viewBox="0 0 35 33" fill="none" xmlns="http://www.w3.org/2000/svg">
<path d="M32 0.396484H15.793C15.0547 0.396484 14.4219 0.660156 13.8945 1.1875C13.3672 1.71484 13.1035 2.35352 13.1035 3.10352V8.5C13.1035 8.74609 13.1914 8.95703 13.3672 9.13281C13.543 9.30859 13.7539 9.39648 14 9.39648C14.2461 9.39648 14.457 9.30859 14.6328 9.13281C14.8086 8.95703 14.8965 8.74609 14.8965 8.5V3.10352C14.8965 2.85742 14.9844 2.64648 15.1602 2.4707C15.3359 2.29492 15.5469 2.20703 15.793 2.20703H29.416L22.5078 5.16016C21.8867 5.42969 21.3594 5.88672 20.9258 6.53125C20.5039 7.17578 20.293 7.83203 20.293 8.5V25.6035H15.793C15.5469 25.6035 15.3359 25.5156 15.1602 25.3398C14.9844 25.1641 14.8965 24.9531 14.8965 24.707V19.293C14.8965 19.0469 14.8086 18.8359 14.6328 18.6602C14.457 18.4844 14.2461 18.3965 14 18.3965C13.7539 18.3965 13.543 18.4844 13.3672 18.6602C13.1914 18.8359 13.1035 19.0469 13.1035 19.293V24.707C13.1035 25.4453 13.3672 26.0781 13.8945 26.6055C14.4219 27.1328 15.0547 27.3965 15.793 27.3965H20.293V30.1035C20.293 30.4902 20.3691 30.8418 20.5215 31.1582C20.6855 31.4746 20.9082 31.7266 21.1895 31.9141C21.3418 32.0195 21.5059 32.0957 21.6816 32.1426C21.8691 32.2012 22.0566 32.2305 22.2441 32.2305C22.4082 32.2305 22.5664 32.2129 22.7188 32.1777C22.8828 32.1426 23.0469 32.0898 23.2109 32.0195L32.4922 28.0293C33.1133 27.7715 33.6348 27.3203 34.0566 26.6758C34.4902 26.0312 34.707 25.375 34.707 24.707V3.10352C34.707 2.35352 34.4434 1.71484 33.916 1.1875C33.3887 0.660156 32.75 0.396484 32 0.396484ZM32.8965 24.707C32.8965 25.0234 32.7852 25.3516 32.5625 25.6914C32.3398 26.0312 32.082 26.2598 31.7891 26.377L22.5078 30.3672C22.4141 30.4023 22.3379 30.4199 22.2793 30.4199C22.2324 30.4199 22.1973 30.4199 22.1738 30.4199C22.1621 30.4082 22.1445 30.3789 22.1211 30.332C22.1094 30.2734 22.1035 30.1973 22.1035 30.1035V8.5C22.1035 8.18359 22.2148 7.85547 22.4375 7.51562C22.6602 7.17578 22.918 6.94141 23.2109 6.8125L32.8086 2.69922C32.832 2.75781 32.8496 2.82227 32.8613 2.89258C32.8848 2.96289 32.8965 3.0332 32.8965 3.10352V24.707ZM15.5293 13.2637L10.1328 7.86719C9.95703 7.69141 9.74609 7.60352 9.5 7.60352C9.25391 7.60352 9.04297 7.69141 8.86719 7.86719C8.69141 8.04297 8.60352 8.25391 8.60352 8.5C8.60352 8.74609 8.69141 8.95703 8.86719 9.13281L12.7344 13H1.39648C1.15039 13 0.939453 13.0879 0.763672 13.2637C0.587891 13.4395 0.5 13.6504 0.5 13.8965C0.5 14.1426 0.587891 14.3535 0.763672 14.5293C0.939453 14.7051 1.15039 14.793 1.39648 14.793H12.7344L8.86719 18.6602C8.69141 18.8359 8.60352 19.0527 8.60352 19.3105C8.60352 19.5566 8.69141 19.7676 8.86719 19.9434C8.94922 20.0254 9.04297 20.0898 9.14844 20.1367C9.26562 20.1836 9.38281 20.207 9.5 20.207C9.61719 20.207 9.72852 20.1836 9.83398 20.1367C9.95117 20.0898 10.0508 20.0254 10.1328 19.9434L15.5293 14.5293C15.7051 14.3535 15.793 14.1426 15.793 13.8965C15.793 13.6504 15.7051 13.4395 15.5293 13.2637Z" fill="#F2F4F6"/>
</svg>
