<svg width="37" height="37" viewBox="0 0 37 37" fill="none" xmlns="http://www.w3.org/2000/svg">
<path d="M35.1035 36.793H0.896484C0.650391 36.793 0.439453 36.7051 0.263672 36.5293C0.0878906 36.3535 0 36.1426 0 35.8965V1.70703C0 1.49609 0.0644531 1.30859 0.193359 1.14453C0.322266 0.980469 0.486328 0.875 0.685547 0.828125C0.896484 0.78125 1.0957 0.804688 1.2832 0.898438C1.4707 0.980469 1.61133 1.11523 1.70508 1.30273L3.49805 4.90625C3.61523 5.11719 3.63281 5.3457 3.55078 5.5918C3.46875 5.82617 3.31641 5.99609 3.09375 6.10156C2.88281 6.21875 2.6543 6.23633 2.4082 6.1543C2.17383 6.07227 2.00391 5.91992 1.89844 5.69727L1.79297 5.50391V35H31.2891L31.0957 34.9121C30.873 34.7949 30.7207 34.6191 30.6387 34.3848C30.5684 34.1504 30.5859 33.9219 30.6914 33.6992C30.8086 33.4766 30.9844 33.3301 31.2188 33.2598C31.4531 33.1777 31.6816 33.1895 31.9043 33.2949L35.5078 35.0879C35.6953 35.1816 35.8301 35.3223 35.9121 35.5098C36.0059 35.709 36.0293 35.9082 35.9824 36.1074C35.9355 36.3066 35.8301 36.4707 35.666 36.5996C35.502 36.7285 35.3145 36.793 35.1035 36.793ZM30.6035 8.89648C30.6035 8.1582 30.3398 7.52539 29.8125 6.99805C29.2852 6.4707 28.6465 6.20703 27.8965 6.20703C27.1582 6.20703 26.5254 6.4707 25.998 6.99805C25.4707 7.52539 25.207 8.1582 25.207 8.89648C25.207 9.33008 25.3008 9.73438 25.4883 10.1094C25.6758 10.4727 25.9277 10.7773 26.2441 11.0234L22.4473 22.3965C22.2012 22.4082 21.9609 22.4492 21.7266 22.5195C21.4922 22.5898 21.2754 22.6836 21.0762 22.8008L16.0488 18.793C16.0957 18.6523 16.1309 18.5059 16.1543 18.3535C16.1895 18.2012 16.207 18.0488 16.207 17.8965C16.207 17.1582 15.9434 16.5254 15.416 15.998C14.8887 15.4707 14.25 15.207 13.5 15.207C12.75 15.207 12.1113 15.4707 11.584 15.998C11.0566 16.5254 10.793 17.1582 10.793 17.8965C10.793 18.2598 10.8633 18.6055 11.0039 18.9336C11.1445 19.25 11.3262 19.5312 11.5488 19.7773L8.4375 26.0176C8.37891 26.0176 8.32031 26.0176 8.26172 26.0176C8.21484 26.0059 8.16211 26 8.10352 26C7.35352 26 6.71484 26.2637 6.1875 26.791C5.66016 27.3184 5.39648 27.957 5.39648 28.707C5.39648 29.4453 5.66016 30.0781 6.1875 30.6055C6.71484 31.1328 7.35352 31.3965 8.10352 31.3965C8.8418 31.3965 9.47461 31.1328 10.002 30.6055C10.5293 30.0781 10.793 29.4453 10.793 28.707C10.793 28.3438 10.7227 28.0039 10.582 27.6875C10.4531 27.3594 10.2715 27.0723 10.0371 26.8262L13.166 20.5859C13.2246 20.5859 13.2773 20.5918 13.3242 20.6035C13.3828 20.6035 13.4414 20.6035 13.5 20.6035C13.7578 20.6035 14.0039 20.5684 14.2383 20.498C14.4844 20.4277 14.7129 20.3281 14.9238 20.1992L19.9512 24.207C19.9043 24.3477 19.8633 24.4941 19.8281 24.6465C19.8047 24.7988 19.793 24.9512 19.793 25.1035C19.793 25.8418 20.0566 26.4746 20.584 27.002C21.1113 27.5293 21.75 27.793 22.5 27.793C23.25 27.793 23.8887 27.5293 24.416 27.002C24.9434 26.4746 25.207 25.8418 25.207 25.1035C25.207 24.6699 25.1074 24.2715 24.9082 23.9082C24.7207 23.5332 24.4688 23.2227 24.1523 22.9766L27.9492 11.6035C28.6875 11.5918 29.3145 11.3223 29.8301 10.7949C30.3457 10.2676 30.6035 9.63477 30.6035 8.89648ZM27.8965 8C28.1426 8 28.3535 8.08789 28.5293 8.26367C28.7051 8.43945 28.793 8.65039 28.793 8.89648C28.793 9.14258 28.7051 9.35352 28.5293 9.5293C28.3535 9.70508 28.1426 9.79297 27.8965 9.79297C27.6504 9.79297 27.4395 9.70508 27.2637 9.5293C27.0879 9.35352 27 9.14258 27 8.89648C27 8.65039 27.0879 8.43945 27.2637 8.26367C27.4395 8.08789 27.6504 8 27.8965 8ZM13.5 17C13.7461 17 13.957 17.0879 14.1328 17.2637C14.3086 17.4395 14.3965 17.6504 14.3965 17.8965C14.3965 18.1426 14.3086 18.3535 14.1328 18.5293C13.957 18.7051 13.7461 18.793 13.5 18.793C13.2539 18.793 13.043 18.7051 12.8672 18.5293C12.6914 18.3535 12.6035 18.1426 12.6035 17.8965C12.6035 17.6504 12.6914 17.4395 12.8672 17.2637C13.043 17.0879 13.2539 17 13.5 17ZM8.10352 29.6035C7.85742 29.6035 7.64648 29.5156 7.4707 29.3398C7.29492 29.1641 7.20703 28.9531 7.20703 28.707C7.20703 28.4492 7.29492 28.2324 7.4707 28.0566C7.64648 27.8809 7.85742 27.793 8.10352 27.793C8.34961 27.793 8.56055 27.8809 8.73633 28.0566C8.91211 28.2324 9 28.4492 9 28.707C9 28.9531 8.91211 29.1641 8.73633 29.3398C8.56055 29.5156 8.34961 29.6035 8.10352 29.6035ZM22.5 26C22.2539 26 22.043 25.9121 21.8672 25.7363C21.6914 25.5605 21.6035 25.3496 21.6035 25.1035C21.6035 24.8574 21.6914 24.6465 21.8672 24.4707C22.043 24.2949 22.2539 24.207 22.5 24.207C22.7461 24.207 22.957 24.2949 23.1328 24.4707C23.3086 24.6465 23.3965 24.8574 23.3965 25.1035C23.3965 25.3496 23.3086 25.5605 23.1328 25.7363C22.957 25.9121 22.7461 26 22.5 26Z" fill="#F2F4F6"/>
</svg>
