<svg width="35" height="35" viewBox="0 0 35 35" fill="none" xmlns="http://www.w3.org/2000/svg">
<path d="M17.6035 34.793C16.4551 34.793 15.3301 34.6816 14.2285 34.459C13.1387 34.248 12.0781 33.9316 11.0469 33.5098C10.0273 33.0879 9.04883 32.5664 8.11133 31.9453C7.18555 31.3125 6.31836 30.5918 5.50977 29.7832C4.70117 28.9863 3.98633 28.1191 3.36523 27.1816C2.74414 26.2441 2.2168 25.2656 1.7832 24.2461C1.36133 23.2266 1.03906 22.166 0.816406 21.0645C0.605469 19.9629 0.5 18.8438 0.5 17.707C0.5 16.5586 0.605469 15.4395 0.816406 14.3496C1.03906 13.248 1.36133 12.1875 1.7832 11.168C2.2168 10.1367 2.74414 9.1582 3.36523 8.23242C3.98633 7.29492 4.70117 6.42188 5.50977 5.61328C6.31836 4.80469 7.18555 4.08984 8.11133 3.46875C9.04883 2.84766 10.0273 2.32617 11.0469 1.9043C12.0781 1.4707 13.1387 1.14844 14.2285 0.9375C15.3301 0.714844 16.4551 0.603516 17.6035 0.603516C18.7402 0.603516 19.8594 0.714844 20.9609 0.9375C22.0625 1.14844 23.123 1.4707 24.1426 1.9043C25.1738 2.32617 26.1523 2.84766 27.0781 3.46875C28.0156 4.08984 28.8887 4.80469 29.6973 5.61328C30.5059 6.42188 31.2207 7.29492 31.8418 8.23242C32.4629 9.1582 32.9844 10.1367 33.4062 11.168C33.8281 12.1875 34.1504 13.248 34.373 14.3496C34.5957 15.4395 34.707 16.5586 34.707 17.707C34.707 18.8438 34.5957 19.9629 34.373 21.0645C34.1504 22.166 33.8281 23.2266 33.4062 24.2461C32.9844 25.2656 32.4629 26.2441 31.8418 27.1816C31.2207 28.1191 30.5059 28.9863 29.6973 29.7832C28.8887 30.5918 28.0156 31.3125 27.0781 31.9453C26.1523 32.5664 25.1738 33.0879 24.1426 33.5098C23.123 33.9316 22.0625 34.248 20.9609 34.459C19.8594 34.6816 18.7402 34.793 17.6035 34.793ZM17.6035 2.39648C15.4941 2.39648 13.5078 2.80078 11.6445 3.60938C9.79297 4.40625 8.16992 5.50195 6.77539 6.89648C5.39258 8.2793 4.29688 9.90234 3.48828 11.7656C2.69141 13.6172 2.29297 15.5977 2.29297 17.707C2.29297 19.8164 2.69141 21.8027 3.48828 23.666C4.29688 25.5176 5.39258 27.1348 6.77539 28.5176C8.16992 29.9004 9.79297 30.9961 11.6445 31.8047C13.5078 32.6016 15.4941 33 17.6035 33C19.7129 33 21.6934 32.6016 23.5449 31.8047C25.4082 30.9961 27.0312 29.9004 28.4141 28.5176C29.7969 27.1348 30.8867 25.5176 31.6836 23.666C32.4922 21.8027 32.8965 19.8164 32.8965 17.707C32.8965 15.5977 32.4922 13.6172 31.6836 11.7656C30.8867 9.90234 29.7969 8.2793 28.4141 6.89648C27.0312 5.50195 25.4082 4.40625 23.5449 3.60938C21.6934 2.80078 19.7129 2.39648 17.6035 2.39648ZM12.207 13.207C11.457 13.207 10.8184 12.9434 10.291 12.416C9.76367 11.8887 9.5 11.25 9.5 10.5C9.5 9.75 9.76367 9.11133 10.291 8.58398C10.8184 8.05664 11.457 7.79297 12.207 7.79297C12.9453 7.79297 13.5781 8.05664 14.1055 8.58398C14.6328 9.11133 14.8965 9.75 14.8965 10.5C14.8965 11.25 14.6328 11.8887 14.1055 12.416C13.5781 12.9434 12.9453 13.207 12.207 13.207ZM12.207 9.60352C11.9492 9.60352 11.7324 9.69141 11.5566 9.86719C11.3809 10.043 11.293 10.2539 11.293 10.5C11.293 10.7461 11.3809 10.957 11.5566 11.1328C11.7324 11.3086 11.9492 11.3965 12.207 11.3965C12.4531 11.3965 12.6641 11.3086 12.8398 11.1328C13.0156 10.957 13.1035 10.7461 13.1035 10.5C13.1035 10.2539 13.0156 10.043 12.8398 9.86719C12.6641 9.69141 12.4531 9.60352 12.207 9.60352ZM23 13.207C22.25 13.207 21.6113 12.9434 21.084 12.416C20.5566 11.8887 20.293 11.25 20.293 10.5C20.293 9.75 20.5566 9.11133 21.084 8.58398C21.6113 8.05664 22.25 7.79297 23 7.79297C23.75 7.79297 24.3887 8.05664 24.916 8.58398C25.4434 9.11133 25.707 9.75 25.707 10.5C25.707 11.25 25.4434 11.8887 24.916 12.416C24.3887 12.9434 23.75 13.207 23 13.207ZM23 9.60352C22.7539 9.60352 22.543 9.69141 22.3672 9.86719C22.1914 10.043 22.1035 10.2539 22.1035 10.5C22.1035 10.7461 22.1914 10.957 22.3672 11.1328C22.543 11.3086 22.7539 11.3965 23 11.3965C23.2461 11.3965 23.457 11.3086 23.6328 11.1328C23.8086 10.957 23.8965 10.7461 23.8965 10.5C23.8965 10.2539 23.8086 10.043 23.6328 9.86719C23.457 9.69141 23.2461 9.60352 23 9.60352ZM17.6035 29.3965C15.9863 29.3965 14.4688 29.0918 13.0508 28.4824C11.6328 27.8613 10.3906 27.0234 9.32422 25.9688C8.26953 24.9141 7.43164 23.6777 6.81055 22.2598C6.20117 20.8301 5.89648 19.3125 5.89648 17.707C5.89648 17.4492 5.98438 17.2324 6.16016 17.0566C6.33594 16.8809 6.54688 16.793 6.79297 16.793C7.05078 16.793 7.26758 16.8809 7.44336 17.0566C7.61914 17.2324 7.70703 17.4492 7.70703 17.707C7.70703 19.0664 7.96484 20.3496 8.48047 21.5566C8.99609 22.752 9.69922 23.8008 10.5898 24.7031C11.4922 25.5938 12.541 26.3027 13.7363 26.8301C14.9434 27.3457 16.2324 27.6035 17.6035 27.6035C18.9629 27.6035 20.2402 27.3457 21.4355 26.8301C22.6426 26.3027 23.6914 25.5938 24.582 24.7031C25.4844 23.8008 26.1934 22.752 26.709 21.5566C27.2363 20.3496 27.5 19.0664 27.5 17.707C27.5 17.4492 27.5879 17.2324 27.7637 17.0566C27.9395 16.8809 28.1504 16.793 28.3965 16.793C28.6426 16.793 28.8535 16.8809 29.0293 17.0566C29.2051 17.2324 29.293 17.4492 29.293 17.707C29.293 19.3125 28.9883 20.8301 28.3789 22.2598C27.7695 23.6777 26.9316 24.9141 25.8652 25.9688C24.8105 27.0234 23.5684 27.8613 22.1387 28.4824C20.7207 29.0918 19.209 29.3965 17.6035 29.3965Z" fill="#F2F4F6"/>
</svg>
