<svg width="100" height="100" viewBox="0 0 100 100" fill="none" xmlns="http://www.w3.org/2000/svg">
<g clip-path="url(#clip0_1937_48246)">
<path d="M99.3386 50.0443C99.3386 77.2688 77.2688 99.3386 50.0443 99.3386C22.8198 99.3386 0.75 77.2688 0.75 50.0443C0.75 22.8198 22.8198 0.75 50.0443 0.75C77.2688 0.75 99.3386 22.8198 99.3386 50.0443Z" stroke="white" stroke-width="1.5"/>
<path fill-rule="evenodd" clip-rule="evenodd" d="M49.9495 48.6197L49.4243 48.007C46.9443 45.1726 42.6927 44.8183 39.8584 47.2984C37.024 49.7785 36.7583 54.1186 39.1498 56.953L49.7786 67.316L60.2303 57.8389C63.0647 55.3588 63.3304 51.0187 60.9389 48.1843C58.4588 45.3499 54.1187 45.0842 51.2843 47.4757L49.9495 48.6197ZM48.2907 48.9893C46.3365 46.7616 43.0336 46.5132 40.8461 48.4273C38.6574 50.3424 38.4248 53.71 40.2524 55.933L49.7983 65.2403L49.7788 67.2996L49.8076 65.2651L59.2325 56.7187L59.2425 56.71C61.4452 54.7826 61.6668 51.3844 59.8011 49.1619C57.8704 46.9667 54.4747 46.7503 52.2558 48.6186L49.7829 50.7331L48.2907 48.9893Z" fill="#ED26B7"/>
<path fill-rule="evenodd" clip-rule="evenodd" d="M33.9979 23.3455H32.3979V26.6606H27.1922C24.535 26.6606 22.4092 28.7864 22.4092 31.3551V72.0991C22.4092 74.6677 24.535 76.7935 27.1922 76.7935H72.8078C75.3764 76.7935 77.5022 74.7563 77.5022 72.0991V31.3551C77.5022 28.7864 75.465 26.6606 72.8078 26.6606H67.5133V23.3455H65.9133V26.6606H33.9979V23.3455ZM65.9133 31.3455V28.1606H33.9979V31.3455H32.3979V28.1606H27.1922C25.3451 28.1606 23.9092 29.633 23.9092 31.3551V38.1018L76.0022 38.1018V31.3551C76.0022 29.5963 74.6181 28.1606 72.8078 28.1606H67.5133V31.3455H65.9133ZM76.0022 39.7018L23.9092 39.7018V72.0991C23.9092 73.8211 25.3451 75.2935 27.1922 75.2935H72.8078C74.5665 75.2935 76.0022 73.9095 76.0022 72.0991V39.7018Z" fill="#ED26B7"/>
</g>
<defs>
<clipPath id="clip0_1937_48246">
<rect width="100" height="100" fill="white"/>
</clipPath>
</defs>
</svg>
