<svg width="100" height="100" viewBox="0 0 100 100" fill="none" xmlns="http://www.w3.org/2000/svg">
<g clip-path="url(#clip0_1937_48186)">
<path d="M99.3386 50.0443C99.3386 77.2688 77.2688 99.3386 50.0443 99.3386C22.8198 99.3386 0.75 77.2688 0.75 50.0443C0.75 22.8198 22.8198 0.75 50.0443 0.75C77.2688 0.75 99.3386 22.8198 99.3386 50.0443Z" stroke="white" stroke-width="1.5"/>
<path d="M26.7494 33.0381H34.2782C35.6068 33.0381 36.6697 34.101 36.6697 35.4296V66.4305C36.6697 67.7591 35.6068 68.822 34.2782 68.822H26.7494C25.4208 68.822 24.4464 67.7591 24.4464 66.4305V35.4296C24.3579 34.101 25.4208 33.0381 26.7494 33.0381Z" stroke="#ED26B7" stroke-width="1.5"/>
<path d="M65.5447 33.0381H73.0735C74.4021 33.0381 75.465 34.101 75.465 35.4296V66.4305C75.465 67.7591 74.4021 68.822 73.0735 68.822H65.5447C64.2161 68.822 63.1532 67.7591 63.1532 66.4305V35.4296C63.1532 34.101 64.2161 33.0381 65.5447 33.0381Z" stroke="#ED26B7" stroke-width="1.5"/>
<path d="M77.7679 37.4668H82.3737C83.7023 37.4668 84.7652 38.5297 84.7652 39.8583V62.0018C84.7652 63.3304 83.7023 64.3933 82.3737 64.3933H77.8565C76.5279 64.3933 75.465 63.3304 75.465 62.0018V39.7697C75.465 38.4411 76.5279 37.4668 77.7679 37.4668Z" stroke="#ED26B7" stroke-width="1.5"/>
<path d="M17.449 37.4668H21.9663C23.2949 37.4668 24.2692 38.5297 24.2692 39.8583V62.0018C24.2692 63.3304 23.2063 64.3933 21.9663 64.3933H17.449C16.1204 64.3933 15.1461 63.3304 15.1461 62.0018V39.7697C15.1461 38.4411 16.1204 37.4668 17.449 37.4668Z" stroke="#ED26B7" stroke-width="1.5"/>
<mask id="path-6-inside-1_1937_48186" fill="white">
<path d="M15.1462 52.8787H11.3375V48.8928H15.1462"/>
</mask>
<path d="M11.3375 52.8787H9.83752V54.3787H11.3375V52.8787ZM11.3375 48.8928V47.3928H9.83752V48.8928H11.3375ZM15.1462 51.3787H11.3375V54.3787H15.1462V51.3787ZM12.8375 52.8787V48.8928H9.83752V52.8787H12.8375ZM11.3375 50.3928H15.1462V47.3928H11.3375V50.3928Z" fill="#ED26B7" mask="url(#path-6-inside-1_1937_48186)"/>
<path d="M63.1532 52.8787H36.5811" stroke="#ED26B7" stroke-width="1.5"/>
<path d="M63.1532 49.8787H36.5811" stroke="#ED26B7" stroke-width="1.5"/>
<mask id="path-10-inside-2_1937_48186" fill="white">
<path d="M85.2081 48.8928H88.7511V52.8787H85.2081"/>
</mask>
<path d="M88.7511 48.8928H90.2511V47.3928H88.7511V48.8928ZM88.7511 52.8787V54.3787H90.2511V52.8787H88.7511ZM85.2081 50.3928H88.7511V47.3928H85.2081V50.3928ZM87.2511 48.8928V52.8787H90.2511V48.8928H87.2511ZM88.7511 51.3787H85.2081V54.3787H88.7511V51.3787Z" fill="#ED26B7" mask="url(#path-10-inside-2_1937_48186)"/>
</g>
<defs>
<clipPath id="clip0_1937_48186">
<rect width="100" height="100" fill="white"/>
</clipPath>
</defs>
</svg>
