<svg width="100" height="100" viewBox="0 0 100 100" fill="none" xmlns="http://www.w3.org/2000/svg">
<g clip-path="url(#clip0_1937_48234)">
<path d="M99.3386 50.0443C99.3386 77.2688 77.2688 99.3386 50.0443 99.3386C22.8198 99.3386 0.75 77.2688 0.75 50.0443C0.75 22.8198 22.8198 0.75 50.0443 0.75C77.2688 0.75 99.3386 22.8198 99.3386 50.0443Z" stroke="white" stroke-width="1.5"/>
<path d="M50.0443 60.496L58.9903 64.7476L57.7502 54.7387L64.4819 47.5642L54.9159 45.6156L50.0443 37.0239L45.3499 45.4385L35.5182 47.4757L42.0727 54.7387L41.0098 64.7476L50.0443 60.496Z" fill="#ED26B7"/>
<path d="M55.2102 22.8073L55.5464 23.1164L55.9753 22.9595L62.6214 20.5292L65.6024 26.9472L65.7948 27.3614L66.2511 27.3806L73.3213 27.6787L73.6194 34.7489L73.6386 35.2052L74.0528 35.3976L80.4708 38.3786L78.0405 45.0247L77.8836 45.4536L78.1927 45.7898L82.9813 51L78.1927 56.2102L77.8836 56.5464L78.0405 56.9753L80.4708 63.6214L74.0528 66.6024L73.6386 66.7948L73.6194 67.2511L73.3213 74.3213L66.2511 74.6194L65.7948 74.6386L65.6024 75.0528L62.6214 81.4708L55.9753 79.0405L55.5464 78.8836L55.2102 79.1927L50 83.9813L44.7898 79.1927L44.4536 78.8836L44.0247 79.0405L37.3786 81.4708L34.3976 75.0528L34.2052 74.6386L33.7489 74.6194L26.6787 74.3213L26.3806 67.2511L26.3614 66.7948L25.9472 66.6024L19.5292 63.6214L21.9595 56.9753L22.1164 56.5464L21.8073 56.2102L17.0187 51L21.8073 45.7898L22.1164 45.4536L21.9595 45.0247L19.5292 38.3786L25.9472 35.3976L26.3614 35.2052L26.3806 34.7489L26.6787 27.6787L33.7489 27.3806L34.2052 27.3614L34.3976 26.9472L37.3786 20.5292L44.0247 22.9595L44.4536 23.1164L44.7898 22.8073L50 18.0187L55.2102 22.8073Z" stroke="#ED26B7" stroke-width="1.5"/>
</g>
<defs>
<clipPath id="clip0_1937_48234">
<rect width="100" height="100" fill="white"/>
</clipPath>
</defs>
</svg>
