<svg width="100" height="100" viewBox="0 0 100 100" fill="none" xmlns="http://www.w3.org/2000/svg">
<g clip-path="url(#clip0_1937_48239)">
<path d="M99.3386 50.0443C99.3386 77.2688 77.2688 99.3386 50.0443 99.3386C22.8198 99.3386 0.75 77.2688 0.75 50.0443C0.75 22.8198 22.8198 0.75 50.0443 0.75C77.2688 0.75 99.3386 22.8198 99.3386 50.0443Z" stroke="white" stroke-width="1.5"/>
<path d="M70.9949 40.3012C70.9949 51.8719 61.615 61.2518 50.0442 61.2518C38.4735 61.2518 29.0936 51.8719 29.0936 40.3012C29.0936 28.7305 38.4735 19.3506 50.0442 19.3506C61.615 19.3506 70.9949 28.7305 70.9949 40.3012Z" stroke="#ED26B7" stroke-width="1.5"/>
<path d="M62.1375 40.3012C62.1375 46.9801 56.7232 52.3945 50.0443 52.3945C43.3654 52.3945 37.951 46.9801 37.951 40.3012C37.951 33.6223 43.3654 28.208 50.0443 28.208C56.7232 28.208 62.1375 33.6223 62.1375 40.3012Z" stroke="#ED26B7" stroke-width="1.5"/>
<mask id="path-4-inside-1_1937_48239" fill="white">
<path d="M61.5588 58.636V81.4881L50.0442 71.8335L43.6669 77.1479L38.441 81.4881V58.636"/>
</mask>
<path d="M61.5588 81.4881L60.5951 82.6375L63.0588 84.7033V81.4881H61.5588ZM50.0442 71.8335L51.008 70.6841L50.0472 69.8785L49.084 70.6812L50.0442 71.8335ZM43.6669 77.1479L44.6253 78.3019L44.6272 78.3003L43.6669 77.1479ZM38.441 81.4881H36.941V84.6837L39.3994 82.642L38.441 81.4881ZM60.0588 58.636V81.4881H63.0588V58.636H60.0588ZM62.5226 80.3386L51.008 70.6841L49.0805 72.9829L60.5951 82.6375L62.5226 80.3386ZM49.084 70.6812L42.7066 75.9956L44.6272 78.3003L51.0045 72.9858L49.084 70.6812ZM42.7086 75.994L37.4827 80.3341L39.3994 82.642L44.6253 78.3019L42.7086 75.994ZM39.941 81.4881V58.636H36.941V81.4881H39.941Z" fill="#ED26B7" mask="url(#path-4-inside-1_1937_48239)"/>
</g>
<defs>
<clipPath id="clip0_1937_48239">
<rect width="100" height="100" fill="white"/>
</clipPath>
</defs>
</svg>
