<svg width="100" height="100" viewBox="0 0 100 100" fill="none" xmlns="http://www.w3.org/2000/svg">
<g clip-path="url(#clip0_1937_48196)">
<path d="M99.3386 50.0443C99.3386 77.2688 77.2688 99.3386 50.0443 99.3386C22.8198 99.3386 0.75 77.2688 0.75 50.0443C0.75 22.8198 22.8198 0.75 50.0443 0.75C77.2688 0.75 99.3386 22.8198 99.3386 50.0443Z" stroke="white" stroke-width="1.5"/>
<path d="M64.2162 28.2551H35.7839V83.0824H64.2162V28.2551Z" stroke="#ED26B7" stroke-width="1.5"/>
<path d="M45.0841 82.1966V40.4783C45.0841 37.821 47.2985 35.6067 49.9557 35.6067C52.6129 35.6067 54.8272 37.821 54.8272 40.4783V82.1966" stroke="#ED26B7" stroke-width="1.5"/>
<path d="M35.9611 35.6067C38.6183 35.6067 40.8326 37.821 40.8326 40.4783V83.0823H35.7839L35.9611 35.6067Z" stroke="#ED26B7" stroke-width="1.5"/>
<path d="M63.3304 35.6067C60.6732 35.6067 58.4589 37.821 58.4589 40.4783V83.0823H63.3304" stroke="#ED26B7" stroke-width="1.5"/>
<path d="M64.2162 16.6519H35.7839V23.1178H64.2162V16.6519Z" stroke="#ED26B7" stroke-width="1.5"/>
<path d="M31.0895 30.381C33.0952 30.381 34.7211 28.7551 34.7211 26.7495C34.7211 24.7438 33.0952 23.1179 31.0895 23.1179C29.0839 23.1179 27.458 24.7438 27.458 26.7495C27.458 28.7551 29.0839 30.381 31.0895 30.381Z" stroke="#ED26B7" stroke-width="1.5"/>
<path d="M68.4677 30.381C70.4734 30.381 72.0993 28.7551 72.0993 26.7495C72.0993 24.7438 70.4734 23.1179 68.4677 23.1179C66.4621 23.1179 64.8362 24.7438 64.8362 26.7495C64.8362 28.7551 66.4621 30.381 68.4677 30.381Z" stroke="#ED26B7" stroke-width="1.5"/>
</g>
<defs>
<clipPath id="clip0_1937_48196">
<rect width="100" height="100" fill="white"/>
</clipPath>
</defs>
</svg>
