<svg width="100" height="100" viewBox="0 0 100 100" fill="none" xmlns="http://www.w3.org/2000/svg">
<g clip-path="url(#clip0_1937_48215)">
<path d="M99.3386 50.0443C99.3386 77.2688 77.2688 99.3386 50.0443 99.3386C22.8198 99.3386 0.75 77.2688 0.75 50.0443C0.75 22.8198 22.8198 0.75 50.0443 0.75C77.2688 0.75 99.3386 22.8198 99.3386 50.0443Z" stroke="white" stroke-width="1.5"/>
<path d="M49.8877 45.1537V42.041H47.7637V45.1424C46.9511 45.2356 46.2194 45.4432 45.5688 45.7651C44.6532 46.2183 43.9452 46.8649 43.4448 47.7051C42.9445 48.5452 42.6943 49.5459 42.6943 50.707C42.6943 51.821 42.9256 52.7697 43.3882 53.5532C43.8602 54.3368 44.5257 54.9928 45.3848 55.5215C46.2533 56.0501 47.2822 56.4985 48.4717 56.8667C49.4535 57.1877 50.237 57.5369 50.8223 57.9146C51.4076 58.2922 51.8276 58.7075 52.0825 59.1606C52.3374 59.6138 52.4648 60.1235 52.4648 60.6899C52.4648 61.3602 52.3091 61.9455 51.9976 62.4458C51.686 62.9461 51.2329 63.3332 50.6382 63.6069C50.0529 63.8713 49.3354 64.0034 48.4858 64.0034C48.0233 64.0034 47.556 63.9421 47.084 63.8193C46.6214 63.6872 46.1966 63.4701 45.8096 63.168C45.4225 62.8564 45.111 62.4411 44.875 61.9219C44.6484 61.3932 44.5352 60.7277 44.5352 59.9253H41.9014C41.9014 61.1147 42.0902 62.1201 42.4678 62.9414C42.8454 63.7533 43.3504 64.4093 43.9829 64.9097C44.6154 65.4006 45.3234 65.7546 46.1069 65.9717C46.5756 66.1015 47.0476 66.1926 47.5229 66.2448V68.9453H49.6328V66.2393C50.4952 66.1483 51.274 65.9506 51.9692 65.646C52.9604 65.2118 53.7298 64.5793 54.2773 63.7485C54.8249 62.9084 55.0986 61.8794 55.0986 60.6616C55.0986 59.5382 54.8768 58.599 54.4331 57.8438C53.9894 57.0791 53.3428 56.4372 52.4932 55.918C51.6436 55.3893 50.6099 54.9315 49.3921 54.5444C48.3537 54.1951 47.5371 53.8411 46.9424 53.4824C46.3571 53.1143 45.9417 52.7036 45.6963 52.2505C45.4508 51.7974 45.3281 51.2687 45.3281 50.6646C45.3281 50.0132 45.4508 49.4421 45.6963 48.9512C45.9417 48.4508 46.3193 48.0638 46.8291 47.79C47.3483 47.5163 48.0044 47.3794 48.7974 47.3794C49.3638 47.3794 49.8641 47.488 50.2983 47.7051C50.7326 47.9128 51.1007 48.2148 51.4028 48.6113C51.7049 48.9984 51.9315 49.4562 52.0825 49.9849C52.2336 50.5135 52.3091 51.0941 52.3091 51.7266H54.9146C54.9146 50.6504 54.7729 49.7017 54.4897 48.8804C54.216 48.0591 53.8148 47.3652 53.2861 46.7988C52.7669 46.2324 52.1297 45.8076 51.3745 45.5244C50.917 45.3471 50.4214 45.2236 49.8877 45.1537Z" fill="#ED26B7"/>
<path fill-rule="evenodd" clip-rule="evenodd" d="M45.5285 16.2104C47.9563 13.7827 51.9552 13.7827 54.383 16.2104C55.5613 17.3887 56.1677 18.9371 56.2022 20.4964C59.0632 20.7324 61.5755 21.1367 63.439 21.6691C64.4463 21.9569 65.3228 22.2983 65.9695 22.7069C66.5616 23.081 67.2474 23.6976 67.2532 24.6117L67.2533 24.6235V29.4065L67.2532 29.418C67.2511 29.7406 67.1604 30.027 67.0238 30.2747C67.0441 30.2993 67.0635 30.3252 67.0818 30.3522L73.5477 39.9182C73.6594 40.0836 73.7192 40.2786 73.7192 40.4782V79.8936C73.7192 79.9055 73.719 79.9173 73.7186 79.9291L73.7191 79.9603L73.7192 79.9823C73.7192 80.6573 73.3843 81.2119 72.9698 81.6313C72.5583 82.0477 72.0033 82.4012 71.377 82.7077C70.1203 83.3228 68.3664 83.8491 66.2806 84.281C62.0927 85.148 56.3528 85.6767 50.0443 85.6767C43.7359 85.6767 37.996 85.148 33.808 84.281C31.7222 83.8491 29.9683 83.3228 28.7117 82.7077C28.0854 82.4012 27.5304 82.0477 27.1188 81.6313C26.7043 81.2119 26.3694 80.6573 26.3694 79.9823C26.3694 79.9649 26.3696 79.9476 26.37 79.9303C26.3696 79.9182 26.3694 79.9059 26.3694 79.8936V40.4782C26.3694 40.2808 26.4278 40.0878 26.5373 39.9235L32.9147 30.3575C32.9498 30.3048 32.9891 30.2564 33.0319 30.2127C32.9965 30.1429 32.9648 30.0702 32.9378 29.9946C32.8176 29.8295 32.7467 29.6263 32.7467 29.4065V24.6235C32.7467 24.4071 32.8155 24.2067 32.9324 24.043C33.143 23.4338 33.6601 22.997 34.1213 22.7063C34.7697 22.2977 35.6491 21.9564 36.662 21.6687C38.492 21.1488 40.9499 20.7511 43.7636 20.5131C43.7849 18.9665 44.3608 17.4309 45.513 16.2263L45.5285 16.2104ZM55.425 23.68C55.6368 23.2961 55.8055 22.8939 55.9309 22.4809C58.761 22.7094 61.1726 23.1016 62.8895 23.5921C63.8197 23.8579 64.4878 24.1365 64.9012 24.3977C65.0504 24.492 65.1402 24.5663 65.1932 24.6182C65.0817 24.725 64.8763 24.8704 64.5381 25.0364C64.4119 25.0983 64.2737 25.16 64.1236 25.2213C64.0957 25.219 64.0675 25.2178 64.0389 25.2178C63.7667 25.2178 63.5198 25.3266 63.3395 25.5031C62.7659 25.6862 62.0838 25.8622 61.3003 26.0248C59.7322 26.3503 57.8213 26.6096 55.6821 26.7771C55.5807 26.7424 55.4719 26.7236 55.3588 26.7236C55.1946 26.7236 55.0397 26.7632 54.903 26.8333C53.498 26.9262 52.0049 26.9802 50.4537 26.9883C50.3288 26.9321 50.1902 26.9009 50.0443 26.9009C49.8984 26.9009 49.7599 26.9321 49.6349 26.9883C47.8487 26.9789 46.1395 26.9089 44.5532 26.7884C44.4429 26.7465 44.3233 26.7236 44.1984 26.7236C44.1297 26.7236 44.0626 26.7306 43.9978 26.7437C42.4524 26.6125 41.0334 26.4328 39.7859 26.2149C39.6485 26.1437 39.4924 26.1035 39.3269 26.1035C39.2886 26.1035 39.2508 26.1057 39.2136 26.1099C39.0692 26.082 38.9273 26.0537 38.7882 26.0248C37.3554 25.7274 36.2617 25.3854 35.5504 25.0364C35.2124 24.8705 35.007 24.7252 34.8954 24.6184C34.9486 24.5666 35.0384 24.4924 35.1877 24.3983C35.6022 24.1371 36.2728 23.8584 37.2086 23.5925C38.8971 23.1128 41.2588 22.7272 44.0442 22.4966C44.1685 22.9072 44.334 23.3082 44.5399 23.693C44.1693 23.8394 43.907 24.2008 43.907 24.6235C43.907 25.1758 44.3547 25.6235 44.907 25.6235H55.093C55.6453 25.6235 56.093 25.1758 56.093 24.6235C56.093 24.1876 55.8141 23.8169 55.425 23.68ZM52.9956 23.6235H46.9107L46.8996 23.6107C45.3666 21.8587 45.3847 19.2623 46.9506 17.6168C48.5981 15.978 51.3247 15.9806 52.9688 17.6247C54.6064 19.2623 54.6154 21.9741 52.9956 23.6235ZM63.0389 27.6717C62.6187 27.7825 62.1734 27.8862 61.7067 27.9831C61.6081 28.0035 61.5084 28.0237 61.4075 28.0437V30.7853C62.0151 30.6567 62.5601 30.5201 63.0389 30.3784V27.6717ZM65.0389 29.5275C65.1136 29.4736 65.1703 29.425 65.2116 29.3831C65.2306 29.3638 65.244 29.3484 65.2533 29.3369V26.9108C65.1836 26.943 65.1121 26.9747 65.0389 27.0062V29.5275ZM36.6953 30.2688V27.575C37.2008 27.718 37.7472 27.8502 38.3269 27.9716V30.7079C37.7109 30.5687 37.1657 30.4212 36.6953 30.2688ZM40.3269 28.3294V31.0882C41.2118 31.2296 42.1737 31.3524 43.1984 31.4534V28.6798C42.1841 28.5832 41.2227 28.4656 40.3269 28.3294ZM45.1984 28.8384V31.6171C46.4204 31.6977 47.709 31.7488 49.0443 31.7659V28.9831C47.7162 28.9665 46.428 28.9171 45.1984 28.8384ZM54.3588 28.8704C53.2911 28.9306 52.1823 28.9689 51.0443 28.9831V31.7659C52.1875 31.7513 53.2965 31.7117 54.3588 31.6501V28.8704ZM59.4075 31.1432V28.3818C58.4559 28.5187 57.4349 28.635 56.3588 28.7281V31.5034C57.4454 31.4062 58.4671 31.2849 59.4075 31.1432ZM50.0443 33.7724L50.0272 33.7723C45.5138 33.7714 41.3968 33.3918 38.3818 32.7661C36.8806 32.4545 35.5994 32.0713 34.6693 31.6148C34.6217 31.5915 34.5745 31.5677 34.5278 31.5434L28.3694 40.781V77.4332C28.4807 77.3727 28.5949 77.3139 28.7117 77.2568C29.9683 76.6417 31.7222 76.1154 33.808 75.6836C37.996 74.8165 43.7359 74.2878 50.0443 74.2878C56.3528 74.2878 62.0927 74.8165 66.2806 75.6836C68.3664 76.1154 70.1203 76.6417 71.377 77.2568C71.4937 77.3139 71.6079 77.3727 71.7192 77.4332V40.7845L65.4955 31.5768C65.4702 31.5896 65.4447 31.6023 65.4192 31.6148C64.4891 32.0713 63.2079 32.4545 61.7067 32.7661C58.6917 33.3918 54.5747 33.7713 50.0614 33.7723L50.0443 33.7724ZM28.3697 79.9823C28.3738 79.9621 28.3999 79.8822 28.5413 79.7391C28.7339 79.5443 29.0698 79.3082 29.5909 79.0532C30.6291 78.545 32.1959 78.0597 34.2135 77.642C38.2322 76.81 43.8298 76.2878 50.0443 76.2878C56.2589 76.2878 61.8565 76.81 65.8752 77.642C67.8928 78.0597 69.4595 78.545 70.4977 79.0532C71.0188 79.3082 71.3548 79.5443 71.5474 79.7391C71.6888 79.8822 71.7149 79.9621 71.719 79.9823C71.7148 80.0024 71.6888 80.0823 71.5474 80.2254C71.3548 80.4202 71.0188 80.6563 70.4977 80.9114C69.4595 81.4195 67.8928 81.9048 65.8752 82.3225C61.8565 83.1545 56.2589 83.6767 50.0443 83.6767C43.8298 83.6767 38.2322 83.1545 34.2135 82.3225C32.1959 81.9048 30.6291 81.4195 29.5909 80.9114C29.0698 80.6563 28.7339 80.4202 28.5413 80.2254C28.3999 80.0823 28.3738 80.0024 28.3697 79.9823Z" fill="#ED26B7"/>
</g>
<defs>
<clipPath id="clip0_1937_48215">
<rect width="100" height="100" fill="white"/>
</clipPath>
</defs>
</svg>
