<svg width="100" height="100" viewBox="0 0 100 100" fill="none" xmlns="http://www.w3.org/2000/svg">
<g clip-path="url(#clip0_1937_48177)">
<path d="M99.3386 50.0443C99.3386 77.2688 77.2688 99.3386 50.0443 99.3386C22.8198 99.3386 0.75 77.2688 0.75 50.0443C0.75 22.8198 22.8198 0.75 50.0443 0.75C77.2688 0.75 99.3386 22.8198 99.3386 50.0443Z" stroke="white" stroke-width="1.5"/>
<mask id="path-2-inside-1_1937_48177" fill="white">
<path d="M41.6298 59.1674C31.4438 59.0789 23.1178 50.8415 23.1178 40.6555V24.1807C23.1178 24.1807 22.9407 21.1692 25.3322 21.1692H30.1152"/>
</mask>
<path d="M23.1178 24.1807H24.6178V24.1366L24.6152 24.0926L23.1178 24.1807ZM41.6428 57.6675C32.2632 57.5859 24.6178 50.0013 24.6178 40.6555H21.6178C21.6178 51.6817 30.6244 60.5718 41.6167 60.6674L41.6428 57.6675ZM24.6178 40.6555V24.1807H21.6178V40.6555H24.6178ZM23.1178 24.1807C24.6152 24.0926 24.6153 24.0932 24.6153 24.0937C24.6153 24.0939 24.6153 24.0945 24.6154 24.0948C24.6154 24.0955 24.6154 24.0961 24.6155 24.0967C24.6155 24.0979 24.6156 24.099 24.6156 24.0998C24.6157 24.1016 24.6158 24.1027 24.6158 24.1031C24.6158 24.104 24.6158 24.1024 24.6156 24.0984C24.6154 24.0904 24.6149 24.0732 24.6149 24.0482C24.6148 23.9976 24.6163 23.9182 24.6235 23.8202C24.6385 23.6154 24.6754 23.3733 24.7491 23.1556C24.8242 22.9336 24.9098 22.8174 24.9702 22.7641C25.0008 22.737 25.0795 22.6692 25.3322 22.6692V19.6692C24.3891 19.6692 23.5931 19.9778 22.9843 20.5154C22.4053 21.0267 22.0868 21.6634 21.9073 22.1943C21.7263 22.7294 21.658 23.2403 21.6315 23.6002C21.618 23.7845 21.6146 23.9403 21.6149 24.0545C21.615 24.1118 21.616 24.1593 21.6172 24.1954C21.6178 24.2135 21.6184 24.2287 21.619 24.241C21.6193 24.2472 21.6195 24.2526 21.6198 24.2572C21.6199 24.2595 21.62 24.2616 21.6201 24.2636C21.6202 24.2645 21.6202 24.2655 21.6203 24.2663C21.6203 24.2668 21.6203 24.2674 21.6203 24.2676C21.6204 24.2682 21.6204 24.2688 23.1178 24.1807ZM25.3322 22.6692H30.1152V19.6692H25.3322V22.6692Z" fill="#ED26B7" mask="url(#path-2-inside-1_1937_48177)"/>
<mask id="path-4-inside-2_1937_48177" fill="white">
<path d="M40.9211 59.1674C51.1071 59.1674 59.4331 50.8415 59.4331 40.6555V24.1807C59.4331 24.1807 59.6102 21.1692 57.2187 21.1692H52.4358"/>
</mask>
<path d="M59.4331 24.1807L57.9357 24.0926L57.9331 24.1366V24.1807H59.4331ZM40.9211 60.6674C51.9356 60.6674 60.9331 51.6699 60.9331 40.6555H57.9331C57.9331 50.013 50.2787 57.6674 40.9211 57.6674V60.6674ZM60.9331 40.6555V24.1807H57.9331V40.6555H60.9331ZM59.4331 24.1807C60.9305 24.2688 60.9305 24.2682 60.9306 24.2676C60.9306 24.2674 60.9306 24.2668 60.9307 24.2663C60.9307 24.2655 60.9308 24.2645 60.9308 24.2636C60.9309 24.2616 60.931 24.2595 60.9312 24.2572C60.9314 24.2526 60.9317 24.2472 60.9319 24.241C60.9325 24.2287 60.9331 24.2135 60.9337 24.1954C60.9349 24.1593 60.9359 24.1118 60.936 24.0545C60.9363 23.9403 60.9329 23.7845 60.9194 23.6002C60.8929 23.2403 60.8246 22.7294 60.6437 22.1943C60.4641 21.6634 60.1456 21.0267 59.5666 20.5154C58.9578 19.9778 58.1618 19.6692 57.2187 19.6692V22.6692C57.4714 22.6692 57.5501 22.737 57.5807 22.7641C57.6411 22.8174 57.7267 22.9336 57.8018 23.1556C57.8755 23.3733 57.9124 23.6154 57.9274 23.8202C57.9347 23.9182 57.9361 23.9976 57.936 24.0482C57.936 24.0732 57.9355 24.0904 57.9353 24.0984C57.9352 24.1024 57.9351 24.104 57.9351 24.1031C57.9351 24.1027 57.9352 24.1016 57.9353 24.0998C57.9353 24.099 57.9354 24.0979 57.9354 24.0967C57.9355 24.0961 57.9355 24.0955 57.9356 24.0948C57.9356 24.0945 57.9356 24.0939 57.9356 24.0937C57.9357 24.0932 57.9357 24.0926 59.4331 24.1807ZM57.2187 19.6692H52.4358V22.6692H57.2187V19.6692Z" fill="#ED26B7" mask="url(#path-4-inside-2_1937_48177)"/>
<path d="M34.9452 21.0807C34.9452 22.0361 34.1707 22.8107 33.2152 22.8107C32.2597 22.8107 31.4851 22.0361 31.4851 21.0807C31.4851 20.1252 32.2597 19.3506 33.2152 19.3506C34.1707 19.3506 34.9452 20.1252 34.9452 21.0807Z" stroke="#ED26B7" stroke-width="1.5"/>
<path d="M51.0657 21.0807C51.0657 22.0361 50.2912 22.8107 49.3357 22.8107C48.3802 22.8107 47.6056 22.0361 47.6056 21.0807C47.6056 20.1252 48.3802 19.3506 49.3357 19.3506C50.2912 19.3506 51.0657 20.1252 51.0657 21.0807Z" stroke="#ED26B7" stroke-width="1.5"/>
<mask id="path-8-inside-3_1937_48177" fill="white">
<path d="M71.302 55.2703V68.2021C71.302 76.4394 64.659 82.9939 56.4216 83.0825C48.2728 82.9939 41.6298 76.3509 41.6298 68.2021V59.1675"/>
</mask>
<path d="M56.4216 83.0825L56.4053 84.5824L56.4215 84.5826L56.4377 84.5824L56.4216 83.0825ZM69.802 55.2703V68.2021H72.802V55.2703H69.802ZM69.802 68.2021C69.802 75.5965 63.8418 81.5026 56.4055 81.5826L56.4377 84.5824C65.4762 84.4852 72.802 77.2824 72.802 68.2021H69.802ZM56.4379 81.5826C49.1016 81.5028 43.1298 75.5193 43.1298 68.2021H40.1298C40.1298 77.1824 47.444 84.485 56.4053 84.5824L56.4379 81.5826ZM43.1298 68.2021V59.1675H40.1298V68.2021H43.1298Z" fill="#ED26B7" mask="url(#path-8-inside-3_1937_48177)"/>
<path d="M77.5494 47.5642C77.5494 51.0145 74.7523 53.8116 71.302 53.8116C67.8517 53.8116 65.0547 51.0145 65.0547 47.5642C65.0547 44.1139 67.8517 41.3169 71.302 41.3169C74.7523 41.3169 77.5494 44.1139 77.5494 47.5642Z" stroke="#ED26B7" stroke-width="1.5"/>
<path d="M73.3864 47.5641C73.3864 48.7153 72.4532 49.6485 71.302 49.6485C70.1509 49.6485 69.2177 48.7153 69.2177 47.5641C69.2177 46.4129 70.1509 45.4797 71.302 45.4797C72.4532 45.4797 73.3864 46.4129 73.3864 47.5641Z" stroke="#ED26B7" stroke-width="1.5"/>
</g>
<defs>
<clipPath id="clip0_1937_48177">
<rect width="100" height="100" fill="white"/>
</clipPath>
</defs>
</svg>
