<svg width="100" height="100" viewBox="0 0 100 100" fill="none" xmlns="http://www.w3.org/2000/svg">
<g clip-path="url(#clip0_1937_48206)">
<path d="M99.3386 50.0443C99.3386 77.2688 77.2688 99.3386 50.0443 99.3386C22.8198 99.3386 0.75 77.2688 0.75 50.0443C0.75 22.8198 22.8198 0.75 50.0443 0.75C77.2688 0.75 99.3386 22.8198 99.3386 50.0443Z" stroke="white" stroke-width="1.5"/>
<path d="M40.3898 37.1125C44.1099 36.7582 47.83 36.5811 51.6387 36.5811C62.0904 36.5811 70.5049 37.8211 70.5049 39.3268C70.5049 40.8326 62.0018 42.0726 51.6387 42.0726C46.3242 42.1612 41.0098 41.7183 35.7839 40.8326" stroke="#ED26B7" stroke-width="1.5"/>
<path d="M51.5501 81.1337C58.5943 81.1337 64.3047 80.3009 64.3047 79.2736C64.3047 78.2463 58.5943 77.4136 51.5501 77.4136C44.5059 77.4136 38.7954 78.2463 38.7954 79.2736C38.7954 80.3009 44.5059 81.1337 51.5501 81.1337Z" stroke="#ED26B7" stroke-width="1.5"/>
<path d="M27.7237 47.387C24.0036 42.604 24.8893 35.6952 29.6723 32.0637C34.2781 28.5207 40.8326 29.1408 44.6413 33.5695L35.8725 40.7439L27.7237 47.387Z" stroke="#ED26B7" stroke-width="1.5"/>
<path d="M45.8813 75.2878L66.2534 25.0664L74.3136 19.3091" stroke="#ED26B7" stroke-width="1.5"/>
<path d="M35.6953 58.8131C35.6953 58.8131 44.6413 54.2958 56.5102 58.2817C68.3791 62.2675 67.7591 57.2188 67.7591 57.2188C67.7591 57.2188 60.1417 55.9787 55.2702 57.8388" stroke="#ED26B7" stroke-width="1.5"/>
<path d="M70.5 39.5L64 80" stroke="#ED26B7" stroke-width="1.5"/>
<path d="M39 79.5001L33.1537 43.073" stroke="#ED26B7" stroke-width="1.5"/>
</g>
<defs>
<clipPath id="clip0_1937_48206">
<rect width="100" height="100" fill="white"/>
</clipPath>
</defs>
</svg>
