<svg width="32" height="37" viewBox="0 0 32 37" fill="none" xmlns="http://www.w3.org/2000/svg">
<path d="M22.3965 8C21.9043 8 21.4355 7.90625 20.9902 7.71875C20.5566 7.53125 20.1758 7.27344 19.8477 6.94531C19.5312 6.61719 19.2734 6.23633 19.0742 5.80273C18.8867 5.36914 18.793 4.90039 18.793 4.39648C18.793 3.9043 18.8867 3.44141 19.0742 3.00781C19.2734 2.5625 19.5312 2.18164 19.8477 1.86523C20.1758 1.53711 20.5566 1.2793 20.9902 1.0918C21.4355 0.892578 21.9043 0.792969 22.3965 0.792969C22.9004 0.792969 23.3691 0.892578 23.8027 1.0918C24.2363 1.2793 24.6172 1.53711 24.9453 1.86523C25.2734 2.18164 25.5312 2.5625 25.7188 3.00781C25.9062 3.44141 26 3.9043 26 4.39648C26 4.90039 25.9062 5.36914 25.7188 5.80273C25.5312 6.23633 25.2734 6.61719 24.9453 6.94531C24.6172 7.27344 24.2363 7.53125 23.8027 7.71875C23.3691 7.90625 22.9004 8 22.3965 8ZM22.3965 2.60352C21.9043 2.60352 21.4824 2.7793 21.1309 3.13086C20.7793 3.48242 20.6035 3.9043 20.6035 4.39648C20.6035 4.90039 20.7793 5.32812 21.1309 5.67969C21.4824 6.03125 21.9043 6.20703 22.3965 6.20703C22.9004 6.20703 23.3281 6.03125 23.6797 5.67969C24.0312 5.32812 24.207 4.90039 24.207 4.39648C24.207 3.9043 24.0312 3.48242 23.6797 3.13086C23.3281 2.7793 22.9004 2.60352 22.3965 2.60352ZM16.1035 36.793C16.0449 36.793 15.9863 36.7871 15.9277 36.7754C15.8691 36.7754 15.8164 36.7637 15.7695 36.7402C15.5352 36.6465 15.3652 36.4824 15.2598 36.248C15.166 36.0254 15.166 35.7969 15.2598 35.5625L18.6523 27.125L13.6602 22.1328C13.5312 22.0039 13.4492 21.8457 13.4141 21.6582C13.3789 21.459 13.4082 21.2715 13.502 21.0957L18.248 11.6035H12.7637L7.5957 15.0488C7.39648 15.1895 7.17383 15.2363 6.92773 15.1895C6.68164 15.1309 6.48828 15.002 6.34766 14.8027C6.20703 14.5918 6.16016 14.3691 6.20703 14.1348C6.26562 13.8887 6.39453 13.6953 6.59375 13.5547L12.0078 9.95117C12.0781 9.9043 12.1543 9.86914 12.2363 9.8457C12.3184 9.81055 12.4062 9.79297 12.5 9.79297H19.707C19.8594 9.79297 20 9.83398 20.1289 9.91602C20.2695 9.98633 20.3809 10.0918 20.4629 10.2324C20.5449 10.3613 20.5859 10.5078 20.5859 10.6719C20.5977 10.8242 20.5684 10.9648 20.498 11.0938L15.4004 21.3242L20.3398 26.2637C20.4688 26.3926 20.5508 26.5449 20.5859 26.7207C20.6211 26.8965 20.6035 27.0664 20.5332 27.2305L16.9297 36.2305C16.8594 36.4062 16.748 36.541 16.5957 36.6348C16.4434 36.7402 16.2793 36.793 16.1035 36.793ZM9.79297 29.6035H1.70703C1.44922 29.6035 1.23242 29.5156 1.05664 29.3398C0.880859 29.1641 0.792969 28.9531 0.792969 28.707C0.792969 28.4492 0.880859 28.2324 1.05664 28.0566C1.23242 27.8809 1.44922 27.793 1.70703 27.793H9.35352L11.7793 24.5586C11.9316 24.3594 12.1309 24.2422 12.377 24.207C12.623 24.1719 12.8457 24.2305 13.0449 24.3828C13.2441 24.5352 13.3613 24.7344 13.3965 24.9805C13.4316 25.2266 13.373 25.4492 13.2207 25.6484L10.5137 29.2344C10.4316 29.3516 10.3262 29.4453 10.1973 29.5156C10.0684 29.5742 9.93359 29.6035 9.79297 29.6035ZM30.5 18.793H23.293C23.1289 18.793 22.9707 18.752 22.8184 18.6699C22.6777 18.5762 22.5723 18.4531 22.502 18.3008L20.6914 14.6973C20.5859 14.4746 20.5684 14.2461 20.6387 14.0117C20.7207 13.7773 20.873 13.6074 21.0957 13.502C21.3184 13.3848 21.5469 13.3672 21.7812 13.4492C22.0156 13.5312 22.1914 13.6836 22.3086 13.9062L23.8555 17H30.5C30.7461 17 30.957 17.0879 31.1328 17.2637C31.3086 17.4395 31.3965 17.6504 31.3965 17.8965C31.3965 18.1426 31.3086 18.3535 31.1328 18.5293C30.957 18.7051 30.7461 18.793 30.5 18.793ZM27.793 36.793C27.3008 36.793 26.832 36.6992 26.3867 36.5117C25.9531 36.3242 25.5723 36.0664 25.2441 35.7383C24.9277 35.4219 24.6758 35.0469 24.4883 34.6133C24.3008 34.168 24.207 33.6992 24.207 33.207C24.207 32.7031 24.3008 32.2344 24.4883 31.8008C24.6758 31.3672 24.9277 30.9863 25.2441 30.6582C25.5723 30.3301 25.9531 30.0723 26.3867 29.8848C26.832 29.6973 27.3008 29.6035 27.793 29.6035C28.2969 29.6035 28.7656 29.6973 29.1992 29.8848C29.6328 30.0723 30.0137 30.3301 30.3418 30.6582C30.6699 30.9863 30.9277 31.3672 31.1152 31.8008C31.3027 32.2344 31.3965 32.7031 31.3965 33.207C31.3965 33.6992 31.3027 34.168 31.1152 34.6133C30.9277 35.0469 30.6699 35.4219 30.3418 35.7383C30.0137 36.0664 29.6328 36.3242 29.1992 36.5117C28.7656 36.6992 28.2969 36.793 27.793 36.793ZM27.793 31.3965C27.3008 31.3965 26.8789 31.5723 26.5273 31.9238C26.1758 32.2754 26 32.7031 26 33.207C26 33.6992 26.1758 34.1211 26.5273 34.4727C26.8789 34.8242 27.3008 35 27.793 35C28.2969 35 28.7246 34.8242 29.0762 34.4727C29.4277 34.1211 29.6035 33.6992 29.6035 33.207C29.6035 32.7031 29.4277 32.2754 29.0762 31.9238C28.7246 31.5723 28.2969 31.3965 27.793 31.3965Z" fill="#F2F4F6"/>
</svg>
