<svg width="37" height="35" viewBox="0 0 37 35" fill="none" xmlns="http://www.w3.org/2000/svg">
<path d="M1.39648 20.3965C1.29102 20.3965 1.18555 20.3789 1.08008 20.3438C0.974609 20.3086 0.880859 20.25 0.798828 20.168C0.611328 20.0039 0.511719 19.7988 0.5 19.5527C0.488281 19.2949 0.564453 19.0781 0.728516 18.9023L16.6191 1.32422C16.8652 1.05469 17.1465 0.849609 17.4629 0.708984C17.791 0.556641 18.1367 0.480469 18.5 0.480469C18.8633 0.480469 19.2031 0.556641 19.5195 0.708984C19.8477 0.849609 20.1348 1.05469 20.3809 1.32422L25.707 7.23047V5.10352C25.707 4.98633 25.7246 4.875 25.7598 4.76953C25.8066 4.65234 25.8711 4.55273 25.9531 4.4707C26.0469 4.37695 26.1465 4.3125 26.252 4.27734C26.3691 4.23047 26.4863 4.20703 26.6035 4.20703H30.207C30.4531 4.20703 30.6641 4.29492 30.8398 4.4707C31.0156 4.64648 31.1035 4.85742 31.1035 5.10352V13.1895L36.2715 18.9023C36.4355 19.0781 36.5117 19.2949 36.5 19.5527C36.4883 19.7988 36.3887 20.0039 36.2012 20.168C36.0137 20.332 35.7969 20.4082 35.5508 20.3965C35.3047 20.3848 35.0996 20.2852 34.9355 20.0977L29.5391 14.1387C29.457 14.0566 29.3926 13.9629 29.3457 13.8574C29.3105 13.752 29.293 13.6406 29.293 13.5234V6H27.5L27.5176 9.56836C27.5176 9.75586 27.4648 9.93164 27.3594 10.0957C27.2656 10.248 27.1309 10.3535 26.9551 10.4121C26.7793 10.4824 26.5977 10.5 26.4102 10.4648C26.2344 10.418 26.082 10.3242 25.9531 10.1836L19.0449 2.53711C18.9629 2.45508 18.875 2.39648 18.7812 2.36133C18.6992 2.31445 18.6055 2.29102 18.5 2.29102C18.3945 2.29102 18.2949 2.31445 18.2012 2.36133C18.1191 2.39648 18.0371 2.45508 17.9551 2.53711L2.06445 20.0977C1.98242 20.2031 1.88281 20.2793 1.76562 20.3262C1.64844 20.373 1.52539 20.3965 1.39648 20.3965ZM28.3965 34.793H8.60352C7.85352 34.793 7.21484 34.5293 6.6875 34.002C6.16016 33.4746 5.89648 32.8418 5.89648 32.1035V17.707C5.89648 17.4492 5.98438 17.2324 6.16016 17.0566C6.33594 16.8809 6.54688 16.793 6.79297 16.793C7.05078 16.793 7.26758 16.8809 7.44336 17.0566C7.61914 17.2324 7.70703 17.4492 7.70703 17.707V32.1035C7.70703 32.3496 7.79492 32.5605 7.9707 32.7363C8.14648 32.9121 8.35742 33 8.60352 33H28.3965C28.6426 33 28.8535 32.9121 29.0293 32.7363C29.2051 32.5605 29.293 32.3496 29.293 32.1035V17.707C29.293 17.4492 29.3809 17.2324 29.5566 17.0566C29.7324 16.8809 29.9492 16.793 30.207 16.793C30.4531 16.793 30.6641 16.8809 30.8398 17.0566C31.0156 17.2324 31.1035 17.4492 31.1035 17.707V32.1035C31.1035 32.8418 30.8398 33.4746 30.3125 34.002C29.7852 34.5293 29.1465 34.793 28.3965 34.793Z" fill="#F2F4F6"/>
</svg>
