<svg width="37" height="45" fill="none" xmlns="http://www.w3.org/2000/svg"><path d="M36.4406 26.6953 20.55 9.13477c-.2461-.28125-.5332-.49219-.8613-.63282-.3164-.14062-.6563-.21093-1.0196-.21093-.3632 0-.7089.07031-1.0371.21093-.3164.14063-.5976.35157-.8437.63282L.897656 26.6953c-.164062.1875-.240234.4043-.228515.6504.011718.2461.111328.4512.298828.6152.082031.0821.175781.1465.281251.1934.10547.0352.21094.0527.31641.0527.1289 0 .25195-.0234.36914-.0703.11718-.0586.21679-.1347.29882-.2285l3.83204-4.2363v14.4316c0 .7383.26367 1.3711.79101 1.8985.52734.5273 1.16602.791 1.91602.791H28.5656c.75 0 1.3887-.2637 1.916-.791.5274-.5274.7911-1.1602.7911-1.8985V23.6719l3.832 4.2363c.164.1758.3691.2754.6152.2988.2461.0118.4629-.0703.6504-.2461.1875-.164.2871-.3691.2988-.6152.0118-.2461-.0644-.4629-.2285-.6504ZM22.2727 39h-7.2071v-8.1035c0-.2461.0879-.457.2637-.6328.1758-.1758.3867-.2637.6328-.2637h5.4141c.2461 0 .457.0879.6328.2637.1758.1758.2637.3867.2637.6328V39Zm7.1894-.8965c0 .2461-.0879.457-.2637.6328-.1757.1758-.3867.2637-.6328.2637h-4.5v-8.1035c0-.7383-.2636-1.3711-.791-1.8985-.5273-.5273-1.1601-.791-1.8984-.791h-5.4141c-.7383 0-1.3711.2637-1.8984.791-.5274.5274-.791 1.1602-.791 1.8985V39H8.77266c-.2461 0-.45703-.0879-.63282-.2637-.17578-.1758-.26367-.3867-.26367-.6328v-16.418L18.1242 10.3301c.082-.0821.1641-.1406.2461-.1758.0938-.0469.1934-.0703.2988-.0703.1055 0 .1993.0234.2813.0703.0937.0352.1816.0937.2637.1758l10.248 11.3554v16.418Z" fill="#F2F4F6"/></svg>