<svg width="155" height="193" viewBox="0 0 155 193" fill="none" xmlns="http://www.w3.org/2000/svg">
<path opacity="0.422596" d="M154.223 145.873C154.223 147.569 153.154 149.212 151.017 150.484C151.017 150.484 147.718 152.438 146.069 153.414C98.8023 181.408 86.0913 190.11 86.0913 190.11C81.7647 192.654 74.7404 192.654 70.4138 190.11L4.15012 152.225C2.01228 150.953 0.943359 149.257 0.943359 147.613C0.943359 145.917 2.01228 144.274 4.15012 143.002L69.0754 103.376C73.4019 100.832 80.4263 100.832 84.7528 103.376L154.223 138.824C154.223 143.201 154.223 144.177 154.223 145.873Z" fill="#BFC9D1" fill-opacity="0.8"/>
<path d="M154.223 140.173C154.223 141.869 153.154 143.512 151.016 144.784C151.016 144.784 147.718 146.738 146.069 147.714C98.8017 175.707 86.1009 184.11 86.1009 184.11C81.7743 186.654 74.7499 186.654 70.4232 184.11L4.15015 144.833C2.01229 143.561 0.943359 141.865 0.943359 140.222C0.943359 138.526 2.01229 136.883 4.15015 135.61L69.0658 96.285C73.3924 93.7409 80.4168 93.7409 84.7434 96.285L151.016 135.562C153.154 136.781 154.223 138.477 154.223 140.173Z" fill="white" stroke="#1B127D"/>
<path d="M37.7537 164.729L118.076 117.205C122.838 114.409 35.401 166.127 37.7537 164.729Z" stroke="#1B127D" stroke-dasharray="5 8"/>
<path d="M118.264 164.73L35.6063 116.24C29.5609 112.692 121.251 166.504 118.264 164.73Z" stroke="#1B127D" stroke-dasharray="5 8"/>
<path opacity="0.462705" d="M81.1113 138.031L82.728 139L79.4407 141.001L82.728 142.936L81.3337 143.887L77.7524 141.984L74.4618 143.881L72.8818 142.936L76.0644 141.002L73.2372 139.356L74.725 138.5L77.7524 140.019L81.1113 138.031Z" fill="white"/>
<path fill-rule="evenodd" clip-rule="evenodd" d="M154.358 138.948C154.358 139.393 154.07 139.824 153.495 140.158L152.616 140.68C151.451 141.348 149.559 141.348 148.394 140.68L70.3479 95.2348C69.7722 94.9009 69.4844 94.4557 69.4844 94.0243C69.4844 93.5791 69.7722 93.1478 70.3479 92.8138L71.2267 92.2919C72.3917 91.624 74.2832 91.624 75.4482 92.2919L153.495 137.737C154.07 138.057 154.358 138.502 154.358 138.948Z" fill="#D9DCDF"/>
<path fill-rule="evenodd" clip-rule="evenodd" d="M154.358 137.156C154.358 137.602 154.07 138.033 153.495 138.367L152.616 138.889C151.451 139.557 149.559 139.557 148.394 138.889L70.3479 93.4436C69.7722 93.1097 69.4844 92.6644 69.4844 92.2331C69.4844 91.7878 69.7722 91.3565 70.3479 91.0226L71.2267 90.5007C72.3917 89.8328 74.2832 89.8328 75.4482 90.5007L153.495 135.946C154.07 136.266 154.358 136.711 154.358 137.156Z" fill="white" stroke="#1B127D"/>
<ellipse cx="74.1435" cy="92.75" rx="1.44131" ry="0.845968" fill="black"/>
<ellipse cx="77.288" cy="94.5723" rx="1.44131" ry="0.845968" fill="black"/>
<ellipse cx="80.6952" cy="96.3941" rx="1.44131" ry="0.845968" fill="black"/>
<path fill-rule="evenodd" clip-rule="evenodd" d="M148.36 135.496C149.532 136.159 149.801 136.736 149.169 137.227L145.765 135.264C146.323 134.755 147.188 134.833 148.36 135.496ZM149.49 134.48C150.025 134.772 150.196 135.242 149.87 135.529C149.545 135.817 148.847 135.813 148.312 135.521C147.777 135.229 147.606 134.759 147.932 134.471C148.257 134.184 148.955 134.187 149.49 134.48Z" fill="black"/>
<path fill-rule="evenodd" clip-rule="evenodd" d="M142.289 131.373L145.721 133.4C146.048 133.591 146.105 133.889 145.848 134.066C145.591 134.242 145.118 134.23 144.791 134.038L141.359 132.012C141.032 131.82 140.975 131.522 141.232 131.346C141.489 131.169 141.963 131.182 142.289 131.373Z" fill="black"/>
<path fill-rule="evenodd" clip-rule="evenodd" d="M139.707 129.887L140.795 130.574C141.109 130.763 141.164 131.058 140.917 131.233C140.67 131.407 140.215 131.395 139.901 131.205L138.813 130.519C138.498 130.329 138.444 130.034 138.691 129.86C138.938 129.685 139.393 129.697 139.707 129.887Z" fill="black"/>
<path opacity="0.04" d="M149.618 142.237C149.618 143.819 148.576 145.353 146.494 146.54L123.45 160.166C119.235 162.54 112.391 162.54 108.175 160.166L43.2045 123.104C41.1215 121.917 40.0801 120.334 40.0801 118.801C40.0801 117.218 41.1215 115.685 43.2045 114.498L66.2479 100.872C70.4633 98.4976 77.3072 98.4976 81.5226 100.872L146.494 137.934C148.576 139.072 149.618 140.654 149.618 142.237Z" fill="black"/>
<path opacity="0.8" d="M40.002 114.075V63.5672L73.1685 44.2061C96.6264 57.5625 144.249 84.713 147.078 86.4639C149.906 88.2149 149.715 90.1117 149.266 90.8412V144.884C141.746 149.205 125.932 158.42 122.834 160.71C119.736 163 115.258 161.664 113.406 160.71L40.002 114.075Z" fill="url(#paint0_linear_1216_15674)"/>
<path fill-rule="evenodd" clip-rule="evenodd" d="M113.406 141.137C113.406 142.789 112.355 144.391 110.252 145.63L85.3871 159.352C81.1317 161.831 74.2229 161.831 69.9674 159.352L5.10715 121.803C3.00447 120.564 1.95312 118.911 1.95312 117.31C1.95312 115.657 3.00447 114.056 5.10715 112.816L29.9722 99.0945C34.2276 96.6153 41.1364 96.6153 45.3918 99.0945L110.252 136.643C112.355 137.831 113.406 139.484 113.406 141.137Z" fill="white" stroke="#1B127D"/>
<path fill-rule="evenodd" clip-rule="evenodd" d="M113.309 138.604C113.309 140.258 112.25 141.86 110.133 143.101L85.0877 156.83C80.8015 159.311 73.8427 159.311 69.5565 156.83L5.21101 118.959C3.09312 117.719 2.03418 116.065 2.03418 114.463C2.03418 112.809 3.09312 111.207 5.21101 109.967L30.2559 96.2374C34.5421 93.7568 41.5009 93.7568 45.7871 96.2374L110.133 134.108C112.25 135.297 113.309 136.951 113.309 138.604Z" fill="white" stroke="#1B127D"/>
<g style="mix-blend-mode:multiply">
<path fill-rule="evenodd" clip-rule="evenodd" d="M83.3552 149.75C84.1217 149.299 84.3385 148.699 83.8395 148.411L62.457 136.065C61.958 135.777 60.9321 135.91 60.1657 136.362L53.8435 140.089C53.077 140.541 52.8602 141.141 53.3592 141.429L74.7417 153.774C75.2407 154.062 76.2666 153.929 77.033 153.478L83.3552 149.75ZM61.0474 136.463C61.3081 136.349 61.8906 136.366 62.0575 136.463L83.3542 148.739C83.5211 148.836 83.4499 149.034 83.1951 149.182L76.1996 153.298C75.9448 153.447 75.3564 153.395 75.1895 153.298L53.808 141.008C53.641 140.912 54.041 140.535 54.2958 140.387L61.0474 136.463Z" fill="#1B127D"/>
<path fill-rule="evenodd" clip-rule="evenodd" d="M102.885 138.301C103.651 137.849 103.868 137.25 103.369 136.961L81.9863 124.616C81.4873 124.328 80.4614 124.461 79.695 124.913L73.3728 128.64C72.6063 129.092 72.3895 129.692 72.8885 129.98L94.271 142.325C94.77 142.613 95.7959 142.48 96.5623 142.028L102.885 138.301ZM80.5767 125.014C80.8375 124.899 81.4199 124.917 81.5869 125.014L102.884 137.29C103.05 137.386 102.979 137.585 102.724 137.733L95.7289 141.849C95.4741 141.998 94.8857 141.946 94.7188 141.849L73.3373 129.559C73.1704 129.463 73.5704 129.086 73.8252 128.938L80.5767 125.014Z" fill="#1B127D"/>
<path fill-rule="evenodd" clip-rule="evenodd" d="M33.9592 102.951L41.8691 107.874C42.7683 108.409 42.9243 109.243 42.2175 109.736C41.5107 110.229 40.2088 110.194 39.3095 109.659L31.3997 104.736C30.5004 104.201 30.3444 103.367 31.0513 102.874C31.7581 102.381 33.06 102.415 33.9592 102.951Z" fill="#1B127D"/>
<path fill-rule="evenodd" clip-rule="evenodd" d="M12.4997 114.29L39.768 130.539C40.6737 131.077 40.8308 131.915 40.1189 132.41C39.4071 132.905 38.0958 132.87 37.1902 132.332L9.92189 116.083C9.01626 115.546 8.85917 114.708 9.57102 114.213C10.2829 113.718 11.5941 113.753 12.4997 114.29Z" fill="#1B127D"/>
<path fill-rule="evenodd" clip-rule="evenodd" d="M18.7892 110.516L34.0038 119.717C34.9098 120.261 35.067 121.108 34.3548 121.608C33.6427 122.109 32.3309 122.074 31.4249 121.53L16.2103 112.329C15.3043 111.786 15.1471 110.939 15.8593 110.438C16.5714 109.938 17.8832 109.973 18.7892 110.516Z" fill="#1B127D"/>
<path fill-rule="evenodd" clip-rule="evenodd" d="M40.2944 99.7147L58.1021 110.557C59.0139 111.096 59.1721 111.936 58.4554 112.433C57.7386 112.929 56.4184 112.895 55.5065 112.355L37.6989 101.513C36.787 100.974 36.6288 100.134 37.3456 99.6373C38.0623 99.1407 39.3825 99.1754 40.2944 99.7147Z" fill="#1B127D"/>
<path fill-rule="evenodd" clip-rule="evenodd" d="M46.012 110.51L53.9219 115.433C54.8211 115.968 54.9771 116.802 54.2703 117.295C53.5634 117.788 52.2615 117.753 51.3623 117.218L43.4524 112.295C42.5532 111.759 42.3972 110.926 43.104 110.433C43.8108 109.94 45.1128 109.974 46.012 110.51Z" fill="#1B127D"/>
</g>
<path d="M148.967 88.0376C148.967 89.6202 147.925 91.1534 145.842 92.3404L122.799 105.967C118.583 108.341 111.739 108.341 107.524 105.967L42.5531 68.9044C40.4702 67.7174 39.4287 66.1347 39.4287 64.6016C39.4287 63.0189 40.4702 61.4857 42.5531 60.2987L65.5965 46.6723C69.812 44.2984 76.6558 44.2984 80.8713 46.6723L145.842 83.7348C147.925 84.8723 148.967 86.4549 148.967 88.0376Z" fill="white" stroke="#1B127D"/>
<path d="M148.967 86.0735C148.967 87.6561 147.925 89.1893 145.842 90.3763L122.799 104.003C118.583 106.377 111.739 106.377 107.524 104.003L42.5531 66.9403C40.4702 65.7533 39.4287 64.1706 39.4287 62.6374C39.4287 61.0548 40.4702 59.5216 42.5531 58.3346L65.5965 44.7082C69.812 42.3342 76.6558 42.3342 80.8713 44.7082L145.842 81.7706C147.925 82.9082 148.967 84.4908 148.967 86.0735Z" fill="white" stroke="#1B127D"/>
<path d="M69.0399 64.5761L79.7635 58.3787L79.9551 8.27686L69.0399 14.5962V64.5761Z" fill="white" stroke="#1B127D" stroke-miterlimit="10"/>
<path d="M69.04 14.5965V64.5764L58.5081 58.4488V7.89429L69.04 14.5965Z" fill="white" stroke="#1B127D" stroke-miterlimit="10"/>
<path d="M86.2264 74.3818L96.95 68.1844L97.1416 27.1388L86.2264 33.4581V74.3818Z" fill="white" stroke="#1B127D" stroke-miterlimit="10"/>
<path d="M86.2266 33.4583V74.382L75.6942 68.2543V26.7561L86.2266 33.4583Z" fill="white" stroke="#1B127D" stroke-miterlimit="10"/>
<path d="M103.151 84.1664L113.875 77.9685L114.066 45.9792L103.151 52.2986V84.1664Z" fill="white" stroke="#1B127D" stroke-miterlimit="10"/>
<path d="M103.151 52.2991V84.167L92.6195 78.0389V45.5969L103.151 52.2991Z" fill="white" stroke="#1B127D" stroke-miterlimit="10"/>
<path d="M120.338 75.8042V94.0877L109.806 87.96V69.1021L120.338 75.8042Z" fill="white" stroke="#1B127D" stroke-miterlimit="10"/>
<path d="M131.253 69.4846L120.338 75.8039V94.0874L131.061 87.8899L131.253 69.4846Z" fill="white" stroke="#1B127D" stroke-miterlimit="10"/>
<path d="M79.9551 7.81856L69.0399 1.30762L58.508 7.43571L69.0399 14.1379L79.9551 7.81856Z" fill="#ED26B7" stroke="#1B127D" stroke-linecap="round" stroke-linejoin="round"/>
<path d="M97.1416 26.6816L86.2264 20.1707L75.6941 26.2987L86.2264 33.0009L97.1416 26.6816Z" fill="#ED26B7" stroke="#1B127D" stroke-linecap="round" stroke-linejoin="round"/>
<path d="M114.066 45.5222L103.151 39.0112L92.6193 45.1393L103.151 51.8415L114.066 45.5222Z" fill="#ED26B7" stroke="#1B127D" stroke-linecap="round" stroke-linejoin="round"/>
<path d="M131.253 69.0273L120.338 62.5164L109.806 68.644L120.338 75.3466L131.253 69.0273Z" fill="#ED26B7" stroke="#1B127D" stroke-linecap="round" stroke-linejoin="round"/>
<defs>
<linearGradient id="paint0_linear_1216_15674" x1="94.7648" y1="44.2061" x2="94.7648" y2="161.974" gradientUnits="userSpaceOnUse">
<stop stop-color="#ED26B7"/>
<stop offset="1" stop-color="#7D8082" stop-opacity="0"/>
</linearGradient>
</defs>
</svg>
