<svg width="122" height="227" viewBox="0 0 122 227" fill="none" xmlns="http://www.w3.org/2000/svg">
<path d="M35.4967 194.256V197.107C35.4967 202.74 42.9282 207.306 52.0916 207.306C61.255 207.306 68.6865 202.74 68.6865 197.107V194.256C68.6865 199.888 61.2575 204.455 52.0916 204.455C42.9257 204.455 35.4967 199.888 35.4967 194.256Z" fill="#ED26B7"/>
<path d="M52.0916 204.454C42.9265 204.454 35.4967 199.888 35.4967 194.255C35.4967 188.623 42.9265 184.056 52.0916 184.056C61.2567 184.056 68.6865 188.623 68.6865 194.255C68.6865 199.888 61.2567 204.454 52.0916 204.454Z" fill="#FF7CDB"/>
<mask id="mask0_2769_7978" style="mask-type:alpha" maskUnits="userSpaceOnUse" x="35" y="184" width="34" height="21">
<path d="M52.0916 204.454C42.9265 204.454 35.4967 199.888 35.4967 194.255C35.4967 188.623 42.9265 184.056 52.0916 184.056C61.2567 184.056 68.6865 188.623 68.6865 194.255C68.6865 199.888 61.2567 204.454 52.0916 204.454Z" fill="#FF7CDB"/>
</mask>
<g mask="url(#mask0_2769_7978)">
<ellipse cx="51.4315" cy="194.782" rx="16.659" ry="10.199" transform="rotate(7.83517 51.4315 194.782)" fill="#B31288"/>
</g>
<path d="M36.1373 190.418V193.269C36.1373 198.902 43.5689 203.468 52.7322 203.468C61.8956 203.468 69.3271 198.902 69.3271 193.269V190.418C69.3271 196.05 61.8981 200.617 52.7322 200.617C43.5664 200.617 36.1373 196.05 36.1373 190.418Z" fill="#ED26B7"/>
<path d="M52.7322 200.617C43.5671 200.617 36.1373 196.05 36.1373 190.418C36.1373 184.785 43.5671 180.219 52.7322 180.219C61.8974 180.219 69.3271 184.785 69.3271 190.418C69.3271 196.05 61.8974 200.617 52.7322 200.617Z" fill="#FF7CDB"/>
<mask id="mask1_2769_7978" style="mask-type:alpha" maskUnits="userSpaceOnUse" x="36" y="180" width="34" height="21">
<path d="M52.7322 200.617C43.5671 200.617 36.1373 196.05 36.1373 190.418C36.1373 184.785 43.5671 180.219 52.7322 180.219C61.8974 180.219 69.3271 184.785 69.3271 190.418C69.3271 196.05 61.8974 200.617 52.7322 200.617Z" fill="#FF7CDB"/>
</mask>
<g mask="url(#mask1_2769_7978)">
<ellipse cx="57.9139" cy="191.832" rx="16.659" ry="10.199" transform="rotate(7.83517 57.9139 191.832)" fill="#B31288"/>
</g>
<path d="M32.9352 185.513V188.365C32.9352 193.997 40.3667 198.564 49.5301 198.564C58.6935 198.564 66.125 193.997 66.125 188.365V185.513C66.125 191.146 58.696 195.712 49.5301 195.712C40.3642 195.712 32.9352 191.146 32.9352 185.513Z" fill="#ED26B7"/>
<mask id="mask2_2769_7978" style="mask-type:alpha" maskUnits="userSpaceOnUse" x="32" y="185" width="35" height="14">
<path d="M32.9352 185.513V188.365C32.9352 193.997 40.3667 198.564 49.5301 198.564C58.6935 198.564 66.125 193.997 66.125 188.365V185.513C66.125 191.146 58.696 195.712 49.5301 195.712C40.3642 195.712 32.9352 191.146 32.9352 185.513Z" fill="#ED26B7"/>
</mask>
<g mask="url(#mask2_2769_7978)">
<ellipse cx="29.6673" cy="190.895" rx="16.6355" ry="10.199" transform="rotate(-101.679 29.6673 190.895)" fill="#B31288" fill-opacity="0.8"/>
</g>
<path d="M49.5301 195.712C40.365 195.712 32.9352 191.146 32.9352 185.513C32.9352 179.88 40.365 175.314 49.5301 175.314C58.6952 175.314 66.125 179.88 66.125 185.513C66.125 191.146 58.6952 195.712 49.5301 195.712Z" fill="#FF7CDB"/>
<mask id="mask3_2769_7978" style="mask-type:alpha" maskUnits="userSpaceOnUse" x="32" y="175" width="35" height="21">
<path d="M49.8204 195.747C40.4629 195.747 32.8771 191.257 32.8771 185.72C32.8771 180.182 40.4629 175.692 49.8204 175.692C59.1779 175.692 66.7637 180.182 66.7637 185.72C66.7637 191.257 59.1779 195.747 49.8204 195.747Z" fill="#FF7CDB"/>
</mask>
<g mask="url(#mask3_2769_7978)">
<ellipse cx="55.8933" cy="188.21" rx="17.0087" ry="10.4131" transform="rotate(7.83517 55.8933 188.21)" fill="#B31288"/>
<ellipse cx="23.32" cy="192.039" rx="17.0087" ry="10.4131" transform="rotate(7.83517 23.32 192.039)" fill="#B31288"/>
</g>
<path d="M38.9039 182.742V185.593C38.9039 191.226 46.3355 195.792 55.4988 195.792C64.6622 195.792 72.0938 191.226 72.0938 185.593V182.742C72.0938 188.374 64.6647 192.941 55.4988 192.941C46.333 192.941 38.9039 188.374 38.9039 182.742Z" fill="#FF7CDB"/>
<path d="M55.4988 192.941C46.3337 192.941 38.9039 188.375 38.9039 182.742C38.9039 177.109 46.3337 172.543 55.4988 172.543C64.664 172.543 72.0938 177.109 72.0938 182.742C72.0938 188.375 64.664 192.941 55.4988 192.941Z" fill="#ED26B7"/>
<mask id="mask4_2769_7978" style="mask-type:alpha" maskUnits="userSpaceOnUse" x="38" y="172" width="35" height="21">
<path d="M55.5008 192.941C46.3357 192.941 38.9059 188.374 38.9059 182.742C38.9059 177.109 46.3357 172.543 55.5008 172.543C64.6659 172.543 72.0957 177.109 72.0957 182.742C72.0957 188.374 64.6659 192.941 55.5008 192.941Z" fill="#ED26B7"/>
</mask>
<g mask="url(#mask4_2769_7978)">
<ellipse cx="52.2373" cy="173.119" rx="16.6355" ry="10.199" transform="rotate(7.83517 52.2373 173.119)" fill="#B31288"/>
</g>
<path d="M42.9683 155.343L41.2826 157.642C37.9528 162.185 41.3202 170.315 48.8015 175.799C56.2827 181.283 65.0499 182.048 68.3797 177.505L70.0654 175.205C66.7356 179.748 57.9705 178.985 50.4872 173.5C43.0039 168.014 39.6385 159.885 42.9683 155.343Z" fill="#FF7CDB"/>
<path d="M50.3216 173.379C42.9297 167.961 39.637 159.885 42.9671 155.342C46.2971 150.8 54.989 151.509 62.3809 156.928C69.7728 162.346 73.0656 170.421 69.7355 174.964C66.4054 179.507 57.7135 178.798 50.3216 173.379Z" fill="#ED26B7" stroke="#ED26B7" stroke-width="0.776371" stroke-miterlimit="10"/>
<path d="M65.4198 206.034L65.4299 208.886C65.4499 214.518 72.8976 219.058 82.0609 219.026C91.2242 218.993 98.6395 214.4 98.6195 208.768L98.6094 205.917C98.6294 211.549 91.2166 216.142 82.0508 216.174C72.885 216.207 65.4398 211.667 65.4198 206.034Z" fill="#ED26B7"/>
<mask id="mask5_2769_7978" style="mask-type:alpha" maskUnits="userSpaceOnUse" x="65" y="205" width="34" height="15">
<path d="M65.4198 206.034L65.4299 208.886C65.4499 214.518 72.8976 219.058 82.0609 219.026C91.2242 218.993 98.6395 214.4 98.6195 208.768L98.6094 205.917C98.6294 211.549 91.2166 216.142 82.0508 216.174C72.885 216.207 65.4398 211.667 65.4198 206.034Z" fill="#ED26B7"/>
</mask>
<g mask="url(#mask5_2769_7978)">
<ellipse cx="75.9847" cy="215.918" rx="16.659" ry="10.199" transform="rotate(81.1617 75.9847 215.918)" fill="#B31288"/>
</g>
<path d="M82.0509 216.174C72.8858 216.207 65.4399 211.667 65.4199 206.034C65.3999 200.402 72.8134 195.809 81.9784 195.776C91.1435 195.744 98.5895 200.284 98.6095 205.916C98.6295 211.549 91.2159 216.142 82.0509 216.174Z" fill="#FF7CDB"/>
<mask id="mask6_2769_7978" style="mask-type:alpha" maskUnits="userSpaceOnUse" x="65" y="195" width="34" height="22">
<path d="M82.0519 216.174C72.8868 216.207 65.4408 211.667 65.4208 206.034C65.4008 200.402 72.8144 195.809 81.9794 195.776C91.1445 195.744 98.5904 200.284 98.6104 205.916C98.6304 211.549 91.2169 216.142 82.0519 216.174Z" fill="#FF7CDB"/>
</mask>
<g mask="url(#mask6_2769_7978)">
<ellipse cx="70.1336" cy="216.828" rx="16.659" ry="10.199" transform="rotate(7.83517 70.1336 216.828)" fill="#B31288"/>
</g>
<path d="M50.9109 213.76L51.3332 216.58C52.1672 222.15 60.1934 225.566 69.2562 224.209C78.3189 222.852 84.9926 217.235 84.1586 211.665L83.7363 208.845C84.5704 214.415 77.8992 220.032 68.8339 221.389C59.7687 222.746 51.745 219.33 50.9109 213.76Z" fill="#ED26B7"/>
<path d="M68.8352 221.389C59.7711 222.746 51.7471 219.331 50.913 213.76C50.0789 208.189 56.7505 202.573 65.8146 201.216C74.8787 199.859 82.9027 203.274 83.7369 208.845C84.571 214.416 77.8993 220.032 68.8352 221.389Z" fill="#FF7CDB"/>
<path d="M13.0545 209.243L15.3599 210.92C19.9138 214.235 27.9792 210.913 33.3714 203.505C38.7636 196.096 39.4443 187.4 34.8904 184.085L32.585 182.407C37.1389 185.722 36.4596 194.416 31.066 201.827C25.6723 209.238 17.6084 212.557 13.0545 209.243Z" fill="#ED26B7"/>
<path d="M31.0661 201.827C25.6729 209.237 17.6089 212.558 13.0546 209.243C8.50037 205.928 9.18044 197.234 14.5736 189.824C19.9668 182.413 28.0308 179.093 32.5851 182.408C37.1394 185.722 36.4593 194.417 31.0661 201.827Z" fill="#FF7CDB"/>
<path d="M70.1672 126.486L104.22 78.2519L5.65825 76.9556L38.5374 126.486V166.068C38.5374 166.068 63.8085 170.753 70.1672 153.016V126.486Z" fill="white"/>
<path d="M104.22 78.2519L104.226 77.752L104.628 78.5403L104.22 78.2519ZM70.1672 126.486H69.6672V126.328L69.7587 126.198L70.1672 126.486ZM70.1672 153.016H70.6672V153.103L70.6379 153.185L70.1672 153.016ZM38.5374 166.068L38.4462 166.56L38.0374 166.484V166.068H38.5374ZM38.5374 126.486L38.954 126.21L39.0374 126.335V126.486H38.5374ZM5.65825 76.9556L5.24168 77.2321L4.71797 76.4432L5.66483 76.4556L5.65825 76.9556ZM104.628 78.5403L70.5757 126.775L69.7587 126.198L103.811 77.9636L104.628 78.5403ZM70.6672 126.486V153.016H69.6672V126.486H70.6672ZM70.6379 153.185C67.3671 162.309 59.2306 165.631 52.0405 166.688C48.439 167.218 45.0442 167.186 42.5526 167.022C41.3058 166.94 40.2827 166.825 39.5698 166.73C39.2133 166.683 38.9343 166.641 38.7434 166.61C38.648 166.595 38.5746 166.582 38.5247 166.574C38.4997 166.569 38.4805 166.566 38.4674 166.564C38.4608 166.562 38.4558 166.561 38.4522 166.561C38.4505 166.561 38.4491 166.56 38.4481 166.56C38.4476 166.56 38.4471 166.56 38.4469 166.56C38.4465 166.56 38.4462 166.56 38.5374 166.068C38.6285 165.576 38.6285 165.576 38.6285 165.576C38.6286 165.577 38.6287 165.577 38.629 165.577C38.6295 165.577 38.6304 165.577 38.6317 165.577C38.6343 165.578 38.6385 165.578 38.6441 165.579C38.6553 165.581 38.6725 165.584 38.6955 165.588C38.7415 165.596 38.8108 165.608 38.9021 165.623C39.0845 165.652 39.3546 165.693 39.7015 165.739C40.3955 165.831 41.3964 165.944 42.6181 166.024C45.0636 166.185 48.3839 166.215 51.8951 165.699C58.9303 164.664 66.6087 161.461 69.6965 152.847L70.6379 153.185ZM38.0374 166.068V126.486H39.0374V166.068H38.0374ZM38.1208 126.763L5.24168 77.2321L6.07482 76.679L38.954 126.21L38.1208 126.763ZM5.66483 76.4556L104.226 77.752L104.213 78.7519L5.65167 77.4555L5.66483 76.4556Z" fill="#1B127D"/>
<path d="M55.2991 99.4947C26.5259 99.4947 1.89308 85.1593 1.89308 67.4757C1.89308 49.7922 26.5259 35.4568 55.2991 35.4568C84.0722 35.4568 107.397 49.7922 107.397 67.4757C107.397 85.1593 84.0722 99.4947 55.2991 99.4947Z" fill="white" stroke="#1B127D" stroke-miterlimit="10"/>
<g opacity="0.9">
<path d="M71.6869 77.3556L35.0072 58.822C33.4729 57.9983 32.2335 58.6422 32.2196 60.1454L33.7766 87.6825C33.8387 89.3021 35.2473 91.2039 36.898 91.9516L77.8361 112.683C79.3704 113.507 80.6099 112.863 80.6238 111.36L79.2577 88.1803" fill="white"/>
<path d="M71.6869 77.3556L35.0072 58.822C33.4729 57.9983 32.2335 58.6422 32.2196 60.1454L33.7766 87.6825C33.8387 89.3021 35.2473 91.2039 36.898 91.9516L77.8361 112.683C79.3704 113.507 80.6099 112.863 80.6238 111.36L79.2577 88.1803" stroke="#1B127D" stroke-linecap="round" stroke-linejoin="round"/>
</g>
<path d="M70.9165 77.6951L71.1075 82.0527C71.1696 83.6722 72.5783 85.5741 74.2289 86.3217L78.4873 88.5198" fill="white"/>
<path d="M70.9165 77.6951L71.1075 82.0527C71.1696 83.6722 72.5783 85.5741 74.2289 86.3217L78.4873 88.5198" stroke="#1B127D" stroke-linecap="round" stroke-linejoin="round"/>
<path d="M49.7574 64.6253L50.6562 79.9754C50.6873 80.7852 51.4475 81.9486 52.369 82.3426L58.8908 85.718C59.8123 86.112 60.47 85.8483 60.439 85.0385L59.5402 69.6884C59.5091 68.8786 58.7489 67.7151 57.8274 67.3212L51.3056 63.9458C50.3081 63.4354 49.6504 63.6992 49.7574 64.6253Z" fill="white" stroke="#1B127D" stroke-linecap="round" stroke-linejoin="round"/>
<path d="M79.2608 88.1804L71.69 77.3557" stroke="#1B127D" stroke-linecap="round" stroke-linejoin="round"/>
<path d="M39.0907 75.6997C36.2221 80.6014 29.6415 84.4204 24.4183 84.2181C23.4977 84.2494 22.5826 84.064 21.7467 83.6766C20.9108 83.2892 20.1775 82.7108 19.606 81.988L15.3896 75.191C15.8332 75.7793 16.3924 76.2706 17.0329 76.6345C17.6735 76.9984 18.3817 77.2272 19.1138 77.3068C19.4784 77.3671 19.8462 77.4063 20.2153 77.4242C25.45 77.6081 32.0192 73.8075 34.8929 68.9141C35.332 68.1819 35.6789 67.3982 35.9258 66.5807C36.388 65.2512 36.3303 63.7958 35.7644 62.5064L39.5965 68.684C40.8084 70.3797 40.7284 72.9226 39.0907 75.6997Z" fill="white" stroke="#1B127D"/>
<path d="M29.228 74.7461C34.8668 71.2482 37.8141 65.7947 35.8109 62.5654C33.8076 59.336 27.6125 59.5537 21.9737 63.0516C16.3348 66.5494 13.3876 72.0029 15.3908 75.2323C17.3941 78.4616 23.5892 78.244 29.228 74.7461Z" fill="white" stroke="#1B127D"/>
<path d="M29.3115 74.6945L29.7291 74.4195L29.6803 74.3454L29.609 74.2926L25.8023 71.475C26.4952 71.1082 27.1389 70.6602 27.7358 70.1627L27.7552 70.1466L27.7728 70.1286C28.418 69.4701 29.1975 68.5957 29.6458 67.6586L35.72 67.3486L39.8068 74.0152C39.7713 74.1283 39.7168 74.2889 39.6383 74.489C39.4678 74.9233 39.1843 75.5431 38.7366 76.2666C37.889 77.6364 36.4505 79.3818 34.067 80.9472C33.4403 80.0232 32.4648 78.5568 31.596 77.2454C31.0926 76.4856 30.6259 75.7791 30.285 75.2625L29.8792 74.6473L29.768 74.4786L29.739 74.4345L29.7316 74.4233L29.7297 74.4205L29.7292 74.4198L29.7291 74.4196L29.3115 74.6945Z" fill="#ED26B7" stroke="#1B127D"/>
<path d="M29.8823 66.2441C30.1339 66.6496 30.0938 67.3399 29.5391 68.2441C29.0016 69.1202 28.0514 70.0624 26.8042 70.8361C25.5569 71.6098 24.2907 72.0425 23.267 72.1348C22.2105 72.2301 21.5743 71.9593 21.3227 71.5538C21.0712 71.1482 21.1112 70.458 21.6659 69.5538C22.2035 68.6776 23.1536 67.7355 24.4009 66.9618C25.6481 66.1881 26.9143 65.7554 27.9381 65.6631C28.9945 65.5678 29.6308 65.8386 29.8823 66.2441Z" fill="#1B127D" stroke="#1B127D"/>
<g opacity="0.9">
<path d="M53.0108 50.8514L74.1646 25.6632C75.0872 24.6185 74.8124 23.5349 73.6436 23.2489L51.9023 19.4225C50.629 19.1745 48.8894 19.924 48.0047 21.0733L24.3589 49.1773C23.4363 50.222 23.7111 51.3056 24.8798 51.5915L43.1908 54.7693" fill="white"/>
<path d="M53.0108 50.8514L74.1646 25.6632C75.0872 24.6185 74.8124 23.5349 73.6436 23.2489L51.9023 19.4225C50.629 19.1745 48.8894 19.924 48.0047 21.0733L24.3589 49.1773C23.4363 50.222 23.7111 51.3056 24.8798 51.5915L43.1908 54.7693" stroke="#1B127D" stroke-linecap="round" stroke-linejoin="round"/>
</g>
<path d="M52.8863 50.1858L49.456 49.5371C48.1827 49.2891 46.4431 50.0387 45.5584 51.188L43.0664 54.1038" fill="white"/>
<path d="M52.8863 50.1858L49.456 49.5371C48.1827 49.2891 46.4431 50.0387 45.5584 51.188L43.0664 54.1038" stroke="#1B127D" stroke-linecap="round" stroke-linejoin="round"/>
<path d="M66.9434 36.0923L54.8184 33.9833C54.1817 33.8593 53.1361 34.2387 52.6605 34.8846L48.8368 39.3485C48.3612 39.9944 48.4463 40.5552 49.083 40.6792L61.208 42.7882C61.8446 42.9122 62.8903 42.5328 63.3659 41.8869L67.1895 37.423C67.7697 36.7391 67.6846 36.1784 66.9434 36.0923Z" fill="white" stroke="#1B127D" stroke-linecap="round" stroke-linejoin="round"/>
<path d="M43.1885 54.7695L53.0084 50.8516" stroke="#1B127D" stroke-linecap="round" stroke-linejoin="round"/>
<path d="M99.8481 56.7236C93.2248 56.7989 85.4551 52.5128 82.521 47.1691C81.9369 46.2676 81.5728 45.2413 81.4581 44.1729C81.3435 43.1046 81.4815 42.0241 81.8609 41.0187L86.1248 32.7217C85.8029 33.5184 85.6476 34.3726 85.6684 35.2315C85.6892 36.0904 85.8856 36.9358 86.2457 37.7157C86.4044 38.1164 86.586 38.5076 86.7898 38.8874C89.7492 44.2314 97.4936 48.5172 104.112 48.452C105.107 48.4513 106.099 48.3275 107.065 48.0835C108.672 47.7473 110.092 46.8156 111.041 45.4756L107.166 53.0165C106.198 55.2463 103.608 56.6933 99.8481 56.7236Z" fill="white" stroke="#1B127D"/>
<path d="M94.8808 46.2904C101.764 49.8277 108.986 49.4997 111.012 45.5577C113.038 41.6157 109.1 35.5526 102.217 32.0152C95.3338 28.4779 88.1117 28.806 86.0858 32.7479C84.06 36.6899 87.9977 42.7531 94.8808 46.2904Z" fill="white" stroke="#1B127D"/>
<path d="M95.7196 46.8206L96.4735 41.4258C99.7924 43.3036 101.98 43.0843 102.658 42.7399L106.266 48.4085L102.24 56.4926C97.6534 57.4717 93.389 55.8055 91.8301 54.85L95.7196 46.8206Z" fill="#ED26B7"/>
<path d="M94.9809 46.3425L95.4346 46.5526L95.465 46.4869L95.4756 46.4152L96.279 40.9502C97.0993 41.4633 97.9807 41.865 98.8875 42.1807L98.9113 42.189L98.9358 42.1949C99.994 42.4475 101.344 42.7016 102.546 42.5782L106.275 48.3312L102.111 56.5358C102.111 56.5358 102.111 56.5358 102.111 56.5358C101.974 56.5697 101.768 56.6157 101.497 56.6613C100.956 56.7524 100.161 56.8416 99.1634 56.8283C97.2585 56.803 94.6098 56.4043 91.5702 54.9259C92.1115 53.7439 92.9929 51.8334 93.7777 50.1349C94.2233 49.1706 94.6375 48.275 94.9403 47.6205L95.301 46.8411L95.4 46.6274L95.4258 46.5716L95.4324 46.5574L95.434 46.5538L95.4345 46.5529L95.4346 46.5527L94.9809 46.3425Z" stroke="#1B127D"/>
<path d="M103.848 41.876C103.571 42.4139 102.815 42.7906 101.568 42.7789C100.353 42.7674 98.8281 42.3788 97.2965 41.5917C95.765 40.8047 94.5611 39.7908 93.8449 38.8102C93.1094 37.803 92.9751 36.9684 93.2516 36.4304C93.528 35.8924 94.2849 35.5157 95.5319 35.5275C96.7462 35.5389 98.2714 35.9276 99.8029 36.7146C101.334 37.5017 102.538 38.5156 103.255 39.4962C103.99 40.5033 104.124 41.338 103.848 41.876Z" fill="#1B127D" stroke="#1B127D"/>
<g opacity="0.9">
<path d="M62.4426 59.5661L55.5161 91.7212C55.1889 93.076 55.9383 93.9055 57.1052 93.612L78.1136 86.8318C79.3552 86.4559 80.5428 84.9801 80.7876 83.5506L88.554 47.6529C88.8813 46.2981 88.1318 45.4686 86.965 45.7622L69.2922 51.5123" fill="white"/>
<path d="M62.4426 59.5661L55.5161 91.7212C55.1889 93.076 55.9383 93.9055 57.1052 93.612L78.1136 86.8318C79.3552 86.4559 80.5427 84.9801 80.7876 83.5506L88.554 47.6529C88.8813 46.2981 88.1318 45.4686 86.965 45.7622L69.2922 51.5123" stroke="#1B127D" stroke-linecap="round" stroke-linejoin="round"/>
</g>
<path d="M62.8623 60.097L66.198 59.067C67.4395 58.691 68.6271 57.2152 68.8719 55.7857L69.7119 52.0432" fill="white"/>
<path d="M62.8623 60.097L66.198 59.067C67.4395 58.691 68.6271 57.2152 68.8719 55.7857L69.7119 52.0432" stroke="#1B127D" stroke-linecap="round" stroke-linejoin="round"/>
<path d="M57.0234 79.1264L68.728 75.323C69.3488 75.1351 70.0958 74.3109 70.2144 73.5176L71.5079 67.784C71.6265 66.9907 71.2891 66.5348 70.6683 66.7228L58.9637 70.5261C58.343 70.7141 57.5959 71.5383 57.4774 72.3316L56.1838 78.0651C55.9906 78.9409 56.328 79.3968 57.0234 79.1264Z" fill="white" stroke="#1B127D" stroke-linecap="round" stroke-linejoin="round"/>
<path d="M69.2943 51.512L62.4447 59.5657" stroke="#1B127D" stroke-linecap="round" stroke-linejoin="round"/>
<path d="M36.4967 125.414C31.6461 120.107 5.31597 78.6328 5.31597 78.6328C29.5068 103.477 81.9268 107.38 104.156 78.6122C104.156 78.6122 77.4901 119.045 71.7615 125.414C66.0329 131.782 41.3474 130.721 36.4967 125.414Z" fill="white"/>
<path d="M5.31597 78.6328L4.84005 78.9349L5.71986 78.2395L5.31597 78.6328ZM104.156 78.6122L103.71 78.2675L104.627 78.9225L104.156 78.6122ZM5.31597 78.6328C5.79189 78.3307 5.79198 78.3308 5.79218 78.3311C5.79238 78.3314 5.79268 78.3319 5.79307 78.3325C5.79387 78.3338 5.79507 78.3357 5.79666 78.3382C5.79984 78.3432 5.8046 78.3507 5.81093 78.3606C5.82358 78.3806 5.84248 78.4103 5.86745 78.4496C5.91737 78.5282 5.99154 78.6449 6.08851 78.7973C6.28246 79.1022 6.56757 79.5502 6.93219 80.1223C7.66143 81.2664 8.70865 82.9068 9.9805 84.8919C12.5243 88.8623 15.9663 94.2111 19.5596 99.7254C23.1533 105.24 26.897 110.918 30.0446 115.548C33.2043 120.196 35.7339 123.744 36.9128 125.033L36.0806 125.794C34.8342 124.43 32.2536 120.803 29.1121 116.182C25.9585 111.543 22.2102 105.858 18.615 100.341C15.0196 94.8234 11.5759 89.472 9.03117 85.5001C7.75879 83.5142 6.71108 81.873 5.98144 80.7283C5.61661 80.1559 5.3313 79.7076 5.13719 79.4024C5.04013 79.2498 4.96586 79.133 4.91585 79.0543C4.89084 79.0149 4.87191 78.9851 4.85921 78.9651C4.85287 78.9551 4.84807 78.9476 4.84488 78.9426C4.84328 78.94 4.84207 78.9381 4.84127 78.9369C4.84086 78.9362 4.84056 78.9358 4.84035 78.9354C4.84015 78.9351 4.84005 78.9349 5.31597 78.6328ZM71.3424 125.037C72.7476 123.475 75.468 119.784 78.7793 115.089C82.0818 110.408 85.9498 104.76 89.6403 99.3088C93.3305 93.8582 96.8419 88.6063 99.4309 84.717C100.725 82.7723 101.789 81.1684 102.529 80.0507C102.899 79.4919 103.188 79.0546 103.385 78.757C103.483 78.6082 103.559 78.4944 103.609 78.4178C103.634 78.3795 103.654 78.3504 103.666 78.331C103.673 78.3213 103.678 78.314 103.681 78.3091C103.682 78.3067 103.684 78.3048 103.684 78.3036C103.685 78.303 103.685 78.3025 103.685 78.3022C103.686 78.3019 103.686 78.3018 104.156 78.6122C104.627 78.9225 104.627 78.9227 104.627 78.923C104.626 78.9233 104.626 78.9238 104.626 78.9244C104.625 78.9256 104.624 78.9275 104.622 78.9299C104.619 78.9349 104.614 78.9422 104.607 78.952C104.595 78.9714 104.575 79.0005 104.55 79.0389C104.499 79.1157 104.424 79.2297 104.326 79.3786C104.129 79.6764 103.84 80.114 103.469 80.6732C102.729 81.7916 101.664 83.3962 100.369 85.3417C97.7794 89.2326 94.2663 94.4871 90.5739 99.9409C86.8818 105.394 83.0092 111.049 79.7006 115.739C76.4007 120.417 73.6397 124.169 72.1806 125.791L71.3424 125.037ZM104.602 78.9568C93.3438 93.5267 74.4804 99.7788 55.4572 99.2906C36.4341 98.8024 17.1302 91.5744 4.91207 79.0261L5.71986 78.2395C17.6926 90.5358 36.6941 97.6813 55.4861 98.1635C74.2779 98.6457 92.7393 92.4651 103.71 78.2675L104.602 78.9568ZM36.9128 125.033C38.0034 126.227 40.3085 127.257 43.3801 128C46.4184 128.735 50.0958 129.163 53.8099 129.228C57.5245 129.294 61.2525 128.998 64.394 128.297C67.5599 127.59 70.0315 126.494 71.3424 125.037L72.1806 125.791C70.6272 127.518 67.8649 128.677 64.6395 129.397C61.3897 130.122 57.5691 130.423 53.7899 130.356C50.0102 130.289 46.2486 129.854 43.1151 129.096C40.015 128.346 37.4154 127.254 36.0806 125.794L36.9128 125.033Z" fill="#1B127D"/>
</svg>
