<svg width="198" height="137" viewBox="0 0 198 137" fill="none" xmlns="http://www.w3.org/2000/svg">
<path fill-rule="evenodd" clip-rule="evenodd" d="M75.9207 90.6409L69.2275 94.842L29.0263 120.17L28.2002 118.855L68.4015 93.5268L75.095 89.3254L75.9207 90.6409Z" fill="#ED26B7"/>
<path fill-rule="evenodd" clip-rule="evenodd" d="M117.49 91.8257L124.314 95.7777L169.039 122.029L169.813 120.683L125.093 94.4337L125.091 94.4327L118.268 90.4817L117.49 91.8257Z" fill="#ED26B7"/>
<path d="M104.279 15.8333L106.42 15.8333L106.42 17.6904L104.279 17.6904L104.279 15.8333Z" fill="white"/>
<path d="M98.0715 32.9263L98.0527 35.0213L119.164 22.8332L119.164 20.7473L98.0715 32.9263Z" fill="white"/>
<path d="M106.106 16.2688C105.688 16.5104 105.009 16.5104 104.591 16.2688C104.173 16.0272 104.173 15.6356 104.591 15.394C105.009 15.1524 105.688 15.1524 106.106 15.394C106.525 15.6356 106.525 16.0272 106.106 16.2688Z" fill="#ED26B7"/>
<path d="M109.901 20.4512C109.483 20.6928 108.804 20.6928 108.386 20.4512C107.967 20.2096 107.967 19.8179 108.386 19.5763C108.804 19.3348 109.483 19.3348 109.901 19.5763C110.32 19.8179 110.32 20.2096 109.901 20.4512Z" fill="white"/>
<path d="M95.1737 15.9676C94.7552 16.2091 94.0768 16.2091 93.6584 15.9676C93.2399 15.726 93.2399 15.3343 93.6584 15.0927C94.0768 14.8511 94.7552 14.8511 95.1737 15.0927C95.5921 15.3343 95.5921 15.726 95.1737 15.9676Z" fill="white"/>
<path d="M74.5671 25.0727C74.7921 24.9427 75.1571 24.9427 75.3822 25.0727L77.8274 26.4845C78.0525 26.6144 78.0525 26.8251 77.8274 26.955C77.6023 27.085 77.2374 27.085 77.0123 26.955L74.5671 25.5433C74.342 25.4133 74.342 25.2026 74.5671 25.0727Z" fill="#BFC9D1"/>
<path d="M82.8542 29.8574C83.0793 29.7274 83.4442 29.7274 83.6693 29.8574L86.1145 31.2691C86.3396 31.3991 86.3396 31.6098 86.1145 31.7397C85.8894 31.8697 85.5245 31.8697 85.2994 31.7397L82.8542 30.328C82.6291 30.198 82.6291 29.9873 82.8542 29.8574Z" fill="#BFC9D1"/>
<path d="M91.1413 34.6415C91.3664 34.5116 91.7313 34.5116 91.9564 34.6415L94.4016 36.0533C94.6267 36.1833 94.6267 36.3939 94.4016 36.5239C94.1765 36.6538 93.8116 36.6538 93.5865 36.5239L91.1413 35.1121C90.9162 34.9822 90.9162 34.7715 91.1413 34.6415Z" fill="#BFC9D1"/>
<path d="M38.5273 95.5208L40.334 95.5208L40.334 97.3468L38.5273 97.3468L38.5273 95.5208Z" fill="white"/>
<path d="M52.718 120.245L52.6992 122.34L73.8109 110.152L73.8109 108.066L52.718 120.245Z" fill="white"/>
<path d="M133.712 37.6208L135.519 37.6208L135.519 39.4469L133.712 39.4469L133.712 37.6208Z" fill="white"/>
<path d="M135.208 33.4533C135.433 33.3234 135.798 33.3234 136.023 33.4533L137.768 34.4608C137.993 34.5908 137.993 34.8015 137.768 34.9314C137.543 35.0614 137.178 35.0614 136.953 34.9314L135.208 33.9239C134.983 33.794 134.983 33.5833 135.208 33.4533Z" fill="#BFC9D1"/>
<path d="M130.879 35.9526C131.104 35.8226 131.469 35.8226 131.694 35.9526L133.439 36.9601C133.664 37.09 133.664 37.3007 133.439 37.4307C133.214 37.5606 132.849 37.5606 132.624 37.4307L130.879 36.4232C130.654 36.2932 130.654 36.0825 130.879 35.9526Z" fill="#BFC9D1"/>
<path d="M126.553 38.4504C126.778 38.3204 127.143 38.3204 127.368 38.4504L129.114 39.4579C129.339 39.5879 129.339 39.7985 129.114 39.9285C128.888 40.0584 128.524 40.0584 128.298 39.9285L126.553 38.921C126.328 38.791 126.328 38.5803 126.553 38.4504Z" fill="#BFC9D1"/>
<path d="M122.225 40.9496C122.45 40.8197 122.815 40.8197 123.04 40.9496L124.785 41.9572C125.011 42.0871 125.011 42.2978 124.785 42.4278C124.56 42.5577 124.195 42.5577 123.97 42.4278L122.225 41.4202C122 41.2903 122 41.0796 122.225 40.9496Z" fill="#BFC9D1"/>
<path d="M137.338 43.3543C136.919 43.5959 136.241 43.5959 135.822 43.3543C135.404 43.1127 135.404 42.721 135.822 42.4794C136.241 42.2378 136.919 42.2378 137.338 42.4794C137.756 42.721 137.756 43.1127 137.338 43.3543Z" fill="#ED26B7"/>
<path d="M135.255 38.0346C134.902 38.2387 134.329 38.2387 133.975 38.0346C133.622 37.8305 133.622 37.4996 133.975 37.2956C134.329 37.0915 134.902 37.0915 135.255 37.2956C135.609 37.4996 135.609 37.8305 135.255 38.0346Z" fill="white"/>
<path d="M117.896 43.4484C118.121 43.3185 118.486 43.3185 118.711 43.4484L120.456 44.4559C120.681 44.5859 120.681 44.7966 120.456 44.9265C120.231 45.0565 119.866 45.0565 119.641 44.9265L117.896 43.919C117.671 43.7891 117.671 43.5784 117.896 43.4484Z" fill="#BFC9D1"/>
<path d="M116.114 49.7075C116.339 49.5775 116.704 49.5775 116.929 49.7075L119.374 51.1192C119.599 51.2492 119.599 51.4599 119.374 51.5898C119.149 51.7198 118.784 51.7198 118.559 51.5898L116.114 50.178C115.889 50.0481 115.889 49.8374 116.114 49.7075Z" fill="#BFC9D1"/>
<path d="M124.399 54.4924C124.624 54.3624 124.989 54.3624 125.214 54.4924L127.659 55.9041C127.885 56.0341 127.885 56.2448 127.659 56.3747C127.434 56.5047 127.069 56.5047 126.844 56.3747L124.399 54.963C124.174 54.833 124.174 54.6223 124.399 54.4924Z" fill="#BFC9D1"/>
<path d="M132.686 59.2766C132.911 59.1466 133.276 59.1466 133.501 59.2766L135.947 60.6883C136.172 60.8183 136.172 61.029 135.947 61.1589C135.721 61.2889 135.357 61.2889 135.131 61.1589L132.686 59.7471C132.461 59.6172 132.461 59.4065 132.686 59.2766Z" fill="#BFC9D1"/>
<path d="M136.506 96.4836L138.313 96.4836L138.313 98.3097L136.506 98.3097L136.506 96.4836Z" fill="white"/>
<path d="M156.904 104.117L159.045 104.117L159.045 105.974L156.904 105.974L156.904 104.117Z" fill="white"/>
<path d="M36.0527 37.8979L37.8594 37.8979L37.8594 39.724L36.0527 39.724L36.0527 37.8979Z" fill="white"/>
<path d="M70.2715 50.1697L72.4092 50.1697L72.4092 52.0246L70.2715 52.0246L70.2715 50.1697Z" fill="white"/>
<path d="M72.0991 52.4621C71.6809 52.7035 71.0027 52.7035 70.5845 52.4621C70.1663 52.2206 70.1663 51.8291 70.5845 51.5876C71.0027 51.3461 71.6809 51.3461 72.0991 51.5876C72.5173 51.8291 72.5173 52.2206 72.0991 52.4621Z" fill="white"/>
<path d="M71.1162 52.603L71.1162 50.4149C71.309 50.3919 71.8193 50.3457 71.8193 50.3457L71.8193 52.5783C71.5298 52.6512 71.3793 52.6579 71.1162 52.603Z" fill="white"/>
<path d="M72.0991 50.6068C71.6809 50.8483 71.0027 50.8483 70.5845 50.6068C70.1663 50.3654 70.1663 49.9739 70.5845 49.7324C71.0027 49.4909 71.6809 49.4909 72.0991 49.7324C72.5173 49.9739 72.5173 50.3654 72.0991 50.6068Z" fill="white"/>
<path d="M76.9004 46.7465C76.9004 48.1929 75.9343 49.6366 73.9994 50.7357L45.8849 66.6736C42.0178 68.8663 35.6921 68.8663 31.8277 66.6736L3.71057 50.7357C1.7784 49.6502 0.80957 48.1929 0.80957 46.7465C0.80957 45.3001 1.77838 43.8564 3.71057 42.76L31.8277 26.8167C35.6921 24.624 42.0178 24.624 45.8849 26.8167L73.9994 42.76C75.9289 43.8564 76.9004 45.3028 76.9004 46.7465Z" fill="white" stroke="#1B127D" stroke-miterlimit="10"/>
<path d="M76.9004 46.5837V50.1281C76.9004 51.5718 75.9316 53.0156 73.9994 54.1119L59.9422 62.0849L45.885 70.0579C43.9528 71.1434 41.4018 71.7024 38.8536 71.7024C36.3054 71.7024 33.7599 71.1597 31.8277 70.0579C29.8956 68.9561 17.7678 62.0849 17.7678 62.0849L3.71057 54.1146C1.7784 53.0291 0.80957 51.5745 0.80957 50.1308V46.5838C0.80957 48.0302 1.77838 49.4739 3.71057 50.573C3.71057 50.573 27.9633 64.3181 31.8277 66.5108C35.6921 68.7035 42.0178 68.7035 45.8849 66.5108C49.752 64.3181 73.9994 50.5675 73.9994 50.5675C75.9289 49.4739 76.9004 48.0302 76.9004 46.5837Z" fill="white" stroke="#1B127D" stroke-miterlimit="10"/>
<path d="M67.4778 43.9163C67.4778 45.0045 66.751 46.0906 65.2953 46.9175L44.1443 58.9078C41.2351 60.5574 36.4761 60.5574 33.5689 58.9078L12.4159 46.9175C10.9623 46.1008 10.2334 45.0045 10.2334 43.9163C10.2334 42.8281 10.9623 41.742 12.4159 40.9172L33.5689 28.9228C36.4761 27.2732 41.2351 27.2732 44.1443 28.9228L65.2953 40.9172C66.7469 41.742 67.4778 42.8302 67.4778 43.9163Z" fill="white" stroke="#1B127D" stroke-miterlimit="10"/>
<path d="M67.4778 43.7942V46.4607C67.4778 47.5468 66.7489 48.6329 65.2953 49.4577L54.7198 55.456L44.1443 61.4542C42.6907 62.2708 40.7716 62.6914 38.8546 62.6914C36.9375 62.6914 35.0225 62.2831 33.5689 61.4542C32.1153 60.6253 22.9914 55.456 22.9914 55.456L12.4159 49.4598C10.9623 48.6432 10.2334 47.5488 10.2334 46.4627V43.7942C10.2334 44.8824 10.9623 45.9685 12.4159 46.7954C12.4159 46.7954 30.6616 57.136 33.5689 58.7857C36.4761 60.4353 41.2351 60.4353 44.1443 58.7857C47.0536 57.136 65.2953 46.7913 65.2953 46.7913C66.7469 45.9685 67.4778 44.8824 67.4778 43.7942Z" fill="white" stroke="#1B127D" stroke-miterlimit="10"/>
<path d="M13.3695 42.7128L26.2031 35.345L28.7026 40.5965L36.4245 42.5681H46.2823L49.8147 46.5933L59.4586 47.4524L42.7823 56.4931C40.1905 57.8982 37.0589 57.875 34.4882 56.4316L13.3784 44.5791C12.6521 44.1713 12.6472 43.1275 13.3695 42.7128Z" fill="#ED26B7" fill-opacity="0.2"/>
<path fill-rule="evenodd" clip-rule="evenodd" d="M58.7589 47.2588L48.8955 46.8232L45.5588 42.8887L35.9889 42.7386L28.3835 40.7794L26.5596 35.6835L28.2471 35.4822L29.8922 40.0787L36.3781 41.7495L46.6479 41.9106L50.0096 45.8746L58.8904 46.2668L58.7589 47.2588Z" fill="#ED26B7"/>
<path d="M47.6376 43.5331C46.7871 44.0241 45.4082 44.0241 44.5577 43.5331C43.7072 43.042 43.7072 42.2459 44.5577 41.7548C45.4082 41.2638 46.7871 41.2638 47.6376 41.7548C48.4882 42.2459 48.4882 43.042 47.6376 43.5331Z" fill="#ED26B7"/>
<path d="M51.1953 47.3011C50.3447 47.7922 48.9658 47.7922 48.1153 47.3011C47.2648 46.8101 47.2648 46.0139 48.1153 45.5229C48.9658 45.0319 50.3447 45.0319 51.1953 45.5229C52.0458 46.0139 52.0458 46.8101 51.1953 47.3011Z" fill="#ED26B7"/>
<path d="M37.708 43.1036C36.8574 43.5947 35.4785 43.5947 34.628 43.1036C33.7775 42.6126 33.7775 41.8164 34.628 41.3254C35.4785 40.8343 36.8574 40.8343 37.708 41.3254C38.5585 41.8164 38.5585 42.6126 37.708 43.1036Z" fill="#ED26B7"/>
<path d="M30.8076 41.3258C29.9571 41.8168 28.5781 41.8168 27.7276 41.3258C26.8771 40.8347 26.8771 40.0386 27.7276 39.5476C28.5781 39.0565 29.9571 39.0565 30.8076 39.5476C31.6581 40.0386 31.6581 40.8347 30.8076 41.3258Z" fill="#ED26B7"/>
<path d="M29.0585 37.0377C28.208 37.5287 26.8291 37.5287 25.9786 37.0377C25.1281 36.5467 25.1281 35.7505 25.9786 35.2595C26.8291 34.7684 28.208 34.7684 29.0585 35.2595C29.909 35.7505 29.909 36.5467 29.0585 37.0377Z" fill="#ED26B7"/>
<path d="M59.0283 47.588C58.1778 48.079 56.7988 48.079 55.9483 47.588C55.0978 47.0969 55.0978 46.3008 55.9483 45.8098C56.7988 45.3187 58.1778 45.3187 59.0283 45.8098C59.8788 46.3008 59.8788 47.0969 59.0283 47.588Z" fill="#ED26B7"/>
<path d="M191.622 43.7748C191.622 45.2213 190.656 46.665 188.721 47.764L160.607 63.7019C156.74 65.8946 150.414 65.8946 146.549 63.7019L118.432 47.764C116.5 46.6785 115.531 45.2213 115.531 43.7748C115.531 42.3284 116.5 40.8847 118.432 39.7883L146.549 23.8451C150.414 21.6523 156.74 21.6523 160.607 23.8451L188.721 39.7883C190.651 40.8847 191.622 42.3311 191.622 43.7748Z" fill="white" stroke="#1B127D" stroke-miterlimit="10"/>
<path d="M191.622 43.6118V47.1562C191.622 48.5999 190.653 50.0436 188.721 51.14L174.664 59.113L160.607 67.086C158.674 68.1715 156.124 68.7305 153.575 68.7305C151.027 68.7305 148.482 68.1877 146.549 67.086C144.617 65.9842 132.489 59.113 132.489 59.113L118.432 51.1427C116.5 50.0572 115.531 48.6026 115.531 47.1589V43.6118C115.531 45.0583 116.5 46.502 118.432 47.601C118.432 47.601 142.685 61.3462 146.549 63.5389C150.414 65.7316 156.74 65.7316 160.607 63.5389C164.474 61.3462 188.721 47.5956 188.721 47.5956C190.651 46.502 191.622 45.0582 191.622 43.6118Z" fill="white" stroke="#1B127D" stroke-miterlimit="10"/>
<path d="M182.199 40.9446C182.199 42.0328 181.473 43.1189 180.017 43.9458L158.866 55.9361C155.957 57.5857 151.198 57.5857 148.291 55.9361L127.138 43.9458C125.684 43.1291 124.955 42.0328 124.955 40.9446C124.955 39.8565 125.684 38.7703 127.138 37.9455L148.291 25.9511C151.198 24.3015 155.957 24.3015 158.866 25.9511L180.017 37.9455C181.469 38.7703 182.199 39.8585 182.199 40.9446Z" fill="white" stroke="#1B127D" stroke-miterlimit="10"/>
<path d="M182.199 40.8223V43.4887C182.199 44.5749 181.471 45.661 180.017 46.4858L169.441 52.484L158.866 58.4822C157.412 59.2989 155.493 59.7195 153.576 59.7195C151.659 59.7195 149.744 59.3111 148.291 58.4822C146.837 57.6534 137.713 52.484 137.713 52.484L127.138 46.4879C125.684 45.6712 124.955 44.5769 124.955 43.4908V40.8223C124.955 41.9105 125.684 42.9966 127.138 43.8234C127.138 43.8234 145.383 54.1641 148.291 55.8137C151.198 57.4634 155.957 57.4634 158.866 55.8137C161.775 54.1641 180.017 43.8193 180.017 43.8193C181.469 42.9966 182.199 41.9104 182.199 40.8223Z" fill="white" stroke="#1B127D" stroke-miterlimit="10"/>
<path d="M128.092 39.7411L140.926 32.3733L143.425 37.6248L151.147 39.5964H161.005L164.537 43.6216L174.181 44.4808L157.505 53.5214C154.913 54.9265 151.782 54.9033 149.211 53.4599L128.101 41.6074C127.375 41.1996 127.37 40.1558 128.092 39.7411Z" fill="#ED26B7" fill-opacity="0.2"/>
<path fill-rule="evenodd" clip-rule="evenodd" d="M173.482 44.2869L163.618 43.8513L160.281 39.9168L150.712 39.7666L143.106 37.8075L141.282 32.7116L142.97 32.5103L144.615 37.1067L151.101 38.7775L161.371 38.9386L164.732 42.9027L173.613 43.2949L173.482 44.2869Z" fill="#ED26B7"/>
<path d="M162.359 40.5611C161.509 41.0522 160.13 41.0522 159.279 40.5611C158.429 40.0701 158.429 39.274 159.279 38.7829C160.13 38.2919 161.509 38.2919 162.359 38.7829C163.21 39.274 163.21 40.0701 162.359 40.5611Z" fill="#ED26B7"/>
<path d="M165.917 44.3292C165.066 44.8202 163.687 44.8202 162.837 44.3292C161.986 43.8382 161.986 43.042 162.837 42.551C163.687 42.0599 165.066 42.0599 165.917 42.551C166.767 43.042 166.767 43.8382 165.917 44.3292Z" fill="#ED26B7"/>
<path d="M152.431 40.1317C151.58 40.6227 150.201 40.6227 149.351 40.1317C148.5 39.6406 148.5 38.8445 149.351 38.3535C150.201 37.8624 151.58 37.8624 152.431 38.3535C153.281 38.8445 153.281 39.6406 152.431 40.1317Z" fill="#ED26B7"/>
<path d="M145.53 38.3541C144.68 38.8451 143.301 38.8451 142.45 38.3541C141.6 37.8631 141.6 37.0669 142.45 36.5759C143.301 36.0848 144.68 36.0848 145.53 36.5759C146.381 37.0669 146.381 37.8631 145.53 38.3541Z" fill="#ED26B7"/>
<path d="M143.781 34.066C142.931 34.5571 141.552 34.5571 140.701 34.066C139.851 33.575 139.851 32.7788 140.701 32.2878C141.552 31.7968 142.931 31.7968 143.781 32.2878C144.632 32.7788 144.632 33.575 143.781 34.066Z" fill="#ED26B7"/>
<path d="M173.75 44.6161C172.899 45.1071 171.52 45.1071 170.67 44.6161C169.819 44.125 169.819 43.3289 170.67 42.8378C171.52 42.3468 172.899 42.3468 173.75 42.8378C174.6 43.3289 174.6 44.125 173.75 44.6161Z" fill="#ED26B7"/>
<path d="M144.127 73.3391V83.8377L98.286 111.945L51.7033 85.7351L51.4707 74.9375L98.6257 101.084L144.127 73.3391Z" fill="white" stroke="#1B127D" stroke-miterlimit="10" stroke-linejoin="bevel"/>
<path d="M98.624 101.073V111.708L144.125 83.8377V73.3391L98.624 101.073Z" fill="white" stroke="#1B127D" stroke-miterlimit="10" stroke-linejoin="bevel"/>
<path d="M51.4707 74.9266L98.6257 47.9788L144.127 73.3318L98.6257 101.073L51.4707 74.9266Z" fill="white" stroke="#1B127D" stroke-miterlimit="10" stroke-linejoin="bevel"/>
<path d="M105.311 103.566C105.607 102.609 105.211 101.638 104.428 101.396C103.645 101.154 102.771 101.733 102.475 102.69C102.18 103.647 102.575 104.618 103.359 104.86C104.142 105.102 105.016 104.522 105.311 103.566Z" fill="#ED26B7"/>
<path d="M144.127 52.4353V62.9339L98.286 91.0408L51.7033 64.8313L51.4707 54.0337L98.6257 80.1841L144.127 52.4353Z" fill="white" stroke="#1B127D" stroke-linejoin="bevel"/>
<path d="M51.4707 54.0335L98.6257 27.0857L144.127 52.4388L98.6257 80.1729L51.4707 54.0335Z" fill="white" stroke="#1B127D" stroke-linejoin="bevel"/>
<path d="M98.624 80.1731V90.8082L144.125 62.9339V52.4353L98.624 80.1731Z" fill="white" stroke="#1B127D" stroke-linejoin="bevel"/>
<path d="M105.696 82.5881C105.991 81.5633 105.55 80.5368 104.712 80.2954C103.873 80.054 102.954 80.689 102.659 81.7138C102.364 82.7386 102.805 83.765 103.643 84.0065C104.482 84.2479 105.401 83.6129 105.696 82.5881Z" fill="#1B127D"/>
<path d="M51.4707 32.6673L98.6257 5.71948L144.127 31.0726L98.6257 58.814L51.4707 32.6673Z" fill="white" stroke="#1B127D" stroke-miterlimit="10" stroke-linejoin="bevel"/>
<path d="M144.127 31.0806V41.5754L98.286 69.6824L51.7033 43.4729L51.4707 32.679L98.6257 58.8257L144.127 31.0806Z" fill="white" stroke="#1B127D" stroke-miterlimit="10" stroke-linejoin="bevel"/>
<path d="M98.624 58.8146V69.4498L144.125 41.5754V31.0806L98.624 58.8146Z" fill="white" stroke="#1B127D" stroke-miterlimit="10" stroke-linejoin="bevel"/>
<path d="M106.221 61.0912C106.496 60.0589 106.035 59.0391 105.19 58.8135C104.344 58.5878 103.436 59.2417 103.16 60.274C102.885 61.3062 103.346 62.326 104.191 62.5517C105.036 62.7773 105.945 62.1234 106.221 61.0912Z" fill="#ED26B7"/>
<path d="M191.761 111.497C191.761 112.943 190.795 114.387 188.86 115.486L160.745 131.424C156.878 133.617 150.552 133.617 146.688 131.424L118.571 115.486C116.639 114.4 115.67 112.943 115.67 111.497C115.67 110.05 116.639 108.607 118.571 107.51L146.688 91.567C150.552 89.3743 156.878 89.3743 160.745 91.567L188.86 107.51C190.789 108.607 191.761 110.053 191.761 111.497Z" fill="white" stroke="#1B127D" stroke-miterlimit="10"/>
<path d="M191.761 111.334V114.878C191.761 116.322 190.792 117.766 188.86 118.862L174.803 126.835L160.745 134.808C158.813 135.893 156.262 136.452 153.714 136.452C151.166 136.452 148.62 135.91 146.688 134.808C144.756 133.706 132.628 126.835 132.628 126.835L118.571 118.865C116.639 117.779 115.67 116.325 115.67 114.881V111.334C115.67 112.78 116.639 114.224 118.571 115.323C118.571 115.323 142.824 129.068 146.688 131.261C150.552 133.454 156.878 133.454 160.745 131.261C164.612 129.068 188.86 115.318 188.86 115.318C190.789 114.224 191.761 112.78 191.761 111.334Z" fill="white" stroke="#1B127D" stroke-miterlimit="10"/>
<path d="M182.338 108.667C182.338 109.755 181.611 110.841 180.156 111.668L159.005 123.658C156.095 125.308 151.336 125.308 148.429 123.658L127.276 111.668C125.823 110.851 125.094 109.755 125.094 108.667C125.094 107.578 125.823 106.492 127.276 105.667L148.429 93.6731C151.336 92.0235 156.095 92.0235 159.005 93.6731L180.156 105.667C181.607 106.492 182.338 107.58 182.338 108.667Z" fill="white" stroke="#1B127D" stroke-miterlimit="10"/>
<path d="M182.338 108.544V111.211C182.338 112.297 181.609 113.383 180.156 114.208L169.58 120.206L159.005 126.204C157.551 127.021 155.632 127.441 153.715 127.441C151.798 127.441 149.883 127.033 148.429 126.204C146.976 125.375 137.852 120.206 137.852 120.206L127.276 114.21C125.823 113.393 125.094 112.299 125.094 111.213V108.544C125.094 109.632 125.823 110.719 127.276 111.545C127.276 111.545 145.522 121.886 148.429 123.536C151.336 125.185 156.095 125.185 159.005 123.536C161.914 121.886 180.156 111.541 180.156 111.541C181.607 110.718 182.338 109.632 182.338 108.544Z" fill="white" stroke="#1B127D" stroke-miterlimit="10"/>
<path d="M128.23 107.463L141.063 100.095L143.563 105.347L151.285 107.318H161.143L164.675 111.344L174.319 112.203L157.643 121.243C155.051 122.648 151.919 122.625 149.349 121.182L128.239 109.329C127.512 108.922 127.508 107.878 128.23 107.463Z" fill="#ED26B7" fill-opacity="0.2"/>
<path fill-rule="evenodd" clip-rule="evenodd" d="M173.618 112.009L163.755 111.573L160.418 107.639L150.848 107.489L143.243 105.529L141.419 100.434L143.106 100.232L144.752 104.829L151.238 106.499L161.507 106.661L164.869 110.625L173.75 111.017L173.618 112.009Z" fill="#ED26B7"/>
<path d="M162.496 108.283C161.646 108.774 160.267 108.774 159.416 108.283C158.566 107.792 158.566 106.996 159.416 106.505C160.267 106.014 161.646 106.014 162.496 106.505C163.347 106.996 163.347 107.792 162.496 108.283Z" fill="#ED26B7"/>
<path d="M166.054 112.051C165.203 112.542 163.824 112.542 162.974 112.051C162.123 111.56 162.123 110.764 162.974 110.273C163.824 109.782 165.203 109.782 166.054 110.273C166.904 110.764 166.904 111.56 166.054 112.051Z" fill="#ED26B7"/>
<path d="M152.567 107.854C151.717 108.345 150.338 108.345 149.487 107.854C148.637 107.363 148.637 106.567 149.487 106.076C150.338 105.585 151.717 105.585 152.567 106.076C153.418 106.567 153.418 107.363 152.567 107.854Z" fill="#ED26B7"/>
<path d="M145.667 106.076C144.816 106.567 143.437 106.567 142.587 106.076C141.736 105.585 141.736 104.789 142.587 104.298C143.437 103.807 144.816 103.807 145.667 104.298C146.517 104.789 146.517 105.585 145.667 106.076Z" fill="#ED26B7"/>
<path d="M143.918 101.788C143.067 102.279 141.688 102.279 140.838 101.788C139.987 101.297 139.987 100.501 140.838 100.01C141.688 99.5187 143.067 99.5187 143.918 100.01C144.768 100.501 144.768 101.297 143.918 101.788Z" fill="#ED26B7"/>
<path d="M173.888 112.338C173.037 112.829 171.658 112.829 170.808 112.338C169.957 111.847 169.957 111.051 170.808 110.56C171.658 110.069 173.037 110.069 173.888 110.56C174.738 111.051 174.738 111.847 173.888 112.338Z" fill="#ED26B7"/>
<path d="M77.4756 110.452C77.4756 111.898 76.5095 113.342 74.5746 114.441L46.4601 130.379C42.593 132.572 36.2673 132.572 32.4029 130.379L4.28577 114.441C2.3536 113.356 1.38477 111.898 1.38477 110.452C1.38477 109.005 2.35358 107.562 4.28577 106.465L32.4029 90.5221C36.2673 88.3293 42.593 88.3293 46.4601 90.5221L74.5746 106.465C76.5041 107.562 77.4756 109.008 77.4756 110.452Z" fill="white" stroke="#1B127D" stroke-miterlimit="10"/>
<path d="M77.4756 110.289V113.833C77.4756 115.277 76.5068 116.721 74.5746 117.817L60.5174 125.79L46.4601 133.763C44.528 134.848 41.977 135.408 39.4288 135.408C36.8806 135.408 34.3351 134.865 32.4029 133.763C30.4707 132.661 18.343 125.79 18.343 125.79L4.28577 117.82C2.3536 116.734 1.38477 115.28 1.38477 113.836V110.289C1.38477 111.735 2.35358 113.179 4.28577 114.278C4.28577 114.278 28.5385 128.023 32.4029 130.216C36.2673 132.409 42.593 132.409 46.4601 130.216C50.3272 128.023 74.5746 114.273 74.5746 114.273C76.5041 113.179 77.4756 111.735 77.4756 110.289Z" fill="white" stroke="#1B127D" stroke-miterlimit="10"/>
<path d="M68.053 107.622C68.053 108.71 67.3262 109.796 65.8705 110.623L44.7195 122.613C41.8103 124.263 37.0513 124.263 34.1441 122.613L12.9911 110.623C11.5375 109.806 10.8086 108.71 10.8086 107.622C10.8086 106.533 11.5374 105.447 12.9911 104.623L34.1441 92.6281C37.0513 90.9785 41.8103 90.9785 44.7195 92.6281L65.8705 104.623C67.3221 105.447 68.053 106.536 68.053 107.622Z" fill="white" stroke="#1B127D" stroke-miterlimit="10"/>
<path d="M68.053 107.499V110.166C68.053 111.252 67.3241 112.338 65.8705 113.163L55.295 119.161L44.7195 125.159C43.2659 125.976 41.3468 126.396 39.4298 126.396C37.5127 126.396 35.5977 125.988 34.1441 125.159C32.6905 124.33 23.5666 119.161 23.5666 119.161L12.9911 113.165C11.5375 112.348 10.8086 111.254 10.8086 110.168V107.499C10.8086 108.587 11.5374 109.674 12.9911 110.5C12.9911 110.5 31.2368 120.841 34.1441 122.491C37.0513 124.14 41.8103 124.14 44.7195 122.491C47.6288 120.841 65.8705 110.496 65.8705 110.496C67.3221 109.674 68.053 108.587 68.053 107.499Z" fill="white" stroke="#1B127D" stroke-miterlimit="10"/>
<path d="M13.9457 106.418L26.7792 99.0503L29.2788 104.302L37.0007 106.273H46.8585L50.3908 110.299L60.0347 111.158L43.3585 120.198C40.7666 121.604 37.6351 121.58 35.0643 120.137L13.9546 108.284C13.2283 107.877 13.2233 106.833 13.9457 106.418Z" fill="#ED26B7" fill-opacity="0.2"/>
<path fill-rule="evenodd" clip-rule="evenodd" d="M59.3351 110.964L49.4716 110.528L46.135 106.594L36.5651 106.444L28.9596 104.484L27.1358 99.3886L28.8232 99.1873L30.4684 103.784L36.9543 105.455L47.2241 105.616L50.5858 109.58L59.4665 109.972L59.3351 110.964Z" fill="#ED26B7"/>
<path d="M48.2128 107.238C47.3623 107.729 45.9834 107.729 45.1329 107.238C44.2824 106.747 44.2824 105.951 45.1329 105.46C45.9834 104.969 47.3623 104.969 48.2128 105.46C49.0633 105.951 49.0633 106.747 48.2128 107.238Z" fill="#ED26B7"/>
<path d="M51.7705 111.006C50.9199 111.497 49.541 111.497 48.6905 111.006C47.84 110.515 47.84 109.719 48.6905 109.228C49.541 108.737 50.9199 108.737 51.7705 109.228C52.621 109.719 52.621 110.515 51.7705 111.006Z" fill="#ED26B7"/>
<path d="M38.2841 106.809C37.4336 107.3 36.0547 107.3 35.2042 106.809C34.3536 106.318 34.3536 105.522 35.2042 105.031C36.0547 104.54 37.4336 104.54 38.2841 105.031C39.1346 105.522 39.1346 106.318 38.2841 106.809Z" fill="#ED26B7"/>
<path d="M31.3837 105.031C30.5332 105.522 29.1543 105.522 28.3038 105.031C27.4533 104.54 27.4533 103.744 28.3038 103.253C29.1543 102.762 30.5332 102.762 31.3837 103.253C32.2342 103.744 32.2342 104.54 31.3837 105.031Z" fill="#ED26B7"/>
<path d="M29.6347 100.743C28.7842 101.234 27.4053 101.234 26.5547 100.743C25.7042 100.252 25.7042 99.4558 26.5547 98.9648C27.4053 98.4738 28.7842 98.4738 29.6347 98.9648C30.4852 99.4558 30.4852 100.252 29.6347 100.743Z" fill="#ED26B7"/>
<path d="M59.6044 111.293C58.7539 111.784 57.375 111.784 56.5245 111.293C55.674 110.802 55.674 110.006 56.5245 109.515C57.375 109.024 58.7539 109.024 59.6044 109.515C60.4549 110.006 60.4549 110.802 59.6044 111.293Z" fill="#ED26B7"/>
</svg>
