<svg width="209" height="184" viewBox="0 0 209 184" fill="none" xmlns="http://www.w3.org/2000/svg">
<path d="M207.913 125.496C207.913 127.69 206.447 129.881 203.512 131.548L165.392 153.165C159.525 156.492 149.927 156.492 144.064 153.165L40.0265 93.4626C37.095 91.8156 35.625 89.6046 35.625 87.41C35.625 85.2154 37.0949 83.0249 40.0265 81.3615L79.5957 62.1316C85.4589 58.8048 95.0566 58.8048 100.924 62.1316L203.512 119.447C206.439 121.111 207.913 123.305 207.913 125.496Z" fill="white" stroke="#1B127D" stroke-miterlimit="10"/>
<path d="M207.913 124.367V130.315C207.913 132.506 206.443 134.696 203.512 136.36L165.083 159.253C162.151 160.9 158.281 161.749 154.415 161.749C150.548 161.749 146.686 160.925 143.755 159.253L61.3548 111.499L40.0265 99.4063C37.095 97.7594 35.625 95.5524 35.625 93.3619L35.625 87.4097C35.625 89.6043 37.0949 91.7947 40.0265 93.4623L143.755 153.301C149.618 156.628 159.215 156.628 165.083 153.301L203.512 130.412C206.439 128.752 207.913 126.562 207.913 124.367Z" fill="white" stroke="#1B127D" stroke-miterlimit="10"/>
<path fill-rule="evenodd" clip-rule="evenodd" d="M57.9084 169.354C57.191 168.94 57.191 168.269 57.9084 167.854L71.5115 160.001C72.229 159.587 73.3922 159.587 74.1096 160.001C74.8271 160.415 74.8271 161.087 74.1096 161.501L60.5065 169.354C59.7891 169.769 58.6259 169.769 57.9084 169.354Z" fill="#1B127D"/>
<path fill-rule="evenodd" clip-rule="evenodd" d="M76.2766 158.75C75.5591 158.336 75.5591 157.664 76.2766 157.25L80.6596 154.719C81.377 154.305 82.5402 154.305 83.2576 154.719C83.9751 155.133 83.9751 155.805 83.2576 156.219L78.8747 158.75C78.1572 159.164 76.994 159.164 76.2766 158.75Z" fill="#ED26B7"/>
<path fill-rule="evenodd" clip-rule="evenodd" d="M65.7649 173.89C65.0474 173.476 65.0474 172.805 65.7649 172.39L106.869 148.659C107.587 148.244 108.75 148.244 109.468 148.659C110.185 149.073 110.185 149.744 109.468 150.159L68.3629 173.89C67.6455 174.305 66.4823 174.305 65.7649 173.89Z" fill="#1B127D"/>
<path fill-rule="evenodd" clip-rule="evenodd" d="M73.6213 178.426C72.9039 178.012 72.9039 177.34 73.6213 176.926L114.726 153.195C115.443 152.78 116.607 152.78 117.324 153.195C118.041 153.609 118.041 154.28 117.324 154.695L76.2194 178.426C75.5019 178.84 74.3387 178.84 73.6213 178.426Z" fill="#1B127D"/>
<path fill-rule="evenodd" clip-rule="evenodd" d="M81.4777 182.962C80.7603 182.548 80.7603 181.876 81.4777 181.462L114.901 162.166C115.618 161.751 116.781 161.751 117.499 162.166C118.216 162.58 118.216 163.251 117.499 163.666L84.0758 182.962C83.3584 183.376 82.1952 183.376 81.4777 182.962Z" fill="#1B127D"/>
<path d="M103.171 10.6522L86.7993 0.886475L71.0025 10.078L86.7993 20.1305L103.171 10.6522Z" fill="#ED27B7"/>
<path fill-rule="evenodd" clip-rule="evenodd" d="M87.0554 0.457067C86.8993 0.363942 86.705 0.362885 86.5478 0.454308L70.7511 9.64581C70.6003 9.73356 70.5061 9.89359 70.5026 10.068C70.4992 10.2425 70.5869 10.4061 70.7341 10.4998L86.5309 20.5523C86.6883 20.6525 86.8883 20.6567 87.0498 20.5632L103.421 11.0849C103.575 10.9961 103.67 10.8327 103.671 10.6555C103.672 10.4782 103.579 10.3136 103.427 10.2228L87.0554 0.457067ZM86.7961 1.46679L102.184 10.6458L86.8116 19.5457L71.9639 10.0971L86.7961 1.46679Z" fill="#1B127D"/>
<path d="M86.7993 95.7832L102.883 86.4877L103.171 10.6892L86.7993 20.1675L86.7993 95.7832Z" fill="white"/>
<path fill-rule="evenodd" clip-rule="evenodd" d="M103.421 10.2565C103.266 10.1668 103.075 10.1668 102.92 10.2565L86.5488 19.7348C86.3944 19.8242 86.2993 19.9891 86.2993 20.1675L86.2993 95.7833C86.2993 95.9619 86.3946 96.127 86.5493 96.2163C86.7041 96.3056 86.8947 96.3056 87.0494 96.2162L103.134 86.9206C103.288 86.8316 103.383 86.6675 103.383 86.4896L103.671 10.6911C103.672 10.512 103.576 10.3463 103.421 10.2565ZM102.668 11.5583L102.385 86.1985L87.2993 94.9168L87.2993 20.4558L102.668 11.5583Z" fill="#1B127D"/>
<path d="M86.7998 20.1756V95.7835L71.003 86.5927V10.123L86.7998 20.1756Z" fill="white"/>
<path fill-rule="evenodd" clip-rule="evenodd" d="M70.7624 9.68474C70.6025 9.77256 70.503 9.94056 70.503 10.123V86.5927C70.503 86.7707 70.5977 86.9353 70.7516 87.0249L86.5484 96.2157C86.703 96.3057 86.894 96.3062 87.0491 96.217C87.2042 96.1278 87.2998 95.9625 87.2998 95.7835V20.1756C87.2998 20.0046 87.2125 19.8455 87.0682 19.7538L71.2715 9.70122C71.1175 9.60324 70.9224 9.59693 70.7624 9.68474ZM86.2998 20.4501V94.9142L71.503 86.3051V11.0339L86.2998 20.4501Z" fill="#1B127D"/>
<path d="M112.578 110.49L128.662 101.195L128.949 38.9609L112.578 48.4393V110.49Z" fill="white"/>
<path fill-rule="evenodd" clip-rule="evenodd" d="M129.2 38.5282C129.045 38.4384 128.854 38.4383 128.699 38.5281L112.327 48.0064C112.173 48.0958 112.078 48.2607 112.078 48.4391V110.49C112.078 110.669 112.173 110.834 112.328 110.923C112.482 111.013 112.673 111.013 112.828 110.923L128.912 101.628C129.066 101.539 129.161 101.375 129.162 101.197L129.449 38.9631C129.45 38.784 129.355 38.6181 129.2 38.5282ZM128.445 39.8304L128.163 100.906L113.078 109.624V48.7274L128.445 39.8304Z" fill="#1B127D"/>
<path d="M112.578 48.4007L112.578 110.49L96.7808 101.3V38.3481L112.578 48.4007Z" fill="white"/>
<path fill-rule="evenodd" clip-rule="evenodd" d="M96.5401 37.9098C96.3802 37.9977 96.2808 38.1657 96.2808 38.3481V101.3C96.2808 101.478 96.3754 101.642 96.5293 101.732L112.327 110.923C112.481 111.013 112.672 111.013 112.827 110.924C112.983 110.835 113.078 110.669 113.078 110.491V48.4007C113.078 48.2297 112.991 48.0706 112.847 47.9788L97.0492 37.9263C96.8952 37.8283 96.7001 37.822 96.5401 37.9098ZM112.078 48.6752V109.621L97.2808 101.012V39.259L112.078 48.6752Z" fill="#1B127D"/>
<path d="M137.963 125.166L154.048 115.87L154.335 67.2631L137.963 76.7414L137.963 125.166Z" fill="white"/>
<path fill-rule="evenodd" clip-rule="evenodd" d="M154.586 66.8306C154.431 66.7406 154.24 66.7405 154.084 66.8303L137.713 76.3086C137.558 76.398 137.463 76.5629 137.463 76.7414L137.463 125.166C137.463 125.345 137.559 125.51 137.714 125.599C137.868 125.689 138.059 125.689 138.214 125.599L154.298 116.303C154.452 116.214 154.547 116.05 154.548 115.873L154.835 67.266C154.836 67.0868 154.741 66.9206 154.586 66.8306ZM153.83 68.1333L153.549 115.581L138.463 124.3L138.463 77.0296L153.83 68.1333Z" fill="#1B127D"/>
<path d="M137.964 76.6934L137.964 125.167L122.167 115.975V66.6409L137.964 76.6934Z" fill="white"/>
<path fill-rule="evenodd" clip-rule="evenodd" d="M121.927 66.2026C121.767 66.2904 121.667 66.4584 121.667 66.6409V115.975C121.667 116.153 121.762 116.318 121.916 116.408L137.712 125.599C137.867 125.689 138.058 125.69 138.213 125.6C138.368 125.511 138.464 125.346 138.464 125.167V76.6934C138.464 76.5225 138.377 76.3634 138.232 76.2716L122.436 66.219C122.282 66.1211 122.086 66.1148 121.927 66.2026ZM137.464 76.9679V124.298L122.667 115.688V67.5517L137.464 76.9679Z" fill="#1B127D"/>
<path d="M163.742 112.005V140.047L147.945 130.856V101.952L163.742 112.005Z" fill="white"/>
<path fill-rule="evenodd" clip-rule="evenodd" d="M147.705 101.514C147.545 101.602 147.445 101.77 147.445 101.952V130.856C147.445 131.034 147.54 131.199 147.694 131.288L163.491 140.479C163.645 140.569 163.836 140.57 163.991 140.481C164.147 140.391 164.242 140.226 164.242 140.047V112.005C164.242 111.834 164.155 111.675 164.011 111.583L148.214 101.531C148.06 101.433 147.865 101.426 147.705 101.514ZM163.242 112.279V139.178L148.445 130.569V102.863L163.242 112.279Z" fill="#1B127D"/>
<path d="M180.113 102.565L163.742 112.043V140.047L179.826 130.751L180.113 102.565Z" fill="white"/>
<path fill-rule="evenodd" clip-rule="evenodd" d="M180.365 102.133C180.21 102.042 180.018 102.042 179.863 102.132L163.491 111.61C163.337 111.7 163.242 111.865 163.242 112.043V140.047C163.242 140.225 163.337 140.39 163.492 140.48C163.647 140.569 163.837 140.569 163.992 140.48L180.076 131.184C180.229 131.096 180.324 130.933 180.326 130.756L180.613 102.57C180.615 102.39 180.52 102.223 180.365 102.133ZM179.604 103.437L179.329 130.461L164.242 139.18V112.331L179.604 103.437Z" fill="#1B127D"/>
<path d="M128.949 38.9447L112.578 29.179L96.7802 38.3705L112.578 48.423L128.949 38.9447Z" fill="#ED27B7"/>
<path fill-rule="evenodd" clip-rule="evenodd" d="M112.834 28.7495C112.678 28.6564 112.483 28.6554 112.326 28.7468L96.5288 37.9383C96.378 38.026 96.2838 38.1861 96.2803 38.3605C96.2769 38.535 96.3646 38.6986 96.5118 38.7923L112.309 48.8448C112.467 48.945 112.667 48.9492 112.828 48.8557L129.2 39.3774C129.353 39.2886 129.448 39.1252 129.449 38.948C129.45 38.7707 129.358 38.6061 129.205 38.5153L112.834 28.7495ZM112.574 29.7593L127.962 38.9383L112.59 47.8381L97.7416 38.3896L112.574 29.7593Z" fill="#1B127D"/>
<path d="M154.335 67.2041L137.963 57.4384L122.167 66.6298L137.963 76.6824L154.335 67.2041Z" fill="#ED27B7"/>
<path fill-rule="evenodd" clip-rule="evenodd" d="M138.219 57.0089C138.063 56.9158 137.869 56.9148 137.712 57.0062L121.915 66.1977C121.764 66.2854 121.67 66.4454 121.667 66.6199C121.663 66.7944 121.751 66.958 121.898 67.0517L137.695 77.1042C137.852 77.2044 138.052 77.2086 138.214 77.1151L154.585 67.6368C154.739 67.548 154.834 67.3846 154.835 67.2073C154.836 67.0301 154.743 66.8655 154.591 66.7747L138.219 57.0089ZM137.96 58.0187L153.348 67.1976L137.976 76.0975L123.128 66.649L137.96 58.0187Z" fill="#1B127D"/>
<path d="M180.113 102.459L163.742 92.6934L147.945 101.884L163.742 111.937L180.113 102.459Z" fill="#ED27B7"/>
<path fill-rule="evenodd" clip-rule="evenodd" d="M163.998 92.264C163.842 92.1708 163.647 92.1698 163.49 92.2612L147.693 101.452C147.543 101.54 147.448 101.7 147.445 101.874C147.442 102.049 147.529 102.212 147.676 102.306L163.473 112.359C163.631 112.459 163.831 112.464 163.992 112.37L180.364 102.892C180.517 102.803 180.612 102.64 180.613 102.462C180.614 102.285 180.522 102.12 180.369 102.03L163.998 92.264ZM163.739 93.2737L179.126 102.453L163.754 111.353L148.906 101.903L163.739 93.2737Z" fill="#1B127D"/>
<path d="M62.9233 149.899C47.3362 158.134 23.7295 157.44 10.283 148.36C7.80361 146.937 5.69322 144.95 4.12213 142.561C2.55103 140.171 1.56318 137.445 1.23828 134.604V109.776C1.44555 112.054 2.11694 114.264 3.21104 116.272C4.30514 118.28 5.79876 120.043 7.59976 121.451C8.4629 122.206 9.36886 122.911 10.3132 123.562C23.82 132.613 47.3664 133.337 62.9535 125.131C65.3097 123.918 67.5071 122.419 69.4958 120.666C72.8904 117.916 75.1198 113.982 75.7367 109.655V132.22C76.1588 138.676 71.7871 145.253 62.9233 149.899Z" fill="white"/>
<path fill-rule="evenodd" clip-rule="evenodd" d="M69.8187 121.048C67.8017 122.824 65.5735 124.345 63.1844 125.575C55.3003 129.725 45.4288 131.606 35.8382 131.317C26.2493 131.029 16.887 128.569 10.0348 123.978L10.0293 123.974C9.07296 123.315 8.15532 122.601 7.28084 121.836C5.43093 120.387 3.89654 118.575 2.77199 116.512C2.3719 115.777 2.02669 115.017 1.73828 114.236V134.575C2.05757 137.329 3.01703 139.97 4.53991 142.286C6.06797 144.61 8.12052 146.542 10.532 147.926L10.5478 147.935L10.5629 147.946C17.1864 152.419 26.3497 154.846 35.8151 155.123C45.2778 155.4 54.9872 153.526 62.6897 149.456L62.6912 149.456C71.4597 144.86 75.6419 138.435 75.2377 132.253L75.2367 132.237V113.571C74.1272 116.475 72.2682 119.061 69.8187 121.048ZM69.1811 120.278C72.4775 117.607 74.6426 113.787 75.2417 109.585L76.2367 109.655V132.204C76.6682 138.928 72.1077 145.649 63.1567 150.341C63.1563 150.341 63.1559 150.341 63.1554 150.341L62.9234 149.899L63.1567 150.341C63.1567 150.341 63.1568 150.341 63.1567 150.341C55.2722 154.507 45.3848 156.404 35.7858 156.123C26.1965 155.842 16.8399 153.385 10.0183 148.785C10.0235 148.788 10.0288 148.791 10.0341 148.794L10.283 148.36L10.0032 148.774C10.0082 148.778 10.0132 148.781 10.0183 148.785C7.47771 147.323 5.31513 145.285 3.70434 142.835C2.09021 140.38 1.07531 137.58 0.741517 134.66L0.738281 134.632V109.776L1.73622 109.731C1.9373 111.94 2.58866 114.085 3.65009 116.033C4.71152 117.981 6.16054 119.691 7.90773 121.057L7.91865 121.065L7.92909 121.074C8.77693 121.817 9.66679 122.509 10.5943 123.149C10.5933 123.148 10.5924 123.148 10.5915 123.147L10.3132 123.562L10.597 123.151C10.5961 123.15 10.5952 123.15 10.5943 123.149C17.2487 127.607 26.4118 130.033 35.8683 130.318C45.3236 130.602 55.018 128.744 62.7206 124.689L62.7246 124.687C65.0443 123.492 67.2075 122.016 69.1653 120.291L69.173 120.284L69.1811 120.278Z" fill="#1B127D"/>
<path d="M38.3823 131.255C58.9795 131.255 75.6768 121.693 75.6768 109.897C75.6768 98.1009 58.9795 88.5383 38.3823 88.5383C17.7852 88.5383 1.08789 98.1009 1.08789 109.897C1.08789 121.693 17.7852 131.255 38.3823 131.255Z" fill="white"/>
<path fill-rule="evenodd" clip-rule="evenodd" d="M12.2597 95.228C5.58525 99.0504 1.58789 104.255 1.58789 109.897C1.58789 115.539 5.58525 120.743 12.2597 124.566C18.9201 128.38 28.1548 130.755 38.3823 130.755C48.6098 130.755 57.8445 128.38 64.505 124.566C71.1795 120.743 75.1768 115.539 75.1768 109.897C75.1768 104.255 71.1795 99.0504 64.505 95.228C57.8445 91.4135 48.6098 89.0383 38.3823 89.0383C28.1548 89.0383 18.9201 91.4135 12.2597 95.228ZM11.7627 94.3602C18.6002 90.4444 28.0127 88.0383 38.3823 88.0383C48.752 88.0383 58.1645 90.4444 65.002 94.3602C71.8255 98.268 76.1768 103.743 76.1768 109.897C76.1768 116.051 71.8255 121.526 65.002 125.433C58.1645 129.349 48.752 131.755 38.3823 131.755C28.0127 131.755 18.6002 129.349 11.7627 125.433C4.93917 121.526 0.587891 116.051 0.587891 109.897C0.587891 103.743 4.93917 98.268 11.7627 94.3602Z" fill="#1B127D"/>
<g style="mix-blend-mode:multiply">
<path d="M52.191 113.728L69.165 121.451V145.886C69.165 145.886 59.3665 155.66 39.649 155.66C39.3475 149.235 38.6842 131.255 38.6842 131.255L34.3428 118.102C37.4589 118.607 40.6448 118.48 43.7109 117.729C46.7771 116.978 49.661 115.617 52.191 113.728Z" fill="#ED27B7"/>
</g>
<path d="M38.3822 118.524C47.8733 118.524 55.5673 114.661 55.5673 109.896C55.5673 105.131 47.8733 101.269 38.3822 101.269C28.8912 101.269 21.1973 105.131 21.1973 109.896C21.1973 114.661 28.8912 118.524 38.3822 118.524Z" fill="#1B127D"/>
</svg>
