<svg width="843" height="695" viewBox="0 0 843 695" fill="none" xmlns="http://www.w3.org/2000/svg">
<mask id="mask0_1216_14476" style="mask-type:alpha" maskUnits="userSpaceOnUse" x="0" y="0" width="844" height="695">
<rect opacity="0.25" x="0.834961" width="842.692" height="694.848" fill="#D9D9D9"/>
</mask>
<g mask="url(#mask0_1216_14476)">
<g opacity="0.5">
<path d="M1068.18 1555.77C1073.54 1526.78 1081.57 1457.76 1074.92 1438.08C1074.03 1428.62 1064.4 1397.97 1033.03 1350.99C1027.42 1341.66 1015.67 1317.5 1013.6 1295.5C1011 1268 1005.38 1244.53 1001.6 1232.66C997.819 1220.78 997.144 1190.1 1021.84 1179.22C1046.54 1168.34 1095.52 1181.56 1117.59 1203.86C1135.24 1221.7 1140.6 1254.91 1141.07 1269.28C1146.8 1288.32 1166.12 1325.32 1197.53 1321.03C1236.8 1315.66 1284.9 1288.75 1282.73 1229.74C1280.56 1170.73 1264.78 1131.54 1217.68 1069.25C1170.57 1006.96 1103.22 927.243 1084.35 869.416C1065.48 811.59 1053.06 778.722 1001.78 699.41C993.544 684.977 974.752 649.246 965.479 621.792C964.359 616.513 954.971 597.111 926.387 561.743C921.718 555.317 910.864 538.786 904.794 524.075C898.724 509.364 891.686 499.905 888.925 497.014C883.713 492.147 875.423 479.767 883.958 469.176C892.493 458.586 906.31 459.741 912.152 461.642C921.081 464.081 941.992 462.513 954.205 436.733C969.472 404.508 983.011 398.864 987.826 411.308C992.641 423.751 993.321 456.554 1014.52 487.626L1103.22 611.392C1112.75 623.997 1138.87 653.297 1167.09 669.655C1202.37 690.102 1240.81 733.858 1260.72 757.356C1280.64 780.854 1348.42 848.068 1379.81 908.514C1411.2 968.961 1451.82 970.149 1461.15 966.996C1470.49 963.843 1593.98 936.865 1598.52 954.92C1603.06 972.976 1589.69 981.131 1571.58 996.783C1553.46 1012.44 1512.34 1065.68 1553.94 1105.19C1587.22 1136.8 1617.04 1135.82 1627.79 1131.38" stroke="#DFE4E8" stroke-width="2"/>
<path d="M1015.29 1594.45C1021.09 1556.94 1023.35 1466.3 986.046 1403.83C948.74 1341.36 930.737 1303.31 926.398 1292.1C921.634 1277.59 908.231 1245.9 892.731 1235.26C873.357 1221.96 872.685 1176.3 892.687 1159.04C908.688 1145.24 917.728 1125.89 920.248 1117.94C926.777 1105.9 952.382 1080.63 1002.57 1075.94C1065.31 1070.08 1121.5 1085.16 1095.26 1029.31C1069.01 973.454 1045.12 953.138 1039.9 925.094C1034.69 897.05 1013.46 818.213 927.709 727.386C923.776 722.185 913.346 708.393 903.087 694.827C890.262 677.869 840.954 639.454 798.004 660.206C755.053 680.958 716.152 650.666 738.868 631.356C761.583 612.045 843.015 558.994 781.459 477.595C732.214 412.477 692.002 337.684 678.052 308.427C654.127 262.925 594.741 168.508 548.599 154.865C490.921 137.812 437.317 146.463 419.547 140.271C401.777 134.078 336.238 142.595 331.217 144.608C326.195 146.62 275.915 150.142 266.835 86.2185C257.756 22.2952 278.993 -6.25803 256.543 -20.2132C234.092 -34.1684 215.972 -32.9575 200.165 -70.3783C184.359 -107.799 190.807 -156.696 226.501 -177.146C262.195 -197.595 309.985 -183.171 337.192 -142.475C364.399 -101.778 353.932 -84.9397 363.147 -58.5955C372.362 -32.2512 394.753 38.2619 463.735 36.6589C532.718 35.056 576.61 23.8736 606.762 65.3178C636.914 106.762 640.627 133.698 670.842 167.36C701.058 201.023 809.602 387.819 882.885 369.877C898.777 365.196 934.756 331.96 951.533 236.466C954.561 234.177 962.329 183.092 946.744 153.831C931.16 124.571 956.534 110.141 974.913 102.191C985.431 99.2512 1012.03 89.6574 1034.28 74.8024C1062.09 56.2336 1079.74 50.2724 1098.83 77.6875C1117.92 105.102 1131.65 154.724 1141.52 174.29C1151.39 193.857 1173.25 224.926 1200.62 229.661C1228 234.396 1227.18 257.177 1199.48 271.557C1171.79 285.936 1134.15 301.271 1088.26 382.748C1051.55 447.93 1091.65 522.153 1116.29 551.117C1131.77 569.776 1169.71 611.987 1197.64 631.565C1232.56 656.037 1280.24 696.298 1331.25 749.637C1382.25 802.976 1398.41 817.836 1414.09 842.908C1429.77 867.98 1482.02 905.605 1535.98 880.387C1589.95 855.168 1600.89 840.332 1600.76 807.605C1600.63 774.878 1582.02 737.251 1612.9 733.593C1643.78 729.936 1697.04 790.597 1717.15 844.321C1721.65 856.783 1730.41 886.159 1729.43 903.966C1728.21 926.226 1753.44 949.82 1773.55 936.256C1793.65 922.693 1802.27 917.815 1797.93 878.429C1793.58 839.042 1815 826.128 1835.93 823.426C1856.87 820.725 1867.86 818.979 1880.29 850.61C1892.72 882.241 1912.46 908.344 1929.6 906.05" stroke="#DFE4E8"/>
<path d="M1095.67 1533.31C1101.44 1502.94 1109.32 1435.94 1094.65 1410.9C1076.32 1379.6 1042.67 1334.02 1046.5 1308.14C1049.56 1287.43 1048.51 1263.92 1047.6 1254.75C1046.97 1240.72 1052.75 1216.94 1080.85 1234.12C1089.96 1240.92 1109.33 1260.7 1113.94 1285.47C1118.54 1310.23 1142.39 1337.03 1153.74 1347.34C1165.17 1356.48 1195.33 1369.75 1224.48 1349.67C1260.93 1324.57 1322.49 1290.34 1307.34 1217.63C1292.18 1144.93 1283.02 1114.9 1247.21 1069.72C1211.4 1024.54 1142.03 938.231 1142.03 938.231C1133.91 927.675 1116.37 900.398 1111.19 875.74C1104.72 844.918 1068.25 750.553 1035.85 706.079C1003.45 661.606 1000.12 631.687 998.471 611.587C997.15 595.507 980.384 565.048 972.166 551.829C963.483 536.908 949.532 506.046 963.192 501.957C980.266 496.846 991.595 512.912 1013.31 538.369C1035.02 563.826 1078.12 628.954 1120.87 657.798C1141.88 672.86 1193.31 713.883 1231 757.481C1278.1 811.979 1296.88 833.704 1316.22 851.479C1331.68 865.7 1356.89 912.017 1367.56 933.397C1379.24 955.589 1411.35 999.241 1446.37 996.32C1490.14 992.669 1522.46 991.789 1510.92 1019.37C1499.37 1046.94 1468.63 1113.78 1606.15 1149.97" stroke="#DFE4E8"/>
<path d="M1126.93 1509.04C1133.13 1486.52 1145.04 1438.49 1143.15 1426.55C1140.77 1411.62 1151.68 1403.93 1161.03 1407.45C1170.38 1410.97 1190.61 1422.98 1220.39 1398.23C1250.17 1373.48 1286.54 1351.55 1300.73 1340.82C1314.91 1330.1 1349.99 1296.88 1332.28 1225.55C1314.57 1154.21 1324.42 1126.7 1263.11 1049.31C1201.8 971.929 1155.5 912.181 1150.33 885.436C1145.15 858.691 1115.01 769.446 1098.38 745.237C1081.74 721.028 1070.12 683.549 1076.67 675.254C1083.21 666.958 1109.29 694.064 1123.74 706.544C1138.2 719.025 1181.78 743.482 1219.85 791.615C1250.3 830.121 1268.14 846.88 1273.26 850.446C1287.21 864.232 1318.97 900.717 1334.33 936.367C1353.54 980.929 1398.84 1013.56 1418.98 1023.97C1439.11 1034.39 1456.74 1062.86 1461.08 1079.65C1465.41 1096.44 1504.51 1155.5 1584.93 1163.81" stroke="#DFE4E8"/>
<path d="M1664.5 1106.51C1660.13 1108.93 1585.39 1124.75 1566.83 1073.3C1562.21 1059.39 1566.24 1024.55 1619.32 996.445C1685.66 961.316 1676.54 903.62 1655.89 892.692C1639.37 883.95 1626.44 894.315 1622.04 900.59C1620.47 903.219 1614.56 909.355 1603.41 912.866C1589.49 917.255 1489.77 945.267 1473.5 941.182C1458.41 939.764 1423.39 931.184 1404.02 908.206C1379.8 879.484 1347.56 819.417 1330.28 803.626C1312.99 787.836 1270.14 742.34 1248.6 716.355C1231.37 695.568 1190.12 664.884 1171.65 652.141C1159.19 642.628 1125.38 611.157 1089.75 561.373C1057.89 521.321 1002.16 429.028 1034.12 380.272C1074.08 319.326 1083.38 235.463 1067.79 217.551C1052.2 199.638 1051.07 197.474 1046.69 200.396C1042.31 203.317 1031.56 201.383 1003.23 257.665C974.906 313.948 950.971 386.279 931.996 400.629C913.02 414.979 878.526 442.614 837.259 414.168C795.991 385.722 763.153 379.179 791.546 417.748C819.939 456.318 865.699 511.193 868.887 535.898C872.075 560.602 881.994 584.477 907.265 599.454C910.403 601.213 919.538 608.921 930.975 625.684C945.271 646.636 958.516 683.104 990.323 725.676C1022.13 768.249 1050.19 815.594 1053.66 835.045C1057.14 854.496 1063.74 897.54 1104.37 952.807C1136.88 997.02 1183.92 1062.1 1203.38 1089.11C1218.49 1109.08 1248.6 1162.24 1248.21 1215.06C1248.58 1231.91 1242.69 1267.28 1216.19 1274C1189.68 1280.73 1177.39 1256.88 1174.55 1244.12C1171.18 1216.38 1152.4 1158.96 1104.29 1151.2C1044.14 1141.5 1021.22 1121.25 986.364 1153.79C951.507 1186.34 966.276 1236.06 972.028 1251.22C977.78 1266.37 983.083 1282.82 982.523 1294.66C981.963 1306.5 992.079 1331.21 1019.39 1366.69C1046.7 1402.17 1052.04 1447.61 1052.83 1475.08C1053.47 1497.06 1051.07 1546.98 1049.79 1569.2" stroke="#DFE4E8"/>
<path d="M978.284 1623.78C984.46 1579.28 988.66 1478.62 956.046 1431.93C915.28 1373.58 893.629 1329.37 893.629 1329.37C890.19 1322.72 875.754 1304.2 845.517 1283.36C807.722 1257.3 776.207 1255.66 787.342 1226.93C798.476 1198.21 845.397 1100.78 878.521 1077.13C911.644 1053.48 1001.69 1006.7 1004.17 984.56C1006.64 962.424 1019.43 934.748 946.205 827.253C872.984 719.757 822.517 713.17 764.037 722.18C705.556 731.19 664.733 736.385 660.813 692.396C656.893 648.408 633.213 638.438 634.213 625.209C635.214 611.98 635.532 603.67 665.21 591.497C694.887 579.325 781.088 566.226 738.049 485.06C695.009 403.893 680.054 381.713 670.603 358.256C661.153 334.8 608.554 279.578 588.855 261.96C569.155 244.341 554.947 226.396 543.301 213.525C531.655 200.655 459.549 176.125 395.79 230.08C375.552 247.722 319.302 264.843 256.198 192.19C177.319 101.374 121.222 87.0532 64.7082 70.4963C38.18 66.3301 -10.0673 44.7975 9.1691 -8.00404C6.71512 -11.249 15.8643 -37.9327 14.0924 -48.7066C12.3206 -59.4805 27.8325 -71.8489 62.9126 -99.6528C90.9767 -121.896 119.617 -162.937 130.429 -180.677C133.515 -188.961 151.707 -211.05 199.788 -233.129C259.889 -260.727 297.205 -288.946 332.901 -289.8C368.596 -290.654 429.874 -329.343 450.122 -378.447C470.369 -427.55 467.112 -453.778 521.664 -470.166C576.215 -486.555 608.299 -500.616 628.744 -551.144C649.19 -601.672 692.791 -711.791 752.676 -716.911C762.128 -718.746 783.959 -727.817 795.671 -749.425C810.311 -776.436 833.897 -778.971 854.94 -781.495C871.775 -783.515 893.046 -790.122 901.577 -793.174" stroke="#DFE4E8" stroke-width="2"/>
<path d="M1034.06 1580.76C1035.99 1536.88 1034.47 1441.47 1012.97 1410.79C986.094 1372.45 968.716 1341.05 962.297 1314.81C955.878 1288.56 935.33 1253.91 927.025 1235.45C918.719 1216.99 925.592 1158.77 944.676 1137.27C963.761 1115.77 998.202 1099.62 1048.86 1105.85C1099.51 1112.07 1186.57 1140.26 1156.44 1078.92C1126.31 1017.58 1072.27 954.538 1061.76 920.074C1051.25 885.61 1009.34 781.583 959.504 725.963C957.123 722.815 922.797 683.033 911.552 662.555C900.307 642.077 877.479 629.651 866.763 628.566C856.046 627.481 815.151 608.924 828.421 571.321C841.69 533.718 821.055 505.496 804.149 479.402C787.243 453.308 737.281 379.153 726.378 347.156C717.656 321.558 677.85 260.801 659.038 233.622C651.917 223.211 640.21 201.714 650.351 199.009C663.027 195.629 697.381 235.09 714.471 255.45C731.56 275.811 797.373 373.281 842.519 388.221C887.665 403.16 908.516 396.417 936.822 340.599C965.128 284.781 990.182 193.331 986.732 173.103C983.283 152.876 1002.66 138.22 1014.15 129.535C1025.63 120.85 1058.28 106.584 1080.42 129.894C1102.56 153.204 1098 160.602 1105.46 178.661C1112.91 196.72 1116.11 210.656 1126.6 223.033C1137.09 235.411 1145.82 258.144 1123.04 278.753C1100.27 299.362 1054.83 369.827 1048.8 415.568C1042.77 461.308 1073.93 509.961 1108.42 562.289C1136.02 604.152 1179.18 637.212 1197.32 648.509C1213.26 660.145 1253.9 693.047 1288.9 731.569C1332.65 779.721 1346.17 784.167 1388.43 843.034C1430.69 901.901 1448.68 922.708 1498.68 914.23C1548.68 905.752 1599.83 891.329 1616.79 857.065C1633.76 822.8 1629.63 803.917 1644.39 804.039C1659.15 804.16 1688.27 839.682 1692.6 887.181C1696.06 925.18 1701.77 944.56 1704.19 949.5C1709.69 960.757 1711.44 985.648 1674.4 995.155C1628.1 1007.04 1592.59 1061.54 1619.03 1079.34C1645.47 1097.14 1703.37 1082.69 1714.77 1030.63C1726.17 978.57 1709.9 984.664 1737.06 978.797C1764.21 972.929 1802.94 980.875 1821 950.295C1839.06 919.716 1835.49 906.051 1850.51 904.281C1865.54 902.512 1894.81 932.273 1894.81 932.273" stroke="#DFE4E8"/>
<path d="M1681.13 237.972C1682.78 241.381 1736.29 329.379 1739.3 376.442C1742.31 423.506 1755.2 452.858 1757.99 482.4C1760.78 511.941 1751.55 544.055 1723.41 563.472C1695.27 582.889 1700.3 615.391 1704.7 637.204C1709.09 659.016 1723.37 701.283 1662.39 678.507C1601.41 655.732 1525.49 645.193 1510.84 659.062C1496.19 672.931 1495.76 676.051 1508.18 701.099C1520.61 726.147 1529.5 795.759 1475.72 789.885C1421.94 784.01 1390.28 740.921 1363.73 710.732C1337.18 680.543 1275.13 650.198 1266.35 644.738C1257.56 639.278 1163.31 577.43 1127.22 501.391C1091.13 425.353 1141.82 361.888 1191.33 341.198C1230.95 324.646 1273.85 327.207 1290.34 330.557C1310.5 333.002 1349.66 323.312 1345.03 264.998C1339.24 192.106 1335.87 128.56 1258.88 110.452C1181.88 92.3439 1136.4 45.7462 1118.21 -10.3157C1100.02 -66.3777 1090.03 -112.819 1145.31 -178.826C1151.66 -184.356 1168.34 -198.363 1184.25 -210.157C1204.14 -224.9 1190.42 -242.249 1171.12 -246.643C1151.83 -251.037 1052.47 -270.834 1028.65 -253.72C1004.82 -236.607 984.569 -215.565 995.548 -174.744C1006.53 -133.923 1047.59 -79.228 1035.21 -33.4977C1022.82 12.2325 1030.29 26.7853 955.269 43.1163C944.747 44.3398 916.742 38.919 888.902 7.44787C854.102 -31.8911 834.865 -7.24192 825.784 18.817C816.703 44.876 819.092 89.4417 851.115 128.447C883.137 167.453 911.488 176.225 904.603 227.895C897.719 279.565 857.238 330.885 832.799 303.912C808.361 276.939 757.66 195.416 710.582 142.299C700.068 128.411 679.781 94.5729 682.755 70.3291C686.472 40.0244 668.76 -36.7949 592.727 -28.269C516.693 -19.7431 433.288 -3.92357 419.483 -63.0779C405.679 -122.232 427.51 -216.067 470.304 -242.416C513.099 -268.764 518.28 -254.639 565.147 -249.7C612.013 -244.761 695.036 -238.811 721.198 -326.471C747.361 -414.131 738.916 -489.367 808.774 -534.463C878.631 -579.559 967.916 -598.965 1055.14 -585.88" stroke="#DFE4E8" stroke-width="2"/>
<path d="M1784.31 366.822C1779.59 384.848 1774.36 434.403 1791.18 488.412C1808 542.422 1780.31 576.269 1764.37 586.442C1755.19 592.229 1740.4 611.489 1754.65 642.236C1772.47 680.669 1819.1 745.762 1792.26 765.19C1765.43 784.618 1743.24 791.883 1690.19 744.619C1637.15 697.355 1583.5 672.175 1562.88 692.958C1542.26 713.741 1544.36 719.943 1558.86 757.424C1573.36 794.904 1580.47 846.629 1510.5 846.769C1440.53 846.91 1426.46 813.429 1406.49 790.461C1386.53 767.493 1316.57 700.148 1276.16 671.879C1235.74 643.61 1112.56 555.085 1102.64 488.19C1092.71 421.296 1100.39 373.1 1160.94 330.767C1209.39 296.9 1251.14 292.548 1265.96 294.605C1290.38 293.726 1332.19 278.084 1304.04 222.551C1275.89 167.018 1246.01 170.983 1234.59 179.907C1222.98 187.819 1194.11 190.446 1171.49 137.651C1143.21 71.6578 1132.07 80.9486 1117.88 51.8853C1103.69 22.822 1092.38 -9.28914 1075.84 -3.70302C1059.3 1.88311 1059.26 27.0007 1028.83 43.9587C998.398 60.9168 961.468 75.0027 914.642 64.5623C867.815 54.1219 866.126 80.488 874.464 94.9459C882.802 109.404 934.747 157.5 930.818 210.649C926.889 263.798 910.315 329.97 871.156 338.82C839.829 345.9 812.386 320.974 802.58 307.627C778.837 271.655 725.613 193.497 702.661 168.636C673.97 137.56 666.395 106.952 654.538 75.2576C642.682 43.5628 625.091 -7.15412 548.142 7.78085C471.192 22.7158 405.692 1.30876 391.053 -70.6734C376.414 -142.656 397.428 -237.275 331.566 -245.431C265.703 -253.588 177.388 -181.61 152.329 -132.379C127.269 -83.1488 87.0808 -20.7473 135.871 32.3299C149.936 41.0146 184.009 67.3861 207.779 103.395C237.492 148.405 310.168 238.788 386.175 195.151C462.182 151.514 533.765 175.242 564.482 195.269C589.056 211.291 643.508 286.041 667.662 321.413C687.221 357.953 733 440.53 759.649 478.514C792.96 525.995 775.041 566.364 748.475 583.859C727.222 597.855 708.87 607.754 702.35 610.954C692.013 614.446 673.408 627.824 681.68 653.405C692.019 685.382 719.273 701.972 746.297 695.378C773.32 688.785 844.511 683.395 895.771 732.874C947.031 782.353 1009.61 867.394 1014.73 905.049C1018.82 935.174 1033.37 965.929 1040.13 977.541C1050.77 991.989 1061.49 1024.54 1019.26 1039.18C966.48 1057.46 909.626 1058.93 878.124 1119.09C846.621 1179.25 853.923 1176.32 841.01 1191.28C828.097 1206.24 827.725 1225.48 866.409 1261.31C875.398 1268.48 895.869 1287.53 905.842 1306.38C918.309 1329.94 935.938 1363.86 962.683 1401.58C989.429 1439.31 1007.48 1506.79 998.921 1608.66" stroke="#DFE4E8"/>
<path d="M1157.14 -460.314C1142.89 -467.37 1110.51 -484.92 1070.58 -510.774C1030.64 -536.628 968.057 -535.159 929.79 -499.85C899.176 -471.603 868.948 -451.717 857.661 -445.304C850.01 -444.19 830.208 -429.384 812.2 -379.077C789.689 -316.193 742.096 -224.149 683.507 -188.76C624.917 -153.37 600.503 -160.385 555.767 -167.32C511.032 -174.254 484.368 -133.708 488.501 -116.451C492.634 -99.1935 517.959 -67.3887 584.475 -102.404C650.991 -137.418 669.906 -184.843 715.456 -126.295C720.179 -120.197 730.196 -105.453 732.485 -95.2607C735.345 -82.5208 757.433 -44.355 806.025 -80.4246C854.617 -116.494 894.361 -122.163 920.549 -85.7429C932.576 -68.645 958.04 -38.4964 963.681 -54.6848C970.732 -74.9203 964.928 -94.2402 939.961 -122.777C914.993 -151.314 903.385 -189.954 920.138 -216.171C930.322 -237.341 949.711 -283.841 945.795 -300.485C940.9 -321.289 949.274 -362.17 975.217 -360.112C1001.16 -358.054 1022.1 -336.633 1073.99 -332.517C1125.87 -328.401 1229.49 -305.147 1242.87 -337.619" stroke="#DFE4E8"/>
<path d="M1099.94 -534.354C1073.42 -550.805 1005.53 -578.105 946.116 -555.706C871.851 -527.706 809.046 -505.243 785.866 -434.519C762.687 -363.795 768.471 -289.942 681.827 -236.935C612.512 -194.529 548.859 -201.048 525.697 -209.608C503.27 -213.096 455.702 -200.515 444.844 -122.289C433.986 -44.0625 489.424 -38.8464 518.5 -46.0166L636.08 -69.6426C652.121 -75.9853 686.679 -79.1514 696.581 -41.0743C708.959 6.52212 725.021 33.2728 724.841 71.6116C724.661 109.95 759.824 147.262 773.654 170.144C784.719 188.449 811.575 232.228 823.62 251.829C830.501 263.99 847.848 281.295 862.185 253.227C880.106 218.141 864.345 183.523 839.683 167.443C815.02 151.364 768.358 119.97 782.029 47.118C795.701 -25.7344 821.427 -48.6623 835.136 -56.2515C848.846 -63.8407 878.281 -73.5977 904.379 -30.8204C930.477 11.9568 976.944 21.9659 993.012 -5.46652C1009.08 -32.899 1014.38 -65.3855 979.442 -129.956C944.504 -194.526 957.705 -218.402 967.457 -245.92C975.259 -267.934 977.633 -278.389 977.845 -280.864C979.249 -290.03 989.638 -307.704 1019.96 -305.076C1057.87 -301.792 1124.35 -302.057 1214.31 -277.705C1286.28 -258.224 1296.09 -268.464 1291.99 -276.02" stroke="#DFE4E8"/>
</g>
</g>
</svg>
