<svg width="1440" height="1987" viewBox="0 0 1440 1987" fill="none" xmlns="http://www.w3.org/2000/svg">
<g clip-path="url(#clip0_409_5457)">
<path d="M866.299 693.009C859.888 703.416 853.337 713.557 847.377 724.093C839.602 738.569 833.802 753.727 830.104 769.235C826.388 784.033 823.574 799.087 820.62 813.875C814.451 845.869 805.123 876.964 788.219 903.865C778.448 919.642 766.469 934.353 752.579 947.634C743.151 956.277 733.011 964.298 722.252 971.623C714.123 976.886 705.611 981.655 696.78 985.894C689.911 989.603 682.591 993.183 675.441 996.359C665.183 1000.92 654.645 1004.94 643.935 1009.37C632.605 1014.07 620.993 1018.24 609.772 1023.88C592.474 1032.55 575.878 1042.56 562.457 1056.4C551 1067.41 543.064 1080.83 539.532 1095.18C536.995 1107.05 538.297 1119.12 543.287 1130C547.824 1140.8 553.122 1151.6 557.659 1162.4C563.11 1174.61 566.325 1187.6 567.187 1200.9C567.535 1207.27 567.193 1213.7 566.166 1220.09C563.304 1236.28 555.32 1251.68 543.138 1264.5C534.448 1274.26 523.964 1282.7 512.159 1289.43C505.91 1293.25 499.393 1296.69 492.654 1299.74C484.121 1303.2 475.478 1305.73 466.975 1308.52C459.094 1311.03 451.073 1313.28 443.161 1316.46C432.001 1320.76 420.67 1325.47 409.79 1330.3C404.201 1333.18 398.859 1336.43 393.815 1340.03C389.433 1342.63 384.739 1345.37 380.357 1347.98C375.182 1351.26 369.697 1354.68 364.382 1357.7L356.41 1362.23C351.888 1364.57 347.225 1366.64 342.843 1369.24C323.448 1380.49 302.341 1389.2 281.684 1398.05C272.468 1401.76 263.067 1405.05 253.518 1407.93C248.264 1409.61 243.15 1411.55 237.755 1412.96C230.496 1415.2 222.926 1417.58 215.386 1419.28C199.907 1422.89 184.142 1425.16 168.323 1426.05C146.086 1427.26 124.042 1424.53 103.501 1418.03C87.4628 1412.83 72.7548 1405.12 60.06 1395.26C50.1997 1387.97 42.6283 1378.59 37.9954 1367.91C33.7989 1358.42 32.5392 1347.99 34.3393 1337.66C38.0783 1315.62 48.633 1297.78 61.8639 1281.39C71.4845 1269.43 82.5057 1258.36 94.7317 1248.38C103.689 1241.44 113.086 1234.96 122.872 1228.98C134.084 1221.49 146.238 1215.21 159.052 1210.28C166.208 1207.49 173.54 1205.11 181.001 1203.16C189.914 1200.67 198.957 1198.63 208.083 1197.05C229.167 1193.89 250.502 1193.62 271.325 1196.24C287.686 1198.17 304.016 1200.78 320.206 1203.12C332.617 1204.84 344.888 1206.29 356.579 1203.73C374.255 1200.15 386.731 1190.33 392.714 1172.56C394.942 1166.24 395.655 1159.65 394.808 1153.22C393.893 1146.72 391.422 1140.54 387.557 1135.08C379.151 1124.26 368.536 1114.95 356.209 1107.59C333.147 1092.19 309.604 1077.34 287.876 1059.38C270.242 1044.67 254.449 1028.34 240.737 1010.64C230.536 997.458 221.939 983.327 215.08 968.461C209.346 955.76 204.747 942.64 201.321 929.214C196.991 910.716 194.736 891.793 194.588 872.712C194.495 857.963 194.852 843.342 195.66 828.85C196.674 803.091 197.066 777.608 195.202 751.483C193.547 730.854 191.3 709.831 190.407 689.192C189.49 669.989 190.876 650.645 194.542 631.478C199.025 606.48 207.085 583.178 213.512 558.959C217.419 545.574 219.117 531.865 218.552 518.264C217.961 508.272 215.085 498.596 210.093 489.81C203.814 479.352 195.106 470.247 184.499 463.051C170.461 453.569 155.261 445.45 139.144 438.824C129.732 434.788 120.009 430.89 110.426 427.258C87.9622 418.829 65.6387 410.667 43.3153 402.505C31.0259 398.103 18.5964 393.435 6.61778 388.895C-17.3394 379.815 -41.2967 370.735 -65.0833 361.251C-92.8994 349.941 -120.204 337.417 -147.879 326.374C-172.113 316.626 -197.952 309.962 -224.657 306.572C-248.399 303.612 -272.602 303.112 -296.78 305.082C-309.082 305.879 -321.289 308.203 -333.035 311.983C-339.961 314.022 -346.739 316.483 -353.32 319.349C-363.333 324.222 -372.503 330.401 -380.498 337.666C-400.507 355.756 -414.321 378.327 -424.448 403.532C-431.401 419.853 -435.114 436.964 -435.418 454.092C-435.395 466.298 -432.623 478.248 -427.262 489.254C-420.211 502.768 -410.633 515.055 -398.906 525.632C-384.585 538.993 -370.234 551.682 -355.431 564.5C-337.843 579.696 -319.633 594.615 -303.489 611.438C-295.603 619.568 -288.56 628.315 -282.437 637.585C-269.292 656.726 -263.686 677.573 -261.781 699.406C-259.634 725.149 -259.689 751.102 -261.945 777.048C-263.154 795.474 -265.768 813.876 -269.768 832.127C-274.88 856.234 -283.631 879.8 -295.785 902.188C-300.782 911.639 -306.821 920.567 -312.58 930.027C-313.328 931.403 -313.856 932.854 -314.146 934.338M830.401 624.816C825.605 633.191 820.98 641.162 816.495 649.399C806.843 667.492 797.05 685.317 787.989 703.804C779.516 721.201 773.477 739.341 770.01 757.806C766.453 775.82 763.347 793.962 759.339 811.848C753.693 839.007 743.566 864.213 726.764 885.48C717.786 896.969 706.888 907.244 694.469 915.931C685.556 922.389 675.845 927.917 665.548 932.392C661.818 934.049 658.819 936.367 654.949 937.758C644.55 942.048 634.012 946.071 623.162 950.233C614.799 953.29 606.126 956.486 597.903 959.809C585.5 964.661 573.236 969.779 560.802 975.302C552.549 979.297 544.717 984.09 536.745 988.618C530.016 992.593 523.147 996.301 516.729 1000.14C510.933 1003.7 505.277 1007.53 499.791 1010.95C495.409 1013.55 491.307 1016.69 486.785 1019.03C477.601 1024.31 468.075 1029.09 458.266 1033.34C428.936 1045.38 397.465 1047.53 364.285 1036.95C343.773 1030.43 325.095 1020.43 309.267 1007.49C298.072 998.6 288.58 988.186 281.118 976.604C276.983 970.808 273.288 964.763 270.058 958.509C262.801 943.376 258.193 927.258 256.384 910.678C253.277 885.106 256.826 860.521 260.376 835.937C263.926 811.352 268.268 786.087 265.783 760.239C264.775 748.854 263.176 737.074 261.406 725.698C257.977 703.885 253.926 682.348 253.234 660.634C252.565 644.719 253.904 628.692 257.225 612.845C260.861 596.439 265.57 579.885 269.206 563.479C272.812 547.744 276.558 532.275 275.964 515.119C275.685 502.009 272.402 489.226 266.312 477.532C260.221 465.838 251.447 455.472 240.513 447.051C231.219 439.977 221.214 433.645 210.605 428.124C200.882 422.796 190.714 418.087 180.173 414.032C165.659 408.317 151.254 403.54 136.569 398.23C131.327 396.286 126.224 394.608 121.293 392.526C90.4591 380.584 59.455 369.047 28.9628 356.296C4.11205 346.151 -19.8355 334.496 -42.715 321.41C-68.6848 306.322 -94.4836 290.83 -120.313 276.008C-144.255 262.209 -171.5 253.147 -200.286 249.408C-222.401 246.741 -244.748 245.82 -266.643 245.028C-292.489 244.018 -318.023 242.87 -343.588 242.393C-353.932 242.097 -364.353 243.18 -374.498 245.604C-389.532 249.263 -402.901 257.412 -412.245 268.615C-425.455 283.911 -436.726 300.386 -445.841 317.722C-459.437 342.167 -473.032 366.612 -486.036 391.452C-494.043 406.841 -501.458 422.624 -508.283 438.803C-514.42 453.15 -517.28 468.281 -516.693 483.296C-516.265 492.123 -514.186 500.748 -510.539 508.829C-503.359 524.556 -492.113 538.443 -477.652 549.441C-458.851 564.755 -439.879 579.665 -420.767 594.841C-402.104 609.882 -385.406 626.703 -370.951 645.024C-360.856 658.383 -352.518 672.755 -346.087 687.884C-338.269 705.752 -333.482 724.658 -331.875 744.022C-329.978 761.818 -330.13 779.834 -332.329 797.799C-335.031 819.226 -340.905 840.4 -349.801 860.779C-350.317 862.321 -350.643 863.899 -350.775 865.485M852.667 667.834C838.268 688.309 826.407 710.003 817.299 732.518C811.284 748.093 806.841 764.037 804.025 780.157C801.181 795.882 797.435 811.351 794.45 826.81C790.419 846.352 783.458 865.473 773.753 883.663C763.783 902.723 749.692 920.044 732.305 934.613C723.931 941.291 715.557 947.968 706.902 954.113C700.935 958.078 694.408 960.978 688.16 964.411C683.327 966.886 678.323 969.766 673.349 971.976C666.2 975.151 658.91 978.06 651.48 980.703C643.879 983.751 635.827 986.669 627.946 989.184C612.567 994.319 597.579 1000.43 583.104 1007.46C575.162 1011.31 567.64 1015.97 559.979 1020.36C541.377 1030.92 525.36 1044.94 508.923 1058.16C500.689 1065.1 492.314 1071.78 483.349 1078.06C469.223 1088.36 451.416 1093.68 433.636 1092.91C415.854 1091.74 398.477 1088.4 381.998 1082.98C358.685 1075.82 336.834 1065.72 317.106 1052.97C292.838 1038.21 272.242 1019.36 256.415 997.427C251.976 991.182 247.537 984.936 243.58 978.148C239.424 971.346 235.725 964.319 232.501 957.103C228.642 946.883 225.454 936.447 222.95 925.847C218.182 904.796 216.704 883.12 218.557 861.404L223.155 800.199C224.534 778.689 223.876 757.212 221.187 735.993C219.02 716.577 216.573 696.629 215.308 677.469C213.963 657.233 215.708 636.782 220.497 616.658C224.786 599.305 229.525 582.08 233.954 564.994C237.678 552.105 240.156 539.018 241.36 525.878C242.481 510.528 239.017 495.407 231.313 482.024C227.254 475.163 221.929 468.983 215.541 463.721C202.377 452.044 186.882 442.577 169.746 435.745C157.346 430.406 145.258 424.929 132.828 420.26C112.62 412.473 92.0707 405.495 71.6919 398.113C65.9983 396.04 59.8536 393.84 54.0197 391.501C44.4369 387.869 34.8541 384.237 25.5821 380.467C11.6589 375.147 -2.57553 369.965 -16.4684 363.975C-36.7864 355.251 -57.0742 345.856 -77.2216 336.727C-92.4374 329.681 -107.482 322.231 -122.869 315.589C-135.408 309.983 -147.948 304.378 -160.829 299.581C-179.099 292.886 -198.391 288.311 -218.239 285.968C-231.723 284.397 -245.067 283.093 -258.751 282.598C-283.805 281.13 -309.141 282.446 -334.165 286.513C-348.395 289.071 -362.126 293.835 -374.705 300.576C-387.8 308.085 -399.13 317.818 -407.982 329.162C-420.549 344.503 -431.345 360.864 -440.195 377.982C-447.703 392.578 -454.326 407.48 -460.035 422.621C-464.812 435.414 -467.663 448.619 -468.513 461.885C-469.31 474.517 -466.579 486.96 -460.559 498.123C-452.826 512.672 -442.062 525.712 -428.794 536.603C-415.766 548.237 -402.256 559.327 -389.058 570.556C-372.578 584.079 -357.059 598.477 -342.578 613.676C-332.85 623.918 -324.127 634.883 -316.495 646.464C-309.822 657.08 -304.213 668.222 -299.727 679.772C-291.165 702.592 -288.558 725.757 -287.475 748.942C-286.246 773.817 -288.096 798.884 -292.992 823.702C-297.243 845.613 -304.771 867.085 -315.376 887.55C-318.557 893.893 -322.189 900.108 -325.681 906.589C-326.028 907.559 -326.277 908.549 -326.424 909.549M839.763 643.334C829.69 660.627 819.927 677.781 809.994 695.341C798.765 716.02 790.611 737.767 785.745 760.016C781.968 776.156 779.685 792.947 776.36 809.215C771.426 834.085 764.268 857.644 751.587 878.725C735.574 905.034 711.519 927.131 682.302 942.368C671.563 947.467 661.274 952.694 650.254 957.26C642.172 960.85 633.98 963.502 625.617 966.56C617.876 969.341 610.306 971.717 602.846 975.031C589.509 980.297 576.313 985.83 563.568 991.491C556.333 995.094 549.336 999.08 542.62 1003.43C534.958 1007.81 527.437 1012.47 519.916 1017.13C513.638 1021.23 507.19 1025.74 500.772 1029.57C494.354 1033.41 488.216 1037.78 481.658 1041.35C474.167 1045.33 466.225 1049.19 458.454 1052.64C443.62 1058.81 427.469 1061.69 411.47 1061.02C389.093 1060.77 366.819 1054.89 345.459 1045.64C324.333 1036.37 305.546 1023.66 290.044 1008.13C280.96 999.049 272.842 989.237 265.784 978.81C252.147 957.85 243.721 934.404 241.031 909.935C238.174 885.566 240.59 862.471 243.317 839.238C245.35 821.243 247.383 803.248 248.654 785.263C249.4 767.023 248.182 748.854 245.018 731.002C241.979 710.659 238.318 690.591 237.565 670.219C236.577 651.223 238.212 632.067 242.432 613.167C245.636 599.582 249.292 586.126 252.806 572.404C256.723 556.53 261.091 540.785 262.161 523.876C263.061 511.297 261.026 498.83 256.18 487.245C251.334 475.659 243.781 465.202 233.988 456.519C221.492 445.74 207.176 436.708 191.492 429.708C182.079 425.672 173.008 420.826 163.425 417.194C144.119 409.664 124.472 402.943 105.136 396.084L88.5062 389.994C59.026 378.437 29.8263 367.413 0.687308 355.047C-29.1348 342.275 -58.0307 328.006 -85.865 312.307C-109.049 299.597 -132.092 287.153 -156.5 277.944C-173.322 271.665 -191.081 267.298 -209.37 264.943C-220.878 263.482 -232.417 262.691 -243.956 261.9C-269.705 260.23 -295.625 259.89 -321.584 260.883C-334.523 261.259 -347.456 262.817 -360.174 265.533C-369.985 268.03 -379.331 271.959 -387.81 277.151C-409.41 290.033 -423.415 310.058 -436.236 330.873C-446.078 346.419 -455.018 362.222 -463.366 378.42C-472.397 396.236 -481.287 414.319 -488.684 433.053C-494.413 446.544 -497.226 460.733 -496.974 474.862C-496.847 483.164 -495.265 491.331 -492.282 499.073C-486.464 515.224 -475.161 527.952 -462.273 539.319C-444.825 554.249 -426.895 568.635 -409.277 583.16C-391.746 597.352 -375.638 612.842 -361.114 629.476C-353.122 639.179 -345.851 649.341 -339.341 659.905C-327.844 679.059 -319.995 699.871 -316.089 721.558C-310.452 751.163 -310.34 781.635 -315.757 811.799C-319.824 835.34 -327.533 858.451 -338.665 880.481C-339.006 881.29 -339.067 882.631 -339.408 883.44M-300.298 -165.67C-296.329 -162.503 -292.049 -159.473 -288.081 -156.306C-277.528 -147.188 -267.285 -137.933 -256.732 -128.815C-240.787 -115.095 -226.428 -100.015 -213.842 -83.7726C-206.648 -74.4782 -200.076 -64.9078 -193.814 -55.1992C-177.973 -31.6674 -166.966 -5.65971 -152.851 18.9669C-137.894 45.1919 -118.294 66.3957 -91.1903 79.9945C-74.9625 88.2346 -57.8509 93.7821 -40.3565 94.2286C-32.3833 94.7449 -24.2838 93.7258 -16.615 91.2422C-9.49474 88.791 -2.54614 85.9249 4.18199 82.6627C11.7612 78.5599 18.9111 73.8426 25.5323 68.5772C42.7319 55.3499 59.6509 41.5897 76.8504 28.3624C84.5983 23.1011 92.6501 18.208 100.968 13.7057C104.507 11.3165 108.33 9.28709 112.36 7.65962C127.22 2.3738 142.501 -2.11272 159.423 0.888882C167.883 2.35987 175.685 5.66848 182.137 10.521C186.442 13.8667 189.794 18.0548 191.951 22.7815C194.107 27.5082 195.015 32.6553 194.607 37.8506C194.055 48.7532 189.977 59.4595 182.854 68.7087C172.326 83.5371 158.756 96.5953 142.885 107.169C133.837 113.502 124.312 119.271 114.385 124.43C100.506 131.58 86.2073 137.932 71.9081 144.283C64.1368 147.735 55.8045 150.121 47.8929 153.307C41.6231 155.435 35.4648 157.841 29.4426 160.516C13.6991 168.495 -0.0201637 178.862 -7.04552 196.116C-13.3581 211.081 -13.1543 226.767 -6.29396 243.441C1.04491 259.954 12.2442 274.78 26.6111 287.003C45.7725 304.458 67.5724 317.454 90.3353 329.365C114.281 342.065 139.591 351.53 164.42 361.538C186.714 370.371 209.067 377.861 231.189 387.099C252.88 395.659 272.841 407.061 290.426 420.937C302.652 430.869 313.013 442.444 321.16 455.274C333.964 475.224 338.326 496.623 338.396 518.613C338.588 537.92 334.861 556.339 331.274 575.024C326.542 598.82 322.09 623.147 323.843 648.334C325.074 663.746 327.591 678.997 331.373 693.964C336.106 713.884 342.053 733.921 344.641 754.136C347.031 772.93 346.524 792.059 343.132 811.011C339.515 830.367 335.446 849.595 332.28 869.079C329.883 882.666 329.983 896.385 332.573 909.706C336.545 929.635 347.074 945.993 365.466 956.888C376.267 963.61 389.361 967.097 402.938 966.867C414.589 966.93 426.249 964.672 437.048 960.263C441.4 958.33 446.172 957.196 450.073 955.134C458.186 950.873 466.158 946.346 474.13 941.819C482.102 937.292 489.934 932.498 497.766 927.704C503.563 924.144 509.079 920.051 514.564 916.628C519.117 913.62 524.261 911.006 528.954 908.264C535.061 904.565 541.479 900.728 547.727 897.296C551.628 895.235 555.218 893.312 559.119 891.25C565.506 888.085 571.723 885.323 577.971 881.891C586.705 877.354 595.299 872.55 603.753 867.48C613.291 862.048 622.462 856.109 631.21 849.697C638.596 843.995 645.272 837.612 651.109 830.669C662.85 816.374 671.484 800.377 676.544 783.544C681.162 769.003 685.47 754.6 690.088 740.059C696.865 718.406 705.723 697.207 716.563 676.696C725.874 659.413 735.947 642.12 744.667 624.442C756.598 599.75 767.937 574.663 779.277 549.576C780.813 545.936 782.659 542.158 784.195 538.518M-287.523 -172.014C-278.433 -164.219 -269.033 -156.562 -259.943 -148.767C-237.343 -129.881 -215.396 -110.048 -196.959 -86.6834C-189.173 -76.9942 -181.869 -66.7619 -174.565 -56.5302C-168.413 -47.7588 -162.883 -38.7112 -157.042 -29.8017C-145.219 -11.7163 -133.397 6.36871 -118.125 22.2644C-101.53 39.216 -82.2659 51.0377 -59.9613 56.25C-46.1453 59.426 -31.4117 59.2376 -17.292 55.7039C-5.90302 52.5584 5.04935 48.1353 15.2865 42.5477C24.7898 37.3261 33.9496 31.611 42.7139 25.4348L64.8568 10.6691C70.202 6.98018 75.5474 3.29164 81.0328 -0.13093C83.0686 -1.36384 85.4151 -2.73497 87.4508 -3.96788C96.4824 -8.85545 105.838 -13.2306 115.458 -17.0652C130.054 -22.8769 145.895 -25.3875 161.479 -24.3591C179.845 -22.9851 197.437 -17.9808 212.008 -3.41705C217.734 2.15372 221.834 8.89166 223.984 16.2647C226.135 23.6377 226.278 31.444 224.402 39.0664C220.765 55.4724 211.947 68.5922 201.946 80.9228C192.382 92.5861 181.477 103.38 169.419 113.119C158.357 121.977 146.564 130.174 135.081 138.232C128.151 143.282 120.941 147.8 113.731 152.318C108.245 155.74 102.65 158.225 97.1641 161.648C90.1244 165.761 82.9142 170.278 76.0148 174.658C68.323 179.717 60.3202 184.915 52.9089 190.508C42.6938 198.021 35.0885 207.921 31.0609 218.947C27.0661 230.238 27.1664 242.158 31.3472 253.004C36.9149 267.951 47.2062 279.486 58.6006 290.201C74.5767 304.377 92.7154 316.542 112.552 326.386C132.909 336.699 153.942 346.008 175.561 354.275C198.305 363.237 221.391 371.389 243.964 380.755C265.713 389.491 285.671 401.123 303.17 415.263C317.857 427.851 330.093 442.489 339.434 458.648C344.575 468.644 348.439 479.16 350.96 490.012C355.073 511.382 355.26 533.378 351.513 555.175C348.92 572.104 346.185 588.767 343.902 605.558C340.765 630.065 342.173 654.641 348.071 678.317C353.146 697.428 358.221 716.538 362.674 735.925C366.977 753.356 368.824 771.298 368.175 789.358C367.022 807.647 364.465 825.913 360.522 844.032C357.079 859.144 355.619 874.462 356.171 889.679C356.634 897.871 358.64 905.865 362.106 913.338C366.253 922.398 373.576 929.943 383.06 934.927C395.716 941.031 410.883 942.332 425.236 938.544C436.294 935.498 446.966 931.309 457.023 926.068C464.855 921.868 472.435 917.295 479.726 912.369C485.834 908.67 492.081 905.237 498.048 901.272C504.015 897.307 510.293 893.204 516.711 889.367C521.404 886.625 526.408 883.745 531.101 881.003C538.141 876.89 544.869 872.915 552.049 869.069C555.018 867.422 557.675 865.913 560.644 864.266C571.444 857.825 582.384 851.651 593.185 845.21C604.305 838.499 614.445 830.569 623.342 821.626C637.787 806.508 648.731 789.12 655.506 770.526C664.097 748.961 671.646 726.873 680.968 705.969C689.127 687.226 698.92 669.4 708.402 651.712C722.679 625.649 737.238 600.12 749.15 572.478C757.138 554.139 765.127 535.8 773.426 517.323M-107.725 1326.44C-103.494 1327.19 -99.1237 1328.21 -94.8932 1328.96C-83.866 1330.97 -72.8388 1332.97 -61.9518 1334.71C-52.7816 1336.39 -43.0803 1335.42 -34.26 1331.94C-28.1226 1328.97 -22.6591 1324.98 -18.1939 1320.2C-10.0394 1311.65 -2.92738 1302.57 4.63577 1293.63C27.6086 1264.92 54.8778 1238.98 85.6455 1216.56C92.0939 1212.05 98.5423 1207.54 105.271 1203.57C114.036 1198.36 123.081 1193.69 131.986 1188.74C137.376 1185.48 143.118 1182.7 149.113 1180.48C159.03 1176.73 169.818 1173.91 179.876 1170.43C193.524 1166.14 207.539 1163 221.726 1161.05C230.479 1159.46 239.172 1159.21 248.065 1157.89C262.773 1155.96 277.311 1154.43 291.599 1151.7C300.974 1149.84 309.367 1146.11 313.742 1136.94C316.581 1130.88 316.774 1124.22 314.281 1118.29C310.786 1108.01 303.361 1100.46 296.246 1092.78C282.157 1077.67 267.415 1063.51 253.015 1048.54C239.358 1034.8 227.088 1020.02 216.33 1004.36C211.331 997.048 206.502 989.332 201.813 981.883C198.557 976.427 194.85 970.842 192.075 964.843C184.468 948.853 178.644 932.18 174.683 915.049C171.651 901.276 169.692 887.355 168.184 873.563C165.278 846.916 166.633 820.347 165.702 793.809C164.96 769.816 163.006 745.704 161.362 721.454C159.37 691.443 159.042 661.678 164.298 633.049C167.391 615.744 171.525 598.548 176.681 581.532C179.874 571.568 183.066 561.604 185.808 551.512C189.771 537.997 191.526 524.154 191.018 510.412C190.137 495.915 184.036 482.286 173.591 471.48C163.092 460.5 150.356 451.356 135.977 444.473C112.482 431.9 87.5923 423.235 63.3547 413.622C48.8401 407.908 33.9843 403.002 19.2992 397.693C3.26071 391.998 -12.9178 386.037 -29.2671 380.48C-68.2506 366.9 -106.662 350.764 -145.274 335.703C-167.433 326.613 -190.757 319.675 -214.852 315.005C-241.454 309.84 -269.069 308.562 -296.619 311.224C-307.694 312.098 -318.66 314.315 -329.205 317.81C-334.008 319.615 -339.232 320.62 -343.895 322.691C-364.069 331.738 -381.001 345.788 -392.476 363.005C-399.305 373.07 -404.75 383.768 -408.691 394.858C-413.189 407.761 -415.486 421.08 -415.505 434.37C-415.37 444.613 -413.196 454.66 -409.082 464.056C-401.38 482.328 -388.163 496.507 -374.012 510.272C-356.497 526.6 -337.981 542.074 -318.541 556.629C-307.957 565.075 -297.063 573.383 -286.34 582.096C-274.604 591.337 -264.288 601.878 -255.625 613.483C-246.054 626.928 -240.531 642.424 -239.543 658.601C-237.998 678.293 -240.372 697.096 -242.295 716.028C-244.912 740.199 -247.84 764.507 -251.219 788.688C-253.18 801.72 -256.043 814.495 -258.905 827.271C-264.819 853.299 -274.837 878.662 -288.664 902.61C-294.965 913.955 -302.448 924.51 -309.341 935.46C-309.883 936.676 -310.548 937.851 -311.327 938.971M-275.087 -177.537C-265.547 -169.613 -255.695 -161.828 -246.465 -153.766C-228.311 -138.897 -211.078 -123.185 -194.833 -106.69C-183.219 -94.0995 -172.397 -80.829 -162.197 -67.282C-148.851 -49.2161 -135.815 -31.0123 -121.817 -13.8934C-107.398 4.02467 -89.7794 18.5494 -68.0474 26.3168C-53.6654 31.679 -37.5743 33.1053 -21.7812 30.4178C-6.59135 27.9437 6.80567 21.3356 20.3429 14.994C27.5579 11.067 34.5173 6.76887 41.1819 2.12275C46.6673 -1.29982 52.6038 -4.59418 58.0892 -8.01675C63.5747 -11.4393 69.5416 -15.4045 75.0271 -18.827C77.4403 -20.4973 79.9512 -22.052 82.5481 -23.4829C92.931 -28.9677 103.631 -33.9399 114.596 -38.3752C133.593 -45.4333 154.177 -47.7417 173.991 -45.0358C195.643 -42.577 215.503 -34.1551 230.775 -20.9555C238.601 -14.4992 244.471 -6.41507 247.9 2.63254C251.33 11.6801 252.222 21.4329 250.503 31.0885C247.598 48.1556 239.201 62.0748 229.48 74.9382C218.999 89.2424 206.637 102.46 192.67 114.297C181.888 123.687 170.826 132.545 159.764 141.403C149.665 149.175 139.115 156.82 128.876 164.326C117.533 172.651 106.19 180.976 94.988 189.567C84.0095 197.68 74.8643 207.553 68.0871 218.608C61.2317 230.129 59.388 243.258 62.9181 255.416C66.0461 265.75 71.8112 275.207 79.7891 283.091C94.2238 297.955 111.456 310.508 130.803 320.252C158.156 335.055 186.624 345.418 215.062 356.452C239.75 365.516 263.5 376.285 286.1 388.664C307.48 400.516 325.812 416.038 340.078 434.369C361.341 462.542 371.637 496.368 369.511 531.076C368.319 550.669 365.604 570.281 363.199 589.755C359.43 615.436 360.214 641.26 365.522 666.294C368.945 681.536 373.891 696.76 378.386 711.855C381.259 722.412 384.753 732.692 387.315 743.386C390.635 757.485 392.684 771.851 393.442 786.352C393.806 804.707 392.87 823.125 390.641 841.501C389.003 852.556 388.807 863.672 390.055 874.629C391.855 885.334 396.142 894.934 407.639 900.016C414.474 903.264 422.568 904.116 430.376 902.407C441.477 900.592 452.086 896.554 461.37 890.612C465.415 888.16 469.637 885.955 474.005 884.014C481.185 880.167 487.774 875.926 494.954 872.08L503.859 867.138C511.039 863.292 518.67 859.573 525.709 855.46C532.267 851.89 538.234 847.925 544.793 844.354C550.418 841.198 556.495 838.171 561.981 834.748C569.191 830.231 576.572 825.309 583.502 820.259C597.63 809.722 609.733 797.231 619.289 783.327C627.376 770.89 634.28 757.926 639.928 744.577C650.957 719.629 661.706 694.148 675.271 670.374C687.361 648.898 700.182 628.083 711.821 606.479C724.283 583.524 734.519 559.255 744.896 535.254C750.356 522.311 756.718 509.625 762.317 496.949M-334.776 -151.024C-328.643 -145.202 -322.51 -139.381 -316.206 -133.963C-298.756 -118.603 -282.903 -101.894 -268.817 -84.0165C-263.136 -76.7612 -258.186 -69.0645 -254.019 -61.0077C-247.037 -47.0173 -241.439 -32.7409 -241.065 -17.459C-239.613 0.350522 -246.287 18.325 -259.624 32.5273C-270.476 43.1666 -282.446 52.8874 -295.357 61.5468C-317.141 76.7217 -335.785 95.1414 -350.361 115.889C-358.694 127.893 -365.217 140.739 -369.757 154.086C-371.637 160.177 -372.737 166.399 -373.033 172.632C-373.376 177.609 -372.309 182.514 -369.929 186.908C-367.549 191.302 -363.931 195.045 -359.399 197.802C-351.343 202.942 -342.385 206.941 -332.827 209.664C-311.805 215.428 -289.912 218.841 -267.645 219.825C-248.797 220.657 -230.199 220.284 -211.212 221.382C-191.462 222.47 -171.571 223.825 -152.095 230.951C-133.968 237.92 -117.207 247.187 -102.32 258.473C-85.933 269.929 -70.0276 281.928 -53.8113 293.789C-33.9352 308.04 -12.7168 320.816 9.64403 331.998C23.787 339.192 38.5518 346.11 53.036 352.495C71.4094 360.44 89.7828 368.384 108.497 375.52C129.608 383.563 150.578 391.34 171.719 398.713C193.376 406.118 214.117 415.279 233.685 426.08C248.93 434.453 262.166 445.279 272.751 458.03C281.516 468.846 287.636 481.214 290.751 494.407C294.394 510.842 294.396 527.908 290.759 544.692C288.488 557.862 284.723 570.382 281.689 583.562C276.178 604.488 272.972 625.726 272.118 646.976C271.94 661.48 273.121 675.906 275.648 690.11C278.888 709.378 282.89 728.636 285.679 747.775C288.563 768.261 288.335 789.139 285 809.87C281.603 831.1 277.754 852.202 274.807 873.561C272.05 892.83 273.395 912.188 278.772 930.634C280.87 937.639 283.459 944.502 286.523 951.185C290.256 960.21 295.578 968.599 302.303 976.058C308.144 982.97 314.625 989.434 321.684 995.388C332.316 1003.98 344.62 1010.85 358.078 1015.71C376.455 1022.73 396.932 1025.11 417.316 1022.59C426.535 1021.64 435.615 1019.49 444.258 1016.21C452.519 1013.25 460.605 1009.88 468.474 1006.11C478.451 1001.02 487.838 995.54 497.084 989.79C507.262 983.625 517.161 976.928 527.479 971.03C534.83 966.779 542.321 962.794 549.952 959.076C565.836 951.364 581.86 943.917 598.024 936.737C615.883 929.134 634.333 921.925 652.192 914.321C663.884 908.904 674.79 902.181 684.623 894.328C694.508 886.848 703.119 878.147 710.16 868.523C717.722 858.369 723.702 847.417 727.929 835.979C735.387 815.904 739.546 794.664 743.566 773.157C748.727 742.507 758.701 712.409 773.2 683.739C784.046 662.816 795.173 642.425 806.02 621.502C809.682 614.616 812.894 607.602 816.245 600.855M-321.715 -156.826C-304.017 -140.693 -286.459 -124.826 -269.242 -108.151C-257.903 -97.1088 -247.938 -85.0153 -239.502 -72.058C-232.679 -61.2838 -227.411 -49.8195 -221.832 -38.493C-217.389 -28.8932 -214.267 -18.8069 -212.531 -8.44053C-209.551 5.38191 -209.683 19.728 -212.92 33.8035C-216.207 47.0493 -224.688 59.089 -236.846 67.7676C-245.982 74.4552 -255.99 80.2152 -265.858 86.2416C-280.449 95.6809 -294.168 106.048 -304.571 120.529C-309.881 127.834 -313.179 136.064 -314.186 144.521C-315.756 159.023 -309.976 169.274 -296.315 177.011C-286.603 182.197 -275.535 185.269 -263.976 185.984C-244.878 188.019 -226.36 186.038 -207.531 183.92C-190.848 182.097 -174.615 180.146 -157.383 183.01C-142.8 185.744 -129.411 191.654 -118.411 200.211C-103.968 210.888 -92.5553 224.553 -80.4901 237.272C-67.553 250.918 -54.7865 264.968 -40.7158 277.125C-15.2887 298.976 13.3958 317.716 44.6378 332.888C56.5557 338.769 68.3333 344.385 80.7326 349.724C94.1744 355.586 107.616 361.448 121.539 366.767C139.352 373.646 157.506 379.717 175.489 386.191C203.195 396.564 231.212 406.799 256.639 423.771C269.352 432.048 280.362 442.138 289.25 453.659C300.524 468.534 307.373 485.794 309.209 503.957C310.511 520.41 309.348 537.06 305.749 553.482C301.418 575.126 296.466 597.047 292.587 618.82C289.589 638.71 289.915 658.721 293.554 678.211C296.794 697.479 300.796 716.737 304.798 735.996C309.671 760.694 309.857 786.15 305.346 811.349C301.979 831.909 297.71 852.212 294.482 873.038C291.901 890.035 292.725 907.137 296.917 923.56C305.645 956.167 325.435 979.916 356.939 993.861C372.053 1000.63 389.138 1003.7 406.492 1002.75C415.302 1002.57 424.091 1001.01 432.44 998.124C441.505 995.3 450.362 991.915 458.942 987.996C467.209 983.936 475.24 979.491 482.999 974.681C489.728 970.706 496.597 966.997 503.015 963.16C509.433 959.324 515.26 955.092 521.678 951.256C526.542 948.109 531.686 945.495 536.69 942.615C566.994 925.868 599.683 913.649 631.28 898.629C648.93 890.542 664.984 879.85 678.704 867.045C693.243 852.256 703.926 834.921 709.936 816.36C715.5 798.925 719.909 781.271 723.142 763.492C728.689 735.815 738.104 708.668 751.169 682.678C761.333 663.372 771.497 644.066 781.521 624.494C789.218 609.243 796.182 593.331 803.427 577.952C803.598 577.547 804.079 577.005 804.25 576.6M-129.746 1284.62C-127.067 1284.77 -124.373 1284.78 -121.676 1284.65C-112.051 1283.99 -102.115 1283.2 -92.7704 1282C-80.5261 1280.71 -68.3378 1278.81 -56.2651 1276.31C-48.3185 1274.41 -40.6204 1271.65 -33.3527 1268.1C-22.2443 1262.06 -11.4759 1255.52 -1.0923 1248.51C14.1511 1238.13 29.1138 1227.21 44.2169 1216.56C55.6997 1208.5 67.3532 1200.03 78.836 1191.98C84.1812 1188.29 90.1175 1184.99 95.603 1181.57C103.124 1176.91 110.335 1172.4 117.996 1168.01C121.275 1166.22 124.414 1164.17 127.523 1162.79C143.858 1155.21 160.503 1147.48 176.838 1139.9C183.988 1136.72 192.009 1134.48 198.878 1130.77C207.613 1126.23 216.176 1122.1 223.197 1115.03C232.625 1105.26 234.665 1093.83 228.726 1080.37C225.141 1072.1 221.244 1063.97 216.726 1056.12C212.208 1048.26 206.446 1040.96 201.617 1033.25C197.77 1027.39 194.545 1021.27 190.386 1015.55C180.91 1001.07 172.486 986.045 165.161 970.554C160.208 960.439 155.899 950.064 152.252 939.476C146.526 922.987 142.353 906.044 139.772 888.814C137.173 872.22 135.195 855.349 133.046 838.883C130.849 820.138 129.102 801.521 127.045 783.043C125.458 767.642 123.87 752.242 121.972 736.979C118.198 703.416 120.67 669.24 129.294 635.779C132.066 625.016 134.697 613.986 137.92 603.352C142.569 588.14 148.119 573.184 152.457 558.11C156.842 544.601 158.708 530.669 157.979 516.872C157.613 508.388 155.125 500.181 150.691 492.829C146.318 486.155 141.023 480.01 134.918 474.526C121.853 463.291 106.753 454.028 90.1658 447.073C76.5838 440.945 62.8618 434.55 49.0788 429.497C29.4619 422.105 9.81464 415.383 -9.83257 408.662C-23.0242 404.004 -36.0758 399.611 -49.1272 395.219C-68.7744 388.498 -88.4215 381.776 -108.209 374.789C-115.116 372.597 -121.681 369.597 -128.588 367.406C-157.958 356.787 -186.877 346.295 -217.112 341.319C-242.495 336.816 -268.03 335.668 -292.454 340.272C-300.445 341.849 -308.326 344.364 -316.037 346.474C-328.293 350.339 -339.389 356.852 -348.267 365.391C-356.529 373.259 -362.913 382.478 -367.006 392.451C-371.879 403.615 -374.024 415.44 -373.297 427.127C-372.324 442.071 -367.166 456.373 -358.277 468.772C-345.444 487.549 -328.751 503.958 -308.993 517.219C-285.79 532.879 -261.936 547.592 -238.392 562.444C-226.45 569.694 -215.637 578.246 -206.191 587.912C-200.757 593.68 -196.041 599.955 -192.113 606.638C-185.06 619.045 -182.165 633.118 -183.749 647.296C-185.444 660.662 -188.906 673.893 -194.062 686.718C-202.542 709.094 -209.67 731.79 -215.416 754.708C-220.447 775.021 -223.846 796.251 -228.426 816.692C-234.292 841.977 -241.2 866.738 -252.138 889.674C-259.17 904.78 -267.472 919.456 -276.97 933.573C-283.662 943.447 -290.944 952.927 -297.635 962.802C-298.203 963.846 -298.66 964.929 -299 966.038M-262.684 -182.379C-261.501 -181.59 -260.148 -181.205 -258.965 -180.415C-246.017 -170.39 -233.068 -160.365 -220.601 -149.797C-201.689 -133.545 -182.778 -117.294 -166.756 -97.787C-152.897 -80.9345 -139.21 -63.6779 -125.352 -46.8254C-112.646 -31.4332 -99.0078 -16.4548 -81.8287 -5.67907C-61.6928 7.07023 -41.1622 11.0984 -19.8465 7.87542C-4.51642 5.66775 8.8804 -0.940665 22.4177 -7.2823C30.9715 -11.8012 39.2762 -16.6963 47.2976 -21.9485C54.8188 -26.604 61.7485 -31.6546 69.2697 -36.3101C75.066 -39.8707 81.143 -42.8982 86.7687 -46.0544C93.7781 -49.4964 100.507 -53.4714 107.486 -56.2427C124.035 -62.9568 141.886 -66.3931 159.723 -66.298C182.691 -66.0025 204.956 -60.9108 224.693 -51.4407C239.625 -44.8797 252.644 -35.5425 262.898 -24.0384C269.073 -17.1322 273.434 -9.06855 275.692 -0.381893C277.951 8.30476 278.056 17.4156 276 26.3469C272.993 40.5057 266.89 54.1595 258.037 66.537C246.945 83.0262 233.614 98.3341 218.356 112.1C199.932 128.83 181.367 145.293 162.071 161.095C145.292 175.122 127.782 188.487 112.607 204.102C103.761 212.573 97.2445 222.682 93.6055 233.578C90.5373 243.429 90.8681 253.705 94.5551 263.066C100.995 278.941 112.81 290.456 126.069 300.343C140.421 311.124 156.392 320.158 173.589 327.224C187.933 333.342 201.966 339.599 216.31 345.718C225.271 349.626 234.744 352.321 243.705 356.229C265.517 365.604 287.469 375.246 307.574 388.666C325.951 400.479 341.859 414.949 354.676 431.51C361.498 440.21 367.299 449.521 371.998 459.313C380.017 476.295 384.9 494.42 386.472 513.034C388.597 536.741 385.9 559.304 383.935 582.527C382.706 596.221 382.55 609.766 382.083 623.449C382.182 640.195 384.709 656.744 389.601 672.7C393.145 685.259 397.621 697.405 401.786 709.688C409.977 733.988 418.167 758.288 423.59 783.16C426.262 794.792 429.385 806.553 432.508 818.313C437.363 835.549 448.568 843.719 465.361 842.834C474.039 842.114 482.608 840.194 490.748 837.145C498.191 834.864 505.486 832.173 512.587 829.087C524.259 823.574 535.2 817.401 546.592 811.355C557.162 805.753 566.856 798.902 575.384 791.006C586.656 781.199 596.297 770.048 603.991 757.921C618.708 735.607 629.286 710.53 642.68 687.16C656.074 663.79 669.749 640.953 683.283 617.85C697.105 594.441 709.283 570.369 719.748 545.777C729.472 522.722 738.435 499.678 749.934 477.808C750.105 477.403 750.586 476.86 750.757 476.456M-149.797 1246.53C-149.54 1246.86 -149.249 1247.17 -148.925 1247.45C-132.12 1242.95 -114.986 1241.25 -97.9613 1238.62C-84.1552 1236.43 -70.6598 1234.38 -57.2744 1231.4C-48.9917 1229.37 -40.8756 1226.75 -33.0089 1223.58C-27.4124 1221.91 -21.9669 1219.82 -16.735 1217.33C-8.00073 1212.8 0.282613 1208.13 8.8766 1203.33C13.8806 1200.45 19.0249 1197.84 23.8886 1194.69C29.3741 1191.27 34.8594 1187.84 40.2046 1184.15C46.7932 1179.91 53.3819 1175.67 59.8302 1171.16C64.3832 1168.16 68.7958 1164.88 73.3487 1161.87C79.9374 1157.63 86.5259 1153.39 92.9743 1148.88C100.666 1143.82 108.218 1138.5 116.08 1133.03C123.943 1127.57 131.775 1122.77 139.186 1117.18C148.804 1109.95 157.83 1102.33 163.96 1091.39C169.873 1079.58 170.896 1066.54 166.843 1054.61C164.227 1045.26 160.61 1036.19 156.038 1027.52C150.708 1017.4 145.55 1006.87 140.531 996.614C135.513 986.353 130.665 975.687 126.58 965.012C117.529 942.55 110.481 919.42 105.496 895.822C101.103 875.093 97.3328 854.089 92.4894 833.232C87.9265 812.908 82.2909 792.732 77.4171 772.546C73.6046 755.834 69.6215 739.525 67.022 722.931C64.7593 706.803 65.4023 690.325 68.9279 674.096C73.5995 651.642 82.8919 631.409 91.2822 610.92C97.1133 596.497 102.493 581.946 108.324 567.524C113.512 554.447 116.189 540.81 116.242 527.194C116.185 515.471 112.368 504.181 105.228 494.616C96.3507 482.125 84.3836 473.964 72.0754 466.613C53.5338 455.485 33.515 446.295 12.3952 439.217C-12.9457 430.423 -38.9388 422.576 -64.31 414.453C-87.7366 407.109 -110.712 399.894 -133.998 392.817C-155.231 385.869 -176.923 379.925 -198.986 375.01C-216.283 371.134 -234.285 369.602 -252.391 370.464C-265.287 371.165 -277.99 374.447 -289.529 380.059C-305.474 389.113 -316.267 402.124 -314.782 423.158C-314.148 430.162 -312.246 436.972 -309.147 443.333C-302.474 455.995 -293.125 467.333 -281.571 476.772C-264.574 491.573 -245.389 501.787 -226.546 512.809C-211.702 521.335 -196.858 529.862 -182.525 539.601C-166.67 550.302 -152.828 563.092 -141.447 577.56C-131.512 589.856 -124.829 604.041 -121.855 619.146C-119.372 632.927 -120.803 647.218 -126.023 660.769C-132.231 674.913 -139.938 688.573 -149.04 701.56C-161.319 720.491 -173.148 739.549 -180.386 761.499C-186.369 779.276 -191.76 797.448 -197.152 815.62C-200.746 827.734 -203.609 840.509 -207.203 852.624C-214.085 876.657 -224.352 899.992 -237.761 922.073C-246.299 935.726 -255.288 949.251 -264.417 962.509C-270.596 971.17 -277.507 979.17 -283.827 987.564C-284.395 988.608 -284.852 989.692 -285.192 990.8M-245.248 -190.793C-232.3 -180.768 -219.351 -170.742 -206.262 -160.451C-186.845 -145.769 -168.882 -129.676 -152.546 -112.328C-141.072 -100.004 -130.39 -86.9996 -119.538 -74.3996C-106.802 -59.6783 -93.7546 -45.095 -77.1971 -34.0431C-61.8223 -23.7806 -45.3027 -18.6287 -28.0583 -19.3859C-15.9707 -20.0497 -4.04588 -22.9919 6.90465 -28.013C18.6738 -33.2885 29.917 -39.4932 40.4882 -46.5459C50.3863 -53.2432 60.2846 -59.9403 70.4632 -66.1048C78.743 -71.1472 87.2916 -75.8221 96.0745 -80.1104C102.591 -83.498 109.343 -86.4968 116.28 -89.0852C127.981 -92.9242 140.228 -95.0303 152.505 -95.315C174.079 -95.1077 195.222 -91.472 214.919 -84.5822C236.754 -77.6053 257.271 -68.0364 275.923 -56.1303C286.895 -49.2376 296.254 -40.5904 303.552 -30.604C311.175 -19.6297 314.53 -6.62755 313.141 6.55096C311.278 24.1411 303.442 39.126 294.874 53.4496C285.006 69.3334 273.192 84.2839 259.655 98.0176C240.457 118.377 219.656 137.149 198.715 155.654C185.386 167.49 172.197 179.593 159.599 192.091C149.141 201.739 140.417 212.716 133.759 224.605C128.218 234.295 126.133 245.094 127.791 255.522C128.92 262.069 131.426 268.31 135.182 273.933C147.345 291.21 163.903 302.262 181.905 311.686C194.103 318.1 206.953 323.567 219.493 329.173C230.99 334.255 242.658 338.934 254.015 343.75C276.899 353.126 298.761 364.193 319.377 376.838C339.689 389.626 357.385 405.286 371.801 423.234C376.27 428.809 380.117 434.66 383.964 440.511C387.243 445.163 390.077 450.059 392.439 455.152C400.997 472.64 406.766 491.195 409.59 510.314C413.239 534.002 411.895 556.949 411.143 580.291C410.482 601.62 410.583 622.94 415.537 644.733C417.884 655.691 421.112 666.449 425.198 676.927C428.643 684.928 431.918 693.334 435.363 701.336C441.193 713.866 447.333 726.258 454.095 738.374C459.629 748.891 467.541 758.223 477.372 765.833C482.667 769.808 489.022 772.574 495.922 773.907C502.822 775.24 510.071 775.103 517.08 773.505C525.601 771.899 533.765 768.831 541.095 764.481C548.518 759.994 555.479 754.921 561.885 749.331C571.932 740.556 580.675 730.703 587.884 720.033C595.367 709.478 602.12 698.262 609.323 687.174C619.817 670.68 630.17 653.92 640.804 637.693C660.738 607.803 679.94 577.252 694.101 543.681C702.772 523.724 710.851 503.373 719.662 483.682C724.92 471.815 731.222 460.47 737.382 448.859M-312.083 -161.106C-298.043 -148.279 -283.832 -135.856 -269.792 -123.028C-255.071 -109.491 -241.626 -94.9137 -229.578 -79.4264C-219.471 -66.4238 -210.968 -52.4682 -204.201 -37.7796C-199.774 -27.9134 -196.109 -18.0375 -192.304 -7.89507C-183.101 17.599 -178.952 43.6944 -171.895 69.4841C-168.016 85.6002 -157.978 99.7901 -143.41 109.749C-130.851 118.305 -118.153 127.127 -105.454 135.948C-91.2632 145.946 -80.4731 159.161 -74.1409 174.3C-69.1833 185.903 -66.0906 198.334 -61.133 209.937C-56.3356 220.507 -50.9055 230.821 -44.8647 240.839C-38.1274 251.86 -30.0143 262.141 -20.6664 271.504C-11.9821 280.707 -2.37969 289.197 8.03604 296.883C26.4713 310.475 46.3083 322.56 67.3216 333C75.6611 337.184 84.0003 341.368 92.5104 345.148C104.459 350.359 116.547 355.836 128.837 360.238C148.453 367.63 168.552 374.48 188.169 381.872C213.308 391.741 238.93 401.068 262.614 416.185C278.092 425.611 291.287 437.582 301.528 451.49C312.785 466.945 319.745 484.65 321.877 503.258C323.213 521.188 321.931 539.319 318.064 557.212C314.337 575.631 310.158 593.921 307.193 612.33C303.896 632.285 304.012 652.4 307.538 671.997C311.308 693.002 316.603 713.987 320.684 734.854C325.946 760.494 326.137 786.975 321.252 813.157C317.805 832.108 313.596 851.07 310.601 870.149C307.472 887.302 308.135 904.644 312.553 921.214C321.793 952.607 341.535 974.078 373.081 983.731C389.995 988.959 408.663 989.19 426.356 984.39C437.454 981.803 448.184 977.921 458.253 972.852C467.298 968.177 475.922 962.703 484.687 957.495C492.83 952.563 500.802 948.036 508.945 943.105C515.363 939.268 521.811 934.76 528.229 930.923C534.192 927.276 540.344 923.885 546.66 920.764C563.166 912.775 579.361 904.925 595.866 896.936C603.497 893.218 610.958 889.904 618.449 885.92C626.421 881.392 634.253 876.599 642.396 871.667C651.516 866.077 659.764 859.426 666.897 851.91C679.408 838.859 688.716 823.738 694.185 807.577C698.231 795.591 701.996 783.072 705.139 770.83C708.192 760.599 709.891 749.985 712.943 739.754C719.687 716.396 728.985 693.551 740.703 671.548C756.315 642.92 771.616 614.43 785.003 584.49C788.726 576.262 792.62 567.631 796.203 559.137M880.09 709.592C870.049 724.172 862.127 739.734 856.52 755.888C851.428 770.803 847.485 785.952 844.721 801.229C841.309 820.672 836.621 839.984 830.68 859.069C824.168 878.19 815.098 896.676 803.667 914.125C793.742 929.18 782.019 943.315 768.71 956.275C758.939 965.997 747.962 974.734 736.005 982.306L735.98 982.321C727.845 987.248 719.711 992.174 711.436 996.835C705.5 1000.13 698.972 1003.03 692.584 1006.19C676.871 1013.5 660.706 1020.68 645.134 1028.26C637.813 1031.84 631.054 1036.48 623.563 1040.47C614.714 1045.55 606.729 1051.76 599.885 1058.87C587.599 1071.23 580.945 1087.01 581.307 1105.91C582.046 1117.43 584.398 1128.75 588.311 1139.61C594.538 1160.18 600.003 1180.76 599.964 1201.82C600.161 1219.09 596.051 1236.4 587.921 1252.52C581.964 1264.03 574.993 1275.15 567.074 1285.78C558.176 1297.29 548.827 1308.67 539.619 1320.32L514.37 1353.23C509.528 1360.66 503.064 1367.22 495.373 1372.52C491.565 1374.57 487.248 1375.69 482.89 1375.76C472.97 1376.42 463.046 1376.55 453.174 1376.14C433.845 1375.14 414.305 1376.52 395.114 1380.24C384.356 1382.39 373.287 1384.67 362.809 1387.35C353.093 1390.03 343.658 1393.23 334.082 1396.17C322.501 1399.67 311.23 1403.03 299.79 1406.8C293.152 1408.76 286.624 1411.66 279.676 1413.76C272.113 1416.14 264.41 1418.24 256.707 1420.35L256.684 1420.36C250.668 1422.05 245.103 1423.86 238.947 1425.28C229.463 1428.1 219.849 1430.51 210.14 1432.49C195.402 1435.09 180.693 1437.02 165.704 1438.42C137.667 1440.55 109.732 1437.76 83.5284 1430.22C68.3314 1426.12 53.1644 1421.36 37.9674 1417.26C29.1004 1414.25 -8.13283 1387.55 -41.3003 1377.38C-97.1372 1360.25 -189.788 1375.96 -189.788 1375.96M-171.934 1203.77C-169.736 1203.7 -167.538 1203.49 -165.357 1203.15C-141.744 1196.27 -116.85 1194.75 -92.4863 1191.49C-79.4724 1189.98 -66.288 1188.07 -53.384 1185.62C-44.0417 1183.45 -34.8559 1180.69 -25.9005 1177.36C-18.7408 1175 -11.7454 1172.22 -4.96325 1169.04C3.28952 1165.05 11.1215 1160.26 19.0937 1155.73C35.4841 1146.13 50.7427 1135.05 64.6041 1122.7C76.9703 1111.94 88.9156 1100.39 96.8922 1085.68C104.356 1071.49 106.715 1055.85 103.639 1040.94C101.054 1028.69 97.4233 1016.68 92.7768 1005C85.8673 986.051 78.9578 967.098 73.2918 947.593C67.2354 926.617 63.0138 905.485 57.5791 884.234C53.1954 863.98 47.4359 844.039 40.3309 824.514C36.6354 815.309 33.391 806.232 29.3847 797.165C25.6589 788.631 22.1035 779.692 17.4451 771.572C11.0181 759.489 3.82082 747.764 -4.1145 736.447C-10.0048 727.573 -17.6341 719.734 -26.6722 713.269C-30.8897 710.451 -35.7987 708.5 -41.0647 707.549C-46.3307 706.598 -51.83 706.67 -57.1876 707.76C-67.6352 709.771 -76.3998 714.979 -85.4752 720.325C-98.8437 728.603 -110.8 738.57 -120.928 749.877C-133.22 763.581 -142.783 778.956 -149.18 795.295C-154.84 809.313 -159.318 824.12 -164.247 838.8C-171.857 862.229 -178.875 886.054 -189.471 908.181C-196.609 923.208 -205.112 937.758 -214.895 951.685C-222.519 961.973 -229.551 972.657 -237.316 982.679C-246.384 994.595 -255.903 1006.38 -265.282 1018.44C-266.23 1019.89 -266.965 1021.43 -267.47 1023.02M-195.942 1158.89C-195.491 1159.02 -195.07 1159.82 -194.759 1159.68C-181.404 1157.37 -168.189 1154.78 -154.864 1153.14C-133.128 1150.71 -111.452 1149.63 -89.5753 1147.48C-76.3452 1146.27 -63.1759 1144.26 -50.1621 1141.47C-38.2935 1138.66 -26.8943 1134.26 -16.3705 1128.43C-5.48676 1122.55 4.39625 1115.28 12.9336 1106.87C23.0526 1097.2 30.5207 1085.65 34.7138 1073.2C38.4181 1061.63 39.1702 1049.62 36.9146 1038.04C34.4742 1024.67 31.4117 1011.56 28.0387 998.6C23.0248 978.148 19.0838 957.548 16.3557 937.067C12.9871 913.912 10.2401 890.48 4.13452 867.226C1.07596 856.424 -2.82161 845.856 -7.53158 835.595C-12.2157 825.467 -18.165 815.876 -25.2746 806.992C-32.9201 797.569 -42.1804 790.178 -53.9089 786.842C-61.5137 784.516 -69.9755 784.768 -77.7 787.549C-94.1144 793.525 -104.566 805.728 -112.994 820.318C-119.962 832.946 -125.507 846.089 -129.543 859.551C-138.828 886.354 -148.114 913.158 -161.709 937.603C-171.351 954.293 -182.363 970.391 -194.654 985.762C-208.878 1003.91 -223.102 1022.06 -237.046 1040.75C-241.409 1046.3 -244.59 1052.64 -248.362 1058.59M885.469 730.156C874.873 749.051 867.447 769.075 863.437 789.574C859.198 809.206 854.959 828.837 849.506 848.351C843.446 868.957 834.349 888.913 822.452 907.699C813.225 922.815 802.636 937.303 790.792 951.014C778.521 965.447 764.261 978.52 748.367 989.908C738.469 996.606 727.98 1002.91 717.801 1009.07C711.072 1013.05 704.063 1016.49 697.194 1020.2C687.667 1025.42 677.69 1030.5 668.303 1035.99C655.88 1042.61 644.53 1050.76 634.617 1060.15C620.264 1074.42 613.349 1092.61 614.803 1114.31C615.939 1129.59 617.838 1144.85 619.425 1160.25C622.3 1180.52 621.825 1201.21 618.015 1221.68C613.73 1240.96 606.631 1259.81 596.897 1277.74C588.859 1293.8 579.92 1309.6 575.15 1327.49C571.193 1341.48 571.645 1355.95 576.455 1369.31C579.222 1376.39 582.792 1383.17 587.114 1389.56C591.662 1396.74 596.832 1403.65 602.002 1410.56M906.305 771.195C903.795 779.541 901.285 787.887 899.677 796.489C895.84 813.971 893.356 831.837 888.927 848.924C884.237 868.427 874.475 885.582 864.292 901.938C856.266 914.378 847.789 926.689 839.032 938.467C825.451 957.69 809.785 975.77 792.269 992.435C783.047 1001.38 772.716 1009.38 761.49 1016.3C751.622 1022.32 742.066 1028.21 732.058 1033.97C724.707 1038.22 717.527 1042.07 710.317 1046.59C696.883 1053.99 684.545 1062.9 673.632 1073.07C659.59 1087.19 651.632 1104.86 650.38 1125.8C649.833 1137.87 649.878 1150.34 649.782 1162.55C649.762 1186.55 649.15 1210.16 643.406 1232.76C639.183 1248.83 633.681 1264.67 626.943 1280.17C621.795 1292.98 616.646 1305.78 612.851 1318.97C607.879 1335.52 607.679 1352.68 612.268 1368.86C615.456 1379.81 619.982 1390.36 625.768 1400.33M-460.638 -109.609C-457.482 -81.7584 -457.063 -54.0061 -462.539 -27.2514C-465.811 -12.7378 -470.021 1.6429 -475.149 15.8198C-480.419 31.3081 -487.183 46.1452 -489.917 62.8078C-492.437 75.1562 -490.778 87.6866 -485.151 98.8183C-480.362 108.026 -472.269 115.486 -462.051 120.111C-454.346 124.115 -445.071 125.382 -436.016 123.667C-427.143 121.772 -419.072 117.378 -413.062 111.171C-403.353 101.928 -393.925 92.1521 -384.808 82.5147C-370.626 67.3369 -355.162 53.1049 -338.561 39.9513C-324.19 28.6375 -309.257 18.3896 -296.629 5.22077C-287.072 -3.93405 -280.49 -15.131 -277.632 -27.0934C-274.775 -39.0557 -275.758 -51.3023 -280.469 -62.4357C-282.492 -67.9749 -284.839 -73.4047 -287.5 -78.7049C-293.94 -91.385 -302.433 -103.104 -312.729 -113.514C-326.258 -127.555 -340.749 -140.511 -354.759 -154.009C-355.35 -154.404 -356.253 -154.661 -356.844 -155.055M-231.88 -210.56C-227.29 -207.668 -222.839 -205.043 -218.42 -201.748C-200.88 -188.831 -183.03 -176.052 -165.832 -162.327C-150.657 -149.675 -136.566 -136.054 -123.662 -121.565C-111.316 -108.314 -99.2818 -94.9252 -85.8025 -83.1635C-72.3232 -71.4017 -56.5465 -63.2899 -39.0521 -62.8434C-30.7653 -62.2653 -22.3325 -63.525 -14.5177 -66.5093C-9.47961 -68.0364 -4.59659 -69.9853 0.0619575 -72.3281C8.74253 -77.1872 17.0746 -82.5352 25.0024 -88.3364C42.8938 -101.891 59.0671 -117.126 73.2049 -133.741C78.6931 -139.62 83.2893 -146.085 86.868 -152.957C91.0421 -161.056 90.1632 -168.554 80.7018 -174.87C70.0577 -181.975 59.243 -188.675 48.5686 -195.109C32.7613 -203.991 18.5426 -214.819 6.31469 -227.287C-0.814154 -234.495 -6.55759 -242.7 -10.7082 -251.608C-15.904 -262.543 -19.0754 -274.221 -20.1072 -286.218C-20.285 -292.384 -20.4629 -298.55 -20.4701 -305.121M-446.028 -116.098C-445.055 -93.851 -443.631 -71.4755 -442.969 -49.0903C-442.819 -32.63 -444.127 -16.1147 -446.88 0.306295C-448.719 10.6551 -450.558 21.0037 -452.087 31.2144C-453.796 39.3216 -453.755 47.5576 -451.967 55.4842C-449.624 64.3044 -444.394 69.8691 -432.964 69.7228C-425.978 69.1018 -419.244 66.6827 -413.612 62.7703C-402.02 55.6491 -391.299 47.6003 -380.127 39.6798C-373.368 35.0341 -366.438 29.984 -359.819 25.0719C-349.268 17.4275 -338.578 10.0495 -328.619 2.01043C-316.835 -6.9255 -307.888 -18.4027 -302.749 -31.174C-298.414 -43.0427 -298.324 -55.6054 -302.493 -67.1142C-308.195 -82.8182 -317.135 -97.3315 -328.882 -109.955C-340.915 -123.361 -354.26 -135.795 -368.777 -147.124C-369.647 -147.743 -370.665 -148.187 -371.765 -148.427M-212.292 -219.252C-210.883 -218.754 -209.534 -218.142 -208.262 -217.426C-188.437 -204.539 -168.472 -191.385 -148.647 -178.498C-133.061 -167.636 -118.627 -155.574 -105.503 -142.443C-96.1628 -133.444 -86.6825 -124.178 -76.7209 -115.456C-66.7592 -106.733 -55.0121 -100.447 -41.9795 -99.0049C-36.9795 -98.2987 -31.8099 -98.5275 -26.8014 -99.6769C-21.7929 -100.826 -17.0558 -102.871 -12.8926 -105.68C-5.54243 -110.134 0.413605 -116.186 4.34902 -123.199C7.05728 -127.89 8.65727 -132.973 9.04781 -138.126C9.43834 -143.278 8.61113 -148.387 6.61795 -153.13C3.51384 -161.941 -2.72915 -168.7 -8.49069 -176.001C-15.4045 -184.763 -23.111 -192.844 -30.0249 -201.606C-36.5556 -210.121 -41.9135 -219.321 -45.9937 -229.025C-52.2173 -245.095 -55.8104 -261.974 -56.6693 -279.173C-56.8283 -282.389 -56.2254 -285.615 -56.2442 -288.565M101.729 36.998C97.1455 40.6772 92.562 44.3561 88.4298 48.1636C83.6518 52.1771 80.1999 57.245 78.4783 62.7734C77.5331 65.7784 77.34 68.8936 77.9129 71.8988C78.5659 73.7798 79.8318 75.4258 81.5593 76.6402C83.2868 77.8546 85.4032 78.5864 87.655 78.7474C91.4443 79.2837 95.3739 79.0029 99.1142 77.9297C113.53 74.1137 125.96 65.5222 133.703 54.0209C136.536 50.024 137.868 45.396 137.498 40.8311C137.11 38.6378 136.044 36.6118 134.413 34.9706C132.413 33.0165 129.8 31.6237 126.87 30.9504C123.94 30.277 120.81 30.3494 117.832 31.1597C112.578 32.836 107.294 35.1832 102.18 37.1259M-405.575 -121.574C-412.566 -115.182 -413.753 -105.78 -414.489 -96.2502C-415.704 -79.5882 -414.199 -62.9887 -410.019 -46.9606C-408.685 -40.1538 -405.819 -33.7197 -401.585 -28.0275C-398.822 -24.1602 -394.699 -21.2211 -389.798 -19.6239C-384.897 -18.0266 -379.466 -17.8522 -374.27 -19.125C-362.083 -22.5505 -351.671 -30.0108 -345.307 -39.8779C-341.525 -45.3768 -339.227 -51.5141 -338.599 -57.7904C-337.97 -64.0666 -339.03 -70.3044 -341.692 -75.9954C-345.519 -86.3258 -351.695 -95.7676 -359.858 -103.768C-368.022 -111.768 -378.008 -118.167 -389.233 -122.588C-391.593 -123.73 -394.309 -124.241 -397.066 -124.063C-399.823 -123.886 -402.509 -123.026 -404.813 -121.584M137.386 1231.06C134.869 1232.84 132.041 1234.75 129.524 1236.53C122.594 1241.58 114.792 1245.7 108.423 1251.82C100.27 1259.4 92.7272 1267.48 85.8553 1275.97C77.2659 1286.92 71.5926 1299.34 69.2871 1312.26C66.4666 1326.24 68.9315 1340.39 76.298 1352.53C82.1968 1362.37 90.678 1370.75 101.08 1377.02C117.647 1386.8 137.221 1392.22 157.638 1392.65C174.953 1393.15 192.398 1391.06 209.242 1386.5C219.269 1383.69 229.015 1380.34 238.762 1377C243.578 1375.53 248.289 1373.76 252.86 1371.72C261.905 1367.05 270.81 1362.11 279.714 1357.17C292.758 1349.67 304.483 1340.47 314.455 1329.9C324.984 1318.96 332.011 1305.83 334.753 1291.96C336.119 1284.87 335.79 1277.69 333.79 1270.88C331.79 1264.06 328.162 1257.78 323.14 1252.42C313.989 1242.42 302.621 1234.19 289.666 1228.17C270.043 1218.22 247.857 1212.45 224.787 1211.3C209.666 1210.44 194.345 1211.9 179.51 1215.64C164.43 1219.05 151.344 1225.52 137.667 1231.6M-162.536 447.899C-169.758 456.037 -167.154 462.44 -161.112 470.275C-150.321 484.216 -137.152 496.116 -124.776 508.696C-112.4 521.277 -100.926 533.601 -88.8607 546.319C-74.6311 561.692 -61.0231 577.341 -46.1717 592.437C-36.8622 602.107 -25.5965 608.936 -12.3629 609.303C-4.31111 609.567 3.72672 607.169 10.1776 602.577C14.9771 599.526 19.466 596.101 23.5861 592.349C35.5094 581.657 44.6342 568.834 50.2602 554.863C53.6629 546.653 55.2436 538.024 54.9132 529.46C54.1255 516.334 48.1024 504.12 37.8947 494.947C27.7837 485.816 15.9258 478.31 2.80476 472.735C-28.6996 458.79 -61.1292 451.831 -93.9608 447.021C-111.01 444.158 -128.518 443.211 -146.073 444.202C-151.491 444.394 -156.857 445.654 -161.774 447.889M154.753 1250.95C151.304 1253.14 148.164 1255.19 144.715 1257.38C136.27 1262.49 128.821 1268.8 122.701 1276.03C114.774 1284.93 109.292 1295.25 106.717 1306.14C104.26 1316.51 105.427 1327.11 110.063 1336.54C114.493 1345.33 121.703 1352.71 130.876 1357.86C144.709 1365.53 161.178 1369.02 177.942 1367.85C189.915 1367.39 201.82 1365.11 213.125 1361.1C221.596 1358.05 229.888 1354.58 237.962 1350.72C251.486 1344.01 263.106 1334.56 271.801 1323.2C280.669 1312.31 284.548 1299.04 282.614 1286.19C281.01 1276.22 275.822 1267.14 267.797 1260.23C252.287 1246.34 230.887 1238.63 208.155 1238.74C197.066 1238.52 185.914 1240.02 175.209 1243.18C168.26 1245.28 161.873 1248.45 154.753 1250.95ZM164.35 1274.3C161.322 1276.43 158.422 1278.71 155.665 1281.11C147.137 1287.95 141.619 1297.19 140.174 1307.06C139.189 1313.23 140.299 1319.43 143.361 1324.85C146.423 1330.28 151.3 1334.7 157.375 1337.54C168.298 1342.9 181.366 1344.27 193.906 1341.37C200.54 1340.26 206.997 1338.28 213.057 1335.49C224.9 1329.57 235.45 1321.93 241.221 1308.85C243.132 1304.78 244.046 1300.45 243.899 1296.15C243.752 1291.85 242.548 1287.67 240.369 1283.92C237.493 1278.65 232.939 1274.3 227.231 1271.34C212.186 1263.89 196.868 1262.48 182.178 1267.36C176.302 1269.31 170.396 1271.94 164.35 1274.3Z" stroke="#DFE4E8" stroke-miterlimit="10"/>
</g>
<defs>
<clipPath id="clip0_409_5457">
<rect width="2771" height="1987" fill="white" transform="translate(-1329)"/>
</clipPath>
</defs>
</svg>
