<svg width="532" height="412" viewBox="0 0 532 412" fill="none" xmlns="http://www.w3.org/2000/svg">
<mask id="mask0_1281_6890" style="mask-type:alpha" maskUnits="userSpaceOnUse" x="0" y="-4" width="534" height="418">
<rect x="0.845703" y="-3.13672" width="532.784" height="416.304" fill="#D9D9D9"/>
</mask>
<g mask="url(#mask0_1281_6890)">
<g opacity="0.2">
<path d="M254.635 -156.609C295.426 -118.224 329.554 -130.085 341.519 -140.813C420.906 -199.636 453.156 -188.785 500.727 -162.713C548.298 -136.641 564.885 -143.2 567.676 -141.909C610.423 -140.567 608.922 -124.459 611.807 -111.33C616.171 -91.4672 629.621 -46.7114 648.504 -26.5925C672.107 -1.44396 681.266 37.3519 691.724 64.5511C702.182 91.7503 725.444 114.708 777.534 180.817C829.625 246.925 915.008 258.639 965.978 278.828C1016.95 299.017 1038.26 339.37 1040.19 348.392C1041.73 355.609 1050.37 381.561 1054.5 393.635C1065.81 425.431 1047.65 461.168 1037.16 475.062C1022.5 487.707 988.786 522.211 971.194 559.068C953.603 595.926 938.376 610.972 932.961 613.889C910.136 632.469 864.657 620.918 823.45 586.949C782.242 552.979 781.429 499.071 803.46 454.374C821.085 418.616 818.026 399.447 814.293 394.332C797.549 364.903 760.613 378.536 744.238 389.032C721.179 396.887 669.351 409.415 646.51 396.681C623.669 383.947 601.892 383.269 593.858 384.522C543.599 387.701 553.707 421.515 554.611 469.367C555.515 517.22 510.294 505.111 489.55 501.614C468.806 498.117 482.685 493.017 450.477 483.54C418.269 474.062 406.862 451.845 397.388 429.844C387.914 407.843 385.081 405.177 404.481 373.493C423.88 341.809 389.155 312.871 371.809 303.492C354.463 294.114 304.207 243.084 291.293 225.59C278.378 208.096 226.858 178.843 197.763 145.056C168.669 111.269 216.042 67.4528 238.624 31.8197C261.205 -3.81334 192.924 -23.2012 125.368 -36.8324C57.8121 -50.4637 64.6807 -96.0756 90.6758 -155.202C116.671 -214.328 203.646 -204.59 254.635 -156.609Z" stroke="#DFE4E8"/>
<path d="M474.518 210.092C538.048 247.917 556.36 235.494 574.314 227.976C611.236 207.187 612.276 170.505 608.181 154.762C597.223 91.1146 531.498 60.7112 505.384 51.6618C479.271 42.6123 457.408 78.959 435.087 127.213C417.23 165.816 453.934 198.551 474.518 210.092Z" stroke="#DFE4E8"/>
<path d="M479.869 100.498C520.735 67.2985 561.711 113.91 577.091 141.366C582.191 153.235 587.074 181.432 565.797 199.27C539.2 221.567 492.389 195.165 471.517 161.086C454.82 133.824 470.128 109.335 479.869 100.498Z" stroke="#DFE4E8" stroke-width="2"/>
<path d="M327.71 51.2367C355.755 76.5683 334.009 87.9576 319.629 90.4858C309.278 92.1406 287.385 95.5527 282.617 95.9631C276.658 96.4762 275.476 91.5552 259.499 104.315C243.522 117.074 246.695 140.707 268.141 155.329C285.298 167.027 307.591 193.952 316.593 205.952C322.262 215.962 342.152 241.014 376.367 261.14C419.135 286.297 439.475 300.407 460.27 329.505C481.065 358.602 512.263 371.019 548.644 347.548C585.025 324.076 609.079 325.8 654.531 349.511C699.983 373.223 740.334 336.811 770.456 313.803C800.577 290.795 817.251 309.926 829.375 322.922C841.498 335.918 859.963 351.177 877.612 375.461C895.261 399.744 877.492 416.377 848.925 463.613C820.358 510.849 837.081 522.614 859.965 548.648C882.849 574.682 922.252 551.937 931.202 541.301C940.153 530.664 953.792 512.793 973.699 485.731C993.605 458.67 993.891 423.203 989.555 415.152C985.219 407.102 982.08 393.56 982.697 368.993C983.191 349.34 975.177 333.946 971.108 328.706C951.641 289.476 874.325 285.28 843.451 292.492C818.751 298.261 796.643 278.004 788.676 267.154C784.935 260.722 773.003 243.247 755.204 224.804C737.406 206.362 723.15 184.23 718.247 175.469C697.256 142.922 651.43 71.6178 636.056 46.7739C616.837 15.7189 608.926 6.68587 599.14 -1.19919C589.354 -9.08427 585.654 -14.1544 570.192 -56.2332C557.822 -89.8962 538.357 -104.542 530.171 -107.658C526.353 -107.633 509.721 -112.818 473.736 -133.763C428.755 -159.943 395.653 -136.299 370.428 -113.712C345.203 -91.1256 325.913 -88.6297 286.394 -78.7004C246.874 -68.7711 265.076 -44.2315 273.104 -22.3828C281.133 -0.533981 292.654 19.5721 327.71 51.2367Z" stroke="#DFE4E8" stroke-width="2"/>
<path d="M400.084 143.04C384.116 178.723 401.531 196.649 412.234 201.151C424.615 206.878 454.131 223.762 473.155 245.482C492.179 267.203 524.368 274.776 538.575 266.995C545.858 263.859 568.104 254.948 598.827 244.395C637.231 231.204 644.218 191.367 635.752 164.57C627.286 137.774 573.089 62.905 548.705 42.8775C529.198 26.8555 510.122 -0.766379 503.023 -12.5745C503.212 -18.319 497.932 -36.1943 475.294 -61.7403C446.996 -93.6728 398.807 -60.7817 379.756 -31.2358C360.706 -1.68987 384.293 1.14537 423.097 19.0949C454.14 33.4546 442.913 59.6656 433.419 70.9761C428.96 80.1296 416.051 107.357 400.084 143.04Z" stroke="#DFE4E8"/>
<path d="M536.517 289.714C565.563 280.633 604.738 273.715 620.695 271.39C694.349 248.566 670.152 188.943 652.707 145.959L652.37 145.128C634.905 102.084 581.722 43.7242 560.302 23.5671C543.165 7.44143 533.498 -17.969 530.807 -28.6585C530.126 -37.614 519.125 -62.1548 480.562 -88.6742C441.998 -115.194 414.202 -101.503 405.124 -91.343C398.924 -83.535 381.01 -65.2291 358.951 -54.4693C331.378 -41.0195 322.181 -6.45163 363.504 17.5157C404.826 41.483 403.097 49.4181 406.893 70.5849C410.689 91.7517 369.743 132.014 351.692 160.545C337.252 183.369 382.549 216.228 407.003 229.804C424.058 237.693 459.508 256.032 464.864 266.274C471.559 279.076 500.209 301.064 536.517 289.714Z" stroke="#DFE4E8"/>
<path d="M310.402 139.42C294.39 156.148 321.686 192.047 337.335 207.906C359.675 233.045 389.116 249.273 401.044 254.245C421.26 261.069 437.547 273.657 467.753 305.317C497.959 336.977 539.134 324.439 555.559 316.244C571.984 308.049 598.342 297.5 636.01 313.029C666.144 325.452 688.417 324.005 695.787 321.729C750.199 302.427 735.214 262.899 720.92 245.548C714.283 232.581 696.767 196.978 679.789 158.298C658.567 109.947 595.086 30.0459 587.521 25.9149C579.957 21.784 550.083 -24.2516 549.694 -37.0659C549.304 -49.8801 534.111 -77.1227 516.939 -85.066C503.202 -91.4206 483.017 -105.194 474.642 -111.287C431.171 -136.567 379.557 -95.796 369.767 -83.9477C359.976 -72.0994 319.254 -53.0109 305.913 -42.8048C292.573 -32.5987 301.881 8.77146 341.145 33.8296C380.409 58.8877 375.588 73.0349 370.546 91.3892C365.504 109.744 330.418 118.511 310.402 139.42Z" stroke="#DFE4E8"/>
<path d="M431.264 396.68C414.697 429.215 433.06 451.551 444.312 458.652C518.382 502.569 529.23 467.16 525.395 443.966C523.907 434.733 521.761 413.751 525.076 403.693C529.22 391.12 562.363 342.361 626.462 366.438C690.56 390.516 724.304 383.832 751.488 362.412C778.673 340.991 796.968 347.225 825.218 360.85C853.468 374.475 852.772 403.69 843.428 423.889C834.085 444.088 823.095 447.364 812.212 491.373C801.329 535.381 829.854 558.05 866.252 586.591C895.371 609.423 931.574 583.926 946.037 568.324C955.741 552.564 981.376 512.89 1006.27 480.269C1031.17 447.648 1031.01 417.961 1027.82 407.195C1025.91 404.085 1020.77 389.893 1015.46 358.009C1008.81 318.154 985.93 309.798 959.694 295.432C938.705 283.94 910.052 275.442 898.35 272.629C885.775 270.899 854.509 264.276 830.045 251.622C799.465 235.804 788.166 228.906 755.487 188.711C722.808 148.516 661.417 57.1427 653.207 32.7246C644.996 8.30646 637.657 -2.3333 622.302 -16.124C606.946 -29.9148 597.493 -54.9078 586.818 -81.5804C578.279 -102.918 559.469 -113.737 551.132 -116.479C545.281 -117.885 525.824 -125.622 494.81 -145.319C456.041 -169.94 416.834 -174.7 381.656 -145.274C353.514 -121.732 326.657 -111.949 316.747 -109.999C274.037 -92.2541 231.1 -143.112 210.516 -155.694C189.933 -168.277 138.119 -196.073 110.466 -139.601C82.8132 -83.1297 128.355 -67.4204 146.783 -59.2785C165.212 -51.1366 179.287 -58.4012 209.572 -43.627C239.856 -28.8527 240.774 -24.2196 268.248 15.6585C295.722 55.5365 275.232 63.7816 258.04 68.1542C240.848 72.5267 232.129 77.0272 217.562 104.42C202.995 131.812 227.312 159.178 254.401 176.449C281.491 193.721 313.617 224.698 337.095 249.779C360.572 274.86 411.569 306.035 423.937 320.289C436.305 334.543 451.972 356.011 431.264 396.68Z" stroke="#DFE4E8"/>
</g>
</g>
</svg>
