<svg width="625" height="464" viewBox="0 0 625 464" fill="none" xmlns="http://www.w3.org/2000/svg">
<path opacity="0.5" d="M313.055 442.201C350.95 442.201 381.671 423.32 381.671 400.03C381.671 376.74 350.95 357.859 313.055 357.859C275.159 357.859 244.438 376.74 244.438 400.03C244.438 423.32 275.159 442.201 313.055 442.201Z" fill="#BFC9D1"/>
<path opacity="0.5" d="M486.788 442.201C524.684 442.201 555.405 423.32 555.405 400.03C555.405 376.74 524.684 357.859 486.788 357.859C448.892 357.859 418.172 376.74 418.172 400.03C418.172 423.32 448.892 442.201 486.788 442.201Z" fill="#BFC9D1"/>
<path opacity="0.5" d="M139.321 442.201C177.217 442.201 207.937 423.32 207.937 400.03C207.937 376.74 177.217 357.859 139.321 357.859C101.425 357.859 70.7041 376.74 70.7041 400.03C70.7041 423.32 101.425 442.201 139.321 442.201Z" fill="#BFC9D1"/>
<path d="M381.671 316.373V348.172C381.671 371.461 350.943 390.343 313.054 390.343C275.166 390.343 244.438 371.461 244.438 348.172V316.373C244.438 339.661 275.155 358.544 313.054 358.544C350.953 358.544 381.671 339.661 381.671 316.373Z" fill="white" stroke="#1B127D" stroke-width="0.870147" stroke-miterlimit="10"/>
<path d="M313.054 359.071C350.95 359.071 381.671 340.19 381.671 316.9C381.671 293.61 350.95 274.729 313.054 274.729C275.159 274.729 244.438 293.61 244.438 316.9C244.438 340.19 275.159 359.071 313.054 359.071Z" fill="white" stroke="#1B127D" stroke-width="0.870147" stroke-miterlimit="10"/>
<circle r="3.49551" transform="matrix(0.866025 0.5 -2.20305e-08 1 261.592 359.162)" fill="#ED26B7"/>
<path fill-rule="evenodd" clip-rule="evenodd" d="M306.173 328.673C305.375 330.103 304.023 333.015 305.953 333.901C307.347 334.306 307.444 332.828 307.448 332.262C307.489 331.063 306.99 329.769 306.173 328.673ZM311.349 320.405C312.975 322.74 311.356 325.45 310.12 325.699C309.5 325.824 309.111 325.005 308.555 324.631C308.206 325.169 307.678 326.085 307.341 326.63C309.783 326.38 312.319 327.073 314.033 328.193C315.804 329.335 316.719 330.868 316.499 332.491C322.49 333.214 324.375 336.029 323.505 339.79L323.439 340.017L323.128 339.906C320.925 339.128 318.862 338.606 316.334 338.502C315.071 338.45 313.785 338.488 312.511 338.519C310.835 338.56 309.182 338.57 307.516 338.513C300.74 338.421 293.351 335.347 289.06 332.026C286.845 330.313 285.247 328.325 284.208 326.19C283.383 324.491 282.935 322.722 282.822 320.943C282.564 317.008 283.9 312.874 286.727 309.387C289.202 306.318 293.081 303.48 298.234 302.361C299.07 302.182 300.399 301.962 301.237 301.904C301.788 301.885 302.35 301.874 302.89 301.863C302.947 301.856 303.017 301.855 303.074 301.862L310.679 285.992C311.328 284.691 312.307 284.036 313.181 284.076C314.203 284.122 314.712 285.302 314.474 286.36L310.928 301.872C311.966 302.228 312.725 303.241 312.816 304.077C315.264 303.277 316.367 306.083 316.532 307.236C316.998 310.513 314.985 314.673 312.848 318.156C312.285 319.095 311.902 319.595 311.349 320.405Z" fill="#393C42"/>
<path fill-rule="evenodd" clip-rule="evenodd" d="M314.311 306.028C314.028 304.514 312.569 304.501 312.593 305.443C312.651 307.305 311.043 309.035 308.829 310.105C305.575 311.657 305.023 311.464 305.072 310.883C309.567 309.474 311.795 305.901 310.749 303.147C310.436 302.049 307.349 303.064 304.13 302.767C288.76 301.365 276.24 319.929 289.854 331.251C293.939 334.664 300.401 337.141 307.214 337.376C312.314 337.554 316.023 336.566 321.775 338.361C322.133 334.867 318.887 333.358 314.361 333.16C316.025 329.583 310.638 326.781 306.663 327.493C309.844 331.07 308.883 335.925 304.836 334.586C301.072 332.981 304.066 328.242 309.068 320.774C313.283 314.548 315.536 310.228 314.311 306.028Z" fill="#80BECC"/>
<path fill-rule="evenodd" clip-rule="evenodd" d="M314.313 306.028C314.029 304.514 312.571 304.501 312.595 305.443C312.65 307.049 311.395 308.603 309.674 309.647C306.665 311.386 303.878 312.52 302.048 314.032C298.434 316.997 297.1 321.296 297.182 324.115C297.335 328.881 301.106 336.457 306.551 334.779C306.069 334.857 305.495 334.801 304.837 334.586C301.073 332.981 304.068 328.242 309.07 320.774C313.285 314.548 315.537 310.228 314.313 306.028Z" fill="white"/>
<path fill-rule="evenodd" clip-rule="evenodd" d="M302.946 321.599C306.083 320.87 309.32 323.511 309.928 324.306C312.755 320.91 305.585 317.842 305.6 315.428C303.219 316.929 301.254 321.345 302.946 321.599Z" fill="#80BECC"/>
<path fill-rule="evenodd" clip-rule="evenodd" d="M298.827 310.116C299.095 309.542 299.998 309.211 300.885 309.379C301.748 309.547 302.238 310.147 301.993 310.722C301.736 311.289 300.822 311.626 299.947 311.452C299.072 311.291 298.582 310.691 298.827 310.116Z" fill="#393C42"/>
<path fill-rule="evenodd" clip-rule="evenodd" d="M308.968 303.989L313.619 286.049C313.739 285.543 313.636 284.699 313.061 284.642C312.487 284.585 311.977 285.169 311.652 285.737L303.884 303.373C304.508 304.507 308.125 305.359 308.968 303.989Z" fill="#80BECC"/>
<path fill-rule="evenodd" clip-rule="evenodd" d="M305.335 303.484L312.022 285.916C312.311 285.145 312.607 284.962 313.004 284.635C312.465 284.616 311.955 285.185 311.652 285.737L303.886 303.373C304.357 304.229 306.559 304.932 307.956 304.621C306.896 304.371 305.915 304.023 305.335 303.484Z" fill="white"/>
<path fill-rule="evenodd" clip-rule="evenodd" d="M285.233 322.752C285.687 322.327 286.491 322.292 287.046 322.665C287.613 323.031 287.703 323.671 287.249 324.096C286.806 324.514 286.002 324.55 285.458 324.183C284.891 323.818 284.802 323.177 285.233 322.752ZM284.842 318.253C285.24 317.88 285.951 317.846 286.438 318.175C286.936 318.511 287.011 319.068 286.626 319.448C286.229 319.82 285.517 319.855 285.031 319.526C284.544 319.197 284.457 318.632 284.842 318.253ZM289.829 308.621C290.342 308.308 291.055 308.379 291.416 308.777C291.788 309.167 291.669 309.733 291.168 310.037C290.666 310.343 289.953 310.272 289.581 309.882C289.208 309.492 289.328 308.926 289.829 308.621ZM292.326 306.297C292.817 306.091 293.38 306.2 293.615 306.56C293.837 306.913 293.626 307.375 293.157 307.581C292.667 307.788 292.101 307.679 291.868 307.319C291.645 306.966 291.857 306.504 292.326 306.297ZM287.146 319.693C287.44 319.42 287.98 319.394 288.34 319.64C288.71 319.879 288.761 320.301 288.466 320.575C288.183 320.856 287.655 320.874 287.284 320.635C286.925 320.389 286.862 319.974 287.146 319.693ZM286.363 325.814C286.658 325.526 287.22 325.499 287.592 325.754C287.985 326.007 288.037 326.444 287.741 326.733C287.423 327.021 286.884 327.048 286.502 326.801C286.12 326.539 286.045 326.103 286.363 325.814ZM305.75 299.16L305.415 299.916C306.572 300.588 308.791 300.853 309.649 300.568C308.372 300.403 306.574 299.841 305.75 299.16ZM307.535 295.092L307.245 295.757C308.309 296.338 310.287 296.567 310.755 296.345C309.973 296.245 308.254 295.661 307.535 295.092ZM309.297 291.069L309.075 291.583C309.711 292.009 311.151 292.323 311.813 292.064C311.158 291.969 310.016 291.637 309.297 291.069ZM311.005 287.204L310.815 287.651C311.278 287.904 312.567 288.092 312.967 287.991C312.552 287.858 311.608 287.653 311.005 287.204Z" fill="#68AAAC"/>
<path d="M312.894 229.707C312.654 229.466 312.264 229.466 312.023 229.707L308.102 233.628C307.862 233.868 307.862 234.258 308.102 234.499C308.343 234.74 308.733 234.74 308.974 234.499L312.459 231.014L315.944 234.499C316.185 234.74 316.575 234.74 316.815 234.499C317.056 234.258 317.056 233.868 316.815 233.628L312.894 229.707ZM313.075 267.042L313.075 265.724L311.843 265.724L311.843 267.042L313.075 267.042ZM313.075 263.088L313.075 260.453L311.843 260.453L311.843 263.088L313.075 263.088ZM313.075 257.817L313.075 255.181L311.843 255.181L311.843 257.817L313.075 257.817ZM313.075 252.546L313.075 249.91L311.843 249.91L311.843 252.546L313.075 252.546ZM313.075 247.274L313.075 244.639L311.843 244.639L311.843 247.274L313.075 247.274ZM313.075 242.003L313.075 239.367L311.843 239.367L311.843 242.003L313.075 242.003ZM313.075 236.732L313.075 234.096L311.843 234.096L311.843 236.732L313.075 236.732ZM313.075 231.46L313.075 230.143L311.843 230.143L311.843 231.46L313.075 231.46Z" fill="#1B127D"/>
<path d="M360.556 230.074C360.315 229.834 359.925 229.834 359.685 230.074L355.764 233.995C355.523 234.235 355.523 234.626 355.764 234.866C356.005 235.107 356.395 235.107 356.635 234.866L360.12 231.381L363.605 234.866C363.846 235.107 364.236 235.107 364.477 234.866C364.717 234.626 364.717 234.235 364.477 233.995L360.556 230.074ZM360.736 316.608L360.736 315.173L359.504 315.173L359.504 316.608L360.736 316.608ZM360.736 312.303L360.736 309.433L359.504 309.433L359.504 312.303L360.736 312.303ZM360.736 306.563L360.736 303.693L359.504 303.693L359.504 306.563L360.736 306.563ZM360.736 300.823L360.736 297.953L359.504 297.953L359.504 300.823L360.736 300.823ZM360.736 295.083L360.736 292.213L359.504 292.213L359.504 295.083L360.736 295.083ZM360.736 289.343L360.736 286.474L359.504 286.474L359.504 289.343L360.736 289.343ZM360.736 283.604L360.736 280.734L359.504 280.734L359.504 283.604L360.736 283.604ZM360.736 277.864L360.736 274.994L359.504 274.994L359.504 277.864L360.736 277.864ZM360.736 272.124L360.736 269.254L359.504 269.254L359.504 272.124L360.736 272.124ZM360.736 266.384L360.736 263.514L359.504 263.514L359.504 266.384L360.736 266.384ZM360.736 260.644L360.736 257.774L359.504 257.774L359.504 260.644L360.736 260.644ZM360.736 254.904L360.736 252.034L359.504 252.034L359.504 254.904L360.736 254.904ZM360.736 249.164L360.736 246.294L359.504 246.294L359.504 249.164L360.736 249.164ZM360.736 243.424L360.736 240.555L359.504 240.555L359.504 243.424L360.736 243.424ZM360.736 237.685L360.736 234.815L359.504 234.815L359.504 237.685L360.736 237.685ZM360.736 231.945L360.736 230.51L359.504 230.51L359.504 231.945L360.736 231.945Z" fill="#1B127D"/>
<path d="M265.233 230.074C264.992 229.834 264.602 229.834 264.362 230.074L260.441 233.995C260.2 234.235 260.2 234.626 260.441 234.866C260.682 235.107 261.072 235.107 261.312 234.866L264.797 231.381L268.282 234.866C268.523 235.107 268.913 235.107 269.154 234.866C269.394 234.626 269.394 234.235 269.154 233.995L265.233 230.074ZM265.413 316.608L265.413 315.173L264.181 315.173L264.181 316.608L265.413 316.608ZM265.413 312.303L265.413 309.433L264.181 309.433L264.181 312.303L265.413 312.303ZM265.413 306.563L265.413 303.693L264.181 303.693L264.181 306.563L265.413 306.563ZM265.413 300.823L265.413 297.953L264.181 297.953L264.181 300.823L265.413 300.823ZM265.413 295.083L265.413 292.213L264.181 292.213L264.181 295.083L265.413 295.083ZM265.413 289.343L265.413 286.474L264.181 286.474L264.181 289.343L265.413 289.343ZM265.413 283.604L265.413 280.734L264.181 280.734L264.181 283.604L265.413 283.604ZM265.413 277.864L265.413 274.994L264.181 274.994L264.181 277.864L265.413 277.864ZM265.413 272.124L265.413 269.254L264.181 269.254L264.181 272.124L265.413 272.124ZM265.413 266.384L265.413 263.514L264.181 263.514L264.181 266.384L265.413 266.384ZM265.413 260.644L265.413 257.774L264.181 257.774L264.181 260.644L265.413 260.644ZM265.413 254.904L265.413 252.034L264.181 252.034L264.181 254.904L265.413 254.904ZM265.413 249.164L265.413 246.294L264.181 246.294L264.181 249.164L265.413 249.164ZM265.413 243.424L265.413 240.555L264.181 240.555L264.181 243.424L265.413 243.424ZM265.413 237.685L265.413 234.815L264.181 234.815L264.181 237.685L265.413 237.685ZM265.413 231.945L265.413 230.51L264.181 230.51L264.181 231.945L265.413 231.945Z" fill="#1B127D"/>
<path d="M207.937 355.631V387.431C207.937 410.719 177.209 429.601 139.321 429.601C101.432 429.601 70.7041 410.719 70.7041 387.431V355.631C70.7041 378.919 101.422 397.802 139.321 397.802C177.22 397.802 207.937 378.919 207.937 355.631Z" fill="white" stroke="#1B127D" stroke-width="0.870147" stroke-miterlimit="10"/>
<path d="M139.321 397.508C177.217 397.508 207.937 378.627 207.937 355.337C207.937 332.047 177.217 313.166 139.321 313.166C101.425 313.166 70.7041 332.047 70.7041 355.337C70.7041 378.627 101.425 397.508 139.321 397.508Z" fill="white" stroke="#1B127D" stroke-width="0.870147" stroke-miterlimit="10"/>
<circle r="3.49551" transform="matrix(0.866025 0.5 -2.20305e-08 1 87.8583 398.42)" fill="#1B127D"/>
<path d="M129.127 350.59C129.952 351.151 130.318 351.775 130.318 352.522C130.319 353.645 129.126 354.705 127.568 354.892L113.083 357.511C113.037 357.543 112.991 357.543 112.945 357.543C112.9 357.543 112.854 357.543 112.808 357.574C110.791 357.948 108.775 357.075 108.316 355.641C107.766 354.269 109.05 352.897 111.158 352.585L119.317 351.151L113.266 347.035C111.8 346.037 111.8 344.416 113.267 343.418C114.734 342.42 117.117 342.42 118.584 343.418L129.127 350.59Z" fill="#31BEF0"/>
<path d="M129.034 358.884C130.409 358.572 131.785 358.884 132.793 359.57C133.802 360.256 134.26 361.191 133.894 362.064L130.042 371.917L129.859 372.042C129.218 373.476 127.201 374.224 125.093 373.788C122.984 373.351 121.975 371.917 122.526 370.545L124.726 364.932L116.475 366.429C116.416 366.469 116.357 366.458 116.298 366.461C116.265 366.463 116.233 366.469 116.2 366.491C114.183 366.866 112.166 365.993 111.708 364.558C111.158 363.186 112.441 361.815 114.55 361.502L129.034 358.884Z" fill="#31BEF0"/>
<path d="M156.538 369.235L145.903 362.001C145.628 361.69 144.986 361.503 144.528 361.44C142.42 361.004 140.219 361.877 139.67 363.249L135.818 373.102C135.773 373.133 135.772 373.165 135.772 373.196C135.772 373.227 135.773 373.258 135.727 373.289C135.177 374.661 136.46 376.033 138.569 376.344C140.586 376.719 142.603 375.846 143.061 374.411L145.261 368.799L151.22 372.852C152.687 373.85 155.071 373.85 156.538 372.852C158.004 371.854 158.005 370.233 156.538 369.235Z" fill="#31BEF0"/>
<path d="M161.305 365.993L150.946 358.946C150.395 358.697 149.937 358.135 149.661 357.699C149.111 356.327 150.303 354.892 152.32 354.518L166.805 351.899C166.896 351.837 166.988 351.899 167.08 351.837C169.097 351.463 171.114 352.335 171.572 353.77C172.122 355.142 170.838 356.514 168.73 356.826L160.662 358.322L166.621 362.376C168.088 363.374 168.088 364.995 166.621 365.993C165.155 366.99 162.772 366.99 161.305 365.993Z" fill="#31BEF0"/>
<path d="M146.086 347.284C145.628 348.22 146.086 349.155 147.095 349.841C148.012 350.59 149.478 350.839 150.67 350.527L165.155 347.908C165.246 347.845 165.338 347.908 165.429 347.846C167.538 347.409 168.547 345.975 167.997 344.603C167.355 343.169 165.246 342.482 163.23 342.857L154.978 344.354L157.179 338.741C157.227 338.708 157.225 338.676 157.225 338.644C157.225 338.614 157.227 338.584 157.271 338.554C157.821 337.182 156.538 335.81 154.429 335.498C152.412 335.124 150.395 335.997 149.937 337.431L146.086 347.284Z" fill="#31BEF0"/>
<path d="M123.351 340.175L133.71 347.222C134.168 347.659 134.902 347.908 135.543 348.095C137.56 348.469 139.669 347.659 140.219 346.287L144.069 336.434C144.115 336.403 144.115 336.372 144.115 336.341C144.115 336.309 144.115 336.278 144.161 336.247C144.711 334.875 143.428 333.503 141.319 333.191C139.302 332.817 137.285 333.69 136.827 335.124L134.627 340.612L128.668 336.559C127.201 335.561 124.818 335.561 123.351 336.559C121.884 337.556 121.884 339.178 123.351 340.175Z" fill="#31BEF0"/>
<path fill-rule="evenodd" clip-rule="evenodd" d="M135.943 350.737C136.047 350.721 136.157 350.714 136.277 350.714L143.519 350.777C143.886 350.777 144.161 350.839 144.436 351.026L145.353 351.65C145.536 351.775 145.719 352.024 145.811 352.211L145.811 357.2C145.811 357.332 145.786 357.446 145.721 357.552C145.663 357.647 145.574 357.735 145.445 357.823L144.528 358.447C144.253 358.634 143.978 358.696 143.611 358.697L136.277 358.697C135.911 358.696 135.636 358.634 135.36 358.447L134.443 357.823C134.169 357.636 134.077 357.449 134.077 357.2L134.077 352.211C134.077 352.053 134.114 351.919 134.211 351.795C134.267 351.724 134.343 351.655 134.443 351.587L135.36 350.964C135.545 350.838 135.73 350.769 135.943 350.737ZM138.736 353.323C138.553 353.322 138.278 353.385 138.094 353.509C137.963 353.599 137.878 353.72 137.841 353.828C137.827 353.87 137.82 353.911 137.82 353.946L137.819 355.443C137.819 355.567 137.911 355.755 138.095 355.879C138.278 356.004 138.553 356.067 138.736 356.067L140.937 356.066C141.02 356.066 141.123 356.053 141.227 356.027C141.352 355.997 141.479 355.947 141.579 355.88C141.762 355.755 141.853 355.567 141.853 355.443L141.854 353.946C141.853 353.839 141.786 353.686 141.65 353.565C141.628 353.546 141.604 353.527 141.578 353.51C141.477 353.441 141.348 353.391 141.222 353.36C141.119 353.335 141.018 353.322 140.936 353.322L138.736 353.323Z" fill="#31BEF0"/>
<path d="M555.405 355.631V387.431C555.405 410.719 524.677 429.601 486.788 429.601C448.9 429.601 418.172 410.719 418.172 387.431V355.631C418.172 378.919 448.889 397.802 486.788 397.802C524.687 397.802 555.405 378.919 555.405 355.631Z" fill="white" stroke="#1B127D" stroke-width="0.870147" stroke-miterlimit="10"/>
<path d="M486.788 397.508C524.684 397.508 555.405 378.627 555.405 355.337C555.405 332.047 524.684 313.166 486.788 313.166C448.892 313.166 418.172 332.047 418.172 355.337C418.172 378.627 448.892 397.508 486.788 397.508Z" fill="white" stroke="#1B127D" stroke-width="0.870147" stroke-miterlimit="10"/>
<circle r="3.49551" transform="matrix(0.866025 0.5 -2.20305e-08 1 435.326 398.42)" fill="#1B127D"/>
<path d="M492.061 382.24L460.934 376.116C459.738 375.88 458.655 375.438 457.796 374.832C456.937 374.227 456.331 373.481 456.039 372.668L448.457 351.528C448.165 350.716 448.198 349.865 448.553 349.062C448.907 348.26 449.57 347.533 450.476 346.956L474.019 331.941C474.925 331.363 476.04 330.956 477.254 330.758C478.467 330.561 479.736 330.581 480.933 330.816L512.06 336.941C513.256 337.176 514.339 337.619 515.198 338.224C516.058 338.829 516.663 339.576 516.955 340.389L524.538 361.528C524.829 362.341 524.796 363.192 524.441 363.994C524.087 364.797 523.424 365.523 522.519 366.1L498.975 381.116C498.07 381.693 496.954 382.101 495.74 382.298C494.527 382.496 493.258 382.476 492.061 382.24L492.061 382.24Z" fill="url(#paint0_linear_631_16320)"/>
<path opacity="0.07" d="M520.833 347.473L487.087 346.939L477.738 350.36L473.403 356.295L477.213 362.449L486.414 366.138L522.199 366.704L525.931 364.104L520.833 347.473Z" fill="black"/>
<path d="M476.625 349.573C470.881 353.237 470.644 359.321 476.098 363.162C481.551 367.003 490.628 367.146 496.373 363.482C502.118 359.819 502.354 353.735 496.901 349.895C491.447 346.054 482.37 345.91 476.625 349.573ZM493.991 361.805C489.632 364.585 482.744 364.476 478.606 361.561C474.469 358.647 474.649 354.031 479.007 351.251C483.366 348.471 490.255 348.58 494.392 351.494C498.53 354.409 498.35 359.025 493.991 361.805" fill="white"/>
<path d="M481.183 359.408L484.252 361.569C485.51 361.813 486.839 361.844 488.121 361.658L483.147 358.155L481.183 359.408ZM482.49 355.102L490.753 360.921C491.145 360.749 491.522 360.556 491.874 360.332C492.194 360.128 492.474 359.907 492.732 359.677L484.456 353.848L482.49 355.102ZM490.43 355.222L494.074 357.789C494.401 356.914 494.389 355.997 494.039 355.127L492.395 353.969L490.43 355.222ZM500.068 356.037L500.014 357.446C500.01 357.565 500.076 357.681 500.199 357.767C500.322 357.853 500.491 357.904 500.669 357.907L508.635 358.032C508.813 358.034 508.986 357.99 509.115 357.907C509.244 357.825 509.32 357.711 509.324 357.592L509.379 356.185C509.383 356.065 509.317 355.95 509.194 355.864C509.072 355.778 508.903 355.728 508.726 355.724L500.757 355.598C500.579 355.596 500.407 355.641 500.278 355.723C500.149 355.805 500.073 355.918 500.068 356.037Z" fill="white"/>
<path fill-rule="evenodd" clip-rule="evenodd" d="M254.027 150.465C250.451 149.531 246.538 150.036 244.099 151.549C243.333 152.025 242.713 152.599 242.294 153.263L235.9 163.308C234.145 166.075 236.557 169.335 241.259 170.564L246.486 171.928C246.057 175.064 246.251 178.206 247.033 181.291L241.957 182.502C240.819 182.773 239.834 183.177 239.036 183.672C236.634 185.163 235.884 187.491 237.443 189.607L245.016 199.866C247.099 202.687 252.539 204.105 257.102 203.02L262.176 201.808C265.509 204.291 269.319 206.574 273.558 208.595L271.606 211.666C269.847 214.435 272.26 217.696 276.96 218.92L294.056 223.382C297.631 224.317 301.551 223.811 303.991 222.296C304.756 221.821 305.377 221.247 305.793 220.585L307.741 217.508C312.988 217.961 318.195 218.032 323.284 217.745L325.602 220.879C327.684 223.705 333.12 225.12 337.687 224.034L354.294 220.082C355.43 219.809 356.411 219.407 357.212 218.91C359.614 217.42 360.369 215.091 358.804 212.974L356.486 209.834C358.607 208.834 360.618 207.739 362.507 206.567C364.126 205.562 365.657 204.501 367.089 203.38L372.311 204.738C375.894 205.675 379.808 205.168 382.248 203.654C383.014 203.179 383.632 202.606 384.054 201.947L390.436 191.897C392.194 189.133 389.788 185.871 385.084 184.642L379.856 183.279C380.284 180.145 380.09 177.003 379.306 173.914L384.387 172.705C385.528 172.435 386.506 172.032 387.305 171.536C389.709 170.045 390.461 167.715 388.899 165.599L381.328 155.341C379.244 152.523 373.796 151.101 369.241 152.193L364.163 153.4C360.833 150.916 357.025 148.638 352.788 146.613L354.739 143.539C356.49 140.777 354.09 137.512 349.38 136.289L332.29 131.827C328.711 130.896 324.796 131.401 322.353 132.917C321.589 133.391 320.966 133.965 320.549 134.626L318.594 137.695C313.361 137.252 308.15 137.174 303.057 137.464L300.748 134.329C298.658 131.506 293.223 130.089 288.656 131.176L272.05 135.128C270.911 135.402 269.93 135.803 269.128 136.301C266.727 137.791 265.976 140.116 267.538 142.237L269.851 145.372C267.733 146.375 265.721 147.466 263.832 148.639C262.215 149.642 260.687 150.704 259.254 151.827L254.027 150.465ZM335.66 154.898C340.705 157.864 344.024 161.479 345.582 165.254C344.259 168.359 341.658 171.271 337.757 173.696C325.176 181.517 303.839 181.31 290.1 173.232C285.054 170.266 281.735 166.651 280.178 162.876C281.5 159.771 284.101 156.859 288.002 154.434C300.583 146.613 321.92 146.82 335.66 154.898Z" fill="white" fill-opacity="0.8"/>
<path d="M244.099 151.549L243.876 151.191L244.099 151.549ZM254.027 150.465L253.92 150.873L253.92 150.873L254.027 150.465ZM242.294 153.263L242.65 153.49L242.651 153.488L242.294 153.263ZM235.9 163.308L235.544 163.081L235.544 163.082L235.9 163.308ZM241.259 170.564L241.152 170.972L241.152 170.972L241.259 170.564ZM246.486 171.928L246.904 171.985L246.955 171.614L246.593 171.519L246.486 171.928ZM247.033 181.291L247.131 181.702L247.547 181.603L247.442 181.188L247.033 181.291ZM241.957 182.502L242.055 182.913L242.055 182.913L241.957 182.502ZM239.036 183.672L238.814 183.314H238.814L239.036 183.672ZM237.443 189.607L237.103 189.857L237.104 189.858L237.443 189.607ZM245.016 199.866L244.676 200.117L244.676 200.117L245.016 199.866ZM257.102 203.02L257.2 203.431L257.2 203.431L257.102 203.02ZM262.176 201.808L262.428 201.47L262.27 201.352L262.078 201.398L262.176 201.808ZM273.558 208.595L273.915 208.822L274.17 208.419L273.74 208.214L273.558 208.595ZM271.606 211.666L271.25 211.44L271.25 211.44L271.606 211.666ZM276.96 218.92L277.067 218.512L277.067 218.512L276.96 218.92ZM294.056 223.382L294.162 222.974L294.162 222.974L294.056 223.382ZM303.991 222.296L304.213 222.655L303.991 222.296ZM305.793 220.585L305.437 220.36L305.436 220.361L305.793 220.585ZM307.741 217.508L307.777 217.087L307.522 217.065L307.384 217.282L307.741 217.508ZM323.284 217.745L323.624 217.494L323.488 217.311L323.261 217.323L323.284 217.745ZM325.602 220.879L325.941 220.629L325.941 220.628L325.602 220.879ZM337.687 224.034L337.785 224.445L337.785 224.445L337.687 224.034ZM354.294 220.082L354.391 220.492L354.392 220.492L354.294 220.082ZM357.212 218.91L356.99 218.552L357.212 218.91ZM358.804 212.974L358.464 213.225L358.465 213.225L358.804 212.974ZM356.486 209.834L356.306 209.453L355.842 209.672L356.147 210.085L356.486 209.834ZM362.507 206.567L362.284 206.208L362.284 206.208L362.507 206.567ZM367.089 203.38L367.195 202.972L366.993 202.919L366.829 203.048L367.089 203.38ZM372.311 204.738L372.418 204.33L372.417 204.33L372.311 204.738ZM382.248 203.654L382.471 204.012L382.248 203.654ZM384.054 201.947L384.409 202.175L384.41 202.174L384.054 201.947ZM390.436 191.897L390.08 191.671L390.08 191.671L390.436 191.897ZM385.084 184.642L385.19 184.234L385.19 184.234L385.084 184.642ZM379.856 183.279L379.438 183.222L379.388 183.592L379.75 183.687L379.856 183.279ZM379.306 173.914L379.208 173.504L378.791 173.603L378.897 174.018L379.306 173.914ZM384.387 172.705L384.29 172.294L384.289 172.294L384.387 172.705ZM387.305 171.536L387.528 171.895L387.305 171.536ZM388.899 165.599L389.239 165.349L389.239 165.349L388.899 165.599ZM381.328 155.341L381.668 155.09L381.667 155.09L381.328 155.341ZM369.241 152.193L369.338 152.604L369.339 152.604L369.241 152.193ZM364.163 153.4L363.911 153.739L364.069 153.856L364.261 153.811L364.163 153.4ZM352.788 146.613L352.432 146.387L352.177 146.789L352.606 146.994L352.788 146.613ZM354.739 143.539L355.095 143.765L355.095 143.765L354.739 143.539ZM349.38 136.289L349.274 136.697L349.274 136.697L349.38 136.289ZM332.29 131.827L332.396 131.419L332.396 131.419L332.29 131.827ZM322.353 132.917L322.575 133.276V133.276L322.353 132.917ZM320.549 134.626L320.905 134.853L320.905 134.851L320.549 134.626ZM318.594 137.695L318.558 138.116L318.813 138.137L318.95 137.922L318.594 137.695ZM303.057 137.464L302.717 137.714L302.853 137.898L303.081 137.885L303.057 137.464ZM300.748 134.329L301.088 134.078L301.088 134.077L300.748 134.329ZM288.656 131.176L288.754 131.587L288.754 131.587L288.656 131.176ZM272.05 135.128L271.953 134.718L271.952 134.718L272.05 135.128ZM269.128 136.301L269.351 136.659L269.128 136.301ZM267.538 142.237L267.198 142.487L267.198 142.487L267.538 142.237ZM269.851 145.372L270.032 145.753L270.496 145.534L270.191 145.121L269.851 145.372ZM263.832 148.639L263.609 148.28L263.832 148.639ZM259.254 151.827L259.147 152.236L259.35 152.288L259.514 152.16L259.254 151.827ZM345.582 165.254L345.97 165.419L346.039 165.256L345.972 165.093L345.582 165.254ZM335.66 154.898L335.446 155.262L335.66 154.898ZM337.757 173.696L337.98 174.054L337.757 173.696ZM290.1 173.232L290.314 172.869L290.1 173.232ZM280.178 162.876L279.789 162.711L279.72 162.874L279.788 163.037L280.178 162.876ZM288.002 154.434L287.779 154.076L288.002 154.434ZM244.321 151.908C246.644 150.466 250.434 149.963 253.92 150.873L254.133 150.057C250.468 149.1 246.431 149.605 243.876 151.191L244.321 151.908ZM242.651 153.488C243.028 152.89 243.596 152.358 244.321 151.908L243.876 151.191C243.069 151.692 242.397 152.308 241.937 153.038L242.651 153.488ZM236.256 163.535L242.65 153.49L241.938 153.037L235.544 163.081L236.256 163.535ZM241.366 170.156C239.077 169.558 237.395 168.477 236.498 167.262C235.614 166.066 235.486 164.749 236.256 163.534L235.544 163.082C234.559 164.634 234.76 166.33 235.819 167.764C236.864 169.178 238.739 170.341 241.152 170.972L241.366 170.156ZM246.593 171.519L241.365 170.155L241.152 170.972L246.38 172.336L246.593 171.519ZM247.442 181.188C246.673 178.153 246.483 175.066 246.904 171.985L246.068 171.87C245.631 175.062 245.829 178.259 246.624 181.395L247.442 181.188ZM242.055 182.913L247.131 181.702L246.935 180.881L241.859 182.092L242.055 182.913ZM239.259 184.031C240.012 183.563 240.954 183.175 242.055 182.913L241.859 182.092C240.684 182.372 239.655 182.791 238.814 183.314L239.259 184.031ZM237.783 189.357C237.071 188.391 236.907 187.413 237.16 186.52C237.417 185.615 238.12 184.737 239.259 184.031L238.814 183.314C237.549 184.098 236.677 185.13 236.348 186.29C236.016 187.463 236.256 188.707 237.103 189.857L237.783 189.357ZM245.355 199.615L237.783 189.356L237.104 189.858L244.676 200.117L245.355 199.615ZM257.005 202.61C254.796 203.135 252.365 203.055 250.236 202.5C248.098 201.942 246.319 200.92 245.355 199.615L244.676 200.117C245.796 201.633 247.779 202.731 250.023 203.316C252.275 203.904 254.846 203.991 257.2 203.431L257.005 202.61ZM262.078 201.398L257.004 202.61L257.2 203.431L262.274 202.218L262.078 201.398ZM273.74 208.214C269.524 206.203 265.737 203.934 262.428 201.47L261.924 202.146C265.281 204.647 269.115 206.944 273.377 208.976L273.74 208.214ZM271.963 211.893L273.915 208.822L273.202 208.369L271.25 211.44L271.963 211.893ZM277.067 218.512C274.779 217.916 273.097 216.836 272.2 215.621C271.317 214.426 271.19 213.108 271.963 211.892L271.25 211.44C270.263 212.992 270.463 214.69 271.521 216.123C272.566 217.537 274.441 218.7 276.854 219.329L277.067 218.512ZM294.162 222.974L277.067 218.512L276.854 219.329L293.949 223.79L294.162 222.974ZM303.768 221.938C301.444 223.38 297.648 223.885 294.162 222.974L293.949 223.79C297.615 224.749 301.657 224.241 304.213 222.655L303.768 221.938ZM305.436 220.361C305.061 220.956 304.492 221.488 303.768 221.938L304.213 222.655C305.019 222.155 305.692 221.538 306.15 220.81L305.436 220.361ZM307.384 217.282L305.437 220.36L306.15 220.811L308.098 217.734L307.384 217.282ZM323.261 217.323C318.191 217.61 313.005 217.539 307.777 217.087L307.705 217.928C312.972 218.383 318.198 218.454 323.308 218.166L323.261 217.323ZM325.941 220.628L323.624 217.494L322.945 217.996L325.262 221.13L325.941 220.628ZM337.59 223.624C335.378 224.149 332.948 224.07 330.819 223.515C328.682 222.958 326.905 221.936 325.941 220.629L325.262 221.13C326.381 222.649 328.363 223.747 330.606 224.332C332.858 224.919 335.429 225.005 337.785 224.445L337.59 223.624ZM354.196 219.671L337.589 223.624L337.785 224.445L354.391 220.492L354.196 219.671ZM356.99 218.552C356.232 219.021 355.294 219.407 354.195 219.671L354.392 220.492C355.565 220.21 356.59 219.793 357.435 219.269L356.99 218.552ZM358.465 213.225C359.179 214.191 359.343 215.169 359.09 216.062C358.832 216.967 358.128 217.845 356.99 218.552L357.435 219.269C358.698 218.484 359.572 217.453 359.902 216.293C360.235 215.119 359.994 213.875 359.143 212.724L358.465 213.225ZM356.147 210.085L358.464 213.225L359.144 212.724L356.826 209.584L356.147 210.085ZM362.284 206.208C360.409 207.372 358.412 208.459 356.306 209.453L356.666 210.216C358.801 209.209 360.826 208.107 362.73 206.925L362.284 206.208ZM366.829 203.048C365.41 204.159 363.892 205.211 362.284 206.208L362.729 206.925C364.36 205.913 365.903 204.844 367.349 203.713L366.829 203.048ZM372.417 204.33L367.195 202.972L366.983 203.789L372.205 205.146L372.417 204.33ZM382.026 203.295C379.702 204.738 375.911 205.243 372.418 204.33L372.204 205.146C375.877 206.107 379.915 205.599 382.471 204.012L382.026 203.295ZM383.698 201.72C383.318 202.314 382.75 202.846 382.026 203.295L382.471 204.012C383.277 203.512 383.947 202.897 384.409 202.175L383.698 201.72ZM390.08 191.671L383.698 201.721L384.41 202.174L390.793 192.124L390.08 191.671ZM384.977 185.051C387.267 185.649 388.948 186.73 389.844 187.945C390.726 189.14 390.852 190.457 390.08 191.671L390.793 192.124C391.778 190.573 391.58 188.877 390.523 187.444C389.479 186.029 387.605 184.865 385.19 184.234L384.977 185.051ZM379.75 183.687L384.977 185.051L385.19 184.234L379.963 182.87L379.75 183.687ZM378.897 174.018C379.668 177.056 379.858 180.144 379.438 183.222L380.275 183.336C380.709 180.147 380.512 176.951 379.715 173.81L378.897 174.018ZM384.289 172.294L379.208 173.504L379.403 174.325L384.484 173.115L384.289 172.294ZM387.083 171.178C386.328 171.646 385.392 172.033 384.29 172.294L384.484 173.115C385.663 172.837 386.685 172.418 387.528 171.895L387.083 171.178ZM388.56 165.85C389.272 166.815 389.437 167.793 389.183 168.687C388.926 169.592 388.222 170.471 387.083 171.178L387.528 171.895C388.793 171.11 389.666 170.078 389.995 168.917C390.328 167.744 390.088 166.499 389.239 165.349L388.56 165.85ZM380.989 155.592L388.56 165.85L389.239 165.349L381.668 155.09L380.989 155.592ZM369.339 152.604C371.544 152.075 373.974 152.154 376.105 152.709C378.244 153.267 380.025 154.289 380.989 155.592L381.667 155.09C380.547 153.576 378.562 152.478 376.318 151.893C374.065 151.305 371.493 151.219 369.142 151.783L369.339 152.604ZM364.261 153.811L369.338 152.604L369.143 151.783L364.066 152.99L364.261 153.811ZM352.606 146.994C356.821 149.008 360.605 151.273 363.911 153.739L364.416 153.062C361.061 150.56 357.229 148.268 352.97 146.232L352.606 146.994ZM354.382 143.313L352.432 146.387L353.144 146.839L355.095 143.765L354.382 143.313ZM349.274 136.697C351.566 137.293 353.247 138.373 354.143 139.587C355.025 140.783 355.151 142.1 354.382 143.313L355.095 143.765C356.077 142.215 355.879 140.519 354.822 139.086C353.778 137.672 351.904 136.508 349.486 135.88L349.274 136.697ZM332.183 132.236L349.274 136.697L349.487 135.88L332.396 131.419L332.183 132.236ZM322.575 133.276C324.903 131.831 328.694 131.327 332.183 132.236L332.396 131.419C328.727 130.464 324.69 130.97 322.13 132.559L322.575 133.276ZM320.905 134.851C321.281 134.257 321.852 133.725 322.575 133.276L322.13 132.559C321.326 133.058 320.651 133.674 320.192 134.4L320.905 134.851ZM318.95 137.922L320.905 134.853L320.193 134.399L318.238 137.469L318.95 137.922ZM303.081 137.885C308.154 137.597 313.344 137.674 318.558 138.116L318.63 137.275C313.377 136.83 308.147 136.752 303.033 137.042L303.081 137.885ZM300.409 134.579L302.717 137.714L303.397 137.213L301.088 134.078L300.409 134.579ZM288.754 131.587C290.965 131.061 293.395 131.14 295.524 131.695C297.662 132.252 299.442 133.274 300.409 134.58L301.088 134.077C299.964 132.561 297.981 131.463 295.737 130.878C293.485 130.291 290.914 130.205 288.558 130.766L288.754 131.587ZM272.148 135.539L288.754 131.587L288.558 130.766L271.953 134.718L272.148 135.539ZM269.351 136.659C270.108 136.189 271.046 135.803 272.149 135.539L271.952 134.718C270.776 135 269.751 135.417 268.906 135.942L269.351 136.659ZM267.878 141.987C267.165 141.018 267 140.04 267.253 139.147C267.509 138.242 268.213 137.365 269.351 136.659L268.906 135.942C267.642 136.726 266.77 137.757 266.441 138.917C266.109 140.09 266.349 141.335 267.198 142.487L267.878 141.987ZM270.191 145.121L267.877 141.986L267.198 142.487L269.512 145.623L270.191 145.121ZM264.054 148.997C265.93 147.833 267.927 146.75 270.032 145.753L269.671 144.991C267.538 146 265.513 147.099 263.609 148.28L264.054 148.997ZM259.514 152.16C260.935 151.046 262.45 149.993 264.054 148.997L263.609 148.28C261.981 149.291 260.44 150.362 258.994 151.495L259.514 152.16ZM253.92 150.873L259.147 152.236L259.36 151.419L254.133 150.057L253.92 150.873ZM345.972 165.093C344.37 161.211 340.975 157.533 335.873 154.534L335.446 155.262C340.435 158.195 343.678 161.747 345.192 165.415L345.972 165.093ZM337.98 174.054C341.936 171.595 344.606 168.621 345.97 165.419L345.194 165.088C343.912 168.096 341.38 170.947 337.535 173.337L337.98 174.054ZM289.886 173.596C296.832 177.679 305.676 179.764 314.359 179.848C323.04 179.933 331.604 178.018 337.98 174.054L337.535 173.337C331.33 177.195 322.935 179.088 314.367 179.004C305.801 178.921 297.108 176.863 290.314 172.869L289.886 173.596ZM279.788 163.037C281.389 166.919 284.785 170.597 289.886 173.596L290.314 172.869C285.324 169.935 282.081 166.383 280.568 162.715L279.788 163.037ZM287.779 154.076C283.823 156.535 281.154 159.509 279.789 162.711L280.566 163.042C281.847 160.034 284.38 157.183 288.225 154.793L287.779 154.076ZM335.873 154.534C328.928 150.451 320.083 148.366 311.4 148.282C302.72 148.197 294.156 150.112 287.779 154.076L288.225 154.793C294.43 150.935 302.824 149.042 311.392 149.126C319.958 149.209 328.652 151.267 335.446 155.262L335.873 154.534Z" fill="#1B127D"/>
<path fill-rule="evenodd" clip-rule="evenodd" d="M235.327 144.95C235.327 144.95 235.327 155.169 235.327 164.54C235.327 166.805 235.964 167.579 236.562 168.139C237.161 168.699 246.995 172.892 246.995 172.892L246.995 161.098C246.995 161.098 245.989 156.68 246.486 151.874C243.515 151.077 241.161 150.405 239.767 150.013C235.869 148.473 235.327 144.95 235.327 144.95Z" fill="white" fill-opacity="0.9" stroke="#1B127D" stroke-width="0.843964"/>
<path fill-rule="evenodd" clip-rule="evenodd" d="M389.756 147.667C389.756 147.667 389.756 156.63 389.756 166.001C389.756 168.266 389.357 167.577 388.758 168.137C388.159 168.697 378.325 172.891 378.325 172.891L378.325 161.097C378.325 161.097 379.802 158.665 379.305 153.859C382.275 153.062 384.262 152.607 385.656 152.215C389.554 150.675 389.756 147.667 389.756 147.667Z" fill="white" fill-opacity="0.9" stroke="#1B127D" stroke-width="0.843964"/>
<path fill-rule="evenodd" clip-rule="evenodd" d="M266.714 119.873C266.714 123.5 266.714 131.393 266.714 131.393L270.153 129.611L269.852 125.317L267.538 122.182C267.538 122.182 267 121.64 266.714 119.873Z" fill="white" fill-opacity="0.9" stroke="#1B127D" stroke-width="0.843964"/>
<path fill-rule="evenodd" clip-rule="evenodd" d="M355.327 121.089C355.327 124.715 355.327 132.609 355.327 132.609L352.051 130.826L352.352 126.533L354.666 123.398C354.666 123.398 355.042 122.855 355.327 121.089Z" fill="white" fill-opacity="0.9" stroke="#1B127D" stroke-width="0.843964"/>
<path fill-rule="evenodd" clip-rule="evenodd" d="M254.027 130.411C250.451 129.477 246.538 129.982 244.099 131.495C243.333 131.971 242.713 132.545 242.294 133.209L235.9 143.254C234.145 146.021 236.557 149.281 241.259 150.51L246.486 151.874C246.057 155.01 246.251 158.152 247.033 161.237L241.957 162.448C240.819 162.719 239.834 163.123 239.036 163.618C236.634 165.109 235.884 167.437 237.443 169.553L245.016 179.812C247.099 182.633 252.539 184.051 257.102 182.966L262.176 181.754C265.509 184.237 269.319 186.52 273.558 188.541L271.606 191.612C269.847 194.381 272.26 197.642 276.96 198.866L294.056 203.328C297.631 204.263 301.551 203.757 303.991 202.242C304.756 201.767 305.377 201.193 305.793 200.531L307.741 197.454C312.988 197.907 318.195 197.978 323.284 197.691L325.602 200.825C327.684 203.652 333.12 205.066 337.687 203.98L354.294 200.028C355.43 199.755 356.411 199.353 357.212 198.856C359.614 197.366 360.369 195.037 358.804 192.92L356.486 189.78C358.607 188.78 360.618 187.685 362.507 186.513C364.126 185.508 365.656 184.447 367.089 183.326L372.311 184.684C375.894 185.621 379.808 185.114 382.248 183.6C383.014 183.125 383.632 182.552 384.054 181.894L390.436 171.843C392.194 169.079 389.788 165.817 385.084 164.588L379.856 163.225C380.284 160.091 380.09 156.949 379.306 153.86L384.387 152.651C385.528 152.381 386.506 151.978 387.305 151.482C389.709 149.991 390.461 147.662 388.899 145.545L381.328 135.287C379.244 132.469 373.796 131.047 369.241 132.139L364.163 133.346C360.833 130.862 357.025 128.584 352.788 126.559L354.739 123.485C356.49 120.723 354.09 117.458 349.38 116.235L332.29 111.773C328.711 110.842 324.796 111.347 322.353 112.863C321.589 113.337 320.966 113.911 320.549 114.572L318.594 117.641C313.361 117.198 308.15 117.12 303.057 117.41L300.748 114.275C298.658 111.452 293.223 110.035 288.656 111.122L272.05 115.074C270.911 115.348 269.93 115.749 269.128 116.247C266.727 117.737 265.976 120.062 267.538 122.183L269.851 125.318C267.733 126.321 265.721 127.412 263.832 128.585C262.215 129.588 260.687 130.65 259.254 131.773L254.027 130.411ZM290.1 173.233C276.36 165.156 275.421 152.267 288.002 144.445C300.583 136.624 321.92 136.831 335.659 144.909C349.399 152.987 350.338 165.875 337.757 173.697C325.176 181.518 303.839 181.311 290.1 173.233Z" fill="white"/>
<path d="M244.099 131.495L244.321 131.854L244.321 131.854L244.099 131.495ZM254.027 130.411L253.92 130.819L253.92 130.82L254.027 130.411ZM242.294 133.209L242.65 133.436L242.651 133.434L242.294 133.209ZM235.9 143.254L235.544 143.027L235.544 143.028L235.9 143.254ZM241.259 150.51L241.152 150.918L241.152 150.918L241.259 150.51ZM246.486 151.874L246.904 151.931L246.955 151.56L246.593 151.465L246.486 151.874ZM247.033 161.237L247.131 161.648L247.547 161.549L247.442 161.134L247.033 161.237ZM241.957 162.448L242.055 162.859L242.055 162.859L241.957 162.448ZM239.036 163.618L238.814 163.26H238.814L239.036 163.618ZM237.443 169.553L237.103 169.803L237.104 169.804L237.443 169.553ZM245.016 179.812L244.676 180.063L244.676 180.063L245.016 179.812ZM257.102 182.966L257.2 183.377L257.2 183.377L257.102 182.966ZM262.176 181.754L262.428 181.416L262.27 181.298L262.078 181.344L262.176 181.754ZM273.558 188.541L273.915 188.768L274.17 188.366L273.74 188.16L273.558 188.541ZM271.606 191.612L271.25 191.386L271.25 191.386L271.606 191.612ZM276.96 198.866L277.067 198.458L277.067 198.458L276.96 198.866ZM294.056 203.328L294.162 202.92L294.162 202.92L294.056 203.328ZM303.991 202.242L304.213 202.601L303.991 202.242ZM305.793 200.531L305.437 200.306L305.436 200.307L305.793 200.531ZM307.741 197.454L307.777 197.033L307.522 197.011L307.384 197.228L307.741 197.454ZM323.284 197.691L323.624 197.44L323.488 197.257L323.261 197.27L323.284 197.691ZM325.602 200.825L325.941 200.575L325.941 200.574L325.602 200.825ZM337.687 203.98L337.785 204.391L337.785 204.391L337.687 203.98ZM354.294 200.028L354.391 200.438L354.392 200.438L354.294 200.028ZM357.212 198.856L356.99 198.498L357.212 198.856ZM358.804 192.92L358.464 193.171L358.465 193.171L358.804 192.92ZM356.486 189.78L356.306 189.399L355.842 189.618L356.147 190.031L356.486 189.78ZM362.507 186.513L362.284 186.154L362.284 186.154L362.507 186.513ZM367.089 183.326L367.195 182.918L366.993 182.865L366.829 182.994L367.089 183.326ZM372.311 184.684L372.418 184.276L372.417 184.276L372.311 184.684ZM382.248 183.6L382.471 183.958L382.248 183.6ZM384.054 181.894L384.409 182.121L384.41 182.12L384.054 181.894ZM390.436 171.843L390.08 171.617L390.08 171.617L390.436 171.843ZM385.084 164.588L385.19 164.18L385.19 164.18L385.084 164.588ZM379.856 163.225L379.438 163.168L379.388 163.539L379.75 163.633L379.856 163.225ZM379.306 153.86L379.208 153.45L378.791 153.549L378.897 153.964L379.306 153.86ZM384.387 152.651L384.29 152.24L384.289 152.24L384.387 152.651ZM387.305 151.482L387.083 151.124L387.305 151.482ZM388.899 145.545L389.239 145.295L389.239 145.295L388.899 145.545ZM381.328 135.287L381.668 135.036L381.667 135.036L381.328 135.287ZM369.241 132.139L369.338 132.55L369.339 132.55L369.241 132.139ZM364.163 133.346L363.911 133.685L364.069 133.803L364.261 133.757L364.163 133.346ZM352.788 126.559L352.432 126.333L352.177 126.735L352.606 126.94L352.788 126.559ZM354.739 123.485L355.095 123.711L355.095 123.711L354.739 123.485ZM349.38 116.235L349.274 116.643L349.274 116.643L349.38 116.235ZM332.29 111.773L332.396 111.365L332.396 111.365L332.29 111.773ZM322.353 112.863L322.13 112.505V112.505L322.353 112.863ZM320.549 114.572L320.905 114.799L320.905 114.797L320.549 114.572ZM318.594 117.641L318.558 118.062L318.813 118.083L318.95 117.868L318.594 117.641ZM303.057 117.41L302.717 117.66L302.853 117.844L303.081 117.831L303.057 117.41ZM300.748 114.275L301.088 114.024L301.088 114.023L300.748 114.275ZM288.656 111.122L288.754 111.533L288.754 111.533L288.656 111.122ZM272.05 115.074L271.953 114.664L271.952 114.664L272.05 115.074ZM269.128 116.247L269.351 116.605L269.128 116.247ZM267.538 122.183L267.198 122.433L267.198 122.434L267.538 122.183ZM269.851 125.318L270.032 125.699L270.496 125.48L270.191 125.067L269.851 125.318ZM263.832 128.585L263.609 128.226V128.226L263.832 128.585ZM259.254 131.773L259.147 132.182L259.35 132.235L259.514 132.106L259.254 131.773ZM288.002 144.445L287.779 144.087L288.002 144.445ZM290.1 173.233L289.886 173.597L290.1 173.233ZM335.659 144.909L335.445 145.273L335.659 144.909ZM244.321 131.854C246.644 130.412 250.434 129.909 253.92 130.819L254.133 130.003C250.468 129.046 246.431 129.551 243.876 131.137L244.321 131.854ZM242.651 133.434C243.028 132.836 243.596 132.304 244.321 131.854L243.876 131.137C243.069 131.638 242.397 132.254 241.937 132.984L242.651 133.434ZM236.256 143.481L242.65 133.436L241.938 132.983L235.544 143.027L236.256 143.481ZM241.366 150.102C239.077 149.504 237.395 148.423 236.498 147.208C235.614 146.012 235.486 144.695 236.256 143.48L235.544 143.028C234.559 144.58 234.76 146.277 235.819 147.71C236.864 149.124 238.739 150.288 241.152 150.918L241.366 150.102ZM246.593 151.465L241.365 150.102L241.152 150.918L246.38 152.282L246.593 151.465ZM247.442 161.134C246.673 158.099 246.483 155.012 246.904 151.931L246.068 151.816C245.631 155.008 245.829 158.205 246.624 161.341L247.442 161.134ZM242.055 162.859L247.131 161.648L246.935 160.827L241.859 162.038L242.055 162.859ZM239.259 163.977C240.012 163.509 240.954 163.121 242.055 162.859L241.859 162.038C240.684 162.318 239.655 162.737 238.814 163.26L239.259 163.977ZM237.783 169.303C237.071 168.337 236.907 167.359 237.16 166.466C237.417 165.561 238.12 164.683 239.259 163.977L238.814 163.26C237.549 164.044 236.677 165.076 236.348 166.236C236.016 167.409 236.256 168.653 237.103 169.803L237.783 169.303ZM245.355 179.561L237.783 169.302L237.104 169.804L244.676 180.063L245.355 179.561ZM257.005 182.556C254.796 183.081 252.365 183.001 250.236 182.446C248.098 181.888 246.319 180.866 245.355 179.561L244.676 180.063C245.796 181.579 247.779 182.677 250.023 183.262C252.275 183.85 254.846 183.937 257.2 183.377L257.005 182.556ZM262.078 181.344L257.004 182.556L257.2 183.377L262.274 182.165L262.078 181.344ZM273.74 188.16C269.524 186.149 265.737 183.88 262.428 181.416L261.924 182.092C265.281 184.593 269.115 186.89 273.377 188.922L273.74 188.16ZM271.963 191.839L273.915 188.768L273.202 188.315L271.25 191.386L271.963 191.839ZM277.067 198.458C274.779 197.862 273.097 196.782 272.2 195.567C271.317 194.372 271.19 193.054 271.963 191.839L271.25 191.386C270.263 192.938 270.463 194.636 271.521 196.069C272.566 197.483 274.441 198.646 276.854 199.275L277.067 198.458ZM294.162 202.92L277.067 198.458L276.854 199.275L293.949 203.736L294.162 202.92ZM303.768 201.884C301.444 203.326 297.648 203.831 294.162 202.92L293.949 203.736C297.615 204.695 301.657 204.187 304.213 202.601L303.768 201.884ZM305.436 200.307C305.061 200.902 304.492 201.434 303.768 201.884L304.213 202.601C305.019 202.101 305.692 201.484 306.15 200.756L305.436 200.307ZM307.384 197.228L305.437 200.306L306.15 200.757L308.098 197.68L307.384 197.228ZM323.261 197.27C318.191 197.556 313.005 197.485 307.777 197.033L307.705 197.874C312.972 198.329 318.198 198.401 323.308 198.112L323.261 197.27ZM325.941 200.574L323.624 197.44L322.945 197.942L325.262 201.076L325.941 200.574ZM337.589 203.57C335.378 204.095 332.948 204.017 330.819 203.461C328.682 202.904 326.905 201.882 325.941 200.575L325.262 201.076C326.381 202.595 328.363 203.693 330.606 204.278C332.858 204.865 335.429 204.951 337.785 204.391L337.589 203.57ZM354.196 199.617L337.589 203.57L337.785 204.391L354.391 200.438L354.196 199.617ZM356.99 198.498C356.232 198.968 355.294 199.353 354.195 199.617L354.392 200.438C355.565 200.156 356.59 199.739 357.435 199.215L356.99 198.498ZM358.465 193.171C359.179 194.137 359.343 195.115 359.09 196.008C358.832 196.913 358.128 197.791 356.99 198.498L357.435 199.215C358.698 198.431 359.572 197.399 359.902 196.239C360.235 195.065 359.994 193.821 359.143 192.67L358.465 193.171ZM356.147 190.031L358.464 193.171L359.144 192.67L356.826 189.53L356.147 190.031ZM362.284 186.154C360.409 187.318 358.412 188.405 356.306 189.399L356.666 190.162C358.801 189.155 360.826 188.053 362.73 186.871L362.284 186.154ZM366.829 182.994C365.41 184.105 363.892 185.157 362.284 186.154L362.729 186.871C364.36 185.859 365.903 184.79 367.349 183.659L366.829 182.994ZM372.417 184.276L367.195 182.918L366.983 183.735L372.205 185.093L372.417 184.276ZM382.026 183.241C379.702 184.684 375.911 185.189 372.418 184.276L372.204 185.092C375.877 186.053 379.915 185.545 382.471 183.958L382.026 183.241ZM383.698 181.666C383.318 182.26 382.75 182.792 382.026 183.241L382.471 183.958C383.277 183.458 383.947 182.843 384.409 182.121L383.698 181.666ZM390.08 171.617L383.698 181.667L384.41 182.12L390.793 172.07L390.08 171.617ZM384.977 164.997C387.267 165.595 388.948 166.676 389.844 167.891C390.726 169.086 390.852 170.403 390.08 171.617L390.793 172.07C391.778 170.519 391.58 168.823 390.523 167.39C389.479 165.975 387.605 164.811 385.19 164.18L384.977 164.997ZM379.75 163.633L384.977 164.997L385.19 164.18L379.963 162.816L379.75 163.633ZM378.897 153.964C379.668 157.002 379.858 160.09 379.438 163.168L380.275 163.282C380.709 160.093 380.512 156.897 379.715 153.756L378.897 153.964ZM384.289 152.24L379.208 153.45L379.403 154.271L384.484 153.061L384.289 152.24ZM387.083 151.124C386.328 151.593 385.392 151.98 384.29 152.24L384.484 153.062C385.663 152.783 386.685 152.364 387.528 151.841L387.083 151.124ZM388.56 145.796C389.272 146.761 389.437 147.739 389.183 148.633C388.926 149.539 388.222 150.417 387.083 151.124L387.528 151.841C388.793 151.056 389.666 150.024 389.995 148.863C390.328 147.69 390.088 146.445 389.239 145.295L388.56 145.796ZM380.989 135.538L388.56 145.796L389.239 145.295L381.668 135.036L380.989 135.538ZM369.339 132.55C371.544 132.021 373.974 132.1 376.105 132.655C378.244 133.213 380.025 134.235 380.989 135.538L381.667 135.036C380.547 133.522 378.562 132.424 376.318 131.839C374.065 131.251 371.493 131.165 369.142 131.729L369.339 132.55ZM364.261 133.757L369.338 132.55L369.143 131.729L364.066 132.936L364.261 133.757ZM352.606 126.94C356.821 128.954 360.605 131.219 363.911 133.685L364.416 133.008C361.061 130.506 357.229 128.214 352.97 126.179L352.606 126.94ZM354.382 123.259L352.432 126.333L353.144 126.785L355.095 123.711L354.382 123.259ZM349.274 116.643C351.566 117.239 353.247 118.319 354.143 119.533C355.025 120.729 355.151 122.046 354.382 123.259L355.095 123.711C356.077 122.161 355.879 120.465 354.822 119.032C353.778 117.618 351.904 116.454 349.486 115.826L349.274 116.643ZM332.183 112.182L349.274 116.643L349.487 115.826L332.396 111.365L332.183 112.182ZM322.575 113.222C324.903 111.777 328.694 111.273 332.183 112.182L332.396 111.365C328.727 110.41 324.69 110.916 322.13 112.505L322.575 113.222ZM320.905 114.797C321.281 114.203 321.852 113.671 322.575 113.222L322.13 112.505C321.326 113.004 320.651 113.62 320.192 114.347L320.905 114.797ZM318.95 117.868L320.905 114.799L320.193 114.345L318.238 117.415L318.95 117.868ZM303.081 117.831C308.154 117.543 313.344 117.62 318.558 118.062L318.63 117.221C313.377 116.776 308.147 116.698 303.033 116.988L303.081 117.831ZM300.409 114.525L302.717 117.66L303.397 117.159L301.088 114.024L300.409 114.525ZM288.754 111.533C290.965 111.007 293.395 111.086 295.524 111.641C297.662 112.198 299.442 113.22 300.409 114.526L301.088 114.023C299.964 112.507 297.981 111.409 295.737 110.824C293.485 110.237 290.914 110.151 288.558 110.712L288.754 111.533ZM272.148 115.485L288.754 111.533L288.558 110.712L271.953 114.664L272.148 115.485ZM269.351 116.605C270.108 116.135 271.046 115.749 272.149 115.485L271.952 114.664C270.776 114.946 269.751 115.363 268.906 115.888L269.351 116.605ZM267.878 121.933C267.165 120.965 267 119.986 267.253 119.093C267.509 118.188 268.213 117.311 269.351 116.605L268.906 115.888C267.642 116.672 266.77 117.703 266.441 118.863C266.109 120.036 266.349 121.281 267.198 122.433L267.878 121.933ZM270.191 125.067L267.877 121.932L267.198 122.434L269.512 125.569L270.191 125.067ZM264.054 128.943C265.93 127.78 267.927 126.696 270.032 125.699L269.671 124.937C267.538 125.946 265.513 127.045 263.609 128.226L264.054 128.943ZM259.514 132.106C260.935 130.992 262.45 129.939 264.054 128.943L263.609 128.226C261.981 129.237 260.44 130.308 258.994 131.441L259.514 132.106ZM253.92 130.82L259.147 132.182L259.36 131.365L254.133 130.003L253.92 130.82ZM287.779 144.087C281.398 148.054 278.366 153.364 278.76 158.774C279.153 164.169 282.944 169.516 289.886 173.597L290.314 172.87C283.516 168.873 279.968 163.737 279.602 158.713C279.237 153.703 282.025 148.658 288.225 144.804L287.779 144.087ZM335.873 144.545C328.928 140.462 320.083 138.378 311.4 138.293C302.72 138.209 294.155 140.123 287.779 144.087L288.225 144.804C294.429 140.946 302.824 139.054 311.392 139.137C319.958 139.22 328.652 141.279 335.445 145.273L335.873 144.545ZM337.98 174.055C344.362 170.088 347.394 164.778 346.999 159.368C346.606 153.973 342.815 148.626 335.873 144.545L335.445 145.273C342.243 149.269 345.791 154.405 346.158 159.43C346.523 164.439 343.734 169.484 337.534 173.338L337.98 174.055ZM289.886 173.597C296.831 177.68 305.676 179.765 314.359 179.849C323.039 179.934 331.604 178.019 337.98 174.055L337.534 173.338C331.33 177.196 322.935 179.089 314.367 179.005C305.801 178.922 297.108 176.864 290.314 172.87L289.886 173.597Z" fill="#1B127D"/>
<path fill-rule="evenodd" clip-rule="evenodd" d="M283.163 167.618C276.561 159.981 278.056 150.628 288.004 144.444C300.584 136.622 321.921 136.83 335.661 144.908C347.291 151.745 349.75 162.03 342.6 169.771C340.852 167.749 338.537 165.847 335.661 164.157C321.922 156.079 300.585 155.871 288.004 163.693C286.072 164.894 284.459 166.214 283.163 167.618Z" fill="white"/>
<path d="M288.004 144.444L287.781 144.086L288.004 144.444ZM283.163 167.618L282.844 167.894L283.152 168.251L283.473 167.904L283.163 167.618ZM335.661 144.908L335.447 145.271L335.661 144.908ZM342.6 169.771L342.28 170.047L342.589 170.404L342.91 170.057L342.6 169.771ZM335.661 164.157L335.875 163.793L335.661 164.157ZM288.004 163.693L287.781 163.335L288.004 163.693ZM287.781 144.086C282.736 147.222 279.783 151.195 278.963 155.405C278.142 159.622 279.475 163.997 282.844 167.894L283.482 167.342C280.249 163.602 279.029 159.482 279.791 155.567C280.555 151.646 283.323 147.851 288.226 144.802L287.781 144.086ZM335.875 144.544C328.929 140.46 320.084 138.376 311.402 138.292C302.721 138.207 294.157 140.121 287.781 144.086L288.226 144.802C294.431 140.945 302.826 139.052 311.394 139.136C319.96 139.219 328.653 141.277 335.447 145.271L335.875 144.544ZM342.91 170.057C346.571 166.093 347.797 161.44 346.581 156.891C345.369 152.359 341.753 147.999 335.875 144.544L335.447 145.271C341.199 148.653 344.628 152.855 345.765 157.109C346.898 161.347 345.778 165.708 342.29 169.484L342.91 170.057ZM342.919 169.495C341.137 167.433 338.784 165.503 335.875 163.793L335.447 164.52C338.29 166.192 340.567 168.065 342.28 170.047L342.919 169.495ZM335.875 163.793C328.929 159.709 320.085 157.625 311.402 157.541C302.721 157.456 294.157 159.371 287.781 163.335L288.226 164.051C294.431 160.194 302.826 158.301 311.394 158.385C319.96 158.468 328.653 160.526 335.447 164.52L335.875 163.793ZM287.781 163.335C285.821 164.553 284.178 165.897 282.853 167.332L283.473 167.904C284.741 166.531 286.323 165.235 288.226 164.051L287.781 163.335Z" fill="#1B127D"/>
<path fill-rule="evenodd" clip-rule="evenodd" d="M236.768 186.418C236.768 186.418 236.589 187.876 237.264 189.116C237.939 190.356 245.654 200.736 245.654 200.736C245.654 200.736 250.039 204.576 255.852 203.35C261.665 202.123 262.176 201.809 262.176 201.809L262.176 181.755L255.852 183.21C255.852 183.21 249.161 183.629 246.019 180.851C242.877 178.073 236.563 168.139 236.563 168.139L236.768 186.418Z" fill="white" stroke="#1B127D" stroke-width="0.843964"/>
<path fill-rule="evenodd" clip-rule="evenodd" d="M271.186 193.689C271.186 200.142 271.186 212.705 271.186 212.705C271.186 212.705 270.653 216.725 274.381 218.015C278.109 219.305 295.877 223.799 295.877 223.799C295.877 223.799 302.654 224.4 305.252 221.017C305.858 220.228 306.762 219.201 307.741 217.508C307.741 207.254 307.741 197.453 307.741 197.453L305.252 201.305C305.252 201.305 301.946 204.358 295.877 203.645C289.807 202.932 274.381 198.121 274.381 198.121C274.381 198.121 271.186 196.17 271.186 193.689Z" fill="white" stroke="#1B127D" stroke-width="0.843964"/>
<path fill-rule="evenodd" clip-rule="evenodd" d="M323.284 197.69L323.284 217.745C323.284 217.745 324.424 219.308 326.161 221.599C327.897 223.89 333.933 224.911 336.522 224.4C339.111 223.89 352.305 220.69 355.53 219.785C358.755 218.879 359.719 216.108 359.719 215.403C359.719 214.699 359.719 194.813 359.719 194.813C359.719 194.813 358.962 198.536 355.843 199.445C352.724 200.353 339.363 203.321 336.522 204.053C333.681 204.786 328.362 203.321 327.419 202.506C326.476 201.691 323.284 197.69 323.284 197.69Z" fill="white" stroke="#1B127D" stroke-width="0.843964"/>
<path fill-rule="evenodd" clip-rule="evenodd" d="M367.09 183.327L367.09 203.382C367.09 203.382 370.205 204.346 373.795 205.232C375.805 205.675 381.884 205.24 383.752 202.443C385.62 199.646 390.759 191.311 390.759 191.311C390.759 191.311 391.013 190.503 391.013 189.057C391.013 187.611 391.013 170.01 391.013 170.01C391.013 170.01 391.25 170.671 390.437 171.844C389.625 173.016 383.405 182.477 383.405 182.477C383.405 182.477 378.618 185.893 374.304 184.938C369.99 183.983 367.09 183.327 367.09 183.327Z" fill="white" stroke="#1B127D" stroke-width="0.843964"/>
<path opacity="0.9" d="M390.406 101.534C390.406 130.417 355.665 153.831 312.809 153.831C269.954 153.831 235.213 130.417 235.213 101.534C235.213 96.5516 235.213 88.8912 235.213 65.9037C244.476 44.0068 277.347 49.2375 312.809 49.2375C349.196 49.2375 381.069 40.2561 389.459 63.0303C390.95 67.079 390.406 97.1746 390.406 101.534Z" fill="#DFE4E8"/>
<path d="M390.643 115.391C390.643 129.134 382.071 141.633 368.094 150.716C354.121 159.797 334.792 165.427 313.42 165.427C292.049 165.427 272.72 159.797 258.747 150.716C244.77 141.633 236.198 129.134 236.198 115.391C236.198 101.648 244.77 89.1489 258.747 80.0659C272.72 70.9855 292.049 65.3553 313.42 65.3553C334.792 65.3553 354.121 70.9855 368.094 80.0659C382.071 89.1489 390.643 101.648 390.643 115.391Z" fill="#F2F4F6" fill-opacity="0.9" stroke="#1B127D" stroke-width="0.843964"/>
<path d="M273.519 113.791C270.831 115.156 266.916 114.875 264.773 113.163C262.63 111.452 263.071 108.958 265.759 107.594C268.446 106.229 272.362 106.51 274.505 108.221C276.648 109.933 276.206 112.427 273.519 113.791Z" fill="#1B127D"/>
<path d="M322.18 89.0805C324.868 87.7158 325.309 85.2221 323.166 83.5106C321.023 81.7992 317.108 81.5181 314.42 82.8828C311.733 84.2475 311.291 86.7412 313.434 88.4526C315.577 90.1641 319.493 90.4451 322.18 89.0805Z" fill="#ED26B7"/>
<path d="M310.314 143.18C307.627 144.545 303.711 144.264 301.568 142.552C299.425 140.841 299.867 138.347 302.554 136.982C305.242 135.618 309.157 135.899 311.3 137.61C313.443 139.322 313.002 141.815 310.314 143.18Z" fill="#1B127D"/>
<path d="M358.976 118.47C361.663 117.105 362.104 114.611 359.962 112.9C357.819 111.188 353.903 110.907 351.215 112.272C348.528 113.637 348.087 116.13 350.229 117.842C352.372 119.553 356.288 119.834 358.976 118.47Z" fill="#ED26B7"/>
<path d="M282.059 133.326C279.372 134.691 275.456 134.41 273.313 132.699C271.17 130.987 271.611 128.493 274.299 127.129C276.986 125.764 280.902 126.045 283.045 127.757C285.188 129.468 284.746 131.962 282.059 133.326Z" fill="#1B127D"/>
<path d="M350.188 98.7348C352.876 97.3701 353.317 94.8764 351.174 93.1649C349.031 91.4535 345.115 91.1724 342.428 92.5371C339.74 93.9018 339.299 96.3955 341.442 98.1069C343.585 99.8183 347.501 100.099 350.188 98.7348Z" fill="#ED26B7"/>
<path fill-rule="evenodd" clip-rule="evenodd" d="M298.674 96.6666L310.531 90.6457L309.428 89.7644L296.797 96.1782L304.429 116.013L284.567 126.099L285.671 126.981L306.307 116.502L298.674 96.6666Z" fill="#1B127D"/>
<path fill-rule="evenodd" clip-rule="evenodd" d="M286.674 103.253L344.792 120.782L345.379 119.801L286.323 101.99L278.569 105.927L279.673 106.809L286.674 103.253Z" fill="#1B127D"/>
<path fill-rule="evenodd" clip-rule="evenodd" d="M319.075 109.527L336.311 100.774L335.207 99.8931L317.282 108.996L322.369 131.104L314.865 134.915L315.969 135.796L324.162 131.636L319.075 109.527Z" fill="#1B127D"/>
<path d="M390.643 70.5599C390.643 84.0386 382.075 96.3011 368.097 105.215C354.123 114.125 334.793 119.651 313.42 119.651C292.048 119.651 272.718 114.125 258.744 105.215C244.766 96.3011 236.198 84.0386 236.198 70.5599C236.198 57.0813 244.766 44.8188 258.744 35.9051C272.718 26.9945 292.048 21.4693 313.42 21.4693C334.793 21.4693 354.123 26.9945 368.097 35.9051C382.075 44.8188 390.643 57.0813 390.643 70.5599Z" fill="#BFC9D1" fill-opacity="0.9" stroke="#1B127D" stroke-width="0.843964"/>
<path d="M356.656 77.8367C356.359 69.8555 349.361 63.5204 338.678 61.0442V47.1533C335.981 46.0677 333.11 45.1701 330.113 44.48V74.3643C330.113 80.2844 325.751 82.9279 318.741 82.9279C311.917 82.9279 306.208 79.6825 306.208 74.2554C306.208 68.1978 313.707 64.4984 323.526 64.4984C324.435 64.4881 325.361 64.5179 326.271 64.6074V59.319C325.361 59.2205 324.452 59.1712 323.526 59.1815C308.953 59.1815 297.534 64.8059 297.534 74.267C297.534 83.3638 307.84 88.2176 319.323 88.2176C324.765 88.2176 329.472 87.0528 332.72 85.05C335.966 83.0473 338.713 80.156 338.713 75.0752V66.7969C344.642 68.6622 348.219 73.1801 348.235 78.3504C348.204 88.0879 333.85 96.3168 317.019 96.3168C316.627 96.3168 316.328 96.3168 315.936 96.3064C304.391 96.2973 294.243 93.672 286.022 88.4926C280.107 84.7633 276.061 80.0172 274.429 74.8572C272.798 69.6869 273.629 64.3402 276.844 59.4656C280.045 54.6014 285.471 50.4377 292.436 47.5075C299.4 44.5773 307.59 43.0181 315.965 43.0181V37.5923C309.267 37.5923 302.632 38.4211 296.451 40.0296C290.27 41.638 284.64 44.0052 279.903 46.9756C270.334 52.9839 264.953 61.1428 264.953 69.648C264.953 78.1519 270.317 86.3121 279.87 92.3307C289.423 98.3494 302.395 101.734 315.918 101.734H317.001C321.158 101.734 325.3 101.329 329.284 100.549C329.301 100.549 329.315 100.539 329.331 100.539C335.088 99.4143 340.359 97.4998 344.783 94.9354C352.422 90.4953 356.627 84.6259 356.658 78.3802C356.672 78.3595 356.656 77.8471 356.656 77.8367Z" fill="white"/>
<defs>
<linearGradient id="paint0_linear_631_16320" x1="462.248" y1="339.449" x2="491.711" y2="385.647" gradientUnits="userSpaceOnUse">
<stop stop-color="#4387FD"/>
<stop offset="1" stop-color="#4683EA"/>
</linearGradient>
</defs>
</svg>
