<svg width="139" height="31" viewBox="0 0 139 31" fill="none" xmlns="http://www.w3.org/2000/svg">
<path fill-rule="evenodd" clip-rule="evenodd" d="M132.47 25.8663C132.14 25.8663 131.956 25.657 131.956 25.3715C131.956 25.0858 132.14 24.8765 132.47 24.8765C133.296 24.8765 133.663 24.6098 134.194 23.1639L134.542 22.2502L131.442 14.0097C131.424 13.9526 131.405 13.8576 131.405 13.7623C131.405 13.5152 131.608 13.2865 131.901 13.2865C132.122 13.2865 132.287 13.4008 132.378 13.6673L135.038 20.8421H135.057L137.644 13.6673C137.735 13.4008 137.9 13.2865 138.12 13.2865C138.413 13.2865 138.596 13.5152 138.596 13.7623C138.596 13.8576 138.579 13.9526 138.56 14.0097L135.112 23.3159C134.341 25.4285 133.716 25.8663 132.616 25.8663H132.47ZM126.788 21.9651V12.2781C126.788 10.1085 127.466 9.49945 129.228 9.49945H129.485C129.815 9.49945 129.999 9.70866 129.999 9.99437C129.999 10.2798 129.815 10.4892 129.485 10.4892C128.036 10.4892 127.779 10.7174 127.779 12.1448V13.2487C127.779 13.3248 127.816 13.3628 127.889 13.3628H129.539C129.852 13.3628 129.999 13.5532 129.999 13.8196C129.999 14.086 129.852 14.2766 129.539 14.2766H127.889C127.816 14.2766 127.779 14.3144 127.779 14.3903V21.9651C127.779 22.3265 127.576 22.517 127.284 22.517C126.989 22.517 126.788 22.3265 126.788 21.9651ZM123.768 21.9651V13.8385C123.768 13.4771 123.97 13.2865 124.264 13.2865C124.558 13.2865 124.759 13.4771 124.759 13.8385V21.9651C124.759 22.3265 124.558 22.517 124.264 22.517C123.97 22.517 123.768 22.3265 123.768 21.9651ZM123.494 10.223C123.494 9.78499 123.842 9.42365 124.264 9.42365C124.686 9.42365 125.034 9.78499 125.034 10.223C125.034 10.6605 124.686 11.0221 124.264 11.0221C123.842 11.0221 123.494 10.6605 123.494 10.223ZM117.261 21.9651V13.8385C117.261 13.4771 117.463 13.2865 117.756 13.2865C118.049 13.2865 118.252 13.4771 118.252 13.8385V14.7141H118.271C118.601 13.8005 119.426 13.1727 120.564 13.1727C121.261 13.1727 121.719 13.3628 122.067 13.5724C122.288 13.7053 122.36 13.8576 122.36 14.0289C122.36 14.3144 122.159 14.5427 121.865 14.5427C121.792 14.5427 121.7 14.5236 121.609 14.4857C121.205 14.2956 120.819 14.1622 120.38 14.1622C118.839 14.1622 118.252 15.5324 118.252 17.2265V21.9651C118.252 22.3265 118.049 22.517 117.756 22.517C117.463 22.517 117.261 22.3265 117.261 21.9651ZM114.449 17.2454C114.523 17.2454 114.56 17.2072 114.56 17.1311C114.56 16.5981 114.504 16.1982 114.395 15.8367C114.046 14.7141 113.184 14.1242 112.047 14.1242C110.909 14.1242 110.065 14.7141 109.717 15.8367C109.606 16.1982 109.551 16.5981 109.551 17.1311C109.551 17.2072 109.588 17.2454 109.662 17.2454H114.449ZM108.817 20.2523C108.635 19.681 108.543 19.0532 108.543 17.8925C108.543 16.7501 108.635 16.1226 108.817 15.5324C109.294 14.0097 110.487 13.1727 112.047 13.1727C113.623 13.1727 114.816 14.0097 115.293 15.5324C115.478 16.1033 115.569 16.7884 115.569 17.702C115.569 17.9873 115.385 18.1776 115.109 18.1776H109.662C109.588 18.1776 109.551 18.2156 109.551 18.2918C109.551 19.0341 109.588 19.4148 109.735 19.8712C110.12 21.0702 111.019 21.6414 112.211 21.6414C113.202 21.6414 113.917 21.3176 114.578 20.6136C114.669 20.5185 114.797 20.4234 114.944 20.4234C115.202 20.4234 115.385 20.6136 115.385 20.8613C115.385 20.9942 115.348 21.1084 115.275 21.2036C114.651 22.0222 113.606 22.6311 112.156 22.6311C110.468 22.6311 109.313 21.8125 108.817 20.2523ZM98.671 17.2454C98.7449 17.2454 98.7818 17.2072 98.7818 17.1311C98.7818 16.5981 98.7264 16.1982 98.6165 15.8367C98.2683 14.7141 97.4056 14.1242 96.2685 14.1242C95.1306 14.1242 94.2864 14.7141 93.9382 15.8367C93.8282 16.1982 93.7728 16.5981 93.7728 17.1311C93.7728 17.2072 93.8098 17.2454 93.8836 17.2454H98.671ZM93.0394 20.2523C92.8565 19.681 92.7642 19.0532 92.7642 17.8925C92.7642 16.7501 92.8565 16.1226 93.0394 15.5324C93.5161 14.0097 94.7085 13.1727 96.2685 13.1727C97.8453 13.1727 99.0377 14.0097 99.5152 15.5324C99.699 16.1033 99.7905 16.7884 99.7905 17.702C99.7905 17.9873 99.6067 18.1776 99.3323 18.1776H93.8836C93.8098 18.1776 93.7728 18.2156 93.7728 18.2918C93.7728 19.0341 93.8098 19.4148 93.9566 19.8712C94.3418 21.0702 95.2414 21.6414 96.433 21.6414C97.4241 21.6414 98.139 21.3176 98.8003 20.6136C98.8909 20.5185 99.0193 20.4234 99.1661 20.4234C99.4238 20.4234 99.6067 20.6136 99.6067 20.8613C99.6067 20.9942 99.5706 21.1084 99.4968 21.2036C98.8733 22.0222 97.8268 22.6311 96.3785 22.6311C94.69 22.6311 93.5345 21.8125 93.0394 20.2523ZM103.483 21.9267L99.575 10.1848C99.5566 10.1085 99.5381 10.0134 99.5381 9.93721C99.5381 9.63259 99.758 9.42365 100.052 9.42365C100.272 9.42365 100.455 9.57578 100.547 9.84223L104.124 20.6328H104.161L107.683 9.84223C107.775 9.57578 107.959 9.42365 108.179 9.42365C108.472 9.42365 108.693 9.63259 108.693 9.93721C108.693 10.0134 108.674 10.1277 108.656 10.1848L104.748 21.9267C104.62 22.3265 104.455 22.517 104.106 22.517C103.776 22.517 103.611 22.3265 103.483 21.9267ZM91.0854 22.517C89.747 22.517 89.2695 21.8699 89.2695 20.3853V9.99463C89.2695 9.6332 89.4717 9.44264 89.7655 9.44264C90.0583 9.44264 90.2597 9.6332 90.2597 9.99463V20.3472C90.2597 21.2418 90.4989 21.5269 91.2692 21.5269C91.599 21.5269 91.7828 21.7365 91.7828 22.0222C91.7828 22.3073 91.599 22.517 91.2692 22.517H91.0854ZM86.4074 20.0046C86.5909 19.4148 86.6462 18.8059 86.6462 17.8925C86.6462 16.9977 86.5909 16.3887 86.4074 15.7989C86.0776 14.7711 85.2885 14.1622 84.1692 14.1622C83.0684 14.1622 82.2615 14.6762 81.9126 15.7418C81.7668 16.2364 81.693 16.9977 81.693 17.8925C81.693 18.8059 81.7668 19.567 81.9126 20.0619C82.2615 21.1276 83.0684 21.6414 84.1692 21.6414C85.2885 21.6414 86.0776 21.0324 86.4074 20.0046ZM81.7115 21.2989H81.693V21.9651C81.693 22.3265 81.4914 22.517 81.1976 22.517C80.9042 22.517 80.7023 22.3265 80.7023 21.9651V9.97546C80.7023 9.61394 80.9042 9.42365 81.1976 9.42365C81.4914 9.42365 81.693 9.61394 81.693 9.97546V14.5046H81.7115C82.1328 13.7245 82.904 13.1727 84.3349 13.1727C85.8207 13.1727 86.8847 13.9909 87.3434 15.4183C87.5631 16.1604 87.6548 16.8647 87.6548 17.8925C87.6548 18.9391 87.5631 19.6432 87.3434 20.3853C86.8847 21.8125 85.8207 22.6311 84.3349 22.6311C82.904 22.6311 82.1328 22.0791 81.7115 21.2989ZM77.7855 21.9651V21.3368H77.7676C77.2723 22.1551 76.4471 22.6311 75.2176 22.6311C73.2913 22.6311 72.1904 21.375 72.1904 19.1674V13.8385C72.1904 13.4771 72.3922 13.2865 72.6861 13.2865C72.9795 13.2865 73.1807 13.4771 73.1807 13.8385V18.92C73.1807 20.7278 73.915 21.6414 75.4378 21.6414C76.7583 21.6414 77.7855 20.6708 77.7855 19.1104V13.8385C77.7855 13.4771 77.9878 13.2865 78.2811 13.2865C78.5746 13.2865 78.7769 13.4771 78.7769 13.8385V21.9651C78.7769 22.3265 78.5746 22.517 78.2811 22.517C77.9878 22.517 77.7855 22.3265 77.7855 21.9651ZM69.5387 19.9476C69.7039 19.4336 69.7772 18.8818 69.7772 17.8925C69.7772 16.9217 69.7039 16.3698 69.5387 15.8559C69.1904 14.7711 68.3464 14.1622 67.2088 14.1622C66.0899 14.1622 65.2461 14.7711 64.8975 15.8559C64.7325 16.3698 64.6594 16.9217 64.6594 17.8925C64.6594 18.8818 64.7325 19.4336 64.8975 19.9476C65.2461 21.0324 66.0899 21.6414 67.2088 21.6414C68.3464 21.6414 69.1904 21.0324 69.5387 19.9476ZM63.9434 20.2714C63.7602 19.6623 63.6506 18.9962 63.6506 17.8925C63.6506 16.8072 63.7602 16.1414 63.9434 15.5324C64.4207 14.0289 65.6134 13.1727 67.2088 13.1727C68.8239 13.1727 70.0158 14.0289 70.4929 15.5324C70.6764 16.1414 70.7864 16.8072 70.7864 17.8925C70.7864 18.9962 70.6764 19.6623 70.4929 20.2714C70.0158 21.7746 68.8239 22.6311 67.2088 22.6311C65.6134 22.6311 64.4207 21.7746 63.9434 20.2714ZM54.9966 21.4893H57.4917C59.3629 21.4893 60.3536 20.8424 60.8671 19.2244C61.1051 18.4444 61.1973 17.702 61.1973 16.0463C61.1973 14.3907 61.1051 13.6487 60.8671 12.868C60.3536 11.2507 59.3629 10.6035 57.4917 10.6035H54.9966C54.9233 10.6035 54.8865 10.6416 54.8865 10.7178V21.375C54.8865 21.4513 54.9233 21.4893 54.9966 21.4893ZM53.8408 10.0896C53.8408 9.7659 54.0433 9.57578 54.3544 9.57578H57.6382C59.9311 9.57578 61.2892 10.6224 61.8763 12.5066C62.1518 13.4011 62.243 14.1813 62.243 16.0463C62.243 17.9116 62.1518 18.6917 61.8763 19.5861C61.2892 21.4702 59.9311 22.517 57.6382 22.517H54.3544C54.0433 22.517 53.8408 22.3264 53.8408 22.003V10.0896Z" fill="#1C0D3F"/>
<path fill-rule="evenodd" clip-rule="evenodd" d="M1.96131 25.872C1.1542 25.872 0.5 25.1741 0.5 24.3129V6.50416C0.5 5.64303 1.1542 4.94507 1.96131 4.94507C2.76844 4.94507 3.42263 5.64303 3.42263 6.50416V24.3129C3.42263 25.1741 2.76844 25.872 1.96131 25.872Z" fill="#1C0D3F"/>
<path fill-rule="evenodd" clip-rule="evenodd" d="M8.42736 25.872H6.42338C5.57284 25.872 4.8833 25.1744 4.8833 24.3134C4.8833 23.4525 5.57284 22.7549 6.42338 22.7549H8.42736C12.4297 22.7549 15.6857 19.4593 15.6857 15.409C15.6857 11.3581 12.4297 8.06245 8.42736 8.06245H6.42338C5.57284 8.06245 4.8833 7.36455 4.8833 6.50368C4.8833 5.64282 5.57284 4.94507 6.42338 4.94507H8.42736C14.128 4.94507 18.7659 9.63912 18.7659 15.409C18.7659 21.1782 14.128 25.872 8.42736 25.872Z" fill="#1C0D3F"/>
<path fill-rule="evenodd" clip-rule="evenodd" d="M29.6925 25.8721C29.1288 25.8721 28.5894 25.5389 28.3354 24.9712L20.3685 7.16319C20.0193 6.38282 20.3435 5.4553 21.0924 5.09145C21.8412 4.72776 22.7312 5.06534 23.0805 5.84585L31.0475 23.6538C31.3965 24.4343 31.0725 25.3617 30.3236 25.7258C30.1194 25.825 29.9041 25.8721 29.6925 25.8721Z" fill="#1C0D3F"/>
<path fill-rule="evenodd" clip-rule="evenodd" d="M32.5214 19.8929C32.3157 19.8929 32.1071 19.8457 31.9084 19.7461C31.1813 19.3816 30.8667 18.4524 31.2058 17.6707L36.337 5.84712C36.6764 5.0655 37.5407 4.72707 38.2676 5.0921C38.9948 5.45654 39.3092 6.38569 38.97 7.16731L33.839 18.991C33.5925 19.5591 33.0685 19.8929 32.5214 19.8929Z" fill="#1C0D3F"/>
<path fill-rule="evenodd" clip-rule="evenodd" d="M46.5307 30.3544H46.896V0.458801H46.5307V30.3544Z" fill="#1C0D3F"/>
</svg>
