<svg width="160" height="179" viewBox="0 0 160 179" fill="none" xmlns="http://www.w3.org/2000/svg">
<path d="M116.604 139.379V159.155" stroke="#1C0D3F" stroke-width="0.666226" stroke-linecap="round" stroke-linejoin="round"/>
<path d="M120.89 139.379V159.155" stroke="#1C0D3F" stroke-width="0.666226" stroke-linecap="round" stroke-linejoin="round"/>
<path d="M124.956 139.379V159.155" stroke="#1C0D3F" stroke-width="0.666226" stroke-linecap="round" stroke-linejoin="round"/>
<path d="M59.6996 146.369L59.5073 123.884L44.9789 104.433V142.97" stroke="#1C0D3F" stroke-width="0.666226" stroke-linecap="round" stroke-linejoin="round"/>
<path d="M60.1393 155.14V159.156" stroke="#1C0D3F" stroke-width="0.666226" stroke-linecap="round" stroke-linejoin="round"/>
<path d="M51.9762 143.908H47.7532" stroke="#1C0D3F" stroke-width="0.666226" stroke-linecap="round" stroke-linejoin="round"/>
<path d="M51.9762 148.904H47.7532" stroke="#1C0D3F" stroke-width="0.666226" stroke-linecap="round" stroke-linejoin="round"/>
<path d="M51.9762 153.886H47.7532" stroke="#1C0D3F" stroke-width="0.666226" stroke-linecap="round" stroke-linejoin="round"/>
<path d="M38.1976 56.577L40.5256 59.3637L41.6458 59.3238L38.9276 56.4219H40.7455L38.0092 54.7363" stroke="#1C0D3F" stroke-width="0.666226" stroke-miterlimit="10"/>
<path d="M124.838 66.8256V64.8688H125.937V66.994L124.838 66.8256Z" stroke="#1C0D3F" stroke-width="0.666226" stroke-miterlimit="10"/>
<path d="M69.5769 45.036H64.9L70.4611 40.597" stroke="#1C0D3F" stroke-width="0.666226" stroke-linecap="round" stroke-linejoin="round"/>
<path d="M64.9 45.0361V68.5187" stroke="#1C0D3F" stroke-width="0.666226" stroke-linecap="round" stroke-linejoin="round"/>
<path d="M89.1354 45.4758H93.7019L88.2512 41.0369" stroke="#1C0D3F" stroke-width="0.666226" stroke-linecap="round" stroke-linejoin="round"/>
<path d="M93.7019 45.4758L93.344 68.9584" stroke="#1C0D3F" stroke-width="0.666226" stroke-linecap="round" stroke-linejoin="round"/>
<path d="M70.8303 39.1448H87.9381" stroke="#1C0D3F" stroke-width="0.666226" stroke-linecap="round" stroke-linejoin="round"/>
<path d="M112.859 127.621H87.9381V159.155H112.859V127.621Z" stroke="#1C0D3F" stroke-width="0.666226" stroke-linecap="round" stroke-linejoin="round"/>
<path d="M109.011 122.785H91.787V127.55H109.011V122.785Z" stroke="#1C0D3F" stroke-width="0.666226" stroke-linecap="round" stroke-linejoin="round"/>
<path d="M89.4875 131.137V129.965H111.394V131.137" stroke="#1C0D3F" stroke-width="0.666226" stroke-linecap="round" stroke-linejoin="round"/>
<path d="M89.4875 135.314V134.141H111.394V135.314" stroke="#1C0D3F" stroke-width="0.666226" stroke-linecap="round" stroke-linejoin="round"/>
<path d="M89.4875 139.489V138.317H111.394V139.489" stroke="#1C0D3F" stroke-width="0.666226" stroke-linecap="round" stroke-linejoin="round"/>
<path d="M89.4875 143.665V142.494H111.394V143.665" stroke="#1C0D3F" stroke-width="0.666226" stroke-linecap="round" stroke-linejoin="round"/>
<path d="M89.4875 148.061V146.889H111.394V148.061" stroke="#1C0D3F" stroke-width="0.666226" stroke-linecap="round" stroke-linejoin="round"/>
<path d="M89.4875 152.347V151.176H111.394V152.347" stroke="#1C0D3F" stroke-width="0.666226" stroke-linecap="round" stroke-linejoin="round"/>
<path d="M89.4875 156.523V155.351H111.394V156.523" stroke="#1C0D3F" stroke-width="0.666226" stroke-linecap="round" stroke-linejoin="round"/>
<path d="M131.96 159.265H28.0386" stroke="#1C0D3F" stroke-width="0.666226" stroke-linecap="round" stroke-linejoin="round"/>
<path d="M37.6894 162.238H67.2004" stroke="#1C0D3F" stroke-width="0.666226" stroke-linecap="round" stroke-linejoin="round"/>
<path d="M79.3837 162.238H85.2751" stroke="#1C0D3F" stroke-width="0.666226" stroke-linecap="round" stroke-linejoin="round"/>
<path d="M95.9348 162.238H128.304" stroke="#1C0D3F" stroke-width="0.666226" stroke-linecap="round" stroke-linejoin="round"/>
<path d="M38.3185 166.793H75.6044" stroke="#1C0D3F" stroke-width="0.666226" stroke-linecap="round" stroke-linejoin="round"/>
<path d="M82.9404 166.793H117.062" stroke="#1C0D3F" stroke-width="0.666226" stroke-linecap="round" stroke-linejoin="round"/>
<path d="M68.3406 170.81H97.6326" stroke="#1C0D3F" stroke-width="0.666226" stroke-linecap="round" stroke-linejoin="round"/>
<path d="M103.111 170.81H114.319" stroke="#1C0D3F" stroke-width="0.666226" stroke-linecap="round" stroke-linejoin="round"/>
<path d="M87.6687 145.322H79.0601V159.155" stroke="#1C0D3F" stroke-width="0.666226" stroke-linecap="round" stroke-linejoin="round"/>
<path d="M112.859 137.245H129.021V159.264" stroke="#1C0D3F" stroke-width="0.666226" stroke-linecap="round" stroke-linejoin="round"/>
<path d="M72.6472 146.889V159.232" stroke="#1C0D3F" stroke-width="0.666226" stroke-linecap="round" stroke-linejoin="round"/>
<path d="M62.7757 153.466V159.045" stroke="#1C0D3F" stroke-width="0.666226" stroke-linecap="round" stroke-linejoin="round"/>
<path d="M133.682 149.912V157.675" stroke="#1C0D3F" stroke-width="0.666226" stroke-linecap="round" stroke-linejoin="round"/>
<path d="M44.9789 104.433L53.8444 125.277V159.264" stroke="#1C0D3F" stroke-width="0.666226" stroke-linecap="round" stroke-linejoin="round"/>
<path d="M24.6304 156.147H39.0085V148.769H21.4249" stroke="#1C0D3F" stroke-width="0.666226" stroke-linecap="round" stroke-linejoin="round"/>
<path d="M22.5233 148.769V154.055" stroke="#1C0D3F" stroke-width="0.666226" stroke-linecap="round" stroke-linejoin="round"/>
<path d="M39.0085 148.769H40.2173" stroke="#1C0D3F" stroke-width="0.666226" stroke-linecap="round" stroke-linejoin="round"/>
<path d="M39.0085 156.146H40.2173" stroke="#1C0D3F" stroke-width="0.666226" stroke-linecap="round" stroke-linejoin="round"/>
<path d="M37.6894 159.051C38.4179 159.051 39.0085 158.461 39.0085 157.732C39.0085 157.004 38.4179 156.413 37.6894 156.413C36.9608 156.413 36.3702 157.004 36.3702 157.732C36.3702 158.461 36.9608 159.051 37.6894 159.051Z" stroke="#1C0D3F" stroke-width="0.666226" stroke-linecap="round" stroke-linejoin="round"/>
<path d="M26.8584 158.087C26.9251 157.929 26.8956 157.914 26.8956 157.731C26.8956 157.558 26.8614 157.386 26.7951 157.226C26.7289 157.066 26.6317 156.921 26.5092 156.798C26.3867 156.676 26.2413 156.579 26.0812 156.512C25.9212 156.446 25.7497 156.412 25.5764 156.412C25.3442 156.412 25.3147 156.366 25.1253 156.472" stroke="#1C0D3F" stroke-width="0.666226" stroke-linecap="round" stroke-linejoin="round"/>
<path d="M59.5074 123.884L53.8444 125.277" stroke="#1C0D3F" stroke-width="0.666226" stroke-linecap="round" stroke-linejoin="round"/>
<path d="M24.0984 148.768V147.475" stroke="#1C0D3F" stroke-width="0.666226" stroke-linecap="round" stroke-linejoin="round"/>
<path d="M37.579 148.768V147.475" stroke="#1C0D3F" stroke-width="0.666226" stroke-linecap="round" stroke-linejoin="round"/>
<path d="M39.0086 147.328H22.5233" stroke="#1C0D3F" stroke-width="0.666226" stroke-linecap="round" stroke-linejoin="round"/>
<path d="M36.7281 155.943V150.146C36.7289 149.847 36.8479 149.561 37.059 149.35C37.2702 149.139 37.5564 149.02 37.855 149.019C38.154 149.019 38.4407 149.138 38.6522 149.349C38.8638 149.56 38.983 149.847 38.9838 150.146V155.943" stroke="#1C0D3F" stroke-width="0.666226" stroke-linecap="round" stroke-linejoin="round"/>
<path d="M34.4754 155.943V150.146C34.4761 149.847 34.5951 149.561 34.8062 149.35C35.0174 149.139 35.3036 149.02 35.6022 149.019C35.9009 149.02 36.1871 149.139 36.3982 149.35C36.6094 149.561 36.7284 149.847 36.7291 150.146V155.943" stroke="#1C0D3F" stroke-width="0.666226" stroke-linecap="round" stroke-linejoin="round"/>
<path d="M24.777 155.943V150.146C24.7777 149.847 24.8967 149.561 25.1078 149.35C25.319 149.139 25.6052 149.02 25.9038 149.019C26.2025 149.02 26.4887 149.139 26.6998 149.35C26.911 149.561 27.03 149.847 27.0307 150.146V155.943" stroke="#1C0D3F" stroke-width="0.666226" stroke-linecap="round" stroke-linejoin="round"/>
<path d="M22.5233 154.055V150.146C22.524 149.847 22.643 149.561 22.8541 149.35C23.0653 149.139 23.3515 149.02 23.6501 149.019C23.9488 149.02 24.235 149.139 24.4461 149.35C24.6573 149.561 24.7763 149.847 24.777 150.146V155.943" stroke="#1C0D3F" stroke-width="0.666226" stroke-linecap="round" stroke-linejoin="round"/>
<path d="M27.0022 149.902H34.4744" stroke="#1C0D3F" stroke-width="0.666226" stroke-linecap="round" stroke-linejoin="round"/>
<path d="M47.4705 143.079H35.6012V147.219" stroke="#1C0D3F" stroke-width="0.666226" stroke-linecap="round" stroke-linejoin="round"/>
<path d="M47.4705 159.156V143.079" stroke="#1C0D3F" stroke-width="0.666226" stroke-linecap="round" stroke-linejoin="round"/>
<path d="M44.8694 134.727H8.88076" stroke="#1C0D3F" stroke-width="0.666226" stroke-linecap="round" stroke-linejoin="round"/>
<path d="M44.9788 140.955H12.5212" stroke="#1C0D3F" stroke-width="0.666226" stroke-linecap="round" stroke-linejoin="round"/>
<path d="M10.791 138.43C11.6771 137.072 13.3331 136.16 15.229 136.16C18.0585 136.16 20.3532 138.193 20.3532 140.701" stroke="#1C0D3F" stroke-width="0.666226" stroke-linecap="round" stroke-linejoin="round"/>
<path d="M22.5509 140.701C22.5509 138.194 24.8446 136.16 27.6751 136.16C30.5056 136.16 32.7974 138.194 32.7974 140.701" stroke="#1C0D3F" stroke-width="0.666226" stroke-linecap="round" stroke-linejoin="round"/>
<path d="M35.1616 140.701C35.1616 138.194 37.4553 136.16 40.2858 136.16C42.3949 136.16 44.2061 137.288 44.9922 138.902" stroke="#1C0D3F" stroke-width="0.666226" stroke-linecap="round" stroke-linejoin="round"/>
<path d="M33.4675 111.941H21.8409V134.726H33.4675V111.941Z" stroke="#1C0D3F" stroke-width="0.666226" stroke-linecap="round" stroke-linejoin="round"/>
<path d="M32.1226 106.037H23.1846V111.942H32.1226V106.037Z" stroke="#1C0D3F" stroke-width="0.666226" stroke-linecap="round" stroke-linejoin="round"/>
<path d="M30.2258 100.893H25.0825V106.037H30.2258V100.893Z" stroke="#1C0D3F" stroke-width="0.666226" stroke-linecap="round" stroke-linejoin="round"/>
<path d="M25.0825 100.893L27.6903 96.2479L30.2258 100.893" stroke="#1C0D3F" stroke-width="0.666226" stroke-linecap="round" stroke-linejoin="round"/>
<path d="M37.2867 134.727V93.4792H50.3276V111.593" stroke="#1C0D3F" stroke-width="0.666226" stroke-linecap="round" stroke-linejoin="round"/>
<path d="M50.3277 93.4792L54.3574 95.6036V116.966" stroke="#1C0D3F" stroke-width="0.666226" stroke-linecap="round" stroke-linejoin="round"/>
<path d="M40.3638 91.2075V93.4794" stroke="#1C0D3F" stroke-width="0.666226" stroke-linecap="round" stroke-linejoin="round"/>
<path d="M47.837 93.4794V91.2075" stroke="#1C0D3F" stroke-width="0.666226" stroke-linecap="round" stroke-linejoin="round"/>
<path d="M49.4121 86.226H38.6421V91.2084H49.4121V86.226Z" stroke="#1C0D3F" stroke-width="0.666226" stroke-linecap="round" stroke-linejoin="round"/>
<path d="M59.9299 134.727H82.7101V145.322" stroke="#1C0D3F" stroke-width="0.666226" stroke-linecap="round" stroke-linejoin="round"/>
<path d="M59.6616 129.234H75.4578V134.727" stroke="#1C0D3F" stroke-width="0.666226" stroke-linecap="round" stroke-linejoin="round"/>
<path d="M59.6616 131.504H75.4578" stroke="#1C0D3F" stroke-width="0.666226" stroke-linecap="round" stroke-linejoin="round"/>
<path d="M115.606 103.406V60.4002L118.317 60.2898V104.103" stroke="#1C0D3F" stroke-width="0.666226" stroke-linecap="round" stroke-linejoin="round"/>
<path d="M115.606 137.245V107.62" stroke="#1C0D3F" stroke-width="0.666226" stroke-linecap="round" stroke-linejoin="round"/>
<path d="M135.168 112.638V132.519" stroke="#1C0D3F" stroke-width="0.666226" stroke-linecap="round" stroke-linejoin="round"/>
<path d="M132.457 107.582V60.8389L135.168 60.7295V108.242" stroke="#1C0D3F" stroke-width="0.666226" stroke-linecap="round" stroke-linejoin="round"/>
<path d="M132.457 133.948V111.941" stroke="#1C0D3F" stroke-width="0.666226" stroke-linecap="round" stroke-linejoin="round"/>
<path d="M98.8214 99.2061L158.14 114.103" stroke="#1C0D3F" stroke-width="0.666226" stroke-linecap="round" stroke-linejoin="round"/>
<path d="M115.606 107.53L157.207 118.331" stroke="#1C0D3F" stroke-width="0.666226" stroke-miterlimit="10"/>
<path d="M99.5742 103.367L115.606 107.53L157.153 118.543" stroke="#1C0D3F" stroke-width="0.666226" stroke-linecap="round" stroke-linejoin="round"/>
<path d="M131.119 71.4996H119.655C118.916 71.4996 118.317 72.0987 118.317 72.8378V80.7849C118.317 81.524 118.916 82.1231 119.655 82.1231H131.119C131.858 82.1231 132.457 81.524 132.457 80.7849V72.8378C132.457 72.0987 131.858 71.4996 131.119 71.4996Z" stroke="#1C0D3F" stroke-width="0.666226" stroke-linecap="round" stroke-linejoin="round"/>
<path d="M131.119 87.5918H119.655C118.916 87.5918 118.317 88.1909 118.317 88.93V96.8771C118.317 97.6161 118.916 98.2153 119.655 98.2153H131.119C131.858 98.2153 132.457 97.6161 132.457 96.8771V88.93C132.457 88.1909 131.858 87.5918 131.119 87.5918Z" stroke="#1C0D3F" stroke-width="0.666226" stroke-linecap="round" stroke-linejoin="round"/>
<path d="M132.457 65.4484C132.456 65.858 132.293 66.2505 132.003 66.5402C131.714 66.8298 131.321 66.993 130.912 66.994H119.862C119.452 66.993 119.06 66.8298 118.77 66.5402C118.48 66.2505 118.317 65.858 118.316 65.4484" stroke="#1C0D3F" stroke-width="0.666226" stroke-linecap="round" stroke-linejoin="round"/>
<path d="M118.317 102.482C118.318 102.072 118.481 101.68 118.771 101.39C119.061 101.101 119.453 100.937 119.863 100.936H130.913C131.322 100.937 131.715 101.101 132.004 101.39C132.294 101.68 132.457 102.072 132.458 102.482" stroke="#1C0D3F" stroke-width="0.666226" stroke-linecap="round" stroke-linejoin="round"/>
<path d="M124.948 66.8684V64.9791H126.047V67.1034" stroke="#1C0D3F" stroke-width="0.666226" stroke-linecap="round" stroke-linejoin="round"/>
<path d="M115.606 60.3993C115.606 60.3993 117.359 76.4344 97.0587 89.4715" stroke="#1C0D3F" stroke-width="0.666226" stroke-linecap="round" stroke-linejoin="round"/>
<path d="M115.607 87.6869C110.944 91.3987 105.219 94.9649 98.493 97.3948" stroke="#1C0D3F" stroke-width="0.666226" stroke-linecap="round" stroke-linejoin="round"/>
<path d="M130.498 71.4996C130.498 71.4996 127.529 76.3717 121.812 82.1231" stroke="#1C0D3F" stroke-width="0.666226" stroke-linecap="round" stroke-linejoin="round"/>
<path d="M118.317 60.2898C118.317 60.2898 122.93 83.6172 159.264 106.036" stroke="#1C0D3F" stroke-width="0.666226" stroke-linecap="round" stroke-linejoin="round"/>
<path d="M135.169 60.7295C135.169 60.7295 137.49 73.7523 159.38 93.4783" stroke="#1C0D3F" stroke-width="0.666226" stroke-linecap="round" stroke-linejoin="round"/>
<path d="M124.532 114.671L118.317 119.773" stroke="#1C0D3F" stroke-width="0.666226" stroke-linecap="round" stroke-linejoin="round"/>
<path d="M129.126 111.015L125.809 113.811" stroke="#1C0D3F" stroke-width="0.666226" stroke-linecap="round" stroke-linejoin="round"/>
<path d="M125.607 115.435L118.317 121.54" stroke="#1C0D3F" stroke-width="0.666226" stroke-miterlimit="10"/>
<path d="M130.406 111.612L126.721 114.671" stroke="#1C0D3F" stroke-width="0.666226" stroke-linecap="round" stroke-linejoin="round"/>
<path d="M118.317 121.54H132.457L125.717 115.546L118.317 121.54Z" stroke="#1C0D3F" stroke-width="0.666226" stroke-linecap="round" stroke-linejoin="round"/>
<path d="M118.317 108.864L124.532 114.671" stroke="#1C0D3F" stroke-width="0.666226" stroke-linecap="round" stroke-linejoin="round"/>
<path d="M126.721 114.671L132.457 119.818" stroke="#1C0D3F" stroke-width="0.666226" stroke-linecap="round" stroke-linejoin="round"/>
<path d="M125.607 113.627L125.809 113.811" stroke="#1C0D3F" stroke-width="0.666226" stroke-linecap="round" stroke-linejoin="round"/>
<path d="M120.23 108.769L125.607 113.627" stroke="#1C0D3F" stroke-width="0.666226" stroke-linecap="round" stroke-linejoin="round"/>
<path d="M132.457 122.772H118.317L125.388 129.234L132.457 122.772Z" stroke="#1C0D3F" stroke-width="0.666226" stroke-linecap="round" stroke-linejoin="round"/>
<path d="M126.611 137.135L139.983 129.745V139.694" stroke="#1C0D3F" stroke-width="0.666226" stroke-linecap="round" stroke-linejoin="round"/>
<path d="M139.977 137.245L153.239 129.965" stroke="#1C0D3F" stroke-width="0.666226" stroke-linecap="round" stroke-linejoin="round"/>
<path d="M129.021 140.025H148.194" stroke="#1C0D3F" stroke-width="0.666226" stroke-linecap="round" stroke-linejoin="round"/>
<path d="M118.317 108.299V137.245L125.388 131.137L130.129 135.203" stroke="#1C0D3F" stroke-width="0.666226" stroke-linecap="round" stroke-linejoin="round"/>
<path d="M132.457 124.581L126.501 130.185L131.308 134.507" stroke="#1C0D3F" stroke-width="0.666226" stroke-linecap="round" stroke-linejoin="round"/>
<path d="M139.267 70.1005V109.15" stroke="#1C0D3F" stroke-width="0.666226" stroke-linecap="round" stroke-linejoin="round"/>
<path d="M145.931 79.5952V111.063" stroke="#1C0D3F" stroke-width="0.666226" stroke-linecap="round" stroke-linejoin="round"/>
<path d="M153.239 87.6946V112.743" stroke="#1C0D3F" stroke-width="0.666226" stroke-linecap="round" stroke-linejoin="round"/>
<path d="M109.011 78.8099V101.75" stroke="#1C0D3F" stroke-width="0.666226" stroke-linecap="round" stroke-linejoin="round"/>
<path d="M102.589 85.4247V100.108" stroke="#1C0D3F" stroke-width="0.666226" stroke-linecap="round" stroke-linejoin="round"/>
<path d="M59.6616 125.505H91.787" stroke="#1C0D3F" stroke-width="0.666226" stroke-linecap="round" stroke-linejoin="round"/>
<path d="M87.9986 148.061H81.384V151.761H87.9986" stroke="#1C0D3F" stroke-width="0.666226" stroke-miterlimit="10"/>
<path d="M44.8881 103.169H42.9646V106.191H44.8881V103.169Z" stroke="#1C0D3F" stroke-width="0.666226" stroke-miterlimit="10"/>
<path d="M44.8881 109.837H42.9646V112.859H44.8881V109.837Z" stroke="#1C0D3F" stroke-width="0.666226" stroke-miterlimit="10"/>
<path d="M44.8881 116.438H42.9646V119.46H44.8881V116.438Z" stroke="#1C0D3F" stroke-width="0.666226" stroke-miterlimit="10"/>
<path d="M44.8881 122.483H42.9646V125.505H44.8881V122.483Z" stroke="#1C0D3F" stroke-width="0.666226" stroke-miterlimit="10"/>
<path d="M44.8881 128.641H42.9646V131.663H44.8881V128.641Z" stroke="#1C0D3F" stroke-width="0.666226" stroke-miterlimit="10"/>
<path d="M71.1002 47.7618H87.6693L87.2771 45.4757H71.4466L71.1002 47.7618Z" stroke="#1C0D3F" stroke-width="0.666226" stroke-miterlimit="10"/>
<path d="M70.4616 52.1208H88.3079L87.8863 49.8347H70.8347L70.4616 52.1208Z" stroke="#1C0D3F" stroke-width="0.666226" stroke-miterlimit="10"/>
<path d="M69.7078 56.2972H89.0617L88.6039 54.0101H70.1123L69.7078 56.2972Z" stroke="#1C0D3F" stroke-width="0.666226" stroke-miterlimit="10"/>
<path d="M69.0958 60.6199H89.6737L89.1873 58.3329H69.526L69.0958 60.6199Z" stroke="#1C0D3F" stroke-width="0.666226" stroke-miterlimit="10"/>
<path d="M68.3411 64.8686H90.4275L89.9059 62.5825H68.8027L68.3411 64.8686Z" stroke="#1C0D3F" stroke-width="0.666226" stroke-miterlimit="10"/>
<path d="M67.7691 69.0449H91.0004L90.5559 66.7588H68.1488L67.7691 69.0449Z" stroke="#1C0D3F" stroke-width="0.666226" stroke-miterlimit="10"/>
<path d="M66.982 73.2031H91.7875L91.306 70.916H67.3951L66.982 73.2031Z" stroke="#1C0D3F" stroke-width="0.666226" stroke-miterlimit="10"/>
<path d="M66.2777 77.4526H92.4918L92.0816 75.1655H66.6146L66.2777 77.4526Z" stroke="#1C0D3F" stroke-width="0.666226" stroke-miterlimit="10"/>
<path d="M65.7181 81.628H93.0514L92.6146 79.3419H66.0788L65.7181 81.628Z" stroke="#1C0D3F" stroke-width="0.666226" stroke-miterlimit="10"/>
<path d="M65.1204 85.8414H93.6492L93.1848 83.5543H65.5059L65.1204 85.8414Z" stroke="#1C0D3F" stroke-width="0.666226" stroke-miterlimit="10"/>
<path d="M64.4666 89.9806H94.303L93.8072 87.6945H64.8796L64.4666 89.9806Z" stroke="#1C0D3F" stroke-width="0.666226" stroke-miterlimit="10"/>
<path d="M63.6823 94.2663H94.9769L94.5543 91.9802H64.1277L63.6823 94.2663Z" stroke="#1C0D3F" stroke-width="0.666226" stroke-miterlimit="10"/>
<path d="M63.0693 98.5339H95.4793L95.033 96.2478H63.5366L63.0693 98.5339Z" stroke="#1C0D3F" stroke-width="0.666226" stroke-miterlimit="10"/>
<path d="M62.2461 102.893H96.4131L95.922 100.607H62.7525L62.2461 102.893Z" stroke="#1C0D3F" stroke-width="0.666226" stroke-miterlimit="10"/>
<path d="M61.6008 107.18H97.0593L96.5377 104.893H62.1328L61.6008 107.18Z" stroke="#1C0D3F" stroke-width="0.666226" stroke-miterlimit="10"/>
<path d="M61.026 111.392H97.6332L97.1944 109.106H61.4733L61.026 111.392Z" stroke="#1C0D3F" stroke-width="0.666226" stroke-miterlimit="10"/>
<path d="M60.1399 115.751H98.4099L97.9292 113.465H60.7338L60.1399 115.751Z" stroke="#1C0D3F" stroke-width="0.666226" stroke-miterlimit="10"/>
<path d="M59.5079 120.038H98.8219L98.4365 117.751H60.0047L59.5079 120.038Z" stroke="#1C0D3F" stroke-width="0.666226" stroke-miterlimit="10"/>
<path d="M62.7762 156.579C64.9008 156.579 66.6232 153.792 66.6232 150.353C66.6232 146.914 64.9008 144.127 62.7762 144.127C60.6516 144.127 58.9292 146.914 58.9292 150.353C58.9292 153.792 60.6516 156.579 62.7762 156.579Z" stroke="#1C0D3F" stroke-width="0.666226" stroke-linecap="round" stroke-linejoin="round"/>
<path d="M72.6192 154.382C75.1954 154.382 77.2838 150.688 77.2838 146.131C77.2838 141.574 75.1954 137.88 72.6192 137.88C70.0431 137.88 67.9547 141.574 67.9547 146.131C67.9547 150.688 70.0431 154.382 72.6192 154.382Z" stroke="#1C0D3F" stroke-width="0.666226" stroke-linecap="round" stroke-linejoin="round"/>
<path d="M133.573 155.14C135.495 155.14 137.054 152.384 137.054 148.984C137.054 145.583 135.495 142.827 133.573 142.827C131.651 142.827 130.093 145.583 130.093 148.984C130.093 152.384 131.651 155.14 133.573 155.14Z" stroke="#1C0D3F" stroke-width="0.666226" stroke-linecap="round" stroke-linejoin="round"/>
<path d="M30.7393 153.011C31.2276 153.011 31.6235 152.615 31.6235 152.127C31.6235 151.639 31.2276 151.243 30.7393 151.243C30.251 151.243 29.8551 151.639 29.8551 152.127C29.8551 152.615 30.251 153.011 30.7393 153.011Z" stroke="#1C0D3F" stroke-width="0.666226" stroke-miterlimit="10"/>
<path d="M27.6547 118.179C28.143 118.179 28.5388 117.783 28.5388 117.295C28.5388 116.807 28.143 116.411 27.6547 116.411C27.1663 116.411 26.7705 116.807 26.7705 117.295C26.7705 117.783 27.1663 118.179 27.6547 118.179Z" stroke="#1C0D3F" stroke-width="0.666226" stroke-linecap="round" stroke-linejoin="round"/>
<path d="M27.6547 130.706C28.143 130.706 28.5388 130.31 28.5388 129.822C28.5388 129.334 28.143 128.938 27.6547 128.938C27.1663 128.938 26.7705 129.334 26.7705 129.822C26.7705 130.31 27.1663 130.706 27.6547 130.706Z" stroke="#1C0D3F" stroke-width="0.666226" stroke-linecap="round" stroke-linejoin="round"/>
<path d="M27.6547 126.383C29.2752 126.383 30.5889 125.069 30.5889 123.449C30.5889 121.828 29.2752 120.515 27.6547 120.515C26.0341 120.515 24.7204 121.828 24.7204 123.449C24.7204 125.069 26.0341 126.383 27.6547 126.383Z" stroke="#1C0D3F" stroke-width="0.666226" stroke-linecap="round" stroke-linejoin="round"/>
<path d="M27.6756 96.2479V94.6508V91.9802L30.7393 93.1233L27.6756 94.6508" stroke="#1C0D3F" stroke-width="0.666226" stroke-miterlimit="10"/>
<path d="M45.126 159.045V151.761H42.6353V159.045" stroke="#1C0D3F" stroke-width="0.666226" stroke-linecap="round" stroke-linejoin="round"/>
<path d="M40.9868 96.2916H39.0633V99.3134H40.9868V96.2916Z" stroke="#1C0D3F" stroke-width="0.666226" stroke-miterlimit="10"/>
<path d="M44.8881 96.2916H42.9646V99.3134H44.8881V96.2916Z" stroke="#1C0D3F" stroke-width="0.666226" stroke-miterlimit="10"/>
<path d="M48.6065 96.2916H46.683V99.3134H48.6065V96.2916Z" stroke="#1C0D3F" stroke-width="0.666226" stroke-miterlimit="10"/>
<path d="M40.9868 103.169H39.0633V106.191H40.9868V103.169Z" stroke="#1C0D3F" stroke-width="0.666226" stroke-miterlimit="10"/>
<path d="M48.6065 103.169H46.683V106.191H48.6065V103.169Z" stroke="#1C0D3F" stroke-width="0.666226" stroke-miterlimit="10"/>
<path d="M40.9868 109.837H39.0633V112.859H40.9868V109.837Z" stroke="#1C0D3F" stroke-width="0.666226" stroke-miterlimit="10"/>
<path d="M40.9868 116.438H39.0633V119.46H40.9868V116.438Z" stroke="#1C0D3F" stroke-width="0.666226" stroke-miterlimit="10"/>
<path d="M40.9868 122.483H39.0633V125.505H40.9868V122.483Z" stroke="#1C0D3F" stroke-width="0.666226" stroke-miterlimit="10"/>
<path d="M40.9868 128.641H39.0633V131.663H40.9868V128.641Z" stroke="#1C0D3F" stroke-width="0.666226" stroke-miterlimit="10"/>
<path d="M51.9761 124.581H46.5359" stroke="#1C0D3F" stroke-width="0.666226" stroke-linecap="round" stroke-linejoin="round"/>
<path d="M51.9761 129.234H46.5359" stroke="#1C0D3F" stroke-width="0.666226" stroke-linecap="round" stroke-linejoin="round"/>
<path d="M51.9761 134.154H46.5359" stroke="#1C0D3F" stroke-width="0.666226" stroke-linecap="round" stroke-linejoin="round"/>
<path d="M51.9761 138.87H46.5359" stroke="#1C0D3F" stroke-width="0.666226" stroke-linecap="round" stroke-linejoin="round"/>
<path d="M21.7542 127.661H15.5726V121.54H10.791V130.551H8.88084V113.142L4.87587 117.147V125.02" stroke="#1C0D3F" stroke-width="0.666226" stroke-linecap="round" stroke-linejoin="round"/>
<path d="M35.1615 145.204H15.2099" stroke="#1C0D3F" stroke-width="0.666226" stroke-linecap="round" stroke-linejoin="round"/>
<path d="M43.3799 62.061C43.3799 62.061 43.8282 62.4893 43.8282 62.8405" stroke="#1C0D3F" stroke-width="0.666226" stroke-linecap="round" stroke-linejoin="round"/>
<path d="M24.7722 56.3163V52.8481C24.7722 52.8481 25.1824 51.2101 26.7709 52.8481C27.5637 53.6638 28.0225 55.5549 28.0225 55.5549H34.0413C34.0413 55.5549 33.0401 54.1482 35.3357 54.1482C37.6314 54.1482 40.8768 55.6767 44.6267 59.992C44.6267 59.992 46.417 62.0677 43.3533 62.0601H37.7855C37.7855 62.0601 35.7869 61.9221 32.6461 58.8099C30.123 56.3163 24.7722 56.3163 24.7722 56.3163Z" stroke="#1C0D3F" stroke-width="0.666226" stroke-linecap="round" stroke-linejoin="round"/>
<path d="M35.6393 54.1492V53.1803" stroke="#1C0D3F" stroke-width="0.666226" stroke-linecap="round" stroke-linejoin="round"/>
<path d="M28.3555 53.1803H42.8907" stroke="#1C0D3F" stroke-width="0.666226" stroke-linecap="round" stroke-linejoin="round"/>
<path d="M37.7855 62.061C37.7855 62.061 38.2338 62.4893 38.2338 62.8405" stroke="#1C0D3F" stroke-width="0.666226" stroke-linecap="round" stroke-linejoin="round"/>
<path d="M35.4375 62.8405H45.1454C45.1454 62.8405 46.0505 62.831 46.0505 62.061" stroke="#1C0D3F" stroke-width="0.666226" stroke-linecap="round" stroke-linejoin="round"/>
<path d="M36.4559 56.4219H33.0496C32.7016 56.4219 32.4195 56.704 32.4195 57.0519V57.247C32.4195 57.595 32.7016 57.8771 33.0496 57.8771H36.4559C36.8039 57.8771 37.086 57.595 37.086 57.247V57.0519C37.086 56.704 36.8039 56.4219 36.4559 56.4219Z" stroke="#1C0D3F" stroke-width="0.666226" stroke-linecap="round" stroke-linejoin="round"/>
<path d="M40.8815 56.4219H38.9285L41.6068 59.2153C41.6068 59.2153 43.2856 59.1477 43.8291 59.2153" stroke="#1C0D3F" stroke-width="0.666226" stroke-linecap="round" stroke-linejoin="round"/>
<path d="M40.5256 59.3238L38.1605 56.5323L38.3642 59.3238H40.5256Z" stroke="#1C0D3F" stroke-width="0.666226" stroke-linecap="round" stroke-linejoin="round"/>
<path d="M2.47641 81.0104H18.1327C22.9638 81.0104 23.237 84.0141 23.237 84.0141C23.237 87.6974 20.5483 87.5946 18.1327 87.5946H7.79766C7.79766 87.5946 6.03977 87.3643 5.92937 88.7196C5.85323 89.6618 6.80879 90.0387 7.68725 89.9835C8.56572 89.9283 12.7744 89.9835 12.7744 89.9835C12.7744 89.9835 14.6969 89.815 14.6103 91.2065C14.5627 91.9755 13.7223 92.3791 12.7744 92.3419C11.8264 92.3048 0.909828 92.3419 0.909828 92.3419" stroke="#1C0D3F" stroke-width="0.666226" stroke-linecap="round" stroke-linejoin="round"/>
<path d="M137.227 43.7151H110.536C105.705 43.7151 105.432 40.7114 105.432 40.7114C105.432 37.0281 108.121 37.1309 110.536 37.1309H120.872C120.872 37.1309 122.629 37.3612 122.74 36.0059C122.816 35.0637 121.86 34.6868 120.982 34.742C120.103 34.7972 115.895 34.742 115.895 34.742C115.895 34.742 113.972 34.9105 114.059 33.519C114.106 32.75 114.947 32.3465 115.895 32.3836C116.843 32.4207 123.525 32.3836 123.525 32.3836" stroke="#1C0D3F" stroke-width="0.666226" stroke-linecap="round" stroke-linejoin="round"/>
<path d="M74.4556 19.6225C33.0962 22.4654 0.428291 56.9178 0.428291 98.9986C0.428291 142.945 36.0533 178.57 79.9995 178.57C123.946 178.57 159.571 142.946 159.571 98.9986C159.571 56.6028 126.416 21.9514 84.6193 19.5587" stroke="#1C0D3F" stroke-width="0.856577" stroke-linecap="round" stroke-linejoin="round"/>
<path d="M118.317 124.801L124.388 130.185L118.317 135.215" stroke="#1C0D3F" stroke-width="0.666226" stroke-linecap="round" stroke-linejoin="round"/>
<path d="M74.7297 19.6006L55.1284 118.021" stroke="#1C0D3F" stroke-width="0.666226" stroke-linecap="round" stroke-linejoin="round"/>
<path d="M103.111 122.895L81.054 1.08899H78.4167L74.7296 19.6006" stroke="#1C0D3F" stroke-width="0.666226" stroke-linecap="round" stroke-linejoin="round"/>
<path d="M65.5643 173.82H62.9108" stroke="#1C0D3F" stroke-width="0.666226" stroke-linecap="round" stroke-linejoin="round"/>
</svg>
