<svg width="160" height="192" viewBox="0 0 160 192" fill="none" xmlns="http://www.w3.org/2000/svg">
<g clip-path="url(#clip0_154_5105)">
<path d="M28.829 172.854H131.179" stroke="#1C0D3F" stroke-width="0.751663" stroke-linecap="round" stroke-linejoin="round"/>
<path d="M69.7056 135.496V94.7059C69.7056 83.6715 78.5838 80.8721 78.5838 80.8721" stroke="#1C0D3F" stroke-width="0.751663" stroke-miterlimit="10"/>
<path d="M87.4566 134.178V94.7059C87.4566 83.6715 78.5784 80.8721 78.5784 80.8721" stroke="#1C0D3F" stroke-width="0.751663" stroke-miterlimit="10"/>
<path d="M79.9207 52.4967L92.7075 73.132V134.178" stroke="#1C0D3F" stroke-width="0.751663" stroke-linecap="round" stroke-linejoin="round"/>
<path d="M63.8856 137.472V73.1321L77.2255 52.3164" stroke="#1C0D3F" stroke-width="0.751663" stroke-linecap="round" stroke-linejoin="round"/>
<path d="M92.7076 73.132H63.8856L65.1924 58.902L66.0837 69.7012" stroke="#1C0D3F" stroke-width="0.751663" stroke-linecap="round" stroke-linejoin="round"/>
<path d="M59.9222 131.151V76.0303H63.8856H93.0361H96.7053V126.712" stroke="#1C0D3F" stroke-width="0.751663" stroke-linecap="round" stroke-linejoin="round"/>
<path d="M67.2358 67.9487H89.2187" stroke="#1C0D3F" stroke-width="0.751663" stroke-linecap="round" stroke-linejoin="round"/>
<path d="M59.9222 78.3368H63.8856" stroke="#1C0D3F" stroke-width="0.751663" stroke-linecap="round" stroke-linejoin="round"/>
<path d="M92.7065 78.3368H96.7053" stroke="#1C0D3F" stroke-width="0.751663" stroke-linecap="round" stroke-linejoin="round"/>
<path d="M63.8856 76.0302L62.1181 59.9994L59.9222 76.0302H43.6713V72.1871L60.4452 72.2139" stroke="#1C0D3F" stroke-width="0.751663" stroke-linecap="round" stroke-linejoin="round"/>
<path d="M92.6785 76.0303L94.8745 60.2196L96.6419 76.0303H112.846V72.1872L96.1963 72.3171" stroke="#1C0D3F" stroke-width="0.751663" stroke-linecap="round" stroke-linejoin="round"/>
<path d="M77.2254 52.3165L77.3349 48.5807H79.7746L79.8841 52.426" stroke="#1C0D3F" stroke-width="0.751663" stroke-linecap="round" stroke-linejoin="round"/>
<path d="M78.5548 48.602V40.1039" stroke="#1C0D3F" stroke-width="0.751663" stroke-linecap="round" stroke-linejoin="round"/>
<path d="M75.1412 43.3092H82.02" stroke="#1C0D3F" stroke-width="0.751663" stroke-linecap="round" stroke-linejoin="round"/>
<path d="M76.9366 41.7094V44.8008" stroke="#1C0D3F" stroke-width="0.751663" stroke-linecap="round" stroke-linejoin="round"/>
<path d="M80.4501 41.7094V44.8008" stroke="#1C0D3F" stroke-width="0.751663" stroke-linecap="round" stroke-linejoin="round"/>
<path d="M69.3867 64.547L70.555 52.3164L71.4408 61.3417" stroke="#1C0D3F" stroke-width="0.751663" stroke-linecap="round" stroke-linejoin="round"/>
<path d="M74.1436 57.1239L75.0692 47.4822L75.8381 54.4802" stroke="#1C0D3F" stroke-width="0.751663" stroke-linecap="round" stroke-linejoin="round"/>
<path d="M93.0876 73.132L91.7808 58.902L90.8895 70.1404" stroke="#1C0D3F" stroke-width="0.751663" stroke-linecap="round" stroke-linejoin="round"/>
<path d="M87.5866 64.8756L86.4183 52.3164L85.5324 61.3417" stroke="#1C0D3F" stroke-width="0.751663" stroke-linecap="round" stroke-linejoin="round"/>
<path d="M82.8296 57.1239L81.904 47.4822L81.1351 54.4802" stroke="#1C0D3F" stroke-width="0.751663" stroke-linecap="round" stroke-linejoin="round"/>
<path d="M43.6713 76.0303L46.417 78.995H59.9222" stroke="#1C0D3F" stroke-width="0.751663" stroke-linecap="round" stroke-linejoin="round"/>
<path d="M112.736 76.0303L110.65 78.995H96.7053" stroke="#1C0D3F" stroke-width="0.751663" stroke-linecap="round" stroke-linejoin="round"/>
<path d="M46.4169 78.995V131.37" stroke="#1C0D3F" stroke-width="0.751663" stroke-linecap="round" stroke-linejoin="round"/>
<path d="M110.431 134.288V78.995" stroke="#1C0D3F" stroke-width="0.751663" stroke-linecap="round" stroke-linejoin="round"/>
<path d="M46.4169 117.316H59.9221" stroke="#1C0D3F" stroke-width="0.751663" stroke-linecap="round" stroke-linejoin="round"/>
<path d="M96.7117 117.316H110.217" stroke="#1C0D3F" stroke-width="0.751663" stroke-linecap="round" stroke-linejoin="round"/>
<path d="M46.4169 92.7881H59.9221" stroke="#1C0D3F" stroke-width="0.751663" stroke-linecap="round" stroke-linejoin="round"/>
<path d="M96.7117 92.7881H110.217" stroke="#1C0D3F" stroke-width="0.751663" stroke-linecap="round" stroke-linejoin="round"/>
<path d="M46.4169 72.1915V47.4822H66.9491V68.285" stroke="#1C0D3F" stroke-width="0.751663" stroke-linecap="round" stroke-linejoin="round"/>
<path d="M110.437 72.1915V47.4822H89.9039V68.504" stroke="#1C0D3F" stroke-width="0.751663" stroke-linecap="round" stroke-linejoin="round"/>
<path d="M61.6069 63.733H46.4169" stroke="#1C0D3F" stroke-width="0.751663" stroke-linecap="round" stroke-linejoin="round"/>
<path d="M64.7488 63.733H62.5293" stroke="#1C0D3F" stroke-width="0.751663" stroke-linecap="round" stroke-linejoin="round"/>
<path d="M66.9491 63.733H65.5918" stroke="#1C0D3F" stroke-width="0.751663" stroke-linecap="round" stroke-linejoin="round"/>
<path d="M91.3986 63.733H89.9039" stroke="#1C0D3F" stroke-width="0.751663" stroke-linecap="round" stroke-linejoin="round"/>
<path d="M94.2893 63.733H92.2255" stroke="#1C0D3F" stroke-width="0.751663" stroke-linecap="round" stroke-linejoin="round"/>
<path d="M110.437 63.733H95.4157" stroke="#1C0D3F" stroke-width="0.751663" stroke-linecap="round" stroke-linejoin="round"/>
<path d="M46.4169 80.203L40.322 86.2968V135.982" stroke="#1C0D3F" stroke-width="0.751663" stroke-linecap="round" stroke-linejoin="round"/>
<path d="M46.4169 84.1558L40.5142 90.0574" stroke="#1C0D3F" stroke-width="0.751663" stroke-linecap="round" stroke-linejoin="round"/>
<path d="M110.583 79.766L116.677 85.8598V125.441" stroke="#1C0D3F" stroke-width="0.751663" stroke-linecap="round" stroke-linejoin="round"/>
<path d="M110.54 84.1558L116.662 90.2775" stroke="#1C0D3F" stroke-width="0.751663" stroke-linecap="round" stroke-linejoin="round"/>
<path d="M89.9038 51.5454L86.7972 47.4822H89.9038L100.17 10.4789L110.437 47.4822H113.588L110.54 51.5454" stroke="#1C0D3F" stroke-width="0.751663" stroke-linecap="round" stroke-linejoin="round"/>
<path d="M56.6825 10.4788V0.816711" stroke="#1C0D3F" stroke-width="0.751663" stroke-linecap="round" stroke-linejoin="round"/>
<path d="M100.17 10.4788V0.816711" stroke="#1C0D3F" stroke-width="0.751663" stroke-linecap="round" stroke-linejoin="round"/>
<path d="M63.2821 34.2656L66.9491 47.482H70.0342L66.9491 51.5453" stroke="#1C0D3F" stroke-width="0.751663" stroke-linecap="round" stroke-linejoin="round"/>
<path d="M46.4169 51.5444C45.8682 51.1052 43.3694 47.4822 43.3694 47.4822H46.4169L56.6835 10.4789L63.2831 34.2647" stroke="#1C0D3F" stroke-width="0.751663" stroke-linecap="round" stroke-linejoin="round"/>
<path d="M46.4169 47.4821V41.7094H43.3694V47.4821" stroke="#1C0D3F" stroke-width="0.751663" stroke-linecap="round" stroke-linejoin="round"/>
<path d="M69.9966 47.4821V41.7094H66.9491V47.4821" stroke="#1C0D3F" stroke-width="0.751663" stroke-linecap="round" stroke-linejoin="round"/>
<path d="M89.8447 47.4821V41.7094H86.7972V47.4821" stroke="#1C0D3F" stroke-width="0.751663" stroke-linecap="round" stroke-linejoin="round"/>
<path d="M113.63 47.4821V41.7094H110.583V47.4821" stroke="#1C0D3F" stroke-width="0.751663" stroke-linecap="round" stroke-linejoin="round"/>
<path d="M43.4038 41.4182L43.3694 41.7092" stroke="#1C0D3F" stroke-width="0.751663" stroke-linecap="round" stroke-linejoin="round"/>
<path d="M46.4169 41.7094L44.8932 28.7067L43.4038 41.4184" stroke="#1C0D3F" stroke-width="0.751663" stroke-linecap="round" stroke-linejoin="round"/>
<path d="M44.8932 28.7066V21.2394" stroke="#1C0D3F" stroke-width="0.751663" stroke-linecap="round" stroke-linejoin="round"/>
<path d="M51.7968 14.2125V6.74634" stroke="#1C0D3F" stroke-width="0.751663" stroke-linecap="round" stroke-linejoin="round"/>
<path d="M61.6069 14.2125V6.74634" stroke="#1C0D3F" stroke-width="0.751663" stroke-linecap="round" stroke-linejoin="round"/>
<path d="M95.145 14.2125V6.74634" stroke="#1C0D3F" stroke-width="0.751663" stroke-linecap="round" stroke-linejoin="round"/>
<path d="M105.376 14.2125V6.74634" stroke="#1C0D3F" stroke-width="0.751663" stroke-linecap="round" stroke-linejoin="round"/>
<path d="M69.9966 41.7094L68.4728 28.7067L66.9491 41.7094" stroke="#1C0D3F" stroke-width="0.751663" stroke-linecap="round" stroke-linejoin="round"/>
<path d="M68.4728 28.7066V21.2394" stroke="#1C0D3F" stroke-width="0.751663" stroke-linecap="round" stroke-linejoin="round"/>
<path d="M89.8447 41.7094L88.321 28.7067L86.7972 41.7094" stroke="#1C0D3F" stroke-width="0.751663" stroke-linecap="round" stroke-linejoin="round"/>
<path d="M88.321 28.7066V21.2394" stroke="#1C0D3F" stroke-width="0.751663" stroke-linecap="round" stroke-linejoin="round"/>
<path d="M113.63 41.7094L112.106 28.7067L110.583 41.7094" stroke="#1C0D3F" stroke-width="0.751663" stroke-linecap="round" stroke-linejoin="round"/>
<path d="M112.106 28.7066V21.2394" stroke="#1C0D3F" stroke-width="0.751663" stroke-linecap="round" stroke-linejoin="round"/>
<path d="M51.7967 28.0903L50.2601 24.2042H52.8748L51.7967 13.8828L50.2601 24.2042" stroke="#1C0D3F" stroke-width="0.751663" stroke-linecap="round" stroke-linejoin="round"/>
<path d="M63.0802 24.2042L61.607 13.8828L60.4655 24.2042H63.0802ZM63.0802 24.2042L61.5425 28.0903" stroke="#1C0D3F" stroke-width="0.751663" stroke-linecap="round" stroke-linejoin="round"/>
<path d="M93.6181 24.2042L95.145 13.8828L96.2339 24.2042H93.6181ZM93.6181 24.2042L95.1558 28.0903" stroke="#1C0D3F" stroke-width="0.751663" stroke-linecap="round" stroke-linejoin="round"/>
<path d="M106.794 24.2042L105.38 13.8828L104.178 24.2042H106.794ZM106.794 24.2042L105.256 28.0903" stroke="#1C0D3F" stroke-width="0.751663" stroke-linecap="round" stroke-linejoin="round"/>
<path d="M104.287 9.60046H106.478" stroke="#1C0D3F" stroke-width="0.751663" stroke-linecap="round" stroke-linejoin="round"/>
<path d="M94.0509 9.60046H96.2404" stroke="#1C0D3F" stroke-width="0.751663" stroke-linecap="round" stroke-linejoin="round"/>
<path d="M60.5964 9.60046H62.787" stroke="#1C0D3F" stroke-width="0.751663" stroke-linecap="round" stroke-linejoin="round"/>
<path d="M56.6459 27.1474V19.6813" stroke="#1C0D3F" stroke-width="0.751663" stroke-linecap="round" stroke-linejoin="round"/>
<path d="M58.1192 37.1393L56.6459 26.8179L55.5034 37.1393H58.1192ZM58.1192 37.1393L56.8016 41.0254L55.5034 37.1393" stroke="#1C0D3F" stroke-width="0.751663" stroke-linecap="round" stroke-linejoin="round"/>
<path d="M55.6356 22.5355H57.8261" stroke="#1C0D3F" stroke-width="0.751663" stroke-linecap="round" stroke-linejoin="round"/>
<path d="M100.136 27.1474V19.6813" stroke="#1C0D3F" stroke-width="0.751663" stroke-linecap="round" stroke-linejoin="round"/>
<path d="M101.609 37.1393L100.136 26.8179L98.9947 37.1393H101.609ZM101.609 37.1393L100.292 41.0254L98.9947 37.1393" stroke="#1C0D3F" stroke-width="0.751663" stroke-linecap="round" stroke-linejoin="round"/>
<path d="M99.1267 22.5355H101.316" stroke="#1C0D3F" stroke-width="0.751663" stroke-linecap="round" stroke-linejoin="round"/>
<path d="M55.5883 3.45184H57.7777" stroke="#1C0D3F" stroke-width="0.751663" stroke-linecap="round" stroke-linejoin="round"/>
<path d="M99.2073 3.45184H101.397" stroke="#1C0D3F" stroke-width="0.751663" stroke-linecap="round" stroke-linejoin="round"/>
<path d="M50.6885 9.60046H52.879" stroke="#1C0D3F" stroke-width="0.751663" stroke-linecap="round" stroke-linejoin="round"/>
<path d="M43.7979 24.4243H45.9874" stroke="#1C0D3F" stroke-width="0.751663" stroke-linecap="round" stroke-linejoin="round"/>
<path d="M67.4141 24.4243H69.6036" stroke="#1C0D3F" stroke-width="0.751663" stroke-linecap="round" stroke-linejoin="round"/>
<path d="M87.2258 24.4243H89.4153" stroke="#1C0D3F" stroke-width="0.751663" stroke-linecap="round" stroke-linejoin="round"/>
<path d="M111.012 24.4243H113.201" stroke="#1C0D3F" stroke-width="0.751663" stroke-linecap="round" stroke-linejoin="round"/>
<path d="M71.2701 172.639V134.287H74.1436V129.786L79.6855 125.112L85.4615 129.911V134.232H93.2573V129.943L98.7187 125.08L104.678 129.881V134.287" stroke="#1C0D3F" stroke-width="0.751663" stroke-linecap="round" stroke-linejoin="round"/>
<path d="M104.678 134.287H111.748V129.943L117.385 125.002L123.058 129.943V134.287H126.242V172.747" stroke="#1C0D3F" stroke-width="0.751663" stroke-linecap="round" stroke-linejoin="round"/>
<path d="M71.2701 140.849H126.242" stroke="#1C0D3F" stroke-width="0.751663" stroke-linecap="round" stroke-linejoin="round"/>
<path d="M84.5176 147.309V172.747" stroke="#1C0D3F" stroke-width="0.751663" stroke-linecap="round" stroke-linejoin="round"/>
<path d="M98.3471 147.309V172.747" stroke="#1C0D3F" stroke-width="0.751663" stroke-linecap="round" stroke-linejoin="round"/>
<path d="M112.545 147.309V172.747" stroke="#1C0D3F" stroke-width="0.751663" stroke-linecap="round" stroke-linejoin="round"/>
<path d="M116.677 125.44C116.677 125.44 122.29 114.35 127.34 108.092C132.39 101.834 128.109 92.6978 128.109 92.6978C128.109 92.6978 123.826 80.4221 123.936 76.7991C124.045 73.1761 131.841 68.4545 132.28 68.1249C132.28 68.1249 133.928 94.0379 128.986 105.567C128.986 105.567 119.689 122.415 118.848 126.278" stroke="#1C0D3F" stroke-width="0.751663" stroke-linecap="round" stroke-linejoin="round"/>
<path d="M139.021 115.779C144.068 116.767 148.077 115.009 148.077 115.009V110.836C143.997 112.813 140.736 111.605 140.736 111.605L139.021 115.779Z" stroke="#1C0D3F" stroke-width="0.751663" stroke-linecap="round" stroke-linejoin="round"/>
<path d="M139.021 115.779L143.355 119.635C146.634 120.033 152.494 118.837 152.494 118.837C152.494 118.837 145.766 119.905 144.225 127.066" stroke="#1C0D3F" stroke-width="0.751663" stroke-linecap="round" stroke-linejoin="round"/>
<path d="M143.356 119.636C143.356 119.636 143.92 126.649 144.689 129.174C145.458 131.698 147.334 146.961 145.573 150.036C143.812 153.11 128.768 152.013 126.245 151.573" stroke="#1C0D3F" stroke-width="0.751663" stroke-linecap="round" stroke-linejoin="round"/>
<path d="M123.936 76.7991V73.1321" stroke="#1C0D3F" stroke-width="0.751663" stroke-linecap="round" stroke-linejoin="round"/>
<path d="M126.242 70.7601C126.242 70.7601 127.121 84.4855 128.987 89.8653C130.853 95.245 130.821 99.4758 130.64 100.248" stroke="#1C0D3F" stroke-width="0.751663" stroke-linecap="round" stroke-linejoin="round"/>
<path d="M132.172 66.0214L132.279 68.1292C132.279 68.1292 143.04 74.1683 147.652 82.1843C147.652 82.1843 149.848 100.85 144.248 111.606" stroke="#1C0D3F" stroke-width="0.751663" stroke-linecap="round" stroke-linejoin="round"/>
<path d="M129.152 67.9487C129.152 67.9487 128.988 79.3246 130.086 84.9793C131.183 90.6339 131.804 93.2347 131.668 94.2226" stroke="#1C0D3F" stroke-width="0.751663" stroke-linecap="round" stroke-linejoin="round"/>
<path d="M135.356 65.3245C135.356 65.3245 136.045 78.1897 135.904 84.1558C135.773 89.6837 133.215 102.492 132.281 104.689C131.348 106.886 127.999 115.01 126.956 116.767C125.914 118.524 123.051 123.35 121.984 129.009" stroke="#1C0D3F" stroke-width="0.751663" stroke-linecap="round" stroke-linejoin="round"/>
<path d="M138.722 68.7639C138.722 68.7639 139.858 79.2872 138.65 88.8118C137.732 96.0471 135.246 105.563 133.343 109.008C131.441 112.453 128.073 121.452 126.609 126.576C126.609 126.576 125.145 131.313 124.925 134.179" stroke="#1C0D3F" stroke-width="0.751663" stroke-linecap="round" stroke-linejoin="round"/>
<path d="M142.2 71.2357C142.2 71.2357 142.566 91.5123 139.252 101.761C136.576 110.037 134.163 117.133 132.545 120.647C130.926 124.16 128.679 139.568 129.143 151.885" stroke="#1C0D3F" stroke-width="0.751663" stroke-linecap="round" stroke-linejoin="round"/>
<path d="M145.128 74.965C145.128 74.965 145.015 99.4692 142.212 107.525C142.212 107.525 140.855 111.545 140.736 111.605" stroke="#1C0D3F" stroke-width="0.751663" stroke-linecap="round" stroke-linejoin="round"/>
<path d="M139.021 115.779C139.021 115.779 134.001 141.032 135.245 151.884" stroke="#1C0D3F" stroke-width="0.751663" stroke-linecap="round" stroke-linejoin="round"/>
<path d="M141.967 118.4C141.967 118.4 138.16 139.125 140.179 151.884" stroke="#1C0D3F" stroke-width="0.751663" stroke-linecap="round" stroke-linejoin="round"/>
<path d="M147.653 82.1799L147.543 78.3368" stroke="#1C0D3F" stroke-width="0.751663" stroke-linecap="round" stroke-linejoin="round"/>
<path d="M148.075 90.0574C148.075 90.0574 143.288 86.3109 132.349 86.167" stroke="#1C0D3F" stroke-width="0.751663" stroke-linecap="round" stroke-linejoin="round"/>
<path d="M148.005 94.2215C148.005 94.2215 143.26 90.8766 132.006 90.8647" stroke="#1C0D3F" stroke-width="0.751663" stroke-linecap="round" stroke-linejoin="round"/>
<path d="M146.956 103.458C146.956 103.458 138.173 99.7281 130.527 100.745" stroke="#1C0D3F" stroke-width="0.751663" stroke-linecap="round" stroke-linejoin="round"/>
<path d="M145.571 108.544C145.571 108.544 137.66 105.051 128.986 105.563" stroke="#1C0D3F" stroke-width="0.751663" stroke-linecap="round" stroke-linejoin="round"/>
<path d="M141.426 117.919C141.426 117.919 131.685 114.131 123.732 115.45" stroke="#1C0D3F" stroke-width="0.751663" stroke-linecap="round" stroke-linejoin="round"/>
<path d="M143.755 123.636C143.755 123.636 126.404 119.046 121.196 120.542" stroke="#1C0D3F" stroke-width="0.751663" stroke-linecap="round" stroke-linejoin="round"/>
<path d="M145.547 134.178C145.547 134.178 135.024 131.187 123.059 130.748" stroke="#1C0D3F" stroke-width="0.751663" stroke-linecap="round" stroke-linejoin="round"/>
<path d="M146.108 139.825C146.108 139.825 131.657 136.751 126.242 136.897" stroke="#1C0D3F" stroke-width="0.751663" stroke-linecap="round" stroke-linejoin="round"/>
<path d="M139.589 152.129L132.065 172.096" stroke="#1C0D3F" stroke-width="0.751663" stroke-linecap="round" stroke-linejoin="round"/>
<path d="M132.578 152.129L126.242 169.911" stroke="#1C0D3F" stroke-width="0.751663" stroke-linecap="round" stroke-linejoin="round"/>
<path d="M138.557 154.867V165.811" stroke="#1C0D3F" stroke-width="0.751663" stroke-linecap="round" stroke-linejoin="round"/>
<path d="M142.212 151.626V161.02" stroke="#1C0D3F" stroke-width="0.751663" stroke-linecap="round" stroke-linejoin="round"/>
<path d="M116.662 88.1127H126.598" stroke="#1C0D3F" stroke-width="0.751663" stroke-linecap="round" stroke-linejoin="round"/>
<path d="M116.662 92.2448H127.952" stroke="#1C0D3F" stroke-width="0.751663" stroke-linecap="round" stroke-linejoin="round"/>
<path d="M148.064 92.2446C148.064 92.2446 150.849 89.9897 156.04 88.8085" stroke="#1C0D3F" stroke-width="0.751663" stroke-linecap="round" stroke-linejoin="round"/>
<path d="M150.545 90.6115C150.545 90.6115 150.652 86.9606 154.333 83.7832" stroke="#1C0D3F" stroke-width="0.751663" stroke-linecap="round" stroke-linejoin="round"/>
<path d="M142.212 155.49C142.212 155.49 144.478 156.002 146.303 155.856" stroke="#1C0D3F" stroke-width="0.751663" stroke-linecap="round" stroke-linejoin="round"/>
<path d="M70.5549 89.2402H86.6051" stroke="#1C0D3F" stroke-width="0.751663" stroke-linecap="round" stroke-linejoin="round"/>
<path d="M75.838 82.297V128.274" stroke="#1C0D3F" stroke-width="0.751663" stroke-linecap="round" stroke-linejoin="round"/>
<path d="M81.3284 82.297V126.478" stroke="#1C0D3F" stroke-width="0.751663" stroke-linecap="round" stroke-linejoin="round"/>
<path d="M56.2304 144.731V129.723C56.2138 128.743 55.8132 127.81 55.1149 127.124C54.4166 126.437 53.4766 126.052 52.4973 126.052C51.5181 126.052 50.578 126.437 49.8797 127.124C49.1814 127.81 48.7808 128.743 48.7642 129.723V144.731" stroke="#1C0D3F" stroke-width="0.751663" stroke-linecap="round" stroke-linejoin="round"/>
<path d="M56.2444 134.947C56.261 133.968 56.6616 133.034 57.3599 132.348C58.0582 131.661 58.9982 131.276 59.9775 131.276C60.9567 131.276 61.8968 131.661 62.595 132.348C63.2933 133.034 63.6939 133.968 63.7105 134.947V144.731" stroke="#1C0D3F" stroke-width="0.751663" stroke-linecap="round" stroke-linejoin="round"/>
<path d="M48.7696 134.947C48.753 133.968 48.3524 133.034 47.6541 132.348C46.9558 131.661 46.0158 131.276 45.0365 131.276C44.0573 131.276 43.1172 131.661 42.419 132.348C41.7207 133.034 41.3201 133.968 41.3035 134.947V144.731" stroke="#1C0D3F" stroke-width="0.751663" stroke-linecap="round" stroke-linejoin="round"/>
<path d="M63.7653 138.553C63.7819 137.574 64.1825 136.641 64.8808 135.954C65.579 135.268 66.5191 134.883 67.4983 134.883C68.4776 134.883 69.4176 135.268 70.1159 135.954C70.8142 136.641 71.2148 137.574 71.2314 138.553V144.731H33.8448V138.556C33.8614 137.577 34.262 136.643 34.9603 135.957C35.6586 135.27 36.5986 134.885 37.5779 134.885C38.5571 134.885 39.4972 135.27 40.1954 135.957C40.8937 136.643 41.2943 137.577 41.3109 138.556H63.7653V138.553Z" stroke="#1C0D3F" stroke-width="0.751663" stroke-linecap="round" stroke-linejoin="round"/>
<path d="M52.4947 125.99V123.355" stroke="#1C0D3F" stroke-width="0.751663" stroke-linecap="round" stroke-linejoin="round"/>
<path d="M59.9769 131.213V128.223" stroke="#1C0D3F" stroke-width="0.751663" stroke-linecap="round" stroke-linejoin="round"/>
<path d="M45.036 131.213V128.223" stroke="#1C0D3F" stroke-width="0.751663" stroke-linecap="round" stroke-linejoin="round"/>
<path d="M67.4978 134.821V131.772" stroke="#1C0D3F" stroke-width="0.751663" stroke-linecap="round" stroke-linejoin="round"/>
<path d="M37.5774 134.821V131.841" stroke="#1C0D3F" stroke-width="0.751663" stroke-linecap="round" stroke-linejoin="round"/>
<path d="M33.8437 144.729V172.747" stroke="#1C0D3F" stroke-width="0.751663" stroke-linecap="round" stroke-linejoin="round"/>
<path d="M33.8437 149.341H71.2314" stroke="#1C0D3F" stroke-width="0.751663" stroke-linecap="round" stroke-linejoin="round"/>
<path d="M37.5043 156.953C37.5069 156.139 37.8316 155.358 38.4076 154.782C38.9836 154.206 39.7641 153.881 40.5786 153.879H41.3217C42.1363 153.881 42.9168 154.206 43.4928 154.782C44.0687 155.358 44.3935 156.139 44.396 156.953" stroke="#1C0D3F" stroke-width="0.751663" stroke-linecap="round" stroke-linejoin="round"/>
<path d="M48.9769 156.953C48.9794 156.139 49.3041 155.358 49.8801 154.782C50.4561 154.206 51.2366 153.881 52.0512 153.879H52.7942C53.6088 153.881 54.3893 154.206 54.9653 154.782C55.5413 155.358 55.866 156.139 55.8685 156.953" stroke="#1C0D3F" stroke-width="0.751663" stroke-linecap="round" stroke-linejoin="round"/>
<path d="M60.3677 156.953C60.3703 156.139 60.695 155.358 61.271 154.782C61.847 154.206 62.6275 153.881 63.442 153.879H64.1851C64.9997 153.881 65.7802 154.206 66.3561 154.782C66.9321 155.358 67.2569 156.139 67.2594 156.953" stroke="#1C0D3F" stroke-width="0.751663" stroke-linecap="round" stroke-linejoin="round"/>
<path d="M35.4512 177.849H73.2448" stroke="#1C0D3F" stroke-width="0.751663" stroke-linecap="round" stroke-linejoin="round"/>
<path d="M79.1744 177.849H94.9851" stroke="#1C0D3F" stroke-width="0.751663" stroke-linecap="round" stroke-linejoin="round"/>
<path d="M115.697 177.849H124.925" stroke="#1C0D3F" stroke-width="0.751663" stroke-linecap="round" stroke-linejoin="round"/>
<path d="M114.27 183.74H87.0797" stroke="#1C0D3F" stroke-width="0.751663" stroke-linecap="round" stroke-linejoin="round"/>
<path d="M76.3868 183.74H57.5061" stroke="#1C0D3F" stroke-width="0.751663" stroke-linecap="round" stroke-linejoin="round"/>
<path d="M99.8892 177.849H102.671" stroke="#1C0D3F" stroke-width="0.751663" stroke-linecap="round" stroke-linejoin="round"/>
<path d="M74.1436 188.358H83.0165" stroke="#1C0D3F" stroke-width="0.751663" stroke-linecap="round" stroke-linejoin="round"/>
<path d="M4.53851 136.709V95.1751C4.53851 87.1216 11.1274 80.5327 19.1809 80.5327C27.2344 80.5327 33.8233 87.1216 33.8233 95.1751V144.731" stroke="#1C0D3F" stroke-width="0.751663" stroke-linecap="round" stroke-linejoin="round"/>
<path d="M19.181 145.19C24.7859 145.19 29.3295 140.646 29.3295 135.041C29.3295 129.436 24.7859 124.893 19.181 124.893C13.5761 124.893 9.03247 129.436 9.03247 135.041C9.03247 140.646 13.5761 145.19 19.181 145.19Z" stroke="#1C0D3F" stroke-width="0.751663" stroke-linecap="round" stroke-linejoin="round"/>
<path d="M19.1809 121.94C26.7707 121.94 32.9234 115.787 32.9234 108.197C32.9234 100.607 26.7707 94.4546 19.1809 94.4546C11.5911 94.4546 5.43835 100.607 5.43835 108.197C5.43835 115.787 11.5911 121.94 19.1809 121.94Z" stroke="#1C0D3F" stroke-width="0.751663" stroke-linecap="round" stroke-linejoin="round"/>
<path d="M69.7045 94.3837H87.405" stroke="#1C0D3F" stroke-width="0.751663" stroke-linecap="round" stroke-linejoin="round"/>
<path d="M69.7045 99.2716H87.405" stroke="#1C0D3F" stroke-width="0.751663" stroke-linecap="round" stroke-linejoin="round"/>
<path d="M69.7045 104.477H87.405" stroke="#1C0D3F" stroke-width="0.751663" stroke-linecap="round" stroke-linejoin="round"/>
<path d="M69.7045 109.365H87.405" stroke="#1C0D3F" stroke-width="0.751663" stroke-linecap="round" stroke-linejoin="round"/>
<path d="M69.7045 114.187H87.405" stroke="#1C0D3F" stroke-width="0.751663" stroke-linecap="round" stroke-linejoin="round"/>
<path d="M69.7045 119.075H87.405" stroke="#1C0D3F" stroke-width="0.751663" stroke-linecap="round" stroke-linejoin="round"/>
<path d="M69.7045 123.748H87.405" stroke="#1C0D3F" stroke-width="0.751663" stroke-linecap="round" stroke-linejoin="round"/>
<path d="M83.926 128.636H87.4051" stroke="#1C0D3F" stroke-width="0.751663" stroke-linecap="round" stroke-linejoin="round"/>
<path d="M69.7045 128.636H75.5084" stroke="#1C0D3F" stroke-width="0.751663" stroke-linecap="round" stroke-linejoin="round"/>
<path d="M19.1809 139.334C21.5519 139.334 23.474 137.412 23.474 135.041C23.474 132.67 21.5519 130.748 19.1809 130.748C16.8099 130.748 14.8878 132.67 14.8878 135.041C14.8878 137.412 16.8099 139.334 19.1809 139.334Z" stroke="#1C0D3F" stroke-width="0.751663" stroke-linecap="round" stroke-linejoin="round"/>
<path d="M19.5524 121.828C26.1145 121.828 31.4341 116.508 31.4341 109.946C31.4341 103.384 26.1145 98.0647 19.5524 98.0647C12.9904 98.0647 7.67078 103.384 7.67078 109.946C7.67078 116.508 12.9904 121.828 19.5524 121.828Z" stroke="#1C0D3F" stroke-width="0.751663" stroke-linecap="round" stroke-linejoin="round"/>
<path d="M28.3147 100.604L19.5525 109.365H13.6648" stroke="#1C0D3F" stroke-width="0.751663" stroke-linecap="round" stroke-linejoin="round"/>
<path d="M16.2091 159.484C16.6854 159.197 17.2312 159.045 17.7876 159.045H18.5307C19.3452 159.048 20.1257 159.372 20.7017 159.948C21.2777 160.524 21.6024 161.305 21.605 162.119V165.858" stroke="#1C0D3F" stroke-width="0.751663" stroke-linecap="round" stroke-linejoin="round"/>
<path d="M152.495 117.981C153.514 117.513 154.577 117.151 155.669 116.9L155.34 107.971C155.34 107.971 152.196 108.59 150.106 110.949V112.062" stroke="#1C0D3F" stroke-width="0.751663" stroke-linecap="round" stroke-linejoin="round"/>
<path d="M155.45 136.463C155.45 136.463 152.306 137.083 150.217 139.442V147.756C150.217 147.756 150.63 147.481 151.319 147.112" stroke="#1C0D3F" stroke-width="0.751663" stroke-linecap="round" stroke-linejoin="round"/>
<path d="M53.0406 96.9254C53.0406 96.9254 55.0142 97.2196 55.0142 98.3783V102.407H51.068V98.3783C51.068 97.2196 53.0416 96.9254 53.0416 96.9254" stroke="#1C0D3F" stroke-width="0.751663" stroke-linecap="round" stroke-linejoin="round"/>
<path d="M103.733 96.9254C103.733 96.9254 105.706 97.2196 105.706 98.3783V102.407H101.76V98.3783C101.76 97.2196 103.734 96.9254 103.734 96.9254" stroke="#1C0D3F" stroke-width="0.751663" stroke-linecap="round" stroke-linejoin="round"/>
<path d="M78.6444 55.278H78.523C77.0404 55.278 75.8385 56.4799 75.8385 57.9625V59.8405C75.8385 61.3232 77.0404 62.5251 78.523 62.5251H78.6444C80.127 62.5251 81.3289 61.3232 81.3289 59.8405V57.9625C81.3289 56.4799 80.127 55.278 78.6444 55.278Z" stroke="#1C0D3F" stroke-width="0.751663" stroke-linecap="round" stroke-linejoin="round"/>
<path d="M54.5311 60.9208V52.3841C54.5342 51.8154 54.7614 51.271 55.1635 50.8689C55.5656 50.4668 56.11 50.2396 56.6787 50.2365C57.2473 50.2396 57.7917 50.4668 58.1938 50.8689C58.5959 51.271 58.8232 51.8154 58.8263 52.3841V60.9251H54.5203L54.5311 60.9208Z" stroke="#1C0D3F" stroke-width="0.751663" stroke-linecap="round" stroke-linejoin="round"/>
<path d="M98.0179 60.9208V52.3841C98.021 51.8154 98.2483 51.271 98.6504 50.8689C99.0525 50.4668 99.5969 50.2396 100.166 50.2365C100.734 50.2396 101.279 50.4668 101.681 50.8689C102.083 51.271 102.31 51.8154 102.313 52.3841V60.9251H98.0072L98.0179 60.9208Z" stroke="#1C0D3F" stroke-width="0.751663" stroke-linecap="round" stroke-linejoin="round"/>
<path d="M81.2977 130.138H78.145V134.201H81.2977V130.138Z" stroke="#1C0D3F" stroke-width="0.751663" stroke-linecap="round" stroke-linejoin="round"/>
<path d="M100.518 130.138H97.3651V134.201H100.518V130.138Z" stroke="#1C0D3F" stroke-width="0.751663" stroke-linecap="round" stroke-linejoin="round"/>
<path d="M118.957 130.138H115.804V134.201H118.957V130.138Z" stroke="#1C0D3F" stroke-width="0.751663" stroke-linecap="round" stroke-linejoin="round"/>
<path d="M79.5399 145.278H76.3872V149.341H79.5399V145.278Z" stroke="#1C0D3F" stroke-width="0.751663" stroke-linecap="round" stroke-linejoin="round"/>
<path d="M93.1998 145.278H90.0471V149.341H93.1998V145.278Z" stroke="#1C0D3F" stroke-width="0.751663" stroke-linecap="round" stroke-linejoin="round"/>
<path d="M106.734 145.278H103.581V149.341H106.734V145.278Z" stroke="#1C0D3F" stroke-width="0.751663" stroke-linecap="round" stroke-linejoin="round"/>
<path d="M121.533 145.278H118.381V149.341H121.533V145.278Z" stroke="#1C0D3F" stroke-width="0.751663" stroke-linecap="round" stroke-linejoin="round"/>
<path d="M79.5399 154.867H76.3872V158.93H79.5399V154.867Z" stroke="#1C0D3F" stroke-width="0.751663" stroke-linecap="round" stroke-linejoin="round"/>
<path d="M93.1998 154.867H90.0471V158.93H93.1998V154.867Z" stroke="#1C0D3F" stroke-width="0.751663" stroke-linecap="round" stroke-linejoin="round"/>
<path d="M106.734 154.867H103.581V158.93H106.734V154.867Z" stroke="#1C0D3F" stroke-width="0.751663" stroke-linecap="round" stroke-linejoin="round"/>
<path d="M121.533 154.867H118.381V158.93H121.533V154.867Z" stroke="#1C0D3F" stroke-width="0.751663" stroke-linecap="round" stroke-linejoin="round"/>
<path d="M79.5399 164.676H76.3872V168.739H79.5399V164.676Z" stroke="#1C0D3F" stroke-width="0.751663" stroke-linecap="round" stroke-linejoin="round"/>
<path d="M93.1998 164.676H90.0471V168.739H93.1998V164.676Z" stroke="#1C0D3F" stroke-width="0.751663" stroke-linecap="round" stroke-linejoin="round"/>
<path d="M106.734 164.676H103.581V168.739H106.734V164.676Z" stroke="#1C0D3F" stroke-width="0.751663" stroke-linecap="round" stroke-linejoin="round"/>
<path d="M121.533 164.676H118.381V168.739H121.533V164.676Z" stroke="#1C0D3F" stroke-width="0.751663" stroke-linecap="round" stroke-linejoin="round"/>
<path d="M125.034 94.3677H121.008V100.257H125.034V94.3677Z" stroke="#1C0D3F" stroke-width="0.751663" stroke-linecap="round" stroke-linejoin="round"/>
<path d="M125.034 103.538H121.008V109.428H125.034V103.538Z" stroke="#1C0D3F" stroke-width="0.751663" stroke-linecap="round" stroke-linejoin="round"/>
<path d="M154.901 94.2216C154.901 94.2216 151.756 94.8411 149.667 97.2003V105.515C149.667 105.515 152.229 103.81 155.23 103.152L154.901 94.2216Z" stroke="#1C0D3F" stroke-width="0.751663" stroke-linecap="round" stroke-linejoin="round"/>
<path d="M155.45 122.188C155.45 122.188 152.306 122.807 150.217 125.166V133.481C150.217 133.481 152.779 131.776 155.78 131.119L155.45 122.188Z" stroke="#1C0D3F" stroke-width="0.751663" stroke-linecap="round" stroke-linejoin="round"/>
<path d="M45.8784 140.337H44.1946V142.899H45.8784V140.337Z" stroke="#1C0D3F" stroke-width="0.751663" stroke-linecap="round" stroke-linejoin="round"/>
<path d="M53.337 140.337H51.6533V142.899H53.337V140.337Z" stroke="#1C0D3F" stroke-width="0.751663" stroke-linecap="round" stroke-linejoin="round"/>
<path d="M60.8623 140.337H59.1785V142.899H60.8623V140.337Z" stroke="#1C0D3F" stroke-width="0.751663" stroke-linecap="round" stroke-linejoin="round"/>
<path d="M37.5768 172.684V162.228C37.5793 161.413 37.904 160.633 38.48 160.057C39.056 159.481 39.8365 159.156 40.6511 159.153H41.3942C42.2087 159.156 42.9892 159.481 43.5652 160.057C44.1412 160.633 44.4659 161.413 44.4685 162.228V172.684" stroke="#1C0D3F" stroke-width="0.751663" stroke-linecap="round" stroke-linejoin="round"/>
<path d="M49.0493 172.684V162.228C49.0518 161.413 49.3765 160.633 49.9525 160.057C50.5285 159.481 51.309 159.156 52.1236 159.153H52.8666C53.6812 159.156 54.4617 159.481 55.0377 160.057C55.6137 160.633 55.9384 161.413 55.9409 162.228V172.684" stroke="#1C0D3F" stroke-width="0.751663" stroke-linecap="round" stroke-linejoin="round"/>
<path d="M60.4412 172.684V162.228C60.4438 161.413 60.7685 160.633 61.3445 160.057C61.9205 159.481 62.701 159.156 63.5155 159.153H64.2586C65.0732 159.156 65.8536 159.481 66.4296 160.057C67.0056 160.633 67.3303 161.413 67.3329 162.228V172.684" stroke="#1C0D3F" stroke-width="0.751663" stroke-linecap="round" stroke-linejoin="round"/>
<path d="M18.5694 113.668C22.8292 113.668 26.2825 110.215 26.2825 105.955C26.2825 101.695 22.8292 98.2419 18.5694 98.2419C14.3095 98.2419 10.8563 101.695 10.8563 105.955C10.8563 110.215 14.3095 113.668 18.5694 113.668Z" stroke="#1C0D3F" stroke-width="0.751663" stroke-linecap="round" stroke-linejoin="round"/>
<path d="M19.1815 129.577C20.4607 129.577 21.4977 128.54 21.4977 127.26C21.4977 125.981 20.4607 124.944 19.1815 124.944C17.9023 124.944 16.8653 125.981 16.8653 127.26C16.8653 128.54 17.9023 129.577 19.1815 129.577Z" stroke="#1C0D3F" stroke-width="0.751663" stroke-linecap="round" stroke-linejoin="round"/>
<path d="M24.6922 131.872C25.9714 131.872 27.0084 130.835 27.0084 129.556C27.0084 128.277 25.9714 127.24 24.6922 127.24C23.413 127.24 22.376 128.277 22.376 129.556C22.376 130.835 23.413 131.872 24.6922 131.872Z" stroke="#1C0D3F" stroke-width="0.751663" stroke-linecap="round" stroke-linejoin="round"/>
<path d="M13.5547 131.925C14.8339 131.925 15.8709 130.888 15.8709 129.609C15.8709 128.33 14.8339 127.293 13.5547 127.293C12.2755 127.293 11.2385 128.33 11.2385 129.609C11.2385 130.888 12.2755 131.925 13.5547 131.925Z" stroke="#1C0D3F" stroke-width="0.751663" stroke-linecap="round" stroke-linejoin="round"/>
<path d="M25.0057 142.653C26.2849 142.653 27.3219 141.616 27.3219 140.337C27.3219 139.058 26.2849 138.021 25.0057 138.021C23.7265 138.021 22.6895 139.058 22.6895 140.337C22.6895 141.616 23.7265 142.653 25.0057 142.653Z" stroke="#1C0D3F" stroke-width="0.751663" stroke-linecap="round" stroke-linejoin="round"/>
<path d="M11.3491 137.357C12.6283 137.357 13.6653 136.32 13.6653 135.041C13.6653 133.762 12.6283 132.725 11.3491 132.725C10.0699 132.725 9.0329 133.762 9.0329 135.041C9.0329 136.32 10.0699 137.357 11.3491 137.357Z" stroke="#1C0D3F" stroke-width="0.751663" stroke-linecap="round" stroke-linejoin="round"/>
<path d="M27.0137 137.357C28.2929 137.357 29.3299 136.32 29.3299 135.041C29.3299 133.762 28.2929 132.725 27.0137 132.725C25.7345 132.725 24.6975 133.762 24.6975 135.041C24.6975 136.32 25.7345 137.357 27.0137 137.357Z" stroke="#1C0D3F" stroke-width="0.751663" stroke-linecap="round" stroke-linejoin="round"/>
<path d="M19.1815 145.215C20.4607 145.215 21.4977 144.178 21.4977 142.899C21.4977 141.62 20.4607 140.583 19.1815 140.583C17.9023 140.583 16.8653 141.62 16.8653 142.899C16.8653 144.178 17.9023 145.215 19.1815 145.215Z" stroke="#1C0D3F" stroke-width="0.751663" stroke-linecap="round" stroke-linejoin="round"/>
<path d="M21.5728 83.4235H16.789V89.3702H21.5728V83.4235Z" stroke="#1C0D3F" stroke-width="0.751663" stroke-linecap="round" stroke-linejoin="round"/>
<path d="M13.7576 142.899C15.0368 142.899 16.0738 141.862 16.0738 140.583C16.0738 139.304 15.0368 138.267 13.7576 138.267C12.4784 138.267 11.4414 139.304 11.4414 140.583C11.4414 141.862 12.4784 142.899 13.7576 142.899Z" stroke="#1C0D3F" stroke-width="0.751663" stroke-linecap="round" stroke-linejoin="round"/>
<path d="M4.5611 94.3677H33.8051" stroke="#1C0D3F" stroke-width="0.751663" stroke-linecap="round" stroke-linejoin="round"/>
<path d="M4.5611 122.074H33.8437" stroke="#1C0D3F" stroke-width="0.751663" stroke-linecap="round" stroke-linejoin="round"/>
<path d="M4.5611 124.672H33.8051" stroke="#1C0D3F" stroke-width="0.751663" stroke-linecap="round" stroke-linejoin="round"/>
<path d="M33.8052 145.436H7.78369" stroke="#1C0D3F" stroke-width="0.751663" stroke-linecap="round" stroke-linejoin="round"/>
<path d="M33.805 147.761H9.15692" stroke="#1C0D3F" stroke-width="0.751663" stroke-linecap="round" stroke-linejoin="round"/>
<path d="M4.89075 92.2448H33.527" stroke="#1C0D3F" stroke-width="0.751663" stroke-linecap="round" stroke-linejoin="round"/>
<path d="M2.72485 93.3378H4.53851" stroke="#1C0D3F" stroke-width="0.536902" stroke-linecap="round" stroke-linejoin="round"/>
<path d="M33.8062 93.3367H37.5645C37.5645 83.9366 29.3692 76.3158 19.2604 76.3158C14.4455 76.3158 10.0654 78.0446 6.79785 80.8709" stroke="#1C0D3F" stroke-width="0.751663" stroke-linecap="round" stroke-linejoin="round"/>
<path d="M30.791 55.5699L32.0967 56.8757" stroke="#1C0D3F" stroke-width="0.751663" stroke-linecap="round" stroke-linejoin="round"/>
<path d="M32.1182 55.5485L30.8124 56.8531" stroke="#1C0D3F" stroke-width="0.751663" stroke-linecap="round" stroke-linejoin="round"/>
<path d="M17.0892 68.1217L18.3938 69.4275" stroke="#1C0D3F" stroke-width="0.751663" stroke-linecap="round" stroke-linejoin="round"/>
<path d="M18.4153 68.1002L17.1107 69.406" stroke="#1C0D3F" stroke-width="0.751663" stroke-linecap="round" stroke-linejoin="round"/>
<path d="M113.648 65.3749L114.954 66.6795" stroke="#1C0D3F" stroke-width="0.751663" stroke-linecap="round" stroke-linejoin="round"/>
<path d="M114.975 65.3535L113.669 66.6582" stroke="#1C0D3F" stroke-width="0.751663" stroke-linecap="round" stroke-linejoin="round"/>
<path d="M119.647 79.1239L120.952 80.4296" stroke="#1C0D3F" stroke-width="0.751663" stroke-linecap="round" stroke-linejoin="round"/>
<path d="M120.973 79.1024L119.669 80.4071" stroke="#1C0D3F" stroke-width="0.751663" stroke-linecap="round" stroke-linejoin="round"/>
<path d="M81.5389 35.0045L82.8436 36.3103" stroke="#1C0D3F" stroke-width="0.751663" stroke-linecap="round" stroke-linejoin="round"/>
<path d="M82.8662 34.983L81.5604 36.2888" stroke="#1C0D3F" stroke-width="0.751663" stroke-linecap="round" stroke-linejoin="round"/>
<path d="M133.639 58.2599L134.945 59.5646" stroke="#1C0D3F" stroke-width="0.751663" stroke-linecap="round" stroke-linejoin="round"/>
<path d="M134.966 58.2384L133.66 59.5431" stroke="#1C0D3F" stroke-width="0.751663" stroke-linecap="round" stroke-linejoin="round"/>
<path d="M39.0571 63.8361L40.3628 65.1418" stroke="#1C0D3F" stroke-width="0.751663" stroke-linecap="round" stroke-linejoin="round"/>
<path d="M40.3843 63.8147L39.0786 65.1194" stroke="#1C0D3F" stroke-width="0.751663" stroke-linecap="round" stroke-linejoin="round"/>
<path d="M36.4102 99.9277L37.7148 101.232" stroke="#1C0D3F" stroke-width="0.751663" stroke-linecap="round" stroke-linejoin="round"/>
<path d="M37.7363 99.9052L36.4316 101.211" stroke="#1C0D3F" stroke-width="0.751663" stroke-linecap="round" stroke-linejoin="round"/>
<path d="M28.6508 69.5863L31.0378 71.9734" stroke="#1C0D3F" stroke-width="0.751663" stroke-linecap="round" stroke-linejoin="round"/>
<path d="M31.0776 69.5466L28.6905 71.9337" stroke="#1C0D3F" stroke-width="0.751663" stroke-linecap="round" stroke-linejoin="round"/>
<path d="M119.794 50.3706L122.182 52.7587" stroke="#1C0D3F" stroke-width="0.751663" stroke-linecap="round" stroke-linejoin="round"/>
<path d="M122.221 50.332L119.834 52.7191" stroke="#1C0D3F" stroke-width="0.751663" stroke-linecap="round" stroke-linejoin="round"/>
<path d="M67.7029 33.4047C66.2103 33.6355 64.9357 33.9104 63.4431 34.2304" stroke="#1C0D3F" stroke-width="0.966424" stroke-linecap="round" stroke-linejoin="round"/>
<path d="M87.6178 32.8408C81.4923 32.2396 75.3167 32.3751 69.2235 33.2446" stroke="#1C0D3F" stroke-width="0.966424" stroke-linecap="round" stroke-linejoin="round"/>
<path d="M93.5354 33.6033C91.9741 33.336 90.62 33.1148 89.0372 32.9408" stroke="#1C0D3F" stroke-width="0.966424" stroke-linecap="round" stroke-linejoin="round"/>
<path d="M110.711 38.6318C109.689 38.2023 108.876 37.9113 107.834 37.528" stroke="#1C0D3F" stroke-width="0.966424" stroke-linecap="round" stroke-linejoin="round"/>
<path d="M43.1923 41.4538C10.2125 58.6927 -7.19063 97.472 3.74714 134.512C16.1839 176.623 60.4021 200.676 102.511 188.241C144.621 175.805 168.677 131.587 156.24 89.4765C149.437 66.4509 133.736 49.2271 113.628 40.0428" stroke="#1C0D3F" stroke-width="0.966424" stroke-linecap="round" stroke-linejoin="round"/>
<path d="M46.4481 40.1041L48.542 39.1409" stroke="#1C0D3F" stroke-width="0.966424" stroke-linecap="round" stroke-linejoin="round"/>
<path d="M148.078 110.838C150.932 112.204 152.481 114.351 152.481 114.351V118.745C151.054 116.659 148.078 115.011 148.078 115.011C148.078 115.011 141.779 116.859 141.231 123.009" stroke="#1C0D3F" stroke-width="0.751663" stroke-linecap="round" stroke-linejoin="round"/>
</g>
<defs>
<clipPath id="clip0_154_5105">
<rect width="160" height="191.559" fill="white" transform="translate(0 0.440918)"/>
</clipPath>
</defs>
</svg>
