<svg width="160" height="175" viewBox="0 0 160 175" fill="none" xmlns="http://www.w3.org/2000/svg">
<g clip-path="url(#clip0_154_5111)">
<path d="M52.3539 127.888L52.3664 115.709C52.3664 115.709 52.5363 113.013 55.1741 112.848C57.8119 112.683 58.0696 115.709 58.0696 115.709L57.9953 152.771H52.3539L52.2139 145.594C52.2139 145.594 58.2887 138.172 52.3539 127.888Z" stroke="#1C0D3F" stroke-width="0.0965164" stroke-miterlimit="10"/>
<path d="M99.4741 128.86V115.548C99.4741 115.548 99.9075 113.017 102.294 112.852C104.681 112.687 105.115 115.713 105.115 115.713V128.86H99.4731H99.4741Z" stroke="#1C0D3F" stroke-width="0.0965164" stroke-miterlimit="10"/>
<path d="M114.751 135.205L114.763 115.709C114.763 115.709 115.022 113.05 117.571 112.848C120.12 112.647 120.391 115.709 120.391 115.709V140.195L119.496 139.052L119.533 135.348L114.751 135.205Z" stroke="#1C0D3F" stroke-width="0.0965164" stroke-miterlimit="10"/>
<path d="M127.541 125.707C127.541 125.707 126.357 112.504 129.254 112.852C129.254 112.852 131.507 113.153 130.967 118.109C130.965 118.11 129.533 119.29 127.541 125.707Z" stroke="#1C0D3F" stroke-width="0.0965164" stroke-miterlimit="10"/>
<path d="M90.4526 143.85H117.298V150.975H91.2875V150.095H90.4526V143.85Z" stroke="#1C0D3F" stroke-width="0.0965164" stroke-miterlimit="10"/>
<path d="M95.7052 89.308L95.5034 85.4936C95.5034 85.4936 94.4659 82.908 90.8359 81.1108L88.0948 82.8848L88.0997 89.3263L95.7052 89.308Z" stroke="#1C0D3F" stroke-width="0.0965164" stroke-miterlimit="10"/>
<path d="M79.2433 15.4575H84.403C126.352 17.7421 159.664 52.4812 159.664 95.0005C159.664 138.997 123.998 174.662 80.0019 174.662C36.0058 174.662 0.340149 138.997 0.340149 95.0005C0.338219 52.7804 33.1876 18.2275 74.7244 15.5096L78.1555 15.4575" stroke="#1C0D3F" stroke-width="0.675615" stroke-linecap="round" stroke-linejoin="round"/>
<path d="M29.6782 156.757H130.398" stroke="#1C0D3F" stroke-width="0.675615" stroke-linecap="round" stroke-linejoin="round"/>
<path d="M35.9682 161.396H56.7964" stroke="#1C0D3F" stroke-width="0.675615" stroke-linecap="round" stroke-linejoin="round"/>
<path d="M70.4941 161.396H78.4547" stroke="#1C0D3F" stroke-width="0.675615" stroke-linecap="round" stroke-linejoin="round"/>
<path d="M91.2875 161.396H124.033" stroke="#1C0D3F" stroke-width="0.675615" stroke-linecap="round" stroke-linejoin="round"/>
<path d="M112.078 167.94H76.4346" stroke="#1C0D3F" stroke-width="0.675615" stroke-linecap="round" stroke-linejoin="round"/>
<path d="M65.3777 167.94H61.0876" stroke="#1C0D3F" stroke-width="0.675615" stroke-linecap="round" stroke-linejoin="round"/>
<path d="M70.4941 156.612V147.315H87.8217V148.801H89.8022V150.121H91.2876V151.688H93.2671V152.762H95.0826V153.917H96.8981V155.071H98.3835V156.612" stroke="#1C0D3F" stroke-width="0.675615" stroke-linecap="round" stroke-linejoin="round"/>
<path d="M72.4746 147.315V132.298H85.181" stroke="#1C0D3F" stroke-width="0.675615" stroke-linecap="round" stroke-linejoin="round"/>
<path d="M87.8766 142.86H78.4547V135.269H119.506V139.064H91.2875L87.1064 143.85H123.247L119.506 139.064" stroke="#1C0D3F" stroke-width="0.675615" stroke-linecap="round" stroke-linejoin="round"/>
<path d="M119.131 156.722V150.975H91.2875" stroke="#1C0D3F" stroke-width="0.675615" stroke-linecap="round" stroke-linejoin="round"/>
<path d="M117.298 150.975V143.85" stroke="#1C0D3F" stroke-width="0.675615" stroke-linecap="round" stroke-linejoin="round"/>
<path d="M108.937 143.85V150.975" stroke="#1C0D3F" stroke-width="0.675615" stroke-linecap="round" stroke-linejoin="round"/>
<path d="M99.6208 143.85V150.975" stroke="#1C0D3F" stroke-width="0.675615" stroke-linecap="round" stroke-linejoin="round"/>
<path d="M90.4526 143.85V150.095" stroke="#1C0D3F" stroke-width="0.675615" stroke-linecap="round" stroke-linejoin="round"/>
<path d="M79.5551 142.86V147.315" stroke="#1C0D3F" stroke-width="0.675615" stroke-linecap="round" stroke-linejoin="round"/>
<path d="M85.181 135.269V128.861H105.782V135.269" stroke="#1C0D3F" stroke-width="0.675615" stroke-linecap="round" stroke-linejoin="round"/>
<path d="M40.2092 154.093V116.465H14.0967V139.911" stroke="#1C0D3F" stroke-width="0.675615" stroke-linecap="round" stroke-linejoin="round"/>
<path d="M18.1677 145.305V127.174C18.1677 118.812 26.8233 116.461 26.8233 116.461C26.8233 116.461 35.8447 118.368 35.8447 127.243V154.088" stroke="#1C0D3F" stroke-width="0.675615" stroke-linecap="round" stroke-linejoin="round"/>
<path d="M26.8242 116.465V120.132C26.8242 120.132 18.1686 122.883 18.1686 127.178" stroke="#1C0D3F" stroke-width="0.675615" stroke-linecap="round" stroke-linejoin="round"/>
<path d="M26.8243 120.132C26.8243 120.132 35.8457 123.085 35.8457 127.248" stroke="#1C0D3F" stroke-width="0.675615" stroke-linecap="round" stroke-linejoin="round"/>
<path d="M18.2623 126.62H35.7192" stroke="#1C0D3F" stroke-width="0.675615" stroke-linecap="round" stroke-linejoin="round"/>
<path d="M18.1677 129.265H35.7192" stroke="#1C0D3F" stroke-width="0.675615" stroke-linecap="round" stroke-linejoin="round"/>
<path d="M35.9393 127.889H40.2092" stroke="#1C0D3F" stroke-width="0.675615" stroke-linecap="round" stroke-linejoin="round"/>
<path d="M35.9393 125.799H40.2092" stroke="#1C0D3F" stroke-width="0.675615" stroke-linecap="round" stroke-linejoin="round"/>
<path d="M14.0967 125.799H18.1677" stroke="#1C0D3F" stroke-width="0.675615" stroke-linecap="round" stroke-linejoin="round"/>
<path d="M14.0967 127.889H18.1677" stroke="#1C0D3F" stroke-width="0.675615" stroke-linecap="round" stroke-linejoin="round"/>
<path d="M34.3149 156.612V154.184H41.6579V156.612" stroke="#1C0D3F" stroke-width="0.675615" stroke-linecap="round" stroke-linejoin="round"/>
<path d="M10.7968 116.465H43.6934L39.7324 112.761H15.307L10.7968 116.465Z" stroke="#1C0D3F" stroke-width="0.675615" stroke-linecap="round" stroke-linejoin="round"/>
<path d="M68.1545 137.729V116.171L69.7683 114.613H87.9587L89.7925 116.171V128.861" stroke="#1C0D3F" stroke-width="0.675615" stroke-linecap="round" stroke-linejoin="round"/>
<path d="M63.7167 150.616C66.8361 150.616 69.3648 147.076 69.3648 142.709C69.3648 138.343 66.8361 134.803 63.7167 134.803C60.5973 134.803 58.0685 138.343 58.0685 142.709C58.0685 147.076 60.5973 150.616 63.7167 150.616Z" stroke="#1C0D3F" stroke-width="0.675615" stroke-linecap="round" stroke-linejoin="round"/>
<path d="M49.2363 147.176C52.3557 147.176 54.8844 142.481 54.8844 136.689C54.8844 130.897 52.3557 126.201 49.2363 126.201C46.1169 126.201 43.5881 130.897 43.5881 136.689C43.5881 142.481 46.1169 147.176 49.2363 147.176Z" stroke="#1C0D3F" stroke-width="0.675615" stroke-linecap="round" stroke-linejoin="round"/>
<path d="M63.7167 144.044V156.612" stroke="#1C0D3F" stroke-width="0.675615" stroke-linecap="round" stroke-linejoin="round"/>
<path d="M68.1545 147.602V156.722" stroke="#1C0D3F" stroke-width="0.675615" stroke-linecap="round" stroke-linejoin="round"/>
<path d="M49.2363 140.157V156.722" stroke="#1C0D3F" stroke-width="0.675615" stroke-linecap="round" stroke-linejoin="round"/>
<path d="M28.7661 112.762V108.764H69.7682" stroke="#1C0D3F" stroke-width="0.675615" stroke-linecap="round" stroke-linejoin="round"/>
<path d="M69.9101 114.613V77.2241H88.1005V114.613" stroke="#1C0D3F" stroke-width="0.675615" stroke-linecap="round" stroke-linejoin="round"/>
<path d="M69.7682 116.465H87.9587" stroke="#1C0D3F" stroke-width="0.675615" stroke-linecap="round" stroke-linejoin="round"/>
<path d="M78.864 81.1108C78.864 81.1108 73.7293 83.4581 73.7293 86.6123V114.613" stroke="#1C0D3F" stroke-width="0.675615" stroke-linecap="round" stroke-linejoin="round"/>
<path d="M78.864 81.1108C78.864 81.1108 83.9987 83.4581 83.9987 86.6123V114.613" stroke="#1C0D3F" stroke-width="0.675615" stroke-linecap="round" stroke-linejoin="round"/>
<path d="M90.8397 81.1108C89.8606 81.5966 88.9398 82.1917 88.0947 82.8848" stroke="#1C0D3F" stroke-width="0.675615" stroke-linecap="round" stroke-linejoin="round"/>
<path d="M90.8368 81.1108C90.8368 81.1108 95.7061 83.4581 95.7061 86.6123V89.308" stroke="#1C0D3F" stroke-width="0.675615" stroke-linecap="round" stroke-linejoin="round"/>
<path d="M78.974 90.5366C80.6755 90.5366 82.0548 89.1573 82.0548 87.4558C82.0548 85.7543 80.6755 84.375 78.974 84.375C77.2725 84.375 75.8932 85.7543 75.8932 87.4558C75.8932 89.1573 77.2725 90.5366 78.974 90.5366Z" stroke="#1C0D3F" stroke-width="0.675615" stroke-linecap="round" stroke-linejoin="round"/>
<path d="M73.7313 94.3866H83.9996" stroke="#1C0D3F" stroke-width="0.675615" stroke-linecap="round" stroke-linejoin="round"/>
<path d="M78.8273 94.3876V98.1189" stroke="#1C0D3F" stroke-width="0.675615" stroke-linecap="round" stroke-linejoin="round"/>
<path d="M73.7313 100.723H83.9996" stroke="#1C0D3F" stroke-width="0.675615" stroke-linecap="round" stroke-linejoin="round"/>
<path d="M78.8273 100.723V104.454" stroke="#1C0D3F" stroke-width="0.675615" stroke-linecap="round" stroke-linejoin="round"/>
<path d="M73.7313 106.857H83.9996" stroke="#1C0D3F" stroke-width="0.675615" stroke-linecap="round" stroke-linejoin="round"/>
<path d="M78.8273 106.967V110.698" stroke="#1C0D3F" stroke-width="0.675615" stroke-linecap="round" stroke-linejoin="round"/>
<path d="M84.8731 65.4877H73.1376V77.2231H84.8731V65.4877Z" stroke="#1C0D3F" stroke-width="0.675615" stroke-linecap="round" stroke-linejoin="round"/>
<path d="M76.7319 77.1315V71.1716C76.7319 69.4343 77.6064 68.0126 78.6758 68.0126C79.7452 68.0126 80.6196 69.4343 80.6196 71.1716V77.1315" stroke="#1C0D3F" stroke-width="0.675615" stroke-linecap="round" stroke-linejoin="round"/>
<path d="M88.5879 78.2085V72.543C88.5879 71.4147 89.4623 70.0635 90.5317 70.0635C91.6011 70.0635 92.4756 71.4147 92.4756 73.0661V78.2085" stroke="#1C0D3F" stroke-width="0.675615" stroke-linecap="round" stroke-linejoin="round"/>
<path d="M52.3538 145.436V152.78H57.999V116.011C57.999 114.274 56.7298 112.852 55.1788 112.852C53.6278 112.852 52.3586 114.274 52.3586 116.011V127.888" stroke="#1C0D3F" stroke-width="0.675615" stroke-linecap="round" stroke-linejoin="round"/>
<path d="M105.115 128.86V116.011C105.115 114.274 103.846 112.852 102.295 112.852C100.744 112.852 99.475 114.274 99.475 116.011V128.86" stroke="#1C0D3F" stroke-width="0.675615" stroke-linecap="round" stroke-linejoin="round"/>
<path d="M120.394 140.199V116.011C120.394 114.274 119.125 112.852 117.574 112.852C116.023 112.852 114.754 114.274 114.754 116.011V135.205" stroke="#1C0D3F" stroke-width="0.675615" stroke-linecap="round" stroke-linejoin="round"/>
<path d="M130.965 117.754V116.011C130.965 114.274 130.193 112.852 129.252 112.852C128.31 112.852 127.539 114.274 127.539 116.011V125.856" stroke="#1C0D3F" stroke-width="0.675615" stroke-linecap="round" stroke-linejoin="round"/>
<path d="M78.6748 3.59758V1.23486" stroke="#1C0D3F" stroke-width="0.675615" stroke-linecap="round" stroke-linejoin="round"/>
<path d="M78.6748 11.3565V6.86658" stroke="#1C0D3F" stroke-width="0.675615" stroke-linecap="round" stroke-linejoin="round"/>
<path d="M78.6749 6.86656C79.5773 6.86656 80.3089 6.13498 80.3089 5.23253C80.3089 4.33009 79.5773 3.59851 78.6749 3.59851C77.7724 3.59851 77.0408 4.33009 77.0408 5.23253C77.0408 6.13498 77.7724 6.86656 78.6749 6.86656Z" stroke="#1C0D3F" stroke-width="0.675615" stroke-linecap="round" stroke-linejoin="round"/>
<path d="M69.9101 77.2241L71.8221 61.821L73.1376 77.2241" stroke="#1C0D3F" stroke-width="0.675615" stroke-linecap="round" stroke-linejoin="round"/>
<path d="M71.8221 61.8211V55.2927" stroke="#1C0D3F" stroke-width="0.675615" stroke-linecap="round" stroke-linejoin="round"/>
<path d="M70.8686 56.6863H72.7024" stroke="#1C0D3F" stroke-width="0.675615" stroke-linecap="round" stroke-linejoin="round"/>
<path d="M84.873 77.2241L86.785 61.821L88.1006 77.2241" stroke="#1C0D3F" stroke-width="0.675615" stroke-linecap="round" stroke-linejoin="round"/>
<path d="M86.7852 61.8211V55.2927" stroke="#1C0D3F" stroke-width="0.675615" stroke-linecap="round" stroke-linejoin="round"/>
<path d="M86.0515 56.6863H87.6643" stroke="#1C0D3F" stroke-width="0.675615" stroke-linecap="round" stroke-linejoin="round"/>
<path d="M96.1877 78.3977L97.9897 63.2137L99.4143 78.3977" stroke="#1C0D3F" stroke-width="0.675615" stroke-linecap="round" stroke-linejoin="round"/>
<path d="M97.9896 63.2137V56.6863" stroke="#1C0D3F" stroke-width="0.675615" stroke-linecap="round" stroke-linejoin="round"/>
<path d="M97.036 58.0801H98.8698" stroke="#1C0D3F" stroke-width="0.675615" stroke-linecap="round" stroke-linejoin="round"/>
<path d="M74.1694 49.7546V46.5637" stroke="#1C0D3F" stroke-width="0.675615" stroke-linecap="round" stroke-linejoin="round"/>
<path d="M73.1376 47.8107H75.123" stroke="#1C0D3F" stroke-width="0.675615" stroke-linecap="round" stroke-linejoin="round"/>
<path d="M83.2255 47.8107H85.2108" stroke="#1C0D3F" stroke-width="0.675615" stroke-linecap="round" stroke-linejoin="round"/>
<path d="M94.4225 52.9637H96.4078" stroke="#1C0D3F" stroke-width="0.675615" stroke-linecap="round" stroke-linejoin="round"/>
<path d="M84.4175 52.9637H86.4028" stroke="#1C0D3F" stroke-width="0.675615" stroke-linecap="round" stroke-linejoin="round"/>
<path d="M84.8731 65.4878L84.2177 49.7546L83.2641 65.4878L78.6748 11.3566L74.7195 65.4878L74.1694 49.7546L73.1376 65.4878" stroke="#1C0D3F" stroke-width="0.675615" stroke-linecap="round" stroke-linejoin="round"/>
<path d="M89.866 5.46807V3.10535" stroke="#1C0D3F" stroke-width="0.675615" stroke-linecap="round" stroke-linejoin="round"/>
<path d="M89.866 13.227V8.73706" stroke="#1C0D3F" stroke-width="0.675615" stroke-linecap="round" stroke-linejoin="round"/>
<path d="M89.8658 8.73704C90.7683 8.73704 91.4999 8.00546 91.4999 7.10302C91.4999 6.20057 90.7683 5.46899 89.8658 5.46899C88.9634 5.46899 88.2318 6.20057 88.2318 7.10302C88.2318 8.00546 88.9634 8.73704 89.8658 8.73704Z" stroke="#1C0D3F" stroke-width="0.675615" stroke-linecap="round" stroke-linejoin="round"/>
<path d="M85.9328 68.5637L85.3595 51.6251L84.6675 60.5008" stroke="#1C0D3F" stroke-width="0.675615" stroke-linecap="round" stroke-linejoin="round"/>
<path d="M96.0642 67.3583L95.4089 51.6251L94.4553 67.3583L89.866 13.2271L86.7852 55.2928" stroke="#1C0D3F" stroke-width="0.675615" stroke-linecap="round" stroke-linejoin="round"/>
<path d="M84.2177 49.7546V46.5637" stroke="#1C0D3F" stroke-width="0.675615" stroke-linecap="round" stroke-linejoin="round"/>
<path d="M27.1524 112.541V108.764L29.7197 93.8374L31.4435 104.289" stroke="#1C0D3F" stroke-width="0.675615" stroke-linecap="round" stroke-linejoin="round"/>
<path d="M27.1524 108.764H28.7662L49.854 74.5834H70.2383" stroke="#1C0D3F" stroke-width="0.675615" stroke-linecap="round" stroke-linejoin="round"/>
<path d="M29.7198 93.8374V88.446" stroke="#1C0D3F" stroke-width="0.675615" stroke-linecap="round" stroke-linejoin="round"/>
<path d="M30.932 90.5365H28.5461" stroke="#1C0D3F" stroke-width="0.675615" stroke-linecap="round" stroke-linejoin="round"/>
<path d="M50.768 62.3702H48.3821" stroke="#1C0D3F" stroke-width="0.675615" stroke-linecap="round" stroke-linejoin="round"/>
<path d="M51.0643 74.5834L49.5751 65.4877L47.0502 79.1283" stroke="#1C0D3F" stroke-width="0.675615" stroke-linecap="round" stroke-linejoin="round"/>
<path d="M49.5751 65.4877V60.5007" stroke="#1C0D3F" stroke-width="0.675615" stroke-linecap="round" stroke-linejoin="round"/>
<path d="M46.5001 96.2368L41.933 103.095H36.4315" stroke="#1C0D3F" stroke-width="0.675615" stroke-linecap="round" stroke-linejoin="round"/>
<path d="M56.6778 96.2368L52.1106 103.095H46.6102" stroke="#1C0D3F" stroke-width="0.675615" stroke-linecap="round" stroke-linejoin="round"/>
<path d="M67.1864 96.2368L62.6193 103.095H57.1179" stroke="#1C0D3F" stroke-width="0.675615" stroke-linecap="round" stroke-linejoin="round"/>
<path d="M88.1006 109.24H130.068L132.482 110.763V116.795" stroke="#1C0D3F" stroke-width="0.675615" stroke-linecap="round" stroke-linejoin="round"/>
<path d="M132.482 103.095V110.763L128.961 105.83L122.579 89.3263L115.977 106.27L114.108 109.241V102.639" stroke="#1C0D3F" stroke-width="0.675615" stroke-linecap="round" stroke-linejoin="round"/>
<path d="M128.961 105.83L130.068 109.241" stroke="#1C0D3F" stroke-width="0.675615" stroke-linecap="round" stroke-linejoin="round"/>
<path d="M131.161 105.005H134.021" stroke="#1C0D3F" stroke-width="0.675615" stroke-linecap="round" stroke-linejoin="round"/>
<path d="M121.149 84.8152H124.009" stroke="#1C0D3F" stroke-width="0.675615" stroke-linecap="round" stroke-linejoin="round"/>
<path d="M122.579 82.6145V89.3263H113.338" stroke="#1C0D3F" stroke-width="0.675615" stroke-linecap="round" stroke-linejoin="round"/>
<path d="M103.105 89.3263H88.1006" stroke="#1C0D3F" stroke-width="0.675615" stroke-linecap="round" stroke-linejoin="round"/>
<path d="M108.937 86.6857H103.105V100.723H108.937V86.6857Z" stroke="#1C0D3F" stroke-width="0.675615" stroke-linecap="round" stroke-linejoin="round"/>
<path d="M108.937 86.6857H113.338V91.1418L108.937 100.723" stroke="#1C0D3F" stroke-width="0.675615" stroke-linecap="round" stroke-linejoin="round"/>
<path d="M104.645 86.6855L108.496 58.5568L111.797 86.6855" stroke="#1C0D3F" stroke-width="0.675615" stroke-linecap="round" stroke-linejoin="round"/>
<path d="M108.496 58.5569V51.8085" stroke="#1C0D3F" stroke-width="0.675615" stroke-linecap="round" stroke-linejoin="round"/>
<path d="M107.176 53.4589H109.817" stroke="#1C0D3F" stroke-width="0.675615" stroke-linecap="round" stroke-linejoin="round"/>
<path d="M103.105 86.6856V80.0839" stroke="#1C0D3F" stroke-width="0.675615" stroke-linecap="round" stroke-linejoin="round"/>
<path d="M108.937 86.6856V80.0839" stroke="#1C0D3F" stroke-width="0.675615" stroke-linecap="round" stroke-linejoin="round"/>
<path d="M113.338 86.6856V80.0839" stroke="#1C0D3F" stroke-width="0.675615" stroke-linecap="round" stroke-linejoin="round"/>
<path d="M48.3831 112.321L45.2328 115.713V129.265" stroke="#1C0D3F" stroke-width="0.675615" stroke-linecap="round" stroke-linejoin="round"/>
<path d="M45.2328 115.713H48.3821" stroke="#1C0D3F" stroke-width="0.675615" stroke-linecap="round" stroke-linejoin="round"/>
<path d="M64.5564 112.321L61.407 115.713V135.535" stroke="#1C0D3F" stroke-width="0.675615" stroke-linecap="round" stroke-linejoin="round"/>
<path d="M61.407 115.713H64.5564" stroke="#1C0D3F" stroke-width="0.675615" stroke-linecap="round" stroke-linejoin="round"/>
<path d="M96.0776 112.321L92.9282 115.713V128.825" stroke="#1C0D3F" stroke-width="0.675615" stroke-linecap="round" stroke-linejoin="round"/>
<path d="M92.9282 115.713H96.0776" stroke="#1C0D3F" stroke-width="0.675615" stroke-linecap="round" stroke-linejoin="round"/>
<path d="M111.501 112.321L108.352 115.713V135.205" stroke="#1C0D3F" stroke-width="0.675615" stroke-linecap="round" stroke-linejoin="round"/>
<path d="M108.352 115.713H111.501" stroke="#1C0D3F" stroke-width="0.675615" stroke-linecap="round" stroke-linejoin="round"/>
<path d="M122.654 112.321L125.804 115.713V135.535" stroke="#1C0D3F" stroke-width="0.675615" stroke-linecap="round" stroke-linejoin="round"/>
<path d="M125.804 115.713H122.654" stroke="#1C0D3F" stroke-width="0.675615" stroke-linecap="round" stroke-linejoin="round"/>
<path d="M45.2328 144.087V156.612" stroke="#1C0D3F" stroke-width="0.675615" stroke-linecap="round" stroke-linejoin="round"/>
<path d="M61.407 149.926V156.612" stroke="#1C0D3F" stroke-width="0.675615" stroke-linecap="round" stroke-linejoin="round"/>
<path d="M112.898 104.124H115.427" stroke="#1C0D3F" stroke-width="0.675615" stroke-linecap="round" stroke-linejoin="round"/>
<path d="M99.4741 89.3263V78.4344H88.1006" stroke="#1C0D3F" stroke-width="0.675615" stroke-linecap="round" stroke-linejoin="round"/>
<path d="M96.1741 78.3157V67.4769H87.5552" stroke="#1C0D3F" stroke-width="0.675615" stroke-linecap="round" stroke-linejoin="round"/>
<path d="M124.999 156.612C124.927 155.075 124.89 153.599 124.89 151.654C124.89 132.361 128.557 116.721 133.087 116.721C137.152 116.721 140.526 129.333 141.172 145.876" stroke="#1C0D3F" stroke-width="0.675615" stroke-linecap="round" stroke-linejoin="round"/>
<path d="M138.022 123.763C138.022 123.763 132.617 122.406 128.15 123.763" stroke="#1C0D3F" stroke-width="0.675615" stroke-linecap="round" stroke-linejoin="round"/>
<path d="M139.709 131.067C139.709 131.067 133.086 129.3 126.464 131.067" stroke="#1C0D3F" stroke-width="0.675615" stroke-linecap="round" stroke-linejoin="round"/>
<path d="M140.746 139.193C140.746 139.193 130.842 137.641 125.427 139.193" stroke="#1C0D3F" stroke-width="0.675615" stroke-linecap="round" stroke-linejoin="round"/>
<path d="M124.885 148.004C124.885 148.004 133.179 147.124 139.466 148.004" stroke="#1C0D3F" stroke-width="0.675615" stroke-linecap="round" stroke-linejoin="round"/>
<path d="M132.184 138.516L131.158 140.165C131.158 140.165 127.979 140.006 125.422 140.657" stroke="#1C0D3F" stroke-width="0.675615" stroke-linecap="round" stroke-linejoin="round"/>
<path d="M130.398 130.392L132.481 132.298C132.481 132.298 136.403 130.767 138.022 130.72" stroke="#1C0D3F" stroke-width="0.675615" stroke-linecap="round" stroke-linejoin="round"/>
<path d="M132.481 123.16V121.893C132.481 121.893 133.208 121.595 137.5 122.221" stroke="#1C0D3F" stroke-width="0.675615" stroke-linecap="round" stroke-linejoin="round"/>
<path d="M132.482 147.602V148.739H136.222L138.022 147.836" stroke="#1C0D3F" stroke-width="0.675615" stroke-linecap="round" stroke-linejoin="round"/>
<path d="M26.9909 63.7632C27.2945 63.7632 27.5407 63.517 27.5407 63.2134C27.5407 62.9097 27.2945 62.6636 26.9909 62.6636C26.6872 62.6636 26.441 62.9097 26.441 63.2134C26.441 63.517 26.6872 63.7632 26.9909 63.7632Z" stroke="#1C0D3F" stroke-width="0.675615" stroke-linecap="round" stroke-linejoin="round"/>
<path d="M62.1007 68.563C62.4044 68.563 62.6505 68.3169 62.6505 68.0132C62.6505 67.7095 62.4044 67.4634 62.1007 67.4634C61.7971 67.4634 61.5509 67.7095 61.5509 68.0132C61.5509 68.3169 61.7971 68.563 62.1007 68.563Z" stroke="#1C0D3F" stroke-width="0.675615" stroke-linecap="round" stroke-linejoin="round"/>
<path d="M51.064 28.31C51.3676 28.31 51.6138 28.0638 51.6138 27.7601C51.6138 27.4565 51.3676 27.2103 51.064 27.2103C50.7603 27.2103 50.5142 27.4565 50.5142 27.7601C50.5142 28.0638 50.7603 28.31 51.064 28.31Z" stroke="#1C0D3F" stroke-width="0.675615" stroke-linecap="round" stroke-linejoin="round"/>
<path d="M83.1537 20.8482C83.4574 20.8482 83.7035 20.602 83.7035 20.2984C83.7035 19.9947 83.4574 19.7485 83.1537 19.7485C82.85 19.7485 82.6039 19.9947 82.6039 20.2984C82.6039 20.602 82.85 20.8482 83.1537 20.8482Z" stroke="#1C0D3F" stroke-width="0.675615" stroke-linecap="round" stroke-linejoin="round"/>
<path d="M7.09688 79.6778C7.40053 79.6778 7.64669 79.4316 7.64669 79.1279C7.64669 78.8243 7.40053 78.5781 7.09688 78.5781C6.79322 78.5781 6.54706 78.8243 6.54706 79.1279C6.54706 79.4316 6.79322 79.6778 7.09688 79.6778Z" stroke="#1C0D3F" stroke-width="0.675615" stroke-linecap="round" stroke-linejoin="round"/>
<path d="M36.4312 75.1328C36.7349 75.1328 36.981 74.8867 36.981 74.583C36.981 74.2794 36.7349 74.0332 36.4312 74.0332C36.1276 74.0332 35.8814 74.2794 35.8814 74.583C35.8814 74.8867 36.1276 75.1328 36.4312 75.1328Z" stroke="#1C0D3F" stroke-width="0.675615" stroke-linecap="round" stroke-linejoin="round"/>
<path d="M150.913 79.1277C151.217 79.1277 151.463 78.8815 151.463 78.5779C151.463 78.2742 151.217 78.0281 150.913 78.0281C150.609 78.0281 150.363 78.2742 150.363 78.5779C150.363 78.8815 150.609 79.1277 150.913 79.1277Z" stroke="#1C0D3F" stroke-width="0.675615" stroke-linecap="round" stroke-linejoin="round"/>
<path d="M154.056 106.379C154.359 106.379 154.605 106.133 154.605 105.829C154.605 105.526 154.359 105.28 154.056 105.28C153.752 105.28 153.506 105.526 153.506 105.829C153.506 106.133 153.752 106.379 154.056 106.379Z" stroke="#1C0D3F" stroke-width="0.675615" stroke-linecap="round" stroke-linejoin="round"/>
<path d="M145.862 118.66C146.166 118.66 146.412 118.414 146.412 118.11C146.412 117.806 146.166 117.56 145.862 117.56C145.559 117.56 145.312 117.806 145.312 118.11C145.312 118.414 145.559 118.66 145.862 118.66Z" stroke="#1C0D3F" stroke-width="0.675615" stroke-linecap="round" stroke-linejoin="round"/>
<path d="M139.078 62.3706C139.382 62.3706 139.628 62.1245 139.628 61.8208C139.628 61.5172 139.382 61.271 139.078 61.271C138.775 61.271 138.528 61.5172 138.528 61.8208C138.528 62.1245 138.775 62.3706 139.078 62.3706Z" stroke="#1C0D3F" stroke-width="0.675615" stroke-linecap="round" stroke-linejoin="round"/>
<path d="M138.528 48.7086C138.832 48.7086 139.078 48.4625 139.078 48.1588C139.078 47.8552 138.832 47.609 138.528 47.609C138.225 47.609 137.978 47.8552 137.978 48.1588C137.978 48.4625 138.225 48.7086 138.528 48.7086Z" stroke="#1C0D3F" stroke-width="0.675615" stroke-linecap="round" stroke-linejoin="round"/>
<path d="M103.105 27.7598C103.408 27.7598 103.654 27.5136 103.654 27.21C103.654 26.9063 103.408 26.6602 103.105 26.6602C102.801 26.6602 102.555 26.9063 102.555 27.21C102.555 27.5136 102.801 27.7598 103.105 27.7598Z" stroke="#1C0D3F" stroke-width="0.675615" stroke-linecap="round" stroke-linejoin="round"/>
<path d="M35.881 45.4628C36.1847 45.4628 36.4308 45.2166 36.4308 44.913C36.4308 44.6093 36.1847 44.3632 35.881 44.3632C35.5773 44.3632 35.3312 44.6093 35.3312 44.913C35.3312 45.2166 35.5773 45.4628 35.881 45.4628Z" stroke="#1C0D3F" stroke-width="0.675615" stroke-linecap="round" stroke-linejoin="round"/>
<path d="M54.8834 49.3511C55.5418 49.3511 56.0754 48.8175 56.0754 48.1591C56.0754 47.5008 55.5418 46.9672 54.8834 46.9672C54.2251 46.9672 53.6915 47.5008 53.6915 48.1591C53.6915 48.8175 54.2251 49.3511 54.8834 49.3511Z" stroke="#1C0D3F" stroke-width="0.675615" stroke-linecap="round" stroke-linejoin="round"/>
<path d="M12.1712 101.236C12.8295 101.236 13.3631 100.703 13.3631 100.044C13.3631 99.3861 12.8295 98.8524 12.1712 98.8524C11.5129 98.8524 10.9792 99.3861 10.9792 100.044C10.9792 100.703 11.5129 101.236 12.1712 101.236Z" stroke="#1C0D3F" stroke-width="0.675615" stroke-linecap="round" stroke-linejoin="round"/>
<path d="M67.1865 31.3923C67.8448 31.3923 68.3785 30.8586 68.3785 30.2003C68.3785 29.542 67.8448 29.0083 67.1865 29.0083C66.5282 29.0083 65.9945 29.542 65.9945 30.2003C65.9945 30.8586 66.5282 31.3923 67.1865 31.3923Z" stroke="#1C0D3F" stroke-width="0.675615" stroke-linecap="round" stroke-linejoin="round"/>
<path d="M119.132 72.5479C119.79 72.5479 120.324 72.0142 120.324 71.3559C120.324 70.6976 119.79 70.1639 119.132 70.1639C118.473 70.1639 117.94 70.6976 117.94 71.3559C117.94 72.0142 118.473 72.5479 119.132 72.5479Z" stroke="#1C0D3F" stroke-width="0.675615" stroke-linecap="round" stroke-linejoin="round"/>
<path d="M141.171 87.8776C141.829 87.8776 142.363 87.3439 142.363 86.6856C142.363 86.0273 141.829 85.4937 141.171 85.4937C140.513 85.4937 139.979 86.0273 139.979 86.6856C139.979 87.3439 140.513 87.8776 141.171 87.8776Z" stroke="#1C0D3F" stroke-width="0.675615" stroke-linecap="round" stroke-linejoin="round"/>
<path d="M119.132 48.8011C119.79 48.8011 120.324 48.2674 120.324 47.6091C120.324 46.9508 119.79 46.4171 119.132 46.4171C118.473 46.4171 117.94 46.9508 117.94 47.6091C117.94 48.2674 118.473 48.8011 119.132 48.8011Z" stroke="#1C0D3F" stroke-width="0.675615" stroke-linecap="round" stroke-linejoin="round"/>
<path d="M25.4422 132.485H21.9763V138.173H25.4422V132.485Z" stroke="#1C0D3F" stroke-width="0.675615" stroke-linecap="round" stroke-linejoin="round"/>
<path d="M32.0709 132.485H28.605V138.173H32.0709V132.485Z" stroke="#1C0D3F" stroke-width="0.675615" stroke-linecap="round" stroke-linejoin="round"/>
<path d="M25.4422 140.913H21.9763V146.601H25.4422V140.913Z" stroke="#1C0D3F" stroke-width="0.675615" stroke-linecap="round" stroke-linejoin="round"/>
<path d="M32.0709 140.913H28.605V146.601H32.0709V140.913Z" stroke="#1C0D3F" stroke-width="0.675615" stroke-linecap="round" stroke-linejoin="round"/>
</g>
<defs>
<clipPath id="clip0_154_5111">
<rect width="160" height="174.103" fill="white" transform="translate(0 0.896973)"/>
</clipPath>
</defs>
</svg>
