<svg width="752" height="1797" viewBox="0 0 752 1797" fill="none" xmlns="http://www.w3.org/2000/svg">
<path d="M1244 1253.21C1241.5 1256.62 1239.08 1260.35 1236.57 1263.75C1230.07 1272.67 1223.57 1281.6 1216.99 1290.2C1211.59 1297.63 1203.97 1303.15 1195.22 1305.94C1188.75 1307.43 1182.06 1307.59 1175.52 1306.44C1163.71 1304.47 1152.29 1301.38 1140.63 1298.69C1104.14 1289.22 1066.5 1284.92 1028.82 1285.91C1021.05 1286.28 1013.29 1286.65 1005.7 1287.66C995.784 1288.95 986.043 1290.88 976.217 1292.49C970.074 1293.22 964.028 1294.61 958.182 1296.63C948.464 1299.92 938.769 1304.57 929.136 1308.18C916.369 1313.45 904.138 1319.93 892.612 1327.54C885.235 1331.91 878.838 1337.38 871.547 1342.07C859.665 1350.04 848.187 1358.25 836.048 1365.26C828.034 1369.8 819.421 1372.11 809.884 1367.14C803.62 1363.83 798.835 1358.27 796.485 1351.59C791.812 1340.53 791.863 1329.23 791.594 1318.02C791.142 1295.92 791.818 1274.2 791.685 1252.01C791.877 1231.36 790.351 1210.72 787.123 1190.32C785.601 1180.82 783.675 1171.07 781.834 1161.65C780.358 1154.87 779.115 1147.68 776.916 1140.75C771.205 1122.13 763.739 1104.1 754.621 1086.89C747.18 1073.15 738.867 1060 730.321 1047.24C713.805 1022.61 694.293 1000.82 676.438 977.572C660.223 956.616 644.795 934.766 629.048 913.001C609.53 886.092 588.991 860.482 565.246 839.492C550.954 826.751 535.991 814.782 520.423 803.636C511.183 797.223 501.942 790.809 492.935 783.991C480.664 775.052 469.746 764.389 460.519 752.332C451.032 739.386 445.89 723.768 445.83 707.718C445.686 691.484 448.425 675.354 453.92 660.077C461.973 633.986 473.751 610.316 484.402 586.265C490.809 571.897 498.026 557.997 504.837 543.863C512.35 528.516 519.777 512.851 527.608 497.418C546.051 460.338 562.299 421.452 579.443 383.352C588.97 361.105 600.832 339.933 614.83 320.191C630.277 298.388 649.165 279.239 670.754 263.494C679.295 256.998 688.696 251.717 698.688 247.803C703.388 246.202 707.831 243.644 712.616 242.362C733.379 236.888 755.311 237.803 775.546 244.988C787.462 249.111 798.828 254.677 809.39 261.562C821.617 269.629 832.558 279.491 841.846 290.817C848.898 299.646 854.353 309.639 857.964 320.346C865.201 340.973 865.63 361.714 865.102 382.712C863.953 408.098 861.491 433.408 857.725 458.539C856.041 472.667 854.037 486.879 852.437 501.326C850.481 516.885 850.449 532.625 852.344 548.191C854.873 565.921 861.732 582.755 872.315 597.203C884.951 615.015 899.775 629.505 914.365 644.401C933.108 663.312 952.17 682.138 971.466 700.558C981.966 710.395 992.933 719.423 1003.9 728.451C1026.3 746.792 1051.18 761.881 1077.79 773.271C1090.22 778.83 1102.95 782.942 1115.53 787.777C1116.76 788.46 1118.06 789.028 1119.4 789.474M1230.58 1203.13C1228.76 1205.01 1226.84 1206.78 1224.82 1208.44C1217.47 1214.17 1209.8 1219.99 1202.27 1225.08C1192.6 1231.99 1182.55 1238.33 1172.15 1244.09C1165.14 1247.67 1157.7 1250.35 1150.02 1252.07C1137.84 1254.18 1125.57 1255.65 1113.24 1256.46C1095.07 1257.56 1076.74 1258.03 1058.48 1258.82C1044.64 1259.45 1030.38 1259.85 1016.54 1260.49C1010.13 1260.84 1003.58 1261.91 997.264 1262.57C988.628 1263.52 980.311 1264.38 971.761 1265.65C968.166 1266.27 964.486 1266.57 961.296 1267.42C944.304 1271.64 926.992 1275.93 910 1280.14C902.663 1282.11 895.349 1285.44 887.841 1286.76C878.419 1288.61 869.401 1290.68 859.444 1289.25C845.869 1287.07 836.434 1278.66 831.289 1263.28C828.087 1253.88 825.204 1244.4 822.958 1234.74C820.713 1225.09 819.744 1215.09 817.818 1205.35C816.49 1197.84 814.524 1190.51 813.515 1182.91C810.195 1164.36 805.74 1146.03 800.174 1128.02C796.662 1116.15 792.508 1104.48 787.73 1093.06C780.323 1075.25 771.488 1058.07 761.311 1041.68C751.591 1025.82 741.234 1010.13 731.28 994.677C719.772 977.246 708.03 960.22 696.607 943.109C686.996 928.931 677.384 914.753 668.092 900.49C647.371 869.385 621.748 841.843 592.218 818.933C582.722 811.563 573.139 803.873 563.409 796.907C549.463 786.968 535.05 777.837 521.423 767.813C508.854 759.154 497.795 748.488 488.688 736.239C483.029 728.761 479.083 720.132 477.128 710.96C475.601 702.406 475.105 693.7 475.65 685.029C477.166 666.9 481.517 649.121 488.542 632.34C493.993 618.23 499.358 603.8 505.703 590.475C514.593 571.34 523.974 552.757 533.354 534.174C539.551 521.573 545.833 509.29 552.115 497.008C561.496 478.425 570.877 459.842 580.172 440.94C583.589 434.554 586.198 427.701 589.615 421.314C603.239 393.047 616.629 365.184 634.81 341.166C649.847 320.726 667.334 303.048 688.04 291.004C694.864 287.124 702.264 284.115 709.259 280.873C720.735 276.156 733.227 274.457 745.545 275.937C756.953 277.246 767.96 280.937 777.852 286.769C789.133 293.108 798.922 301.794 806.559 312.242C816.291 325.628 822.578 341.204 824.865 357.596C828.779 382.009 828.275 406.926 823.379 431.161C817.691 459.695 810.875 487.848 804.377 515.916C800.885 529.911 799.109 544.279 799.089 558.703C799.223 567.178 800.224 575.616 802.076 583.887C805.683 599.084 813.432 612.985 824.461 624.046C835.004 634.341 846.717 643.367 859.361 650.936C881.051 664.482 901.996 679.185 922.106 694.982C939.886 709.023 957.137 724.914 974.683 739.359C996.531 757.096 1018.76 773.706 1042.6 786.122C1058.18 794.412 1074.37 801.504 1091.02 807.337C1102.71 811.387 1114.54 814.713 1126.22 818.762C1127.36 819.281 1128.44 819.907 1129.46 820.63M301.96 -135.459C301.664 -134.012 300.964 -132.798 300.668 -131.352C298.39 -114.33 296.113 -97.3086 294.56 -80.1391C292.357 -53.9063 290.155 -27.6732 292.294 -0.552155C294.13 22.889 296.371 46.5632 298.207 70.0043C299.849 91.4459 300.535 113.144 295.751 133.573C290.228 157.618 278.335 174.481 260.819 185.671C248.299 193.812 234.092 196.934 219.97 200.376C210.69 202.115 201.326 203.369 191.915 204.133C183.279 205.08 174.791 205.302 166.155 206.248C159.519 207.001 153.054 208.392 146.822 209.378C139.399 211.025 131.806 212.034 124.873 214.233C108.335 219.327 93.1513 228.069 80.4426 239.814C64.1991 255.086 51.8063 273.991 44.2801 294.977C38.1642 310.34 35.3569 326.82 36.0413 343.342C36.4392 353.272 38.9435 363.004 43.3883 371.892C47.833 380.781 54.1166 388.623 61.8225 394.898C73.8577 405.012 87.7577 412.671 102.737 417.442C122.189 424.257 142.421 428.6 162.956 430.368C187.828 432.593 212.613 434.5 237.462 435.363C259.268 436.358 281.137 436.311 302.904 439.71C315.152 441.153 326.874 445.517 337.085 452.433C346.158 458.832 353.092 467.816 356.985 478.214C363.452 495.969 363.026 513.52 360.43 530.627C357.675 549.211 352.542 567.363 345.156 584.637C339.153 599.238 333.47 613.754 327.467 628.354C323.776 637.549 318.872 646.043 315.182 655.237C306.103 677.5 297.11 700.082 292.077 724.68C287.159 746.776 285.865 769.525 288.243 792.037C289.429 803.92 291.772 815.659 295.241 827.086C301.35 846.819 310.502 865.477 322.367 882.386C337.391 904.003 355.069 921.49 372.684 940.02C383.121 950.899 392.687 962.354 402.571 973.724C414.186 988.076 423.928 1003.85 431.559 1020.66C437.787 1033.69 443.057 1046.98 448.647 1060.19C459.74 1086.28 470.833 1112.37 484.308 1137.13C490.512 1148.8 496.483 1160.88 502.454 1172.96C511.006 1190.84 508.683 1205.14 496.038 1215.36C489.321 1220.42 481.843 1224.39 473.885 1227.11C466.963 1230.03 459.86 1232.51 452.62 1234.52C440.413 1237.45 428.268 1239.33 415.89 1241.63C404.41 1243.76 392.686 1244.25 381.067 1243.09C366.149 1242.1 351.462 1238.89 337.488 1233.57C311.374 1224.16 286.297 1209.68 260.393 1198.5C234.49 1187.32 208.758 1176.78 182.94 1165.92C156.704 1154.98 131.181 1142.41 106.524 1128.27C83.4685 1114.96 60.9661 1101.16 37.4669 1090.02C37.0624 1089.78 36.3389 1089.63 35.9345 1089.4M1218.36 1157.52C1218.41 1157.97 1218.42 1158.42 1218.38 1158.88C1203.2 1166.02 1189.75 1175.78 1175.72 1184.67C1164.3 1191.83 1153.21 1198.91 1141.53 1205.11C1134.19 1208.8 1126.55 1211.87 1118.7 1214.31C1113.53 1216.55 1108.17 1218.32 1102.69 1219.62C1093.26 1221.46 1084.08 1222.9 1074.57 1224.42C1068.97 1225.24 1063.47 1226.37 1057.79 1226.87C1051.47 1227.54 1045.15 1228.2 1038.75 1228.55C1031.07 1229.24 1023.39 1229.93 1015.63 1230.3C1010.27 1230.71 1004.82 1230.8 999.459 1231.21C991.781 1231.9 984.102 1232.59 976.337 1232.96C967.297 1233.68 958.171 1234.07 948.726 1234.55C939.281 1235.03 930.327 1236.06 921.115 1236.14C909.181 1236.26 897.395 1235.65 885.369 1230.33C872.897 1224.13 863.059 1213.66 857.636 1200.84C852.984 1191.15 849.247 1181.05 846.474 1170.66C843.225 1158.54 839.573 1146.18 836.006 1134.15C832.439 1122.11 828.467 1109.84 823.943 1098.06C814.749 1072.98 803.654 1048.63 790.755 1025.24C779.434 1004.68 767.475 984.295 756.388 963.333C745.471 943.008 735.427 922.108 724.829 901.699C715.896 884.946 707.367 868.427 697.647 852.568C688.012 837.328 676.051 823.69 662.199 812.148C643.183 796.046 622.407 784.86 602.097 772.865C587.855 764.372 573.847 755.476 559.605 746.984C546.763 739.219 535.328 729.335 525.787 717.751C517.647 707.712 512.501 695.583 510.939 682.753C508.58 666.29 511.455 651.502 515.139 637.18C520.653 615.561 528.577 594.629 538.763 574.779C550.775 550.704 563.915 527.011 576.417 503.489C588.07 481.903 599.49 460.723 611.229 439.456C621.586 419.643 632.975 400.387 645.346 381.765C655.029 367.147 666.853 354.066 680.422 342.962C690.148 335.127 701.536 329.62 713.717 326.861C731.456 324.16 748.267 328.203 761.883 347.12C766.317 353.511 769.707 360.565 771.928 368.019C775.986 383.186 777.202 398.973 775.515 414.583C773.672 438.326 767.06 459.586 761.257 481.313C756.575 498.295 751.894 515.277 748.427 532.959C744.539 552.458 743.552 572.422 745.498 592.209C746.964 609.198 752.078 625.67 760.49 640.503C768.329 653.885 779.328 665.142 792.524 673.29C806.841 681.299 821.895 687.913 837.478 693.042C859.484 701.163 881.257 709.689 901.76 723.684C918.452 734.939 934.996 746.917 951.539 758.895C962.569 766.881 973.535 775.909 984.564 783.894C1006.27 799.9 1029.91 813.095 1054.92 823.166C1070.56 829.231 1086.44 834.892 1102.23 840.234C1112.7 843.583 1123.24 845.889 1133.62 848.919C1134.76 849.438 1135.84 850.064 1136.86 850.787M283.598 -131.234C281.32 -114.213 279.043 -97.1912 276.852 -79.8507C273.191 -54.6265 271.557 -29.1493 271.965 -3.66425C272.348 14.3539 273.774 32.4346 274.795 50.2818C275.947 71.1709 276.781 92.1455 272.636 112.403C268.786 131.213 260.55 146.412 247.671 157.043C238.551 164.381 227.957 169.669 216.61 172.546C204.499 175.741 192.116 177.8 179.622 178.695C167.859 179.454 156.096 180.213 144.504 181.61C135.054 182.722 125.669 184.324 116.386 186.408C109.354 187.78 102.426 189.636 95.6508 191.964C84.5912 196.341 74.3498 202.553 65.3582 210.338C50.0511 224.624 37.4456 241.552 28.1469 260.311C17.3779 280.543 9.36215 302.124 4.31255 324.48C1.26505 337.536 0.596556 351.034 2.33923 364.327C4.53884 378.675 11.2102 391.963 21.403 402.298C35.0133 416.088 51.0838 423.749 67.217 430.367C85.3701 437.466 104.266 442.496 123.546 445.361C151.505 450.178 179.504 452.591 207.417 454.685C225.224 456.068 243.117 457.769 260.862 460.194C275.086 461.586 288.995 465.247 302.061 471.037C312.792 475.681 321.822 483.532 327.913 493.513C331.673 499.838 334.235 506.801 335.469 514.055C338.815 536.749 334.669 557.007 328.354 576.82C324.094 590.27 318.706 603.338 313.637 616.321C308.95 628.176 303.858 639.797 299.085 651.333C289.239 674.299 281.305 698.037 275.365 722.308C269.742 746.502 267.998 771.435 270.199 796.176C270.889 803.854 272.217 811.363 273.545 818.871C274.444 824.984 275.831 831.014 277.694 836.905C283.77 857.423 292.588 877.026 303.909 895.185C317.827 917.782 334.804 936.482 351.634 955.906C366.993 973.672 381.8 991.928 393.463 1013.76C399.429 1024.65 404.625 1035.94 409.011 1047.55C412.128 1056.63 415.65 1065.94 418.766 1075.02C423.336 1089.52 427.587 1104.11 431.2 1118.87C434.576 1131.46 435.423 1144.6 433.693 1157.52C432.675 1164.38 430.053 1170.89 426.042 1176.54C422.031 1182.19 416.742 1186.81 410.607 1190.03C403.384 1194.24 395.396 1196.96 387.11 1198.04C378.662 1199.07 370.136 1199.29 361.646 1198.71C348.326 1197.79 335.188 1195.1 322.579 1190.71C309.852 1186.6 297.188 1181.45 284.291 1176.7C265.264 1169.49 246.151 1161.96 227.21 1155.07C192.072 1142.6 156.998 1129.09 123.426 1109.71C103.288 1098.35 83.2979 1086.27 63.2451 1075.23C51.1963 1068.55 38.766 1062.99 26.2502 1057.11M104.316 1349.72C116.171 1354.41 127.94 1358.78 139.561 1363.87C155.233 1371.14 169.966 1380.28 183.439 1391.09C196.428 1401.29 208.949 1412.29 221.386 1422.98C248.133 1446.24 276.515 1466.67 307.397 1478.57C325.406 1485.64 344.252 1490.36 363.469 1492.6C376.254 1493.81 389.114 1494.03 401.932 1493.24C411.428 1492.41 420.852 1490.92 430.136 1488.76C437.644 1487.43 445.385 1485.7 452.722 1483.73C463.249 1480.91 473.605 1477.45 484.366 1474.23C495.764 1470.83 506.992 1466.8 518.965 1464.27C537.405 1460.36 556.272 1458.04 575.549 1461.08C591.437 1462.98 606.488 1469.24 619.032 1479.17C629.13 1487.64 636.622 1498.79 640.642 1511.33C644.933 1523.52 648.67 1536.19 652.961 1548.38C657.58 1562.36 664.342 1575.54 673.005 1587.45C677.206 1593.12 681.935 1598.38 687.128 1603.16C700.481 1615.1 716.947 1623.02 734.616 1625.99C747.653 1628.64 761.052 1628.98 774.207 1627.01C781.344 1626.17 788.415 1624.85 795.37 1623.05C803.897 1620.42 811.849 1616.92 819.887 1613.74C827.286 1610.73 834.6 1607.41 842.49 1604.95C853.484 1601.32 864.882 1597.92 876.047 1594.93C882.057 1593.73 888.152 1593.01 894.276 1592.78C899.232 1592.14 904.507 1591.41 909.463 1590.76C915.461 1590.18 921.779 1589.52 927.692 1588.62L936.561 1587.27C941.432 1586.3 946.217 1585.02 951.173 1584.38C972.91 1581.29 994.112 1574.92 1015.08 1568.96C1024.27 1566.1 1033.3 1562.76 1042.15 1558.97C1047.08 1556.97 1052.1 1555.28 1056.95 1552.96C1063.71 1550.12 1070.79 1547.2 1077.38 1543.72C1090.99 1536.68 1103.86 1528.3 1115.81 1518.72C1132.58 1505.21 1146.47 1488.47 1156.64 1469.49C1164.5 1454.57 1169.65 1438.37 1171.86 1421.65C1173.84 1408.98 1172.71 1396.03 1168.58 1383.89C1164.96 1373.04 1158.59 1363.33 1150.08 1355.68C1132.02 1339.32 1112.02 1331.01 1091.1 1325.67C1075.86 1321.76 1060.24 1319.53 1044.52 1319.01C1033.26 1318.94 1022.01 1319.56 1010.83 1320.85C997.57 1321.8 984.481 1324.38 971.863 1328.56C964.792 1330.86 957.88 1333.62 951.174 1336.84C943.051 1340.54 935.15 1344.71 927.512 1349.33C910.21 1360.43 894.739 1374.15 881.652 1390C871.286 1402.35 861.409 1415.25 851.447 1427.84C843.757 1437.42 835.982 1446.68 825.82 1452.14C810.662 1460.65 794.877 1460.43 778.185 1449.18C772.18 1445.24 767.071 1440.09 763.191 1434.05C759.312 1427.91 756.767 1421.02 755.721 1413.83C754.19 1399.1 755.296 1384.21 758.987 1369.87C764.761 1341.66 771.258 1313.59 774.286 1284.06C776.647 1259.97 776.561 1235.71 774.029 1211.64C772.136 1193.73 768.43 1176.05 762.968 1158.88C758.21 1144.29 752.347 1130.09 745.43 1116.39C735.621 1097.78 724.03 1080.16 710.819 1063.78C700.593 1051.14 690.133 1038.9 679.439 1027.06C660.736 1005.75 642.67 984.26 625.772 960.752C612.56 942.068 599.497 922.662 585.732 904.468C572.987 887.485 558.494 871.887 542.491 857.931C521.834 839.533 499.799 824.923 478.293 808.462C466.153 799.597 455.37 789.011 446.281 777.037C439.731 768.125 435.038 757.988 432.482 747.228C429.68 734.199 429.562 720.736 432.136 707.66C435.574 690.389 440.794 673.522 447.712 657.329C451.636 647.73 455.879 638.046 460.208 628.681C470.414 606.799 480.706 585.237 490.998 563.674C496.727 551.882 502.372 539.771 507.783 528.064C518.604 504.651 529.425 481.237 539.842 457.589C551.871 429.749 562.686 401.209 574.8 373.687C585.354 349.523 599.209 326.941 615.969 306.585C630.908 288.533 647.893 272.279 666.585 258.148C675.952 250.784 686.316 244.783 697.367 240.327C703.75 237.538 710.323 235.205 717.037 233.347C727.609 230.956 738.489 230.232 749.285 231.202C776.241 233.552 801.888 243.776 826.732 258.659C843.102 268.036 857.703 280.208 869.875 294.623C878.377 305.052 884.732 317.061 888.574 329.957C892.955 346.097 894.671 362.845 893.654 379.539C892.721 400.303 891.299 420.515 889.643 441.131C887.651 465.598 885.021 490.235 885.2 515.146C885.226 527.239 886.287 539.309 888.37 551.222C892.315 576.15 902.849 597.602 916.722 617.476C933.151 640.844 951.303 662.951 971.027 683.614C984.753 698.544 999.468 712.535 1015.07 725.491C1035.56 742.717 1058.27 757.101 1082.6 768.255C1092.78 773.05 1103.33 776.719 1114.06 781.024C1115.55 781.708 1116.95 782.602 1118.19 783.678M82.4348 1268.06C91.7148 1272.07 100.59 1275.85 109.551 1279.94C129.091 1289.07 148.546 1297.87 167.938 1307.72C186.148 1317.02 203.133 1328.55 218.503 1342.04C233.623 1355.08 248.509 1368.53 263.862 1381.17C286.861 1400.65 311.705 1415.53 338.582 1422.69C353.031 1426.62 368.007 1428.26 382.964 1427.55C393.855 1427.23 404.668 1425.6 415.166 1422.69C418.994 1421.66 422.759 1421.68 426.502 1420.33C436.943 1417.19 447.299 1413.73 457.974 1410.19C466.098 1407.33 474.54 1404.38 482.748 1401.84C495.018 1397.87 507.374 1394.22 520.134 1390.8C528.832 1388.81 537.787 1387.78 546.656 1386.43C554.25 1385.42 561.758 1384.09 569.032 1383.17C575.668 1382.41 582.39 1381.98 588.708 1381.31C593.664 1380.67 598.79 1380.66 603.661 1379.7C613.925 1378.2 624.084 1376.05 634.074 1373.26C663.485 1364.35 687.523 1345.61 703.909 1314.89C714.048 1295.91 720.444 1275.16 722.748 1253.77C724.563 1238.86 724.094 1223.77 721.354 1209.01C720.271 1201.36 718.699 1193.79 716.647 1186.34C711.283 1168.68 703.334 1151.92 693.059 1136.59C677.437 1112.74 657.737 1094.08 638.036 1075.43C618.336 1056.77 597.593 1038.06 581.333 1014.38C574.109 1004 567.033 992.908 560.362 982.045C547.594 961.191 535.464 940.167 520.805 921.187C510.177 907.171 498.033 894.373 484.595 883.023C470.54 871.403 455.614 860.359 441.56 848.739C427.996 837.672 414.517 826.923 402.969 811.897C394.019 800.529 387.449 787.476 383.65 773.516C379.85 759.556 378.899 744.973 380.853 730.638C382.573 718.524 385.32 706.579 389.065 694.932C392.31 684.027 396.306 673.359 401.025 663.007C407.432 648.639 414.415 635.144 421.227 621.01C423.625 615.923 426.108 611.155 428.187 606.153C441.935 575.8 456.089 545.682 469.029 514.862C479.747 489.956 488.764 464.351 496.018 438.224C504.087 408.368 511.753 378.279 519.907 348.741C527.425 321.311 540.613 295.763 558.62 273.748C572.598 257.011 587.96 241.611 603.089 226.617C620.895 208.853 638.382 191.176 656.359 174.05C663.561 167.034 671.78 161.143 680.738 156.577C694.059 149.867 709.321 148.078 723.832 151.526C743.969 155.937 763.54 162.623 782.167 171.454C808.964 183.42 835.762 195.386 862.411 208.076C878.886 215.97 895.213 224.587 911.392 233.928C925.801 242.155 938.409 253.195 948.469 266.389C954.322 274.201 958.852 282.92 961.88 292.199C967.714 310.312 969.352 329.515 966.67 348.355C963.892 373.716 960.71 398.844 957.614 424.291C954.744 449.329 954.525 474.6 956.959 499.685C959.052 517.684 963.11 535.399 969.063 552.513C975.934 572.87 985.701 592.132 998.063 609.704C1009.12 626.128 1021.81 641.4 1035.92 655.29C1052.81 671.805 1071.8 686.029 1092.39 697.599C1093.83 698.578 1095.17 699.711 1096.37 700.977M96.5124 1319.33C121.115 1327.38 144.75 1338.14 166.987 1351.39C182.166 1360.75 196.475 1371.44 209.742 1383.36C222.754 1394.91 236.233 1405.66 249.16 1416.9C265.685 1430.94 284.015 1442.7 303.662 1451.87C324.104 1461.61 346.285 1467.18 368.905 1468.24C379.564 1468.46 390.222 1468.68 400.709 1468.26C407.75 1467.74 414.449 1465.95 421.319 1464.79C426.508 1463.74 432.103 1462.93 437.207 1461.56C444.544 1459.6 451.795 1457.31 458.961 1454.71C466.532 1452.34 474.335 1449.56 481.735 1446.55C496.333 1440.88 511.331 1436.29 526.606 1432.82C534.985 1430.92 543.621 1429.97 552.171 1428.71C572.867 1425.55 594.121 1427.04 615.118 1427.57C625.862 1428.11 636.52 1428.33 647.326 1427.83C664.632 1427.38 681.098 1420.27 693.296 1407.99C705.213 1395.36 715.326 1381.14 723.347 1365.74C735.05 1344.39 743.647 1321.48 748.879 1297.7C755.957 1269.24 757.553 1239.69 753.582 1210.62C752.402 1202.39 751.222 1194.16 749.319 1185.78C747.549 1177.26 745.294 1168.85 742.567 1160.58C738.197 1149.34 733.198 1138.35 727.593 1127.67C716.316 1106.59 702.246 1087.13 685.764 1069.81L639.755 1020.6C623.755 1003.15 609.238 984.393 596.354 964.53C584.355 946.547 572.186 927.927 559.72 910.753C546.561 892.607 531.038 876.299 513.563 862.262C498.38 850.26 482.964 838.663 467.868 826.981C456.205 818.419 445.297 808.874 435.264 798.45C423.748 786.087 415.676 770.921 411.853 754.463C409.971 745.955 409.472 737.2 410.375 728.533C411.654 709.961 416.145 691.752 423.649 674.716C428.804 662.052 433.639 649.474 439.283 637.363C448.322 617.504 458.169 598.112 467.613 578.486C470.244 572.995 473.109 567.099 475.655 561.288C479.983 551.923 484.312 542.557 488.322 533.277C494.581 519.633 501.159 505.904 506.928 491.707C515.392 470.977 523.365 449.694 531.424 428.73C537.404 412.768 542.98 396.572 549.364 380.844C554.433 367.861 559.502 354.878 565.379 342.362C573.792 324.702 584.416 308.183 596.997 293.203C605.558 283.046 614.204 273.207 623.66 263.836C640.579 246.199 659.643 230.754 680.404 217.86C692.382 210.737 705.54 205.821 719.254 203.347C733.873 201.19 748.781 202.085 763.038 205.975C782.745 210.846 801.896 217.746 820.181 226.563C835.746 234.107 850.889 242.491 865.545 251.676C877.895 259.467 889.153 268.868 899.021 279.632C908.407 289.888 915.135 302.29 918.614 315.751C923.23 333.221 924.621 351.387 922.72 369.356C921.508 387.801 919.573 406.098 917.957 424.31C915.592 446.625 914.525 469.058 914.761 491.496C914.942 506.595 916.347 521.655 918.963 536.527C921.593 549.948 925.352 563.123 930.2 575.912C939.995 600.981 954.295 622.45 969.7 642.939C986.181 664.967 1005 685.145 1025.83 703.119C1044.16 719.032 1064.54 732.43 1086.42 742.955C1093.12 746.287 1100.06 749.214 1107.09 752.461C1108.01 753.061 1108.88 753.744 1109.69 754.5M88.6501 1289.99C107.934 1298.15 126.898 1306.41 146.267 1314.89C168.742 1325.19 189.759 1338.41 208.773 1354.22C222.742 1365.52 236.096 1378.35 249.831 1390.05C270.722 1408.05 292.29 1423.47 316.085 1433.16C345.915 1445.14 378.566 1448.26 410.125 1442.15C421.375 1439.48 432.392 1437.21 443.472 1433.9C451.766 1431.68 459.484 1428.59 467.607 1425.72C475.092 1423.04 482.173 1420.11 489.829 1418.06C503.056 1413.83 516.368 1409.92 529.447 1406.42C537.144 1404.76 544.937 1403.59 552.78 1402.9C561.33 1401.64 569.966 1400.69 578.602 1399.75C585.962 1399.14 593.726 1398.77 601.001 1397.85C608.275 1396.92 615.721 1396.64 622.909 1395.39C631.055 1393.9 639.435 1391.99 647.41 1389.86C662.335 1385.41 675.913 1377.31 686.908 1366.28C702.76 1351.43 714.607 1331.85 723.452 1309.99C732.115 1288.27 736.696 1265.13 736.964 1241.75C737.129 1228.06 736.095 1214.38 733.873 1200.87C729.011 1174.06 718.683 1148.55 703.532 1125.91C688.571 1103.25 670.722 1085.13 652.555 1067.09C638.54 1053.07 624.525 1039.04 611.063 1024.53C597.798 1009.45 585.99 993.155 575.797 975.854C563.776 956.509 552.392 936.994 538.713 919.119C526.164 902.266 511.624 886.991 495.41 873.625C483.634 864.13 471.625 855.039 459.531 845.629C445.647 834.648 431.53 824.07 418.963 810.343C409.539 800.199 402.296 788.231 397.681 775.177C393.066 762.124 391.177 748.262 392.131 734.45C393.558 717.081 397.508 700.014 403.856 683.784C407.78 674.185 410.895 664.119 415.224 654.753C423.795 635.703 433.176 617.121 442.238 598.624L449.898 582.553C462.946 553.414 476.166 524.913 488.405 495.307C500.85 464.908 511.587 433.837 520.566 402.24C528.299 376.234 536.118 350.548 547.173 326.73C554.839 310.372 564.51 295.032 575.965 281.063C583.188 272.29 590.9 264.07 598.613 255.849C615.889 237.585 634.216 220.345 653.5 204.216C663.03 196.075 673.38 188.948 684.385 182.948C693.154 178.662 702.589 175.903 712.286 174.789C736.747 171.653 760.753 179.581 784.462 188.956C802.361 195.784 819.793 203.421 837.077 211.782C855.979 221.077 874.967 230.692 893.339 241.839C906.858 249.603 918.775 259.869 928.455 272.09C934.159 279.256 938.725 287.258 941.992 295.814C949.097 313.399 949.885 331.651 948.588 349.777C946.511 373.925 943.71 397.925 941.228 421.839C938.577 445.412 937.852 469.162 939.059 492.853C940.106 506.357 941.991 519.782 944.702 533.053C949.835 556.914 958.738 579.804 971.076 600.862C987.701 629.807 1008.89 655.879 1033.82 678.073C1053.16 695.498 1074.81 710.176 1098.16 721.692C1098.97 722.159 1099.95 723.264 1100.76 723.731M340.556 -145.801C339.924 -140.503 338.974 -135.12 338.342 -129.822C337.147 -115.142 336.271 -100.547 335.076 -85.8666C333.231 -63.7336 333.472 -41.4761 335.794 -19.388C337.128 -6.75321 339.1 5.71035 341.391 18.0887C346.469 48.5249 356.737 77.9128 363.814 108.155C371.405 140.312 372.165 171.221 362.244 200.547C356.373 218.19 347.989 234.113 335.771 245.935C330.421 251.589 323.909 256.016 316.683 258.912C309.872 261.477 302.895 263.576 295.8 265.192C287.508 266.648 279.095 267.299 270.678 267.136C249.128 267.098 227.407 266.422 205.857 266.384C196.636 266.962 187.454 268.053 178.355 269.651C174.153 269.926 169.998 270.695 165.976 271.942C151.644 277.15 137.568 283.315 127.544 296.942C122.511 303.729 119.232 311.654 117.998 320.013C117.25 325.683 117.772 331.449 119.526 336.892C121.28 342.335 124.223 347.32 128.141 351.486C136.145 360.427 146.538 366.895 158.095 370.128C175.984 375.896 194.816 378.163 213.563 376.806C224.463 376.293 235.311 374.985 246.021 372.895C260.952 369.92 275.626 365.988 290.3 362.056C298.275 359.92 305.908 356.507 313.797 354.051C319.773 351.767 325.863 349.793 332.043 348.136C348.887 344.648 365.948 344.522 383.022 354.649C397.987 363.289 408.789 376.806 415.513 395.519C421.781 414.407 424.107 434.381 422.348 454.204C420.806 481.627 414.263 506.972 406.273 532.02C397.987 558.515 386.465 583.143 375.666 607.918C365.865 630.033 355.083 651.042 345.685 673.39C336.125 694.879 329.787 717.66 326.875 740.999C325.051 757.468 325.709 774.119 328.828 790.393C333.581 815.788 345.392 836.898 360.689 855.707C374.026 872.305 389.55 885.583 405.16 899.18C425.156 916.387 445.323 934.232 461.646 956.869C471.52 970.823 480.361 985.481 488.099 1000.72C498.611 1020.82 508.336 1041.8 520.591 1060.74C531.995 1078.34 545.709 1094.33 561.365 1108.28C577.465 1122.43 593.798 1136.17 609.664 1150.73C620.863 1160.75 630.367 1172.52 637.808 1185.58C648.873 1205.18 652.748 1226.03 647.179 1247.35C644.134 1260.15 637.191 1271.68 627.306 1280.37C619.005 1288.04 609.078 1293.74 598.267 1297.04C593.801 1298.23 589.591 1300.39 585.359 1301.18C576.575 1302.85 567.705 1304.2 558.836 1305.55C549.967 1306.9 541.012 1307.93 532.057 1308.97C525.42 1309.72 518.613 1309.83 512.296 1310.5C506.935 1310.91 501.427 1312.04 496.152 1312.77C489.196 1313.61 481.922 1314.54 475.052 1315.69C470.82 1316.48 466.906 1317.19 462.674 1317.98C455.889 1319.46 449.509 1321.17 442.639 1322.33C433.217 1324.17 423.71 1325.69 414.117 1326.89C403.494 1328.5 392.78 1329.42 382.04 1329.67C372.771 1329.64 363.535 1328.56 354.509 1326.45C336.123 1321.93 318.775 1313.93 303.403 1302.88C289.947 1293.49 276.81 1284.02 263.354 1274.63C243.388 1260.59 222.248 1248.3 200.17 1237.89C181.439 1229.23 162.156 1221.06 143.573 1211.68C117.795 1198.41 92.1647 1184.43 66.5347 1170.44C62.8944 1168.34 58.9352 1166.32 55.2949 1164.22M326.981 -142.859C325.911 -130.264 324.523 -117.583 323.453 -104.988C320.448 -74.0951 318.57 -42.8212 321.672 -10.8296C322.858 2.52866 324.768 16.0356 326.677 29.542C328.393 41.0488 330.747 52.3847 332.781 63.8061C336.936 86.9679 341.091 110.129 341.246 133.679C341.192 158.994 335.645 181.678 323.308 200.711C315.629 212.456 304.946 221.93 292.367 228.149C282.015 232.913 271.083 236.301 259.852 238.229C249.401 239.988 238.852 241.102 228.265 241.564L202.101 243.446C195.698 243.794 189.295 244.142 182.978 244.809C180.659 245.089 178.022 245.453 175.703 245.733C165.824 247.469 156.069 249.854 146.503 252.873C131.993 257.46 118.896 265.677 108.452 276.745C96.2573 289.928 87.1499 305.702 86.8783 327.657C86.6657 336.154 88.4318 344.584 92.037 352.281C95.6423 359.978 100.988 366.732 107.652 372.008C121.706 383.628 137.178 389.056 152.947 393.036C167.937 396.733 183.28 398.811 198.713 399.235C212.818 399.559 226.985 398.84 240.833 398.206C249.321 397.983 257.638 397.123 265.955 396.262C272.273 395.595 278.014 394.056 284.332 393.389C292.244 392.295 300.561 391.434 308.559 390.659C317.599 389.946 326.959 389.147 336.17 389.072C348.73 388.803 361.086 392.276 371.666 399.05C382.407 406.07 390.654 416.306 395.229 428.294C401.674 444.688 402.353 461.259 401.671 477.854C400.122 500.396 395.621 522.637 388.284 544.008C380.901 566.119 372.335 587.817 362.621 609.008C352.585 631.527 341.741 653.579 332.11 676.332C322.63 698.009 316.455 720.985 313.79 744.493C312.056 764.837 313.509 785.328 318.096 805.224C321.391 817.115 325.962 828.614 331.731 839.521C343.7 860.444 358.917 879.333 376.813 895.48C390.486 908.228 404.073 920.657 417.427 933.49C436.777 952.348 452.921 974.238 465.221 998.295C474.924 1017.92 484.626 1037.54 494.967 1057C504.051 1074.68 515.25 1091.2 528.319 1106.18C541.909 1121.03 556.488 1134.95 571.958 1147.83C584.971 1158.47 596.708 1170.58 606.932 1183.93C612.317 1191.22 616.46 1199.35 619.193 1207.99C622.546 1218.44 622.567 1229.66 619.253 1240.12C614.449 1253.6 604.494 1264.63 591.57 1270.78C581.525 1275.42 570.958 1278.82 560.098 1280.93C551.557 1282.47 542.936 1283.52 534.276 1284.09C527.32 1284.92 520.45 1286.08 513.41 1286.6C506.369 1287.12 499.009 1287.72 491.735 1288.65C486.46 1289.38 480.865 1290.19 475.591 1290.92C467.678 1292.01 460.085 1293.02 452.258 1294.44C448.982 1294.97 446.026 1295.42 442.751 1295.96C430.52 1297.53 418.375 1299.41 406.145 1300.98C393.497 1302.53 380.699 1302.39 368.086 1300.58C347.19 1297.13 327.216 1289.45 309.387 1278.01C288.183 1265.23 267.361 1251.32 246.095 1239.59C227.17 1228.93 207.716 1220.12 188.58 1211.23C160.165 1198.33 131.921 1186.07 104.097 1170.28C85.577 1159.85 67.0566 1149.43 48.2172 1139.09M314.225 -139.44C312.921 -126.441 311.299 -113.355 310.314 -100.441C307.69 -75.8833 306.314 -51.208 306.191 -26.5107C306.66 -8.17359 308.171 10.2258 310.32 28.4546C313.369 52.5963 316.738 76.6523 318.66 100.412C320.838 125.13 318.357 149.044 308.213 169.883C301.655 183.863 291.125 195.602 277.939 203.637C265.333 211.46 251.126 214.583 237.004 218.025C229.096 219.392 221.112 220.276 213.096 220.67C206.779 221.337 200.228 222.409 193.911 223.076C187.593 223.743 180.552 224.262 174.235 224.929C171.341 225.082 168.458 225.397 165.599 225.875C154.335 227.985 143.201 230.74 132.252 234.126C113.721 240.527 97.367 252.019 85.0648 267.284C71.2732 283.542 62.9271 303.715 61.2012 324.964C60.1019 335.59 61.5403 346.326 65.3985 356.288C69.2566 366.25 75.4242 375.155 83.3942 382.269C97.386 394.931 113.115 401.316 129.054 405.934C146.544 411.284 164.622 414.477 182.887 415.443C197.163 416.404 211.268 416.728 225.372 417.052C238.03 417.079 250.921 416.702 263.493 416.41C277.427 416.096 291.361 415.781 305.38 415.785C318.905 415.528 332.345 417.972 344.915 422.972C357.865 428.319 368.349 438.315 374.306 450.996C379.277 461.858 381.749 473.698 381.537 485.642C381.573 507.764 377.992 529.742 370.936 550.708C361.676 581.226 348.519 608.684 335.853 636.695C324.497 660.573 315.004 685.293 307.456 710.633C300.415 734.727 298.119 759.959 300.695 784.928C305.128 822.871 321.362 858.464 347.108 886.687C361.635 902.624 377.268 917.582 392.581 932.625C413.204 952.071 430.665 974.617 444.335 999.447C452.522 1014.69 459.604 1030.91 466.92 1046.73C472.23 1057.62 476.902 1068.67 482.531 1079.47C489.992 1093.68 498.551 1107.27 508.129 1120.14C520.678 1136.04 534.203 1151.14 548.624 1165.36C557.513 1173.72 565.411 1183.08 572.165 1193.24C578.346 1203.55 581.976 1214.55 577.289 1226.4C574.66 1233.64 569.457 1239.66 562.673 1243.31C553.456 1249.02 543.039 1252.52 532.243 1253.52C527.635 1254.07 523.072 1254.95 518.588 1256.15C510.761 1257.56 503.083 1258.25 495.256 1259.67L485.429 1261.27C477.602 1262.69 469.542 1264.51 461.629 1265.6C454.441 1266.84 447.4 1267.36 440.211 1268.6C433.979 1269.59 427.513 1270.98 421.196 1271.65C412.879 1272.51 404.158 1273.14 395.67 1273.36C378.197 1273.61 360.811 1270.87 344.263 1265.25C329.792 1259.93 315.8 1253.38 302.438 1245.69C277.127 1231.61 251.645 1216.9 225.337 1205.49C201.69 1195.07 177.98 1185.7 154.567 1174.87C129.621 1163.44 105.352 1149.43 81.1689 1135.73C68.2257 1128.26 54.8157 1121.6 41.958 1114.44M375.475 -155.852C375.145 -146.875 374.816 -137.897 374.082 -129.153C372.304 -104.636 372.611 -80.0123 375 -55.5475C375.994 -45.6422 377.821 -35.8383 380.459 -26.2392C385.223 -9.73677 391.177 6.10486 401.575 19.3883C412.965 35.5325 430.289 46.5042 449.753 49.9004C464.951 51.8807 480.308 52.3469 495.599 51.2921C521.791 49.9941 547.999 53.5179 572.919 61.6876C587.265 66.4798 600.903 73.1749 613.469 81.5936C619.067 85.5608 624.197 90.1506 628.759 95.2752C632.478 99.2966 635.138 104.18 636.5 109.485C637.861 114.79 637.882 120.35 636.561 125.666C634.379 135.32 630.753 144.59 625.808 153.164C614.775 171.829 601.477 189.058 586.216 204.459C573.297 217.494 559.717 229.338 546.884 242.692C533.498 256.535 520.198 270.698 511.222 289.515C503.104 307.315 497.567 326.182 494.781 345.547C491.04 366.038 488.023 386.677 484.686 407.401C480.397 432.558 474.117 457.335 465.905 481.498C460.797 496.884 455.051 512.442 449.133 527.362C441.519 546.156 433.904 564.949 425.48 583.276C415.975 603.944 406.383 624.292 396.387 644.408C386.044 664.889 377.583 686.268 371.106 708.28C366.032 725.394 364.107 743.286 365.426 761.087C366.697 776.047 370.945 790.602 377.922 803.896C386.783 820.3 398.692 834.863 413.01 846.804C423.829 856.556 435.263 864.775 446.634 874.037C465.186 888.287 482.305 904.312 497.747 921.883C507.996 934.141 517.219 947.223 525.322 960.994C536.449 979.552 547.023 998.6 558.384 1016.75C570.615 1036.12 585.35 1053.78 602.206 1069.29C619.457 1085.18 636.941 1100.67 653.958 1116.97C669.381 1131.6 681.927 1149 690.949 1168.25C694.336 1175.6 697.272 1183.15 699.741 1190.86C703.366 1201 705.41 1211.64 705.799 1222.4C706.44 1232.12 706.309 1241.87 705.409 1251.56C703.79 1265.85 699.772 1279.75 693.524 1292.7C685.263 1310.71 672.258 1326.13 655.902 1337.31C648.635 1342.53 640.631 1346.63 632.154 1349.49C624.17 1352.36 616.025 1354.77 607.762 1356.71C597.064 1358.89 586.514 1360.35 575.879 1361.49C564.287 1362.89 552.523 1363.65 541.016 1365.36C532.785 1366.54 524.639 1368.04 516.579 1369.86C499.82 1373.66 483.146 1377.79 466.558 1382.24C448.461 1387.43 430.215 1393.34 412.118 1398.53C399.963 1401.56 387.46 1402.95 374.937 1402.68C362.637 1402.76 350.397 1400.97 338.638 1397.37C326.135 1393.65 314.209 1388.21 303.198 1381.22C283.846 1368.97 266.043 1353.56 248.155 1337.84C223.067 1315.07 194.918 1295.91 164.524 1280.93C142.153 1270.17 119.953 1260.05 97.5817 1249.29C90.1531 1245.81 82.9581 1241.93 75.8485 1238.36M362.075 -152.262C360.658 -126.923 359.157 -101.903 358.464 -76.417C358.049 -59.5806 359.352 -42.7457 362.353 -26.1738C364.986 -12.5194 369.214 0.707166 373.123 14.0197C376.641 25.1158 381.444 35.7629 387.436 45.7429C394.948 59.4852 405.055 71.6388 417.197 81.5311C428.796 90.683 443.273 95.4093 458.037 94.8636C469.248 94.5949 480.436 92.9645 491.709 91.6533C508.747 90.1651 525.808 90.0381 543.365 95.5908C552.267 98.3519 560.372 103.217 566.996 109.773C578.242 121.12 581.257 133.646 576.872 149.181C573.536 159.957 567.752 169.816 559.972 177.985C547.715 192.21 533.07 202.63 518.106 213.136C504.885 222.491 491.898 231.441 481.554 245.154C473.018 257.023 467.553 270.821 465.647 285.316C462.755 303.869 464.118 322.992 464.353 341.734C464.611 361.837 465.273 382.174 463.68 401.747C460.719 437.019 453.254 471.766 441.467 505.141C437.036 517.953 432.52 530.446 427.365 543.11C421.83 556.902 416.294 570.693 410.034 584.337C402.078 601.855 393.312 618.906 384.951 636.19C372.347 663.158 359.424 690.212 353.058 721.322C349.729 736.697 348.886 752.506 350.561 768.147C352.868 788.211 360.008 807.416 371.37 824.114C381.92 839.003 394.373 852.449 408.412 864.107C426.62 879.742 445.465 895.206 463.439 911.246C479.468 926.256 493.2 943.543 504.196 962.551C515.323 981.109 525.898 1000.16 536.472 1019.21C550.219 1043.47 567.852 1065.31 588.67 1083.86C605.43 1099.2 622.658 1113.73 639.504 1129.39C653.215 1142.2 664.561 1157.33 673.02 1174.08C689.526 1207.61 691.927 1240.82 679.096 1273.32C672.997 1288.98 662.899 1302.76 649.807 1313.3C643.375 1318.91 635.988 1323.33 627.997 1326.33C619.533 1329.85 610.828 1332.75 601.947 1335.02C593.193 1336.96 584.339 1338.42 575.424 1339.39C567.831 1340.4 560.323 1341.73 553.049 1342.65C545.774 1343.57 538.648 1343.77 531.373 1344.7C525.694 1345.19 520.185 1346.33 514.592 1347.14C481.199 1352.67 449.259 1363.62 416.146 1371.47C397.862 1376.11 378.901 1377.49 360.138 1375.53C339.404 1372.42 319.654 1364.62 302.396 1352.71C286.242 1341.48 270.764 1329.3 256.04 1316.24C232.751 1296.26 207.061 1279.25 179.565 1265.62C158.812 1255.79 138.058 1245.97 117.22 1235.83C101.064 1227.85 84.9701 1218.82 69.0475 1210.44C68.643 1210.21 67.9195 1210.06 67.5151 1209.82M352.186 -149.612C351.082 -129.486 349.574 -109.594 348.471 -89.4678C347.375 -68.291 347.92 -47.0614 350.1 -25.9687C351.936 -8.26565 355.585 9.20231 360.99 26.1598C364.706 37.4728 368.973 48.2957 373.326 59.4377C384.528 87.2074 399.769 112.186 412.713 138.804C421.183 155.091 423.897 173.763 420.414 191.787C417.39 207.299 414.452 223.13 411.514 238.961C408.328 256.771 409.823 275.102 415.854 292.16C420.401 305.302 426.862 317.931 431.409 331.072C435.35 343.228 438.659 355.579 441.324 368.077C444.19 381.885 445.555 395.963 445.395 410.065C445.598 423.596 444.646 437.119 442.55 450.488C438.833 474.141 433.059 497.424 425.296 520.073C422.243 529.097 419.19 538.12 415.733 546.91C410.813 559.169 405.977 571.748 400.248 583.54C391.357 602.675 381.743 621.663 372.852 640.799C361.735 665.659 349.894 690.372 343.482 718.758C338.974 736.922 337.879 755.765 340.251 774.328C342.974 794.876 350.346 814.533 361.806 831.805C373.363 847.976 386.934 862.607 402.192 875.345C417.717 888.622 433.474 901.495 448.446 915.263C464.734 930.132 478.689 947.37 489.841 966.397C501.8 986.784 512.654 1008.15 524.294 1028.62C538.421 1053.94 556.765 1076.66 578.536 1095.8C594.232 1109.72 610.479 1123.14 625.941 1137.46C640.152 1150.05 651.781 1165.28 660.181 1182.31C675.473 1215.14 676.319 1246.37 660.463 1275.23C651.997 1290.75 638.788 1303.16 622.766 1310.63C613.011 1315.68 602.618 1319.39 591.869 1321.65C582.128 1323.57 572.13 1324.54 562.218 1325.83C552.945 1326.95 544.075 1328.3 534.801 1329.42C527.527 1330.34 519.763 1330.71 512.488 1331.63C505.672 1332.42 498.9 1333.55 492.197 1335.02C474.8 1339 457.723 1342.89 440.326 1346.87C432.265 1348.69 424.609 1350.74 416.463 1352.24C407.594 1353.59 398.639 1354.62 389.365 1355.74C378.932 1356.93 368.383 1356.65 358.028 1354.9C339.96 1351.95 322.74 1345.13 307.544 1334.92C296.281 1327.34 284.847 1319.12 274.052 1310.73C264.726 1304 256.101 1296.05 246.775 1289.32C225.642 1273.8 203.039 1260.39 179.29 1249.28C148.129 1235.06 117.287 1220.76 86.803 1203.97C78.3945 1199.39 69.5816 1194.57 61.0877 1189.66M107.188 1359.18C124.555 1365.05 141.09 1373.15 156.38 1383.26C170.437 1392.66 183.833 1403 196.475 1414.23C212.488 1428.59 229.324 1442 246.898 1454.4C264.908 1466.45 284.305 1476.3 304.67 1483.71C322.285 1490.06 340.546 1494.46 359.124 1496.81C372.907 1498.72 386.867 1498.99 400.715 1497.63C409.988 1496.52 419.262 1495.4 428.451 1493.96C435.002 1492.89 441.701 1491.1 448.485 1489.62C464.84 1485.58 481.427 1481.13 497.867 1477.41C505.609 1475.68 513.692 1475.22 521.838 1473.73C531.726 1472.28 541.777 1472.35 551.643 1473.95C569.069 1476.46 584.843 1485.56 597.775 1501.93C605.286 1512.24 611.501 1523.44 616.281 1535.26C626.178 1556.89 636.627 1578.02 651.348 1595.96C663.262 1610.82 678.285 1622.9 695.363 1631.35C707.662 1637.27 720.416 1642.2 733.502 1646.09C747.909 1650.09 762.55 1653.69 777.276 1657.61L818.326 1669.17C826.979 1672.34 836.188 1673.72 845.39 1673.2C849.548 1672.46 853.423 1670.6 856.595 1667.81C864.163 1661.89 871.36 1655.5 878.144 1648.7C891.29 1635.21 906.247 1623.6 922.585 1614.23C931.79 1609.02 941.314 1603.74 950.69 1599.17C959.514 1595.1 968.509 1591.66 977.418 1587.91C988.155 1583.32 998.574 1578.82 1009.4 1574.55C1015.52 1571.89 1022.22 1570.09 1028.66 1567.34C1035.74 1564.42 1042.74 1561.17 1049.73 1557.93C1055.22 1555.44 1060.47 1553.35 1065.87 1550.53C1074.63 1546.74 1083.2 1542.51 1091.53 1537.84C1103.9 1530.43 1115.79 1522.45 1127.5 1513.85C1149.07 1497.33 1167.13 1476.68 1180.63 1453.11C1188.66 1439.68 1196.19 1425.69 1204.22 1412.26C1208.47 1403.89 1215.02 1396.92 1223.1 1392.15C1230.01 1388.59 1236.76 1389.52 1243.99 1391C1253.89 1393.48 1262.64 1399.34 1271.62 1404.8C1275.75 1407.45 1279.88 1410.1 1283.78 1413.16C1285.08 1414.18 1286.14 1415.61 1287.53 1416.95M1204.36 1106.56C1202.74 1107.94 1201.02 1109.2 1199.22 1110.33C1177.51 1119.91 1158.62 1134.88 1138.89 1148.03C1128.52 1155.26 1117.74 1162.25 1106.79 1168.6C1098.59 1172.86 1090.08 1176.51 1081.34 1179.52C1074.57 1182.19 1067.62 1184.4 1060.54 1186.12C1051.84 1188.11 1042.89 1189.14 1034.02 1190.49C1015.58 1193.02 996.924 1193.55 978.371 1192.07C962.011 1190.98 945.394 1188.94 929.408 1181.6C914.165 1174.38 901.558 1162.57 893.352 1147.84C886.656 1135.7 880.874 1123.08 876.054 1110.08C867.775 1089.39 859.496 1068.7 849.942 1048.35C839.64 1026.5 827.915 1005.7 816.976 984.018C805.981 963.871 796.188 943.091 787.651 921.786C783.873 911.516 779.862 901.649 776.403 891.293C773.115 881.575 769.423 871.623 767.092 861.649C763.263 847.137 760.234 832.426 758.019 817.582C756.045 806.158 756.038 794.48 757.999 783.055C759.053 777.892 761.207 773.017 764.315 768.762C767.423 764.507 771.412 760.972 776.01 758.398C784.896 753.282 794.808 751.994 805.039 750.62C820.391 748.941 835.91 749.626 851.056 752.65C869.423 756.304 887.003 763.168 902.987 772.925C916.825 781.184 930.366 790.89 944.141 800.191C965.943 815.205 987.597 830.943 1010.63 842.892C1026.23 851.046 1042.47 857.9 1059.2 863.384C1071.84 867.177 1084.33 871.693 1096.89 875.167C1111.7 879.404 1126.75 883.237 1141.88 887.388C1143.57 888.006 1145.17 888.84 1146.64 889.871M511.106 -207.268C523.486 -189.155 538.022 -172.614 554.393 -158.008C572.361 -142.774 592.14 -129.815 613.281 -119.425C627.686 -112.499 641.511 -104.427 654.623 -95.2861C667.232 -86.3933 677.294 -74.3553 683.809 -60.3688C690.092 -46.7294 693.582 -31.9707 694.073 -16.962C694.154 -2.62383 694.149 11.3955 693.102 25.3522C692.266 37.5428 690.792 49.9046 693.083 62.283C694.735 71.3716 699.124 79.7386 705.663 86.2644C714.061 95.6736 723.936 103.652 734.899 109.885C752.782 120.479 770.75 131.392 789.333 140.773C817.366 154.801 845.782 167.702 874.049 181.325C890.524 189.219 906.766 197.517 923.093 206.135C937.134 213.485 949.729 223.316 960.271 235.15C968.369 244.21 974.76 254.66 979.135 265.995C985.836 283.346 986.686 300.555 985.856 317.873C984.798 340.722 980.123 362.831 976.895 385.235C971.921 413.841 970.42 442.943 972.425 471.909C973.218 482.966 975.011 493.929 977.783 504.663C979.919 512.638 981.504 521.104 984.279 528.908C988.011 539.388 992.356 549.641 997.292 559.611C1008.95 582.026 1024.11 602.433 1042.21 620.059C1053.82 632.045 1066.86 642.56 1081.03 651.369C1082.14 652.206 1083.1 653.219 1083.88 654.365M1190.24 1052.57C1190.01 1052.97 1190.26 1053.93 1189.94 1054.01C1178.76 1060.77 1167.49 1067.21 1156.8 1074.52C1139.54 1086.67 1123.26 1099.92 1106.09 1112.38C1095.77 1120.01 1084.94 1126.91 1073.67 1133.04C1063.21 1138.39 1051.97 1142.1 1040.37 1144.01C1028.47 1146.11 1016.32 1146.36 1004.34 1144.78C990.334 1143.14 976.928 1138.17 965.238 1130.29C954.51 1122.84 945.586 1113.08 939.123 1101.73C931.534 1088.72 924.583 1075.54 917.951 1062.27C907.268 1041.55 895.714 1021.39 883.374 1002.13C869.626 980.175 855.24 958.386 843.384 934.553C838.036 923.337 833.452 911.771 829.664 899.936C825.95 888.232 823.517 876.158 822.409 863.929C821.308 850.89 822.783 838.528 828.854 828.012C832.678 821.054 838.914 815.735 846.387 813.057C862.314 807.421 878.316 810.998 894.535 817.935C908.339 824.152 921.483 831.741 933.769 840.587C959.125 857.384 984.482 874.18 1011.28 886.146C1029.83 894.082 1048.96 900.615 1068.49 905.692C1091.34 911.876 1114.2 918.061 1137.22 924.883C1144.22 926.768 1150.93 930.101 1157.78 932.709M116.509 1393.95C137.284 1403.14 156.578 1415.37 173.756 1430.24C190.494 1444.22 207.231 1458.2 224.755 1471.28C243.476 1484.9 263.92 1495.98 285.552 1504.22C302.709 1511.09 320.405 1516.52 338.457 1520.48C357.318 1524.77 376.655 1526.6 395.987 1525.92C407.75 1525.16 419.661 1523.68 431.254 1522.28C438.847 1521.27 446.269 1519.62 453.777 1518.3C464.242 1516.52 474.94 1514.34 485.489 1512.88C499.011 1510.4 512.822 1509.93 526.482 1511.47C546.716 1514.25 564.365 1525.25 578.471 1544.72C588.316 1558.49 597.608 1572.75 607.22 1586.93C619.308 1606.11 634.087 1623.45 651.104 1638.42C667.63 1652.07 685.866 1663.51 705.35 1672.44C722.315 1680.89 739.747 1688.52 755.653 1700.67C768.25 1710.02 778.026 1722.66 783.905 1737.21C786.862 1745.06 789.039 1753.18 790.401 1761.45C792.156 1770.56 793.274 1779.83 794.391 1789.1M130.225 1442.59C137.848 1448.07 145.47 1453.55 152.626 1459.84C167.574 1472.24 181.823 1485.86 196.92 1497.55C213.891 1511.12 232.855 1519.37 251.563 1526.67C265.993 1532.03 280.656 1536.99 295.149 1541.32C318.291 1548.84 342.13 1554.02 366.306 1556.78C379.151 1558.38 392.139 1558.46 405.002 1557.01C416.276 1555.7 427.23 1554.47 438.418 1552.84C446.649 1551.66 454.476 1550.25 462.793 1549.39C477.583 1546.92 492.636 1546.46 507.551 1548C527.466 1550.87 545.496 1560.74 561.004 1577.78C569.823 1587.72 578.494 1598.39 587.08 1608.74C603.846 1629.21 620.761 1648.95 640.649 1664.48C654.887 1675.43 669.885 1685.35 685.529 1694.17C698.153 1701.72 710.777 1709.28 722.701 1718.05C737.812 1728.92 749.933 1743.43 757.938 1760.24C763.293 1771.66 767.415 1783.62 770.234 1795.92M494.518 -202.824C511.695 -176.997 530.764 -153.045 553.358 -133.798C565.831 -123.555 578.883 -114.038 592.45 -105.296C607.034 -95.5278 622.233 -87.2917 635.82 -74.863C646.243 -65.9749 653.8 -54.1991 657.539 -41.0214C660.536 -30.034 659.946 -18.3771 655.855 -7.7482C653.131 0.706313 647.373 7.85258 639.69 12.311C632.013 16.4968 623.166 18.0259 614.529 16.6598C601.125 15.1229 587.55 12.9475 574.294 10.6871C553.544 7.01144 532.536 4.98101 511.466 4.61444C493.277 4.35966 475.43 5.3812 457.195 2.40347C443.961 0.842257 431.432 -4.40649 421.037 -12.7443C410.642 -21.0821 402.799 -32.1738 398.402 -44.7536C395.986 -50.8027 393.877 -56.97 392.083 -63.2324C387.846 -78.2625 385.751 -93.8152 385.859 -109.431C385.749 -130.257 387.086 -150.788 387.699 -171.466C387.847 -172.19 388.314 -172.999 388.462 -173.723M260.225 -139.361C258.955 -133.892 257.6 -128.742 256.734 -123.04C253.187 -100.55 249.321 -77.9735 246.583 -55.0162C244.545 -34.2977 243.959 -13.4617 244.829 7.33862C245.235 26.7182 245.96 46.0117 244.514 64.8617C243.069 83.7117 237.431 100.95 225.213 112.771C219.681 118.684 212.763 123.124 205.083 125.688C200.409 127.679 195.551 129.21 190.58 130.257C180.971 131.788 171.271 132.674 161.545 132.909C139.271 133.044 117.055 130.622 95.333 125.691C87.299 124.264 79.4957 121.754 72.136 118.231C63.494 114.05 58.8905 107.078 61.2593 95.5024C63.9242 82.4799 66.9935 69.6909 70.1484 57.2209C75.2704 39.305 77.8969 20.7682 77.9536 2.13461C78.0288 -8.67723 76.4153 -19.4344 73.1715 -29.7484C69.2607 -42.4765 63.3818 -54.5143 55.7483 -65.4245C51.5723 -70.8017 47.3962 -76.179 42.8157 -81.7897M525.319 -210.382C530.219 -204.857 534.799 -199.246 539.613 -194.039C546.706 -186.709 553.713 -179.697 561.359 -172.856C580.632 -155.797 602.108 -145.823 623.437 -135.127C637.166 -128.549 650.896 -121.971 664.243 -114.265C679.966 -105.5 692.922 -92.5082 701.644 -76.7615C705.495 -69.8461 708.599 -62.5406 710.903 -54.9678C717.478 -35.5318 718.779 -15.366 720.803 4.94772C721.552 19.9201 723.815 34.7781 727.557 49.2947C731.874 63.9112 739.563 77.3095 750.005 88.4108C762.442 101.358 776.499 112.646 791.826 121.994C813.457 136.371 836.148 147.044 858.838 157.717C879.101 166.989 899.279 175.943 919.862 185.13C934.654 191.83 948.679 200.109 961.693 209.82C963.325 211.327 964.803 212.993 966.103 214.793M933.561 1752.15C927.572 1724.7 927.456 1698.74 937.787 1674.78C945.229 1657.56 956.607 1642.34 971.005 1630.32C984.557 1619.1 999.239 1609.32 1014.82 1601.14C1024.34 1595.86 1033.86 1590.57 1043.56 1585.92C1053.25 1581.27 1062.72 1577.03 1072.09 1572.46C1082.66 1567.24 1093.22 1562.01 1103.62 1556.15C1114.02 1550.29 1123.86 1544.92 1133.77 1538.5C1152.33 1526.43 1169.84 1512.82 1186.11 1497.81C1197.95 1487.11 1209.7 1476.1 1222.11 1466.28C1228.57 1461.29 1235.98 1457.68 1243.88 1455.66C1255.69 1452.97 1268.07 1454.49 1278.88 1459.96C1285.91 1463.2 1292.87 1467.49 1299.74 1471.46C1301.11 1472.6 1302.36 1473.87 1303.49 1475.24M535.844 -213.201C537.851 -211.305 539.757 -209.305 541.553 -207.209C558.635 -187.126 579.66 -170.765 603.325 -159.141C620.928 -150.865 638.679 -143.313 656.048 -134.633C666.097 -129.641 675.823 -124.026 685.171 -117.82C699.024 -108.195 710.167 -95.1679 717.53 -79.9914C723.559 -68.3648 727.613 -55.8183 729.53 -42.8629C731.098 -30.6326 733.708 -18.3391 735.595 -6.19422C737.116 3.31319 737.681 13.0769 739.522 22.4988C743.243 38.9387 747.922 55.1221 757.128 69.0665C766.015 82.0132 776.825 93.5284 789.186 103.215C816.548 124.945 846.667 139.098 876.529 152.294C901.39 163.412 926.866 172.996 951.049 186.689C954.022 188.588 956.867 190.681 959.566 192.954M550.342 -217.782C556.86 -211.322 563.229 -204.139 570.299 -198.17C590.786 -180.41 613.624 -170.46 636.61 -161.234C651.934 -155.083 666.94 -148.846 681.882 -141.567C697.524 -133.957 711.239 -122.904 722 -109.237C730.041 -98.9178 736.178 -87.2478 740.124 -74.7749C742.332 -68.6584 744.228 -62.4332 745.805 -56.1244C747.708 -47.745 748.888 -39.5137 750.472 -31.0488C752.057 -22.5838 753.237 -14.3526 754.821 -5.88764C756.747 3.85329 758.121 14.0844 760.685 23.6544C766.512 46.7025 778.528 67.7196 795.434 84.4336C812.49 100.584 831.991 113.936 853.217 123.996C879.4 137.495 906.322 147.377 932.949 158.705C939.164 161.484 945.06 164.349 951.276 167.128C952.084 167.595 952.66 168.466 953.469 168.933M479.527 -198.806C494.357 -179.188 508.953 -159.166 524.102 -139.634C535.482 -125.492 547.945 -112.256 561.378 -100.046C569.917 -92.419 578.457 -84.7922 586.678 -77.0798C593.56 -71.2803 599.279 -64.2266 603.53 -56.2941C608.008 -47.2369 608.146 -39.0684 599.858 -31.7192C594.421 -27.6803 587.91 -25.3408 581.145 -24.9957C567.873 -23.4906 554.577 -23.3471 541.048 -22.799C532.964 -22.3426 524.476 -22.1196 516.308 -21.9822C503.416 -21.6051 490.611 -20.9091 477.867 -21.2555C463.191 -21.1737 448.773 -25.1151 436.179 -32.6511C424.791 -39.9423 415.959 -50.6023 410.912 -63.1479C404.036 -80.2755 400.31 -98.5047 399.913 -116.957C399.175 -136.264 400.055 -155.599 402.546 -174.76C402.737 -175.856 403.156 -176.9 403.776 -177.825M965.781 1743.53C964.98 1728.77 966.682 1713.98 970.813 1699.78C976.702 1679.4 987.76 1660.89 1002.91 1646.05C1012.69 1636.12 1023.49 1627.26 1035.15 1619.63C1049.5 1610.66 1064.17 1601.6 1079.1 1593.5C1093.38 1585.57 1108.01 1578.91 1122.38 1571.3C1137.31 1563.2 1152.14 1554.78 1166.98 1546.36C1184.76 1536.13 1202.27 1524.94 1220.3 1515.66C1235.54 1507.47 1252.22 1503.35 1270.16 1507.77C1280.62 1510.51 1290.31 1515.63 1298.45 1522.76C1308.41 1531.09 1316.62 1541.33 1322.58 1552.87C1324.08 1555.89 1325.34 1559.32 1326.83 1562.33M563.596 -220.638C567.983 -217.027 572.518 -214.139 576.671 -210.123C585.268 -202.576 594.895 -196.292 605.263 -191.458C623.613 -181.673 642.703 -175.505 661.325 -168.528C678.415 -162.167 695.591 -155.486 711.24 -144.294C729.498 -131.691 743.555 -113.9 751.593 -93.2224C754.279 -86.8037 756.505 -80.2019 758.254 -73.4673C760.904 -63.5783 763.554 -53.6892 765.566 -43.6292C767.235 -34.8453 767.948 -25.8047 769.937 -17.1062C773.06 -2.89929 775.545 11.4784 779.944 25.3434C786.916 46.7201 799.364 65.8985 816.048 80.9723C836.083 98.7053 859.067 112.796 883.96 122.608C904.052 131.242 924.697 139.387 945.023 147.617C946.276 148.28 947.424 149.124 948.43 150.123M579.548 -224.911C581.336 -223.339 583.359 -222.171 585.148 -220.599C599.02 -210.409 614.226 -202.174 630.34 -196.125C651.538 -188.471 673.202 -181.625 694.571 -173.333C715.441 -165.578 733.918 -152.494 748.162 -135.381C757.371 -124.406 764.456 -111.811 769.054 -98.2418C771.74 -91.8231 773.966 -85.2212 775.715 -78.4866C778.131 -68.1931 779.995 -57.4099 782.092 -47.0309C783.933 -37.609 785.455 -28.1018 787.295 -18.6798C788.779 -9.53517 790.749 -0.476648 793.199 8.45764C799.727 32.6658 812.822 54.5975 831.036 71.8285C851.459 90.631 874.001 102.028 897.244 112.211C911.526 118.3 926.275 123.579 940.876 129.582C941.801 130.182 942.671 130.865 943.473 131.621M596.454 -229.442L613.994 -220.123C628.926 -212.806 644.565 -207.03 660.668 -202.884C684.417 -195.914 708.548 -190.07 731.136 -175.951C751.591 -163.439 767.981 -145.266 778.32 -123.632C785.417 -108.624 790.686 -92.8168 794.012 -76.5514C796.707 -63.9395 798.36 -51.3902 800.333 -38.9263C803.02 -22.7186 806.849 -6.72143 811.792 8.9462C818.999 30.9881 832.298 50.5395 850.152 65.3387C871.766 83.4803 895.818 94.1306 919.932 103.739C926.062 106.199 931.873 108.745 938.002 111.206M999.915 1734.38C1001.19 1723.57 1003.87 1712.96 1007.88 1702.84C1016.99 1678.17 1032.31 1660.05 1050.08 1644.69C1066.94 1630.29 1085.42 1617.88 1105.13 1607.72C1114.42 1602.84 1123.86 1597.23 1133.24 1592.67C1141.66 1588.36 1150.25 1584.69 1158.84 1581.02C1167.43 1577.35 1176.16 1572.96 1184.75 1569.29C1187.77 1567.8 1190.96 1566.94 1194.07 1565.77C1203.55 1562.88 1212.87 1559.36 1222.61 1557.44C1241.77 1553.67 1260.68 1554.07 1279.42 1567.86C1292.64 1577.65 1302.17 1591.51 1309.57 1607.64C1315.43 1619.72 1320.38 1632.23 1324.38 1645.05C1324.55 1645.68 1325.04 1646.24 1325.21 1646.87M623.567 -236.707C633.719 -233.273 643.956 -229.52 654.255 -226.809C666.087 -223.483 678.068 -220.881 689.814 -217.874C715.392 -211.735 740.526 -203.426 763.035 -184.498C773.635 -175.689 782.692 -165.175 789.834 -153.386C796.289 -142.631 801.532 -131.193 805.468 -119.283C810.157 -105.609 813.585 -91.5353 815.708 -77.2371C817.145 -68.0487 819.304 -58.7127 820.826 -49.2053C822.616 -35.5213 825.55 -22.0115 829.597 -8.81757C835.655 13.0016 847.567 32.748 864.043 48.2821C881.293 64.174 900.685 74.021 920.607 82.0172C924.48 83.7145 928.565 83.6458 931.675 87.5989M240.13 -133.966C239.469 -132.619 238.93 -131.215 238.519 -129.773C233.314 -105.812 228.195 -81.5336 222.99 -57.5735C219.408 -38.113 217.489 -18.3827 217.253 1.40344C216.844 15.1891 216.521 29.2941 215.474 43.2507C214.427 57.2073 210.401 70.2526 202.073 80.0058C198.985 83.8781 195.123 87.0634 190.734 89.3581C186.344 91.6528 181.524 93.006 176.582 93.3319C168.209 94.3382 159.72 93.0697 152.007 89.6598C146.793 87.4279 142.1 84.1373 138.224 79.9966C134.348 75.8558 131.375 70.9558 129.492 65.6058C125.567 56.0587 125.321 46.2094 124.352 36.2121C123.188 24.2152 123.068 12.2804 121.905 0.283569C120.639 -11.2524 118.056 -22.6054 114.206 -33.5533C107.447 -51.3344 98.2407 -68.0852 86.8522 -83.3214C84.7215 -86.1695 82.0382 -88.5278 79.9929 -91.0569M666.633 -248.246C671.612 -247.529 676.591 -246.812 681.889 -246.18C693.698 -244.215 705.507 -242.251 717.083 -239.882C740.285 -235.681 762.043 -225.667 780.324 -210.774C798.605 -195.881 812.812 -176.597 821.616 -154.722C827.505 -141.021 832.012 -126.767 835.069 -112.17C837.765 -99.5585 839.418 -87.0091 841.39 -74.5453C843.06 -65.7613 844.411 -56.8916 846.08 -48.1077C847.237 -41.2378 848.309 -34.687 850.104 -27.988C851.197 -23.4842 852.61 -19.0642 854.332 -14.7612C857.869 -5.26858 862.371 3.83621 867.767 12.4102C874.244 22.0433 882.294 30.52 891.581 37.4849C900.476 44.2315 910.051 50.0302 920.15 54.788C921.345 55.5389 922.484 56.3766 923.557 57.2942M1031 1725.36C1035.44 1708.36 1043.12 1692.37 1053.6 1678.28C1063.94 1664 1076.52 1651.51 1090.87 1641.28C1103.17 1631.77 1116.46 1623.63 1130.52 1616.98C1140.21 1612.33 1150.23 1607.6 1160.01 1603.27C1166.13 1600.6 1172.42 1598.57 1178.63 1596.22C1184.5 1593.97 1190.49 1592.02 1196.56 1590.39C1212.13 1587.25 1227.95 1585.06 1244.21 1589.59C1256.17 1593 1267.01 1599.54 1275.61 1608.53C1288.07 1620.58 1296.66 1636.05 1304.38 1652.11M731.389 -265.598C735.091 -265.402 738.77 -264.901 742.39 -264.101C761.223 -258.89 779.931 -251.594 796.902 -238.02C815.818 -222.68 830.72 -202.971 840.326 -180.592C845.554 -168.758 849.857 -156.537 853.198 -144.038C855.614 -133.745 857.711 -123.366 859.085 -113.135L865.925 -68.4686C867.849 -54.4715 871.085 -40.6868 875.589 -27.2954C880.843 -10.3308 890.824 4.78504 904.361 16.2806C907.938 19.4248 911.602 22.8882 915.584 26.2659M194.067 290.022C199.917 290.164 205.767 290.305 211.384 290.851C217.607 291.151 223.616 293.218 228.708 296.809C231.482 298.755 233.794 301.286 235.482 304.225C236.327 306.257 236.569 308.489 236.179 310.655C235.789 312.821 234.784 314.829 233.284 316.439C230.944 319.375 227.934 321.705 224.506 323.235C211.518 329.406 196.619 330.204 183.047 325.455C178.228 323.897 174.045 320.82 171.123 316.683C169.87 314.558 169.22 312.132 169.243 309.666C169.311 306.691 170.211 303.794 171.839 301.303C173.468 298.812 175.76 296.827 178.458 295.571C183.391 293.565 188.814 292.112 193.833 290.426M446.729 -177.025C456.197 -176.142 463.609 -168.897 470.787 -161.247C483.286 -147.826 493.793 -132.678 501.986 -116.27C505.781 -109.59 508.219 -102.226 509.159 -94.601C509.879 -89.494 508.977 -84.2902 506.582 -79.7227C504.187 -75.1551 500.419 -71.4545 495.809 -69.1423C484.69 -64.0955 472.026 -63.6518 460.581 -67.9085C454.035 -70.1273 448.106 -73.8606 443.276 -78.8047C438.445 -83.7489 434.851 -89.7642 432.786 -96.3604C428.317 -107.677 426.151 -119.772 426.414 -131.936C426.677 -144.1 429.364 -156.09 434.317 -167.203C435.211 -169.72 436.799 -171.932 438.898 -173.584C440.997 -175.235 443.521 -176.258 446.177 -176.534M1001.88 1332.12C1004.92 1331.99 1008.28 1331.77 1011.33 1331.64C1019.81 1331.42 1028.28 1329.83 1037.11 1330.88C1048.24 1332.03 1059.28 1333.98 1070.13 1336.74C1083.92 1340.46 1096.66 1347.35 1107.32 1356.86C1119.1 1366.94 1127.21 1380.64 1130.41 1395.81C1133.05 1408.06 1132.82 1420.76 1129.75 1432.91C1124.71 1452.09 1114.47 1469.51 1100.15 1483.23C1088.1 1494.98 1074.15 1504.61 1058.9 1511.72C1049.75 1515.88 1040.44 1519.41 1031.13 1522.93C1026.65 1524.82 1022.05 1526.4 1017.35 1527.65C1007.61 1529.57 997.78 1531.18 987.953 1532.79C973.38 1534.92 958.56 1534.74 944.044 1532.24C928.868 1529.79 914.669 1523.18 903.028 1513.15C897.101 1507.99 892.322 1501.65 889.001 1494.53C885.68 1487.41 883.89 1479.67 883.747 1471.81C883.323 1457.3 885.719 1442.84 890.801 1429.24C897.908 1407.91 909.772 1388.48 925.494 1372.42C935.718 1361.79 947.715 1353.02 960.947 1346.51C974.128 1339.55 988.016 1336.52 1002.05 1332.76M670.106 467.791C680.958 470.012 683.562 477.178 684.702 487.813C686.704 506.765 685.577 525.529 685.493 544.356C685.41 563.183 685.793 581.202 686.028 599.943C686.565 622.365 687.741 644.616 687.64 667.208C687.721 681.546 684.418 694.74 675.196 703.707C669.614 709.198 662.184 712.408 654.359 712.709C648.792 713.244 643.187 713.258 637.617 712.75C621.616 711.426 606.131 706.452 592.351 698.211C584.184 693.431 577.03 687.102 571.289 679.58C562.693 667.866 558.482 653.505 559.391 639.004C560.26 624.601 563.514 610.442 569.021 597.105C581.852 564.605 600.221 537.46 620.379 511.886C630.592 498.294 642.47 486.037 655.734 475.402C659.749 472.023 664.472 469.59 669.554 468.28M1003.32 1360.45C1007.31 1360.06 1010.99 1359.76 1014.99 1359.37C1024.6 1358.2 1034.34 1358.72 1043.78 1360.89C1055.66 1363.29 1066.79 1368.52 1076.24 1376.12C1085.23 1383.36 1091.8 1393.17 1095.06 1404.25C1098.02 1414.64 1098.01 1425.66 1095.03 1436.05C1090.47 1451.64 1081.12 1465.39 1068.29 1475.35C1059.4 1482.79 1049.28 1488.63 1038.38 1492.6C1030.19 1495.54 1021.83 1498 1013.35 1499.99C998.98 1503.1 984.063 1502.64 969.911 1498.64C955.958 1495.14 943.914 1486.35 936.334 1474.13C930.527 1464.58 927.9 1453.43 928.828 1442.29C930.242 1420.3 940.186 1399.72 956.543 1384.95C964.333 1377.51 973.37 1371.5 983.241 1367.19C989.684 1364.44 996.468 1362.97 1003.32 1360.45ZM1012.72 1386.64C1016.38 1386.48 1020.05 1386.53 1023.7 1386.78C1034.58 1387.04 1044.98 1391.31 1052.9 1398.78C1057.92 1403.41 1061.45 1409.42 1063.04 1416.05C1064.64 1422.68 1064.23 1429.64 1061.86 1436.04C1057.78 1447.76 1049.37 1457.47 1038.36 1463.19C1032.84 1466.59 1026.83 1469.12 1020.55 1470.7C1007.93 1473.4 995.044 1473.78 981.782 1466.39C977.577 1464.17 973.901 1461.08 971.003 1457.31C968.105 1453.54 966.055 1449.19 964.992 1444.56C963.38 1438.19 963.601 1431.49 965.628 1425.24C971.204 1409.05 981.189 1397.83 995.116 1392.38C1000.69 1390.21 1006.75 1388.58 1012.72 1386.64Z" stroke="url(#paint0_linear_154_5009)" stroke-linecap="round" stroke-linejoin="round"/>
<defs>
<linearGradient id="paint0_linear_154_5009" x1="515" y1="897.5" x2="392.5" y2="1037" gradientUnits="userSpaceOnUse">
<stop stop-color="#DFE4E8"/>
<stop offset="1" stop-color="#DFE4E8" stop-opacity="0"/>
</linearGradient>
</defs>
</svg>
