<svg width="62" height="21" viewBox="0 0 62 21" fill="none" xmlns="http://www.w3.org/2000/svg">
<path fill-rule="evenodd" clip-rule="evenodd" d="M30.2431 0.907748L26.1617 20.2514H21.2255L25.3086 0.907748H30.2431ZM51.0082 13.3974L53.6064 6.13438L55.102 13.3974H51.0082ZM56.5157 20.2514H61.0806L57.096 0.907748H52.8833C51.9358 0.907748 51.1369 1.46596 50.7823 2.32636L43.3766 20.2514H48.558L49.5876 17.3614H55.9193L56.5157 20.2514ZM43.633 13.9353C43.6551 8.83055 36.6704 8.54872 36.7185 6.26769C36.7338 5.57416 37.3853 4.83675 38.8119 4.64781C39.518 4.55435 41.4684 4.48181 43.6777 5.51309L44.545 1.41149C43.3565 0.974264 41.8292 0.553955 39.9272 0.553955C35.0493 0.553955 31.6152 3.18361 31.5877 6.94776C31.5552 9.73391 34.0383 11.2864 35.9092 12.2128C37.8312 13.1606 38.476 13.7688 38.4689 14.6166C38.4545 15.915 36.9351 16.4873 35.5147 16.5096C33.0333 16.5489 31.5931 15.8296 30.4456 15.2874L29.552 19.5263C30.704 20.063 32.8328 20.531 35.0405 20.554C40.2258 20.554 43.617 17.9581 43.633 13.9353ZM23.1905 0.907748L15.1938 20.2514H9.97676L6.04161 4.81382C5.80266 3.86339 5.59538 3.51447 4.86892 3.11481C3.68265 2.46141 1.72355 1.849 0 1.46854L0.116223 0.907748H8.51509C9.58488 0.907748 10.548 1.62938 10.7909 2.8797L12.8694 14.0736L18.0063 0.907748H23.1905Z" fill="#1C0D3F"/>
</svg>
