<svg width="107" height="22" viewBox="0 0 107 22" fill="none" xmlns="http://www.w3.org/2000/svg">
<path fill-rule="evenodd" clip-rule="evenodd" d="M36.2921 17.9999H27.1723C26.8683 17.9994 26.6382 17.768 26.6376 17.4624V16.3437C26.631 16.069 26.7189 15.947 26.8867 15.7378L34.146 7.25461H27.0334C26.7288 7.25406 26.4987 7.02274 26.4982 6.71717V5.92439C26.4987 5.61881 26.7288 5.38749 27.0334 5.38694H36.2458C36.5503 5.38749 36.7804 5.61881 36.7804 5.92439V7.06635C36.7851 7.27311 36.7134 7.44811 36.5498 7.63195L29.2728 16.1323H36.2921C36.5961 16.1328 36.8262 16.3641 36.8268 16.6697V17.4619C36.8262 17.768 36.5961 17.9994 36.2921 17.9999ZM54.2701 18.2331H54.2709C54.9248 18.2199 55.4075 18.0902 55.597 17.8768C55.6637 17.8012 55.695 17.7142 55.6865 17.6279C55.6821 17.5566 55.6821 17.5566 55.5025 16.7125L55.4987 16.6926C55.46 16.4721 55.3027 16.3718 55.1736 16.3718L55.156 16.3732C55.156 16.3732 54.9921 16.3652 54.8303 16.3652H54.8289C54.3632 16.3503 53.9773 16.2824 53.9694 15.5975V1.26957C53.9688 1.03107 53.826 0.785399 53.5508 0.779602L53.4696 0.780154L52.1965 1.10753C51.9795 1.1299 51.7535 1.2853 51.7635 1.57321V15.6442C51.7653 17.3109 52.656 18.2299 54.2687 18.2331H54.2701ZM80.0118 17.9999H78.8758C78.5712 17.9994 78.3419 17.768 78.3405 17.4624V8.83792C78.3202 7.3791 77.8863 6.97332 76.3232 6.9518C74.5556 6.9518 72.7657 7.39677 72.176 7.5588V17.4619C72.1752 17.7733 71.9605 17.9994 71.6642 17.9999H70.5045C70.2 17.9994 69.9701 17.768 69.9701 17.4624V7.78929C69.9531 6.89383 70.0363 6.27468 71.3033 5.86228C72.5166 5.44159 74.8379 5.08468 76.3716 5.0833C79.2945 5.08717 80.5426 6.14743 80.5465 8.62762V17.4619C80.5456 17.768 80.3164 17.9994 80.0118 17.9999ZM91.4321 7.30457C91.0074 7.19609 89.8237 6.92806 88.4897 6.92806C86.0406 6.95097 85.0127 7.61953 84.9872 11.7052C85.016 16.1922 86.3446 16.4345 88.5117 16.4583L88.5134 16.5524V16.4583C89.8606 16.4583 91.0179 16.1755 91.4304 16.0618L91.4321 7.30457ZM92.0292 17.8321L91.8938 17.8663C91.1709 18.0507 90.1807 18.303 88.4448 18.303H88.4404C83.6565 18.2956 82.717 15.87 82.7123 11.6817C82.7183 6.87865 84.2325 5.08993 88.301 5.0833C89.7366 5.0833 90.7251 5.27018 91.4356 5.44215L91.4304 1.57376C91.4251 1.40372 91.5016 1.18123 91.9008 1.10477L93.1707 0.779602H93.2401C93.533 0.78678 93.6359 1.04818 93.6367 1.26957V15.8076C93.6561 16.7249 93.5488 17.5127 92.0292 17.8321ZM101.306 16.4351C98.1709 16.4212 98.0135 14.8032 97.9915 11.706C98.0135 8.59091 98.1709 6.96477 101.306 6.9518C104.443 6.96477 104.599 8.59091 104.621 11.704C104.599 14.8032 104.442 16.4212 101.306 16.4351ZM101.306 5.0833C96.1368 5.09048 95.6989 8.50533 95.6936 11.7052C95.6989 14.8934 96.1368 18.2956 101.306 18.303C106.472 18.2956 106.912 14.9028 106.92 11.7046C106.915 8.35849 106.476 5.09048 101.306 5.0833ZM65.4756 11.7725C64.9579 11.7783 62.4466 11.8191 61.447 12.0339L61.3682 12.051C60.2439 12.3039 59.3561 12.5029 59.3451 14.1763C59.3471 16.2805 60.9497 16.4693 62.5908 16.482L62.5922 16.5761V16.482C63.6195 16.482 64.5891 16.3357 65.4756 16.0458V11.7725ZM67.6933 8.69828V15.3881C67.7156 17.0509 67.2905 17.5823 65.6249 17.9709C64.8956 18.123 63.778 18.303 62.5672 18.303C60.7833 18.2988 57.0711 18.2917 57.0697 14.2684C57.0579 11.1001 58.9513 10.5494 61.2399 10.1958C62.7388 9.95422 64.2635 9.91781 65.0386 9.91781C65.2482 9.91781 65.3838 9.91974 65.4643 9.92115V8.79105C65.4571 8.03635 65.4525 7.57923 64.7509 7.31257C64.3178 7.12874 63.6725 7.04455 62.7121 7.04455C61.1291 7.04455 59.7112 7.40091 58.7732 7.6372L58.4148 7.72167C58.376 7.73132 58.3349 7.74126 58.2811 7.74402H58.2805C58.1155 7.74402 57.934 7.64576 57.867 7.42658L57.8617 7.40615L57.6503 6.32988L57.6494 6.27412C57.6527 6.02044 57.8357 5.87166 58.0067 5.81701C58.7627 5.53379 60.7616 5.08468 62.9151 5.0833C64.4888 5.08468 65.6249 5.29005 66.3895 5.71294C67.6985 6.40828 67.6953 7.67805 67.6933 8.69828ZM46.9199 16.0458C46.0334 16.3357 45.0638 16.482 44.0364 16.482V16.5761L44.035 16.482C42.3945 16.4693 40.7913 16.2805 40.7895 14.1763C40.7999 12.5029 41.6882 12.3039 42.8125 12.051L42.8905 12.0339C43.8909 11.8191 46.4022 11.7783 46.9199 11.7725V16.0458ZM47.8337 5.71294C47.0692 5.29005 45.9323 5.08468 44.3588 5.0833C42.2059 5.08468 40.2062 5.53379 39.4502 5.81701C39.279 5.87166 39.0965 6.02044 39.0938 6.27412V6.32988L39.306 7.40615L39.3112 7.42658C39.3774 7.64576 39.5597 7.74402 39.7248 7.74402H39.7253C39.7784 7.74126 39.8203 7.73132 39.8591 7.72167L40.2166 7.6372C41.155 7.40091 42.5728 7.04455 44.1556 7.04455C45.1162 7.04455 45.7615 7.12874 46.1946 7.31257C46.8968 7.57923 46.9014 8.03635 46.9086 8.79105V9.92115C46.8282 9.91974 46.6925 9.91781 46.4826 9.91781C45.7077 9.91781 44.183 9.95422 42.6834 10.1958C40.3957 10.5494 38.5022 11.1001 38.514 14.2684C38.5146 18.2917 42.2268 18.2988 44.0109 18.303C45.2222 18.303 46.3393 18.123 47.0692 17.9709C48.7339 17.5823 49.159 17.0509 49.1376 15.3881V8.69828C49.1395 7.67805 49.1428 6.40828 47.8337 5.71294Z" fill="#1C0D3F"/>
<path fill-rule="evenodd" clip-rule="evenodd" d="M5.13047 21.5533C4.35743 21.5533 3.92767 21.3714 3.69837 21.2378C3.38064 21.0543 2.79435 20.5853 2.26875 19.1949C1.42624 16.9689 0.928921 14.2505 0.906677 11.0556V11.0438C0.928921 7.84837 1.42624 5.13051 2.26875 2.90372C2.79435 1.51414 3.38064 1.04461 3.69837 0.861037C3.92767 0.727162 4.35689 0.546082 5.12991 0.546082C5.42484 0.546082 5.77003 0.572581 6.17289 0.637726C8.51257 1.01839 11.1033 1.94421 13.8667 3.52287L13.8771 3.52811C16.6183 5.14486 18.7116 6.9369 20.2093 8.78355C21.1435 9.93608 21.2542 10.6811 21.2542 11.0498C21.2542 11.4179 21.1435 12.1634 20.2093 13.3153C18.7116 15.1619 16.6183 16.9546 13.8771 18.5713L13.8667 18.5774C11.1033 20.1552 8.51257 21.081 6.17289 21.4617C5.77003 21.5271 5.4254 21.5533 5.13047 21.5533Z" fill="#1C0D3F"/>
</svg>
