<svg width="339" height="254" viewBox="0 0 339 254" fill="none" xmlns="http://www.w3.org/2000/svg">
<rect x="169.699" y="169" width="84" height="84" fill="#494440"/>
<path d="M193.386 209.67C193.064 209.401 190.418 208.671 188.218 208.165C188.201 209.822 188.305 211.622 188.53 211.935C188.852 212.204 191.499 212.933 193.699 213.44C193.716 211.784 193.612 209.984 193.386 209.67Z" fill="white"/>
<path fill-rule="evenodd" clip-rule="evenodd" d="M190.967 202.6C186.278 202.6 182.477 206.308 182.477 210.882C182.477 215.456 186.278 219.163 190.967 219.163C195.657 219.163 199.458 215.456 199.458 210.882C199.458 206.308 195.657 202.6 190.967 202.6ZM196.691 213.949C196.472 214.023 195.188 213.782 193.699 213.44C193.684 214.864 193.579 216.182 193.386 216.357C192.846 216.541 185.766 214.794 185.225 214.343C184.807 213.761 184.807 208.034 185.226 207.656C185.444 207.582 186.728 207.823 188.218 208.166C188.233 206.741 188.337 205.422 188.531 205.248C189.071 205.065 196.15 206.811 196.691 207.261C197.111 207.846 197.11 213.572 196.691 213.949Z" fill="white"/>
<path fill-rule="evenodd" clip-rule="evenodd" d="M210.072 210.112C210.072 207.276 211.714 206.188 213.782 206.188C215.85 206.188 217.491 207.276 217.491 210.112V211.567C217.491 214.403 215.85 215.491 213.782 215.491C211.714 215.491 210.072 214.403 210.072 211.567V210.112ZM213.782 213.657C214.835 213.657 215.336 213.033 215.336 211.567V210.112C215.336 208.645 214.835 208.022 213.782 208.022C212.73 208.022 212.241 208.645 212.241 210.112V211.567C212.241 213.033 212.73 213.657 213.782 213.657Z" fill="white"/>
<path d="M209.321 206.298H203.105C202.967 206.298 202.854 206.396 202.854 206.531V207.789C202.854 207.924 202.967 208.022 203.105 208.022H205.147V215.136C205.147 215.271 205.26 215.381 205.398 215.381H207.04C207.177 215.381 207.29 215.271 207.29 215.136V208.022H209.321C209.459 208.022 209.584 207.924 209.584 207.789V206.531C209.584 206.396 209.459 206.298 209.321 206.298Z" fill="white"/>
<path d="M218.231 206.298H224.446C224.584 206.298 224.71 206.396 224.71 206.531V207.789C224.71 207.924 224.584 208.022 224.446 208.022H222.416V215.136C222.416 215.271 222.304 215.381 222.166 215.381H220.524C220.386 215.381 220.274 215.271 220.274 215.136V208.022H218.231C218.093 208.022 217.98 207.924 217.98 207.789V206.531C217.98 206.396 218.093 206.298 218.231 206.298Z" fill="white"/>
<path d="M233.056 206.298H231.302C231.177 206.298 231.089 206.396 231.064 206.518L229.497 213.572C229.472 213.706 229.435 213.754 229.321 213.754C229.208 213.754 229.172 213.706 229.146 213.572L227.579 206.518C227.555 206.396 227.454 206.298 227.33 206.298H225.587C225.462 206.298 225.362 206.384 225.362 206.494C225.362 206.506 225.365 206.515 225.368 206.525C225.371 206.534 225.374 206.543 225.374 206.555L227.241 214.133C227.53 215.307 228.457 215.491 229.321 215.491C230.187 215.491 231.101 215.307 231.39 214.133L233.257 206.555C233.257 206.541 233.261 206.527 233.265 206.515C233.268 206.506 233.27 206.499 233.27 206.494C233.27 206.372 233.182 206.298 233.056 206.298Z" fill="white"/>
<path d="M236.915 209.488L238.519 210.332C239.823 211.016 240.212 211.823 240.212 212.813C240.212 214.109 239.335 215.491 236.791 215.491C235.801 215.491 235.061 215.38 234.422 215.222C234.297 215.185 234.172 215.111 234.172 214.977V213.779C234.172 213.608 234.272 213.547 234.397 213.547H234.435C234.948 213.596 236.327 213.694 236.816 213.694C237.68 213.694 237.931 213.425 237.931 212.838C237.931 212.483 237.755 212.288 237.105 211.909L235.375 210.907C234.209 210.235 233.896 209.464 233.896 208.572C233.896 207.227 234.672 206.188 237.105 206.188C238.019 206.188 239.285 206.335 239.761 206.457C239.86 206.482 239.949 206.543 239.949 206.677V207.912C239.949 208.022 239.898 208.12 239.736 208.12H239.711C239.676 208.117 239.63 208.114 239.574 208.11C239.075 208.075 237.82 207.985 237.054 207.985C236.34 207.985 236.076 208.193 236.076 208.633C236.076 208.975 236.239 209.134 236.915 209.488Z" fill="white"/>
<rect x="169.699" y="169" width="84" height="84" stroke="#DFE4E8" stroke-width="0.473239"/>
<rect x="1.69922" y="1" width="84" height="84" fill="white"/>
<path d="M36.1558 40.3057C36.1558 40.7157 36.2001 41.0481 36.2777 41.2919C36.3663 41.5356 36.4771 41.8016 36.6323 42.0897C36.6877 42.1783 36.7098 42.267 36.7098 42.3445C36.7098 42.4553 36.6434 42.5661 36.4993 42.6769L35.8012 43.1423C35.7015 43.2088 35.6018 43.242 35.5131 43.242C35.4023 43.242 35.2915 43.1866 35.1807 43.0869C35.0256 42.9207 34.8926 42.7434 34.7818 42.5661C34.671 42.3778 34.5602 42.1672 34.4383 41.9124C33.574 42.9318 32.4881 43.4415 31.1806 43.4415C30.2498 43.4415 29.5074 43.1756 28.9645 42.6437C28.4215 42.1118 28.1445 41.4027 28.1445 40.5162C28.1445 39.5744 28.4769 38.8098 29.1529 38.2336C29.8288 37.6574 30.7263 37.3693 31.8676 37.3693C32.2444 37.3693 32.6322 37.4026 33.0422 37.458C33.4521 37.5134 33.8732 37.602 34.3164 37.7018V36.8929C34.3164 36.0507 34.1391 35.4635 33.7956 35.12C33.4411 34.7765 32.8427 34.6103 31.9895 34.6103C31.6017 34.6103 31.2028 34.6546 30.7928 34.7543C30.3828 34.854 29.9839 34.9759 29.5961 35.1311C29.4188 35.2086 29.2858 35.2529 29.2083 35.2751C29.1307 35.2973 29.0753 35.3083 29.031 35.3083C28.8759 35.3083 28.7983 35.1975 28.7983 34.9648V34.4219C28.7983 34.2446 28.8204 34.1116 28.8759 34.0341C28.9313 33.9565 29.031 33.879 29.1861 33.8014C29.5739 33.6019 30.0393 33.4357 30.5823 33.3028C31.1252 33.1587 31.7014 33.0922 32.3108 33.0922C33.6294 33.0922 34.5934 33.3914 35.214 33.9898C35.8234 34.5881 36.1336 35.4967 36.1336 36.7156V40.3057H36.1558ZM31.6571 41.9899C32.0227 41.9899 32.3995 41.9235 32.7984 41.7905C33.1973 41.6575 33.5519 41.4138 33.851 41.0813C34.0283 40.8708 34.1613 40.6381 34.2278 40.3722C34.2943 40.1062 34.3386 39.7849 34.3386 39.4082V38.9428C34.0173 38.8652 33.6738 38.7987 33.3192 38.7544C32.9646 38.7101 32.6211 38.6879 32.2776 38.6879C31.5352 38.6879 30.9922 38.832 30.6266 39.1311C30.2609 39.4303 30.0836 39.8514 30.0836 40.4054C30.0836 40.9262 30.2166 41.314 30.4936 41.58C30.7596 41.857 31.1474 41.9899 31.6571 41.9899ZM40.5548 43.1866C40.3554 43.1866 40.2224 43.1534 40.1337 43.0758C40.0451 43.0094 39.9675 42.8542 39.9011 42.6437L37.2971 34.0784C37.2306 33.8568 37.1974 33.7127 37.1974 33.6352C37.1974 33.4579 37.286 33.3582 37.4633 33.3582H38.5492C38.7597 33.3582 38.9038 33.3914 38.9814 33.469C39.07 33.5355 39.1365 33.6906 39.203 33.9011L41.0645 41.2365L42.7931 33.9011C42.8485 33.6795 42.915 33.5355 43.0036 33.469C43.0923 33.4025 43.2474 33.3582 43.4468 33.3582H44.3333C44.5438 33.3582 44.6879 33.3914 44.7765 33.469C44.8652 33.5355 44.9427 33.6906 44.987 33.9011L46.7378 41.3251L48.6547 33.9011C48.7212 33.6795 48.7988 33.5355 48.8763 33.469C48.965 33.4025 49.109 33.3582 49.3085 33.3582H50.339C50.5163 33.3582 50.616 33.4468 50.616 33.6352C50.616 33.6906 50.6049 33.746 50.5938 33.8125C50.5828 33.879 50.5606 33.9676 50.5163 34.0895L47.8458 42.6548C47.7794 42.8764 47.7018 43.0204 47.6132 43.0869C47.5245 43.1534 47.3805 43.1977 47.1921 43.1977H46.2392C46.0286 43.1977 45.8846 43.1645 45.7959 43.0869C45.7073 43.0094 45.6297 42.8653 45.5854 42.6437L43.8679 35.4967L42.1615 42.6326C42.1061 42.8542 42.0396 42.9983 41.951 43.0758C41.8623 43.1534 41.7072 43.1866 41.5077 43.1866H40.5548ZM54.7934 43.4858C54.2172 43.4858 53.641 43.4193 53.087 43.2864C52.5329 43.1534 52.1008 43.0094 51.8127 42.8431C51.6354 42.7434 51.5135 42.6326 51.4692 42.5329C51.4249 42.4332 51.4027 42.3224 51.4027 42.2226V41.6575C51.4027 41.4248 51.4914 41.314 51.6576 41.314C51.7241 41.314 51.7905 41.3251 51.857 41.3473C51.9235 41.3694 52.0232 41.4138 52.134 41.4581C52.5108 41.6243 52.9208 41.7572 53.3529 41.8459C53.7961 41.9345 54.2283 41.9789 54.6715 41.9789C55.3696 41.9789 55.9125 41.857 56.2893 41.6132C56.666 41.3694 56.8655 41.0148 56.8655 40.5605C56.8655 40.2503 56.7657 39.9954 56.5663 39.7849C56.3668 39.5744 55.9901 39.386 55.4471 39.2087L53.8404 38.7101C53.0316 38.4552 52.4332 38.0785 52.0676 37.5799C51.7019 37.0923 51.5135 36.5494 51.5135 35.9732C51.5135 35.5078 51.6132 35.0978 51.8127 34.7432C52.0121 34.3887 52.2781 34.0784 52.6105 33.8346C52.9429 33.5798 53.3197 33.3914 53.7629 33.2584C54.2061 33.1255 54.6715 33.0701 55.159 33.0701C55.4028 33.0701 55.6577 33.0811 55.9014 33.1144C56.1563 33.1476 56.389 33.192 56.6217 33.2363C56.8433 33.2917 57.0538 33.3471 57.2533 33.4136C57.4527 33.4801 57.6079 33.5465 57.7187 33.613C57.8738 33.7017 57.9846 33.7903 58.0511 33.89C58.1176 33.9787 58.1508 34.1006 58.1508 34.2557V34.7765C58.1508 35.0092 58.0622 35.1311 57.896 35.1311C57.8073 35.1311 57.6633 35.0867 57.4749 34.9981C56.8433 34.71 56.1341 34.5659 55.3474 34.5659C54.7158 34.5659 54.2172 34.6657 53.8737 34.8762C53.5302 35.0867 53.3529 35.4081 53.3529 35.8624C53.3529 36.1726 53.4637 36.4386 53.6853 36.6491C53.9069 36.8596 54.3169 37.0702 54.9042 37.2585L56.4776 37.7572C57.2754 38.012 57.8516 38.3666 58.1951 38.8209C58.5386 39.2752 58.7048 39.796 58.7048 40.3722C58.7048 40.8486 58.6051 41.2808 58.4167 41.6575C58.2173 42.0343 57.9514 42.3667 57.6079 42.6326C57.2644 42.9096 56.8544 43.1091 56.3779 43.2531C55.8793 43.4083 55.3585 43.4858 54.7934 43.4858Z" fill="#252F3E"/>
<path fill-rule="evenodd" clip-rule="evenodd" d="M56.8882 48.8707C53.2427 51.5632 47.9461 52.9926 43.392 52.9926C37.0096 52.9926 31.2588 50.6325 26.9152 46.7099C26.5717 46.3997 26.8819 45.9786 27.2919 46.2224C31.9901 48.9482 37.7852 50.5992 43.7798 50.5992C47.8242 50.5992 52.2676 49.7571 56.3563 48.0285C56.9657 47.7515 57.4865 48.4274 56.8882 48.8707Z" fill="#FF9900"/>
<path fill-rule="evenodd" clip-rule="evenodd" d="M58.4046 47.1424C57.9392 46.5441 55.3242 46.8543 54.1385 46.9984C53.784 47.0427 53.7286 46.7324 54.0499 46.4997C56.133 45.0371 59.5569 45.4582 59.9558 45.9457C60.3547 46.4443 59.845 49.8682 57.8949 51.5082C57.5957 51.763 57.3076 51.63 57.4406 51.2976C57.8838 50.2007 58.87 47.7297 58.4046 47.1424Z" fill="#FF9900"/>
<rect x="1.69922" y="1" width="84" height="84" stroke="#DFE4E8" stroke-width="0.473239"/>
<rect x="85.6992" y="85" width="84" height="84" fill="#31BEF0"/>
<path d="M126.437 121.258C126.437 121.854 126.238 122.318 125.841 122.715C125.244 123.312 124.25 123.445 123.588 122.981L116.96 119.137C116.926 119.137 116.91 119.12 116.893 119.103C116.877 119.087 116.86 119.07 116.827 119.07C115.899 118.54 115.634 117.347 116.231 116.419C116.761 115.491 117.954 115.227 118.882 115.823L122.593 118.01V113.636C122.593 112.575 123.455 111.714 124.515 111.714C125.576 111.714 126.437 112.575 126.437 113.636V121.258Z" fill="white"/>
<path d="M121.996 125.632C122.659 125.963 122.991 126.626 122.991 127.355C122.991 128.084 122.659 128.747 122.063 129.078L115.435 132.922H115.303C114.309 133.452 113.182 133.121 112.652 132.127C112.121 131.133 112.519 130.006 113.447 129.476L117.225 127.289L113.447 125.101C113.404 125.101 113.389 125.074 113.366 125.054C113.353 125.043 113.338 125.035 113.314 125.035C112.387 124.505 112.121 123.312 112.718 122.384C113.248 121.456 114.441 121.191 115.369 121.787L121.996 125.632Z" fill="white"/>
<path d="M126.437 141.074V133.386C126.503 133.121 126.371 132.789 126.238 132.591C125.708 131.597 124.449 131.265 123.521 131.796L116.893 135.64C116.86 135.64 116.843 135.656 116.827 135.673C116.81 135.689 116.794 135.706 116.761 135.706C115.833 136.236 115.568 137.429 116.164 138.357C116.694 139.285 117.888 139.55 118.815 138.954L122.593 136.766V141.074C122.593 142.135 123.455 142.996 124.515 142.996C125.576 142.996 126.437 142.135 126.437 141.074Z" fill="white"/>
<path d="M129.884 141.074V133.585C129.817 133.254 129.95 132.789 130.082 132.458C130.612 131.53 131.806 131.199 132.733 131.729L139.361 135.573C139.427 135.573 139.427 135.64 139.493 135.64C140.421 136.17 140.687 137.362 140.09 138.291C139.56 139.219 138.367 139.483 137.439 138.887L133.727 136.766V141.074C133.727 142.135 132.866 142.996 131.806 142.996C130.745 142.996 129.884 142.135 129.884 141.074Z" fill="white"/>
<path d="M134.324 125.632C133.661 125.963 133.33 126.626 133.33 127.355C133.264 128.084 133.661 128.747 134.258 129.012L140.886 132.856C140.952 132.856 140.952 132.922 141.018 132.922C142.012 133.452 143.139 133.055 143.669 132.127C144.199 131.133 143.802 130.006 142.874 129.476L139.096 127.289L142.874 125.101C142.908 125.101 142.925 125.084 142.942 125.066C142.958 125.05 142.974 125.035 143.006 125.035C143.934 124.505 144.199 123.312 143.603 122.384C143.073 121.456 141.88 121.191 140.952 121.787L134.324 125.632Z" fill="white"/>
<path d="M129.884 113.636V121.125C129.817 121.523 129.95 121.92 130.082 122.252C130.612 123.179 131.806 123.511 132.733 122.981L139.361 119.136C139.394 119.136 139.411 119.12 139.427 119.103C139.444 119.087 139.46 119.07 139.493 119.07C140.421 118.54 140.687 117.347 140.09 116.419C139.56 115.491 138.367 115.226 137.439 115.823L133.727 117.944V113.636C133.727 112.575 132.866 111.714 131.806 111.714C130.745 111.714 129.884 112.575 129.884 113.636Z" fill="white"/>
<path fill-rule="evenodd" clip-rule="evenodd" d="M128.823 123.8C128.869 123.829 128.912 123.865 128.956 123.908L131.54 126.56C131.673 126.692 131.739 126.825 131.739 127.023V127.686C131.739 127.819 131.673 128.018 131.607 128.15L128.956 130.801C128.886 130.871 128.815 130.923 128.736 130.956C128.665 130.985 128.586 131 128.492 131H127.829C127.63 131 127.498 130.934 127.365 130.801L124.714 128.15C124.582 128.018 124.515 127.885 124.515 127.686V127.023C124.515 126.825 124.582 126.692 124.714 126.56L127.365 123.908C127.449 123.824 127.534 123.767 127.635 123.736C127.693 123.719 127.757 123.71 127.829 123.71H128.492C128.625 123.71 128.729 123.74 128.823 123.8ZM128.459 126.184C128.392 126.117 128.26 126.051 128.127 126.051C128.032 126.051 127.937 126.085 127.867 126.128C127.839 126.146 127.815 126.165 127.796 126.184L127 126.979C126.934 127.045 126.868 127.178 126.868 127.31C126.868 127.443 126.934 127.575 127 127.642L127.796 128.437C127.826 128.467 127.87 128.497 127.922 128.521C127.983 128.55 128.055 128.57 128.127 128.57C128.26 128.57 128.392 128.503 128.459 128.437L129.254 127.642C129.311 127.585 129.368 127.479 129.383 127.366C129.385 127.347 129.387 127.329 129.387 127.31C129.387 127.237 129.366 127.164 129.337 127.102C129.313 127.051 129.284 127.008 129.254 126.979L128.459 126.184Z" fill="white"/>
<rect x="85.6992" y="85" width="84" height="84" stroke="#DFE4E8" stroke-width="0.473239"/>
<rect x="169.699" y="1" width="84" height="84" fill="white"/>
<path fill-rule="evenodd" clip-rule="evenodd" d="M201.585 48.2432C200.484 48.7474 198.334 49.8708 198.537 51.0915C198.819 51.8434 199.691 51.0915 200.017 50.7377C200.72 50.053 201.256 49.2145 201.585 48.2874V48.2432ZM208.174 45.5984C207.443 47.5179 205.311 48.429 204.721 48.1017C204.421 47.9425 204.721 47.3321 204.721 46.9164C204.289 47.0844 203.576 47.4029 203.144 47.5798C204.119 48.4201 204.681 49.6461 204.681 50.9367C204.681 52.2273 204.119 53.4533 203.144 54.2936C204.906 56.9473 204.025 59.2294 201.567 61.0074L201.47 61.0693L201.417 60.8924C201.112 59.6664 200.534 58.5262 199.726 57.5576C199.295 57.0534 198.801 56.5934 198.317 56.1335C197.683 55.532 197.066 54.9128 196.493 54.2582C194.071 51.7107 193.111 47.226 193.428 43.7585C193.599 41.9779 194.119 40.2486 194.961 38.6723C195.626 37.4145 196.455 36.2513 197.427 35.2137C199.605 32.8669 202.361 31.1376 205.417 30.1982C208.101 29.2677 211.038 29.4048 213.627 30.5786C214.103 30.8325 214.558 31.1288 214.983 31.4631L215.608 32.0558L215.679 32.1266L227.456 26.0673C228.425 25.5808 229.156 25.5808 229.482 25.9347C229.808 26.2885 229.35 27.1996 228.663 27.7038L218.533 35.0545C218.654 35.7559 218.446 36.4733 217.969 37.0005C219.317 37.4693 218.128 39.4507 217.538 40.1584C215.846 42.1663 212.754 43.7408 209.997 44.8907C209.257 45.2092 208.834 45.3419 208.174 45.5895V45.5984Z" fill="#383C42"/>
<path fill-rule="evenodd" clip-rule="evenodd" d="M217.416 38.6548C218.173 37.6995 217.645 37.1511 217.116 37.6818C216.044 38.7079 214.548 39.1555 213.091 38.8848C211.021 38.5398 210.924 38.2214 211.276 37.9118C213.679 38.7238 216.327 37.8216 217.742 35.7092C218.253 34.9751 216.544 34.3912 215.539 33.0556C210.712 26.4744 195.596 32.1799 194.152 43.6172C193.676 47.1873 194.722 50.7945 197.032 53.5508C198.794 55.5578 200.714 56.3991 201.798 59.5569C203.912 57.7347 203.559 55.6737 202.036 53.8692C203.144 53.3049 203.873 52.1956 203.957 50.9502C204.04 49.7056 203.464 48.5097 202.441 47.8012C201.56 50.9944 198.468 53.3562 197.746 51.0917C197.279 48.783 201.067 47.2527 207.127 44.8998C212.201 42.9892 215.478 41.4146 217.416 38.6017" fill="#31D3DB"/>
<path fill-rule="evenodd" clip-rule="evenodd" d="M217.413 38.6547C218.171 37.6994 217.642 37.151 217.114 37.6817C216.183 38.5831 214.916 39.0466 213.625 38.9555C211.538 38.8051 209.873 38.3894 208.34 38.5574C205.494 38.9856 202.861 40.3257 200.835 42.3787C198.192 45.1032 195.268 50.7635 198.192 51.8612C197.969 51.6631 197.82 51.3942 197.769 51.1005C197.303 48.7918 201.09 47.2606 207.151 44.9086C212.225 42.9979 215.502 41.4234 217.44 38.6105" fill="white"/>
<path fill-rule="evenodd" clip-rule="evenodd" d="M204.42 43.1216C205.979 43.8912 205.671 46.5803 205.442 47.2525C208.401 46.368 207.521 42.0071 208.895 40.6626C207.133 40.6095 203.944 42.3521 204.42 43.1216Z" fill="#31D3DB"/>
<path fill-rule="evenodd" clip-rule="evenodd" d="M209.425 35.1428C209.699 34.9048 210.089 34.8588 210.41 35.0278C210.731 35.1959 210.916 35.5444 210.878 35.9053C210.839 36.2671 210.584 36.5678 210.235 36.6642C209.839 36.7739 209.419 36.5935 209.225 36.229C209.031 35.8637 209.114 35.4135 209.425 35.1428Z" fill="#383C42"/>
<path fill-rule="evenodd" clip-rule="evenodd" d="M216.612 35.5056L228.495 27.1996C228.83 26.9608 229.27 26.4478 229.085 26.2001C228.9 25.9524 228.39 26.0851 227.949 26.2885L215.106 33.2589C214.692 34.1434 215.529 35.9568 216.621 35.5056" fill="#31D3DB"/>
<path fill-rule="evenodd" clip-rule="evenodd" d="M215.573 33.8691L227.985 26.5715C228.306 26.3522 228.681 26.2292 229.069 26.2177C228.884 26.0054 228.373 26.1293 227.95 26.3327L215.107 33.2588C214.848 34.0912 215.167 34.9961 215.891 35.479C215.625 34.9837 215.514 34.4202 215.573 33.8603" fill="white"/>
<path fill-rule="evenodd" clip-rule="evenodd" d="M197.287 37.1245C197.47 37.0847 197.661 37.1342 197.801 37.2581C197.943 37.3819 198.016 37.565 198.001 37.7525C198.006 38.1904 197.691 38.5663 197.261 38.6371C197.081 38.6725 196.894 38.6229 196.756 38.5018C196.619 38.3806 196.544 38.2019 196.556 38.0179C196.57 37.5898 196.87 37.2262 197.287 37.1333" fill="#21AAAD"/>
<path fill-rule="evenodd" clip-rule="evenodd" d="M199.691 34.4617C199.852 34.4272 200.021 34.4723 200.144 34.582C200.267 34.6917 200.332 34.8535 200.317 35.019C200.287 35.394 200.026 35.7098 199.665 35.8062C199.503 35.8407 199.335 35.7956 199.212 35.6859C199.089 35.5762 199.024 35.4144 199.039 35.2489C199.067 34.8739 199.329 34.5581 199.691 34.4617Z" fill="#21AAAD"/>
<path fill-rule="evenodd" clip-rule="evenodd" d="M206.986 30.9326C207.149 30.9388 207.298 31.021 207.392 31.1537C207.485 31.2882 207.511 31.458 207.461 31.6137C207.362 31.9755 207.033 32.2249 206.66 32.224C206.495 32.2196 206.343 32.1391 206.246 32.0055C206.149 31.872 206.12 31.7013 206.166 31.5429C206.267 31.1776 206.6 30.9273 206.977 30.9326" fill="#21AAAD"/>
<path fill-rule="evenodd" clip-rule="evenodd" d="M209.223 30.5698C209.359 30.5919 209.478 30.6786 209.543 30.8015C209.607 30.9253 209.609 31.0722 209.549 31.1978C209.416 31.4835 209.11 31.6454 208.8 31.5958C208.671 31.5711 208.559 31.4897 208.495 31.3729C208.432 31.2562 208.424 31.1173 208.474 30.9943C208.599 30.6989 208.907 30.5246 209.223 30.5698Z" fill="#21AAAD"/>
<path fill-rule="evenodd" clip-rule="evenodd" d="M199.717 36.1337C199.837 36.108 199.963 36.1407 200.055 36.223C200.147 36.3053 200.194 36.4265 200.184 36.5494C200.177 36.8316 199.975 37.0704 199.699 37.1244C199.58 37.1491 199.457 37.1173 199.365 37.0377C199.274 36.9572 199.224 36.8387 199.232 36.7175C199.245 36.4353 199.443 36.1965 199.717 36.1337Z" fill="#21AAAD"/>
<path fill-rule="evenodd" clip-rule="evenodd" d="M195.965 39.265C196.09 39.2358 196.22 39.2685 196.315 39.3526C196.411 39.4366 196.461 39.5622 196.45 39.6896C196.44 39.9824 196.233 40.2301 195.948 40.2911C195.818 40.3167 195.684 40.2796 195.588 40.1902C195.49 40.1018 195.44 39.9718 195.455 39.84C195.465 39.5445 195.677 39.296 195.965 39.2385" fill="#21AAAD"/>
<path fill-rule="evenodd" clip-rule="evenodd" d="M218.18 31.596L217.625 31.879C217.69 32.6804 218.127 33.4049 218.805 33.8339C218.376 33.1687 218.159 32.3885 218.18 31.596ZM221.096 29.9861L220.611 30.2514C220.685 30.9149 221.05 31.5119 221.607 31.879C221.292 31.2988 221.132 30.6468 221.14 29.9861H221.096ZM224.02 28.3939L223.65 28.5973C223.65 29.075 223.994 29.7915 224.381 29.8888C224.129 29.4332 224.018 28.9122 224.064 28.3939H224.02ZM226.839 26.8724L226.513 27.0493C226.592 27.4394 226.8 27.7915 227.103 28.0489C226.935 27.6792 226.845 27.2784 226.839 26.8724Z" fill="#21AAAD"/>
<rect x="169.699" y="1" width="84" height="84" stroke="#DFE4E8" stroke-width="0.473239"/>
<rect x="253.699" y="85" width="84" height="84" fill="white"/>
<g clip-path="url(#clip0_202_3482)">
<path d="M291.872 127.749C291.872 130.278 289.925 132.142 287.536 132.142C285.147 132.142 283.2 130.278 283.2 127.749C283.2 125.203 285.147 123.357 287.536 123.357C289.925 123.357 291.872 125.203 291.872 127.749ZM289.974 127.749C289.974 126.169 288.845 125.088 287.536 125.088C286.226 125.088 285.098 126.169 285.098 127.749C285.098 129.314 286.226 130.411 287.536 130.411C288.845 130.411 289.974 129.312 289.974 127.749Z" fill="#EA4335"/>
<path d="M301.225 127.749C301.225 130.278 299.278 132.142 296.889 132.142C294.5 132.142 292.554 130.278 292.554 127.749C292.554 125.205 294.5 123.357 296.889 123.357C299.278 123.357 301.225 125.203 301.225 127.749ZM299.327 127.749C299.327 126.169 298.199 125.088 296.889 125.088C295.58 125.088 294.452 126.169 294.452 127.749C294.452 129.314 295.58 130.411 296.889 130.411C298.199 130.411 299.327 129.312 299.327 127.749Z" fill="#FBBC05"/>
<path d="M310.189 123.622V131.508C310.189 134.752 308.307 136.077 306.081 136.077C303.986 136.077 302.726 134.653 302.25 133.489L303.903 132.79C304.197 133.504 304.918 134.348 306.079 134.348C307.504 134.348 308.386 133.455 308.386 131.774V131.142H308.32C307.895 131.675 307.077 132.14 306.044 132.14C303.883 132.14 301.903 130.227 301.903 127.765C301.903 125.286 303.883 123.357 306.044 123.357C307.075 123.357 307.893 123.822 308.32 124.339H308.386V123.624H310.189V123.622ZM308.521 127.765C308.521 126.219 307.506 125.088 306.214 125.088C304.904 125.088 303.807 126.219 303.807 127.765C303.807 129.296 304.904 130.411 306.214 130.411C307.506 130.411 308.521 129.296 308.521 127.765Z" fill="#4285F4"/>
<path d="M313.161 119V131.873H311.31V119H313.161Z" fill="#34A853"/>
<path d="M320.375 129.195L321.848 130.193C321.373 130.908 320.227 132.14 318.247 132.14C315.792 132.14 313.958 130.211 313.958 127.747C313.958 125.135 315.807 123.355 318.035 123.355C320.277 123.355 321.375 125.169 321.733 126.149L321.93 126.648L316.152 129.08C316.595 129.962 317.282 130.411 318.247 130.411C319.213 130.411 319.884 129.928 320.375 129.195ZM315.84 127.615L319.703 125.985C319.49 125.436 318.851 125.054 318.099 125.054C317.134 125.054 315.792 125.92 315.84 127.615V127.615Z" fill="#EA4335"/>
<path d="M276.193 126.607V124.743H282.372C282.433 125.068 282.464 125.452 282.464 125.868C282.464 127.266 282.088 128.995 280.876 130.227C279.697 131.475 278.191 132.14 276.195 132.14C272.497 132.14 269.387 129.078 269.387 125.319C269.387 121.561 272.497 118.499 276.195 118.499C278.241 118.499 279.699 119.315 280.794 120.378L279.5 121.693C278.715 120.945 277.651 120.363 276.193 120.363C273.492 120.363 271.38 122.575 271.38 125.319C271.38 128.064 273.492 130.276 276.193 130.276C277.945 130.276 278.943 129.561 279.582 128.912C280.1 128.385 280.441 127.633 280.576 126.605L276.193 126.607V126.607Z" fill="#4285F4"/>
</g>
<rect x="253.699" y="85" width="84" height="84" stroke="#DFE4E8" stroke-width="0.473239"/>
<defs>
<clipPath id="clip0_202_3482">
<rect width="53.0028" height="18.2197" fill="white" transform="translate(269.316 118.406)"/>
</clipPath>
</defs>
</svg>
