<svg width="646" height="486" viewBox="0 0 646 486" fill="none" xmlns="http://www.w3.org/2000/svg">
<g clip-path="url(#clip0_1_2)">
<path d="M485 325H324V485H485V325Z" fill="#494440"/>
<path d="M370.088 402.581C369.465 402.065 364.35 400.664 360.099 399.692C360.066 402.873 360.267 406.331 360.701 406.933C361.323 407.45 366.441 408.851 370.693 409.824C370.725 406.643 370.525 403.184 370.088 402.581Z" fill="white"/>
<path fill-rule="evenodd" clip-rule="evenodd" d="M365.412 389C356.348 389 349 396.124 349 404.91C349 413.696 356.348 420.819 365.412 420.819C374.478 420.819 381.826 413.696 381.826 404.91C381.826 396.124 374.478 389 365.412 389ZM376.476 410.801C376.054 410.944 373.572 410.482 370.693 409.824C370.664 412.559 370.462 415.092 370.088 415.427C369.044 415.781 355.358 412.425 354.313 411.559C353.505 410.44 353.505 399.439 354.315 398.713C354.737 398.571 357.219 399.034 360.099 399.692C360.127 396.955 360.328 394.422 360.703 394.088C361.747 393.735 375.43 397.089 376.476 397.955C377.289 399.078 377.287 410.079 376.476 410.801Z" fill="white"/>
<path fill-rule="evenodd" clip-rule="evenodd" d="M402.343 403.431C402.343 397.983 405.516 395.894 409.514 395.894C413.512 395.894 416.684 397.983 416.684 403.431V406.226C416.684 411.673 413.512 413.763 409.514 413.763C405.516 413.763 402.343 411.673 402.343 406.226V403.431ZM409.514 410.241C411.549 410.241 412.517 409.043 412.517 406.226V403.431C412.517 400.614 411.549 399.417 409.514 399.417C407.48 399.417 406.535 400.614 406.535 403.431V406.226C406.535 409.043 407.48 410.241 409.514 410.241Z" fill="white"/>
<path d="M400.89 396.105H388.875C388.608 396.105 388.391 396.292 388.391 396.551V398.969C388.391 399.228 388.608 399.416 388.875 399.416H392.823V413.082C392.823 413.341 393.042 413.552 393.307 413.552H396.481C396.747 413.552 396.965 413.341 396.965 413.082V399.416H400.89C401.157 399.416 401.399 399.228 401.399 398.969V396.551C401.399 396.292 401.157 396.105 400.89 396.105Z" fill="white"/>
<path d="M418.113 396.105H430.128C430.394 396.105 430.637 396.292 430.637 396.551V398.969C430.637 399.228 430.394 399.416 430.128 399.416H426.203V413.082C426.203 413.341 425.986 413.552 425.719 413.552H422.546C422.28 413.552 422.062 413.341 422.062 413.082V399.416H418.113C417.847 399.416 417.628 399.228 417.628 398.969V396.551C417.628 396.292 417.847 396.105 418.113 396.105Z" fill="white"/>
<path d="M446.771 396.105H443.38C443.138 396.105 442.968 396.292 442.921 396.528L439.892 410.077C439.843 410.335 439.77 410.428 439.551 410.428C439.333 410.428 439.262 410.335 439.212 410.077L436.184 396.528C436.136 396.292 435.942 396.105 435.701 396.105H432.333C432.091 396.105 431.897 396.269 431.897 396.48C431.897 396.504 431.903 396.522 431.909 396.54C431.915 396.557 431.92 396.575 431.92 396.598L435.531 411.156C436.088 413.411 437.881 413.764 439.551 413.764C441.224 413.764 442.992 413.411 443.55 411.156L447.159 396.598C447.159 396.571 447.167 396.543 447.174 396.521C447.179 396.504 447.184 396.49 447.184 396.48C447.184 396.246 447.013 396.105 446.771 396.105Z" fill="white"/>
<path d="M454.231 402.233L457.331 403.854C459.852 405.168 460.602 406.719 460.602 408.62C460.602 411.11 458.907 413.763 453.991 413.763C452.077 413.763 450.647 413.551 449.411 413.247C449.169 413.176 448.927 413.035 448.927 412.777V410.476C448.927 410.147 449.12 410.03 449.363 410.03H449.437C450.428 410.123 453.093 410.311 454.038 410.311C455.709 410.311 456.194 409.795 456.194 408.668C456.194 407.986 455.853 407.611 454.596 406.883L451.253 404.958C449 403.667 448.395 402.187 448.395 400.473C448.395 397.889 449.894 395.894 454.596 395.894C456.363 395.894 458.81 396.176 459.73 396.41C459.923 396.457 460.094 396.575 460.094 396.833V399.205C460.094 399.417 459.997 399.604 459.682 399.604H459.634C459.566 399.599 459.477 399.593 459.37 399.585C458.405 399.517 455.98 399.346 454.498 399.346C453.117 399.346 452.609 399.745 452.609 400.589C452.609 401.247 452.923 401.552 454.231 402.233Z" fill="white"/>
<path d="M485 325H324V485H485V325Z" stroke="#DFE4E8"/>
<path d="M485 1H324V164H485V1Z" fill="white"/>
<path d="M388.838 76.2896C388.838 77.1559 388.931 77.8584 389.095 78.3735C389.282 78.8886 389.517 79.4505 389.844 80.0593C389.961 80.2466 390.008 80.4339 390.008 80.5978C390.008 80.832 389.868 81.0661 389.563 81.3003L388.088 82.2837C387.878 82.4242 387.667 82.4944 387.48 82.4944C387.245 82.4944 387.011 82.3773 386.777 82.1666C386.449 81.8154 386.168 81.4408 385.934 81.0661C385.7 80.6681 385.466 80.2232 385.208 79.6847C383.382 81.8388 381.087 82.9159 378.325 82.9159C376.358 82.9159 374.789 82.3539 373.642 81.23C372.494 80.1061 371.909 78.6076 371.909 76.7345C371.909 74.7443 372.611 73.1287 374.04 71.9111C375.468 70.6936 377.365 70.0848 379.776 70.0848C380.572 70.0848 381.392 70.155 382.258 70.2721C383.124 70.3892 384.014 70.5765 384.951 70.7872V69.078C384.951 67.2985 384.576 66.0575 383.85 65.3317C383.101 64.6058 381.837 64.2546 380.034 64.2546C379.214 64.2546 378.371 64.3483 377.505 64.559C376.639 64.7697 375.796 65.0273 374.976 65.3551C374.602 65.519 374.321 65.6127 374.157 65.6595C373.993 65.7063 373.876 65.7297 373.782 65.7297C373.454 65.7297 373.29 65.4956 373.29 65.0039V63.8566C373.29 63.482 373.337 63.201 373.454 63.0371C373.571 62.8732 373.782 62.7093 374.11 62.5454C374.929 62.1239 375.913 61.7727 377.06 61.4917C378.207 61.1874 379.425 61.0469 380.713 61.0469C383.499 61.0469 385.536 61.6791 386.847 62.9434C388.135 64.2078 388.791 66.1278 388.791 68.7034V76.2896H388.838ZM379.331 79.8486C380.104 79.8486 380.9 79.7081 381.743 79.4271C382.586 79.1461 383.335 78.631 383.967 77.9286C384.342 77.4837 384.623 76.992 384.763 76.4301C384.904 75.8681 384.998 75.1891 384.998 74.393V73.4096C384.319 73.2457 383.593 73.1052 382.843 73.0116C382.094 72.9179 381.368 72.8711 380.643 72.8711C379.074 72.8711 377.926 73.1755 377.154 73.8077C376.381 74.4399 376.006 75.3296 376.006 76.5003C376.006 77.6008 376.287 78.4203 376.873 78.9822C377.435 79.5676 378.254 79.8486 379.331 79.8486ZM398.133 82.3773C397.712 82.3773 397.431 82.3071 397.243 82.1432C397.056 82.0027 396.892 81.6749 396.752 81.23L391.249 63.1307C391.109 62.6625 391.039 62.3581 391.039 62.1942C391.039 61.8195 391.226 61.6088 391.6 61.6088H393.895C394.34 61.6088 394.644 61.6791 394.808 61.843C394.996 61.9834 395.136 62.3112 395.277 62.7561L399.21 78.2564L402.863 62.7561C402.98 62.2878 403.12 61.9834 403.308 61.843C403.495 61.7025 403.823 61.6088 404.244 61.6088H406.117C406.562 61.6088 406.867 61.6791 407.054 61.843C407.241 61.9834 407.405 62.3112 407.499 62.7561L411.198 78.4437L415.249 62.7561C415.389 62.2878 415.553 61.9834 415.717 61.843C415.905 61.7025 416.209 61.6088 416.63 61.6088H418.808C419.183 61.6088 419.393 61.7961 419.393 62.1942C419.393 62.3112 419.37 62.4283 419.346 62.5688C419.323 62.7093 419.276 62.8966 419.183 63.1542L413.54 81.2534C413.399 81.7217 413.235 82.0261 413.048 82.1666C412.861 82.3071 412.556 82.4007 412.158 82.4007H410.145C409.7 82.4007 409.395 82.3305 409.208 82.1666C409.021 82.0027 408.857 81.6983 408.763 81.23L405.134 66.1278L401.528 81.2066C401.411 81.6749 401.271 81.9793 401.083 82.1432C400.896 82.3071 400.568 82.3773 400.147 82.3773H398.133ZM428.221 83.0095C427.003 83.0095 425.785 82.869 424.615 82.5881C423.444 82.3071 422.531 82.0027 421.922 81.6515C421.547 81.4408 421.29 81.2066 421.196 80.9959C421.103 80.7851 421.056 80.551 421.056 80.3403V79.1461C421.056 78.6544 421.243 78.4203 421.594 78.4203C421.735 78.4203 421.875 78.4437 422.016 78.4905C422.156 78.5374 422.367 78.631 422.601 78.7247C423.397 79.0759 424.264 79.3569 425.177 79.5442C426.113 79.7315 427.026 79.8252 427.963 79.8252C429.438 79.8252 430.585 79.5676 431.381 79.0525C432.178 78.5374 432.599 77.7881 432.599 76.8281C432.599 76.1725 432.388 75.634 431.967 75.1891C431.545 74.7443 430.749 74.3462 429.602 73.9716L426.207 72.9179C424.498 72.3794 423.233 71.5833 422.461 70.5297C421.688 69.4994 421.29 68.3521 421.29 67.1346C421.29 66.1512 421.501 65.2849 421.922 64.5356C422.344 63.7863 422.905 63.1307 423.608 62.6156C424.31 62.0771 425.106 61.6791 426.043 61.3981C426.98 61.1171 427.963 61 428.993 61C429.508 61 430.047 61.0234 430.562 61.0937C431.101 61.1639 431.592 61.2576 432.084 61.3513C432.552 61.4683 432.997 61.5854 433.419 61.7259C433.84 61.8664 434.168 62.0069 434.402 62.1473C434.73 62.3347 434.964 62.522 435.104 62.7327C435.245 62.92 435.315 63.1776 435.315 63.5054V64.6058C435.315 65.0975 435.128 65.3551 434.777 65.3551C434.589 65.3551 434.285 65.2614 433.887 65.0741C432.552 64.4654 431.054 64.161 429.391 64.161C428.057 64.161 427.003 64.3717 426.277 64.8166C425.551 65.2614 425.177 65.9405 425.177 66.9004C425.177 67.556 425.411 68.118 425.879 68.5629C426.347 69.0077 427.214 69.4526 428.455 69.8507L431.78 70.9043C433.465 71.4428 434.683 72.1921 435.409 73.1521C436.135 74.1121 436.486 75.2125 436.486 76.4301C436.486 77.4369 436.275 78.3501 435.877 79.1461C435.456 79.9422 434.894 80.6447 434.168 81.2066C433.442 81.792 432.576 82.2134 431.569 82.5178C430.515 82.8456 429.415 83.0095 428.221 83.0095Z" fill="#252F3E"/>
<path fill-rule="evenodd" clip-rule="evenodd" d="M432.647 94.388C424.944 100.078 413.752 103.098 404.129 103.098C390.642 103.098 378.49 98.111 369.312 89.8225C368.586 89.1669 369.241 88.2772 370.108 88.7923C380.035 94.552 392.281 98.041 404.948 98.041C413.495 98.041 422.884 96.261 431.524 92.6088C432.811 92.0235 433.912 93.452 432.647 94.388Z" fill="#FF9900"/>
<path fill-rule="evenodd" clip-rule="evenodd" d="M435.853 90.7363C434.869 89.4719 429.344 90.1275 426.838 90.4319C426.089 90.5256 425.972 89.87 426.651 89.3783C431.053 86.2876 438.288 87.1773 439.131 88.2075C439.974 89.2612 438.897 96.496 434.776 99.962C434.144 100.5 433.535 100.219 433.816 99.517C434.752 97.199 436.836 91.9772 435.853 90.7363Z" fill="#FF9900"/>
<path d="M485 1H324V164H485V1Z" stroke="#DFE4E8"/>
<path d="M324 164H163V325H324V164Z" fill="#31BEF0"/>
<path d="M239.663 231.167C239.663 232.427 239.243 233.408 238.403 234.247C237.142 235.508 235.041 235.788 233.641 234.808L219.636 226.685C219.566 226.685 219.531 226.65 219.495 226.615C219.461 226.58 219.426 226.545 219.356 226.545C217.395 225.425 216.835 222.904 218.096 220.943C219.216 218.982 221.737 218.423 223.697 219.682L231.54 224.305V215.061C231.54 212.82 233.361 211 235.602 211C237.843 211 239.663 212.82 239.663 215.061V231.167Z" fill="white"/>
<path d="M230.279 240.409C231.68 241.11 232.38 242.51 232.38 244.051C232.38 245.591 231.68 246.992 230.42 247.692L216.414 255.815H216.134C214.034 256.935 211.653 256.235 210.533 254.135C209.412 252.034 210.253 249.653 212.213 248.533L220.196 243.911L212.213 239.289C212.123 239.289 212.091 239.231 212.042 239.189C212.015 239.167 211.983 239.149 211.933 239.149C209.973 238.028 209.412 235.508 210.673 233.547C211.793 231.586 214.314 231.026 216.275 232.286L230.279 240.409Z" fill="white"/>
<path d="M239.663 273.041V256.795C239.803 256.235 239.523 255.535 239.243 255.115C238.123 253.014 235.462 252.314 233.501 253.434L219.495 261.557C219.425 261.557 219.39 261.592 219.355 261.627C219.32 261.662 219.285 261.697 219.216 261.697C217.255 262.818 216.695 265.339 217.956 267.299C219.076 269.26 221.597 269.82 223.557 268.56L231.54 263.938V273.041C231.54 275.282 233.361 277.102 235.602 277.102C237.843 277.102 239.663 275.282 239.663 273.041Z" fill="white"/>
<path d="M246.946 273.041V257.216C246.805 256.515 247.086 255.535 247.365 254.835C248.486 252.874 251.007 252.173 252.968 253.294L266.973 261.417C267.112 261.417 267.112 261.557 267.252 261.557C269.213 262.677 269.774 265.198 268.513 267.159C267.392 269.12 264.871 269.679 262.91 268.419L255.068 263.938V273.041C255.068 275.282 253.248 277.102 251.007 277.102C248.766 277.102 246.946 275.282 246.946 273.041Z" fill="white"/>
<path d="M256.329 240.409C254.928 241.11 254.228 242.51 254.228 244.051C254.088 245.591 254.928 246.992 256.189 247.551L270.194 255.674C270.334 255.674 270.334 255.814 270.473 255.814C272.574 256.935 274.955 256.095 276.076 254.135C277.196 252.033 276.356 249.652 274.396 248.532L266.412 243.911L274.396 239.289C274.468 239.289 274.503 239.251 274.539 239.215C274.573 239.181 274.608 239.149 274.675 239.149C276.636 238.028 277.196 235.508 275.936 233.547C274.816 231.586 272.294 231.026 270.334 232.286L256.329 240.409Z" fill="white"/>
<path d="M246.946 215.061V230.886C246.805 231.726 247.086 232.567 247.365 233.267C248.486 235.228 251.007 235.928 252.968 234.807L266.973 226.684C267.042 226.684 267.077 226.65 267.112 226.615C267.147 226.58 267.182 226.545 267.252 226.545C269.213 225.425 269.774 222.904 268.513 220.943C267.392 218.982 264.871 218.422 262.91 219.682L255.068 224.164V215.061C255.068 212.82 253.248 211 251.007 211C248.766 211 246.946 212.82 246.946 215.061Z" fill="white"/>
<path fill-rule="evenodd" clip-rule="evenodd" d="M244.705 236.539C244.801 236.6 244.893 236.677 244.985 236.768L250.447 242.37C250.727 242.65 250.867 242.93 250.867 243.35V244.751C250.867 245.031 250.727 245.451 250.587 245.731L244.985 251.333C244.837 251.481 244.688 251.59 244.52 251.66C244.37 251.722 244.203 251.753 244.005 251.753H242.604C242.184 251.753 241.904 251.613 241.624 251.333L236.021 245.731C235.742 245.451 235.602 245.172 235.602 244.751V243.35C235.602 242.93 235.742 242.65 236.021 242.37L241.624 236.768C241.802 236.59 241.98 236.469 242.194 236.404C242.316 236.367 242.451 236.348 242.604 236.348H244.005C244.287 236.348 244.506 236.412 244.705 236.539ZM243.934 241.576C243.794 241.435 243.514 241.295 243.234 241.295C243.033 241.295 242.832 241.367 242.684 241.459C242.625 241.496 242.574 241.536 242.534 241.576L240.853 243.256C240.713 243.396 240.573 243.677 240.573 243.956C240.573 244.237 240.713 244.517 240.853 244.657L242.534 246.337C242.598 246.401 242.691 246.465 242.8 246.516C242.93 246.576 243.082 246.618 243.234 246.618C243.514 246.618 243.794 246.477 243.934 246.337L245.615 244.657C245.735 244.536 245.856 244.313 245.888 244.074C245.893 244.035 245.895 243.996 245.895 243.956C245.895 243.802 245.852 243.647 245.79 243.516C245.741 243.409 245.678 243.318 245.615 243.256L243.934 241.576Z" fill="white"/>
<path d="M324 164H163V325H324V164Z" stroke="#DFE4E8"/>
<path d="M645 164H485V325H645V164Z" fill="white"/>
<path fill-rule="evenodd" clip-rule="evenodd" d="M545.782 253.876C543.667 254.835 539.538 256.97 539.927 259.29C540.469 260.719 542.144 259.29 542.77 258.617C544.121 257.316 545.151 255.722 545.782 253.96V253.876ZM558.44 248.849C557.035 252.498 552.94 254.229 551.806 253.607C551.231 253.305 551.806 252.145 551.806 251.354C550.977 251.674 549.607 252.279 548.777 252.615C550.651 254.213 551.73 256.543 551.73 258.996C551.73 261.448 550.651 263.779 548.777 265.376C552.162 270.419 550.47 274.757 545.748 278.136L545.562 278.254L545.461 277.917C544.874 275.587 543.763 273.42 542.212 271.579C541.383 270.621 540.435 269.747 539.504 268.873C538.286 267.729 537.101 266.552 536.001 265.308C531.348 260.467 529.504 251.943 530.113 245.353C530.441 241.968 531.441 238.682 533.057 235.686C534.335 233.295 535.929 231.084 537.795 229.112C541.98 224.652 547.273 221.365 553.143 219.58C558.299 217.811 563.943 218.072 568.914 220.303C569.83 220.785 570.703 221.348 571.52 221.984L572.722 223.11L572.857 223.245L595.481 211.729C597.343 210.804 598.747 210.804 599.373 211.476C599.999 212.149 599.12 213.881 597.8 214.839L578.34 228.81C578.571 230.143 578.172 231.506 577.257 232.508C579.846 233.399 577.561 237.165 576.428 238.51C573.179 242.326 567.239 245.319 561.942 247.505C560.521 248.11 559.709 248.362 558.44 248.833V248.849Z" fill="#383C42"/>
<path fill-rule="evenodd" clip-rule="evenodd" d="M576.193 235.652C577.648 233.837 576.633 232.794 575.617 233.803C573.558 235.753 570.683 236.604 567.884 236.09C563.907 235.434 563.721 234.829 564.398 234.24C569.014 235.784 574.101 234.069 576.819 230.054C577.8 228.659 574.517 227.549 572.588 225.01C563.315 212.502 534.277 223.346 531.502 245.084C530.589 251.869 532.597 258.725 537.036 263.964C540.42 267.778 544.109 269.377 546.19 275.379C550.252 271.916 549.575 267.999 546.647 264.569C548.776 263.496 550.177 261.388 550.338 259.021C550.497 256.656 549.392 254.383 547.426 253.036C545.733 259.105 539.794 263.594 538.406 259.29C537.509 254.902 544.786 251.994 556.428 247.522C566.175 243.89 572.47 240.898 576.193 235.552" fill="#31D3DB"/>
<path fill-rule="evenodd" clip-rule="evenodd" d="M576.189 235.652C577.644 233.837 576.629 232.794 575.614 233.803C573.827 235.516 571.392 236.397 568.913 236.224C564.902 235.938 561.704 235.148 558.759 235.467C553.292 236.281 548.234 238.828 544.342 242.73C539.266 247.908 533.648 258.666 539.266 260.753C538.837 260.376 538.552 259.865 538.453 259.307C537.557 254.919 544.833 252.009 556.475 247.538C566.222 243.907 572.517 240.915 576.24 235.568" fill="white"/>
<path fill-rule="evenodd" clip-rule="evenodd" d="M551.228 244.142C554.224 245.605 553.631 250.716 553.191 251.993C558.877 250.312 557.185 242.024 559.825 239.468C556.44 239.368 550.315 242.679 551.228 244.142Z" fill="#31D3DB"/>
<path fill-rule="evenodd" clip-rule="evenodd" d="M560.843 228.978C561.369 228.525 562.119 228.438 562.735 228.759C563.35 229.078 563.708 229.741 563.633 230.427C563.559 231.114 563.07 231.686 562.399 231.869C561.638 232.078 560.831 231.735 560.459 231.042C560.086 230.348 560.245 229.492 560.843 228.978Z" fill="#383C42"/>
<path fill-rule="evenodd" clip-rule="evenodd" d="M574.649 229.667L597.477 213.881C598.12 213.427 598.966 212.452 598.611 211.981C598.255 211.51 597.274 211.762 596.428 212.149L571.756 225.397C570.961 227.078 572.568 230.525 574.666 229.667" fill="#31D3DB"/>
<path fill-rule="evenodd" clip-rule="evenodd" d="M572.654 226.557L596.496 212.687C597.112 212.27 597.833 212.036 598.578 212.014C598.222 211.611 597.241 211.846 596.429 212.233L571.757 225.397C571.259 226.979 571.874 228.699 573.263 229.617C572.754 228.675 572.54 227.604 572.654 226.54" fill="white"/>
<path fill-rule="evenodd" clip-rule="evenodd" d="M537.526 232.744C537.878 232.668 538.244 232.762 538.513 232.998C538.785 233.233 538.926 233.581 538.897 233.938C538.907 234.77 538.303 235.484 537.475 235.619C537.13 235.686 536.771 235.592 536.506 235.362C536.242 235.131 536.098 234.792 536.122 234.442C536.149 233.628 536.726 232.937 537.526 232.761" fill="#21AAAD"/>
<path fill-rule="evenodd" clip-rule="evenodd" d="M542.145 227.683C542.455 227.617 542.778 227.703 543.015 227.912C543.252 228.12 543.375 228.428 543.346 228.742C543.291 229.455 542.788 230.055 542.094 230.238C541.784 230.304 541.461 230.218 541.224 230.01C540.987 229.801 540.864 229.494 540.893 229.179C540.947 228.466 541.449 227.866 542.145 227.683Z" fill="#21AAAD"/>
<path fill-rule="evenodd" clip-rule="evenodd" d="M556.157 220.976C556.47 220.987 556.757 221.144 556.937 221.396C557.116 221.651 557.167 221.974 557.07 222.27C556.879 222.958 556.248 223.432 555.53 223.43C555.214 223.422 554.921 223.269 554.735 223.015C554.549 222.761 554.493 222.437 554.583 222.136C554.776 221.441 555.415 220.965 556.14 220.976" fill="#21AAAD"/>
<path fill-rule="evenodd" clip-rule="evenodd" d="M560.454 220.286C560.717 220.328 560.945 220.493 561.069 220.726C561.192 220.962 561.195 221.241 561.08 221.48C560.825 222.023 560.238 222.33 559.642 222.236C559.393 222.189 559.178 222.034 559.057 221.812C558.935 221.591 558.919 221.327 559.016 221.093C559.256 220.531 559.847 220.2 560.454 220.286Z" fill="#21AAAD"/>
<path fill-rule="evenodd" clip-rule="evenodd" d="M542.193 230.861C542.425 230.812 542.665 230.874 542.843 231.031C543.019 231.187 543.11 231.417 543.09 231.651C543.076 232.187 542.689 232.641 542.159 232.744C541.931 232.791 541.694 232.73 541.518 232.579C541.342 232.426 541.247 232.201 541.262 231.97C541.286 231.434 541.667 230.98 542.193 230.861Z" fill="#21AAAD"/>
<path fill-rule="evenodd" clip-rule="evenodd" d="M534.988 236.812C535.227 236.757 535.477 236.819 535.66 236.979C535.844 237.138 535.941 237.377 535.919 237.619C535.9 238.176 535.502 238.646 534.954 238.762C534.705 238.811 534.448 238.741 534.262 238.571C534.074 238.403 533.979 238.156 534.006 237.905C534.027 237.344 534.433 236.871 534.988 236.762" fill="#21AAAD"/>
<path fill-rule="evenodd" clip-rule="evenodd" d="M577.661 222.236L576.595 222.774C576.72 224.298 577.559 225.675 578.862 226.49C578.038 225.226 577.62 223.743 577.661 222.236ZM583.262 219.177L582.331 219.681C582.473 220.942 583.174 222.077 584.243 222.774C583.639 221.672 583.331 220.433 583.346 219.177H583.262ZM588.88 216.151L588.169 216.537C588.169 217.445 588.829 218.807 589.574 218.992C589.088 218.126 588.876 217.136 588.964 216.151H588.88ZM594.295 213.259L593.669 213.595C593.821 214.337 594.22 215.006 594.802 215.495C594.479 214.792 594.307 214.031 594.295 213.259Z" fill="#21AAAD"/>
<path d="M645 164H485V325H645V164Z" stroke="#DFE4E8"/>
<path d="M163 1H1V164H163V1Z" fill="white"/>
<mask id="mask0_1_2" style="mask-type:luminance" maskUnits="userSpaceOnUse" x="26" y="63" width="112" height="39">
<path d="M138 63H26V101.5H138V63Z" fill="white"/>
</mask>
<g mask="url(#mask0_1_2)">
<path d="M73.6614 82.7438C73.6614 88.0878 69.5479 92.0252 64.4997 92.0252C59.4514 92.0252 55.3379 88.0878 55.3379 82.7438C55.3379 77.3622 59.4514 73.462 64.4997 73.462C69.5479 73.462 73.6614 77.3622 73.6614 82.7438ZM69.6508 82.7438C69.6508 79.4044 67.2667 77.1195 64.4997 77.1195C61.7326 77.1195 59.3485 79.4044 59.3485 82.7438C59.3485 86.0498 61.7326 88.3682 64.4997 88.3682C67.2667 88.3682 69.6508 86.0456 69.6508 82.7438Z" fill="#EA4335"/>
<path d="M93.426 82.7438C93.426 88.0878 89.3125 92.0252 84.2643 92.0252C79.2161 92.0252 75.1025 88.0878 75.1025 82.7438C75.1025 77.3664 79.2161 73.462 84.2643 73.462C89.3125 73.462 93.426 77.3622 93.426 82.7438ZM89.4155 82.7438C89.4155 79.4044 87.0314 77.1195 84.2643 77.1195C81.4972 77.1195 79.1131 79.4044 79.1131 82.7438C79.1131 86.0498 81.4972 88.3682 84.2643 88.3682C87.0314 88.3682 89.4155 86.0456 89.4155 82.7438Z" fill="#FBBC05"/>
<path d="M112.368 74.0227V90.6866C112.368 97.5412 108.39 100.341 103.688 100.341C99.261 100.341 96.597 97.3322 95.592 94.8712L99.084 93.3942C99.706 94.9052 101.229 96.6872 103.683 96.6872C106.693 96.6872 108.559 94.8002 108.559 91.2473V89.9124H108.419C107.521 91.0381 105.792 92.0212 103.609 92.0212C99.043 92.0212 94.859 87.979 94.859 82.7773C94.859 77.538 99.043 73.462 103.609 73.462C105.788 73.462 107.517 74.4454 108.419 75.5376H108.559V74.0269H112.368V74.0227ZM108.843 82.7773C108.843 79.509 106.698 77.1195 103.968 77.1195C101.201 77.1195 98.882 79.509 98.882 82.7773C98.882 86.0122 101.201 88.3682 103.968 88.3682C106.698 88.3682 108.843 86.0122 108.843 82.7773Z" fill="#4285F4"/>
<path d="M118.647 64.2555V91.4562H114.735V64.2555H118.647Z" fill="#34A853"/>
<path d="M133.89 85.7987L137.003 87.9079C135.999 89.4186 133.578 92.0212 129.394 92.0212C124.206 92.0212 120.331 87.9455 120.331 82.7397C120.331 77.2199 124.239 73.4578 128.945 73.4578C133.685 73.4578 136.003 77.2911 136.76 79.3625L137.176 80.4171L124.968 85.556C125.902 87.4182 127.356 88.3682 129.394 88.3682C131.436 88.3682 132.853 87.3471 133.89 85.7987ZM124.309 82.4593L132.47 79.0152C132.021 77.856 130.67 77.0484 129.081 77.0484C127.043 77.0484 124.206 78.8771 124.309 82.4593Z" fill="#EA4335"/>
<path d="M40.5314 80.3292V76.3913H53.5884C53.7161 77.0777 53.782 77.8895 53.782 78.7683C53.782 81.7228 52.9873 85.3761 50.4261 87.979C47.9349 90.6154 44.752 92.0212 40.5355 92.0212C32.7202 92.0212 26.1484 85.5518 26.1484 77.6091C26.1484 69.6664 32.7202 63.1967 40.5355 63.1967C44.859 63.1967 47.939 64.9209 50.2531 67.1681L47.519 69.9468C45.8596 68.3649 43.6114 67.1346 40.5314 67.1346C34.8243 67.1346 30.3608 71.809 30.3608 77.6091C30.3608 83.4092 34.8243 88.0836 40.5314 88.0836C44.2331 88.0836 46.3414 86.5729 47.692 85.2003C48.7873 84.0872 49.5079 82.4969 49.792 80.325L40.5314 80.3292Z" fill="#4285F4"/>
</g>
<path d="M163 1H1V164H163V1Z" stroke="#DFE4E8"/>
</g>
<defs>
<clipPath id="clip0_1_2">
<rect width="646" height="486" fill="white"/>
</clipPath>
</defs>
</svg>
