<svg width="963" height="535" viewBox="0 0 963 535" fill="none" xmlns="http://www.w3.org/2000/svg">
<path d="M-596.136 31.228C-565.138 68.7122 -553.553 154.009 -558.488 194.834C-559.32 205.173 -561.314 215.405 -564.422 225.295C-566.136 230.836 -568.177 236.261 -570.532 241.531C-573.25 247.913 -576.298 254.129 -579.66 260.147C-587.72 273.787 -597.611 286.041 -608.977 296.47C-617.837 304.728 -627.081 312.613 -636.101 320.559C-642.97 326.691 -649.615 332.885 -653.6 340.881C-659.802 352.813 -659.847 365.103 -652.101 377.935C-649.395 382.553 -645.816 386.455 -641.596 389.387C-637.302 392.316 -632.464 394.196 -627.396 394.903C-617.004 395.875 -606.469 394.792 -596.286 391.703C-576.27 386.785 -556.351 381.305 -535.439 378.506C-518.386 376.308 -501.238 376.012 -484.258 377.624C-471.617 378.832 -459.168 381.454 -447.1 385.451C-436.85 388.939 -426.885 393.293 -417.291 398.475C-404.257 405.837 -391.948 414.601 -380.538 424.645C-371.728 432.421 -363.206 440.384 -354.974 448.536C-340.142 462.784 -325.181 476.533 -308.776 489.342C-295.736 499.353 -282.182 509.237 -269.495 519.685C-257.65 529.357 -246.806 540.412 -237.142 552.667C-224.396 568.48 -214.345 585.423 -202.979 601.927C-196.865 611.249 -189.517 619.489 -181.168 626.388C-174.951 631.356 -167.844 634.86 -160.271 636.69C-151.097 638.678 -141.582 638.568 -132.307 636.368C-120.057 633.433 -108.07 629.116 -96.5375 623.486C-89.7036 620.287 -82.8055 616.837 -76.1315 613.326C-60.5376 605.051 -45.1678 596.713 -29.7983 588.376C-21.3915 583.737 -12.7606 579.161 -4.41817 574.772C12.2666 565.994 28.9517 557.217 45.7965 548.751C65.625 538.967 85.9337 530.118 105.538 520.272C122.75 511.692 138.885 500.564 153.483 487.207C166.429 475.303 178.131 461.832 188.352 447.064C193.675 439.658 198.046 431.497 201.334 422.824C203.385 417.811 205.116 412.657 206.514 407.4C208.336 399.131 208.984 390.646 208.433 382.253C207.109 361.294 200.204 341.473 189.995 322.347C183.572 309.737 175.151 298.547 165.115 289.283C157.849 282.817 149.441 278.047 140.374 275.248C129.02 272.077 117.204 270.991 105.391 272.032C90.7032 273.069 76.399 274.478 61.8064 276.076C44.4877 277.992 27.0406 280.408 9.43517 280.641C0.887336 280.802 -7.63045 280.156 -16.0247 278.711C-33.5949 276.011 -48.6263 268.127 -62.5002 257.62C-78.8117 245.173 -94.2104 231.366 -108.568 216.314C-118.95 205.847 -128.655 194.596 -137.618 182.637C-149.537 166.94 -159.419 149.465 -166.999 130.683C-170.261 122.83 -172.722 114.664 -175.631 106.374C-176.096 105.219 -176.71 104.149 -177.455 103.197" stroke="#DFE4E8" stroke-width="1.25" stroke-linecap="round" stroke-linejoin="round"/>
<path d="M-532.788 917.086C-535.506 909.918 -538.064 903.062 -540.846 896.144C-547.051 881.063 -553.031 866.043 -559.749 851.087C-566.097 837.044 -574.032 823.988 -583.373 812.219C-592.403 800.638 -601.723 789.245 -610.464 777.477C-623.946 759.856 -634.154 740.73 -638.878 719.904C-641.475 708.71 -642.447 697.071 -641.758 685.412C-641.397 676.925 -640.106 668.479 -637.915 660.259C-637.142 657.263 -637.107 654.33 -636.109 651.396C-633.759 643.217 -631.185 635.1 -628.547 626.733C-626.423 620.364 -624.235 613.745 -622.336 607.314C-619.376 597.699 -616.639 588.022 -614.063 578.033C-612.548 571.229 -611.707 564.239 -610.641 557.311C-609.833 551.383 -608.801 545.515 -608.057 539.836C-607.442 534.656 -607.051 529.415 -606.501 524.485C-605.984 520.615 -605.915 516.623 -605.173 512.815C-603.985 504.799 -602.338 496.855 -600.241 489.032C-593.578 465.994 -580.025 446.993 -558.108 433.772C-544.568 425.592 -529.821 420.301 -514.671 418.188C-504.115 416.551 -493.452 416.692 -483.053 418.605C-477.659 419.334 -472.326 420.446 -467.087 421.932C-454.673 425.846 -442.923 431.786 -432.216 439.56C-415.554 451.37 -402.615 466.435 -389.676 481.499C-376.737 496.563 -363.767 512.438 -347.233 524.748C-339.992 530.219 -332.237 535.565 -324.643 540.598C-310.062 550.231 -295.353 559.363 -282.121 570.496C-272.348 578.565 -263.453 587.831 -255.599 598.128C-247.562 608.9 -239.942 620.359 -231.905 631.132C-224.252 641.53 -216.823 651.868 -206.347 660.637C-198.423 667.437 -189.28 672.359 -179.46 675.109C-169.64 677.86 -159.344 678.383 -149.187 676.647C-140.604 675.127 -132.126 672.809 -123.847 669.719C-116.098 667.029 -108.508 663.757 -101.132 659.927C-90.8964 654.723 -81.27 649.083 -71.1947 643.566C-67.5689 641.623 -64.1674 639.618 -60.6061 637.924C-38.9802 626.763 -17.5144 615.29 4.43146 604.752C22.1702 596.033 40.3812 588.628 58.9389 582.588C80.143 575.858 101.507 569.439 122.486 562.646C141.969 556.382 160.192 545.729 175.978 531.376C187.983 520.24 199.06 508.046 209.848 496.039C222.626 481.907 235.34 468.024 247.67 453.767C252.719 448.053 256.986 441.564 260.325 434.519C265.235 424.045 266.69 412.131 264.435 400.882C261.569 385.265 257.088 370.123 251.079 355.747C242.957 335.056 234.834 314.364 226.198 293.799C220.824 281.086 214.938 268.499 208.538 256.038C202.903 244.939 195.257 235.285 186.057 227.647C180.609 223.205 174.503 219.807 167.982 217.588C155.252 213.315 141.699 212.326 128.349 214.696C110.388 217.238 92.5877 220.091 74.5626 222.883C56.8289 225.492 38.9639 226.04 21.2641 224.519C8.56818 223.158 -3.90243 220.261 -15.9249 215.881C-30.2279 210.834 -43.7201 203.515 -55.986 194.149C-67.4566 185.78 -78.0927 176.13 -87.7339 165.346C-99.1953 152.439 -109.012 137.866 -116.933 122C-117.606 120.889 -118.39 119.866 -119.27 118.949" stroke="#DFE4E8" stroke-width="1.25" stroke-linecap="round" stroke-linejoin="round"/>
<path d="M-568.852 906.88C-574.237 887.84 -581.541 869.593 -590.631 852.473C-597.054 840.791 -604.436 829.807 -612.69 819.652C-620.696 809.69 -628.125 799.353 -635.907 789.454C-645.621 776.793 -653.705 762.693 -659.944 747.529C-666.574 731.754 -670.229 714.562 -670.695 696.961C-670.718 688.663 -670.741 680.366 -670.316 672.192C-669.861 666.701 -668.508 661.457 -667.605 656.089C-666.798 652.032 -666.152 647.663 -665.122 643.667C-663.641 637.924 -661.935 632.242 -660.005 626.622C-658.234 620.691 -656.175 614.572 -653.956 608.764C-649.762 597.31 -646.33 585.561 -643.688 573.613C-642.238 567.059 -641.461 560.319 -640.46 553.641C-637.973 537.476 -638.757 520.945 -638.867 504.6C-639.115 496.241 -639.137 487.943 -638.647 479.52C-638.114 466.035 -632.885 453.105 -624.049 443.422C-614.975 433.952 -604.8 425.863 -593.815 419.386C-578.577 409.953 -562.276 402.915 -545.402 398.486C-525.194 392.548 -504.286 390.864 -483.795 393.522C-477.991 394.318 -472.188 395.114 -466.289 396.471C-460.287 397.723 -454.369 399.353 -448.561 401.354C-440.668 404.589 -432.964 408.318 -425.484 412.524C-410.726 420.992 -397.146 431.659 -385.113 444.237L-350.903 479.334C-338.768 491.535 -325.694 502.561 -311.816 512.298C-299.255 521.374 -286.246 530.574 -274.263 540.026C-261.602 550.004 -250.27 561.85 -240.566 575.25C-232.273 586.895 -224.269 598.728 -216.2 610.311C-210.294 619.266 -203.684 627.619 -196.442 635.277C-187.848 644.061 -177.228 650.121 -165.644 652.853C-159.654 654.191 -153.471 654.449 -147.334 653.616C-134.191 652.343 -121.264 648.574 -109.129 642.475C-100.113 638.271 -91.162 634.318 -82.5308 629.741C-68.3809 622.405 -54.5511 614.446 -40.5612 606.798C-36.6466 604.667 -32.4434 602.348 -28.3044 600.278C-21.6305 596.767 -14.9566 593.256 -8.34713 589.995C1.37495 584.916 11.1619 579.588 21.2684 574.883C36.0271 567.982 51.1702 561.454 66.0889 554.865C77.4462 549.969 88.9632 545.385 100.161 540.177C109.401 536.036 118.641 531.894 127.561 527.13C140.148 520.314 151.957 511.793 162.703 501.772C169.99 494.953 177.052 488.072 183.794 480.568C196.472 467.127 207.628 452.049 217.001 435.687C222.186 426.253 225.825 415.932 227.745 405.214C229.453 393.796 229.007 382.199 226.435 371.154C223.239 355.878 218.602 341.067 212.598 326.957C207.461 314.948 201.725 303.279 195.416 292.002C190.063 282.5 183.559 273.873 176.074 266.349C168.942 259.191 160.261 254.137 150.789 251.628C138.499 248.294 125.677 247.482 112.952 249.231C99.899 250.45 86.9418 252.231 74.0489 253.762C58.2469 255.937 42.3771 257.103 26.5203 257.254C15.85 257.338 5.22306 256.469 -5.25611 254.654C-14.7097 252.806 -23.975 250.075 -32.9536 246.49C-50.5509 239.237 -65.5467 228.42 -79.8362 216.728C-95.1999 204.222 -109.226 189.867 -121.67 173.914C-132.689 159.871 -141.904 144.201 -149.07 127.319C-151.341 122.147 -153.323 116.787 -155.53 111.365C-155.942 110.653 -156.414 109.986 -156.939 109.372" stroke="#DFE4E8" stroke-width="1.25" stroke-linecap="round" stroke-linejoin="round"/>
<path d="M-548.209 912.568C-553.74 897.671 -559.336 883.025 -565.092 868.067C-572.091 850.717 -581.174 834.546 -592.105 819.974C-599.918 809.263 -608.822 799.055 -616.923 788.532C-629.38 772.531 -640.009 755.964 -646.563 737.576C-654.655 714.523 -656.453 689.141 -651.742 664.471C-649.712 655.67 -647.971 647.055 -645.493 638.377C-643.818 631.885 -641.535 625.827 -639.411 619.458C-637.417 613.588 -635.262 608.03 -633.716 602.037C-630.562 591.673 -627.633 581.246 -624.992 571.008C-623.724 564.989 -622.796 558.902 -622.214 552.783C-621.213 546.105 -620.436 539.365 -619.659 532.626C-619.14 526.885 -618.781 520.832 -618.037 515.153C-617.293 509.474 -616.998 503.671 -616.03 498.053C-614.869 491.687 -613.419 485.133 -611.808 478.89C-608.481 467.199 -602.583 456.503 -594.65 447.776C-583.958 435.208 -569.966 425.689 -554.405 418.474C-538.943 411.403 -522.534 407.49 -506.002 406.932C-496.322 406.598 -486.666 407.2 -477.143 408.729C-458.26 412.114 -440.355 419.777 -424.545 431.239C-408.715 442.552 -396.128 456.182 -383.604 470.062C-373.867 480.768 -364.13 491.473 -354.04 501.741C-343.55 511.847 -332.178 520.799 -320.077 528.48C-306.554 537.553 -292.903 546.127 -280.44 556.514C-268.684 566.036 -258.069 577.131 -248.825 589.559C-242.261 598.589 -235.985 607.806 -229.486 617.085C-221.897 627.733 -214.598 638.57 -205.052 648.153C-198 655.34 -189.631 660.802 -180.462 664.202C-171.293 667.601 -161.519 668.865 -151.745 667.916C-139.45 666.545 -127.337 663.214 -115.786 658.028C-108.952 654.828 -101.798 652.252 -95.124 648.741C-81.5518 641.781 -68.2999 634.197 -55.1121 626.864L-43.6569 620.658C-22.8975 610.06 -2.58691 599.339 18.4925 589.365C40.1351 579.218 62.231 570.392 84.677 562.928C103.155 556.517 121.409 550.043 138.382 541.078C150.04 534.864 161.004 527.102 171.021 517.972C177.312 512.216 183.219 506.087 189.126 499.958C202.252 486.23 214.667 471.699 226.308 456.439C232.182 448.896 237.349 440.728 241.727 432.068C244.866 425.175 246.935 417.785 247.844 410.217C250.366 391.12 245.063 372.542 238.733 354.216C234.131 340.378 228.951 326.916 223.257 313.58C216.924 298.998 210.365 284.353 202.716 270.211C197.398 259.799 190.29 250.671 181.774 243.314C176.78 238.979 171.181 235.542 165.174 233.126C152.833 227.855 139.942 227.514 127.114 228.795C110.02 230.773 93.0208 233.313 76.0865 235.603C59.3915 238.02 42.5953 238.939 25.8652 238.353C16.3334 237.739 6.86743 236.472 -2.47851 234.559C-19.2798 230.917 -35.3476 224.325 -50.0777 215.03C-70.3287 202.515 -88.4921 186.404 -103.868 167.319C-115.942 152.515 -126.046 135.872 -133.893 117.861C-134.213 117.238 -134.982 116.491 -135.302 115.868" stroke="#DFE4E8" stroke-width="1.25" stroke-linecap="round" stroke-linejoin="round"/>
<path d="M-459.729 936.675C-461.169 933.871 -462.545 930.818 -463.985 928.014C-473.552 908.262 -483.119 888.51 -492.172 868.632C-498.57 854.299 -504.102 839.403 -509.987 824.944C-517.069 807.905 -525.495 791.625 -535.171 776.285C-541.637 765.945 -548.168 755.855 -554.634 745.516C-562.254 733.709 -567.693 720.317 -570.658 706.066C-572.033 699.067 -572.681 691.891 -572.59 684.672C-572.279 676.304 -571.488 667.946 -570.222 659.649C-569.252 652.16 -568.057 644.732 -566.638 637.367C-565.735 631.999 -564.447 627.005 -563.318 621.699C-562.706 618.391 -562.157 615.333 -561.544 612.024C-560.64 606.657 -559.896 600.978 -559.217 595.548C-558.635 591.429 -557.765 587.122 -557.408 582.941C-556.857 578.011 -556.691 572.708 -556.076 567.528C-555.235 560.538 -554.393 553.549 -553.328 546.621C-552.262 539.693 -551.196 532.765 -549.906 525.899C-549.293 522.591 -547.718 519.281 -546.816 515.784C-544.349 507.315 -540.197 499.499 -534.67 492.919C-528.409 485.092 -520.167 479.511 -511.082 476.949C-495.941 472.293 -481.258 475 -467.542 483.324C-458.404 488.925 -450.203 496.151 -443.257 504.723C-433.169 516.862 -423.659 529.377 -413.859 541.705C-404.194 553.69 -393.063 564.131 -380.767 572.75C-367.533 582.012 -352.822 589.273 -338.753 597.16C-328.075 602.958 -317.825 609.625 -308.085 617.107C-292.289 629.481 -279.929 644.921 -268.016 660.237C-258.601 672.191 -249.41 684.083 -237.845 694.223C-224.742 705.855 -209.968 714.738 -192.078 718.061C-180.614 720.247 -168.853 720.511 -157.189 718.844C-140.656 716.228 -124.475 710.951 -109.166 703.185C-93.2523 695.532 -78.2676 686.821 -62.5137 678.857C-44.8668 670.077 -27.3154 660.736 -8.48416 653.887C9.32066 647.29 27.3166 641.815 46.7194 640.205C60.7531 638.539 74.8417 640.052 88.114 644.652C101.256 649.609 110.675 657.82 116.595 669.346C123.54 682.492 123.237 695.781 120.561 708.952C119.313 713.789 117.841 718.562 116.152 723.25C114.317 729.431 111.81 735.427 110.2 741.67C107.237 753.157 104.274 764.644 101.985 776.316C100.373 784.689 99.3133 793.157 98.8142 801.654C97.6204 816.274 98.9873 830.907 102.84 844.753C104.981 853.706 109.422 861.703 115.642 867.804C118.538 870.793 122.024 873.01 125.85 874.295C129.675 875.58 133.744 875.9 137.761 875.233C143.685 874.147 149.327 871.475 154.188 867.454C163.945 859.443 168.479 848.389 172.339 837.149C173.271 833.998 173.866 830.751 174.114 827.474C175.357 820.363 176.243 813.196 176.767 806.006C177.009 789.223 176.803 772.317 177.046 755.534C177.036 748.981 177.602 742.419 178.734 735.94C179.966 730.389 181.536 724.924 183.435 719.582C185.572 713.911 188.783 708.773 192.846 704.522C201.355 694.83 212.715 688.063 225.258 683.226C246.111 675.062 267.949 675.192 290.583 680.624C311.871 685.684 332.514 693.242 353.964 696.743C362.685 698.342 371.469 699.692 380.383 700.542C395.967 702.021 411.696 701.875 427.363 700.108C437.754 698.958 448.082 698.058 458.473 696.908C462.225 696.337 466.042 695.516 469.795 694.945C510.834 686.834 597.904 677.495 632.65 690.25C668.732 703.495 750.031 752.823 764.646 755.563" stroke="#DFE4E8" stroke-width="1.25" stroke-linecap="round" stroke-linejoin="round"/>
<path d="M-442.061 941.811C-449.132 927.293 -456.268 913.025 -463.404 898.757C-474.219 877.323 -482.533 855.509 -491.295 833.572C-497.34 818.801 -503.32 803.782 -510.616 789.202C-518.647 772.815 -528.218 756.806 -536.987 740.483C-544.845 726.768 -550.023 711.328 -552.202 695.104C-553.325 685.308 -553.26 675.344 -552.009 665.47C-550.748 655.921 -549.263 646.434 -548.002 636.886C-547.582 634.327 -547.227 632.018 -546.807 629.459C-545.71 623.342 -544.902 617.413 -544.029 611.234C-543.448 607.115 -542.802 602.746 -542.22 598.627C-541.476 592.948 -540.957 587.207 -540.502 581.716C-540.047 576.225 -539.143 570.857 -538.464 565.427C-537.956 558.674 -537.103 551.944 -535.908 545.27C-534.285 536.78 -531.746 528.5 -528.346 520.607C-523.834 510.45 -515.915 502.532 -506.324 498.589C-498.893 495.852 -490.957 495.701 -483.619 498.156C-477.544 500.156 -471.848 503.261 -466.761 507.346C-457.457 515.11 -449.041 524.069 -441.681 534.045C-432.771 545.901 -423.119 557.048 -412.793 567.41C-402.365 577.364 -390.831 585.84 -378.443 592.65C-364.823 600.413 -351.074 607.677 -337.325 614.94C-320.474 624.16 -305.204 636.406 -292.117 651.195C-283.213 661.404 -274.598 671.8 -265.759 682.258C-254.569 695.954 -241.408 707.524 -226.769 716.533C-219.132 720.862 -211.061 724.251 -202.697 726.639C-188.692 729.915 -174.227 730.74 -159.825 729.086C-143.176 726.66 -126.858 721.507 -111.418 713.8C-95.2155 705.96 -79.4926 697.185 -63.4498 689.033C-48.3502 681.151 -32.9063 674.155 -17.1852 668.075C-1.98785 662.042 13.789 658.204 29.7419 656.661C41.4796 655.882 53.184 656.164 64.6911 660.938C73.1074 664.322 80.2392 670.592 85.0671 678.853C89.7227 686.991 92.0229 696.562 91.6751 706.348C91.507 713.523 90.8256 720.824 90.2086 727.876C89.5605 734.116 88.8481 740.606 87.9755 746.785C87.425 751.715 86.2653 756.21 85.7148 761.14C85.0022 767.63 84.2899 774.12 84.0262 780.734C83.4052 791.529 82.7197 802.573 82.7718 813.553C82.8789 825.566 84.1557 837.485 86.581 849.104C89.1973 861.325 92.8399 873.294 100.877 884.066C104.523 889.177 109.23 893.24 114.626 895.933C120.021 898.626 125.958 899.875 131.966 899.583C147.488 899.043 158.751 891.715 168.222 882.02C176.176 873.721 182.148 863.398 185.571 852.029C187.825 844.534 189.633 836.902 190.984 829.181C191.21 827.371 191.501 825.312 191.727 823.502C192.278 818.572 192.604 813.58 192.93 808.588L194.588 788.183C195.047 779.931 195.966 771.698 197.341 763.533C198.843 754.757 201.375 746.193 204.872 738.059C209.425 728.17 216.255 719.708 224.653 713.552C238.26 703.66 254.363 699.001 272.257 698.58C288.901 698.35 305.22 701.24 321.539 704.13C329.587 705.544 337.57 707.208 345.682 708.372C355.204 709.657 364.728 710.943 374.155 711.667C396.728 713.605 418.857 711.676 440.73 708.874C449.646 707.853 458.627 706.582 467.543 705.56C520.446 699.24 609.811 668.329 657.311 715.83C701.777 760.295 723.232 774.446 742.72 784.799" stroke="#DFE4E8" stroke-width="1.25" stroke-linecap="round" stroke-linejoin="round"/>
<path d="M-507.768 12.2168C-510.208 14.2195 -512.871 16.1605 -515.311 18.1632C-521.698 23.3579 -528.085 28.5527 -534.248 33.8092C-539.568 38.1209 -543.563 44.1419 -545.65 50.9955C-546.778 56.0543 -546.98 61.2737 -546.244 66.3443C-545.004 75.5121 -542.961 84.3658 -541.207 93.4074C-534.971 121.683 -532.401 150.93 -533.573 180.294C-533.933 186.346 -534.292 192.399 -535.1 198.328C-536.135 206.066 -537.618 213.681 -538.877 221.358C-539.474 226.153 -540.533 230.883 -542.035 235.466C-544.481 243.084 -547.888 250.704 -550.558 258.26C-554.441 268.281 -559.177 277.904 -564.699 286.995C-567.88 292.805 -571.83 297.868 -575.236 303.617C-581.018 312.99 -586.961 322.052 -592.07 331.61C-595.38 337.92 -597.119 344.662 -593.727 352.015C-591.463 356.845 -587.596 360.488 -582.899 362.219C-575.143 365.692 -567.158 365.485 -559.237 365.526C-543.62 365.548 -528.259 364.697 -512.577 364.47C-497.976 364.012 -483.411 364.892 -469.032 367.102C-462.331 368.145 -455.47 369.5 -448.833 370.792C-444.056 371.841 -438.991 372.701 -434.118 374.31C-421.03 378.48 -408.377 384.025 -396.328 390.87C-386.714 396.46 -377.517 402.737 -368.61 409.202C-351.403 421.698 -336.251 436.569 -320.039 450.127C-305.43 462.442 -290.178 474.131 -274.991 486.07C-256.216 500.87 -238.371 516.483 -223.832 534.662C-215.005 545.603 -206.732 557.077 -199.049 569.036C-194.631 576.137 -190.213 583.238 -185.507 590.15C-179.342 599.574 -171.942 607.918 -163.535 614.924C-154.503 622.119 -143.528 625.891 -132.185 625.698C-120.712 625.567 -109.276 623.193 -98.4096 618.685C-79.8672 612.024 -62.9892 602.497 -45.8556 593.843C-35.6203 588.638 -25.7049 582.811 -15.6296 577.295C-4.68788 571.215 6.47784 565.196 17.484 558.867C43.9241 543.95 71.6131 530.714 98.7576 516.794C114.601 509.042 129.715 499.487 143.844 488.29C159.448 475.934 173.22 460.939 184.619 443.889C189.317 437.14 193.167 429.74 196.059 421.899C197.249 418.215 199.113 414.717 200.079 410.971C204.208 394.719 203.836 377.652 199.01 362C196.245 352.781 192.453 344.012 187.718 335.889C182.17 326.487 175.336 318.113 167.446 311.048C161.294 305.688 154.299 301.589 146.776 298.936C132.287 293.609 117.632 293.584 102.784 294.309C84.8261 295.583 66.9055 297.878 49.0948 301.186C39.088 302.71 29.0171 304.483 18.7859 305.944C7.76415 307.7 -3.36193 307.959 -14.3409 306.716C-26.8411 305.012 -38.654 299.921 -48.7338 291.895C-61.1657 282.319 -71.2223 270.991 -81.5681 259.85C-94.7003 245.535 -107.768 230.971 -120.547 216.218C-127.369 208.188 -133.613 199.781 -139.857 191.375C-152.541 174.203 -162.894 155.054 -170.612 134.495C-174.386 124.897 -177.133 115.047 -180.394 105.323C-180.861 104.37 -181.246 103.369 -181.544 102.332" stroke="#DFE4E8" stroke-width="1.25" stroke-linecap="round" stroke-linejoin="round"/>
<path d="M-424.719 946.305C-429.615 936.398 -434.157 926.053 -439.277 916.085C-448.652 897.455 -458.253 878.764 -466.024 859.506C-473.38 841.433 -479.71 823.107 -486.777 804.846C-494.515 784.528 -504.594 764.902 -514.226 745.4C-519.498 735.108 -523.949 724.309 -527.531 713.117C-531.292 700.314 -533.013 686.814 -532.618 673.203C-532.355 666.589 -531.802 659.787 -531.09 653.297C-530.539 648.367 -529.475 643.311 -528.7 638.443C-527.732 632.825 -527.277 627.334 -526.309 621.716C-525.436 615.538 -524.051 609.233 -522.954 603.116L-521.695 595.439C-520.598 589.322 -520.014 583.332 -518.917 577.215C-518.013 573.705 -517.334 570.139 -516.885 566.541C-516.042 558.118 -513.443 549.953 -509.291 542.69C-506.628 537.351 -502.308 533.209 -497.157 531.054C-488.719 527.227 -480.993 529.889 -473.783 534.55C-466.683 539.657 -460.169 545.669 -454.37 552.467C-444.498 563.486 -433.993 573.793 -422.913 583.329C-413.937 590.597 -404.433 597.059 -394.489 602.658C-386.926 606.881 -379.17 610.355 -371.542 614.328C-360.453 619.789 -349.074 625.062 -338.402 631.211C-321.022 641.486 -305.305 654.749 -291.818 670.519C-281.377 682.221 -271 694.172 -259.916 705.249C-240.29 724.878 -215.335 736.99 -188.571 739.876C-170.955 741.509 -153.092 739.344 -135.973 733.501C-117.968 727.244 -100.376 719.481 -83.3565 710.281C-63.3992 699.997 -43.8264 689.341 -22.1402 681.673C-7.23243 675.865 8.34744 672.748 23.9832 672.445C32.4283 672.102 40.7656 673.85 48.3811 677.56C57.2703 682.01 64.2046 690.025 67.8219 700.031C71.1989 709.746 72.7579 720.177 72.4067 730.714C72.2345 741.632 71.8375 752.489 71.4409 763.345C71.0774 773.141 70.6498 783.187 70.5108 793.044C70.5629 804.024 70.6152 815.004 71.1162 826.108C71.5701 840.318 73.601 854.35 77.1636 867.892C80.2287 880.237 84.5446 892.391 93.3195 903.099C98.2483 909.2 104.465 913.87 111.458 916.726C118.452 919.582 126.022 920.542 133.547 919.527C148.588 917.866 162.951 911.065 174.615 900.081C185.559 890.272 193.886 877.364 198.642 862.835C201.172 854.258 203.259 845.546 204.892 836.741C205.265 834.508 205.524 832.257 205.668 830.001C206.219 825.071 206.674 819.58 207.224 814.65C207.775 809.72 208.614 804.602 209.164 799.672C209.543 793.423 210.268 787.192 211.334 781.012C213.943 769.963 216.328 758.852 222.015 748.917C227.859 738.527 236.289 730.152 246.253 724.835C261.109 716.624 278.043 714.334 295.487 715.661C312.257 716.803 329.218 719.068 346.244 721.082C359.102 722.484 372.088 723.386 385.043 723.477C402.501 723.013 419.959 721.572 437.35 719.161C446.491 718.202 455.76 716.743 464.965 715.534C500.61 706.649 580.306 691.62 613.922 702.582C655.942 716.284 689.74 789.363 724.452 797.584" stroke="#DFE4E8" stroke-width="1.25" stroke-linecap="round" stroke-linejoin="round"/>
<path d="M-511.888 921.774C-514.319 916.29 -516.975 910.744 -519.342 905.011C-526.666 887.748 -533.542 870.61 -540.867 853.347C-551.075 829.9 -564.264 808.263 -580.049 789.065C-590.937 775.368 -601.6 761.733 -610.018 746.844C-614.824 738.374 -618.516 729.166 -620.987 719.484C-623.39 710.38 -624.503 700.874 -624.291 691.294C-624.325 681.545 -623.182 671.786 -620.893 662.275C-616.997 648.103 -612.588 633.804 -608.693 619.632C-605.343 606.647 -602.219 593.6 -599.318 580.491C-597.933 574.186 -596.771 567.82 -595.834 561.391C-594.478 552.404 -593.794 543.231 -592.662 534.182C-591.723 525.882 -590.56 517.644 -588.883 509.28C-587.413 502.815 -585.607 496.437 -583.475 490.175C-581.35 483.53 -578.349 477.236 -574.571 471.498C-566.463 458.593 -555.4 448.234 -542.567 441.532C-533.339 436.472 -523.459 433.135 -513.343 431.661C-506.478 430.815 -499.583 430.568 -492.722 430.921C-485.12 431.064 -477.626 432.496 -470.504 435.168C-465.088 436.976 -459.789 439.15 -454.637 441.678C-441.141 448.417 -429.002 457.928 -418.849 469.722C-407.543 482.731 -396.815 496.117 -385.798 509.314C-375.048 522.211 -362.747 533.423 -349.212 542.659C-336.523 551.236 -323.192 559.187 -310.213 567.575C-300.581 573.68 -291.45 580.668 -282.914 588.467C-270.687 600.231 -259.575 613.324 -249.734 627.56C-243.33 636.278 -237.664 645.06 -230.906 653.34C-222.645 664.313 -212.501 673.37 -201.017 680.026C-191.707 685.261 -181.473 688.353 -170.915 689.119C-158.349 689.88 -145.678 688.114 -133.518 683.906C-117.878 678.534 -102.661 671.624 -88.0552 663.263C-73.712 655.178 -59.2093 647.404 -44.4817 639.692C-31.4227 632.858 -18.0437 626.647 -4.66463 620.436C5.95507 615.605 17.0238 610.897 27.9635 606.689C45.1452 599.933 62.7365 594.672 80.5717 590.955C95.2619 588.047 109.888 585.389 124.418 582.17C138.14 579.71 151.546 575.117 164.229 568.528C177.641 561.256 187.818 550.687 197.771 540.055C207.37 529.861 215.912 519.108 225.287 508.852C236.363 496.736 248.708 486.122 262.039 477.251C268.161 473.271 274.759 470.309 281.61 468.466C285.383 467.357 289.313 467.29 293.046 468.272C296.779 469.253 300.197 471.252 302.993 474.088C306.558 477.565 309.738 481.491 312.472 485.792C318.265 495.453 322.827 505.974 326.035 517.075C331.498 536.361 333.66 556.72 332.415 577.138C331.478 589.062 331.616 601.016 332.825 612.823C334.982 627.931 342.521 641.259 353.789 649.889C363.048 657.788 374.171 662.189 385.776 665.652C392.528 667.564 399.434 668.84 406.423 669.467C423.686 670.962 441.087 670.833 458.438 669.082C464.628 668.38 470.977 667.989 477.327 667.598C515.855 663.428 599.097 656.697 623.968 656.913C676.495 657.368 792.962 700.758 813.972 705.326" stroke="#DFE4E8" stroke-width="1.25" stroke-linecap="round" stroke-linejoin="round"/>
<path d="M-491.817 927.825C-491.977 927.514 -492.073 926.952 -492.233 926.641C-497.96 914.365 -504.135 901.966 -509.573 889.503C-516.482 873.425 -523.167 857.408 -529.852 841.392C-539.143 820.181 -550.841 800.428 -564.677 782.589C-573.721 771.317 -582.135 759.443 -589.876 747.031C-598.075 733.768 -603.345 718.503 -605.284 702.401C-606.429 687.817 -605.22 673.03 -601.709 658.721C-595.749 632.814 -587.608 607.776 -583.282 581.687C-582.636 577.318 -581.766 573.011 -581.344 568.58C-580.6 562.901 -580.37 557.348 -579.626 551.669C-578.882 545.99 -577.85 540.122 -577.042 534.193C-576.245 527.236 -575.103 520.319 -573.62 513.472C-571.906 506.522 -569.745 499.698 -567.152 493.054C-564.931 486.786 -561.72 480.967 -557.673 475.873C-550.06 465.52 -540.189 457.449 -529.043 452.466C-505.911 441.987 -482.471 443.361 -458.979 455.715C-447.243 462.053 -436.691 470.664 -427.805 481.151C-416.948 494.037 -406.893 507.237 -396.26 520.062C-383.408 535.997 -368.191 549.404 -351.216 559.748C-337.884 567.699 -324.553 575.65 -311.574 584.039C-298.277 592.319 -286.23 602.756 -275.82 615.015C-264.708 628.774 -254.013 643.22 -243.19 657.167C-235.125 667.926 -225.778 677.424 -215.385 685.419C-203.725 694.018 -190.24 699.292 -176.087 700.789C-165.052 701.859 -153.867 700.967 -142.958 698.145C-120.889 692.722 -101.606 682.253 -82.3859 672.034C-70.0645 665.265 -57.9026 658.183 -45.4212 651.725C-35.6991 646.646 -25.8816 642.129 -16.0639 637.612C-7.04826 633.408 1.83852 629.704 10.9497 626.062C34.6877 616.384 59.3414 610.051 84.3093 607.218C98.1643 605.685 112.53 605.897 126.737 605.798C139.981 605.701 153.48 606.477 166.631 603.947C176.9 602.246 186.721 597.784 195.217 590.959C205.039 582.698 211.528 572.45 218.305 562.014C225.918 550.203 233.467 538.641 243.675 528.882C249.546 522.702 256.587 518.05 264.246 515.291C275.281 511.644 284.097 513.805 291.977 522.394C296.528 527.454 299.865 533.694 301.705 540.586C305.41 554.177 305.107 567.466 303.842 580.758C302.774 589.557 301.482 598.295 301.152 607.03C300.581 618.537 303.741 629.741 310.064 638.637C316.905 647.946 325.369 655.636 334.988 661.282C341.967 665.799 349.433 669.381 357.232 671.955C366.593 674.8 375.889 677.895 385.507 679.742C397.183 681.832 409.066 682.595 420.971 682.021C438.995 681.101 456.698 679.557 474.625 678.076C508.573 673.151 583.249 665.251 610.724 666.5C671.013 669.241 752.769 719.938 791.135 725.419" stroke="#DFE4E8" stroke-width="1.25" stroke-linecap="round" stroke-linejoin="round"/>
<path d="M-472.528 21.9238C-473.876 23.3684 -475.151 24.8922 -476.349 26.488C-480.492 32.3008 -484.7 38.3633 -488.394 44.2997C-493.397 51.9336 -498.01 59.861 -502.209 68.0428C-504.826 73.5593 -506.815 79.3916 -508.129 85.402C-509.772 94.9139 -510.959 104.496 -511.687 114.109C-512.697 128.274 -513.257 142.562 -514.042 156.789C-514.663 167.583 -515.125 178.689 -515.746 189.484C-516.072 194.476 -516.911 199.594 -517.461 204.524C-518.238 211.264 -518.951 217.754 -519.953 224.432C-520.437 227.241 -520.696 230.111 -521.34 232.608C-524.53 245.905 -527.783 259.452 -530.972 272.749C-532.454 278.492 -534.897 284.238 -535.929 290.105C-537.348 297.471 -538.927 304.525 -538.038 312.258C-536.671 322.798 -530.842 330.02 -520.039 333.798C-513.436 336.152 -506.768 338.255 -499.971 339.86C-493.175 341.464 -486.12 342.07 -479.259 343.425C-473.969 344.347 -468.808 345.768 -463.454 346.44C-450.382 348.749 -437.48 351.945 -424.822 356.01C-416.476 358.569 -408.28 361.63 -400.268 365.18C-387.77 370.683 -375.735 377.307 -364.278 384.988C-353.19 392.321 -342.232 400.154 -331.433 407.675C-319.257 416.377 -307.369 425.268 -295.417 433.909C-285.516 441.182 -275.615 448.456 -265.65 455.48C-243.924 471.153 -224.776 490.697 -208.953 513.353C-203.862 520.64 -198.547 527.987 -193.745 535.461C-186.894 546.174 -180.621 557.263 -173.705 567.726C-167.743 577.386 -160.341 585.84 -151.798 592.749C-146.583 597.045 -140.533 599.99 -134.074 601.375C-128.048 602.436 -121.9 602.693 -115.764 602.139C-102.931 600.687 -90.3104 597.033 -78.3614 591.311C-68.3193 586.855 -58.0531 582.462 -48.5554 577.321C-34.9188 570.111 -21.6664 562.528 -8.41414 554.945C0.570299 549.93 9.33066 544.854 18.0907 539.778C31.3429 532.195 44.5951 524.612 58.0718 517.09C62.6284 514.333 67.505 512.199 72.0616 509.443C92.2122 498.41 112.074 487.565 129.278 473.047C143.914 461.031 156.628 447.148 165.4 430.842C168.228 425.469 170.447 419.661 172.826 414.165C176.304 405.157 177.661 395.403 176.769 385.831C175.986 376.966 173.515 368.449 169.517 360.832C165.177 352.14 159.16 344.646 151.871 338.855C142.531 331.475 131.6 326.811 120.043 325.275C102.836 322.592 85.2181 323.356 68.0269 327.531C47.7868 332.387 27.8022 338.116 7.88216 343.596C-2.05351 346.525 -12.2317 348.123 -22.4273 348.353C-28.4157 348.375 -34.3675 347.722 -40.1904 346.403C-50.8874 343.821 -60.6158 337.994 -68.2956 329.569C-75.441 321.512 -81.6738 312.524 -86.8659 302.79C-96.1691 286.1 -106.3 270.007 -117.214 254.581C-126.916 240.943 -137.932 227.746 -147.923 214.296C-160.186 197.546 -171.648 180.481 -180.126 162.099C-185.791 150.089 -190.601 137.588 -194.516 124.704C-197.232 115.664 -199.435 106.499 -202.151 97.4601C-202.504 96.5839 -202.932 95.7493 -203.431 94.9678" stroke="#DFE4E8" stroke-width="1.25" stroke-linecap="round" stroke-linejoin="round"/>
<path d="M-407.095 950.625C-407.255 950.313 -407.351 949.752 -407.511 949.441C-415.091 931.306 -424.564 913.986 -433.684 896.23C-443.369 877.237 -451.937 857.548 -459.338 837.278C-466.692 817.333 -473.821 797.449 -481.4 777.443C-488.978 757.436 -498.898 738.122 -505.226 717.924C-508.808 707.12 -510.892 695.73 -511.41 684.126C-512.084 675.095 -511.589 665.957 -509.937 656.984C-508.163 647.309 -506.677 637.823 -504.454 628.272C-502.942 622.603 -501.104 617.035 -498.952 611.6C-496.929 605.361 -494.033 599.479 -490.371 594.171C-482.985 584.17 -472.849 582.148 -460.318 588.541C-451.857 593.011 -443.396 597.481 -435.223 602.139C-417.886 612.263 -399.584 620.513 -381.283 628.763C-372.02 632.919 -362.692 636.825 -353.557 641.481C-341.769 647.173 -330.743 654.524 -320.744 663.356C-312.831 670.884 -304.854 678.163 -297.295 686.129C-284.419 699.571 -272.279 713.078 -257.188 724.456C-245.385 733.444 -232.311 740.293 -218.44 744.756C-210.406 747.287 -202.138 748.937 -193.754 749.683C-177.872 751.199 -161.776 749.851 -146.096 745.691C-128.647 741.403 -112.573 734.062 -96.7231 726.66C-90.178 723.648 -84.1131 719.702 -77.568 716.69C-67.1727 711.797 -56.8415 707.154 -46.4462 702.26C-34.144 696.251 -21.2495 691.981 -8.07961 689.558C4.0445 687.281 16.4556 686.688 28.9247 691.459C36.2255 694.335 42.4886 699.602 46.898 706.572C51.6591 714.421 54.5964 723.485 55.4633 733.002C57.5934 749.904 57.2861 766.937 57.7165 783.905C58.0162 803.244 59.0535 822.519 60.3152 841.856C61.3078 857.823 64.1243 873.515 68.6982 888.563C71.8828 900.158 77.1223 910.869 84.1206 920.091C88.46 925.998 93.9243 930.775 100.151 934.104C106.378 937.433 113.226 939.238 120.24 939.4C131.909 939.686 143.592 937.253 154.528 932.261C169.456 926.086 182.973 916.152 193.971 903.273C202.432 893.2 208.801 881.244 212.608 868.288C214.25 862.856 215.058 856.927 216.315 851.121C217.09 846.253 218.154 841.197 218.769 836.017C219.546 829.278 219.809 822.664 220.586 815.924C221.244 808.583 222.248 801.272 223.592 794.018C226.202 782.969 228.587 771.857 234.498 761.985C242.626 748.176 254.694 738.662 271.759 734.001C286.258 729.971 301.587 730.18 316.722 731.139C333.267 732.219 349.973 733.611 366.519 734.691C385.662 735.951 404.232 733.845 422.801 731.738C434.957 730.271 447.016 728.243 459.076 726.216C460.102 725.964 460.969 725.4 461.996 725.148C498.935 714.886 578.753 697.558 602.503 710.347C632.191 726.333 676.038 813.114 714.861 822.705" stroke="#DFE4E8" stroke-width="1.25" stroke-linecap="round" stroke-linejoin="round"/>
<path d="M-440.445 30.7502C-440.764 30.7189 -441.086 30.7197 -441.407 30.7527C-446.647 42.6823 -453.713 53.3066 -460.171 64.3659C-465.376 73.3632 -470.516 82.1109 -475.048 91.2936C-477.746 97.0706 -480.015 103.065 -481.834 109.216C-483.48 113.277 -484.804 117.477 -485.791 121.767C-487.21 129.132 -488.341 136.309 -489.536 143.737C-490.182 148.105 -491.052 152.413 -491.474 156.843C-492.024 161.773 -492.575 166.703 -492.901 171.695C-493.485 177.686 -494.068 183.677 -494.428 189.729C-494.785 193.91 -494.918 198.153 -495.275 202.334C-495.859 208.324 -496.442 214.315 -496.802 220.368C-497.419 227.419 -497.811 234.532 -498.268 241.895C-498.725 249.258 -499.567 256.248 -499.735 263.423C-499.97 272.719 -499.691 281.889 -496.077 291.175C-491.85 300.796 -484.577 308.302 -475.577 312.334C-468.787 315.812 -461.694 318.572 -454.389 320.577C-445.862 322.925 -437.174 325.585 -428.711 328.184C-420.248 330.782 -411.625 333.692 -403.355 337.039C-385.741 343.825 -368.673 352.103 -352.298 361.799C-337.909 370.309 -323.649 379.318 -308.971 387.64C-294.742 395.839 -280.095 403.349 -265.801 411.298C-254.072 418.005 -242.502 424.401 -231.415 431.734C-220.763 439.01 -211.273 448.122 -203.288 458.738C-192.145 473.307 -184.498 489.321 -176.274 504.959C-170.449 515.924 -164.336 526.701 -158.512 537.666C-153.184 547.552 -146.341 556.309 -138.273 563.567C-131.279 569.757 -122.77 573.584 -113.721 574.608C-102.114 576.2 -91.6253 573.74 -81.4565 570.657C-66.1063 566.04 -51.2121 559.556 -37.0538 551.326C-19.887 541.611 -2.97539 531.024 13.8071 520.936C29.2098 511.538 44.3238 502.328 59.5022 492.868C73.6361 484.505 87.3898 475.349 100.707 465.435C111.16 457.676 120.554 448.272 128.572 437.538C134.232 429.847 138.267 420.895 140.369 411.367C142.501 397.512 139.854 384.479 126.653 374.157C122.191 370.8 117.248 368.265 112.006 366.647C101.337 363.713 90.1932 363.001 79.1389 364.548C62.3334 366.339 47.2238 371.806 31.7939 376.65C19.7321 380.549 7.67018 384.448 -4.87156 387.413C-18.702 390.732 -32.826 391.798 -46.7873 390.579C-58.7771 389.69 -70.3565 385.954 -80.7353 379.624C-90.0959 373.719 -97.9153 365.321 -103.509 355.165C-108.991 344.134 -113.478 332.509 -116.908 320.45C-122.373 303.432 -128.127 286.602 -137.762 270.843C-145.508 258.011 -153.768 245.306 -162.028 232.6C-167.534 224.13 -173.778 215.724 -179.284 207.253C-190.326 190.591 -199.357 172.377 -206.162 153.046C-210.254 140.953 -214.056 128.673 -217.635 116.454C-219.871 108.35 -221.369 100.181 -223.38 92.1379C-223.733 91.2617 -224.162 90.4273 -224.66 89.6457" stroke="#DFE4E8" stroke-width="1.25" stroke-linecap="round" stroke-linejoin="round"/>
<path d="M-384.387 957.694C-388.385 948.034 -392.159 938.436 -396.734 929.153C-404.286 913.7 -412.574 898.312 -420.35 882.797C-433.63 856.941 -442.74 829.826 -451.112 802.647C-455.746 787.998 -460.829 773.225 -465.687 758.514C-468.883 748.541 -472.367 738.755 -475.114 728.905C-478.059 719.15 -479.795 708.958 -480.277 698.598C-480.581 691.994 -480.316 685.351 -479.485 678.756C-478.617 672.287 -476.593 666.025 -473.533 660.337C-471.18 655.51 -467.846 651.323 -463.803 648.114C-459.759 644.906 -455.12 642.767 -450.263 641.872C-441.108 640.331 -431.833 640.795 -422.975 643.236C-412.588 645.829 -402.33 648.922 -392.136 652.265C-385.757 654.556 -379.218 657.16 -372.839 659.452C-364.687 662.694 -356.772 666.572 -349.153 671.057C-333.866 679.814 -321.148 691.073 -308.782 702.77C-295.264 715.586 -282.258 728.529 -266.46 739.032C-253.767 747.577 -240.021 754.152 -225.595 758.578C-221.454 759.94 -217.209 760.931 -212.9 761.539C-207.609 762.461 -202.319 763.384 -196.9 763.806C-179.44 765.151 -161.795 763.421 -144.624 758.68C-127.394 753.691 -110.516 747.158 -94.1603 739.146C-85.9467 735.257 -77.6685 731.118 -69.2305 727.29C-59.9904 723.149 -50.6863 718.757 -41.1262 715.239C-27.0428 710.024 -12.6724 706.493 3.32695 708.76C8.43831 709.613 13.3284 711.504 17.7515 714.338C24.7302 718.932 30.1663 725.848 33.3144 734.136C37.2434 744.226 39.6571 755.004 40.4631 766.06C41.9553 779.844 42.9339 793.754 43.6884 807.602C44.8192 829.31 46.1745 851.08 49.2294 872.783C51.0135 887.755 54.3324 902.396 59.123 916.428C63.5989 928.894 68.8126 941.296 78.3895 951.69C85.5671 959.474 94.8757 964.471 104.99 965.97C114.364 967.128 123.913 966.406 133.18 963.838C149.045 959.571 164.399 953.006 178.834 944.317C192.21 936.795 204.333 926.725 214.622 914.59C220.237 907.471 224.756 899.402 227.988 890.723C229.718 885.412 231.117 879.988 232.174 874.492C233.764 867.231 235.014 859.897 235.918 852.521C237.05 843.472 237.734 834.3 238.417 825.127C239.207 815.383 240.817 805.709 243.227 796.229C245.402 787.349 249.272 779.019 254.573 771.806C262.249 761.617 273.094 754.976 286.438 751.697C300.808 748.166 315.623 748.502 330.374 749.087C342.976 749.616 355.738 750.456 368.469 750.486C386.477 750.423 404.506 748.769 422.381 745.542C434.665 743.576 446.725 741.549 458.784 739.521C487.508 730.71 549.527 714.391 567.791 714.002C616.325 712.969 630.364 790.278 682.432 834.125" stroke="#DFE4E8" stroke-width="1.25" stroke-linecap="round" stroke-linejoin="round"/>
<path d="M-477.644 932.535C-481.004 925.993 -484.299 919.202 -487.435 912.722C-498.921 889.231 -508.644 865.424 -518.302 841.368C-525.858 823.038 -535.055 805.635 -545.76 789.408C-550.402 782.245 -555.91 775.647 -560.552 768.484C-566.348 760.202 -572.014 751.42 -577.232 742.761C-584.259 731.079 -588.86 717.77 -590.722 703.742C-591.828 695.704 -591.894 687.492 -590.92 679.349C-590.014 672.109 -589.173 665.12 -588.107 658.192C-586.945 651.825 -585.4 645.832 -584.014 639.527C-580.985 625.919 -578.02 612.56 -574.991 598.952C-573.869 593.71 -572.986 588.419 -572.344 583.099C-571.6 577.42 -571.241 571.367 -570.497 565.688C-569.592 558.449 -568.525 551.521 -567.62 544.282C-566.585 536.543 -565.775 528.742 -564.292 521.127C-562.56 512.722 -559.812 504.572 -556.12 496.9C-550.636 484.31 -541.703 473.837 -530.626 467.012C-510.024 454.232 -487.962 454.424 -464.949 465.844C-453.02 472.131 -442.4 480.96 -433.68 491.84C-423.752 503.668 -414.465 516.122 -404.826 528.138C-391.567 544.808 -375.738 558.755 -358.02 569.379C-343.695 578.138 -328.728 586.273 -314.468 595.282C-301.159 603.683 -289.149 614.294 -278.843 626.757C-269.299 638.212 -260.397 650.292 -251.207 662.184C-242.394 673.877 -232.222 684.228 -220.936 692.988C-208.872 701.655 -195.07 707.102 -180.58 708.916C-167.489 710.487 -154.156 709.352 -141.262 705.57C-121.117 700.153 -103.501 690.562 -85.7902 681.532C-72.1535 674.322 -58.6122 666.551 -44.9755 659.341C-36.5687 654.702 -27.6176 650.749 -18.8907 646.733C-12.6345 643.91 -6.21851 641.397 0.197788 638.885C16.3039 632.501 32.8333 627.656 49.598 624.408C59.0737 622.576 68.6445 621.633 78.2058 621.589C88.1755 621.254 98.1089 622.106 107.833 624.132C116.633 626.021 125.322 628.414 133.865 631.302C143.097 634.647 151.942 639.49 161.174 642.835C173.156 647.277 186.094 648.168 198.723 645.42C209.949 642.896 221.176 640.371 232.178 637.785C244.961 634.803 258.125 636.637 269.531 642.99C288.184 652.675 305.648 664.171 325.136 672.48C332.957 675.704 340.554 678.866 348.504 681.591C360.422 685.547 372.723 688.128 385.213 689.294C400.095 690.677 415.094 690.784 430.076 689.614C444.315 688.454 458.395 686.983 472.634 685.823C512.726 681.361 581.543 672.946 619.859 679.29C688.826 690.708 751.856 740.949 773.78 742.776" stroke="#DFE4E8" stroke-width="1.25" stroke-linecap="round" stroke-linejoin="round"/>
<path d="M-86.4869 127.978C-85.6862 128.57 -84.9828 129.306 -84.4047 130.156C-78.3557 141.062 -71.0863 151.058 -62.7594 159.921C-50.5276 173.754 -36.2932 185.259 -20.5954 194C-13.6099 197.695 -6.41776 200.927 0.943658 203.676C6.42502 205.721 12.3886 206.829 17.9988 208.374C25.5512 210.372 33.2777 211.605 41.0836 212.057C61.5322 213.186 82.1209 211.582 102.402 207.281C118.279 204.433 133.965 200.462 150.128 199.297C162.379 198.391 174.532 198.796 186.712 203.756C194.67 206.994 201.976 211.816 208.278 217.987C216.512 226.02 223.302 235.683 228.322 246.508C234.209 259.095 239.871 271.62 245.244 284.334C254.52 306.145 263.283 328.083 272.848 349.706C279.246 364.039 286.735 377.87 293.999 391.638C298.268 400.084 303.784 407.655 310.329 414.055C314.86 419.05 320.719 422.343 327.122 423.495C335.843 425.094 344.599 423.762 353.226 422.928C363.104 421.904 373.014 421.691 383.147 421.54C393.749 421.699 404.138 424.196 413.7 428.885C423.504 433.75 431.887 441.407 438.015 451.094C444.312 461.169 449.845 471.816 454.559 482.932C461.639 499.242 470.551 514.452 481.094 528.218C491.213 540.75 502.723 551.824 515.371 561.195C530.482 573.082 557.964 593.204 585.943 599.023C613.922 604.842 636.371 601.716 726.278 590.228C816.186 578.739 865.792 601.553 906.234 612.151" stroke="#DFE4E8" stroke-width="1.25" stroke-linecap="round" stroke-linejoin="round"/>
<path d="M828.588 687.968C745.461 662.392 682.847 644.166 637.214 643.666C595.65 643.21 537.33 651.174 490.128 657.213C489.615 657.339 489.037 657.715 488.524 657.841C473.9 658.628 459.372 659.975 444.652 660.201C433.614 660.518 422.647 659.119 412.076 656.043C407.672 654.74 403.339 653.19 399.094 651.398C390.257 648.162 382.515 642.219 376.752 634.248C370.989 626.276 367.436 616.597 366.498 606.314C364.621 592.156 365.566 578.242 365.614 564.08C365.618 547.676 364.446 531.345 362.108 515.239C360.676 504.949 359.308 494.409 358.39 483.993C357.532 477.286 358.723 470.374 361.778 464.332C365.026 458.282 370.149 453.69 376.159 451.443C383.723 448.098 391.97 447.465 399.698 449.635C408.966 452.349 417.195 458.059 423.347 466.044C431.961 476.44 437.593 488.154 444.315 499.367C450.324 509.802 456.887 519.825 463.972 529.386C477.293 546.696 493.984 561.189 512.024 574.181C523.61 585.163 553.082 609.257 602.959 609.411C750.486 609.866 778.347 576.525 887.051 615.804" stroke="#DFE4E8" stroke-width="1.25" stroke-linecap="round" stroke-linejoin="round"/>
<path d="M842.291 674.265C798.446 663.303 695.225 631.329 645.438 632.701C595.652 634.073 491.812 646.062 491.035 646.227C477.461 648.453 463.783 649.427 450.146 649.14C437.108 649.107 424.27 646.477 412.25 641.378C403.445 637.635 396.021 630.916 391.01 622.155C385.841 612.46 383.235 601.289 383.477 589.858C383.391 579.939 384.044 569.955 384.471 559.909C384.671 553.545 384.935 546.932 385.358 540.629C385.915 530.084 386.183 519.727 387.413 509.368C387.741 504.095 389.476 498.989 392.399 494.694C397.697 488.129 403.469 488.114 409.815 491.467C415.369 494.659 420.283 499.008 424.296 504.281C429.645 510.568 434.929 517.105 440.213 523.642C448.675 533.921 457.874 543.43 467.728 552.082C481.344 563.589 495.314 574.657 508.995 585.914C520.068 595.724 548.884 615.619 575.557 616.715C694.885 621.619 792.506 641.838 873.805 642.751" stroke="#DFE4E8" stroke-width="1.25" stroke-linecap="round" stroke-linejoin="round"/>
<path d="M40.2126 447.452C38.7788 439.034 33.7462 437.113 26.2431 436.384C12.8723 435.108 -0.40472 436.266 -13.7132 436.612C-27.0217 436.959 -39.7527 436.929 -52.9968 437.026C-68.8382 436.942 -84.5509 436.359 -100.521 436.775C-110.655 436.926 -120.021 439.695 -126.475 447.011C-130.426 451.441 -132.788 457.276 -133.099 463.374C-133.547 467.718 -133.626 472.083 -133.337 476.414C-132.601 488.856 -129.279 500.842 -123.627 511.45C-120.351 517.739 -115.967 523.217 -110.721 527.575C-102.549 534.095 -92.4516 537.16 -82.1904 536.235C-71.9991 535.344 -61.9506 532.598 -52.4547 528.11C-29.3224 517.632 -9.90558 502.92 8.42264 486.839C18.1575 478.682 26.97 469.248 34.6529 458.759C37.0914 455.582 38.8708 451.867 39.8597 447.89" stroke="#DFE4E8" stroke-width="1.25" stroke-linecap="round" stroke-linejoin="round"/>
</svg>
