<svg width="151" height="150" viewBox="0 0 151 150" fill="none" xmlns="http://www.w3.org/2000/svg">
<g clip-path="url(#clip0_1204_192)">
<rect width="150" height="150" transform="translate(0.881836)" fill="#D02A92"/>
<rect x="0.881836" width="150.43" height="150.43" fill="#D02A92"/>
<g clip-path="url(#clip1_1204_192)">
<path fill-rule="evenodd" clip-rule="evenodd" d="M50.4287 60.6512C49.4071 61.1006 49.4302 60.7599 49.4302 75.3879V88.9003L49.9631 89.4336C51.0247 90.4962 52.714 89.9634 52.9815 88.4817C53.0425 88.1444 53.0684 81.9359 53.0391 74.685L52.9859 61.5017L52.53 61.0589C51.9528 60.498 51.1366 60.3395 50.4287 60.6512ZM32.2639 60.9927C31.6285 61.5338 20.6189 87.3261 20.6189 88.2739C20.6189 89.7033 22.5393 90.5304 23.5979 89.5565C23.8982 89.2801 25.5729 85.479 28.7242 77.9208C31.2983 71.7468 33.4612 66.6385 33.5307 66.5687C33.6002 66.4988 35.8259 71.6174 38.4767 77.9434C41.6162 85.4353 43.4263 89.5363 43.6687 89.7064C44.6343 90.3833 46.3454 89.6848 46.6035 88.5082C46.7569 87.8095 35.7881 61.8935 34.996 61.0829C34.3437 60.4154 32.9942 60.3707 32.2639 60.9927ZM59.0285 61.0622L58.5478 61.5434V75.2742V89.0049L59.0285 89.4861C59.3962 89.8543 59.6902 89.9673 60.2801 89.9673C60.8698 89.9673 61.1638 89.8543 61.5317 89.4861L62.0124 89.0049V83.3715V77.7383H64.5369H67.0613L70.9595 83.597C73.1034 86.8193 75.0219 89.5708 75.2226 89.7113C76.3413 90.4956 78.0626 89.5786 78.0557 88.2018C78.0527 87.5964 77.5932 86.8342 74.6076 82.4839L71.1631 77.4645L72.391 77.0846C80.4494 74.5925 79.812 62.5113 71.5313 60.7826C70.9488 60.6611 68.3681 60.5811 65.0369 60.5811H59.5092L59.0285 61.0622ZM118.641 60.7724C113.205 61.6221 109.97 65.9514 111.334 70.5493C112.199 73.4651 114.079 74.7005 120.472 76.5537C126.27 78.2347 127.927 79.8431 127.033 82.9229C125.766 87.2842 118.776 87.73 114.052 83.7508C112.208 82.1976 111.231 81.9851 110.333 82.9422C108.301 85.1076 113.456 89.1628 119.028 89.7817C126.117 90.5694 130.849 87.2814 130.849 81.5674C130.849 76.9841 128.629 74.9332 121.458 72.8911C115.803 71.2808 114.226 69.9991 114.886 67.5476C115.991 63.4395 122.298 62.8622 126.76 66.461C128.464 67.8361 129.559 67.9763 130.302 66.9149C132.348 63.9899 124.501 59.8564 118.641 60.7724ZM71.1007 64.2856C75.5977 66.0262 75.3418 72.6192 70.724 73.9918C70.0121 74.2033 68.8535 74.2704 65.8999 74.2704H62.0124V69.0533V63.8364L66.1608 63.9079C69.4815 63.9651 70.4672 64.0404 71.1007 64.2856Z" fill="white"/>
<path d="M82.4658 84.4106C78.0138 77.7477 80.7042 68.6036 88.0001 65.6016C89.431 65.0131 89.792 65.0285 89.0002 65.645C79.2301 73.2525 83.5599 88.1267 95.7979 88.9963C97.6505 89.128 97.5732 89.26 95.3842 89.7042C90.4572 90.7033 85.2429 88.5668 82.4658 84.4106Z" fill="white"/>
<path d="M105.762 67.0853C105.369 66.2954 105.047 65.6119 105.047 65.5661C105.047 65.3634 106.118 66.3506 106.833 67.212C110.499 71.629 110.623 78.3598 107.124 83.0193C102.944 88.5851 94.2352 89.5979 89.0371 85.1229C88.042 84.2663 88.1446 84.176 89.4817 84.7314C100.324 89.2335 111.019 77.6404 105.762 67.0853Z" fill="white"/>
<path d="M81.0446 69.6689C81.5893 65.2284 86.022 60.9336 91.0971 59.9295C99.6134 58.2447 107.16 65.7286 105.88 74.5898C105.721 75.6949 105.413 75.8738 105.409 74.8634C105.399 72.2341 103.419 68.3275 101.085 66.3324C94.9694 61.1026 85.736 62.5395 81.6417 69.3583L80.9392 70.5286L81.0446 69.6689Z" fill="white"/>
<path d="M100.536 81.5332C97.5329 81.348 96.5133 77.6214 99.0107 75.9603C99.8748 75.3852 101.471 75.3847 102.313 75.9586C104.993 77.784 103.734 81.7303 100.536 81.5332Z" fill="white"/>
<path d="M92.9414 70.3435C90.9297 69.388 90.7935 66.2044 92.715 65.0516C95.4259 63.425 98.4536 66.2182 97.0923 69.0899C96.4554 70.4329 94.4225 71.0469 92.9414 70.3435Z" fill="white"/>
<path d="M86.2743 81.1019C84.6586 79.6407 84.9631 77.0531 86.8617 76.1126C88.9294 75.0881 91.1447 76.2917 91.3309 78.5409C91.5667 81.3841 88.3742 83.0007 86.2743 81.1019Z" fill="white"/>
</g>
</g>
<defs>
<clipPath id="clip0_1204_192">
<rect width="150" height="150" fill="white" transform="translate(0.881836)"/>
</clipPath>
<clipPath id="clip1_1204_192">
<rect width="110.23" height="30.3091" fill="white" transform="translate(20.6189 59.6909)"/>
</clipPath>
</defs>
</svg>
