<svg width="151" height="150" viewBox="0 0 151 150" fill="none" xmlns="http://www.w3.org/2000/svg">
<rect width="150" height="150" transform="translate(0.881836)" fill="#2684C4"/>
<g clip-path="url(#clip0_1201_254)">
<path d="M81.6379 60.2163H83.3181V60.3003C82.5914 64.3748 81.8626 68.4492 81.1339 72.5236C80.4051 76.5981 79.6763 80.6725 78.9496 84.7469H77.2695C77.3534 84.2141 77.4373 83.6834 77.5212 83.1527L77.5218 83.1488C77.6057 82.6181 77.6896 82.0874 77.7735 81.5546C74.6904 85.0326 71.246 86.4103 66.4323 83.5708C66.4449 83.5414 66.4596 83.5142 66.4743 83.4869C66.4889 83.4597 66.5037 83.4321 66.5163 83.4028C66.6841 83.2224 66.8519 83.0399 67.0197 82.8574L67.021 82.8561C67.1888 82.6736 67.3566 82.4911 67.5244 82.3107C73.027 85.6374 78.1095 81.4454 78.9496 76.094C79.8317 70.4906 72.2961 66.223 68.4485 70.1294C68.4065 70.1168 68.3645 70.1021 68.3225 70.0874C68.2805 70.0727 68.2385 70.058 68.1965 70.0454C68.0587 69.8658 67.9189 69.6843 67.779 69.5026L67.7769 69.4999L67.776 69.4987L67.7739 69.496C67.634 69.3144 67.4942 69.1328 67.3564 68.9532V68.7852C73.1194 65.5509 76.5218 67.6259 79.5377 71.8936V71.6415C79.9157 69.5737 80.2962 67.5084 80.6765 65.4442C80.9977 63.701 81.3187 61.9587 81.6379 60.2163Z" fill="white"/>
<path d="M133.155 72.3727C133.877 68.3199 134.599 64.2671 135.32 60.2163H137C136.28 64.2671 135.557 68.3199 134.835 72.3727L134.8 72.5686L134.797 72.5865L134.793 72.6059C134.072 76.6536 133.351 80.7013 132.631 84.7469H130.951C131.669 80.7115 132.388 76.6741 133.108 72.6366L133.12 72.5686L133.155 72.3727Z" fill="white"/>
<path d="M89.5348 60.8884H87.4345C87.3799 61.2664 87.3232 61.6445 87.2665 62.0225C87.2098 62.4005 87.1531 62.7786 87.0985 63.1566H89.1147C89.1861 62.7786 89.2554 62.4005 89.3248 62.0225C89.3941 61.6445 89.4634 61.2664 89.5348 60.8884Z" fill="white"/>
<path d="M93.4832 63.1566C93.5378 62.7786 93.5945 62.4005 93.6512 62.0225C93.7079 61.6445 93.7646 61.2664 93.8192 60.8884H95.9195C95.8481 61.2664 95.7787 61.6445 95.7094 62.0225C95.6401 62.4005 95.5708 62.7786 95.4994 63.1566H93.4832Z" fill="white"/>
<path d="M102.304 60.8884H100.204C100.126 61.281 100.051 61.676 99.9758 62.0723C99.9125 62.4052 99.8491 62.7389 99.7839 63.0726V63.1566H101.884C101.938 62.8119 101.994 62.4652 102.05 62.1184L102.05 62.1166L102.051 62.1137L102.051 62.1126L102.053 62.0993L102.054 62.098L102.054 62.0964L102.054 62.0944L102.054 62.0922C102.11 61.7463 102.166 61.4003 102.22 61.0564C102.233 61.0271 102.247 60.9999 102.262 60.9726L102.262 60.9721C102.277 60.9449 102.292 60.9177 102.304 60.8884Z" fill="white"/>
<path d="M107.177 62.1485H108.857C108.701 63.06 108.548 63.9694 108.395 64.8788C108.241 65.7882 108.088 66.6976 107.933 67.6091H113.813L113.561 69.1213C112.566 69.1339 111.572 69.1486 110.579 69.1633C109.586 69.178 108.592 69.1927 107.597 69.2053C107.499 70.372 107.135 71.8837 106.75 73.4837C105.478 78.7618 103.976 85.0005 111.041 82.9828C110.999 83.2471 110.957 83.5135 110.915 83.7799L110.915 83.7808C110.873 84.0476 110.831 84.3143 110.789 84.5789C109.722 85.0662 108.109 85.1838 106.841 84.831C102.743 83.6924 104.017 78.1518 105.097 73.4505C105.468 71.8383 105.816 70.3247 105.917 69.1213H103.48V69.0373C103.522 68.7978 103.564 68.5605 103.606 68.3232C103.648 68.0859 103.69 67.8485 103.732 67.6091C103.797 67.6128 103.868 67.6172 103.942 67.6219C104.719 67.6704 105.961 67.7479 106.253 67.3571C106.395 66.5582 106.536 65.7593 106.677 64.9612C106.843 64.0221 107.009 63.0841 107.177 62.1485Z" fill="white"/>
<path d="M55.3433 67.6501C55.3999 67.3291 55.4566 67.0081 55.5111 66.685H50.3866C49.7019 70.562 49.0151 74.4411 48.3284 78.3202C47.6416 82.1993 46.9548 86.0785 46.2701 89.9555C46.2576 89.9848 46.2429 90.0121 46.2282 90.0393C46.2135 90.0666 46.1987 90.0941 46.1861 90.1235H51.0586C51.0586 90.1235 52.2359 82.1252 53.1589 77.3034C54.0819 72.4816 56.6868 70.3239 59.8251 70.1294C62.9635 69.9348 63.8524 73.2622 63.386 76.094C62.9502 78.7403 61.2094 81.2582 57.9706 80.9813C56.7945 80.6453 54.3266 79.6056 53.9149 78.5303H53.8309C53.7177 79.2015 53.6065 79.8728 53.4953 80.544L53.4945 80.549C53.3833 81.2202 53.2721 81.8915 53.1589 82.5627C53.6713 83.5876 54.8306 84.1253 55.9312 84.5789C62.0638 87.0908 66.7095 81.6638 67.6084 77.0181C69.3138 68.1888 61.1817 63.7447 55.1751 68.6172C55.2296 68.2941 55.2863 67.9731 55.3429 67.6521L55.3433 67.6501Z" fill="white"/>
<path d="M22.7476 66.517C34.6301 64.3366 32.3548 74.4837 30.42 83.1119C30.2962 83.6643 30.1736 84.2107 30.0564 84.7469H25.0999C25.3519 83.5411 25.604 82.3374 25.8561 81.1336C26.1081 79.9305 26.3601 78.7274 26.612 77.5222C24.2682 76.7997 20.0845 76.178 19.6393 79.1183C19.0596 82.9408 23.9657 80.9665 25.1839 80.2945C25.0579 80.8699 24.9319 81.4432 24.8058 82.0165C24.6798 82.5899 24.5538 83.1633 24.4278 83.7388C24.0792 83.9068 23.7286 84.0748 23.378 84.2427L23.3773 84.243C23.0267 84.411 22.6761 84.579 22.3276 84.7469C18.4379 86.0491 15.17 83.7136 14.5987 80.5465C13.3302 73.5233 21.7479 73.0613 26.864 74.4978C26.8766 74.4558 26.8913 74.4138 26.906 74.3718C26.9207 74.3298 26.9354 74.2878 26.948 74.2458C28.7269 69.739 22.8703 70.9955 20.0845 71.5931C19.3444 71.7519 18.821 71.8642 18.7152 71.8096C18.5345 71.1375 18.3518 70.4654 18.1691 69.7933C17.9864 69.1213 17.8037 68.4492 17.623 67.7771C19.1436 67.1807 20.6894 66.8947 22.7476 66.517Z" fill="white"/>
<path d="M47.8663 68.8692C45.9173 67.4579 42.1957 66.2313 40.1795 66.4414C38.1633 66.6514 36.7519 66.9286 35.517 68.1132C35.1809 69.6757 37.0711 71.7339 38.2053 72.0616C39.4066 69.2641 43.6322 71.4987 45.094 72.4816C45.5434 71.9356 45.9908 71.3895 46.4381 70.8435L46.4394 70.8419C46.8864 70.2963 47.3333 69.7508 47.7823 69.2053C47.7949 69.1507 47.8096 69.0939 47.8243 69.0372C47.839 68.9805 47.8537 68.9238 47.8663 68.8692Z" fill="white"/>
<path d="M88.1066 67.6091L85.0823 84.7469H83.4021L86.4264 67.6091H88.1066Z" fill="white"/>
<path d="M94.4913 67.6091H92.8111C92.4298 69.7047 92.0468 71.802 91.6636 73.9001L91.6411 74.0232L91.64 74.0294L91.6389 74.0354L91.6382 74.0391L91.6372 74.0449C91.1597 76.6592 90.682 79.2749 90.2068 81.8906C90.0929 82.4453 89.9865 83.0068 89.8821 83.5584C89.6401 84.8365 89.4081 86.0612 89.1147 87.0236C88.5641 88.8298 86.8465 88.771 85.5863 88.3593C85.5317 88.6114 85.475 88.8634 85.4183 89.1154C85.3616 89.3674 85.3049 89.6195 85.2503 89.8715C86.8297 90.4176 90.2068 90.3419 90.5009 88.1157C91.425 84.7973 93.5672 72.8681 94.4913 67.6091Z" fill="white"/>
<path d="M99.1958 67.6091H100.876C100.359 70.4654 99.8406 73.3217 99.3218 76.178C98.8031 79.0343 98.2843 81.8906 97.7677 84.7469H96.0875C96.6041 81.8906 97.1229 79.0343 97.6416 76.178C98.1604 73.3217 98.6792 70.4654 99.1958 67.6091Z" fill="white"/>
<path d="M34.8336 69.2026L34.8335 69.2023C34.7839 69.0694 34.732 68.9305 34.6769 68.7852C30.0854 75.1329 34.9157 76.5624 39.5525 77.9345C41.4143 78.4855 43.245 79.0272 44.4219 79.8744C45.2688 80.4834 45.4743 81.0806 45.8011 82.0306C45.8665 82.2209 45.9368 82.4253 46.0181 82.6467C46.8918 81.7058 47.3874 80.5633 47.4463 78.7823C47.5658 75.1558 44.2325 74.3149 41.0071 73.5011C39.4729 73.114 37.9632 72.7331 36.8611 72.0616C35.621 71.3114 35.3435 70.5682 34.8336 69.2026Z" fill="white"/>
<path fill-rule="evenodd" clip-rule="evenodd" d="M119.946 67.3571C119.414 67.5496 118.86 67.6429 118.321 67.7337C117.567 67.8608 116.843 67.9829 116.25 68.3652C116.321 68.6046 116.39 68.8419 116.46 69.0793C116.529 69.3166 116.598 69.5539 116.67 69.7933C120.198 68.7516 125.323 68.1216 126.751 71.6415C127.045 72.3724 127.297 73.9182 126.919 74.8339V75.0859C121.87 73.3385 111.78 73.3217 113.057 80.6305C114.225 87.3176 122.559 85.3686 125.659 81.8906C125.587 82.3404 125.518 82.7881 125.448 83.2358C125.379 83.6828 125.31 84.1298 125.239 84.5789C125.226 84.6083 125.211 84.6356 125.197 84.6629C125.182 84.6902 125.167 84.7175 125.155 84.7469H126.835C127.045 83.4794 127.315 82.196 127.582 80.9308C129.098 73.7437 130.49 67.1428 119.946 67.3571ZM116.418 83.1592C114.236 81.8654 114.361 79.5972 114.863 78.0346C115.366 76.4721 117.72 75.8756 119.694 75.59C121.668 75.3043 124.609 75.8504 126.583 76.346C126.207 78.6018 125.795 80.1178 124.146 81.311C121.248 83.7892 117.712 83.9266 116.418 83.1592Z" fill="white"/>
<path d="M42.3217 79.4544C41.9857 83.2012 35.2901 79.32 34.4249 78.7823C33.4167 79.8996 32.4086 81.0169 31.4005 82.1427C34.9373 84.9318 40.8683 86.5111 45.346 83.3188C45.8165 81.101 43.8675 79.9248 42.3217 79.4544Z" fill="white"/>
</g>
<defs>
<clipPath id="clip0_1201_254">
<rect width="122.53" height="29.9384" fill="white" transform="translate(14.4702 60.2163)"/>
</clipPath>
</defs>
</svg>
