<svg width="135" height="120" viewBox="0 0 135 120" fill="none" xmlns="http://www.w3.org/2000/svg">
<rect width="135" height="120" rx="3" fill="#CF1A1F"/>
<path d="M71.5251 43.4003C71.5251 43.5553 72.0675 43.8652 72.6873 44.0977C73.7334 44.4464 75.9417 47.0034 76.2516 48.2431C76.3291 48.4756 74.4695 49.5604 72.1062 50.6064C68.3869 52.3111 67.6121 52.5435 66.2173 52.3498C64.319 52.0786 64.2027 52.3498 65.4425 53.9383C66.2173 54.9456 66.2948 55.488 66.2948 59.1685C66.2948 62.7328 66.1786 63.4302 65.52 64.1663C65.0163 64.7474 64.5127 64.9024 63.8928 64.7474C63.3891 64.6312 63.0017 64.6699 63.0017 64.7862C63.0017 65.4835 63.9315 68.0405 64.164 68.0405C64.7451 68.0405 67.2634 64.9411 67.8833 63.5077L68.5031 62.0355L69.0455 63.5852C69.9754 66.1422 70.3628 66.2971 72.5324 65.0574C73.5784 64.4375 74.9731 63.6626 75.593 63.3527C76.7166 62.8103 76.7553 62.6553 76.8715 59.9821C76.9877 57.4638 76.9103 57.1926 76.2516 57.1926C75.8255 57.1926 74.3145 57.9675 72.9198 58.9361C71.4863 59.9046 70.0916 60.6795 69.8591 60.6795C68.7356 60.6407 68.3869 60.0208 68.6581 58.5874C68.8906 57.1926 68.9293 57.1539 70.324 57.3864C71.8737 57.6576 77.3752 56.0691 77.6464 55.2943C77.8788 54.5969 76.949 53.7058 76.0579 53.7058C75.593 53.7058 74.5857 54.1707 73.8109 54.7131C72.9973 55.2555 71.6413 55.7979 70.7889 55.9141C69.3942 56.1079 69.2005 56.0304 69.2005 55.333C69.2005 54.9068 69.123 54.287 69.0068 54.0158C68.8518 53.5896 69.123 53.5121 70.1691 53.6283C71.0989 53.7446 72.2999 53.4734 73.7721 52.8147C75.6595 51.9803 77.1427 51.3813 77.1427 51.3813C77.1427 51.3813 77.9305 52.8574 78.4212 54.4807C78.9249 56.0691 79.661 58.2387 80.0871 59.2847C80.9395 61.4543 80.7845 61.803 78.5374 63.0428L77.1427 63.8176L78.6924 63.5852C79.5448 63.4689 81.4044 63.0428 81.4044 63.0428C81.4044 63.0428 82.2567 64.0501 84.1164 67.6144C86.6734 72.4572 88.7655 75.1304 90.7801 76.099C92.7172 77.0288 93.0271 76.4477 92.2523 73.232C91.4 69.784 91.2837 69.629 90.6638 71.1012C90.1602 72.3022 90.1215 72.3022 89.2304 71.7211C88.7267 71.4111 87.7969 70.4038 87.1383 69.474C85.8598 67.6919 83.1478 62.5004 83.1478 61.8417C83.1478 61.8417 83.9227 60.447 84.8912 59.246C86.7509 56.9602 87.0995 55.5267 85.8985 54.8681C84.5813 54.1707 84.0389 54.4032 84.1939 55.5267C84.3876 56.6503 82.8766 59.401 82.1792 59.246C81.6375 59.1475 79.2158 51.406 79.661 50.6064C80.2421 50.3111 81.2126 50.085 81.7918 49.8316C83.5352 49.018 82.9153 48.5531 80.862 48.0494C79.506 47.7395 79.0411 47.3908 78.4987 46.306C77.3752 44.1364 76.4066 43.5165 73.8496 43.3228C72.5711 43.2453 71.5251 43.2841 71.5251 43.4003ZM74.1983 61.6868C73.5009 62.5391 71.5638 63.4689 71.1376 63.1977C70.5952 62.8491 70.6727 61.8417 71.2539 61.8417C71.5251 61.8417 72.3386 61.5318 73.0748 61.1056C74.4695 60.3695 75.0506 60.6407 74.1983 61.6868Z" fill="white"/>
<path d="M90.509 45.7637C90.509 46.926 90.509 45.8412 90.509 55.7205V65.7161C93.4922 68.428 97.6377 68.4281 100.195 65.6386V55.6818C100.195 45.8412 100.195 46.5385 100.195 45.7637C97.8377 43.5711 92.7661 43.6947 90.509 45.7637ZM95.3518 46.7323C95.2356 47.1584 95.2744 47.5071 95.4293 47.5071C95.623 47.5071 96.1267 47.7783 96.5529 48.0882C97.2502 48.6306 97.2115 48.6306 96.2042 48.282C94.6932 47.7396 94.577 47.7783 94.0733 48.7469C93.7247 49.483 93.6472 49.5217 93.6472 48.9406C93.6084 48.127 94.3058 46.6548 94.9257 46.2674C95.5843 45.8412 95.623 45.8799 95.3518 46.7323ZM96.3592 50.4903C96.7466 50.3741 97.0953 50.4128 97.0953 50.6065C97.0953 50.9939 96.088 51.3814 95.1194 51.3814C94.4995 51.3814 94.422 51.1876 94.6157 50.2966C95.0032 48.6694 95.3518 48.3594 95.4681 49.5605C95.5843 50.4515 95.778 50.6453 96.3592 50.4903ZM95.0806 53.4735C94.6932 53.7447 94.3833 54.3645 94.3833 54.8294C94.3833 55.2556 94.2283 55.643 93.9959 55.643C93.8021 55.643 93.6084 55.0232 93.6084 54.287C93.6084 53.0473 93.7247 52.9311 94.6932 52.9311C95.623 52.9698 95.6618 53.0085 95.0806 53.4735ZM95.5456 54.8682C95.1969 55.5268 95.2356 55.643 96.0105 55.643C96.8628 55.6818 96.8628 55.6818 96.1654 56.2242C95.3906 56.8053 93.8021 57.0378 94.0733 56.4954C95.0032 54.6357 95.3518 54.0933 95.623 54.0933C95.8168 54.0933 95.778 54.442 95.5456 54.8682ZM97.6377 57.5802C97.0565 58.1613 93.6084 58.5487 93.6084 58.0451C93.6084 57.5802 94.6157 57.309 96.7078 57.2315C97.5602 57.1927 97.9088 57.309 97.6377 57.5802ZM94.9257 60.1372C95.5068 60.3696 95.5068 60.4471 94.8869 60.912C94.2283 61.4157 94.2283 61.4157 94.8869 61.4544C95.7005 61.4544 95.778 62.2293 94.9644 62.2293C94.6545 62.2293 94.3833 62.423 94.3833 62.6167C94.3833 62.8491 94.8482 62.9266 95.4681 62.8104L96.5141 62.5779L95.4293 63.1978C94.0733 63.9727 93.8409 63.779 93.8409 62.0355C93.8409 61.2994 93.6859 60.6796 93.4922 60.6796C93.3372 60.6796 93.2985 60.4858 93.4147 60.2921C93.6859 59.8272 94.0733 59.8272 94.9257 60.1372ZM97.0953 63.779C97.0953 64.2439 95.4293 64.9412 94.3058 64.9412C93.2598 64.9412 93.6859 64.4763 95.2744 63.8952C96.8628 63.314 97.0953 63.314 97.0953 63.779Z" fill="white"/>
<path d="M82.5667 44.2914C80.7458 44.6789 80.6683 44.7564 81.5981 45.7637C82.8379 47.0809 85.2012 47.1584 85.0075 45.9186C84.8525 44.9113 83.6127 44.0977 82.5667 44.2914Z" fill="white"/>
<path d="M34.526 48.6305C34.3711 48.9405 34.9135 49.7541 35.9983 50.8001C37.7417 52.4661 41.5772 54.2482 45.6839 55.2943C47.4273 55.7204 47.5823 55.6817 49.6356 54.4419C50.7979 53.7446 51.7277 52.9697 51.6502 52.7372C51.1078 51.1488 35.3396 47.352 34.526 48.6305Z" fill="white"/>
<path d="M57.4617 54.5582C54.6335 58.355 54.0911 61.5318 55.9895 63.4302C56.6094 64.0501 57.423 64.5538 57.7716 64.5538C58.7789 64.5538 57.8491 65.5223 55.4083 67.1108C49.4033 70.9463 47.8536 74.2394 52.0765 74.2394C55.0209 74.2394 65.094 71.5661 64.4741 70.9463C64.3966 70.8688 63.2731 70.9463 61.9946 71.14C58.469 71.7211 54.0911 71.6436 54.0911 70.985C54.0911 70.7138 56.067 68.5442 58.469 66.2197L62.8469 61.9968H60.3286C58.0041 62.0355 57.7716 61.958 57.2292 61.0282C56.7256 60.0984 56.7643 59.7497 57.6941 56.7665C58.2365 54.9844 58.624 53.4734 58.5852 53.3959C58.5077 53.3184 58.0041 53.8608 57.4617 54.5582Z" fill="white"/>
<path d="M38.4388 54.8681C37.2765 56.2628 36.3079 59.246 36.0367 62.2292C35.8043 64.7087 36.7728 66.6846 38.3613 67.1107C39.6785 67.4207 44.8313 66.3359 47.0396 65.2898C48.8992 64.3988 53.1997 60.447 54.052 58.8198C54.4007 58.1225 54.0907 58.2774 52.5023 59.4785C48.8218 62.2292 41.7319 63.8564 39.5236 62.4229C38.5163 61.7643 38.4775 61.6868 38.71 58.7036C38.8649 56.9989 39.1361 55.2555 39.4073 54.8294C40.066 53.5509 39.5623 53.5509 38.4388 54.8681Z" fill="white"/>
<path d="M77.7241 65.716C77.7241 66.1421 77.4916 66.4908 77.1817 66.4908C76.7168 66.4908 76.7168 66.6458 77.1817 67.6144C77.8791 69.0091 78.7314 69.7452 79.2738 69.3965C79.8549 69.0478 79.7387 66.762 79.0413 65.7935C78.3052 64.7474 77.7241 64.7087 77.7241 65.716Z" fill="white"/>
<path d="M75.2055 65.716C75.0505 65.9484 74.6244 66.0259 74.2369 65.9097C73.7333 65.7547 73.4233 66.0259 73.0747 66.8783C72.6872 67.8468 72.6872 68.1955 73.2296 69.0091C73.5783 69.5515 74.0432 69.9777 74.2757 69.9777C74.6631 69.9777 75.5542 68.1955 75.9803 66.3746C76.2515 65.3286 75.7091 64.9024 75.2055 65.716Z" fill="white"/>
<path d="M66.4887 67.3432C66.4887 67.8856 66.295 68.8542 66.0625 69.5128C65.5976 70.8688 66.3337 72.7672 67.6122 73.4646C68.7745 74.0844 68.8133 73.9682 67.9609 71.9536C67.1086 69.939 67.2248 68.0406 68.2321 68.0406C68.5421 68.0406 69.3944 68.9704 70.1305 70.1327C71.4865 72.2248 72.1451 72.651 75.2058 73.2321C76.4068 73.5033 79.8936 72.9996 80.3585 72.496C80.591 72.2635 77.8403 69.5903 77.2979 69.5903C77.1816 69.5903 77.1429 70.0165 77.2591 70.5589C77.4141 71.4499 77.3366 71.5274 75.8256 71.5274C73.5786 71.5274 71.9514 70.7526 70.2855 68.8542C69.5106 68.0019 68.5421 67.2658 68.1546 67.2658C67.7285 67.2658 67.2248 67.072 66.9536 66.8008C66.6049 66.4522 66.4887 66.5684 66.4887 67.3432Z" fill="white"/>
</svg>
