<svg width="151" height="150" viewBox="0 0 151 150" fill="none" xmlns="http://www.w3.org/2000/svg">
<rect width="150" height="150" transform="translate(0.881836)" fill="#FDB006"/>
<g clip-path="url(#clip0_1204_111)">
<path d="M15.287 97.6941H19.0463C20.1441 97.6941 21.0976 97.8122 21.9068 98.0484C22.7159 98.2846 23.3851 98.6235 23.9144 99.0653C24.448 99.5027 24.8438 100.036 25.1018 100.666C25.3643 101.292 25.4955 101.996 25.4955 102.779C25.4955 103.522 25.3665 104.211 25.1084 104.845C24.8504 105.475 24.4567 106.022 23.9275 106.485C23.3982 106.945 22.7291 107.306 21.9199 107.568C21.1108 107.826 20.1573 107.955 19.0594 107.955L15.287 107.948V97.6941ZM19.5581 106.151C20.1791 106.151 20.7237 106.072 21.1917 105.915C21.6597 105.753 22.0489 105.525 22.3595 105.232C22.6744 104.939 22.9106 104.585 23.068 104.17C23.2255 103.754 23.3042 103.29 23.3042 102.779C23.3042 102.276 23.2255 101.823 23.068 101.421C22.9106 101.014 22.6744 100.67 22.3595 100.391C22.0489 100.106 21.6597 99.8876 21.1917 99.7345C20.7237 99.5814 20.1791 99.5049 19.5581 99.5049H17.3668V106.151H19.5581ZM28.3625 99.1506C28.1701 99.1506 27.9951 99.1243 27.8377 99.0719C27.6846 99.015 27.5534 98.9406 27.444 98.8488C27.3347 98.7526 27.2494 98.6432 27.1881 98.5208C27.1313 98.3939 27.1029 98.2605 27.1029 98.1206C27.1029 97.9762 27.1313 97.8428 27.1881 97.7204C27.2494 97.5935 27.3347 97.4842 27.444 97.3923C27.5534 97.3005 27.6846 97.2283 27.8377 97.1758C27.9951 97.119 28.1701 97.0905 28.3625 97.0905C28.5593 97.0905 28.7343 97.119 28.8874 97.1758C29.0448 97.2283 29.1782 97.3005 29.2876 97.3923C29.3969 97.4842 29.48 97.5935 29.5369 97.7204C29.5981 97.8428 29.6287 97.9762 29.6287 98.1206C29.6287 98.2605 29.5981 98.3939 29.5369 98.5208C29.48 98.6432 29.3969 98.7526 29.2876 98.8488C29.1782 98.9406 29.0448 99.015 28.8874 99.0719C28.7343 99.1243 28.5593 99.1506 28.3625 99.1506ZM27.3915 100.207H29.3335V107.948H27.3915V100.207ZM33.0403 109.261C33.2852 109.348 33.5345 109.42 33.7882 109.477C34.0419 109.538 34.2868 109.586 34.523 109.621C34.7636 109.661 34.9932 109.687 35.2119 109.7C35.4306 109.718 35.6252 109.726 35.7958 109.726C36.3119 109.726 36.7602 109.663 37.1407 109.536C37.5256 109.414 37.8449 109.248 38.0986 109.038C38.3566 108.828 38.5491 108.583 38.6759 108.303C38.8028 108.027 38.8662 107.734 38.8662 107.424V107.089C38.7 107.203 38.5053 107.312 38.2823 107.417C38.0592 107.522 37.8143 107.614 37.5475 107.693C37.2807 107.771 36.9964 107.835 36.6946 107.883C36.3972 107.931 36.0888 107.955 35.7695 107.955C35.1353 107.955 34.5492 107.861 34.0113 107.673C33.4733 107.48 33.0075 107.214 32.6138 106.873C32.2202 106.527 31.9118 106.114 31.6888 105.633C31.4701 105.151 31.3607 104.618 31.3607 104.032C31.3607 103.433 31.4767 102.89 31.7085 102.405C31.9403 101.915 32.2596 101.497 32.6663 101.152C33.0775 100.806 33.563 100.539 34.1228 100.351C34.6826 100.163 35.2906 100.069 35.9467 100.069C36.2266 100.069 36.5043 100.087 36.7799 100.122C37.0554 100.157 37.3179 100.205 37.5672 100.266C37.8208 100.327 38.057 100.401 38.2757 100.489C38.4988 100.572 38.6956 100.664 38.8662 100.765V100.207H40.8082V107.063C40.8082 107.767 40.701 108.39 40.4867 108.933C40.2724 109.475 39.9574 109.93 39.5419 110.297C39.1308 110.669 38.6191 110.949 38.0067 111.137C37.3944 111.329 36.6924 111.426 35.9008 111.426C35.6165 111.426 35.3212 111.413 35.0151 111.386C34.7089 111.364 34.4005 111.329 34.09 111.281C33.7838 111.238 33.4799 111.183 33.1781 111.117C32.8806 111.056 32.5942 110.984 32.3186 110.901L33.0403 109.261ZM33.4011 104.012C33.4011 104.323 33.4624 104.616 33.5848 104.891C33.7117 105.162 33.891 105.401 34.1228 105.606C34.3546 105.808 34.6345 105.967 34.9626 106.085C35.2906 106.199 35.6602 106.256 36.0713 106.256C36.3381 106.256 36.6027 106.232 36.8652 106.184C37.132 106.131 37.3857 106.059 37.6262 105.967C37.8711 105.875 38.0986 105.764 38.3085 105.633C38.5228 105.501 38.7087 105.355 38.8662 105.193V102.641C38.6694 102.483 38.4616 102.35 38.2429 102.241C38.0242 102.131 37.8012 102.042 37.5737 101.972C37.3463 101.902 37.1167 101.851 36.8849 101.821C36.653 101.786 36.4278 101.768 36.2091 101.768C35.763 101.768 35.365 101.827 35.0151 101.945C34.6695 102.064 34.3765 102.225 34.1359 102.431C33.8997 102.632 33.7182 102.868 33.5914 103.139C33.4645 103.411 33.4011 103.702 33.4011 104.012ZM44.0426 99.1506C43.8501 99.1506 43.6752 99.1243 43.5177 99.0719C43.3646 99.015 43.2334 98.9406 43.1241 98.8488C43.0147 98.7526 42.9294 98.6432 42.8682 98.5208C42.8114 98.3939 42.7829 98.2605 42.7829 98.1206C42.7829 97.9762 42.8114 97.8428 42.8682 97.7204C42.9294 97.5935 43.0147 97.4842 43.1241 97.3923C43.2334 97.3005 43.3646 97.2283 43.5177 97.1758C43.6752 97.119 43.8501 97.0905 44.0426 97.0905C44.2394 97.0905 44.4144 97.119 44.5674 97.1758C44.7249 97.2283 44.8583 97.3005 44.9676 97.3923C45.077 97.4842 45.1601 97.5935 45.2169 97.7204C45.2782 97.8428 45.3088 97.9762 45.3088 98.1206C45.3088 98.2605 45.2782 98.3939 45.2169 98.5208C45.1601 98.6432 45.077 98.7526 44.9676 98.8488C44.8583 98.9406 44.7249 99.015 44.5674 99.0719C44.4144 99.1243 44.2394 99.1506 44.0426 99.1506ZM43.0716 100.207H45.0136V107.948H43.0716V100.207ZM48.6744 101.663H46.8046V100.207H48.6744V97.7991H50.6164V100.207H52.4862V101.663H50.6164V107.948H48.6744V101.663ZM53.8443 105.508C53.8443 105.136 53.9252 104.797 54.087 104.491C54.2488 104.185 54.4916 103.922 54.8152 103.704C55.1389 103.481 55.5413 103.31 56.0224 103.192C56.5079 103.07 57.0721 103.008 57.7151 103.008C58.1918 103.008 58.6926 103.043 59.2175 103.113C59.7467 103.183 60.2912 103.29 60.8511 103.435C60.8292 103.19 60.7549 102.965 60.628 102.759C60.5012 102.549 60.324 102.37 60.0966 102.221C59.8735 102.068 59.6024 101.95 59.2831 101.867C58.9682 101.784 58.6095 101.742 58.2071 101.742C57.9884 101.742 57.7479 101.755 57.4854 101.781C57.223 101.808 56.9518 101.847 56.6719 101.9C56.392 101.952 56.1143 102.018 55.8387 102.096C55.5675 102.175 55.3139 102.269 55.0777 102.378L54.4872 100.784C54.7803 100.679 55.093 100.583 55.4254 100.496C55.7622 100.408 56.1055 100.334 56.4554 100.272C56.8053 100.207 57.1552 100.157 57.5051 100.122C57.855 100.087 58.194 100.069 58.522 100.069C59.9698 100.069 61.0457 100.439 61.7499 101.178C62.4541 101.917 62.8062 103.05 62.8062 104.576V107.948H60.8642V107.22C60.663 107.338 60.4421 107.45 60.2016 107.555C59.9654 107.66 59.7073 107.752 59.4274 107.83C59.1475 107.909 58.8457 107.97 58.522 108.014C58.2027 108.062 57.8638 108.086 57.5051 108.086C56.9015 108.086 56.3701 108.021 55.9109 107.889C55.456 107.758 55.0755 107.577 54.7693 107.345C54.4632 107.113 54.2313 106.842 54.0739 106.531C53.9208 106.216 53.8443 105.875 53.8443 105.508ZM55.8912 105.442C55.8912 105.569 55.924 105.692 55.9896 105.81C56.0552 105.923 56.1602 106.026 56.3045 106.118C56.4489 106.206 56.6326 106.278 56.8556 106.335C57.0831 106.387 57.3564 106.413 57.6757 106.413C58.0169 106.413 58.3471 106.383 58.6664 106.321C58.9857 106.26 59.2831 106.179 59.5586 106.079C59.8342 105.978 60.0835 105.862 60.3065 105.731C60.5296 105.6 60.7155 105.464 60.8642 105.324V104.983C60.5668 104.9 60.2716 104.83 59.9785 104.773C59.6898 104.716 59.4121 104.673 59.1453 104.642C58.8829 104.607 58.6336 104.583 58.3974 104.57C58.1656 104.557 57.9622 104.55 57.7872 104.55C57.4242 104.55 57.1224 104.574 56.8819 104.622C56.6413 104.67 56.4467 104.736 56.298 104.819C56.1493 104.898 56.0443 104.992 55.983 105.101C55.9218 105.21 55.8912 105.324 55.8912 105.442ZM65.4304 97.0643H67.3724V107.948H65.4304V97.0643ZM73.9462 102.759C73.9462 102.029 74.084 101.348 74.3596 100.719C74.6351 100.084 75.0331 99.5355 75.5536 99.0719C76.0785 98.6039 76.717 98.2365 77.4693 97.9697C78.226 97.7029 79.0811 97.5695 80.0346 97.5695C80.87 97.5695 81.6354 97.6548 82.3308 97.8253C83.0306 97.9915 83.6801 98.2474 84.2793 98.5929L83.3215 100.167C83.1421 100.049 82.9344 99.9444 82.6982 99.8526C82.4664 99.7607 82.2171 99.6842 81.9503 99.623C81.6879 99.5574 81.4145 99.5071 81.1302 99.4721C80.8503 99.4371 80.5725 99.4196 80.297 99.4196C79.6322 99.4196 79.0395 99.5027 78.519 99.6689C77.9986 99.8307 77.559 100.06 77.2003 100.358C76.8461 100.651 76.5749 101.003 76.3868 101.414C76.2031 101.821 76.1113 102.269 76.1113 102.759C76.1113 103.266 76.2075 103.732 76.3999 104.156C76.5924 104.581 76.8701 104.948 77.2331 105.259C77.6005 105.565 78.0467 105.805 78.5715 105.98C79.1008 106.151 79.6978 106.236 80.3626 106.236C80.6644 106.236 80.964 106.214 81.2614 106.171C81.5588 106.127 81.8453 106.068 82.1209 105.993C82.4008 105.915 82.6698 105.823 82.9278 105.718C83.1859 105.609 83.4264 105.49 83.6495 105.364L84.6074 106.938C84.0475 107.297 83.4002 107.579 82.6654 107.784C81.9306 107.986 81.1499 108.086 80.3232 108.086C79.2691 108.086 78.3441 107.951 77.5481 107.679C76.752 107.404 76.0872 107.028 75.5536 106.551C75.02 106.07 74.6176 105.506 74.3464 104.858C74.0796 104.207 73.9462 103.507 73.9462 102.759ZM86.2935 104.051C86.2935 103.527 86.4006 103.026 86.6149 102.549C86.8293 102.068 87.1376 101.644 87.54 101.276C87.9424 100.909 88.4344 100.616 89.0162 100.397C89.6022 100.178 90.2671 100.069 91.0106 100.069C91.7498 100.069 92.4146 100.181 93.0051 100.404C93.5999 100.622 94.1029 100.924 94.514 101.309C94.9295 101.694 95.2466 102.147 95.4653 102.667C95.6884 103.188 95.7999 103.745 95.7999 104.34C95.7999 104.414 95.7977 104.495 95.7934 104.583C95.7934 104.666 95.789 104.742 95.7802 104.812H88.4585C88.5416 105.044 88.675 105.256 88.8587 105.449C89.0468 105.641 89.2808 105.808 89.5607 105.947C89.8406 106.087 90.1643 106.197 90.5317 106.276C90.8991 106.35 91.3058 106.387 91.752 106.387C92.1981 106.387 92.642 106.341 93.0838 106.249C93.5255 106.153 93.9476 106.033 94.35 105.888L95.0061 107.371C94.7524 107.489 94.4943 107.594 94.2319 107.686C93.9739 107.774 93.7027 107.848 93.4184 107.909C93.1385 107.966 92.8432 108.01 92.5327 108.04C92.2265 108.071 91.9029 108.086 91.5617 108.086C90.6913 108.086 89.9281 107.981 89.272 107.771C88.616 107.561 88.067 107.275 87.6253 106.912C87.1835 106.549 86.8511 106.122 86.6281 105.633C86.405 105.143 86.2935 104.616 86.2935 104.051ZM93.7399 103.297C93.6699 103.083 93.5605 102.884 93.4118 102.7C93.2675 102.512 93.086 102.35 92.8673 102.214C92.6486 102.074 92.3949 101.965 92.1062 101.886C91.8176 101.808 91.5005 101.768 91.1549 101.768C90.7875 101.768 90.4529 101.81 90.1512 101.893C89.8494 101.976 89.5847 102.088 89.3573 102.228C89.1299 102.368 88.9396 102.529 88.7865 102.713C88.6378 102.897 88.5285 103.091 88.4585 103.297H93.7399ZM97.8928 100.207H99.8347V100.863C100.351 100.57 100.843 100.364 101.311 100.246C101.783 100.128 102.245 100.069 102.695 100.069C103.286 100.069 103.832 100.157 104.335 100.332C104.838 100.502 105.274 100.758 105.641 101.099C106.008 101.44 106.295 101.867 106.5 102.378C106.71 102.886 106.815 103.474 106.815 104.143V107.948H104.88V104.458C104.88 104.034 104.819 103.656 104.696 103.323C104.578 102.986 104.405 102.704 104.178 102.477C103.955 102.245 103.682 102.07 103.358 101.952C103.039 101.83 102.68 101.768 102.282 101.768C102.072 101.768 101.855 101.79 101.632 101.834C101.414 101.878 101.197 101.941 100.983 102.024C100.773 102.103 100.57 102.204 100.373 102.326C100.176 102.444 99.9966 102.58 99.8347 102.733V107.948H97.8928V100.207ZM110.371 101.663H108.501V100.207H110.371V97.7991H112.313V100.207H114.183V101.663H112.313V107.948H110.371V101.663ZM115.908 100.207H117.85V101.322C118.279 101.003 118.732 100.727 119.208 100.496C119.685 100.264 120.16 100.087 120.632 99.9641L121.203 101.742C120.455 101.816 119.797 101.985 119.228 102.247C118.664 102.505 118.205 102.871 117.85 103.343V107.948H115.908V100.207ZM122.285 105.508C122.285 105.136 122.366 104.797 122.528 104.491C122.69 104.185 122.933 103.922 123.256 103.704C123.58 103.481 123.982 103.31 124.464 103.192C124.949 103.07 125.513 103.008 126.156 103.008C126.633 103.008 127.134 103.043 127.659 103.113C128.188 103.183 128.732 103.29 129.292 103.435C129.27 103.19 129.196 102.965 129.069 102.759C128.942 102.549 128.765 102.37 128.538 102.221C128.315 102.068 128.044 101.95 127.724 101.867C127.409 101.784 127.051 101.742 126.648 101.742C126.43 101.742 126.189 101.755 125.927 101.781C125.664 101.808 125.393 101.847 125.113 101.9C124.833 101.952 124.555 102.018 124.28 102.096C124.009 102.175 123.755 102.269 123.519 102.378L122.928 100.784C123.221 100.679 123.534 100.583 123.867 100.496C124.203 100.408 124.547 100.334 124.897 100.272C125.247 100.207 125.596 100.157 125.946 100.122C126.296 100.087 126.635 100.069 126.963 100.069C128.411 100.069 129.487 100.439 130.191 101.178C130.895 101.917 131.247 103.05 131.247 104.576V107.948H129.305V107.22C129.104 107.338 128.883 107.45 128.643 107.555C128.407 107.66 128.149 107.752 127.869 107.83C127.589 107.909 127.287 107.97 126.963 108.014C126.644 108.062 126.305 108.086 125.946 108.086C125.343 108.086 124.811 108.021 124.352 107.889C123.897 107.758 123.517 107.577 123.211 107.345C122.904 107.113 122.673 106.842 122.515 106.531C122.362 106.216 122.285 105.875 122.285 105.508ZM124.332 105.442C124.332 105.569 124.365 105.692 124.431 105.81C124.496 105.923 124.601 106.026 124.746 106.118C124.89 106.206 125.074 106.278 125.297 106.335C125.524 106.387 125.798 106.413 126.117 106.413C126.458 106.413 126.788 106.383 127.108 106.321C127.427 106.26 127.724 106.179 128 106.079C128.275 105.978 128.525 105.862 128.748 105.731C128.971 105.6 129.157 105.464 129.305 105.324V104.983C129.008 104.9 128.713 104.83 128.42 104.773C128.131 104.716 127.853 104.673 127.586 104.642C127.324 104.607 127.075 104.583 126.839 104.57C126.607 104.557 126.403 104.55 126.228 104.55C125.865 104.55 125.564 104.574 125.323 104.622C125.082 104.67 124.888 104.736 124.739 104.819C124.59 104.898 124.485 104.992 124.424 105.101C124.363 105.21 124.332 105.324 124.332 105.442ZM133.872 97.0643H135.814V107.948H133.872V97.0643Z" fill="white"/>
<path fill-rule="evenodd" clip-rule="evenodd" d="M97.1091 48.7074C94.5056 42.227 88.0535 38.6048 78.715 38.8029C77.951 39.3972 72.4044 40.1329 71.0744 40.5008C70.4235 40.5008 69.7444 40.5008 69.0935 40.5008C64.7072 42.0006 59.9814 44.2079 57.4911 47.5754C55.8498 49.7827 54.4915 52.6692 53.5293 55.499C53.5293 56.4329 53.5293 57.395 53.5293 58.3289C52.5389 61.9794 54.2651 66.1393 55.5102 68.5163C58.4533 74.1477 60.802 80.7413 68.5275 80.6847C68.7256 81.0526 68.8954 81.4488 69.0935 81.8166C70.7348 83.1184 73.027 83.7409 75.3192 84.3635C76.0549 84.5616 76.9888 84.1654 77.3001 84.0805C77.951 84.0805 78.6301 84.0805 79.281 84.0805C82.79 82.9769 85.733 81.279 88.0535 78.9868C90.7985 76.2701 93.2039 72.9026 94.8452 69.0823C95.6092 67.3278 95.9205 64.9224 96.5431 63.1396C96.5431 62.7717 96.5431 62.3756 96.5431 62.0077C96.7412 61.9228 96.911 61.8096 97.1091 61.7247C98.6089 58.4704 98.4108 51.99 97.1091 48.7074ZM74.1872 41.0668C75.5739 41.5478 77.1586 40.7838 78.149 41.6327C78.715 41.6327 79.281 41.6327 79.847 41.6327C79.4508 42.3402 78.1773 42.3968 77.0171 42.1987C76.1398 42.0572 72.3478 42.0289 71.3574 42.7647C70.9895 42.7647 70.5933 42.7647 70.2255 42.7647C70.8763 41.4629 73.0836 41.9157 74.1872 41.0668ZM75.0362 46.1605C75.0362 45.9624 75.0362 45.7926 75.0362 45.5945C75.6871 45.5945 76.3662 45.5945 77.0171 45.5945C77.0171 45.7926 77.0171 45.9624 77.0171 46.1605C76.3662 46.1605 75.6871 46.1605 75.0362 46.1605ZM77.0171 48.1414C76.4794 47.9716 76.7624 48.1414 76.4511 47.8584C76.9888 48.0282 76.7058 47.8584 77.0171 48.1414ZM75.8852 47.2924C75.8852 47.3773 75.8852 47.4905 75.8852 47.5754C75.9701 47.5754 76.0832 47.5754 76.1681 47.5754C76.1681 47.6603 76.1681 47.7735 76.1681 47.8584C75.6022 47.8584 75.0362 47.8584 74.4702 47.8584C74.5551 47.6603 74.6683 47.4905 74.7532 47.2924C75.4324 47.4905 75.206 47.4905 75.8852 47.2924ZM81.5449 73.6101C82.0825 73.7799 81.7995 73.6101 82.1108 73.8931C80.8374 74.6288 79.281 75.6193 77.8661 76.1569C76.9605 76.4965 76.253 76.2135 75.6022 76.7229C75.1211 76.7229 74.6683 76.7229 74.1872 76.7229C74.8381 75.3929 80.1582 74.7703 81.5449 73.6101ZM78.715 52.3862C79.6489 52.8956 80.2431 53.3766 80.6959 54.3671C80.045 54.0558 79.7621 53.7162 78.998 53.5181C78.9131 53.1502 78.7999 52.7541 78.715 52.3862ZM85.7896 73.8931C85.9877 73.8931 86.1575 73.8931 86.3556 73.8931C85.6764 75.5344 83.4126 75.4778 82.3938 76.7229C82.1957 76.7229 82.0259 76.7229 81.8278 76.7229C82.507 75.2797 84.8558 75.1382 85.7896 73.8931ZM84.6577 70.4972C84.7426 70.4972 84.8558 70.4972 84.9407 70.4972C84.9407 70.6953 84.9407 70.8651 84.9407 71.0632C84.8558 71.0632 84.7426 71.0632 84.6577 71.0632C84.6577 70.8651 84.6577 70.6953 84.6577 70.4972ZM82.3938 46.7265C83.356 47.0095 83.7804 47.5471 84.6577 47.8584C84.6577 48.0565 84.6577 48.2263 84.6577 48.4244C83.8936 47.9999 82.8749 47.4339 82.3938 46.7265ZM85.2237 70.4972C85.3086 70.2991 85.4218 70.1294 85.5067 69.9313C85.5916 69.9313 85.7047 69.9313 85.7896 69.9313C86.0443 69.9879 85.2237 70.4972 85.2237 70.4972ZM86.0726 59.1778C85.9877 58.6119 85.8745 58.0459 85.7896 57.4799C85.9877 57.5648 86.1575 57.678 86.3556 57.7629C86.3556 58.244 86.3556 58.6968 86.3556 59.1778C86.2707 59.1778 86.1575 59.1778 86.0726 59.1778ZM85.2237 50.4053C85.9028 50.8864 86.2424 51.6221 86.9216 52.1032C86.9216 52.3013 86.9216 52.4711 86.9216 52.6692C86.7235 52.6692 86.5537 52.6692 86.3556 52.6692L85.2237 50.4053ZM86.6386 46.7265C85.5633 46.1039 84.5445 45.0286 83.5258 44.4626C82.5919 43.9532 81.6015 44.123 80.9789 43.3307C83.5541 43.557 84.8558 45.1418 86.6386 46.1605C86.6386 46.3586 86.6386 46.5284 86.6386 46.7265ZM82.1108 48.4244C82.1108 48.6225 82.1108 48.7923 82.1108 48.9904C82.0259 48.9904 81.9127 48.9904 81.8278 48.9904C81.8278 48.7923 81.8278 48.6225 81.8278 48.4244C81.9127 48.4244 82.0259 48.4244 82.1108 48.4244ZM81.8278 68.7993C82.4504 68.7144 82.3655 68.771 82.6768 68.5163C82.7617 68.5163 82.8749 68.5163 82.9598 68.5163C82.4787 69.2521 81.743 69.4785 81.2619 70.2143C81.0638 70.2143 80.894 70.2143 80.6959 70.2143C80.6959 70.1294 80.6959 70.0162 80.6959 69.9313C81.3751 69.6766 81.6015 69.5068 81.8278 68.7993ZM77.5831 50.4053C77.102 50.0657 77.2152 50.2355 77.0171 49.5563C78.2622 50.094 80.2431 50.4619 80.9789 51.5372C79.9318 51.141 78.4037 51.0561 77.5831 50.4053ZM73.3383 49.5563C73.3383 49.6412 73.3383 49.7544 73.3383 49.8393C71.4423 50.5751 68.6124 50.8864 67.1126 52.1032C67.0277 52.1032 66.9145 52.1032 66.8296 52.1032C67.7352 50.7166 69.6595 50.6883 70.7914 49.5563C71.6404 49.5563 72.4893 49.5563 73.3383 49.5563ZM71.9234 48.4244C71.9234 48.2263 71.9234 48.0565 71.9234 47.8584C72.0083 47.8584 72.1215 47.8584 72.2064 47.8584C72.2064 48.0565 72.2064 48.2263 72.2064 48.4244C72.1215 48.4244 72.0083 48.4244 71.9234 48.4244ZM73.9043 62.2907C73.9043 62.5736 73.9043 62.8566 73.9043 63.1396C73.1968 62.8 73.5081 63.1962 73.3383 62.2907C73.5364 62.2907 73.7062 62.2907 73.9043 62.2907ZM73.6213 48.1414C73.6213 48.2263 73.6213 48.3395 73.6213 48.4244C73.5364 48.4244 73.4232 48.4244 73.3383 48.4244C73.3383 48.2263 73.3383 48.0565 73.3383 47.8584C73.876 48.0282 73.593 47.8584 73.9043 48.1414C73.8194 48.1414 73.7062 48.1414 73.6213 48.1414ZM71.3574 46.1605C72.0083 46.1605 72.6874 46.1605 73.3383 46.1605C73.3383 46.2454 73.3383 46.3586 73.3383 46.4435C73.4232 46.4435 73.5364 46.4435 73.6213 46.4435C72.744 47.1793 71.1027 47.1227 70.2255 47.8584C69.7444 47.8584 69.2916 47.8584 68.8105 47.8584C69.2633 46.8397 70.6216 46.868 71.3574 46.1605ZM66.8296 48.9904C67.1126 48.9904 67.3956 48.9904 67.6786 48.9904C67.4239 49.6695 67.1975 49.5846 66.8296 50.1223C66.6315 50.1223 66.4617 50.1223 66.2637 50.1223C66.4617 49.4431 66.5466 49.4997 66.8296 48.9904ZM63.1508 43.8966C63.8866 43.4155 64.6223 43.4438 65.1317 42.7647C65.2166 42.7647 65.3298 42.7647 65.4147 42.7647C64.594 45.3398 60.1512 45.6228 59.189 47.8584C58.9909 47.8584 58.8211 47.8584 58.6231 47.8584C59.5852 46.2737 61.6227 44.8871 63.1508 43.8966ZM64.8487 55.216C64.3111 55.0462 64.594 55.216 64.2828 54.933C64.8204 55.1028 64.5374 54.933 64.8487 55.216ZM56.3592 67.9504C56.2743 67.9504 56.1611 67.9504 56.0762 67.9504C53.784 62.4322 54.2085 59.0929 55.5102 52.6692C56.3026 53.7445 55.3404 55.0462 55.2272 56.065C55.0008 58.2723 55.4536 65.4884 56.3592 66.5354C56.3592 67.0165 56.3592 67.4693 56.3592 67.9504ZM58.6231 69.9313C58.5382 69.9313 58.425 69.9313 58.3401 69.9313C57.859 68.7993 57.4062 67.4127 56.9251 66.2525C58.3401 66.7052 57.8307 67.8372 58.6231 68.7993C58.6231 69.1672 58.6231 69.5634 58.6231 69.9313ZM58.6231 61.4417C58.6231 62.0926 58.6231 62.7717 58.6231 63.4226C58.425 63.4226 58.2552 63.4226 58.0571 63.4226C57.7458 62.0926 56.9817 59.6306 57.7741 57.4799C58.0288 57.7912 58.5099 59.1778 58.6231 59.4608C58.5099 60.1117 58.142 60.7908 58.6231 61.4417ZM56.9251 54.933C56.8403 54.933 56.7271 54.933 56.6422 54.933C56.6422 54.8482 56.6422 54.735 56.6422 54.6501C56.5573 54.6501 56.4441 54.6501 56.3592 54.6501C56.6988 53.2068 57.2647 51.2542 58.0571 50.1223C58.5665 49.3865 59.3871 49.1318 59.755 48.1414C59.9531 48.1414 60.1229 48.1414 60.321 48.1414C60.2078 48.5093 59.9531 49.3299 59.755 49.5563C59.5569 49.5563 59.3871 49.5563 59.189 49.5563C58.6797 50.1789 56.9817 53.9143 56.9251 54.933ZM60.8869 67.6674C60.8869 68.0353 60.8869 68.4314 60.8869 68.7993C60.802 68.7993 60.6888 68.7993 60.604 68.7993C60.1229 67.6108 59.7267 66.875 59.755 65.1205C60.3776 65.7148 60.321 67.0165 60.8869 67.6674ZM64.2828 75.025C64.2828 75.2231 64.2828 75.3929 64.2828 75.591C62.4717 75.0816 60.5474 72.9026 60.321 70.7802C61.5378 71.2896 63.0659 74.1477 64.2828 75.025ZM60.8869 76.1569C62.3019 76.5814 63.1508 77.6285 64.2828 78.1378C65.8675 78.8453 67.056 78.6755 69.0935 78.9868C69.801 79.1 71.1876 79.5811 71.9234 78.9868C72.4044 78.9868 72.8572 78.9868 73.3383 78.9868C73.3383 79.0717 73.3383 79.1849 73.3383 79.2698C68.7256 80.996 62.6697 79.1283 60.8869 76.1569ZM81.5449 82.3826C78.4037 83.6278 72.9421 83.5712 70.7914 81.5337C70.5933 81.4488 70.4235 81.3356 70.2255 81.2507C70.7348 80.3168 72.3195 80.7696 73.3383 80.4017C74.6966 79.9206 76.253 79.1566 77.5831 78.7038C77.951 78.7038 78.3471 78.7038 78.715 78.7038C79.1961 78.534 80.2431 77.9963 80.6959 77.8549C81.177 77.8549 81.6298 77.8549 82.1108 77.8549C86.0726 76.4399 88.5912 73.3554 90.8834 70.2143C91.7889 68.9691 93.2039 68.5446 93.7132 66.8184C93.9113 66.8184 94.0811 66.8184 94.2792 66.8184C93.5717 72.7328 86.4122 80.4583 81.5449 82.3826ZM89.7514 56.631C89.9495 56.631 90.1193 56.631 90.3174 56.631C90.3457 58.0459 90.9683 60.2815 90.8834 61.1587C90.6853 61.2436 90.5155 61.3568 90.3174 61.4417C90.3174 62.0926 90.3174 62.7717 90.3174 63.4226C90.1193 63.8754 89.8929 63.4792 89.7514 64.5545C89.5533 64.5545 89.3836 64.5545 89.1855 64.5545C89.3836 63.6773 89.808 62.3756 90.0344 61.4417C89.9495 59.8287 89.8363 58.244 89.7514 56.631ZM88.6195 50.4053C89.1572 50.5751 88.8742 50.4053 89.1855 50.6883C88.6478 50.5185 88.9308 50.6883 88.6195 50.4053ZM92.8643 66.8184C92.8643 66.9033 92.8643 67.0165 92.8643 67.1014C92.6662 67.1014 92.4964 67.1014 92.2983 67.1014C94.3924 61.9794 94.449 54.8482 92.0153 49.8393C91.3079 48.3961 89.6948 47.2924 89.1855 45.5945C94.1094 48.5659 98.7787 61.7247 92.8643 66.8184ZM97.1091 58.3289C95.8639 57.678 96.5714 55.5839 95.9771 53.8011L95.4111 53.2351C95.4111 52.8673 95.4111 52.4711 95.4111 52.1032C95.2131 52.0183 95.0433 51.9051 94.8452 51.8202C94.8452 51.5372 94.8452 51.2542 94.8452 50.9713C94.6471 50.8864 94.4773 50.7732 94.2792 50.6883C94.2792 50.4053 94.2792 50.1223 94.2792 49.8393C94.0811 49.7544 93.9113 49.6412 93.7132 49.5563C93.3736 49.047 93.4868 48.6225 93.1473 48.1414C91.223 45.4247 87.7139 43.1892 84.6577 41.6327C83.2711 40.9253 80.2714 40.897 79.281 39.9348C86.0726 39.8782 90.6287 41.3781 93.7132 45.5945C94.0811 45.8775 94.4773 46.1605 94.8452 46.4435C95.4677 47.349 95.5243 48.481 95.9771 49.5563L96.5431 50.1223C96.911 51.1693 96.5431 51.9617 97.1091 52.6692C97.1091 54.5652 97.1091 56.4329 97.1091 58.3289Z" fill="white"/>
</g>
<defs>
<clipPath id="clip0_1204_111">
<rect width="124" height="73.1534" fill="white" transform="translate(13.8306 38.7952)"/>
</clipPath>
</defs>
</svg>
