<svg width="151" height="150" viewBox="0 0 151 150" fill="none" xmlns="http://www.w3.org/2000/svg">
<g clip-path="url(#clip0_403_2444)">
<rect x="0.881836" width="150.43" height="150.43" fill="#0D1D4A"/>
<g clip-path="url(#clip1_403_2444)">
<path fill-rule="evenodd" clip-rule="evenodd" d="M97.8259 84.7069H93.5803V70.3227C93.5803 68.9217 93.6006 65.0405 93.6006 65.0405L106.451 65.064L106.444 68.6112L97.9032 68.6004L97.9526 72.7934L105.05 72.8568L105.059 76.5225L97.8259 76.5345V84.7062V84.7069Z" fill="white"/>
<path fill-rule="evenodd" clip-rule="evenodd" d="M25.4617 84.7069H12.4716L12.4653 65H25.2716L25.2595 68.532L16.6037 68.5276L16.591 72.7364L23.863 72.7009L23.8541 76.1525L16.591 76.1575L16.5771 81.1533L25.4541 81.1584L25.4617 84.7069Z" fill="white"/>
<path fill-rule="evenodd" clip-rule="evenodd" d="M36.8676 68.5485V84.7069H32.9389L32.8755 68.5485L26.8684 68.5358L26.8557 65H42.9507L42.9634 68.5238L36.8676 68.5485Z" fill="white"/>
<path fill-rule="evenodd" clip-rule="evenodd" d="M60.4398 84.7069H56.3844L56.2576 76.2792L48.527 76.3425V84.7069H44.5349C44.5558 78.1383 44.5983 65.0634 44.5983 65.0634H48.527V72.6039H56.4477V65.1267H60.3764C60.3764 65.1267 60.4189 78.1808 60.4398 84.7069Z" fill="white"/>
<path fill-rule="evenodd" clip-rule="evenodd" d="M74.9279 84.7069H62.0873C62.1082 78.1599 62.1507 65.1267 62.1507 65.1267H74.8873V68.4477L66.016 68.4851V72.8574H73.4933V76.2158H66.0794L66.016 81.0316L66.0794 81.095C69.0152 81.1159 74.9146 81.1584 74.9146 81.1584L74.9279 84.7069Z" fill="white"/>
<path fill-rule="evenodd" clip-rule="evenodd" d="M86.9903 76.5961C88.0776 76.2805 89.4527 75.605 89.9051 75.0119C91.974 72.2992 91.4601 67.4884 88.5744 65.9505C87.4744 65.3644 85.8902 65.0336 84.0089 65.0488C81.4578 65.0698 76.6616 65.0634 76.6616 65.0634L76.5982 84.7069H80.6536L80.5903 77.2297H82.618L87.7507 84.7069H92.313C92.313 84.7069 87.4699 77.385 86.9903 76.5961ZM84.5823 73.7446C83.4532 73.7649 81.9596 73.7699 80.5903 73.7446V68.3585C80.5903 68.3585 82.2067 68.3198 84.4556 68.3585C85.9333 68.3838 87.174 69.2412 87.1804 70.9565C87.1873 72.8885 86.3572 73.7129 84.5823 73.7446Z" fill="white"/>
<path fill-rule="evenodd" clip-rule="evenodd" d="M134.135 74.695L140.535 65.0634H136.162L132.044 71.2099L131.98 71.2732L127.798 65.0634H123.236L129.509 74.6317L122.919 84.5168C122.919 84.5168 121.437 80.0419 120.955 78.7505C119.37 74.1463 116.202 65.0634 116.202 65.0634H111.006L109.042 70.6396C109.042 70.6396 107.048 77.2417 105.747 80.5247C105.252 81.7718 104.289 84.7069 104.289 84.7069H108.408L109.612 80.7148L117.089 80.6514L118.61 84.7069H127.481L131.537 78.0534H131.663L135.909 84.7069H140.471L139.014 82.3623L134.135 74.695ZM116.224 77.0776L110.777 77.1245L113.414 69.2455L116.224 77.0776Z" fill="white"/>
</g>
</g>
<defs>
<clipPath id="clip0_403_2444">
<rect width="150" height="150" fill="white" transform="translate(0.881836)"/>
</clipPath>
<clipPath id="clip1_403_2444">
<rect width="128.069" height="19.7069" fill="white" transform="translate(12.4653 65)"/>
</clipPath>
</defs>
</svg>
