<svg width="135" height="120" viewBox="0 0 135 120" fill="none" xmlns="http://www.w3.org/2000/svg">
<g clip-path="url(#clip0_307_2740)">
<path d="M132 0H3C1.34315 0 0 1.34315 0 3V117C0 118.657 1.34315 120 3 120H132C133.657 120 135 118.657 135 117V3C135 1.34315 133.657 0 132 0Z" fill="#1A3C5D"/>
<g clip-path="url(#clip1_307_2740)">
<path d="M18.8765 51C19.0645 51.5351 18.9153 52.7824 16.8133 53.491C16.1932 53.7 15.6693 53.869 15.2208 54.0136C13.7692 54.4818 13.1076 54.6951 12.5283 55.1885C12.4746 55.2343 12.4194 55.2801 12.363 55.3269C11.6237 55.9406 10.6871 56.7182 10.3594 59.5984C11.0647 58.4544 11.823 57.8455 13.2689 57.6057C13.5033 57.5668 13.7753 57.5323 14.0723 57.4945C15.6074 57.2997 17.8122 57.0198 18.9647 55.6129C20.3401 53.9338 19.6347 51.9964 18.8765 51Z" fill="white"/>
<path d="M20.1813 55.1885C20.1225 55.8773 19.4689 57.3842 17.3247 57.9009C16.1697 58.1792 15.4372 58.1901 14.7672 58.2001C14.2505 58.2078 13.7709 58.215 13.1631 58.3437C11.6819 58.6573 10.3417 59.6538 10.0419 61.6834C9.74214 63.7131 11.1 65.097 12.5283 65.3553C13.9566 65.6136 18.5414 64.9678 20.005 60.89C18.4708 62.3846 16.2843 63.1432 14.7149 62.809C12.7223 62.3846 12.8457 61.5358 13.0044 60.89C14.2564 61.4435 16.6015 61.9774 18.4708 60.89C20.2789 59.8383 21.6449 57.9009 20.1813 55.1885Z" fill="white"/>
<path d="M52.7437 65.1684H50.3632V59.7034C50.3632 58.9475 50.2211 58.3837 49.9369 58.0119C49.6645 57.6402 49.2855 57.4543 48.8 57.4543C48.5158 57.4543 48.2137 57.541 47.894 57.7145C47.5742 57.888 47.2841 58.1296 47.0235 58.4394C46.7748 58.7369 46.5913 59.0838 46.4728 59.4804V65.1684H44.0924V51.599H46.4728V57.2312C46.8163 56.6116 47.2841 56.1283 47.8762 55.7813C48.4684 55.4344 49.1138 55.2609 49.8126 55.2609C50.4165 55.2609 50.908 55.3724 51.287 55.5955C51.666 55.8061 51.9621 56.0973 52.1752 56.4691C52.3884 56.8285 52.5364 57.2374 52.6193 57.6959C52.7022 58.142 52.7437 58.6068 52.7437 59.0901V65.1684Z" fill="white"/>
<path d="M33.851 65.1685V62.9193H27.5446V59.4805H32.8562V57.3986H27.5446V54.22H33.6911V51.9708H25.0931V65.1685H33.851Z" fill="white"/>
<path d="M41.2006 64.9638C41.4848 64.8523 41.7275 64.7531 41.9289 64.6664L41.4493 62.6961C41.3072 62.758 41.1177 62.8324 40.8808 62.9191C40.6439 63.0059 40.4012 63.0493 40.1524 63.0493C39.9038 63.0493 39.6965 62.9749 39.5307 62.8262C39.3649 62.6775 39.2761 62.4358 39.2642 62.1012V57.3427H41.2183V55.4281H39.2642V52.2681H36.8838V55.4281H35.6581V57.3427H36.8838V62.9377C36.8838 63.5078 36.9904 63.9724 37.2036 64.3318C37.4286 64.6788 37.7247 64.9329 38.0918 65.0939C38.4589 65.255 38.8616 65.3356 39.2998 65.3356C39.6314 65.3356 39.9571 65.2984 40.2768 65.224C40.6084 65.1621 40.9163 65.0753 41.2006 64.9638Z" fill="white"/>
<path fill-rule="evenodd" clip-rule="evenodd" d="M57.9933 64.9641C58.5973 65.2243 59.2782 65.3544 60.0362 65.3544C60.7941 65.3544 61.4753 65.2243 62.079 64.9641C62.6833 64.6914 63.1924 64.3197 63.6069 63.8488C64.0332 63.3778 64.3531 62.8388 64.5662 62.2316C64.791 61.6244 64.9034 60.9861 64.9034 60.317C64.9034 59.6354 64.791 58.991 64.5662 58.3838C64.3531 57.7766 64.0332 57.2376 63.6069 56.7666C63.1807 56.2957 62.6655 55.9302 62.0612 55.6699C61.4692 55.3973 60.7941 55.261 60.0362 55.261C59.2782 55.261 58.5973 55.3973 57.9933 55.6699C57.3893 55.9302 56.8741 56.2957 56.4478 56.7666C56.0333 57.2376 55.7135 57.7766 55.4885 58.3838C55.2635 58.991 55.151 59.6354 55.151 60.317C55.151 60.9861 55.2635 61.6244 55.4885 62.2316C55.7135 62.8388 56.0333 63.3778 56.4478 63.8488C56.8741 64.3197 57.3893 64.6914 57.9933 64.9641ZM57.9222 61.8412C57.7091 61.3951 57.6025 60.887 57.6025 60.317C57.6025 59.7469 57.7091 59.2451 57.9222 58.8114C58.1354 58.3652 58.4255 58.0183 58.7927 57.7704C59.1598 57.5101 59.5743 57.38 60.0362 57.38C60.4862 57.38 60.8949 57.504 61.2622 57.7518C61.6289 57.9996 61.9193 58.3466 62.1324 58.7927C62.3572 59.2389 62.4696 59.7408 62.4696 60.2984C62.4696 60.8684 62.3572 61.3765 62.1324 61.8226C61.9193 62.2564 61.6289 62.6033 61.2622 62.8636C60.8949 63.1114 60.4862 63.2353 60.0362 63.2353C59.5743 63.2353 59.1598 63.1114 58.7927 62.8636C58.4255 62.6157 58.1354 62.2749 57.9222 61.8412Z" fill="white"/>
<path d="M70.8626 65.3544C70.0691 65.3544 69.3113 65.2181 68.589 64.9455C67.8663 64.6729 67.2447 64.2701 66.7234 63.7372L67.5764 62.12C68.1328 62.591 68.6775 62.938 69.2106 63.161C69.7553 63.3841 70.2766 63.4956 70.7741 63.4956C71.2359 63.4956 71.6031 63.4089 71.8752 63.2354C72.1596 63.0619 72.3015 62.8017 72.3015 62.4547C72.3015 62.2192 72.2247 62.0395 72.0706 61.9156C71.917 61.7793 71.6916 61.6615 71.3956 61.5624C71.1113 61.4633 70.7619 61.3517 70.3473 61.2278C69.6607 60.9924 69.0865 60.7631 68.6246 60.5401C68.1623 60.317 67.8134 60.0382 67.5764 59.7036C67.351 59.3566 67.2386 58.9167 67.2386 58.3839C67.2386 57.7395 67.3927 57.188 67.7005 56.7295C68.0204 56.2586 68.4588 55.893 69.0153 55.6328C69.5839 55.3725 70.2466 55.2424 71.005 55.2424C71.6682 55.2424 72.2959 55.354 72.8879 55.577C73.48 55.7877 74.0186 56.1347 74.5043 56.618L73.5451 58.198C73.0715 57.8138 72.6214 57.535 72.1952 57.3615C71.7684 57.1756 71.3366 57.0827 70.8982 57.0827C70.6495 57.0827 70.4124 57.1136 70.1876 57.1756C69.9745 57.2376 69.797 57.3429 69.6546 57.4916C69.5244 57.6279 69.4593 57.8262 69.4593 58.0864C69.4593 58.3219 69.5183 58.5078 69.6368 58.6441C69.767 58.768 69.9567 58.8795 70.2054 58.9787C70.4658 59.0778 70.7797 59.1893 71.1469 59.3133C71.893 59.5363 72.5207 59.7655 73.0298 60.001C73.5512 60.2364 73.9418 60.5277 74.2022 60.8747C74.4631 61.2093 74.5933 61.6739 74.5933 62.2688C74.5933 63.2354 74.2556 63.9913 73.5807 64.5366C72.9057 65.0818 71.9999 65.3544 70.8626 65.3544Z" fill="white"/>
<path d="M81.9337 64.9638C82.218 64.8523 82.4606 64.7531 82.6621 64.6664L82.1824 62.6961C82.04 62.758 81.8508 62.8324 81.6138 62.9191C81.3768 63.0059 81.1342 63.0493 80.8854 63.0493C80.6367 63.0493 80.4297 62.9749 80.2639 62.8262C80.0981 62.6775 80.0091 62.4358 79.9974 62.1012V57.3427H81.9515V55.4281H79.9974V52.2681H77.617V55.4281H76.3912V57.3427H77.617V62.9377C77.617 63.5078 77.7233 63.9724 77.9364 64.3318C78.1618 64.6788 78.4578 64.9329 78.825 65.0939C79.1917 65.255 79.5946 65.3356 80.033 65.3356C80.3646 65.3356 80.6901 65.2984 81.0101 65.224C81.3412 65.1621 81.6494 65.0753 81.9337 64.9638Z" fill="white"/>
<path d="M90.3678 57.5844C89.6456 57.5844 89.0001 57.7331 88.4315 58.0306C87.8633 58.3156 87.4544 58.7307 87.2057 59.276V65.1685H84.8253V55.4282H87.0104V57.5101C87.342 56.8409 87.7626 56.3142 88.2718 55.9301C88.7809 55.5459 89.32 55.3353 89.8882 55.2981H90.1903C90.2615 55.2981 90.3205 55.3043 90.3678 55.3167V57.5844Z" fill="white"/>
<path fill-rule="evenodd" clip-rule="evenodd" d="M94.7537 64.9641C95.3579 65.2243 96.0385 65.3544 96.7968 65.3544C97.5547 65.3544 98.2357 65.2243 98.8395 64.9641C99.4437 64.6914 99.9529 64.3197 100.367 63.8488C100.794 63.3778 101.114 62.8388 101.327 62.2316C101.551 61.6244 101.664 60.9861 101.664 60.317C101.664 59.6354 101.551 58.991 101.327 58.3838C101.114 57.7766 100.794 57.2376 100.367 56.7666C99.9406 56.2957 99.4259 55.9302 98.8217 55.6699C98.2296 55.3973 97.5547 55.261 96.7968 55.261C96.0385 55.261 95.3579 55.3973 94.7537 55.6699C94.15 55.9302 93.6347 56.2957 93.208 56.7666C92.7935 57.2376 92.474 57.7766 92.2487 58.3838C92.0239 58.991 91.9115 59.6354 91.9115 60.317C91.9115 60.9861 92.0239 61.6244 92.2487 62.2316C92.474 62.8388 92.7935 63.3778 93.208 63.8488C93.6347 64.3197 94.15 64.6914 94.7537 64.9641ZM94.6825 61.8412C94.4694 61.3951 94.3631 60.887 94.3631 60.317C94.3631 59.7469 94.4694 59.2451 94.6825 58.8114C94.8956 58.3652 95.186 58.0183 95.5533 57.7704C95.9205 57.5101 96.3345 57.38 96.7968 57.38C97.2465 57.38 97.6554 57.504 98.0221 57.7518C98.3893 57.9996 98.6798 58.3466 98.8929 58.7927C99.1177 59.2389 99.2301 59.7408 99.2301 60.2984C99.2301 60.8684 99.1177 61.3765 98.8929 61.8226C98.6798 62.2564 98.3893 62.6033 98.0221 62.8636C97.6554 63.1114 97.2465 63.2353 96.7968 63.2353C96.3345 63.2353 95.9205 63.1114 95.5533 62.8636C95.186 62.6157 94.8956 62.2749 94.6825 61.8412Z" fill="white"/>
<path d="M112.846 65.1685H110.465V59.7036C110.465 58.9229 110.335 58.3528 110.074 57.9935C109.814 57.6341 109.453 57.4544 108.991 57.4544C108.671 57.4544 108.346 57.5411 108.014 57.7146C107.694 57.8881 107.404 58.1298 107.143 58.4396C106.883 58.737 106.693 59.084 106.575 59.4805V65.1685H104.194V55.4283H106.344V57.2313C106.581 56.81 106.883 56.4568 107.25 56.1718C107.617 55.8744 108.037 55.6513 108.511 55.5026C108.997 55.3415 109.506 55.261 110.039 55.261C110.619 55.261 111.093 55.3725 111.46 55.5956C111.839 55.8062 112.123 56.0975 112.313 56.4692C112.514 56.8286 112.65 57.2376 112.721 57.6961C112.804 58.1546 112.846 58.6193 112.846 59.0902V65.1685Z" fill="white"/>
<path fill-rule="evenodd" clip-rule="evenodd" d="M117.775 64.8525C118.297 65.1004 118.865 65.2243 119.481 65.2243C120.109 65.2243 120.701 65.0756 121.258 64.7782C121.826 64.4684 122.264 64.0347 122.572 63.477V64.7038C122.572 65.3358 122.442 65.8501 122.181 66.2466C121.932 66.6556 121.595 66.953 121.169 67.1388C120.754 67.3371 120.292 67.4363 119.783 67.4363C119.179 67.4363 118.605 67.3062 118.06 67.0459C117.527 66.7857 117.083 66.4263 116.727 65.9678L115.431 67.2875C115.928 67.9319 116.526 68.4276 117.225 68.7746C117.924 69.134 118.776 69.3137 119.783 69.3137C120.778 69.3137 121.666 69.1278 122.448 68.756C123.229 68.3967 123.839 67.87 124.277 67.176C124.727 66.4945 124.952 65.6704 124.952 64.7038V55.4283H122.874V57.1384C122.518 56.5683 122.069 56.116 121.524 55.7815C120.979 55.4345 120.346 55.261 119.623 55.261C118.983 55.261 118.398 55.3911 117.865 55.6513C117.343 55.8992 116.887 56.2586 116.496 56.7294C116.117 57.1879 115.821 57.7209 115.608 58.3281C115.395 58.9353 115.288 59.5921 115.288 60.2984C115.288 60.9676 115.389 61.5996 115.59 62.1944C115.792 62.7892 116.076 63.3159 116.443 63.7744C116.822 64.2329 117.266 64.5923 117.775 64.8525ZM121.027 63.1052C120.79 63.1919 120.541 63.2353 120.28 63.2353C119.925 63.2353 119.588 63.161 119.268 63.0123C118.96 62.8636 118.687 62.6591 118.45 62.3988C118.226 62.1386 118.048 61.835 117.918 61.488C117.787 61.1411 117.722 60.7693 117.722 60.3728C117.722 59.9886 117.776 59.623 117.882 59.276C118.001 58.9167 118.166 58.5945 118.38 58.3095C118.593 58.012 118.847 57.7828 119.143 57.6217C119.44 57.4606 119.771 57.38 120.138 57.38C120.482 57.38 120.807 57.4606 121.115 57.6217C121.435 57.7704 121.719 57.9873 121.968 58.2723C122.229 58.5573 122.43 58.8919 122.572 59.276V61.5996C122.489 61.8102 122.37 62.0209 122.217 62.2316C122.063 62.4298 121.885 62.6033 121.684 62.752C121.482 62.9007 121.263 63.0184 121.027 63.1052Z" fill="white"/>
</g>
</g>
<defs>
<clipPath id="clip0_307_2740">
<rect width="135" height="120" fill="white"/>
</clipPath>
<clipPath id="clip1_307_2740">
<rect width="115" height="18.3613" fill="white" transform="translate(10 51)"/>
</clipPath>
</defs>
</svg>
