<svg width="135" height="120" viewBox="0 0 135 120" fill="none" xmlns="http://www.w3.org/2000/svg">
<g clip-path="url(#clip0_307_2756)">
<path d="M132 0H3C1.34315 0 0 1.34315 0 3V117C0 118.657 1.34315 120 3 120H132C133.657 120 135 118.657 135 117V3C135 1.34315 133.657 0 132 0Z" fill="#3D86E1"/>
<g clip-path="url(#clip1_307_2756)">
<path d="M66.6494 29.4048C66.1822 29.4767 65.8947 29.4048 65.823 29.297C65.787 29.2251 65.823 29.0814 65.8947 28.9376C65.9417 28.8672 66.004 28.8121 66.0716 28.7523C66.1075 28.7206 66.1449 28.6875 66.1822 28.6501C66.9728 28.5423 67.7634 28.5064 68.5542 28.4705C68.1228 28.9017 67.3322 29.297 66.6494 29.4048Z" fill="white"/>
<path d="M62.0494 30.3394C62.0854 30.3753 62.2291 30.4472 62.7322 30.3035C63.5588 30.0878 64.6369 29.405 65.0681 28.866C64.3853 29.0097 63.7026 29.1535 63.0197 29.3332C62.6963 29.5488 62.4088 29.7644 62.2291 29.98C62.0494 30.1956 62.0134 30.3035 62.0494 30.3394Z" fill="white"/>
<path d="M70.6383 29.6565C70.4228 29.6565 70.2071 29.6924 69.9914 29.7643C69.2728 29.9799 68.6259 30.4831 68.3744 31.0221C68.2306 31.3096 68.2665 31.5252 68.3744 31.7409C68.5539 32.0283 68.9493 32.1721 69.4525 32.1362C69.6681 32.1362 69.9196 32.1002 70.1711 32.0283C70.9259 31.7768 71.5728 31.2377 71.7165 30.6987C71.7883 30.4112 71.7883 30.1596 71.6086 29.9799C71.5008 29.7643 71.1056 29.6565 70.6383 29.6565Z" fill="white"/>
<path d="M66.4173 30.153C66.4611 30.1446 66.5034 30.1364 66.5415 30.1237C66.9727 30.0519 67.2961 30.1237 67.4398 30.3034C67.5478 30.4472 67.5118 30.6987 67.404 30.9503C67.1164 31.5612 66.29 32.2081 65.4274 32.4597C65.3556 32.4776 65.2748 32.4956 65.1938 32.5135C65.113 32.5315 65.032 32.5495 64.9603 32.5675C64.4931 32.6393 64.1696 32.5315 64.0259 32.3518C63.954 32.2081 63.954 31.9565 64.1337 31.705C64.5291 31.094 65.3555 30.4831 66.1821 30.2315C66.2519 30.185 66.3367 30.1686 66.4173 30.153Z" fill="white"/>
<path d="M62.5885 31.022L62.4806 31.058C61.6182 31.3095 60.576 32.0642 60.1088 32.7111C59.8933 33.0345 59.8573 33.2142 59.9291 33.322C60.001 33.4298 60.2167 33.4658 60.6839 33.3939C61.6182 33.1783 62.7682 32.3517 63.1994 31.633C63.3791 31.3095 63.3791 31.1298 63.3432 31.058C63.2712 30.9501 63.0197 30.8783 62.5885 31.022Z" fill="white"/>
<path d="M56.7665 34.4361L56.8025 34.6517L56.7306 34.4721C56.3713 34.5799 56.2274 34.508 56.2274 34.508C56.1916 34.508 56.1916 34.3283 56.4791 33.9689C56.9822 33.2861 58.0603 32.4955 58.8509 32.208C58.8688 32.208 58.8869 32.199 58.9048 32.19C58.9228 32.1811 58.9408 32.1721 58.9587 32.1721C59.2821 32.0643 59.4258 32.1361 59.4258 32.1361C59.4618 32.1361 59.4618 32.2799 59.2103 32.6393C58.7072 33.3221 57.5931 34.1846 56.7665 34.4361Z" fill="white"/>
<path d="M69.3445 32.8547C70.4587 32.8188 71.1414 33.5735 70.8539 34.6157C70.5664 35.6219 69.3446 36.4844 68.1586 36.5204C66.9368 36.5204 66.2899 35.6578 66.6852 34.6875C67.0805 33.6813 68.2664 32.8907 69.3445 32.8547Z" fill="white"/>
<path d="M66.0024 34.6876C66.3978 33.6814 65.8229 33.0345 64.7806 33.1783C63.7385 33.322 62.5165 34.1845 62.0494 35.1189C61.5822 36.0532 62.1213 36.772 63.2354 36.6642C64.3852 36.5923 65.6431 35.6939 66.0024 34.6876Z" fill="white"/>
<path d="M57.8088 35.9455C58.3118 35.047 59.4978 34.1846 60.4681 33.9689C61.4384 33.7533 61.8696 34.2924 61.4384 35.2267C60.9712 36.1611 59.7135 37.0955 58.7072 37.2392C57.6649 37.4189 57.3057 36.808 57.8088 35.9455Z" fill="white"/>
<path d="M57.2699 35.1907C57.2339 35.1548 57.1621 35.0829 57.0182 35.0829C56.9329 35.0829 56.8477 35.1054 56.7445 35.1326C56.7173 35.1398 56.6889 35.1473 56.6589 35.1548C55.8324 35.4423 54.7543 36.2329 54.2512 37.0235C53.9637 37.4547 53.9637 37.7063 54.0355 37.8141C54.0715 37.886 54.1792 37.9219 54.3229 37.9219C54.4309 37.9219 54.5386 37.9219 54.6464 37.886C55.473 37.7063 56.587 36.8079 57.0901 35.9813C57.3416 35.5501 57.3776 35.2985 57.2699 35.1907Z" fill="white"/>
<path d="M51.3761 38.1735C51.8432 37.4547 52.7056 36.7001 53.3525 36.4126C53.5682 36.3407 53.7119 36.3407 53.7119 36.3407C53.7479 36.3407 53.7479 36.5563 53.4604 36.9876C52.9933 37.7063 52.023 38.5688 51.3761 38.7844H51.3401C51.1964 38.8204 51.1244 38.8204 51.1244 38.8204C51.0886 38.7844 51.0885 38.6047 51.3761 38.1735Z" fill="white"/>
<path d="M68.051 36.808C66.7212 36.808 65.3556 37.8142 64.9603 39.0361C64.6009 40.1861 65.2478 41.1564 66.3978 41.4079C64.9963 41.5158 63.6666 42.5939 63.3431 43.9594C63.0557 45.1454 63.6306 46.2595 64.6729 46.7267C63.4509 46.9781 62.4448 47.9844 62.2291 49.2064C62.0134 50.5 62.6963 51.7219 63.8463 52.2251C62.5885 52.4048 61.5822 53.3751 61.4385 54.6687C61.2947 56.1063 62.2291 57.5437 63.5946 57.975C62.3368 57.9031 61.2947 58.8016 61.2588 60.0594C61.1868 61.4609 62.2651 62.8624 63.6306 63.1858C64.9963 63.5093 66.2181 62.6109 66.3618 61.1375C66.4696 59.8077 65.6072 58.4782 64.3494 58.0828C65.7869 58.1547 67.0087 57.1125 67.2244 55.6032C67.4041 54.2375 66.6493 52.9438 65.4635 52.4048C66.6493 52.2609 67.6556 51.3625 67.979 50.1407C67.9969 50.0868 68.006 50.0328 68.015 49.9789C68.024 49.9251 68.0329 49.8712 68.051 49.8173C68.051 49.7634 68.0598 49.7094 68.0689 49.6555C68.0779 49.6016 68.0868 49.5477 68.0868 49.4939C68.1587 48.3079 67.5118 47.2298 66.5056 46.7986C67.5118 46.5829 68.4102 45.8641 68.8416 44.8938C68.8654 44.822 68.8894 44.7542 68.9134 44.6863C68.9252 44.6529 68.9369 44.6196 68.9486 44.5859C68.9325 44.7101 68.9268 44.8309 68.9493 44.9657C68.9853 46.008 69.6681 46.9064 70.6743 47.3016C70.89 47.3735 71.1056 47.4455 71.3212 47.4813C71.5368 47.5173 71.7883 47.5173 72.004 47.4813C73.3695 47.3016 74.4478 46.2954 74.6275 45.0017C74.843 43.6002 73.9806 42.3064 72.6509 41.983C72.638 41.9797 72.6256 41.9765 72.6133 41.9734C72.5982 41.9695 72.5835 41.9656 72.5692 41.9618L72.5659 41.961L72.5652 41.9608C72.4621 41.9336 72.3769 41.9111 72.2915 41.9111H72.6868C73.9806 41.8751 75.0946 40.9408 75.2742 39.7189C75.4539 38.3892 74.5196 37.2033 73.19 37.0955C71.8603 36.9517 70.5305 37.922 70.2071 39.2158C69.9196 40.4017 70.6743 41.5158 71.8962 41.8392C72.004 41.8751 72.1477 41.9111 72.2915 41.9111H71.9321C70.7822 41.947 69.6682 42.6658 69.2008 43.7439C69.1548 43.8361 69.1218 43.9218 69.0935 44.0065C69.1098 43.8711 69.1157 43.7356 69.0931 43.6002C69.0571 42.4501 68.3025 41.5517 67.1884 41.3361C68.4462 41.2283 69.6322 40.258 69.9196 39.072C70.2071 37.8861 69.3805 36.8439 68.051 36.808Z" fill="white"/>
<path d="M59.5699 39.3593C59.1385 40.4015 57.9167 41.3359 56.8745 41.4078C55.8324 41.4796 55.3652 40.725 55.8324 39.7906C56.2636 38.8203 57.4496 37.9219 58.4558 37.7422C59.462 37.5984 60.0011 38.3172 59.5699 39.3593Z" fill="white"/>
<path d="M55.2214 38.7126C55.0776 38.5329 54.826 38.497 54.4666 38.5689C54.4487 38.5689 54.4308 38.5779 54.4127 38.5869C54.3948 38.5958 54.3767 38.6048 54.3588 38.6048C53.5323 38.8564 52.6339 39.647 52.2027 40.4736C51.987 40.9048 51.951 41.2642 52.0948 41.5157C52.2027 41.6595 52.3822 41.7314 52.6339 41.7314H52.8136C53.6402 41.6235 54.7182 40.7611 55.1494 39.8267C55.3651 39.3236 55.4011 38.9283 55.2214 38.7126Z" fill="white"/>
<path d="M51.3041 39.5751H51.3401C51.361 39.5751 51.391 39.572 51.4249 39.5686C51.5074 39.5602 51.6126 39.5496 51.6635 39.5751C51.7353 39.6829 51.6995 40.0063 51.4838 40.4375C51.0526 41.3 50.1541 42.0547 49.651 42.1625C49.6444 42.1625 49.633 42.1637 49.6185 42.1653C49.5542 42.1721 49.4288 42.1853 49.3995 42.1266C49.3635 42.0547 49.3275 41.8031 49.5792 41.3C49.9744 40.5454 50.7292 39.7907 51.3041 39.5751Z" fill="white"/>
<path d="M48.7167 40.8328C48.4651 41.3359 48.2134 41.875 47.9979 42.3781C47.9619 42.4679 47.926 42.5488 47.89 42.6297C47.8542 42.7105 47.8182 42.7914 47.7822 42.8812C48.1057 42.6297 48.6448 41.9828 49.0042 41.3C49.2917 40.7609 49.2917 40.4734 49.2557 40.4375H49.2197C49.1923 40.4512 49.1701 40.4597 49.151 40.467C49.1204 40.4787 49.0982 40.4872 49.076 40.5094C48.9682 40.5812 48.8603 40.689 48.7167 40.8328Z" fill="white"/>
<path d="M63.3071 43.9953C63.6665 42.5938 62.7681 41.4797 61.3665 41.4797C59.965 41.4797 58.4915 42.5219 58.0963 43.8156C57.7009 45.1094 58.5635 46.2234 60.0009 46.3312C61.4744 46.4391 62.9837 45.361 63.3071 43.9953Z" fill="white"/>
<path d="M55.437 45.9001C54.359 45.8641 53.784 44.9657 54.1433 43.9236C54.5027 42.8814 55.6167 41.947 56.7308 41.8752C57.809 41.8033 58.4199 42.6658 58.0605 43.8517C57.7011 45.0017 56.5153 45.9361 55.437 45.9001Z" fill="white"/>
<path d="M47.0994 57.8672C47.387 58.8734 47.7462 59.8437 48.1416 60.778L48.2134 60.85C48.3573 60.9577 48.4651 60.9937 48.5368 60.9577C48.6448 60.9217 48.7525 60.6703 48.6448 60.0953C48.4651 59.1608 47.8182 58.1547 47.387 57.903C47.2432 57.8313 47.1713 57.7953 47.0994 57.8672Z" fill="white"/>
<path d="M53.9816 68.9717C54.0085 69.0167 54.0355 69.0616 54.0714 69.1154C53.676 68.792 53.3168 68.4686 53.0292 68.1093C52.8675 67.9296 52.7057 67.7588 52.5441 67.5881C52.3823 67.4174 52.2206 67.2468 52.0589 67.0671L51.9871 66.9951C52.0396 66.9951 52.0731 67.0145 52.1153 67.0389C52.1308 67.0478 52.1475 67.0574 52.1668 67.0671C52.2026 67.085 52.2386 67.1119 52.2745 67.139C52.3105 67.1659 52.3465 67.1929 52.3823 67.2108C52.4183 67.2468 52.4542 67.2737 52.4902 67.3006C52.5262 67.3276 52.562 67.3545 52.598 67.3905C52.598 67.4265 52.6339 67.4265 52.6339 67.4265C52.6572 67.4728 52.6954 67.5043 52.7387 67.5402C52.7627 67.5597 52.7882 67.5807 52.8136 67.6062C53.1729 67.9296 53.5683 68.3608 53.8917 68.828C53.9277 68.8819 53.9546 68.9269 53.9816 68.9717Z" fill="white"/>
<path d="M54.7901 69.2951C54.7543 69.2951 54.7183 69.331 54.6824 69.367C55.4012 69.9779 56.1918 70.517 56.9824 71.02C56.587 70.4091 56.0121 69.7982 55.473 69.4748C55.0791 69.2777 54.865 69.2908 54.8036 69.2945C54.7977 69.2948 54.7932 69.2951 54.7901 69.2951Z" fill="white"/>
<path d="M58.5277 71.3077C58.7433 71.2717 59.0308 71.3077 59.3543 71.4514C60.0011 71.7748 60.648 72.3857 61.0074 72.9966C60.0729 72.6372 59.1386 72.206 58.2762 71.7389C58.2402 71.5591 58.312 71.3794 58.5277 71.3077Z" fill="white"/>
<path d="M63.5947 73.1403C62.9478 72.9247 62.3729 73.0685 62.2651 73.4997C63.1635 73.7872 64.062 74.0029 64.9964 74.1826C64.637 73.6794 64.1338 73.32 63.5947 73.1403Z" fill="white"/>
<path d="M68.6979 74.542C68.1228 74.542 67.5119 74.5062 66.937 74.4343C67.2245 74.2905 67.6557 74.2546 68.0869 74.3265C68.3026 74.3623 68.5182 74.4343 68.6979 74.542Z" fill="white"/>
<path d="M48.2495 61.4608C48.7167 62.4671 49.2558 63.4374 49.8667 64.3358C49.8667 64.192 49.8307 64.0483 49.7589 63.8686C49.5073 63.0061 48.8246 61.892 48.2495 61.4608Z" fill="white"/>
<path d="M52.7057 65.953C52.8136 66.3842 52.7776 66.7077 52.6339 66.7437C52.526 66.7796 52.3464 66.7077 52.0948 66.564C51.3761 66.0608 50.6213 65.0187 50.3698 64.1202C50.262 63.689 50.2979 63.3655 50.4417 63.3296C50.4454 63.3296 50.4505 63.3293 50.4568 63.3287C50.5101 63.3244 50.6556 63.3127 50.9447 63.4733C51.6636 63.8687 52.4901 65.0547 52.7057 65.953Z" fill="white"/>
<path d="M53.8556 65.27C53.4773 65.3732 53.5928 65.9373 53.6349 66.1431L53.6401 66.1686C53.8556 67.1029 54.7182 68.2169 55.5448 68.6841C55.8322 68.8278 56.0837 68.8998 56.2634 68.8638C56.5151 68.7919 56.5869 68.4684 56.5151 68.0013C56.3354 67.031 55.4728 65.8811 54.5745 65.4497C54.287 65.2342 54.0354 65.1982 53.8556 65.27Z" fill="white"/>
<path d="M57.9167 67.1389C58.1323 67.067 58.4556 67.067 58.7791 67.2107C59.7853 67.6061 60.6839 68.756 60.7197 69.7263C60.7916 70.2654 60.6119 70.6248 60.2525 70.7326C60.037 70.8045 59.7494 70.7685 59.4259 70.6248C58.5276 70.1936 57.665 69.0794 57.4855 68.1451C57.3776 67.6061 57.5573 67.2467 57.9167 67.1389Z" fill="white"/>
<path d="M63.5229 68.6123C62.3729 68.2888 61.5103 68.8999 61.6183 69.942C61.69 70.9843 62.6244 72.0983 63.6307 72.4576C64.6729 72.817 65.5353 72.242 65.5713 71.1638C65.5713 70.0857 64.6729 68.9357 63.5229 68.6123Z" fill="white"/>
<path d="M66.254 71.3436C66.29 70.2655 67.2961 69.5469 68.4821 69.7984C69.6679 70.0499 70.5305 71.1281 70.3868 72.1702C70.243 73.2124 69.2367 73.8593 68.1587 73.6436C67.0806 73.428 66.218 72.4218 66.254 71.3436Z" fill="white"/>
<path d="M51.9152 61.7484C51.7715 60.7781 50.9808 59.628 50.2262 59.3048C50.0105 59.1968 49.8308 59.1968 49.6871 59.2328C49.3996 59.3406 49.2919 59.736 49.3996 60.2749C49.5793 61.2094 50.298 62.2875 51.0168 62.6827C51.1965 62.7906 51.3403 62.8265 51.484 62.8265C51.52 62.8265 51.5918 62.8265 51.6277 62.7906C51.8794 62.7187 52.0231 62.2875 51.9152 61.7484Z" fill="white"/>
<path d="M53.3168 60.814C53.4965 60.778 53.748 60.778 54.0355 60.8859C54.934 61.2452 55.7964 62.4312 55.9401 63.4734C55.9761 64.0484 55.7964 64.4796 55.437 64.5875C55.2214 64.6593 54.9698 64.6233 54.6823 64.4796C53.8198 64.0484 52.9934 62.8984 52.8496 61.928C52.7777 61.3531 52.9214 60.9218 53.3168 60.814Z" fill="white"/>
<path d="M60.7196 65.0547C60.6838 63.8687 59.7493 62.5749 58.5995 62.2515C57.4494 61.8921 56.6229 62.5749 56.7306 63.689C56.8385 64.839 57.7729 66.0608 58.815 66.4562C59.8572 66.8874 60.7196 66.2405 60.7196 65.0547Z" fill="white"/>
<path d="M65.7509 66.456C65.679 67.6778 64.6728 68.3607 63.5228 68.0372C62.3728 67.6778 61.4385 66.456 61.4385 65.27C61.4025 64.0842 62.3728 63.3654 63.6306 63.6529C64.8526 63.9763 65.8227 65.2341 65.7509 66.456Z" fill="white"/>
<path d="M66.4696 66.6C66.3978 67.8218 67.2962 69.0078 68.5181 69.2234C69.704 69.439 70.818 68.6843 70.9977 67.4265C71.1774 66.2046 70.2431 64.9828 68.9493 64.7671C67.6556 64.5516 66.5415 65.3781 66.4696 66.6Z" fill="white"/>
<path d="M46.5966 55.136C46.5606 54.5969 46.7043 54.1657 46.9199 54.0938H47.1355C47.5667 54.2735 48.0699 55.136 48.1418 56.0703C48.2136 56.7172 47.9981 57.0407 47.8184 57.1125C47.7464 57.1484 47.6387 57.1484 47.5309 57.0765C47.0638 56.825 46.6684 55.9624 46.5966 55.136Z" fill="white"/>
<path d="M50.0463 54.9921C49.8306 54.9203 49.6509 54.9203 49.4714 54.9921C49.04 55.136 48.7885 55.6031 48.8603 56.25C48.9322 57.1843 49.5791 58.2265 50.2978 58.5499C50.4415 58.6218 50.5854 58.6578 50.6932 58.6578C50.765 58.6578 50.8369 58.6578 50.9088 58.6218C51.3041 58.4781 51.5557 58.0109 51.5197 57.3281C51.5197 56.2858 50.8369 55.2078 50.0463 54.9921Z" fill="white"/>
<path d="M55.8323 58.6578C55.8323 59.8436 55.0058 60.4905 54.0354 60.1311C53.0651 59.7718 52.2386 58.5858 52.1668 57.5078C52.1308 56.4295 52.8854 55.7468 53.9277 55.9983C54.9698 56.25 55.8323 57.4718 55.8323 58.6578Z" fill="white"/>
<path d="M58.5636 61.6404C59.7136 61.9998 60.6839 61.2451 60.7198 59.9873C60.7917 58.6935 59.8214 57.4357 58.6354 57.1842C57.4496 56.9326 56.4792 57.6874 56.4792 58.8732C56.5152 60.0592 57.4496 61.281 58.5636 61.6404Z" fill="white"/>
<path d="M47.4948 53.2673C47.4229 53.3032 47.3151 53.3032 47.2432 53.2673C46.812 53.0876 46.5245 52.3689 46.5965 51.5783C46.6323 50.9674 46.8839 50.4642 47.2074 50.3563H47.3871C47.7823 50.3923 48.2135 51.1469 48.1417 52.0455C48.0698 52.7641 47.7823 53.1955 47.4948 53.2673Z" fill="white"/>
<path d="M50.3339 50.6796C50.1694 50.6468 50.035 50.6742 49.8756 50.7066L49.8307 50.7156C49.2918 50.8953 48.8964 51.4344 48.8604 52.1531C48.7886 53.0874 49.3276 54.0219 50.0824 54.2375C50.1901 54.2734 50.2979 54.2734 50.3698 54.2734C50.4776 54.2734 50.5495 54.2734 50.6573 54.2375C51.1604 54.0937 51.5558 53.5188 51.5916 52.8C51.7354 51.7579 51.1245 50.8234 50.3339 50.6796Z" fill="white"/>
<path d="M54.3588 51.1468C55.4368 51.3265 56.2274 52.4405 56.1197 53.6983C56.0119 54.9562 55.0416 55.7109 53.9993 55.4234C52.9213 55.1717 52.1666 54.0219 52.2744 52.9077C52.3463 51.7936 53.2807 51.003 54.3588 51.1468Z" fill="white"/>
<path d="M58.6713 56.753C60.001 57.0407 61.1869 56.1421 61.3666 54.6687C61.5103 53.2312 60.5402 51.9016 59.2104 51.686C57.8807 51.5062 56.6949 52.4406 56.551 53.7703C56.4073 55.136 57.3776 56.4656 58.6713 56.753Z" fill="white"/>
<path d="M48.0697 46.6187C48.1057 46.5828 48.1776 46.5828 48.2135 46.5828C48.3573 46.5828 48.4651 46.6547 48.5729 46.7625C48.7526 46.9422 48.8963 47.4093 48.7526 48.0202C48.5369 48.9546 47.926 49.5297 47.5308 49.4577C47.387 49.4218 47.2791 49.35 47.2073 49.2421C47.0276 48.9546 46.9917 48.5234 47.0994 48.0202C47.2431 47.3374 47.6385 46.7625 48.0697 46.6187Z" fill="white"/>
<path d="M52.0229 46.8343C51.8073 46.5828 51.5558 46.4391 51.2323 46.4391C51.0885 46.4391 50.9447 46.4751 50.837 46.5109C50.1901 46.7266 49.6152 47.3734 49.4714 48.0921C49.3635 48.5952 49.4354 49.0624 49.6869 49.4218C49.8666 49.7093 50.1541 49.8532 50.4776 49.925H50.6213C50.7292 49.925 50.8729 49.889 50.9807 49.8532C51.5916 49.6735 52.1307 49.0266 52.3104 48.236C52.4182 47.6969 52.3104 47.1578 52.0229 46.8343Z" fill="white"/>
<path d="M54.4307 50.6795C53.3167 50.5358 52.6338 49.4937 52.8853 48.3437C53.101 47.1936 54.1791 46.2953 55.2931 46.3671C56.4072 46.403 57.162 47.4453 56.9103 48.7031C56.6588 49.9608 55.5448 50.8592 54.4307 50.6795Z" fill="white"/>
<path d="M62.1571 49.2781C62.4087 47.8046 61.5102 46.5828 60.1447 46.4751C58.779 46.4031 57.4494 47.4094 57.1977 48.739C56.9462 50.0687 57.8088 51.3265 59.2103 51.5422C60.5399 51.7578 61.8696 50.7156 62.1571 49.2781Z" fill="white"/>
<path d="M49.5434 43.0251C49.6871 42.9892 49.795 43.0251 49.8668 43.097C50.0106 43.2407 50.0825 43.5642 49.8668 44.1391C49.5434 45.0735 48.7528 45.7203 48.3216 45.7563C48.1657 45.7563 48.118 45.7023 48.0846 45.6645C48.0818 45.6613 48.079 45.6582 48.0763 45.6552C48.0742 45.6528 48.0721 45.6506 48.0699 45.6485C47.9622 45.5048 47.8904 45.1454 48.1059 44.6063C48.3575 43.8516 48.9684 43.1688 49.4716 43.0251H49.5434Z" fill="white"/>
<path d="M53.3885 42.6298C53.2088 42.4142 52.9573 42.3423 52.6338 42.3782C52.5619 42.3782 52.4541 42.4141 52.3464 42.4501C51.5917 42.6657 50.8729 43.4204 50.5854 44.211C50.4057 44.6782 50.4417 45.1094 50.6213 45.3969C50.7651 45.6126 51.0166 45.7203 51.376 45.7203C51.5198 45.7203 51.6635 45.6845 51.8072 45.6485C52.5259 45.4329 53.2447 44.6782 53.4962 43.8876C53.6759 43.3845 53.6401 42.9173 53.3885 42.6298Z" fill="white"/>
<path d="M47.5699 43.5577C47.589 43.5504 47.6112 43.542 47.6386 43.5282H47.6746C47.7464 43.6001 47.7464 43.9954 47.5308 44.5705C47.3152 45.1454 47.0277 45.6126 46.812 45.8641C46.8622 45.5636 46.9472 45.2804 47.0306 45.0025C47.0668 44.8819 47.1029 44.762 47.1354 44.6422C47.1714 44.5166 47.2163 44.3907 47.2613 44.2651C47.3061 44.1393 47.3511 44.0133 47.3871 43.8876C47.405 43.8337 47.4229 43.7887 47.441 43.7439C47.4589 43.6989 47.4769 43.654 47.4949 43.6001C47.5171 43.5779 47.5393 43.5693 47.5699 43.5577Z" fill="white"/>
<path d="M50.6212 37.7783C50.1182 38.4612 49.6509 39.1799 49.2197 39.9346C49.6151 39.6471 50.3338 38.8924 50.8009 38.2096C51.1244 37.7424 51.1244 37.5268 51.0884 37.4908H51.0166C50.9806 37.4908 50.9089 37.5268 50.8369 37.5987C50.822 37.6135 50.7949 37.6346 50.7629 37.6593C50.7179 37.6941 50.6634 37.7362 50.6212 37.7783Z" fill="white"/>
<path d="M73.2619 36.7361C74.4837 36.8439 75.5979 36.0533 75.7775 35.0111C75.9212 33.969 75.1665 33.0705 74.0525 32.9627C72.9385 32.8908 71.8604 33.6096 71.5729 34.6518C71.2495 35.658 72.0401 36.6283 73.2619 36.7361Z" fill="white"/>
<path d="M51.1245 37.0595C51.7714 36.233 52.4542 35.4783 53.2089 34.7595C53.2089 34.8314 53.1371 35.0111 52.8854 35.3345C52.3823 35.9814 51.5917 36.7001 51.1245 37.0595Z" fill="white"/>
<path d="M53.4605 35.2985C53.2846 35.5036 53.2282 35.6371 53.1939 35.7183C53.1862 35.7367 53.1795 35.7524 53.1729 35.7657C53.2088 35.7657 53.2448 35.7657 53.2808 35.7297C53.3167 35.7297 53.3885 35.6938 53.4605 35.6578C54.1432 35.3703 55.1854 34.5078 55.6886 33.861C55.8683 33.6094 55.9401 33.4657 55.976 33.3938C55.9041 33.3938 55.7604 33.4297 55.6166 33.5016C54.898 33.861 53.9636 34.6157 53.4605 35.2985Z" fill="white"/>
<path d="M75.0229 32.1721C74.7714 32.2799 74.4479 32.3158 74.1603 32.2799C73.5854 32.208 73.1542 31.9924 72.9025 31.6689C72.7588 31.4174 72.7228 31.1658 72.7948 30.8783C72.9385 30.4111 73.4057 30.0158 73.9808 29.8361C74.2682 29.7283 74.5197 29.6924 74.8072 29.7283C75.2744 29.7643 75.7057 29.9439 75.9572 30.2674C76.1369 30.483 76.2088 30.7705 76.1729 31.058C76.1009 31.5252 75.6338 31.9924 75.0229 32.1721Z" fill="white"/>
<path d="M55.7246 32.9267C56.4073 32.6033 57.4856 31.8486 58.0245 31.2377C57.0542 31.7767 56.1199 32.3877 55.2573 33.0345C55.2573 33.0345 55.3293 33.0345 55.473 32.9986C55.5449 33.0345 55.6527 32.9986 55.7246 32.9267Z" fill="white"/>
<path d="M59.0307 31.4893C58.7433 31.5971 58.5995 31.5971 58.5276 31.5971C58.5276 31.5252 58.5995 31.4174 58.7791 31.2737C58.9588 31.094 59.2104 30.8784 59.426 30.6987C60.1088 30.3752 60.7916 30.0877 61.4745 29.8362L61.4385 29.8721C60.9354 30.4471 59.8213 31.2018 59.0307 31.4893Z" fill="white"/>
<path d="M69.7759 28.6501C69.8837 28.7938 70.2071 28.9735 70.7822 28.9376C71.1774 28.9017 71.5728 28.7938 71.9321 28.6501C71.2134 28.5782 70.4588 28.5063 69.7399 28.5063C69.712 28.5344 69.7277 28.5625 69.753 28.6076C69.7601 28.6203 69.7681 28.6343 69.7759 28.6501Z" fill="white"/>
<path d="M75.5619 29.1893C75.3463 29.2253 75.1306 29.2253 74.9151 29.2253C74.376 29.1893 73.9448 29.0456 73.6931 28.83C74.34 28.9018 74.951 29.0456 75.5619 29.1893Z" fill="white"/>
<path d="M73.7289 70.3013C72.5071 70.1936 71.393 70.9842 71.2133 72.0263C71.0696 73.0685 71.8242 73.9669 72.9383 74.0747C74.0523 74.1466 75.1304 73.4278 75.418 72.3857C75.7055 71.3794 74.9509 70.4091 73.7289 70.3013Z" fill="white"/>
<path d="M76.2805 72.4936C76.4962 71.6312 77.5025 70.9124 78.5086 70.9124C79.2274 70.9124 79.7305 71.3077 79.8023 71.8467C78.6883 72.4218 77.5383 72.9248 76.3165 73.3202C76.2087 73.0687 76.2087 72.817 76.2805 72.4936Z" fill="white"/>
<path d="M78.5445 37.8502C77.2148 37.5986 75.9929 38.4611 75.8132 39.8267C75.6335 41.1923 76.6398 42.4861 78.0773 42.7376C79.5148 42.9892 80.7366 42.0908 80.8085 40.7251C80.8805 39.3955 79.8742 38.1017 78.5445 37.8502Z" fill="white"/>
<path d="M78.5805 37.4907C77.3945 37.2391 76.5321 36.161 76.6758 35.1188C76.8195 34.0766 77.8258 33.4298 78.9039 33.6454C79.982 33.861 80.8445 34.8673 80.8086 35.9454C80.7726 37.0235 79.7663 37.7422 78.5805 37.4907Z" fill="white"/>
<path d="M78.1851 30.3391C77.7539 30.4829 77.4305 30.8063 77.3945 31.2376C77.2867 31.9923 78.0054 32.7829 78.9757 32.9626C79.2991 33.0344 79.6226 33.0344 79.9102 32.9266C80.3774 32.7829 80.6648 32.4235 80.6648 31.9923C80.6648 31.804 80.6101 31.6432 80.5483 31.4619L80.5482 31.4615L80.5479 31.4606L80.5472 31.4587C80.5386 31.4334 80.5298 31.4076 80.5211 31.3813C79.8023 30.986 79.0836 30.6267 78.3288 30.3032C78.293 30.3391 78.2211 30.3391 78.1851 30.3391Z" fill="white"/>
<path d="M84.7977 34.1845C84.5102 34.472 84.0071 34.5798 83.3962 34.3641C82.3539 34.0407 81.4915 32.9985 81.4556 32.136C81.4556 31.9923 81.4915 31.8485 81.5274 31.7407C82.7133 32.4595 83.7914 33.286 84.7977 34.1845Z" fill="white"/>
<path d="M64.6009 38.7126C64.8165 37.4907 64.0617 36.8439 62.9119 36.9517C61.6181 37.0954 60.4681 38.1376 60.1087 39.2876C59.7853 40.4376 60.6118 41.3719 61.8696 41.2282C63.1274 41.0844 64.3494 39.9345 64.6009 38.7126Z" fill="white"/>
<path d="M34.3777 86.6528H29.2746V85.2511H35.9589V91.2167H34.4496V89.5996C33.6589 90.3902 32.2933 91.3965 29.4183 91.3965C24.8903 91.3965 22.0872 89.0246 22.0872 85.1793C22.0872 81.2621 24.8184 78.9263 29.3824 78.9263C32.4011 78.9263 34.773 80.1481 35.7433 82.1965L35.7792 82.2684L34.3417 82.9513L34.3058 82.8793C33.9105 82.0887 32.6886 80.2558 29.3105 80.2558C25.7528 80.2558 23.7762 82.0527 23.7762 85.359C23.7762 88.234 25.9324 89.9949 29.4543 89.9949C31.7543 89.9949 34.1261 88.9527 34.3777 86.6528Z" fill="white"/>
<path d="M37.7559 91.109H39.3371V79.2137L37.7559 79.7887V91.109Z" fill="white"/>
<path fill-rule="evenodd" clip-rule="evenodd" d="M40.7385 86.6888C40.7385 84.1372 43.0026 82.2686 46.0932 82.2686C49.1837 82.2686 51.4118 84.1013 51.4118 86.6888C51.4118 89.5997 49.3994 91.3966 46.0932 91.3966C42.7869 91.3966 40.7385 89.5997 40.7385 86.6888ZM49.8666 86.8325C49.8666 85.1795 48.7166 83.5263 46.0932 83.5263C44.2604 83.5263 42.2838 84.5326 42.2838 86.8325C42.2838 88.8451 43.7932 90.1388 46.0932 90.1388C48.4291 90.1388 49.8666 88.881 49.8666 86.8325Z" fill="white"/>
<path fill-rule="evenodd" clip-rule="evenodd" d="M58.4556 82.2684C56.5869 82.2684 55.5806 82.8433 54.4306 83.634V79.2137L52.8854 79.7887V89.4918C52.8854 89.6715 52.8494 90.3542 52.8136 90.7496C52.8136 90.8338 52.8011 90.9056 52.7909 90.9653C52.7837 91.0073 52.7776 91.0433 52.7776 91.073V91.145H53.9994L54.3228 89.8512C55.5806 90.8215 56.5509 91.3965 58.6353 91.3965C62.0134 91.3965 63.7743 89.1324 63.7743 86.9043C63.7743 85.1794 62.6603 82.2684 58.4556 82.2684ZM54.4306 85.1434C55.2214 84.3887 56.4072 83.5262 58.3478 83.5262C60.2165 83.5262 62.1931 84.4246 62.1931 86.9403C62.1931 89.0246 60.2525 90.1387 58.3118 90.1387C56.8384 90.1387 55.2931 89.2761 54.4306 88.3778V85.1434Z" fill="white"/>
<path fill-rule="evenodd" clip-rule="evenodd" d="M74.3399 85.0716V89.7434C74.3399 90.2106 74.4118 90.57 74.5196 91.0372V91.1091H72.9743V91.0732C72.9024 90.8217 72.8306 90.4623 72.7946 90.1388C71.3931 90.9654 69.9197 91.3606 68.3025 91.3606C66.865 91.3606 64.4932 91.0012 64.4932 88.7013C64.4932 86.0114 68.2874 85.648 71.6605 85.3252L71.6806 85.3232C72.0758 85.2873 72.4352 85.2513 72.7946 85.2155V84.9638C72.7946 83.8498 71.3212 83.4545 69.9197 83.4545C67.5554 83.4545 66.7266 84.3471 66.2585 84.8512L66.2541 84.8561L66.2181 84.9278L65.0321 84.1732L65.1041 84.0654L65.1241 84.0427C65.668 83.4255 66.6881 82.2686 69.8117 82.2686C71.1774 82.2686 74.3399 82.556 74.3399 85.0716ZM72.7946 88.8451V86.4373C68.6619 86.8325 65.9665 87.1919 66.0024 88.7013C66.0024 90.0309 67.6916 90.1388 68.2305 90.1388C70.1712 90.1388 71.9321 89.2763 72.7946 88.8451Z" fill="white"/>
<path d="M76.5679 79.7887V91.109H78.1133V79.2137L76.5679 79.7887Z" fill="white"/>
<path fill-rule="evenodd" clip-rule="evenodd" d="M88.1758 79.1777H94.5726C98.885 79.1777 101.473 81.37 101.473 85.0356C101.473 90.5339 96.2975 91.1449 94.0694 91.1449H88.1758V79.1777ZM89.9367 89.6715H94.3209C98.7413 89.6715 99.6756 87.1558 99.7116 84.9996C99.7116 81.2261 96.4772 80.6512 94.5726 80.6512H89.9367V89.6715Z" fill="white"/>
<path d="M107.33 86.0419L107.267 86.0349C105.677 85.8583 104.312 85.7068 104.312 84.8201C104.312 83.9935 105.21 83.5263 106.863 83.5263C108.444 83.5263 109.702 84.0295 110.529 85.0358L110.565 85.0716L111.643 84.1732L111.607 84.1372C111.247 83.6701 110.169 82.2686 106.899 82.2686C104.887 82.2686 102.766 82.9514 102.766 84.9278C102.766 86.8704 105.023 87.1468 107.045 87.3946L107.151 87.4076C108.804 87.5873 110.349 87.767 110.349 88.7731C110.349 89.7794 108.84 90.1388 107.546 90.1388C105.821 90.1388 104.455 89.5637 103.449 88.3779L103.413 88.3419L102.263 89.3122L102.299 89.3482C103.593 90.7497 105.21 91.3606 107.438 91.3606C110.277 91.3606 111.93 90.3543 111.93 88.6294C111.93 86.5775 109.562 86.3018 107.431 86.0537L107.33 86.0419Z" fill="white"/>
<path d="M83.8274 91.1449V79.1777H85.5883V91.1449H83.8274Z" fill="white"/>
</g>
</g>
<defs>
<clipPath id="clip0_307_2756">
<rect width="135" height="120" fill="white"/>
</clipPath>
<clipPath id="clip1_307_2756">
<rect width="90" height="63.0592" fill="white" transform="translate(22 28.4703)"/>
</clipPath>
</defs>
</svg>
