<svg width="135" height="120" viewBox="0 0 135 120" fill="none" xmlns="http://www.w3.org/2000/svg">
<rect width="135" height="120" rx="3" fill="#412E8B"/>
<g clip-path="url(#clip0_61_1801)">
<path d="M19.5 59.2144V66.7234H19.811C19.9776 66.7234 20.3664 66.6012 20.6885 66.4568C21.5661 66.0458 21.6105 65.9014 21.6105 63.4243C21.6105 62.1691 21.6772 61.0695 21.7549 60.6585C22.0993 59.0256 23.2434 58.0592 24.8318 58.0592C26.1092 58.0592 27.1423 58.6813 27.6199 59.7476C27.8643 60.303 27.8865 60.503 27.942 62.9689C27.9976 65.4238 28.0087 65.6237 28.2308 65.9125C28.553 66.3346 29.0306 66.6012 29.6415 66.679L30.1636 66.7567V63.7131C30.1636 60.3474 30.0747 59.6365 29.4971 58.4258C29.0861 57.5371 28.1086 56.5374 27.2755 56.1486C25.6316 55.3711 23.5655 55.4822 22.1881 56.4041C21.9215 56.5819 21.6883 56.7263 21.6549 56.7263C21.6327 56.7263 21.6105 55.9154 21.6105 54.9157C21.6105 53.3383 21.5883 53.0718 21.3995 52.7607C21.1551 52.372 20.3886 51.8832 19.8555 51.7721L19.5 51.6944V59.2144Z" fill="#F2F4F6"/>
<path d="M55.0454 58.5812V65.4681L55.3009 65.8457C55.5897 66.2901 56.3895 66.7233 56.9004 66.7233H57.267V64.9127V63.1021L58.0001 62.4578C58.4 62.1024 58.7332 61.8247 58.7555 61.8469C59.1664 62.4134 61.8212 65.6347 62.0323 65.8124C62.5877 66.3123 63.443 66.6344 64.3872 66.6899C64.8648 66.7233 65.2647 66.7233 65.2647 66.6899C65.2647 66.6455 64.1539 65.2126 62.7987 63.4909L60.3439 60.3695L62.6099 58.0924L64.8759 55.8153L63.9762 55.8819C62.9098 55.9597 62.1212 56.1819 61.6324 56.5262C61.4436 56.6706 60.3772 57.6259 59.2775 58.6478L57.2781 60.5139L57.2448 56.7928C57.2115 53.216 57.2003 53.0605 56.9782 52.7606C56.6338 52.3052 55.934 51.8387 55.4564 51.7609L55.0454 51.6943V58.5812Z" fill="#F2F4F6"/>
<path d="M35.3954 55.7931C32.9517 56.4484 31.1633 58.7922 31.1633 61.3137C31.1744 63.3687 32.4741 65.4681 34.2735 66.3567C35.1955 66.8121 35.7842 66.9343 36.895 66.9454C38.028 66.9454 38.9833 66.6677 39.9275 66.0568L40.6273 65.6014L40.9938 65.9902C41.3715 66.4011 41.9824 66.7233 42.3934 66.7233H42.6267L42.5823 63.5242C42.5378 60.6472 42.5045 60.2696 42.2935 59.6031C41.8269 58.1813 40.6939 56.8261 39.4609 56.2374C38.2058 55.6265 36.6395 55.4598 35.3954 55.7931ZM38.3168 57.9369C38.9833 58.2257 39.7831 58.9811 40.1385 59.6697C40.4051 60.1585 40.4384 60.3473 40.4384 61.2804C40.4384 62.1579 40.394 62.4245 40.1719 62.8577C39.8275 63.5575 39.1944 64.2018 38.4723 64.5794C37.9614 64.846 37.7614 64.8905 36.8839 64.8905C36.0175 64.8905 35.8064 64.846 35.251 64.5794C33.1183 63.5353 32.5518 60.7028 34.0958 58.8589C34.4513 58.4479 35.1844 57.9924 35.862 57.7703C36.4729 57.5703 37.6726 57.6481 38.3168 57.9369Z" fill="#F2F4F6"/>
<path d="M47.8253 55.7932C45.937 56.293 44.393 57.7593 43.8265 59.5921C43.5488 60.4807 43.5265 61.9803 43.782 62.8467C44.2041 64.2685 45.3371 65.6903 46.5479 66.3124C47.7587 66.9122 49.3249 67.1232 50.6023 66.8233C51.7575 66.5567 53.3682 65.4793 53.8458 64.6462L54.0346 64.3129L53.5348 64.0575C52.835 63.7131 52.1796 63.7909 51.3132 64.3129C50.4912 64.8128 49.7914 64.9905 48.9028 64.9239C47.0922 64.7795 45.737 63.3577 45.6259 61.5026C45.5704 60.4474 45.8481 59.6365 46.559 58.8478C47.3032 58.0147 48.0919 57.6704 49.236 57.6704C50.1024 57.6704 50.1802 57.6926 51.1466 58.1925C52.3129 58.8034 52.8794 58.8701 53.6125 58.5035C54.1457 58.2258 54.1124 58.1258 53.2126 57.2372C51.813 55.8598 49.7025 55.2933 47.8253 55.7932Z" fill="#F2F4F6"/>
<path d="M69.8189 55.7821C69.0524 55.9931 68.7525 56.1375 68.0749 56.5707L67.4529 56.9595L67.053 56.5707C66.6531 56.1819 65.9866 55.8376 65.6423 55.8376C65.4868 55.8376 65.4757 56.1486 65.509 59.0811C65.5534 62.1136 65.5645 62.3802 65.8089 63.0577C66.4421 64.8794 67.8528 66.2235 69.6967 66.7678C70.452 66.9899 71.8961 67.0011 72.6958 66.7789C75.2951 66.0902 77.1168 63.5354 76.8946 60.8917C76.6836 58.4368 74.9841 56.393 72.6403 55.7932C71.8294 55.5821 70.5187 55.5821 69.8189 55.7821ZM72.7403 57.9814C75.0174 59.0256 75.5839 61.9247 73.8733 63.8131C73.6511 64.0686 73.1846 64.4129 72.8402 64.5795C72.2848 64.8461 72.0738 64.8905 71.2074 64.8905C70.2743 64.8905 70.1632 64.8683 69.4856 64.4907C68.2304 63.802 67.5973 62.7023 67.5973 61.236C67.5973 60.6029 67.6639 60.3141 67.9194 59.7809C68.2416 59.1033 68.9525 58.3369 69.5856 58.0147C70.4854 57.5371 71.7517 57.526 72.7403 57.9814Z" fill="#F2F4F6"/>
<path d="M81.9598 55.7821C79.9382 56.3263 78.272 58.0147 77.8277 59.9475C77.6611 60.6806 77.6833 62.1358 77.8721 62.8911C78.372 64.8017 79.8938 66.2457 81.9821 66.7789C82.8374 67.0011 84.4369 66.9899 85.3033 66.7678C86.3142 66.5123 87.3361 65.968 88.0248 65.3238L88.6357 64.7573L88.0803 64.4684C87.125 63.9797 86.8473 63.9797 85.8143 64.4462C83.7038 65.4015 81.4045 64.9572 80.3492 63.391C80.127 63.0577 79.9049 62.6467 79.8605 62.469L79.7938 62.1691H84.237H88.6913L88.8579 61.9247C89.08 61.6026 89.0911 60.7473 88.869 59.892C88.0803 56.8817 84.9034 54.9934 81.9598 55.7821ZM84.3258 57.7815C85.4588 58.1147 86.4252 58.9922 86.7807 60.0142L86.914 60.3918H83.3594H79.8049L79.8716 60.1364C80.016 59.6587 80.4714 58.9811 80.9379 58.5701C81.871 57.7148 83.1373 57.426 84.3258 57.7815Z" fill="#F2F4F6"/>
<path d="M95.0116 55.8486C93.9675 55.9819 93.0789 56.3485 92.5013 56.8816C92.2013 57.1482 91.9792 57.2815 91.957 57.2038C91.8126 56.8039 91.3571 56.304 90.9239 56.0819C89.9464 55.5931 90.0242 55.1932 90.0575 60.7139C90.0908 65.4459 90.1019 65.6014 90.3241 65.9124C90.6129 66.3012 91.4127 66.7233 91.8903 66.7233H92.2569V63.7352C92.2569 61.0693 92.2791 60.6694 92.479 60.0363C92.8678 58.77 93.8786 57.9369 95.256 57.7703C95.5893 57.7258 96.0002 57.6259 96.1558 57.5481C96.5001 57.3815 96.8111 56.6817 96.8111 56.1152V55.7264L96.2891 55.7375C95.9891 55.7486 95.4226 55.7931 95.0116 55.8486Z" fill="#F2F4F6"/>
<path d="M102.787 55.8486C101.743 55.9819 100.854 56.3485 100.288 56.8705C100.021 57.1149 99.7881 57.2926 99.777 57.2704C99.7548 57.2482 99.6104 57.0149 99.4327 56.7484C99.2327 56.4373 98.9661 56.193 98.6662 56.0486C97.7332 55.6376 97.8109 55.2377 97.8109 60.6583C97.8109 65.4681 97.8109 65.4681 98.0664 65.8457C98.3552 66.2901 99.155 66.7233 99.6659 66.7233H100.032V63.7352C100.032 61.0804 100.055 60.6694 100.255 60.0474C100.655 58.7478 101.51 58.0369 102.987 57.7814C104.154 57.5814 104.587 57.1038 104.587 56.0263C104.587 55.7375 104.565 55.7264 104.065 55.7375C103.765 55.7486 103.198 55.7931 102.787 55.8486Z" fill="#F2F4F6"/>
<path d="M105.586 58.2924C105.586 61.2138 105.698 61.9691 106.264 63.1132C106.886 64.3906 108.019 65.3126 109.419 65.6792C110.674 66.0124 112.584 65.8236 113.606 65.246C113.84 65.1238 114.051 65.046 114.084 65.0682C114.173 65.1682 113.94 66.3679 113.751 66.7677C113.651 66.9899 113.351 67.3565 113.084 67.6008C112.529 68.1118 111.851 68.334 110.529 68.445C109.374 68.5339 108.774 68.8227 108.43 69.4225C108.286 69.678 108.13 70.0224 108.097 70.189L108.03 70.5H109.841C111.862 70.5 112.54 70.3778 113.662 69.8113C114.428 69.4336 115.317 68.5783 115.672 67.8785C116.239 66.7677 116.25 66.6011 116.25 60.9694V55.7042L115.839 55.782C115.317 55.882 114.706 56.193 114.417 56.504C114.217 56.7262 114.184 56.9594 114.128 58.8256C114.062 61.1582 113.928 61.747 113.306 62.469C112.762 63.1132 111.962 63.4354 110.918 63.4354C109.574 63.4354 108.619 62.8466 108.097 61.7247C107.897 61.2915 107.864 60.9361 107.808 59.1144C107.764 57.2705 107.719 56.9594 107.53 56.6373C107.297 56.2485 106.675 55.8931 106.009 55.782L105.586 55.7042V58.2924Z" fill="#F2F4F6"/>
<path d="M65.3892 54.5269C65.3892 51.9775 67.372 50.2779 69.6382 50.5612C69.6382 53.3938 67.372 54.8102 65.3892 54.5269Z" fill="#F2F4F6"/>
</g>
<defs>
<clipPath id="clip0_61_1801">
<rect width="96.75" height="19.9695" fill="white" transform="matrix(1 0 0 -1 19.5 70.5)"/>
</clipPath>
</defs>
</svg>
