<svg width="135" height="120" viewBox="0 0 135 120" fill="none" xmlns="http://www.w3.org/2000/svg">
<rect width="135" height="120" rx="3" fill="#489DCD"/>
<g clip-path="url(#clip0_61_2502)">
<path fill-rule="evenodd" clip-rule="evenodd" d="M60.7152 68.9429L60.002 68.5086C59.5542 68.2364 59.2355 67.9671 59.045 67.7024C58.856 67.4384 58.7622 67.1339 58.7622 66.7896C58.7622 66.2729 58.9415 65.8536 59.3 65.5311C59.657 65.2086 60.1227 65.0474 60.6972 65.0474C61.244 65.0474 61.7465 65.2011 62.2032 65.5086V66.5736C61.7307 66.1206 61.2222 65.8934 60.6762 65.8934C60.371 65.8934 60.1182 65.9639 59.9217 66.1056C59.7237 66.2466 59.6255 66.4289 59.6255 66.6501C59.6255 66.8466 59.6982 67.0304 59.843 67.2021C59.9885 67.3731 60.2232 67.5531 60.5442 67.7414L61.2605 68.1666C62.0622 68.6444 62.4612 69.2526 62.4612 69.9906C62.4612 70.5171 62.2865 70.9439 61.934 71.2724C61.5815 71.6016 61.124 71.7659 60.56 71.7659C59.9127 71.7659 59.3225 71.5664 58.7907 71.1681V69.9749C59.297 70.6184 59.8842 70.9394 60.5502 70.9394C60.845 70.9394 61.0895 70.8576 61.286 70.6934C61.481 70.5299 61.5785 70.3251 61.5785 70.0784C61.5785 69.6794 61.2905 69.3006 60.7152 68.9429Z" fill="#FEFEFE"/>
<path fill-rule="evenodd" clip-rule="evenodd" d="M66.8463 65.93C66.0948 65.93 65.4783 66.1655 64.9953 66.6342C64.5123 67.1037 64.2716 67.7037 64.2716 68.432C64.2716 69.14 64.5138 69.728 64.9983 70.1975C65.4828 70.667 66.0896 70.9017 66.8178 70.9017C67.5491 70.9017 68.1611 70.6625 68.6486 70.184C69.1383 69.7047 69.3836 69.1085 69.3836 68.3952C69.3836 67.7 69.1383 67.1157 68.6486 66.6417C68.1611 66.167 67.5581 65.93 66.8463 65.93ZM66.8081 65.0382C67.8213 65.0382 68.6658 65.3585 69.3401 66.0012C70.0136 66.6425 70.3503 67.4465 70.3503 68.414C70.3503 69.3815 70.0106 70.181 69.3303 70.8147C68.6501 71.4492 67.7928 71.7665 66.7578 71.7665C65.7686 71.7665 64.9451 71.4492 64.2873 70.8147C63.6288 70.181 63.2996 69.3875 63.2996 68.432C63.2996 67.4532 63.6303 66.6425 64.2941 66.0012C64.9571 65.3585 65.7948 65.0382 66.8081 65.0382Z" fill="#FEFEFE"/>
<path fill-rule="evenodd" clip-rule="evenodd" d="M71.6021 65.1324H72.541V70.8362H75.4931V71.6904H71.6021V65.1324Z" fill="#FEFEFE"/>
<path fill-rule="evenodd" clip-rule="evenodd" d="M80.9741 65.1324H81.9191V68.8554C81.9191 69.3594 81.8816 69.7397 81.8074 69.9962C81.7339 70.2527 81.6431 70.4664 81.5366 70.6374C81.4271 70.8069 81.2951 70.9599 81.1399 71.0942C80.6194 71.5419 79.9406 71.7662 79.1014 71.7662C78.2464 71.7662 77.5616 71.5434 77.0449 71.0987C76.8896 70.9614 76.7569 70.8069 76.6481 70.6374C76.5409 70.4664 76.4524 70.2572 76.3811 70.0097C76.3099 69.7622 76.2754 69.3744 76.2754 68.8457V65.1324H77.2189V68.8554C77.2189 69.4719 77.2894 69.9002 77.4296 70.1409C77.5714 70.3824 77.7859 70.5752 78.0739 70.7214C78.3619 70.8669 78.7009 70.9389 79.0916 70.9389C79.6481 70.9389 80.1026 70.7942 80.4544 70.5024C80.6389 70.3464 80.7716 70.1612 80.8526 69.9482C80.9336 69.7367 80.9741 69.3714 80.9741 68.8554V65.1324Z" fill="#FEFEFE"/>
<path fill-rule="evenodd" clip-rule="evenodd" d="M82.7559 65.1224H88.2346V65.9579H85.9486V71.6909H85.0051V65.9579H82.7559V65.1224Z" fill="#FEFEFE"/>
<mask id="mask0_61_2502" style="mask-type:alpha" maskUnits="userSpaceOnUse" x="23" y="43" width="89" height="34">
<path d="M23.25 76.381H111.176V43.4995H23.25V76.381Z" fill="white"/>
</mask>
<g mask="url(#mask0_61_2502)">
<path fill-rule="evenodd" clip-rule="evenodd" d="M89.2275 71.6906H90.1658V65.1326H89.2275V71.6906Z" fill="#FEFEFE"/>
<path fill-rule="evenodd" clip-rule="evenodd" d="M94.9728 65.93C94.2228 65.93 93.6063 66.1655 93.1233 66.6342C92.6403 67.1037 92.398 67.7037 92.398 68.432C92.398 69.14 92.6403 69.728 93.1248 70.1975C93.6108 70.667 94.216 70.9017 94.9458 70.9017C95.677 70.9017 96.2875 70.6625 96.7765 70.184C97.2663 69.7047 97.5115 69.1085 97.5115 68.3952C97.5115 67.7 97.2663 67.1157 96.7765 66.6417C96.2875 66.167 95.686 65.93 94.9728 65.93ZM94.936 65.0382C95.9493 65.0382 96.7923 65.3585 97.4665 66.0012C98.1408 66.6425 98.4768 67.4465 98.4768 68.414C98.4768 69.3815 98.1385 70.181 97.4575 70.8147C96.7765 71.4492 95.9193 71.7665 94.8843 71.7665C93.895 71.7665 93.0715 71.4492 92.4138 70.8147C91.7553 70.181 91.4268 69.3875 91.4268 68.432C91.4268 67.4532 91.7583 66.6425 92.422 66.0012C93.0843 65.3585 93.9213 65.0382 94.936 65.0382Z" fill="#FEFEFE"/>
<path fill-rule="evenodd" clip-rule="evenodd" d="M104.94 65.1324H105.83V71.6904H105.024L100.64 66.6399V71.6904H99.7571V65.1324H100.518L104.94 70.2257V65.1324Z" fill="#FEFEFE"/>
<path fill-rule="evenodd" clip-rule="evenodd" d="M108.955 68.9429L108.243 68.5086C107.794 68.2364 107.476 67.9671 107.286 67.7024C107.098 67.4384 107.003 67.1339 107.003 66.7896C107.003 66.2729 107.182 65.8536 107.541 65.5311C107.899 65.2086 108.364 65.0474 108.937 65.0474C109.484 65.0474 109.987 65.2011 110.444 65.5086V66.5736C109.971 66.1206 109.464 65.8934 108.919 65.8934C108.612 65.8934 108.36 65.9639 108.162 66.1056C107.966 66.2466 107.866 66.4289 107.866 66.6501C107.866 66.8466 107.94 67.0304 108.085 67.2021C108.231 67.3731 108.464 67.5531 108.785 67.7414L109.502 68.1666C110.302 68.6444 110.703 69.2526 110.703 69.9906C110.703 70.5171 110.527 70.9439 110.174 71.2724C109.822 71.6016 109.364 71.7659 108.801 71.7659C108.154 71.7659 107.563 71.5664 107.031 71.1681V69.9749C107.538 70.6184 108.127 70.9394 108.792 70.9394C109.086 70.9394 109.331 70.8576 109.526 70.6934C109.723 70.5299 109.819 70.3251 109.819 70.0784C109.819 69.6794 109.532 69.3006 108.955 68.9429Z" fill="#FEFEFE"/>
<path fill-rule="evenodd" clip-rule="evenodd" d="M39.6119 71.5059C33.1859 71.5059 27.9562 66.2762 27.9562 59.8509C27.9562 53.4212 33.1859 48.1929 39.6119 48.1929C46.0379 48.1929 51.2677 53.4212 51.2677 59.8509C51.2677 66.2762 46.0379 71.5059 39.6119 71.5059ZM39.6119 47.4819C32.7817 47.4819 27.2422 53.0192 27.2422 59.8509C27.2422 66.6804 32.7817 72.2192 39.6119 72.2192C46.4414 72.2192 51.9794 66.6804 51.9794 59.8509C51.9794 53.0192 46.4414 47.4819 39.6119 47.4819Z" fill="#FEFEFE"/>
<path fill-rule="evenodd" clip-rule="evenodd" d="M111.175 55.6369C111.175 55.6369 111.227 54.8329 110.659 54.1107C110.03 53.3127 108.962 53.2309 108.962 53.2309H99.6022C99.6022 53.2309 99.3914 53.2534 99.2287 53.0982C99.069 52.9459 99.0727 52.7322 99.0727 52.7322V51.6627C99.0727 51.6627 99.0465 51.4714 99.225 51.2884C99.369 51.1392 99.5962 51.1632 99.5962 51.1632H111.175V50.2317C111.175 49.7322 111.013 49.2514 110.696 48.8127C110.026 47.8842 108.962 47.8759 108.962 47.8759H98.3354C98.3354 47.8759 97.2217 47.7334 96.414 48.6342C95.7337 49.3894 95.7967 50.2317 95.7967 50.2317V54.0664C95.7967 54.0664 95.7607 55.0137 96.5002 55.7884C97.1842 56.5047 98.1194 56.4927 98.1194 56.4927H107.398C107.398 56.4927 107.641 56.4919 107.788 56.6704C107.93 56.8422 107.911 56.9907 107.911 56.9907V58.1067C107.911 58.1067 107.93 58.2702 107.788 58.4337C107.645 58.6017 107.43 58.5927 107.43 58.5927H94.938L89.1082 47.8759H85.0605L83.0175 51.5974L80.9804 47.8759H76.9275L70.896 58.8904L66.6285 53.9284L72.5227 47.9284H68.1307L62.343 53.7462V47.8759H58.6792V61.8709H62.343V53.8917L69.2662 61.8709H73.3349L78.9367 51.6064L80.9804 55.3354L77.4074 61.8709H81.4717L87.0817 51.5974L92.6819 61.8709H108.962C108.962 61.8709 110.061 61.8117 110.695 60.9492C111.226 60.2254 111.175 59.2647 111.175 59.2647V55.6369Z" fill="#FEFEFE"/>
<path fill-rule="evenodd" clip-rule="evenodd" d="M75.71 61.0542H75.7185L75.71 61.0449V61.0542Z" fill="#FEFEFE"/>
<path fill-rule="evenodd" clip-rule="evenodd" d="M28.0571 65.8029V71.5794H33.6986C31.2619 70.3006 29.2819 68.2734 28.0571 65.8029Z" fill="#FEFEFE"/>
<path fill-rule="evenodd" clip-rule="evenodd" d="M33.5337 48.3483H28.0444V54.0505C29.2392 51.6303 31.1644 49.6323 33.5337 48.3483Z" fill="#FEFEFE"/>
<path fill-rule="evenodd" clip-rule="evenodd" d="M51.2772 53.8659V48.3654H45.8877C48.1917 49.6119 50.0742 51.5349 51.2772 53.8659Z" fill="#FEFEFE"/>
<path fill-rule="evenodd" clip-rule="evenodd" d="M45.7524 71.5792H51.2904V66.0015C50.0612 68.382 48.1217 70.3342 45.7524 71.5792Z" fill="#FEFEFE"/>
<path fill-rule="evenodd" clip-rule="evenodd" d="M27.2955 55.9197L23.2493 59.9637L27.2393 63.9499C26.8463 62.7109 26.634 61.3894 26.634 60.0199C26.634 58.5852 26.868 57.2097 27.2955 55.9197Z" fill="#FEFEFE"/>
<path fill-rule="evenodd" clip-rule="evenodd" d="M35.6934 72.4056L39.6691 76.3814L43.6884 72.3636C42.4089 72.7814 41.0446 73.0109 39.6279 73.0109C38.2554 73.0109 36.9346 72.7971 35.6934 72.4056Z" fill="#FEFEFE"/>
<path fill-rule="evenodd" clip-rule="evenodd" d="M43.4997 47.3242L39.677 43.5L35.7207 47.4555C37.0107 47.0288 38.3877 46.7962 39.8202 46.7962C41.099 46.7962 42.3327 46.9845 43.4997 47.3242Z" fill="#FEFEFE"/>
<path fill-rule="evenodd" clip-rule="evenodd" d="M52.1445 63.8711L56.0723 59.9426L52.2638 56.1333C52.6043 57.3011 52.7933 58.5341 52.7933 59.8128C52.7933 61.2288 52.5645 62.5931 52.1445 63.8711Z" fill="#FEFEFE"/>
<path fill-rule="evenodd" clip-rule="evenodd" d="M47.9587 64.1037L43.4024 62.6037L46.2367 66.4745L42.3659 63.6402L43.8652 68.1957L41.0602 64.3032L41.0782 69.1025L39.6112 64.5342L38.1472 69.1025L38.1629 64.3032L35.3587 68.1957L36.8579 63.6402L32.9872 66.4745L35.8222 62.6037L31.2644 64.1037L35.1577 61.2965L30.3599 61.3145L34.9274 59.8497L30.3599 58.3842L35.1577 58.403L31.2644 55.5957L35.8222 57.0972L32.9872 53.2265L36.8579 56.06L35.3587 51.5007L38.1629 55.3947L38.1472 50.597L39.6112 55.1645L41.0782 50.597L41.0602 55.3947L43.8652 51.5007L42.3659 56.06L46.2367 53.2265L43.4024 57.0972L47.9587 55.5957L44.0669 58.403L48.8632 58.3842L44.2972 59.8497L48.8632 61.3145L44.0669 61.2965L47.9587 64.1037ZM39.6134 48.8757C33.5594 48.8757 28.6387 53.7957 28.6387 59.8505C28.6387 65.9015 33.5594 70.8245 39.6134 70.8245C45.6637 70.8245 50.5852 65.9015 50.5852 59.8505C50.5852 53.7957 45.6637 48.8757 39.6134 48.8757Z" fill="#FEFEFE"/>
</g>
</g>
<defs>
<clipPath id="clip0_61_2502">
<rect width="88.5" height="33" fill="white" transform="translate(23.25 43.5)"/>
</clipPath>
</defs>
</svg>
