<svg width="135" height="120" viewBox="0 0 135 120" fill="none" xmlns="http://www.w3.org/2000/svg">
<g clip-path="url(#clip0_307_2847)">
<path d="M132 0H3C1.34315 0 0 1.34315 0 3V117C0 118.657 1.34315 120 3 120H132C133.657 120 135 118.657 135 117V3C135 1.34315 133.657 0 132 0Z" fill="#000F87"/>
<g clip-path="url(#clip1_307_2847)">
<path fill-rule="evenodd" clip-rule="evenodd" d="M17 47.2321V50.4645H32.5862C41.1586 50.4645 48.1725 50.4431 48.1728 50.4164C48.1731 50.3902 48.1804 48.9357 48.1888 47.1843L48.2043 43.9999H32.6023H17V47.2321ZM81.6541 45.3279C81.6506 45.373 81.5652 45.408 81.4567 45.408C81.3513 45.408 81.2646 45.4368 81.2646 45.4719C81.2646 45.5072 81.2204 45.536 81.1656 45.536C81.0725 45.536 80.7667 45.7964 80.7349 45.9025C80.7272 45.9297 80.6966 45.944 80.6677 45.9343C80.6388 45.9246 80.6223 46.0398 80.6318 46.1905C80.643 46.3749 80.6235 46.4587 80.5728 46.4481C80.531 46.4394 80.4968 46.4896 80.4968 46.56C80.4968 46.6305 80.5316 46.681 80.5746 46.6722C80.6259 46.6617 80.6459 46.7267 80.6335 46.864C80.6223 46.9913 80.6441 47.0721 80.6901 47.0721C80.7314 47.0721 80.8463 47.1586 80.9447 47.2641C81.0431 47.3697 81.1556 47.4562 81.1945 47.4562C81.2334 47.4562 81.2646 47.4849 81.2646 47.5203C81.2646 47.6122 81.9888 47.5995 82.1715 47.5043C82.4632 47.3518 82.673 47.1492 82.673 47.0188C82.673 46.867 82.7773 46.7772 82.8168 46.8954C82.8315 46.9393 82.8303 46.7884 82.8138 46.5597C82.7979 46.3311 82.7596 46.1345 82.729 46.1227C82.6983 46.1109 82.673 46.0302 82.673 45.9428C82.673 45.8535 82.6447 45.8018 82.6088 45.8239C82.5734 45.8457 82.5451 45.8309 82.5451 45.7912C82.5451 45.6845 82.3778 45.536 82.2575 45.536C82.2004 45.536 82.1709 45.5072 82.1927 45.4719C82.2169 45.4334 82.1309 45.408 81.9776 45.408C81.8339 45.408 81.7095 45.373 81.6913 45.3279C81.6653 45.2638 81.6577 45.2638 81.6541 45.3279ZM54.7013 51.1686V56.9295H57.9335H61.1659V56.2254V55.5214H58.8777H56.5894L56.6061 50.4645L56.623 45.408H55.6621H54.7013V51.1686ZM65.8002 48.6184C65.7821 48.6481 65.639 48.6723 65.4827 48.6723C65.3263 48.6723 65.1987 48.7013 65.1987 48.7364C65.1987 48.7715 65.0977 48.8005 64.9746 48.8005C64.8512 48.8005 64.7505 48.8292 64.7505 48.8643C64.7505 48.8997 64.693 48.9284 64.6226 48.9284C64.5521 48.9284 64.4946 48.9572 64.4946 48.9923C64.4946 49.0276 64.4368 49.0564 64.3663 49.0564C64.2959 49.0564 64.2384 49.0851 64.2384 49.1205C64.2384 49.1556 64.1952 49.1843 64.1423 49.1843C64.0896 49.1843 64.0464 49.2133 64.0464 49.2484C64.0464 49.2835 64.0156 49.3125 63.9777 49.3125C63.9403 49.3125 63.8731 49.3485 63.8289 49.3924C63.7848 49.4365 63.6499 49.5596 63.5295 49.6664C63.4089 49.7729 63.2694 49.9386 63.2195 50.0345C63.1696 50.1301 63.1046 50.2087 63.0756 50.2087C63.0462 50.2087 63.0223 50.2535 63.0223 50.3085C63.0223 50.3632 62.9936 50.3905 62.9582 50.3687C62.9219 50.346 62.8941 50.4013 62.8941 50.4966C62.8941 50.5922 62.8666 50.6472 62.8303 50.6245C62.7928 50.6015 62.7661 50.6666 62.7661 50.7809C62.7661 50.8886 62.7374 50.9766 62.7023 50.9766C62.667 50.9766 62.6382 51.063 62.6382 51.1686C62.6382 51.2742 62.6095 51.3607 62.5741 51.3607C62.539 51.3607 62.5103 51.4886 62.5103 51.6449C62.5103 51.8013 62.4812 51.9471 62.4462 51.9689C62.366 52.0185 62.3603 53.4883 62.4398 53.5721C62.4719 53.6057 62.513 53.7626 62.5318 53.9212C62.5859 54.3784 62.6482 54.6252 62.7096 54.6252C62.7407 54.6252 62.7661 54.6827 62.7661 54.7531C62.7661 54.8236 62.7949 54.8811 62.8303 54.8811C62.8654 54.8811 62.8941 54.9694 62.8941 55.0771C62.8941 55.1914 62.921 55.2564 62.9582 55.2331C62.9936 55.2113 63.0223 55.2253 63.0223 55.2643C63.0223 55.303 63.0798 55.3964 63.1503 55.472C63.2207 55.5476 63.2782 55.649 63.2782 55.6971C63.2782 55.7455 63.3072 55.7669 63.3423 55.7455C63.3774 55.7237 63.4064 55.7385 63.4064 55.7784C63.4064 55.8713 63.8671 56.3159 64.1141 56.4619C64.2176 56.523 64.3025 56.5956 64.3025 56.6231C64.3025 56.6509 64.36 56.6733 64.4305 56.6733C64.5009 56.6733 64.5584 56.7024 64.5584 56.7374C64.5584 56.7725 64.6162 56.8015 64.6863 56.8015C64.7568 56.8015 64.8146 56.8303 64.8146 56.8654C64.8146 56.9008 64.9008 56.9295 65.0066 56.9295C65.1122 56.9295 65.1987 56.9582 65.1987 56.9936C65.1987 57.0287 65.3426 57.0575 65.5187 57.0575C65.6947 57.0575 65.8386 57.0859 65.8386 57.1203C65.8386 57.1926 66.6991 57.1784 66.7726 57.1049C66.7986 57.0789 67.017 57.0575 67.2574 57.0575C67.5063 57.0575 67.695 57.0299 67.695 56.9936C67.695 56.9582 67.7797 56.9295 67.8831 56.9295C67.9866 56.9295 68.0891 56.9008 68.1109 56.8654C68.1326 56.8303 68.2191 56.8015 68.3029 56.8015C68.3867 56.8015 68.4732 56.7725 68.495 56.7374C68.5168 56.7024 68.6048 56.6733 68.6907 56.6733C68.7769 56.6733 68.847 56.6446 68.847 56.6095C68.847 56.5741 68.9335 56.5454 69.039 56.5454C69.2224 56.5454 69.2311 56.5333 69.2302 56.2735C69.2293 56.0742 69.2123 56.027 69.167 56.0975C69.1026 56.197 69.0729 56.1259 69.0966 55.9287C69.1014 55.8885 69.0651 55.8404 69.0161 55.8217C68.9574 55.799 68.9383 55.7276 68.9601 55.6127C68.9834 55.4917 68.971 55.4521 68.9202 55.4835C68.8464 55.5292 68.8225 55.456 68.8437 55.2491C68.8512 55.1751 68.8104 55.1372 68.723 55.1372C68.6504 55.1372 68.5908 55.166 68.5908 55.2013C68.5908 55.2365 68.5188 55.2651 68.4309 55.2651C68.3428 55.2651 68.2709 55.2939 68.2709 55.3293C68.2709 55.3644 68.1989 55.3934 68.1109 55.3934C68.0229 55.3934 67.9509 55.4221 67.9509 55.4572C67.9509 55.4926 67.8644 55.5214 67.7589 55.5214C67.6533 55.5214 67.5668 55.5501 67.5668 55.5852C67.5668 55.6248 67.2253 55.6493 66.6707 55.6493C66.116 55.6493 65.7745 55.6248 65.7745 55.5852C65.7745 55.5501 65.7171 55.5214 65.6466 55.5214C65.5761 55.5214 65.5187 55.4926 65.5187 55.4572C65.5187 55.4221 65.4703 55.3934 65.4116 55.3934C65.2495 55.3934 64.6464 54.7449 64.6748 54.6016C64.6897 54.5272 64.6724 54.4985 64.6286 54.5254C64.5844 54.5526 64.5584 54.5064 64.5584 54.4011C64.5584 54.3058 64.5309 54.2505 64.4946 54.2732C64.4571 54.2962 64.4305 54.2299 64.4305 54.1132C64.4305 53.9965 64.4039 53.9299 64.3663 53.9532C64.3259 53.9783 64.3025 53.8032 64.3025 53.4729C64.3025 53.143 64.279 52.9678 64.2384 52.9929C64.1994 53.0171 64.1743 52.9176 64.1743 52.7368C64.1743 52.5562 64.1994 52.4567 64.2384 52.4809C64.279 52.506 64.3025 52.3321 64.3025 52.0046C64.3025 51.7033 64.3292 51.4886 64.3663 51.4886C64.4018 51.4886 64.4305 51.4151 64.4305 51.325C64.4305 51.2321 64.458 51.1783 64.4946 51.2007C64.5297 51.2224 64.5584 51.1798 64.5584 51.1063C64.5584 50.8892 64.9698 50.3366 65.1316 50.3366C65.1685 50.3366 65.1987 50.3079 65.1987 50.2725C65.1987 50.2374 65.2561 50.2087 65.3266 50.2087C65.3971 50.2087 65.4545 50.1796 65.4545 50.1446C65.4545 50.1058 65.7319 50.0804 66.1586 50.0804C66.5853 50.0804 66.8627 50.1058 66.8627 50.1446C66.8627 50.1796 66.8945 50.2087 66.9332 50.2087C66.9719 50.2087 67.0832 50.2939 67.1806 50.3983C67.2783 50.5027 67.3763 50.5698 67.3984 50.5477C67.4207 50.5253 67.4388 50.5858 67.4388 50.6817C67.4388 50.7818 67.4661 50.8392 67.5029 50.8166C67.539 50.7942 67.5668 50.8468 67.5668 50.9372C67.5668 51.0253 67.5955 51.1148 67.6309 51.1366C67.666 51.1583 67.695 51.3401 67.695 51.5406V51.9047L66.605 51.886C65.6871 51.87 65.4996 51.8827 65.4158 51.9664C65.3611 52.0212 65.2891 52.0493 65.2558 52.0287C65.2226 52.0082 65.2032 52.0194 65.2129 52.0535C65.2226 52.088 65.2153 52.1116 65.1969 52.1065C65.1455 52.0917 64.9531 52.284 64.9779 52.3251C64.9897 52.3451 64.9292 52.4377 64.843 52.5305C64.7568 52.6234 64.6863 52.7437 64.6863 52.7982C64.6863 52.8526 64.6576 52.8971 64.6226 52.8971C64.5871 52.8971 64.5584 52.9545 64.5584 53.025C64.5584 53.1505 64.6011 53.1529 66.9017 53.1529C68.9837 53.1529 69.2405 53.142 69.2069 53.0546C69.1855 52.9984 69.2102 52.9403 69.2641 52.9198C69.3285 52.8949 69.3591 52.7912 69.3591 52.5983C69.3591 52.4247 69.3842 52.3288 69.4232 52.353C69.464 52.3781 69.487 52.1709 69.487 51.7768C69.487 51.3827 69.464 51.1753 69.4232 51.2007C69.3835 51.2251 69.3587 51.1105 69.3581 50.9003C69.3575 50.6575 69.3394 50.5879 69.2953 50.6566C69.2481 50.7295 69.2329 50.7025 69.232 50.5447C69.2314 50.4167 69.2015 50.3427 69.154 50.3526C69.1116 50.3614 69.0756 50.3173 69.0742 50.2543C69.0723 50.1918 69.0288 50.114 68.9768 50.082C68.925 50.0499 68.9012 50.0051 68.9235 49.9827C68.9994 49.9066 67.9515 48.9284 67.7939 48.9284C67.7437 48.9284 67.6847 48.8997 67.663 48.8643C67.6412 48.8292 67.5547 48.8005 67.4709 48.8005C67.3872 48.8005 67.3007 48.7715 67.2789 48.7364C67.2571 48.7013 67.1449 48.6723 67.0297 48.6723C66.9144 48.6723 66.7995 48.6517 66.7741 48.6263C66.7084 48.561 65.8405 48.5537 65.8002 48.6184ZM75.0192 48.616C74.9999 48.6469 74.8853 48.6723 74.7639 48.6723C74.643 48.6723 74.5438 48.7013 74.5438 48.7364C74.5438 48.7715 74.4718 48.8005 74.3838 48.8005C74.2958 48.8005 74.2238 48.8292 74.2238 48.8643C74.2238 48.8997 74.1661 48.9284 74.0959 48.9284C74.0254 48.9284 73.9677 48.9572 73.9677 48.9923C73.9677 49.0276 73.9247 49.0564 73.8724 49.0564C73.7209 49.0564 73.1404 49.5669 73.129 49.7102C73.1217 49.804 73.0031 49.4015 72.9892 49.2354C72.9841 49.1755 72.9708 49.1356 72.9596 49.1471C72.9484 49.1583 72.8507 49.0851 72.7425 48.9841C72.4518 48.7125 71.2438 48.6968 71.1767 48.9635C71.1477 49.08 71.1682 49.1507 71.2487 49.2094C71.3473 49.2817 71.357 49.3673 71.3258 49.8944C71.3062 50.2256 71.3101 50.3959 71.3349 50.2725L71.3794 50.0487L71.4247 50.3045C71.4495 50.4455 71.4704 52.8432 71.4707 55.6333L71.4713 60.7061H72.3354H73.1997V55.8991V51.0921L73.52 50.7782C73.6961 50.6058 73.869 50.4645 73.9041 50.4645C73.9389 50.4645 73.9677 50.4358 73.9677 50.4007C73.9677 50.3654 74.0109 50.3366 74.0638 50.3366C74.1164 50.3366 74.1597 50.3079 74.1597 50.2725C74.1597 50.2374 74.2316 50.2087 74.3197 50.2087C74.4077 50.2087 74.4797 50.1796 74.4797 50.1446C74.4797 50.1061 74.7358 50.0804 75.1199 50.0804C75.504 50.0804 75.7599 50.1061 75.7599 50.1446C75.7599 50.1796 75.8177 50.2087 75.8878 50.2087C75.9583 50.2087 76.0161 50.2374 76.0161 50.2725C76.0161 50.3079 76.0591 50.3366 76.1121 50.3366C76.1651 50.3366 76.2082 50.3641 76.2082 50.3977C76.2082 50.4313 76.2818 50.5323 76.3714 50.6221C76.4615 50.7123 76.5169 50.8144 76.4957 50.8496C76.4739 50.8849 76.5028 50.9315 76.5594 50.9533C76.6165 50.9754 76.6483 51.0322 76.6301 51.0803C76.6118 51.1281 76.6313 51.1604 76.6743 51.152C76.722 51.1426 76.752 51.2146 76.752 51.3395C76.7515 51.4511 76.7786 51.5373 76.8122 51.5316C76.9153 51.5131 77.0054 52.193 76.9972 52.9288C76.9883 53.7109 76.9271 54.2411 76.8457 54.2411C76.8169 54.2411 76.7833 54.3203 76.7727 54.4171C76.7615 54.5139 76.7173 54.5862 76.6743 54.578C76.6295 54.5692 76.6124 54.6028 76.633 54.6573C76.6536 54.7111 76.6248 54.7692 76.567 54.7913C76.511 54.813 76.4804 54.8563 76.4998 54.8874C76.5399 54.9524 76.2476 55.2651 76.1469 55.2651C76.1103 55.2651 76.0797 55.2939 76.0797 55.3293C76.0797 55.3644 76.0367 55.3934 75.9842 55.3934C75.9312 55.3934 75.8878 55.4221 75.8878 55.4572C75.8878 55.4926 75.8158 55.5214 75.7278 55.5214C75.6398 55.5214 75.5679 55.5501 75.5679 55.5852C75.5679 55.6218 75.3758 55.6493 75.1199 55.6493C74.8638 55.6493 74.6717 55.6768 74.6717 55.7134C74.6717 55.7485 74.5998 55.7772 74.5117 55.7772C74.4237 55.7772 74.3517 55.8062 74.3517 55.8413C74.3517 55.8764 74.3221 55.9054 74.2855 55.9054C74.1975 55.9054 73.7756 56.3304 73.7756 56.419C73.7756 56.4574 73.7469 56.4713 73.7118 56.4495C73.6743 56.4262 73.6476 56.4913 73.6476 56.6056C73.6476 56.7586 73.6755 56.8015 73.7756 56.8015C73.846 56.8015 73.9038 56.8303 73.9038 56.8654C73.9038 56.9008 74.019 56.9295 74.1597 56.9295C74.3006 56.9295 74.4159 56.9582 74.4159 56.9936C74.4159 57.0326 74.7144 57.0575 75.1837 57.0575C75.6531 57.0575 75.9518 57.0326 75.9518 56.9936C75.9518 56.9582 76.0526 56.9295 76.1763 56.9295C76.2989 56.9295 76.4003 56.9008 76.4003 56.8654C76.4003 56.8303 76.4403 56.8015 76.4898 56.8015C76.6112 56.8015 77.1044 56.5351 77.1044 56.4695C77.1044 56.4407 77.1492 56.4175 77.204 56.4175C77.2995 56.4175 77.9365 55.8059 78.1239 55.5331C78.1745 55.46 78.2388 55.4146 78.267 55.4321C78.2953 55.4496 78.3018 55.4194 78.2812 55.365C78.2588 55.3078 78.2841 55.2504 78.3413 55.2286C78.3961 55.2077 78.425 55.1499 78.4055 55.1003C78.3867 55.0507 78.4191 54.9921 78.4774 54.9694C78.5358 54.947 78.5688 54.8898 78.5505 54.8426C78.5322 54.7952 78.564 54.7307 78.6206 54.699C78.6878 54.6615 78.7108 54.5926 78.6872 54.5012C78.663 54.4108 78.6837 54.3485 78.7449 54.3249C78.7968 54.3049 78.8345 54.2275 78.8286 54.1528C78.8109 53.922 78.8298 53.8479 78.8964 53.8891C78.9382 53.9148 78.96 53.5579 78.96 52.865C78.96 52.1721 78.9382 51.8149 78.8964 51.8406C78.8292 51.8824 78.8104 51.807 78.8298 51.5687C78.8363 51.4895 78.7962 51.3794 78.7408 51.3241C78.6789 51.2624 78.6548 51.1668 78.6772 51.0767C78.7019 50.9778 78.6813 50.9176 78.6141 50.8919C78.5405 50.8635 78.524 50.7984 78.5511 50.643C78.5752 50.5017 78.567 50.4606 78.5263 50.5181C78.4527 50.6221 78.3566 50.4334 78.4262 50.3209C78.4497 50.2824 78.4379 50.2713 78.3985 50.2955C78.3607 50.319 78.3112 50.2804 78.2889 50.2096C78.2665 50.1385 78.2176 50.0804 78.181 50.0804C78.1445 50.0804 78.1315 50.036 78.1527 49.9812C78.1739 49.9265 78.1692 49.8944 78.1433 49.9096C78.1174 49.9247 78.0095 49.8267 77.9041 49.6918C77.7986 49.5569 77.689 49.445 77.6607 49.4435C77.6324 49.4417 77.5169 49.3543 77.4044 49.2487C77.2918 49.1432 77.1639 49.057 77.1203 49.0567C77.0761 49.0567 77.0402 49.0276 77.0402 48.9923C77.0402 48.9572 76.9825 48.9284 76.9123 48.9284C76.8416 48.9284 76.7839 48.8997 76.7839 48.8643C76.7839 48.8292 76.7285 48.8005 76.6601 48.8005C76.5918 48.8005 76.5175 48.7715 76.4963 48.7364C76.4745 48.7013 76.3301 48.6723 76.1763 48.6723C76.0219 48.6723 75.8799 48.6469 75.8606 48.616C75.8416 48.5849 75.6522 48.5595 75.4399 48.5595C75.2276 48.5595 75.0383 48.5849 75.0192 48.616ZM89.1643 48.6169C89.1455 48.6475 89.004 48.6723 88.8497 48.6723C88.6953 48.6723 88.5515 48.7013 88.5297 48.7364C88.5079 48.7715 88.4213 48.8005 88.3376 48.8005C88.2539 48.8005 88.1673 48.8292 88.1455 48.8643C88.1237 48.8997 88.05 48.9284 87.9817 48.9284C87.9133 48.9284 87.8573 48.9572 87.8573 48.9923C87.8573 49.0276 87.8002 49.0564 87.7295 49.0564C87.6593 49.0564 87.6016 49.0851 87.6016 49.1205C87.6016 49.1556 87.5438 49.1843 87.4731 49.1843C87.403 49.1843 87.3453 49.2133 87.3453 49.2484C87.3453 49.2835 87.2734 49.3125 87.1856 49.3125C86.9917 49.3125 86.9746 49.4538 87.1484 49.6271C87.2156 49.6945 87.2516 49.7713 87.228 49.7974C87.2044 49.8237 87.2362 49.8267 87.2975 49.8046C87.3712 49.778 87.4095 49.7964 87.4095 49.8584C87.4095 49.9101 87.4672 49.9525 87.5374 49.9525C87.6081 49.9525 87.6652 49.9812 87.6652 50.0166C87.6652 50.0517 87.7247 50.0804 87.7972 50.0804C87.8697 50.0804 87.9115 50.1095 87.8897 50.1446C87.865 50.1842 87.9846 50.2087 88.2062 50.2087C88.4018 50.2087 88.5615 50.1796 88.5615 50.1446C88.5615 50.1074 88.7748 50.0804 89.073 50.0804C89.6363 50.0804 89.842 50.1784 89.842 50.4467C89.842 50.5272 89.8703 50.5925 89.9062 50.5925C89.9475 50.5925 89.9698 51.6916 89.9698 53.7611V56.9295H90.8979C91.4082 56.9295 91.826 56.9077 91.826 56.8814C91.8266 56.8551 91.8331 55.4608 91.8419 53.7832C91.8508 52.1056 91.8366 50.7461 91.8101 50.7625C91.7836 50.7788 91.7618 50.6303 91.7618 50.4325C91.7618 50.2093 91.7376 50.088 91.6982 50.1125C91.6616 50.1349 91.6339 50.0813 91.6339 49.9882C91.6339 49.8984 91.6051 49.8246 91.5697 49.8246C91.5349 49.8246 91.5061 49.7668 91.5061 49.6966C91.5061 49.6262 91.4772 49.5684 91.4418 49.5684C91.4071 49.5684 91.3782 49.5252 91.3782 49.4725C91.3782 49.4196 91.3493 49.3764 91.314 49.3764C91.2786 49.3764 91.2497 49.3331 91.2497 49.2805C91.2497 49.2276 91.2067 49.1843 91.1543 49.1843C91.1012 49.1843 91.0576 49.1556 91.0576 49.1205C91.0576 49.0851 91.0146 49.0564 90.9622 49.0564C90.9091 49.0564 90.8661 49.0276 90.8661 48.9923C90.8661 48.9572 90.8225 48.9284 90.7701 48.9284C90.717 48.9284 90.674 48.8997 90.674 48.8643C90.674 48.8292 90.6021 48.8005 90.5137 48.8005C90.4259 48.8005 90.354 48.7715 90.354 48.7364C90.354 48.7013 90.2545 48.6723 90.1337 48.6723C90.0123 48.6723 89.898 48.6475 89.8791 48.6169C89.8602 48.5864 89.6994 48.5613 89.522 48.5613C89.344 48.5613 89.1832 48.5864 89.1643 48.6169ZM96.5625 48.6245C96.5625 48.6508 96.361 48.6723 96.1147 48.6723C95.8584 48.6723 95.6663 48.6998 95.6663 48.7364C95.6663 48.7715 95.5655 48.8005 95.4429 48.8005C95.3192 48.8005 95.2184 48.8292 95.2184 48.8643C95.2184 48.8997 95.1318 48.9284 95.0263 48.9284C94.9209 48.9284 94.8342 48.9572 94.8342 48.9923C94.8342 49.0276 94.7682 49.0564 94.6869 49.0564C94.6062 49.0564 94.5054 49.0909 94.463 49.1332C94.3705 49.226 94.3611 49.5046 94.4506 49.5046C94.486 49.5046 94.5143 49.5766 94.5143 49.6646C94.5143 49.7526 94.5431 49.8246 94.5785 49.8246C94.6138 49.8246 94.6427 49.9126 94.6427 50.0203C94.6427 50.1346 94.6692 50.1996 94.7064 50.1766C94.7417 50.1549 94.7706 50.182 94.7706 50.2368C94.7706 50.3127 94.8407 50.3366 95.0623 50.3366C95.2408 50.3366 95.3386 50.3118 95.3145 50.2725C95.2909 50.2344 95.3669 50.2087 95.503 50.2087C95.628 50.2087 95.7305 50.1796 95.7305 50.1446C95.7305 50.105 96.0611 50.0804 96.595 50.0804C97.1282 50.0804 97.4588 50.105 97.4588 50.1446C97.4588 50.1796 97.5195 50.2087 97.5932 50.2087C97.7705 50.2087 98.2909 50.7609 98.2909 50.9497C98.2909 51.0289 98.3203 51.1036 98.3557 51.1157C98.3969 51.1293 98.4217 51.7901 98.424 52.9524L98.4282 54.7676L98.2054 54.9685C97.7517 55.3774 97.5242 55.5214 97.3315 55.5214C97.2608 55.5214 97.2031 55.5501 97.2031 55.5852C97.2031 55.6232 96.968 55.6493 96.6268 55.6493C96.3098 55.6493 96.0505 55.6272 96.0505 55.6006C96.0505 55.5737 95.9857 55.5231 95.9067 55.4884C95.8271 55.4536 95.734 55.3604 95.6993 55.2812C95.6645 55.202 95.6144 55.1372 95.5873 55.1372C95.5608 55.1372 95.5384 54.9213 95.5384 54.6573C95.5384 54.3932 95.5637 54.177 95.595 54.177C95.6262 54.177 95.6675 54.1156 95.6875 54.0409C95.7116 53.9474 95.7558 53.9169 95.826 53.9441C95.8825 53.9659 95.9144 53.9589 95.8955 53.929C95.8378 53.8361 96.1011 53.6465 96.2384 53.6825C96.3145 53.7025 96.3604 53.6865 96.3522 53.6426C96.3451 53.6014 96.4376 53.56 96.5625 53.5485C96.6863 53.537 96.8142 53.501 96.8478 53.4684C96.8813 53.4357 96.9792 53.4091 97.0652 53.4091C97.2703 53.4091 97.7517 53.0429 97.8495 52.8127C97.9073 52.6766 97.9408 52.653 97.9844 52.7165C98.0239 52.7734 98.0298 52.7537 98.0027 52.6569C97.9461 52.4558 98.0269 52.2084 98.11 52.3285C98.1524 52.3892 98.1577 52.3672 98.1265 52.2568C98.0605 52.0218 97.3663 51.8531 97.4117 52.0832C97.4223 52.1379 97.3091 52.1591 97.0304 52.1549C96.7747 52.1509 96.638 52.1739 96.6462 52.2187C96.6539 52.2604 96.5502 52.2888 96.3923 52.2888C96.2449 52.2888 96.13 52.3176 96.1359 52.353C96.1418 52.3881 96.0269 52.4168 95.8796 52.4168C95.7329 52.4168 95.618 52.4455 95.6238 52.4809C95.6297 52.516 95.5431 52.5447 95.4317 52.5447C95.3204 52.5444 95.2338 52.5732 95.2396 52.6085C95.2455 52.6439 95.1872 52.6709 95.1106 52.6681C95.0334 52.6657 94.9757 52.6944 94.9821 52.7323C94.9892 52.77 94.9315 52.7988 94.8543 52.7964C94.7771 52.7937 94.7193 52.8224 94.7264 52.8602C94.7329 52.898 94.6893 52.9252 94.6286 52.9203C94.5685 52.9158 94.5249 52.9303 94.5319 52.9524C94.539 52.9748 94.4229 53.113 94.2733 53.26C94.1242 53.4067 94.0022 53.5597 94.0022 53.5997C94.0022 53.6398 93.9733 53.6547 93.9386 53.6329C93.9032 53.6111 93.8743 53.6529 93.8743 53.7252C93.8743 53.7977 93.8454 53.857 93.8107 53.857C93.7753 53.857 93.7465 53.9435 93.7465 54.0491C93.7465 54.1546 93.7176 54.2411 93.6822 54.2411C93.6451 54.2411 93.6186 54.4543 93.6186 54.7531C93.6186 55.052 93.6451 55.2651 93.6822 55.2651C93.7176 55.2651 93.7465 55.3822 93.7465 55.525C93.7465 55.6819 93.7718 55.7693 93.8107 55.7455C93.8466 55.7228 93.8743 55.7778 93.8743 55.8734C93.8743 55.9687 93.902 56.024 93.9386 56.0013C93.9733 55.9795 94.0022 55.9931 94.0022 56.0315C94.0022 56.1033 94.4164 56.5454 94.483 56.5454C94.5031 56.5454 94.5814 56.6032 94.6575 56.6733C94.7329 56.7438 94.8325 56.8015 94.8784 56.8015C94.9244 56.8015 94.9627 56.8303 94.9627 56.8654C94.9627 56.9008 95.0346 56.9295 95.1224 56.9295C95.2102 56.9295 95.2827 56.9582 95.2827 56.9936C95.2827 57.0287 95.4264 57.0575 95.6026 57.0575C95.7788 57.0575 95.9226 57.084 95.9226 57.1167C95.9226 57.189 96.5567 57.1823 96.602 57.1097C96.6197 57.081 96.7605 57.0575 96.9149 57.0575C97.0687 57.0575 97.2131 57.0287 97.2349 56.9936C97.2567 56.9582 97.3304 56.9295 97.3987 56.9295C97.4671 56.9295 97.523 56.9008 97.523 56.8654C97.523 56.8303 97.5802 56.8015 97.6509 56.8015C97.721 56.8015 97.7788 56.7725 97.7788 56.7374C97.7788 56.7024 97.8218 56.6733 97.8748 56.6733C97.9273 56.6733 97.9709 56.6446 97.9709 56.6095C97.9709 56.5741 97.9998 56.5454 98.0357 56.5454C98.13 56.5454 98.5183 56.1568 98.4971 56.0836C98.4871 56.0494 98.516 56.0334 98.5607 56.0485C98.6061 56.0633 98.6527 56.1419 98.6645 56.223C98.6762 56.3044 98.7411 56.4299 98.8088 56.5021C98.876 56.5744 98.9308 56.6712 98.9308 56.7175C98.9308 56.7638 98.9744 56.8015 99.0269 56.8015C99.0799 56.8015 99.1229 56.8303 99.1229 56.8654C99.1229 56.9612 100.511 56.9494 100.571 56.8533C100.597 56.8113 100.584 56.7656 100.542 56.752C100.496 56.7365 100.467 56.5817 100.467 56.3479C100.467 56.1383 100.439 55.9693 100.403 55.9693C100.362 55.9693 100.339 55.2013 100.339 53.7932C100.339 52.0953 100.321 51.6165 100.259 51.6156C100.205 51.615 100.21 51.593 100.275 51.5469C100.347 51.4959 100.352 51.471 100.291 51.4465C100.241 51.426 100.211 51.2838 100.211 51.0637C100.211 50.8462 100.187 50.728 100.147 50.7527C100.109 50.7764 100.083 50.6986 100.083 50.5607C100.083 50.4225 100.057 50.3451 100.019 50.3687C99.9826 50.391 99.9549 50.336 99.9549 50.2404C99.9549 50.1451 99.9278 50.0901 99.8913 50.1125C99.8559 50.1343 99.8271 50.1074 99.8271 50.0523C99.8271 49.9976 99.7982 49.9525 99.7628 49.9525C99.7281 49.9525 99.6992 49.9195 99.6992 49.8793C99.6992 49.7786 98.932 49.0564 98.8253 49.0564C98.7776 49.0564 98.7387 49.0276 98.7387 48.9923C98.7387 48.9572 98.6833 48.9284 98.615 48.9284C98.5466 48.9284 98.4729 48.8997 98.4511 48.8643C98.4293 48.8292 98.3427 48.8005 98.259 48.8005C98.1748 48.8005 98.0887 48.7715 98.0669 48.7364C98.0451 48.7013 97.8849 48.6723 97.711 48.6723C97.5372 48.6723 97.3952 48.6508 97.3952 48.6245C97.3952 48.5979 97.2078 48.5764 96.9786 48.5764C96.7499 48.5764 96.5625 48.5979 96.5625 48.6245ZM80.7526 52.865V56.9295H81.6807H82.6088V52.865V48.8005H81.6807H80.7526V52.865ZM84.657 48.9923C84.657 49.0981 84.6859 49.1843 84.7213 49.1843C84.7566 49.1843 84.7849 49.3552 84.7849 49.5684C84.7849 49.7819 84.8138 49.9525 84.8491 49.9525C84.891 49.9525 84.9134 51.158 84.9134 53.4408V56.9295H85.8415C86.4172 56.9295 86.7696 56.9053 86.7701 56.8654C86.7855 55.2664 86.7625 50.5643 86.7389 50.5404C86.7201 50.5223 86.7053 50.3266 86.7053 50.1055C86.7053 49.8848 86.6764 49.6864 86.6417 49.6646C86.6063 49.6428 86.5775 49.553 86.5775 49.465C86.5775 49.3745 86.5492 49.3222 86.5132 49.3446C86.4779 49.3661 86.4496 49.3234 86.4496 49.2493C86.4496 48.9079 86.1974 48.8005 85.396 48.8005H84.657V48.9923ZM101.555 48.9233C101.555 48.9907 101.538 49.0927 101.515 49.1498C101.489 49.2179 101.506 49.2472 101.564 49.2351C101.625 49.2221 101.648 49.2781 101.642 49.4223C101.637 49.5436 101.663 49.6222 101.704 49.6141C101.744 49.6068 101.786 49.6652 101.799 49.7444C101.811 49.8237 101.851 49.8884 101.887 49.8884C101.925 49.8884 101.942 49.971 101.927 50.0768C101.91 50.1887 101.927 50.2598 101.967 50.2528C102.005 50.2458 102.035 50.3318 102.035 50.4434C102.035 50.555 102.064 50.6415 102.099 50.6354C102.135 50.6293 102.172 50.7044 102.184 50.8018C102.196 50.9073 102.232 50.9617 102.273 50.9366C102.317 50.9091 102.331 50.9623 102.312 51.0918C102.294 51.2085 102.31 51.2838 102.35 51.2769C102.386 51.2702 102.427 51.3368 102.439 51.4248C102.452 51.5128 102.489 51.612 102.521 51.6456C102.553 51.6791 102.58 51.7744 102.58 51.8573C102.58 51.9416 102.608 51.991 102.644 51.9689C102.681 51.9453 102.707 52.0215 102.707 52.157C102.707 52.2822 102.736 52.3847 102.772 52.3847C102.807 52.3847 102.835 52.4407 102.835 52.509C102.835 52.5774 102.864 52.6512 102.899 52.673C102.935 52.6947 102.964 52.7809 102.964 52.865C102.964 52.9488 102.993 53.0353 103.027 53.0571C103.063 53.0789 103.092 53.1668 103.092 53.2528C103.092 53.3386 103.12 53.4091 103.155 53.4091C103.191 53.4091 103.219 53.4651 103.219 53.5331C103.219 53.6014 103.248 53.6753 103.284 53.697C103.319 53.7188 103.347 53.8213 103.347 53.9247C103.347 54.0285 103.376 54.1132 103.412 54.1132C103.447 54.1132 103.476 54.1851 103.476 54.2732C103.476 54.3612 103.505 54.4332 103.539 54.4332C103.575 54.4332 103.604 54.5197 103.604 54.6252C103.604 54.7307 103.633 54.8172 103.667 54.8172C103.703 54.8172 103.732 54.8893 103.732 54.9772C103.732 55.0653 103.76 55.1372 103.796 55.1372C103.831 55.1372 103.859 55.2237 103.859 55.3293C103.859 55.4349 103.888 55.5214 103.924 55.5214C103.959 55.5214 103.988 55.6093 103.988 55.717C103.988 55.8313 104.014 55.8964 104.052 55.8734C104.088 55.851 104.116 55.9045 104.116 55.9977C104.116 56.0875 104.145 56.1613 104.179 56.1613C104.215 56.1613 104.244 56.2354 104.244 56.3258C104.244 56.4166 104.284 56.5312 104.334 56.5808C104.384 56.6304 104.441 56.7078 104.462 56.7523C104.493 56.8179 104.507 56.8179 104.538 56.7523C104.558 56.7078 104.609 56.6349 104.65 56.5908C104.69 56.5466 104.733 56.468 104.744 56.416C104.756 56.364 104.792 56.3119 104.825 56.3001C104.857 56.2883 104.884 56.1946 104.884 56.0921C104.884 55.9892 104.912 55.9054 104.948 55.9054C104.983 55.9054 105.012 55.7902 105.012 55.6493C105.012 55.5083 105.041 55.3934 105.076 55.3934C105.114 55.3934 105.14 55.1466 105.14 54.7812C105.14 54.3899 105.117 54.1837 105.076 54.2091C105.036 54.2335 105.012 54.1244 105.012 53.9247C105.012 53.7466 104.983 53.6011 104.948 53.6011C104.912 53.6011 104.884 53.5146 104.884 53.4091C104.884 53.3033 104.855 53.217 104.82 53.217C104.785 53.217 104.756 53.1 104.756 52.9572C104.756 52.8003 104.73 52.7129 104.692 52.7368C104.654 52.7604 104.628 52.6829 104.628 52.545C104.628 52.4068 104.602 52.3294 104.564 52.353C104.526 52.376 104.5 52.3109 104.5 52.1966C104.5 52.089 104.471 52.0009 104.436 52.0009C104.401 52.0009 104.371 51.9144 104.371 51.8089C104.371 51.703 104.343 51.6168 104.308 51.6168C104.272 51.6168 104.244 51.5327 104.244 51.4299C104.244 51.3274 104.208 51.2315 104.165 51.2173C104.121 51.2025 104.093 51.1048 104.102 50.995C104.112 50.8674 104.083 50.7854 104.019 50.7609C103.951 50.7352 103.933 50.675 103.959 50.5707C103.986 50.4645 103.966 50.4058 103.895 50.3787C103.823 50.3514 103.804 50.2931 103.831 50.1866C103.856 50.0834 103.838 50.022 103.774 49.9972C103.703 49.9701 103.687 49.8914 103.71 49.6845C103.731 49.5022 103.722 49.4374 103.682 49.4937C103.597 49.6141 103.543 49.4604 103.583 49.2124C103.607 49.0682 103.598 49.0467 103.547 49.1205C103.492 49.1982 103.472 49.1767 103.437 49.0083L103.396 48.8005H102.476C101.611 48.8005 101.555 48.8078 101.555 48.9233ZM107.636 48.9923C107.636 49.0981 107.609 49.1843 107.576 49.1843C107.543 49.1843 107.507 49.2926 107.496 49.4244C107.485 49.5566 107.447 49.6597 107.412 49.6537C107.376 49.6479 107.348 49.7341 107.348 49.8457C107.348 49.9573 107.319 50.0438 107.284 50.0378C107.248 50.0318 107.22 50.1182 107.22 50.2298C107.22 50.3414 107.191 50.4276 107.156 50.4219C107.12 50.4159 107.092 50.5024 107.092 50.614C107.092 50.7252 107.061 50.8111 107.024 50.8045C106.983 50.7972 106.967 50.8686 106.983 50.9799C107.001 51.1021 106.979 51.1792 106.92 51.2019C106.859 51.2251 106.839 51.3078 106.856 51.4587C106.872 51.5941 106.855 51.6807 106.811 51.6807C106.772 51.6807 106.74 51.7672 106.74 51.8727C106.74 51.9785 106.711 52.0647 106.676 52.0647C106.641 52.0647 106.612 52.1482 106.612 52.2498C106.612 52.359 106.571 52.4509 106.512 52.4736C106.457 52.4948 106.431 52.5426 106.454 52.5801C106.527 52.6987 106.423 53.0032 106.347 52.8937C106.299 52.8248 106.29 52.8496 106.313 52.989C106.353 53.2367 106.299 53.3906 106.214 53.2703C106.173 53.2119 106.163 53.2443 106.185 53.3728C106.224 53.6208 106.171 53.7747 106.086 53.6544C106.045 53.596 106.036 53.6283 106.056 53.7569C106.096 54.0049 106.043 54.1589 105.958 54.0385C105.917 53.9801 105.908 54.0125 105.928 54.141C105.968 54.3866 105.914 54.5438 105.832 54.4226C105.795 54.3669 105.781 54.4332 105.791 54.6128C105.802 54.7858 105.776 54.9077 105.724 54.9401C105.678 54.9685 105.651 55.0604 105.663 55.1445C105.677 55.2476 105.655 55.2912 105.596 55.2788C105.532 55.2651 105.516 55.3139 105.538 55.4605C105.557 55.5915 105.538 55.6726 105.482 55.694C105.433 55.7128 105.396 55.8217 105.396 55.9442C105.396 56.0636 105.367 56.1613 105.332 56.1613C105.297 56.1613 105.268 56.2478 105.268 56.3533C105.268 56.4589 105.239 56.5454 105.204 56.5454C105.169 56.5454 105.14 56.6174 105.14 56.7054C105.14 56.7934 105.111 56.8654 105.076 56.8654C105.041 56.8654 105.012 56.9537 105.012 57.0613C105.012 57.1754 104.985 57.2407 104.948 57.2174C104.911 57.1945 104.884 57.2595 104.884 57.3738C104.884 57.4814 104.855 57.5695 104.82 57.5695C104.785 57.5695 104.756 57.6357 104.756 57.7167C104.756 57.8855 104.62 58.2085 104.548 58.2091C104.521 58.2094 104.5 58.2672 104.5 58.3376C104.5 58.4081 104.471 58.4656 104.436 58.4656C104.401 58.4656 104.371 58.527 104.371 58.602C104.371 58.7992 103.853 59.2979 103.648 59.2979C103.557 59.2979 103.466 59.3267 103.444 59.3617C103.398 59.4361 102.964 59.4498 102.964 59.3769C102.964 59.2332 102.212 59.2915 102.172 59.4383C102.138 59.5607 102.121 59.5695 102.069 59.4896C102.026 59.4225 102.019 59.4634 102.044 59.6258C102.067 59.7658 102.053 59.875 102.01 59.9016C101.971 59.9258 101.94 60.0014 101.94 60.0697C101.94 60.1381 101.911 60.1941 101.875 60.1941C101.84 60.1941 101.812 60.2802 101.812 60.3858C101.812 60.5494 101.836 60.5778 101.975 60.5778C102.068 60.5778 102.122 60.6057 102.099 60.642C102.075 60.681 102.174 60.7061 102.351 60.7061C102.512 60.7061 102.644 60.7348 102.644 60.7699C102.644 60.8077 102.868 60.834 103.188 60.834C103.508 60.834 103.732 60.8077 103.732 60.7699C103.732 60.7348 103.847 60.7061 103.988 60.7061C104.129 60.7061 104.244 60.677 104.244 60.642C104.244 60.6069 104.301 60.5778 104.371 60.5778C104.442 60.5778 104.5 60.5491 104.5 60.514C104.5 60.4786 104.536 60.4499 104.581 60.4499C104.625 60.4499 104.715 60.3786 104.78 60.2911C104.846 60.2037 104.918 60.1432 104.94 60.1562C104.985 60.1834 105.117 60.0568 105.112 59.992C105.11 59.9693 105.199 59.8496 105.311 59.7265C105.423 59.6034 105.499 59.4861 105.479 59.4658C105.458 59.4455 105.489 59.4107 105.546 59.3884C105.605 59.3663 105.652 59.2937 105.652 59.2268C105.652 59.1603 105.681 59.1059 105.716 59.1059C105.751 59.1059 105.78 59.0626 105.78 59.0097C105.78 58.9571 105.809 58.9138 105.844 58.9138C105.879 58.9138 105.908 58.8273 105.908 58.7218C105.908 58.6162 105.937 58.5297 105.972 58.5297C106.007 58.5297 106.036 58.4865 106.036 58.4335C106.036 58.3809 106.064 58.3376 106.1 58.3376C106.135 58.3376 106.164 58.2672 106.164 58.1813C106.164 58.0954 106.193 58.0074 106.228 57.9856C106.263 57.9639 106.292 57.89 106.292 57.8217C106.292 57.7533 106.321 57.6977 106.356 57.6977C106.391 57.6977 106.42 57.6272 106.42 57.5414C106.42 57.4554 106.449 57.3671 106.484 57.3457C106.519 57.3239 106.548 57.2213 106.548 57.1176C106.548 57.0142 106.577 56.9295 106.612 56.9295C106.647 56.9295 106.676 56.8557 106.676 56.7656C106.676 56.6727 106.704 56.6189 106.74 56.6413C106.777 56.6645 106.804 56.5995 106.804 56.4852C106.804 56.3776 106.833 56.2892 106.868 56.2892C106.904 56.2892 106.932 56.203 106.932 56.0975C106.932 55.9917 106.961 55.9054 106.996 55.9054C107.031 55.9054 107.06 55.8317 107.06 55.7415C107.06 55.6486 107.088 55.5948 107.124 55.6172C107.162 55.6408 107.188 55.5646 107.188 55.4291C107.188 55.3039 107.217 55.2013 107.252 55.2013C107.288 55.2013 107.316 55.1454 107.316 55.0771C107.316 55.0087 107.345 54.9349 107.38 54.9131C107.416 54.8914 107.444 54.7906 107.444 54.689C107.444 54.5877 107.473 54.487 107.508 54.4652C107.543 54.4434 107.572 54.3551 107.572 54.2692C107.572 54.1833 107.601 54.1132 107.636 54.1132C107.671 54.1132 107.7 54.0412 107.7 53.9532C107.7 53.8652 107.729 53.7932 107.764 53.7932C107.799 53.7932 107.828 53.7067 107.828 53.6011C107.828 53.4953 107.857 53.4091 107.892 53.4091C107.928 53.4091 107.956 53.3386 107.956 53.2528C107.956 53.0764 108.054 52.9823 108.11 53.1046C108.13 53.1487 108.131 53.1203 108.112 53.041C108.07 52.8735 108.135 52.6249 108.208 52.6699C108.235 52.6872 108.244 52.63 108.228 52.5429C108.21 52.4513 108.228 52.3847 108.269 52.3847C108.308 52.3847 108.34 52.3016 108.34 52.1996C108.34 52.0908 108.381 51.9988 108.44 51.9761C108.495 51.955 108.524 51.9114 108.504 51.8791C108.452 51.7944 108.535 51.6108 108.605 51.6547C108.64 51.6758 108.649 51.6256 108.627 51.5352C108.601 51.435 108.623 51.3431 108.687 51.2787C108.743 51.2234 108.77 51.1332 108.75 51.0779C108.726 51.0171 108.753 50.9615 108.819 50.9366C108.895 50.9073 108.915 50.8511 108.888 50.7425C108.861 50.6378 108.88 50.578 108.948 50.5519C109.003 50.5311 109.043 50.4811 109.038 50.4413C109.014 50.2425 109.044 50.173 109.11 50.2725C109.157 50.3433 109.17 50.3024 109.159 50.117C109.15 49.9649 109.175 49.8554 109.222 49.8397C109.265 49.8255 109.301 49.7299 109.301 49.6271C109.301 49.5246 109.333 49.4405 109.372 49.4405C109.413 49.4405 109.429 49.3836 109.409 49.3086C109.388 49.2279 109.41 49.1631 109.465 49.1417C109.516 49.1223 109.556 49.0379 109.556 48.9535V48.8005H108.597H107.636V48.9923ZM17 55.5214V58.7218H32.5862H48.1722V55.5214V52.3209H32.5862H17V55.5214ZM17 63.8103V67.0431L32.5875 67.0271L48.1746 67.0107V63.8103V60.6099L32.5875 60.5939L17 60.5778V63.8103ZM80.64 68.0829L80.6565 71.6834L81.2169 71.7019L81.7767 71.7203V68.1013V64.4823H81.2004H80.6235L80.64 68.0829ZM57.1976 64.6744C57.1976 64.7101 57.0268 64.7385 56.8135 64.7385C56.6 64.7385 56.4294 64.7669 56.4294 64.8026C56.4294 64.8377 56.3429 64.8665 56.2374 64.8665C56.1318 64.8665 56.0453 64.8952 56.0453 64.9306C56.0453 64.9656 55.9942 64.9947 55.9313 64.9947C55.8687 64.9947 55.7762 65.0521 55.7254 65.1226C55.6745 65.1931 55.5953 65.2505 55.549 65.2505C55.5027 65.2505 55.2811 65.4353 55.0564 65.6613C54.8316 65.8872 54.6266 66.0526 54.6009 66.0293C54.5752 66.0057 54.5673 66.0442 54.5833 66.1146C54.6127 66.2422 54.4257 66.4899 54.3544 66.4189C54.3338 66.3983 54.3172 66.4727 54.3172 66.584C54.3172 66.6956 54.2882 66.7866 54.2531 66.7866C54.218 66.7866 54.189 66.8604 54.189 66.9506C54.189 67.0434 54.1614 67.0972 54.1252 67.0748C54.0849 67.05 54.061 67.1916 54.061 67.455C54.061 67.6925 54.0332 67.8748 53.9972 67.8748C53.9609 67.8748 53.9331 68.0563 53.9331 68.291C53.9331 68.5257 53.9609 68.7071 53.9972 68.7071C54.0323 68.7071 54.061 68.8511 54.061 69.0271C54.061 69.2031 54.0897 69.3471 54.1252 69.3471C54.1602 69.3471 54.189 69.4623 54.189 69.6033C54.189 69.7439 54.218 69.8591 54.2531 69.8591C54.2882 69.8591 54.3172 69.9054 54.3172 69.9619C54.3172 70.0185 54.3877 70.1205 54.4742 70.1885C54.5606 70.2562 54.6166 70.3503 54.5985 70.3975C54.5806 70.4443 54.6124 70.5006 54.6695 70.5227C54.7267 70.5444 54.7548 70.5922 54.7325 70.6285C54.7101 70.6648 54.7206 70.6866 54.756 70.6769C54.7914 70.6672 54.9632 70.8106 55.138 70.9954C55.3125 71.1802 55.5019 71.3314 55.5584 71.3314C55.6149 71.3314 55.6613 71.3602 55.6613 71.3955C55.6613 71.4306 55.719 71.4593 55.7892 71.4593C55.8596 71.4593 55.9174 71.4881 55.9174 71.5234C55.9174 71.5586 55.9749 71.5873 56.0453 71.5873C56.1158 71.5873 56.1733 71.6163 56.1733 71.6514C56.1733 71.6868 56.2885 71.7155 56.4294 71.7155C56.5701 71.7155 56.6853 71.7442 56.6853 71.7793C56.6853 71.8186 56.9947 71.8434 57.4856 71.8434C57.9761 71.8434 58.2855 71.8186 58.2855 71.7793C58.2855 71.7442 58.372 71.7155 58.4775 71.7155C58.5834 71.7155 58.6696 71.6868 58.6696 71.6514C58.6696 71.6163 58.7413 71.5873 58.829 71.5873C59.0661 71.5873 59.2458 71.4022 59.2458 71.1572C59.2458 71.0196 59.2149 70.9473 59.1556 70.9473C59.0973 70.9473 59.0773 70.9025 59.0991 70.8194C59.1224 70.7302 59.1012 70.6915 59.0292 70.6915C58.9723 70.6915 58.9258 70.6624 58.9258 70.6273C58.9258 70.5919 58.8825 70.5632 58.8296 70.5632C58.777 70.5632 58.7337 70.5919 58.7337 70.6273C58.7337 70.6624 58.6617 70.6915 58.5738 70.6915C58.4857 70.6915 58.4137 70.7202 58.4137 70.7553C58.4137 70.7906 58.2985 70.8194 58.1576 70.8194C58.017 70.8194 57.9017 70.8481 57.9017 70.8832C57.9017 70.9186 57.7575 70.9473 57.5814 70.9473C57.4054 70.9473 57.2615 70.9186 57.2615 70.8832C57.2615 70.8481 57.132 70.8194 56.9735 70.8194C56.815 70.8194 56.6853 70.7906 56.6853 70.7553C56.6853 70.7202 56.6278 70.6915 56.5574 70.6915C56.4869 70.6915 56.4294 70.6624 56.4294 70.6273C56.4294 70.5919 56.3998 70.5632 56.3638 70.5632C56.2604 70.5632 55.7254 70.0015 55.7254 69.893C55.7254 69.8391 55.6966 69.7953 55.6613 69.7953C55.6261 69.7953 55.5974 69.7376 55.5974 69.6671C55.5974 69.5966 55.5684 69.5391 55.5333 69.5391C55.4979 69.5391 55.4692 69.4526 55.4692 69.3471C55.4692 69.2415 55.4405 69.1551 55.4053 69.1551C55.37 69.1551 55.3412 69.011 55.3412 68.835C55.3412 68.659 55.3125 68.5151 55.2771 68.5151C55.2421 68.5151 55.2133 68.3853 55.2133 68.2269C55.2133 68.0687 55.2421 67.9389 55.2771 67.9389C55.3125 67.9389 55.3412 67.795 55.3412 67.619C55.3412 67.4429 55.37 67.2989 55.4053 67.2989C55.4405 67.2989 55.4692 67.2125 55.4692 67.1069C55.4692 67.0011 55.4979 66.9149 55.5333 66.9149C55.5684 66.9149 55.5974 66.8571 55.5974 66.7866C55.5974 66.7165 55.6261 66.6587 55.6613 66.6587C55.6966 66.6587 55.7254 66.6139 55.7254 66.5589C55.7254 66.5041 55.7541 66.4769 55.7892 66.4987C55.8245 66.5205 55.8533 66.4915 55.8533 66.434C55.8533 66.3158 56.0015 66.1467 56.1049 66.1467C56.1424 66.1467 56.1733 66.1179 56.1733 66.0825C56.1733 66.0475 56.2165 66.0188 56.2694 66.0188C56.3221 66.0188 56.3653 65.99 56.3653 65.9546C56.3653 65.9195 56.4246 65.8908 56.4972 65.8908C56.5698 65.8908 56.6112 65.8618 56.5894 65.8267C56.5658 65.7886 56.6433 65.7626 56.7815 65.7626C56.9194 65.7626 56.9971 65.7369 56.9735 65.6987C56.9481 65.6576 57.1768 65.6346 57.6135 65.6346C58.0502 65.6346 58.2791 65.6576 58.2537 65.6987C58.2296 65.7377 58.3287 65.7626 58.5096 65.7626C58.6905 65.7626 58.79 65.7874 58.7658 65.8267C58.744 65.8618 58.7679 65.8908 58.819 65.8908C58.8701 65.8908 58.9294 65.8458 58.9502 65.7907C58.9715 65.7357 59.0217 65.7109 59.0618 65.7357C59.113 65.7671 59.1257 65.7184 59.1045 65.5739C59.0845 65.4369 59.1033 65.3555 59.1598 65.3337C59.2796 65.2877 59.2709 64.9947 59.1499 64.9947C59.097 64.9947 59.0537 64.9656 59.0537 64.9306C59.0537 64.8952 58.9672 64.8665 58.8617 64.8665C58.7561 64.8665 58.6696 64.8377 58.6696 64.8026C58.6696 64.7669 58.499 64.7385 58.2855 64.7385C58.0723 64.7385 57.9017 64.7101 57.9017 64.6744C57.9017 64.6393 57.7432 64.6106 57.5497 64.6106C57.3558 64.6106 57.1976 64.6393 57.1976 64.6744ZM115.957 64.6744C115.957 64.7101 115.787 64.7385 115.573 64.7385C115.36 64.7385 115.189 64.7669 115.189 64.8026C115.189 64.8377 115.103 64.8665 114.997 64.8665C114.892 64.8665 114.805 64.8952 114.805 64.9306C114.805 64.9656 114.747 64.9947 114.677 64.9947C114.607 64.9947 114.549 65.0201 114.549 65.0512C114.549 65.0824 114.449 65.1553 114.327 65.2131C114.081 65.3304 113.461 65.9059 113.461 66.0184C113.461 66.0578 113.432 66.0726 113.397 66.0508C113.362 66.029 113.333 66.0704 113.333 66.143C113.333 66.2153 113.304 66.2746 113.269 66.2746C113.234 66.2746 113.205 66.3196 113.205 66.3744C113.205 66.4294 113.176 66.4564 113.141 66.4346C113.103 66.411 113.077 66.4887 113.077 66.6266C113.077 66.7648 113.051 66.8423 113.013 66.8187C112.977 66.7963 112.949 66.8513 112.949 66.9469C112.949 67.0422 112.921 67.0972 112.885 67.0748C112.845 67.05 112.821 67.1916 112.821 67.455C112.821 67.6925 112.793 67.8748 112.757 67.8748C112.721 67.8748 112.693 68.0563 112.693 68.291C112.693 68.5257 112.721 68.7071 112.757 68.7071C112.792 68.7071 112.821 68.8511 112.821 69.0271C112.821 69.2031 112.85 69.3471 112.885 69.3471C112.92 69.3471 112.949 69.4623 112.949 69.6033C112.949 69.7439 112.978 69.8591 113.013 69.8591C113.048 69.8591 113.077 69.9106 113.077 69.9731C113.077 70.0357 113.134 70.1286 113.205 70.1791C113.275 70.2299 113.333 70.3228 113.333 70.3854C113.333 70.448 113.362 70.4994 113.397 70.4994C113.432 70.4994 113.461 70.5441 113.461 70.5992C113.461 70.6539 113.49 70.6811 113.525 70.6594C113.56 70.6376 113.589 70.6664 113.589 70.7232C113.589 70.7804 113.618 70.8091 113.653 70.7873C113.688 70.7655 113.717 70.7943 113.717 70.8514C113.717 70.9083 113.746 70.937 113.781 70.9153C113.816 70.8935 113.845 70.9207 113.845 70.9754C113.845 71.0305 113.89 71.0752 113.945 71.0752C114 71.0752 114.027 71.1043 114.005 71.1394C113.983 71.1744 114.011 71.2035 114.065 71.2035C114.12 71.2035 114.165 71.2322 114.165 71.2673C114.165 71.3026 114.223 71.3314 114.293 71.3314C114.364 71.3314 114.421 71.3602 114.421 71.3955C114.421 71.4306 114.479 71.4593 114.549 71.4593C114.619 71.4593 114.677 71.4881 114.677 71.5234C114.677 71.5586 114.735 71.5873 114.805 71.5873C114.876 71.5873 114.933 71.6163 114.933 71.6514C114.933 71.6868 115.048 71.7155 115.189 71.7155C115.33 71.7155 115.445 71.7442 115.445 71.7793C115.445 71.8186 115.744 71.8434 116.213 71.8434C116.683 71.8434 116.981 71.8186 116.981 71.7793C116.981 71.7442 117.083 71.7155 117.206 71.7155C117.329 71.7155 117.43 71.6868 117.43 71.6514C117.43 71.6163 117.517 71.5873 117.625 71.5873C117.74 71.5873 117.804 71.5606 117.781 71.5234C117.76 71.4881 117.787 71.4593 117.841 71.4593C117.916 71.4593 117.942 71.3925 117.942 71.2035C117.942 71.0625 117.913 70.9473 117.877 70.9473C117.842 70.9473 117.814 70.9019 117.814 70.8469C117.814 70.7316 117.664 70.5632 117.562 70.5632C117.524 70.5632 117.494 70.5919 117.494 70.6273C117.494 70.6624 117.407 70.6915 117.302 70.6915C117.196 70.6915 117.11 70.7202 117.11 70.7553C117.11 70.7906 116.994 70.8194 116.853 70.8194C116.712 70.8194 116.598 70.8481 116.598 70.8832C116.598 70.9186 116.453 70.9473 116.277 70.9473C116.101 70.9473 115.957 70.9186 115.957 70.8832C115.957 70.8481 115.842 70.8194 115.701 70.8194C115.56 70.8194 115.445 70.7906 115.445 70.7553C115.445 70.7202 115.388 70.6915 115.317 70.6915C115.247 70.6915 115.189 70.6624 115.189 70.6273C115.189 70.5919 115.145 70.5632 115.091 70.5632C114.939 70.5632 114.417 70.0091 114.461 69.8939C114.486 69.8292 114.462 69.7953 114.391 69.7953C114.314 69.7953 114.296 69.7605 114.325 69.6671C114.354 69.5769 114.337 69.5391 114.267 69.5391C114.191 69.5391 114.177 69.4941 114.207 69.3471C114.235 69.2031 114.222 69.1551 114.15 69.1551C114.076 69.1551 114.062 69.0885 114.087 68.835C114.11 68.591 114.096 68.5151 114.029 68.5151C113.968 68.5151 113.941 68.4289 113.941 68.2269C113.941 68.0252 113.968 67.9389 114.029 67.9389C114.096 67.9389 114.11 67.8633 114.087 67.622C114.064 67.383 114.08 67.2962 114.15 67.2693C114.212 67.2454 114.23 67.1829 114.205 67.0809C114.177 66.9754 114.197 66.9161 114.267 66.8895C114.322 66.868 114.355 66.8147 114.34 66.7706C114.325 66.7268 114.383 66.6242 114.47 66.5431C114.556 66.4621 114.611 66.3792 114.591 66.3596C114.54 66.3091 114.714 66.1467 114.819 66.1467C114.866 66.1467 114.946 66.0892 114.997 66.0188C115.048 65.9483 115.141 65.8908 115.203 65.8908C115.266 65.8908 115.317 65.8618 115.317 65.8267C115.317 65.7913 115.404 65.7626 115.509 65.7626C115.615 65.7626 115.701 65.7339 115.701 65.6987C115.701 65.6604 115.957 65.6346 116.341 65.6346C116.766 65.6346 116.981 65.6585 116.981 65.7054C116.981 65.7492 117.078 65.7668 117.237 65.7517C117.415 65.7347 117.494 65.7523 117.494 65.8089C117.494 65.8539 117.537 65.8908 117.589 65.8908C117.642 65.8908 117.686 65.8458 117.686 65.791C117.686 65.736 117.714 65.7087 117.75 65.7305C117.788 65.7541 117.814 65.6767 117.814 65.5385C117.814 65.4006 117.839 65.3231 117.877 65.3467C117.915 65.3691 117.942 65.3122 117.942 65.2134C117.942 65.0185 117.786 64.8716 117.577 64.8686C117.5 64.8673 117.419 64.8377 117.397 64.8026C117.375 64.7672 117.203 64.7385 117.014 64.7385C116.824 64.7385 116.651 64.7098 116.629 64.6744C116.608 64.6393 116.447 64.6106 116.273 64.6106C116.1 64.6106 115.957 64.6393 115.957 64.6744ZM87.1697 64.9C87.0901 64.9847 87.0253 65.0981 87.0253 65.1522C87.0253 65.2064 86.997 65.2505 86.9617 65.2505C86.9263 65.2505 86.8974 65.3386 86.8974 65.4465C86.8974 65.5605 86.9239 65.6255 86.9617 65.6026C86.9982 65.5802 87.0253 65.6353 87.0253 65.7305C87.0253 65.8261 87.053 65.8811 87.0895 65.8587C87.1249 65.837 87.1532 65.8639 87.1532 65.9189C87.1532 65.9737 87.1968 66.0188 87.2498 66.0188C87.3022 66.0188 87.3453 66.0475 87.3453 66.0825C87.3453 66.1179 87.4767 66.1467 87.6364 66.1467C87.941 66.1467 88.2415 65.9435 88.2415 65.7374C88.2415 65.6848 88.2704 65.6244 88.3058 65.6026C88.3405 65.5808 88.3694 65.4928 88.3694 65.4069C88.3694 65.321 88.3405 65.2505 88.3058 65.2505C88.2704 65.2505 88.2415 65.2061 88.2415 65.1517C88.2415 64.769 87.4631 64.5864 87.1697 64.9ZM103.092 68.2269V71.7155H105.012C106.709 71.7155 106.932 71.7037 106.932 71.6157C106.932 71.5606 106.961 71.5338 106.996 71.5555C107.031 71.5773 107.06 71.534 107.06 71.4593C107.06 71.3849 107.031 71.3417 106.996 71.3635C106.961 71.3853 106.932 71.3725 106.932 71.3351C106.932 71.2978 106.961 71.2673 106.996 71.2673C107.031 71.2673 107.06 71.1666 107.06 71.0435V70.8194H105.62C104.278 70.8194 103.945 70.7773 104.276 70.6503C104.328 70.6301 104.371 70.5735 104.371 70.5245C104.371 70.4755 104.328 70.4352 104.276 70.4352C104.223 70.4352 104.179 70.4056 104.179 70.3694C104.179 70.3331 104.223 70.2867 104.276 70.2665C104.328 70.2463 104.371 70.1894 104.371 70.1404C104.371 70.0914 104.328 70.0512 104.276 70.0512C104.223 70.0512 104.179 70.0215 104.179 69.9852C104.179 69.9489 104.223 69.9027 104.276 69.8824C104.328 69.8621 104.371 69.8053 104.371 69.7563C104.371 69.7073 104.328 69.6671 104.276 69.6671C104.223 69.6671 104.179 69.6374 104.179 69.6011C104.179 69.5648 104.223 69.5186 104.276 69.4983C104.404 69.4493 104.397 69.348 104.26 69.2467C104.153 69.168 104.153 69.1623 104.26 69.1209C104.397 69.0676 104.406 68.9261 104.276 68.8759C104.223 68.8556 104.179 68.8093 104.179 68.773C104.179 68.7367 104.223 68.7071 104.276 68.7071C104.328 68.7071 104.371 68.6669 104.371 68.6179C104.371 68.5689 104.328 68.5121 104.276 68.4918C104.223 68.4715 104.179 68.4253 104.179 68.389C104.179 68.3527 104.223 68.323 104.276 68.323C104.328 68.323 104.371 68.2828 104.371 68.2338C104.371 68.1848 104.328 68.128 104.276 68.1077C104.223 68.0874 104.179 68.0412 104.179 68.0049C104.179 67.9686 104.223 67.9389 104.276 67.9389C104.328 67.9389 104.371 67.8987 104.371 67.8497C104.371 67.8007 104.328 67.7441 104.276 67.7239C104.223 67.7036 104.179 67.657 104.179 67.6207C104.179 67.5844 104.223 67.5549 104.276 67.5549C104.328 67.5549 104.371 67.5146 104.371 67.4656C104.371 67.4166 104.328 67.36 104.276 67.3398C104.223 67.3195 104.179 67.2732 104.179 67.2369C104.179 67.2007 104.223 67.1707 104.276 67.1707C104.329 67.1707 104.371 67.1139 104.371 67.0428C104.371 66.9723 104.339 66.9221 104.3 66.9309C104.26 66.9397 104.215 66.9109 104.198 66.8668C104.182 66.8229 104.215 66.7866 104.27 66.7866C104.329 66.7866 104.371 66.7328 104.371 66.6587C104.371 66.5876 104.329 66.5308 104.276 66.5308C104.223 66.5308 104.179 66.502 104.179 66.4667C104.179 66.4315 104.223 66.4028 104.276 66.4028C104.329 66.4028 104.371 66.3457 104.371 66.2746C104.371 66.2005 104.329 66.1467 104.27 66.1467C104.215 66.1467 104.182 66.1107 104.198 66.0668C104.215 66.0227 104.26 65.994 104.3 66.0027C104.339 66.0115 104.371 65.961 104.371 65.8908C104.371 65.8194 104.329 65.7626 104.276 65.7626C104.223 65.7626 104.179 65.7329 104.179 65.6966C104.179 65.6604 104.223 65.6141 104.276 65.5938C104.328 65.5736 104.371 65.5167 104.371 65.4677C104.371 65.4187 104.328 65.3785 104.276 65.3785C104.223 65.3785 104.179 65.3488 104.179 65.3125C104.179 65.2762 104.223 65.23 104.276 65.2097C104.403 65.161 104.399 64.9947 104.271 64.9947C104.2 64.9947 104.183 64.9575 104.212 64.8665C104.25 64.7448 104.223 64.7385 103.672 64.7385H103.092V68.2269ZM108.02 68.2269V71.7155H109.941C111.637 71.7155 111.86 71.7037 111.86 71.6157C111.86 71.5606 111.889 71.5338 111.925 71.5555C111.96 71.5773 111.989 71.534 111.989 71.4593C111.989 71.3849 111.96 71.3417 111.925 71.3635C111.889 71.3853 111.86 71.3725 111.86 71.3351C111.86 71.2978 111.889 71.2673 111.925 71.2673C111.96 71.2673 111.989 71.1666 111.989 71.0435V70.8194H110.549C109.207 70.8194 108.873 70.7773 109.204 70.6503C109.257 70.6301 109.301 70.5735 109.301 70.5245C109.301 70.4755 109.257 70.4352 109.204 70.4352C109.152 70.4352 109.109 70.4056 109.109 70.3694C109.109 70.3331 109.152 70.2867 109.204 70.2665C109.257 70.2463 109.301 70.1894 109.301 70.1404C109.301 70.0914 109.257 70.0512 109.204 70.0512C109.152 70.0512 109.109 70.0215 109.109 69.9852C109.109 69.9489 109.152 69.9027 109.204 69.8824C109.257 69.8621 109.301 69.8053 109.301 69.7563C109.301 69.7073 109.257 69.6671 109.204 69.6671C109.152 69.6671 109.109 69.6374 109.109 69.6011C109.109 69.5648 109.152 69.5186 109.204 69.4983C109.257 69.478 109.301 69.4212 109.301 69.3722C109.301 69.3232 109.257 69.283 109.204 69.283C109.152 69.283 109.109 69.24 109.109 69.1871C109.109 69.1341 109.152 69.0912 109.204 69.0912C109.257 69.0912 109.301 69.048 109.301 68.995C109.301 68.9421 109.257 68.8991 109.204 68.8991C109.152 68.8991 109.109 68.856 109.109 68.803C109.109 68.7504 109.152 68.7071 109.204 68.7071C109.257 68.7071 109.301 68.6669 109.301 68.6179C109.301 68.5689 109.257 68.5121 109.204 68.4918C109.152 68.4715 109.109 68.4253 109.109 68.389C109.109 68.3527 109.152 68.323 109.204 68.323C109.257 68.323 109.301 68.2828 109.301 68.2338C109.301 68.1848 109.257 68.128 109.204 68.1077C109.152 68.0874 109.109 68.0412 109.109 68.0049C109.109 67.9686 109.152 67.9389 109.204 67.9389C109.257 67.9389 109.301 67.8987 109.301 67.8497C109.301 67.8007 109.257 67.7441 109.204 67.7239C109.152 67.7036 109.109 67.657 109.109 67.6207C109.109 67.5844 109.152 67.5549 109.204 67.5549C109.257 67.5549 109.301 67.5146 109.301 67.4656C109.301 67.4166 109.257 67.36 109.204 67.3398C109.152 67.3195 109.109 67.2732 109.109 67.2369C109.109 67.2007 109.152 67.1707 109.204 67.1707C109.257 67.1707 109.301 67.1308 109.301 67.0815C109.301 67.0325 109.257 66.976 109.204 66.9557C109.152 66.9354 109.109 66.8892 109.109 66.8529C109.109 66.8166 109.152 66.7866 109.204 66.7866C109.336 66.7866 109.325 66.616 109.188 66.5338C109.082 66.47 109.082 66.4636 109.188 66.3995C109.325 66.3172 109.336 66.1467 109.204 66.1467C109.152 66.1467 109.109 66.1171 109.109 66.0808C109.109 66.0445 109.152 65.9982 109.204 65.9779C109.257 65.9577 109.301 65.9008 109.301 65.8518C109.301 65.8028 109.257 65.7626 109.204 65.7626C109.152 65.7626 109.109 65.7329 109.109 65.6966C109.109 65.6604 109.152 65.6141 109.204 65.5938C109.257 65.5736 109.301 65.5167 109.301 65.4677C109.301 65.4187 109.257 65.3785 109.204 65.3785C109.152 65.3785 109.109 65.3488 109.109 65.3125C109.109 65.2762 109.152 65.23 109.204 65.2097C109.331 65.161 109.328 64.9947 109.2 64.9947C109.129 64.9947 109.112 64.9575 109.14 64.8665C109.179 64.7448 109.152 64.7385 108.601 64.7385H108.02V68.2269ZM83.9529 65.3146C83.9529 65.3497 83.8662 65.3785 83.7608 65.3785C83.6553 65.3785 83.5687 65.4075 83.5687 65.4426C83.5687 65.4777 83.4968 65.5067 83.409 65.5067H83.2487V66.1467V66.7866H82.9888C82.8321 66.7866 82.7449 66.812 82.769 66.8507C82.7914 66.887 82.7372 66.9149 82.6447 66.9149C82.4874 66.9149 82.4809 66.9294 82.4809 67.2989V67.6828H82.8651H83.2487V69.0912C83.2487 69.987 83.2723 70.4994 83.3129 70.4994C83.3483 70.4994 83.3766 70.6019 83.3766 70.7271C83.3766 70.8626 83.4031 70.9388 83.4408 70.9153C83.4773 70.8929 83.505 70.9479 83.505 71.0435C83.505 71.1388 83.5327 71.1938 83.5687 71.1714C83.604 71.1496 83.6329 71.1636 83.6329 71.2026C83.6329 71.2924 83.9252 71.5873 84.0141 71.5873C84.0513 71.5873 84.0807 71.6163 84.0807 71.6514C84.0807 71.6868 84.1674 71.7155 84.2728 71.7155C84.3789 71.7155 84.4649 71.7442 84.4649 71.7793C84.4649 71.8174 84.6995 71.8434 85.0412 71.8434C85.3824 71.8434 85.6175 71.8174 85.6175 71.7793C85.6175 71.7442 85.7183 71.7155 85.8415 71.7155C86.0607 71.7155 86.0654 71.7098 86.0654 71.4557C86.0654 71.2988 86.04 71.2113 86.0011 71.2352C85.9634 71.2588 85.9375 71.1826 85.9375 71.0471C85.9375 70.8197 85.9369 70.8194 85.6494 70.8194C85.4908 70.8194 85.3612 70.8481 85.3612 70.8832C85.3612 70.9186 85.2457 70.9473 85.1055 70.9473C84.9646 70.9473 84.8491 70.9186 84.8491 70.8832C84.8491 70.8481 84.8049 70.8194 84.7507 70.8194C84.6034 70.8194 84.4803 70.6787 84.5144 70.5493C84.5321 70.4809 84.5091 70.4352 84.4567 70.4352C84.3836 70.4352 84.3718 70.0007 84.3866 67.8431L84.4037 65.2505H84.1786C84.0548 65.2505 83.9529 65.2793 83.9529 65.3146ZM61.358 66.7228C61.358 66.7579 61.3005 66.7866 61.23 66.7866C61.1596 66.7866 61.1021 66.8157 61.1021 66.8507C61.1021 66.8862 61.0444 66.9149 60.9739 66.9149C60.9034 66.9149 60.846 66.9436 60.846 66.9787C60.846 67.0141 60.8061 67.0428 60.7573 67.0428C60.6397 67.0428 60.1331 67.553 60.1785 67.6262C60.1981 67.658 60.1673 67.7018 60.1101 67.7236C60.0533 67.7454 60.0221 67.8041 60.0411 67.8536C60.0602 67.9032 60.033 67.9601 59.9807 67.9801C59.9287 68.0003 59.8857 68.0711 59.8857 68.1379C59.8857 68.2045 59.857 68.2589 59.8219 68.2589C59.7865 68.2589 59.7578 68.4029 59.7578 68.5789C59.7578 68.7549 59.7291 68.8991 59.6937 68.8991C59.6586 68.8991 59.6298 69.0286 59.6298 69.1871C59.6298 69.3456 59.6586 69.475 59.6937 69.475C59.7294 69.475 59.7578 69.6459 59.7578 69.8591C59.7578 70.0727 59.7862 70.2432 59.8219 70.2432C59.857 70.2432 59.8857 70.2977 59.8857 70.3645C59.8857 70.4311 59.9308 70.5027 59.9858 70.5239C60.0409 70.5451 60.0681 70.5913 60.0463 70.6264C60.0245 70.6618 60.0744 70.7556 60.1576 70.8351C60.2432 70.9171 60.2974 71.0311 60.2828 71.0988C60.2671 71.1741 60.2837 71.2022 60.3282 71.1747C60.3669 71.1508 60.4162 71.1762 60.4371 71.2313C60.4582 71.2863 60.5239 71.3314 60.5826 71.3314C60.6415 71.3314 60.7314 71.3889 60.7819 71.4593C60.8326 71.5298 60.9255 71.5873 60.9881 71.5873C61.0507 71.5873 61.1021 71.6163 61.1021 71.6514C61.1021 71.6868 61.1883 71.7155 61.2939 71.7155C61.3998 71.7155 61.4859 71.7442 61.4859 71.7793C61.4859 71.8177 61.7315 71.8434 62.0941 71.8434C62.4568 71.8434 62.7023 71.8177 62.7023 71.7793C62.7023 71.7442 62.7885 71.7155 62.8941 71.7155C63 71.7155 63.0861 71.6868 63.0861 71.6514C63.0861 71.6163 63.1439 71.5873 63.2144 71.5873C63.2848 71.5873 63.3423 71.5586 63.3423 71.5234C63.3423 71.4881 63.3856 71.4593 63.4385 71.4593C63.5555 71.4593 64.0579 70.954 64.0131 70.8814C63.9956 70.8529 64.057 70.7701 64.1495 70.6972C64.2675 70.6044 64.3074 70.5251 64.2832 70.4322C64.2617 70.3506 64.2835 70.2859 64.3394 70.2644C64.3893 70.2453 64.4305 70.1462 64.4305 70.0442C64.4305 69.9426 64.4592 69.8591 64.4946 69.8591C64.5327 69.8591 64.5584 69.6139 64.5584 69.2512C64.5584 68.8883 64.5327 68.643 64.4946 68.643C64.4592 68.643 64.4305 68.5308 64.4305 68.3938C64.4305 68.2326 64.3969 68.1319 64.3355 68.1083C64.2832 68.088 64.2563 68.0312 64.275 67.9815C64.2941 67.932 64.2632 67.8736 64.2061 67.8515C64.1489 67.8298 64.1181 67.7862 64.1377 67.7547C64.1855 67.677 63.4373 66.9149 63.313 66.9149C63.2588 66.9149 63.2144 66.8862 63.2144 66.8507C63.2144 66.8157 63.1566 66.7866 63.0861 66.7866C63.016 66.7866 62.9582 66.7579 62.9582 66.7228C62.9582 66.6835 62.6488 66.6587 62.1583 66.6587C61.6674 66.6587 61.358 66.6835 61.358 66.7228ZM65.5187 66.7228C65.5187 66.7579 65.4754 66.7866 65.4225 66.7866C65.3587 66.7866 65.3266 66.8507 65.3266 66.9787C65.3266 67.0897 65.3605 67.1707 65.4065 67.1707C65.469 67.1707 65.4866 67.6646 65.4866 69.4272V71.6834L66.1105 71.7019L66.7348 71.72V69.6338C66.7348 68.2592 66.713 67.5609 66.6707 67.5869C66.6317 67.6111 66.6069 67.5116 66.6069 67.3307C66.6069 67.1502 66.5818 67.0507 66.5427 67.0748C66.5076 67.0966 66.4786 67.0818 66.4786 67.0419C66.4786 66.9503 66.3177 66.7866 66.2273 66.7866C66.1895 66.7866 66.1586 66.7579 66.1586 66.7228C66.1586 66.6875 66.0146 66.6587 65.8386 66.6587C65.6626 66.6587 65.5187 66.6875 65.5187 66.7228ZM67.6309 66.7228C67.6309 66.7579 67.5589 66.7866 67.4709 66.7866C67.3829 66.7866 67.3109 66.8157 67.3109 66.8507C67.3109 66.8862 67.2532 66.9149 67.1827 66.9149C67.1125 66.9149 67.0548 66.9436 67.0548 66.9787C67.0548 67.0141 66.9973 67.0428 66.9268 67.0428C66.8539 67.0428 66.7989 67.0854 66.7989 67.1417C66.7989 67.2697 67.0838 67.5549 67.212 67.5549C67.2662 67.5549 67.3109 67.5836 67.3109 67.619C67.3109 67.654 67.4404 67.6828 67.5988 67.6828C67.7573 67.6828 67.8868 67.654 67.8868 67.619C67.8868 67.5836 67.9732 67.5549 68.0788 67.5549C68.1847 67.5549 68.2709 67.5836 68.2709 67.619C68.2709 67.654 68.3141 67.6828 68.367 67.6828C68.4203 67.6828 68.4629 67.7399 68.4629 67.811C68.4629 67.8815 68.4917 67.9389 68.527 67.9389C68.5682 67.9389 68.5908 68.6109 68.5908 69.8271V71.7155H69.167H69.7432V69.6671C69.7432 68.3442 69.7205 67.619 69.679 67.619C69.6439 67.619 69.6152 67.5482 69.6152 67.4614C69.6152 67.2841 69.1688 66.7866 69.0098 66.7866C68.9553 66.7866 68.9111 66.7579 68.9111 66.7228C68.9111 66.6844 68.655 66.6587 68.2709 66.6587C67.8868 66.6587 67.6309 66.6844 67.6309 66.7228ZM71.8554 66.7228C71.8554 66.7579 71.7979 66.7866 71.7274 66.7866C71.657 66.7866 71.5995 66.8157 71.5995 66.8507C71.5995 66.8862 71.5551 66.9149 71.5012 66.9149C71.3827 66.9149 71.0189 67.273 71.0775 67.3316C71.1005 67.3546 71.066 67.4124 71.0007 67.4599C70.9357 67.5074 70.9015 67.5772 70.9251 67.615C70.9484 67.6528 70.9223 67.7012 70.8673 67.7221C70.7297 67.775 70.7246 68.323 70.8616 68.323C70.9324 68.323 70.9466 68.3711 70.9179 68.5151C70.8921 68.6427 70.9048 68.7071 70.9559 68.7071C71.0651 68.7071 71.2209 68.8771 71.2006 68.9742C71.1909 69.0192 71.2481 69.0658 71.3273 69.0779C71.4066 69.09 71.4713 69.1233 71.4713 69.1517C71.4713 69.1805 71.745 69.3395 72.0795 69.5056C72.414 69.6716 72.6717 69.8331 72.6523 69.8645C72.6327 69.896 72.6608 69.9048 72.7146 69.8842C72.8407 69.8358 73.0077 70.0034 73.0077 70.1785C73.0077 70.2535 73.0364 70.2971 73.0715 70.2753C73.1069 70.2535 73.1356 70.2807 73.1356 70.3355C73.1356 70.3902 73.1069 70.4352 73.0715 70.4352C73.0364 70.4352 73.0077 70.4806 73.0077 70.536C73.0077 70.6654 72.8535 70.8194 72.7234 70.8194C72.6674 70.8194 72.5607 70.8553 72.4863 70.8992C72.378 70.9633 72.3451 70.9633 72.3218 70.8992C72.3027 70.8466 72.1527 70.8194 71.882 70.8194C71.651 70.8194 71.4713 70.7912 71.4713 70.7553C71.4713 70.7202 71.4138 70.6915 71.3434 70.6915C71.2729 70.6915 71.2154 70.6606 71.2154 70.6228C71.2154 70.5853 71.1504 70.5635 71.0715 70.5747C70.9753 70.5886 70.9335 70.6325 70.9463 70.7072C70.9577 70.7767 70.9242 70.8194 70.8582 70.8194C70.7735 70.8194 70.7593 70.8593 70.7896 71.0114C70.8183 71.1554 70.8044 71.2035 70.7336 71.2035C70.6816 71.2035 70.6393 71.2401 70.6393 71.2851C70.6393 71.4128 70.88 71.5873 71.056 71.5873C71.1438 71.5873 71.2154 71.6163 71.2154 71.6514C71.2154 71.6868 71.3306 71.7155 71.4713 71.7155C71.6122 71.7155 71.7274 71.7442 71.7274 71.7793C71.7274 71.818 71.9942 71.8434 72.3995 71.8434C72.8047 71.8434 73.0715 71.818 73.0715 71.7793C73.0715 71.7442 73.1292 71.7155 73.1997 71.7155C73.2699 71.7155 73.3277 71.6868 73.3277 71.6514C73.3277 71.6163 73.373 71.5873 73.4287 71.5873C73.4843 71.5873 73.6476 71.4651 73.7919 71.3154C73.9362 71.1656 74.0813 71.0516 74.1146 71.0619C74.1479 71.0722 74.1618 70.9903 74.1455 70.8798C74.1264 70.7489 74.1461 70.6681 74.202 70.6464C74.3194 70.6013 74.3203 70.0512 74.2029 70.0512C74.1448 70.0512 74.1267 69.9901 74.1461 69.8591C74.1639 69.7384 74.1464 69.6671 74.0989 69.6671C74.0575 69.6671 73.8833 69.5231 73.7118 69.3471C73.5403 69.1711 73.3764 69.0274 73.3479 69.0277C73.1006 69.0301 72.0474 68.3857 72.0474 68.2314C72.0474 68.1764 72.0187 68.131 71.9833 68.131C71.9482 68.131 71.9195 68.0877 71.9195 68.0348C71.9195 67.9822 71.9482 67.9389 71.9833 67.9389C72.0187 67.9389 72.0478 67.8884 72.0481 67.827C72.0484 67.7653 72.1261 67.6788 72.2207 67.635C72.4309 67.5373 73.0715 67.5276 73.0715 67.6223C73.0715 67.6634 73.2028 67.6821 73.4075 67.6704C73.7302 67.6516 73.7432 67.6437 73.7317 67.475C73.7236 67.3558 73.7505 67.2989 73.8155 67.2989C74.0916 67.2989 73.8847 66.8196 73.5995 66.799C73.4502 66.7882 73.3277 66.7522 73.3277 66.7192C73.3277 66.6847 73.0095 66.6587 72.5915 66.6587C72.1436 66.6587 71.8554 66.6838 71.8554 66.7228ZM74.9279 68.8671C74.9279 70.5995 74.9451 71.0719 75.0077 71.0592C75.0519 71.0504 75.0809 71.0785 75.0725 71.1215C75.0519 71.2262 75.537 71.7155 75.6613 71.7155C75.7157 71.7155 75.7599 71.7442 75.7599 71.7793C75.7599 71.8174 75.9948 71.8434 76.336 71.8434C76.6772 71.8434 76.9123 71.8174 76.9123 71.7793C76.9123 71.7442 76.9842 71.7155 77.072 71.7155C77.1604 71.7155 77.2323 71.6868 77.2323 71.6514C77.2323 71.6163 77.3065 71.5873 77.3967 71.5873C77.7579 71.5873 77.8593 71.2213 77.5682 70.9709C77.3661 70.797 76.5741 70.7438 76.5016 70.8992C76.4716 70.9633 76.4568 70.9633 76.4268 70.8992C76.4062 70.8553 76.3484 70.8194 76.2983 70.8194C76.2488 70.8194 76.2082 70.7616 76.2082 70.6915C76.2082 70.621 76.1793 70.5632 76.1439 70.5632C76.1027 70.5632 76.0797 69.8697 76.0797 68.6109V66.6587H75.504H74.9279V68.8671ZM78.1286 66.7201C78.1286 66.7567 78.085 66.7866 78.0319 66.7866C77.9488 66.7866 77.9365 67.0751 77.9365 68.999C77.9365 70.4573 77.9583 71.1974 78.0001 71.1714C78.0366 71.1487 78.0643 71.2041 78.0643 71.2993C78.0643 71.3949 78.0914 71.45 78.1286 71.4273C78.1645 71.4049 78.1922 71.4596 78.1922 71.5543V71.721L78.6884 71.7022L79.1845 71.6834L79.2034 71.2513C79.2175 70.9306 79.201 70.8194 79.1392 70.8194C79.0732 70.8194 79.0567 70.4026 79.0567 68.7549V66.6908L78.5923 66.672C78.3006 66.6602 78.1286 66.678 78.1286 66.7201ZM84.5292 66.9149C84.5292 67.0555 84.5539 67.1707 84.5834 67.1707C84.6134 67.1707 84.7283 67.2572 84.8391 67.3628C84.9493 67.4684 85.0837 67.5549 85.1367 67.5549C85.1897 67.5549 85.2333 67.5836 85.2333 67.619C85.2333 67.7133 85.8232 67.6927 85.9534 67.5939C86.0913 67.4889 86.1202 66.7757 85.9852 66.8027C85.941 66.8114 85.9128 66.7827 85.921 66.7388C85.9334 66.6787 85.7619 66.6587 85.2333 66.6587H84.5292V66.9149ZM87.1054 66.7546C87.0447 66.8238 87.0253 67.4236 87.0253 69.2806V71.7155H87.6334H88.2415V69.2785C88.2415 67.2518 88.2262 66.8262 88.1502 66.7503C88.0247 66.6248 87.2168 66.6282 87.1054 66.7546ZM89.522 66.7228C89.522 66.7579 89.4784 66.7866 89.4254 66.7866C89.3617 66.7866 89.3299 66.8507 89.3299 66.9787C89.3299 67.0845 89.3588 67.1707 89.3941 67.1707C89.4354 67.1707 89.4578 67.971 89.4578 69.4433V71.7155H90.0977H90.7377V69.6671C90.7377 68.3442 90.7153 67.619 90.674 67.619C90.6387 67.619 90.6098 67.4877 90.6098 67.3271C90.6098 67.149 90.585 67.0507 90.5461 67.0748C90.5108 67.0966 90.4819 67.0694 90.4819 67.0147C90.4819 66.9596 90.4454 66.9149 90.4 66.9149C90.3552 66.9149 90.2769 66.8571 90.2262 66.7866C90.1266 66.6493 89.522 66.5943 89.522 66.7228ZM91.5697 66.7228C91.5697 66.7579 91.5125 66.7866 91.4418 66.7866C91.3717 66.7866 91.314 66.8157 91.314 66.8507C91.314 66.8862 91.2562 66.9149 91.1861 66.9149C91.116 66.9149 91.0576 66.9415 91.0576 66.9744C91.0576 67.0071 90.9934 67.0431 90.9144 67.0543C90.7606 67.0764 90.6705 67.2989 90.8149 67.2989C90.8626 67.2989 90.9433 67.3565 90.994 67.4269C91.0447 67.4973 91.1372 67.5549 91.2002 67.5549C91.2627 67.5549 91.314 67.5836 91.314 67.619C91.314 67.654 91.4277 67.6828 91.5662 67.6828C91.7052 67.6828 91.8366 67.654 91.8584 67.619C91.9533 67.4644 92.4648 67.6395 92.466 67.827C92.466 67.8884 92.4949 67.9389 92.5302 67.9389C92.5715 67.9389 92.5944 68.6119 92.5944 69.8298V71.7203L93.1407 71.7019L93.6875 71.6834L93.6887 69.6786C93.6899 68.3351 93.6675 67.6462 93.6209 67.5905C93.5832 67.5445 93.5685 67.4632 93.5891 67.41C93.6333 67.2951 93.1631 66.7866 93.0128 66.7866C92.9586 66.7866 92.9144 66.7579 92.9144 66.7228C92.9144 66.6841 92.6475 66.6587 92.2421 66.6587C91.8366 66.6587 91.5697 66.6841 91.5697 66.7228ZM96.6268 66.7228C96.6268 66.7579 96.5402 66.7866 96.4347 66.7866C96.3292 66.7866 96.2426 66.8157 96.2426 66.8507C96.2426 66.8862 96.1984 66.9149 96.1442 66.9149C96.0228 66.9149 95.1454 67.8086 95.1925 67.8845C95.2114 67.915 95.1819 67.9571 95.1265 67.9782C95.0717 67.9994 95.0263 68.0711 95.0263 68.1379C95.0263 68.2045 94.9981 68.2589 94.9627 68.2589C94.9273 68.2589 94.8985 68.4029 94.8985 68.5789C94.8985 68.7549 94.8696 68.8991 94.8342 68.8991C94.7983 68.8991 94.7706 69.0803 94.7706 69.3151C94.7706 69.5497 94.7983 69.7312 94.8342 69.7312C94.8696 69.7312 94.8985 69.8751 94.8985 70.0512C94.8985 70.2272 94.9273 70.3711 94.9627 70.3711C94.9981 70.3711 95.0263 70.4431 95.0263 70.5311C95.0263 70.6252 95.0593 70.6848 95.1065 70.6754C95.1507 70.6666 95.1789 70.6963 95.1701 70.7417C95.1607 70.787 95.2184 70.8877 95.298 70.9658C95.3781 71.0435 95.4429 71.1503 95.4429 71.2026C95.4429 71.2549 95.4989 71.3084 95.5679 71.3217C95.6368 71.3351 95.7706 71.4291 95.8654 71.5307C95.9703 71.6426 96.1035 71.7155 96.2043 71.7155C96.2956 71.7155 96.3704 71.7442 96.3704 71.7793C96.3704 71.815 96.5413 71.8434 96.7546 71.8434C96.968 71.8434 97.1388 71.815 97.1388 71.7793C97.1388 71.7442 97.2414 71.7155 97.3663 71.7155C97.5024 71.7155 97.5784 71.6895 97.5549 71.6514C97.5325 71.6151 97.5861 71.5873 97.6792 71.5873C97.8242 71.5873 97.843 71.5613 97.843 71.3589C97.843 71.1167 97.7263 70.9473 97.5596 70.9473C97.5042 70.9473 97.4588 70.9186 97.4588 70.8832C97.4588 70.8472 97.2773 70.8194 97.0428 70.8194C96.8083 70.8194 96.6268 70.7916 96.6268 70.7553C96.6268 70.7202 96.5838 70.6915 96.5307 70.6915C96.4777 70.6915 96.4347 70.64 96.4347 70.5774C96.4347 70.5148 96.3769 70.422 96.3068 70.3711C96.2178 70.307 96.1783 70.2054 96.1783 70.037C96.1783 69.9039 96.1501 69.7953 96.1147 69.7953C96.0776 69.7953 96.0505 69.5924 96.0505 69.3151C96.0505 69.0377 96.0776 68.835 96.1147 68.835C96.1501 68.835 96.1783 68.7262 96.1783 68.5931C96.1783 68.4247 96.2178 68.3233 96.3068 68.2589C96.3769 68.2081 96.4347 68.1276 96.4347 68.0802C96.4347 67.977 96.5897 67.811 96.6863 67.811C96.724 67.811 96.7546 67.782 96.7546 67.7469C96.7546 67.7118 96.8265 67.6828 96.9149 67.6828C97.0027 67.6828 97.0746 67.654 97.0746 67.619C97.0746 67.5273 97.7847 67.5397 97.9897 67.635L98.1618 67.7148L98.1624 69.7509C98.163 71.0922 98.1412 71.7736 98.0988 71.7475C98.0593 71.7228 98.0351 71.8441 98.0351 72.0676C98.0351 72.291 98.011 72.412 97.9709 72.3875C97.9344 72.3649 97.9072 72.4223 97.9072 72.5224C97.9072 72.6183 97.8878 72.6779 97.8648 72.6546C97.8413 72.6313 97.7882 72.677 97.7476 72.7559C97.7063 72.8348 97.6385 72.8923 97.5973 72.8835C97.5566 72.8747 97.523 72.9144 97.523 72.9716C97.523 73.0529 97.4812 73.0674 97.3315 73.0374C97.199 73.0109 97.1447 73.0229 97.1553 73.0774C97.1665 73.133 97.0416 73.1557 96.7228 73.1557C96.3976 73.1557 96.2791 73.1337 96.2909 73.0753C96.3015 73.0218 96.2379 73.0005 96.0988 73.0115C95.9532 73.0226 95.8961 73.0018 95.9079 72.9425C95.9208 72.8832 95.8666 72.8638 95.7299 72.8781C95.6132 72.8905 95.5113 72.8633 95.4789 72.8109C95.4117 72.7021 95.2615 72.784 95.3074 72.9044C95.3257 72.9528 95.295 73.0181 95.2385 73.0499C95.1713 73.0873 95.1483 73.1564 95.1719 73.2473C95.1954 73.3366 95.1754 73.4001 95.1177 73.4225C94.9969 73.4687 95.0004 73.6357 95.1224 73.6357C95.1754 73.6357 95.2184 73.6644 95.2184 73.6998C95.2184 73.7349 95.2762 73.7636 95.3463 73.7636C95.417 73.7636 95.4742 73.7923 95.4742 73.8278C95.4742 73.8628 95.5608 73.8919 95.6663 73.8919C95.7723 73.8919 95.8584 73.9206 95.8584 73.9557C95.8584 73.9953 96.199 74.0198 96.7511 74.0198C97.2767 74.0198 97.6598 73.9935 97.6827 73.9557C97.7045 73.9206 97.7782 73.8919 97.8466 73.8919C97.9149 73.8919 97.9709 73.8628 97.9709 73.8278C97.9709 73.7923 98.0286 73.7636 98.0988 73.7636C98.1695 73.7636 98.2272 73.7349 98.2272 73.6998C98.2272 73.6644 98.2714 73.6357 98.3256 73.6357C98.4411 73.6357 98.7794 73.3154 98.7528 73.2313C98.7428 73.1999 98.8106 73.1089 98.9037 73.029C99.0286 72.9216 99.0616 72.8485 99.0298 72.7478C98.9974 72.6458 99.0133 72.6116 99.0934 72.6116C99.1795 72.6116 99.196 72.562 99.1759 72.3555C99.1588 72.1767 99.1765 72.0996 99.2343 72.0996C99.3003 72.0996 99.3132 71.5906 99.2997 69.5231L99.2832 66.9469L99.1394 66.9263C99.0599 66.9152 98.995 66.8792 98.995 66.8462C98.995 66.8136 98.8801 66.7866 98.7387 66.7866C98.5979 66.7866 98.483 66.7579 98.483 66.7228C98.483 66.6829 98.1306 66.6587 97.5549 66.6587C96.9786 66.6587 96.6268 66.6829 96.6268 66.7228ZM62.4141 67.619C62.4359 67.654 62.5097 67.6828 62.578 67.6828C62.6464 67.6828 62.7023 67.7118 62.7023 67.7469C62.7023 67.782 62.7453 67.811 62.7982 67.811C62.8511 67.811 62.8941 67.8621 62.8941 67.9247C62.8941 67.9873 62.9519 68.0802 63.0223 68.131C63.0973 68.1851 63.1503 68.2967 63.1503 68.401C63.1503 68.499 63.179 68.5789 63.2144 68.5789C63.2525 68.5789 63.2782 68.8245 63.2782 69.1871C63.2782 69.5497 63.2525 69.7953 63.2144 69.7953C63.179 69.7953 63.1503 69.8815 63.1503 69.987C63.1503 70.0929 63.1215 70.1791 63.0861 70.1791C63.051 70.1791 63.0223 70.2369 63.0223 70.3073C63.0223 70.3775 62.9954 70.4352 62.9624 70.4352C62.9298 70.4352 62.8847 70.4928 62.8623 70.5632C62.84 70.6336 62.7803 70.6915 62.7298 70.6915C62.6793 70.6915 62.6382 70.7202 62.6382 70.7553C62.6382 70.7906 62.5677 70.8194 62.4819 70.8194C62.396 70.8194 62.3079 70.8481 62.2862 70.8832C62.2644 70.9186 62.1779 70.9473 62.0941 70.9473C62.0103 70.9473 61.9238 70.9186 61.9021 70.8832C61.8803 70.8481 61.8056 70.8194 61.736 70.8194C61.5873 70.8194 61.1659 70.4189 61.1659 70.2774C61.1659 70.2233 61.1372 70.1791 61.1021 70.1791C61.0668 70.1791 61.038 70.0639 61.038 69.9232C61.038 69.7823 61.0093 69.6671 60.9739 69.6671C60.9379 69.6671 60.9101 69.4859 60.9101 69.2512C60.9101 69.0165 60.9379 68.835 60.9739 68.835C61.0093 68.835 61.038 68.7198 61.038 68.5789C61.038 68.4383 61.0668 68.323 61.1021 68.323C61.1372 68.323 61.1659 68.2653 61.1659 68.1951C61.1659 68.1246 61.1929 68.0669 61.2258 68.0669C61.2585 68.0669 61.3036 68.0094 61.3259 67.9389C61.3483 67.8685 61.4079 67.811 61.4584 67.811C61.5089 67.811 61.55 67.782 61.55 67.7469C61.55 67.7118 61.5933 67.6828 61.6462 67.6828C61.6989 67.6828 61.7421 67.654 61.7421 67.619C61.7421 67.5836 61.8845 67.5549 62.0584 67.5549C62.2323 67.5549 62.3923 67.5836 62.4141 67.619ZM17 72.0996V75.3H32.6023H48.2043L48.187 72.0996L48.1701 68.8991H32.5851H17V72.0996Z" fill="white"/>
</g>
</g>
<defs>
<clipPath id="clip0_307_2847">
<rect width="135" height="120" fill="white"/>
</clipPath>
<clipPath id="clip1_307_2847">
<rect width="101" height="31.3489" fill="white" transform="translate(17 43.9999)"/>
</clipPath>
</defs>
</svg>
