<svg width="135" height="120" viewBox="0 0 135 120" fill="none" xmlns="http://www.w3.org/2000/svg">
<g clip-path="url(#clip0_307_2927)">
<path d="M132 0H3C1.34315 0 0 1.34315 0 3V117C0 118.657 1.34315 120 3 120H132C133.657 120 135 118.657 135 117V3C135 1.34315 133.657 0 132 0Z" fill="#D34D46"/>
<g clip-path="url(#clip1_307_2927)">
<path fill-rule="evenodd" clip-rule="evenodd" d="M43.1052 48.8084C42.9604 48.6682 42.6529 48.3657 42.2757 47.9946L42.2756 47.9945C41.3617 47.0954 40.0379 45.793 39.6224 45.4168C39.3288 45.151 38.8013 45.0598 38.0753 45.0598C37.2423 45.0598 36.3349 45.0449 35.4275 45.03C34.5201 45.0152 33.6127 45.0003 32.7797 45.0003C32.1489 44.9884 31.431 45.3375 31.3199 46.2498C31.2497 46.8177 31.6746 47.1828 32.015 47.4753C32.0979 47.5465 32.1757 47.6134 32.2402 47.6779C33.3985 48.7965 34.5608 49.9191 35.723 51.0417C33.2176 53.6779 30.7083 56.3141 28.199 58.9502L28.1941 58.9554C23.7195 63.5331 24.8461 68.0632 26.2067 70.1696C29.2889 75.3423 34.2593 74.7552 35.8182 74.541C36.6116 74.3506 37.4129 74.061 38.0793 73.7079C41.4471 71.9229 44.1644 67.008 41.9747 62.1963C41.4352 61.0102 40.5665 59.84 39.5946 59.0705C39.1981 58.785 38.8015 58.4955 38.4049 58.206L38.4046 58.2057L38.3451 58.1462C38.712 57.7654 39.6589 56.7809 40.6058 55.7962L40.6083 55.7937C41.5546 54.8097 42.5006 53.8261 42.8672 53.4456C43.5416 52.7871 43.7518 52.2754 43.8192 51.7478C44.0176 50.169 43.6249 49.3122 43.1052 48.8084ZM34.0014 69.2493C31.7523 69.4595 29.7371 66.8256 30.7288 64.5804C31.3992 63.0571 32.7122 62.4899 33.6722 62.47C38.2776 62.4661 38.3966 68.8367 34.0014 69.2493Z" fill="white"/>
<path d="M94.4236 57.1981C93.424 56.4405 92.0674 55.9367 90.556 55.9486C90.5227 55.9502 90.4862 55.9514 90.4457 55.9527L90.4453 55.9528H90.4449C89.9971 55.9674 89.1137 55.9963 87.9935 56.7856C86.5932 57.7693 86.617 60.5143 87.9935 61.514C88.383 61.798 89.124 62.0063 89.8987 62.224C91.1364 62.5717 92.4605 62.9437 92.5751 63.6878C92.6584 64.2074 92.3371 64.5287 92.0118 64.6715C90.4251 65.3657 88.7313 64.2114 88.053 63.7195C87.9459 63.6005 87.8229 63.6481 87.7832 63.6878C87.3905 64.0686 86.8272 64.7786 86.5337 65.1753C86.7201 65.4728 87.3588 65.8774 87.7832 66.0996C90.2664 67.3967 93.9476 67.2222 94.7449 64.5208C95.5145 61.9107 93.3962 60.8753 91.4128 60.3557C91.3208 60.3315 91.2197 60.3068 91.1134 60.2809C90.4176 60.1112 89.4874 59.8843 89.2708 59.3441C89.1319 58.9951 89.2311 58.5468 89.4215 58.3604C90.4251 57.3687 92.468 58.4238 93.1424 58.8364L93.1555 58.841C93.2669 58.8797 93.3887 58.922 93.4994 58.7769C93.6069 58.6365 93.7584 58.4225 93.9175 58.1977L93.9179 58.1973C94.0869 57.9584 94.2646 57.7074 94.4078 57.5194C94.5188 57.3726 94.5109 57.2655 94.4236 57.1981Z" fill="white"/>
<path d="M61.5602 56.1004L61.4 56.0994C61.3326 56.1113 61.2493 56.1311 61.2533 56.258C61.2493 57.4481 61.2513 59.4414 61.2533 61.4347C61.2553 63.428 61.2572 65.4213 61.2533 66.6114C61.2533 66.6986 61.3326 66.7304 61.404 66.7304C61.4263 66.7304 61.4893 66.7305 61.58 66.7307C61.9735 66.7316 62.8875 66.7336 63.2486 66.7304C63.3874 66.7304 63.4548 66.6867 63.4548 66.5519C63.4588 65.699 63.4568 64.5338 63.4548 63.3685C63.4529 62.2033 63.4509 61.038 63.4548 60.1852C63.4628 60.0344 63.5897 60.0424 63.6056 60.0662C64.1255 60.7375 64.8555 61.6894 65.629 62.6975L65.6294 62.6982L65.6306 62.6995L65.6326 62.7019V62.7024C66.7227 64.1233 67.898 65.6553 68.691 66.6709C68.7438 66.7387 68.8001 66.7349 68.86 66.731C68.8632 66.7308 68.8663 66.7306 68.8695 66.7304C69.0048 66.7289 69.0885 66.7301 69.1983 66.7316C69.3939 66.7342 69.6728 66.738 70.4761 66.7304C70.6228 66.7224 70.6546 66.6114 70.6546 66.4924V56.3453C70.6546 56.1311 70.5157 56.1073 70.4166 56.1073C70.1083 56.1044 69.4673 56.1058 69.0103 56.1067L69 56.1067C68.8322 56.107 68.6902 56.1073 68.5998 56.1073C68.4808 56.1113 68.3975 56.1589 68.3935 56.3136V62.47C68.3935 62.597 68.2745 62.593 68.2428 62.5573C67.4403 61.527 66.6711 60.5105 65.9027 59.4949C65.0792 58.407 64.257 57.3201 63.3953 56.2184C63.3239 56.1192 63.193 56.0994 63.1256 56.0994C62.5977 56.1067 62.1465 56.1039 61.5607 56.1004H61.5602Z" fill="white"/>
<path d="M73.0626 56.0993H78.4495C78.6962 56.1008 78.9469 56.0983 79.2051 56.0957H79.2055C79.6236 56.0915 80.0612 56.087 80.532 56.0993C80.6629 56.0953 80.8018 56.1747 80.8018 56.3373V57.9438C80.8018 58.0811 80.7145 58.0816 80.6423 58.082C80.6102 58.0822 80.5808 58.0824 80.5638 58.0946C78.6518 58.0906 77.2555 58.0906 75.4149 58.0946C75.1888 58.0906 75.0896 58.2731 75.0896 58.4199V60.0859C75.0896 60.2803 75.2165 60.4112 75.3871 60.4112C75.896 60.4075 76.3748 60.4034 76.8425 60.3994H76.8445C77.8735 60.3906 78.8481 60.3822 79.9688 60.3795C80.0759 60.3795 80.1473 60.431 80.1473 60.5302C80.1592 60.9705 80.1592 61.7282 80.1473 62.1645C80.1445 62.3174 80.0445 62.3534 79.9846 62.3749C79.9592 62.3841 79.941 62.3907 79.941 62.4025C79.4606 62.3971 78.0881 62.3991 76.8528 62.4009H76.8469C76.2792 62.4018 75.7409 62.4025 75.3316 62.4025C75.2046 62.4025 75.0936 62.5136 75.0936 62.6405C75.0987 63.0416 75.0971 63.4463 75.0952 63.8439V63.8458C75.0944 64.0412 75.0936 64.2349 75.0936 64.4256C75.0975 64.5644 75.1689 64.7231 75.4188 64.7231C76.3197 64.7203 77.9679 64.7215 79.3015 64.7224H79.3039C79.866 64.7228 80.3718 64.7231 80.7423 64.7231C80.8176 64.7231 80.893 64.7826 80.893 64.8738C80.893 64.9674 80.8942 65.0994 80.8958 65.2523V65.2525C80.8994 65.644 80.9045 66.172 80.893 66.5399C80.889 66.643 80.77 66.7224 80.7145 66.7184H73.0665C72.9753 66.7184 72.888 66.6986 72.888 66.5399C72.892 65.2775 72.89 63.3458 72.888 61.413V61.4089C72.886 59.4744 72.8841 57.5394 72.888 56.2738C72.9039 56.1826 72.9436 56.0914 73.0626 56.0993Z" fill="white"/>
<path d="M97.33 56.0968C97.2848 56.0977 97.2391 56.0985 97.1923 56.0994C97.0059 56.0677 96.8036 56.1074 96.8115 56.4326C96.8115 57.3946 96.8036 58.9148 96.7957 60.4351C96.7877 61.9554 96.7798 63.4757 96.7798 64.4376C96.7925 64.8328 96.7949 65.1946 96.7976 65.5578C96.8 65.88 96.802 66.2032 96.8115 66.5519C96.8115 66.5955 96.8512 66.7661 97.0178 66.7582C97.5573 66.7344 98.5609 66.7225 98.8901 66.7264C99.1242 66.7423 99.1281 66.6035 99.1281 66.4567C99.1162 64.2115 99.0964 58.2415 99.0964 56.3692C99.0964 56.1907 99.0766 56.0875 98.7989 56.0994C98.3328 56.0774 97.8901 56.086 97.33 56.0968Z" fill="white"/>
<path d="M101.357 56.0953H103.5C103.638 56.0953 103.757 56.139 103.825 56.2461C104.104 56.664 104.613 57.4408 105.064 58.1309L105.066 58.1327C105.415 58.6668 105.731 59.1487 105.88 59.3719C105.975 59.5226 106.102 59.5226 106.205 59.3402C106.322 59.1674 106.484 58.9269 106.667 58.654L106.668 58.6528C107.229 57.8166 107.995 56.6766 108.315 56.2461C108.424 56.0988 108.505 56.0972 108.563 56.0961C108.571 56.096 108.578 56.0958 108.585 56.0953H110.695C110.775 56.0953 110.834 56.2223 110.783 56.3016C110.49 56.7319 110.203 57.1511 109.916 57.5687C109.543 58.1135 109.171 58.6558 108.791 59.2172C108.601 59.4824 108.322 59.8848 108.058 60.2646L108.057 60.2667C107.832 60.5906 107.619 60.898 107.482 61.0895C107.387 61.2204 107.399 61.3751 107.514 61.506C107.96 62.1645 108.399 62.7794 108.839 63.3942V63.3943C109.278 64.0091 109.717 64.624 110.164 65.2824C110.241 65.401 110.359 65.5914 110.479 65.7841C110.643 66.0492 110.811 66.3188 110.878 66.413C110.989 66.5439 110.993 66.7025 110.878 66.7105H108.617C108.478 66.7065 108.422 66.6748 108.351 66.5954C108.038 66.2526 107.477 65.3744 106.947 64.5437V64.5433C106.631 64.0479 106.325 63.5695 106.09 63.2316C106.018 63.1324 105.939 63.1404 105.884 63.2316C105.469 63.8417 105.049 64.4885 104.677 65.0603C104.326 65.6002 104.019 66.0731 103.801 66.3852L103.798 66.3898C103.645 66.6094 103.542 66.758 103.293 66.7422C103.137 66.7333 102.632 66.7282 102.149 66.7232H102.148H102.148C101.771 66.7194 101.409 66.7157 101.238 66.7105C101.041 66.7266 101.113 66.5847 101.142 66.5273C101.148 66.5143 101.153 66.5057 101.151 66.5042L101.315 66.2676V66.2674L101.316 66.267V66.2666C102.105 65.1297 102.834 64.0782 103.65 62.8428C103.857 62.5334 104.368 61.7797 104.578 61.514C104.67 61.395 104.642 61.2363 104.555 61.1094C104.139 60.5016 103.738 59.9143 103.341 59.3338L103.339 59.3314V59.3312L103.338 59.3287L103.336 59.3264C102.642 58.3106 101.963 57.3159 101.242 56.2699C101.171 56.1786 101.262 56.1072 101.357 56.0953Z" fill="white"/>
<path d="M84.1892 66.7187C85.653 66.3736 85.3753 64.1125 83.8322 64.2196C83.3165 64.2672 82.9833 64.5489 82.7929 64.8424C82.2772 65.6397 83.0309 66.9884 84.1892 66.7187Z" fill="white"/>
<path fill-rule="evenodd" clip-rule="evenodd" d="M51.9988 56.1589C53.407 55.7503 59.3453 55.3219 59.496 61.6331C59.5714 64.743 56.7272 66.778 54.2321 66.9287C50.4755 67.1548 47.1196 63.6522 48.4604 59.6417C49.0276 57.94 50.3169 56.7618 51.9988 56.1589ZM50.8365 60.1772C50.0392 62.355 51.729 65.0405 53.9623 64.7867C58.2346 64.2987 58.0442 58.0193 53.6609 58.0669C52.9111 58.0114 51.372 58.7095 50.8365 60.1772Z" fill="white"/>
</g>
</g>
<defs>
<clipPath id="clip0_307_2927">
<rect width="135" height="120" fill="white"/>
</clipPath>
<clipPath id="clip1_307_2927">
<rect width="86" height="29.7113" fill="white" transform="translate(25 45)"/>
</clipPath>
</defs>
</svg>
