<svg width="135" height="120" viewBox="0 0 135 120" fill="none" xmlns="http://www.w3.org/2000/svg">
<rect width="135" height="120" rx="3" fill="#01B8B4"/>
<path fill-rule="evenodd" clip-rule="evenodd" d="M107.101 53.6193C108.585 51.4435 108.902 49.7227 108.533 48.4154C108.163 47.1081 106.994 45.807 104.591 44.7287C102.2 43.6562 98.8523 42.9345 94.7081 42.6642C86.4387 42.1249 75.4518 43.4101 63.7491 46.7141C52.0464 50.018 42.0095 54.6684 35.2431 59.4527C31.8521 61.8504 29.3757 64.2164 27.8993 66.3806C26.415 68.5564 26.0983 70.2772 26.4674 71.5845C26.8365 72.8918 28.0064 74.1929 30.4093 75.2712C32.7995 76.3438 36.1477 77.0654 40.2919 77.3357C48.5613 77.875 59.5482 76.5898 71.2509 73.2858C82.9536 69.9819 92.9905 65.3315 99.7569 60.5472C103.148 58.1495 105.624 55.7835 107.101 53.6193ZM71.794 75.2093C95.5179 68.5114 112.828 56.2723 110.456 47.8724C108.085 39.4725 86.93 38.0928 63.206 44.7906C39.4821 51.4885 22.1725 63.7277 24.544 72.1275C26.9155 80.5274 48.07 81.9072 71.794 75.2093Z" fill="white"/>
<path d="M26.6683 61.2621C26.6683 63.8486 27.1768 65.7625 28.1938 67.0037C29.2108 68.2369 30.46 68.8535 31.9415 68.8535C33.3909 68.8535 34.6281 68.2529 35.6531 67.0518C36.6861 65.8426 37.2026 63.9127 37.2026 61.2621C37.2026 58.5795 36.6821 56.6416 35.6411 55.4484C34.6001 54.2552 33.3669 53.6586 31.9415 53.6586C30.468 53.6586 29.2188 54.2793 28.1938 55.5205C27.1768 56.7537 26.6683 58.6676 26.6683 61.2621ZM23.8816 61.2621C23.8816 58.6355 24.7064 56.5295 26.356 54.9439C27.8695 53.4945 29.7313 52.7698 31.9415 52.7698C34.1597 52.7698 36.0255 53.4985 37.539 54.9559C39.1806 56.5335 40.0014 58.6355 40.0014 61.2621C40.0014 63.9287 39.1525 66.0508 37.4549 67.6283C35.9334 69.0377 34.0956 69.7424 31.9415 69.7424C29.6352 69.7424 27.7214 68.9616 26.1999 67.4001C24.6543 65.8065 23.8816 63.7605 23.8816 61.2621Z" fill="white"/>
<path d="M45.8151 60.9738C47.5848 60.9097 48.85 60.7256 49.6108 60.4213C50.9161 59.8847 51.5687 58.8758 51.5687 57.3943C51.5687 55.9689 50.9841 54.996 49.815 54.4754C49.1904 54.1952 48.3616 54.055 47.3285 54.055C46.6319 54.055 46.2034 54.1071 46.0433 54.2112C45.8911 54.3073 45.8151 54.5395 45.8151 54.9079V60.9738ZM41.2026 68.9496C42.1475 68.8615 42.7361 68.6774 42.9683 68.3971C43.2005 68.1168 43.3166 67.4642 43.3166 66.4392V55.7847C43.3166 54.9199 43.1845 54.3553 42.9202 54.0911C42.664 53.8188 42.0914 53.6466 41.2026 53.5746V53.1181H48.0132C49.4306 53.1181 50.6118 53.2983 51.5567 53.6586C53.3504 54.3393 54.2473 55.5925 54.2473 57.4183C54.2473 58.6435 53.8469 59.5844 53.0461 60.2411C52.2534 60.8977 51.1723 61.3302 49.803 61.5384L54.8719 67.7725C55.1842 68.1568 55.4965 68.4371 55.8088 68.6133C56.1212 68.7895 56.5215 68.9016 57.01 68.9496V69.3941H53.0461L47.1844 61.8266L45.8151 61.8867V66.7274C45.8151 67.6403 45.9512 68.2209 46.2235 68.4691C46.5037 68.7094 47.1083 68.8695 48.0372 68.9496V69.3941H41.2026V68.9496Z" fill="white"/>
<path d="M57.7307 68.9496C58.7317 68.8775 59.3803 68.7294 59.6766 68.5052C59.9729 68.273 60.1211 67.6804 60.1211 66.7274V55.7847C60.1211 54.8798 59.9729 54.2993 59.6766 54.043C59.3803 53.7788 58.7317 53.6226 57.7307 53.5746V53.1181H65.0099V53.5746C64.0089 53.6226 63.3602 53.7788 63.064 54.043C62.7677 54.2993 62.6195 54.8798 62.6195 55.7847V66.7274C62.6195 67.6804 62.7677 68.273 63.064 68.5052C63.3602 68.7294 64.0089 68.8775 65.0099 68.9496V69.3941H57.7307V68.9496Z" fill="white"/>
<path d="M66.0068 53.1181H79.9044L80.0366 57.2982H79.448C79.1597 55.9849 78.7914 55.1321 78.3429 54.7397C77.9025 54.3393 76.9696 54.1391 75.5442 54.1391H74.1748V66.7274C74.1748 67.6804 74.323 68.273 74.6193 68.5052C74.9156 68.7294 75.5642 68.8775 76.5652 68.9496V69.3941H69.3941V68.9496C70.4352 68.8695 71.0838 68.6974 71.34 68.4331C71.5963 68.1689 71.7244 67.5042 71.7244 66.4392V54.1391H70.3551C68.9938 54.1391 68.0648 54.3353 67.5684 54.7277C67.0799 55.1201 66.7115 55.9769 66.4633 57.2982H65.8627L66.0068 53.1181Z" fill="white"/>
<path d="M82.1506 64.4452C82.567 65.5503 83.0555 66.4312 83.6161 67.0878C84.593 68.2329 85.8062 68.8055 87.2556 68.8055C88.0404 68.8055 88.7171 68.5572 89.2856 68.0607C89.8622 67.5643 90.1505 66.8716 90.1505 65.9827C90.1505 65.1819 89.8622 64.4852 89.2856 63.8927C88.9093 63.5163 88.1165 62.9517 86.9073 62.199L84.8052 60.8897C84.1726 60.4893 83.6681 60.0849 83.2918 59.6765C82.5951 58.8998 82.2467 58.0429 82.2467 57.106C82.2467 55.8648 82.6591 54.8318 83.4839 54.007C84.3088 53.1822 85.4018 52.7698 86.7632 52.7698C87.3237 52.7698 87.9964 52.9099 88.7811 53.1902C89.5739 53.4625 90.0263 53.5986 90.1385 53.5986C90.4428 53.5986 90.651 53.5265 90.7631 53.3824C90.8832 53.2382 90.9753 53.034 91.0393 52.7698H91.5438L92.0844 58.0069H91.4958C91.0954 56.4294 90.4508 55.3283 89.5619 54.7037C88.681 54.0791 87.8082 53.7668 86.9433 53.7668C86.2707 53.7668 85.6821 53.9669 85.1776 54.3673C84.6811 54.7597 84.4329 55.3083 84.4329 56.013C84.4329 56.6456 84.6251 57.1861 85.0094 57.6345C85.3938 58.091 85.9904 58.5675 86.7992 59.0639L88.9613 60.3972C90.3146 61.2301 91.2676 61.9948 91.8201 62.6915C92.3646 63.3962 92.6369 64.229 92.6369 65.1899C92.6369 66.4792 92.1484 67.5563 91.1715 68.4211C90.2025 69.2859 88.9613 69.7184 87.4478 69.7184C86.6871 69.7184 85.8903 69.5742 85.0575 69.2859C84.2327 68.9977 83.7602 68.8535 83.6401 68.8535C83.3518 68.8535 83.1556 68.9416 83.0515 69.1178C82.9554 69.294 82.8914 69.4821 82.8593 69.6823H82.3188L81.5861 64.4452H82.1506Z" fill="white"/>
<path d="M97.7779 61.2621C97.7779 63.8486 98.2864 65.7625 99.3034 67.0037C100.32 68.2369 101.57 68.8535 103.051 68.8535C104.501 68.8535 105.738 68.2529 106.763 67.0518C107.796 65.8426 108.312 63.9127 108.312 61.2621C108.312 58.5795 107.792 56.6416 106.751 55.4484C105.71 54.2552 104.477 53.6586 103.051 53.6586C101.578 53.6586 100.328 54.2793 99.3034 55.5205C98.2864 56.7537 97.7779 58.6676 97.7779 61.2621ZM94.9912 61.2621C94.9912 58.6355 95.816 56.5295 97.4656 54.9439C98.9791 53.4945 100.841 52.7698 103.051 52.7698C105.269 52.7698 107.135 53.4985 108.649 54.9559C110.29 56.5335 111.111 58.6355 111.111 61.2621C111.111 63.9287 110.262 66.0508 108.564 67.6283C107.043 69.0377 105.205 69.7424 103.051 69.7424C100.745 69.7424 98.831 68.9616 97.3095 67.4001C95.764 65.8065 94.9912 63.7605 94.9912 61.2621Z" fill="white"/>
</svg>
