<svg width="135" height="120" viewBox="0 0 135 120" fill="none" xmlns="http://www.w3.org/2000/svg">
<rect width="135" height="120" rx="3" fill="#EBA52D"/>
<g clip-path="url(#clip0_61_1890)">
<path d="M118.445 46.4048C118.367 46.7011 117.903 47.8611 117.22 48.1791C116.326 48.5961 114.792 48.9514 113.258 49.2272C111.767 53.3358 109.127 58.5709 107.1 62.2656C109.137 62.2092 111.267 62.1843 112.556 61.9766C112.343 63.1259 111.65 63.7904 111.184 64.0386C110.303 64.5077 107.915 64.6956 105.587 65.0363C105.394 65.3286 105.248 65.536 105.178 65.6175C104.714 65.67 103.648 65.2144 101.683 65.9567C101.683 65.9567 100.388 63.7254 101.958 62.8533C102.428 62.5924 103.412 62.4542 104.619 62.3715C106.185 58.6181 108.51 53.031 109.896 49.7275C109.201 49.8117 108.701 49.8598 108.551 49.8671C107.143 49.9362 106.647 48.8234 106.735 47.0988C106.735 47.0988 116.789 46.6348 118.445 46.4048ZM41.0144 60.8409C41.1278 60.2256 41.4937 59.5818 42.2018 59.0779C43.3302 58.2751 44.3722 58.4044 44.3722 58.4044C44.1765 59.108 43.2489 60.315 41.0144 60.8409ZM53.6281 53.8201C53.6281 53.8201 53.3972 58.0093 49.9524 61.6485C50.3162 60.0059 50.5713 58.2466 50.5402 57.4689C50.5025 56.5269 49.7245 56.1908 47.8209 56.6314C47.7032 57.2353 47.5778 58.6289 47.5212 59.8841C46.0249 62.4658 42.9209 63.0938 41.7419 62.6913C45.4135 61.3628 46.0732 59.0919 46.0911 58.5147C46.1027 58.1307 46.0836 57.5752 45.8793 57.0957C45.8059 56.9238 45.3234 56.7392 44.9282 56.7003C43.8936 56.5981 41.974 56.8227 40.3143 58.1165C39.128 59.0413 38.4624 60.1678 38.2614 61.2395C37.0394 61.3461 36.0419 61.3674 36.0419 61.3674C36.016 62.6707 36.5811 63.6927 37.5077 63.6927C37.8183 63.6927 38.2015 63.6496 38.6408 63.5688C39.2013 64.4812 40.2779 65.076 41.7977 65.0007C44.8104 64.8515 46.6113 63.0411 47.4804 61.8439C47.4896 63.0033 47.57 63.9212 47.7536 64.1047C48.0287 64.3798 48.4122 64.6481 48.8862 64.6421C49.9536 64.628 54.6646 59.71 55.6184 56.2728C56.1308 54.4255 53.6281 53.8201 53.6281 53.8201ZM59.3157 60.1517C58.5119 61.5209 57.1937 62.0764 57.1937 62.0764C57.1937 62.0764 56.9448 60.8771 57.8933 59.2849C58.5031 58.2617 59.3803 57.6021 59.9625 57.2691C60.0589 57.9631 60.0028 58.9807 59.3157 60.1517ZM71.0548 49.0314C70.8929 51.3468 68.9109 55.0583 66.5873 56.7872C66.9268 55.9607 69.053 50.57 71.0548 49.0314ZM76.1054 60.2699C74.8364 61.1309 73.3777 61.2286 73.135 61.2286C73.125 60.1143 73.3036 58.809 74.3743 56.7876C76.9687 56.4099 78.985 55.9075 79.5151 55.5051C80.0974 55.0631 80.2701 54.3008 80.4133 53.8681C79.6294 53.9316 77.7626 53.9786 75.9167 54.0597C76.8226 52.5444 77.5793 51.3257 77.54 50.8968C77.4501 49.9151 75.2342 49.3868 75.2342 49.3868C74.5728 50.5481 73.7344 52.4126 72.9641 54.2437C72.2298 54.3129 71.6607 54.3983 71.4018 54.5065C71.4018 54.5065 71.0081 56.0963 71.9453 56.7166C70.0014 59.8133 67.3953 61.4501 65.2616 61.5763C65.2822 60.9991 65.3891 60.263 65.7505 59.098C70.4607 57.7822 73.41 50.1031 72.7316 48.3036C72.5216 47.7468 71.1532 47.2755 70.7121 47.3537C67.0229 48.0086 64.3551 55.8103 63.6774 57.7549C62.3207 57.6652 62.2894 56.1456 62.016 55.9137C61.6954 55.6415 60.7538 55.7172 60.5295 55.7558C60.3086 55.3963 59.9973 55.1003 59.7824 55.1009C58.5397 55.1048 56.8575 55.9793 55.4465 58.6574C54.2449 60.9381 54.7149 63.0938 54.9946 63.4401C55.293 63.8094 55.9212 64.1688 56.5065 64.267C56.9426 64.3402 59.1841 64.0242 60.8161 61.6966C61.5142 60.7007 61.9947 59.6979 62.2344 58.7656C62.4911 58.9885 63.0097 59.1309 63.2515 59.1675C62.891 60.5465 62.6525 62.1075 63.0621 62.9038C63.2685 63.3049 64.3694 63.8839 65.0847 63.8169C67.6939 63.5719 69.6528 61.6762 70.8849 59.9873C70.6905 61.0393 70.6741 62.0404 70.9677 62.5451C71.2044 62.9515 72.164 63.5248 72.9905 63.4798C74.1076 63.4189 75.214 62.7288 75.6245 62.0273C75.8236 61.6867 76.0279 60.9817 76.1054 60.2699ZM30.5964 54.3565C33.9132 53.5669 37.5861 52.9635 40.7301 53.2491C38.2706 55.1044 33.0408 57.6368 28.1024 59.8427C29.0168 57.922 29.8942 56.0119 30.5964 54.3565ZM26.4301 63.291C32.6015 60.6917 42.8907 55.9133 43.6321 53.396C43.6966 53.177 43.5792 51.9566 43.3801 51.6069C42.8077 50.6012 37.9478 50.4378 31.7124 51.4437C31.7435 50.7013 29.6724 50.1405 29.1867 50.2598C29.0766 50.4992 28.7926 51.1466 28.3893 52.075C23.3708 53.1482 19.4293 54.5028 19.4293 54.5028C19.4293 54.5028 19.76 57.1405 21.659 56.8041C22.5991 56.6376 24.5522 56 26.9942 55.3048C26.198 57.1551 25.2704 59.3208 24.3485 61.4857C20.4952 63.1414 17.4142 64.38 16.9335 64.6018C16.5727 64.7682 16.5 64.8563 16.5 65.0435C16.5 65.1134 16.609 66.7472 17.1564 66.9738C17.7351 67.2132 19.5622 67.3044 21.8623 67.3631C21.0344 69.3385 20.3581 70.9779 19.9953 71.9081C19.7084 72.6441 20.7185 73.54 21.0689 73.5917C21.2842 73.3401 23.5206 69.0754 24.3602 67.4244C34.1159 67.7393 45.1406 69.4929 47.0184 69.4929C48.9695 69.4929 50.2001 68.0384 50.2001 68.0384C42.5057 65.9101 30.8832 65.0606 25.6953 64.7734C25.9346 64.2931 26.1805 63.7974 26.4301 63.291ZM80.9726 61.1647C80.9173 62.3092 80.3723 62.8518 79.4314 63.0901C78.4907 63.3284 77.6597 63.1991 77.5659 62.0278C77.5071 61.2923 78.0782 60.3445 78.0782 60.3445C78.0782 60.3445 78.7058 60.1855 79.2812 60.1063C80.2568 59.972 81.0226 60.1402 80.9726 61.1647ZM85.7813 63.7021C86.589 62.1125 87.5818 60.1289 88.5803 58.0686C92.3988 57.6473 98.0643 57.4062 101.228 57.9303C97.2483 60.3775 91.0738 62.3358 85.7813 63.7021ZM91.8357 50.9895C96.7113 50.1167 99.3092 50.3006 99.3092 50.3006C98.3007 51.2352 94.3296 52.5754 90.5945 53.8013C91.0436 52.8177 91.4643 51.8684 91.8357 50.9895ZM103.943 58.2895C104.129 57.7358 103.832 56.501 103.651 56.319C102.751 55.4165 98.1473 55.0461 93.8031 55.292C100.819 53.0406 102.46 51.1078 102.618 50.8224C102.775 50.5372 102.648 48.9372 102.305 48.5202C101.796 47.9014 97.8504 47.6464 92.91 48.2039C92.9302 47.4268 90.8734 46.926 90.4038 46.9417C90.2981 47.1721 90.0292 47.7863 89.6467 48.6692C85.0982 49.4447 82.0164 50.4815 82.0164 50.4815C82.465 52.9706 83.7366 52.97 84.2568 52.8152C85.7154 52.3811 87.0731 52.0218 88.3306 51.7228C87.8955 52.7354 87.4176 53.8512 86.9193 55.0161C85.5008 55.4988 84.349 55.9227 83.7479 56.2419C83.7499 57.6815 84.4542 58.5278 85.4073 58.5587C84.5326 60.6115 83.6675 62.6494 82.9263 64.4053C78.7094 65.3966 75.592 65.9265 75.592 65.9265C75.592 65.9265 76.3579 68.6012 78.8089 68.2578C90.4878 66.6225 103.054 60.9425 103.943 58.2895Z" fill="white"/>
</g>
<defs>
<clipPath id="clip0_61_1890">
<rect width="102" height="27.1904" fill="white" transform="translate(16.5 46.4048)"/>
</clipPath>
</defs>
</svg>
