<svg width="151" height="150" viewBox="0 0 151 150" fill="none" xmlns="http://www.w3.org/2000/svg">
<rect width="150" height="150" transform="translate(0.881836)" fill="#003863"/>
<g clip-path="url(#clip0_1204_226)">
<path d="M13.3088 59.7646H70.0002L76.0945 65.859V66.0479V86.8348H137.085V66.6621L133.353 62.9299H77.6535L74.4882 59.7646H134.014H134.676L135.148 60.2371L139.825 64.9141L140.297 65.3865V66.0479V88.441V90.0001H138.738H17.9858H17.3244L16.852 89.5276L12.2222 84.8506L11.7498 84.3782V83.7168V61.3709V59.7646H13.3088ZM88.0469 76.2996L88.85 76.9138C88.4721 77.6224 87.9997 78.1421 87.3383 78.5201C86.7241 78.898 85.9682 79.087 85.1651 79.087C83.984 79.087 82.9919 78.709 82.1888 77.9059C81.3857 77.1028 81.0077 76.1107 81.0077 74.8824C81.0077 73.654 81.3857 72.6619 82.1888 71.8588C82.9919 71.0557 83.984 70.6777 85.1651 70.6777C85.921 70.6777 86.5824 70.8195 87.1965 71.1502C87.8107 71.4809 88.2831 71.9533 88.6611 72.5202L87.8107 73.1344C87.5745 72.6619 87.1965 72.284 86.7241 72.0005C86.2517 71.7171 85.732 71.5754 85.1179 71.5754C84.2203 71.5754 83.4644 71.9061 82.8975 72.5202C82.2833 73.1344 81.9998 73.9375 81.9998 74.8824C81.9998 75.8272 82.2833 76.6303 82.8975 77.2445C83.5116 77.8587 84.2203 78.1894 85.1179 78.1894C85.732 78.1894 86.2989 78.0476 86.7714 77.7169C87.291 77.3862 87.7162 76.9138 88.0469 76.2996ZM94.4719 78.898V74.8824L90.8815 70.8667H92.1098L94.9916 74.032L97.8262 70.8667H99.1017L95.464 74.8824V78.898H94.4719ZM102.739 74.032H106.566C106.991 74.032 107.322 73.9375 107.511 73.7485C107.747 73.5596 107.842 73.2761 107.842 72.8982C107.842 72.5202 107.747 72.2368 107.511 72.0478C107.275 71.8588 106.991 71.7643 106.519 71.7643H102.692V74.032H102.739ZM102.739 77.9531H106.944C107.416 77.9531 107.747 77.8114 108.031 77.528C108.314 77.2445 108.409 76.8666 108.409 76.4414C108.409 75.9689 108.267 75.591 108.031 75.3548C107.747 75.0713 107.416 74.9296 106.944 74.9296H102.739V77.9531ZM101.747 78.898V70.8667H106.472C107.275 70.8667 107.842 71.0557 108.267 71.3864C108.692 71.7171 108.881 72.2368 108.881 72.8982C108.881 73.2289 108.834 73.5123 108.692 73.7485C108.55 73.9847 108.409 74.221 108.172 74.3627C108.598 74.5989 108.928 74.9296 109.117 75.2603C109.353 75.6382 109.448 76.0162 109.448 76.4886C109.448 77.2445 109.212 77.8114 108.739 78.2366C108.267 78.6618 107.605 78.898 106.755 78.898H101.747ZM113.605 78.898V70.8667H119.936V71.8116H114.645V74.1737H117.857V75.1186H114.645V78.0476H120.267V78.9925H113.605V78.898ZM124.849 74.4099H128.392C128.912 74.4099 129.29 74.3154 129.526 74.0792C129.762 73.843 129.904 73.5123 129.904 73.0871C129.904 72.6619 129.762 72.3312 129.526 72.095C129.29 71.8588 128.912 71.7643 128.44 71.7643H124.849V74.4099ZM123.857 78.898V70.8667H128.44C129.243 70.8667 129.857 71.0557 130.282 71.4809C130.707 71.8588 130.943 72.4257 130.943 73.1344C130.943 73.7013 130.754 74.221 130.424 74.6461C130.093 75.0713 129.621 75.3075 129.054 75.402L131.038 78.9452H129.951L127.967 75.3548H124.849V78.898H123.857ZM63.9058 78.898V79.2759H64.2838H70.5198H70.8978V78.898V77.9531V77.5752H70.5198H65.6538V70.8195V70.4415H65.2759H64.2838H63.9058V70.8195V78.898ZM51.8589 78.709L51.5755 79.2759H52.1896H53.2762H53.5124L53.6069 79.0397L54.5518 77.1028H58.5202L59.5123 79.0397L59.6067 79.2759H59.843H60.9295H61.5437L61.2602 78.709L57.2918 70.6777L57.1974 70.4415H56.9611H56.1108H55.8746L55.7801 70.6777L51.8589 78.709ZM55.4021 75.402L56.536 73.0871L57.6698 75.402H55.4021ZM46.048 78.898V79.2759H46.426H47.4181H47.796V78.898V75.0241L51.3392 71.1029L51.9062 70.4415H51.0558H49.7802H49.5913L49.4968 70.5833L46.9457 73.4651L44.3473 70.5833L44.2528 70.4415H44.0639H42.8355H41.9852L42.5521 71.1029L46.048 75.0241V78.898ZM36.694 79.4649C37.3554 79.4649 37.9223 79.3704 38.4892 79.1342C39.0561 78.898 39.5285 78.5673 39.9537 78.1421C40.3789 77.7169 40.7096 77.1973 40.9458 76.6776C41.182 76.1107 41.2765 75.5438 41.2765 74.8824C41.2765 74.221 41.182 73.6068 40.9458 73.0871C40.7096 72.5202 40.4262 72.0478 39.9537 71.6226C39.5285 71.1974 39.0089 70.8667 38.4892 70.6305C37.9223 70.3943 37.3554 70.2998 36.694 70.2998C36.0326 70.2998 35.4657 70.3943 34.8987 70.6305C34.3318 70.8667 33.8594 71.1974 33.4342 71.6226C33.009 72.0478 32.6783 72.5675 32.4421 73.0871C32.2059 73.654 32.1114 74.2682 32.1114 74.8824C32.1114 75.5438 32.2059 76.1579 32.4421 76.6776C32.6783 77.2445 32.9618 77.7169 33.387 78.1421C33.8122 78.5673 34.2846 78.898 34.8515 79.1342C35.4657 79.3704 36.0326 79.4649 36.694 79.4649ZM36.694 77.7642C36.316 77.7642 35.9381 77.7169 35.6074 77.5752C35.2767 77.4335 34.9932 77.2445 34.757 76.961C34.5208 76.6776 34.2846 76.3941 34.1901 76.0634C34.0011 75.6855 33.9539 75.3075 33.9539 74.8824C33.9539 74.4572 34.0011 74.0792 34.1429 73.7013C34.2846 73.3706 34.4736 73.0399 34.7098 72.7564C34.946 72.473 35.2767 72.284 35.5601 72.1423C35.8908 72.0005 36.2688 71.9533 36.6467 71.9533C37.0719 71.9533 37.4026 72.0005 37.7333 72.1423C38.064 72.284 38.3475 72.473 38.5837 72.7564C38.8199 73.0399 39.0561 73.3233 39.1506 73.7013C39.2923 74.032 39.3396 74.4572 39.3396 74.8824C39.3396 75.3075 39.2923 75.6855 39.1506 76.0634C39.0089 76.3941 38.8199 76.7248 38.5837 76.961C38.3475 77.2445 38.0168 77.4335 37.7333 77.5752C37.4499 77.7169 37.0719 77.7642 36.694 77.7642ZM21.6707 78.898V79.2759H22.0487H23.088H23.466V78.898V75.78H25.9698L27.8596 79.087L27.954 79.2759H28.1903H29.2768H29.9382L29.6075 78.709L27.8596 75.591C28.0013 75.5438 28.0958 75.4965 28.2375 75.402C28.521 75.2603 28.7572 75.0713 28.9461 74.7879C29.3713 74.3154 29.5603 73.7013 29.5603 73.0399C29.5603 72.6619 29.5131 72.284 29.3713 71.9533C29.2296 71.6226 29.0406 71.3391 28.7572 71.1029C28.4737 70.8667 28.1903 70.6777 27.8123 70.5833C27.4816 70.4888 27.0564 70.3943 26.6312 70.3943H22.0487H21.6707V70.7722V78.898ZM23.466 74.032V72.1423H26.6785C26.8675 72.1423 27.0564 72.1423 27.1982 72.1895C27.3399 72.2368 27.4344 72.284 27.5289 72.3785C27.6233 72.473 27.6706 72.5675 27.7178 72.6619C27.7651 72.7564 27.7651 72.8982 27.7651 73.0871C27.7651 73.2761 27.7651 73.4178 27.7178 73.5123C27.6706 73.6068 27.6233 73.7013 27.5289 73.7485C27.3399 73.8903 27.0564 73.9847 26.6312 73.9847H23.466V74.032Z" fill="white"/>
</g>
<defs>
<clipPath id="clip0_1204_226">
<rect width="128.501" height="30.2354" fill="white" transform="translate(11.7498 59.7646)"/>
</clipPath>
</defs>
</svg>
