<svg width="135" height="120" viewBox="0 0 135 120" fill="none" xmlns="http://www.w3.org/2000/svg">
<rect width="135" height="120" rx="3" fill="#BE2D28"/>
<g clip-path="url(#clip0_61_1910)">
<path d="M49.3626 56.3987L44.5952 64.2772H45.9296L47.4721 61.7312H51.6053L53.1337 64.2772H54.3681L49.7667 56.3987H49.3666H49.3626ZM48.0282 60.8107L49.5447 58.3062L51.0491 60.8107H48.0282ZM100.044 56.3987L95.2762 64.2772H96.6106L98.1531 61.7312H102.286L103.815 64.2772H105.049L100.448 56.3987H100.048H100.044ZM98.7092 60.8107L100.226 58.3062L101.73 60.8107H98.7092ZM67.412 56.3987L63.5668 62.631L59.7217 56.3987H59.3096L57.9212 64.2772H59.0775L59.9898 58.8514L63.4128 64.2772H63.7249L67.1479 58.8514L68.0602 64.2772H69.2165L67.8281 56.3987H67.416H67.412ZM91.6051 58.5404C91.6051 56.0877 88.4122 56.3987 87.908 56.3987H85.4073V64.2772H86.4916V60.6821H86.9017L90.4688 64.2772H91.9612L88.4242 60.6946C89.4805 60.7029 91.6091 60.5432 91.6091 58.5404H91.6051ZM86.4896 59.689V57.3649H88.1561C90.2127 57.3649 90.4208 58.0304 90.4388 58.5404C90.4208 59.0505 90.2627 59.689 88.2061 59.689H86.4896ZM108.946 64.2751H110.113V56.3987H108.946V64.2772V64.2751ZM121.5 56.3967H114.748V57.3566H119.463L114.148 64.2751H121.072V63.3152H116.214L121.5 56.3967ZM79.1815 61.6379C79.1815 61.6379 79.2475 63.4769 77.0088 63.4769C74.7702 63.4769 74.8362 61.6379 74.8362 61.6379V56.3987H73.6698V61.64C73.6698 62.7492 74.14 64.4596 77.0088 64.4596C79.8777 64.4596 80.3478 62.7492 80.3478 61.64V56.3987H79.1815V61.64V61.6379ZM38.6174 59.6559C36.987 58.6959 36.8749 58.5549 36.8749 58.0304C36.8749 57.7194 37.167 57.1824 38.0833 57.1824C39.2256 57.1824 39.8838 58.1589 39.8838 58.1589L40.8261 57.5453C40.8261 57.5453 39.8758 56.1665 38.1413 56.1665C36.4068 56.1665 35.6826 57.313 35.6826 58.0905C35.6826 59.2308 36.3468 59.6227 38.0593 60.6593C39.6597 61.6296 39.6938 61.953 39.6938 62.3573C39.6938 62.7616 39.1096 63.5059 38.1013 63.5059C37.093 63.5059 36.3008 62.745 36.0507 62.2371L35.0264 62.687C35.0264 62.687 36.0347 64.3892 38.0773 64.3892C40.586 64.3892 40.9281 62.6787 40.9281 62.3076C40.9281 61.8929 41.1162 61.13 38.6194 59.6579L38.6174 59.6559ZM20.9322 52.2273C16.827 52.2273 13.5 55.7063 13.5 60C13.5 64.2938 16.827 67.7727 20.9322 67.7727C25.0374 67.7727 28.3644 64.2938 28.3644 60C28.3644 55.7063 25.0354 52.2273 20.9322 52.2273ZM21.4784 60.6137C22.4607 61.8245 23.659 63.4106 23.3129 64.8639C23.1148 65.6953 22.1646 65.9089 21.1563 65.855C19.7879 65.7803 18.2354 65.1957 17.6212 64.8639C18.1514 64.9261 21.5784 65.3947 21.5564 62.4444C21.5484 61.3166 21.4083 60.8086 20.7682 59.9212C19.8179 58.6088 17.8413 56.4796 18.8236 54.8065C19.8399 53.0753 24.0911 55.0946 24.0911 55.0946C24.0911 55.0946 20.4241 54.398 20.268 57.3752C20.196 58.7457 20.7121 59.6683 21.4804 60.6116L21.4784 60.6137Z" fill="white"/>
</g>
<defs>
<clipPath id="clip0_61_1910">
<rect width="108" height="15.5455" fill="white" transform="translate(13.5 52.2273)"/>
</clipPath>
</defs>
</svg>
