<svg width="135" height="120" viewBox="0 0 135 120" fill="none" xmlns="http://www.w3.org/2000/svg">
<rect width="135" height="120" rx="3" fill="#494440"/>
<path d="M39.0394 58.0792C38.5287 57.6529 34.3353 56.4972 30.8495 55.6952C30.8227 58.3201 30.9876 61.1729 31.3435 61.6695C31.8534 62.0958 36.0493 63.2515 39.5351 64.0543C39.5619 61.4302 39.3978 58.5766 39.0394 58.0792Z" fill="white"/>
<path fill-rule="evenodd" clip-rule="evenodd" d="M35.206 46.875C27.7746 46.875 21.75 52.7521 21.75 60.0004C21.75 67.2487 27.7746 73.125 35.206 73.125C42.639 73.125 48.6628 67.2487 48.6628 60.0004C48.6628 52.7521 42.639 46.875 35.206 46.875ZM44.2768 64.8607C43.931 64.9783 41.8954 64.5969 39.535 64.0546C39.5115 66.3112 39.3457 68.4003 39.0393 68.6772C38.1835 68.9687 26.9624 66.2001 26.1058 65.4855C25.4435 64.5626 25.4435 55.4864 26.1075 54.8878C26.4533 54.771 28.488 55.1524 30.8493 55.6955C30.8728 53.4373 31.0377 51.3481 31.345 51.0721C32.2008 50.7813 43.4194 53.5484 44.2768 54.2622C44.9433 55.1891 44.9416 64.2645 44.2768 64.8607Z" fill="white"/>
<path fill-rule="evenodd" clip-rule="evenodd" d="M65.4846 58.7802C65.4846 54.2859 68.0862 52.5618 71.3635 52.5618C74.6417 52.5618 77.2424 54.2859 77.2424 58.7802V61.0858C77.2424 65.5802 74.6417 67.3043 71.3635 67.3043C68.0862 67.3043 65.4846 65.5802 65.4846 61.0858V58.7802ZM71.3635 64.3984C73.0323 64.3984 73.8261 63.4102 73.8261 61.0858V58.7802C73.8261 56.4559 73.0323 55.4685 71.3635 55.4685C69.6964 55.4685 68.921 56.4559 68.921 58.7802V61.0858C68.921 63.4102 69.6964 64.3984 71.3635 64.3984Z" fill="white"/>
<path d="M64.2934 52.7362H54.4421C54.2236 52.7362 54.0452 52.8906 54.0452 53.1045V55.099C54.0452 55.3129 54.2236 55.4681 54.4421 55.4681H57.6793V66.742C57.6793 66.956 57.8585 67.13 58.0762 67.13H60.6786C60.8963 67.13 61.0755 66.956 61.0755 66.742V55.4681H64.2934C64.5119 55.4681 64.7104 55.3129 64.7104 55.099V53.1045C64.7104 52.8906 64.5119 52.7362 64.2934 52.7362Z" fill="white"/>
<path d="M78.4136 52.7362H88.2649C88.4826 52.7362 88.6819 52.8906 88.6819 53.1045V55.099C88.6819 55.3129 88.4826 55.4681 88.2649 55.4681H85.047V66.742C85.047 66.956 84.8686 67.13 84.6501 67.13H82.0485C81.8299 67.13 81.6516 66.956 81.6516 66.742V55.4681H78.4136C78.1959 55.4681 78.0159 55.3129 78.0159 55.099V53.1045C78.0159 52.8906 78.1959 52.7362 78.4136 52.7362Z" fill="white"/>
<path d="M101.91 52.7363H99.13C98.9315 52.7363 98.7917 52.8906 98.7532 53.085L96.2696 64.2634C96.2294 64.4757 96.17 64.5525 95.9908 64.5525C95.8116 64.5525 95.7538 64.4757 95.7128 64.2634L93.2301 53.085C93.1908 52.8906 93.0317 52.7363 92.834 52.7363H90.0725C89.8741 52.7363 89.715 52.8718 89.715 53.0458C89.715 53.0655 89.7198 53.0802 89.7247 53.0949C89.7295 53.1094 89.7342 53.1239 89.7342 53.143L92.6942 65.1536C93.1514 67.014 94.6209 67.3048 95.9908 67.3048C97.3623 67.3048 98.8118 67.014 99.269 65.1536L102.228 53.143C102.228 53.1206 102.235 53.098 102.241 53.0791C102.245 53.0656 102.248 53.0539 102.248 53.0458C102.248 52.8522 102.108 52.7363 101.91 52.7363Z" fill="white"/>
<path d="M108.026 57.7921L110.568 59.129C112.635 60.2136 113.25 61.4926 113.25 63.0615C113.25 65.1155 111.86 67.3043 107.829 67.3043C106.26 67.3043 105.088 67.1295 104.075 66.878C103.876 66.82 103.678 66.7032 103.678 66.4909V64.592C103.678 64.3209 103.836 64.2245 104.035 64.2245H104.095C104.908 64.3013 107.093 64.4564 107.868 64.4564C109.238 64.4564 109.635 64.0301 109.635 63.1007C109.635 62.538 109.356 62.2284 108.326 61.6282L105.584 60.0397C103.737 58.9747 103.241 57.7537 103.241 56.3399C103.241 54.2083 104.471 52.5618 108.326 52.5618C109.774 52.5618 111.78 52.7946 112.535 52.9881C112.693 53.0265 112.833 53.1237 112.833 53.3369V55.2937C112.833 55.4685 112.753 55.6229 112.496 55.6229H112.456C112.401 55.619 112.327 55.6138 112.239 55.6075C111.448 55.5512 109.46 55.4097 108.245 55.4097C107.113 55.4097 106.696 55.7388 106.696 56.4355C106.696 56.9786 106.954 57.2302 108.026 57.7921Z" fill="white"/>
</svg>
