<svg width="135" height="120" viewBox="0 0 135 120" fill="none" xmlns="http://www.w3.org/2000/svg">
<g clip-path="url(#clip0_307_2940)">
<path d="M132 0H3C1.34315 0 0 1.34315 0 3V117C0 118.657 1.34315 120 3 120H132C133.657 120 135 118.657 135 117V3C135 1.34315 133.657 0 132 0Z" fill="#D7181F"/>
<g clip-path="url(#clip1_307_2940)">
<path fill-rule="evenodd" clip-rule="evenodd" d="M50.6574 53.9505C50.6857 60.0566 50.7079 60.9621 50.8403 61.4534C51.5196 63.9729 52.9955 64.8798 56.4167 64.8798C61.1589 64.8798 62.6029 63.0737 62.3336 57.4797C62.1359 53.3704 60.7418 51.9214 56.9906 51.9255C55.6547 51.9272 54.9051 52.0606 54.1866 52.4244C53.9389 52.5502 53.7187 52.6529 53.6978 52.6529C53.6547 52.6529 53.6555 52.6982 53.6459 49.3972L53.6391 47.0065H52.1322H50.6253L50.6574 53.9505ZM77.6816 55.7493V64.4921H79.1843H80.687V55.7493V47.0065H79.1843H77.6816V55.7493ZM83.2368 55.7493V64.4921H84.7395H86.2422V55.7493V47.0065H84.7395H83.2368V55.7493ZM88.7013 48.6457V50.2849H90.3405H91.9797V48.6457V47.0065H90.3405H88.7013V48.6457ZM16.045 47.8945C16.0667 47.982 16.9011 51.7506 17.8998 56.2688L19.7153 64.4839L21.4685 64.5108C22.4328 64.5256 23.2216 64.5366 23.2216 64.5352C23.2213 64.5341 23.8924 61.8908 24.7123 58.6612C25.5322 55.4319 26.2332 52.6523 26.2697 52.4846C26.3818 51.9708 26.4334 52.1493 27.9611 58.3449C28.7764 61.6505 29.4685 64.385 29.499 64.4213C29.5548 64.4869 32.8615 64.5358 32.9255 64.4721C32.9439 64.4534 33.5153 61.9608 34.1951 58.9325C35.7176 52.1507 36.6048 48.2105 36.6707 47.9378L36.7207 47.7305L35.1863 47.7555L33.652 47.7805L33.4499 48.828C33.3387 49.4038 32.8956 51.699 32.4648 53.9278C32.0342 56.1568 31.5737 58.5431 31.4417 59.2309C31.3098 59.9188 31.1863 60.466 31.1674 60.447C31.1327 60.4124 29.7988 55.2265 28.5712 50.3536L27.9117 47.7355L26.4416 47.7352L24.9715 47.7349L24.9097 47.9856C24.8757 48.1232 24.2815 50.4285 23.5896 53.1081C22.8974 55.788 22.1933 58.5236 22.0253 59.1873C21.6763 60.5651 21.645 60.6041 21.5119 59.8246C21.388 59.1002 19.3251 48.2141 19.2598 47.94C19.2114 47.7371 19.195 47.7349 17.6082 47.7349C16.1276 47.7349 16.0085 47.7473 16.045 47.8945ZM41.0258 52.0658C38.2993 52.6534 37.4285 54.1738 37.4285 58.3468C37.4285 63.6085 38.5529 64.5819 44.6329 64.5827L47.1475 64.583L47.3477 63.5586C47.4577 62.9951 47.5687 62.4622 47.5942 62.3746C47.6376 62.2252 47.4657 62.2153 44.8734 62.2153C40.8723 62.2153 40.4338 61.9839 40.4338 59.8737V59.3921H43.9264C48.4298 59.3921 48.3457 59.4349 48.43 57.0997C48.5316 54.2808 47.6634 52.8423 45.4427 52.1499C44.7287 51.9272 41.9168 51.8736 41.0258 52.0658ZM68.438 51.9829C65.4453 52.4332 64.4309 54.0324 64.4309 58.2993C64.4309 63.5745 65.4793 64.5256 71.3023 64.5336L74.167 64.5377L74.372 63.5358C74.4844 62.9847 74.5788 62.4649 74.5807 62.3803C74.5849 62.2397 74.3337 62.2244 71.648 62.1983C67.7953 62.161 67.587 62.0602 67.4977 60.1906L67.4595 59.3921L70.9084 59.3918C75.2584 59.3918 75.1989 59.4135 75.4142 57.7427C75.7859 54.8542 74.8225 52.9448 72.6317 52.227C71.9101 51.9906 69.3702 51.8426 68.438 51.9829ZM110.922 52.0609C109.07 52.4343 108.111 53.2298 107.734 54.7062C107.565 55.3663 107.552 55.7213 107.552 59.9531V64.4921H109.05H110.547L110.575 60.0525C110.608 54.9451 110.587 55.0799 111.403 54.6708C112.22 54.2608 114.349 54.3072 115.066 54.7504C115.629 55.0985 115.608 54.9184 115.658 59.8929L115.704 64.4465L117.229 64.4715L118.755 64.4965L118.753 60.0091C118.751 53.8841 118.599 53.3226 116.709 52.4656C115.564 51.9469 112.538 51.735 110.922 52.0609ZM96.0553 52.2588C95.7025 52.2912 95.6147 52.3349 95.5764 52.4986C95.4522 53.0301 95.167 54.509 95.167 54.6221C95.167 54.73 95.5259 54.7413 97.4664 54.6935C101.291 54.5991 101.858 54.8261 102.04 56.5277C102.12 57.2726 102.128 57.2658 101.461 57.0349C99.3049 56.2888 95.9977 56.6461 94.92 57.7414C93.6458 59.0363 93.6926 62.4086 95.0008 63.5283C96.0156 64.3968 96.6744 64.5075 100.623 64.4737C104.239 64.4424 104.296 64.4315 104.729 63.6648L104.957 63.2626V59.301C104.957 54.1529 104.814 53.6908 102.958 52.8245C101.9 52.3308 98.3973 52.0436 96.0553 52.2588ZM88.792 58.3902V64.4921H90.3405H91.8886V58.3902V52.2885H90.3405H88.792V58.3902ZM44.2131 54.3031C45.1019 54.5491 45.4476 55.0969 45.5143 56.3641L45.5585 57.2065H42.9827H40.4066L40.4632 56.455C40.6008 54.6221 41.0439 54.2202 42.9382 54.2078C43.439 54.2048 44.0129 54.2473 44.2131 54.3031ZM71.307 54.3462C72.1745 54.604 72.448 55.0667 72.5523 56.455L72.609 57.2065H70.0451H67.4817V56.6189C67.4817 55.296 67.8434 54.593 68.6519 54.344C69.2385 54.1636 70.6964 54.165 71.307 54.3462ZM57.9076 54.4689C58.42 54.6191 58.6537 54.8297 58.9068 55.3698L59.1487 55.8858V58.3902C59.1487 62.1862 58.9727 62.443 56.3686 62.443C53.9126 62.443 53.4911 61.6513 53.6786 57.3885C53.7783 55.1276 54.0957 54.5997 55.49 54.3778C56.0509 54.2882 57.4749 54.3421 57.9076 54.4689ZM101.387 59.0681C101.93 59.3298 102.028 59.6143 102.071 61.0541L102.109 62.3062L100.118 62.3043C97.2907 62.3016 97.0551 62.1788 97.0041 60.6804C96.9668 59.5852 97.1316 59.2606 97.856 59.0036C98.4969 58.7759 100.87 58.8193 101.387 59.0681ZM95.8976 68.2898C94.8496 68.831 94.7396 71.6122 95.7361 72.3549C96.138 72.6548 97.4456 72.6803 97.985 72.3989C99.0206 71.8579 99.1293 69.0902 98.1432 68.3683C97.7772 68.1003 96.3604 68.0509 95.8976 68.2898ZM105.842 68.3159C105.106 68.6501 104.77 70.7382 105.275 71.85C105.747 72.8895 107.898 72.8958 108.509 71.8593C108.769 71.4186 108.778 69.3574 108.523 68.8447C108.185 68.1643 106.785 67.8881 105.842 68.3159ZM17.3929 70.3662V72.5241L18.5997 72.4925C20.4948 72.4425 20.8064 72.1424 20.8075 70.3662C20.8084 68.591 20.4954 68.2895 18.5997 68.2398L17.3929 68.208V70.3662ZM22.807 68.342C22.7823 68.4057 22.7735 69.3584 22.787 70.4592L22.8117 72.4606L23.1077 72.4892L23.4037 72.5177V70.3719V68.2258H23.1275C22.9756 68.2258 22.8314 68.278 22.807 68.342ZM26.1555 68.407C25.575 68.6704 25.4116 69.0937 25.4092 70.3415C25.4056 72.1092 25.7054 72.4384 27.3691 72.4922C28.6377 72.5331 28.624 72.546 28.6715 71.2651L28.7063 70.3206L28.2634 70.3104C27.8422 70.3008 27.3785 70.3222 27.3538 70.3521C27.1508 70.5985 27.2494 70.7671 27.6113 70.7931L28.0026 70.8214L28.0298 71.3906L28.057 71.9598H27.3738C26.1972 71.9598 26.0446 71.7769 26.0446 70.3662C26.0446 68.8903 26.1511 68.7722 27.4861 68.7722C28.423 68.7722 28.5034 68.7393 28.5034 68.3551C28.5034 68.1385 26.6571 68.1791 26.1555 68.407ZM30.6893 70.3662V72.5062H30.9625H31.2357V70.3662V68.2258H30.9625H30.6893V70.3662ZM33.1144 68.4309C33.0842 68.5435 33.0589 68.6665 33.0584 68.7041C33.0575 68.7415 33.4055 68.7722 33.8311 68.7722H34.6053V70.6394V72.5062H34.8785H35.1517V70.6394V68.7722H35.8706C36.6065 68.7722 36.6998 68.7253 36.6998 68.3551C36.6998 68.0981 33.1839 68.1723 33.1144 68.4309ZM38.3484 70.2489C37.9274 71.3651 37.5645 72.3297 37.5417 72.3922C37.5137 72.4691 37.5994 72.5059 37.8058 72.5054C38.0996 72.5046 38.1202 72.4809 38.3396 71.8906L38.5678 71.2767L39.4475 71.2508L40.3273 71.2248L40.5203 71.7517C40.6263 72.0414 40.7309 72.3297 40.7529 72.3922C40.785 72.4848 41.4355 72.5688 41.4355 72.4807C41.4355 72.4664 41.0752 71.5136 40.635 70.3631L39.8344 68.2714L39.4739 68.2453L39.1134 68.219L38.3484 70.2489ZM43.257 70.3662V72.5062H44.5678C45.6791 72.5062 45.8869 72.4842 45.9339 72.3621C46.0816 71.9771 46.0368 71.9598 44.8963 71.9598H43.8034V70.093V68.2258H43.5302H43.257V70.3662ZM51.0569 70.2788C50.1549 72.6303 50.1783 72.5268 50.5583 72.4892C50.8249 72.4629 50.8644 72.4134 51.0718 71.8458L51.2964 71.2313H52.175H53.0537L53.2747 71.8687L53.4957 72.5062H53.8392H54.1827L53.9922 72.0282C53.8873 71.7651 53.543 70.8738 53.2269 70.0474C52.9109 69.2209 52.6239 68.473 52.5893 68.3854C52.5451 68.2731 52.4257 68.2258 52.1857 68.2258H51.8447L51.0569 70.2788ZM55.9158 70.3662V72.5062H56.2324H56.549L56.574 70.906L56.5987 69.3055L57.6863 70.9104C58.7286 72.448 58.7858 72.5139 59.0523 72.4878L59.3308 72.4606V70.3662V68.2714L59.037 68.2431L58.7432 68.2146L58.7182 69.8275L58.6935 71.4403L57.6007 69.8368C56.5658 68.3186 56.4919 68.2332 56.2118 68.2297L55.9158 68.2258V70.3662ZM61.4711 70.3662V72.5062H62.5447C64.4328 72.5062 64.795 72.1619 64.795 70.3662C64.795 68.5702 64.4328 68.2258 62.5447 68.2258H61.4711V70.3662ZM69.3032 68.499V68.7722H70.0314H70.7601V70.6394V72.5062H71.0789H71.3977V70.6432V68.7799L72.1037 68.7533C72.7984 68.7272 72.8097 68.7228 72.8381 68.4762L72.8669 68.2258H71.085H69.3032V68.499ZM74.6766 70.3683V72.5109L76.1108 72.4859L77.5451 72.4606L77.5739 72.2102L77.6027 71.9598H76.4579H75.3136V71.2767V70.5938H76.3611C77.2046 70.5938 77.4086 70.5685 77.4086 70.4647C77.4086 70.3936 77.4331 70.2706 77.4634 70.1915C77.512 70.065 77.384 70.0474 76.4164 70.0474H75.3136V69.4125V68.778L76.4291 68.7524L77.5451 68.7269L77.5739 68.4762L77.6027 68.2258H76.1392H74.6766V70.3683ZM80.2129 68.3752C79.2112 68.7912 79.113 71.549 80.0745 72.266C80.398 72.5068 82.1099 72.6155 82.2441 72.4035C82.475 72.0391 82.3635 71.9782 81.4072 71.9455C80.2969 71.9076 80.1893 71.8236 80.092 70.9186C79.9106 69.2236 80.1883 68.7722 81.411 68.7722C82.0618 68.7722 82.2351 68.745 82.2351 68.6432C82.2351 68.572 82.2601 68.4493 82.2903 68.37C82.3683 68.1665 80.7059 68.1706 80.2129 68.3752ZM84.2384 70.3719V72.5177L84.5246 72.4892L84.8103 72.4606L84.7929 71.5274L84.7749 70.5938H85.8729H86.9709V71.5501V72.5062H87.2897H87.608V70.3662V68.2258H87.2897H86.9709V69.1396V70.0531L85.9008 70.0273L84.8306 70.0018L84.8047 69.1138L84.7787 68.2258H84.5086H84.2384V70.3719ZM89.7029 70.3662V72.5062H90.0194H90.3362L90.3613 70.9192L90.3858 69.3321L91.4772 70.9233C92.5162 72.4384 92.5818 72.5133 92.8435 72.4876L93.1179 72.4606L93.1448 70.3433L93.1717 68.2258H92.851H92.5304L92.5053 69.8425L92.4803 71.459L91.3875 69.845C90.3504 68.3129 90.2796 68.2308 89.9991 68.2283L89.7029 68.2258V70.3662ZM100.723 70.3662V72.5062H102.078C103.519 72.5062 103.536 72.5007 103.544 72.0282C103.545 71.9905 103.054 71.9598 102.453 71.9598H101.36V70.093V68.2258H101.041H100.723V70.3662ZM111.423 68.3546C110.787 68.6374 110.564 69.1371 110.56 70.2934C110.554 72.0779 110.979 72.5062 112.754 72.5062C113.845 72.5062 113.836 72.5161 113.836 71.2371V70.3206H113.153C112.486 70.3206 112.471 70.3255 112.471 70.5482C112.471 70.753 112.507 70.7758 112.835 70.7758H113.199V71.3678V71.9598H112.466C111.333 71.9598 111.107 71.5916 111.221 69.9315C111.292 68.8969 111.372 68.831 112.632 68.7722L113.609 68.7269L113.638 68.4762L113.667 68.2258L112.681 68.2294C112.065 68.2316 111.594 68.2785 111.423 68.3546ZM115.625 68.7494C115.809 69.0375 116.159 69.5844 116.401 69.9647L116.842 70.6561V71.5811V72.5062H117.161H117.479V71.6075V70.7088L118.171 69.6267C119.135 68.1204 119.094 68.2258 118.716 68.2258C118.412 68.2258 118.375 68.2643 117.839 69.1369C117.531 69.6377 117.253 70.0641 117.22 70.0842C117.187 70.1042 116.898 69.6943 116.576 69.1734C115.997 68.2354 115.988 68.2258 115.64 68.2258H115.288L115.625 68.7494ZM97.738 68.786C98.2433 69.0479 98.2952 71.4927 97.8036 71.8906C97.5453 72.1001 96.3953 72.1172 96.1073 71.9156C95.6695 71.6089 95.5656 69.501 95.9623 68.968C96.2234 68.6171 97.2157 68.5155 97.738 68.786ZM107.82 68.9153C108.236 69.3165 108.205 71.4068 107.777 71.8346C107.278 72.3341 105.927 72.088 105.772 71.4694C105.65 70.9848 105.768 69.06 105.93 68.8985C106.287 68.5419 107.444 68.5523 107.82 68.9153ZM19.8504 69.03C20.1524 69.3321 20.2765 70.0202 20.1788 70.8508C20.0711 71.7679 19.8163 71.9598 18.7076 71.9598H18.0305V70.3662V68.7722H18.8116C19.5475 68.7722 19.6074 68.7873 19.8504 69.03ZM63.748 68.89C64.0583 69.0465 64.1919 69.4946 64.1981 70.3978C64.2066 71.702 63.9586 71.9598 62.6944 71.9598H62.0324L62.0219 70.3662L62.0112 68.7722L62.7657 68.7736C63.1892 68.7744 63.62 68.8255 63.748 68.89ZM52.544 69.8598C52.9002 70.8252 52.9197 70.7758 52.1819 70.7758C51.7329 70.7758 51.5443 70.7423 51.5437 70.6622C51.5427 70.3917 52.1382 68.8799 52.2016 68.993C52.2387 69.0592 52.3928 69.4491 52.544 69.8598ZM39.523 68.9861C39.523 69.0034 39.646 69.3579 39.7962 69.7742C40.1708 70.8113 40.1837 70.7758 39.4319 70.7758C39.0812 70.7758 38.794 70.7451 38.7932 70.7077C38.7902 70.5452 39.388 68.9546 39.4522 68.9546C39.4912 68.9546 39.523 68.9686 39.523 68.9861Z" fill="white"/>
</g>
</g>
<defs>
<clipPath id="clip0_307_2940">
<rect width="135" height="120" fill="white"/>
</clipPath>
<clipPath id="clip1_307_2940">
<rect width="103" height="25.6437" fill="white" transform="translate(16 46.9999)"/>
</clipPath>
</defs>
</svg>
