<svg width="151" height="150" viewBox="0 0 151 150" fill="none" xmlns="http://www.w3.org/2000/svg">
<rect width="150" height="150" transform="translate(0.881836)" fill="#1F1F1F"/>
<g clip-path="url(#clip0_1202_52)">
<path fill-rule="evenodd" clip-rule="evenodd" d="M31.6137 58.0228L53.2961 65.2778L32.0259 74.6763C32.0259 79.1426 32.1083 90.3404 32.1083 90.3404L24.2763 85.7236V71.0488L39.7755 64.4534L27.574 59.5892L31.6137 58.0228Z" fill="white"/>
<path fill-rule="evenodd" clip-rule="evenodd" d="M22.7099 84.4045L17.3511 80.9419V68.0809L25.5954 64.4534L20.8137 62.145L25.9251 60.3312L36.2305 64.4534L22.7099 70.2244V84.4045Z" fill="white"/>
<path fill-rule="evenodd" clip-rule="evenodd" d="M19.3297 62.7221L22.9572 64.5358L16.032 67.4213L15.8671 80.3648L11.5801 77.8091V65.7725L19.3297 62.7221Z" fill="white"/>
<path fill-rule="evenodd" clip-rule="evenodd" d="M48.6793 73.687L41.5893 77.3144L41.4244 87.0427L33.6748 91V75.3358L54.7801 66.1022V76.8198L43.7328 82.3435V77.974L48.6793 75.3358V73.687Z" fill="white"/>
<path fill-rule="evenodd" clip-rule="evenodd" d="M70.2497 82.0503V76.6549L64.2004 65.6076L66.8522 65.6076L71.5756 73.8466L76.299 65.6076H78.9507L72.9014 76.6549V82.0503H70.2497Z" fill="white"/>
<path fill-rule="evenodd" clip-rule="evenodd" d="M134.389 66.7618H136.399V70.0595H140.024V71.5435H136.399C136.399 71.5435 136.399 77.4793 136.399 78.7984C136.399 80.1175 136.728 80.3101 137.703 80.3101C138.678 80.3101 140.191 79.6228 140.191 79.6228L140.521 81.2717C140.521 81.2717 138.43 82.0874 137.04 82.0503C135.651 82.0133 134.389 81.2717 134.389 79.15C134.389 77.0283 134.389 71.5435 134.389 71.5435H132.483V70.0595H134.389V66.7618Z" fill="white"/>
<path fill-rule="evenodd" clip-rule="evenodd" d="M82.1223 65.6076V82.0961H84.1298V76.8198C84.1298 76.8198 85.6629 76.8298 88.4804 76.8298C91.2979 76.8298 94.2811 74.6752 94.2811 71.112C94.2811 67.9487 91.8779 65.6076 88.4804 65.6076C85.1657 65.6075 82.1223 65.6076 82.1223 65.6076ZM92.2383 71.112C92.2383 72.935 90.8007 74.8411 88.8119 74.8411C86.919 74.8411 84.1298 74.8411 84.1298 74.8411V67.4213C84.1298 67.4213 86.6592 67.4213 88.8119 67.4213C91.2819 67.4213 92.2383 69.2889 92.2383 71.112Z" fill="white"/>
<path fill-rule="evenodd" clip-rule="evenodd" d="M112.159 69.5648H113.972V82.0961H112.159V69.5648Z" fill="white"/>
<path fill-rule="evenodd" clip-rule="evenodd" d="M118.424 69.5648H120.569V72.0381C120.569 72.0381 121.627 69.7032 124.859 69.7032C128.091 69.7032 129.967 71.948 129.967 74.2609C129.967 77.4098 129.967 82.0961 129.967 82.0961H128.091C128.091 82.0961 128.091 76.9126 128.091 74.2609C128.091 72.9424 126.729 71.2962 124.859 71.2777C122.29 71.112 120.569 72.8845 120.569 74.5095C120.569 78.4042 120.569 82.0961 120.569 82.0961H118.424V69.5648Z" fill="white"/>
<path fill-rule="evenodd" clip-rule="evenodd" d="M102.319 82.2161C105.843 82.2161 108.7 79.3593 108.7 75.8354C108.7 72.3114 105.843 69.4546 102.319 69.4546C98.7951 69.4546 95.9384 72.3114 95.9384 75.8354C95.9384 79.3593 98.7951 82.2161 102.319 82.2161ZM102.319 80.5146C104.903 80.5146 106.998 78.4196 106.998 75.8354C106.998 73.2511 104.903 71.1562 102.319 71.1562C99.7349 71.1562 97.6399 73.2511 97.6399 75.8354C97.6399 78.4196 99.7349 80.5146 102.319 80.5146Z" fill="white"/>
<path d="M114.169 65.9742C114.169 66.6149 113.65 67.1344 113.009 67.1344C112.368 67.1344 111.849 66.6149 111.849 65.9742C111.849 65.3335 112.368 64.8141 113.009 64.8141C113.65 64.8141 114.169 65.3335 114.169 65.9742Z" fill="white"/>
</g>
<defs>
<clipPath id="clip0_1202_52">
<rect width="128.941" height="32.9771" fill="white" transform="translate(11.5801 58.0228)"/>
</clipPath>
</defs>
</svg>
