<svg width="422" height="250" viewBox="0 0 422 250" fill="none" xmlns="http://www.w3.org/2000/svg">
<g clip-path="url(#clip0_1122_335)">
<path d="M82.9831 118.278C78.689 116.99 76.4347 116.775 75.1464 116.561C73.8582 116.346 74.395 116.453 72.9994 116.131C71.4965 115.809 67.9538 115.38 65.1627 115.165C72.6773 114.843 75.6832 114.199 80.4067 113.018C85.0228 111.945 88.9949 110.227 92.4301 107.973C95.1139 106.255 97.1536 103.893 98.6565 100.995C100.267 98.0962 101.018 95.1977 101.018 91.9771V91.8698C101.018 86.6095 98.8712 81.9934 94.5772 77.8067C90.1757 73.6199 84.4861 70.8288 77.0788 69.1111C74.717 68.5744 72.3553 68.145 69.7788 67.7156C66.4509 67.2862 63.7671 66.9641 60.7613 66.7494C57.7554 66.5347 54.5348 66.32 50.8849 66.32C49.2746 66.2126 47.4496 66.2126 45.6246 66.2126H44.0143H41.4379H0V67.8229C3.75732 68.145 6.44112 68.5744 8.15875 69.2185C9.87639 69.8626 11.272 70.8288 12.3455 72.4391C13.3117 73.8346 14.0631 75.4449 14.4925 77.3773C14.9219 79.3096 15.244 81.7787 15.244 85.1066V154.563C15.244 156.388 15.1366 157.891 15.1366 158.965C15.0293 160.253 14.9219 161.219 14.8146 162.078C14.7072 162.937 14.5999 163.903 14.4925 164.762C14.1705 166.587 13.5264 168.197 12.3455 169.7C11.1646 171.31 9.66168 172.384 7.94405 173.028C6.22642 173.672 3.54262 174.101 0 174.316V175.926H59.9024C67.7391 175.926 71.7112 175.175 78.0449 173.779C84.2714 172.384 89.639 170.237 93.933 167.66C98.3345 164.977 101.555 161.756 103.917 157.784C106.279 153.919 107.352 149.625 107.352 144.794C107.352 138.568 105.205 133.093 100.804 128.369C96.9389 124.934 90.7125 121.07 82.8758 119.352V118.278H82.9831ZM71.3891 167.66C68.3833 172.169 63.4451 174.531 56.6819 174.531C54.5348 174.531 52.7099 174.316 51.3143 173.887C49.9187 173.457 48.8452 172.599 48.0937 171.31C47.3423 170.022 46.8055 168.304 46.5908 166.05C46.3761 163.796 46.2687 160.79 46.2687 157.032V68.145H50.2408C55.501 68.145 59.473 68.7891 62.2642 69.97C65.0553 71.1508 67.2024 73.2979 68.7053 76.089C69.7788 78.0214 70.5303 80.2758 71.0671 82.6375C71.4965 85.1066 71.7112 87.8978 71.7112 91.333C71.7112 96.2712 71.0671 100.565 69.8862 104.108C68.92 106.792 67.7391 108.831 66.2362 110.442C65.9142 110.764 65.4848 111.193 64.948 111.515L64.8406 111.623C64.7333 111.73 64.7333 111.73 64.7333 111.73C64.3039 112.052 63.8745 112.267 63.4451 112.481C63.2304 112.589 63.0157 112.696 62.801 112.803C59.3657 114.414 55.6084 114.521 54.3201 114.521V116.453C54.3201 116.453 61.298 116.131 66.6656 119.245C66.9877 119.459 67.3097 119.674 67.5244 119.781C67.6318 119.889 67.6318 119.889 67.6318 119.889C70.1009 121.714 71.8185 123.861 73.1068 126.652C75.0391 131.483 76.1126 137.602 76.1126 145.224C76.0053 155.315 74.5023 163.152 71.3891 167.875V167.66Z" fill="#726988"/>
<path d="M187.438 107.973C184.11 104.108 179.923 101.102 174.77 98.7404C169.617 96.3786 163.606 95.1978 156.735 95.1978C149.865 95.1978 143.853 96.3786 138.7 98.7404C133.547 101.102 129.36 104.215 126.033 107.973C122.705 111.837 120.235 116.131 118.518 120.962C116.8 125.9 115.941 130.839 115.941 135.992C115.941 141.037 116.8 146.083 118.518 151.021C120.235 155.959 122.705 160.253 126.033 164.01C129.36 167.875 133.547 170.881 138.7 173.243C143.853 175.604 149.865 176.785 156.735 176.785C163.606 176.785 169.617 175.604 174.77 173.243C179.923 170.881 184.11 167.768 187.438 164.01C190.766 160.146 193.235 155.852 194.953 151.021C196.67 146.083 197.529 141.144 197.529 135.992C197.529 130.946 196.67 125.9 194.953 120.962C193.342 115.809 190.229 111.408 187.116 107.651L187.438 107.973ZM169.51 143.399C169.51 148.444 169.403 152.631 169.081 156.388C168.866 160.146 168.329 163.259 167.47 165.835C166.612 168.412 165.323 170.237 163.606 171.525C161.888 172.813 159.634 173.35 156.735 173.35C153.837 173.35 151.475 172.706 149.865 171.525C148.147 170.237 146.859 168.305 146 165.835C145.141 163.259 144.604 160.146 144.39 156.388C144.175 152.631 143.96 148.23 143.96 143.399V129.014C143.96 124.183 144.068 119.781 144.39 116.024C144.604 112.159 145.141 108.939 146 106.362C146.859 103.786 148.147 101.746 149.865 100.351C151.582 98.9551 153.837 98.2036 156.735 98.2036C159.634 98.2036 161.995 98.9551 163.606 100.351C165.323 101.746 166.612 103.679 167.47 106.362C168.329 108.939 168.866 112.159 169.081 116.024C169.295 119.889 169.51 124.183 169.51 129.014V143.184V143.399Z" fill="#726988"/>
<path d="M276.325 107.973C272.997 104.108 268.81 101.102 263.657 98.7404C258.504 96.3786 252.492 95.1978 245.622 95.1978C238.751 95.1978 232.74 96.3786 227.587 98.7404C222.434 101.102 218.247 104.215 214.919 107.973C211.591 111.837 209.122 116.131 207.405 120.962C205.687 125.9 204.828 130.839 204.828 135.992C204.828 141.037 205.687 146.083 207.405 151.021C209.122 155.959 211.591 160.253 214.919 164.01C218.247 167.875 222.434 170.881 227.587 173.243C232.74 175.604 238.751 176.785 245.622 176.785C252.492 176.785 258.504 175.604 263.657 173.243C268.81 170.881 272.997 167.768 276.325 164.01C279.653 160.146 282.122 155.852 283.839 151.021C285.557 146.083 286.416 141.144 286.416 135.992C286.416 130.946 285.557 125.9 283.839 120.962C281.477 115.809 279.116 111.408 276.003 107.651L276.325 107.973ZM258.397 143.399C258.397 148.444 258.289 152.631 257.967 156.388C257.753 160.146 257.216 163.259 256.357 165.835C255.498 168.412 254.21 170.237 252.492 171.525C250.775 172.813 248.52 173.35 245.622 173.35C242.723 173.35 240.362 172.706 238.751 171.525C237.034 170.237 235.746 168.305 234.887 165.835C234.028 163.259 233.491 160.146 233.276 156.388C233.062 152.631 232.847 148.23 232.847 143.399V129.014C232.847 124.183 232.954 119.781 233.276 116.024C233.491 112.159 234.028 108.939 234.887 106.362C235.746 103.786 237.034 101.746 238.751 100.351C240.469 98.9551 242.723 98.2036 245.622 98.2036C248.52 98.2036 250.882 98.9551 252.492 100.351C254.21 101.746 255.498 103.679 256.357 106.362C257.216 108.939 257.753 112.159 257.967 116.024C258.182 119.889 258.397 124.183 258.397 129.014V143.184V143.399Z" fill="#726988"/>
<path d="M352.757 167.66C349.215 171.525 343.954 173.35 336.976 173.35H319.693L359.52 102.82V98.3108H295.002V120.103H296.827C297.471 113.877 299.725 109.153 303.697 105.933C307.669 102.82 312.071 101.209 317.116 101.209H332.682L291.781 172.169V176.141H361.345V152.416H359.52C358.769 157.891 356.407 163.366 352.542 167.231L352.757 167.66Z" fill="#726988"/>
<path d="M421.463 172.384C421.463 172.384 419.316 173.243 417.384 173.243C412.768 173.243 409.655 171.203 408.044 167.231C406.434 163.259 405.575 156.71 405.575 147.693V101.317H418.887V98.4183H405.253V66.5347H403.643C403.643 69.1112 393.874 98.3109 376.59 98.4183H368.324V101.317H378.093V142.969C378.093 149.625 378.845 155.1 380.562 159.394C382.173 163.796 384.427 167.231 387.218 169.807C390.009 172.384 393.337 174.209 397.202 175.39C401.067 176.463 405.039 177 409.333 177C414.593 177 418.78 176.249 422 174.746V173.135L421.463 172.384Z" fill="#726988"/>
</g>
<defs>
<clipPath id="clip0_1122_335">
<rect width="422" height="250" fill="white"/>
</clipPath>
</defs>
</svg>
