<svg width="836" height="250" viewBox="0 0 836 250" fill="none" xmlns="http://www.w3.org/2000/svg">
<g clip-path="url(#clip0_1121_228)">
<g clip-path="url(#clip1_1121_228)">
<path d="M236.641 171.855H207.322V83H236.996C253.52 83 267.913 88.2995 267.913 105.081C267.913 116.563 261.694 122.922 252.099 125.396V125.572C262.76 127.162 271.644 134.228 271.644 146.947C271.644 165.319 257.074 171.855 236.641 171.855ZM235.042 97.4852H224.025V119.567H234.508C244.636 119.567 249.079 116.033 249.079 108.084C249.256 100.842 244.458 97.4852 235.042 97.4852ZM234.864 132.992H224.203V157.369H234.153C244.991 157.369 250.855 154.013 250.855 145.534C250.678 137.231 245.88 132.992 234.864 132.992Z" fill="#726988"/>
<path d="M320.327 122.553C319.261 121.846 317.306 121.139 313.397 121.139C305.402 121.139 300.782 128.029 299.183 131.032V171.838H281.414V106.831H299.183V115.663C302.026 110.894 307.356 105.241 315.707 105.241C320.505 105.241 322.992 106.124 324.591 107.008L320.327 122.553Z" fill="#726988"/>
<path d="M356.417 173.428C333.673 173.428 323.723 156.293 323.723 139.511C323.723 122.906 333.496 105.241 356.239 105.241C378.983 105.241 389.288 122.376 389.288 138.981C389.288 155.41 379.338 173.428 356.417 173.428ZM356.062 118.49C345.933 118.49 342.557 126.969 342.557 138.981C342.557 150.993 346.644 159.826 356.594 159.826C366.723 159.826 370.454 151.524 370.454 139.335C370.454 127.323 366.189 118.49 356.062 118.49Z" fill="#726988"/>
<path d="M433.149 171.847C432.616 170.257 432.261 166.9 432.083 164.957C429.062 168.49 423.021 173.436 413.782 173.436C402.587 173.436 394.059 166.724 394.059 155.242C394.059 138.283 411.649 132.101 428.885 132.101H431.195V128.391C431.195 122.738 428.885 119.382 420.534 119.382C412.183 119.382 406.319 123.798 403.831 125.565L396.013 114.789C399.923 111.256 408.451 105.426 422.488 105.426C440.257 105.426 448.785 112.316 448.785 129.451V152.768C448.785 161.601 449.674 167.784 450.74 172.024H433.149V171.847ZM429.418 143.053H427.108C416.624 143.053 409.339 146.056 409.339 153.652C409.339 158.421 413.248 160.364 417.158 160.364C423.554 160.364 427.285 156.655 429.24 154.535V143.053H429.418Z" fill="#726988"/>
<path d="M487.349 105.251C495.345 105.251 500.143 108.078 502.453 109.844V76.2812H520.221V153.3C520.221 161.78 521.287 168.316 522.175 171.848H504.762C504.229 170.259 503.519 166.725 503.341 164.782C499.254 169.552 493.746 173.615 485.039 173.615C468.693 173.615 458.209 161.426 458.209 139.698C458.209 118.677 470.647 105.251 487.349 105.251ZM490.37 159.306C496.767 159.306 501.031 154.713 502.63 152.77V123.447C500.321 121.503 496.945 119.207 491.258 119.207C482.196 119.207 477.221 126.803 477.221 139.522C477.044 151.887 481.131 159.306 490.37 159.306Z" fill="#726988"/>
<path d="M572.823 122.553C571.757 121.846 569.802 121.139 566.071 121.139C558.075 121.139 553.456 128.029 551.856 131.032V171.838H534.088V106.831H551.856V115.663C554.699 110.894 560.03 105.241 568.381 105.241C573.178 105.241 575.844 106.124 577.265 107.008L572.823 122.553Z" fill="#726988"/>
<path d="M592.918 98.5304C587.052 98.5304 582.787 93.9376 582.787 88.6381C582.787 83.5153 587.052 78.9224 592.918 78.9224C598.778 78.9224 603.042 83.3387 603.042 88.6381C603.22 93.9376 598.778 98.5304 592.918 98.5304Z" fill="#726988"/>
<path d="M601.961 106.863H584.014V171.87H601.961V106.863Z" fill="#726988"/>
<path d="M641.063 105.251C649.058 105.251 653.856 108.078 656.164 109.844V76.2812H673.933V153.3C673.933 161.78 675.001 168.316 675.89 171.848H658.299C657.765 170.259 657.053 166.725 656.875 164.782C652.789 169.552 647.279 173.615 638.572 173.615C622.226 173.615 611.746 161.426 611.746 139.698C611.746 118.677 624.361 105.251 641.063 105.251ZM644.082 159.306C650.482 159.306 654.746 154.713 656.342 152.77V123.447C654.034 121.503 650.66 119.207 644.972 119.207C635.909 119.207 630.933 126.803 630.933 139.522C630.755 151.887 634.842 159.306 644.082 159.306Z" fill="#726988"/>
<path d="M747.474 105.241V118.49H738.767C740.362 121.493 741.252 125.203 741.252 128.912C741.252 142.691 731.306 152.407 713.002 152.407C710.161 152.407 707.67 152.053 705.185 151.7C704.118 152.583 702.694 153.643 702.694 155.586C702.694 159.119 706.425 159.649 715.843 160.179C729.348 160.886 746.584 161.062 746.584 180.141C746.584 193.919 732.189 203.635 710.867 203.635C692.926 203.635 682.084 197.982 682.084 186.323C682.084 179.08 686.526 173.958 693.104 170.425C689.545 168.305 687.416 165.302 687.416 160.532C687.416 154.35 690.969 150.64 694.699 148.344C687.416 144.281 682.974 137.392 682.974 128.912C682.974 114.957 693.81 105.241 711.935 105.241C716.555 105.241 747.474 105.241 747.474 105.241ZM697.546 182.967C697.546 188.266 701.099 191.799 710.339 191.799C721.175 191.799 727.397 187.737 727.397 182.261C727.397 175.371 721.175 175.548 711.757 174.841C708.738 174.665 705.719 174.311 702.872 173.958C699.32 176.254 697.546 179.08 697.546 182.967ZM724.016 128.912C724.016 121.316 719.574 116.9 712.291 116.9C705.007 116.9 700.565 121.316 700.565 128.912C700.565 136.332 705.007 140.924 712.291 140.924C719.574 140.924 724.016 136.332 724.016 128.912Z" fill="#726988"/>
<path d="M786.394 160.171C795.279 160.171 800.255 157.168 803.452 155.578L809.14 167.06C804.876 169.533 798.12 173.243 784.799 173.243C762.943 173.243 750.684 159.464 750.684 138.796C750.684 118.305 764.894 105.056 783.02 105.056C803.452 105.056 813.404 119.188 811.269 143.213H769.871C770.404 153.458 775.558 160.171 786.394 160.171ZM793.856 131.377C793.678 124.134 790.837 118.128 782.664 118.128C775.203 118.128 770.938 122.898 769.693 131.377H793.856Z" fill="#726988"/>
<path d="M826.379 123.798C821.403 123.798 817.316 119.735 817.316 114.612C817.316 109.49 821.403 105.426 826.379 105.426C831.355 105.426 835.62 109.49 835.62 114.612C835.442 119.735 831.355 123.798 826.379 123.798ZM826.379 106.84C821.937 106.84 818.74 110.019 818.74 114.612C818.74 119.205 821.937 122.385 826.379 122.385C830.821 122.385 834.018 119.205 834.018 114.612C834.018 110.196 830.643 106.84 826.379 106.84ZM828.864 119.912L826.379 116.202C825.845 115.496 825.489 115.143 824.778 115.143V119.912H823.004V108.96H826.557C828.864 108.96 829.932 110.373 829.932 111.963C829.932 113.552 828.864 114.612 827.091 114.789C827.447 115.143 827.974 115.496 828.33 116.202L830.821 119.735L828.864 119.912ZM826.201 110.55H824.6V113.906H825.667C826.913 113.906 828.152 113.729 828.152 112.316C828.152 111.256 827.619 110.55 826.201 110.55Z" fill="#726988"/>
<path d="M150.469 41.1497L-0.0292969 40.9731V41.1497V209.143H150.469V41.1497ZM117.775 155.795V162.861C101.251 162.861 90.945 157.561 84.3704 151.025C85.4368 154.028 86.6806 157.208 88.2796 160.211C99.4738 182.292 119.197 193.598 147.981 193.951V203.137C107.647 202.784 88.8128 181.762 79.9287 164.097C77.9738 160.211 76.3748 156.325 75.1311 152.615C61.8046 185.296 25.3795 185.648 24.8465 185.648V175.403C26.6233 175.403 69.8003 173.99 69.8003 124.881H80.8171C80.8171 75.7729 123.817 75.4196 125.593 75.4196V65.174C125.06 65.174 88.6348 65.7039 75.309 98.2073C74.0647 94.4977 72.4657 90.6114 70.5114 86.7252C61.6273 69.4136 42.7926 48.3923 2.45828 48.0391V43.4462H147.981V125.058H80.6392C80.6392 126.295 81.3497 155.795 117.775 155.795ZM2.45828 57.2248C31.0654 57.5781 50.966 68.8836 62.1599 90.9648C63.7595 94.1444 65.0032 97.1474 66.069 100.15C59.4951 93.6145 49.1892 88.315 32.6646 88.315V95.3809C69.0897 95.3809 69.8003 123.645 69.8003 124.881H2.45828V57.2248Z" fill="#726988"/>
</g>
</g>
<defs>
<clipPath id="clip0_1121_228">
<rect width="836" height="250" fill="white"/>
</clipPath>
<clipPath id="clip1_1121_228">
<rect width="836.276" height="172" fill="white" transform="translate(-0.447266 40)"/>
</clipPath>
</defs>
</svg>
