<svg width="112" height="36" viewBox="0 0 112 36" fill="none" xmlns="http://www.w3.org/2000/svg"><path d="M33.0809 19.2031c-4.611 2.4644-11.498 6.8438-10.308 10.4578 1.992 6.0543 13.602 6.0357 13.602 6.0357l6.545-.0187-7.7-12.8448c-.896-1.507-2.139-3.63-2.139-3.63Zm-1.808 1.6376c.309-.1813.613-.3574.909-.5334v14.3198c-.293-.04-.597-.0881-.909-.1414v-13.645Zm-1.75 1.0669c.304-.1947.608-.3868.91-.5708V34.331c-.302-.0667-.606-.136-.91-.216V21.9076Zm-1.755 11.6419.016-10.4577c.299-.2187.603-.4294.912-.6375l-.018 11.4153c-.302-.0987-.606-.2054-.905-.3227l-.005.0026Zm-1.744-.8428V24.476c.291-.2543.595-.505.912-.7521l-.016 9.4709c-.293-.152-.597-.3147-.891-.4907l-.005.0026Zm-1.736-1.4642V26.295c.282-.3623.587-.707.912-1.0322v6.8652c-.334-.2632-.64-.5599-.912-.8855ZM.450928 35.6777 21.6759.303711S28.5519 11.751 28.6479 11.8897c.243.3467 2.566 4.2674 2.851 4.7474l-.12.0294c-11.338 2.195-18.526 7.3212-21.092 10.2337-3.27697 3.734-1.96296 8.7775-1.96296 8.7775H.450928Z" fill="#726988"/><path d="M35.5339 7.81396h6.375v.6214h-5.703v3.71004h5.121v.6214h-5.121v4.0994h-.672V7.81396ZM43.7839 7.81396h.6751v9.05224h-.6721l-.003-9.05224ZM46.9121 7.81396h3.011c2.846 0 4.801 1.95231 4.801 4.49944v.0267c0 2.5471-1.966 4.5341-4.801 4.5341h-3.011V7.81396Zm3.011 8.43074c2.523 0 4.113-1.7203 4.113-3.878v-.0266c0-2.1471-1.6-3.90474-4.113-3.90474h-2.339v7.80934h2.339ZM59.2079 8.43536h-3.152v-.6214h6.98v.6214h-3.156v8.43084h-.672V8.43536ZM64.7549 7.81396h6.438v.6214h-5.766v3.55534h5.185v.6214h-5.185v3.6326h5.833v.6215h-6.505V7.81396ZM72.6951 12.3671v-.0266c0-2.56053 1.913-4.68083 4.534-4.68083 1.617 0 2.585.5947 3.516 1.4482l-.478.4908c-.8-.7628-1.693-1.3336-3.051-1.3336-2.174 0-3.814 1.77103-3.814 4.04603v.0267c0 2.2884 1.667 4.0727 3.827 4.0727 1.305 0 2.198-.5041 3.116-1.4083l.453.4374c-.957.9442-1.992 1.579-3.595 1.579-2.606.0026-4.508-2.0457-4.508-4.6515ZM82.3149 7.81396h.673V12.004h5.793V7.81396h.672v9.05224h-.672v-4.2408h-5.793v4.2408h-.673V7.81396ZM42.9399 19.5068h3.284c1.992 0 3.363 1.0215 3.363 2.7685v.024c0 1.9017-1.643 2.8832-3.531 2.8832h-2.443v3.3765h-.673v-9.0522Zm3.156 5.0676c1.68 0 2.816-.8802 2.816-2.2244v-.0267c0-1.4349-1.109-2.1844-2.739-2.1844h-2.56v4.4355h2.483ZM54.242 19.4429h.645l4.217 9.1162h-.739l-1.149-2.5365h-5.334l-1.153 2.5365h-.696l4.209-9.1162Zm2.688 5.9743-2.379-5.2382-2.4 5.2382h4.779ZM60.6929 19.5068h3.801c1.112 0 2.006.3494 2.547.8935.44.4488.686 1.0521.686 1.6803v.0267c0 1.5122-1.123 2.379-2.652 2.5844l2.988 3.8673h-.854l-2.883-3.7499h-2.961v3.7499h-.672v-9.0522Zm3.734 4.6942c1.513 0 2.638-.7628 2.638-2.0697v-.024c0-1.2162-.957-1.979-2.598-1.979h-3.102v4.0727h3.062ZM72.228 20.1283h-3.155v-.6215h6.983v.6215h-3.155v8.4307h-.673v-8.4307ZM77.7729 19.5068h.635l6.244 7.876v-7.876h.648v9.0522h-.504l-6.374-8.044v8.044h-.649v-9.0522ZM87.666 19.5068h6.438v.6215h-5.766v3.5552h5.196v.6241h-5.196v3.6327h5.833v.6214h-6.505v-9.0549ZM96.0061 19.5068h3.8c1.1129 0 2.0059.3494 2.5479.8935.439.4488.685 1.0521.685 1.6803v.0267c0 1.5122-1.123 2.379-2.651 2.5844l2.987 3.8673h-.853l-2.8839-3.7499h-2.96v3.7499h-.672v-9.0522Zm3.734 4.6942c1.5119 0 2.6379-.7628 2.6379-2.0697v-.024c0-1.2162-.958-1.979-2.5979-1.979h-3.102v4.0727h3.062ZM104.45 27.2418l.44-.5041c.995.9175 1.913 1.3336 3.243 1.3336 1.331 0 2.292-.7628 2.292-1.7977v-.024c0-.9575-.507-1.5122-2.561-1.9283-2.174-.4374-3.051-1.1762-3.051-2.5471v-.024c0-1.3336 1.227-2.3791 2.907-2.3791 1.136-.0376 2.245.3548 3.105 1.0989l-.427.5334c-.737-.6728-1.704-1.0366-2.702-1.0162-1.333 0-2.211.7628-2.211 1.7043v.0267c0 .9575.491 1.5389 2.638 1.979 2.094.4267 2.974 1.1762 2.974 2.4964v.024c0 1.4616-1.257 2.4698-3.001 2.4698-1.358.0184-2.669-.5013-3.646-1.4456Z" fill="#726988" stroke="#726988" stroke-width=".38" stroke-miterlimit="10.12"/></svg>