<svg width="69" height="35" viewBox="0 0 69 35" fill="none" xmlns="http://www.w3.org/2000/svg"><path d="M56.5766 34.4856c-.4557-.1189-.8595-.3022-1.1617-.6514-.2799-.3245-.4582-.6861-.4656-1.1295-.0099-.4508.052-.8793.3344-1.236.1659-.2105.3715-.3988.5895-.5598.6489-.4805 1.2038-1.0477 1.6818-1.6942.2675-.3641.4954-.7406.5945-1.1889.1139-.5128.0545-1.0081-.1536-1.4862-.3839-.8818-.7679-1.7611-1.1543-2.6404-.2947-.6688-.5969-1.3351-.8916-2.0038-.3864-.8793-.7679-1.7611-1.1568-2.6404-.3418-.7753-.6935-1.5432-1.0279-2.3209-.1833-.426-.3691-.8546-.4979-1.2979-.2254-.7803.1809-1.6819.8868-2.0831.8545-.4855 1.8057-.384 2.5264.2774.2849.2601.4409.6143.5796.9734.488 1.2608.9859 2.5191 1.4763 3.7798.4756 1.2211.9437 2.4447 1.4168 3.6659.161.4161.3245.8322.4979 1.2434.0272.0693.104.1164.156.1758.0595-.0619.1461-.1114.1734-.1832.3889-1.0527.7678-2.1104 1.1542-3.1656.5995-1.6446 1.1989-3.2893 1.8082-4.9315.1536-.4112.3047-.8323.5226-1.2088.3171-.5424.8273-.8198 1.4565-.8991.9808-.1238 1.7833.4285 2.1128 1.1171.0421.0892.0817.1808.1362.2749.0149.3443.0174.6886.005 1.0527-.1833.4236-.3468.8249-.5202 1.2212-.2898.6638-.5895 1.3251-.8818 1.9889-.3765.8571-.748 1.7166-1.1245 2.576-.2923.6639-.592 1.3252-.8843 1.989-.374.8521-.7406 1.7066-1.1146 2.5587-.3443.7802-.7034 1.553-1.0378 2.3382-.3963.9264-.8719 1.8082-1.4193 2.6528-.5499.8521-1.1716 1.6521-1.9345 2.3258-.369.3245-.7926.5895-1.2062.8595-.1734.114-.3815.1709-.5747.2527-.2947 0-.5895.0025-.9016.0025v-.005ZM.359046 6.56592c.032201-.0545.071831-.08917.091647-.13376.322001-.78271.896647-1.21617 1.741277-1.31277.54741-.06192 1.03041.08422 1.45644.40869.51025.38888.80005.91399.80252 1.55799.00496 5.75643.00496 11.51523.00248 17.27163 0 .426.12632.7976.44832 1.0874.50777.4557.70593 1.0304.64401 1.6967-.0322.3616-.17587.6886-.40622.9709-.45576.5623-1.05765.8174-1.771.7753-.66878-.0396-1.25828-.3195-1.78587-.7233-.55731-.4285-.918941-.9883-1.117096-1.657-.009907-.0322-.034677-.062-.0644-.0991C.378862 25.2841.35657 24.167.35657 23.0499c-.002477-5.4889 0-10.9778 0-16.48398h.002476ZM19.3568.559153c.3617.056969.7109.111462 1.0577.175862.8397.161 1.6496.413645 2.4224.782705.6292.29971 1.236.63658 1.7958 1.05765.6514.49043 1.2632 1.01554 1.766 1.66202.2775.35668.1115.89417-.317 1.03784-.3542.11889-.6093.03715-.8669-.24522-.6614-.72079-1.3896-1.36231-2.2416-1.85274-.7753-.44585-1.5927-.79014-2.4621-.99325-.649-.15109-1.3029-.23283-1.9717-.25017-1.1418-.02972-2.2465.15109-3.319.53006-.8893.31457-1.7042.7728-2.4547 1.3425-.8669.66134-1.5926 1.45395-2.1524 2.38528-.5573.92637-.97098 1.91962-1.11712 3.00204-.04954.37649-.05944.75794-.11641 1.13447-.03716.2526.01734.5275-.21302.7455-.23778.2229-.50529.2378-.77528.1585-.30961-.0891-.46814-.3418-.46566-.6613.00743-.86197.11146-1.71156.33934-2.54133.29228-1.06508.75299-2.05337 1.37222-2.96736.44333-.65639.96103-1.25085 1.54313-1.78339.7703-.70592 1.6323-1.288 2.581-1.73137.8718-.40622 1.7809-.710881 2.7394-.854543.1833-.027246.3691-.056969.5623-.099077.7678-.019815 1.5258-.029723 2.2961-.039631l-.0025.004954ZM20.3569 20.3726c0 1.932.0025 3.8442 0 5.7588 0 .4162-.1065.8075-.4136 1.1072-.3146.3072-.6985.5177-1.0998.6936-.7554.3269-1.5332.587-2.3407.748-.5077.1015-1.018.2056-1.5307.2427-.7728.057-1.5555.109-2.3283.0694-1.3128-.0644-2.5711-.3716-3.65846-1.1617-.93875-.6836-1.52579-1.6026-1.74871-2.7444-.0644-.3295-.11642-.6713-.10651-1.0057.02972-1.0972.30962-2.1054 1.07251-2.945.62419-.6886 1.39451-1.1196 2.27387-1.3871.6811-.2056 1.3746-.322 2.0855-.3245.5326 0 1.0701-.0421 1.5976.0124.7704.0768 1.5333.2229 2.3284.3443-.0248.0297-.0099.0198-.0099.0124.0123-.6341.0569-1.2732-.1487-1.8899-.1709-.5128-.5375-.8422-1.0254-1.0354-.3839-.1511-.7902-.1981-1.2038-.2279-.9932-.0718-1.9419.1363-2.8807.4137-.4706.1387-.9387.265-1.43659.2551-.76537-.0149-1.49854-.6167-1.62982-1.3747-.14118-.8124.18825-1.4465.86197-1.8379.63905-.3715 1.34994-.5474 2.06574-.7009.7555-.1635 1.5209-.2502 2.2986-.2675.6242-.0149 1.241.0148 1.8602.0767.701.0719 1.3821.2205 2.0335.4806.9834.3913 1.7834 1.0081 2.3259 1.9344.3889.6614.5895 1.3822.696 2.1352.1214.8669.0495 1.7363.0718 2.6205m-9.172 4.4585c.208.4038.5474.6539.961.8075.7134.2601 1.4416.2948 2.1921.1907.7059-.0966 1.3623-.3096 1.9815-.6514.0669-.0372.1412-.1313.1437-.2006.0099-.7852.0099-1.5704 0-2.3556 0-.0545-.0694-.1288-.1239-.1585-.0842-.0446-.1832-.057-.2774-.0793-.5796-.1436-1.1616-.2576-1.7611-.2997-.7282-.0495-1.444-.0619-2.1425.2155-1.0279.4087-1.4738 1.5109-.9759 2.5314h.0025ZM38.7744 20.6891c.3542-1.0626.7035-2.1103 1.0502-3.1605.3146-.9512.6143-1.9073.9437-2.8559.2799-.8075.8472-1.2806 1.7091-1.397.5499-.0743 1.0453.0495 1.4862.3666.4334.3121.6985.7331.7901 1.2731.0892.5276-.0693 1.0032-.2501 1.4787-.4112 1.0775-.8348 2.15-1.2534 3.2225-.4706 1.2038-.9412 2.4051-1.4093 3.6089-.3864.9908-.7654 1.9816-1.1518 2.9723-.275.7084-.6564 1.3524-1.236 1.8577-.5226.4558-1.127.7233-1.8255.8075-.6836.0817-1.3276-.0149-1.9394-.3071-.4236-.2007-.7753-.4979-1.0874-.8571-.5499-.6316-.8372-1.392-1.127-2.1549-.3815-1.0056-.7703-2.0063-1.1567-3.0094-.3592-.9363-.7159-1.8726-1.075-2.8064-.3864-1.0081-.7778-2.0162-1.1617-3.0268-.1882-.4954-.4087-.9858-.3963-1.5308.0173-.743.483-1.4291 1.1567-1.7264.6861-.3022 1.3524-.2601 1.9915.114.4062.2377.6886.5919.8372 1.0378.3814 1.1394.7554 2.2812 1.1319 3.4231.2428.7406.488 1.4787.7282 2.2193.5029 1.5382 1.0007 3.0789 1.5085 4.6146.0223.0644.1288.1585.1709.1486.0743-.0198.161-.1016.1858-.1759.431-1.283.8545-2.5661 1.2805-3.8516.0298-.0917.062-.1833.0991-.2873v.0024ZM51.1119 24.3506c.0223.4582.1833.8198.5128 1.1369.8174.7852.7975 2.0831-.0099 2.841-.5326.5004-1.1865.6589-1.9023.5177-.6936-.1362-1.2955-.4731-1.7884-.9734-.4954-.5028-.8025-1.1146-.8718-1.828-.0199-.1981-.0347-.3988-.0347-.5969V7.01952c0-.86941.7208-1.70661 1.5728-1.86513.6118-.11394 1.1766-.0322 1.6819.33686.535.38888.8396.91647.8396 1.58524.005 5.75141 0 11.50531 0 17.27411ZM23.54 14.7181c.1535-.5003.4285-.8942.8694-1.1617.4111-.2477.8496-.3368 1.3326-.2848.4532.0471.8421.2229 1.1715.5201.3419.3097.5549.7084.6069 1.1667.0396.3418.0396.691.0396 1.0353.0025 3.6064.0074 7.2153 0 10.8217 0 .8174-.3517 1.4738-1.0898 1.8503-.9413.4805-2.1401.213-2.7098-.7579-.2006-.3394-.2898-.7035-.2898-1.0874-.0025-3.8219-.0025-7.6413 0-11.4632 0-.2106.0471-.4186.0718-.644l-.0024.0049Z" fill="#726988"/><path d="M18.5967 7.64561c.639.17339 1.0626.55731 1.2013 1.19636.2056.94619-.3195 1.81063-1.3054 1.97413-.8966.1486-1.6892-.3294-1.8874-1.22114-.208-.93628.3245-1.78835 1.3078-1.97412.2131-.03963.4459.01239.6837.02477ZM26.7089 9.90469c-.0941-.08174-.1932-.14861-.2551-.24026-.4558-.67125-1.4292-.6762-1.8751.00743-.1213.18825-.2873.28485-.4953.26751-.2353-.01982-.4063-.15852-.4533-.40126-.0446-.23036.0842-.41117.2204-.5697.4855-.56474 1.1122-.83224 1.8528-.76784.6663.05697 1.2062.36906 1.5902.92389.2427.34925.0842.73813-.3245.80748-.0793.01486-.1635-.01239-.2601-.02725Z" fill="#726988"/></svg>