<svg width="116" height="35" viewBox="0 0 116 35" fill="none" xmlns="http://www.w3.org/2000/svg"><g clip-path="url(#clip0_1855_8091)" fill="#726988"><path d="M41.7305 11.5107h2.1179V21.628h6.3312v1.9206h-8.4491V11.5107ZM52.0781 11.5107h2.118v12.0455h-2.118V11.5107ZM55.9512 11.5107h2.3373l3.6308 9.2553 3.6156-9.2553h2.2919l-5.0074 12.1287h-1.8608l-5.0074-12.1287ZM69.4531 11.5107h8.9333v1.8904h-6.8153v3.1305h6.0437v1.8904h-6.0437v3.2363h6.906v1.8903h-9.024V11.5107ZM79.7637 11.5107h.9984l4.72 11.0776 4.7352-11.0776h.9455l-5.3024 12.1287h-.7943l-5.3024-12.1287Z"/><path fill-rule="evenodd" clip-rule="evenodd" d="M92.0469 17.5676v-.0378c0-3.2817 2.4281-6.2232 6.0815-6.2232 3.6456 0 6.0366 2.9037 6.0366 6.1929.015.0151.015.0151 0 .0303 0 3.2892-2.428 6.2306-6.0744 6.2306-3.6459 0-6.0437-2.9111-6.0437-6.1928Zm11.1871 0v-.0378c0-2.9717-2.163-5.4216-5.1434-5.4216-2.9803 0-5.1133 2.4121-5.1133 5.3913v.0303c0 2.9792 2.1709 5.4216 5.1511 5.4216 2.9726 0 5.1056-2.4122 5.1056-5.3838Z"/><path d="m109.809 17.4087-4.629-5.898h1.066l4.108 5.3007 4.099-5.3007h1.052l-4.607 5.8829 4.781 6.1626h-1.067l-4.289-5.5577-4.266 5.5577h-1.051l4.803-6.1475Z"/><path fill-rule="evenodd" clip-rule="evenodd" d="M.0449219 17.5297c0 9.2704 7.4960481 16.7639 16.7696781 16.7639 9.2736 0 16.7621-7.4935 16.7621-16.7639 0-9.27038-7.4885-16.756262-16.7621-16.756262C7.54097.773438.0449219 8.25932.0449219 17.5297ZM10.0223 9.40137s1.3237 3.27413 7.0497 3.19093c6.2177-.1058 7.0498.5369 7.0498.5369-.0379-.0556-.0808-.1252-.1306-.206-.5662-.9191-2.0309-3.29644-7.3428-3.22693-5.431.06805-6.1042-.12099-6.6261-.2949Zm6.8229 9.48963c-7.15568.1135-8.81979-3.9924-8.81979-3.9924.65808.2268 1.49769.4612 8.29029.3705 6.6646-.0836 8.4948 2.903 9.1978 4.0501h.0001c.0605.0988.1127.184.1589.2524 0 0-1.0287-.8016-8.8273-.6806Zm-.2346 6.7449c-7.84404.121-9.65943-4.3705-9.65943-4.3705.71859.2495 1.64141.5066 9.07693.4083 7.2841-.0905 9.2919 3.1772 10.0605 4.4281.0663.1079.1233.2007.1738.2751 0 0-1.1346-.8771-9.6518-.741Z"/></g><defs><clipPath id="clip0_1855_8091"><path fill="#726988" d="M0 .698242h115.731v33.6487H0z"/></clipPath></defs></svg>