<svg width="382" height="250" viewBox="0 0 382 250" fill="none" xmlns="http://www.w3.org/2000/svg">
<g clip-path="url(#clip0_1122_623)">
<path d="M335.559 57.0318V61.0265L346.751 66.611L335.559 72.1955V76.1923L354.806 66.611L335.559 57.0318ZM335.559 80.1403V84.135L358.809 72.5818L382.062 84.135V80.1403L358.809 68.585L335.559 80.1403ZM358.809 52.5532L335.559 41V44.9968L358.809 56.55L382.062 44.9968V41L358.809 52.5532ZM382.062 68.1541V64.1573L370.87 58.5728L382.062 52.9883V48.9915L362.815 58.5728L382.062 68.152V68.1541ZM335.559 52.9862L382.062 76.1435V72.1467L335.559 48.9915V52.9883V52.9862Z" fill="#726988"/>
<path d="M120.698 131.556V111.287H147.857V84.1818H120.698V57.0807H93.5377V131.558C93.5377 156.591 113.944 176.955 139.029 176.955H147.859V149.85H139.029C128.898 149.85 120.698 141.668 120.698 131.558V131.556ZM34.3942 121.013L48.0955 145.951C48.3193 146.352 48.4339 146.804 48.4278 147.263C48.4218 147.722 48.2953 148.172 48.0611 148.566C47.8268 148.961 47.493 149.288 47.093 149.513C46.693 149.738 46.2409 149.854 45.7819 149.85H0V176.955H53.404C72.3587 176.955 84.3724 156.685 75.256 140.124L61.5547 115.188C60.5911 113.405 61.8434 111.24 63.8683 111.24H87.6051V84.1839H56.2483C37.3361 84.1839 25.2799 104.452 34.3964 121.011L34.3942 121.013ZM329.097 111.287H335.609V84.1818H329.819C313.804 84.1818 298.85 91.5493 289.106 103.826C284.234 97.6996 278.043 92.7514 270.994 89.3504C263.944 85.9494 256.217 84.1834 248.39 84.1839H242.602V111.289H249.114C261.028 111.289 271.015 119.521 273.717 130.592C271.015 141.665 261.028 149.899 249.114 149.899H242.602V129.724C242.602 103.68 221.376 82.4477 195.228 82.4477C169.131 82.4477 147.857 103.68 147.857 129.724C147.857 155.768 169.131 177 195.228 177H209.556V149.895H195.228C184.085 149.895 175.017 140.846 175.017 129.724C175.017 118.602 184.085 109.553 195.228 109.553C206.372 109.553 215.442 118.604 215.442 129.724V177H248.39C264.405 177 279.361 169.635 289.106 157.358C293.976 163.484 300.167 168.432 307.216 171.833C314.266 175.234 321.992 177.001 329.819 177H335.609V149.895H329.097C317.181 149.895 307.194 141.663 304.494 130.59C307.147 119.47 317.132 111.285 329.097 111.285V111.287Z" fill="#726988"/>
</g>
<defs>
<clipPath id="clip0_1122_623">
<rect width="382" height="250" fill="white"/>
</clipPath>
</defs>
</svg>
