<svg width="169" height="87" viewBox="0 0 169 87" fill="none" xmlns="http://www.w3.org/2000/svg">
<path d="M157.319 28.5098L156.6 27.9956V15.3921H114.891L114.011 14.4742L112.879 13.3594L112.105 12.6454L110.917 11.615L110.103 10.955L108.855 10.0051L107.586 9.11176L106.268 8.25765L104.93 7.46243L103.563 6.71579L102.173 6.02522L100.756 5.38675L99.7984 4.99148L98.3452 4.44271L96.8808 3.95352L95.3743 3.51292L93.8636 3.13353L92.3325 2.80762L90.7907 2.54248L89.2346 2.33409L87.6645 2.1841L86.0833 2.09534L84.4945 2.06496L83.4328 2.07875L81.8505 2.1479L80.2746 2.27826L78.7145 2.46748L77.237 2.7032L75.6327 3.01998L74.1142 3.38303L72.6143 3.80167L71.2546 4.23573L69.6702 4.80668L68.233 5.39095L66.8137 6.0299L65.4237 6.72117L64.0593 7.46687L62.7222 8.26303L61.4138 9.11129L60.1351 10.0102L58.8896 10.9597L57.6733 11.9598L56.4959 13.0071L55.3531 14.1034L54.1062 15.3921H12.3979V27.9956L11.6789 28.5098C7.27233 31.6625 2.01953 36.785 2.01953 43.2853C2.01953 49.7871 7.27233 54.9101 11.6782 58.0625L12.3979 58.5783V71.1823H54.1067L55.3601 72.4759L56.1177 73.2118L57.2846 74.2749L58.4863 75.2902L59.7222 76.2562L60.9907 77.1711L62.2906 78.0383L63.6196 78.8512L64.976 79.6131L66.3553 80.3198L67.754 80.9753L69.1873 81.5773L70.6538 82.1303L72.1278 82.6223L73.6193 83.0587L75.1333 83.4411L76.1522 83.6619L77.6903 83.9487L79.2438 84.1772L80.2858 84.2961L81.8606 84.4258L83.4429 84.4942L84.498 84.5073L86.0922 84.4777L87.674 84.3875L89.2418 84.2384L90.7996 84.03L92.3433 83.7621L93.8727 83.4385L95.3853 83.0563L96.8811 82.6188L98.3574 82.1258L99.8069 81.578L101.242 80.976L102.646 80.3186L104.031 79.6086L105.385 78.847L106.276 78.3093L107.583 77.4615L108.862 76.5627L110.11 75.6131L111.324 74.6116L112.501 73.5659L113.645 72.4691L114.89 71.1823H156.6V58.5783L157.319 58.0627C161.726 54.9087 166.978 49.7843 166.978 43.2853C166.978 36.7875 161.726 31.6639 157.319 28.5098Z" fill="#1C0D3F"/>
<path d="M82.9964 82.1085L84.5121 82.1372L86.5081 82.0867L88.4908 81.9351L90.4476 81.6847L92.3814 81.3378L94.2959 80.8937L96.1764 80.3552L98.015 79.7249L99.8354 79.0009L101.172 78.3987L102.914 77.5158L104.611 76.5496L106.258 75.4955L107.862 74.3529L109.41 73.1266L110.894 71.8219L112.323 70.4335L113.876 68.8113H154.227V57.3601L155.937 56.1362C159.891 53.3048 164.605 48.7785 164.605 43.2855C164.605 37.7946 159.891 33.268 155.937 30.4368L154.227 29.2139V17.7634H113.873L111.605 15.4254L110.513 14.4038L109.01 13.1182L107.45 11.9158L105.836 10.7972L104.173 9.76323L102.465 8.81802L100.709 7.95902L98.9167 7.19205L97.086 6.51598L95.2172 5.93123L93.321 5.44134L91.3993 5.0463L89.4472 4.74773L87.4795 4.54893L85.4888 4.44823L84.4896 4.43562L82.4882 4.48702L80.5099 4.63863L78.552 4.88837L76.6191 5.23505L74.7037 5.67963L72.8244 6.21741L70.9752 6.84864L69.163 7.57239L67.394 8.38443L65.6583 9.28899L63.974 10.2781L62.3311 11.3572L60.7474 12.518L59.2152 13.7644L57.7414 15.0918L56.328 16.5012L55.1239 17.7634H14.772V29.2127L13.062 30.4368C9.10821 33.2669 4.39453 37.7936 4.39453 43.2855C4.39453 48.7797 9.10821 53.3062 13.062 56.1362L14.772 57.3601V68.8113H55.123L57.3976 71.1526L58.8566 72.4973L60.3777 73.767L61.9462 74.9437L63.5724 76.041L65.2483 77.0516L66.9728 77.98L68.7146 78.8063L70.5392 79.5602L72.3804 80.2117L74.2546 80.7738L76.1534 81.2399L78.0905 81.6123L80.0391 81.8837L82.0216 82.0601L82.9964 82.1085Z" fill="#726988"/>
<path fill-rule="evenodd" clip-rule="evenodd" d="M13.1213 70.4597H54.4163L55.1391 71.2157L55.5016 71.5902L55.8681 71.9614L56.2377 72.3251L56.6126 72.6842L56.9903 73.0381L57.3725 73.3867L57.7587 73.7289L58.1479 74.0663L58.5425 74.3994L58.9401 74.7274L59.3417 75.05L59.7454 75.3661L60.1542 75.6764L60.5664 75.9829L60.9815 76.2819L61.4007 76.5758L61.8228 76.8657L62.2473 77.1491L62.6759 77.4264L63.1095 77.6988L63.5434 77.966L63.9819 78.2256L64.423 78.4804L64.8672 78.7311L65.3151 78.9745L65.7633 79.2119L66.2177 79.4457L66.6729 79.6707L67.1304 79.8938L67.5907 80.1071H67.593L68.0554 80.3185H68.0566L68.5232 80.5199L68.9922 80.7175L69.4609 80.9086H69.4632L69.935 81.0948L70.4117 81.2724L70.8909 81.4476L71.3711 81.6137H71.3723L71.8553 81.7749L72.3399 81.9312L72.8262 82.08L73.3152 82.2232H73.3176L73.8071 82.3606L74.2992 82.4926L74.796 82.6164L75.2919 82.736L75.7926 82.8481L76.2946 82.9533L76.7954 83.0535L77.2982 83.1465H77.3003L77.8053 83.2355L78.3122 83.3165L78.8204 83.3899L79.3303 83.4597L79.8414 83.5209L80.3536 83.5765L80.8686 83.6249L81.3841 83.6674L81.9013 83.7043L82.4175 83.7331L82.9372 83.756H82.9381L83.4562 83.7714L83.9769 83.7807L84.4984 83.7847L85.0207 83.7807L85.5423 83.7714L86.0606 83.756L86.5787 83.7331H86.5799L87.0975 83.7043L87.6146 83.6674L88.1278 83.6249L88.6435 83.5765L89.1562 83.5209L89.6666 83.4597H89.6675L90.1781 83.3899L90.6854 83.3165L91.1925 83.2355L91.6986 83.1465H91.6998L92.202 83.0535L92.7044 82.9533L93.2059 82.8481L93.7036 82.736L94.2004 82.6164H94.2027L94.6963 82.4926L95.1907 82.3606L95.6821 82.2232L96.1714 82.08L96.6591 81.9312L97.1442 81.7749L97.6267 81.6137L98.1083 81.4476L98.5857 81.2724L99.0621 81.0948L99.5353 80.9086L100.007 80.7175L100.476 80.5199L100.942 80.3185L101.407 80.1071L101.866 79.8938L102.326 79.6707L102.781 79.4457L103.234 79.2119L103.685 78.9745L104.131 78.7311L104.575 78.4804L105.017 78.2256L105.455 77.966L105.89 77.6988L106.321 77.4264L106.75 77.1491L107.175 76.8657L107.598 76.5758L108.017 76.2819L108.431 75.9829L108.845 75.6764L109.253 75.3661L109.657 75.05L110.059 74.7274L110.457 74.3994L110.85 74.0663L111.238 73.7289L111.626 73.3867L112.007 73.0381L112.386 72.6842L112.76 72.3251L113.131 71.9614L113.497 71.5902L113.86 71.2157L114.581 70.4597H155.877V58.2075L156.898 57.4753C161.479 54.1965 166.256 49.3088 166.256 43.2848C166.256 37.2629 161.479 32.3752 156.898 29.0966L155.877 28.3663V16.1139H114.581L113.86 15.3563L113.497 14.9813L113.131 14.6106L112.76 14.248L112.386 13.887L112.007 13.5338L111.626 13.1857L111.238 12.8423L110.85 12.5045L110.457 12.1721L110.059 11.8438L109.657 11.5233L109.253 11.207L108.845 10.8951L108.431 10.5898L108.017 10.2903L107.598 9.9957L107.177 9.70649H107.175L106.752 9.42403H106.75L106.321 9.14697L105.89 8.8727L105.455 8.60593L105.017 8.34684L104.575 8.0908L104.131 7.8406L103.685 7.59646L103.234 7.35865L102.781 7.12713L102.326 6.90123L101.866 6.67882L101.407 6.4639L100.942 6.2562L100.476 6.05203L100.007 5.85439L99.5353 5.66352L99.0621 5.4785L98.5857 5.29909L98.1083 5.12482L97.6267 4.95754L97.1442 4.79682L96.6591 4.64053H96.6579L96.1714 4.49194H96.1693L95.6821 4.34851L95.1907 4.21091L94.6963 4.08102L94.2027 3.9558H94.2004L93.7036 3.83712L93.2059 3.72404L92.7044 3.61846L92.202 3.51753L91.6998 3.42503H91.6986L91.1925 3.33694L90.6854 3.25658L90.1781 3.18159L89.6675 3.11314H89.6666L89.1562 3.0517L88.6435 2.99564L88.1278 2.94704L87.6146 2.90429L87.0975 2.86807L86.5799 2.83865H86.5787L86.0606 2.81669L85.5423 2.8001L85.0207 2.78912L84.4984 2.78679L83.9769 2.78912L83.4562 2.8001L82.9381 2.81669H82.9372L82.4175 2.83865L81.9013 2.86807L81.3841 2.90429L80.8686 2.94704L80.3536 2.99564L79.8414 3.0517L79.3303 3.11314L78.8204 3.18159L78.3122 3.25658L77.8053 3.33694L77.3003 3.42503H77.2982L76.7954 3.51753L76.2946 3.61846L75.7926 3.72404L75.2919 3.83712L74.796 3.9558L74.2992 4.08102L73.8071 4.21091L73.3176 4.34851H73.3152L72.8262 4.49194L72.3399 4.64053L71.8553 4.79682L71.3723 4.95754H71.3711L70.8909 5.12482L70.4117 5.29909L69.935 5.4785L69.4632 5.66352H69.4609L68.9922 5.85439L68.5232 6.05203L68.0566 6.2562H68.0554L67.593 6.4639H67.5907L67.1304 6.67882L66.6729 6.90123L66.2177 7.12713L65.7633 7.35865L65.3151 7.59646L64.8672 7.8406L64.423 8.0908L63.9819 8.34684L63.5434 8.60593L63.1095 8.8727L62.6759 9.14697L62.2473 9.42403L61.8228 9.70649L61.4007 9.9957L60.9815 10.2903L60.5664 10.5898L60.1542 10.8951L59.7454 11.207L59.3417 11.5233L58.9401 11.8438L58.5425 12.1721L58.1479 12.5045L57.7587 12.8423L57.3725 13.1857L56.9903 13.5338L56.6126 13.887L56.2377 14.248L55.8681 14.6106L55.5016 14.9813L55.1391 15.3563L54.4163 16.1139H13.1213V28.3663L12.1004 29.0966C7.51767 32.3752 2.74294 37.2629 2.74294 43.2848C2.74294 49.3088 7.51767 54.1965 12.1004 57.4753L13.1213 58.2075V70.4597ZM10.6743 72.9019H53.3694C61.1993 81.1105 72.2529 86.2292 84.4984 86.2292C96.7456 86.2292 107.797 81.1105 115.629 72.9019H158.324V59.4615C164.907 54.7469 168.701 49.21 168.701 43.2848C168.701 37.3619 164.905 31.8236 158.324 27.1104V13.6709H115.629C107.797 5.46098 96.7456 0.344101 84.4984 0.344101C72.2529 0.342232 61.1993 5.46098 53.3694 13.6709H10.6743V27.1104C4.09158 31.8236 0.296875 37.3619 0.296875 43.2848C0.296875 49.21 4.09158 54.7469 10.6743 59.4615V72.9019Z" fill="#726988"/>
<path d="M90.7344 21.2335V22.0928L131.937 21.6657L90.7344 21.2335Z" fill="#1C0D3F"/>
<path d="M78.8228 21.2335V22.0928L37.6211 21.6657L78.8228 21.2335Z" fill="#1C0D3F"/>
<path d="M87.0609 21.6632C87.0609 22.9214 86.04 23.9414 84.78 23.9414C83.5212 23.9414 82.5 22.9214 82.5 21.6632C82.5 20.4049 83.5212 19.3852 84.78 19.3852C86.04 19.3852 87.0609 20.4049 87.0609 21.6632Z" fill="#1C0D3F"/>
<path d="M90.7344 64.7828V65.6414L131.937 65.2143L90.7344 64.7828Z" fill="#1C0D3F"/>
<path d="M78.8228 64.7828V65.6414L37.6211 65.2143L78.8228 64.7828Z" fill="#1C0D3F"/>
<path d="M87.0609 65.212C87.0609 66.4705 86.04 67.4893 84.78 67.4893C83.5212 67.4893 82.5 66.4705 82.5 65.212C82.5 63.9537 83.5212 62.9335 84.78 62.9335C86.04 62.9335 87.0609 63.9537 87.0609 65.212Z" fill="#1C0D3F"/>
<path d="M97.125 55.4189V31.9494H99.6237V53.027H112.091V55.4189H97.125Z" fill="#1C0D3F"/>
<path d="M114.012 31.9494H116.51V55.4189H114.012V31.9494Z" fill="#1C0D3F"/>
<path d="M118.809 55.4189V31.9494H135.063V34.2606H121.308V42.2671H130.644V44.5392H121.308V55.4189H118.809Z" fill="#1C0D3F"/>
<path d="M137.137 55.4189V31.9494L152.735 31.9062V34.1781L139.637 34.2216V42.3836H148.62V44.6154H139.637V53.0674H152.894V55.4189H137.137Z" fill="#1C0D3F"/>
<path d="M19.9318 34.6205H16.0781V30.9829H27.3902V34.6205H23.555V54.9775H19.9318V34.6205Z" fill="#1C0D3F"/>
<path d="M32.432 36.478L31.0894 45.9385H33.7732L32.432 36.478ZM30.5279 49.4616L29.6473 54.9775H25.875L29.9579 30.9828H34.9433L38.9694 54.9775H35.159L34.3111 49.4616H30.5279Z" fill="#1C0D3F"/>
<path d="M60.6487 36.345C60.6487 35.7696 60.4473 35.2816 60.0445 34.8795C59.6418 34.4772 59.1534 34.277 58.5783 34.277C58.0022 34.277 57.5108 34.4772 57.1019 34.8795C56.6928 35.2816 56.4882 35.7696 56.4882 36.345V49.4817C56.4882 50.0559 56.6928 50.5437 57.1019 50.9458C57.5108 51.3483 58.0022 51.5501 58.5783 51.5501C59.1534 51.5501 59.6418 51.3483 60.0445 50.9458C60.4473 50.5437 60.6487 50.0559 60.6487 49.4817V36.345ZM58.6742 30.6768C60.2719 30.6768 61.6297 31.2389 62.7479 32.3609C63.8662 33.4853 64.4259 34.8382 64.4259 36.4214V49.5193C64.4259 51.1149 63.8631 52.4725 62.7388 53.5894C61.6133 54.7061 60.2586 55.2642 58.6742 55.2642C57.0762 55.2642 55.721 54.703 54.6102 53.5789C53.4969 52.4556 52.9414 51.1025 52.9414 49.5193V36.4214C52.9414 34.826 53.5032 33.4685 54.6287 32.3516C55.7533 31.2347 57.1019 30.6768 58.6742 30.6768Z" fill="#1C0D3F"/>
<path d="M77.436 49.0028C77.462 50.6745 77.0272 52.1038 76.132 53.2922C75.5445 54.0968 74.713 54.6638 73.6401 54.9957C73.0652 55.1754 72.3939 55.2642 71.6268 55.2642C70.2082 55.2642 69.0319 54.9135 68.0996 54.2101C67.3198 53.6366 66.7024 52.8549 66.2493 51.8655C65.7948 50.8769 65.5294 49.7422 65.4531 48.4655L68.9038 48.2169C69.0577 49.6165 69.4284 50.6304 70.0159 51.2581C70.4507 51.7328 70.9494 51.9576 71.5122 51.933C72.3041 51.9071 72.937 51.5177 73.41 50.7621C73.6528 50.393 73.7746 49.863 73.7746 49.1731C73.7746 48.1756 73.3202 47.1846 72.4134 46.202C71.6967 45.5247 70.6231 44.5083 69.1919 43.154C67.9902 41.9917 67.1404 40.95 66.6425 40.0291C66.1057 38.9944 65.8372 37.8705 65.8372 36.6564C65.8372 34.4709 66.5714 32.8167 68.0416 31.6925C68.9491 31.0151 70.0737 30.6768 71.416 30.6768C72.7069 30.6768 73.8116 30.9637 74.7329 31.5381C75.4481 31.9855 76.0275 32.6104 76.4686 33.415C76.9097 34.2196 77.1747 35.1445 77.2636 36.1904L73.7931 36.8225C73.6909 35.8397 73.41 35.0744 72.9494 34.5247C72.6168 34.1299 72.1378 33.9318 71.5122 33.9318C70.8472 33.9318 70.3422 34.2256 69.9975 34.8125C69.7154 35.2849 69.575 35.8726 69.575 36.5742C69.575 37.6724 70.0489 38.7884 70.9941 39.9249C71.3522 40.359 71.8878 40.8697 72.6044 41.4575C73.4483 42.1597 74.0048 42.6517 74.2724 42.9323C75.1663 43.8254 75.8572 44.7061 76.3437 45.5745C76.5727 45.9828 76.7586 46.3594 76.899 46.7052C77.2442 47.56 77.4238 48.3251 77.436 49.0028Z" fill="#1C0D3F"/>
<path d="M45.7526 55.2834C44.1542 55.2834 42.7964 54.7246 41.6782 53.6075C40.5597 52.4908 40 51.1407 40 49.5578V36.4596C40 34.864 40.563 33.5067 41.6873 32.3898C42.8119 31.2729 44.1675 30.7148 45.7526 30.7148C47.3499 30.7148 48.7051 31.2759 49.817 32.3989C50.9292 33.5233 51.4847 34.8764 51.4847 36.4596V39.1988H47.7269V36.3832C47.7269 35.8076 47.5225 35.3168 47.1137 34.9084C46.7046 34.5 46.2122 34.2959 45.6371 34.2959C45.0617 34.2959 44.5733 34.5 44.1708 34.9084C43.768 35.3168 43.5669 35.8076 43.5669 36.3832V49.5192C43.5669 50.0939 43.768 50.5817 44.1708 50.9851C44.5733 51.3863 45.0617 51.5874 45.6371 51.5874C46.2122 51.5874 46.7046 51.3863 47.1137 50.9851C47.5225 50.5817 47.7269 50.0939 47.7269 49.5192V46.2068H51.4847V49.5578C51.4847 51.1531 50.9226 52.5062 49.7983 53.618C48.6728 54.7286 47.3242 55.2834 45.7526 55.2834Z" fill="#1C0D3F"/>
<path d="M76.6206 72.945C76.5168 72.7377 76.4064 72.5366 76.2892 72.3404C76.172 72.1444 76.0368 71.9703 75.8846 71.8175C75.7316 71.665 75.5557 71.5423 75.3567 71.4503C75.1576 71.3573 74.9244 71.311 74.6573 71.311C74.3465 71.311 74.0698 71.3872 73.8272 71.5395C73.5845 71.6923 73.377 71.8909 73.2053 72.1362C73.0336 72.3812 72.9027 72.6567 72.8128 72.9613C72.7226 73.2666 72.6779 73.5715 72.6779 73.8764C72.6779 74.2196 72.7226 74.5452 72.8128 74.8529C72.9027 75.1606 73.0336 75.429 73.2053 75.6575C73.377 75.8864 73.5845 76.0689 73.8272 76.2051C74.0698 76.3415 74.3465 76.4092 74.6573 76.4092C74.9193 76.4092 75.1754 76.3835 75.4261 76.3315C75.6771 76.2798 75.9115 76.1749 76.1297 76.017V74.9629C76.1297 74.5929 75.8488 74.3994 75.2872 74.3831V74.2852C75.4944 74.2904 75.6851 74.2974 75.86 74.3053C76.0343 74.3132 76.2305 74.3174 76.4487 74.3174C76.6506 74.3174 76.8522 74.3151 77.0543 74.3095C77.2559 74.3041 77.4578 74.296 77.6596 74.2852V74.3831C77.545 74.3885 77.4386 74.4023 77.3403 74.4237C77.2423 74.4457 77.1591 74.481 77.0908 74.53C77.0227 74.5789 76.9682 74.6459 76.9273 74.7305C76.8866 74.8148 76.866 74.9225 76.866 75.0526V76.1967C76.4897 76.3223 76.1175 76.438 75.7494 76.544C75.3812 76.6503 75.0255 76.7034 74.6819 76.7034C74.3165 76.7034 73.9592 76.6422 73.6104 76.5195C73.2612 76.3969 72.949 76.2163 72.6737 75.9761C72.3981 75.7362 72.1773 75.4425 72.0111 75.094C71.8448 74.7452 71.7617 74.3422 71.7617 73.8846C71.7617 73.4872 71.8448 73.1153 72.0111 72.7693C72.1773 72.4235 72.3981 72.1254 72.6737 71.8748C72.949 71.6246 73.2612 71.4267 73.6104 71.2823C73.9592 71.1384 74.3165 71.066 74.6819 71.066C74.9055 71.066 75.1073 71.0756 75.2872 71.0943C75.4673 71.1136 75.6308 71.1384 75.7782 71.1681C75.9253 71.1977 76.0588 71.229 76.1788 71.262C76.2988 71.2947 76.4134 71.3248 76.5224 71.3519C76.5224 71.4393 76.5292 71.5549 76.5428 71.6988C76.5566 71.8432 76.5741 71.9932 76.5961 72.1486C76.6178 72.3037 76.6398 72.4534 76.6613 72.5978C76.6833 72.7422 76.7025 72.8581 76.7186 72.945H76.6206Z" fill="#1C0D3F"/>
<path d="M79.6058 73.6972C79.8509 73.7897 80.1047 73.8362 80.3664 73.8362C80.7918 73.8362 81.1219 73.7383 81.3562 73.5421C81.5906 73.3458 81.708 73.0274 81.708 72.5861C81.708 72.4065 81.6739 72.2443 81.6056 72.1C81.5375 71.9556 81.4432 71.8304 81.3237 71.7243C81.2035 71.618 81.0657 71.536 80.9104 71.4788C80.7549 71.422 80.5926 71.3933 80.4237 71.3933C80.2873 71.3933 80.1538 71.3987 80.0228 71.4096C79.892 71.4204 79.7636 71.4449 79.6385 71.483C79.6273 71.7446 79.6193 72.0089 79.6139 72.2754C79.6083 72.5427 79.6058 72.8312 79.6058 73.1414V73.6972ZM83.7527 76.5405H82.2806C81.937 76.1649 81.6194 75.7794 81.3275 75.3844C81.0358 74.9893 80.7755 74.5714 80.5462 74.1303C80.4918 74.1303 80.4223 74.125 80.3378 74.114C80.2532 74.1032 80.1659 74.0908 80.0761 74.0773C79.9861 74.0638 79.8988 74.0472 79.8144 74.0282C79.7295 74.0091 79.6603 73.9913 79.6058 73.975V75.2498C79.6058 75.4785 79.6123 75.6678 79.6261 75.8173C79.6397 75.9675 79.6752 76.0883 79.7325 76.181C79.7896 76.2738 79.8757 76.342 79.9903 76.3852C80.1047 76.4291 80.2628 76.4588 80.4646 76.4751V76.5735C80.2572 76.5623 80.0502 76.5539 79.8427 76.5487C79.6355 76.5431 79.4285 76.5405 79.221 76.5405C79.0194 76.5405 78.8203 76.5431 78.6241 76.5487C78.4279 76.5539 78.2316 76.5623 78.0352 76.5735V76.4751C78.2316 76.4588 78.3839 76.4291 78.4934 76.3852C78.6021 76.342 78.6854 76.2738 78.7427 76.181C78.8 76.0883 78.8353 75.9675 78.8491 75.8173C78.8627 75.6678 78.8695 75.4785 78.8695 75.2498V72.521C78.8695 72.2918 78.8627 72.103 78.8491 71.9528C78.8353 71.8033 78.8 71.682 78.7427 71.5893C78.6854 71.4968 78.6021 71.4286 78.4934 71.3853C78.3839 71.3414 78.2316 71.3115 78.0352 71.2952V71.1973C78.2096 71.208 78.3839 71.2162 78.5586 71.2216C78.7331 71.2272 78.9076 71.2295 79.0823 71.2295C79.1583 71.2295 79.254 71.2258 79.3684 71.2174C79.483 71.2094 79.6041 71.2003 79.7325 71.1891C79.8607 71.1781 79.9903 71.1685 80.121 71.1604C80.252 71.1522 80.3692 71.1482 80.4728 71.1482C80.7072 71.1482 80.9471 71.1781 81.1927 71.2379C81.4379 71.298 81.6589 71.3933 81.8554 71.5239C82.0516 71.6547 82.2123 71.821 82.3379 72.0222C82.4635 72.2238 82.5262 72.4635 82.5262 72.7415C82.5262 72.9321 82.4918 73.1008 82.4237 73.2475C82.3552 73.3949 82.2642 73.5229 82.1496 73.632C82.035 73.7409 81.9003 73.8306 81.745 73.9016C81.5894 73.9724 81.4271 74.0243 81.2582 74.0567C81.3345 74.1876 81.4243 74.3347 81.5281 74.4983C81.6315 74.6616 81.7475 74.8277 81.8757 74.9966C82.0039 75.1652 82.1402 75.333 82.2848 75.4989C82.4291 75.665 82.5818 75.8147 82.743 75.9483C82.9037 76.0815 83.0686 76.1934 83.2377 76.2829C83.4065 76.373 83.5782 76.4263 83.7527 76.4424V76.5405Z" fill="#1C0D3F"/>
<path d="M84.0047 76.4751C84.2009 76.459 84.3536 76.4293 84.4626 76.3852C84.5718 76.3422 84.6549 76.274 84.7122 76.181C84.7695 76.0885 84.805 75.9675 84.8184 75.8175C84.8322 75.6678 84.839 75.4785 84.839 75.2498V72.521C84.839 72.292 84.8322 72.103 84.8184 71.953C84.805 71.8033 84.7695 71.682 84.7122 71.5893C84.6549 71.4968 84.569 71.4286 84.4544 71.3853C84.3401 71.3414 84.1845 71.3115 83.9883 71.2952V71.1973C84.2175 71.208 84.4395 71.2162 84.6549 71.2218C84.8703 71.2272 85.0925 71.2298 85.3217 71.2298C85.5016 71.2298 85.6814 71.2272 85.8613 71.2218C86.0416 71.2162 86.2187 71.208 86.3932 71.1973V71.2952C86.2023 71.3115 86.0524 71.3414 85.9432 71.3853C85.8339 71.4286 85.7525 71.4968 85.6978 71.5893C85.6433 71.682 85.6092 71.8033 85.5956 71.953C85.582 72.103 85.5753 72.292 85.5753 72.521V75.2498C85.5753 75.4785 85.582 75.6678 85.5956 75.8175C85.6092 75.9675 85.6447 76.0885 85.702 76.181C85.7591 76.274 85.8449 76.3422 85.9595 76.3852C86.0744 76.4293 86.232 76.459 86.4341 76.4751V76.5735C86.2269 76.5623 86.0194 76.5539 85.8124 76.5487C85.6052 76.5431 85.398 76.5405 85.1907 76.5405C84.9889 76.5405 84.7898 76.5431 84.5936 76.5487C84.3971 76.5539 84.2009 76.5623 84.0047 76.5735V76.4751Z" fill="#1C0D3F"/>
<path d="M89.7555 71.2952C89.494 71.3332 89.2893 71.3769 89.1422 71.426C88.9949 71.4751 88.887 71.536 88.8192 71.6098C88.7509 71.6834 88.7086 71.7759 88.6922 71.8876C88.6758 71.9993 88.6681 72.1369 88.6681 72.3002V76.2219C88.815 76.2492 88.9579 76.274 89.0973 76.2955C89.236 76.3172 89.3768 76.3282 89.5186 76.3282C89.8399 76.3282 90.1208 76.2955 90.3608 76.2301C90.6008 76.1649 90.8162 76.0668 91.0071 75.9357C91.1979 75.8054 91.374 75.6407 91.5345 75.4419C91.6956 75.2428 91.8577 75.0101 92.0215 74.7431H92.1443L91.5144 76.5735C91.3181 76.5623 91.1207 76.5539 90.9212 76.5487C90.7224 76.5431 90.5245 76.5405 90.3283 76.5405H87.9234C87.787 76.5405 87.6507 76.5431 87.5146 76.5487C87.378 76.5539 87.2416 76.5623 87.1055 76.5735V76.4751C87.2851 76.459 87.4285 76.4314 87.5349 76.3934C87.6411 76.3555 87.7241 76.3076 87.7842 76.2506C87.8443 76.1934 87.8839 76.1238 87.9028 76.0425C87.922 75.9605 87.9314 75.8652 87.9314 75.7561V72.521C87.9314 72.292 87.9246 72.103 87.911 71.9528C87.8974 71.8033 87.8633 71.682 87.8088 71.5893C87.7541 71.4968 87.6727 71.4286 87.5634 71.3853C87.4542 71.3414 87.3019 71.3115 87.1055 71.2952V71.1973C87.3178 71.208 87.5291 71.2162 87.7393 71.2218C87.9491 71.2272 88.1608 71.2298 88.3734 71.2298C88.6024 71.2298 88.8325 71.2272 89.0646 71.2218C89.2961 71.2162 89.5265 71.208 89.7555 71.1973V71.2952Z" fill="#1C0D3F"/>
<path d="M95.0565 71.2952C94.795 71.3332 94.5906 71.3769 94.4435 71.426C94.2959 71.4751 94.1883 71.536 94.12 71.6098C94.0519 71.6834 94.0098 71.7759 93.9935 71.8876C93.9771 71.9993 93.9689 72.1369 93.9689 72.3002V76.2219C94.116 76.2492 94.2589 76.274 94.3986 76.2955C94.5375 76.3172 94.6778 76.3282 94.8196 76.3282C95.1412 76.3282 95.4219 76.2955 95.6621 76.2301C95.9018 76.1649 96.1172 76.0668 96.3083 75.9357C96.4989 75.8054 96.6748 75.6407 96.8357 75.4419C96.9967 75.2428 97.159 75.0101 97.3225 74.7431H97.4455L96.8156 76.5735C96.6192 76.5623 96.4215 76.5539 96.2222 76.5487C96.0234 76.5431 95.8256 76.5405 95.6293 76.5405H93.2244C93.0881 76.5405 92.9519 76.5431 92.8158 76.5487C92.679 76.5539 92.5428 76.5623 92.4062 76.5735V76.4751C92.5863 76.459 92.7293 76.4314 92.8357 76.3934C92.9423 76.3555 93.0251 76.3076 93.0852 76.2506C93.1454 76.1934 93.1849 76.1238 93.2038 76.0425C93.223 75.9605 93.2326 75.8652 93.2326 75.7561V72.521C93.2326 72.292 93.2258 72.103 93.2123 71.9528C93.1987 71.8033 93.1641 71.682 93.11 71.5893C93.0551 71.4968 92.9737 71.4286 92.8642 71.3853C92.7552 71.3414 92.6027 71.3115 92.4062 71.2952V71.1973C92.6191 71.208 92.8303 71.2162 93.0406 71.2218C93.2499 71.2272 93.4618 71.2298 93.6744 71.2298C93.9032 71.2298 94.1336 71.2272 94.3658 71.2218C94.5974 71.2162 94.8278 71.208 95.0565 71.1973V71.2952Z" fill="#1C0D3F"/>
<path d="M87.7248 49.0113V33.6492L77.5321 49.0113H87.7248ZM82.2346 60.5444V57.7366H85.4036C86.2311 57.7366 86.8339 57.5719 87.1969 57.2472C87.552 56.9278 87.7248 56.4615 87.7248 55.821V52.088H74.1641V48.9961L89.6203 25.8086H93.0931V49.0113H98.1682V52.088H93.0931V56.305C93.0931 56.686 93.2323 56.9706 93.5305 57.2007C94.0294 57.5586 94.605 57.7366 95.2803 57.7366H97.9642V60.5444H82.2346Z" fill="#1C0D3F"/>
<path d="M78.2725 48.6158L87.3303 34.9645V48.6158H78.2725ZM93.4918 25.4131H92.6988H89.8346H89.4101L89.1745 25.7661L73.9026 48.678L73.7695 48.877V49.1162V51.6926V52.485H74.5624H87.3303V55.8217C87.3303 56.3436 87.2002 56.7134 86.9336 56.9527C86.6503 57.2066 86.1222 57.3409 85.4056 57.3409H82.6334H81.8401V58.1331V60.149V60.9417H82.6334H97.5697H98.3626V60.149V58.1331V57.3409H97.5697H95.2822C94.6979 57.3409 94.2021 57.1905 93.7652 56.8798C93.5734 56.7289 93.4918 56.556 93.4918 56.3055V52.485H97.7739H98.567V51.6926V49.408V48.6158H97.7739H93.4918V26.2051V25.4131ZM76.7959 49.408H88.1232V32.3354L76.7959 49.408ZM92.6988 26.2051V49.408H97.7739V51.6926H92.6988V56.3055C92.6988 56.8071 92.8958 57.2106 93.2901 57.5145C93.8646 57.9273 94.5284 58.1331 95.2822 58.1331H97.5697V60.149H82.6334V58.1331H85.4056C86.3381 58.1331 87.0243 57.9362 87.4636 57.5418C87.9035 57.1477 88.1232 56.5735 88.1232 55.8217V51.6926H74.5624V49.1162L89.8346 26.2051H92.6988Z" fill="#726988"/>
<path d="M9.96095 42.9612C9.96095 43.7235 9.3423 44.3433 8.57723 44.3433C7.81193 44.3433 7.19141 43.7235 7.19141 42.9612C7.19141 42.197 7.81193 41.5772 8.57723 41.5772C9.3423 41.5772 9.96095 42.197 9.96095 42.9612Z" fill="#1C0D3F"/>
<path d="M161.805 42.9612C161.805 43.7235 161.186 44.3433 160.421 44.3433C159.656 44.3433 159.035 43.7235 159.035 42.9612C159.035 42.197 159.656 41.5772 160.421 41.5772C161.186 41.5772 161.805 42.197 161.805 42.9612Z" fill="#1C0D3F"/>
<path d="M163.047 69.6324C162.942 69.5735 162.774 69.5441 162.542 69.5441H162.185V70.4022H162.562C162.739 70.4022 162.872 70.3846 162.961 70.3491C163.124 70.2847 163.206 70.1613 163.206 69.9791C163.206 69.8069 163.153 69.6913 163.047 69.6324ZM162.596 69.2591C162.891 69.2591 163.106 69.2876 163.244 69.3446C163.489 69.4467 163.611 69.6467 163.611 69.9445C163.611 70.1564 163.534 70.312 163.38 70.4122C163.298 70.4648 163.184 70.5036 163.037 70.5267C163.223 70.5561 163.358 70.6334 163.444 70.7587C163.53 70.8839 163.573 71.0063 163.573 71.1257V71.2986C163.573 71.3535 163.575 71.4123 163.579 71.4749C163.583 71.5375 163.59 71.5784 163.6 71.598L163.614 71.6275H163.223C163.221 71.6195 163.219 71.6118 163.217 71.6039C163.215 71.5962 163.213 71.5873 163.211 71.5775L163.202 71.5013V71.314C163.202 71.0406 163.128 70.8598 162.979 70.7722C162.891 70.7213 162.736 70.6961 162.514 70.6961H162.185V71.6275H161.767V69.2591H162.596ZM161.326 69.1388C160.965 69.5011 160.784 69.9389 160.784 70.4524C160.784 70.9694 160.964 71.41 161.323 71.7742C161.684 72.1389 162.122 72.3209 162.638 72.3209C163.153 72.3209 163.592 72.1389 163.952 71.7742C164.313 71.41 164.494 70.9694 164.494 70.4524C164.494 69.9389 164.313 69.5011 163.952 69.1388C163.59 68.7743 163.151 68.5923 162.638 68.5923C162.126 68.5923 161.688 68.7743 161.326 69.1388ZM164.167 71.9802C163.746 72.4029 163.236 72.6147 162.638 72.6147C162.039 72.6147 161.531 72.4029 161.111 71.9802C160.693 71.559 160.484 71.0486 160.484 70.4491C160.484 69.8555 160.695 69.3483 161.117 68.9271C161.536 68.5082 162.044 68.2985 162.638 68.2985C163.236 68.2985 163.746 68.5082 164.167 68.9271C164.589 69.3465 164.8 69.8536 164.8 70.4491C164.8 71.0467 164.589 71.5569 164.167 71.9802Z" fill="#726988"/>
</svg>
