<svg version="1.2" xmlns="http://www.w3.org/2000/svg" viewBox="0 0 1548 454" width="1548" height="454">
	<title>2021 Integrated Report-1-pdf-svg</title>
	<defs>
		<clipPath clipPathUnits="userSpaceOnUse" id="cp1">
			<path d="m-12399.7-556.47h14825.08v8347.11h-14825.08z"/>
		</clipPath>
	</defs>
	<style>
		.s0 { fill: #726988 } 
	</style>
	<g id="Clip-Path: Page 1" clip-path="url(#cp1)">
		<g id="Page 1">
			<path id="Path 14" fill-rule="evenodd" class="s0" d="m723.2 148.4h-54.4v194.8c0 3.8-2.7 6.5-6.6 6.5h-43.6c-3.9 0-7-2.7-7-6.5v-194.8h-54.4c-3.5 0-6.6-2.7-6.6-6.2v-34.8c0-3.4 3.1-6.2 6.6-6.2h166c3.5 0 6.9 2.8 6.9 6.2v34.8c0 3.5-3.4 6.2-6.9 6.2zm119.3 204.4c-55.2 0-99.2-29.7-99.2-107.4v-39.8c0-77.7 44-107.4 99.2-107.4 55.2 0 98.8 29.7 98.8 107.4v39.8c0 77.7-43.6 107.4-98.8 107.4zm41.3-147.2c0-40.2-13.5-57.2-41.3-57.2-28.2 0-41.3 17-41.3 57.2v39.8c0 40.2 13.1 57.2 41.3 57.2 27.8 0 41.3-17 41.3-57.2zm242.8-57.2h-54.4v194.8c0 3.8-2.7 6.5-6.6 6.5h-43.6c-3.8 0-6.9-2.7-6.9-6.5v-194.8h-54.5c-3.4 0-6.5-2.7-6.5-6.2v-34.8c0-3.4 3.1-6.1 6.5-6.1h166c3.5 0 7 2.7 7 6.1v34.8c0 3.5-3.5 6.2-7 6.2zm234.8-40.2l-49.8 207.5c-7.8 32.1-32.1 37.1-55.2 37.1-22.8 0-47.5-5-55.2-37.1l-49.9-207.5c0-0.8-0.3-0.8-0.3-1.5 0-3.1 2.7-5.4 5.8-5.4h46.7c3.1 0 5.8 2.7 6.5 6.1l41.7 192.9c0.8 3.8 2 5 4.7 5 3 0 4.2-1.2 5-5l41.7-192.9c0.7-3.4 3.1-6.1 6.2-6.1h46.7c3.4 0 5.8 1.9 5.8 5.4 0 0.3-0.4 0.7-0.4 1.5zm94.6 244.6c-26.7 0-46.4-3.1-63.4-7.3-3.4-0.8-6.5-3.1-6.5-6.6v-32.8c0-4.7 2.3-6.2 5.8-6.2h1.1c13.5 1.1 50.2 3.8 63.3 3.8 23.2 0 29.8-7.3 29.8-23.5 0-9.7-4.7-15.1-22-25.5l-46-27.5c-31.2-18.1-39.4-39.4-39.4-63.7 0-36.7 20.5-65.3 85.4-65.3 24.3 0 58.3 4.2 71 7.3 2.7 0.8 5 2.3 5 6.2v33.6c0 3.1-1.5 5.8-5.8 5.8h-0.7c-9.3-0.8-47.9-3.5-70.7-3.5-19.3 0-26.2 5.4-26.2 17.4 0 9.7 4.2 13.9 22.3 23.6l42.9 23.2c34.7 18.5 45.2 40.5 45.2 68 0 35.2-23.6 73-91.1 73z"/>
			<path id="Path 16" class="s0" d="m292 193.6c-8.9-7.3-79.2-27.4-137.9-41.3-0.4 45.6 2.3 94.6 8.1 103.1 8.5 7.4 79.2 27.5 137.9 41.4 0.7-45.2-2.4-94.7-8.1-103.2z"/>
			<path id="Path 17" fill-rule="evenodd" class="s0" d="m227.3 453.3c-125.2 0-226.4-101.3-226.4-226.7 0-125.3 101.2-226.6 226.4-226.6 125.2 0 226.4 101.3 226.4 226.6 0 125.4-101.2 226.7-226.4 226.7zm152.7-325.8c-14.3-12.3-203.1-59.9-217.8-54.8-5 4.6-7.7 40.5-8.1 79.6-39.7-9.3-74.1-15.9-79.9-14-11.2 10.5-11.2 167.4 0 183.2 14.3 12.4 203.1 59.9 217.8 54.9 5-4.6 7.7-40.6 8.1-79.6 39.7 9.3 74.1 15.8 79.9 13.9 11.2-10.4 11.2-166.9 0-183.2z"/>
		</g>
	</g>
</svg>