<svg width="363" height="250" viewBox="0 0 363 250" fill="none" xmlns="http://www.w3.org/2000/svg">
<mask id="mask0_1121_30" style="mask-type:alpha" maskUnits="userSpaceOnUse" x="0" y="66" width="363" height="120">
<path d="M179.734 68.7368L155.478 183.696H126.142L150.408 68.7368H179.734ZM303.14 142.963L318.581 99.7985L327.469 142.963H303.14ZM335.871 183.696H363L339.319 68.7368H314.284C308.653 68.7368 303.905 72.0542 301.797 77.1676L257.785 183.696H288.578L294.697 166.52H332.326L335.871 183.696ZM259.309 146.159C259.44 115.822 217.931 114.147 218.217 100.591C218.308 96.4691 222.179 92.0867 230.658 90.9639C234.854 90.4084 246.445 89.9773 259.575 96.1062L264.729 71.7305C257.666 69.1321 248.59 66.6342 237.286 66.6342C208.297 66.6342 187.888 82.2622 187.725 104.632C187.531 121.19 202.288 130.417 213.407 135.922C224.83 141.555 228.661 145.169 228.619 150.208C228.534 157.924 219.504 161.325 211.062 161.458C196.316 161.692 187.757 157.417 180.937 154.195L175.627 179.386C182.473 182.576 195.124 185.357 208.244 185.494C239.061 185.494 259.214 170.067 259.309 146.159ZM137.821 68.7368L90.2965 183.696H59.2916L35.9051 91.9504C34.485 86.3021 33.2531 84.2285 28.9358 81.8533C21.8859 77.9701 10.243 74.3306 0 72.0696L0.690709 68.7368H50.6049C56.9626 68.7368 62.6865 73.0254 64.1302 80.4561L76.4823 146.981L107.011 68.7368H137.821Z" fill="white"/>
</mask>
<g mask="url(#mask0_1121_30)">
<path fill-rule="evenodd" clip-rule="evenodd" d="M179.734 68.7368L155.478 183.696H126.142L150.408 68.7368H179.734ZM303.14 142.963L318.581 99.7985L327.469 142.963H303.14ZM335.871 183.696H363L339.319 68.7368H314.284C308.653 68.7368 303.905 72.0542 301.797 77.1676L257.785 183.696H288.578L294.697 166.52H332.326L335.871 183.696ZM259.309 146.159C259.44 115.822 217.931 114.147 218.217 100.591C218.308 96.4691 222.179 92.0867 230.658 90.9639C234.854 90.4084 246.445 89.9773 259.575 96.1062L264.729 71.7305C257.666 69.1321 248.59 66.6342 237.286 66.6342C208.297 66.6342 187.888 82.2622 187.725 104.632C187.531 121.19 202.288 130.417 213.407 135.922C224.83 141.555 228.661 145.169 228.619 150.208C228.534 157.924 219.504 161.325 211.062 161.458C196.316 161.692 187.757 157.417 180.937 154.195L175.627 179.386C182.473 182.576 195.124 185.357 208.244 185.494C239.061 185.494 259.214 170.067 259.309 146.159ZM137.821 68.7368L90.2965 183.696H59.2916L35.9051 91.9504C34.485 86.3021 33.2531 84.2285 28.9358 81.8533C21.8859 77.9701 10.243 74.3306 0 72.0696L0.690709 68.7368H50.6049C56.9626 68.7368 62.6865 73.0254 64.1302 80.4561L76.4823 146.981L107.011 68.7368H137.821Z" fill="#726988"/>
</g>
</svg>
