<svg width="169" height="32" viewBox="0 0 169 32" fill="none" xmlns="http://www.w3.org/2000/svg">
<g clip-path="url(#clip0)">
<path d="M111.369 27.639C113.589 27.6925 115.73 26.8631 117.335 25.3113L120.278 28.4951C118.325 30.5017 115.623 32 111.422 32C104.198 32 99.5429 27.2109 99.5429 20.7363C99.5429 14.3151 104.439 9.47252 110.753 9.47252C117.923 9.47252 121.963 14.9305 121.616 22.4753H104.707C105.295 25.6324 107.516 27.639 111.369 27.639ZM116.505 18.8902C116.051 15.9739 114.312 13.8068 110.807 13.8068C107.543 13.8068 105.295 15.6529 104.707 18.8902H116.505ZM0.256104 27.3982L13.2857 14.1546H0.550406V10.0076H19.3055V14.2616L6.30267 27.4784H19.4928V31.6254H0.256104V27.3982ZM34.1008 27.639C36.3215 27.6925 38.4619 26.8631 40.0672 25.3113L43.0102 28.4951C41.0571 30.5017 38.3549 32 34.1544 32C26.9573 32 22.2753 27.2109 22.2753 20.7363C22.2753 14.3151 27.1714 9.47252 33.4855 9.47252C40.6558 9.47252 44.6957 14.9305 44.3479 22.4753H27.4389C28.0543 25.6324 30.2482 27.639 34.1008 27.639ZM39.2645 18.8902C38.8097 15.9739 37.0706 13.8068 33.5658 13.8068C30.3017 13.8068 28.0543 15.6529 27.4657 18.8902H39.2645ZM72.4939 20.763C72.4939 13.8335 77.6576 9.52602 83.3563 9.52602C86.2191 9.52602 88.9481 10.7835 90.5534 12.7633V0.00134277H95.1552V31.5719H90.5534V28.5754C88.8946 30.689 86.1656 32 83.3028 32C77.7913 32 72.4939 27.639 72.4939 20.763ZM90.8209 20.7095C90.8209 16.8568 87.9046 13.6998 83.9717 13.6998C80.119 13.6998 77.1225 16.7766 77.1225 20.7095C77.1225 24.6424 80.119 27.746 83.9717 27.746C87.9046 27.7727 90.8209 24.6157 90.8209 20.7095ZM124.612 26.9701L128.786 24.803C129.91 26.8096 132.05 28.0135 134.351 27.96C136.946 27.96 138.311 26.6223 138.311 25.0973C138.311 23.3582 135.796 22.9837 133.067 22.4218C129.374 21.6459 125.549 20.442 125.549 15.9739C125.549 12.5493 128.813 9.39225 133.923 9.44576C137.963 9.44576 140.959 11.051 142.645 13.6463L138.765 15.7866C137.775 14.2616 136.063 13.3252 133.896 13.3252C131.408 13.3252 130.15 14.5292 130.15 15.9204C130.15 17.4722 132.157 17.9003 135.287 18.5959C138.846 19.3718 142.886 20.549 142.886 25.0438C142.886 28.0403 140.29 32.0535 134.11 32C129.615 32 126.431 30.1807 124.612 26.9701ZM155.38 21.967L151.741 25.9534V31.5719H147.14V0.00134277H151.741V20.656L161.507 9.9541H167.099L158.644 19.2112L167.339 31.5719H162.122L155.38 21.967ZM58.5814 9.49927C53.0967 9.49927 48.5217 13.0576 48.5217 18.9169V31.5719H53.2305V19.5323C53.2305 15.9739 55.2639 13.8603 58.742 13.8603C62.2201 13.8603 63.9591 15.9739 63.9591 19.5323V31.5719H68.6412V18.9437C68.6412 13.0576 64.0662 9.49927 58.5814 9.49927Z" fill="#726988"/>
<path d="M165.815 7.14418C166.457 6.50207 167.527 6.50207 168.169 7.14418C168.811 7.7863 168.811 8.85649 168.169 9.4986C167.527 10.1407 166.457 10.1407 165.815 9.4986C165.146 8.85649 165.146 7.81305 165.815 7.14418ZM167.875 9.23105C168.356 8.72271 168.33 7.92007 167.848 7.43848C167.34 6.9569 166.537 6.98365 166.055 7.46524C165.574 7.97358 165.574 8.74947 166.082 9.23105C166.591 9.73939 167.393 9.71264 167.875 9.23105ZM167.126 7.2512L167.634 7.75954C167.955 8.0806 167.955 8.45517 167.741 8.6692C167.58 8.85649 167.313 8.91 167.099 8.80298L166.938 9.44509L166.591 9.09728L166.831 8.21437L166.965 8.34815C167.045 8.45517 167.233 8.48192 167.34 8.40166L167.366 8.3749C167.473 8.26788 167.447 8.0806 167.34 8.00033L167.313 7.97358L167.126 7.7863L166.189 8.72271L165.895 8.42841L167.126 7.2512Z" fill="#726988"/>
</g>
<defs>
<clipPath id="clip0">
<rect width="168.421" height="32" fill="white" transform="translate(0.256104)"/>
</clipPath>
</defs>
</svg>
