<svg width="762" height="370" viewBox="0 0 762 370" fill="none" xmlns="http://www.w3.org/2000/svg">
<g clip-path="url(#clip0_3014_1254)">
<line x1="547.277" y1="311.252" x2="443.078" y2="311.252" stroke="white" stroke-width="2" stroke-dasharray="6.8 4.86"/>
<line x1="317.031" y1="311.252" x2="212.832" y2="311.252" stroke="white" stroke-width="2" stroke-dasharray="6.8 4.86"/>
<path d="M487.195 318.729L496.116 310.734L487.195 302.739" stroke="white" stroke-width="2" stroke-linecap="round" stroke-linejoin="round"/>
<path d="M263.629 318.729L254.709 310.734L263.629 302.739" stroke="white" stroke-width="2" stroke-linecap="round" stroke-linejoin="round"/>
<circle cx="152.523" cy="313.58" r="38.2891" fill="#ED26B7"/>
<path d="M173.164 320.015C173.015 313.673 169.514 308.639 164.169 306.671V295.633C162.819 294.77 161.383 294.057 159.884 293.509V317.256C159.884 321.96 157.701 324.061 154.194 324.061C150.78 324.061 147.924 321.482 147.924 317.169C147.924 312.355 151.676 309.416 156.588 309.416C157.043 309.408 157.506 309.431 157.962 309.502V305.3C157.506 305.222 157.051 305.183 156.588 305.191C149.297 305.191 143.584 309.66 143.584 317.178C143.584 324.407 148.74 328.264 154.485 328.264C157.208 328.264 159.563 327.338 161.188 325.747C162.812 324.155 164.187 321.858 164.187 317.82V311.242C167.153 312.724 168.942 316.315 168.951 320.423C168.935 328.161 161.754 334.7 153.333 334.7C153.137 334.7 152.987 334.7 152.791 334.692C147.015 334.684 141.937 332.598 137.824 328.482C134.865 325.519 132.84 321.748 132.024 317.647C131.208 313.539 131.624 309.29 133.232 305.417C134.834 301.551 137.549 298.243 141.033 295.914C144.518 293.586 148.615 292.347 152.805 292.347V288.035C149.454 288.035 146.135 288.694 143.042 289.972C139.95 291.25 137.133 293.131 134.763 295.492C129.975 300.266 127.283 306.749 127.283 313.508C127.283 320.265 129.967 326.75 134.746 331.532C139.526 336.315 146.016 339.004 152.782 339.004H153.323C155.404 339.004 157.476 338.683 159.469 338.063C159.477 338.063 159.485 338.055 159.493 338.055C162.373 337.161 165.01 335.64 167.223 333.602C171.045 330.074 173.149 325.41 173.165 320.447C173.172 320.43 173.164 320.023 173.164 320.015Z" fill="white"/>
<circle cx="380.617" cy="313.103" r="38.3743" fill="white"/>
<path d="M380.402 284.925C365.659 284.925 366.58 291.319 366.58 291.319L366.596 297.942H380.665V299.931H361.008C361.008 299.931 351.574 298.861 351.574 313.737C351.574 328.613 359.808 328.086 359.808 328.086H364.722V321.183C364.722 321.183 364.458 312.948 372.825 312.948C381.193 312.948 386.78 312.948 386.78 312.948C386.78 312.948 394.619 313.075 394.619 305.371C394.619 297.668 394.619 292.633 394.619 292.633C394.619 292.633 395.81 284.925 380.402 284.925ZM372.645 289.379C374.044 289.379 375.176 290.511 375.176 291.91C375.176 293.31 374.044 294.441 372.645 294.441C371.245 294.441 370.113 293.31 370.113 291.91C370.113 290.511 371.245 289.379 372.645 289.379Z" fill="url(#paint0_linear_3014_1254)"/>
<path d="M380.828 342.696C395.571 342.696 394.65 336.302 394.65 336.302L394.634 329.679H380.565V327.69H400.222C400.222 327.69 409.656 328.76 409.656 313.884C409.656 299.008 401.422 299.535 401.422 299.535H396.507V306.438C396.507 306.438 396.772 314.673 388.405 314.673C380.037 314.673 374.45 314.673 374.45 314.673C374.45 314.673 366.61 314.546 366.61 322.25C366.61 329.953 366.61 334.987 366.61 334.987C366.61 334.987 365.42 342.696 380.828 342.696ZM388.585 338.242C387.186 338.242 386.054 337.11 386.054 335.711C386.054 334.311 387.186 333.179 388.585 333.179C389.985 333.179 391.116 334.311 391.116 335.711C391.116 337.11 389.985 338.242 388.585 338.242Z" fill="url(#paint1_linear_3014_1254)"/>
<circle cx="609.742" cy="313.103" r="38.3743" fill="white"/>
<path fill-rule="evenodd" clip-rule="evenodd" d="M588.031 317.654C588.031 318.096 588.114 318.552 588.293 318.993L588.29 318.986L590.164 323.68L590.161 323.677C590.714 325.067 592.036 325.909 593.43 325.909C593.866 325.909 594.316 325.826 594.744 325.651L595.488 325.344C596.123 326.109 596.807 326.812 597.54 327.46L597.23 328.207V328.203C597.039 328.654 596.945 329.128 596.945 329.597C596.945 330.981 597.75 332.303 599.093 332.885L603.691 334.862C604.134 335.052 604.601 335.144 605.057 335.144C606.429 335.144 607.733 334.331 608.308 332.975L608.311 332.972L608.626 332.218C608.716 332.226 608.807 332.234 608.898 332.242H608.898C609.349 332.282 609.8 332.322 610.255 332.322C610.589 332.322 610.923 332.298 611.257 332.274C611.354 332.267 611.451 332.26 611.547 332.254L611.849 333.004C612.403 334.392 613.725 335.235 615.119 335.235C615.556 335.235 616.001 335.151 616.429 334.976L621.064 333.079C622.434 332.519 623.266 331.182 623.266 329.772C623.266 329.326 623.183 328.872 623.007 328.438L622.712 327.684C623.461 327.041 624.157 326.348 624.796 325.606L625.533 325.925C625.979 326.115 626.445 326.208 626.901 326.208C628.275 326.208 629.582 325.392 630.156 324.035L632.109 319.376V319.373C632.297 318.922 632.384 318.451 632.384 317.992C632.384 316.6 631.581 315.278 630.236 314.701H630.243L629.503 314.382L629.521 314.166L629.521 314.166C629.562 313.694 629.603 313.222 629.603 312.746C629.603 312.406 629.578 312.064 629.554 311.723C629.546 311.621 629.539 311.52 629.532 311.418L630.275 311.115C631.644 310.55 632.472 309.213 632.469 307.806C632.469 307.358 632.389 306.907 632.219 306.476L632.216 306.472L630.345 301.779C629.79 300.389 628.468 299.549 627.076 299.549C626.636 299.549 626.188 299.632 625.757 299.809L625.762 299.808L625.018 300.109C624.385 299.35 623.702 298.646 622.97 298L623.284 297.253V297.25C623.473 296.8 623.562 296.327 623.562 295.867C623.562 294.478 622.757 293.155 621.415 292.574L616.817 290.596C616.371 290.403 615.905 290.313 615.445 290.313C614.076 290.313 612.771 291.124 612.198 292.489L612.2 292.484L611.882 293.237C611.806 293.23 611.731 293.223 611.656 293.217C611.193 293.175 610.73 293.133 610.261 293.133C609.931 293.133 609.598 293.157 609.266 293.181C609.164 293.188 609.062 293.195 608.96 293.202L608.661 292.453C608.106 291.063 606.784 290.222 605.391 290.225C604.951 290.222 604.502 290.308 604.075 290.486L604.08 290.483L599.442 292.377C598.071 292.94 597.24 294.28 597.24 295.692C597.24 296.133 597.321 296.587 597.497 297.025L597.798 297.774C597.045 298.418 596.349 299.11 595.71 299.85L594.973 299.533C594.527 299.343 594.06 299.252 593.603 299.252C592.234 299.25 590.923 300.062 590.355 301.426L590.357 301.422L588.402 306.082C588.214 306.531 588.122 307.004 588.122 307.468C588.122 308.855 588.924 310.179 590.269 310.761L591.01 311.078C591.002 311.169 590.994 311.26 590.986 311.351C590.946 311.806 590.906 312.261 590.906 312.72C590.906 313.047 590.93 313.376 590.954 313.704C590.962 313.815 590.97 313.926 590.977 314.037L590.239 314.339C588.865 314.903 588.031 316.242 588.031 317.654ZM591.003 316.263L592.421 315.685C592.845 315.513 593.104 315.07 593.055 314.611C592.987 313.983 592.956 313.352 592.956 312.722C592.956 311.99 593.001 311.259 593.09 310.542C593.148 310.081 592.895 309.638 592.474 309.458L591.067 308.855C590.507 308.616 590.169 308.056 590.169 307.472C590.169 307.28 590.205 307.086 590.285 306.893L592.241 302.233L592.242 302.23C592.471 301.67 593.022 301.325 593.602 301.325C593.795 301.325 593.984 301.363 594.174 301.443L595.578 302.046C595.998 302.228 596.483 302.104 596.772 301.745C597.617 300.692 598.569 299.733 599.645 298.888C600.005 298.603 600.137 298.109 599.965 297.682L599.393 296.248C599.319 296.064 599.286 295.881 599.286 295.695C599.286 295.1 599.637 294.533 600.209 294.303L604.844 292.409L604.848 292.406C605.023 292.334 605.206 292.297 605.39 292.297C605.975 292.297 606.537 292.656 606.765 293.232L607.34 294.667C607.512 295.095 607.941 295.358 608.394 295.307C609.019 295.241 609.644 295.205 610.262 295.205C610.985 295.205 611.705 295.253 612.414 295.343C612.869 295.401 613.304 295.148 613.484 294.721L614.084 293.298V293.292C614.317 292.73 614.869 292.387 615.446 292.387C615.638 292.387 615.829 292.425 616.017 292.503L620.617 294.482C621.171 294.72 621.516 295.284 621.516 295.867C621.516 296.063 621.479 296.254 621.4 296.445L620.804 297.864C620.625 298.291 620.747 298.79 621.106 299.078C622.142 299.922 623.089 300.893 623.922 301.983C624.203 302.348 624.689 302.48 625.112 302.308L626.528 301.73L626.533 301.727C626.709 301.655 626.891 301.621 627.079 301.621C627.664 301.621 628.228 301.98 628.452 302.552L630.32 307.247V307.24C630.394 307.431 630.429 307.621 630.429 307.805C630.429 308.397 630.078 308.964 629.509 309.193L628.092 309.773C627.67 309.949 627.409 310.386 627.458 310.846C627.525 311.481 627.56 312.116 627.56 312.747C627.56 313.476 627.517 314.2 627.425 314.916C627.368 315.376 627.618 315.818 628.04 315.998L629.441 316.605L629.445 316.608C630 316.841 630.343 317.407 630.343 317.99C630.343 318.185 630.305 318.38 630.228 318.567L630.229 318.565L628.278 323.223C628.041 323.786 627.487 324.131 626.906 324.131C626.715 324.131 626.525 324.094 626.339 324.016L624.931 323.41C624.51 323.229 624.018 323.355 623.731 323.718C622.904 324.764 621.942 325.723 620.869 326.571C620.505 326.856 620.375 327.345 620.546 327.776L621.114 329.209C621.189 329.396 621.223 329.586 621.223 329.77C621.221 330.361 620.874 330.925 620.303 331.154L615.668 333.051C615.485 333.125 615.302 333.16 615.122 333.16C614.537 333.16 613.974 332.801 613.746 332.223L613.172 330.789C613.001 330.361 612.571 330.1 612.115 330.148C611.493 330.217 610.874 330.249 610.256 330.249C609.531 330.249 608.809 330.204 608.094 330.111C607.64 330.053 607.203 330.309 607.024 330.735L606.427 332.16L606.431 332.157C606.191 332.726 605.634 333.071 605.059 333.071C604.869 333.071 604.681 333.034 604.494 332.953L599.896 330.976C599.332 330.736 598.996 330.179 598.995 329.596C598.995 329.403 599.032 329.211 599.114 329.018V329.012L599.708 327.588C599.883 327.162 599.763 326.665 599.407 326.375C598.366 325.533 597.42 324.564 596.587 323.472C596.307 323.106 595.82 322.972 595.395 323.147L593.976 323.727C593.792 323.802 593.612 323.835 593.43 323.837C592.843 323.834 592.283 323.477 592.059 322.904V322.902L590.185 318.205L590.182 318.2C590.113 318.022 590.077 317.838 590.077 317.652C590.079 317.061 590.431 316.495 591.003 316.263ZM610.2 322.231C615.446 322.231 619.699 317.923 619.699 312.61C619.699 307.294 615.446 302.989 610.2 302.989C604.954 302.989 600.699 307.295 600.699 312.61C600.699 317.924 604.954 322.231 610.2 322.231ZM610.2 305.06C614.309 305.06 617.653 308.447 617.653 312.61C617.653 316.771 614.309 320.16 610.2 320.16C606.088 320.16 602.746 316.771 602.746 312.61C602.746 308.447 606.088 305.06 610.2 305.06Z" fill="#1C0D3F"/>
</g>
<g filter="url(#filter0_dddddd_3014_1254)">
<g clip-path="url(#clip1_3014_1254)">
<rect x="61" y="17" width="640" height="216" rx="8" fill="white"/>
<path d="M108.102 62.9766L108.336 61.8281H106.695L107.32 58.7266H106.203L105.578 61.8281H103.273L103.891 58.7266H102.773L102.156 61.8281H100.516L100.289 62.9766H101.93L101.414 65.625H99.7734L99.5312 66.7891H101.172L100.531 70H101.648L102.281 66.7891H104.594L103.953 70H105.07L105.711 66.7891H107.352L107.578 65.625H105.938L106.461 62.9766H108.102ZM103.023 62.9531H105.367L104.836 65.6562H102.5L103.023 62.9531ZM123.984 68.9297C122.156 68.9297 121.203 67.7031 121.203 65.3672V63.3594C121.203 61.0234 122.156 59.7969 123.977 59.7969C125.422 59.7969 126.43 60.8203 126.477 62.3438H127.875C127.828 59.9375 126.359 58.4922 123.984 58.4922C121.336 58.4922 119.797 60.2812 119.797 63.3594V65.3672C119.797 68.4453 121.336 70.2344 123.984 70.2344C126.289 70.2344 127.867 68.7578 127.867 66.5781H126.477C126.438 68.0312 125.484 68.9297 123.984 68.9297ZM130.141 70H131.469V65.0156C131.469 63.5703 132.414 62.5938 133.812 62.5938C135.141 62.5938 135.766 63.3203 135.766 64.8438V70H137.094V64.5078C137.094 62.4844 136.094 61.375 134.25 61.375C132.953 61.375 131.977 61.9688 131.531 63.0234H131.422V58.1953H130.141V70ZM145.797 67.8125C145.562 68.5547 144.773 69.0078 143.703 69.0078C142.258 69.0078 141.336 68.0078 141.336 66.4531V66.1094H147.109V65.2812C147.109 62.8281 145.812 61.3672 143.609 61.3672C141.453 61.3672 140.023 62.8359 140.023 65.0703V66.3438C140.023 68.7578 141.375 70.1562 143.703 70.1562C145.484 70.1562 146.828 69.2109 147.086 67.8125H145.797ZM143.602 62.5078C144.969 62.5078 145.797 63.4844 145.797 65.1016H141.336C141.336 63.4766 142.188 62.5078 143.602 62.5078ZM156.93 64.1641C156.711 62.4219 155.43 61.3594 153.555 61.3594C151.25 61.3594 149.906 62.7734 149.906 65.2031V66.3125C149.906 68.7422 151.25 70.1562 153.555 70.1562C155.43 70.1562 156.719 69.1016 156.93 67.375H155.617C155.453 68.3438 154.625 68.9609 153.531 68.9609C152.055 68.9609 151.234 67.9609 151.234 66.1406V65.375C151.234 63.5547 152.055 62.5469 153.531 62.5469C154.625 62.5469 155.453 63.1719 155.617 64.1641H156.93ZM161.875 65.3281H161.773V58.1953H160.445V70H161.773V66.9141L162.945 65.7891L165.836 70H167.414L163.891 64.8828L167.18 61.5234H165.57L161.875 65.3281ZM183.219 59.4453C183.844 59.4453 184.32 58.9766 184.32 58.3516C184.32 57.7344 183.844 57.2656 183.219 57.2656C182.594 57.2656 182.117 57.7344 182.117 58.3516C182.117 58.9766 182.594 59.4453 183.219 59.4453ZM186.773 70V68.8984H183.969V61.5234H179.773V62.625H182.656V68.8984H179.75V70H186.773ZM191.711 70H193.039V62.6797H196.766V61.5469H193.023V60.6719C193.023 59.8203 193.648 59.3828 194.828 59.3828C195.305 59.3828 196.398 59.4141 196.766 59.4531V58.3672C196.484 58.3281 195.305 58.2891 194.812 58.2891C192.727 58.2891 191.711 59.0547 191.711 60.6953V61.5469H189.438V62.6797H191.711V70ZM208.914 61.5234L212.016 70H213.477L216.57 61.5234H215.156L212.805 68.5781H212.703L210.336 61.5234H208.914ZM222.781 59.4453C223.406 59.4453 223.883 58.9766 223.883 58.3516C223.883 57.7344 223.406 57.2656 222.781 57.2656C222.156 57.2656 221.68 57.7344 221.68 58.3516C221.68 58.9766 222.156 59.4453 222.781 59.4453ZM226.336 70V68.8984H223.531V61.5234H219.336V62.625H222.219V68.8984H219.312V70H226.336ZM229.438 63.8125C229.438 65.0156 230.195 65.7891 231.727 66.1406L232.984 66.4297C234.062 66.6719 234.477 67.0312 234.477 67.7031C234.477 68.5156 233.742 69.0391 232.586 69.0391C231.492 69.0391 230.742 68.5859 230.547 67.8047H229.195C229.344 69.2578 230.617 70.1562 232.539 70.1562C234.547 70.1562 235.852 69.1406 235.852 67.5781C235.852 66.3516 235.102 65.6328 233.453 65.2578L232.258 64.9844C231.195 64.75 230.758 64.3828 230.758 63.7344C230.758 62.9609 231.453 62.4609 232.531 62.4609C233.523 62.4609 234.234 62.9141 234.391 63.6562H235.672C235.516 62.2422 234.32 61.3594 232.555 61.3594C230.688 61.3594 229.438 62.3438 229.438 63.8125ZM245.883 61.5234H244.555V66.5156C244.555 67.9609 243.617 68.9375 242.219 68.9375C240.898 68.9375 240.273 68.2188 240.273 66.6875V61.5234H238.945V67.0234C238.945 69.0547 239.945 70.1562 241.789 70.1562C243.078 70.1562 244.047 69.5625 244.5 68.5078H244.609V70H245.883V61.5234ZM251.445 70.1484C252.68 70.1484 253.602 69.6406 254.008 68.7344H254.141V70.0078H255.406V64.2031C255.406 62.4375 254.266 61.4219 252.273 61.4219C250.539 61.4219 249.227 62.3516 249.07 63.7109H250.375C250.594 62.9844 251.281 62.5703 252.258 62.5703C253.438 62.5703 254.086 63.1562 254.086 64.2188V64.9844L251.758 65.1016C249.828 65.2031 248.75 66.0938 248.75 67.5938C248.75 69.1328 249.828 70.1484 251.445 70.1484ZM251.828 68.9844C250.758 68.9844 250.094 68.4375 250.094 67.5469C250.094 66.6641 250.719 66.1562 251.906 66.1016L254.086 66V67C254.086 68.1328 253.109 68.9844 251.828 68.9844ZM265.898 70V68.8984H263.102V58.1953H258.898V59.2969H261.773V68.8984H258.875V70H265.898ZM272.234 59.4453C272.859 59.4453 273.336 58.9766 273.336 58.3516C273.336 57.7344 272.859 57.2656 272.234 57.2656C271.609 57.2656 271.133 57.7344 271.133 58.3516C271.133 58.9766 271.609 59.4453 272.234 59.4453ZM275.789 70V68.8984H272.984V61.5234H268.789V62.625H271.672V68.8984H268.766V70H275.789ZM278.68 70H285.273V68.8594H280.344V68.7578L285.242 62.5156V61.5234H278.703V62.6641H283.656V62.7656L278.68 69.0625V70ZM291.008 70.1484C292.242 70.1484 293.164 69.6406 293.57 68.7344H293.703V70.0078H294.969V64.2031C294.969 62.4375 293.828 61.4219 291.836 61.4219C290.102 61.4219 288.789 62.3516 288.633 63.7109H289.938C290.156 62.9844 290.844 62.5703 291.82 62.5703C293 62.5703 293.648 63.1562 293.648 64.2188V64.9844L291.32 65.1016C289.391 65.2031 288.312 66.0938 288.312 67.5938C288.312 69.1328 289.391 70.1484 291.008 70.1484ZM291.391 68.9844C290.32 68.9844 289.656 68.4375 289.656 67.5469C289.656 66.6641 290.281 66.1562 291.469 66.1016L293.648 66V67C293.648 68.1328 292.672 68.9844 291.391 68.9844ZM300.312 59.25V61.5469H298.055V62.6797H300.312V67.4766C300.312 69.2422 301.289 70.0391 303.391 70.0391C303.797 70.0391 304.828 70 305.039 69.9609V68.8359C304.812 68.8594 303.961 68.8828 303.484 68.8828C302.289 68.8828 301.641 68.3828 301.641 67.4609V62.6797H305.062V61.5469H301.625V59.25H300.312ZM311.797 59.4453C312.422 59.4453 312.898 58.9766 312.898 58.3516C312.898 57.7344 312.422 57.2656 311.797 57.2656C311.172 57.2656 310.695 57.7344 310.695 58.3516C310.695 58.9766 311.172 59.4453 311.797 59.4453ZM315.352 70V68.8984H312.547V61.5234H308.352V62.625H311.234V68.8984H308.328V70H315.352ZM321.539 70.1562C323.781 70.1562 325.211 68.6953 325.211 66.4062V65.125C325.211 62.8359 323.781 61.375 321.539 61.375C319.297 61.375 317.867 62.8359 317.867 65.125V66.4062C317.867 68.6953 319.297 70.1562 321.539 70.1562ZM321.539 62.5469C322.992 62.5469 323.898 63.5781 323.898 65.2422V66.2812C323.898 67.9531 322.992 68.9766 321.539 68.9766C320.086 68.9766 319.18 67.9531 319.18 66.2812V65.2422C319.18 63.5781 320.086 62.5469 321.539 62.5469ZM327.961 70H329.289V65.0078C329.289 63.5625 330.227 62.5859 331.625 62.5859C332.945 62.5859 333.57 63.3047 333.57 64.8359V70H334.898V64.5C334.898 62.4688 333.898 61.3672 332.055 61.3672C330.766 61.3672 329.797 61.9609 329.344 63.0156H329.234V61.5234H327.961V70ZM338.234 63.8125C338.234 65.0156 338.992 65.7891 340.523 66.1406L341.781 66.4297C342.859 66.6719 343.273 67.0312 343.273 67.7031C343.273 68.5156 342.539 69.0391 341.383 69.0391C340.289 69.0391 339.539 68.5859 339.344 67.8047H337.992C338.141 69.2578 339.414 70.1562 341.336 70.1562C343.344 70.1562 344.648 69.1406 344.648 67.5781C344.648 66.3516 343.898 65.6328 342.25 65.2578L341.055 64.9844C339.992 64.75 339.555 64.3828 339.555 63.7344C339.555 62.9609 340.25 62.4609 341.328 62.4609C342.32 62.4609 343.031 62.9141 343.188 63.6562H344.469C344.312 62.2422 343.117 61.3594 341.352 61.3594C339.484 61.3594 338.234 62.3438 338.234 63.8125ZM360.242 70.1484C361.477 70.1484 362.398 69.6406 362.805 68.7344H362.938V70.0078H364.203V64.2031C364.203 62.4375 363.062 61.4219 361.07 61.4219C359.336 61.4219 358.023 62.3516 357.867 63.7109H359.172C359.391 62.9844 360.078 62.5703 361.055 62.5703C362.234 62.5703 362.883 63.1562 362.883 64.2188V64.9844L360.555 65.1016C358.625 65.2031 357.547 66.0938 357.547 67.5938C357.547 69.1328 358.625 70.1484 360.242 70.1484ZM360.625 68.9844C359.555 68.9844 358.891 68.4375 358.891 67.5469C358.891 66.6641 359.516 66.1562 360.703 66.1016L362.883 66V67C362.883 68.1328 361.906 68.9844 360.625 68.9844ZM370.656 66.2031C370.656 64.0469 371.766 62.75 373.641 62.75C374.102 62.75 374.648 62.8438 375.039 62.9844V61.4922C374.758 61.375 374.297 61.3047 373.812 61.3047C372.18 61.3047 371.125 62.1172 370.812 63.6875H370.641V61.5234H367.477V62.5859H369.359V68.9375H367.648V70H373.281V68.9375H370.656V66.2031ZM383.172 67.8125C382.938 68.5547 382.148 69.0078 381.078 69.0078C379.633 69.0078 378.711 68.0078 378.711 66.4531V66.1094H384.484V65.2812C384.484 62.8281 383.188 61.3672 380.984 61.3672C378.828 61.3672 377.398 62.8359 377.398 65.0703V66.3438C377.398 68.7578 378.75 70.1562 381.078 70.1562C382.859 70.1562 384.203 69.2109 384.461 67.8125H383.172ZM380.977 62.5078C382.344 62.5078 383.172 63.4844 383.172 65.1016H378.711C378.711 63.4766 379.562 62.5078 380.977 62.5078ZM396.836 61.5234L399.938 70H401.398L404.492 61.5234H403.078L400.727 68.5781H400.625L398.258 61.5234H396.836ZM409.695 70.1484C410.93 70.1484 411.852 69.6406 412.258 68.7344H412.391V70.0078H413.656V64.2031C413.656 62.4375 412.516 61.4219 410.523 61.4219C408.789 61.4219 407.477 62.3516 407.32 63.7109H408.625C408.844 62.9844 409.531 62.5703 410.508 62.5703C411.688 62.5703 412.336 63.1562 412.336 64.2188V64.9844L410.008 65.1016C408.078 65.2031 407 66.0938 407 67.5938C407 69.1328 408.078 70.1484 409.695 70.1484ZM410.078 68.9844C409.008 68.9844 408.344 68.4375 408.344 67.5469C408.344 66.6641 408.969 66.1562 410.156 66.1016L412.336 66V67C412.336 68.1328 411.359 68.9844 410.078 68.9844ZM424.148 70V68.8984H421.352V58.1953H417.148V59.2969H420.023V68.8984H417.125V70H424.148ZM430.484 59.4453C431.109 59.4453 431.586 58.9766 431.586 58.3516C431.586 57.7344 431.109 57.2656 430.484 57.2656C429.859 57.2656 429.383 57.7344 429.383 58.3516C429.383 58.9766 429.859 59.4453 430.484 59.4453ZM434.039 70V68.8984H431.234V61.5234H427.039V62.625H429.922V68.8984H427.016V70H434.039ZM439.695 70.1406C440.906 70.1406 441.797 69.6406 442.234 68.7031H442.383V70H443.688V58.1953H442.336V62.8359H442.195C441.828 61.9062 440.922 61.3828 439.695 61.3828C437.734 61.3828 436.453 62.7969 436.453 64.9688V66.5469C436.453 68.7266 437.734 70.1406 439.695 70.1406ZM440.086 68.9297C438.688 68.9297 437.789 67.9219 437.789 66.3594V65.1406C437.789 63.5781 438.688 62.5781 440.086 62.5781C441.477 62.5781 442.375 63.5781 442.375 65.1406V66.3594C442.375 67.9297 441.477 68.9297 440.086 68.9297ZM350.398 139.758V134.727H348.969V139.758H350.398ZM353.453 139.758V134.727H352.016V139.758H353.453ZM365.359 146V144.789H362.188V134.727H360.836L357.477 136.906V138.375L360.703 136.289H360.828V144.789H357.5V146H365.359ZM367.398 137.898V137.945H368.727V137.898C368.727 136.57 369.586 135.703 370.883 135.703C372.195 135.703 373.047 136.5 373.047 137.711C373.047 138.602 372.703 139.203 371.273 140.805L367.461 145.047V146H374.594V144.75H369.43V144.617L372.086 141.727C373.883 139.766 374.414 138.828 374.414 137.656C374.414 135.773 372.992 134.492 370.922 134.492C368.867 134.492 367.398 135.914 367.398 137.898ZM379.508 140.773H380.797C382.359 140.773 383.352 141.609 383.352 142.922C383.352 144.195 382.391 144.992 380.844 144.992C379.438 144.992 378.438 144.211 378.312 143.008H377.008C377.109 144.953 378.656 146.234 380.883 146.234C383.133 146.234 384.742 144.867 384.742 142.953C384.742 141.414 383.852 140.359 382.352 140.164V140.039C383.562 139.742 384.273 138.773 384.273 137.414C384.273 135.703 382.836 134.492 380.82 134.492C378.734 134.492 377.359 135.703 377.227 137.656H378.547C378.656 136.445 379.5 135.703 380.766 135.703C382.039 135.703 382.883 136.461 382.883 137.609C382.883 138.789 382 139.617 380.734 139.617H379.508V140.773ZM389.961 139.758V134.727H388.531V139.758H389.961ZM393.016 139.758V134.727H391.578V139.758H393.016ZM241.164 222H242.492V214.68H246.219V213.547H242.477V212.672C242.477 211.82 243.102 211.383 244.281 211.383C244.758 211.383 245.852 211.414 246.219 211.453V210.367C245.938 210.328 244.758 210.289 244.266 210.289C242.18 210.289 241.164 211.055 241.164 212.695V213.547H238.891V214.68H241.164V222ZM251.492 215.758V210.727H250.062V215.758H251.492ZM254.547 215.758V210.727H253.109V215.758H254.547ZM262.234 220.344H262.195L259.273 210.727H257.828L261.461 222H262.93L266.562 210.727H265.172L262.234 220.344ZM272.234 211.445C272.859 211.445 273.336 210.977 273.336 210.352C273.336 209.734 272.859 209.266 272.234 209.266C271.609 209.266 271.133 209.734 271.133 210.352C271.133 210.977 271.609 211.445 272.234 211.445ZM275.789 222V220.898H272.984V213.523H268.789V214.625H271.672V220.898H268.766V222H275.789ZM278.891 215.812C278.891 217.016 279.648 217.789 281.18 218.141L282.438 218.43C283.516 218.672 283.93 219.031 283.93 219.703C283.93 220.516 283.195 221.039 282.039 221.039C280.945 221.039 280.195 220.586 280 219.805H278.648C278.797 221.258 280.07 222.156 281.992 222.156C284 222.156 285.305 221.141 285.305 219.578C285.305 218.352 284.555 217.633 282.906 217.258L281.711 216.984C280.648 216.75 280.211 216.383 280.211 215.734C280.211 214.961 280.906 214.461 281.984 214.461C282.977 214.461 283.688 214.914 283.844 215.656H285.125C284.969 214.242 283.773 213.359 282.008 213.359C280.141 213.359 278.891 214.344 278.891 215.812ZM295.336 213.523H294.008V218.516C294.008 219.961 293.07 220.938 291.672 220.938C290.352 220.938 289.727 220.219 289.727 218.688V213.523H288.398V219.023C288.398 221.055 289.398 222.156 291.242 222.156C292.531 222.156 293.5 221.562 293.953 220.508H294.062V222H295.336V213.523ZM300.898 222.148C302.133 222.148 303.055 221.641 303.461 220.734H303.594V222.008H304.859V216.203C304.859 214.438 303.719 213.422 301.727 213.422C299.992 213.422 298.68 214.352 298.523 215.711H299.828C300.047 214.984 300.734 214.57 301.711 214.57C302.891 214.57 303.539 215.156 303.539 216.219V216.984L301.211 217.102C299.281 217.203 298.203 218.094 298.203 219.594C298.203 221.133 299.281 222.148 300.898 222.148ZM301.281 220.984C300.211 220.984 299.547 220.438 299.547 219.547C299.547 218.664 300.172 218.156 301.359 218.102L303.539 218V219C303.539 220.133 302.562 220.984 301.281 220.984ZM315.352 222V220.898H312.555V210.195H308.352V211.297H311.227V220.898H308.328V222H315.352ZM321.688 211.445C322.312 211.445 322.789 210.977 322.789 210.352C322.789 209.734 322.312 209.266 321.688 209.266C321.062 209.266 320.586 209.734 320.586 210.352C320.586 210.977 321.062 211.445 321.688 211.445ZM325.242 222V220.898H322.438V213.523H318.242V214.625H321.125V220.898H318.219V222H325.242ZM328.133 222H334.727V220.859H329.797V220.758L334.695 214.516V213.523H328.156V214.664H333.109V214.766L328.133 221.062V222ZM340.461 222.148C341.695 222.148 342.617 221.641 343.023 220.734H343.156V222.008H344.422V216.203C344.422 214.438 343.281 213.422 341.289 213.422C339.555 213.422 338.242 214.352 338.086 215.711H339.391C339.609 214.984 340.297 214.57 341.273 214.57C342.453 214.57 343.102 215.156 343.102 216.219V216.984L340.773 217.102C338.844 217.203 337.766 218.094 337.766 219.594C337.766 221.133 338.844 222.148 340.461 222.148ZM340.844 220.984C339.773 220.984 339.109 220.438 339.109 219.547C339.109 218.664 339.734 218.156 340.922 218.102L343.102 218V219C343.102 220.133 342.125 220.984 340.844 220.984ZM349.766 211.25V213.547H347.508V214.68H349.766V219.477C349.766 221.242 350.742 222.039 352.844 222.039C353.25 222.039 354.281 222 354.492 221.961V220.836C354.266 220.859 353.414 220.883 352.938 220.883C351.742 220.883 351.094 220.383 351.094 219.461V214.68H354.516V213.547H351.078V211.25H349.766ZM361.25 211.445C361.875 211.445 362.352 210.977 362.352 210.352C362.352 209.734 361.875 209.266 361.25 209.266C360.625 209.266 360.148 209.734 360.148 210.352C360.148 210.977 360.625 211.445 361.25 211.445ZM364.805 222V220.898H362V213.523H357.805V214.625H360.688V220.898H357.781V222H364.805ZM370.992 222.156C373.234 222.156 374.664 220.695 374.664 218.406V217.125C374.664 214.836 373.234 213.375 370.992 213.375C368.75 213.375 367.32 214.836 367.32 217.125V218.406C367.32 220.695 368.75 222.156 370.992 222.156ZM370.992 214.547C372.445 214.547 373.352 215.578 373.352 217.242V218.281C373.352 219.953 372.445 220.977 370.992 220.977C369.539 220.977 368.633 219.953 368.633 218.281V217.242C368.633 215.578 369.539 214.547 370.992 214.547ZM377.414 222H378.742V217.008C378.742 215.562 379.68 214.586 381.078 214.586C382.398 214.586 383.023 215.305 383.023 216.836V222H384.352V216.5C384.352 214.469 383.352 213.367 381.508 213.367C380.219 213.367 379.25 213.961 378.797 215.016H378.688V213.523H377.414V222ZM559.062 211.445C559.688 211.445 560.164 210.977 560.164 210.352C560.164 209.734 559.688 209.266 559.062 209.266C558.438 209.266 557.961 209.734 557.961 210.352C557.961 210.977 558.438 211.445 559.062 211.445ZM562.617 222V220.898H559.812V213.523H555.617V214.625H558.5V220.898H555.594V222H562.617ZM565.719 215.812C565.719 217.016 566.477 217.789 568.008 218.141L569.266 218.43C570.344 218.672 570.758 219.031 570.758 219.703C570.758 220.516 570.023 221.039 568.867 221.039C567.773 221.039 567.023 220.586 566.828 219.805H565.477C565.625 221.258 566.898 222.156 568.82 222.156C570.828 222.156 572.133 221.141 572.133 219.578C572.133 218.352 571.383 217.633 569.734 217.258L568.539 216.984C567.477 216.75 567.039 216.383 567.039 215.734C567.039 214.961 567.734 214.461 568.812 214.461C569.805 214.461 570.516 214.914 570.672 215.656H571.953C571.797 214.242 570.602 213.359 568.836 213.359C566.969 213.359 565.719 214.344 565.719 215.812ZM104.477 241.141C106.438 241.141 107.719 239.727 107.719 237.547V235.969C107.719 233.797 106.438 232.383 104.477 232.383C103.25 232.383 102.352 232.906 101.977 233.836H101.836V229.195H100.484V241H101.789V239.703H101.938C102.375 240.641 103.266 241.141 104.477 241.141ZM104.086 239.93C102.695 239.93 101.805 238.93 101.805 237.359V236.141C101.805 234.578 102.695 233.578 104.086 233.578C105.492 233.578 106.383 234.578 106.383 236.141V237.359C106.383 238.922 105.492 239.93 104.086 239.93ZM113.5 237.203C113.5 235.047 114.609 233.75 116.484 233.75C116.945 233.75 117.492 233.844 117.883 233.984V232.492C117.602 232.375 117.141 232.305 116.656 232.305C115.023 232.305 113.969 233.117 113.656 234.688H113.484V232.523H110.32V233.586H112.203V239.938H110.492V241H116.125V239.938H113.5V237.203ZM123.727 241.156C125.969 241.156 127.398 239.695 127.398 237.406V236.125C127.398 233.836 125.969 232.375 123.727 232.375C121.484 232.375 120.055 233.836 120.055 236.125V237.406C120.055 239.695 121.484 241.156 123.727 241.156ZM123.727 233.547C125.18 233.547 126.086 234.578 126.086 236.242V237.281C126.086 238.953 125.18 239.977 123.727 239.977C122.273 239.977 121.367 238.953 121.367 237.281V236.242C121.367 234.578 122.273 233.547 123.727 233.547ZM132.203 236.328H132.102V229.195H130.773V241H132.102V237.914L133.273 236.789L136.164 241H137.742L134.219 235.883L137.508 232.523H135.898L132.203 236.328ZM145.797 238.812C145.562 239.555 144.773 240.008 143.703 240.008C142.258 240.008 141.336 239.008 141.336 237.453V237.109H147.109V236.281C147.109 233.828 145.812 232.367 143.609 232.367C141.453 232.367 140.023 233.836 140.023 236.07V237.344C140.023 239.758 141.375 241.156 143.703 241.156C145.484 241.156 146.828 240.211 147.086 238.812H145.797ZM143.602 233.508C144.969 233.508 145.797 234.484 145.797 236.102H141.336C141.336 234.477 142.188 233.508 143.602 233.508ZM149.93 241H151.258V236.008C151.258 234.562 152.195 233.586 153.594 233.586C154.914 233.586 155.539 234.305 155.539 235.836V241H156.867V235.5C156.867 233.469 155.867 232.367 154.023 232.367C152.734 232.367 151.766 232.961 151.312 234.016H151.203V232.523H149.93V241ZM163.289 241.047C164.062 241.047 164.703 240.398 164.703 239.602C164.703 238.812 164.062 238.164 163.289 238.164C162.516 238.164 161.875 238.812 161.875 239.602C161.875 240.398 162.516 241.047 163.289 241.047ZM172.367 234.758V229.727H170.938V234.758H172.367ZM175.422 234.758V229.727H173.984V234.758H175.422Z" fill="#0BA94A"/>
<path d="M102.695 89H104.023V81.6797H107.75V80.5469H104.008V79.6719C104.008 78.8203 104.633 78.3828 105.812 78.3828C106.289 78.3828 107.383 78.4141 107.75 78.4531V77.3672C107.469 77.3281 106.289 77.2891 105.797 77.2891C103.711 77.2891 102.695 78.0547 102.695 79.6953V80.5469H100.422V81.6797H102.695V89ZM113.836 89.1562C116.078 89.1562 117.508 87.6953 117.508 85.4062V84.125C117.508 81.8359 116.078 80.375 113.836 80.375C111.594 80.375 110.164 81.8359 110.164 84.125V85.4062C110.164 87.6953 111.594 89.1562 113.836 89.1562ZM113.836 81.5469C115.289 81.5469 116.195 82.5781 116.195 84.2422V85.2812C116.195 86.9531 115.289 87.9766 113.836 87.9766C112.383 87.9766 111.477 86.9531 111.477 85.2812V84.2422C111.477 82.5781 112.383 81.5469 113.836 81.5469ZM123.391 85.2031C123.391 83.0469 124.5 81.75 126.375 81.75C126.836 81.75 127.383 81.8438 127.773 81.9844V80.4922C127.492 80.375 127.031 80.3047 126.547 80.3047C124.914 80.3047 123.859 81.1172 123.547 82.6875H123.375V80.5234H120.211V81.5859H122.094V87.9375H120.383V89H126.016V87.9375H123.391V85.2031ZM222.781 78.4453C223.406 78.4453 223.883 77.9766 223.883 77.3516C223.883 76.7344 223.406 76.2656 222.781 76.2656C222.156 76.2656 221.68 76.7344 221.68 77.3516C221.68 77.9766 222.156 78.4453 222.781 78.4453ZM226.336 89V87.8984H223.531V80.5234H219.336V81.625H222.219V87.8984H219.312V89H226.336ZM229.055 89H230.383V84.0078C230.383 82.5625 231.32 81.5859 232.719 81.5859C234.039 81.5859 234.664 82.3047 234.664 83.8359V89H235.992V83.5C235.992 81.4688 234.992 80.3672 233.148 80.3672C231.859 80.3672 230.891 80.9609 230.438 82.0156H230.328V80.5234H229.055V89ZM142.062 97.25V99.5469H139.805V100.68H142.062V105.477C142.062 107.242 143.039 108.039 145.141 108.039C145.547 108.039 146.578 108 146.789 107.961V106.836C146.562 106.859 145.711 106.883 145.234 106.883C144.039 106.883 143.391 106.383 143.391 105.461V100.68H146.812V99.5469H143.375V97.25H142.062ZM153.062 104.203C153.062 102.047 154.172 100.75 156.047 100.75C156.508 100.75 157.055 100.844 157.445 100.984V99.4922C157.164 99.375 156.703 99.3047 156.219 99.3047C154.586 99.3047 153.531 100.117 153.219 101.688H153.047V99.5234H149.883V100.586H151.766V106.938H150.055V108H155.688V106.938H153.062V104.203ZM160.914 111.016C162.484 111.016 163.195 110.398 163.938 108.312L167.133 99.5234H165.719L163.352 106.617H163.25L160.875 99.5234H159.43L162.547 108.055L162.398 108.516C162.047 109.5 161.609 109.859 160.812 109.859C160.688 109.859 160.445 109.852 160.344 109.828V110.992C160.461 111.008 160.719 111.016 160.914 111.016ZM227.211 137.523H225.914L224.766 144.32H224.625L223.258 137.531H222.008L220.641 144.32H220.5L219.352 137.523H218.055L219.875 146H221.148L222.586 139.391H222.68L224.117 146H225.391L227.211 137.523ZM232.523 146.156C234.766 146.156 236.195 144.695 236.195 142.406V141.125C236.195 138.836 234.766 137.375 232.523 137.375C230.281 137.375 228.852 138.836 228.852 141.125V142.406C228.852 144.695 230.281 146.156 232.523 146.156ZM232.523 138.547C233.977 138.547 234.883 139.578 234.883 141.242V142.281C234.883 143.953 233.977 144.977 232.523 144.977C231.07 144.977 230.164 143.953 230.164 142.281V141.242C230.164 139.578 231.07 138.547 232.523 138.547ZM242.078 142.203C242.078 140.047 243.188 138.75 245.062 138.75C245.523 138.75 246.07 138.844 246.461 138.984V137.492C246.18 137.375 245.719 137.305 245.234 137.305C243.602 137.305 242.547 138.117 242.234 139.688H242.062V137.523H238.898V138.586H240.781V144.938H239.07V146H244.703V144.938H242.078V142.203ZM250.891 141.328H250.789V134.195H249.461V146H250.789V142.914L251.961 141.789L254.852 146H256.43L252.906 140.883L256.195 137.523H254.586L250.891 141.328ZM259.109 139.812C259.109 141.016 259.867 141.789 261.398 142.141L262.656 142.43C263.734 142.672 264.148 143.031 264.148 143.703C264.148 144.516 263.414 145.039 262.258 145.039C261.164 145.039 260.414 144.586 260.219 143.805H258.867C259.016 145.258 260.289 146.156 262.211 146.156C264.219 146.156 265.523 145.141 265.523 143.578C265.523 142.352 264.773 141.633 263.125 141.258L261.93 140.984C260.867 140.75 260.43 140.383 260.43 139.734C260.43 138.961 261.125 138.461 262.203 138.461C263.195 138.461 263.906 138.914 264.062 139.656H265.344C265.188 138.242 263.992 137.359 262.227 137.359C260.359 137.359 259.109 138.344 259.109 139.812ZM272.617 137.383C271.406 137.383 270.523 137.883 270.078 138.82H269.938V137.523H268.625V148.859H269.977V144.688H270.125C270.492 145.617 271.391 146.141 272.617 146.141C274.578 146.141 275.859 144.727 275.859 142.555V140.977C275.859 138.797 274.578 137.383 272.617 137.383ZM272.234 138.602C273.633 138.602 274.523 139.602 274.523 141.164V142.383C274.523 143.945 273.633 144.953 272.234 144.953C270.836 144.953 269.945 143.953 269.945 142.383V141.164C269.945 139.602 270.836 138.602 272.234 138.602ZM281.117 146.148C282.352 146.148 283.273 145.641 283.68 144.734H283.812V146.008H285.078V140.203C285.078 138.438 283.938 137.422 281.945 137.422C280.211 137.422 278.898 138.352 278.742 139.711H280.047C280.266 138.984 280.953 138.57 281.93 138.57C283.109 138.57 283.758 139.156 283.758 140.219V140.984L281.43 141.102C279.5 141.203 278.422 142.094 278.422 143.594C278.422 145.133 279.5 146.148 281.117 146.148ZM281.5 144.984C280.43 144.984 279.766 144.438 279.766 143.547C279.766 142.664 280.391 142.156 281.578 142.102L283.758 142V143C283.758 144.133 282.781 144.984 281.5 144.984ZM295.398 140.164C295.18 138.422 293.898 137.359 292.023 137.359C289.719 137.359 288.375 138.773 288.375 141.203V142.312C288.375 144.742 289.719 146.156 292.023 146.156C293.898 146.156 295.188 145.102 295.398 143.375H294.086C293.922 144.344 293.094 144.961 292 144.961C290.523 144.961 289.703 143.961 289.703 142.141V141.375C289.703 139.555 290.523 138.547 292 138.547C293.094 138.547 293.922 139.172 294.086 140.164H295.398ZM304.047 143.812C303.812 144.555 303.023 145.008 301.953 145.008C300.508 145.008 299.586 144.008 299.586 142.453V142.109H305.359V141.281C305.359 138.828 304.062 137.367 301.859 137.367C299.703 137.367 298.273 138.836 298.273 141.07V142.344C298.273 144.758 299.625 146.156 301.953 146.156C303.734 146.156 305.078 145.211 305.336 143.812H304.047ZM301.852 138.508C303.219 138.508 304.047 139.484 304.047 141.102H299.586C299.586 139.477 300.438 138.508 301.852 138.508ZM315.703 148.438V147.289H307.594V148.438H315.703ZM321.688 135.445C322.312 135.445 322.789 134.977 322.789 134.352C322.789 133.734 322.312 133.266 321.688 133.266C321.062 133.266 320.586 133.734 320.586 134.352C320.586 134.977 321.062 135.445 321.688 135.445ZM325.242 146V144.898H322.438V137.523H318.242V138.625H321.125V144.898H318.219V146H325.242ZM330.898 146.141C332.109 146.141 333 145.641 333.438 144.703H333.586V146H334.891V134.195H333.539V138.836H333.398C333.031 137.906 332.125 137.383 330.898 137.383C328.938 137.383 327.656 138.797 327.656 140.969V142.547C327.656 144.727 328.938 146.141 330.898 146.141ZM331.289 144.93C329.891 144.93 328.992 143.922 328.992 142.359V141.141C328.992 139.578 329.891 138.578 331.289 138.578C332.68 138.578 333.578 139.578 333.578 141.141V142.359C333.578 143.93 332.68 144.93 331.289 144.93ZM222.781 154.445C223.406 154.445 223.883 153.977 223.883 153.352C223.883 152.734 223.406 152.266 222.781 152.266C222.156 152.266 221.68 152.734 221.68 153.352C221.68 153.977 222.156 154.445 222.781 154.445ZM226.336 165V163.898H223.531V156.523H219.336V157.625H222.219V163.898H219.312V165H226.336ZM229.055 165H230.383V160.008C230.383 158.562 231.32 157.586 232.719 157.586C234.039 157.586 234.664 158.305 234.664 159.836V165H235.992V159.5C235.992 157.469 234.992 156.367 233.148 156.367C231.859 156.367 230.891 156.961 230.438 158.016H230.328V156.523H229.055V165ZM239.328 158.812C239.328 160.016 240.086 160.789 241.617 161.141L242.875 161.43C243.953 161.672 244.367 162.031 244.367 162.703C244.367 163.516 243.633 164.039 242.477 164.039C241.383 164.039 240.633 163.586 240.438 162.805H239.086C239.234 164.258 240.508 165.156 242.43 165.156C244.438 165.156 245.742 164.141 245.742 162.578C245.742 161.352 244.992 160.633 243.344 160.258L242.148 159.984C241.086 159.75 240.648 159.383 240.648 158.734C240.648 157.961 241.344 157.461 242.422 157.461C243.414 157.461 244.125 157.914 244.281 158.656H245.562C245.406 157.242 244.211 156.359 242.445 156.359C240.578 156.359 239.328 157.344 239.328 158.812ZM252.453 154.445C253.078 154.445 253.555 153.977 253.555 153.352C253.555 152.734 253.078 152.266 252.453 152.266C251.828 152.266 251.352 152.734 251.352 153.352C251.352 153.977 251.828 154.445 252.453 154.445ZM256.008 165V163.898H253.203V156.523H249.008V157.625H251.891V163.898H248.984V165H256.008ZM261.945 168.18C264.242 168.18 265.602 166.992 265.602 165V156.523H264.289V157.836H264.141C263.773 156.922 262.844 156.383 261.617 156.383C259.633 156.383 258.336 157.789 258.336 159.969V161.492C258.336 163.664 259.625 165.078 261.586 165.078C262.82 165.078 263.758 164.539 264.133 163.648H264.273V164.969C264.273 166.328 263.453 167.078 261.969 167.078C260.836 167.078 259.984 166.617 259.812 165.914H258.5C258.672 167.32 259.984 168.18 261.945 168.18ZM259.672 161.305V160.141C259.672 158.586 260.578 157.578 261.984 157.578C263.383 157.578 264.281 158.578 264.281 160.141V161.305C264.281 162.867 263.383 163.875 261.984 163.875C260.578 163.875 259.672 162.859 259.672 161.305ZM268.609 165H269.938V160.016C269.938 158.57 270.883 157.594 272.281 157.594C273.609 157.594 274.234 158.32 274.234 159.844V165H275.562V159.508C275.562 157.484 274.562 156.375 272.719 156.375C271.422 156.375 270.445 156.969 270 158.023H269.891V153.195H268.609V165ZM280.531 154.25V156.547H278.273V157.68H280.531V162.477C280.531 164.242 281.508 165.039 283.609 165.039C284.016 165.039 285.047 165 285.258 164.961V163.836C285.031 163.859 284.18 163.883 283.703 163.883C282.508 163.883 281.859 163.383 281.859 162.461V157.68H285.281V156.547H281.844V154.25H280.531ZM145.797 200.812C145.562 201.555 144.773 202.008 143.703 202.008C142.258 202.008 141.336 201.008 141.336 199.453V199.109H147.109V198.281C147.109 195.828 145.812 194.367 143.609 194.367C141.453 194.367 140.023 195.836 140.023 198.07V199.344C140.023 201.758 141.375 203.156 143.703 203.156C145.484 203.156 146.828 202.211 147.086 200.812H145.797ZM143.602 195.508C144.969 195.508 145.797 196.484 145.797 198.102H141.336C141.336 196.477 142.188 195.508 143.602 195.508ZM153.43 199.734L155.562 203H157.102L154.18 198.703L157.078 194.523H155.586L153.484 197.734H153.375L151.266 194.523H149.695L152.625 198.758L149.719 203H151.188L153.328 199.734H153.43ZM166.82 197.164C166.602 195.422 165.32 194.359 163.445 194.359C161.141 194.359 159.797 195.773 159.797 198.203V199.312C159.797 201.742 161.141 203.156 163.445 203.156C165.32 203.156 166.609 202.102 166.82 200.375H165.508C165.344 201.344 164.516 201.961 163.422 201.961C161.945 201.961 161.125 200.961 161.125 199.141V198.375C161.125 196.555 161.945 195.547 163.422 195.547C164.516 195.547 165.344 196.172 165.508 197.164H166.82ZM175.469 200.812C175.234 201.555 174.445 202.008 173.375 202.008C171.93 202.008 171.008 201.008 171.008 199.453V199.109H176.781V198.281C176.781 195.828 175.484 194.367 173.281 194.367C171.125 194.367 169.695 195.836 169.695 198.07V199.344C169.695 201.758 171.047 203.156 173.375 203.156C175.156 203.156 176.5 202.211 176.758 200.812H175.469ZM173.273 195.508C174.641 195.508 175.469 196.484 175.469 198.102H171.008C171.008 196.477 171.859 195.508 173.273 195.508ZM183.602 194.383C182.391 194.383 181.508 194.883 181.062 195.82H180.922V194.523H179.609V205.859H180.961V201.688H181.109C181.477 202.617 182.375 203.141 183.602 203.141C185.562 203.141 186.844 201.727 186.844 199.555V197.977C186.844 195.797 185.562 194.383 183.602 194.383ZM183.219 195.602C184.617 195.602 185.508 196.602 185.508 198.164V199.383C185.508 200.945 184.617 201.953 183.219 201.953C181.82 201.953 180.93 200.953 180.93 199.383V198.164C180.93 196.602 181.82 195.602 183.219 195.602ZM191.516 192.25V194.547H189.258V195.68H191.516V200.477C191.516 202.242 192.492 203.039 194.594 203.039C195 203.039 196.031 203 196.242 202.961V201.836C196.016 201.859 195.164 201.883 194.688 201.883C193.492 201.883 192.844 201.383 192.844 200.461V195.68H196.266V194.547H192.828V192.25H191.516ZM183.602 213.383C182.391 213.383 181.508 213.883 181.062 214.82H180.922V213.523H179.609V224.859H180.961V220.688H181.109C181.477 221.617 182.375 222.141 183.602 222.141C185.562 222.141 186.844 220.727 186.844 218.555V216.977C186.844 214.797 185.562 213.383 183.602 213.383ZM183.219 214.602C184.617 214.602 185.508 215.602 185.508 217.164V218.383C185.508 219.945 184.617 220.953 183.219 220.953C181.82 220.953 180.93 219.953 180.93 218.383V217.164C180.93 215.602 181.82 214.602 183.219 214.602ZM192.625 218.203C192.625 216.047 193.734 214.75 195.609 214.75C196.07 214.75 196.617 214.844 197.008 214.984V213.492C196.727 213.375 196.266 213.305 195.781 213.305C194.148 213.305 193.094 214.117 192.781 215.688H192.609V213.523H189.445V214.586H191.328V220.938H189.617V222H195.25V220.938H192.625V218.203ZM203 211.445C203.625 211.445 204.102 210.977 204.102 210.352C204.102 209.734 203.625 209.266 203 209.266C202.375 209.266 201.898 209.734 201.898 210.352C201.898 210.977 202.375 211.445 203 211.445ZM206.555 222V220.898H203.75V213.523H199.555V214.625H202.438V220.898H199.531V222H206.555ZM209.273 222H210.602V217.008C210.602 215.562 211.539 214.586 212.938 214.586C214.258 214.586 214.883 215.305 214.883 216.836V222H216.211V216.5C216.211 214.469 215.211 213.367 213.367 213.367C212.078 213.367 211.109 213.961 210.656 215.016H210.547V213.523H209.273V222ZM221.188 211.25V213.547H218.93V214.68H221.188V219.477C221.188 221.242 222.164 222.039 224.266 222.039C224.672 222.039 225.703 222 225.914 221.961V220.836C225.688 220.859 224.836 220.883 224.359 220.883C223.164 220.883 222.516 220.383 222.516 219.461V214.68H225.938V213.547H222.5V211.25H221.188Z" fill="#1A15FD"/>
<path d="M143.656 78.4453C144.281 78.4453 144.758 77.9766 144.758 77.3516C144.758 76.7344 144.281 76.2656 143.656 76.2656C143.031 76.2656 142.555 76.7344 142.555 77.3516C142.555 77.9766 143.031 78.4453 143.656 78.4453ZM147.211 89V87.8984H144.406V80.5234H140.211V81.625H143.094V87.8984H140.188V89H147.211ZM149.93 89H151.258V84.0078C151.258 82.5625 152.195 81.5859 153.594 81.5859C154.914 81.5859 155.539 82.3047 155.539 83.8359V89H156.867V83.5C156.867 81.4688 155.867 80.3672 154.023 80.3672C152.734 80.3672 151.766 80.9609 151.312 82.0156H151.203V80.5234H149.93V89ZM160.203 82.8125C160.203 84.0156 160.961 84.7891 162.492 85.1406L163.75 85.4297C164.828 85.6719 165.242 86.0312 165.242 86.7031C165.242 87.5156 164.508 88.0391 163.352 88.0391C162.258 88.0391 161.508 87.5859 161.312 86.8047H159.961C160.109 88.2578 161.383 89.1562 163.305 89.1562C165.312 89.1562 166.617 88.1406 166.617 86.5781C166.617 85.3516 165.867 84.6328 164.219 84.2578L163.023 83.9844C161.961 83.75 161.523 83.3828 161.523 82.7344C161.523 81.9609 162.219 81.4609 163.297 81.4609C164.289 81.4609 165 81.9141 165.156 82.6562H166.438C166.281 81.2422 165.086 80.3594 163.32 80.3594C161.453 80.3594 160.203 81.3438 160.203 82.8125ZM173.328 78.4453C173.953 78.4453 174.43 77.9766 174.43 77.3516C174.43 76.7344 173.953 76.2656 173.328 76.2656C172.703 76.2656 172.227 76.7344 172.227 77.3516C172.227 77.9766 172.703 78.4453 173.328 78.4453ZM176.883 89V87.8984H174.078V80.5234H169.883V81.625H172.766V87.8984H169.859V89H176.883ZM182.82 92.1797C185.117 92.1797 186.477 90.9922 186.477 89V80.5234H185.164V81.8359H185.016C184.648 80.9219 183.719 80.3828 182.492 80.3828C180.508 80.3828 179.211 81.7891 179.211 83.9688V85.4922C179.211 87.6641 180.5 89.0781 182.461 89.0781C183.695 89.0781 184.633 88.5391 185.008 87.6484H185.148V88.9688C185.148 90.3281 184.328 91.0781 182.844 91.0781C181.711 91.0781 180.859 90.6172 180.688 89.9141H179.375C179.547 91.3203 180.859 92.1797 182.82 92.1797ZM180.547 85.3047V84.1406C180.547 82.5859 181.453 81.5781 182.859 81.5781C184.258 81.5781 185.156 82.5781 185.156 84.1406V85.3047C185.156 86.8672 184.258 87.875 182.859 87.875C181.453 87.875 180.547 86.8594 180.547 85.3047ZM189.484 89H190.812V84.0156C190.812 82.5703 191.758 81.5938 193.156 81.5938C194.484 81.5938 195.109 82.3203 195.109 83.8438V89H196.438V83.5078C196.438 81.4844 195.438 80.375 193.594 80.375C192.297 80.375 191.32 80.9688 190.875 82.0234H190.766V77.1953H189.484V89ZM201.406 78.25V80.5469H199.148V81.6797H201.406V86.4766C201.406 88.2422 202.383 89.0391 204.484 89.0391C204.891 89.0391 205.922 89 206.133 88.9609V87.8359C205.906 87.8594 205.055 87.8828 204.578 87.8828C203.383 87.8828 202.734 87.3828 202.734 86.4609V81.6797H206.156V80.5469H202.719V78.25H201.406ZM252.453 78.4453C253.078 78.4453 253.555 77.9766 253.555 77.3516C253.555 76.7344 253.078 76.2656 252.453 76.2656C251.828 76.2656 251.352 76.7344 251.352 77.3516C251.352 77.9766 251.828 78.4453 252.453 78.4453ZM256.008 89V87.8984H253.203V80.5234H249.008V81.625H251.891V87.8984H248.984V89H256.008ZM258.727 89H260.055V84.0078C260.055 82.5625 260.992 81.5859 262.391 81.5859C263.711 81.5859 264.336 82.3047 264.336 83.8359V89H265.664V83.5C265.664 81.4688 264.664 80.3672 262.82 80.3672C261.531 80.3672 260.562 80.9609 260.109 82.0156H260V80.5234H258.727V89ZM269 82.8125C269 84.0156 269.758 84.7891 271.289 85.1406L272.547 85.4297C273.625 85.6719 274.039 86.0312 274.039 86.7031C274.039 87.5156 273.305 88.0391 272.148 88.0391C271.055 88.0391 270.305 87.5859 270.109 86.8047H268.758C268.906 88.2578 270.18 89.1562 272.102 89.1562C274.109 89.1562 275.414 88.1406 275.414 86.5781C275.414 85.3516 274.664 84.6328 273.016 84.2578L271.82 83.9844C270.758 83.75 270.32 83.3828 270.32 82.7344C270.32 81.9609 271.016 81.4609 272.094 81.4609C273.086 81.4609 273.797 81.9141 273.953 82.6562H275.234C275.078 81.2422 273.883 80.3594 272.117 80.3594C270.25 80.3594 269 81.3438 269 82.8125ZM282.125 78.4453C282.75 78.4453 283.227 77.9766 283.227 77.3516C283.227 76.7344 282.75 76.2656 282.125 76.2656C281.5 76.2656 281.023 76.7344 281.023 77.3516C281.023 77.9766 281.5 78.4453 282.125 78.4453ZM285.68 89V87.8984H282.875V80.5234H278.68V81.625H281.562V87.8984H278.656V89H285.68ZM291.617 92.1797C293.914 92.1797 295.273 90.9922 295.273 89V80.5234H293.961V81.8359H293.812C293.445 80.9219 292.516 80.3828 291.289 80.3828C289.305 80.3828 288.008 81.7891 288.008 83.9688V85.4922C288.008 87.6641 289.297 89.0781 291.258 89.0781C292.492 89.0781 293.43 88.5391 293.805 87.6484H293.945V88.9688C293.945 90.3281 293.125 91.0781 291.641 91.0781C290.508 91.0781 289.656 90.6172 289.484 89.9141H288.172C288.344 91.3203 289.656 92.1797 291.617 92.1797ZM289.344 85.3047V84.1406C289.344 82.5859 290.25 81.5781 291.656 81.5781C293.055 81.5781 293.953 82.5781 293.953 84.1406V85.3047C293.953 86.8672 293.055 87.875 291.656 87.875C290.25 87.875 289.344 86.8594 289.344 85.3047ZM298.281 89H299.609V84.0156C299.609 82.5703 300.555 81.5938 301.953 81.5938C303.281 81.5938 303.906 82.3203 303.906 83.8438V89H305.234V83.5078C305.234 81.4844 304.234 80.375 302.391 80.375C301.094 80.375 300.117 80.9688 299.672 82.0234H299.562V77.1953H298.281V89ZM310.203 78.25V80.5469H307.945V81.6797H310.203V86.4766C310.203 88.2422 311.18 89.0391 313.281 89.0391C313.688 89.0391 314.719 89 314.93 88.9609V87.8359C314.703 87.8594 313.852 87.8828 313.375 87.8828C312.18 87.8828 311.531 87.3828 311.531 86.4609V81.6797H314.953V80.5469H311.516V78.25H310.203ZM318.453 82.8125C318.453 84.0156 319.211 84.7891 320.742 85.1406L322 85.4297C323.078 85.6719 323.492 86.0312 323.492 86.7031C323.492 87.5156 322.758 88.0391 321.602 88.0391C320.508 88.0391 319.758 87.5859 319.562 86.8047H318.211C318.359 88.2578 319.633 89.1562 321.555 89.1562C323.562 89.1562 324.867 88.1406 324.867 86.5781C324.867 85.3516 324.117 84.6328 322.469 84.2578L321.273 83.9844C320.211 83.75 319.773 83.3828 319.773 82.7344C319.773 81.9609 320.469 81.4609 321.547 81.4609C322.539 81.4609 323.25 81.9141 323.406 82.6562H324.688C324.531 81.2422 323.336 80.3594 321.57 80.3594C319.703 80.3594 318.453 81.3438 318.453 82.8125ZM331.43 83.0469C332.203 83.0469 332.844 82.3906 332.844 81.6016C332.844 80.8125 332.203 80.1562 331.43 80.1562C330.656 80.1562 330.016 80.8125 330.016 81.6016C330.016 82.3906 330.656 83.0469 331.43 83.0469ZM331.43 89.0469C332.203 89.0469 332.844 88.3984 332.844 87.6016C332.844 86.8125 332.203 86.1641 331.43 86.1641C330.656 86.1641 330.016 86.8125 330.016 87.6016C330.016 88.3984 330.656 89.0469 331.43 89.0469ZM173.18 102.047C173.953 102.047 174.594 101.391 174.594 100.602C174.594 99.8125 173.953 99.1562 173.18 99.1562C172.406 99.1562 171.766 99.8125 171.766 100.602C171.766 101.391 172.406 102.047 173.18 102.047ZM173.18 108.047C173.953 108.047 174.594 107.398 174.594 106.602C174.594 105.812 173.953 105.164 173.18 105.164C172.406 105.164 171.766 105.812 171.766 106.602C171.766 107.398 172.406 108.047 173.18 108.047ZM179.984 120.812C179.984 122.016 180.742 122.789 182.273 123.141L183.531 123.43C184.609 123.672 185.023 124.031 185.023 124.703C185.023 125.516 184.289 126.039 183.133 126.039C182.039 126.039 181.289 125.586 181.094 124.805H179.742C179.891 126.258 181.164 127.156 183.086 127.156C185.094 127.156 186.398 126.141 186.398 124.578C186.398 123.352 185.648 122.633 184 122.258L182.805 121.984C181.742 121.75 181.305 121.383 181.305 120.734C181.305 119.961 182 119.461 183.078 119.461C184.07 119.461 184.781 119.914 184.938 120.656H186.219C186.062 119.242 184.867 118.359 183.102 118.359C181.234 118.359 179.984 119.344 179.984 120.812ZM192.43 127.141C193.641 127.141 194.531 126.641 194.969 125.703H195.117V127H196.422V115.195H195.07V119.836H194.93C194.562 118.906 193.656 118.383 192.43 118.383C190.469 118.383 189.188 119.797 189.188 121.969V123.547C189.188 125.727 190.469 127.141 192.43 127.141ZM192.82 125.93C191.422 125.93 190.523 124.922 190.523 123.359V122.141C190.523 120.578 191.422 119.578 192.82 119.578C194.211 119.578 195.109 120.578 195.109 122.141V123.359C195.109 124.93 194.211 125.93 192.82 125.93ZM201.438 122.328H201.336V115.195H200.008V127H201.336V123.914L202.508 122.789L205.398 127H206.977L203.453 121.883L206.742 118.523H205.133L201.438 122.328ZM212.742 127.047C213.516 127.047 214.156 126.398 214.156 125.602C214.156 124.812 213.516 124.164 212.742 124.164C211.969 124.164 211.328 124.812 211.328 125.602C211.328 126.398 211.969 127.047 212.742 127.047ZM281.977 127.047C282.75 127.047 283.391 126.398 283.391 125.602C283.391 124.812 282.75 124.164 281.977 124.164C281.203 124.164 280.562 124.812 280.562 125.602C280.562 126.398 281.203 127.047 281.977 127.047ZM398.961 121.359C398.961 124.016 399.758 126.312 401.312 128.078H402.633C401.016 125.805 400.336 123.812 400.336 121.359C400.336 118.906 401.016 116.914 402.633 114.641H401.312C399.758 116.406 398.961 118.711 398.961 121.359ZM345.453 139.867V138.578H337.188V139.867H345.453ZM345.453 143.43V142.141H337.188V143.43H345.453ZM399.953 148.594L401.422 143.516H399.664L398.695 148.594H399.953ZM296 158.867V157.578H287.734V158.867H296ZM296 162.43V161.141H287.734V162.43H296ZM301.906 154.445C302.531 154.445 303.008 153.977 303.008 153.352C303.008 152.734 302.531 152.266 301.906 152.266C301.281 152.266 300.805 152.734 300.805 153.352C300.805 153.977 301.281 154.445 301.906 154.445ZM305.461 165V163.898H302.656V156.523H298.461V157.625H301.344V163.898H298.438V165H305.461ZM308.18 165H309.508V160.008C309.508 158.562 310.445 157.586 311.844 157.586C313.164 157.586 313.789 158.305 313.789 159.836V165H315.117V159.5C315.117 157.469 314.117 156.367 312.273 156.367C310.984 156.367 310.016 156.961 309.562 158.016H309.453V156.523H308.18V165ZM318.453 158.812C318.453 160.016 319.211 160.789 320.742 161.141L322 161.43C323.078 161.672 323.492 162.031 323.492 162.703C323.492 163.516 322.758 164.039 321.602 164.039C320.508 164.039 319.758 163.586 319.562 162.805H318.211C318.359 164.258 319.633 165.156 321.555 165.156C323.562 165.156 324.867 164.141 324.867 162.578C324.867 161.352 324.117 160.633 322.469 160.258L321.273 159.984C320.211 159.75 319.773 159.383 319.773 158.734C319.773 157.961 320.469 157.461 321.547 157.461C322.539 157.461 323.25 157.914 323.406 158.656H324.688C324.531 157.242 323.336 156.359 321.57 156.359C319.703 156.359 318.453 157.344 318.453 158.812ZM331.578 154.445C332.203 154.445 332.68 153.977 332.68 153.352C332.68 152.734 332.203 152.266 331.578 152.266C330.953 152.266 330.477 152.734 330.477 153.352C330.477 153.977 330.953 154.445 331.578 154.445ZM335.133 165V163.898H332.328V156.523H328.133V157.625H331.016V163.898H328.109V165H335.133ZM341.07 168.18C343.367 168.18 344.727 166.992 344.727 165V156.523H343.414V157.836H343.266C342.898 156.922 341.969 156.383 340.742 156.383C338.758 156.383 337.461 157.789 337.461 159.969V161.492C337.461 163.664 338.75 165.078 340.711 165.078C341.945 165.078 342.883 164.539 343.258 163.648H343.398V164.969C343.398 166.328 342.578 167.078 341.094 167.078C339.961 167.078 339.109 166.617 338.938 165.914H337.625C337.797 167.32 339.109 168.18 341.07 168.18ZM338.797 161.305V160.141C338.797 158.586 339.703 157.578 341.109 157.578C342.508 157.578 343.406 158.578 343.406 160.141V161.305C343.406 162.867 342.508 163.875 341.109 163.875C339.703 163.875 338.797 162.859 338.797 161.305ZM347.734 165H349.062V160.016C349.062 158.57 350.008 157.594 351.406 157.594C352.734 157.594 353.359 158.32 353.359 159.844V165H354.688V159.508C354.688 157.484 353.688 156.375 351.844 156.375C350.547 156.375 349.57 156.969 349.125 158.023H349.016V153.195H347.734V165ZM359.656 154.25V156.547H357.398V157.68H359.656V162.477C359.656 164.242 360.633 165.039 362.734 165.039C363.141 165.039 364.172 165 364.383 164.961V163.836C364.156 163.859 363.305 163.883 362.828 163.883C361.633 163.883 360.984 163.383 360.984 162.461V157.68H364.406V156.547H360.969V154.25H359.656ZM184.773 178.359C184.773 175.711 183.977 173.406 182.422 171.641H181.102C182.719 173.914 183.398 175.906 183.398 178.359C183.398 180.812 182.719 182.805 181.102 185.078H182.422C183.977 183.312 184.773 181.016 184.773 178.359ZM216.25 201.734H210.977V197.859H215.961V196.648H210.977V192.992H216.25V191.727H209.594V203H216.25V201.734ZM222.664 199.734L224.797 203H226.336L223.414 198.703L226.312 194.523H224.82L222.719 197.734H222.609L220.5 194.523H218.93L221.859 198.758L218.953 203H220.422L222.562 199.734H222.664ZM236.055 197.164C235.836 195.422 234.555 194.359 232.68 194.359C230.375 194.359 229.031 195.773 229.031 198.203V199.312C229.031 201.742 230.375 203.156 232.68 203.156C234.555 203.156 235.844 202.102 236.055 200.375H234.742C234.578 201.344 233.75 201.961 232.656 201.961C231.18 201.961 230.359 200.961 230.359 199.141V198.375C230.359 196.555 231.18 195.547 232.656 195.547C233.75 195.547 234.578 196.172 234.742 197.164H236.055ZM244.703 200.812C244.469 201.555 243.68 202.008 242.609 202.008C241.164 202.008 240.242 201.008 240.242 199.453V199.109H246.016V198.281C246.016 195.828 244.719 194.367 242.516 194.367C240.359 194.367 238.93 195.836 238.93 198.07V199.344C238.93 201.758 240.281 203.156 242.609 203.156C244.391 203.156 245.734 202.211 245.992 200.812H244.703ZM242.508 195.508C243.875 195.508 244.703 196.484 244.703 198.102H240.242C240.242 196.477 241.094 195.508 242.508 195.508ZM252.836 194.383C251.625 194.383 250.742 194.883 250.297 195.82H250.156V194.523H248.844V205.859H250.195V201.688H250.344C250.711 202.617 251.609 203.141 252.836 203.141C254.797 203.141 256.078 201.727 256.078 199.555V197.977C256.078 195.797 254.797 194.383 252.836 194.383ZM252.453 195.602C253.852 195.602 254.742 196.602 254.742 198.164V199.383C254.742 200.945 253.852 201.953 252.453 201.953C251.055 201.953 250.164 200.953 250.164 199.383V198.164C250.164 196.602 251.055 195.602 252.453 195.602ZM260.75 192.25V194.547H258.492V195.68H260.75V200.477C260.75 202.242 261.727 203.039 263.828 203.039C264.234 203.039 265.266 203 265.477 202.961V201.836C265.25 201.859 264.398 201.883 263.922 201.883C262.727 201.883 262.078 201.383 262.078 200.461V195.68H265.5V194.547H262.062V192.25H260.75ZM272.234 192.445C272.859 192.445 273.336 191.977 273.336 191.352C273.336 190.734 272.859 190.266 272.234 190.266C271.609 190.266 271.133 190.734 271.133 191.352C271.133 191.977 271.609 192.445 272.234 192.445ZM275.789 203V201.898H272.984V194.523H268.789V195.625H271.672V201.898H268.766V203H275.789ZM281.977 203.156C284.219 203.156 285.648 201.695 285.648 199.406V198.125C285.648 195.836 284.219 194.375 281.977 194.375C279.734 194.375 278.305 195.836 278.305 198.125V199.406C278.305 201.695 279.734 203.156 281.977 203.156ZM281.977 195.547C283.43 195.547 284.336 196.578 284.336 198.242V199.281C284.336 200.953 283.43 201.977 281.977 201.977C280.523 201.977 279.617 200.953 279.617 199.281V198.242C279.617 196.578 280.523 195.547 281.977 195.547ZM288.398 203H289.727V198.008C289.727 196.562 290.664 195.586 292.062 195.586C293.383 195.586 294.008 196.305 294.008 197.836V203H295.336V197.5C295.336 195.469 294.336 194.367 292.492 194.367C291.203 194.367 290.234 194.961 289.781 196.016H289.672V194.523H288.398V203ZM301.758 197.047C302.531 197.047 303.172 196.391 303.172 195.602C303.172 194.812 302.531 194.156 301.758 194.156C300.984 194.156 300.344 194.812 300.344 195.602C300.344 196.391 300.984 197.047 301.758 197.047ZM301.758 203.047C302.531 203.047 303.172 202.398 303.172 201.602C303.172 200.812 302.531 200.164 301.758 200.164C300.984 200.164 300.344 200.812 300.344 201.602C300.344 202.398 300.984 203.047 301.758 203.047ZM230.82 216.359C230.82 219.016 231.617 221.312 233.172 223.078H234.492C232.875 220.805 232.195 218.812 232.195 216.359C232.195 213.906 232.875 211.914 234.492 209.641H233.172C231.617 211.406 230.82 213.711 230.82 216.359ZM403.711 223.07V222H402.859C401.688 222 401.461 221.727 401.461 220.367V218.281C401.461 217.188 400.641 216.461 399.055 216.43V216.305C400.641 216.266 401.461 215.539 401.461 214.445V212.359C401.461 211 401.688 210.727 402.859 210.727H403.711V209.656H402.648C400.75 209.656 400.148 210.258 400.148 212.188V213.938C400.148 215.148 399.445 215.844 397.617 215.656V217.07C399.445 216.883 400.148 217.586 400.148 218.789V220.539C400.148 222.469 400.75 223.07 402.648 223.07H403.711ZM410.703 211.445C411.328 211.445 411.805 210.977 411.805 210.352C411.805 209.734 411.328 209.266 410.703 209.266C410.078 209.266 409.602 209.734 409.602 210.352C409.602 210.977 410.078 211.445 410.703 211.445ZM414.258 222V220.898H411.453V213.523H407.258V214.625H410.141V220.898H407.234V222H414.258ZM416.977 222H418.305V217.008C418.305 215.562 419.242 214.586 420.641 214.586C421.961 214.586 422.586 215.305 422.586 216.836V222H423.914V216.5C423.914 214.469 422.914 213.367 421.07 213.367C419.781 213.367 418.812 213.961 418.359 215.016H418.25V213.523H416.977V222ZM427.25 215.812C427.25 217.016 428.008 217.789 429.539 218.141L430.797 218.43C431.875 218.672 432.289 219.031 432.289 219.703C432.289 220.516 431.555 221.039 430.398 221.039C429.305 221.039 428.555 220.586 428.359 219.805H427.008C427.156 221.258 428.43 222.156 430.352 222.156C432.359 222.156 433.664 221.141 433.664 219.578C433.664 218.352 432.914 217.633 431.266 217.258L430.07 216.984C429.008 216.75 428.57 216.383 428.57 215.734C428.57 214.961 429.266 214.461 430.344 214.461C431.336 214.461 432.047 214.914 432.203 215.656H433.484C433.328 214.242 432.133 213.359 430.367 213.359C428.5 213.359 427.25 214.344 427.25 215.812ZM440.375 211.445C441 211.445 441.477 210.977 441.477 210.352C441.477 209.734 441 209.266 440.375 209.266C439.75 209.266 439.273 209.734 439.273 210.352C439.273 210.977 439.75 211.445 440.375 211.445ZM443.93 222V220.898H441.125V213.523H436.93V214.625H439.812V220.898H436.906V222H443.93ZM449.867 225.18C452.164 225.18 453.523 223.992 453.523 222V213.523H452.211V214.836H452.062C451.695 213.922 450.766 213.383 449.539 213.383C447.555 213.383 446.258 214.789 446.258 216.969V218.492C446.258 220.664 447.547 222.078 449.508 222.078C450.742 222.078 451.68 221.539 452.055 220.648H452.195V221.969C452.195 223.328 451.375 224.078 449.891 224.078C448.758 224.078 447.906 223.617 447.734 222.914H446.422C446.594 224.32 447.906 225.18 449.867 225.18ZM447.594 218.305V217.141C447.594 215.586 448.5 214.578 449.906 214.578C451.305 214.578 452.203 215.578 452.203 217.141V218.305C452.203 219.867 451.305 220.875 449.906 220.875C448.5 220.875 447.594 219.859 447.594 218.305ZM456.531 222H457.859V217.016C457.859 215.57 458.805 214.594 460.203 214.594C461.531 214.594 462.156 215.32 462.156 216.844V222H463.484V216.508C463.484 214.484 462.484 213.375 460.641 213.375C459.344 213.375 458.367 213.969 457.922 215.023H457.812V210.195H456.531V222ZM468.453 211.25V213.547H466.195V214.68H468.453V219.477C468.453 221.242 469.43 222.039 471.531 222.039C471.938 222.039 472.969 222 473.18 221.961V220.836C472.953 220.859 472.102 220.883 471.625 220.883C470.43 220.883 469.781 220.383 469.781 219.461V214.68H473.203V213.547H469.766V211.25H468.453ZM479.789 222.047C480.562 222.047 481.203 221.398 481.203 220.602C481.203 219.812 480.562 219.164 479.789 219.164C479.016 219.164 478.375 219.812 478.375 220.602C478.375 221.398 479.016 222.047 479.789 222.047ZM536.086 223.07H537.148C539.047 223.07 539.648 222.469 539.648 220.539V218.789C539.648 217.586 540.352 216.883 542.18 217.07V215.656C540.352 215.844 539.648 215.148 539.648 213.938V212.188C539.648 210.258 539.047 209.656 537.148 209.656H536.086V210.727H536.938C538.109 210.727 538.336 211 538.336 212.359V214.445C538.336 215.539 539.156 216.266 540.742 216.305V216.43C539.156 216.461 538.336 217.188 538.336 218.281V220.367C538.336 221.727 538.109 222 536.938 222H536.086V223.07ZM184.773 235.359C184.773 232.711 183.977 230.406 182.422 228.641H181.102C182.719 230.914 183.398 232.906 183.398 235.359C183.398 237.812 182.719 239.805 181.102 242.078H182.422C183.977 240.312 184.773 238.016 184.773 235.359Z" fill="black"/>
<path d="M221.188 116.25V118.547H218.93V119.68H221.188V124.477C221.188 126.242 222.164 127.039 224.266 127.039C224.672 127.039 225.703 127 225.914 126.961V125.836C225.688 125.859 224.836 125.883 224.359 125.883C223.164 125.883 222.516 125.383 222.516 124.461V119.68H225.938V118.547H222.5V116.25H221.188ZM231.664 127.148C232.898 127.148 233.82 126.641 234.227 125.734H234.359V127.008H235.625V121.203C235.625 119.438 234.484 118.422 232.492 118.422C230.758 118.422 229.445 119.352 229.289 120.711H230.594C230.812 119.984 231.5 119.57 232.477 119.57C233.656 119.57 234.305 120.156 234.305 121.219V121.984L231.977 122.102C230.047 122.203 228.969 123.094 228.969 124.594C228.969 126.133 230.047 127.148 231.664 127.148ZM232.047 125.984C230.977 125.984 230.312 125.438 230.312 124.547C230.312 123.664 230.938 123.156 232.125 123.102L234.305 123V124C234.305 125.133 233.328 125.984 232.047 125.984ZM242.945 127.141C244.906 127.141 246.188 125.727 246.188 123.547V121.969C246.188 119.797 244.906 118.383 242.945 118.383C241.719 118.383 240.82 118.906 240.445 119.836H240.305V115.195H238.953V127H240.258V125.703H240.406C240.844 126.641 241.734 127.141 242.945 127.141ZM242.555 125.93C241.164 125.93 240.273 124.93 240.273 123.359V122.141C240.273 120.578 241.164 119.578 242.555 119.578C243.961 119.578 244.852 120.578 244.852 122.141V123.359C244.852 124.922 243.961 125.93 242.555 125.93ZM256.008 127V125.898H253.211V115.195H249.008V116.297H251.883V125.898H248.984V127H256.008ZM264.484 124.812C264.25 125.555 263.461 126.008 262.391 126.008C260.945 126.008 260.023 125.008 260.023 123.453V123.109H265.797V122.281C265.797 119.828 264.5 118.367 262.297 118.367C260.141 118.367 258.711 119.836 258.711 122.07V123.344C258.711 125.758 260.062 127.156 262.391 127.156C264.172 127.156 265.516 126.211 265.773 124.812H264.484ZM262.289 119.508C263.656 119.508 264.484 120.484 264.484 122.102H260.023C260.023 120.477 260.875 119.508 262.289 119.508ZM269 120.812C269 122.016 269.758 122.789 271.289 123.141L272.547 123.43C273.625 123.672 274.039 124.031 274.039 124.703C274.039 125.516 273.305 126.039 272.148 126.039C271.055 126.039 270.305 125.586 270.109 124.805H268.758C268.906 126.258 270.18 127.156 272.102 127.156C274.109 127.156 275.414 126.141 275.414 124.578C275.414 123.352 274.664 122.633 273.016 122.258L271.82 121.984C270.758 121.75 270.32 121.383 270.32 120.734C270.32 119.961 271.016 119.461 272.094 119.461C273.086 119.461 273.797 119.914 273.953 120.656H275.234C275.078 119.242 273.883 118.359 272.117 118.359C270.25 118.359 269 119.344 269 120.812ZM488.234 211.25V213.547H485.977V214.68H488.234V219.477C488.234 221.242 489.211 222.039 491.312 222.039C491.719 222.039 492.75 222 492.961 221.961V220.836C492.734 220.859 491.883 220.883 491.406 220.883C490.211 220.883 489.562 220.383 489.562 219.461V214.68H492.984V213.547H489.547V211.25H488.234ZM499.719 211.445C500.344 211.445 500.82 210.977 500.82 210.352C500.82 209.734 500.344 209.266 499.719 209.266C499.094 209.266 498.617 209.734 498.617 210.352C498.617 210.977 499.094 211.445 499.719 211.445ZM503.273 222V220.898H500.469V213.523H496.273V214.625H499.156V220.898H496.25V222H503.273ZM508.016 211.25V213.547H505.758V214.68H508.016V219.477C508.016 221.242 508.992 222.039 511.094 222.039C511.5 222.039 512.531 222 512.742 221.961V220.836C512.516 220.859 511.664 220.883 511.188 220.883C509.992 220.883 509.344 220.383 509.344 219.461V214.68H512.766V213.547H509.328V211.25H508.016ZM523.055 222V220.898H520.258V210.195H516.055V211.297H518.93V220.898H516.031V222H523.055ZM531.531 219.812C531.297 220.555 530.508 221.008 529.438 221.008C527.992 221.008 527.07 220.008 527.07 218.453V218.109H532.844V217.281C532.844 214.828 531.547 213.367 529.344 213.367C527.188 213.367 525.758 214.836 525.758 217.07V218.344C525.758 220.758 527.109 222.156 529.438 222.156C531.219 222.156 532.562 221.211 532.82 219.812H531.531ZM529.336 214.508C530.703 214.508 531.531 215.484 531.531 217.102H527.07C527.07 215.477 527.922 214.508 529.336 214.508Z" fill="#919191"/>
<path d="M290.617 127H291.945V119.68H295.672V118.547H291.93V117.672C291.93 116.82 292.555 116.383 293.734 116.383C294.211 116.383 295.305 116.414 295.672 116.453V115.367C295.391 115.328 294.211 115.289 293.719 115.289C291.633 115.289 290.617 116.055 290.617 117.695V118.547H288.344V119.68H290.617V127ZM301.758 127.156C304 127.156 305.43 125.695 305.43 123.406V122.125C305.43 119.836 304 118.375 301.758 118.375C299.516 118.375 298.086 119.836 298.086 122.125V123.406C298.086 125.695 299.516 127.156 301.758 127.156ZM301.758 119.547C303.211 119.547 304.117 120.578 304.117 122.242V123.281C304.117 124.953 303.211 125.977 301.758 125.977C300.305 125.977 299.398 124.953 299.398 123.281V122.242C299.398 120.578 300.305 119.547 301.758 119.547ZM311.312 123.203C311.312 121.047 312.422 119.75 314.297 119.75C314.758 119.75 315.305 119.844 315.695 119.984V118.492C315.414 118.375 314.953 118.305 314.469 118.305C312.836 118.305 311.781 119.117 311.469 120.688H311.297V118.523H308.133V119.586H310.016V125.938H308.305V127H313.938V125.938H311.312V123.203ZM325.594 129.438V128.289H317.484V129.438H325.594ZM331.578 116.445C332.203 116.445 332.68 115.977 332.68 115.352C332.68 114.734 332.203 114.266 331.578 114.266C330.953 114.266 330.477 114.734 330.477 115.352C330.477 115.977 330.953 116.445 331.578 116.445ZM335.133 127V125.898H332.328V118.523H328.133V119.625H331.016V125.898H328.109V127H335.133ZM337.852 127H339.18V122.008C339.18 120.562 340.117 119.586 341.516 119.586C342.836 119.586 343.461 120.305 343.461 121.836V127H344.789V121.5C344.789 119.469 343.789 118.367 341.945 118.367C340.656 118.367 339.688 118.961 339.234 120.016H339.125V118.523H337.852V127ZM348.125 120.812C348.125 122.016 348.883 122.789 350.414 123.141L351.672 123.43C352.75 123.672 353.164 124.031 353.164 124.703C353.164 125.516 352.43 126.039 351.273 126.039C350.18 126.039 349.43 125.586 349.234 124.805H347.883C348.031 126.258 349.305 127.156 351.227 127.156C353.234 127.156 354.539 126.141 354.539 124.578C354.539 123.352 353.789 122.633 352.141 122.258L350.945 121.984C349.883 121.75 349.445 121.383 349.445 120.734C349.445 119.961 350.141 119.461 351.219 119.461C352.211 119.461 352.922 119.914 353.078 120.656H354.359C354.203 119.242 353.008 118.359 351.242 118.359C349.375 118.359 348.125 119.344 348.125 120.812ZM361.25 116.445C361.875 116.445 362.352 115.977 362.352 115.352C362.352 114.734 361.875 114.266 361.25 114.266C360.625 114.266 360.148 114.734 360.148 115.352C360.148 115.977 360.625 116.445 361.25 116.445ZM364.805 127V125.898H362V118.523H357.805V119.625H360.688V125.898H357.781V127H364.805ZM370.742 130.18C373.039 130.18 374.398 128.992 374.398 127V118.523H373.086V119.836H372.938C372.57 118.922 371.641 118.383 370.414 118.383C368.43 118.383 367.133 119.789 367.133 121.969V123.492C367.133 125.664 368.422 127.078 370.383 127.078C371.617 127.078 372.555 126.539 372.93 125.648H373.07V126.969C373.07 128.328 372.25 129.078 370.766 129.078C369.633 129.078 368.781 128.617 368.609 127.914H367.297C367.469 129.32 368.781 130.18 370.742 130.18ZM368.469 123.305V122.141C368.469 120.586 369.375 119.578 370.781 119.578C372.18 119.578 373.078 120.578 373.078 122.141V123.305C373.078 124.867 372.18 125.875 370.781 125.875C369.375 125.875 368.469 124.859 368.469 123.305ZM377.406 127H378.734V122.016C378.734 120.57 379.68 119.594 381.078 119.594C382.406 119.594 383.031 120.32 383.031 121.844V127H384.359V121.508C384.359 119.484 383.359 118.375 381.516 118.375C380.219 118.375 379.242 118.969 378.797 120.023H378.688V115.195H377.406V127ZM389.328 116.25V118.547H387.07V119.68H389.328V124.477C389.328 126.242 390.305 127.039 392.406 127.039C392.812 127.039 393.844 127 394.055 126.961V125.836C393.828 125.859 392.977 125.883 392.5 125.883C391.305 125.883 390.656 125.383 390.656 124.461V119.68H394.078V118.547H390.641V116.25H389.328Z" fill="#BB0894"/>
<rect x="98" y="165" width="564" height="68" fill="url(#paint2_linear_3014_1254)"/>
</g>
</g>
<path d="M363 233L381 251L399 233H363Z" fill="white"/>
<defs>
<filter id="filter0_dddddd_3014_1254" x="0.654984" y="17" width="760.69" height="351.776" filterUnits="userSpaceOnUse" color-interpolation-filters="sRGB">
<feFlood flood-opacity="0" result="BackgroundImageFix"/>
<feColorMatrix in="SourceAlpha" type="matrix" values="0 0 0 0 0 0 0 0 0 0 0 0 0 0 0 0 0 0 127 0" result="hardAlpha"/>
<feOffset dy="2.08738"/>
<feGaussianBlur stdDeviation="0.834951"/>
<feColorMatrix type="matrix" values="0 0 0 0 0.109804 0 0 0 0 0.0509804 0 0 0 0 0.247059 0 0 0 0.0196802 0"/>
<feBlend mode="normal" in2="BackgroundImageFix" result="effect1_dropShadow_3014_1254"/>
<feColorMatrix in="SourceAlpha" type="matrix" values="0 0 0 0 0 0 0 0 0 0 0 0 0 0 0 0 0 0 127 0" result="hardAlpha"/>
<feOffset dy="5.01626"/>
<feGaussianBlur stdDeviation="2.0065"/>
<feColorMatrix type="matrix" values="0 0 0 0 0.109804 0 0 0 0 0.0509804 0 0 0 0 0.247059 0 0 0 0.0282725 0"/>
<feBlend mode="normal" in2="effect1_dropShadow_3014_1254" result="effect2_dropShadow_3014_1254"/>
<feColorMatrix in="SourceAlpha" type="matrix" values="0 0 0 0 0 0 0 0 0 0 0 0 0 0 0 0 0 0 127 0" result="hardAlpha"/>
<feOffset dy="9.44516"/>
<feGaussianBlur stdDeviation="3.77807"/>
<feColorMatrix type="matrix" values="0 0 0 0 0.109804 0 0 0 0 0.0509804 0 0 0 0 0.247059 0 0 0 0.035 0"/>
<feBlend mode="normal" in2="effect2_dropShadow_3014_1254" result="effect3_dropShadow_3014_1254"/>
<feColorMatrix in="SourceAlpha" type="matrix" values="0 0 0 0 0 0 0 0 0 0 0 0 0 0 0 0 0 0 127 0" result="hardAlpha"/>
<feOffset dy="16.8486"/>
<feGaussianBlur stdDeviation="6.73942"/>
<feColorMatrix type="matrix" values="0 0 0 0 0.109804 0 0 0 0 0.0509804 0 0 0 0 0.247059 0 0 0 0.0417275 0"/>
<feBlend mode="normal" in2="effect3_dropShadow_3014_1254" result="effect4_dropShadow_3014_1254"/>
<feColorMatrix in="SourceAlpha" type="matrix" values="0 0 0 0 0 0 0 0 0 0 0 0 0 0 0 0 0 0 127 0" result="hardAlpha"/>
<feOffset dy="31.5134"/>
<feGaussianBlur stdDeviation="12.6054"/>
<feColorMatrix type="matrix" values="0 0 0 0 0.109804 0 0 0 0 0.0509804 0 0 0 0 0.247059 0 0 0 0.0503198 0"/>
<feBlend mode="normal" in2="effect4_dropShadow_3014_1254" result="effect5_dropShadow_3014_1254"/>
<feColorMatrix in="SourceAlpha" type="matrix" values="0 0 0 0 0 0 0 0 0 0 0 0 0 0 0 0 0 0 127 0" result="hardAlpha"/>
<feOffset dy="75.4313"/>
<feGaussianBlur stdDeviation="30.1725"/>
<feColorMatrix type="matrix" values="0 0 0 0 0.109804 0 0 0 0 0.0509804 0 0 0 0 0.247059 0 0 0 0.07 0"/>
<feBlend mode="normal" in2="effect5_dropShadow_3014_1254" result="effect6_dropShadow_3014_1254"/>
<feBlend mode="normal" in="SourceGraphic" in2="effect6_dropShadow_3014_1254" result="shape"/>
</filter>
<linearGradient id="paint0_linear_3014_1254" x1="357.155" y1="289.975" x2="385.872" y2="318.788" gradientUnits="userSpaceOnUse">
<stop stop-color="#387EB8"/>
<stop offset="1" stop-color="#366994"/>
</linearGradient>
<linearGradient id="paint1_linear_3014_1254" x1="374.827" y1="308.302" x2="405.669" y2="337.85" gradientUnits="userSpaceOnUse">
<stop stop-color="#FFE052"/>
<stop offset="1" stop-color="#FFC331"/>
</linearGradient>
<linearGradient id="paint2_linear_3014_1254" x1="380" y1="165" x2="380" y2="233" gradientUnits="userSpaceOnUse">
<stop stop-color="white" stop-opacity="0"/>
<stop offset="0.598958" stop-color="white"/>
</linearGradient>
<clipPath id="clip0_3014_1254">
<rect width="640" height="95" fill="white" transform="translate(61 275)"/>
</clipPath>
<clipPath id="clip1_3014_1254">
<rect x="61" y="17" width="640" height="216" rx="8" fill="white"/>
</clipPath>
</defs>
</svg>
