<svg width="762" height="370" viewBox="0 0 762 370" fill="none" xmlns="http://www.w3.org/2000/svg">
<g clip-path="url(#clip0_3014_1135)">
<line x1="547.277" y1="311.252" x2="443.078" y2="311.252" stroke="white" stroke-width="2" stroke-dasharray="6.8 4.86"/>
<line x1="317.031" y1="311.252" x2="212.832" y2="311.252" stroke="white" stroke-width="2" stroke-dasharray="6.8 4.86"/>
<path d="M487.195 318.729L496.116 310.734L487.195 302.739" stroke="white" stroke-width="2" stroke-linecap="round" stroke-linejoin="round"/>
<path d="M263.629 318.729L254.709 310.734L263.629 302.739" stroke="white" stroke-width="2" stroke-linecap="round" stroke-linejoin="round"/>
<circle cx="152.523" cy="313.58" r="38.2891" fill="#ED26B7"/>
<path d="M173.164 320.015C173.015 313.673 169.514 308.639 164.169 306.671V295.633C162.82 294.77 161.383 294.057 159.884 293.509V317.256C159.884 321.96 157.702 324.061 154.194 324.061C150.78 324.061 147.924 321.482 147.924 317.169C147.924 312.355 151.676 309.416 156.588 309.416C157.043 309.408 157.507 309.431 157.962 309.502V305.3C157.507 305.222 157.052 305.183 156.588 305.191C149.297 305.191 143.584 309.66 143.584 317.178C143.584 324.407 148.74 328.264 154.485 328.264C157.208 328.264 159.563 327.338 161.188 325.747C162.812 324.155 164.187 321.858 164.187 317.82V311.242C167.153 312.724 168.943 316.315 168.951 320.423C168.935 328.161 161.754 334.7 153.333 334.7C153.137 334.7 152.987 334.7 152.791 334.692C147.015 334.684 141.937 332.598 137.824 328.482C134.865 325.519 132.84 321.748 132.024 317.647C131.208 313.539 131.624 309.29 133.232 305.417C134.834 301.551 137.549 298.243 141.033 295.914C144.518 293.586 148.615 292.347 152.806 292.347V288.035C149.454 288.035 146.135 288.694 143.042 289.972C139.95 291.25 137.133 293.131 134.763 295.492C129.975 300.266 127.283 306.749 127.283 313.508C127.283 320.265 129.967 326.75 134.746 331.532C139.526 336.315 146.016 339.004 152.782 339.004H153.323C155.404 339.004 157.476 338.683 159.469 338.063C159.477 338.063 159.485 338.055 159.493 338.055C162.373 337.161 165.01 335.64 167.223 333.602C171.045 330.074 173.149 325.41 173.165 320.447C173.172 320.43 173.164 320.023 173.164 320.015Z" fill="white"/>
<circle cx="380.617" cy="313.103" r="38.3743" fill="white"/>
<path d="M380.402 284.925C365.659 284.925 366.58 291.319 366.58 291.319L366.596 297.942H380.665V299.931H361.008C361.008 299.931 351.574 298.861 351.574 313.737C351.574 328.613 359.808 328.086 359.808 328.086H364.722V321.183C364.722 321.183 364.457 312.948 372.825 312.948C381.193 312.948 386.779 312.948 386.779 312.948C386.779 312.948 394.619 313.075 394.619 305.371C394.619 297.668 394.619 292.633 394.619 292.633C394.619 292.633 395.81 284.925 380.402 284.925ZM372.644 289.379C374.044 289.379 375.176 290.511 375.176 291.91C375.176 293.31 374.044 294.441 372.644 294.441C371.245 294.441 370.113 293.31 370.113 291.91C370.113 290.511 371.245 289.379 372.644 289.379Z" fill="url(#paint0_linear_3014_1135)"/>
<path d="M380.827 342.696C395.571 342.696 394.65 336.302 394.65 336.302L394.634 329.679H380.564V327.69H400.222C400.222 327.69 409.656 328.76 409.656 313.884C409.656 299.008 401.422 299.535 401.422 299.535H396.507V306.438C396.507 306.438 396.772 314.673 388.404 314.673C380.037 314.673 374.45 314.673 374.45 314.673C374.45 314.673 366.61 314.546 366.61 322.25C366.61 329.953 366.61 334.987 366.61 334.987C366.61 334.987 365.42 342.696 380.827 342.696ZM388.585 338.242C387.185 338.242 386.054 337.11 386.054 335.711C386.054 334.311 387.185 333.179 388.585 333.179C389.985 333.179 391.116 334.311 391.116 335.711C391.116 337.11 389.985 338.242 388.585 338.242Z" fill="url(#paint1_linear_3014_1135)"/>
<circle cx="609.742" cy="313.103" r="38.3743" fill="white"/>
<path fill-rule="evenodd" clip-rule="evenodd" d="M588.031 317.654C588.031 318.096 588.114 318.552 588.293 318.993L588.29 318.986L590.164 323.68L590.161 323.677C590.714 325.067 592.036 325.909 593.43 325.909C593.866 325.909 594.316 325.826 594.744 325.651L595.488 325.344C596.123 326.109 596.807 326.812 597.54 327.46L597.23 328.207V328.203C597.039 328.654 596.945 329.128 596.945 329.597C596.945 330.981 597.75 332.303 599.093 332.885L603.691 334.862C604.134 335.052 604.601 335.144 605.057 335.144C606.429 335.144 607.733 334.331 608.308 332.975L608.311 332.972L608.626 332.218C608.716 332.226 608.807 332.234 608.898 332.242H608.898C609.349 332.282 609.8 332.322 610.255 332.322C610.589 332.322 610.923 332.298 611.257 332.274C611.354 332.267 611.451 332.26 611.547 332.254L611.849 333.004C612.403 334.392 613.725 335.235 615.119 335.235C615.556 335.235 616.001 335.151 616.429 334.976L621.064 333.079C622.434 332.519 623.266 331.182 623.266 329.772C623.266 329.326 623.183 328.872 623.007 328.438L622.712 327.684C623.461 327.041 624.157 326.348 624.796 325.606L625.533 325.925C625.979 326.115 626.445 326.208 626.901 326.208C628.275 326.208 629.582 325.392 630.156 324.035L632.109 319.376V319.373C632.297 318.922 632.384 318.451 632.384 317.992C632.384 316.6 631.581 315.278 630.236 314.701H630.243L629.503 314.382L629.521 314.166L629.521 314.166C629.562 313.694 629.603 313.222 629.603 312.746C629.603 312.406 629.578 312.064 629.554 311.723C629.546 311.621 629.539 311.52 629.532 311.418L630.275 311.115C631.644 310.55 632.472 309.213 632.469 307.806C632.469 307.358 632.389 306.907 632.219 306.476L632.216 306.472L630.345 301.779C629.79 300.389 628.468 299.549 627.076 299.549C626.636 299.549 626.188 299.632 625.757 299.809L625.762 299.808L625.018 300.109C624.385 299.35 623.702 298.646 622.97 298L623.284 297.253V297.25C623.473 296.8 623.562 296.327 623.562 295.867C623.562 294.478 622.757 293.155 621.415 292.574L616.817 290.596C616.371 290.403 615.905 290.313 615.445 290.313C614.076 290.313 612.771 291.124 612.198 292.489L612.2 292.484L611.882 293.237C611.806 293.23 611.731 293.223 611.656 293.217C611.193 293.175 610.73 293.133 610.261 293.133C609.931 293.133 609.598 293.157 609.266 293.181C609.164 293.188 609.062 293.195 608.96 293.202L608.661 292.453C608.106 291.063 606.784 290.222 605.391 290.225C604.951 290.222 604.502 290.308 604.075 290.486L604.08 290.483L599.442 292.377C598.071 292.94 597.24 294.28 597.24 295.692C597.24 296.133 597.321 296.587 597.497 297.025L597.798 297.774C597.045 298.418 596.349 299.11 595.71 299.85L594.973 299.533C594.527 299.343 594.06 299.252 593.603 299.252C592.234 299.25 590.923 300.062 590.355 301.426L590.357 301.422L588.402 306.082C588.214 306.531 588.122 307.004 588.122 307.468C588.122 308.855 588.924 310.179 590.269 310.761L591.01 311.078C591.002 311.169 590.994 311.26 590.986 311.351C590.946 311.806 590.906 312.261 590.906 312.72C590.906 313.047 590.93 313.376 590.954 313.704C590.962 313.815 590.97 313.926 590.977 314.037L590.239 314.339C588.865 314.903 588.031 316.242 588.031 317.654ZM591.003 316.263L592.421 315.685C592.845 315.513 593.104 315.07 593.055 314.611C592.987 313.983 592.956 313.352 592.956 312.722C592.956 311.99 593.001 311.259 593.09 310.542C593.148 310.081 592.895 309.638 592.474 309.458L591.067 308.855C590.507 308.616 590.169 308.056 590.169 307.472C590.169 307.28 590.205 307.086 590.285 306.893L592.241 302.233L592.242 302.23C592.471 301.67 593.022 301.325 593.602 301.325C593.795 301.325 593.984 301.363 594.174 301.443L595.578 302.046C595.998 302.228 596.483 302.104 596.772 301.745C597.617 300.692 598.569 299.733 599.645 298.888C600.005 298.603 600.137 298.109 599.965 297.682L599.393 296.248C599.319 296.064 599.286 295.881 599.286 295.695C599.286 295.1 599.637 294.533 600.209 294.303L604.844 292.409L604.848 292.406C605.023 292.334 605.206 292.297 605.39 292.297C605.975 292.297 606.537 292.656 606.765 293.232L607.34 294.667C607.512 295.095 607.941 295.358 608.394 295.307C609.019 295.241 609.644 295.205 610.262 295.205C610.985 295.205 611.705 295.253 612.414 295.343C612.869 295.401 613.304 295.148 613.484 294.721L614.084 293.298V293.292C614.317 292.73 614.869 292.387 615.446 292.387C615.638 292.387 615.829 292.425 616.017 292.503L620.617 294.482C621.171 294.72 621.516 295.284 621.516 295.867C621.516 296.063 621.479 296.254 621.4 296.445L620.804 297.864C620.625 298.291 620.747 298.79 621.106 299.078C622.142 299.922 623.089 300.893 623.922 301.983C624.203 302.348 624.689 302.48 625.112 302.308L626.528 301.73L626.533 301.727C626.709 301.655 626.891 301.621 627.079 301.621C627.664 301.621 628.228 301.98 628.452 302.552L630.32 307.247V307.24C630.394 307.431 630.429 307.621 630.429 307.805C630.429 308.397 630.078 308.964 629.509 309.193L628.092 309.773C627.67 309.949 627.409 310.386 627.458 310.846C627.525 311.481 627.56 312.116 627.56 312.747C627.56 313.476 627.517 314.2 627.425 314.916C627.368 315.376 627.618 315.818 628.04 315.998L629.441 316.605L629.445 316.608C630 316.841 630.343 317.407 630.343 317.99C630.343 318.185 630.305 318.38 630.228 318.567L630.229 318.565L628.278 323.223C628.041 323.786 627.487 324.131 626.906 324.131C626.715 324.131 626.525 324.094 626.339 324.016L624.931 323.41C624.51 323.229 624.018 323.355 623.731 323.718C622.904 324.764 621.942 325.723 620.869 326.571C620.505 326.856 620.375 327.345 620.546 327.776L621.114 329.209C621.189 329.396 621.223 329.586 621.223 329.77C621.221 330.361 620.874 330.925 620.303 331.154L615.668 333.051C615.485 333.125 615.302 333.16 615.122 333.16C614.537 333.16 613.974 332.801 613.746 332.223L613.172 330.789C613.001 330.361 612.571 330.1 612.115 330.148C611.493 330.217 610.874 330.249 610.256 330.249C609.531 330.249 608.809 330.204 608.094 330.111C607.64 330.053 607.203 330.309 607.024 330.735L606.427 332.16L606.431 332.157C606.191 332.726 605.634 333.071 605.059 333.071C604.869 333.071 604.681 333.034 604.494 332.953L599.896 330.976C599.332 330.736 598.996 330.179 598.995 329.596C598.995 329.403 599.032 329.211 599.114 329.018V329.012L599.708 327.588C599.883 327.162 599.763 326.665 599.407 326.375C598.366 325.533 597.42 324.564 596.587 323.472C596.307 323.106 595.82 322.972 595.395 323.147L593.976 323.727C593.792 323.802 593.612 323.835 593.43 323.837C592.843 323.834 592.283 323.477 592.059 322.904V322.902L590.185 318.205L590.182 318.2C590.113 318.022 590.077 317.838 590.077 317.652C590.079 317.061 590.431 316.495 591.003 316.263ZM610.2 322.231C615.446 322.231 619.699 317.923 619.699 312.61C619.699 307.294 615.446 302.989 610.2 302.989C604.954 302.989 600.699 307.295 600.699 312.61C600.699 317.924 604.954 322.231 610.2 322.231ZM610.2 305.06C614.309 305.06 617.653 308.447 617.653 312.61C617.653 316.771 614.309 320.16 610.2 320.16C606.088 320.16 602.746 316.771 602.746 312.61C602.746 308.447 606.088 305.06 610.2 305.06Z" fill="#1C0D3F"/>
</g>
<g filter="url(#filter0_dddddd_3014_1135)">
<rect x="61" y="17" width="640" height="216" rx="8" fill="white"/>
<path d="M108.102 62.9766H106.461L105.938 65.625H107.578L107.352 66.7891H105.711L105.07 70H103.953L104.594 66.7891H102.281L101.648 70H100.531L101.172 66.7891H99.5312L99.7734 65.625H101.414L101.93 62.9766H100.289L100.516 61.8281H102.156L102.773 58.7266H103.891L103.273 61.8281H105.578L106.203 58.7266H107.32L106.695 61.8281H108.336L108.102 62.9766ZM103.023 62.9531L102.5 65.6562H104.836L105.367 62.9531H103.023ZM123.984 68.9297C125.484 68.9297 126.438 68.0312 126.477 66.5781H127.867C127.867 68.7578 126.289 70.2344 123.984 70.2344C121.336 70.2344 119.797 68.4453 119.797 65.3672V63.3594C119.797 60.2812 121.336 58.4922 123.984 58.4922C126.359 58.4922 127.828 59.9375 127.875 62.3438H126.477C126.43 60.8203 125.422 59.7969 123.977 59.7969C122.156 59.7969 121.203 61.0234 121.203 63.3594V65.3672C121.203 67.7031 122.156 68.9297 123.984 68.9297ZM133.281 66.2031V68.9375H135.906V70H130.273V68.9375H131.984V62.5859H130.102V61.5234H133.266V63.6875H133.438C133.75 62.1172 134.805 61.3047 136.438 61.3047C136.922 61.3047 137.383 61.375 137.664 61.4922V62.9844C137.273 62.8438 136.727 62.75 136.266 62.75C134.391 62.75 133.281 64.0469 133.281 66.2031ZM145.797 67.8125H147.086C146.828 69.2109 145.484 70.1562 143.703 70.1562C141.375 70.1562 140.023 68.7578 140.023 66.3438V65.0703C140.023 62.8359 141.453 61.3672 143.609 61.3672C145.812 61.3672 147.109 62.8281 147.109 65.2812V66.1094H141.336V66.4531C141.336 68.0078 142.258 69.0078 143.703 69.0078C144.773 69.0078 145.562 68.5547 145.797 67.8125ZM143.602 62.5078C142.188 62.5078 141.336 63.4766 141.336 65.1016H145.797C145.797 63.4844 144.969 62.5078 143.602 62.5078ZM152.539 70.1484C150.922 70.1484 149.844 69.1328 149.844 67.5938C149.844 66.0938 150.922 65.2031 152.852 65.1016L155.18 64.9844V64.2188C155.18 63.1562 154.531 62.5703 153.352 62.5703C152.375 62.5703 151.688 62.9844 151.469 63.7109H150.164C150.32 62.3516 151.633 61.4219 153.367 61.4219C155.359 61.4219 156.5 62.4375 156.5 64.2031V70.0078H155.234V68.7344H155.102C154.695 69.6406 153.773 70.1484 152.539 70.1484ZM152.922 68.9844C154.203 68.9844 155.18 68.1328 155.18 67V66L153 66.1016C151.812 66.1562 151.188 66.6641 151.188 67.5469C151.188 68.4375 151.852 68.9844 152.922 68.9844ZM161.844 59.25H163.156V61.5469H166.594V62.6797H163.172V67.4609C163.172 68.3828 163.82 68.8828 165.016 68.8828C165.492 68.8828 166.344 68.8594 166.57 68.8359V69.9609C166.359 70 165.328 70.0391 164.922 70.0391C162.82 70.0391 161.844 69.2422 161.844 67.4766V62.6797H159.586V61.5469H161.844V59.25ZM175.469 67.8125H176.758C176.5 69.2109 175.156 70.1562 173.375 70.1562C171.047 70.1562 169.695 68.7578 169.695 66.3438V65.0703C169.695 62.8359 171.125 61.3672 173.281 61.3672C175.484 61.3672 176.781 62.8281 176.781 65.2812V66.1094H171.008V66.4531C171.008 68.0078 171.93 69.0078 173.375 69.0078C174.445 69.0078 175.234 68.5547 175.469 67.8125ZM173.273 62.5078C171.859 62.5078 171.008 63.4766 171.008 65.1016H175.469C175.469 63.4844 174.641 62.5078 173.273 62.5078ZM189.562 58.7266H193.312C195.5 58.7266 196.93 60.1562 196.93 62.3438C196.93 64.5234 195.484 65.9531 193.281 65.9531H190.945V70H189.562V58.7266ZM190.945 59.9531V64.7266H192.969C194.609 64.7266 195.531 63.875 195.531 62.3438C195.531 60.8047 194.609 59.9531 192.969 59.9531H190.945ZM201.992 70.1484C200.375 70.1484 199.297 69.1328 199.297 67.5938C199.297 66.0938 200.375 65.2031 202.305 65.1016L204.633 64.9844V64.2188C204.633 63.1562 203.984 62.5703 202.805 62.5703C201.828 62.5703 201.141 62.9844 200.922 63.7109H199.617C199.773 62.3516 201.086 61.4219 202.82 61.4219C204.812 61.4219 205.953 62.4375 205.953 64.2031V70.0078H204.688V68.7344H204.555C204.148 69.6406 203.227 70.1484 201.992 70.1484ZM202.375 68.9844C203.656 68.9844 204.633 68.1328 204.633 67V66L202.453 66.1016C201.266 66.1562 200.641 66.6641 200.641 67.5469C200.641 68.4375 201.305 68.9844 202.375 68.9844ZM209.273 70V61.5234H210.547V63.0156H210.656C211.109 61.9609 212.078 61.3672 213.367 61.3672C215.211 61.3672 216.211 62.4688 216.211 64.5V70H214.883V64.8359C214.883 63.3047 214.258 62.5859 212.938 62.5859C211.539 62.5859 210.602 63.5625 210.602 65.0078V70H209.273ZM222.102 70.1406C220.141 70.1406 218.859 68.7266 218.859 66.5469V64.9688C218.859 62.7969 220.141 61.3828 222.102 61.3828C223.328 61.3828 224.234 61.9062 224.602 62.8359H224.742V58.1953H226.094V70H224.789V68.7031H224.641C224.203 69.6406 223.312 70.1406 222.102 70.1406ZM222.492 68.9297C223.883 68.9297 224.781 67.9297 224.781 66.3594V65.1406C224.781 63.5781 223.883 62.5781 222.492 62.5781C221.094 62.5781 220.195 63.5781 220.195 65.1406V66.3594C220.195 67.9219 221.094 68.9297 222.492 68.9297ZM231.664 70.1484C230.047 70.1484 228.969 69.1328 228.969 67.5938C228.969 66.0938 230.047 65.2031 231.977 65.1016L234.305 64.9844V64.2188C234.305 63.1562 233.656 62.5703 232.477 62.5703C231.5 62.5703 230.812 62.9844 230.594 63.7109H229.289C229.445 62.3516 230.758 61.4219 232.492 61.4219C234.484 61.4219 235.625 62.4375 235.625 64.2031V70.0078H234.359V68.7344H234.227C233.82 69.6406 232.898 70.1484 231.664 70.1484ZM232.047 68.9844C233.328 68.9844 234.305 68.1328 234.305 67V66L232.125 66.1016C230.938 66.1562 230.312 66.6641 230.312 67.5469C230.312 68.4375 230.977 68.9844 232.047 68.9844ZM239.328 63.8125C239.328 62.3438 240.578 61.3594 242.445 61.3594C244.211 61.3594 245.406 62.2422 245.562 63.6562H244.281C244.125 62.9141 243.414 62.4609 242.422 62.4609C241.344 62.4609 240.648 62.9609 240.648 63.7344C240.648 64.3828 241.086 64.75 242.148 64.9844L243.344 65.2578C244.992 65.6328 245.742 66.3516 245.742 67.5781C245.742 69.1406 244.438 70.1562 242.43 70.1562C240.508 70.1562 239.234 69.2578 239.086 67.8047H240.438C240.633 68.5859 241.383 69.0391 242.477 69.0391C243.633 69.0391 244.367 68.5156 244.367 67.7031C244.367 67.0312 243.953 66.6719 242.875 66.4297L241.617 66.1406C240.086 65.7891 239.328 65.0156 239.328 63.8125ZM265.164 70H259.227V68.7734H261.508V59.9531H259.227V58.7266H265.164V59.9531H262.883V68.7734H265.164V70ZM268.617 70V61.5234H269.891V63.0156H270C270.453 61.9609 271.422 61.3672 272.711 61.3672C274.555 61.3672 275.555 62.4688 275.555 64.5V70H274.227V64.8359C274.227 63.3047 273.602 62.5859 272.281 62.5859C270.883 62.5859 269.945 63.5625 269.945 65.0078V70H268.617ZM278.891 63.8125C278.891 62.3438 280.141 61.3594 282.008 61.3594C283.773 61.3594 284.969 62.2422 285.125 63.6562H283.844C283.688 62.9141 282.977 62.4609 281.984 62.4609C280.906 62.4609 280.211 62.9609 280.211 63.7344C280.211 64.3828 280.648 64.75 281.711 64.9844L282.906 65.2578C284.555 65.6328 285.305 66.3516 285.305 67.5781C285.305 69.1406 284 70.1562 281.992 70.1562C280.07 70.1562 278.797 69.2578 278.648 67.8047H280C280.195 68.5859 280.945 69.0391 282.039 69.0391C283.195 69.0391 283.93 68.5156 283.93 67.7031C283.93 67.0312 283.516 66.6719 282.438 66.4297L281.18 66.1406C279.648 65.7891 278.891 65.0156 278.891 63.8125ZM290.422 59.25H291.734V61.5469H295.172V62.6797H291.75V67.4609C291.75 68.3828 292.398 68.8828 293.594 68.8828C294.07 68.8828 294.922 68.8594 295.148 68.8359V69.9609C294.938 70 293.906 70.0391 293.5 70.0391C291.398 70.0391 290.422 69.2422 290.422 67.4766V62.6797H288.164V61.5469H290.422V59.25ZM300.898 70.1484C299.281 70.1484 298.203 69.1328 298.203 67.5938C298.203 66.0938 299.281 65.2031 301.211 65.1016L303.539 64.9844V64.2188C303.539 63.1562 302.891 62.5703 301.711 62.5703C300.734 62.5703 300.047 62.9844 299.828 63.7109H298.523C298.68 62.3516 299.992 61.4219 301.727 61.4219C303.719 61.4219 304.859 62.4375 304.859 64.2031V70.0078H303.594V68.7344H303.461C303.055 69.6406 302.133 70.1484 300.898 70.1484ZM301.281 68.9844C302.562 68.9844 303.539 68.1328 303.539 67V66L301.359 66.1016C300.172 66.1562 299.547 66.6641 299.547 67.5469C299.547 68.4375 300.211 68.9844 301.281 68.9844ZM308.18 70V61.5234H309.453V63.0156H309.562C310.016 61.9609 310.984 61.3672 312.273 61.3672C314.117 61.3672 315.117 62.4688 315.117 64.5V70H313.789V64.8359C313.789 63.3047 313.164 62.5859 311.844 62.5859C310.445 62.5859 309.508 63.5625 309.508 65.0078V70H308.18ZM325.07 64.1641H323.758C323.594 63.1719 322.766 62.5469 321.672 62.5469C320.195 62.5469 319.375 63.5547 319.375 65.375V66.1406C319.375 67.9609 320.195 68.9609 321.672 68.9609C322.766 68.9609 323.594 68.3438 323.758 67.375H325.07C324.859 69.1016 323.57 70.1562 321.695 70.1562C319.391 70.1562 318.047 68.7422 318.047 66.3125V65.2031C318.047 62.7734 319.391 61.3594 321.695 61.3594C323.57 61.3594 324.852 62.4219 325.07 64.1641ZM333.719 67.8125H335.008C334.75 69.2109 333.406 70.1562 331.625 70.1562C329.297 70.1562 327.945 68.7578 327.945 66.3438V65.0703C327.945 62.8359 329.375 61.3672 331.531 61.3672C333.734 61.3672 335.031 62.8281 335.031 65.2812V66.1094H329.258V66.4531C329.258 68.0078 330.18 69.0078 331.625 69.0078C332.695 69.0078 333.484 68.5547 333.719 67.8125ZM331.523 62.5078C330.109 62.5078 329.258 63.4766 329.258 65.1016H333.719C333.719 63.4844 332.891 62.5078 331.523 62.5078ZM203.562 101.812H202.141V96.7266H203.562V101.812ZM216.492 108H215.125V102.875H210.359V108H208.992V96.7266H210.359V101.609H215.125V96.7266H216.492V108ZM226.766 103.273C226.766 106.391 225.195 108.234 222.633 108.234C220.07 108.234 218.5 106.391 218.5 103.273V101.453C218.5 98.3359 220.07 96.4922 222.633 96.4922C225.195 96.4922 226.766 98.3359 226.766 101.453V103.273ZM222.633 106.93C224.344 106.93 225.375 105.617 225.375 103.266V101.461C225.375 99.1094 224.344 97.7969 222.633 97.7969C220.922 97.7969 219.891 99.1094 219.891 101.461V103.266C219.891 105.617 220.922 106.93 222.633 106.93ZM228.664 105H230.008C230.148 106.234 231.141 106.984 232.641 106.984C234.141 106.984 235.125 106.203 235.125 104.992C235.125 104.016 234.469 103.43 232.945 103.055L231.977 102.812C229.883 102.281 228.938 101.289 228.938 99.6562C228.938 97.7344 230.383 96.4922 232.633 96.4922C234.758 96.4922 236.219 97.7188 236.312 99.5938H234.969C234.828 98.4297 233.969 97.7422 232.641 97.7422C231.195 97.7422 230.328 98.4297 230.328 99.5781C230.328 100.555 230.953 101.117 232.422 101.484L233.406 101.734C235.594 102.273 236.516 103.227 236.516 104.922C236.516 106.945 234.992 108.234 232.633 108.234C230.305 108.234 228.781 107 228.664 105ZM243.102 108H241.727V97.9922H238.32V96.7266H246.508V97.9922H243.102V108ZM253.016 101.812H251.594V96.7266H253.016V101.812ZM381.594 101.812H380.172V96.7266H381.594V101.812ZM391.461 108H390.086V97.9922H386.68V96.7266H394.867V97.9922H391.461V108ZM404.797 103.273C404.797 106.391 403.227 108.234 400.664 108.234C398.102 108.234 396.531 106.391 396.531 103.273V101.453C396.531 98.3359 398.102 96.4922 400.664 96.4922C403.227 96.4922 404.797 98.3359 404.797 101.453V103.273ZM400.664 106.93C402.375 106.93 403.406 105.617 403.406 103.266V101.461C403.406 99.1094 402.375 97.7969 400.664 97.7969C398.953 97.7969 397.922 99.1094 397.922 101.461V103.266C397.922 105.617 398.953 106.93 400.664 106.93ZM408.648 108H407.297V96.7266H408.648V102.336H408.75L413.312 96.7266H414.922L410.75 101.711L415.328 108H413.617L409.82 102.773L408.648 104.164V108ZM423.953 106.734V108H417.297V96.7266H423.953V97.9922H418.68V101.648H423.664V102.859H418.68V106.734H423.953ZM427.828 108H426.586V96.7266H427.906L432.734 105.5H432.844V96.7266H434.086V108H432.781L427.938 99.2031H427.828V108ZM440.938 101.812H439.516V96.7266H440.938V101.812ZM108.102 138.977H106.461L105.938 141.625H107.578L107.352 142.789H105.711L105.07 146H103.953L104.594 142.789H102.281L101.648 146H100.531L101.172 142.789H99.5312L99.7734 141.625H101.414L101.93 138.977H100.289L100.516 137.828H102.156L102.773 134.727H103.891L103.273 137.828H105.578L106.203 134.727H107.32L106.695 137.828H108.336L108.102 138.977ZM103.023 138.953L102.5 141.656H104.836L105.367 138.953H103.023ZM123.984 144.93C125.484 144.93 126.438 144.031 126.477 142.578H127.867C127.867 144.758 126.289 146.234 123.984 146.234C121.336 146.234 119.797 144.445 119.797 141.367V139.359C119.797 136.281 121.336 134.492 123.984 134.492C126.359 134.492 127.828 135.938 127.875 138.344H126.477C126.43 136.82 125.422 135.797 123.977 135.797C122.156 135.797 121.203 137.023 121.203 139.359V141.367C121.203 143.703 122.156 144.93 123.984 144.93ZM133.281 142.203V144.938H135.906V146H130.273V144.938H131.984V138.586H130.102V137.523H133.266V139.688H133.438C133.75 138.117 134.805 137.305 136.438 137.305C136.922 137.305 137.383 137.375 137.664 137.492V138.984C137.273 138.844 136.727 138.75 136.266 138.75C134.391 138.75 133.281 140.047 133.281 142.203ZM145.797 143.812H147.086C146.828 145.211 145.484 146.156 143.703 146.156C141.375 146.156 140.023 144.758 140.023 142.344V141.07C140.023 138.836 141.453 137.367 143.609 137.367C145.812 137.367 147.109 138.828 147.109 141.281V142.109H141.336V142.453C141.336 144.008 142.258 145.008 143.703 145.008C144.773 145.008 145.562 144.555 145.797 143.812ZM143.602 138.508C142.188 138.508 141.336 139.477 141.336 141.102H145.797C145.797 139.484 144.969 138.508 143.602 138.508ZM152.539 146.148C150.922 146.148 149.844 145.133 149.844 143.594C149.844 142.094 150.922 141.203 152.852 141.102L155.18 140.984V140.219C155.18 139.156 154.531 138.57 153.352 138.57C152.375 138.57 151.688 138.984 151.469 139.711H150.164C150.32 138.352 151.633 137.422 153.367 137.422C155.359 137.422 156.5 138.438 156.5 140.203V146.008H155.234V144.734H155.102C154.695 145.641 153.773 146.148 152.539 146.148ZM152.922 144.984C154.203 144.984 155.18 144.133 155.18 143V142L153 142.102C151.812 142.156 151.188 142.664 151.188 143.547C151.188 144.438 151.852 144.984 152.922 144.984ZM161.844 135.25H163.156V137.547H166.594V138.68H163.172V143.461C163.172 144.383 163.82 144.883 165.016 144.883C165.492 144.883 166.344 144.859 166.57 144.836V145.961C166.359 146 165.328 146.039 164.922 146.039C162.82 146.039 161.844 145.242 161.844 143.477V138.68H159.586V137.547H161.844V135.25ZM175.469 143.812H176.758C176.5 145.211 175.156 146.156 173.375 146.156C171.047 146.156 169.695 144.758 169.695 142.344V141.07C169.695 138.836 171.125 137.367 173.281 137.367C175.484 137.367 176.781 138.828 176.781 141.281V142.109H171.008V142.453C171.008 144.008 171.93 145.008 173.375 145.008C174.445 145.008 175.234 144.555 175.469 143.812ZM173.273 138.508C171.859 138.508 171.008 139.477 171.008 141.102H175.469C175.469 139.484 174.641 138.508 173.273 138.508ZM192.43 146.141C190.469 146.141 189.188 144.727 189.188 142.547V140.969C189.188 138.797 190.469 137.383 192.43 137.383C193.656 137.383 194.562 137.906 194.93 138.836H195.07V134.195H196.422V146H195.117V144.703H194.969C194.531 145.641 193.641 146.141 192.43 146.141ZM192.82 144.93C194.211 144.93 195.109 143.93 195.109 142.359V141.141C195.109 139.578 194.211 138.578 192.82 138.578C191.422 138.578 190.523 139.578 190.523 141.141V142.359C190.523 143.922 191.422 144.93 192.82 144.93ZM201.992 146.148C200.375 146.148 199.297 145.133 199.297 143.594C199.297 142.094 200.375 141.203 202.305 141.102L204.633 140.984V140.219C204.633 139.156 203.984 138.57 202.805 138.57C201.828 138.57 201.141 138.984 200.922 139.711H199.617C199.773 138.352 201.086 137.422 202.82 137.422C204.812 137.422 205.953 138.438 205.953 140.203V146.008H204.688V144.734H204.555C204.148 145.641 203.227 146.148 201.992 146.148ZM202.375 144.984C203.656 144.984 204.633 144.133 204.633 143V142L202.453 142.102C201.266 142.156 200.641 142.664 200.641 143.547C200.641 144.438 201.305 144.984 202.375 144.984ZM211.297 135.25H212.609V137.547H216.047V138.68H212.625V143.461C212.625 144.383 213.273 144.883 214.469 144.883C214.945 144.883 215.797 144.859 216.023 144.836V145.961C215.812 146 214.781 146.039 214.375 146.039C212.273 146.039 211.297 145.242 211.297 143.477V138.68H209.039V137.547H211.297V135.25ZM221.773 146.148C220.156 146.148 219.078 145.133 219.078 143.594C219.078 142.094 220.156 141.203 222.086 141.102L224.414 140.984V140.219C224.414 139.156 223.766 138.57 222.586 138.57C221.609 138.57 220.922 138.984 220.703 139.711H219.398C219.555 138.352 220.867 137.422 222.602 137.422C224.594 137.422 225.734 138.438 225.734 140.203V146.008H224.469V144.734H224.336C223.93 145.641 223.008 146.148 221.773 146.148ZM222.156 144.984C223.438 144.984 224.414 144.133 224.414 143V142L222.234 142.102C221.047 142.156 220.422 142.664 220.422 143.547C220.422 144.438 221.086 144.984 222.156 144.984ZM231.273 146V138.68H229V137.547H231.273V136.695C231.273 135.055 232.289 134.289 234.375 134.289C234.867 134.289 236.047 134.328 236.328 134.367V135.453C235.961 135.414 234.867 135.383 234.391 135.383C233.211 135.383 232.586 135.82 232.586 136.672V137.547H236.328V138.68H232.602V146H231.273ZM242.078 142.203V144.938H244.703V146H239.07V144.938H240.781V138.586H238.898V137.523H242.062V139.688H242.234C242.547 138.117 243.602 137.305 245.234 137.305C245.719 137.305 246.18 137.375 246.461 137.492V138.984C246.07 138.844 245.523 138.75 245.062 138.75C243.188 138.75 242.078 140.047 242.078 142.203ZM251.445 146.148C249.828 146.148 248.75 145.133 248.75 143.594C248.75 142.094 249.828 141.203 251.758 141.102L254.086 140.984V140.219C254.086 139.156 253.438 138.57 252.258 138.57C251.281 138.57 250.594 138.984 250.375 139.711H249.07C249.227 138.352 250.539 137.422 252.273 137.422C254.266 137.422 255.406 138.438 255.406 140.203V146.008H254.141V144.734H254.008C253.602 145.641 252.68 146.148 251.445 146.148ZM251.828 144.984C253.109 144.984 254.086 144.133 254.086 143V142L251.906 142.102C250.719 142.156 250.094 142.664 250.094 143.547C250.094 144.438 250.758 144.984 251.828 144.984ZM266.281 139.758V146H265.086V140.148C265.086 139.117 264.711 138.578 264 138.578C263.258 138.578 262.805 139.227 262.805 140.281V146H261.617V140.141C261.617 139.117 261.242 138.578 260.523 138.578C259.773 138.578 259.305 139.227 259.305 140.281V146H258.109V137.523H259.297V138.719H259.438C259.648 137.867 260.258 137.367 261.055 137.367C261.852 137.367 262.414 137.859 262.594 138.695H262.734C262.953 137.883 263.633 137.367 264.484 137.367C265.664 137.367 266.281 138.188 266.281 139.758ZM274.375 143.812H275.664C275.406 145.211 274.062 146.156 272.281 146.156C269.953 146.156 268.602 144.758 268.602 142.344V141.07C268.602 138.836 270.031 137.367 272.188 137.367C274.391 137.367 275.688 138.828 275.688 141.281V142.109H269.914V142.453C269.914 144.008 270.836 145.008 272.281 145.008C273.352 145.008 274.141 144.555 274.375 143.812ZM272.18 138.508C270.766 138.508 269.914 139.477 269.914 141.102H274.375C274.375 139.484 273.547 138.508 272.18 138.508ZM290.617 146V138.68H288.344V137.547H290.617V136.695C290.617 135.055 291.633 134.289 293.719 134.289C294.211 134.289 295.391 134.328 295.672 134.367V135.453C295.305 135.414 294.211 135.383 293.734 135.383C292.555 135.383 291.93 135.82 291.93 136.672V137.547H295.672V138.68H291.945V146H290.617ZM301.758 146.156C299.516 146.156 298.086 144.695 298.086 142.406V141.125C298.086 138.836 299.516 137.375 301.758 137.375C304 137.375 305.43 138.836 305.43 141.125V142.406C305.43 144.695 304 146.156 301.758 146.156ZM301.758 138.547C300.305 138.547 299.398 139.578 299.398 141.242V142.281C299.398 143.953 300.305 144.977 301.758 144.977C303.211 144.977 304.117 143.953 304.117 142.281V141.242C304.117 139.578 303.211 138.547 301.758 138.547ZM311.312 142.203V144.938H313.938V146H308.305V144.938H310.016V138.586H308.133V137.523H311.297V139.688H311.469C311.781 138.117 312.836 137.305 314.469 137.305C314.953 137.305 315.414 137.375 315.695 137.492V138.984C315.305 138.844 314.758 138.75 314.297 138.75C312.422 138.75 311.312 140.047 311.312 142.203ZM335.133 146H328.109V144.898H331.008V135.297H328.133V134.195H332.336V144.898H335.133V146ZM341.469 135.445C340.844 135.445 340.367 134.977 340.367 134.352C340.367 133.734 340.844 133.266 341.469 133.266C342.094 133.266 342.57 133.734 342.57 134.352C342.57 134.977 342.094 135.445 341.469 135.445ZM345.023 146H338V144.898H340.906V138.625H338.023V137.523H342.219V144.898H345.023V146ZM347.742 146V137.523H349.016V139.016H349.125C349.578 137.961 350.547 137.367 351.836 137.367C353.68 137.367 354.68 138.469 354.68 140.5V146H353.352V140.836C353.352 139.305 352.727 138.586 351.406 138.586C350.008 138.586 349.07 139.562 349.07 141.008V146H347.742ZM363.391 143.812H364.68C364.422 145.211 363.078 146.156 361.297 146.156C358.969 146.156 357.617 144.758 357.617 142.344V141.07C357.617 138.836 359.047 137.367 361.203 137.367C363.406 137.367 364.703 138.828 364.703 141.281V142.109H358.93V142.453C358.93 144.008 359.852 145.008 361.297 145.008C362.367 145.008 363.156 144.555 363.391 143.812ZM361.195 138.508C359.781 138.508 358.93 139.477 358.93 141.102H363.391C363.391 139.484 362.562 138.508 361.195 138.508ZM370.133 146.148C368.516 146.148 367.438 145.133 367.438 143.594C367.438 142.094 368.516 141.203 370.445 141.102L372.773 140.984V140.219C372.773 139.156 372.125 138.57 370.945 138.57C369.969 138.57 369.281 138.984 369.062 139.711H367.758C367.914 138.352 369.227 137.422 370.961 137.422C372.953 137.422 374.094 138.438 374.094 140.203V146.008H372.828V144.734H372.695C372.289 145.641 371.367 146.148 370.133 146.148ZM370.516 144.984C371.797 144.984 372.773 144.133 372.773 143V142L370.594 142.102C369.406 142.156 368.781 142.664 368.781 143.547C368.781 144.438 369.445 144.984 370.516 144.984ZM380.547 142.203V144.938H383.172V146H377.539V144.938H379.25V138.586H377.367V137.523H380.531V139.688H380.703C381.016 138.117 382.07 137.305 383.703 137.305C384.188 137.305 384.648 137.375 384.93 137.492V138.984C384.539 138.844 383.992 138.75 383.531 138.75C381.656 138.75 380.547 140.047 380.547 142.203ZM400.328 142.203V144.938H402.953V146H397.32V144.938H399.031V138.586H397.148V137.523H400.312V139.688H400.484C400.797 138.117 401.852 137.305 403.484 137.305C403.969 137.305 404.43 137.375 404.711 137.492V138.984C404.32 138.844 403.773 138.75 403.312 138.75C401.438 138.75 400.328 140.047 400.328 142.203ZM412.844 143.812H414.133C413.875 145.211 412.531 146.156 410.75 146.156C408.422 146.156 407.07 144.758 407.07 142.344V141.07C407.07 138.836 408.5 137.367 410.656 137.367C412.859 137.367 414.156 138.828 414.156 141.281V142.109H408.383V142.453C408.383 144.008 409.305 145.008 410.75 145.008C411.82 145.008 412.609 144.555 412.844 143.812ZM410.648 138.508C409.234 138.508 408.383 139.477 408.383 141.102H412.844C412.844 139.484 412.016 138.508 410.648 138.508ZM420.195 149.18C418.234 149.18 416.922 148.32 416.75 146.914H418.062C418.234 147.617 419.086 148.078 420.219 148.078C421.703 148.078 422.523 147.328 422.523 145.969V144.648H422.383C422.008 145.539 421.07 146.078 419.836 146.078C417.875 146.078 416.586 144.664 416.586 142.492V140.969C416.586 138.789 417.883 137.383 419.867 137.383C421.094 137.383 422.023 137.922 422.391 138.836H422.539V137.523H423.852V146C423.852 147.992 422.492 149.18 420.195 149.18ZM417.922 142.305C417.922 143.859 418.828 144.875 420.234 144.875C421.633 144.875 422.531 143.867 422.531 142.305V141.141C422.531 139.578 421.633 138.578 420.234 138.578C418.828 138.578 417.922 139.586 417.922 141.141V142.305ZM430 142.203V144.938H432.625V146H426.992V144.938H428.703V138.586H426.82V137.523H429.984V139.688H430.156C430.469 138.117 431.523 137.305 433.156 137.305C433.641 137.305 434.102 137.375 434.383 137.492V138.984C433.992 138.844 433.445 138.75 432.984 138.75C431.109 138.75 430 140.047 430 142.203ZM442.516 143.812H443.805C443.547 145.211 442.203 146.156 440.422 146.156C438.094 146.156 436.742 144.758 436.742 142.344V141.07C436.742 138.836 438.172 137.367 440.328 137.367C442.531 137.367 443.828 138.828 443.828 141.281V142.109H438.055V142.453C438.055 144.008 438.977 145.008 440.422 145.008C441.492 145.008 442.281 144.555 442.516 143.812ZM440.32 138.508C438.906 138.508 438.055 139.477 438.055 141.102H442.516C442.516 139.484 441.688 138.508 440.32 138.508ZM447.031 139.812C447.031 138.344 448.281 137.359 450.148 137.359C451.914 137.359 453.109 138.242 453.266 139.656H451.984C451.828 138.914 451.117 138.461 450.125 138.461C449.047 138.461 448.352 138.961 448.352 139.734C448.352 140.383 448.789 140.75 449.852 140.984L451.047 141.258C452.695 141.633 453.445 142.352 453.445 143.578C453.445 145.141 452.141 146.156 450.133 146.156C448.211 146.156 446.938 145.258 446.789 143.805H448.141C448.336 144.586 449.086 145.039 450.18 145.039C451.336 145.039 452.07 144.516 452.07 143.703C452.07 143.031 451.656 142.672 450.578 142.43L449.32 142.141C447.789 141.789 447.031 141.016 447.031 139.812ZM460.156 135.445C459.531 135.445 459.055 134.977 459.055 134.352C459.055 133.734 459.531 133.266 460.156 133.266C460.781 133.266 461.258 133.734 461.258 134.352C461.258 134.977 460.781 135.445 460.156 135.445ZM463.711 146H456.688V144.898H459.594V138.625H456.711V137.523H460.906V144.898H463.711V146ZM469.898 146.156C467.656 146.156 466.227 144.695 466.227 142.406V141.125C466.227 138.836 467.656 137.375 469.898 137.375C472.141 137.375 473.57 138.836 473.57 141.125V142.406C473.57 144.695 472.141 146.156 469.898 146.156ZM469.898 138.547C468.445 138.547 467.539 139.578 467.539 141.242V142.281C467.539 143.953 468.445 144.977 469.898 144.977C471.352 144.977 472.258 143.953 472.258 142.281V141.242C472.258 139.578 471.352 138.547 469.898 138.547ZM476.32 146V137.523H477.594V139.016H477.703C478.156 137.961 479.125 137.367 480.414 137.367C482.258 137.367 483.258 138.469 483.258 140.5V146H481.93V140.836C481.93 139.305 481.305 138.586 479.984 138.586C478.586 138.586 477.648 139.562 477.648 141.008V146H476.32ZM488.969 148.594H487.711L488.68 143.516H490.438L488.969 148.594ZM508.602 146.148C506.984 146.148 505.906 145.133 505.906 143.594C505.906 142.094 506.984 141.203 508.914 141.102L511.242 140.984V140.219C511.242 139.156 510.594 138.57 509.414 138.57C508.438 138.57 507.75 138.984 507.531 139.711H506.227C506.383 138.352 507.695 137.422 509.43 137.422C511.422 137.422 512.562 138.438 512.562 140.203V146.008H511.297V144.734H511.164C510.758 145.641 509.836 146.148 508.602 146.148ZM508.984 144.984C510.266 144.984 511.242 144.133 511.242 143V142L509.062 142.102C507.875 142.156 507.25 142.664 507.25 143.547C507.25 144.438 507.914 144.984 508.984 144.984ZM515.883 146V137.523H517.156V139.016H517.266C517.719 137.961 518.688 137.367 519.977 137.367C521.82 137.367 522.82 138.469 522.82 140.5V146H521.492V140.836C521.492 139.305 520.867 138.586 519.547 138.586C518.148 138.586 517.211 139.562 517.211 141.008V146H515.883ZM528.383 146.148C526.766 146.148 525.688 145.133 525.688 143.594C525.688 142.094 526.766 141.203 528.695 141.102L531.023 140.984V140.219C531.023 139.156 530.375 138.57 529.195 138.57C528.219 138.57 527.531 138.984 527.312 139.711H526.008C526.164 138.352 527.477 137.422 529.211 137.422C531.203 137.422 532.344 138.438 532.344 140.203V146.008H531.078V144.734H530.945C530.539 145.641 529.617 146.148 528.383 146.148ZM528.766 144.984C530.047 144.984 531.023 144.133 531.023 143V142L528.844 142.102C527.656 142.156 527.031 142.664 527.031 143.547C527.031 144.438 527.695 144.984 528.766 144.984ZM542.836 146H535.812V144.898H538.711V135.297H535.836V134.195H540.039V144.898H542.836V146ZM546.648 149.016C546.453 149.016 546.195 149.008 546.078 148.992V147.828C546.18 147.852 546.422 147.859 546.547 147.859C547.344 147.859 547.781 147.5 548.133 146.516L548.281 146.055L545.164 137.523H546.609L548.984 144.617H549.086L551.453 137.523H552.867L549.672 146.312C548.93 148.398 548.219 149.016 546.648 149.016ZM555.828 139.812C555.828 138.344 557.078 137.359 558.945 137.359C560.711 137.359 561.906 138.242 562.062 139.656H560.781C560.625 138.914 559.914 138.461 558.922 138.461C557.844 138.461 557.148 138.961 557.148 139.734C557.148 140.383 557.586 140.75 558.648 140.984L559.844 141.258C561.492 141.633 562.242 142.352 562.242 143.578C562.242 145.141 560.938 146.156 558.93 146.156C557.008 146.156 555.734 145.258 555.586 143.805H556.938C557.133 144.586 557.883 145.039 558.977 145.039C560.133 145.039 560.867 144.516 560.867 143.703C560.867 143.031 560.453 142.672 559.375 142.43L558.117 142.141C556.586 141.789 555.828 141.016 555.828 139.812ZM568.953 135.445C568.328 135.445 567.852 134.977 567.852 134.352C567.852 133.734 568.328 133.266 568.953 133.266C569.578 133.266 570.055 133.734 570.055 134.352C570.055 134.977 569.578 135.445 568.953 135.445ZM572.508 146H565.484V144.898H568.391V138.625H565.508V137.523H569.703V144.898H572.508V146ZM575.609 139.812C575.609 138.344 576.859 137.359 578.727 137.359C580.492 137.359 581.688 138.242 581.844 139.656H580.562C580.406 138.914 579.695 138.461 578.703 138.461C577.625 138.461 576.93 138.961 576.93 139.734C576.93 140.383 577.367 140.75 578.43 140.984L579.625 141.258C581.273 141.633 582.023 142.352 582.023 143.578C582.023 145.141 580.719 146.156 578.711 146.156C576.789 146.156 575.516 145.258 575.367 143.805H576.719C576.914 144.586 577.664 145.039 578.758 145.039C579.914 145.039 580.648 144.516 580.648 143.703C580.648 143.031 580.234 142.672 579.156 142.43L577.898 142.141C576.367 141.789 575.609 141.016 575.609 139.812ZM587.875 148.594H586.617L587.586 143.516H589.344L587.875 148.594ZM610.656 143.812H611.945C611.688 145.211 610.344 146.156 608.562 146.156C606.234 146.156 604.883 144.758 604.883 142.344V141.07C604.883 138.836 606.312 137.367 608.469 137.367C610.672 137.367 611.969 138.828 611.969 141.281V142.109H606.195V142.453C606.195 144.008 607.117 145.008 608.562 145.008C609.633 145.008 610.422 144.555 610.656 143.812ZM608.461 138.508C607.047 138.508 606.195 139.477 606.195 141.102H610.656C610.656 139.484 609.828 138.508 608.461 138.508ZM616.812 135.25H618.125V137.547H621.562V138.68H618.141V143.461C618.141 144.383 618.789 144.883 619.984 144.883C620.461 144.883 621.312 144.859 621.539 144.836V145.961C621.328 146 620.297 146.039 619.891 146.039C617.789 146.039 616.812 145.242 616.812 143.477V138.68H614.555V137.547H616.812V135.25ZM631.68 140.164H630.367C630.203 139.172 629.375 138.547 628.281 138.547C626.805 138.547 625.984 139.555 625.984 141.375V142.141C625.984 143.961 626.805 144.961 628.281 144.961C629.375 144.961 630.203 144.344 630.367 143.375H631.68C631.469 145.102 630.18 146.156 628.305 146.156C626 146.156 624.656 144.742 624.656 142.312V141.203C624.656 138.773 626 137.359 628.305 137.359C630.18 137.359 631.461 138.422 631.68 140.164ZM638.039 146.047C637.266 146.047 636.625 145.398 636.625 144.602C636.625 143.812 637.266 143.164 638.039 143.164C638.812 143.164 639.453 143.812 639.453 144.602C639.453 145.398 638.812 146.047 638.039 146.047ZM647.93 146.047C647.156 146.047 646.516 145.398 646.516 144.602C646.516 143.812 647.156 143.164 647.93 143.164C648.703 143.164 649.344 143.812 649.344 144.602C649.344 145.398 648.703 146.047 647.93 146.047ZM657.82 146.047C657.047 146.047 656.406 145.398 656.406 144.602C656.406 143.812 657.047 143.164 657.82 143.164C658.594 143.164 659.234 143.812 659.234 144.602C659.234 145.398 658.594 146.047 657.82 146.047ZM469.086 158.758H467.656V153.727H469.086V158.758ZM472.141 158.758H470.703V153.727H472.141V158.758ZM484.047 165H476.188V163.789H479.516V155.289H479.391L476.164 157.375V155.906L479.523 153.727H480.875V163.789H484.047V165ZM486.086 156.898C486.086 154.914 487.555 153.492 489.609 153.492C491.68 153.492 493.102 154.773 493.102 156.656C493.102 157.828 492.57 158.766 490.773 160.727L488.117 163.617V163.75H493.281V165H486.148V164.047L489.961 159.805C491.391 158.203 491.734 157.602 491.734 156.711C491.734 155.5 490.883 154.703 489.57 154.703C488.273 154.703 487.414 155.57 487.414 156.898V156.945H486.086V156.898ZM498.195 159.773V158.617H499.422C500.688 158.617 501.57 157.789 501.57 156.609C501.57 155.461 500.727 154.703 499.453 154.703C498.188 154.703 497.344 155.445 497.234 156.656H495.914C496.047 154.703 497.422 153.492 499.508 153.492C501.523 153.492 502.961 154.703 502.961 156.414C502.961 157.773 502.25 158.742 501.039 159.039V159.164C502.539 159.359 503.43 160.414 503.43 161.953C503.43 163.867 501.82 165.234 499.57 165.234C497.344 165.234 495.797 163.953 495.695 162.008H497C497.125 163.211 498.125 163.992 499.531 163.992C501.078 163.992 502.039 163.195 502.039 161.922C502.039 160.609 501.047 159.773 499.484 159.773H498.195ZM508.648 158.758H507.219V153.727H508.648V158.758ZM511.703 158.758H510.266V153.727H511.703V158.758ZM419.633 177.758H418.203V172.727H419.633V177.758ZM422.688 177.758H421.25V172.727H422.688V177.758ZM433.867 178.164H432.555C432.391 177.172 431.562 176.547 430.469 176.547C428.992 176.547 428.172 177.555 428.172 179.375V180.141C428.172 181.961 428.992 182.961 430.469 182.961C431.562 182.961 432.391 182.344 432.555 181.375H433.867C433.656 183.102 432.367 184.156 430.492 184.156C428.188 184.156 426.844 182.742 426.844 180.312V179.203C426.844 176.773 428.188 175.359 430.492 175.359C432.367 175.359 433.648 176.422 433.867 178.164ZM439.367 184.148C437.75 184.148 436.672 183.133 436.672 181.594C436.672 180.094 437.75 179.203 439.68 179.102L442.008 178.984V178.219C442.008 177.156 441.359 176.57 440.18 176.57C439.203 176.57 438.516 176.984 438.297 177.711H436.992C437.148 176.352 438.461 175.422 440.195 175.422C442.188 175.422 443.328 176.438 443.328 178.203V184.008H442.062V182.734H441.93C441.523 183.641 440.602 184.148 439.367 184.148ZM439.75 182.984C441.031 182.984 442.008 182.133 442.008 181V180L439.828 180.102C438.641 180.156 438.016 180.664 438.016 181.547C438.016 182.438 438.68 182.984 439.75 182.984ZM454.203 177.758V184H453.008V178.148C453.008 177.117 452.633 176.578 451.922 176.578C451.18 176.578 450.727 177.227 450.727 178.281V184H449.539V178.141C449.539 177.117 449.164 176.578 448.445 176.578C447.695 176.578 447.227 177.227 447.227 178.281V184H446.031V175.523H447.219V176.719H447.359C447.57 175.867 448.18 175.367 448.977 175.367C449.773 175.367 450.336 175.859 450.516 176.695H450.656C450.875 175.883 451.555 175.367 452.406 175.367C453.586 175.367 454.203 176.188 454.203 177.758ZM460.539 175.383C462.5 175.383 463.781 176.797 463.781 178.977V180.555C463.781 182.727 462.5 184.141 460.539 184.141C459.312 184.141 458.414 183.617 458.047 182.688H457.898V186.859H456.547V175.523H457.859V176.82H458C458.445 175.883 459.328 175.383 460.539 175.383ZM460.156 176.602C458.758 176.602 457.867 177.602 457.867 179.164V180.383C457.867 181.953 458.758 182.953 460.156 182.953C461.555 182.953 462.445 181.945 462.445 180.383V179.164C462.445 177.602 461.555 176.602 460.156 176.602ZM469.039 184.148C467.422 184.148 466.344 183.133 466.344 181.594C466.344 180.094 467.422 179.203 469.352 179.102L471.68 178.984V178.219C471.68 177.156 471.031 176.57 469.852 176.57C468.875 176.57 468.188 176.984 467.969 177.711H466.664C466.82 176.352 468.133 175.422 469.867 175.422C471.859 175.422 473 176.438 473 178.203V184.008H471.734V182.734H471.602C471.195 183.641 470.273 184.148 469.039 184.148ZM469.422 182.984C470.703 182.984 471.68 182.133 471.68 181V180L469.5 180.102C468.312 180.156 467.688 180.664 467.688 181.547C467.688 182.438 468.352 182.984 469.422 182.984ZM479.938 173.445C479.312 173.445 478.836 172.977 478.836 172.352C478.836 171.734 479.312 171.266 479.938 171.266C480.562 171.266 481.039 171.734 481.039 172.352C481.039 172.977 480.562 173.445 479.938 173.445ZM483.492 184H476.469V182.898H479.375V176.625H476.492V175.523H480.688V182.898H483.492V184ZM489.43 187.18C487.469 187.18 486.156 186.32 485.984 184.914H487.297C487.469 185.617 488.32 186.078 489.453 186.078C490.938 186.078 491.758 185.328 491.758 183.969V182.648H491.617C491.242 183.539 490.305 184.078 489.07 184.078C487.109 184.078 485.82 182.664 485.82 180.492V178.969C485.82 176.789 487.117 175.383 489.102 175.383C490.328 175.383 491.258 175.922 491.625 176.836H491.773V175.523H493.086V184C493.086 185.992 491.727 187.18 489.43 187.18ZM487.156 180.305C487.156 181.859 488.062 182.875 489.469 182.875C490.867 182.875 491.766 181.867 491.766 180.305V179.141C491.766 177.578 490.867 176.578 489.469 176.578C488.062 176.578 487.156 177.586 487.156 179.141V180.305ZM496.102 184V175.523H497.375V177.016H497.484C497.938 175.961 498.906 175.367 500.195 175.367C502.039 175.367 503.039 176.469 503.039 178.5V184H501.711V178.836C501.711 177.305 501.086 176.586 499.766 176.586C498.367 176.586 497.43 177.562 497.43 179.008V184H496.102ZM513.516 186.438H505.406V185.289H513.516V186.438ZM516.266 177.812C516.266 176.344 517.516 175.359 519.383 175.359C521.148 175.359 522.344 176.242 522.5 177.656H521.219C521.062 176.914 520.352 176.461 519.359 176.461C518.281 176.461 517.586 176.961 517.586 177.734C517.586 178.383 518.023 178.75 519.086 178.984L520.281 179.258C521.93 179.633 522.68 180.352 522.68 181.578C522.68 183.141 521.375 184.156 519.367 184.156C517.445 184.156 516.172 183.258 516.023 181.805H517.375C517.57 182.586 518.32 183.039 519.414 183.039C520.57 183.039 521.305 182.516 521.305 181.703C521.305 181.031 520.891 180.672 519.812 180.43L518.555 180.141C517.023 179.789 516.266 179.016 516.266 177.812ZM529.773 175.383C531.734 175.383 533.016 176.797 533.016 178.977V180.555C533.016 182.727 531.734 184.141 529.773 184.141C528.547 184.141 527.648 183.617 527.281 182.688H527.133V186.859H525.781V175.523H527.094V176.82H527.234C527.68 175.883 528.562 175.383 529.773 175.383ZM529.391 176.602C527.992 176.602 527.102 177.602 527.102 179.164V180.383C527.102 181.953 527.992 182.953 529.391 182.953C530.789 182.953 531.68 181.945 531.68 180.383V179.164C531.68 177.602 530.789 176.602 529.391 176.602ZM541.422 181.812H542.711C542.453 183.211 541.109 184.156 539.328 184.156C537 184.156 535.648 182.758 535.648 180.344V179.07C535.648 176.836 537.078 175.367 539.234 175.367C541.438 175.367 542.734 176.828 542.734 179.281V180.109H536.961V180.453C536.961 182.008 537.883 183.008 539.328 183.008C540.398 183.008 541.188 182.555 541.422 181.812ZM539.227 176.508C537.812 176.508 536.961 177.477 536.961 179.102H541.422C541.422 177.484 540.594 176.508 539.227 176.508ZM545.555 184V175.523H546.828V177.016H546.938C547.391 175.961 548.359 175.367 549.648 175.367C551.492 175.367 552.492 176.469 552.492 178.5V184H551.164V178.836C551.164 177.305 550.539 176.586 549.219 176.586C547.82 176.586 546.883 177.562 546.883 179.008V184H545.555ZM558.383 184.141C556.422 184.141 555.141 182.727 555.141 180.547V178.969C555.141 176.797 556.422 175.383 558.383 175.383C559.609 175.383 560.516 175.906 560.883 176.836H561.023V172.195H562.375V184H561.07V182.703H560.922C560.484 183.641 559.594 184.141 558.383 184.141ZM558.773 182.93C560.164 182.93 561.062 181.93 561.062 180.359V179.141C561.062 177.578 560.164 176.578 558.773 176.578C557.375 176.578 556.477 177.578 556.477 179.141V180.359C556.477 181.922 557.375 182.93 558.773 182.93ZM567.992 177.758H566.562V172.727H567.992V177.758ZM571.047 177.758H569.609V172.727H571.047V177.758Z" fill="#0BA94A"/>
<path d="M104.477 80.3828C106.438 80.3828 107.719 81.7969 107.719 83.9766V85.5547C107.719 87.7266 106.438 89.1406 104.477 89.1406C103.25 89.1406 102.352 88.6172 101.984 87.6875H101.836V91.8594H100.484V80.5234H101.797V81.8203H101.938C102.383 80.8828 103.266 80.3828 104.477 80.3828ZM104.094 81.6016C102.695 81.6016 101.805 82.6016 101.805 84.1641V85.3828C101.805 86.9531 102.695 87.9531 104.094 87.9531C105.492 87.9531 106.383 86.9453 106.383 85.3828V84.1641C106.383 82.6016 105.492 81.6016 104.094 81.6016ZM112.977 89.1484C111.359 89.1484 110.281 88.1328 110.281 86.5938C110.281 85.0938 111.359 84.2031 113.289 84.1016L115.617 83.9844V83.2188C115.617 82.1562 114.969 81.5703 113.789 81.5703C112.812 81.5703 112.125 81.9844 111.906 82.7109H110.602C110.758 81.3516 112.07 80.4219 113.805 80.4219C115.797 80.4219 116.938 81.4375 116.938 83.2031V89.0078H115.672V87.7344H115.539C115.133 88.6406 114.211 89.1484 112.977 89.1484ZM113.359 87.9844C114.641 87.9844 115.617 87.1328 115.617 86V85L113.438 85.1016C112.25 85.1562 111.625 85.6641 111.625 86.5469C111.625 87.4375 112.289 87.9844 113.359 87.9844ZM120.258 89V80.5234H121.531V82.0156H121.641C122.094 80.9609 123.062 80.3672 124.352 80.3672C126.195 80.3672 127.195 81.4688 127.195 83.5V89H125.867V83.8359C125.867 82.3047 125.242 81.5859 123.922 81.5859C122.523 81.5859 121.586 82.5625 121.586 84.0078V89H120.258ZM133.086 89.1406C131.125 89.1406 129.844 87.7266 129.844 85.5469V83.9688C129.844 81.7969 131.125 80.3828 133.086 80.3828C134.312 80.3828 135.219 80.9062 135.586 81.8359H135.727V77.1953H137.078V89H135.773V87.7031H135.625C135.188 88.6406 134.297 89.1406 133.086 89.1406ZM133.477 87.9297C134.867 87.9297 135.766 86.9297 135.766 85.3594V84.1406C135.766 82.5781 134.867 81.5781 133.477 81.5781C132.078 81.5781 131.18 82.5781 131.18 84.1406V85.3594C131.18 86.9219 132.078 87.9297 133.477 87.9297ZM142.648 89.1484C141.031 89.1484 139.953 88.1328 139.953 86.5938C139.953 85.0938 141.031 84.2031 142.961 84.1016L145.289 83.9844V83.2188C145.289 82.1562 144.641 81.5703 143.461 81.5703C142.484 81.5703 141.797 81.9844 141.578 82.7109H140.273C140.43 81.3516 141.742 80.4219 143.477 80.4219C145.469 80.4219 146.609 81.4375 146.609 83.2031V89.0078H145.344V87.7344H145.211C144.805 88.6406 143.883 89.1484 142.648 89.1484ZM143.031 87.9844C144.312 87.9844 145.289 87.1328 145.289 86V85L143.109 85.1016C141.922 85.1562 141.297 85.6641 141.297 86.5469C141.297 87.4375 141.961 87.9844 143.031 87.9844ZM150.312 82.8125C150.312 81.3438 151.562 80.3594 153.43 80.3594C155.195 80.3594 156.391 81.2422 156.547 82.6562H155.266C155.109 81.9141 154.398 81.4609 153.406 81.4609C152.328 81.4609 151.633 81.9609 151.633 82.7344C151.633 83.3828 152.07 83.75 153.133 83.9844L154.328 84.2578C155.977 84.6328 156.727 85.3516 156.727 86.5781C156.727 88.1406 155.422 89.1562 153.414 89.1562C151.492 89.1562 150.219 88.2578 150.07 86.8047H151.422C151.617 87.5859 152.367 88.0391 153.461 88.0391C154.617 88.0391 155.352 87.5156 155.352 86.7031C155.352 86.0312 154.938 85.6719 153.859 85.4297L152.602 85.1406C151.07 84.7891 150.312 84.0156 150.312 82.8125ZM177.312 82.8672H169.047V81.5781H177.312V82.8672ZM177.312 86.4297H169.047V85.1406H177.312V86.4297ZM195.641 85.5469V84.4453H193.039V83.2656H197.031V85.6641C197.031 87.7812 195.438 89.2344 193.164 89.2344C190.516 89.2344 188.984 87.4531 188.984 84.3672V82.3594C188.984 79.2734 190.516 77.4922 193.164 77.4922C195.508 77.4922 196.977 78.9219 197.031 81.2578H195.641C195.578 79.7891 194.578 78.7969 193.141 78.7969C191.32 78.7969 190.375 80.0234 190.375 82.3594V84.3672C190.375 86.7031 191.328 87.9297 193.148 87.9297C194.688 87.9297 195.641 87.0234 195.641 85.5469ZM202.852 89.1562C200.609 89.1562 199.18 87.6953 199.18 85.4062V84.125C199.18 81.8359 200.609 80.375 202.852 80.375C205.094 80.375 206.523 81.8359 206.523 84.125V85.4062C206.523 87.6953 205.094 89.1562 202.852 89.1562ZM202.852 81.5469C201.398 81.5469 200.492 82.5781 200.492 84.2422V85.2812C200.492 86.9531 201.398 87.9766 202.852 87.9766C204.305 87.9766 205.211 86.9531 205.211 85.2812V84.2422C205.211 82.5781 204.305 81.5469 202.852 81.5469ZM212.742 89.1562C210.5 89.1562 209.07 87.6953 209.07 85.4062V84.125C209.07 81.8359 210.5 80.375 212.742 80.375C214.984 80.375 216.414 81.8359 216.414 84.125V85.4062C216.414 87.6953 214.984 89.1562 212.742 89.1562ZM212.742 81.5469C211.289 81.5469 210.383 82.5781 210.383 84.2422V85.2812C210.383 86.9531 211.289 87.9766 212.742 87.9766C214.195 87.9766 215.102 86.9531 215.102 85.2812V84.2422C215.102 82.5781 214.195 81.5469 212.742 81.5469ZM222.102 89.1406C220.141 89.1406 218.859 87.7266 218.859 85.5469V83.9688C218.859 81.7969 220.141 80.3828 222.102 80.3828C223.328 80.3828 224.234 80.9062 224.602 81.8359H224.742V77.1953H226.094V89H224.789V87.7031H224.641C224.203 88.6406 223.312 89.1406 222.102 89.1406ZM222.492 87.9297C223.883 87.9297 224.781 86.9297 224.781 85.3594V84.1406C224.781 82.5781 223.883 81.5781 222.492 81.5781C221.094 81.5781 220.195 82.5781 220.195 84.1406V85.3594C220.195 86.9219 221.094 87.9297 222.492 87.9297ZM229.125 77.7266H232.875C235.062 77.7266 236.492 79.1562 236.492 81.3438C236.492 83.5234 235.047 84.9531 232.844 84.9531H230.508V89H229.125V77.7266ZM230.508 78.9531V83.7266H232.531C234.172 83.7266 235.094 82.875 235.094 81.3438C235.094 79.8047 234.172 78.9531 232.531 78.9531H230.508ZM241.555 89.1484C239.938 89.1484 238.859 88.1328 238.859 86.5938C238.859 85.0938 239.938 84.2031 241.867 84.1016L244.195 83.9844V83.2188C244.195 82.1562 243.547 81.5703 242.367 81.5703C241.391 81.5703 240.703 81.9844 240.484 82.7109H239.18C239.336 81.3516 240.648 80.4219 242.383 80.4219C244.375 80.4219 245.516 81.4375 245.516 83.2031V89.0078H244.25V87.7344H244.117C243.711 88.6406 242.789 89.1484 241.555 89.1484ZM241.938 87.9844C243.219 87.9844 244.195 87.1328 244.195 86V85L242.016 85.1016C240.828 85.1562 240.203 85.6641 240.203 86.5469C240.203 87.4375 240.867 87.9844 241.938 87.9844ZM248.836 89V80.5234H250.109V82.0156H250.219C250.672 80.9609 251.641 80.3672 252.93 80.3672C254.773 80.3672 255.773 81.4688 255.773 83.5V89H254.445V83.8359C254.445 82.3047 253.82 81.5859 252.5 81.5859C251.102 81.5859 250.164 82.5625 250.164 84.0078V89H248.836ZM261.664 89.1406C259.703 89.1406 258.422 87.7266 258.422 85.5469V83.9688C258.422 81.7969 259.703 80.3828 261.664 80.3828C262.891 80.3828 263.797 80.9062 264.164 81.8359H264.305V77.1953H265.656V89H264.352V87.7031H264.203C263.766 88.6406 262.875 89.1406 261.664 89.1406ZM262.055 87.9297C263.445 87.9297 264.344 86.9297 264.344 85.3594V84.1406C264.344 82.5781 263.445 81.5781 262.055 81.5781C260.656 81.5781 259.758 82.5781 259.758 84.1406V85.3594C259.758 86.9219 260.656 87.9297 262.055 87.9297ZM271.227 89.1484C269.609 89.1484 268.531 88.1328 268.531 86.5938C268.531 85.0938 269.609 84.2031 271.539 84.1016L273.867 83.9844V83.2188C273.867 82.1562 273.219 81.5703 272.039 81.5703C271.062 81.5703 270.375 81.9844 270.156 82.7109H268.852C269.008 81.3516 270.32 80.4219 272.055 80.4219C274.047 80.4219 275.188 81.4375 275.188 83.2031V89.0078H273.922V87.7344H273.789C273.383 88.6406 272.461 89.1484 271.227 89.1484ZM271.609 87.9844C272.891 87.9844 273.867 87.1328 273.867 86V85L271.688 85.1016C270.5 85.1562 269.875 85.6641 269.875 86.5469C269.875 87.4375 270.539 87.9844 271.609 87.9844ZM278.891 82.8125C278.891 81.3438 280.141 80.3594 282.008 80.3594C283.773 80.3594 284.969 81.2422 285.125 82.6562H283.844C283.688 81.9141 282.977 81.4609 281.984 81.4609C280.906 81.4609 280.211 81.9609 280.211 82.7344C280.211 83.3828 280.648 83.75 281.711 83.9844L282.906 84.2578C284.555 84.6328 285.305 85.3516 285.305 86.5781C285.305 88.1406 284 89.1562 281.992 89.1562C280.07 89.1562 278.797 88.2578 278.648 86.8047H280C280.195 87.5859 280.945 88.0391 282.039 88.0391C283.195 88.0391 283.93 87.5156 283.93 86.7031C283.93 86.0312 283.516 85.6719 282.438 85.4297L281.18 85.1406C279.648 84.7891 278.891 84.0156 278.891 82.8125ZM290.164 83.3594C290.164 80.7109 290.961 78.4062 292.516 76.6406H293.836C292.219 78.9141 291.539 80.9062 291.539 83.3594C291.539 85.8125 292.219 87.8047 293.836 90.0781H292.516C290.961 88.3125 290.164 86.0156 290.164 83.3594ZM103.945 108.156C101.703 108.156 100.273 106.695 100.273 104.406V103.125C100.273 100.836 101.703 99.375 103.945 99.375C106.188 99.375 107.617 100.836 107.617 103.125V104.406C107.617 106.695 106.188 108.156 103.945 108.156ZM103.945 100.547C102.492 100.547 101.586 101.578 101.586 103.242V104.281C101.586 105.953 102.492 106.977 103.945 106.977C105.398 106.977 106.305 105.953 106.305 104.281V103.242C106.305 101.578 105.398 100.547 103.945 100.547ZM110.75 101.812C110.75 100.344 112 99.3594 113.867 99.3594C115.633 99.3594 116.828 100.242 116.984 101.656H115.703C115.547 100.914 114.836 100.461 113.844 100.461C112.766 100.461 112.07 100.961 112.07 101.734C112.07 102.383 112.508 102.75 113.57 102.984L114.766 103.258C116.414 103.633 117.164 104.352 117.164 105.578C117.164 107.141 115.859 108.156 113.852 108.156C111.93 108.156 110.656 107.258 110.508 105.805H111.859C112.055 106.586 112.805 107.039 113.898 107.039C115.055 107.039 115.789 106.516 115.789 105.703C115.789 105.031 115.375 104.672 114.297 104.43L113.039 104.141C111.508 103.789 110.75 103.016 110.75 101.812ZM123.727 108.047C122.953 108.047 122.312 107.398 122.312 106.602C122.312 105.812 122.953 105.164 123.727 105.164C124.5 105.164 125.141 105.812 125.141 106.602C125.141 107.398 124.5 108.047 123.727 108.047ZM191.258 102.359C191.258 99.7109 192.055 97.4062 193.609 95.6406H194.93C193.312 97.9141 192.633 99.9062 192.633 102.359C192.633 104.812 193.312 106.805 194.93 109.078H193.609C192.055 107.312 191.258 105.016 191.258 102.359ZM263.898 102.359C263.898 105.016 263.102 107.312 261.547 109.078H260.227C261.844 106.805 262.523 104.812 262.523 102.359C262.523 99.9062 261.844 97.9141 260.227 95.6406H261.547C263.102 97.4062 263.898 99.7109 263.898 102.359ZM271.375 110.594H270.117L271.086 105.516H272.844L271.375 110.594ZM281.977 108.156C279.734 108.156 278.305 106.695 278.305 104.406V103.125C278.305 100.836 279.734 99.375 281.977 99.375C284.219 99.375 285.648 100.836 285.648 103.125V104.406C285.648 106.695 284.219 108.156 281.977 108.156ZM281.977 100.547C280.523 100.547 279.617 101.578 279.617 103.242V104.281C279.617 105.953 280.523 106.977 281.977 106.977C283.43 106.977 284.336 105.953 284.336 104.281V103.242C284.336 101.578 283.43 100.547 281.977 100.547ZM288.781 101.812C288.781 100.344 290.031 99.3594 291.898 99.3594C293.664 99.3594 294.859 100.242 295.016 101.656H293.734C293.578 100.914 292.867 100.461 291.875 100.461C290.797 100.461 290.102 100.961 290.102 101.734C290.102 102.383 290.539 102.75 291.602 102.984L292.797 103.258C294.445 103.633 295.195 104.352 295.195 105.578C295.195 107.141 293.891 108.156 291.883 108.156C289.961 108.156 288.688 107.258 288.539 105.805H289.891C290.086 106.586 290.836 107.039 291.93 107.039C293.086 107.039 293.82 106.516 293.82 105.703C293.82 105.031 293.406 104.672 292.328 104.43L291.07 104.141C289.539 103.789 288.781 103.016 288.781 101.812ZM301.758 108.047C300.984 108.047 300.344 107.398 300.344 106.602C300.344 105.812 300.984 105.164 301.758 105.164C302.531 105.164 303.172 105.812 303.172 106.602C303.172 107.398 302.531 108.047 301.758 108.047ZM369.289 102.359C369.289 99.7109 370.086 97.4062 371.641 95.6406H372.961C371.344 97.9141 370.664 99.9062 370.664 102.359C370.664 104.812 371.344 106.805 372.961 109.078H371.641C370.086 107.312 369.289 105.016 369.289 102.359ZM451.82 102.359C451.82 105.016 451.023 107.312 449.469 109.078H448.148C449.766 106.805 450.445 104.812 450.445 102.359C450.445 99.9062 449.766 97.9141 448.148 95.6406H449.469C451.023 97.4062 451.82 99.7109 451.82 102.359ZM105.648 121.359C105.648 124.016 104.852 126.312 103.297 128.078H101.977C103.594 125.805 104.273 123.812 104.273 121.359C104.273 118.906 103.594 116.914 101.977 114.641H103.297C104.852 116.406 105.648 118.711 105.648 121.359ZM103.414 165.141C101.453 165.141 100.172 163.727 100.172 161.547V159.969C100.172 157.797 101.453 156.383 103.414 156.383C104.641 156.383 105.547 156.906 105.914 157.836H106.055V153.195H107.406V165H106.102V163.703H105.953C105.516 164.641 104.625 165.141 103.414 165.141ZM103.805 163.93C105.195 163.93 106.094 162.93 106.094 161.359V160.141C106.094 158.578 105.195 157.578 103.805 157.578C102.406 157.578 101.508 158.578 101.508 160.141V161.359C101.508 162.922 102.406 163.93 103.805 163.93ZM112.586 165V157.68H110.312V156.547H112.586V155.695C112.586 154.055 113.602 153.289 115.688 153.289C116.18 153.289 117.359 153.328 117.641 153.367V154.453C117.273 154.414 116.18 154.383 115.703 154.383C114.523 154.383 113.898 154.82 113.898 155.672V156.547H117.641V157.68H113.914V165H112.586ZM137.75 158.867H129.484V157.578H137.75V158.867ZM137.75 162.43H129.484V161.141H137.75V162.43ZM153.93 156.383C155.891 156.383 157.172 157.797 157.172 159.977V161.555C157.172 163.727 155.891 165.141 153.93 165.141C152.703 165.141 151.805 164.617 151.438 163.688H151.289V167.859H149.938V156.523H151.25V157.82H151.391C151.836 156.883 152.719 156.383 153.93 156.383ZM153.547 157.602C152.148 157.602 151.258 158.602 151.258 160.164V161.383C151.258 162.953 152.148 163.953 153.547 163.953C154.945 163.953 155.836 162.945 155.836 161.383V160.164C155.836 158.602 154.945 157.602 153.547 157.602ZM162.43 165.148C160.812 165.148 159.734 164.133 159.734 162.594C159.734 161.094 160.812 160.203 162.742 160.102L165.07 159.984V159.219C165.07 158.156 164.422 157.57 163.242 157.57C162.266 157.57 161.578 157.984 161.359 158.711H160.055C160.211 157.352 161.523 156.422 163.258 156.422C165.25 156.422 166.391 157.438 166.391 159.203V165.008H165.125V163.734H164.992C164.586 164.641 163.664 165.148 162.43 165.148ZM162.812 163.984C164.094 163.984 165.07 163.133 165.07 162V161L162.891 161.102C161.703 161.156 161.078 161.664 161.078 162.547C161.078 163.438 161.742 163.984 162.812 163.984ZM169.711 165V156.523H170.984V158.016H171.094C171.547 156.961 172.516 156.367 173.805 156.367C175.648 156.367 176.648 157.469 176.648 159.5V165H175.32V159.836C175.32 158.305 174.695 157.586 173.375 157.586C171.977 157.586 171.039 158.562 171.039 160.008V165H169.711ZM182.539 165.141C180.578 165.141 179.297 163.727 179.297 161.547V159.969C179.297 157.797 180.578 156.383 182.539 156.383C183.766 156.383 184.672 156.906 185.039 157.836H185.18V153.195H186.531V165H185.227V163.703H185.078C184.641 164.641 183.75 165.141 182.539 165.141ZM182.93 163.93C184.32 163.93 185.219 162.93 185.219 161.359V160.141C185.219 158.578 184.32 157.578 182.93 157.578C181.531 157.578 180.633 158.578 180.633 160.141V161.359C180.633 162.922 181.531 163.93 182.93 163.93ZM192.102 165.148C190.484 165.148 189.406 164.133 189.406 162.594C189.406 161.094 190.484 160.203 192.414 160.102L194.742 159.984V159.219C194.742 158.156 194.094 157.57 192.914 157.57C191.938 157.57 191.25 157.984 191.031 158.711H189.727C189.883 157.352 191.195 156.422 192.93 156.422C194.922 156.422 196.062 157.438 196.062 159.203V165.008H194.797V163.734H194.664C194.258 164.641 193.336 165.148 192.102 165.148ZM192.484 163.984C193.766 163.984 194.742 163.133 194.742 162V161L192.562 161.102C191.375 161.156 190.75 161.664 190.75 162.547C190.75 163.438 191.414 163.984 192.484 163.984ZM199.766 158.812C199.766 157.344 201.016 156.359 202.883 156.359C204.648 156.359 205.844 157.242 206 158.656H204.719C204.562 157.914 203.852 157.461 202.859 157.461C201.781 157.461 201.086 157.961 201.086 158.734C201.086 159.383 201.523 159.75 202.586 159.984L203.781 160.258C205.43 160.633 206.18 161.352 206.18 162.578C206.18 164.141 204.875 165.156 202.867 165.156C200.945 165.156 199.672 164.258 199.523 162.805H200.875C201.07 163.586 201.82 164.039 202.914 164.039C204.07 164.039 204.805 163.516 204.805 162.703C204.805 162.031 204.391 161.672 203.312 161.43L202.055 161.141C200.523 160.789 199.766 160.016 199.766 158.812ZM212.742 165.047C211.969 165.047 211.328 164.398 211.328 163.602C211.328 162.812 211.969 162.164 212.742 162.164C213.516 162.164 214.156 162.812 214.156 163.602C214.156 164.398 213.516 165.047 212.742 165.047ZM329.727 159.359C329.727 156.711 330.523 154.406 332.078 152.641H333.398C331.781 154.914 331.102 156.906 331.102 159.359C331.102 161.812 331.781 163.805 333.398 166.078H332.078C330.523 164.312 329.727 162.016 329.727 159.359ZM464.141 158.867H455.875V157.578H464.141V158.867ZM464.141 162.43H455.875V161.141H464.141V162.43ZM521.055 159.359C521.055 162.016 520.258 164.312 518.703 166.078H517.383C519 163.805 519.68 161.812 519.68 159.359C519.68 156.906 519 154.914 517.383 152.641H518.703C520.258 154.406 521.055 156.711 521.055 159.359ZM107.477 178.164H106.164C106 177.172 105.172 176.547 104.078 176.547C102.602 176.547 101.781 177.555 101.781 179.375V180.141C101.781 181.961 102.602 182.961 104.078 182.961C105.172 182.961 106 182.344 106.164 181.375H107.477C107.266 183.102 105.977 184.156 104.102 184.156C101.797 184.156 100.453 182.742 100.453 180.312V179.203C100.453 176.773 101.797 175.359 104.102 175.359C105.977 175.359 107.258 176.422 107.477 178.164ZM112.977 184.148C111.359 184.148 110.281 183.133 110.281 181.594C110.281 180.094 111.359 179.203 113.289 179.102L115.617 178.984V178.219C115.617 177.156 114.969 176.57 113.789 176.57C112.812 176.57 112.125 176.984 111.906 177.711H110.602C110.758 176.352 112.07 175.422 113.805 175.422C115.797 175.422 116.938 176.438 116.938 178.203V184.008H115.672V182.734H115.539C115.133 183.641 114.211 184.148 112.977 184.148ZM113.359 182.984C114.641 182.984 115.617 182.133 115.617 181V180L113.438 180.102C112.25 180.156 111.625 180.664 111.625 181.547C111.625 182.438 112.289 182.984 113.359 182.984ZM127.812 177.758V184H126.617V178.148C126.617 177.117 126.242 176.578 125.531 176.578C124.789 176.578 124.336 177.227 124.336 178.281V184H123.148V178.141C123.148 177.117 122.773 176.578 122.055 176.578C121.305 176.578 120.836 177.227 120.836 178.281V184H119.641V175.523H120.828V176.719H120.969C121.18 175.867 121.789 175.367 122.586 175.367C123.383 175.367 123.945 175.859 124.125 176.695H124.266C124.484 175.883 125.164 175.367 126.016 175.367C127.195 175.367 127.812 176.188 127.812 177.758ZM134.148 175.383C136.109 175.383 137.391 176.797 137.391 178.977V180.555C137.391 182.727 136.109 184.141 134.148 184.141C132.922 184.141 132.023 183.617 131.656 182.688H131.508V186.859H130.156V175.523H131.469V176.82H131.609C132.055 175.883 132.938 175.383 134.148 175.383ZM133.766 176.602C132.367 176.602 131.477 177.602 131.477 179.164V180.383C131.477 181.953 132.367 182.953 133.766 182.953C135.164 182.953 136.055 181.945 136.055 180.383V179.164C136.055 177.602 135.164 176.602 133.766 176.602ZM142.648 184.148C141.031 184.148 139.953 183.133 139.953 181.594C139.953 180.094 141.031 179.203 142.961 179.102L145.289 178.984V178.219C145.289 177.156 144.641 176.57 143.461 176.57C142.484 176.57 141.797 176.984 141.578 177.711H140.273C140.43 176.352 141.742 175.422 143.477 175.422C145.469 175.422 146.609 176.438 146.609 178.203V184.008H145.344V182.734H145.211C144.805 183.641 143.883 184.148 142.648 184.148ZM143.031 182.984C144.312 182.984 145.289 182.133 145.289 181V180L143.109 180.102C141.922 180.156 141.297 180.664 141.297 181.547C141.297 182.438 141.961 182.984 143.031 182.984ZM153.547 173.445C152.922 173.445 152.445 172.977 152.445 172.352C152.445 171.734 152.922 171.266 153.547 171.266C154.172 171.266 154.648 171.734 154.648 172.352C154.648 172.977 154.172 173.445 153.547 173.445ZM157.102 184H150.078V182.898H152.984V176.625H150.102V175.523H154.297V182.898H157.102V184ZM163.039 187.18C161.078 187.18 159.766 186.32 159.594 184.914H160.906C161.078 185.617 161.93 186.078 163.062 186.078C164.547 186.078 165.367 185.328 165.367 183.969V182.648H165.227C164.852 183.539 163.914 184.078 162.68 184.078C160.719 184.078 159.43 182.664 159.43 180.492V178.969C159.43 176.789 160.727 175.383 162.711 175.383C163.938 175.383 164.867 175.922 165.234 176.836H165.383V175.523H166.695V184C166.695 185.992 165.336 187.18 163.039 187.18ZM160.766 180.305C160.766 181.859 161.672 182.875 163.078 182.875C164.477 182.875 165.375 181.867 165.375 180.305V179.141C165.375 177.578 164.477 176.578 163.078 176.578C161.672 176.578 160.766 177.586 160.766 179.141V180.305ZM169.711 184V175.523H170.984V177.016H171.094C171.547 175.961 172.516 175.367 173.805 175.367C175.648 175.367 176.648 176.469 176.648 178.5V184H175.32V178.836C175.32 177.305 174.695 176.586 173.375 176.586C171.977 176.586 171.039 177.562 171.039 179.008V184H169.711ZM187.125 186.438H179.016V185.289H187.125V186.438ZM189.875 177.812C189.875 176.344 191.125 175.359 192.992 175.359C194.758 175.359 195.953 176.242 196.109 177.656H194.828C194.672 176.914 193.961 176.461 192.969 176.461C191.891 176.461 191.195 176.961 191.195 177.734C191.195 178.383 191.633 178.75 192.695 178.984L193.891 179.258C195.539 179.633 196.289 180.352 196.289 181.578C196.289 183.141 194.984 184.156 192.977 184.156C191.055 184.156 189.781 183.258 189.633 181.805H190.984C191.18 182.586 191.93 183.039 193.023 183.039C194.18 183.039 194.914 182.516 194.914 181.703C194.914 181.031 194.5 180.672 193.422 180.43L192.164 180.141C190.633 179.789 189.875 179.016 189.875 177.812ZM203.383 175.383C205.344 175.383 206.625 176.797 206.625 178.977V180.555C206.625 182.727 205.344 184.141 203.383 184.141C202.156 184.141 201.258 183.617 200.891 182.688H200.742V186.859H199.391V175.523H200.703V176.82H200.844C201.289 175.883 202.172 175.383 203.383 175.383ZM203 176.602C201.602 176.602 200.711 177.602 200.711 179.164V180.383C200.711 181.953 201.602 182.953 203 182.953C204.398 182.953 205.289 181.945 205.289 180.383V179.164C205.289 177.602 204.398 176.602 203 176.602ZM215.031 181.812H216.32C216.062 183.211 214.719 184.156 212.938 184.156C210.609 184.156 209.258 182.758 209.258 180.344V179.07C209.258 176.836 210.688 175.367 212.844 175.367C215.047 175.367 216.344 176.828 216.344 179.281V180.109H210.57V180.453C210.57 182.008 211.492 183.008 212.938 183.008C214.008 183.008 214.797 182.555 215.031 181.812ZM212.836 176.508C211.422 176.508 210.57 177.477 210.57 179.102H215.031C215.031 177.484 214.203 176.508 212.836 176.508ZM219.164 184V175.523H220.438V177.016H220.547C221 175.961 221.969 175.367 223.258 175.367C225.102 175.367 226.102 176.469 226.102 178.5V184H224.773V178.836C224.773 177.305 224.148 176.586 222.828 176.586C221.43 176.586 220.492 177.562 220.492 179.008V184H219.164ZM231.992 184.141C230.031 184.141 228.75 182.727 228.75 180.547V178.969C228.75 176.797 230.031 175.383 231.992 175.383C233.219 175.383 234.125 175.906 234.492 176.836H234.633V172.195H235.984V184H234.68V182.703H234.531C234.094 183.641 233.203 184.141 231.992 184.141ZM232.383 182.93C233.773 182.93 234.672 181.93 234.672 180.359V179.141C234.672 177.578 233.773 176.578 232.383 176.578C230.984 176.578 230.086 177.578 230.086 179.141V180.359C230.086 181.922 230.984 182.93 232.383 182.93ZM256.438 177.867H248.172V176.578H256.438V177.867ZM256.438 181.43H248.172V180.141H256.438V181.43ZM271.555 184.141C269.594 184.141 268.312 182.727 268.312 180.547V178.969C268.312 176.797 269.594 175.383 271.555 175.383C272.781 175.383 273.688 175.906 274.055 176.836H274.195V172.195H275.547V184H274.242V182.703H274.094C273.656 183.641 272.766 184.141 271.555 184.141ZM271.945 182.93C273.336 182.93 274.234 181.93 274.234 180.359V179.141C274.234 177.578 273.336 176.578 271.945 176.578C270.547 176.578 269.648 177.578 269.648 179.141V180.359C269.648 181.922 270.547 182.93 271.945 182.93ZM280.727 184V176.68H278.453V175.547H280.727V174.695C280.727 173.055 281.742 172.289 283.828 172.289C284.32 172.289 285.5 172.328 285.781 172.367V173.453C285.414 173.414 284.32 173.383 283.844 173.383C282.664 173.383 282.039 173.82 282.039 174.672V175.547H285.781V176.68H282.055V184H280.727ZM291.867 184.047C291.094 184.047 290.453 183.398 290.453 182.602C290.453 181.812 291.094 181.164 291.867 181.164C292.641 181.164 293.281 181.812 293.281 182.602C293.281 183.398 292.641 184.047 291.867 184.047ZM408.852 178.359C408.852 175.711 409.648 173.406 411.203 171.641H412.523C410.906 173.914 410.227 175.906 410.227 178.359C410.227 180.812 410.906 182.805 412.523 185.078H411.203C409.648 183.312 408.852 181.016 408.852 178.359ZM580.398 178.359C580.398 181.016 579.602 183.312 578.047 185.078H576.727C578.344 182.805 579.023 180.812 579.023 178.359C579.023 175.906 578.344 173.914 576.727 171.641H578.047C579.602 173.406 580.398 175.711 580.398 178.359Z" fill="black"/>
<path d="M133.367 111.18C131.406 111.18 130.094 110.32 129.922 108.914H131.234C131.406 109.617 132.258 110.078 133.391 110.078C134.875 110.078 135.695 109.328 135.695 107.969V106.648H135.555C135.18 107.539 134.242 108.078 133.008 108.078C131.047 108.078 129.758 106.664 129.758 104.492V102.969C129.758 100.789 131.055 99.3828 133.039 99.3828C134.266 99.3828 135.195 99.9219 135.562 100.836H135.711V99.5234H137.023V108C137.023 109.992 135.664 111.18 133.367 111.18ZM131.094 104.305C131.094 105.859 132 106.875 133.406 106.875C134.805 106.875 135.703 105.867 135.703 104.305V103.141C135.703 101.578 134.805 100.578 133.406 100.578C132 100.578 131.094 101.586 131.094 103.141V104.305ZM145.797 105.812H147.086C146.828 107.211 145.484 108.156 143.703 108.156C141.375 108.156 140.023 106.758 140.023 104.344V103.07C140.023 100.836 141.453 99.3672 143.609 99.3672C145.812 99.3672 147.109 100.828 147.109 103.281V104.109H141.336V104.453C141.336 106.008 142.258 107.008 143.703 107.008C144.773 107.008 145.562 106.555 145.797 105.812ZM143.602 100.508C142.188 100.508 141.336 101.477 141.336 103.102H145.797C145.797 101.484 144.969 100.508 143.602 100.508ZM151.953 97.25H153.266V99.5469H156.703V100.68H153.281V105.461C153.281 106.383 153.93 106.883 155.125 106.883C155.602 106.883 156.453 106.859 156.68 106.836V107.961C156.469 108 155.438 108.039 155.031 108.039C152.93 108.039 151.953 107.242 151.953 105.477V100.68H149.695V99.5469H151.953V97.25ZM165.578 105.812H166.867C166.609 107.211 165.266 108.156 163.484 108.156C161.156 108.156 159.805 106.758 159.805 104.344V103.07C159.805 100.836 161.234 99.3672 163.391 99.3672C165.594 99.3672 166.891 100.828 166.891 103.281V104.109H161.117V104.453C161.117 106.008 162.039 107.008 163.484 107.008C164.555 107.008 165.344 106.555 165.578 105.812ZM163.383 100.508C161.969 100.508 161.117 101.477 161.117 103.102H165.578C165.578 101.484 164.75 100.508 163.383 100.508ZM169.711 108V99.5234H170.984V101.016H171.094C171.547 99.9609 172.516 99.3672 173.805 99.3672C175.648 99.3672 176.648 100.469 176.648 102.5V108H175.32V102.836C175.32 101.305 174.695 100.586 173.375 100.586C171.977 100.586 171.039 101.562 171.039 103.008V108H169.711ZM179.242 99.5234H180.664L183.031 106.578H183.133L185.484 99.5234H186.898L183.805 108H182.344L179.242 99.5234ZM311.398 111.18C309.438 111.18 308.125 110.32 307.953 108.914H309.266C309.438 109.617 310.289 110.078 311.422 110.078C312.906 110.078 313.727 109.328 313.727 107.969V106.648H313.586C313.211 107.539 312.273 108.078 311.039 108.078C309.078 108.078 307.789 106.664 307.789 104.492V102.969C307.789 100.789 309.086 99.3828 311.07 99.3828C312.297 99.3828 313.227 99.9219 313.594 100.836H313.742V99.5234H315.055V108C315.055 109.992 313.695 111.18 311.398 111.18ZM309.125 104.305C309.125 105.859 310.031 106.875 311.438 106.875C312.836 106.875 313.734 105.867 313.734 104.305V103.141C313.734 101.578 312.836 100.578 311.438 100.578C310.031 100.578 309.125 101.586 309.125 103.141V104.305ZM323.828 105.812H325.117C324.859 107.211 323.516 108.156 321.734 108.156C319.406 108.156 318.055 106.758 318.055 104.344V103.07C318.055 100.836 319.484 99.3672 321.641 99.3672C323.844 99.3672 325.141 100.828 325.141 103.281V104.109H319.367V104.453C319.367 106.008 320.289 107.008 321.734 107.008C322.805 107.008 323.594 106.555 323.828 105.812ZM321.633 100.508C320.219 100.508 319.367 101.477 319.367 103.102H323.828C323.828 101.484 323 100.508 321.633 100.508ZM329.984 97.25H331.297V99.5469H334.734V100.68H331.312V105.461C331.312 106.383 331.961 106.883 333.156 106.883C333.633 106.883 334.484 106.859 334.711 106.836V107.961C334.5 108 333.469 108.039 333.062 108.039C330.961 108.039 329.984 107.242 329.984 105.477V100.68H327.727V99.5469H329.984V97.25ZM343.609 105.812H344.898C344.641 107.211 343.297 108.156 341.516 108.156C339.188 108.156 337.836 106.758 337.836 104.344V103.07C337.836 100.836 339.266 99.3672 341.422 99.3672C343.625 99.3672 344.922 100.828 344.922 103.281V104.109H339.148V104.453C339.148 106.008 340.07 107.008 341.516 107.008C342.586 107.008 343.375 106.555 343.609 105.812ZM341.414 100.508C340 100.508 339.148 101.477 339.148 103.102H343.609C343.609 101.484 342.781 100.508 341.414 100.508ZM347.742 108V99.5234H349.016V101.016H349.125C349.578 99.9609 350.547 99.3672 351.836 99.3672C353.68 99.3672 354.68 100.469 354.68 102.5V108H353.352V102.836C353.352 101.305 352.727 100.586 351.406 100.586C350.008 100.586 349.07 101.562 349.07 103.008V108H347.742ZM357.273 99.5234H358.695L361.062 106.578H361.164L363.516 99.5234H364.93L361.836 108H360.375L357.273 99.5234ZM222.102 165.141C220.141 165.141 218.859 163.727 218.859 161.547V159.969C218.859 157.797 220.141 156.383 222.102 156.383C223.328 156.383 224.234 156.906 224.602 157.836H224.742V153.195H226.094V165H224.789V163.703H224.641C224.203 164.641 223.312 165.141 222.102 165.141ZM222.492 163.93C223.883 163.93 224.781 162.93 224.781 161.359V160.141C224.781 158.578 223.883 157.578 222.492 157.578C221.094 157.578 220.195 158.578 220.195 160.141V161.359C220.195 162.922 221.094 163.93 222.492 163.93ZM231.664 165.148C230.047 165.148 228.969 164.133 228.969 162.594C228.969 161.094 230.047 160.203 231.977 160.102L234.305 159.984V159.219C234.305 158.156 233.656 157.57 232.477 157.57C231.5 157.57 230.812 157.984 230.594 158.711H229.289C229.445 157.352 230.758 156.422 232.492 156.422C234.484 156.422 235.625 157.438 235.625 159.203V165.008H234.359V163.734H234.227C233.82 164.641 232.898 165.148 231.664 165.148ZM232.047 163.984C233.328 163.984 234.305 163.133 234.305 162V161L232.125 161.102C230.938 161.156 230.312 161.664 230.312 162.547C230.312 163.438 230.977 163.984 232.047 163.984ZM240.969 154.25H242.281V156.547H245.719V157.68H242.297V162.461C242.297 163.383 242.945 163.883 244.141 163.883C244.617 163.883 245.469 163.859 245.695 163.836V164.961C245.484 165 244.453 165.039 244.047 165.039C241.945 165.039 240.969 164.242 240.969 162.477V157.68H238.711V156.547H240.969V154.25ZM251.445 165.148C249.828 165.148 248.75 164.133 248.75 162.594C248.75 161.094 249.828 160.203 251.758 160.102L254.086 159.984V159.219C254.086 158.156 253.438 157.57 252.258 157.57C251.281 157.57 250.594 157.984 250.375 158.711H249.07C249.227 157.352 250.539 156.422 252.273 156.422C254.266 156.422 255.406 157.438 255.406 159.203V165.008H254.141V163.734H254.008C253.602 164.641 252.68 165.148 251.445 165.148ZM251.828 163.984C253.109 163.984 254.086 163.133 254.086 162V161L251.906 161.102C250.719 161.156 250.094 161.664 250.094 162.547C250.094 163.438 250.758 163.984 251.828 163.984ZM266.25 167.438H258.141V166.289H266.25V167.438ZM270.836 165V157.68H268.562V156.547H270.836V155.695C270.836 154.055 271.852 153.289 273.938 153.289C274.43 153.289 275.609 153.328 275.891 153.367V154.453C275.523 154.414 274.43 154.383 273.953 154.383C272.773 154.383 272.148 154.82 272.148 155.672V156.547H275.891V157.68H272.164V165H270.836ZM281.641 161.203V163.938H284.266V165H278.633V163.938H280.344V157.586H278.461V156.523H281.625V158.688H281.797C282.109 157.117 283.164 156.305 284.797 156.305C285.281 156.305 285.742 156.375 286.023 156.492V157.984C285.633 157.844 285.086 157.75 284.625 157.75C282.75 157.75 281.641 159.047 281.641 161.203ZM291.008 165.148C289.391 165.148 288.312 164.133 288.312 162.594C288.312 161.094 289.391 160.203 291.32 160.102L293.648 159.984V159.219C293.648 158.156 293 157.57 291.82 157.57C290.844 157.57 290.156 157.984 289.938 158.711H288.633C288.789 157.352 290.102 156.422 291.836 156.422C293.828 156.422 294.969 157.438 294.969 159.203V165.008H293.703V163.734H293.57C293.164 164.641 292.242 165.148 291.008 165.148ZM291.391 163.984C292.672 163.984 293.648 163.133 293.648 162V161L291.469 161.102C290.281 161.156 289.656 161.664 289.656 162.547C289.656 163.438 290.32 163.984 291.391 163.984ZM305.844 158.758V165H304.648V159.148C304.648 158.117 304.273 157.578 303.562 157.578C302.82 157.578 302.367 158.227 302.367 159.281V165H301.18V159.141C301.18 158.117 300.805 157.578 300.086 157.578C299.336 157.578 298.867 158.227 298.867 159.281V165H297.672V156.523H298.859V157.719H299C299.211 156.867 299.82 156.367 300.617 156.367C301.414 156.367 301.977 156.859 302.156 157.695H302.297C302.516 156.883 303.195 156.367 304.047 156.367C305.227 156.367 305.844 157.188 305.844 158.758ZM313.938 162.812H315.227C314.969 164.211 313.625 165.156 311.844 165.156C309.516 165.156 308.164 163.758 308.164 161.344V160.07C308.164 157.836 309.594 156.367 311.75 156.367C313.953 156.367 315.25 157.828 315.25 160.281V161.109H309.477V161.453C309.477 163.008 310.398 164.008 311.844 164.008C312.914 164.008 313.703 163.555 313.938 162.812ZM311.742 157.508C310.328 157.508 309.477 158.477 309.477 160.102H313.938C313.938 158.484 313.109 157.508 311.742 157.508ZM318.453 158.812C318.453 157.344 319.703 156.359 321.57 156.359C323.336 156.359 324.531 157.242 324.688 158.656H323.406C323.25 157.914 322.539 157.461 321.547 157.461C320.469 157.461 319.773 157.961 319.773 158.734C319.773 159.383 320.211 159.75 321.273 159.984L322.469 160.258C324.117 160.633 324.867 161.352 324.867 162.578C324.867 164.141 323.562 165.156 321.555 165.156C319.633 165.156 318.359 164.258 318.211 162.805H319.562C319.758 163.586 320.508 164.039 321.602 164.039C322.758 164.039 323.492 163.516 323.492 162.703C323.492 162.031 323.078 161.672 322 161.43L320.742 161.141C319.211 160.789 318.453 160.016 318.453 158.812ZM300.508 184V176.68H298.234V175.547H300.508V174.695C300.508 173.055 301.523 172.289 303.609 172.289C304.102 172.289 305.281 172.328 305.562 172.367V173.453C305.195 173.414 304.102 173.383 303.625 173.383C302.445 173.383 301.82 173.82 301.82 174.672V175.547H305.562V176.68H301.836V184H300.508ZM311.648 184.156C309.406 184.156 307.977 182.695 307.977 180.406V179.125C307.977 176.836 309.406 175.375 311.648 175.375C313.891 175.375 315.32 176.836 315.32 179.125V180.406C315.32 182.695 313.891 184.156 311.648 184.156ZM311.648 176.547C310.195 176.547 309.289 177.578 309.289 179.242V180.281C309.289 181.953 310.195 182.977 311.648 182.977C313.102 182.977 314.008 181.953 314.008 180.281V179.242C314.008 177.578 313.102 176.547 311.648 176.547ZM321.203 180.203V182.938H323.828V184H318.195V182.938H319.906V176.586H318.023V175.523H321.188V177.688H321.359C321.672 176.117 322.727 175.305 324.359 175.305C324.844 175.305 325.305 175.375 325.586 175.492V176.984C325.195 176.844 324.648 176.75 324.188 176.75C322.312 176.75 321.203 178.047 321.203 180.203ZM335.484 186.438H327.375V185.289H335.484V186.438ZM341.469 173.445C340.844 173.445 340.367 172.977 340.367 172.352C340.367 171.734 340.844 171.266 341.469 171.266C342.094 171.266 342.57 171.734 342.57 172.352C342.57 172.977 342.094 173.445 341.469 173.445ZM345.023 184H338V182.898H340.906V176.625H338.023V175.523H342.219V182.898H345.023V184ZM347.742 184V175.523H349.016V177.016H349.125C349.578 175.961 350.547 175.367 351.836 175.367C353.68 175.367 354.68 176.469 354.68 178.5V184H353.352V178.836C353.352 177.305 352.727 176.586 351.406 176.586C350.008 176.586 349.07 177.562 349.07 179.008V184H347.742ZM358.016 177.812C358.016 176.344 359.266 175.359 361.133 175.359C362.898 175.359 364.094 176.242 364.25 177.656H362.969C362.812 176.914 362.102 176.461 361.109 176.461C360.031 176.461 359.336 176.961 359.336 177.734C359.336 178.383 359.773 178.75 360.836 178.984L362.031 179.258C363.68 179.633 364.43 180.352 364.43 181.578C364.43 183.141 363.125 184.156 361.117 184.156C359.195 184.156 357.922 183.258 357.773 181.805H359.125C359.32 182.586 360.07 183.039 361.164 183.039C362.32 183.039 363.055 182.516 363.055 181.703C363.055 181.031 362.641 180.672 361.562 180.43L360.305 180.141C358.773 179.789 358.016 179.016 358.016 177.812ZM371.141 173.445C370.516 173.445 370.039 172.977 370.039 172.352C370.039 171.734 370.516 171.266 371.141 171.266C371.766 171.266 372.242 171.734 372.242 172.352C372.242 172.977 371.766 173.445 371.141 173.445ZM374.695 184H367.672V182.898H370.578V176.625H367.695V175.523H371.891V182.898H374.695V184ZM380.633 187.18C378.672 187.18 377.359 186.32 377.188 184.914H378.5C378.672 185.617 379.523 186.078 380.656 186.078C382.141 186.078 382.961 185.328 382.961 183.969V182.648H382.82C382.445 183.539 381.508 184.078 380.273 184.078C378.312 184.078 377.023 182.664 377.023 180.492V178.969C377.023 176.789 378.32 175.383 380.305 175.383C381.531 175.383 382.461 175.922 382.828 176.836H382.977V175.523H384.289V184C384.289 185.992 382.93 187.18 380.633 187.18ZM378.359 180.305C378.359 181.859 379.266 182.875 380.672 182.875C382.07 182.875 382.969 181.867 382.969 180.305V179.141C382.969 177.578 382.07 176.578 380.672 176.578C379.266 176.578 378.359 177.586 378.359 179.141V180.305ZM387.297 184V172.195H388.578V177.023H388.688C389.133 175.969 390.109 175.375 391.406 175.375C393.25 175.375 394.25 176.484 394.25 178.508V184H392.922V178.844C392.922 177.32 392.297 176.594 390.969 176.594C389.57 176.594 388.625 177.57 388.625 179.016V184H387.297ZM399.219 173.25H400.531V175.547H403.969V176.68H400.547V181.461C400.547 182.383 401.195 182.883 402.391 182.883C402.867 182.883 403.719 182.859 403.945 182.836V183.961C403.734 184 402.703 184.039 402.297 184.039C400.195 184.039 399.219 183.242 399.219 181.477V176.68H396.961V175.547H399.219V173.25Z" fill="#919191"/>
<path d="M345.898 156.523L344.078 165H342.805L341.367 158.391H341.273L339.836 165H338.562L336.742 156.523H338.039L339.188 163.32H339.328L340.695 156.531H341.945L343.312 163.32H343.453L344.602 156.523H345.898ZM351.211 165.156C348.969 165.156 347.539 163.695 347.539 161.406V160.125C347.539 157.836 348.969 156.375 351.211 156.375C353.453 156.375 354.883 157.836 354.883 160.125V161.406C354.883 163.695 353.453 165.156 351.211 165.156ZM351.211 157.547C349.758 157.547 348.852 158.578 348.852 160.242V161.281C348.852 162.953 349.758 163.977 351.211 163.977C352.664 163.977 353.57 162.953 353.57 161.281V160.242C353.57 158.578 352.664 157.547 351.211 157.547ZM360.766 161.203V163.938H363.391V165H357.758V163.938H359.469V157.586H357.586V156.523H360.75V158.688H360.922C361.234 157.117 362.289 156.305 363.922 156.305C364.406 156.305 364.867 156.375 365.148 156.492V157.984C364.758 157.844 364.211 157.75 363.75 157.75C361.875 157.75 360.766 159.047 360.766 161.203ZM369.578 160.328L373.273 156.523H374.883L371.594 159.883L375.117 165H373.539L370.648 160.789L369.477 161.914V165H368.148V153.195H369.477V160.328H369.578ZM377.797 158.812C377.797 157.344 379.047 156.359 380.914 156.359C382.68 156.359 383.875 157.242 384.031 158.656H382.75C382.594 157.914 381.883 157.461 380.891 157.461C379.812 157.461 379.117 157.961 379.117 158.734C379.117 159.383 379.555 159.75 380.617 159.984L381.812 160.258C383.461 160.633 384.211 161.352 384.211 162.578C384.211 164.141 382.906 165.156 380.898 165.156C378.977 165.156 377.703 164.258 377.555 162.805H378.906C379.102 163.586 379.852 164.039 380.945 164.039C382.102 164.039 382.836 163.516 382.836 162.703C382.836 162.031 382.422 161.672 381.344 161.43L380.086 161.141C378.555 160.789 377.797 160.016 377.797 158.812ZM391.305 156.383C393.266 156.383 394.547 157.797 394.547 159.977V161.555C394.547 163.727 393.266 165.141 391.305 165.141C390.078 165.141 389.18 164.617 388.812 163.688H388.664V167.859H387.312V156.523H388.625V157.82H388.766C389.211 156.883 390.094 156.383 391.305 156.383ZM390.922 157.602C389.523 157.602 388.633 158.602 388.633 160.164V161.383C388.633 162.953 389.523 163.953 390.922 163.953C392.32 163.953 393.211 162.945 393.211 161.383V160.164C393.211 158.602 392.32 157.602 390.922 157.602ZM399.805 165.148C398.188 165.148 397.109 164.133 397.109 162.594C397.109 161.094 398.188 160.203 400.117 160.102L402.445 159.984V159.219C402.445 158.156 401.797 157.57 400.617 157.57C399.641 157.57 398.953 157.984 398.734 158.711H397.43C397.586 157.352 398.898 156.422 400.633 156.422C402.625 156.422 403.766 157.438 403.766 159.203V165.008H402.5V163.734H402.367C401.961 164.641 401.039 165.148 399.805 165.148ZM400.188 163.984C401.469 163.984 402.445 163.133 402.445 162V161L400.266 161.102C399.078 161.156 398.453 161.664 398.453 162.547C398.453 163.438 399.117 163.984 400.188 163.984ZM414.086 159.164H412.773C412.609 158.172 411.781 157.547 410.688 157.547C409.211 157.547 408.391 158.555 408.391 160.375V161.141C408.391 162.961 409.211 163.961 410.688 163.961C411.781 163.961 412.609 163.344 412.773 162.375H414.086C413.875 164.102 412.586 165.156 410.711 165.156C408.406 165.156 407.062 163.742 407.062 161.312V160.203C407.062 157.773 408.406 156.359 410.711 156.359C412.586 156.359 413.867 157.422 414.086 159.164ZM422.734 162.812H424.023C423.766 164.211 422.422 165.156 420.641 165.156C418.312 165.156 416.961 163.758 416.961 161.344V160.07C416.961 157.836 418.391 156.367 420.547 156.367C422.75 156.367 424.047 157.828 424.047 160.281V161.109H418.273V161.453C418.273 163.008 419.195 164.008 420.641 164.008C421.711 164.008 422.5 163.555 422.734 162.812ZM420.539 157.508C419.125 157.508 418.273 158.477 418.273 160.102H422.734C422.734 158.484 421.906 157.508 420.539 157.508ZM434.391 167.438H426.281V166.289H434.391V167.438ZM440.375 154.445C439.75 154.445 439.273 153.977 439.273 153.352C439.273 152.734 439.75 152.266 440.375 152.266C441 152.266 441.477 152.734 441.477 153.352C441.477 153.977 441 154.445 440.375 154.445ZM443.93 165H436.906V163.898H439.812V157.625H436.93V156.523H441.125V163.898H443.93V165ZM449.586 165.141C447.625 165.141 446.344 163.727 446.344 161.547V159.969C446.344 157.797 447.625 156.383 449.586 156.383C450.812 156.383 451.719 156.906 452.086 157.836H452.227V153.195H453.578V165H452.273V163.703H452.125C451.688 164.641 450.797 165.141 449.586 165.141ZM449.977 163.93C451.367 163.93 452.266 162.93 452.266 161.359V160.141C452.266 158.578 451.367 157.578 449.977 157.578C448.578 157.578 447.68 158.578 447.68 160.141V161.359C447.68 162.922 448.578 163.93 449.977 163.93Z" fill="#1A15FD"/>
<rect x="99" y="149" width="564" height="84" fill="url(#paint2_linear_3014_1135)"/>
</g>
<path d="M363 233L381 251L399 233H363Z" fill="white"/>
<defs>
<filter id="filter0_dddddd_3014_1135" x="0.654984" y="17" width="760.69" height="351.776" filterUnits="userSpaceOnUse" color-interpolation-filters="sRGB">
<feFlood flood-opacity="0" result="BackgroundImageFix"/>
<feColorMatrix in="SourceAlpha" type="matrix" values="0 0 0 0 0 0 0 0 0 0 0 0 0 0 0 0 0 0 127 0" result="hardAlpha"/>
<feOffset dy="2.08738"/>
<feGaussianBlur stdDeviation="0.834951"/>
<feColorMatrix type="matrix" values="0 0 0 0 0.109804 0 0 0 0 0.0509804 0 0 0 0 0.247059 0 0 0 0.0196802 0"/>
<feBlend mode="normal" in2="BackgroundImageFix" result="effect1_dropShadow_3014_1135"/>
<feColorMatrix in="SourceAlpha" type="matrix" values="0 0 0 0 0 0 0 0 0 0 0 0 0 0 0 0 0 0 127 0" result="hardAlpha"/>
<feOffset dy="5.01626"/>
<feGaussianBlur stdDeviation="2.0065"/>
<feColorMatrix type="matrix" values="0 0 0 0 0.109804 0 0 0 0 0.0509804 0 0 0 0 0.247059 0 0 0 0.0282725 0"/>
<feBlend mode="normal" in2="effect1_dropShadow_3014_1135" result="effect2_dropShadow_3014_1135"/>
<feColorMatrix in="SourceAlpha" type="matrix" values="0 0 0 0 0 0 0 0 0 0 0 0 0 0 0 0 0 0 127 0" result="hardAlpha"/>
<feOffset dy="9.44516"/>
<feGaussianBlur stdDeviation="3.77807"/>
<feColorMatrix type="matrix" values="0 0 0 0 0.109804 0 0 0 0 0.0509804 0 0 0 0 0.247059 0 0 0 0.035 0"/>
<feBlend mode="normal" in2="effect2_dropShadow_3014_1135" result="effect3_dropShadow_3014_1135"/>
<feColorMatrix in="SourceAlpha" type="matrix" values="0 0 0 0 0 0 0 0 0 0 0 0 0 0 0 0 0 0 127 0" result="hardAlpha"/>
<feOffset dy="16.8486"/>
<feGaussianBlur stdDeviation="6.73942"/>
<feColorMatrix type="matrix" values="0 0 0 0 0.109804 0 0 0 0 0.0509804 0 0 0 0 0.247059 0 0 0 0.0417275 0"/>
<feBlend mode="normal" in2="effect3_dropShadow_3014_1135" result="effect4_dropShadow_3014_1135"/>
<feColorMatrix in="SourceAlpha" type="matrix" values="0 0 0 0 0 0 0 0 0 0 0 0 0 0 0 0 0 0 127 0" result="hardAlpha"/>
<feOffset dy="31.5134"/>
<feGaussianBlur stdDeviation="12.6054"/>
<feColorMatrix type="matrix" values="0 0 0 0 0.109804 0 0 0 0 0.0509804 0 0 0 0 0.247059 0 0 0 0.0503198 0"/>
<feBlend mode="normal" in2="effect4_dropShadow_3014_1135" result="effect5_dropShadow_3014_1135"/>
<feColorMatrix in="SourceAlpha" type="matrix" values="0 0 0 0 0 0 0 0 0 0 0 0 0 0 0 0 0 0 127 0" result="hardAlpha"/>
<feOffset dy="75.4313"/>
<feGaussianBlur stdDeviation="30.1725"/>
<feColorMatrix type="matrix" values="0 0 0 0 0.109804 0 0 0 0 0.0509804 0 0 0 0 0.247059 0 0 0 0.07 0"/>
<feBlend mode="normal" in2="effect5_dropShadow_3014_1135" result="effect6_dropShadow_3014_1135"/>
<feBlend mode="normal" in="SourceGraphic" in2="effect6_dropShadow_3014_1135" result="shape"/>
</filter>
<linearGradient id="paint0_linear_3014_1135" x1="357.155" y1="289.975" x2="385.872" y2="318.788" gradientUnits="userSpaceOnUse">
<stop stop-color="#387EB8"/>
<stop offset="1" stop-color="#366994"/>
</linearGradient>
<linearGradient id="paint1_linear_3014_1135" x1="374.827" y1="308.302" x2="405.669" y2="337.85" gradientUnits="userSpaceOnUse">
<stop stop-color="#FFE052"/>
<stop offset="1" stop-color="#FFC331"/>
</linearGradient>
<linearGradient id="paint2_linear_3014_1135" x1="381" y1="149" x2="381" y2="233" gradientUnits="userSpaceOnUse">
<stop stop-color="white" stop-opacity="0"/>
<stop offset="0.598958" stop-color="white"/>
</linearGradient>
<clipPath id="clip0_3014_1135">
<rect width="640" height="95" fill="white" transform="translate(61 275)"/>
</clipPath>
</defs>
</svg>
