<svg width="12" height="12" viewBox="0 0 12 12" fill="none" xmlns="http://www.w3.org/2000/svg"><path d="M10.6871 10.9162c.0334 0 .0659-.0049.096-.0148.0306-.0096.0583-.026.0809-.0478.026-.021.0469-.0471.0613-.0765.0144-.0294.0219-.0614.022-.0938.0016-.032-.0036-.0641-.0154-.0942-.0117-.0301-.0297-.0576-.0528-.081L7.80653 7.32022c.17172-.17296.32414-.35754.45728-.55419.26618-.39286.45064-.83055.54338-1.28938.09556-.47262.09477-.95827-.00235-1.4306-.04847-.23553-.12224-.46571-.22018-.68692-.09785-.22091-.21806-.43225-.35895-.63106-.14303-.20181-.3054-.39062-.48504-.56402-.54078-.51469-1.23001-.86556-1.98062-1.00826-.25134-.0482-.50714-.0723-.76355-.07195-.25922 0-.51374.02368-.76308.0715-.75107.1415-1.44065.49254-1.98062 1.00826-.17987.17349-.3424.36245-.48551.56447-.14103.19889-.26125.41039-.35896.6315-.09774.22109-.17136.45112-.2197.68648-.04909.23881-.07367.48159-.07339.72491 0 .24626.02446.48804.07339.72491.04893.23687.12232.4657.2197.68648.09786.22078.21735.43217.35896.63373.14114.20157.30297.38883.48504.56179.18206.17609.37919.33072.59136.46569.42044.26778.89291.45315 1.38973.54525.68557.12723 1.39438.0799 2.05448-.1372.20432-.06751.40203-.15185.59089-.25207.19112-.10131.3729-.21777.54338-.34815l3.07773 3.18791c.0235.0255.0522.0447.0861.0576.0321.0126.0664.0191.1011.0193ZM4.9965 7.96826c-.44993.00287-.89559-.08296-1.30881-.25207-.39889-.16237-.76163-.39534-1.06888-.68648-.30646-.29188-.5517-.63647-.72262-1.01541-.17801-.39255-.26836-.81592-.26533-1.24334 0-.43843.08844-.85228.26533-1.24111.17009-.37937.41542-.72411.72262-1.01541.30783-.28979.67047-.52179 1.06888-.68379.41319-.16927.85885-.25525 1.30881-.25252.46481 0 .90139.08403 1.30881.25207.3984.16201.76104.394 1.06887.68379.3073.29157.55264.63662.72262 1.01631.17689.38882.26534.80267.26534 1.24111 0 .44156-.08845.85586-.26534 1.24334-.17092.37894-.41615.72353-.72262 1.01541-.30725.29114-.66999.52411-1.06887.68648-.41323.16911-.85889.25494-1.30881.25206v-.00044Z" fill="#1C0D3F" stroke="#1C0D3F"/></svg>