<svg width="20" height="60" viewBox="0 0 20 60" fill="none" xmlns="http://www.w3.org/2000/svg"><path d="M18.5229 18.9997c.0612 0 .1206-.009.1757-.027.056-.0177.1067-.0477.1481-.0876.0477-.0384.0859-.0861.1122-.1399.0264-.0538.0401-.1124.0403-.1718.0029-.0587-.0067-.1173-.0281-.1724-.0215-.0551-.0544-.1055-.0968-.1483l-5.6248-5.836c.3144-.3166.5934-.6545.8371-1.0145.4873-.7192.825-1.52047.9948-2.36042.1749-.86521.1735-1.75427-.0043-2.61896-.0887-.43117-.2238-.85255-.4031-1.25752-.1791-.4044-.3992-.7913-.6571-1.15525-.2619-.36945-.5591-.7151-.888-1.03253-.9899-.94224-2.2517-1.58455-3.62581-1.84579-.46012-.08823-.92841-.132359-1.39781-.13172-.47454 0-.94048.04336-1.39694.1309C5.3334 1.38994 4.071 2.03258 3.0825 2.9767c-.32928.31759-.62683.66352-.88881 1.03335-.25817.36409-.47826.75129-.65713 1.15607-.17893.40474-.3137.82584-.4022 1.2567C1.04449 6.86001.999499 7.30445 1 7.74989c0 .45081.04479.89344.13436 1.32707.08957.43363.22392.85253.4022 1.25674.17914.4041.3979.7911.65713 1.1601.25838.369.55464.7118.88795 1.0285.3333.3223.69416.6054 1.08258.8525.76969.4902 1.63462.8295 2.54412.9982 1.25506.2329 2.55265.1462 3.76106-.2512.374-.1236.736-.278 1.0817-.4615.3499-.1854.6827-.3986.9948-.6373l5.6342 5.836c.0431.0466.0956.0818.1577.1055.0587.0229.1216.0349.1851.0352ZM8.10528 13.6031c-.82366.0052-1.63951-.1519-2.39598-.4615-.73023-.2972-1.39428-.7237-1.95675-1.2567-.56104-.5343-1.00998-1.1652-1.32288-1.8589-.32588-.7186-.49128-1.49365-.48574-2.27611 0-.80262.16191-1.56025.48574-2.27205.31137-.6945.76049-1.3256 1.32288-1.85888.56352-.53051 1.22739-.95521 1.95675-1.2518.75641-.30986 1.57226-.46727 2.39598-.46226.85092 0 1.65015.15382 2.39602.46145.7293.29658 1.3932.72128 1.9567 1.25179.5626.53377 1.0117 1.16544 1.3229 1.86052.3238.7118.4857 1.46942.4857 2.27205 0 .80835-.1619 1.56679-.4857 2.27609-.3129.6938-.7618 1.3246-1.3229 1.8589-.5624.533-1.2265.9595-1.9567 1.2567-.7565.3096-1.57235.4667-2.39602.4615v-.0008Z" stroke="#1C0D3F"/><path d="M18.5229 58.9997c.0612 0 .1206-.009.1757-.027.056-.0177.1067-.0477.1481-.0876.0477-.0384.0859-.0861.1122-.1399.0264-.0538.0401-.1124.0403-.1718.0029-.0587-.0067-.1173-.0281-.1724-.0215-.0551-.0544-.1055-.0968-.1483l-5.6248-5.836c.3144-.3166.5934-.6545.8371-1.0145.4873-.7192.825-1.5205.9948-2.3604.1749-.8652.1735-1.7543-.0043-2.619-.0887-.4311-.2238-.8525-.4031-1.2575-.1791-.4044-.3992-.7913-.6571-1.1553-.2619-.3694-.5591-.7151-.888-1.0325-.9899-.9422-2.2517-1.5845-3.62581-1.8458-.46012-.0882-.92841-.1323-1.39781-.1317-.47454 0-.94048.0434-1.39694.1309-1.37494.259-2.63734.9017-3.62584 1.8458-.32928.3176-.62683.6635-.88881 1.0333-.25817.3641-.47826.7513-.65713 1.1561-.17893.4048-.3137.8259-.4022 1.2567-.08987.4372-.134861.8816-.13436 1.3271 0 .4508.04479.8934.13436 1.3271.08957.4336.22392.8525.4022 1.2567.17914.4041.3979.7911.65713 1.1601.25838.369.55464.7118.88795 1.0285.3333.3223.69416.6054 1.08258.8525.76969.4902 1.63462.8295 2.54412.9982 1.25506.2329 2.55265.1462 3.76106-.2512.374-.1236.736-.278 1.0817-.4615.3499-.1854.6827-.3986.9948-.6373l5.6342 5.836c.0431.0466.0956.0818.1577.1055.0587.0229.1216.0349.1851.0352ZM8.10528 53.6031c-.82366.0052-1.63951-.1519-2.39598-.4615-.73023-.2972-1.39428-.7237-1.95675-1.2567-.56104-.5343-1.00998-1.1652-1.32288-1.8589-.32588-.7186-.49128-1.4936-.48574-2.2761 0-.8026.16191-1.5603.48574-2.2721.31137-.6945.76049-1.3256 1.32288-1.8588.56352-.5306 1.22739-.9553 1.95675-1.2518.75641-.3099 1.57226-.4673 2.39598-.4623.85092 0 1.65015.1538 2.39602.4614.7293.2966 1.3932.7213 1.9567 1.2518.5626.5338 1.0117 1.1655 1.3229 1.8606.3238.7118.4857 1.4694.4857 2.272 0 .8084-.1619 1.5668-.4857 2.2761-.3129.6938-.7618 1.3246-1.3229 1.8589-.5624.533-1.2265.9595-1.9567 1.2567-.7565.3096-1.57235.4667-2.39602.4615v-.0008Z" stroke="#fff"/><path d="M18.5229 38.9997c.0612 0 .1206-.009.1757-.027.056-.0177.1067-.0477.1481-.0876.0477-.0384.0859-.0861.1122-.1399.0264-.0538.0401-.1124.0403-.1718.0029-.0587-.0067-.1173-.0281-.1724-.0215-.0551-.0544-.1055-.0968-.1483l-5.6248-5.836c.3144-.3166.5934-.6545.8371-1.0145.4873-.7192.825-1.5205.9948-2.3604.1749-.8652.1735-1.7543-.0043-2.619-.0887-.4311-.2238-.8525-.4031-1.2575-.1791-.4044-.3992-.7913-.6571-1.1553-.2619-.3694-.5591-.7151-.888-1.0325-.9899-.9422-2.2517-1.5845-3.62581-1.8458-.46012-.0882-.92841-.1323-1.39781-.1317-.47454 0-.94048.0434-1.39694.1309-1.37494.259-2.63734.9017-3.62584 1.8458-.32928.3176-.62683.6635-.88881 1.0333-.25817.3641-.47826.7513-.65713 1.1561-.17893.4048-.3137.8259-.4022 1.2567-.08987.4372-.134861.8816-.13436 1.3271 0 .4508.04479.8934.13436 1.3271.08957.4336.22392.8525.4022 1.2567.17914.4041.3979.7911.65713 1.1601.25838.369.55464.7118.88795 1.0285.3333.3223.69416.6054 1.08258.8525.76969.4902 1.63462.8295 2.54412.9982 1.25506.2329 2.55265.1462 3.76106-.2512.374-.1236.736-.278 1.0817-.4615.3499-.1854.6827-.3986.9948-.6373l5.6342 5.836c.0431.0466.0956.0818.1577.1055.0587.0229.1216.0349.1851.0352ZM8.10528 33.6031c-.82366.0052-1.63951-.1519-2.39598-.4615-.73023-.2972-1.39428-.7237-1.95675-1.2567-.56104-.5343-1.00998-1.1652-1.32288-1.8589-.32588-.7186-.49128-1.4936-.48574-2.2761 0-.8026.16191-1.5603.48574-2.2721.31137-.6945.76049-1.3256 1.32288-1.8588.56352-.5306 1.22739-.9553 1.95675-1.2518.75641-.3099 1.57226-.4673 2.39598-.4623.85092 0 1.65015.1538 2.39602.4614.7293.2966 1.3932.7213 1.9567 1.2518.5626.5338 1.0117 1.1655 1.3229 1.8606.3238.7118.4857 1.4694.4857 2.272 0 .8084-.1619 1.5668-.4857 2.2761-.3129.6938-.7618 1.3246-1.3229 1.8589-.5624.533-1.2265.9595-1.9567 1.2567-.7565.3096-1.57235.4667-2.39602.4615v-.0008Z" stroke="#ED26B7"/></svg>