<svg width="12" height="13" viewBox="0 0 12 13" fill="none" xmlns="http://www.w3.org/2000/svg"><path d="M.343652 11.9549c-.2446609-.2447-.2446534-.6414 0-.886L4.91259 6.49999.343652 1.93108c-.2446609-.24466-.2446609-.64132 0-.88598.244661-.244662.641333-.244662.885988 0l4.56911 4.5691 4.56905-4.5691c.2447-.244662.6414-.244662.8861 0 .2446.24466.2446.64132 0 .88598L6.68492 6.49999l4.56888 4.56891c.2447.2446.2447.6413 0 .886-.2446.2447-.6413.2447-.886 0L5.79875 7.38578 1.22964 11.9549c-.244655.2447-.641327.2447-.885988 0Z" fill="#ED26B7"/></svg>