<svg width="18" height="20" viewBox="0 0 18 20" fill="none" xmlns="http://www.w3.org/2000/svg"><path opacity=".5" d="M17.9984 12.5487c-.0583-2.4886-1.4317-4.464-3.5284-5.23611V2.98124c-.5295-.33853-1.0929-.61841-1.6811-.83358V11.466c0 1.8459-.8561 2.6702-2.2319 2.6702-1.33942 0-2.45983-1.012-2.45983-2.7042 0-1.88882 1.47176-3.04233 3.39893-3.04233.1785-.00326.3602.00606.5388.03395V6.77466c-.1786-.03075-.3571-.0461-.5388-.04287-2.86018 0-5.10143 1.75371-5.10143 4.70381 0 2.8365 2.02268 4.35 4.27643 4.35 1.0683 0 1.9919-.3633 2.6295-.9877.6371-.6245 1.1763-1.526 1.1763-3.1103V9.10636c1.1637.5816 1.8656 1.99034 1.8688 3.60244-.006 3.0363-2.8233 5.6022-6.1267 5.6022-.0769 0-.1356 0-.2125-.0032-2.26594-.0029-4.25785-.8215-5.8713-2.4365-1.16091-1.1628-1.95509-2.6427-2.27527-4.2517-.32015-1.6121-.15703-3.27929.47402-4.79924.62819-1.5167 1.69318-2.81502 3.0601-3.72869C6.76099 2.178 8.36836 1.69184 10.0122 1.69184V0C8.69745 0 7.39527.258447 6.18216.759966 4.96905 1.26151 3.86401 1.99964 2.93423 2.92585 1.05605 4.79928 0 7.34331 0 9.99534 0 12.647 1.05282 15.1914 2.92775 17.0681 4.80268 18.9448 7.34873 20 10.0029 20h.2125c.816 0 1.6288-.1262 2.4108-.3693.0033 0 .0061-.0032.0093-.0032 1.1298-.3507 2.1644-.9476 3.0326-1.7472 1.4993-1.3845 2.3247-3.2147 2.3307-5.1621.0029-.0065-.0004-.1663-.0004-.1695Z" fill="#1C0D3F"/></svg>