<svg width="62" height="20" viewBox="0 0 62 20" fill="none" xmlns="http://www.w3.org/2000/svg">
<path d="M26.7779 19.9317H21.7719L24.903 0.571167H29.9087L26.7779 19.9317Z" fill="#1434CB"/>
<path d="M44.7042 0.824254C43.7168 0.432522 42.1507 0 40.2142 0C35.2706 0 31.7893 2.63619 31.768 6.40515C31.7269 9.18587 34.2605 10.7304 36.1553 11.6575C38.0921 12.605 38.7505 13.2234 38.7505 14.0679C38.7308 15.3649 37.1854 15.9628 35.7442 15.9628C33.7455 15.9628 32.6746 15.6545 31.0472 14.9329L30.388 14.6236L29.6875 18.9696C30.8616 19.5045 33.0248 19.9792 35.2706 20C40.5232 20 43.9429 17.4046 43.9834 13.3882C44.0034 11.1842 42.6656 9.49548 39.7814 8.11552C38.0305 7.22967 36.9582 6.63236 36.9582 5.72598C36.9788 4.902 37.8652 4.05803 39.8416 4.05803C41.469 4.0167 42.6648 4.40788 43.5706 4.79934L44.0234 5.00493L44.7042 0.824254Z" fill="#1434CB"/>
<path d="M51.5794 13.0729C51.9916 11.9607 53.578 7.65603 53.578 7.65603C53.5572 7.69737 53.9894 6.52326 54.2366 5.80248L54.5865 7.4707C54.5865 7.4707 55.5345 12.105 55.7403 13.0729C54.958 13.0729 52.5681 13.0729 51.5794 13.0729ZM57.7587 0.571167H53.8865C52.6924 0.571167 51.7852 0.921016 51.27 2.17752L43.8342 19.9314H49.0869C49.0869 19.9314 49.9517 17.5419 50.1375 17.0272C50.7138 17.0272 55.8236 17.0272 56.5649 17.0272C56.7086 17.707 57.1622 19.9314 57.1622 19.9314H61.7973L57.7587 0.571167Z" fill="#1434CB"/>
<path d="M17.5903 0.571167L12.6877 13.7732L12.152 11.0957C11.2456 8.00615 8.40302 4.64946 5.23083 2.98042L9.72139 19.9112H15.0151L22.8837 0.571167H17.5903Z" fill="#1434CB"/>
<path d="M8.1366 0.571167H0.0823977L0 0.962352C6.28278 2.56898 10.4437 6.44168 12.1533 11.0965L10.4024 2.1986C10.1142 0.962078 9.22831 0.611955 8.1366 0.571167Z" fill="#1434CB"/>
</svg>
