<svg width="1440" height="682" viewBox="0 0 1440 682" fill="none" xmlns="http://www.w3.org/2000/svg">
<g clip-path="url(#clip0_578_3425)">
<g opacity="0.1">
<path d="M1564.93 123.724C1562.55 135.713 1559.94 147.501 1558.02 159.453C1555.78 175.731 1555.62 191.96 1557.56 207.785C1559.23 222.951 1561.84 238.042 1564.22 252.933C1569.59 285.071 1571.68 317.467 1565.2 348.573C1561.54 366.765 1555.44 384.728 1547.04 402.016C1541.22 413.403 1534.51 424.454 1526.97 435.068C1521.19 442.833 1514.87 450.269 1508.07 457.319C1502.92 463.189 1497.31 469.095 1491.72 474.563C1483.69 482.407 1475.21 489.85 1466.71 497.732C1457.73 506.089 1448.3 514.045 1439.75 523.242C1426.56 537.395 1414.48 552.552 1406.73 570.209C1399.82 584.518 1397.06 599.864 1398.75 614.545C1400.51 626.55 1405.93 637.412 1414.4 645.872C1422.42 654.418 1431.14 662.689 1439.16 671.235C1448.52 680.783 1456.06 691.836 1461.5 704.001C1464.05 709.857 1465.97 715.999 1467.23 722.343C1470.19 738.521 1468.07 755.737 1461.12 771.995C1456.37 784.172 1449.49 795.736 1440.77 806.161C1436.24 811.912 1431.33 817.411 1426.08 822.617C1419.28 828.835 1412.06 834.213 1405.06 839.791C1398.55 844.894 1391.82 849.796 1385.51 855.538C1376.55 863.457 1367.56 871.814 1359.05 880.134C1354.81 884.776 1350.94 889.685 1347.46 894.815C1344.26 898.783 1340.82 902.988 1337.62 906.955C1333.91 911.837 1329.96 916.956 1326.03 921.637L1320.14 928.658C1316.71 932.425 1313.06 935.991 1309.86 939.958C1295.6 957.255 1278.85 972.78 1262.57 988.269C1255.23 994.955 1247.56 1001.32 1239.61 1007.34C1235.27 1010.75 1231.16 1014.35 1226.59 1017.55C1220.57 1022.18 1214.3 1027.04 1207.83 1031.27C1194.57 1040.04 1180.59 1047.66 1166.07 1054.01C1145.65 1062.89 1124.03 1068.01 1102.52 1069.08C1085.67 1069.79 1069.2 1067.69 1053.86 1062.86C1042.08 1059.47 1031.71 1053.31 1023.65 1044.92C1016.41 1037.48 1011.6 1028.15 1009.68 1017.83C1005.51 995.871 1009.19 975.476 1015.88 955.499C1020.73 940.938 1027.21 926.724 1035.19 913.11C1041.17 903.484 1047.72 894.137 1054.81 885.12C1062.71 874.194 1071.91 864.072 1082.21 854.987C1087.94 849.88 1093.99 845.095 1100.3 840.666C1107.79 835.224 1115.55 830.161 1123.56 825.501C1142.22 815.2 1162.12 807.511 1182.55 802.709C1198.56 798.824 1214.78 795.578 1230.77 792.131C1243 789.418 1255.01 786.505 1265.08 780.029C1280.4 770.516 1288.67 756.969 1288.09 738.222C1287.97 731.523 1286.35 725.1 1283.31 719.368C1280.19 713.596 1275.72 708.662 1270.2 704.887C1258.55 697.673 1245.35 692.645 1231.23 690.04C1204.25 683.646 1177.01 677.928 1150.39 668.664C1128.73 661.016 1108.24 651.21 1089.22 639.397C1075.07 630.595 1062.09 620.344 1050.48 608.8C1040.68 598.892 1031.79 588.196 1023.91 576.804C1013.4 560.974 1004.7 544.022 997.91 526.188C992.684 512.396 987.925 498.567 983.634 484.701C975.61 460.203 967.099 436.18 956.25 412.341C947.512 393.581 938.081 374.657 930.054 355.622C922.504 337.943 917.064 319.328 913.823 300.084C909.315 275.09 908.753 250.44 906.339 225.499C905.338 211.592 902.153 198.151 896.886 185.598C892.851 176.438 886.783 168.371 879.043 161.874C869.514 154.259 858.179 148.758 845.73 145.708C829.268 141.711 812.192 139.397 794.776 138.801C784.547 138.296 774.075 138.03 763.827 137.964C739.835 137.89 716.066 138.016 692.298 138.143C679.245 138.298 665.968 138.253 653.158 138.171C627.538 138.007 601.918 137.842 576.318 137.239C546.304 136.328 516.347 134.102 486.558 133.392C460.447 132.699 433.905 135.454 407.692 141.58C384.406 147.077 361.545 155.041 339.569 165.311C328.315 170.344 317.682 176.774 307.989 184.41C302.208 188.734 296.711 193.403 291.541 198.382C283.853 206.438 277.41 215.425 272.448 225.02C259.995 248.948 254.909 274.917 254.198 302.072C253.367 319.792 255.848 337.125 261.53 353.285C265.805 364.719 272.566 374.955 281.425 383.403C292.743 393.614 306.002 401.794 320.679 407.623C338.758 415.157 356.631 422.052 374.971 428.909C396.752 437.025 419.018 444.666 440.012 454.81C450.236 459.683 459.886 465.429 468.855 471.985C487.845 485.347 500.362 502.935 509.755 522.736C520.736 546.118 529.726 570.464 536.651 595.571C541.937 613.264 545.898 631.423 548.507 649.925C556.997 736.095 454.895 927.176 477.906 1100.18M1507.52 72.3105C1505.95 81.8318 1504.39 90.9148 1503.05 100.198C1500.31 120.52 1497.34 140.64 1495.29 161.126C1493.41 180.385 1494.06 199.492 1497.25 218.008C1500.19 236.133 1503.6 254.221 1506.07 272.382C1510.24 299.807 1509.53 326.961 1501.19 352.75C1496.78 366.647 1490.14 380.075 1481.53 392.544C1475.42 401.703 1468.25 410.268 1460.16 418.05C1457.24 420.903 1455.23 424.121 1452.09 426.772C1443.84 434.416 1435.36 441.859 1426.64 449.54C1419.87 455.319 1412.85 461.336 1406.3 467.316C1396.36 476.186 1386.65 485.256 1376.92 494.765C1370.58 501.384 1364.91 508.606 1359.01 515.627C1354.09 521.697 1348.94 527.567 1344.26 533.399C1340.07 538.756 1336.1 544.314 1332.15 549.433C1328.95 553.401 1326.2 557.77 1322.77 561.536C1316.01 569.687 1308.74 577.486 1301.03 584.887C1277.73 606.392 1248.98 619.368 1214.2 621.02C1192.7 622.053 1171.7 619.183 1152.36 612.566C1138.77 608.137 1126.24 601.682 1115.21 593.425C1109.32 589.432 1103.75 585.054 1098.54 580.317C1086.47 568.66 1076.53 555.157 1069.06 540.247C1057.24 517.359 1052 493.078 1046.76 468.797C1041.53 444.516 1036.79 419.321 1025.46 395.958C1020.55 385.637 1014.95 375.152 1009.32 365.106C998.509 345.854 987.209 327.078 978.995 306.965C972.824 292.281 968.495 276.792 966.086 260.781C963.779 244.136 962.426 226.978 960.119 210.333C958.017 194.327 956.139 178.522 949.605 162.648C944.775 150.457 937.245 139.619 927.462 130.779C917.679 121.94 905.843 115.28 892.66 111.195C881.484 107.803 869.9 105.354 858.032 103.875C847.062 102.267 835.89 101.396 824.597 101.267C809.001 100.967 793.835 101.508 778.22 101.647C772.629 101.651 767.261 101.856 761.913 101.622C728.851 101.171 695.77 101.158 662.745 99.8292C635.917 98.9779 609.409 96.3959 583.405 92.1014C553.805 87.0061 524.225 81.4726 494.85 76.5781C467.601 71.9855 438.906 72.983 410.621 79.5068C388.962 84.7117 367.694 91.634 346.895 98.5195C322.317 106.577 297.982 114.397 273.852 122.856C264.053 126.183 254.663 130.829 245.998 136.636C233.18 145.303 223.489 157.599 218.633 171.356C211.579 190.296 206.754 209.665 204.25 229.091C200.023 256.741 195.796 284.39 192.261 312.204C190.117 329.419 188.664 346.798 187.904 364.34C187.15 379.926 189.741 395.106 195.522 408.976C198.999 417.1 203.952 424.461 210.186 430.765C222.395 443.005 237.775 452.104 255.161 457.375C278.12 465.179 301.097 472.545 324.299 480.112C347.034 487.709 368.546 497.659 388.478 509.796C402.594 518.8 415.417 529.367 426.717 541.308C440.269 555.332 451.343 571.387 459.596 588.977C467.574 604.997 473.708 621.938 477.906 639.543C485.59 753.902 378.395 942.066 404.152 1069.08M1543.38 104.876C1537.02 129.085 1533.46 153.551 1532.76 177.829C1532.55 194.525 1533.94 211.017 1536.92 227.108C1539.73 242.839 1541.61 258.644 1544.2 274.175C1547.23 293.896 1547.36 314.244 1544.6 334.676C1541.9 356.015 1534.73 377.16 1523.5 396.874C1517.98 406.051 1512.46 415.228 1506.49 424.003C1502.27 429.798 1497.17 434.791 1492.51 440.185C1488.84 444.189 1485.15 448.632 1481.26 452.436C1475.66 457.903 1469.84 463.17 1463.8 468.236C1457.74 473.74 1451.21 479.282 1444.7 484.384C1432.07 494.556 1420.15 505.503 1409.03 517.137C1402.93 523.518 1397.5 530.502 1391.85 537.286C1378.09 553.668 1367.96 572.387 1357.16 590.503C1351.86 599.881 1346.34 609.058 1340.12 618.071C1330.47 632.647 1315.63 643.837 1298.7 649.311C1281.62 654.407 1264.17 657.328 1246.83 657.991C1222.49 659.405 1198.49 657.546 1175.55 652.469C1147.66 647.086 1121.79 636.593 1099.31 621.55C1092.98 617.242 1086.64 612.934 1080.57 607.95C1074.3 603.022 1068.38 597.725 1062.85 592.084C1055.67 583.848 1049.05 575.177 1043.01 566.113C1031.2 548.042 1022.27 528.239 1016.44 507.239L999.424 448.266C993.223 427.623 985.124 407.721 975.211 388.768C966.415 371.323 957.171 353.478 949.311 335.959C940.999 317.46 935.51 297.682 932.989 277.15C930.963 259.391 929.404 241.593 927.602 224.034C926.603 210.655 924.366 197.526 920.917 184.789C916.62 170.01 908.105 157.044 896.221 147.183C890.026 142.165 882.881 138.228 875.06 135.521C858.653 129.162 840.831 125.687 822.388 125.253C808.905 124.568 795.666 123.646 782.388 123.6C760.733 123.342 739.04 123.96 717.366 124.14C711.307 124.181 704.781 124.259 698.498 124.099C688.25 124.033 678.002 123.967 667.998 123.664C653.093 123.528 637.945 123.63 622.836 122.855C600.751 121.756 578.462 120.018 556.396 118.481C539.679 117.177 522.981 115.435 506.244 114.57C492.538 113.684 478.831 112.798 465.086 112.79C445.628 112.88 425.951 115.313 406.529 120.031C393.343 123.256 380.381 126.683 367.381 130.986C343.386 138.339 320.096 148.399 298.056 160.93C285.609 168.286 274.398 177.534 264.956 188.235C255.297 199.836 248.068 212.907 243.723 226.624C237.287 245.382 232.868 264.479 230.536 283.608C228.584 299.906 227.568 316.181 227.492 332.363C227.471 346.019 229.399 359.389 233.224 372.121C236.878 384.239 243.773 394.95 253.305 403.316C265.621 414.26 280.254 422.733 296.486 428.319C312.751 434.685 329.278 440.374 345.562 446.302C365.72 453.236 385.283 461.325 404.152 470.527C416.838 476.738 428.835 483.977 440.024 492.173C449.977 499.799 459.117 508.289 467.346 517.552C483.322 535.96 493.836 556.765 502.928 578.12C512.746 601.009 519.746 625.15 523.803 650.119C533.811 719.368 423.292 973.634 459.596 1081.42M1522.75 86.4065C1519.33 106.125 1516.16 125.606 1512.97 145.526C1509.64 168.822 1509.58 192.047 1512.77 214.598C1514.85 231.043 1518.56 247.577 1521.11 263.984C1525.15 289.015 1526.65 313.591 1522.11 337.77C1516.26 368.009 1501.41 397.102 1479.34 421.563C1471.05 430.085 1463.22 438.569 1454.48 446.688C1448.16 452.869 1441.4 458.209 1434.63 463.989C1428.34 469.292 1422.08 474.157 1416.24 479.863C1405.57 489.445 1395.13 499.229 1385.15 508.975C1379.63 514.873 1374.46 521.047 1369.68 527.46C1364.02 534.244 1358.6 541.228 1353.17 548.212C1348.71 554.245 1344.24 560.717 1339.56 566.55C1334.88 572.382 1330.65 578.616 1325.75 584.248C1320.11 590.592 1314.01 596.974 1307.93 602.917C1296.17 613.862 1282.04 622.189 1266.81 627.14C1245.75 634.702 1222.82 636.947 1199.58 635.721C1176.54 634.395 1154.51 629.021 1134.57 619.87C1122.89 614.519 1111.86 608.15 1101.61 600.835C1081.52 585.939 1065.46 566.898 1054.41 544.898C1043.24 523.052 1037.46 500.562 1031.92 477.835C1027.56 460.259 1023.2 442.683 1018.12 425.382C1012.47 408.025 1005 391.419 995.81 375.787C985.874 357.777 975.451 340.243 967.647 321.409C960.103 303.947 954.961 285.422 952.333 266.235C950.604 252.386 949.342 238.499 947.856 224.412C945.997 208.168 944.606 191.888 939.718 175.665C936.179 163.561 929.927 152.584 921.349 143.413C912.77 134.242 902.048 127.071 889.843 122.344C874.375 116.594 857.809 113.115 840.668 112.018C830.439 111.514 820.248 110.132 810 110.066C789.28 109.734 768.523 110.279 748.008 110.586L730.299 110.672C698.639 110.11 667.428 109.949 635.807 108.51C603.403 106.928 571.346 103.62 539.786 98.6014C513.627 94.7645 487.692 91.1283 461.605 91.0008C443.65 90.9757 425.481 93.0693 407.518 97.2337C396.222 99.873 385.13 103.152 374.038 106.431C349.321 113.836 324.906 122.548 300.92 132.522C288.922 137.382 277.342 143.349 266.367 150.326C258.041 156.084 250.649 163.023 244.511 170.844C228.751 190.444 222.601 214.094 217.834 238.071C214.026 256.073 211.152 274 208.97 292.092C206.712 311.938 204.678 331.985 204.272 352.122C203.602 366.764 205.908 381.044 211.068 394.2C214.078 401.938 218.406 409.041 223.9 415.259C234.98 428.372 250.01 436.364 266.051 442.529C287.607 450.444 309.425 457.683 331.001 465.16C352.377 472.355 372.872 481.263 392.282 491.795C403.153 498.105 413.509 505.097 423.292 512.732C440.742 526.68 455.35 543.453 466.567 562.421C482.165 588.207 492.886 616.731 498.318 646.893C502.928 743.362 408.395 936.676 426.717 1081.42M172.264 -274.723C177.088 -273.136 182.155 -271.788 186.978 -270.201C200.047 -265.332 212.872 -260.224 225.94 -255.355C245.666 -248.049 264.38 -238.917 281.836 -228.077C291.817 -221.871 301.312 -215.19 310.564 -208.271C333.61 -191.732 352.989 -171.189 374.799 -153.023C397.956 -133.652 423.716 -120.605 453.859 -117.301C471.941 -115.231 489.913 -115.992 506.467 -121.669C514.12 -123.962 521.357 -127.74 527.68 -132.739C533.501 -137.518 539.015 -142.625 544.185 -148.027C549.86 -154.513 554.919 -161.426 559.291 -168.668C570.804 -187.059 581.869 -205.852 593.383 -224.242C598.813 -231.873 604.655 -239.265 610.884 -246.383C613.368 -249.856 616.245 -253.09 619.455 -256.019C631.543 -266.151 644.303 -275.68 661.211 -278.762C669.653 -280.331 678.119 -279.948 685.857 -277.647C691.058 -276.011 695.659 -273.253 699.328 -269.574C702.996 -265.895 705.64 -261.386 707.067 -256.374C710.348 -245.962 710.256 -234.506 706.801 -223.355C702.1 -205.788 693.929 -188.82 682.736 -173.379C676.462 -164.291 669.543 -155.565 662.035 -147.271C651.517 -135.733 640.327 -124.798 629.136 -113.862C623.055 -107.919 616.076 -102.78 609.77 -97.0376C604.634 -92.8579 599.7 -88.457 594.987 -83.8523C583.009 -70.8882 573.762 -56.3909 573.187 -37.7703C572.484 -21.5434 578.14 -6.91083 590.38 6.32833C603.012 19.25 618.675 29.2455 636.4 35.6966C660.442 45.3824 685.404 49.9694 710.89 53.2038C737.761 56.7661 764.783 56.82 791.543 57.5501C815.516 58.0629 839.079 57.2966 863.034 58.2479C886.348 58.7153 909.03 62.4489 930.348 69.3282C945.269 74.3786 959.013 81.6189 971.119 90.8066C990.071 105.046 1001.62 123.584 1009.34 144.173C1016.25 162.203 1019.17 180.767 1022.32 199.531C1026.17 223.484 1030.48 247.838 1040.9 270.837C1047.42 284.854 1055.09 298.272 1063.85 310.984C1075.23 328.007 1087.78 344.717 1097.25 362.764C1106.04 379.548 1112.23 397.655 1115.65 416.602C1119 436.005 1121.89 455.445 1125.71 474.812C1128.2 488.382 1133.07 501.208 1140.14 512.791C1150.8 530.088 1166.37 541.753 1187.41 545.557C1199.88 548.096 1213.36 546.803 1226.01 541.857C1236.95 537.856 1247.1 531.678 1255.68 523.782C1259.09 520.454 1263.17 517.729 1266.1 514.437C1272.22 507.617 1278.12 500.596 1284.01 493.575C1289.91 486.554 1295.58 479.332 1301.25 472.11C1305.45 466.753 1309.19 460.995 1313.14 455.876C1316.36 451.469 1320.27 447.227 1323.71 443.022C1328.15 437.427 1332.83 431.595 1337.49 426.201C1340.43 422.91 1343.12 419.857 1346.06 416.565C1350.95 411.372 1355.81 406.618 1360.47 401.224C1367.08 393.928 1373.46 386.432 1379.62 378.734C1386.67 370.319 1393.19 361.557 1399.16 352.499C1404.1 344.581 1408.13 336.273 1411.18 327.731C1417.21 310.241 1419.73 292.238 1418.61 274.697C1417.87 259.458 1416.89 244.457 1416.15 229.217C1414.96 206.56 1415.88 183.603 1418.89 160.601C1421.6 141.156 1425.02 121.437 1427.03 101.829C1429.61 74.5271 1431.5 47.0613 1433.39 19.5957C1433.56 15.6487 1433.97 11.4639 1434.15 7.51682M182.028 -285.12C193.264 -280.98 204.744 -277.077 215.98 -272.938C243.743 -263.108 271.225 -252.164 296.647 -236.687C307.321 -230.317 317.732 -223.271 328.144 -216.225C336.966 -210.146 345.302 -203.592 353.881 -197.276C371.263 -184.443 388.646 -171.609 408.499 -162.03C429.96 -151.922 452.136 -147.553 474.859 -150.438C488.916 -152.274 502.66 -157.584 514.664 -165.815C524.244 -172.732 532.969 -180.693 540.618 -189.497C547.707 -197.703 554.302 -206.251 560.365 -215.094L575.977 -236.649C579.702 -241.969 583.427 -247.288 587.377 -252.408C588.855 -254.273 590.577 -256.375 592.056 -258.24C598.819 -265.968 606.064 -273.329 613.745 -280.275C625.402 -290.807 639.376 -298.679 654.341 -303.145C672.036 -308.255 690.269 -309.694 709.001 -301.119C716.309 -297.892 722.499 -293.004 727.084 -286.843C731.669 -280.681 734.523 -273.413 735.419 -265.615C737.726 -248.97 734.032 -233.6 728.953 -218.558C724.052 -204.293 717.59 -190.376 709.681 -177.046C702.398 -164.889 694.199 -153.097 686.243 -141.543C681.507 -134.395 676.323 -127.648 671.138 -120.902C667.188 -115.783 662.809 -111.504 658.86 -106.385C653.694 -100.077 648.51 -93.3304 643.568 -86.8217C638.121 -79.399 632.431 -71.7386 627.432 -63.9143C620.474 -53.3127 616.795 -41.3838 616.861 -29.6451C617.05 -17.6705 621.297 -6.53218 628.994 2.17805C639.421 14.249 653.086 21.4754 667.5 27.55C687.413 35.2718 708.654 40.3553 730.678 42.6711C753.352 45.2455 776.311 46.6443 799.455 46.8614C823.896 47.3374 848.376 46.9362 872.798 47.8507C896.228 48.4624 918.988 52.4128 940.317 59.5703C958.47 66.2524 975.038 75.7106 989.424 87.6028C997.726 95.1817 1005.01 103.692 1011.15 112.986C1022.46 131.585 1030.29 152.137 1034.38 173.874C1037.84 190.646 1041.09 207.217 1044.79 223.752C1050.39 247.816 1060.27 270.362 1074.05 290.5C1085.47 306.645 1096.88 322.79 1107.81 339.411C1117.92 354.251 1125.9 370.426 1131.58 387.58C1136.87 405.125 1140.84 423.137 1143.46 441.495C1145.49 456.86 1149.46 471.727 1155.28 485.798C1158.57 493.315 1163.23 500.109 1169.09 505.907C1176.13 512.954 1185.62 517.476 1196.25 518.843C1210.24 520.156 1224.91 516.091 1237.04 507.539C1246.35 500.832 1254.89 493.187 1262.49 484.771C1268.37 478.106 1273.88 471.178 1279 464.02C1283.44 458.426 1288.1 453.031 1292.31 447.236C1296.52 441.44 1300.97 435.407 1305.65 429.575C1309.1 425.37 1312.78 420.926 1316.23 416.721C1321.39 410.413 1326.32 404.343 1331.71 398.236C1333.91 395.658 1335.88 393.318 1338.09 390.74C1345.97 380.94 1354.07 371.341 1361.95 361.541C1370.04 351.376 1376.78 340.41 1382 328.928C1390.28 309.724 1394.48 289.613 1394.35 269.824C1394.89 246.617 1394.27 223.283 1395.73 200.441C1396.84 180.029 1399.81 159.908 1402.54 140.025C1406.84 110.621 1411.59 81.6188 1413.13 51.5587C1414.23 31.5856 1415.33 11.6125 1416.67 -8.59837M191.761 -294.629C203.464 -290.526 215.412 -286.66 226.872 -282.32C249.068 -274.707 270.695 -265.983 291.67 -256.181C306.943 -248.425 321.71 -239.757 335.991 -230.612C354.795 -218.328 373.355 -205.806 392.441 -194.636C412.199 -182.864 433.774 -175.388 456.851 -175.678C472.2 -175.663 487.78 -179.932 501.647 -187.953C515.023 -195.564 525.279 -206.426 535.758 -217.086C541.153 -223.281 546.179 -229.734 550.807 -236.411C554.757 -241.531 559.174 -246.687 563.123 -251.806C567.072 -256.925 571.284 -262.721 575.233 -267.84C576.914 -270.246 578.725 -272.579 580.661 -274.825C588.483 -283.583 596.78 -291.972 605.513 -299.949C620.861 -313.183 639.351 -322.519 658.866 -326.885C680.018 -332.124 701.568 -331.149 720.482 -324.097C730.067 -320.772 738.385 -315.239 744.752 -307.953C751.119 -300.667 755.353 -291.836 757.106 -282.186C760.329 -265.177 757.307 -249.204 752.677 -233.76C747.836 -216.7 740.853 -200.004 731.885 -184.043C725.05 -171.484 717.768 -159.327 710.485 -147.171C703.726 -136.367 696.5 -125.525 689.518 -114.922C681.786 -103.167 674.054 -91.4123 666.547 -79.4565C659.083 -68.0271 653.95 -55.5863 651.449 -42.8629C649.037 -29.6752 651.883 -16.7265 659.428 -6.5602C665.96 2.03628 674.659 8.89248 684.883 13.5035C703.592 22.4074 724.118 28.1701 745.648 30.5636C776.445 34.9089 806.739 34.7043 837.24 35.1394C863.538 35.0347 889.552 36.8553 915.049 40.5843C939.219 44.2453 961.81 52.4083 981.569 64.6205C1011.32 83.6204 1032.75 111.741 1042.85 145.014C1048.56 163.795 1052.85 183.124 1057.38 202.216C1062.79 227.601 1072.52 251.534 1086.22 273.15C1094.74 286.246 1104.68 298.792 1114.15 311.376C1120.52 320.27 1127.38 328.688 1133.51 337.821C1141.53 349.879 1148.46 362.631 1154.22 375.96C1160.95 393.037 1166.49 410.627 1170.81 428.629C1173.12 439.562 1176.81 450.05 1181.8 459.886C1187.22 469.293 1194.58 476.798 1207.13 477.557C1214.66 478.22 1222.55 476.198 1229.27 471.876C1239.04 466.307 1247.58 458.826 1254.21 450.022C1257.15 446.314 1260.34 442.777 1263.76 439.435C1269.15 433.328 1273.85 427.057 1279.24 420.95L1285.86 413.216C1291.25 407.109 1297.11 400.965 1302.28 394.657C1307.18 389.026 1311.39 383.23 1316.29 377.598C1320.47 372.68 1325.11 367.725 1329.06 362.606C1334.24 355.859 1339.45 348.674 1344.18 341.526C1353.76 326.727 1360.75 310.802 1364.86 294.44C1368.11 279.965 1370.06 265.408 1370.71 250.928C1372.35 223.7 1373.55 196.071 1377.98 169.06C1381.83 144.718 1386.6 120.74 1389.98 96.435C1393.67 70.5761 1394.81 44.2619 1396.17 18.1488C1396.78 4.11477 1398.32 -9.99268 1399.16 -23.8259M145.049 -248.982C152.826 -245.662 160.603 -242.342 168.399 -239.46C190.107 -231.142 210.788 -221.002 230.22 -209.152C238.073 -204.331 245.394 -198.841 252.107 -192.741C263.526 -182.059 273.747 -170.628 279.422 -156.434C286.987 -140.245 286.994 -121.072 279.441 -103.113C272.974 -89.3593 265.141 -76.0773 256.056 -63.4624C240.924 -41.649 229.866 -17.8878 223.431 6.63795C219.802 20.7929 218.163 35.1075 218.558 49.1991C218.917 55.564 220.054 61.7792 221.948 67.7254C223.36 72.5091 226.069 76.736 229.831 80.0252C233.593 83.3144 238.289 85.5627 243.497 86.5677C252.839 88.5797 262.629 89.2071 272.537 88.429C294.25 86.5084 315.961 82.0804 337.176 75.2449C355.132 69.4579 372.435 62.6294 390.615 57.0432C409.507 51.1824 428.623 45.5227 449.362 45.4166C468.781 45.6339 487.72 48.4812 505.607 53.873C524.959 58.9026 544.048 64.6085 563.38 70.0766C586.976 76.51 611.316 81.0935 636.172 83.7841C651.935 85.6002 668.185 86.941 683.986 87.8799C703.977 88.9255 723.967 89.9711 743.995 90.1395C766.585 90.3244 788.95 90.3081 811.335 89.8536C834.216 89.2498 856.849 90.6101 878.954 93.9172C896.161 96.4552 912.34 101.991 926.704 110.256C938.687 117.34 948.733 126.801 956.25 138.083C965.39 152.219 971.338 168.215 973.776 185.214C976.235 198.35 977.068 211.397 978.816 224.808C980.941 246.343 985.335 267.368 991.938 287.585C996.824 301.241 1002.96 314.352 1010.27 326.786C1020.02 343.718 1030.48 360.375 1039.77 377.344C1049.61 395.541 1056.67 415.191 1060.76 435.784C1064.98 456.868 1068.72 477.989 1073.4 499.036C1077.53 518.059 1085.53 535.735 1097 551.152C1101.41 556.988 1106.22 562.519 1111.42 567.715C1118.07 574.874 1125.98 580.884 1134.88 585.533C1142.76 589.977 1151.09 593.777 1159.78 596.899C1172.74 601.248 1186.67 603.4 1200.98 603.265C1220.65 603.446 1240.67 598.542 1258.9 589.081C1267.21 584.977 1274.97 579.798 1281.93 573.715C1288.64 568.06 1295.05 562.083 1301.11 555.812C1308.69 547.566 1315.58 539.155 1322.24 530.544C1329.64 521.219 1336.58 511.493 1344.2 502.37C1349.61 495.824 1355.24 489.479 1361.1 483.335C1373.3 470.572 1385.73 458.01 1398.38 445.648C1412.47 432.299 1427.25 419.113 1441.34 405.764C1450.41 396.613 1458.29 386.511 1464.77 375.725C1471.43 365.27 1476.47 354.114 1479.72 342.641C1483.27 330.488 1485.06 318.138 1485.04 305.945C1485.04 284.529 1481.53 263.17 1477.81 241.611C1471.97 211.083 1470.83 179.395 1474.43 147.47C1477.31 124.079 1480.64 101.089 1483.51 77.6978C1484.55 69.9676 1485.12 62.2744 1485.91 54.782M155.27 -258.971C177.48 -250.014 199.466 -241.259 221.413 -231.626C235.889 -225.227 249.443 -217.363 261.865 -208.156C272.014 -200.434 280.946 -191.523 290.122 -182.85C297.631 -175.4 304.071 -167.033 309.31 -157.921C316.919 -146.003 321.793 -132.51 323.663 -118.188C325.196 -104.627 321.441 -90.3869 313.069 -78.0163C306.835 -68.5648 299.461 -59.6789 292.311 -50.5921C281.922 -36.6607 272.674 -22.1638 267.968 -4.96562C265.537 3.73217 265.312 12.595 267.314 20.8729C270.895 35.0136 279.885 42.6088 295.386 45.1012C306.296 46.5793 317.741 45.602 328.824 42.2453C347.435 37.4993 364.103 29.1914 381.014 20.6459C396.017 13.125 410.553 5.64098 427.703 2.32135C442.325 -0.195814 456.934 0.678937 470.226 4.86752C487.483 9.84374 502.942 18.6766 518.683 26.3948C535.564 34.6787 552.425 43.4012 569.85 49.8939C601.297 61.5175 634.713 69.09 669.283 72.4267C682.504 73.7877 695.5 74.9479 708.982 75.6326C723.624 76.4445 738.266 77.2562 753.17 77.3918C772.263 77.634 791.395 76.9995 810.507 76.8031C840.091 76.8734 869.918 76.7057 899.666 83.7562C914.465 87.0852 928.301 92.7078 940.646 100.41C956.396 110.425 968.829 124.218 976.878 140.603C983.831 155.572 988.541 171.584 990.889 188.231C994.37 210.028 997.365 232.3 1001.31 254.061C1005.43 273.749 1012.71 292.393 1022.91 309.394C1032.66 326.326 1043.12 342.984 1053.58 359.641C1066.76 381.094 1075.8 404.891 1080.35 430.083C1084.36 450.527 1087.43 471.046 1091.66 491.691C1095.16 508.523 1101.89 524.267 1111.54 538.2C1131.08 565.723 1157.91 581.09 1192.3 583.185C1208.82 584.267 1225.91 581.186 1241.84 574.251C1250.04 571.017 1257.73 566.487 1264.55 560.877C1272.07 555.072 1279.19 548.813 1285.87 542.15C1292.2 535.465 1298.18 528.5 1303.78 521.288C1308.7 515.218 1313.85 509.349 1318.53 503.516C1323.2 497.684 1327.19 491.688 1331.87 485.855C1335.33 481.211 1339.25 476.969 1342.93 472.526C1365.5 446.27 1391.89 423.429 1416.27 398.341C1430 384.612 1441.32 368.996 1449.72 352.214C1458.2 333.286 1462.17 313.315 1461.34 293.823C1460.48 275.542 1458.46 257.458 1455.3 239.667C1450.86 211.791 1450.22 183.065 1453.41 154.151C1456.22 132.514 1459.02 110.876 1461.59 89.0382C1463.49 72.0613 1464.48 54.7197 1465.91 37.7796C1465.93 37.341 1466.19 36.6647 1466.21 36.2261M201.7 -303.489C203.084 -303.161 204.486 -303.272 205.87 -302.944C221.5 -298.058 237.131 -293.172 252.498 -287.61C275.887 -278.965 299.275 -270.32 321.09 -257.618C339.951 -246.649 358.793 -235.242 377.654 -224.274C394.926 -214.272 412.929 -204.984 432.786 -200.868C456.102 -195.933 476.749 -199.31 495.607 -209.757C509.207 -217.168 519.462 -228.029 529.942 -238.69C536.386 -245.906 542.465 -253.387 548.154 -261.105C553.582 -268.089 558.318 -275.238 563.746 -282.222C567.938 -287.579 572.58 -292.534 576.754 -297.452C582.125 -303.121 587.047 -309.191 592.623 -314.22C605.796 -326.279 621.332 -335.719 638.085 -341.845C659.717 -349.569 682.361 -352.554 704.16 -350.553C720.443 -349.605 735.899 -345.389 749.519 -338.178C757.712 -333.856 764.609 -327.816 769.753 -320.461C774.897 -313.106 778.169 -304.602 779.353 -295.514C781.468 -281.195 780.504 -266.27 776.518 -251.584C771.866 -232.263 764.702 -213.27 755.197 -195.05C743.755 -172.95 732.09 -151.051 719.508 -129.516C708.667 -110.523 696.91 -91.8944 688.125 -71.9706C682.785 -60.9481 680.199 -49.2022 680.584 -37.7214C681.14 -27.4181 685.03 -17.9015 691.748 -10.4116C703.314 2.22501 718.401 8.90242 734.275 13.5507C751.483 18.6561 769.601 21.56 788.182 22.1916C803.759 22.9297 819.093 23.9057 834.67 24.6438C844.431 25.185 854.249 24.4104 864.011 24.9516C887.722 26.1407 911.658 27.5307 935.179 33.1054C956.52 37.7757 976.473 45.7969 994.256 56.855C1003.68 62.6327 1012.36 69.3397 1020.18 76.8815C1033.61 90.0057 1044.5 105.294 1052.46 122.194C1062.71 143.675 1068.05 165.764 1074.3 188.217C1077.91 201.48 1082.49 214.232 1086.82 227.22C1092.74 242.882 1100.88 257.515 1111.02 270.766C1118.72 281.304 1127.15 291.129 1135.33 301.192C1151.47 321.116 1167.62 341.04 1181.37 362.464C1187.92 372.437 1194.95 382.372 1201.97 392.308C1212.53 406.772 1225.88 410.527 1241.31 403.846C1249.19 400.149 1256.56 395.364 1263.12 389.669C1269.31 384.939 1275.21 379.874 1280.79 374.508C1289.81 365.274 1297.91 355.675 1306.48 346.039C1314.44 337.106 1321.14 327.307 1326.38 316.935C1333.53 303.814 1338.68 290.004 1341.67 275.956C1347.69 249.912 1348.87 222.721 1353.28 196.149C1357.7 169.577 1362.56 143.407 1367.2 117.036C1372 90.2779 1375.02 63.4712 1376.27 36.7743C1377.35 11.7761 1377.72 -12.9472 1380.88 -37.4535C1380.9 -37.8921 1381.16 -38.5684 1381.18 -39.007M215.112 -317.45C230.742 -312.564 246.372 -307.678 262.227 -302.591C285.542 -295.594 307.987 -286.768 329.344 -276.198C344.392 -268.644 358.935 -260.176 373.497 -252.146C390.564 -242.784 407.875 -233.66 427.245 -229.069C445.232 -224.806 462.512 -225.732 478.412 -232.45C489.511 -237.283 499.664 -244.196 508.179 -252.717C517.373 -261.762 525.75 -271.495 533.201 -281.789C540.146 -291.515 547.091 -301.241 554.484 -310.566C560.489 -318.177 566.873 -325.537 573.612 -332.617C578.54 -338.062 583.823 -343.225 589.424 -348.069C599.055 -355.744 609.801 -361.985 621.209 -366.529C641.504 -373.851 662.589 -377.809 683.453 -378.213C706.35 -379.28 728.915 -377.459 750.547 -372.797C763.232 -370.159 775.018 -365.314 785.338 -358.496C796.307 -350.865 803.982 -339.846 807.27 -327.009C811.653 -309.872 809.528 -293.096 806.487 -276.685C802.771 -258.358 796.906 -240.228 789.002 -222.639C778.1 -196.866 765.142 -172.024 751.96 -147.383C743.59 -131.644 735.443 -115.704 727.989 -99.6006C721.547 -86.9139 717.195 -73.5853 715.096 -60.1215C713.278 -49.1084 715.086 -38.2588 720.273 -29.0615C723.612 -23.3187 728.136 -18.3412 733.615 -14.3793C751.035 -2.42292 770.406 2.16812 790.563 4.73023C804.232 6.49295 818.182 7.14059 831.889 8.02619C844.437 8.7847 857.003 9.10484 869.327 9.66251C894.044 10.4784 918.392 13.2356 942.122 17.9063C965.617 22.8157 987.659 31.3301 1007.42 43.1312C1013.56 46.7997 1019.2 50.9439 1024.85 55.0878C1029.54 58.3061 1033.9 61.9079 1037.89 65.8593C1052.01 79.2704 1063.88 94.6529 1073.18 111.59C1084.86 132.522 1091.59 154.5 1099.02 176.641C1105.83 196.865 1113.35 216.813 1125.59 235.516C1131.61 244.97 1138.38 253.929 1145.86 262.327C1151.88 268.626 1157.88 275.365 1163.89 281.665C1173.72 291.379 1183.8 300.855 1194.36 309.856C1203.21 317.786 1213.87 323.778 1225.74 327.485C1232.09 329.367 1239.01 329.746 1245.94 328.591C1252.87 327.437 1259.62 324.782 1265.63 320.843C1273.06 316.369 1279.65 310.649 1285 304.018C1290.4 297.226 1295.15 290.045 1299.21 282.573C1305.57 270.848 1310.33 258.566 1313.37 246.053C1316.71 233.552 1319.13 220.687 1322.02 207.784C1326.11 188.668 1329.98 169.35 1334.29 150.435C1342.56 115.472 1349.92 80.1458 1351.5 43.7449C1352.67 22.0176 1353.15 0.126136 1354.55 -21.4004C1355.35 -34.3565 1357.3 -47.1854 1359.03 -60.2153M162.807 -266.338C180.437 -259.206 198.086 -252.513 215.715 -245.38C234.23 -237.82 251.911 -228.84 268.6 -218.52C282.604 -209.854 295.436 -199.735 306.897 -188.324C314.484 -180.618 321.36 -172.638 328.46 -164.457C345.968 -143.766 358.949 -120.751 374.549 -99.0358C383.799 -85.2807 398.152 -75.4772 415.277 -71.2172C430.029 -67.5731 445.006 -63.728 459.983 -59.8831C476.767 -55.4563 491.486 -46.8279 502.695 -34.8432C511.385 -25.6947 518.615 -15.1196 527.304 -5.97104C535.483 2.26516 544.167 10.0417 553.319 17.3269C563.474 25.3099 574.66 32.1205 586.685 37.6406C598.031 43.2409 609.99 47.8541 622.431 51.4296C644.447 57.7473 667.251 62.1638 690.585 64.6289C699.86 65.6456 709.134 66.662 718.428 67.2401C731.443 67.9617 744.682 68.8842 757.735 68.7287C778.698 68.8234 799.924 68.242 820.887 68.3367C847.891 68.829 875.156 68.6451 902.623 74.5642C920.415 78.0064 936.954 84.6306 951.399 94.0998C967.336 104.664 980.027 118.835 988.509 135.535C996.007 151.876 1001.12 169.317 1003.73 187.437C1006.66 206 1009.11 224.6 1012.74 242.889C1016.61 262.742 1023.72 281.556 1033.86 298.698C1044.71 317.073 1056.98 334.899 1068.08 353.036C1081.94 375.237 1091.35 399.992 1095.89 426.236C1099.26 445.201 1101.92 464.44 1105.76 483.368C1108.8 500.536 1115.47 516.561 1125.38 530.553C1144.98 556.761 1170.97 570.009 1203.9 568.067C1221.57 567.074 1239.15 560.786 1254.07 550.123C1263.57 543.831 1272.27 536.455 1279.94 528.195C1286.79 520.662 1292.97 512.526 1299.37 504.591C1305.29 497.131 1311.18 490.111 1317.1 482.651C1321.78 476.819 1326.25 470.347 1330.93 464.514C1335.25 459.018 1339.83 453.697 1344.67 448.57C1357.35 435.332 1369.8 422.331 1382.49 409.092C1388.34 402.948 1394.18 397.243 1399.82 390.898C1405.71 383.877 1411.38 376.655 1417.3 369.196C1423.9 360.779 1429.31 351.671 1433.38 342.14C1440.56 325.549 1444.02 308.132 1443.51 291.078C1443.13 278.434 1442.3 265.387 1440.98 252.817C1440.28 242.164 1438.17 231.622 1437.47 220.969C1435.65 196.724 1436.41 172.072 1439.73 147.364C1444.39 115.091 1448.8 83.0553 1450.92 50.3269C1451.54 41.3179 1452.19 31.8705 1452.59 22.6606M1583.63 134.463C1579.3 151.629 1577.3 168.975 1577.67 186.071C1578.09 201.825 1579.68 217.399 1582.41 232.682C1585.98 252.095 1588.32 271.831 1589.4 291.79C1589.95 311.982 1587.89 332.469 1583.26 352.808C1579.2 370.377 1573.13 387.711 1565.18 404.496C1559.4 417.013 1552.16 429.027 1543.59 440.29L1543.57 440.313C1537.66 447.765 1531.75 455.217 1525.62 462.468C1521.2 467.624 1516.1 472.617 1511.21 477.81C1499.03 490.134 1486.38 502.495 1474.42 515.021C1468.8 520.927 1464.09 527.637 1458.45 533.981C1451.93 541.832 1446.61 550.433 1442.67 559.484C1435.46 575.35 1434.72 592.454 1441.65 610.045C1446.35 620.586 1452.5 630.377 1459.95 639.196C1472.96 656.309 1485.25 673.696 1492.55 693.444C1498.75 709.566 1500.93 727.221 1498.92 745.17C1497.35 758.033 1494.69 770.886 1490.97 783.603C1486.64 797.494 1481.84 811.422 1477.27 825.55L1465.07 865.193C1463.12 873.844 1459.34 882.247 1453.98 889.887C1451.12 893.135 1447.47 895.691 1443.41 897.277C1434.34 901.355 1425.08 904.932 1415.69 907.987C1397.22 913.785 1379.38 921.884 1362.69 932.053C1353.36 937.816 1343.78 943.816 1334.89 949.981C1326.71 955.87 1318.99 962.162 1311.03 968.252C1301.4 975.568 1292 982.647 1282.59 990.164C1277.06 994.315 1271.95 999.308 1266.17 1003.7C1259.9 1008.56 1253.42 1013.22 1246.93 1017.88L1246.91 1017.89C1241.86 1021.57 1237.28 1025.21 1232 1028.68C1224.1 1034.63 1215.92 1040.24 1207.51 1045.47C1194.6 1053.05 1181.49 1059.98 1167.92 1066.52C1142.39 1078.28 1115.23 1085.4 1088.04 1087.46C1072.37 1088.91 1056.49 1089.73 1040.82 1091.18C1031.46 1091.45 987.257 1079.4 952.623 1081.42C894.318 1084.82 812.944 1131.82 812.944 1131.82M1595.84 151.866C1592.49 173.268 1592.51 194.625 1595.89 215.236C1598.76 235.115 1601.62 254.994 1603.31 275.184C1604.81 296.611 1603.23 318.486 1598.63 340.24C1595.24 357.623 1590.37 374.892 1584.04 391.871C1577.57 409.675 1568.76 426.897 1557.82 443.109C1550.88 452.835 1543.24 462.397 1535.85 471.722C1530.93 477.792 1525.56 483.46 1520.41 489.329C1513.3 497.539 1505.72 505.786 1498.83 514.196C1489.49 524.735 1481.69 536.321 1475.67 548.584C1467.19 566.955 1467.05 586.415 1475.97 606.253C1482.36 620.173 1489.45 633.818 1496.31 647.7C1506.06 665.7 1512.83 685.258 1516.39 705.776C1519.09 725.342 1519 745.478 1516.12 765.674C1514.18 783.528 1511.31 801.456 1513.07 819.892C1514.24 834.384 1519.7 847.791 1528.87 858.638C1533.92 864.308 1539.63 869.421 1545.91 873.902C1552.68 879.05 1559.93 883.723 1567.18 888.395M1629.67 183.074C1630.22 191.771 1630.78 200.469 1632.27 209.093C1634.76 226.816 1638.66 244.428 1640.46 261.987C1642.86 281.903 1639.68 301.384 1635.84 320.263C1632.65 334.719 1628.99 349.212 1624.89 363.304C1618.85 386.054 1610.47 408.459 1599.86 430.183C1594.33 441.776 1587.43 452.882 1579.32 463.271C1572.17 472.358 1565.26 481.207 1557.89 490.093C1552.48 496.639 1547.09 502.745 1541.9 509.492C1531.89 521.114 1523.43 533.762 1516.74 547.097C1508.5 565.23 1507.2 584.564 1513.32 604.623C1517.01 616.132 1521.4 627.806 1525.56 639.278C1533.91 661.785 1541.56 684.127 1544.05 707.314C1545.69 723.845 1546.05 740.613 1545.13 757.49C1544.77 771.287 1544.4 785.083 1545.44 798.768C1546.55 816.014 1552.34 832.17 1562.28 845.736C1569.08 854.885 1577 863.197 1585.9 870.534M41.5006 -166.313C54.162 -141.306 64.2235 -115.439 68.4123 -88.4523C70.4016 -73.7081 71.465 -58.7614 71.5973 -43.6861C72.0533 -27.3321 70.8826 -11.0682 74.1249 5.50308C76.0654 17.9555 81.9857 29.123 91.1388 37.5967C98.8349 44.5595 109.02 48.7323 120.209 49.5079C128.826 50.5766 137.962 48.5328 145.852 43.7704C153.509 38.9027 159.543 31.9728 163.014 24.0599C168.895 12.0138 174.326 -0.434178 179.515 -12.6442C187.52 -31.812 197.057 -50.5397 208.035 -68.6528C217.565 -84.2647 227.991 -99.0731 235.24 -115.816C241.009 -127.727 243.278 -140.516 241.789 -152.724C240.299 -164.933 235.111 -176.069 226.817 -184.864C222.991 -189.351 218.899 -193.623 214.558 -197.665C204.104 -207.307 192.06 -215.332 178.782 -221.504C161.21 -229.951 143.113 -237.047 125.278 -244.818C124.586 -244.982 123.651 -244.909 122.959 -245.073M220.756 -340.636C226.066 -339.525 231.152 -338.615 236.443 -337.066C257.384 -331.069 278.568 -325.309 299.47 -318.435C318.102 -311.863 336.056 -304.005 353.199 -294.92C369.388 -286.8 385.333 -278.443 402.066 -272.114C418.798 -265.785 436.413 -263.678 452.967 -269.354C460.936 -271.699 468.401 -275.818 474.687 -281.338C478.877 -284.525 482.775 -288.053 486.326 -291.872C492.769 -299.451 498.716 -307.367 504.126 -315.566C516.174 -334.505 526.027 -354.42 533.49 -374.92C536.586 -382.343 538.642 -390.003 539.602 -397.692C540.693 -406.738 537.257 -413.46 526.188 -416.083C513.736 -419.035 501.264 -421.548 489.017 -423.86C471.106 -426.678 454.005 -431.874 438.2 -439.3C429.007 -443.573 420.764 -449.264 413.77 -456.167C405.09 -464.607 398.049 -474.449 392.902 -485.334C390.587 -491.052 388.272 -496.77 385.977 -502.926M52.9349 -177.485C61.5976 -156.971 70.7279 -136.493 79.1473 -115.741C85.0224 -100.364 89.5505 -84.428 92.6906 -68.0765C94.5721 -57.7354 96.4535 -47.3943 98.5783 -37.2909C99.8007 -29.0962 102.708 -21.3905 107.146 -14.5835C112.415 -7.13186 119.256 -3.73814 129.919 -7.85716C136.251 -10.8733 141.72 -15.4867 145.636 -21.1162C154.022 -31.8302 161.267 -43.1097 168.979 -54.4262C173.696 -61.1357 178.433 -68.2838 182.926 -75.1941C190.152 -86.0352 197.602 -96.6754 204.136 -107.68C212.068 -120.162 216.456 -134.037 216.824 -147.799C216.753 -160.434 212.46 -172.241 204.543 -181.577C193.727 -194.31 180.291 -204.8 164.882 -212.539C148.932 -220.914 132.092 -227.919 114.536 -233.481C113.506 -233.757 112.397 -233.819 111.282 -233.661M236.088 -355.608C237.583 -355.632 239.06 -355.529 240.502 -355.301C263.575 -350.128 286.871 -344.754 309.944 -339.581C328.339 -334.829 346.071 -328.552 362.947 -320.816C374.837 -315.635 386.952 -310.252 399.328 -305.547C411.704 -300.841 424.906 -299.042 437.624 -302.23C442.557 -303.31 447.323 -305.326 451.617 -308.148C455.911 -310.97 459.639 -314.537 462.563 -318.621C467.901 -325.357 471.375 -333.104 472.621 -341.049C473.525 -346.39 473.254 -351.712 471.825 -356.678C470.396 -361.644 467.841 -366.144 464.32 -369.896C458.341 -377.073 450.134 -381.233 442.19 -386.07C432.657 -391.874 422.617 -396.764 413.084 -402.568C403.996 -408.275 395.769 -415.031 388.563 -422.706C377.131 -435.601 367.882 -450.17 361.085 -465.993C359.816 -468.952 359.257 -472.186 358.212 -474.945M619.711 -224.815C616.697 -219.77 613.682 -214.725 611.136 -209.716C608.055 -204.289 606.585 -198.336 606.898 -192.554C607.058 -189.408 607.963 -186.421 609.547 -183.804C610.814 -182.268 612.574 -181.166 614.617 -180.63C616.659 -180.093 618.898 -180.145 621.065 -180.778C624.803 -181.596 628.389 -183.228 631.521 -185.537C643.704 -194.136 652.362 -206.52 655.613 -219.999C656.876 -224.732 656.512 -229.534 654.575 -233.684C653.448 -235.605 651.742 -237.132 649.642 -238.103C647.086 -239.238 644.152 -239.633 641.171 -239.243C638.19 -238.854 635.28 -237.695 632.772 -235.898C628.431 -232.496 624.295 -228.455 620.179 -224.852M88.9453 -196.711C84.6196 -188.284 86.7823 -179.058 89.4127 -169.868C94.0786 -153.827 101.273 -138.792 110.775 -125.224C114.397 -119.309 119.325 -114.276 125.276 -110.415C129.214 -107.753 134.103 -106.435 139.253 -106.645C144.403 -106.855 149.555 -108.584 153.982 -111.587C164.212 -119.044 171.372 -129.664 173.9 -141.131C175.529 -147.602 175.545 -154.156 173.948 -160.258C172.35 -166.36 169.183 -171.837 164.705 -176.245C157.519 -184.594 148.44 -191.293 138.001 -195.948C127.562 -200.603 115.972 -203.121 103.91 -203.355C101.301 -203.603 98.577 -203.136 96.0542 -202.009C93.5315 -200.882 91.3133 -199.14 89.6563 -196.986M1069.14 882.016C1067.4 884.557 1065.41 887.336 1063.67 889.877C1058.94 897.026 1053.06 903.608 1049.22 911.56C1044.22 921.514 1039.96 931.71 1036.48 942.066C1032.25 955.321 1031.26 968.942 1033.59 981.848C1035.82 995.935 1043.06 1008.35 1054.2 1017.16C1063.15 1024.32 1074.02 1029.22 1085.96 1031.48C1104.9 1034.88 1125.13 1033.13 1144.42 1026.43C1160.82 1020.86 1176.45 1012.83 1190.64 1002.68C1199.06 996.55 1207.04 990.021 1215.01 983.491C1219.01 980.433 1222.81 977.14 1226.38 973.634C1233.23 966.101 1239.86 958.367 1246.48 950.633C1256.1 939.062 1263.88 926.352 1269.55 912.974C1275.61 899.051 1277.62 884.293 1275.36 870.339C1274.17 863.217 1271.36 856.597 1267.11 850.91C1262.86 845.222 1257.27 840.592 1250.7 837.319C1238.63 831.135 1225.11 827.379 1210.87 826.256C1189.01 823.762 1166.2 826.084 1144.18 833.046C1129.7 837.5 1115.85 844.213 1103.25 852.883C1090.3 861.334 1080.29 871.958 1069.59 882.418M515.158 252.41C511.224 262.555 515.896 267.649 524.289 272.888C539.261 282.196 555.75 288.763 571.734 296.243C587.717 303.724 602.766 311.278 618.507 318.996C637.201 328.448 655.408 338.376 674.588 347.353C686.684 353.173 699.622 355.649 712.155 351.382C719.794 348.825 726.493 343.776 730.94 337.225C734.376 332.693 737.39 327.919 739.945 322.966C747.396 308.791 751.482 293.591 751.888 278.536C752.217 269.655 750.693 261.016 747.399 253.103C742.088 241.075 732.187 231.724 719.423 226.682C706.764 221.646 693.034 218.741 678.793 218.086C644.404 215.991 611.582 220.766 579.131 227.696C562.153 230.953 545.412 236.164 529.302 243.209C524.291 245.277 519.7 248.328 515.869 252.135M872.615 1056.82C911.23 1032.35 948.219 1037.64 966.503 986.911C978.035 952 994.558 918.182 1015.59 886.448C1020.06 879.976 1024.53 873.504 1029.46 867.434C1035.86 859.499 1042.71 851.966 1049.33 844.231C1053.25 839.289 1057.66 834.691 1062.51 830.517C1070.5 823.55 1079.63 817.147 1087.84 810.381C1099.14 801.607 1111.18 793.779 1123.8 787.002C1131.45 782.465 1139.52 779.207 1147.39 774.871C1160.51 767.936 1173.6 761.439 1186.04 753.902C1194.18 748.889 1200.75 742.471 1201.65 732.347C1202.2 725.676 1200.06 719.368 1195.66 714.681C1188.8 706.262 1179.21 701.774 1169.87 697.048C1151.4 687.797 1132.65 679.66 1113.93 670.647C1096.35 662.526 1079.7 652.948 1064.16 642.012C1056.92 636.901 1049.71 631.351 1042.72 626.002C1037.76 622.022 1032.34 618.079 1027.65 613.423C1014.95 601.085 1003.68 587.486 994.002 572.808C986.361 560.954 979.675 548.588 973.457 536.185C961.449 512.22 953.463 486.844 943.344 462.292C934.29 440.061 924.058 418.141 914.069 395.983C901.745 368.545 891.068 340.76 886.02 312.093C882.892 294.795 880.775 277.236 879.68 259.49C879.201 249.038 878.722 238.586 877.776 228.171C876.783 214.122 873.605 200.535 868.341 187.831C862.464 174.549 851.997 163.899 838.442 157.41C824.776 150.775 809.652 146.641 793.775 145.199C767.372 141.599 741.023 142.148 714.955 141.582C699.359 141.283 683.725 141.86 668.11 141.999C651.092 142.249 633.851 142.298 616.59 142.786C575.317 143.637 533.691 141.894 492.251 141.23C468.313 140.429 444.033 142.052 419.821 146.069C393.086 150.495 366.755 158.919 341.859 171.012C331.783 175.689 322.276 181.588 313.609 188.538C309.736 191.903 305.19 194.665 301.541 198.231C285.782 213.74 274.806 232.808 270.048 252.944C267.154 264.758 265.776 276.683 265.946 288.452C266.225 302.112 268.712 315.398 273.324 327.861C277.02 337.416 282.558 346.076 289.688 353.45C303.273 367.894 320.602 376.58 338.662 384.552C360.769 393.756 383.515 401.809 406.808 408.679C419.671 412.909 432.777 416.901 445.864 421.332C460.085 425.905 473.427 432.192 485.59 440.052C499.245 449.32 509.821 461.921 516.383 476.74C524.692 494.66 529.018 513.113 533.811 531.528C539.778 555.096 545.503 578.902 550.76 602.744C553.463 615.643 555.23 628.616 556.997 641.588C562.487 682.791 557.085 724.519 546.775 764.554C523.819 835.534 487.972 988.269 502.928 1039.68C523.511 1110.42 527.916 1134.47 594.895 1165.18C700.725 1213.69 774.272 1119.12 872.615 1056.82ZM735.065 1087.46C735.065 1087.46 596.201 1160.31 542.738 1081.42C473.73 979.594 573.596 826.256 585.082 697.724C587.343 672.415 585.192 646.798 581.881 621.053C579.053 600.297 574.842 579.213 572.482 558.421C569.883 534.936 568.657 511.179 568.81 487.25C569.176 473.433 567.81 459.825 564.743 446.705C561.288 432.864 553.672 420.681 542.738 411.509C536.728 406.612 530.121 402.374 523.018 398.86C510.796 393.091 497.681 388.842 483.962 386.206C456.719 380.488 429.233 375.007 402.028 368.412C378.888 362.865 357.524 353.3 338.953 340.17C326.301 331.645 316.483 320.036 310.365 306.368C305.611 295.666 303.503 283.834 304.18 271.672C304.543 260.898 307.315 250.032 312.318 239.779C317.666 228.682 325.797 218.711 335.939 210.818C342.431 206.154 348.943 201.051 355.884 196.789C377.174 183.964 401.509 176.144 426.87 171.521C456.944 165.653 487.707 165.411 518.937 165.133C526.174 164.781 533.373 165.306 540.611 164.953C561.593 164.609 582.351 164.064 603.109 163.52C616.872 163.09 630.637 162.66 644.625 162.431C665.383 161.886 686.141 161.341 707.104 161.436C721.784 161.371 736.874 162.584 751.74 163.597C769.711 164.337 787.093 167.759 803.253 173.738C810.886 176.752 817.991 180.667 824.414 185.399C831.132 190.745 836.323 197.572 839.622 205.397C845.112 218.075 848.217 231.784 848.813 245.975C849.999 261.616 850.007 277.568 850.949 293.447C851.633 304.538 853.009 315.793 854.161 326.847C857.735 361.217 867.324 394.113 882.555 424.259C889.652 437.903 896.505 451.786 903.358 465.668C911.725 482.273 919.848 499.114 928.438 515.919C936.189 530.605 943.92 545.73 952.138 560.379C960.56 575.631 970.375 590.058 981.486 603.519C988.594 612.173 996.248 620.396 1004.41 628.152C1016.68 640.121 1029.81 651.273 1043.74 661.546C1049.63 665.452 1054.78 670.071 1060.43 674.215C1067.64 679.765 1075.59 684.602 1082.56 690.389C1089.53 696.177 1096.01 702.44 1102.26 708.94C1112.51 719.495 1114.58 730.914 1109.15 743.362C1105.03 752.428 1098.44 759.285 1091.84 766.581C1086.69 772.45 1079.95 777.352 1074.36 782.82C1061.69 795.62 1048.78 808.658 1036.11 821.458C1033.68 823.835 1031.45 826.852 1029 829.668C1023.34 836.451 1018.16 843.197 1012.73 850.181C1008.78 855.301 1004.36 860.457 1000.64 865.777C992.684 877.331 984.708 889.324 976.753 900.878C966.307 916.125 956.086 931.573 945.416 946.619C897.857 1013.06 803.768 1046.58 735.065 1087.46ZM886.791 950.148C898.434 942.253 910.062 932.955 919.891 922.843C934.651 906.542 949.075 889.94 961.703 871.905C966.402 865.634 971.1 859.363 975.574 852.891C978.793 848.485 981.789 843.878 985.008 839.472C989.706 833.201 994.405 826.93 998.879 820.458C1004.33 813.035 1009.55 805.412 1015.01 797.55C1020.48 789.689 1026.15 782.467 1031.15 774.643C1037.65 764.515 1043.45 754.223 1045.39 741.833C1046.82 728.711 1043.23 716.125 1035.27 706.354C1029.57 698.501 1023.02 691.262 1015.71 684.733C1007.19 677.101 998.686 669.03 990.407 661.16C982.128 653.291 973.868 644.982 966.319 636.399C950.01 618.498 935.345 599.272 922.451 578.889C911.112 560.99 900.26 542.615 888.454 524.752C877.096 507.292 864.784 490.343 853.183 473.12C843.787 458.782 834.371 444.883 826.153 430.234C818.414 415.906 813.276 400.236 810.926 383.795C807.482 361.121 809.144 338.918 809.87 316.789C810.311 301.238 810.284 285.725 810.725 270.174C811.032 256.109 808.791 242.395 804.096 229.613C799.959 218.645 792.447 209.391 782.422 202.913C769.749 194.297 755.689 190.817 741.591 188.214C720.334 184.243 698.368 182.604 676.105 183.327C649.288 183.913 622.19 185.613 595.578 186.838C571.061 188.117 547.011 189.358 522.718 190.837C500.395 191.721 477.991 193.708 455.598 196.787C438.035 199.18 420.626 204.015 403.955 211.132C392.111 216.282 381.347 223.784 372.486 233.064C360.695 247.106 355.111 263.062 363.831 282.261C366.865 288.605 371.021 294.325 376.142 299.209C386.808 308.753 399.522 316.123 413.641 320.946C434.729 328.898 456.27 331.787 477.773 335.555C494.657 338.375 511.542 341.195 528.37 345.331C546.96 349.838 564.39 357.004 580.099 366.6C593.696 374.665 604.902 385.633 612.952 398.756C620.081 410.808 623.719 424.702 623.546 439.223C622.655 454.643 620.19 470.133 616.183 485.477C611.268 507.5 606.821 529.485 607.683 552.582C608.269 571.329 609.546 590.241 610.823 609.152C611.674 621.76 613.441 634.732 614.293 647.34C616.216 672.265 614.721 697.716 609.845 723.085C604.907 747.077 556.997 938.084 568.81 1003.7C593.977 1143.49 739.699 1045.56 886.791 950.148ZM839.88 925.006C860.262 914.622 879.997 903.561 897.372 888.565C910.584 878.006 921.183 865.512 932.012 852.615C944.031 837.907 954.475 822.209 963.163 805.796C971.008 791.41 978.181 776.421 980.53 759.846C982.585 743.951 979.346 728.467 971.267 715.559C964.577 704.979 956.99 694.986 948.567 685.662C935.487 670.304 922.408 654.945 910.301 638.636C897.317 621.085 885.997 602.748 873.499 584.721C862.334 567.264 849.988 550.579 836.526 534.753C829.855 527.412 823.651 520.034 816.737 512.93C810.271 506.229 803.824 499.088 796.629 493.1C786.395 484.014 775.563 475.53 764.183 467.688C755.57 461.421 745.687 456.731 734.963 453.821C730.028 452.648 724.747 452.53 719.48 453.473C714.212 454.417 709.083 456.4 704.44 459.288C695.348 464.813 688.947 472.748 682.302 480.92C672.656 493.338 664.921 506.846 659.367 520.973C652.62 538.101 649.011 555.844 648.708 573.388C648.286 588.5 649.248 603.94 649.742 619.416C650.772 644.029 652.493 668.806 650.27 693.239C648.814 709.811 645.913 726.413 641.595 742.874C634.276 768.154 599.895 885.12 599.895 953.676C599.895 1048.06 723.165 987.104 839.88 925.006ZM862.128 863.38C872.272 856.605 881.425 848.511 889.26 839.386C897.412 830.078 904.143 819.819 909.217 808.966C915.33 796.37 918.309 782.947 917.903 769.819C917.343 757.682 913.863 746.159 907.716 736.095C900.767 724.405 893.332 713.19 885.654 702.214C873.829 684.79 862.958 666.854 853.265 648.606C842.04 628.075 831.302 607.069 817.477 587.399C810.847 578.339 803.512 569.791 795.522 561.814C787.603 553.952 778.685 547.035 768.926 541.184C758.476 535.015 747.221 531.314 735.065 532.273C727.127 532.742 719.283 535.926 713.011 541.224C699.707 552.545 694.162 567.624 691.345 584.236C689.212 598.501 688.595 612.752 689.501 626.777C690.136 655.136 690.77 683.495 686.543 711.145C683.32 730.149 678.606 749.075 672.441 767.765C588.14 1031.98 687.075 974.894 862.128 863.38ZM1092.35 894.608C1089.88 897.863 1087.65 900.879 1085.18 904.134C1079.04 911.86 1074.26 920.372 1071.04 929.288C1066.71 940.386 1065.17 951.974 1066.55 963.077C1067.86 973.649 1072.65 983.183 1080.27 990.404C1087.49 997.098 1096.82 1001.51 1107.21 1003.14C1122.85 1005.51 1139.51 1003.04 1154.81 996.107C1165.87 991.504 1176.24 985.215 1185.44 977.519C1192.31 971.708 1198.88 965.572 1205.1 959.141C1215.44 948.134 1223.04 935.228 1227.23 921.556C1231.75 908.257 1230.76 894.461 1224.47 883.094C1219.5 874.311 1211.47 867.599 1201.54 863.923C1182.16 856.305 1159.42 856.532 1138.15 864.553C1127.68 868.212 1117.75 873.507 1108.81 880.197C1103.03 884.587 1098.15 889.78 1092.35 894.608ZM1109.47 913.147C1107.38 916.203 1105.46 919.346 1103.71 922.562C1098.1 931.945 1096.15 942.529 1098.23 952.277C1099.46 958.409 1102.65 963.829 1107.42 967.85C1112.18 971.871 1118.29 974.311 1124.97 974.862C1137.08 976.08 1149.8 972.809 1160.55 965.718C1166.38 962.37 1171.74 958.262 1176.45 953.537C1185.49 943.864 1192.72 933.023 1193.57 918.752C1193.94 914.278 1193.29 909.9 1191.65 905.918C1190.02 901.936 1187.44 898.444 1184.08 895.679C1179.55 891.749 1173.77 889.252 1167.39 888.474C1150.69 886.731 1135.84 890.744 1123.77 900.437C1118.94 904.314 1114.32 908.831 1109.47 913.147Z" stroke="url(#paint0_linear_578_3425)" stroke-linecap="round" stroke-linejoin="round"/>
</g>
</g>
<defs>
<linearGradient id="paint0_linear_578_3425" x1="948.921" y1="710.676" x2="911.511" y2="883.581" gradientUnits="userSpaceOnUse">
<stop stop-color="#DFE4E8"/>
<stop offset="1" stop-color="#DFE4E8" stop-opacity="0"/>
</linearGradient>
<clipPath id="clip0_578_3425">
<rect width="1440" height="682" fill="white"/>
</clipPath>
</defs>
</svg>
