<svg width="914" height="594" viewBox="0 0 914 594" fill="none" xmlns="http://www.w3.org/2000/svg">
<g filter="url(#filter0_dddddd_1414_890)">
<rect x="759.812" width="117.498" height="117.494" fill="white"/>
</g>
<g filter="url(#filter1_dddddd_1414_890)">
<rect x="407.406" y="0.991699" width="117.498" height="116.502" fill="white"/>
</g>
<g filter="url(#filter2_dddddd_1414_890)">
<rect x="172.411" y="234.991" width="117.498" height="117.494" fill="white"/>
</g>
<g filter="url(#filter3_dddddd_1414_890)">
<rect x="642.315" y="117.494" width="117.498" height="117.494" fill="white"/>
</g>
<g filter="url(#filter4_dddddd_1414_890)">
<rect x="55" y="118.489" width="117.498" height="117.494" fill="white"/>
</g>
<path d="M157.937 166.114H143.954C143.235 166.114 142.875 166.528 142.875 167.264V169.471C142.875 170.207 143.28 170.575 143.954 170.575H148.585V187.132C148.585 187.914 148.99 188.282 149.709 188.282H152.227C152.946 188.282 153.351 187.868 153.351 187.132V170.575H157.937C158.656 170.575 159.061 170.161 159.061 169.471V167.264C159.061 166.482 158.656 166.114 157.937 166.114ZM137.346 166.114H125.926C125.207 166.114 124.802 166.528 124.802 167.264V187.132C124.802 187.914 125.207 188.282 125.926 188.282H128.444C129.163 188.282 129.568 187.868 129.568 187.132V180.003H135.817C136.536 180.003 136.941 179.589 136.941 178.853V176.6C136.941 175.864 136.536 175.496 135.817 175.496H129.568V170.621H137.346C138.065 170.621 138.47 170.207 138.47 169.517V167.264C138.47 166.482 138.065 166.114 137.346 166.114ZM114.551 188.282H117.069C117.789 188.282 118.193 187.868 118.193 187.132V167.264C118.193 166.482 117.789 166.114 117.069 166.114H114.551C113.832 166.114 113.428 166.528 113.428 167.264V187.132C113.428 187.914 113.832 188.282 114.551 188.282ZM105.919 166.114H103.357C102.637 166.114 102.278 166.528 102.278 167.264V174.852H95.534V167.264C95.534 166.482 95.1293 166.114 94.41 166.114H91.8474C91.128 166.114 90.7234 166.528 90.7234 167.264V187.132C90.7234 187.914 91.128 188.282 91.8474 188.282H94.365C95.0844 188.282 95.489 187.868 95.489 187.132V179.359H102.233V187.132C102.233 187.914 102.637 188.282 103.312 188.282H105.874C106.594 188.282 106.953 187.868 106.953 187.132V167.264C106.998 166.482 106.639 166.114 105.919 166.114ZM77.2807 188.696C82.2712 188.696 85.5531 186.074 85.5531 181.889C85.5531 173.702 74.1336 175.818 74.1336 171.817C74.1336 170.483 75.4374 169.701 77.056 169.701C78.5845 169.701 79.6636 170.345 80.0682 171.633C80.248 172.139 80.4728 172.461 81.1472 172.461H83.9796C84.6989 172.461 85.1485 172.047 85.0586 171.311C84.5191 167.678 81.6417 165.7 77.1009 165.7C72.3802 165.7 69.0533 168.138 69.0533 172.277C69.0533 180.279 80.4728 178.394 80.4728 182.441C80.4728 183.82 79.0341 184.74 77.2358 184.74C75.5274 184.74 74.3584 184.05 73.9988 182.533C73.8189 181.935 73.5941 181.613 72.9198 181.613H70.0424C69.2781 181.613 68.8735 182.027 68.9184 182.809C69.4579 186.534 72.5601 188.696 77.2807 188.696Z" fill="#5134C9"/>
<g clip-path="url(#clip0_1414_890)">
<path d="M671.302 184.873C663.97 184.873 659.037 181.363 658.107 175.485L658 174.813C657.963 174.575 658.031 174.332 658.187 174.149C658.343 173.966 658.57 173.861 658.81 173.861H661.648C662.081 173.861 662.454 174.165 662.544 174.591L662.625 174.96C663.354 178.41 666.42 180.307 671.252 180.307C673.829 180.307 676.131 179.5 677.409 178.145C678.036 177.462 678.348 176.545 678.269 175.619C678.219 173.985 677.577 172.193 670.573 171.168L670.435 171.147C665.847 170.475 659.563 169.526 659.442 163.222C659.442 157.62 664.991 154.698 670.486 154.698C676.844 154.698 681.024 157.674 682.272 163.074L682.392 163.588C682.468 163.886 682.4 164.203 682.209 164.443C682.017 164.683 681.724 164.819 681.418 164.809H678.845C678.357 164.802 677.931 164.474 677.797 164.002L677.731 163.8C676.834 160.774 674.404 159.264 670.509 159.264C668.09 159.264 666.045 159.937 664.897 161.144C664.353 161.673 664.045 162.4 664.04 163.161C664.067 164.772 665.151 165.693 671.242 166.568C676.837 167.432 682.583 169.15 682.877 175.398C682.97 177.608 682.192 179.765 680.712 181.403C678.611 183.609 675.184 184.873 671.302 184.873Z" fill="#B0008E"/>
<path d="M736.366 157.208V173.156C736.373 175.256 735.546 177.269 734.073 178.734C732.599 180.2 730.607 180.993 728.551 180.932C724.391 180.782 721.386 177.617 721.386 173.299V157.181C721.386 156.645 720.96 156.21 720.435 156.21H717.784C717.259 156.21 716.833 156.645 716.833 157.181V173.197C716.833 179.91 722.064 185.464 728.637 185.591C731.429 185.697 734.167 184.79 736.366 183.031V185.417C736.366 190.061 733.465 193.063 728.975 193.063C726.869 193.116 724.845 192.23 723.429 190.637C723.217 190.395 722.913 190.257 722.595 190.259H718.986C718.747 190.261 718.526 190.389 718.4 190.596C718.274 190.803 718.261 191.062 718.365 191.281C720.345 195.224 724.287 197.698 728.978 197.698C736.039 197.698 740.973 192.641 740.973 185.403V157.208C740.973 156.655 740.534 156.207 739.992 156.207H737.351C736.809 156.207 736.369 156.655 736.369 157.208" fill="#B0008E"/>
<path d="M662.271 190.154H662.011C661.874 190.156 661.764 190.26 661.762 190.39V194.444C661.764 194.574 661.874 194.678 662.011 194.68H662.267C662.404 194.678 662.514 194.574 662.516 194.444V190.39C662.514 190.26 662.404 190.156 662.267 190.154" fill="#B0008E"/>
<path d="M669.069 190.213H668.851C668.718 190.213 668.611 190.316 668.611 190.443V193.3L665.985 190.154H665.773C665.643 190.154 665.537 190.253 665.533 190.377V194.388C665.535 194.514 665.641 194.616 665.773 194.618H665.988C666.052 194.618 666.113 194.593 666.158 194.55C666.202 194.507 666.228 194.449 666.228 194.388V191.475L668.895 194.68H669.066C669.129 194.681 669.19 194.657 669.235 194.615C669.28 194.572 669.305 194.514 669.305 194.453V190.443C669.304 190.317 669.197 190.215 669.066 190.213" fill="#B0008E"/>
<path d="M673.864 192.062C673.314 191.844 673.087 191.633 673.087 191.329C673.087 191.128 673.244 190.791 673.833 190.791C674.108 190.81 674.374 190.9 674.599 191.052C674.661 191.094 674.74 191.109 674.814 191.092C674.888 191.075 674.951 191.027 674.986 190.963L675.062 190.847C675.109 190.783 675.125 190.702 675.104 190.626C675.087 190.566 675.045 190.515 674.989 190.484C674.646 190.274 674.248 190.16 673.84 190.154C672.763 190.154 672.37 190.86 672.37 191.336C672.37 192.128 672.906 192.415 673.558 192.683C674.317 192.983 674.603 193.201 674.603 193.518C674.58 193.681 674.49 193.828 674.351 193.927C674.213 194.026 674.039 194.067 673.868 194.043C673.496 194.015 673.147 193.864 672.882 193.617C672.836 193.578 672.777 193.555 672.714 193.554C672.619 193.561 672.533 193.61 672.481 193.686L672.377 193.812C672.334 193.866 672.315 193.934 672.327 194C672.338 194.067 672.377 194.127 672.436 194.165C672.828 194.492 673.331 194.675 673.854 194.68C674.686 194.68 675.341 194.155 675.341 193.485C675.341 192.683 674.672 192.359 673.864 192.049" fill="#B0008E"/>
<path d="M681.871 190.154H681.63C681.489 190.154 681.374 190.258 681.374 190.387V192.921C681.408 193.307 681.202 193.678 680.841 193.88C680.48 194.083 680.025 194.083 679.663 193.88C679.302 193.678 679.096 193.307 679.13 192.921V190.397C679.13 190.268 679.016 190.164 678.874 190.164H678.615C678.474 190.166 678.361 190.269 678.359 190.397V192.958C678.359 193.573 678.718 194.142 679.302 194.449C679.885 194.757 680.604 194.757 681.188 194.449C681.771 194.142 682.131 193.573 682.131 192.958V190.397C682.129 190.269 682.015 190.166 681.875 190.164" fill="#B0008E"/>
<path fill-rule="evenodd" clip-rule="evenodd" d="M686.07 190.154C686.802 190.146 687.402 190.784 687.411 191.578L687.407 191.585C687.395 192.147 687.088 192.653 686.617 192.888L687.333 194.326C687.372 194.401 687.372 194.493 687.333 194.569C687.292 194.641 687.218 194.683 687.14 194.68H686.854C686.774 194.682 686.701 194.635 686.664 194.558L685.945 193.003H685.049V194.44C685.048 194.57 684.951 194.675 684.832 194.677H684.611C684.491 194.677 684.393 194.571 684.393 194.44V190.39C684.393 190.26 684.491 190.154 684.611 190.154H686.07ZM686.536 192.129C686.667 191.984 686.74 191.788 686.739 191.585H686.745C686.732 191.175 686.423 190.848 686.045 190.843H685.062V192.358H686.039C686.226 192.356 686.405 192.274 686.536 192.129Z" fill="#B0008E"/>
<path fill-rule="evenodd" clip-rule="evenodd" d="M692.729 190.154C692.826 190.153 692.915 190.205 692.955 190.287L694.925 194.357C694.965 194.426 694.965 194.508 694.925 194.577C694.877 194.643 694.795 194.682 694.709 194.68H694.45C694.35 194.681 694.259 194.625 694.22 194.54L693.774 193.618H691.618L691.176 194.543C691.137 194.628 691.046 194.682 690.946 194.68H690.684C690.596 194.684 690.513 194.643 690.466 194.574C690.419 194.506 690.416 194.419 690.457 194.347L692.438 190.29C692.477 190.207 692.566 190.154 692.664 190.154H692.729ZM691.913 193.003H693.469H693.473L693.074 192.174L692.693 191.382L691.913 193.003Z" fill="#B0008E"/>
<path d="M700.748 190.213H700.533C700.401 190.213 700.293 190.316 700.293 190.443V193.3L697.669 190.154H697.458C697.328 190.154 697.222 190.253 697.219 190.377V194.388C697.22 194.514 697.326 194.616 697.458 194.618H697.673C697.805 194.618 697.912 194.515 697.912 194.388V191.475L700.58 194.68H700.751C700.882 194.68 700.989 194.579 700.99 194.453V190.443C700.989 190.317 700.882 190.215 700.751 190.213" fill="#B0008E"/>
<path d="M707.515 193.548C707.43 193.493 707.318 193.502 707.243 193.572C706.957 193.839 706.586 193.989 706.199 193.996C705.34 193.996 704.643 193.282 704.643 192.401C704.643 191.52 705.34 190.805 706.199 190.805C706.579 190.817 706.944 190.963 707.23 191.22C707.271 191.269 707.33 191.298 707.393 191.302C707.451 191.302 707.506 191.274 707.541 191.226L707.698 191.065C707.785 190.973 707.785 190.828 707.698 190.736C707.294 190.356 706.764 190.147 706.216 190.154C704.996 190.154 704.007 191.167 704.007 192.417C704.007 193.667 704.996 194.68 706.216 194.68C706.773 194.688 707.312 194.468 707.711 194.068C707.759 194.017 707.783 193.948 707.779 193.877C707.777 193.823 707.752 193.771 707.711 193.736L707.515 193.548Z" fill="#B0008E"/>
<path d="M713.567 190.806C713.704 190.806 713.815 190.7 713.815 190.569V190.39C713.815 190.26 713.704 190.154 713.567 190.154H711.045C710.908 190.154 710.797 190.26 710.797 190.39V194.444C710.797 194.574 710.908 194.68 711.045 194.68H713.567C713.704 194.68 713.815 194.574 713.815 194.444V194.265C713.815 194.134 713.704 194.028 713.567 194.028H711.532V192.707H713.242C713.379 192.707 713.49 192.602 713.49 192.471V192.295C713.488 192.166 713.378 192.061 713.242 192.059H711.532V190.806H713.557H713.567Z" fill="#B0008E"/>
<path fill-rule="evenodd" clip-rule="evenodd" d="M710.169 156.106H712.821V156.103C713.37 156.103 713.814 156.55 713.814 157.102V184.022C713.814 184.574 713.37 185.022 712.821 185.022H710.169C709.62 185.022 709.176 184.574 709.176 184.022V181.571C706.601 184.155 703.117 185.613 699.481 185.628C691.578 185.628 685.148 178.904 685.148 170.641C685.148 162.264 691.578 155.452 699.481 155.452C703.126 155.471 706.615 156.949 709.176 159.56V157.106C709.176 156.553 709.62 156.106 710.169 156.106ZM709.169 179.863L707.979 175.375V175.379L707.955 175.296C710.324 170.999 709.148 165.599 705.211 162.694C701.274 159.788 695.804 160.284 692.446 163.851C689.088 167.419 688.89 172.943 691.984 176.745C695.078 180.546 700.498 181.438 704.633 178.826L704.874 178.887L709.169 179.863Z" fill="#B0008E"/>
<path fill-rule="evenodd" clip-rule="evenodd" d="M743.55 194.237C743.833 193.953 743.991 193.569 743.991 193.168C743.989 192.335 743.313 191.661 742.48 191.663C741.647 191.664 740.972 192.34 740.973 193.172C740.974 194.005 741.649 194.68 742.482 194.68C742.883 194.68 743.267 194.521 743.55 194.237ZM742.486 191.983C743.139 191.985 743.666 192.516 743.664 193.168H743.674C743.677 193.485 743.55 193.79 743.325 194.012C743.099 194.234 742.792 194.355 742.475 194.347C741.823 194.343 741.297 193.812 741.3 193.159C741.303 192.507 741.834 191.98 742.486 191.983ZM742.844 193.367L743.171 193.847H742.802L742.57 193.429H742.243V193.847H741.917V192.407H742.528C742.91 192.407 743.122 192.59 743.122 192.904C743.139 193.101 743.03 193.287 742.851 193.371L742.844 193.367ZM742.723 193.111C742.667 193.161 742.592 193.183 742.518 193.171V193.168H742.224V192.662H742.518C742.591 192.65 742.665 192.672 742.72 192.72C742.776 192.769 742.807 192.84 742.805 192.913C742.809 192.988 742.779 193.061 742.723 193.111Z" fill="#B0008E"/>
</g>
<g filter="url(#filter5_dddddd_1414_890)">
<rect x="289.908" y="117.494" width="117.498" height="117.498" fill="white"/>
</g>
<g filter="url(#filter6_dddddd_1414_890)">
<rect x="289.908" width="117.498" height="117.494" fill="white"/>
</g>
<g filter="url(#filter7_dddddd_1414_890)">
<rect x="289.908" y="352.485" width="117.498" height="117.494" fill="white"/>
</g>
<g filter="url(#filter8_dddddd_1414_890)">
<rect x="407.406" y="234.991" width="117.498" height="117.494" fill="#F2F4F6"/>
</g>
<g filter="url(#filter9_dddddd_1414_890)">
<rect x="289.908" y="234.991" width="117.498" height="117.494" fill="white"/>
</g>
<g filter="url(#filter10_dddddd_1414_890)">
<rect x="524.904" width="117.498" height="117.494" fill="white"/>
</g>
<path d="M586.531 36.3577C588.918 35.1744 591.49 34.3856 594.177 33.9912C593.714 31.7406 592.81 29.6061 591.513 27.7964C589.381 24.7803 586.67 23.1562 584.724 22.2977C582.129 23.7826 579.765 25.5691 577.68 27.5876C575.664 29.5365 570.335 34.7104 568.759 42.6917C568.342 44.7566 568.203 46.868 568.342 48.9329C568.344 48.9599 568.346 48.9872 568.349 49.0151C568.489 50.854 568.771 54.5341 571.076 58.2365C571.772 59.3501 572.606 60.3942 573.556 61.3224C573.347 60.1158 573.231 58.9094 573.208 57.703C573.139 54.6867 573.486 51.8561 574.251 49.4664C576.568 42.158 582.94 38.121 586.531 36.3577Z" fill="#F05B78"/>
<path d="M580.414 69.0021C579.14 69.35 577.819 69.5588 576.498 69.6053C572.139 69.7652 568.814 68.147 567.165 67.3443L567.091 67.3082C565.238 66.4034 563.477 65.2201 561.901 63.8281C560.233 62.3664 555.784 58.4685 553.282 48.5385C552.563 45.7079 552.216 42.7613 552.216 39.7915C553.954 38.5387 556.711 37.0074 560.395 36.6594C562.642 36.4506 564.959 36.729 567.114 37.4482C566.118 39.9772 565.516 42.5989 565.33 45.2671C565.052 49.2577 565.377 56.7982 570.52 62.4823C572.212 64.3385 574.483 66.0555 577.124 67.4938C578.19 68.0739 579.279 68.5843 580.414 69.0021Z" fill="#F05B78"/>
<path d="M610.698 55.7075C612.413 54.1995 613.826 52.3202 614.753 50.2784C616.305 46.9143 616.352 43.7589 616.073 41.6708C613.478 40.1627 610.767 39.0027 607.964 38.2138L607.949 38.2096C605.25 37.4408 598.126 35.4112 590.447 38.0282C588.454 38.701 586.554 39.6291 584.84 40.7892C583.356 41.7872 580.251 43.8761 578.167 47.7959C577.541 48.9561 577.078 50.209 576.73 51.4851C577.657 50.7194 578.653 50 579.673 49.3736C582.245 47.7959 584.886 46.6824 587.319 46.1486C588.663 45.847 589.984 45.731 591.258 45.731C597.097 45.731 602.078 48.4223 604.813 50.2553C607.037 51.7401 609.006 53.5731 610.698 55.7075Z" fill="#F05B78"/>
<path d="M606.921 81.7164C610.605 81.3451 613.363 79.8371 615.077 78.561C615.077 75.5913 614.73 72.6447 614.034 69.8372C611.532 59.9071 607.083 56.0094 605.415 54.5477C603.839 53.1556 602.078 51.9724 600.225 51.0673C598.603 50.2553 595.243 48.608 590.818 48.7705C589.497 48.817 588.176 49.0258 586.902 49.3737C588.037 49.7912 589.126 50.3019 590.192 50.8817C592.834 52.3203 595.104 54.0373 596.796 55.8932C601.94 61.5776 602.264 69.1181 601.986 73.1086C601.8 75.7767 601.198 78.3985 600.202 80.9275C602.356 81.6467 604.674 81.9252 606.921 81.7164Z" fill="#F05B78"/>
<path d="M598.58 75.7304C597.004 83.7116 591.675 88.8856 589.659 90.8343C587.574 92.8761 585.21 94.6394 582.615 96.1243C580.669 95.2657 577.958 93.6418 575.826 90.6255C574.529 88.7928 573.602 86.635 573.162 84.4076C575.85 84.0132 578.421 83.2244 580.808 82.0411C584.399 80.2778 590.771 76.2408 593.088 68.9324C593.853 66.5428 594.201 63.7121 594.131 60.6959C594.108 59.4895 593.992 58.2831 593.783 57.0764C594.734 58.0046 595.544 59.0485 596.263 60.1624C598.568 63.8648 598.85 67.5448 598.991 69.3838L598.997 69.4659C599.113 71.5309 598.974 73.6886 598.58 75.7304Z" fill="#F05B78"/>
<path d="M589.15 70.5797C589.775 69.4196 590.239 68.1667 590.586 66.8906C589.659 67.6563 588.663 68.3754 587.643 68.9786C585.071 70.5563 582.43 71.6702 579.997 72.2037C572.536 73.8279 565.84 70.3244 562.527 68.097C560.302 66.6121 558.333 64.7794 556.641 62.6448C554.95 64.1528 553.536 66.0089 552.61 68.0738C551.08 71.4148 551.034 74.5933 551.266 76.7048C553.838 78.2128 556.549 79.3729 559.352 80.1618L559.367 80.1659C562.066 80.9347 569.19 82.9643 576.869 80.3474C578.862 79.6745 580.762 78.7466 582.476 77.5865C583.96 76.5883 587.065 74.4995 589.15 70.5797Z" fill="#F05B78"/>
<g filter="url(#filter11_dddddd_1414_890)">
<rect x="524.904" y="352.485" width="117.498" height="117.494" fill="white"/>
</g>
<g filter="url(#filter12_dddddd_1414_890)">
<rect x="524.904" y="234.991" width="117.498" height="117.494" fill="white"/>
</g>
<g filter="url(#filter13_dddddd_1414_890)">
<rect x="407.406" y="117.494" width="117.498" height="117.498" fill="white"/>
</g>
<g filter="url(#filter14_dddddd_1414_890)">
<rect x="407.406" y="352.485" width="117.498" height="117.494" fill="white"/>
</g>
<g filter="url(#filter15_dddddd_1414_890)">
<rect x="759.812" y="234.987" width="117.498" height="117.494" fill="white"/>
</g>
<mask id="mask0_1414_890" style="mask-type:alpha" maskUnits="userSpaceOnUse" x="305" y="44" width="87" height="29">
<path d="M348.239 44.6823L342.498 71.8908H335.555L341.298 44.6823H348.239ZM377.447 62.2501L381.101 52.034L383.205 62.2501H377.447ZM385.194 71.8908H391.614L386.01 44.6823H380.084C378.751 44.6823 377.628 45.4675 377.129 46.6777L366.712 71.8908H374L375.449 67.8258H384.355L385.194 71.8908ZM367.073 63.0066C367.104 55.8264 357.279 55.43 357.347 52.2215C357.369 51.246 358.285 50.2088 360.292 49.943C361.285 49.8116 364.028 49.7095 367.136 51.1601L368.356 45.3909C366.684 44.7759 364.536 44.1847 361.86 44.1847C354.999 44.1847 350.169 47.8835 350.13 53.1781C350.084 57.097 353.577 59.2808 356.209 60.5838C358.912 61.917 359.819 62.7724 359.809 63.9649C359.789 65.7912 357.652 66.5962 355.654 66.6276C352.164 66.6829 350.138 65.6711 348.524 64.9085L347.267 70.8709C348.887 71.6258 351.882 72.284 354.987 72.3163C362.28 72.3163 367.05 68.6651 367.073 63.0066ZM338.319 44.6823L327.071 71.8908H319.733L314.198 50.1765C313.861 48.8397 313.57 48.3489 312.548 47.7867C310.88 46.8677 308.124 46.0063 305.7 45.4711L305.863 44.6823H317.677C319.181 44.6823 320.536 45.6974 320.878 47.456L323.801 63.2011L331.027 44.6823H338.319Z" fill="white"/>
</mask>
<g mask="url(#mask0_1414_890)">
<path fill-rule="evenodd" clip-rule="evenodd" d="M348.239 44.6823L342.498 71.8908H335.555L341.298 44.6823H348.239ZM377.447 62.2501L381.101 52.034L383.205 62.2501H377.447ZM385.194 71.8908H391.614L386.01 44.6823H380.084C378.751 44.6823 377.628 45.4675 377.129 46.6777L366.712 71.8908H374L375.449 67.8258H384.355L385.194 71.8908ZM367.073 63.0066C367.104 55.8264 357.279 55.43 357.347 52.2215C357.369 51.246 358.285 50.2088 360.292 49.943C361.285 49.8116 364.028 49.7095 367.136 51.1601L368.356 45.3909C366.684 44.7759 364.536 44.1847 361.86 44.1847C354.999 44.1847 350.169 47.8835 350.13 53.1781C350.084 57.097 353.577 59.2808 356.209 60.5838C358.912 61.917 359.819 62.7724 359.809 63.9649C359.789 65.7912 357.652 66.5962 355.654 66.6276C352.164 66.6829 350.138 65.6711 348.524 64.9085L347.267 70.8709C348.887 71.6258 351.882 72.284 354.987 72.3163C362.28 72.3163 367.05 68.6651 367.073 63.0066ZM338.319 44.6823L327.071 71.8908H319.733L314.198 50.1765C313.861 48.8397 313.57 48.3489 312.548 47.7867C310.88 46.8677 308.124 46.0063 305.7 45.4711L305.863 44.6823H317.677C319.181 44.6823 320.536 45.6974 320.878 47.456L323.801 63.2011L331.027 44.6823H338.319Z" fill="#1434CB"/>
</g>
<path d="M206.68 292.606C205.859 292.359 205.428 292.318 205.181 292.277C204.935 292.236 205.038 292.257 204.771 292.195C204.483 292.134 203.806 292.052 203.272 292.01C204.709 291.949 205.284 291.826 206.187 291.6C207.07 291.395 207.83 291.066 208.486 290.635C209 290.307 209.39 289.855 209.677 289.301C209.985 288.747 210.129 288.192 210.129 287.576V287.556C210.129 286.55 209.718 285.667 208.897 284.867C208.055 284.066 206.967 283.532 205.551 283.204C205.099 283.101 204.648 283.019 204.155 282.937C203.519 282.855 203.005 282.793 202.431 282.752C201.856 282.711 201.24 282.67 200.542 282.67C200.234 282.65 199.885 282.65 199.536 282.65H199.228H198.736H190.812V282.958C191.53 283.019 192.044 283.101 192.372 283.225C192.701 283.348 192.967 283.532 193.173 283.84C193.357 284.107 193.501 284.415 193.583 284.785C193.665 285.154 193.727 285.626 193.727 286.263V299.544C193.727 299.893 193.706 300.181 193.706 300.386C193.686 300.632 193.665 300.817 193.645 300.981C193.624 301.145 193.604 301.33 193.583 301.494C193.522 301.843 193.398 302.151 193.173 302.439C192.947 302.747 192.659 302.952 192.331 303.075C192.003 303.198 191.489 303.28 190.812 303.321V303.629H202.266C203.765 303.629 204.525 303.486 205.736 303.219C206.926 302.952 207.953 302.541 208.774 302.049C209.615 301.535 210.231 300.92 210.683 300.16C211.135 299.421 211.34 298.6 211.34 297.676C211.34 296.486 210.929 295.439 210.088 294.535C209.349 293.878 208.158 293.139 206.659 292.811V292.606H206.68ZM204.463 302.049C203.888 302.911 202.944 303.362 201.651 303.362C201.24 303.362 200.891 303.321 200.624 303.239C200.357 303.157 200.152 302.993 200.008 302.747C199.865 302.5 199.762 302.172 199.721 301.741C199.68 301.31 199.659 300.735 199.659 300.016V283.019H200.419C201.425 283.019 202.184 283.142 202.718 283.368C203.252 283.594 203.662 284.005 203.95 284.538C204.155 284.908 204.299 285.339 204.401 285.791C204.483 286.263 204.525 286.796 204.525 287.453C204.525 288.398 204.401 289.219 204.176 289.896C203.991 290.409 203.765 290.799 203.478 291.107C203.416 291.169 203.334 291.251 203.231 291.313L203.211 291.333C203.19 291.354 203.19 291.354 203.19 291.354C203.108 291.415 203.026 291.456 202.944 291.497C202.903 291.518 202.862 291.538 202.821 291.559C202.164 291.867 201.445 291.887 201.199 291.887V292.257C201.199 292.257 202.533 292.195 203.56 292.791C203.621 292.832 203.683 292.873 203.724 292.893C203.744 292.914 203.744 292.914 203.744 292.914C204.217 293.263 204.545 293.673 204.791 294.207C205.161 295.131 205.366 296.301 205.366 297.758C205.346 299.688 205.058 301.186 204.463 302.09V302.049Z" fill="#010202"/>
<path d="M226.654 290.635C226.017 289.896 225.217 289.322 224.231 288.87C223.246 288.418 222.097 288.193 220.783 288.193C219.469 288.193 218.319 288.418 217.334 288.87C216.349 289.322 215.548 289.917 214.912 290.635C214.275 291.374 213.803 292.195 213.475 293.119C213.146 294.063 212.982 295.008 212.982 295.993C212.982 296.958 213.146 297.923 213.475 298.867C213.803 299.811 214.275 300.632 214.912 301.351C215.548 302.09 216.349 302.665 217.334 303.116C218.319 303.568 219.469 303.794 220.783 303.794C222.097 303.794 223.246 303.568 224.231 303.116C225.217 302.665 226.017 302.069 226.654 301.351C227.29 300.612 227.762 299.791 228.091 298.867C228.419 297.923 228.583 296.978 228.583 295.993C228.583 295.028 228.419 294.063 228.091 293.119C227.783 292.134 227.187 291.292 226.592 290.574L226.654 290.635ZM223.226 297.409C223.226 298.374 223.205 299.175 223.143 299.893C223.102 300.612 223 301.207 222.836 301.7C222.671 302.192 222.425 302.541 222.097 302.788C221.768 303.034 221.337 303.137 220.783 303.137C220.228 303.137 219.777 303.014 219.469 302.788C219.14 302.541 218.894 302.172 218.73 301.7C218.566 301.207 218.463 300.612 218.422 299.893C218.381 299.175 218.34 298.333 218.34 297.409V294.659C218.34 293.735 218.36 292.893 218.422 292.175C218.463 291.436 218.566 290.82 218.73 290.327C218.894 289.835 219.14 289.445 219.469 289.178C219.797 288.911 220.228 288.767 220.783 288.767C221.337 288.767 221.789 288.911 222.097 289.178C222.425 289.445 222.671 289.814 222.836 290.327C223 290.82 223.102 291.436 223.143 292.175C223.184 292.914 223.226 293.735 223.226 294.659V297.368V297.409Z" fill="#010202"/>
<path d="M243.651 290.635C243.014 289.896 242.214 289.322 241.228 288.87C240.243 288.418 239.093 288.193 237.78 288.193C236.466 288.193 235.316 288.418 234.331 288.87C233.346 289.322 232.545 289.917 231.909 290.635C231.272 291.374 230.8 292.195 230.472 293.119C230.143 294.063 229.979 295.008 229.979 295.993C229.979 296.958 230.143 297.923 230.472 298.867C230.8 299.811 231.272 300.632 231.909 301.351C232.545 302.09 233.346 302.665 234.331 303.116C235.316 303.568 236.466 303.794 237.78 303.794C239.093 303.794 240.243 303.568 241.228 303.116C242.214 302.665 243.014 302.069 243.651 301.351C244.287 300.612 244.759 299.791 245.088 298.867C245.416 297.923 245.58 296.978 245.58 295.993C245.58 295.028 245.416 294.063 245.088 293.119C244.636 292.134 244.184 291.292 243.589 290.574L243.651 290.635ZM240.222 297.409C240.222 298.374 240.202 299.175 240.14 299.893C240.099 300.612 239.997 301.207 239.832 301.7C239.668 302.192 239.422 302.541 239.093 302.788C238.765 303.034 238.334 303.137 237.78 303.137C237.225 303.137 236.774 303.014 236.466 302.788C236.137 302.541 235.891 302.172 235.727 301.7C235.563 301.207 235.46 300.612 235.419 299.893C235.378 299.175 235.337 298.333 235.337 297.409V294.659C235.337 293.735 235.357 292.893 235.419 292.175C235.46 291.436 235.563 290.82 235.727 290.327C235.891 289.835 236.137 289.445 236.466 289.178C236.794 288.911 237.225 288.767 237.78 288.767C238.334 288.767 238.785 288.911 239.093 289.178C239.422 289.445 239.668 289.814 239.832 290.327C239.997 290.82 240.099 291.436 240.14 292.175C240.181 292.914 240.222 293.735 240.222 294.659V297.368V297.409Z" fill="#010202"/>
<path d="M258.266 302.049C257.589 302.788 256.583 303.137 255.248 303.137H251.943L259.559 289.65V288.788H247.222V292.955H247.571C247.694 291.764 248.125 290.861 248.885 290.245C249.644 289.65 250.486 289.342 251.451 289.342H254.427L246.606 302.911V303.67H259.908V299.134H259.559C259.416 300.181 258.964 301.228 258.225 301.967L258.266 302.049Z" fill="#010202"/>
<path d="M271.404 302.952C271.404 302.952 270.993 303.116 270.624 303.116C269.741 303.116 269.146 302.726 268.838 301.967C268.53 301.207 268.366 299.955 268.366 298.231V289.363H270.911V288.808H268.304V282.712H267.996C267.996 283.204 266.128 288.788 262.823 288.808H261.243V289.363H263.111V297.327C263.111 298.6 263.254 299.647 263.583 300.468C263.891 301.31 264.322 301.967 264.856 302.459C265.389 302.952 266.026 303.301 266.765 303.527C267.504 303.732 268.263 303.835 269.084 303.835C270.09 303.835 270.891 303.691 271.507 303.404V303.096L271.404 302.952Z" fill="#010202"/>
<path fill-rule="evenodd" clip-rule="evenodd" d="M580.953 254.85C578.408 255.062 577.125 255.227 575.422 255.563C569.336 256.761 563.305 259.63 558.603 263.563C557.134 264.791 555.849 265.987 554.915 266.996C551.033 271.186 548.543 275.9 547.519 280.998C546.067 288.224 547.912 295.967 552.004 299.823C552.941 300.706 553.801 301.209 555.202 301.697C556.246 302.06 558.388 302.904 559.69 303.465C560.255 303.709 560.744 303.908 560.777 303.908C560.81 303.908 560.679 303.552 560.486 303.117C559.675 301.287 559.17 299.288 558.963 297.087C558.935 296.794 558.942 296.537 558.978 296.516C559.086 296.453 561.292 296.598 562.368 296.738C562.919 296.81 563.91 296.976 564.571 297.107C565.799 297.35 567.943 297.933 568.106 298.068C568.155 298.11 568.242 298.314 568.298 298.523C568.419 298.976 568.935 300.035 569.274 300.528C569.972 301.542 571.214 302.557 572.38 303.066C573.39 303.507 573.901 303.6 575.569 303.645L577.114 303.687L577.56 304.229C578.29 305.116 578.933 306.127 579.471 307.233C580.436 309.218 580.855 310.903 580.994 313.361C581.061 314.536 581.228 314.921 581.968 315.599C582.795 316.356 583.222 316.354 584.04 315.59C584.774 314.902 584.931 314.529 584.992 313.319C585.168 309.841 586.356 306.7 588.435 304.218L588.88 303.687L590.424 303.648C591.801 303.614 592.045 303.586 592.684 303.394C594.136 302.958 595.385 302.141 596.343 301C596.849 300.398 597.533 299.125 597.698 298.48L597.806 298.058L598.452 297.853C600.737 297.131 603.865 296.593 606.187 296.523L607.028 296.498L607.001 297.099C606.964 297.913 606.643 299.783 606.388 300.664C605.485 303.783 603.988 306.337 601.731 308.609C600.813 309.533 600.617 309.682 598.365 311.168C597.049 312.036 595.072 313.341 593.97 314.068C592.869 314.795 591.193 315.901 590.245 316.525C589.298 317.149 587.442 318.378 586.12 319.255C584.798 320.133 583.609 320.893 583.476 320.945C583.155 321.071 582.784 321.073 582.504 320.951C582.378 320.896 581.5 320.27 580.552 319.561C576.008 316.157 570.208 312.359 566.133 310.118C565.583 309.815 564.931 309.452 564.686 309.312C563.9 308.863 560.77 307.309 559.401 306.689C556.008 305.153 552.778 304.055 550.072 303.518C548.337 303.174 545.866 302.92 545.866 303.086C545.866 303.482 547.04 306.912 547.682 308.393C549.634 312.893 552.189 316.686 555.636 320.198C560.734 325.392 566.835 328.861 573.972 330.625C576.899 331.348 579.551 331.653 582.956 331.658C585.897 331.662 587.658 331.502 590.366 330.985C600.292 329.09 609.326 323.075 614.972 314.602C619.232 308.209 621.44 300.922 621.438 293.254C621.438 287.997 620.457 283.158 618.403 278.281C614.941 270.059 608.356 263.017 600.354 258.98C595.919 256.743 591.761 255.517 586.841 254.998C585.722 254.879 581.782 254.78 580.953 254.85ZM560.966 271.855C561.234 272.022 561.451 272.199 567.535 277.233C575.913 284.163 575.5 283.841 576.978 284.597C578.019 285.13 579.3 285.565 580.57 285.818C581.865 286.076 584.116 286.074 585.433 285.814C586.604 285.583 587.829 285.175 588.844 284.679C590.322 283.956 590.321 283.956 597.335 278.153C598.436 277.242 599.788 276.125 600.339 275.671C600.89 275.217 602.133 274.19 603.103 273.388C604.072 272.586 604.97 271.876 605.098 271.809C605.458 271.622 606.182 271.701 606.528 271.966C607.108 272.408 607.068 271.62 607.068 282.632V292.533L606.367 292.533C604.074 292.534 600.361 293.046 597.856 293.707C594.489 294.596 591.377 296.03 588.977 297.799C586.638 299.523 584.751 301.698 583.419 304.208L582.986 305.023L582.763 304.566C581.368 301.71 578.991 299.094 575.946 297.066C575.08 296.489 572.759 295.295 571.661 294.861C568.329 293.547 564.19 292.708 560.305 292.56L558.924 292.508V282.619C558.924 271.542 558.877 272.395 559.51 271.936C559.771 271.747 559.91 271.705 560.277 271.706C560.575 271.706 560.807 271.756 560.966 271.855Z" fill="#2E54CC"/>
<path d="M507.991 405.982C507.992 406.304 507.897 406.619 507.719 406.887C507.541 407.155 507.287 407.364 506.99 407.487C506.693 407.611 506.366 407.643 506.05 407.581C505.734 407.518 505.444 407.363 505.217 407.136C504.989 406.908 504.834 406.618 504.772 406.302C504.709 405.987 504.742 405.66 504.865 405.363C504.989 405.065 505.198 404.812 505.466 404.633C505.734 404.455 506.049 404.36 506.37 404.361C506.583 404.361 506.794 404.403 506.991 404.485C507.187 404.566 507.366 404.686 507.516 404.836C507.667 404.987 507.786 405.165 507.868 405.362C507.949 405.558 507.991 405.769 507.991 405.982ZM504.983 405.982C504.983 406.255 505.064 406.523 505.216 406.75C505.367 406.977 505.583 407.155 505.836 407.259C506.088 407.364 506.366 407.392 506.634 407.339C506.902 407.286 507.149 407.155 507.342 406.962C507.536 406.769 507.668 406.523 507.722 406.255C507.776 405.987 507.749 405.709 507.645 405.456C507.541 405.203 507.365 404.987 507.138 404.834C506.911 404.682 506.644 404.6 506.37 404.599C506.188 404.598 506.007 404.633 505.838 404.703C505.67 404.772 505.516 404.874 505.387 405.003C505.258 405.132 505.156 405.286 505.087 405.454C505.017 405.623 504.982 405.804 504.983 405.986V405.982ZM506.062 406.919H505.76V405.052H506.504C506.569 405.044 506.636 405.051 506.699 405.071C506.762 405.091 506.82 405.124 506.87 405.168C506.919 405.212 506.959 405.266 506.986 405.326C507.013 405.386 507.027 405.452 507.028 405.518C507.028 405.63 506.986 405.737 506.911 405.819C506.836 405.902 506.732 405.953 506.621 405.962C506.854 405.989 506.937 406.062 506.95 406.437C506.957 406.602 506.982 406.766 507.023 406.926H506.726C506.664 406.724 506.638 406.514 506.648 406.304C506.645 406.27 506.636 406.238 506.62 406.208C506.604 406.178 506.582 406.152 506.556 406.131C506.529 406.11 506.499 406.095 506.466 406.087C506.433 406.078 506.399 406.077 506.366 406.082H506.062V406.919ZM506.062 405.842H506.453C506.491 405.843 506.529 405.835 506.565 405.82C506.6 405.804 506.632 405.782 506.657 405.753C506.683 405.724 506.703 405.691 506.715 405.654C506.726 405.617 506.73 405.579 506.726 405.54C506.729 405.503 506.725 405.465 506.712 405.43C506.7 405.395 506.68 405.362 506.654 405.335C506.628 405.308 506.597 405.287 506.562 405.274C506.527 405.26 506.49 405.254 506.453 405.256H506.062V405.842Z" fill="#62BB47"/>
<path d="M426.056 409.183H424.318V406.635H426.056V400.818H433.827C436.047 400.818 438.021 402.117 438.021 404.712C438.021 406.055 437.326 407.121 436.245 407.598C437.752 408.087 438.84 409.29 438.84 411.15C438.84 413.746 436.917 415.369 434.369 415.369H426.056V409.183ZM428.743 406.635H433.518C434.702 406.635 435.326 405.869 435.326 404.99C435.326 404.11 434.699 403.367 433.518 403.367H428.743V406.635ZM428.743 412.822H434.049C435.254 412.822 436.136 412.034 436.136 411.013C436.136 409.992 435.248 409.183 434.049 409.183H428.743V412.822Z" fill="#62BB47"/>
<path d="M451.703 412.938C450.371 414.629 448.506 415.649 446.491 415.671C442.574 415.671 440.303 412.729 440.303 409.763C440.303 406.797 442.574 403.855 446.491 403.855C448.831 403.855 452.305 405.778 452.305 410.156V410.6H442.992C443.132 412.314 444.73 413.542 446.422 413.542C447.718 413.542 448.831 412.916 449.665 411.803L451.703 412.938ZM449.483 408.604C448.975 406.89 447.707 405.986 446.171 405.986C444.635 405.986 443.389 406.937 442.996 408.604H449.483Z" fill="#62BB47"/>
<path d="M454.714 404.155H457.125V405.576H457.17C457.836 404.532 459.07 403.862 460.6 403.862C462.964 403.862 464.956 405.831 464.956 408.611V415.371H462.547V409.128C462.547 407.09 461.481 406.255 459.883 406.255C458.328 406.255 457.125 407.252 457.125 409.081V415.371H454.714V404.155Z" fill="#62BB47"/>
<path d="M468.152 406.426H466.785V404.155H468.152V401.167L470.561 400.518V404.155H472.277V406.426H470.561V415.371H468.152V406.426Z" fill="#62BB47"/>
<path d="M476.469 400.818V410.853C476.469 412.149 476.747 412.613 477.466 413.031L478.765 413.77L477.699 415.671C475.222 414.49 474.063 413.633 474.063 411.293V400.818H476.469Z" fill="#62BB47"/>
<path d="M490.742 412.938C489.399 414.629 487.545 415.649 485.529 415.671C481.613 415.671 479.344 412.729 479.344 409.763C479.344 406.797 481.613 403.855 485.529 403.855C487.869 403.855 491.346 405.778 491.346 410.156V410.6H482.021C482.161 412.314 483.76 413.542 485.451 413.542C486.75 413.542 487.86 412.916 488.695 411.803L490.742 412.938ZM488.522 408.604C488.011 406.89 486.746 405.986 485.207 405.986C483.669 405.986 482.427 406.937 482.032 408.604H488.522Z" fill="#62BB47"/>
<path d="M493.36 404.155H495.769V410.735C495.769 412.614 496.928 413.4 498.413 413.4C500.289 413.4 501.193 412.243 501.193 410.513V404.155H503.602V415.023C503.602 418.453 500.567 419.958 498.48 419.958C495.956 419.958 494.819 419.008 493.731 417.758L495.769 416.506C496.535 417.247 497.299 417.689 498.342 417.689C499.941 417.689 501.331 416.714 501.331 414.745V414.143H501.286C500.345 415.209 499.457 415.671 497.903 415.671C495.401 415.671 493.363 413.795 493.363 410.642L493.36 404.155Z" fill="#62BB47"/>
<path d="M466.128 184.625C465.737 179.365 462.419 176.265 457.319 176.256C455.511 176.253 453.703 176.285 451.896 176.247C450.309 176.214 449.51 175.422 449.5 173.851C449.476 169.874 449.476 165.897 449.5 161.92C449.51 160.331 450.295 159.54 451.885 159.524C454.984 159.492 458.083 159.523 461.183 159.511C464.351 159.5 466.095 157.864 466.175 154.682C466.253 151.636 466.189 148.587 466.201 145.54C466.209 143.54 466.908 142.812 468.879 142.81C478.177 142.8 487.474 142.801 496.771 142.809C498.772 142.811 499.508 143.533 499.514 145.482C499.527 149.304 499.53 153.126 499.515 156.948C499.507 158.816 498.771 159.537 496.86 159.539C488.337 159.548 479.815 159.539 471.292 159.544C467.912 159.546 466.234 161.215 466.228 164.557C466.225 166.933 466.21 169.309 466.232 171.685C466.256 174.338 468.033 176.17 470.687 176.209C473.837 176.255 476.989 176.211 480.14 176.224C482.128 176.233 482.857 176.943 482.867 178.922C482.885 182.693 482.886 186.463 482.866 190.234C482.856 192.193 482.092 192.952 480.135 192.965C477.036 192.985 473.936 192.956 470.837 192.974C467.97 192.991 466.243 194.74 466.23 197.631C466.216 200.679 466.24 203.726 466.222 206.774C466.209 208.893 465.436 209.661 463.305 209.67C459.638 209.685 455.97 209.687 452.303 209.669C450.233 209.658 449.501 208.915 449.496 206.873C449.488 203.102 449.485 199.332 449.497 195.561C449.502 193.668 450.218 192.956 452.11 192.938C453.814 192.923 455.519 192.945 457.223 192.933C462.354 192.896 465.663 189.859 466.128 184.625Z" fill="#0E7176"/>
<path d="M447.649 189.855C444.842 192.892 441.19 193.751 437.754 192.256C434.425 190.809 432.478 187.386 432.824 183.586C433.13 180.222 435.742 177.286 439.195 176.425C442.505 175.6 446.057 176.961 448.027 179.809C450.119 182.833 450.006 186.45 447.649 189.855Z" fill="#7FD733"/>
<path d="M381.439 314.423L369.212 271.785C369.016 271.158 368.546 270.688 367.958 270.453C367.253 270.179 366.43 270.335 365.842 270.845L348.677 285.893L331.473 270.884C330.963 270.414 330.258 270.257 329.592 270.414C328.847 270.61 328.299 271.198 328.103 271.903L315.876 314.462C315.68 315.168 315.836 315.912 316.307 316.461C316.816 317.01 317.522 317.245 318.266 317.127L348.677 311.406L379.088 317.127C380.264 317.284 381.322 316.5 381.478 315.325C381.557 315.05 381.518 314.737 381.439 314.423ZM362.08 278.761L355.535 291.889L351.303 288.166L362.08 278.761ZM346.051 288.206L341.819 291.929L335.274 278.8L346.051 288.206ZM330.297 276.527L339.115 294.28L320.617 310.465L330.297 276.527ZM323.322 312.621L340.722 297.454L346.169 308.388L323.322 312.621ZM343.347 295.064L348.638 290.439L353.928 295.064L348.638 305.684L343.347 295.064ZM351.185 308.31L356.632 297.376L374.072 312.66L351.185 308.31ZM358.239 294.28L367.018 276.606L376.697 310.387L358.239 294.28Z" fill="#00216E"/>
<defs>
<filter id="filter0_dddddd_1414_890" x="705.089" y="0" width="226.943" height="240.62" filterUnits="userSpaceOnUse" color-interpolation-filters="sRGB">
<feFlood flood-opacity="0" result="BackgroundImageFix"/>
<feColorMatrix in="SourceAlpha" type="matrix" values="0 0 0 0 0 0 0 0 0 0 0 0 0 0 0 0 0 0 127 0" result="hardAlpha"/>
<feOffset dy="1.8929"/>
<feGaussianBlur stdDeviation="0.757161"/>
<feColorMatrix type="matrix" values="0 0 0 0 0.109804 0 0 0 0 0.0509804 0 0 0 0 0.247059 0 0 0 0.0196802 0"/>
<feBlend mode="normal" in2="BackgroundImageFix" result="effect1_dropShadow_1414_890"/>
<feColorMatrix in="SourceAlpha" type="matrix" values="0 0 0 0 0 0 0 0 0 0 0 0 0 0 0 0 0 0 127 0" result="hardAlpha"/>
<feOffset dy="4.54891"/>
<feGaussianBlur stdDeviation="1.81956"/>
<feColorMatrix type="matrix" values="0 0 0 0 0.109804 0 0 0 0 0.0509804 0 0 0 0 0.247059 0 0 0 0.0282725 0"/>
<feBlend mode="normal" in2="effect1_dropShadow_1414_890" result="effect2_dropShadow_1414_890"/>
<feColorMatrix in="SourceAlpha" type="matrix" values="0 0 0 0 0 0 0 0 0 0 0 0 0 0 0 0 0 0 127 0" result="hardAlpha"/>
<feOffset dy="8.56519"/>
<feGaussianBlur stdDeviation="3.42608"/>
<feColorMatrix type="matrix" values="0 0 0 0 0.109804 0 0 0 0 0.0509804 0 0 0 0 0.247059 0 0 0 0.035 0"/>
<feBlend mode="normal" in2="effect2_dropShadow_1414_890" result="effect3_dropShadow_1414_890"/>
<feColorMatrix in="SourceAlpha" type="matrix" values="0 0 0 0 0 0 0 0 0 0 0 0 0 0 0 0 0 0 127 0" result="hardAlpha"/>
<feOffset dy="15.2788"/>
<feGaussianBlur stdDeviation="6.11153"/>
<feColorMatrix type="matrix" values="0 0 0 0 0.109804 0 0 0 0 0.0509804 0 0 0 0 0.247059 0 0 0 0.0417275 0"/>
<feBlend mode="normal" in2="effect3_dropShadow_1414_890" result="effect4_dropShadow_1414_890"/>
<feColorMatrix in="SourceAlpha" type="matrix" values="0 0 0 0 0 0 0 0 0 0 0 0 0 0 0 0 0 0 127 0" result="hardAlpha"/>
<feOffset dy="28.5774"/>
<feGaussianBlur stdDeviation="11.431"/>
<feColorMatrix type="matrix" values="0 0 0 0 0.109804 0 0 0 0 0.0509804 0 0 0 0 0.247059 0 0 0 0.0503198 0"/>
<feBlend mode="normal" in2="effect4_dropShadow_1414_890" result="effect5_dropShadow_1414_890"/>
<feColorMatrix in="SourceAlpha" type="matrix" values="0 0 0 0 0 0 0 0 0 0 0 0 0 0 0 0 0 0 127 0" result="hardAlpha"/>
<feOffset dy="68.4036"/>
<feGaussianBlur stdDeviation="27.3614"/>
<feColorMatrix type="matrix" values="0 0 0 0 0.109804 0 0 0 0 0.0509804 0 0 0 0 0.247059 0 0 0 0.07 0"/>
<feBlend mode="normal" in2="effect5_dropShadow_1414_890" result="effect6_dropShadow_1414_890"/>
<feBlend mode="normal" in="SourceGraphic" in2="effect6_dropShadow_1414_890" result="shape"/>
</filter>
<filter id="filter1_dddddd_1414_890" x="352.683" y="0.991699" width="226.943" height="239.628" filterUnits="userSpaceOnUse" color-interpolation-filters="sRGB">
<feFlood flood-opacity="0" result="BackgroundImageFix"/>
<feColorMatrix in="SourceAlpha" type="matrix" values="0 0 0 0 0 0 0 0 0 0 0 0 0 0 0 0 0 0 127 0" result="hardAlpha"/>
<feOffset dy="1.8929"/>
<feGaussianBlur stdDeviation="0.757161"/>
<feColorMatrix type="matrix" values="0 0 0 0 0.109804 0 0 0 0 0.0509804 0 0 0 0 0.247059 0 0 0 0.0196802 0"/>
<feBlend mode="normal" in2="BackgroundImageFix" result="effect1_dropShadow_1414_890"/>
<feColorMatrix in="SourceAlpha" type="matrix" values="0 0 0 0 0 0 0 0 0 0 0 0 0 0 0 0 0 0 127 0" result="hardAlpha"/>
<feOffset dy="4.54891"/>
<feGaussianBlur stdDeviation="1.81956"/>
<feColorMatrix type="matrix" values="0 0 0 0 0.109804 0 0 0 0 0.0509804 0 0 0 0 0.247059 0 0 0 0.0282725 0"/>
<feBlend mode="normal" in2="effect1_dropShadow_1414_890" result="effect2_dropShadow_1414_890"/>
<feColorMatrix in="SourceAlpha" type="matrix" values="0 0 0 0 0 0 0 0 0 0 0 0 0 0 0 0 0 0 127 0" result="hardAlpha"/>
<feOffset dy="8.56519"/>
<feGaussianBlur stdDeviation="3.42608"/>
<feColorMatrix type="matrix" values="0 0 0 0 0.109804 0 0 0 0 0.0509804 0 0 0 0 0.247059 0 0 0 0.035 0"/>
<feBlend mode="normal" in2="effect2_dropShadow_1414_890" result="effect3_dropShadow_1414_890"/>
<feColorMatrix in="SourceAlpha" type="matrix" values="0 0 0 0 0 0 0 0 0 0 0 0 0 0 0 0 0 0 127 0" result="hardAlpha"/>
<feOffset dy="15.2788"/>
<feGaussianBlur stdDeviation="6.11153"/>
<feColorMatrix type="matrix" values="0 0 0 0 0.109804 0 0 0 0 0.0509804 0 0 0 0 0.247059 0 0 0 0.0417275 0"/>
<feBlend mode="normal" in2="effect3_dropShadow_1414_890" result="effect4_dropShadow_1414_890"/>
<feColorMatrix in="SourceAlpha" type="matrix" values="0 0 0 0 0 0 0 0 0 0 0 0 0 0 0 0 0 0 127 0" result="hardAlpha"/>
<feOffset dy="28.5774"/>
<feGaussianBlur stdDeviation="11.431"/>
<feColorMatrix type="matrix" values="0 0 0 0 0.109804 0 0 0 0 0.0509804 0 0 0 0 0.247059 0 0 0 0.0503198 0"/>
<feBlend mode="normal" in2="effect4_dropShadow_1414_890" result="effect5_dropShadow_1414_890"/>
<feColorMatrix in="SourceAlpha" type="matrix" values="0 0 0 0 0 0 0 0 0 0 0 0 0 0 0 0 0 0 127 0" result="hardAlpha"/>
<feOffset dy="68.4036"/>
<feGaussianBlur stdDeviation="27.3614"/>
<feColorMatrix type="matrix" values="0 0 0 0 0.109804 0 0 0 0 0.0509804 0 0 0 0 0.247059 0 0 0 0.07 0"/>
<feBlend mode="normal" in2="effect5_dropShadow_1414_890" result="effect6_dropShadow_1414_890"/>
<feBlend mode="normal" in="SourceGraphic" in2="effect6_dropShadow_1414_890" result="shape"/>
</filter>
<filter id="filter2_dddddd_1414_890" x="117.688" y="234.991" width="226.943" height="240.62" filterUnits="userSpaceOnUse" color-interpolation-filters="sRGB">
<feFlood flood-opacity="0" result="BackgroundImageFix"/>
<feColorMatrix in="SourceAlpha" type="matrix" values="0 0 0 0 0 0 0 0 0 0 0 0 0 0 0 0 0 0 127 0" result="hardAlpha"/>
<feOffset dy="1.8929"/>
<feGaussianBlur stdDeviation="0.757161"/>
<feColorMatrix type="matrix" values="0 0 0 0 0.109804 0 0 0 0 0.0509804 0 0 0 0 0.247059 0 0 0 0.0196802 0"/>
<feBlend mode="normal" in2="BackgroundImageFix" result="effect1_dropShadow_1414_890"/>
<feColorMatrix in="SourceAlpha" type="matrix" values="0 0 0 0 0 0 0 0 0 0 0 0 0 0 0 0 0 0 127 0" result="hardAlpha"/>
<feOffset dy="4.54891"/>
<feGaussianBlur stdDeviation="1.81956"/>
<feColorMatrix type="matrix" values="0 0 0 0 0.109804 0 0 0 0 0.0509804 0 0 0 0 0.247059 0 0 0 0.0282725 0"/>
<feBlend mode="normal" in2="effect1_dropShadow_1414_890" result="effect2_dropShadow_1414_890"/>
<feColorMatrix in="SourceAlpha" type="matrix" values="0 0 0 0 0 0 0 0 0 0 0 0 0 0 0 0 0 0 127 0" result="hardAlpha"/>
<feOffset dy="8.56519"/>
<feGaussianBlur stdDeviation="3.42608"/>
<feColorMatrix type="matrix" values="0 0 0 0 0.109804 0 0 0 0 0.0509804 0 0 0 0 0.247059 0 0 0 0.035 0"/>
<feBlend mode="normal" in2="effect2_dropShadow_1414_890" result="effect3_dropShadow_1414_890"/>
<feColorMatrix in="SourceAlpha" type="matrix" values="0 0 0 0 0 0 0 0 0 0 0 0 0 0 0 0 0 0 127 0" result="hardAlpha"/>
<feOffset dy="15.2788"/>
<feGaussianBlur stdDeviation="6.11153"/>
<feColorMatrix type="matrix" values="0 0 0 0 0.109804 0 0 0 0 0.0509804 0 0 0 0 0.247059 0 0 0 0.0417275 0"/>
<feBlend mode="normal" in2="effect3_dropShadow_1414_890" result="effect4_dropShadow_1414_890"/>
<feColorMatrix in="SourceAlpha" type="matrix" values="0 0 0 0 0 0 0 0 0 0 0 0 0 0 0 0 0 0 127 0" result="hardAlpha"/>
<feOffset dy="28.5774"/>
<feGaussianBlur stdDeviation="11.431"/>
<feColorMatrix type="matrix" values="0 0 0 0 0.109804 0 0 0 0 0.0509804 0 0 0 0 0.247059 0 0 0 0.0503198 0"/>
<feBlend mode="normal" in2="effect4_dropShadow_1414_890" result="effect5_dropShadow_1414_890"/>
<feColorMatrix in="SourceAlpha" type="matrix" values="0 0 0 0 0 0 0 0 0 0 0 0 0 0 0 0 0 0 127 0" result="hardAlpha"/>
<feOffset dy="68.4036"/>
<feGaussianBlur stdDeviation="27.3614"/>
<feColorMatrix type="matrix" values="0 0 0 0 0.109804 0 0 0 0 0.0509804 0 0 0 0 0.247059 0 0 0 0.07 0"/>
<feBlend mode="normal" in2="effect5_dropShadow_1414_890" result="effect6_dropShadow_1414_890"/>
<feBlend mode="normal" in="SourceGraphic" in2="effect6_dropShadow_1414_890" result="shape"/>
</filter>
<filter id="filter3_dddddd_1414_890" x="587.592" y="117.494" width="226.943" height="240.62" filterUnits="userSpaceOnUse" color-interpolation-filters="sRGB">
<feFlood flood-opacity="0" result="BackgroundImageFix"/>
<feColorMatrix in="SourceAlpha" type="matrix" values="0 0 0 0 0 0 0 0 0 0 0 0 0 0 0 0 0 0 127 0" result="hardAlpha"/>
<feOffset dy="1.8929"/>
<feGaussianBlur stdDeviation="0.757161"/>
<feColorMatrix type="matrix" values="0 0 0 0 0.109804 0 0 0 0 0.0509804 0 0 0 0 0.247059 0 0 0 0.0196802 0"/>
<feBlend mode="normal" in2="BackgroundImageFix" result="effect1_dropShadow_1414_890"/>
<feColorMatrix in="SourceAlpha" type="matrix" values="0 0 0 0 0 0 0 0 0 0 0 0 0 0 0 0 0 0 127 0" result="hardAlpha"/>
<feOffset dy="4.54891"/>
<feGaussianBlur stdDeviation="1.81956"/>
<feColorMatrix type="matrix" values="0 0 0 0 0.109804 0 0 0 0 0.0509804 0 0 0 0 0.247059 0 0 0 0.0282725 0"/>
<feBlend mode="normal" in2="effect1_dropShadow_1414_890" result="effect2_dropShadow_1414_890"/>
<feColorMatrix in="SourceAlpha" type="matrix" values="0 0 0 0 0 0 0 0 0 0 0 0 0 0 0 0 0 0 127 0" result="hardAlpha"/>
<feOffset dy="8.56519"/>
<feGaussianBlur stdDeviation="3.42608"/>
<feColorMatrix type="matrix" values="0 0 0 0 0.109804 0 0 0 0 0.0509804 0 0 0 0 0.247059 0 0 0 0.035 0"/>
<feBlend mode="normal" in2="effect2_dropShadow_1414_890" result="effect3_dropShadow_1414_890"/>
<feColorMatrix in="SourceAlpha" type="matrix" values="0 0 0 0 0 0 0 0 0 0 0 0 0 0 0 0 0 0 127 0" result="hardAlpha"/>
<feOffset dy="15.2788"/>
<feGaussianBlur stdDeviation="6.11153"/>
<feColorMatrix type="matrix" values="0 0 0 0 0.109804 0 0 0 0 0.0509804 0 0 0 0 0.247059 0 0 0 0.0417275 0"/>
<feBlend mode="normal" in2="effect3_dropShadow_1414_890" result="effect4_dropShadow_1414_890"/>
<feColorMatrix in="SourceAlpha" type="matrix" values="0 0 0 0 0 0 0 0 0 0 0 0 0 0 0 0 0 0 127 0" result="hardAlpha"/>
<feOffset dy="28.5774"/>
<feGaussianBlur stdDeviation="11.431"/>
<feColorMatrix type="matrix" values="0 0 0 0 0.109804 0 0 0 0 0.0509804 0 0 0 0 0.247059 0 0 0 0.0503198 0"/>
<feBlend mode="normal" in2="effect4_dropShadow_1414_890" result="effect5_dropShadow_1414_890"/>
<feColorMatrix in="SourceAlpha" type="matrix" values="0 0 0 0 0 0 0 0 0 0 0 0 0 0 0 0 0 0 127 0" result="hardAlpha"/>
<feOffset dy="68.4036"/>
<feGaussianBlur stdDeviation="27.3614"/>
<feColorMatrix type="matrix" values="0 0 0 0 0.109804 0 0 0 0 0.0509804 0 0 0 0 0.247059 0 0 0 0.07 0"/>
<feBlend mode="normal" in2="effect5_dropShadow_1414_890" result="effect6_dropShadow_1414_890"/>
<feBlend mode="normal" in="SourceGraphic" in2="effect6_dropShadow_1414_890" result="shape"/>
</filter>
<filter id="filter4_dddddd_1414_890" x="0.277111" y="118.489" width="226.943" height="240.62" filterUnits="userSpaceOnUse" color-interpolation-filters="sRGB">
<feFlood flood-opacity="0" result="BackgroundImageFix"/>
<feColorMatrix in="SourceAlpha" type="matrix" values="0 0 0 0 0 0 0 0 0 0 0 0 0 0 0 0 0 0 127 0" result="hardAlpha"/>
<feOffset dy="1.8929"/>
<feGaussianBlur stdDeviation="0.757161"/>
<feColorMatrix type="matrix" values="0 0 0 0 0.109804 0 0 0 0 0.0509804 0 0 0 0 0.247059 0 0 0 0.0196802 0"/>
<feBlend mode="normal" in2="BackgroundImageFix" result="effect1_dropShadow_1414_890"/>
<feColorMatrix in="SourceAlpha" type="matrix" values="0 0 0 0 0 0 0 0 0 0 0 0 0 0 0 0 0 0 127 0" result="hardAlpha"/>
<feOffset dy="4.54891"/>
<feGaussianBlur stdDeviation="1.81956"/>
<feColorMatrix type="matrix" values="0 0 0 0 0.109804 0 0 0 0 0.0509804 0 0 0 0 0.247059 0 0 0 0.0282725 0"/>
<feBlend mode="normal" in2="effect1_dropShadow_1414_890" result="effect2_dropShadow_1414_890"/>
<feColorMatrix in="SourceAlpha" type="matrix" values="0 0 0 0 0 0 0 0 0 0 0 0 0 0 0 0 0 0 127 0" result="hardAlpha"/>
<feOffset dy="8.56519"/>
<feGaussianBlur stdDeviation="3.42608"/>
<feColorMatrix type="matrix" values="0 0 0 0 0.109804 0 0 0 0 0.0509804 0 0 0 0 0.247059 0 0 0 0.035 0"/>
<feBlend mode="normal" in2="effect2_dropShadow_1414_890" result="effect3_dropShadow_1414_890"/>
<feColorMatrix in="SourceAlpha" type="matrix" values="0 0 0 0 0 0 0 0 0 0 0 0 0 0 0 0 0 0 127 0" result="hardAlpha"/>
<feOffset dy="15.2788"/>
<feGaussianBlur stdDeviation="6.11153"/>
<feColorMatrix type="matrix" values="0 0 0 0 0.109804 0 0 0 0 0.0509804 0 0 0 0 0.247059 0 0 0 0.0417275 0"/>
<feBlend mode="normal" in2="effect3_dropShadow_1414_890" result="effect4_dropShadow_1414_890"/>
<feColorMatrix in="SourceAlpha" type="matrix" values="0 0 0 0 0 0 0 0 0 0 0 0 0 0 0 0 0 0 127 0" result="hardAlpha"/>
<feOffset dy="28.5774"/>
<feGaussianBlur stdDeviation="11.431"/>
<feColorMatrix type="matrix" values="0 0 0 0 0.109804 0 0 0 0 0.0509804 0 0 0 0 0.247059 0 0 0 0.0503198 0"/>
<feBlend mode="normal" in2="effect4_dropShadow_1414_890" result="effect5_dropShadow_1414_890"/>
<feColorMatrix in="SourceAlpha" type="matrix" values="0 0 0 0 0 0 0 0 0 0 0 0 0 0 0 0 0 0 127 0" result="hardAlpha"/>
<feOffset dy="68.4036"/>
<feGaussianBlur stdDeviation="27.3614"/>
<feColorMatrix type="matrix" values="0 0 0 0 0.109804 0 0 0 0 0.0509804 0 0 0 0 0.247059 0 0 0 0.07 0"/>
<feBlend mode="normal" in2="effect5_dropShadow_1414_890" result="effect6_dropShadow_1414_890"/>
<feBlend mode="normal" in="SourceGraphic" in2="effect6_dropShadow_1414_890" result="shape"/>
</filter>
<filter id="filter5_dddddd_1414_890" x="235.185" y="117.494" width="226.943" height="240.624" filterUnits="userSpaceOnUse" color-interpolation-filters="sRGB">
<feFlood flood-opacity="0" result="BackgroundImageFix"/>
<feColorMatrix in="SourceAlpha" type="matrix" values="0 0 0 0 0 0 0 0 0 0 0 0 0 0 0 0 0 0 127 0" result="hardAlpha"/>
<feOffset dy="1.8929"/>
<feGaussianBlur stdDeviation="0.757161"/>
<feColorMatrix type="matrix" values="0 0 0 0 0.109804 0 0 0 0 0.0509804 0 0 0 0 0.247059 0 0 0 0.0196802 0"/>
<feBlend mode="normal" in2="BackgroundImageFix" result="effect1_dropShadow_1414_890"/>
<feColorMatrix in="SourceAlpha" type="matrix" values="0 0 0 0 0 0 0 0 0 0 0 0 0 0 0 0 0 0 127 0" result="hardAlpha"/>
<feOffset dy="4.54891"/>
<feGaussianBlur stdDeviation="1.81956"/>
<feColorMatrix type="matrix" values="0 0 0 0 0.109804 0 0 0 0 0.0509804 0 0 0 0 0.247059 0 0 0 0.0282725 0"/>
<feBlend mode="normal" in2="effect1_dropShadow_1414_890" result="effect2_dropShadow_1414_890"/>
<feColorMatrix in="SourceAlpha" type="matrix" values="0 0 0 0 0 0 0 0 0 0 0 0 0 0 0 0 0 0 127 0" result="hardAlpha"/>
<feOffset dy="8.56519"/>
<feGaussianBlur stdDeviation="3.42608"/>
<feColorMatrix type="matrix" values="0 0 0 0 0.109804 0 0 0 0 0.0509804 0 0 0 0 0.247059 0 0 0 0.035 0"/>
<feBlend mode="normal" in2="effect2_dropShadow_1414_890" result="effect3_dropShadow_1414_890"/>
<feColorMatrix in="SourceAlpha" type="matrix" values="0 0 0 0 0 0 0 0 0 0 0 0 0 0 0 0 0 0 127 0" result="hardAlpha"/>
<feOffset dy="15.2788"/>
<feGaussianBlur stdDeviation="6.11153"/>
<feColorMatrix type="matrix" values="0 0 0 0 0.109804 0 0 0 0 0.0509804 0 0 0 0 0.247059 0 0 0 0.0417275 0"/>
<feBlend mode="normal" in2="effect3_dropShadow_1414_890" result="effect4_dropShadow_1414_890"/>
<feColorMatrix in="SourceAlpha" type="matrix" values="0 0 0 0 0 0 0 0 0 0 0 0 0 0 0 0 0 0 127 0" result="hardAlpha"/>
<feOffset dy="28.5774"/>
<feGaussianBlur stdDeviation="11.431"/>
<feColorMatrix type="matrix" values="0 0 0 0 0.109804 0 0 0 0 0.0509804 0 0 0 0 0.247059 0 0 0 0.0503198 0"/>
<feBlend mode="normal" in2="effect4_dropShadow_1414_890" result="effect5_dropShadow_1414_890"/>
<feColorMatrix in="SourceAlpha" type="matrix" values="0 0 0 0 0 0 0 0 0 0 0 0 0 0 0 0 0 0 127 0" result="hardAlpha"/>
<feOffset dy="68.4036"/>
<feGaussianBlur stdDeviation="27.3614"/>
<feColorMatrix type="matrix" values="0 0 0 0 0.109804 0 0 0 0 0.0509804 0 0 0 0 0.247059 0 0 0 0.07 0"/>
<feBlend mode="normal" in2="effect5_dropShadow_1414_890" result="effect6_dropShadow_1414_890"/>
<feBlend mode="normal" in="SourceGraphic" in2="effect6_dropShadow_1414_890" result="shape"/>
</filter>
<filter id="filter6_dddddd_1414_890" x="235.185" y="0" width="226.943" height="240.62" filterUnits="userSpaceOnUse" color-interpolation-filters="sRGB">
<feFlood flood-opacity="0" result="BackgroundImageFix"/>
<feColorMatrix in="SourceAlpha" type="matrix" values="0 0 0 0 0 0 0 0 0 0 0 0 0 0 0 0 0 0 127 0" result="hardAlpha"/>
<feOffset dy="1.8929"/>
<feGaussianBlur stdDeviation="0.757161"/>
<feColorMatrix type="matrix" values="0 0 0 0 0.109804 0 0 0 0 0.0509804 0 0 0 0 0.247059 0 0 0 0.0196802 0"/>
<feBlend mode="normal" in2="BackgroundImageFix" result="effect1_dropShadow_1414_890"/>
<feColorMatrix in="SourceAlpha" type="matrix" values="0 0 0 0 0 0 0 0 0 0 0 0 0 0 0 0 0 0 127 0" result="hardAlpha"/>
<feOffset dy="4.54891"/>
<feGaussianBlur stdDeviation="1.81956"/>
<feColorMatrix type="matrix" values="0 0 0 0 0.109804 0 0 0 0 0.0509804 0 0 0 0 0.247059 0 0 0 0.0282725 0"/>
<feBlend mode="normal" in2="effect1_dropShadow_1414_890" result="effect2_dropShadow_1414_890"/>
<feColorMatrix in="SourceAlpha" type="matrix" values="0 0 0 0 0 0 0 0 0 0 0 0 0 0 0 0 0 0 127 0" result="hardAlpha"/>
<feOffset dy="8.56519"/>
<feGaussianBlur stdDeviation="3.42608"/>
<feColorMatrix type="matrix" values="0 0 0 0 0.109804 0 0 0 0 0.0509804 0 0 0 0 0.247059 0 0 0 0.035 0"/>
<feBlend mode="normal" in2="effect2_dropShadow_1414_890" result="effect3_dropShadow_1414_890"/>
<feColorMatrix in="SourceAlpha" type="matrix" values="0 0 0 0 0 0 0 0 0 0 0 0 0 0 0 0 0 0 127 0" result="hardAlpha"/>
<feOffset dy="15.2788"/>
<feGaussianBlur stdDeviation="6.11153"/>
<feColorMatrix type="matrix" values="0 0 0 0 0.109804 0 0 0 0 0.0509804 0 0 0 0 0.247059 0 0 0 0.0417275 0"/>
<feBlend mode="normal" in2="effect3_dropShadow_1414_890" result="effect4_dropShadow_1414_890"/>
<feColorMatrix in="SourceAlpha" type="matrix" values="0 0 0 0 0 0 0 0 0 0 0 0 0 0 0 0 0 0 127 0" result="hardAlpha"/>
<feOffset dy="28.5774"/>
<feGaussianBlur stdDeviation="11.431"/>
<feColorMatrix type="matrix" values="0 0 0 0 0.109804 0 0 0 0 0.0509804 0 0 0 0 0.247059 0 0 0 0.0503198 0"/>
<feBlend mode="normal" in2="effect4_dropShadow_1414_890" result="effect5_dropShadow_1414_890"/>
<feColorMatrix in="SourceAlpha" type="matrix" values="0 0 0 0 0 0 0 0 0 0 0 0 0 0 0 0 0 0 127 0" result="hardAlpha"/>
<feOffset dy="68.4036"/>
<feGaussianBlur stdDeviation="27.3614"/>
<feColorMatrix type="matrix" values="0 0 0 0 0.109804 0 0 0 0 0.0509804 0 0 0 0 0.247059 0 0 0 0.07 0"/>
<feBlend mode="normal" in2="effect5_dropShadow_1414_890" result="effect6_dropShadow_1414_890"/>
<feBlend mode="normal" in="SourceGraphic" in2="effect6_dropShadow_1414_890" result="shape"/>
</filter>
<filter id="filter7_dddddd_1414_890" x="235.185" y="352.485" width="226.943" height="240.62" filterUnits="userSpaceOnUse" color-interpolation-filters="sRGB">
<feFlood flood-opacity="0" result="BackgroundImageFix"/>
<feColorMatrix in="SourceAlpha" type="matrix" values="0 0 0 0 0 0 0 0 0 0 0 0 0 0 0 0 0 0 127 0" result="hardAlpha"/>
<feOffset dy="1.8929"/>
<feGaussianBlur stdDeviation="0.757161"/>
<feColorMatrix type="matrix" values="0 0 0 0 0.109804 0 0 0 0 0.0509804 0 0 0 0 0.247059 0 0 0 0.0196802 0"/>
<feBlend mode="normal" in2="BackgroundImageFix" result="effect1_dropShadow_1414_890"/>
<feColorMatrix in="SourceAlpha" type="matrix" values="0 0 0 0 0 0 0 0 0 0 0 0 0 0 0 0 0 0 127 0" result="hardAlpha"/>
<feOffset dy="4.54891"/>
<feGaussianBlur stdDeviation="1.81956"/>
<feColorMatrix type="matrix" values="0 0 0 0 0.109804 0 0 0 0 0.0509804 0 0 0 0 0.247059 0 0 0 0.0282725 0"/>
<feBlend mode="normal" in2="effect1_dropShadow_1414_890" result="effect2_dropShadow_1414_890"/>
<feColorMatrix in="SourceAlpha" type="matrix" values="0 0 0 0 0 0 0 0 0 0 0 0 0 0 0 0 0 0 127 0" result="hardAlpha"/>
<feOffset dy="8.56519"/>
<feGaussianBlur stdDeviation="3.42608"/>
<feColorMatrix type="matrix" values="0 0 0 0 0.109804 0 0 0 0 0.0509804 0 0 0 0 0.247059 0 0 0 0.035 0"/>
<feBlend mode="normal" in2="effect2_dropShadow_1414_890" result="effect3_dropShadow_1414_890"/>
<feColorMatrix in="SourceAlpha" type="matrix" values="0 0 0 0 0 0 0 0 0 0 0 0 0 0 0 0 0 0 127 0" result="hardAlpha"/>
<feOffset dy="15.2788"/>
<feGaussianBlur stdDeviation="6.11153"/>
<feColorMatrix type="matrix" values="0 0 0 0 0.109804 0 0 0 0 0.0509804 0 0 0 0 0.247059 0 0 0 0.0417275 0"/>
<feBlend mode="normal" in2="effect3_dropShadow_1414_890" result="effect4_dropShadow_1414_890"/>
<feColorMatrix in="SourceAlpha" type="matrix" values="0 0 0 0 0 0 0 0 0 0 0 0 0 0 0 0 0 0 127 0" result="hardAlpha"/>
<feOffset dy="28.5774"/>
<feGaussianBlur stdDeviation="11.431"/>
<feColorMatrix type="matrix" values="0 0 0 0 0.109804 0 0 0 0 0.0509804 0 0 0 0 0.247059 0 0 0 0.0503198 0"/>
<feBlend mode="normal" in2="effect4_dropShadow_1414_890" result="effect5_dropShadow_1414_890"/>
<feColorMatrix in="SourceAlpha" type="matrix" values="0 0 0 0 0 0 0 0 0 0 0 0 0 0 0 0 0 0 127 0" result="hardAlpha"/>
<feOffset dy="68.4036"/>
<feGaussianBlur stdDeviation="27.3614"/>
<feColorMatrix type="matrix" values="0 0 0 0 0.109804 0 0 0 0 0.0509804 0 0 0 0 0.247059 0 0 0 0.07 0"/>
<feBlend mode="normal" in2="effect5_dropShadow_1414_890" result="effect6_dropShadow_1414_890"/>
<feBlend mode="normal" in="SourceGraphic" in2="effect6_dropShadow_1414_890" result="shape"/>
</filter>
<filter id="filter8_dddddd_1414_890" x="352.683" y="234.991" width="226.943" height="240.62" filterUnits="userSpaceOnUse" color-interpolation-filters="sRGB">
<feFlood flood-opacity="0" result="BackgroundImageFix"/>
<feColorMatrix in="SourceAlpha" type="matrix" values="0 0 0 0 0 0 0 0 0 0 0 0 0 0 0 0 0 0 127 0" result="hardAlpha"/>
<feOffset dy="1.8929"/>
<feGaussianBlur stdDeviation="0.757161"/>
<feColorMatrix type="matrix" values="0 0 0 0 0.109804 0 0 0 0 0.0509804 0 0 0 0 0.247059 0 0 0 0.0196802 0"/>
<feBlend mode="normal" in2="BackgroundImageFix" result="effect1_dropShadow_1414_890"/>
<feColorMatrix in="SourceAlpha" type="matrix" values="0 0 0 0 0 0 0 0 0 0 0 0 0 0 0 0 0 0 127 0" result="hardAlpha"/>
<feOffset dy="4.54891"/>
<feGaussianBlur stdDeviation="1.81956"/>
<feColorMatrix type="matrix" values="0 0 0 0 0.109804 0 0 0 0 0.0509804 0 0 0 0 0.247059 0 0 0 0.0282725 0"/>
<feBlend mode="normal" in2="effect1_dropShadow_1414_890" result="effect2_dropShadow_1414_890"/>
<feColorMatrix in="SourceAlpha" type="matrix" values="0 0 0 0 0 0 0 0 0 0 0 0 0 0 0 0 0 0 127 0" result="hardAlpha"/>
<feOffset dy="8.56519"/>
<feGaussianBlur stdDeviation="3.42608"/>
<feColorMatrix type="matrix" values="0 0 0 0 0.109804 0 0 0 0 0.0509804 0 0 0 0 0.247059 0 0 0 0.035 0"/>
<feBlend mode="normal" in2="effect2_dropShadow_1414_890" result="effect3_dropShadow_1414_890"/>
<feColorMatrix in="SourceAlpha" type="matrix" values="0 0 0 0 0 0 0 0 0 0 0 0 0 0 0 0 0 0 127 0" result="hardAlpha"/>
<feOffset dy="15.2788"/>
<feGaussianBlur stdDeviation="6.11153"/>
<feColorMatrix type="matrix" values="0 0 0 0 0.109804 0 0 0 0 0.0509804 0 0 0 0 0.247059 0 0 0 0.0417275 0"/>
<feBlend mode="normal" in2="effect3_dropShadow_1414_890" result="effect4_dropShadow_1414_890"/>
<feColorMatrix in="SourceAlpha" type="matrix" values="0 0 0 0 0 0 0 0 0 0 0 0 0 0 0 0 0 0 127 0" result="hardAlpha"/>
<feOffset dy="28.5774"/>
<feGaussianBlur stdDeviation="11.431"/>
<feColorMatrix type="matrix" values="0 0 0 0 0.109804 0 0 0 0 0.0509804 0 0 0 0 0.247059 0 0 0 0.0503198 0"/>
<feBlend mode="normal" in2="effect4_dropShadow_1414_890" result="effect5_dropShadow_1414_890"/>
<feColorMatrix in="SourceAlpha" type="matrix" values="0 0 0 0 0 0 0 0 0 0 0 0 0 0 0 0 0 0 127 0" result="hardAlpha"/>
<feOffset dy="68.4036"/>
<feGaussianBlur stdDeviation="27.3614"/>
<feColorMatrix type="matrix" values="0 0 0 0 0.109804 0 0 0 0 0.0509804 0 0 0 0 0.247059 0 0 0 0.07 0"/>
<feBlend mode="normal" in2="effect5_dropShadow_1414_890" result="effect6_dropShadow_1414_890"/>
<feBlend mode="normal" in="SourceGraphic" in2="effect6_dropShadow_1414_890" result="shape"/>
</filter>
<filter id="filter9_dddddd_1414_890" x="235.185" y="234.991" width="226.943" height="240.62" filterUnits="userSpaceOnUse" color-interpolation-filters="sRGB">
<feFlood flood-opacity="0" result="BackgroundImageFix"/>
<feColorMatrix in="SourceAlpha" type="matrix" values="0 0 0 0 0 0 0 0 0 0 0 0 0 0 0 0 0 0 127 0" result="hardAlpha"/>
<feOffset dy="1.8929"/>
<feGaussianBlur stdDeviation="0.757161"/>
<feColorMatrix type="matrix" values="0 0 0 0 0.109804 0 0 0 0 0.0509804 0 0 0 0 0.247059 0 0 0 0.0196802 0"/>
<feBlend mode="normal" in2="BackgroundImageFix" result="effect1_dropShadow_1414_890"/>
<feColorMatrix in="SourceAlpha" type="matrix" values="0 0 0 0 0 0 0 0 0 0 0 0 0 0 0 0 0 0 127 0" result="hardAlpha"/>
<feOffset dy="4.54891"/>
<feGaussianBlur stdDeviation="1.81956"/>
<feColorMatrix type="matrix" values="0 0 0 0 0.109804 0 0 0 0 0.0509804 0 0 0 0 0.247059 0 0 0 0.0282725 0"/>
<feBlend mode="normal" in2="effect1_dropShadow_1414_890" result="effect2_dropShadow_1414_890"/>
<feColorMatrix in="SourceAlpha" type="matrix" values="0 0 0 0 0 0 0 0 0 0 0 0 0 0 0 0 0 0 127 0" result="hardAlpha"/>
<feOffset dy="8.56519"/>
<feGaussianBlur stdDeviation="3.42608"/>
<feColorMatrix type="matrix" values="0 0 0 0 0.109804 0 0 0 0 0.0509804 0 0 0 0 0.247059 0 0 0 0.035 0"/>
<feBlend mode="normal" in2="effect2_dropShadow_1414_890" result="effect3_dropShadow_1414_890"/>
<feColorMatrix in="SourceAlpha" type="matrix" values="0 0 0 0 0 0 0 0 0 0 0 0 0 0 0 0 0 0 127 0" result="hardAlpha"/>
<feOffset dy="15.2788"/>
<feGaussianBlur stdDeviation="6.11153"/>
<feColorMatrix type="matrix" values="0 0 0 0 0.109804 0 0 0 0 0.0509804 0 0 0 0 0.247059 0 0 0 0.0417275 0"/>
<feBlend mode="normal" in2="effect3_dropShadow_1414_890" result="effect4_dropShadow_1414_890"/>
<feColorMatrix in="SourceAlpha" type="matrix" values="0 0 0 0 0 0 0 0 0 0 0 0 0 0 0 0 0 0 127 0" result="hardAlpha"/>
<feOffset dy="28.5774"/>
<feGaussianBlur stdDeviation="11.431"/>
<feColorMatrix type="matrix" values="0 0 0 0 0.109804 0 0 0 0 0.0509804 0 0 0 0 0.247059 0 0 0 0.0503198 0"/>
<feBlend mode="normal" in2="effect4_dropShadow_1414_890" result="effect5_dropShadow_1414_890"/>
<feColorMatrix in="SourceAlpha" type="matrix" values="0 0 0 0 0 0 0 0 0 0 0 0 0 0 0 0 0 0 127 0" result="hardAlpha"/>
<feOffset dy="68.4036"/>
<feGaussianBlur stdDeviation="27.3614"/>
<feColorMatrix type="matrix" values="0 0 0 0 0.109804 0 0 0 0 0.0509804 0 0 0 0 0.247059 0 0 0 0.07 0"/>
<feBlend mode="normal" in2="effect5_dropShadow_1414_890" result="effect6_dropShadow_1414_890"/>
<feBlend mode="normal" in="SourceGraphic" in2="effect6_dropShadow_1414_890" result="shape"/>
</filter>
<filter id="filter10_dddddd_1414_890" x="470.181" y="0" width="226.943" height="240.62" filterUnits="userSpaceOnUse" color-interpolation-filters="sRGB">
<feFlood flood-opacity="0" result="BackgroundImageFix"/>
<feColorMatrix in="SourceAlpha" type="matrix" values="0 0 0 0 0 0 0 0 0 0 0 0 0 0 0 0 0 0 127 0" result="hardAlpha"/>
<feOffset dy="1.8929"/>
<feGaussianBlur stdDeviation="0.757161"/>
<feColorMatrix type="matrix" values="0 0 0 0 0.109804 0 0 0 0 0.0509804 0 0 0 0 0.247059 0 0 0 0.0196802 0"/>
<feBlend mode="normal" in2="BackgroundImageFix" result="effect1_dropShadow_1414_890"/>
<feColorMatrix in="SourceAlpha" type="matrix" values="0 0 0 0 0 0 0 0 0 0 0 0 0 0 0 0 0 0 127 0" result="hardAlpha"/>
<feOffset dy="4.54891"/>
<feGaussianBlur stdDeviation="1.81956"/>
<feColorMatrix type="matrix" values="0 0 0 0 0.109804 0 0 0 0 0.0509804 0 0 0 0 0.247059 0 0 0 0.0282725 0"/>
<feBlend mode="normal" in2="effect1_dropShadow_1414_890" result="effect2_dropShadow_1414_890"/>
<feColorMatrix in="SourceAlpha" type="matrix" values="0 0 0 0 0 0 0 0 0 0 0 0 0 0 0 0 0 0 127 0" result="hardAlpha"/>
<feOffset dy="8.56519"/>
<feGaussianBlur stdDeviation="3.42608"/>
<feColorMatrix type="matrix" values="0 0 0 0 0.109804 0 0 0 0 0.0509804 0 0 0 0 0.247059 0 0 0 0.035 0"/>
<feBlend mode="normal" in2="effect2_dropShadow_1414_890" result="effect3_dropShadow_1414_890"/>
<feColorMatrix in="SourceAlpha" type="matrix" values="0 0 0 0 0 0 0 0 0 0 0 0 0 0 0 0 0 0 127 0" result="hardAlpha"/>
<feOffset dy="15.2788"/>
<feGaussianBlur stdDeviation="6.11153"/>
<feColorMatrix type="matrix" values="0 0 0 0 0.109804 0 0 0 0 0.0509804 0 0 0 0 0.247059 0 0 0 0.0417275 0"/>
<feBlend mode="normal" in2="effect3_dropShadow_1414_890" result="effect4_dropShadow_1414_890"/>
<feColorMatrix in="SourceAlpha" type="matrix" values="0 0 0 0 0 0 0 0 0 0 0 0 0 0 0 0 0 0 127 0" result="hardAlpha"/>
<feOffset dy="28.5774"/>
<feGaussianBlur stdDeviation="11.431"/>
<feColorMatrix type="matrix" values="0 0 0 0 0.109804 0 0 0 0 0.0509804 0 0 0 0 0.247059 0 0 0 0.0503198 0"/>
<feBlend mode="normal" in2="effect4_dropShadow_1414_890" result="effect5_dropShadow_1414_890"/>
<feColorMatrix in="SourceAlpha" type="matrix" values="0 0 0 0 0 0 0 0 0 0 0 0 0 0 0 0 0 0 127 0" result="hardAlpha"/>
<feOffset dy="68.4036"/>
<feGaussianBlur stdDeviation="27.3614"/>
<feColorMatrix type="matrix" values="0 0 0 0 0.109804 0 0 0 0 0.0509804 0 0 0 0 0.247059 0 0 0 0.07 0"/>
<feBlend mode="normal" in2="effect5_dropShadow_1414_890" result="effect6_dropShadow_1414_890"/>
<feBlend mode="normal" in="SourceGraphic" in2="effect6_dropShadow_1414_890" result="shape"/>
</filter>
<filter id="filter11_dddddd_1414_890" x="470.181" y="352.485" width="226.943" height="240.62" filterUnits="userSpaceOnUse" color-interpolation-filters="sRGB">
<feFlood flood-opacity="0" result="BackgroundImageFix"/>
<feColorMatrix in="SourceAlpha" type="matrix" values="0 0 0 0 0 0 0 0 0 0 0 0 0 0 0 0 0 0 127 0" result="hardAlpha"/>
<feOffset dy="1.8929"/>
<feGaussianBlur stdDeviation="0.757161"/>
<feColorMatrix type="matrix" values="0 0 0 0 0.109804 0 0 0 0 0.0509804 0 0 0 0 0.247059 0 0 0 0.0196802 0"/>
<feBlend mode="normal" in2="BackgroundImageFix" result="effect1_dropShadow_1414_890"/>
<feColorMatrix in="SourceAlpha" type="matrix" values="0 0 0 0 0 0 0 0 0 0 0 0 0 0 0 0 0 0 127 0" result="hardAlpha"/>
<feOffset dy="4.54891"/>
<feGaussianBlur stdDeviation="1.81956"/>
<feColorMatrix type="matrix" values="0 0 0 0 0.109804 0 0 0 0 0.0509804 0 0 0 0 0.247059 0 0 0 0.0282725 0"/>
<feBlend mode="normal" in2="effect1_dropShadow_1414_890" result="effect2_dropShadow_1414_890"/>
<feColorMatrix in="SourceAlpha" type="matrix" values="0 0 0 0 0 0 0 0 0 0 0 0 0 0 0 0 0 0 127 0" result="hardAlpha"/>
<feOffset dy="8.56519"/>
<feGaussianBlur stdDeviation="3.42608"/>
<feColorMatrix type="matrix" values="0 0 0 0 0.109804 0 0 0 0 0.0509804 0 0 0 0 0.247059 0 0 0 0.035 0"/>
<feBlend mode="normal" in2="effect2_dropShadow_1414_890" result="effect3_dropShadow_1414_890"/>
<feColorMatrix in="SourceAlpha" type="matrix" values="0 0 0 0 0 0 0 0 0 0 0 0 0 0 0 0 0 0 127 0" result="hardAlpha"/>
<feOffset dy="15.2788"/>
<feGaussianBlur stdDeviation="6.11153"/>
<feColorMatrix type="matrix" values="0 0 0 0 0.109804 0 0 0 0 0.0509804 0 0 0 0 0.247059 0 0 0 0.0417275 0"/>
<feBlend mode="normal" in2="effect3_dropShadow_1414_890" result="effect4_dropShadow_1414_890"/>
<feColorMatrix in="SourceAlpha" type="matrix" values="0 0 0 0 0 0 0 0 0 0 0 0 0 0 0 0 0 0 127 0" result="hardAlpha"/>
<feOffset dy="28.5774"/>
<feGaussianBlur stdDeviation="11.431"/>
<feColorMatrix type="matrix" values="0 0 0 0 0.109804 0 0 0 0 0.0509804 0 0 0 0 0.247059 0 0 0 0.0503198 0"/>
<feBlend mode="normal" in2="effect4_dropShadow_1414_890" result="effect5_dropShadow_1414_890"/>
<feColorMatrix in="SourceAlpha" type="matrix" values="0 0 0 0 0 0 0 0 0 0 0 0 0 0 0 0 0 0 127 0" result="hardAlpha"/>
<feOffset dy="68.4036"/>
<feGaussianBlur stdDeviation="27.3614"/>
<feColorMatrix type="matrix" values="0 0 0 0 0.109804 0 0 0 0 0.0509804 0 0 0 0 0.247059 0 0 0 0.07 0"/>
<feBlend mode="normal" in2="effect5_dropShadow_1414_890" result="effect6_dropShadow_1414_890"/>
<feBlend mode="normal" in="SourceGraphic" in2="effect6_dropShadow_1414_890" result="shape"/>
</filter>
<filter id="filter12_dddddd_1414_890" x="470.181" y="234.991" width="226.943" height="240.62" filterUnits="userSpaceOnUse" color-interpolation-filters="sRGB">
<feFlood flood-opacity="0" result="BackgroundImageFix"/>
<feColorMatrix in="SourceAlpha" type="matrix" values="0 0 0 0 0 0 0 0 0 0 0 0 0 0 0 0 0 0 127 0" result="hardAlpha"/>
<feOffset dy="1.8929"/>
<feGaussianBlur stdDeviation="0.757161"/>
<feColorMatrix type="matrix" values="0 0 0 0 0.109804 0 0 0 0 0.0509804 0 0 0 0 0.247059 0 0 0 0.0196802 0"/>
<feBlend mode="normal" in2="BackgroundImageFix" result="effect1_dropShadow_1414_890"/>
<feColorMatrix in="SourceAlpha" type="matrix" values="0 0 0 0 0 0 0 0 0 0 0 0 0 0 0 0 0 0 127 0" result="hardAlpha"/>
<feOffset dy="4.54891"/>
<feGaussianBlur stdDeviation="1.81956"/>
<feColorMatrix type="matrix" values="0 0 0 0 0.109804 0 0 0 0 0.0509804 0 0 0 0 0.247059 0 0 0 0.0282725 0"/>
<feBlend mode="normal" in2="effect1_dropShadow_1414_890" result="effect2_dropShadow_1414_890"/>
<feColorMatrix in="SourceAlpha" type="matrix" values="0 0 0 0 0 0 0 0 0 0 0 0 0 0 0 0 0 0 127 0" result="hardAlpha"/>
<feOffset dy="8.56519"/>
<feGaussianBlur stdDeviation="3.42608"/>
<feColorMatrix type="matrix" values="0 0 0 0 0.109804 0 0 0 0 0.0509804 0 0 0 0 0.247059 0 0 0 0.035 0"/>
<feBlend mode="normal" in2="effect2_dropShadow_1414_890" result="effect3_dropShadow_1414_890"/>
<feColorMatrix in="SourceAlpha" type="matrix" values="0 0 0 0 0 0 0 0 0 0 0 0 0 0 0 0 0 0 127 0" result="hardAlpha"/>
<feOffset dy="15.2788"/>
<feGaussianBlur stdDeviation="6.11153"/>
<feColorMatrix type="matrix" values="0 0 0 0 0.109804 0 0 0 0 0.0509804 0 0 0 0 0.247059 0 0 0 0.0417275 0"/>
<feBlend mode="normal" in2="effect3_dropShadow_1414_890" result="effect4_dropShadow_1414_890"/>
<feColorMatrix in="SourceAlpha" type="matrix" values="0 0 0 0 0 0 0 0 0 0 0 0 0 0 0 0 0 0 127 0" result="hardAlpha"/>
<feOffset dy="28.5774"/>
<feGaussianBlur stdDeviation="11.431"/>
<feColorMatrix type="matrix" values="0 0 0 0 0.109804 0 0 0 0 0.0509804 0 0 0 0 0.247059 0 0 0 0.0503198 0"/>
<feBlend mode="normal" in2="effect4_dropShadow_1414_890" result="effect5_dropShadow_1414_890"/>
<feColorMatrix in="SourceAlpha" type="matrix" values="0 0 0 0 0 0 0 0 0 0 0 0 0 0 0 0 0 0 127 0" result="hardAlpha"/>
<feOffset dy="68.4036"/>
<feGaussianBlur stdDeviation="27.3614"/>
<feColorMatrix type="matrix" values="0 0 0 0 0.109804 0 0 0 0 0.0509804 0 0 0 0 0.247059 0 0 0 0.07 0"/>
<feBlend mode="normal" in2="effect5_dropShadow_1414_890" result="effect6_dropShadow_1414_890"/>
<feBlend mode="normal" in="SourceGraphic" in2="effect6_dropShadow_1414_890" result="shape"/>
</filter>
<filter id="filter13_dddddd_1414_890" x="352.683" y="117.494" width="226.943" height="240.624" filterUnits="userSpaceOnUse" color-interpolation-filters="sRGB">
<feFlood flood-opacity="0" result="BackgroundImageFix"/>
<feColorMatrix in="SourceAlpha" type="matrix" values="0 0 0 0 0 0 0 0 0 0 0 0 0 0 0 0 0 0 127 0" result="hardAlpha"/>
<feOffset dy="1.8929"/>
<feGaussianBlur stdDeviation="0.757161"/>
<feColorMatrix type="matrix" values="0 0 0 0 0.109804 0 0 0 0 0.0509804 0 0 0 0 0.247059 0 0 0 0.0196802 0"/>
<feBlend mode="normal" in2="BackgroundImageFix" result="effect1_dropShadow_1414_890"/>
<feColorMatrix in="SourceAlpha" type="matrix" values="0 0 0 0 0 0 0 0 0 0 0 0 0 0 0 0 0 0 127 0" result="hardAlpha"/>
<feOffset dy="4.54891"/>
<feGaussianBlur stdDeviation="1.81956"/>
<feColorMatrix type="matrix" values="0 0 0 0 0.109804 0 0 0 0 0.0509804 0 0 0 0 0.247059 0 0 0 0.0282725 0"/>
<feBlend mode="normal" in2="effect1_dropShadow_1414_890" result="effect2_dropShadow_1414_890"/>
<feColorMatrix in="SourceAlpha" type="matrix" values="0 0 0 0 0 0 0 0 0 0 0 0 0 0 0 0 0 0 127 0" result="hardAlpha"/>
<feOffset dy="8.56519"/>
<feGaussianBlur stdDeviation="3.42608"/>
<feColorMatrix type="matrix" values="0 0 0 0 0.109804 0 0 0 0 0.0509804 0 0 0 0 0.247059 0 0 0 0.035 0"/>
<feBlend mode="normal" in2="effect2_dropShadow_1414_890" result="effect3_dropShadow_1414_890"/>
<feColorMatrix in="SourceAlpha" type="matrix" values="0 0 0 0 0 0 0 0 0 0 0 0 0 0 0 0 0 0 127 0" result="hardAlpha"/>
<feOffset dy="15.2788"/>
<feGaussianBlur stdDeviation="6.11153"/>
<feColorMatrix type="matrix" values="0 0 0 0 0.109804 0 0 0 0 0.0509804 0 0 0 0 0.247059 0 0 0 0.0417275 0"/>
<feBlend mode="normal" in2="effect3_dropShadow_1414_890" result="effect4_dropShadow_1414_890"/>
<feColorMatrix in="SourceAlpha" type="matrix" values="0 0 0 0 0 0 0 0 0 0 0 0 0 0 0 0 0 0 127 0" result="hardAlpha"/>
<feOffset dy="28.5774"/>
<feGaussianBlur stdDeviation="11.431"/>
<feColorMatrix type="matrix" values="0 0 0 0 0.109804 0 0 0 0 0.0509804 0 0 0 0 0.247059 0 0 0 0.0503198 0"/>
<feBlend mode="normal" in2="effect4_dropShadow_1414_890" result="effect5_dropShadow_1414_890"/>
<feColorMatrix in="SourceAlpha" type="matrix" values="0 0 0 0 0 0 0 0 0 0 0 0 0 0 0 0 0 0 127 0" result="hardAlpha"/>
<feOffset dy="68.4036"/>
<feGaussianBlur stdDeviation="27.3614"/>
<feColorMatrix type="matrix" values="0 0 0 0 0.109804 0 0 0 0 0.0509804 0 0 0 0 0.247059 0 0 0 0.07 0"/>
<feBlend mode="normal" in2="effect5_dropShadow_1414_890" result="effect6_dropShadow_1414_890"/>
<feBlend mode="normal" in="SourceGraphic" in2="effect6_dropShadow_1414_890" result="shape"/>
</filter>
<filter id="filter14_dddddd_1414_890" x="352.683" y="352.485" width="226.943" height="240.62" filterUnits="userSpaceOnUse" color-interpolation-filters="sRGB">
<feFlood flood-opacity="0" result="BackgroundImageFix"/>
<feColorMatrix in="SourceAlpha" type="matrix" values="0 0 0 0 0 0 0 0 0 0 0 0 0 0 0 0 0 0 127 0" result="hardAlpha"/>
<feOffset dy="1.8929"/>
<feGaussianBlur stdDeviation="0.757161"/>
<feColorMatrix type="matrix" values="0 0 0 0 0.109804 0 0 0 0 0.0509804 0 0 0 0 0.247059 0 0 0 0.0196802 0"/>
<feBlend mode="normal" in2="BackgroundImageFix" result="effect1_dropShadow_1414_890"/>
<feColorMatrix in="SourceAlpha" type="matrix" values="0 0 0 0 0 0 0 0 0 0 0 0 0 0 0 0 0 0 127 0" result="hardAlpha"/>
<feOffset dy="4.54891"/>
<feGaussianBlur stdDeviation="1.81956"/>
<feColorMatrix type="matrix" values="0 0 0 0 0.109804 0 0 0 0 0.0509804 0 0 0 0 0.247059 0 0 0 0.0282725 0"/>
<feBlend mode="normal" in2="effect1_dropShadow_1414_890" result="effect2_dropShadow_1414_890"/>
<feColorMatrix in="SourceAlpha" type="matrix" values="0 0 0 0 0 0 0 0 0 0 0 0 0 0 0 0 0 0 127 0" result="hardAlpha"/>
<feOffset dy="8.56519"/>
<feGaussianBlur stdDeviation="3.42608"/>
<feColorMatrix type="matrix" values="0 0 0 0 0.109804 0 0 0 0 0.0509804 0 0 0 0 0.247059 0 0 0 0.035 0"/>
<feBlend mode="normal" in2="effect2_dropShadow_1414_890" result="effect3_dropShadow_1414_890"/>
<feColorMatrix in="SourceAlpha" type="matrix" values="0 0 0 0 0 0 0 0 0 0 0 0 0 0 0 0 0 0 127 0" result="hardAlpha"/>
<feOffset dy="15.2788"/>
<feGaussianBlur stdDeviation="6.11153"/>
<feColorMatrix type="matrix" values="0 0 0 0 0.109804 0 0 0 0 0.0509804 0 0 0 0 0.247059 0 0 0 0.0417275 0"/>
<feBlend mode="normal" in2="effect3_dropShadow_1414_890" result="effect4_dropShadow_1414_890"/>
<feColorMatrix in="SourceAlpha" type="matrix" values="0 0 0 0 0 0 0 0 0 0 0 0 0 0 0 0 0 0 127 0" result="hardAlpha"/>
<feOffset dy="28.5774"/>
<feGaussianBlur stdDeviation="11.431"/>
<feColorMatrix type="matrix" values="0 0 0 0 0.109804 0 0 0 0 0.0509804 0 0 0 0 0.247059 0 0 0 0.0503198 0"/>
<feBlend mode="normal" in2="effect4_dropShadow_1414_890" result="effect5_dropShadow_1414_890"/>
<feColorMatrix in="SourceAlpha" type="matrix" values="0 0 0 0 0 0 0 0 0 0 0 0 0 0 0 0 0 0 127 0" result="hardAlpha"/>
<feOffset dy="68.4036"/>
<feGaussianBlur stdDeviation="27.3614"/>
<feColorMatrix type="matrix" values="0 0 0 0 0.109804 0 0 0 0 0.0509804 0 0 0 0 0.247059 0 0 0 0.07 0"/>
<feBlend mode="normal" in2="effect5_dropShadow_1414_890" result="effect6_dropShadow_1414_890"/>
<feBlend mode="normal" in="SourceGraphic" in2="effect6_dropShadow_1414_890" result="shape"/>
</filter>
<filter id="filter15_dddddd_1414_890" x="705.089" y="234.987" width="226.943" height="240.62" filterUnits="userSpaceOnUse" color-interpolation-filters="sRGB">
<feFlood flood-opacity="0" result="BackgroundImageFix"/>
<feColorMatrix in="SourceAlpha" type="matrix" values="0 0 0 0 0 0 0 0 0 0 0 0 0 0 0 0 0 0 127 0" result="hardAlpha"/>
<feOffset dy="1.8929"/>
<feGaussianBlur stdDeviation="0.757161"/>
<feColorMatrix type="matrix" values="0 0 0 0 0.109804 0 0 0 0 0.0509804 0 0 0 0 0.247059 0 0 0 0.0196802 0"/>
<feBlend mode="normal" in2="BackgroundImageFix" result="effect1_dropShadow_1414_890"/>
<feColorMatrix in="SourceAlpha" type="matrix" values="0 0 0 0 0 0 0 0 0 0 0 0 0 0 0 0 0 0 127 0" result="hardAlpha"/>
<feOffset dy="4.54891"/>
<feGaussianBlur stdDeviation="1.81956"/>
<feColorMatrix type="matrix" values="0 0 0 0 0.109804 0 0 0 0 0.0509804 0 0 0 0 0.247059 0 0 0 0.0282725 0"/>
<feBlend mode="normal" in2="effect1_dropShadow_1414_890" result="effect2_dropShadow_1414_890"/>
<feColorMatrix in="SourceAlpha" type="matrix" values="0 0 0 0 0 0 0 0 0 0 0 0 0 0 0 0 0 0 127 0" result="hardAlpha"/>
<feOffset dy="8.56519"/>
<feGaussianBlur stdDeviation="3.42608"/>
<feColorMatrix type="matrix" values="0 0 0 0 0.109804 0 0 0 0 0.0509804 0 0 0 0 0.247059 0 0 0 0.035 0"/>
<feBlend mode="normal" in2="effect2_dropShadow_1414_890" result="effect3_dropShadow_1414_890"/>
<feColorMatrix in="SourceAlpha" type="matrix" values="0 0 0 0 0 0 0 0 0 0 0 0 0 0 0 0 0 0 127 0" result="hardAlpha"/>
<feOffset dy="15.2788"/>
<feGaussianBlur stdDeviation="6.11153"/>
<feColorMatrix type="matrix" values="0 0 0 0 0.109804 0 0 0 0 0.0509804 0 0 0 0 0.247059 0 0 0 0.0417275 0"/>
<feBlend mode="normal" in2="effect3_dropShadow_1414_890" result="effect4_dropShadow_1414_890"/>
<feColorMatrix in="SourceAlpha" type="matrix" values="0 0 0 0 0 0 0 0 0 0 0 0 0 0 0 0 0 0 127 0" result="hardAlpha"/>
<feOffset dy="28.5774"/>
<feGaussianBlur stdDeviation="11.431"/>
<feColorMatrix type="matrix" values="0 0 0 0 0.109804 0 0 0 0 0.0509804 0 0 0 0 0.247059 0 0 0 0.0503198 0"/>
<feBlend mode="normal" in2="effect4_dropShadow_1414_890" result="effect5_dropShadow_1414_890"/>
<feColorMatrix in="SourceAlpha" type="matrix" values="0 0 0 0 0 0 0 0 0 0 0 0 0 0 0 0 0 0 127 0" result="hardAlpha"/>
<feOffset dy="68.4036"/>
<feGaussianBlur stdDeviation="27.3614"/>
<feColorMatrix type="matrix" values="0 0 0 0 0.109804 0 0 0 0 0.0509804 0 0 0 0 0.247059 0 0 0 0.07 0"/>
<feBlend mode="normal" in2="effect5_dropShadow_1414_890" result="effect6_dropShadow_1414_890"/>
<feBlend mode="normal" in="SourceGraphic" in2="effect6_dropShadow_1414_890" result="shape"/>
</filter>
<clipPath id="clip0_1414_890">
<rect width="86" height="43" fill="white" transform="translate(657.99 154.698)"/>
</clipPath>
</defs>
</svg>
