<svg width="609" height="744" viewBox="0 0 609 744" fill="none" xmlns="http://www.w3.org/2000/svg"><g opacity=".32" fill="#DFE4E8"><path opacity=".4" d="M230.16 197.388c-.485-7.548-1.614-15.04-3.373-22.395-1.824-8.696-3.696-17.688-3.315-26.625.104-2.502.241-4.872.361-7.177.529-9.085.974-16.92-.731-27.179-3.265-19.4973-4.164-22.1168-20.122-36.5385-.64-.5773-1.297-1.188-1.97-1.8147-4.318-3.9603-9.686-8.9104-15.044-10.9302l-.017-.0165c-12.724-4.6924-25.126-10.2182-37.124-16.5415-8.282-4.3592-16.79-8.2735-25.489-11.7264-37.475-14.1221-68.8869 20.6423-80.6657 36.2387-4.3882 5.8343-11.2589 11.0048-17.9155 16.0112-9.474 7.1404-19.27756 14.5099-22.93408 24.2969-6.30381 16.892 7.86898 27.755 20.38308 37.362 1.2317.941 2.4469 1.882 3.6293 2.806 5.1299 4.221 9.9725 8.779 14.4958 13.645 9.2736 9.518 18.8591 19.366 33.1272 24.171 7.6929 2.601 15.6331 4.939 24.0172 7.41 22.3247 6.6 45.3887 13.399 63.6067 25.126 1.791 1.156 4.041 2.758 6.636 4.607 11.004 7.843 27.412 19.55 40.342 19.578 2.343.086 4.674-.358 6.821-1.299 2.147-.942 4.054-2.357 5.578-4.14 6.348-7.344 9.982-37.066 9.703-44.869Zm-10.951 43.78c-11.577 13.408-35.968-3.996-50.536-14.381-2.612-1.866-4.878-3.484-6.702-4.657-18.414-11.859-41.594-18.691-64.0336-25.324-8.3677-2.471-16.2915-4.809-23.968-7.377-13.89-4.689-23.3278-14.389-32.4536-23.775-4.5788-4.914-9.476-9.522-14.66-13.793-1.1824-.924-2.4141-1.865-3.6622-2.823-12.0543-9.244-25.71792-19.727-19.8278-35.484 3.49102-9.326 13.0968-16.5483 22.3896-23.5408C32.4944 84.941 39.464 79.6885 43.9841 73.69c9.7003-12.852 32.9344-38.9592 61.7049-38.8971 5.835.029 11.618 1.1123 17.068 3.1977 8.641 3.4362 17.095 7.3283 25.324 11.66 12.057 6.3501 24.519 11.898 37.306 16.6078 5.062 1.9203 10.299 6.7382 14.502 10.6158.689.6269 1.346 1.2376 1.986 1.8149 15.63 14.1248 16.382 16.2994 19.598 35.5989 1.689 10.078 1.244 17.831.731 26.801-.136 2.304-.273 4.691-.377 7.209-.398 9.135 1.507 18.243 3.347 27.037 1.735 7.259 2.852 14.651 3.341 22.098.31 8.693-3.617 37.163-9.306 43.735Z"/><path opacity=".5" d="M219.987 185.497c-1.059-6.015-2.502-11.957-4.321-17.787-2.286-7.907-4.653-16.077-4.817-24.061-.045-1.942-.074-3.802-.087-5.597.159-8.014-.496-16.024-1.955-23.906-3.271-16.4357-4.613-19.6155-17.944-32.0397-.591-.5447-1.182-1.1219-1.789-1.6994-3.891-3.6958-8.29-7.8865-12.925-9.7895-9.878-4.0213-18.242-7.9408-25.111-11.2315l-3.254-1.5543c-8.631-4.4107-17.541-8.2517-26.673-11.4983-35.1119-11.6317-61.3425 23.3909-68.5549 34.4041-3.4494 5.277-8.855 9.9405-14.0628 14.4561-7.2349 6.2395-14.7007 12.6925-17.2353 20.9515-4.4068 14.426 7.9599 23.705 18.865 31.893.969.71 1.9051 1.42 2.8412 2.13 4.3956 3.516 8.5837 7.285 12.5433 11.286 7.6167 7.441 15.5125 15.112 26.4257 19.515.8218.331 1.66.645 2.5312.944 6.3286 2.153 12.8713 4.176 19.8086 6.314 19.48 6.034 39.618 12.25 55.948 22.08 1.675 1.008 3.679 2.346 6.012 3.898 9.379 6.226 23.342 15.508 34.626 15.532 2.099.077 4.19-.297 6.133-1.096 1.942-.799 3.691-2.006 5.129-3.538 6.793-7.229 9.05-31.817 7.866-39.606Zm-9.065 38.484c-10.354 11.056-31.281-2.85-43.782-11.157-2.332-1.552-4.369-2.906-6.077-3.931-16.495-9.928-36.731-16.178-56.31-22.229-6.9204-2.138-13.4466-4.161-19.7587-6.314-.8384-.282-1.6602-.597-2.4491-.911-10.6173-4.287-18.3818-11.843-25.8836-19.151-4.0113-4.055-8.2542-7.873-12.7076-11.435-.9197-.694-1.8722-1.42-2.8412-2.13-10.478-7.858-22.3521-16.773-18.2767-30.098 2.3856-7.798 9.6865-14.103 16.7237-20.1784 5.3067-4.5975 10.7948-9.3432 14.3762-14.8004 6.0735-9.2878 25.9862-36.0605 53.161-36.0018 4.592.0194 9.151.7797 13.501 2.2516 9.063 3.2273 17.907 7.0404 26.476 11.4154l3.253 1.5547c6.902 3.3072 15.283 7.2264 25.194 11.2808 4.355 1.7873 8.64 5.8624 12.415 9.4592.624.5776 1.215 1.1552 1.79 1.6994 13.068 12.1769 14.246 14.9613 17.468 31.1665 1.435 7.779 2.08 15.684 1.923 23.593.013 1.811.042 3.671.087 5.614.163 8.198 2.563 16.483 4.882 24.488 1.795 5.762 3.222 11.631 4.272 17.574 1.087 7.146-1.203 31.603-7.436 38.24Z"/><path opacity=".7" d="M209.797 173.59c-1.355-4.595-3.237-9.225-5.053-13.707-2.962-7.282-5.76-14.169-6.535-20.986-.162-1.448-.307-2.848-.452-4.231-.591-6.87-1.676-13.689-3.246-20.403-3.261-13.341-4.849-16.8832-15.781-27.5243-.46-.4619-.953-.9404-1.445-1.4354-3.283-3.25-6.993-6.9289-10.953-8.7644-3.714-1.7369-7.264-3.4233-10.682-5.0443-3.697-1.7526-7.23-3.4393-10.714-5.0435-8.38-4.1559-17.101-7.5838-26.067-10.2458-25.2525-6.8533-46.1872 13.2832-56.4443 32.6032-2.7804 4.6696-6.1574 8.9565-10.0454 12.7525-5.2761 5.651-10.2719 10.974-11.6848 17.769-2.4768 11.963 8.1167 19.656 17.4621 26.442l1.9216 1.403c3.6953 2.724 7.1759 5.876 10.558 8.912 6.6492 6.023 13.5283 12.244 22.7158 15.935.6902.281 1.397.546 2.1202.811 4.8818 1.706 9.9448 3.363 15.3198 5.12 16.751 5.484 34.06 11.152 48.585 19.151 1.495.826 3.302 1.916 5.191 3.056 8.264 4.973 19.534 11.746 28.927 11.767 1.896.068 3.786-.248 5.557-.929 1.771-.68 3.386-1.712 4.749-3.033 7.22-7.096 8.233-26.814 5.996-34.375Zm-7.162 33.204c-9.066 8.903-26.004-1.291-37.208-8.048-1.922-1.14-3.729-2.23-5.257-3.073-14.656-8.081-32.048-13.782-48.864-19.283-5.359-1.756-10.422-3.413-15.304-5.12-.6904-.248-1.3807-.496-2.0381-.761-8.9081-3.608-15.6886-9.73-22.2394-15.637-3.3989-3.187-6.9614-6.195-10.673-9.011l-1.9215-1.42c-8.9512-6.489-19.085-13.852-16.8241-24.778 1.3296-6.335 6.1606-11.51 11.2717-16.964 3.9985-3.8979 7.465-8.3074 10.3094-13.1139 8.6219-16.2615 24.993-33.1485 45.012-33.1053 3.223.0153 6.43.4539 9.538 1.3046 8.875 2.646 17.508 6.046 25.805 10.1628 3.484 1.6043 7.017 3.291 10.698 5.0274 3.434 1.6371 6.984 3.3238 10.714 5.0604 3.681 1.7196 7.293 5.2834 10.477 8.4342.492.4949.985.9735 1.461 1.4355 10.686 10.4268 12.11 13.5903 15.323 26.7503 1.551 6.643 2.619 13.39 3.197 20.188.145 1.383.306 2.783.468 4.248.791 7.047 3.769 14.346 6.632 21.415 1.8 4.448 3.666 9.028 5.005 13.558 2.09 7.05 1.128 26.143-5.582 32.73Z"/><path d="M199.591 161.683c-1.72-3.592-3.834-7.218-5.899-10.729-3.474-5.934-6.752-11.537-8.123-16.824-.391-1.532-.766-2.998-1.125-4.431-1.256-4.958-2.43-9.635-4.228-15.319-3.251-10.393-5.315-14.4309-13.603-23.0091l-1.034-1.0885c-2.615-3.0323-5.657-5.6673-9.031-7.8222-7.081-3.9-12.553-6.6611-17.73-8.9442-7.079-3.3585-14.535-5.8559-22.208-7.4387-21.0635-3.9305-37.7313 13.2356-44.3163 30.8353-1.5458 3.7594-3.4892 7.3424-5.7969 10.6874-3.1195 4.866-6.0739 9.468-6.3654 14.966-.4975 9.497 8.4214 15.656 16.2892 21.089l.7884.545c2.8909 1.998 5.6989 4.259 8.4084 6.455 5.731 4.621 11.6591 9.408 19.1536 12.436.542.232 1.118.447 1.693.662 3.107 1.11 6.378 2.27 9.747 3.462 13.709 4.836 29.242 10.319 42.323 16.701 1.216.595 2.563 1.289 3.993 2.033 6.687 3.455 15.757 8.15 23.571 8.167 3.426.132 6.774-1.044 9.367-3.289 7.713-6.897 7.598-21.86 4.126-29.144Zm-5.226 27.924c-7.779 6.946-21.253-.029-31.079-5.121-1.446-.76-2.809-1.455-4.025-2.05-13.163-6.415-28.746-11.914-42.504-16.767-3.369-1.193-6.624-2.352-9.73-3.461-.559-.216-1.118-.431-1.644-.646-7.2645-2.929-13.0941-7.633-18.743-12.189-2.7259-2.212-5.5504-4.489-8.4905-6.537l-.7884-.545c-7.5064-5.185-16.0312-11.064-15.585-19.639.2741-5.053 3.113-9.475 6.1005-14.16 2.377-3.442 4.3759-7.129 5.9621-11 5.7412-15.3627 19.3777-30.3788 36.8143-30.3412 1.899.0034 3.793.1839 5.658.5391 7.547 1.5618 14.881 4.0202 21.846 7.323 5.127 2.2665 10.55 5.0106 17.598 8.878 3.218 2.0903 6.125 4.6234 8.637 7.5247l1.05 1.1055c8.092 8.3959 9.992 12.0879 13.21 22.3499 1.781 5.65 2.956 10.295 4.195 15.219.359 1.45.734 2.916 1.126 4.448 1.435 5.517 4.762 11.22 8.303 17.253 2.032 3.477 4.146 7.07 5.833 10.597 3.177 6.674 3.294 20.913-3.744 27.219Z"/><path d="M185.27 150.689c-.787-1.319-1.524-2.571-2.13-3.741-.684-1.369-1.285-2.777-1.801-4.218-.663-1.988-1.536-3.899-2.603-5.702-.821-1.22-1.726-2.383-2.707-3.479-1.21-1.297-2.267-2.73-3.149-4.27-2.768-5.274-4.978-10.25-6.975-14.831-2.655-6.78-6.515-13.024-11.393-18.428l-.411-.4618c-2.146-2.6699-4.604-5.0735-7.321-7.1598-4.397-3.1124-9.118-5.7389-14.08-7.8335-5.827-2.5541-12.04-4.1142-18.381-4.6157-17.698-1.1084-29.5741 13.8295-32.1568 29.1328-.4 2.419-.9311 4.608-1.4292 6.73-1.1952 5.001-2.2244 9.329-1.1161 14.088 1.5157 6.555 7.8393 10.997 14.7389 15.325 1.8728 1.173 3.6961 2.395 5.5358 3.617 5.0944 3.656 10.5504 6.778 16.2814 9.319.428.166.855.331 1.282.513 9.911 3.775 22.37 8.823 34.417 13.688l5.834 2.367c.855.331 1.71.695 2.564 1.042 5.391 2.251 11.423 4.766 17.476 4.779.543.001 1.102-.031 1.662-.062 2.789-.13 5.45-1.21 7.54-3.062 1.218-1.029 2.197-2.311 2.87-3.756.674-1.446 1.025-3.02 1.031-4.615.01-4.889-2.989-9.965-5.579-14.366Zm.562 21.533c-1.823 1.593-4.134 2.517-6.552 2.619-6.203.481-12.383-2.1-18.381-4.583-.871-.364-1.726-.711-2.564-1.059l-5.851-2.366c-12.048-4.866-24.506-9.914-34.433-13.705-.427-.165-.838-.331-1.249-.496-5.632-2.498-10.994-5.565-16.003-9.154-1.8394-1.239-3.6791-2.461-5.5683-3.65-6.6039-4.147-12.6484-8.357-14.0173-14.303-1.0105-4.38-.0146-8.527 1.1144-13.331.5146-2.155 1.0457-4.376 1.4623-6.845 2.3662-14.0857 12.9567-27.8408 28.7809-27.8067.543.0012 1.103.0024 1.645.053 6.161.4823 12.197 1.9978 17.855 4.4831 4.847 2.0624 9.462 4.6326 13.769 7.6677 2.603 2.0159 4.961 4.3305 7.025 6.8963l.411.4614c4.756 5.2852 8.526 11.3822 11.13 18.0002 1.997 4.614 4.223 9.622 7.008 14.929.941 1.652 2.07 3.19 3.363 4.583.929 1.042 1.79 2.144 2.575 3.298 1.006 1.705 1.829 3.511 2.456 5.388.539 1.506 1.162 2.98 1.866 4.416.639 1.203 1.376 2.472 2.18 3.807 4.032 6.841 8.604 14.587 1.978 20.697Z"/><path d="M173.077 145.016c-.901-.945-1.74-1.947-2.511-3.001-1.251-2.104-2.22-4.365-2.88-6.722-1.128-3.46-2.305-7.034-5.49-9.807-4.372-3.522-8.233-7.636-11.472-12.223-1.033-1.533-2.049-3.115-3.066-4.698-5.443-8.473-11.083-17.226-21.076-20.9514-9.501-3.5266-18.896-2.4606-25.783 2.924-6.6081 5.1877-9.8008 13.4934-8.7351 22.7804 2.1317 18.392 17.5481 24.631 32.4551 30.655 1.036.414 2.055.828 3.074 1.258l.854.347c3.024 1.291 6.114 2.763 9.088 4.168 8.348 3.969 16.992 8.07 26.332 9.309 1.689.245 3.393.381 5.099.406 2.406.178 4.805-.435 6.831-1.747.578-.454 1.055-1.023 1.402-1.671.347-.648.556-1.361.613-2.094.352-3.407-2.339-6.343-4.735-8.933Zm1.702 11.412c-2.653 2.084-8.491 1.298-10.694.997-9.094-1.221-17.607-5.256-25.84-9.159-2.99-1.422-6.096-2.894-9.153-4.201l-.871-.364c-1.019-.413-2.055-.827-3.074-1.257-14.479-5.842-29.4355-11.9-31.4377-29.32-1.0012-8.694 1.9436-16.4574 8.1067-21.2836 6.409-5.0399 15.229-6.0084 24.187-2.6807 9.484 3.527 14.976 12.0493 20.271 20.3083 1.033 1.582 2.05 3.164 3.083 4.714 3.322 4.7 7.276 8.919 11.751 12.536 2.857 2.492 3.903 5.688 5.014 9.082.699 2.501 1.734 4.895 3.077 7.117.814 1.135 1.707 2.21 2.675 3.216 2.149 2.326 4.578 4.981 4.293 7.648-.031.514-.17 1.016-.41 1.472-.239.457-.572.857-.978 1.175Z"/><path opacity=".3" d="M224.376 268.877c-4.327.813-15.948-3.244-25.373-7.297-5.984-2.573-10.922-6.77-15.698-10.83-3.928-3.573-8.211-6.734-12.782-9.434-8.349-4.272-16.978-7.973-25.827-11.078-2.649-.999-5.263-1.985-7.797-2.978-11.448-4.486-23.273-8.52-34.707-12.42-15.2327-5.196-30.9826-10.568-46.0056-17.067l-.6522 1.511c15.0824 6.525 30.8644 11.908 46.1258 17.114 11.419 3.895 23.225 7.922 34.64 12.394 2.54.996 5.16 1.985 7.816 2.986 8.777 3.08 17.336 6.749 25.619 10.983 4.471 2.649 8.661 5.746 12.505 9.244 4.868 4.138 9.903 8.417 16.114 11.088 4.316 1.856 18.027 7.512 24.771 7.527.519.006 1.038-.035 1.55-.123 9.184-1.697 13.008-16.198 13.748-23.63 2.05-20.608.018-42.517-1.947-63.705-.268-2.882-.528-5.732-.782-8.549-.452-8.538-.172-17.099.837-25.589 1.218-13.733 2.477-27.934-1.989-40.143l-1.545.566c4.339 11.864 3.097 25.879 1.896 39.432-1.02 8.586-1.301 17.245-.838 25.88.251 2.816.512 5.668.783 8.555 1.958 21.111 3.982 42.94 1.949 63.391-.698 7.005-4.189 20.655-12.411 22.172Z"/><path opacity=".5" d="M536.993 871.322c-2.446 20.423-3.954 40.783 2.544 63.431-.51.197-1.037.376-1.564.54-6.612-22.945-5.087-43.519-2.608-64.172 2.361-19.601 8.054-35.145 17.757-57.001 17.076-38.466 38.333-86.356 18.144-129.43-11.021-23.53-30.047-41.695-48.449-59.267-1.806-1.732-3.628-3.464-5.417-5.197-7.542-7.482-14.674-15.367-21.367-23.618-10.091-11.989-19.624-23.319-32.385-32.779-9.509-7.033-14.297-14.435-20.346-23.798-.886-1.385-1.804-2.786-2.755-4.236-3.766-5.435-7.916-10.594-12.419-15.435-4.051-4.414-7.847-9.056-11.37-13.902-7.609-10.848-14.46-22.419-21.082-33.626-5.196-8.753-10.555-17.801-16.228-26.439-2.705-4.122-5.262-8.44-7.754-12.61-5.294-8.917-10.785-18.148-17.907-25.9-12.571-13.673-25.836-33.637-40.565-61.06-2.147-3.989-4.524-7.648-7.032-11.506-1.673-2.571-3.411-5.225-5.066-7.978-9.475-16.039-15.499-33.882-17.686-52.385-1.131-9.353 2.21-17.807 5.435-25.981 1.059-2.681 2.15-5.444 3.061-8.191 2.585-8.499 4.539-17.177 5.846-25.964.666-3.817 1.349-7.767 2.131-11.584 8.047-39.473 13.085-72.303-.941-105.4534-2.118-5.3942-3.87-10.9251-5.244-16.555-1.456-6.0981-3.413-12.0653-5.851-17.8405-2.841-5.8873-6.077-11.5756-9.685-17.0256l-.328-.5107c-2.017-3.1982-4.033-6.396-5.885-9.4781-3.229-5.3898-6.821-10.4514-10.298-15.3313-3.788-5.3252-7.691-10.8319-11.166-16.78171-1.999-3.428421-3.965-7.00466-5.883-10.46586-4.012-7.55653-8.41-14.90113-13.178-22.00463l-.771-1.1044c-.377-.5442-.754-1.0883-1.131-1.6157.674.0015 1.349.0194 2.023.0209l.443.6428.787 1.1213c4.8 7.1443 9.226 14.5329 13.26 22.1362 1.917 3.4608 3.884 7.02093864 5.883 10.4325 3.426 5.90071 7.312 11.3744 11.068 16.6666 3.493 4.913 7.101 9.9909 10.379 15.4465 1.836 3.0495 3.853 6.2472 5.803 9.33l.394.6101c3.636 5.5193 6.905 11.2729 9.783 17.2232 2.472 5.8629 4.461 11.9176 5.949 18.104 1.348 5.558 3.073 11.0176 5.163 16.3407 14.206 33.5791 9.134 66.6551 1.037 106.4091-.781 3.817-1.464 7.75-2.13 11.551-1.322 8.864-3.292 17.619-5.896 26.194-.928 2.796-2.036 5.576-3.094 8.273-3.292 8.355-6.402 16.25-5.335 25.191 2.164 18.271 8.115 35.889 17.473 51.727 1.639 2.736 3.361 5.373 5.033 7.945 2.427 3.709 4.919 7.55 7.098 11.604 14.664 27.308 27.846 47.173 40.319 60.731 7.237 7.884 12.777 17.18 18.121 26.163 2.475 4.17 5.032 8.472 7.721 12.561 5.689 8.671 11.065 17.736 16.261 26.505 6.605 11.175 13.44 22.713 21 33.527 3.497 4.786 7.26 9.372 11.271 13.737 4.545 4.91 8.739 10.134 12.55 15.633.968 1.451 1.869 2.868 2.771 4.236 5.968 9.232 10.674 16.518 19.936 23.386 12.926 9.559 22.508 20.971 32.664 33.042 6.668 8.196 13.762 16.036 21.252 23.487 1.79 1.732 3.612 3.465 5.417 5.197 18.518 17.671 37.642 35.934 48.81 59.762 20.501 43.749-.922 92.017-18.147 130.779-9.62 21.708-15.279 37.153-17.624 56.54Z"/><path opacity=".3" d="M523.106 743.486c-1.628 7.272-5.292 13.059-8.841 18.648-2.145 3.258-4.096 6.64-5.845 10.128-6.147 13.007-8.958 27.141-11.685 40.815-2.744 13.789-5.588 28.038-11.851 41.227-4.759 10.047-11.292 18.988-17.595 27.65-7.639 10.485-15.542 21.333-20.587 34.392-2.183 5.642-4.104 11.531-5.975 17.239-2.6 7.946-5.299 16.17-8.721 23.9-.314.724-.645 1.447-.992 2.171h-.016c-.544-.098-1.082-.226-1.611-.383.38-.822.76-1.628 1.123-2.45 3.373-7.663 6.055-15.839 8.655-23.752 1.871-5.724 3.808-11.646 6.009-17.32 5.111-13.274 13.08-24.204 20.785-34.772 6.269-8.595 12.737-17.47 17.446-27.37 6.164-13.007 8.991-27.158 11.718-40.848 2.744-13.773 5.572-28.006 11.818-41.194 1.764-3.557 3.75-7 5.944-10.308 3.631-5.722 7.048-11.13 8.61-18.122 4.086-18.264-7.556-35.985-16.049-48.909-5.525-8.424-10.738-16.83-15.804-24.973-5.147-8.291-10.475-16.863-16.098-25.419-2.23-3.379-4.592-6.758-7.101-10.319-8.265-11.805-16.842-24.005-20.63-37.264-.94-3.485-1.647-7.028-2.116-10.606-1.038-6.801-1.93-12.68-7.064-19.325-7.776-10.042-15.518-20.347-22.998-30.289-7.479-9.942-15.221-20.231-22.981-30.273-5.233-6.744-10.795-13.39-16.16-19.789-6.612-7.882-13.438-16.046-19.736-24.52-21.52-28.953-48.482-66.839-66.054-103.142-5.339-11.024-13.412-20.49-21.206-29.627-6.416-7.52-13.028-15.288-18.043-23.825-11.211-19.136-5.945-43.126-1.309-64.285.714-3.258 1.412-6.433 2.027-9.51l.981-4.838c7.765-38.535 13.917-68.976-.147-107.394-1.488-4.053-2.778-8.286-4.036-12.372-1.865-6.626-4.17-13.1203-6.9-19.4389l1.498-.688c2.762 6.3826 5.095 12.9429 6.982 19.6369 1.241 4.069 2.532 8.286 4.004 12.289 14.211 38.863 7.726 71.031.21 108.283l-.981 4.838c-.615 3.094-1.313 6.285-2.027 9.544-4.585 20.863-9.769 44.523 1.114 63.098 4.933 8.423 11.513 16.124 17.879 23.579 7.86 9.235 15.999 18.767 21.436 29.989 17.523 36.187 44.419 73.992 65.89 102.895 6.265 8.425 13.075 16.555 19.67 24.421 5.382 6.432 10.961 13.078 16.194 19.855 7.792 10.042 15.517 20.331 22.997 30.273 7.496 9.958 15.222 20.247 22.997 30.289 5.397 6.975 6.371 13.348 7.392 20.082.467 3.51 1.157 6.987 2.067 10.409 3.723 12.979 12.201 25.064 20.401 36.752 2.509 3.578 4.887 6.958 7.133 10.37 5.64 8.572 10.968 17.16 16.115 25.451 5.05 8.127 10.279 16.533 15.788 24.924 8.657 13.188 20.511 31.239 16.276 50.177Z"/><path opacity=".4" d="M559.413 757.26c-5.371 26.985-21.692 51.247-37.486 74.719-6.931 10.307-13.944 20.712-20.07 31.448-.557-.109-1.106-.253-1.644-.431 6.192-10.917 13.305-21.487 20.351-31.941 15.694-23.325 31.933-47.455 37.238-74.111 5.87-29.503-2.227-57.999-25.518-89.671l-.935-1.27c-4.494-6.133-9.595-13.074-14.337-18.649-7.515-8.839-15.163-16.79-22.565-24.494-15.379-16-29.905-31.11-41.917-52.355-9.816-17.355-23.026-32.232-34.693-45.344-8.222-9.252-14.911-19.851-21.386-30.088-3.066-4.846-6.23-9.874-9.526-14.704-5.396-8.359-10.034-17.183-13.86-26.368-4.518-10.051-9.2-20.432-16.434-29.814-5.578-7.239-11.88-14.134-17.985-20.814-10.339-11.331-21.055-23.058-28.625-36.836-3.458-6.279-5.728-13.741-7.933-20.94-3.822-12.552-7.775-25.532-18.122-33.34-3.005-2.278-6.061-4.277-9.034-6.21-12.763-8.307-23.802-15.492-16.683-36.909 2.101-5.794 4.666-11.409 7.669-16.79 3.113-5.555 5.735-11.372 7.835-17.383 3.495-11.005 3.879-21.194 4.297-31.992.192-5.136.401-10.452.972-15.932 3.395-33.443 3.866-68.768-15.625-100.6464-3.18-5.176-4.877-11.2043-6.526-17.0354-1.277-5.436-3.222-10.6929-5.79-15.6508-3.753-6.5433-9.645-12.6631-15.34-18.5687-1.642-1.6987-3.234-3.3651-4.744-4.9977-4.585-4.7589-9.471-9.2177-14.628-13.349-5.089-4.0915-9.924-8.48872-14.48-13.16748-2.511-2.688823-5.022-5.52555-7.434-8.26321-11.093-12.58421-22.58-25.58041-39.662-29.76561l.382-1.5959c17.608 4.3013 29.243 17.5124 40.516 30.27748 2.412 2.72157 4.907 5.55828 7.385 8.21372 4.52 4.62622 9.312 8.9792 14.349 13.0357 5.211 4.1754 10.147 8.6839 14.776 13.4973 1.493 1.6164 3.102 3.2825 4.727 4.9651 5.761 5.9881 11.718 12.174 15.586 18.8984 2.623 5.0777 4.622 10.4546 5.953 16.0133 1.345 5.8087 3.475 11.4068 6.331 16.6399 19.736 32.2903 19.28 67.9453 15.852 101.6673-.555 5.431-.764 10.714-.956 15.833-.418 10.897-.818 21.201-4.379 32.42-2.121 6.104-4.776 12.009-7.934 17.646-2.969 5.3-5.5 10.833-7.57 16.544-6.706 20.217 3.315 26.757 16.029 35.031 2.99 1.933 6.078 3.948 9.116 6.259 10.774 8.122 14.808 21.366 18.712 34.165 2.27 7.462 4.41 14.512 7.786 20.643 7.488 13.597 18.122 25.241 28.412 36.507 6.121 6.713 12.456 13.64 18.066 20.912 7.366 9.547 12.081 20.026 16.632 30.16 3.795 9.088 8.384 17.823 13.712 26.105 3.329 4.863 6.493 9.891 9.558 14.753 6.443 10.204 13.099 20.737 21.222 29.874 11.733 13.178 25.009 28.121 34.907 45.641 11.913 21.063 26.373 36.091 41.67 52.025 7.419 7.704 15.084 15.688 22.632 24.56 4.774 5.624 9.892 12.598 14.402 18.731l.951 1.286c23.57 32.069 31.765 60.976 25.795 90.956Z"/><path d="m655.415 978.445-3.372-.007c-25.385-14.261-51.458-29.133-70.03-52.169-18.129-22.477-24.469-34.589-14.107-64.395 6.39-18.407 13.519-36.844 20.417-54.657 5.989-15.51 12.175-31.53 17.885-47.502 1.969-5.511 4.186-11.119 6.352-16.547 12.174-30.658 23.685-59.621-2.284-84.682-8.799-8.497-19.412-14.989-29.679-21.266-8.62-4.981-16.85-10.606-24.622-16.828-8.095-6.849-14.87-15.818-21.431-24.508-3.15-4.171-6.102-8.095-9.17-11.74-15.44-18.371-30.898-35.903-50.249-48.291-3.943-2.527-7.508-4.691-10.958-6.773-14.407-8.723-24.806-15.017-36.102-32.918-3.35-5.089-6.957-10.003-10.808-14.724-4.39-5.312-8.418-10.913-12.055-16.767-2.788-5.056-5.121-10.349-6.973-15.818-2.421-6.524-4.923-13.278-9.138-19.066-5.527-7.633-11.319-14.806-16.897-21.765-5.66-7.041-11.533-14.33-17.011-21.93-3.149-4.386-6.018-8.82-8.789-13.123-4.352-7.053-9.151-13.821-14.366-20.262-2.773-3.282-6.154-6.631-9.749-10.177-7.797-7.705-15.857-15.689-18.997-24.421-4.823-13.426 1.195-19.965 8.813-28.228.775-.838 1.566-1.709 2.374-2.596 12.235-13.538 17.925-27.995 24.508-44.739.893-2.27 1.803-4.572 2.746-6.924 2.017-5.05 4.101-10.082 6.201-15.131 13.262-31.94 26.97-64.981 22.275-99.955-1.801-11.488-4.359-22.8437-7.658-33.9933-2.269-8.3014-4.603-16.8993-6.262-25.4958-2.652-13.7182-4.972-28.5055-7.043-44.6089.559.0503 1.118.0843 1.677.1021 2.039 15.9558 4.359 30.5948 6.979 44.1976 1.659 8.547 3.976 17.0954 6.229 25.3804 3.32 11.214 5.895 22.6359 7.707 34.1909 4.743 35.418-9.048 68.673-22.392 100.827-2.084 5.032-4.167 10.065-6.185 15.098-.943 2.352-1.852 4.655-2.745 6.924-6.633 16.876-12.373 31.464-24.806 45.232-.824.904-1.616 1.758-2.391 2.612-7.815 8.461-12.976 14.063-8.479 26.551 3.025 8.385 10.953 16.221 18.619 23.81 3.595 3.564 7.009 6.946 9.831 10.293 5.272 6.487 10.115 13.31 14.498 20.427 2.754 4.27 5.607 8.704 8.74 13.04 5.461 7.568 11.302 14.84 16.962 21.881 5.594 6.959 11.385 14.165 16.945 21.815 4.347 5.985 6.882 12.839 9.351 19.461 1.82 5.376 4.11 10.581 6.843 15.555 3.609 5.782 7.592 11.322 11.923 16.585 3.896 4.765 7.542 9.729 10.923 14.872 11.066 17.556 20.808 23.453 35.545 32.374 3.466 2.098 7.047 4.262 11.006 6.806 19.549 12.52 35.089 30.134 50.61 48.605 3.101 3.677 6.07 7.635 9.236 11.806 6.496 8.623 13.221 17.527 21.168 24.261 7.711 6.161 15.876 11.731 24.425 16.662 10.334 6.327 21.028 12.868 29.975 21.497 26.741 25.82 14.501 56.659 2.659 86.478-2.15 5.411-4.383 11.003-6.336 16.497-5.709 15.988-11.913 32.025-17.901 47.535-6.881 17.812-14.011 36.217-20.4 54.607-10.131 29.148-4.249 40.371 13.83 62.814 18.736 23.235 45.319 38.157 71.016 52.583.361.198.739.413 1.117.628Z"/><path opacity=".7" d="M562.035 838.601c-9.445 24.129-9.853 37.511-1.856 59.603 7.914 21.845 19.688 39.352 35.555 57.56-.74-.051-1.48-.069-2.237-.054-15.473-17.943-27.016-35.335-34.849-56.95-8.177-22.553-7.769-36.182 1.858-60.754 3.986-10.165 8.516-20.378 13.326-31.199 12.447-27.99 25.307-56.935 28.264-85.489 3.998-38.363-21.308-66.155-43.801-86.089-5.287-4.686-10.804-9.324-16.141-13.797-8.128-6.783-16.518-13.813-24.316-21.254-7.296-7.352-14.01-15.258-20.084-23.649-2.329-3.067-4.74-6.233-7.152-9.25-9.63-12.038-20.55-20.902-32.11-30.293-11.653-9.802-22.445-20.587-32.255-32.235-16.828-19.598-30.495-41.704-40.506-65.522-3.306-7.991-9.214-14.16-14.926-20.131-3.482-3.499-6.748-7.205-9.78-11.1-6.601-9.26-12.719-18.856-18.329-28.748-2.262-3.824-4.507-7.648-6.802-11.39l-1.262-2.093c-3.864-6.712-8.239-13.117-13.086-19.157-3.068-3.611-6.006-6.795-8.994-9.731-11.227-11.054-14.241-17.069-16.051-32.233-1.919-14.625 1.046-29.474 8.431-42.238 6.556-11.674 10.168-23.831 13.996-36.696.63-2.089 1.243-4.178 1.889-6.3.696-2.32 1.408-4.64 2.12-6.943 10.769-35.187 20.924-68.418 11.639-103.319-.93-3.525-1.827-7.116-2.724-10.706-1.963-8.5753-4.355-17.0467-7.167-25.3823-1.455-4.1515-3.14-8.3198-4.76-12.3564-.965-2.4219-1.93-4.8441-2.863-7.2659-1.521-3.9209-2.846-7.4631-4.056-10.824-1.717-4.8103-3.549-9.5879-5.316-14.201-2.911-7.5952-5.905-15.4369-8.503-23.54169-1.699-5.320706-3.349-10.80562-4.933-16.09341-.866-2.8497-1.731-5.7323-2.613-8.615.575.0342 1.151.0683 1.727.0696.833 2.7013 1.649 5.4029 2.45 8.0716 1.6 5.28756 3.25 10.755958 4.949 16.07663 2.566 8.03887 5.559 15.88097 8.454 23.44287 1.767 4.6295 3.599 9.4075 5.332 14.2344 1.21 3.3442 2.535 6.8862 4.04 10.7909.933 2.4054 1.898 4.8272 2.863 7.249 1.62 4.0531 3.305 8.2379 4.777 12.4058 2.943 8.2371 5.128 17.0323 7.232 25.5308.881 3.5901 1.761 7.1811 2.708 10.6891 9.399 35.347-.823 68.807-11.658 104.225-.712 2.303-1.424 4.622-2.12 6.942-.646 2.106-1.259 4.212-1.889 6.284-3.844 12.964-7.49 25.203-14.144 37.041-7.208 12.462-10.101 26.957-8.232 41.234 1.777 14.869 4.545 20.406 15.576 31.262 3.021 2.969 6.008 6.186 9.092 9.83 4.905 6.105 9.33 12.581 13.234 19.371l1.278 2.093c2.279 3.742 4.54 7.566 6.802 11.406 5.582 9.841 11.667 19.387 18.231 28.6 2.992 3.843 6.214 7.5 9.649 10.951 5.826 6.087 11.833 12.372 15.27 20.626 9.934 23.665 23.507 45.629 40.228 65.093 9.752 11.57 20.471 22.288 32.041 32.038 11.626 9.441 22.612 18.354 32.356 30.539 2.428 3.035 4.84 6.2 7.186 9.267 6.014 8.329 12.668 16.176 19.903 23.468 7.764 7.391 16.139 14.406 24.234 21.188 5.336 4.473 10.87 9.111 16.19 13.814 22.772 20.198 48.406 48.386 44.341 87.489-2.991 28.818-15.917 57.877-28.397 85.999-4.81 10.788-9.34 21.001-13.309 31.116Z"/><path d="M491.452 188.125c-1.406-11.477-7.458-19.869-17.04-23.61-11.538-4.519-26.547-1.39-37.358 7.771-8.701 7.389-15.835 20.181-20.444 29.159-5.154 10.047-7.943 21.975-10.633 33.525l-.432 1.892c-2.241 9.691-3.644 19.071-5.012 28.139-.267 1.777-.534 3.521-.784 5.249-.551 3.588-1.233 7.208-1.866 10.729-1.538 7.421-2.582 14.936-3.125 22.496-.757 15.752 4.409 30.414 9.87 45.932l.245.676c4.725 13.442 10.284 21.85 16.97 25.716l.51.298c1.793 1.258 3.896 2.003 6.082 2.153 1.098-.007 2.186-.217 3.209-.619 1.646-.628 3.129-1.623 4.334-2.91 1.206-1.287 2.103-2.831 2.624-4.516 1.027-3.42 1.598-6.961 1.7-10.531l.203-2.798c.176-3.77.591-7.524 1.242-11.241 1.925-8.888 4.687-17.574 8.248-25.942l.711-1.76c5.722-13.782 11.641-28.041 18.282-41.13 7.054-13.895 15.949-34.715 18.247-54.991.469-4.114 1.3-8.211 2.115-12.193.349-1.695.698-3.39 1.015-5.085.739-3.744 1.176-7.541 1.307-11.355.051-1.688-.022-3.377-.22-5.054Zm-2.699 16.11c-.316 1.678-.665 3.356-1.014 5.051-.815 4.015-1.663 8.161-2.149 12.341-2.264 20.029-11.076 40.653-18.081 54.432-6.657 13.138-12.594 27.43-18.315 41.246l-.728 1.743c-3.594 8.47-6.384 17.261-8.331 26.255-.668 3.792-1.094 7.624-1.274 11.471l-.204 2.781c-.508 6.88-1.033 13.99-7.619 16.527-.825.341-1.708.518-2.6.522-1.898-.151-3.718-.821-5.26-1.938l-.526-.297c-6.325-3.652-11.637-11.779-16.231-24.843l-.246-.675c-5.395-15.354-10.512-29.867-9.772-45.29.536-7.488 1.569-14.932 3.091-22.282.65-3.521 1.315-7.174 1.866-10.778.267-1.728.534-3.472.801-5.25 1.352-9.051 2.754-18.398 4.979-28.006l.448-1.909c2.657-11.435 5.413-23.265 10.484-33.131 4.543-8.862 11.578-21.473 20.049-28.648 6.982-5.979 15.836-9.32 25.024-9.445 3.641-.028 7.255.627 10.655 1.933 9.007 3.526 14.698 11.439 16.023 22.274.184 1.606.252 3.224.204 4.84-.128 3.72-.554 7.424-1.274 11.076ZM989.951 736.016c-.28.543-.528 1.085-.743 1.48-7.775-2.47-15.716-4.66-23.788-6.899-6.247-1.726-12.708-3.517-19.152-5.458-15.65-4.708-30.539-11.539-44.951-18.171-7.461-3.424-15.185-6.963-22.91-10.173-19.492-8.092-40.173-14.03-60.18-19.769-27.273-7.828-55.484-15.923-81.034-29.591-21.935-11.719-44.743-22.847-66.779-33.594-24.961-12.186-50.761-24.769-75.357-38.271-.558-.314-1.363-.777-2.366-1.355-6.686-3.85-27.01-15.581-32.348-11.494-1.434 1.1-1.686 3.47-.739 7.027 4.503 16.998 24.09 34.424 29.985 39.375l1.265 1.056c13.612 11.404 26.469 22.165 36.982 36.657l1.247 1.715c22.551 31.079 43.856 60.426 27.204 100.671-9.045 21.874-16.975 45.265-24.64 67.883-3.874 11.399-7.863 23.177-11.968 34.642-1.042 2.928-2.2 5.954-3.441 9.162-4.384 11.431-9.363 24.359-9.617 35.206-.342 13.942 9.198 21.634 20.25 30.547l.657.528c6.809 5.257 13.947 10.072 21.37 14.417 4.288 2.626 8.707 5.352 12.945 8.209 5.121 3.584 9.922 7.604 14.351 12.015-.444.065-.955.163-1.563.276-.141.036-.284.063-.428.082-4.118-4.029-8.561-7.711-13.284-11.008-4.205-2.841-8.608-5.55-12.879-8.176-7.488-4.378-14.686-9.232-21.551-14.533l-.657-.528c-10.904-8.798-21.216-17.117-20.856-31.866.255-11.127 5.3-24.203 9.733-35.749 1.225-3.207 2.399-6.234 3.425-9.128 4.088-11.449 8.078-23.227 11.952-34.626 7.665-22.634 15.611-46.059 24.689-67.982 16.288-39.39-4.738-68.374-27.027-99.074l-1.246-1.714c-10.382-14.328-23.174-25.022-36.704-36.36l-1.264-1.056c-5.993-5.018-25.892-22.757-30.527-40.216-1.125-4.266-.691-7.211 1.335-8.755 5.504-4.219 21.146 3.865 34.159 11.367 1.002.578 1.79 1.041 2.349 1.338 24.563 13.486 50.346 26.069 75.274 38.221 22.069 10.764 44.878 21.909 66.846 33.644 25.402 13.586 53.514 21.663 80.705 29.459 20.056 5.755 40.77 11.693 60.361 19.818 7.757 3.227 15.497 6.783 22.975 10.206 14.346 6.599 29.202 13.43 44.737 18.089 6.412 1.924 12.872 3.715 19.103 5.457 8.187 2.257 16.226 4.496 24.1 6.999Z"/><path d="m1025.84 732.719-.57 1.546c-15.5-5.712-31.691-9.303-47.361-12.794-10.144-2.261-20.634-4.588-30.811-7.457-12.198-3.451-23.865-9.007-35.138-14.365-12.473-5.936-25.373-12.055-39.118-15.443-5.507-1.345-10.977-2.668-16.408-3.97-23.61-5.647-45.921-10.98-69.508-19.426-31.28-11.179-60.739-27.704-89.212-43.684-28.67-16.079-58.31-32.719-89.722-43.817-13.067-4.62-25.212-10.145-38.08-16.016-7.674-3.49-15.612-7.112-23.78-10.521-1.545-.645-3.549-1.67-5.866-2.86-7.444-3.819-18.716-9.605-24.742-7.231-.864.352-1.638.894-2.266 1.584-.628.691-1.093 1.514-1.361 2.408-.96 2.681 4.564 11.846 16.424 27.263.574.742 1.033 1.335 1.345 1.764 13.103 17.367 28.215 33.12 45.02 46.93 4.007 3.252 8.211 6.536 12.284 9.706 24.42 18.983 49.661 38.627 55.431 70.97 3.982 22.297-5.447 46.952-13.752 68.712-2.101 5.494-4.086 10.675-5.824 15.725-12.895 37.323-21.939 66.16-29.318 93.52-.299 1.119-.597 2.254-.912 3.356-3.581 12.964-6.963 25.204.691 37.945 9.13 15.23 23.787 22.751 39.315 30.72l2.81 1.438c2.612 1.355 5.17 2.782 7.672 4.28-.606.251-1.189.553-1.745.901-2.185-1.305-4.414-2.544-6.687-3.718l-2.81-1.438c-15.035-7.72-30.579-15.705-39.971-31.33-7.999-13.351-4.534-25.92-.87-39.229.315-1.119.63-2.238.929-3.357 7.379-27.392 16.439-56.262 29.334-93.618 1.755-5.083 3.74-10.28 5.841-15.774 8.238-21.563 17.585-46.005 13.684-67.841-5.672-31.733-30.65-51.162-54.824-69.964-4.073-3.17-8.293-6.454-12.3-9.722-16.92-13.893-32.132-29.746-45.316-47.227-.312-.412-.771-1.006-1.329-1.731-9.104-11.856-18.206-24.534-16.684-28.827.351-1.116.944-2.141 1.737-3.002.792-.86 1.764-1.535 2.847-1.976 6.717-2.653 17.924 3.1 26.107 7.299 2.284 1.174 4.255 2.199 5.735 2.811 8.184 3.425 16.138 7.048 23.829 10.537 12.835 5.855 24.963 11.363 37.948 15.967 31.544 11.147 61.249 27.804 89.985 43.933 28.407 15.947 57.801 32.438 88.966 43.568 23.505 8.413 45.766 13.729 69.327 19.376 5.442 1.296 10.9 2.608 16.425 3.97 13.892 3.421 26.874 9.589 39.413 15.542 11.224 5.342 22.825 10.865 34.892 14.265 10.127 2.87 20.584 5.197 30.712 7.441 15.735 3.508 31.982 7.115 47.582 12.861Z"/><path d="M1067.09 376.089c-10.63-16.418-28.16-24.275-45.14-31.868-6.16-2.762-12.54-5.623-18.45-8.846-2.88-1.554-5.917-3.124-9.039-4.744-13.539-6.976-28.87-14.894-37.729-26.14-8.53-10.834-10.885-25.012-13.158-38.713-.926-5.566-1.884-11.329-3.254-16.715-4.665-18.513-15.255-27.853-30.83-36.924-14.737-8.575-29.373-18.236-43.516-27.568-24.163-15.954-49.131-32.436-75.623-44.23-11.405-5.078-23.106-10.553-34.428-15.828-42.497-19.862-86.439-40.3858-132.299-49.3243-9.52-1.8641-17.781-.3017-24.553 4.6386-17.975 13.1303-22.013 47.3777-24.426 67.8337-2.916 24.752-8.744 49.826-14.373 74.079-7.272 31.244-14.793 63.558-16.03 95.194-.922 23.62-12.119 43.761-22.962 60.348-11.652 17.835-19.92 37.637-26.771 64.223-.597 2.32-1.26 4.706-1.907 7.124-5.223 19.018-11.125 40.603 2.08 57.636 9.432 12.185 28.482 19.65 45.296 26.239 6.032 2.367 11.719 4.601 16.451 6.867 21.609 10.318 43.745 20.556 65.142 30.446l13.442 6.218c17.847 8.269 35.166 17.097 51.926 25.644 33.028 16.813 64.216 32.699 99.573 44.99 17.079 5.93 34.661 6.939 51.668 7.914 14.261.805 28.998 1.643 43.449 5.378 19.367 4.997 34.658 16.108 49.456 26.857 7.342 5.333 14.93 10.847 22.98 15.622l.263.1c1.493.316 3.013.485 4.539.503 5.971.013 9.794-2.959 14.854-7.425 37.519 3.225 49.839-36.14 60.719-70.9 4.14-13.259 8.07-25.761 13.09-35.281 1.62-3.075 3.24-6.051 4.84-8.978 8.03-14.699 15.61-28.576 18.01-46.514 1.78-15.417 2.77-30.914 2.98-46.431.37-12.773.77-25.991 2.09-38.828 2.57-24.917 4.25-53.128-8.36-72.597Zm6.73 72.429c-1.34 12.903-1.73 26.153-2.1 38.959-.2 15.458-1.2 30.895-2.98 46.25-2.34 17.642-9.86 31.388-17.82 45.939-1.6 2.943-3.23 5.919-4.85 8.993-5.09 9.652-9.03 22.237-13.19 35.562-10.73 34.266-22.84 73.138-59.353 69.734l-.362-.034-.264.23c-6.131 5.436-10.019 8.423-18.109 6.792-7.952-4.708-15.474-10.173-22.75-15.457-14.913-10.83-30.335-22.041-50.015-27.121-14.599-3.768-29.418-4.606-43.744-5.428-16.909-.958-34.376-1.967-51.241-7.831-35.242-12.241-66.381-28.111-99.343-44.89-16.777-8.547-34.129-17.392-52.008-25.661l-13.443-6.218c-21.38-9.907-43.499-20.128-65.108-30.463-4.782-2.282-10.502-4.517-16.567-6.9-16.6-6.505-35.436-13.904-44.589-25.71-12.697-16.39-6.91-37.547-1.804-56.203.664-2.435 1.327-4.821 1.924-7.157 6.801-26.389 15.003-46.043 26.539-63.731 10.976-16.767 22.304-37.154 23.244-61.17 1.236-31.488 8.724-63.719 15.98-94.898 5.646-24.285 11.49-49.409 14.422-74.259 2.38-20.193 6.368-53.9796 23.75-66.6836 6.392-4.6609 14.226-6.1254 23.269-4.3613 45.662 8.9056 89.506 29.3959 131.92 49.1919 11.323 5.292 23.04 10.766 34.462 15.844 26.36 11.745 51.279 28.194 75.376 44.099 14.16 9.347 28.812 19.025 43.599 27.634 17.94 10.442 26.095 20.172 30.075 35.901 1.337 5.32 2.295 11.051 3.205 16.584 2.306 13.915 4.693 28.29 13.502 39.47 9.072 11.51 24.583 19.511 38.254 26.57 3.122 1.62 6.146 3.173 9.019 4.727 5.97 3.256 12.38 6.117 18.57 8.896 16.75 7.493 34.05 15.251 44.41 31.258 12.33 19.039 10.66 46.904 8.12 71.542Z"/><path d="M1016.39 384.243c-9.56-13.716-24.534-20.629-39.012-27.311-5.127-2.365-10.435-4.813-15.397-7.523-2.514-1.372-5.176-2.76-7.92-4.182-11.436-5.934-24.401-12.679-32.161-21.963-7.482-9.004-10.072-20.648-12.565-31.897-1.01-4.578-2.069-9.321-3.425-13.752-4.1-13.343-11.731-21.902-27.224-30.562-17.202-9.634-34.072-20.831-50.384-31.649-18.808-12.485-38.24-25.4-57.941-35.665-9.153-4.761-18.288-9.784-27.111-14.643-10.302-5.652-20.028-11.007-29.888-16.049-4.009-2.05-8.034-4.166-12.06-6.281-24.581-12.877-50-26.199-78.172-29.437-34.701-3.977-40.835 41.295-44.112 65.635-2.96 22.332-7.878 44.939-12.646 66.806-1.894 8.654-3.838 17.605-5.6 26.26-3.974 19.647-7.667 38.865-9.14 58.024-1.64 20.54-11.629 37.836-22.207 53.467-7.143 10.579-13.035 21.952-17.559 33.889-2.796 7.303-5.396 15.1-7.749 23.194-.497 1.678-1.011 3.389-1.524 5.116-5.253 17.455-11.201 37.229.379 53.089 8.66 11.838 26.179 19.202 41.628 25.704 4.717 1.969 9.154 3.839 13.033 5.708 19.095 9.177 38.865 17.944 57.961 26.43 4.454 1.968 8.907 3.954 13.328 5.922 5.801 2.564 11.701 5.293 17.584 8.071 11.602 5.556 23.714 10.768 35.432 15.797 4.996 2.151 9.921 4.285 14.774 6.402 23.002 10.157 46.548 19.034 70.529 26.59 15.584 4.824 31.521 6.159 46.916 7.427 5.625.473 11.447.963 17.186 1.601 7.682.8 15.298 2.142 22.791 4.016 13.975 3.602 25.853 10.311 35.644 16.39 3.582 2.23 7.163 4.592 10.629 6.871 6.829 4.689 13.909 9.002 21.209 12.919l.23.082c1.295.256 2.611.391 3.93.404 5.626.013 9.399-2.646 14.03-6.455.773.034 1.513.052 2.253.054 30.301.065 41.244-32.636 50.914-61.588 3.675-10.988 7.137-21.351 11.427-29.458 1.24-2.351 2.5-4.652 3.72-6.922 7.03-12.956 13.66-25.189 16.09-40.723 3.89-24.914 4.5-49.803 4.61-68.7.02-2.683.08-5.35.15-8 .54-22.617-.61-45.929-12.58-63.108Zm10.93 63.071c-.07 2.65-.12 5.333-.15 8.017-.1 18.848-.72 43.654-4.59 68.469-2.38 15.255-8.94 27.372-15.91 40.197-1.22 2.269-2.47 4.571-3.71 6.923-4.364 8.221-7.857 18.666-11.549 29.72-9.752 29.182-20.795 62.279-51.832 60.384l-.329-.017-.247.197c-5.521 4.581-9.425 7.272-16.743 5.939-7.205-3.878-14.197-8.141-20.946-12.77-3.482-2.295-7.063-4.673-10.661-6.903-9.906-6.145-21.916-12.937-36.104-16.589-7.569-1.891-15.262-3.245-23.021-4.05-5.756-.655-11.595-1.145-17.236-1.601-15.312-1.284-31.151-2.586-46.57-7.377-23.917-7.546-47.402-16.4-70.348-26.523-4.849-2.117-9.795-4.251-14.791-6.402-11.702-5.029-23.798-10.241-35.383-15.764-5.883-2.795-11.799-5.524-17.6-8.104-4.437-1.969-8.88-3.943-13.328-5.922-19.097-8.47-38.851-17.237-57.929-26.398-3.911-1.885-8.381-3.771-13.098-5.74-15.268-6.42-32.558-13.7-40.939-25.159-11.104-15.202-5.288-34.564-.135-51.64.513-1.727 1.027-3.455 1.524-5.132 2.337-8.062 4.936-15.826 7.699-23.063 4.496-11.821 10.332-23.087 17.394-33.577 10.694-15.812 20.815-33.338 22.472-54.241 1.473-19.076 5.149-38.245 9.123-57.825 1.762-8.655 3.706-17.589 5.584-26.228 4.785-21.916 9.719-44.556 12.679-66.954 3.193-23.763 9.128-68.032 42.299-64.207 27.876 3.188 53.147 16.445 77.581 29.255 4.042 2.116 8.067 4.232 12.093 6.281 9.843 5.026 19.553 10.381 29.838 16.033 8.84 4.858 17.975 9.882 27.144 14.659 19.619 10.216 39.035 23.114 57.794 35.566 16.327 10.851 33.23 22.065 50.498 31.715 15.066 8.428 22.484 16.741 26.437 29.606 1.356 4.382 2.399 9.075 3.392 13.621 2.542 11.462 5.165 23.287 12.909 32.605 7.99 9.548 21.103 16.359 32.687 22.375 2.711 1.406 5.373 2.794 7.887 4.166 5.011 2.727 10.335 5.191 15.479 7.573 14.281 6.598 29.036 13.412 38.356 26.75 11.71 16.799 12.82 39.798 12.28 62.135ZM511.625 125.368c-18.251-11.826-47.058-10.16-64.365-1.719-9.419 4.605-19.082 15.481-27.607 25.093-3.002 3.368-5.838 6.572-8.492 9.299-9.414 9.724-13.639 23.592-17.731 37-1.027 3.355-2.07 6.826-3.18 10.133-4.818 14.327-6.857 29.188-8.829 43.538l-.384 2.748c-1.154 7.27-2.73 14.467-4.718 21.554-2.455 9.444-4.976 19.183-5.441 28.779-.758 15.835 6.415 30.731 13.358 45.133 3.948 7.698 7.333 15.672 10.131 23.858 6.682 21.513 19.184 44.29 32.624 59.431.755.857 1.493 1.764 2.248 2.688 3.38 4.106 7.12 8.674 12.664 8.686 1.307-.01 2.604-.241 3.834-.683 7.803-2.683 9.608-8.21 9.621-14.021-.058-2.642-.295-5.277-.707-7.886-.195-1.384-.373-2.701-.485-3.952-.583-6.154-.487-12.353.286-18.486 1.875-12.452 5.78-24.511 11.559-35.696 4.147-8.288 7.784-16.725 11.306-24.865 4.753-11.611 10.149-22.948 16.161-33.958 15.141-26.437 23.165-62.948 20.467-93.029-.885-9.434 2.112-18.284 5.818-28.07l.496-1.3c2.216-5.436 4.032-11.027 5.432-16.729.628-2.741 1.003-5.534 1.12-8.344.349-5.787-.879-11.561-3.554-16.704-2.675-5.144-6.695-9.463-11.632-12.498Zm13.541 29.149c-.117 2.709-.475 5.402-1.07 8.047-1.398 5.62-3.191 11.133-5.366 16.5l-.496 1.299c-3.788 9.967-6.835 19.015-5.935 28.795 2.683 29.768-5.258 65.9-20.251 92.074-6.039 11.06-11.462 22.446-16.243 34.106-3.505 8.141-7.142 16.545-11.256 24.783-5.872 11.347-9.833 23.585-11.725 36.223-.795 6.252-.897 12.573-.304 18.847.113 1.268.307 2.634.502 4.018 1.069 7.821 2.283 16.664-7.824 20.148-6.668 2.274-10.556-2.475-14.69-7.505-.755-.94-1.526-1.863-2.297-2.738-13.276-14.975-25.647-37.521-32.28-58.82-2.813-8.268-6.226-16.319-10.213-24.089-6.861-14.221-13.936-28.919-13.195-44.326.448-9.431 2.952-19.089 5.391-28.45 2.002-7.154 3.594-14.416 4.768-21.752l.368-2.748c1.971-14.268 3.994-29.046 8.745-43.241 1.126-3.323 2.186-6.794 3.214-10.167 4.025-13.226 8.2-26.896 17.334-36.325 2.687-2.76 5.523-5.964 8.541-9.365 8.426-9.497 17.957-20.242 27.097-24.699 9.801-4.47 20.466-6.724 31.236-6.6 11.301.025 22.679 2.502 31.516 8.217 4.694 2.886 8.516 6.994 11.058 11.885 2.542 4.89 3.708 10.381 3.375 15.883Z"/><path d="M449.263 224.347c-.976-1.038-2.179-1.835-3.515-2.329-.827-.345-1.721-.503-2.617-.463-.896.041-1.772.28-2.565.699-6.143 3.148-9.609 16.227-11.898 24.897-.563 2.106-1.044 3.916-1.425 5.051-2.005 6.177-3.645 12.467-4.91 18.838-.714 3.241-1.462 6.597-2.275 9.871-.348 1.35-.713 2.649-1.061 3.933-1.641 5.84-3.167 11.367-1.635 18.087.864 3.804 2.126 5.684 3.837 5.737h.082c3.422.008 5.84-7.675 6.122-8.563 1.316-3.895 3.109-7.613 5.337-11.067.858-1.463 1.733-2.943 2.543-4.472 2.06-4.328 3.457-8.943 4.142-13.687.466-2.452.965-4.969 1.661-7.388 1.941-7.289 4.687-14.339 8.188-21.02 2.378-4.423 4.47-13.258-.011-18.124Zm-1.452 17.348c-3.549 6.781-6.334 13.935-8.303 21.332-.713 2.5-1.212 5.051-1.695 7.535-.647 4.586-1.988 9.045-3.976 13.227-.809 1.512-1.668 2.959-2.51 4.406-2.295 3.576-4.143 7.42-5.502 11.446-1.226 4.013-3.29 7.384-4.54 7.381h-.033c-.609-.018-1.544-1.205-2.293-4.466-1.434-6.291-.025-11.392 1.616-17.281.365-1.283.73-2.599 1.078-3.965.83-3.291 1.561-6.664 2.291-9.921 1.255-6.307 2.872-12.537 4.844-18.657.414-1.185.895-3.027 1.459-5.166 2.089-7.864 5.572-21.042 11.073-23.845.636-.345 1.349-.525 2.073-.522.603.007 1.2.126 1.76.349 1.103.408 2.097 1.063 2.907 1.916 3.906 4.239 1.931 12.202-.249 16.231Z"/><path d="M499.177 138.214c-15.001-8.609-38.789-7.903-55.308 1.642-9.075 5.231-17.917 16.373-25.719 26.2-1.797 2.268-3.529 4.454-5.162 6.442-7.9 9.563-11.613 22.478-15.209 34.947-.796 2.797-1.592 5.561-2.436 8.292-3.976 12.963-5.831 26.128-7.618 38.849l-.451 3.126c-.869 6.172-2.379 12.457-3.84 18.544-2.058 8.556-4.183 17.407-4.596 26.098-.707 14.682 5.383 28.589 11.276 42.05 2.912 6.356 5.501 12.856 7.755 19.475 6.095 19.025 16.321 37.04 27.367 48.175.608.611 1.198 1.254 1.806 1.914 2.839 3.068 5.99 6.465 10.497 6.475 1.19-.003 2.37-.212 3.489-.618 10.009-3.518 9.305-12.77 8.745-20.179-.079-1.136-.159-2.239-.206-3.293-.31-5.599-.094-11.214.644-16.773 1.896-11.264 5.422-22.192 10.467-32.439 3.321-6.989 6.38-14.093 9.323-20.952 4.553-11.105 9.666-21.972 15.319-32.56 13.277-23.939 20.845-54.722 19.715-80.371-.376-8.561 2.323-16.638 4.939-24.435 1.844-5.15 3.307-10.429 4.376-15.793.442-2.395.667-4.824.674-7.258-.089-12.133-5.563-21.659-15.847-27.558Zm13.562 34.532c-1.067 5.285-2.513 10.486-4.327 15.563-2.533 7.567-5.397 16.154-5.005 25.028 1.096 25.352-6.388 55.806-19.533 79.499-5.679 10.635-10.814 21.552-15.386 32.708-2.942 6.842-5.984 13.93-9.306 20.886-5.109 10.393-8.674 21.477-10.582 32.9-.766 5.661-.994 11.382-.679 17.085.047 1.087.127 2.207.207 3.343.576 7.573 1.168 15.41-7.64 18.503-5.449 1.914-8.747-1.649-12.243-5.41-.607-.676-1.231-1.336-1.838-1.963-10.883-10.954-20.961-28.721-26.974-47.516-2.125-6.606-5.022-13.229-7.821-19.639-5.811-13.28-11.819-27.006-11.13-41.293.397-8.543 2.505-17.312 4.547-25.802 1.477-6.12 2.988-12.438 3.873-18.691l.451-3.127c1.771-12.672 3.625-25.754 7.568-38.602.828-2.731 1.64-5.511 2.436-8.308 3.546-12.322 7.226-25.055 14.895-34.356 1.649-2.004 3.381-4.19 5.179-6.474 7.72-9.712 16.445-20.723 25.257-25.807 9.012-4.974 19.153-7.537 29.445-7.442 8.441-.157 16.782 1.844 24.234 5.813 4.668 2.548 8.541 6.338 11.191 10.951 2.649 4.614 3.972 9.871 3.821 15.189-.004 2.335-.218 4.665-.64 6.962Z"/><path d="M479.666 199.276c-2.377-11.149-8.497-18.636-17.243-21.074-9.486-2.638-20.252 1.223-28.777 10.341-16.949 18.087-22.288 52.941-26.176 78.399-.517 3.34-1.001 6.533-1.501 9.56-3.651 22.396-6.215 44.367 2.406 66.674 2.012 5.256 4.531 11.78 9.56 13.898 1.126.468 2.333.706 3.552.699 1.888-.042 3.747-.469 5.464-1.256 7.146-3.063 8.334-12.344 9.371-20.54.249-2.457.644-4.896 1.184-7.306 5.161-20.73 14.731-41.994 23.308-60.281 1.008-2.138 2.049-4.325 3.139-6.578 7.321-15.243 15.632-32.526 16.606-49.48.288-4.372-.013-8.763-.893-13.056Zm-.751 12.97c-.957 16.608-9.186 33.743-16.44 48.855-1.091 2.253-2.149 4.457-3.14 6.578-8.61 18.369-18.23 39.715-23.44 60.593-.54 2.472-.941 4.971-1.201 7.488-.987 7.767-2.108 16.555-8.381 19.241-1.184.623-2.484.992-3.818 1.086-1.334.093-2.673-.091-3.931-.543-4.372-1.836-6.744-7.998-8.658-12.957-8.457-21.929-5.926-43.652-2.309-65.818.5-3.027.984-6.237 1.501-9.577 3.854-25.243 9.16-59.801 25.747-77.527 6.381-6.834 14.334-10.62 21.736-10.604 1.829.003 3.648.25 5.411.736 8.105 2.256 13.814 9.298 16.061 19.822.854 4.151 1.144 8.398.862 12.627Z"/><path d="M447.238 209.577c-1.712-.094-3.428.086-5.084.532-.488.132-.966.296-1.432.491-11.065 4.668-15.768 27.094-18.876 41.936-.632 3.028-1.181 5.627-1.712 7.799-2.517 10.526-4.484 21.175-5.892 31.906l-.117.889c-1.119 8.014-2.072 14.926.23 23.227 1.208 4.316 2.831 6.657 4.952 7.172.281.065.567.099.855.1 2.501.005 5.056-2.392 7.051-4.561 2.786-3.039 4.145-7.497 5.454-11.807.563-1.827 1.093-3.554 1.705-5.083.893-2.254 1.836-4.54 2.795-6.859 2.249-5.477 4.087-11.168 5.859-16.679 1.441-4.491 2.948-9.113 4.635-13.488.91-2.385 1.919-4.836 2.927-7.319 3.311-7.447 5.965-15.169 7.93-23.078.5-2.253.819-4.543.952-6.846.45-10.452-4.469-17.805-12.232-18.332Zm10.587 18.262c-.131 2.215-.439 4.416-.919 6.583-1.944 7.807-4.564 15.43-7.83 22.782-1.025 2.5-2.034 4.951-2.96 7.352-1.704 4.408-3.194 9.08-4.652 13.587-1.772 5.478-3.593 11.137-5.826 16.548-.959 2.319-1.901 4.621-2.795 6.891-.645 1.595-1.175 3.339-1.738 5.198-1.259 4.145-2.568 8.423-5.091 11.166-2.836 3.072-4.845 4.335-6.325 3.97-1.463-.349-2.725-2.376-3.738-6.016-2.236-7.956-1.284-14.72-.198-22.536l.117-.906c1.399-10.675 3.355-21.27 5.859-31.741.548-2.188 1.096-4.804 1.728-7.848 3.042-14.496 7.629-36.413 17.903-40.753.39-.165.792-.302 1.202-.409 1.228-.336 2.495-.51 3.768-.518.279 0 .543.017.806.034 6.809.459 11.105 7.135 10.689 16.616Z"/><path d="M469.569 213.56c-.971-7.673-4.264-13.656-9.242-16.844-2.202-1.358-4.68-2.207-7.251-2.486-2.572-.279-5.174.02-7.616.874-2.356.771-4.594 1.863-6.653 3.245-.581.381-1.142.791-1.68 1.231-13.809 11.164-18.738 39.039-22.352 59.394-.599 3.406-1.166 6.598-1.715 9.445-2.46 11.566-4.003 23.309-4.616 35.118-.67 8.849.321 17.745 2.921 26.23 1.896 5.732 4.127 8.881 7.036 9.925.716.261 1.474.391 2.236.383 2.308-.131 4.532-.907 6.421-2.241 4.991-3.133 6.338-10.143 7.519-16.33.342-2.053.797-4.085 1.362-6.088.928-3.027 1.955-6.152 3.08-9.327 5.743-16.218 10.574-28.702 15.219-39.31.942-2.154 1.934-4.374 2.975-6.644 5.124-11.331 10.942-24.191 12.334-36.6.403-3.312.41-6.661.022-9.975Zm-1.666 9.791c-1.343 12.162-7.111 24.874-12.202 36.106-1.025 2.286-2.033 4.507-2.975 6.661-4.646 10.64-9.509 23.173-15.268 39.425-1.126 3.191-2.169 6.349-3.097 9.392-.571 2.059-1.036 4.146-1.395 6.253-1.131 5.858-2.396 12.505-6.777 15.245-2.949 1.854-5.302 2.408-7.242 1.713-2.383-.862-4.285-3.681-6.018-8.902-2.538-8.293-3.502-16.989-2.84-25.637.618-11.726 2.15-23.385 4.583-34.872.565-2.863 1.131-6.055 1.731-9.478 3.564-20.092 8.426-47.621 21.757-58.391.511-.41 1.022-.788 1.566-1.149 1.928-1.298 4.029-2.319 6.241-3.032 1.775-.574 3.629-.87 5.496-.877 2.822-.02 5.591.775 7.973 2.289 4.567 2.924 7.598 8.494 8.504 15.657.366 3.189.354 6.41-.037 9.597Z"/><path d="M503.238 176.956c-.665-11.721-6.518-20.854-16.509-25.732-13.557-6.63-32.594-4.63-46.268 4.839-9.192 6.384-17.741 19.106-24.622 29.33l-1.04 1.578c-6.436 9.551-9.654 21.676-12.771 33.406-.531 1.991-1.045 3.965-1.592 5.923-2.813 11.147-4.941 22.456-6.374 33.864l-.551 3.817c-.751 5.069-1.864 10.202-2.928 15.188-1.901 7.8-3.167 15.741-3.785 23.746-.672 14.024 4.514 27.451 9.536 40.433 1.734 4.449 3.517 9.061 5.037 13.624 5.377 16.194 13.458 29.66 22.128 36.938.427.364.854.743 1.297 1.123 2.298 2.029 4.843 4.29 8.314 4.297 1.103-.007 2.195-.21 3.226-.602 8.692-3.174 8.644-11.438 8.61-18.714l.005-2.354c-.047-5.04.299-10.075 1.036-15.06 1.883-10.08 5.021-19.884 9.341-29.182 2.347-5.23 4.612-10.526 6.795-15.641 4.827-11.348 9.407-22.054 15.023-32.561 11.462-21.391 18.557-46.71 18.997-67.681.41-6.649 1.645-13.221 3.678-19.565l.348-1.283c1.285-4.447 2.235-8.985 2.842-13.574.249-2.042.325-4.102.227-6.157Zm-1.855 5.972c-.601 4.507-1.54 8.962-2.809 13.327l-.348 1.284c-2.06 6.474-3.312 13.178-3.728 19.959-.439 20.724-7.468 45.763-18.798 66.941-5.649 10.573-10.46 21.822-15.089 32.693-2.183 5.115-4.448 10.394-6.778 15.607-4.379 9.425-7.562 19.361-9.474 29.577-.749 5.073-1.101 10.196-1.053 15.324l-.005 2.387c.034 7.062.068 14.371-7.538 17.153-4.28 1.571-7.006-.838-9.879-3.38-.443-.396-.886-.775-1.33-1.155-8.44-7.097-16.34-20.283-21.635-36.196-1.52-4.596-3.32-9.226-5.037-13.69-4.974-12.834-10.094-26.097-9.439-39.759.611-7.916 1.865-15.77 3.752-23.482 1.08-5.002 2.193-10.185 2.944-15.302l.551-3.818c1.419-11.342 3.536-22.586 6.34-33.667.531-1.958 1.062-3.948 1.592-5.939 3.085-11.599 6.269-23.576 12.54-32.912l1.056-1.562c6.783-10.109 15.233-22.7 24.178-28.903 8.106-5.504 17.678-8.442 27.473-8.435 5.918-.064 11.774 1.209 17.133 3.724 6.671 3.258 14.783 10.123 15.591 24.347.087 1.962.017 3.927-.21 5.877Z"/><path d="M563.453 65.8074c-2.496-1.8492-2.72-4.9772-2.848-6.6565-.191-2.6179-.431-5.8943-4.73-10.9573-6.482-7.8466-14.943-13.8155-24.506-17.288-30.376-10.8644-65.35 5.2418-83.484 15.8038-38.755 22.5836-46.427 55.8026-52.404 96.8946-2.873 18.93-7.721 37.507-14.464 55.427-1.936 5.296-4.152 10.658-6.302 15.855-3.307 8.009-6.73 16.299-9.231 24.507-.792 2.866-1.338 5.795-1.631 8.754-.295 2.869-.824 5.709-1.581 8.491-1.086 3.891-1.919 7.848-2.493 11.847-.612 4.34-1.562 8.625-2.841 12.817l-.463 1.349c-2.765 8.274-4.305 12.814-2.912 22.76 2.9 20.747 8.371 39.064 16.267 54.407 4.177 8.125 9.045 16.168 13.75 23.948 4.491 7.434 9.13 15.115 13.078 22.728 3.407 6.543 6.913 13.316 10.731 19.959 2.393 4.153 4.719 8.866 7.175 13.859.77 1.549 1.523 3.147 2.293 4.762 4.88 10.348 10.398 22.048 21.376 27.208 3.214 1.625 6.742 2.531 10.341 2.656 2.394.029 4.758-.537 6.879-1.648 6.258-3.312 10.454-11.336 12.471-23.859.967-6.006 1.474-12.162 1.964-18.103.473-5.76.963-11.718 1.88-17.511 1.568-9.922 5.336-17.849 9.335-26.252 1.074-2.253 2.164-4.555 3.239-6.923 3.091-6.874 5.869-13.733 8.565-20.377 3.175-7.846 6.45-15.971 10.284-24.143 1.851-3.964 3.965-7.926 6.013-11.774 4.542-8.501 9.232-17.297 11.523-26.741 2.141-8.852 4.349-18 6.967-27.163 3.481-12.174 5.319-25.175 7.106-37.731l.534-3.818c.649-3.886 1.603-7.715 2.855-11.451 1.306-3.701 2.197-7.536 2.656-11.435.09-3.94-.333-7.875-1.258-11.706-1.002-4.352-1.49-8.806-1.452-13.272.624-14.698 5.165-30.08 9.572-44.951 3.095-9.755 5.642-19.674 7.631-29.713.217-1.201.781-3.472 1.843-7.7165 1.759-6.9758 6.421-25.5177 6.616-32.1677l.001-.428-.345-.2474Zm-7.867 32.4449c-1.078 4.2777-1.643 6.5647-1.859 7.8147-1.982 9.978-4.519 19.837-7.598 29.532-4.424 14.971-9.014 30.451-9.638 45.363-.048 4.604.45 9.197 1.483 13.683.886 3.681 1.298 7.46 1.226 11.246-.45 3.776-1.319 7.489-2.59 11.073-1.277 3.816-2.249 7.727-2.904 11.698l-.534 3.818c-1.787 12.506-3.608 25.457-7.056 37.516-2.635 9.197-4.843 18.361-7.001 27.229-2.224 9.23-6.865 17.928-11.357 26.346-2.065 3.864-4.196 7.86-6.063 11.84-3.851 8.238-7.142 16.363-10.317 24.225-2.679 6.628-5.458 13.487-8.532 20.328-1.074 2.368-2.165 4.654-3.222 6.89-4.049 8.519-7.883 16.544-9.484 26.697-.917 5.858-1.407 11.849-1.88 17.642-.49 5.909-.997 12.032-1.964 17.972-1.333 8.244-4.416 18.872-11.596 22.659-4.249 2.246-9.545 1.889-15.773-1.022-10.436-4.911-15.823-16.348-20.588-26.415-.77-1.648-1.539-3.247-2.309-4.812-2.457-5.01-4.799-9.739-7.208-13.942-3.802-6.626-7.308-13.366-10.699-19.892-3.981-7.68-8.636-15.377-13.143-22.828-4.688-7.747-9.524-15.774-13.685-23.849-7.813-15.178-13.219-33.313-16.103-53.88-1.328-9.567.063-13.712 2.844-22.003l.464-1.365c1.306-4.272 2.272-8.64 2.89-13.064.575-3.926 1.396-7.811 2.46-11.633.79-2.872 1.336-5.806 1.631-8.77.289-2.863.812-5.697 1.564-8.475 2.485-8.126 5.892-16.382 9.199-24.359 2.15-5.214 4.365-10.592 6.318-15.904 6.779-18.033 11.654-36.726 14.547-55.773 5.927-40.631 13.483-73.4878 51.612-95.7108 13.736-8.0038 37.267-19.2453 60.922-19.1942 7.204-.0491 14.363 1.1412 21.163 3.5189 9.293 3.3736 17.515 9.1713 23.816 16.7929 3.938 4.6668 4.162 7.6469 4.338 10.0345-.014 1.4106.26 2.8091.806 4.1096.546 1.3005 1.352 2.4755 2.369 3.4528-.377 6.8303-5.006 25.2734-6.549 31.4106Z"/><path d="m571.182 59.8486-.181-.1817-.279-.0335c-1.53-.2336-1.611-.7277-1.787-3.0984-.224-2.8977-.591-7.771-6.088-14.2851-14.013-16.5575-32.88-24.2857-56.045-22.9531-23.575 1.332-45.92 11.7533-60.496 20.2488-41.391 24.1253-49.793 60.5854-55.854 102.2854-5.477 37.636-17.859 66.137-33.443 99.487-22.922 49.005-29.464 84.811 4.867 122.878 13.161 14.58 21.5 30.648 30.329 47.672 3.49 6.724 7.094 13.662 11.011 20.452 2.327 4.055 4.636 8.751 7.093 13.745 7.91 16.017 16.853 34.194 31.313 41.27 4.068 2.184 8.574 3.426 13.185 3.634 2.727.057 5.416-.644 7.769-2.025 11.283-6.774 12.071-29.16 12.597-43.974.122-3.473.228-6.469.447-8.888 1.804-20.474 16.716-47.291 27.777-65.687 13.273-22.079 18.933-45.475 24.925-70.236 2.174-8.918 4.398-18.148 7.017-27.344 3.647-12.717 5.534-26.112 7.372-39.064l.534-3.817c.629-3.657 1.539-7.26 2.721-10.777 1.439-4.152 2.419-8.451 2.923-12.817.124-4.481-.336-8.959-1.37-13.32-.915-3.997-1.375-8.084-1.372-12.185.59-14.237 5.114-29.504 9.489-44.277 3.198-10.1 5.828-20.371 7.88-30.765.2-1.07.896-3.867 1.792-7.4209 5.658-22.4906 8.435-36.0158 5.874-38.5235Zm-7.468 38.1252c-.946 3.7182-1.61 6.4002-1.809 7.5352-2.057 10.331-4.676 20.541-7.847 30.585-4.408 14.855-8.948 30.236-9.555 44.672-.015 4.228.456 8.443 1.404 12.563 1 4.221 1.45 8.555 1.337 12.892-.488 4.245-1.446 8.422-2.856 12.455-1.199 3.6-2.125 7.285-2.771 11.023l-.534 3.818c-1.821 12.902-3.709 26.232-7.322 38.85-2.636 9.213-4.876 18.459-7.034 27.41-5.959 24.629-11.602 47.91-24.743 69.775-11.144 18.528-26.171 45.575-28.009 66.378-.219 2.469-.324 5.481-.447 8.987-.508 14.452-1.279 36.295-11.804 42.61-4.76 2.87-11.29 2.297-19.375-1.672-13.951-6.828-22.779-24.725-30.558-40.528-2.473-4.993-4.799-9.723-7.159-13.827-3.884-6.757-7.488-13.695-10.961-20.402-8.486-16.349-17.266-33.257-30.575-48.002-33.724-37.391-27.233-72.703-4.608-121.084 15.666-33.465 28.082-62.081 33.592-99.947 5.994-41.255 14.297-77.3535 55.045-101.102 13.506-7.8723 39.063-20.3606 64.988-20.3046 17.519.0378 35.223 5.8211 49.465 22.6589 5.168 6.1022 5.488 10.465 5.712 13.3462.16 2.1569.304 4.0337 2.886 4.5332 1.983 3.1974-4.139 27.5142-6.462 36.7771ZM838.682 451.911c-5.175-10.826-14.126-17.479-23.602-24.512-1.084-.809-2.184-1.635-3.285-2.46-8.715-6.234-17.861-11.843-27.369-16.784-9.843-5.53-20.101-10.285-30.681-14.223-33.712-12.287-58.536-42.251-73.352-60.144-2.297-2.77-4.266-5.162-6.005-7.157-2.571-3.216-4.869-6.64-6.87-10.238-7.212-11.983-16.178-26.883-31.972-18.522-21.129 11.198-24.787 44.59-27.204 66.676-.235 2.189-.453 4.279-.687 6.221-1.326 8.465-3.778 16.714-7.291 24.528-3.076 7.319-8.057 13.53-12.89 19.528-4.524 5.224-8.454 10.935-11.716 17.029-.76 1.562-1.652 3.239-2.593 4.999-5.005 9.405-11.231 21.079-6.302 31.147 2.135 4.258 5.096 8.048 8.711 11.147 11.936 10.479 29.938 15.687 45.835 20.297 5.178 1.493 10.077 2.919 14.466 4.427 5.293 1.822 13.338 1.444 20.428 1.13 2.55-.11 4.952-.219 6.926-.215 4.178.042 8.39-.13 12.486-.286 8.097-.542 16.225-.392 24.296.447 8.979 1.189 17.296 4.104 26.107 7.185 2.843.977 5.671 1.971 8.547 2.899l.296.099c11.03 3.629 22.422 7.374 34.079 10.181 1.973.482 3.896 1.013 5.803 1.543 5.019 1.638 10.234 2.602 15.506 2.866 3.856.03 7.667-.823 11.142-2.495 8.299-3.999 15.059-11.244 20.357-18.969 4.588-6.851 8.437-14.171 11.479-21.836.563-1.398 1.158-2.812 1.753-4.21 4.167-9.884 8.466-20.098 3.602-30.298Zm-5.13 29.653c-.596 1.414-1.191 2.829-1.753 4.243-4.681 11.579-14.924 32.183-31.012 39.934-8.727 4.146-16.882 1.906-25.513-.483-1.923-.531-3.863-1.062-5.853-1.543-11.591-2.807-22.949-6.536-33.947-10.148l-.295-.099c-2.861-.928-5.688-1.922-8.515-2.9-8.498-2.964-17.292-6.029-26.436-7.25-4.183-.536-8.398-.793-12.615-.768-4.014-.009-8.028.147-11.96.303-4.08.156-8.291.311-12.404.286-2.056-.021-4.458.106-7.024.215-6.614.299-14.823.676-19.82-1.047-4.422-1.524-9.337-2.95-14.549-4.443-15.716-4.561-33.536-9.719-45.194-19.95-3.448-2.959-6.275-6.574-8.317-10.635-4.569-9.311 1.443-20.591 6.266-29.65.958-1.776 1.85-3.47 2.626-5.065 3.209-5.977 7.072-11.578 11.518-16.7 4.899-6.096 9.963-12.407 13.121-19.939 3.587-7.95 6.079-16.351 7.407-24.973.234-1.941.469-4.032.704-6.22 2.366-21.757 5.958-54.606 26.329-65.411 14.41-7.623 22.573 5.942 29.785 17.925 2.057 3.675 4.409 7.176 7.035 10.469 1.739 1.979 3.708 4.353 5.988 7.124 14.931 18.025 39.919 48.187 74.058 60.639 10.534 3.921 20.748 8.654 30.55 14.157 9.403 4.897 18.45 10.45 27.074 16.619 1.1.825 2.2 1.651 3.301 2.46 9.295 6.917 18.099 13.454 23.093 23.902 4.553 9.524.386 19.409-3.648 28.948Z"/><path d="M832.025 457.872c-4.353-10.676-12.711-17.411-21.563-24.541l-.295-.231c-6.561-4.962-13.529-9.361-20.83-13.148-2.251-1.256-4.502-2.512-6.671-3.768-9.75-5.834-19.974-10.834-30.564-14.947-25.181-9.371-45.536-29.399-58.996-42.647-3.595-3.547-6.697-6.599-9.308-8.877-2.48-2.406-4.721-5.046-6.694-7.883-6.332-8.425-14.222-18.911-26.903-12.157-17.901 9.575-21.693 36.564-24.199 54.435-.201 1.416-.401 2.782-.585 4.081-1.261 6.857-3.238 13.562-5.899 20.005-2.356 5.47-5.343 10.645-8.9 15.421-3.419 4.56-6.285 9.511-8.536 14.748-.513 1.349-1.125 2.796-1.786 4.293-3.207 7.4-7.192 16.594-2.685 24.455 2.014 3.425 4.666 6.431 7.811 8.857 10.592 8.402 25.471 12.434 38.606 16.001 4.505 1.229 8.763 2.39 12.593 3.649 4.34 1.409 10.624 1.406 16.184 1.401 2.451.006 4.787-.006 6.727.13 3.027.188 6.152.26 9.162.316 7.066-.075 14.121.58 21.052 1.955 7.453 2.007 14.688 4.753 21.597 8.195 2.597 1.191 5.292 2.415 8.004 3.557 9.757 4.387 19.821 8.057 30.112 10.979 1.184.315 2.367.63 3.551.962 4.865 1.584 9.919 2.514 15.029 2.765 3.697.031 7.355-.753 10.714-2.298 15.017-6.848 24.235-25.084 28.403-35.347.364-.888.727-1.776 1.091-2.664 3.737-9.029 7.59-18.371 3.778-27.697Zm-5.29 27.068c-.38.888-.744 1.776-1.108 2.664-4.068 10.05-13.072 27.874-27.562 34.477-8.529 3.883-16.355 1.726-24.624-.564-1.184-.315-2.367-.647-3.567-.962-10.214-2.895-20.202-6.537-29.883-10.896-2.679-1.125-5.374-2.366-7.97-3.54-7.011-3.475-14.344-6.258-21.894-8.311-7.044-1.398-14.215-2.065-21.397-1.989-2.993-.056-6.102-.128-9.096-.316-1.529-.102-3.289-.122-5.148-.126l-1.694-.004c-5.429.005-11.581.008-15.658-1.318-3.879-1.276-8.154-2.437-12.675-3.665-12.971-3.534-27.685-7.533-38.014-15.704-2.976-2.304-5.487-5.153-7.401-8.395-4.097-7.153-.295-15.919 2.764-22.974.661-1.529 1.289-2.993 1.819-4.358 2.199-5.123 5.004-9.963 8.354-14.419 3.631-4.875 6.673-10.162 9.065-15.75 2.713-6.558 4.724-13.385 5.999-20.366.184-1.301.384-2.667.584-4.098 2.456-17.526 6.182-44.021 23.342-53.186 11.43-6.115 18.237 2.937 24.814 11.675 2.044 2.936 4.368 5.664 6.941 8.147 2.561 2.245 5.647 5.28 9.226 8.794 13.559 13.347 34.061 33.523 59.571 43.027 10.521 4.037 20.667 8.995 30.318 14.815 2.185 1.272 4.436 2.528 6.687 3.784 7.215 3.753 14.106 8.101 20.6 13l.295.231c8.687 6.998 16.881 13.601 21.087 23.882 3.551 8.699-.17 17.712-3.775 26.445Z"/><path d="M845.341 445.967c-6.078-11.405-15.999-18.208-26.495-25.424-1.807-1.239-3.614-2.477-5.42-3.765-17.884-12.648-37.409-22.792-58.036-30.151-42.507-15.204-72.535-57.722-86.95-78.166-1.279-1.797-2.444-3.462-3.51-4.929-2.588-3.93-4.915-8.027-6.964-12.263-5.783-11.239-12.335-23.977-22.445-27.16-2.441-.685-4.996-.864-7.508-.527-2.512.337-4.929 1.183-7.104 2.487-24.456 12.87-27.947 52.699-30.273 79.065-.253 2.913-.49 5.678-.742 8.196-.807 8.031-3.74 17.803-8.682 29.052-3.918 8.881-10.498 16.307-16.863 23.471-5.375 6.062-10.932 12.338-14.929 19.491-.99 1.759-2.113 3.65-3.302 5.639-6.835 11.426-15.353 25.63-10.001 37.938 9.576 21.931 39.002 30.834 62.641 37.98 5.886 1.774 11.442 3.466 16.373 5.221 6.213 2.219 16.43 1.435 24.624.778 2.632-.192 5.133-.401 7.173-.462 5.264-.17 10.661-.62 15.876-1.036 9.114-.956 18.283-1.272 27.441-.945 10.724.665 20.621 3.32 31.109 6.158 2.861.763 5.722 1.543 8.632 2.274 3.37.846 6.741 1.71 10.111 2.589 9.289 2.374 18.907 4.848 28.525 7.009 2.647.598 5.261 1.328 7.777 2.025 5.242 1.742 10.696 2.767 16.213 3.047 4.031.036 8.013-.886 11.619-2.691 17.241-8.572 28.687-29.897 35.269-46.262.728-1.842 1.522-3.668 2.315-5.51 4.646-10.822 9.457-22.005 3.526-33.129Zm-5.038 32.484c-.793 1.842-1.587 3.683-2.331 5.542-6.467 16.102-17.698 37.05-34.478 45.408-9.024 4.491-17.59 2.07-26.648-.469-2.548-.713-5.178-1.459-7.859-2.058-9.602-2.144-19.203-4.617-28.492-6.992-3.37-.879-6.741-1.743-10.111-2.589-2.894-.731-5.754-1.511-8.615-2.274-10.094-2.721-20.534-5.543-31.422-6.208-2.122-.12-4.26-.174-6.399-.179-7.106-.015-14.279.562-21.272 1.123-5.199.417-10.579.866-15.794 1.036-2.089.062-4.59.27-7.255.478-8.045.625-18.049 1.41-23.95-.693-4.964-1.789-10.537-3.464-16.438-5.254-23.327-7.046-52.359-15.817-61.607-37.073-5.025-11.517 3.246-25.327 9.899-36.424 1.189-1.989 2.328-3.896 3.319-5.672 3.93-7.004 9.421-13.214 14.731-19.195 6.447-7.279 13.126-14.803 17.126-23.898 5.025-11.413 7.991-21.366 8.815-29.562.252-2.534.505-5.3.758-8.229 2.277-26.004 5.734-65.29 29.383-77.75 4.841-2.557 9.218-3.157 13.377-1.847 9.453 2.983 15.841 15.392 21.46 26.351 2.079 4.316 4.45 8.484 7.096 12.477 1.049 1.467 2.214 3.116 3.493 4.913 14.53 20.575 44.738 63.391 87.738 78.76 20.493 7.309 39.892 17.387 57.658 29.952 1.807 1.288 3.613 2.527 5.42 3.765 10.332 7.101 20.105 13.805 25.987 24.847 5.554 10.432 1.107 20.761-3.589 31.714Z"/><path d="m982.978 453.03-.239-3.227c-.08-1.268-.176-2.536-.272-3.787-1.168-15.131-4.18-37.146-16.795-53.618-8.464-11.048-20.887-17.017-32.9-22.788-4.091-1.951-8.315-3.985-12.291-6.167-2.201-1.223-4.518-2.429-6.884-3.669-9.317-4.876-19.882-10.414-26.545-17.77-6.449-7.125-9.243-16.234-11.954-25.047-1.111-3.607-2.255-7.33-3.629-10.823-4.106-10.462-10.934-17.473-23.586-24.183-21.098-11.207-41.202-24.995-60.65-38.355-12.681-8.702-24.671-16.926-36.877-24.459-8.181-5.055-16.116-10.273-23.77-15.311-8.838-5.83-17.199-11.329-25.364-16.203-5.191-3.106-10.3-6.475-15.688-10.043-19.104-12.634-38.865-25.697-62.93-26.095-30.086-.427-36.008 38.063-39.211 58.781-2.988 19.764-6.962 39.756-10.82 59.106-1.563 7.816-3.093 15.5-4.524 22.971-.782 4.179-1.597 8.359-2.412 12.554-2.462 12.654-5.007 25.735-6.63 38.276-2.125 16.424-10.1 30.497-21.419 46.572-6.553 9.237-12.038 19.187-16.35 29.661-2.861 7.089-5.326 13.717-7.512 20.314l-.993 2.96c-5.381 15.907-11.457 33.936-1.47 48.674 7.953 11.705 24.173 19.048 38.487 25.516 3.221 1.455 6.261 2.845 9.087 4.2 17.041 8.268 34.906 15.78 52.179 23.044 3.977 1.671 7.927 3.331 11.849 4.98 5.49 2.317 10.798 4.649 15.777 6.915 9.257 4.037 18.715 7.596 28.337 10.663 6.065 2.038 11.802 3.976 17.226 6.062 19.609 7.565 39.699 12.975 60.956 18.7l2.811.747c13.958 3.767 28.085 5.361 41.751 6.921 5.345.604 10.855 1.226 16.281 1.978 6.956.893 13.853 2.2 20.653 3.913 11.469 3.215 22.494 7.845 32.821 13.783 3.417 1.835 6.818 3.834 10.104 5.75 6.305 3.872 12.853 7.333 19.602 10.364l.181.05c1.119.193 2.252.295 3.388.303 4.853.011 8.476-1.956 13.139-5.502h.214c26.401.057 36.545-27.74 45.497-52.282 2.709-8.039 5.946-15.89 9.691-23.502.826-1.579 1.668-3.141 2.494-4.686 6.078-11.28 11.809-21.934 14.255-35.098 3.346-18.084 6.55-39.477 4.935-61.143Zm-6.563 60.843c-2.396 12.917-8.061 23.457-14.073 34.621-.826 1.546-1.668 3.107-2.511 4.686-3.78 7.68-7.045 15.603-9.773 23.716-8.77 24.031-18.699 51.254-43.949 51.199l-.773-.002-.214.165c-5.503 4.218-9.225 6.054-15.392 5.069-6.649-2.995-13.103-6.407-19.323-10.214-3.302-1.933-6.719-3.933-10.153-5.784-10.445-6.005-21.597-10.685-33.199-13.932-6.853-1.734-13.805-3.052-20.817-3.946-5.46-.753-10.985-1.374-16.33-1.995-13.601-1.543-27.662-3.138-41.505-6.855l-2.811-.763c-21.224-5.709-41.265-11.102-60.791-18.634-5.474-2.119-11.21-4.057-17.292-6.095-9.568-3.042-18.972-6.578-28.173-10.597-4.995-2.282-10.32-4.615-15.842-6.931-3.912-1.655-7.873-3.326-11.85-4.997-17.24-7.247-35.088-14.759-52.08-22.994-2.843-1.372-5.899-2.761-9.137-4.217-14.116-6.385-30.106-13.629-37.797-24.938-9.544-14.063-3.584-31.68 1.664-47.225l.994-2.977c2.169-6.547 4.618-13.159 7.479-20.199 4.264-10.362 9.688-20.207 16.167-29.348 11.468-16.272 19.543-30.543 21.701-47.313 1.606-12.49 4.151-25.539 6.613-38.159.815-4.196 1.63-8.392 2.412-12.555 1.431-7.487 2.961-15.155 4.524-22.954 3.858-19.367 7.849-39.392 10.837-59.188 3.103-20.11 8.858-57.448 37.103-57.387l.46.001c23.588.38 43.136 13.312 62.043 25.83 5.404 3.567 10.529 6.953 15.753 10.076 8.132 4.857 16.477 10.34 25.298 16.154 7.671 5.053 15.605 10.289 23.819 15.36 12.173 7.5 24.131 15.707 36.812 24.41 19.48 13.375 39.635 27.197 60.798 38.436 12.274 6.513 18.888 13.276 22.831 23.343 1.358 3.443 2.485 7.133 3.579 10.691 2.778 8.994 5.62 18.268 12.315 25.673 6.86 7.587 17.557 13.191 27.005 18.133 2.349 1.24 4.666 2.43 6.852 3.637 4.025 2.214 8.265 4.248 12.373 6.232 11.848 5.672 24.09 11.559 32.309 22.293 12.352 16.126 15.299 37.828 16.451 52.745.096 1.251.192 2.502.288 3.77l.223 3.243c1.615 21.47-1.573 42.731-4.918 60.716ZM524.021 112.604c-19.512-13.9351-53.268-13.531-73.371-5.146-9.978 4.143-20.562 15.117-29.894 24.792-4.039 4.206-7.88 8.165-11.408 11.35-10.993 9.903-15.73 24.839-20.317 39.266-1.243 3.899-2.518 7.929-3.892 11.746-5.626 15.642-7.749 31.391-9.99 48.078l-.334 2.502c-1.332 8.262-3.202 16.43-5.596 24.449-2.852 10.364-5.803 21.058-6.303 31.592-.827 17.184 7.512 33.236 15.572 48.76 4.701 9.047 9.55 18.408 12.376 27.698 8.106 25.722 20.954 49.696 37.88 70.685.902 1.105 1.788 2.275 2.69 3.463 3.887 5.16 8.218 10.882 14.781 10.896 1.441-.011 2.869-.258 4.229-.732 12.808-4.301 10.742-15.105 9.083-23.783-.293-1.581-.586-3.08-.764-4.48-2.444-18.475 1.794-38.384 12.597-59.168 4.873-9.372 8.989-18.927 12.974-28.17 5.046-12.325 10.829-24.334 17.317-35.964 17.303-29.642 25.617-71.123 21.185-105.669-1.521-11.905 3.175-23.155 7.706-34.042 2.585-5.817 4.758-11.808 6.503-17.929.805-3.088 1.319-6.245 1.534-9.429.051-.856.086-1.712.088-2.551.098-5.551-1.19-11.039-3.747-15.966-2.558-4.927-6.304-9.136-10.899-12.248Zm12.913 30.663c-.216 3.083-.713 6.14-1.484 9.133-1.728 6.041-3.873 11.955-6.42 17.698-4.63 11.085-9.392 22.548-7.823 34.881 4.384 34.217-3.848 75.287-20.969 104.633-6.528 11.686-12.344 23.757-17.416 36.145-3.968 9.21-8.085 18.748-12.925 28.071-10.951 21.08-15.256 41.319-12.763 60.123.194 1.449.471 2.964.78 4.578 1.61 8.465 3.448 18.065-7.993 21.909-7.918 2.666-12.412-3.286-17.169-9.584-.919-1.204-1.821-2.408-2.74-3.513-16.722-20.865-29.458-44.637-37.568-70.124-2.875-9.438-7.773-18.865-12.507-27.995-7.962-15.326-16.185-31.18-15.376-47.903.499-10.353 3.417-20.964 6.236-31.23 2.424-8.093 4.31-16.338 5.646-24.68l.335-2.502c2.24-16.588 4.346-32.254 9.907-47.749 1.39-3.849 2.665-7.879 3.907-11.794 4.522-14.23 9.192-28.936 19.856-38.527 3.577-3.235 7.418-7.227 11.49-11.449 9.233-9.56 19.685-20.386 29.35-24.414 10.259-3.977 21.187-5.943 32.188-5.791 14.394.031 29.11 3.273 39.588 10.769 4.75 3.17 8.549 7.572 10.992 12.735 2.443 5.163 3.438 10.894 2.878 16.58Z"/><path d="M937.088 450.593c-.357-2.026-.715-4.002-1.139-5.945-3.68-17.441-10.754-32.288-20.993-44.096-7.319-8.444-17.26-13.47-26.873-18.33-3.023-1.521-6.145-3.108-9.119-4.761-1.889-1.041-3.861-2.099-5.882-3.157-7.542-4-15.347-8.132-20.895-13.56-5.384-5.279-8.397-11.837-11.311-18.181-1.212-2.637-2.456-5.356-3.849-7.926-4.129-7.598-10.105-12.911-19.965-17.789-27.047-13.376-52.322-32.426-74.609-49.232-4.089-3.071-8.113-6.109-12.071-9.047-7.834-5.828-15.043-11.655-22.038-17.299-6.798-5.497-13.236-10.696-19.23-15.038-4.681-3.401-9.279-7.428-14.139-11.702-14.547-12.772-31.031-27.228-52.898-24.872-22.591 2.437-30.015 27.607-34.311 51.911l-.433 2.452c-4.147 23.481-8.443 47.736-12.008 68.651-1.5 8.787-3.46 17.869-5.371 26.656-1.213 5.594-2.476 11.402-3.557 16.931-2.96 14.99-11.442 27.334-20.648 39.71-5.973 7.886-11.045 16.417-15.123 25.433-2.231 5.065-4.843 11.084-7.292 17.417l-.231.575c-5.608 14.441-11.96 30.823-3.551 44.504 7.41 12.016 22.857 19.49 36.496 26.088 1.364.661 2.695 1.306 3.993 1.951 15.085 7.375 31.176 13.664 46.724 19.756 3.369 1.324 6.722 2.632 10.026 3.939 5.522 2.169 9.976 3.989 14.003 5.743 8.628 3.755 18.92 6.098 28.868 8.375 4.291.964 8.352 1.895 12.1 2.89 12.232 3.27 24.4 5.699 37.291 8.279 6.413 1.265 13.039 2.596 19.665 4.026 11.855 2.561 23.728 4.364 35.206 6.101 5.476.835 11.133 1.703 16.74 2.637 7.071 1.167 12.941 2.382 18.498 3.809 10.316 2.835 20.36 6.581 30.013 11.193 3.205 1.423 6.376 3.01 9.449 4.548 5.87 3.122 11.981 5.767 18.275 7.907.883.125 1.773.187 2.665.187 4.705.01 8.36-1.743 12.413-4.533 21.207-1.353 30.384-23.655 38.471-43.342 2.579-6.266 5.01-12.171 7.719-17.235l1.041-1.956c5.235-9.784 10.174-19.008 12.665-29.966l.614-2.764c3.803-16.651 7.723-33.877 4.601-50.938Zm-6.195 50.572-.631 2.765c-2.425 10.744-7.314 19.869-12.5 29.554l-1.041 1.956c-2.886 5.66-5.484 11.461-7.785 17.383-7.954 19.309-16.95 41.2-37.284 42.341l-.231.016-.198.131c-4.662 3.233-8.465 4.953-13.975 4.233-6.154-2.125-12.133-4.73-17.88-7.792-3.089-1.537-6.294-3.124-9.515-4.58-9.741-4.638-19.872-8.406-30.276-11.259-5.606-1.444-11.526-2.675-18.629-3.859-5.624-.934-11.298-1.802-16.79-2.621-11.445-1.737-23.285-3.54-35.091-6.1-6.642-1.431-13.269-2.762-19.698-4.027-12.858-2.579-25.009-4.992-37.175-8.245-3.782-1.012-7.859-1.943-12.167-2.923-9.881-2.244-20.092-4.571-28.572-8.26-4.059-1.77-8.53-3.607-14.069-5.775-3.303-1.308-6.656-2.616-10.025-3.94-15.516-6.075-31.574-12.365-46.593-19.706-1.298-.645-2.646-1.29-4.01-1.951-13.425-6.499-28.642-13.857-35.805-25.478-7.983-12.988-1.78-28.942 3.695-43.022l.231-.592c2.432-6.299 5.028-12.302 7.259-17.351 4.024-8.902 9.036-17.323 14.942-25.104 9.304-12.54 17.918-25.065 20.929-40.384 1.081-5.512 2.343-11.304 3.556-16.898 1.911-8.803 3.872-17.918 5.388-26.738 3.565-20.899 7.845-45.153 11.991-68.618l.434-2.469c4.196-23.695 11.372-48.24 32.877-50.564 1.573-.173 3.155-.257 4.738-.253 18.769.04 33.053 12.582 46.894 24.744 4.893 4.29 9.507 8.35 14.253 11.784 5.962 4.326 12.383 9.509 19.181 14.989 6.996 5.661 14.221 11.504 22.072 17.332 3.958 2.938 7.981 5.976 12.071 9.047 22.352 16.855 47.692 35.939 74.871 49.397 9.531 4.712 15.294 9.828 19.243 17.096 1.36 2.521 2.604 5.207 3.799 7.827 2.98 6.476 6.058 13.182 11.672 18.676 5.696 5.576 13.616 9.775 21.273 13.824 2.005 1.058 3.976 2.116 5.849 3.157 3.007 1.669 6.129 3.24 9.169 4.777 9.465 4.794 19.275 9.754 26.38 17.935 10.059 11.61 17.002 26.193 20.633 43.37.407 1.927.765 3.887 1.139 6.011 3.04 16.616-.846 33.678-4.599 50.164Z"/><path d="M891.247 448.337c-.653-1.976-1.226-3.591-1.831-5.09-5.906-14.795-16.574-26.242-25.192-34.574-6.205-5.972-13.846-10.121-21.256-14.137-1.84-1.008-3.68-2.016-5.504-3.041-1.676-.958-3.418-1.9-5.192-2.842-5.237-2.637-10.243-5.71-14.966-9.185-3.917-3.332-7.446-7.094-10.52-11.217-1.362-1.715-2.789-3.495-4.283-5.178-4.504-4.947-10.061-8.818-16.26-11.327-29.565-13.118-54.934-34.54-75.85-53.763-7.946-7.293-15.036-14.567-21.29-21.001-4.35-4.47-8.469-8.693-12.097-12.125-3.897-3.917-7.537-8.082-10.896-12.468-11.353-14.132-24.215-30.161-44.608-24.559-18.946 5.227-25.838 28.192-29.362 45.025-3.491 16.931-5.963 34.589-8.119 50.157-.485 3.455-.952 6.796-1.42 9.989-1.754 12.292-5.665 25.634-8.813 36.344-3.679 12.536-11.91 22.855-19.86 32.847-5.413 6.522-10.079 13.629-13.913 21.189-.661 1.381-1.371 2.812-2.098 4.275-1.636 3.289-3.321 6.676-4.957 10.245-6.033 13.057-11.409 26.791-5.117 38.509 6.603 12.311 20.716 20.078 33.402 26.377 13.195 6.531 27.561 11.616 41.451 16.518 2.712.961 5.391 1.916 8.038 2.865 5.079 1.805 8.843 3.213 12.229 4.587 7.379 2.978 17.527 3.906 26.49 4.731 3.569.338 6.94.641 9.868 1.059 7.893 1.12 16.034 1.78 23.912 2.422 8.586.693 17.451 1.421 26.232 2.74 14.373 2.138 27.888 4.9 42.193 7.828l3.667.749c6.018 1.231 11.362 2.444 16.36 3.722 9.552 2.457 18.527 5.572 27.206 8.57 2.942 1.01 5.851 2.169 8.662 3.294 5.436 2.386 11.097 4.223 16.898 5.485.642.051 1.283.086 1.908.087 4.169-.062 8.234-1.309 11.72-3.596 16.227-3.143 24.637-20.392 32.056-35.62 1.685-3.453 3.271-6.709 4.906-9.751 4.399-7.609 7.968-15.67 10.646-24.043.597-2.073 1.226-4.129 1.856-6.202 3.959-13.046 8.068-26.519 3.704-39.895Zm-5.283 39.431c-.629 2.056-1.259 4.129-1.855 6.201-2.646 8.264-6.171 16.22-10.514 23.731-1.651 3.075-3.254 6.348-4.939 9.801-7.27 14.931-15.515 31.836-31.034 34.749l-.263.098c-3.729 2.524-8.201 3.715-12.69 3.38-5.664-1.252-11.192-3.055-16.504-5.386-2.827-1.125-5.769-2.283-8.745-3.311-8.711-3.031-17.719-6.145-27.337-8.619-5.014-1.278-10.391-2.508-16.425-3.739l-3.684-.749c-14.321-2.928-27.837-5.69-42.259-7.845-8.847-1.319-17.745-2.046-26.346-2.756-7.846-.642-15.97-1.302-23.815-2.405-2.976-.418-6.364-.738-9.949-1.059-8.849-.826-18.881-1.752-26.031-4.633-3.402-1.373-7.182-2.797-12.294-4.618-2.63-.945-5.309-1.894-8.038-2.849-13.84-4.903-28.157-9.955-41.254-16.452-12.472-6.184-26.322-13.786-32.696-25.668-5.931-11.059-.704-24.364 5.163-37.043 1.636-3.553 3.305-6.94 4.941-10.212.727-1.464 1.437-2.895 2.098-4.276 3.777-7.455 8.377-14.463 13.715-20.893 8.066-10.106 16.395-20.558 20.157-33.406 3.165-10.775 7.093-24.166 8.863-36.574.468-3.193.941-6.528 1.42-10.006 2.156-15.535 4.612-33.16 8.103-50.042 3.44-16.404 10.118-38.794 28.19-43.759 2.496-.701 5.076-1.061 7.668-1.07 15.101.033 25.716 13.225 35.231 25.065 3.393 4.454 7.083 8.675 11.044 12.633 3.611 3.399 7.698 7.622 12.048 12.076 6.27 6.433 13.377 13.741 21.356 21.067 21.014 19.322 46.497 40.842 76.276 54.043 5.987 2.428 11.357 6.163 15.719 10.931 1.46 1.65 2.855 3.414 4.217 5.113 3.144 4.221 6.762 8.067 10.782 11.463 4.797 3.543 9.886 6.671 15.213 9.35 1.758.943 3.483 1.885 5.159 2.826 1.824 1.041 3.68 2.05 5.537 3.058 7.295 3.95 14.837 8.048 20.878 13.872 12.82 12.374 20.234 22.531 24.831 34.014.573 1.45 1.145 3.031 1.783 4.992 4.199 12.865.174 26.091-3.72 38.906v.001ZM353.115 238.026c-2.463 4.799-5.01 9.762-7.388 14.702-5.527 10.979-11.609 21.67-18.221 32.031-2.297 3.735-4.591 7.468-6.832 11.221-4.404 7.373-4.635 11.081-1.176 18.897 3.497 7.333 7.63 14.345 12.352 20.956 3.669 5.249 7.041 10.7 10.098 16.329 6.391 12.531 15.128 23.717 25.737 32.95 12.492 10.629 21.934 28.831 29.519 43.457l1.442 2.776c1.847 3.866 3.268 7.923 4.237 12.097 1.021 4.492 2.593 8.84 4.68 12.945 8.277 14.871 20.976 25.385 33.258 35.552 5.728 4.742 11.651 9.645 17.073 14.942.672.656 1.326 1.311 1.975 1.961 4.059 4.063 7.893 7.9 13.701 9.789 1.284.453 2.629.706 3.989.75 1.143.057 2.268-.296 3.174-.995 2.415-1.988 2.081-6.597 1.532-11.149-.49-3.535-1.196-7.037-2.113-10.486-1.45-5.911-2.819-11.495-2.004-17.836 1.43-11.526 3.479-22.966 6.138-34.27 2.592-10.691 8.219-31.025 16.776-47.104 2.378-4.467 5.049-9.068 7.634-13.518 5.6-9.644 11.392-19.618 15.26-29.891 3.102-8.773 5.662-17.729 7.663-26.817 1.436-5.949 2.922-12.102 4.728-18.085 1.418-5.286 2.333-10.694 2.733-16.153.75-7.156 1.459-13.916 4.384-20.164 3.862-8.247 4.401-15.969 4.971-24.145.194-2.785.395-5.666.732-8.655.893-7.916 2.561-16.193 4.173-24.198.575-2.853 1.151-5.712 1.697-8.571 1.815-10.377 2.82-20.88 3.006-31.414.319-4.949.982-9.87 1.987-14.726.725-3.973 1.474-8.08 1.846-12.174l-1.638-.148c-.365 4.019-1.108 8.09-1.825 12.026-1.021 4.933-1.694 9.931-2.015 14.958-.183 10.452-1.178 20.873-2.976 31.169-.546 2.853-1.121 5.707-1.694 8.555-1.621 8.039-3.295 16.352-4.196 24.338-.34 3.024-.543 5.924-.738 8.726-.559 8.018-1.088 15.591-4.819 23.56-3.044 6.5-3.8 13.715-4.53 20.692-.393 5.354-1.287 10.66-2.671 15.848-1.823 6.027-3.312 12.203-4.753 18.174-1.986 9.023-4.527 17.914-7.606 26.624-3.818 10.145-9.574 20.058-15.142 29.644-2.591 4.462-5.271 9.077-7.661 13.571-8.644 16.238-14.314 36.723-16.925 47.489-2.673 11.364-4.733 22.864-6.171 34.449-.853 6.645.617 12.641 2.039 18.438.901 3.385 1.594 6.822 2.078 10.292.471 3.918.827 8.221-.945 9.679-1.027.843-2.911.826-5.61-.05-5.432-1.765-9.131-5.468-13.046-9.386-.653-.654-1.313-1.315-1.989-1.974-5.471-5.345-11.42-10.27-17.174-15.033-12.164-10.071-24.742-20.484-32.869-35.084-2.026-3.987-3.547-8.211-4.529-12.574-.997-4.29-2.462-8.458-4.366-12.429l-1.441-2.774c-7.652-14.753-17.175-33.114-29.913-43.954-10.447-9.093-19.051-20.111-25.343-32.453-3.085-5.684-6.488-11.189-10.194-16.489-4.665-6.533-8.752-13.46-12.213-20.705-3.254-7.355-3.061-10.442 1.084-17.385 2.237-3.747 4.529-7.474 6.821-11.203 6.644-10.408 12.753-21.149 18.304-32.179 2.368-4.922 4.91-9.875 7.368-14.664 4.667-9.093 9.492-18.496 13.38-28.152 6.083-15.109 8.597-32.377 11.029-49.075.682-4.679 1.326-9.1 2.047-13.489 1.395-8.498 1.969-17.228 2.522-25.671.928-14.139 1.887-28.7603 6.772-42.4004.422-1.1782.831-2.354 1.237-3.5219 3.541-10.1746 6.886-19.7842 17.028-25.58l-.816-1.4297c-10.676 6.1017-14.119 15.9944-17.764 26.4687-.405 1.1633-.813 2.3344-1.234 3.5082-4.963 13.8573-5.93 28.5951-6.864 42.8471-.551 8.404-1.121 17.094-2.505 25.511-.723 4.405-1.368 8.832-2.051 13.52-2.418 16.602-4.917 33.77-10.927 48.697-3.86 9.586-8.668 18.954-13.317 28.015Z"/></g></svg>