<svg width="62" height="46" viewBox="0 0 62 46" fill="none" xmlns="http://www.w3.org/2000/svg"><path d="M49.9268 45.5938c-.3334 0-.6459-.0938-.9375-.2813-.2709-.2083-.4584-.4792-.5625-.8125-.1459-.4167-.125-.8229.0625-1.2188.2083-.3958.5208-.6666.9375-.8124l2.7187-.875c-2.625-.625-5-1.5313-7.125-2.7188-2.1042-1.2083-4.0625-2.5833-5.875-4.125-1.7917-1.5625-3.4792-3.25-5.0625-5.0625-1.5625-1.8125-3.0937-3.6354-4.5937-5.4687-1.7917-2.1876-3.5938-4.3021-5.4063-6.3438-1.8125-2.0625-3.7917-3.875-5.9375-5.4375-2.1458-1.5833-4.5312-2.85417-7.1562-3.8125-2.62504-.95833-5.64588-1.4375-9.06254-1.4375-.4375 0-.8125-.15625-1.125002-.46875-.3125-.3125-.46875-.6875-.46875-1.125s.15625-.8125.46875-1.125C1.11426 4.15625 1.48926 4 1.92676 4c3.79166 0 7.14583.53125 10.06254 1.59375 2.9166 1.04167 5.552 2.42708 7.9062 4.15625 2.3542 1.7083 4.5 3.6562 6.4375 5.8438 1.9375 2.1666 3.8125 4.3645 5.625 6.5937 1.7917 2.1875 3.5938 4.3021 5.4063 6.3437 1.8333 2.0417 3.8229 3.8542 5.9687 5.4376 2.1458 1.5833 4.5313 2.8541 7.1563 3.8124 2.625.9376 5.6354 1.4063 9.0312 1.4063.3958 0 .7396.1354 1.0313.4063.3125.25.5.5624.5625.9374.0625.3959-.0105.7605-.2188 1.0938-.2083.3333-.4896.5625-.8437.6875l-9.625 3.2187c-.0834.0209-.1667.0417-.25.0626h-.25ZM34.7393 20c-.1875 0-.375-.0312-.5625-.0938-.1667-.0624-.323-.1666-.4688-.3124-.3333-.2917-.5208-.6563-.5625-1.0938-.0208-.4375.1146-.8229.4063-1.1562 1.1875-1.3542 2.4375-2.6771 3.75-3.9688s2.7187-2.4896 4.2187-3.59375c1.5208-1.10417 3.1563-2.08333 4.9063-2.9375 1.75-.85417 3.6562-1.53125 5.7187-2.03125l-2.7187-.90625c-.4167-.125-.7292-.38542-.9375-.78125-.1875-.39583-.2084-.80208-.0625-1.21875.125-.4375.3854-.75.7812-.9375S50.0101.75 50.4268.875l9.625 3.21875c.3541.125.6354.35417.8437.6875.2083.33333.2813.6875.2188 1.0625-.0625.39583-.25.71875-.5625.96875-.2917.25-.6355.375-1.0313.375-2.6667 0-5.0937.30208-7.2812.90625-2.1667.58333-4.198 1.41667-6.0938 2.50005-1.875 1.0624-3.6458 2.3437-5.3125 3.8437-1.6458 1.5-3.2708 3.1771-4.875 5.0313-.1667.1666-.3542.302-.5625.4062-.2083.0833-.4271.125-.6562.125ZM1.92676 42.4062c-.4375 0-.8125-.1562-1.125002-.4687-.3125-.3125-.46875-.6875-.46875-1.125 0-.4583.15625-.8437.46875-1.1563.312502-.3124.687502-.4687 1.125002-.4687 2.66666 0 5.09375-.2917 7.28125-.875 2.18749-.5833 4.21879-1.4063 6.09379-2.4687 1.875-1.0834 3.6354-2.375 5.2812-3.875 1.6667-1.5 3.3125-3.1771 4.9375-5.0313.2917-.3333.6563-.5104 1.0938-.5313.4375-.0208.8229.1042 1.1562.375.3333.2917.5104.6667.5313 1.125.0416.4376-.0834.823-.375 1.1563-1.5209 1.7292-3.1459 3.3958-4.875 5-1.7084 1.6042-3.6042 3.0313-5.6875 4.2813-2.0834 1.2291-4.3959 2.2187-6.9375 2.9687-2.52088.7292-5.35421 1.0937-8.50004 1.0937Z" fill="#1B127D"/></svg>