<svg width="64" height="65" viewBox="0 0 64 65" fill="none" xmlns="http://www.w3.org/2000/svg"><path d="M25.125 23.0625 5.46875 3.40625H17.5938c.4374 0 .8124-.15625 1.125-.46875.3124-.3125.4687-.6875.4687-1.125 0-.45833-.1563-.84375-.4687-1.15625-.3126-.3125-.6876-.46875-1.125-.46875H1.59375c-.4375 0-.8125.15625-1.125.46875S0 1.35417 0 1.8125v16c0 .4375.15625.8125.46875 1.125s.6875.4687 1.125.4687.8125-.1562 1.125-.4687.46875-.6875.46875-1.125V5.65625L22.875 25.3438c.1458.1458.3125.2604.5.3437.2083.0833.4167.125.625.125.2083 0 .4062-.0417.5938-.125.2083-.0833.3854-.1979.5312-.3437.3125-.3126.4688-.6876.4688-1.125 0-.4584-.1563-.8438-.4688-1.1563ZM62.4062.1875h-16c-.4374 0-.8124.15625-1.125.46875-.3124.3125-.4687.69792-.4687 1.15625 0 .4375.1563.8125.4687 1.125.3126.3125.6876.46875 1.125.46875h12.125L38.875 23.0625c-.3125.3125-.4688.6979-.4688 1.1563 0 .4374.1563.8124.4688 1.125.1458.1458.3125.2604.5.3437.2083.0833.4167.125.625.125.2083 0 .4062-.0417.5938-.125.2083-.0833.3854-.1979.5312-.3437L60.8125 5.65625V17.8125c0 .4375.1563.8125.4687 1.125.3126.3125.6876.4687 1.125.4687.4376 0 .8126-.1562 1.125-.4687.3126-.3125.4688-.6875.4688-1.125v-16c0-.45833-.1562-.84375-.4688-1.15625-.3124-.3125-.6874-.46875-1.125-.46875ZM25.125 39.0625c-.3125-.3125-.6875-.4687-1.125-.4687s-.8125.1562-1.125.4687L3.1875 58.75V46.5938c0-.4376-.15625-.8126-.46875-1.125-.3125-.3126-.6875-.4688-1.125-.4688s-.8125.1562-1.125.4688C.15625 45.7812 0 46.1562 0 46.5938v16c0 .4374.15625.8124.46875 1.125.3125.3124.6875.4687 1.125.4687H17.5938c.4374 0 .8124-.1563 1.125-.4687.3124-.3126.4687-.6876.4687-1.125 0-.4376-.1563-.8126-.4687-1.125-.3126-.3126-.6876-.4688-1.125-.4688H5.46875L25.125 41.3438c.3125-.3126.4688-.6876.4688-1.125 0-.4584-.1563-.8438-.4688-1.1563ZM62.4062 45c-.4374 0-.8124.1562-1.125.4688-.3124.3124-.4687.6874-.4687 1.125V58.75L41.125 39.0625c-.3125-.3125-.6875-.4687-1.125-.4687s-.8125.1562-1.125.4687-.4688.6979-.4688 1.1563c0 .4374.1563.8124.4688 1.125L58.5312 61h-12.125c-.4374 0-.8124.1562-1.125.4688-.3124.3124-.4687.6874-.4687 1.125 0 .4374.1563.8124.4687 1.125.3126.3124.6876.4687 1.125.4687h16c.4376 0 .8126-.1563 1.125-.4687.3126-.3126.4688-.6876.4688-1.125v-16c0-.4376-.1562-.8126-.4688-1.125-.3124-.3126-.6874-.4688-1.125-.4688Z" fill="#1B127D"/></svg>