<svg width="64" height="65" viewBox="0 0 64 65" fill="none" xmlns="http://www.w3.org/2000/svg"><path d="M41.5938 20.9062c0-.2708-.0626-.927-.1876-1.9687-.125-1.0417-.4374-2.1563-.9374-3.3437-.3334-.8334-.7396-1.573-1.2188-2.2188-.4792-.6667-1.0208-1.2396-1.625-1.7188-.1458-.125-.3021-.2395-.4688-.3437-.1666-.125-.3333-.2292-.5-.3125.5417-.5833.9688-1.25 1.2813-2 .3125-.75.4687-1.55208.4687-2.40625 0-.875-.1666-1.69792-.5-2.46875-.3333-.79167-.7916-1.46875-1.375-2.03125-.5833-.58333-1.2708-1.04167-2.0624-1.375C33.6979.364583 32.875.1875 32 .1875c-.875 0-1.7083.177083-2.5.53125-.7708.33333-1.4479.79167-2.0312 1.375-.5834.5625-1.0417 1.23958-1.375 2.03125-.3334.77083-.5 1.59375-.5 2.46875 0 .85417.1562 1.65625.4687 2.40625s.7396 1.4167 1.2813 2c-.1667.0833-.3334.1875-.5.3125-.1667.1042-.323.2187-.4688.3437-.6042.4792-1.1458 1.0521-1.625 1.7188-.4792.6458-.8854 1.3854-1.2188 2.2188-.5624 1.3333-.8958 2.552-1 3.6562-.0833 1.1042-.125 1.6875-.125 1.75 0 .4375.1563.8125.4688 1.125s.6875.4688 1.125.4688h16c.4375 0 .8125-.1563 1.125-.4688s.4688-.6875.4688-1.125v-.0938ZM28.8125 6.59375c0-.875.3125-1.625.9375-2.25s1.375-.9375 2.25-.9375 1.625.3125 2.25.9375.9375 1.375.9375 2.25c0 .89583-.3125 1.65625-.9375 2.28125s-1.375.9375-2.25.9375-1.625-.3125-2.25-.9375-.9375-1.38542-.9375-2.28125ZM25.75 19.4062c.0625-.375.1458-.7812.25-1.2187.125-.4583.2812-.9167.4688-1.375.5416-1.2917 1.2604-2.25 2.1562-2.875C29.5417 13.3125 30.6667 13 32 13c1.1458 0 2.0938.2292 2.8438.6875.7708.4375 1.3854.9896 1.8437 1.6563.4792.6458.8333 1.3437 1.0625 2.0937.25.7292.4167 1.3854.5 1.9687h-12.5Zm-6.5625 36.6876c0-.2709-.0625-.9167-.1875-1.9376-.125-1.0416-.4375-2.1666-.9375-3.375-.3333-.8124-.7396-1.552-1.2187-2.2187-.4792-.6667-1.0209-1.2396-1.625-1.7187-.1459-.125-.3021-.2396-.4688-.3438-.1667-.1042-.3333-.2083-.5-.3125.5417-.5833.9688-1.25 1.2812-2 .3126-.75.4688-1.5417.4688-2.375 0-.8958-.1667-1.7292-.5-2.5-.3333-.7708-.7917-1.4479-1.375-2.0313-.5833-.5833-1.2604-1.0416-2.0312-1.375-.7709-.3333-1.6042-.5-2.50005-.5-.875 0-1.70833.1667-2.5.5-.77083.3334-1.44792.7917-2.03125 1.375-.5625.5834-1.02083 1.2605-1.375 2.0313-.33333.7708-.5 1.6042-.5 2.5 0 .8333.15625 1.625.46875 2.375s.73958 1.4167 1.28125 2c-.16667.1042-.33333.2083-.5.3125-.14583.1042-.30208.2188-.46875.3438-.60417.4791-1.14583 1.052-1.625 1.7187-.47917.6667-.88542 1.4063-1.21875 2.2187-.5625 1.3334-.895833 2.5626-1 3.6876C.0416667 55.5729 0 56.1458 0 56.1875c0 .4583.15625.8437.46875 1.1563.3125.3124.6875.4687 1.125.4687H17.5938c.4374 0 .8124-.1563 1.125-.4687.3124-.3126.4687-.698.4687-1.1563v-.0937ZM6.40625 41.8125c0-.8958.3125-1.6563.9375-2.2813.625-.625 1.375-.9374 2.25-.9374.89585 0 1.65625.3124 2.28125.9374s.9375 1.3855.9375 2.2813c0 .875-.3125 1.625-.9375 2.25S10.4896 45 9.59375 45c-.875 0-1.625-.3125-2.25-.9375s-.9375-1.375-.9375-2.25ZM3.375 54.5938c.04167-.375.11458-.7813.21875-1.2188.125-.4583.28125-.9167.46875-1.375.54167-1.2708 1.27083-2.2188 2.1875-2.8438.91667-.6458 2.03125-.9687 3.34375-.9687 1.14585 0 2.09375.2292 2.84375.6875.7708.4375 1.3854.9896 1.8437 1.6562.4792.6459.8334 1.3438 1.0626 2.0938.25.7292.4166 1.3854.5 1.9688H3.375Zm60.625 1.5c0-.2709-.0625-.9167-.1875-1.9376-.125-1.0416-.4375-2.1666-.9375-3.375-.3333-.8124-.7396-1.552-1.2188-2.2187-.4791-.6667-1.0208-1.2396-1.625-1.7187-.1666-.125-.3333-.2396-.5-.3438-.1458-.1042-.302-.2083-.4687-.3125.5417-.5833.9687-1.25 1.2813-2 .3124-.75.4687-1.5417.4687-2.375 0-.8958-.1771-1.7292-.5313-2.5-.3333-.7708-.7916-1.4479-1.375-2.0313-.5624-.5833-1.2395-1.0416-2.0312-1.375-.7708-.3333-1.5938-.5-2.4688-.5-.8958 0-1.7291.1667-2.5.5-.7708.3334-1.4479.7917-2.0312 1.375-.5833.5834-1.0417 1.2605-1.375 2.0313-.3333.7708-.5 1.6042-.5 2.5 0 .8333.1562 1.625.4688 2.375.3124.75.7395 1.4167 1.2812 2-.1667.1042-.3333.2083-.5.3125-.1667.1042-.3229.2188-.4688.3438-.6041.4791-1.1458 1.052-1.625 1.7187-.4791.6667-.8854 1.4063-1.2187 2.2187-.5625 1.3334-.8958 2.5626-1 3.6876-.0833 1.1041-.125 1.677-.125 1.7187 0 .4583.1563.8437.4687 1.1563.3126.3124.6876.4687 1.125.4687h16c.4376 0 .8126-.1563 1.125-.4687.3126-.3126.4688-.698.4688-1.1563v-.0937ZM51.1875 41.8125c0-.8958.3125-1.6563.9375-2.2813.625-.625 1.3854-.9374 2.2812-.9374.875 0 1.625.3124 2.25.9374s.9376 1.3855.9376 2.2813c0 .875-.3126 1.625-.9376 2.25s-1.375.9375-2.25.9375c-.8958 0-1.6562-.3125-2.2812-.9375-.625-.625-.9375-1.375-.9375-2.25Zm-3.0313 12.7813c.0626-.375.1459-.7813.25-1.2188.125-.4583.2813-.9167.4688-1.375.5417-1.2708 1.2604-2.2188 2.1562-2.8438.9167-.6458 2.0417-.9687 3.375-.9687 1.1459 0 2.0938.2292 2.8438.6875.7708.4375 1.3854.9896 1.8438 1.6562.4791.6459.8333 1.3438 1.0624 2.0938.2292.7292.3959 1.3854.5 1.9688h-12.5ZM32 64.1875c-1.0417 0-2.0833-.0625-3.125-.1875-1.0208-.125-2.0312-.3125-3.0312-.5625s-1.9896-.5625-2.9688-.9375c-.9583-.3542-1.8958-.7708-2.8125-1.25-.3958-.2083-.6667-.5208-.8125-.9375-.125-.4375-.0833-.8437.125-1.2187.2083-.3959.5208-.6563.9375-.7813.4375-.1458.8542-.1146 1.25.0937.7917.4376 1.6042.823 2.4375 1.1563.8542.3125 1.7188.5729 2.5938.7813.8958.2083 1.7916.375 2.6874.5C30.1771 60.9479 31.0833 61 32 61c.9167 0 1.8229-.0521 2.7188-.1562.8958-.125 1.7812-.2917 2.6562-.5.8958-.2084 1.7604-.4688 2.5938-.7813.8541-.3333 1.677-.7187 2.4687-1.1563.3958-.2083.8021-.2395 1.2187-.0937.4376.125.7605.3854.9688.7813.2083.375.2396.7812.0938 1.2187-.125.4167-.3855.7292-.7813.9375-.9167.4792-1.8646.8958-2.8437 1.25-.9584.375-1.9376.6875-2.9376.9375-1 .25-2.0208.4375-3.0624.5625-1.0209.125-2.0521.1875-3.0938.1875Zm23.125-30.375c-.3333 0-.6458-.1042-.9375-.3125-.2917-.2292-.4896-.5208-.5937-.875-.375-1.3333-.8646-2.6146-1.4688-3.8438-.6042-1.25-1.3229-2.427-2.1562-3.5312-.8126-1.1042-1.7292-2.125-2.75-3.0625-1-.9375-2.0938-1.7813-3.2813-2.5313-.375-.25-.6146-.5833-.7187-1-.0834-.4374-.0105-.8437.2187-1.2187.25-.375.5833-.6042 1-.6875.4375-.1042.8437-.0417 1.2187.1875 1.3542.8542 2.6042 1.8229 3.75 2.9063 1.1667 1.0624 2.2188 2.2291 3.1563 3.5.9375 1.25 1.75 2.5833 2.4375 4 .6875 1.4166 1.25 2.8958 1.6875 4.4374.1042.4167.0417.823-.1875 1.2188-.2083.375-.5208.625-.9375.75-.0625.0208-.1354.0417-.2187.0625h-.2188Zm-46.25 0h-.25c-.0625-.0208-.125-.0417-.1875-.0625-.41667-.125-.73958-.375-.96875-.75-.20833-.3958-.26042-.8021-.15625-1.2188.4375-1.5416 1-3.0208 1.6875-4.4374.6875-1.4167 1.5-2.75 2.4375-4 .9375-1.2709 1.9792-2.4376 3.125-3.5 1.1667-1.0834 2.4271-2.0521 3.7813-2.9063.375-.2292.7708-.2917 1.1874-.1875.4376.0833.7813.3125 1.0313.6875.2292.375.2917.7813.1875 1.2187-.0833.4167-.3125.75-.6875 1-1.1875.75-2.2917 1.5938-3.3125 2.5313-1 .9375-1.9167 1.9583-2.75 3.0625-.8125 1.1042-1.5208 2.2812-2.125 3.5312-.6042 1.2292-1.0938 2.5105-1.4688 3.8438-.1041.3542-.302.6458-.5937.875-.29167.2083-.60417.3125-.9375.3125Z" fill="#1B127D"/></svg>