<svg width="825" height="833" viewBox="0 0 825 833" fill="none" xmlns="http://www.w3.org/2000/svg"><g clip-path="url(#clip0_1786_4461)" stroke="#F2F4F6" stroke-width="1.25" stroke-linecap="round" stroke-linejoin="round"><path d="M-408.813 1341.53c37.484-31 122.781-42.59 163.606-37.65 10.339.83 20.571 2.82 30.461 5.93 5.541 1.72 10.966 3.76 16.236 6.11 6.382 2.72 12.598 5.77 18.616 9.13 13.64 8.06 25.894 17.95 36.323 29.32 8.258 8.86 16.143 18.1 24.089 27.12 6.132 6.87 12.326 13.52 20.3216 17.5 11.9321 6.2 24.2227 6.25 37.0544-1.5 4.6181-2.7 8.5199-6.28 11.452-10.5 2.9294-4.3 4.8086-9.14 5.5156-14.2.9726-10.4-.111-20.93-3.2-31.11-4.9181-20.02-10.3976-39.94-13.1969-60.85-2.1982-17.05-2.4933-34.2-.8813-51.18 1.2073-12.64 3.8294-25.09 7.8267-37.16 3.4879-10.25 7.8419-20.22 13.0241-29.81 7.3613-13.03 16.1257-25.34 26.1699-36.75 7.77559-8.81 15.738991-17.33 23.8904-25.57 14.2483-14.83 27.9972-29.79 40.8065-46.19 10.0105-13.04 19.8949-26.6 30.3431-39.29 9.6723-11.84 20.7269-22.684 32.9819-32.348 15.813-12.746 32.756-22.797 49.26-34.163 9.322-6.114 17.562-13.462 24.461-21.811 4.968-6.217 8.472-13.324 10.302-20.897 1.988-9.174 1.878-18.689-.322-27.964-2.935-12.25-7.252-24.237-12.882-35.769-3.199-6.834-6.649-13.733-10.16-20.406-8.275-15.594-16.613-30.964-24.95-46.334-4.639-8.406-9.215-17.037-13.604-25.38-8.778-16.685-17.555-33.37-26.021-50.214-9.7841-19.829-18.6334-40.138-28.4791-59.742-8.5801-17.212-19.7079-33.347-33.0651-47.945-11.9037-12.946-25.3752-24.648-40.14327-34.869-7.405504-5.323-15.56662-9.694-24.24003-12.982-5.0129-2.051-10.1669-3.782-15.4231-5.18-8.2692-1.822-16.7541-2.47-25.1472-1.919-20.9588 1.324-40.7802 8.229-59.9072 18.438-12.609 6.423-23.799 14.844-33.063 24.88-6.466 7.266-11.236 15.674-14.035 24.741-3.171 11.354-4.257 23.17-3.216 34.983 1.037 14.688 2.446 28.992 4.044 43.585 1.916 17.318 4.332 34.765 4.565 52.371.161 8.548-.485 17.065-1.93 25.46-2.7 17.57-10.584 32.601-21.091 46.475-12.447 16.312-26.254 31.71-41.306 46.068-10.467 10.382-21.718 20.087-33.677 29.05-15.697 11.919-33.172 21.801-51.955 29.381-7.852 3.262-16.018 5.723-24.308 8.632-1.155.465-2.225 1.079-3.177 1.824"/><path d="M477.044 1278.18c-7.167 2.72-14.023 5.27-20.941 8.06-15.082 6.2-30.102 12.18-45.057 18.9-14.044 6.35-27.1 14.28-38.869 23.62-11.58 9.03-22.973 18.35-34.742 27.09-17.62 13.49-36.747 23.69-57.572 28.42-11.194 2.6-22.833 3.57-34.493 2.88-8.487-.36-16.932-1.65-25.152-3.85-2.997-.77-5.929-.8-8.864-1.8-8.179-2.35-16.296-4.92-24.663-7.56-6.369-2.13-12.987-4.31-19.418-6.21-9.616-2.96-19.293-5.7-29.281-8.28-6.805-1.51-13.794-2.35-20.722-3.42-5.929-.81-11.796-1.84-17.4753-2.58-5.1798-.62-10.4213-1.01-15.3514-1.56-3.8693-.52-7.8623-.58-11.6698-1.33-8.0163-1.18-15.9599-2.83-23.7826-4.93-23.0383-6.66-42.03935-20.22-55.25998-42.13-8.18012-13.54-13.47092-28.29-15.58472-43.44-1.6365-10.56-1.496-21.22.4171-31.62.7294-5.39 1.8408-10.72 3.3275-15.96 3.9136-12.42 9.85382-24.17 17.627521-34.87C11.3287 1160.94 26.393 1148 41.4573 1135.07c15.0642-12.94 30.9393-25.91 43.2492-42.45 5.4713-7.24 10.8166-14.99 15.8505-22.59 9.632-14.58 18.765-29.29 29.898-42.52 8.068-9.77 17.335-18.67 27.631-26.52 10.772-8.038 22.232-15.658 33.004-23.695 10.399-7.653 20.736-15.082 29.506-25.558 6.8-7.924 11.721-17.067 14.472-26.887 2.75-9.82 3.273-20.116 1.538-30.273-1.521-8.583-3.839-17.061-6.929-25.34-2.69-7.749-5.961-15.339-9.791-22.715-5.205-10.236-10.845-19.862-16.361-29.937-1.943-3.626-3.949-7.028-5.642-10.589-11.161-21.626-22.634-43.092-33.172-65.037-8.72-17.739-16.125-35.95-22.164-54.508-6.731-21.204-13.15-42.568-19.942-63.547-6.265-19.483-16.917-37.706-31.2702-53.492-11.1362-12.005-23.3305-23.082-35.3369-33.87-14.1327-12.778-28.0158-25.492-42.2722-37.822-5.71391-5.049-12.20294-9.316-19.24819-12.655-10.47431-4.91-22.38761-6.365-33.63751-4.11-15.6169 2.866-30.7588 7.347-45.134 13.356-20.692 8.122-41.383 16.245-61.949 24.881-12.713 5.374-25.3 11.26-37.761 17.66-11.098 5.635-20.753 13.281-28.39 22.481-4.442 5.448-7.84 11.554-10.06 18.075-4.273 12.73-5.262 26.283-2.892 39.633 2.542 17.961 5.396 35.761 8.188 53.786 2.608 17.734 3.156 35.599 1.635 53.299-1.36 12.696-4.257 25.166-8.637 37.189-5.047 14.303-12.366 27.795-21.732 40.061-8.37 11.471-18.019 22.107-28.803 31.748-12.907 11.461-27.48 21.278-43.346 29.199-1.112.673-2.135 1.457-3.051 2.337"/><path d="M466.839 1314.24c-19.041 5.39-37.288 12.69-54.408 21.78-11.682 6.42-22.666 13.81-32.821 22.06-9.961 8.01-20.298 15.44-30.198 23.22-12.661 9.71-26.761 17.8-41.924 24.03-15.776 6.63-32.967 10.29-50.569 10.76-8.297.02-16.595.04-24.768-.38-5.492-.46-10.736-1.81-16.103-2.72-4.058-.8-8.427-1.45-12.422-2.48-5.744-1.48-11.425-3.19-17.045-5.12-5.932-1.77-12.051-3.82-17.859-6.04-11.454-4.2-23.203-7.63-35.151-10.27-6.554-1.45-13.294-2.23-19.972-3.23-16.1647-2.49-32.6955-1.7-49.0407-1.59-8.3593.24-16.6567.27-25.0803-.22-13.4846-.54-26.4146-5.77-36.09792-14.6-9.46998-9.08-17.55838-19.25-24.03528-30.23-9.4332-15.24-16.4711-31.54-20.9008-48.42-5.9374-20.21-7.6218-41.11-4.9635-61.61.7959-5.8 1.592-11.6 2.9492-17.5 1.2516-6 2.8817-11.92 4.8825-17.73 3.2351-7.89 6.9643-15.6 11.17-23.08 8.4678-14.75 19.135-28.33 31.71287-40.37l35.09783-34.21c12.2003-12.13 23.2265-25.21 32.964-39.08 9.076-12.56 18.2756-25.57 27.7274-37.56 9.9777-12.66 21.8237-23.99 35.2237-33.694 11.645-8.293 23.478-16.297 35.061-24.366 8.956-5.905 17.308-12.516 24.966-19.758 8.785-8.594 14.845-19.213 17.576-30.798 1.339-5.99 1.596-12.173.764-18.31-1.273-13.143-5.043-26.07-11.142-38.205-4.203-9.016-8.157-17.967-12.734-26.598-7.336-14.15-15.295-27.98-22.942-41.97-2.132-3.914-4.451-8.117-6.52-12.256-3.511-6.674-7.023-13.348-10.284-19.958-5.078-9.722-10.407-19.509-15.112-29.615-6.901-14.759-13.429-29.902-20.018-44.821-4.896-11.357-9.48-22.874-14.687-34.071-4.1416-9.24-8.2831-18.48-13.0477-27.4-6.8158-12.588-15.3368-24.397-25.3581-35.143-6.8191-7.286-13.7001-14.349-21.2041-21.091-13.4407-12.678-28.5183-23.833-44.88036-33.207-9.43424-5.185-19.75564-8.824-30.47304-10.744-11.4181-1.707-23.0152-1.262-34.0603 1.31-15.2759 3.196-30.0872 7.833-44.1964 13.837-12.01 5.137-23.678 10.873-34.955 17.183-9.502 5.352-18.129 11.856-25.654 19.341-7.157 7.132-12.212 15.814-14.72 25.285-3.334 12.29-4.147 25.112-2.397 37.837 1.219 13.053 2.999 26.01 4.53 38.903 2.175 15.802 3.341 31.672 3.492 47.529.085 10.67-.785 21.297-2.6 31.776-1.848 9.454-4.579 18.719-8.163 27.698-7.254 17.597-18.07 32.593-29.762 46.882-12.507 15.364-26.862 29.391-42.814 41.834-14.043 11.019-29.713 20.234-46.595 27.4-5.173 2.271-10.533 4.253-15.955 6.46-.712.413-1.378.884-1.992 1.409"/><path d="M472.525 1293.6c-14.896 5.53-29.543 11.13-44.501 16.88-17.35 7-33.52 16.08-48.093 27.02-10.71 7.81-20.919 16.71-31.441 24.81-16.001 12.46-32.569 23.09-50.956 29.64-23.053 8.09-48.435 9.89-73.105 5.18-8.802-2.03-17.416-3.77-26.094-6.25-6.493-1.67-12.55-3.96-18.919-6.08-5.87-1.99-11.428-4.15-17.421-5.69-10.365-3.16-20.791-6.09-31.03-8.73-6.019-1.27-12.105-2.19-18.224-2.78-6.678-1-13.418-1.77-20.1579-2.55-5.741-.52-11.7935-.88-17.4727-1.62-5.6792-.75-11.482-1.04-17.0994-2.01-6.3666-1.16-12.921-2.61-19.1639-4.22-11.6906-3.33-22.3862-9.23-31.11359-17.16-12.56763-10.69-22.08671-24.68-29.30161-40.24-7.0715-15.47-10.9846-31.88-11.5426-48.41-.3333-9.68.2679-19.33 1.7967-28.86 3.3859-18.88 11.0484-36.78 22.5103-52.6 11.31348-15.82 24.9436-28.41 38.8236-40.94 10.7054-9.73 21.4109-19.47 31.6787-29.56 10.1055-10.49 19.0583-21.86 26.7386-33.96 9.0735-13.53 17.6478-27.18 28.0338-39.64 9.522-11.76 20.618-22.37 33.046-31.615 9.029-6.564 18.246-12.839 27.525-19.339 10.649-7.588 21.485-14.888 31.068-24.434 7.188-7.052 12.65-15.421 16.049-24.589 3.399-9.169 4.664-18.943 3.714-28.718-1.37-12.294-4.701-24.408-9.888-35.959-3.199-6.834-5.776-13.988-9.287-20.662-6.96-13.572-14.543-26.824-21.877-40.012l-6.206-11.455c-10.597-20.759-21.318-41.07-31.292-62.149-10.147-21.643-18.973-43.739-26.437-66.185-6.412-18.478-12.885-36.731-21.851-53.705-6.2139-11.658-13.9753-22.622-23.1052-32.638-5.7559-6.292-11.8853-12.199-18.0146-18.106-13.7277-13.125-28.2584-25.54-43.5182-37.182-7.54348-5.873-15.711105-11.041-24.37115-15.419-6.89335-3.139-14.28315-5.208-21.85155-6.117-19.0971-2.522-37.6749 2.781-56.0004 9.111-13.8381 4.603-27.2999 9.783-40.6359 15.476-14.583 6.334-29.227 12.892-43.369 20.541-10.413 5.319-19.541 12.426-26.897 20.943-4.335 4.993-7.772 10.592-10.189 16.6-5.271 12.34-5.612 25.231-4.331 38.059 1.979 17.095 4.519 34.093 6.808 51.028 2.417 16.695 3.337 33.491 2.751 50.221-.614 9.532-1.882 18.998-3.795 28.344-3.641 16.801-10.233 32.869-19.528 47.599-12.515 20.251-28.626 38.414-47.712 53.79-14.804 12.074-31.446 22.178-49.458 30.026-.623.32-1.369 1.089-1.992 1.409"/><path d="M496.633 1205.12c-2.803 1.44-5.857 2.81-8.661 4.25-19.752 9.57-39.504 19.14-59.382 28.19-14.332 6.4-29.229 11.93-43.687 17.82-17.04 7.08-33.32 15.5-48.66 25.18-10.339 6.47-20.429 13-30.769 19.46-11.807 7.62-25.198 13.06-39.45 16.03-6.998 1.37-14.175 2.02-21.393 1.93-8.369-.31-16.727-1.1-25.024-2.37-7.489-.97-14.916-2.16-22.282-3.58-5.367-.91-10.362-2.19-15.668-3.32-3.308-.61-6.366-1.16-9.674-1.78-5.368-.9-11.047-1.64-16.477-2.32-4.119-.58-8.426-1.46-12.607-1.81-4.93-.55-10.233-.72-15.413-1.33-6.989-.85-13.979-1.69-20.907-2.75-6.9275-1.07-13.8553-2.13-20.7212-3.42-3.3082-.62-6.6188-2.19-10.1149-3.09-8.4694-2.47-16.2856-6.62-22.8652-12.15-7.8277-6.26-13.408-14.5-15.97-23.59-4.6559-15.14-1.9491-29.82 6.3752-43.54 5.6004-9.14 12.8265-17.34 21.3984-24.28 12.1394-10.09 24.6546-19.6 36.9817-29.4 11.985-9.67 22.427-20.8 31.046-33.09 9.261-13.24 16.522-27.95 24.409-42.02 5.798-10.67 12.465-20.92 19.947-30.66 12.374-15.8 27.814-28.16 43.131-40.07 11.954-9.42 23.846-18.61 33.985-30.175 11.633-13.104 20.516-27.877 23.838-45.767 2.186-11.464 2.45-23.225.783-34.889-2.616-16.533-7.892-32.715-15.659-48.023-7.653-15.914-16.363-30.898-24.328-46.652-8.78-17.647-18.121-35.199-24.97-54.03-6.597-17.805-12.071-35.801-13.681-55.204-1.667-14.033-.153-28.122 4.447-41.394 4.957-13.143 13.167-22.562 24.694-28.482 13.145-6.944 26.435-6.641 39.606-3.965 4.837 1.248 9.609 2.72 14.298 4.409 6.181 1.834 12.177 4.342 18.42 5.952 11.487 2.963 22.974 5.926 34.646 8.215 8.372 1.612 16.841 2.672 25.338 3.171 14.62 1.194 29.253-.173 43.099-4.026 8.952-2.141 16.95-6.583 23.05-12.802 2.989-2.896 5.206-6.382 6.491-10.208 1.285-3.825 1.606-7.894.938-11.911-1.086-5.924-3.758-11.567-7.778-16.427-8.011-9.757-19.066-14.291-30.305-18.152-3.151-.931-6.399-1.526-9.675-1.774-7.111-1.243-14.278-2.129-21.468-2.653-16.783-.242-33.69-.036-50.473-.279-6.552.009-13.114-.556-19.594-1.689-5.55-1.231-11.015-2.802-16.357-4.7-5.671-2.137-10.809-5.348-15.06-9.412-9.692-8.508-16.46-19.868-21.296-32.412-8.165-20.853-8.034-42.69-2.603-65.324 5.061-21.288 12.619-41.931 16.119-63.381 1.6-8.721 2.949-17.506 3.799-26.42 1.479-15.583 1.334-31.312-.433-46.979-1.15-10.392-2.05-20.719-3.2-31.11-.572-3.752-1.392-7.569-1.964-11.322-8.111-41.039-17.45-128.109-4.695-162.855 13.246-36.082 62.573-117.38101 65.314-131.9966"/><path d="M501.769 1187.45c-14.517 7.07-28.786 14.21-43.054 21.34-21.433 10.82-43.247 19.13-65.185 27.89-14.77 6.05-29.79 12.03-44.37 19.33-16.387 8.03-32.396 17.6-48.718 26.37-13.715 7.85-29.156 13.03-45.379 15.21-9.796 1.12-19.761 1.06-29.635-.19-9.548-1.26-19.035-2.75-28.584-4.01-2.559-.42-4.868-.77-7.427-1.19-6.117-1.1-12.046-1.91-18.224-2.78-4.119-.58-8.488-1.23-12.607-1.81-5.679-.74-11.42-1.26-16.912-1.72-5.491-.45-10.859-1.36-16.288-2.04-6.753-.5-13.483-1.36-20.158-2.55-8.4892-1.63-16.7698-4.17-24.6625-7.56-10.1569-4.52-18.0751-12.44-22.0177-22.03-2.7373-7.43-2.8886-15.36-.4332-22.7 1.9996-6.08 5.1046-11.77 9.1896-16.86 7.7638-9.3 16.7233-17.72 26.6992-25.08 11.8556-8.91 23.0026-18.56 33.3646-28.89 9.954-10.43 18.43-21.96 25.24-34.35 7.764-13.62 15.027-27.37 22.291-41.12 9.22-16.85 21.466-32.12 36.255-45.2 10.208-8.91 20.604-17.52 31.063-26.36 13.696-11.192 25.265-24.353 34.274-38.992 4.33-7.637 7.718-15.708 10.107-24.071 3.275-14.006 4.101-28.471 2.446-42.872-2.426-16.65-7.579-32.967-15.285-48.407-7.841-16.203-16.616-31.926-24.768-47.969-7.882-15.099-14.878-30.543-20.957-46.264-6.034-15.198-9.872-30.975-11.414-46.928-.779-11.737-.498-23.442 4.276-34.949 3.385-8.416 9.655-15.548 17.915-20.376 8.139-4.655 17.71-6.956 27.496-6.608 7.175.168 14.476.85 21.527 1.467 6.241.648 12.731 1.36 18.909 2.233 4.931.55 9.425 1.71 14.355 2.261 6.491.712 12.981 1.424 19.595 1.688 10.794.621 21.839 1.307 32.819 1.255 12.013-.107 23.931-1.384 35.551-3.81 12.221-2.616 24.19-6.258 34.962-14.296 5.111-3.646 9.173-8.353 11.866-13.748 2.693-5.396 3.943-11.332 3.65-17.341-.539-15.521-7.868-26.785-17.562-36.255-8.299-7.954-18.622-13.926-29.991-17.35-7.496-2.253-15.128-4.061-22.848-5.412-1.81-.227-3.87-.517-5.68-.744-4.93-.55-9.921-.877-14.913-1.203l-20.405-1.657c-8.253-.459-16.485-1.379-24.65-2.753-8.777-1.503-17.341-4.035-25.474-7.531-9.89-4.553-18.352-11.384-24.507-19.781-9.893-13.608-14.551-29.711-14.972-47.605-.23-16.643 2.659-32.962 5.549-49.282 1.414-8.047 3.078-16.03 4.242-24.142 1.286-9.523 2.571-19.046 3.296-28.473 1.937-22.574.008-44.703-2.794-66.576-1.021-8.916-2.292-17.896-3.313-26.812-6.321-52.904-37.231-142.268 10.269-189.7689 44.466-44.4654 58.617-65.9208 68.969-85.40856"/><path d="M-427.824 1253.16c2.003 2.44 3.943 5.1 5.946 7.54 5.195 6.39 10.39 12.77 15.646 18.94 4.312 5.32 10.333 9.31 17.186 11.4 5.059 1.13 10.279 1.33 15.349.59 9.168-1.24 18.022-3.28 27.063-5.03 28.276-6.24 57.523-8.81 86.886-7.64 6.053.36 12.106.72 18.035 1.53 7.738 1.03 15.353 2.52 23.03 3.78 4.795.59 9.524 1.65 14.108 3.16 7.618 2.44 15.238 5.85 22.794 8.52 10.021 3.88 19.644 8.62 28.735 14.14 5.81 3.18 10.873 7.13 16.622 10.54 9.373 5.78 18.435 11.72 27.993 16.83 6.31 3.31 13.0524 5.05 20.4053 1.66 4.8293-2.27 8.4727-6.13 10.2036-10.83 3.4735-7.76 3.2656-15.74 3.3074-23.66.0219-15.62-.8289-30.98-1.0568-46.66-.4579-14.6.4225-29.17 2.6321-43.55 1.0432-6.7 2.3979-13.56 3.6908-20.2 1.0482-4.77 1.9085-9.84 3.5179-14.71 4.1699-13.09 9.7146-25.74 16.5595-37.79 5.5899-9.62 11.8672-18.81 18.3324-27.72 12.4953-17.21 27.36664-32.36 40.9251-48.57 12.3148-14.61 24.0041-29.86 35.9431-45.05 14.7995-18.77 30.4125-36.619 48.5919-51.158 10.9407-8.827 22.4147-17.1 34.3737-24.783 7.101-4.418 14.201-8.836 21.114-13.542 9.424-6.165 17.768-13.565 24.774-21.972 7.195-9.032 10.967-20.007 10.774-31.35-.131-11.473-2.505-22.909-7.013-33.775-6.661-18.543-16.188-35.421-24.842-52.554-5.205-10.236-11.032-20.151-16.548-30.226-6.08-10.942-12.099-22.108-18.429-33.114-14.916-26.44-28.1519-54.129-42.0723-81.274-7.7518-15.843-17.3066-30.957-28.5034-45.086-12.3562-15.604-27.3518-29.375-44.40083-40.775-6.74924-4.698-14.14977-8.548-21.99017-11.439-3.6839-1.191-7.1825-3.055-10.9282-4.021-16.2525-4.129-33.3196-3.757-48.9715 1.069-9.2186 2.765-17.9876 6.557-26.1106 11.292-9.402 5.548-17.776 12.382-24.841 20.272-5.36 6.152-9.459 13.147-12.112 20.67-5.327 14.489-5.352 29.144-4.627 43.992 1.274 17.958 3.569 35.878 6.877 53.689 1.524 10.007 3.297 20.078 4.758 30.309 1.756 11.022 2.015 22.148.772 33.127-1.704 12.5-6.795 24.313-14.821 34.393-9.576 12.432-20.904 22.488-32.045 32.834-14.315 13.132-28.879 26.2-43.632 38.979-8.03 6.822-16.437 13.066-24.843 19.31-17.172 12.684-36.321 23.037-56.88 30.755-9.598 3.774-19.448 6.521-29.172 9.782-.953.467-1.954.852-2.991 1.15"/><path d="M506.263 1170.11c-9.907 4.89-20.251 9.44-30.22 14.56-18.629 9.37-37.321 18.97-56.578 26.74-18.074 7.36-36.399 13.69-54.66 20.76-20.319 7.73-39.945 17.81-59.447 27.45-10.291 5.27-21.091 9.72-32.282 13.3-12.804 3.76-26.304 5.48-39.915 5.09-6.614-.27-13.415-.82-19.906-1.53-4.93-.55-9.986-1.62-14.854-2.39-5.617-.97-11.109-1.42-16.726-2.39-6.179-.87-12.483-2.26-18.6-3.36l-7.677-1.26c-6.117-1.09-12.108-1.68-18.225-2.77-3.509-.91-7.076-1.59-10.673-2.04-8.423-.84-16.588-3.44-23.852-7.59-5.3382-2.66-9.4802-6.98-11.6355-12.13-3.8275-8.44-1.1648-16.17 3.4955-23.38 5.1077-7.1 11.12-13.61 17.917-19.41 11.02-9.87 21.327-20.38 30.863-31.46 7.267-8.97 13.73-18.48 19.329-28.42 4.223-7.56 7.696-15.32 11.669-22.95 5.461-11.09 10.735-22.47 16.883-33.14 10.276-17.38 23.538-33.1 39.309-46.58 11.701-10.44 23.653-20.82 34.729-31.9 19.629-19.63 31.741-44.585 34.627-71.349 1.634-17.616-.532-35.479-6.375-52.598-6.256-18.005-14.019-35.597-23.22-52.617-10.283-19.957-20.94-39.53-28.607-61.216-5.809-14.908-8.926-30.488-9.229-46.123-.342-8.445 1.405-16.783 5.115-24.398 4.45-8.889 12.465-15.824 22.472-19.441 9.714-3.377 20.145-4.936 30.683-4.585 10.918.172 21.774.569 32.631.966 9.796.363 19.841.791 29.699.93 10.98-.052 21.96-.104 33.064-.605 14.21-.454 28.242-2.485 41.783-6.048 12.345-3.065 24.5-7.381 35.208-16.156 6.1-4.928 10.771-11.145 13.627-18.138 2.856-6.994 3.816-14.564 2.801-22.089-1.662-15.041-8.463-29.404-19.447-41.068-9.809-10.944-22.717-19.271-37.245-24.027-8.578-2.53-17.29-4.617-26.094-6.25-2.234-.373-4.484-.632-6.74-.776-4.93-.551-10.422-1.006-15.352-1.556-4.93-.551-10.048-1.39-14.978-1.941-6.248-.378-12.48-1.103-18.659-2.169-11.05-2.609-22.161-4.994-32.095-10.681-10.39-5.844-18.766-14.274-24.082-24.238-8.211-14.856-10.501-31.79-9.174-49.234 1.142-16.77 3.406-33.731 5.421-50.757 1.401-12.858 2.303-25.844 2.395-38.799-.465-17.458-1.905-34.916-4.316-52.307-.96-9.141-2.419-18.41-3.628-27.615-8.884-35.646-23.913-115.341-12.951-148.957 13.702-42.0197 86.78-75.8182 95.001-110.5303"/><path d="M481.732 1257.28c-5.484 2.43-11.029 5.08-16.763 7.45-17.262 7.33-34.401 14.2-51.663 21.53-23.447 10.21-45.084 23.39-64.283 39.18-13.697 10.89-27.332 21.55-42.221 29.97-8.47 4.8-17.678 8.5-27.359 10.97-9.105 2.4-18.611 3.51-28.191 3.3-9.749.04-19.507-1.11-29.019-3.4-14.172-3.89-28.47-8.3-42.642-12.2-12.985-3.35-26.033-6.47-39.142-9.37-6.304-1.39-12.671-2.55-19.099-3.49-8.987-1.35-18.16-2.04-27.2093-3.17-8.3-.94-16.5382-2.1-24.9025-3.78-6.4643-1.47-12.8432-3.27-19.1046-5.4-6.6447-2.13-12.9395-5.13-18.6769-8.91-12.9055-8.11-23.2645-19.17-29.96673-32-5.05933-9.23-8.39638-19.11-9.87063-29.23-.84602-6.86-1.09336-13.76-.73974-20.62.14279-7.6 1.5752-15.09 4.24705-22.22 1.80776-5.41 3.981724-10.71 6.50963-15.86 6.73901-13.5 16.25062-25.64 28.04382-35.79 13.0097-11.31 26.3951-22.04 39.5927-33.05 12.8962-10.75 24.1082-23.05 33.3452-36.59 8.576-12.69 16.527-26.02 24.916-39 6.105-9.63 13.092-18.76 20.891-27.3 11.765-12.22 24.858-23.34 39.094-33.175 8.717-6.405 17.499-12.071 25.779-18.828 10.973-8.262 20.031-18.406 26.687-29.89 5.235-9.31 8.326-19.544 9.093-30.102.761-12.566-1.006-25.237-5.213-37.397-5.373-15.639-12.282-30.856-20.643-45.463-8.086-14.343-15.859-28.846-23.571-43.573-6.834-13.059-13.045-26.438-19.256-39.817-4.832-10.62-9.54-21.689-13.748-32.628-6.756-17.182-12.017-34.773-15.733-52.609-2.908-14.69-5.566-29.316-8.786-43.846-2.459-13.722-7.053-27.128-13.641-39.811-7.272-13.412-17.842-23.589-28.474-33.542-10.1937-9.599-20.9467-18.141-31.2025-27.516-12.1157-11.076-22.7299-23.421-31.601-36.752-3.9799-6.122-6.9416-12.72-8.7851-19.571-1.1088-3.773-1.1755-7.703-.1941-11.436.9813-3.733 2.98-7.151 5.8159-9.947 3.477-3.565 7.4035-6.745 11.7043-9.479 9.6605-5.793 20.1821-10.355 31.2833-13.563 19.2857-5.463 39.6442-7.625 60.0632-6.38 11.924.937 23.877.799 35.684-.41 15.108-2.157 28.437-9.696 37.066-20.964 7.9-9.259 12.3-20.382 15.764-31.987 1.911-6.752 3.187-13.658 3.814-20.647 1.495-17.263 1.366-34.663-.384-52.015-.703-6.19-1.093-12.539-1.484-18.889-4.171-38.528-10.901-121.77-10.686-146.64.455-52.5275 43.846-168.9949 48.413-190.0048"/><path d="M487.784 1237.21c-.312.16-.873.25-1.185.41-12.275 5.73-24.674 11.9-37.138 17.34-16.078 6.91-32.094 13.6-48.11 20.28-21.211 9.29-40.965 20.99-58.804 34.83-11.272 9.04-23.145 17.45-35.558 25.2-13.263 8.19-28.528 13.46-44.629 15.4-14.584 1.15-29.372-.06-43.681-3.57-25.906-5.96-50.945-14.1-77.034-18.43-4.369-.64-8.676-1.51-13.106-1.94-5.68-.74-11.233-.97-16.912-1.71-5.679-.75-11.546-1.78-17.4751-2.59-6.9572-.8-13.8748-1.94-20.7215-3.42-6.9502-1.71-13.7737-3.88-20.4176-6.47-6.2683-2.22-12.0876-5.43-17.1811-9.48-10.3529-7.61-18.4238-17.48-23.4073-28.63-10.47873-23.13-9.10463-46.57 3.2496-70.06 6.3379-11.74 14.9482-22.29 25.4356-31.18 12.8861-10.85 26.0862-20.91 38.9104-31.54 15.9358-12.85 29.343-28.07 39.686-45.04 7.951-13.34 15.903-26.67 24.291-39.65 8.28-13.29 18.717-25.34 30.976-35.75 13.759-11.11 28.205-21.807 42.152-32.631 10.76-8.064 20.258-17.412 28.252-27.804 8.599-11.66 13.873-25.146 15.37-39.299 1.071-11.035.178-22.219-2.644-33.129-5.422-22.068-15.891-41.352-26.11-60.572-6.77-12.321-13.851-24.483-20.309-36.964-5.079-9.722-9.596-19.54-14.114-29.358-4.203-9.015-7.907-17.902-11.549-27.013-9.679-23.738-16.012-48.392-18.844-73.36-1.534-13.855-1.321-28.221-1.421-42.427-.096-13.244.679-26.744-1.85-39.894-1.701-10.269-6.164-20.09-12.988-28.587-8.261-9.821-18.51-16.31-28.946-23.088-11.811-7.613-23.3721-15.161-33.1311-25.37-6.1808-5.871-10.8324-12.912-13.5913-20.57-3.6471-11.035-1.4864-19.852 7.1026-27.731 5.0606-4.552 11.3006-7.889 18.1918-9.729 13.591-3.705 26.88-3.402 40.172-2.137 8.8 1.068 17.537 2.36 26.272 2.691 11.507.57 22.711-2.589 31.608-8.913 9.308-6.84 16.998-15.304 22.644-24.924 4.517-6.979 8.099-14.444 10.673-22.243 2.846-9.361 5.941-18.657 7.788-28.275 2.089-11.676 2.853-23.559 2.278-35.465-.92-18.023-2.463-35.726-3.945-53.654-4.924-33.948-12.825-108.623-11.576-136.099 2.741-60.2886 53.439-142.04474 58.92-180.4106"/><path d="M-418.118 1217.92c1.444 1.35 2.968 2.62 4.564 3.82 5.813 4.14 11.875 8.35 17.812 12.04 7.634 5.01 15.561 9.62 23.743 13.82 5.516 2.62 11.349 4.61 17.359 5.92 9.512 1.64 19.094 2.83 28.707 3.56 14.165 1.01 28.453 1.57 42.68 2.35 10.794.62 21.9 1.08 32.695 1.71 4.992.32 10.11 1.16 15.04 1.71 6.74.78 13.23 1.49 19.908 2.49 2.809.49 5.679.75 8.176 1.39 13.297 3.19 26.844 6.44 40.141 9.63 5.743 1.48 11.489 3.93 17.356 4.96 7.366 1.42 14.42 3 22.153 2.11 10.54-1.37 17.762-7.2 21.54-18 2.353-6.6 4.457-13.27 6.062-20.07 1.6043-6.8 2.2098-13.85 3.5645-20.71.9221-5.29 2.3436-10.45 3.016-15.81 2.3083-13.07 5.5044-25.97 9.5699-38.63 2.5582-8.34 5.6192-16.54 9.1696-24.55 5.5028-12.5 12.127-24.54 19.8082-35.99 7.333-11.09 15.1655-22.05 22.6864-32.85 8.7027-12.17 17.5932-24.06 26.23408-36.01 7.27366-9.9 14.54729-19.81 21.57122-29.77 15.6732-21.727 35.2176-40.874 57.8735-56.698 7.2861-5.09 14.634-10.406 22.108-15.208 10.7126-6.85 21.8016-13.124 32.2646-20.039 9.66-5.963 18.114-13.364 25.023-21.907 4.296-5.215 7.241-11.265 8.626-17.724 1.061-6.027 1.318-12.174.764-18.31-1.452-12.833-5.106-25.454-10.828-37.403-4.456-10.042-8.849-20.308-13.99-29.806-7.21-13.636-14.793-26.889-22.376-40.141-5.015-8.985-10.091-17.745-15.1668-26.505-7.5832-13.252-15.1666-26.504-22.688-39.981-2.7569-4.557-4.8907-9.433-7.6476-13.99-11.0325-20.15-21.8771-40.012-36.3957-57.216-12.0164-14.636-25.89938-27.35-42.2053-36.122-5.3727-2.828-11.1804-5.047-16.6767-7.426-9.0078-3.478-18.7624-4.836-28.3341-3.944-8.8653.783-17.382 3.254-24.9989 7.253-8.6915 4.339-16.1858 10.356-21.9769 17.645-7.38 9.34-12.044 20.271-13.58 31.829-2.683 17.206-1.919 34.825 2.256 52.016 4.856 20.24 10.585 40.225 16.0647 60.145 2.9292 9.935 4.5268 20.113 4.7577 30.309.0218 5.988-.6317 11.94-1.9503 17.763-2.5824 10.697-8.4091 20.426-16.8341 28.105-8.057 7.146-17.045 13.378-26.779 18.571-16.69 9.303-32.783 19.434-48.209 30.348-13.638 9.701-26.835 20.718-40.285 30.708-16.75 12.264-33.815 23.726-52.197 32.204-12.01 5.664-24.511 10.475-37.395 14.39-9.04 2.715-18.205 4.918-27.244 7.634-.876.353-1.711.782-2.492 1.28M510.583 1152.48c-.311.16-.872.26-1.184.42-18.135 7.58-35.454 17.05-53.211 26.17-18.992 9.69-38.682 18.26-58.952 25.66-19.945 7.35-39.828 14.48-59.835 22.06-20.007 7.58-39.321 17.5-59.518 23.83-10.804 3.58-22.195 5.66-33.798 6.18-9.031.67-18.17.18-27.143-1.47-9.674-1.78-19.161-3.26-28.712-5.49-5.668-1.51-11.237-3.35-16.672-5.5-6.238-2.02-12.121-4.92-17.428-8.58-10.001-7.39-12.024-17.52-5.631-30.05 4.47-8.46 8.94-16.92 13.598-25.1 10.124-17.33 18.374-35.64 26.624-53.94 4.156-9.26 8.063-18.59 12.718-27.72 5.693-11.79 13.043-22.82 21.875-32.82 7.529-7.91 14.807-15.89 22.773-23.45 13.443-12.87 26.949-25.01 38.327-40.1 8.988-11.806 15.837-24.879 20.3-38.751 2.531-8.033 4.181-16.301 4.927-24.686 1.516-15.882.168-31.978-3.991-47.657-4.288-17.45-11.629-33.524-19.032-49.373-3.012-6.546-6.958-12.61-9.969-19.155-4.894-10.396-9.537-20.727-14.43-31.122-6.01-12.303-10.279-25.197-12.702-38.367-2.277-12.124-2.871-24.535 1.9-37.004 2.877-7.301 8.143-13.564 15.114-17.974 7.849-4.761 16.913-7.698 26.43-8.565 16.901-2.13 33.934-1.823 50.902-2.253 19.34-.3 38.615-1.337 57.952-2.599 15.967-.992 31.658-3.809 46.706-8.383 11.595-3.184 22.306-8.424 31.528-15.422 5.908-4.34 10.685-9.804 14.014-16.031 3.328-6.227 5.133-13.074 5.295-20.088.286-11.669-2.146-23.353-7.139-34.288-6.175-14.928-16.109-28.446-28.987-39.443-10.074-8.461-22.029-14.831-34.986-18.638-5.432-1.641-11.361-2.449-17.166-3.706-4.868-.775-9.924-1.839-15.104-2.454-6.74-.777-13.354-1.04-20.094-1.817-7.34-.658-14.652-1.662-21.905-3.007-11.05-2.609-22.161-4.994-32.034-10.905-13.808-8.129-23.323-20.197-27.984-37.262-4.03-14.499-3.82-29.827-2.861-44.962 1.08-16.546 2.471-33.251 3.551-49.797 1.261-19.143-.846-37.713-2.953-56.283-1.466-12.155-3.494-24.215-5.522-36.274-.252-1.027-.816-1.894-1.068-2.92-10.262-36.94-27.589-116.757-14.801-140.508 15.986-29.688 102.767-73.5344 112.359-112.3572"/><path d="M-409.292 1185.83c-.031.32-.03.65.003.97 11.929 5.24 22.554 12.3 33.613 18.76 8.997 5.21 17.745 10.35 26.928 14.88 5.777 2.7 11.771 4.97 17.922 6.78 4.061 1.65 8.261 2.97 12.551 3.96 7.365 1.42 14.542 2.55 21.97 3.75 4.368.64 8.676 1.51 13.106 1.93 4.93.55 9.86 1.1 14.852 1.43 5.991.58 11.982 1.17 18.034 1.53 4.181.35 8.424.49 12.604.84 5.991.59 11.982 1.17 18.035 1.53 7.051.62 14.164 1.01 21.527 1.47 7.363.46 14.353 1.3 21.528 1.46 9.296.24 18.466-.04 27.752-3.65 9.621-4.23 17.127-11.5 21.159-20.5 3.478-6.79 6.238-13.89 8.243-21.19 2.348-8.53 5.008-17.22 7.607-25.68 2.598-8.46 5.508-17.09 8.855-25.36 6.7864-17.61 15.0638-34.68 24.7605-51.05 8.5097-14.39 17.5189-28.65 25.8408-43.33 8.1982-14.23 15.7091-28.88 23.6576-43.17 6.7074-11.729 13.1034-23.298 20.43633-34.386 7.27626-10.651 16.38765-20.141 27.00337-28.126 14.5697-11.144 30.5835-18.79 46.2214-27.015 10.9651-5.824 21.7422-11.937 32.7073-17.762 9.8857-5.327 18.6427-12.171 25.9007-20.239 6.19-6.993 10.017-15.502 11.041-24.551 1.592-11.607-.868-22.096-3.951-32.265-4.617-15.35-11.101-30.244-19.331-44.402-9.715-17.167-20.3019-34.079-30.3898-50.861-9.3981-15.403-18.6083-30.517-28.0682-45.695-8.3625-14.134-17.5193-27.888-27.4327-41.205-7.7592-10.454-17.16312-19.847-27.89705-27.866-7.69135-5.66-16.64335-9.695-26.17105-11.797-13.8556-2.131-26.8877.516-37.2098 13.717-3.3576 4.461-5.8928 9.405-7.5108 14.646-2.934 10.67-3.6455 21.814-2.0984 32.868 1.7904 16.805 7.2574 31.915 12.1013 47.345 3.8993 12.062 7.7986 24.124 10.7633 36.665 3.3188 13.831 4.3857 27.955 3.1658 41.916-.8881 11.99-4.6246 23.569-10.9545 33.948-5.9054 9.361-14.3034 17.18-24.4593 22.774-11.0307 5.481-22.6558 9.968-34.7148 13.398-17.018 5.466-33.848 11.219-49.607 20.855-12.832 7.746-25.537 16.006-38.243 24.265-8.47 5.507-16.876 11.751-25.347 17.257-16.662 11.042-34.876 20.073-54.207 26.878-12.093 4.091-24.373 7.894-36.592 11.472-8.104 2.236-16.273 3.735-24.316 5.746-.876.353-1.711.782-2.492 1.28M517.653 1129.78c-9.66 4-19.258 7.77-28.542 12.34-15.453 7.56-30.841 15.84-46.355 23.62-25.856 13.28-52.971 22.39-80.151 30.76-14.649 4.64-29.421 9.72-44.132 14.58-9.974 3.19-19.76 6.68-29.61 9.42-9.755 2.95-19.947 4.69-30.307 5.17-6.603.3-13.247.04-19.841-.79-6.47-.87-12.732-2.9-18.42-5.96-4.826-2.35-9.014-5.68-12.222-9.73-3.209-4.04-5.347-8.68-6.243-13.54-1.54-9.15-1.077-18.43 1.365-27.29 2.593-10.38 5.686-20.64 9.028-30.83 2.292-6.38 4.895-12.92 7.187-19.3 3.243-8.15 7.121-16.07 11.605-23.69 8.757-15.28 20.016-28 31.713-40.37 12.817-13.52 25.76-26.52 36.262-42.32 8.546-12.693 15.12-26.439 19.546-40.865 1.363-4.141 2.353-8.386 2.962-12.695.922-5.291 1.844-10.581 2.267-16 1.345-17.46-.386-35.105-5.127-52.276-4.988-17.23-11.522-34.108-19.533-50.464-3.89-8.213-8.029-16.492-11.856-24.93-4.142-9.24-8.533-18.544-12.052-28.104-5.214-14.083-8.745-28.454-6.478-44.453.852-5.111 2.743-10.001 5.577-14.425 4.595-6.978 11.511-12.414 19.799-15.563 10.089-3.928 20.867-6.342 31.924-7.148 13.784-1.492 27.693-2.471 41.541-3.226 21.708-1.13 43.478-2.486 65.181-5.541 14.973-1.784 29.614-5.103 43.646-9.893 12.466-4.476 24.867-9.69 35.261-19.267 7.784-7.177 12.781-16.486 14.28-26.6 1.159-9.374.437-18.924-2.132-28.19-4.266-15.865-10.831-31.219-19.521-45.654-7.522-13.376-17.592-25.499-29.727-35.788-7.119-5.615-15.188-10.134-23.866-13.366-5.312-1.73-10.735-3.129-16.232-4.186-7.261-1.59-14.594-2.84-21.97-3.744-9.049-1.132-18.222-1.816-27.395-2.499-9.743-.79-19.418-2.4-28.898-4.81-8.88-2.175-17.21-6.046-24.423-11.347-10.189-7.675-16.83-18.521-20.109-31.864-3.531-14.371-3.195-29.186-2.609-43.936.529-12.602 1.369-25.364 1.398-38.095-.063-18.009-1.716-36.037-4.943-53.912-1.966-12.284-3.994-24.344-6.022-36.403-8.81-28.724-25.129-90.743-25.518-109.008-1.033-48.533 76.275-62.572 120.122-114.6405"/><path d="M492.494 1223.03c-6.542 3.36-13.334 6.66-19.814 9.79-23.49 11.49-47.297 21.21-71.354 30.87-18.33 7.56-35.733 16.75-51.96 27.46-7.162 4.64-13.761 10.15-20.923 14.79-8.283 5.8-17.065 11.46-25.723 16.68-11.683 7.03-24.992 11.63-39.02 13.49-8.038 1.11-16.25 1.17-24.393.2-7.239-.91-14.229-1.75-21.157-2.81-6.366-1.17-12.359-2.71-18.664-4.1-13.608-3.03-26.967-5.99-40.575-9.02-5.242-1.12-10.534-2-15.854-2.65-5.679-.74-11.732-1.1-17.411-1.84-7.239-.91-14.167-1.98-21.406-2.88-7.7387-1.04-15.5393-1.85-23.1545-3.33-8.4053-1.73-16.5553-4.48-24.2275-8.17-12.5896-5.48-23.0628-14.42-29.8875-25.49-12.7805-20.61-12.588-42.67-1.1684-65.68 6.2875-11.93 15.1168-22.55 25.9968-31.27 11.8279-9.93 24.2813-19.22 36.2971-28.85 16.67-13.26 30.618-29.09 41.241-46.81 8.76-14.33 16.894-29.29 25.903-43.55 8.402-13.31 19.013-25.32 31.476-35.63 11.454-9.54 23.535-18.44 35.427-27.634 11.693-8.813 22.044-18.985 30.803-30.27 8.667-12.065 14.115-25.866 15.929-40.356 1.57-13.092.436-26.424-3.346-39.319-5.418-20.144-15.009-37.76-24.039-55.471-7.21-13.637-14.981-27.178-22.191-40.815-4.638-8.407-8.592-17.358-12.607-26.085-2.824-6.256-5.336-12.672-7.848-19.088-6.385-16.106-11.229-32.636-14.478-49.401-1.831-9.475-2.775-19.046-2.819-28.607-.335-9.97.518-19.903 2.544-29.628 1.888-8.8 4.281-17.489 7.169-26.031 3.345-9.232 8.188-18.078 11.533-27.31 4.442-11.981 5.333-24.92 2.586-37.548-2.525-11.227-5.05-22.453-7.636-33.455-2.982-12.784-1.147-25.947 5.206-37.353 9.684-18.653 21.18-36.118 29.49-55.606 3.224-7.821 6.386-15.418 9.11-23.367 3.956-11.919 6.538-24.22 7.703-36.71 1.383-14.881 1.49-29.88.321-44.862-1.16-14.24-2.632-28.319-3.792-42.558-4.461-40.093-12.877-108.909-6.533-147.225 11.419-68.9672 61.659-131.99799 63.486-153.9214M-312.063 831.877c.592-.801 1.328-1.505 2.178-2.083 10.906-6.049 20.902-13.318 29.765-21.645 13.833-12.232 25.337-26.466 34.079-42.164 3.695-6.985 6.927-14.178 9.676-21.539 2.045-5.481 3.153-11.445 4.698-17.055 1.998-7.553 3.23-15.279 3.683-23.085 1.129-20.449-.475-41.037-4.776-61.319-2.848-15.876-6.819-31.562-7.984-47.725-.906-12.251-.501-24.404 4.459-36.585 3.238-7.957 8.06-15.264 14.231-21.566 8.033-8.233 17.696-15.024 28.521-20.044 12.587-5.886 25.112-11.548 37.826-16.922 21.811-9.276 43.749-18.038 65.3724-27.603 14.3325-6.398 28.1631-13.887 41.9319-21.151 8.4456-4.269 16.0171-9.785 22.4172-16.33 4.9946-4.531 8.2879-10.39 9.4393-16.794 1.5994-8.72.2667-17.476-.5667-26.104-1.0239-9.878-1.2368-19.787-1.3879-29.92.1583-10.603 2.6558-20.991 7.345-30.553 4.86517-9.805 12.52192-18.187 22.2092-24.315 10.075-6.297 20.7216-11.83 31.8371-16.545 16.3101-7.08 31.5205-15.992 45.2869-26.534 12.5316-10.119 23.6056-21.629 32.9766-34.277 11.887-15.111 32.009-42.594 37.828-70.573 5.819-27.978 2.693-50.427-8.795-140.3348-11.489-89.9075 11.325-139.5132 21.922-179.9552"/><path d="M247.927-83.1986C222.351-.0715473 204.125 62.5424 203.625 108.175c-.456 41.565 7.508 99.884 13.547 147.086.126.514.502 1.091.628 1.605.787 14.623 2.134 29.152 2.36 43.871.317 11.039-1.082 22.006-4.158 32.576-1.303 4.404-2.853 8.737-4.645 12.982-3.236 8.837-9.179 16.579-17.15 22.342-7.972 5.764-17.651 9.317-27.934 10.255-14.158 1.876-28.072.931-42.235.883-16.403-.004-32.7344 1.168-48.8398 3.507-10.2902 1.432-20.8302 2.799-31.2466 3.718-6.7063.857-13.6189-.334-19.6608-3.389-6.0498-3.247-10.6415-8.37-12.8891-14.38-3.34447-7.564-3.97805-15.811-1.80811-23.54 2.71481-9.267 8.42461-17.496 16.40901-23.648 10.3964-8.615 22.1107-14.246 33.323-20.968 10.4357-6.01 20.4588-12.573 30.0197-19.657 17.3087-13.321 31.8027-30.013 44.7947-48.053 10.982-11.585 35.076-41.057 35.23-90.935.455-147.52664-32.886-175.3873 6.393-284.091"/><path d="M234.224-96.9014c-10.962 43.8453-42.936 147.066-41.564 196.8525 1.372 49.7869 13.361 153.6259 13.526 154.4029 2.226 13.574 3.2 27.252 2.913 40.89-.033 13.037-2.663 25.875-7.762 37.896-3.743 8.804-10.462 16.228-19.223 21.239-9.696 5.169-20.866 7.775-32.297 7.534-9.919.085-19.903-.567-29.949-.995-6.364-.199-12.977-.463-19.28-.887-10.5446-.557-20.9016-.824-31.2611-2.054-5.2734-.329-10.3791-2.064-14.674-4.987-6.5645-5.298-6.5795-11.07-3.227-17.416 3.1925-5.554 7.5409-10.468 12.8143-14.481 6.2873-5.348 12.8242-10.632 19.3612-15.916 10.279-8.463 19.7876-17.662 28.4396-27.516 11.506-13.616 22.575-27.586 33.832-41.266 9.81-11.074 29.705-39.889 30.801-66.563 4.904-119.3281 25.123-216.9484 26.036-298.248M375.491 585.482c-4.554.028-9.109.054-13.475.37-4.842.134-9.491 1.52-13.403 3.994-2.131 1.341-3.895 3.101-5.165 5.158-.627 1.425-.783 3-.447 4.536.336 1.535 1.149 2.968 2.341 4.124 1.866 2.104 4.246 3.789 6.938 4.914 10.208 4.524 21.823 5.275 32.322 2.088 3.73-1.041 6.942-3.164 9.156-6.051.944-1.487 1.414-3.193 1.359-4.937-.098-2.104-.841-4.163-2.147-5.944-1.305-1.78-3.121-3.212-5.24-4.134-3.872-1.479-8.117-2.574-12.051-3.829"/><path d="M171.749 252.2c-7.361.505-13.025 5.533-18.501 10.85-9.534 9.331-17.491 19.906-23.626 31.401-2.856 4.674-4.645 9.849-5.263 15.226-.485 3.601.295 7.291 2.229 10.549 1.934 3.258 4.924 5.921 8.548 7.613 8.735 3.707 18.605 4.179 27.454 1.313 5.065-1.486 9.628-4.051 13.316-7.485 3.688-3.434 6.397-7.641 7.907-12.278 3.311-7.943 4.818-16.464 4.431-25.065-.386-8.602-2.658-17.11-6.682-25.027-.733-1.79-2.003-3.374-3.662-4.567-1.66-1.194-3.641-1.949-5.714-2.177M7.41025 705.177c-8.41859 1.434-10.3395 6.467-11.06868 13.97-1.27545 13.37-.11798 26.647.22849 39.956.34647 13.308.31711 26.039.41386 39.284-.08367 15.841-.66684 31.554-.25107 47.524.15106 10.133 2.920447 19.5 10.23653 25.954 4.42962 3.951 10.26452 6.313 16.36272 6.623 4.3439.448 8.7094.528 13.0397.239 12.4421-.736 24.4278-4.058 35.0366-9.71 6.2891-3.277 11.7665-7.66 16.1247-12.906 6.52-8.172 9.585-18.27 8.6603-28.531-.8916-10.191-3.6373-20.24-8.1252-29.736-10.4787-23.132-25.1902-42.549-41.2714-60.877-8.157-9.735-17.5905-18.547-28.0799-26.23-3.1774-2.439-6.8918-4.218-10.8689-5.207"/></g><defs><clipPath id="clip0_1786_4461"><path fill="#fff" d="M825 833H-450V0H825z"/></clipPath></defs></svg>