<svg width="723" height="1385" viewBox="0 0 723 1385" fill="none" xmlns="http://www.w3.org/2000/svg"><g clip-path="url(#clip0_2424_11343)" stroke="#F2F4F6" stroke-width="1.25" stroke-linecap="round" stroke-linejoin="round"><path d="M35.3702 1171.15c31.8983-30.99 104.4838-42.58 139.2258-37.64 8.798.83 17.505 2.82 25.921 5.93 4.716 1.71 9.332 3.76 13.817 6.11 5.431 2.72 10.72 5.77 15.841 9.13 11.608 8.06 22.036 17.95 30.911 29.32 7.027 8.86 13.737 18.1 20.499 27.12 5.219 6.87 10.489 13.51 17.293 17.5 10.154 6.2 20.613 6.25 31.533-1.5 3.93-2.71 7.25-6.29 9.745-10.51 2.493-4.29 4.092-9.13 4.694-14.2.828-10.39-.094-20.92-2.723-31.11-4.185-20.01-8.848-39.93-11.23-60.84-1.871-17.06-2.122-34.2-.75-51.18 1.027-12.64 3.258-25.09 6.66-37.16 2.968-10.25 6.673-20.22 11.083-29.81 6.265-13.035 13.723-25.344 22.27-36.754 6.617-8.81 13.394-17.331 20.331-25.564 12.125-14.832 23.825-29.793 34.725-46.197 8.519-13.041 16.93-26.595 25.822-39.282 8.23-11.845 17.638-22.688 28.066-32.353 13.457-12.745 27.876-22.796 41.919-34.162 7.933-6.115 14.946-13.462 20.817-21.812 4.228-6.217 7.209-13.323 8.767-20.897 1.691-9.174 1.598-18.689-.274-27.963-2.498-12.25-6.172-24.238-10.963-35.77-2.723-6.834-5.658-13.732-8.646-20.406-7.042-15.594-14.137-30.964-21.232-46.333-3.947-8.407-7.842-17.038-11.577-25.38-7.469-16.685-14.939-33.37-22.143-50.215-8.326-19.829-15.857-40.137-24.235-59.741-7.302-17.212-16.771-33.347-28.138-47.945-10.13-12.947-21.594-24.648-34.161-34.87-6.302-5.322-13.247-9.693-20.628-12.981-4.266-2.052-8.652-3.783-13.124-5.18-7.037-1.823-14.258-2.47-21.4-1.92-17.836 1.324-34.703 8.229-50.98 18.438-10.73 6.424-20.252 14.844-28.136 24.881-5.502 7.265-9.561 15.674-11.944 24.741-2.698 11.354-3.623 23.17-2.736 34.982.882 14.688 2.081 28.993 3.441 43.585 1.631 17.319 3.687 34.766 3.885 52.371.136 8.548-.413 17.066-1.643 25.46-2.297 17.57-9.006 32.602-17.948 46.476-10.592 16.311-22.341 31.71-35.15 46.068-8.908 10.381-18.482 20.087-28.659 29.049-13.357 11.919-28.229 21.802-44.212 29.381-6.682 3.263-13.632 5.723-20.6865 8.633-.9827.464-1.8929 1.078-2.7035 1.824"/><path d="M789.218 1107.81c-6.1 2.71-11.934 5.27-17.821 8.05-12.834 6.21-25.616 12.19-38.343 18.91-11.95 6.34-23.061 14.28-33.076 23.62-9.855 9.03-19.55 18.35-29.565 27.09-14.995 13.48-31.271 23.69-48.993 28.42-9.526 2.59-19.431 3.57-29.353 2.88-7.222-.37-14.409-1.66-21.404-3.85-2.55-.77-5.045-.81-7.542-1.8-6.961-2.35-13.868-4.93-20.988-7.57-5.42-2.12-11.052-4.31-16.525-6.21-8.182-2.96-16.417-5.69-24.918-8.27-5.79-1.51-11.738-2.36-17.633-3.42-5.046-.81-10.038-1.84-14.871-2.59-4.408-.61-8.869-1-13.064-1.55-3.293-.52-6.691-.59-9.931-1.33-6.822-1.19-13.581-2.83-20.238-4.93-19.606-6.66-35.775-20.22-47.026-42.13-6.961-13.54-11.463-28.29-13.262-43.44-1.393-10.56-1.273-21.22.355-31.62.621-5.39 1.567-10.73 2.832-15.97 3.33-12.41 8.385-24.16 15-34.87 10.051-16.658 22.87-29.597 35.69-42.536 12.819-12.939 26.328-25.909 36.804-42.443 4.656-7.241 9.205-14.996 13.488-22.59 8.197-14.581 15.969-29.29 25.443-42.522 6.866-9.773 14.751-18.668 23.513-26.522 9.167-8.037 18.919-15.657 28.086-23.694 8.849-7.653 17.646-15.082 25.109-25.558 5.786-7.924 9.975-17.067 12.316-26.887 2.34-9.82 2.785-20.116 1.308-30.273-1.294-8.583-3.266-17.061-5.896-25.34-2.289-7.749-5.073-15.339-8.332-22.715-4.429-10.236-9.229-19.862-13.923-29.937-1.654-3.626-3.36-7.028-4.801-10.589-9.498-21.626-19.261-43.092-28.229-65.037-7.42-17.739-13.722-35.95-18.861-54.508-5.728-21.204-11.19-42.568-16.97-63.547-5.331-19.483-14.397-37.706-26.611-53.492-9.476-12.005-19.853-23.082-30.071-33.87-12.026-12.778-23.84-25.492-35.972-37.822-4.863-5.049-10.385-9.316-16.38-12.655-8.914-4.91-19.052-6.365-28.625-4.11-13.29 2.866-26.175 7.347-38.408 13.356-17.608 8.122-35.217 16.245-52.717 24.881-10.819 5.374-21.53 11.26-32.134 17.66-9.445 5.635-17.661 13.281-24.16 22.481-3.78 5.448-6.672 11.554-8.561 18.075-3.636 12.73-4.477 26.283-2.461 39.633 2.164 17.961 4.592 35.761 6.968 53.786 2.22 17.734 2.686 35.599 1.392 53.299-1.158 12.696-3.623 25.166-7.351 37.189-4.295 14.303-10.523 27.795-18.493 40.061-7.122 11.471-15.334 22.107-24.511 31.748-10.984 11.461-23.385 21.278-36.887 29.199-.945.673-1.816 1.457-2.596 2.337"/><path d="M780.534 1143.87c-16.203 5.39-31.731 12.69-46.3 21.78-9.941 6.42-19.288 13.81-27.93 22.06-8.477 8.01-17.274 15.43-25.698 23.22-10.774 9.71-22.773 17.79-35.677 24.03-13.424 6.63-28.054 10.29-43.032 10.75-7.061.03-14.122.05-21.078-.38-4.673-.45-9.136-1.8-13.704-2.71-3.452-.8-7.17-1.45-10.57-2.48-4.888-1.48-9.723-3.19-14.505-5.12-5.048-1.77-10.255-3.83-15.197-6.04-9.748-4.2-19.746-7.63-29.913-10.27-5.578-1.45-11.313-2.23-16.996-3.23-13.756-2.49-27.823-1.7-41.733-1.59-7.114.24-14.174.27-21.343-.22-11.475-.54-22.478-5.77-30.718-14.6-8.059-9.08-14.942-19.25-20.454-30.24-8.027-15.23-14.017-31.54-17.786-48.41-5.053-20.21-6.486-41.11-4.224-61.61.677-5.8 1.355-11.6 2.51-17.5 1.065-6 2.452-11.92 4.155-17.73 2.753-7.89 5.926-15.6 9.505-23.08 7.206-14.755 16.284-28.335 26.987-40.368l29.868-34.21c10.382-12.135 19.765-25.209 28.051-39.087 7.724-12.561 15.553-25.57 23.596-37.553 8.491-12.661 18.572-23.993 29.975-33.697 9.909-8.293 19.979-16.297 29.836-24.366 7.621-5.905 14.729-12.516 21.246-19.758 7.475-8.594 12.632-19.214 14.956-30.798 1.139-5.99 1.359-12.173.65-18.31-1.083-13.143-4.291-26.07-9.481-38.205-3.577-9.016-6.942-17.967-10.836-26.598-6.243-14.15-13.016-27.98-19.524-41.97-1.814-3.914-3.788-8.118-5.549-12.257-2.987-6.674-5.975-13.347-8.751-19.957-4.321-9.722-8.856-19.509-12.86-29.615-5.872-14.759-11.427-29.902-17.035-44.821-4.166-11.357-8.067-22.874-12.498-34.072-3.524-9.24-7.049-18.48-11.103-27.4-5.8-12.587-13.052-24.396-21.58-35.142-5.803-7.287-11.658-14.349-18.044-21.091-11.438-12.678-24.268-23.834-38.192-33.207-8.029-5.185-16.812-8.824-25.932-10.744-9.717-1.708-19.586-1.262-28.985 1.31-12.999 3.196-25.603 7.833-37.61 13.837-10.22 5.137-20.15 10.873-29.746 17.182-8.086 5.353-15.428 11.857-21.831 19.342-6.091 7.132-10.392 15.814-12.527 25.285-2.837 12.29-3.528 25.112-2.04 37.837 1.038 13.053 2.553 26.01 3.856 38.903 1.851 15.802 2.843 31.672 2.971 47.529.072 10.67-.668 21.297-2.212 31.776-1.573 9.454-3.897 18.719-6.947 27.698-6.173 17.597-15.377 32.593-25.327 46.882-10.643 15.364-22.859 29.39-36.434 41.834-11.95 11.019-25.285 20.234-39.651 27.4-4.402 2.271-8.963 4.253-13.577 6.46-.606.412-1.173.884-1.696 1.409"/><path d="M785.372 1123.23c-12.676 5.53-25.14 11.13-37.869 16.88-14.764 7-28.525 16.08-40.926 27.01-9.115 7.82-17.802 16.72-26.756 24.82-13.617 12.46-27.716 23.09-43.363 29.64-19.618 8.09-41.217 9.89-62.211 5.18-7.49-2.03-14.82-3.77-22.205-6.25-5.526-1.67-10.68-3.96-16.1-6.08-4.995-1.99-9.725-4.15-14.825-5.69-8.82-3.16-17.693-6.09-26.405-8.73-5.122-1.27-10.302-2.19-15.509-2.78-5.683-1-11.418-1.77-17.154-2.55-4.885-.52-10.036-.88-14.869-1.62-4.833-.75-9.771-1.04-14.551-2.01-5.418-1.16-10.996-2.61-16.308-4.22-9.949-3.33-19.05-9.23-26.477-17.16-10.695-10.69-18.796-24.69-24.935-40.25-6.018-15.46-9.348-31.87-9.823-48.4-.284-9.68.228-19.34 1.529-28.86 2.881-18.88 9.402-36.79 19.156-52.596 9.627-15.83 21.226-28.417 33.038-40.941 9.11-9.737 18.22-19.474 26.958-29.564 8.6-10.49 16.218-21.862 22.754-33.963 7.721-13.523 15.018-27.174 23.856-39.637 8.104-11.756 17.546-22.371 28.122-31.615 7.683-6.564 15.527-12.839 23.423-19.339 9.062-7.589 18.283-14.888 26.438-24.434 6.117-7.052 10.765-15.421 13.658-24.59 2.892-9.169 3.968-18.942 3.16-28.717-1.166-12.295-4.001-24.408-8.414-35.959-2.723-6.834-4.915-13.988-7.903-20.662-5.923-13.572-12.376-26.824-18.617-40.012l-5.281-11.455c-9.018-20.759-18.142-41.07-26.63-62.149-8.634-21.643-16.145-43.739-22.497-66.185-5.456-18.478-10.965-36.732-18.594-53.705-5.288-11.658-11.893-22.622-19.663-32.639-4.898-6.291-10.114-12.198-15.33-18.105-11.682-13.125-24.047-25.541-37.033-37.182-6.419-5.874-13.37-11.041-20.739-15.419-5.866-3.139-12.155-5.208-18.595-6.117-16.252-2.522-32.061 2.781-47.656 9.111-11.776 4.602-23.232 9.782-34.58 15.476-12.41 6.333-24.872 12.892-36.906 20.541-8.861 5.318-16.629 12.426-22.889 20.942-3.689 4.994-6.614 10.593-8.67 16.6-4.486 12.341-4.776 25.232-3.686 38.06 1.684 17.094 3.845 34.093 5.794 51.028 2.056 16.695 2.839 33.491 2.34 50.221-.523 9.532-1.601 18.998-3.229 28.344-3.099 16.801-8.708 32.869-16.618 47.599-10.65 20.251-24.36 38.414-40.602 53.79-12.598 12.074-26.76 22.178-42.088 30.026-.53.32-1.165 1.088-1.695 1.408"/><path d="M19.1927 1082.79c1.7043 2.44 3.356 5.1 5.0602 7.54 4.4207 6.39 8.8413 12.77 13.3145 18.94 3.6691 5.32 8.7929 9.31 14.6252 11.4 4.3049 1.13 8.7466 1.33 13.0615.59 7.8016-1.24 15.3359-3.28 23.0302-5.03 24.0617-6.24 48.9507-8.81 73.9387-7.64 5.15.36 10.301.72 15.346 1.53 6.586 1.03 13.066 2.52 19.599 3.78 4.08.59 8.105 1.65 12.005 3.15 6.483 2.45 12.967 5.86 19.397 8.53 8.529 3.88 16.717 8.62 24.453 14.14 4.945 3.18 9.254 7.13 14.146 10.53 7.976 5.79 15.687 11.73 23.821 16.84 5.37 3.31 11.107 5.05 17.365 1.66 4.109-2.27 7.21-6.14 8.683-10.83 2.956-7.76 2.779-15.74 2.814-23.66.019-15.62-.705-30.98-.899-46.66-.39-14.61.359-29.17 2.24-43.55.887-6.7 2.04-13.56 3.141-20.2.892-4.78 1.624-9.84 2.993-14.71 3.549-13.092 8.267-25.745 14.092-37.793 4.757-9.615 10.099-18.811 15.601-27.719 10.633-17.207 23.288-32.359 34.826-48.57 10.48-14.61 20.427-29.861 30.587-45.048 12.594-18.776 25.88-36.621 41.351-51.16 9.31-8.827 19.074-17.099 29.251-24.783 6.042-4.417 12.085-8.835 17.968-13.542 8.019-6.165 15.119-13.565 21.081-21.971 6.123-9.032 9.333-20.007 9.169-31.351-.111-11.473-2.132-22.909-5.968-33.775-5.668-18.542-13.775-35.42-21.14-52.554-4.429-10.235-9.388-20.151-14.082-30.226-5.174-10.942-10.296-22.107-15.682-33.114-12.694-26.44-23.957-54.129-35.803-81.273-6.597-15.844-14.728-30.957-24.256-45.086-10.515-15.605-23.276-29.376-37.784-40.775-5.744-4.699-12.042-8.549-18.714-11.44-3.134-1.191-6.112-3.054-9.299-4.02-13.831-4.13-28.354-3.757-41.674 1.068-7.845 2.765-15.307 6.557-22.22 11.292-8 5.549-15.127 12.383-21.138 20.272-4.562 6.152-8.05 13.147-10.307 20.67-4.534 14.489-4.555 29.144-3.938 43.992 1.084 17.958 3.037 35.879 5.852 53.69 1.296 10.006 2.805 20.077 4.049 30.309 1.494 11.021 1.715 22.147.657 33.126-1.451 12.501-5.783 24.313-12.613 34.393-8.148 12.432-17.789 22.489-27.269 32.835-12.182 13.132-24.576 26.2-37.13 38.979-6.834 6.822-13.988 13.065-21.141 19.31-14.613 12.683-30.908 23.037-48.404 30.755-8.167 3.773-16.55 6.521-24.8247 9.781-.8109.467-1.663.852-2.5457 1.151"/><path d="M27.4516 1047.55c1.2293 1.34 2.5261 2.62 3.8841 3.82 4.9465 4.14 10.1056 8.35 15.1574 12.04 6.4963 5.01 13.2423 9.62 20.2049 13.82 4.6945 2.61 9.6576 4.6 14.7723 5.92 8.0944 1.64 16.249 2.83 24.4297 3.56 12.054 1 24.213 1.57 36.319 2.35 9.186.62 18.637 1.08 27.823 1.7 4.248.33 8.604 1.17 12.799 1.72 5.735.78 11.258 1.49 16.941 2.49 2.39.48 4.833.74 6.958 1.39 11.315 3.19 22.843 6.44 34.159 9.63 4.887 1.48 9.777 3.92 14.77 4.96 6.268 1.42 12.27 3 18.852 2.11 8.969-1.37 15.115-7.2 18.329-18 2.003-6.61 3.794-13.27 5.159-20.07 1.365-6.8 1.881-13.85 3.033-20.71.785-5.29 1.995-10.45 2.567-15.81 1.964-13.07 4.684-25.97 8.144-38.63 2.177-8.346 4.782-16.542 7.803-24.554 4.683-12.498 10.32-24.533 16.856-35.99 6.241-11.087 12.906-22.046 19.306-32.845 7.406-12.176 14.971-24.064 22.325-36.016 6.189-9.901 12.379-19.802 18.356-29.767 13.338-21.726 29.97-40.874 49.25-56.697 6.2-5.091 12.453-10.406 18.813-15.208 9.117-6.851 18.553-13.124 27.457-20.04 8.22-5.962 15.414-13.364 21.294-21.907 3.655-5.215 6.161-11.265 7.34-17.724.903-6.026 1.121-12.174.65-18.31-1.235-12.833-4.344-25.454-9.214-37.403-3.792-10.042-7.531-20.308-11.905-29.806-6.136-13.636-12.589-26.889-19.042-40.141-4.267-8.984-8.587-17.745-12.906-26.505-6.454-13.252-12.907-26.504-19.308-39.981-2.346-4.556-4.161-9.433-6.507-13.99-9.389-20.15-18.617-40.012-30.972-57.216-10.226-14.636-22.04-27.35-35.916-36.122-4.572-2.828-9.515-5.047-14.192-7.426-7.665-3.478-15.966-4.835-24.112-3.943-7.544.783-14.791 3.254-21.273 7.252-7.396 4.34-13.774 10.357-18.702 17.646-6.28 9.34-10.249 20.271-11.557 31.828-2.283 17.207-1.633 34.825 1.92 52.016 4.133 20.24 9.008 40.225 13.671 60.145 2.493 9.936 3.852 20.114 4.049 30.309.018 5.989-.538 11.94-1.66 17.763-2.197 10.697-7.156 20.426-14.325 28.106-6.857 7.145-14.505 13.378-22.788 18.57-14.203 9.303-27.898 19.434-41.025 30.348-11.606 9.702-22.837 20.718-34.282 30.709-14.255 12.263-28.776 23.725-44.419 32.203-10.22 5.665-20.858 10.475-31.823 14.39-7.692 2.716-15.4913 4.919-23.1835 7.635-.7456.353-1.4558.781-2.1209 1.28"/><path d="M34.9627 1015.46c-.0267.32-.026.64.0021.96 10.1519 5.24 19.1929 12.31 28.6042 18.77 7.6565 5.2 15.1006 10.34 22.915 14.88 4.916 2.69 10.0171 4.96 15.252 6.78 3.456 1.65 7.03 2.97 10.68 3.96 6.268 1.42 12.375 2.55 18.696 3.74 3.718.65 7.383 1.52 11.153 1.94 4.196.55 8.391 1.1 12.639 1.43 5.098.58 10.196 1.17 15.347 1.53 3.557.35 7.168.49 10.726.84 5.098.59 10.196 1.17 15.346 1.53 6.001.62 12.054 1.01 18.32 1.47 6.265.45 12.213 1.29 18.319 1.46 7.911.24 15.715-.04 23.618-3.65 8.186-4.23 14.574-11.5 18.005-20.5 2.96-6.79 5.308-13.89 7.014-21.19 1.999-8.53 4.263-17.22 6.474-25.68 2.211-8.464 4.687-17.087 7.536-25.357 5.775-17.614 12.818-34.682 21.07-51.057 7.242-14.389 14.908-28.649 21.99-43.327 6.977-14.229 13.368-28.876 20.132-43.17 5.708-11.729 11.151-23.299 17.391-34.386 6.192-10.652 13.946-20.142 22.98-28.127 12.398-11.143 26.026-18.79 39.333-27.014 9.331-5.825 18.502-11.938 27.833-17.762 8.413-5.328 15.865-12.171 22.042-20.239 5.267-6.994 8.523-15.503 9.395-24.552 1.355-11.607-.739-22.096-3.362-32.264-3.929-15.351-9.447-30.245-16.45-44.403-8.267-17.167-17.277-34.079-25.862-50.861-7.997-15.403-15.835-30.517-23.885-45.695-7.116-14.134-14.909-27.888-23.345-41.205-6.603-10.453-14.605-19.847-23.74-27.865-6.545-5.66-14.163-9.695-22.271-11.797-11.791-2.132-22.881.515-31.664 13.716-2.858 4.462-5.015 9.405-6.392 14.647-2.497 10.669-3.102 21.813-1.786 32.867 1.524 16.806 6.176 31.915 10.298 47.345 3.319 12.062 6.637 24.124 9.16 36.666 2.824 13.83 3.732 27.954 2.694 41.915-.756 11.99-3.936 23.57-9.322 33.948-5.026 9.361-12.172 17.18-20.815 22.774-9.387 5.482-19.28 9.969-29.542 13.399-14.481 5.465-28.803 11.219-42.214 20.854-10.919 7.746-21.732 16.006-32.544 24.266-7.208 5.506-14.361 11.75-21.57 17.256-14.179 11.042-29.679 20.073-46.129 26.878-10.291 4.092-20.741 7.894-31.139 11.473-6.897 2.236-13.8483 3.734-20.6926 5.745-.7456.353-1.4557.782-2.1207 1.281"/><path d="M810.257 1017.08c-12.354 7.07-24.496 14.21-36.638 21.34-18.24 10.82-36.803 19.13-55.471 27.89-12.57 6.05-25.351 12.03-37.758 19.32-13.945 8.03-27.569 17.61-41.459 26.37-11.671 7.86-24.811 13.04-38.616 15.22-8.337 1.12-16.816 1.06-25.219-.19-8.125-1.26-16.199-2.75-24.324-4.01-2.178-.42-4.143-.78-6.321-1.2-5.205-1.09-10.25-1.9-15.508-2.77-3.505-.59-7.223-1.23-10.728-1.81-4.833-.75-9.719-1.27-14.392-1.72-4.673-.46-9.241-1.36-13.861-2.04-5.747-.51-11.474-1.36-17.154-2.55-7.224-1.63-14.271-4.17-20.987-7.57-8.644-4.51-15.382-12.43-18.737-22.02-2.329-7.43-2.458-15.36-.368-22.7 1.701-6.08 4.343-11.77 7.82-16.86 6.607-9.31 14.231-17.72 22.72-25.08 10.089-8.91 19.575-18.563 28.393-28.89 8.471-10.427 15.683-21.962 21.479-34.349 6.606-13.62 12.787-27.369 18.969-41.119 7.846-16.85 18.267-32.12 30.852-45.208 8.687-8.903 17.534-17.519 26.434-26.358 11.655-11.19 21.5-24.35 29.167-38.989 3.684-7.638 6.568-15.708 8.6-24.072 2.787-14.006 3.49-28.471 2.082-42.872-2.065-16.65-6.449-32.967-13.008-48.407-6.672-16.203-14.139-31.926-21.076-47.968-6.707-15.1-12.661-30.544-17.835-46.265-5.134-15.197-8.4-30.974-9.713-46.927-.663-11.738-.423-23.442 3.639-34.95 2.881-8.416 8.216-15.548 15.246-20.376 6.926-4.655 15.07-6.955 23.398-6.608 6.106.169 12.319.85 18.319 1.467 5.311.648 10.834 1.36 16.092 2.233 4.195.551 8.02 1.71 12.216 2.261 5.523.712 11.046 1.425 16.674 1.688 9.186.621 18.584 1.307 27.928 1.255 10.223-.107 20.366-1.384 30.253-3.81 10.4-2.616 20.586-6.258 29.753-14.296 4.349-3.646 7.806-8.353 10.098-13.748 2.291-5.396 3.355-11.332 3.106-17.341-.459-15.521-6.696-26.785-14.946-36.255-7.062-7.954-15.847-13.926-25.521-17.35-6.379-2.253-12.874-4.061-19.444-5.412-1.54-.227-3.292-.517-4.833-.744-4.195-.55-8.443-.877-12.691-1.203l-17.364-1.657c-7.023-.459-14.028-1.379-20.977-2.753-7.468-1.503-14.756-4.035-21.677-7.531-8.416-4.553-15.617-11.384-20.856-19.781-8.418-13.608-12.382-29.711-12.74-47.605-.196-16.643 15.675-54.409 17.871-90.285 2.788-45.577 0-131.6672-12.816-116.2224-12.816 15.4444 12.816 57.7934-20.337 188.1824-4.622 22.634-4.733 44.471 2.215 65.324 4.115 12.544 9.874 23.904 18.122 32.412 3.618 4.064 7.99 7.275 12.816 9.412 4.546 1.898 9.196 3.469 13.92 4.7 5.513 1.133 11.098 1.698 16.674 1.689 14.282.243 28.669.036 42.951.279 6.118.524 12.218 1.41 18.269 2.653 2.788.247 5.551.843 8.233 1.774 9.565 3.861 18.972 8.394 25.789 18.152 3.421 4.86 5.695 10.503 6.619 16.427.568 4.017.295 8.086-.798 11.911-1.093 3.825-2.98 7.312-5.524 10.208-5.191 6.219-11.997 10.661-19.615 12.802-11.783 3.852-24.235 5.219-36.677 4.026-7.23-.5-14.437-1.559-21.562-3.171-9.933-2.289-19.708-5.252-29.483-8.215-5.313-1.61-10.415-4.118-15.675-5.952-3.99-1.689-8.051-3.161-12.167-4.409-11.208-2.676-22.517-2.979-33.704 3.965-9.809 5.92-16.796 15.339-21.014 28.482-3.915 13.272-5.203 27.361-3.784 41.394 1.37 19.403 6.028 37.4 11.642 55.205 5.828 18.831 13.778 36.382 21.249 54.029 6.778 15.754 14.19 30.739 20.703 46.653 6.609 15.308 11.099 31.49 13.325 48.023 1.419 11.664 1.194 23.425-.666 34.889-2.828 17.89-10.387 32.663-20.286 45.766-8.628 11.566-18.748 20.757-28.921 30.172-13.034 11.912-26.173 24.273-36.703 40.069-6.367 9.74-12.04 19.99-16.975 30.668-6.711 14.069-12.89 28.78-20.771 42.014-7.335 12.296-16.221 23.426-26.42 33.092-10.49 9.799-21.14 19.312-31.47 29.402-7.295 6.94-13.444 15.14-18.21 24.28-7.084 13.72-9.387 28.4-5.425 43.54 2.18 9.09 6.929 17.33 13.59 23.59 5.599 5.52 12.25 9.68 19.458 12.14 2.975.91 5.792 2.48 8.607 3.09 5.843 1.29 11.739 2.36 17.634 3.43 5.895 1.06 11.843 1.9 17.791 2.74 4.408.62 8.921.79 13.117 1.34 3.557.35 7.223 1.22 10.728 1.8 4.62.68 9.453 1.43 14.021 2.33 2.815.61 5.418 1.16 8.233 1.78 4.515 1.12 8.765 2.41 13.333 3.32 6.268 1.42 12.588 2.61 18.961 3.58 7.061 1.27 14.174 2.06 21.295 2.37 6.143.09 12.25-.56 18.206-1.93 12.127-2.97 23.523-8.41 33.571-16.03 8.798-6.46 17.385-12.99 26.183-19.46 13.055-9.68 26.909-18.1 41.409-25.19 12.304-5.88 24.98-11.41 37.177-17.81 16.916-9.05 33.724-18.62 50.533-28.19 2.386-1.44 4.984-2.81 7.37-4.25m-7.529 32.08c-.265.16-.743.26-1.008.42-10.446 5.73-20.997 11.9-31.603 17.34-13.683 6.91-27.312 13.59-40.942 20.28-18.05 9.29-34.859 20.99-50.04 34.82-9.593 9.05-19.696 17.46-30.259 25.2-11.287 8.2-24.277 13.47-37.979 15.41-12.411 1.15-24.995-.06-37.172-3.57-22.045-5.96-43.353-14.11-65.554-18.43-3.718-.65-7.383-1.52-11.153-1.94-4.833-.74-9.559-.97-14.392-1.72-4.832-.74-9.825-1.77-14.871-2.58-5.92-.8-11.807-1.94-17.633-3.42-5.915-1.72-11.721-3.88-17.375-6.47-5.335-2.22-10.287-5.43-14.621-9.48-8.81-7.61-15.678-17.48-19.919-28.63-8.917-23.13-7.748-46.57 2.765-70.06 5.394-11.74 12.721-22.29 21.645-31.18 10.966-10.855 22.199-20.91 33.112-31.542 13.561-12.852 24.97-28.069 33.773-45.044 6.766-13.332 13.532-26.664 20.671-39.642 7.046-13.298 15.928-25.345 26.36-35.754 11.708-11.112 24.002-21.807 35.87-32.631 9.156-8.064 17.239-17.412 24.042-27.804 7.317-11.66 11.806-25.145 13.08-39.298.911-11.035.151-22.22-2.25-33.129-4.615-22.069-13.524-41.353-22.22-60.573-5.761-12.321-11.787-24.483-17.283-36.964-4.321-9.722-8.166-19.54-12.01-29.357-3.577-9.016-6.729-17.903-9.828-27.014-8.236-23.738-13.626-48.392-16.036-73.36-1.305-13.855-1.124-28.221-1.209-42.427-.082-13.244.578-26.744-1.574-39.894-1.448-10.269-5.245-20.09-11.053-28.587-7.03-9.821-15.751-16.31-24.632-23.088-10.051-7.613-19.89-15.161-28.194-25.37-5.26-5.871-9.218-12.912-11.566-20.57-3.104-11.035-1.265-19.852 6.044-27.731 4.306-4.552 9.617-7.889 15.481-9.729 11.566-3.705 22.874-3.402 34.186-2.137 7.488 1.068 14.923 2.36 22.357 2.691 9.792.57 19.326-2.589 26.897-8.913 7.921-6.84 14.466-15.304 19.27-24.924 3.844-6.979 6.892-14.444 9.082-22.243 2.422-9.361 5.056-18.657 6.627-28.275 1.779-11.676 2.428-23.559 1.939-35.465-.694-15.991-12.461-116.5331 0-135.0675 12.462-18.53439 46.401 43.2518 53.785 94.8585 4.314 30.154 9.238 59.346 9.331 90.315-.025 12.731-.74 25.493-1.19 38.095-.499 14.75-.785 29.565 2.22 43.935 2.79 13.344 8.442 24.19 17.113 31.865 6.138 5.301 13.226 9.171 20.783 11.347 8.067 2.41 16.3 4.02 24.592 4.809 7.806.684 15.611 1.367 23.312 2.5 6.277.904 12.517 2.154 18.696 3.743 4.678 1.058 9.293 2.456 13.813 4.187 7.385 3.231 14.252 7.75 20.31 13.366 10.326 10.289 18.896 22.412 25.297 35.788 7.394 14.435 12.981 29.789 16.612 45.654 2.186 9.266 2.8 18.816 1.814 28.19-1.275 10.114-5.528 19.423-12.152 26.6-8.845 9.577-19.398 14.791-30.007 19.267-11.94 4.79-24.4 8.109-37.141 9.893-18.469 3.055-36.995 4.411-55.468 5.541-11.784.755-23.621 1.734-35.351 3.226-9.409.806-18.58 3.219-27.166 7.148-7.054 3.149-12.939 8.585-16.849 15.563-2.411 4.424-4.02 9.314-4.746 14.425-1.929 15.999 1.076 30.37 5.513 44.453 2.994 9.56 6.731 18.864 10.256 28.104 3.257 8.438 6.779 16.717 10.089 24.93 6.818 16.356 12.377 33.234 16.622 50.464 4.035 17.171 5.508 34.816 4.363 52.276-.36 5.419-1.144 10.709-1.929 15.999-.518 4.31-1.361 8.555-2.52 12.696-3.767 14.426-9.362 28.172-16.634 40.865-8.937 15.798-19.951 28.804-30.858 42.322-9.954 12.366-19.535 25.084-26.987 40.371-3.816 7.619-7.116 15.533-9.876 23.686-1.95 6.379-4.165 12.918-6.116 19.297-2.844 10.194-5.476 20.452-7.683 30.839-2.077 8.854-2.472 18.134-1.161 27.284.762 4.86 2.582 9.5 5.312 13.54 2.731 4.05 6.294 7.38 10.401 9.73 4.841 3.06 10.17 5.09 15.675 5.96 5.612.83 11.265 1.09 16.885.79 8.816-.48 17.489-2.22 25.791-5.16 8.382-2.75 16.709-6.24 25.197-9.43 12.518-4.86 25.09-9.94 37.556-14.58 23.129-8.37 46.203-17.48 68.206-30.759 13.203-7.776 26.298-16.065 39.447-23.616 7.901-4.575 16.069-8.349 24.289-12.347m-10.869 25.105c-.266.16-.743.255-1.008.415-15.433 7.581-30.171 17.053-45.282 26.172-16.162 9.69-32.918 18.26-50.167 25.66-16.973 7.35-33.893 14.48-50.918 22.06-17.026 7.58-33.462 17.5-50.649 23.82-9.194 3.59-18.887 5.67-28.762 6.19-7.685.67-15.462.18-23.097-1.47-8.233-1.78-16.306-3.26-24.434-5.49-4.823-1.51-9.562-3.35-14.187-5.5-5.309-2.02-10.315-4.92-14.831-8.58-8.511-7.39-10.232-17.52-4.792-30.05 3.804-8.47 7.608-16.93 11.572-25.1 8.615-17.337 15.636-35.638 22.656-53.94 3.537-9.263 6.861-18.59 10.823-27.725 4.844-11.788 11.099-22.814 18.615-32.813 6.407-7.913 12.601-15.89 19.379-23.449 11.44-12.877 22.934-25.016 32.616-40.107 7.648-11.804 13.477-24.877 17.275-38.748 2.154-8.034 3.558-16.302 4.193-24.687 1.29-15.882.143-31.977-3.397-47.657-3.649-17.45-9.896-33.524-16.196-49.373-2.562-6.545-5.921-12.61-8.483-19.155-4.164-10.395-8.116-20.727-12.28-31.122-5.114-12.302-8.747-25.197-10.809-38.367-1.938-12.124-2.443-24.535 1.617-37.004 2.448-7.301 6.93-13.564 12.862-17.973 6.679-4.761 14.392-7.699 22.491-8.566 14.383-2.13 28.877-1.822 43.317-2.253 16.457-.299 32.86-1.337 49.315-2.599 13.588-.992 26.941-3.809 39.747-8.382 9.867-3.185 18.982-8.425 26.83-15.423 5.027-4.339 9.092-9.804 11.925-16.031 2.832-6.227 4.368-13.074 4.506-20.088.244-11.669-1.827-23.353-6.075-34.288-5.255-14.928-13.708-28.445-24.668-39.443-8.572-8.461-18.746-14.83-29.772-18.638-4.622-1.641-9.668-2.449-14.608-3.706-4.143-.775-8.445-1.839-12.853-2.454-5.736-.777-11.364-1.04-17.1-1.817-6.246-.658-12.468-1.662-18.641-3.007-9.403-2.609-18.858-4.994-27.26-10.905-11.75-8.129-19.847-20.196-23.813-37.262-3.43-14.499-3.251-29.827-2.435-44.962.919-16.546 2.103-33.251 3.022-49.797 1.073-19.143 3.255-43.831-.587-71.482-5.4-38.8616-14.773-79.0113-31.707-95.3328s-7.053 89.0178-6.066 103.2578c.995 14.982.904 29.981-.273 44.862-.992 12.49-3.188 24.791-6.555 36.71-2.319 7.95-5.009 15.546-7.753 23.367-7.071 19.488-16.854 36.953-25.095 55.606-5.407 11.406-6.968 24.569-4.43 37.352 2.201 11.003 4.349 22.229 6.497 33.456 2.339 12.628 1.581 25.567-2.2 37.548-2.846 9.232-6.968 18.078-9.814 27.31-2.458 8.542-4.494 17.231-6.101 26.031-1.724 9.724-2.45 19.658-2.165 29.628.038 9.561.841 19.132 2.399 28.607 2.765 16.765 6.887 33.295 12.32 49.401 2.138 6.417 4.276 12.833 6.679 19.089 3.417 8.727 6.781 17.678 10.729 26.085 6.135 13.636 12.748 27.178 18.884 40.814 7.684 17.712 15.846 35.327 20.456 55.472 3.218 12.895 4.184 26.227 2.847 39.319-1.543 14.489-6.179 28.291-13.555 40.356-7.454 11.285-16.262 21.457-26.213 30.27-10.12 9.19-20.4 18.092-30.147 27.636-10.606 10.306-19.636 22.316-26.785 35.625-7.667 14.26-14.589 29.227-22.043 43.552-9.041 17.718-20.91 33.547-35.096 46.806-10.225 9.639-20.823 18.926-30.888 28.856-9.259 8.72-16.772 19.34-22.123 31.27-9.718 23.01-9.881 45.07.995 65.67 5.807 11.08 14.72 20.01 25.433 25.5 6.529 3.69 13.465 6.44 20.617 8.17 6.481 1.48 13.119 2.29 19.704 3.33 6.161.9 12.056 1.97 18.217 2.87 4.833.75 9.983 1.11 14.816 1.85 4.527.64 9.03 1.53 13.491 2.65 11.58 3.03 22.948 5.99 34.529 9.02 5.365 1.39 10.465 2.93 15.883 4.09 5.895 1.07 11.843 1.91 18.004 2.82 6.93.97 13.918.91 20.758-.2 11.937-1.86 23.263-6.46 33.205-13.49 7.368-5.22 14.841-10.88 21.889-16.68 6.096-4.64 11.711-10.15 17.806-14.79 13.809-10.71 28.619-19.9 44.217-27.46 20.472-9.66 40.731-19.38 60.721-30.87 5.514-3.13 11.294-6.43 16.861-9.79M43.5963 979.613c1.0921.996 2.2475 1.908 3.4571 2.73 14.5092 7.042 27.2217 17.867 40.4623 27.407 6.9664 5.23 14.1983 10.31 21.5343 14.94 5.493 3.11 11.177 5.8 17.007 8.04 4.524 1.97 9.157 3.61 13.868 4.92 5.79 1.52 11.738 2.36 17.633 3.42 12.253 2.02 24.625 2.63 36.902 1.81 10.829-.56 21.817-1.8 32.317-6.79 10.012-4.91 18.217-13.09 23.468-23.41 4.284-8.49 7.955-17.343 10.984-26.471 5.224-14.52 10.448-29.04 16.522-43.303 6.549-15.32 14.056-29.869 21.031-45.06 7.031-14.103 13.257-28.668 18.644-43.62 2.373-7.213 4.906-14.136 7.067-21.413 2.056-6.828 4.376-13.816 5.794-20.837 2.354-10.209 4.174-20.569 5.453-31.034 1.164-8.05 1.02-16.304-.425-24.404-.764-3.663-2.254-7.135-4.368-10.182-2.114-3.046-4.802-5.595-7.882-7.471-5.955-3.728-12.54-4.763-19.338-5.862-10.196-1.378-20.473-1.088-30.472.86-12.127 2.353-23.691 6.984-34.161 13.681-9.065 5.665-17.917 12.355-26.928 18.757-14.259 10.34-28.41 21.193-43.523 29.351-10.235 5.568-20.914 10.209-31.93 13.876-8.329 2.523-16.551 5.559-24.828 7.857-9.763 2.81-19.6854 5.33-29.6604 8.076-1.1125.415-2.1641.984-3.1285 1.695"/><path d="M793.207 1086.91c-4.666 2.43-9.385 5.08-14.264 7.45-14.69 7.33-29.275 14.2-43.965 21.53-19.953 10.2-38.366 23.39-54.703 39.18-11.656 10.89-23.259 21.55-35.929 29.97-7.209 4.8-15.044 8.49-23.283 10.97-7.748 2.4-15.837 3.51-23.99 3.3-8.296.03-16.6-1.11-24.694-3.4-12.06-3.89-24.228-8.3-36.288-12.2-11.05-3.35-22.153-6.47-33.308-9.37-5.366-1.39-10.783-2.55-16.254-3.49-7.648-1.35-15.454-2.04-23.154-3.17-7.063-.94-14.074-2.1-21.192-3.78-5.501-1.47-10.929-3.27-16.258-5.41-5.654-2.12-11.011-5.12-15.893-8.9-10.983-8.11-19.798-19.17-25.501-32-4.306-9.23-7.145-19.11-8.4-29.23-.72-6.86-.93-13.76-.629-20.62.121-7.6 1.34-15.09 3.614-22.22 1.538-5.41 3.388-10.71 5.539-15.86 5.735-13.5 13.829-25.64 23.865-35.793 11.071-11.305 22.462-22.034 33.693-33.05 10.974-10.75 20.515-23.052 28.375-36.586 7.299-12.689 14.065-26.021 21.204-38.999 5.195-9.632 11.141-18.763 17.778-27.299 10.011-12.227 21.153-23.339 33.267-33.18 7.419-6.404 14.892-12.07 21.938-18.828 9.338-8.261 17.046-18.405 22.71-29.889 4.455-9.31 7.086-19.544 7.738-30.102.647-12.566-.856-25.237-4.436-37.397-4.572-15.64-10.452-30.857-17.567-45.463-6.88-14.343-13.496-28.846-20.058-43.573-5.816-13.059-11.102-26.438-16.387-39.817-4.111-10.62-8.118-21.689-11.699-32.629-5.749-17.181-10.226-34.772-13.389-52.607-2.474-14.691-4.736-29.317-7.476-43.847-2.093-13.722-6.002-27.127-11.609-39.81-6.188-13.413-15.182-23.59-24.23-33.543-8.675-9.599-17.825-18.14-26.553-27.515-10.31-11.077-19.343-23.422-26.892-36.753-3.386-6.122-5.907-12.719-7.476-19.571-.943-3.773-1-7.703-.165-11.436.835-3.733 2.536-7.151 4.949-9.947 2.959-3.565 6.301-6.745 9.96-9.479 8.221-5.794 17.175-10.355 26.622-13.563 16.412-5.463 33.737-7.625 51.112-6.38 10.147.937 20.32.799 30.367-.41 12.857-2.157 24.199-9.696 31.543-20.964 6.722-9.259 10.467-20.382 13.414-31.987 1.627-6.752 2.713-13.658 3.246-20.647 1.272-17.263-1.756-71.7508-3.246-89.1021-5.665-58.6726-30.781-65.8606-75.324-30.9336-44.542 34.9269-16.885 39.619-80.168 71.8987-9.459 4.715-18.519 10.248-27.093 16.545-8.243 6.128-14.759 14.51-18.899 24.315-3.991 9.562-6.116 19.95-6.251 30.552.129 10.134.31 20.043 1.181 29.921.709 8.627 1.844 17.384.482 26.104-.979 6.404-3.782 12.263-8.032 16.793-5.447 6.546-11.89 12.062-19.077 16.33-11.717 7.265-23.486 14.754-35.683 21.152-18.401 9.565-37.07 18.327-55.631 27.603-10.819 5.374-21.477 11.036-32.189 16.923-9.212 5.02-17.435 11.81-24.271 20.043-5.251 6.302-9.354 13.609-12.11 21.566-4.22 12.181-4.565 24.334-3.795 36.585.992 16.163 4.371 31.849 6.795 47.725 3.66 20.282 5.025 40.871 4.064 61.319-.385 7.806-1.434 15.532-3.134 23.085-1.315 5.61-2.258 11.573-3.998 17.055-2.34 7.361-5.089 14.553-8.234 21.539-7.439 15.698-17.229 29.932-29.001 42.164-7.542 8.327-16.048 15.596-25.329 21.645-.724.578-1.35 1.282-1.854 2.082"/><path d="M52.2753 941.637c.1599.289.0021.962.2146 1.027 7.4966 4.916 15.0459 9.607 22.2248 14.907 11.5932 8.802 22.5509 18.372 34.0913 27.398 6.934 5.518 14.201 10.531 21.748 15.003 7.004 3.918 14.496 6.678 22.209 8.178 7.915 1.63 15.973 1.96 23.893.99 9.259-.98 18.08-4.33 25.728-9.749 7.016-5.132 12.806-11.918 16.945-19.86 4.864-9.101 9.303-18.332 13.53-27.626 6.817-14.518 14.218-28.618 22.152-42.076 8.832-15.349 18.09-30.57 25.645-47.268 3.402-7.861 6.293-15.978 8.653-24.296 2.313-8.226 3.771-16.73 4.351-25.36.563-9.203-.571-17.959-4.729-25.468-2.622-4.965-6.822-8.803-11.809-10.79-10.628-4.182-21.188-1.854-31.849 2.846-9.069 4.222-17.684 9.421-25.714 15.52-16.592 11.555-33.184 23.11-50.792 31.233-12.196 5.376-24.786 9.755-37.666 13.099-15.068 4.086-30.137 8.171-45.3109 12.705-4.6161 1.245-9.0178 3.516-13.5266 5.274M433.747 130.703c8.881-6.009 17.41-12.572 25.546-19.657 22.076-19.9646 103.299-124.792 109.313-24.5519 1.822 30.3849 4.748 60.9449-5.484 89.4299-5.457 17.514-20.329 30.663-38.365 32.596-12.048 1.877-23.889.931-35.941.884-13.959-.005-27.856 1.168-41.562 3.506-8.756 1.432-17.726 2.8-26.59 3.718-5.707.858-11.589-.334-16.731-3.388-5.148-3.248-9.056-8.371-10.968-14.381-2.846-7.564-3.385-15.811-1.539-23.539 2.31-9.268 7.169-17.497 13.964-23.649 8.847-8.615 18.816-14.246 28.357-20.968Z"/><path d="M454.405 134.805c8.747-8.462 16.838-17.662 24.201-27.515 50.987-76.5821 83.718-45.158 82.595 17.582-.028 13.038-2.266 25.876-6.606 37.896-3.185 8.805-8.903 16.229-16.358 21.24-8.251 5.169-17.756 7.774-27.484 7.533-8.441.085-16.937-.567-25.486-.995-5.416-.199-11.044-.463-16.407-.886-8.973-.557-17.787-.825-26.603-2.055-4.487-.328-8.832-2.063-12.487-4.986-5.586-5.299-5.599-11.071-2.746-17.416 2.717-5.554 6.417-10.468 10.905-14.481 5.347-5.346 10.907-10.627 16.467-15.909l.009-.008ZM702.797 415.111c-3.875.027-7.751.054-11.466.37-4.121.134-8.077 1.519-11.406 3.994-1.814 1.341-3.314 3.101-4.395 5.157-.534 1.426-.666 3-.381 4.536.286 1.536.978 2.968 1.993 4.125 1.588 2.104 3.612 3.789 5.904 4.913 8.686 4.525 18.57 5.275 27.505 2.088 3.174-1.041 5.907-3.164 7.791-6.051.803-1.486 1.203-3.193 1.157-4.937-.083-2.103-.716-4.162-1.827-5.943-1.111-1.781-2.656-3.213-4.46-4.134-3.295-1.48-6.907-2.575-10.255-3.829"/><path d="M493.567 124.08c5.221-11.496 11.992-22.071 20.105-31.4009 5.148-5.8733 19.168-17.8915 24.095-3.7534 3.424 7.917 5.358 16.4253 5.687 25.0263.328 8.602-.954 17.123-3.771 25.066-1.285 4.637-3.591 8.843-6.729 12.278-3.139 3.434-7.021 5.998-11.331 7.485-7.531 2.865-15.93 2.393-23.363-1.313-3.085-1.692-5.629-4.355-7.275-7.613-1.645-3.259-2.309-6.948-1.897-10.549.527-5.378 2.049-10.552 4.479-15.226ZM389.568 534.805c-7.164 1.434-8.799 6.467-9.419 13.97-1.086 13.371-.101 26.648.194 39.956.295 13.309.27 26.04.352 39.284-.071 15.841-.567 31.554-.213 47.524.128 10.134 2.485 19.5 8.711 25.954 3.769 3.951 8.734 6.313 13.924 6.624 3.696.448 7.411.527 11.096.238 10.588-.736 20.788-4.058 29.816-9.71 5.352-3.276 10.013-7.66 13.722-12.906 5.548-8.172 8.156-18.269 7.369-28.531-.758-10.191-3.095-20.239-6.914-29.735-8.917-23.133-21.436-42.549-35.121-60.878-6.941-9.734-14.969-18.547-23.895-26.23-2.704-2.438-5.865-4.218-9.25-5.207"/></g><defs><clipPath id="clip0_2424_11343"><path fill="#fff" d="M723 1385h-900V-163h900z"/></clipPath></defs></svg>