<svg width="576" height="1362" viewBox="0 0 576 1362" fill="none" xmlns="http://www.w3.org/2000/svg"><g clip-path="url(#clip0_2424_11065)" stroke="#F2F4F6" stroke-width="1.25" stroke-linecap="round" stroke-linejoin="round"><path d="M845.798 3.35753C820.717 45.0339 744.092 84.2545 703.941 93.1402c-10.03 2.6445-20.344 4.1575-30.705 4.505-5.796.2211-11.59.0949-17.344-.3787-6.922-.4474-13.797-1.2611-20.589-2.4366-15.541-3.0794-30.382-8.3457-43.991-15.61-10.729-5.619-21.234-11.7244-31.722-17.5977-8.063-4.4465-16.11-8.661-24.975-9.7684-13.314-1.8933-24.924 2.1406-34.46 13.7046-3.459 4.0842-5.953 8.7551-7.319 13.7092-1.34 5.0221-1.508 10.2094-.494 15.2257 2.53 10.1257 7.046 19.7047 13.338 28.2867 11.278 17.252 23.055 34.226 32.632 53.025 7.73 15.359 13.696 31.439 17.807 47.992 3.054 12.326 4.71 24.94 4.941 37.65.11 10.827-.693 21.672-2.399 32.442-2.622 14.738-6.807 29.257-12.498 43.353-4.413 10.89-9.1 21.57-14.059 32.04-8.522 18.719-16.53 37.393-23.173 57.118-5.119 15.623-9.948 31.687-15.597 47.122-5.196 14.382-12.028 28.279-20.383 41.461-10.691 17.269-23.341 32.371-35.14 48.567-6.766 8.86-12.103 18.525-15.843 28.69-2.624 7.513-3.572 15.379-2.787 23.132 1.168 9.314 4.427 18.254 9.579 26.273 6.832 10.584 14.881 20.46 24.017 29.472 5.285 5.386 10.827 10.75 16.353 15.881 12.979 11.966 25.943 23.701 38.906 35.435 7.164 6.392 14.345 13.016 21.252 19.431 13.815 12.829 27.63 25.658 41.204 38.741 15.806 15.461 30.891 31.685 46.682 46.913 13.803 13.392 29.653 24.923 47.096 34.264 15.524 8.265 32.114 14.836 49.436 19.58 8.752 2.566 17.901 3.982 27.174 4.207 5.409.273 10.845.196 16.268-.229 8.405-1.023 16.625-3.227 24.36-6.53 19.333-8.201 35.742-21.289 50.4-37.264 9.765-10.242 17.528-21.898 22.939-34.439 3.69-8.999 5.401-18.513 5.034-27.996-.774-11.763-3.669-23.27-8.569-34.068-5.85-13.513-11.924-26.54-18.271-39.777-7.553-15.702-15.619-31.36-21.678-47.892-2.986-8.011-5.203-16.26-6.624-24.659-3.281-17.471-.828-34.266 4.482-50.84 6.332-19.516 14.25-38.623 23.688-57.161 6.431-13.265 13.826-26.153 22.135-38.574 10.855-16.451 24.063-31.571 39.268-44.951 6.326-5.682 13.214-10.712 20.07-16.207.935-.821 1.74-1.755 2.392-2.774"/><path d="M31.1002 356.946c5.8602-4.942 11.4797-9.629 17.083-14.548 12.1699-10.856 24.3559-21.48 36.2366-32.778 11.1431-10.646 20.8282-22.463 28.8322-35.179 7.93-12.36 15.587-24.931 23.79-37.081 12.151-18.563 26.809-34.537 44.889-45.901 9.699-6.163 20.356-10.941 31.584-14.158 8.127-2.474 16.522-4.058 25.003-4.717 3.084-.265 5.862-1.204 8.961-1.236 8.496-.496 17.007-.76 25.775-1.046 6.713-.109 13.683-.241 20.38-.582 10.053-.396 20.09-1.025 30.367-1.907 6.922-.828 13.795-2.353 20.684-3.645 5.861-1.205 11.739-2.177 17.343-3.359 5.09-1.138 10.165-2.508 14.998-3.624 3.822-.795 7.612-2.055 11.45-2.618 7.956-1.538 15.997-2.619 24.072-3.235 23.944-1.356 46.365 5.128 66.107 21.419 12.208 10.06 22.091 22.218 29.11 35.808 5.045 9.417 8.449 19.522 10.093 29.967 1.101 5.33 1.822 10.73 2.157 16.166.425 13.009-1.281 26.065-5.064 38.743-5.615 19.637-15.534 36.84-25.454 54.043-9.92 17.203-20.595 34.705-26.724 54.385-2.759 8.646-5.23 17.735-7.46 26.569-4.25 16.95-7.987 33.856-14.101 50.031-4.37 11.897-10.162 23.361-17.271 34.186-7.496 11.155-15.78 22.145-23.276 33.3-7.272 10.669-14.56 21.105-19.358 33.898-3.787 9.73-5.397 19.988-4.735 30.165.662 10.176 3.584 20.062 8.59 29.069 4.281 7.593 9.28 14.822 14.942 21.608 5.107 6.417 10.711 12.492 16.771 18.181 8.305 7.93 16.818 15.14 25.364 22.816 3.036 2.776 6.056 5.319 8.835 8.117 17.702 16.7 35.646 33.145 52.866 50.354 14.11 13.842 27.136 28.566 38.989 44.07 13.382 17.771 26.524 35.796 39.891 53.335 12.371 16.302 28.465 29.96 47.242 40.092 14.488 7.632 29.666 14.037 44.57 20.232 17.572 7.367 34.886 14.757 52.425 21.66 7.065 2.868 14.602 4.741 22.356 5.554 11.51 1.158 23.231-1.421 33.096-7.28 13.782-7.884 26.581-17.133 38.149-27.57 16.826-14.526 33.652-29.052 50.189-44.02 10.211-9.286 20.133-19.014 29.766-29.185 8.601-8.997 15.174-19.412 19.327-30.625 2.383-6.613 3.564-13.5 3.495-20.389-.192-13.426-3.754-26.54-10.418-38.348-8.355-16.101-16.951-31.947-25.564-48.026-8.343-15.864-14.785-32.536-19.221-49.739-2.927-12.428-4.331-25.154-4.187-37.948.018-15.168 2.447-30.324 7.214-45.002 4.091-13.597 9.667-26.832 16.643-39.504 8.374-15.094 18.866-29.188 31.207-41.923.825-1.004 1.53-2.083 2.103-3.217"/><path d="M28.7652 319.537c16.1768-11.395 30.9682-24.338 44.1041-38.592 8.89-9.934 16.8038-20.542 23.6464-31.696 6.7413-10.857 14.0303-21.294 20.7873-31.919 8.722-13.364 19.343-25.667 31.579-36.582 12.683-11.487 27.689-20.638 44.139-26.916 7.82-2.774 15.641-5.547 23.493-7.857 5.331-1.392 10.727-1.856 16.091-2.784 4.095-.585 8.43-1.424 12.542-1.778 5.909-.507 11.835-.782 17.777-.825 6.183-.298 12.639-.385 18.854-.218 12.197.158 24.419-.501 36.566-1.972 6.665-.806 13.281-2.309 19.913-3.579 16.075-3.016 31.409-9.238 46.793-14.764 7.804-3.006 15.624-5.78 23.733-8.111 12.899-3.969 26.831-3.325 38.897 1.798 11.943 5.42 22.949 12.336 32.702 20.551 13.954 11.246 26 24.291 35.776 38.739 12.304 17.095 20.828 36.261 25.117 56.474 1.174 5.739 2.348 11.478 3.024 17.494.81 6.076 1.235 12.201 1.274 18.343-.434 8.519-1.397 17.024-2.883 25.476-3.094 16.731-8.653 33.08-16.528 48.604l-21.764 43.915c-7.484 15.494-13.55 31.485-18.133 47.808-4.396 14.86-8.76 30.184-13.702 44.624-5.214 15.253-12.63 29.873-22.053 43.472-8.235 11.686-16.743 23.162-24.995 34.616-6.489 8.542-12.176 17.548-16.999 26.921-5.436 11.021-7.631 23.049-6.365 34.884.724 6.095 2.531 12.013 5.353 17.526 5.56 11.977 13.404 22.922 23.183 32.347 6.955 7.111 13.654 14.244 20.835 20.869 11.614 10.916 23.709 21.323 35.564 31.984 3.309 2.986 6.891 6.182 10.217 9.4 5.526 5.132 11.051 10.263 16.32 15.417 8.016 7.487 16.289 14.953 24.08 22.926 11.406 11.635 22.586 23.755 33.751 35.644 8.386 9.09 16.53 18.435 25.157 27.271 6.972 7.344 13.944 14.687 21.397 21.522 10.605 9.614 22.561 17.928 35.579 24.741 8.85 4.613 17.684 8.993 26.999 12.865 16.885 7.502 34.809 13.025 53.354 16.441 10.62 1.762 21.564 1.771 32.312.028 11.338-2.176 22.131-6.444 31.698-12.533 13.351-8.082 25.785-17.369 37.105-27.713 9.625-8.83 18.731-18.112 27.277-27.804 7.188-8.201 13.17-17.199 17.786-26.755 4.386-9.103 6.275-18.969 5.5-28.736-.931-12.701-4.418-25.067-10.289-36.491-5.479-11.91-11.457-23.543-17.177-35.198-7.293-14.186-13.657-28.771-19.059-43.68-3.619-10.038-6.324-20.352-8.087-30.84-1.392-9.531-1.889-19.178-1.486-28.837 1.007-19.007 6.237-36.742 12.527-54.1 6.703-18.642 15.593-36.636 26.515-53.667 9.593-15.053 21.32-28.943 34.869-41.303 4.126-3.858 8.526-7.506 12.909-11.386.534-.626 1.007-1.292 1.412-1.991"/><path d="M30.2479 340.898c12.2183-10.159 24.1797-20.296 36.3818-30.687 14.0463-12.358 26.2889-26.29 36.4103-41.436 7.513-10.923 14.191-22.709 21.43-33.842 10.964-17.059 23.068-32.581 38.241-44.863 19.064-15.28 42.412-25.395 67.248-29.134 8.977-1.004 17.681-2.219 26.69-2.759 6.681-.574 13.152-.429 19.865-.538 6.199-.065 12.157.124 18.324-.406 10.824-.462 21.632-1.157 32.166-2.061 6.099-.8 12.149-1.944 18.114-3.425 6.632-1.27 13.248-2.773 19.864-4.275 5.589-1.415 11.418-3.083 17.022-4.265 5.605-1.182 11.177-2.829 16.797-3.779 6.392-1.016 13.056-1.822 19.48-2.373 12.132-.739 24.178 1.278 35.043 5.867 15.403 5.918 29.024 15.961 40.992 28.247 11.799 12.242 20.933 26.424 26.943 41.835 3.525 9.021 6.161 18.33 7.877 27.821 3.069 18.937 1.779 38.37-3.789 57.087-5.423 18.686-14.107 35.082-23.047 51.5-6.87 12.737-13.74 25.474-20.079 38.398-6.054 13.248-10.729 26.946-13.96 40.909-4.075 15.767-7.635 31.49-13.3 46.692-5.084 14.249-12.031 27.943-20.689 40.786-6.341 9.188-12.955 18.165-19.552 27.374-7.529 10.691-15.331 21.172-21.205 33.356-4.442 9.036-6.819 18.743-6.985 28.521-.165 9.777 1.884 19.417 6.021 28.323 5.371 11.144 12.532 21.467 21.256 30.644 5.285 5.385 10.088 11.28 15.614 16.412 11.068 10.495 22.618 20.481 33.91 30.49l9.655 8.748c16.883 16.07 33.733 31.674 50.135 48.252 16.75 17.052 32.406 34.97 46.892 53.669 12.178 15.306 24.339 30.379 38.427 43.418 9.729 8.937 20.688 16.706 32.623 23.127 7.517 4.026 15.259 7.565 23 11.105 17.304 7.829 35.131 14.722 53.388 20.643 9.064 3.039 18.484 5.205 28.106 6.463 7.544.675 15.201.175 22.643-1.478 18.852-3.955 34.62-15.12 49.808-27.169 11.528-8.932 22.51-18.284 33.203-28.079 11.656-10.811 23.296-21.856 34.101-33.762 8.058-8.472 14.312-18.204 18.427-28.679 2.434-6.149 3.819-12.571 4.106-19.039.88-13.391-3.074-25.665-8.538-37.342-7.536-15.471-15.57-30.665-23.348-45.881-7.817-14.948-14.256-30.489-19.252-46.466-2.582-9.196-4.526-18.546-5.821-27.998-2.138-17.058-1.248-34.402 2.635-51.382 5.089-23.255 14.264-45.734 27.169-66.57 9.961-16.301 22.31-31.352 36.699-44.73.482-.509.931-1.482 1.413-1.99"/><path d="M36.8527 432.366c2.1674-2.289 4.5917-4.599 6.7591-6.887 15.4607-15.577 30.9214-31.154 46.6713-46.288 11.3989-10.79 23.6169-20.949 35.3059-31.297 13.725-12.333 26.289-25.682 37.551-39.898 7.61-9.53 14.962-19.037 22.572-28.567 8.611-11.105 19.44-20.678 31.901-28.201 6.147-3.62 12.702-6.611 19.542-8.92 7.998-2.482 16.145-4.508 24.393-6.065 7.386-1.569 14.789-2.906 22.209-4.01 5.363-.928 10.502-1.369 15.882-2.065 3.324-.519 6.391-1.016 9.715-1.535 5.364-.928 10.968-2.11 16.316-3.27 4.078-.817 8.43-1.425 12.493-2.474 4.834-1.116 9.892-2.718 14.982-3.856 6.873-1.525 13.746-3.05 20.635-4.342 6.89-1.292 13.779-2.585 20.684-3.645 3.324-.519 6.97-.132 10.567-.441 8.808-.481 17.559.844 25.6 3.876 9.461 3.309 17.459 9.234 22.889 16.955 9.415 12.739 11.731 27.489 8.428 43.19-2.253 10.478-6.35 20.611-12.133 30.007-8.106 13.544-16.758 26.667-25.137 40-8.101 13.094-14.259 27.058-18.312 41.517-4.348 15.556-6.318 31.843-9.092 47.731-1.928 11.997-4.818 23.878-8.646 35.548-6.434 19.006-16.9 35.788-27.398 52.107-8.155 12.847-16.325 25.462-22.054 39.736-6.628 16.219-10.108 33.103-7.309 51.082 1.74 11.54 5.392 22.723 10.834 33.174 7.951 14.729 18.296 28.245 30.701 40.11 12.497 12.475 25.685 23.722 38.424 35.943 14.136 13.735 28.77 27.195 41.478 42.688 12.129 14.609 23.262 29.771 31.217 47.541 6.227 12.686 9.472 26.479 9.534 40.526-.317 14.043-4.938 25.652-13.849 35.06-10.098 10.911-22.735 15.034-36.048 16.878-4.978.427-9.968.621-14.951.583-6.44.319-12.928-.058-19.352.494-11.819 1.015-23.639 2.03-35.41 3.742-8.433 1.256-16.773 3.065-24.954 5.413-14.189 3.723-27.54 9.866-39.325 18.093-7.735 4.989-13.806 11.832-17.499 19.723-1.859 3.723-2.794 7.748-2.738 11.783.057 4.035 1.104 7.979 3.066 11.548 2.989 5.228 7.382 9.665 12.787 12.917 10.794 6.548 22.726 7.158 34.61 7.072 3.282-.166 6.543-.682 9.716-1.535 7.121-1.186 14.176-2.727 21.133-4.618 15.913-5.338 31.794-11.14 47.707-16.478 6.179-2.182 12.557-3.825 19.045-4.906 5.645-.679 11.321-1.01 16.991-.991 6.059.135 11.971 1.46 17.329 3.884 11.966 4.812 22.118 13.284 30.841 23.513 14.619 16.969 21.739 37.609 24.122 60.759 2.287 21.77 2.004 43.75 5.816 65.14 1.384 8.76 3.025 17.5 5.179 26.19 3.774 15.19 9.128 29.98 15.992 44.17 4.531 9.43 8.806 18.87 13.337 28.29 1.784 3.35 3.824 6.68 5.608 10.03 21.264 36.03 58.954 115.07 58.446 152.08-.528 38.43-20.097 131.49-17.835 146.19"/><path d="M37.8675 450.738c11.3507-11.487 22.4445-22.951 33.5382-34.415 16.6326-17.312 34.4543-32.391 52.2433-47.934 11.929-10.601 24.115-21.225 35.45-32.944 12.796-13.011 24.724-27.35 37.214-41.037 10.332-11.962 23.181-21.968 37.763-29.405 8.869-4.309 18.291-7.553 28.021-9.647 9.426-1.978 18.869-3.724 28.295-5.701 2.553-.453 4.85-.883 7.403-1.336 6.134-.994 11.996-2.198 18.114-3.425 4.079-.817 8.415-1.657 12.493-2.474 5.605-1.182 11.193-2.596 16.524-3.988 5.332-1.393 10.695-2.321 16.043-3.481 6.539-1.761 13.171-3.188 19.864-4.275 8.547-1.284 17.201-1.635 25.775-1.045 11.078.887 21.175 5.732 28.076 13.472 5.047 6.102 7.821 13.538 7.939 21.276.129 6.394-.911 12.797-3.078 18.951-4.238 11.353-9.899 22.264-16.869 32.516-8.229 12.339-15.544 25.141-21.894 38.32-5.932 13.139-10.102 26.832-12.418 40.777-2.806 15.424-5.098 30.804-7.39 46.184-3.109 18.955-9.597 37.422-19.208 54.674-6.677 11.786-13.628 23.361-20.562 35.169-9.209 15.099-15.758 31.352-19.402 48.151-1.551 8.641-2.071 17.379-1.55 26.061 1.555 14.299 5.574 28.219 11.912 41.257 7.811 14.902 18.084 28.586 30.476 40.596 12.771 12.685 26.264 24.607 39.276 37.038 12.444 11.631 24.166 23.88 35.116 36.694 10.733 12.336 19.586 25.947 26.333 40.485 4.628 10.815 8.245 21.95 7.558 34.389-.401 9.063-3.951 17.87-10.142 25.165-6.134 7.091-14.4 12.436-23.748 15.354-6.824 2.221-13.938 4-20.795 5.757-6.102 1.458-12.461 2.939-18.579 4.165-4.834 1.116-9.459 1.513-14.293 2.628-6.359 1.481-12.718 2.962-19.045 4.906-10.389 2.995-21.036 6.012-31.377 9.703-11.298 4.085-22.118 9.243-32.275 15.385-10.661 6.522-20.745 13.928-28.241 25.083-3.612 5.135-5.884 10.923-6.635 16.906-.75 5.984.04 11.999 2.309 17.57 5.657 14.464 16.307 22.657 28.594 28.377 10.467 4.75 22.187 6.96 34.047 6.42 7.819-.36 15.619-1.19 23.35-2.47 1.782-.39 3.822-.8 5.604-1.18 4.834-1.12 9.651-2.47 14.469-3.82l19.8-5.2c7.937-2.304 16.008-4.168 24.167-5.579 8.778-1.494 17.697-1.946 26.53-1.344 10.84 1.014 21.088 4.651 29.681 10.533 13.846 9.55 23.582 23.2 29.914 39.94 5.738 15.63 8.424 31.98 11.111 48.34 1.335 8.06 2.413 16.14 4.006 24.18 1.945 9.41 3.891 18.82 6.335 27.95 5.659 21.94 14.819 42.18 24.717 61.88 3.921 8.08 8.099 16.13 12.019 24.2 23.51 47.81 82.312 121.86 53.256 182.43-27.2 56.7-33.433 81.63-36.736 103.45"/><path d="M893.044 80.417c-2.698-1.6369-5.413-3.5061-8.111-5.1431-7.019-4.3025-14.039-8.605-21.042-12.6753-5.832-3.5895-12.837-5.3608-19.995-5.0566-5.147.6138-10.138 2.1543-14.677 4.5304-8.237 4.2113-15.912 9.075-23.86 13.7285-24.607 15.2621-51.346 27.3871-79.436 36.0201-5.829 1.669-11.658 3.338-17.519 4.542-7.644 1.591-15.32 2.717-22.98 4.075-4.721 1.028-9.534 1.597-14.357 1.7-7.997.22-16.316-.467-24.33-.479-10.742-.34-21.391-1.616-31.799-3.81-6.536-1.074-12.623-3.121-19.176-4.427-10.76-2.346-21.28-4.946-31.992-6.596-7.05-1.03-13.988-.434-19.8 5.204-3.804 3.739-5.959 8.595-6.034 13.6-.704 8.469 2.14 15.933 4.728 23.42 5.159 14.74 11.057 28.949 16.473 43.668 5.275 13.622 9.276 27.654 11.961 41.952 1.238 6.668 2.236 13.59 3.217 20.28.596 4.854 1.465 9.919 1.562 15.049.408 13.73-.626 27.507-3.087 41.143-2.085 10.924-4.956 21.682-8.101 32.23-6.081 20.378-15.084 39.605-22.498 59.395-6.772 17.868-12.741 36.133-18.967 54.42-7.734 22.621-16.544 44.635-28.872 64.38-7.394 11.957-15.475 23.567-24.208 34.782-5.233 6.522-10.467 13.046-15.427 19.778-6.846 8.942-12.262 18.691-16.083 28.945-3.793 10.907-3.711 22.512.234 33.15 3.928 10.78 9.961 20.781 17.818 29.537 12.435 15.283 27.02 28.046 40.867 41.339 8.305 7.929 17.092 15.351 25.638 23.026 9.365 8.306 18.746 16.843 28.368 25.127 22.842 19.995 44.512 41.727 66.648 62.717 12.568 12.376 26.595 23.465 41.844 33.08 16.833 10.623 35.547 18.641 55.412 23.74 7.926 2.194 16.184 3.371 24.54 3.498 3.87-.099 7.789.499 11.643.168 16.702-1.495 32.679-7.507 45.845-17.251 7.779-5.666 14.794-12.152 20.887-19.313 7.029-8.353 12.662-17.578 16.71-27.364 3.017-7.582 4.563-15.541 4.57-23.518.221-15.435-4.617-29.269-10.226-43.036-7.158-16.519-15.267-32.664-24.295-48.369-4.757-8.935-9.77-17.848-14.542-27.015-5.312-9.815-9.247-20.225-11.716-30.995-2.538-12.358-1.654-25.191 2.575-37.362 4.91-14.904 12.261-28.149 19.339-41.604 9.149-17.137 18.555-34.297 28.234-51.245 5.313-9.099 11.172-17.778 17.032-26.457 11.993-17.661 26.623-33.78 43.459-47.88 7.803-6.744 16.184-12.603 24.276-18.904.744-.757 1.561-1.452 2.441-2.078"/><path d="M39.3799 468.588c7.7223-7.904 15.9747-15.62 23.6808-23.757 14.4652-15.024 28.9142-30.28 44.5043-43.999 14.61-12.935 29.799-24.984 44.682-37.708 16.601-14.04 31.773-30.058 46.977-45.613 7.96-8.387 16.672-16.168 26.041-23.259 10.832-7.795 22.996-13.897 35.968-18.039 6.327-1.945 12.927-3.68 19.286-5.16 4.834-1.116 9.956-1.789 14.806-2.673 5.621-.95 10.952-2.342 16.572-3.292 6.119-1.226 12.526-2.01 18.661-3.004l7.66-1.359c6.134-.994 11.979-2.43 18.114-3.424 3.61-.311 7.2-.853 10.743-1.623 8.226-1.999 16.791-2.255 25.02-.748 5.92.743 11.26 3.444 15.002 7.588 6.409 6.691 6.46 14.863 4.455 23.21-2.464 8.393-5.975 16.532-10.464 24.258-7.121 12.967-13.361 26.297-18.682 39.913-3.878 10.878-6.823 21.987-8.807 33.225-1.475 8.536-2.179 17.005-3.397 25.519-1.474 12.273-2.675 24.757-4.936 36.864-3.929 19.804-11.227 39.03-21.631 56.985-7.576 13.731-15.409 27.485-22.182 41.615-12.009 25.026-15.158 52.585-9.003 78.791 4.302 17.161 12.27 33.295 23.46 47.506 11.875 14.911 25.033 28.932 39.358 41.936 16.32 15.417 32.866 30.347 47.292 48.263 10.425 12.137 18.533 25.801 24.005 40.451 3.124 7.853 4.241 16.298 3.267 24.713-1.25 9.862-6.511 19.063-14.751 25.794-8.045 6.408-17.368 11.339-27.426 14.502-10.357 3.459-20.73 6.686-31.104 9.913-9.362 2.906-18.98 5.834-28.326 8.973-10.341 3.691-20.682 7.382-30.991 11.538-13.256 5.141-25.82 11.711-37.413 19.564-10.629 6.986-20.664 15.089-27.855 26.919-4.121 6.673-6.465 14.087-6.84 21.632-.375 7.545 1.231 15.005 4.684 21.767 6.556 13.641 17.737 24.931 31.967 32.291 12.884 7.07 27.824 10.65 43.107 10.32 8.931-.46 17.842-1.38 26.69-2.76 2.231-.39 4.439-.89 6.616-1.51 4.833-1.11 10.165-2.5 14.998-3.62 4.834-1.12 9.94-2.02 14.774-3.14 6.021-1.71 12.14-3.1 18.323-4.14 11.289-1.2 22.562-2.64 33.82-.57 11.741 2.07 22.438 7.24 30.758 14.88 12.675 11.29 20.452 26.51 24.985 43.4 4.485 16.2 7.975 32.95 11.722 49.68 2.942 12.6 6.399 25.15 10.61 37.4 6.228 16.32 13.378 32.31 21.421 47.92 3.936 8.3 8.387 16.56 12.581 24.84 20.205 30.68 60.817 100.88 61.625 136.23 1.011 44.19-56.72 100.31-52.962 135.79"/><path d="M33.61 378.217c4.3669-4.113 8.7178-8.457 13.3417-12.592 13.8556-12.636 27.7435-24.807 41.5992-37.443 18.7341-17.407 34.7711-37.026 47.6471-58.285 9.311-14.815 18.637-29.397 29.891-42.277 6.397-7.343 13.858-13.88 22.172-19.423 7.792-5.286 16.391-9.49 25.499-12.467 9.186-3.266 18.771-5.424 28.503-6.419 14.662-1.026 29.614-1.609 44.275-2.635 13.362-1.147 26.707-2.527 40.035-4.139 6.408-.783 12.799-1.8 19.174-3.048 8.929-1.701 17.809-4.098 26.721-6.032 8.142-1.867 16.3-3.502 24.747-4.695 6.586-.757 13.202-1.169 19.816-1.235 6.974-.199 13.908.544 20.573 2.205 14.865 3.369 28.307 10.37 38.886 20.253 7.834 7.028 14.259 15.242 19.005 24.296 3.075 6.196 5.596 12.619 7.537 19.208 2.387 7.219 3.521 14.764 3.363 22.369.091 5.709-.202 11.429-.878 17.128-1.881 14.968-6.828 29.574-14.586 43.064-8.523 14.981-17.592 29.542-26.389 44.312-8.6 14.419-15.097 29.743-19.322 45.575-3.882 14.815-6.961 30.029-10.57 45.055-2.565 11.112-6.128 22.044-10.654 32.683-7.043 15.437-15.709 30.264-25.875 44.269-6.1 8.933-12.506 17.191-18.076 26.312-7.611 11.434-12.791 24.008-15.261 37.05-1.851 10.518-1.373 21.199 1.406 31.413 3.45 12.107 9.319 23.475 17.321 33.551 10.256 12.972 21.822 25.036 34.554 36.042 12.385 10.85 24.529 21.953 36.69 33.289 10.778 10.053 21.075 20.614 31.373 31.176 8.08 8.416 16.192 17.297 23.791 26.221 12.072 13.968 22.87 28.819 32.292 44.412 7.616 12.894 14.975 25.81 22.832 38.45 6.871 12.13 15.651 23.252 26.073 33.032 11.309 10.241 24.656 16.337 37.987 22.199 12.801 5.675 25.778 10.166 38.563 15.609 15.104 6.431 29.212 14.556 42.003 24.19 5.785 4.455 10.767 9.697 14.779 15.549 2.297 3.192 3.664 6.878 3.976 10.724.312 3.847-.439 7.735-2.187 11.313-2.098 4.514-4.748 8.824-7.898 12.824-7.192 8.67-15.605 16.46-25.014 23.17-16.382 11.55-34.871 20.35-54.546 25.94-11.56 3.07-22.791 7.17-33.529 12.23-13.537 7.04-23.61 18.57-28.014 32.07-4.381 11.35-4.843 23.31-4.262 35.4.437 7.01 1.524 13.94 3.25 20.75 4.316 16.78 10.209 33.15 17.615 48.94 2.716 5.61 5.191 11.47 7.666 17.33 16.713 34.96 50.673 111.26 58.719 134.79 16.993 49.71 14.689 173.97 17.349 195.31"/><path d="M34.5586 399.16c.2408-.255.7385-.531.9793-.785 9.6811-9.475 19.33-19.413 29.2841-28.677 12.8763-11.851 25.7687-23.47 38.661-35.089 16.928-15.8 31.683-33.388 43.924-52.358 7.634-12.27 16.044-24.146 25.186-35.566 9.793-12.134 22.446-22.169 36.993-29.339 13.378-5.917 27.73-9.681 42.393-11.116 26.417-2.969 52.738-3.594 78.785-8.167 4.336-.839 8.688-1.447 13.008-2.519 5.604-1.182 10.919-2.806 16.524-3.988 5.604-1.182 11.482-2.154 17.343-3.358 6.828-1.556 13.732-2.773 20.683-3.645 7.126-.689 14.28-.913 21.407-.671 6.651.017 13.205 1.116 19.353 3.244 12.292 3.748 23.18 10.383 31.578 19.245 17.558 18.347 24.037 40.916 20.174 67.176-2.087 13.173-6.709 25.985-13.656 37.846-8.555 14.517-17.673 28.381-26.245 42.665-10.77 17.41-18.371 36.212-22.499 55.657-3.079 15.215-6.158 30.429-9.767 45.455-3.401 15.291-9.251 30.118-17.364 44.004-9.294 15.047-19.375 29.928-28.942 44.765-7.476 11.177-13.335 23.145-17.43 35.601-4.245 13.852-4.748 28.323-1.465 42.172 2.65 10.765 7.201 21.021 13.482 30.376 12.436 19.021 28.708 33.741 44.723 48.483 10.474 9.378 21.188 18.503 31.421 28.136 8.015 7.487 15.533 15.25 23.051 23.014 6.956 7.111 13.398 14.266 19.856 21.654 17.004 19.184 31.156 40.341 42.11 62.956 6.042 12.562 10.606 26.185 15.412 39.554 4.484 12.463 8.23 25.455 14.978 37.022 5.011 9.124 12.478 16.909 21.735 22.66 11.051 6.526 22.871 9.248 34.965 12.181 13.667 3.264 27.078 6.551 39.67 12.944 7.778 3.489 14.502 8.588 19.645 14.898 7.101 9.201 7.987 18.235 2.497 28.52-3.264 5.97-8.044 11.19-13.935 15.21-11.592 8-24.23 12.12-37.189 15.34-8.655 1.91-17.327 3.59-25.677 6.18-11.045 3.27-20.567 9.97-26.862 18.89-6.513 9.54-10.96 20.07-13.096 31.02-1.946 8.08-2.849 16.31-2.691 24.53.421 9.77.584 19.57 2.032 29.25 1.901 11.71 5.123 23.17 9.614 34.22 6.846 16.69 14.173 32.88 21.517 49.3 15.906 30.4 48.128 98.22 56.063 124.56 17.411 57.78-3.299 151.73 4.256 189.74"/><path d="M895.575 116.881c-1.809-.792-3.67-1.49-5.573-2.09-6.858-1.981-13.973-3.939-20.798-5.456-8.861-2.187-17.87-3.909-26.981-5.157-6.073-.64-12.235-.582-18.34.173-9.519 1.605-18.953 3.663-28.263 6.165-13.698 3.746-27.363 7.956-41.044 11.934-10.39 2.995-21.02 6.243-31.41 9.238-4.817 1.348-9.924 2.254-14.758 3.37-6.616 1.502-12.975 2.982-19.607 4.253-2.81.475-5.604 1.182-8.174 1.403-13.602 1.401-27.46 2.825-41.062 4.227-5.91.507-12.141.108-18.019 1.08-7.419 1.105-14.597 1.955-21.598 5.359-9.49 4.786-14.37 12.68-14.35 24.124-.03 7.01.196 13.998.937 20.943.741 6.944 2.509 13.799 3.507 20.721.885 5.297 1.256 10.637 2.398 15.912 2.158 13.097 3.422 26.329 3.785 39.619.355 8.721.186 17.469-.507 26.205-1.045 13.615-3.303 27.167-6.749 40.523-3.24 12.892-6.994 25.828-10.508 38.51-4.171 14.374-8.615 28.537-12.803 42.679-3.578 11.753-7.156 23.506-10.477 35.237-7.579 25.695-19.666 50.24-35.791 72.683-5.185 7.219-10.354 14.671-15.812 21.68-7.835 10.016-16.215 19.612-23.792 29.607-7.135 8.829-12.656 18.615-16.34 28.967-2.323 6.344-3.094 13.028-2.259 19.581.998 6.037 2.795 11.922 5.353 17.527 5.626 11.625 13.259 22.319 22.621 31.694 7.534 7.996 15.084 16.223 23.084 23.478 11.325 10.474 22.874 20.46 34.424 30.447 7.71 6.813 15.404 13.394 23.099 19.974 11.549 9.987 23.099 19.974 34.665 30.193 4.112 3.384 7.742 7.277 11.855 10.661 17.091 15.35 33.91 30.491 53.313 41.905 16.19 9.822 33.504 17.211 51.797 20.079 6.006.885 12.221 1.053 18.196 1.474 9.651.293 19.304-1.662 28.038-5.678 8.103-3.679 15.318-8.835 21.178-15.134 6.76-6.976 11.834-15.139 14.88-23.936 3.864-11.259 4.638-23.118 2.254-34.531-3.176-17.122-9.74-33.49-19.381-48.323-11.295-17.483-23.328-34.436-35.105-51.411-6.058-8.402-10.942-17.474-14.541-27.016-2.007-5.642-3.365-11.474-4.052-17.404-1.112-10.948 1.159-22.059 6.559-32.098 5.231-9.414 11.643-18.274 19.103-26.401 12.66-14.313 24.482-29.208 35.414-44.62 9.648-13.676 18.444-28.447 27.819-42.333 11.735-17.125 24.031-33.598 38.561-47.693 9.451-9.328 19.649-18.012 30.506-25.979 7.626-5.56 15.542-10.678 23.169-16.239.709-.623 1.354-1.305 1.926-2.034M41.1506 486.648c.2408-.254.7385-.531.9794-.785 14.5942-13.166 27.7908-27.847 41.5174-42.341 14.7049-15.436 30.4376-30.05 47.1056-43.755 16.377-13.553 32.77-26.874 49.13-40.659 16.361-13.786 31.291-29.55 48.246-42.219 9.004-6.963 19.059-12.707 29.834-17.044 8.296-3.632 17.082-6.196 26.094-7.614 9.716-1.535 19.158-3.28 28.906-4.35 5.849-.454 11.712-.567 17.553-.34 6.556-.161 13.066.62 19.288 2.314 11.885 3.652 17.155 12.542 15.28 26.485-1.411 9.465-2.821 18.93-4.505 28.184-3.8 19.714-5.513 39.716-7.225 59.718-.849 10.117-1.44 20.213-2.802 30.374-1.46 13.009-4.738 25.849-9.753 38.212-4.478 9.961-8.699 19.901-13.706 29.675-8.411 16.606-17.127 32.538-22.855 50.549-4.564 14.116-6.689 28.721-6.298 43.287.277 8.419 1.462 16.766 3.54 24.924 3.837 15.485 10.448 30.223 19.573 43.635 9.832 15.04 22.089 27.769 34.33 40.266 5.012 5.175 10.747 9.588 15.759 14.764 8.064 8.184 15.871 16.39 23.935 24.574 9.75 9.612 18.055 20.36 24.709 31.981 6.17 10.683 10.846 22.194 10.481 35.54-.292 7.842-3.183 15.497-8.297 21.969-5.825 7.095-13.402 12.872-22.093 16.847-15.238 7.615-31.408 12.975-47.273 19.009-18.145 6.697-35.985 14.069-53.809 21.673-14.734 6.233-28.603 14.094-41.282 23.4-9.882 6.851-18.249 15.346-24.628 25.007-4.134 6.053-6.828 12.793-7.903 19.771-1.075 6.979-.506 14.038 1.668 20.708 3.6 11.103 9.77 21.323 18.107 29.983 10.777 12.03 24.632 21.49 40.43 27.59 12.309 4.64 25.7 6.69 39.186 5.98 5.669-.25 11.53-1.46 17.424-2.2 4.85-.88 9.972-1.55 15.063-2.69 6.616-1.5 12.943-3.45 19.559-4.95 7.143-1.82 14.374-3.29 21.663-4.43 11.289-1.21 22.562-2.64 33.837-.34 15.723 3.09 28.701 11.32 38.758 25.87 8.612 12.34 13.498 26.87 17.613 41.47 4.47 15.97 8.698 32.19 13.167 48.16 5.16 18.47 13.307 35.29 21.454 52.11 5.415 10.98 11.328 21.69 17.241 32.39.579.89 1.398 1.52 1.976 2.4 21.934 31.45 64.754 101 60.567 127.65-5.233 33.31-72.558 103.45-68.73 143.26"/><path d="M897.891 150.076c-.076-.311-.184-.614-.322-.906-12.992-.987-25.359-4.129-37.934-6.553-10.214-1.926-20.172-3.874-30.337-5.103-6.345-.629-12.753-.783-19.159-.458-4.378-.206-8.779-.062-13.153.43-7.419 1.104-14.565 2.418-21.968 3.755-4.336.839-8.688 1.447-13.008 2.518-4.833 1.116-9.667 2.232-14.484 3.58-5.845 1.436-11.69 2.873-17.52 4.541-4.062 1.05-8.109 2.332-12.172 3.382-5.845 1.436-11.69 2.872-17.519 4.541-6.857 1.757-13.698 3.746-20.795 5.757-7.098 2.011-13.971 3.535-20.796 5.757-8.848 2.862-17.406 6.166-24.968 12.655-7.674 7.18-12.343 16.53-13.161 26.358-1.03 7.559-1.28 15.166-.749 22.722.613 8.824.985 17.902 1.341 26.748s.471 17.946.056 26.858c-.56 18.868-2.707 37.715-6.424 56.379-3.255 16.397-7.024 32.839-10.007 49.446-3.014 16.143-5.242 32.452-7.999 48.572-2.438 13.291-4.634 26.327-7.874 39.219-3.332 12.462-8.78 24.437-16.146 35.49-10.049 15.346-22.62 27.871-34.644 40.817-8.413 9.132-16.552 18.473-24.965 27.605-7.559 8.305-13.551 17.665-17.721 27.684-3.52 8.651-4.308 17.948-2.273 26.824 2.348 11.478 8.148 20.557 14.43 29.127 9.447 12.95 20.504 24.851 32.964 35.478 14.858 12.973 30.456 25.415 45.539 37.902 13.975 11.413 27.677 22.617 41.636 33.798 12.577 10.56 25.777 20.498 39.546 29.773 10.788 7.288 22.775 13.031 35.561 17.035 9.133 2.789 18.917 3.626 28.602 2.449 13.778-2.585 25.195-9.405 30.554-25.282 1.688-5.323 2.44-10.828 2.227-16.309-.771-11.038-3.795-21.787-8.922-31.703-7.263-15.26-17.432-27.701-27.12-40.651-7.679-10.085-15.358-20.171-22.315-31.019-7.718-11.947-13.409-24.918-16.889-38.493-3.139-11.606-3.455-23.769-.926-35.66 2.466-10.789 7.795-20.952 15.521-29.597 8.588-8.83 18.067-16.919 28.306-24.155 14.241-10.8 28.21-21.811 39.881-36.127 9.536-11.564 18.783-23.571 28.029-35.577 6.165-8.004 12.024-16.683 18.189-24.687 12.057-15.943 26.244-30.504 42.223-43.336 10.051-7.871 20.375-15.532 30.715-22.96 6.905-4.798 14.114-8.921 21.034-13.486.71-.623 1.355-1.305 1.927-2.034M42.013 510.414c7.7868-6.975 15.5898-13.719 22.8305-21.115 12.0731-12.249 23.8409-25.172 35.8975-37.654 19.988-21.104 42.547-38.692 65.41-55.605 12.283-9.23 24.534-18.925 36.8-28.388 8.349-6.323 16.425-12.856 24.807-18.715 8.226-6.013 17.265-11.032 26.879-14.922 6.129-2.477 12.484-4.431 18.98-5.835 6.392-1.326 12.97-1.494 19.352-.494 5.333.619 10.39 2.375 14.758 5.126 4.368 2.75 7.924 6.417 10.379 10.702 4.49 8.126 7.129 17.029 7.765 26.196.998 10.659 1.483 21.362 1.711 32.088-.046 6.778-.333 13.81-.379 20.588-.356 8.767-1.389 17.52-3.092 26.194-3.191 17.326-9.594 33.059-16.528 48.605-7.607 17.004-15.503 33.566-20.171 51.953-3.852 14.809-5.495 29.958-4.886 45.035.088 4.359.562 8.692 1.417 12.959.885 5.297 1.77 10.594 3.169 15.846 4.522 16.918 12.007 32.99 22.175 47.616 10.421 14.6 22.183 28.356 35.166 41.128 6.393 6.459 13.044 12.896 19.454 19.587 6.971 7.343 14.2 14.664 20.691 22.516 9.59 11.556 17.688 23.942 20.856 39.787.891 5.105.729 10.346-.477 15.458-2.02 8.108-6.742 15.53-13.516 21.249-8.215 7.053-17.583 12.905-27.746 17.333-12.508 5.979-25.306 11.516-38.12 16.821-20.104 8.267-40.192 16.767-59.653 26.847-13.533 6.65-26.245 14.637-37.893 23.81-10.276 8.358-20.246 17.39-26.875 29.872-4.963 9.353-6.59 19.792-4.649 29.831 2.016 9.228 5.865 17.997 11.362 25.887 9.287 13.55 20.573 25.86 33.558 36.59 11.533 10.13 25.054 18.23 39.915 23.91 8.578 2.93 17.689 4.52 26.949 4.69 5.584-.13 11.165-.61 16.701-1.43 7.377-.91 14.71-2.17 21.968-3.76 8.912-1.93 17.793-4.33 26.673-6.73 9.453-2.49 19.114-4.18 28.857-5.05 9.099-.89 18.241 0 26.804 2.61 12.158 3.86 22.021 11.89 29.54 23.39 8.097 12.38 12.694 26.47 17.034 40.58 3.681 12.07 7.122 24.38 11.317 36.4 6.032 16.97 13.572 33.43 22.545 49.22 5.929 10.94 11.842 21.64 17.755 32.35 17.839 24.17 53.805 77.27 60.23 94.37 17.073 45.44-51.203 84.33-75.297 148"/><path d="M34.8155 414.093c5.0572-5.34 10.3713-10.701 15.4446-15.809 18.3505-18.628 37.5847-35.696 57.0759-52.787 14.786-13.208 28.154-27.656 39.911-43.138 5.218-6.755 9.616-14.14 14.833-20.895 5.892-8.214 12.297-16.472 18.735-24.267 8.69-10.504 19.719-19.259 32.336-25.668 7.216-3.71 14.941-6.496 22.946-8.278 7.13-1.546 14.003-3.071 20.892-4.364 6.392-1.016 12.558-1.545 18.966-2.329 13.842-1.656 27.428-3.29 41.271-4.946 5.317-.681 10.602-1.603 15.834-2.761 5.604-1.182 11.433-2.851 17.038-4.033 7.129-1.547 14.019-2.839 21.148-4.386 7.644-1.59 15.272-3.414 22.948-4.54 8.504-1.155 17.104-1.265 25.566-.327 13.696.998 26.54 5.952 36.652 14.138 18.89 15.196 26.027 36.074 22.886 61.571-1.975 13.339-6.781 26.287-14.153 38.122-7.865 13.289-16.534 26.181-24.672 39.26-11.329 18.037-19.236 37.597-23.382 57.835-3.512 16.419-6.222 33.237-9.991 49.678-3.511 15.343-9.538 30.192-17.877 44.049-7.641 12.803-16.085 25.207-24.255 37.822-8.108 12.192-14.499 25.222-19.019 38.774-4.175 14.256-4.737 29.083-1.642 43.354 2.861 12.872 8.353 25.073 16.198 35.984 11.793 17.207 26.684 30.644 41.077 44.357 11.325 10.474 23.147 20.671 34.472 31.144 7.164 6.393 13.863 13.526 20.546 20.427 4.739 4.965 9.237 10.185 13.735 15.404 11.365 13.077 21.418 27.064 30.043 41.802 4.871 8.332 8.935 17.048 12.148 26.053 3.624 9.295 6.114 18.948 7.428 28.794 1.137 8.929 1.762 17.919 1.871 26.936-.094 9.819-1.729 19.77-1.823 29.589-.216 12.777 3.235 25.278 10.016 36.28 6.105 9.754 12.211 19.508 18.3 29.029 7.053 11.071 9.688 24.093 7.478 36.963-2.949 20.81-8.002 41.1-9.377 62.24-.447 8.45-.91 16.66-.844 25.07.221 12.55 1.866 25.01 4.909 37.18 3.632 14.5 8.505 28.69 14.578 42.43 5.817 13.05 11.875 25.85 17.693 38.89 17.507 36.35 48.271 98.48 54.995 136.73 12.103 68.85-14.387 144.97-8.838 166.26"/><path d="M356.662 976.744c4.288-1.537 8.575-3.072 12.59-4.819 4.523-1.732 8.45-4.581 11.319-8.213 1.566-1.972 2.646-4.218 3.162-6.579.119-1.553-.257-3.09-1.083-4.427-.826-1.338-2.068-2.419-3.577-3.115-2.458-1.366-5.261-2.166-8.174-2.334-11.131-.883-22.337 2.262-31.185 8.751-3.173 2.219-5.5 5.287-6.63 8.745-.398 1.716-.275 3.482.354 5.109.791 1.952 2.175 3.647 3.997 4.894 1.823 1.247 4.01 1.996 6.316 2.162 4.143.112 8.511-.263 12.638-.384M664.205 741.738c7.467-4.145 7.61-9.53 5.809-16.85-3.232-13.037-8.728-25.179-13.469-37.619-4.741-12.44-8.936-24.46-13.42-36.923-5.175-14.972-9.837-29.988-15.526-44.917-3.504-9.51-9.223-17.427-18.266-21.089-5.489-2.258-11.777-2.551-17.633-.822-4.247 1.019-8.392 2.391-12.381 4.1-11.493 4.822-21.699 11.931-29.832 20.782-4.847 5.177-8.56 11.129-10.932 17.524-3.44 9.872-2.982 20.414 1.294 29.788 4.221 9.319 10.144 17.887 17.528 25.357 17.558 18.347 37.877 31.785 59.127 43.742 10.924 6.478 22.747 11.663 35.19 15.432 3.807 1.246 7.901 1.693 11.981 1.307"/></g><defs><clipPath id="clip0_2424_11065"><path fill="#fff" d="M0 0h576v1362H0z"/></clipPath></defs></svg>