<svg width="795" height="1604" viewBox="0 0 795 1604" fill="none" xmlns="http://www.w3.org/2000/svg"><g clip-path="url(#clip0_2426_11362)" stroke="#F2F4F6" stroke-width="1.25" stroke-linecap="round" stroke-linejoin="round"><path d="M848.075 1.32546C819.891 40.9691 740.5 74.2355 699.788 80.0351c-10.202 1.8725-20.601 2.595-30.958 2.1518-5.797-.2213-11.565-.7887-17.265-1.6994-6.868-.9738-13.661-2.3091-20.344-3.9988-15.261-4.2549-29.658-10.637-42.673-18.9174-10.27-6.4204-20.278-13.3087-30.289-19.9643-7.701-5.0481-15.403-9.8637-24.158-11.6435-13.131-2.9025-25.014.2348-35.404 11.0384-3.76 3.8087-6.603 8.2759-8.342 13.1115-1.719 4.9053-2.282 10.0647-1.653 15.1437 1.75 10.2895 5.524 20.1848 11.143 29.2212 9.931 18.0607 20.379 35.8837 28.495 55.3577 6.537 15.903 11.261 32.391 14.098 49.21 2.106 12.522 2.795 25.226 2.058 37.917-.716 10.804-2.343 21.556-4.866 32.164-3.737 14.496-9.016 28.653-15.765 42.274-5.231 10.523-10.717 20.815-16.46 30.877-9.924 18.014-19.332 36.023-27.459 55.184-6.295 15.188-12.334 30.838-19.143 45.797-6.277 13.944-14.148 27.28-23.484 39.786-11.976 16.405-25.74 30.498-38.739 45.748-7.422 8.319-13.48 17.549-17.983 27.4-3.19 7.291-4.735 15.062-4.543 22.851.455 9.376 3.023 18.539 7.549 26.928 6.005 11.073 13.278 21.534 21.701 31.216 4.859 5.773 9.976 11.544 15.095 17.081 12.03 12.921 24.061 25.609 36.092 38.297 6.656 6.92 13.311 14.072 19.709 20.995 12.797 13.844 25.594 27.689 38.131 41.769 14.583 16.62 28.387 33.946 42.971 50.334 12.742 14.405 27.667 27.11 44.347 37.754 14.849 9.424 30.89 17.24 47.801 23.291 8.531 3.225 17.545 5.334 26.774 6.266 5.373.684 10.799 1.022 16.238 1.011 8.459-.38 16.823-1.95 24.787-4.654 19.902-6.704 37.261-18.504 53.093-33.315 10.517-9.468 19.147-20.498 25.497-32.59 4.366-8.691 6.797-18.048 7.154-27.531.125-11.787-1.884-23.482-5.948-34.622-4.802-13.92-9.866-27.372-15.186-41.054-6.334-16.232-13.183-32.459-17.965-49.405-2.367-8.215-3.948-16.609-4.725-25.092-1.94-17.67 1.786-34.23 8.344-50.35 7.801-18.977 17.152-37.425 27.975-55.19 7.424-12.736 15.779-25.023 25.011-36.775 12.077-15.576 26.399-29.645 42.58-41.827 6.74-5.184 13.992-9.674 21.246-14.63.995-.748 1.87-1.617 2.597-2.584"/><path d="M8.7983 291.792c6.2198-4.48 12.1802-8.726 18.1421-13.204 12.9619-9.896 25.9222-19.56 38.6294-29.92 11.9221-9.766 22.4795-20.81 31.4299-32.879 8.8493-11.72 17.4413-23.67 26.5463-35.16 13.531-17.583 29.364-32.394 48.257-42.346 10.14-5.407 21.131-9.358 32.572-11.71 8.291-1.847 16.783-2.787 25.29-2.798 3.094-.029 5.936-.753 9.029-.55 8.508.153 17.015.539 25.779.922 6.702.403 13.662.803 20.365.973 10.054.371 20.109.51 30.424.413 6.965-.298 13.934-1.295 20.902-2.058 5.936-.754 11.87-1.275 17.548-2.027 5.163-.746 10.327-1.726 15.231-2.47 3.872-.502 7.746-1.469 11.616-1.738 8.051-.927 16.15-1.392 24.249-1.391 23.978.473 45.839 8.646 64.282 26.395 11.406 10.962 20.333 23.837 26.296 37.923 4.313 9.773 6.937 20.109 7.78 30.649.692 5.399.998 10.837.918 16.283-.567 13.004-3.263 25.891-8.001 38.245-7.096 19.151-18.298 35.549-29.5 51.946-11.202 16.397-23.179 33.033-30.79 52.189-3.411 8.411-6.567 17.285-9.464 25.924-5.53 16.576-10.545 33.148-17.874 48.81-5.264 11.529-11.912 22.519-19.825 32.77-8.325 10.552-17.422 20.878-25.747 31.429-8.064 10.084-16.126 19.935-21.885 32.324-4.518 9.413-6.905 19.519-7.021 29.717-.115 10.197 2.045 20.277 6.35 29.639 3.69 7.897 8.123 15.486 13.251 22.684 4.604 6.788 9.729 13.272 15.337 19.406 7.677 8.54 15.616 16.378 23.552 24.683 2.815 2.999 5.633 5.766 8.19 8.767 16.378 18 33.016 35.766 48.875 54.236 13.013 14.878 24.879 30.552 35.516 46.914 11.989 18.739 23.719 37.714 35.71 56.221 11.093 17.197 26.1 32.042 44.049 43.575 13.864 8.714 28.51 16.257 42.899 23.57 16.959 8.685 33.659 17.373 50.621 25.592 6.826 3.399 14.198 5.841 21.868 7.243 11.388 2.031 23.272.354 33.555-4.737 14.343-6.81 27.809-15.057 40.139-24.582 17.884-13.201 35.769-26.402 53.398-40.067 10.889-8.48 21.524-17.424 31.904-26.831 9.262-8.316 16.609-18.199 21.604-29.063 2.881-6.412 4.583-13.19 5.039-20.063.833-13.402-1.72-26.749-7.464-39.031-7.104-16.69-14.468-33.146-21.83-49.834-7.109-16.455-12.262-33.569-15.374-51.059-1.972-12.616-2.402-25.411-1.282-38.158 1.173-15.122 4.751-30.049 10.623-44.32 5.115-13.247 11.683-26.018 19.604-38.121 9.501-14.412 21.037-27.666 34.312-39.423.899-.938 1.685-1.96 2.342-3.048"/><path d="M9.3212 254.315c16.9982-10.129 32.7331-21.907 46.9171-35.118 9.6213-9.228 18.3206-19.202 25.9934-29.802 7.5497-10.312 15.612-20.163 23.1603-30.242 9.715-12.66 21.242-24.118 34.274-34.069 13.522-10.487 29.182-18.467 46.063-23.473 8.009-2.1698 16.018-4.3396 24.023-6.0439 5.422-.9818 10.837-1.0328 16.256-1.5491 4.128-.2715 8.515-.7782 12.641-.8169 5.931-.0556 11.861.1216 17.789.5315 6.187.1747 12.631.58 18.815 1.2202 12.15 1.087 24.387 1.3612 36.611.8203 6.706-.2956 13.418-1.2897 20.127-2.0508 16.258-1.7817 32.023-6.8174 47.782-11.1545 8.011-2.4026 16.019-4.5721 24.283-6.2788 13.163-2.9744 27.006-1.2703 38.646 4.7578 11.496 6.3143 21.942 14.0487 31.041 22.9832 13.056 12.277 24.073 26.202 32.719 41.354 10.966 17.982 18.004 37.742 20.74 58.223.733 5.812 1.466 11.624 1.682 17.673.344 6.121.302 12.26-.128 18.388-1.082 8.461-2.69 16.868-4.816 25.181-4.36 16.447-11.149 32.325-20.184 47.203l-25.048 42.129c-8.644 14.879-15.91 30.361-21.724 46.287-5.516 14.481-11.035 29.428-17.063 43.449-6.361 14.812-14.87 28.825-25.302 41.666-9.102 11.024-18.46 21.818-27.561 32.61-7.121 8.022-13.478 16.569-19.001 25.547-6.261 10.575-9.366 22.4-9.006 34.297.258 6.133 1.609 12.171 4.002 17.884 4.631 12.365 11.618 23.876 20.65 34.02 6.393 7.62 12.529 15.243 19.184 22.396 10.748 11.769 22.015 23.067 33.023 34.601 3.072 3.23 6.4 6.689 9.47 10.152 5.119 5.537 10.238 11.075 15.099 16.615 7.422 8.077 15.101 16.151 22.262 24.695 10.486 12.47 20.71 25.408 30.936 38.113 7.669 9.703 15.078 19.641 23.005 29.109 6.392 7.853 12.784 15.707 19.695 23.09 9.842 10.394 21.129 19.596 33.59 27.381 8.472 5.274 16.947 10.315 25.94 14.885 16.264 8.767 33.715 15.64 51.946 20.46 10.454 2.566 21.366 3.409 32.215 2.49 11.471-1.306 22.558-4.738 32.561-10.08 13.928-7.041 27.035-15.354 39.109-24.805 10.271-8.07 20.057-16.631 29.317-25.644 7.793-7.63 14.443-16.145 19.774-25.322 5.067-8.741 7.702-18.436 7.674-28.233.04-12.735-2.494-25.33-7.477-37.169-4.556-12.292-9.63-24.347-14.445-36.405-6.191-14.7-11.425-29.728-15.675-45.005-2.843-10.285-4.754-20.775-5.713-31.367-.661-9.609-.422-19.266.717-28.866 2.452-18.875 9.019-36.16 16.614-52.988 8.104-18.077 18.339-35.341 30.528-51.49 10.712-14.278 23.463-27.234 37.915-38.525 4.408-3.533 9.073-6.835 13.739-10.37.581-.583 1.103-1.211 1.56-1.876"/><path d="M9.17156 275.726c12.95704-9.198 25.65624-18.394 38.61484-27.825 14.9473-11.251 28.2162-24.21 39.4629-38.54 8.3234-10.319 15.8797-21.561 23.9467-32.11 12.232-16.174 25.484-30.729 41.549-41.818 20.173-13.783 44.224-22.089 69.273-23.924 9.027-.318 17.798-.865 26.822-.717 6.705-.063 13.147.575 19.849.977 6.186.408 12.112 1.051 18.301.993 10.828.363 21.657.495 32.23.396 6.142-.333 12.262-1.013 18.322-2.034 6.71-.762 13.421-1.756 20.133-2.75 5.68-.984 11.619-2.203 17.297-2.955 5.678-.751 11.36-1.968 17.036-2.487 6.45-.526 13.157-.822 19.604-.882 12.153.188 24.011 3.117 34.494 8.521 14.907 7.075 27.723 18.127 38.719 31.29 10.833 13.105 18.859 27.942 23.677 43.766 2.828 9.264 4.746 18.747 5.734 28.34 1.617 19.117-1.15 38.395-8.13 56.633-6.831 18.218-16.739 33.904-26.904 49.594-7.821 12.175-15.641 24.352-22.948 36.756-7.046 12.748-12.75 26.049-17.037 39.726-5.264 15.41-10.013 30.816-16.82 45.542-6.155 13.819-14.125 26.945-23.737 39.091-7.023 8.677-14.301 17.124-21.582 25.804-8.322 10.086-16.9 19.941-23.685 31.642-5.118 8.672-8.228 18.169-9.138 27.906-.911 9.736.398 19.504 3.845 28.7 4.506 11.521 10.858 22.359 18.858 32.174 4.859 5.773 9.199 12.017 14.318 17.554 10.236 11.309 20.99 22.146 31.487 32.987l8.96 9.458c15.609 17.31 31.221 34.153 46.312 51.933 15.402 18.279 29.646 37.338 42.665 57.087 10.976 16.189 21.953 32.145 35.006 46.22 9.02 9.652 19.355 18.234 30.766 25.546 7.188 4.587 14.637 8.707 22.087 12.826 16.657 9.125 33.906 17.357 51.658 24.652 8.807 3.721 18.034 6.598 27.532 8.586 7.471 1.248 15.144 1.333 22.69.252 19.099-2.506 35.671-12.437 51.734-23.294 12.176-8.027 23.838-16.515 35.246-25.466 12.447-9.892 24.894-20.017 36.575-31.065 8.681-7.833 15.659-17.061 20.56-27.191 2.895-5.946 4.766-12.243 5.545-18.671 1.898-13.284-1.11-25.824-5.667-37.884-6.336-16-13.188-31.762-19.783-47.527-6.655-15.501-11.891-31.486-15.655-47.798-1.874-9.366-3.1-18.837-3.671-28.36-.831-17.171 1.378-34.398 6.544-51.032 6.847-22.8 17.708-44.514 32.164-64.305 11.174-15.495 24.635-29.562 40.001-41.804.519-.47 1.041-1.406 1.56-1.877"/><path d="M8.78518 367.431c2.33552-2.116 4.92882-4.235 7.26432-6.352 16.6029-14.353 33.2058-28.706 50.0634-42.596 12.1883-9.889 25.1453-19.088 37.5881-28.514 14.626-11.252 28.17-23.604 40.483-36.921 8.314-8.922 16.37-17.841 24.683-26.763 9.433-10.416 20.96-19.136 33.959-25.688 6.404-3.14 13.168-5.624 20.164-7.404 8.164-1.865 16.442-3.264 24.784-4.189 7.485-1.001 14.969-1.77 22.45-2.306 5.419-.516 10.576-.564 15.994-.848 3.354-.264 6.45-.526 9.804-.79 5.418-.516 11.097-1.268 16.517-2.017 4.129-.504 8.515-.778 12.646-1.515 4.904-.744 10.07-1.956 15.232-2.703 6.969-.996 13.939-1.993 20.906-2.756 6.968-.764 13.935-1.527 20.901-2.058 3.354-.264 6.96.4 10.57.366 8.82.191 17.444 2.179 25.23 5.815 9.181 4.021 16.705 10.538 21.531 18.65 8.416 13.42 9.602 28.304 5.111 43.707-3.045 10.276-7.902 20.068-14.384 28.996-9.115 12.886-18.742 25.311-28.113 37.967-9.075 12.439-16.28 25.892-21.423 40.001-5.521 15.18-8.727 31.268-12.703 46.899-2.837 11.815-6.624 23.441-11.33 34.786-7.865 18.46-19.579 34.396-31.291 49.867-9.109 12.188-18.218 24.144-25.018 37.939-7.845 15.667-12.602 32.236-11.181 50.377.856 11.639 3.645 23.068 8.274 33.903 6.806 15.292 16.091 29.557 27.555 42.333 11.51 13.391 23.803 25.611 35.573 38.767 13.048 14.773 26.614 29.309 38.103 45.726 10.981 15.49 20.926 31.456 27.503 49.781 5.242 13.124 7.427 27.125 6.419 41.135-1.387 13.978-6.88 25.201-16.481 33.902-10.901 10.111-23.816 13.258-37.23 14.082-4.996.046-9.987-.14-14.953-.558-6.445-.173-12.885-1.043-19.332-.983-11.863.112-23.725.223-35.592 1.032-8.505.611-16.959 1.779-25.295 3.496-14.431 2.631-28.212 7.738-40.589 15.043-8.093 4.385-14.668 10.746-18.951 18.332-2.138 3.571-3.377 7.512-3.628 11.54-.251 4.028.492 8.041 2.176 11.748 2.582 5.441 6.624 10.2 11.766 13.854 10.263 7.352 22.114 8.87 33.97 9.69 3.285.084 6.575-.182 9.804-.791 7.191-.639 14.343-1.638 21.424-2.993 16.273-4.11 32.551-8.685 48.824-12.794 6.327-1.705 12.812-2.857 19.364-3.44 5.68-.247 11.365-.145 17.017.306 6.03.597 11.824 2.368 16.982 5.193 11.564 5.711 21.041 14.932 28.959 25.796 13.284 18.03 18.81 39.159 19.422 62.429.621 21.87-1.336 43.76.834 65.39.712 8.84 1.682 17.67 3.168 26.5 2.605 15.44 6.817 30.59 12.578 45.27 3.801 9.74 7.343 19.48 11.143 29.22 1.523 3.48 3.304 6.95 4.827 10.43 18.456 37.54 50.012 119.23 46.685 156.09-3.455 38.28-30.06 129.58-28.925 144.4"/><path d="M8.39715 385.827c12.19315-10.588 24.12835-21.173 36.06365-31.758 17.9036-15.995 36.8226-29.671 55.7452-43.813 12.702-9.661 25.662-19.325 37.857-30.146 13.75-11.999 26.736-25.387 40.233-38.082 11.214-11.14 24.789-20.137 39.895-26.441 9.172-3.62 18.814-6.137 28.675-7.484 9.549-1.253 19.097-2.274 28.647-3.527 2.58-.257 4.903-.511 7.483-.768 6.192-.524 12.128-1.278 18.322-2.034 4.13-.504 8.517-1.011 12.646-1.515 5.678-.752 11.358-1.736 16.78-2.718 5.422-.981 10.841-1.498 16.261-2.247 6.654-1.258 13.376-2.175 20.132-2.749 8.621-.629 17.276-.319 25.78.922 10.979 1.729 20.677 7.329 26.967 15.573 4.567 6.469 6.767 14.095 6.295 21.819-.359 6.386-1.884 12.691-4.513 18.662-5.092 10.996-11.567 21.445-19.299 31.136-9.145 11.675-17.414 23.883-24.751 36.539-6.916 12.649-12.117 25.984-15.49 39.712-3.973 15.165-7.431 30.326-10.888 45.487-4.545 18.663-12.421 36.582-23.319 53.051-7.556 11.242-15.368 22.254-23.182 33.499-10.334 14.354-18.103 30.06-23.016 46.532-2.205 8.498-3.39 17.17-3.532 25.867.461 14.376 3.408 28.562 8.733 42.045 6.653 15.454 15.853 29.882 27.293 42.801 11.767 13.622 24.313 26.538 36.339 39.924 11.521 12.545 22.276 25.652 32.218 39.264 9.761 13.118 17.551 27.364 23.17 42.374 3.791 11.136 6.548 22.514 4.915 34.865-1.091 9.005-5.301 17.517-12.031 24.318-6.656 6.604-15.306 11.303-24.848 13.5-6.974 1.694-14.203 2.926-21.174 4.155-6.195.989-12.649 1.981-18.843 2.737-4.904.744-9.546.787-14.45 1.531-6.454.992-12.907 1.984-19.364 3.441-10.588 2.194-21.433 4.39-32.025 7.282-11.577 3.213-22.759 7.531-33.354 12.881-11.128 5.69-21.746 12.306-30.071 22.858-3.993 4.845-6.699 10.443-7.904 16.351-1.204 5.909-.875 11.966.963 17.695 4.538 14.853 14.532 23.836 26.348 30.474 10.074 5.535 21.591 8.632 33.459 8.996 7.823.237 15.663.008 23.47-.685 1.807-.25 3.872-.502 5.678-.752 4.905-.744 9.811-1.721 14.717-2.698l20.139-3.68c8.09-1.693 16.28-2.935 24.523-3.721 8.866-.82 17.793-.591 26.555.682 10.731 1.838 20.672 6.245 28.792 12.763 13.077 10.584 21.744 24.932 26.782 42.105 4.53 16.02 5.963 32.53 7.395 49.04.717 8.14 1.176 16.28 2.151 24.42 1.223 9.53 2.446 19.06 4.186 28.36 3.971 22.3 11.562 43.18 19.929 63.58 3.295 8.35 6.847 16.69 10.141 25.04 19.797 49.47 72.784 127.78 39.196 185.96-31.442 54.46-39.558 78.85-44.514 100.35"/><path d="M889.31 81.7618c-2.566-1.8378-5.13-3.9085-7.696-5.7463-6.671-4.825-13.342-9.6499-20.014-14.2422-5.542-4.0235-12.392-6.3236-19.552-6.5659-5.179.2198-10.272 1.3754-14.98 3.3987-8.534 3.5711-16.557 7.8357-24.837 11.87-25.698 13.3423-53.284 23.3941-81.95 29.8619-5.939 1.219-11.878 2.438-17.814 3.192-7.743 1.004-15.483 1.542-23.224 2.313-4.786.664-9.628.865-14.444.6-7.991-.39-16.234-1.709-24.223-2.332-10.686-1.157-21.206-3.241-31.416-6.2224-6.436-1.5688-12.349-4.0737-18.783-5.8753-10.55-3.1594-20.841-6.554-31.397-9.0152-6.951-1.564-13.914-1.4987-20.138 3.68-4.079 3.4376-6.597 8.1153-7.054 13.0999-1.347 8.391.92 16.051 2.93 23.712 4.021 15.091 8.818 29.709 13.097 44.797 4.221 13.984 7.141 28.281 8.728 42.742.727 6.743 1.194 13.721 1.663 20.466.224 4.885.704 10.001.41 15.124-.64 13.722-2.721 27.379-6.214 40.788-2.911 10.734-6.594 21.242-10.534 31.519-7.616 19.855-18.059 38.34-26.959 57.508-8.114 17.299-15.458 35.056-23.06 52.816-9.435 21.966-19.898 43.244-33.695 61.992-8.283 11.358-17.225 22.319-26.788 32.835-5.715 6.105-11.431 12.211-16.89 18.546-7.507 8.394-13.651 17.701-18.242 27.635-4.613 10.586-5.415 22.163-2.293 33.07 3.095 11.048 8.348 21.48 15.515 30.81 11.234 16.186 24.804 30.023 37.598 44.333 7.676 8.54 15.871 16.609 23.807 24.913 8.705 8.996 17.408 18.223 26.371 27.216 21.252 21.678 41.203 44.998 61.674 67.615 11.589 13.298 24.73 25.423 39.202 36.173 15.974 11.874 34.022 21.295 53.441 27.893 7.735 2.792 15.88 4.595 24.202 5.359 3.866.197 7.728 1.091 11.596 1.055 16.767-.218 33.157-4.995 47.026-13.707 8.189-5.057 15.678-10.989 22.299-17.665 7.645-7.793 13.965-16.562 18.747-26.01 3.586-7.33 5.734-15.148 6.349-23.101 1.397-15.374-2.373-29.536-6.916-43.691-5.878-17.016-12.734-33.732-20.539-50.08-4.061-9.271-8.38-18.54-12.44-28.045-4.549-10.191-7.679-20.871-9.319-31.798-1.589-12.515.271-25.243 5.414-37.057 6.032-14.486 14.371-27.132 22.455-40.009 10.428-16.39 21.114-32.782 32.057-48.944 5.991-8.668 12.495-16.875 18.998-25.082 13.305-16.695 29.121-31.652 46.982-44.428 8.294-6.129 17.098-11.333 25.647-16.999.799-.698 1.667-1.329 2.592-1.885"/><path d="M8.54486 403.741c8.30224-7.293 17.11874-14.357 25.42264-21.883 15.5681-13.878 31.1379-27.989 47.7279-40.48 15.5537-11.783 31.6166-22.64 47.4266-34.192 17.623-12.734 33.971-27.549 50.316-41.9 8.576-7.756 17.856-14.851 27.739-21.207 11.394-6.947 23.988-12.103 37.238-15.245 6.457-1.457 13.17-2.684 19.623-3.675 4.905-.744 10.064-1.025 14.967-1.537 5.676-.518 11.098-1.5 16.775-2.019 6.194-.756 12.642-1.05 18.835-1.573l7.741-.771c6.192-.524 12.13-1.51 18.322-2.034 3.624-.034 7.245-.302 10.836-.799 8.354-1.366 16.914-.969 25.004 1.161 5.846 1.191 10.965 4.292 14.38 8.71 5.881 7.159 5.309 15.311 2.673 23.482-3.096 8.18-7.217 16.028-12.282 23.389-8.089 12.387-15.326 25.202-21.669 38.373-4.697 10.551-8.48 21.403-11.314 32.457-2.121 8.399-3.469 16.79-5.332 25.186-2.406 12.125-4.554 24.481-7.731 36.381-5.427 19.447-14.17 38.061-25.912 55.17-8.601 13.114-17.459 26.231-25.29 39.803-13.88 24.038-19.121 51.278-14.981 77.876 2.981 17.439 9.696 34.133 19.771 49.156 10.703 15.773 22.755 30.756 36.047 44.814 15.098 16.616 30.457 32.764 43.477 51.727 9.468 12.896 16.512 27.138 20.851 42.163 2.517 8.069 2.986 16.574 1.374 24.89-1.998 9.738-7.945 18.511-16.674 24.595-8.51 5.776-18.182 9.982-28.451 12.37-10.591 2.659-21.18 5.086-31.769 7.512-9.556 2.185-19.37 4.371-28.928 6.788-10.592 2.893-21.185 5.785-31.78 9.143-13.609 4.116-26.637 9.71-38.795 16.656-11.131 6.155-21.754 13.47-29.826 24.717-4.618 6.34-7.52 13.554-8.469 21.048-.948 7.494.084 15.055 3.012 22.061 5.497 14.098 15.785 26.212 29.413 34.635 12.307 8.033 26.931 12.735 42.195 13.569 8.94.224 17.896-.015 26.822-.717 2.254-.218 4.495-.55 6.712-.994 4.904-.744 10.326-1.726 15.231-2.47 4.904-.745 10.065-1.259 14.97-2.003 6.133-1.251 12.34-2.164 18.585-2.734 11.348-.339 22.698-.911 33.766 2.011 11.548 2.956 21.82 8.93 29.534 17.178 11.777 12.221 18.372 27.991 21.604 45.181 3.238 16.5 5.44 33.47 7.901 50.43 1.974 12.78 4.464 25.56 7.729 38.1 4.967 16.74 10.877 33.23 17.707 49.41 3.292 8.58 7.1 17.15 10.651 25.73 17.807 32.13 52.951 105.22 51.063 140.53-2.36 44.14-64.2 95.7-63.157 131.35"/><path d="M9.67935 313.193c4.66775-3.768 9.33705-7.768 14.26265-11.538 14.7783-11.543 29.5535-22.621 44.3318-34.164 20.006-15.928 37.4922-34.268 51.9512-54.484 10.412-14.062 20.823-27.891 33.026-39.875 6.938-6.835 14.876-12.784 23.588-17.677 8.172-4.677 17.066-8.213 26.375-10.488 9.408-2.556 19.129-3.978 28.91-4.228 14.697.095 29.649.653 44.347.748 13.409-.126 26.821-.484 40.233-1.076 6.449-.293 12.899-.819 19.351-1.578 9.032-1.015 18.069-2.729 27.103-3.977 8.26-1.242 16.519-2.25 25.032-2.796 6.625-.253 13.254-.16 19.854.279 6.968.333 13.825 1.602 20.344 3.767 14.565 4.491 27.434 12.496 37.229 23.157 7.276 7.605 13.056 16.285 17.099 25.674 2.593 6.412 4.617 13.008 6.051 19.727 1.83 7.38 2.386 14.989 1.648 22.56-.344 5.699-1.073 11.38-2.181 17.011-3.016 14.781-9.062 28.968-17.825 41.827-9.641 14.288-19.793 28.115-29.69 42.173-9.674 13.721-17.321 28.505-22.74 43.969-5 14.476-9.229 29.411-13.973 44.119-3.404 10.884-7.79 21.512-13.114 31.776-8.199 14.855-17.97 28.977-29.174 42.167-6.763 8.442-13.779 16.188-20.028 24.859-8.461 10.82-14.584 22.962-18.041 35.778-2.647 10.347-2.985 21.033-.992 31.429 2.517 12.335 7.503 24.117 14.714 34.774 9.237 13.716 19.85 26.626 31.706 38.571 11.522 11.761 22.785 23.758 34.046 35.988 9.981 10.845 19.443 22.161 28.905 33.476 7.416 9.008 14.828 18.481 21.724 27.958 10.973 14.848 20.608 30.478 28.813 46.744 6.611 13.437 12.964 26.877 19.835 40.078 5.927 12.619 13.834 24.378 23.48 34.924 10.496 11.073 23.339 18.168 36.185 25.03 12.331 6.634 24.928 12.101 37.261 18.502 14.57 7.564 28.017 16.741 40.036 27.321 5.429 4.883 9.998 10.49 13.551 16.63 2.048 3.358 3.13 7.137 3.148 10.996.018 3.86-1.028 7.679-3.043 11.114-2.436 4.343-5.406 8.431-8.852 12.185-7.832 8.097-16.815 15.227-26.708 21.197-17.214 10.27-36.319 17.63-56.364 21.71-11.761 2.18-23.271 5.41-34.363 9.63-14.035 5.99-24.958 16.73-30.377 29.84-5.234 10.99-6.606 22.87-6.948 34.98-.099 7.02.456 14.02 1.66 20.93 3.024 17.06 7.652 33.84 13.833 50.14 2.281 5.8 4.302 11.83 6.323 17.87 14 36.13 42.046 114.8 48.274 138.87 13.156 50.86 1.388 174.59 2.414 196.06"/><path d="M9.02928 334.147c.25949-.235.77686-.473 1.03632-.708 10.3751-8.709 20.7533-17.883 31.3846-26.362 13.742-10.835 27.4824-21.437 41.2228-32.039 18.083-14.465 34.136-30.877 47.786-48.859 8.548-11.652 17.838-22.853 27.825-33.543 10.689-11.352 24.069-20.393 39.121-26.434 13.79-4.881 28.387-7.539 43.117-7.852 26.566-.948 52.859.435 79.178-2.139 4.388-.507 8.773-.781 13.162-1.52 5.678-.752 11.102-1.966 16.78-2.717 5.678-.752 11.612-1.273 17.549-2.027 6.926-1.031 13.903-1.718 20.901-2.058 7.156-.144 14.307.178 21.395.963 6.63.523 13.082 2.118 19.049 4.709 11.971 4.674 22.322 12.12 30.02 21.596 16.109 19.632 20.848 42.629 14.995 68.518-3.084 12.976-8.67 25.398-16.5 36.695-9.637 13.822-19.785 26.951-29.42 40.541-12.067 16.538-21.079 34.706-26.676 53.781-4.23 14.935-8.46 29.87-13.203 44.577-4.557 14.988-11.52 29.326-20.667 42.553-10.414 14.295-21.6 28.364-32.27 42.429-8.306 10.574-15.061 22.062-20.093 34.169-5.288 13.488-6.893 27.879-4.675 41.937 1.821 10.936 5.578 21.509 11.128 31.316 10.949 19.913 26.052 35.83 40.898 51.75 9.728 10.15 19.716 20.065 29.184 30.449 7.422 8.077 14.326 16.39 21.231 24.704 6.393 7.621 12.271 15.246 18.147 23.104 15.493 20.424 27.991 42.599 37.189 65.983 5.067 12.986 8.58 26.918 12.353 40.614 3.521 12.768 6.266 26.008 12.113 38.056 4.301 9.479 11.153 17.81 19.944 24.251 10.522 7.349 22.1 10.964 33.935 14.809 13.379 4.297 26.5 8.596 38.569 15.931 7.489 4.071 13.805 9.668 18.452 16.352 6.379 9.715 6.574 18.79.317 28.624-3.711 5.706-8.874 10.545-15.054 14.11-12.169 7.09-25.084 10.24-38.251 12.46-8.776 1.24-17.55 2.26-26.073 4.2-11.262 2.43-21.267 8.38-28.223 16.79-7.222 9.01-12.459 19.18-15.422 29.93-2.557 7.91-4.085 16.05-4.553 24.25-.326 9.78-.909 19.56-.204 29.33 1.004 11.82 3.342 23.49 6.978 34.84 5.554 17.17 11.626 33.88 17.697 50.81 13.543 31.52 40.502 101.6 46.407 128.46 12.956 58.95-14.854 151.04-10.218 189.52"/><path d="M889.056 118.313c-1.744-.927-3.546-1.765-5.398-2.509-6.687-2.497-13.632-4.992-20.322-7.024-8.669-2.857-17.52-5.261-26.51-7.199-6.006-1.101-12.154-1.513-18.299-1.225-9.613.874-19.177 2.207-28.651 3.992-13.943 2.691-27.889 5.848-41.834 8.772-10.588 2.194-21.435 4.622-32.022 6.816-4.907.977-10.067 1.492-14.972 2.236-6.711.994-13.165 1.985-19.875 2.746-2.838.26-5.678.752-8.256.776-13.67.361-27.597.724-41.266 1.085-5.931.056-12.114-.817-18.048-.296-7.482.536-14.704.836-21.944 3.697-9.827 4.049-15.294 11.548-16.147 22.96-.564 6.988-.871 13.973-.662 20.953.21 6.981 1.451 13.951 1.918 20.929.478 5.349.441 10.702 1.178 16.048 1.153 13.224 1.405 26.513.754 39.792-.311 8.724-1.146 17.433-2.502 26.091-2.08 13.496-5.364 26.836-9.818 39.89-4.214 12.608-8.943 25.221-13.413 37.598-5.254 14.014-10.765 27.797-16.018 41.578-4.463 11.447-8.927 22.893-13.132 34.336-9.516 25.043-23.439 48.596-41.227 69.744-5.721 6.804-11.442 13.839-17.419 20.412-8.575 9.39-17.662 18.32-25.979 27.708-7.787 8.259-14.037 17.596-18.5 27.637-2.8 6.149-4.078 12.755-3.745 19.352.535 6.096 1.879 12.1 4.002 17.884 4.723 12.02 11.519 23.265 20.139 33.326 6.903 8.546 13.804 17.326 21.227 25.169 10.494 11.306 21.249 22.144 32.004 32.982 7.169 7.381 14.339 14.529 21.509 21.677 10.755 10.838 21.51 21.676 32.263 32.746 3.843 3.688 7.166 7.846 11.008 11.534 15.872 16.609 31.488 32.987 49.964 45.847 15.395 11.027 32.096 19.715 50.117 23.968 5.921 1.341 12.105 1.981 18.03 2.856 9.601 1.028 19.375-.185 28.389-3.524 8.361-3.051 15.948-7.642 22.27-13.476 7.273-6.441 12.954-14.192 16.661-22.732 4.711-10.932 6.387-22.697 4.88-34.258-1.862-17.315-7.16-34.136-15.642-49.66-9.929-18.294-20.636-36.115-31.084-53.938-5.401-8.839-9.578-18.257-12.44-28.045-1.571-5.779-2.48-11.697-2.714-17.663-.274-11.001 2.837-21.906 8.987-31.504 5.933-8.987 13.001-17.334 21.059-24.869 13.714-13.306 26.637-27.256 38.712-41.791 10.662-12.901 20.559-26.958 30.965-40.089 13.005-16.181 26.522-31.669 42.083-44.616 10.135-8.58 20.965-16.462 32.397-23.578 8.028-4.963 16.311-9.463 24.339-14.425.755-.568 1.451-1.198 2.076-1.882M8.93377 421.883c.2595-.235.77686-.473 1.03636-.708 15.55527-12.016 29.83247-25.648 44.62377-39.053 15.8386-14.271 32.6396-27.644 50.3031-40.038 17.362-12.266 34.723-24.299 52.086-36.797 17.364-12.498 33.453-27.079 51.324-38.418 9.509-6.257 19.972-11.218 31.046-14.721 8.549-2.989 17.504-4.876 26.599-5.603 9.804-.79 19.352-1.81 29.153-2.135 5.866-.006 11.721.328 17.527.999 6.55.34 12.982 1.615 19.056 3.778 11.572 4.547 16.149 13.813 13.217 27.572-2.128 9.33-4.256 18.66-6.64 27.759-5.292 19.367-8.524 39.18-11.756 58.994-1.617 10.023-2.976 20.044-5.108 30.072-2.448 12.859-6.694 25.413-12.637 37.357-5.224 9.591-10.19 19.18-15.928 28.544-9.652 15.917-19.557 31.138-26.641 48.66-5.626 13.728-8.859 28.128-9.579 42.682-.366 8.415.18 16.828 1.63 25.12 2.646 15.734 8.114 30.932 16.19 45.001 8.658 15.745 19.909 29.371 31.162 42.765 4.603 5.542 9.984 10.379 14.587 15.922 7.417 8.774 14.576 17.552 21.993 26.326 8.989 10.328 16.45 21.678 22.199 33.772 5.338 11.122 9.124 22.956 7.742 36.236-.889 7.796-4.355 15.209-9.947 21.272-6.349 6.63-14.344 11.814-23.312 15.114-15.774 6.432-32.306 10.544-48.585 15.351-18.603 5.295-36.953 11.286-55.304 17.509-15.166 5.091-29.594 11.873-42.945 20.186-10.376 6.077-19.366 13.91-26.463 23.057-4.583 5.721-7.782 12.235-9.386 19.111-1.604 6.877-1.575 13.958.084 20.775 2.744 11.345 8.117 22.001 15.77 31.272 9.828 12.821 22.922 23.307 38.208 30.596 11.92 5.566 25.117 8.624 38.617 8.948 5.672.18 11.608-.575 17.541-.863 4.903-.511 10.062-.792 15.225-1.539 6.711-.994 13.168-2.451 19.879-3.445 7.261-1.264 14.583-2.187 21.937-2.766 11.349-.339 22.698-.911 33.765 2.244 15.442 4.277 27.755 13.469 36.674 28.749 7.646 12.96 11.41 27.82 14.401 42.69 3.239 16.26 6.219 32.76 9.458 49.02 3.737 18.82 10.578 36.21 17.42 53.6 4.562 11.36 9.642 22.48 14.722 33.61.509.92 1.278 1.62 1.787 2.54 19.474 33.03 56.869 105.64 50.663 131.89-7.758 32.82-80.233 97.63-79.45 137.61"/><path d="M888.834 151.588c-.052-.316-.137-.627-.252-.928-12.879-1.974-24.97-6.05-37.324-9.425-10.038-2.699-19.818-5.4-29.86-7.401-6.279-1.111-12.656-1.752-19.069-1.916-4.349-.539-8.748-.731-13.147-.575-7.482.536-14.707 1.302-22.19 2.07-4.387.507-8.773.781-13.162 1.52-4.904.744-9.809 1.489-14.715 2.466-5.938.986-11.875 1.973-17.815 3.193-4.131.736-8.263 1.706-12.394 2.443-5.938.987-11.875 1.974-17.815 3.193-6.971 1.229-13.943 2.691-21.173 4.155-7.231 1.464-14.2 2.461-21.174 4.155-9.04 2.18-17.826 4.822-25.86 10.716-8.199 6.574-13.567 15.541-15.132 25.278-1.603 7.459-2.432 15.025-2.478 22.599-.062 8.845-.383 17.925-.702 26.772-.319 8.848-.898 17.93-1.991 26.784-1.996 18.771-5.574 37.4-10.702 55.726-4.496 16.101-9.507 32.208-13.747 48.539-4.236 15.866-7.7 31.958-11.678 47.822-3.443 13.066-6.627 25.896-10.84 38.504-4.272 12.172-10.616 23.697-18.804 34.157-11.189 14.535-24.678 26.066-37.654 38.057-9.084 8.464-17.912 17.158-26.996 25.622-8.17 7.705-14.858 16.582-19.78 26.253-4.169 8.358-5.663 17.567-4.311 26.573 1.467 11.623 6.558 21.118 12.168 30.142 8.433 13.633 18.551 26.341 30.164 37.887 13.827 14.067 28.431 27.663 42.519 41.262 13.064 12.446 25.872 24.661 38.938 36.874 11.736 11.488 24.14 22.403 37.163 32.7 10.2 8.089 21.715 14.729 34.158 19.696 8.894 3.476 18.586 5.057 28.333 4.622 13.935-1.528 25.838-7.458 32.392-22.88 2.088-5.179 3.257-10.61 3.464-16.092.072-11.065-2.125-22.013-6.48-32.29-6.079-15.77-15.27-28.95-23.943-42.6-6.888-10.642-13.776-21.283-19.886-32.63-6.785-12.501-11.472-25.867-13.907-39.669-2.245-11.811-1.633-23.963 1.795-35.626 3.282-10.57 9.37-20.297 17.732-28.328 9.236-8.15 19.304-15.493 30.064-21.927 15.024-9.684 29.791-19.597 42.519-32.983 10.389-10.804 20.524-22.07 30.659-33.337 6.757-7.511 13.261-15.718 20.017-23.229 13.237-14.978 28.493-28.415 45.404-39.992 10.622-7.082 21.499-13.933 32.376-20.552 7.249-4.257 14.752-7.819 22-11.843.755-.568 1.45-1.198 2.076-1.882M7.98231 445.646c8.29579-6.362 16.58999-12.491 24.37329-19.313 12.9716-11.294 25.6902-23.283 38.6634-34.809 21.5383-19.52 45.371-35.337 69.458-50.458 12.95-8.267 25.904-17.001 38.856-25.501 8.807-5.668 17.357-11.567 26.161-16.769 8.66-5.37 18.056-9.685 27.938-12.831 6.3-2.003 12.786-3.466 19.37-4.371 6.474-.835 13.046-.501 19.333.982 5.271 1.024 10.178 3.161 14.324 6.236 4.146 3.075 7.412 7.002 9.534 11.462 3.858 8.444 5.81 17.523 5.745 26.712.184 10.704-.149 21.413-.739 32.125-.563 6.754-1.385 13.744-1.948 20.499-1.022 8.714-2.719 17.363-5.079 25.882-4.502 17.033-12.086 32.232-20.184 47.204-8.881 16.375-18.016 32.287-24.072 50.265-4.969 14.472-7.762 29.451-8.304 44.532-.244 4.352-.102 8.709.426 13.029.478 5.348.957 10.697 1.951 16.041 3.22 17.213 9.458 33.809 18.482 49.168 9.278 15.351 19.957 29.964 31.929 43.689 5.882 6.927 12.023 13.851 17.904 21.011 6.392 7.854 13.042 15.704 18.915 24.028 8.682 12.254 15.812 25.221 17.763 41.261.499 5.158-.062 10.371-1.654 15.377-2.632 7.93-7.905 14.971-15.096 20.157-8.729 6.406-18.515 11.527-28.986 15.168-12.928 5.008-26.111 9.554-39.292 13.867-20.675 6.71-41.352 13.654-61.525 22.222-14.001 5.599-27.284 12.594-39.598 20.853-10.883 7.55-21.512 15.795-29.073 27.736-5.661 8.948-8.079 19.233-6.909 29.39 1.307 9.355 4.476 18.392 9.355 26.678 8.228 14.22 18.543 27.352 30.672 39.046 10.728 10.973 23.593 20.076 37.977 26.876 8.33 3.58 17.293 5.86 26.513 6.73 5.578.3 11.179.25 16.762-.16 7.425-.34 14.832-1.03 22.19-2.07 9.034-1.24 18.071-2.96 27.108-4.67 9.616-1.76 19.377-2.71 29.158-2.84 9.141-.19 18.189 1.39 26.528 4.64 11.828 4.78 21.05 13.54 27.671 25.58 7.13 12.96 10.64 27.36 13.892 41.76 2.751 12.31 5.242 24.86 8.509 37.16 4.722 17.38 10.985 34.36 18.728 50.8 5.079 11.35 10.158 22.48 15.238 33.6 15.945 25.46 47.76 81.15 52.863 98.69 13.559 46.61-57.482 80.18-86.359 141.82"/><path d="M8.14752 349.056c5.44938-4.938 11.15668-9.879 16.60458-14.585 19.7169-17.175 40.1961-32.728 60.9332-48.284 15.7497-12.043 30.1797-25.43 43.0827-39.97 5.717-6.338 10.665-13.366 16.382-19.704 6.501-7.741 13.517-15.487 20.53-22.768 9.466-9.812 21.13-17.701 34.198-23.13 7.478-3.149 15.393-5.338 23.511-6.504 7.227-.999 14.196-1.996 21.164-2.759 6.45-.526 12.639-.584 19.088-.878 13.928-.596 27.599-1.189 41.528-1.785 5.353-.274 10.693-.79 15.998-1.547 5.678-.751 11.617-1.971 17.296-2.723 7.227-.998 14.194-1.762 21.421-2.76 7.743-1.004 15.488-2.24 23.227-2.779 8.567-.503 17.151.043 25.517 1.623 13.58 2.039 26.009 7.957 35.468 16.89 17.677 16.592 23.201 37.953 18.127 63.136-2.986 13.151-8.766 25.694-17.018 36.933-8.855 12.651-18.481 24.844-27.593 37.265-12.67 17.122-22.045 36.021-27.722 55.885-4.753 16.104-8.736 32.666-13.748 48.773-4.67 15.03-11.811 29.376-21.182 42.557-8.594 12.183-17.959 23.908-27.067 35.864-9.014 11.539-16.379 24.043-21.919 37.211-5.25 13.897-6.94 28.638-4.942 43.104 1.872 13.052 6.418 25.636 13.409 37.113 10.447 18.056 24.27 32.589 37.576 47.359 10.494 11.306 21.505 22.375 31.999 33.681 6.656 6.92 12.792 14.542 18.929 21.933 4.347 5.312 8.434 10.859 12.521 16.407 10.336 13.904 19.293 28.617 26.77 43.969 4.222 8.679 7.61 17.68 10.127 26.904 2.904 9.543 4.652 19.359 5.212 29.276.453 8.989.39 18.001-.188 27-.842 9.783-3.231 19.581-4.072 29.364-1.19 12.723 1.299 25.451 7.221 36.938 5.344 10.191 10.688 20.381 16.034 30.339 6.189 11.576 7.824 24.766 4.639 37.428-4.526 20.528-11.111 40.368-14.093 61.348-1.09 8.38-2.178 16.54-2.752 24.92-.737 12.54-.046 25.09 2.06 37.46 2.517 14.73 6.295 29.24 11.302 43.41 4.806 13.46 9.871 26.68 14.677 40.13 14.686 37.57 40.626 101.86 44.416 140.52 6.82 69.57-25.395 143.46-21.486 165.11M888.312 188.842c-1.497-.629-3.045-1.159-4.631-1.586-18.291-2.388-35.522-8.976-53.02-14.165-9.263-2.939-18.785-5.643-28.31-7.881-7.04-1.336-14.187-2.202-21.385-2.592-5.645-.528-11.33-.708-17.015-.539-6.964.298-13.934 1.295-20.901 2.058-14.43 1.778-28.631 4.955-42.355 9.474-12.146 3.838-24.297 8.375-34.926 16.388-10.092 7.79-17.286 18.191-20.577 29.751-2.664 9.51-4.541 19.174-5.617 28.912-2.171 15.614-4.343 31.229-7.546 46.852-3.469 16.79-8.224 33.127-12.208 49.921-4.331 15.761-7.628 31.724-9.874 47.805-.827 7.688-1.91 15.146-2.479 22.832-.566 7.221-1.391 14.676-1.184 21.889-.029 10.578.586 21.139 1.843 31.636.763 8.129 3.062 16.058 6.799 23.443 1.815 3.305 4.405 6.207 7.593 8.506 3.188 2.3 6.899 3.944 10.881 4.82 7.723 1.79 15.466.786 23.467-.22 11.93-1.769 23.52-5.175 34.365-10.098 13.156-5.961 25.083-13.952 35.234-23.605 8.824-8.228 17.139-17.383 25.711-26.308 13.508-14.324 26.762-29.111 41.805-41.587 10.177-8.491 21.097-16.223 32.651-23.115 8.802-4.97 17.349-10.403 26.149-15.141 10.354-5.683 20.965-11.136 31.577-16.821 1.155-.739 2.201-1.609 3.112-2.589M886.529 518.65c-.365.927-.893 1.796-1.565 2.575-8.968 8.665-16.743 18.274-23.148 28.611-10.196 15.396-17.625 32.123-22.005 49.548-1.762 7.704-3.021 15.487-3.772 23.309-.557 5.824-.083 11.871-.123 17.69.024 7.812.833 15.595 2.417 23.252 4.202 20.044 11.08 39.516 20.483 57.993 6.861 14.598 14.756 28.722 20.065 44.033 4.045 11.599 6.799 23.443 5.161 36.492-1.068 8.524-3.834 16.83-8.164 24.514-5.628 10.032-13.204 19.092-22.362 26.743-10.634 8.944-21.267 17.655-32.156 26.136-18.668 14.605-37.59 28.747-56.001 43.582-12.189 9.89-23.61 20.703-35.029 31.283-7.053 6.31-12.939 13.597-17.427 21.576-3.652 5.669-5.316 12.181-4.771 18.664.712 8.839 4.265 16.949 7.303 25.069 3.546 9.28 6.316 18.79 9.085 28.54 2.591 10.28 2.867 20.96.813 31.41-2.162 10.73-7.388 20.81-15.159 29.24-8.102 8.69-16.954 16.79-26.471 24.22-13.921 11.06-26.307 23.6-36.876 37.35-9.485 13.02-17.202 27-22.981 41.64-7.571 17.68-19.894 49.43-18.274 77.96 1.621 28.53 10.451 49.41 44.817 133.28 34.367 83.87 25.169 137.69 25.4 179.5"/><path d="M888.289 228.164c-.256-.231-.252-.929-.51-.927-9.781-2.468-19.564-4.704-29.085-7.64-15.437-4.976-30.352-10.887-45.787-16.095-9.299-3.221-18.845-5.854-28.568-7.878-8.965-1.655-18.183-2.039-27.325-1.14-9.407.832-18.64 2.959-27.378 6.307-10.254 3.766-19.402 9.678-26.679 17.241-6.636 7.091-11.451 15.407-14.094 24.337-3.166 10.27-5.816 20.536-8.208 30.8-3.98 16.096-8.732 31.967-14.254 47.379-6.053 17.513-12.621 35.03-16.875 53.457-1.827 8.628-3.007 17.348-3.534 26.1-.495 8.65.05 17.307 1.626 25.819 1.742 9.061 5.296 17.174 11.958 23.162 4.262 3.999 10.023 6.428 16.198 6.831 13.146.807 24.529-4.653 35.414-12.435 9.202-6.837 17.634-14.479 25.171-22.812 15.842-16.208 31.684-32.416 49.569-45.617 12.451-8.903 25.609-16.961 39.362-24.109 16.047-8.529 32.094-17.058 48.144-26.053 4.917-2.606 9.326-6.139 13.988-9.209M582.459 1547.48c3.189-86.91 4.589-152.11-6.739-196.32-10.317-40.26-33.104-94.54-51.154-138.57-.255-.46-.767-.92-1.022-1.38-4.544-13.93-9.607-27.61-13.634-41.77-3.164-10.58-4.65-21.54-4.415-32.54.119-4.59.495-9.18 1.127-13.74.838-9.38 4.575-18.39 10.783-26.02 6.208-7.63 14.638-13.57 24.328-17.14 13.189-5.47 26.875-8.16 40.566-11.78 15.847-4.24 31.318-9.6 46.269-16.03 9.569-4.05 19.396-8.1 29.22-11.68 6.255-2.56 13.241-3.2 19.868-1.81 6.684 1.57 12.445 5.33 16.171 10.55 5.189 6.44 7.935 14.24 7.839 22.27-.223 9.65-3.609 19.08-9.729 27.09-7.812 11.01-17.67 19.48-26.76 28.88-8.525 8.5-16.508 17.44-23.91 26.75-13.271 17.35-22.95 37.23-30.831 58.01-7.609 14.04-23.254 48.74-10.494 96.96 37.743 142.62 77.16 160.9 67.354 276.06"/><path d="M599.241 1557.17c-.759-45.19 3.41-153.17-10.801-200.9-14.211-47.74-52.667-144.94-53.027-145.64-5.664-12.54-10.145-25.5-13.398-38.75-3.342-12.6-4.124-25.68-2.31-38.61 1.337-9.47 5.906-18.38 13.071-25.49 8.027-7.5 18.142-12.91 29.247-15.64 9.559-2.65 19.371-4.6 29.185-6.79 6.199-1.45 12.656-2.91 18.853-4.13 10.33-2.19 20.403-4.61 30.728-6.11 5.179-1.04 10.559-.69 15.464 1.02 7.712 3.42 9.221 8.99 7.625 15.99-1.646 6.19-4.575 12.06-8.63 17.3-4.688 6.8-9.635 13.59-14.582 20.39-7.738 10.83-14.542 22.18-20.349 33.94-7.59 16.13-14.666 32.49-21.998 48.61-6.61 13.24-18.369 46.22-12.524 72.27 26.147 116.53 31.884 216.06 52.043 294.82M286.175 934.6c4.392-1.205 8.784-2.409 12.919-3.844 4.643-1.383 8.775-3.925 11.913-7.327 1.712-1.847 2.959-4.004 3.654-6.318.237-1.54-.02-3.101-.742-4.498-.722-1.396-1.878-2.569-3.329-3.378-2.347-1.549-5.081-2.561-7.973-2.95-11.031-1.729-22.444.553-31.761 6.349-3.333 1.97-5.887 4.852-7.277 8.214-.528 1.68-.54 3.45-.036 5.12.639 2.007 1.89 3.803 3.612 5.186 1.722 1.382 3.846 2.295 6.132 2.637 4.123.426 8.507.385 12.631.579"/><path d="M569.234 1203.79c6.979-2.39 11.149-8.71 15.063-15.26 6.794-11.48 11.742-23.76 14.693-36.45 1.549-5.25 1.938-10.72 1.143-16.07-.464-3.6-2.172-6.97-4.883-9.61-2.711-2.65-6.289-4.45-10.228-5.14-9.396-1.32-19.052.78-26.858 5.83-4.508 2.75-8.251 6.41-10.924 10.68-2.674 4.27-4.202 9.04-4.461 13.91-1.142 8.53-.392 17.15 2.208 25.35 2.599 8.21 6.996 15.84 12.932 22.45 1.171 1.54 2.808 2.74 4.719 3.46 1.912.73 4.021.94 6.082.63M610.734 723.718c7.761-3.564 8.314-8.922 7.076-16.358-2.229-13.246-6.783-25.771-10.562-38.536-3.779-12.765-7.046-25.07-10.567-37.838-4.019-15.323-7.523-30.652-12.058-45.97-2.769-9.749-7.868-18.08-16.605-22.42-5.301-2.67-11.549-3.441-17.52-2.163-4.311.692-8.549 1.744-12.657 3.144-11.827 3.932-22.545 10.243-31.329 18.448-5.227 4.792-9.383 10.444-12.235 16.639-4.183 9.581-4.53 20.128-.981 29.8 3.499 9.614 8.752 18.609 15.544 26.62 16.109 19.632 35.345 34.58 55.622 48.121 10.398 7.292 21.791 13.363 33.912 18.069 3.7 1.533 7.748 2.29 11.846 2.216"/></g><defs><clipPath id="clip0_2426_11362"><path fill="#fff" d="M0 .537842h795v1603H0z"/></clipPath></defs></svg>