<svg width="91" height="46" viewBox="0 0 91 46" fill="none" xmlns="http://www.w3.org/2000/svg">
<g clip-path="url(#clip0_16_483)">
<path d="M51.0346 0.336956C51.0346 0.548447 51.7749 0.971439 52.6209 1.28868C54.0484 1.76454 57.0622 5.2542 57.4852 6.94615C57.591 7.26339 55.053 8.74385 51.8278 10.1714C46.7519 12.4979 45.6944 12.8151 43.791 12.5507C41.2002 12.1806 41.0415 12.5507 42.7335 14.7186C43.791 16.0933 43.8967 16.8335 43.8967 21.8565C43.8967 26.7209 43.7381 27.6726 42.8392 28.6772C42.1519 29.4703 41.4645 29.6818 40.6186 29.4703C39.9312 29.3117 39.4025 29.3645 39.4025 29.5232C39.4025 30.4749 40.6714 33.9645 40.9887 33.9645C41.7818 33.9645 45.2186 29.7347 46.0645 27.7783L46.9105 25.7691L47.6507 27.8841C48.9197 31.3737 49.4484 31.5852 52.4094 29.8933C53.8369 29.0473 55.7404 27.9898 56.5864 27.5668C58.1197 26.8266 58.1726 26.6151 58.3312 22.9668C58.4898 19.5301 58.3841 19.1599 57.4852 19.1599C56.9036 19.1599 54.8415 20.2174 52.9381 21.5393C50.9818 22.8611 49.0783 23.9186 48.7611 23.9186C47.2278 23.8657 46.7519 23.0197 47.122 21.0634C47.4392 19.1599 47.4921 19.1071 49.3956 19.4243C51.5105 19.7944 59.0186 17.6266 59.3887 16.5691C59.7059 15.6174 58.4369 14.4013 57.2209 14.4013C56.5864 14.4013 55.2117 15.0358 54.1542 15.776C53.0438 16.5163 51.1933 17.2565 50.0301 17.4151C48.1266 17.6795 47.8622 17.5737 47.8622 16.622C47.8622 16.0404 47.7565 15.1944 47.5979 14.8243C47.3864 14.2427 47.7565 14.137 49.1841 14.2956C50.453 14.4542 52.0921 14.0841 54.1013 13.1852C56.6771 12.0465 58.7013 11.2289 58.7013 11.2289C58.7013 11.2289 59.7764 13.2434 60.4461 15.4588C61.1335 17.6266 62.1381 20.5875 62.7197 22.0151C63.8829 24.976 63.6714 25.4519 60.6048 27.1438L58.7013 28.2013L60.8163 27.8841C61.9795 27.7255 64.5174 27.1438 64.5174 27.1438C64.5174 27.1438 65.6806 28.5186 68.2186 33.3829C71.7082 39.9921 74.5634 43.6404 77.3128 44.9622C79.9565 46.2312 80.3795 45.4381 79.322 41.0496C78.1588 36.3438 78.0002 36.1324 77.1542 38.1415C76.4668 39.7806 76.414 39.7806 75.1979 38.9875C74.5105 38.5645 73.2415 37.1898 72.3427 35.9209C70.5979 33.4887 66.8967 26.4036 66.8967 25.5048C66.8967 25.5048 67.9542 23.6013 69.276 21.9622C71.814 18.8427 72.2898 16.8864 70.6507 15.9875C68.853 15.0358 68.1128 15.353 68.3243 16.8864C68.5887 18.4197 66.5266 22.1737 65.5749 21.9622C64.8356 21.8278 61.5305 11.2627 62.1381 10.1714C62.9312 9.76844 64.2556 9.45983 65.0461 9.11396C67.4254 8.00362 66.5795 7.36914 63.7772 6.68178C61.9266 6.25879 61.2921 5.78293 60.5519 4.30247C59.0186 1.34155 57.6967 0.495575 54.2071 0.231209C52.4622 0.125462 51.0346 0.178333 51.0346 0.336956ZM54.6829 25.2933C53.7312 26.4565 51.0875 27.7255 50.5059 27.3553C49.7657 26.8795 49.8714 25.5048 50.6645 25.5048C51.0346 25.5048 52.145 25.0818 53.1496 24.5002C55.053 23.4956 55.8461 23.8657 54.6829 25.2933Z" fill="#D2D2D2"/>
<path d="M76.9426 3.56226C76.9426 5.14847 76.9426 3.66801 76.9426 17.1508V30.7922C81.0139 34.4933 86.6714 34.4933 90.161 30.6864V17.0979C90.161 3.66801 90.161 4.61973 90.161 3.56226C86.9443 0.569996 80.0229 0.738663 76.9426 3.56226ZM83.5518 4.8841C83.3932 5.46571 83.4461 5.94157 83.6576 5.94157C83.9219 5.94157 84.6093 6.31169 85.1909 6.73467C86.1426 7.47491 86.0898 7.47491 84.715 6.99904C82.653 6.25881 82.4944 6.31169 81.807 7.63353C81.3311 8.63812 81.2254 8.691 81.2254 7.89789C81.1725 6.78755 82.1242 4.77835 82.9702 4.24962C83.8691 3.66801 83.9219 3.72088 83.5518 4.8841ZM84.9265 10.0128C85.4553 9.85422 85.9311 9.90709 85.9311 10.1715C85.9311 10.7002 84.5564 11.2289 83.2346 11.2289C82.3886 11.2289 82.2829 10.9646 82.5472 9.74847C83.076 7.52778 83.5518 7.10479 83.7104 8.74387C83.8691 9.95996 84.1334 10.2243 84.9265 10.0128ZM83.1817 14.0841C82.653 14.4542 82.23 15.3002 82.23 15.9347C82.23 16.5163 82.0185 17.045 81.7012 17.045C81.4369 17.045 81.1725 16.199 81.1725 15.1944C81.1725 13.5025 81.3311 13.3439 82.653 13.3439C83.9219 13.3967 83.9748 13.4496 83.1817 14.0841ZM83.8162 15.9875C83.3403 16.8864 83.3932 17.045 84.4507 17.045C85.6139 17.0979 85.6139 17.0979 84.6622 17.8381C83.6047 18.6312 81.4369 18.9485 81.807 18.2082C83.076 15.6703 83.5518 14.9301 83.9219 14.9301C84.1863 14.9301 84.1334 15.4059 83.8162 15.9875ZM86.6714 19.6887C85.8783 20.4818 81.1725 21.0105 81.1725 20.3232C81.1725 19.6887 82.5472 19.3186 85.4024 19.2128C86.5656 19.16 87.0415 19.3186 86.6714 19.6887ZM82.9702 23.1784C83.7633 23.4956 83.7633 23.6013 82.9173 24.2358C82.0185 24.9232 82.0185 24.9232 82.9173 24.9761C84.0277 24.9761 84.1334 26.0335 83.0231 26.0335C82.6001 26.0335 82.23 26.2979 82.23 26.5623C82.23 26.8795 82.8645 26.9853 83.7104 26.8266L85.138 26.5094L83.6576 27.3554C81.807 28.4128 81.4898 28.1485 81.4898 25.7692C81.4898 24.7646 81.2783 23.9186 81.0139 23.9186C80.8024 23.9186 80.7495 23.6542 80.9081 23.3898C81.2783 22.7554 81.807 22.7554 82.9702 23.1784ZM85.9311 28.1485C85.9311 28.783 83.6576 29.7347 82.1242 29.7347C80.6966 29.7347 81.2783 29.1002 83.4461 28.3071C85.6139 27.514 85.9311 27.514 85.9311 28.1485Z" fill="#D2D2D2"/>
<path d="M66.1036 1.55298C63.6186 2.08172 63.5128 2.18746 64.7818 3.56218C66.4737 5.35988 69.699 5.46563 69.4347 3.77367C69.2232 2.39896 67.5312 1.28861 66.1036 1.55298Z" fill="#D2D2D2"/>
<path d="M0.540427 7.47496C0.328933 7.89794 1.06916 9.00829 2.54962 10.4359C4.92893 12.7094 10.1634 15.1416 15.768 16.5692C18.1473 17.1508 18.3588 17.0979 21.1611 15.406C22.7473 14.4543 24.0163 13.3968 23.9105 13.0796C23.1703 10.9117 1.65077 5.73013 0.540427 7.47496Z" fill="#D2D2D2"/>
<path d="M31.8415 15.5646C27.9818 20.7462 27.2415 25.0818 29.8323 27.6726C30.6783 28.5186 31.7887 29.2059 32.2645 29.2059C33.6392 29.2059 32.3703 30.5278 29.0392 32.6956C20.8438 37.9301 18.7289 42.4243 24.4921 42.4243C28.5105 42.4243 42.2576 38.776 41.4116 37.9301C41.3059 37.8243 39.7726 37.9301 38.0277 38.1944C33.2162 38.9875 27.2415 38.8818 27.2415 37.9829C27.2415 37.6128 29.9381 34.6519 33.2162 31.4795L39.1909 25.7163H35.7542C32.5818 25.7691 32.2645 25.6634 31.5243 24.3944C30.8369 23.1255 30.8898 22.6496 32.1588 18.5783C32.899 16.1462 33.4277 14.0841 33.3749 13.9783C33.2691 13.8726 32.5818 14.6128 31.8415 15.5646Z" fill="#D2D2D2"/>
<path d="M5.88062 15.9876C4.29441 17.891 2.97258 21.9623 2.60246 26.0335C2.28522 29.4174 3.60706 32.114 5.77487 32.6956C7.57257 33.1186 14.6048 31.6381 17.6185 30.2105C20.1565 28.9945 26.0254 23.6013 27.1887 21.3807C27.6645 20.4289 27.2415 20.6404 25.0737 22.2795C20.0507 26.0335 10.3749 28.2542 7.36108 26.2979C5.98637 25.399 5.93349 25.2933 6.25074 21.222C6.46223 18.8956 6.83234 16.5163 7.20246 15.9347C8.10131 14.1899 7.41395 14.1899 5.88062 15.9876Z" fill="#D2D2D2"/>
<path d="M59.4944 30.7921C59.4944 31.3737 59.1772 31.8496 58.7542 31.8496C58.1197 31.8496 58.1197 32.0611 58.7542 33.3829C59.7059 35.2864 60.8691 36.291 61.6094 35.8151C62.4025 35.3393 62.2438 32.2197 61.2921 30.8979C60.2875 29.4703 59.4944 29.4174 59.4944 30.7921Z" fill="#D2D2D2"/>
<path d="M56.0576 30.7922C55.8461 31.1094 55.2645 31.2152 54.7358 31.0566C54.0484 30.8451 53.6254 31.2152 53.1496 32.3784C52.6208 33.7002 52.6208 34.1761 53.3611 35.2864C53.8369 36.0267 54.4714 36.6083 54.7886 36.6083C55.3174 36.6083 56.5335 34.1761 57.1151 31.691C57.4852 30.2634 56.745 29.6818 56.0576 30.7922Z" fill="#D2D2D2"/>
<path d="M44.1611 33.0128C44.1611 33.7531 43.8967 35.0749 43.5795 35.9737C42.945 37.8243 43.9496 40.4151 45.6944 41.3669C47.2806 42.2128 47.3335 42.0542 46.1703 39.3048C45.0071 36.5554 45.1657 33.9646 46.5404 33.9646C46.9634 33.9646 48.1266 35.2335 49.1312 36.8197C50.9818 39.6749 51.8806 40.2565 56.0576 41.0496C57.6967 41.4197 62.4553 40.7324 63.0898 40.045C63.4071 39.7278 59.653 36.0795 58.9128 36.0795C58.7542 36.0795 58.7013 36.6611 58.8599 37.4013C59.0714 38.6174 58.9657 38.7232 56.9036 38.7232C53.837 38.7232 51.6163 37.6657 49.3427 35.0749C48.2852 33.9117 46.9634 32.9071 46.4347 32.9071C45.8531 32.9071 45.1657 32.6427 44.7956 32.2726C44.3197 31.7967 44.1611 31.9554 44.1611 33.0128Z" fill="#D2D2D2"/>
</g>
<defs>
<clipPath id="clip0_16_483">
<rect width="89.885" height="46" fill="white" transform="translate(0.276123)"/>
</clipPath>
</defs>
</svg>
