<svg width="166" height="34" viewBox="0 0 166 34" fill="none" xmlns="http://www.w3.org/2000/svg">
<g clip-path="url(#clip0_16_462)">
<path d="M0.550293 14.7852V27.5699H1.07984C1.36352 27.5699 2.02545 27.3618 2.57391 27.116C4.06797 26.4162 4.14362 26.1703 4.14362 21.9529C4.14362 19.8158 4.2571 17.9435 4.38948 17.2438C4.97576 14.4636 6.92373 12.8183 9.62818 12.8183C11.8031 12.8183 13.5619 13.8774 14.3752 15.6929C14.7912 16.6386 14.8291 16.979 14.9236 21.1775C15.0182 25.3571 15.0371 25.6975 15.4153 26.1893C15.9638 26.9079 16.777 27.3618 17.8172 27.4942L18.7061 27.6266V22.4446C18.7061 16.7142 18.5548 15.5038 17.5713 13.4424C16.8716 11.9294 15.2073 10.2273 13.7889 9.56537C10.9899 8.24151 7.47218 8.43063 5.12706 10.0004C4.67317 10.3029 4.27601 10.5488 4.21927 10.5488C4.18145 10.5488 4.14362 9.16821 4.14362 7.46611C4.14362 4.78057 4.1058 4.32667 3.78429 3.79713C3.36822 3.1352 2.06327 2.30306 1.15549 2.11394L0.550293 1.98155V14.7852Z" fill="#D2D2D2"/>
<path d="M61.0696 13.7071V25.4327L61.5046 26.0758C61.9963 26.8322 63.358 27.5698 64.2279 27.5698H64.852V24.4871V21.4044L66.1002 20.3075C66.7811 19.7023 67.3485 19.2295 67.3863 19.2673C68.086 20.2319 72.6061 25.7164 72.9654 26.019C73.911 26.8701 75.3673 27.4185 76.9748 27.5131C77.788 27.5698 78.4689 27.5698 78.4689 27.5131C78.4689 27.4374 76.5776 24.9978 74.2703 22.0664L70.0907 16.752L73.9488 12.875L77.8069 8.99798L76.275 9.11146C74.4595 9.24384 73.1167 9.62209 72.2846 10.2084C71.963 10.4542 70.1475 12.0807 68.2752 13.8206L64.8709 16.9979L64.8142 10.6623C64.7575 4.57251 64.7386 4.30774 64.3603 3.79711C63.774 3.02171 62.5826 2.22739 61.7693 2.09501L61.0696 1.98153V13.7071Z" fill="#D2D2D2"/>
<path d="M27.6138 8.9602C23.4531 10.076 20.4082 14.0665 20.4082 18.3596C20.4271 21.8584 22.6399 25.4328 25.7036 26.9458C27.2734 27.7212 28.2757 27.9292 30.1669 27.9481C32.096 27.9481 33.7224 27.4753 35.33 26.4351L36.5215 25.6597L37.1456 26.3217C37.7886 27.0214 38.8287 27.5699 39.5285 27.5699H39.9257L39.85 22.1231C39.7744 17.2249 39.7176 16.5818 39.3583 15.4471C38.564 13.0263 36.6349 10.719 34.5357 9.71669C32.3986 8.67652 29.7319 8.39283 27.6138 8.9602ZM32.5877 12.6103C33.7224 13.102 35.0841 14.388 35.6893 15.5606C36.1432 16.3927 36.1999 16.7142 36.1999 18.3029C36.1999 19.7969 36.1243 20.2508 35.746 20.9884C35.1598 22.1799 34.0818 23.2768 32.8525 23.9198C31.9825 24.3737 31.6421 24.4494 30.148 24.4494C28.6729 24.4494 28.3135 24.3737 27.3679 23.9198C23.7368 22.1421 22.7722 17.3194 25.401 14.18C26.0062 13.4802 27.2544 12.7048 28.4081 12.3266C29.4483 11.9862 31.4908 12.1186 32.5877 12.6103Z" fill="#D2D2D2"/>
<path d="M48.7766 8.96023C45.5615 9.81129 42.9327 12.3077 41.9682 15.4282C41.4954 16.9412 41.4576 19.4944 41.8925 20.9695C42.6112 23.3903 44.5403 25.8111 46.6017 26.8701C48.6631 27.8914 51.3298 28.2507 53.5047 27.7401C55.4715 27.2862 58.2138 25.4517 59.0271 24.0333L59.3486 23.4659L58.4975 23.031C57.306 22.4447 56.1902 22.5771 54.7151 23.4659C53.3156 24.317 52.1241 24.6196 50.6111 24.5061C47.5284 24.2603 45.2211 21.8395 45.032 18.6811C44.9374 16.8845 45.4102 15.5039 46.6206 14.1611C47.8877 12.7427 49.2305 12.1564 51.1785 12.1564C52.6536 12.1564 52.786 12.1942 54.4314 13.0453C56.4172 14.0855 57.3817 14.1989 58.6299 13.5748C59.5377 13.102 59.4809 12.9318 57.9491 11.4188C55.5661 9.07371 51.9728 8.10918 48.7766 8.96023Z" fill="#D2D2D2"/>
<path d="M86.2229 8.94129C84.9179 9.30063 84.4073 9.54649 83.2536 10.2841L82.1945 10.946L81.5137 10.2841C80.8329 9.62214 79.6981 9.03585 79.1118 9.03585C78.8471 9.03585 78.8282 9.5654 78.8849 14.5582C78.9605 19.7213 78.9795 20.1752 79.3955 21.3288C80.4735 24.4304 82.8754 26.7188 86.0148 27.6455C87.3009 28.0238 89.7595 28.0427 91.1211 27.6644C95.5466 26.4919 98.6482 22.1421 98.27 17.6409C97.9106 13.4613 95.0171 9.98147 91.0266 8.96021C89.646 8.60087 87.4143 8.60087 86.2229 8.94129ZM91.1968 12.6859C95.0738 14.4637 96.0383 19.3998 93.1258 22.6149C92.7476 23.0498 91.9533 23.6361 91.367 23.9198C90.4214 24.3737 90.0621 24.4494 88.5869 24.4494C86.9983 24.4494 86.8091 24.4115 85.6555 23.7685C83.5184 22.596 82.4404 20.7236 82.4404 18.2272C82.4404 17.1492 82.5539 16.6575 82.9889 15.7497C83.5373 14.5961 84.7477 13.2911 85.8257 12.7427C87.3576 11.9294 89.5136 11.9105 91.1968 12.6859Z" fill="#D2D2D2"/>
<path d="M106.894 8.94129C103.452 9.86799 100.615 12.7427 99.8586 16.0334C99.5749 17.2816 99.6127 19.7591 99.9342 21.0451C100.785 24.2981 103.376 26.7566 106.932 27.6644C108.388 28.0427 111.111 28.0238 112.587 27.6455C114.308 27.2105 116.047 26.2838 117.22 25.1869L118.26 24.2224L117.315 23.7307C115.688 22.8985 115.215 22.8985 113.457 23.6929C109.863 25.3193 105.948 24.5628 104.152 21.8962C103.773 21.3288 103.395 20.6291 103.32 20.3265L103.206 19.8158H110.771H118.355L118.638 19.3998C119.017 18.8513 119.036 17.3951 118.657 15.9388C117.315 10.8136 111.906 7.59852 106.894 8.94129ZM110.922 12.3455C112.851 12.9129 114.497 14.4069 115.102 16.1469L115.329 16.7899H109.277H103.225L103.338 16.3549C103.584 15.5417 104.36 14.388 105.154 13.6883C106.743 12.232 108.899 11.7403 110.922 12.3455Z" fill="#D2D2D2"/>
<path d="M129.116 9.05471C127.338 9.28166 125.825 9.90576 124.842 10.8136C124.331 11.2674 123.953 11.4944 123.915 11.362C123.669 10.6812 122.894 9.83011 122.156 9.45187C120.492 8.61973 120.624 7.93888 120.681 17.3383C120.738 25.3949 120.757 25.6597 121.135 26.1892C121.627 26.8512 122.988 27.5698 123.802 27.5698H124.426V22.4824C124.426 17.9435 124.464 17.2626 124.804 16.1846C125.466 14.0286 127.187 12.6102 129.532 12.3265C130.099 12.2509 130.799 12.0807 131.064 11.9483C131.65 11.6646 132.18 10.4731 132.18 9.5086V8.84667L131.291 8.86559C130.78 8.8845 129.816 8.96015 129.116 9.05471Z" fill="#D2D2D2"/>
<path d="M142.354 9.05471C140.577 9.28166 139.064 9.90576 138.099 10.7946C137.645 11.2107 137.248 11.5133 137.229 11.4755C137.191 11.4377 136.946 11.0405 136.643 10.5866C136.303 10.0571 135.849 9.64099 135.338 9.39513C133.749 8.69538 133.882 8.01454 133.882 17.2437C133.882 25.4327 133.882 25.4327 134.317 26.0758C134.808 26.8322 136.17 27.5698 137.04 27.5698H137.664V22.4824C137.664 17.9624 137.702 17.2626 138.042 16.2035C138.723 13.9908 140.18 12.7804 142.695 12.3454C144.681 12.005 145.418 11.1918 145.418 9.35731C145.418 8.86559 145.38 8.84668 144.529 8.86559C144.019 8.8845 143.054 8.96015 142.354 9.05471Z" fill="#D2D2D2"/>
<path d="M147.12 13.2154C147.12 18.1893 147.309 19.4754 148.274 21.4233C149.333 23.5983 151.262 25.168 153.645 25.7921C155.782 26.3594 159.035 26.0379 160.775 25.0545C161.172 24.8465 161.532 24.7141 161.588 24.7519C161.74 24.9221 161.342 26.9646 161.021 27.6455C160.851 28.0237 160.34 28.6478 159.886 29.0639C158.941 29.9339 157.787 30.3121 155.536 30.5012C153.569 30.6525 152.548 31.1442 151.962 32.1655C151.716 32.6005 151.451 33.1868 151.395 33.4705L151.281 34H154.364C157.806 34 158.959 33.792 160.87 32.8274C162.175 32.1844 163.688 30.7282 164.293 29.5367C165.257 27.6455 165.276 27.3618 165.276 17.7733V8.80886L164.576 8.94124C163.688 9.11145 162.647 9.641 162.156 10.1705C161.815 10.5488 161.758 10.9459 161.664 14.1232C161.55 18.0948 161.323 19.0971 160.264 20.3264C159.338 21.4233 157.976 21.9718 156.198 21.9718C153.91 21.9718 152.283 20.9694 151.395 19.0593C151.054 18.3217 150.997 17.7165 150.903 14.6149C150.827 11.4755 150.752 10.9459 150.43 10.3975C150.033 9.73556 148.974 9.13037 147.839 8.94124L147.12 8.80886V13.2154Z" fill="#D2D2D2"/>
<path d="M78.6808 6.80441C78.6808 2.46383 82.0568 -0.42989 85.9151 0.0523997C85.9151 4.87527 82.0568 7.28669 78.6808 6.80441Z" fill="#D2D2D2"/>
</g>
<defs>
<clipPath id="clip0_16_462">
<rect width="164.726" height="34" fill="white" transform="matrix(1 0 0 -1 0.550293 34)"/>
</clipPath>
</defs>
</svg>
