<svg width="111" height="64" viewBox="0 0 111 64" fill="none" xmlns="http://www.w3.org/2000/svg">
<g clip-path="url(#clip0_16_494)">
<path fill-rule="evenodd" clip-rule="evenodd" d="M101.666 24.5311C103.403 21.9843 103.774 19.97 103.342 18.4396C102.91 16.9093 101.54 15.3863 98.7274 14.1241C95.9295 12.8685 92.0102 12.0238 87.1591 11.7074C77.4791 11.0761 64.618 12.5805 50.9191 16.4481C37.2202 20.3156 25.4712 25.7592 17.5506 31.3597C13.5812 34.1663 10.6823 36.936 8.95411 39.4694C7.21667 42.0162 6.84593 44.0305 7.27798 45.5609C7.71003 47.0912 9.07945 48.6142 11.8923 49.8764C14.6902 51.132 18.6095 51.9767 23.4606 52.2931C33.1406 52.9244 46.0017 51.42 59.7006 47.5524C73.3996 43.6849 85.1485 38.2413 93.0691 32.6408C97.0385 29.8342 99.9374 27.0645 101.666 24.5311ZM60.3363 49.804C88.1071 41.9636 108.369 27.6367 105.593 17.804C102.817 7.97124 78.0542 6.35614 50.2834 14.1965C22.5127 22.0369 2.25041 36.3638 5.02644 46.1965C7.80247 56.0293 32.5655 57.6444 60.3363 49.804Z" fill="#D2D2D2"/>
<path d="M7.51294 33.4773C7.51294 36.505 8.10818 38.7454 9.29865 40.1983C10.4891 41.6419 11.9514 42.3637 13.6856 42.3637C15.3823 42.3637 16.8305 41.6606 18.0304 40.2546C19.2396 38.8391 19.8442 36.58 19.8442 33.4773C19.8442 30.3371 19.2349 28.0686 18.0163 26.6719C16.7977 25.2752 15.3541 24.5769 13.6856 24.5769C11.9608 24.5769 10.4985 25.3033 9.29865 26.7563C8.10818 28.1998 7.51294 30.4402 7.51294 33.4773ZM4.25085 33.4773C4.25085 30.4027 5.21636 27.9374 7.14736 26.0814C8.91901 24.3847 11.0984 23.5364 13.6856 23.5364C16.2821 23.5364 18.4662 24.3894 20.2379 26.0954C22.1595 27.9421 23.1203 30.4027 23.1203 33.4773C23.1203 36.5988 22.1267 39.0828 20.1395 40.9295C18.3584 42.5793 16.2071 43.4042 13.6856 43.4042C10.9859 43.4042 8.7456 42.4902 6.96457 40.6623C5.15543 38.7969 4.25085 36.4019 4.25085 33.4773Z" fill="#D2D2D2"/>
<path d="M29.9257 33.1398C31.9973 33.0649 33.4784 32.8493 34.3689 32.4931C35.8968 31.865 36.6608 30.6839 36.6608 28.9498C36.6608 27.2812 35.9765 26.1423 34.6079 25.533C33.8768 25.2049 32.9066 25.0409 31.6974 25.0409C30.8818 25.0409 30.3804 25.1018 30.1929 25.2237C30.0148 25.3361 29.9257 25.608 29.9257 26.0392V33.1398ZM24.5264 42.4762C25.6325 42.3731 26.3215 42.1575 26.5933 41.8294C26.8652 41.5013 27.0011 40.7373 27.0011 39.5375V27.0656C27.0011 26.0532 26.8464 25.3924 26.5371 25.0831C26.2371 24.7643 25.5669 24.5628 24.5264 24.4784V23.9441H32.4988C34.158 23.9441 35.5406 24.155 36.6467 24.5769C38.7465 25.3736 39.7963 26.8406 39.7963 28.9779C39.7963 30.4121 39.3277 31.5135 38.3903 32.2821C37.4623 33.0508 36.1968 33.557 34.5939 33.8007L40.5275 41.0982C40.8931 41.5482 41.2587 41.8762 41.6242 42.0825C41.9898 42.2887 42.4585 42.4199 43.0303 42.4762V42.9964H38.3903L31.5286 34.1382L29.9257 34.2085V39.8749C29.9257 40.9435 30.0851 41.6231 30.4038 41.9137C30.7319 42.1949 31.4396 42.3824 32.527 42.4762V42.9964H24.5264V42.4762Z" fill="#D2D2D2"/>
<path d="M43.8739 42.4762C45.0457 42.3918 45.805 42.2184 46.1518 41.9559C46.4986 41.6841 46.672 40.9904 46.672 39.8749V27.0656C46.672 26.0064 46.4986 25.3268 46.1518 25.0268C45.805 24.7175 45.0457 24.5347 43.8739 24.4784V23.9441H52.3947V24.4784C51.223 24.5347 50.4637 24.7175 50.1169 25.0268C49.7701 25.3268 49.5967 26.0064 49.5967 27.0656V39.8749C49.5967 40.9904 49.7701 41.6841 50.1169 41.9559C50.4637 42.2184 51.223 42.3918 52.3947 42.4762V42.9964H43.8739V42.4762Z" fill="#D2D2D2"/>
<path d="M53.5618 23.9441H69.83L69.9847 28.8373H69.2957C68.9583 27.3 68.5271 26.3017 68.0021 25.8423C67.4866 25.3736 66.3945 25.1393 64.726 25.1393H63.1231V39.8749C63.1231 40.9904 63.2965 41.6841 63.6433 41.9559C63.9901 42.2184 64.7494 42.3918 65.9211 42.4762V42.9964H57.5269V42.4762C58.7455 42.3824 59.5048 42.1809 59.8047 41.8716C60.1047 41.5622 60.2547 40.7842 60.2547 39.5375V25.1393H58.6518C57.0582 25.1393 55.9708 25.369 55.3897 25.8283C54.8179 26.2876 54.3867 27.2906 54.0961 28.8373H53.393L53.5618 23.9441Z" fill="#D2D2D2"/>
<path d="M72.4594 37.2034C72.9468 38.497 73.5186 39.5281 74.1748 40.2967C75.3184 41.6372 76.7385 42.3074 78.4352 42.3074C79.3538 42.3074 80.1459 42.0168 80.8114 41.4357C81.4864 40.8545 81.8238 40.0437 81.8238 39.0032C81.8238 38.0658 81.4864 37.2503 80.8114 36.5566C80.3709 36.116 79.4429 35.4552 78.0274 34.574L75.5668 33.0414C74.8263 32.5727 74.2357 32.0994 73.7952 31.6213C72.9796 30.712 72.5719 29.709 72.5719 28.6123C72.5719 27.1594 73.0546 25.9501 74.0201 24.9846C74.9856 24.0191 76.2651 23.5364 77.8587 23.5364C78.5149 23.5364 79.3023 23.7004 80.2209 24.0285C81.1489 24.3472 81.6785 24.5066 81.8098 24.5066C82.166 24.5066 82.4097 24.4222 82.5409 24.2535C82.6815 24.0847 82.7893 23.8457 82.8643 23.5364H83.4549L84.0876 29.6668H83.3986C82.9299 27.8202 82.1753 26.5313 81.1348 25.8002C80.1037 25.069 79.082 24.7034 78.0696 24.7034C77.2822 24.7034 76.5932 24.9378 76.0027 25.4065C75.4215 25.8658 75.1309 26.5079 75.1309 27.3328C75.1309 28.0733 75.3559 28.706 75.8058 29.231C76.2558 29.7653 76.9541 30.323 77.9009 30.9042L80.4318 32.4649C82.016 33.4398 83.1315 34.335 83.7783 35.1505C84.4157 35.9754 84.7344 36.9503 84.7344 38.0752C84.7344 39.5843 84.1626 40.8451 83.019 41.8575C81.8847 42.8699 80.4318 43.376 78.6602 43.376C77.7696 43.376 76.837 43.2073 75.8621 42.8699C74.8966 42.5324 74.3435 42.3637 74.2029 42.3637C73.8654 42.3637 73.6358 42.4668 73.5139 42.673C73.4014 42.8792 73.3265 43.0995 73.289 43.3339H72.6562L71.7985 37.2034H72.4594Z" fill="#D2D2D2"/>
<path d="M90.7524 33.4773C90.7524 36.505 91.3476 38.7454 92.5381 40.1983C93.7286 41.6419 95.1909 42.3637 96.925 42.3637C98.6217 42.3637 100.07 41.6606 101.27 40.2546C102.479 38.8391 103.084 36.58 103.084 33.4773C103.084 30.3371 102.474 28.0686 101.256 26.6719C100.037 25.2752 98.5936 24.5769 96.925 24.5769C95.2002 24.5769 93.7379 25.3033 92.5381 26.7563C91.3476 28.1998 90.7524 30.4402 90.7524 33.4773ZM87.4903 33.4773C87.4903 30.4027 88.4558 27.9374 90.3868 26.0814C92.1584 24.3847 94.3379 23.5364 96.925 23.5364C99.5216 23.5364 101.706 24.3894 103.477 26.0954C105.399 27.9421 106.36 30.4027 106.36 33.4773C106.36 36.5988 105.366 39.0828 103.379 40.9295C101.598 42.5793 99.4466 43.4042 96.925 43.4042C94.2254 43.4042 91.985 42.4902 90.204 40.6623C88.3949 38.7969 87.4903 36.4019 87.4903 33.4773Z" fill="#D2D2D2"/>
</g>
<defs>
<clipPath id="clip0_16_494">
<rect width="110.62" height="64" fill="white"/>
</clipPath>
</defs>
</svg>
