<svg width="143" height="38" viewBox="0 0 143 38" fill="none" xmlns="http://www.w3.org/2000/svg">
<g clip-path="url(#clip0_16_460)">
<path d="M142.473 0C142.364 0.41418 141.715 2.03524 140.762 2.47972C139.511 3.06252 137.368 3.559 135.224 3.94449C133.14 9.68645 129.451 17.0028 126.618 22.1663C129.465 22.0875 132.441 22.0527 134.242 21.7623C133.946 23.3686 132.978 24.2973 132.326 24.6441C131.094 25.2998 127.757 25.5623 124.503 26.0384C124.234 26.447 124.03 26.7369 123.932 26.8507C123.283 26.9241 121.793 26.2874 119.047 27.3248C119.047 27.3248 117.237 24.2064 119.432 22.9876C120.088 22.6231 121.463 22.4299 123.151 22.3142C125.34 17.0688 128.589 9.26046 130.526 4.64365C129.555 4.76132 128.856 4.82862 128.646 4.83879C126.678 4.9353 125.985 3.3802 126.108 0.969904C126.108 0.969904 140.159 0.321426 142.473 0ZM34.2601 20.1752C34.4185 19.3153 34.93 18.4156 35.9196 17.7113C37.4965 16.5894 38.9528 16.7701 38.9528 16.7701C38.6794 17.7534 37.3829 19.4402 34.2601 20.1752ZM51.8885 10.3633C51.8885 10.3633 51.5658 16.2179 46.7514 21.3039C47.2599 19.0083 47.6164 16.5495 47.573 15.4627C47.5203 14.1462 46.433 13.6765 43.7726 14.2923C43.6081 15.1362 43.4328 17.0838 43.3538 18.8381C41.2626 22.4461 36.9245 23.3238 35.2769 22.7612C40.4081 20.9046 41.3301 17.7309 41.355 16.9243C41.3713 16.3876 41.3446 15.6112 41.0591 14.941C40.9565 14.7008 40.2822 14.4429 39.7299 14.3885C38.2839 14.2456 35.6012 14.5596 33.2818 16.3677C31.6238 17.6602 30.6935 19.2346 30.4127 20.7323C28.7049 20.8813 27.3107 20.9111 27.3107 20.9111C27.2745 22.7324 28.0643 24.1608 29.3593 24.1608C29.7934 24.1608 30.329 24.1004 30.9428 23.9877C31.7262 25.2628 33.2309 26.0939 35.3549 25.9888C39.5652 25.7803 42.0821 23.2502 43.2967 21.577C43.3095 23.1973 43.4219 24.48 43.6785 24.7366C44.0629 25.121 44.5989 25.496 45.2614 25.4875C46.753 25.4678 53.3369 18.5947 54.6699 13.791C55.3861 11.2094 51.8885 10.3633 51.8885 10.3633ZM59.8371 19.212C58.7138 21.1256 56.8715 21.9019 56.8715 21.9019C56.8715 21.9019 56.5237 20.2259 57.8492 18.0006C58.7015 16.5707 59.9274 15.6488 60.7411 15.1834C60.8758 16.1533 60.7974 17.5754 59.8371 19.212ZM76.243 3.67078C76.0169 6.90676 73.2469 12.0938 69.9996 14.51C70.4741 13.3548 73.4455 5.82104 76.243 3.67078ZM83.3016 19.3772C81.5281 20.5805 79.4895 20.717 79.1504 20.717C79.1363 19.1598 79.386 17.3355 80.8823 14.5105C84.5081 13.9827 87.326 13.2806 88.0669 12.7181C88.8806 12.1005 89.122 11.0351 89.3221 10.4304C88.2265 10.5191 85.6176 10.5848 83.0378 10.6982C84.3039 8.58036 85.3614 6.87726 85.3065 6.27785C85.1809 4.90583 82.084 4.16754 82.084 4.16754C81.1597 5.79048 79.988 8.39619 78.9115 10.9553C77.8853 11.052 77.0899 11.1713 76.728 11.3225C76.728 11.3225 76.1779 13.5443 77.4876 14.4113C74.7709 18.7391 71.1287 21.0267 68.1468 21.203C68.1756 20.3964 68.325 19.3675 68.83 17.7395C75.4129 15.9005 79.5346 5.16853 78.5866 2.65369C78.293 1.87547 76.3806 1.21681 75.7641 1.32618C70.6084 2.2414 66.88 13.1446 65.9328 15.8624C64.0368 15.7369 63.993 13.6133 63.611 13.2891C63.1628 12.9087 61.8469 13.0146 61.5334 13.0685C61.2248 12.5661 60.7897 12.1525 60.4893 12.1533C58.7526 12.1587 56.4016 13.3808 54.4296 17.1237C52.7504 20.3111 53.4073 23.3238 53.7981 23.8077C54.2151 24.3238 55.0931 24.8261 55.911 24.9634C56.5207 25.0657 59.6531 24.624 61.9339 21.3711C62.9097 19.9793 63.5812 18.5778 63.9162 17.2749C64.2749 17.5864 64.9997 17.7853 65.3377 17.8365C64.8338 19.7637 64.5005 21.9453 65.0729 23.0582C65.3614 23.6187 66.8999 24.428 67.8995 24.3343C71.5461 23.9919 74.2837 21.3425 76.0056 18.9823C75.734 20.4524 75.7111 21.8516 76.1214 22.5569C76.4521 23.1249 77.7932 23.9261 78.9483 23.8632C80.5095 23.7782 82.0558 22.8137 82.6295 21.8333C82.9077 21.3572 83.1932 20.372 83.3016 19.3772ZM19.7005 11.1129C24.3359 10.0095 29.4689 9.16611 33.8628 9.56527C30.4255 12.1581 23.1167 15.6973 16.2149 18.7802C17.4929 16.0959 18.719 13.4264 19.7005 11.1129ZM13.8778 23.5994C22.5026 19.9667 36.8823 13.2886 37.9186 9.77063C38.0086 9.46448 37.8446 7.75896 37.5663 7.27027C36.7663 5.86473 29.9743 5.63633 21.2601 7.04213C21.3035 6.00467 18.4091 5.2208 17.7304 5.38756C17.5765 5.72212 17.1795 6.62688 16.616 7.92437C9.60225 9.42427 4.0938 11.3174 4.0938 11.3174C4.0938 11.3174 4.55598 15.0038 7.20994 14.5336C8.5238 14.3009 11.2533 13.4098 14.6662 12.4383C13.5534 15.0241 12.257 18.0507 10.9686 21.0763C5.5835 23.3903 1.27764 25.1212 0.605842 25.4312C0.101588 25.6639 0 25.7869 0 26.0485C0 26.1462 0.152267 28.4296 0.91736 28.7463C1.72615 29.0809 4.27958 29.2083 7.4941 29.2904C6.33707 32.0511 5.39184 34.3421 4.88491 35.6422C4.48386 36.6708 5.89555 37.9228 6.38532 37.9952C6.68611 37.6435 9.81164 31.6834 10.985 29.376C24.6192 29.8161 40.0266 32.2668 42.6511 32.2668C45.3778 32.2668 47.0977 30.2341 47.0977 30.2341C36.3443 27.2597 20.1012 26.0724 12.8508 25.6711C13.1854 24.9998 13.5291 24.3071 13.8778 23.5994ZM90.1038 20.6278C90.0264 22.2272 89.2648 22.9856 87.9499 23.3185C86.6351 23.6517 85.4738 23.4709 85.3427 21.8339C85.2605 20.8061 86.0587 19.4815 86.0587 19.4815C86.0587 19.4815 86.9357 19.2592 87.74 19.1485C89.1033 18.9609 90.1736 19.196 90.1038 20.6278ZM96.8242 24.1738C97.9529 21.9523 99.3404 19.1802 100.736 16.3007C106.072 15.712 113.99 15.375 118.411 16.1074C112.85 19.5276 104.221 22.2644 96.8242 24.1738ZM105.285 6.40733C112.099 5.18757 115.73 5.44466 115.73 5.44466C114.321 6.75073 108.771 8.62379 103.551 10.3371C104.178 8.96237 104.766 7.63565 105.285 6.40733ZM122.206 16.6095C122.466 15.8356 122.051 14.11 121.798 13.8556C120.541 12.5943 114.106 12.0766 108.035 12.4203C117.841 9.27387 120.134 6.57272 120.354 6.17382C120.574 5.7752 120.397 3.53915 119.917 2.95637C119.206 2.09153 113.691 1.73526 106.787 2.5143C106.815 1.42832 103.941 0.728365 103.284 0.750347C103.137 1.07231 102.761 1.93069 102.226 3.16466C95.8695 4.24849 91.5625 5.69745 91.5625 5.69745C92.1894 9.17602 93.9665 9.17522 94.6936 8.95888C96.7321 8.35222 98.6295 7.85012 100.387 7.43218C99.7789 8.84737 99.111 10.4068 98.4145 12.0348C96.4321 12.7093 94.8224 13.3017 93.9824 13.7478C93.9852 15.7597 94.9694 16.9425 96.3014 16.9857C95.079 19.8546 93.87 22.7027 92.8342 25.1566C86.9408 26.5421 82.584 27.2826 82.584 27.2826C82.584 27.2826 83.6544 31.0207 87.0799 30.5407C103.402 28.2553 120.964 20.3171 122.206 16.6095Z" fill="#D2D2D2"/>
</g>
<defs>
<clipPath id="clip0_16_460">
<rect width="142.55" height="38" fill="white"/>
</clipPath>
</defs>
</svg>
