<svg width="3973" height="960" viewBox="0 0 3973 960" fill="none" xmlns="http://www.w3.org/2000/svg"><g clip-path="url(#clip0_314_2)"><path fill-rule="evenodd" clip-rule="evenodd" d="M438 .284997C406.224 2.936 390.213 5 368.959 9.186 292.983 24.149 217.7 59.957 159 109.053c-18.339 15.338-34.376 30.266-46.038 42.854C64.498 204.216 33.415 263.059 20.628 326.7c-18.124 90.207 4.907 186.865 55.994 235 11.695 11.02 22.427 17.308 39.924 23.393 13.033 4.533 39.772 15.071 56.016 22.076 7.054 3.042 13.163 5.531 13.575 5.531.412 0-1.222-4.445-3.631-9.878-10.127-22.841-16.433-47.799-19.018-75.271-.344-3.656-.257-6.863.193-7.127 1.344-.785 28.882 1.017 42.319 2.77 6.875.897 19.25 2.968 27.5 4.602 15.326 3.035 42.088 10.317 44.121 12.005.621.515 1.701 3.066 2.398 5.668 1.519 5.661 7.955 18.88 12.193 25.04 8.708 12.656 24.213 25.327 38.766 31.68 12.616 5.507 18.993 6.665 39.811 7.228l19.289.522 5.562 6.761c9.117 11.082 17.147 23.704 23.856 37.5 12.051 24.778 17.28 45.814 19.017 76.5.831 14.67 2.921 19.471 12.161 27.939 10.315 9.451 15.654 9.427 25.857-.117 9.171-8.579 11.127-13.242 11.891-28.344 2.197-43.421 17.03-82.631 42.978-113.609l5.554-6.631 19.273-.484c17.196-.432 20.236-.773 28.211-3.169 18.129-5.446 33.717-15.645 45.675-29.883 6.317-7.521 14.865-23.413 16.926-31.47l1.348-5.267 8.057-2.549c28.522-9.022 67.58-15.738 96.556-16.603l10.5-.313-.337 7.5c-.457 10.166-4.47 33.498-7.654 44.5-11.27 38.943-29.954 70.821-58.136 99.187-11.451 11.526-13.901 13.388-42.017 31.938-16.421 10.835-41.106 27.126-54.856 36.204-13.75 9.077-34.675 22.879-46.5 30.671-11.825 7.792-35 23.13-51.5 34.084-16.5 10.954-31.35 20.444-33 21.09-4.013 1.57-8.644 1.599-12.135.076-1.576-.688-12.54-8.497-24.365-17.353-56.725-42.487-129.137-89.908-180-117.878-6.875-3.78-15.008-8.308-18.072-10.061-9.808-5.609-48.882-25-65.971-32.739-42.359-19.181-82.68-32.887-116.457-39.586-21.654-4.294-52.5-7.466-52.5-5.398 0 4.943 14.65 47.758 22.668 66.248 24.364 56.181 56.266 103.529 99.293 147.369 63.641 64.843 139.793 108.148 228.891 130.163 36.543 9.029 69.65 12.836 112.148 12.894 36.721.051 58.703-1.945 92.5-8.398 123.911-23.658 236.688-98.745 307.169-204.511 53.186-79.813 80.74-170.776 80.725-266.5-.01-65.62-12.257-126.028-37.894-186.912-43.218-102.637-125.42-190.543-225.306-240.939C624.83 23.915 572.924 8.618 511.5 2.133 497.533.657997 448.353-.578003 438 .284997ZM188.5 212.571c3.343 2.077 6.05 4.293 82.003 67.129 104.579 86.519 99.421 82.496 117.872 91.935 12.993 6.647 28.993 12.083 44.845 15.238 16.166 3.217 44.267 3.195 60.706-.047 14.617-2.883 29.911-7.973 42.574-14.17 18.451-9.029 18.444-9.024 106-81.462 13.75-11.376 30.625-25.319 37.5-30.985 6.875-5.667 22.4-18.493 34.5-28.503 12.1-10.01 23.31-18.88 24.91-19.711 4.492-2.334 13.526-1.344 17.852 1.955 7.236 5.52 6.738-4.313 6.738 133.151V470.7l-8.75.002c-28.622.008-74.97 6.403-106.25 14.659-42.025 11.092-80.873 28.994-110.837 51.075-29.2 21.519-52.748 48.673-69.385 80.011l-5.401 10.173-2.787-5.71c-17.404-35.655-47.078-68.308-85.09-93.629-10.809-7.201-39.783-22.101-53.5-27.515-41.592-16.413-93.258-26.883-141.75-28.725l-17.25-.655V346.944c0-138.277-.584-127.635 7.319-133.36 3.262-2.363 4.992-2.883 9.581-2.88 3.718.002 6.608.63 8.6 1.867Zm3103.14 53.723c-70.77 8.128-129.82 47.19-162.37 107.406-22.47 41.565-30.9 94.693-22.83 143.799 12.64 76.926 62.49 137.818 134.02 163.713 47.31 17.125 100.85 17.787 148.78 1.84 30.47-10.141 59.27-28.335 80.71-50.983 8.01-8.46 19.74-23.137 18.94-23.689-.41-.284-30.92-15.221-59.39-29.08l-17-8.275-8.09 8.198c-17.24 17.475-39.63 28.805-65.26 33.027-13.51 2.224-38.56 1.548-51.15-1.38-51.59-11.996-86.25-48.668-96.67-102.276-2.58-13.242-2.58-44.546 0-57.788 5.47-28.147 17.22-50.982 35.64-69.281 17.41-17.3 35.44-27.044 61.03-32.995 12.66-2.942 37.67-3.607 51.15-1.358 19.05 3.179 36.53 10.154 50.77 20.269 7.54 5.354 20.82 18.398 24.71 24.271 1.45 2.193 3.06 3.988 3.57 3.988.72 0 58.16-39.558 67.22-46.292 1.84-1.368 1.72-1.672-2.79-7.542-15.33-19.919-38.02-39.027-61.82-52.05-36.74-20.102-84.01-28.71-129.17-23.522Zm446.86-.945c-1.65.193-7.28.834-12.5 1.424-44.4 5.022-88.98 25.994-121.66 57.237-41.76 39.918-64.32 94.241-64.34 154.889-.01 38.054 7.06 68.995 23.01 100.801 44.48 88.644 148.42 133.264 250.53 107.544 77.53-19.529 137.53-81.731 153.89-159.544 6.61-31.459 6.26-69.533-.93-100.376-18.56-79.619-81.93-140.749-163.5-157.715-18.86-3.923-49.84-5.969-64.5-4.26ZM1226.24 311.95l.26 40.25 95.75.255c52.66.14 95.75.494 95.75.786 0 .292-8.89 11.719-19.75 25.392s-40.23 50.619-65.25 82.101c-25.02 31.483-50.22 63.197-56 70.475-5.78 7.279-21.64 27.253-35.25 44.388L1217 606.751V687.7h310v-80.991l-101.64-.254-101.64-.255 17.94-22.5c9.87-12.375 26.72-33.525 37.44-47 10.73-13.475 34.76-43.625 53.4-67s47.3-59.323 63.69-79.884l29.81-37.384v-11.703c0-6.437-.3-24.602-.66-40.366l-.66-28.663h-298.7l.26 40.25ZM1752 272.069c0 .485-27.49 74.388-28.87 77.631-.59 1.375-16.18 43-34.65 92.5s-35.56 95.175-37.99 101.5c-8.26 21.573-53.49 142.836-53.49 143.429 0 .325 20.12.474 44.72.331l44.72-.26 17.62-48.5 17.62-48.5h168.63l3.28 9c1.8 4.95 6.72 18.675 10.94 30.5 4.21 11.825 9.91 27.8 12.66 35.5 2.75 7.7 5.67 15.913 6.5 18.25l1.5 4.25h44.9c24.7 0 44.91-.33 44.91-.733 0-.403-2.89-8.391-6.43-17.75-3.53-9.359-23.59-62.917-44.56-119.017-20.98-56.1-39.62-105.825-41.42-110.5-1.8-4.675-16.68-44.387-33.07-88.25l-29.81-79.75h-53.85c-29.62 0-53.86.166-53.86.369ZM2093 479.7v208h83.99l.25-74.75.26-74.75 23.5-.237 23.5-.237 11.58 16.237c6.37 8.93 19.67 27.487 29.56 41.237 9.88 13.75 24.91 34.675 33.38 46.5 8.47 11.825 19.3 26.9 24.07 33.5l8.66 12 52.13.259c28.66.142 52.12.058 52.12-.189 0-.246-2.63-3.962-5.85-8.258C2387.14 621.63 2321 532.459 2321 531.859c0-.427 3.49-1.815 7.75-3.085 38.14-11.359 67.17-39.467 78.06-75.574 4.81-15.943 5.67-22.901 5.67-46 .01-19.254-.28-23.362-2.32-32.911-12.86-60.231-55.2-95.73-121.16-101.565-6.77-.599-49.44-1.019-103.75-1.021L2093 271.7v208Zm392.24-167.75.26 40.25 59.75.258 59.75.258v335.006l42.25-.261 42.25-.261.25-167.242.26-167.242 59.74-.258 59.75-.258.26-40.25.26-40.25h-325.04l.26 40.25ZM2912 479.7v208h85v-416h-85v208Zm875-130.679c36.05 8.649 63.78 29.169 81.59 60.385 11.72 20.534 17.56 43.929 17.56 70.294 0 27.994-7.04 54.238-19.97 74.432-21.03 32.857-52.38 52.809-92.1 58.617-11.48 1.678-36.89.669-48.08-1.91-44.16-10.182-78.5-40.772-92.87-82.726-6.05-17.667-7.45-26.815-7.45-48.413 0-21.598 1.4-30.746 7.45-48.413 15.2-44.397 51.61-75.187 99.37-84.042 12.81-2.375 41.03-1.456 54.5 1.776Zm-1504.28 5.608c29.15 6.016 44.22 24.432 44.27 54.111.03 24.837-11.27 41.931-33.09 50.027-11.34 4.208-21.57 4.921-70.65 4.927l-46.25.006v-54.833c0-30.159.3-55.134.67-55.5.36-.367 22.08-.661 48.25-.654 42.84.012 48.5.203 56.8 1.916ZM1808.27 364.7c.85 2.475 5.13 14.4 9.51 26.5 31.86 87.869 42.22 116.832 41.9 117.151-.2.202-24.69.25-54.41.108l-54.05-.259 17.96-49.5c9.88-27.225 21.71-59.85 26.3-72.5 4.58-12.65 8.65-24.058 9.03-25.351.85-2.904 1.78-1.957 3.76 3.851Z" fill="#fff"/></g><defs><clipPath id="clip0_314_2"><path fill="#fff" d="M0 0h3973v960H0z"/></clipPath></defs></svg>