<svg width="230" height="46" viewBox="0 0 230 46" fill="none" xmlns="http://www.w3.org/2000/svg"><path fill-rule="evenodd" clip-rule="evenodd" d="M22.5068 2.51041c-1.2894.20602-2.573.44621-3.8497.72031-.8449.17816-1.6887.3443-2.5227.55307-.7694.19346-1.5586.36507-2.3128.60334-.7277.22373-1.4483.46978-2.1609.7378-1.3938.53566-2.69196 1.29305-3.84416 2.24288-.69953.58367-1.35207 1.21763-1.89967 1.94886-.37774.52092-.7185 1.06773-1.01979 1.63623-.29184.5433-.49186 1.187-.49842 1.8101-.00984 1.8319 1.16079 3.3665 2.50849 4.5054.44267.3716.91376.7149 1.39142 1.0417 1.41765.9728 2.96103 1.8275 4.52843 2.5718 1.6176.7652 3.2462 1.4997 4.8945 2.1992 1.5587.6591 3.1512 1.2165 4.759 1.7488.4624.1509.9302.3017 1.3926.4537 1.457.4809 2.9457.9257 4.3917 1.4471.9007.3235 1.8603.6263 2.7599 1.0307.9345.4198 1.9051.8384 2.7293 1.4417.5547.393 1.0246.8938 1.3816 1.4723.3464.5706.5629 1.2242.5782 1.891.016.64-.1632 1.2698-.5137 1.8056-.904 1.4046-2.4768 2.3621-3.994 3.0004-2.2691.9507-4.59 1.7729-6.9516 2.4626-1.3466.3924-2.6932.7815-4.0496 1.1323-1.3619.352-2.7501.7214-4.1262 1.0646-1.3717.3433-2.7435.6526-4.1207.9477-.7892.1672-1.5838.3323-2.36748.4951-.47219.094-.93454.1935-1.40782.2952-.98481.2131-1.96962.424-2.95881.6339-1.12581.247-2.25163.4864-3.37744.7312-.32791.0711-.65363.1574-.980442.2296-.291838.0667-1.381582.318-.572744.27 1.125816-.0613 4.131626-.3225 10.553136-1.1761 2.3281-.3826 4.6639-.7105 6.9954-1.0887 2.9039-.4646 5.7905-1.0315 8.6545-1.6996.8198-.1924 1.633-.3979 2.4484-.6187.5377-.1486 1.0701-.3028 1.598-.4667 2.2516-.693 5.864-1.9172 6.7188-2.2866 3.267-1.4209 5.3012-2.4899 6.3625-5.0367.3618-.9039.5323-1.916.4219-2.8856-.1115-.9038-.4108-1.7742-.8788-2.5554-.4481-.7378-1.0602-1.3674-1.6997-1.9489-1.1913-1.0777-2.527-1.9478-3.9545-2.6856-.4048-.2097-.8152-.4083-1.2308-.5957-.516-.2331-1.0356-.4582-1.5586-.6754-.7364-.2995-1.4822-.5751-2.2363-.8264-1.9598-.6667-3.9502-1.2613-5.9198-1.8996-1.1156-.3557-2.2158-.7579-3.2977-1.2057-.4561-.1887-.9066-.3907-1.351-.6055-.5224-.2514-1.0307-.5268-1.5335-.8219-.6175-.3706-1.6286-1.0078-1.3466-1.8746.1968-.6175.8744-.858 1.4275-1.0799.5126-.2055 1.0548-.3497 1.5882-.4886 1.6286-.4153 3.2911-.6951 4.935-1.0427.4833-.1012.9657-.2068 1.4471-.317 1.2821-.2984 2.6036-.5214 3.8256-1.0034 1.0493-.4099 2.3959-1.06458 2.7883-2.20789.5629-1.66467-.0765-3.46488-.9946-4.86941-.3325-.50363-.6743-1.00104-1.0253-1.49198-.4831-.67002-1.0165-1.300697-1.5379-1.939022-.2361-.2896516-.5235-.2677911-.7651-.1934655C30.4061.157135 29.5273 1.17802 22.5068 2.51041ZM130.15 17.1001l.095-.2186.111-.1891.096-.1738.095-.1486.066-.1465.07-.1093.054-.1071.071-.0656.171-.2962.1-.1771.121-.1738.257-.4306.156-.2317.16-.2405.041-.0405.055-.0142.12.0427.06.0393.081.094.16.2295.167.3061.185.4197.197.4995.216.6056.04.106.07.1771.091.2295.125.2951.016.0547.025.0677.04.1345.03.1071.025.1093v.0798l.015.082-.015.024v.1093l-.08.1071-.055.0667-.136.0546-.182.0547-.225.0273h-.142l-.134.012-1.338.1072h-.256l-.201.0153h-.211l-.161.012-.166-.012h-.311l-.151-.0274-.095-.0273-.08-.0525-.047-.0688-.039-.0951.019-.0918.02-.1246.071-.1334.101-.1738.09-.1486.08-.1345.081-.1093.06-.1071.056-.0809.025-.0798.04-.0393Zm-8.565 6.357s.193.0492.193.0514c.728.2077 1.085.693.528 1.3291-.176.2033-.317.4307-.459.6525l-.121.2012c-.12.1989-.209.3836-.229.6186l.009.1235c.035.3247.297.6722.458.951.335.5705.688 1.0788 1.081 1.6023.059.0853.918-1.3225.973-1.4023.308-.4219.664-.7957.981-1.2089.396-.5181.83-1.0089 1.402-1.3401.573-.3322 1.231-.4645 1.89-.5333.653-.0722 1.306-.1017 1.954-.1367 1.336-.0699 2.664-.2186 3.99-.3476.514-.0502 1.272-.1759 1.735.0744.448.2404.789.658 1.135 1.0154.417.435.824.8788 1.217 1.3324.468.5367.884 1.1105 1.401 1.6067.327.317.665.5957 1.036.8635l.192.1224c.658.3247 1.12-.1027 1.261-.7629.201-.975-.358-1.9237-.814-2.7446-.251-.449-.482-.9085-.693-1.3772-.182-.3825-.363-.9739-.041-1.3411.252-.2809.767-.2951 1.111-.3848.405-.1071.804-.2295 1.211-.3104.814-.1661 1.622-.3825 2.451-.4864.463-.0546 1.221-.3946 1.619.0066.523.5192.025 1.4974-.176 2.0527-.327.9269-.658 1.8865-.763 2.8681-.092.893.129 1.8537.703 2.5664.422.5246 1.131.9761 1.794.5957.528-.3061.915-.9575 1.151-1.4986.442-1.0329.748-2.1051 1.1-3.1686.317-.9575.645-1.9128 1.006-2.8594.265-.6886.572-1.3673.839-2.0549.171-.447.407-.8634.594-1.3039.15-.3717.201-.8559.572-1.0898.452-.2798 1.009.5312 1.226.8143.412.529.779 1.0821 1.156 1.6341.416.5957.794 1.3849 1.467 1.7248 1.161.5902 2.201-.7892 2.855-1.5302.453-.505.91-1.0264 1.377-1.5336.497-.5432 1.005-1.0821 1.498-1.6253.321-.3476.743-1.0296 1.271-1.0405.457-.0066.563.4874.603.8416.203 1.6964.277 3.4211.533 5.1219.1.6318.226 1.2602.336 1.8887l.161.8887c.081.4219.166.8438.257 1.2635.195.8711.402 1.7423.669 2.5948.235.7214.536 1.5029 1.141 2.0101.717.6012 2.034.4 2.496-.4394.095-.176.137-.3902.176-.588.081-.4176.041-.8548.006-1.2745-.12-1.4964-.542-2.9588-.569-4.4683-.005-.623.046-1.2406.095-1.8614.106-1.4472.292-2.89.372-4.3393.102-1.7718.262-3.6463-.255-5.3744-.144-.4975-.353-.9744-.619-1.4187-.235-.3979-.517-.7663-.839-1.09744-.328-.35042-.709-.64698-1.13-.87879-.402-.21642-.926-.38693-1.383-.40988-1.099-.05466-2.24.54869-3.1 1.17937-.735.53554-1.397 1.14654-2.026 1.79914-1.115 1.1717-2.236 2.3817-3.226 3.6671-.287.3749-.634 1.0515-1.211.9804-.684-.0896-1.047-1.1072-1.257-1.6439-.209-.5059-.433-1.0049-.674-1.4963-.31-.6263-.627-1.2461-.923-1.88-.247-.5247-.499-1.0712-.88-1.5117-.437-.5006-1-.74325-1.623-.94765-.442-.14318-1.072-.32463-1.502-.06886-.58.34212-.468 1.20123-.503 1.75651-.036.4973-.091.9782-.137 1.4756-.125 1.1979-.2 2.4319-.472 3.608-.12.5214-.296 1.1772-.75 1.5128-.35.2579-.793.223-1.2.2404-.332.0142-.668.0044-1.005-.0054-.764-.0164-1.527-.047-2.291-.0274-.654.0197-1.312.0602-1.97.0842-.584.0252-1.172.082-1.76.082-.658.0372-1.462.1421-2.08-.1465-.487-.2295-.75-.7509-.966-1.2132-.311-.6569-.707-1.2734-1.08-1.8997-.337-.5574-.662-1.1193-1.004-1.6723-.492-.7979-.981-1.5915-1.484-2.3806-.327-.52348-.667-1.03917-1.019-1.54666-.287-.41207-.65-.96514-1.152-1.13675-.461-.15849-.914.14209-1.009.59351-.066.29293.004.59242-.056.88535-.066.31042-.19.61647-.321.90721-.256.58474-.598 1.13124-.945 1.66684-1.166 1.7926-2.036 3.7819-3.076 5.6455-.196.3476-.402.6875-.599 1.0351-.265.4864-.44.8886-1.024 1.0427-.524.1367-1.085.0667-1.613.1957-.653.1617-.845.7181-.955 1.3214-.091.5105-.105 1.0319-.186 1.5467-.06.3716-.151.7902-.112 1.1662ZM50.328 33.9523c-.5378.0175-1.0712.117-1.6024.0875-.623-.0361-1.0165-.4099-1.2461-.9564-.2721-.6536-.4273-1.3925-.5935-2.0779-.1508-.6481-.2721-1.2854-.2011-1.9477.0448-.3607.1006-.623.3968-.8723.4678-.3825 1.1203-.1333 1.6133-.4066.4427-.2459.588-.7804.6285-1.2438.0699-.7793-.0153-1.6155-.0547-2.3981-.1213-2.0112.0142-4.0617-.2426-6.0597-.0547-.4613-.2055-.9903-.7236-1.1269-1.0253-.2711-1.0351-1.2756-1.0996-2.1424-.0404-.5432-.0459-1.1837.1749-1.6942.2962-.7006 1.0865-1.0635 1.7794-1.2744.6733-.2055 1.3576-.3935 2.0407-.5782.693-.1858 1.4122-.2875 2.1205-.4077.729-.1214 1.4581-.2252 2.1915-.3378.7137-.1104 1.4275-.2076 2.151-.2842.6734-.0754 1.351-.1574 2.0298-.1967.7946-.047 1.598-.094 2.3926-.12351.7138-.03061 1.4264-.01531 2.1358-.01093.7094.00546 1.4122.03497 2.1161.05683.7236.02514 1.457.08521 2.1707.18141 1.0406.1399 2.0298.3181 2.925.8963.929.6077 1.5477 1.8516.6284 2.7708-.9301.9302-2.4276.7761-3.6332.7761-.9886.0025-1.9772.02-2.9653.0524-.951.0306-1.9008.1268-2.855.1859-.8854.0546-1.7642.1169-2.6528.1847-.9148.0688-1.8352.1563-2.75.2459-.7291.0689-1.4614.1388-2.1806.27-.6034.1093-1.3116.2164-1.774.6536-.3421.3246-.3574.8679-.2164 1.2931.2765.8197 1.5335.6121 2.197.5957 1.5073-.0449 2.9992-.2908 4.5021-.3903.693-.047 1.3827-.0721 2.0702-.1114.8351-.0492 1.6636-.0766 2.503-.0372.7335.035 1.4527.1191 2.1708.2656.8799.1814 1.6996.5159 2.5085.8853 1.0351.3553.87 1.6494.6984 2.4812-.0907.4361-.2361.8198-.6339 1.0646-.904.5509-2.1861.4121-3.196.4383-.9947.0284-1.9948.1148-2.984.2044-1.563.1465-3.126.2995-4.6847.4919-.9553.1191-1.9095.2831-2.8637.3825-.6449.0689-1.4887.0044-2.0155.4536l-.0962.082-.07.0394-.0503.094-.0612.1246c-.0699.3967-.482 1.7051-.0699 2.0188l.0852.0393h.1356c.5235.0022 1.0405-.0273 1.563-.0503.7946-.0338 1.5882-.0655 2.3872-.1311 1.528-.1235 3.056-.2481 4.5841-.3793.9946-.0874 2.0199-.1421 3.0244-.2317 1.5056-.1275 3.014-.2186 4.524-.2733.9138-.036 1.7937-.0218 2.6528-.3967.9946-.4394 1.8199-1.2078 2.7948-1.7073 1.2308-.6285 2.4921-1.1892 3.7382-1.7817 1.528-.7279 3.0211-1.5652 4.5743-2.2407 1.1957-.5181 2.397-1.0318 3.5927-1.5488.5793-.2481 1.1707-.4809 1.7237-.7935.3826-.2208 1.3718-.6995 1.1204-1.2942-.1301-.3071-.5268-.3519-.8187-.3869-1.1455-.1366-4.0201.0743-5.7799.3421-2.8495.4919-3.2463.8613-4.0398.0853-.6033-.6383-.4525-1.539-.3618-2.3282.0896-.8121.4831-2.0406.7586-2.3467.8241-1.0668 3.5425-1.19137 4.8093-1.28318.6536-.047 1.3171-.06558 1.9751-.07214.9247-.00656 1.845.05465 2.7642.05465.7971.03242 1.5931.0871 2.3872.16395.905.08962 1.8953.11152 2.7741.39022.2874.0918.5727.1858.8449.3126.9094.4197 1.7379.9684 2.3565 1.7521.3673.4645.6078.9979.7291 1.5718.0601.2754.1005.5465.0601.8263-.0306.2066-.0907.6187-.2208.7826l-.0546.0689c-.1268.2732-.3684.5192-.5892.7148-1.0755.9335-2.6429 1.2734-3.9403 1.8024-.6427.2623-1.2756.5662-1.9095.8515-1.7795.8022-3.5425 1.6351-5.358 2.3631-1.492.6033-2.9796 1.222-4.4115 1.9587-.3935.2033-.9651.494-1.2023.8886-.235.4165.2776.4154.6088.4219.3618.012.7291-.0098 1.0963-.0371 1.0996-.0875 2.2003-.1913 3.3064-.3105 1.1258-.1246 2.2615-.224 3.3884-.365 1.0602-.1345 2.1204-.27 3.1752-.3848 1.1422-.1147 2.2896-.1702 3.4376-.1661 1.1608 0 2.2909.0142 3.4375.2033l.1705.0273.3017.0153c.4831 0 .9898-.0645 1.2358-.5432.403-.7761.634-1.7106.925-2.5326.372-1.0646.759-2.127 1.146-3.1872.05-.1465.106-.2929.161-.4394.442-1.1991.875-2.4036 1.356-3.5873.191-.4788.393-.9531.548-1.4472.116-.3694.171-.7443.347-1.0974.292-.5651.82-.93013 1.412-.5181.479.3323.805.9105 1.081 1.4122.286.5291.533 1.0548.668 1.6439.137.5925-.009 1.1193-.19 1.6877-.186.5836-.428 1.1618-.583 1.7543-.338 1.2744.929 2.3019 1.904 2.8823.88.5257 1.89.882 2.834 1.2755.709.2951 1.418.6067 2.167.752.448.0853 1.015.1749 1.412-.106.643-.4613.838-1.363 1.056-2.0735.261-.8733.456-1.7696.652-2.6604.171-.7378.287-1.4865.368-2.2396.065-.5924.12-1.1881.156-1.7816.038-.7728-.021-1.5171-.032-2.2866 0-.4963.091-1.13895.444-1.52588.451-.51263 1.236-.24921 1.618.23719.011.01093.14.17707.14.17707.232.38693.402.81212.532 1.24272.226.775.353 1.5718.434 2.3719.07.6591.115 1.3193.14 1.9827.08 2.2867-.08 4.5776-.393 6.8413-.17 1.222-.441 2.4101-.702 3.6124-.151.6602-.267 1.3401-.554 1.9609-.196.413-.452.7952-.758 1.1346-.147.1617-.306.2973-.489.412-.627.3902-1.447.3749-2.16.305-.994-.0918-1.949-.3454-2.885-.6853-.589-.207-1.167-.4422-1.734-.705-.578-.2733-1.16-.5465-1.718-.8592-.562-.3154-1.108-.6602-1.634-1.0329-.503-.3497-.995-.7388-1.421-1.1728-.378-.3825-.659-.8744-1.011-1.2788-.377-.4274-.668-.5706-.915.0175-.15.3825-.23.7837-.321 1.1859-.151.7028-.362 1.3991-.583 2.0855-.211.6777-1.121 2.5588-2.111 1.6833-.321-.2842-.552-.6482-1.036-.6427-.491.0065-.9592.2054-1.4368.3093-.5028.1126-1.0253.1716-1.5379.2732-.9695.1957-1.9401.4198-2.9042.6121-.6438.1224-1.2865.2121-1.9259.3214-.6165.1049-1.2406.1836-1.8636.2765-.6427.094-1.2821.1957-1.9204.27-1.0045.1235-2.0046.2426-3.0058.3476-.8034.1049-1.6013.1836-2.4014.2754-.6679.0722-1.3313.141-2.0003.2066-1.1157.1151-2.2348.1953-3.3555.2405-1.6942.059-3.4485.1584-5.1176-.1749-.3716-.0711-.9247-.1159-1.2056-.3891-.2011-.1935-.0404-.5247-.1913-.752l-.0251-.0405-.0656-.0688-.0601-.0416-.0656-.0284h-.1355l-.07.0284-.0808.0273-.07.0547-.1421.0962-.0896.106-.07.1224-.0404.1367c-.3618 1.1542-1.5882 1.5881-2.7031 1.7302l-17.8468 2.08Zm166.615-8.9562c-2.342.1661-4.549.5574-6.927.3345-.768-.0744-2.089-.1367-2.738-.5553-1.899-1.2362 4.755-3.4386 5.574-3.7272 2.306-.8132 6.955-2.139 6.955-2.139s4.367-1.0723 4.499-3.3961c.159-2.82-2.777-4.0955-5.022-4.8005-.925-.2077-1.861-.3602-2.805-.4569-.641-.0592-1.285-.0971-1.929-.1137-1.211-.0426-2.392.0743-3.599.2186-1.235.1465-3.864.223-4.246 1.7576-.192.7815-1.086 2.3926-.337 3.0998.793.752 2.087.4394 3.062.3454 1.346-.1312 2.677-.3804 4.019-.5115.991-.0973 2.282-.3126 3.096.4044 1 .8919-1.654 1.7357-2.182 1.9587-2.003.8438-4.098 1.4493-6.11 2.2768-1.885.7738-3.775 1.5193-5.613 2.3871-.845.3968-1.633.8865-2.427 1.363l-.382-.2579-2.318.2426-2.321.1891c-1.552.1268-3.126.1705-4.684.2438-.779.0262-2 .0568-2.614-.517-1.34-1.257-.593-3.0004.292-4.2169.969-1.3226 2.331-2.3041 3.729-3.137.94-.5585 1.979-1.0165 3.035-1.3291.714-.2132 1.454-.3902 2.197-.4984.105.2033.225.4066.341.6055.06.1137 1.795-.6055 1.96-.6908.532-.2733 1.277-.8209 1.292-1.4843.025-.8067-.679-1.6111-1.317-2.0134-.714-.4481-1.523-.59785-2.361-.60551-.911-.01202-1.825.04261-2.721.15961-.633.0876-1.26.2209-1.874.3989-1.024.2951-2 .6952-2.929 1.2089-1.262.6964-2.411 1.5777-3.412 2.6145-.465.4854-.877 1.0197-1.227 1.5937-.448.729-.774 1.5357-1.036 2.3478-.708 2.2472-.492 5.0443.534 7.1647.703 1.4559 1.794 2.7206 3.191 3.5688 1.759 1.07 3.985 1.4231 6 1.0405.812-.1483 1.607-.379 2.372-.6886.824-.329 1.629-.5727 2.398-1.0121.15-.0798 1.794-1.01 1.888-.8854.258.3301.408.7345.684 1.0493.267.3061.604.5837.925.822.68.5028 1.448.7017 2.277.799 2.075.2459 4.182.3705 6.274.3978 1.666.0219 3.355-.0907 5.013-.2437 1.077-.0984 2.151-.2383 3.221-.3673 2.725-.3301 4.977-.929 7.927-2.186 1.069-.4904 2.02-1.2054 2.788-2.0964-.323-.195-.663-.3618-1.015-.4984-2.146-.8526-4.593-.8865-6.875-.5979-1.051.1311-2.1.2328-3.15.3246-.457.0415-.915.0765-1.372.1093Zm-36.351 2.4079c.025-.3935-.019-.7902-.135-1.0941-.307-.7957-1.157-1.6024-2-1.7565-.766-.1355-1.684.0088-2.308.4919-.337.2634-.703.6886-.879 1.0821-.388.8667-.347 2.1532.221 2.9194.96 1.2986 2.991 1.2986 4.121.246.542-.5028.925-1.1411.98-1.8888Z" fill="#fff"/></svg>