<svg width="248" height="29" viewBox="0 0 248 29" fill="none" xmlns="http://www.w3.org/2000/svg"><path d="M236.678 28.4146c-2.188 0-4.212-.348-6.071-1.045-1.86-.6982-3.472-1.6863-4.841-2.9634-1.369-1.2812-2.456-2.8154-3.198-4.5111-.763-1.7282-1.145-3.624-1.145-5.6883 0-2.0622.382-3.9591 1.145-5.68724.744-1.69879 1.837-3.23366 3.214-4.51112 1.4-1.28994 3.052-2.29737 4.86-2.96337C232.502.348 234.526 0 236.714 0c2.325 0 4.457.386667 6.392 1.16215 1.828.7213 3.455 1.84834 4.749 3.28989.074.08163.067.20407-.014.27926-.552.51018-2.541 2.35007-3.114 2.87744-.02.01874-.043.03344-.068.04323-.026.00978-.053.01444-.081.0137-.057-.00157-.11-.02475-.149-.06445-.994-1.02037-2.102-1.78833-3.321-2.30711-1.28-.54241-2.663-.81307-4.153-.81307-1.48 0-2.839.23737-4.08.71426-1.207.45506-2.307 1.14076-3.234 2.01603-.92.87669-1.645 1.92662-2.128 3.08477-.503 1.1868-.757 2.4918-.757 3.9107 0 1.4199.254 2.7228.757 3.9118.483 1.1581 1.208 2.208 2.128 3.0847.927.8753 2.027 1.561 3.234 2.016 1.241.4769 2.602.7143 4.08.7143 1.49 0 2.873-.2707 4.153-.8142 1.22-.5177 2.327-1.2964 3.321-2.3382.019-.0197.042-.0356.067-.0468.026-.0111.053-.0172.081-.018.028-.0008.056.0037.082.0134.026.0096.05.0242.07.0428l3.112 2.8764c.039.036.062.0852.065.1373.003.0522-.015.1034-.051.143-1.298 1.44-2.924 2.5704-4.749 3.3028-1.935.7883-4.079 1.1825-6.428 1.1825Zm-221.2798 0c-2.2097 0-4.2571-.3544-6.13657-1.0655-1.87946-.7099-3.51092-1.7056-4.89216-2.9859-1.37753-1.2761-2.47312-2.8084-3.22066-4.5046C.382565 18.1357 0 16.2507 0 14.2046s.382565-3.93 1.14881-5.65067c.76735-1.72067 1.84276-3.22223 3.22511-4.50682C5.75738 2.76359 7.38551 1.76685 9.2583 1.06119 11.1289.35337 13.1729 0 15.3882 0c2.2187 0 4.2594.351222 6.1244 1.05367 1.8617.70352 3.4842 1.69274 4.8633 2.96981 1.3785 1.2762 2.4733 2.81042 3.2173 4.50896.7651 1.72816 1.1499 3.61966 1.1499 5.67646 0 2.0547-.3848 3.9483-1.1499 5.6765-.7444 1.6977-1.8391 3.2312-3.2173 4.5068-1.3791 1.276-3.0016 2.2663-4.8633 2.9688-1.8639.7035-3.9024 1.0536-6.1144 1.0536ZM138.782 16.0929c-.055 0-.111.0214-.149.0612-.02.0185-.036.0407-.046.0652-.011.0246-.016.051-.016.0776v7.2135c0 .1117.095.2019.211.2019h15.689c.055.0006.108.0223.148.0606.039.0382.061.0898.061.1435v3.9043c0 .0267-.005.0533-.015.0781-.011.0248-.026.0474-.045.0664-.02.019-.043.034-.069.0443-.025.0102-.053.0154-.08.0152h-20.958c-.056-.0002-.109-.0219-.149-.0601-.039-.0383-.061-.09-.061-.1439V.593963c0-.112778.094-.203.211-.203h20.392c.056 0 .109.021501.149.059772.04.038271.062.090178.062.144302V4.4993c0 .0537-.022.10418-.062.14285-.02.01917-.043.03444-.068.04494-.026.01051-.054.01604-.081.01628h-15.125c-.028-.00014-.055.00497-.081.01504-.025.01007-.048.02491-.068.04366-.02.01875-.035.04105-.046.06562-.011.02458-.016.05095-.016.07761l.001 6.7828c0 .0541.022.106.062.1443.039.0382.093.0597.149.0597h13.382c.056.0003.109.0218.148.0598.04.038.062.0895.062.1432v3.7948c0 .0541-.022.106-.062.1443-.039.0382-.093.0597-.149.0597h-13.381v-.001Zm-27.366 2.5455c.028.0329.065.0567.107.0682.042.0116.087.0103.128-.0037.041-.0144.076-.0406.101-.075.025-.0344.038-.0753.038-.1173V.595037c0-.113852.094-.204074.211-.204074h4.837c.116 0 .211.090222.211.204074V27.8207c0 .0541-.022.106-.062.1443-.039.0382-.093.0597-.149.0597h-4.048c-.031.0001-.062-.0066-.091-.0196-.028-.013-.053-.032-.073-.0555L97.3617 9.77407c-.0274-.03266-.0645-.05633-.1064-.06775-.0418-.01142-.0863-.01003-.1273.00399-.041.01402-.0764.03998-.1015.07429-.0251.03431-.0385.07529-.0385.11729V27.8196c0 .0541-.0223.106-.0619.1443-.0396.0383-.0933.0598-.1494.0598h-4.8366c-.0558-.0003-.1093-.0219-.1486-.0602-.0394-.0382-.0615-.09-.0615-.1439V.593963c0-.112778.0956-.203.2113-.203h4.048c.0634 0 .1224.026852.1624.075185L111.416 18.6384Zm-51.4756-.2524c.019.0299.0457.0546.0774.0716.0318.017.0676.0259.1039.0257.0363-.0003.072-.0095.1036-.0269.0315-.0174.0579-.0424.0765-.0725L71.2049.491926c.0185-.03076.0452-.056217.0772-.073768.0321-.017551.0684-.026565.1052-.026121h4.0258c.1168 0 .2113.090222.2113.201926.0022 2.373707.0412 24.849737.0467 27.227737 0 .0542-.0222.1061-.0619.1443-.0396.0383-.0933.0598-.1494.0598h-4.6152c-.0278.0003-.0553-.0047-.081-.0148-.0257-.0101-.049-.025-.0687-.0439-.0197-.0189-.0352-.0414-.0458-.0662-.0106-.0247-.016-.0513-.0158-.0781l-.0401-17.3452c-.0007-.0442-.0163-.0869-.0444-.1218-.0281-.0349-.0671-.06-.1112-.0716-.0442-.0116-.091-.0091-.1335.0072-.0425.0162-.0784.0454-.1023.0831L61.296 24.7853c-.0187.0301-.0451.0549-.0767.0722-.0315.0173-.0671.0265-.1034.0266h-2.1575c-.0357-.0002-.0708-.0092-.1019-.0262-.0311-.0169-.0573-.0411-.0761-.0704l-8.9035-14.2036c-.0235-.038-.0594-.0673-.1021-.0835-.0427-.0161-.0897-.0181-.1337-.0056-.044.0117-.0829.0371-.1106.0722-.0277.0351-.0428.078-.0428.1222v17.1304c0 .1128-.0934.2041-.2091.2041h-4.6153c-.0277.0001-.0553-.0051-.081-.0153-.0257-.0102-.049-.0252-.0687-.0442-.0196-.019-.0352-.0415-.0458-.0663-.0105-.0249-.0159-.0515-.0158-.0783V.593963c0-.112778.0935-.203.2113-.203h4.0281c.0734 0 .1424.036518.1791.098815L59.9404 18.386Zm143.4176 9.6377c-.056 0-.11-.0214-.149-.0594-.04-.0381-.062-.0897-.063-.1436V.593963c.001-.053938.023-.105569.063-.143608.039-.03804.093-.059393.149-.059392h4.87c.056.000284.109.02191.148.06015.04.038241.062.089986.062.143924V27.8207c0 .0268-.005.0534-.016.0782-.01.0249-.026.0474-.046.0664-.019.019-.043.034-.068.0442-.026.0102-.054.0154-.081.0152l-4.869-.001Zm-27.075 0c-.055-.0005-.108-.0216-.147-.0591-.039-.0385-.061-.0901-.062-.1439V4.93107c0-.05477-.022-.1074-.062-.14392-.019-.01909-.042-.03425-.067-.04458-.026-.01033-.053-.01563-.081-.01557h-9.035c-.027 0-.055-.00529-.08-.01557-.026-.01029-.049-.02535-.068-.04433-.02-.01898-.035-.04149-.045-.06624-.011-.02475-.016-.05124-.016-.07793V.595037c0-.026607.006-.052981.016-.077604.01-.024622.026-.04701.045-.065874.02-.018864.043-.033834.068-.044049.026-.010215.053-.015473.08-.015473h23.78c.027-.000001.055.005292.08.015574.026.010281.049.025348.068.044326.02.018979.035.041493.045.066241.011.024747.016.051236.016.077933V4.52507c0 .02661-.006.05298-.016.07761-.01.02462-.026.04701-.045.06587-.02.01887-.043.03384-.068.04405-.026.01022-.053.01547-.08.01547h-9.034c-.056 0-.11.0215-.15.05978-.039.03827-.061.09017-.061.1443V27.8217c0 .0269-.006.0535-.016.0783-.011.0248-.026.0474-.046.0664-.02.0189-.043.034-.069.0442-.025.0102-.053.0154-.081.0152h-4.869v-.0021ZM15.3882 23.9336c1.4413 0 2.7692-.2395 3.9814-.7186 1.1891-.4636 2.2687-1.1549 3.1739-2.0321.9079-.8839 1.6244-1.9337 2.1075-3.088.5038-1.1825.7562-2.4822.7562-3.8978s-.2502-2.711-.7518-3.8849c-.4843-1.14969-1.1999-2.19523-2.1052-3.07616-.9062-.87857-1.9875-1.57061-3.1784-2.0343-1.2133-.48011-2.5423-.7207-3.9836-.7207-1.4401 0-2.7713.24059-3.9924.72177-1.1955.46399-2.28129 1.15711-3.19178 2.03752-.90905.88141-1.62767 1.92851-2.11412 3.08047-.50267 1.175-.75512 2.4682-.75512 3.8752 0 1.4071.25134 2.7024.7529 3.885.48467 1.1574 1.20209 2.2106 2.11078 3.0987.90739.8858 1.99484 1.5807 3.19394 2.0407 1.2233.4758 2.5545.7132 3.9958.7132Z" fill="#fff"/></svg>