<svg width="229" height="49" viewBox="0 0 229 49" fill="none" xmlns="http://www.w3.org/2000/svg">
<path d="M92.6094 19.2623V38.5245H96.2918H99.9633L100.007 30.1192C100.04 20.8383 100.007 21.287 100.766 19.7329C101.975 17.2813 104.602 15.8914 107.284 16.2744C109.757 16.6246 111.033 18.2335 111.406 21.4511C111.472 21.9765 111.516 25.9055 111.516 30.4475V38.5245H115.144H118.771V29.0138C118.771 18.6931 118.76 18.5618 118.156 16.6903C117.452 14.5561 116.287 12.9582 114.319 11.437C113.187 10.5614 112.659 10.2659 111.571 9.88284C110.736 9.59829 110.593 9.5764 108.713 9.5764C106.899 9.5764 106.647 9.59829 105.657 9.8719C103.316 10.5286 101.425 11.7106 100.26 13.2537L99.7544 13.9214V6.96067V-3.8147e-06H96.1819H92.6094V19.2623Z" fill="white"/>
<path d="M76.5607 9.37939C73.208 9.69678 71.0865 10.638 69.2618 12.5971C67.8987 14.0636 67.2832 15.7272 67.2832 17.8942C67.2832 20.1159 67.8548 21.6153 69.2398 23.0709C70.6248 24.5156 71.6691 25.0847 76.3738 26.8686C78.0886 27.5253 79.5726 28.1601 79.9244 28.3899C81.1115 29.1779 81.4633 30.2286 80.9027 31.3668C80.2212 32.7677 78.3305 33.3806 75.7363 33.0632C73.274 32.7677 71.3393 31.914 69.9433 30.5241L69.3827 29.9659L67.481 31.8593C66.4258 32.91 65.5684 33.8074 65.5684 33.8621C65.5684 33.9169 66.096 34.486 66.7555 35.1317C68.943 37.3097 71.2184 38.4807 74.3073 39.0279C75.6374 39.2578 78.4954 39.2797 79.8035 39.0827C84.1564 38.3932 87.3002 35.8759 88.2236 32.3409C88.5204 31.2245 88.5424 29.3749 88.2786 28.3461C87.9598 27.0985 87.2892 25.8946 86.4099 25.0081C84.8709 23.4649 83.9366 22.9834 78.2315 20.7835C75.2966 19.6562 74.758 19.2732 74.4722 18.1459C74.2193 17.1718 74.736 16.2525 75.8352 15.6725C76.3628 15.3988 76.4838 15.377 77.8248 15.377C79.0999 15.377 79.3528 15.4098 80.2212 15.6943C81.3094 16.0446 82.6505 16.8107 83.5518 17.5658L84.1344 18.0693L85.9592 15.3551L87.7839 12.6408L87.1354 12.0389C85.4865 10.5176 83.2001 9.67489 80.0013 9.41222C78.7592 9.31372 77.3851 9.29183 76.5607 9.37939Z" fill="white"/>
<path d="M135.756 9.58732C134.206 9.79527 133.645 9.91566 132.733 10.2002C128.534 11.5245 125.016 15.1581 123.763 19.4592C123.302 21.0571 123.137 22.3376 123.137 24.2967C123.148 28.4227 124.203 31.5419 126.588 34.4094C129.183 37.5395 132.788 39.1812 137.075 39.1812C140.406 39.1812 143.143 38.1414 145.396 36.0291L146.144 35.3287V36.9266V38.5245H149.661H153.179V24.4061V10.2878H149.661H146.144V11.9294V13.5821L145.462 12.9035C143.813 11.3056 141.857 10.2659 139.625 9.78432C138.856 9.62016 136.404 9.48882 135.756 9.58732ZM140.483 16.4823C142.901 17.1281 145.001 19.1747 145.88 21.7357C146.309 22.9833 146.375 25.03 146.045 26.4199C145.352 29.3092 143.11 31.6295 140.318 32.3518C139.361 32.6035 137.328 32.6035 136.361 32.3628C133.634 31.6623 131.458 29.4625 130.677 26.595C130.403 25.61 130.414 23.1147 130.688 22.1078C131.37 19.5906 133.239 17.5002 135.525 16.6684C136.855 16.1868 139.076 16.0993 140.483 16.4823Z" fill="white"/>
<path d="M158.127 24.4061V38.5245H161.754H165.382V31.6514C165.393 27.8755 165.437 24.2858 165.492 23.6729C165.855 19.6015 167.514 17.3141 170.548 16.6794C171.823 16.4167 172.593 16.5042 174.055 17.1062C174.747 17.3907 175.363 17.6206 175.407 17.6206C175.517 17.6206 175.517 11.2618 175.407 11.0867C175.352 11.0101 174.923 10.835 174.44 10.7037C173.274 10.3863 170.241 10.3535 169.119 10.649C167.602 11.0539 166.547 11.8419 165.624 13.2537L165.162 13.9542V12.1155V10.2878H161.645H158.127V24.4061Z" fill="white"/>
<path d="M180.33 24.4061V38.5245H184.002H187.684L187.728 30.7211C187.761 23.3226 187.772 22.8739 187.992 21.9436C188.289 20.6413 188.673 19.7329 189.278 18.8792C190.344 17.4017 191.982 16.6027 194.016 16.5918C194.961 16.5918 195.06 16.6137 196.357 17.15L197.698 17.7191V14.3482V10.9773L197.071 10.8022C195.917 10.4848 194.818 10.3644 193.466 10.4301C191.806 10.5067 190.751 10.7365 189.926 11.229C189.08 11.7325 188.684 12.1374 187.959 13.1771L187.365 14.0527V12.1702V10.2878H183.848H180.33V24.4061Z" fill="white"/>
<path d="M201.564 10.5833C201.597 10.6927 203.708 16.6356 206.269 23.8042C210.018 34.3437 210.908 36.9375 210.908 37.3863C210.919 38.5902 209.633 40.6258 208.358 41.4248C206.5 42.5958 203.213 42.4098 200.85 40.9979L200.256 40.6368L200.179 43.8544C200.135 45.6275 200.135 47.1268 200.179 47.1925C200.223 47.2582 200.619 47.4771 201.059 47.6741C203.851 48.9655 208.292 48.8561 211.139 47.4333C212.271 46.8751 212.821 46.4592 213.799 45.4852C214.81 44.4783 215.811 43.0227 216.613 41.4248C216.921 40.8228 219.823 33.6104 223.077 25.3911L229.001 10.4519L225.033 10.4191C222.857 10.4082 221.054 10.4082 221.032 10.4301C221.01 10.4519 219.614 14.3153 217.921 18.9996C214.349 28.8934 214.612 28.1929 214.513 27.9959C214.47 27.9193 213.425 23.9246 212.194 19.1309L209.952 10.3972H205.731C201.773 10.3972 201.521 10.4082 201.564 10.5833Z" fill="white"/>
<path d="M15.1438 0.164188C14.1545 0.383078 13.1762 0.9303 12.4177 1.70736C11.8461 2.28741 11.0437 3.61169 6.08611 12.214C2.96428 17.6206 0.315125 22.3267 0.205201 22.6551C-0.0806 23.5416 -0.0696077 25.0191 0.249171 25.9931C0.381079 26.409 0.930696 27.4925 1.45833 28.4009L2.42566 30.0426L10.56 30.0754L18.6833 30.0973L24.1905 21.8561C27.9609 16.2088 29.8296 13.5055 30.0934 13.2975C30.9068 12.6847 30.621 12.7065 39.9316 12.6956C44.6583 12.6956 48.5276 12.6737 48.5276 12.6518C48.5276 12.4986 42.7126 2.57197 42.3389 2.09041C41.7893 1.37902 40.8 0.678577 39.8326 0.31741L39.1291 0.0547428L27.4772 0.0328541C17.9688 0.0219097 15.7044 0.0437984 15.1438 0.164188Z" fill="white"/>
<path d="M28.0744 26.5622C25.1065 31.0057 22.5233 34.8034 22.3364 35.0113C22.1385 35.2083 21.7428 35.4929 21.435 35.6352L20.8854 35.8978H13.3886C9.25551 35.8978 5.88086 35.9197 5.88086 35.9526C5.88086 36.1277 11.7947 46.2075 12.1465 46.6234C12.6961 47.291 13.7184 47.9696 14.6308 48.276L15.3892 48.5387H27.206C38.4402 48.5387 39.0558 48.5278 39.6274 48.3308C40.7926 47.9368 41.8259 47.2363 42.4304 46.4045C42.8811 45.7807 53.5107 27.4268 53.9284 26.5403C54.3351 25.6757 54.5 24.5375 54.3571 23.4978C54.2362 22.6222 53.7635 21.5715 52.5984 19.6125L51.9278 18.4962H42.6942H33.4717L28.0744 26.5622Z" fill="white"/>
</svg>
