<svg width="79" height="940" viewBox="0 0 79 940" fill="none" xmlns="http://www.w3.org/2000/svg">
<path d="M1 887.218L4.86614 889.695V868.646L1 866.928V887.218Z" fill="#ED26B7"/>
<path d="M78.584 887.218L74.7179 889.695V868.646L78.584 866.928V887.218Z" fill="#B01B88"/>
<path d="M19.9797 901.973L29.0007 906.269H50.4792L59.5002 901.973L70.0696 880.418H9.49037L19.9797 901.973Z" fill="#BFC9D1"/>
<path d="M29.0022 906.441L33.4957 893.435L23.4359 887.982L19.9816 901.974L29.0022 906.441Z" fill="#A0AFBB"/>
<path d="M30.719 868.85H48.591L46.4432 865.459H32.4373L30.719 868.85Z" fill="#A0AFBB"/>
<mask id="mask0_3861_1523" style="mask-type:alpha" maskUnits="userSpaceOnUse" x="30" y="865" width="19" height="4">
<path d="M30.719 868.85H48.591L46.4432 865.459H32.4373L30.719 868.85Z" fill="#A0AFBB"/>
</mask>
<g mask="url(#mask0_3861_1523)">
<path d="M40.6863 865.344V869.024H49.2109L47.1312 865.344H40.6863Z" fill="#8296A5"/>
</g>
<path fill-rule="evenodd" clip-rule="evenodd" d="M44.3426 939.525H35.1375L29.0008 906.448L33.3842 893.561H46.0959L50.4793 906.448L44.3426 939.525ZM33.3855 893.561L1.00375 875.747V871.996L4.86597 868.645H74.7215L78.575 872.019V875.738L46.0964 893.561H33.3855Z" fill="#F4F9FE"/>
<mask id="mask1_3861_1523" style="mask-type:alpha" maskUnits="userSpaceOnUse" x="1" y="868" width="78" height="72">
<path fill-rule="evenodd" clip-rule="evenodd" d="M44.3426 939.525H35.1375L29.0008 906.448L33.3842 893.561H46.0959L50.4793 906.448L44.3426 939.525ZM33.3855 893.561L1.00375 875.747V871.996L4.86597 868.645H74.7215L78.575 872.019V875.738L46.0964 893.561H33.3855Z" fill="#68A2CA"/>
</mask>
<g mask="url(#mask1_3861_1523)">
<path d="M11.4437 868.408L7.41006 872.154L18.1913 877.983C19.1453 878.499 20.3248 878.327 21.0917 877.56L26.498 872.154V867.976" stroke="#A0AFBB" stroke-width="0.715972"/>
<path d="M39.8671 940.268V868.719V867.833L73.8054 867.073L79.5039 870.872V875.558L47.5919 893.666L52.1508 905.823L45.5657 940.268H39.8671Z" fill="#C9D7E2"/>
<path d="M68.2241 868.408L72.2578 872.154L61.4766 877.983C60.5226 878.499 59.3431 878.327 58.5762 877.56L53.1699 872.154V867.976" stroke="#A0AFBB" stroke-width="0.715972"/>
</g>
<path d="M50.4779 906.441L45.9844 893.435L56.0441 887.982L59.4985 901.974L50.4779 906.441Z" fill="#A0AFBB"/>
<path d="M37.5553 924.253H41.9247L44.8377 906.431L42.757 902.333H36.723L34.6423 906.431L37.5553 924.253Z" fill="#ED26B7"/>
<mask id="mask2_3861_1523" style="mask-type:alpha" maskUnits="userSpaceOnUse" x="34" y="902" width="11" height="23">
<path d="M37.5553 924.253H41.9247L44.8377 906.431L42.757 902.333H36.723L34.6423 906.431L37.5553 924.253Z" fill="#ED26B7"/>
</mask>
<g mask="url(#mask2_3861_1523)">
<path d="M39.818 908.298V924.259H37.5503L34.6423 906.431L36.7127 902.331H39.818V908.298Z" fill="#F38AD7"/>
<path d="M34.5562 906.392L39.659 908.325L44.9276 906.392" stroke="#F2F4F6" stroke-width="0.429571"/>
<path d="M39.7017 908.303V924.257" stroke="#F2F4F6" stroke-width="0.429571"/>
</g>
<path d="M34.3156 863.51H44.9944C44.4469 850.542 40.5674 848.161 39.7932 847C35.5858 850.949 34.369 859.671 34.3156 863.51Z" fill="url(#paint0_linear_3861_1523)"/>
<path d="M35.9501 863.51H43.3599C42.98 854.512 40.2881 852.86 39.7509 852.054C36.8314 854.794 35.9872 860.847 35.9501 863.51Z" fill="url(#paint1_radial_3861_1523)"/>
<path d="M49.1299 881.366C49.1299 886.53 44.9438 890.716 39.78 890.716C34.6162 890.716 30.4301 886.53 30.4301 881.366C30.4301 876.202 34.6162 872.016 39.78 872.016C44.9438 872.016 49.1299 876.202 49.1299 881.366Z" fill="#ED27B7"/>
<path d="M44.8202 879.795C44.7839 881.344 43.929 882.573 42.6238 883.053V885.749C42.2942 885.959 41.9435 886.134 41.5774 886.267V880.469C41.5774 879.32 41.0444 878.807 40.188 878.807C39.3542 878.807 38.6568 879.437 38.6568 880.49C38.6568 881.665 39.5729 882.383 40.7726 882.383C40.8837 882.385 40.9968 882.379 41.1079 882.362V883.388C40.9968 883.407 40.8857 883.417 40.7726 883.415C38.9922 883.415 37.597 882.323 37.597 880.488C37.597 878.722 38.8561 877.781 40.2591 877.781C40.924 877.781 41.499 878.007 41.8958 878.395C42.2924 878.784 42.6281 879.345 42.6281 880.331V881.937C43.3525 881.575 43.7894 880.698 43.7914 879.695C43.7876 877.806 42.0339 876.209 39.9776 876.209C39.9297 876.209 39.8932 876.209 39.8453 876.211C38.4348 876.213 37.1949 876.722 36.1905 877.727C35.4679 878.451 34.9735 879.372 34.7742 880.373C34.5749 881.376 34.6765 882.414 35.0693 883.36C35.4603 884.303 36.1233 885.111 36.9741 885.68C37.825 886.249 38.8256 886.551 39.8489 886.551V887.604C39.0305 887.604 38.2199 887.443 37.4647 887.131C36.7096 886.819 36.0217 886.36 35.4429 885.783C34.2738 884.617 33.6164 883.034 33.6164 881.384C33.6164 879.734 34.2718 878.15 35.4389 876.982C36.606 875.815 38.1909 875.158 39.8431 875.158H39.9753C40.4833 875.158 40.9893 875.236 41.4761 875.388C41.4781 875.388 41.4798 875.39 41.4819 875.39C42.1851 875.608 42.8291 875.979 43.3696 876.477C44.3029 877.339 44.8167 878.477 44.8204 879.689C44.8222 879.693 44.8202 879.793 44.8202 879.795Z" fill="white"/>
<path d="M1 862V532" stroke="url(#paint2_linear_3861_1523)"/>
<path d="M1.00002 406L1 0" stroke="url(#paint3_radial_3861_1523)"/>
<path d="M75 612V282" stroke="url(#paint4_radial_3861_1523)"/>
<path d="M78 862L78 687" stroke="url(#paint5_linear_3861_1523)"/>
<defs>
<linearGradient id="paint0_linear_3861_1523" x1="39.9959" y1="861.361" x2="39.655" y2="844.543" gradientUnits="userSpaceOnUse">
<stop stop-color="#FF9212"/>
<stop offset="0.88194" stop-color="#874900" stop-opacity="0.5"/>
</linearGradient>
<radialGradient id="paint1_radial_3861_1523" cx="0" cy="0" r="1" gradientUnits="userSpaceOnUse" gradientTransform="translate(39.655 863.51) rotate(-89.8618) scale(11.4562 12.3689)">
<stop stop-color="#E5C100" stop-opacity="0.01"/>
<stop offset="0.622082" stop-color="#FADB36" stop-opacity="0.8218"/>
<stop offset="1" stop-color="#FFF8D3"/>
</radialGradient>
<linearGradient id="paint2_linear_3861_1523" x1="1" y1="532" x2="0.999973" y2="864.829" gradientUnits="userSpaceOnUse">
<stop stop-color="white" stop-opacity="0"/>
<stop offset="1" stop-color="white"/>
</linearGradient>
<radialGradient id="paint3_radial_3861_1523" cx="0" cy="0" r="1" gradientUnits="userSpaceOnUse" gradientTransform="translate(1.00001 204.74) rotate(90) scale(204.74 4.5034e+07)">
<stop stop-color="white" stop-opacity="0.3"/>
<stop offset="1" stop-color="white" stop-opacity="0"/>
</radialGradient>
<radialGradient id="paint4_radial_3861_1523" cx="0" cy="0" r="1" gradientUnits="userSpaceOnUse" gradientTransform="translate(75 448.414) rotate(90) scale(166.414 4.5034e+07)">
<stop stop-color="white" stop-opacity="0.3"/>
<stop offset="1" stop-color="white" stop-opacity="0"/>
</radialGradient>
<linearGradient id="paint5_linear_3861_1523" x1="78" y1="687" x2="78" y2="863.5" gradientUnits="userSpaceOnUse">
<stop stop-color="white" stop-opacity="0"/>
<stop offset="1" stop-color="white"/>
</linearGradient>
</defs>
</svg>
