<svg width="393" height="236" viewBox="0 0 393 236" fill="none" xmlns="http://www.w3.org/2000/svg">
<rect y="0.56543" width="393" height="235" fill="#1C0D3F"/>
<path d="M274.493 176.419C274.482 178.695 272.976 180.892 269.976 182.585L236.781 202.024C230.709 205.409 220.877 205.363 214.837 201.921L121.749 148.197C118.764 146.476 117.279 144.193 117.289 141.989C117.3 139.713 118.806 137.516 121.806 135.823L155.002 116.385C161.073 112.999 170.905 113.045 176.945 116.487L270.033 170.212C273.018 171.861 274.504 174.144 274.493 176.419Z" fill="#1C0D3F" stroke="#F2F4F6" stroke-width="0.793204"/>
<path d="M274.506 173.595C274.496 175.871 272.989 178.068 269.989 179.761L236.794 199.199C230.722 202.585 220.89 202.539 214.85 199.097L121.762 145.372C118.777 143.652 117.292 141.369 117.302 139.165C117.313 136.889 118.819 134.692 121.819 132.999L155.015 113.56C161.086 110.175 170.918 110.221 176.958 113.663L270.047 167.387C273.031 169.037 274.517 171.319 274.506 173.595Z" fill="white" stroke="#1B127D" stroke-width="0.793204"/>
<path d="M274.506 173.595C274.496 175.87 272.989 178.068 269.989 179.76L236.794 199.199C230.722 202.584 220.89 202.538 214.85 199.097L121.762 145.372C118.777 143.651 117.292 141.369 117.302 139.164C117.313 136.889 118.819 134.691 121.819 132.998L155.015 113.56C161.086 110.175 170.918 110.221 176.958 113.662L270.047 167.387C273.031 169.036 274.517 171.319 274.506 173.595Z" fill="#1C0D3F" stroke="#F2F4F6" stroke-width="0.793204"/>
<path d="M125.787 139.384L224.842 196.043" stroke="#BFC9D1" stroke-width="0.5"/>
<path d="M135.709 133.312L234.764 189.971" stroke="#BFC9D1" stroke-width="0.5"/>
<path d="M146.101 127.711L245.156 184.37" stroke="#BFC9D1" stroke-width="0.5"/>
<path d="M156.024 121.638L255.079 178.297" stroke="#BFC9D1" stroke-width="0.5"/>
<path d="M166.415 116.038L265.47 172.697" stroke="#BFC9D1" stroke-width="0.5"/>
<path d="M133.931 140.319H154.049L166.647 152.353L199.362 154.233L205.567 165.891L254.264 171.531" stroke="#ED26B7" stroke-width="2" stroke-linecap="round"/>
<path d="M213.171 40.6172L198.897 48.4577L213.171 56.3566L226.684 48.3721L213.171 40.6172Z" fill="#ED26B7"/>
<path d="M198.946 112.625V48.6445L213.124 56.417V120.253L198.946 112.625Z" fill="#1C0D3F"/>
<path d="M226.785 112.811V48.9007L212.79 56.7371V120.731L226.785 112.811Z" fill="#1C0D3F"/>
<path d="M212.957 40.8384L198.75 48.7723V112.797L212.957 120.546L226.611 112.797V48.7723L212.957 40.8384Z" stroke="#F2F4F6"/>
<path d="M198.946 48.9175L212.891 56.6239L226.591 48.9175" stroke="#F2F4F6"/>
<path d="M212.902 56.8335L212.902 120.369" stroke="#F2F4F6"/>
<path d="M238.801 63.3545L224.526 71.195L238.801 79.0939L252.313 71.1094L238.801 63.3545Z" fill="#ED26B7"/>
<path d="M224.253 125.362V71.3818L238.431 79.1543V132.991L224.253 125.362Z" fill="#1C0D3F"/>
<path d="M252.366 125.362V71.3818L238.372 79.2182V133.291L252.366 125.362Z" fill="#1C0D3F"/>
<path d="M238.586 63.5757L224.379 71.5096V125.534L238.586 133.284L252.24 125.534V71.5096L238.586 63.5757Z" stroke="#F2F4F6"/>
<path d="M224.576 71.6548L238.52 79.3612L252.221 71.6548" stroke="#F2F4F6"/>
<path d="M238.532 79.5708L238.532 133.04" stroke="#F2F4F6"/>
<path d="M262.51 85.9424L248.235 93.7829L262.51 101.682L276.022 93.6973L262.51 85.9424Z" fill="#ED26B7"/>
<path d="M247.962 137.95V93.9697L262.139 101.742V145.578L247.962 137.95Z" fill="#1C0D3F"/>
<path d="M276.075 137.95V93.9697L262.081 101.806V145.879L276.075 137.95Z" fill="#1C0D3F"/>
<path d="M262.295 86.1636L248.088 94.0975V138.122L262.295 145.872L275.949 138.122V94.0975L262.295 86.1636Z" stroke="#F2F4F6"/>
<path d="M248.284 94.2427L262.229 101.949L275.93 94.2427" stroke="#F2F4F6"/>
<path d="M262.241 102.159L262.241 145.628" stroke="#F2F4F6"/>
<path d="M287.186 109.267L272.912 117.108L287.186 125.006L300.699 117.022L287.186 109.267Z" fill="#ED26B7"/>
<path d="M272.638 151.274V117.294L286.816 125.067V158.903L272.638 151.274Z" fill="#1C0D3F"/>
<path d="M300.751 151.274V117.294L286.757 125.131V159.203L300.751 151.274Z" fill="#1C0D3F"/>
<path d="M286.972 109.488L272.764 117.422V151.447L286.972 159.196L300.625 151.447V117.422L286.972 109.488Z" stroke="#F2F4F6"/>
<path d="M272.961 117.567L286.906 125.274L300.606 117.567" stroke="#F2F4F6"/>
<path d="M286.917 125.483L286.917 159.004" stroke="#F2F4F6"/>
<path d="M174.871 119.561C181.077 116.384 190.46 116.675 195.836 120.161C196.401 120.527 196.932 120.947 197.422 121.414C197.602 121.231 197.775 106.601 197.934 106.417C200.492 103.403 199.865 99.7159 195.836 97.1056C190.46 93.6127 181.077 93.3434 174.871 96.4992C169.653 99.1534 168.385 103.386 171.268 106.733C171.432 106.924 171.605 121.562 171.787 121.737C172.693 120.856 173.732 120.123 174.871 119.561Z" fill="#1B127D"/>
<path d="M218.862 100.921C218.365 96.8103 215.619 92.794 210.552 89.4964C198.127 81.3958 176.42 80.8023 162.071 88.105C154.504 91.9601 150.497 97.2434 150.216 102.565V103.692C150.396 107.318 152.327 110.93 156.068 114.055C156.866 114.732 157.704 115.358 158.576 115.93C171 124.031 192.708 124.624 207.057 117.329C209.219 116.252 211.235 114.925 213.068 113.371C216.484 110.424 218.422 107.07 218.833 103.659C218.837 103.599 218.837 103.538 218.833 103.478L218.862 100.921Z" fill="#1C0D3F"/>
<path d="M218.862 100.921L219.259 100.926L219.259 100.9L219.256 100.874L218.862 100.921ZM210.552 89.4964L210.336 89.8286L210.336 89.8288L210.552 89.4964ZM162.071 88.105L161.891 87.7516L161.891 87.7516L162.071 88.105ZM150.216 102.565L149.819 102.544L149.819 102.554V102.565H150.216ZM150.216 103.692H149.819V103.702L149.819 103.712L150.216 103.692ZM156.068 114.055L156.324 113.753L156.322 113.751L156.068 114.055ZM158.576 115.93L158.358 116.262L158.359 116.262L158.576 115.93ZM207.057 117.329L206.88 116.974L206.877 116.975L207.057 117.329ZM213.068 113.371L213.324 113.674L213.327 113.672L213.068 113.371ZM218.833 103.659L219.227 103.706L219.228 103.694L219.229 103.681L218.833 103.659ZM218.833 103.478L218.437 103.473L218.436 103.487L218.437 103.5L218.833 103.478ZM219.256 100.874C218.74 96.6115 215.9 92.5038 210.769 89.164L210.336 89.8288C215.338 93.0843 217.989 97.009 218.468 100.969L219.256 100.874ZM210.769 89.1642C204.478 85.0629 195.868 82.8775 187.044 82.628C178.219 82.3784 169.136 84.0642 161.891 87.7516L162.251 88.4585C169.355 84.8431 178.3 83.1743 187.022 83.4209C195.746 83.6676 204.201 85.8293 210.336 89.8286L210.769 89.1642ZM161.891 87.7516C154.257 91.6407 150.111 97.0251 149.819 102.544L150.612 102.585C150.882 97.4617 154.75 92.2794 162.251 88.4584L161.891 87.7516ZM149.819 102.565V103.692H150.612V102.565H149.819ZM149.819 103.712C150.006 107.474 152.009 111.182 155.813 114.36L156.322 113.751C152.645 110.679 150.785 107.163 150.612 103.672L149.819 103.712ZM155.811 114.358C156.622 115.045 157.473 115.681 158.358 116.262L158.793 115.598C157.935 115.035 157.11 114.419 156.324 113.753L155.811 114.358ZM158.359 116.262C164.65 120.364 173.26 122.549 182.083 122.799C190.909 123.05 199.992 121.366 207.237 117.682L206.877 116.975C199.773 120.587 190.827 122.254 182.106 122.006C173.382 121.759 164.926 119.597 158.792 115.598L158.359 116.262ZM207.234 117.684C209.424 116.593 211.467 115.248 213.324 113.674L212.811 113.069C211.003 114.601 209.013 115.911 206.88 116.974L207.234 117.684ZM213.327 113.672C216.798 110.677 218.801 107.238 219.227 103.706L218.439 103.611C218.043 106.901 216.169 110.172 212.808 113.071L213.327 113.672ZM219.229 103.681C219.233 103.606 219.233 103.531 219.229 103.455L218.437 103.5C218.44 103.546 218.44 103.591 218.437 103.636L219.229 103.681ZM219.23 103.482L219.259 100.926L218.465 100.917L218.437 103.473L219.23 103.482Z" fill="#F2F4F6"/>
<path d="M207.071 139.336C192.722 146.639 171.037 146.018 158.59 137.945C153.206 134.444 150.446 130.124 150.216 125.749V103.692C150.396 107.318 152.327 110.93 156.068 114.055C156.866 114.731 157.704 115.358 158.576 115.93C171 124.03 192.708 124.624 207.057 117.328C209.219 116.252 211.235 114.924 213.068 113.371C216.513 110.404 218.458 107.014 218.833 103.586L218.891 123.624C219.258 129.359 215.237 135.184 207.071 139.336Z" fill="#1C0D3F" stroke="#F2F4F6" stroke-width="0.793204"/>
<path d="M197.183 107.188L212.829 114.07V135.302C212.829 135.302 202.934 143.99 184.765 143.978C184.477 138.284 184.765 122.772 184.765 122.772L180.772 111.094C180.772 111.094 190.401 112.804 197.183 107.188Z" fill="#ED26B7"/>
<path d="M184.669 122.427C184.669 122.427 202.514 122.017 212.83 113.703V135.299C212.83 135.299 201.941 144.682 184.669 143.935C184.669 136.101 184.669 122.427 184.669 122.427Z" fill="#ED26B7"/>
<path d="M129.671 109.254H129.512L119.376 103.309C119.059 103.151 118.91 103.002 118.91 102.844L113.956 94.2538V89.5774L128.621 83.8013V88.4777L126.897 93.6296L135.636 88.4777L136.102 91.45L131.147 108.461C131.097 108.787 130.896 109.069 130.606 109.225C130.316 109.381 129.97 109.391 129.671 109.254Z" fill="url(#paint0_linear_3987_5502)" stroke="#1B127D" stroke-width="0.764251"/>
<path d="M115.373 95.5001V90.8137L130.049 85.0376V89.7734L128.324 94.9254L137.069 89.9716L137.536 92.9439L132.389 109.955C132.072 110.738 131.606 110.946 130.981 110.579L120.678 104.635C120.371 104.476 120.212 104.318 120.212 104.159L115.373 95.5001Z" fill="#1C0D3F" stroke="#F2F4F6" stroke-width="0.764251"/>
<path d="M153.025 34.7799C150.063 33.2778 146.558 33.2778 143.596 34.7799L99.2634 60.0585C97.9385 60.9933 96.8132 62.1812 95.9532 63.5533C95.112 64.9462 94.6282 66.5241 94.5444 68.1476V102.124C94.6401 105.444 96.3676 108.505 99.1649 110.311C102.162 111.813 105.695 111.813 108.692 110.311L125.233 100.72L130.75 110.213C130.877 110.451 131.093 110.631 131.351 110.714C131.627 110.852 131.952 110.852 132.229 110.715C132.506 110.578 132.702 110.32 132.759 110.017L137.774 93.5244L153.123 84.6205C154.758 83.8246 156.095 82.5275 156.936 80.9195C157.367 79.5662 157.537 78.144 157.438 76.7276V42.7708C157.537 39.4625 155.931 36.7825 153.025 34.7799Z" fill="#1C0D3F" stroke="#F2F4F6" stroke-width="0.764251"/>
<path d="M103.75 67.3677C102.952 68.7866 102.392 70.3727 102.362 72.0213L102.715 107.95C102.715 109.106 103.014 110.38 103.798 110.902C104.583 111.424 105.507 111.406 106.51 111.104C101.906 111.987 100.366 110.992 97.732 109.6C96.3426 108.73 94.9183 107.278 94.1754 105.817C93.3868 104.382 93 103.164 93 100.814V66.7142C93.1264 65.082 93.5996 63.4955 94.3882 62.0605L103.75 67.3677Z" fill="#1C0D3F" stroke="#F2F4F6" stroke-width="0.764251"/>
<path d="M151.259 33.1618C153.698 34.6675 155.94 36.1435 156.763 39.0774C156.458 37.992 155.965 37.5463 155.041 37.3996C154.035 37.1872 152.986 37.3508 152.093 37.8592L107.17 63.8173C105.743 64.6782 104.57 65.8994 103.77 67.3571L94.4948 61.9691C95.2475 60.4754 96.4314 59.2394 97.8946 58.4196L141.817 33.1618C144.772 31.6127 148.304 31.6127 151.259 33.1618Z" fill="#1C0D3F" stroke="#F2F4F6" stroke-width="0.764251"/>
<path d="M136.929 73.4324L136.929 76.7408L149.884 63.5212L149.884 60.3824L136.929 62.0083L136.929 65.3451L146.333 63.9878L136.929 73.4324Z" fill="#ED26B7"/>
<path d="M125.409 64.6443L132.535 86.121L135.229 83.5477L128.127 62.0569L125.409 64.6443Z" fill="#ED26B7"/>
<path d="M110.097 86.4923L123.052 84.7533L123.052 81.4448L113.623 82.8728L123.027 73.3716L123.027 70.0349L110.097 83.3535L110.097 86.4923Z" fill="#ED26B7"/>
<path d="M197.242 107.173L212.622 113.911V135.917" stroke="#F2F4F6"/>
<ellipse cx="184.609" cy="102.585" rx="14.8516" ry="8.28662" stroke="#F2F4F6"/>
<path d="M180.639 110.666L184.679 122.722V144.034" stroke="#F2F4F6"/>
<defs>
<linearGradient id="paint0_linear_3987_5502" x1="137.241" y1="115.959" x2="102.347" y2="115.959" gradientUnits="userSpaceOnUse">
<stop stop-color="#F77645"/>
<stop offset="1" stop-color="#D3C054"/>
</linearGradient>
</defs>
</svg>
