<svg width="102" height="50" viewBox="0 0 102 50" fill="none" xmlns="http://www.w3.org/2000/svg">
<rect width="102" height="50" rx="6" fill="#8296A5"/>
<path d="M37.5126 32H27.6037V29.4847C31.3958 26.7216 34.0636 24.4921 34.0636 22.6437C34.0636 21.71 33.3776 20.8906 32.1199 20.8906C30.9194 20.8906 30.081 21.6338 29.5283 22.5103L27.4132 21.024C28.2516 19.3852 29.9285 18.2991 32.158 18.2991C34.7496 18.2991 37.1315 19.6139 37.1315 22.5484C37.1315 24.4349 36.0644 25.9213 34.7305 27.1218C33.7777 27.9793 32.7678 28.7034 31.8341 29.3322V29.3703H37.5126V32ZM45.1542 32.2858C41.5527 32.2858 39.59 29.4466 39.59 25.2924C39.59 21.1383 41.5527 18.2991 45.1542 18.2991C48.7557 18.2991 50.7184 21.1383 50.7184 25.2924C50.7184 29.4466 48.7557 32.2858 45.1542 32.2858ZM45.1542 29.7324C47.2122 29.7324 47.6314 27.0265 47.6314 25.2924C47.6314 23.5584 47.2122 20.8525 45.1542 20.8525C43.0962 20.8525 42.677 23.5584 42.677 25.2924C42.677 27.0265 43.0962 29.7324 45.1542 29.7324ZM62.8952 32H52.9863V29.4847C56.7784 26.7216 59.4462 24.4921 59.4462 22.6437C59.4462 21.71 58.7602 20.8906 57.5025 20.8906C56.302 20.8906 55.4636 21.6338 54.9109 22.5103L52.7958 21.024C53.6342 19.3852 55.3111 18.2991 57.5406 18.2991C60.1322 18.2991 62.5141 19.6139 62.5141 22.5484C62.5141 24.4349 61.447 25.9213 60.1131 27.1218C59.1603 27.9793 58.1504 28.7034 57.2167 29.3322V29.3703H62.8952V32ZM70.3844 32.2858C67.85 32.2858 66.2112 31.3331 65.4299 30.1326L67.4879 28.3032C68.3073 29.2751 69.2601 29.6943 70.27 29.6943C71.5086 29.6943 72.5948 29.1798 72.5948 28.0555C72.5948 27.4267 72.2709 26.9312 71.642 26.6644C71.2609 26.512 70.7655 26.4358 69.8317 26.4358H68.3645V23.9586H69.8317C70.4225 23.9586 70.9941 23.8823 71.3181 23.7299C71.8707 23.4631 72.2518 23.0248 72.2518 22.4151C72.2518 21.3479 71.3371 20.8716 70.2891 20.8716C69.1839 20.8716 68.2882 21.4432 67.6594 22.3388L65.5442 20.7001C66.2874 19.4043 67.8309 18.2991 70.3844 18.2991C73.0902 18.2991 75.2816 19.7663 75.2816 22.0721C75.2816 23.425 74.4432 24.5302 73.2046 25.0447V25.0638C74.6337 25.5973 75.5865 26.7978 75.5865 28.2651C75.5865 30.7042 73.2808 32.2858 70.3844 32.2858Z" fill="white"/>
</svg>
