<svg width="375" height="735" viewBox="0 0 375 735" fill="none" xmlns="http://www.w3.org/2000/svg">
<path d="M-92.7285 495.641L163.813 377.584" stroke="url(#paint0_linear_4123_421)" stroke-width="0.666899"/>
<path d="M-92.9892 648.635L163.813 403.159" stroke="url(#paint1_linear_4123_421)" stroke-width="0.666899"/>
<path d="M163.553 604.107L146.24 688.852" stroke="#ED26B7" stroke-width="0.666899"/>
<path d="M163.553 114.981L145.303 26.1525" stroke="#ED26B7" stroke-width="0.666899"/>
<path d="M-93.5106 224.132L163.813 342.646" stroke="url(#paint2_linear_4123_421)" stroke-width="0.666899"/>
<path d="M-93.2502 71.3657L163.846 315.46" stroke="url(#paint3_linear_4123_421)" stroke-width="0.666899"/>
<path d="M10.5256 688.852L10.5256 10.0773" stroke="#ED26B7" stroke-width="0.666899"/>
<path d="M42.0601 688.763L42.0601 27.0663" stroke="#ED26B7" stroke-width="0.666899"/>
<path d="M70.217 688.763L70.2171 27.0663" stroke="#ED26B7" stroke-width="0.666899"/>
<path d="M93.6809 688.763L93.6809 27.0663" stroke="#ED26B7" stroke-width="0.666899"/>
<path d="M111.41 688.763L111.41 27.0663" stroke="#ED26B7" stroke-width="0.666899"/>
<path d="M123.402 688.763L123.402 27.0663" stroke="#ED26B7" stroke-width="0.666899"/>
<path d="M133.309 688.763L133.309 27.0663" stroke="#ED26B7" stroke-width="0.666899"/>
<path d="M140.61 688.763L140.61 27.0663" stroke="#ED26B7" stroke-width="0.666899"/>
<path d="M147.388 688.763L147.388 27.0663" stroke="#ED26B7" stroke-width="0.666899"/>
<path d="M152.603 688.763L152.603 27.0663" stroke="#ED26B7" stroke-width="0.666899"/>
<path d="M157.296 688.763L157.296 27.0663" stroke="#ED26B7" stroke-width="0.666899"/>
<path d="M160.945 688.763L160.945 27.0663" stroke="#ED26B7" stroke-width="0.666899"/>
<path d="M163.813 688.368L163.813 30.2631" stroke="#ED26B7" stroke-width="0.666899"/>
<path d="M-2.26099 690.651L163.813 439.695" stroke="#ED26B7" stroke-width="0.666899"/>
<path d="M78.5601 689.51L163.813 489.247" stroke="#ED26B7" stroke-width="0.666899"/>
<path d="M120.796 689.053L163.813 544.279" stroke="#ED26B7" stroke-width="0.666899"/>
<path d="M-25.4868 6.47814L163.913 288.641" stroke="#ED26B7" stroke-width="0.666899"/>
<path d="M74.3887 28.8926L164.074 238.29" stroke="#ED26B7" stroke-width="0.666899"/>
<path d="M118.71 28.4356L164.07 181.887" stroke="#ED26B7" stroke-width="0.666899"/>
<path d="M163.641 359.543L-86.3829 359.543" stroke="url(#paint4_linear_4123_421)" stroke-width="0.666899"/>
<path d="M-58.165 637.746L165.913 529.775V734.199H-58.165V637.746Z" fill="url(#paint5_linear_4123_421)"/>
<path d="M-58.165 637.746L165.913 529.775V734.199H-58.165V637.746Z" fill="url(#paint6_linear_4123_421)"/>
<path d="M-41.4926 102.212L182.586 210.183V5.75856H-41.4926V102.212Z" fill="url(#paint7_linear_4123_421)"/>
<path d="M-41.4926 99.1708L182.586 210.183V0.00012207H-41.4926V99.1708Z" fill="url(#paint8_linear_4123_421)"/>
<path d="M469.314 495.641L212.772 377.584" stroke="url(#paint9_linear_4123_421)" stroke-width="0.666899"/>
<path d="M469.575 648.635L212.772 403.159" stroke="url(#paint10_linear_4123_421)" stroke-width="0.666899"/>
<path d="M213.033 604.107L230.346 688.852" stroke="#ED26B7" stroke-width="0.666899"/>
<path d="M213.033 114.981L231.283 26.1525" stroke="#ED26B7" stroke-width="0.666899"/>
<path d="M470.096 224.132L212.772 342.646" stroke="url(#paint11_linear_4123_421)" stroke-width="0.666899"/>
<path d="M469.836 71.3657L212.74 315.46" stroke="url(#paint12_linear_4123_421)" stroke-width="0.666899"/>
<path d="M366.06 688.852L366.06 10.0773" stroke="#ED26B7" stroke-width="0.666899"/>
<path d="M334.526 688.763L334.526 27.0663" stroke="#ED26B7" stroke-width="0.666899"/>
<path d="M306.369 688.763L306.369 27.0663" stroke="#ED26B7" stroke-width="0.666899"/>
<path d="M282.905 688.763L282.905 27.0663" stroke="#ED26B7" stroke-width="0.666899"/>
<path d="M265.176 688.763L265.176 27.0663" stroke="#ED26B7" stroke-width="0.666899"/>
<path d="M253.184 688.763L253.184 27.0663" stroke="#ED26B7" stroke-width="0.666899"/>
<path d="M243.277 688.763L243.277 27.0663" stroke="#ED26B7" stroke-width="0.666899"/>
<path d="M235.976 688.763L235.976 27.0663" stroke="#ED26B7" stroke-width="0.666899"/>
<path d="M229.198 688.763L229.197 27.0663" stroke="#ED26B7" stroke-width="0.666899"/>
<path d="M223.983 688.763L223.983 27.0663" stroke="#ED26B7" stroke-width="0.666899"/>
<path d="M219.29 688.763L219.29 27.0663" stroke="#ED26B7" stroke-width="0.666899"/>
<path d="M215.641 688.763L215.641 27.0663" stroke="#ED26B7" stroke-width="0.666899"/>
<path d="M212.772 688.368L212.772 30.2631" stroke="#ED26B7" stroke-width="0.666899"/>
<path d="M378.847 690.651L212.772 439.695" stroke="#ED26B7" stroke-width="0.666899"/>
<path d="M298.026 689.51L212.772 489.247" stroke="#ED26B7" stroke-width="0.666899"/>
<path d="M255.79 689.053L212.772 544.279" stroke="#ED26B7" stroke-width="0.666899"/>
<path d="M402.072 6.47814L212.673 288.641" stroke="#ED26B7" stroke-width="0.666899"/>
<path d="M302.197 28.8926L212.512 238.29" stroke="#ED26B7" stroke-width="0.666899"/>
<path d="M257.876 28.4356L212.516 181.887" stroke="#ED26B7" stroke-width="0.666899"/>
<path d="M212.944 359.543L462.969 359.543" stroke="url(#paint13_linear_4123_421)" stroke-width="0.666899"/>
<path d="M434.751 637.746L210.673 529.775V734.199H434.751V637.746Z" fill="url(#paint14_linear_4123_421)"/>
<path d="M434.751 637.746L210.673 529.775V734.199H434.751V637.746Z" fill="url(#paint15_linear_4123_421)"/>
<path d="M418.078 102.212L194 210.183V5.75856H418.078V102.212Z" fill="url(#paint16_linear_4123_421)"/>
<path d="M418.078 99.1708L194 210.183V0.00012207H418.078V99.1708Z" fill="url(#paint17_linear_4123_421)"/>
<defs>
<linearGradient id="paint0_linear_4123_421" x1="163.813" y1="377.584" x2="90.8046" y2="566.55" gradientUnits="userSpaceOnUse">
<stop offset="0.733603" stop-color="#ED26B7"/>
<stop offset="1" stop-color="#ED26B7" stop-opacity="0"/>
</linearGradient>
<linearGradient id="paint1_linear_4123_421" x1="163.813" y1="403.159" x2="-56.6172" y2="677.825" gradientUnits="userSpaceOnUse">
<stop offset="0.733603" stop-color="#ED26B7"/>
<stop offset="1" stop-color="#ED26B7" stop-opacity="0"/>
</linearGradient>
<linearGradient id="paint2_linear_4123_421" x1="163.813" y1="342.646" x2="-59.5919" y2="392.328" gradientUnits="userSpaceOnUse">
<stop offset="0.733603" stop-color="#ED26B7"/>
<stop offset="1" stop-color="#ED26B7" stop-opacity="0"/>
</linearGradient>
<linearGradient id="paint3_linear_4123_421" x1="163.846" y1="315.46" x2="-67.7057" y2="340.439" gradientUnits="userSpaceOnUse">
<stop offset="0.733603" stop-color="#ED26B7"/>
<stop offset="1" stop-color="#ED26B7" stop-opacity="0"/>
</linearGradient>
<linearGradient id="paint4_linear_4123_421" x1="163.501" y1="359.543" x2="163.179" y2="368.71" gradientUnits="userSpaceOnUse">
<stop offset="0.849677" stop-color="#ED26B7"/>
<stop offset="0.944273" stop-color="#ED26B7" stop-opacity="0"/>
</linearGradient>
<linearGradient id="paint5_linear_4123_421" x1="13.1932" y1="659.34" x2="13.1932" y2="720.883" gradientUnits="userSpaceOnUse">
<stop stop-color="#1C0D3F" stop-opacity="0"/>
<stop offset="1" stop-color="#1C0D3F"/>
</linearGradient>
<linearGradient id="paint6_linear_4123_421" x1="13.1932" y1="641.705" x2="39.6756" y2="697.437" gradientUnits="userSpaceOnUse">
<stop stop-color="#1C0D3F" stop-opacity="0"/>
<stop offset="1" stop-color="#1C0D3F"/>
</linearGradient>
<linearGradient id="paint7_linear_4123_421" x1="28.1984" y1="82.4176" x2="55.9656" y2="42.9706" gradientUnits="userSpaceOnUse">
<stop stop-color="#1C0D3F" stop-opacity="0"/>
<stop offset="1" stop-color="#1C0D3F"/>
</linearGradient>
<linearGradient id="paint8_linear_4123_421" x1="29.8657" y1="95.1004" x2="29.8657" y2="13.6916" gradientUnits="userSpaceOnUse">
<stop stop-color="#1C0D3F" stop-opacity="0"/>
<stop offset="1" stop-color="#1C0D3F"/>
</linearGradient>
<linearGradient id="paint9_linear_4123_421" x1="212.772" y1="377.584" x2="285.781" y2="566.55" gradientUnits="userSpaceOnUse">
<stop offset="0.733603" stop-color="#ED26B7"/>
<stop offset="1" stop-color="#ED26B7" stop-opacity="0"/>
</linearGradient>
<linearGradient id="paint10_linear_4123_421" x1="212.772" y1="403.159" x2="433.203" y2="677.825" gradientUnits="userSpaceOnUse">
<stop offset="0.733603" stop-color="#ED26B7"/>
<stop offset="1" stop-color="#ED26B7" stop-opacity="0"/>
</linearGradient>
<linearGradient id="paint11_linear_4123_421" x1="212.772" y1="342.646" x2="436.178" y2="392.328" gradientUnits="userSpaceOnUse">
<stop offset="0.733603" stop-color="#ED26B7"/>
<stop offset="1" stop-color="#ED26B7" stop-opacity="0"/>
</linearGradient>
<linearGradient id="paint12_linear_4123_421" x1="212.74" y1="315.46" x2="444.292" y2="340.439" gradientUnits="userSpaceOnUse">
<stop offset="0.733603" stop-color="#ED26B7"/>
<stop offset="1" stop-color="#ED26B7" stop-opacity="0"/>
</linearGradient>
<linearGradient id="paint13_linear_4123_421" x1="213.085" y1="359.543" x2="213.407" y2="368.71" gradientUnits="userSpaceOnUse">
<stop offset="0.849677" stop-color="#ED26B7"/>
<stop offset="0.944273" stop-color="#ED26B7" stop-opacity="0"/>
</linearGradient>
<linearGradient id="paint14_linear_4123_421" x1="363.393" y1="659.34" x2="363.393" y2="720.883" gradientUnits="userSpaceOnUse">
<stop stop-color="#1C0D3F" stop-opacity="0"/>
<stop offset="1" stop-color="#1C0D3F"/>
</linearGradient>
<linearGradient id="paint15_linear_4123_421" x1="363.393" y1="641.705" x2="336.91" y2="697.437" gradientUnits="userSpaceOnUse">
<stop stop-color="#1C0D3F" stop-opacity="0"/>
<stop offset="1" stop-color="#1C0D3F"/>
</linearGradient>
<linearGradient id="paint16_linear_4123_421" x1="348.387" y1="82.4176" x2="320.62" y2="42.9706" gradientUnits="userSpaceOnUse">
<stop stop-color="#1C0D3F" stop-opacity="0"/>
<stop offset="1" stop-color="#1C0D3F"/>
</linearGradient>
<linearGradient id="paint17_linear_4123_421" x1="346.72" y1="95.1004" x2="346.72" y2="13.6916" gradientUnits="userSpaceOnUse">
<stop stop-color="#1C0D3F" stop-opacity="0"/>
<stop offset="1" stop-color="#1C0D3F"/>
</linearGradient>
</defs>
</svg>
