<svg width="24" height="54" viewBox="0 0 24 54" fill="none" xmlns="http://www.w3.org/2000/svg">
<rect y="54" width="54" height="24" rx="4" transform="rotate(-90 0 54)" fill="#ED26B7"/>
<path d="M17 37.2764L17 44.5564L15.152 44.5564C13.122 41.7704 11.484 39.8104 10.126 39.8104C9.44 39.8104 8.838 40.3144 8.838 41.2384C8.838 42.1204 9.384 42.7364 10.028 43.1424L8.936 44.6964C7.732 44.0804 6.934 42.8484 6.934 41.2104C6.934 39.3064 7.9 37.5564 10.056 37.5564C11.442 37.5564 12.534 38.3404 13.416 39.3204C14.046 40.0204 14.578 40.7624 15.04 41.4484L15.068 41.4484L15.068 37.2764L17 37.2764ZM17.21 31.6622C17.21 34.3082 15.124 35.7502 12.072 35.7502C9.02 35.7502 6.934 34.3082 6.934 31.6622C6.934 29.0162 9.02 27.5742 12.072 27.5742C15.124 27.5742 17.21 29.0162 17.21 31.6622ZM15.334 31.6622C15.334 30.1502 13.346 29.8422 12.072 29.8422C10.798 29.8422 8.81 30.1502 8.81 31.6622C8.81 33.1742 10.798 33.4822 12.072 33.4822C13.346 33.4822 15.334 33.1742 15.334 31.6622ZM17 18.628L17 25.908L15.152 25.908C13.122 23.122 11.484 21.162 10.126 21.162C9.44 21.162 8.838 21.666 8.838 22.59C8.838 23.472 9.384 24.088 10.028 24.494L8.936 26.048C7.732 25.432 6.934 24.2 6.934 22.562C6.934 20.658 7.9 18.908 10.056 18.908C11.442 18.908 12.534 19.692 13.416 20.672C14.046 21.372 14.578 22.114 15.04 22.8L15.068 22.8L15.068 18.628L17 18.628ZM13.22 10.1718L13.22 8.82778L15.096 8.82778L15.096 10.1718L17 10.1718L17 12.3838L15.096 12.3838L15.096 17.1998L13.276 17.1998L7.144 13.4758L7.144 10.1718L13.22 10.1718ZM9.09 12.3838L9.09 12.4118L13.22 14.8898L13.22 12.3838L9.09 12.3838Z" fill="white"/>
</svg>
