<svg width="1053" height="90" viewBox="0 0 1053 90" fill="none" xmlns="http://www.w3.org/2000/svg">
<path fill-rule="evenodd" clip-rule="evenodd" d="M212.357 33.5143V52.5275H228.086V58.2513C224.623 59.9073 220.172 60.9629 215.696 60.9629C208.842 60.9629 203.752 58.496 200.357 54.7892C196.932 51.0484 195.081 45.8734 195.081 40.2452C195.081 34.2062 197.035 29.0355 200.389 25.4001C203.723 21.7873 208.588 19.5275 214.771 19.5275C219.709 19.5275 223.373 20.6613 226.176 22.3143C228.994 23.9759 231.078 26.2423 232.73 28.6968L234.245 30.9468L250.388 18.2238L248.998 16.2717C243.745 8.89614 231.81 0.000244141 214.771 0.000244141C190.303 0.000244141 172.675 18.1396 172.675 40.2452C172.675 62.3764 190.021 80.4902 215.696 80.4902C230.559 80.4902 242.028 74.569 248.701 68.7706L249.567 68.0184V33.5143H212.357ZM230.602 59.7779V50.0116H214.873V36.0303H247.051V66.8714C240.78 72.32 229.883 77.9742 215.696 77.9742C191.331 77.9742 175.191 60.9088 175.191 40.2452C175.191 19.5816 191.64 2.5162 214.771 2.5162C230.911 2.5162 242.116 10.9461 246.948 17.7312L234.817 27.2919C234.356 26.607 233.86 25.9288 233.322 25.2669C229.663 20.7626 224.092 17.0115 214.771 17.0115C201.098 17.0115 192.565 27.0863 192.565 40.2452C192.565 52.5817 200.686 63.4789 215.696 63.4789C221.144 63.4789 226.593 62.0396 230.602 59.7779ZM352.405 30.6376L367.569 18.3165L366.465 16.4502C361.645 8.3028 349.462 0.000244141 332.533 0.000244141C308.066 0.000244141 290.438 18.0368 290.438 40.348C290.438 62.4452 307.749 80.4902 332.43 80.4902C349.081 80.4902 361.061 72.4831 366.675 64.4L367.923 62.6021L353.58 49.3517L351.884 51.3784C347.936 56.0965 342.204 60.8601 332.636 60.8601C326.396 60.8601 321.505 58.5961 318.159 54.9945C314.794 51.371 312.844 46.2279 312.844 40.2452C312.844 28.9487 320.484 19.5275 332.533 19.5275C341.309 19.5275 347.024 23.9122 350.821 28.658L352.405 30.6376ZM332.43 77.9742C348.262 77.9742 359.468 70.3668 364.608 62.9649L353.814 52.9929C353.29 53.6182 352.734 54.2483 352.14 54.8722C347.951 59.2751 341.91 63.3761 332.636 63.3761C318.86 63.3761 310.328 53.3013 310.328 40.2452C310.328 27.8059 318.86 17.0115 332.533 17.0115C342.046 17.0115 348.34 21.6929 352.46 26.6859C352.57 26.8192 352.679 26.9527 352.786 27.0863L364.3 17.7312C359.982 10.4321 348.673 2.5162 332.533 2.5162C309.402 2.5162 292.954 19.4788 292.954 40.348C292.954 61.0116 309.094 77.9742 332.43 77.9742ZM455.402 74.6845C450.468 76.8434 444.916 77.9742 438.851 77.9742C415.823 77.9742 399.271 61.0116 399.271 40.348C399.271 19.6844 415.823 2.5162 438.851 2.5162C461.982 2.5162 478.533 19.4788 478.533 40.1424C478.533 49.806 474.935 58.6471 468.767 65.3294L477.711 74.2733L466.608 85.7873L455.402 74.6845ZM472.203 65.207C477.821 58.3156 481.049 49.5874 481.049 40.1424C481.049 18.0194 463.3 0.000244141 438.851 0.000244141C414.482 0.000244141 396.755 18.2469 396.755 40.348C396.755 62.4667 414.5 80.4902 438.851 80.4902C444.598 80.4902 449.952 79.5246 454.816 77.6458L466.649 89.3696L481.237 74.2412L472.203 65.207ZM458.675 51.5772L458.64 51.6495L458.597 51.7366C458.499 51.9342 458.398 52.1299 458.295 52.3237C458.003 52.8713 457.69 53.4032 457.356 53.9181L456.944 53.4041L445.43 41.9929L434.328 53.5069L443.58 62.8621L443.683 62.9649C443.598 62.9819 443.513 62.9982 443.428 63.014L443.426 63.0143C442.466 63.1923 441.504 63.2928 440.515 63.3407C440.003 63.3654 439.484 63.3761 438.954 63.3761C425.384 63.3761 416.645 53.0957 416.645 40.2452C416.645 27.3947 425.384 17.0115 438.954 17.0115C452.627 17.0115 461.159 27.3947 461.159 40.2452C461.159 44.3773 460.296 48.2437 458.675 51.5772ZM456.773 49.6924C457.984 46.9064 458.643 43.7016 458.643 40.2452C458.643 34.3715 456.696 29.1918 453.327 25.5072C449.981 21.8475 445.113 19.5275 438.954 19.5275C426.958 19.5275 419.161 28.5921 419.161 40.2452C419.161 51.5868 426.552 60.401 438.044 60.8428L430.811 53.5292L445.39 38.4104L456.773 49.6924ZM510.7 1.54184H488.603V45.0765C488.603 66.6504 505.291 80.4897 524.221 80.4897C543.347 80.4897 560.046 66.6601 560.046 45.0765V1.54184H537.949V44.7681C537.949 49.9091 536.719 53.9517 534.516 56.6609C532.377 59.2911 529.081 60.9625 524.221 60.9625C519.481 60.9625 516.234 59.3024 514.114 56.6701C511.929 53.9573 510.7 49.9087 510.7 44.7681V1.54184ZM524.221 77.9738C506.539 77.9738 491.119 65.1233 491.119 45.0765V4.05779H508.184V44.7681C508.184 55.7681 513.427 63.4784 524.221 63.4784C535.221 63.4784 540.464 55.7681 540.464 44.7681V4.05779H557.53V45.0765C557.53 65.1233 542.109 77.9738 524.221 77.9738ZM643.087 78.9477H619.893L614.547 63.8355H589.114L583.768 78.9477H561.088L590.115 1.54184H614.06L643.087 78.9477ZM587.335 61.3195H616.326L621.671 76.4317H639.457L612.316 4.05779H591.858L564.718 76.4317H581.989L587.335 61.3195ZM601.727 19.9924H601.933L611.391 46.927H592.27L601.727 19.9924ZM601.83 27.2935L595.82 44.4111H607.841L601.83 27.2935ZM645.737 1.54184V78.9477H676.421C687.775 78.9477 698.985 76.9589 707.705 68.2388C714.854 61.0901 719.236 50.9944 719.236 40.142C719.236 29.4909 714.955 19.825 708.25 12.8992C699.664 3.97997 689.195 1.54184 676.421 1.54184H645.737ZM676.421 4.05779C688.86 4.05779 698.524 6.42228 706.44 14.6466C712.711 21.1232 716.72 30.17 716.72 40.142C716.72 50.3195 712.608 59.7775 705.926 66.4597C697.907 74.4784 687.524 76.4317 676.421 76.4317H648.253V4.05779H676.421ZM696.83 40.142C696.83 45.9393 694.773 51.1289 691.296 54.6059C687.398 58.5045 682.402 59.5232 675.393 59.5232H667.834V20.7607H675.29C681.984 20.7607 687.228 21.5072 691.296 25.5752C694.587 28.8663 696.83 33.9642 696.83 40.142ZM665.318 18.2447V62.0392H675.393C682.589 62.0392 688.449 61.0111 693.075 56.385C697.085 52.3756 699.346 46.5158 699.346 40.142C699.346 33.3569 696.879 27.5999 693.075 23.7961C688.244 18.9644 682.075 18.2447 675.29 18.2447H665.318ZM791.593 78.9477H772.115L754.741 52.9383H749.452V78.9477H727.458V1.54184H758.661C764.873 1.54184 776.764 1.54184 784.697 9.47502C789.149 13.9274 792.116 20.4164 792.116 27.2915C792.116 37.5759 786.024 46.334 777.385 50.2156L793.625 73.5287L820.62 1.54184H844.565L873.593 78.9477H850.398L845.052 63.8355H819.619L814.273 78.9477H797.4H791.593ZM795.372 76.0361L795.648 76.4317H812.495L817.84 61.3195H846.831L852.177 76.4317H869.962L842.822 4.05779H822.364L795.372 76.0361ZM773.46 48.9831L792.552 76.39L792.537 76.4317H773.46L756.086 50.4223H746.936V76.4317H729.974V4.05779H758.656C765.03 4.05779 775.824 4.1606 782.918 11.2541C786.927 15.2634 789.6 21.1232 789.6 27.2915C789.6 36.7319 783.906 44.7276 775.918 48.1107C775.12 48.4485 774.3 48.7404 773.46 48.9831ZM746.936 18.4503H761.02C764.619 18.4503 767.497 18.7587 769.862 21.1232C771.301 22.5625 772.226 24.927 772.226 27.3943C772.226 29.9644 771.301 32.1233 769.862 33.5625C767.703 35.7214 764.824 36.2354 761.02 36.2354H746.936V18.4503ZM749.452 33.7195H761.02C764.688 33.7195 766.671 33.1949 768.083 31.7835C769.009 30.8575 769.71 29.3581 769.71 27.3943C769.71 25.4863 768.979 23.7985 768.083 22.9023C766.494 21.3132 764.561 20.9663 761.02 20.9663H749.452V33.7195ZM832.439 19.9924H832.233L822.775 46.927H841.897L832.439 19.9924ZM826.325 44.4111L832.336 27.2935L838.347 44.4111H826.325ZM897.62 78.9477H876.242V1.54184H902.603L924.663 44.5231V1.54184H946.041V78.9477H919.68L897.62 35.9666V78.9477ZM895.31 25.955H895.104V76.4317H878.758V4.05779H901.067L926.973 54.5345H927.179V4.05779H943.525V76.4317H921.216L895.31 25.955ZM951.881 1.54184H1019.21V20.8635H996.595V78.9477H974.498V20.8635H951.881V1.54184ZM977.014 18.3475V76.4317H994.079V18.3475H1016.7V4.05779H954.397V18.3475H977.014ZM282.219 78.9477H260.122V1.54184H282.219V78.9477ZM279.703 76.4317V4.05779H262.638V76.4317H279.703ZM175.651 78.9477H152.456L147.111 63.8355H121.677L116.332 78.9477H93.6513L122.678 1.54184H146.624L175.651 78.9477ZM119.899 61.3195H148.889L154.235 76.4317H172.02L144.88 4.05779H124.422L97.2818 76.4317H114.553L119.899 61.3195ZM134.291 19.9924H134.497L143.955 46.927H124.833L134.291 19.9924ZM134.394 27.2935L128.383 44.4111H140.405L134.394 27.2935ZM0 78.9477H21.3777V36.9623L35.3464 78.9477H55.4239L69.3926 36.9623V78.9477H90.9759V1.54184H60.7412L45.7824 46.326L30.6389 1.54184H0V78.9477ZM18.8618 22.0485H19.0674L37.1608 76.4317H53.6095L71.7029 22.0485H71.9085V76.4317H88.46V4.05779H62.5534L45.8992 53.9177H45.6936L28.8337 4.05779H2.51595V76.4317H18.8618V22.0485Z" fill="url(#paint0_linear_3974_1496)"/>
<path d="M1040.1 14.1984H1037.89V1.52637H1041.49L1045.05 11.2644H1045.09L1048.6 1.52637H1052.16V14.1984H1049.91V3.84837H1049.89L1046.15 14.1984H1043.88L1040.14 3.84837H1040.1V14.1984Z" fill="#2738F0"/>
<path d="M1025.45 1.52637H1035.98V3.52437H1031.89V14.1984H1029.53V3.52437H1025.45V1.52637Z" fill="#2738F0"/>
<defs>
<linearGradient id="paint0_linear_3974_1496" x1="30.2125" y1="44.6849" x2="989" y2="44.6849" gradientUnits="userSpaceOnUse">
<stop stop-color="#8104CA"/>
<stop offset="0.495" stop-color="#ED26B7"/>
<stop offset="1" stop-color="#2637EF"/>
</linearGradient>
</defs>
</svg>
