<svg width="1440" height="1021" viewBox="0 0 1440 1021" fill="none" xmlns="http://www.w3.org/2000/svg">
<g opacity="0.7">
<path d="M1503.95 688.739L1119.27 524.726" stroke="url(#paint0_linear_3974_1394)"/>
<path d="M1504.34 901.29L1119.27 560.257" stroke="url(#paint1_linear_3974_1394)"/>
<path d="M1119.66 839.428L1145.38 957.162" stroke="#ED26B7"/>
<path d="M1119.66 159.9L1147.03 36.4941" stroke="#ED26B7"/>
<path d="M1505.12 311.541L1119.27 476.188" stroke="url(#paint2_linear_3974_1394)"/>
<path d="M1504.73 99.3074L1119.22 438.419" stroke="url(#paint3_linear_3974_1394)"/>
<path opacity="0.5" d="M1403.48 957.039L1403.48 37.7641" stroke="#ED26B7"/>
<path d="M1348.75 957.039L1348.75 37.7641" stroke="#ED26B7"/>
<path d="M1301.84 957.039L1301.84 37.7641" stroke="#ED26B7"/>
<path d="M1259.61 957.039L1259.61 37.7641" stroke="#ED26B7"/>
<path d="M1224.43 957.039L1224.43 37.7641" stroke="#ED26B7"/>
<path d="M1197.85 957.039L1197.85 37.7641" stroke="#ED26B7"/>
<path d="M1179.86 957.039L1179.86 37.7641" stroke="#ED26B7"/>
<path d="M1165.01 957.039L1165.01 37.7641" stroke="#ED26B7"/>
<path d="M1154.06 957.039L1154.06 37.7641" stroke="#ED26B7"/>
<path d="M1143.9 957.039L1143.9 37.7641" stroke="#ED26B7"/>
<path d="M1136.08 957.039L1136.08 37.7641" stroke="#ED26B7"/>
<path d="M1129.04 957.039L1129.04 37.7641" stroke="#ED26B7"/>
<path d="M1123.57 957.039L1123.57 37.7641" stroke="#ED26B7"/>
<path d="M1119.27 956.49L1119.27 42.205" stroke="#ED26B7"/>
<path d="M1368.29 959.662L1119.27 611.015" stroke="#ED26B7"/>
<path d="M1247.11 958.075L1119.27 679.856" stroke="#ED26B7"/>
<path d="M1183.77 957.441L1119.27 756.311" stroke="#ED26B7"/>
<path d="M1375.72 39.6672L1118.88 401.32" stroke="#ED26B7"/>
<path d="M1253.36 40.3013L1118.88 331.21" stroke="#ED26B7"/>
<path d="M1186.9 39.6665L1118.88 252.851" stroke="#ED26B7"/>
<path d="M1119.53 499.664L1494.43 499.664" stroke="url(#paint4_linear_3974_1394)"/>
</g>
<path d="M1454.88 142.162L1111.88 292.162V8.16211H1454.88V142.162Z" fill="url(#paint5_linear_3974_1394)"/>
<path d="M1454.88 137.937L1111.88 292.162V0.162109H1454.88V137.937Z" fill="url(#paint6_linear_3974_1394)"/>
<path d="M1447.88 886.162L1111.88 736.162V1020.16H1447.88V886.162Z" fill="url(#paint7_linear_3974_1394)"/>
<path d="M1447.88 886.162L1111.88 736.162V1020.16H1447.88V886.162Z" fill="url(#paint8_linear_3974_1394)"/>
<path d="M-63.9481 688.74L320.73 524.727" stroke="url(#paint9_linear_3974_1394)"/>
<path d="M-64.3391 901.29L320.73 560.257" stroke="url(#paint10_linear_3974_1394)"/>
<path d="M320.339 839.429L294.379 957.162" stroke="#ED26B7"/>
<path d="M320.339 159.901L292.974 36.4946" stroke="#ED26B7"/>
<path d="M-65.121 311.541L320.73 476.188" stroke="url(#paint11_linear_3974_1394)"/>
<path d="M-64.7301 99.3079L320.78 438.42" stroke="url(#paint12_linear_3974_1394)"/>
<path d="M90.879 957.162L90.879 14.1621" stroke="#ED26B7"/>
<path d="M138.164 957.039L138.164 37.7643" stroke="#ED26B7"/>
<path d="M180.385 957.039L180.385 37.7643" stroke="#ED26B7"/>
<path d="M215.569 957.039L215.569 37.7643" stroke="#ED26B7"/>
<path d="M242.153 957.039L242.153 37.7643" stroke="#ED26B7"/>
<path d="M260.135 957.039L260.136 37.7643" stroke="#ED26B7"/>
<path d="M274.991 957.039L274.991 37.7643" stroke="#ED26B7"/>
<path d="M285.937 957.039L285.937 37.7643" stroke="#ED26B7"/>
<path d="M296.101 957.039L296.101 37.7643" stroke="#ED26B7"/>
<path d="M303.92 957.039L303.92 37.7643" stroke="#ED26B7"/>
<path d="M310.957 957.039L310.957 37.7643" stroke="#ED26B7"/>
<path d="M316.43 957.039L316.43 37.7643" stroke="#ED26B7"/>
<path d="M320.73 956.49L320.73 42.2055" stroke="#ED26B7"/>
<path d="M71.7055 959.662L320.73 611.016" stroke="#ED26B7"/>
<path d="M192.895 958.076L320.73 679.857" stroke="#ED26B7"/>
<path d="M256.226 957.442L320.73 756.312" stroke="#ED26B7"/>
<path d="M36.879 9.16212L320.879 401.162" stroke="#ED26B7"/>
<path d="M186.64 40.3017L321.121 331.21" stroke="#ED26B7"/>
<path d="M253.099 39.667L321.115 252.852" stroke="#ED26B7"/>
<path d="M320.472 499.664L-54.4336 499.664" stroke="url(#paint13_linear_3974_1394)"/>
<path d="M-12.121 886.162L323.879 736.162V1020.16H-12.121V886.162Z" fill="url(#paint14_linear_3974_1394)"/>
<path d="M-12.121 886.162L323.879 736.162V1020.16H-12.121V886.162Z" fill="url(#paint15_linear_3974_1394)"/>
<path d="M12.879 142.162L348.879 292.162V8.16211H12.879V142.162Z" fill="url(#paint16_linear_3974_1394)"/>
<path d="M12.879 137.937L348.879 292.162V0.162109H12.879V137.937Z" fill="url(#paint17_linear_3974_1394)"/>
<rect x="-2.35938" y="1020.87" width="1020.71" height="71.8267" transform="rotate(-90 -2.35938 1020.87)" fill="url(#paint18_linear_3974_1394)"/>
<rect width="1020.71" height="71.8267" transform="matrix(-1.19249e-08 -1 -1 1.19249e-08 1440 1020.87)" fill="url(#paint19_linear_3974_1394)"/>
<defs>
<linearGradient id="paint0_linear_3974_1394" x1="1119.27" y1="524.726" x2="1215" y2="792.17" gradientUnits="userSpaceOnUse">
<stop offset="0.733603" stop-color="#ED26B7"/>
<stop offset="1" stop-color="#ED26B7" stop-opacity="0"/>
</linearGradient>
<linearGradient id="paint1_linear_3974_1394" x1="1119.27" y1="560.257" x2="1419.66" y2="964.252" gradientUnits="userSpaceOnUse">
<stop offset="0.733603" stop-color="#ED26B7"/>
<stop offset="1" stop-color="#ED26B7" stop-opacity="0"/>
</linearGradient>
<linearGradient id="paint2_linear_3974_1394" x1="1119.27" y1="476.188" x2="1451.68" y2="555.975" gradientUnits="userSpaceOnUse">
<stop offset="0.733603" stop-color="#ED26B7"/>
<stop offset="1" stop-color="#ED26B7" stop-opacity="0"/>
</linearGradient>
<linearGradient id="paint3_linear_3974_1394" x1="1119.22" y1="438.419" x2="1465.77" y2="478.77" gradientUnits="userSpaceOnUse">
<stop offset="0.733603" stop-color="#ED26B7"/>
<stop offset="1" stop-color="#ED26B7" stop-opacity="0"/>
</linearGradient>
<linearGradient id="paint4_linear_3974_1394" x1="1119.74" y1="499.664" x2="1119.95" y2="508.837" gradientUnits="userSpaceOnUse">
<stop offset="0.849677" stop-color="#ED26B7"/>
<stop offset="0.944273" stop-color="#ED26B7" stop-opacity="0"/>
</linearGradient>
<linearGradient id="paint5_linear_3974_1394" x1="1350.38" y1="114.662" x2="1312.88" y2="57.1621" gradientUnits="userSpaceOnUse">
<stop stop-color="#1C0D3F" stop-opacity="0"/>
<stop offset="1" stop-color="#1C0D3F"/>
</linearGradient>
<linearGradient id="paint6_linear_3974_1394" x1="1347.88" y1="132.282" x2="1347.88" y2="19.1832" gradientUnits="userSpaceOnUse">
<stop stop-color="#1C0D3F" stop-opacity="0"/>
<stop offset="1" stop-color="#1C0D3F"/>
</linearGradient>
<linearGradient id="paint7_linear_3974_1394" x1="1340.88" y1="891.662" x2="1305.88" y2="971.162" gradientUnits="userSpaceOnUse">
<stop stop-color="#1C0D3F" stop-opacity="0"/>
<stop offset="1" stop-color="#1C0D3F"/>
</linearGradient>
<linearGradient id="paint8_linear_3974_1394" x1="1340.88" y1="891.662" x2="1340.88" y2="1001.66" gradientUnits="userSpaceOnUse">
<stop stop-color="#1C0D3F" stop-opacity="0"/>
<stop offset="1" stop-color="#1C0D3F"/>
</linearGradient>
<linearGradient id="paint9_linear_3974_1394" x1="320.73" y1="524.727" x2="224.996" y2="792.17" gradientUnits="userSpaceOnUse">
<stop offset="0.733603" stop-color="#ED26B7"/>
<stop offset="1" stop-color="#ED26B7" stop-opacity="0"/>
</linearGradient>
<linearGradient id="paint10_linear_3974_1394" x1="320.73" y1="560.257" x2="20.3382" y2="964.252" gradientUnits="userSpaceOnUse">
<stop offset="0.733603" stop-color="#ED26B7"/>
<stop offset="1" stop-color="#ED26B7" stop-opacity="0"/>
</linearGradient>
<linearGradient id="paint11_linear_3974_1394" x1="320.73" y1="476.188" x2="-11.6768" y2="555.975" gradientUnits="userSpaceOnUse">
<stop offset="0.733603" stop-color="#ED26B7"/>
<stop offset="1" stop-color="#ED26B7" stop-opacity="0"/>
</linearGradient>
<linearGradient id="paint12_linear_3974_1394" x1="320.78" y1="438.42" x2="-25.769" y2="478.771" gradientUnits="userSpaceOnUse">
<stop offset="0.733603" stop-color="#ED26B7"/>
<stop offset="1" stop-color="#ED26B7" stop-opacity="0"/>
</linearGradient>
<linearGradient id="paint13_linear_3974_1394" x1="320.262" y1="499.664" x2="320.047" y2="508.837" gradientUnits="userSpaceOnUse">
<stop offset="0.849677" stop-color="#ED26B7"/>
<stop offset="0.944273" stop-color="#ED26B7" stop-opacity="0"/>
</linearGradient>
<linearGradient id="paint14_linear_3974_1394" x1="94.879" y1="916.162" x2="94.879" y2="1001.66" gradientUnits="userSpaceOnUse">
<stop stop-color="#1C0D3F" stop-opacity="0"/>
<stop offset="1" stop-color="#1C0D3F"/>
</linearGradient>
<linearGradient id="paint15_linear_3974_1394" x1="94.879" y1="891.662" x2="129.879" y2="971.162" gradientUnits="userSpaceOnUse">
<stop stop-color="#1C0D3F" stop-opacity="0"/>
<stop offset="1" stop-color="#1C0D3F"/>
</linearGradient>
<linearGradient id="paint16_linear_3974_1394" x1="117.379" y1="114.662" x2="154.879" y2="57.1621" gradientUnits="userSpaceOnUse">
<stop stop-color="#1C0D3F" stop-opacity="0"/>
<stop offset="1" stop-color="#1C0D3F"/>
</linearGradient>
<linearGradient id="paint17_linear_3974_1394" x1="119.879" y1="132.282" x2="119.879" y2="19.1832" gradientUnits="userSpaceOnUse">
<stop stop-color="#1C0D3F" stop-opacity="0"/>
<stop offset="1" stop-color="#1C0D3F"/>
</linearGradient>
<linearGradient id="paint18_linear_3974_1394" x1="609.007" y1="1020.87" x2="608.789" y2="1092.7" gradientUnits="userSpaceOnUse">
<stop offset="0.166775" stop-color="#1C0D3F"/>
<stop offset="1" stop-color="#1C0D3F" stop-opacity="0"/>
</linearGradient>
<linearGradient id="paint19_linear_3974_1394" x1="611.366" y1="-7.6837e-06" x2="611.148" y2="71.828" gradientUnits="userSpaceOnUse">
<stop offset="0.166775" stop-color="#1C0D3F"/>
<stop offset="1" stop-color="#1C0D3F" stop-opacity="0"/>
</linearGradient>
</defs>
</svg>
