<svg width="24" height="54" viewBox="0 0 24 54" fill="none" xmlns="http://www.w3.org/2000/svg">
<rect y="54" width="54" height="24" rx="4" transform="rotate(-90 0 54)" fill="#8296A5"/>
<path d="M17 36.7764L17 44.0564L15.152 44.0564C13.122 41.2704 11.484 39.3104 10.126 39.3104C9.44 39.3104 8.838 39.8144 8.838 40.7384C8.838 41.6204 9.384 42.2364 10.028 42.6424L8.936 44.1964C7.732 43.5804 6.934 42.3484 6.934 40.7104C6.934 38.8064 7.9 37.0564 10.056 37.0564C11.442 37.0564 12.534 37.8404 13.416 38.8204C14.046 39.5204 14.578 40.2624 15.04 40.9484L15.068 40.9484L15.068 36.7764L17 36.7764ZM17.21 31.1622C17.21 33.8082 15.124 35.2502 12.072 35.2502C9.02 35.2502 6.934 33.8082 6.934 31.1622C6.934 28.5162 9.02 27.0742 12.072 27.0742C15.124 27.0742 17.21 28.5162 17.21 31.1622ZM15.334 31.1622C15.334 29.6502 13.346 29.3422 12.072 29.3422C10.798 29.3422 8.81 29.6502 8.81 31.1622C8.81 32.6742 10.798 32.9822 12.072 32.9822C13.346 32.9822 15.334 32.6742 15.334 31.1622ZM17 18.128L17 25.408L15.152 25.408C13.122 22.622 11.484 20.662 10.126 20.662C9.44 20.662 8.838 21.166 8.838 22.09C8.838 22.972 9.384 23.588 10.028 23.994L8.936 25.548C7.732 24.932 6.934 23.7 6.934 22.062C6.934 20.158 7.9 18.408 10.056 18.408C11.442 18.408 12.534 19.192 13.416 20.172C14.046 20.872 14.578 21.614 15.04 22.3L15.068 22.3L15.068 18.128L17 18.128ZM17.21 12.6258C17.21 14.4878 16.51 15.6918 15.628 16.2658L14.284 14.7538C14.998 14.1518 15.306 13.4518 15.306 12.7098C15.306 11.7998 14.928 11.0018 14.102 11.0018C13.64 11.0018 13.276 11.2398 13.08 11.7018C12.968 11.9818 12.912 12.3458 12.912 13.0318L12.912 14.1098L11.092 14.1098L11.092 13.0318C11.092 12.5978 11.036 12.1778 10.924 11.9398C10.728 11.5338 10.406 11.2538 9.958 11.2538C9.174 11.2538 8.824 11.9258 8.824 12.6958C8.824 13.5078 9.244 14.1658 9.902 14.6278L8.698 16.1818C7.746 15.6358 6.934 14.5018 6.934 12.6258C6.934 10.6378 8.012 9.02778 9.706 9.02778C10.7 9.02778 11.512 9.64378 11.89 10.5538L11.904 10.5538C12.296 9.50378 13.178 8.80378 14.256 8.80378C16.048 8.80378 17.21 10.4978 17.21 12.6258Z" fill="white"/>
</svg>
