<svg width="150" height="142" viewBox="0 0 150 142" fill="none" xmlns="http://www.w3.org/2000/svg">
<path fill-rule="evenodd" clip-rule="evenodd" d="M83.7559 141.857H83.7489H66.1256H66.1187L54.3651 78.5056L54.3706 78.4897L37.0981 69.9373L37.0983 69.9367L37.0944 69.9349L17.0054 28.6521L8.14782 23.7796V46.4185L0.743103 41.6756V19.7062V12.5217V2.81299L8.14782 6.10397L57.8608 6.104L60.9542 0H87.7793L91.646 6.104H141.933L141.933 6.10397L149.338 2.81299V41.6756L141.933 46.4185V23.741L132.987 28.6503H133.03L112.787 69.9349L112.784 69.9365L112.784 69.9373L95.5069 78.4919L95.393 78.1623H95.3927L95.5094 78.5056L83.7559 141.857Z" fill="#29135F"/>
<path d="M61.4985 33.0369L73.8706 42.355L87.5893 33.0369" stroke="#ED26B7" stroke-width="2" stroke-linecap="round"/>
</svg>
