<svg width="2880" height="6301" viewBox="0 0 2880 6301" fill="none" xmlns="http://www.w3.org/2000/svg">
<mask id="mask0_4218_1402" style="mask-type:luminance" maskUnits="userSpaceOnUse" x="0" y="0" width="2880" height="5928">
<path d="M2880 0H0V5927.72H2880V0Z" fill="white"/>
</mask>
<g mask="url(#mask0_4218_1402)">
<path d="M2880 0H0V5947.36H2880V0Z" fill="#1C0D3F"/>
<path d="M581.729 471.731C-135.584 429.425 -69.0589 11.9821 -69.0589 11.9821L-54.597 -124H2913.96V263.441C2913.96 379.565 2569.44 347.44 2397.19 316.863C1388.71 101.018 1478.37 524.613 581.729 471.731Z" fill="url(#paint0_linear_4218_1402)"/>
<path d="M2261.54 3621.53C2978.86 3579.23 2912.33 3161.79 2912.33 3161.79L2897.87 3025.8H-70.6855V3413.24C-70.6855 3529.37 273.837 3497.24 446.088 3466.67C1454.57 3250.82 1364.9 3674.42 2261.54 3621.53Z" fill="url(#paint1_linear_4218_1402)"/>
<path d="M-111.212 1485.32C-373.184 604.285 2931.76 1675.29 2978 1692.23V1760C1344.94 1230.97 302.464 1376.3 -14.6426 1515.1L-111.212 1485.32Z" fill="url(#paint2_radial_4218_1402)"/>
<path d="M2963.21 4635.12C3225.18 3754.09 -79.76 4825.09 -126 4842.03V4909.8C1507.06 4380.77 2549.54 4526.1 2866.64 4664.9L2963.21 4635.12Z" fill="url(#paint3_radial_4218_1402)"/>
<path d="M-22.797 1725.02C-20.4172 1724.39 -17.8119 1724.05 -15 1724L-22.797 1725.02C-59.0658 1734.52 -42.9054 1809.08 94 1905.5C258 2021 908 1996 528 2248C174.049 2482.73 -15 2460.67 -94 2410.5L-126 1738.5L-22.797 1725.02Z" fill="url(#paint4_linear_4218_1402)"/>
<path d="M2874.8 4874.82C2872.42 4874.19 2869.81 4873.85 2867 4873.8L2874.8 4874.82C2911.07 4884.32 2894.91 4958.88 2758 5055.3C2594 5170.8 1944 5145.8 2324 5397.8C2677.95 5632.53 2867 5610.47 2946 5560.3L2978 4888.3L2874.8 4874.82Z" fill="url(#paint5_linear_4218_1402)"/>
<g filter="url(#filter0_f_4218_1402)">
<path d="M2425.22 1856.36C2427.16 1856.36 2428.72 1854.79 2428.72 1852.86C2428.72 1850.93 2427.16 1849.36 2425.22 1849.36C2423.29 1849.36 2421.72 1850.93 2421.72 1852.86C2421.72 1854.79 2423.29 1856.36 2425.22 1856.36Z" fill="white"/>
<path d="M2311.84 2279.81C2313.77 2279.81 2315.34 2278.24 2315.34 2276.31C2315.34 2274.38 2313.77 2272.81 2311.84 2272.81C2309.91 2272.81 2308.34 2274.38 2308.34 2276.31C2308.34 2278.24 2309.91 2279.81 2311.84 2279.81Z" fill="white"/>
</g>
<g filter="url(#filter1_f_4218_1402)">
<path d="M2425.22 5006.16C2427.16 5006.16 2428.72 5004.6 2428.72 5002.66C2428.72 5000.73 2427.16 4999.16 2425.22 4999.16C2423.29 4999.16 2421.72 5000.73 2421.72 5002.66C2421.72 5004.6 2423.29 5006.16 2425.22 5006.16Z" fill="white"/>
<path d="M2311.84 5429.61C2313.77 5429.61 2315.34 5428.05 2315.34 5426.11C2315.34 5424.18 2313.77 5422.61 2311.84 5422.61C2309.91 5422.61 2308.34 5424.18 2308.34 5426.11C2308.34 5428.05 2309.91 5429.61 2311.84 5429.61Z" fill="white"/>
</g>
<g filter="url(#filter2_f_4218_1402)">
<path d="M881.238 2087.04C883.171 2087.04 884.738 2085.47 884.738 2083.54C884.738 2081.61 883.171 2080.04 881.238 2080.04C879.305 2080.04 877.738 2081.61 877.738 2083.54C877.738 2085.47 879.305 2087.04 881.238 2087.04Z" fill="white"/>
</g>
<g filter="url(#filter3_f_4218_1402)">
<path d="M881.238 5236.84C883.171 5236.84 884.738 5235.28 884.738 5233.34C884.738 5231.41 883.171 5229.84 881.238 5229.84C879.305 5229.84 877.738 5231.41 877.738 5233.34C877.738 5235.28 879.305 5236.84 881.238 5236.84Z" fill="white"/>
</g>
<g filter="url(#filter4_f_4218_1402)">
<path d="M1149.44 1495.24C1151.37 1495.24 1152.94 1493.68 1152.94 1491.74C1152.94 1489.81 1151.37 1488.24 1149.44 1488.24C1147.51 1488.24 1145.94 1489.81 1145.94 1491.74C1145.94 1493.68 1147.51 1495.24 1149.44 1495.24Z" fill="white"/>
<path d="M566.836 2378.6C568.769 2378.6 570.336 2377.03 570.336 2375.1C570.336 2373.17 568.769 2371.6 566.836 2371.6C564.903 2371.6 563.336 2373.17 563.336 2375.1C563.336 2377.03 564.903 2378.6 566.836 2378.6Z" fill="white"/>
<path d="M1595.75 1801.02C1597.68 1801.02 1599.25 1799.45 1599.25 1797.52C1599.25 1795.59 1597.68 1794.02 1595.75 1794.02C1593.81 1794.02 1592.25 1795.59 1592.25 1797.52C1592.25 1799.45 1593.81 1801.02 1595.75 1801.02Z" fill="white"/>
</g>
<g filter="url(#filter5_f_4218_1402)">
<path d="M1149.44 4645.05C1151.37 4645.05 1152.94 4643.48 1152.94 4641.55C1152.94 4639.61 1151.37 4638.05 1149.44 4638.05C1147.51 4638.05 1145.94 4639.61 1145.94 4641.55C1145.94 4643.48 1147.51 4645.05 1149.44 4645.05Z" fill="white"/>
<path d="M566.836 5528.4C568.769 5528.4 570.336 5526.84 570.336 5524.9C570.336 5522.97 568.769 5521.4 566.836 5521.4C564.903 5521.4 563.336 5522.97 563.336 5524.9C563.336 5526.84 564.903 5528.4 566.836 5528.4Z" fill="white"/>
<path d="M1595.75 4950.82C1597.68 4950.82 1599.25 4949.26 1599.25 4947.32C1599.25 4945.39 1597.68 4943.82 1595.75 4943.82C1593.81 4943.82 1592.25 4945.39 1592.25 4947.32C1592.25 4949.26 1593.81 4950.82 1595.75 4950.82Z" fill="white"/>
<path d="M1241.59 5725.12C1243.53 5725.12 1245.09 5723.55 1245.09 5721.62C1245.09 5719.68 1243.53 5718.12 1241.59 5718.12C1239.66 5718.12 1238.09 5719.68 1238.09 5721.62C1238.09 5723.55 1239.66 5725.12 1241.59 5725.12Z" fill="white"/>
<path d="M1492.36 5397.36C1494.29 5397.36 1495.86 5395.79 1495.86 5393.86C1495.86 5391.93 1494.29 5390.36 1492.36 5390.36C1490.43 5390.36 1488.86 5391.93 1488.86 5393.86C1488.86 5395.79 1490.43 5397.36 1492.36 5397.36Z" fill="white"/>
<path d="M2167.66 5753.71C2169.6 5753.71 2171.16 5752.14 2171.16 5750.21C2171.16 5748.28 2169.6 5746.71 2167.66 5746.71C2165.73 5746.71 2164.16 5748.28 2164.16 5750.21C2164.16 5752.14 2165.73 5753.71 2167.66 5753.71Z" fill="white"/>
<path d="M2634 4502.09C2635.93 4502.09 2637.5 4500.52 2637.5 4498.59C2637.5 4496.65 2635.93 4495.09 2634 4495.09C2632.07 4495.09 2630.5 4496.65 2630.5 4498.59C2630.5 4500.52 2632.07 4502.09 2634 4502.09Z" fill="white"/>
</g>
<g filter="url(#filter6_f_4218_1402)">
<path d="M2752.64 1364.18C2754.57 1364.18 2756.14 1362.61 2756.14 1360.68C2756.14 1358.75 2754.57 1357.18 2752.64 1357.18C2750.71 1357.18 2749.14 1358.75 2749.14 1360.68C2749.14 1362.61 2750.71 1364.18 2752.64 1364.18Z" fill="white"/>
<path d="M2134.28 1198.03C2136.21 1198.03 2137.78 1196.46 2137.78 1194.53C2137.78 1192.59 2136.21 1191.03 2134.28 1191.03C2132.34 1191.03 2130.78 1192.59 2130.78 1194.53C2130.78 1196.46 2132.34 1198.03 2134.28 1198.03Z" fill="white"/>
<path d="M2134.28 4347.83C2136.21 4347.83 2137.78 4346.26 2137.78 4344.33C2137.78 4342.4 2136.21 4340.83 2134.28 4340.83C2132.34 4340.83 2130.78 4342.4 2130.78 4344.33C2130.78 4346.26 2132.34 4347.83 2134.28 4347.83Z" fill="white"/>
<path d="M2471.72 1074.7C2473.66 1074.7 2475.22 1073.13 2475.22 1071.2C2475.22 1069.26 2473.66 1067.7 2471.72 1067.7C2469.79 1067.7 2468.22 1069.26 2468.22 1071.2C2468.22 1073.13 2469.79 1074.7 2471.72 1074.7Z" fill="white"/>
<path d="M2471.72 4224.5C2473.66 4224.5 2475.22 4222.93 2475.22 4221C2475.22 4219.07 2473.66 4217.5 2471.72 4217.5C2469.79 4217.5 2468.22 4219.07 2468.22 4221C2468.22 4222.93 2469.79 4224.5 2471.72 4224.5Z" fill="white"/>
</g>
<g filter="url(#filter7_f_4218_1402)">
<path d="M327.75 1197.58C329.683 1197.58 331.25 1196.01 331.25 1194.08C331.25 1192.15 329.683 1190.58 327.75 1190.58C325.817 1190.58 324.25 1192.15 324.25 1194.08C324.25 1196.01 325.817 1197.58 327.75 1197.58Z" fill="white"/>
<path d="M1204.77 1151.33C1206.7 1151.33 1208.27 1149.76 1208.27 1147.83C1208.27 1145.9 1206.7 1144.33 1204.77 1144.33C1202.83 1144.33 1201.27 1145.9 1201.27 1147.83C1201.27 1149.76 1202.83 1151.33 1204.77 1151.33Z" fill="white"/>
<path d="M1204.77 4301.13C1206.7 4301.13 1208.27 4299.57 1208.27 4297.63C1208.27 4295.7 1206.7 4294.13 1204.77 4294.13C1202.83 4294.13 1201.27 4295.7 1201.27 4297.63C1201.27 4299.57 1202.83 4301.13 1204.77 4301.13Z" fill="white"/>
</g>
<g filter="url(#filter8_f_4218_1402)">
<path d="M322 1909.58C323.18 1909.58 324.136 1901.27 324.136 1891.01C324.136 1880.75 323.18 1872.44 322 1872.44C320.82 1872.44 319.863 1880.75 319.863 1891.01C319.863 1901.27 320.82 1909.58 322 1909.58Z" fill="white"/>
</g>
<g filter="url(#filter9_f_4218_1402)">
<path d="M302.554 1891.01C302.554 1891.6 311.26 1892.08 322 1892.08C332.739 1892.08 341.445 1891.6 341.445 1891.01C341.445 1890.42 332.739 1889.94 322 1889.94C311.26 1889.94 302.554 1890.42 302.554 1891.01Z" fill="white"/>
</g>
<g filter="url(#filter10_f_4218_1402)">
<path d="M322.473 1895.6C327.321 1895.6 331.251 1893.63 331.251 1891.21C331.251 1888.79 327.321 1886.82 322.473 1886.82C317.625 1886.82 313.695 1888.79 313.695 1891.21C313.695 1893.63 317.625 1895.6 322.473 1895.6Z" fill="white"/>
</g>
<g filter="url(#filter11_f_4218_1402)">
<path d="M1975.45 2191.14C1976.63 2191.14 1977.58 2182.83 1977.58 2172.57C1977.58 2162.31 1976.63 2154 1975.45 2154C1974.27 2154 1973.31 2162.31 1973.31 2172.57C1973.31 2182.83 1974.27 2191.14 1975.45 2191.14Z" fill="white"/>
</g>
<g filter="url(#filter12_f_4218_1402)">
<path d="M1975.45 5340.95C1976.63 5340.95 1977.58 5332.63 1977.58 5322.37C1977.58 5312.12 1976.63 5303.8 1975.45 5303.8C1974.27 5303.8 1973.31 5312.12 1973.31 5322.37C1973.31 5332.63 1974.27 5340.95 1975.45 5340.95Z" fill="white"/>
</g>
<g filter="url(#filter13_f_4218_1402)">
<path d="M1956 2172.57C1956 2173.16 1964.71 2173.64 1975.44 2173.64C1986.18 2173.64 1994.89 2173.16 1994.89 2172.57C1994.89 2171.98 1986.18 2171.5 1975.44 2171.5C1964.71 2171.5 1956 2171.98 1956 2172.57Z" fill="white"/>
</g>
<g filter="url(#filter14_f_4218_1402)">
<path d="M1956 5322.37C1956 5322.96 1964.71 5323.44 1975.44 5323.44C1986.18 5323.44 1994.89 5322.96 1994.89 5322.37C1994.89 5321.78 1986.18 5321.31 1975.44 5321.31C1964.71 5321.31 1956 5321.78 1956 5322.37Z" fill="white"/>
</g>
<g filter="url(#filter15_f_4218_1402)">
<path d="M1975.92 2177.17C1980.77 2177.17 1984.7 2175.2 1984.7 2172.78C1984.7 2170.36 1980.77 2168.39 1975.92 2168.39C1971.07 2168.39 1967.14 2170.36 1967.14 2172.78C1967.14 2175.2 1971.07 2177.17 1975.92 2177.17Z" fill="white"/>
</g>
<g filter="url(#filter16_f_4218_1402)">
<path d="M1975.92 5326.97C1980.77 5326.97 1984.7 5325.01 1984.7 5322.58C1984.7 5320.16 1980.77 5318.19 1975.92 5318.19C1971.07 5318.19 1967.14 5320.16 1967.14 5322.58C1967.14 5325.01 1971.07 5326.97 1975.92 5326.97Z" fill="white"/>
</g>
<g filter="url(#filter17_f_4218_1402)">
<path d="M734.519 1357.18C735.699 1357.18 736.656 1348.87 736.656 1338.61C736.656 1328.35 735.699 1320.04 734.519 1320.04C733.339 1320.04 732.383 1328.35 732.383 1338.61C732.383 1348.87 733.339 1357.18 734.519 1357.18Z" fill="white"/>
</g>
<g filter="url(#filter18_f_4218_1402)">
<path d="M382.57 5017.31C383.75 5017.31 384.707 5009 384.707 4998.74C384.707 4988.49 383.75 4980.17 382.57 4980.17C381.39 4980.17 380.434 4988.49 380.434 4998.74C380.434 5009 381.39 5017.31 382.57 5017.31Z" fill="white"/>
</g>
<g filter="url(#filter19_f_4218_1402)">
<path d="M715.073 1338.61C715.073 1339.2 723.779 1339.68 734.519 1339.68C745.259 1339.68 753.965 1339.2 753.965 1338.61C753.965 1338.02 745.259 1337.54 734.519 1337.54C723.779 1337.54 715.073 1338.02 715.073 1338.61Z" fill="white"/>
</g>
<g filter="url(#filter20_f_4218_1402)">
<path d="M363.124 4998.74C363.124 4999.33 371.83 4999.81 382.57 4999.81C393.309 4999.81 402.016 4999.33 402.016 4998.74C402.016 4998.15 393.309 4997.67 382.57 4997.67C371.83 4997.67 363.124 4998.15 363.124 4998.74Z" fill="white"/>
</g>
<g filter="url(#filter21_f_4218_1402)">
<path d="M734.993 1343.21C739.841 1343.21 743.771 1341.24 743.771 1338.82C743.771 1336.4 739.841 1334.43 734.993 1334.43C730.145 1334.43 726.215 1336.4 726.215 1338.82C726.215 1341.24 730.145 1343.21 734.993 1343.21Z" fill="white"/>
</g>
<g filter="url(#filter22_f_4218_1402)">
<path d="M383.043 5003.34C387.891 5003.34 391.821 5001.38 391.821 4998.95C391.821 4996.53 387.891 4994.56 383.043 4994.56C378.196 4994.56 374.266 4996.53 374.266 4998.95C374.266 5001.38 378.196 5003.34 383.043 5003.34Z" fill="white"/>
</g>
<g filter="url(#filter23_f_4218_1402)">
<path d="M1639.45 1266.64C1640.63 1266.64 1641.58 1258.33 1641.58 1248.07C1641.58 1237.81 1640.63 1229.5 1639.45 1229.5C1638.27 1229.5 1637.31 1237.81 1637.31 1248.07C1637.31 1258.33 1638.27 1266.64 1639.45 1266.64Z" fill="white"/>
</g>
<g filter="url(#filter24_f_4218_1402)">
<path d="M1639.45 4416.45C1640.63 4416.45 1641.58 4408.13 1641.58 4397.87C1641.58 4387.62 1640.63 4379.3 1639.45 4379.3C1638.27 4379.3 1637.31 4387.62 1637.31 4397.87C1637.31 4408.13 1638.27 4416.45 1639.45 4416.45Z" fill="white"/>
</g>
<g filter="url(#filter25_f_4218_1402)">
<path d="M2638.08 803.71C2639.26 803.71 2640.21 795.395 2640.21 785.138C2640.21 774.881 2639.26 766.567 2638.08 766.567C2636.9 766.567 2635.94 774.881 2635.94 785.138C2635.94 795.395 2636.9 803.71 2638.08 803.71Z" fill="white"/>
</g>
<g filter="url(#filter26_f_4218_1402)">
<path d="M2638.08 3953.51C2639.26 3953.51 2640.21 3945.2 2640.21 3934.94C2640.21 3924.68 2639.26 3916.37 2638.08 3916.37C2636.9 3916.37 2635.94 3924.68 2635.94 3934.94C2635.94 3945.2 2636.9 3953.51 2638.08 3953.51Z" fill="white"/>
</g>
<g filter="url(#filter27_f_4218_1402)">
<path d="M1620 1248.07C1620 1248.66 1628.71 1249.14 1639.45 1249.14C1650.18 1249.14 1658.89 1248.66 1658.89 1248.07C1658.89 1247.48 1650.18 1247 1639.45 1247C1628.71 1247 1620 1247.48 1620 1248.07Z" fill="white"/>
</g>
<g filter="url(#filter28_f_4218_1402)">
<path d="M1620 4397.87C1620 4398.46 1628.71 4398.94 1639.45 4398.94C1650.18 4398.94 1658.89 4398.46 1658.89 4397.87C1658.89 4397.28 1650.18 4396.81 1639.45 4396.81C1628.71 4396.81 1620 4397.28 1620 4397.87Z" fill="white"/>
</g>
<g filter="url(#filter29_f_4218_1402)">
<path d="M2618.63 785.138C2618.63 785.728 2627.34 786.206 2638.08 786.206C2648.82 786.206 2657.52 785.728 2657.52 785.138C2657.52 784.548 2648.82 784.07 2638.08 784.07C2627.34 784.07 2618.63 784.548 2618.63 785.138Z" fill="white"/>
</g>
<g filter="url(#filter30_f_4218_1402)">
<path d="M2618.63 3934.94C2618.63 3935.53 2627.34 3936.01 2638.08 3936.01C2648.82 3936.01 2657.52 3935.53 2657.52 3934.94C2657.52 3934.35 2648.82 3933.87 2638.08 3933.87C2627.34 3933.87 2618.63 3934.35 2618.63 3934.94Z" fill="white"/>
</g>
<g filter="url(#filter31_f_4218_1402)">
<path d="M1639.92 1252.66C1644.77 1252.66 1648.7 1250.69 1648.7 1248.27C1648.7 1245.85 1644.77 1243.88 1639.92 1243.88C1635.07 1243.88 1631.14 1245.85 1631.14 1248.27C1631.14 1250.69 1635.07 1252.66 1639.92 1252.66Z" fill="white"/>
</g>
<g filter="url(#filter32_f_4218_1402)">
<path d="M1639.92 4402.46C1644.77 4402.46 1648.7 4400.5 1648.7 4398.07C1648.7 4395.65 1644.77 4393.68 1639.92 4393.68C1635.07 4393.68 1631.14 4395.65 1631.14 4398.07C1631.14 4400.5 1635.07 4402.46 1639.92 4402.46Z" fill="white"/>
</g>
<g filter="url(#filter33_f_4218_1402)">
<path d="M2638.55 789.727C2643.4 789.727 2647.33 787.762 2647.33 785.338C2647.33 782.914 2643.4 780.949 2638.55 780.949C2633.7 780.949 2629.77 782.914 2629.77 785.338C2629.77 787.762 2633.7 789.727 2638.55 789.727Z" fill="white"/>
</g>
<g filter="url(#filter34_f_4218_1402)">
<path d="M2638.55 3939.53C2643.4 3939.53 2647.33 3937.57 2647.33 3935.14C2647.33 3932.72 2643.4 3930.75 2638.55 3930.75C2633.7 3930.75 2629.77 3932.72 2629.77 3935.14C2629.77 3937.57 2633.7 3939.53 2638.55 3939.53Z" fill="white"/>
</g>
<g filter="url(#filter35_f_4218_1402)">
<path d="M2418.82 207C2420.75 207 2422.32 205.433 2422.32 203.5C2422.32 201.567 2420.75 200 2418.82 200C2416.89 200 2415.32 201.567 2415.32 203.5C2415.32 205.433 2416.89 207 2418.82 207Z" fill="white"/>
</g>
<g filter="url(#filter36_f_4218_1402)">
<path d="M2418.82 3356.8C2420.75 3356.8 2422.32 3355.24 2422.32 3353.3C2422.32 3351.37 2420.75 3349.8 2418.82 3349.8C2416.89 3349.8 2415.32 3351.37 2415.32 3353.3C2415.32 3355.24 2416.89 3356.8 2418.82 3356.8Z" fill="white"/>
</g>
<g filter="url(#filter37_f_4218_1402)">
<path d="M1402.82 101C1404.75 101 1406.32 99.433 1406.32 97.5C1406.32 95.567 1404.75 94 1402.82 94C1400.89 94 1399.32 95.567 1399.32 97.5C1399.32 99.433 1400.89 101 1402.82 101Z" fill="white"/>
</g>
<g filter="url(#filter38_f_4218_1402)">
<path d="M1024.82 954C1026.75 954 1028.32 952.433 1028.32 950.5C1028.32 948.567 1026.75 947 1024.82 947C1022.89 947 1021.32 948.567 1021.32 950.5C1021.32 952.433 1022.89 954 1024.82 954Z" fill="white"/>
<path d="M1024.82 4103.8C1026.75 4103.8 1028.32 4102.24 1028.32 4100.3C1028.32 4098.37 1026.75 4096.8 1024.82 4096.8C1022.89 4096.8 1021.32 4098.37 1021.32 4100.3C1021.32 4102.24 1022.89 4103.8 1024.82 4103.8Z" fill="white"/>
<path d="M183.777 928.306C185.71 928.306 187.277 926.739 187.277 924.806C187.277 922.873 185.71 921.306 183.777 921.306C181.844 921.306 180.277 922.873 180.277 924.806C180.277 926.739 181.844 928.306 183.777 928.306Z" fill="white"/>
</g>
<g filter="url(#filter39_f_4218_1402)">
<path d="M1914.82 742C1916.75 742 1918.32 740.433 1918.32 738.5C1918.32 736.567 1916.75 735 1914.82 735C1912.89 735 1911.32 736.567 1911.32 738.5C1911.32 740.433 1912.89 742 1914.82 742Z" fill="white"/>
<path d="M2365.32 521.033C2367.25 521.033 2368.82 519.466 2368.82 517.533C2368.82 515.6 2367.25 514.033 2365.32 514.033C2363.39 514.033 2361.82 515.6 2361.82 517.533C2361.82 519.466 2363.39 521.033 2365.32 521.033Z" fill="white"/>
</g>
<g filter="url(#filter40_f_4218_1402)">
<path d="M1914.82 3891.8C1916.75 3891.8 1918.32 3890.24 1918.32 3888.3C1918.32 3886.37 1916.75 3884.8 1914.82 3884.8C1912.89 3884.8 1911.32 3886.37 1911.32 3888.3C1911.32 3890.24 1912.89 3891.8 1914.82 3891.8Z" fill="white"/>
<path d="M2365.32 3670.84C2367.25 3670.84 2368.82 3669.27 2368.82 3667.34C2368.82 3665.4 2367.25 3663.84 2365.32 3663.84C2363.39 3663.84 2361.82 3665.4 2361.82 3667.34C2361.82 3669.27 2363.39 3670.84 2365.32 3670.84Z" fill="white"/>
</g>
<g filter="url(#filter41_f_4218_1402)">
<path d="M1506.82 801C1508.75 801 1510.32 799.433 1510.32 797.5C1510.32 795.567 1508.75 794 1506.82 794C1504.89 794 1503.32 795.567 1503.32 797.5C1503.32 799.433 1504.89 801 1506.82 801Z" fill="white"/>
<path d="M427.68 651.976C429.613 651.976 431.18 650.409 431.18 648.476C431.18 646.543 429.613 644.976 427.68 644.976C425.747 644.976 424.18 646.543 424.18 648.476C424.18 650.409 425.747 651.976 427.68 651.976Z" fill="white"/>
</g>
<g filter="url(#filter42_f_4218_1402)">
<path d="M1506.82 3950.8C1508.75 3950.8 1510.32 3949.24 1510.32 3947.3C1510.32 3945.37 1508.75 3943.8 1506.82 3943.8C1504.89 3943.8 1503.32 3945.37 1503.32 3947.3C1503.32 3949.24 1504.89 3950.8 1506.82 3950.8Z" fill="white"/>
<path d="M427.68 3801.78C429.613 3801.78 431.18 3800.21 431.18 3798.28C431.18 3796.35 429.613 3794.78 427.68 3794.78C425.747 3794.78 424.18 3796.35 424.18 3798.28C424.18 3800.21 425.747 3801.78 427.68 3801.78Z" fill="white"/>
</g>
<g filter="url(#filter43_f_4218_1402)">
<path d="M1142.82 236C1144.75 236 1146.32 234.433 1146.32 232.5C1146.32 230.567 1144.75 229 1142.82 229C1140.89 229 1139.32 230.567 1139.32 232.5C1139.32 234.433 1140.89 236 1142.82 236Z" fill="white"/>
</g>
<g filter="url(#filter44_f_4218_1402)">
<path d="M1142.82 3385.8C1144.75 3385.8 1146.32 3384.24 1146.32 3382.3C1146.32 3380.37 1144.75 3378.8 1142.82 3378.8C1140.89 3378.8 1139.32 3380.37 1139.32 3382.3C1139.32 3384.24 1140.89 3385.8 1142.82 3385.8Z" fill="white"/>
</g>
<g filter="url(#filter45_f_4218_1402)">
<path d="M1805.85 397.868C1807.03 397.868 1807.98 389.553 1807.98 379.296C1807.98 369.039 1807.03 360.724 1805.85 360.724C1804.67 360.724 1803.71 369.039 1803.71 379.296C1803.71 389.553 1804.67 397.868 1805.85 397.868Z" fill="white"/>
</g>
<g filter="url(#filter46_f_4218_1402)">
<path d="M1805.85 3547.67C1807.03 3547.67 1807.98 3539.36 1807.98 3529.1C1807.98 3518.84 1807.03 3510.53 1805.85 3510.53C1804.67 3510.53 1803.71 3518.84 1803.71 3529.1C1803.71 3539.36 1804.67 3547.67 1805.85 3547.67Z" fill="white"/>
</g>
<g filter="url(#filter47_f_4218_1402)">
<path d="M1786.4 379.296C1786.4 379.886 1795.11 380.364 1805.85 380.364C1816.59 380.364 1825.29 379.886 1825.29 379.296C1825.29 378.706 1816.59 378.228 1805.85 378.228C1795.11 378.228 1786.4 378.706 1786.4 379.296Z" fill="white"/>
</g>
<g filter="url(#filter48_f_4218_1402)">
<path d="M1786.4 3529.1C1786.4 3529.69 1795.11 3530.17 1805.85 3530.17C1816.59 3530.17 1825.29 3529.69 1825.29 3529.1C1825.29 3528.51 1816.59 3528.03 1805.85 3528.03C1795.11 3528.03 1786.4 3528.51 1786.4 3529.1Z" fill="white"/>
</g>
<g filter="url(#filter49_f_4218_1402)">
<path d="M1806.32 383.889C1811.17 383.889 1815.1 381.924 1815.1 379.5C1815.1 377.076 1811.17 375.111 1806.32 375.111C1801.47 375.111 1797.54 377.076 1797.54 379.5C1797.54 381.924 1801.47 383.889 1806.32 383.889Z" fill="white"/>
</g>
<g filter="url(#filter50_f_4218_1402)">
<path d="M1806.32 3533.69C1811.17 3533.69 1815.1 3531.73 1815.1 3529.3C1815.1 3526.88 1811.17 3524.92 1806.32 3524.92C1801.47 3524.92 1797.54 3526.88 1797.54 3529.3C1797.54 3531.73 1801.47 3533.69 1806.32 3533.69Z" fill="white"/>
</g>
<g filter="url(#filter51_f_4218_1402)">
<path d="M715.445 148.144C716.625 148.144 717.582 139.829 717.582 129.572C717.582 119.315 716.625 111 715.445 111C714.265 111 713.309 119.315 713.309 129.572C713.309 139.829 714.265 148.144 715.445 148.144Z" fill="white"/>
</g>
<g filter="url(#filter52_f_4218_1402)">
<path d="M715.445 3297.95C716.625 3297.95 717.582 3289.63 717.582 3279.38C717.582 3269.12 716.625 3260.8 715.445 3260.8C714.265 3260.8 713.309 3269.12 713.309 3279.38C713.309 3289.63 714.265 3297.95 715.445 3297.95Z" fill="white"/>
</g>
<g filter="url(#filter53_f_4218_1402)">
<path d="M695.999 129.572C695.999 130.162 704.705 130.64 715.445 130.64C726.184 130.64 734.891 130.162 734.891 129.572C734.891 128.982 726.184 128.504 715.445 128.504C704.705 128.504 695.999 128.982 695.999 129.572Z" fill="white"/>
</g>
<g filter="url(#filter54_f_4218_1402)">
<path d="M715.919 134.164C720.766 134.164 724.696 132.199 724.696 129.775C724.696 127.351 720.766 125.386 715.919 125.386C711.071 125.386 707.141 127.351 707.141 129.775C707.141 132.199 711.071 134.164 715.919 134.164Z" fill="white"/>
</g>
<g filter="url(#filter55_f_4218_1402)">
<path d="M715.919 3283.97C720.766 3283.97 724.696 3282 724.696 3279.58C724.696 3277.15 720.766 3275.19 715.919 3275.19C711.071 3275.19 707.141 3277.15 707.141 3279.58C707.141 3282 711.071 3283.97 715.919 3283.97Z" fill="white"/>
</g>
<g filter="url(#filter56_f_4218_1402)">
<path d="M1054.77 731.701C1055.95 731.701 1056.9 723.386 1056.9 713.129C1056.9 702.872 1055.95 694.557 1054.77 694.557C1053.59 694.557 1052.63 702.872 1052.63 713.129C1052.63 723.386 1053.59 731.701 1054.77 731.701Z" fill="white"/>
</g>
<g filter="url(#filter57_f_4218_1402)">
<path d="M749.008 3663.74C750.188 3663.74 751.144 3655.42 751.144 3645.16C751.144 3634.91 750.188 3626.59 749.008 3626.59C747.828 3626.59 746.871 3634.91 746.871 3645.16C746.871 3655.42 747.828 3663.74 749.008 3663.74Z" fill="white"/>
</g>
<g filter="url(#filter58_f_4218_1402)">
<path d="M1035.32 713.129C1035.32 713.719 1044.03 714.197 1054.77 714.197C1065.5 714.197 1074.21 713.719 1074.21 713.129C1074.21 712.539 1065.5 712.061 1054.77 712.061C1044.03 712.061 1035.32 712.539 1035.32 713.129Z" fill="white"/>
</g>
<g filter="url(#filter59_f_4218_1402)">
<path d="M729.562 3645.16C729.562 3645.75 738.268 3646.23 749.007 3646.23C759.747 3646.23 768.453 3645.75 768.453 3645.16C768.453 3644.57 759.747 3644.09 749.007 3644.09C738.268 3644.09 729.562 3644.57 729.562 3645.16Z" fill="white"/>
</g>
<g filter="url(#filter60_f_4218_1402)">
<path d="M1055.24 717.722C1060.09 717.722 1064.02 715.757 1064.02 713.333C1064.02 710.909 1060.09 708.944 1055.24 708.944C1050.39 708.944 1046.46 710.909 1046.46 713.333C1046.46 715.757 1050.39 717.722 1055.24 717.722Z" fill="white"/>
</g>
<g filter="url(#filter61_f_4218_1402)">
<path d="M749.481 3649.76C754.329 3649.76 758.259 3647.79 758.259 3645.37C758.259 3642.94 754.329 3640.98 749.481 3640.98C744.633 3640.98 740.703 3642.94 740.703 3645.37C740.703 3647.79 744.633 3649.76 749.481 3649.76Z" fill="white"/>
</g>
<g filter="url(#filter62_f_4218_1402)">
<path d="M630 1008.03C631.18 1008.03 632.136 999.72 632.136 989.463C632.136 979.206 631.18 970.891 630 970.891C628.82 970.891 627.863 979.206 627.863 989.463C627.863 999.72 628.82 1008.03 630 1008.03Z" fill="white"/>
</g>
<g filter="url(#filter63_f_4218_1402)">
<path d="M289.047 4232.63C290.227 4232.63 291.183 4224.31 291.183 4214.06C291.183 4203.8 290.227 4195.48 289.047 4195.48C287.867 4195.48 286.91 4203.8 286.91 4214.06C286.91 4224.31 287.867 4232.63 289.047 4232.63Z" fill="white"/>
</g>
<g filter="url(#filter64_f_4218_1402)">
<path d="M610.554 989.463C610.554 990.053 619.26 990.531 630 990.531C640.739 990.531 649.445 990.053 649.445 989.463C649.445 988.873 640.739 988.395 630 988.395C619.26 988.395 610.554 988.873 610.554 989.463Z" fill="white"/>
</g>
<g filter="url(#filter65_f_4218_1402)">
<path d="M269.601 4214.06C269.601 4214.65 278.307 4215.12 289.046 4215.12C299.786 4215.12 308.492 4214.65 308.492 4214.06C308.492 4213.47 299.786 4212.99 289.046 4212.99C278.307 4212.99 269.601 4213.47 269.601 4214.06Z" fill="white"/>
</g>
<g filter="url(#filter66_f_4218_1402)">
<path d="M630.473 994.056C635.321 994.056 639.251 992.091 639.251 989.667C639.251 987.243 635.321 985.278 630.473 985.278C625.625 985.278 621.695 987.243 621.695 989.667C621.695 992.091 625.625 994.056 630.473 994.056Z" fill="white"/>
</g>
<g filter="url(#filter67_f_4218_1402)">
<path d="M289.52 4218.65C294.368 4218.65 298.298 4216.68 298.298 4214.26C298.298 4211.84 294.368 4209.87 289.52 4209.87C284.672 4209.87 280.742 4211.84 280.742 4214.26C280.742 4216.68 284.672 4218.65 289.52 4218.65Z" fill="white"/>
</g>
<g filter="url(#filter68_f_4218_1402)">
<path d="M2828.82 76C2830.75 76 2832.32 74.433 2832.32 72.5C2832.32 70.567 2830.75 69 2828.82 69C2826.89 69 2825.32 70.567 2825.32 72.5C2825.32 74.433 2826.89 76 2828.82 76Z" fill="white"/>
</g>
</g>
<defs>
<filter id="filter0_f_4218_1402" x="2303.34" y="1844.36" width="130.383" height="440.451" filterUnits="userSpaceOnUse" color-interpolation-filters="sRGB">
<feFlood flood-opacity="0" result="BackgroundImageFix"/>
<feBlend mode="normal" in="SourceGraphic" in2="BackgroundImageFix" result="shape"/>
<feGaussianBlur stdDeviation="2.5" result="effect1_foregroundBlur_4218_1402"/>
</filter>
<filter id="filter1_f_4218_1402" x="2303.34" y="4994.16" width="130.383" height="440.451" filterUnits="userSpaceOnUse" color-interpolation-filters="sRGB">
<feFlood flood-opacity="0" result="BackgroundImageFix"/>
<feBlend mode="normal" in="SourceGraphic" in2="BackgroundImageFix" result="shape"/>
<feGaussianBlur stdDeviation="2.5" result="effect1_foregroundBlur_4218_1402"/>
</filter>
<filter id="filter2_f_4218_1402" x="872.738" y="2075.04" width="17" height="17" filterUnits="userSpaceOnUse" color-interpolation-filters="sRGB">
<feFlood flood-opacity="0" result="BackgroundImageFix"/>
<feBlend mode="normal" in="SourceGraphic" in2="BackgroundImageFix" result="shape"/>
<feGaussianBlur stdDeviation="2.5" result="effect1_foregroundBlur_4218_1402"/>
</filter>
<filter id="filter3_f_4218_1402" x="872.738" y="5224.84" width="17" height="17" filterUnits="userSpaceOnUse" color-interpolation-filters="sRGB">
<feFlood flood-opacity="0" result="BackgroundImageFix"/>
<feBlend mode="normal" in="SourceGraphic" in2="BackgroundImageFix" result="shape"/>
<feGaussianBlur stdDeviation="2.5" result="effect1_foregroundBlur_4218_1402"/>
</filter>
<filter id="filter4_f_4218_1402" x="558.336" y="1483.24" width="1045.91" height="900.357" filterUnits="userSpaceOnUse" color-interpolation-filters="sRGB">
<feFlood flood-opacity="0" result="BackgroundImageFix"/>
<feBlend mode="normal" in="SourceGraphic" in2="BackgroundImageFix" result="shape"/>
<feGaussianBlur stdDeviation="2.5" result="effect1_foregroundBlur_4218_1402"/>
</filter>
<filter id="filter5_f_4218_1402" x="558.336" y="4490.09" width="2084.16" height="1268.63" filterUnits="userSpaceOnUse" color-interpolation-filters="sRGB">
<feFlood flood-opacity="0" result="BackgroundImageFix"/>
<feBlend mode="normal" in="SourceGraphic" in2="BackgroundImageFix" result="shape"/>
<feGaussianBlur stdDeviation="2.5" result="effect1_foregroundBlur_4218_1402"/>
</filter>
<filter id="filter6_f_4218_1402" x="2125.78" y="1062.7" width="635.363" height="3290.13" filterUnits="userSpaceOnUse" color-interpolation-filters="sRGB">
<feFlood flood-opacity="0" result="BackgroundImageFix"/>
<feBlend mode="normal" in="SourceGraphic" in2="BackgroundImageFix" result="shape"/>
<feGaussianBlur stdDeviation="2.5" result="effect1_foregroundBlur_4218_1402"/>
</filter>
<filter id="filter7_f_4218_1402" x="319.25" y="1139.33" width="894.016" height="3166.8" filterUnits="userSpaceOnUse" color-interpolation-filters="sRGB">
<feFlood flood-opacity="0" result="BackgroundImageFix"/>
<feBlend mode="normal" in="SourceGraphic" in2="BackgroundImageFix" result="shape"/>
<feGaussianBlur stdDeviation="2.5" result="effect1_foregroundBlur_4218_1402"/>
</filter>
<filter id="filter8_f_4218_1402" x="317.863" y="1870.44" width="8.27344" height="41.1431" filterUnits="userSpaceOnUse" color-interpolation-filters="sRGB">
<feFlood flood-opacity="0" result="BackgroundImageFix"/>
<feBlend mode="normal" in="SourceGraphic" in2="BackgroundImageFix" result="shape"/>
<feGaussianBlur stdDeviation="1" result="effect1_foregroundBlur_4218_1402"/>
</filter>
<filter id="filter9_f_4218_1402" x="300.555" y="1887.94" width="42.8906" height="6.13647" filterUnits="userSpaceOnUse" color-interpolation-filters="sRGB">
<feFlood flood-opacity="0" result="BackgroundImageFix"/>
<feBlend mode="normal" in="SourceGraphic" in2="BackgroundImageFix" result="shape"/>
<feGaussianBlur stdDeviation="1" result="effect1_foregroundBlur_4218_1402"/>
</filter>
<filter id="filter10_f_4218_1402" x="308.695" y="1881.82" width="27.5547" height="18.7778" filterUnits="userSpaceOnUse" color-interpolation-filters="sRGB">
<feFlood flood-opacity="0" result="BackgroundImageFix"/>
<feBlend mode="normal" in="SourceGraphic" in2="BackgroundImageFix" result="shape"/>
<feGaussianBlur stdDeviation="2.5" result="effect1_foregroundBlur_4218_1402"/>
</filter>
<filter id="filter11_f_4218_1402" x="1971.31" y="2152" width="8.27344" height="41.1433" filterUnits="userSpaceOnUse" color-interpolation-filters="sRGB">
<feFlood flood-opacity="0" result="BackgroundImageFix"/>
<feBlend mode="normal" in="SourceGraphic" in2="BackgroundImageFix" result="shape"/>
<feGaussianBlur stdDeviation="1" result="effect1_foregroundBlur_4218_1402"/>
</filter>
<filter id="filter12_f_4218_1402" x="1971.31" y="5301.8" width="8.27344" height="41.1436" filterUnits="userSpaceOnUse" color-interpolation-filters="sRGB">
<feFlood flood-opacity="0" result="BackgroundImageFix"/>
<feBlend mode="normal" in="SourceGraphic" in2="BackgroundImageFix" result="shape"/>
<feGaussianBlur stdDeviation="1" result="effect1_foregroundBlur_4218_1402"/>
</filter>
<filter id="filter13_f_4218_1402" x="1954" y="2169.5" width="42.8906" height="6.13647" filterUnits="userSpaceOnUse" color-interpolation-filters="sRGB">
<feFlood flood-opacity="0" result="BackgroundImageFix"/>
<feBlend mode="normal" in="SourceGraphic" in2="BackgroundImageFix" result="shape"/>
<feGaussianBlur stdDeviation="1" result="effect1_foregroundBlur_4218_1402"/>
</filter>
<filter id="filter14_f_4218_1402" x="1954" y="5319.31" width="42.8906" height="6.13672" filterUnits="userSpaceOnUse" color-interpolation-filters="sRGB">
<feFlood flood-opacity="0" result="BackgroundImageFix"/>
<feBlend mode="normal" in="SourceGraphic" in2="BackgroundImageFix" result="shape"/>
<feGaussianBlur stdDeviation="1" result="effect1_foregroundBlur_4218_1402"/>
</filter>
<filter id="filter15_f_4218_1402" x="1962.14" y="2163.39" width="27.5547" height="18.7778" filterUnits="userSpaceOnUse" color-interpolation-filters="sRGB">
<feFlood flood-opacity="0" result="BackgroundImageFix"/>
<feBlend mode="normal" in="SourceGraphic" in2="BackgroundImageFix" result="shape"/>
<feGaussianBlur stdDeviation="2.5" result="effect1_foregroundBlur_4218_1402"/>
</filter>
<filter id="filter16_f_4218_1402" x="1962.14" y="5313.19" width="27.5547" height="18.7778" filterUnits="userSpaceOnUse" color-interpolation-filters="sRGB">
<feFlood flood-opacity="0" result="BackgroundImageFix"/>
<feBlend mode="normal" in="SourceGraphic" in2="BackgroundImageFix" result="shape"/>
<feGaussianBlur stdDeviation="2.5" result="effect1_foregroundBlur_4218_1402"/>
</filter>
<filter id="filter17_f_4218_1402" x="730.383" y="1318.04" width="8.27344" height="41.1431" filterUnits="userSpaceOnUse" color-interpolation-filters="sRGB">
<feFlood flood-opacity="0" result="BackgroundImageFix"/>
<feBlend mode="normal" in="SourceGraphic" in2="BackgroundImageFix" result="shape"/>
<feGaussianBlur stdDeviation="1" result="effect1_foregroundBlur_4218_1402"/>
</filter>
<filter id="filter18_f_4218_1402" x="378.434" y="4978.17" width="8.27344" height="41.1431" filterUnits="userSpaceOnUse" color-interpolation-filters="sRGB">
<feFlood flood-opacity="0" result="BackgroundImageFix"/>
<feBlend mode="normal" in="SourceGraphic" in2="BackgroundImageFix" result="shape"/>
<feGaussianBlur stdDeviation="1" result="effect1_foregroundBlur_4218_1402"/>
</filter>
<filter id="filter19_f_4218_1402" x="713.074" y="1335.54" width="42.8906" height="6.13647" filterUnits="userSpaceOnUse" color-interpolation-filters="sRGB">
<feFlood flood-opacity="0" result="BackgroundImageFix"/>
<feBlend mode="normal" in="SourceGraphic" in2="BackgroundImageFix" result="shape"/>
<feGaussianBlur stdDeviation="1" result="effect1_foregroundBlur_4218_1402"/>
</filter>
<filter id="filter20_f_4218_1402" x="361.125" y="4995.67" width="42.8906" height="6.13672" filterUnits="userSpaceOnUse" color-interpolation-filters="sRGB">
<feFlood flood-opacity="0" result="BackgroundImageFix"/>
<feBlend mode="normal" in="SourceGraphic" in2="BackgroundImageFix" result="shape"/>
<feGaussianBlur stdDeviation="1" result="effect1_foregroundBlur_4218_1402"/>
</filter>
<filter id="filter21_f_4218_1402" x="721.215" y="1329.43" width="27.5547" height="18.7778" filterUnits="userSpaceOnUse" color-interpolation-filters="sRGB">
<feFlood flood-opacity="0" result="BackgroundImageFix"/>
<feBlend mode="normal" in="SourceGraphic" in2="BackgroundImageFix" result="shape"/>
<feGaussianBlur stdDeviation="2.5" result="effect1_foregroundBlur_4218_1402"/>
</filter>
<filter id="filter22_f_4218_1402" x="369.266" y="4989.56" width="27.5547" height="18.7778" filterUnits="userSpaceOnUse" color-interpolation-filters="sRGB">
<feFlood flood-opacity="0" result="BackgroundImageFix"/>
<feBlend mode="normal" in="SourceGraphic" in2="BackgroundImageFix" result="shape"/>
<feGaussianBlur stdDeviation="2.5" result="effect1_foregroundBlur_4218_1402"/>
</filter>
<filter id="filter23_f_4218_1402" x="1635.31" y="1227.5" width="8.27344" height="41.1431" filterUnits="userSpaceOnUse" color-interpolation-filters="sRGB">
<feFlood flood-opacity="0" result="BackgroundImageFix"/>
<feBlend mode="normal" in="SourceGraphic" in2="BackgroundImageFix" result="shape"/>
<feGaussianBlur stdDeviation="1" result="effect1_foregroundBlur_4218_1402"/>
</filter>
<filter id="filter24_f_4218_1402" x="1635.31" y="4377.3" width="8.27344" height="41.1431" filterUnits="userSpaceOnUse" color-interpolation-filters="sRGB">
<feFlood flood-opacity="0" result="BackgroundImageFix"/>
<feBlend mode="normal" in="SourceGraphic" in2="BackgroundImageFix" result="shape"/>
<feGaussianBlur stdDeviation="1" result="effect1_foregroundBlur_4218_1402"/>
</filter>
<filter id="filter25_f_4218_1402" x="2633.94" y="764.567" width="8.27344" height="41.1432" filterUnits="userSpaceOnUse" color-interpolation-filters="sRGB">
<feFlood flood-opacity="0" result="BackgroundImageFix"/>
<feBlend mode="normal" in="SourceGraphic" in2="BackgroundImageFix" result="shape"/>
<feGaussianBlur stdDeviation="1" result="effect1_foregroundBlur_4218_1402"/>
</filter>
<filter id="filter26_f_4218_1402" x="2633.94" y="3914.37" width="8.27344" height="41.1431" filterUnits="userSpaceOnUse" color-interpolation-filters="sRGB">
<feFlood flood-opacity="0" result="BackgroundImageFix"/>
<feBlend mode="normal" in="SourceGraphic" in2="BackgroundImageFix" result="shape"/>
<feGaussianBlur stdDeviation="1" result="effect1_foregroundBlur_4218_1402"/>
</filter>
<filter id="filter27_f_4218_1402" x="1618" y="1245" width="42.8906" height="6.13647" filterUnits="userSpaceOnUse" color-interpolation-filters="sRGB">
<feFlood flood-opacity="0" result="BackgroundImageFix"/>
<feBlend mode="normal" in="SourceGraphic" in2="BackgroundImageFix" result="shape"/>
<feGaussianBlur stdDeviation="1" result="effect1_foregroundBlur_4218_1402"/>
</filter>
<filter id="filter28_f_4218_1402" x="1618" y="4394.81" width="42.8906" height="6.13672" filterUnits="userSpaceOnUse" color-interpolation-filters="sRGB">
<feFlood flood-opacity="0" result="BackgroundImageFix"/>
<feBlend mode="normal" in="SourceGraphic" in2="BackgroundImageFix" result="shape"/>
<feGaussianBlur stdDeviation="1" result="effect1_foregroundBlur_4218_1402"/>
</filter>
<filter id="filter29_f_4218_1402" x="2616.63" y="782.07" width="42.8906" height="6.1366" filterUnits="userSpaceOnUse" color-interpolation-filters="sRGB">
<feFlood flood-opacity="0" result="BackgroundImageFix"/>
<feBlend mode="normal" in="SourceGraphic" in2="BackgroundImageFix" result="shape"/>
<feGaussianBlur stdDeviation="1" result="effect1_foregroundBlur_4218_1402"/>
</filter>
<filter id="filter30_f_4218_1402" x="2616.63" y="3931.87" width="42.8906" height="6.13672" filterUnits="userSpaceOnUse" color-interpolation-filters="sRGB">
<feFlood flood-opacity="0" result="BackgroundImageFix"/>
<feBlend mode="normal" in="SourceGraphic" in2="BackgroundImageFix" result="shape"/>
<feGaussianBlur stdDeviation="1" result="effect1_foregroundBlur_4218_1402"/>
</filter>
<filter id="filter31_f_4218_1402" x="1626.14" y="1238.88" width="27.5547" height="18.7778" filterUnits="userSpaceOnUse" color-interpolation-filters="sRGB">
<feFlood flood-opacity="0" result="BackgroundImageFix"/>
<feBlend mode="normal" in="SourceGraphic" in2="BackgroundImageFix" result="shape"/>
<feGaussianBlur stdDeviation="2.5" result="effect1_foregroundBlur_4218_1402"/>
</filter>
<filter id="filter32_f_4218_1402" x="1626.14" y="4388.68" width="27.5547" height="18.7778" filterUnits="userSpaceOnUse" color-interpolation-filters="sRGB">
<feFlood flood-opacity="0" result="BackgroundImageFix"/>
<feBlend mode="normal" in="SourceGraphic" in2="BackgroundImageFix" result="shape"/>
<feGaussianBlur stdDeviation="2.5" result="effect1_foregroundBlur_4218_1402"/>
</filter>
<filter id="filter33_f_4218_1402" x="2624.77" y="775.949" width="27.5547" height="18.7778" filterUnits="userSpaceOnUse" color-interpolation-filters="sRGB">
<feFlood flood-opacity="0" result="BackgroundImageFix"/>
<feBlend mode="normal" in="SourceGraphic" in2="BackgroundImageFix" result="shape"/>
<feGaussianBlur stdDeviation="2.5" result="effect1_foregroundBlur_4218_1402"/>
</filter>
<filter id="filter34_f_4218_1402" x="2624.77" y="3925.75" width="27.5547" height="18.7778" filterUnits="userSpaceOnUse" color-interpolation-filters="sRGB">
<feFlood flood-opacity="0" result="BackgroundImageFix"/>
<feBlend mode="normal" in="SourceGraphic" in2="BackgroundImageFix" result="shape"/>
<feGaussianBlur stdDeviation="2.5" result="effect1_foregroundBlur_4218_1402"/>
</filter>
<filter id="filter35_f_4218_1402" x="2410.32" y="195" width="17" height="17" filterUnits="userSpaceOnUse" color-interpolation-filters="sRGB">
<feFlood flood-opacity="0" result="BackgroundImageFix"/>
<feBlend mode="normal" in="SourceGraphic" in2="BackgroundImageFix" result="shape"/>
<feGaussianBlur stdDeviation="2.5" result="effect1_foregroundBlur_4218_1402"/>
</filter>
<filter id="filter36_f_4218_1402" x="2410.32" y="3344.8" width="17" height="17" filterUnits="userSpaceOnUse" color-interpolation-filters="sRGB">
<feFlood flood-opacity="0" result="BackgroundImageFix"/>
<feBlend mode="normal" in="SourceGraphic" in2="BackgroundImageFix" result="shape"/>
<feGaussianBlur stdDeviation="2.5" result="effect1_foregroundBlur_4218_1402"/>
</filter>
<filter id="filter37_f_4218_1402" x="1394.32" y="89" width="17" height="17" filterUnits="userSpaceOnUse" color-interpolation-filters="sRGB">
<feFlood flood-opacity="0" result="BackgroundImageFix"/>
<feBlend mode="normal" in="SourceGraphic" in2="BackgroundImageFix" result="shape"/>
<feGaussianBlur stdDeviation="2.5" result="effect1_foregroundBlur_4218_1402"/>
</filter>
<filter id="filter38_f_4218_1402" x="175.277" y="916.306" width="858.043" height="3192.5" filterUnits="userSpaceOnUse" color-interpolation-filters="sRGB">
<feFlood flood-opacity="0" result="BackgroundImageFix"/>
<feBlend mode="normal" in="SourceGraphic" in2="BackgroundImageFix" result="shape"/>
<feGaussianBlur stdDeviation="2.5" result="effect1_foregroundBlur_4218_1402"/>
</filter>
<filter id="filter39_f_4218_1402" x="1906.32" y="509.033" width="467.5" height="237.967" filterUnits="userSpaceOnUse" color-interpolation-filters="sRGB">
<feFlood flood-opacity="0" result="BackgroundImageFix"/>
<feBlend mode="normal" in="SourceGraphic" in2="BackgroundImageFix" result="shape"/>
<feGaussianBlur stdDeviation="2.5" result="effect1_foregroundBlur_4218_1402"/>
</filter>
<filter id="filter40_f_4218_1402" x="1906.32" y="3658.84" width="467.5" height="237.967" filterUnits="userSpaceOnUse" color-interpolation-filters="sRGB">
<feFlood flood-opacity="0" result="BackgroundImageFix"/>
<feBlend mode="normal" in="SourceGraphic" in2="BackgroundImageFix" result="shape"/>
<feGaussianBlur stdDeviation="2.5" result="effect1_foregroundBlur_4218_1402"/>
</filter>
<filter id="filter41_f_4218_1402" x="419.18" y="639.976" width="1096.14" height="166.024" filterUnits="userSpaceOnUse" color-interpolation-filters="sRGB">
<feFlood flood-opacity="0" result="BackgroundImageFix"/>
<feBlend mode="normal" in="SourceGraphic" in2="BackgroundImageFix" result="shape"/>
<feGaussianBlur stdDeviation="2.5" result="effect1_foregroundBlur_4218_1402"/>
</filter>
<filter id="filter42_f_4218_1402" x="419.18" y="3789.78" width="1096.14" height="166.024" filterUnits="userSpaceOnUse" color-interpolation-filters="sRGB">
<feFlood flood-opacity="0" result="BackgroundImageFix"/>
<feBlend mode="normal" in="SourceGraphic" in2="BackgroundImageFix" result="shape"/>
<feGaussianBlur stdDeviation="2.5" result="effect1_foregroundBlur_4218_1402"/>
</filter>
<filter id="filter43_f_4218_1402" x="1134.32" y="224" width="17" height="17" filterUnits="userSpaceOnUse" color-interpolation-filters="sRGB">
<feFlood flood-opacity="0" result="BackgroundImageFix"/>
<feBlend mode="normal" in="SourceGraphic" in2="BackgroundImageFix" result="shape"/>
<feGaussianBlur stdDeviation="2.5" result="effect1_foregroundBlur_4218_1402"/>
</filter>
<filter id="filter44_f_4218_1402" x="1134.32" y="3373.8" width="17" height="17" filterUnits="userSpaceOnUse" color-interpolation-filters="sRGB">
<feFlood flood-opacity="0" result="BackgroundImageFix"/>
<feBlend mode="normal" in="SourceGraphic" in2="BackgroundImageFix" result="shape"/>
<feGaussianBlur stdDeviation="2.5" result="effect1_foregroundBlur_4218_1402"/>
</filter>
<filter id="filter45_f_4218_1402" x="1801.71" y="358.724" width="8.27344" height="41.1432" filterUnits="userSpaceOnUse" color-interpolation-filters="sRGB">
<feFlood flood-opacity="0" result="BackgroundImageFix"/>
<feBlend mode="normal" in="SourceGraphic" in2="BackgroundImageFix" result="shape"/>
<feGaussianBlur stdDeviation="1" result="effect1_foregroundBlur_4218_1402"/>
</filter>
<filter id="filter46_f_4218_1402" x="1801.71" y="3508.53" width="8.27344" height="41.1431" filterUnits="userSpaceOnUse" color-interpolation-filters="sRGB">
<feFlood flood-opacity="0" result="BackgroundImageFix"/>
<feBlend mode="normal" in="SourceGraphic" in2="BackgroundImageFix" result="shape"/>
<feGaussianBlur stdDeviation="1" result="effect1_foregroundBlur_4218_1402"/>
</filter>
<filter id="filter47_f_4218_1402" x="1784.4" y="376.228" width="42.8906" height="6.1366" filterUnits="userSpaceOnUse" color-interpolation-filters="sRGB">
<feFlood flood-opacity="0" result="BackgroundImageFix"/>
<feBlend mode="normal" in="SourceGraphic" in2="BackgroundImageFix" result="shape"/>
<feGaussianBlur stdDeviation="1" result="effect1_foregroundBlur_4218_1402"/>
</filter>
<filter id="filter48_f_4218_1402" x="1784.4" y="3526.03" width="42.8906" height="6.13672" filterUnits="userSpaceOnUse" color-interpolation-filters="sRGB">
<feFlood flood-opacity="0" result="BackgroundImageFix"/>
<feBlend mode="normal" in="SourceGraphic" in2="BackgroundImageFix" result="shape"/>
<feGaussianBlur stdDeviation="1" result="effect1_foregroundBlur_4218_1402"/>
</filter>
<filter id="filter49_f_4218_1402" x="1792.54" y="370.111" width="27.5547" height="18.7778" filterUnits="userSpaceOnUse" color-interpolation-filters="sRGB">
<feFlood flood-opacity="0" result="BackgroundImageFix"/>
<feBlend mode="normal" in="SourceGraphic" in2="BackgroundImageFix" result="shape"/>
<feGaussianBlur stdDeviation="2.5" result="effect1_foregroundBlur_4218_1402"/>
</filter>
<filter id="filter50_f_4218_1402" x="1792.54" y="3519.92" width="27.5547" height="18.7778" filterUnits="userSpaceOnUse" color-interpolation-filters="sRGB">
<feFlood flood-opacity="0" result="BackgroundImageFix"/>
<feBlend mode="normal" in="SourceGraphic" in2="BackgroundImageFix" result="shape"/>
<feGaussianBlur stdDeviation="2.5" result="effect1_foregroundBlur_4218_1402"/>
</filter>
<filter id="filter51_f_4218_1402" x="711.309" y="109" width="8.27344" height="41.1432" filterUnits="userSpaceOnUse" color-interpolation-filters="sRGB">
<feFlood flood-opacity="0" result="BackgroundImageFix"/>
<feBlend mode="normal" in="SourceGraphic" in2="BackgroundImageFix" result="shape"/>
<feGaussianBlur stdDeviation="1" result="effect1_foregroundBlur_4218_1402"/>
</filter>
<filter id="filter52_f_4218_1402" x="711.309" y="3258.8" width="8.27344" height="41.1431" filterUnits="userSpaceOnUse" color-interpolation-filters="sRGB">
<feFlood flood-opacity="0" result="BackgroundImageFix"/>
<feBlend mode="normal" in="SourceGraphic" in2="BackgroundImageFix" result="shape"/>
<feGaussianBlur stdDeviation="1" result="effect1_foregroundBlur_4218_1402"/>
</filter>
<filter id="filter53_f_4218_1402" x="694" y="126.504" width="42.8906" height="6.1366" filterUnits="userSpaceOnUse" color-interpolation-filters="sRGB">
<feFlood flood-opacity="0" result="BackgroundImageFix"/>
<feBlend mode="normal" in="SourceGraphic" in2="BackgroundImageFix" result="shape"/>
<feGaussianBlur stdDeviation="1" result="effect1_foregroundBlur_4218_1402"/>
</filter>
<filter id="filter54_f_4218_1402" x="702.141" y="120.386" width="27.5547" height="18.7778" filterUnits="userSpaceOnUse" color-interpolation-filters="sRGB">
<feFlood flood-opacity="0" result="BackgroundImageFix"/>
<feBlend mode="normal" in="SourceGraphic" in2="BackgroundImageFix" result="shape"/>
<feGaussianBlur stdDeviation="2.5" result="effect1_foregroundBlur_4218_1402"/>
</filter>
<filter id="filter55_f_4218_1402" x="702.141" y="3270.19" width="27.5547" height="18.7778" filterUnits="userSpaceOnUse" color-interpolation-filters="sRGB">
<feFlood flood-opacity="0" result="BackgroundImageFix"/>
<feBlend mode="normal" in="SourceGraphic" in2="BackgroundImageFix" result="shape"/>
<feGaussianBlur stdDeviation="2.5" result="effect1_foregroundBlur_4218_1402"/>
</filter>
<filter id="filter56_f_4218_1402" x="1050.63" y="692.557" width="8.27344" height="41.1433" filterUnits="userSpaceOnUse" color-interpolation-filters="sRGB">
<feFlood flood-opacity="0" result="BackgroundImageFix"/>
<feBlend mode="normal" in="SourceGraphic" in2="BackgroundImageFix" result="shape"/>
<feGaussianBlur stdDeviation="1" result="effect1_foregroundBlur_4218_1402"/>
</filter>
<filter id="filter57_f_4218_1402" x="744.871" y="3624.59" width="8.27344" height="41.1431" filterUnits="userSpaceOnUse" color-interpolation-filters="sRGB">
<feFlood flood-opacity="0" result="BackgroundImageFix"/>
<feBlend mode="normal" in="SourceGraphic" in2="BackgroundImageFix" result="shape"/>
<feGaussianBlur stdDeviation="1" result="effect1_foregroundBlur_4218_1402"/>
</filter>
<filter id="filter58_f_4218_1402" x="1033.32" y="710.061" width="42.8906" height="6.1366" filterUnits="userSpaceOnUse" color-interpolation-filters="sRGB">
<feFlood flood-opacity="0" result="BackgroundImageFix"/>
<feBlend mode="normal" in="SourceGraphic" in2="BackgroundImageFix" result="shape"/>
<feGaussianBlur stdDeviation="1" result="effect1_foregroundBlur_4218_1402"/>
</filter>
<filter id="filter59_f_4218_1402" x="727.562" y="3642.09" width="42.8906" height="6.13672" filterUnits="userSpaceOnUse" color-interpolation-filters="sRGB">
<feFlood flood-opacity="0" result="BackgroundImageFix"/>
<feBlend mode="normal" in="SourceGraphic" in2="BackgroundImageFix" result="shape"/>
<feGaussianBlur stdDeviation="1" result="effect1_foregroundBlur_4218_1402"/>
</filter>
<filter id="filter60_f_4218_1402" x="1041.46" y="703.944" width="27.5547" height="18.7778" filterUnits="userSpaceOnUse" color-interpolation-filters="sRGB">
<feFlood flood-opacity="0" result="BackgroundImageFix"/>
<feBlend mode="normal" in="SourceGraphic" in2="BackgroundImageFix" result="shape"/>
<feGaussianBlur stdDeviation="2.5" result="effect1_foregroundBlur_4218_1402"/>
</filter>
<filter id="filter61_f_4218_1402" x="735.703" y="3635.98" width="27.5547" height="18.7778" filterUnits="userSpaceOnUse" color-interpolation-filters="sRGB">
<feFlood flood-opacity="0" result="BackgroundImageFix"/>
<feBlend mode="normal" in="SourceGraphic" in2="BackgroundImageFix" result="shape"/>
<feGaussianBlur stdDeviation="2.5" result="effect1_foregroundBlur_4218_1402"/>
</filter>
<filter id="filter62_f_4218_1402" x="625.863" y="968.891" width="8.27344" height="41.1432" filterUnits="userSpaceOnUse" color-interpolation-filters="sRGB">
<feFlood flood-opacity="0" result="BackgroundImageFix"/>
<feBlend mode="normal" in="SourceGraphic" in2="BackgroundImageFix" result="shape"/>
<feGaussianBlur stdDeviation="1" result="effect1_foregroundBlur_4218_1402"/>
</filter>
<filter id="filter63_f_4218_1402" x="284.91" y="4193.48" width="8.27344" height="41.1431" filterUnits="userSpaceOnUse" color-interpolation-filters="sRGB">
<feFlood flood-opacity="0" result="BackgroundImageFix"/>
<feBlend mode="normal" in="SourceGraphic" in2="BackgroundImageFix" result="shape"/>
<feGaussianBlur stdDeviation="1" result="effect1_foregroundBlur_4218_1402"/>
</filter>
<filter id="filter64_f_4218_1402" x="608.555" y="986.395" width="42.8906" height="6.1366" filterUnits="userSpaceOnUse" color-interpolation-filters="sRGB">
<feFlood flood-opacity="0" result="BackgroundImageFix"/>
<feBlend mode="normal" in="SourceGraphic" in2="BackgroundImageFix" result="shape"/>
<feGaussianBlur stdDeviation="1" result="effect1_foregroundBlur_4218_1402"/>
</filter>
<filter id="filter65_f_4218_1402" x="267.602" y="4210.99" width="42.8906" height="6.13672" filterUnits="userSpaceOnUse" color-interpolation-filters="sRGB">
<feFlood flood-opacity="0" result="BackgroundImageFix"/>
<feBlend mode="normal" in="SourceGraphic" in2="BackgroundImageFix" result="shape"/>
<feGaussianBlur stdDeviation="1" result="effect1_foregroundBlur_4218_1402"/>
</filter>
<filter id="filter66_f_4218_1402" x="616.695" y="980.278" width="27.5547" height="18.7778" filterUnits="userSpaceOnUse" color-interpolation-filters="sRGB">
<feFlood flood-opacity="0" result="BackgroundImageFix"/>
<feBlend mode="normal" in="SourceGraphic" in2="BackgroundImageFix" result="shape"/>
<feGaussianBlur stdDeviation="2.5" result="effect1_foregroundBlur_4218_1402"/>
</filter>
<filter id="filter67_f_4218_1402" x="275.742" y="4204.87" width="27.5547" height="18.7778" filterUnits="userSpaceOnUse" color-interpolation-filters="sRGB">
<feFlood flood-opacity="0" result="BackgroundImageFix"/>
<feBlend mode="normal" in="SourceGraphic" in2="BackgroundImageFix" result="shape"/>
<feGaussianBlur stdDeviation="2.5" result="effect1_foregroundBlur_4218_1402"/>
</filter>
<filter id="filter68_f_4218_1402" x="2820.32" y="64" width="17" height="17" filterUnits="userSpaceOnUse" color-interpolation-filters="sRGB">
<feFlood flood-opacity="0" result="BackgroundImageFix"/>
<feBlend mode="normal" in="SourceGraphic" in2="BackgroundImageFix" result="shape"/>
<feGaussianBlur stdDeviation="2.5" result="effect1_foregroundBlur_4218_1402"/>
</filter>
<linearGradient id="paint0_linear_4218_1402" x1="1421.64" y1="102.637" x2="1421.64" y2="528.39" gradientUnits="userSpaceOnUse">
<stop stop-color="#1C0D3F"/>
<stop offset="1" stop-color="#1C137E"/>
</linearGradient>
<linearGradient id="paint1_linear_4218_1402" x1="1421.64" y1="3252.44" x2="1421.64" y2="3678.19" gradientUnits="userSpaceOnUse">
<stop stop-color="#1C0D3F"/>
<stop offset="1" stop-color="#1C137E"/>
</linearGradient>
<radialGradient id="paint2_radial_4218_1402" cx="0" cy="0" r="1" gradientUnits="userSpaceOnUse" gradientTransform="translate(1812.21 1344.78) rotate(-172.061) scale(2864.71 869.587)">
<stop stop-color="#1C0D3F"/>
<stop offset="1" stop-color="#1C137E"/>
</radialGradient>
<radialGradient id="paint3_radial_4218_1402" cx="0" cy="0" r="1" gradientUnits="userSpaceOnUse" gradientTransform="translate(1039.79 4494.58) rotate(-7.93881) scale(2864.71 869.587)">
<stop stop-color="#1C0D3F"/>
<stop offset="1" stop-color="#1C137E"/>
</radialGradient>
<linearGradient id="paint4_linear_4218_1402" x1="178" y1="2336.5" x2="334.917" y2="1698.29" gradientUnits="userSpaceOnUse">
<stop stop-color="#1C0D3F"/>
<stop offset="1" stop-color="#1C137E"/>
</linearGradient>
<linearGradient id="paint5_linear_4218_1402" x1="2674" y1="5486.3" x2="2517.08" y2="4848.1" gradientUnits="userSpaceOnUse">
<stop stop-color="#1C0D3F"/>
<stop offset="1" stop-color="#1C137E"/>
</linearGradient>
</defs>
</svg>
