<svg width="393" height="235" viewBox="0 0 393 235" fill="none" xmlns="http://www.w3.org/2000/svg">
<rect width="393" height="235" fill="#1C0D3F"/>
<path d="M193.789 190.376L194.858 189.771L192.72 188.561L191.652 189.166L193.789 190.376ZM183.445 193.812C182.855 194.146 182.855 194.687 183.445 195.021C184.035 195.356 184.992 195.356 185.582 195.021L183.445 193.812ZM191.652 189.166L183.445 193.812L185.582 195.021L193.789 190.376L191.652 189.166Z" fill="#F2F4F6"/>
<path d="M187.264 186.681L188.333 186.077L186.195 184.867L185.127 185.472L187.264 186.681ZM176.92 190.117C176.33 190.451 176.33 190.993 176.92 191.327C177.51 191.661 178.467 191.661 179.057 191.327L176.92 190.117ZM185.127 185.472L176.92 190.117L179.057 191.327L187.264 186.681L185.127 185.472Z" fill="#F2F4F6"/>
<path d="M180.739 182.988L181.808 182.383L179.67 181.173L178.602 181.778L180.739 182.988ZM170.395 186.424C169.805 186.758 169.805 187.3 170.395 187.634C170.985 187.968 171.942 187.968 172.532 187.634L170.395 186.424ZM178.602 181.778L170.395 186.424L172.532 187.634L180.739 182.988L178.602 181.778Z" fill="#F2F4F6"/>
<path d="M174.214 179.294L175.283 178.689L173.145 177.479L172.077 178.084L174.214 179.294ZM163.87 182.73C163.28 183.064 163.28 183.606 163.87 183.94C164.46 184.274 165.417 184.274 166.007 183.94L163.87 182.73ZM172.077 178.084L163.87 182.73L166.007 183.94L174.214 179.294L172.077 178.084Z" fill="#F2F4F6"/>
<path d="M167.689 175.6L168.757 174.995L166.62 173.786L165.552 174.391L167.689 175.6ZM157.345 179.036C156.755 179.37 156.755 179.912 157.345 180.246C157.935 180.58 158.892 180.58 159.482 180.246L157.345 179.036ZM165.552 174.391L157.345 179.036L159.482 180.246L167.689 175.6L165.552 174.391Z" fill="#F2F4F6"/>
<path d="M161.164 171.907L162.232 171.302L160.095 170.092L159.027 170.697L161.164 171.907ZM150.82 175.343C150.23 175.677 150.23 176.219 150.82 176.553C151.41 176.887 152.367 176.887 152.957 176.553L150.82 175.343ZM159.027 170.697L150.82 175.343L152.957 176.553L161.164 171.907L159.027 170.697Z" fill="#F2F4F6"/>
<path d="M154.639 168.213L155.707 167.608L153.57 166.398L152.501 167.003L154.639 168.213ZM144.295 171.649C143.705 171.983 143.705 172.525 144.295 172.859C144.885 173.193 145.842 173.193 146.432 172.859L144.295 171.649ZM152.501 167.003L144.295 171.649L146.432 172.859L154.639 168.213L152.501 167.003Z" fill="#F2F4F6"/>
<path d="M148.114 164.519L149.182 163.914L147.045 162.704L145.976 163.309L148.114 164.519ZM137.77 167.955C137.18 168.289 137.18 168.83 137.77 169.165C138.36 169.499 139.317 169.499 139.907 169.165L137.77 167.955ZM145.976 163.309L137.77 167.955L139.907 169.165L148.114 164.519L145.976 163.309Z" fill="#F2F4F6"/>
<path d="M141.589 160.825L142.657 160.22L140.52 159.01L139.451 159.615L141.589 160.825ZM131.245 164.261C130.655 164.595 130.655 165.137 131.245 165.471C131.835 165.805 132.792 165.805 133.382 165.471L131.245 164.261ZM139.451 159.615L131.245 164.261L133.382 165.471L141.589 160.825L139.451 159.615Z" fill="#F2F4F6"/>
<path d="M135.063 157.132L136.132 156.527L133.995 155.317L132.926 155.922L135.063 157.132ZM124.72 160.567C124.13 160.902 124.13 161.443 124.72 161.777C125.31 162.111 126.267 162.111 126.857 161.777L124.72 160.567ZM132.926 155.922L124.72 160.567L126.857 161.777L135.063 157.132L132.926 155.922Z" fill="#F2F4F6"/>
<path d="M128.538 153.438L129.607 152.833L127.47 151.623L126.401 152.228L128.538 153.438ZM118.195 156.874C117.605 157.208 117.605 157.749 118.195 158.083C118.785 158.418 119.742 158.418 120.332 158.083L118.195 156.874ZM126.401 152.228L118.195 156.874L120.332 158.083L128.538 153.438L126.401 152.228Z" fill="#F2F4F6"/>
<path d="M122.014 149.744L123.082 149.14L120.945 147.93L119.876 148.535L122.014 149.744ZM111.67 153.18C111.08 153.514 111.08 154.056 111.67 154.39C112.26 154.724 113.217 154.724 113.807 154.39L111.67 153.18ZM119.876 148.535L111.67 153.18L113.807 154.39L122.014 149.744L119.876 148.535Z" fill="#F2F4F6"/>
<path d="M135.495 177.84L145.363 172.253" stroke="#F2F4F6" stroke-width="0.701694" stroke-linecap="round"/>
<path d="M122.445 170.453L132.313 164.866" stroke="#F2F4F6" stroke-width="0.701694" stroke-linecap="round"/>
<g filter="url(#filter0_d_3861_1540)">
<path d="M133.265 171.715L132.96 171.542L132.834 171.614L132.834 171.715L133.265 171.715ZM139.144 168.733C139.312 168.637 139.312 168.483 139.144 168.387C138.975 168.292 138.701 168.292 138.533 168.387L139.144 168.733ZM133.265 175.151L133.574 175.322L133.697 175.251L133.697 175.151L133.265 175.151ZM117.768 183.754L117.466 183.929L118.083 184.271L118.385 184.096L117.768 183.754ZM133.571 171.888L139.144 168.733L138.533 168.387L132.96 171.542L133.571 171.888ZM132.834 171.715L132.834 175.151L133.697 175.151L133.697 171.715L132.834 171.715ZM132.957 174.98L117.768 183.754L118.385 184.096L133.574 175.322L132.957 174.98Z" fill="#F2F4F6"/>
</g>
<g filter="url(#filter1_d_3861_1540)">
<path d="M152.841 182.796L153.146 182.969L153.019 183.04L152.841 183.04L152.841 182.796ZM158.108 179.468C158.277 179.373 158.55 179.373 158.719 179.468C158.887 179.564 158.887 179.718 158.719 179.814L158.108 179.468ZM146.77 182.796L146.459 182.626L146.587 182.551L146.77 182.551L146.77 182.796ZM131.652 192.003L131.352 192.179L130.731 191.839L131.031 191.663L131.652 192.003ZM152.535 182.623L158.108 179.468L158.719 179.814L153.146 182.969L152.535 182.623ZM152.841 183.04L146.77 183.04L146.77 182.551L152.841 182.551L152.841 183.04ZM147.08 182.966L131.652 192.003L131.031 191.663L146.459 182.626L147.08 182.966Z" fill="#F2F4F6"/>
</g>
<path d="M115.92 166.759L125.788 161.173" stroke="#F2F4F6" stroke-width="0.701694" stroke-linecap="round"/>
<path d="M109.394 163.065L119.263 157.479" stroke="#F2F4F6" stroke-width="0.701694" stroke-linecap="round"/>
<path d="M102.869 159.371L112.738 153.785" stroke="#F2F4F6" stroke-width="0.701694" stroke-linecap="round"/>
<path d="M142.02 181.534L151.888 175.947" stroke="#F2F4F6" stroke-width="0.701694" stroke-linecap="round"/>
<path d="M155.07 188.921L164.938 183.335" stroke="#F2F4F6" stroke-width="0.701694" stroke-linecap="round"/>
<path d="M161.595 192.615L171.464 187.029" stroke="#F2F4F6" stroke-width="0.701694" stroke-linecap="round"/>
<path d="M168.12 196.309L177.989 190.723" stroke="#F2F4F6" stroke-width="0.701694" stroke-linecap="round"/>
<path d="M174.645 200.003L184.514 194.416" stroke="#F2F4F6" stroke-width="0.701694" stroke-linecap="round"/>
<path d="M201.343 104.912L200.274 105.517L202.411 106.727L203.48 106.122L201.343 104.912ZM211.686 101.476C212.276 101.142 212.276 100.6 211.686 100.266C211.096 99.9321 210.139 99.9321 209.549 100.266L211.686 101.476ZM203.48 106.122L211.686 101.476L209.549 100.266L201.343 104.912L203.48 106.122Z" fill="#F2F4F6"/>
<path d="M207.868 108.606L206.799 109.211L208.936 110.42L210.005 109.816L207.868 108.606ZM218.211 105.17C218.802 104.836 218.802 104.294 218.211 103.96C217.621 103.626 216.664 103.626 216.074 103.96L218.211 105.17ZM210.005 109.816L218.211 105.17L216.074 103.96L207.868 108.606L210.005 109.816Z" fill="#F2F4F6"/>
<path d="M214.393 112.299L213.324 112.904L215.461 114.114L216.53 113.509L214.393 112.299ZM224.736 108.863C225.327 108.529 225.327 107.987 224.736 107.653C224.146 107.319 223.189 107.319 222.599 107.653L224.736 108.863ZM216.53 113.509L224.736 108.863L222.599 107.653L214.393 112.299L216.53 113.509Z" fill="#F2F4F6"/>
<path d="M220.918 115.993L219.849 116.598L221.986 117.808L223.055 117.203L220.918 115.993ZM231.261 112.557C231.852 112.223 231.852 111.681 231.261 111.347C230.671 111.013 229.714 111.013 229.124 111.347L231.261 112.557ZM223.055 117.203L231.261 112.557L229.124 111.347L220.918 115.993L223.055 117.203Z" fill="#F2F4F6"/>
<path d="M227.443 119.687L226.374 120.292L228.511 121.502L229.58 120.897L227.443 119.687ZM237.787 116.251C238.377 115.917 238.377 115.375 237.787 115.041C237.196 114.707 236.239 114.707 235.649 115.041L237.787 116.251ZM229.58 120.897L237.787 116.251L235.649 115.041L227.443 119.687L229.58 120.897Z" fill="#F2F4F6"/>
<path d="M233.968 123.381L232.899 123.986L235.036 125.196L236.105 124.591L233.968 123.381ZM244.312 119.945C244.902 119.611 244.902 119.069 244.312 118.735C243.721 118.401 242.765 118.401 242.174 118.735L244.312 119.945ZM236.105 124.591L244.312 119.945L242.174 118.735L233.968 123.381L236.105 124.591Z" fill="#F2F4F6"/>
<path d="M240.493 127.074L239.424 127.679L241.561 128.889L242.63 128.284L240.493 127.074ZM250.837 123.639C251.427 123.305 251.427 122.763 250.837 122.429C250.246 122.095 249.29 122.095 248.699 122.429L250.837 123.639ZM242.63 128.284L250.837 123.639L248.699 122.429L240.493 127.074L242.63 128.284Z" fill="#F2F4F6"/>
<path d="M247.018 130.768L245.949 131.373L248.087 132.583L249.155 131.978L247.018 130.768ZM257.362 127.332C257.952 126.998 257.952 126.457 257.362 126.123C256.772 125.789 255.815 125.789 255.224 126.123L257.362 127.332ZM249.155 131.978L257.362 127.332L255.224 126.123L247.018 130.768L249.155 131.978Z" fill="#F2F4F6"/>
<path d="M253.543 134.462L252.474 135.067L254.612 136.277L255.68 135.672L253.543 134.462ZM263.887 131.026C264.477 130.692 264.477 130.151 263.887 129.816C263.297 129.482 262.34 129.482 261.75 129.816L263.887 131.026ZM255.68 135.672L263.887 131.026L261.75 129.816L253.543 134.462L255.68 135.672Z" fill="#F2F4F6"/>
<path d="M260.068 138.155L258.999 138.76L261.137 139.97L262.205 139.365L260.068 138.155ZM270.412 134.72C271.002 134.386 271.002 133.844 270.412 133.51C269.822 133.176 268.865 133.176 268.275 133.51L270.412 134.72ZM262.205 139.365L270.412 134.72L268.275 133.51L260.068 138.155L262.205 139.365Z" fill="#F2F4F6"/>
<path d="M266.593 141.849L265.524 142.454L267.662 143.664L268.73 143.059L266.593 141.849ZM276.937 138.414C277.527 138.079 277.527 137.538 276.937 137.204C276.347 136.87 275.39 136.87 274.8 137.204L276.937 138.414ZM268.73 143.059L276.937 138.414L274.8 137.204L266.593 141.849L268.73 143.059Z" fill="#F2F4F6"/>
<path d="M273.118 145.543L272.049 146.148L274.187 147.358L275.255 146.753L273.118 145.543ZM283.462 142.107C284.052 141.773 284.052 141.232 283.462 140.898C282.872 140.563 281.915 140.563 281.325 140.898L283.462 142.107ZM275.255 146.753L283.462 142.107L281.325 140.898L273.118 145.543L275.255 146.753Z" fill="#F2F4F6"/>
<path d="M259.637 117.447L249.768 123.034" stroke="#F2F4F6" stroke-width="0.701694" stroke-linecap="round"/>
<path d="M272.687 124.835L262.818 130.421" stroke="#F2F4F6" stroke-width="0.701694" stroke-linecap="round"/>
<g filter="url(#filter2_d_3861_1540)">
<path d="M261.866 123.573L262.171 123.746L262.298 123.674L262.298 123.573L261.866 123.573ZM255.988 126.555C255.819 126.65 255.819 126.805 255.988 126.9C256.156 126.996 256.43 126.996 256.598 126.9L255.988 126.555ZM261.866 120.136L261.558 119.965L261.434 120.037L261.434 120.136L261.866 120.136ZM277.363 111.534L277.665 111.359L277.049 111.017L276.746 111.191L277.363 111.534ZM261.561 123.4L255.988 126.555L256.598 126.9L262.171 123.746L261.561 123.4ZM262.298 123.573L262.298 120.136L261.434 120.136L261.434 123.573L262.298 123.573ZM262.174 120.307L277.363 111.534L276.746 111.191L261.558 119.965L262.174 120.307Z" fill="#F2F4F6"/>
</g>
<g filter="url(#filter3_d_3861_1540)">
<path d="M242.291 112.492L241.985 112.319L242.112 112.247L242.291 112.247L242.291 112.492ZM237.023 115.819C236.855 115.915 236.581 115.915 236.413 115.819C236.244 115.724 236.244 115.569 236.413 115.474L237.023 115.819ZM248.361 112.492L248.672 112.662L248.545 112.736L248.361 112.736L248.361 112.492ZM263.479 103.285L263.779 103.109L264.4 103.449L264.1 103.625L263.479 103.285ZM242.596 112.665L237.023 115.819L236.413 115.474L241.985 112.319L242.596 112.665ZM242.291 112.247L248.361 112.247L248.361 112.736L242.291 112.736L242.291 112.247ZM248.051 112.322L263.479 103.285L264.1 103.625L248.672 112.662L248.051 112.322Z" fill="#F2F4F6"/>
</g>
<path d="M279.212 128.529L269.343 134.115" stroke="#F2F4F6" stroke-width="0.701694" stroke-linecap="round"/>
<path d="M285.737 132.223L275.868 137.809" stroke="#F2F4F6" stroke-width="0.701694" stroke-linecap="round"/>
<path d="M292.262 135.916L282.393 141.503" stroke="#F2F4F6" stroke-width="0.701694" stroke-linecap="round"/>
<path d="M253.112 113.754L243.243 119.34" stroke="#F2F4F6" stroke-width="0.701694" stroke-linecap="round"/>
<path d="M240.062 106.366L230.193 111.953" stroke="#F2F4F6" stroke-width="0.701694" stroke-linecap="round"/>
<path d="M233.536 102.672L223.668 108.259" stroke="#F2F4F6" stroke-width="0.701694" stroke-linecap="round"/>
<path d="M227.011 98.9784L217.143 104.565" stroke="#F2F4F6" stroke-width="0.701694" stroke-linecap="round"/>
<path d="M220.486 95.2846L210.618 100.871" stroke="#F2F4F6" stroke-width="0.701694" stroke-linecap="round"/>
<path d="M203.734 192.298L202.665 191.693L204.802 190.483L205.871 191.088L203.734 192.298ZM214.077 195.733C214.668 196.068 214.668 196.609 214.077 196.943C213.487 197.277 212.53 197.277 211.94 196.943L214.077 195.733ZM205.871 191.088L214.077 195.733L211.94 196.943L203.734 192.298L205.871 191.088Z" fill="#F2F4F6"/>
<path d="M210.259 188.603L209.19 187.998L211.327 186.789L212.396 187.393L210.259 188.603ZM220.602 192.039C221.193 192.373 221.193 192.915 220.602 193.249C220.012 193.583 219.055 193.583 218.465 193.249L220.602 192.039ZM212.396 187.393L220.602 192.039L218.465 193.249L210.259 188.603L212.396 187.393Z" fill="#F2F4F6"/>
<path d="M216.784 184.91L215.715 184.305L217.852 183.095L218.921 183.7L216.784 184.91ZM227.128 188.346C227.718 188.68 227.718 189.222 227.128 189.556C226.537 189.89 225.581 189.89 224.99 189.556L227.128 188.346ZM218.921 183.7L227.128 188.346L224.99 189.556L216.784 184.91L218.921 183.7Z" fill="#F2F4F6"/>
<path d="M223.309 181.216L222.24 180.611L224.378 179.401L225.446 180.006L223.309 181.216ZM233.653 184.652C234.243 184.986 234.243 185.528 233.653 185.862C233.062 186.196 232.106 186.196 231.515 185.862L233.653 184.652ZM225.446 180.006L233.653 184.652L231.515 185.862L223.309 181.216L225.446 180.006Z" fill="#F2F4F6"/>
<path d="M229.834 177.523L228.765 176.918L230.903 175.708L231.971 176.313L229.834 177.523ZM240.178 180.959C240.768 181.293 240.768 181.834 240.178 182.168C239.588 182.503 238.631 182.503 238.04 182.168L240.178 180.959ZM231.971 176.313L240.178 180.959L238.04 182.168L229.834 177.523L231.971 176.313Z" fill="#F2F4F6"/>
<path d="M236.359 173.829L235.29 173.224L237.428 172.014L238.496 172.619L236.359 173.829ZM246.703 177.265C247.293 177.599 247.293 178.14 246.703 178.475C246.113 178.809 245.156 178.809 244.566 178.475L246.703 177.265ZM238.496 172.619L246.703 177.265L244.566 178.475L236.359 173.829L238.496 172.619Z" fill="#F2F4F6"/>
<path d="M242.884 170.135L241.815 169.53L243.953 168.32L245.021 168.925L242.884 170.135ZM253.228 173.571C253.818 173.905 253.818 174.447 253.228 174.781C252.638 175.115 251.681 175.115 251.091 174.781L253.228 173.571ZM245.021 168.925L253.228 173.571L251.091 174.781L242.884 170.135L245.021 168.925Z" fill="#F2F4F6"/>
<path d="M249.409 166.441L248.341 165.836L250.478 164.626L251.546 165.231L249.409 166.441ZM259.753 169.877C260.343 170.211 260.343 170.753 259.753 171.087C259.163 171.421 258.206 171.421 257.616 171.087L259.753 169.877ZM251.546 165.231L259.753 169.877L257.616 171.087L249.409 166.441L251.546 165.231Z" fill="#F2F4F6"/>
<path d="M255.934 162.747L254.866 162.142L257.003 160.933L258.071 161.538L255.934 162.747ZM266.278 166.183C266.868 166.517 266.868 167.059 266.278 167.393C265.688 167.727 264.731 167.727 264.141 167.393L266.278 166.183ZM258.071 161.538L266.278 166.183L264.141 167.393L255.934 162.747L258.071 161.538Z" fill="#F2F4F6"/>
<path d="M262.459 159.054L261.391 158.449L263.528 157.239L264.597 157.844L262.459 159.054ZM272.803 162.489C273.393 162.823 273.393 163.365 272.803 163.699C272.213 164.033 271.256 164.033 270.666 163.699L272.803 162.489ZM264.597 157.844L272.803 162.489L270.666 163.699L262.459 159.054L264.597 157.844Z" fill="#F2F4F6"/>
<path d="M268.984 155.36L267.916 154.755L270.053 153.545L271.122 154.15L268.984 155.36ZM279.328 158.796C279.918 159.13 279.918 159.672 279.328 160.006C278.738 160.34 277.781 160.34 277.191 160.006L279.328 158.796ZM271.122 154.15L279.328 158.796L277.191 160.006L268.984 155.36L271.122 154.15Z" fill="#F2F4F6"/>
<path d="M275.509 151.666L274.441 151.061L276.578 149.852L277.647 150.456L275.509 151.666ZM285.853 155.102C286.443 155.436 286.443 155.978 285.853 156.312C285.263 156.646 284.306 156.646 283.716 156.312L285.853 155.102ZM277.647 150.456L285.853 155.102L283.716 156.312L275.509 151.666L277.647 150.456Z" fill="#F2F4F6"/>
<path d="M262.028 179.761L252.159 174.175" stroke="#F2F4F6" stroke-width="0.701694" stroke-linecap="round"/>
<path d="M275.078 172.374L265.209 166.788" stroke="#F2F4F6" stroke-width="0.701694" stroke-linecap="round"/>
<g filter="url(#filter4_d_3861_1540)">
<path d="M264.257 173.636L264.563 173.463L264.689 173.534L264.689 173.636L264.257 173.636ZM258.379 170.654C258.211 170.558 258.211 170.404 258.379 170.308C258.548 170.213 258.821 170.213 258.99 170.308L258.379 170.654ZM264.257 177.072L263.947 177.242L263.825 177.171L263.825 177.072L264.257 177.072ZM282.312 187.312L282.612 187.488L281.991 187.827L281.691 187.651L282.312 187.312ZM263.952 173.809L258.379 170.654L258.99 170.308L264.563 173.463L263.952 173.809ZM264.689 173.636L264.689 177.072L263.825 177.072L263.825 173.636L264.689 173.636ZM264.568 176.902L282.312 187.312L281.691 187.651L263.947 177.242L264.568 176.902Z" fill="#F2F4F6"/>
</g>
<g filter="url(#filter5_d_3861_1540)">
<path d="M244.682 184.717L244.377 184.89L244.503 184.962L244.682 184.962L244.682 184.717ZM239.415 181.39C239.246 181.294 238.973 181.294 238.804 181.39C238.635 181.485 238.635 181.64 238.804 181.735L239.415 181.39ZM250.753 184.717L251.062 184.546L250.934 184.473L250.753 184.473L250.753 184.717ZM269.381 195.861L269.682 196.035L270.3 195.694L269.998 195.519L269.381 195.861ZM244.987 184.544L239.415 181.39L238.804 181.735L244.377 184.89L244.987 184.544ZM244.682 184.962L250.753 184.962L250.753 184.473L244.682 184.473L244.682 184.962ZM250.444 184.888L269.381 195.861L269.998 195.519L251.062 184.546L250.444 184.888Z" fill="#F2F4F6"/>
</g>
<path d="M281.603 168.68L271.735 163.094" stroke="#F2F4F6" stroke-width="0.701694" stroke-linecap="round"/>
<path d="M288.128 164.987L278.26 159.4" stroke="#F2F4F6" stroke-width="0.701694" stroke-linecap="round"/>
<path d="M294.653 161.293L284.785 155.706" stroke="#F2F4F6" stroke-width="0.701694" stroke-linecap="round"/>
<path d="M255.503 183.455L245.634 177.869" stroke="#F2F4F6" stroke-width="0.701694" stroke-linecap="round"/>
<path d="M242.453 190.843L232.584 185.256" stroke="#F2F4F6" stroke-width="0.701694" stroke-linecap="round"/>
<path d="M235.928 194.537L226.059 188.95" stroke="#F2F4F6" stroke-width="0.701694" stroke-linecap="round"/>
<path d="M229.403 198.23L219.534 192.644" stroke="#F2F4F6" stroke-width="0.701694" stroke-linecap="round"/>
<path d="M222.878 201.924L213.009 196.337" stroke="#F2F4F6" stroke-width="0.701694" stroke-linecap="round"/>
<path d="M197.912 102.779L198.981 103.384L196.844 104.594L195.775 103.989L197.912 102.779ZM187.569 99.3437C186.979 99.0096 186.979 98.4679 187.569 98.1338C188.159 97.7997 189.116 97.7997 189.706 98.1338L187.569 99.3437ZM195.775 103.989L187.569 99.3437L189.706 98.1338L197.912 102.779L195.775 103.989Z" fill="#F2F4F6"/>
<path d="M191.387 106.474L192.456 107.079L190.319 108.289L189.25 107.684L191.387 106.474ZM181.044 103.038C180.453 102.704 180.453 102.162 181.044 101.828C181.634 101.494 182.591 101.494 183.181 101.828L181.044 103.038ZM189.25 107.684L181.044 103.038L183.181 101.828L191.387 106.474L189.25 107.684Z" fill="#F2F4F6"/>
<path d="M184.862 110.167L185.931 110.772L183.794 111.982L182.725 111.377L184.862 110.167ZM174.519 106.731C173.928 106.397 173.928 105.856 174.519 105.522C175.109 105.187 176.066 105.187 176.656 105.522L174.519 106.731ZM182.725 111.377L174.519 106.731L176.656 105.522L184.862 110.167L182.725 111.377Z" fill="#F2F4F6"/>
<path d="M178.337 113.861L179.406 114.466L177.269 115.676L176.2 115.071L178.337 113.861ZM167.994 110.425C167.403 110.091 167.403 109.549 167.994 109.215C168.584 108.881 169.541 108.881 170.131 109.215L167.994 110.425ZM176.2 115.071L167.994 110.425L170.131 109.215L178.337 113.861L176.2 115.071Z" fill="#F2F4F6"/>
<path d="M171.812 117.555L172.881 118.16L170.744 119.37L169.675 118.765L171.812 117.555ZM161.468 114.119C160.878 113.785 160.878 113.243 161.468 112.909C162.059 112.575 163.016 112.575 163.606 112.909L161.468 114.119ZM169.675 118.765L161.468 114.119L163.606 112.909L171.812 117.555L169.675 118.765Z" fill="#F2F4F6"/>
<path d="M165.287 121.248L166.356 121.853L164.219 123.063L163.15 122.458L165.287 121.248ZM154.943 117.812C154.353 117.478 154.353 116.937 154.943 116.603C155.534 116.268 156.49 116.268 157.081 116.603L154.943 117.812ZM163.15 122.458L154.943 117.812L157.081 116.603L165.287 121.248L163.15 122.458Z" fill="#F2F4F6"/>
<path d="M158.762 124.942L159.831 125.547L157.693 126.757L156.625 126.152L158.762 124.942ZM148.418 121.506C147.828 121.172 147.828 120.631 148.418 120.296C149.009 119.962 149.965 119.962 150.556 120.296L148.418 121.506ZM156.625 126.152L148.418 121.506L150.556 120.296L158.762 124.942L156.625 126.152Z" fill="#F2F4F6"/>
<path d="M152.237 128.636L153.306 129.241L151.168 130.451L150.1 129.846L152.237 128.636ZM141.893 125.2C141.303 124.866 141.303 124.324 141.893 123.99C142.483 123.656 143.44 123.656 144.03 123.99L141.893 125.2ZM150.1 129.846L141.893 125.2L144.03 123.99L152.237 128.636L150.1 129.846Z" fill="#F2F4F6"/>
<path d="M145.712 132.33L146.781 132.935L144.643 134.145L143.575 133.54L145.712 132.33ZM135.368 128.894C134.778 128.56 134.778 128.019 135.368 127.685C135.958 127.351 136.915 127.351 137.505 127.685L135.368 128.894ZM143.575 133.54L135.368 128.894L137.505 127.685L145.712 132.33L143.575 133.54Z" fill="#F2F4F6"/>
<path d="M139.187 136.024L140.256 136.629L138.118 137.838L137.05 137.233L139.187 136.024ZM128.843 132.588C128.253 132.254 128.253 131.712 128.843 131.378C129.433 131.044 130.39 131.044 130.98 131.378L128.843 132.588ZM137.05 137.233L128.843 132.588L130.98 131.378L139.187 136.024L137.05 137.233Z" fill="#F2F4F6"/>
<path d="M132.662 139.717L133.731 140.322L131.593 141.532L130.525 140.927L132.662 139.717ZM122.318 136.282C121.728 135.948 121.728 135.406 122.318 135.072C122.908 134.738 123.865 134.738 124.455 135.072L122.318 136.282ZM130.525 140.927L122.318 136.282L124.455 135.072L132.662 139.717L130.525 140.927Z" fill="#F2F4F6"/>
<path d="M126.137 143.411L127.206 144.016L125.068 145.226L124 144.621L126.137 143.411ZM115.793 139.975C115.203 139.641 115.203 139.099 115.793 138.765C116.383 138.431 117.34 138.431 117.93 138.765L115.793 139.975ZM124 144.621L115.793 139.975L117.93 138.765L126.137 143.411L124 144.621Z" fill="#F2F4F6"/>
<path d="M139.618 115.315L149.487 120.902" stroke="#F2F4F6" stroke-width="0.701694" stroke-linecap="round"/>
<path d="M126.568 122.703L136.437 128.29" stroke="#F2F4F6" stroke-width="0.701694" stroke-linecap="round"/>
<g filter="url(#filter6_d_3861_1540)">
<path d="M137.389 121.441L137.084 121.613L136.957 121.542L136.957 121.441L137.389 121.441ZM143.267 124.422C143.436 124.518 143.436 124.673 143.267 124.768C143.099 124.864 142.825 124.864 142.657 124.768L143.267 124.422ZM137.389 118.004L137.7 117.834L137.821 117.905L137.821 118.004L137.389 118.004ZM119.334 107.764L119.034 107.588L119.656 107.249L119.956 107.425L119.334 107.764ZM137.694 121.268L143.267 124.422L142.657 124.768L137.084 121.613L137.694 121.268ZM136.957 121.441L136.957 118.004L137.821 118.004L137.821 121.441L136.957 121.441ZM137.078 118.174L119.334 107.764L119.956 107.425L137.7 117.834L137.078 118.174Z" fill="#F2F4F6"/>
</g>
<g filter="url(#filter7_d_3861_1540)">
<path d="M156.964 110.359L157.27 110.187L157.143 110.115L156.964 110.115L156.964 110.359ZM162.232 113.687C162.4 113.782 162.674 113.782 162.842 113.687C163.011 113.592 163.011 113.437 162.842 113.341L162.232 113.687ZM150.894 110.359L150.585 110.53L150.712 110.604L150.894 110.604L150.894 110.359ZM132.266 99.216L131.964 99.0412L131.346 99.3828L131.648 99.5576L132.266 99.216ZM156.659 110.532L162.232 113.687L162.842 113.341L157.27 110.187L156.659 110.532ZM156.964 110.115L150.894 110.115L150.894 110.604L156.964 110.604L156.964 110.115ZM151.202 110.189L132.266 99.216L131.648 99.5576L150.585 110.53L151.202 110.189Z" fill="#F2F4F6"/>
</g>
<path d="M120.043 126.396L129.912 131.983" stroke="#F2F4F6" stroke-width="0.701694" stroke-linecap="round"/>
<path d="M113.518 130.09L123.387 135.677" stroke="#F2F4F6" stroke-width="0.701694" stroke-linecap="round"/>
<path d="M106.993 133.784L116.861 139.371" stroke="#F2F4F6" stroke-width="0.701694" stroke-linecap="round"/>
<path d="M146.143 111.621L156.012 117.208" stroke="#F2F4F6" stroke-width="0.701694" stroke-linecap="round"/>
<path d="M159.193 104.234L169.062 109.82" stroke="#F2F4F6" stroke-width="0.701694" stroke-linecap="round"/>
<path d="M165.719 100.54L175.587 106.127" stroke="#F2F4F6" stroke-width="0.701694" stroke-linecap="round"/>
<path d="M172.244 96.8466L182.112 102.433" stroke="#F2F4F6" stroke-width="0.701694" stroke-linecap="round"/>
<path d="M178.769 93.1527L188.637 98.7393" stroke="#F2F4F6" stroke-width="0.701694" stroke-linecap="round"/>
<path d="M206.118 190.799C203.207 192.393 198.429 191.635 196.403 191.057L109.354 141.672L108.248 140.711V145.65L109.819 147.116L196.403 196.149C200.476 197.856 204.577 196.861 206.118 196.149L283.812 150.216L285.329 148.73V143.932C284.624 144.352 283.763 144.977 282.943 145.466C262.684 157.529 208.916 189.267 206.118 190.799Z" fill="#1C0D3F" stroke="#F2F4F6" stroke-width="0.384414"/>
<path d="M189.002 96.0938C192.19 94.2917 197.366 94.2917 200.554 96.0938M108.084 139.042V144.274C108.084 145.437 108.871 146.639 110.447 147.54L195.319 195.72C198.507 197.522 203.683 197.522 206.871 195.72C206.871 195.72 244.618 172.711 279.446 152.882C280.662 152.19 283.092 150.806 283.092 150.806C284.667 149.905 285.455 148.741 285.455 147.54V142.156" stroke="#F2F4F6" stroke-width="0.768829" stroke-miterlimit="10" stroke-linejoin="round"/>
<path fill-rule="evenodd" clip-rule="evenodd" d="M285.371 141.798C285.371 143 284.584 144.164 283.008 145.065C283.008 145.065 280.578 146.448 279.363 147.14C244.535 166.969 206.787 189.978 206.787 189.978C203.599 191.78 198.423 191.78 195.235 189.978L110.363 141.798C108.788 140.897 108 139.696 108 138.532C108 137.33 108.788 136.167 110.363 135.265L188.918 90.3521C192.106 88.55 197.282 88.55 200.47 90.3521L283.008 138.532C284.584 139.395 285.371 140.597 285.371 141.798Z" fill="#1C0D3F" stroke="#F2F4F6" stroke-width="0.768829" stroke-miterlimit="10" stroke-linejoin="round"/>
<path d="M201.632 105.078L261.841 139.84L203.029 173.795L142.82 139.033L201.632 105.078Z" stroke="#F2F4F6" stroke-width="0.768829"/>
<rect x="172.54" y="117.622" width="3.5267" height="3.56857" fill="#ED26B7" stroke="#F2F4F6" stroke-width="0.384414"/>
<rect x="216.698" y="134.145" width="4.24894" height="3.63602" fill="#ED26B7" stroke="#F2F4F6" stroke-width="0.384414"/>
<rect x="246.618" y="144.188" width="4.24324" height="3.63111" fill="white" stroke="#F2F4F6" stroke-width="0.384414"/>
<circle cx="1.89303" cy="1.89303" r="1.70082" transform="matrix(0.866025 0.5 -0.866025 0.5 248.738 146.119)" fill="white" stroke="#F2F4F6" stroke-width="0.384414"/>
<path d="M226.901 146.339L218.897 136.901L195.192 136.529L178.354 132.192L174.209 120.61L142.27 139.05L203.073 174.155L248.739 147.789L226.901 146.339Z" fill="#F2F4F6" stroke="#F2F4F6" stroke-width="0.576622"/>
<path d="M226.901 143.139L218.897 133.701L195.191 133.329L178.354 128.992L174.209 117.411L142.27 135.851L203.073 170.955L248.739 144.59L226.901 143.139Z" fill="#1C0D3F" stroke="#F2F4F6" stroke-width="0.768829" stroke-linejoin="round"/>
<path d="M203.07 170.957L203.03 174.178L248.732 147.793L248.732 144.591L203.07 170.957Z" fill="#1C0D3F" stroke="#F2F4F6" stroke-width="0.768829" stroke-linejoin="round"/>
<path d="M203.106 170.995L203.026 174.179L142.227 139.107L142.227 135.905L203.106 170.995Z" fill="#1C0D3F" stroke="#F2F4F6" stroke-width="0.768829" stroke-linejoin="round"/>
<path d="M248.957 145.267L248.957 148.35L247.819 148.35L247.819 145.348C248.029 145.331 248.308 145.312 248.558 145.294C248.709 145.284 248.849 145.274 248.957 145.267Z" fill="white" stroke="#F2F4F6" stroke-width="0.384414"/>
<path d="M247.822 145.047L247.822 148.528" stroke="#F2F4F6" stroke-width="0.384414"/>
<path d="M174.209 117.411L178.354 128.992L195.191 133.329L218.897 133.701L226.901 143.139L248.739 144.59" stroke="#F2F4F6" stroke-width="1.15324"/>
<rect x="-1.14564e-08" y="0.192207" width="69.9083" height="0.430573" transform="matrix(0.866025 0.5 -0.866025 0.5 139.497 140.759)" fill="white" stroke="#F2F4F6" stroke-width="0.384414"/>
<rect x="-1.14564e-08" y="0.192207" width="6.01524" height="1.65305" transform="matrix(0.866025 0.5 -0.866025 0.5 176.634 107.996)" fill="white" stroke="#F2F4F6" stroke-width="0.384414"/>
<rect x="-1.14564e-08" y="0.192207" width="6.01524" height="1.65305" transform="matrix(0.866025 0.5 -0.866025 0.5 167.265 113.405)" fill="white" stroke="#F2F4F6" stroke-width="0.384414"/>
<rect x="-1.14564e-08" y="0.192207" width="6.01524" height="1.65305" transform="matrix(0.866025 0.5 -0.866025 0.5 157.897 118.814)" fill="white" stroke="#F2F4F6" stroke-width="0.384414"/>
<rect x="-1.14564e-08" y="0.192207" width="6.01524" height="1.65305" transform="matrix(0.866025 0.5 -0.866025 0.5 148.529 124.223)" fill="white" stroke="#F2F4F6" stroke-width="0.384414"/>
<circle cx="1.8939" cy="1.8939" r="1.70169" transform="matrix(0.866025 0.5 -0.866025 0.5 218.823 132.055)" fill="white" stroke="#F2F4F6" stroke-width="0.384414"/>
<circle cx="1.8939" cy="1.8939" r="1.70169" transform="matrix(0.866025 0.5 -0.866025 0.5 227.04 141.109)" fill="white" stroke="#F2F4F6" stroke-width="0.384414"/>
<circle cx="1.89303" cy="1.89303" r="1.70082" transform="matrix(0.866025 0.5 -0.866025 0.5 248.738 142.103)" fill="white" stroke="#F2F4F6" stroke-width="0.384414"/>
<circle cx="1.8939" cy="1.8939" r="1.70169" transform="matrix(0.866025 0.5 -0.866025 0.5 195.159 131.403)" fill="white" stroke="#F2F4F6" stroke-width="0.384414"/>
<circle cx="1.8939" cy="1.8939" r="1.70169" transform="matrix(0.866025 0.5 -0.866025 0.5 178.556 127.002)" fill="white" stroke="#F2F4F6" stroke-width="0.384414"/>
<circle cx="1.59991" cy="1.59991" r="1.40771" transform="matrix(0.866025 0.5 -0.866025 0.5 174.303 115.927)" fill="#ED26B7" stroke="#F2F4F6" stroke-width="0.384414"/>
<rect x="-1.14564e-08" y="0.192207" width="6.01524" height="1.65305" transform="matrix(0.866025 0.5 -0.866025 0.5 139.159 129.632)" fill="white" stroke="#F2F4F6" stroke-width="0.384414"/>
<rect x="-1.14564e-08" y="0.192207" width="7.76546" height="1.65305" transform="matrix(0.866025 0.5 -0.866025 0.5 135.297 143.184)" fill="white" stroke="#F2F4F6" stroke-width="0.384414"/>
<rect x="-1.14564e-08" y="0.192207" width="7.76546" height="1.65305" transform="matrix(0.866025 0.5 -0.866025 0.5 153.237 153.541)" fill="white" stroke="#F2F4F6" stroke-width="0.384414"/>
<rect x="-1.14564e-08" y="0.192207" width="7.76546" height="1.65305" transform="matrix(0.866025 0.5 -0.866025 0.5 171.176 163.899)" fill="white" stroke="#F2F4F6" stroke-width="0.384414"/>
<rect x="-1.14564e-08" y="0.192207" width="7.76546" height="1.65305" transform="matrix(0.866025 0.5 -0.866025 0.5 189.115 174.256)" fill="white" stroke="#F2F4F6" stroke-width="0.384414"/>
<path d="M145.484 108.103L156.362 114.393L150.734 102.124L151.759 84.5091L163.223 62.3274L178.258 48.0801L195.237 36.8023L210.59 30.7811H229.227L215.598 25.2768L189.649 22.0005L174.316 28.029L157.672 38.3822L146.27 48.0801L138.407 63.0202L137.228 82.4161L139.718 95.7836L145.484 108.103Z" fill="#1C0D3F" stroke="#ED26B7" stroke-width="1.15324" stroke-linejoin="bevel"/>
<path d="M145.451 108.221L150.761 102.195L139.724 95.812" stroke="#ED26B7" stroke-width="0.576622" stroke-linejoin="bevel"/>
<path d="M150.82 102.196L140.142 75.29L138.471 63.1196" stroke="#ED26B7" stroke-width="0.576622" stroke-linejoin="bevel"/>
<path d="M140.201 75.4092L151.835 84.4176" stroke="#ED26B7" stroke-width="0.576622" stroke-linejoin="bevel"/>
<path d="M163.17 62.4036L140.201 75.4091L146.342 48.1665L152.193 56.378L163.17 62.4036Z" stroke="#ED26B7" stroke-width="0.576622" stroke-linejoin="bevel"/>
<path d="M140.201 75.4092L139.724 95.7527" stroke="black" stroke-width="0.384414" stroke-linejoin="bevel"/>
<path d="M140.203 75.5242L152.073 56.4055L167.042 41.2785L183.903 30.6162L199.765 24.6284L215.626 25.2967" stroke="#ED26B7" stroke-width="0.576622" stroke-linejoin="bevel"/>
<path d="M163.123 62.4239L167.29 41.1262L174.229 28.0999L199.708 24.6323L229.007 30.7634" stroke="#ED26B7" stroke-width="0.576622" stroke-linejoin="bevel"/>
<path d="M210.664 30.7634L199.758 24.6826L195.085 36.8443L183.978 30.5122L174.279 28.2005" stroke="#ED26B7" stroke-width="0.576622" stroke-linejoin="bevel"/>
<path d="M195.116 36.8638L167.202 41.1067L146.378 48.0853" stroke="#ED26B7" stroke-width="0.576622" stroke-linejoin="bevel"/>
<path d="M157.711 38.3711L167.258 41.0509L178.48 47.8061" stroke="#ED26B7" stroke-width="0.576622" stroke-linejoin="bevel"/>
<path d="M150.687 102.153L156.397 114.402L161.664 111.52L239.122 36.9416L229.235 30.8081H210.57L195.066 36.9416L178.237 48.095L163.144 62.4474L151.777 84.4541L150.687 102.153Z" fill="#1C0D3F" stroke="#ED26B7" stroke-width="1.15324" stroke-linejoin="bevel"/>
<path d="M150.063 102.531L139.267 96.0915L139.93 76.2045L152.051 56.5068" stroke="#ED26B7" stroke-width="1.92207" stroke-linejoin="bevel"/>
<circle cx="151.483" cy="57.1693" r="2.2728" fill="#ED26B7"/>
<circle cx="183.996" cy="30.7318" r="2.2728" fill="#ED26B7"/>
<circle cx="200.197" cy="24.6825" r="2.2728" fill="#ED26B7"/>
<circle cx="150.441" cy="102.531" r="2.2728" fill="#ED26B7"/>
<path d="M157.397 38.4483L166.918 41.3689L183.996 30.7314" stroke="#ED26B7" stroke-width="1.92207" stroke-linejoin="bevel"/>
<path d="M158.427 106.953L164.364 118.953L176.517 124.129L196.067 126.06L216.155 121.48L239.777 110.995L255.946 98.6157L265.168 73.6043L264.031 57.6879L258.346 47.7086L249.504 40.2557L237.251 35.4556H219.061L203.144 41.7716L186.723 52.5088L169.164 68.4252L159.816 88.6364L158.427 106.953Z" fill="#1C0D3F" stroke="#ED26B7" stroke-width="1.15324" stroke-linejoin="bevel"/>
<path d="M259.937 69.4294L258.392 47.9351L233.247 43.4283L219.221 35.5942" stroke="#ED26B7" stroke-width="0.576622" stroke-linejoin="bevel"/>
<path d="M203.462 41.8457L233.153 43.4569L249.841 53.6419L259.968 69.3509" stroke="#ED26B7" stroke-width="0.576622" stroke-linejoin="bevel"/>
<path d="M195.929 116.392L196.243 100.467V81.5559L199.91 60.2873L203.368 41.8999" stroke="#ED26B7" stroke-width="0.576622" stroke-linejoin="bevel"/>
<path d="M172.835 95.0044L195.899 116.353V126.127" stroke="#ED26B7" stroke-width="0.576622" stroke-linejoin="bevel"/>
<path d="M259.951 69.4507L260.246 86.8466" stroke="#ED26B7" stroke-width="0.576622" stroke-linejoin="bevel"/>
<path d="M176.472 124.226L172.189 112.398L172.791 95.045L179.856 75.1667L200.079 60.1952L215.833 49.9162L232.927 43.4359L249.529 40.4004" stroke="#ED26B7" stroke-width="0.576622" stroke-linejoin="bevel"/>
<path d="M243.086 99.9285L259.907 69.4776L264.09 57.8862" stroke="#ED26B7" stroke-width="0.576622" stroke-linejoin="bevel"/>
<path d="M239.944 111.196L242.937 100.096L241.733 82.3346L231.969 63.6774L216.406 50.047L203.452 41.8301" stroke="#ED26B7" stroke-width="0.576622" stroke-linejoin="bevel"/>
<path d="M195.815 116.355L176.456 124.098L158.446 107.04L172.179 112.421L195.815 116.355ZM195.815 116.355L216.439 121.455L242.941 99.9435L255.879 98.7983" stroke="#ED26B7" stroke-width="0.576622" stroke-linejoin="bevel"/>
<path d="M195.708 116.436L220.762 109.53L242.926 99.9734L260.352 86.8037" stroke="#ED26B7" stroke-width="0.576622" stroke-linejoin="bevel"/>
<path d="M159.829 88.7899L172.799 95.018L196.232 100.423L220.08 92.6604L241.685 82.3629L259.966 69.3608L265.298 73.7288" stroke="#ED26B7" stroke-width="0.576622" stroke-linejoin="bevel"/>
<path d="M169.277 68.5117L172.835 95.0043L158.56 107.007" stroke="#ED26B7" stroke-width="0.576622" stroke-linejoin="bevel"/>
<path d="M172.881 95.0762L196.189 81.6692L214.27 72.5672L232.044 63.7112L249.794 53.7618L258.366 47.9058" stroke="#ED26B7" stroke-width="0.576622" stroke-linejoin="bevel"/>
<path d="M195.912 116.349L220.1 92.8159C224.083 83.1745 232.049 63.8916 232.049 63.8916L233.069 43.4187L237.222 35.6958" stroke="#ED26B7" stroke-width="0.576622" stroke-linejoin="bevel"/>
<path d="M216.415 121.487L220.618 109.634L220.3 92.6259L214.22 72.6836L199.988 60.3461L186.819 52.6323" stroke="#ED26B7" stroke-width="0.576622" stroke-linejoin="bevel"/>
<path d="M243.087 99.9006L220.425 92.5234L196.33 81.5903L179.93 75.2215L169.316 68.5874" stroke="#ED26B7" stroke-width="0.576622" stroke-linejoin="bevel"/>
<path d="M169.39 68.61L199.93 60.3848L232.07 63.5835L260.02 69.5239" stroke="#ED26B7" stroke-width="0.576622" stroke-linejoin="bevel"/>
<path d="M216.204 50.0017L233.147 43.5962L249.638 53.888L260.033 69.7138" stroke="#ED26B7" stroke-width="1.92207" stroke-linejoin="bevel"/>
<path d="M231.962 63.6968L214.219 72.6337L199.879 60.2427L179.953 75.1184" stroke="#ED26B7" stroke-width="1.92207" stroke-linejoin="bevel"/>
<path d="M172.237 112.701L173.133 95.6751L196.32 100.38V81.5615" stroke="#ED26B7" stroke-width="1.92207" stroke-linejoin="bevel"/>
<circle cx="172.237" cy="112.129" r="2.2728" fill="#ED26B7"/>
<circle cx="196.32" cy="81.5619" r="2.2728" fill="#ED26B7"/>
<circle cx="179.827" cy="75.5243" r="2.2728" fill="#ED26B7"/>
<circle cx="199.648" cy="60.6151" r="2.2728" fill="#ED26B7"/>
<circle cx="216.15" cy="49.972" r="2.2728" fill="#ED26B7"/>
<circle cx="231.978" cy="63.7679" r="2.2728" fill="#ED26B7"/>
<circle cx="259.937" cy="69.7137" r="2.2728" fill="#ED26B7"/>
<circle cx="220.178" cy="92.7313" r="2.2728" fill="#ED26B7"/>
<path d="M220.213 92.5603L241.635 82.0093L243.004 99.8892L255.904 98.3276" stroke="#ED26B7" stroke-width="1.92207" stroke-linejoin="bevel"/>
<defs>
<filter id="filter0_d_3861_1540" x="113.957" y="164.807" width="30.2244" height="24.3759" filterUnits="userSpaceOnUse" color-interpolation-filters="sRGB">
<feFlood flood-opacity="0" result="BackgroundImageFix"/>
<feColorMatrix in="SourceAlpha" type="matrix" values="0 0 0 0 0 0 0 0 0 0 0 0 0 0 0 0 0 0 127 0" result="hardAlpha"/>
<feOffset dx="0.701694" dy="0.701694"/>
<feGaussianBlur stdDeviation="2.10508"/>
<feComposite in2="hardAlpha" operator="out"/>
<feColorMatrix type="matrix" values="0 0 0 0 1 0 0 0 0 1 0 0 0 0 1 0 0 0 1 0"/>
<feBlend mode="normal" in2="BackgroundImageFix" result="effect1_dropShadow_3861_1540"/>
<feBlend mode="normal" in="SourceGraphic" in2="effect1_dropShadow_3861_1540" result="shape"/>
</filter>
<filter id="filter1_d_3861_1540" x="127.223" y="175.888" width="36.5345" height="21.2026" filterUnits="userSpaceOnUse" color-interpolation-filters="sRGB">
<feFlood flood-opacity="0" result="BackgroundImageFix"/>
<feColorMatrix in="SourceAlpha" type="matrix" values="0 0 0 0 0 0 0 0 0 0 0 0 0 0 0 0 0 0 127 0" result="hardAlpha"/>
<feOffset dx="0.701694" dy="0.701694"/>
<feGaussianBlur stdDeviation="2.10508"/>
<feComposite in2="hardAlpha" operator="out"/>
<feColorMatrix type="matrix" values="0 0 0 0 1 0 0 0 0 1 0 0 0 0 1 0 0 0 1 0"/>
<feBlend mode="normal" in2="BackgroundImageFix" result="effect1_dropShadow_3861_1540"/>
<feBlend mode="normal" in="SourceGraphic" in2="effect1_dropShadow_3861_1540" result="shape"/>
</filter>
<filter id="filter2_d_3861_1540" x="252.353" y="107.508" width="30.2244" height="24.3759" filterUnits="userSpaceOnUse" color-interpolation-filters="sRGB">
<feFlood flood-opacity="0" result="BackgroundImageFix"/>
<feColorMatrix in="SourceAlpha" type="matrix" values="0 0 0 0 0 0 0 0 0 0 0 0 0 0 0 0 0 0 127 0" result="hardAlpha"/>
<feOffset dx="0.701694" dy="0.701694"/>
<feGaussianBlur stdDeviation="2.10508"/>
<feComposite in2="hardAlpha" operator="out"/>
<feColorMatrix type="matrix" values="0 0 0 0 1 0 0 0 0 1 0 0 0 0 1 0 0 0 1 0"/>
<feBlend mode="normal" in2="BackgroundImageFix" result="effect1_dropShadow_3861_1540"/>
<feBlend mode="normal" in="SourceGraphic" in2="effect1_dropShadow_3861_1540" result="shape"/>
</filter>
<filter id="filter3_d_3861_1540" x="232.778" y="99.6004" width="36.5345" height="21.2026" filterUnits="userSpaceOnUse" color-interpolation-filters="sRGB">
<feFlood flood-opacity="0" result="BackgroundImageFix"/>
<feColorMatrix in="SourceAlpha" type="matrix" values="0 0 0 0 0 0 0 0 0 0 0 0 0 0 0 0 0 0 127 0" result="hardAlpha"/>
<feOffset dx="0.701694" dy="0.701694"/>
<feGaussianBlur stdDeviation="2.10508"/>
<feComposite in2="hardAlpha" operator="out"/>
<feColorMatrix type="matrix" values="0 0 0 0 1 0 0 0 0 1 0 0 0 0 1 0 0 0 1 0"/>
<feBlend mode="normal" in2="BackgroundImageFix" result="effect1_dropShadow_3861_1540"/>
<feBlend mode="normal" in="SourceGraphic" in2="effect1_dropShadow_3861_1540" result="shape"/>
</filter>
<filter id="filter4_d_3861_1540" x="254.744" y="166.728" width="32.7796" height="26.0112" filterUnits="userSpaceOnUse" color-interpolation-filters="sRGB">
<feFlood flood-opacity="0" result="BackgroundImageFix"/>
<feColorMatrix in="SourceAlpha" type="matrix" values="0 0 0 0 0 0 0 0 0 0 0 0 0 0 0 0 0 0 127 0" result="hardAlpha"/>
<feOffset dx="0.701694" dy="0.701694"/>
<feGaussianBlur stdDeviation="2.10508"/>
<feComposite in2="hardAlpha" operator="out"/>
<feColorMatrix type="matrix" values="0 0 0 0 1 0 0 0 0 1 0 0 0 0 1 0 0 0 1 0"/>
<feBlend mode="normal" in2="BackgroundImageFix" result="effect1_dropShadow_3861_1540"/>
<feBlend mode="normal" in="SourceGraphic" in2="effect1_dropShadow_3861_1540" result="shape"/>
</filter>
<filter id="filter5_d_3861_1540" x="235.169" y="177.809" width="40.0428" height="23.1381" filterUnits="userSpaceOnUse" color-interpolation-filters="sRGB">
<feFlood flood-opacity="0" result="BackgroundImageFix"/>
<feColorMatrix in="SourceAlpha" type="matrix" values="0 0 0 0 0 0 0 0 0 0 0 0 0 0 0 0 0 0 127 0" result="hardAlpha"/>
<feOffset dx="0.701694" dy="0.701694"/>
<feGaussianBlur stdDeviation="2.10508"/>
<feComposite in2="hardAlpha" operator="out"/>
<feColorMatrix type="matrix" values="0 0 0 0 1 0 0 0 0 1 0 0 0 0 1 0 0 0 1 0"/>
<feBlend mode="normal" in2="BackgroundImageFix" result="effect1_dropShadow_3861_1540"/>
<feBlend mode="normal" in="SourceGraphic" in2="effect1_dropShadow_3861_1540" result="shape"/>
</filter>
<filter id="filter6_d_3861_1540" x="115.526" y="103.741" width="32.7796" height="26.0112" filterUnits="userSpaceOnUse" color-interpolation-filters="sRGB">
<feFlood flood-opacity="0" result="BackgroundImageFix"/>
<feColorMatrix in="SourceAlpha" type="matrix" values="0 0 0 0 0 0 0 0 0 0 0 0 0 0 0 0 0 0 127 0" result="hardAlpha"/>
<feOffset dx="0.701694" dy="0.701694"/>
<feGaussianBlur stdDeviation="2.10508"/>
<feComposite in2="hardAlpha" operator="out"/>
<feColorMatrix type="matrix" values="0 0 0 0 1 0 0 0 0 1 0 0 0 0 1 0 0 0 1 0"/>
<feBlend mode="normal" in2="BackgroundImageFix" result="effect1_dropShadow_3861_1540"/>
<feBlend mode="normal" in="SourceGraphic" in2="effect1_dropShadow_3861_1540" result="shape"/>
</filter>
<filter id="filter7_d_3861_1540" x="127.838" y="95.5325" width="40.0428" height="23.1381" filterUnits="userSpaceOnUse" color-interpolation-filters="sRGB">
<feFlood flood-opacity="0" result="BackgroundImageFix"/>
<feColorMatrix in="SourceAlpha" type="matrix" values="0 0 0 0 0 0 0 0 0 0 0 0 0 0 0 0 0 0 127 0" result="hardAlpha"/>
<feOffset dx="0.701694" dy="0.701694"/>
<feGaussianBlur stdDeviation="2.10508"/>
<feComposite in2="hardAlpha" operator="out"/>
<feColorMatrix type="matrix" values="0 0 0 0 1 0 0 0 0 1 0 0 0 0 1 0 0 0 1 0"/>
<feBlend mode="normal" in2="BackgroundImageFix" result="effect1_dropShadow_3861_1540"/>
<feBlend mode="normal" in="SourceGraphic" in2="effect1_dropShadow_3861_1540" result="shape"/>
</filter>
</defs>
</svg>
