<svg width="178" height="44" viewBox="0 0 178 44" fill="none" xmlns="http://www.w3.org/2000/svg">
<g clip-path="url(#clip0)">
<path d="M144.822 32.1519L145.114 31.7954C142.521 31.5701 142.249 29.9356 142.303 27.9345C142.393 24.6857 142.323 21.4302 142.336 18.1814C142.374 17.6988 142.443 17.2192 142.541 16.7453C143.116 17.4011 143.49 17.8114 143.85 18.2352C147.596 22.6947 151.354 27.1509 155.123 31.6037C155.543 32.0384 155.993 32.444 156.468 32.8178L156.781 32.6025V30.2719C156.781 25.3381 156.781 20.4044 156.781 15.474C156.781 14.4348 156.986 13.5974 158.072 13.1905C160.363 12.3261 161.994 13.4057 162.004 15.8474C162.004 19.9403 162.024 24.0332 162.004 28.1262C162.004 29.0073 162.048 30.0264 161.634 30.7225C161.257 31.3582 160.289 31.6373 159.508 32.1149H176.899C177.276 30.1542 177.629 28.3179 177.979 26.485L177.508 26.3135C176.536 28.2742 175.366 30.0903 173.257 30.884C171.259 31.634 169.191 32.1115 166.931 31.0656C166.319 28.2674 166.645 25.4626 166.702 22.6409C168.249 22.3584 169.574 22.6005 170.425 23.633C171.189 24.5613 171.575 25.7989 172.14 26.9256V17.5256C170.775 21.1847 169.521 22.1263 166.793 21.41C166.312 18.6085 166.507 14.7241 167.308 13.3384C168.458 13.3384 169.726 13.3149 171.007 13.3384C172.396 13.3721 173.751 13.7017 174.622 14.8216C175.352 15.7666 175.82 16.9168 176.529 18.2049V12.6356H153.149C155.452 13.1804 155.772 14.7913 155.671 16.7655C155.577 18.5547 155.651 20.354 155.651 22.1465V24.7429L155.231 24.8774L145 12.6221H138.946L138.791 12.8979L141.166 14.7207C141.166 19.9706 141.166 24.7361 141.166 29.5017C141.166 30.6149 140.641 31.2842 139.602 31.6003C139.266 31.6979 138.95 31.8088 138.627 31.9165L138.697 32.1485L144.822 32.1519ZM108.103 32.0611H117.553C115.774 31.3884 115.253 31.1497 115.199 30.1273C115.088 27.911 115.165 25.6846 115.165 23.1588C116.49 23.1588 117.671 23.2866 118.808 23.1252C120.129 22.9738 121.423 22.634 122.648 22.1163C124.626 21.2015 125.433 19.4829 125.302 17.2969C125.174 15.1714 123.973 13.8799 122.08 13.2308C120.976 12.8386 119.82 12.6119 118.65 12.5582C115.458 12.4607 112.26 12.5078 109.065 12.5111C108.626 12.5565 108.19 12.6295 107.76 12.7297C110.114 13.4797 110.43 13.8698 110.45 16.2543C110.487 20.2363 110.45 24.2182 110.467 28.2035C110.457 29.9692 110.269 31.6104 108.103 32.0611ZM37.6416 21.299C37.2044 13.7252 29.94 8.73431 24.5623 9.73989V21.299H37.6416ZM37.5575 23.068H24.4412V34.5027C31.0229 35.0139 38.0788 28.7484 37.5676 23.0848L37.5575 23.068ZM78.7829 31.8963L78.8233 32.0745H86.7805C86.128 31.0252 85.3108 30.0297 84.8366 28.893C82.7279 23.8483 80.7234 18.7397 78.6618 13.6647C78.4331 13.103 78.0867 12.5918 77.6125 11.7275C77.1652 12.7566 76.8794 13.3452 76.6473 13.9573C74.8379 18.6522 73.0364 23.3494 71.2427 28.0488C70.6676 29.5522 70.1699 31.0925 68.3202 32.0409H73.7987L71.4445 30.9176L72.7696 26.5455H79.2907C80.5553 28.9603 80.7268 29.68 80.4006 31.3279L78.7829 31.8963ZM67.2843 28.3919L66.9144 28.1565C66.5609 28.5558 66.1651 28.9155 65.7339 29.2293C64.3517 30.0297 63.003 30.9983 61.5031 31.4591C60.3316 31.7921 59.0776 31.6718 57.9907 31.1222C56.9039 30.5725 56.0638 29.6338 55.6378 28.4928C54.0717 24.3704 54.1064 19.8109 55.7353 15.7128C56.9595 12.5851 60.2621 11.7241 62.9022 13.8227C64.1331 14.8014 64.9873 16.2543 65.9895 17.5222C66.3161 17.9967 66.617 18.4884 66.8908 18.9953V12.1849L65.2799 13.5571C64.2709 13.1905 63.3965 12.8441 62.4986 12.5481C57.7902 10.9977 52.9708 13.1535 50.9024 17.6668C49.9339 19.7856 49.833 21.9952 50.028 24.2418C50.1901 26.1225 50.9202 27.9094 52.1215 29.3654C53.3229 30.8215 54.9386 31.8777 56.7543 32.394C60.7161 33.5442 64.54 32.3604 66.9715 29.2125C67.1171 28.9614 67.2259 28.6907 67.2944 28.4087L67.2843 28.3919ZM105.96 25.8594C104.585 27.541 103.529 29.3504 101.989 30.551C100.334 31.8492 98.1916 32.0375 95.9921 31.1194C95.813 30.5445 95.6925 29.9529 95.6323 29.3537C95.602 24.8707 95.5919 20.3876 95.6323 15.9012C95.6491 13.7118 95.9988 13.3586 98.1344 12.8743C98.1815 12.8743 98.1916 12.6894 98.2051 12.649H89.2692C91.2131 13.3956 91.3913 13.6075 91.3947 15.622C91.3947 19.826 91.3947 24.0288 91.3947 28.2304C91.3947 29.0578 91.4754 30.0062 91.1122 30.6788C90.7759 31.2842 89.9015 31.5902 89.1885 32.0779H104.928C105.291 29.9692 105.631 27.9748 105.987 25.8762L105.96 25.8594ZM136.935 32.0913C134.288 31.1059 134.245 31.0656 134.245 28.0757C134.245 24.096 134.245 20.1197 134.245 16.1467C134.245 13.6815 134.436 13.4562 136.824 12.8777C136.864 12.8777 136.861 12.6927 136.871 12.6456H127.057C129.233 13.3788 129.664 13.7387 129.677 15.4135C129.718 20.0614 129.694 24.7092 129.677 29.3571C129.677 30.5779 129.099 31.375 127.885 31.6407L127 31.8425L127.027 32.0913H136.935ZM23.8426 44.0002V36.5509H6.25C11.3082 41.4913 17.113 43.674 23.8426 44.0002ZM42.7267 36.5408H35.3479V43.9061H42.7267V36.5408Z" fill="white"/>
<path d="M0.480469 20.1956C0.643759 19.7298 0.779638 19.2548 0.887409 18.773C1.47585 15.388 2.89746 12.2027 5.02407 9.50421H23.2456C21.5943 9.99859 19.7883 10.3753 18.1201 11.0748C11.9151 13.6779 9.05312 19.7685 11.2425 25.7112C12.9039 30.2178 16.3377 32.7973 20.8577 34.0518C21.7019 34.2872 22.5797 34.4083 23.4339 34.7244H5.04425C2.89988 31.9199 1.47604 28.6322 0.897498 25.1496C0.799967 24.6115 0.621721 24.0868 0.480469 23.5554V20.1956Z" fill="#0063A8"/>
<path d="M24.0232 0V7.53679H6.84766C7.0857 7.19927 7.34996 6.88104 7.63799 6.58503C11.3375 3.24543 15.6221 1.08629 20.5962 0.380027C20.9672 0.291163 21.3279 0.163802 21.6724 0H24.0232Z" fill="#0063A8"/>
<path d="M42.8563 0V7.58052H35.2893C35.2321 5.06489 35.1783 2.53581 35.1211 0H42.8563Z" fill="#0063A8"/>
<path d="M144.822 32.1514H138.707L138.637 31.9194C138.973 31.8117 139.282 31.7007 139.612 31.6032C140.651 31.2871 141.179 30.6178 141.176 29.5046C141.176 24.739 141.176 19.9735 141.176 14.7236L138.802 12.9008L138.956 12.625H145.01L155.241 24.8803L155.661 24.7458V22.1494C155.661 20.3535 155.587 18.5542 155.681 16.7684C155.782 14.7942 155.462 13.1833 153.159 12.6385H176.516V18.1977C175.806 16.9096 175.339 15.7595 174.609 14.8144C173.738 13.6945 172.382 13.3649 170.993 13.3313C169.729 13.3044 168.461 13.3313 167.294 13.3313C166.494 14.7169 166.285 18.6013 166.779 21.4028C169.507 22.1192 170.761 21.1775 172.127 17.5184V26.9352C171.562 25.8085 171.175 24.581 170.412 23.6427C169.561 22.6102 168.236 22.368 166.689 22.6505C166.631 25.4722 166.305 28.2771 166.917 31.0752C169.177 32.1211 171.246 31.6436 173.243 30.8936C175.352 30.0999 176.522 28.2838 177.494 26.3231L177.965 26.4946C177.629 28.3275 177.262 30.1638 176.886 32.1245H159.502C160.282 31.6469 161.25 31.3678 161.627 30.7322C162.041 30.036 161.99 29.017 161.997 28.1358C162.027 24.0429 162.021 19.9499 161.997 15.857C161.997 13.4153 160.356 12.3358 158.066 13.2001C156.979 13.607 156.767 14.4445 156.774 15.4837C156.794 20.4208 156.774 25.3545 156.774 30.2815V32.6122L156.461 32.8274C155.986 32.4536 155.537 32.048 155.116 31.6133C151.352 27.1538 147.596 22.6931 143.85 18.2314C143.49 17.8076 143.116 17.3973 142.541 16.7415C142.443 17.2153 142.374 17.695 142.336 18.1776C142.336 21.4297 142.393 24.6852 142.303 27.9307C142.249 29.9317 142.521 31.5662 145.114 31.7916L144.822 32.1514Z" fill="#0063A8"/>
<path d="M108.099 32.061C110.255 31.6104 110.453 29.9759 110.453 28.2035C110.453 24.2182 110.474 20.2362 110.437 16.2543C110.416 13.8698 110.1 13.4797 107.746 12.7297C108.176 12.6295 108.612 12.5565 109.051 12.5111C112.249 12.5111 115.441 12.4606 118.636 12.5582C119.806 12.6119 120.962 12.8386 122.066 13.2308C123.96 13.8799 125.16 15.1713 125.288 17.2968C125.419 19.4829 124.616 21.2014 122.635 22.1162C121.409 22.634 120.116 22.9738 118.794 23.1252C117.657 23.2866 116.477 23.1588 115.152 23.1588C115.152 25.6845 115.074 27.9109 115.185 30.1272C115.236 31.1362 115.757 31.4019 117.54 32.061H108.099ZM115.162 22.3079C118.135 22.7821 119.978 21.7396 120.25 19.4493C120.392 18.3378 120.385 17.2126 120.23 16.1029C119.87 13.5301 117.392 12.4808 115.162 13.9303V22.3079Z" fill="#0063A8"/>
<path d="M37.6496 21.3155H24.5703V9.75643C29.948 8.75085 37.2124 13.7418 37.6496 21.3155Z" fill="#0063A8"/>
<path d="M37.5655 23.0846C38.0767 28.7481 31.0208 34.9969 24.4492 34.5193V23.0846H37.5655Z" fill="#0063A8"/>
<path d="M78.7919 31.9128L80.4163 31.3378C80.7526 29.6898 80.571 28.9836 79.3065 26.5554H72.7887L71.4637 30.9274L73.8179 32.0507H68.3359C70.1857 31.1023 70.6901 29.562 71.2585 28.0587C73.0522 23.3503 74.8537 18.6531 76.6631 13.9671C76.8951 13.355 77.181 12.7665 77.6283 11.7374C78.1025 12.6017 78.4489 13.1129 78.6776 13.6745C80.7392 18.7495 82.7436 23.848 84.8523 28.9028C85.3265 30.0396 86.1438 31.0351 86.7962 32.0844H78.8424L78.7919 31.9128ZM79.0139 25.4489C78.0453 22.9703 77.1406 20.6598 76.2393 18.3493L75.7987 18.4199C74.9748 20.69 74.1474 22.9635 73.2461 25.4489H79.0139Z" fill="#0063A8"/>
<path d="M67.2915 28.4089C67.2261 28.6904 67.1208 28.9611 66.9787 29.2127C64.5472 32.3606 60.7233 33.5445 56.7615 32.3943C54.9458 31.878 53.3301 30.8217 52.1287 29.3657C50.9274 27.9097 50.1972 26.1227 50.0352 24.242C49.8402 21.9954 49.941 19.7859 50.9096 17.6671C52.978 13.1537 57.794 10.998 62.5057 12.5484C63.4037 12.8443 64.2848 13.1907 65.2871 13.5573L66.898 12.1851V18.972C66.6242 18.4651 66.3233 17.9734 65.9967 17.4989C64.9877 16.2411 64.1402 14.7882 62.9093 13.7995C60.2693 11.7009 56.9667 12.5618 55.7425 15.6895C54.1136 19.7876 54.0788 24.3471 55.6449 28.4695C56.0679 29.6158 56.9082 30.5601 57.9976 31.1132C59.0871 31.6664 60.3453 31.7876 61.5203 31.4526C63.0203 30.9918 64.3689 30.0233 65.7512 29.2228C66.1824 28.909 66.5782 28.5493 66.9316 28.15L67.2915 28.4089Z" fill="#0063A8"/>
<path d="M105.986 25.876C105.63 27.9746 105.29 29.9824 104.927 32.1079H89.1875C89.9005 31.6202 90.785 31.3142 91.1112 30.7088C91.4744 30.0362 91.3904 29.0878 91.3937 28.2605C91.4139 24.0588 91.4139 19.856 91.3937 15.652C91.3937 13.6341 91.2121 13.4256 89.2682 12.679H98.2209C98.2209 12.7194 98.1974 12.8943 98.1503 12.9044C96.0147 13.3819 95.6649 13.735 95.6481 15.9312C95.6111 20.4109 95.6212 24.894 95.6481 29.3838C95.7083 29.9829 95.8289 30.5745 96.008 31.1494C98.2075 32.0675 100.35 31.8792 102.004 30.581C103.555 29.3669 104.611 27.5508 105.986 25.876Z" fill="#0063A8"/>
<path d="M136.959 32.1079H127.035L127.008 31.8591L127.892 31.6573C129.106 31.3815 129.682 30.5945 129.685 29.3737C129.685 24.7258 129.715 20.078 129.685 15.4301C129.685 13.7485 129.241 13.4122 127.065 12.6622H136.922C136.922 12.7093 136.922 12.8842 136.875 12.8943C134.487 13.466 134.296 13.6981 134.296 16.1633C134.296 20.1385 134.296 24.1149 134.296 28.0923C134.282 31.0822 134.313 31.1225 136.959 32.1079Z" fill="#0063A8"/>
<path d="M23.8426 44.0001C17.1163 43.6638 11.3082 41.4912 6.25 36.5508H23.8426V44.0001Z" fill="#0063A8"/>
<path d="M42.7264 36.541V43.9063H35.3477V36.541H42.7264Z" fill="#0063A8"/>
<path d="M115.164 22.2943V13.9301C117.384 12.4705 119.872 13.5299 120.232 16.0893C120.387 17.1989 120.394 18.3242 120.253 19.4356C119.99 21.7259 118.147 22.7685 115.164 22.2943Z" fill="white"/>
<path d="M79.0139 25.4489H73.2461C74.1474 22.9635 74.9748 20.69 75.7987 18.4199L76.2393 18.3493C77.1406 20.6598 78.0453 22.9703 79.0139 25.4489Z" fill="white"/>
</g>
<defs>
<clipPath id="clip0">
<rect width="177.49" height="44" fill="white" transform="translate(0.480469)"/>
</clipPath>
</defs>
</svg>
