<svg width="602" height="188" viewBox="0 0 602 188" fill="none" xmlns="http://www.w3.org/2000/svg"><path d="M393.4 84.9c0 6.8-5.5 12.3-12.2 12.3H292c-6.7 0-12.2-5.5-12.2-12.3 0-6.8 5.5-12.3 12.2-12.3h89.2c6.8 0 12.2 5.5 12.2 12.3Z" fill="#497D28"/><path fill-rule="evenodd" clip-rule="evenodd" d="M.899994 137.7H32.5c15.4 0 32.9-1.9 45.5-8.9 20-10.9 32.8-34.6 32.8-59.2 0-21.5-9.6-41.8-22.6-52.9C80.2 9.9 65.6.800003 31.9.800003H.899994V137.7ZM26.3 24.4h4.8c15.9 0 29.2 1.9 39.8 11.5 8.9 7.8 14.6 20.4 14.6 33.7 0 14.6-7 30.4-20.5 37.8-10.7 5.7-19.6 6.7-33.3 6.7h-5.4V24.4ZM226.1 35h-22.6v13h-.4c-.7-1.5-13.1-16.5-34-16.5-28.5 0-51.4 22.8-51.4 54.2 0 34.2 23.5 55.3 50 55.3 13 0 28.1-6.8 35.9-16.1v12.8h22.6V35h-.1Zm-23.3 51c0 19.1-13 32.4-30 32.4-17.6 0-30.5-14.2-30.5-31.6 0-15.4 10.4-32.8 30.5-32.8 14.7 0 30 10.8 30 32ZM237.5 137.7h24.6V89.6h.4l34.7 48.1h31.1l-41.8-52.4 37-50.3h-28.3l-32.7 48.3h-.4V.699997h-24.6V137.7ZM385 141c28.5 0 54.4-21.3 54.4-55 0-31.5-25.4-54.6-54.4-54.6-29.4 0-54.8 23.9-54.8 55 0 29.4 24.3 54.6 54.8 54.6Zm0-22.6c-15.5 0-30.2-12.6-30.2-32 0-21.5 17.4-32.4 30.2-32.4 15.4 0 29.8 13.9 29.8 32.6 0 16.3-11.9 31.8-29.8 31.8ZM452.2 137.7h24.6V56.8h14.8V35h-14.8V.699997h-24.6V35h-12v21.8h12v80.9ZM600.9 35h-22.6v13h-.3c-.7-1.5-13.1-16.5-34-16.5-28.5 0-51.4 22.8-51.4 54.2 0 34.2 23.5 55.3 50 55.3 13 0 28.1-6.8 35.9-16.1v12.8h22.6V35h-.2Zm-23.3 51c0 19.1-13 32.4-30 32.4-17.6 0-30.5-14.2-30.5-31.6 0-15.4 10.4-32.8 30.5-32.8 14.6 0 30 10.8 30 32Z" fill="#497D28"/><path d="M15.1 165.2c-1-1.6-2.2-2.5-4.2-2.5-2.09999 0-4.39999 1.4-4.39999 3.7 0 2.1 2 3.1 3.69999 3.8l1.9.7c3.7 1.5 6.5 3.5 6.5 7.9 0 4.8-3.7 8.2-8.4 8.2-4.29999 0-7.59999-3.1-8.09999-7.4l3.3-.7c0 2.9 2.3 5 5.09999 5 2.8 0 4.9-2.4 4.9-5.1 0-2.8-2.3-4.1-4.5-5l-1.79999-.8c-3-1.3-5.7-3-5.7-6.7 0-4.3 3.8-6.8 7.79999-6.8 2.9 0 5.3 1.4 6.8 4l-2.9 1.7ZM108.8 173.4c0 7.8-6.2 13.7-13.8 13.7-7.6 0-13.8-5.9-13.8-13.7 0-7.6 6.3-13.7 13.8-13.7 7.6 0 13.8 6.2 13.8 13.7Zm-3.3 0c0-5.8-4.3-10.7-10.5-10.7s-10.5 4.9-10.5 10.7c0 6 4.8 10.7 10.5 10.7s10.5-4.7 10.5-10.7ZM176.1 163.2v7.5h9.1v3h-9.1v12.9h-3.3v-26.4h12.8v3h-9.5ZM257.3 186.6h-3.2v-23.4h-6.3v-3h15.8v3h-6.3v23.4ZM335 179.1l7.5-19.4 7.4 19.4 7.4-18.9h3.6l-11 27.4-7.4-19.3-7.5 19.3-10.9-27.4h3.6l7.3 18.9ZM424 180l-3 6.6h-3.5l12.6-27.5 12.6 27.5h-3.5l-3-6.6H424Zm6.1-13.7-4.7 10.7h9.4l-4.7-10.7ZM522.1 186.6h-4l-7.8-11.2H509v11.2h-3.3v-26.4h4c2.3 0 4.9 0 7 1.2 2.2 1.3 3.5 3.8 3.5 6.3 0 3.8-2.5 6.9-6.3 7.4l8.2 11.5ZM509 172.7h1c3.4 0 7-.6 7-4.8 0-4.1-3.9-4.7-7.2-4.7h-.8v9.5ZM585.5 160.2h14.2v3h-10.9v7.4h10.6v3h-10.6v10h10.9v3h-14.2v-26.4Z" fill="#497D28"/></svg>