<svg width="188" height="40" viewBox="0 0 188 40" fill="none" xmlns="http://www.w3.org/2000/svg">
<g clip-path="url(#clip0)">
<path fill-rule="evenodd" clip-rule="evenodd" d="M179.106 34.0343C178.659 34.0343 178.409 33.7576 178.409 33.3799C178.409 33.0022 178.659 32.7255 179.106 32.7255C180.223 32.7255 180.719 32.3728 181.439 30.4607L181.91 29.2523L177.715 18.3548C177.69 18.2793 177.665 18.1537 177.665 18.0276C177.665 17.7008 177.938 17.3985 178.335 17.3985C178.634 17.3985 178.857 17.5495 178.981 17.9021L182.581 27.3901H182.606L186.107 17.9021C186.231 17.5495 186.454 17.3985 186.752 17.3985C187.149 17.3985 187.397 17.7008 187.397 18.0276C187.397 18.1537 187.372 18.2793 187.347 18.3548L182.681 30.6616C181.637 33.4554 180.792 34.0343 179.304 34.0343H179.106ZM171.416 28.8752V16.0648C171.416 13.1958 172.333 12.3903 174.718 12.3903H175.065C175.512 12.3903 175.761 12.667 175.761 13.0447C175.761 13.4223 175.512 13.6992 175.065 13.6992C173.104 13.6992 172.757 14.001 172.757 15.8886V17.3484C172.757 17.449 172.806 17.4993 172.906 17.4993H175.14C175.561 17.4993 175.761 17.751 175.761 18.1034C175.761 18.4557 175.561 18.7076 175.14 18.7076H172.906C172.806 18.7076 172.757 18.7577 172.757 18.8582V28.8752C172.757 29.3532 172.482 29.605 172.087 29.605C171.688 29.605 171.416 29.3532 171.416 28.8752ZM167.329 28.8752V18.1284C167.329 17.6504 167.602 17.3985 168 17.3985C168.397 17.3985 168.67 17.6504 168.67 18.1284V28.8752C168.67 29.3532 168.397 29.605 168 29.605C167.602 29.605 167.329 29.3532 167.329 28.8752ZM166.957 13.3472C166.957 12.7679 167.428 12.29 168 12.29C168.571 12.29 169.042 12.7679 169.042 13.3472C169.042 13.9257 168.571 14.4039 168 14.4039C167.428 14.4039 166.957 13.9257 166.957 13.3472ZM158.523 28.8752V18.1284C158.523 17.6504 158.795 17.3985 159.192 17.3985C159.589 17.3985 159.864 17.6504 159.864 18.1284V19.2862H159.888C160.335 18.0782 161.453 17.2479 162.992 17.2479C163.935 17.2479 164.555 17.4993 165.026 17.7765C165.326 17.9523 165.423 18.1537 165.423 18.3802C165.423 18.7577 165.15 19.0597 164.754 19.0597C164.654 19.0597 164.53 19.0343 164.406 18.9842C163.861 18.7328 163.338 18.5565 162.743 18.5565C160.657 18.5565 159.864 20.3684 159.864 22.6087V28.8752C159.864 29.3532 159.589 29.605 159.192 29.605C158.795 29.605 158.523 29.3532 158.523 28.8752ZM154.717 22.6337C154.817 22.6337 154.866 22.5833 154.866 22.4825C154.866 21.7779 154.792 21.2489 154.643 20.7709C154.171 19.2862 153.004 18.5062 151.465 18.5062C149.925 18.5062 148.784 19.2862 148.312 20.7709C148.163 21.2489 148.088 21.7779 148.088 22.4825C148.088 22.5833 148.138 22.6337 148.237 22.6337H154.717ZM147.095 26.6101C146.847 25.8548 146.723 25.0245 146.723 23.4895C146.723 21.9788 146.847 21.1489 147.095 20.3684C147.74 18.3548 149.354 17.2479 151.465 17.2479C153.599 17.2479 155.213 18.3548 155.859 20.3684C156.109 21.1234 156.233 22.0293 156.233 23.2376C156.233 23.6149 155.983 23.8666 155.611 23.8666H148.237C148.138 23.8666 148.088 23.9168 148.088 24.0176C148.088 24.9993 148.138 25.5027 148.336 26.1062C148.857 27.6918 150.075 28.4472 151.688 28.4472C153.029 28.4472 153.997 28.019 154.891 27.0879C155.014 26.9622 155.188 26.8365 155.387 26.8365C155.735 26.8365 155.983 27.0879 155.983 27.4155C155.983 27.5914 155.933 27.7424 155.834 27.8683C154.99 28.9507 153.575 29.756 151.614 29.756C149.329 29.756 147.765 28.6734 147.095 26.6101ZM133.364 22.6337C133.464 22.6337 133.513 22.5833 133.513 22.4825C133.513 21.7779 133.439 21.2489 133.289 20.7709C132.818 19.2862 131.651 18.5062 130.111 18.5062C128.572 18.5062 127.43 19.2862 126.958 20.7709C126.809 21.2489 126.735 21.7779 126.735 22.4825C126.735 22.5833 126.785 22.6337 126.884 22.6337H133.364ZM125.742 26.6101C125.494 25.8548 125.369 25.0245 125.369 23.4895C125.369 21.9788 125.494 21.1489 125.742 20.3684C126.387 18.3548 128.001 17.2479 130.111 17.2479C132.246 17.2479 133.86 18.3548 134.506 20.3684C134.754 21.1234 134.879 22.0293 134.879 23.2376C134.879 23.6149 134.63 23.8666 134.258 23.8666H126.884C126.785 23.8666 126.735 23.9168 126.735 24.0176C126.735 24.9993 126.785 25.5027 126.983 26.1062C127.504 27.6918 128.721 28.4472 130.335 28.4472C131.676 28.4472 132.644 28.019 133.538 27.0879C133.661 26.9622 133.835 26.8365 134.034 26.8365C134.381 26.8365 134.63 27.0879 134.63 27.4155C134.63 27.5914 134.581 27.7424 134.481 27.8683C133.637 28.9507 132.221 29.756 130.26 29.756C127.976 29.756 126.412 28.6734 125.742 26.6101ZM139.875 28.8245L134.586 13.2966C134.561 13.1958 134.536 13.0699 134.536 12.9692C134.536 12.5663 134.834 12.29 135.232 12.29C135.53 12.29 135.778 12.4912 135.902 12.8436L140.743 27.1134H140.793L145.56 12.8436C145.684 12.4912 145.933 12.29 146.231 12.29C146.628 12.29 146.925 12.5663 146.925 12.9692C146.925 13.0699 146.901 13.2211 146.876 13.2966L141.588 28.8245C141.414 29.3532 141.19 29.605 140.718 29.605C140.272 29.605 140.049 29.3532 139.875 28.8245ZM123.097 29.605C121.286 29.605 120.64 28.7493 120.64 26.7861V13.0451C120.64 12.5671 120.913 12.3152 121.31 12.3152C121.707 12.3152 121.98 12.5671 121.98 13.0451V26.7357C121.98 27.9188 122.303 28.2959 123.346 28.2959C123.792 28.2959 124.041 28.5729 124.041 28.9507C124.041 29.3278 123.792 29.605 123.346 29.605H123.097ZM116.766 26.2827C117.014 25.5027 117.089 24.6974 117.089 23.4895C117.089 22.3061 117.014 21.5008 116.766 20.7208C116.32 19.3617 115.252 18.5565 113.737 18.5565C112.247 18.5565 111.155 19.2362 110.683 20.6453C110.486 21.2994 110.386 22.3061 110.386 23.4895C110.386 24.6974 110.486 25.7039 110.683 26.3583C111.155 27.7678 112.247 28.4472 113.737 28.4472C115.252 28.4472 116.32 27.6417 116.766 26.2827ZM110.411 27.9943H110.386V28.8752C110.386 29.3532 110.113 29.605 109.715 29.605C109.318 29.605 109.045 29.3532 109.045 28.8752V13.0198C109.045 12.5417 109.318 12.29 109.715 12.29C110.113 12.29 110.386 12.5417 110.386 13.0198V19.0092H110.411C110.981 17.9776 112.025 17.2479 113.961 17.2479C115.972 17.2479 117.412 18.33 118.033 20.2176C118.33 21.199 118.454 22.1303 118.454 23.4895C118.454 24.8735 118.33 25.8047 118.033 26.7861C117.412 28.6734 115.972 29.756 113.961 29.756C112.025 29.756 110.981 29.0261 110.411 27.9943ZM105.097 28.8752V28.0444H105.073C104.403 29.1265 103.286 29.756 101.622 29.756C99.0151 29.756 97.5252 28.0949 97.5252 25.1754V18.1284C97.5252 17.6504 97.7982 17.3985 98.1961 17.3985C98.5931 17.3985 98.8654 17.6504 98.8654 18.1284V24.8483C98.8654 27.2391 99.8592 28.4472 101.92 28.4472C103.707 28.4472 105.097 27.1636 105.097 25.1V18.1284C105.097 17.6504 105.371 17.3985 105.768 17.3985C106.165 17.3985 106.439 17.6504 106.439 18.1284V28.8752C106.439 29.3532 106.165 29.605 105.768 29.605C105.371 29.605 105.097 29.3532 105.097 28.8752ZM93.9364 26.2072C94.1599 25.5276 94.2592 24.7979 94.2592 23.4895C94.2592 22.2056 94.1599 21.4759 93.9364 20.7963C93.4651 19.3617 92.3229 18.5565 90.7832 18.5565C89.2689 18.5565 88.1269 19.3617 87.6551 20.7963C87.4319 21.4759 87.333 22.2056 87.333 23.4895C87.333 24.7979 87.4319 25.5276 87.6551 26.2072C88.1269 27.6417 89.2689 28.4472 90.7832 28.4472C92.3229 28.4472 93.4651 27.6417 93.9364 26.2072ZM86.364 26.6355C86.1161 25.83 85.9677 24.949 85.9677 23.4895C85.9677 22.0543 86.1161 21.1738 86.364 20.3684C87.0099 18.3802 88.624 17.2479 90.7832 17.2479C92.9689 17.2479 94.5821 18.3802 95.2278 20.3684C95.4761 21.1738 95.6251 22.0543 95.6251 23.4895C95.6251 24.949 95.4761 25.83 95.2278 26.6355C94.5821 28.6233 92.9689 29.756 90.7832 29.756C88.624 29.756 87.0099 28.6233 86.364 26.6355ZM74.2556 28.2461H77.6323C80.1647 28.2461 81.5055 27.3906 82.2006 25.2509C82.5227 24.2194 82.6475 23.2376 82.6475 21.0481C82.6475 18.8586 82.5227 17.8774 82.2006 16.845C81.5055 14.7061 80.1647 13.8504 77.6323 13.8504H74.2556C74.1564 13.8504 74.1066 13.9007 74.1066 14.0014V28.0949C74.1066 28.1959 74.1564 28.2461 74.2556 28.2461ZM72.6914 13.1708C72.6914 12.7427 72.9654 12.4912 73.3864 12.4912H77.8306C80.9339 12.4912 82.7717 13.8753 83.5664 16.367C83.9393 17.55 84.0627 18.5817 84.0627 21.0481C84.0627 23.5148 83.9393 24.5464 83.5664 25.7292C82.7717 28.2208 80.9339 29.605 77.8306 29.605H73.3864C72.9654 29.605 72.6914 29.3531 72.6914 28.9253V13.1708Z" fill="#14113B"/>
<path fill-rule="evenodd" clip-rule="evenodd" d="M2.4816 34.0344C1.38927 34.0344 0.503906 33.1115 0.503906 31.9726V8.42171C0.503906 7.28293 1.38927 6.35992 2.4816 6.35992C3.57394 6.35992 4.4593 7.28293 4.4593 8.42171V31.9726C4.4593 33.1115 3.57394 34.0344 2.4816 34.0344Z" fill="#00B2A9"/>
<path fill-rule="evenodd" clip-rule="evenodd" d="M11.2339 34.0344H8.52179C7.37069 34.0344 6.4375 33.1118 6.4375 31.9732C6.4375 30.8347 7.37069 29.9122 8.52179 29.9122H11.2339C16.6505 29.9122 21.0571 25.5539 21.0571 20.1977C21.0571 14.8406 16.6505 10.4825 11.2339 10.4825H8.52179C7.37069 10.4825 6.4375 9.55952 6.4375 8.42109C6.4375 7.28265 7.37069 6.35992 8.52179 6.35992H11.2339C18.9489 6.35992 25.2257 12.5675 25.2257 20.1977C25.2257 27.8271 18.9489 34.0344 11.2339 34.0344Z" fill="#34B233"/>
<path fill-rule="evenodd" clip-rule="evenodd" d="M40.012 34.0344C39.2492 34.0344 38.5191 33.5938 38.1754 32.8431L27.3933 9.29315C26.9207 8.26117 27.3593 7.03459 28.373 6.55343C29.3863 6.07247 30.5908 6.5189 31.0635 7.55107L41.8458 31.1009C42.3182 32.133 41.8796 33.3594 40.8661 33.8409C40.5897 33.9721 40.2984 34.0344 40.012 34.0344Z" fill="#C70099"/>
<path fill-rule="evenodd" clip-rule="evenodd" d="M43.8402 26.1273C43.5617 26.1273 43.2794 26.065 43.0105 25.9332C42.0265 25.4512 41.6008 24.2223 42.0597 23.1887L49.004 7.55275C49.4634 6.51911 50.633 6.07156 51.6169 6.55428C52.6011 7.03622 53.0265 8.26497 52.5674 9.29861L45.6233 24.9347C45.2896 25.6859 44.5806 26.1273 43.8402 26.1273Z" fill="#6E2CA9"/>
<path fill-rule="evenodd" clip-rule="evenodd" d="M62.8008 39.9645H63.2952V0.429688H62.8008V39.9645Z" fill="#14113B"/>
</g>
<defs>
<clipPath id="clip0">
<rect width="186.977" height="40" fill="white" transform="translate(0.503906)"/>
</clipPath>
</defs>
</svg>
