<svg width="131" height="48" viewBox="0 0 131 48" fill="none" xmlns="http://www.w3.org/2000/svg">
<path d="M38.9226 23.8413L38.9141 23.9923C38.9141 24.0348 38.9141 24.0738 38.9141 24.1162L42.0366 24.1366C42.0366 24.0891 42.0366 24.0415 42.0451 23.9923V23.8531C42.0284 23.466 41.8682 23.0989 41.5957 22.8231C41.3232 22.5474 40.9577 22.3828 40.5705 22.3612H40.4855C40.0867 22.3611 39.703 22.5138 39.4134 22.7879C39.1239 23.062 38.9507 23.4366 38.9294 23.8345" fill="#051C40"/>
<path d="M19.6231 10.2136C19.6135 10.3888 19.6385 10.5642 19.6967 10.7297C19.7549 10.8953 19.8452 11.0477 19.9625 11.1784C20.0797 11.3091 20.2215 11.4154 20.3799 11.4912C20.5382 11.5671 20.71 11.6111 20.8854 11.6207H21.0213H21.1419L21.1691 8.94739H21.0213H20.9109C20.5774 8.95996 20.2606 9.09634 20.0225 9.32988C19.7843 9.56342 19.6419 9.87732 19.6231 10.2102" fill="#051C40"/>
<path d="M21.0176 9.62117V11.6274L21.3812 11.6461C24.5989 11.7401 27.6535 13.0824 29.8973 15.3884C32.1411 17.6945 33.3978 20.783 33.4008 23.9991V23.9991C33.4004 27.2792 32.0959 30.4249 29.7744 32.7443C27.4528 35.0637 24.3042 36.367 21.021 36.3674L20.2464 36.3284L19.8097 36.3063C19.6636 36.2961 19.5192 36.2639 19.3765 36.2452L18.5118 36.1128C17.9512 35.9533 17.3718 35.8548 16.8333 35.6257C16.5649 35.5154 16.2778 35.4458 16.0195 35.3083C15.7613 35.1708 15.4946 35.0537 15.2312 34.9281C14.9679 34.8025 14.7318 34.6294 14.4786 34.4851L14.1049 34.2577L13.7532 33.9963C12.5708 33.1366 11.547 32.0781 10.7275 30.8681C9.91358 29.655 9.32434 28.3057 8.98784 26.8845C8.87997 26.4734 8.79994 26.0555 8.7483 25.6336C8.68799 25.2129 8.65394 24.7889 8.64637 24.364C8.64637 24.364 8.64637 24.2418 8.62768 23.9991H5.95703C5.96892 24.2944 5.97742 24.4404 5.97742 24.4404C6.00517 25.4747 6.14125 26.5032 6.38345 27.5091C6.7917 29.2389 7.50753 30.8814 8.49686 32.3584C9.48975 33.8312 10.7335 35.1185 12.1716 36.162C12.3143 36.2656 12.457 36.3725 12.5997 36.4777L13.0533 36.7561C13.3591 36.936 13.653 37.1346 13.9707 37.2942L14.9305 37.7558C15.2531 37.9031 15.5831 38.0335 15.9193 38.1462C16.5785 38.4161 17.2784 38.5519 17.958 38.7369L19.0079 38.9066C19.1778 38.9304 19.3595 38.9643 19.5362 38.9796L20.0663 39.0084L21.0075 39.0543C22.9867 39.0552 24.9467 38.6664 26.7755 37.9101C28.6042 37.1539 30.2659 36.045 31.6655 34.6468C33.0651 33.2486 34.1752 31.5886 34.9324 29.7616C35.6896 27.9347 36.0789 25.9765 36.0783 23.9991V23.9991C36.0739 21.0815 35.2217 18.2279 33.6252 15.7849C32.0286 13.342 29.7563 11.4147 27.0844 10.2373C25.3089 9.4569 23.3984 9.02914 21.4594 8.97789L21.0176 8.95752V9.62117Z" fill="#051C40"/>
<path d="M7.2295 22.6023C6.89596 22.6181 6.58042 22.758 6.34494 22.9945C6.10946 23.2311 5.97108 23.547 5.95703 23.8804C5.95703 23.9211 5.95703 23.9601 5.95703 23.9992C5.95703 24.0382 5.95703 24.0959 5.95703 24.1468L8.63447 24.1197V24.0009V23.8634C8.61579 23.5222 8.46695 23.2012 8.21857 22.9663C7.97019 22.7314 7.64116 22.6005 7.29915 22.6006H7.23459" fill="#051C40"/>
<path d="M40.9067 20.4721C40.5882 20.5574 40.2515 20.5464 39.9393 20.4404C39.6271 20.3345 39.3533 20.1384 39.1527 19.877C38.952 19.6156 38.8335 19.3005 38.8121 18.9718C38.7907 18.6431 38.8674 18.3154 39.0325 18.0302C39.1976 17.745 39.4436 17.5152 39.7395 17.3698C40.0354 17.2243 40.3677 17.1699 40.6946 17.2132C41.0215 17.2566 41.3281 17.3959 41.5757 17.6134C41.8234 17.8309 42.0008 18.117 42.0857 18.4353C42.1988 18.8616 42.1383 19.3153 41.9173 19.697C41.6963 20.0788 41.3329 20.3575 40.9067 20.4721" fill="#051C40"/>
<path d="M55.67 33.7621H52.5474V21.6807H55.67V33.7621ZM54.1036 20.5231C53.7735 20.5234 53.4507 20.4259 53.1761 20.2429C52.9015 20.0599 52.6874 19.7996 52.5609 19.495C52.4344 19.1903 52.4012 18.8551 52.4656 18.5316C52.5299 18.2081 52.6888 17.911 52.9222 17.6778C53.1556 17.4446 53.4531 17.2858 53.7768 17.2215C54.1006 17.1573 54.4362 17.1904 54.7411 17.3168C55.046 17.4431 55.3066 17.657 55.4897 17.9314C55.6729 18.2058 55.7705 18.5282 55.7702 18.858C55.7704 19.0768 55.7275 19.2934 55.6438 19.4955C55.5601 19.6976 55.4374 19.8813 55.2826 20.0359C55.1278 20.1906 54.9439 20.3132 54.7416 20.3968C54.5393 20.4804 54.3225 20.5233 54.1036 20.5231" fill="#051C40"/>
<path d="M65.5824 33.7621V26.4636C65.5824 25.1431 65.4414 23.7276 63.8206 23.7276C62.9287 23.7276 61.7548 24.1095 60.9546 24.566V33.7638H57.832V21.6823H60.9546V22.884C62.0368 22.0914 63.7493 21.2987 65.088 21.2987C67.6023 21.2987 68.7049 23.1658 68.7049 25.5505V33.7621H65.5824Z" fill="#051C40"/>
<path d="M98.0498 23.8957C97.1307 23.9873 96.1454 24.4948 95.3452 24.9514V33.7621H92.2227V21.6824H95.3452V23.1217C96.4274 22.329 98.1399 21.6824 99.4786 21.6824V23.9517C99.0057 23.8823 98.5267 23.8635 98.0498 23.8957" fill="#051C40"/>
<path d="M84.5515 23.4594C82.2732 23.4594 81.5223 25.6659 81.5223 27.6382C81.5223 29.6104 82.2019 32.0512 84.5515 32.0512C86.901 32.0512 87.6094 29.6274 87.6094 27.6382C87.6094 25.6489 86.8365 23.4594 84.5515 23.4594ZM84.5515 34.0744C80.5591 34.0744 78.4219 31.5997 78.4219 27.5906C78.4219 23.5324 80.5591 21.2987 84.5515 21.2987C88.4249 21.2987 90.681 23.6529 90.681 27.5906C90.681 31.6235 88.5676 34.0744 84.5515 34.0744Z" fill="#051C40"/>
<path d="M115.694 33.7621V26.4636C115.694 25.1194 115.412 23.7276 113.815 23.7276C112.994 23.7276 112.078 24.1095 111.373 24.566C111.44 24.8904 111.471 25.221 111.467 25.5522V33.7638H108.346V26.4653C108.346 25.1448 108.176 23.7293 106.56 23.7293C105.76 23.7293 104.775 24.1112 104.116 24.5677V33.7655H101V21.6823H104.123V22.884C105.111 22.0914 106.732 21.2987 107.974 21.2987C109.314 21.2987 110.369 21.8503 110.981 23.1013C112.109 22.3307 113.847 21.2987 115.208 21.2987C117.744 21.2987 118.823 23.1658 118.823 25.5505V33.7621H115.694Z" fill="#051C40"/>
<path d="M123.389 30.2079C123.389 31.2891 124.068 32.0563 125.126 32.0563C125.784 32.0411 126.409 31.7728 126.873 31.3076C127.337 30.8423 127.603 30.216 127.615 29.5595V27.83C126.229 27.9046 123.389 28.4071 123.389 30.2062V30.2079ZM127.826 31.9833C126.977 33.1595 125.408 34.0727 123.976 34.0727C122.026 34.0727 120.359 32.7505 120.359 30.6628C120.359 26.7233 124.632 26.2684 127.615 26.1479V25.4266C127.615 24.0585 126.511 23.3626 125.245 23.3626C124.034 23.3548 122.83 23.541 121.678 23.9143V22.57C122.931 21.7594 124.388 21.3187 125.881 21.2987C128.23 21.2987 130.648 22.329 130.648 25.0922V33.7604H127.826V31.9833Z" fill="#051C40"/>
<path d="M76.8251 19.1143C77.2261 19.1171 77.6265 19.1495 78.0228 19.211V17.826C77.2522 17.4095 76.3929 17.1837 75.5169 17.1675C72.746 17.1675 71.5959 19.0888 71.5959 21.6823H70.1484V23.787H71.5891L71.6129 33.7621H74.7575V23.787H78.0228V21.6823H74.7337C74.7337 20.1463 75.0871 19.1143 76.8251 19.1143Z" fill="#051C40"/>
<path d="M20.5837 3.02037C19.7342 3.07129 18.8848 3.06789 18.0608 3.22914C14.9414 3.66005 11.9602 4.79172 9.34137 6.53912C6.72255 8.28652 4.5342 10.6042 2.94077 13.318L2.57891 13.9171C2.46168 14.1191 2.36994 14.3347 2.26631 14.5434L1.65811 15.8079C1.49672 16.2458 1.33362 16.6854 1.17393 17.1233L0.934387 17.7819C0.878324 18.0093 0.817164 18.2351 0.764498 18.4608C0.650673 18.914 0.526654 19.3638 0.424721 19.8187C0.355067 20.2786 0.283714 20.742 0.212361 21.2037C0.178383 21.4345 0.13761 21.6636 0.112126 21.8962C0.0866431 22.1287 0.0866431 22.3629 0.0747509 22.5955L0 23.9991C0.00180124 29.567 2.21648 34.9063 6.1572 38.8434C10.0979 42.7805 15.4422 44.9931 21.0152 44.9949V44.9949C25.1145 44.9877 29.1226 43.7857 32.5482 41.5363C35.9739 39.2869 38.6682 36.0879 40.3009 32.3313C41.3824 29.834 41.9636 27.1492 42.0117 24.4286C42.0117 24.4286 42.0117 24.2843 42.0321 23.9941H38.9147L38.8943 24.3658C38.855 26.6807 38.3615 28.9654 37.4417 31.0905C36.0531 34.29 33.7596 37.0148 30.8427 38.9304C27.9258 40.8459 24.5126 41.8688 21.022 41.8735V41.8735C16.2762 41.8735 11.7247 39.9906 8.36818 36.6388C5.01163 33.2869 3.1248 28.7405 3.12255 23.9991V23.9991C3.14294 23.6003 3.16502 23.2048 3.18541 22.811C3.18541 22.6141 3.2041 22.4139 3.21429 22.2153C3.22448 22.0167 3.27375 21.8215 3.30263 21.6263L3.48271 20.4348C3.57898 20.0501 3.67695 19.6653 3.77662 19.2806L3.92442 18.7018C3.99238 18.5151 4.05864 18.3284 4.12829 18.1417C4.2642 17.7683 4.40068 17.3955 4.53772 17.0232L5.05758 15.9488C5.14592 15.7791 5.22747 15.5873 5.32091 15.4141C5.41435 15.241 5.52817 15.0747 5.6301 14.905C6.9848 12.5936 8.84688 10.6196 11.0761 9.13162C13.3052 7.64365 15.8433 6.68054 18.4992 6.31485C19.2076 6.17058 19.9313 6.18416 20.6482 6.13494L21.0203 6.11627V3L20.5854 3.02037" fill="#051C40"/>
<path d="M21.4219 6.067C21.1237 6.14674 20.8085 6.13635 20.5161 6.03714C20.2238 5.93793 19.9675 5.75435 19.7795 5.50961C19.5916 5.26487 19.4806 4.96997 19.4604 4.66217C19.4402 4.35437 19.5118 4.04751 19.6662 3.78037C19.8205 3.51323 20.0507 3.29781 20.3276 3.16134C20.6044 3.02487 20.9156 2.97348 21.2217 3.01366C21.5278 3.05385 21.8151 3.1838 22.0473 3.3871C22.2795 3.5904 22.4462 3.85791 22.5262 4.15582C22.5794 4.35376 22.593 4.56022 22.5663 4.76341C22.5395 4.9666 22.473 5.16254 22.3705 5.34002C22.2679 5.51751 22.1313 5.67307 21.9686 5.79781C21.8058 5.92255 21.6201 6.01402 21.4219 6.067" fill="#051C40"/>
<path d="M35.3724 11.6478C35.0618 11.7313 34.7333 11.7209 34.4286 11.6178C34.1239 11.5147 33.8567 11.3237 33.6607 11.0688C33.4647 10.8139 33.3489 10.5067 33.3277 10.186C33.3066 9.86529 33.3812 9.54553 33.542 9.26719C33.7028 8.98885 33.9427 8.76443 34.2312 8.62233C34.5198 8.48024 34.844 8.42686 35.163 8.46894C35.4819 8.51103 35.7811 8.64669 36.0228 8.85876C36.2646 9.07083 36.4379 9.34977 36.5209 9.66029C36.5761 9.86613 36.5902 10.0808 36.5624 10.2921C36.5346 10.5034 36.4654 10.7072 36.3587 10.8917C36.2521 11.0763 36.1101 11.2381 35.9408 11.3678C35.7716 11.4975 35.5785 11.5927 35.3724 11.6478" fill="#051C40"/>
<path d="M38.7018 15.6331C38.3873 15.7174 38.0548 15.7067 37.7464 15.6021C37.4379 15.4976 37.1675 15.3041 36.9692 15.046C36.7709 14.7879 36.6537 14.4768 36.6324 14.1521C36.6111 13.8275 36.6867 13.5038 36.8496 13.222C37.0125 12.9403 37.2553 12.7131 37.5475 12.5693C37.8396 12.4255 38.1679 12.3715 38.4907 12.4141C38.8136 12.4567 39.1166 12.594 39.3613 12.8087C39.606 13.0234 39.7815 13.3057 39.8656 13.6201C39.9216 13.8286 39.9359 14.0461 39.9077 14.2601C39.8795 14.4742 39.8093 14.6806 39.7013 14.8675C39.5932 15.0545 39.4493 15.2183 39.2778 15.3497C39.1063 15.481 38.9106 15.5773 38.7018 15.6331" fill="#051C40"/>
<path d="M31.2095 8.62998C30.9031 8.71186 30.5793 8.70112 30.279 8.59913C29.9787 8.49714 29.7154 8.30847 29.5224 8.05698C29.3294 7.8055 29.2154 7.50249 29.1948 7.18628C29.1742 6.87006 29.2479 6.55484 29.4066 6.28047C29.5653 6.0061 29.8018 5.7849 30.0864 5.64485C30.3709 5.50479 30.6906 5.45217 31.005 5.49364C31.3195 5.53511 31.6146 5.6688 31.853 5.87781C32.0914 6.08683 32.2624 6.36178 32.3444 6.66789C32.3988 6.87117 32.4127 7.08317 32.3851 7.2918C32.3575 7.50042 32.2891 7.70158 32.1837 7.88378C32.0784 8.06598 31.9381 8.22566 31.7709 8.35369C31.6038 8.48173 31.413 8.57561 31.2095 8.62998" fill="#051C40"/>
<path d="M26.4676 6.73245C26.1652 6.81381 25.8453 6.8037 25.5486 6.7034C25.2519 6.60311 24.9916 6.41713 24.8007 6.169C24.6098 5.92087 24.4968 5.62174 24.4761 5.30946C24.4554 4.99718 24.5279 4.68579 24.6844 4.41468C24.8409 4.14357 25.0744 3.92492 25.3553 3.78641C25.6362 3.6479 25.9519 3.59575 26.2625 3.63655C26.573 3.67735 26.8645 3.80928 27.1 4.01563C27.3355 4.22199 27.5045 4.4935 27.5855 4.79581C27.6936 5.2007 27.6366 5.63187 27.427 5.99486C27.2175 6.35785 26.8725 6.62308 26.4676 6.73245Z" fill="#051C40"/>
<path d="M27.0975 29.7123C26.9292 29.5901 26.8009 29.4208 26.729 29.2258C26.657 29.0307 26.6446 28.8187 26.6932 28.6166C26.7419 28.4145 26.8495 28.2314 27.0024 28.0904C27.1553 27.9494 27.3466 27.8569 27.5522 27.8245C27.7577 27.7922 27.9682 27.8215 28.1571 27.9088C28.3459 27.996 28.5046 28.1373 28.6131 28.3147C28.7215 28.4921 28.7749 28.6976 28.7664 28.9053C28.7579 29.113 28.6879 29.3135 28.5653 29.4815C28.4843 29.5932 28.382 29.6878 28.2643 29.7599C28.1466 29.832 28.0158 29.8802 27.8794 29.9017C27.743 29.9231 27.6037 29.9174 27.4695 29.8849C27.3354 29.8524 27.2089 29.7938 27.0975 29.7123" fill="#051C40"/>
<path d="M22.581 32.1938C22.5179 31.9963 22.5148 31.7846 22.572 31.5854C22.6292 31.3861 22.7443 31.2083 22.9026 31.0743C23.0609 30.9404 23.2554 30.8563 23.4615 30.8326C23.6677 30.809 23.8762 30.8469 24.0607 30.9416C24.2453 31.0363 24.3977 31.1835 24.4986 31.3646C24.5995 31.5458 24.6444 31.7527 24.6277 31.9593C24.6109 32.1659 24.5333 32.3629 24.4046 32.5255C24.2759 32.6881 24.1018 32.8089 23.9044 32.8727C23.7729 32.9152 23.6343 32.9314 23.4965 32.9203C23.3588 32.9091 23.2245 32.8709 23.1016 32.8079C22.9786 32.7448 22.8693 32.6581 22.78 32.5527C22.6907 32.4473 22.623 32.3254 22.581 32.1938" fill="#051C40"/>
<path d="M17.4603 31.5455C17.5243 31.3479 17.6455 31.1737 17.8085 31.0448C17.9716 30.916 18.1692 30.8383 18.3764 30.8216C18.5836 30.8049 18.7911 30.85 18.9726 30.951C19.1542 31.0521 19.3018 31.2047 19.3966 31.3895C19.4915 31.5742 19.5294 31.783 19.5056 31.9893C19.4818 32.1956 19.3973 32.3902 19.2628 32.5486C19.1283 32.7069 18.9499 32.8219 18.75 32.879C18.5502 32.9361 18.3378 32.9328 18.1399 32.8694C17.8744 32.7834 17.6538 32.5958 17.5264 32.3477C17.399 32.0995 17.3753 31.8111 17.4603 31.5455" fill="#051C40"/>
<path d="M13.3275 28.5536C13.3915 28.3561 13.5127 28.1818 13.6757 28.053C13.8388 27.9242 14.0363 27.8465 14.2435 27.8298C14.4507 27.8131 14.6582 27.8582 14.8398 27.9592C15.0214 28.0603 15.169 28.2128 15.2638 28.3976C15.3587 28.5824 15.3966 28.7912 15.3728 28.9975C15.3489 29.2038 15.2644 29.3984 15.13 29.5568C14.9955 29.7151 14.8171 29.8301 14.6172 29.8872C14.4173 29.9443 14.205 29.9409 14.0071 29.8776C13.7416 29.7916 13.521 29.604 13.3936 29.3558C13.2662 29.1077 13.2425 28.8192 13.3275 28.5536" fill="#051C40"/>
<path d="M8.85523 17.5172C9.09977 17.6185 9.30877 17.7899 9.45581 18.0098C9.60286 18.2297 9.68134 18.4882 9.68135 18.7527C9.68136 19.0172 9.60289 19.2757 9.45586 19.4956C9.30883 19.7155 9.09984 19.887 8.8553 19.9883C8.61077 20.0895 8.34167 20.1161 8.08203 20.0646C7.82238 20.0131 7.58383 19.8859 7.39655 19.699C7.20926 19.5121 7.08164 19.2739 7.02981 19.0146C6.97799 18.7552 7.00429 18.4864 7.10538 18.2419C7.24144 17.9142 7.50213 17.6538 7.83022 17.5179C8.15831 17.382 8.52697 17.3817 8.85523 17.5172" fill="#051C40"/>
<path d="M12.2624 13.3587C12.4495 13.5458 12.5768 13.7842 12.6284 14.0436C12.6799 14.303 12.6533 14.5718 12.552 14.8161C12.4506 15.0605 12.279 15.2693 12.0589 15.4162C11.8388 15.5631 11.58 15.6415 11.3153 15.6415C11.0506 15.6415 10.7918 15.5631 10.5717 15.4162C10.3516 15.2693 10.18 15.0605 10.0786 14.8161C9.97724 14.5718 9.95064 14.303 10.0022 14.0436C10.0537 13.7842 10.1811 13.5458 10.3682 13.3587C10.6197 13.1084 10.9603 12.9679 11.3153 12.9679C11.6703 12.9679 12.0109 13.1084 12.2624 13.3587Z" fill="#051C40"/>
<path d="M17.0017 10.8213C17.1028 11.0657 17.1291 11.3346 17.0773 11.5939C17.0255 11.8533 16.8979 12.0915 16.7106 12.2784C16.5233 12.4653 16.2848 12.5925 16.0251 12.644C15.7655 12.6955 15.4964 12.6689 15.2518 12.5676C15.0073 12.4663 14.7983 12.2949 14.6513 12.075C14.5042 11.855 14.4258 11.5965 14.4258 11.332C14.4258 11.0676 14.5043 10.809 14.6513 10.5891C14.7984 10.3692 15.0074 10.1978 15.2519 10.0965C15.5802 9.96108 15.9488 9.96132 16.2769 10.0972C16.605 10.2331 16.8657 10.4935 17.0017 10.8213Z" fill="#051C40"/>
</svg>
