<svg width="760" height="250" viewBox="0 0 760 250" fill="none" xmlns="http://www.w3.org/2000/svg">
<path d="M222.614 185.062L187.11 61.2568C186.541 59.4361 185.176 58.0706 183.469 57.3878C181.421 56.5913 179.031 57.0465 177.324 58.5258L127.483 102.222L77.5288 58.6395C76.0495 57.274 74.0012 56.8189 72.0667 57.274C69.9047 57.843 68.3116 59.5499 67.7426 61.5981L32.2396 185.176C31.6706 187.224 32.1258 189.386 33.4913 190.98C34.9706 192.573 37.0188 193.255 39.1809 192.914L127.483 176.3L215.786 192.914C219.2 193.369 222.272 191.093 222.727 187.68C222.955 186.883 222.841 185.973 222.614 185.062ZM166.4 81.5117L147.397 119.632L135.107 108.822L166.4 81.5117ZM119.859 108.936L107.57 119.746L88.5666 81.6255L119.859 108.936ZM74.115 75.0256L99.7182 126.573L46.0084 173.569L74.115 75.0256ZM53.86 179.828L104.384 135.79L120.201 167.538L53.86 179.828ZM112.008 128.849L127.37 115.422L142.732 128.849L127.37 159.687L112.008 128.849ZM134.766 167.311L150.583 135.563L201.221 179.942L134.766 167.311ZM155.249 126.573L180.738 75.2532L208.845 173.342L155.249 126.573ZM286.792 143.073L268.927 111.667V157.297C268.927 157.98 268.472 158.435 267.789 158.435H259.027C258.344 158.435 257.889 157.98 257.889 157.297V91.753C257.889 91.0703 258.344 90.6151 259.027 90.6151H268.813C269.268 90.6151 269.61 90.8427 269.837 91.184L291.458 131.239L313.192 91.184C313.419 90.8427 313.761 90.6151 314.216 90.6151H324.002C324.685 90.6151 325.14 91.0703 325.14 91.753V157.297C325.14 157.98 324.685 158.435 324.002 158.435H315.468C314.785 158.435 314.33 157.98 314.33 157.297V111.667L296.464 143.073C296.237 143.415 295.896 143.642 295.44 143.642H287.702C287.361 143.642 287.02 143.415 286.792 143.073ZM335.723 143.301C335.723 132.946 343.802 126.232 358.254 126.232H368.609V123.842C368.609 116.446 363.602 115.536 351.426 116.446C348.354 117.015 345.395 118.039 342.55 119.518C341.981 119.746 341.298 119.632 341.071 119.063C340.957 118.949 340.957 118.835 340.957 118.722C340.73 116.446 340.388 113.829 340.161 112.236C340.047 111.78 340.274 111.439 340.73 111.211C346.305 108.708 352.336 107.342 358.367 107.342C372.933 107.342 379.533 112.236 379.533 126.232V157.411C379.533 158.094 379.077 158.549 378.395 158.549H372.478C372.25 158.549 371.909 158.435 371.681 158.321L368.381 155.363C364.512 158.435 359.619 160.028 354.612 159.801C344.257 159.687 335.723 154.111 335.723 143.301ZM368.609 145.577V135.222H358.595C350.174 135.222 346.874 138.066 346.874 143.187C346.874 148.308 350.629 150.47 356.319 150.47C360.757 150.811 365.081 149.218 368.267 146.146C368.495 146.032 368.609 145.804 368.609 145.577ZM403.543 157.752L386.815 109.96C386.588 109.391 386.929 108.708 387.498 108.48C387.612 108.48 387.726 108.367 387.953 108.367H397.398C397.853 108.367 398.308 108.708 398.536 109.163L410.825 147.17L423.456 109.163C423.57 108.708 424.025 108.367 424.594 108.367H433.811C434.38 108.367 434.949 108.822 434.949 109.391C434.949 109.505 434.949 109.618 434.836 109.846L418.108 157.752C417.994 158.207 417.539 158.549 417.084 158.549H404.794C404.225 158.549 403.657 158.207 403.543 157.752ZM451.79 137.725C452.587 146.601 457.935 150.47 467.152 150.47C471.818 150.356 476.37 149.332 480.58 147.397C481.035 147.17 481.604 147.397 481.832 147.852C481.832 147.966 481.945 148.08 481.945 148.194L482.856 155.363C482.97 155.818 482.628 156.273 482.287 156.501C477.394 158.776 471.932 159.801 466.583 159.687C448.718 159.687 440.298 148.535 440.298 133.401C440.298 117.698 449.173 107.229 463.511 107.229C478.304 107.229 486.725 118.153 486.725 133.742V136.701C486.725 137.384 486.269 137.839 485.587 137.839H451.677L451.79 137.725ZM475.232 128.849C474.321 120.315 469.997 116.218 463.511 116.218C457.025 116.218 452.587 120.201 451.79 128.849H475.232ZM508.573 119.063V157.297C508.573 157.98 508.118 158.435 507.435 158.435H498.787C498.104 158.435 497.649 157.98 497.649 157.297V109.505C497.649 108.822 498.104 108.367 498.787 108.367H504.818C505.159 108.367 505.387 108.48 505.614 108.708L508.459 112.236C511.986 108.936 516.652 107.229 521.431 107.342C534.062 107.342 542.028 115.308 542.028 130.442V157.525C542.028 158.208 541.572 158.663 540.89 158.663H532.241C531.559 158.663 531.103 158.208 531.103 157.525V130.215C531.103 120.656 527.576 116.332 519.838 116.332C515.742 116.104 511.986 117.129 508.573 119.063ZM623.73 118.949V157.297C623.73 157.98 623.275 158.435 622.592 158.435H613.83C613.148 158.435 612.692 157.98 612.692 157.297V109.391C612.692 108.708 613.148 108.253 613.83 108.253H619.861C620.203 108.253 620.43 108.367 620.658 108.594L623.503 112.122C627.03 108.822 631.696 107.115 636.589 107.229C649.22 107.229 657.185 115.194 657.185 130.328V157.525C657.185 158.208 656.73 158.663 656.047 158.663H647.285C646.602 158.663 646.147 158.208 646.147 157.525V130.101C646.147 120.542 642.62 116.218 634.882 116.218C631.013 115.991 627.03 117.015 623.73 118.949ZM681.423 132.491V157.411C681.423 158.094 680.967 158.549 680.285 158.549H671.523C670.84 158.549 670.385 158.094 670.385 157.411V89.022C670.385 88.3392 670.84 87.8841 671.523 87.8841H680.285C680.967 87.8841 681.423 88.3392 681.423 89.022V128.849L700.198 108.822C700.426 108.594 700.767 108.48 700.995 108.48H711.578C712.26 108.48 712.715 108.936 712.715 109.618C712.715 109.96 712.602 110.187 712.374 110.415L693.257 130.67L714.422 156.614C714.877 157.07 714.764 157.866 714.309 158.208C714.081 158.435 713.853 158.435 713.512 158.435H702.588C702.247 158.435 701.905 158.321 701.678 157.98L681.423 132.491ZM570.817 158.663C560.576 158.663 553.179 153.314 553.179 140.456V87.7703C553.179 87.0875 553.634 86.6324 554.317 86.6324H563.079C563.762 86.6324 564.217 87.0875 564.217 87.7703V139.773C564.217 146.942 566.72 149.787 572.41 149.787C573.548 149.787 575.482 149.559 576.848 149.559C577.417 149.559 577.872 149.901 577.872 150.47V150.583V157.297C577.872 157.866 577.417 158.321 576.848 158.435C575.027 158.549 572.979 158.663 570.817 158.663ZM599.151 157.411C599.151 158.094 598.582 158.549 598.013 158.549H589.251C588.568 158.549 588.113 157.98 588.113 157.411V109.391C588.113 108.708 588.682 108.253 589.251 108.253H598.013C598.696 108.253 599.151 108.822 599.151 109.391V157.411ZM593.689 87.2013C596.875 86.7462 599.834 88.9082 600.289 92.0944C600.403 92.6633 600.403 93.2323 600.289 93.8013C600.061 97.4426 596.875 100.174 593.234 99.946C589.934 99.7184 587.317 97.1012 587.089 93.8013C586.634 90.6151 588.796 87.6565 591.982 87.2013C592.551 87.2013 593.12 87.2013 593.689 87.2013Z" fill="#00216E"/>
</svg>
