<svg width="99" height="35" viewBox="0 0 99 35" fill="none" xmlns="http://www.w3.org/2000/svg">
<g clip-path="url(#clip0_1837_6063)">
<path d="M84.3339 18.1572C84.9558 18.1388 85.6604 18.1572 86.2884 18.1572V11.243C81.4757 10.9244 77.4289 12.5357 74.3072 16.1598C70.4074 11.5585 65.7939 11.1909 62.3291 11.1909V18.1204C67.8556 18.1204 69.2709 19.9033 70.1348 22.4675C70.2573 22.832 70.2573 23.3068 70.1348 23.6714C69.0901 26.7532 65.8735 28.5117 62.3597 27.9082C62.3597 27.6968 62.3597 27.4701 62.3597 27.2434C62.3597 25.7729 62.3689 24.3055 62.3536 22.8351C62.2923 16.3375 57.3173 11.1265 50.8258 10.762C44.414 10.4005 38.8109 15.0968 38.0604 21.4596C37.3221 27.7366 41.6691 33.5725 47.9431 34.7213C49.386 35.0552 53.8678 34.9909 53.8678 34.9909V28.0093C53.8678 28.0093 51.7663 28.0307 50.5133 28.0031C46.1969 28.0031 44.8306 24.7375 44.8306 22.8535C44.8306 20.9694 46.1969 17.6609 49.9435 17.6609C53.6901 17.6609 55.4118 20.5497 55.4118 22.9699V34.9909H62.084C69.0258 34.9909 71.5624 32.8036 74.2827 30.0128C74.3807 30.0924 74.4941 30.1598 74.5768 30.2548C76.8866 32.9016 79.7847 34.4395 83.2831 34.8591C83.4424 34.8775 85.4337 34.9878 86.2761 34.9878V28.0062C85.5991 28.0062 85.0201 28.0154 84.4442 28.0062C81.7483 27.9511 79.3374 26.2325 78.4704 23.6928C78.3448 23.3283 78.3418 22.8565 78.4613 22.492C79.2884 19.9738 81.6687 18.2368 84.337 18.1602L84.3339 18.1572ZM14.5484 11.2123C9.5151 11.2429 6.5221 16.3314 8.9361 20.7519C10.0083 22.7156 11.102 24.6701 12.1864 26.6307C12.7164 27.5926 12.4744 27.9939 11.3562 27.9939C7.87308 27.9939 0.358424 27.9939 0 27.9939V34.9878H12.986C14.0061 34.9878 14.5208 34.8898 14.6341 34.8683C19.4009 33.9585 21.5514 29.3939 19.1987 25.1664C18.1571 23.2915 17.1155 21.4136 16.077 19.5357C15.5317 18.5493 15.7982 18.151 16.8613 18.151C17.9243 18.151 22.5103 18.151 22.5103 18.151V11.2093C22.5103 11.2093 16.9838 11.2001 14.5514 11.2154L14.5484 11.2123ZM31.0114 4.2889L24.0359 4.26746C24.0359 4.26746 23.9991 17.2596 24.0512 23.4141C24.0972 28.9988 28.0061 33.6246 33.4928 34.7335C35.144 35.0828 36.8411 34.9878 37.9624 34.9878V28.0062C37.1842 28.0062 36.544 28.0123 35.8486 28.0062C33.2783 27.9847 31.3116 26.257 31.0696 23.7235C30.9685 22.6819 31.0206 18.1327 31.0206 18.1327H37.9624V11.197H31.0114V4.2889Z" fill="#062332"/>
<path d="M86.2734 3.21651L98.1934 9.1443V7.94649L86.2734 2.0187V3.21651ZM86.2734 4.08653V5.28434L88.9233 6.60163L86.2734 7.91892V9.11673L91.3312 6.60163L86.2734 4.08653ZM86.2734 9.99594V11.1938L92.2135 8.24058L98.1934 11.2152V10.0174L92.2135 7.04277L86.2734 9.99594ZM92.2288 2.96531L86.2734 0.00294139V1.20075L92.2288 4.16312L98.1934 1.19769V-0.00012207L92.2288 2.96531ZM98.1934 7.12855V5.93073L95.4362 4.5583L98.1934 3.18587V1.98806L93.0284 4.5583L98.1934 7.12548V7.12855Z" fill="#B83CE8"/>
</g>
<defs>
<clipPath id="clip0_1837_6063">
<rect width="98.193" height="35" fill="white"/>
</clipPath>
</defs>
</svg>
