<svg width="83" height="48" viewBox="0 0 83 48" fill="none" xmlns="http://www.w3.org/2000/svg">
<path fill-rule="evenodd" clip-rule="evenodd" d="M40.8282 11.4776L35.3184 37.5917H28.6545L34.1666 11.4776H40.8282ZM68.8612 28.3388L72.3688 18.5336L74.3879 28.3388H68.8612ZM76.2963 37.5917H82.4589L77.0796 11.4776H71.3926C70.1134 11.4776 69.0349 12.2312 68.5562 13.3928L58.5584 37.5917H65.5533L66.9433 33.6902H75.4912L76.2963 37.5917ZM58.9047 29.0649C58.9345 22.1734 49.5051 21.793 49.57 18.7136C49.5907 17.7773 50.4702 16.7818 52.3962 16.5267C53.3494 16.4005 55.9824 16.3026 58.965 17.6948L60.1359 12.1577C58.5313 11.5674 56.4695 11 53.9018 11C47.3165 11 42.6805 14.55 42.6435 19.6317C42.5996 23.393 45.9518 25.4889 48.4775 26.7395C51.0722 28.0191 51.9426 28.84 51.9331 29.9845C51.9136 31.7375 49.8625 32.51 47.9449 32.5402C44.595 32.5933 42.6507 31.6221 41.1016 30.8902L39.8952 36.6128C41.4505 37.3374 44.3244 37.969 47.3047 38C54.3049 38 58.8829 34.4956 58.9047 29.0649ZM31.3073 11.4776L20.5117 37.5917H13.4687L8.15618 16.7508C7.8336 15.4677 7.55377 14.9967 6.57305 14.4572C4.97159 13.5751 2.32679 12.7483 0 12.2347L0.156901 11.4776H11.4954C12.9396 11.4776 14.2398 12.4518 14.5677 14.1398L17.3736 29.2515L24.3086 11.4776H31.3073Z" fill="#1434CB"/>
</svg>
