<svg width="160" height="48" viewBox="0 0 160 48" fill="none" xmlns="http://www.w3.org/2000/svg">
<path fill-rule="evenodd" clip-rule="evenodd" d="M31.3836 10.6223C32.0589 10.244 32.8142 10.0308 33.5876 10L33.6222 10.0058C35.2342 10.023 36.1036 11.117 36.1036 13.2587C36.1036 21.2962 27.0356 32.575 18.7333 32.575C16.6952 32.575 15.3652 31.8496 14.5304 30.8478C12.7497 31.9045 10.7327 32.4983 8.66354 32.575C5.26088 32.575 3.69485 30.5427 3.6603 27.7388C3.61424 23.4379 6.87872 18.3426 10.0971 14.7672C8.1592 15.8123 6.40554 15.5736 4.70847 15.3425C3.13339 15.1281 1.60705 14.9203 0.0273438 15.7517C1.58906 10.8635 4.3227 11.0323 7.86693 11.2512C9.84973 11.3736 12.0862 11.5117 14.5131 10.7888C14.6636 11.5186 13.7613 12.9175 12.6046 14.7109C10.7955 17.5157 8.36414 21.2854 8.36414 24.9694C8.36414 27.8539 10.0281 29.2933 13.3789 28.1418C12.3253 22.0676 17.9446 13.6272 23.2645 13.6272C25.1011 13.6272 25.8841 14.606 25.8841 16.1547C25.8841 19.1832 22.7348 24.3246 18.3994 28.0957C19.0285 28.6631 19.8562 28.959 20.7024 28.919C28.6995 28.919 34.1346 14.9802 29.7013 12.1763C30.1318 11.533 30.7082 11.0005 31.3836 10.6223ZM22.4815 16.5693C20.8694 16.5693 17.6855 21.1292 17.6164 25.4818L17.6222 25.4761C20.7542 22.6434 23.0572 18.6765 23.0572 17.1796C23.0572 16.8571 22.9478 16.5693 22.4815 16.5693Z" fill="#E62600"/>
<path fill-rule="evenodd" clip-rule="evenodd" d="M151.969 28.8765C153.359 27.1898 153.268 25.1433 153.185 23.2855C153.088 21.1164 153.003 19.2045 155.3 18.4232C155.202 17.3926 154.201 16.7823 152.934 16.7823C152.323 16.7989 151.723 16.9487 151.176 17.2211C150.629 17.4936 150.149 17.8823 149.767 18.3599C145.265 23.9676 140.601 28.2857 137.93 28.2857C137.049 28.2857 136.732 27.9 136.732 27.2206C136.732 25.1249 139.45 22.0389 141.551 19.9201C141.773 19.7066 141.91 19.4204 141.937 19.1141C141.937 18.4865 141.189 18.0662 140.268 18.0662C137.965 18.0662 133.197 21.5783 129.685 24.7852C130.091 24.0368 130.513 23.3376 130.898 22.7003C131.696 21.3766 132.334 20.32 132.334 19.6438C132.334 18.642 131.217 18.3081 129.916 18.3253C124.884 24.7852 118.429 29.5697 114.278 29.5697C113.865 29.5981 113.45 29.5349 113.064 29.3846C112.678 29.2343 112.33 29.0006 112.044 28.7003C117.313 26.6218 121.729 23.1443 121.729 20.565C121.729 18.9702 120.347 18.262 118.412 18.262C113.426 18.262 107.145 23.3689 106.845 28.493C102.044 30.1512 98.4799 29.8633 97.3802 28.7003C102.666 26.6218 107.064 23.1443 107.064 20.5822C107.064 18.9874 105.682 18.2793 103.748 18.2793C98.7447 18.2793 92.3942 23.461 92.1812 28.6427C89.7803 29.3509 87.0628 29.656 87.0628 27.756C87.0628 26.0134 88.547 24.4394 89.8758 23.0301C90.9529 21.8878 91.9279 20.8538 91.9279 19.9259C91.9434 19.6591 91.885 19.3932 91.759 19.1575C91.6331 18.9218 91.4444 18.7255 91.2139 18.5902C89.48 19.4363 87.5911 19.9183 85.6638 20.0065C86.0956 18.7168 85.6292 17.7035 84.3107 17.7035C82.359 17.7035 80.8563 19.8165 80.8563 21.538C80.8355 21.8522 80.8949 22.1665 81.0288 22.4515C81.1628 22.7365 81.3669 22.9828 81.622 23.1673C79.5525 25.8934 76.934 28.155 73.9358 29.8057C75.0132 27.497 75.9476 25.1243 76.7339 22.701C79.3017 21.2328 80.6029 18.2677 75.4327 18.2677C71.201 18.2677 66.5317 20.7147 63.6127 24.0252C59.7782 28.3433 55.1262 30.7615 54.3144 27.4797C60.613 22.8737 66.4799 16.4081 66.405 13.1724C66.405 12.0209 65.6738 11.2206 63.9696 11.2206C59.9682 11.2206 50.6353 20.018 49.835 27.8482C43.1506 31.3027 43.9164 25.8503 45.9487 22.9831C48.9138 21.515 50.9808 18.262 45.4306 18.262C37.3701 18.262 30.7778 25.4819 30.893 30.1051C30.9275 31.4754 31.6414 32.6038 33.1441 32.6038C34.8714 32.6038 37.6292 31.4523 40.5425 28.5448C39.9667 31.3314 40.6404 32.6038 43.0067 32.6038C44.9239 32.6038 47.3881 31.6711 49.9905 30.2203C50.4223 31.5272 51.5393 32.6038 53.7386 32.6038C56.0416 32.6038 58.857 30.8766 61.0736 28.6082C60.955 29.0984 60.8932 29.6007 60.8894 30.1051C60.8894 31.7172 61.7875 32.6038 63.1233 32.6038C64.626 32.6038 66.8714 31.4523 69.3413 29.1896C68.9496 30.2452 68.4979 31.2774 67.9883 32.2814C62.6569 34.1008 57.1701 36.0698 57.1701 39.6279C57.1701 41.1422 58.4713 42.0288 60.1064 42.0288C64.0905 42.0288 68.9901 37.4228 72.0589 32.9435C76.6385 30.8885 80.6323 27.722 83.6774 23.7316C84.6125 23.7391 85.5442 23.619 86.4468 23.3746C83.568 26.3743 82.1978 28.303 82.1978 30.1915C82.1978 31.7517 83.4299 32.6096 85.5832 32.6096C87.4831 32.6096 89.8494 31.9647 92.6648 30.773C93.4824 31.982 95.1808 32.6096 97.3802 32.6096C100.662 32.6096 104.289 31.533 107.116 30.4045C107.732 31.6942 109.235 32.6096 111.647 32.6096C116.53 32.6096 120.963 29.61 124.699 26.3915C123.018 28.873 120.496 32.6096 124.031 32.6096C124.698 32.603 125.36 32.5062 126.001 32.3217C128.125 28.4913 131.252 25.311 135.046 23.1213C132.38 26.3282 131.263 28.7751 131.263 30.3584C131.263 31.8266 132.213 32.5808 133.744 32.5808C138.431 32.5808 143.947 27.923 148.679 22.5916C148.735 23.0471 148.842 23.5105 148.95 23.9766C149.325 25.5903 149.707 27.2377 147.965 28.7118C144.563 28.6312 142.663 29.5639 142.68 31.1127C142.68 32.0626 143.498 32.5808 144.666 32.5808C145.852 32.5506 147.017 32.2638 148.08 31.7402C150.068 32.3954 152.138 32.7638 154.229 32.8341C157.58 32.8341 159.929 31.2048 159.987 28.516C158.235 29.4159 155.506 29.1807 152.715 28.9401C152.467 28.9187 152.218 28.8972 151.969 28.8765ZM62.049 14.7267C61.9749 14.7067 61.8971 14.7048 61.8221 14.7211L61.8451 14.7154C59.9797 14.7154 55.4658 21.5495 54.4468 24.9637C58.4309 21.8431 62.3978 16.8629 62.3978 15.2508C62.4079 15.1747 62.3995 15.0974 62.3734 15.0252C62.3473 14.9531 62.3041 14.8883 62.2477 14.8363C62.1912 14.7844 62.123 14.7468 62.049 14.7267ZM42.5058 21.181C39.0225 21.181 34.6699 24.3879 34.6699 27.094C34.6699 30.0591 40.2431 27.9633 44.4576 21.5495C43.8401 21.291 43.175 21.1654 42.5058 21.181ZM60.2215 39.438C60.2215 39.818 60.4748 40.0137 60.8721 40.0137L60.9009 40.031C62.3748 40.031 64.672 37.8086 66.6584 34.6823C61.989 36.2944 60.2215 38.5686 60.2215 39.438ZM72.5022 21.2156C69.0995 21.2156 64.6835 24.3073 64.6835 27.1112V27.117C64.6835 30.2087 70.441 27.7445 74.4712 21.5725C73.8434 21.3299 73.1752 21.2088 72.5022 21.2156ZM103.172 21.5898C103.172 21.0889 102.838 20.8816 102.337 20.8816C100.489 20.8816 96.7872 24.5031 96.7872 26.8579C100.293 25.217 103.172 22.8967 103.172 21.5898ZM116.99 20.8644C115.142 20.8644 111.457 24.5031 111.457 26.8579C114.992 25.1997 117.825 22.8795 117.825 21.5725C117.825 21.0716 117.508 20.8644 116.99 20.8644Z" fill="#E62600"/>
</svg>
