<svg width="141" height="48" viewBox="0 0 141 48" fill="none" xmlns="http://www.w3.org/2000/svg">
<g clip-path="url(#clip0_805_5179)">
<path fill-rule="evenodd" clip-rule="evenodd" d="M47.1635 33.2628H35.008C34.6028 33.262 34.296 32.9537 34.2953 32.5464V31.0552C34.2865 30.6892 34.4037 30.5265 34.6273 30.2477L44.3031 18.9407H34.8227C34.4168 18.9399 34.1101 18.6316 34.1094 18.2243V17.1676C34.1101 16.7604 34.4168 16.452 34.8227 16.4513H47.1017C47.5076 16.452 47.8143 16.7604 47.8143 17.1676V18.6897C47.8205 18.9653 47.725 19.1986 47.5068 19.4436L37.8077 30.7734H47.1635C47.5687 30.7741 47.8754 31.0825 47.8762 31.4898V32.5457C47.8754 32.9537 47.5687 33.262 47.1635 33.2628ZM71.1258 33.5737H71.1269C71.9984 33.556 72.6419 33.3831 72.8944 33.0987C72.9834 32.9979 73.0251 32.882 73.0137 32.7668C73.0079 32.6719 73.0079 32.6719 72.7685 31.5468L72.7634 31.5203C72.7118 31.2263 72.502 31.0928 72.33 31.0928L72.3066 31.0946C72.3066 31.0946 72.0881 31.0839 71.8725 31.0839H71.8707C71.2499 31.0641 70.7356 30.9736 70.725 30.0607V10.9634C70.7243 10.6455 70.5339 10.318 70.1672 10.3103L70.0589 10.311L68.362 10.7474C68.0728 10.7772 67.7716 10.9843 67.7848 11.3681V30.1229C67.7873 32.3444 68.9743 33.5693 71.124 33.5737H71.1258ZM105.436 33.2628H103.922C103.516 33.262 103.21 32.9537 103.209 32.5464V21.0511C103.182 19.1066 102.603 18.5657 100.52 18.537C98.1638 18.537 95.7781 19.1301 94.9922 19.3461V32.5457C94.9911 32.9607 94.7049 33.262 94.3099 33.2628H92.7642C92.3583 33.262 92.0519 32.9537 92.0519 32.5464V19.6533C92.0293 18.4598 92.1402 17.6345 93.829 17.0849C95.4461 16.5241 98.54 16.0484 100.584 16.0466C104.48 16.0517 106.144 17.4649 106.149 20.7707V32.5457C106.148 32.9537 105.842 33.262 105.436 33.2628ZM120.658 19.0073C120.092 18.8627 118.514 18.5054 116.736 18.5054C113.472 18.5359 112.102 19.4271 112.068 24.8727C112.106 30.8533 113.877 31.1763 116.765 31.2079L116.768 31.3334V31.2079C118.564 31.2079 120.106 30.8312 120.656 30.6796L120.658 19.0073ZM121.454 33.0391L121.274 33.0847C120.309 33.3305 118.99 33.6668 116.676 33.6668H116.671C110.294 33.6568 109.042 30.4239 109.036 24.8414C109.044 18.4395 111.062 16.0554 116.485 16.0466C118.398 16.0466 119.716 16.2957 120.662 16.5249L120.656 11.3688C120.648 11.1422 120.751 10.8456 121.282 10.7437L122.976 10.3103H123.068C123.458 10.3199 123.596 10.6683 123.597 10.9634V30.3407C123.623 31.5633 123.48 32.6134 121.454 33.0391ZM133.819 31.177C129.639 31.1586 129.43 29.0019 129.401 24.8738C129.43 20.7218 129.639 18.5543 133.819 18.537C137.999 18.5543 138.208 20.7218 138.237 24.8712C138.208 29.0019 137.998 31.1586 133.819 31.177ZM133.819 16.0466C126.929 16.0561 126.345 20.6077 126.338 24.8727C126.345 29.1222 126.929 33.6568 133.819 33.6668C140.705 33.6568 141.291 29.1347 141.301 24.8719C141.294 20.412 140.71 16.0561 133.819 16.0466ZM86.0613 24.9624C85.3713 24.9702 82.0241 25.0246 80.6918 25.3109L80.5867 25.3337C79.0882 25.6707 77.9049 25.936 77.8902 28.1663C77.8928 30.971 80.0289 31.2226 82.2162 31.2396L82.2181 31.365V31.2396C83.5874 31.2396 84.8798 31.0446 86.0613 30.6583V24.9624ZM89.0173 20.8649V29.7815C89.0469 31.9979 88.4803 32.7061 86.2604 33.2241C85.2882 33.4269 83.7986 33.6668 82.1848 33.6668C79.8071 33.6612 74.8592 33.6517 74.8573 28.2892C74.8417 24.0662 77.3654 23.3322 80.4158 22.8609C82.4135 22.5389 84.4457 22.4904 85.479 22.4904C85.7582 22.4904 85.939 22.4929 86.0463 22.4948V20.9885C86.0368 19.9826 86.0305 19.3733 85.0954 19.0179C84.5181 18.7729 83.658 18.6607 82.378 18.6607C80.2679 18.6607 78.3781 19.1357 77.1278 19.4506L76.6502 19.5632C76.5986 19.5761 76.5436 19.5893 76.4719 19.593H76.4712C76.2512 19.593 76.0093 19.462 75.9199 19.1699L75.913 19.1426L75.6312 17.7081L75.6301 17.6338C75.6345 17.2957 75.8782 17.0974 76.1063 17.0245C77.1139 16.647 79.7782 16.0484 82.6485 16.0466C84.7462 16.0484 86.2604 16.3222 87.2794 16.8858C89.0242 17.8126 89.0198 19.5051 89.0173 20.8649ZM61.3289 30.6583C60.1474 31.0446 58.855 31.2396 57.4857 31.2396V31.365L57.4838 31.2396C55.2972 31.2226 53.1604 30.971 53.1578 28.1663C53.1717 25.936 54.3558 25.6707 55.8543 25.3337L55.9583 25.3109C57.2917 25.0246 60.6389 24.9702 61.3289 24.9624V30.6583ZM62.547 16.8858C61.528 16.3222 60.0127 16.0484 57.9154 16.0466C55.0458 16.0484 52.3804 16.647 51.3728 17.0245C51.1447 17.0974 50.9013 17.2957 50.8977 17.6338V17.7081L51.1806 19.1426L51.1875 19.1699C51.2758 19.462 51.5188 19.593 51.7388 19.593H51.7395C51.8101 19.5893 51.8661 19.5761 51.9178 19.5632L52.3943 19.4506C53.645 19.1357 55.5348 18.6607 57.6445 18.6607C58.9249 18.6607 59.785 18.7729 60.3622 19.0179C61.2981 19.3733 61.3044 19.9826 61.3139 20.9885V22.4948C61.2066 22.4929 61.0258 22.4904 60.7462 22.4904C59.7133 22.4904 57.6811 22.5389 55.6823 22.8609C52.633 23.3322 50.1093 24.0662 50.1249 28.2892C50.1257 33.6517 55.0736 33.6612 57.4516 33.6668C59.0661 33.6668 60.5551 33.4269 61.528 33.2241C63.7468 32.7061 64.3134 31.9979 64.2849 29.7815V20.8649C64.2874 19.5051 64.2918 17.8126 62.547 16.8858Z" fill="#696969"/>
<path fill-rule="evenodd" clip-rule="evenodd" d="M5.62977 38C4.59942 38 4.0266 37.7575 3.72097 37.5795C3.29748 37.3348 2.51603 36.7097 1.81546 34.8565C0.692512 31.8895 0.0296477 28.2662 0 24.0079V23.9921C0.0296477 19.733 0.692512 16.1105 1.81546 13.1424C2.51603 11.2903 3.29748 10.6645 3.72097 10.4198C4.0266 10.2414 4.59869 10 5.62904 10C6.02214 10 6.48223 10.0353 7.01918 10.1222C10.1377 10.6295 13.5907 11.8635 17.274 13.9677L17.2879 13.9747C20.9415 16.1296 23.7317 18.5181 25.728 20.9795C26.9732 22.5156 27.1207 23.5086 27.1207 24.0002C27.1207 24.4906 26.9732 25.4844 25.728 27.0197C23.7317 29.4811 20.9415 31.8704 17.2879 34.0253L17.274 34.0334C13.5907 36.1365 10.1377 37.3705 7.01918 37.8778C6.48223 37.965 6.02287 38 5.62977 38Z" fill="#FF6900"/>
</g>
<defs>
<clipPath id="clip0_805_5179">
<rect width="141" height="48" fill="white"/>
</clipPath>
</defs>
</svg>
