<svg width="143" height="48" viewBox="0 0 143 48" fill="none" xmlns="http://www.w3.org/2000/svg">
<path d="M93.7511 33.3193C95.6248 33.3644 97.4307 32.6646 98.7852 31.3553L101.268 34.0416C99.6205 35.7347 97.3404 36.9989 93.7963 36.9989C87.7012 36.9989 83.7733 32.9581 83.7733 27.4951C83.7733 22.0772 87.9044 17.9913 93.2319 17.9913C99.2818 17.9913 102.691 22.5965 102.397 28.9624H88.1301C88.6268 31.6262 90.5004 33.3193 93.7511 33.3193ZM98.0854 25.9375C97.7016 23.4769 96.2343 21.6483 93.2771 21.6483C90.523 21.6483 88.6268 23.206 88.1301 25.9375H98.0854ZM0 33.1161L10.9937 21.9418H0.248317V18.4428H16.0729V22.0321L5.1018 33.1838H16.2309V36.6828H0V33.1161ZM28.5565 33.3193C30.4302 33.3644 32.2361 32.6646 33.5906 31.3553L36.0738 34.0416C34.4258 35.7347 32.1458 36.9989 28.6017 36.9989C22.5292 36.9989 18.5787 32.9581 18.5787 27.4951C18.5787 22.0772 22.7098 17.9913 28.0373 17.9913C34.0872 17.9913 37.4959 22.5965 37.2025 28.9624H22.9355C23.4547 31.6262 25.3058 33.3193 28.5565 33.3193ZM32.9134 25.9375C32.5296 23.4769 31.0623 21.6483 28.105 21.6483C25.351 21.6483 23.4547 23.206 22.9581 25.9375H32.9134ZM60.9506 27.5177C60.9506 21.6709 65.3075 18.0364 70.1158 18.0364C72.5313 18.0364 74.8339 19.0974 76.1883 20.7679V10H80.0711V36.6377H76.1883V34.1094C74.7887 35.8927 72.4861 36.9989 70.0707 36.9989C65.4204 36.9989 60.9506 33.3192 60.9506 27.5177ZM76.4141 27.4725C76.4141 24.2218 73.9535 21.558 70.635 21.558C67.3843 21.558 64.856 24.1541 64.856 27.4725C64.856 30.7909 67.3843 33.4095 70.635 33.4095C73.9535 33.4321 76.4141 30.7684 76.4141 27.4725ZM104.925 32.7549L108.447 30.9264C109.395 32.6194 111.201 33.6353 113.142 33.5901C115.332 33.5901 116.483 32.4614 116.483 31.1747C116.483 29.7074 114.361 29.3913 112.059 28.9173C108.944 28.2626 105.716 27.2468 105.716 23.4769C105.716 20.5873 108.47 17.9236 112.781 17.9687C116.19 17.9687 118.718 19.3232 120.141 21.5129L116.867 23.3188C116.032 22.0321 114.587 21.242 112.759 21.242C110.659 21.242 109.598 22.2578 109.598 23.4317C109.598 24.741 111.291 25.1022 113.933 25.6891C116.935 26.3438 120.344 27.3371 120.344 31.1295C120.344 33.6579 118.154 37.044 112.939 36.9989C109.147 36.9989 106.46 35.4638 104.925 32.7549V32.7549ZM130.886 28.5335L127.816 31.8971V36.6377H123.933V10H127.816V27.4274L136.055 18.3976H140.773L133.64 26.2083L140.977 36.6377H136.575L130.886 28.5335ZM49.212 18.0139C44.5843 18.0139 40.7241 21.0163 40.7241 25.96V36.6377H44.6971V26.4792C44.6971 23.4769 46.4128 21.6935 49.3475 21.6935C52.2821 21.6935 53.7494 23.4769 53.7494 26.4792V36.6377H57.6999V25.9826C57.6999 21.0163 53.8397 18.0139 49.212 18.0139Z" fill="#17494D"/>
<path d="M139.693 17.0283C140.235 16.4865 141.138 16.4865 141.679 17.0283C142.221 17.5701 142.221 18.473 141.679 19.0148C141.138 19.5566 140.235 19.5566 139.693 19.0148C139.128 18.473 139.128 17.5926 139.693 17.0283ZM141.431 18.7891C141.837 18.3602 141.815 17.6829 141.408 17.2766C140.98 16.8703 140.302 16.8928 139.896 17.2992C139.49 17.7281 139.49 18.3827 139.919 18.7891C140.347 19.218 141.025 19.1954 141.431 18.7891ZM140.799 17.1186L141.228 17.5475C141.499 17.8184 141.499 18.1344 141.318 18.315C141.183 18.473 140.957 18.5182 140.776 18.4279L140.641 18.9697L140.347 18.6762L140.551 17.9313L140.664 18.0441C140.731 18.1344 140.889 18.157 140.98 18.0893L141.002 18.0667C141.092 17.9764 141.07 17.8184 140.98 17.7507L140.957 17.7281L140.799 17.5701L140.009 18.3602L139.761 18.1119L140.799 17.1186V17.1186Z" fill="#17494D"/>
</svg>
