<svg width="1679" height="944" viewBox="0 0 1679 944" fill="none" xmlns="http://www.w3.org/2000/svg">
<g clip-path="url(#clip0_404_424)">
<circle cx="1088" cy="398" r="9" fill="#ED26B7"/>
<circle cx="1330" cy="528" r="5" fill="#ED26B7"/>
<circle cx="1097" cy="118" r="5" fill="#ED26B7"/>
<circle cx="1330" cy="9" r="5" fill="#ED26B7"/>
<path d="M696.347 790.98C708.239 793.806 720.042 796.344 731.706 799.58C747.44 804.319 762.26 810.936 775.841 819.287C788.932 827.123 801.567 835.778 814.112 844.146C841.097 862.406 869.68 877.799 900.656 884.867C918.721 889.114 937.593 891.046 956.806 890.615C969.585 890.06 982.426 888.562 995.214 886.133C1004.68 884.107 1014.07 881.46 1023.32 878.214C1030.8 875.979 1038.5 873.335 1045.8 870.525C1056.28 866.493 1066.58 861.886 1077.28 857.445C1088.62 852.759 1099.78 847.498 1111.7 843.553C1130.06 837.452 1148.87 832.788 1168.15 833.091C1184.04 832.772 1199.14 836.652 1211.79 844.301C1221.97 850.896 1229.58 860.353 1233.75 871.575C1238.18 882.423 1242.07 893.801 1246.5 904.649C1251.28 917.138 1258.19 928.594 1266.98 938.607C1271.25 943.363 1276.03 947.664 1281.27 951.454C1294.75 960.882 1311.28 966.125 1328.96 966.574C1342.01 967.332 1355.39 965.886 1368.5 962.301C1375.61 960.578 1382.66 958.405 1389.58 955.797C1398.06 952.211 1405.96 947.885 1413.94 943.846C1421.29 940.051 1428.55 935.968 1436.4 932.626C1447.33 927.775 1458.67 923.09 1469.78 918.813C1475.77 916.894 1481.84 915.417 1487.95 914.394C1492.89 913.137 1498.15 911.757 1503.09 910.499C1509.07 909.163 1515.37 907.704 1521.26 906.08L1530.1 903.644C1534.95 902.099 1539.71 900.267 1544.65 899.009C1566.32 893.246 1587.41 884.485 1608.27 876.134C1617.41 872.238 1626.39 867.923 1635.17 863.205C1640.08 860.675 1645.06 858.432 1649.88 855.615C1656.59 852.065 1663.63 848.393 1670.16 844.267C1683.66 835.874 1696.41 826.33 1708.23 815.776C1724.81 800.907 1738.47 783.392 1748.39 764.269C1756.06 749.253 1761.01 733.4 1763.01 717.446C1764.83 705.321 1763.55 693.334 1759.28 682.511C1755.53 672.83 1749.05 664.567 1740.47 658.53C1722.24 645.59 1702.16 640.442 1681.21 638.205C1665.96 636.552 1650.34 636.519 1634.63 638.107C1623.39 639.534 1612.17 641.597 1601.02 644.286C1587.79 646.918 1574.76 651.071 1562.21 656.647C1555.18 659.735 1548.31 663.237 1541.66 667.132C1533.59 671.672 1525.75 676.623 1518.18 681.96C1501.05 694.638 1485.77 709.532 1472.89 726.106C1462.69 739.044 1452.99 752.434 1443.2 765.538C1435.64 775.529 1427.99 785.232 1417.91 791.686C1402.88 801.655 1387.11 803.537 1370.31 795.197C1364.27 792.305 1359.11 788.151 1355.16 783.005C1351.21 777.763 1348.59 771.645 1347.46 765.049C1345.75 751.453 1346.67 737.365 1350.19 723.443C1355.61 696.251 1361.75 669.102 1364.42 641.04C1366.48 618.167 1366.1 595.451 1363.29 573.24C1361.18 556.706 1357.26 540.635 1351.6 525.273C1346.68 512.238 1340.65 499.708 1333.58 487.792C1323.56 471.65 1311.78 456.675 1298.39 443.079C1288.02 432.583 1277.43 422.497 1266.61 412.821C1247.68 395.324 1229.39 377.581 1212.23 357.791C1198.82 342.033 1185.54 325.579 1171.58 310.353C1158.65 296.127 1143.99 283.429 1127.84 272.468C1107 257.961 1084.82 247.184 1063.15 234.603C1050.92 227.9 1040.03 219.408 1030.81 209.391C1024.16 201.908 1019.35 193.032 1016.67 183.29C1013.72 171.455 1013.44 158.859 1015.85 146.27C1019.07 129.639 1024.08 113.15 1030.79 97.0684C1034.59 87.5587 1038.71 77.9272 1042.92 68.5829C1052.84 46.7388 1062.85 25.1821 1072.87 3.62554C1078.44 -8.17698 1083.93 -20.2666 1089.19 -31.947C1099.71 -55.3077 1110.23 -78.6687 1120.35 -102.195C1132.02 -129.861 1142.47 -158.024 1154.23 -185.402C1164.47 -209.431 1178.03 -232.413 1194.52 -253.694C1209.21 -272.575 1225.97 -290.043 1244.46 -305.746C1253.73 -313.881 1264 -320.87 1274.98 -326.503C1281.32 -329.959 1287.85 -333.011 1294.53 -335.638C1305.06 -339.273 1315.91 -341.387 1326.7 -341.904C1353.64 -343.26 1379.37 -337.069 1404.35 -326.406C1420.81 -319.783 1435.53 -310.309 1447.86 -298.412C1456.47 -289.765 1462.96 -279.355 1466.96 -267.782C1471.53 -253.241 1473.44 -237.779 1472.63 -222.007C1471.95 -202.434 1470.77 -183.313 1469.37 -163.783C1467.68 -140.601 1465.35 -117.176 1465.83 -93.8644C1466.01 -82.5392 1467.21 -71.3734 1469.44 -60.4893C1473.67 -37.6593 1484.45 -18.9544 1498.54 -2.16889C1515.23 17.552 1533.62 35.8645 1553.56 52.6163C1567.44 64.7903 1582.3 75.9541 1598.04 86.0311C1618.7 99.4629 1641.55 109.938 1665.98 117.175C1676.19 120.325 1686.78 122.367 1697.54 124.985C1699.04 125.428 1700.44 126.081 1701.69 126.926M673.511 717.377C682.824 719.908 691.731 722.274 700.727 724.927C720.345 730.895 739.875 736.575 759.354 743.24C777.647 749.551 794.744 758.107 810.252 768.712C825.505 778.935 840.53 789.567 856.011 799.38C879.208 814.592 904.191 825.255 931.111 828.412C945.584 830.187 960.555 829.747 975.479 827.108C986.348 825.372 997.123 822.414 1007.57 818.298C1011.38 816.832 1015.14 816.35 1018.86 814.597C1029.24 810.277 1039.54 805.671 1050.16 800.942C1058.23 797.19 1066.62 793.316 1074.79 789.852C1086.99 784.512 1099.28 779.46 1111.98 774.573C1120.64 771.562 1129.57 769.414 1138.4 766.978C1145.97 765.03 1153.45 762.795 1160.7 760.97C1167.32 759.389 1174.02 758.096 1180.32 756.637C1185.26 755.38 1190.38 754.697 1195.23 753.152C1205.46 750.393 1215.58 747.038 1225.52 743.106C1254.77 730.881 1278.54 710.145 1294.53 679.209C1304.42 660.094 1310.56 639.812 1312.6 619.469C1314.23 605.269 1313.58 591.193 1310.66 577.727C1309.49 570.704 1307.83 563.818 1305.69 557.111C1300.12 541.279 1291.98 526.623 1281.54 513.621C1265.65 493.342 1245.76 478.467 1225.86 463.593C1205.97 448.719 1185.03 433.925 1168.51 413.89C1161.18 405.127 1153.98 395.667 1147.19 386.372C1134.19 368.522 1121.82 350.429 1106.96 334.585C1096.18 322.859 1083.9 312.473 1070.34 303.615C1056.17 294.586 1041.14 286.21 1026.96 277.181C1013.29 268.604 999.701 260.315 987.989 247.763C978.917 238.296 972.199 226.936 968.237 214.36C964.275 201.785 963.149 188.251 964.926 174.564C966.495 162.99 969.093 151.438 972.691 140.033C975.798 129.39 979.658 118.87 984.244 108.55C990.467 94.2457 997.275 80.6823 1003.9 66.5437C1006.24 61.4618 1008.66 56.6674 1010.67 51.7077C1024.03 21.461 1037.8 -8.62042 1050.34 -39.1979C1060.74 -63.9434 1069.43 -89.1184 1076.36 -114.55C1084.05 -143.582 1091.34 -172.779 1099.12 -201.524C1106.3 -228.211 1119.15 -253.883 1136.86 -276.882C1150.62 -294.406 1165.77 -310.858 1180.69 -326.901C1198.25 -345.891 1215.49 -364.758 1233.23 -383.173C1240.34 -390.696 1248.47 -397.299 1257.36 -402.759C1270.58 -410.802 1285.79 -414.493 1300.32 -413.178C1320.48 -411.704 1340.1 -408.024 1358.8 -402.211C1385.7 -394.539 1412.6 -386.867 1439.36 -378.498C1455.9 -373.278 1472.31 -367.361 1488.57 -360.746C1503.06 -354.941 1515.78 -346.264 1525.98 -335.232C1531.92 -328.688 1536.55 -321.118 1539.68 -312.826C1545.73 -296.628 1547.6 -278.856 1545.15 -260.855C1542.68 -236.731 1539.81 -212.774 1537.02 -188.528C1534.46 -164.695 1534.55 -140.994 1537.29 -117.818C1539.59 -101.234 1543.86 -85.1755 1550.01 -69.9296C1557.12 -51.7673 1567.1 -35.0138 1579.66 -20.1849C1590.9 -6.25991 1603.74 6.37197 1618 17.5203C1635.06 30.7605 1654.19 41.5795 1674.89 49.6994C1676.35 50.4251 1677.69 51.3099 1678.91 52.3379M688.185 763.54C712.844 767.837 736.571 774.789 758.932 784.269C774.199 791.03 788.614 799.162 802.004 808.569C815.135 817.677 828.722 825.967 841.763 834.788C858.432 845.755 876.874 854.353 896.599 860.354C917.126 866.781 939.338 869.065 961.934 867.072C972.578 865.873 983.221 864.673 993.686 862.899C1000.71 861.483 1007.38 858.918 1014.22 856.927C1019.39 855.26 1024.96 853.758 1030.04 851.803C1037.34 848.993 1044.56 845.896 1051.68 842.511C1059.21 839.291 1066.96 835.661 1074.32 831.867C1088.82 824.623 1103.74 818.344 1118.95 813.08C1127.29 810.191 1135.9 808.165 1144.42 805.851C1165.04 800.167 1186.28 798.753 1207.25 796.476C1217.98 795.564 1228.62 794.364 1239.41 792.467C1256.68 789.763 1273.03 780.933 1285.06 767.816C1296.81 754.414 1306.73 739.763 1314.55 724.28C1325.98 702.735 1334.28 680.138 1339.22 657.173C1345.94 629.575 1347.17 601.682 1342.86 574.983C1341.58 567.429 1340.3 559.873 1338.3 552.275C1336.43 544.526 1334.08 536.943 1331.25 529.56C1326.75 519.605 1321.63 509.971 1315.9 500.706C1304.39 482.449 1290.11 466.076 1273.44 452.031L1226.91 412.004C1210.73 397.769 1196.01 382.117 1182.9 365.212C1170.71 349.95 1158.33 334.114 1145.68 319.672C1132.32 304.412 1116.63 291.185 1099.01 280.342C1083.71 271.104 1068.18 262.275 1052.96 253.324C1041.21 246.844 1030.21 239.342 1020.07 230.902C1008.42 220.842 1000.18 207.7 996.161 192.788C994.179 185.067 993.575 176.931 994.371 168.694C995.422 151.128 999.686 133.478 1006.97 116.53C1011.96 103.987 1016.64 91.5659 1022.13 79.4759C1030.91 59.6804 1040.51 40.2156 1049.7 20.5854C1052.26 15.0939 1055.05 9.19284 1057.52 3.41375C1061.72 -5.93053 1065.93 -15.2747 1069.82 -24.4968C1075.91 -38.1035 1082.31 -51.833 1087.9 -65.8926C1096.09 -86.4285 1103.8 -107.417 1111.59 -128.119C1117.36 -143.86 1122.73 -159.767 1128.92 -175.343C1133.82 -188.174 1138.72 -201.004 1144.44 -213.504C1152.63 -231.157 1163.03 -248.033 1175.41 -263.726C1183.83 -274.371 1192.35 -284.728 1201.67 -294.755C1218.35 -313.508 1237.2 -330.493 1257.77 -345.312C1269.64 -353.565 1282.72 -359.906 1296.38 -364.034C1310.95 -367.984 1325.84 -369.113 1340.12 -367.351C1359.86 -365.39 1379.06 -361.454 1397.42 -355.608C1413.05 -350.596 1428.27 -344.742 1443.01 -338.072C1455.44 -332.404 1466.79 -325.083 1476.77 -316.303C1486.27 -307.935 1493.14 -297.205 1496.77 -285.055C1501.59 -269.3 1503.2 -252.468 1501.52 -235.384C1500.53 -217.946 1498.82 -200.551 1497.43 -183.278C1495.34 -162.063 1494.55 -140.908 1495.06 -119.921C1495.42 -105.801 1497 -91.8795 1499.8 -78.2938C1502.58 -66.0688 1506.5 -54.2237 1511.49 -42.8842C1521.57 -20.6934 1536.11 -2.47033 1551.74 14.6891C1568.46 33.148 1587.49 49.5649 1608.5 63.6525C1627 76.1393 1647.51 85.9994 1669.48 92.9712C1676.21 95.2073 1683.18 97.0334 1690.23 99.1473C1691.16 99.5874 1692.04 100.112 1692.85 100.715M679.985 737.091C699.336 742.196 718.369 747.423 737.809 752.816C760.372 759.498 781.514 769.11 800.689 781.401C814.772 790.143 828.259 800.402 842.114 809.554C863.188 823.651 884.908 835.248 908.782 841.187C938.708 848.468 971.342 847.083 1002.78 837.198C1013.97 833.21 1024.95 829.631 1035.97 825.067C1044.22 821.891 1051.89 817.974 1059.96 814.222C1067.4 810.715 1074.44 807.042 1082.06 804.11C1095.21 798.404 1108.45 792.985 1121.47 787.976C1129.13 785.407 1136.9 783.278 1144.72 781.602C1153.24 779.288 1161.85 777.262 1170.46 775.236C1177.8 773.698 1185.55 772.326 1192.8 770.5C1200.05 768.675 1207.48 767.425 1214.64 765.312C1222.76 762.833 1231.1 759.944 1239.04 756.89C1253.88 750.758 1267.34 741.374 1278.18 729.592C1293.83 713.593 1305.42 693.682 1313.99 672.039C1322.37 650.548 1326.66 628.274 1326.65 606.334C1326.65 593.486 1325.45 580.808 1323.07 568.445C1317.89 543.98 1307.27 521.443 1291.87 502.239C1276.66 482.988 1258.62 468.366 1240.26 453.865C1226.1 442.579 1211.94 431.292 1198.32 419.473C1184.9 407.102 1172.91 393.395 1162.52 378.534C1150.29 362 1138.69 345.222 1124.81 330.284C1112.08 316.153 1097.38 303.763 1081.03 293.383C1069.16 286.043 1057.06 279.113 1044.87 271.895C1030.88 263.44 1016.66 255.396 1003.94 244.195C994.411 235.937 987.035 225.682 982.269 214.064C977.503 202.445 975.45 189.71 976.234 176.646C977.449 160.188 981.185 143.679 987.326 127.638C991.127 118.128 994.115 108.288 998.323 98.9433C1006.65 79.9672 1015.79 61.3224 1024.61 42.7992L1032.07 26.7339C1044.74 -2.28368 1057.59 -30.7262 1069.45 -60.0745C1081.51 -90.193 1091.85 -120.715 1100.43 -151.498C1107.84 -176.879 1115.33 -201.972 1126.08 -225.743C1133.54 -242.077 1143 -257.723 1154.27 -272.32C1161.38 -281.492 1168.98 -290.21 1176.58 -298.929C1193.6 -318.317 1211.69 -336.885 1230.75 -354.539C1240.16 -363.423 1250.41 -371.466 1261.32 -378.538C1270.03 -383.71 1279.41 -387.54 1289.08 -389.864C1313.46 -396.03 1337.53 -391.772 1361.31 -386.12C1379.26 -382.086 1396.76 -377.233 1414.11 -371.683C1433.1 -365.47 1452.17 -358.97 1470.65 -350.954C1484.24 -345.465 1496.26 -337.422 1506.07 -327.252C1511.85 -321.292 1516.51 -314.399 1519.88 -306.815C1527.18 -291.281 1528.19 -274.288 1527.11 -257.137C1525.33 -234.243 1522.83 -211.391 1520.64 -188.663C1518.28 -166.231 1517.84 -143.888 1519.33 -121.856C1520.54 -109.344 1522.59 -97.017 1525.46 -84.944C1530.87 -63.2704 1540.04 -43.0037 1552.61 -24.9064C1569.56 0.0128322 1591.02 21.6391 1616.18 39.1383C1635.71 52.9077 1657.5 63.799 1680.95 71.5049C1681.76 71.8356 1682.75 72.7416 1683.57 73.0723M914.078 -641.106C913.511 -636.06 912.627 -630.892 912.06 -625.845C911.045 -611.936 910.348 -598.149 909.333 -584.24C907.759 -563.264 908.269 -542.447 910.855 -522.062C912.34 -510.403 914.46 -498.988 916.897 -487.696C922.336 -459.855 932.943 -433.682 940.375 -406.287C948.343 -377.167 949.477 -348.314 939.927 -319.533C934.279 -302.232 926.102 -286.21 914.048 -273.524C908.775 -267.521 902.327 -262.514 895.148 -258.847C888.38 -255.546 881.44 -252.659 874.376 -250.208C866.115 -247.75 857.724 -246.03 849.319 -245.071C827.804 -242.263 806.11 -240.029 784.595 -237.22C775.396 -235.462 766.243 -233.228 757.178 -230.53C752.986 -229.717 748.847 -228.449 744.847 -226.75C730.602 -219.98 716.624 -212.347 706.781 -198.259C701.839 -191.237 698.661 -183.38 697.531 -175.387C696.853 -169.977 697.444 -164.646 699.261 -159.778C701.078 -154.911 704.076 -150.63 708.038 -147.245C716.138 -139.926 726.592 -135.239 738.169 -133.735C756.098 -130.694 774.927 -131.056 793.626 -134.802C804.502 -136.721 815.317 -139.378 825.984 -142.75C840.854 -147.507 855.456 -153.127 870.058 -158.747C877.994 -161.801 885.573 -166.005 893.42 -169.347C899.359 -172.276 905.415 -174.929 911.564 -177.296C928.339 -182.786 945.37 -185.157 962.538 -177.924C977.584 -171.806 988.532 -160.57 995.471 -143.928C1001.96 -127.063 1004.52 -108.66 1003.01 -89.8585C1001.8 -63.9668 995.574 -39.3622 987.901 -14.8439C979.949 11.0688 968.745 35.6587 958.264 60.2917C948.747 82.3012 938.237 103.404 929.126 125.579C919.842 146.97 913.79 169.146 911.166 191.393C909.544 207.061 910.403 222.572 913.714 237.405C918.768 260.565 930.815 278.781 946.314 294.38C959.83 308.168 975.49 318.557 991.239 329.233C1011.41 342.712 1031.76 356.766 1048.33 375.816C1058.36 387.585 1067.36 400.148 1075.27 413.406C1086.01 430.838 1095.97 449.212 1108.44 465.336C1120.04 480.316 1133.92 493.483 1149.72 504.486C1165.97 515.615 1182.44 526.333 1198.46 537.872C1209.76 545.785 1219.39 555.556 1226.98 566.807C1238.26 583.707 1242.38 602.72 1237.08 623.429C1234.2 635.82 1227.4 647.544 1217.64 656.982C1209.45 665.264 1199.6 671.913 1188.85 676.431C1184.41 678.141 1180.23 680.714 1176.01 682.015C1167.26 684.738 1158.43 687.174 1149.59 689.61C1140.75 692.046 1131.82 694.195 1122.89 696.343C1116.28 697.924 1109.48 698.93 1103.18 700.389C1097.84 701.481 1092.35 703.27 1087.09 704.65C1080.16 706.353 1072.91 708.178 1066.06 710.169C1061.85 711.469 1057.95 712.648 1053.73 713.949C1046.98 716.227 1040.63 718.671 1033.79 720.661C1024.4 723.629 1014.93 726.309 1005.37 728.702C994.779 731.606 984.094 733.891 973.375 735.543C964.12 736.733 954.887 736.94 945.849 736.159C927.44 734.352 910.023 729.146 894.542 720.822C880.994 713.805 867.764 706.666 854.216 699.65C834.113 689.131 812.859 680.404 790.691 673.566C771.886 667.929 752.535 662.823 733.869 656.489C707.973 647.466 682.216 637.745 656.458 628.024C652.799 626.536 648.821 625.17 645.162 623.682M900.559 -636.559C899.643 -624.619 898.41 -612.558 897.495 -600.618C894.869 -571.283 893.374 -541.74 896.858 -512.182C898.204 -499.826 900.274 -487.425 902.345 -475.026C904.197 -464.473 906.684 -454.165 908.854 -443.735C913.282 -422.587 917.711 -401.439 918.152 -379.4C918.404 -355.679 913.141 -333.699 901.055 -314.241C893.532 -302.226 882.98 -291.941 870.497 -284.456C860.22 -278.626 849.348 -274.01 838.158 -270.722C827.746 -267.694 817.228 -265.259 806.663 -263.428L780.565 -258.212C774.177 -257.041 767.789 -255.869 761.49 -254.411C759.179 -253.843 756.55 -253.153 754.239 -252.585C744.396 -249.655 734.687 -246.133 725.173 -242.043C710.743 -235.831 697.767 -226.405 687.475 -214.659C675.459 -200.7 666.558 -184.722 666.553 -164.121C666.444 -156.133 668.309 -148.469 672.002 -141.735C675.694 -135.001 681.113 -129.38 687.83 -125.317C702.002 -116.287 717.514 -113.246 733.305 -111.598C748.315 -110.114 763.658 -110.193 779.071 -111.832C793.157 -113.391 807.292 -115.934 821.11 -118.355C829.581 -119.684 837.874 -121.588 846.167 -123.492C852.466 -124.951 858.179 -127.151 864.478 -128.609C872.364 -130.679 880.657 -132.583 888.633 -134.365C897.649 -136.226 906.984 -138.209 916.179 -139.495C928.715 -141.405 941.093 -139.783 951.737 -134.834C962.545 -129.676 970.903 -121.176 975.617 -110.55C982.249 -96.044 983.128 -80.6109 982.648 -64.9766C981.375 -43.656 977.151 -22.228 970.085 -1.2406C962.982 20.446 954.693 41.9019 945.252 63.034C935.506 85.4531 924.946 107.542 915.607 130.126C906.406 151.683 900.519 174.02 898.143 196.393C896.659 215.678 898.358 234.681 903.178 252.713C906.612 263.416 911.315 273.584 917.206 283.04C929.409 301.059 944.83 316.745 962.892 329.509C976.697 339.645 990.412 349.494 1003.9 359.753C1023.45 374.864 1039.83 393.237 1052.4 414.15C1062.33 431.251 1072.25 448.353 1082.81 465.21C1092.09 480.578 1103.47 494.571 1116.7 506.882C1130.45 519 1145.17 530.108 1160.77 540.131C1173.9 548.383 1185.76 558.182 1196.13 569.332C1201.59 575.452 1205.83 582.523 1208.66 590.258C1212.14 599.597 1212.29 610.111 1209.11 620.341C1204.48 633.606 1194.67 645.25 1181.84 652.721C1171.87 658.386 1161.36 662.971 1150.55 666.376C1142.04 668.945 1133.44 671.071 1124.81 672.743C1117.87 674.446 1111.03 676.436 1104 677.852C1096.98 679.267 1089.64 680.805 1082.39 682.631C1077.13 684.01 1071.56 685.512 1066.3 686.892C1058.41 688.961 1050.84 690.908 1043.05 693.265C1039.78 694.2 1036.84 695.012 1033.57 695.946C1021.38 699.029 1009.28 702.399 997.09 705.482C984.481 708.599 971.704 710.162 959.089 710.13C938.185 709.654 918.151 705.097 900.213 696.74C878.89 687.566 857.933 677.285 836.56 669.096C817.537 661.612 798.008 655.931 778.796 650.129C750.271 641.796 721.924 634.038 693.955 622.915C675.339 615.596 656.723 608.277 637.789 601.08M1832.99 550.148C1830.53 553.67 1828.16 557.479 1825.7 561.001C1819.32 570.216 1812.94 579.431 1806.47 588.358C1801.17 596.032 1793.63 602.206 1784.93 605.981C1778.49 608.222 1771.81 609.263 1765.27 609.042C1753.46 608.761 1742.01 607.372 1730.34 606.394C1693.79 602.34 1656.17 603.278 1618.56 609.181C1610.81 610.553 1603.06 611.925 1595.5 613.873C1585.62 616.388 1575.91 619.478 1566.12 622.281C1560 623.781 1553.98 625.882 1548.17 628.547C1538.51 632.91 1528.88 638.544 1519.31 643.194C1506.63 649.814 1494.5 657.502 1483.08 666.15C1475.77 671.217 1469.45 677.191 1462.23 682.545C1450.46 691.58 1439.1 700.78 1427.07 708.952C1419.12 714.263 1410.55 717.562 1400.97 714.168C1394.67 711.89 1389.83 707.318 1387.4 701.365C1382.6 691.624 1382.52 681.036 1382.11 670.57C1381.39 649.926 1381.81 629.49 1381.4 608.723C1381.35 589.351 1379.57 570.225 1376.1 551.541C1374.47 542.836 1372.43 533.965 1370.47 525.382C1368.92 519.222 1367.59 512.652 1365.31 506.448C1359.38 489.762 1351.71 473.855 1342.4 458.94C1334.8 447.057 1326.35 435.829 1317.66 425.01C1300.87 404.112 1281.13 386.284 1263.02 366.86C1246.58 349.37 1230.91 330.938 1214.93 312.629C1195.11 289.999 1174.3 268.72 1150.34 252.192C1135.92 242.144 1120.83 232.907 1105.15 224.521C1095.85 219.733 1086.55 214.945 1077.47 209.747C1065.11 202.993 1054.08 194.446 1044.73 184.37C1035.1 173.495 1029.78 159.544 1029.52 144.517C1029.18 129.33 1031.72 113.858 1037.02 98.8227C1044.74 73.3197 1056.22 49.5926 1066.56 25.6568C1072.78 11.3528 1079.82 -2.6205 1086.45 -16.7591C1093.76 -32.1268 1100.99 -47.7815 1108.62 -63.2714C1126.58 -100.44 1142.33 -139.011 1158.98 -176.963C1168.22 -199.059 1179.81 -220.458 1193.55 -240.798C1208.7 -263.261 1227.33 -283.691 1248.69 -301.29C1257.14 -308.502 1266.46 -314.689 1276.39 -319.674C1281.06 -321.795 1285.47 -324.777 1290.23 -326.61C1310.89 -334.479 1332.8 -336.516 1353.09 -332.456C1365.03 -330.167 1376.45 -326.454 1387.08 -321.398C1399.38 -315.456 1410.42 -307.661 1419.83 -298.278C1426.98 -290.938 1432.55 -282.297 1436.28 -272.744C1443.76 -254.378 1444.44 -235.006 1444.16 -215.267C1443.33 -191.335 1441.17 -167.302 1437.72 -143.263C1436.21 -129.807 1434.38 -116.229 1432.96 -102.485C1431.19 -87.6529 1431.35 -72.9043 1433.43 -58.5729C1436.17 -42.2986 1443.23 -27.4352 1453.97 -15.298C1466.8 -0.280891 1481.77 11.3361 1496.52 23.3631C1515.46 38.6036 1534.72 53.7224 1554.21 68.431C1564.81 76.2598 1575.87 83.2689 1586.92 90.2783C1609.51 104.502 1634.53 115.352 1661.24 122.509C1673.72 126.075 1686.47 128.248 1699.09 131.117C1700.33 131.593 1701.63 131.954 1702.98 132.195M887.86 -631.671C886.716 -619.321 885.255 -606.85 884.429 -594.623C882.107 -571.272 881.032 -547.977 881.208 -524.826C881.898 -507.711 883.63 -490.675 885.997 -473.883C889.334 -451.671 892.989 -429.582 895.195 -407.579C897.669 -384.713 895.482 -361.984 885.607 -341.125C879.229 -327.164 868.86 -314.777 855.792 -305.51C843.302 -296.518 829.156 -291.718 815.099 -286.63C807.221 -284.305 799.26 -282.423 791.263 -280.996C784.964 -279.537 778.436 -277.669 772.138 -276.21C765.839 -274.752 758.816 -273.336 752.517 -271.877C749.629 -271.352 746.754 -270.676 743.906 -269.851C732.686 -266.388 721.604 -262.338 710.714 -257.72C692.291 -249.279 676.103 -236.356 664.006 -220.432C650.435 -203.383 642.347 -183.385 640.881 -163.252C639.912 -153.153 641.479 -143.286 645.451 -134.464C649.424 -125.641 655.689 -118.114 663.732 -112.502C677.854 -102.487 693.635 -98.5828 709.604 -96.3604C727.13 -93.6575 745.217 -93.0525 763.464 -94.5589C777.727 -95.5425 791.813 -97.1011 805.898 -98.6597C818.535 -100.305 831.401 -102.359 843.949 -104.292C857.856 -106.426 871.763 -108.56 885.759 -110.406C899.259 -112.432 912.707 -111.918 925.316 -108.893C938.31 -105.594 948.897 -97.6137 954.998 -86.5207C960.093 -77.0019 962.704 -66.238 962.638 -55.0217C962.942 -34.3042 959.633 -13.2435 952.843 7.32763C943.968 37.1363 931.165 64.5937 918.859 92.5044C907.812 116.37 898.633 140.779 891.405 165.513C884.668 189.012 882.681 212.95 885.555 235.999C890.441 270.957 907.08 302.155 933.125 325.194C947.822 338.206 963.61 350.154 979.081 362.224C999.905 377.718 1017.61 396.532 1031.56 417.987C1039.92 431.185 1047.18 445.448 1054.68 459.3C1060.11 468.796 1064.91 478.536 1070.66 487.91C1078.28 500.227 1086.99 511.834 1096.71 522.624C1109.43 535.859 1123.12 548.221 1137.69 559.639C1146.66 566.299 1154.66 574.02 1161.53 582.65C1167.82 591.492 1171.58 601.312 1167.04 613.035C1164.51 620.165 1159.39 626.49 1152.66 630.803C1143.52 637.369 1133.17 642.016 1122.4 644.379C1117.81 645.505 1113.26 646.932 1108.8 648.647C1101 651.005 1093.35 652.665 1085.55 655.022L1075.76 657.824C1067.96 660.182 1059.94 662.948 1052.05 665.018C1044.89 667.13 1037.87 668.546 1030.7 670.658C1024.49 672.405 1018.06 674.561 1011.76 676.02C1003.46 677.924 994.765 679.663 986.294 680.992C968.853 683.531 951.462 683.257 934.874 680.182C920.361 677.106 906.313 672.822 892.88 667.376C867.44 657.534 841.821 647.117 815.419 639.897C791.684 633.261 767.9 627.609 744.393 620.563C719.35 613.142 694.951 603.22 670.642 593.586C657.63 588.294 644.161 583.823 631.237 578.819M948.814 -655.129C948.594 -646.676 948.374 -638.223 947.747 -629.935C946.269 -606.735 946.874 -583.709 949.555 -561.108C950.668 -551.96 952.611 -543.018 955.361 -534.374C960.317 -519.545 966.453 -505.491 976.995 -494.421C988.562 -480.801 1005.99 -472.81 1025.46 -472.198C1040.66 -472.349 1056 -473.939 1071.25 -476.946C1097.38 -481.619 1123.59 -481.777 1148.57 -477.414C1162.95 -474.818 1176.65 -470.347 1189.29 -464.119C1194.93 -461.142 1200.11 -457.52 1204.73 -453.322C1208.49 -450.045 1211.2 -445.822 1212.63 -441.032C1214.05 -436.243 1214.14 -431.037 1212.88 -425.884C1210.82 -416.552 1207.31 -407.39 1202.48 -398.706C1191.69 -379.766 1178.62 -361.871 1163.57 -345.43C1150.84 -331.515 1137.42 -318.628 1124.77 -304.425C1111.58 -289.69 1098.47 -274.668 1089.74 -255.857C1081.85 -238.112 1076.55 -219.707 1074 -201.2C1070.51 -181.512 1067.75 -161.78 1064.67 -141.927C1060.69 -117.795 1054.73 -93.7575 1046.82 -70.0395C1041.91 -54.9519 1036.36 -39.6197 1030.63 -24.8629C1023.26 -6.25328 1015.88 12.3563 1007.69 30.6351C998.455 51.2501 989.126 71.5771 979.391 91.7391C969.313 112.29 961.124 133.433 954.925 154.907C950.067 171.608 948.362 188.623 949.894 205.124C951.344 218.969 955.762 232.042 962.888 243.574C971.934 257.771 984 269.84 998.439 279.136C1009.36 286.843 1020.87 293.033 1032.34 300.208C1051.03 311.108 1068.32 323.859 1083.95 338.281C1094.33 348.411 1103.69 359.447 1111.95 371.277C1123.28 387.193 1134.07 403.64 1145.63 419.146C1158.08 435.671 1173 450.273 1190.02 462.573C1207.43 475.183 1225.08 487.383 1242.26 500.402C1257.84 512.078 1270.58 526.717 1279.82 543.562C1283.29 549.999 1286.31 556.683 1288.87 563.575C1292.61 572.596 1294.78 582.291 1295.3 592.321C1296.06 601.339 1296.04 610.492 1295.26 619.694C1293.82 633.287 1289.98 646.845 1283.9 659.796C1275.87 677.756 1263.07 693.918 1246.88 706.552C1239.68 712.397 1231.74 717.298 1223.31 721.092C1215.38 724.839 1207.28 728.172 1199.05 731.074C1188.4 734.531 1177.88 737.29 1167.28 739.762C1155.72 742.6 1143.99 744.864 1132.52 747.99C1124.32 750.181 1116.2 752.66 1108.18 755.427C1091.49 761.205 1074.89 767.27 1058.39 773.623C1040.38 780.875 1022.24 788.823 1004.23 796.075C992.136 800.512 979.671 803.47 967.165 804.87C954.887 806.571 942.645 806.507 930.862 804.681C918.334 802.848 906.361 799.332 895.285 794.233C875.816 785.311 857.855 773.234 839.806 760.868C814.483 742.845 786.148 728.615 755.623 718.594C733.158 711.469 710.872 704.919 688.407 697.793C680.949 695.514 673.718 692.826 666.577 690.424M935.476 -649.997C934.369 -626.074 933.173 -602.439 932.791 -578.474C932.58 -562.648 934.085 -547.05 937.282 -531.923C940.077 -519.48 944.458 -507.648 948.522 -495.694C952.168 -485.764 957.093 -476.425 963.195 -467.867C970.862 -455.986 981.1 -445.935 993.342 -438.271C1005.03 -431.229 1019.54 -428.713 1034.28 -431.173C1045.46 -432.905 1056.61 -435.908 1067.85 -438.625C1084.85 -442.268 1101.88 -444.638 1119.47 -441.755C1128.39 -440.343 1136.54 -436.856 1143.24 -431.589C1154.6 -422.444 1157.76 -411.108 1153.57 -395.977C1150.37 -385.443 1144.72 -375.445 1137.05 -366.766C1124.99 -351.822 1110.49 -340.128 1095.68 -328.312C1082.59 -317.804 1069.74 -307.706 1059.58 -293.496C1051.2 -281.251 1045.91 -267.605 1044.18 -253.775C1041.52 -236.013 1043.11 -218.28 1043.57 -200.755C1044.07 -181.958 1044.98 -162.996 1043.63 -144.45C1041.1 -111.02 1034.07 -77.4854 1022.71 -44.6659C1018.44 -32.0798 1014.08 -19.7812 1009.09 -7.23822C1003.73 6.41168 998.368 20.0614 992.284 33.6681C984.553 51.1276 976.009 68.2569 967.871 85.551C955.614 112.477 943.04 139.525 937.062 169.506C933.925 184.348 933.275 199.268 935.136 213.699C937.683 232.189 945.044 249.236 956.589 263.378C967.302 275.933 979.898 286.884 994.055 295.951C1012.42 308.194 1031.42 320.192 1049.56 332.845C1065.75 344.79 1079.67 359.17 1090.88 375.524C1102.21 391.44 1113 407.888 1123.78 424.335C1137.8 445.246 1155.67 463.377 1176.68 478.006C1193.6 490.163 1210.97 501.5 1227.98 513.944C1241.83 524.138 1253.34 536.814 1261.99 551.39C1278.87 580.619 1281.67 611.406 1269.25 643.543C1263.35 659.018 1253.44 673.266 1240.5 684.865C1234.14 690.971 1226.82 696.079 1218.88 699.945C1210.47 704.357 1201.82 708.227 1192.98 711.523C1184.26 714.498 1175.44 717.034 1166.55 719.118C1158.98 721.066 1151.5 723.301 1144.25 725.126C1137 726.951 1129.89 728.079 1122.64 729.905C1116.97 731.119 1111.49 732.908 1105.91 734.41C1072.64 743.996 1040.89 758.471 1007.93 770.192C989.727 776.954 970.814 780.746 952.059 781.393C931.321 781.217 911.509 776.512 894.135 767.638C877.872 759.243 862.271 749.878 847.413 739.593C823.92 723.944 798.067 711.406 770.451 702.266C749.612 695.802 728.774 689.338 707.847 682.586C691.62 677.244 675.444 670.918 659.446 665.166C659.039 665 658.315 664.957 657.909 664.792M1818.99 505.005C1817.2 507.001 1815.3 508.913 1813.31 510.733C1806.03 517.072 1798.44 523.534 1790.99 529.299C1781.42 537.045 1771.46 544.318 1761.15 551.083C1754.19 555.362 1746.8 558.856 1739.15 561.483C1727.02 565.066 1714.78 568.056 1702.49 570.443C1684.36 573.878 1666.06 576.737 1647.85 579.884C1634.03 582.305 1619.81 584.562 1605.99 586.983C1599.6 588.154 1593.07 590.022 1586.78 591.481C1578.17 593.507 1569.87 595.412 1561.35 597.726C1557.77 598.782 1554.1 599.551 1550.93 600.772C1534.01 606.96 1516.78 613.27 1499.87 619.457C1492.57 622.267 1485.31 626.349 1477.83 628.584C1468.44 631.552 1459.46 634.686 1449.51 634.656C1435.93 634.41 1426.41 627.775 1421.08 614.052C1417.77 605.671 1414.78 597.167 1412.42 588.418C1410.06 579.67 1408.97 570.433 1406.93 561.563C1405.51 554.705 1403.46 548.092 1402.36 541.113C1398.82 524.172 1394.15 507.588 1388.38 491.455C1384.73 480.8 1380.44 470.417 1375.53 460.351C1367.92 444.643 1358.89 429.712 1348.53 415.703C1338.64 402.131 1328.11 388.803 1317.98 375.641C1306.28 360.832 1294.35 346.433 1282.74 331.912C1272.97 319.9 1263.21 307.888 1253.76 295.753C1232.69 269.352 1206.78 246.934 1177.02 229.371C1167.45 223.721 1157.79 217.783 1147.99 212.542C1133.95 205.072 1119.45 198.422 1105.72 190.83C1093.07 184.378 1081.9 175.846 1072.66 165.575C1066.92 159.317 1062.87 151.754 1060.81 143.42C1059.18 135.61 1058.58 127.52 1059.02 119.325C1060.31 102.143 1064.44 84.915 1071.25 68.2686C1076.52 54.3312 1081.7 40.1065 1087.88 26.7873C1096.52 7.68908 1105.66 -10.9564 1114.8 -29.6018C1120.84 -42.2238 1126.96 -54.5586 1133.08 -66.893C1142.22 -85.5384 1151.36 -104.184 1160.41 -123.117C1163.75 -129.55 1166.27 -136.314 1169.6 -142.747C1182.86 -171.024 1195.89 -198.891 1213.75 -223.789C1228.52 -244.921 1245.76 -263.789 1266.29 -277.804C1273.05 -282.339 1280.4 -286.134 1287.35 -290.094C1298.75 -296.027 1311.2 -299.268 1323.51 -299.508C1334.92 -299.787 1345.95 -297.782 1355.9 -293.625C1367.24 -289.176 1377.12 -282.332 1384.87 -273.553C1394.75 -262.299 1401.21 -248.538 1403.69 -233.485C1407.9 -211.133 1407.7 -187.726 1403.1 -164.378C1397.77 -136.898 1391.3 -109.627 1385.16 -82.4777C1381.84 -68.9072 1380.24 -55.2134 1380.4 -41.6992C1380.63 -33.7786 1381.74 -26.0064 1383.68 -18.5032C1387.47 -4.74314 1395.37 7.25533 1406.52 16.1601C1417.17 24.4129 1428.97 31.3212 1441.69 36.743C1463.51 46.5689 1484.59 57.5775 1504.86 69.7206C1522.78 80.5259 1540.2 93.1349 1557.89 104.35C1579.92 118.081 1602.31 130.705 1626.26 139.189C1641.92 144.899 1658.17 149.406 1674.86 152.671C1686.58 154.922 1698.43 156.476 1710.15 158.727C1711.28 159.064 1712.37 159.507 1713.4 160.05M875.665 -626.324C875.387 -624.93 874.703 -623.7 874.425 -622.306C872.358 -606.061 870.29 -589.816 868.947 -573.527C867.067 -548.664 865.186 -523.799 867.65 -498.677C869.767 -476.961 872.291 -455.08 874.408 -433.365C876.308 -413.496 877.255 -393.261 872.727 -373.494C867.504 -350.241 855.835 -332.875 838.484 -320.082C826.083 -310.803 811.937 -306.003 797.881 -300.915C788.637 -298.061 779.303 -295.65 769.917 -293.692C761.307 -291.666 752.836 -290.337 744.225 -288.311C737.609 -286.73 731.171 -284.574 724.961 -282.827C717.571 -280.305 710.002 -278.358 703.108 -275.382C686.658 -268.428 671.606 -258.235 659.06 -245.555C643.029 -229.105 630.885 -209.761 623.626 -189.109C617.706 -173.911 615.103 -158.103 615.987 -142.717C616.504 -133.468 619.122 -124.683 623.668 -116.943C628.213 -109.203 634.581 -102.687 642.35 -97.8254C654.488 -89.9399 668.458 -84.6003 683.471 -82.1086C702.973 -78.2919 723.224 -76.8944 743.748 -77.9489C768.605 -79.1472 793.373 -80.633 818.191 -83.1037C839.974 -85.0499 861.806 -87.9812 883.578 -87.6703C895.824 -87.935 907.579 -85.3945 917.857 -80.2632C926.993 -75.4667 934.025 -67.9668 938.037 -58.7406C944.708 -42.962 944.496 -26.4649 942.112 -10.0976C939.587 7.67396 934.682 25.3549 927.518 42.511C921.702 56.9804 916.203 71.3279 910.387 85.7972C906.814 94.8972 902.021 103.501 898.448 112.601C889.654 134.653 880.95 156.993 876.222 180.7C871.581 202.047 870.564 223.527 873.211 244.301C874.539 255.276 877.021 265.962 880.623 276.209C886.961 293.887 896.324 310.157 908.375 324.43C923.635 342.696 941.496 356.744 959.307 371.776C969.859 380.589 979.547 390.057 989.553 399.402C1001.32 411.313 1011.24 424.802 1019.06 439.543C1025.44 450.93 1030.86 462.683 1036.6 474.314C1047.99 497.289 1059.38 520.262 1073.14 541.684C1079.47 551.798 1085.58 562.323 1091.69 572.847C1100.44 588.468 1098.3 602.168 1085.8 613.416C1079.15 619.044 1071.73 623.745 1063.82 627.345C1056.95 630.996 1049.88 634.251 1042.68 637.09C1030.53 641.445 1018.43 644.816 1006.1 648.596C994.662 652.109 982.963 654.12 971.349 654.567C956.444 655.603 941.742 654.536 927.726 651.4C901.541 646.029 876.33 635.776 850.334 628.722C824.338 621.669 798.52 615.19 772.613 608.423C746.287 601.644 720.654 593.234 695.866 583.244C672.687 573.819 650.055 563.861 626.459 556.528C626.052 556.362 625.328 556.319 624.922 556.154M1806.23 463.889C1806.29 464.306 1806.3 464.732 1806.27 465.161C1791.2 473.857 1777.89 484.775 1763.99 494.952C1752.68 503.167 1741.69 511.26 1730.11 518.613C1722.82 523.036 1715.23 526.926 1707.42 530.242C1702.29 533.021 1696.96 535.394 1691.5 537.335C1682.12 540.303 1672.96 542.862 1663.49 545.542C1657.91 547.044 1652.43 548.833 1646.76 550.047C1640.46 551.506 1634.16 552.965 1627.78 554.136C1620.12 555.796 1612.46 557.455 1604.71 558.828C1599.37 559.92 1593.93 560.725 1588.58 561.817C1580.93 563.477 1573.27 565.136 1565.52 566.509C1556.5 568.37 1547.4 569.943 1537.97 571.639C1528.55 573.334 1519.62 575.483 1510.43 576.769C1498.52 578.457 1486.74 579.448 1474.67 576.047C1462.14 571.884 1452.2 563.381 1446.63 552.079C1441.86 543.618 1438.01 534.649 1435.12 525.288C1431.73 514.362 1427.93 503.27 1424.22 492.466C1420.52 481.662 1416.4 470.693 1411.74 460.255C1402.26 437.973 1390.89 416.633 1377.73 396.422C1366.17 378.659 1353.99 361.14 1342.67 342.967C1331.52 325.37 1321.24 307.118 1310.41 289.398C1301.29 274.885 1292.57 260.536 1282.68 246.964C1272.88 233.96 1260.77 222.763 1246.8 213.78C1227.62 201.207 1206.74 193.471 1186.32 184.915C1172 178.84 1157.91 172.355 1143.58 166.28C1130.67 160.702 1119.13 152.952 1109.47 143.361C1101.22 135.032 1095.94 124.349 1094.22 112.537C1091.66 97.4271 1094.36 83.1947 1097.86 69.2931C1103.1 48.3137 1110.76 27.6604 1120.69 7.72131C1132.39 -16.4156 1145.22 -40.3444 1157.42 -64.0284C1168.79 -85.7861 1179.93 -107.134 1191.4 -128.604C1201.5 -148.531 1212.63 -168.072 1224.76 -187.149C1234.25 -202.12 1245.89 -215.934 1259.31 -228.126C1268.92 -236.75 1280.22 -243.411 1292.35 -247.603C1310.03 -252.475 1326.86 -250.907 1340.68 -234.984C1345.19 -229.583 1348.66 -223.422 1350.97 -216.733C1355.2 -203.061 1356.61 -188.433 1355.11 -173.588C1353.56 -151.104 1347.21 -130.317 1341.68 -109.198C1337.22 -92.6729 1332.75 -76.1474 1329.5 -59.126C1325.86 -40.3484 1325.11 -21.5164 1327.3 -3.23859C1328.97 12.4818 1334.27 27.2374 1342.85 40.0212C1350.84 51.5218 1361.95 60.6153 1375.23 66.5055C1389.62 72.1178 1404.73 76.3268 1420.35 79.0742C1442.42 83.7771 1464.26 88.8897 1484.89 99.2927C1501.7 107.632 1518.36 116.669 1535.02 125.706C1546.13 131.731 1557.18 138.74 1568.29 144.764C1590.15 156.893 1613.91 166.133 1639.01 172.265C1654.7 175.882 1670.62 179.089 1686.45 182.009C1696.94 183.763 1707.49 184.533 1717.89 186.001C1719.03 186.337 1720.12 186.781 1721.14 187.324M857.387 -619.945C855.32 -603.7 853.253 -587.455 851.275 -570.922C847.927 -546.811 846.604 -522.73 847.32 -498.911C847.921 -482.083 849.563 -465.334 850.799 -448.751C852.203 -429.336 853.289 -409.798 849.396 -390.276C845.781 -372.147 837.743 -356.823 825.014 -345.165C815.997 -337.087 805.485 -330.735 794.191 -326.543C782.139 -321.951 769.801 -318.388 757.339 -315.9C745.604 -313.637 733.87 -311.373 722.313 -308.535C712.893 -306.246 703.543 -303.507 694.3 -300.328C687.297 -298.116 680.402 -295.462 673.666 -292.387C662.678 -286.828 652.529 -279.657 643.646 -271.177C628.538 -255.776 616.158 -238.254 607.102 -219.454C596.596 -199.082 588.855 -177.808 584.084 -156.2C581.2 -143.568 580.696 -130.835 582.597 -118.613C584.967 -105.463 591.789 -93.8966 602.09 -85.5607C615.845 -74.4395 631.982 -69.3847 648.169 -65.3149C666.378 -61.0612 685.304 -58.8435 704.587 -58.7042C732.558 -57.8824 760.54 -59.3176 788.433 -61.0405C806.228 -62.0957 824.112 -62.864 841.857 -62.9344C856.074 -63.5076 870.004 -61.9141 883.119 -58.2151C893.889 -55.2815 903 -49.1193 909.202 -40.5736C913.032 -35.1457 915.674 -28.9606 916.994 -22.3291C920.609 -1.51185 916.716 18.011 910.651 37.4042C906.561 50.5654 901.34 63.5179 896.437 76.3484C891.901 88.0719 886.959 99.6304 882.334 111.066C872.782 133.878 865.149 157.162 859.513 180.682C854.192 204.087 852.753 227.673 855.25 250.557C856.032 257.659 857.449 264.517 858.866 271.375C859.837 276.983 861.295 282.448 863.226 287.721C869.541 306.138 878.582 323.338 890.104 338.853C904.274 358.183 921.45 373.459 938.487 389.433C954.036 404.048 969.04 419.194 980.948 438.107C987.037 447.515 992.361 457.405 996.881 467.703C1000.1 475.797 1003.73 484.057 1006.95 492.151C1011.69 505.133 1016.11 518.237 1019.9 531.586C1023.42 542.936 1024.43 555.129 1022.85 567.462C1021.92 574.016 1019.38 580.467 1015.45 586.288C1011.51 592.11 1006.29 597.138 1000.2 600.965C993.04 605.854 985.099 609.458 976.839 611.565C968.418 613.641 959.909 614.976 951.426 615.553C938.116 616.452 924.967 615.667 912.325 613.22C899.57 611.048 886.864 607.892 873.931 605.145C854.848 600.902 835.675 596.372 816.681 592.417C781.451 585.377 746.27 577.352 712.519 563.627C692.276 555.647 672.172 546.969 652.019 539.276C639.909 534.603 627.431 531.036 614.865 527.182M925.639 -646.212C924.781 -627.214 923.517 -608.381 922.659 -589.382C921.822 -569.401 922.623 -549.586 925.055 -530.116C927.102 -513.775 930.958 -497.894 936.559 -482.723C940.405 -472.616 944.797 -463.041 949.278 -453.179C960.798 -428.644 976.316 -407.258 989.562 -384.032C998.215 -369.894 1001.15 -352.762 997.892 -335.418C995.062 -320.489 992.32 -305.271 989.579 -290.054C986.614 -272.951 988.329 -255.976 994.556 -240.793C999.255 -229.083 1005.86 -218.106 1010.56 -206.396C1014.64 -195.53 1018.09 -184.397 1020.9 -173.042C1023.93 -160.485 1025.47 -147.479 1025.48 -134.248C1025.84 -121.6 1025.06 -108.806 1023.13 -96.0064C1019.7 -73.3597 1014.22 -50.7876 1006.74 -28.5467C1003.81 -19.6911 1000.87 -10.836 997.523 -2.14576C992.759 9.98749 988.084 22.4083 982.507 34.2108C973.863 53.3091 964.495 72.3644 955.85 91.4627C945.052 116.218 933.53 140.93 927.473 168.367C923.193 185.976 922.328 203.771 924.921 220.847C927.889 239.736 935.487 257.176 947.137 271.842C958.871 285.465 972.598 297.379 987.985 307.297C1003.64 317.685 1019.53 327.664 1034.65 338.584C1051.09 350.363 1065.23 364.668 1076.59 381.019C1088.78 398.538 1099.87 417.121 1111.74 434.761C1126.15 456.612 1144.74 475.472 1166.71 490.531C1182.55 501.495 1198.93 511.927 1214.54 523.3C1228.88 533.216 1240.68 545.948 1249.27 560.788C1264.93 589.521 1266.16 618.662 1250.68 647.794C1242.41 663.451 1229.38 676.815 1213.47 685.932C1203.79 691.95 1193.46 696.792 1182.76 700.327C1173.06 703.417 1163.09 705.644 1153.21 708.16C1143.96 710.43 1135.12 712.867 1125.88 715.137C1118.63 716.963 1110.88 718.335 1103.63 720.16C1096.83 721.798 1090.09 723.749 1083.41 726.009C1066.09 732.031 1049.09 737.932 1031.77 743.954C1023.74 746.721 1016.13 749.653 1008.01 752.132C999.174 754.568 990.246 756.716 981.001 758.987C970.599 761.483 960.064 762.613 949.705 762.342C931.631 761.96 914.357 757.849 899.062 750.29C887.726 744.675 876.211 738.485 865.332 732.051C855.94 726.975 847.232 720.671 837.84 715.595C816.554 703.847 793.826 694.268 769.981 686.995C738.699 677.792 707.734 668.466 677.097 656.761C668.647 653.576 659.79 650.226 651.25 646.753M698.321 812.458C715.731 815.668 732.336 821.07 747.724 828.528C761.871 835.473 775.371 843.397 788.128 852.245C804.289 863.581 821.26 873.922 838.955 883.216C857.081 892.132 876.566 898.79 896.987 903.046C914.65 906.673 932.935 908.378 951.51 908.132C965.294 908.097 979.234 906.513 993.043 903.413L993.071 903.406C1002.31 901.137 1011.54 898.869 1020.69 896.313C1027.22 894.445 1033.88 891.88 1040.64 889.601C1056.92 883.658 1073.42 877.305 1089.79 871.649C1097.5 869.004 1105.56 867.51 1113.68 865.031C1123.53 862.37 1133.57 861.113 1143.44 861.303C1160.86 861.355 1176.72 867.803 1189.83 881.426C1197.45 890.093 1203.8 899.761 1208.71 910.209C1218.85 929.158 1229.54 947.575 1244.46 962.434C1256.53 974.788 1271.67 984.119 1288.83 989.774C1301.18 993.7 1313.97 996.634 1327.08 998.547C1341.51 1000.4 1356.17 1001.83 1370.92 1003.56L1412.05 1008.98C1420.72 1010.81 1429.93 1010.88 1439.11 1009.18C1443.26 1007.94 1447.1 1005.68 1450.24 1002.65C1457.72 996.102 1464.83 989.174 1471.52 981.904C1484.48 967.53 1499.27 954.687 1515.47 943.745C1524.59 937.658 1534.04 931.448 1543.34 925.936C1552.1 920.955 1561.04 916.549 1569.89 911.856C1580.56 906.143 1590.9 900.551 1601.66 895.124C1607.74 891.818 1614.4 889.253 1620.8 885.825C1627.83 882.156 1634.77 878.2 1641.7 874.243L1641.72 874.232C1647.17 871.17 1652.39 868.518 1657.75 865.169C1666.45 860.461 1674.95 855.364 1683.21 849.896C1695.47 841.315 1707.24 832.28 1718.83 822.67C1740.16 804.352 1757.94 782.628 1771.14 758.765C1778.99 745.122 1786.34 731.026 1794.19 717.384C1798.33 708.988 1805.78 663.78 1822.04 633.134C1849.41 581.542 1926.03 527.135 1926.03 527.135M1791.65 417.999C1790.05 419.506 1788.35 420.913 1786.56 422.211C1765 434.048 1746.32 450.573 1726.79 465.494C1716.52 473.63 1705.84 481.601 1694.99 488.996C1686.85 494.068 1678.4 498.611 1669.71 502.587C1662.98 505.981 1656.07 508.963 1649.03 511.513C1640.37 514.524 1631.44 516.673 1622.6 519.109C1604.23 523.91 1585.61 526.868 1567.07 527.932C1550.72 529.073 1534.1 529.352 1518.06 524.585C1502.75 519.833 1490.02 510.441 1481.65 497.719C1474.82 487.232 1468.89 476.172 1463.92 464.631C1455.41 446.344 1446.89 428.056 1437.11 410.257C1426.56 391.143 1414.6 373.215 1403.41 354.345C1392.19 336.924 1382.16 318.751 1373.38 299.921C1369.49 290.799 1365.36 282.086 1361.78 272.842C1358.38 264.173 1354.58 255.338 1352.13 246.302C1348.13 233.214 1344.93 219.834 1342.54 206.221C1340.43 195.78 1340.28 184.843 1342.1 173.881C1343.09 168.906 1345.18 164.055 1348.23 159.659C1351.28 155.263 1355.22 151.425 1359.78 148.407C1368.59 142.442 1378.47 139.927 1388.67 137.289C1403.98 133.691 1419.48 132.284 1434.63 133.117C1453.02 134.116 1470.65 138.225 1486.73 145.255C1500.64 151.165 1514.28 158.469 1528.14 165.364C1550.09 176.551 1571.9 188.434 1595.04 196.588C1610.71 202.166 1627.01 206.442 1643.78 209.372C1656.44 211.257 1668.97 213.838 1681.55 215.435C1696.39 217.449 1711.45 219.053 1726.61 220.945C1728.3 221.3 1729.91 221.87 1731.4 222.641M1776.89 369.293C1776.67 369.703 1776.93 370.566 1776.62 370.688C1765.54 378.493 1754.36 386.011 1743.78 394.269C1726.7 407.926 1710.6 422.488 1693.61 436.431C1683.4 444.935 1672.67 452.829 1661.49 460.056C1651.11 466.457 1639.94 471.407 1628.38 474.731C1616.52 478.266 1604.39 480.113 1592.41 480.206C1578.42 480.519 1564.97 477.636 1553.21 471.8C1542.4 466.237 1533.38 458.274 1526.79 448.494C1519.05 437.309 1511.95 425.878 1505.17 414.326C1494.26 396.319 1482.48 378.966 1469.92 362.555C1455.93 343.8 1441.31 325.288 1429.18 304.528C1423.7 294.727 1418.99 284.499 1415.06 273.912C1411.21 263.439 1408.64 252.45 1407.38 241.141C1406.13 229.072 1407.45 217.298 1413.38 206.645C1417.12 199.623 1423.28 193.818 1430.7 190.322C1446.54 182.941 1462.56 184.179 1478.83 188.537C1492.69 192.538 1505.9 197.912 1518.28 204.577C1543.8 216.964 1569.31 229.351 1596.21 237.023C1614.83 242.007 1634 245.603 1653.56 247.781C1676.45 250.558 1699.35 253.334 1722.42 256.686C1729.43 257.527 1736.16 259.764 1743.04 261.303M709.059 830.803C729.912 836.67 749.322 845.579 766.652 857.238C783.532 868.122 800.411 879.007 818.064 888.949C836.92 899.235 857.464 906.914 879.16 911.784C896.373 915.949 914.105 918.706 932.175 920.026C951.058 921.555 970.386 920.716 989.677 917.53C1001.41 915.266 1013.29 912.306 1024.84 909.467C1032.41 907.52 1039.8 904.997 1047.28 902.762C1057.71 899.715 1068.36 896.259 1078.87 893.5C1092.34 889.4 1106.13 887.132 1119.78 886.768C1140.02 886.705 1157.77 894.677 1172.09 911.053C1182.08 922.656 1191.53 934.79 1201.3 946.803C1213.6 963.17 1228.57 977.463 1245.74 989.245C1262.4 999.849 1280.75 1008.15 1300.31 1013.95C1317.35 1019.62 1334.84 1024.47 1350.87 1033.76C1363.56 1040.85 1373.47 1051.4 1379.52 1064.25C1382.57 1071.21 1384.84 1078.53 1386.3 1086.1C1388.16 1094.4 1389.39 1102.94 1390.62 1111.48M723.344 874.555C731.02 878.681 738.697 882.808 745.917 887.754C760.991 897.402 775.381 908.279 790.595 917.229C807.702 927.704 826.736 932.932 845.501 937.296C859.973 940.417 874.672 943.128 889.193 945.264C912.388 949.254 936.25 950.961 960.42 950.36C973.263 950.16 986.231 948.518 999.056 945.467C1010.29 942.751 1021.22 940.158 1032.37 937.154C1040.57 934.962 1048.37 932.605 1056.66 930.701C1071.39 926.438 1086.42 924.013 1101.33 923.488C1121.24 923.547 1139.36 930.413 1155.05 944.33C1163.98 952.482 1172.76 961.332 1181.46 969.894C1198.45 986.852 1215.57 1003.11 1235.62 1015.03C1249.96 1023.41 1265.06 1030.72 1280.78 1036.92C1293.48 1042.33 1306.17 1047.74 1318.18 1054.39C1333.4 1062.57 1345.68 1074.57 1353.87 1089.25C1359.36 1099.25 1363.62 1109.91 1366.58 1121.05M1067.1 -714.843C1084.56 -692.917 1103.89 -672.997 1126.68 -657.951C1139.25 -650.002 1152.4 -642.81 1166.05 -636.412C1180.73 -629.186 1196 -623.478 1209.72 -613.629C1220.23 -606.679 1227.92 -596.645 1231.81 -584.795C1234.94 -574.898 1234.49 -563.901 1230.53 -553.405C1227.92 -545.126 1222.25 -537.671 1214.64 -532.481C1207.02 -527.547 1198.21 -524.947 1189.57 -525.086C1176.17 -524.757 1162.59 -525.003 1149.33 -525.37C1128.57 -526.075 1107.57 -525.204 1086.53 -522.766C1068.37 -520.604 1050.56 -517.291 1032.32 -517.674C1019.09 -517.389 1006.52 -520.652 996.039 -527.091C985.56 -533.529 977.596 -542.883 973.054 -554.087C970.568 -559.434 968.388 -564.933 966.522 -570.563C962.109 -584.083 959.829 -598.375 959.748 -613.017C959.385 -632.511 960.471 -651.919 960.833 -671.37C960.972 -672.067 961.429 -672.887 961.568 -673.584M833.957 -624.469C832.756 -619.179 831.465 -614.176 830.67 -608.72C827.402 -587.184 823.816 -565.526 821.36 -543.66C819.576 -523.984 819.244 -504.388 820.364 -485.019C821.005 -466.919 821.962 -448.942 820.748 -431.094C819.533 -413.246 814.113 -396.354 802.059 -383.668C796.608 -377.399 789.754 -372.327 782.118 -368.912C777.476 -366.429 772.645 -364.354 767.694 -362.717C758.12 -360.015 748.447 -357.904 738.739 -356.401C716.503 -353.334 694.294 -352.67 672.549 -354.422C664.511 -354.699 656.69 -356.02 649.299 -358.349C640.621 -361.124 635.941 -367.048 638.165 -378.204C640.668 -390.754 643.577 -403.139 646.576 -415.236C651.472 -432.695 653.87 -450.405 653.7 -467.868C653.644 -478.005 651.903 -487.869 648.54 -497.102C644.481 -508.509 638.466 -519.009 630.713 -528.221C626.479 -532.707 622.244 -537.193 617.603 -541.844M1052.18 -709.1C1067.22 -692.681 1082.04 -675.852 1097.4 -659.555C1108.93 -647.81 1121.53 -637.057 1135.09 -627.392C1143.71 -621.375 1152.33 -615.358 1160.63 -609.219C1167.57 -604.694 1173.36 -598.842 1177.7 -591.972C1182.28 -584.079 1182.52 -576.446 1174.34 -568.467C1168.96 -563.966 1162.48 -560.916 1155.73 -559.699C1142.5 -556.538 1129.23 -554.648 1115.73 -552.349C1107.67 -550.855 1099.19 -549.525 1091.04 -548.319C1078.17 -546.264 1065.4 -543.922 1052.67 -542.564C1038.02 -540.55 1023.58 -542.339 1010.91 -547.736C999.456 -553.063 990.51 -561.883 985.319 -572.968C978.247 -588.105 974.306 -604.689 973.686 -621.921C972.715 -639.909 973.36 -658.138 975.614 -676.414C975.792 -677.467 976.197 -678.5 976.805 -679.448M813.96 -616.765C813.316 -615.416 812.795 -614.03 812.402 -612.624C807.496 -589.493 802.68 -566.075 797.774 -542.944C794.433 -524.241 792.756 -505.506 792.761 -486.941C792.52 -473.973 792.368 -460.718 791.492 -447.506C790.616 -434.294 786.754 -421.543 778.559 -411.308C775.522 -407.273 771.705 -403.779 767.351 -401.05C762.997 -398.322 758.201 -396.418 753.271 -395.46C744.924 -393.413 736.433 -393.48 728.692 -395.656C723.459 -397.059 718.733 -399.522 714.814 -402.889C710.894 -406.256 707.867 -410.454 705.923 -415.217C701.888 -423.642 701.523 -432.835 700.434 -442.072C699.127 -453.156 698.862 -464.32 697.555 -475.405C696.152 -486.044 693.436 -496.337 689.459 -506.084C682.496 -521.848 673.102 -536.324 661.548 -549.093C659.386 -551.48 656.678 -553.335 654.606 -555.434M773.11 -213.522C778.952 -214.161 784.795 -214.801 790.409 -215.031C796.626 -215.571 802.65 -214.429 807.777 -211.737C810.57 -210.28 812.909 -208.214 814.629 -205.684C815.497 -203.892 815.766 -201.833 815.403 -199.753C815.04 -197.673 814.061 -195.659 812.583 -193.953C810.283 -190.894 807.305 -188.314 803.902 -186.428C791.01 -178.933 776.146 -176.219 762.538 -178.876C757.708 -179.699 753.494 -182.03 750.528 -185.519C749.251 -187.344 748.573 -189.531 748.565 -191.845C748.597 -194.64 749.46 -197.473 751.056 -200.021C752.652 -202.569 754.917 -204.731 757.595 -206.264C762.495 -208.794 767.892 -210.871 772.882 -213.113M1019.7 -684.368C1029.16 -684.791 1036.65 -678.982 1043.91 -672.764C1056.55 -661.841 1067.22 -649.039 1075.6 -634.75C1079.47 -628.994 1082 -622.417 1083.03 -615.399C1083.81 -610.71 1082.97 -605.717 1080.63 -601.122C1078.3 -596.527 1074.58 -592.563 1070.01 -589.789C1058.97 -583.594 1046.33 -581.507 1034.85 -583.983C1028.29 -585.198 1022.33 -587.912 1017.44 -591.906C1012.56 -595.9 1008.9 -601.06 1006.76 -606.966C1002.16 -616.977 999.85 -628.021 999.965 -639.45C1000.08 -650.879 1002.62 -662.465 1007.43 -673.529C1008.29 -676.005 1009.85 -678.287 1011.92 -680.111C1014 -681.935 1016.51 -683.226 1019.16 -683.836M1592.23 656.022C1595.26 655.497 1598.62 654.851 1601.65 654.327C1610.12 652.997 1618.55 650.396 1627.38 650.217C1638.51 649.818 1649.56 650.194 1660.42 651.341C1674.24 653.009 1687.03 657.782 1697.79 665.282C1709.67 673.172 1717.94 684.927 1721.31 698.716C1724.1 709.845 1724.03 721.768 1721.11 733.557C1716.31 752.191 1706.3 769.859 1692.17 784.605C1680.27 797.197 1666.47 808.06 1651.33 816.74C1642.25 821.843 1632.99 826.371 1623.74 830.899C1619.29 833.263 1614.71 835.348 1610.04 837.137C1600.34 840.227 1590.55 843.03 1580.75 845.832C1566.23 849.756 1551.43 851.54 1536.91 851.119C1521.73 850.829 1507.47 846.511 1495.73 838.644C1489.75 834.596 1484.9 829.284 1481.5 823.053C1478.1 816.823 1476.22 809.811 1475.98 802.472C1475.38 788.931 1477.6 775.071 1482.51 761.658C1489.34 740.744 1500.95 720.977 1516.45 703.853C1526.53 692.547 1538.4 682.75 1551.53 674.902C1564.61 666.651 1578.44 661.973 1592.41 656.598M1250.52 -109.835C1261.39 -109.187 1264.07 -102.818 1265.34 -93.0059C1267.57 -75.5169 1266.67 -57.7913 1266.81 -40.1444C1266.96 -22.4974 1267.56 -5.66965 1268.02 11.8552C1268.83 32.7872 1270.27 53.475 1270.45 74.6514C1270.7 88.0717 1267.56 100.866 1258.47 110.483C1252.96 116.364 1245.58 120.351 1237.77 121.666C1232.22 122.902 1226.62 123.655 1221.06 123.915C1205.07 124.786 1189.55 122.171 1175.69 116.27C1167.48 112.871 1160.26 107.887 1154.44 101.597C1145.71 91.7593 1141.33 78.8633 1142.07 65.1595C1142.76 51.5531 1145.84 37.8606 1151.17 24.6405C1163.59 -7.4968 1181.6 -35.3492 1201.41 -61.9654C1211.45 -76.0454 1223.15 -89.095 1236.27 -100.808C1240.24 -104.503 1244.92 -107.406 1249.98 -109.303M1594.01 682.366C1598 681.475 1601.67 680.706 1605.66 679.815C1615.24 677.453 1624.97 676.649 1634.41 677.439C1646.31 678.122 1657.48 681.547 1667 687.426C1676.07 693.017 1682.74 701.342 1686.13 711.285C1689.21 720.632 1689.34 730.953 1686.49 741.08C1682.13 756.282 1672.96 770.399 1660.28 781.425C1651.48 789.566 1641.45 796.368 1630.62 801.527C1622.47 805.36 1614.16 808.774 1605.72 811.754C1591.41 816.568 1576.51 818.102 1562.34 816.222C1548.36 814.791 1536.23 808.146 1528.52 797.695C1522.6 789.514 1519.85 779.419 1520.64 768.862C1521.78 748.072 1531.46 727.487 1547.61 711.489C1555.3 703.494 1564.25 696.672 1574.05 691.335C1580.45 687.907 1587.21 685.629 1594.01 682.366ZM1603.73 705.659C1607.38 705.027 1611.04 704.586 1614.69 704.337C1625.56 703.144 1636 705.777 1643.99 711.729C1649.05 715.399 1652.65 720.564 1654.32 726.568C1656 732.571 1655.67 739.143 1653.39 745.449C1649.45 756.963 1641.18 767.171 1630.26 773.985C1624.78 777.893 1618.82 781.057 1612.56 783.371C1600 787.56 1587.14 789.616 1573.81 784.446C1569.58 782.925 1565.87 780.509 1562.94 777.362C1560 774.216 1557.9 770.414 1556.78 766.215C1555.09 760.461 1555.23 754.159 1557.18 748.037C1562.55 732.13 1572.38 720.299 1586.22 713.363C1591.76 710.589 1597.79 708.267 1603.73 705.659Z" stroke="url(#paint0_linear_404_424)" stroke-opacity="0.2" stroke-linecap="round" stroke-linejoin="round"/>
</g>
<defs>
<linearGradient id="paint0_linear_404_424" x1="690.284" y1="469.275" x2="670.322" y2="768.632" gradientUnits="userSpaceOnUse">
<stop stop-color="#DFE4E8"/>
<stop offset="1" stop-color="#DFE4E8" stop-opacity="0"/>
</linearGradient>
<clipPath id="clip0_404_424">
<rect width="1679" height="944" fill="white"/>
</clipPath>
</defs>
</svg>
