<svg width="1384" height="677" viewBox="0 0 1384 677" fill="none" xmlns="http://www.w3.org/2000/svg">
<g clip-path="url(#clip0_409_2399)">
<g clip-path="url(#clip1_409_2399)">
<path d="M804.78 -298.833C801.004 -293.587 797.425 -288.561 793.651 -283.532C785.309 -272.601 777.163 -261.67 768.43 -250.953C760.198 -240.899 750.889 -231.995 740.716 -224.446C730.837 -216.983 720.764 -209.737 711.079 -202.058C696.258 -190.646 683.774 -177.293 675.385 -161.359C670.828 -152.807 667.497 -143.538 665.515 -133.889C663.957 -126.896 663.165 -119.735 663.156 -112.56C663.132 -109.95 662.521 -107.554 662.693 -104.945C662.822 -97.7697 663.147 -90.5953 663.47 -83.2034C663.809 -77.5515 664.147 -71.682 664.29 -66.0287C664.603 -57.5494 664.719 -49.0687 664.638 -40.3692C664.387 -34.4957 663.547 -28.618 662.903 -22.7418C662.268 -17.7354 661.828 -12.7305 661.195 -7.94171C660.565 -3.58786 659.74 0.767354 659.113 4.90372C658.69 8.16876 657.874 11.4365 657.648 14.7002C656.866 21.4899 656.474 28.3206 656.475 35.1509C656.874 55.3732 663.763 73.8105 678.724 89.3646C687.964 98.984 698.816 106.513 710.69 111.542C718.928 115.179 727.64 117.392 736.524 118.104C741.075 118.687 745.659 118.946 750.25 118.878C761.21 118.4 772.074 116.126 782.487 112.13C798.63 106.146 812.451 96.6981 826.273 87.2506C840.094 77.8031 854.117 67.7017 870.264 61.2826C877.354 58.4061 884.834 55.7444 892.115 53.3015C906.088 48.6374 920.056 44.4082 933.259 38.2271C942.976 33.7878 952.24 28.1803 960.881 21.5069C969.775 14.4858 978.479 6.81373 987.373 -0.207306C995.873 -7.00812 1004.18 -13.8076 1014.62 -18.6647C1022.55 -22.4747 1031.07 -24.4883 1039.67 -24.5855C1048.26 -24.6827 1056.76 -22.8614 1064.65 -19.2302C1071.31 -16.1182 1077.7 -12.3795 1083.77 -8.0546C1089.49 -4.1719 1094.96 0.149942 1100.13 4.87997C1107.33 11.3541 1113.94 18.0498 1120.93 24.7428C1123.46 27.1174 1125.8 29.4934 1128.33 31.6505C1143.5 45.4633 1158.47 59.4949 1174.04 72.8699C1186.58 83.8451 1199.79 93.8526 1213.59 102.824C1229.38 112.935 1245.38 122.827 1260.98 132.94C1275.47 142.296 1287.98 154.952 1297.71 170.09C1305.05 181.783 1311.41 194.134 1317.57 206.27C1324.89 220.572 1332.22 234.657 1339.15 248.962C1342.01 254.719 1344.07 260.937 1345.25 267.405C1346.96 277.009 1345.55 287.032 1341.26 295.704C1335.52 307.801 1328.57 319.158 1320.54 329.557C1309.41 344.64 1298.28 359.723 1286.76 374.591C1279.62 383.775 1272.08 392.744 1264.15 401.498C1257.14 409.309 1248.81 415.506 1239.65 419.719C1234.24 422.148 1228.53 423.584 1222.74 423.968C1211.44 424.67 1200.19 422.518 1189.84 417.673C1175.77 411.682 1161.9 405.472 1147.83 399.263C1133.96 393.267 1119.54 388.921 1104.79 386.296C1094.16 384.633 1083.37 384.271 1072.63 385.215C1059.88 386.205 1047.3 389.222 1035.27 394.174C1024.11 398.488 1013.34 404.028 1003.14 410.708C990.991 418.721 979.819 428.45 969.909 439.646C969.118 440.404 917.386 499.207 881.6 508.701C864.532 514.673 822.12 529.915 789.013 543.106C747.629 559.596 704.085 572.095 656.475 565.5C617.862 560.15 547 620.5 462.5 655M773.191 -298.392C764.654 -284.056 754.726 -270.785 743.59 -258.823C735.812 -250.709 727.405 -243.372 718.469 -236.901C709.777 -230.534 701.474 -223.734 692.978 -217.368C682.307 -209.175 672.648 -199.453 664.261 -188.462C655.421 -177.058 648.695 -163.851 644.475 -149.614C642.646 -142.86 640.817 -136.105 639.38 -129.354C638.553 -124.781 638.51 -120.214 638.075 -115.644C637.846 -112.162 637.419 -108.462 637.386 -104.983C637.339 -99.9803 637.489 -94.9795 637.834 -89.98C637.981 -84.7617 638.323 -79.3272 638.863 -74.1116C639.779 -63.865 640.01 -53.5448 639.554 -43.2351C639.305 -37.5791 638.467 -31.919 637.825 -26.2602C636.324 -12.5489 632.079 0.746486 628.423 14.0378C626.398 20.7936 624.569 27.548 623.131 34.5172C620.623 45.6188 622.06 57.2933 627.141 67.1103C632.463 76.8057 638.983 85.6158 646.514 93.2899C656.862 104.301 668.6 113.592 681.372 120.884C696.53 130.132 713.185 136.068 730.449 138.375C735.348 138.994 740.247 139.612 745.346 139.794C750.505 140.084 755.68 140.048 760.845 139.686C767.977 138.774 775.064 137.417 782.071 135.624C795.935 131.947 809.318 126.221 821.859 118.602L857.37 97.4771C869.912 90.1871 882.962 84.0586 896.386 79.1554C908.593 74.5035 921.192 69.8489 933.01 64.7648C945.496 59.4 957.307 52.2235 968.131 43.4255C977.423 35.7492 986.522 27.8569 995.618 20.182C1002.38 14.1758 1009.58 8.81435 1017.15 4.15662C1026.07 -1.12339 1036.03 -3.74224 1046.06 -3.4386C1051.23 -3.22135 1056.32 -2.08189 1061.14 -0.0639343C1071.56 3.84178 1081.26 9.73447 1089.81 17.3519C1096.24 22.744 1102.66 27.9187 1108.69 33.5311C1118.61 42.596 1128.13 52.0985 1137.86 61.3822C1140.58 63.973 1143.49 66.7799 1146.41 69.3693C1151.08 73.6863 1155.75 78.0032 1160.42 82.1028C1167.23 88.3621 1174.03 94.839 1181.23 100.878C1191.75 109.721 1202.65 118.344 1213.36 126.969C1221.54 133.436 1229.92 139.685 1237.9 146.371C1244.52 151.762 1251.14 157.152 1257.36 162.981C1266.12 171.281 1273.88 180.8 1280.44 191.309C1284.89 198.455 1289.13 205.602 1292.99 213.187C1300.38 226.903 1306.17 241.621 1310.23 256.996C1312.4 265.814 1313.11 275.016 1312.33 284.166C1311.23 293.84 1308.34 303.19 1303.83 311.627C1297.9 323.374 1290.89 334.427 1282.93 344.611C1276.12 353.273 1268.91 361.526 1261.31 369.336C1254.88 375.908 1247.7 381.516 1239.97 386.012C1232.6 390.286 1224.43 392.508 1216.17 392.485C1205.43 392.518 1194.82 390.381 1184.84 386.178C1174.48 382.336 1164.32 378.057 1154.15 373.996C1141.76 368.775 1129.09 364.361 1116.22 360.777C1107.55 358.379 1098.7 356.767 1089.78 355.958C1081.68 355.4 1073.54 355.602 1065.44 356.563C1049.53 358.631 1034.97 364.169 1020.78 370.574C1005.54 377.409 990.991 386.042 977.379 396.321C965.344 405.355 954.423 416.109 944.905 428.298C926.271 451.564 911.107 478.667 881.937 490.494C871.499 495.015 841.307 507.671 804.045 522.128C757.467 540.198 675.079 551.674 643.399 533.065C615.925 516.927 580.232 553.613 541 583.5C492.556 620.404 424.128 650.528 418 646.5M791.237 -298.518C783.484 -287.59 775.733 -276.88 767.783 -265.951C758.299 -253.345 747.376 -242.154 735.297 -232.669C726.599 -225.649 717.123 -219.277 708.231 -212.473C694.598 -202.157 682.329 -190.981 672.982 -177.432C661.364 -160.418 654.363 -140.134 652.816 -119.009C652.548 -111.395 652.087 -103.998 652.212 -96.3874C652.159 -90.7327 652.696 -85.2997 653.036 -79.6477C653.379 -74.4308 653.921 -69.4326 653.872 -64.2129C654.179 -55.0812 654.289 -45.948 654.206 -37.031C653.925 -31.8509 653.352 -26.69 652.491 -21.5785C651.85 -15.9197 651.012 -10.2596 650.174 -4.59943C649.344 0.190764 648.316 5.19985 647.683 9.98868C647.05 14.7775 646.024 19.569 645.587 24.3565C645.143 29.7964 644.894 35.4524 644.843 40.8896C645.001 51.1394 647.47 61.1399 652.025 69.9812C657.989 82.5531 667.305 93.3619 678.4 102.636C689.446 111.772 701.953 118.541 715.291 122.605C723.1 124.989 731.093 126.607 739.18 127.44C755.293 128.804 771.543 126.47 786.916 120.584C802.273 114.823 815.495 106.467 828.72 97.8932C838.983 91.2976 849.247 84.702 859.702 78.5399C870.447 72.5974 881.659 67.7863 893.188 64.1712C906.177 59.7313 919.163 55.7265 931.576 49.9858C943.225 44.7946 954.288 38.0728 964.526 29.9664C971.84 24.0437 978.96 17.905 986.277 11.7648C994.778 4.74649 1003.09 -2.48791 1012.95 -8.21085C1020.26 -12.5268 1028.26 -15.1498 1036.47 -15.9176C1044.68 -16.6854 1052.91 -15.5818 1060.66 -12.6749C1070.37 -8.87456 1079.51 -3.51684 1087.78 3.22949C1092.65 7.32763 1097.91 10.9881 1102.58 15.3051C1112.11 23.9377 1121.25 33.008 1130.38 41.8608L1138.36 49.4169C1152.95 62.5813 1167.15 75.7484 1182.13 88.4751C1197.54 101.465 1213.6 113.478 1230.25 124.458C1243.9 133.715 1257.35 142.973 1269.21 153.981C1277.35 161.588 1284.58 170.304 1290.74 179.928C1294.61 185.991 1298.08 192.273 1301.56 198.556C1309.25 212.604 1316.19 227.151 1322.33 242.123C1325.47 249.551 1327.9 257.332 1329.57 265.343C1330.62 271.643 1330.7 278.115 1329.78 284.479C1327.67 300.587 1319.3 314.563 1310.15 328.11C1303.38 338.378 1296.23 348.215 1288.68 357.836C1280.35 368.333 1271.81 378.831 1262.5 388.682C1255.9 396.003 1248.12 401.888 1239.58 406.022C1234.57 408.463 1229.26 410.041 1223.84 410.698C1212.64 412.298 1202.07 409.762 1191.91 405.919C1178.42 400.576 1165.14 394.796 1151.85 389.234C1138.78 383.621 1125.31 379.206 1111.56 376.031C1103.66 374.451 1095.68 373.417 1087.65 372.936C1073.18 372.235 1058.66 374.097 1044.64 378.454C1025.42 384.229 1007.11 393.389 990.432 405.58C954.158 431.755 926.49 484.117 881.436 499.725C836.382 515.333 810.212 529.127 773.118 541.498C755.271 547.45 691.401 557.793 636.744 545.905C601 538.13 573 579 449 653.5M822.822 -298.09C819.646 -294.153 816.274 -290.215 813.096 -286.061C803.366 -273.597 794.029 -261.137 784.299 -248.673C770.873 -231.8 755.414 -217.053 738.374 -204.859C726.521 -196.077 714.864 -187.297 704.762 -177.006C699.001 -171.154 693.986 -164.459 689.862 -157.112C685.92 -150.22 682.939 -142.719 681.022 -134.868C678.867 -126.934 677.669 -118.735 677.458 -110.486C677.538 -98.0908 678.008 -85.4806 678.088 -73.0852C677.982 -61.7758 677.68 -50.4651 677.181 -39.153C676.934 -33.7145 676.491 -28.2745 675.851 -22.8332C674.995 -15.2157 673.551 -7.59408 672.498 0.0248108C671.452 6.99123 670.602 13.9563 670.142 21.1361C669.929 26.7231 670.007 32.3138 670.377 37.8799C670.658 43.7567 671.728 49.5397 673.552 55.0382C677.338 67.3214 684.086 78.1751 693.072 86.4361C699.482 92.572 706.799 97.4472 714.713 100.856C720.118 103.044 725.678 104.751 731.341 105.96C737.561 107.503 743.975 107.972 750.357 107.35C755.161 107.059 759.95 106.445 764.696 105.51C777.155 102.967 789.113 97.8677 799.953 90.4769C811.996 82.3466 823.651 73.7841 835.501 65.4377C847.066 57.2783 859.528 50.8299 872.563 46.2596C884.765 42.0427 897.354 38.4755 909.751 34.4748C918.926 31.604 927.884 27.9048 936.536 23.4147C949.058 16.4998 960.961 8.2594 972.079 -1.18961C979.195 -6.89343 985.724 -12.8107 993.032 -18.0809C1002.15 -25.2166 1012.39 -30.3807 1023.19 -33.2964C1031.91 -35.5288 1040.92 -35.8132 1049.68 -34.1331C1060.08 -32.01 1070.01 -27.8054 1078.99 -21.7236C1090.56 -13.933 1101.44 -4.98268 1111.51 5.01691C1121.42 14.7342 1131.53 24.2328 1141.84 33.7299C1150.98 42.1439 1160.51 50.1206 1170.05 58.097L1170.06 58.108C1177.65 64.362 1185.64 70.6131 1193.63 76.4293C1206.14 85.6834 1219.32 93.8091 1233.03 100.73C1244.35 106.305 1255.68 111.663 1266.81 117.458C1277.45 122.456 1287.36 129.124 1296.25 137.26C1305.58 146.112 1311.56 156.944 1317.34 167.777C1322.94 178.177 1327.55 188.801 1332.94 199.202C1339.32 211.49 1347.05 222.831 1355.97 232.968C1382.91 257.777 1381.4 288.029 1363.32 309.687C1354.4 319.318 1345.28 328.951 1336.95 339.23C1324.44 354.757 1312.52 370.716 1300.21 386.46C1293.06 395.643 1285.72 404.611 1278.18 413.58C1271.73 421.303 1264.09 427.692 1255.64 432.439C1249.16 436.091 1242.16 438.424 1234.97 439.325C1223.97 440.706 1213.99 438.383 1204.21 434.972C1191.31 430.495 1179.4 423.836 1167.1 418.05C1151.52 410.119 1135.11 404.318 1118.21 400.774C1111.76 399.439 1105.2 398.757 1098.62 398.736C1093.71 398.77 1088.61 398.37 1083.7 398.84C1077.11 399.473 1070.55 400.535 1064.06 402.021C1049.37 405.715 1035.27 411.981 1022.29 420.579C972.43 451.494 943.541 500.699 881.759 516.637C865.982 521.796 829.592 534.165 810.256 542.373C786.084 552.633 736.781 581 672.498 581C622.5 581 578 639 495 651.5M1863.22 184.977C1789.96 187.668 1735 188.848 1697.74 179.294C1663.8 170.593 1618.05 151.375 1580.94 136.152C1580.55 135.937 1580.16 135.505 1579.77 135.29C1568.03 131.458 1556.5 127.188 1544.56 123.792C1535.65 121.124 1526.41 119.87 1517.13 120.068C1513.26 120.168 1509.4 120.486 1505.55 121.019C1497.65 121.726 1490.05 124.877 1483.62 130.113C1477.19 135.348 1472.18 142.458 1469.18 150.631C1464.56 161.754 1462.29 173.296 1459.24 184.843C1455.67 198.207 1451.15 211.255 1445.73 223.865C1442.32 231.935 1438.91 240.223 1435.89 248.508C1433.73 253.784 1433.19 259.675 1434.36 265.264C1435.68 270.901 1438.85 275.76 1443.25 278.903C1448.68 283.278 1455.26 285.595 1462.03 285.514C1470.16 285.325 1478.11 282.47 1484.86 277.309C1494.14 270.72 1501.28 262.406 1509.2 254.739C1516.37 247.55 1523.9 240.817 1531.76 234.575C1546.38 223.382 1563.13 215.219 1580.65 208.573C1592.48 202.155 1621.73 188.961 1662.38 199.722C1782.59 231.554 1798 264.797 1895.08 256.527M1871.39 199.131C1833.3 198.491 1742.28 202.006 1702.04 190.021C1661.81 178.036 1579.88 145.604 1579.28 145.299C1568.71 140.523 1557.79 136.744 1546.62 134.001C1536 131.182 1524.97 130.522 1514.08 132.052C1506.09 133.18 1498.58 137.033 1492.59 143.076C1486.26 149.846 1481.71 158.377 1479.41 167.742C1477.18 175.804 1475.53 184.079 1473.68 192.356C1472.46 197.584 1471.23 203.029 1470.2 208.256C1468.35 216.968 1466.31 225.463 1465.05 234.171C1464.17 238.539 1464.47 243.077 1465.91 247.213C1468.79 253.718 1473.49 254.99 1479.39 253.644C1484.61 252.255 1489.56 249.786 1493.97 246.366C1499.7 242.411 1505.43 238.24 1511.16 234.068C1520.29 227.541 1529.85 221.803 1539.76 216.906C1553.36 210.504 1567.15 204.537 1580.74 198.353C1591.9 192.778 1619.7 182.861 1641.66 187.79C1739.88 209.842 1823.78 214.68 1890.17 231.682M1573.52 173.824C1571.51 179.71 1566.18 183.226 1560.65 186.527C1550.98 192.257 1540.63 196.43 1529.93 198.919C1525.5 200.225 1520.9 200.553 1516.39 199.883C1513.35 199.492 1510.51 198.051 1508.28 195.765C1506.05 193.478 1504.54 190.461 1503.95 187.139C1502.84 179.214 1504.61 171.071 1508.87 164.487C1511.19 160.686 1514.27 157.529 1517.87 155.274C1521.47 153.02 1525.49 151.731 1529.59 151.512C1536.78 150.549 1544.05 151.182 1550.97 153.374C1557.89 155.566 1564.32 159.274 1569.88 164.28C1571.18 165.269 1572.19 166.649 1572.8 168.261C1573.41 169.873 1573.6 171.652 1573.33 173.39M1168.86 208.823C1165.85 215.368 1161.34 215.835 1155.07 214.791C1143.9 212.911 1133.35 209.07 1122.59 205.883C1111.83 202.696 1101.45 199.941 1090.69 196.971C1077.78 193.581 1064.85 190.627 1051.94 186.802C1043.73 184.467 1036.7 180.166 1033.04 172.798C1030.79 168.327 1030.14 163.058 1031.22 158.022C1031.8 154.386 1032.69 150.812 1033.87 147.347C1037.19 137.372 1042.51 128.334 1049.42 120.925C1053.46 116.517 1058.23 113.012 1063.45 110.606C1071.52 107.079 1080.41 106.786 1088.57 109.779C1096.67 112.73 1104.25 117.16 1111 122.889C1127.55 136.474 1140.15 152.697 1151.57 169.798C1157.71 178.568 1162.83 188.177 1166.8 198.399C1168.09 201.52 1168.73 204.934 1168.67 208.39M598.873 370.97C626.668 323.972 628.474 266.555 628.101 257.82C627.914 252.931 627.436 248.067 626.668 243.259C625.848 237.467 624.722 231.738 623.298 226.102C619.711 213.231 614.332 201.089 607.352 190.113C601.94 181.451 596.134 173.01 590.524 164.568C586.269 158.073 582.209 151.577 580.709 144.194C578.263 133.119 580.907 123.097 590.014 114.335C593.224 111.163 596.99 108.766 601.066 107.299C605.2 105.85 609.549 105.375 613.83 105.905C622.504 107.381 630.844 110.564 638.461 115.303C653.685 123.678 668.708 132.49 685.123 139.335C698.529 144.848 712.426 148.832 726.603 151.225C737.158 153.001 747.867 153.582 758.564 152.96C767.67 152.356 776.734 150.984 785.676 148.857C797.894 145.705 809.828 141.252 821.309 135.56C830.179 131.149 838.854 126.522 847.335 121.678C862.52 113.309 877.7 105.374 893.852 98.5201C906.653 93.2117 919.845 88.118 932.454 82.3759C944.208 77.082 955.449 70.4436 965.991 62.57C979.818 52.47 991.698 40.8612 1004.55 29.8981C1011.56 23.6387 1019.34 18.5297 1027.65 14.7318C1033.79 12.0417 1040.34 10.7388 1046.91 10.9007C1054.81 11.2841 1062.54 13.4502 1069.61 17.267C1078.94 22.3319 1087.76 28.4655 1095.92 35.5692C1100.79 39.6673 1105.65 43.983 1110.32 48.3C1121.21 58.4455 1131.9 68.5922 1142.6 78.7391C1148.43 84.3528 1154.46 89.9652 1160.3 95.3615C1171.97 106.154 1183.64 116.946 1195.5 127.52C1209.51 139.819 1224.12 151.461 1237.93 163.76C1250.07 174.507 1260.78 187.094 1269.75 201.162C1277.7 213.685 1284.29 227.214 1289.39 241.475C1292.11 248.67 1293.88 256.273 1294.67 264.056C1295.24 268.587 1295.53 273.164 1295.52 277.751C1295.2 284.885 1293.88 291.938 1291.6 298.656C1285.95 315.44 1276 330.08 1263.52 343.433C1255.54 352.303 1246.24 359.581 1236.05 364.937C1228.72 368.618 1220.83 370.669 1212.84 370.97C1202.9 371.075 1193.05 369.38 1183.66 365.953C1171.92 361.903 1160.58 357.633 1149.05 353.146C1135.37 347.804 1121.69 342.028 1107.41 337.995C1100.48 335.998 1093.41 334.665 1086.26 334.01C1071.36 332.374 1057.4 335.516 1043.81 341.047C1027.82 347.626 1012.27 355.512 997.295 364.64C986.559 370.901 976.203 377.948 966.296 385.734C932.798 411.722 917.348 466.919 879.792 478.025C842.237 489.132 785.675 534.648 726.603 521.385C667.53 508.122 547.736 457.437 598.873 370.97ZM627.741 443.767C626.192 441.603 624.447 439.441 622.898 437.277C618.83 431.651 614.764 426.025 610.893 420.397C607.501 415.724 605.562 409.947 605.358 403.908C605.543 399.541 606.517 395.245 608.223 391.275C611.233 384.077 614.828 377.31 618.228 370.328C629.475 348.654 637.948 325.389 643.399 301.213C644.427 296.204 645.455 291.195 646.09 286.189C646.936 279.659 647.39 273.131 648.039 266.603C648.599 262.566 648.769 258.482 648.546 254.421C648.217 247.681 647.105 240.73 646.58 233.992C645.604 224.98 643.848 216.107 641.335 207.496C640.012 202.069 637.901 197.082 636.382 191.655C633.719 182.758 630.858 174.078 628.783 165.176C627.465 159.314 627.52 153.442 631.885 148.192C634.783 144.752 638.726 142.628 642.927 142.243C650.001 141.107 656.457 143.019 662.915 144.714C675.635 148.105 687.956 152.151 700.674 155.76C712.462 159.32 724.513 161.782 736.703 163.121C742.386 163.734 748.268 164.128 753.954 164.523C758.072 164.712 762.384 165.117 766.702 164.869C778.268 164.329 789.78 162.574 801.083 159.628C810.131 157.173 818.988 154.067 827.651 150.744C844.387 144.321 859.968 135.514 876.125 128.007C890.707 121.164 905.674 114.971 920.644 108.56C939.16 100.602 957.095 91.7783 972.899 80.1423C982.472 73.1561 991.711 65.6146 1000.58 57.55C1005.72 52.7297 1010.87 47.9095 1016.21 43.3054C1023.28 36.9742 1031.13 31.7924 1039.5 27.9202C1048.43 24.0301 1058.18 23.3531 1067.38 25.9864C1076.69 28.5969 1085.48 33.0274 1093.35 39.0716C1106.99 48.5455 1118.65 59.9905 1130.72 70.7803C1137.92 77.2544 1144.72 84.1662 1151.72 90.8592C1159.3 98.2005 1167.08 105.541 1174.66 113.099C1192.93 131.023 1212.59 147.849 1231.65 165.114C1242.86 174.887 1253.08 185.97 1262.14 198.175C1272.15 211.647 1280.09 226.869 1285.65 243.246C1288.01 249.77 1289.53 256.639 1290.17 263.657C1290.34 266.918 1291.09 270.175 1291.06 273.437C1290.88 287.579 1286.85 301.401 1279.51 313.098C1275.24 320.004 1270.24 326.32 1264.62 331.904C1258.05 338.352 1250.66 343.682 1242.69 347.715C1236.51 350.739 1229.92 352.551 1223.22 353.07C1210.26 354.247 1198.32 351.068 1186.39 347.237C1172.05 342.279 1157.96 336.498 1144.18 329.915C1136.36 326.49 1128.55 322.847 1120.54 319.423C1111.95 315.587 1102.95 312.947 1093.74 311.563C1083.19 310.223 1072.46 311.792 1062.5 316.13C1050.29 321.217 1039.63 328.25 1028.78 335.068C1014.96 343.863 1001.14 352.875 987.52 362.104C906.779 416.8 922.376 446.395 872.322 469.101C818.309 487.056 806.299 520.58 734.014 515.077C666.051 504.072 627.741 443.767 627.741 443.767ZM701.014 478.522C677.834 463.788 666.836 464.372 650.516 421.861C650.516 421.861 646.082 407.085 644.448 399.503C643.52 394.438 643.173 389.253 643.415 384.07C644.152 375.963 645.276 367.897 646.781 359.907C649.049 348.148 651.71 336.386 654.174 324.625C656.024 315.696 658.071 306.548 659.92 297.618C660.744 293.481 661.177 289.128 661.804 284.992C662.642 279.331 663.478 273.889 664.119 268.23C664.338 265.836 664.753 263.441 664.773 261.266C665.077 249.738 665.384 237.992 665.688 226.464C665.735 221.462 664.999 216.248 665.439 211.243C665.89 204.933 666.143 198.842 668.555 192.736C671.968 184.448 678.289 179.837 687.908 179.118C693.798 178.642 699.686 178.383 705.57 178.56C711.454 178.736 717.329 179.783 723.211 180.177C727.72 180.581 732.232 180.549 736.738 181.17C747.885 182.143 759.086 182.356 770.279 181.807C777.633 181.545 784.974 180.84 792.272 179.697C803.648 177.942 814.892 175.173 825.896 171.416C836.523 167.862 847.155 163.874 857.588 160.104C869.4 155.673 881.018 151.025 892.635 146.595L892.638 146.593C902.285 142.83 911.932 139.066 921.577 135.52C942.686 127.494 962.539 115.752 980.365 100.75C986.1 95.9254 992.031 91.0997 997.571 86.0593C1005.49 78.8276 1013.01 71.1637 1020.93 64.1494C1027.89 57.5818 1035.76 52.3105 1044.22 48.5467C1049.4 46.1856 1054.97 45.1075 1060.53 45.3886C1065.67 45.8398 1070.73 46.9727 1075.61 48.7632C1085.74 52.747 1095.22 58.4784 1103.7 65.7483C1110.9 71.5699 1118.3 77.3902 1124.92 83.6509C1134.45 92.5011 1143.58 101.571 1152.72 110.642C1158.94 116.688 1164.96 122.735 1170.99 128.782L1171 128.797C1180.13 137.863 1189.26 146.928 1198.59 155.992C1201.7 159.232 1205.2 162.035 1208.31 165.276L1208.55 165.506C1222.47 178.813 1236.18 191.921 1246.96 207.414C1256.25 220.398 1263.58 234.483 1267.16 249.681C1268.29 254.675 1268.83 259.891 1269.57 264.887C1270.43 272.985 1269.41 281.227 1266.6 288.83C1264.03 295.881 1260.16 302.28 1255.24 307.612C1249.81 313.745 1243.28 318.537 1236.08 321.664C1226.86 325.636 1216.95 327.05 1207.2 325.779C1192.61 324.209 1178.43 319.741 1165.34 312.587C1149.92 304.213 1134.9 295.183 1119.88 286.371C1112.43 281.816 1104.49 278.293 1096.24 275.88C1091.37 274.555 1086.38 273.788 1081.35 273.591C1072.08 273.36 1062.88 275.983 1054.79 281.17C1047.22 286.174 1040.18 292.135 1033.83 298.931C1022.61 310.497 1010.86 321.396 998.604 331.58C987.73 340.572 975.881 348.918 964.813 357.694C951.173 368.663 938.118 380.062 927.205 393.187C919.973 401.734 913.329 410.867 907.331 420.509C903.148 427.28 860.513 476.557 800.799 491.493C741.085 506.43 735.281 500.302 701.014 478.522ZM677.332 302.072C677.953 298.588 678.771 295.103 679.392 291.619C680.224 286.612 681.055 281.604 682.083 276.595C683.119 270.716 684.351 264.836 685.586 258.738C686.82 252.64 687.66 246.762 689.088 240.88C690.925 233.256 693.153 225.846 698.121 219.07C703.662 212.156 711.221 207.629 719.428 206.309C725.715 204.957 732.093 204.257 738.477 204.219C745.933 204.167 753.586 203.896 761.044 203.627C768.501 203.357 776.157 202.869 783.62 201.947C799.442 200.264 815.145 197.247 830.592 192.922C844.164 189.13 857.741 184.904 871.507 181.328C884.881 177.756 898.445 174.834 911.817 171.479C922.83 168.575 933.645 165.89 944.272 162.337C954.532 158.734 964.247 153.383 973.064 146.478C985.315 137.042 995.035 125.666 1005.14 114.722C1012.28 107.06 1019.61 99.6153 1026.74 91.954C1033.23 85.0638 1040.72 79.4234 1048.87 75.2721C1055.91 71.7562 1063.68 70.4962 1071.27 71.6367C1081.07 72.8733 1089.07 77.1672 1096.68 81.8987C1108.17 89.0103 1118.88 97.5437 1128.61 107.338C1140.47 118.999 1151.93 131.316 1163.39 143.197C1173.88 154.215 1184.18 165.017 1194.47 176.037C1204.16 185.934 1213.36 196.396 1222.04 207.379C1228.85 215.981 1234.45 225.693 1238.64 236.187C1241.57 243.688 1242.9 251.862 1242.53 260.082C1241.25 271.835 1236.25 281.873 1223.25 287.4C1218.88 289.162 1214.3 290.148 1209.68 290.322C1200.36 290.383 1191.13 288.53 1182.47 284.857C1169.17 279.73 1158.06 271.978 1146.56 264.664C1137.59 258.855 1128.62 253.046 1119.05 247.893C1108.52 242.17 1097.25 238.218 1085.62 236.164C1075.66 234.271 1065.42 234.787 1055.59 237.678C1046.68 240.446 1038.48 245.58 1031.71 252.632C1024.84 260.422 1018.65 268.913 1013.22 277.988C1005.06 290.658 996.706 303.112 985.423 313.847C976.317 322.609 966.82 331.157 957.323 339.704C950.992 345.403 944.074 350.888 937.743 356.586C925.118 367.75 913.791 380.616 904.033 394.879C898.064 403.837 892.289 413.011 886.71 422.183C857.919 471.237 788.609 496.325 754.149 486.268C684.324 465.892 664.558 364.326 677.332 302.072ZM698.082 370.428C696.956 364.491 696.226 358.463 695.897 352.393C695.452 347.632 695.301 342.837 695.443 338.043C695.694 332.169 696.534 326.292 697.178 320.415C698.677 308.246 701.354 296.269 705.164 284.694C708.399 274.45 712.223 264.202 718.977 255.239C725.543 246.728 734.311 240.66 744.054 237.884C752.071 235.638 760.217 234.055 768.425 233.148C781.587 231.316 794.748 229.485 807.918 226.784C822.07 223.858 835.84 219.848 849.997 216.487C863.282 212.835 876.737 210.054 890.292 208.16C896.773 207.463 903.059 206.549 909.538 206.069C915.624 205.592 921.909 204.896 927.989 205.071C936.905 205.046 945.806 205.565 954.655 206.625C961.507 207.268 968.19 209.208 974.415 212.359C977.201 213.89 979.647 216.074 981.585 218.763C983.524 221.451 984.909 224.581 985.648 227.939C987.14 234.384 986.328 240.844 985.49 247.515L985.462 247.731C983.971 257.792 981.1 267.567 976.951 276.714C971.926 287.809 965.191 297.868 957.054 306.429C950.118 313.871 942.401 320.884 934.878 328.113C922.804 339.505 910.34 350.683 899.824 363.37C879.134 388.181 873.883 415.58 853.399 439.591C803.031 498.633 734.19 492.017 718.002 442.926C701.814 393.834 703.676 394.25 698.082 370.428ZM743.926 417.947C739.732 404.928 734.749 392.349 730.358 379.331C727.643 371.489 725.425 363.438 723.718 355.238C722.323 347.677 721.999 339.903 722.757 332.192C723.459 324.259 725.252 316.473 728.074 309.103C731.248 300.455 736.231 292.74 742.606 286.602C748.583 281.006 755.593 276.945 763.12 274.716C771.778 272.046 780.431 269.811 789.082 267.794C802.65 264.437 816.027 260.429 829.019 255.772C843.781 250.668 858.546 245.128 874.078 241.54C881.351 239.999 888.701 239.004 896.079 238.56C903.37 238.142 910.667 238.602 917.842 239.931C925.479 241.4 932.318 244.397 937.366 250.016C940.736 253.611 942.784 258.469 943.123 263.677C943.804 274.764 939.201 284.365 932.641 293.544C926.879 301.305 920.437 308.417 913.413 314.773C899.751 328.134 886.089 341.495 874.962 356.578C867.458 367.079 860.665 378.176 854.64 389.775C835.074 426.606 767.852 495.566 743.926 417.947Z" stroke="url(#paint0_linear_409_2399)" stroke-width="1.5" stroke-linecap="round" stroke-linejoin="round"/>
</g>
</g>
<defs>
<linearGradient id="paint0_linear_409_2399" x1="771.5" y1="407.5" x2="771.5" y2="655" gradientUnits="userSpaceOnUse">
<stop stop-color="#F2F4F6"/>
<stop offset="1" stop-color="#F2F4F6" stop-opacity="0"/>
</linearGradient>
<clipPath id="clip0_409_2399">
<rect width="1384" height="677" fill="white"/>
</clipPath>
<clipPath id="clip1_409_2399">
<rect width="1018" height="858" fill="white" transform="matrix(-1 0 0 1 1384 -181)"/>
</clipPath>
</defs>
</svg>
