<svg width="375" height="974" viewBox="0 0 375 974" fill="none" xmlns="http://www.w3.org/2000/svg">
<g clip-path="url(#clip0_581_2872)">
<path d="M966.253 446.975C965.434 446.085 964.466 445.317 963.38 444.693C955.491 440.659 947.635 437.105 940.27 432.758C922.606 422.592 906.768 410.199 893.184 395.912C882.811 385.149 873.32 373.704 864.775 361.653C852.366 344.916 841.455 327.252 832.132 308.809C824.282 293.131 819.368 276.575 820.306 258.023C820.595 249.14 821.73 240.227 823.698 231.382C827.652 213.153 833.811 195.356 839.43 177.631C844.147 162.694 848.611 148.033 852.773 132.927C856.333 120.805 857.713 108.418 856.856 96.2542C855.898 86.5076 852.78 77.2021 847.681 68.8739C840.298 57.3287 830.598 47.2228 819.021 39.0138C801.559 26.0794 782.687 16.4857 761.471 12.5404C752.979 10.9394 744.141 10.5699 735.275 11.4449C729.59 12.2491 723.939 13.4116 718.365 14.9237C708.775 17.2694 699.483 20.8005 690.765 25.4118C673.463 34.1994 657.177 44.6812 642.237 56.6464C625.458 70.1459 610.641 85.5134 598.21 102.31C583.976 121.432 570.616 141.407 556.398 160.77C544.161 177.2 531.639 193.426 519.116 209.652C512.855 217.765 506.34 226.154 499.809 234.303C488.015 249.218 476.222 264.134 464.444 279.291C459.435 285.781 454.442 292.511 449.719 299.206C441.512 310.474 434.555 322.376 428.96 334.72C424.747 344.068 422.627 353.922 422.73 363.68C423.009 371.759 425.103 379.559 428.887 386.616C434.201 396.121 441.102 404.752 449.373 412.237C463.9 426.05 479.157 438.553 492.686 453.711C503.215 465.238 512.264 477.84 519.685 491.31C527.724 505.75 535.002 521.019 542.517 535.772C552.193 554.356 563.137 571.559 574.621 588.689C581.244 598.227 587.613 608.041 593.729 618.132C601.623 631.198 608.015 645.038 612.814 659.459C616.105 670.044 618.468 680.913 619.883 691.971C621.436 704.976 621.499 718.209 620.07 731.466C618.141 749.273 614.22 767.02 608.367 784.436C601.085 805.778 591.262 825.764 581.995 845.918C576.678 856.099 573.344 866.891 572.149 877.787C571.805 883.13 572.712 888.378 574.81 893.19C576.927 897.927 580.173 902.117 584.339 905.49C595.865 915.098 608.479 916.56 622.025 911.592C631.067 908.441 638.821 902.31 646.559 895.939C656.612 887.56 666.649 878.941 676.988 870.767C690.082 860.259 704.736 851.505 720.426 844.821C727.307 842.073 734.325 839.675 741.444 837.639C747.346 835.844 753.34 834.393 759.385 833.295C770.183 831.285 781.098 830.474 791.877 830.88C801.053 830.857 810.172 831.335 819.184 832.312C831.697 833.99 843.846 836.915 855.412 841.034C871.299 846.663 885.965 854.396 897.747 867.849C903.305 874.14 906.815 881.773 907.933 890.002C909.247 899.216 908.018 908.782 904.352 917.88C899.835 929.924 893.042 941.341 884.29 951.603C873.015 964.641 859.135 975.736 843.474 984.229C832.319 990.248 820.625 995.308 808.564 999.334C802.71 1001.33 796.555 1002.88 790.67 1004.4C786.403 1005.7 782.104 1006.52 777.821 1007.58C770.108 1009.62 762.32 1011.31 754.486 1012.64C736.702 1015.27 718.664 1018.17 700.735 1018.63C696.658 1018.7 692.612 1019.24 688.551 1019.54L681.221 1019.8C676.334 1019.97 671.162 1019.93 666.259 1019.86C662.182 1019.92 657.834 1020.02 653.757 1020.08C648.812 1019.74 643.808 1019.77 638.795 1020.15C629.356 1021.41 619.663 1022.95 610.255 1024.7C603.529 1025.84 597.12 1027.67 590.696 1029.26C583.732 1030.92 576.784 1032.82 569.518 1034.04C563.647 1034.78 557.763 1035.17 551.907 1035.19C541.04 1035.54 530.359 1034.19 520.347 1031.17C506.675 1027.54 494.781 1020.39 486.045 1010.56C482.669 1006.63 479.744 1002.4 477.309 997.906C472.325 988.482 469.074 978.285 467.673 967.678C466.238 958.415 465.326 948.839 463.892 939.576C462.734 930.07 458.563 921.297 451.863 914.275C443.443 905.976 433.184 902.354 419.991 897.453C386.107 884.865 361.109 891.427 327.444 895.939C281.783 902.059 245.072 899.939 205 887.5C182.325 880.461 172.364 858.601 161.5 833.943C126.5 754.5 129.8 719.213 169.5 714C217.5 707.697 261.462 766.802 310.562 766.398C320.621 766.262 330.664 765.886 340.723 765.75C343.436 765.629 345.879 765.543 348.592 765.422C355.097 765.035 361.348 764.925 367.869 764.779C372.216 764.681 376.833 764.547 381.181 764.449C387.162 764.375 393.16 764.541 398.888 764.743C404.615 764.945 410.311 764.667 416.023 764.629C423.056 764.931 430.138 764.872 437.236 764.452C446.285 763.81 455.313 762.193 464.125 759.636C475.494 756.204 485.286 748.962 491.353 739.5C495.728 732.13 497.557 723.919 496.588 716.007C495.819 709.462 493.836 703.174 490.719 697.397C484.72 686.795 477.307 676.968 468.628 668.111C458.349 657.415 448.953 646.038 440.505 634.057C432.496 622.022 426.237 609.02 421.866 595.338C416.778 580.26 412.229 565.11 407.68 549.96C401.78 531.353 392.442 514.014 380.036 498.627C371.445 488.141 362.6 477.931 353.739 467.48C342.053 454.195 332.965 439.127 326.814 422.84C323.984 414.388 322.212 405.602 321.527 396.636C321.123 381.709 323.328 366.607 328.063 351.875C334.065 334.906 342.792 318.617 353.953 303.55C365.413 287.709 377.73 272.481 389.476 256.844C400.745 242.152 411.178 226.995 420.731 211.437C430.125 196.417 437.39 180.527 442.338 164.172C445.613 152.095 447.794 139.922 445.326 127.403C443.63 118.26 438.704 110.094 431.251 104.073C423.887 98.2465 414.556 94.6865 404.446 93.8462C397.052 93.14 389.42 92.9507 382.058 92.7251C375.521 92.6314 368.715 92.5736 362.194 92.7202C357.021 92.6861 352.167 93.3372 346.994 93.303C340.188 93.2455 333.381 93.1876 326.542 92.6494C315.34 91.9687 303.869 91.3241 292.619 89.9224C280.32 88.3371 268.366 85.5502 256.961 81.6091C244.979 77.396 233.473 72.1496 224.121 62.4925C219.648 58.0841 216.475 52.7041 214.851 46.7782C213.228 40.8523 213.199 34.5425 214.766 28.3472C218.594 12.3168 228.487 1.53526 240.428 -7.09643C250.617 -14.3267 262.465 -19.2529 274.847 -21.4079C283.01 -22.8251 291.219 -23.7635 299.422 -24.2168C301.326 -24.2295 303.499 -24.2783 305.403 -24.291C310.576 -24.2569 315.764 -23.9828 320.952 -23.7084L342.23 -22.9232C350.79 -22.3863 359.427 -22.3293 368.091 -22.7526C377.409 -23.2339 386.727 -24.8085 395.806 -27.4368C406.909 -30.9446 417.029 -36.9895 425.114 -44.9427C438.131 -57.8404 446.306 -73.9683 450.513 -92.474C454.261 -109.706 454.74 -126.984 455.22 -144.263C455.467 -152.782 455.445 -161.265 455.963 -169.821C456.653 -179.854 457.344 -189.888 458.59 -199.753C461.366 -223.401 468.013 -246.113 475.502 -268.453C478.43 -277.574 481.629 -286.731 484.557 -295.852M962.367 384.704C961.613 383.678 960.729 382.74 959.731 381.905C945.131 371.744 932.255 359.775 921.436 346.305C912.41 334.983 904.758 322.768 898.594 309.845C891.577 295.976 886.917 281.085 884.759 265.633C882.803 252.627 882.463 239.339 883.746 226.006C885.921 207.463 890.252 189.004 896.669 170.933C903.335 152.583 910.018 134.473 916.414 116.158C921.662 102.605 923.507 88.4284 921.811 74.7023C920.91 67.6673 918.713 60.9179 915.307 54.723C909.415 44.2442 901.126 35.1308 890.933 27.9247C879.503 19.7583 867.836 12.109 855.931 4.97607C836.662 -6.50375 817.154 -17.4668 797.647 -28.4299C784.171 -36.4253 769.587 -42.9304 754.175 -47.8194C743.113 -51.5391 730.588 -51.4917 718.81 -47.6859C710.88 -45.0873 703.324 -41.4592 696.399 -36.9236C679.176 -25.8869 662.255 -14.4057 645.065 -2.88834C630.475 6.82574 615.631 16.8164 601.677 27.9C583.626 42.5095 568.856 60.1005 558.321 79.5357C546.928 100.459 535.837 121.827 524.461 142.991C514.351 161.495 502.914 179.472 490.229 196.797C474.791 218.263 458.496 239.116 442.486 260.174C439.998 263.659 437.224 266.941 434.465 270.462C426.682 280.234 418.867 289.525 411.369 299.501C405.885 306.68 400.929 314.15 396.535 321.856C391.619 330.063 387.453 338.57 384.083 347.285C380.159 357.605 378.524 368.346 379.273 378.868C380.022 389.389 383.14 399.476 388.443 408.527C395.226 420.468 404.26 429.441 413.311 438.653C422.663 448.311 432.808 457.619 442.16 467.276C451.063 476.685 458.69 487.046 464.903 498.172C473.529 513.261 479.793 529.635 486.595 545.938C490.155 554.432 494.001 563.13 498.085 571.311C507.221 589.968 520.766 605.367 533.486 620.634C546.206 635.901 558.926 651.169 567.523 669.898C573.237 681.955 576.85 694.87 578.245 708.224C578.664 713.84 578.679 719.507 578.289 725.19C578.057 736.209 575.951 747.284 572.045 758.031C566.681 773.482 558.143 788.126 546.897 801.165C528.714 822.271 506.367 833.994 481.333 838.077C472.868 839.291 464.373 840.025 455.901 840.273C451.84 840.575 447.73 840.156 443.653 840.218C438.48 840.184 433.022 839.945 427.58 839.947C421.599 840.022 415.363 840.372 409.112 840.483C401.782 840.738 394.436 840.752 387.138 841.488C376.35 842.934 365.848 844.584 355.362 846.474C348.366 847.655 336.258 851.408 328.13 853.68C264.689 871.408 210.595 842.416 236.572 816.5C251.298 801.808 274.257 822.764 306.982 818.765C334.809 815.762 362.206 810.393 389.875 809.109C394.492 808.975 399.093 808.601 403.726 808.707C409.708 808.633 415.452 809.075 421.433 809.001C427.414 808.927 433.65 808.576 439.901 808.466C447.204 808.493 454.54 808.158 461.875 807.46C469.364 806.536 476.819 805.132 484.179 803.258C491.077 801.724 497.723 799.108 503.8 795.537C516.024 788.912 526.385 779.666 533.847 768.719C549.475 746.016 553.011 721.538 545.297 695.659C541.273 682.711 534.669 670.711 525.788 660.209C514.863 647.368 503.446 635.32 492.537 622.72C478.905 607.436 468.365 590.01 461.338 571.136C455.997 556.335 450.655 541.533 444.79 527.045C439.103 512.238 430.941 498.464 420.564 486.164C408.798 472.952 396.238 460.088 384.218 447.151C374.885 437.468 367.116 426.608 361.11 414.85C354.751 401.702 352.187 387.07 353.638 372.209C354.868 360.633 358.143 349.144 363.339 338.177C373.556 315.956 388.362 297.242 402.897 278.565C412.44 266.617 422.269 254.874 431.526 242.723C438.785 233.264 445.49 223.637 452.194 214.01C458.407 205.176 464.081 196.414 469.739 187.413C484.673 163.983 496.37 139.193 504.543 113.648C509.039 99.4674 511.852 84.5429 514.951 69.8225C517.845 56.0996 519.897 42.0047 525.266 28.6773C529.178 18.2363 535.826 8.59915 544.618 0.625555C555.163 -8.54632 567.042 -14.0179 579.176 -19.7659C592.895 -26.2114 606.345 -32.6207 618.508 -42.0095C626.086 -47.3398 632.342 -54.0703 636.787 -61.6741C642.856 -72.6707 642.5 -82.0789 635.354 -91.3043C631.124 -96.6455 625.428 -100.872 618.749 -103.626C605.592 -109.137 591.898 -110.453 577.999 -110.772C568.749 -110.745 559.515 -110.477 550.487 -111.207C538.565 -112.027 527.741 -116.679 519.951 -124.329C511.847 -132.565 505.746 -142.286 501.986 -152.955C498.826 -160.747 496.727 -168.929 495.733 -177.333C494.789 -187.389 493.576 -197.41 493.712 -207.611C494.032 -219.976 495.756 -232.393 498.857 -244.669C503.603 -263.247 508.921 -281.417 514.223 -299.827M964.234 424.936C963.715 424.317 963.131 423.746 962.488 423.23C957.393 420.277 952.313 417.563 947.488 414.573C931.686 405.07 917.559 393.59 905.481 380.44C891.746 365.577 879.983 349.269 870.398 331.801C861.421 315.547 853.492 298.669 849.766 279.529C847.983 269.778 847.138 259.834 847.237 249.803C847.586 238.713 848.937 227.586 851.275 216.53C854.775 200.105 859.319 183.79 864.884 167.669C869.174 154.487 873.734 141.268 877.739 127.881C882.217 114.899 884.09 101.502 883.263 88.3472C882.689 78.2172 879.337 68.5934 873.501 60.3186C867.363 51.6335 859.887 43.8295 851.272 37.1125C841.037 29.1856 830.28 21.8048 819.047 15.0032C805.843 7.04538 791.631 0.418643 776.639 -4.77083C765.853 -8.79284 754.053 -10.6784 741.983 -10.3091C730.586 -9.63296 719.233 -7.12595 708.463 -2.90708C689.705 4.80593 671.887 14.5248 655.428 26.0223C646.309 32.0936 637.762 38.5732 629.231 45.2932C616.686 55.2068 605.455 66.4076 595.809 78.6254C589.041 87.2912 582.844 96.3653 576.647 105.439C568.944 116.413 561.812 127.794 554.395 138.971C544.489 153.634 534.599 168.537 524.408 182.996C517.45 192.899 509.92 202.395 502.661 211.854C497.921 218.308 492.912 224.798 487.903 231.288C484.908 235.327 481.642 239.401 478.63 243.199C467.835 256.769 456.754 270.134 446.245 283.908C439.73 292.298 433.787 301.095 427.574 309.929C418.758 321.765 412.165 334.709 408.086 348.183C405.937 354.445 404.897 360.888 405.006 367.265C405.363 379.614 409.338 391.37 416.534 401.361C422.86 409.811 430.032 417.692 437.97 424.915C448.147 434.704 458.594 444.457 468.788 454.487C480.484 466.194 490.242 479.4 497.804 493.755C504.969 507.342 511.659 521.962 518.318 536.102C525.376 551.69 533.926 566.602 543.879 580.683L572.657 620.468C583.018 634.491 591.093 649.883 596.664 666.227C599.399 674.5 601.598 682.948 603.251 691.53C604.077 697.798 604.501 704.137 604.518 710.514C604.665 716.798 604.257 722.914 603.849 729.03C602.252 750.608 596.113 772.084 585.76 792.312C577.657 809.267 567 825.309 554.11 839.953C545.15 850.551 534.707 860.109 523.08 868.358C511.285 876.332 496.921 880.168 482.979 879.067C474.236 878.541 465.731 877.499 457.21 876.217C440.47 874.096 423.681 871.255 406.578 871.85C399.518 872.069 391.246 867.659 384.218 868.358C358.375 870.926 329.194 880.056 303.5 883.5C270.841 887.877 229.245 882.813 202.222 861.536C176.935 841.626 164.5 794.904 161.5 772C157.37 740.471 191.367 733.267 208 737.163C254.278 748 246.5 775.5 312.691 786.003C320.576 785.916 328.446 785.589 336.299 785.021C341.995 784.743 347.389 784.02 353.069 783.501C356.591 783.272 359.843 783.078 363.365 782.848C369.061 782.57 375.042 782.495 380.754 782.457C385.101 782.359 389.702 781.986 394.066 782.128C399.238 782.162 404.712 782.641 410.154 782.639C417.5 782.624 424.846 782.609 432.176 782.354C439.506 782.099 446.836 781.844 454.15 781.349C457.672 781.119 461.4 779.892 465.176 779.386C474.383 777.867 483.275 774.52 491.189 769.596C500.538 764.064 508 756.201 512.544 747.094C520.514 731.964 520.836 716.404 515.193 701.158C511.377 690.994 505.696 681.603 498.37 673.347C488.048 661.396 477.219 649.997 466.644 638.322C456.392 626.827 448.031 614.003 441.786 600.193C435.08 585.332 430.737 569.185 425.616 553.627C421.923 541.842 417.248 530.394 411.629 519.375C402.271 501.475 389.044 486.761 375.849 472.527C365.575 461.297 355.318 450.306 347.359 437.067C338.194 422.051 332.2 405.64 332.567 386.679C332.744 374.522 334.955 362.293 339.125 350.401C345.296 333.577 354.122 317.443 365.317 302.521C376.524 286.957 388.619 272.486 400.111 257.126C412.839 239.902 426.122 222.847 437.12 204.159C447.642 186.504 457.053 168.513 462.798 148.589C467.469 134.24 468.889 119.443 466.971 105.115C464.66 90.8769 458.227 80.1012 447.655 72.5473C435.638 63.7323 421.944 62.4153 407.872 63.574C402.647 64.2747 397.442 65.2152 392.277 66.3916C385.551 67.5356 378.873 69.4005 372.13 70.3042C359.724 71.967 347.318 73.6296 334.864 74.5714C325.937 75.2152 317.028 75.2749 308.209 74.7497C292.962 74.1935 278.243 70.9801 264.856 65.2854C256.126 61.9666 248.861 56.3788 243.916 49.1801C241.462 45.8103 239.923 41.9225 239.413 37.7976C238.902 33.6727 239.432 29.4139 240.964 25.3301C243.327 19.32 247.258 13.7961 252.408 9.24886C262.682 0.113142 274.976 -3.23191 287.318 -5.85591C290.746 -6.43521 294.202 -6.65414 297.615 -6.50844C305.17 -6.92543 312.707 -6.96446 320.192 -6.6251C337.456 -4.81715 354.751 -2.52847 372.015 -0.720513C378.734 0.0935618 385.583 0.312688 392.467 -0.0668921C398.419 -0.662715 404.356 -1.62085 410.235 -2.93369C416.502 -4.4543 422.449 -7.15338 427.666 -10.846C439.402 -18.4803 448.739 -29.4305 456.346 -41.8455C469.119 -62.4691 473.592 -85.1321 472.797 -109.271C472.099 -131.969 468.703 -154.305 469.639 -176.979C469.838 -186.219 470.307 -195.495 471.316 -204.843C473.088 -221.186 476.555 -237.48 481.673 -253.511C485.045 -264.146 488.147 -274.745 491.519 -285.38C492.896 -289.202 494.544 -293.059 495.921 -296.881M962.144 401.703C961.572 401.295 960.969 400.406 960.397 399.997C943.58 389.648 928.643 377.128 916.008 362.789C899.678 344.502 886.987 323.688 878.424 301.151C871.999 284.734 868.629 267.262 868.439 249.391C868.449 239.464 869.146 229.492 870.527 219.532C873.456 202.11 877.943 184.804 883.944 167.787C889.866 150.506 896.057 133.189 901.693 115.705C905.713 102.558 908.083 89.1475 905.281 75.703C904.07 69.1766 901.727 62.9484 898.334 57.2375C892.586 47.5024 884.724 39.0117 875.167 32.2178C862.277 22.55 848.642 13.9514 835.022 5.59354C822.546 -1.94766 809.832 -8.97164 796.611 -15.4432C779.152 -24.2562 761.218 -32.0358 741.099 -31.764C733.146 -31.7501 725.13 -30.512 717.398 -28.1026C707.593 -24.625 698.126 -20.2683 689.15 -15.103C671.043 -4.90296 653.521 6.1889 636.673 18.1159C629.14 23.4897 621.608 28.8631 614.377 34.6814C602.9 43.9487 592.627 54.3662 583.794 65.6934C571.018 82.1957 560.528 100.331 550.053 118.707C537.662 141.069 523.948 162.9 508.976 184.099C494.299 204.736 479.018 224.483 463.769 244.711L454.988 255.829C444.684 268.606 434.11 281.418 424.109 294.639C419.1 301.129 414.948 308.232 410.225 314.927C402.468 326.269 396.496 338.422 392.496 351.004C389.461 361.025 388.695 371.316 390.247 381.242C391.799 391.167 395.635 400.517 401.519 408.712C409.333 419.788 418.907 428.688 428.227 437.864C436.372 445.743 444.501 453.382 452.376 461.298C463.172 472.41 472.312 484.78 479.597 498.139C487.62 512.339 493.533 527.549 499.986 542.686C505.309 556.178 512.092 569.07 520.243 581.189C528.645 592.913 537.57 604.325 546.495 615.736C558.088 630.427 569.411 645.154 577.674 662.958C586.094 680.761 590.175 700.27 589.663 720.269C589.222 730.332 587.801 740.42 585.417 750.417C581.357 767.493 573.881 784.03 563.367 799.197C552.684 814.449 539.969 827.791 524.824 837.337C514.199 844.493 501.986 849.297 489.294 851.313C482.551 852.216 475.523 852.916 468.749 853.339C462.783 853.653 456.77 853.247 450.788 853.321C444.807 853.396 438.523 853.026 432.526 852.86C425.45 852.838 418.373 852.817 411.313 853.036C404.915 852.888 398.477 853.103 392.036 853.68C380.979 855.162 369.667 856.92 358.372 858.919C351.899 859.786 345.744 861.339 339.304 862.687C307.888 869.08 263.388 880.211 233.348 862.687C191.161 838.077 182.976 765.627 220.223 768.579C254.369 771.285 271.051 806.096 310.401 804.727C317.176 804.304 323.649 803.436 330.407 802.773C345.003 801.302 359.329 799.866 373.925 798.395C379.538 797.875 385.151 797.609 390.742 797.596C396.724 797.522 403.007 797.892 408.989 797.818C416.604 797.767 423.934 797.511 431.55 797.46C439.705 797.337 447.876 797.455 455.999 796.851C464.985 796.087 473.924 794.236 482.571 791.35C496.64 787.208 509.266 779.229 518.602 768.579C536.057 748.783 540.514 725.879 533.658 700.612C529.726 687.469 522.912 675.372 513.593 664.994C503.557 653.246 492.744 642.087 482.455 630.616C468.155 614.82 457.19 596.693 450.033 577.014C444.072 561.084 438.887 544.564 432.656 528.67C426.848 513.836 418.499 500.079 407.891 487.862C398.157 476.558 387.646 465.844 377.388 454.854C367.256 444.279 358.786 432.46 352.183 419.682C345.84 406.106 343.165 391.125 344.361 375.875C345.513 362.106 349.489 348.419 356.089 335.51C365.895 315.284 379.448 298.193 392.446 280.934C402.718 267.677 413.545 254.587 423.817 241.33C430.347 233.181 436.291 224.383 442.25 215.826C446.466 209.685 450.396 203.339 454.327 196.993C464.273 181.074 472.729 164.527 479.597 147.54C483.475 137.938 486.462 128.128 488.525 118.218C490.972 107.92 492.193 97.5138 492.167 87.1803C492.087 77.8224 491.466 68.5178 490.306 59.3045C488.824 49.32 485.723 39.5522 484.24 29.5677C482.212 16.5971 484.028 3.06974 489.511 -9.6892C494.468 -21.0218 499.426 -32.3546 504.4 -43.4469C510.155 -56.3381 511.051 -70.2146 506.942 -82.8229C500.946 -103.355 492.84 -122.878 488.429 -144.108C486.773 -152.615 485.133 -160.881 484.016 -169.459C482.473 -182.305 482.421 -195.379 483.861 -208.474C485.583 -224.077 488.637 -239.645 492.998 -255.038C497.192 -269.663 501.671 -284.084 505.865 -298.708M989.866 800.684C987.298 802.968 984.745 805.492 982.176 807.776C975.501 813.763 968.826 819.749 962.134 825.495C956.59 830.484 949.572 833.887 942.102 835.211C936.676 835.76 931.281 835.329 926.235 833.943C917.095 831.531 908.445 828.326 899.542 825.398C871.859 815.46 842.405 809.206 812.043 806.818C805.76 806.448 799.476 806.078 793.225 806.188C785.07 806.311 776.947 806.915 768.808 807.279C763.765 807.309 758.691 807.827 753.673 808.823C745.345 810.424 736.81 813.022 728.498 814.863C717.4 817.661 706.532 821.391 696.044 826.002C689.414 828.588 683.387 832.063 676.773 834.889C665.94 839.735 655.392 844.786 644.511 848.911C637.342 851.569 630.06 852.545 623.234 848.126C618.759 845.185 615.838 840.728 615.054 835.645C613.128 827.174 615.026 818.919 616.654 810.7C619.927 794.501 624.041 778.675 627.583 762.441C631.133 747.355 633.303 732.142 634.071 716.959C634.415 709.882 634.473 702.6 634.547 695.559C634.48 690.476 634.667 685.117 634.044 679.867C632.529 665.782 629.512 651.979 625.034 638.644C621.329 627.988 616.832 617.68 612.081 607.649C602.896 588.271 590.841 570.732 580.356 552.256C570.808 535.594 562.037 518.343 552.997 501.128C541.78 479.84 529.532 459.418 513.955 442.109C504.597 431.613 494.574 421.625 483.931 412.19C477.58 406.737 471.23 401.284 465.133 395.555C456.769 388.005 449.773 379.306 444.362 369.728C438.888 359.479 437.335 347.634 439.926 335.894C442.48 324.012 447.328 312.444 454.244 301.728C464.988 283.316 478.32 266.982 490.81 250.276C498.308 240.3 506.377 230.732 514.16 220.961C522.704 210.36 531.232 199.519 540.046 188.882C560.923 163.293 580.339 136.202 600.343 109.76C611.636 94.2805 624.624 79.7797 639.089 66.5013C655.054 51.8352 673.339 39.3939 693.229 29.6648C701.142 25.6204 709.545 22.5362 718.196 20.4998C722.225 19.7173 726.206 18.2139 730.252 17.6716C747.792 15.384 765.217 17.8648 780.251 24.7903C789.123 28.7887 797.316 33.7975 804.648 39.7047C813.12 46.6126 820.266 54.7277 825.847 63.7764C830.047 70.8144 832.775 78.5719 833.908 86.6991C836.315 102.379 833.248 117.58 829.372 132.889C824.277 151.356 818.141 169.659 810.991 187.724C807.318 197.914 803.374 208.141 799.717 218.572C795.59 229.786 792.977 241.293 791.936 252.831C791.046 266.004 793.775 278.879 799.88 290.317C807.078 304.385 816.574 316.205 825.817 328.301C837.728 343.677 849.908 359.016 862.342 374.079C869.139 382.139 876.443 389.646 883.747 397.153C898.682 412.414 916.136 425.502 935.593 436.029C944.641 441.12 954.164 445.178 963.449 449.753C964.327 450.354 965.273 450.876 966.274 451.313M473.768 -294.405C470.586 -285.008 467.134 -275.574 464.221 -266.213C458.08 -248.473 452.919 -230.545 448.759 -212.497C446.119 -199.05 444.304 -185.472 443.029 -171.966C441.503 -154.062 440.247 -136.194 437.88 -118.663C435.56 -100.41 429.639 -83.1293 418.083 -68.7302C410.528 -59.05 400.16 -51.3359 388.271 -46.5502C376.882 -41.8719 364.984 -40.7621 353.101 -39.4119C346.538 -39.0651 339.995 -39.0784 333.506 -39.4524C328.334 -39.4865 322.908 -39.2443 317.735 -39.2784C312.563 -39.3125 306.835 -39.5147 301.663 -39.5488C299.318 -39.676 296.956 -39.6835 294.586 -39.5706C285.212 -38.9581 275.837 -37.8633 266.506 -36.2917C250.602 -33.1424 235.607 -26.0909 223.238 -15.9451C209.512 -5.19733 199.506 8.86338 194.628 24.2579C192 31.937 191.387 39.9054 192.841 47.5084C194.294 55.1113 197.773 62.1316 202.99 67.9918C212.12 78.4059 223.675 84.3735 235.689 89.0671C248.826 94.4237 262.789 98.2518 277.267 100.467C288.549 102.349 299.799 103.751 311.049 105.152C321.189 106.218 331.581 107.007 341.705 107.833C352.923 108.754 364.141 109.674 375.375 110.836C386.256 111.765 396.625 114.661 405.876 119.356C415.375 124.335 422.132 132.51 424.821 142.275C427.019 150.628 427.052 159.488 424.919 168.204C421.309 184.382 414.825 200.157 405.723 214.904C393.284 236.453 378.225 255.443 363.467 274.878C350.44 291.399 338.767 308.689 328.552 326.595C318.947 343.63 312.958 361.889 310.916 380.359C308.229 408.469 315.385 435.835 331.376 458.597C340.398 471.451 350.466 483.679 360.264 495.943C373.593 511.865 383.878 529.793 390.75 549.077C394.804 560.899 397.812 573.347 401.073 585.517C403.539 593.915 405.464 602.385 408.199 610.747C411.844 621.747 416.467 632.396 422.026 642.596C429.468 655.257 437.823 667.416 447.042 679.006C452.79 685.854 457.581 693.347 461.322 701.338C464.58 709.387 465.681 717.726 459.975 726.006C456.678 731.084 451.518 735.055 445.481 737.163C437.156 740.576 428.234 742.27 419.417 742.11C415.633 742.134 411.832 742.4 408.042 742.907C401.537 743.294 395.269 743.165 388.765 743.552L380.626 743.915C374.121 744.302 367.362 744.965 360.841 745.112C354.876 745.426 349.148 745.224 343.183 745.539C338.026 745.745 332.616 746.228 327.444 746.194C320.637 746.136 313.545 745.875 306.706 745.337C251.576 740.385 175.5 675.102 135 680.745C105.762 684.82 93.5 709 108.632 751.5C119.472 781.943 131.415 820.587 140 843.5C153.402 879.269 160.475 888.192 191.161 903.478C209.086 912.407 239.724 911.592 270 911.592C299.994 911.592 313.891 910.821 339.303 908.5C364.512 905.565 379.996 905.21 400.143 914.275C414.551 920.758 420.215 926.055 427.887 939.089C432.211 947.249 435.35 955.948 437.236 964.992C441.611 981.62 446.509 997.935 455.357 1012.27C462.46 1024.12 472.513 1034.19 484.81 1041.78C493.692 1047.13 503.103 1051.78 512.951 1055.71C523.838 1059.82 534.979 1063.66 546.136 1067.74L577.131 1079.59C583.544 1082.63 590.699 1084.39 598.158 1084.78C601.611 1084.58 605.024 1083.53 608.024 1081.76C615.063 1078.05 621.879 1073.98 628.435 1069.56C641.19 1060.79 655.083 1053.54 669.719 1048.03C677.951 1044.99 686.453 1041.91 694.718 1039.34C702.459 1037.09 710.232 1035.33 717.989 1033.32C727.348 1030.85 736.438 1028.42 745.813 1026.19C751.159 1024.75 756.822 1023.99 762.438 1022.51C768.587 1020.96 774.72 1019.17 780.853 1017.38L780.871 1017.37C785.677 1016 790.23 1014.91 795.02 1013.29C802.667 1011.25 810.227 1008.86 817.672 1006.14C828.807 1001.73 839.64 996.887 850.441 991.56C870.441 981.266 888.311 967.661 903.008 951.541C911.648 942.382 919.987 932.778 928.628 923.619C933.411 917.854 947.598 884.058 965.939 863.228C996.817 828.163 1066.54 800.047 1066.54 800.047M525.555 -301.345C523.814 -294.808 522.074 -288.271 520.048 -281.938C514.591 -264.159 510.788 -246.129 508.679 -228.043C507.847 -220.719 507.699 -213.399 508.235 -206.163C509.339 -193.703 511.505 -181.628 517.653 -171.056C524.126 -158.311 536.205 -148.858 551.245 -144.767C563.099 -142.063 575.329 -140.454 587.756 -139.962C608.96 -138.747 629.383 -134.006 648.01 -125.974C658.719 -121.285 668.547 -115.263 677.233 -108.069C681.067 -104.706 684.423 -100.926 687.237 -96.8025C689.555 -93.5549 690.884 -89.7646 691.103 -85.7732C691.322 -81.7817 690.424 -77.7144 688.491 -73.9371C685.154 -67.0583 680.725 -60.5797 675.352 -54.7193C663.441 -41.9832 649.95 -30.4838 635.188 -20.4834C622.691 -12.0197 609.861 -4.48152 597.38 4.22246C584.377 13.239 571.389 22.4963 561.102 35.5131C551.668 47.8575 544.129 61.1957 538.711 75.1247C532.344 89.7982 526.532 104.64 520.45 119.517C512.875 137.557 503.768 155.155 493.214 172.144C486.59 182.973 479.426 193.874 472.231 204.294C463.038 217.406 453.845 230.519 444.081 243.223C433.064 257.55 422.031 271.636 410.713 285.518C399.056 299.64 388.759 314.573 379.949 330.132C373.069 342.226 368.584 355.15 366.713 368.275C365.271 379.318 366.283 390.311 369.687 400.608C374.091 413.335 381.24 424.966 390.751 434.881C397.817 442.904 405.628 449.859 413.218 457.57C425.742 469.522 436.825 482.653 446.311 496.777C452.509 506.586 457.749 516.913 461.978 527.652C467.843 542.14 473.185 556.941 479.303 571.154C485.921 586.323 494.825 600.456 505.783 613.187C516.994 626.232 528.458 639 539.416 652.321C549.368 664.298 556.563 678.054 560.626 692.878C562.132 698.531 563.244 704.293 563.955 710.131C565.192 717.846 565.08 725.793 563.623 733.694C562.538 740.852 560.83 747.972 558.514 754.988C554.867 765.297 549.36 775.135 542.224 784.084C532.643 796.57 519.685 806.771 504.738 813.596C498.057 816.81 490.968 819.15 483.705 820.537C476.833 821.98 469.91 823.07 462.97 823.801C454.038 824.513 445.343 824.709 436.633 824.664C427.113 824.727 417.562 824.311 408.058 824.615C401.267 824.797 394.493 825.22 387.734 825.884M1076.97 729.106C1075.2 730.326 1017.89 749.232 981.864 766.359C973.674 770.253 967.923 773.562 961.055 776.664C952.17 780.916 943.067 784.726 933.789 788.077C927.58 790.115 921.178 791.462 914.737 792.086C904.635 792.622 894.556 792.678 884.544 792.253C869.804 791.562 855.031 790.389 840.275 789.457C829.073 788.777 817.586 787.892 806.384 787.212C801.195 786.937 795.769 787.179 790.597 787.145C783.521 787.123 776.714 787.066 769.654 787.285C766.671 787.443 763.672 787.359 760.975 787.721C746.665 789.396 732.085 791.108 717.775 792.783C711.572 793.615 705.164 795.444 698.928 795.794C691.075 796.362 683.508 797.134 675.764 795.262C665.242 792.551 659.065 785.62 657.47 773.953C656.45 766.816 655.699 759.643 655.487 752.398C655.276 745.152 656.143 737.762 656.201 730.481C656.372 724.881 656.003 719.355 656.443 713.719C656.833 699.88 656.278 686.108 654.779 672.482C653.916 663.513 652.506 654.637 650.555 645.893C647.548 632.256 643.294 618.962 637.833 606.138C632.652 593.74 626.931 581.414 621.496 569.292C615.14 555.596 608.53 542.177 602.189 528.722C596.819 517.561 591.448 506.401 586.346 495.204C574.856 470.749 558.851 448.494 538.954 429.304C532.556 423.13 526.141 416.716 519.489 410.819C509.947 402.399 499.898 394.533 490.626 386.077C481.977 378.708 474.869 369.995 469.585 360.287C466.28 354.352 464.536 347.716 464.478 340.848C464.661 334.468 465.695 328.061 467.558 321.766C471.754 308.636 478.164 295.996 486.554 284.306C493.243 274.439 499.915 264.331 507.191 255.113C517.462 241.856 528.036 229.043 538.609 216.23C545.647 207.528 552.702 199.066 559.756 190.605C570.329 177.792 580.903 164.979 591.46 151.927C595.249 147.539 598.466 142.744 602.255 138.357C617.822 118.814 633.134 99.547 651.654 83.4872C667.066 69.7836 683.987 58.3024 702.561 51.2063C708.668 48.9331 715.093 47.3445 721.232 45.5519C731.204 43.051 741.494 42.8402 751.123 44.9398C760.05 46.8399 768.263 50.4477 775.231 55.5291C783.23 61.0959 789.646 68.2558 794.048 76.5254C799.646 87.1173 802.123 99.0257 801.26 111.2C800.382 129.373 795.881 147.551 787.972 164.866C778.721 185.26 768.629 205.282 758.806 225.268C753.706 235.212 749.92 245.572 747.532 256.117C746.246 262.324 745.66 268.577 745.784 274.777C746.176 286.188 750.099 296.992 757.119 305.99C763.875 314.389 771.778 321.956 780.665 328.535C795.82 340.231 810.187 352.712 823.705 365.924C835.645 377.659 846.856 390.703 858.542 402.714C873.134 417.488 888.217 431.469 905.281 442.517C916.403 449.865 928.209 456.388 940.598 462.029C949.295 465.955 958.23 469.365 966.927 473.29C967.752 473.764 968.517 474.311 969.213 474.924M463.286 -292.508C462.811 -291.475 462.05 -290.645 461.575 -289.612C456.951 -277.354 452.327 -265.096 448.258 -252.67C442.179 -233.671 436.101 -214.672 433.354 -194.665C430.971 -177.374 428.874 -159.878 426.49 -142.587C424.281 -126.774 421.262 -110.851 414.069 -96.3097C405.688 -79.1843 393.384 -67.8369 377.507 -61.1023C366.135 -56.1836 354.236 -55.0741 342.353 -53.724C334.63 -53.2196 326.92 -53.076 319.253 -53.2945C312.176 -53.3159 305.337 -53.8544 298.261 -53.8758C292.819 -53.8738 287.409 -53.3908 282.253 -53.1846C276.034 -52.5935 269.782 -52.4832 263.865 -51.4477C249.774 -49.0894 236.168 -43.9516 224.052 -36.4133C208.523 -26.5886 195.483 -13.7897 186 0.933625C178.573 11.6616 173.613 23.4796 171.445 35.6162C170.13 42.9098 170.537 50.2324 172.637 57.0988C174.738 63.9652 178.484 70.2181 183.627 75.4433C191.609 83.8327 201.488 90.5809 212.708 95.3065C227.176 101.897 242.675 106.743 258.841 109.732C278.407 113.414 297.957 116.855 317.728 119.539C335.04 122.068 352.573 123.84 369.458 128.123C379.036 130.19 387.712 134.349 394.757 140.25C400.976 145.678 405.056 152.82 406.465 160.744C408.728 174.261 405.501 187.059 400.607 199.353C395.343 212.713 388.244 225.561 379.485 237.582C372.273 247.762 365.331 257.906 358.12 268.086C353.65 274.504 348.323 280.309 343.854 286.727C332.917 302.256 321.997 318.024 313.918 335.594C306.343 351.344 301.565 367.871 299.769 384.528C298.765 393.314 298.713 402.091 299.614 410.733C301.264 425.666 305.53 440.065 312.258 453.408C320.743 470.455 332.034 484.702 343.104 499.705C349.679 508.522 355.461 517.688 361.512 526.818C368.461 538.271 373.673 550.609 377.024 563.532C379.872 573.576 381.91 583.729 384.218 593.845C388.818 613.837 393.417 633.829 400.143 653.052C403.196 662.099 405.995 671.422 408.794 680.745C412.707 694.526 408.494 704.788 396.679 711.221C390.463 714.367 383.819 716.649 376.993 717.981C370.966 719.546 364.867 720.768 358.734 721.641C348.47 722.774 338.427 723.151 328.13 723.803C318.579 724.415 309.102 723.807 299.982 721.999C273.547 717.604 208.424 677.437 157.37 664.742C119.138 655.235 81.7955 663.356 81.5 711.221C81.2919 744.927 93.3215 779.209 106.5 813.596C124.992 861.847 141.5 906.95 178.5 920.5C207.873 931.256 231.593 924.426 257.5 924.5C296.023 924.61 311.823 928.506 339.303 927.888C350.546 927.198 361.692 927.991 372.386 930.243C388.144 933.95 400.478 943.449 408.581 958.85C414.206 969.734 419.307 980.931 424.678 992.092C431.212 1007.11 440.204 1021.01 451.379 1033.37C462.378 1044.71 475.111 1054.58 489.257 1062.72C501.463 1070.3 514.177 1077.32 524.926 1087.52C533.484 1095.4 539.239 1105.45 541.559 1116.57C542.638 1122.55 543.047 1128.67 542.778 1134.83C542.687 1141.63 542.058 1148.5 541.428 1155.38M1090.6 689.222C1072.93 698.759 1025.97 713.373 984.848 729.59C969.816 735.518 959.121 739.585 946.416 744.924C936.09 749.218 926.034 753.475 915.66 757.048C909.166 759.137 902.539 760.755 895.847 761.886C891.335 763.095 886.748 763.952 882.14 764.45C874.287 765.017 866.687 765.309 858.818 765.636C854.201 765.77 849.6 766.144 844.967 766.038C839.795 766.004 834.622 765.969 829.434 765.695C823.167 765.565 816.899 765.435 810.616 765.065C806.253 764.922 801.874 764.54 797.51 764.397C791.243 764.267 784.976 764.137 778.692 763.767C771.33 763.542 763.952 763.076 756.305 762.646C748.657 762.216 741.311 762.231 733.917 761.525C724.333 760.627 714.987 759.213 706.225 754.326C697.251 748.761 691.087 740.298 688.85 730.469C686.715 723.001 685.382 715.306 684.867 707.485C684.257 698.353 683.362 689.017 682.483 679.922C681.604 670.826 680.439 661.526 678.75 652.539C675.507 633.44 670.619 614.723 664.129 596.552C658.437 580.585 652.206 564.691 646.768 548.448C641.362 532.685 636.749 516.574 631.613 500.775C627.209 487.788 623.09 475.005 617.909 462.606C612.694 450.667 605.351 439.707 596.148 430.124C583.557 416.779 568.747 406.884 554.444 396.436C544.427 389.05 534.664 381.388 524.647 374.002C515.632 367.263 508.094 359.092 502.353 349.834C497.48 341.821 495.351 332.527 496.209 323.017C497.025 310.785 501.762 300.21 507.07 290.042C515.043 274.69 524.836 260.04 536.263 246.367C549.849 229.756 564.275 213.517 578.162 197.351C591.05 182.531 603.685 167.987 616.59 153.408C628.148 139.776 640.441 126.637 653.418 114.043C663.582 104.154 675.208 95.5667 687.909 88.5685C696.991 83.6427 707.023 80.5569 717.239 79.5462C731.898 79.0361 744.706 83.3809 752.507 98.3375C755.009 103.377 756.566 108.815 757.12 114.449C757.877 125.874 756.256 137.517 752.337 148.791C746.955 166 738.16 180.998 729.937 196.406C723.393 208.436 716.849 220.466 711.162 233.109C704.84 247.044 700.766 261.561 699.072 276.189C697.453 288.732 698.842 301.199 703.144 312.739C707.226 323.171 714.189 332.311 723.424 339.359C733.581 346.397 744.557 352.477 756.201 357.514C772.501 365.27 788.548 373.303 802.677 385.229C814.203 394.837 825.491 404.962 836.779 415.087C844.305 421.837 851.609 429.344 859.134 436.094C873.894 449.59 890.668 461.191 909.058 470.621C920.597 476.348 932.39 481.799 944.166 487.009C952.006 490.322 960.068 492.879 967.892 495.952C968.717 496.425 969.482 496.972 970.178 497.585M447.879 -290.937C443.255 -278.679 438.631 -266.421 434.023 -253.923C426.941 -235.782 421.442 -217.289 417.578 -198.621C414.922 -185.415 413.091 -172.077 410.974 -158.943C408.463 -143.574 405.682 -128.169 399.028 -113.699C392.85 -100.263 383.751 -89.8308 371.681 -83.1216C363.166 -78.5094 353.806 -75.5181 344.239 -74.3518C334.008 -73.0159 323.746 -72.5336 313.587 -72.9107C304.035 -73.3277 294.484 -73.7445 284.964 -73.6809C277.209 -73.6482 269.424 -73.2523 261.642 -72.4948C255.781 -72.073 249.924 -71.2879 244.111 -70.1452C234.529 -67.8589 225.3 -64.1629 216.814 -59.2129C202.197 -50.0321 189.312 -38.6956 178.775 -25.7472C166.818 -11.8439 156.845 3.27355 149.122 19.2027C144.533 28.4972 141.777 38.3119 140.988 48.1755C140.391 58.8484 143.552 69.1152 150.021 77.5141C158.66 88.7215 170.279 95.6503 182.12 101.822C195.5 108.512 209.816 113.751 224.795 117.439C246.409 123.27 268.45 127.347 290.475 131.184C304.519 133.666 318.578 136.388 332.4 139.627C343.569 141.82 354.114 145.646 363.633 150.959C371.469 155.241 377.415 161.727 380.655 169.528C382.628 174.463 383.535 179.767 383.331 185.172C382.281 202.042 375.627 216.512 367.308 230.477C361.682 239.96 355.215 249.07 349.018 258.144C343.312 266.425 337.321 274.502 331.599 282.542C319.932 298.521 309.67 315.223 300.918 332.479C292.433 349.704 286.936 367.79 284.631 386.062C283.921 391.734 283.751 397.334 283.58 402.933C283.295 407.477 283.415 412.001 283.939 416.462C285.434 431.966 289.277 447.028 295.363 461.241C302.802 478.913 313.332 493.989 323.624 509.581C333.012 523.84 341.876 538.412 347.631 555.34C350.623 563.791 352.93 572.475 354.536 581.327C355.541 588.224 356.831 595.325 357.836 602.221C359.113 613.203 360.12 624.221 360.588 635.311C361.223 644.797 359.742 654.473 356.23 663.778C354.287 668.705 351.115 673.254 346.971 677.053C342.828 680.852 337.829 683.796 332.383 685.644C325.904 688.119 319.055 689.449 312.236 689.556C305.298 689.608 298.428 689.067 291.72 687.942C281.196 686.171 271.11 683.12 261.726 678.869C235.336 667.623 208.202 658.168 182.091 645.893C77.196 597.609 37 653.857 58 730.469C66.4188 761.183 79.8942 797.045 92.5 823.801C104.608 849.501 107.983 887.729 132 911.592C157.37 936.8 181.463 951.996 225 947.806C264 944.052 275.241 946.186 310.401 948.596C324.504 949.563 339.51 953.033 351.208 955.391C366.696 959.134 379.523 967.841 389.147 981.583C394.579 989.584 399.774 998.101 404.952 1006.38C415.023 1022.73 425.332 1038.56 438.716 1051.56C448.326 1060.74 458.714 1069.23 469.801 1076.97C478.675 1083.54 487.549 1090.11 495.662 1097.51C505.984 1106.7 513.311 1118.31 516.963 1131.26C519.375 1140.06 520.712 1149.14 520.949 1158.37M1093.85 655.201C1092.32 656.076 1022.05 675.441 977.482 692.509C955.951 700.756 940.905 707.11 922.935 715.095C913.434 719.52 903.648 723.742 893.83 727.482C886.554 729.918 879.136 731.884 871.637 733.366C865.769 734.758 859.838 735.796 853.885 736.473C846.587 737.208 839.241 737.223 831.911 737.478C816.719 737.803 801.68 736.649 787.055 734.034C774.123 731.888 761.142 729.021 749.539 722.333C738.51 715.794 730.349 706.122 726.196 694.669C722.826 685.24 720.268 675.534 718.543 665.631C715.311 649.819 712.078 634.008 707.767 618.341C703.106 601.509 697.129 585.338 691.929 568.578C686.43 552.939 682 536.936 678.662 520.652C677.323 512.831 675.731 505.285 674.662 497.428C673.626 490.05 672.303 482.469 672.076 474.983C671.393 464.056 671.385 453.049 672.052 442.012C672.348 433.496 674.263 424.958 677.714 416.765C679.407 413.077 681.935 409.691 685.125 406.836C688.316 403.982 692.094 401.727 696.201 400.225C704.164 397.218 712.319 397.095 720.744 396.935C733.323 396.976 745.648 398.759 757.288 402.221C771.406 406.41 784.365 412.881 795.571 421.336C805.302 428.517 814.558 436.733 824.067 444.671C839.07 457.451 853.835 470.746 870.328 481.386C881.488 488.636 893.38 494.99 905.882 500.382C915.388 504.199 924.657 508.533 934.148 512.11C945.321 516.432 956.747 520.477 968.19 524.762C969.443 525.353 970.59 526.096 971.603 526.972M1144.54 605.975C1107.75 603.762 1041.65 626.478 979.309 650.57C967.527 655.123 959.148 658.364 949.378 662.825C933.549 670.281 918.324 678.625 902.511 686.321C892.99 691.043 883.174 695.194 873.136 698.744C863.867 701.798 854.256 703.576 844.644 704.017C834.761 704.567 824.979 703.752 815.639 701.601C804.688 699.246 794.762 694.508 786.689 687.782C779.316 681.448 773.77 673.576 770.457 664.742C766.515 654.602 763.112 644.39 759.979 634.142C754.827 618.103 748.882 602.413 742.159 587.312C734.753 570.12 726.807 553 721.225 534.594C718.784 525.951 717.012 517.116 715.923 508.15C714.871 499.285 714.907 490.256 716.03 481.223C717.292 471.598 720.507 462.681 727.102 455.493C731.31 450.722 737.182 447.348 743.612 446.006C757.302 443.202 769.538 447.139 781.394 453.551C791.434 459.237 800.72 465.871 809.111 473.354C826.669 487.73 844.228 502.106 863.735 513.069C877.299 520.404 891.549 526.761 906.365 532.086C923.664 538.496 940.963 544.906 958.294 551.797C963.594 553.753 968.42 556.744 973.483 559.217M628.682 -325.857C638.201 -305.554 649.543 -286.465 664.485 -270.526C672.796 -262.006 681.691 -253.969 691.126 -246.456C701.207 -238.109 712.033 -230.832 720.878 -220.622C727.768 -213.262 731.888 -204.027 732.717 -194.083C733.312 -185.802 730.922 -177.327 725.896 -169.893C722.323 -163.937 716.533 -159.187 709.643 -156.562C702.802 -154.135 695.461 -153.748 688.764 -155.461C678.275 -157.692 667.754 -160.404 657.502 -163.151C641.478 -167.553 624.976 -170.773 608.152 -172.781C593.617 -174.47 579.147 -175.198 565.023 -178.881C554.674 -181.116 545.497 -185.989 538.537 -192.944C531.578 -199.899 527.117 -208.657 525.662 -218.218C524.72 -222.841 524.044 -227.524 523.637 -232.252C522.713 -243.591 523.591 -255.136 526.246 -266.545C529.583 -281.782 534.03 -296.683 537.922 -311.752C538.16 -312.269 538.667 -312.822 538.905 -313.339M430.486 -298.807C428.569 -294.913 426.636 -291.259 425.005 -287.161C418.464 -271.01 411.653 -254.822 405.684 -238.262C400.643 -223.282 396.747 -208.095 394.023 -192.814C391.162 -178.611 388.57 -164.444 384.312 -150.781C380.054 -137.117 372.701 -124.979 360.965 -117.344C355.56 -113.478 349.285 -110.803 342.709 -109.563C338.636 -108.493 334.491 -107.775 330.335 -107.42C322.383 -107.094 314.464 -107.248 306.631 -107.879C288.758 -109.621 271.353 -113.227 254.756 -118.626C248.553 -120.334 242.712 -122.813 237.394 -125.998C231.155 -129.768 228.613 -135.246 232.415 -143.514C236.692 -152.816 241.255 -161.914 245.834 -170.771C252.885 -183.448 258.038 -196.784 261.147 -210.404C262.986 -218.304 263.462 -226.302 262.558 -234.112C261.517 -243.741 258.785 -253.029 254.462 -261.637C252 -265.913 249.538 -270.19 246.789 -274.671M616.007 -324.157C624.665 -308.588 633.07 -292.742 641.998 -277.209C648.792 -265.929 656.603 -255.222 665.36 -245.184C670.95 -238.902 676.539 -232.62 681.859 -226.302C686.42 -221.493 689.843 -215.863 691.946 -209.712C694.045 -202.719 692.812 -196.735 684.961 -192.046C679.94 -189.542 674.338 -188.37 668.86 -188.676C657.976 -188.672 647.297 -189.665 636.365 -190.382C629.812 -190.716 622.973 -191.254 616.404 -191.829C606.011 -192.618 595.634 -193.167 585.479 -194.473C573.704 -195.625 562.798 -199.698 553.945 -206.248C546.017 -212.52 540.692 -221.044 538.711 -230.634C536.017 -243.726 536.029 -257.362 538.745 -270.887C541.329 -285.065 545.214 -299.13 550.361 -312.934C550.694 -313.72 551.202 -314.449 551.851 -315.074M413.495 -296.523C412.743 -295.593 412.08 -294.612 411.513 -293.591C403.402 -276.501 395.307 -259.172 387.196 -242.083C381.125 -228.149 376.342 -213.881 372.9 -199.434C370.305 -189.388 367.727 -179.101 364.593 -168.983C361.458 -158.864 356.086 -149.658 347.809 -143.215C344.697 -140.639 341.078 -138.629 337.184 -137.313C333.289 -135.998 329.204 -135.407 325.189 -135.577C318.314 -135.533 311.719 -137.161 306.099 -140.292C302.288 -142.354 299.067 -145.148 296.642 -148.496C294.217 -151.844 292.641 -155.672 292.012 -159.74C290.436 -167.044 291.858 -174.266 292.726 -181.656C293.766 -190.524 295.632 -199.261 296.673 -208.129C297.556 -216.668 297.353 -225.183 296.067 -233.506C293.575 -247.065 288.952 -260.074 282.331 -272.155C281.092 -274.413 279.329 -276.359 278.106 -278.378M586.144 -310.94C593.586 -309.513 598.334 -303.603 602.829 -297.416C610.638 -286.57 616.567 -274.627 620.434 -261.952C622.377 -256.754 623.12 -251.169 622.62 -245.516C622.357 -241.722 620.779 -237.992 618.108 -234.85C615.437 -231.708 611.809 -229.313 607.734 -228.004C597.994 -225.232 587.772 -225.954 579.301 -230.011C574.42 -232.175 570.282 -235.394 567.224 -239.408C564.166 -243.422 562.275 -248.117 561.704 -253.111C559.984 -261.755 560.237 -270.777 562.448 -279.65C564.66 -288.522 568.785 -297.067 574.582 -304.784C575.712 -306.55 577.348 -308.037 579.302 -309.071C581.255 -310.105 583.446 -310.644 585.621 -310.627M782.859 838.381C785.318 838.536 788.047 838.655 790.506 838.811C797.345 839.349 804.389 838.89 811.292 840.389C820.028 842.145 828.552 844.487 836.794 847.397C847.235 851.259 856.307 857.348 863.288 865.182C871.067 873.527 875.319 884.209 875.384 895.565C875.486 904.743 873.218 914.008 868.755 922.639C861.566 936.249 850.493 948.139 836.763 956.992C825.169 964.582 812.408 970.472 799.014 974.416C791.003 976.702 782.96 978.508 774.917 980.313C771.018 981.327 767.069 982.1 763.099 982.624C754.976 983.228 746.837 983.592 738.698 983.955C726.668 984.312 714.822 982.954 703.599 979.931C691.839 976.887 681.548 970.881 673.869 962.579C669.967 958.319 667.181 953.286 665.69 947.806C664.2 942.326 664.038 936.52 665.215 930.765C667.262 920.117 671.56 909.743 677.87 900.217C687.072 885.211 699.774 871.984 715.016 861.536C724.957 854.609 736.013 849.189 747.689 845.519C759.395 841.525 771.024 840.452 782.891 838.862M659.117 178.989C667.449 181.509 668.357 186.964 667.522 194.834C666.009 208.857 662.02 222.484 658.857 236.243C655.694 250.002 653.038 263.209 650.144 276.932C646.888 293.37 644.171 309.737 640.375 326.248C638.082 336.738 633.265 346.112 624.4 351.907C619.024 355.461 612.541 357.194 606.221 356.768C601.672 356.699 597.178 356.246 592.798 355.415C580.192 353.125 568.601 348.209 558.913 341.045C553.154 336.875 548.461 331.657 545.098 325.682C540.136 316.407 539.123 305.559 542.236 295.031C545.301 284.572 550.237 274.488 556.843 265.191C572.47 242.488 591.655 224.157 612.015 207.123C622.435 198.029 633.969 190.047 646.348 183.367C650.121 181.228 654.306 179.839 658.594 179.301M779.356 859.212C782.624 859.259 785.623 859.342 788.892 859.388C796.785 859.328 804.507 860.509 811.71 862.877C820.839 865.617 828.901 870.357 835.218 876.698C841.235 882.732 844.883 890.449 845.673 898.815C846.336 906.661 844.518 914.716 840.423 922.067C834.207 933.087 824.448 942.37 812.533 948.596C804.181 953.3 795.111 956.73 785.727 958.735C778.676 960.205 771.573 961.319 764.453 962.071C752.423 963.16 740.544 961.589 729.861 957.495C719.254 953.788 711.048 946.365 706.983 936.8C703.901 929.337 703.628 920.969 706.204 912.901C710.954 896.935 722.307 882.712 737.845 873.262C745.31 868.467 753.54 864.82 762.159 862.486C767.775 861.006 773.455 860.488 779.356 859.212ZM782.597 879.142C785.555 879.328 788.485 879.664 791.372 880.148C800.05 881.237 807.682 885.223 812.799 891.338C816.058 895.135 817.897 899.821 818.085 904.803C818.272 909.785 816.798 914.839 813.851 919.323C808.652 927.552 800.319 933.96 790.556 937.235C785.572 939.26 780.34 940.615 775.042 941.253C764.492 942.183 754.099 941.394 744.686 934.897C741.681 932.929 739.244 930.36 737.541 927.367C735.839 924.373 734.911 921.024 734.82 917.55C734.576 912.758 735.854 907.881 738.507 903.478C745.639 892.097 755.486 884.715 767.542 881.887C772.365 880.756 777.489 880.069 782.597 879.142Z" stroke="#DFE4E8" stroke-miterlimit="10"/>
</g>
<defs>
<clipPath id="clip0_581_2872">
<rect width="375" height="974" fill="white"/>
</clipPath>
</defs>
</svg>
