<svg width="497" height="1872" viewBox="0 0 497 1872" fill="none" xmlns="http://www.w3.org/2000/svg">
<path d="M-315.299 1337.13C-308.889 1347.54 -302.337 1357.68 -296.378 1368.21C-288.603 1382.69 -282.803 1397.85 -279.104 1413.36C-275.389 1428.15 -272.575 1443.21 -269.621 1458C-263.451 1489.99 -254.124 1521.08 -237.219 1547.98C-227.449 1563.76 -215.47 1578.47 -201.579 1591.75C-192.151 1600.4 -182.012 1608.42 -171.252 1615.74C-163.123 1621.01 -154.611 1625.77 -145.781 1630.01C-138.912 1633.72 -131.592 1637.3 -124.442 1640.48C-114.184 1645.04 -103.645 1649.06 -92.9359 1653.49C-81.605 1658.19 -69.9937 1662.36 -58.7727 1668C-41.4748 1676.67 -24.8781 1686.67 -11.4579 1700.52C-0.0001108 1711.53 7.93519 1724.95 11.4673 1739.3C14.0048 1751.17 12.7028 1763.24 7.71255 1774.12C3.17564 1784.92 -2.12288 1795.72 -6.65979 1806.52C-12.1108 1818.73 -15.325 1831.72 -16.1875 1845.02C-16.5353 1851.39 -16.1937 1857.82 -15.1668 1864.21C-12.3047 1880.4 -4.32005 1895.8 7.86115 1908.62C16.5511 1918.38 27.0359 1926.82 38.841 1933.55C45.0899 1937.37 51.6067 1940.81 58.3451 1943.86C66.8784 1947.32 75.5213 1949.85 84.0242 1952.64C91.9054 1955.15 99.9269 1957.4 107.838 1960.58C118.999 1964.88 130.33 1969.59 141.21 1974.42C146.798 1977.3 152.14 1980.55 157.185 1984.15C161.567 1986.75 166.26 1989.49 170.642 1992.1C175.817 1995.38 181.302 1998.8 186.617 2001.82L194.589 2006.35C199.112 2008.69 203.775 2010.76 208.157 2013.36C227.551 2024.6 248.659 2033.32 269.315 2042.17C278.532 2045.88 287.933 2049.17 297.482 2052.05C302.736 2053.73 307.85 2055.67 313.244 2057.08C320.504 2059.32 328.074 2061.69 335.614 2063.4C351.093 2067.01 366.858 2069.28 382.677 2070.17C404.914 2071.38 426.957 2068.65 447.498 2062.15C463.537 2056.95 478.245 2049.24 490.94 2039.37C500.8 2032.09 508.371 2022.71 513.004 2012.03C517.201 2002.54 518.46 1992.11 516.66 1981.78C512.921 1959.74 502.366 1941.9 489.136 1925.51C479.515 1913.55 468.494 1902.48 456.268 1892.5C447.311 1885.56 437.914 1879.08 428.128 1873.1C416.916 1865.61 404.762 1859.33 391.947 1854.4C384.791 1851.61 377.459 1849.23 369.998 1847.28C361.085 1844.79 352.043 1842.74 342.917 1841.17C321.833 1838.01 300.497 1837.74 279.675 1840.36C263.314 1842.29 246.984 1844.9 230.793 1847.24C218.382 1848.96 206.112 1850.41 194.421 1847.85C176.744 1844.27 164.268 1834.45 158.285 1816.68C156.058 1810.36 155.344 1803.77 156.191 1797.34C157.107 1790.84 159.577 1784.66 163.442 1779.2C171.848 1768.38 182.464 1759.07 194.79 1751.71C217.852 1736.31 241.396 1721.46 263.124 1703.5C280.757 1688.79 296.551 1672.46 310.263 1654.76C320.464 1641.58 329.06 1627.45 335.92 1612.58C341.653 1599.88 346.253 1586.76 349.678 1573.33C354.008 1554.84 356.263 1535.91 356.411 1516.83C356.505 1502.08 356.148 1487.46 355.339 1472.97C354.326 1447.21 353.934 1421.73 355.797 1395.6C357.453 1374.97 359.699 1353.95 360.593 1333.31C361.509 1314.11 360.123 1294.77 356.457 1275.6C351.975 1250.6 343.914 1227.3 337.487 1203.08C333.581 1189.69 331.883 1175.98 332.447 1162.38C333.038 1152.39 335.915 1142.72 340.906 1133.93C347.185 1123.47 355.894 1114.37 366.5 1107.17C380.539 1097.69 395.739 1089.57 411.855 1082.94C421.268 1078.91 430.991 1075.01 440.574 1071.38C463.037 1062.95 485.361 1054.79 507.684 1046.62C519.974 1042.22 532.403 1037.55 544.382 1033.01C568.339 1023.93 592.296 1014.85 616.083 1005.37C643.899 994.06 671.203 981.537 698.879 970.493C723.113 960.746 748.951 954.082 775.656 950.692C799.398 947.732 823.602 947.232 847.779 949.202C860.082 949.999 872.288 952.322 884.035 956.102C890.96 958.141 897.739 960.603 904.32 963.469C914.333 968.341 923.503 974.521 931.497 981.785C951.506 999.876 965.321 1022.45 975.448 1047.65C982.401 1063.97 986.113 1081.08 986.417 1098.21C986.394 1110.42 983.623 1122.37 978.262 1133.37C971.211 1146.89 961.633 1159.17 949.905 1169.75C935.584 1183.11 921.233 1195.8 906.431 1208.62C888.842 1223.82 870.633 1238.73 854.489 1255.56C846.603 1263.69 839.559 1272.43 833.436 1281.7C820.291 1300.85 814.686 1321.69 812.78 1343.53C810.634 1369.27 810.689 1395.22 812.944 1421.17C814.154 1439.59 816.767 1458 820.768 1476.25C825.879 1500.35 834.63 1523.92 846.784 1546.31C851.781 1555.76 857.82 1564.69 863.579 1574.15C864.328 1575.52 864.855 1576.97 865.145 1578.46M-279.401 1268.94C-274.606 1277.31 -269.98 1285.28 -265.495 1293.52C-255.843 1311.61 -246.05 1329.44 -236.989 1347.92C-228.516 1365.32 -222.477 1383.46 -219.01 1401.93C-215.453 1419.94 -212.348 1438.08 -208.34 1455.97C-202.694 1483.13 -192.567 1508.33 -175.765 1529.6C-166.786 1541.09 -155.888 1551.36 -143.469 1560.05C-134.556 1566.51 -124.845 1572.04 -114.548 1576.51C-110.818 1578.17 -107.819 1580.49 -103.949 1581.88C-93.5506 1586.17 -83.0121 1590.19 -72.1626 1594.35C-63.7999 1597.41 -55.1264 1600.61 -46.904 1603.93C-34.5003 1608.78 -22.2367 1613.9 -9.8026 1619.42C-1.54983 1623.42 6.28215 1628.21 14.2544 1632.74C20.9833 1636.71 27.8523 1640.42 34.2703 1644.26C40.0667 1647.82 45.7227 1651.65 51.2082 1655.07C55.5905 1657.67 59.6923 1660.81 64.2149 1663.15C73.3988 1668.43 82.9245 1673.21 92.7339 1677.46C122.064 1689.5 153.535 1691.64 186.715 1681.07C207.226 1674.55 225.905 1664.55 241.733 1651.61C252.928 1642.72 262.42 1632.31 269.881 1620.72C274.017 1614.93 277.711 1608.88 280.941 1602.63C288.199 1587.5 292.807 1571.38 294.616 1554.8C297.722 1529.23 294.173 1504.64 290.624 1480.06C287.074 1455.47 282.732 1430.21 285.217 1404.36C286.224 1392.97 287.824 1381.19 289.593 1369.82C293.022 1348 297.073 1326.47 297.766 1304.75C298.434 1288.84 297.096 1272.81 293.775 1256.96C290.139 1240.56 285.43 1224 281.793 1207.6C278.187 1191.86 274.441 1176.39 275.035 1159.24C275.315 1146.13 278.597 1133.35 284.688 1121.65C290.778 1109.96 299.552 1099.59 310.486 1091.17C319.781 1084.1 329.786 1077.76 340.394 1072.24C350.117 1066.92 360.286 1062.21 370.826 1058.15C385.341 1052.44 399.745 1047.66 414.43 1042.35C419.673 1040.41 424.775 1038.73 429.707 1036.65C460.54 1024.7 491.544 1013.17 522.037 1000.42C546.887 990.271 570.835 978.615 593.715 965.53C619.684 950.442 645.483 934.949 671.313 920.127C695.255 906.329 722.499 897.267 751.285 893.528C773.4 890.861 795.747 889.94 817.643 889.147C843.488 888.137 869.023 886.989 894.588 886.512C904.932 886.217 915.352 887.299 925.498 889.724C940.531 893.382 953.9 901.532 963.244 912.735C976.455 928.031 987.726 944.505 996.841 961.841C1010.44 986.286 1024.03 1010.73 1037.04 1035.57C1045.04 1050.96 1052.46 1066.74 1059.28 1082.92C1065.42 1097.27 1068.28 1112.4 1067.69 1127.42C1067.26 1136.24 1065.19 1144.87 1061.54 1152.95C1054.36 1168.68 1043.11 1182.56 1028.65 1193.56C1009.85 1208.87 990.879 1223.78 971.766 1238.96C953.103 1254 936.406 1270.82 921.951 1289.14C911.856 1302.5 903.518 1316.87 897.086 1332C889.268 1349.87 884.482 1368.78 882.874 1388.14C880.977 1405.94 881.129 1423.95 883.329 1441.92C886.031 1463.35 891.905 1484.52 900.8 1504.9C901.316 1506.44 901.643 1508.02 901.775 1509.6M-301.668 1311.95C-287.269 1332.43 -275.407 1354.12 -266.3 1376.64C-260.284 1392.21 -255.842 1408.16 -253.025 1424.28C-250.181 1440 -246.435 1455.47 -243.451 1470.93C-239.42 1490.47 -232.459 1509.59 -222.754 1527.78C-212.784 1546.84 -198.693 1564.16 -181.306 1578.73C-172.932 1585.41 -164.557 1592.09 -155.903 1598.23C-149.936 1602.2 -143.408 1605.1 -137.161 1608.53C-132.327 1611.01 -127.323 1613.89 -122.35 1616.1C-115.2 1619.27 -107.91 1622.18 -100.48 1624.82C-92.8793 1627.87 -84.8275 1630.79 -76.9463 1633.3C-61.5673 1638.44 -46.5791 1644.55 -32.104 1651.58C-24.1621 1655.43 -16.641 1660.09 -8.97952 1664.48C9.62247 1675.04 25.6393 1689.06 42.0769 1702.28C50.3109 1709.22 58.6853 1715.9 67.6508 1722.18C81.7764 1732.48 99.5831 1737.8 117.364 1737.03C135.145 1735.86 152.522 1732.52 169.001 1727.1C192.315 1719.94 214.165 1709.84 233.894 1697.09C258.161 1682.33 278.758 1663.48 294.585 1641.55C299.023 1635.3 303.462 1629.06 307.419 1622.27C311.576 1615.47 315.275 1608.44 318.498 1601.22C322.357 1591 325.546 1580.57 328.049 1569.97C332.817 1548.92 334.295 1527.24 332.443 1505.52L327.845 1444.32C326.466 1422.81 327.124 1401.33 329.812 1380.11C331.979 1360.7 334.427 1340.75 335.692 1321.59C337.037 1301.35 335.292 1280.9 330.502 1260.78C326.214 1243.43 321.474 1226.2 317.046 1209.11C313.322 1196.22 310.844 1183.14 309.64 1170C308.518 1154.65 311.982 1139.53 319.687 1126.14C323.745 1119.28 329.071 1113.1 335.459 1107.84C348.623 1096.16 364.118 1086.7 381.254 1079.86C393.653 1074.53 405.742 1069.05 418.171 1064.38C438.379 1056.59 458.929 1049.62 479.308 1042.23C485.001 1040.16 491.146 1037.96 496.98 1035.62C506.563 1031.99 516.145 1028.36 525.417 1024.59C539.341 1019.27 553.575 1014.08 567.468 1008.09C587.786 999.37 608.074 989.975 628.221 980.847C643.437 973.801 658.482 966.35 673.868 959.708C686.408 954.103 698.947 948.497 711.828 943.701C730.098 937.006 749.39 932.431 769.239 930.087C782.723 928.517 796.066 927.213 809.751 926.717C834.805 925.25 860.14 926.565 885.165 930.633C899.395 933.191 913.125 937.954 925.704 944.695C938.799 952.204 950.13 961.937 958.981 973.281C971.549 988.622 982.344 1004.98 991.195 1022.1C998.703 1036.7 1005.33 1051.6 1011.03 1066.74C1015.81 1079.53 1018.66 1092.74 1019.51 1106.01C1020.31 1118.64 1017.58 1131.08 1011.56 1142.24C1003.83 1156.79 993.062 1169.83 979.794 1180.72C966.765 1192.36 953.256 1203.45 940.057 1214.68C923.578 1228.2 908.058 1242.6 893.577 1257.8C883.85 1268.04 875.127 1279 867.494 1290.58C860.822 1301.2 855.213 1312.34 850.726 1323.89C842.164 1346.71 839.558 1369.88 838.475 1393.06C837.246 1417.94 839.095 1443 843.991 1467.82C848.242 1489.73 855.77 1511.2 866.376 1531.67C869.557 1538.01 873.189 1544.23 876.68 1550.71C877.028 1551.68 877.276 1552.67 877.423 1553.67M-288.763 1287.45C-278.69 1304.75 -268.928 1321.9 -258.995 1339.46C-247.765 1360.14 -239.612 1381.89 -234.745 1404.14C-230.969 1420.28 -228.686 1437.07 -225.36 1453.33C-220.427 1478.21 -213.268 1501.76 -200.587 1522.84C-184.575 1549.15 -160.519 1571.25 -131.303 1586.49C-120.563 1591.59 -110.275 1596.81 -99.2546 1601.38C-91.1724 1604.97 -82.9804 1607.62 -74.6178 1610.68C-66.8768 1613.46 -59.3065 1615.84 -51.846 1619.15C-38.5098 1624.42 -25.3136 1629.95 -12.5687 1635.61C-5.33305 1639.21 1.66334 1643.2 8.37977 1647.54C16.0412 1651.93 23.5623 1656.59 31.0834 1661.25C37.3612 1665.35 43.8097 1669.86 50.2278 1673.69C56.6458 1677.53 62.7834 1681.9 69.3416 1685.47C76.8324 1689.45 84.7742 1693.31 92.5455 1696.76C107.38 1702.93 123.531 1705.81 139.529 1705.14C161.906 1704.89 184.18 1699.01 205.541 1689.76C226.667 1680.49 245.453 1667.78 260.956 1652.25C270.04 1643.17 278.157 1633.36 285.215 1622.93C298.853 1601.97 307.279 1578.52 309.969 1554.05C312.825 1529.69 310.409 1506.59 307.682 1483.36C305.649 1465.36 303.616 1447.37 302.345 1429.38C301.6 1411.14 302.817 1392.97 305.981 1375.12C309.02 1354.78 312.681 1334.71 313.434 1314.34C314.422 1295.34 312.788 1276.19 308.567 1257.29C305.363 1243.7 301.708 1230.25 298.193 1216.52C294.276 1200.65 289.908 1184.91 288.838 1168C287.938 1155.42 289.974 1142.95 294.82 1131.36C299.665 1119.78 307.218 1109.32 317.011 1100.64C329.507 1089.86 343.823 1080.83 359.508 1073.83C368.92 1069.79 377.991 1064.95 387.574 1061.31C406.88 1053.78 426.527 1047.06 445.863 1040.2L462.493 1034.11C491.974 1022.56 521.173 1011.53 550.312 999.167C580.134 986.395 609.03 972.126 636.865 956.426C660.048 943.716 683.091 931.272 707.5 922.064C724.321 915.785 742.081 911.418 760.369 909.063C771.878 907.601 783.417 906.811 794.956 906.02C820.705 904.35 846.625 904.01 872.583 905.002C885.523 905.378 898.456 906.937 911.174 909.653C920.985 912.149 930.331 916.078 938.809 921.271C960.41 934.152 974.414 954.178 987.236 974.992C997.078 990.539 1006.02 1006.34 1014.37 1022.54C1023.4 1040.36 1032.29 1058.44 1039.68 1077.17C1045.41 1090.66 1048.23 1104.85 1047.97 1118.98C1047.85 1127.28 1046.26 1135.45 1043.28 1143.19C1037.46 1159.34 1026.16 1172.07 1013.27 1183.44C995.824 1198.37 977.895 1212.75 960.276 1227.28C942.745 1241.47 926.638 1256.96 912.113 1273.6C904.122 1283.3 896.85 1293.46 890.341 1304.02C878.843 1323.18 870.994 1343.99 867.088 1365.68C861.452 1395.28 861.339 1425.75 866.756 1455.92C870.824 1479.46 878.532 1502.57 889.664 1524.6C890.006 1525.41 890.066 1526.75 890.407 1527.56M851.297 478.45C847.328 481.617 843.049 484.646 839.08 487.814C828.527 496.931 818.285 506.187 807.732 515.304C791.787 529.024 777.427 544.105 764.842 560.347C757.648 569.641 751.075 579.212 744.813 588.92C728.973 612.452 717.966 638.46 703.851 663.087C688.894 689.312 669.293 710.515 642.19 724.114C625.962 732.354 608.85 737.902 591.356 738.348C583.383 738.865 575.283 737.845 567.615 735.362C560.494 732.911 553.546 730.045 546.818 726.782C539.238 722.68 532.088 717.962 525.467 712.697C508.268 699.47 491.349 685.709 474.149 672.482C466.401 667.221 458.349 662.328 450.031 657.825C446.493 655.436 442.669 653.407 438.64 651.779C423.779 646.493 408.498 642.007 391.577 645.009C383.116 646.479 375.314 649.788 368.863 654.641C364.558 657.986 361.206 662.174 359.049 666.901C356.892 671.628 355.985 676.775 356.393 681.97C356.945 692.873 361.023 703.579 368.146 712.828C378.673 727.657 392.243 740.715 408.114 751.289C417.162 757.622 426.688 763.391 436.615 768.549C450.493 775.7 464.792 782.051 479.091 788.403C486.863 791.854 495.195 794.241 503.107 797.426C509.376 799.555 515.535 801.961 521.557 804.635C537.3 812.614 551.02 822.981 558.045 840.235C564.358 855.201 564.154 870.887 557.293 887.561C549.955 904.074 538.755 918.9 524.388 931.122C505.227 948.577 483.427 961.573 460.664 973.485C436.719 986.185 411.408 995.65 386.579 1005.66C364.286 1014.49 341.933 1021.98 319.81 1031.22C298.119 1039.78 278.159 1051.18 260.573 1065.06C248.347 1074.99 237.987 1086.56 229.84 1099.39C217.036 1119.34 212.674 1140.74 212.603 1162.73C212.411 1182.04 216.138 1200.46 219.725 1219.14C224.458 1242.94 228.91 1267.27 227.156 1292.45C225.925 1307.87 223.409 1323.12 219.627 1338.08C214.893 1358 208.947 1378.04 206.359 1398.26C203.968 1417.05 204.475 1436.18 207.867 1455.13C211.485 1474.49 215.553 1493.71 218.72 1513.2C221.116 1526.79 221.017 1540.5 218.427 1553.83C214.455 1573.75 203.925 1590.11 185.533 1601.01C174.732 1607.73 161.639 1611.22 148.062 1610.99C136.411 1611.05 124.75 1608.79 113.952 1604.38C109.6 1602.45 104.827 1601.32 100.927 1599.25C92.814 1594.99 84.8417 1590.47 76.8695 1585.94C68.8972 1581.41 61.0652 1576.62 53.2332 1571.82C47.4369 1568.26 41.9209 1564.17 36.4354 1560.75C31.8825 1557.74 26.7384 1555.13 22.0453 1552.38C15.9381 1548.68 9.52015 1544.85 3.27274 1541.42C-0.628096 1539.35 -4.21838 1537.43 -8.11921 1535.37C-14.5069 1532.2 -20.7239 1529.44 -26.9713 1526.01C-35.7055 1521.47 -44.2993 1516.67 -52.753 1511.6C-62.2919 1506.17 -71.4629 1500.23 -80.2108 1493.82C-87.5966 1488.11 -94.272 1481.73 -100.11 1474.79C-111.85 1460.49 -120.484 1444.5 -125.545 1427.66C-130.163 1413.12 -134.47 1398.72 -139.088 1384.18C-145.866 1362.53 -154.724 1341.33 -165.563 1320.82C-174.874 1303.53 -184.947 1286.24 -193.667 1268.56C-205.598 1243.87 -216.938 1218.78 -228.278 1193.7C-229.813 1190.06 -231.66 1186.28 -233.195 1182.64M838.523 472.105C829.433 479.901 820.032 487.558 810.942 495.353C788.343 514.239 766.395 534.072 747.958 557.436C740.173 567.125 732.868 577.358 725.564 587.589C719.412 596.361 713.882 605.408 708.041 614.318C696.219 632.403 684.396 650.488 669.124 666.384C652.529 683.336 633.265 695.157 610.961 700.37C597.145 703.546 582.411 703.357 568.292 699.824C556.903 696.678 545.95 692.255 535.713 686.667C526.21 681.446 517.05 675.731 508.286 669.554L486.143 654.789C480.798 651.1 475.452 647.411 469.967 643.989C467.931 642.756 465.584 641.385 463.549 640.152C454.517 635.264 445.161 630.889 435.542 627.054C420.946 621.243 405.105 618.732 389.521 619.761C371.155 621.135 353.562 626.139 338.991 640.703C333.266 646.273 329.166 653.011 327.015 660.384C324.864 667.757 324.721 675.564 326.598 683.186C330.234 699.592 339.052 712.712 349.053 725.042C358.618 736.706 369.522 747.499 381.58 757.239C392.642 766.097 404.436 774.293 415.919 782.352C422.848 787.402 430.059 791.92 437.269 796.437C442.754 799.86 448.35 802.345 453.835 805.767C460.875 809.88 468.085 814.398 474.985 818.777C482.677 823.837 490.679 829.035 498.091 834.628C508.306 842.141 515.911 852.041 519.939 863.067C523.933 874.357 523.833 886.277 519.652 897.124C514.085 912.071 503.793 923.605 492.399 934.321C476.423 948.497 458.284 960.662 438.447 970.505C418.09 980.818 397.057 990.128 375.439 998.395C352.694 1007.36 329.609 1015.51 307.035 1024.87C285.286 1033.61 265.329 1045.24 247.829 1059.38C233.142 1071.97 220.907 1086.61 211.565 1102.77C206.424 1112.76 202.56 1123.28 200.04 1134.13C195.927 1155.5 195.74 1177.5 199.486 1199.29C202.08 1216.22 204.814 1232.89 207.097 1249.68C210.234 1274.18 208.826 1298.76 202.928 1322.44C197.853 1341.55 192.778 1360.66 188.325 1380.04C184.023 1397.48 182.176 1415.42 182.825 1433.48C183.977 1451.77 186.534 1470.03 190.478 1488.15C193.921 1503.26 195.381 1518.58 194.828 1533.8C194.365 1541.99 192.36 1549.98 188.894 1557.46C184.747 1566.52 177.423 1574.06 167.939 1579.05C155.284 1585.15 140.117 1586.45 125.763 1582.66C114.706 1579.62 104.033 1575.43 93.977 1570.19C86.1444 1565.99 78.5642 1561.41 71.273 1556.49C65.1659 1552.79 58.9187 1549.36 52.9517 1545.39C46.9848 1541.43 40.7068 1537.32 34.2888 1533.49C29.5957 1530.75 24.5917 1527.86 19.8986 1525.12C12.8588 1521.01 6.13016 1517.03 -1.04981 1513.19C-4.01809 1511.54 -6.67587 1510.03 -9.64415 1508.39C-20.4445 1501.94 -31.3848 1495.77 -42.1851 1489.33C-53.3053 1482.62 -63.4459 1474.69 -72.3424 1465.75C-86.7873 1450.63 -97.7313 1433.24 -104.506 1414.65C-113.097 1393.08 -120.646 1370.99 -129.969 1350.09C-138.128 1331.35 -147.92 1313.52 -157.402 1295.83C-171.68 1269.77 -186.238 1244.24 -198.151 1216.6C-206.139 1198.26 -214.127 1179.92 -222.426 1161.44M658.724 1970.56C654.494 1971.31 650.123 1972.33 645.893 1973.08C634.865 1975.09 623.838 1977.09 612.951 1978.83C603.781 1980.51 594.08 1979.54 585.26 1976.06C579.122 1973.09 573.659 1969.1 569.193 1964.32C561.039 1955.77 553.927 1946.69 546.364 1937.75C523.391 1909.04 496.122 1883.1 465.354 1860.68C458.906 1856.17 452.457 1851.66 445.728 1847.69C436.964 1842.48 427.919 1837.81 419.014 1832.86C413.623 1829.6 407.881 1826.82 401.886 1824.6C391.97 1820.85 381.181 1818.03 371.124 1814.55C357.475 1810.26 343.46 1807.12 329.273 1805.16C320.52 1803.58 311.828 1803.33 302.934 1802.01C288.226 1800.08 273.688 1798.55 259.401 1795.82C250.026 1793.96 241.633 1790.23 237.258 1781.06C234.418 1774.99 234.226 1768.34 236.719 1762.41C240.213 1752.13 247.639 1744.58 254.753 1736.9C268.843 1721.79 283.584 1707.63 297.985 1692.66C311.641 1678.92 323.912 1664.14 334.669 1648.48C339.669 1641.17 344.498 1633.45 349.187 1626C352.442 1620.55 356.15 1614.96 358.924 1608.96C366.532 1592.97 372.355 1576.3 376.317 1559.17C379.349 1545.4 381.308 1531.48 382.816 1517.68C385.722 1491.04 384.367 1464.47 385.298 1437.93C386.039 1413.94 387.994 1389.82 389.637 1365.57C391.629 1335.56 391.957 1305.8 386.702 1277.17C383.608 1259.86 379.474 1242.67 374.318 1225.65C371.126 1215.69 367.933 1205.72 365.192 1195.63C361.228 1182.12 359.473 1168.27 359.981 1154.53C360.862 1140.03 366.963 1126.41 377.409 1115.6C387.907 1104.62 400.643 1095.48 415.023 1088.59C438.517 1076.02 463.407 1067.35 487.645 1057.74C502.159 1052.03 517.015 1047.12 531.7 1041.81C547.739 1036.12 563.917 1030.16 580.267 1024.6C619.25 1011.02 657.661 994.883 696.273 979.823C718.433 970.733 741.756 963.795 765.852 959.125C792.453 953.959 820.069 952.682 847.619 955.344C858.693 956.218 869.659 958.434 880.205 961.929C885.008 963.734 890.231 964.74 894.894 966.811C915.069 975.858 932 989.907 943.475 1007.12C950.304 1017.19 955.75 1027.89 959.69 1038.98C964.189 1051.88 966.486 1065.2 966.505 1078.49C966.369 1088.73 964.196 1098.78 960.081 1108.18C952.38 1126.45 939.162 1140.63 925.012 1154.39C907.496 1170.72 888.981 1186.19 869.54 1200.75C858.957 1209.19 848.063 1217.5 837.339 1226.22C825.603 1235.46 815.287 1246 806.625 1257.6C797.054 1271.05 791.53 1286.54 790.543 1302.72C788.997 1322.41 791.372 1341.22 793.295 1360.15C795.912 1384.32 798.839 1408.63 802.218 1432.81C804.179 1445.84 807.042 1458.61 809.905 1471.39C815.818 1497.42 825.836 1522.78 839.663 1546.73C845.964 1558.07 853.448 1568.63 860.34 1579.58C860.882 1580.8 861.547 1581.97 862.327 1583.09M826.087 466.583C816.546 474.506 806.694 482.292 797.464 490.353C779.31 505.222 762.078 520.935 745.833 537.43C734.218 550.02 723.397 563.291 713.196 576.838C699.85 594.904 686.815 613.107 672.817 630.226C658.398 648.144 640.779 662.669 619.047 670.436C604.665 675.799 588.574 677.225 572.781 674.537C557.591 672.063 544.194 665.455 530.657 659.114C523.442 655.187 516.482 650.888 509.818 646.242C504.332 642.82 498.396 639.525 492.91 636.103C487.425 632.68 481.458 628.715 475.972 625.293C473.559 623.622 471.048 622.068 468.451 620.637C458.068 615.152 447.368 610.18 436.403 605.744C417.407 598.686 396.822 596.378 377.009 599.084C355.357 601.543 335.497 609.965 320.224 623.164C312.398 629.62 306.529 637.705 303.099 646.752C299.67 655.8 298.778 665.552 300.497 675.208C303.401 692.275 311.799 706.194 321.519 719.058C332.001 733.362 344.363 746.579 358.33 758.416C369.111 767.807 380.173 776.665 391.235 785.522C401.335 793.295 411.885 800.94 422.124 808.446C433.467 816.771 444.809 825.095 456.012 833.687C466.99 841.799 476.135 851.673 482.912 862.728C489.768 874.249 491.611 887.378 488.081 899.536C484.953 909.869 479.188 919.326 471.21 927.211C456.776 942.075 439.544 954.628 420.196 964.372C392.843 979.175 364.375 989.537 335.937 1000.57C311.25 1009.64 287.5 1020.4 264.9 1032.78C243.52 1044.64 225.188 1060.16 210.922 1078.49C189.658 1106.66 179.363 1140.49 181.489 1175.2C182.68 1194.79 185.396 1214.4 187.8 1233.88C191.569 1259.56 190.785 1285.38 185.477 1310.41C182.055 1325.66 177.109 1340.88 172.614 1355.97C169.741 1366.53 166.247 1376.81 163.685 1387.51C160.364 1401.6 158.315 1415.97 157.558 1430.47C157.194 1448.83 158.129 1467.24 160.359 1485.62C161.996 1496.68 162.193 1507.79 160.944 1518.75C159.144 1529.45 154.858 1539.05 143.36 1544.14C136.525 1547.38 128.431 1548.24 120.623 1546.53C109.523 1544.71 98.9135 1540.67 89.6294 1534.73C85.5846 1532.28 81.3625 1530.07 76.9945 1528.13C69.8145 1524.29 63.2256 1520.05 56.0456 1516.2L47.1409 1511.26C39.9609 1507.41 32.33 1503.69 25.2903 1499.58C18.732 1496.01 12.7651 1492.04 6.20686 1488.47C0.581151 1485.32 -5.49587 1482.29 -10.9813 1478.87C-18.1917 1474.35 -25.5727 1469.43 -32.5025 1464.38C-46.6306 1453.84 -58.734 1441.35 -68.2895 1427.45C-76.376 1415.01 -83.2806 1402.05 -88.9287 1388.7C-99.9576 1363.75 -110.706 1338.27 -124.271 1314.49C-136.361 1293.02 -149.183 1272.2 -160.822 1250.6C-173.284 1227.64 -183.52 1203.38 -193.897 1179.37C-199.356 1166.43 -205.718 1153.74 -211.318 1141.07M885.776 493.096C879.643 498.918 873.509 504.739 867.206 510.156C849.756 525.516 833.902 542.226 819.816 560.103C814.135 567.358 809.185 575.055 805.018 583.112C798.037 597.102 792.439 611.379 792.064 626.661C790.613 644.47 797.287 662.445 810.623 676.647C821.476 687.286 833.446 697.007 846.357 705.666C868.14 720.841 886.784 739.261 901.36 760.008C909.694 772.012 916.217 784.859 920.756 798.205C922.637 804.297 923.736 810.519 924.033 816.752C924.375 821.728 923.309 826.634 920.929 831.028C918.549 835.421 914.93 839.165 910.399 841.921C902.343 847.062 893.385 851.061 883.826 853.783C862.805 859.548 840.911 862.961 818.644 863.945C799.796 864.776 781.199 864.404 762.211 865.502C742.461 866.59 722.571 867.945 703.094 875.07C684.968 882.04 668.207 891.307 653.319 902.592C636.933 914.049 621.027 926.048 604.811 937.909C584.935 952.16 563.716 964.936 541.355 976.118C527.213 983.312 512.448 990.23 497.964 996.615C479.59 1004.56 461.217 1012.5 442.502 1019.64C421.392 1027.68 400.422 1035.46 379.281 1042.83C357.623 1050.24 336.882 1059.4 317.314 1070.2C302.07 1078.57 288.833 1089.4 278.249 1102.15C269.484 1112.97 263.364 1125.33 260.248 1138.53C256.606 1154.96 256.603 1172.03 260.24 1188.81C262.512 1201.98 266.277 1214.5 269.31 1227.68C274.821 1248.61 278.027 1269.85 278.882 1291.1C279.059 1305.6 277.878 1320.03 275.351 1334.23C272.111 1353.5 268.11 1372.76 265.321 1391.9C262.436 1412.38 262.665 1433.26 265.999 1453.99C269.397 1475.22 273.246 1496.32 276.193 1517.68C278.95 1536.95 277.605 1556.31 272.227 1574.75C270.129 1581.76 267.541 1588.62 264.476 1595.3C260.744 1604.33 255.422 1612.72 248.697 1620.18C242.856 1627.09 236.375 1633.55 229.316 1639.51C218.683 1648.1 206.379 1654.97 192.921 1659.83C174.545 1666.85 154.067 1669.23 133.683 1666.71C124.465 1665.76 115.384 1663.61 106.742 1660.33C98.4801 1657.37 90.3946 1654 82.5258 1650.23C72.5481 1645.14 63.162 1639.66 53.9159 1633.91C43.7373 1627.75 33.839 1621.05 23.5201 1615.15C16.1695 1610.9 8.67882 1606.91 1.04776 1603.2C-14.8361 1595.48 -30.8601 1588.04 -47.0245 1580.86C-64.8833 1573.25 -83.3335 1566.04 -101.192 1558.44C-112.885 1553.02 -123.791 1546.3 -133.624 1538.45C-143.508 1530.97 -152.119 1522.27 -159.16 1512.64C-166.722 1502.49 -172.702 1491.54 -176.929 1480.1C-184.387 1460.02 -188.547 1438.78 -192.566 1417.28C-197.727 1386.63 -207.701 1356.53 -222.2 1327.86C-233.047 1306.94 -244.174 1286.54 -255.021 1265.62C-258.683 1258.74 -261.894 1251.72 -265.246 1244.97M872.715 487.294C855.017 503.427 837.459 519.293 820.242 535.969C808.903 547.011 798.937 559.104 790.502 572.062C783.679 582.836 778.411 594.3 772.831 605.627C768.388 615.226 765.266 625.313 763.53 635.679C760.55 649.502 760.682 663.848 763.92 677.923C767.207 691.169 775.688 703.209 787.845 711.887C796.981 718.575 806.989 724.335 816.857 730.361C831.449 739.801 845.168 750.167 855.571 764.648C860.88 771.954 864.178 780.184 865.186 788.64C866.756 803.142 860.976 813.394 847.314 821.13C837.602 826.317 826.534 829.388 814.975 830.103C795.878 832.138 777.359 830.158 758.53 828.04C741.847 826.217 725.615 824.266 708.382 827.129C693.8 829.864 680.411 835.774 669.41 844.331C654.968 855.008 643.555 868.673 631.49 881.391C618.552 895.037 605.786 909.088 591.715 921.244C566.288 943.096 537.604 961.836 506.362 977.007C494.444 982.889 482.666 988.504 470.267 993.843C456.825 999.705 443.383 1005.57 429.46 1010.89C411.648 1017.77 393.494 1023.84 375.511 1030.31C347.805 1040.68 319.788 1050.92 294.36 1067.89C281.648 1076.17 270.638 1086.26 261.75 1097.78C250.476 1112.65 243.627 1129.91 241.791 1148.08C240.488 1164.53 241.652 1181.18 245.251 1197.6C249.581 1219.25 254.533 1241.17 258.413 1262.94C261.41 1282.83 261.084 1302.84 257.446 1322.33C254.206 1341.6 250.204 1360.86 246.202 1380.12C241.328 1404.81 241.143 1430.27 245.653 1455.47C249.021 1476.03 253.29 1496.33 256.517 1517.16C259.099 1534.15 258.275 1551.26 254.083 1567.68C245.355 1600.29 225.564 1624.04 194.06 1637.98C178.947 1644.75 161.861 1647.82 144.508 1646.87C135.698 1646.69 126.909 1645.13 118.559 1642.24C109.495 1639.42 100.638 1636.03 92.0575 1632.12C83.7905 1628.06 75.7594 1623.61 68.0005 1618.8C61.2716 1614.83 54.4025 1611.12 47.9845 1607.28C41.5665 1603.44 35.7396 1599.21 29.3215 1595.38C24.4578 1592.23 19.3136 1589.61 14.3096 1586.73C-15.9949 1569.99 -48.6836 1557.77 -80.2807 1542.75C-97.9301 1534.66 -113.985 1523.97 -127.705 1511.16C-142.244 1496.38 -152.926 1479.04 -158.937 1460.48C-164.5 1443.04 -168.91 1425.39 -172.143 1407.61C-177.69 1379.93 -187.105 1352.79 -200.169 1326.8C-210.334 1307.49 -220.498 1288.19 -230.522 1268.61C-238.218 1253.36 -245.183 1237.45 -252.428 1222.07C-252.599 1221.67 -253.08 1221.12 -253.251 1220.72M680.745 1928.74C678.066 1928.89 675.372 1928.9 672.675 1928.77C663.05 1928.11 653.114 1927.32 643.77 1926.12C631.526 1924.83 619.337 1922.93 607.265 1920.43C599.318 1918.53 591.62 1915.77 584.352 1912.22C573.244 1906.18 562.475 1899.64 552.092 1892.63C536.848 1882.25 521.886 1871.33 506.783 1860.68C495.3 1852.62 483.646 1844.15 472.164 1836.1C466.818 1832.41 460.882 1829.11 455.397 1825.69C447.875 1821.03 440.665 1816.52 433.003 1812.13C429.724 1810.34 426.585 1808.29 423.477 1806.91C407.142 1799.33 390.496 1791.6 374.161 1784.02C367.012 1780.84 358.99 1778.59 352.121 1774.89C343.387 1770.35 334.823 1766.22 327.802 1759.15C318.374 1749.38 316.334 1737.95 322.273 1724.49C325.859 1716.22 329.755 1708.09 334.274 1700.24C338.792 1692.38 344.553 1685.08 349.382 1677.37C353.23 1671.51 356.455 1665.39 360.613 1659.67C370.089 1645.19 378.514 1630.16 385.838 1614.67C390.791 1604.56 395.101 1594.18 398.748 1583.6C404.473 1567.11 408.647 1550.16 411.227 1532.93C413.827 1516.34 415.805 1499.47 417.953 1483C420.151 1464.26 421.897 1445.64 423.955 1427.16C425.542 1411.76 427.129 1396.36 429.028 1381.1C432.802 1347.54 430.329 1313.36 421.705 1279.9C418.934 1269.14 416.302 1258.11 413.079 1247.47C408.431 1232.26 402.88 1217.3 398.543 1202.23C394.157 1188.72 392.292 1174.79 393.021 1160.99C393.387 1152.51 395.875 1144.3 400.309 1136.95C404.681 1130.27 409.977 1124.13 416.081 1118.65C429.146 1107.41 444.247 1098.15 460.834 1091.19C474.416 1085.06 488.138 1078.67 501.921 1073.62C521.538 1066.22 541.185 1059.5 560.832 1052.78C574.024 1048.12 587.075 1043.73 600.127 1039.34C619.774 1032.62 639.421 1025.9 659.208 1018.91C666.115 1016.72 672.681 1013.72 679.587 1011.53C708.958 1000.91 737.877 990.415 768.112 985.438C793.494 980.936 819.029 979.788 843.453 984.392C851.444 985.969 859.326 988.483 867.036 990.594C879.292 994.459 890.388 1000.97 899.267 1009.51C907.529 1017.38 913.913 1026.6 918.006 1036.57C922.879 1047.73 925.024 1059.56 924.297 1071.25C923.324 1086.19 918.165 1100.49 909.277 1112.89C896.443 1131.67 879.75 1148.08 859.992 1161.34C836.79 1177 812.935 1191.71 789.391 1206.56C777.45 1213.81 766.636 1222.37 757.19 1232.03C751.757 1237.8 747.04 1244.07 743.113 1250.76C736.059 1263.16 733.164 1277.24 734.749 1291.42C736.444 1304.78 739.905 1318.01 745.062 1330.84C753.542 1353.21 760.67 1375.91 766.415 1398.83C771.447 1419.14 774.845 1440.37 779.426 1460.81C785.291 1486.1 792.2 1510.86 803.138 1533.79C810.17 1548.9 818.471 1563.58 827.97 1577.69C834.661 1587.57 841.944 1597.05 848.635 1606.92C849.202 1607.97 849.66 1609.05 850 1610.16M813.683 461.74C812.501 462.53 811.147 462.915 809.965 463.704C797.016 473.73 784.067 483.755 771.6 494.323C752.689 510.574 733.778 526.826 717.755 546.333C703.897 563.185 690.21 580.442 676.352 597.294C663.646 612.686 650.007 627.665 632.828 638.441C612.692 651.19 592.162 655.218 570.846 651.995C555.516 649.787 542.119 643.179 528.582 636.837C520.028 632.318 511.723 627.423 503.702 622.171C496.181 617.516 489.251 612.465 481.73 607.81C475.934 604.249 469.857 601.221 464.231 598.065C457.221 594.623 450.493 590.648 443.514 587.877C426.965 581.163 409.113 577.727 391.276 577.822C368.308 578.117 346.043 583.209 326.307 592.679C311.374 599.24 298.356 608.577 288.101 620.081C281.927 626.987 277.566 635.051 275.307 643.738C273.048 652.424 272.944 661.535 275 670.467C278.007 684.625 284.109 698.279 292.963 710.657C304.054 727.146 317.386 742.454 332.644 756.22C351.068 772.95 369.632 789.413 388.928 805.215C405.707 819.241 423.218 832.606 438.393 848.221C447.239 856.693 453.755 866.802 457.394 877.697C460.462 887.549 460.131 897.825 456.444 907.186C450.005 923.06 438.19 934.575 424.93 944.463C410.578 955.244 394.607 964.278 377.411 971.343C363.067 977.462 349.033 983.719 334.689 989.838C325.728 993.746 316.255 996.44 307.294 1000.35C285.483 1009.72 263.531 1019.37 243.425 1032.79C225.048 1044.6 209.14 1059.07 196.324 1075.63C189.502 1084.33 183.7 1093.64 179.002 1103.43C170.983 1120.41 166.1 1138.54 164.528 1157.15C162.403 1180.86 165.099 1203.42 167.064 1226.65C168.293 1240.34 168.449 1253.89 168.917 1267.57C168.817 1284.31 166.291 1300.86 161.399 1316.82C157.855 1329.38 153.379 1341.52 149.213 1353.81C141.023 1378.11 132.833 1402.41 127.41 1427.28C124.738 1438.91 121.615 1450.67 118.492 1462.43C113.637 1479.67 102.432 1487.84 85.6388 1486.95C76.9605 1486.23 68.3918 1484.31 60.2516 1481.26C52.8085 1478.98 45.5138 1476.29 38.4125 1473.21C26.7404 1467.69 15.7995 1461.52 4.40786 1455.47C-6.16225 1449.87 -15.8562 1443.02 -24.3844 1435.13C-35.6568 1425.32 -45.298 1414.17 -52.9916 1402.04C-67.7088 1379.73 -78.2864 1354.65 -91.6806 1331.28C-105.075 1307.91 -118.75 1285.07 -132.284 1261.97C-146.105 1238.56 -158.284 1214.49 -168.748 1189.9C-178.473 1166.84 -187.436 1143.8 -198.935 1121.93C-199.105 1121.52 -199.587 1120.98 -199.757 1120.58M700.796 1890.65C700.54 1890.98 700.248 1891.29 699.925 1891.57C683.12 1887.07 665.985 1885.37 648.961 1882.74C635.155 1880.55 621.659 1878.5 608.274 1875.52C599.991 1873.49 591.875 1870.87 584.008 1867.7C578.412 1866.03 572.966 1863.94 567.734 1861.45C559 1856.92 550.717 1852.25 542.123 1847.45C537.119 1844.57 531.975 1841.95 527.111 1838.81C521.625 1835.39 516.14 1831.96 510.795 1828.27C504.206 1824.03 497.618 1819.79 491.169 1815.28C486.616 1812.28 482.204 1809 477.651 1805.99C471.062 1801.75 464.474 1797.51 458.025 1793C450.333 1787.94 442.782 1782.62 434.919 1777.15C427.057 1771.69 419.225 1766.89 411.813 1761.3C402.196 1754.07 393.17 1746.45 387.039 1735.51C381.126 1723.7 380.103 1710.66 384.156 1698.73C386.772 1689.38 390.39 1680.31 394.962 1671.64C400.291 1661.52 405.45 1650.99 410.468 1640.73C415.486 1630.47 420.334 1619.81 424.42 1609.13C433.47 1586.67 440.519 1563.54 445.504 1539.94C449.896 1519.21 453.667 1498.21 458.51 1477.35C463.073 1457.03 468.709 1436.85 473.582 1416.67C477.395 1399.95 481.378 1383.64 483.977 1367.05C486.24 1350.92 485.597 1334.45 482.072 1318.22C477.4 1295.76 468.108 1275.53 459.717 1255.04C453.886 1240.62 448.506 1226.07 442.675 1211.64C437.487 1198.57 434.81 1184.93 434.758 1171.31C434.815 1159.59 438.632 1148.3 445.772 1138.74C454.649 1126.24 466.616 1118.08 478.924 1110.73C497.466 1099.6 517.484 1090.42 538.604 1083.34C563.945 1074.54 589.938 1066.7 615.31 1058.57C638.736 1051.23 661.712 1044.01 684.998 1036.94C706.23 1029.99 727.923 1024.05 749.986 1019.13C767.282 1015.25 785.285 1013.72 803.39 1014.58C816.286 1015.28 828.99 1018.57 840.529 1024.18C856.474 1033.23 867.267 1046.24 865.782 1067.28C865.148 1074.28 863.245 1081.09 860.146 1087.45C853.474 1100.12 844.124 1111.45 832.57 1120.89C815.573 1135.69 796.389 1145.91 777.546 1156.93C762.701 1165.46 747.857 1173.98 733.525 1183.72C717.67 1194.42 703.828 1207.21 692.447 1221.68C682.511 1233.98 675.829 1248.16 672.855 1263.27C670.371 1277.05 671.802 1291.34 677.023 1304.89C683.23 1319.03 690.938 1332.69 700.039 1345.68C712.319 1364.61 724.147 1383.67 731.385 1405.62C737.368 1423.4 742.76 1441.57 748.151 1459.74C751.746 1471.85 754.609 1484.63 758.203 1496.74C765.084 1520.78 775.352 1544.11 788.761 1566.19C797.299 1579.85 806.287 1593.37 815.416 1606.63C821.596 1615.29 828.507 1623.29 834.827 1631.68C835.394 1632.73 835.851 1633.81 836.191 1634.92M796.248 453.327C783.299 463.352 770.351 473.377 757.262 483.669C737.845 498.351 719.881 514.443 703.545 531.792C692.071 544.116 681.389 557.12 670.537 569.72C657.801 584.441 644.754 599.025 628.197 610.077C612.822 620.339 596.302 625.491 579.058 624.734C566.97 624.07 555.045 621.128 544.095 616.107C532.326 610.831 521.083 604.626 510.511 597.574C500.613 590.876 490.715 584.179 480.536 578.015C472.256 572.972 463.708 568.297 454.925 564.009C448.408 560.622 441.657 557.623 434.72 555.034C423.019 551.195 410.772 549.089 398.495 548.805C376.92 549.012 355.777 552.648 336.08 559.537C314.245 566.514 293.729 576.083 275.077 587.989C264.105 594.882 254.745 603.529 247.447 613.516C239.824 624.49 236.469 637.492 237.859 650.671C239.721 668.261 247.558 683.246 256.126 697.569C265.994 713.453 277.808 728.403 291.345 742.137C310.542 762.497 331.343 781.268 352.285 799.773C365.614 811.61 378.803 823.713 391.401 836.211C401.859 845.858 410.582 856.835 417.24 868.724C422.781 878.414 424.866 889.214 423.209 899.642C422.079 906.189 419.574 912.43 415.818 918.053C403.654 935.329 387.097 946.381 369.095 955.805C356.897 962.22 344.046 967.687 331.507 973.292C320.01 978.375 308.342 983.053 296.985 987.869C274.1 997.246 252.238 1008.31 231.622 1020.96C211.31 1033.75 193.615 1049.41 179.199 1067.35C174.73 1072.93 170.882 1078.78 167.035 1084.63C163.757 1089.28 160.923 1094.18 158.56 1099.27C150.002 1116.76 144.233 1135.31 141.41 1154.43C137.761 1178.12 139.104 1201.07 139.856 1224.41C140.517 1245.74 140.416 1267.06 135.463 1288.85C133.116 1299.81 129.887 1310.57 125.802 1321.05C122.357 1329.05 119.082 1337.45 115.636 1345.46C109.807 1357.99 103.667 1370.38 96.9049 1382.49C91.3703 1393.01 83.4587 1402.34 73.6274 1409.95C68.3329 1413.93 61.9772 1416.69 55.0773 1418.03C48.1775 1419.36 40.9282 1419.22 33.9192 1417.62C25.3985 1416.02 17.2347 1412.95 9.90403 1408.6C2.48172 1404.11 -4.47902 1399.04 -10.8854 1393.45C-20.9325 1384.68 -29.6757 1374.82 -36.8843 1364.15C-44.3679 1353.6 -51.1202 1342.38 -58.3233 1331.29C-68.8172 1314.8 -79.1708 1298.04 -89.8049 1281.81C-109.739 1251.92 -128.941 1221.37 -143.101 1187.8C-151.772 1167.84 -159.851 1147.49 -168.662 1127.8C-173.921 1115.93 -180.222 1104.59 -186.383 1092.98M863.083 483.014C849.042 495.841 834.831 508.264 820.791 521.091C806.07 534.629 792.625 549.206 780.577 564.693C770.471 577.696 761.967 591.651 755.2 606.34C750.773 616.206 747.108 626.082 743.303 636.225C734.101 661.719 729.951 687.814 722.894 713.604C719.016 729.72 708.977 743.91 694.409 753.869C681.851 762.424 669.152 771.246 656.454 780.068C642.263 790.065 631.473 803.281 625.14 818.42C620.183 830.023 617.09 842.454 612.133 854.057C607.335 864.627 601.905 874.941 595.864 884.959C589.127 895.979 581.014 906.26 571.666 915.624C562.982 924.826 553.379 933.317 542.963 941.003C524.528 954.595 504.691 966.68 483.678 977.12C475.338 981.304 466.999 985.488 458.489 989.267C446.541 994.478 434.452 999.955 422.163 1004.36C402.546 1011.75 382.448 1018.6 362.831 1025.99C337.691 1035.86 312.07 1045.19 288.386 1060.31C272.907 1069.73 259.712 1081.7 249.472 1095.61C238.214 1111.06 231.255 1128.77 229.122 1147.38C227.787 1165.31 229.068 1183.44 232.935 1201.33C236.663 1219.75 240.841 1238.04 243.807 1256.45C247.104 1276.4 246.988 1296.52 243.462 1316.12C239.691 1337.12 234.396 1358.11 230.315 1378.97C225.054 1404.61 224.862 1431.09 229.747 1457.28C233.194 1476.23 237.403 1495.19 240.399 1514.27C243.527 1531.42 242.864 1548.76 238.446 1565.33C229.206 1596.73 209.465 1618.2 177.919 1627.85C161.005 1633.08 142.336 1633.31 124.643 1628.51C113.545 1625.92 102.815 1622.04 92.7467 1616.97C83.7017 1612.3 75.0774 1606.82 66.3128 1601.61C58.1699 1596.68 50.1975 1592.16 42.0546 1587.22C35.6366 1583.39 29.1882 1578.88 22.7702 1575.04C16.8073 1571.4 10.656 1568.01 4.33912 1564.88C-12.1664 1556.89 -28.3613 1549.04 -44.8669 1541.06C-52.4979 1537.34 -59.9584 1534.02 -67.4492 1530.04C-75.4215 1525.51 -83.2534 1520.72 -91.3963 1515.79C-100.516 1510.2 -108.764 1503.55 -115.897 1496.03C-128.408 1482.98 -137.716 1467.86 -143.186 1451.7C-147.231 1439.71 -150.997 1427.19 -154.14 1414.95C-157.192 1404.72 -158.891 1394.1 -161.943 1383.87C-168.688 1360.52 -177.986 1337.67 -189.703 1315.67C-205.316 1287.04 -220.617 1258.55 -234.004 1228.61C-237.727 1220.38 -241.621 1211.75 -245.203 1203.26M-329.091 1353.71C-319.05 1368.29 -311.128 1383.85 -305.521 1400.01C-300.428 1414.92 -296.486 1430.07 -293.721 1445.35C-290.309 1464.79 -285.621 1484.1 -279.68 1503.19C-273.168 1522.31 -264.099 1540.8 -252.668 1558.24C-242.743 1573.3 -231.019 1587.43 -217.71 1600.4C-207.939 1610.12 -196.962 1618.85 -185.006 1626.43L-184.98 1626.44C-176.846 1631.37 -168.711 1636.29 -160.437 1640.95C-154.5 1644.25 -147.973 1647.15 -141.585 1650.31C-125.872 1657.62 -109.707 1664.8 -94.134 1672.38C-86.8138 1675.96 -80.0547 1680.6 -72.5638 1684.59C-63.7143 1689.67 -55.7294 1695.88 -48.8857 1702.99C-36.5991 1715.35 -29.945 1731.13 -30.3078 1750.03C-31.0461 1761.55 -33.3985 1772.87 -37.3114 1783.73C-43.5384 1804.3 -49.0035 1824.88 -48.9644 1845.94C-49.1618 1863.21 -45.0512 1880.52 -36.9215 1896.64C-30.9644 1908.15 -23.993 1919.27 -16.074 1929.9C-7.17638 1941.41 2.17228 1952.79 11.3808 1964.44L36.6292 1997.35C41.471 2004.78 47.9358 2011.34 55.6263 2016.64C59.434 2018.68 63.7513 2019.81 68.1095 2019.88C78.0297 2020.54 87.9536 2020.67 97.8253 2020.26C117.155 2019.26 136.695 2020.64 155.885 2024.36C166.644 2026.5 177.713 2028.79 188.191 2031.47C197.907 2034.15 207.342 2037.35 216.918 2040.29C228.499 2043.79 239.769 2047.15 251.21 2050.92C257.848 2052.88 264.375 2055.78 271.324 2057.88C278.887 2060.26 286.59 2062.36 294.293 2064.47L294.315 2064.48C300.332 2066.16 305.897 2067.98 312.053 2069.4C321.536 2072.22 331.151 2074.63 340.859 2076.61C355.598 2079.21 370.307 2081.14 385.295 2082.54C413.332 2084.67 441.268 2081.88 467.471 2074.34C482.668 2070.24 497.835 2065.48 513.032 2061.38C521.899 2058.37 559.132 2031.67 592.3 2021.5C648.137 2004.37 740.788 2020.08 740.788 2020.08M722.934 1847.89C720.736 1847.82 718.538 1847.61 716.357 1847.27C692.743 1840.39 667.849 1838.87 643.486 1835.61C630.472 1834.1 617.287 1832.19 604.384 1829.74C595.041 1827.57 585.855 1824.81 576.9 1821.48C569.74 1819.12 562.745 1816.34 555.963 1813.16C547.71 1809.17 539.878 1804.38 531.906 1799.85C515.515 1790.25 500.257 1779.17 486.395 1766.82C474.029 1756.06 462.084 1744.51 454.107 1729.79C446.644 1715.61 444.285 1699.97 447.361 1685.06C449.946 1672.81 453.576 1660.8 458.223 1649.12C465.132 1630.17 472.042 1611.22 477.708 1591.71C483.764 1570.74 487.986 1549.6 493.42 1528.35C497.804 1508.1 503.564 1488.16 510.669 1468.63C514.364 1459.43 517.608 1450.35 521.615 1441.28C525.341 1432.75 528.896 1423.81 533.554 1415.69C539.981 1403.61 547.179 1391.88 555.114 1380.57C561.004 1371.69 568.634 1363.85 577.672 1357.39C581.889 1354.57 586.798 1352.62 592.064 1351.67C597.33 1350.72 602.83 1350.79 608.187 1351.88C618.635 1353.89 627.399 1359.1 636.475 1364.44C649.843 1372.72 661.8 1382.69 671.928 1394C684.219 1407.7 693.783 1423.08 700.179 1439.41C705.84 1453.43 710.318 1468.24 715.247 1482.92C722.856 1506.35 729.874 1530.17 740.471 1552.3C747.609 1567.33 756.112 1581.88 765.894 1595.8C773.518 1606.09 780.551 1616.78 788.315 1626.8C797.383 1638.71 806.903 1650.5 816.282 1662.56C817.229 1664.01 817.965 1665.55 818.469 1667.14M746.941 1803.01C746.49 1803.14 746.069 1803.94 745.758 1803.8C732.403 1801.49 719.189 1798.9 705.864 1797.26C684.127 1794.83 662.452 1793.75 640.575 1791.59C627.345 1790.39 614.175 1788.38 601.162 1785.59C589.293 1782.78 577.894 1778.38 567.37 1772.55C556.486 1766.67 546.603 1759.4 538.066 1750.99C527.947 1741.32 520.479 1729.77 516.286 1717.32C512.581 1705.75 511.829 1693.74 514.085 1682.16C516.525 1668.79 519.588 1655.68 522.961 1642.72C527.975 1622.27 531.916 1601.67 534.644 1581.19C538.012 1558.03 540.759 1534.6 546.865 1511.35C549.924 1500.54 553.821 1489.98 558.531 1479.71C563.215 1469.59 569.164 1460 576.274 1451.11C583.92 1441.69 593.18 1434.3 604.908 1430.96C612.513 1428.64 620.975 1428.89 628.699 1431.67C645.114 1437.64 655.566 1449.85 663.993 1464.44C670.962 1477.07 676.506 1490.21 680.542 1503.67C689.828 1530.47 699.113 1557.28 712.708 1581.72C722.35 1598.41 733.363 1614.51 745.653 1629.88C759.877 1648.03 774.101 1666.18 788.045 1684.87C792.409 1690.42 795.589 1696.76 799.361 1702.71M-334.469 1374.28C-323.873 1393.17 -316.448 1413.19 -312.438 1433.69C-308.198 1453.33 -303.959 1472.96 -298.507 1492.47C-292.447 1513.08 -283.35 1533.03 -271.452 1551.82C-262.226 1566.93 -251.637 1581.42 -239.793 1595.13C-227.522 1609.57 -213.262 1622.64 -197.368 1634.03C-187.47 1640.73 -176.98 1647.03 -166.802 1653.19C-160.073 1657.17 -153.063 1660.61 -146.194 1664.32C-136.668 1669.53 -126.69 1674.62 -117.304 1680.11C-104.88 1686.73 -93.5309 1694.88 -83.6176 1704.27C-69.2649 1718.54 -62.3491 1736.73 -63.8034 1758.43C-64.9397 1773.71 -66.8382 1788.97 -68.4256 1804.37C-71.3004 1824.64 -70.8256 1845.33 -67.0155 1865.8C-62.7304 1885.08 -55.631 1903.93 -45.8974 1921.85C-37.86 1937.91 -28.9203 1953.72 -24.1504 1971.61C-20.1936 1985.6 -20.6452 2000.07 -25.4556 2013.43C-28.2227 2020.51 -31.7929 2027.29 -36.1142 2033.68C-40.6627 2040.86 -45.8328 2047.77 -51.003 2054.68M-355.306 1415.31C-352.796 1423.66 -350.286 1432.01 -348.678 1440.61C-344.841 1458.09 -342.357 1475.96 -337.928 1493.04C-333.237 1512.55 -323.475 1529.7 -313.292 1546.06C-305.266 1558.5 -296.79 1570.81 -288.032 1582.59C-274.451 1601.81 -258.786 1619.89 -241.27 1636.55C-232.047 1645.5 -221.716 1653.5 -210.491 1660.41C-200.623 1666.44 -191.066 1672.33 -181.058 1678.09C-173.708 1682.34 -166.528 1686.19 -159.317 1690.7C-145.884 1698.11 -133.545 1707.02 -122.632 1717.19C-108.59 1731.31 -100.632 1748.98 -99.3802 1769.92C-98.8336 1781.99 -98.8784 1794.46 -98.7829 1806.67C-98.7625 1830.67 -98.1508 1854.28 -92.4065 1876.88C-88.1833 1892.95 -82.6818 1908.79 -75.9439 1924.29C-70.7952 1937.1 -65.6464 1949.9 -61.8511 1963.09C-56.8795 1979.64 -56.6791 1996.8 -61.2682 2012.98C-64.4568 2023.93 -68.9825 2034.48 -74.7689 2044.45M1011.64 534.51C1008.48 562.361 1008.06 590.113 1013.54 616.868C1016.81 631.382 1021.02 645.763 1026.15 659.939C1031.42 675.428 1038.18 690.265 1040.92 706.927C1043.44 719.276 1041.78 731.806 1036.15 742.938C1031.36 752.146 1023.27 759.605 1013.05 764.231C1005.35 768.235 996.071 769.502 987.015 767.787C978.142 765.892 970.072 761.498 964.061 755.29C954.353 746.048 944.925 736.272 935.807 726.634C921.625 711.456 906.162 697.225 889.561 684.071C875.189 672.757 860.257 662.509 847.629 649.34C838.072 640.186 831.489 628.989 828.632 617.026C825.775 605.064 826.758 592.817 831.469 581.684C833.492 576.145 835.838 570.715 838.499 565.415C844.939 552.735 853.433 541.016 863.729 530.605C877.257 516.564 891.749 503.609 905.758 490.111C906.35 489.716 907.252 489.459 907.843 489.064M782.88 433.56C778.289 436.451 773.839 439.076 769.419 442.372C751.88 455.289 734.03 468.067 716.832 481.793C701.657 494.445 687.566 508.066 674.662 522.554C662.316 535.806 650.281 549.194 636.802 560.956C623.323 572.718 607.546 580.83 590.052 581.276C581.765 581.854 573.332 580.595 565.517 577.61C560.479 576.083 555.596 574.134 550.938 571.792C542.257 566.932 533.925 561.584 525.997 555.783C508.106 542.229 491.932 526.994 477.795 510.379C472.306 504.499 467.71 498.035 464.132 491.162C459.957 483.063 460.836 475.565 470.298 469.25C480.942 462.145 491.756 455.445 502.431 449.011C518.238 440.128 532.457 429.3 544.685 416.833C551.814 409.625 557.557 401.419 561.708 392.512C566.904 381.576 570.075 369.898 571.107 357.902C571.285 351.736 571.462 345.57 571.47 338.999M997.027 528.021C996.054 550.269 994.63 572.644 993.968 595.029C993.819 611.49 995.126 628.005 997.88 644.426C999.719 654.775 1001.56 665.123 1003.09 675.334C1004.8 683.441 1004.75 691.677 1002.97 699.604C1000.62 708.424 995.393 713.989 983.964 713.842C976.977 713.221 970.244 710.802 964.612 706.89C953.019 699.769 942.298 691.72 931.126 683.799C924.367 679.154 917.437 674.104 910.818 669.191C900.268 661.547 889.578 654.169 879.619 646.13C867.835 637.194 858.888 625.717 853.749 612.946C849.413 601.077 849.324 588.514 853.492 577.005C859.194 561.301 868.134 546.788 879.881 534.165C891.914 520.758 905.259 508.325 919.777 496.995C920.647 496.377 921.664 495.933 922.764 495.693M763.292 424.867C761.883 425.366 760.534 425.977 759.262 426.693C739.437 439.581 719.472 452.734 699.647 465.622C684.06 476.484 669.626 488.546 656.502 501.677C647.162 510.676 637.682 519.941 627.72 528.664C617.759 537.387 606.012 543.672 592.979 545.115C587.979 545.821 582.809 545.592 577.801 544.443C572.792 543.293 568.055 541.249 563.892 538.44C556.542 533.986 550.586 527.934 546.65 520.921C543.942 516.229 542.342 511.146 541.952 505.994C541.561 500.841 542.388 495.732 544.382 490.989C547.486 482.179 553.729 475.42 559.49 468.119C566.404 459.357 574.111 451.275 581.024 442.514C587.555 433.999 592.913 424.799 596.993 415.095C603.217 399.025 606.81 382.146 607.669 364.946C607.828 361.73 607.225 358.504 607.244 355.554M449.271 681.118C453.854 684.797 458.437 688.476 462.57 692.283C467.348 696.297 470.8 701.365 472.521 706.893C473.466 709.898 473.659 713.013 473.087 716.018C472.434 717.899 471.168 719.545 469.44 720.76C467.713 721.974 465.596 722.706 463.345 722.867C459.555 723.403 455.626 723.123 451.885 722.049C437.469 718.233 425.04 709.642 417.297 698.14C414.464 694.144 413.132 689.516 413.501 684.951C413.889 682.757 414.956 680.731 416.587 679.09C418.586 677.136 421.199 675.743 424.129 675.07C427.059 674.397 430.19 674.469 433.167 675.279C438.421 676.956 443.706 679.303 448.82 681.246M956.575 522.546C963.565 528.938 964.753 538.339 965.488 547.869C966.704 564.531 965.198 581.131 961.018 597.159C959.684 603.966 956.818 610.4 952.585 616.092C949.821 619.959 945.698 622.899 940.798 624.496C935.897 626.093 930.466 626.267 925.269 624.995C913.083 621.569 902.671 614.109 896.306 604.242C892.525 598.743 890.226 592.606 889.598 586.329C888.97 580.053 890.03 573.815 892.691 568.124C896.519 557.794 902.695 548.352 910.858 540.352C919.021 532.351 929.008 525.953 940.233 521.532C942.592 520.39 945.308 519.879 948.065 520.056C950.823 520.234 953.509 521.094 955.813 522.536M413.614 1875.18C416.131 1876.96 418.959 1878.87 421.476 1880.65C428.406 1885.7 436.208 1889.82 442.576 1895.94C450.73 1903.52 458.272 1911.6 465.144 1920.09C473.734 1931.04 479.407 1943.46 481.712 1956.38C484.533 1970.36 482.068 1984.51 474.702 1996.65C468.803 2006.49 460.322 2014.87 449.919 2021.14C433.353 2030.92 413.779 2036.34 393.362 2036.77C376.046 2037.27 358.602 2035.18 341.758 2030.61C331.731 2027.8 321.984 2024.46 312.238 2021.12C307.422 2019.65 302.711 2017.88 298.14 2015.84C289.095 2011.17 280.19 2006.23 271.285 2001.29C258.241 1993.79 246.516 1984.59 236.545 1974.02C226.015 1963.08 218.988 1949.95 216.246 1936.08C214.881 1928.99 215.209 1921.81 217.209 1915C219.21 1908.18 222.838 1901.9 227.859 1896.54C237.01 1886.54 248.378 1878.31 261.334 1872.29C280.957 1862.34 303.142 1856.57 326.212 1855.42C341.334 1854.56 356.655 1856.02 371.49 1859.76C386.57 1863.17 399.655 1869.64 413.333 1875.71M713.536 1092.02C720.758 1100.16 718.154 1106.56 712.112 1114.39C701.32 1128.34 688.152 1140.24 675.776 1152.82C663.4 1165.4 651.926 1177.72 639.86 1190.44C625.631 1205.81 612.023 1221.46 597.171 1236.56C587.862 1246.23 576.596 1253.06 563.362 1253.42C555.311 1253.69 547.273 1251.29 540.822 1246.7C536.022 1243.65 531.533 1240.22 527.413 1236.47C515.49 1225.78 506.365 1212.95 500.739 1198.98C497.337 1190.77 495.756 1182.14 496.086 1173.58C496.874 1160.45 502.897 1148.24 513.105 1139.07C523.216 1129.94 535.074 1122.43 548.195 1116.85C579.699 1102.91 612.129 1095.95 644.96 1091.14C662.01 1088.28 679.517 1087.33 697.072 1088.32C702.49 1088.51 707.856 1089.77 712.774 1092.01M396.246 1895.07C399.696 1897.26 402.835 1899.31 406.285 1901.5C414.73 1906.61 422.179 1912.92 428.299 1920.15C436.226 1929.05 441.708 1939.37 444.282 1950.26C446.74 1960.63 445.572 1971.23 440.937 1980.66C436.507 1989.45 429.296 1996.83 420.123 2001.98C406.29 2009.65 389.821 2013.14 373.058 2011.97C361.084 2011.51 349.18 2009.23 337.875 2005.22C329.404 2002.17 321.111 1998.7 313.037 1994.84C299.514 1988.13 287.894 1978.68 279.199 1967.32C270.33 1956.43 266.452 1943.16 268.385 1930.31C269.989 1920.34 275.177 1911.26 283.202 1904.35C298.712 1890.46 320.112 1882.75 342.845 1882.85C353.933 1882.64 365.085 1884.14 375.791 1887.3C382.739 1889.4 389.127 1892.57 396.246 1895.07ZM386.65 1918.41C389.678 1920.55 392.577 1922.83 395.335 1925.23C403.863 1932.07 409.381 1941.31 410.826 1951.17C411.81 1957.35 410.701 1963.55 407.639 1968.97C404.576 1974.4 399.699 1978.82 393.625 1981.66C382.702 1987.02 369.633 1988.39 357.093 1985.49C350.46 1984.38 344.002 1982.4 337.942 1979.61C326.099 1973.69 315.549 1966.05 309.779 1952.97C307.867 1948.9 306.954 1944.57 307.101 1940.27C307.248 1935.97 308.452 1931.79 310.63 1928.03C313.507 1922.77 318.061 1918.42 323.768 1915.46C338.813 1908.01 354.132 1906.6 368.821 1911.48C374.697 1913.43 380.604 1916.06 386.65 1918.41Z" stroke="#DFE4E8" stroke-miterlimit="10"/>
</svg>
