<svg width="968" height="789" viewBox="0 0 968 789" fill="none" xmlns="http://www.w3.org/2000/svg">
<g clip-path="url(#clip0_581_2879)">
<path d="M1381.53 -150.452C1379.15 -138.463 1376.54 -126.675 1374.63 -114.724C1372.38 -98.4453 1372.23 -82.2159 1374.16 -66.391C1375.83 -51.2256 1378.44 -36.1344 1380.82 -21.2436C1386.19 10.8947 1388.28 43.2911 1381.8 74.3963C1378.14 92.5891 1372.04 110.552 1363.65 127.839C1357.82 139.226 1351.11 150.277 1343.58 160.892C1337.79 168.657 1331.47 176.092 1324.67 183.143C1319.53 189.012 1313.91 194.919 1308.32 200.386C1300.29 208.231 1291.81 215.674 1283.32 223.556C1274.34 231.913 1264.9 239.869 1256.35 249.066C1243.16 263.219 1231.09 278.376 1223.33 296.033C1216.43 310.341 1213.66 325.688 1215.35 340.369C1217.11 352.373 1222.53 363.235 1231 371.696C1239.02 380.242 1247.75 388.513 1255.76 397.059C1265.13 406.607 1272.66 417.66 1278.11 429.824C1280.65 435.681 1282.57 441.823 1283.83 448.167C1286.79 464.345 1284.67 481.561 1277.72 497.819C1272.98 509.996 1266.09 521.559 1257.37 531.985C1252.84 537.736 1247.93 543.235 1242.68 548.441C1235.89 554.659 1228.66 560.037 1221.67 565.615C1215.15 570.718 1208.42 575.62 1202.11 581.362C1193.15 589.28 1184.17 597.637 1175.65 605.958C1171.42 610.599 1167.54 615.509 1164.07 620.639C1160.87 624.607 1157.42 628.812 1154.22 632.779C1150.52 637.661 1146.57 642.78 1142.64 647.461L1136.74 654.482C1133.32 658.248 1129.67 661.814 1126.47 665.782C1112.2 683.078 1095.46 698.604 1079.18 714.093C1071.83 720.778 1064.17 727.145 1056.22 733.168C1051.88 736.57 1047.76 740.172 1043.19 743.373C1037.17 748.001 1030.9 752.866 1024.43 757.092C1011.18 765.868 997.19 773.486 982.673 779.835C962.25 788.715 940.638 793.839 919.118 794.9C902.274 795.617 885.801 793.512 870.463 788.686C858.682 785.29 848.317 779.134 840.256 770.745C833.014 763.307 828.201 753.973 826.287 743.656C822.113 721.695 825.793 701.3 832.483 681.323C837.335 666.762 843.81 652.548 851.793 638.934C857.771 629.308 864.322 619.961 871.41 610.944C879.311 600.017 888.515 589.896 898.809 580.811C904.545 575.703 910.589 570.919 916.903 566.49C924.389 561.048 932.154 555.984 940.158 551.325C958.822 541.023 978.726 533.334 999.155 528.533C1015.17 524.648 1031.38 521.402 1047.37 517.955C1059.6 515.242 1071.61 512.328 1081.68 505.852C1097 496.34 1105.28 482.793 1104.69 464.046C1104.58 457.347 1102.95 450.923 1099.92 445.192C1096.79 439.42 1092.32 434.486 1086.8 430.711C1075.15 423.497 1061.96 418.469 1047.84 415.864C1020.86 409.469 993.614 403.751 966.991 394.488C945.336 386.84 924.842 377.034 905.823 365.221C891.669 356.419 878.688 346.168 867.079 334.624C857.28 324.716 848.397 314.019 840.509 302.628C830.005 286.797 821.299 269.846 814.513 252.012C809.287 238.22 804.528 224.391 800.236 210.525C792.212 186.026 783.701 162.003 772.853 138.165C764.114 119.405 754.684 100.481 746.656 81.4462C739.107 63.7664 733.667 45.1516 730.426 25.908C725.918 0.913833 725.355 -23.736 722.941 -48.6768C721.94 -62.5843 718.756 -76.0257 713.488 -88.5781C709.453 -97.738 703.385 -105.806 695.646 -112.302C686.117 -119.918 674.782 -125.418 662.333 -128.468C645.87 -132.465 628.794 -134.78 611.379 -135.376C601.15 -135.88 590.678 -136.146 580.43 -136.212C556.437 -136.286 532.669 -136.16 508.9 -136.034C495.847 -135.878 482.57 -135.923 469.76 -136.005C444.141 -136.17 418.521 -136.334 392.92 -136.937C362.907 -137.848 332.95 -140.074 303.161 -140.784C277.049 -141.478 250.508 -138.722 224.295 -132.596C201.009 -127.099 178.148 -119.136 156.171 -108.866C144.917 -103.832 134.285 -97.4019 124.591 -89.7662C118.81 -85.4421 113.314 -80.773 108.144 -75.7939C100.455 -67.7384 94.013 -58.751 89.0503 -49.1567C76.5977 -25.2285 71.5119 0.741172 70.801 27.8953C69.9694 45.6156 72.4507 62.9485 78.133 79.109C82.4072 90.5424 89.1687 100.778 98.028 109.227C109.345 119.437 122.604 127.618 137.282 133.447C155.36 140.981 173.233 147.876 191.574 154.733C213.354 162.849 235.621 170.489 256.614 180.634C266.839 185.507 276.489 191.253 285.457 197.808C304.448 211.171 316.965 228.759 326.357 248.56C337.338 271.942 346.328 296.288 353.254 321.395C358.54 339.088 362.501 357.247 365.109 375.749C372.619 451.962 293.615 610.245 291.179 765.5C290.861 785.781 298.71 833.854 319.53 870.5M1324.13 -201.866C1322.55 -192.344 1320.99 -183.262 1319.66 -173.978C1316.91 -153.656 1313.94 -133.536 1311.89 -113.05C1310.01 -93.7911 1310.67 -74.6843 1313.85 -56.1681C1316.79 -38.0434 1320.2 -19.9556 1322.68 -1.79405C1326.85 25.6307 1326.14 52.7848 1317.8 78.5739C1313.38 92.4712 1306.75 105.899 1298.13 118.368C1292.03 127.527 1284.85 136.091 1276.76 143.874C1273.84 146.727 1271.84 149.944 1268.69 152.596C1260.44 160.24 1251.96 167.683 1243.24 175.364C1236.47 181.143 1229.45 187.16 1222.9 193.14C1212.97 202.009 1203.26 211.08 1193.52 220.589C1187.18 227.208 1181.51 234.43 1175.61 241.451C1170.69 247.521 1165.54 253.39 1160.87 259.223C1156.67 264.58 1152.7 270.137 1148.75 275.257C1145.55 279.224 1142.8 283.593 1139.38 287.36C1132.61 295.511 1125.35 303.31 1117.63 310.71C1094.33 332.216 1065.58 345.192 1030.8 346.843C1009.3 347.877 988.306 345.007 968.961 338.39C955.372 333.96 942.846 327.505 931.817 319.248C925.921 315.256 920.352 310.878 915.145 306.14C903.07 294.484 893.136 280.981 885.664 266.071C873.843 243.183 868.604 218.902 863.367 194.621C858.129 170.34 853.397 145.145 842.062 121.782C837.151 111.461 831.548 100.976 825.926 90.9301C815.112 71.6781 803.812 52.9018 795.597 32.7892C789.426 18.1044 785.097 2.61555 782.689 -13.3957C780.382 -30.0407 779.028 -47.1984 776.721 -63.8434C774.619 -79.849 772.741 -95.6538 766.207 -111.528C761.378 -123.719 753.848 -134.557 744.065 -143.397C734.282 -152.236 722.446 -158.897 709.263 -162.981C698.086 -166.374 686.502 -168.823 674.635 -170.302C663.665 -171.909 652.493 -172.78 641.2 -172.909C625.604 -173.209 610.438 -172.668 594.823 -172.529C589.231 -172.525 583.864 -172.32 578.516 -172.554C545.453 -173.006 512.372 -173.018 479.348 -174.347C452.52 -175.198 426.012 -177.78 400.007 -182.075C370.408 -187.17 340.828 -192.704 311.453 -197.598C284.203 -202.191 255.509 -201.193 227.223 -194.67C205.564 -189.465 184.297 -182.542 163.497 -175.657C138.919 -167.599 114.584 -159.779 90.4548 -151.32C80.6559 -147.993 71.2655 -143.348 62.6002 -137.54C49.783 -128.874 40.0912 -116.577 35.2355 -102.821C28.1815 -83.8806 23.3564 -64.5112 20.8522 -45.0857C16.6252 -17.4357 12.3983 10.2142 8.86316 38.0282C6.71926 55.2428 5.26696 72.6212 4.50667 90.1638C3.7525 105.75 6.34308 120.929 12.1242 134.8C15.6011 142.924 20.555 150.284 26.7886 156.588C38.9977 168.828 54.3772 177.928 71.7635 183.198C94.7223 191.003 117.7 198.369 140.902 205.936C163.636 213.533 185.148 223.482 205.08 235.62C219.197 244.624 232.019 255.191 243.319 267.131C256.872 281.156 267.946 297.21 276.199 314.8C284.177 330.821 292.002 344.515 294.509 365.367C303 436 250 547.282 218.631 684.965C204.592 746.584 202.854 816.764 208.885 846.5M1359.98 -169.3C1353.62 -145.091 1350.06 -120.625 1349.37 -96.3471C1349.16 -79.6516 1350.55 -63.1593 1353.52 -47.068C1356.33 -31.337 1358.21 -15.5319 1360.8 -0.00174988C1363.83 19.72 1363.97 40.0678 1361.21 60.4997C1358.5 81.8386 1351.33 102.984 1340.11 122.697C1334.58 131.874 1329.06 141.051 1323.09 149.827C1318.88 155.622 1313.77 160.615 1309.11 166.008C1305.44 170.013 1301.75 174.456 1297.86 178.259C1292.27 183.727 1286.45 188.994 1280.4 194.06C1274.34 199.564 1267.81 205.105 1261.3 210.208C1248.67 220.379 1236.75 231.327 1225.63 242.96C1219.53 249.342 1214.1 256.326 1208.45 263.109C1194.69 279.492 1184.56 298.211 1173.76 316.327C1168.46 325.705 1162.94 334.881 1156.72 343.894C1147.07 358.471 1132.23 369.661 1115.3 375.134C1098.22 380.231 1080.77 383.152 1063.44 383.815C1039.09 385.229 1015.09 383.37 992.155 378.292C964.265 372.91 938.392 362.417 915.916 347.374C909.579 343.066 903.243 338.758 897.168 333.774C890.903 328.846 884.987 323.548 879.452 317.907C872.274 309.671 865.65 301.001 859.61 291.937C847.806 273.866 838.869 254.063 833.04 233.062L816.027 174.089C809.825 153.447 801.726 133.545 791.813 114.592C783.018 97.1472 773.774 79.3014 765.913 61.7832C757.602 43.2835 752.113 23.5057 749.591 2.97412C747.565 -14.7858 746.007 -32.5828 744.205 -50.1418C743.205 -63.521 740.969 -76.6507 737.519 -89.3872C733.223 -104.166 724.708 -117.133 712.823 -126.993C706.629 -132.011 699.484 -135.948 691.663 -138.655C675.255 -145.014 657.433 -148.489 638.99 -148.924C625.508 -149.608 612.268 -150.531 598.991 -150.576C577.336 -150.835 555.643 -150.216 533.969 -150.036C527.91 -149.995 521.384 -149.917 515.1 -150.077C504.852 -150.143 494.605 -150.209 484.6 -150.512C469.696 -150.648 454.548 -150.546 439.439 -151.321C417.354 -152.42 395.064 -154.158 372.999 -155.696C356.281 -156.999 339.583 -158.741 322.847 -159.607C309.14 -160.492 295.433 -161.378 281.688 -161.386C262.23 -161.297 242.553 -158.864 223.132 -154.145C209.946 -150.92 196.984 -147.494 183.984 -143.19C159.988 -135.837 136.698 -125.777 114.659 -113.246C102.212 -105.891 91.0006 -96.6423 81.5587 -85.941C71.9 -74.3402 64.6702 -61.2696 60.3253 -47.5527C53.89 -28.7942 49.471 -9.6974 47.139 9.43179C45.1864 25.7295 44.1703 42.0052 44.0945 58.1865C44.0736 71.8425 46.0013 85.2128 49.8264 97.9445C53.4804 110.063 60.3753 120.774 69.9074 129.14C82.224 140.084 96.857 148.557 113.088 154.143C129.353 160.509 145.88 166.198 162.164 172.125C182.322 179.059 201.886 187.148 220.755 196.35C233.441 202.561 245.437 209.8 256.626 217.996C266.579 225.623 275.719 234.113 283.948 243.376C299.924 261.784 310.438 282.589 319.53 303.944C329.349 326.833 338.92 346.705 340.406 375.943C344.5 456.5 267.046 635.375 268.879 757.5C269.159 776.136 268.879 813.283 284 852.5M1339.35 -187.77C1335.94 -168.051 1332.76 -148.57 1329.57 -128.65C1326.25 -105.354 1326.18 -82.1294 1329.37 -59.5779C1331.45 -43.1338 1335.16 -26.5994 1337.71 -10.1921C1341.75 14.839 1343.25 39.4151 1338.71 63.5935C1332.87 93.8332 1318.02 122.926 1295.94 147.387C1287.65 155.908 1279.83 164.393 1271.09 172.512C1264.76 178.693 1258.01 184.033 1251.23 189.812C1244.95 195.116 1238.68 199.981 1232.84 205.686C1222.17 215.269 1211.73 225.052 1201.76 234.799C1196.23 240.697 1191.06 246.871 1186.28 253.284C1180.63 260.067 1175.2 267.052 1169.77 274.036C1165.32 280.069 1160.84 286.541 1156.16 292.373C1151.48 298.206 1147.25 304.44 1142.35 310.071C1136.72 316.416 1130.62 322.798 1124.53 328.741C1112.78 339.686 1098.64 348.012 1083.41 352.964C1062.35 360.525 1039.42 362.771 1016.18 361.545C993.147 360.219 971.108 354.845 951.168 345.694C939.488 340.343 928.461 333.973 918.212 326.659C898.127 311.763 882.06 292.722 871.014 270.722C859.846 248.876 854.065 226.386 848.527 203.658C844.163 186.083 839.799 168.507 834.725 151.206C829.069 133.848 821.598 117.243 812.412 101.611C802.476 83.6009 792.054 66.0663 784.25 47.2325C776.706 29.7711 771.564 11.2458 768.936 -7.94089C767.206 -21.7906 765.944 -35.6771 764.458 -49.7645C762.599 -66.0078 761.208 -82.288 756.32 -98.5109C752.781 -110.615 746.53 -121.592 737.951 -130.763C729.373 -139.935 718.65 -147.105 706.446 -151.832C690.977 -157.583 674.412 -161.061 657.271 -162.158C647.042 -162.662 636.851 -164.044 626.603 -164.11C605.883 -164.442 585.126 -163.897 564.611 -163.59L546.901 -163.505C515.242 -164.067 484.031 -164.227 452.409 -165.666C420.006 -167.248 387.949 -170.556 356.389 -175.575C330.23 -179.412 304.295 -183.048 278.207 -183.176C260.252 -183.201 242.084 -181.107 224.121 -176.943C212.824 -174.303 201.733 -171.024 190.641 -167.745C165.923 -160.34 141.509 -151.628 117.522 -141.654C105.525 -136.794 93.9447 -130.827 82.9699 -123.85C74.6433 -118.092 67.252 -111.153 61.1135 -103.332C45.3539 -83.7324 39.2037 -60.0827 34.437 -36.1051C30.6282 -18.1035 27.7541 -0.176177 25.5722 17.9156C23.3142 37.7617 21.2809 57.809 20.8741 77.9461C20.2044 92.5879 22.5106 106.868 27.6701 120.023C30.6808 127.762 35.009 134.865 40.5025 141.083C51.5828 154.195 66.6125 162.188 82.6532 168.353C104.209 176.268 126.028 183.507 147.603 190.983C168.98 198.179 189.475 207.087 208.885 217.618C219.756 223.929 230.112 230.921 239.894 238.555C257.344 252.503 271.953 269.277 283.17 288.245C298.767 314.031 310.475 337.756 314.92 372.716C325 452 241.804 627.206 240.966 765.5C240.88 779.759 240.966 824.5 250 846.5M-11.1332 -548.899C-6.30957 -547.312 -1.24269 -545.964 3.58093 -544.378C16.6492 -539.508 29.4744 -534.401 42.5426 -529.531C62.2685 -522.226 80.9826 -513.093 98.4381 -502.253C108.42 -496.047 117.915 -489.366 127.167 -482.447C150.213 -465.909 169.591 -445.365 191.402 -427.199C214.558 -407.828 240.318 -394.781 270.461 -391.477C288.543 -389.407 306.515 -390.169 323.069 -395.845C330.723 -398.139 337.96 -401.916 344.283 -406.916C350.103 -411.694 355.618 -416.801 360.788 -422.203C366.463 -428.689 371.521 -435.602 375.893 -442.844C387.407 -461.235 398.472 -480.028 409.986 -498.419C415.415 -506.05 421.258 -513.441 427.486 -520.56C429.971 -524.032 432.847 -527.266 436.058 -530.196C448.145 -540.327 460.906 -549.857 477.813 -552.939C486.256 -554.507 494.722 -554.124 502.46 -551.823C507.661 -550.187 512.262 -547.429 515.93 -543.75C519.599 -540.071 522.242 -535.562 523.67 -530.55C526.951 -520.139 526.858 -508.682 523.404 -497.531C518.702 -479.964 510.532 -462.996 499.339 -447.555C493.064 -438.467 486.145 -429.741 478.638 -421.447C468.12 -409.909 456.929 -398.974 445.739 -388.039C439.657 -382.096 432.678 -376.956 426.372 -371.214C421.237 -367.034 416.302 -362.633 411.589 -358.029C399.612 -345.064 390.364 -330.567 389.79 -311.947C389.087 -295.72 394.743 -281.087 406.982 -267.848C419.614 -254.926 435.277 -244.931 453.002 -238.48C477.044 -228.794 502.006 -224.207 527.493 -220.972C554.363 -217.41 581.385 -217.356 608.145 -216.626C632.119 -216.113 655.682 -216.88 679.636 -215.928C702.951 -215.461 725.633 -211.727 746.951 -204.848C761.871 -199.798 775.615 -192.557 787.722 -183.37C806.674 -169.13 818.218 -150.592 825.945 -130.004C832.852 -111.973 835.775 -93.4095 838.923 -74.6454C842.777 -50.6923 847.079 -26.338 857.498 -3.33975C864.021 10.6775 871.694 24.0962 880.453 36.8082C891.83 53.8305 904.385 70.541 913.853 88.5879C922.642 105.372 928.831 123.479 932.254 142.425C935.607 161.829 938.492 181.269 942.312 200.636C944.799 214.206 949.672 227.032 956.741 238.615C967.407 255.912 982.976 267.577 1004.01 271.381C1016.48 273.919 1029.97 272.626 1042.61 267.681C1053.55 263.68 1063.7 257.502 1072.28 249.606C1075.69 246.278 1079.77 243.552 1082.71 240.261C1088.83 233.441 1094.72 226.42 1100.62 219.399C1106.51 212.378 1112.18 205.156 1117.86 197.934C1122.05 192.577 1125.79 186.819 1129.74 181.699C1132.96 177.293 1136.87 173.051 1140.32 168.846C1144.75 163.251 1149.43 157.419 1154.09 152.025C1157.03 148.733 1159.73 145.68 1162.66 142.389C1167.55 137.196 1172.41 132.442 1177.07 127.048C1183.68 119.752 1190.06 112.255 1196.22 104.558C1203.27 96.143 1209.8 87.3804 1215.76 78.3224C1220.7 70.4046 1224.73 62.0963 1227.78 53.5543C1233.81 36.0645 1236.33 18.0614 1235.21 0.52058C1234.47 -14.7185 1233.49 -29.7197 1232.75 -44.9589C1231.56 -67.6165 1232.48 -90.5737 1235.49 -113.576C1238.2 -133.02 1241.62 -152.739 1243.63 -172.348C1246.21 -199.649 1248.1 -227.115 1249.99 -254.581C1250.16 -258.528 1250.58 -262.712 1250.75 -266.659M-1.3693 -559.296C9.86681 -555.156 21.3463 -551.254 32.5824 -547.114C60.3458 -537.284 87.8278 -526.341 113.25 -510.863C123.923 -504.494 134.335 -497.447 144.746 -490.401C153.568 -484.323 161.904 -477.769 170.483 -471.452C187.866 -458.619 205.248 -445.786 225.101 -436.206C246.562 -426.099 268.738 -421.729 291.461 -424.614C305.518 -426.45 319.263 -431.76 331.267 -439.992C340.847 -446.908 349.572 -454.87 357.221 -463.674C364.31 -471.879 370.904 -480.427 376.968 -489.27L392.579 -510.825C396.304 -516.145 400.03 -521.465 403.979 -526.584C405.458 -528.449 407.18 -530.552 408.658 -532.416C415.421 -540.144 422.667 -547.505 430.348 -554.451C442.004 -564.983 455.978 -572.856 470.944 -577.321C488.638 -582.432 506.872 -583.87 525.604 -575.295C532.911 -572.068 539.102 -567.181 543.687 -561.019C548.271 -554.857 551.125 -547.59 552.022 -539.791C554.329 -523.146 550.634 -507.776 545.556 -492.734C540.654 -478.469 534.193 -464.553 526.284 -451.222C519.001 -439.066 510.802 -427.274 502.846 -415.72C498.11 -408.571 492.925 -401.825 487.74 -395.078C483.791 -389.959 479.412 -385.68 475.462 -380.561C470.297 -374.253 465.112 -367.507 460.171 -360.998C454.724 -353.575 449.033 -345.915 444.035 -338.091C437.077 -327.489 433.397 -315.56 433.463 -303.821C433.652 -291.847 437.899 -280.708 445.597 -271.998C456.023 -259.927 469.688 -252.701 484.102 -246.626C504.016 -238.905 525.257 -233.821 547.28 -231.505C569.955 -228.931 592.914 -227.532 616.058 -227.315C640.499 -226.839 664.978 -227.24 689.401 -226.326C712.831 -225.714 735.59 -221.763 756.92 -214.606C775.072 -207.924 791.641 -198.466 806.027 -186.573C814.328 -178.995 821.614 -170.484 827.757 -161.19C839.058 -142.591 846.896 -122.039 850.979 -100.302C854.445 -83.5303 857.688 -66.9589 861.397 -50.4246C866.995 -26.3601 876.877 -3.81432 890.654 16.3239C902.069 32.4691 913.484 48.6142 924.412 65.2348C934.518 80.0747 942.5 96.2496 948.184 113.404C953.475 130.948 957.442 148.961 960.058 167.318C962.096 182.684 966.064 197.551 971.883 211.622C975.172 219.139 979.836 225.933 985.689 231.731C992.733 238.778 1002.23 243.299 1012.85 244.667C1026.84 245.98 1041.51 241.914 1053.65 233.363C1062.95 226.656 1071.49 219.011 1079.09 210.595C1084.97 203.93 1090.48 197.002 1095.6 189.844C1100.04 184.249 1104.7 178.855 1108.91 173.06C1113.12 167.264 1117.58 161.231 1122.26 155.399C1125.7 151.193 1129.39 146.75 1132.83 142.545C1138 136.237 1142.92 130.167 1148.31 124.06C1150.52 121.482 1152.48 119.142 1154.69 116.564C1162.57 106.764 1170.68 97.1646 1178.55 87.3646C1186.64 77.1996 1193.38 66.2336 1198.61 54.7517C1206.88 35.548 1211.08 15.4368 1210.95 -4.35223C1211.49 -27.5593 1210.87 -50.8933 1212.33 -73.7355C1213.45 -94.1472 1216.41 -114.268 1219.14 -134.151C1223.44 -163.555 1228.2 -192.557 1229.73 -222.618C1230.83 -242.591 1231.93 -262.564 1233.27 -282.775M8.36327 -568.805C20.0669 -564.702 32.0141 -560.837 43.4745 -556.496C65.6709 -548.883 87.298 -540.159 108.272 -530.357C123.545 -522.602 138.312 -513.933 152.593 -504.788C171.397 -492.504 189.958 -479.982 209.043 -468.813C228.801 -457.041 250.377 -449.564 273.453 -449.855C288.802 -449.839 304.382 -454.108 318.25 -462.129C331.626 -469.741 341.881 -480.602 352.361 -491.263C357.756 -497.457 362.782 -503.911 367.41 -510.588C371.359 -515.707 375.776 -520.863 379.726 -525.982C383.675 -531.102 387.887 -536.897 391.836 -542.016C393.516 -544.423 395.328 -546.755 397.264 -549.001C405.085 -557.759 413.383 -566.148 422.116 -574.125C437.463 -587.36 455.954 -596.695 475.468 -601.061C496.621 -606.3 518.171 -605.325 537.085 -598.273C546.67 -594.948 554.988 -589.415 561.355 -582.129C567.722 -574.843 571.956 -566.012 573.708 -556.363C576.932 -539.353 573.91 -523.38 569.28 -507.936C564.438 -490.876 557.456 -474.18 548.487 -458.219C541.653 -445.661 534.37 -433.504 527.087 -421.347C520.329 -410.543 513.103 -399.702 506.12 -389.098C498.389 -377.343 490.657 -365.589 483.149 -353.633C475.685 -342.203 470.553 -329.763 468.052 -317.039C465.64 -303.851 468.486 -290.903 476.03 -280.736C482.562 -272.14 491.261 -265.284 501.486 -260.673C520.195 -251.769 540.72 -246.006 562.251 -243.613C593.047 -239.267 623.342 -239.472 653.842 -239.037C680.141 -239.142 706.155 -237.321 731.652 -233.592C755.822 -229.931 778.413 -221.768 798.171 -209.556C827.918 -190.556 849.353 -162.436 859.452 -129.162C865.162 -110.382 869.449 -91.0518 873.98 -71.9598C879.394 -46.5751 889.125 -22.6425 902.823 -1.02627C911.341 12.0694 921.281 24.616 930.754 37.1993C937.124 46.0937 943.981 54.5122 950.108 63.6443C958.133 75.7027 965.058 88.4549 970.821 101.784C977.556 118.861 983.096 136.451 987.409 154.453C989.725 165.386 993.414 175.874 998.401 185.71C1003.82 195.117 1011.18 202.622 1023.73 203.38C1031.27 204.043 1039.15 202.021 1045.87 197.7C1055.65 192.131 1064.18 184.65 1070.82 175.846C1073.75 172.138 1076.94 168.6 1080.36 165.259C1085.75 159.152 1090.45 152.881 1095.84 146.774L1102.47 139.04C1107.86 132.933 1113.71 126.789 1118.88 120.481C1123.78 114.849 1127.99 109.054 1132.9 103.422C1137.07 98.5037 1141.71 93.5487 1145.66 88.4294C1150.85 81.683 1156.05 74.498 1160.79 67.3499C1170.36 52.5512 1177.35 36.6259 1181.46 20.2638C1184.71 5.78871 1186.67 -8.76781 1187.31 -23.2483C1188.96 -50.4762 1190.15 -78.1054 1194.59 -105.116C1198.44 -129.458 1203.2 -153.436 1206.59 -177.741C1210.27 -203.6 1211.41 -229.914 1212.77 -256.027C1213.38 -270.062 1214.93 -284.169 1215.76 -298.002M-38.3488 -523.158C-30.5717 -519.838 -22.7947 -516.518 -14.9986 -513.636C6.7094 -505.318 27.391 -495.179 46.823 -483.329C54.6756 -478.507 61.997 -473.017 68.7097 -466.917C80.1283 -456.235 90.3495 -444.804 96.0246 -430.61C103.59 -414.422 103.596 -395.248 96.0432 -377.289C89.577 -363.536 81.7437 -350.254 72.6586 -337.639C57.5266 -315.825 46.4682 -292.064 40.0334 -267.538C36.4043 -253.383 34.7654 -239.069 35.1603 -224.977C35.5195 -218.612 36.6569 -212.397 38.5507 -206.451C39.963 -201.667 42.6719 -197.44 46.4336 -194.151C50.1952 -190.862 54.8912 -188.614 60.0991 -187.609C69.4414 -185.597 79.2316 -184.969 89.1397 -185.747C110.852 -187.668 132.563 -192.096 153.778 -198.931C171.735 -204.718 189.037 -211.547 207.218 -217.133C226.11 -222.994 245.226 -228.654 265.965 -228.76C285.384 -228.542 304.323 -225.695 322.21 -220.303C341.561 -215.274 360.65 -209.568 379.983 -204.1C403.579 -197.666 427.919 -193.083 452.774 -190.392C468.538 -188.576 484.788 -187.235 500.589 -186.296C520.579 -185.251 540.569 -184.205 560.597 -184.037C583.187 -183.852 605.553 -183.868 627.938 -184.323C650.819 -184.926 673.451 -183.566 695.556 -180.259C712.763 -177.721 728.942 -172.185 743.306 -163.921C755.29 -156.836 765.335 -147.375 772.852 -136.094C781.992 -121.958 787.94 -105.962 790.379 -88.9623C792.838 -75.8258 793.67 -62.7793 795.419 -49.3682C797.543 -27.8329 801.938 -6.80792 808.54 13.4084C813.427 27.0647 819.56 40.1761 826.877 52.6093C836.627 69.5414 847.087 86.1986 856.369 103.168C866.21 121.365 873.27 141.015 877.367 161.608C881.578 182.692 885.322 203.813 890.001 224.86C894.13 243.883 902.135 261.559 913.602 276.976C918.009 282.811 922.827 288.343 928.027 293.539C934.67 300.698 942.582 306.707 951.484 311.357C959.367 315.8 967.694 319.601 976.385 322.723C989.344 327.072 1003.27 329.224 1017.58 329.089C1037.25 329.27 1057.27 324.366 1075.5 314.904C1083.81 310.8 1091.58 305.622 1098.53 299.539C1105.25 293.884 1111.65 287.906 1117.72 281.636C1125.29 273.389 1132.18 264.979 1138.85 256.368C1146.24 247.043 1153.18 237.317 1160.8 228.194C1166.21 221.648 1171.84 215.303 1177.7 209.159C1189.9 196.396 1202.33 183.833 1214.98 171.472C1229.07 158.123 1243.85 144.937 1257.94 131.588C1267.02 122.436 1274.9 112.335 1281.38 101.549C1288.04 91.0941 1293.08 79.9379 1296.32 68.4643C1299.87 56.3118 1301.66 43.9622 1301.64 31.7683C1301.64 10.3524 1298.14 -11.0061 1294.41 -32.5655C1288.57 -63.0937 1287.43 -94.7809 1291.04 -126.706C1293.91 -150.097 1297.24 -173.087 1300.12 -196.479C1301.15 -204.209 1301.72 -211.902 1302.51 -219.394M-28.1278 -533.147C-5.91786 -524.191 16.0681 -515.435 38.0158 -505.803C52.4917 -499.403 66.0457 -491.539 78.4673 -482.332C88.6163 -474.61 97.5486 -465.7 106.724 -457.027C114.234 -449.576 120.674 -441.209 125.913 -432.097C133.522 -420.179 138.396 -406.686 140.265 -392.364C141.799 -378.803 138.044 -364.563 129.672 -352.193C123.438 -342.741 116.063 -333.855 108.913 -324.768C98.5249 -310.837 89.2766 -296.34 84.5708 -279.142C82.1391 -270.444 81.9148 -261.581 83.9168 -253.303C87.4974 -239.163 96.4872 -231.567 111.988 -229.075C122.898 -227.597 134.343 -228.574 145.427 -231.931C164.037 -236.677 180.705 -244.985 197.616 -253.53C212.619 -261.051 227.155 -268.535 244.306 -271.855C258.927 -274.372 273.536 -273.497 286.829 -269.309C304.086 -264.333 319.545 -255.5 335.285 -247.781C352.166 -239.498 369.028 -230.775 386.452 -224.282C417.899 -212.659 451.315 -205.086 485.886 -201.75C499.106 -200.389 512.102 -199.228 525.585 -198.544C540.227 -197.732 554.868 -196.92 569.773 -196.784C588.866 -196.542 607.997 -197.177 627.109 -197.373C656.693 -197.303 686.521 -197.471 716.268 -190.42C731.068 -187.091 744.903 -181.468 757.248 -173.766C772.998 -163.751 785.431 -149.959 793.48 -133.573C800.433 -118.605 805.143 -102.593 807.491 -85.9453C810.973 -64.1482 813.968 -41.8759 817.917 -20.1156C822.037 -0.427198 829.314 18.2168 839.515 35.2177C849.265 52.1498 859.726 68.8075 870.186 85.4649C883.359 106.918 892.402 130.714 896.953 155.906C900.96 176.351 904.031 196.869 908.262 217.515C911.764 234.347 918.495 250.09 928.145 264.024C947.687 291.547 974.511 306.914 1008.9 309.009C1025.43 310.09 1042.51 307.01 1058.44 300.074C1066.64 296.84 1074.33 292.311 1081.16 286.701C1088.67 280.895 1095.79 274.637 1102.47 267.974C1108.8 261.289 1114.78 254.324 1120.38 247.112C1125.3 241.042 1130.45 235.172 1135.13 229.34C1139.81 223.507 1143.79 217.511 1148.47 211.679C1151.94 207.035 1155.85 202.793 1159.54 198.35C1182.11 172.094 1208.49 149.252 1232.87 124.164C1246.6 110.436 1257.92 94.8199 1266.32 78.0375C1274.8 59.11 1278.77 39.1386 1277.94 19.6472C1277.08 1.36544 1275.06 -16.7181 1271.9 -34.5097C1267.46 -62.3853 1266.82 -91.1117 1270.02 -120.025C1272.82 -141.663 1275.62 -163.3 1278.2 -185.138C1280.1 -202.115 1281.08 -219.457 1282.51 -236.397C1282.53 -236.835 1282.8 -237.512 1282.81 -237.95M18.3026 -577.666C19.6862 -577.338 21.089 -577.448 22.4726 -577.12C38.1028 -572.234 53.7331 -567.348 69.101 -561.786C92.4893 -553.141 115.878 -544.496 137.692 -531.794C156.554 -520.825 175.395 -509.418 194.256 -498.45C211.529 -488.449 229.531 -479.16 249.388 -475.045C272.704 -470.109 293.352 -473.486 312.209 -483.934C325.81 -491.344 336.065 -502.206 346.545 -512.866C352.988 -520.082 359.067 -527.564 364.756 -535.281C370.184 -542.266 374.92 -549.414 380.348 -556.398C384.541 -561.755 389.183 -566.71 393.356 -571.629C398.727 -577.297 403.65 -583.367 409.226 -588.396C422.399 -600.455 437.935 -609.896 454.687 -616.021C476.319 -623.746 498.963 -626.73 520.762 -624.729C537.045 -623.782 552.501 -619.565 566.121 -612.354C574.315 -608.032 581.212 -601.993 586.355 -594.637C591.499 -587.282 594.771 -578.778 595.956 -569.69C598.07 -555.371 597.107 -540.446 593.12 -525.76C588.468 -506.439 581.305 -487.446 571.799 -469.226C560.358 -447.126 548.692 -425.227 536.11 -403.692C525.27 -384.699 513.512 -366.071 504.728 -346.147C499.388 -335.124 496.802 -323.378 497.187 -311.898C497.743 -301.594 501.633 -292.078 508.35 -284.588C519.917 -271.951 535.004 -265.274 550.877 -260.626C568.086 -255.52 586.203 -252.616 604.785 -251.985C620.362 -251.247 635.696 -250.271 651.273 -249.532C661.034 -248.991 670.852 -249.766 680.613 -249.225C704.325 -248.036 728.26 -246.646 751.782 -241.071C773.123 -236.401 793.075 -228.379 810.859 -217.321C820.284 -211.544 828.966 -204.837 836.782 -197.295C850.215 -184.171 861.107 -168.882 869.065 -151.982C879.317 -130.501 884.65 -108.412 890.899 -85.9594C894.517 -72.6958 899.09 -59.9448 903.419 -46.9558C909.346 -31.2944 917.48 -16.6616 927.625 -3.41024C935.322 7.12777 943.749 16.9529 951.933 27.0154C968.076 46.9397 984.219 66.8636 997.968 88.2879C1004.52 98.2603 1011.55 108.196 1018.57 118.132C1029.13 132.596 1042.48 136.351 1057.91 129.67C1065.8 125.973 1073.16 121.187 1079.73 115.493C1085.91 110.762 1091.81 105.698 1097.39 100.332C1106.41 91.0977 1114.51 81.4991 1123.09 71.8631C1131.04 62.9299 1137.74 53.1306 1142.99 42.7583C1150.13 29.6382 1155.29 15.8276 1158.27 1.77948C1164.29 -24.2638 1165.47 -51.4549 1169.89 -78.0269C1174.3 -104.599 1179.16 -130.769 1183.8 -157.141C1188.6 -183.898 1191.63 -210.705 1192.87 -237.402C1193.95 -262.4 1194.32 -287.123 1197.48 -311.63C1197.5 -312.068 1197.76 -312.745 1197.78 -313.183M31.7145 -591.627C47.3447 -586.741 62.9749 -581.855 78.8294 -576.768C102.145 -569.771 124.589 -560.945 145.946 -550.374C160.995 -542.82 175.538 -534.352 190.1 -526.322C207.167 -516.96 224.477 -507.836 243.848 -503.245C261.835 -498.982 279.114 -499.908 295.014 -506.626C306.113 -511.459 316.266 -518.372 324.781 -526.893C333.975 -535.939 342.352 -545.672 349.804 -555.965C356.749 -565.692 363.694 -575.418 371.087 -584.742C377.091 -592.353 383.475 -599.713 390.214 -606.793C395.142 -612.239 400.426 -617.402 406.027 -622.245C415.657 -629.92 426.403 -636.161 437.812 -640.705C458.107 -648.027 479.192 -651.985 500.055 -652.389C522.953 -653.457 545.518 -651.635 567.149 -646.973C579.835 -644.335 591.621 -639.49 601.941 -632.672C612.91 -625.041 620.584 -614.023 623.873 -601.186C628.256 -584.049 626.131 -567.272 623.09 -550.861C619.374 -532.535 613.508 -514.405 605.605 -496.815C594.703 -471.043 581.745 -446.2 568.562 -421.559C560.192 -405.82 552.046 -389.881 544.592 -373.777C538.15 -361.09 533.797 -347.762 531.699 -334.298C529.881 -323.285 531.689 -312.435 536.875 -303.238C540.215 -297.495 544.738 -292.517 550.217 -288.556C567.638 -276.599 587.009 -272.008 607.166 -269.446C620.835 -267.683 634.785 -267.036 648.492 -266.15C661.039 -265.392 673.606 -265.071 685.929 -264.514C710.647 -263.698 734.994 -260.941 758.724 -256.27C782.219 -251.361 804.261 -242.846 824.027 -231.045C830.159 -227.377 835.803 -223.232 841.448 -219.088C846.142 -215.87 850.504 -212.268 854.493 -208.317C868.608 -194.906 880.479 -179.523 889.787 -162.586C901.46 -141.654 908.195 -119.676 915.623 -97.5349C922.434 -77.3116 929.956 -57.363 942.192 -38.6602C948.21 -29.2067 954.984 -20.2477 962.464 -11.8497C968.481 -5.54987 974.479 1.18873 980.496 7.48861C990.326 17.2028 1000.4 26.6788 1010.96 35.6799C1019.81 43.6096 1030.48 49.6015 1042.34 53.3092C1048.69 55.1904 1055.61 55.5694 1062.54 54.415C1069.48 53.2606 1076.22 50.6059 1082.24 46.6663C1089.66 42.1924 1096.25 36.4729 1101.6 29.8414C1107 23.0492 1111.76 15.8691 1115.81 8.39699C1122.17 -3.32854 1126.94 -15.6102 1129.98 -28.1228C1133.31 -40.6239 1135.73 -53.4895 1138.62 -66.3923C1142.71 -85.5087 1146.58 -104.826 1150.89 -123.742C1159.16 -158.704 1166.52 -194.03 1168.1 -230.431C1169.27 -252.159 1169.76 -274.05 1171.15 -295.577C1171.95 -308.533 1173.9 -321.362 1175.63 -334.392M-20.5901 -540.515C-2.96048 -533.382 14.6883 -526.689 32.3179 -519.557C50.8328 -511.996 68.5138 -503.016 85.2027 -492.697C99.2061 -484.03 112.039 -473.911 123.499 -462.5C131.086 -454.795 137.962 -446.814 145.063 -438.633C162.571 -417.942 175.551 -394.927 191.151 -373.212C200.402 -359.457 214.755 -349.653 231.88 -345.393C246.632 -341.749 261.609 -337.904 276.585 -334.059C293.37 -329.633 308.088 -321.004 319.298 -309.02C327.987 -299.871 335.217 -289.296 343.907 -280.147C352.086 -271.911 360.769 -264.135 369.922 -256.849C380.076 -248.866 391.263 -242.056 403.287 -236.536C414.634 -230.935 426.593 -226.322 439.033 -222.747C461.049 -216.429 483.853 -212.012 507.188 -209.547C516.462 -208.531 525.737 -207.514 535.03 -206.936C548.045 -206.215 561.285 -205.292 574.338 -205.448C595.301 -205.353 616.527 -205.934 637.49 -205.84C664.493 -205.347 691.759 -205.531 719.226 -199.612C737.018 -196.17 753.557 -189.546 768.002 -180.076C783.938 -169.512 796.63 -155.341 805.112 -138.642C812.61 -122.3 817.725 -104.859 820.335 -86.7392C823.258 -68.176 825.713 -49.5758 829.347 -31.2872C833.209 -11.434 840.326 7.37999 850.458 24.5216C861.311 42.8965 873.585 60.7225 884.68 78.8596C898.544 101.06 907.95 125.816 912.492 152.059C915.864 171.024 918.525 190.264 922.364 209.192C925.407 226.36 932.071 242.385 941.985 256.377C961.583 282.584 987.568 295.832 1020.5 293.89C1038.18 292.898 1055.76 286.61 1070.67 275.947C1080.17 269.655 1088.87 262.279 1096.55 254.019C1103.4 246.486 1109.57 238.35 1115.97 230.415C1121.89 222.955 1127.78 215.934 1133.7 208.475C1138.38 202.642 1142.85 196.17 1147.53 190.338C1151.85 184.842 1156.43 179.521 1161.27 174.394C1173.96 161.155 1186.4 148.155 1199.09 134.916C1204.95 128.772 1210.79 123.067 1216.42 116.722C1222.31 109.701 1227.99 102.479 1233.9 95.0193C1240.5 86.6023 1245.92 77.4945 1249.98 67.9639C1257.16 51.3723 1260.62 33.9558 1260.12 16.902C1259.73 4.25734 1258.9 -8.78891 1257.58 -21.3598C1256.88 -32.0124 1254.77 -42.5542 1254.07 -53.2068C1252.25 -77.4519 1253.01 -102.105 1256.33 -126.812C1260.99 -159.085 1265.41 -191.121 1267.52 -223.849C1268.15 -232.858 1268.79 -242.306 1269.19 -251.516M1400.24 -139.713C1395.91 -122.548 1393.9 -105.201 1394.27 -88.1054C1394.7 -72.3508 1396.28 -56.7775 1399.01 -41.4946C1402.58 -22.0812 1404.92 -2.34509 1406 17.6134C1406.56 37.8057 1404.5 58.293 1399.86 78.6315C1395.8 96.2006 1389.74 113.534 1381.78 130.32C1376.01 142.837 1368.76 154.851 1360.19 166.114L1360.17 166.137C1354.26 173.589 1348.36 181.041 1342.22 188.292C1337.81 193.448 1332.7 198.44 1327.81 203.633C1315.63 215.958 1302.98 228.319 1291.02 240.845C1285.41 246.751 1280.69 253.46 1275.06 259.805C1268.53 267.656 1263.21 276.256 1259.27 285.308C1252.06 301.174 1251.32 318.277 1258.25 335.869C1262.95 346.41 1269.1 356.2 1276.55 365.02C1289.56 382.133 1301.85 399.52 1309.15 419.268C1315.35 435.39 1317.53 453.044 1315.53 470.993C1313.95 483.857 1311.29 496.709 1307.57 509.427C1303.24 523.318 1298.44 537.245 1293.87 551.374L1281.67 591.017C1279.72 599.667 1275.95 608.07 1270.58 615.711C1267.73 618.959 1264.07 621.515 1260.01 623.101C1250.94 627.179 1241.69 630.755 1232.29 633.81C1213.82 639.608 1195.99 647.708 1179.29 657.877C1169.96 663.64 1160.38 669.64 1151.49 675.804C1143.32 681.694 1135.59 687.986 1127.64 694.076C1118 701.392 1108.61 708.47 1099.2 715.987C1093.66 720.139 1088.55 725.132 1082.77 729.521C1076.51 734.382 1070.02 739.041 1063.53 743.701L1063.51 743.714C1058.46 747.391 1053.88 751.031 1048.6 754.506C1040.7 760.458 1032.52 766.063 1024.11 771.298C1011.2 778.873 998.089 785.807 984.527 792.34C958.989 804.106 931.833 811.226 904.643 813.283C888.971 814.738 873.093 815.553 857.421 817.008C848.062 817.279 803.859 805.223 769.226 807.244C710.921 810.645 629.547 857.646 629.547 857.646M1412.44 -122.31C1409.09 -100.908 1409.11 -79.5514 1412.49 -58.9401C1415.36 -39.0612 1418.22 -19.1823 1419.91 1.0081C1421.41 22.4343 1419.84 44.31 1415.23 66.0634C1411.85 83.4472 1406.97 100.716 1400.64 117.695C1394.17 135.498 1385.36 152.721 1374.43 168.933C1367.48 178.659 1359.85 188.221 1352.45 197.546C1347.53 203.616 1342.16 209.284 1337.01 215.153C1329.9 223.363 1322.32 231.609 1315.43 240.02C1306.1 250.558 1298.29 262.144 1292.28 274.408C1283.79 292.778 1283.65 312.239 1292.57 332.077C1298.96 345.996 1306.06 359.641 1312.91 373.524C1322.67 391.524 1329.43 411.082 1332.99 431.599C1335.69 451.166 1335.6 471.302 1332.72 491.498C1330.78 509.352 1327.91 527.28 1329.67 545.716C1330.84 560.208 1336.3 573.615 1345.47 584.462C1350.53 590.131 1356.24 595.244 1362.51 599.726C1369.28 604.874 1376.53 609.546 1383.78 614.219M1446.27 -91.1023C1446.83 -82.4048 1447.38 -73.7071 1448.87 -65.0834C1451.37 -47.3604 1455.26 -29.748 1457.06 -12.189C1459.46 7.72684 1456.29 27.2082 1452.44 46.0869C1449.25 60.5431 1445.59 75.0361 1441.49 89.1274C1435.46 111.877 1427.07 134.283 1416.46 156.006C1410.93 167.6 1404.04 178.706 1395.92 189.095C1388.77 198.181 1381.86 207.031 1374.49 215.917C1369.08 222.462 1363.69 228.569 1358.51 235.316C1348.49 246.937 1340.03 259.586 1333.35 272.921C1325.11 291.054 1323.8 310.387 1329.92 330.447C1333.62 341.956 1338 353.63 1342.16 365.102C1350.51 387.608 1358.16 409.951 1360.65 433.137C1362.29 449.669 1362.65 466.436 1361.74 483.314C1361.37 497.11 1361.01 510.906 1362.04 524.592C1363.15 541.837 1368.94 557.993 1378.88 571.56C1385.68 580.708 1393.6 589.021 1402.5 596.358M-141.897 -440.489C-129.235 -415.482 -119.174 -389.615 -114.985 -362.629C-112.996 -347.884 -111.933 -332.938 -111.8 -317.862C-111.344 -301.508 -112.515 -285.244 -109.273 -268.673C-107.332 -256.221 -101.412 -245.053 -92.2587 -236.58C-84.5625 -229.617 -74.3778 -225.444 -63.188 -224.668C-54.5711 -223.6 -45.4359 -225.643 -37.5454 -230.406C-29.8883 -235.274 -23.8541 -242.204 -20.3831 -250.116C-14.5027 -262.162 -9.07116 -274.61 -3.88257 -286.82C4.12288 -305.988 13.6593 -324.716 24.6376 -342.829C34.1671 -358.441 44.5939 -373.249 51.8427 -389.993C57.6114 -401.903 59.8805 -414.692 58.3913 -426.901C56.902 -439.109 51.7139 -450.246 43.4193 -459.04C39.5931 -463.528 35.5019 -467.8 31.161 -471.841C20.7069 -481.483 8.66286 -489.508 -4.6151 -495.68C-22.1877 -504.128 -40.2849 -511.223 -58.1197 -518.994C-58.8115 -519.158 -59.7468 -519.085 -60.4386 -519.249M37.3587 -614.812C42.6689 -613.701 47.7547 -612.791 53.0459 -611.242C73.9863 -605.245 95.1702 -599.486 116.073 -592.612C134.705 -586.039 152.658 -578.181 169.802 -569.096C185.99 -560.976 201.936 -552.619 218.668 -546.29C235.401 -539.961 253.015 -537.854 269.569 -543.531C277.538 -545.876 285.004 -549.994 291.289 -555.514C295.48 -558.701 299.378 -562.229 302.928 -566.048C309.372 -573.627 315.319 -581.543 320.729 -589.743C332.777 -608.681 342.629 -628.596 350.093 -649.096C353.189 -656.519 355.245 -664.179 356.205 -671.868C357.296 -680.914 353.86 -687.636 342.791 -690.26C330.339 -693.211 317.867 -695.724 305.62 -698.036C287.708 -700.855 270.608 -706.051 254.803 -713.477C245.609 -717.749 237.367 -723.44 230.373 -730.343C221.693 -738.784 214.651 -748.625 209.505 -759.511C207.19 -765.228 204.875 -770.946 202.579 -777.103M-130.463 -451.661C-121.8 -431.147 -112.67 -410.669 -104.25 -389.917C-98.3751 -374.54 -93.847 -358.604 -90.7069 -342.253C-88.8254 -331.912 -86.944 -321.571 -84.8192 -311.467C-83.5967 -303.272 -80.689 -295.567 -76.2512 -288.76C-70.9828 -281.308 -64.141 -277.914 -53.4789 -282.033C-47.1465 -285.05 -41.6776 -289.663 -37.7612 -295.293C-29.3759 -306.006 -22.1309 -317.286 -14.4184 -328.602C-9.70115 -335.312 -4.96482 -342.46 -0.47186 -349.37C6.75412 -360.211 14.2043 -370.852 20.7385 -381.857C28.6708 -394.338 33.0589 -408.213 33.4265 -421.975C33.3554 -434.611 29.0627 -446.417 21.1454 -455.753C10.3294 -468.486 -3.10676 -478.976 -18.5156 -486.716C-34.4652 -495.09 -51.306 -502.095 -68.8613 -507.657C-69.8919 -507.934 -71.0005 -507.995 -72.1152 -507.837M52.691 -629.785C54.1854 -629.808 55.6626 -629.705 57.1044 -629.477C80.1772 -624.304 103.474 -618.93 126.547 -613.757C144.941 -609.006 162.673 -602.728 179.55 -594.992C191.44 -589.811 203.554 -584.429 215.931 -579.723C228.307 -575.018 241.508 -573.218 254.227 -576.407C259.159 -577.487 263.925 -579.502 268.22 -582.324C272.514 -585.147 276.242 -588.714 279.166 -592.797C284.504 -599.533 287.978 -607.281 289.224 -615.225C290.128 -620.566 289.857 -625.889 288.428 -630.854C286.998 -635.82 284.443 -640.321 280.922 -644.072C274.943 -651.249 266.737 -655.409 258.792 -660.246C249.259 -666.05 239.22 -670.94 229.687 -676.744C220.599 -682.451 212.371 -689.207 205.166 -696.882C193.733 -709.777 184.485 -724.347 177.688 -740.169C176.418 -743.129 175.859 -746.363 174.814 -749.121M436.314 -498.992C433.3 -493.946 430.285 -488.901 427.738 -483.892C424.658 -478.466 423.188 -472.513 423.5 -466.731C423.661 -463.585 424.565 -460.597 426.149 -457.98C427.417 -456.444 429.177 -455.342 431.219 -454.806C433.262 -454.27 435.5 -454.321 437.667 -454.955C441.406 -455.772 444.991 -457.404 448.123 -459.713C460.307 -468.313 468.964 -480.696 472.216 -494.175C473.478 -498.908 473.114 -503.71 471.178 -507.86C470.05 -509.781 468.344 -511.309 466.244 -512.279C463.689 -513.414 460.754 -513.809 457.773 -513.419C454.792 -513.03 451.883 -511.871 449.374 -510.074C445.033 -506.673 440.898 -502.631 436.781 -499.029M-94.4522 -470.887C-98.7779 -462.46 -96.6151 -453.234 -93.9848 -444.045C-89.3189 -428.003 -82.1245 -412.968 -72.6224 -399.401C-69.0005 -393.485 -64.0726 -388.452 -58.1214 -384.592C-54.1833 -381.93 -49.2948 -380.611 -44.1448 -380.821C-38.9947 -381.031 -33.8429 -382.76 -29.4154 -385.764C-19.1857 -393.22 -12.0252 -403.841 -9.49718 -415.307C-7.86833 -421.779 -7.85204 -428.332 -9.44985 -434.434C-11.0477 -440.536 -14.2144 -446.014 -18.692 -450.421C-25.8785 -458.771 -34.957 -465.469 -45.3961 -470.124C-55.8351 -474.779 -67.4252 -477.298 -79.4874 -477.531C-82.0968 -477.779 -84.8205 -477.313 -87.3432 -476.185C-89.866 -475.058 -92.0841 -473.316 -93.7412 -471.162M885.741 607.84C884 610.381 882.016 613.16 880.275 615.701C875.539 622.849 869.662 629.432 865.823 637.383C860.825 647.337 856.568 657.533 853.086 667.89C848.849 681.145 847.859 694.766 850.196 707.672C852.423 721.758 859.666 734.171 870.799 742.979C879.756 750.147 890.626 755.048 902.56 757.301C921.498 760.702 941.732 758.955 961.022 752.252C977.424 746.681 993.05 738.652 1007.25 728.501C1015.67 722.373 1023.64 715.844 1031.61 709.315C1035.61 706.257 1039.41 702.963 1042.99 699.458C1049.84 691.925 1056.46 684.191 1063.09 676.456C1072.7 664.886 1080.49 652.176 1086.15 638.797C1092.21 624.875 1094.22 610.116 1091.96 596.163C1090.77 589.04 1087.96 582.421 1083.71 576.733C1079.46 571.045 1073.87 566.415 1067.3 563.143C1055.24 556.959 1041.71 553.202 1027.47 552.08C1005.61 549.586 982.807 551.907 960.783 558.87C946.307 563.324 932.456 570.037 919.852 578.707C906.906 587.158 896.894 597.782 886.19 608.242M331.761 -21.7658C327.827 -11.6215 332.498 -6.52677 340.891 -1.28842C355.864 8.0201 372.353 14.5864 388.336 22.0669C404.32 29.5474 419.369 37.1017 435.109 44.82C453.803 54.272 472.011 64.1996 491.191 73.1762C503.286 78.9967 516.225 81.4725 528.757 77.206C536.397 74.6484 543.095 69.6002 547.543 63.0492C550.978 58.5166 553.993 53.7427 556.547 48.7898C563.999 34.6143 568.084 19.4152 568.491 4.35965C568.82 -4.52146 567.295 -13.1605 564.002 -21.0728C558.691 -33.1016 548.789 -42.4525 536.026 -47.4939C523.367 -52.5307 509.637 -55.4354 495.395 -56.0898C461.007 -58.1849 428.184 -53.4103 395.734 -46.48C378.755 -43.2235 362.015 -38.0122 345.905 -30.9675C340.893 -28.8993 336.302 -25.8486 332.471 -22.0408M689.217 782.641C727.832 758.176 764.821 763.465 783.105 712.735C794.638 677.823 811.16 644.006 832.189 612.271C836.663 605.8 841.137 599.328 846.06 593.257C852.461 585.322 859.311 577.789 865.936 570.055C869.85 565.113 874.267 560.515 879.111 556.341C887.101 549.373 896.231 542.971 904.445 536.204C915.745 527.431 927.787 519.602 940.404 512.826C948.056 508.289 956.118 505.031 963.994 500.694C977.108 493.759 990.203 487.263 1002.64 479.726C1010.78 474.713 1017.35 468.295 1018.26 458.171C1018.81 451.499 1016.67 445.191 1012.26 440.505C1005.41 432.086 995.817 427.598 986.47 422.872C968.001 413.621 949.25 405.484 930.537 396.471C912.949 388.35 896.299 378.772 880.758 367.836C873.524 362.725 866.309 357.175 859.319 351.826C854.366 347.846 848.946 343.903 844.255 339.247C831.554 326.909 820.286 313.309 810.604 298.632C802.964 286.778 796.278 274.412 790.059 262.009C778.052 238.043 770.065 212.668 759.947 188.116C750.893 165.884 740.66 143.964 730.671 121.806C718.348 94.3692 707.671 66.5837 702.623 37.917C699.494 20.6191 697.378 3.05974 696.283 -14.6863C695.804 -25.1381 695.325 -35.5902 694.378 -46.0051C693.385 -60.0546 690.208 -73.6413 684.944 -86.3451C679.067 -99.6276 668.6 -110.277 655.045 -116.766C641.378 -123.401 626.254 -127.536 610.377 -128.978C583.975 -132.577 557.625 -132.028 531.557 -132.594C515.961 -132.894 500.327 -132.316 484.712 -132.177C467.695 -131.927 450.453 -131.878 433.192 -131.391C391.92 -130.539 350.293 -132.282 308.853 -132.947C284.915 -133.747 260.636 -132.125 236.423 -128.107C209.689 -123.681 183.358 -115.258 158.462 -103.164C148.386 -98.4869 138.879 -92.5887 130.212 -85.6386C126.338 -82.2736 121.792 -79.5112 118.143 -75.9453C102.384 -60.4365 91.4086 -41.3684 86.6505 -21.232C83.7562 -9.41786 82.3788 2.50664 82.549 14.2753C82.8274 27.9362 85.3148 41.2219 89.927 53.685C93.623 63.2399 99.1606 71.8997 106.29 79.2736C119.876 93.7178 137.205 102.404 155.264 110.376C177.371 119.579 200.117 127.632 223.411 134.503C236.274 138.733 249.38 142.725 262.467 147.156C276.687 151.729 290.029 158.016 302.192 165.875C315.848 175.144 326.424 187.745 332.986 202.564C341.295 220.484 345.62 238.936 350.413 257.352C356.381 280.92 362.106 304.726 367.363 328.568C370.065 341.467 371.832 354.44 373.6 367.412C379.09 408.615 373.687 450.342 363.378 490.378C340.421 561.358 304.574 714.093 319.53 765.5C340.113 836.246 344.519 860.297 411.497 890.999C517.328 939.511 590.874 844.948 689.217 782.641ZM551.668 813.283C551.668 813.283 412.803 886.131 359.341 807.244C290.332 705.418 390.198 552.08 401.684 423.548C403.946 398.238 401.795 372.621 398.484 346.877C395.656 326.121 391.445 305.037 389.084 284.244C386.485 260.76 385.259 237.002 385.413 213.074C385.778 199.256 384.413 185.648 381.345 172.529C377.891 158.687 370.274 146.504 359.341 137.332C353.331 132.436 346.723 128.198 339.621 124.684C327.399 118.915 314.283 114.665 300.564 112.03C273.321 106.312 245.835 100.831 218.631 94.2355C195.491 88.6891 174.126 79.1234 155.555 65.994C142.904 57.4685 133.086 45.8595 126.967 32.1913C122.214 21.4894 120.105 9.65787 120.783 -2.50443C121.145 -13.2785 123.918 -24.144 128.921 -34.397C134.268 -45.4946 142.4 -55.4649 152.541 -63.3581C159.034 -68.0223 165.545 -73.125 172.486 -77.3875C193.776 -90.2121 218.111 -98.032 243.472 -102.655C273.547 -108.524 304.309 -108.765 335.539 -109.043C342.776 -109.396 349.976 -108.871 357.213 -109.223C378.195 -109.567 398.953 -110.112 419.711 -110.657C433.475 -111.087 447.239 -111.516 461.227 -111.746C481.985 -112.29 502.743 -112.835 523.707 -112.74C538.386 -112.806 553.477 -111.592 568.343 -110.58C586.313 -109.839 603.695 -106.417 619.856 -100.439C627.489 -97.4247 634.593 -93.5093 641.017 -88.7768C647.734 -83.4308 652.926 -76.6042 656.225 -68.7791C661.715 -56.101 664.82 -42.392 665.416 -28.2013C666.601 -12.5605 666.609 3.39184 667.552 19.2704C668.236 30.3616 669.612 41.6166 670.764 52.671C674.338 87.0403 683.927 119.937 699.158 150.082C706.254 163.727 713.108 177.61 719.961 191.492C728.327 208.096 736.45 224.938 745.041 241.743C752.791 256.429 760.523 271.554 768.741 286.203C777.163 301.455 786.977 315.881 798.089 329.342C805.196 337.997 812.85 346.22 821.017 353.976C833.28 365.945 846.412 377.097 860.34 387.37C866.228 391.276 871.386 395.895 877.03 400.039C884.245 405.589 892.189 410.425 899.16 416.213C906.132 422 912.616 428.263 918.858 434.764C929.117 445.319 931.185 456.738 925.753 469.186C921.632 478.252 915.045 485.109 908.439 492.405C903.292 498.274 896.556 503.176 890.961 508.644C878.292 521.444 865.38 534.482 852.71 547.282C850.278 549.659 848.05 552.676 845.599 555.492C839.946 562.275 834.761 569.021 829.333 576.005C825.384 581.124 820.967 586.281 817.242 591.601C809.286 603.155 801.311 615.147 793.355 626.701C782.91 641.949 772.689 657.397 762.019 672.443C714.459 738.883 620.37 772.401 551.668 813.283ZM703.393 675.972C715.036 668.076 726.664 658.779 736.493 648.667C751.254 632.366 765.678 615.763 778.306 597.728C783.004 591.457 787.702 585.186 792.176 578.715C795.396 574.308 798.391 569.702 801.611 565.296C806.309 559.025 811.007 552.753 815.481 546.282C820.928 538.859 826.151 531.235 831.617 523.374C837.083 515.513 842.755 508.291 847.753 500.467C854.249 490.339 860.054 480.047 861.988 467.656C863.419 454.534 859.833 441.948 851.877 432.178C846.168 424.325 839.618 417.086 832.313 410.556C823.791 402.924 815.288 394.854 807.009 386.984C798.73 379.114 790.471 370.806 782.922 362.223C766.613 344.322 751.948 325.096 739.053 304.713C727.715 286.814 716.862 268.439 705.056 250.576C693.698 233.115 681.387 216.167 669.786 198.944C660.389 184.606 650.974 170.707 642.756 156.058C635.016 141.729 629.878 126.06 627.529 109.619C624.085 86.9445 625.746 64.7418 626.472 42.6127C626.913 27.0621 626.887 11.5485 627.328 -4.00207C627.635 -18.067 625.393 -31.7817 620.699 -44.5637C616.561 -55.5317 609.05 -64.7852 599.025 -71.2632C586.352 -79.879 572.292 -83.359 558.193 -85.962C536.936 -89.9329 514.97 -91.572 492.708 -90.8488C465.891 -90.2632 438.792 -88.5631 412.18 -87.338C387.663 -86.0597 363.613 -84.8183 339.32 -83.3391C316.998 -82.4548 294.594 -80.4686 272.2 -77.389C254.637 -74.9963 237.229 -70.161 220.558 -63.0446C208.714 -57.8947 197.95 -50.3925 189.089 -41.1125C177.297 -27.0705 171.713 -11.1143 180.433 8.08436C183.468 14.4285 187.624 20.1491 192.745 25.0326C203.411 34.5767 216.124 41.9467 230.243 46.7694C251.332 54.7213 272.872 57.6111 294.375 61.3783C311.26 64.1985 328.145 67.019 344.972 71.155C363.562 75.6614 380.993 82.8282 396.701 92.4241C410.298 100.489 421.504 111.457 429.555 124.579C436.684 136.632 440.321 150.526 440.148 165.047C439.258 180.467 436.792 195.957 432.786 211.301C427.871 233.323 423.423 255.309 424.286 278.405C424.871 297.153 426.148 316.064 427.425 334.976C428.277 347.584 430.044 360.556 430.895 373.164C432.818 398.089 431.324 423.539 426.448 448.909C421.509 472.901 373.6 663.907 385.413 729.521C410.58 869.313 556.302 771.385 703.393 675.972ZM656.483 650.83C676.864 640.446 696.6 629.385 713.975 614.389C727.187 603.83 737.786 591.335 748.615 578.439C760.634 563.73 771.078 548.033 779.765 531.62C787.611 517.234 794.783 502.245 797.132 485.669C799.187 469.775 795.949 454.291 787.869 441.382C781.18 430.803 773.592 420.81 765.169 411.486C752.09 396.128 739.01 380.769 726.904 364.46C713.919 346.909 702.6 328.571 690.102 310.545C678.936 293.088 666.59 276.402 653.128 260.576C646.457 253.235 640.254 245.857 633.339 238.754C626.874 232.053 620.427 224.912 613.231 218.924C602.997 209.837 592.166 201.354 580.785 193.511C572.172 187.245 562.29 182.555 551.566 179.644C546.631 178.472 541.35 178.353 536.082 179.297C530.815 180.24 525.685 182.224 521.043 185.111C511.95 190.636 505.549 198.571 498.905 206.744C489.258 219.162 481.524 232.67 475.969 246.797C469.222 263.925 465.614 281.668 465.311 299.212C464.889 314.324 465.85 329.763 466.344 345.24C467.374 369.853 469.096 394.63 466.872 419.063C465.417 435.635 462.516 452.236 458.198 468.698C450.878 493.977 416.497 610.944 416.497 679.499C416.497 773.886 539.767 712.927 656.483 650.83ZM678.731 589.204C688.875 582.429 698.027 574.335 705.863 565.21C714.015 555.902 720.745 545.643 725.819 534.79C731.933 522.194 734.911 508.771 734.505 495.643C733.946 483.506 730.465 471.983 724.318 461.919C717.37 450.229 709.935 439.014 702.256 428.038C690.431 410.614 679.56 392.678 669.868 374.43C658.643 353.899 647.905 332.892 634.08 313.222C627.45 304.163 620.115 295.615 612.125 287.638C604.205 279.776 595.288 272.859 585.528 267.008C575.079 260.839 563.824 257.138 551.668 258.097C543.729 258.566 535.885 261.75 529.614 267.048C516.31 278.368 510.764 293.448 507.947 310.06C505.815 324.324 505.197 338.576 506.104 352.601C506.738 380.96 507.373 409.319 503.146 436.969C499.923 455.973 495.209 474.899 489.043 493.589C404.743 757.807 503.678 700.718 678.731 589.204ZM908.95 620.432C906.479 623.687 904.251 626.703 901.78 629.957C895.643 637.683 890.86 646.195 887.644 655.111C883.312 666.21 881.771 677.798 883.151 688.901C884.459 699.472 889.248 709.007 896.877 716.227C904.092 722.922 913.423 727.334 923.815 728.963C939.452 731.329 956.108 728.868 971.413 721.93C982.476 717.328 992.839 711.039 1002.04 703.343C1008.92 697.532 1015.48 691.396 1021.71 684.965C1032.04 673.958 1039.64 661.052 1043.84 647.38C1048.35 634.081 1047.36 620.285 1041.08 608.917C1036.1 600.135 1028.07 593.423 1018.14 589.747C998.766 582.129 976.02 582.355 954.749 590.377C944.28 594.036 934.35 599.331 925.416 606.021C919.634 610.411 914.75 615.604 908.95 620.432ZM926.077 638.97C923.983 642.027 922.058 645.17 920.311 648.385C914.701 657.769 912.748 668.353 914.83 678.101C916.058 684.233 919.257 689.653 924.018 693.674C928.779 697.694 934.89 700.135 941.575 700.686C953.68 701.903 966.407 698.633 977.15 691.542C982.982 688.193 988.344 684.085 993.053 679.361C1002.09 669.688 1009.32 658.847 1010.17 644.575C1010.55 640.101 1009.89 635.724 1008.26 631.742C1006.62 627.76 1004.04 624.268 1000.69 621.503C996.157 617.573 990.37 615.076 983.992 614.297C967.293 612.555 952.442 616.567 940.374 626.261C935.546 630.138 930.924 634.655 926.077 638.97Z" stroke="#DFE4E8" stroke-miterlimit="10"/>
</g>
<defs>
<clipPath id="clip0_581_2879">
<rect width="968" height="789" fill="white"/>
</clipPath>
</defs>
</svg>
