<svg width="40" height="47" viewBox="0 0 40 47" fill="none" xmlns="http://www.w3.org/2000/svg">
<path d="M38.8438 11.9609L28.0391 1.15625C27.9297 1.04687 27.7969 0.960938 27.6406 0.898438C27.5 0.835937 27.3516 0.804688 27.1953 0.804688H4.39062C3.40625 0.804688 2.5625 1.15625 1.85938 1.85938C1.15625 2.5625 0.804688 3.40625 0.804688 4.39062V42.8047C0.804688 43.7891 1.15625 44.6328 1.85938 45.3359C2.5625 46.0391 3.40625 46.3906 4.39062 46.3906H35.6094C36.5938 46.3906 37.4375 46.0391 38.1406 45.3359C38.8438 44.6328 39.1953 43.7891 39.1953 42.8047V12.8047C39.1953 12.6484 39.1641 12.5 39.1016 12.3594C39.0391 12.2031 38.9531 12.0703 38.8438 11.9609ZM36.3125 12.8047H28.3906C28.0625 12.8047 27.7812 12.6875 27.5469 12.4531C27.3125 12.2188 27.1953 11.9375 27.1953 11.6094V3.6875L36.3125 12.8047ZM35.6094 44H4.39062C4.0625 44 3.78125 43.8828 3.54688 43.6484C3.3125 43.4141 3.19531 43.1328 3.19531 42.8047V4.39062C3.19531 4.0625 3.3125 3.78125 3.54688 3.54688C3.78125 3.3125 4.0625 3.19531 4.39062 3.19531H24.8047V11.6094C24.8047 12.5938 25.1562 13.4375 25.8594 14.1406C26.5625 14.8438 27.4062 15.1953 28.3906 15.1953H36.8047V42.8047C36.8047 43.1328 36.6875 43.4141 36.4531 43.6484C36.2188 43.8828 35.9375 44 35.6094 44ZM16.3906 34.3906C16.0625 34.3906 15.7812 34.2734 15.5469 34.0391C15.3125 33.8047 15.1953 33.5234 15.1953 33.1953V28.3906C15.1953 28.0625 15.3125 27.7812 15.5469 27.5469C15.7812 27.3125 16.0625 27.1953 16.3906 27.1953C16.7344 27.1953 17.0234 27.3125 17.2578 27.5469C17.4922 27.7812 17.6094 28.0625 17.6094 28.3906V33.1953C17.6094 33.5234 17.4922 33.8047 17.2578 34.0391C17.0234 34.2734 16.7344 34.3906 16.3906 34.3906ZM21.1953 34.3906C20.8672 34.3906 20.5859 34.2734 20.3516 34.0391C20.1172 33.8047 20 33.5234 20 33.1953V26C20 25.6719 20.1172 25.3906 20.3516 25.1562C20.5859 24.9219 20.8672 24.8047 21.1953 24.8047C21.5234 24.8047 21.8047 24.9219 22.0391 25.1562C22.2734 25.3906 22.3906 25.6719 22.3906 26V33.1953C22.3906 33.5234 22.2734 33.8047 22.0391 34.0391C21.8047 34.2734 21.5234 34.3906 21.1953 34.3906ZM26 34.3906C25.6719 34.3906 25.3906 34.2734 25.1562 34.0391C24.9219 33.8047 24.8047 33.5234 24.8047 33.1953V30.8047C24.8047 30.4766 24.9219 30.1953 25.1562 29.9609C25.3906 29.7266 25.6719 29.6094 26 29.6094C26.3281 29.6094 26.6094 29.7266 26.8438 29.9609C27.0781 30.1953 27.1953 30.4766 27.1953 30.8047V33.1953C27.1953 33.5234 27.0781 33.8047 26.8438 34.0391C26.6094 34.2734 26.3281 34.3906 26 34.3906ZM30.8047 39.1953H9.19531C8.86719 39.1953 8.58594 39.0781 8.35156 38.8438C8.11719 38.6094 8 38.3281 8 38V21.1953C8 20.8672 8.11719 20.5859 8.35156 20.3516C8.58594 20.1172 8.86719 20 9.19531 20H30.8047C31.1328 20 31.4141 20.1172 31.6484 20.3516C31.8828 20.5859 32 20.8672 32 21.1953V38C32 38.3281 31.8828 38.6094 31.6484 38.8438C31.4141 39.0781 31.1328 39.1953 30.8047 39.1953ZM10.3906 36.8047H29.6094V22.3906H10.3906V36.8047Z" fill="#1B127D"/>
</svg>
