<svg width="42" height="32" viewBox="0 0 42 32" fill="none" xmlns="http://www.w3.org/2000/svg">
<path d="M41.0391 7.54688L33.8438 0.351562C33.6094 0.117188 33.3281 0 33 0C32.6719 0 32.3906 0.117188 32.1562 0.351562C31.9219 0.585938 31.8047 0.867188 31.8047 1.19531C31.8047 1.52344 31.9219 1.80469 32.1562 2.03906L37.3125 7.19531H3C2.67188 7.19531 2.39062 7.3125 2.15625 7.54688C1.92188 7.78125 1.80469 8.0625 1.80469 8.39062C1.80469 8.73438 1.92188 9.02344 2.15625 9.25781C2.39062 9.49219 2.67188 9.60938 3 9.60938H37.3125L32.1562 14.7422C31.9219 14.9766 31.8047 15.2656 31.8047 15.6094C31.8047 15.9375 31.9219 16.2188 32.1562 16.4531C32.2656 16.5625 32.3906 16.6484 32.5312 16.7109C32.6875 16.7734 32.8438 16.8047 33 16.8047C33.1562 16.8047 33.3047 16.7734 33.4453 16.7109C33.6016 16.6484 33.7344 16.5625 33.8438 16.4531L41.0391 9.25781C41.2734 9.02344 41.3906 8.74219 41.3906 8.41406C41.3906 8.07031 41.2734 7.78125 41.0391 7.54688ZM39 21.6094H4.6875L9.84375 16.4531C10.0781 16.2188 10.1953 15.9375 10.1953 15.6094C10.1953 15.2656 10.0781 14.9766 9.84375 14.7422C9.60938 14.5078 9.32812 14.3906 9 14.3906C8.67188 14.3906 8.39062 14.5078 8.15625 14.7422L0.960938 21.9609C0.726562 22.1953 0.609375 22.4766 0.609375 22.8047C0.609375 23.1328 0.726562 23.4141 0.960938 23.6484L8.15625 30.8438C8.26562 30.9688 8.39062 31.0625 8.53125 31.125C8.6875 31.1719 8.84375 31.1953 9 31.1953C9.15625 31.1953 9.30469 31.1719 9.44531 31.125C9.60156 31.0625 9.73438 30.9688 9.84375 30.8438C10.0781 30.6094 10.1953 30.3281 10.1953 30C10.1953 29.6719 10.0781 29.3906 9.84375 29.1562L4.6875 24H39C39.3281 24 39.6094 23.8828 39.8438 23.6484C40.0781 23.4141 40.1953 23.1328 40.1953 22.8047C40.1953 22.4766 40.0781 22.1953 39.8438 21.9609C39.6094 21.7266 39.3281 21.6094 39 21.6094Z" fill="#1B127D"/>
</svg>
