<svg width="50" height="37" viewBox="0 0 50 37" fill="none" xmlns="http://www.w3.org/2000/svg">
<path d="M25 22.1953C24.9219 22.1953 24.8438 22.1875 24.7656 22.1719C24.6875 22.1562 24.6094 22.1328 24.5312 22.1016L1.72656 12.5156C1.50781 12.4219 1.32812 12.2734 1.1875 12.0703C1.0625 11.8672 1 11.6406 1 11.3906C1 11.1562 1.0625 10.9375 1.1875 10.7344C1.32812 10.5312 1.50781 10.3828 1.72656 10.2891L24.5312 0.703125C24.6875 0.640625 24.8438 0.609375 25 0.609375C25.1562 0.609375 25.3125 0.640625 25.4688 0.703125L48.2734 10.2891C48.4922 10.3828 48.6641 10.5312 48.7891 10.7344C48.9297 10.9375 49 11.1562 49 11.3906C49 11.6406 48.9297 11.8672 48.7891 12.0703C48.6641 12.2734 48.4922 12.4219 48.2734 12.5156L25.4688 22.1016C25.3906 22.1328 25.3125 22.1562 25.2344 22.1719C25.1562 22.1875 25.0781 22.1953 25 22.1953ZM5.28906 11.3906L25 19.6875L44.7109 11.3906L25 3.09375L5.28906 11.3906ZM25 29.3906C24.9219 29.3906 24.8438 29.3828 24.7656 29.3672C24.6875 29.3516 24.6094 29.3281 24.5312 29.2969L1.72656 19.7109C1.42969 19.5859 1.21875 19.3672 1.09375 19.0547C0.96875 18.7422 0.96875 18.4375 1.09375 18.1406C1.21875 17.8281 1.4375 17.6094 1.75 17.4844C2.0625 17.3594 2.36719 17.3594 2.66406 17.4844L25 26.9062L47.3359 17.4844C47.6328 17.3594 47.9375 17.3594 48.25 17.4844C48.5625 17.6094 48.7812 17.8281 48.9062 18.1406C49.0312 18.4375 49.0312 18.7422 48.9062 19.0547C48.7812 19.3672 48.5703 19.5859 48.2734 19.7109L25.4688 29.2969C25.3906 29.3281 25.3125 29.3516 25.2344 29.3672C25.1562 29.3828 25.0781 29.3906 25 29.3906ZM25 36.6094C24.9219 36.6094 24.8438 36.6016 24.7656 36.5859C24.6875 36.5703 24.6094 36.5469 24.5312 36.5156L1.72656 26.9062C1.42969 26.7812 1.21875 26.5625 1.09375 26.25C0.96875 25.9375 0.96875 25.6328 1.09375 25.3359C1.21875 25.0234 1.4375 24.8047 1.75 24.6797C2.0625 24.5547 2.36719 24.5625 2.66406 24.7031L25 34.1016L47.3359 24.7031C47.6328 24.5625 47.9375 24.5547 48.25 24.6797C48.5625 24.8047 48.7812 25.0234 48.9062 25.3359C49.0312 25.6328 49.0312 25.9375 48.9062 26.25C48.7812 26.5625 48.5703 26.7812 48.2734 26.9062L25.4688 36.5156C25.3906 36.5469 25.3125 36.5703 25.2344 36.5859C25.1562 36.6016 25.0781 36.6094 25 36.6094Z" fill="#1B127D"/>
</svg>
