<svg width="46" height="49" viewBox="0 0 46 49" fill="none" xmlns="http://www.w3.org/2000/svg">
<path d="M33.6094 14.8047H36V17.1953H33.6094V14.8047ZM33.6094 19.6094H36V22H33.6094V19.6094ZM33.6094 24.3906H36V26.8047H33.6094V24.3906ZM33.6094 29.1953H36V31.6094H33.6094V29.1953ZM33.6094 38.8047H36V41.1953H33.6094V38.8047ZM33.6094 34H36V36.3906H33.6094V34ZM14.3906 14.8047H16.8047V17.1953H14.3906V14.8047ZM14.3906 19.6094H16.8047V22H14.3906V19.6094ZM14.3906 24.3906H16.8047V26.8047H14.3906V24.3906ZM14.3906 29.1953H16.8047V31.6094H14.3906V29.1953ZM14.3906 38.8047H16.8047V41.1953H14.3906V38.8047ZM14.3906 34H16.8047V36.3906H14.3906V34ZM9.60938 14.8047H12V17.1953H9.60938V14.8047ZM9.60938 19.6094H12V22H9.60938V19.6094ZM9.60938 24.3906H12V26.8047H9.60938V24.3906ZM9.60938 29.1953H12V31.6094H9.60938V29.1953ZM9.60938 38.8047H12V41.1953H9.60938V38.8047ZM9.60938 34H12V36.3906H9.60938V34ZM19.1953 14.8047H21.6094V17.1953H19.1953V14.8047ZM19.1953 19.6094H21.6094V22H19.1953V19.6094ZM19.1953 24.3906H21.6094V26.8047H19.1953V24.3906ZM19.1953 29.1953H21.6094V31.6094H19.1953V29.1953ZM19.1953 38.8047H21.6094V41.1953H19.1953V38.8047ZM19.1953 34H21.6094V36.3906H19.1953V34ZM44.3906 46H43.1953V13.6094C43.1953 12.6875 42.8984 11.8125 42.3047 10.9844C41.7109 10.1562 40.9766 9.59375 40.1016 9.29688L28.8047 5.52344V1.60938C28.8047 1.40625 28.7578 1.22656 28.6641 1.07031C28.5859 0.898438 28.4688 0.757813 28.3125 0.648438C28.1562 0.523438 27.9844 0.445312 27.7969 0.414062C27.625 0.382813 27.4453 0.398437 27.2578 0.460938L5.55469 6.95312C4.66406 7.21875 3.91406 7.76563 3.30469 8.59375C2.69531 9.40625 2.39062 10.2734 2.39062 11.1953V46H1.19531C0.867188 46 0.585938 46.1172 0.351562 46.3516C0.117188 46.5859 0 46.8672 0 47.1953C0 47.5234 0.117188 47.8047 0.351562 48.0391C0.585938 48.2734 0.867188 48.3906 1.19531 48.3906H44.3906C44.7344 48.3906 45.0234 48.2734 45.2578 48.0391C45.4922 47.8047 45.6094 47.5234 45.6094 47.1953C45.6094 46.8672 45.4922 46.5859 45.2578 46.3516C45.0234 46.1172 44.7344 46 44.3906 46ZM39.3516 11.5703C39.7266 11.7109 40.0625 11.9844 40.3594 12.3906C40.6562 12.7969 40.8047 13.2031 40.8047 13.6094V46H28.8047V8.05469L39.3516 11.5703ZM4.80469 11.1953C4.80469 10.8047 4.94531 10.4141 5.22656 10.0234C5.52344 9.63281 5.85938 9.375 6.23438 9.25L26.3906 3.20312V46H4.80469V11.1953Z" fill="#1B127D"/>
</svg>
